<?xml version="1.0" encoding="utf-8" standalone="no"?>
<!DOCTYPE svg PUBLIC "-//W3C//DTD SVG 1.1//EN"
  "http://www.w3.org/Graphics/SVG/1.1/DTD/svg11.dtd">
<svg xmlns:xlink="http://www.w3.org/1999/xlink" width="756pt" height="252pt" viewBox="0 0 756 252" xmlns="http://www.w3.org/2000/svg" version="1.1">
 <metadata>
  <rdf:RDF xmlns:dc="http://purl.org/dc/elements/1.1/" xmlns:cc="http://creativecommons.org/ns#" xmlns:rdf="http://www.w3.org/1999/02/22-rdf-syntax-ns#">
   <cc:Work>
    <dc:type rdf:resource="http://purl.org/dc/dcmitype/StillImage"/>
    <dc:date>2025-08-25T20:09:36.466769</dc:date>
    <dc:format>image/svg+xml</dc:format>
    <dc:creator>
     <cc:Agent>
      <dc:title>Matplotlib v3.10.5, https://matplotlib.org/</dc:title>
     </cc:Agent>
    </dc:creator>
   </cc:Work>
  </rdf:RDF>
 </metadata>
 <defs>
  <style type="text/css">*{stroke-linejoin: round; stroke-linecap: butt}</style>
 </defs>
 <g id="figure_1">
  <g id="patch_1">
   <path d="M 0 252 
L 756 252 
L 756 0 
L 0 0 
z
" style="fill: #ffffff"/>
  </g>
  <g id="axes_1">
   <g id="patch_2">
    <path d="M 94.5 224.28 
L 680.4 224.28 
L 680.4 30.24 
L 94.5 30.24 
z
" style="fill: #ffffff"/>
   </g>
   <g id="matplotlib.axis_1">
    <g id="xtick_1">
     <g id="line2d_1">
      <defs>
       <path id="me691196631" d="M 0 0 
L 0 3.5 
" style="stroke: #000000; stroke-width: 0.8"/>
      </defs>
      <g>
       <use xlink:href="#me691196631" x="115.646108" y="224.28" style="stroke: #000000; stroke-width: 0.8"/>
      </g>
     </g>
     <g id="text_1">
      <!-- 2020 -->
      <g transform="translate(102.921108 238.878438) scale(0.1 -0.1)">
       <defs>
        <path id="DejaVuSans-32" d="M 1228 531 
L 3431 531 
L 3431 0 
L 469 0 
L 469 531 
Q 828 903 1448 1529 
Q 2069 2156 2228 2338 
Q 2531 2678 2651 2914 
Q 2772 3150 2772 3378 
Q 2772 3750 2511 3984 
Q 2250 4219 1831 4219 
Q 1534 4219 1204 4116 
Q 875 4013 500 3803 
L 500 4441 
Q 881 4594 1212 4672 
Q 1544 4750 1819 4750 
Q 2544 4750 2975 4387 
Q 3406 4025 3406 3419 
Q 3406 3131 3298 2873 
Q 3191 2616 2906 2266 
Q 2828 2175 2409 1742 
Q 1991 1309 1228 531 
z
" transform="scale(0.015625)"/>
        <path id="DejaVuSans-30" d="M 2034 4250 
Q 1547 4250 1301 3770 
Q 1056 3291 1056 2328 
Q 1056 1369 1301 889 
Q 1547 409 2034 409 
Q 2525 409 2770 889 
Q 3016 1369 3016 2328 
Q 3016 3291 2770 3770 
Q 2525 4250 2034 4250 
z
M 2034 4750 
Q 2819 4750 3233 4129 
Q 3647 3509 3647 2328 
Q 3647 1150 3233 529 
Q 2819 -91 2034 -91 
Q 1250 -91 836 529 
Q 422 1150 422 2328 
Q 422 3509 836 4129 
Q 1250 4750 2034 4750 
z
" transform="scale(0.015625)"/>
       </defs>
       <use xlink:href="#DejaVuSans-32"/>
       <use xlink:href="#DejaVuSans-30" transform="translate(63.623047 0)"/>
       <use xlink:href="#DejaVuSans-32" transform="translate(127.246094 0)"/>
       <use xlink:href="#DejaVuSans-30" transform="translate(190.869141 0)"/>
      </g>
     </g>
    </g>
    <g id="xtick_2">
     <g id="line2d_2">
      <g>
       <use xlink:href="#me691196631" x="211.254204" y="224.28" style="stroke: #000000; stroke-width: 0.8"/>
      </g>
     </g>
     <g id="text_2">
      <!-- 2021 -->
      <g transform="translate(198.529204 238.878438) scale(0.1 -0.1)">
       <defs>
        <path id="DejaVuSans-31" d="M 794 531 
L 1825 531 
L 1825 4091 
L 703 3866 
L 703 4441 
L 1819 4666 
L 2450 4666 
L 2450 531 
L 3481 531 
L 3481 0 
L 794 0 
L 794 531 
z
" transform="scale(0.015625)"/>
       </defs>
       <use xlink:href="#DejaVuSans-32"/>
       <use xlink:href="#DejaVuSans-30" transform="translate(63.623047 0)"/>
       <use xlink:href="#DejaVuSans-32" transform="translate(127.246094 0)"/>
       <use xlink:href="#DejaVuSans-31" transform="translate(190.869141 0)"/>
      </g>
     </g>
    </g>
    <g id="xtick_3">
     <g id="line2d_3">
      <g>
       <use xlink:href="#me691196631" x="306.601077" y="224.28" style="stroke: #000000; stroke-width: 0.8"/>
      </g>
     </g>
     <g id="text_3">
      <!-- 2022 -->
      <g transform="translate(293.876077 238.878438) scale(0.1 -0.1)">
       <use xlink:href="#DejaVuSans-32"/>
       <use xlink:href="#DejaVuSans-30" transform="translate(63.623047 0)"/>
       <use xlink:href="#DejaVuSans-32" transform="translate(127.246094 0)"/>
       <use xlink:href="#DejaVuSans-32" transform="translate(190.869141 0)"/>
      </g>
     </g>
    </g>
    <g id="xtick_4">
     <g id="line2d_4">
      <g>
       <use xlink:href="#me691196631" x="401.947949" y="224.28" style="stroke: #000000; stroke-width: 0.8"/>
      </g>
     </g>
     <g id="text_4">
      <!-- 2023 -->
      <g transform="translate(389.222949 238.878438) scale(0.1 -0.1)">
       <defs>
        <path id="DejaVuSans-33" d="M 2597 2516 
Q 3050 2419 3304 2112 
Q 3559 1806 3559 1356 
Q 3559 666 3084 287 
Q 2609 -91 1734 -91 
Q 1441 -91 1130 -33 
Q 819 25 488 141 
L 488 750 
Q 750 597 1062 519 
Q 1375 441 1716 441 
Q 2309 441 2620 675 
Q 2931 909 2931 1356 
Q 2931 1769 2642 2001 
Q 2353 2234 1838 2234 
L 1294 2234 
L 1294 2753 
L 1863 2753 
Q 2328 2753 2575 2939 
Q 2822 3125 2822 3475 
Q 2822 3834 2567 4026 
Q 2313 4219 1838 4219 
Q 1578 4219 1281 4162 
Q 984 4106 628 3988 
L 628 4550 
Q 988 4650 1302 4700 
Q 1616 4750 1894 4750 
Q 2613 4750 3031 4423 
Q 3450 4097 3450 3541 
Q 3450 3153 3228 2886 
Q 3006 2619 2597 2516 
z
" transform="scale(0.015625)"/>
       </defs>
       <use xlink:href="#DejaVuSans-32"/>
       <use xlink:href="#DejaVuSans-30" transform="translate(63.623047 0)"/>
       <use xlink:href="#DejaVuSans-32" transform="translate(127.246094 0)"/>
       <use xlink:href="#DejaVuSans-33" transform="translate(190.869141 0)"/>
      </g>
     </g>
    </g>
    <g id="xtick_5">
     <g id="line2d_5">
      <g>
       <use xlink:href="#me691196631" x="497.294821" y="224.28" style="stroke: #000000; stroke-width: 0.8"/>
      </g>
     </g>
     <g id="text_5">
      <!-- 2024 -->
      <g transform="translate(484.569821 238.878438) scale(0.1 -0.1)">
       <defs>
        <path id="DejaVuSans-34" d="M 2419 4116 
L 825 1625 
L 2419 1625 
L 2419 4116 
z
M 2253 4666 
L 3047 4666 
L 3047 1625 
L 3713 1625 
L 3713 1100 
L 3047 1100 
L 3047 0 
L 2419 0 
L 2419 1100 
L 313 1100 
L 313 1709 
L 2253 4666 
z
" transform="scale(0.015625)"/>
       </defs>
       <use xlink:href="#DejaVuSans-32"/>
       <use xlink:href="#DejaVuSans-30" transform="translate(63.623047 0)"/>
       <use xlink:href="#DejaVuSans-32" transform="translate(127.246094 0)"/>
       <use xlink:href="#DejaVuSans-34" transform="translate(190.869141 0)"/>
      </g>
     </g>
    </g>
    <g id="xtick_6">
     <g id="line2d_6">
      <g>
       <use xlink:href="#me691196631" x="592.902918" y="224.28" style="stroke: #000000; stroke-width: 0.8"/>
      </g>
     </g>
     <g id="text_6">
      <!-- 2025 -->
      <g transform="translate(580.177918 238.878438) scale(0.1 -0.1)">
       <defs>
        <path id="DejaVuSans-35" d="M 691 4666 
L 3169 4666 
L 3169 4134 
L 1269 4134 
L 1269 2991 
Q 1406 3038 1543 3061 
Q 1681 3084 1819 3084 
Q 2600 3084 3056 2656 
Q 3513 2228 3513 1497 
Q 3513 744 3044 326 
Q 2575 -91 1722 -91 
Q 1428 -91 1123 -41 
Q 819 9 494 109 
L 494 744 
Q 775 591 1075 516 
Q 1375 441 1709 441 
Q 2250 441 2565 725 
Q 2881 1009 2881 1497 
Q 2881 1984 2565 2268 
Q 2250 2553 1709 2553 
Q 1456 2553 1204 2497 
Q 953 2441 691 2322 
L 691 4666 
z
" transform="scale(0.015625)"/>
       </defs>
       <use xlink:href="#DejaVuSans-32"/>
       <use xlink:href="#DejaVuSans-30" transform="translate(63.623047 0)"/>
       <use xlink:href="#DejaVuSans-32" transform="translate(127.246094 0)"/>
       <use xlink:href="#DejaVuSans-35" transform="translate(190.869141 0)"/>
      </g>
     </g>
    </g>
   </g>
   <g id="matplotlib.axis_2">
    <g id="ytick_1">
     <g id="line2d_7">
      <defs>
       <path id="m7f63da42e0" d="M 0 0 
L -3.5 0 
" style="stroke: #000000; stroke-width: 0.8"/>
      </defs>
      <g>
       <use xlink:href="#m7f63da42e0" x="94.5" y="219.196789" style="stroke: #000000; stroke-width: 0.8"/>
      </g>
     </g>
     <g id="text_7">
      <!-- 50 -->
      <g transform="translate(74.775 222.996008) scale(0.1 -0.1)">
       <use xlink:href="#DejaVuSans-35"/>
       <use xlink:href="#DejaVuSans-30" transform="translate(63.623047 0)"/>
      </g>
     </g>
    </g>
    <g id="ytick_2">
     <g id="line2d_8">
      <g>
       <use xlink:href="#m7f63da42e0" x="94.5" y="197.556525" style="stroke: #000000; stroke-width: 0.8"/>
      </g>
     </g>
     <g id="text_8">
      <!-- 75 -->
      <g transform="translate(74.775 201.355744) scale(0.1 -0.1)">
       <defs>
        <path id="DejaVuSans-37" d="M 525 4666 
L 3525 4666 
L 3525 4397 
L 1831 0 
L 1172 0 
L 2766 4134 
L 525 4134 
L 525 4666 
z
" transform="scale(0.015625)"/>
       </defs>
       <use xlink:href="#DejaVuSans-37"/>
       <use xlink:href="#DejaVuSans-35" transform="translate(63.623047 0)"/>
      </g>
     </g>
    </g>
    <g id="ytick_3">
     <g id="line2d_9">
      <g>
       <use xlink:href="#m7f63da42e0" x="94.5" y="175.91626" style="stroke: #000000; stroke-width: 0.8"/>
      </g>
     </g>
     <g id="text_9">
      <!-- 100 -->
      <g transform="translate(68.4125 179.715479) scale(0.1 -0.1)">
       <use xlink:href="#DejaVuSans-31"/>
       <use xlink:href="#DejaVuSans-30" transform="translate(63.623047 0)"/>
       <use xlink:href="#DejaVuSans-30" transform="translate(127.246094 0)"/>
      </g>
     </g>
    </g>
    <g id="ytick_4">
     <g id="line2d_10">
      <g>
       <use xlink:href="#m7f63da42e0" x="94.5" y="154.275996" style="stroke: #000000; stroke-width: 0.8"/>
      </g>
     </g>
     <g id="text_10">
      <!-- 125 -->
      <g transform="translate(68.4125 158.075215) scale(0.1 -0.1)">
       <use xlink:href="#DejaVuSans-31"/>
       <use xlink:href="#DejaVuSans-32" transform="translate(63.623047 0)"/>
       <use xlink:href="#DejaVuSans-35" transform="translate(127.246094 0)"/>
      </g>
     </g>
    </g>
    <g id="ytick_5">
     <g id="line2d_11">
      <g>
       <use xlink:href="#m7f63da42e0" x="94.5" y="132.635731" style="stroke: #000000; stroke-width: 0.8"/>
      </g>
     </g>
     <g id="text_11">
      <!-- 150 -->
      <g transform="translate(68.4125 136.43495) scale(0.1 -0.1)">
       <use xlink:href="#DejaVuSans-31"/>
       <use xlink:href="#DejaVuSans-35" transform="translate(63.623047 0)"/>
       <use xlink:href="#DejaVuSans-30" transform="translate(127.246094 0)"/>
      </g>
     </g>
    </g>
    <g id="ytick_6">
     <g id="line2d_12">
      <g>
       <use xlink:href="#m7f63da42e0" x="94.5" y="110.995467" style="stroke: #000000; stroke-width: 0.8"/>
      </g>
     </g>
     <g id="text_12">
      <!-- 175 -->
      <g transform="translate(68.4125 114.794686) scale(0.1 -0.1)">
       <use xlink:href="#DejaVuSans-31"/>
       <use xlink:href="#DejaVuSans-37" transform="translate(63.623047 0)"/>
       <use xlink:href="#DejaVuSans-35" transform="translate(127.246094 0)"/>
      </g>
     </g>
    </g>
    <g id="ytick_7">
     <g id="line2d_13">
      <g>
       <use xlink:href="#m7f63da42e0" x="94.5" y="89.355203" style="stroke: #000000; stroke-width: 0.8"/>
      </g>
     </g>
     <g id="text_13">
      <!-- 200 -->
      <g transform="translate(68.4125 93.154421) scale(0.1 -0.1)">
       <use xlink:href="#DejaVuSans-32"/>
       <use xlink:href="#DejaVuSans-30" transform="translate(63.623047 0)"/>
       <use xlink:href="#DejaVuSans-30" transform="translate(127.246094 0)"/>
      </g>
     </g>
    </g>
    <g id="ytick_8">
     <g id="line2d_14">
      <g>
       <use xlink:href="#m7f63da42e0" x="94.5" y="67.714938" style="stroke: #000000; stroke-width: 0.8"/>
      </g>
     </g>
     <g id="text_14">
      <!-- 225 -->
      <g transform="translate(68.4125 71.514157) scale(0.1 -0.1)">
       <use xlink:href="#DejaVuSans-32"/>
       <use xlink:href="#DejaVuSans-32" transform="translate(63.623047 0)"/>
       <use xlink:href="#DejaVuSans-35" transform="translate(127.246094 0)"/>
      </g>
     </g>
    </g>
    <g id="ytick_9">
     <g id="line2d_15">
      <g>
       <use xlink:href="#m7f63da42e0" x="94.5" y="46.074674" style="stroke: #000000; stroke-width: 0.8"/>
      </g>
     </g>
     <g id="text_15">
      <!-- 250 -->
      <g transform="translate(68.4125 49.873893) scale(0.1 -0.1)">
       <use xlink:href="#DejaVuSans-32"/>
       <use xlink:href="#DejaVuSans-35" transform="translate(63.623047 0)"/>
       <use xlink:href="#DejaVuSans-30" transform="translate(127.246094 0)"/>
      </g>
     </g>
    </g>
   </g>
   <g id="line2d_16">
    <path d="M 121.131818 196.060099 
L 121.393042 195.740217 
L 121.654267 195.93258 
L 122.43794 197.889338 
L 122.960388 194.671946 
L 123.221613 194.770202 
L 123.482837 197.772267 
L 124.26651 197.94995 
L 124.527734 195.81967 
L 125.050183 194.490063 
L 125.311407 195.414186 
L 126.09508 195.095684 
L 126.356304 195.502212 
L 126.617529 193.911704 
L 126.878753 194.399984 
L 127.139977 194.383209 
L 128.184874 195.630054 
L 128.446099 194.661908 
L 128.707323 195.357622 
L 128.968547 196.876872 
L 129.75222 199.99293 
L 130.013445 202.109407 
L 130.274669 201.151749 
L 130.535893 205.160494 
L 130.797118 205.194017 
L 131.58079 199.860901 
L 131.842015 201.84955 
L 132.103239 199.037385 
L 132.364463 201.095172 
L 132.625688 201.91032 
L 133.409361 206.700692 
L 133.670585 202.683579 
L 133.931809 204.760227 
L 134.193034 210.460087 
L 134.454258 204.227997 
L 135.237931 211.72158 
L 135.499155 209.489855 
L 135.760379 210.786973 
L 136.021604 211.183036 
L 136.282828 214.439477 
L 137.066501 215.46 
L 137.327725 210.742976 
L 137.58895 211.027962 
L 137.850174 208.320535 
L 138.111398 210.562764 
L 138.895071 209.08122 
L 139.156295 209.190194 
L 139.41752 211.993995 
L 139.678744 211.151604 
L 139.939968 211.889221 
L 140.723641 207.476038 
L 140.984866 208.113098 
L 141.24609 206.721647 
L 141.507314 206.319326 
L 142.552211 205.217078 
L 142.813436 202.325255 
L 143.07466 202.874266 
L 143.335884 202.400687 
L 143.597109 203.215855 
L 144.380782 204.445919 
L 144.642006 206.239681 
L 144.90323 204.619851 
L 145.164455 204.844059 
L 145.425679 203.180213 
L 146.209352 203.138317 
L 146.470576 204.100162 
L 146.993025 200.910772 
L 147.254249 201.90196 
L 148.037922 201.044855 
L 148.560371 199.479496 
L 148.821595 198.827818 
L 149.082819 197.312841 
L 149.866492 196.287457 
L 150.388941 197.833943 
L 150.650165 197.436813 
L 150.911389 197.821329 
L 151.695062 196.297984 
L 151.956287 196.680381 
L 152.217511 195.400753 
L 152.478735 195.900848 
L 152.739959 195.472196 
L 153.784857 195.926042 
L 154.046081 195.636077 
L 154.56853 195.671818 
L 155.874651 194.163161 
L 156.135875 194.751486 
L 156.3971 192.822578 
L 157.180773 192.410761 
L 157.703221 188.338643 
L 157.964446 191.898066 
L 158.22567 191.288714 
L 159.009343 190.408316 
L 159.270567 188.498323 
L 159.531791 188.601287 
L 159.793016 188.571866 
L 160.05424 188.994197 
L 160.837913 187.071603 
L 161.099137 185.462088 
L 161.360362 186.821572 
L 161.621586 185.817196 
L 161.88281 188.172622 
L 162.927707 185.825597 
L 163.188932 185.970583 
L 163.450156 185.970583 
L 164.495053 183.92401 
L 164.756278 184.16774 
L 165.017502 182.34391 
L 165.278726 181.999322 
L 165.539951 181.858543 
L 166.323623 182.230445 
L 166.584848 180.902476 
L 166.846072 180.341466 
L 167.107296 181.352135 
L 167.368521 181.516042 
L 168.152194 179.809864 
L 168.413418 180.950818 
L 168.674642 180.721782 
L 168.935867 184.442999 
L 169.197091 184.636313 
L 169.980764 182.791469 
L 170.241988 184.100517 
L 170.764437 181.631594 
L 171.025661 173.167964 
L 172.070558 170.30615 
L 172.331783 169.972062 
L 172.593007 166.74462 
L 172.854231 168.921168 
L 173.637904 167.561347 
L 173.899128 170.384124 
L 174.160353 167.323481 
L 174.421577 165.639492 
L 175.466474 165.978407 
L 175.727699 165.174294 
L 175.988923 165.052198 
L 176.250147 162.890377 
L 176.511371 157.758422 
L 177.295044 156.505958 
L 177.556269 157.375319 
L 177.817493 155.946024 
L 178.078717 157.219549 
L 178.339942 157.390053 
L 179.123615 153.826344 
L 179.384839 149.498469 
L 179.646063 151.839194 
L 179.907287 160.696989 
L 180.168512 160.629634 
L 181.213409 167.483458 
L 181.474633 163.69449 
L 181.735858 166.919331 
L 181.997082 168.173909 
L 182.780755 165.344798 
L 183.041979 165.193228 
L 183.303203 168.06444 
L 183.564428 169.571611 
L 183.825652 172.518591 
L 184.609325 169.790529 
L 184.870549 168.333886 
L 185.131774 172.282838 
L 185.392998 171.356662 
L 185.654222 167.938136 
L 186.437895 165.681593 
L 186.699119 166.414138 
L 187.221568 164.140748 
L 187.482792 167.315081 
L 188.266465 164.384921 
L 188.52769 167.197178 
L 188.788914 165.580544 
L 189.050138 165.673173 
L 189.311363 163.989184 
L 190.095035 157.733155 
L 190.35626 160.511757 
L 190.617484 160.435962 
L 190.878708 160.840132 
L 191.139933 162.263115 
L 191.923606 164.822745 
L 192.18483 163.5345 
L 192.446054 164.07338 
L 192.968503 165.614245 
L 193.752176 165.605825 
L 194.0134 164.300712 
L 194.274624 168.847486 
L 194.535849 165.378473 
L 194.797073 170.817762 
L 195.580746 170.893537 
L 195.84197 169.487402 
L 196.364419 162.254674 
L 196.625643 162.368549 
L 197.409316 164.367513 
L 197.67054 164.662715 
L 197.931765 161.693796 
L 198.192989 161.929945 
L 198.454213 161.887758 
L 199.237886 161.010597 
L 199.499111 161.778124 
L 199.760335 162.92522 
L 200.021559 162.410709 
L 201.066456 166.450837 
L 201.588905 164.612121 
L 202.111354 164.139771 
L 202.895027 162.064886 
L 203.156251 158.969446 
L 203.417475 158.665804 
L 203.678699 158.783891 
L 203.939924 159.36587 
L 204.984821 157.569314 
L 205.246045 159.762293 
L 205.50727 158.530843 
L 205.768494 159.230922 
L 206.552167 159.762293 
L 206.813391 154.617255 
L 207.074615 154.676316 
L 207.33584 153.925603 
L 207.597064 155.646271 
L 208.380737 154.322053 
L 208.641961 151.243466 
L 208.903186 152.019433 
L 209.16441 151.167559 
L 210.209307 147.186498 
L 210.731756 149.691546 
L 210.99298 150.560274 
L 212.037877 153.326784 
L 212.299102 151.977266 
L 212.560326 155.696878 
L 212.82155 152.053167 
L 213.082775 151.100078 
L 213.866447 153.689467 
L 214.127672 153.841289 
L 214.388896 152.078467 
L 214.911345 155.241407 
L 215.956242 154.659429 
L 216.739915 145.179067 
L 217.523588 141.931813 
L 217.784812 141.729371 
L 218.046036 142.657166 
L 218.568485 151.175973 
L 219.613382 148.620324 
L 219.874607 149.505945 
L 220.135831 146.596079 
L 220.397055 146.955078 
L 221.180728 146.828345 
L 221.703177 148.112351 
L 221.964401 148.33191 
L 222.225625 148.129218 
L 223.270523 149.970661 
L 223.531747 151.95575 
L 223.792971 152.910245 
L 224.054195 152.775105 
L 224.837868 156.044127 
L 225.099093 156.1624 
L 225.360317 156.593197 
L 225.621541 160.276117 
L 225.882766 160.048058 
L 226.666439 154.532102 
L 227.450111 161.002566 
L 227.711336 159.912899 
L 228.495009 164.187109 
L 228.756233 160.191638 
L 229.017457 161.129266 
L 229.278682 159.456755 
L 229.539906 160.242331 
L 230.323579 157.742004 
L 230.584803 156.407352 
L 230.846027 157.091562 
L 231.107252 160.664688 
L 231.368476 161.120819 
L 232.152149 158.248808 
L 232.413373 158.966805 
L 232.674598 161.036366 
L 233.197046 160.090272 
L 233.980719 159.938226 
L 234.241943 161.196832 
L 234.503168 159.296256 
L 234.764392 158.578247 
L 235.809289 156.128607 
L 236.070514 155.866742 
L 236.331738 154.439176 
L 236.854187 150.131193 
L 237.637859 151.617865 
L 237.899084 148.923227 
L 238.160308 150.950522 
L 238.421532 148.864133 
L 238.682757 149.151305 
L 239.46643 148.576922 
L 239.727654 150.03826 
L 239.988878 149.708836 
L 240.250103 151.026588 
L 240.511327 149.016146 
L 241.295 148.678268 
L 241.556224 148.957027 
L 241.817448 149.641263 
L 242.078673 149.725716 
L 242.339897 151.432026 
L 243.12357 150.519751 
L 243.384794 154.481436 
L 243.646019 154.270231 
L 243.907243 152.884912 
L 244.168467 152.301058 
L 245.213364 155.939499 
L 245.474589 158.596381 
L 245.997037 154.63644 
L 246.78071 155.634892 
L 247.041935 156.836406 
L 247.303159 156.97179 
L 247.564383 154.754904 
L 247.825607 156.345643 
L 248.60928 154.932594 
L 249.131729 155.144136 
L 249.392953 156.47258 
L 249.654178 157.039495 
L 250.699075 157.318709 
L 250.960299 156.658723 
L 251.221523 157.944862 
L 251.482748 155.956418 
L 252.266421 155.947965 
L 252.527645 155.237194 
L 252.788869 154.907201 
L 253.050094 155.770276 
L 253.311318 154.721052 
L 254.094991 152.072642 
L 254.356215 152.783367 
L 254.617439 152.351863 
L 254.878664 150.964193 
L 255.139888 152.089568 
L 255.923561 150.532642 
L 256.184785 149.111153 
L 256.968458 149.847244 
L 257.752131 148.434208 
L 258.013355 147.122689 
L 258.27458 146.589607 
L 258.535804 146.327306 
L 258.797028 144.051209 
L 259.841926 142.308153 
L 260.10315 140.150467 
L 260.364374 141.275855 
L 260.625599 139.693583 
L 261.409271 140.209705 
L 261.670496 139.245113 
L 261.93172 136.27515 
L 262.192944 136.842058 
L 262.454169 138.610513 
L 263.237842 141.944294 
L 263.499066 138.813602 
L 263.76029 139.448201 
L 264.282739 136.774379 
L 265.066412 136.410534 
L 265.58886 139.803554 
L 265.850085 139.245113 
L 266.111309 139.05893 
L 266.894982 139.346617 
L 267.156206 137.789757 
L 267.417431 138.136643 
L 267.678655 138.043605 
L 267.939879 138.636744 
L 268.723552 138.679116 
L 268.984776 139.094368 
L 269.246001 138.874055 
L 269.507225 136.306401 
L 269.768449 136.128447 
L 270.552122 134.416668 
L 270.813347 135.204773 
L 271.074571 138.450324 
L 271.335795 138.162201 
L 271.597019 136.899579 
L 272.380692 135.611519 
L 272.641917 135.68777 
L 273.164365 137.4504 
L 273.42559 136.552125 
L 274.209263 132.721836 
L 274.470487 133.814996 
L 274.731711 133.238724 
L 275.25416 131.721898 
L 276.299057 129.696584 
L 276.821506 131.916798 
L 277.08273 136.23859 
L 277.866403 135.747101 
L 278.127627 136.958911 
L 278.388851 136.187752 
L 278.650076 136.391105 
L 278.9113 138.704555 
L 279.694973 141.348474 
L 279.956197 140.933222 
L 280.217422 138.882495 
L 280.478646 138.052058 
L 280.73987 137.975781 
L 281.523543 139.289267 
L 281.784767 142.221309 
L 282.045992 141.44171 
L 282.307216 142.568763 
L 282.56844 141.594225 
L 283.352113 144.568665 
L 283.613338 142.899232 
L 284.135786 141.051924 
L 284.397011 141.382392 
L 285.180683 141.458643 
L 285.441908 142.560284 
L 285.703132 143.068706 
L 285.964356 140.653605 
L 286.225581 139.738398 
L 287.009254 138.289343 
L 287.270478 136.41657 
L 287.531702 135.992839 
L 287.792927 135.806445 
L 288.054151 136.475875 
L 288.837824 136.51826 
L 289.099048 135.942 
L 289.360272 136.34028 
L 289.621497 133.187912 
L 289.882721 135.535242 
L 290.666394 136.247069 
L 291.188843 134.103119 
L 291.450067 134.55225 
L 291.711291 134.093979 
L 292.494964 134.806851 
L 292.756188 134.492853 
L 293.017413 136.945438 
L 293.278637 136.987876 
L 293.539861 135.188712 
L 294.323534 135.180232 
L 294.584759 134.331621 
L 294.845983 132.218472 
L 295.368431 126.227009 
L 296.152104 125.828149 
L 296.674553 125.047374 
L 297.197002 129.400958 
L 297.980675 126.490063 
L 298.241899 122.195955 
L 298.503123 122.645733 
L 298.764347 123.502864 
L 299.025572 125.132237 
L 299.809245 122.178982 
L 300.331693 113.896166 
L 300.592918 114.337464 
L 300.854142 110.187603 
L 301.899039 114.532641 
L 302.160263 110.314863 
L 302.421488 116.289367 
L 302.682712 117.239854 
L 303.466385 118.419475 
L 303.988834 113.420936 
L 304.250058 112.877829 
L 305.294955 109.440786 
L 305.556179 110.323356 
L 305.817404 110.246973 
L 306.078628 111.248403 
L 306.339852 111.783057 
L 307.123525 108.015057 
L 307.38475 109.975413 
L 307.907198 116.51001 
L 308.168423 116.36575 
L 308.952096 116.348778 
L 309.21332 113.896166 
L 309.474544 113.514252 
L 309.735768 116.348778 
L 309.996993 115.601961 
L 311.04189 118.377037 
L 311.303114 121.406727 
L 311.825563 124.648527 
L 312.609236 125.318974 
L 312.87046 126.88047 
L 313.131684 126.956853 
L 313.392909 127.355753 
L 313.654133 117.92726 
L 314.437806 114.150819 
L 314.69903 114.295026 
L 314.960255 113.251224 
L 315.221479 115.746234 
L 316.266376 116.612954 
L 316.5276 113.919293 
L 316.788825 112.687196 
L 317.311273 119.17913 
L 318.094946 118.975196 
L 318.356171 115.65276 
L 318.617395 115.856694 
L 318.878619 118.975196 
L 319.139844 120.31778 
L 320.184741 122.849931 
L 320.445965 126.461295 
L 320.968414 122.399585 
L 321.752087 122.170173 
L 322.013311 123.801646 
L 322.274535 120.946568 
L 322.53576 121.226964 
L 322.796984 123.827164 
L 323.580657 127.115602 
L 323.841881 128.696104 
L 324.103105 124.014086 
L 324.625554 130.998843 
L 325.409227 134.491228 
L 325.931676 126.869164 
L 326.1929 125.993951 
L 326.454124 123.138873 
L 327.237797 121.949253 
L 327.499021 119.026179 
L 327.760246 117.845052 
L 328.02147 114.565094 
L 328.282694 114.012781 
L 329.066367 113.265014 
L 329.327592 110.409909 
L 329.588816 111.421074 
L 329.85004 114.106242 
L 330.111264 114.36116 
L 330.894937 110.851789 
L 331.417386 116.46851 
L 331.67861 116.205086 
L 331.939835 117.947019 
L 332.723508 121.634832 
L 332.984732 120.011839 
L 333.245956 117.683595 
L 333.50718 122.025728 
L 334.552078 122.21265 
L 334.813302 120.232798 
L 335.074526 120.377269 
L 335.335751 121.065534 
L 335.596975 124.999772 
L 336.380648 124.073575 
L 336.641872 129.239911 
L 336.903096 129.435352 
L 337.164321 123.427775 
L 337.425545 128.517675 
L 338.209218 128.254212 
L 338.470442 126.962625 
L 338.731667 121.405433 
L 338.992891 129.265377 
L 339.254115 128.63569 
L 340.037788 133.077782 
L 340.299012 130.992886 
L 340.560237 137.8092 
L 340.821461 141.162054 
L 341.082685 137.290158 
L 341.866358 138.626165 
L 342.127583 135.477535 
L 342.388807 142.642756 
L 342.650031 145.595614 
L 342.911256 145.391402 
L 343.694928 140.694022 
L 343.956153 143.034206 
L 344.217377 142.898043 
L 344.478601 140.123852 
L 344.739826 135.137174 
L 346.045947 135.928541 
L 346.307172 133.801115 
L 346.568396 138.762288 
L 347.352069 138.11555 
L 347.613293 135.928541 
L 347.874517 136.566773 
L 348.396966 145.782853 
L 349.180639 150.250503 
L 349.441863 149.501652 
L 349.703088 147.229517 
L 349.964312 151.799273 
L 350.225536 150.522815 
L 351.270433 146.855131 
L 351.531658 147.297592 
L 352.054106 141.927916 
L 352.837779 141.927916 
L 353.099004 145.519059 
L 353.360228 143.995814 
L 353.621452 146.13176 
L 353.882676 144.251128 
L 354.927574 142.013043 
L 355.188798 140.855717 
L 355.450022 137.936857 
L 355.711247 137.349701 
L 356.49492 139.196322 
L 356.756144 138.353839 
L 357.017368 138.668682 
L 357.278592 136.132779 
L 357.539817 134.686141 
L 358.32349 137.324143 
L 358.584714 133.979821 
L 359.107163 130.27806 
L 359.368387 131.350312 
L 360.15206 132.3204 
L 360.413284 133.469233 
L 360.674508 129.052659 
L 360.935733 128.576108 
L 361.196957 124.185079 
L 361.98063 125.036068 
L 362.241854 126.312532 
L 362.503079 121.104524 
L 363.025527 121.57282 
L 363.8092 121.981903 
L 364.070424 121.939281 
L 364.331649 118.257913 
L 364.592873 118.897056 
L 364.854097 115.820781 
L 365.63777 114.89193 
L 365.898995 115.028278 
L 366.160219 113.732979 
L 366.421443 114.073842 
L 366.682668 116.315004 
L 367.46634 119.681053 
L 367.727565 119.970775 
L 367.988789 119.715144 
L 368.250013 117.584758 
L 368.511238 123.047063 
L 369.294911 124.955908 
L 369.817359 128.500914 
L 370.078584 127.87029 
L 370.339808 129.702461 
L 371.384705 130.793205 
L 371.645929 129.57458 
L 371.907154 130.85284 
L 372.168378 128.373085 
L 372.952051 123.208982 
L 373.213275 131.381193 
L 373.4745 130.128517 
L 373.735724 132.633882 
L 373.996948 134.05697 
L 374.780621 130.835841 
L 375.041845 128.77361 
L 375.30307 131.483438 
L 375.564294 132.318564 
L 375.825518 134.287056 
L 376.609191 133.997309 
L 376.870416 133.15369 
L 377.13164 134.789839 
L 377.654088 144.708976 
L 378.437761 141.087309 
L 378.698986 137.976891 
L 378.96021 137.721286 
L 379.221434 138.54784 
L 379.482659 143.098371 
L 380.266332 142.817169 
L 380.527556 144.044261 
L 380.78878 144.589653 
L 381.050004 140.627123 
L 381.311229 144.555563 
L 382.356126 139.979474 
L 382.61735 139.885735 
L 382.878575 140.28626 
L 383.139799 136.979872 
L 383.923472 135.122196 
L 384.184696 132.659453 
L 384.44592 135.207402 
L 384.707145 139.084713 
L 384.968369 129.762083 
L 385.752042 131.807315 
L 386.013266 134.09958 
L 386.535715 144.129507 
L 386.796939 144.359963 
L 387.580612 143.899024 
L 387.841836 143.403942 
L 388.103061 147.355998 
L 388.364285 137.113116 
L 388.625509 134.6975 
L 389.409182 135.909588 
L 389.670407 134.407304 
L 389.931631 135.474273 
L 390.192855 133.826857 
L 390.45408 133.340334 
L 391.237752 136.140044 
L 391.498977 134.287796 
L 391.760201 133.528115 
L 393.066323 139.375081 
L 393.327547 141.97849 
L 393.588771 136.122979 
L 393.849996 135.884003 
L 394.11122 136.310759 
L 394.894893 137.317988 
L 395.156117 140.493258 
L 395.417341 142.174817 
L 395.678566 140.715208 
L 395.93979 141.133445 
L 396.984687 138.308125 
L 397.245912 140.237205 
L 397.507136 145.964663 
L 397.76836 147.663313 
L 398.552033 149.48995 
L 398.813257 149.54969 
L 399.074482 146.86093 
L 399.335706 149.609431 
L 399.59693 149.925238 
L 400.641828 151.487276 
L 400.903052 154.893035 
L 401.164276 151.845792 
L 401.4255 151.572653 
L 402.470398 155.721016 
L 402.731622 154.61989 
L 402.992846 155.763691 
L 403.254071 151.837246 
L 404.037744 151.384873 
L 404.298968 150.889765 
L 404.560192 148.533903 
L 404.821416 148.602215 
L 405.082641 147.449882 
L 406.127538 146.44268 
L 406.388762 147.065788 
L 406.649987 147.01458 
L 406.911211 144.795291 
L 407.956108 140.817638 
L 408.217332 141.389512 
L 408.739781 137.915486 
L 409.523454 140.416453 
L 410.045903 138.342255 
L 410.568351 130.600366 
L 411.352024 132.964773 
L 411.613248 130.472352 
L 411.874473 132.802577 
L 412.135697 133.698831 
L 412.396921 133.382535 
L 413.180594 130.954675 
L 413.441819 131.510343 
L 413.703043 129.689464 
L 414.225492 132.066024 
L 415.270389 135.545372 
L 415.792837 134.758879 
L 416.054062 137.0585 
L 416.837735 136.024102 
L 417.098959 136.460091 
L 417.360183 138.255319 
L 417.621408 137.742393 
L 417.882632 133.365443 
L 418.666305 130.97178 
L 418.927529 132.878154 
L 419.188753 131.792469 
L 419.711202 135.528254 
L 420.494875 133.844173 
L 420.756099 132.031814 
L 421.017324 131.689855 
L 421.278548 129.244917 
L 421.539772 129.971564 
L 422.323445 127.919874 
L 422.584669 126.31273 
L 422.845894 127.552264 
L 423.368342 125.483481 
L 424.41324 127.706152 
L 424.674464 125.038934 
L 424.935688 123.679681 
L 425.196912 121.508311 
L 425.980585 120.422613 
L 426.24181 120.884225 
L 426.503034 122.482889 
L 426.764258 121.713474 
L 427.809156 123.961795 
L 428.331604 125.611706 
L 428.592828 120.944085 
L 428.854053 121.243289 
L 429.637726 121.226198 
L 430.160174 119.174507 
L 430.421399 120.012275 
L 430.682623 121.40571 
L 431.466296 121.140728 
L 431.72752 122.474304 
L 431.988744 122.482889 
L 432.249969 118.507666 
L 432.511193 117.422007 
L 433.294866 117.498945 
L 433.817315 119.328382 
L 434.078539 120.747468 
L 434.339763 114.096521 
L 435.123436 114.156393 
L 435.38466 115.635325 
L 435.645885 114.105066 
L 435.907109 113.942632 
L 436.168333 114.74734 
L 436.952006 115.175377 
L 437.213231 115.175377 
L 437.474455 114.644633 
L 437.735679 112.624338 
L 437.996904 112.530151 
L 438.780576 113.351989 
L 439.041801 115.611973 
L 439.303025 115.372311 
L 439.564249 114.387787 
L 439.825474 112.299047 
L 440.870371 110.698191 
L 441.131595 110.740998 
L 441.39282 108.309784 
L 441.654044 107.5736 
L 442.698941 109.063099 
L 442.960165 110.253062 
L 443.22139 107.898878 
L 443.482614 107.565015 
L 444.266287 105.142386 
L 444.527511 105.553292 
L 444.788736 105.005404 
L 445.04996 103.241942 
L 445.311184 104.175059 
L 446.356081 104.097989 
L 446.617306 104.996832 
L 446.87853 102.394413 
L 447.139754 102.668377 
L 447.923427 103.875405 
L 448.184652 101.487012 
L 448.445876 100.468292 
L 448.7071 100.177237 
L 448.968324 96.427702 
L 450.274446 98.687699 
L 450.53567 98.276806 
L 450.796895 99.244146 
L 451.841792 101.469907 
L 452.103016 100.02315 
L 452.36424 99.363983 
L 452.625465 99.235574 
L 453.409138 96.410584 
L 453.670362 96.633155 
L 453.931586 95.460349 
L 454.454035 98.165501 
L 455.237708 97.472111 
L 455.760156 95.973988 
L 456.021381 97.069751 
L 456.282605 94.835431 
L 457.066278 94.304687 
L 457.327502 95.023792 
L 457.588727 97.617639 
L 457.849951 98.824694 
L 458.111175 106.683277 
L 458.894848 109.371285 
L 459.156072 108.558045 
L 459.417297 109.936304 
L 459.678521 110.124626 
L 459.939745 110.073207 
L 460.723418 108.641652 
L 460.984643 110.364671 
L 461.245867 111.11899 
L 461.507091 113.322033 
L 462.551988 111.74478 
L 462.813213 110.553258 
L 463.074437 107.218697 
L 463.335661 111.281873 
L 463.596886 109.370281 
L 464.380559 108.015902 
L 464.903007 101.621088 
L 465.164232 101.432488 
L 465.425456 100.069511 
L 466.470353 99.863794 
L 466.992802 110.270365 
L 467.254026 109.738895 
L 468.037699 108.727373 
L 468.560148 113.142019 
L 468.821372 111.830474 
L 469.082596 112.456277 
L 470.127493 108.975964 
L 470.388718 112.044777 
L 470.649942 113.382051 
L 470.911166 112.64485 
L 471.694839 111.539023 
L 471.956064 115.070755 
L 472.217288 116.382287 
L 472.478512 116.159399 
L 472.739737 115.713663 
L 473.523409 113.536323 
L 473.784634 114.693596 
L 474.307082 112.541959 
L 474.568307 110.33037 
L 475.35198 109.044528 
L 475.613204 109.558867 
L 476.135653 107.570113 
L 476.396877 109.164524 
L 477.18055 109.276001 
L 477.702998 111.74478 
L 477.964223 112.070506 
L 478.225447 114.282122 
L 479.00912 114.17927 
L 479.270344 113.802097 
L 479.531569 115.807956 
L 479.792793 119.416837 
L 480.054017 118.276748 
L 481.098914 116.090822 
L 481.621363 110.261793 
L 481.882587 111.050439 
L 482.66626 108.838824 
L 482.927485 106.61861 
L 483.188709 105.701408 
L 483.449933 106.112869 
L 483.711157 102.482076 
L 484.49483 103.855421 
L 484.756055 101.589401 
L 485.017279 101.100158 
L 485.278503 99.640946 
L 485.539728 99.658143 
L 486.323401 98.147445 
L 486.584625 98.84271 
L 486.845849 98.267626 
L 487.368298 99.417807 
L 488.151971 99.572289 
L 488.413195 99.048718 
L 488.674419 99.932806 
L 488.935644 99.434964 
L 489.196868 98.327697 
L 489.980541 99.881295 
L 490.241765 96.456522 
L 490.502989 97.400695 
L 491.025438 94.490922 
L 491.809111 96.66253 
L 492.070335 95.349242 
L 492.33156 92.559637 
L 492.592784 92.43087 
L 493.637681 94.336386 
L 493.898905 93.43514 
L 494.16013 95.246244 
L 494.421354 95.375011 
L 494.682578 96.302026 
L 495.727476 96.774086 
L 495.9887 96.688259 
L 496.249924 96.319157 
L 496.511149 97.220443 
L 498.339719 106.962643 
L 499.123392 103.203083 
L 499.384616 103.563587 
L 499.64584 102.662314 
L 499.907065 103.177367 
L 500.168289 102.894091 
L 501.213186 104.859691 
L 501.47441 105.675111 
L 501.735635 100.567974 
L 501.996859 98.053033 
L 502.780532 96.053092 
L 503.041756 94.945838 
L 503.302981 95.529493 
L 503.564205 95.812756 
L 503.825429 97.314855 
L 504.609102 97.907109 
L 505.131551 104.198781 
L 505.392775 102.087244 
L 505.653999 102.954162 
L 506.437672 101.383407 
L 506.698897 99.992877 
L 506.960121 99.898465 
L 507.221345 100.834039 
L 507.482569 100.172297 
L 508.266242 101.633345 
L 508.527467 103.446761 
L 508.788691 104.211659 
L 509.049915 104.46091 
L 509.31114 105.793033 
L 510.356037 106.437618 
L 510.617261 105.784422 
L 510.878485 104.022597 
L 511.13971 105.612544 
L 511.923383 106.781374 
L 512.184607 105.518013 
L 512.445831 106.557918 
L 512.707056 107.133742 
L 512.96828 108.070544 
L 513.751953 111.98958 
L 514.013177 116.269595 
L 514.274401 117.129037 
L 514.535626 117.232153 
L 514.79685 115.745336 
L 515.841747 113.59675 
L 516.102972 115.401541 
L 516.364196 113.79441 
L 516.62542 114.120995 
L 517.409093 113.175607 
L 517.931542 108.921388 
L 518.192766 115.195295 
L 518.45399 114.413186 
L 519.237663 115.642193 
L 519.498888 116.621962 
L 519.760112 113.527988 
L 520.021336 115.100764 
L 521.066233 116.346942 
L 521.327458 117.369663 
L 521.588682 116.673527 
L 521.849906 117.386834 
L 522.111131 116.733677 
L 522.894804 117.704847 
L 523.156028 116.65633 
L 523.417252 118.280684 
L 523.678477 112.041158 
L 523.939701 110.743402 
L 524.723374 114.060819 
L 524.984598 116.905555 
L 525.768271 120.669909 
L 526.551944 119.947991 
L 526.813168 119.036997 
L 527.074393 117.214956 
L 527.335617 116.467255 
L 527.596841 116.97433 
L 528.380514 113.364682 
L 528.641738 116.089118 
L 528.902963 116.97433 
L 529.164187 113.768628 
L 529.425411 104.873415 
L 530.209084 106.30868 
L 530.470309 105.715673 
L 530.731533 105.423469 
L 530.992757 103.850666 
L 531.253981 104.943669 
L 532.298879 101.174203 
L 532.560103 99.203412 
L 533.082552 99.074341 
L 533.866225 98.06743 
L 534.127449 96.940033 
L 534.388673 98.187928 
L 534.649897 101.647544 
L 534.911122 98.979665 
L 535.956019 98.971067 
L 536.217243 98.712873 
L 536.739692 97.026124 
L 537.784589 95.218824 
L 538.045813 93.910713 
L 538.307038 95.106938 
L 538.568262 93.032898 
L 539.351935 96.27738 
L 539.613159 84.203092 
L 539.874384 79.108292 
L 540.135608 78.101407 
L 540.396832 79.607468 
L 541.180505 76.010131 
L 542.225402 83.910465 
L 543.009075 83.351086 
L 543.2703 82.550724 
L 543.531524 78.9534 
L 543.792748 78.221878 
L 544.053973 81.216804 
L 544.837645 75.94129 
L 545.09887 72.911957 
L 545.360094 71.810395 
L 545.882543 67.688112 
L 546.666216 66.414383 
L 546.92744 65.674276 
L 547.188664 61.973677 
L 547.449889 66.629544 
L 547.711113 64.073565 
L 548.494786 60.751618 
L 548.75601 60.390163 
L 549.278459 69.54699 
L 549.539683 69.435117 
L 550.323356 69.736316 
L 550.58458 68.832693 
L 550.845805 74.400795 
L 551.107029 75.304445 
L 551.368253 74.899944 
L 552.151926 74.658975 
L 552.41315 74.177061 
L 552.674375 71.354264 
L 552.935599 74.555713 
L 553.196823 73.2648 
L 554.241721 84.134238 
L 554.764169 78.901769 
L 555.025393 76.380184 
L 555.809066 75.053331 
L 556.070291 71.830947 
L 556.331515 71.443208 
L 556.592739 68.858409 
L 556.853964 67.712481 
L 557.637637 67.850335 
L 557.898861 67.31617 
L 558.160085 67.410926 
L 558.421309 69.022124 
L 558.682534 67.031825 
L 559.466207 66.738881 
L 559.727431 66.006528 
L 559.988655 67.333381 
L 560.24988 64.490098 
L 560.511104 65.170754 
L 561.817225 72.192811 
L 562.07845 70.87457 
L 562.339674 72.218647 
L 563.123347 72.141115 
L 563.384571 72.830396 
L 563.645796 70.633323 
L 563.90702 70.538528 
L 564.168244 70.771163 
L 564.951917 76.095852 
L 565.213141 75.690916 
L 565.474366 72.330665 
L 565.73559 65.282786 
L 566.780487 67.350617 
L 567.041712 66.575166 
L 567.302936 67.436787 
L 567.56416 66.445937 
L 567.825385 66.213315 
L 568.609057 61.724347 
L 568.870282 67.574615 
L 569.131506 67.083522 
L 569.39273 68.039899 
L 569.653955 67.066285 
L 570.437628 71.46907 
L 570.960076 64.705496 
L 571.221301 65.136294 
L 571.482525 66.420089 
L 572.266198 63.18908 
L 572.527422 60.991993 
L 572.788646 62.775532 
L 573.049871 62.456726 
L 573.311095 60.001182 
L 574.094768 58.725987 
L 574.355992 59.260165 
L 574.617217 63.654364 
L 574.878441 63.81804 
L 575.139665 63.094298 
L 575.923338 61.379732 
L 576.184562 61.147097 
L 576.968235 70.417911 
L 577.751908 71.193362 
L 578.013133 69.952653 
L 578.274357 70.581613 
L 578.535581 66.48041 
L 578.796805 66.713283 
L 579.580478 69.068049 
L 579.841703 69.068049 
L 580.102927 68.30039 
L 580.364151 65.626462 
L 580.625376 68.403876 
L 581.409049 65.798974 
L 581.670273 65.574739 
L 581.931497 64.953678 
L 582.192721 65.367701 
L 582.453946 64.203282 
L 583.237619 61.61563 
L 583.498843 59.726637 
L 583.760067 59.838788 
L 584.282516 57.768645 
L 585.066189 55.819304 
L 585.327413 53.179903 
L 585.588637 52.869379 
L 585.849862 52.843504 
L 586.111086 53.016016 
L 587.155983 48.763659 
L 587.417208 49.867703 
L 587.678432 48.599772 
L 587.939656 48.453122 
L 588.723329 45.943134 
L 588.984553 43.838504 
L 589.245778 48.522134 
L 589.507002 47.021316 
L 589.768226 42.967333 
L 590.551899 42.294549 
L 590.813124 39.767245 
L 591.335572 39.06 
L 591.596797 42.018537 
L 592.380469 44.942562 
L 592.641694 46.477893 
L 593.164142 52.144831 
L 593.425367 52.56748 
L 594.20904 51.152911 
L 594.470264 53.559426 
L 594.731488 53.136778 
L 595.253937 58.182669 
L 596.298834 61.261981 
L 596.560058 57.302886 
L 596.821283 65.591976 
L 597.082507 64.108395 
L 598.127404 70.439506 
L 598.388629 69.41306 
L 598.649853 69.559697 
L 598.911077 70.318744 
L 599.69475 64.211894 
L 599.955974 56.966487 
L 600.217199 56.017691 
L 600.739647 58.915841 
L 601.52332 65.807613 
L 601.784545 61.675992 
L 602.045769 61.960654 
L 602.306993 61.313731 
L 602.568217 66.135373 
L 603.35189 65.902249 
L 604.135563 53.916905 
L 604.396788 51.26596 
L 605.441685 51.378216 
L 605.702909 51.032822 
L 605.964133 50.203851 
L 606.225358 50.44564 
L 607.009031 49.107217 
L 607.270255 49.159032 
L 607.531479 54.927185 
L 607.792704 57.569492 
L 608.053928 53.649215 
L 608.837601 56.939146 
L 609.098825 58.752482 
L 609.360049 58.916541 
L 609.621274 59.270573 
L 609.882498 56.041096 
L 610.666171 66.049031 
L 611.449844 81.419285 
L 611.711068 78.129355 
L 612.494741 77.688968 
L 612.755965 78.820142 
L 613.01719 76.618235 
L 613.278414 77.602613 
L 613.539638 74.001829 
L 614.323311 71.877638 
L 614.584536 69.26987 
L 614.84576 71.186838 
L 615.106984 69.183515 
L 615.368209 74.321334 
L 616.413106 69.753421 
L 616.67433 69.148976 
L 617.196779 99.811754 
L 617.980452 105.787156 
L 618.241676 113.593184 
L 618.5029 90.770947 
L 618.764125 98.050233 
L 619.025349 91.375405 
L 619.809022 87.601911 
L 620.070246 87.930054 
L 620.33147 94.725763 
L 620.592695 92.385685 
L 621.637592 95.68424 
L 622.160041 85.805837 
L 622.421265 82.55046 
L 622.682489 81.764679 
L 623.466162 81.022063 
L 624.249835 78.276137 
L 624.511059 85.158214 
L 625.294732 90.736407 
L 625.555957 91.064538 
L 625.817181 93.016045 
L 626.339629 91.047262 
L 627.123302 80.22211 
L 627.384527 78.371804 
L 628.1682 79.815734 
L 628.951873 81.960015 
L 629.213097 83.620097 
L 629.474321 87.744387 
L 629.735545 88.375566 
L 629.99677 93.641148 
L 631.041667 89.369877 
L 631.302891 89.188317 
L 631.564116 89.594693 
L 631.82534 88.816521 
L 632.609013 88.081592 
L 632.870237 86.724122 
L 633.131462 87.113195 
L 633.392686 89.006731 
L 633.65391 86.162114 
L 634.437583 88.297743 
L 634.698807 87.242899 
L 634.960032 90.606307 
L 635.221256 90.243161 
L 635.48248 92.620896 
L 636.266153 90.917571 
L 636.527378 93.321246 
L 636.788602 92.508495 
L 637.31105 88.68683 
L 638.094723 88.254513 
L 638.355948 89.292068 
L 638.617172 88.202631 
L 638.878396 88.68683 
L 639.139621 88.617658 
L 639.923294 85.08133 
L 640.184518 82.790056 
L 640.445742 78.795469 
L 640.706966 77.835724 
L 641.751864 80.948401 
L 642.013088 80.896519 
L 642.535537 78.82141 
L 642.796761 79.902195 
L 643.580434 82.098357 
L 643.841658 81.674679 
L 644.102882 80.766815 
L 644.364107 80.887868 
L 644.625331 79.884906 
L 645.409004 78.76089 
L 645.670228 77.100795 
L 646.192677 77.654165 
L 646.453901 77.550401 
L 647.237574 77.403408 
L 647.760023 81.72656 
L 648.021247 83.006207 
L 648.282471 87.49363 
L 649.066144 86.654938 
L 649.327369 87.026748 
L 649.849817 72.232938 
L 650.111042 64.174581 
L 650.894714 65.827913 
L 651.155939 63.689854 
L 651.417163 60.5044 
L 651.678387 60.980489 
L 651.939612 62.010568 
L 652.984509 62.902145 
L 653.245733 66.840676 
L 653.506958 67.801505 
L 653.768182 65.325858 
L 653.768182 65.325858 
" clip-path="url(#p930a661b85)" style="fill: none; stroke: #1f77b4; stroke-width: 1.5; stroke-linecap: square"/>
   </g>
   <g id="patch_3">
    <path d="M 94.5 224.28 
L 94.5 30.24 
" style="fill: none; stroke: #000000; stroke-width: 0.8; stroke-linejoin: miter; stroke-linecap: square"/>
   </g>
   <g id="patch_4">
    <path d="M 94.5 224.28 
L 680.4 224.28 
" style="fill: none; stroke: #000000; stroke-width: 0.8; stroke-linejoin: miter; stroke-linecap: square"/>
   </g>
  </g>
 </g>
 <defs>
  <clipPath id="p930a661b85">
   <rect x="94.5" y="30.24" width="585.9" height="194.04"/>
  </clipPath>
 </defs>
</svg>
