<?xml version="1.0" encoding="utf-8" standalone="no"?>
<!DOCTYPE svg PUBLIC "-//W3C//DTD SVG 1.1//EN"
  "http://www.w3.org/Graphics/SVG/1.1/DTD/svg11.dtd">
<svg xmlns:xlink="http://www.w3.org/1999/xlink" width="756pt" height="252pt" viewBox="0 0 756 252" xmlns="http://www.w3.org/2000/svg" version="1.1">
 <metadata>
  <rdf:RDF xmlns:dc="http://purl.org/dc/elements/1.1/" xmlns:cc="http://creativecommons.org/ns#" xmlns:rdf="http://www.w3.org/1999/02/22-rdf-syntax-ns#">
   <cc:Work>
    <dc:type rdf:resource="http://purl.org/dc/dcmitype/StillImage"/>
    <dc:date>2025-08-27T00:34:01.133503</dc:date>
    <dc:format>image/svg+xml</dc:format>
    <dc:creator>
     <cc:Agent>
      <dc:title>Matplotlib v3.10.5, https://matplotlib.org/</dc:title>
     </cc:Agent>
    </dc:creator>
   </cc:Work>
  </rdf:RDF>
 </metadata>
 <defs>
  <style type="text/css">*{stroke-linejoin: round; stroke-linecap: butt}</style>
 </defs>
 <g id="figure_1">
  <g id="patch_1">
   <path d="M 0 252 
L 756 252 
L 756 0 
L 0 0 
z
" style="fill: #ffffff"/>
  </g>
  <g id="axes_1">
   <g id="patch_2">
    <path d="M 94.5 224.28 
L 680.4 224.28 
L 680.4 30.24 
L 94.5 30.24 
z
" style="fill: #ffffff"/>
   </g>
   <g id="matplotlib.axis_1">
    <g id="xtick_1">
     <g id="line2d_1">
      <defs>
       <path id="mc5adadd2b9" d="M 0 0 
L 0 3.5 
" style="stroke: #000000; stroke-width: 0.8"/>
      </defs>
      <g>
       <use xlink:href="#mc5adadd2b9" x="134.616283" y="224.28" style="stroke: #000000; stroke-width: 0.8"/>
      </g>
     </g>
     <g id="text_1">
      <!-- 2024-03 -->
      <g transform="translate(113.724877 238.878438) scale(0.1 -0.1)">
       <defs>
        <path id="DejaVuSans-32" d="M 1228 531 
L 3431 531 
L 3431 0 
L 469 0 
L 469 531 
Q 828 903 1448 1529 
Q 2069 2156 2228 2338 
Q 2531 2678 2651 2914 
Q 2772 3150 2772 3378 
Q 2772 3750 2511 3984 
Q 2250 4219 1831 4219 
Q 1534 4219 1204 4116 
Q 875 4013 500 3803 
L 500 4441 
Q 881 4594 1212 4672 
Q 1544 4750 1819 4750 
Q 2544 4750 2975 4387 
Q 3406 4025 3406 3419 
Q 3406 3131 3298 2873 
Q 3191 2616 2906 2266 
Q 2828 2175 2409 1742 
Q 1991 1309 1228 531 
z
" transform="scale(0.015625)"/>
        <path id="DejaVuSans-30" d="M 2034 4250 
Q 1547 4250 1301 3770 
Q 1056 3291 1056 2328 
Q 1056 1369 1301 889 
Q 1547 409 2034 409 
Q 2525 409 2770 889 
Q 3016 1369 3016 2328 
Q 3016 3291 2770 3770 
Q 2525 4250 2034 4250 
z
M 2034 4750 
Q 2819 4750 3233 4129 
Q 3647 3509 3647 2328 
Q 3647 1150 3233 529 
Q 2819 -91 2034 -91 
Q 1250 -91 836 529 
Q 422 1150 422 2328 
Q 422 3509 836 4129 
Q 1250 4750 2034 4750 
z
" transform="scale(0.015625)"/>
        <path id="DejaVuSans-34" d="M 2419 4116 
L 825 1625 
L 2419 1625 
L 2419 4116 
z
M 2253 4666 
L 3047 4666 
L 3047 1625 
L 3713 1625 
L 3713 1100 
L 3047 1100 
L 3047 0 
L 2419 0 
L 2419 1100 
L 313 1100 
L 313 1709 
L 2253 4666 
z
" transform="scale(0.015625)"/>
        <path id="DejaVuSans-2d" d="M 313 2009 
L 1997 2009 
L 1997 1497 
L 313 1497 
L 313 2009 
z
" transform="scale(0.015625)"/>
        <path id="DejaVuSans-33" d="M 2597 2516 
Q 3050 2419 3304 2112 
Q 3559 1806 3559 1356 
Q 3559 666 3084 287 
Q 2609 -91 1734 -91 
Q 1441 -91 1130 -33 
Q 819 25 488 141 
L 488 750 
Q 750 597 1062 519 
Q 1375 441 1716 441 
Q 2309 441 2620 675 
Q 2931 909 2931 1356 
Q 2931 1769 2642 2001 
Q 2353 2234 1838 2234 
L 1294 2234 
L 1294 2753 
L 1863 2753 
Q 2328 2753 2575 2939 
Q 2822 3125 2822 3475 
Q 2822 3834 2567 4026 
Q 2313 4219 1838 4219 
Q 1578 4219 1281 4162 
Q 984 4106 628 3988 
L 628 4550 
Q 988 4650 1302 4700 
Q 1616 4750 1894 4750 
Q 2613 4750 3031 4423 
Q 3450 4097 3450 3541 
Q 3450 3153 3228 2886 
Q 3006 2619 2597 2516 
z
" transform="scale(0.015625)"/>
       </defs>
       <use xlink:href="#DejaVuSans-32"/>
       <use xlink:href="#DejaVuSans-30" transform="translate(63.623047 0)"/>
       <use xlink:href="#DejaVuSans-32" transform="translate(127.246094 0)"/>
       <use xlink:href="#DejaVuSans-34" transform="translate(190.869141 0)"/>
       <use xlink:href="#DejaVuSans-2d" transform="translate(254.492188 0)"/>
       <use xlink:href="#DejaVuSans-30" transform="translate(290.576172 0)"/>
       <use xlink:href="#DejaVuSans-33" transform="translate(354.199219 0)"/>
      </g>
     </g>
    </g>
    <g id="xtick_2">
     <g id="line2d_2">
      <g>
       <use xlink:href="#mc5adadd2b9" x="193.370023" y="224.28" style="stroke: #000000; stroke-width: 0.8"/>
      </g>
     </g>
     <g id="text_2">
      <!-- 2024-05 -->
      <g transform="translate(172.478617 238.878438) scale(0.1 -0.1)">
       <defs>
        <path id="DejaVuSans-35" d="M 691 4666 
L 3169 4666 
L 3169 4134 
L 1269 4134 
L 1269 2991 
Q 1406 3038 1543 3061 
Q 1681 3084 1819 3084 
Q 2600 3084 3056 2656 
Q 3513 2228 3513 1497 
Q 3513 744 3044 326 
Q 2575 -91 1722 -91 
Q 1428 -91 1123 -41 
Q 819 9 494 109 
L 494 744 
Q 775 591 1075 516 
Q 1375 441 1709 441 
Q 2250 441 2565 725 
Q 2881 1009 2881 1497 
Q 2881 1984 2565 2268 
Q 2250 2553 1709 2553 
Q 1456 2553 1204 2497 
Q 953 2441 691 2322 
L 691 4666 
z
" transform="scale(0.015625)"/>
       </defs>
       <use xlink:href="#DejaVuSans-32"/>
       <use xlink:href="#DejaVuSans-30" transform="translate(63.623047 0)"/>
       <use xlink:href="#DejaVuSans-32" transform="translate(127.246094 0)"/>
       <use xlink:href="#DejaVuSans-34" transform="translate(190.869141 0)"/>
       <use xlink:href="#DejaVuSans-2d" transform="translate(254.492188 0)"/>
       <use xlink:href="#DejaVuSans-30" transform="translate(290.576172 0)"/>
       <use xlink:href="#DejaVuSans-35" transform="translate(354.199219 0)"/>
      </g>
     </g>
    </g>
    <g id="xtick_3">
     <g id="line2d_3">
      <g>
       <use xlink:href="#mc5adadd2b9" x="252.123763" y="224.28" style="stroke: #000000; stroke-width: 0.8"/>
      </g>
     </g>
     <g id="text_3">
      <!-- 2024-07 -->
      <g transform="translate(231.232357 238.878438) scale(0.1 -0.1)">
       <defs>
        <path id="DejaVuSans-37" d="M 525 4666 
L 3525 4666 
L 3525 4397 
L 1831 0 
L 1172 0 
L 2766 4134 
L 525 4134 
L 525 4666 
z
" transform="scale(0.015625)"/>
       </defs>
       <use xlink:href="#DejaVuSans-32"/>
       <use xlink:href="#DejaVuSans-30" transform="translate(63.623047 0)"/>
       <use xlink:href="#DejaVuSans-32" transform="translate(127.246094 0)"/>
       <use xlink:href="#DejaVuSans-34" transform="translate(190.869141 0)"/>
       <use xlink:href="#DejaVuSans-2d" transform="translate(254.492188 0)"/>
       <use xlink:href="#DejaVuSans-30" transform="translate(290.576172 0)"/>
       <use xlink:href="#DejaVuSans-37" transform="translate(354.199219 0)"/>
      </g>
     </g>
    </g>
    <g id="xtick_4">
     <g id="line2d_4">
      <g>
       <use xlink:href="#mc5adadd2b9" x="311.840679" y="224.28" style="stroke: #000000; stroke-width: 0.8"/>
      </g>
     </g>
     <g id="text_4">
      <!-- 2024-09 -->
      <g transform="translate(290.949273 238.878438) scale(0.1 -0.1)">
       <defs>
        <path id="DejaVuSans-39" d="M 703 97 
L 703 672 
Q 941 559 1184 500 
Q 1428 441 1663 441 
Q 2288 441 2617 861 
Q 2947 1281 2994 2138 
Q 2813 1869 2534 1725 
Q 2256 1581 1919 1581 
Q 1219 1581 811 2004 
Q 403 2428 403 3163 
Q 403 3881 828 4315 
Q 1253 4750 1959 4750 
Q 2769 4750 3195 4129 
Q 3622 3509 3622 2328 
Q 3622 1225 3098 567 
Q 2575 -91 1691 -91 
Q 1453 -91 1209 -44 
Q 966 3 703 97 
z
M 1959 2075 
Q 2384 2075 2632 2365 
Q 2881 2656 2881 3163 
Q 2881 3666 2632 3958 
Q 2384 4250 1959 4250 
Q 1534 4250 1286 3958 
Q 1038 3666 1038 3163 
Q 1038 2656 1286 2365 
Q 1534 2075 1959 2075 
z
" transform="scale(0.015625)"/>
       </defs>
       <use xlink:href="#DejaVuSans-32"/>
       <use xlink:href="#DejaVuSans-30" transform="translate(63.623047 0)"/>
       <use xlink:href="#DejaVuSans-32" transform="translate(127.246094 0)"/>
       <use xlink:href="#DejaVuSans-34" transform="translate(190.869141 0)"/>
       <use xlink:href="#DejaVuSans-2d" transform="translate(254.492188 0)"/>
       <use xlink:href="#DejaVuSans-30" transform="translate(290.576172 0)"/>
       <use xlink:href="#DejaVuSans-39" transform="translate(354.199219 0)"/>
      </g>
     </g>
    </g>
    <g id="xtick_5">
     <g id="line2d_5">
      <g>
       <use xlink:href="#mc5adadd2b9" x="370.594419" y="224.28" style="stroke: #000000; stroke-width: 0.8"/>
      </g>
     </g>
     <g id="text_5">
      <!-- 2024-11 -->
      <g transform="translate(349.703013 238.878438) scale(0.1 -0.1)">
       <defs>
        <path id="DejaVuSans-31" d="M 794 531 
L 1825 531 
L 1825 4091 
L 703 3866 
L 703 4441 
L 1819 4666 
L 2450 4666 
L 2450 531 
L 3481 531 
L 3481 0 
L 794 0 
L 794 531 
z
" transform="scale(0.015625)"/>
       </defs>
       <use xlink:href="#DejaVuSans-32"/>
       <use xlink:href="#DejaVuSans-30" transform="translate(63.623047 0)"/>
       <use xlink:href="#DejaVuSans-32" transform="translate(127.246094 0)"/>
       <use xlink:href="#DejaVuSans-34" transform="translate(190.869141 0)"/>
       <use xlink:href="#DejaVuSans-2d" transform="translate(254.492188 0)"/>
       <use xlink:href="#DejaVuSans-31" transform="translate(290.576172 0)"/>
       <use xlink:href="#DejaVuSans-31" transform="translate(354.199219 0)"/>
      </g>
     </g>
    </g>
    <g id="xtick_6">
     <g id="line2d_6">
      <g>
       <use xlink:href="#mc5adadd2b9" x="429.348159" y="224.28" style="stroke: #000000; stroke-width: 0.8"/>
      </g>
     </g>
     <g id="text_6">
      <!-- 2025-01 -->
      <g transform="translate(408.456753 238.878438) scale(0.1 -0.1)">
       <use xlink:href="#DejaVuSans-32"/>
       <use xlink:href="#DejaVuSans-30" transform="translate(63.623047 0)"/>
       <use xlink:href="#DejaVuSans-32" transform="translate(127.246094 0)"/>
       <use xlink:href="#DejaVuSans-35" transform="translate(190.869141 0)"/>
       <use xlink:href="#DejaVuSans-2d" transform="translate(254.492188 0)"/>
       <use xlink:href="#DejaVuSans-30" transform="translate(290.576172 0)"/>
       <use xlink:href="#DejaVuSans-31" transform="translate(354.199219 0)"/>
      </g>
     </g>
    </g>
    <g id="xtick_7">
     <g id="line2d_7">
      <g>
       <use xlink:href="#mc5adadd2b9" x="486.175547" y="224.28" style="stroke: #000000; stroke-width: 0.8"/>
      </g>
     </g>
     <g id="text_7">
      <!-- 2025-03 -->
      <g transform="translate(465.28414 238.878438) scale(0.1 -0.1)">
       <use xlink:href="#DejaVuSans-32"/>
       <use xlink:href="#DejaVuSans-30" transform="translate(63.623047 0)"/>
       <use xlink:href="#DejaVuSans-32" transform="translate(127.246094 0)"/>
       <use xlink:href="#DejaVuSans-35" transform="translate(190.869141 0)"/>
       <use xlink:href="#DejaVuSans-2d" transform="translate(254.492188 0)"/>
       <use xlink:href="#DejaVuSans-30" transform="translate(290.576172 0)"/>
       <use xlink:href="#DejaVuSans-33" transform="translate(354.199219 0)"/>
      </g>
     </g>
    </g>
    <g id="xtick_8">
     <g id="line2d_8">
      <g>
       <use xlink:href="#mc5adadd2b9" x="544.929287" y="224.28" style="stroke: #000000; stroke-width: 0.8"/>
      </g>
     </g>
     <g id="text_8">
      <!-- 2025-05 -->
      <g transform="translate(524.03788 238.878438) scale(0.1 -0.1)">
       <use xlink:href="#DejaVuSans-32"/>
       <use xlink:href="#DejaVuSans-30" transform="translate(63.623047 0)"/>
       <use xlink:href="#DejaVuSans-32" transform="translate(127.246094 0)"/>
       <use xlink:href="#DejaVuSans-35" transform="translate(190.869141 0)"/>
       <use xlink:href="#DejaVuSans-2d" transform="translate(254.492188 0)"/>
       <use xlink:href="#DejaVuSans-30" transform="translate(290.576172 0)"/>
       <use xlink:href="#DejaVuSans-35" transform="translate(354.199219 0)"/>
      </g>
     </g>
    </g>
    <g id="xtick_9">
     <g id="line2d_9">
      <g>
       <use xlink:href="#mc5adadd2b9" x="603.683026" y="224.28" style="stroke: #000000; stroke-width: 0.8"/>
      </g>
     </g>
     <g id="text_9">
      <!-- 2025-07 -->
      <g transform="translate(582.79162 238.878438) scale(0.1 -0.1)">
       <use xlink:href="#DejaVuSans-32"/>
       <use xlink:href="#DejaVuSans-30" transform="translate(63.623047 0)"/>
       <use xlink:href="#DejaVuSans-32" transform="translate(127.246094 0)"/>
       <use xlink:href="#DejaVuSans-35" transform="translate(190.869141 0)"/>
       <use xlink:href="#DejaVuSans-2d" transform="translate(254.492188 0)"/>
       <use xlink:href="#DejaVuSans-30" transform="translate(290.576172 0)"/>
       <use xlink:href="#DejaVuSans-37" transform="translate(354.199219 0)"/>
      </g>
     </g>
    </g>
    <g id="xtick_10">
     <g id="line2d_10">
      <g>
       <use xlink:href="#mc5adadd2b9" x="663.399942" y="224.28" style="stroke: #000000; stroke-width: 0.8"/>
      </g>
     </g>
     <g id="text_10">
      <!-- 2025-09 -->
      <g transform="translate(642.508536 238.878438) scale(0.1 -0.1)">
       <use xlink:href="#DejaVuSans-32"/>
       <use xlink:href="#DejaVuSans-30" transform="translate(63.623047 0)"/>
       <use xlink:href="#DejaVuSans-32" transform="translate(127.246094 0)"/>
       <use xlink:href="#DejaVuSans-35" transform="translate(190.869141 0)"/>
       <use xlink:href="#DejaVuSans-2d" transform="translate(254.492188 0)"/>
       <use xlink:href="#DejaVuSans-30" transform="translate(290.576172 0)"/>
       <use xlink:href="#DejaVuSans-39" transform="translate(354.199219 0)"/>
      </g>
     </g>
    </g>
   </g>
   <g id="matplotlib.axis_2">
    <g id="ytick_1">
     <g id="line2d_11">
      <defs>
       <path id="m45dfcb8d82" d="M 0 0 
L -3.5 0 
" style="stroke: #000000; stroke-width: 0.8"/>
      </defs>
      <g>
       <use xlink:href="#m45dfcb8d82" x="94.5" y="222.613929" style="stroke: #000000; stroke-width: 0.8"/>
      </g>
     </g>
     <g id="text_11">
      <!-- 160 -->
      <g transform="translate(68.4125 226.413148) scale(0.1 -0.1)">
       <defs>
        <path id="DejaVuSans-36" d="M 2113 2584 
Q 1688 2584 1439 2293 
Q 1191 2003 1191 1497 
Q 1191 994 1439 701 
Q 1688 409 2113 409 
Q 2538 409 2786 701 
Q 3034 994 3034 1497 
Q 3034 2003 2786 2293 
Q 2538 2584 2113 2584 
z
M 3366 4563 
L 3366 3988 
Q 3128 4100 2886 4159 
Q 2644 4219 2406 4219 
Q 1781 4219 1451 3797 
Q 1122 3375 1075 2522 
Q 1259 2794 1537 2939 
Q 1816 3084 2150 3084 
Q 2853 3084 3261 2657 
Q 3669 2231 3669 1497 
Q 3669 778 3244 343 
Q 2819 -91 2113 -91 
Q 1303 -91 875 529 
Q 447 1150 447 2328 
Q 447 3434 972 4092 
Q 1497 4750 2381 4750 
Q 2619 4750 2861 4703 
Q 3103 4656 3366 4563 
z
" transform="scale(0.015625)"/>
       </defs>
       <use xlink:href="#DejaVuSans-31"/>
       <use xlink:href="#DejaVuSans-36" transform="translate(63.623047 0)"/>
       <use xlink:href="#DejaVuSans-30" transform="translate(127.246094 0)"/>
      </g>
     </g>
    </g>
    <g id="ytick_2">
     <g id="line2d_12">
      <g>
       <use xlink:href="#m45dfcb8d82" x="94.5" y="185.193552" style="stroke: #000000; stroke-width: 0.8"/>
      </g>
     </g>
     <g id="text_12">
      <!-- 180 -->
      <g transform="translate(68.4125 188.992771) scale(0.1 -0.1)">
       <defs>
        <path id="DejaVuSans-38" d="M 2034 2216 
Q 1584 2216 1326 1975 
Q 1069 1734 1069 1313 
Q 1069 891 1326 650 
Q 1584 409 2034 409 
Q 2484 409 2743 651 
Q 3003 894 3003 1313 
Q 3003 1734 2745 1975 
Q 2488 2216 2034 2216 
z
M 1403 2484 
Q 997 2584 770 2862 
Q 544 3141 544 3541 
Q 544 4100 942 4425 
Q 1341 4750 2034 4750 
Q 2731 4750 3128 4425 
Q 3525 4100 3525 3541 
Q 3525 3141 3298 2862 
Q 3072 2584 2669 2484 
Q 3125 2378 3379 2068 
Q 3634 1759 3634 1313 
Q 3634 634 3220 271 
Q 2806 -91 2034 -91 
Q 1263 -91 848 271 
Q 434 634 434 1313 
Q 434 1759 690 2068 
Q 947 2378 1403 2484 
z
M 1172 3481 
Q 1172 3119 1398 2916 
Q 1625 2713 2034 2713 
Q 2441 2713 2670 2916 
Q 2900 3119 2900 3481 
Q 2900 3844 2670 4047 
Q 2441 4250 2034 4250 
Q 1625 4250 1398 4047 
Q 1172 3844 1172 3481 
z
" transform="scale(0.015625)"/>
       </defs>
       <use xlink:href="#DejaVuSans-31"/>
       <use xlink:href="#DejaVuSans-38" transform="translate(63.623047 0)"/>
       <use xlink:href="#DejaVuSans-30" transform="translate(127.246094 0)"/>
      </g>
     </g>
    </g>
    <g id="ytick_3">
     <g id="line2d_13">
      <g>
       <use xlink:href="#m45dfcb8d82" x="94.5" y="147.773174" style="stroke: #000000; stroke-width: 0.8"/>
      </g>
     </g>
     <g id="text_13">
      <!-- 200 -->
      <g transform="translate(68.4125 151.572393) scale(0.1 -0.1)">
       <use xlink:href="#DejaVuSans-32"/>
       <use xlink:href="#DejaVuSans-30" transform="translate(63.623047 0)"/>
       <use xlink:href="#DejaVuSans-30" transform="translate(127.246094 0)"/>
      </g>
     </g>
    </g>
    <g id="ytick_4">
     <g id="line2d_14">
      <g>
       <use xlink:href="#m45dfcb8d82" x="94.5" y="110.352797" style="stroke: #000000; stroke-width: 0.8"/>
      </g>
     </g>
     <g id="text_14">
      <!-- 220 -->
      <g transform="translate(68.4125 114.152015) scale(0.1 -0.1)">
       <use xlink:href="#DejaVuSans-32"/>
       <use xlink:href="#DejaVuSans-32" transform="translate(63.623047 0)"/>
       <use xlink:href="#DejaVuSans-30" transform="translate(127.246094 0)"/>
      </g>
     </g>
    </g>
    <g id="ytick_5">
     <g id="line2d_15">
      <g>
       <use xlink:href="#m45dfcb8d82" x="94.5" y="72.932419" style="stroke: #000000; stroke-width: 0.8"/>
      </g>
     </g>
     <g id="text_15">
      <!-- 240 -->
      <g transform="translate(68.4125 76.731638) scale(0.1 -0.1)">
       <use xlink:href="#DejaVuSans-32"/>
       <use xlink:href="#DejaVuSans-34" transform="translate(63.623047 0)"/>
       <use xlink:href="#DejaVuSans-30" transform="translate(127.246094 0)"/>
      </g>
     </g>
    </g>
    <g id="ytick_6">
     <g id="line2d_16">
      <g>
       <use xlink:href="#m45dfcb8d82" x="94.5" y="35.512042" style="stroke: #000000; stroke-width: 0.8"/>
      </g>
     </g>
     <g id="text_16">
      <!-- 260 -->
      <g transform="translate(68.4125 39.31126) scale(0.1 -0.1)">
       <use xlink:href="#DejaVuSans-32"/>
       <use xlink:href="#DejaVuSans-36" transform="translate(63.623047 0)"/>
       <use xlink:href="#DejaVuSans-30" transform="translate(127.246094 0)"/>
      </g>
     </g>
    </g>
   </g>
   <g id="line2d_17">
    <path d="M 121.131818 183.303576 
L 124.984522 184.696876 
L 125.947699 183.284962 
L 126.910875 179.476746 
L 127.874051 182.913476 
L 130.763579 185.439877 
L 131.726755 182.709119 
L 132.689931 184.956877 
L 133.653107 186.20152 
L 134.616283 188.22642 
L 137.505811 196.697394 
L 138.468987 205.948711 
L 139.432163 207.806341 
L 140.395339 208.029255 
L 141.358516 204.815497 
L 144.248044 201.062981 
L 145.21122 200.171324 
L 146.174396 204.072382 
L 147.137572 200.598567 
L 148.100748 201.304481 
L 150.990276 199.261024 
L 152.916628 190.065492 
L 153.879804 203.626554 
L 154.84298 201.936053 
L 157.732509 204.592554 
L 158.695685 206.710297 
L 159.658861 200.022667 
L 160.622037 203.422254 
L 164.474741 206.11584 
L 165.437917 208.326455 
L 166.401093 206.821783 
L 167.364269 208.363655 
L 168.327445 206.951826 
L 171.216974 209.051012 
L 172.18015 206.784612 
L 173.143326 210.295627 
L 174.106502 196.808909 
L 175.069678 194.003779 
L 177.959206 201.174439 
L 178.922382 207.32334 
L 179.885558 209.886941 
L 180.848734 211.670313 
L 181.81191 215.46 
L 184.701438 213.899514 
L 185.664614 211.930399 
L 186.627791 207.992112 
L 187.590967 206.375897 
L 188.554143 207.471969 
L 191.443671 199.66971 
L 192.406847 205.558554 
L 193.370023 207.471969 
L 194.333199 200.542838 
L 195.296375 181.315847 
L 198.185903 184.418176 
L 199.149079 183.13639 
L 200.112255 182.504762 
L 201.075432 179.105175 
L 202.038608 181.467644 
L 205.891312 173.319993 
L 206.854488 169.060097 
L 207.817664 168.836897 
L 208.78084 168.781111 
L 211.670368 166.60467 
L 212.633544 164.1678 
L 213.59672 166.865127 
L 214.559896 174.343093 
L 215.523072 168.576468 
L 219.375777 168.557883 
L 220.338953 167.999797 
L 222.265305 164.353829 
L 225.154833 161.042688 
L 226.118009 160.447403 
L 227.081185 157.619919 
L 228.044361 160.205589 
L 229.007537 155.722492 
L 231.897066 162.735473 
L 232.860242 136.636906 
L 233.823418 125.624457 
L 234.786594 123.448045 
L 235.74977 126.703428 
L 238.639298 118.927776 
L 241.528826 131.930581 
L 242.492002 136.004392 
L 245.38153 134.795293 
L 246.344707 133.06528 
L 247.307883 125.289657 
L 248.271059 123.708473 
L 249.234235 130.182011 
L 252.123763 118.778977 
L 253.086939 112.231096 
L 254.050115 109.850012 
L 255.976467 100.939661 
L 258.865995 98.186549 
L 259.829171 96.586807 
L 260.792348 88.587928 
L 261.755524 98.651563 
L 262.7187 93.126838 
L 265.608228 85.946472 
L 266.571404 85.165159 
L 267.53458 96.21475 
L 268.497756 104.957687 
L 269.460932 104.715901 
L 272.35046 105.366887 
L 273.313636 103.413759 
L 274.276812 115.449222 
L 275.239988 117.402378 
L 276.203165 116.528135 
L 279.092693 116.00725 
L 280.055869 114.965565 
L 281.019045 108.864112 
L 281.982221 115.78405 
L 282.945397 112.993738 
L 285.834925 132.693252 
L 286.798101 136.488078 
L 287.761277 131.670153 
L 288.724453 125.178058 
L 289.687629 119.727647 
L 292.577158 116.859623 
L 293.540334 109.894435 
L 294.50351 109.056393 
L 295.466686 103.469345 
L 296.429862 100.992392 
L 299.31939 101.290363 
L 300.282566 100.135736 
L 301.245742 100.340579 
L 302.208918 103.823187 
L 303.172094 99.52118 
L 306.061623 98.887953 
L 307.024799 97.30497 
L 307.987975 100.172993 
L 308.951151 94.027232 
L 309.914327 95.498444 
L 313.767031 107.100925 
L 314.730207 110.676605 
L 315.693383 107.827224 
L 316.656559 110.732505 
L 319.546087 110.564891 
L 320.509264 112.054774 
L 321.47244 107.305768 
L 322.435616 107.100925 
L 323.398792 107.603738 
L 326.28832 119.113063 
L 327.251496 118.237793 
L 328.214672 110.974604 
L 329.177848 95.740601 
L 330.141024 96.988356 
L 333.030552 100.210193 
L 333.993728 98.53411 
L 334.956904 100.396479 
L 335.920081 98.254754 
L 336.883257 97.751912 
L 339.772785 88.049056 
L 340.735961 100.694421 
L 341.699137 99.632894 
L 342.662313 101.700134 
L 343.625489 99.595637 
L 346.515017 109.112236 
L 348.441369 94.492788 
L 349.404545 95.423958 
L 350.367722 98.198882 
L 353.25725 91.215051 
L 354.220426 86.466073 
L 355.183602 90.321138 
L 356.146778 89.632068 
L 357.109954 84.324376 
L 359.999482 81.568067 
L 360.962658 82.722722 
L 361.925834 92.220735 
L 362.88901 92.574577 
L 363.852186 91.010208 
L 366.741715 87.304114 
L 367.704891 86.801272 
L 368.668067 93.449876 
L 369.631243 101.253135 
L 370.594419 106.840211 
L 373.483947 108.516323 
L 374.447123 105.834527 
L 375.410299 107.194053 
L 376.373475 98.329268 
L 377.336651 98.832624 
L 380.22618 103.922454 
L 381.189356 103.922454 
L 382.152532 102.263158 
L 383.115708 96.483487 
L 384.078884 102.486872 
L 386.968412 96.8564 
L 387.931588 96.37163 
L 388.894764 95.029262 
L 389.85794 95.924174 
L 390.821116 93.407251 
L 393.710644 87.814037 
L 394.67382 83.731004 
L 395.636997 83.973389 
L 397.563349 79.498829 
L 400.452877 75.285268 
L 401.416053 69.580196 
L 402.379229 68.908998 
L 403.342405 68.853098 
L 404.305581 69.225983 
L 407.195109 61.936158 
L 408.158285 60.034448 
L 409.121461 62.420871 
L 410.084638 59.680206 
L 411.047814 59.363278 
L 413.937342 53.937878 
L 414.900518 49.388746 
L 415.863694 59.512421 
L 416.82687 56.268372 
L 417.790046 47.505651 
L 420.679574 46.051426 
L 421.64275 40.588711 
L 423.569102 39.06 
L 424.532278 45.454856 
L 427.421807 51.775197 
L 428.384983 55.093818 
L 430.311335 67.342887 
L 431.274511 68.256442 
L 434.164039 65.19885 
L 435.127215 70.400508 
L 436.090391 69.486982 
L 438.016743 80.393684 
L 440.906272 84.961487 
L 441.869448 87.049624 
L 442.832624 78.49206 
L 443.7958 96.408915 
L 444.758976 93.202152 
L 448.61168 106.886861 
L 449.574856 104.668195 
L 450.538032 104.985123 
L 451.501208 106.625833 
L 454.390736 93.425866 
L 455.353913 77.764904 
L 456.317089 75.714081 
L 458.243441 81.978437 
L 461.132969 96.875043 
L 462.096145 87.944536 
L 463.059321 88.559749 
L 464.022497 87.161481 
L 464.985673 97.583498 
L 467.875201 97.079571 
L 468.838377 87.803274 
L 470.76473 71.1732 
L 471.727906 65.443205 
L 475.58061 65.685847 
L 476.543786 64.939278 
L 477.506962 63.147484 
L 478.470138 63.670082 
L 481.359666 60.777077 
L 482.322842 60.889077 
L 483.286018 73.356979 
L 484.249194 79.068302 
L 485.212371 70.594616 
L 488.101899 77.705807 
L 489.065075 81.625337 
L 490.028251 81.97995 
L 490.991427 82.74519 
L 491.954603 75.764671 
L 494.844131 97.396842 
L 495.807307 109.790058 
L 496.770483 116.994577 
L 497.733659 130.619646 
L 498.696835 123.508455 
L 501.586364 122.556587 
L 502.54954 125.00165 
L 503.512716 120.242195 
L 504.475892 122.36993 
L 505.439068 114.586856 
L 508.328596 109.995386 
L 509.291772 104.35869 
L 510.254948 108.502248 
L 511.218124 104.172062 
L 512.1813 115.27744 
L 515.070829 107.382337 
L 516.034005 105.403915 
L 516.997181 104.097405 
L 517.960357 142.732906 
L 518.923533 170.375029 
L 521.813061 183.290872 
L 522.776237 200.163587 
L 523.739413 150.833308 
L 524.702589 166.56747 
L 525.665765 152.139846 
L 528.555293 143.98343 
L 529.51847 144.692685 
L 530.481646 159.381651 
L 531.444822 154.323567 
L 535.297526 161.45343 
L 536.260702 149.172156 
L 537.223878 140.101186 
L 538.187054 133.064709 
L 539.15023 131.366243 
L 542.039758 129.761077 
L 543.002934 127.763984 
L 543.96611 125.356263 
L 544.929287 123.825754 
L 545.892463 138.701376 
L 548.781991 150.758651 
L 549.745167 151.467934 
L 550.708343 155.686092 
L 551.671519 153.371671 
L 552.634695 151.430563 
L 555.524223 128.031978 
L 556.487399 124.032538 
L 557.450575 125.153876 
L 558.413751 126.798498 
L 559.376928 127.153596 
L 562.266456 131.788462 
L 563.229632 135.376732 
L 564.192808 144.291394 
L 565.155984 145.655688 
L 566.11916 157.037253 
L 569.971864 147.804893 
L 570.93504 147.412452 
L 571.898216 148.290833 
L 572.861392 146.608812 
L 575.750921 145.020262 
L 576.714097 142.086089 
L 577.677273 142.927071 
L 578.640449 147.019953 
L 579.603625 140.871308 
L 582.493153 145.487474 
L 583.456329 143.207427 
L 584.419505 150.477438 
L 585.382681 149.692499 
L 586.345857 154.831977 
L 589.235386 151.150235 
L 590.198562 156.345784 
L 591.161738 154.589021 
L 593.08809 146.328485 
L 595.977618 145.394032 
L 596.940794 147.636708 
L 597.90397 145.281889 
L 598.867146 146.328485 
L 599.830322 146.178971 
L 602.71985 138.53519 
L 603.683026 133.582597 
L 604.646203 124.948291 
L 605.609379 122.8738 
L 609.462083 129.601857 
L 610.425259 129.489715 
L 612.351611 125.004362 
L 613.314787 127.340481 
L 616.204315 132.087489 
L 617.167491 131.171707 
L 618.130667 129.209359 
L 619.093843 129.471015 
L 620.05702 127.30311 
L 622.946548 124.873549 
L 623.909724 121.28525 
L 624.8729 121.752491 
L 625.836076 122.481359 
L 626.799252 122.257074 
L 629.68878 121.939347 
L 630.651956 127.134896 
L 631.615132 131.28385 
L 632.578308 134.049809 
L 633.541484 143.749382 
L 636.431013 141.936547 
L 637.394189 142.740215 
L 638.357365 123.434484 
L 639.320541 110.763367 
L 640.283717 93.345213 
L 643.173245 96.918895 
L 644.136421 92.297476 
L 645.099597 85.412112 
L 646.062773 86.441178 
L 647.025949 88.667695 
L 649.915478 89.977402 
L 650.878654 90.594842 
L 651.84183 99.107984 
L 652.805006 101.184816 
L 653.768182 95.8337 
L 653.768182 95.8337 
" clip-path="url(#pde5f8a40d7)" style="fill: none; stroke: #1f77b4; stroke-width: 1.5; stroke-linecap: square"/>
   </g>
   <g id="patch_3">
    <path d="M 94.5 224.28 
L 94.5 30.24 
" style="fill: none; stroke: #000000; stroke-width: 0.8; stroke-linejoin: miter; stroke-linecap: square"/>
   </g>
   <g id="patch_4">
    <path d="M 94.5 224.28 
L 680.4 224.28 
" style="fill: none; stroke: #000000; stroke-width: 0.8; stroke-linejoin: miter; stroke-linecap: square"/>
   </g>
  </g>
 </g>
 <defs>
  <clipPath id="pde5f8a40d7">
   <rect x="94.5" y="30.24" width="585.9" height="194.04"/>
  </clipPath>
 </defs>
</svg>
