<?xml version="1.0" encoding="utf-8" standalone="no"?>
<!DOCTYPE svg PUBLIC "-//W3C//DTD SVG 1.1//EN"
  "http://www.w3.org/Graphics/SVG/1.1/DTD/svg11.dtd">
<svg xmlns:xlink="http://www.w3.org/1999/xlink" width="756pt" height="252pt" viewBox="0 0 756 252" xmlns="http://www.w3.org/2000/svg" version="1.1">
 <metadata>
  <rdf:RDF xmlns:dc="http://purl.org/dc/elements/1.1/" xmlns:cc="http://creativecommons.org/ns#" xmlns:rdf="http://www.w3.org/1999/02/22-rdf-syntax-ns#">
   <cc:Work>
    <dc:type rdf:resource="http://purl.org/dc/dcmitype/StillImage"/>
    <dc:date>2025-08-27T00:34:01.327950</dc:date>
    <dc:format>image/svg+xml</dc:format>
    <dc:creator>
     <cc:Agent>
      <dc:title>Matplotlib v3.10.5, https://matplotlib.org/</dc:title>
     </cc:Agent>
    </dc:creator>
   </cc:Work>
  </rdf:RDF>
 </metadata>
 <defs>
  <style type="text/css">*{stroke-linejoin: round; stroke-linecap: butt}</style>
 </defs>
 <g id="figure_1">
  <g id="patch_1">
   <path d="M 0 252 
L 756 252 
L 756 0 
L 0 0 
z
" style="fill: #ffffff"/>
  </g>
  <g id="axes_1">
   <g id="patch_2">
    <path d="M 94.5 224.28 
L 680.4 224.28 
L 680.4 30.24 
L 94.5 30.24 
z
" style="fill: #ffffff"/>
   </g>
   <g id="matplotlib.axis_1">
    <g id="xtick_1">
     <g id="line2d_1">
      <defs>
       <path id="m424b8d9c84" d="M 0 0 
L 0 3.5 
" style="stroke: #000000; stroke-width: 0.8"/>
      </defs>
      <g>
       <use xlink:href="#m424b8d9c84" x="115.646108" y="224.28" style="stroke: #000000; stroke-width: 0.8"/>
      </g>
     </g>
     <g id="text_1">
      <!-- 2020 -->
      <g transform="translate(102.921108 238.878438) scale(0.1 -0.1)">
       <defs>
        <path id="DejaVuSans-32" d="M 1228 531 
L 3431 531 
L 3431 0 
L 469 0 
L 469 531 
Q 828 903 1448 1529 
Q 2069 2156 2228 2338 
Q 2531 2678 2651 2914 
Q 2772 3150 2772 3378 
Q 2772 3750 2511 3984 
Q 2250 4219 1831 4219 
Q 1534 4219 1204 4116 
Q 875 4013 500 3803 
L 500 4441 
Q 881 4594 1212 4672 
Q 1544 4750 1819 4750 
Q 2544 4750 2975 4387 
Q 3406 4025 3406 3419 
Q 3406 3131 3298 2873 
Q 3191 2616 2906 2266 
Q 2828 2175 2409 1742 
Q 1991 1309 1228 531 
z
" transform="scale(0.015625)"/>
        <path id="DejaVuSans-30" d="M 2034 4250 
Q 1547 4250 1301 3770 
Q 1056 3291 1056 2328 
Q 1056 1369 1301 889 
Q 1547 409 2034 409 
Q 2525 409 2770 889 
Q 3016 1369 3016 2328 
Q 3016 3291 2770 3770 
Q 2525 4250 2034 4250 
z
M 2034 4750 
Q 2819 4750 3233 4129 
Q 3647 3509 3647 2328 
Q 3647 1150 3233 529 
Q 2819 -91 2034 -91 
Q 1250 -91 836 529 
Q 422 1150 422 2328 
Q 422 3509 836 4129 
Q 1250 4750 2034 4750 
z
" transform="scale(0.015625)"/>
       </defs>
       <use xlink:href="#DejaVuSans-32"/>
       <use xlink:href="#DejaVuSans-30" transform="translate(63.623047 0)"/>
       <use xlink:href="#DejaVuSans-32" transform="translate(127.246094 0)"/>
       <use xlink:href="#DejaVuSans-30" transform="translate(190.869141 0)"/>
      </g>
     </g>
    </g>
    <g id="xtick_2">
     <g id="line2d_2">
      <g>
       <use xlink:href="#m424b8d9c84" x="211.254204" y="224.28" style="stroke: #000000; stroke-width: 0.8"/>
      </g>
     </g>
     <g id="text_2">
      <!-- 2021 -->
      <g transform="translate(198.529204 238.878438) scale(0.1 -0.1)">
       <defs>
        <path id="DejaVuSans-31" d="M 794 531 
L 1825 531 
L 1825 4091 
L 703 3866 
L 703 4441 
L 1819 4666 
L 2450 4666 
L 2450 531 
L 3481 531 
L 3481 0 
L 794 0 
L 794 531 
z
" transform="scale(0.015625)"/>
       </defs>
       <use xlink:href="#DejaVuSans-32"/>
       <use xlink:href="#DejaVuSans-30" transform="translate(63.623047 0)"/>
       <use xlink:href="#DejaVuSans-32" transform="translate(127.246094 0)"/>
       <use xlink:href="#DejaVuSans-31" transform="translate(190.869141 0)"/>
      </g>
     </g>
    </g>
    <g id="xtick_3">
     <g id="line2d_3">
      <g>
       <use xlink:href="#m424b8d9c84" x="306.601077" y="224.28" style="stroke: #000000; stroke-width: 0.8"/>
      </g>
     </g>
     <g id="text_3">
      <!-- 2022 -->
      <g transform="translate(293.876077 238.878438) scale(0.1 -0.1)">
       <use xlink:href="#DejaVuSans-32"/>
       <use xlink:href="#DejaVuSans-30" transform="translate(63.623047 0)"/>
       <use xlink:href="#DejaVuSans-32" transform="translate(127.246094 0)"/>
       <use xlink:href="#DejaVuSans-32" transform="translate(190.869141 0)"/>
      </g>
     </g>
    </g>
    <g id="xtick_4">
     <g id="line2d_4">
      <g>
       <use xlink:href="#m424b8d9c84" x="401.947949" y="224.28" style="stroke: #000000; stroke-width: 0.8"/>
      </g>
     </g>
     <g id="text_4">
      <!-- 2023 -->
      <g transform="translate(389.222949 238.878438) scale(0.1 -0.1)">
       <defs>
        <path id="DejaVuSans-33" d="M 2597 2516 
Q 3050 2419 3304 2112 
Q 3559 1806 3559 1356 
Q 3559 666 3084 287 
Q 2609 -91 1734 -91 
Q 1441 -91 1130 -33 
Q 819 25 488 141 
L 488 750 
Q 750 597 1062 519 
Q 1375 441 1716 441 
Q 2309 441 2620 675 
Q 2931 909 2931 1356 
Q 2931 1769 2642 2001 
Q 2353 2234 1838 2234 
L 1294 2234 
L 1294 2753 
L 1863 2753 
Q 2328 2753 2575 2939 
Q 2822 3125 2822 3475 
Q 2822 3834 2567 4026 
Q 2313 4219 1838 4219 
Q 1578 4219 1281 4162 
Q 984 4106 628 3988 
L 628 4550 
Q 988 4650 1302 4700 
Q 1616 4750 1894 4750 
Q 2613 4750 3031 4423 
Q 3450 4097 3450 3541 
Q 3450 3153 3228 2886 
Q 3006 2619 2597 2516 
z
" transform="scale(0.015625)"/>
       </defs>
       <use xlink:href="#DejaVuSans-32"/>
       <use xlink:href="#DejaVuSans-30" transform="translate(63.623047 0)"/>
       <use xlink:href="#DejaVuSans-32" transform="translate(127.246094 0)"/>
       <use xlink:href="#DejaVuSans-33" transform="translate(190.869141 0)"/>
      </g>
     </g>
    </g>
    <g id="xtick_5">
     <g id="line2d_5">
      <g>
       <use xlink:href="#m424b8d9c84" x="497.294821" y="224.28" style="stroke: #000000; stroke-width: 0.8"/>
      </g>
     </g>
     <g id="text_5">
      <!-- 2024 -->
      <g transform="translate(484.569821 238.878438) scale(0.1 -0.1)">
       <defs>
        <path id="DejaVuSans-34" d="M 2419 4116 
L 825 1625 
L 2419 1625 
L 2419 4116 
z
M 2253 4666 
L 3047 4666 
L 3047 1625 
L 3713 1625 
L 3713 1100 
L 3047 1100 
L 3047 0 
L 2419 0 
L 2419 1100 
L 313 1100 
L 313 1709 
L 2253 4666 
z
" transform="scale(0.015625)"/>
       </defs>
       <use xlink:href="#DejaVuSans-32"/>
       <use xlink:href="#DejaVuSans-30" transform="translate(63.623047 0)"/>
       <use xlink:href="#DejaVuSans-32" transform="translate(127.246094 0)"/>
       <use xlink:href="#DejaVuSans-34" transform="translate(190.869141 0)"/>
      </g>
     </g>
    </g>
    <g id="xtick_6">
     <g id="line2d_6">
      <g>
       <use xlink:href="#m424b8d9c84" x="592.902918" y="224.28" style="stroke: #000000; stroke-width: 0.8"/>
      </g>
     </g>
     <g id="text_6">
      <!-- 2025 -->
      <g transform="translate(580.177918 238.878438) scale(0.1 -0.1)">
       <defs>
        <path id="DejaVuSans-35" d="M 691 4666 
L 3169 4666 
L 3169 4134 
L 1269 4134 
L 1269 2991 
Q 1406 3038 1543 3061 
Q 1681 3084 1819 3084 
Q 2600 3084 3056 2656 
Q 3513 2228 3513 1497 
Q 3513 744 3044 326 
Q 2575 -91 1722 -91 
Q 1428 -91 1123 -41 
Q 819 9 494 109 
L 494 744 
Q 775 591 1075 516 
Q 1375 441 1709 441 
Q 2250 441 2565 725 
Q 2881 1009 2881 1497 
Q 2881 1984 2565 2268 
Q 2250 2553 1709 2553 
Q 1456 2553 1204 2497 
Q 953 2441 691 2322 
L 691 4666 
z
" transform="scale(0.015625)"/>
       </defs>
       <use xlink:href="#DejaVuSans-32"/>
       <use xlink:href="#DejaVuSans-30" transform="translate(63.623047 0)"/>
       <use xlink:href="#DejaVuSans-32" transform="translate(127.246094 0)"/>
       <use xlink:href="#DejaVuSans-35" transform="translate(190.869141 0)"/>
      </g>
     </g>
    </g>
   </g>
   <g id="matplotlib.axis_2">
    <g id="ytick_1">
     <g id="line2d_7">
      <defs>
       <path id="m98766ce53d" d="M 0 0 
L -3.5 0 
" style="stroke: #000000; stroke-width: 0.8"/>
      </defs>
      <g>
       <use xlink:href="#m98766ce53d" x="94.5" y="219.196786" style="stroke: #000000; stroke-width: 0.8"/>
      </g>
     </g>
     <g id="text_7">
      <!-- 50 -->
      <g transform="translate(74.775 222.996005) scale(0.1 -0.1)">
       <use xlink:href="#DejaVuSans-35"/>
       <use xlink:href="#DejaVuSans-30" transform="translate(63.623047 0)"/>
      </g>
     </g>
    </g>
    <g id="ytick_2">
     <g id="line2d_8">
      <g>
       <use xlink:href="#m98766ce53d" x="94.5" y="197.556522" style="stroke: #000000; stroke-width: 0.8"/>
      </g>
     </g>
     <g id="text_8">
      <!-- 75 -->
      <g transform="translate(74.775 201.355741) scale(0.1 -0.1)">
       <defs>
        <path id="DejaVuSans-37" d="M 525 4666 
L 3525 4666 
L 3525 4397 
L 1831 0 
L 1172 0 
L 2766 4134 
L 525 4134 
L 525 4666 
z
" transform="scale(0.015625)"/>
       </defs>
       <use xlink:href="#DejaVuSans-37"/>
       <use xlink:href="#DejaVuSans-35" transform="translate(63.623047 0)"/>
      </g>
     </g>
    </g>
    <g id="ytick_3">
     <g id="line2d_9">
      <g>
       <use xlink:href="#m98766ce53d" x="94.5" y="175.916258" style="stroke: #000000; stroke-width: 0.8"/>
      </g>
     </g>
     <g id="text_9">
      <!-- 100 -->
      <g transform="translate(68.4125 179.715477) scale(0.1 -0.1)">
       <use xlink:href="#DejaVuSans-31"/>
       <use xlink:href="#DejaVuSans-30" transform="translate(63.623047 0)"/>
       <use xlink:href="#DejaVuSans-30" transform="translate(127.246094 0)"/>
      </g>
     </g>
    </g>
    <g id="ytick_4">
     <g id="line2d_10">
      <g>
       <use xlink:href="#m98766ce53d" x="94.5" y="154.275994" style="stroke: #000000; stroke-width: 0.8"/>
      </g>
     </g>
     <g id="text_10">
      <!-- 125 -->
      <g transform="translate(68.4125 158.075212) scale(0.1 -0.1)">
       <use xlink:href="#DejaVuSans-31"/>
       <use xlink:href="#DejaVuSans-32" transform="translate(63.623047 0)"/>
       <use xlink:href="#DejaVuSans-35" transform="translate(127.246094 0)"/>
      </g>
     </g>
    </g>
    <g id="ytick_5">
     <g id="line2d_11">
      <g>
       <use xlink:href="#m98766ce53d" x="94.5" y="132.63573" style="stroke: #000000; stroke-width: 0.8"/>
      </g>
     </g>
     <g id="text_11">
      <!-- 150 -->
      <g transform="translate(68.4125 136.434948) scale(0.1 -0.1)">
       <use xlink:href="#DejaVuSans-31"/>
       <use xlink:href="#DejaVuSans-35" transform="translate(63.623047 0)"/>
       <use xlink:href="#DejaVuSans-30" transform="translate(127.246094 0)"/>
      </g>
     </g>
    </g>
    <g id="ytick_6">
     <g id="line2d_12">
      <g>
       <use xlink:href="#m98766ce53d" x="94.5" y="110.995466" style="stroke: #000000; stroke-width: 0.8"/>
      </g>
     </g>
     <g id="text_12">
      <!-- 175 -->
      <g transform="translate(68.4125 114.794684) scale(0.1 -0.1)">
       <use xlink:href="#DejaVuSans-31"/>
       <use xlink:href="#DejaVuSans-37" transform="translate(63.623047 0)"/>
       <use xlink:href="#DejaVuSans-35" transform="translate(127.246094 0)"/>
      </g>
     </g>
    </g>
    <g id="ytick_7">
     <g id="line2d_13">
      <g>
       <use xlink:href="#m98766ce53d" x="94.5" y="89.355202" style="stroke: #000000; stroke-width: 0.8"/>
      </g>
     </g>
     <g id="text_13">
      <!-- 200 -->
      <g transform="translate(68.4125 93.15442) scale(0.1 -0.1)">
       <use xlink:href="#DejaVuSans-32"/>
       <use xlink:href="#DejaVuSans-30" transform="translate(63.623047 0)"/>
       <use xlink:href="#DejaVuSans-30" transform="translate(127.246094 0)"/>
      </g>
     </g>
    </g>
    <g id="ytick_8">
     <g id="line2d_14">
      <g>
       <use xlink:href="#m98766ce53d" x="94.5" y="67.714938" style="stroke: #000000; stroke-width: 0.8"/>
      </g>
     </g>
     <g id="text_14">
      <!-- 225 -->
      <g transform="translate(68.4125 71.514156) scale(0.1 -0.1)">
       <use xlink:href="#DejaVuSans-32"/>
       <use xlink:href="#DejaVuSans-32" transform="translate(63.623047 0)"/>
       <use xlink:href="#DejaVuSans-35" transform="translate(127.246094 0)"/>
      </g>
     </g>
    </g>
    <g id="ytick_9">
     <g id="line2d_15">
      <g>
       <use xlink:href="#m98766ce53d" x="94.5" y="46.074674" style="stroke: #000000; stroke-width: 0.8"/>
      </g>
     </g>
     <g id="text_15">
      <!-- 250 -->
      <g transform="translate(68.4125 49.873892) scale(0.1 -0.1)">
       <use xlink:href="#DejaVuSans-32"/>
       <use xlink:href="#DejaVuSans-35" transform="translate(63.623047 0)"/>
       <use xlink:href="#DejaVuSans-30" transform="translate(127.246094 0)"/>
      </g>
     </g>
    </g>
   </g>
   <g id="line2d_16">
    <path d="M 121.131818 196.060076 
L 121.393042 195.740214 
L 121.654267 195.932551 
L 122.43794 197.889335 
L 122.960388 194.671957 
L 123.221613 194.770206 
L 123.482837 197.772251 
L 124.26651 197.949954 
L 124.527734 195.819661 
L 125.050183 194.490054 
L 125.311407 195.41419 
L 126.09508 195.095681 
L 126.356304 195.502222 
L 126.617529 193.911688 
L 126.878753 194.399968 
L 127.139977 194.383206 
L 128.184874 195.630031 
L 128.446099 194.661912 
L 128.707323 195.357613 
L 128.968547 196.876862 
L 129.75222 199.99292 
L 130.013445 202.109404 
L 130.274669 201.151746 
L 130.535893 205.160478 
L 130.797118 205.194027 
L 131.58079 199.860898 
L 131.842015 201.849566 
L 132.103239 199.037362 
L 132.364463 201.095149 
L 132.625688 201.910331 
L 133.409361 206.700689 
L 133.670585 202.68359 
L 133.931809 204.760218 
L 134.193034 210.460071 
L 134.454258 204.227994 
L 135.237931 211.721576 
L 135.499155 209.489851 
L 135.760379 210.78697 
L 136.021604 211.183026 
L 136.282828 214.439481 
L 137.066501 215.46 
L 137.327725 210.74297 
L 137.58895 211.027959 
L 137.850174 208.320532 
L 138.111398 210.562761 
L 138.895071 209.08122 
L 139.156295 209.190188 
L 139.41752 211.994001 
L 139.678744 211.151598 
L 139.939968 211.889214 
L 140.723641 207.476045 
L 140.984866 208.113091 
L 141.24609 206.721657 
L 141.507314 206.319316 
L 142.552211 205.217075 
L 142.813436 202.325239 
L 143.07466 202.874283 
L 143.335884 202.400684 
L 143.597109 203.215846 
L 144.380782 204.445903 
L 144.642006 206.239684 
L 144.90323 204.619828 
L 145.164455 204.844056 
L 145.425679 203.180204 
L 146.209352 203.138307 
L 146.470576 204.100166 
L 146.993025 200.910756 
L 147.254249 201.901943 
L 148.037922 201.044872 
L 148.560371 199.479512 
L 148.821595 198.827808 
L 149.082819 197.312831 
L 149.866492 196.287461 
L 150.388941 197.833953 
L 150.650165 197.436829 
L 150.911389 197.821346 
L 151.695062 196.297955 
L 151.956287 196.680378 
L 152.217511 195.400744 
L 152.478735 195.900832 
L 152.739959 195.472193 
L 153.784857 195.926059 
L 154.046081 195.6361 
L 154.56853 195.671802 
L 155.874651 194.163145 
L 156.135875 194.75149 
L 156.3971 192.822595 
L 157.180773 192.410758 
L 157.703221 188.338627 
L 157.964446 191.89805 
L 158.22567 191.288711 
L 159.009343 190.408307 
L 159.270567 188.498333 
L 159.531791 188.601284 
L 159.793016 188.57185 
L 160.05424 188.994188 
L 160.837913 187.0716 
L 161.099137 185.462092 
L 161.360362 186.821563 
L 161.621586 185.817194 
L 161.88281 188.172633 
L 162.927707 185.825607 
L 163.188932 185.970574 
L 163.450156 185.970574 
L 164.495053 183.924001 
L 164.756278 184.167764 
L 165.017502 182.343894 
L 165.278726 181.999306 
L 165.539951 181.858534 
L 166.323623 182.230443 
L 166.584848 180.902493 
L 166.846072 180.341463 
L 167.107296 181.352139 
L 167.368521 181.516039 
L 168.152194 179.809867 
L 168.413418 180.950809 
L 168.674642 180.721779 
L 168.935867 184.442996 
L 169.197091 184.636324 
L 169.980764 182.79146 
L 170.241988 184.100502 
L 170.764437 181.631598 
L 171.025661 173.167975 
L 172.070558 170.306147 
L 172.331783 169.972053 
L 172.593007 166.744598 
L 172.854231 168.921172 
L 173.637904 167.561338 
L 173.899128 170.384135 
L 174.160353 167.323499 
L 174.421577 165.639483 
L 175.466474 165.978398 
L 175.727699 165.174278 
L 175.988923 165.052209 
L 176.250147 162.890388 
L 176.511371 157.758413 
L 177.295044 156.505949 
L 177.556269 157.375317 
L 177.817493 155.946041 
L 178.078717 157.219533 
L 178.339942 157.390044 
L 179.123615 153.826315 
L 179.384839 149.498454 
L 179.646063 151.839219 
L 179.907287 160.696993 
L 180.168512 160.629612 
L 181.213409 167.483476 
L 181.474633 163.694501 
L 181.735858 166.919329 
L 181.997082 168.173906 
L 182.780755 165.344796 
L 183.041979 165.193239 
L 183.303203 168.06445 
L 183.564428 169.571608 
L 183.825652 172.518602 
L 184.609325 169.790527 
L 184.870549 168.333871 
L 185.131774 172.282823 
L 185.392998 171.356626 
L 185.654222 167.938127 
L 186.437895 165.681584 
L 186.699119 166.414136 
L 187.221568 164.140746 
L 187.482792 167.315059 
L 188.266465 164.384925 
L 188.52769 167.197195 
L 188.788914 165.580555 
L 189.050138 165.673164 
L 189.311363 163.989195 
L 190.095035 157.733146 
L 190.35626 160.511742 
L 190.617484 160.435967 
L 190.878708 160.840124 
L 191.139933 162.263099 
L 191.923606 164.822756 
L 192.18483 163.534504 
L 192.446054 164.073384 
L 192.968503 165.614236 
L 193.752176 165.605816 
L 194.0134 164.300723 
L 194.274624 168.847497 
L 194.535849 165.378483 
L 194.797073 170.817753 
L 195.580746 170.893554 
L 195.84197 169.487406 
L 196.364419 162.254679 
L 196.625643 162.368533 
L 197.409316 164.367517 
L 197.67054 164.662706 
L 197.931765 161.693781 
L 198.192989 161.929949 
L 198.454213 161.887776 
L 199.237886 161.010575 
L 199.499111 161.778121 
L 199.760335 162.925218 
L 200.021559 162.410707 
L 201.066456 166.450822 
L 201.588905 164.612112 
L 202.111354 164.139782 
L 202.895027 162.064891 
L 203.156251 158.969457 
L 203.417475 158.665808 
L 203.678699 158.783902 
L 203.939924 159.365874 
L 204.984821 157.569319 
L 205.246045 159.762291 
L 205.50727 158.530853 
L 205.768494 159.230913 
L 206.552167 159.762291 
L 206.813391 154.61726 
L 207.074615 154.676314 
L 207.33584 153.925634 
L 207.597064 155.646255 
L 208.380737 154.322044 
L 208.641961 151.243438 
L 208.903186 152.019424 
L 209.16441 151.167557 
L 210.209307 147.186469 
L 210.731756 149.691518 
L 210.99298 150.560272 
L 212.037877 153.326775 
L 212.299102 151.977231 
L 212.560326 155.696876 
L 212.82155 152.053178 
L 213.082775 151.10009 
L 213.866447 153.689465 
L 214.127672 153.841273 
L 214.388896 152.078465 
L 214.911345 155.241399 
L 215.956242 154.65942 
L 216.739915 145.179079 
L 217.523588 141.931824 
L 217.784812 141.729382 
L 218.046036 142.657177 
L 218.568485 151.17597 
L 219.613382 148.620322 
L 219.874607 149.505969 
L 220.135831 146.596091 
L 220.397055 146.955089 
L 221.180728 146.828343 
L 221.703177 148.112349 
L 221.964401 148.331921 
L 222.225625 148.129229 
L 223.270523 149.970685 
L 223.531747 151.955741 
L 223.792971 152.910249 
L 224.054195 152.77509 
L 224.837868 156.044138 
L 225.099093 156.162398 
L 225.360317 156.593189 
L 225.621541 160.276121 
L 225.882766 160.048043 
L 226.666439 154.532094 
L 227.450111 161.002577 
L 227.711336 159.912897 
L 228.495009 164.187107 
L 228.756233 160.191649 
L 229.017457 161.129277 
L 229.278682 159.456759 
L 229.539906 160.242335 
L 230.323579 157.742009 
L 230.584803 156.407356 
L 230.846027 157.091559 
L 231.107252 160.664666 
L 231.368476 161.120824 
L 232.152149 158.248813 
L 232.413373 158.966816 
L 232.674598 161.036357 
L 233.197046 160.090276 
L 233.980719 159.93823 
L 234.241943 161.196856 
L 234.503168 159.296254 
L 234.764392 158.578251 
L 235.809289 156.128591 
L 236.070514 155.866739 
L 236.331738 154.439167 
L 236.854187 150.131151 
L 237.637859 151.61785 
L 237.899084 148.923225 
L 238.160308 150.950547 
L 238.421532 148.864105 
L 238.682757 149.151303 
L 239.46643 148.576933 
L 239.727654 150.038258 
L 239.988878 149.70882 
L 240.250103 151.02656 
L 240.511327 149.016171 
L 241.295 148.678292 
L 241.556224 148.957038 
L 241.817448 149.641221 
L 242.078673 149.725713 
L 242.339897 151.432037 
L 243.12357 150.519749 
L 243.384794 154.48142 
L 243.646019 154.270242 
L 243.907243 152.884923 
L 244.168467 152.301082 
L 245.213364 155.93949 
L 245.474589 158.596379 
L 245.997037 154.636438 
L 246.78071 155.634883 
L 247.041935 156.836404 
L 247.303159 156.971774 
L 247.564383 154.754896 
L 247.825607 156.345641 
L 248.60928 154.932592 
L 249.131729 155.144127 
L 249.392953 156.472565 
L 249.654178 157.039473 
L 250.699075 157.3187 
L 250.960299 156.658721 
L 251.221523 157.944847 
L 251.482748 155.956423 
L 252.266421 155.94795 
L 252.527645 155.237205 
L 252.788869 154.907206 
L 253.050094 155.770274 
L 253.311318 154.72105 
L 254.094991 152.072633 
L 254.356215 152.783385 
L 254.617439 152.351881 
L 254.878664 150.964204 
L 255.139888 152.089513 
L 255.923561 150.532627 
L 256.184785 149.111164 
L 256.968458 149.847281 
L 257.752131 148.434179 
L 258.013355 147.122714 
L 258.27458 146.589632 
L 258.535804 146.327291 
L 258.797028 144.051194 
L 259.841926 142.308125 
L 260.10315 140.150465 
L 260.364374 141.27584 
L 260.625599 139.693568 
L 261.409271 140.209703 
L 261.670496 139.245097 
L 261.93172 136.275135 
L 262.192944 136.842056 
L 262.454169 138.610485 
L 263.237842 141.944319 
L 263.499066 138.813587 
L 263.76029 139.448199 
L 264.282739 136.774391 
L 265.066412 136.410519 
L 265.58886 139.803565 
L 265.850085 139.245097 
L 266.111309 139.058955 
L 266.894982 139.346642 
L 267.156206 137.789755 
L 267.417431 138.136668 
L 267.678655 138.04359 
L 267.939879 138.636756 
L 268.723552 138.679141 
L 268.984776 139.094366 
L 269.246001 138.87404 
L 269.507225 136.306386 
L 269.768449 136.128432 
L 270.552122 134.41668 
L 270.813347 135.204732 
L 271.074571 138.450309 
L 271.335795 138.162226 
L 271.597019 136.899551 
L 272.380692 135.61153 
L 272.641917 135.687768 
L 273.164365 137.450385 
L 273.42559 136.552124 
L 274.209263 132.721834 
L 274.470487 133.814995 
L 274.731711 133.238788 
L 275.25416 131.721923 
L 276.299057 129.696595 
L 276.821506 131.916809 
L 277.08273 136.238575 
L 277.866403 135.747059 
L 278.127627 136.958869 
L 278.388851 136.18775 
L 278.650076 136.391142 
L 278.9113 138.70454 
L 279.694973 141.348472 
L 279.956197 140.933234 
L 280.217422 138.882507 
L 280.478646 138.052043 
L 280.73987 137.975779 
L 281.523543 139.289279 
L 281.784767 142.221307 
L 282.045992 141.441669 
L 282.307216 142.568761 
L 282.56844 141.59425 
L 283.352113 144.568663 
L 283.613338 142.89923 
L 284.135786 141.051856 
L 284.397011 141.382377 
L 285.180683 141.458628 
L 285.441908 142.560269 
L 285.703132 143.068757 
L 285.964356 140.653617 
L 286.225581 139.738396 
L 287.009254 138.289302 
L 287.270478 136.416555 
L 287.531702 135.992837 
L 287.792927 135.806417 
L 288.054151 136.475873 
L 288.837824 136.518271 
L 289.099048 135.942012 
L 289.360272 136.340251 
L 289.621497 133.187884 
L 289.882721 135.535253 
L 290.666394 136.247028 
L 291.188843 134.103118 
L 291.450067 134.552235 
L 291.711291 134.093978 
L 292.494964 134.806822 
L 292.756188 134.492838 
L 293.017413 136.94545 
L 293.278637 136.987874 
L 293.539861 135.18875 
L 294.323534 135.180244 
L 294.584759 134.331593 
L 294.845983 132.218457 
L 295.368431 126.226981 
L 296.152104 125.828147 
L 296.674553 125.047425 
L 297.197002 129.40097 
L 297.980675 126.490114 
L 298.241899 122.195967 
L 298.503123 122.645705 
L 298.764347 123.502875 
L 299.025572 125.132248 
L 299.809245 122.178968 
L 300.331693 113.896178 
L 300.592918 114.337502 
L 300.854142 110.187588 
L 301.899039 114.532653 
L 302.160263 110.314888 
L 302.421488 116.289366 
L 302.682712 117.239839 
L 303.466385 118.419474 
L 303.988834 113.420921 
L 304.250058 112.877801 
L 305.294955 109.440759 
L 305.556179 110.323408 
L 305.817404 110.246972 
L 306.078628 111.248376 
L 306.339852 111.783056 
L 307.123525 108.015056 
L 307.38475 109.975438 
L 307.907198 116.510008 
L 308.168423 116.365722 
L 308.952096 116.34875 
L 309.21332 113.896178 
L 309.474544 113.51429 
L 309.735768 116.34875 
L 309.996993 115.601933 
L 311.04189 118.377023 
L 311.303114 121.406726 
L 311.825563 124.648525 
L 312.609236 125.318959 
L 312.87046 126.880468 
L 313.131684 126.956864 
L 313.392909 127.355725 
L 313.654133 117.927218 
L 314.437806 114.150778 
L 314.69903 114.295025 
L 314.960255 113.25121 
L 315.221479 115.746259 
L 316.266376 116.61294 
L 316.5276 113.919318 
L 316.788825 112.687208 
L 317.311273 119.179128 
L 318.094946 118.975194 
L 318.356171 115.652745 
L 318.617395 115.856679 
L 318.878619 118.975194 
L 319.139844 120.317778 
L 320.184741 122.849916 
L 320.445965 126.461294 
L 320.968414 122.399597 
L 321.752087 122.170184 
L 322.013311 123.801657 
L 322.274535 120.946553 
L 322.53576 121.227002 
L 322.796984 123.827149 
L 323.580657 127.1156 
L 323.841881 128.69609 
L 324.103105 124.014071 
L 324.625554 130.998881 
L 325.409227 134.491253 
L 325.931676 126.869175 
L 326.1929 125.993936 
L 326.454124 123.138871 
L 327.237797 121.949238 
L 327.499021 119.026191 
L 327.760246 117.84505 
L 328.02147 114.565105 
L 328.282694 114.012766 
L 329.066367 113.265012 
L 329.327592 110.409895 
L 329.588816 111.421099 
L 329.85004 114.10624 
L 330.111264 114.361185 
L 330.894937 110.851814 
L 331.417386 116.468495 
L 331.67861 116.205071 
L 331.939835 117.947031 
L 332.723508 121.634844 
L 332.984732 120.011837 
L 333.245956 117.683581 
L 333.50718 122.025713 
L 334.552078 122.212648 
L 334.813302 120.232784 
L 335.074526 120.377268 
L 335.335751 121.065532 
L 335.596975 124.999757 
L 336.380648 124.073561 
L 336.641872 129.239923 
L 336.903096 129.435338 
L 337.164321 123.427787 
L 337.425545 128.517647 
L 338.209218 128.25421 
L 338.470442 126.962649 
L 338.731667 121.405418 
L 338.992891 129.265388 
L 339.254115 128.635675 
L 340.037788 133.077781 
L 340.299012 130.992884 
L 340.560237 137.809224 
L 340.821461 141.162078 
L 341.082685 137.290104 
L 341.866358 138.626149 
L 342.127583 135.47752 
L 342.388807 142.64278 
L 342.650031 145.595638 
L 342.911256 145.3914 
L 343.694928 140.693994 
L 343.956153 143.034204 
L 344.217377 142.898015 
L 344.478601 140.12385 
L 344.739826 135.137159 
L 346.045947 135.928553 
L 346.307172 133.8011 
L 346.568396 138.762273 
L 347.352069 138.115535 
L 347.613293 135.928553 
L 347.874517 136.566785 
L 348.396966 145.782837 
L 349.180639 150.250487 
L 349.441863 149.501637 
L 349.703088 147.229541 
L 349.964312 151.799264 
L 350.225536 150.522813 
L 351.270433 146.85509 
L 351.531658 147.297603 
L 352.054106 141.927928 
L 352.837779 141.927928 
L 353.099004 145.519083 
L 353.360228 143.995812 
L 353.621452 146.131731 
L 353.882676 144.251126 
L 354.927574 142.013054 
L 355.188798 140.855728 
L 355.450022 137.936828 
L 355.711247 137.349686 
L 356.49492 139.19632 
L 356.756144 138.353823 
L 357.017368 138.66868 
L 357.278592 136.132777 
L 357.539817 134.686139 
L 358.32349 137.324154 
L 358.584714 133.979793 
L 359.107163 130.278072 
L 359.368387 131.350298 
L 360.15206 132.320411 
L 360.413284 133.469231 
L 360.674508 129.052684 
L 360.935733 128.576093 
L 361.196957 124.185104 
L 361.98063 125.036066 
L 362.241854 126.312517 
L 362.503079 121.10451 
L 363.025527 121.572845 
L 363.8092 121.981875 
L 364.070424 121.939279 
L 364.331649 118.257938 
L 364.592873 118.897055 
L 364.854097 115.820766 
L 365.63777 114.891902 
L 365.898995 115.028263 
L 366.160219 113.732991 
L 366.421443 114.073867 
L 366.682668 116.315043 
L 367.46634 119.681039 
L 367.727565 119.970813 
L 367.988789 119.715129 
L 368.250013 117.584744 
L 368.511238 123.047088 
L 369.294911 124.955919 
L 369.817359 128.500899 
L 370.078584 127.870302 
L 370.339808 129.702433 
L 371.384705 130.793217 
L 371.645929 129.574604 
L 371.907154 130.852851 
L 372.168378 128.373097 
L 372.952051 123.20898 
L 373.213275 131.381178 
L 373.4745 130.128515 
L 373.735724 132.633881 
L 373.996948 134.056968 
L 374.780621 130.835813 
L 375.041845 128.773582 
L 375.30307 131.483462 
L 375.564294 132.318562 
L 375.825518 134.287055 
L 376.609191 133.997333 
L 376.870416 133.153662 
L 377.13164 134.789837 
L 377.654088 144.70896 
L 378.437761 141.08728 
L 378.698986 137.976928 
L 378.96021 137.721284 
L 379.221434 138.547865 
L 379.482659 143.098396 
L 380.266332 142.817181 
L 380.527556 144.044272 
L 380.78878 144.589651 
L 381.050004 140.627108 
L 381.311229 144.555561 
L 382.356126 139.979485 
L 382.61735 139.885733 
L 382.878575 140.286258 
L 383.139799 136.97987 
L 383.923472 135.122168 
L 384.184696 132.659452 
L 384.44592 135.2074 
L 384.707145 139.084724 
L 384.968369 129.762068 
L 385.752042 131.807287 
L 386.013266 134.099604 
L 386.535715 144.129492 
L 386.796939 144.359961 
L 387.580612 143.899009 
L 387.841836 143.403954 
L 388.103061 147.355996 
L 388.364285 137.11314 
L 388.625509 134.697498 
L 389.409182 135.909586 
L 389.670407 134.407302 
L 389.931631 135.474258 
L 390.192855 133.826869 
L 390.45408 133.340359 
L 391.237752 136.140068 
L 391.498977 134.287794 
L 391.760201 133.5281 
L 393.066323 139.375119 
L 393.327547 141.978502 
L 393.588771 136.122964 
L 393.849996 135.883975 
L 394.11122 136.310757 
L 394.894893 137.31796 
L 395.156117 140.493269 
L 395.417341 142.174828 
L 395.678566 140.71522 
L 395.93979 141.133456 
L 396.984687 138.30811 
L 397.245912 140.237176 
L 397.507136 145.964674 
L 397.76836 147.663271 
L 398.552033 149.489934 
L 398.813257 149.549688 
L 399.074482 146.860928 
L 399.335706 149.609429 
L 399.59693 149.925249 
L 400.641828 151.487287 
L 400.903052 154.89304 
L 401.164276 151.845777 
L 401.4255 151.572625 
L 402.470398 155.721 
L 402.731622 154.619901 
L 402.992846 155.763689 
L 403.254071 151.837264 
L 404.037744 151.384858 
L 404.298968 150.889802 
L 404.560192 148.53394 
L 404.821416 148.602213 
L 405.082641 147.449906 
L 406.127538 146.442665 
L 406.388762 147.065773 
L 406.649987 147.014565 
L 406.911211 144.795276 
L 407.956108 140.817649 
L 408.217332 141.38951 
L 408.739781 137.915497 
L 409.523454 140.416464 
L 410.045903 138.342253 
L 410.568351 130.600364 
L 411.352024 132.964732 
L 411.613248 130.472324 
L 411.874473 132.802575 
L 412.135697 133.698842 
L 412.396921 133.38252 
L 413.180594 130.954686 
L 413.441819 131.510341 
L 413.703043 129.689476 
L 414.225492 132.066022 
L 415.270389 135.54537 
L 415.792837 134.758877 
L 416.054062 137.058498 
L 416.837735 136.024101 
L 417.098959 136.460076 
L 417.360183 138.255317 
L 417.621408 137.742378 
L 417.882632 133.365415 
L 418.666305 130.971765 
L 418.927529 132.878126 
L 419.188753 131.792467 
L 419.711202 135.528279 
L 420.494875 133.844145 
L 420.756099 132.031826 
L 421.017324 131.689866 
L 421.278548 129.244929 
L 421.539772 129.971589 
L 422.323445 127.919885 
L 422.584669 126.312728 
L 422.845894 127.552236 
L 423.368342 125.48348 
L 424.41324 127.706137 
L 424.674464 125.038919 
L 424.935688 123.679693 
L 425.196912 121.508336 
L 425.980585 120.422611 
L 426.24181 120.884224 
L 426.503034 122.482861 
L 426.764258 121.713459 
L 427.809156 123.961793 
L 428.331604 125.611705 
L 428.592828 120.944083 
L 428.854053 121.243275 
L 429.637726 121.226196 
L 430.160174 119.174479 
L 430.421399 120.0123 
L 430.682623 121.405709 
L 431.466296 121.1407 
L 431.72752 122.474302 
L 431.988744 122.482861 
L 432.249969 118.507678 
L 432.511193 117.421993 
L 433.294866 117.49893 
L 433.817315 119.328367 
L 434.078539 120.747466 
L 434.339763 114.096546 
L 435.123436 114.156365 
L 435.38466 115.635284 
L 435.645885 114.105078 
L 435.907109 113.942657 
L 436.168333 114.747325 
L 436.952006 115.175376 
L 437.213231 115.175376 
L 437.474455 114.644605 
L 437.735679 112.624337 
L 437.996904 112.530162 
L 438.780576 113.351988 
L 439.041801 115.611932 
L 439.303025 115.372283 
L 439.564249 114.387786 
L 439.825474 112.299006 
L 440.870371 110.698203 
L 441.131595 110.740997 
L 441.39282 108.309796 
L 441.654044 107.573599 
L 442.698941 109.063097 
L 442.960165 110.253035 
L 443.22139 107.898863 
L 443.482614 107.565014 
L 444.266287 105.142371 
L 444.527511 105.553304 
L 444.788736 105.005403 
L 445.04996 103.241927 
L 445.311184 104.175031 
L 446.356081 104.097988 
L 446.617306 104.99683 
L 446.87853 102.394425 
L 447.139754 102.668376 
L 447.923427 103.875404 
L 448.184652 101.486997 
L 448.445876 100.468291 
L 448.7071 100.177249 
L 448.968324 96.427714 
L 450.274446 98.687698 
L 450.53567 98.276805 
L 450.796895 99.244145 
L 451.841792 101.469893 
L 452.103016 100.023162 
L 452.36424 99.363982 
L 452.625465 99.235572 
L 453.409138 96.410596 
L 453.670362 96.633167 
L 453.931586 95.460361 
L 454.454035 98.165486 
L 455.237708 97.472097 
L 455.760156 95.974013 
L 456.021381 97.069763 
L 456.282605 94.835443 
L 457.066278 94.304659 
L 457.327502 95.023752 
L 457.588727 97.617638 
L 457.849951 98.82468 
L 458.111175 106.683276 
L 458.894848 109.371297 
L 459.156072 108.55803 
L 459.417297 109.936316 
L 459.678521 110.124638 
L 459.939745 110.073205 
L 460.723418 108.641651 
L 460.984643 110.364644 
L 461.245867 111.118988 
L 461.507091 113.322032 
L 462.551988 111.744778 
L 462.813213 110.553256 
L 463.074437 107.218695 
L 463.335661 111.281858 
L 463.596886 109.370293 
L 464.380559 108.015874 
L 464.903007 101.62106 
L 465.164232 101.432487 
L 465.425456 100.069523 
L 466.470353 99.863806 
L 466.992802 110.270364 
L 467.254026 109.738893 
L 468.037699 108.727359 
L 468.560148 113.142031 
L 468.821372 111.830473 
L 469.082596 112.45625 
L 470.127493 108.975937 
L 470.388718 112.044775 
L 470.649942 113.382063 
L 470.911166 112.644849 
L 471.694839 111.539035 
L 471.956064 115.070754 
L 472.217288 116.382299 
L 472.478512 116.159437 
L 472.739737 115.713661 
L 473.523409 113.536348 
L 473.784634 114.693595 
L 474.307082 112.541984 
L 474.568307 110.330355 
L 475.35198 109.04454 
L 475.613204 109.558866 
L 476.135653 107.570125 
L 476.396877 109.164536 
L 477.18055 109.275973 
L 477.702998 111.744778 
L 477.964223 112.070505 
L 478.225447 114.28212 
L 479.00912 114.179255 
L 479.270344 113.802096 
L 479.531569 115.807955 
L 479.792793 119.416836 
L 480.054017 118.27672 
L 481.098914 116.090834 
L 481.621363 110.261765 
L 481.882587 111.050425 
L 482.66626 108.838809 
L 482.927485 106.618622 
L 483.188709 105.701394 
L 483.449933 106.112881 
L 483.711157 102.482101 
L 484.49483 103.855433 
L 484.756055 101.5894 
L 485.017279 101.100156 
L 485.278503 99.640958 
L 485.539728 99.658128 
L 486.323401 98.147457 
L 486.584625 98.842709 
L 486.845849 98.267625 
L 487.368298 99.417792 
L 488.151971 99.572288 
L 488.413195 99.048716 
L 488.674419 99.932805 
L 488.935644 99.434937 
L 489.196868 98.327696 
L 489.980541 99.881293 
L 490.241765 96.456508 
L 490.502989 97.40068 
L 491.025438 94.490894 
L 491.809111 96.662515 
L 492.070335 95.34924 
L 492.33156 92.559622 
L 492.592784 92.430869 
L 493.637681 94.336385 
L 493.898905 93.435126 
L 494.16013 95.246243 
L 494.421354 95.37501 
L 494.682578 96.302012 
L 495.727476 96.774098 
L 495.9887 96.688245 
L 496.249924 96.319169 
L 496.511149 97.220429 
L 498.339719 106.962642 
L 499.123392 103.203108 
L 499.384616 103.563586 
L 499.64584 102.662339 
L 499.907065 103.177339 
L 500.168289 102.89409 
L 501.213186 104.859677 
L 501.47441 105.675123 
L 501.735635 100.567973 
L 501.996859 98.053032 
L 502.780532 96.053091 
L 503.041756 94.945837 
L 503.302981 95.529492 
L 503.564205 95.812755 
L 503.825429 97.314867 
L 504.609102 97.907134 
L 505.131551 104.198766 
L 505.392775 102.087216 
L 505.653999 102.954174 
L 506.437672 101.383406 
L 506.698897 99.992863 
L 506.960121 99.898477 
L 507.221345 100.834038 
L 507.482569 100.172296 
L 508.266242 101.633331 
L 508.527467 103.446759 
L 508.788691 104.211658 
L 509.049915 104.460896 
L 509.31114 105.793032 
L 510.356037 106.43763 
L 510.617261 105.78442 
L 510.878485 104.022583 
L 511.13971 105.612556 
L 511.923383 106.781373 
L 512.184607 105.518012 
L 512.445831 106.557917 
L 512.707056 107.133741 
L 512.96828 108.070543 
L 513.751953 111.989565 
L 514.013177 116.269606 
L 514.274401 117.129022 
L 514.535626 117.232152 
L 514.79685 115.745335 
L 515.841747 113.596749 
L 516.102972 115.401539 
L 516.364196 113.794409 
L 516.62542 114.120994 
L 517.409093 113.175606 
L 517.931542 108.921374 
L 518.192766 115.19528 
L 518.45399 114.413185 
L 519.237663 115.642192 
L 519.498888 116.621948 
L 519.760112 113.527974 
L 520.021336 115.100763 
L 521.066233 116.346927 
L 521.327458 117.369649 
L 521.588682 116.673525 
L 521.849906 117.386859 
L 522.111131 116.733689 
L 522.894804 117.704859 
L 523.156028 116.656328 
L 523.417252 118.280669 
L 523.678477 112.041156 
L 523.939701 110.743388 
L 524.723374 114.060831 
L 524.984598 116.905567 
L 525.768271 120.669921 
L 526.551944 119.947976 
L 526.813168 119.036982 
L 527.074393 117.214968 
L 527.335617 116.46724 
L 527.596841 116.974328 
L 528.380514 113.364681 
L 528.641738 116.089104 
L 528.902963 116.974328 
L 529.164187 113.768626 
L 529.425411 104.873427 
L 530.209084 106.308692 
L 530.470309 105.715685 
L 530.731533 105.423468 
L 530.992757 103.850678 
L 531.253981 104.943654 
L 532.298879 101.174215 
L 532.560103 99.203411 
L 533.082552 99.07434 
L 533.866225 98.067429 
L 534.127449 96.940032 
L 534.388673 98.187927 
L 534.649897 101.647543 
L 534.911122 98.979664 
L 535.956019 98.971066 
L 536.217243 98.712872 
L 536.739692 97.026097 
L 537.784589 95.218823 
L 538.045813 93.910712 
L 538.307038 95.10695 
L 538.568262 93.032884 
L 539.351935 96.277378 
L 539.613159 84.203104 
L 539.874384 79.108291 
L 540.135608 78.101393 
L 540.396832 79.607467 
L 541.180505 76.01013 
L 542.225402 83.910477 
L 543.009075 83.351098 
L 543.2703 82.550723 
L 543.531524 78.953399 
L 543.792748 78.221878 
L 544.053973 81.216803 
L 544.837645 75.941289 
L 545.09887 72.911969 
L 545.360094 71.810381 
L 545.882543 67.688085 
L 546.666216 66.414382 
L 546.92744 65.674276 
L 547.188664 61.973664 
L 547.449889 66.629517 
L 547.711113 64.073551 
L 548.494786 60.751617 
L 548.75601 60.390149 
L 549.278459 69.54699 
L 549.539683 69.43513 
L 550.323356 69.736303 
L 550.58458 68.832705 
L 550.845805 74.400807 
L 551.107029 75.304418 
L 551.368253 74.899957 
L 552.151926 74.658974 
L 552.41315 74.177048 
L 552.674375 71.354264 
L 552.935599 74.555713 
L 553.196823 73.264799 
L 554.241721 84.13425 
L 554.764169 78.901768 
L 555.025393 76.380183 
L 555.809066 75.053317 
L 556.070291 71.830933 
L 556.331515 71.443221 
L 556.592739 68.858422 
L 556.853964 67.712481 
L 557.637637 67.850335 
L 557.898861 67.316157 
L 558.160085 67.410925 
L 558.421309 69.022124 
L 558.682534 67.031838 
L 559.466207 66.73888 
L 559.727431 66.006527 
L 559.988655 67.333393 
L 560.24988 64.49011 
L 560.511104 65.170754 
L 561.817225 72.192798 
L 562.07845 70.874556 
L 562.339674 72.218659 
L 563.123347 72.141114 
L 563.384571 72.830395 
L 563.645796 70.633309 
L 563.90702 70.53854 
L 564.168244 70.771163 
L 564.951917 76.095851 
L 565.213141 75.690915 
L 565.474366 72.330664 
L 565.73559 65.282785 
L 566.780487 67.350604 
L 567.041712 66.575178 
L 567.302936 67.436787 
L 567.56416 66.445936 
L 567.825385 66.213301 
L 568.609057 61.724359 
L 568.870282 67.574627 
L 569.131506 67.083521 
L 569.39273 68.039911 
L 569.653955 67.066284 
L 570.437628 71.469056 
L 570.960076 64.705496 
L 571.221301 65.136294 
L 571.482525 66.420088 
L 572.266198 63.189079 
L 572.527422 60.992006 
L 572.788646 62.775518 
L 573.049871 62.456726 
L 573.311095 60.001169 
L 574.094768 58.725986 
L 574.355992 59.260177 
L 574.617217 63.65435 
L 574.878441 63.818052 
L 575.139665 63.094311 
L 575.923338 61.379719 
L 576.184562 61.147083 
L 576.968235 70.417923 
L 577.751908 71.193362 
L 578.013133 69.952652 
L 578.274357 70.581625 
L 578.535581 66.48041 
L 578.796805 66.713283 
L 579.580478 69.068049 
L 579.841703 69.068049 
L 580.102927 68.30039 
L 580.364151 65.626475 
L 580.625376 68.403889 
L 581.409049 65.799 
L 581.670273 65.574726 
L 581.931497 64.953691 
L 582.192721 65.367714 
L 582.453946 64.203282 
L 583.237619 61.61563 
L 583.498843 59.72665 
L 583.760067 59.838788 
L 584.282516 57.768671 
L 585.066189 55.819304 
L 585.327413 53.179902 
L 585.588637 52.869378 
L 585.849862 52.843517 
L 586.111086 53.016029 
L 587.155983 48.763645 
L 587.417208 49.867703 
L 587.678432 48.599759 
L 587.939656 48.453135 
L 588.723329 45.94312 
L 588.984553 43.838504 
L 589.245778 48.522134 
L 589.507002 47.021303 
L 589.768226 42.967307 
L 590.551899 42.294522 
L 590.813124 39.767245 
L 591.335572 39.06 
L 591.596797 42.018524 
L 592.380469 44.942575 
L 592.641694 46.477906 
L 593.164142 52.144831 
L 593.425367 52.567479 
L 594.20904 51.152911 
L 594.470264 53.559413 
L 594.731488 53.136778 
L 595.253937 58.182668 
L 596.298834 61.261981 
L 596.560058 57.302898 
L 596.821283 65.591975 
L 597.082507 64.108394 
L 598.127404 70.439506 
L 598.388629 69.413059 
L 598.649853 69.559683 
L 598.911077 70.318743 
L 599.69475 64.211893 
L 599.955974 56.966486 
L 600.217199 56.017691 
L 600.739647 58.91584 
L 601.52332 65.807625 
L 601.784545 61.676004 
L 602.045769 61.960627 
L 602.306993 61.313731 
L 602.568217 66.135386 
L 603.35189 65.902249 
L 604.135563 53.916892 
L 604.396788 51.26596 
L 605.441685 51.378216 
L 605.702909 51.032822 
L 605.964133 50.203864 
L 606.225358 50.44564 
L 607.009031 49.107216 
L 607.270255 49.159032 
L 607.531479 54.927198 
L 607.792704 57.569492 
L 608.053928 53.649215 
L 608.837601 56.939145 
L 609.098825 58.752482 
L 609.360049 58.91654 
L 609.621274 59.270572 
L 609.882498 56.041096 
L 610.666171 66.049031 
L 611.449844 81.419271 
L 611.711068 78.129341 
L 612.494741 77.688968 
L 612.755965 78.820155 
L 613.01719 76.618234 
L 613.278414 77.602613 
L 613.539638 74.001841 
L 614.323311 71.877637 
L 614.584536 69.269869 
L 614.84576 71.18685 
L 615.106984 69.183528 
L 615.368209 74.321334 
L 616.413106 69.753434 
L 616.67433 69.148988 
L 617.196779 99.811752 
L 617.980452 105.787154 
L 618.241676 113.593169 
L 618.5029 90.770946 
L 618.764125 98.050219 
L 619.025349 91.375404 
L 619.809022 87.60191 
L 620.070246 87.93004 
L 620.33147 94.725762 
L 620.592695 92.385684 
L 621.637592 95.684252 
L 622.160041 85.805823 
L 622.421265 82.550459 
L 622.682489 81.764678 
L 623.466162 81.022062 
L 624.249835 78.276137 
L 624.511059 85.158214 
L 625.294732 90.736406 
L 625.555957 91.06455 
L 625.817181 93.016044 
L 626.339629 91.047261 
L 627.123302 80.222109 
L 627.384527 78.371803 
L 628.1682 79.815734 
L 628.951873 81.960014 
L 629.213097 83.620096 
L 629.474321 87.744386 
L 629.735545 88.375565 
L 629.99677 93.641147 
L 631.041667 89.369876 
L 631.302891 89.188316 
L 631.564116 89.594692 
L 631.82534 88.81652 
L 632.609013 88.081591 
L 632.870237 86.724121 
L 633.131462 87.113194 
L 633.392686 89.006731 
L 633.65391 86.162114 
L 634.437583 88.297742 
L 634.698807 87.242898 
L 634.960032 90.606306 
L 635.221256 90.24316 
L 635.48248 92.620895 
L 636.266153 90.91757 
L 636.527378 93.321245 
L 636.788602 92.508494 
L 637.31105 88.686829 
L 638.094723 88.254512 
L 638.355948 89.292067 
L 638.617172 88.20263 
L 638.878396 88.686829 
L 639.139621 88.617658 
L 639.923294 85.081329 
L 640.184518 82.790055 
L 640.445742 78.795469 
L 640.706966 77.835724 
L 641.751864 80.9484 
L 642.013088 80.896519 
L 642.535537 78.82141 
L 642.796761 79.902194 
L 643.580434 82.098356 
L 643.841658 81.674678 
L 644.102882 80.766814 
L 644.364107 80.887867 
L 644.625331 79.884905 
L 645.409004 78.76089 
L 645.670228 77.100795 
L 646.192677 77.654164 
L 646.453901 77.550401 
L 647.237574 77.403407 
L 647.760023 81.72656 
L 648.021247 83.006207 
L 648.282471 87.493629 
L 649.066144 86.654937 
L 649.327369 87.026747 
L 649.849817 72.232937 
L 650.111042 64.17458 
L 650.894714 65.827913 
L 651.155939 63.689854 
L 651.417163 60.5044 
L 651.678387 60.980489 
L 651.939612 62.010567 
L 652.984509 62.902145 
L 653.245733 66.840676 
L 653.506958 67.801504 
L 653.768182 65.325857 
L 653.768182 65.325857 
" clip-path="url(#p8eed1a427b)" style="fill: none; stroke: #1f77b4; stroke-width: 1.5; stroke-linecap: square"/>
   </g>
   <g id="patch_3">
    <path d="M 94.5 224.28 
L 94.5 30.24 
" style="fill: none; stroke: #000000; stroke-width: 0.8; stroke-linejoin: miter; stroke-linecap: square"/>
   </g>
   <g id="patch_4">
    <path d="M 94.5 224.28 
L 680.4 224.28 
" style="fill: none; stroke: #000000; stroke-width: 0.8; stroke-linejoin: miter; stroke-linecap: square"/>
   </g>
  </g>
 </g>
 <defs>
  <clipPath id="p8eed1a427b">
   <rect x="94.5" y="30.24" width="585.9" height="194.04"/>
  </clipPath>
 </defs>
</svg>
