<?xml version="1.0" encoding="utf-8" standalone="no"?>
<!DOCTYPE svg PUBLIC "-//W3C//DTD SVG 1.1//EN"
  "http://www.w3.org/Graphics/SVG/1.1/DTD/svg11.dtd">
<svg xmlns:xlink="http://www.w3.org/1999/xlink" width="756pt" height="252pt" viewBox="0 0 756 252" xmlns="http://www.w3.org/2000/svg" version="1.1">
 <metadata>
  <rdf:RDF xmlns:dc="http://purl.org/dc/elements/1.1/" xmlns:cc="http://creativecommons.org/ns#" xmlns:rdf="http://www.w3.org/1999/02/22-rdf-syntax-ns#">
   <cc:Work>
    <dc:type rdf:resource="http://purl.org/dc/dcmitype/StillImage"/>
    <dc:date>2025-08-25T20:09:36.708103</dc:date>
    <dc:format>image/svg+xml</dc:format>
    <dc:creator>
     <cc:Agent>
      <dc:title>Matplotlib v3.10.5, https://matplotlib.org/</dc:title>
     </cc:Agent>
    </dc:creator>
   </cc:Work>
  </rdf:RDF>
 </metadata>
 <defs>
  <style type="text/css">*{stroke-linejoin: round; stroke-linecap: butt}</style>
 </defs>
 <g id="figure_1">
  <g id="patch_1">
   <path d="M 0 252 
L 756 252 
L 756 0 
L 0 0 
z
" style="fill: #ffffff"/>
  </g>
  <g id="axes_1">
   <g id="patch_2">
    <path d="M 94.5 224.28 
L 680.4 224.28 
L 680.4 30.24 
L 94.5 30.24 
z
" style="fill: #ffffff"/>
   </g>
   <g id="matplotlib.axis_1">
    <g id="xtick_1">
     <g id="line2d_1">
      <defs>
       <path id="mbbbc027833" d="M 0 0 
L 0 3.5 
" style="stroke: #000000; stroke-width: 0.8"/>
      </defs>
      <g>
       <use xlink:href="#mbbbc027833" x="115.646108" y="224.28" style="stroke: #000000; stroke-width: 0.8"/>
      </g>
     </g>
     <g id="text_1">
      <!-- 2020 -->
      <g transform="translate(102.921108 238.878438) scale(0.1 -0.1)">
       <defs>
        <path id="DejaVuSans-32" d="M 1228 531 
L 3431 531 
L 3431 0 
L 469 0 
L 469 531 
Q 828 903 1448 1529 
Q 2069 2156 2228 2338 
Q 2531 2678 2651 2914 
Q 2772 3150 2772 3378 
Q 2772 3750 2511 3984 
Q 2250 4219 1831 4219 
Q 1534 4219 1204 4116 
Q 875 4013 500 3803 
L 500 4441 
Q 881 4594 1212 4672 
Q 1544 4750 1819 4750 
Q 2544 4750 2975 4387 
Q 3406 4025 3406 3419 
Q 3406 3131 3298 2873 
Q 3191 2616 2906 2266 
Q 2828 2175 2409 1742 
Q 1991 1309 1228 531 
z
" transform="scale(0.015625)"/>
        <path id="DejaVuSans-30" d="M 2034 4250 
Q 1547 4250 1301 3770 
Q 1056 3291 1056 2328 
Q 1056 1369 1301 889 
Q 1547 409 2034 409 
Q 2525 409 2770 889 
Q 3016 1369 3016 2328 
Q 3016 3291 2770 3770 
Q 2525 4250 2034 4250 
z
M 2034 4750 
Q 2819 4750 3233 4129 
Q 3647 3509 3647 2328 
Q 3647 1150 3233 529 
Q 2819 -91 2034 -91 
Q 1250 -91 836 529 
Q 422 1150 422 2328 
Q 422 3509 836 4129 
Q 1250 4750 2034 4750 
z
" transform="scale(0.015625)"/>
       </defs>
       <use xlink:href="#DejaVuSans-32"/>
       <use xlink:href="#DejaVuSans-30" transform="translate(63.623047 0)"/>
       <use xlink:href="#DejaVuSans-32" transform="translate(127.246094 0)"/>
       <use xlink:href="#DejaVuSans-30" transform="translate(190.869141 0)"/>
      </g>
     </g>
    </g>
    <g id="xtick_2">
     <g id="line2d_2">
      <g>
       <use xlink:href="#mbbbc027833" x="211.254204" y="224.28" style="stroke: #000000; stroke-width: 0.8"/>
      </g>
     </g>
     <g id="text_2">
      <!-- 2021 -->
      <g transform="translate(198.529204 238.878438) scale(0.1 -0.1)">
       <defs>
        <path id="DejaVuSans-31" d="M 794 531 
L 1825 531 
L 1825 4091 
L 703 3866 
L 703 4441 
L 1819 4666 
L 2450 4666 
L 2450 531 
L 3481 531 
L 3481 0 
L 794 0 
L 794 531 
z
" transform="scale(0.015625)"/>
       </defs>
       <use xlink:href="#DejaVuSans-32"/>
       <use xlink:href="#DejaVuSans-30" transform="translate(63.623047 0)"/>
       <use xlink:href="#DejaVuSans-32" transform="translate(127.246094 0)"/>
       <use xlink:href="#DejaVuSans-31" transform="translate(190.869141 0)"/>
      </g>
     </g>
    </g>
    <g id="xtick_3">
     <g id="line2d_3">
      <g>
       <use xlink:href="#mbbbc027833" x="306.601077" y="224.28" style="stroke: #000000; stroke-width: 0.8"/>
      </g>
     </g>
     <g id="text_3">
      <!-- 2022 -->
      <g transform="translate(293.876077 238.878438) scale(0.1 -0.1)">
       <use xlink:href="#DejaVuSans-32"/>
       <use xlink:href="#DejaVuSans-30" transform="translate(63.623047 0)"/>
       <use xlink:href="#DejaVuSans-32" transform="translate(127.246094 0)"/>
       <use xlink:href="#DejaVuSans-32" transform="translate(190.869141 0)"/>
      </g>
     </g>
    </g>
    <g id="xtick_4">
     <g id="line2d_4">
      <g>
       <use xlink:href="#mbbbc027833" x="401.947949" y="224.28" style="stroke: #000000; stroke-width: 0.8"/>
      </g>
     </g>
     <g id="text_4">
      <!-- 2023 -->
      <g transform="translate(389.222949 238.878438) scale(0.1 -0.1)">
       <defs>
        <path id="DejaVuSans-33" d="M 2597 2516 
Q 3050 2419 3304 2112 
Q 3559 1806 3559 1356 
Q 3559 666 3084 287 
Q 2609 -91 1734 -91 
Q 1441 -91 1130 -33 
Q 819 25 488 141 
L 488 750 
Q 750 597 1062 519 
Q 1375 441 1716 441 
Q 2309 441 2620 675 
Q 2931 909 2931 1356 
Q 2931 1769 2642 2001 
Q 2353 2234 1838 2234 
L 1294 2234 
L 1294 2753 
L 1863 2753 
Q 2328 2753 2575 2939 
Q 2822 3125 2822 3475 
Q 2822 3834 2567 4026 
Q 2313 4219 1838 4219 
Q 1578 4219 1281 4162 
Q 984 4106 628 3988 
L 628 4550 
Q 988 4650 1302 4700 
Q 1616 4750 1894 4750 
Q 2613 4750 3031 4423 
Q 3450 4097 3450 3541 
Q 3450 3153 3228 2886 
Q 3006 2619 2597 2516 
z
" transform="scale(0.015625)"/>
       </defs>
       <use xlink:href="#DejaVuSans-32"/>
       <use xlink:href="#DejaVuSans-30" transform="translate(63.623047 0)"/>
       <use xlink:href="#DejaVuSans-32" transform="translate(127.246094 0)"/>
       <use xlink:href="#DejaVuSans-33" transform="translate(190.869141 0)"/>
      </g>
     </g>
    </g>
    <g id="xtick_5">
     <g id="line2d_5">
      <g>
       <use xlink:href="#mbbbc027833" x="497.294821" y="224.28" style="stroke: #000000; stroke-width: 0.8"/>
      </g>
     </g>
     <g id="text_5">
      <!-- 2024 -->
      <g transform="translate(484.569821 238.878438) scale(0.1 -0.1)">
       <defs>
        <path id="DejaVuSans-34" d="M 2419 4116 
L 825 1625 
L 2419 1625 
L 2419 4116 
z
M 2253 4666 
L 3047 4666 
L 3047 1625 
L 3713 1625 
L 3713 1100 
L 3047 1100 
L 3047 0 
L 2419 0 
L 2419 1100 
L 313 1100 
L 313 1709 
L 2253 4666 
z
" transform="scale(0.015625)"/>
       </defs>
       <use xlink:href="#DejaVuSans-32"/>
       <use xlink:href="#DejaVuSans-30" transform="translate(63.623047 0)"/>
       <use xlink:href="#DejaVuSans-32" transform="translate(127.246094 0)"/>
       <use xlink:href="#DejaVuSans-34" transform="translate(190.869141 0)"/>
      </g>
     </g>
    </g>
    <g id="xtick_6">
     <g id="line2d_6">
      <g>
       <use xlink:href="#mbbbc027833" x="592.902918" y="224.28" style="stroke: #000000; stroke-width: 0.8"/>
      </g>
     </g>
     <g id="text_6">
      <!-- 2025 -->
      <g transform="translate(580.177918 238.878438) scale(0.1 -0.1)">
       <defs>
        <path id="DejaVuSans-35" d="M 691 4666 
L 3169 4666 
L 3169 4134 
L 1269 4134 
L 1269 2991 
Q 1406 3038 1543 3061 
Q 1681 3084 1819 3084 
Q 2600 3084 3056 2656 
Q 3513 2228 3513 1497 
Q 3513 744 3044 326 
Q 2575 -91 1722 -91 
Q 1428 -91 1123 -41 
Q 819 9 494 109 
L 494 744 
Q 775 591 1075 516 
Q 1375 441 1709 441 
Q 2250 441 2565 725 
Q 2881 1009 2881 1497 
Q 2881 1984 2565 2268 
Q 2250 2553 1709 2553 
Q 1456 2553 1204 2497 
Q 953 2441 691 2322 
L 691 4666 
z
" transform="scale(0.015625)"/>
       </defs>
       <use xlink:href="#DejaVuSans-32"/>
       <use xlink:href="#DejaVuSans-30" transform="translate(63.623047 0)"/>
       <use xlink:href="#DejaVuSans-32" transform="translate(127.246094 0)"/>
       <use xlink:href="#DejaVuSans-35" transform="translate(190.869141 0)"/>
      </g>
     </g>
    </g>
   </g>
   <g id="matplotlib.axis_2">
    <g id="ytick_1">
     <g id="line2d_7">
      <defs>
       <path id="m8e6f99e0c9" d="M 0 0 
L -3.5 0 
" style="stroke: #000000; stroke-width: 0.8"/>
      </defs>
      <g>
       <use xlink:href="#m8e6f99e0c9" x="94.5" y="217.463544" style="stroke: #000000; stroke-width: 0.8"/>
      </g>
     </g>
     <g id="text_7">
      <!-- 80 -->
      <g transform="translate(74.775 221.262763) scale(0.1 -0.1)">
       <defs>
        <path id="DejaVuSans-38" d="M 2034 2216 
Q 1584 2216 1326 1975 
Q 1069 1734 1069 1313 
Q 1069 891 1326 650 
Q 1584 409 2034 409 
Q 2484 409 2743 651 
Q 3003 894 3003 1313 
Q 3003 1734 2745 1975 
Q 2488 2216 2034 2216 
z
M 1403 2484 
Q 997 2584 770 2862 
Q 544 3141 544 3541 
Q 544 4100 942 4425 
Q 1341 4750 2034 4750 
Q 2731 4750 3128 4425 
Q 3525 4100 3525 3541 
Q 3525 3141 3298 2862 
Q 3072 2584 2669 2484 
Q 3125 2378 3379 2068 
Q 3634 1759 3634 1313 
Q 3634 634 3220 271 
Q 2806 -91 2034 -91 
Q 1263 -91 848 271 
Q 434 634 434 1313 
Q 434 1759 690 2068 
Q 947 2378 1403 2484 
z
M 1172 3481 
Q 1172 3119 1398 2916 
Q 1625 2713 2034 2713 
Q 2441 2713 2670 2916 
Q 2900 3119 2900 3481 
Q 2900 3844 2670 4047 
Q 2441 4250 2034 4250 
Q 1625 4250 1398 4047 
Q 1172 3844 1172 3481 
z
" transform="scale(0.015625)"/>
       </defs>
       <use xlink:href="#DejaVuSans-38"/>
       <use xlink:href="#DejaVuSans-30" transform="translate(63.623047 0)"/>
      </g>
     </g>
    </g>
    <g id="ytick_2">
     <g id="line2d_8">
      <g>
       <use xlink:href="#m8e6f99e0c9" x="94.5" y="195.44657" style="stroke: #000000; stroke-width: 0.8"/>
      </g>
     </g>
     <g id="text_8">
      <!-- 100 -->
      <g transform="translate(68.4125 199.245788) scale(0.1 -0.1)">
       <use xlink:href="#DejaVuSans-31"/>
       <use xlink:href="#DejaVuSans-30" transform="translate(63.623047 0)"/>
       <use xlink:href="#DejaVuSans-30" transform="translate(127.246094 0)"/>
      </g>
     </g>
    </g>
    <g id="ytick_3">
     <g id="line2d_9">
      <g>
       <use xlink:href="#m8e6f99e0c9" x="94.5" y="173.429595" style="stroke: #000000; stroke-width: 0.8"/>
      </g>
     </g>
     <g id="text_9">
      <!-- 120 -->
      <g transform="translate(68.4125 177.228813) scale(0.1 -0.1)">
       <use xlink:href="#DejaVuSans-31"/>
       <use xlink:href="#DejaVuSans-32" transform="translate(63.623047 0)"/>
       <use xlink:href="#DejaVuSans-30" transform="translate(127.246094 0)"/>
      </g>
     </g>
    </g>
    <g id="ytick_4">
     <g id="line2d_10">
      <g>
       <use xlink:href="#m8e6f99e0c9" x="94.5" y="151.41262" style="stroke: #000000; stroke-width: 0.8"/>
      </g>
     </g>
     <g id="text_10">
      <!-- 140 -->
      <g transform="translate(68.4125 155.211839) scale(0.1 -0.1)">
       <use xlink:href="#DejaVuSans-31"/>
       <use xlink:href="#DejaVuSans-34" transform="translate(63.623047 0)"/>
       <use xlink:href="#DejaVuSans-30" transform="translate(127.246094 0)"/>
      </g>
     </g>
    </g>
    <g id="ytick_5">
     <g id="line2d_11">
      <g>
       <use xlink:href="#m8e6f99e0c9" x="94.5" y="129.395645" style="stroke: #000000; stroke-width: 0.8"/>
      </g>
     </g>
     <g id="text_11">
      <!-- 160 -->
      <g transform="translate(68.4125 133.194864) scale(0.1 -0.1)">
       <defs>
        <path id="DejaVuSans-36" d="M 2113 2584 
Q 1688 2584 1439 2293 
Q 1191 2003 1191 1497 
Q 1191 994 1439 701 
Q 1688 409 2113 409 
Q 2538 409 2786 701 
Q 3034 994 3034 1497 
Q 3034 2003 2786 2293 
Q 2538 2584 2113 2584 
z
M 3366 4563 
L 3366 3988 
Q 3128 4100 2886 4159 
Q 2644 4219 2406 4219 
Q 1781 4219 1451 3797 
Q 1122 3375 1075 2522 
Q 1259 2794 1537 2939 
Q 1816 3084 2150 3084 
Q 2853 3084 3261 2657 
Q 3669 2231 3669 1497 
Q 3669 778 3244 343 
Q 2819 -91 2113 -91 
Q 1303 -91 875 529 
Q 447 1150 447 2328 
Q 447 3434 972 4092 
Q 1497 4750 2381 4750 
Q 2619 4750 2861 4703 
Q 3103 4656 3366 4563 
z
" transform="scale(0.015625)"/>
       </defs>
       <use xlink:href="#DejaVuSans-31"/>
       <use xlink:href="#DejaVuSans-36" transform="translate(63.623047 0)"/>
       <use xlink:href="#DejaVuSans-30" transform="translate(127.246094 0)"/>
      </g>
     </g>
    </g>
    <g id="ytick_6">
     <g id="line2d_12">
      <g>
       <use xlink:href="#m8e6f99e0c9" x="94.5" y="107.37867" style="stroke: #000000; stroke-width: 0.8"/>
      </g>
     </g>
     <g id="text_12">
      <!-- 180 -->
      <g transform="translate(68.4125 111.177889) scale(0.1 -0.1)">
       <use xlink:href="#DejaVuSans-31"/>
       <use xlink:href="#DejaVuSans-38" transform="translate(63.623047 0)"/>
       <use xlink:href="#DejaVuSans-30" transform="translate(127.246094 0)"/>
      </g>
     </g>
    </g>
    <g id="ytick_7">
     <g id="line2d_13">
      <g>
       <use xlink:href="#m8e6f99e0c9" x="94.5" y="85.361695" style="stroke: #000000; stroke-width: 0.8"/>
      </g>
     </g>
     <g id="text_13">
      <!-- 200 -->
      <g transform="translate(68.4125 89.160914) scale(0.1 -0.1)">
       <use xlink:href="#DejaVuSans-32"/>
       <use xlink:href="#DejaVuSans-30" transform="translate(63.623047 0)"/>
       <use xlink:href="#DejaVuSans-30" transform="translate(127.246094 0)"/>
      </g>
     </g>
    </g>
    <g id="ytick_8">
     <g id="line2d_14">
      <g>
       <use xlink:href="#m8e6f99e0c9" x="94.5" y="63.344721" style="stroke: #000000; stroke-width: 0.8"/>
      </g>
     </g>
     <g id="text_14">
      <!-- 220 -->
      <g transform="translate(68.4125 67.143939) scale(0.1 -0.1)">
       <use xlink:href="#DejaVuSans-32"/>
       <use xlink:href="#DejaVuSans-32" transform="translate(63.623047 0)"/>
       <use xlink:href="#DejaVuSans-30" transform="translate(127.246094 0)"/>
      </g>
     </g>
    </g>
    <g id="ytick_9">
     <g id="line2d_15">
      <g>
       <use xlink:href="#m8e6f99e0c9" x="94.5" y="41.327746" style="stroke: #000000; stroke-width: 0.8"/>
      </g>
     </g>
     <g id="text_15">
      <!-- 240 -->
      <g transform="translate(68.4125 45.126964) scale(0.1 -0.1)">
       <use xlink:href="#DejaVuSans-32"/>
       <use xlink:href="#DejaVuSans-34" transform="translate(63.623047 0)"/>
       <use xlink:href="#DejaVuSans-30" transform="translate(127.246094 0)"/>
      </g>
     </g>
    </g>
   </g>
   <g id="line2d_16">
    <path d="M 121.131818 201.641044 
L 121.393042 201.799572 
L 121.654267 203.06224 
L 122.43794 204.895154 
L 122.699164 203.524049 
L 122.960388 203.262594 
L 123.221613 202.564661 
L 123.482837 194.966603 
L 124.26651 195.215392 
L 124.527734 192.712614 
L 124.788958 193.252028 
L 125.050183 192.681791 
L 125.311407 191.082809 
L 126.356304 187.146169 
L 126.617529 186.63978 
L 126.878753 187.19736 
L 127.139977 188.022996 
L 128.184874 186.878113 
L 128.446099 186.077244 
L 128.707323 187.019574 
L 128.968547 190.164147 
L 130.013445 196.947025 
L 130.274669 196.569986 
L 130.535893 201.814984 
L 130.797118 201.845253 
L 131.58079 197.981271 
L 131.842015 200.455981 
L 132.103239 196.776949 
L 132.364463 199.628144 
L 132.625688 200.890821 
L 133.409361 206.421479 
L 133.670585 201.401057 
L 133.931809 205.306873 
L 134.193034 213.246746 
L 134.454258 207.280694 
L 135.237931 212.556515 
L 135.499155 206.023526 
L 135.760379 204.803784 
L 136.021604 202.000471 
L 136.282828 203.918155 
L 137.066501 200.795041 
L 137.327725 198.743615 
L 137.58895 201.730214 
L 137.850174 197.896511 
L 138.111398 200.945312 
L 138.895071 197.430847 
L 139.156295 198.214103 
L 139.41752 200.526984 
L 139.678744 199.914367 
L 139.939968 200.588085 
L 140.723641 195.57922 
L 140.984866 194.808075 
L 141.24609 193.079743 
L 141.507314 193.092954 
L 142.552211 186.151557 
L 142.813436 179.851946 
L 143.07466 178.51111 
L 143.335884 172.978797 
L 143.597109 174.805656 
L 144.380782 173.78132 
L 144.642006 177.386047 
L 145.164455 173.459864 
L 145.425679 172.867059 
L 146.209352 174.75061 
L 146.470576 178.158838 
L 146.7318 174.931705 
L 146.993025 169.356458 
L 147.254249 179.702229 
L 148.037922 178.05371 
L 148.299146 177.954084 
L 148.560371 176.112359 
L 149.082819 174.551911 
L 149.866492 172.934216 
L 150.127716 175.799168 
L 150.388941 175.195352 
L 150.911389 172.891281 
L 151.695062 171.984176 
L 151.956287 170.714352 
L 152.217511 168.038735 
L 152.478735 170.856913 
L 152.739959 171.399628 
L 153.784857 172.226364 
L 154.307305 173.369048 
L 154.56853 171.097447 
L 155.352203 169.519378 
L 155.613427 169.443973 
L 155.874651 169.11427 
L 156.135875 170.094024 
L 156.3971 168.861071 
L 157.180773 166.601027 
L 157.703221 159.809346 
L 157.964446 164.735088 
L 158.22567 165.447341 
L 159.009343 163.924864 
L 159.531791 160.165473 
L 159.793016 159.449911 
L 160.05424 158.29237 
L 160.837913 156.156183 
L 161.099137 153.371575 
L 161.360362 155.023402 
L 161.621586 153.912643 
L 161.88281 157.309323 
L 162.666483 157.996799 
L 162.927707 153.679274 
L 163.188932 147.080783 
L 163.450156 146.442288 
L 164.495053 137.264506 
L 164.756278 140.397531 
L 165.278726 130.351732 
L 165.539951 129.395645 
L 166.584848 135.780571 
L 166.846072 139.91591 
L 167.107296 140.409642 
L 167.368521 142.497401 
L 168.152194 129.569584 
L 168.674642 134.904844 
L 168.935867 141.144454 
L 169.197091 139.913709 
L 169.980764 137.365242 
L 170.241988 140.385974 
L 170.503212 138.558561 
L 170.764437 137.548537 
L 171.025661 131.339751 
L 171.809334 134.245437 
L 172.070558 132.762593 
L 172.331783 129.118787 
L 172.593007 128.019584 
L 172.854231 131.186725 
L 173.637904 132.24904 
L 173.899128 135.963867 
L 174.160353 131.474048 
L 174.421577 131.541205 
L 174.682801 132.25675 
L 175.466474 130.363843 
L 175.727699 123.203925 
L 175.988923 126.066676 
L 176.250147 124.036163 
L 176.511371 124.732458 
L 177.295044 123.480784 
L 177.556269 121.332486 
L 177.817493 116.083633 
L 178.078717 118.387158 
L 178.339942 118.288085 
L 179.123615 115.58219 
L 179.646063 111.151835 
L 179.907287 120.148522 
L 180.168512 124.187527 
L 181.213409 132.156569 
L 181.474633 125.619188 
L 181.997082 134.007095 
L 182.780755 134.736414 
L 183.041979 131.810353 
L 183.825652 142.885997 
L 184.609325 142.579962 
L 184.870549 133.304216 
L 185.131774 140.411843 
L 185.392998 139.31484 
L 185.654222 135.167945 
L 186.437895 130.823997 
L 186.699119 132.429581 
L 186.960344 132.217679 
L 187.221568 128.225439 
L 187.482792 133.523828 
L 188.266465 129.439672 
L 188.52769 134.902089 
L 188.788914 129.632878 
L 189.050138 129.9158 
L 189.311363 124.626213 
L 190.095035 116.024186 
L 190.35626 115.985652 
L 190.617484 120.384646 
L 190.878708 121.764017 
L 191.139933 125.393512 
L 191.923606 128.998785 
L 192.18483 128.459379 
L 192.446054 130.224591 
L 192.707279 130.694638 
L 192.968503 129.153457 
L 193.752176 129.008141 
L 194.0134 124.643834 
L 194.274624 131.444316 
L 194.535849 128.789621 
L 194.797073 138.414354 
L 195.580746 140.157543 
L 195.84197 137.739526 
L 196.103195 127.1301 
L 196.364419 122.680461 
L 196.625643 123.265572 
L 197.409316 132.492336 
L 197.67054 138.476539 
L 197.931765 132.841845 
L 198.192989 134.334044 
L 198.454213 133.31411 
L 199.237886 133.190278 
L 199.499111 132.93707 
L 199.760335 134.599363 
L 200.021559 133.963069 
L 200.282783 134.932913 
L 201.066456 134.988513 
L 201.327681 133.905822 
L 201.588905 130.217435 
L 202.111354 129.652145 
L 202.895027 131.154809 
L 203.156251 128.290395 
L 203.678699 130.126056 
L 203.939924 131.455335 
L 204.723597 131.707434 
L 204.984821 130.645657 
L 205.246045 134.668703 
L 205.50727 134.817883 
L 206.552167 131.764126 
L 206.813391 131.315529 
L 207.074615 127.141102 
L 207.33584 127.409713 
L 207.597064 129.30482 
L 208.641961 129.036764 
L 209.16441 130.898847 
L 210.470531 122.680461 
L 210.99298 126.262083 
L 212.037877 130.131566 
L 212.299102 128.376802 
L 212.560326 132.787353 
L 213.082775 130.347885 
L 213.866447 134.117741 
L 214.127672 133.75335 
L 214.388896 131.273148 
L 214.911345 134.665965 
L 215.956242 133.757214 
L 216.217466 125.907048 
L 216.478691 123.506652 
L 216.739915 124.319086 
L 217.523588 124.221659 
L 217.784812 122.453139 
L 218.046036 127.602365 
L 218.307261 127.324952 
L 218.568485 129.054385 
L 219.613382 119.488006 
L 219.874607 123.201725 
L 220.397055 121.02094 
L 221.180728 122.628724 
L 221.964401 125.975851 
L 222.225625 125.118299 
L 223.270523 125.600475 
L 223.531747 123.415827 
L 223.792971 122.337554 
L 224.054195 126.649033 
L 224.837868 130.45576 
L 225.099093 129.698372 
L 225.360317 131.623211 
L 225.621541 137.257905 
L 225.882766 135.289039 
L 226.666439 132.360223 
L 226.927663 135.200969 
L 227.188887 140.12892 
L 227.450111 141.638741 
L 227.711336 140.378818 
L 228.495009 143.048918 
L 228.756233 136.944713 
L 229.017457 137.231482 
L 229.278682 134.151857 
L 229.539906 135.478382 
L 230.323579 135.908267 
L 230.584803 135.347932 
L 230.846027 132.933224 
L 231.107252 138.863488 
L 231.368476 136.27815 
L 232.152149 134.301574 
L 232.413373 132.835797 
L 232.935822 137.857865 
L 233.197046 137.540273 
L 233.980719 136.23577 
L 234.241943 137.360841 
L 234.503168 135.225746 
L 234.764392 131.542297 
L 235.809289 127.924358 
L 236.070514 128.084541 
L 236.331738 125.025829 
L 236.592962 123.929935 
L 236.854187 119.917337 
L 237.637859 119.521585 
L 237.899084 118.387158 
L 238.160308 122.075008 
L 238.421532 119.538097 
L 238.682757 118.417981 
L 239.46643 119.927802 
L 239.727654 121.981982 
L 239.988878 120.477672 
L 240.250103 123.393822 
L 240.511327 121.64126 
L 241.295 117.891779 
L 241.556224 117.427762 
L 241.817448 115.167172 
L 242.078673 114.462075 
L 242.339897 114.676194 
L 243.12357 119.130788 
L 243.384794 123.238041 
L 243.646019 125.512959 
L 243.907243 123.540785 
L 244.168467 124.353201 
L 244.95214 129.919092 
L 245.213364 128.079585 
L 245.474589 132.040984 
L 245.735813 131.516428 
L 245.997037 128.135169 
L 246.78071 125.521207 
L 247.041935 127.618877 
L 247.303159 127.6453 
L 247.564383 126.771219 
L 247.825607 129.226107 
L 248.870505 126.14539 
L 249.131729 125.809085 
L 249.392953 127.738325 
L 249.654178 128.125812 
L 250.699075 128.369109 
L 250.960299 127.52476 
L 251.221523 130.110652 
L 251.482748 129.053276 
L 252.266421 129.505182 
L 252.527645 125.866868 
L 252.788869 124.928957 
L 253.050094 121.158546 
L 253.311318 121.313756 
L 254.094991 119.274996 
L 254.356215 119.31573 
L 254.617439 117.547764 
L 254.878664 113.475164 
L 255.139888 113.603969 
L 255.923561 115.41707 
L 256.184785 112.58348 
L 256.44601 112.672658 
L 256.968458 118.306798 
L 257.752131 115.971341 
L 258.013355 115.737417 
L 258.535804 116.57241 
L 258.797028 112.278552 
L 259.841926 103.209753 
L 260.10315 102.062677 
L 260.364374 100.145548 
L 260.625599 100.809911 
L 261.409271 100.853383 
L 261.670496 103.120591 
L 261.93172 102.882804 
L 262.454169 108.830136 
L 263.237842 110.153351 
L 263.499066 108.854358 
L 263.76029 108.193304 
L 264.021515 105.285401 
L 264.282739 104.261066 
L 265.066412 101.884337 
L 265.327636 105.926096 
L 265.58886 105.709776 
L 265.850085 107.383071 
L 266.111309 122.372779 
L 266.894982 122.15866 
L 267.156206 120.245394 
L 267.417431 120.879488 
L 267.678655 119.708727 
L 267.939879 121.417801 
L 268.723552 121.586768 
L 269.246001 124.325687 
L 269.507225 123.698749 
L 269.768449 124.223305 
L 270.552122 123.947001 
L 271.074571 129.328488 
L 271.335795 130.069918 
L 271.597019 129.3984 
L 272.380692 125.769997 
L 272.641917 123.573254 
L 272.903141 123.936537 
L 273.164365 123.010719 
L 273.42559 121.159638 
L 274.209263 117.199885 
L 274.470487 114.490698 
L 274.731711 114.038808 
L 274.992935 114.912873 
L 275.25416 114.091099 
L 276.299057 112.371578 
L 276.560281 111.479338 
L 276.821506 113.754794 
L 277.08273 114.580968 
L 277.866403 115.240376 
L 278.127627 115.635036 
L 278.388851 114.215486 
L 278.650076 113.53021 
L 278.9113 114.945897 
L 279.694973 120.823887 
L 279.956197 121.489896 
L 280.478646 117.506475 
L 280.73987 116.982474 
L 281.523543 118.067919 
L 281.784767 123.012919 
L 282.307216 124.714837 
L 282.56844 124.812818 
L 283.352113 129.958181 
L 283.874562 125.98247 
L 284.135786 123.757642 
L 285.180683 126.847178 
L 285.441908 126.790486 
L 285.703132 124.756663 
L 285.964356 123.899111 
L 286.225581 117.89067 
L 287.009254 115.814468 
L 287.270478 115.957029 
L 287.531702 117.558212 
L 287.792927 116.460118 
L 288.054151 121.934647 
L 288.837824 122.770194 
L 289.099048 119.704326 
L 289.360272 118.80053 
L 289.621497 115.823824 
L 289.882721 119.904671 
L 290.666394 122.89458 
L 290.927618 123.189614 
L 291.711291 111.837665 
L 292.494964 113.489476 
L 292.756188 108.687037 
L 293.017413 113.870933 
L 293.278637 114.396581 
L 293.539861 111.498589 
L 294.323534 110.368579 
L 294.584759 110.642683 
L 294.845983 110.185838 
L 295.107207 102.091301 
L 295.368431 103.164064 
L 296.152104 108.888491 
L 296.413329 108.477318 
L 296.674553 108.45696 
L 297.197002 112.631924 
L 297.980675 109.493944 
L 298.503123 115.980697 
L 298.764347 116.330776 
L 299.025572 118.949139 
L 299.809245 116.880646 
L 300.070469 111.60097 
L 300.331693 111.608126 
L 300.854142 115.952074 
L 301.637815 118.863269 
L 301.899039 119.387271 
L 302.160263 114.737841 
L 302.421488 119.630013 
L 302.682712 118.367891 
L 303.466385 121.602743 
L 303.727609 117.928096 
L 303.988834 117.245575 
L 304.250058 117.210904 
L 305.294955 118.750994 
L 305.556179 117.659502 
L 305.817404 119.266731 
L 306.078628 119.879357 
L 306.339852 122.001249 
L 307.123525 117.94187 
L 307.645974 124.599253 
L 308.168423 126.584076 
L 308.952096 127.759792 
L 309.21332 123.492895 
L 309.474544 123.663525 
L 309.735768 128.05921 
L 309.996993 127.04203 
L 311.04189 130.587319 
L 311.303114 133.469891 
L 311.564339 138.568472 
L 311.825563 148.503071 
L 312.609236 146.410356 
L 312.87046 151.42804 
L 313.131684 152.65383 
L 313.392909 151.811681 
L 313.654133 147.033447 
L 314.69903 139.090273 
L 314.960255 139.729859 
L 315.221479 152.683545 
L 315.482703 131.994203 
L 316.266376 131.668346 
L 316.5276 127.839598 
L 316.788825 128.086187 
L 317.050049 130.492647 
L 317.311273 136.778484 
L 318.094946 134.716039 
L 318.617395 131.486713 
L 319.139844 137.540273 
L 320.184741 140.186721 
L 320.445965 146.098828 
L 320.707189 138.909178 
L 320.968414 136.233569 
L 321.752087 136.481804 
L 322.013311 139.146965 
L 322.274535 138.144634 
L 322.53576 142.717568 
L 322.796984 145.202725 
L 323.580657 154.216478 
L 323.841881 155.800057 
L 324.103105 152.206324 
L 324.36433 143.907578 
L 325.409227 149.372751 
L 326.1929 132.43509 
L 326.454124 128.01903 
L 327.237797 127.753728 
L 327.499021 124.013587 
L 327.760246 125.643947 
L 328.02147 125.378091 
L 328.282694 124.140745 
L 329.066367 119.498471 
L 329.327592 119.141236 
L 329.85004 126.095854 
L 330.111264 125.476626 
L 330.894937 120.207415 
L 331.417386 130.765105 
L 331.67861 131.834575 
L 331.939835 135.493802 
L 332.723508 139.168987 
L 332.984732 139.537207 
L 333.245956 134.304329 
L 333.50718 138.525537 
L 334.552078 137.338265 
L 334.813302 131.470201 
L 335.596975 146.623921 
L 336.380648 144.726059 
L 336.641872 152.08303 
L 336.903096 153.430467 
L 337.164321 146.352572 
L 337.425545 168.716309 
L 338.209218 168.475775 
L 338.470442 168.747133 
L 338.731667 166.903216 
L 338.992891 177.384947 
L 339.254115 179.184283 
L 340.037788 185.771208 
L 340.299012 185.694149 
L 340.560237 189.532808 
L 340.821461 187.817142 
L 341.082685 181.074989 
L 341.866358 183.545843 
L 342.127583 178.528176 
L 342.388807 187.61678 
L 342.911256 187.090023 
L 343.694928 187.127456 
L 343.956153 190.933091 
L 344.217377 187.988318 
L 344.739826 178.772564 
L 346.045947 171.575768 
L 346.307172 167.362816 
L 346.568396 170.842602 
L 347.352069 168.156528 
L 347.874517 172.130593 
L 348.396966 184.823378 
L 349.441863 192.903612 
L 349.703088 187.003062 
L 349.964312 191.417459 
L 350.225536 188.599289 
L 351.270433 185.891202 
L 351.531658 185.593977 
L 352.054106 177.3266 
L 352.837779 180.893348 
L 353.099004 187.300287 
L 353.360228 185.627001 
L 353.621452 188.6103 
L 353.882676 184.922458 
L 355.188798 179.671405 
L 355.450022 177.469708 
L 355.711247 178.339379 
L 356.49492 182.511597 
L 356.756144 185.296743 
L 357.017368 183.997741 
L 357.278592 183.74455 
L 357.539817 180.530066 
L 358.32349 180.298889 
L 358.845938 170.380247 
L 359.107163 168.332668 
L 359.368387 170.765543 
L 360.15206 172.174628 
L 360.413284 179.143002 
L 360.674508 172.36177 
L 360.935733 170.919661 
L 361.196957 156.971909 
L 361.98063 156.487533 
L 362.241854 157.841572 
L 362.503079 151.941023 
L 362.764303 148.583431 
L 363.025527 150.531938 
L 363.8092 152.062117 
L 364.070424 153.80146 
L 364.331649 148.451334 
L 364.592873 150.708077 
L 364.854097 147.504603 
L 365.63777 147.911929 
L 365.898995 146.150564 
L 366.160219 149.100831 
L 366.421443 148.880664 
L 366.682668 153.361127 
L 367.46634 158.876373 
L 367.727565 158.43604 
L 367.988789 158.237879 
L 368.250013 154.40693 
L 368.511238 161.595471 
L 369.294911 162.652293 
L 369.556135 163.81919 
L 369.817359 165.976852 
L 370.078584 164.820958 
L 371.384705 166.703408 
L 371.645929 162.993553 
L 371.907154 162.619252 
L 372.168378 158.821327 
L 372.952051 155.320636 
L 373.213275 165.921807 
L 373.4745 164.017335 
L 373.996948 169.5436 
L 374.780621 168.299636 
L 375.041845 171.018733 
L 375.30307 175.036833 
L 375.564294 176.390881 
L 375.825518 180.276875 
L 376.609191 178.768709 
L 376.870416 179.583335 
L 377.13164 175.620281 
L 377.392864 179.154005 
L 377.654088 181.135536 
L 378.437761 177.965095 
L 378.698986 172.229674 
L 378.96021 172.383792 
L 379.221434 173.099337 
L 379.482659 179.418215 
L 380.266332 180.397969 
L 380.527556 182.005207 
L 380.78878 181.245619 
L 381.050004 181.652936 
L 381.311229 187.850712 
L 382.356126 177.436683 
L 382.61735 178.856779 
L 382.878575 178.658626 
L 383.139799 174.178172 
L 383.923472 173.627748 
L 384.184696 172.769087 
L 384.707145 183.381268 
L 384.968369 191.692671 
L 385.752042 192.760496 
L 386.274491 204.121255 
L 386.535715 207.225648 
L 386.796939 205.376221 
L 387.580612 205.871608 
L 387.841836 206.47707 
L 388.103061 210.704334 
L 388.364285 199.156433 
L 388.625509 194.576898 
L 389.409182 197.108853 
L 389.670407 196.613467 
L 390.45408 201.897544 
L 391.237752 203.74697 
L 391.760201 201.908555 
L 392.28265 202.701159 
L 393.066323 202.106708 
L 393.327547 203.791005 
L 393.588771 199.255505 
L 394.894893 205.343197 
L 395.156117 208.381542 
L 395.417341 208.150365 
L 395.678566 206.069762 
L 395.93979 207.456833 
L 396.723463 205.849587 
L 396.984687 203.713946 
L 397.245912 204.715714 
L 397.507136 208.161376 
L 397.76836 208.810873 
L 398.552033 212.047371 
L 398.813257 211.750137 
L 399.074482 210.010802 
L 399.335706 213.291327 
L 399.59693 211.684088 
L 400.641828 214.116963 
L 400.903052 215.46 
L 401.164276 212.861996 
L 401.4255 213.060149 
L 402.470398 211.056605 
L 402.731622 211.805183 
L 402.992846 214.028893 
L 403.254071 210.770382 
L 404.037744 209.361297 
L 404.298968 206.598164 
L 404.560192 200.851741 
L 404.821416 200.653588 
L 405.082641 197.516162 
L 406.388762 200.444424 
L 406.649987 202.403933 
L 406.911211 198.473904 
L 407.694884 198.176678 
L 407.956108 199.497693 
L 408.217332 198.550963 
L 408.478557 196.30523 
L 408.739781 192.980671 
L 409.523454 194.841099 
L 410.045903 189.777197 
L 410.307127 181.234608 
L 410.568351 191.714693 
L 411.352024 193.046719 
L 411.613248 193.123778 
L 412.135697 197.384066 
L 412.396921 198.077597 
L 413.180594 195.952959 
L 413.441819 195.776828 
L 413.703043 194.169581 
L 413.964267 197.483138 
L 414.225492 198.528949 
L 415.270389 201.413168 
L 415.531613 200.081142 
L 415.792837 200.048118 
L 416.054062 202.602086 
L 416.837735 202.315863 
L 417.098959 201.798463 
L 417.360183 204.066217 
L 417.621408 204.110252 
L 417.882632 201.060896 
L 418.927529 202.547041 
L 419.188753 202.139732 
L 419.711202 205.651434 
L 420.494875 203.779994 
L 420.756099 201.082918 
L 421.017324 199.629798 
L 421.278548 195.402535 
L 421.539772 196.602464 
L 422.323445 197.967514 
L 422.584669 194.775051 
L 422.845894 196.877676 
L 423.107118 196.866665 
L 423.368342 197.50516 
L 424.152015 197.604232 
L 424.41324 198.484914 
L 424.935688 193.244872 
L 425.196912 191.824776 
L 425.980585 192.79352 
L 426.24181 191.09822 
L 426.503034 194.235638 
L 426.764258 193.178824 
L 427.809156 193.05773 
L 428.331604 197.835409 
L 428.592828 192.804531 
L 429.637726 192.430246 
L 429.89895 192.914614 
L 430.160174 190.712917 
L 430.421399 191.252339 
L 430.682623 187.784663 
L 431.466296 188.6103 
L 431.72752 192.617389 
L 431.988744 189.964339 
L 432.249969 184.636235 
L 432.511193 189.446947 
L 433.294866 193.189826 
L 433.55609 191.450492 
L 433.817315 191.42847 
L 434.078539 191.043175 
L 434.339763 189.215762 
L 435.123436 189.028619 
L 435.38466 188.158948 
L 435.645885 184.228918 
L 435.907109 182.038232 
L 436.168333 184.151859 
L 436.952006 183.117067 
L 437.735679 175.466163 
L 437.996904 177.557777 
L 438.780576 178.922828 
L 439.041801 178.944849 
L 439.303025 177.007353 
L 439.564249 178.933838 
L 439.825474 173.308501 
L 440.870371 171.602182 
L 441.131595 172.7911 
L 441.654044 168.750988 
L 442.437717 167.595093 
L 442.698941 166.152984 
L 442.960165 172.075547 
L 443.22139 168.750988 
L 443.482614 169.653683 
L 444.266287 166.197019 
L 444.527511 166.097938 
L 444.788736 166.362148 
L 445.04996 165.602559 
L 445.311184 167.385937 
L 446.356081 167.06669 
L 446.617306 168.112493 
L 446.87853 162.255987 
L 447.139754 163.158674 
L 447.923427 165.360371 
L 448.184652 163.323811 
L 448.445876 163.477929 
L 448.7071 164.732888 
L 448.968324 162.024801 
L 449.751997 162.178919 
L 450.274446 162.002779 
L 450.53567 164.226499 
L 450.796895 162.663295 
L 451.580568 165.580546 
L 452.103016 161.540425 
L 452.36424 157.687454 
L 452.625465 157.269143 
L 453.409138 158.502088 
L 453.670362 159.305703 
L 453.931586 156.520557 
L 454.192811 162.465134 
L 454.454035 162.421107 
L 455.237708 163.742122 
L 455.498932 163.37884 
L 455.760156 164.457684 
L 456.021381 164.347593 
L 456.282605 159.988224 
L 457.066278 158.369992 
L 457.327502 160.56067 
L 457.588727 164.391619 
L 457.849951 163.621028 
L 458.111175 151.885977 
L 458.894848 148.968734 
L 459.417297 153.779438 
L 459.678521 152.997845 
L 459.939745 153.162965 
L 460.723418 150.785128 
L 461.245867 156.839796 
L 461.768316 158.876373 
L 462.551988 157.269143 
L 462.813213 157.7425 
L 463.074437 156.344418 
L 463.335661 160.39555 
L 463.596886 158.832346 
L 464.380559 158.964443 
L 464.641783 157.015936 
L 464.903007 156.839796 
L 465.164232 153.603315 
L 465.425456 153.482221 
L 466.470353 154.417932 
L 466.731577 156.520557 
L 466.992802 153.779438 
L 467.254026 153.361127 
L 468.037699 147.999982 
L 468.298923 150.058581 
L 468.560148 146.073497 
L 468.821372 146.216612 
L 469.082596 150.98329 
L 469.866269 151.434642 
L 470.388718 156.597625 
L 470.649942 163.158674 
L 470.911166 163.38986 
L 471.694839 161.023025 
L 471.956064 166.846516 
L 472.478512 166.846516 
L 472.739737 165.591549 
L 473.523409 163.015558 
L 473.784634 168.233587 
L 474.045858 165.723654 
L 474.307082 166.868537 
L 474.568307 164.66684 
L 475.35198 164.33659 
L 475.613204 162.993553 
L 475.874428 160.406552 
L 476.135653 159.856128 
L 476.396877 162.652293 
L 477.18055 159.61394 
L 477.441774 160.802858 
L 477.702998 164.479689 
L 477.964223 164.182472 
L 478.225447 167.738209 
L 479.00912 166.20803 
L 479.270344 164.006332 
L 479.531569 171.899416 
L 479.792793 173.90296 
L 480.054017 164.909028 
L 480.83769 159.4378 
L 481.098914 159.019489 
L 481.360139 154.715166 
L 481.621363 153.53725 
L 481.882587 152.953801 
L 482.66626 151.698835 
L 482.927485 148.429312 
L 483.188709 149.122852 
L 483.449933 150.752104 
L 483.711157 147.493601 
L 484.49483 148.561426 
L 484.756055 145.027694 
L 485.017279 147.889907 
L 485.278503 148.297216 
L 485.539728 145.710231 
L 486.323401 144.664412 
L 486.584625 147.119317 
L 486.845849 144.025917 
L 487.368298 143.992893 
L 488.151971 142.903064 
L 488.674419 144.455248 
L 488.935644 144.708455 
L 489.196868 143.673655 
L 489.980541 146.084516 
L 490.241765 143.838775 
L 490.502989 146.436779 
L 490.764214 143.838775 
L 491.025438 143.244324 
L 491.809111 144.928621 
L 492.33156 141.681121 
L 492.592784 143.244324 
L 492.854008 140.437157 
L 493.637681 135.92367 
L 493.898905 136.231923 
L 494.16013 138.070339 
L 494.421354 136.176877 
L 494.682578 136.639232 
L 496.249924 136.683258 
L 496.511149 138.268483 
L 497.556046 140.4812 
L 497.81727 142.08843 
L 498.078494 146.381733 
L 498.339719 145.644166 
L 499.123392 141.39489 
L 499.907065 134.701744 
L 500.168289 135.318217 
L 501.213186 136.925446 
L 501.47441 138.521674 
L 501.996859 134.525604 
L 502.780532 135.142077 
L 503.302981 132.841307 
L 503.564205 131.872555 
L 503.825429 130.364397 
L 504.609102 128.008582 
L 504.870326 130.496494 
L 505.131551 134.679722 
L 505.392775 130.188257 
L 505.653999 116.394624 
L 506.437672 118.045897 
L 506.698897 119.322886 
L 506.960121 117.803709 
L 507.221345 118.563297 
L 507.482569 113.488384 
L 508.266242 115.811176 
L 508.527467 119.884313 
L 508.788691 117.308331 
L 509.049915 118.607324 
L 509.31114 118.92658 
L 510.356037 121.601634 
L 510.617261 119.939358 
L 510.878485 113.345268 
L 511.13971 112.893916 
L 511.923383 113.180148 
L 512.184607 114.49016 
L 512.445831 114.908472 
L 512.707056 110.945426 
L 512.96828 109.33818 
L 513.751953 110.042722 
L 514.013177 113.851666 
L 514.274401 114.523185 
L 514.535626 110.879361 
L 514.79685 112.49761 
L 515.580523 116.229487 
L 515.841747 112.453584 
L 516.102972 111.165593 
L 516.364196 108.754731 
L 516.62542 113.521408 
L 517.409093 113.45536 
L 517.670317 111.892157 
L 517.931542 109.415247 
L 518.192766 109.415247 
L 518.45399 108.622635 
L 519.237663 107.697909 
L 519.498888 109.25011 
L 519.760112 107.565812 
L 520.021336 106.960342 
L 521.066233 106.310846 
L 521.327458 106.619082 
L 521.588682 104.725621 
L 521.849906 107.37867 
L 522.111131 101.797359 
L 522.894804 101.665263 
L 523.417252 100.828624 
L 523.678477 97.415986 
L 523.939701 100.630462 
L 524.723374 103.393603 
L 524.984598 103.723844 
L 525.507047 108.237331 
L 525.768271 113.290223 
L 526.551944 110.428026 
L 526.813168 107.885068 
L 527.335617 114.347045 
L 527.596841 107.796998 
L 528.380514 106.321848 
L 528.641738 112.882914 
L 528.902963 108.479519 
L 529.164187 102.182663 
L 529.425411 100.542392 
L 530.209084 97.80129 
L 530.470309 97.735241 
L 530.731533 98.57188 
L 530.992757 96.920607 
L 531.253981 99.144326 
L 532.037654 100.146086 
L 532.298879 99.595662 
L 532.560103 100.78458 
L 532.821327 103.382584 
L 533.082552 102.204684 
L 534.127449 103.911003 
L 534.388673 103.933008 
L 534.649897 106.222776 
L 534.911122 106.553034 
L 535.956019 105.011852 
L 536.217243 105.154951 
L 536.739692 111.297689 
L 537.523365 109.206083 
L 537.784589 108.105234 
L 538.045813 105.969585 
L 538.307038 101.874427 
L 538.568262 102.645017 
L 539.351935 99.606681 
L 539.613159 99.419539 
L 539.874384 99.793823 
L 540.135608 103.162418 
L 540.396832 103.34956 
L 541.180505 102.909227 
L 541.441729 104.285288 
L 541.964178 100.663486 
L 542.225402 97.382962 
L 543.009075 101.246935 
L 543.2703 100.399293 
L 543.792748 87.728513 
L 544.053973 92.792424 
L 544.837645 88.444075 
L 545.09887 85.361695 
L 545.360094 88.014745 
L 545.882543 85.361695 
L 546.666216 86.143305 
L 546.92744 86.08826 
L 547.188664 85.592881 
L 547.449889 90.810893 
L 548.494786 93.375873 
L 548.75601 93.045615 
L 549.278459 103.250487 
L 549.539683 103.933008 
L 550.323356 104.571503 
L 550.58458 100.322226 
L 550.845805 106.464964 
L 551.107029 107.543791 
L 551.368253 104.626548 
L 552.151926 103.855958 
L 552.41315 105.496211 
L 552.674375 99.694751 
L 552.935599 102.898208 
L 553.196823 120.698947 
L 553.980496 128.272775 
L 554.502945 126.346289 
L 554.764169 123.010719 
L 555.025393 121.755752 
L 555.809066 121.90987 
L 556.070291 118.133967 
L 556.331515 118.277066 
L 556.592739 110.03172 
L 556.853964 110.615168 
L 557.637637 109.33818 
L 557.898861 108.611615 
L 558.160085 107.257576 
L 558.421309 111.638949 
L 558.682534 110.63719 
L 559.466207 112.33249 
L 559.988655 117.506475 
L 560.24988 116.053364 
L 560.511104 109.029943 
L 561.556001 111.506853 
L 561.817225 114.721329 
L 562.07845 109.701462 
L 562.339674 116.856979 
L 563.123347 112.442581 
L 563.90702 99.672729 
L 564.951917 101.995521 
L 565.213141 99.804825 
L 565.474366 100.300221 
L 565.73559 96.513299 
L 565.996814 94.608818 
L 566.780487 92.098884 
L 567.041712 92.010814 
L 567.56416 95.093194 
L 567.825385 98.604904 
L 568.609057 100.410296 
L 568.870282 101.731311 
L 569.131506 102.138636 
L 569.39273 105.220999 
L 569.653955 100.212151 
L 570.437628 106.497988 
L 571.482525 97.669176 
L 572.266198 99.078278 
L 572.527422 98.913141 
L 572.788646 99.793823 
L 573.049871 99.089281 
L 573.311095 97.482034 
L 574.094768 97.393964 
L 574.355992 96.700441 
L 574.617217 102.193665 
L 575.139665 98.759023 
L 575.923338 98.14255 
L 576.445787 93.36487 
L 576.707011 100.333245 
L 576.968235 87.64046 
L 577.751908 90.007278 
L 578.013133 85.91212 
L 578.274357 77.556682 
L 578.535581 74.298162 
L 578.796805 76.356761 
L 579.580478 77.831894 
L 579.841703 75.553129 
L 580.102927 69.839721 
L 580.364151 72.723957 
L 580.625376 82.488479 
L 581.409049 83.490256 
L 581.670273 80.286782 
L 581.931497 82.191246 
L 582.192721 87.145065 
L 582.453946 88.532145 
L 583.237619 83.765468 
L 583.498843 76.709024 
L 583.760067 79.042818 
L 585.066189 73.571598 
L 585.327413 70.566286 
L 585.588637 65.370278 
L 585.849862 62.73925 
L 586.111086 55.605755 
L 586.894759 56.640556 
L 587.155983 57.79645 
L 587.417208 52.050019 
L 587.939656 55.132382 
L 588.723329 49.110754 
L 588.984553 51.070264 
L 589.245778 62.772275 
L 589.768226 57.928547 
L 590.551899 57.774429 
L 590.813124 53.382036 
L 591.335572 55.583734 
L 591.596797 59.216538 
L 592.380469 61.913614 
L 592.641694 64.016239 
L 593.164142 63.102532 
L 593.425367 58.732162 
L 594.20904 54.967261 
L 594.470264 61.021929 
L 594.731488 60.999907 
L 595.253937 64.511618 
L 596.03761 65.04002 
L 596.298834 65.810628 
L 596.560058 59.656871 
L 596.821283 62.618156 
L 597.082507 56.805676 
L 598.127404 51.554623 
L 598.388629 46.820987 
L 598.649853 46.369635 
L 598.911077 46.99711 
L 599.69475 46.369635 
L 599.955974 43.364323 
L 600.217199 44.553224 
L 600.478423 47.228296 
L 600.739647 43.881723 
L 601.52332 44.167937 
L 601.784545 39.06 
L 602.045769 45.543998 
L 602.306993 42.615737 
L 602.568217 53.271961 
L 603.35189 48.879569 
L 603.613115 49.297897 
L 603.874339 53.514149 
L 604.135563 51.928924 
L 604.396788 53.789362 
L 605.441685 56.024083 
L 605.702909 56.046088 
L 605.964133 60.174271 
L 606.225358 67.109621 
L 607.009031 71.3699 
L 607.270255 71.270828 
L 607.531479 69.564509 
L 607.792704 75.740271 
L 608.053928 71.843274 
L 608.837601 79.83543 
L 609.098825 81.178467 
L 609.360049 76.158599 
L 609.621274 84.591105 
L 610.666171 91.372337 
L 611.18862 86.583638 
L 611.449844 92.087882 
L 611.711068 87.618439 
L 612.494741 90.051305 
L 612.755965 93.265781 
L 613.01719 90.271488 
L 613.278414 90.920985 
L 613.539638 89.533905 
L 614.584536 79.075842 
L 614.84576 84.117731 
L 615.106984 83.86454 
L 615.368209 93.375873 
L 616.151881 96.083968 
L 616.413106 93.981343 
L 616.67433 89.754088 
L 616.935554 109.129016 
L 617.196779 117.286309 
L 617.980452 112.596699 
L 618.241676 117.660593 
L 618.5029 95.159242 
L 618.764125 106.035633 
L 619.025349 102.017542 
L 619.809022 105.044876 
L 620.070246 107.830022 
L 620.33147 113.620481 
L 620.592695 115.513942 
L 621.637592 121.337424 
L 622.682489 97.482034 
L 623.727386 99.243399 
L 623.988611 102.512921 
L 624.249835 96.150016 
L 624.511059 96.392204 
L 625.555957 101.863424 
L 626.078405 94.080415 
L 626.339629 93.001588 
L 627.123302 75.850363 
L 627.384527 72.845051 
L 627.645751 74.077996 
L 627.906975 79.670309 
L 628.1682 79.207955 
L 628.951873 78.580463 
L 629.474321 84.12875 
L 629.735545 81.949058 
L 629.99677 84.271849 
L 631.041667 78.734581 
L 631.302891 80.165688 
L 631.564116 79.086861 
L 631.82534 79.846449 
L 632.609013 78.041058 
L 632.870237 79.075842 
L 633.131462 77.402564 
L 633.392686 76.653978 
L 633.65391 70.42317 
L 634.437583 66.669288 
L 634.698807 65.975748 
L 634.960032 70.830495 
L 635.221256 70.786452 
L 635.48248 72.041419 
L 636.266153 67.638024 
L 636.527378 69.047109 
L 636.788602 71.579064 
L 637.31105 74.694468 
L 638.094723 76.037505 
L 638.355948 71.303852 
L 638.617172 72.162513 
L 639.139621 59.711916 
L 639.923294 64.016239 
L 640.184518 62.838323 
L 640.445742 63.43279 
L 640.706966 59.590822 
L 641.751864 59.524774 
L 642.013088 64.049263 
L 642.274312 60.548572 
L 642.535537 60.856808 
L 642.796761 57.818455 
L 643.580434 57.080889 
L 643.841658 56.354324 
L 644.102882 59.83301 
L 644.364107 59.073422 
L 644.625331 56.596512 
L 645.409004 53.106824 
L 645.670228 55.121379 
L 645.931453 54.218692 
L 646.192677 49.881345 
L 646.453901 50.751008 
L 647.237574 49.264873 
L 647.498798 51.224382 
L 647.760023 52.127069 
L 648.021247 47.811744 
L 648.282471 69.124176 
L 649.066144 72.536814 
L 649.327369 70.225025 
L 649.588593 60.801763 
L 649.849817 59.899059 
L 650.894714 61.913614 
L 651.155939 61.726472 
L 651.417163 58.324853 
L 651.678387 51.257406 
L 651.939612 51.20236 
L 652.723285 50.695962 
L 653.506958 61.198069 
L 653.768182 53.613222 
L 653.768182 53.613222 
" clip-path="url(#p4c142fcee4)" style="fill: none; stroke: #1f77b4; stroke-width: 1.5; stroke-linecap: square"/>
   </g>
   <g id="patch_3">
    <path d="M 94.5 224.28 
L 94.5 30.24 
" style="fill: none; stroke: #000000; stroke-width: 0.8; stroke-linejoin: miter; stroke-linecap: square"/>
   </g>
   <g id="patch_4">
    <path d="M 94.5 224.28 
L 680.4 224.28 
" style="fill: none; stroke: #000000; stroke-width: 0.8; stroke-linejoin: miter; stroke-linecap: square"/>
   </g>
  </g>
 </g>
 <defs>
  <clipPath id="p4c142fcee4">
   <rect x="94.5" y="30.24" width="585.9" height="194.04"/>
  </clipPath>
 </defs>
</svg>
