<?xml version="1.0" encoding="utf-8" standalone="no"?>
<!DOCTYPE svg PUBLIC "-//W3C//DTD SVG 1.1//EN"
  "http://www.w3.org/Graphics/SVG/1.1/DTD/svg11.dtd">
<svg xmlns:xlink="http://www.w3.org/1999/xlink" width="648pt" height="252pt" viewBox="0 0 648 252" xmlns="http://www.w3.org/2000/svg" version="1.1">
 <metadata>
  <rdf:RDF xmlns:dc="http://purl.org/dc/elements/1.1/" xmlns:cc="http://creativecommons.org/ns#" xmlns:rdf="http://www.w3.org/1999/02/22-rdf-syntax-ns#">
   <cc:Work>
    <dc:type rdf:resource="http://purl.org/dc/dcmitype/StillImage"/>
    <dc:date>2025-08-25T18:02:42.874604</dc:date>
    <dc:format>image/svg+xml</dc:format>
    <dc:creator>
     <cc:Agent>
      <dc:title>Matplotlib v3.10.5, https://matplotlib.org/</dc:title>
     </cc:Agent>
    </dc:creator>
   </cc:Work>
  </rdf:RDF>
 </metadata>
 <defs>
  <style type="text/css">*{stroke-linejoin: round; stroke-linecap: butt}</style>
 </defs>
 <g id="figure_1">
  <g id="patch_1">
   <path d="M 0 252 
L 648 252 
L 648 0 
L 0 0 
z
" style="fill: #ffffff"/>
  </g>
  <g id="axes_1">
   <g id="patch_2">
    <path d="M 81 224.28 
L 583.2 224.28 
L 583.2 30.24 
L 81 30.24 
z
" style="fill: #ffffff"/>
   </g>
   <g id="matplotlib.axis_1">
    <g id="xtick_1">
     <g id="line2d_1">
      <defs>
       <path id="m5bb296d75c" d="M 0 0 
L 0 3.5 
" style="stroke: #000000; stroke-width: 0.8"/>
      </defs>
      <g>
       <use xlink:href="#m5bb296d75c" x="99.125235" y="224.28" style="stroke: #000000; stroke-width: 0.8"/>
      </g>
     </g>
     <g id="text_1">
      <!-- 2020 -->
      <g transform="translate(86.400235 238.878438) scale(0.1 -0.1)">
       <defs>
        <path id="DejaVuSans-32" d="M 1228 531 
L 3431 531 
L 3431 0 
L 469 0 
L 469 531 
Q 828 903 1448 1529 
Q 2069 2156 2228 2338 
Q 2531 2678 2651 2914 
Q 2772 3150 2772 3378 
Q 2772 3750 2511 3984 
Q 2250 4219 1831 4219 
Q 1534 4219 1204 4116 
Q 875 4013 500 3803 
L 500 4441 
Q 881 4594 1212 4672 
Q 1544 4750 1819 4750 
Q 2544 4750 2975 4387 
Q 3406 4025 3406 3419 
Q 3406 3131 3298 2873 
Q 3191 2616 2906 2266 
Q 2828 2175 2409 1742 
Q 1991 1309 1228 531 
z
" transform="scale(0.015625)"/>
        <path id="DejaVuSans-30" d="M 2034 4250 
Q 1547 4250 1301 3770 
Q 1056 3291 1056 2328 
Q 1056 1369 1301 889 
Q 1547 409 2034 409 
Q 2525 409 2770 889 
Q 3016 1369 3016 2328 
Q 3016 3291 2770 3770 
Q 2525 4250 2034 4250 
z
M 2034 4750 
Q 2819 4750 3233 4129 
Q 3647 3509 3647 2328 
Q 3647 1150 3233 529 
Q 2819 -91 2034 -91 
Q 1250 -91 836 529 
Q 422 1150 422 2328 
Q 422 3509 836 4129 
Q 1250 4750 2034 4750 
z
" transform="scale(0.015625)"/>
       </defs>
       <use xlink:href="#DejaVuSans-32"/>
       <use xlink:href="#DejaVuSans-30" transform="translate(63.623047 0)"/>
       <use xlink:href="#DejaVuSans-32" transform="translate(127.246094 0)"/>
       <use xlink:href="#DejaVuSans-30" transform="translate(190.869141 0)"/>
      </g>
     </g>
    </g>
    <g id="xtick_2">
     <g id="line2d_2">
      <g>
       <use xlink:href="#m5bb296d75c" x="181.075032" y="224.28" style="stroke: #000000; stroke-width: 0.8"/>
      </g>
     </g>
     <g id="text_2">
      <!-- 2021 -->
      <g transform="translate(168.350032 238.878438) scale(0.1 -0.1)">
       <defs>
        <path id="DejaVuSans-31" d="M 794 531 
L 1825 531 
L 1825 4091 
L 703 3866 
L 703 4441 
L 1819 4666 
L 2450 4666 
L 2450 531 
L 3481 531 
L 3481 0 
L 794 0 
L 794 531 
z
" transform="scale(0.015625)"/>
       </defs>
       <use xlink:href="#DejaVuSans-32"/>
       <use xlink:href="#DejaVuSans-30" transform="translate(63.623047 0)"/>
       <use xlink:href="#DejaVuSans-32" transform="translate(127.246094 0)"/>
       <use xlink:href="#DejaVuSans-31" transform="translate(190.869141 0)"/>
      </g>
     </g>
    </g>
    <g id="xtick_3">
     <g id="line2d_3">
      <g>
       <use xlink:href="#m5bb296d75c" x="262.800923" y="224.28" style="stroke: #000000; stroke-width: 0.8"/>
      </g>
     </g>
     <g id="text_3">
      <!-- 2022 -->
      <g transform="translate(250.075923 238.878438) scale(0.1 -0.1)">
       <use xlink:href="#DejaVuSans-32"/>
       <use xlink:href="#DejaVuSans-30" transform="translate(63.623047 0)"/>
       <use xlink:href="#DejaVuSans-32" transform="translate(127.246094 0)"/>
       <use xlink:href="#DejaVuSans-32" transform="translate(190.869141 0)"/>
      </g>
     </g>
    </g>
    <g id="xtick_4">
     <g id="line2d_4">
      <g>
       <use xlink:href="#m5bb296d75c" x="344.526814" y="224.28" style="stroke: #000000; stroke-width: 0.8"/>
      </g>
     </g>
     <g id="text_4">
      <!-- 2023 -->
      <g transform="translate(331.801814 238.878438) scale(0.1 -0.1)">
       <defs>
        <path id="DejaVuSans-33" d="M 2597 2516 
Q 3050 2419 3304 2112 
Q 3559 1806 3559 1356 
Q 3559 666 3084 287 
Q 2609 -91 1734 -91 
Q 1441 -91 1130 -33 
Q 819 25 488 141 
L 488 750 
Q 750 597 1062 519 
Q 1375 441 1716 441 
Q 2309 441 2620 675 
Q 2931 909 2931 1356 
Q 2931 1769 2642 2001 
Q 2353 2234 1838 2234 
L 1294 2234 
L 1294 2753 
L 1863 2753 
Q 2328 2753 2575 2939 
Q 2822 3125 2822 3475 
Q 2822 3834 2567 4026 
Q 2313 4219 1838 4219 
Q 1578 4219 1281 4162 
Q 984 4106 628 3988 
L 628 4550 
Q 988 4650 1302 4700 
Q 1616 4750 1894 4750 
Q 2613 4750 3031 4423 
Q 3450 4097 3450 3541 
Q 3450 3153 3228 2886 
Q 3006 2619 2597 2516 
z
" transform="scale(0.015625)"/>
       </defs>
       <use xlink:href="#DejaVuSans-32"/>
       <use xlink:href="#DejaVuSans-30" transform="translate(63.623047 0)"/>
       <use xlink:href="#DejaVuSans-32" transform="translate(127.246094 0)"/>
       <use xlink:href="#DejaVuSans-33" transform="translate(190.869141 0)"/>
      </g>
     </g>
    </g>
    <g id="xtick_5">
     <g id="line2d_5">
      <g>
       <use xlink:href="#m5bb296d75c" x="426.252704" y="224.28" style="stroke: #000000; stroke-width: 0.8"/>
      </g>
     </g>
     <g id="text_5">
      <!-- 2024 -->
      <g transform="translate(413.527704 238.878438) scale(0.1 -0.1)">
       <defs>
        <path id="DejaVuSans-34" d="M 2419 4116 
L 825 1625 
L 2419 1625 
L 2419 4116 
z
M 2253 4666 
L 3047 4666 
L 3047 1625 
L 3713 1625 
L 3713 1100 
L 3047 1100 
L 3047 0 
L 2419 0 
L 2419 1100 
L 313 1100 
L 313 1709 
L 2253 4666 
z
" transform="scale(0.015625)"/>
       </defs>
       <use xlink:href="#DejaVuSans-32"/>
       <use xlink:href="#DejaVuSans-30" transform="translate(63.623047 0)"/>
       <use xlink:href="#DejaVuSans-32" transform="translate(127.246094 0)"/>
       <use xlink:href="#DejaVuSans-34" transform="translate(190.869141 0)"/>
      </g>
     </g>
    </g>
    <g id="xtick_6">
     <g id="line2d_6">
      <g>
       <use xlink:href="#m5bb296d75c" x="508.202501" y="224.28" style="stroke: #000000; stroke-width: 0.8"/>
      </g>
     </g>
     <g id="text_6">
      <!-- 2025 -->
      <g transform="translate(495.477501 238.878438) scale(0.1 -0.1)">
       <defs>
        <path id="DejaVuSans-35" d="M 691 4666 
L 3169 4666 
L 3169 4134 
L 1269 4134 
L 1269 2991 
Q 1406 3038 1543 3061 
Q 1681 3084 1819 3084 
Q 2600 3084 3056 2656 
Q 3513 2228 3513 1497 
Q 3513 744 3044 326 
Q 2575 -91 1722 -91 
Q 1428 -91 1123 -41 
Q 819 9 494 109 
L 494 744 
Q 775 591 1075 516 
Q 1375 441 1709 441 
Q 2250 441 2565 725 
Q 2881 1009 2881 1497 
Q 2881 1984 2565 2268 
Q 2250 2553 1709 2553 
Q 1456 2553 1204 2497 
Q 953 2441 691 2322 
L 691 4666 
z
" transform="scale(0.015625)"/>
       </defs>
       <use xlink:href="#DejaVuSans-32"/>
       <use xlink:href="#DejaVuSans-30" transform="translate(63.623047 0)"/>
       <use xlink:href="#DejaVuSans-32" transform="translate(127.246094 0)"/>
       <use xlink:href="#DejaVuSans-35" transform="translate(190.869141 0)"/>
      </g>
     </g>
    </g>
   </g>
   <g id="matplotlib.axis_2">
    <g id="ytick_1">
     <g id="line2d_7">
      <defs>
       <path id="m6b57b05a1e" d="M 0 0 
L -3.5 0 
" style="stroke: #000000; stroke-width: 0.8"/>
      </defs>
      <g>
       <use xlink:href="#m6b57b05a1e" x="81" y="217.463544" style="stroke: #000000; stroke-width: 0.8"/>
      </g>
     </g>
     <g id="text_7">
      <!-- 80 -->
      <g transform="translate(61.275 221.262763) scale(0.1 -0.1)">
       <defs>
        <path id="DejaVuSans-38" d="M 2034 2216 
Q 1584 2216 1326 1975 
Q 1069 1734 1069 1313 
Q 1069 891 1326 650 
Q 1584 409 2034 409 
Q 2484 409 2743 651 
Q 3003 894 3003 1313 
Q 3003 1734 2745 1975 
Q 2488 2216 2034 2216 
z
M 1403 2484 
Q 997 2584 770 2862 
Q 544 3141 544 3541 
Q 544 4100 942 4425 
Q 1341 4750 2034 4750 
Q 2731 4750 3128 4425 
Q 3525 4100 3525 3541 
Q 3525 3141 3298 2862 
Q 3072 2584 2669 2484 
Q 3125 2378 3379 2068 
Q 3634 1759 3634 1313 
Q 3634 634 3220 271 
Q 2806 -91 2034 -91 
Q 1263 -91 848 271 
Q 434 634 434 1313 
Q 434 1759 690 2068 
Q 947 2378 1403 2484 
z
M 1172 3481 
Q 1172 3119 1398 2916 
Q 1625 2713 2034 2713 
Q 2441 2713 2670 2916 
Q 2900 3119 2900 3481 
Q 2900 3844 2670 4047 
Q 2441 4250 2034 4250 
Q 1625 4250 1398 4047 
Q 1172 3844 1172 3481 
z
" transform="scale(0.015625)"/>
       </defs>
       <use xlink:href="#DejaVuSans-38"/>
       <use xlink:href="#DejaVuSans-30" transform="translate(63.623047 0)"/>
      </g>
     </g>
    </g>
    <g id="ytick_2">
     <g id="line2d_8">
      <g>
       <use xlink:href="#m6b57b05a1e" x="81" y="195.44657" style="stroke: #000000; stroke-width: 0.8"/>
      </g>
     </g>
     <g id="text_8">
      <!-- 100 -->
      <g transform="translate(54.9125 199.245788) scale(0.1 -0.1)">
       <use xlink:href="#DejaVuSans-31"/>
       <use xlink:href="#DejaVuSans-30" transform="translate(63.623047 0)"/>
       <use xlink:href="#DejaVuSans-30" transform="translate(127.246094 0)"/>
      </g>
     </g>
    </g>
    <g id="ytick_3">
     <g id="line2d_9">
      <g>
       <use xlink:href="#m6b57b05a1e" x="81" y="173.429595" style="stroke: #000000; stroke-width: 0.8"/>
      </g>
     </g>
     <g id="text_9">
      <!-- 120 -->
      <g transform="translate(54.9125 177.228813) scale(0.1 -0.1)">
       <use xlink:href="#DejaVuSans-31"/>
       <use xlink:href="#DejaVuSans-32" transform="translate(63.623047 0)"/>
       <use xlink:href="#DejaVuSans-30" transform="translate(127.246094 0)"/>
      </g>
     </g>
    </g>
    <g id="ytick_4">
     <g id="line2d_10">
      <g>
       <use xlink:href="#m6b57b05a1e" x="81" y="151.41262" style="stroke: #000000; stroke-width: 0.8"/>
      </g>
     </g>
     <g id="text_10">
      <!-- 140 -->
      <g transform="translate(54.9125 155.211839) scale(0.1 -0.1)">
       <use xlink:href="#DejaVuSans-31"/>
       <use xlink:href="#DejaVuSans-34" transform="translate(63.623047 0)"/>
       <use xlink:href="#DejaVuSans-30" transform="translate(127.246094 0)"/>
      </g>
     </g>
    </g>
    <g id="ytick_5">
     <g id="line2d_11">
      <g>
       <use xlink:href="#m6b57b05a1e" x="81" y="129.395645" style="stroke: #000000; stroke-width: 0.8"/>
      </g>
     </g>
     <g id="text_11">
      <!-- 160 -->
      <g transform="translate(54.9125 133.194864) scale(0.1 -0.1)">
       <defs>
        <path id="DejaVuSans-36" d="M 2113 2584 
Q 1688 2584 1439 2293 
Q 1191 2003 1191 1497 
Q 1191 994 1439 701 
Q 1688 409 2113 409 
Q 2538 409 2786 701 
Q 3034 994 3034 1497 
Q 3034 2003 2786 2293 
Q 2538 2584 2113 2584 
z
M 3366 4563 
L 3366 3988 
Q 3128 4100 2886 4159 
Q 2644 4219 2406 4219 
Q 1781 4219 1451 3797 
Q 1122 3375 1075 2522 
Q 1259 2794 1537 2939 
Q 1816 3084 2150 3084 
Q 2853 3084 3261 2657 
Q 3669 2231 3669 1497 
Q 3669 778 3244 343 
Q 2819 -91 2113 -91 
Q 1303 -91 875 529 
Q 447 1150 447 2328 
Q 447 3434 972 4092 
Q 1497 4750 2381 4750 
Q 2619 4750 2861 4703 
Q 3103 4656 3366 4563 
z
" transform="scale(0.015625)"/>
       </defs>
       <use xlink:href="#DejaVuSans-31"/>
       <use xlink:href="#DejaVuSans-36" transform="translate(63.623047 0)"/>
       <use xlink:href="#DejaVuSans-30" transform="translate(127.246094 0)"/>
      </g>
     </g>
    </g>
    <g id="ytick_6">
     <g id="line2d_12">
      <g>
       <use xlink:href="#m6b57b05a1e" x="81" y="107.37867" style="stroke: #000000; stroke-width: 0.8"/>
      </g>
     </g>
     <g id="text_12">
      <!-- 180 -->
      <g transform="translate(54.9125 111.177889) scale(0.1 -0.1)">
       <use xlink:href="#DejaVuSans-31"/>
       <use xlink:href="#DejaVuSans-38" transform="translate(63.623047 0)"/>
       <use xlink:href="#DejaVuSans-30" transform="translate(127.246094 0)"/>
      </g>
     </g>
    </g>
    <g id="ytick_7">
     <g id="line2d_13">
      <g>
       <use xlink:href="#m6b57b05a1e" x="81" y="85.361695" style="stroke: #000000; stroke-width: 0.8"/>
      </g>
     </g>
     <g id="text_13">
      <!-- 200 -->
      <g transform="translate(54.9125 89.160914) scale(0.1 -0.1)">
       <use xlink:href="#DejaVuSans-32"/>
       <use xlink:href="#DejaVuSans-30" transform="translate(63.623047 0)"/>
       <use xlink:href="#DejaVuSans-30" transform="translate(127.246094 0)"/>
      </g>
     </g>
    </g>
    <g id="ytick_8">
     <g id="line2d_14">
      <g>
       <use xlink:href="#m6b57b05a1e" x="81" y="63.344721" style="stroke: #000000; stroke-width: 0.8"/>
      </g>
     </g>
     <g id="text_14">
      <!-- 220 -->
      <g transform="translate(54.9125 67.143939) scale(0.1 -0.1)">
       <use xlink:href="#DejaVuSans-32"/>
       <use xlink:href="#DejaVuSans-32" transform="translate(63.623047 0)"/>
       <use xlink:href="#DejaVuSans-30" transform="translate(127.246094 0)"/>
      </g>
     </g>
    </g>
    <g id="ytick_9">
     <g id="line2d_15">
      <g>
       <use xlink:href="#m6b57b05a1e" x="81" y="41.327746" style="stroke: #000000; stroke-width: 0.8"/>
      </g>
     </g>
     <g id="text_15">
      <!-- 240 -->
      <g transform="translate(54.9125 45.126964) scale(0.1 -0.1)">
       <use xlink:href="#DejaVuSans-32"/>
       <use xlink:href="#DejaVuSans-34" transform="translate(63.623047 0)"/>
       <use xlink:href="#DejaVuSans-30" transform="translate(127.246094 0)"/>
      </g>
     </g>
    </g>
   </g>
   <g id="line2d_16">
    <path d="M 103.827273 201.641044 
L 104.051179 201.799572 
L 104.275086 203.06224 
L 104.946805 204.895154 
L 105.170712 203.524049 
L 105.394619 203.262594 
L 105.618525 202.564661 
L 105.842432 194.966603 
L 106.514151 195.215392 
L 106.738058 192.712614 
L 106.961964 193.252028 
L 107.185871 192.681791 
L 107.409778 191.082809 
L 108.305404 187.146169 
L 108.52931 186.63978 
L 108.977123 188.022996 
L 109.87275 186.878113 
L 110.096656 186.077244 
L 110.320563 187.019574 
L 110.544469 190.164147 
L 111.440095 196.947025 
L 111.664002 196.569986 
L 111.887909 201.814984 
L 112.111815 201.845253 
L 112.783535 197.981271 
L 113.007441 200.455981 
L 113.231348 196.776949 
L 113.455254 199.628144 
L 113.679161 200.890821 
L 114.350881 206.421479 
L 114.574787 201.401057 
L 114.798694 205.306873 
L 115.0226 213.246746 
L 115.246507 207.280694 
L 115.918226 212.556515 
L 116.142133 206.023526 
L 116.36604 204.803784 
L 116.589946 202.000471 
L 116.813853 203.918155 
L 117.485572 200.795041 
L 117.709479 198.743615 
L 117.933385 201.730214 
L 118.157292 197.896511 
L 118.381198 200.945312 
L 119.052918 197.430847 
L 119.276825 198.214103 
L 119.500731 200.526984 
L 119.724638 199.914367 
L 119.948544 200.588085 
L 120.620264 195.57922 
L 120.84417 194.808075 
L 121.068077 193.079743 
L 121.291984 193.092954 
L 122.18761 186.151557 
L 122.411516 179.851946 
L 122.635423 178.51111 
L 122.859329 172.978797 
L 123.083236 174.805656 
L 123.754956 173.78132 
L 123.978862 177.386047 
L 124.426675 173.459864 
L 124.650582 172.867059 
L 125.322301 174.75061 
L 125.546208 178.158838 
L 125.770115 174.931705 
L 125.994021 169.356458 
L 126.217928 179.702229 
L 126.889647 178.05371 
L 127.113554 177.954084 
L 127.33746 176.112359 
L 127.785274 174.551911 
L 128.456993 172.934216 
L 128.6809 175.799168 
L 128.904806 175.195352 
L 129.352619 172.891281 
L 130.024339 171.984176 
L 130.248246 170.714352 
L 130.472152 168.038735 
L 130.696059 170.856913 
L 130.919965 171.399628 
L 131.815591 172.226364 
L 132.263405 173.369048 
L 132.487311 171.097447 
L 133.159031 169.519378 
L 133.382937 169.443973 
L 133.606844 169.11427 
L 133.83075 170.094024 
L 134.054657 168.861071 
L 134.726377 166.601027 
L 135.17419 159.809346 
L 135.398096 164.735088 
L 135.622003 165.447341 
L 136.293722 163.924864 
L 136.741536 160.165473 
L 136.965442 159.449911 
L 137.189349 158.29237 
L 137.861068 156.156183 
L 138.084975 153.371575 
L 138.308881 155.023402 
L 138.532788 153.912643 
L 138.756694 157.309323 
L 139.428414 157.996799 
L 139.652321 153.679274 
L 139.876227 147.080783 
L 140.100134 146.442288 
L 140.99576 137.264506 
L 141.219667 140.397531 
L 141.66748 130.351732 
L 141.891386 129.395645 
L 142.787012 135.780571 
L 143.010919 139.91591 
L 143.234825 140.409642 
L 143.458732 142.497401 
L 144.130452 129.569584 
L 144.578265 134.904844 
L 144.802171 141.144454 
L 145.026078 139.913709 
L 145.697797 137.365242 
L 145.921704 140.385974 
L 146.369517 137.548537 
L 146.593424 131.339751 
L 147.265143 134.245437 
L 147.48905 132.762593 
L 147.712956 129.118787 
L 147.936863 128.019584 
L 148.16077 131.186725 
L 148.832489 132.24904 
L 149.056396 135.963867 
L 149.280302 131.474048 
L 149.504209 131.541205 
L 149.728115 132.25675 
L 150.399835 130.363843 
L 150.623742 123.203925 
L 150.847648 126.066676 
L 151.071555 124.036163 
L 151.295461 124.732458 
L 151.967181 123.480784 
L 152.191087 121.332486 
L 152.414994 116.083633 
L 152.638901 118.387158 
L 152.862807 118.288085 
L 153.534527 115.58219 
L 153.98234 111.151835 
L 154.206246 120.148522 
L 154.430153 124.187527 
L 155.325779 132.156569 
L 155.549686 125.619188 
L 155.997499 134.007095 
L 156.669218 134.736414 
L 156.893125 131.810353 
L 157.564845 142.885997 
L 158.236564 142.579962 
L 158.460471 133.304216 
L 158.684377 140.411843 
L 158.908284 139.31484 
L 159.13219 135.167945 
L 159.80391 130.823997 
L 160.027817 132.429581 
L 160.251723 132.217679 
L 160.47563 128.225439 
L 160.699536 133.523828 
L 161.371256 129.439672 
L 161.595163 134.902089 
L 161.819069 129.632878 
L 162.042976 129.9158 
L 162.266882 124.626213 
L 162.938602 116.024186 
L 163.162508 115.985652 
L 163.386415 120.384646 
L 163.610321 121.764017 
L 163.834228 125.393512 
L 164.505948 128.998785 
L 164.729854 128.459379 
L 164.953761 130.224591 
L 165.177667 130.694638 
L 165.401574 129.153457 
L 166.073294 129.008141 
L 166.2972 124.643834 
L 166.521107 131.444316 
L 166.745013 128.789621 
L 166.96892 138.414354 
L 167.640639 140.157543 
L 167.864546 137.739526 
L 168.088452 127.1301 
L 168.312359 122.680461 
L 168.536266 123.265572 
L 169.207985 132.492336 
L 169.431892 138.476539 
L 169.655798 132.841845 
L 169.879705 134.334044 
L 170.103611 133.31411 
L 170.775331 133.190278 
L 170.999238 132.93707 
L 171.223144 134.599363 
L 171.447051 133.963069 
L 171.670957 134.932913 
L 172.342677 134.988513 
L 172.566583 133.905822 
L 172.79049 130.217435 
L 173.238303 129.652145 
L 173.910023 131.154809 
L 174.133929 128.290395 
L 174.805649 131.455335 
L 175.477369 131.707434 
L 175.701275 130.645657 
L 175.925182 134.668703 
L 176.149088 134.817883 
L 177.044714 131.764126 
L 177.268621 131.315529 
L 177.492528 127.141102 
L 177.716434 127.409713 
L 177.940341 129.30482 
L 178.835967 129.036764 
L 179.28378 130.898847 
L 180.403313 122.680461 
L 180.851126 126.262083 
L 181.746752 130.131566 
L 181.970659 128.376802 
L 182.194565 132.787353 
L 182.642378 130.347885 
L 183.314098 134.117741 
L 183.538004 133.75335 
L 183.761911 131.273148 
L 184.209724 134.665965 
L 185.10535 133.757214 
L 185.329257 125.907048 
L 185.553163 123.506652 
L 185.77707 124.319086 
L 186.44879 124.221659 
L 186.672696 122.453139 
L 186.896603 127.602365 
L 187.120509 127.324952 
L 187.344416 129.054385 
L 188.240042 119.488006 
L 188.463948 123.201725 
L 188.911762 121.02094 
L 189.583481 122.628724 
L 190.255201 125.975851 
L 190.479107 125.118299 
L 191.374734 125.600475 
L 191.59864 123.415827 
L 191.822547 122.337554 
L 192.046453 126.649033 
L 192.718173 130.45576 
L 192.942079 129.698372 
L 193.165986 131.623211 
L 193.389893 137.257905 
L 193.613799 135.289039 
L 194.285519 132.360223 
L 194.509425 135.200969 
L 194.733332 140.12892 
L 194.957238 141.638741 
L 195.181145 140.378818 
L 195.852865 143.048918 
L 196.076771 136.944713 
L 196.300678 137.231482 
L 196.524584 134.151857 
L 196.748491 135.478382 
L 197.42021 135.908267 
L 197.644117 135.347932 
L 197.868024 132.933224 
L 198.09193 138.863488 
L 198.315837 136.27815 
L 198.987556 134.301574 
L 199.211463 132.835797 
L 199.659276 137.857865 
L 199.883182 137.540273 
L 200.554902 136.23577 
L 200.778809 137.360841 
L 201.002715 135.225746 
L 201.226622 131.542297 
L 202.122248 127.924358 
L 202.346155 128.084541 
L 202.570061 125.025829 
L 202.793968 123.929935 
L 203.017874 119.917337 
L 203.689594 119.521585 
L 203.9135 118.387158 
L 204.137407 122.075008 
L 204.361313 119.538097 
L 204.58522 118.417981 
L 205.25694 119.927802 
L 205.480846 121.981982 
L 205.704753 120.477672 
L 205.928659 123.393822 
L 206.152566 121.64126 
L 206.824286 117.891779 
L 207.048192 117.427762 
L 207.272099 115.167172 
L 207.496005 114.462075 
L 207.719912 114.676194 
L 208.391631 119.130788 
L 208.839444 125.512959 
L 209.063351 123.540785 
L 209.287258 124.353201 
L 209.958977 129.919092 
L 210.182884 128.079585 
L 210.40679 132.040984 
L 210.630697 131.516428 
L 210.854603 128.135169 
L 211.526323 125.521207 
L 211.75023 127.618877 
L 211.974136 127.6453 
L 212.198043 126.771219 
L 212.421949 129.226107 
L 213.317575 126.14539 
L 213.541482 125.809085 
L 213.765389 127.738325 
L 213.989295 128.125812 
L 214.884921 128.369109 
L 215.108828 127.52476 
L 215.332734 130.110652 
L 215.556641 129.053276 
L 216.228361 129.505182 
L 216.452267 125.866868 
L 216.676174 124.928957 
L 216.90008 121.158546 
L 217.123987 121.313756 
L 217.795706 119.274996 
L 218.019613 119.31573 
L 218.24352 117.547764 
L 218.467426 113.475164 
L 218.691333 113.603969 
L 219.363052 115.41707 
L 219.586959 112.58348 
L 219.810865 112.672658 
L 220.258678 118.306798 
L 220.930398 115.971341 
L 221.154305 115.737417 
L 221.602118 116.57241 
L 221.826024 112.278552 
L 222.945557 102.062677 
L 223.169464 100.145548 
L 223.39337 100.809911 
L 224.06509 100.853383 
L 224.288996 103.120591 
L 224.512903 102.882804 
L 224.960716 108.830136 
L 225.632436 110.153351 
L 226.080249 108.193304 
L 226.304155 105.285401 
L 226.528062 104.261066 
L 227.199782 101.884337 
L 227.423688 105.926096 
L 227.647595 105.709776 
L 227.871501 107.383071 
L 228.095408 122.372779 
L 228.767127 122.15866 
L 228.991034 120.245394 
L 229.21494 120.879488 
L 229.438847 119.708727 
L 229.662754 121.417801 
L 230.334473 121.586768 
L 230.782286 124.325687 
L 231.006193 123.698749 
L 231.230099 124.223305 
L 231.901819 123.947001 
L 232.349632 129.328488 
L 232.573539 130.069918 
L 232.797445 129.3984 
L 233.469165 125.769997 
L 233.693071 123.573254 
L 233.916978 123.936537 
L 234.140885 123.010719 
L 234.364791 121.159638 
L 235.036511 117.199885 
L 235.260417 114.490698 
L 235.484324 114.038808 
L 235.70823 114.912873 
L 235.932137 114.091099 
L 236.827763 112.371578 
L 237.05167 111.479338 
L 237.275576 113.754794 
L 237.499483 114.580968 
L 238.171202 115.240376 
L 238.395109 115.635036 
L 238.619016 114.215486 
L 238.842922 113.53021 
L 239.066829 114.945897 
L 239.738548 120.823887 
L 239.962455 121.489896 
L 240.410268 117.506475 
L 240.634175 116.982474 
L 241.305894 118.067919 
L 241.529801 123.012919 
L 241.977614 124.714837 
L 242.20152 124.812818 
L 242.87324 129.958181 
L 243.321053 125.98247 
L 243.54496 123.757642 
L 244.440586 126.847178 
L 244.664492 126.790486 
L 244.888399 124.756663 
L 245.112305 123.899111 
L 245.336212 117.89067 
L 246.007932 115.814468 
L 246.231838 115.957029 
L 246.455745 117.558212 
L 246.679651 116.460118 
L 246.903558 121.934647 
L 247.575278 122.770194 
L 247.799184 119.704326 
L 248.023091 118.80053 
L 248.246997 115.823824 
L 248.470904 119.904671 
L 249.142623 122.89458 
L 249.36653 123.189614 
L 250.03825 111.837665 
L 250.709969 113.489476 
L 250.933876 108.687037 
L 251.157782 113.870933 
L 251.381689 114.396581 
L 251.605595 111.498589 
L 252.277315 110.368579 
L 252.501222 110.642683 
L 252.725128 110.185838 
L 252.949035 102.091301 
L 253.172941 103.164064 
L 253.844661 108.888491 
L 254.068567 108.477318 
L 254.292474 108.45696 
L 254.740287 112.631924 
L 255.412007 109.493944 
L 255.85982 115.980697 
L 256.083726 116.330776 
L 256.307633 118.949139 
L 256.979353 116.880646 
L 257.203259 111.60097 
L 257.427166 111.608126 
L 257.874979 115.952074 
L 258.770605 119.387271 
L 258.994512 114.737841 
L 259.218418 119.630013 
L 259.442325 118.367891 
L 260.114044 121.602743 
L 260.337951 117.928096 
L 260.561857 117.245575 
L 260.785764 117.210904 
L 261.68139 118.750994 
L 261.905297 117.659502 
L 262.129203 119.266731 
L 262.35311 119.879357 
L 262.577016 122.001249 
L 263.248736 117.94187 
L 263.696549 124.599253 
L 264.144362 126.584076 
L 264.816082 127.759792 
L 265.039988 123.492895 
L 265.263895 123.663525 
L 265.487802 128.05921 
L 265.711708 127.04203 
L 266.607334 130.587319 
L 266.831241 133.469891 
L 267.055147 138.568472 
L 267.279054 148.503071 
L 267.950774 146.410356 
L 268.17468 151.42804 
L 268.398587 152.65383 
L 268.622493 151.811681 
L 268.8464 147.033447 
L 269.742026 139.090273 
L 269.965932 139.729859 
L 270.189839 152.683545 
L 270.413746 131.994203 
L 271.085465 131.668346 
L 271.309372 127.839598 
L 271.533278 128.086187 
L 271.757185 130.492647 
L 271.981091 136.778484 
L 272.652811 134.716039 
L 273.100624 131.486713 
L 273.548437 137.540273 
L 274.444063 140.186721 
L 274.66797 146.098828 
L 274.891877 138.909178 
L 275.115783 136.233569 
L 275.787503 136.481804 
L 276.011409 139.146965 
L 276.235316 138.144634 
L 276.683129 145.202725 
L 277.578755 155.800057 
L 277.802662 152.206324 
L 278.026568 143.907578 
L 278.922194 149.372751 
L 279.817821 128.01903 
L 280.48954 127.753728 
L 280.713447 124.013587 
L 280.937353 125.643947 
L 281.16126 125.378091 
L 281.385167 124.140745 
L 282.056886 119.498471 
L 282.280793 119.141236 
L 282.728606 126.095854 
L 282.952512 125.476626 
L 283.624232 120.207415 
L 284.072045 130.765105 
L 284.295952 131.834575 
L 284.519858 135.493802 
L 285.191578 139.168987 
L 285.415484 139.537207 
L 285.639391 134.304329 
L 285.863298 138.525537 
L 286.758924 137.338265 
L 286.98283 131.470201 
L 287.65455 146.623921 
L 288.32627 144.726059 
L 288.550176 152.08303 
L 288.774083 153.430467 
L 288.997989 146.352572 
L 289.221896 168.716309 
L 289.893615 168.475775 
L 290.117522 168.747133 
L 290.341429 166.903216 
L 290.565335 177.384947 
L 290.789242 179.184283 
L 291.460961 185.771208 
L 291.684868 185.694149 
L 291.908774 189.532808 
L 292.132681 187.817142 
L 292.356587 181.074989 
L 293.028307 183.545843 
L 293.252214 178.528176 
L 293.47612 187.61678 
L 293.923933 187.090023 
L 294.595653 187.127456 
L 294.819559 190.933091 
L 295.043466 187.988318 
L 295.491279 178.772564 
L 296.610812 171.575768 
L 296.834718 167.362816 
L 297.058625 170.842602 
L 297.730345 168.156528 
L 298.178158 172.130593 
L 298.625971 184.823378 
L 299.521597 192.903612 
L 299.745504 187.003062 
L 299.96941 191.417459 
L 300.193317 188.599289 
L 301.088943 185.891202 
L 301.312849 185.593977 
L 301.760663 177.3266 
L 302.432382 180.893348 
L 302.656289 187.300287 
L 302.880195 185.627001 
L 303.104102 188.6103 
L 303.328008 184.922458 
L 304.447541 179.671405 
L 304.671448 177.469708 
L 304.895354 178.339379 
L 305.567074 182.511597 
L 305.79098 185.296743 
L 306.014887 183.997741 
L 306.238794 183.74455 
L 306.4627 180.530066 
L 307.13442 180.298889 
L 307.582233 170.380247 
L 307.806139 168.332668 
L 308.030046 170.765543 
L 308.701766 172.174628 
L 308.925672 179.143002 
L 309.149579 172.36177 
L 309.373485 170.919661 
L 309.597392 156.971909 
L 310.269111 156.487533 
L 310.493018 157.841572 
L 310.940831 148.583431 
L 311.164738 150.531938 
L 311.836457 152.062117 
L 312.060364 153.80146 
L 312.28427 148.451334 
L 312.508177 150.708077 
L 312.732083 147.504603 
L 313.403803 147.911929 
L 313.62771 146.150564 
L 313.851616 149.100831 
L 314.075523 148.880664 
L 314.299429 153.361127 
L 314.971149 158.876373 
L 315.418962 158.237879 
L 315.642869 154.40693 
L 315.866775 161.595471 
L 316.538495 162.652293 
L 316.762401 163.81919 
L 316.986308 165.976852 
L 317.210214 164.820958 
L 318.329747 166.703408 
L 318.553654 162.993553 
L 318.77756 162.619252 
L 319.001467 158.821327 
L 319.673186 155.320636 
L 319.897093 165.921807 
L 320.121 164.017335 
L 320.568813 169.5436 
L 321.240532 168.299636 
L 322.136159 180.276875 
L 322.807878 178.768709 
L 323.031785 179.583335 
L 323.255691 175.620281 
L 323.703504 181.135536 
L 324.375224 177.965095 
L 324.599131 172.229674 
L 324.823037 172.383792 
L 325.046944 173.099337 
L 325.27085 179.418215 
L 325.94257 180.397969 
L 326.166476 182.005207 
L 326.390383 181.245619 
L 326.61429 181.652936 
L 326.838196 187.850712 
L 327.733822 177.436683 
L 327.957729 178.856779 
L 328.181635 178.658626 
L 328.405542 174.178172 
L 329.077262 173.627748 
L 329.301168 172.769087 
L 329.972888 191.692671 
L 330.644607 192.760496 
L 331.092421 204.121255 
L 331.316327 207.225648 
L 331.540234 205.376221 
L 332.211953 205.871608 
L 332.43586 206.47707 
L 332.659766 210.704334 
L 332.883673 199.156433 
L 333.107579 194.576898 
L 333.779299 197.108853 
L 334.003206 196.613467 
L 334.674925 201.897544 
L 335.346645 203.74697 
L 335.794458 201.908555 
L 336.242271 202.701159 
L 336.913991 202.106708 
L 337.137897 203.791005 
L 337.361804 199.255505 
L 338.481337 205.343197 
L 338.705243 208.381542 
L 338.92915 208.150365 
L 339.153056 206.069762 
L 339.376963 207.456833 
L 340.048683 205.849587 
L 340.272589 203.713946 
L 340.496496 204.715714 
L 340.720402 208.161376 
L 340.944309 208.810873 
L 341.616028 212.047371 
L 341.839935 211.750137 
L 342.063841 210.010802 
L 342.287748 213.291327 
L 342.511655 211.684088 
L 343.407281 214.116963 
L 343.631187 215.46 
L 343.855094 212.861996 
L 344.079 213.060149 
L 344.974627 211.056605 
L 345.198533 211.805183 
L 345.42244 214.028893 
L 345.646346 210.770382 
L 346.318066 209.361297 
L 346.541972 206.598164 
L 346.765879 200.851741 
L 346.989786 200.653588 
L 347.213692 197.516162 
L 348.333225 200.444424 
L 348.557131 202.403933 
L 348.781038 198.473904 
L 349.452758 198.176678 
L 349.676664 199.497693 
L 349.900571 198.550963 
L 350.348384 192.980671 
L 351.020103 194.841099 
L 351.467917 189.777197 
L 351.691823 181.234608 
L 351.91573 191.714693 
L 352.587449 193.046719 
L 352.811356 193.123778 
L 353.259169 197.384066 
L 353.483075 198.077597 
L 354.154795 195.952959 
L 354.378702 195.776828 
L 354.602608 194.169581 
L 354.826515 197.483138 
L 355.050421 198.528949 
L 355.946048 201.413168 
L 356.169954 200.081142 
L 356.393861 200.048118 
L 356.617767 202.602086 
L 357.289487 202.315863 
L 357.513393 201.798463 
L 357.7373 204.066217 
L 357.961206 204.110252 
L 358.185113 201.060896 
L 359.080739 202.547041 
L 359.304646 202.139732 
L 359.752459 205.651434 
L 360.424179 203.779994 
L 361.095898 195.402535 
L 361.319805 196.602464 
L 361.991524 197.967514 
L 362.215431 194.775051 
L 362.439337 196.877676 
L 362.663244 196.866665 
L 362.887151 197.50516 
L 363.55887 197.604232 
L 363.782777 198.484914 
L 364.23059 193.244872 
L 364.454496 191.824776 
L 365.126216 192.79352 
L 365.350123 191.09822 
L 365.574029 194.235638 
L 365.797936 193.178824 
L 366.693562 193.05773 
L 367.141375 197.835409 
L 367.365282 192.804531 
L 368.260908 192.430246 
L 368.484814 192.914614 
L 368.708721 190.712917 
L 368.932627 191.252339 
L 369.156534 187.784663 
L 369.828254 188.6103 
L 370.05216 192.617389 
L 370.276067 189.964339 
L 370.499973 184.636235 
L 370.72388 189.446947 
L 371.395599 193.189826 
L 371.619506 191.450492 
L 371.843413 191.42847 
L 372.067319 191.043175 
L 372.291226 189.215762 
L 372.962945 189.028619 
L 373.186852 188.158948 
L 373.634665 182.038232 
L 373.858571 184.151859 
L 374.530291 183.117067 
L 375.202011 175.466163 
L 375.425917 177.557777 
L 376.097637 178.922828 
L 376.321544 178.944849 
L 376.54545 177.007353 
L 376.769357 178.933838 
L 376.993263 173.308501 
L 377.888889 171.602182 
L 378.112796 172.7911 
L 378.560609 168.750988 
L 379.232329 167.595093 
L 379.456235 166.152984 
L 379.680142 172.075547 
L 379.904048 168.750988 
L 380.127955 169.653683 
L 380.799675 166.197019 
L 381.023581 166.097938 
L 381.247488 166.362148 
L 381.471394 165.602559 
L 381.695301 167.385937 
L 382.590927 167.06669 
L 382.814833 168.112493 
L 383.03874 162.255987 
L 383.262647 163.158674 
L 383.934366 165.360371 
L 384.158273 163.323811 
L 384.382179 163.477929 
L 384.606086 164.732888 
L 384.829992 162.024801 
L 385.501712 162.178919 
L 385.949525 162.002779 
L 386.173432 164.226499 
L 386.397338 162.663295 
L 387.069058 165.580546 
L 387.516871 161.540425 
L 387.740778 157.687454 
L 387.964684 157.269143 
L 388.636404 158.502088 
L 388.86031 159.305703 
L 389.084217 156.520557 
L 389.308123 162.465134 
L 389.53203 162.421107 
L 390.20375 163.742122 
L 390.427656 163.37884 
L 390.651563 164.457684 
L 390.875469 164.347593 
L 391.099376 159.988224 
L 391.771095 158.369992 
L 391.995002 160.56067 
L 392.218909 164.391619 
L 392.442815 163.621028 
L 392.666722 151.885977 
L 393.338441 148.968734 
L 393.786254 153.779438 
L 394.010161 152.997845 
L 394.234068 153.162965 
L 394.905787 150.785128 
L 395.3536 156.839796 
L 395.801413 158.876373 
L 396.473133 157.269143 
L 396.69704 157.7425 
L 396.920946 156.344418 
L 397.144853 160.39555 
L 397.368759 158.832346 
L 398.040479 158.964443 
L 398.264385 157.015936 
L 398.488292 156.839796 
L 398.712198 153.603315 
L 398.936105 153.482221 
L 399.831731 154.417932 
L 400.055638 156.520557 
L 400.279544 153.779438 
L 400.503451 153.361127 
L 401.175171 147.999982 
L 401.399077 150.058581 
L 401.622984 146.073497 
L 401.84689 146.216612 
L 402.070797 150.98329 
L 402.742516 151.434642 
L 403.190329 156.597625 
L 403.414236 163.158674 
L 403.638143 163.38986 
L 404.309862 161.023025 
L 404.533769 166.846516 
L 404.981582 166.846516 
L 405.205488 165.591549 
L 405.877208 163.015558 
L 406.101115 168.233587 
L 406.325021 165.723654 
L 406.548928 166.868537 
L 406.772834 164.66684 
L 407.444554 164.33659 
L 407.66846 162.993553 
L 407.892367 160.406552 
L 408.116274 159.856128 
L 408.34018 162.652293 
L 409.0119 159.61394 
L 409.235806 160.802858 
L 409.459713 164.479689 
L 409.683619 164.182472 
L 409.907526 167.738209 
L 410.579246 166.20803 
L 410.803152 164.006332 
L 411.027059 171.899416 
L 411.250965 173.90296 
L 411.474872 164.909028 
L 412.146591 159.4378 
L 412.370498 159.019489 
L 412.594405 154.715166 
L 413.042218 152.953801 
L 413.713937 151.698835 
L 413.937844 148.429312 
L 414.16175 149.122852 
L 414.385657 150.752104 
L 414.609564 147.493601 
L 415.281283 148.561426 
L 415.50519 145.027694 
L 415.729096 147.889907 
L 415.953003 148.297216 
L 416.176909 145.710231 
L 416.848629 144.664412 
L 417.072536 147.119317 
L 417.296442 144.025917 
L 417.744255 143.992893 
L 418.415975 142.903064 
L 418.863788 144.455248 
L 419.087695 144.708455 
L 419.311601 143.673655 
L 419.983321 146.084516 
L 420.207227 143.838775 
L 420.431134 146.436779 
L 420.65504 143.838775 
L 420.878947 143.244324 
L 421.550667 144.928621 
L 421.99848 141.681121 
L 422.222386 143.244324 
L 422.446293 140.437157 
L 423.118012 135.92367 
L 423.341919 136.231923 
L 423.565825 138.070339 
L 423.789732 136.176877 
L 424.013639 136.639232 
L 425.357078 136.683258 
L 425.580984 138.268483 
L 426.476611 140.4812 
L 426.700517 142.08843 
L 426.924424 146.381733 
L 427.14833 145.644166 
L 427.82005 141.39489 
L 428.49177 134.701744 
L 428.715676 135.318217 
L 429.611302 136.925446 
L 429.835209 138.521674 
L 430.283022 134.525604 
L 430.954742 135.142077 
L 431.402555 132.841307 
L 431.626461 131.872555 
L 431.850368 130.364397 
L 432.522087 128.008582 
L 432.745994 130.496494 
L 432.969901 134.679722 
L 433.193807 130.188257 
L 433.417714 116.394624 
L 434.089433 118.045897 
L 434.31334 119.322886 
L 434.537246 117.803709 
L 434.761153 118.563297 
L 434.98506 113.488384 
L 435.656779 115.811176 
L 435.880686 119.884313 
L 436.104592 117.308331 
L 436.328499 118.607324 
L 436.552405 118.92658 
L 437.448032 121.601634 
L 437.671938 119.939358 
L 437.895845 113.345268 
L 438.119751 112.893916 
L 438.791471 113.180148 
L 439.015377 114.49016 
L 439.239284 114.908472 
L 439.463191 110.945426 
L 439.687097 109.33818 
L 440.358817 110.042722 
L 440.582723 113.851666 
L 440.80663 114.523185 
L 441.030536 110.879361 
L 441.254443 112.49761 
L 441.926163 116.229487 
L 442.150069 112.453584 
L 442.373976 111.165593 
L 442.597882 108.754731 
L 442.821789 113.521408 
L 443.493508 113.45536 
L 443.717415 111.892157 
L 443.941322 109.415247 
L 444.165228 109.415247 
L 444.389135 108.622635 
L 445.060854 107.697909 
L 445.284761 109.25011 
L 445.508667 107.565812 
L 445.732574 106.960342 
L 446.6282 106.310846 
L 446.852107 106.619082 
L 447.076013 104.725621 
L 447.29992 107.37867 
L 447.523826 101.797359 
L 448.195546 101.665263 
L 448.643359 100.828624 
L 448.867266 97.415986 
L 449.091172 100.630462 
L 449.762892 103.393603 
L 449.986798 103.723844 
L 450.434611 108.237331 
L 450.658518 113.290223 
L 451.330238 110.428026 
L 451.554144 107.885068 
L 452.001957 114.347045 
L 452.225864 107.796998 
L 452.897583 106.321848 
L 453.12149 112.882914 
L 453.79321 100.542392 
L 454.464929 97.80129 
L 454.688836 97.735241 
L 454.912742 98.57188 
L 455.136649 96.920607 
L 455.360556 99.144326 
L 456.032275 100.146086 
L 456.256182 99.595662 
L 456.480088 100.78458 
L 456.703995 103.382584 
L 456.927901 102.204684 
L 457.823528 103.911003 
L 458.047434 103.933008 
L 458.271341 106.222776 
L 458.495247 106.553034 
L 459.390873 105.011852 
L 459.61478 105.154951 
L 460.062593 111.297689 
L 460.734313 109.206083 
L 460.958219 108.105234 
L 461.182126 105.969585 
L 461.406032 101.874427 
L 461.629939 102.645017 
L 462.301659 99.606681 
L 462.525565 99.419539 
L 462.749472 99.793823 
L 462.973378 103.162418 
L 463.197285 103.34956 
L 463.869004 102.909227 
L 464.092911 104.285288 
L 464.540724 100.663486 
L 464.764631 97.382962 
L 465.43635 101.246935 
L 465.660257 100.399293 
L 466.10807 87.728513 
L 466.331976 92.792424 
L 467.003696 88.444075 
L 467.227603 85.361695 
L 467.451509 88.014745 
L 467.899322 85.361695 
L 468.571042 86.143305 
L 468.794949 86.08826 
L 469.018855 85.592881 
L 469.242762 90.810893 
L 470.138388 93.375873 
L 470.362294 93.045615 
L 470.810107 103.250487 
L 471.034014 103.933008 
L 471.705734 104.571503 
L 471.92964 100.322226 
L 472.153547 106.464964 
L 472.377453 107.543791 
L 472.60136 104.626548 
L 473.273079 103.855958 
L 473.496986 105.496211 
L 473.720893 99.694751 
L 473.944799 102.898208 
L 474.168706 120.698947 
L 474.840425 128.272775 
L 475.288238 126.346289 
L 475.512145 123.010719 
L 475.736052 121.755752 
L 476.407771 121.90987 
L 476.631678 118.133967 
L 476.855584 118.277066 
L 477.079491 110.03172 
L 477.303397 110.615168 
L 477.975117 109.33818 
L 478.199024 108.611615 
L 478.42293 107.257576 
L 478.646837 111.638949 
L 478.870743 110.63719 
L 479.542463 112.33249 
L 479.990276 117.506475 
L 480.214183 116.053364 
L 480.438089 109.029943 
L 481.333715 111.506853 
L 481.557622 114.721329 
L 481.781528 109.701462 
L 482.005435 116.856979 
L 482.677155 112.442581 
L 483.348874 99.672729 
L 484.2445 101.995521 
L 484.468407 99.804825 
L 484.692314 100.300221 
L 485.140127 94.608818 
L 485.811846 92.098884 
L 486.035753 92.010814 
L 486.483566 95.093194 
L 486.707472 98.604904 
L 487.379192 100.410296 
L 487.603099 101.731311 
L 487.827005 102.138636 
L 488.050912 105.220999 
L 488.274818 100.212151 
L 488.946538 106.497988 
L 489.842164 97.669176 
L 490.513884 99.078278 
L 490.73779 98.913141 
L 490.961697 99.793823 
L 491.185603 99.089281 
L 491.40951 97.482034 
L 492.08123 97.393964 
L 492.305136 96.700441 
L 492.529043 102.193665 
L 492.976856 98.759023 
L 493.648576 98.14255 
L 494.096389 93.36487 
L 494.320295 100.333245 
L 494.544202 87.64046 
L 495.215921 90.007278 
L 495.439828 85.91212 
L 495.663734 77.556682 
L 495.887641 74.298162 
L 496.111548 76.356761 
L 496.783267 77.831894 
L 497.007174 75.553129 
L 497.23108 69.839721 
L 497.454987 72.723957 
L 497.678893 82.488479 
L 498.350613 83.490256 
L 498.57452 80.286782 
L 498.798426 82.191246 
L 499.022333 87.145065 
L 499.246239 88.532145 
L 499.917959 83.765468 
L 500.141865 76.709024 
L 500.365772 79.042818 
L 501.485305 73.571598 
L 501.709211 70.566286 
L 502.380931 55.605755 
L 503.052651 56.640556 
L 503.276557 57.79645 
L 503.500464 52.050019 
L 503.948277 55.132382 
L 504.619996 49.110754 
L 504.843903 51.070264 
L 505.06781 62.772275 
L 505.515623 57.928547 
L 506.187342 57.774429 
L 506.411249 53.382036 
L 506.859062 55.583734 
L 507.082968 59.216538 
L 507.754688 61.913614 
L 507.978595 64.016239 
L 508.426408 63.102532 
L 508.650314 58.732162 
L 509.322034 54.967261 
L 509.545941 61.021929 
L 509.769847 60.999907 
L 510.21766 64.511618 
L 510.88938 65.04002 
L 511.113286 65.810628 
L 511.337193 59.656871 
L 511.561099 62.618156 
L 511.785006 56.805676 
L 512.680632 51.554623 
L 512.904539 46.820987 
L 513.128445 46.369635 
L 513.352352 46.99711 
L 514.024072 46.369635 
L 514.247978 43.364323 
L 514.471885 44.553224 
L 514.695791 47.228296 
L 514.919698 43.881723 
L 515.591417 44.167937 
L 515.815324 39.06 
L 516.03923 45.543998 
L 516.263137 42.615737 
L 516.487044 53.271961 
L 517.158763 48.879569 
L 517.38267 49.297897 
L 517.606576 53.514149 
L 517.830483 51.928924 
L 518.054389 53.789362 
L 518.950016 56.024083 
L 519.173922 56.046088 
L 519.397829 60.174271 
L 519.621735 67.109621 
L 520.293455 71.3699 
L 520.517361 71.270828 
L 520.741268 69.564509 
L 520.965175 75.740271 
L 521.189081 71.843274 
L 522.084707 81.178467 
L 522.308614 76.158599 
L 522.53252 84.591105 
L 523.428147 91.372337 
L 523.87596 86.583638 
L 524.099866 92.087882 
L 524.323773 87.618439 
L 524.995492 90.051305 
L 525.219399 93.265781 
L 525.443306 90.271488 
L 525.667212 90.920985 
L 525.891119 89.533905 
L 526.786745 79.075842 
L 527.010651 84.117731 
L 527.234558 83.86454 
L 527.458464 93.375873 
L 528.130184 96.083968 
L 528.354091 93.981343 
L 528.577997 89.754088 
L 528.801904 109.129016 
L 529.02581 117.286309 
L 529.69753 112.596699 
L 529.921437 117.660593 
L 530.145343 95.159242 
L 530.36925 106.035633 
L 530.593156 102.017542 
L 531.264876 105.044876 
L 531.488782 107.830022 
L 531.712689 113.620481 
L 531.936595 115.513942 
L 532.832222 121.337424 
L 533.727848 97.482034 
L 534.623474 99.243399 
L 534.847381 102.512921 
L 535.071287 96.150016 
L 535.295194 96.392204 
L 536.19082 101.863424 
L 536.638633 94.080415 
L 536.86254 93.001588 
L 537.758166 72.845051 
L 537.982072 74.077996 
L 538.205979 79.670309 
L 538.429885 79.207955 
L 539.101605 78.580463 
L 539.549418 84.12875 
L 539.773325 81.949058 
L 539.997231 84.271849 
L 540.892857 78.734581 
L 541.116764 80.165688 
L 541.340671 79.086861 
L 541.564577 79.846449 
L 542.236297 78.041058 
L 542.460203 79.075842 
L 542.68411 77.402564 
L 542.908016 76.653978 
L 543.131923 70.42317 
L 544.027549 65.975748 
L 544.251456 70.830495 
L 544.475362 70.786452 
L 544.699269 72.041419 
L 545.370988 67.638024 
L 545.594895 69.047109 
L 545.818802 71.579064 
L 546.266615 74.694468 
L 546.938334 76.037505 
L 547.162241 71.303852 
L 547.386147 72.162513 
L 547.83396 59.711916 
L 548.50568 64.016239 
L 548.729587 62.838323 
L 548.953493 63.43279 
L 549.1774 59.590822 
L 550.073026 59.524774 
L 550.296933 64.049263 
L 550.520839 60.548572 
L 550.744746 60.856808 
L 550.968652 57.818455 
L 551.640372 57.080889 
L 551.864278 56.354324 
L 552.088185 59.83301 
L 552.312091 59.073422 
L 552.535998 56.596512 
L 553.207718 53.106824 
L 553.431624 55.121379 
L 553.655531 54.218692 
L 553.879437 49.881345 
L 554.103344 50.751008 
L 554.775064 49.264873 
L 554.99897 51.224382 
L 555.222877 52.127069 
L 555.446783 47.811744 
L 555.67069 69.124176 
L 556.342409 72.536814 
L 556.566316 70.225025 
L 556.790222 60.801763 
L 557.014129 59.899059 
L 557.909755 61.913614 
L 558.133662 61.726472 
L 558.357568 58.324853 
L 558.581475 51.257406 
L 558.805381 51.20236 
L 559.477101 50.695962 
L 560.148821 61.198069 
L 560.372727 53.613222 
L 560.372727 53.613222 
" clip-path="url(#paa9ac6607f)" style="fill: none; stroke: #1f77b4; stroke-width: 1.5; stroke-linecap: square"/>
   </g>
   <g id="patch_3">
    <path d="M 81 224.28 
L 81 30.24 
" style="fill: none; stroke: #000000; stroke-width: 0.8; stroke-linejoin: miter; stroke-linecap: square"/>
   </g>
   <g id="patch_4">
    <path d="M 81 224.28 
L 583.2 224.28 
" style="fill: none; stroke: #000000; stroke-width: 0.8; stroke-linejoin: miter; stroke-linecap: square"/>
   </g>
  </g>
 </g>
 <defs>
  <clipPath id="paa9ac6607f">
   <rect x="81" y="30.24" width="502.2" height="194.04"/>
  </clipPath>
 </defs>
</svg>
