<?xml version="1.0" encoding="utf-8" standalone="no"?>
<!DOCTYPE svg PUBLIC "-//W3C//DTD SVG 1.1//EN"
  "http://www.w3.org/Graphics/SVG/1.1/DTD/svg11.dtd">
<svg xmlns:xlink="http://www.w3.org/1999/xlink" width="756pt" height="252pt" viewBox="0 0 756 252" xmlns="http://www.w3.org/2000/svg" version="1.1">
 <metadata>
  <rdf:RDF xmlns:dc="http://purl.org/dc/elements/1.1/" xmlns:cc="http://creativecommons.org/ns#" xmlns:rdf="http://www.w3.org/1999/02/22-rdf-syntax-ns#">
   <cc:Work>
    <dc:type rdf:resource="http://purl.org/dc/dcmitype/StillImage"/>
    <dc:date>2025-08-27T15:29:15.020831</dc:date>
    <dc:format>image/svg+xml</dc:format>
    <dc:creator>
     <cc:Agent>
      <dc:title>Matplotlib v3.10.5, https://matplotlib.org/</dc:title>
     </cc:Agent>
    </dc:creator>
   </cc:Work>
  </rdf:RDF>
 </metadata>
 <defs>
  <style type="text/css">*{stroke-linejoin: round; stroke-linecap: butt}</style>
 </defs>
 <g id="figure_1">
  <g id="patch_1">
   <path d="M 0 252 
L 756 252 
L 756 0 
L 0 0 
z
" style="fill: #ffffff"/>
  </g>
  <g id="axes_1">
   <g id="patch_2">
    <path d="M 94.5 224.28 
L 680.4 224.28 
L 680.4 30.24 
L 94.5 30.24 
z
" style="fill: #ffffff"/>
   </g>
   <g id="matplotlib.axis_1">
    <g id="xtick_1">
     <g id="line2d_1">
      <defs>
       <path id="m13a4bc16c4" d="M 0 0 
L 0 3.5 
" style="stroke: #000000; stroke-width: 0.8"/>
      </defs>
      <g>
       <use xlink:href="#m13a4bc16c4" x="134.616283" y="224.28" style="stroke: #000000; stroke-width: 0.8"/>
      </g>
     </g>
     <g id="text_1">
      <!-- 2024-03 -->
      <g transform="translate(113.724877 238.878438) scale(0.1 -0.1)">
       <defs>
        <path id="DejaVuSans-32" d="M 1228 531 
L 3431 531 
L 3431 0 
L 469 0 
L 469 531 
Q 828 903 1448 1529 
Q 2069 2156 2228 2338 
Q 2531 2678 2651 2914 
Q 2772 3150 2772 3378 
Q 2772 3750 2511 3984 
Q 2250 4219 1831 4219 
Q 1534 4219 1204 4116 
Q 875 4013 500 3803 
L 500 4441 
Q 881 4594 1212 4672 
Q 1544 4750 1819 4750 
Q 2544 4750 2975 4387 
Q 3406 4025 3406 3419 
Q 3406 3131 3298 2873 
Q 3191 2616 2906 2266 
Q 2828 2175 2409 1742 
Q 1991 1309 1228 531 
z
" transform="scale(0.015625)"/>
        <path id="DejaVuSans-30" d="M 2034 4250 
Q 1547 4250 1301 3770 
Q 1056 3291 1056 2328 
Q 1056 1369 1301 889 
Q 1547 409 2034 409 
Q 2525 409 2770 889 
Q 3016 1369 3016 2328 
Q 3016 3291 2770 3770 
Q 2525 4250 2034 4250 
z
M 2034 4750 
Q 2819 4750 3233 4129 
Q 3647 3509 3647 2328 
Q 3647 1150 3233 529 
Q 2819 -91 2034 -91 
Q 1250 -91 836 529 
Q 422 1150 422 2328 
Q 422 3509 836 4129 
Q 1250 4750 2034 4750 
z
" transform="scale(0.015625)"/>
        <path id="DejaVuSans-34" d="M 2419 4116 
L 825 1625 
L 2419 1625 
L 2419 4116 
z
M 2253 4666 
L 3047 4666 
L 3047 1625 
L 3713 1625 
L 3713 1100 
L 3047 1100 
L 3047 0 
L 2419 0 
L 2419 1100 
L 313 1100 
L 313 1709 
L 2253 4666 
z
" transform="scale(0.015625)"/>
        <path id="DejaVuSans-2d" d="M 313 2009 
L 1997 2009 
L 1997 1497 
L 313 1497 
L 313 2009 
z
" transform="scale(0.015625)"/>
        <path id="DejaVuSans-33" d="M 2597 2516 
Q 3050 2419 3304 2112 
Q 3559 1806 3559 1356 
Q 3559 666 3084 287 
Q 2609 -91 1734 -91 
Q 1441 -91 1130 -33 
Q 819 25 488 141 
L 488 750 
Q 750 597 1062 519 
Q 1375 441 1716 441 
Q 2309 441 2620 675 
Q 2931 909 2931 1356 
Q 2931 1769 2642 2001 
Q 2353 2234 1838 2234 
L 1294 2234 
L 1294 2753 
L 1863 2753 
Q 2328 2753 2575 2939 
Q 2822 3125 2822 3475 
Q 2822 3834 2567 4026 
Q 2313 4219 1838 4219 
Q 1578 4219 1281 4162 
Q 984 4106 628 3988 
L 628 4550 
Q 988 4650 1302 4700 
Q 1616 4750 1894 4750 
Q 2613 4750 3031 4423 
Q 3450 4097 3450 3541 
Q 3450 3153 3228 2886 
Q 3006 2619 2597 2516 
z
" transform="scale(0.015625)"/>
       </defs>
       <use xlink:href="#DejaVuSans-32"/>
       <use xlink:href="#DejaVuSans-30" transform="translate(63.623047 0)"/>
       <use xlink:href="#DejaVuSans-32" transform="translate(127.246094 0)"/>
       <use xlink:href="#DejaVuSans-34" transform="translate(190.869141 0)"/>
       <use xlink:href="#DejaVuSans-2d" transform="translate(254.492188 0)"/>
       <use xlink:href="#DejaVuSans-30" transform="translate(290.576172 0)"/>
       <use xlink:href="#DejaVuSans-33" transform="translate(354.199219 0)"/>
      </g>
     </g>
    </g>
    <g id="xtick_2">
     <g id="line2d_2">
      <g>
       <use xlink:href="#m13a4bc16c4" x="193.370023" y="224.28" style="stroke: #000000; stroke-width: 0.8"/>
      </g>
     </g>
     <g id="text_2">
      <!-- 2024-05 -->
      <g transform="translate(172.478617 238.878438) scale(0.1 -0.1)">
       <defs>
        <path id="DejaVuSans-35" d="M 691 4666 
L 3169 4666 
L 3169 4134 
L 1269 4134 
L 1269 2991 
Q 1406 3038 1543 3061 
Q 1681 3084 1819 3084 
Q 2600 3084 3056 2656 
Q 3513 2228 3513 1497 
Q 3513 744 3044 326 
Q 2575 -91 1722 -91 
Q 1428 -91 1123 -41 
Q 819 9 494 109 
L 494 744 
Q 775 591 1075 516 
Q 1375 441 1709 441 
Q 2250 441 2565 725 
Q 2881 1009 2881 1497 
Q 2881 1984 2565 2268 
Q 2250 2553 1709 2553 
Q 1456 2553 1204 2497 
Q 953 2441 691 2322 
L 691 4666 
z
" transform="scale(0.015625)"/>
       </defs>
       <use xlink:href="#DejaVuSans-32"/>
       <use xlink:href="#DejaVuSans-30" transform="translate(63.623047 0)"/>
       <use xlink:href="#DejaVuSans-32" transform="translate(127.246094 0)"/>
       <use xlink:href="#DejaVuSans-34" transform="translate(190.869141 0)"/>
       <use xlink:href="#DejaVuSans-2d" transform="translate(254.492188 0)"/>
       <use xlink:href="#DejaVuSans-30" transform="translate(290.576172 0)"/>
       <use xlink:href="#DejaVuSans-35" transform="translate(354.199219 0)"/>
      </g>
     </g>
    </g>
    <g id="xtick_3">
     <g id="line2d_3">
      <g>
       <use xlink:href="#m13a4bc16c4" x="252.123763" y="224.28" style="stroke: #000000; stroke-width: 0.8"/>
      </g>
     </g>
     <g id="text_3">
      <!-- 2024-07 -->
      <g transform="translate(231.232357 238.878438) scale(0.1 -0.1)">
       <defs>
        <path id="DejaVuSans-37" d="M 525 4666 
L 3525 4666 
L 3525 4397 
L 1831 0 
L 1172 0 
L 2766 4134 
L 525 4134 
L 525 4666 
z
" transform="scale(0.015625)"/>
       </defs>
       <use xlink:href="#DejaVuSans-32"/>
       <use xlink:href="#DejaVuSans-30" transform="translate(63.623047 0)"/>
       <use xlink:href="#DejaVuSans-32" transform="translate(127.246094 0)"/>
       <use xlink:href="#DejaVuSans-34" transform="translate(190.869141 0)"/>
       <use xlink:href="#DejaVuSans-2d" transform="translate(254.492188 0)"/>
       <use xlink:href="#DejaVuSans-30" transform="translate(290.576172 0)"/>
       <use xlink:href="#DejaVuSans-37" transform="translate(354.199219 0)"/>
      </g>
     </g>
    </g>
    <g id="xtick_4">
     <g id="line2d_4">
      <g>
       <use xlink:href="#m13a4bc16c4" x="311.840679" y="224.28" style="stroke: #000000; stroke-width: 0.8"/>
      </g>
     </g>
     <g id="text_4">
      <!-- 2024-09 -->
      <g transform="translate(290.949273 238.878438) scale(0.1 -0.1)">
       <defs>
        <path id="DejaVuSans-39" d="M 703 97 
L 703 672 
Q 941 559 1184 500 
Q 1428 441 1663 441 
Q 2288 441 2617 861 
Q 2947 1281 2994 2138 
Q 2813 1869 2534 1725 
Q 2256 1581 1919 1581 
Q 1219 1581 811 2004 
Q 403 2428 403 3163 
Q 403 3881 828 4315 
Q 1253 4750 1959 4750 
Q 2769 4750 3195 4129 
Q 3622 3509 3622 2328 
Q 3622 1225 3098 567 
Q 2575 -91 1691 -91 
Q 1453 -91 1209 -44 
Q 966 3 703 97 
z
M 1959 2075 
Q 2384 2075 2632 2365 
Q 2881 2656 2881 3163 
Q 2881 3666 2632 3958 
Q 2384 4250 1959 4250 
Q 1534 4250 1286 3958 
Q 1038 3666 1038 3163 
Q 1038 2656 1286 2365 
Q 1534 2075 1959 2075 
z
" transform="scale(0.015625)"/>
       </defs>
       <use xlink:href="#DejaVuSans-32"/>
       <use xlink:href="#DejaVuSans-30" transform="translate(63.623047 0)"/>
       <use xlink:href="#DejaVuSans-32" transform="translate(127.246094 0)"/>
       <use xlink:href="#DejaVuSans-34" transform="translate(190.869141 0)"/>
       <use xlink:href="#DejaVuSans-2d" transform="translate(254.492188 0)"/>
       <use xlink:href="#DejaVuSans-30" transform="translate(290.576172 0)"/>
       <use xlink:href="#DejaVuSans-39" transform="translate(354.199219 0)"/>
      </g>
     </g>
    </g>
    <g id="xtick_5">
     <g id="line2d_5">
      <g>
       <use xlink:href="#m13a4bc16c4" x="370.594419" y="224.28" style="stroke: #000000; stroke-width: 0.8"/>
      </g>
     </g>
     <g id="text_5">
      <!-- 2024-11 -->
      <g transform="translate(349.703013 238.878438) scale(0.1 -0.1)">
       <defs>
        <path id="DejaVuSans-31" d="M 794 531 
L 1825 531 
L 1825 4091 
L 703 3866 
L 703 4441 
L 1819 4666 
L 2450 4666 
L 2450 531 
L 3481 531 
L 3481 0 
L 794 0 
L 794 531 
z
" transform="scale(0.015625)"/>
       </defs>
       <use xlink:href="#DejaVuSans-32"/>
       <use xlink:href="#DejaVuSans-30" transform="translate(63.623047 0)"/>
       <use xlink:href="#DejaVuSans-32" transform="translate(127.246094 0)"/>
       <use xlink:href="#DejaVuSans-34" transform="translate(190.869141 0)"/>
       <use xlink:href="#DejaVuSans-2d" transform="translate(254.492188 0)"/>
       <use xlink:href="#DejaVuSans-31" transform="translate(290.576172 0)"/>
       <use xlink:href="#DejaVuSans-31" transform="translate(354.199219 0)"/>
      </g>
     </g>
    </g>
    <g id="xtick_6">
     <g id="line2d_6">
      <g>
       <use xlink:href="#m13a4bc16c4" x="429.348159" y="224.28" style="stroke: #000000; stroke-width: 0.8"/>
      </g>
     </g>
     <g id="text_6">
      <!-- 2025-01 -->
      <g transform="translate(408.456753 238.878438) scale(0.1 -0.1)">
       <use xlink:href="#DejaVuSans-32"/>
       <use xlink:href="#DejaVuSans-30" transform="translate(63.623047 0)"/>
       <use xlink:href="#DejaVuSans-32" transform="translate(127.246094 0)"/>
       <use xlink:href="#DejaVuSans-35" transform="translate(190.869141 0)"/>
       <use xlink:href="#DejaVuSans-2d" transform="translate(254.492188 0)"/>
       <use xlink:href="#DejaVuSans-30" transform="translate(290.576172 0)"/>
       <use xlink:href="#DejaVuSans-31" transform="translate(354.199219 0)"/>
      </g>
     </g>
    </g>
    <g id="xtick_7">
     <g id="line2d_7">
      <g>
       <use xlink:href="#m13a4bc16c4" x="486.175547" y="224.28" style="stroke: #000000; stroke-width: 0.8"/>
      </g>
     </g>
     <g id="text_7">
      <!-- 2025-03 -->
      <g transform="translate(465.28414 238.878438) scale(0.1 -0.1)">
       <use xlink:href="#DejaVuSans-32"/>
       <use xlink:href="#DejaVuSans-30" transform="translate(63.623047 0)"/>
       <use xlink:href="#DejaVuSans-32" transform="translate(127.246094 0)"/>
       <use xlink:href="#DejaVuSans-35" transform="translate(190.869141 0)"/>
       <use xlink:href="#DejaVuSans-2d" transform="translate(254.492188 0)"/>
       <use xlink:href="#DejaVuSans-30" transform="translate(290.576172 0)"/>
       <use xlink:href="#DejaVuSans-33" transform="translate(354.199219 0)"/>
      </g>
     </g>
    </g>
    <g id="xtick_8">
     <g id="line2d_8">
      <g>
       <use xlink:href="#m13a4bc16c4" x="544.929287" y="224.28" style="stroke: #000000; stroke-width: 0.8"/>
      </g>
     </g>
     <g id="text_8">
      <!-- 2025-05 -->
      <g transform="translate(524.03788 238.878438) scale(0.1 -0.1)">
       <use xlink:href="#DejaVuSans-32"/>
       <use xlink:href="#DejaVuSans-30" transform="translate(63.623047 0)"/>
       <use xlink:href="#DejaVuSans-32" transform="translate(127.246094 0)"/>
       <use xlink:href="#DejaVuSans-35" transform="translate(190.869141 0)"/>
       <use xlink:href="#DejaVuSans-2d" transform="translate(254.492188 0)"/>
       <use xlink:href="#DejaVuSans-30" transform="translate(290.576172 0)"/>
       <use xlink:href="#DejaVuSans-35" transform="translate(354.199219 0)"/>
      </g>
     </g>
    </g>
    <g id="xtick_9">
     <g id="line2d_9">
      <g>
       <use xlink:href="#m13a4bc16c4" x="603.683026" y="224.28" style="stroke: #000000; stroke-width: 0.8"/>
      </g>
     </g>
     <g id="text_9">
      <!-- 2025-07 -->
      <g transform="translate(582.79162 238.878438) scale(0.1 -0.1)">
       <use xlink:href="#DejaVuSans-32"/>
       <use xlink:href="#DejaVuSans-30" transform="translate(63.623047 0)"/>
       <use xlink:href="#DejaVuSans-32" transform="translate(127.246094 0)"/>
       <use xlink:href="#DejaVuSans-35" transform="translate(190.869141 0)"/>
       <use xlink:href="#DejaVuSans-2d" transform="translate(254.492188 0)"/>
       <use xlink:href="#DejaVuSans-30" transform="translate(290.576172 0)"/>
       <use xlink:href="#DejaVuSans-37" transform="translate(354.199219 0)"/>
      </g>
     </g>
    </g>
    <g id="xtick_10">
     <g id="line2d_10">
      <g>
       <use xlink:href="#m13a4bc16c4" x="663.399942" y="224.28" style="stroke: #000000; stroke-width: 0.8"/>
      </g>
     </g>
     <g id="text_10">
      <!-- 2025-09 -->
      <g transform="translate(642.508536 238.878438) scale(0.1 -0.1)">
       <use xlink:href="#DejaVuSans-32"/>
       <use xlink:href="#DejaVuSans-30" transform="translate(63.623047 0)"/>
       <use xlink:href="#DejaVuSans-32" transform="translate(127.246094 0)"/>
       <use xlink:href="#DejaVuSans-35" transform="translate(190.869141 0)"/>
       <use xlink:href="#DejaVuSans-2d" transform="translate(254.492188 0)"/>
       <use xlink:href="#DejaVuSans-30" transform="translate(290.576172 0)"/>
       <use xlink:href="#DejaVuSans-39" transform="translate(354.199219 0)"/>
      </g>
     </g>
    </g>
   </g>
   <g id="matplotlib.axis_2">
    <g id="ytick_1">
     <g id="line2d_11">
      <defs>
       <path id="m7fdeef1358" d="M 0 0 
L -3.5 0 
" style="stroke: #000000; stroke-width: 0.8"/>
      </defs>
      <g>
       <use xlink:href="#m7fdeef1358" x="94.5" y="217.680246" style="stroke: #000000; stroke-width: 0.8"/>
      </g>
     </g>
     <g id="text_11">
      <!-- 160 -->
      <g transform="translate(68.4125 221.479465) scale(0.1 -0.1)">
       <defs>
        <path id="DejaVuSans-36" d="M 2113 2584 
Q 1688 2584 1439 2293 
Q 1191 2003 1191 1497 
Q 1191 994 1439 701 
Q 1688 409 2113 409 
Q 2538 409 2786 701 
Q 3034 994 3034 1497 
Q 3034 2003 2786 2293 
Q 2538 2584 2113 2584 
z
M 3366 4563 
L 3366 3988 
Q 3128 4100 2886 4159 
Q 2644 4219 2406 4219 
Q 1781 4219 1451 3797 
Q 1122 3375 1075 2522 
Q 1259 2794 1537 2939 
Q 1816 3084 2150 3084 
Q 2853 3084 3261 2657 
Q 3669 2231 3669 1497 
Q 3669 778 3244 343 
Q 2819 -91 2113 -91 
Q 1303 -91 875 529 
Q 447 1150 447 2328 
Q 447 3434 972 4092 
Q 1497 4750 2381 4750 
Q 2619 4750 2861 4703 
Q 3103 4656 3366 4563 
z
" transform="scale(0.015625)"/>
       </defs>
       <use xlink:href="#DejaVuSans-31"/>
       <use xlink:href="#DejaVuSans-36" transform="translate(63.623047 0)"/>
       <use xlink:href="#DejaVuSans-30" transform="translate(127.246094 0)"/>
      </g>
     </g>
    </g>
    <g id="ytick_2">
     <g id="line2d_12">
      <g>
       <use xlink:href="#m7fdeef1358" x="94.5" y="195.913216" style="stroke: #000000; stroke-width: 0.8"/>
      </g>
     </g>
     <g id="text_12">
      <!-- 170 -->
      <g transform="translate(68.4125 199.712435) scale(0.1 -0.1)">
       <use xlink:href="#DejaVuSans-31"/>
       <use xlink:href="#DejaVuSans-37" transform="translate(63.623047 0)"/>
       <use xlink:href="#DejaVuSans-30" transform="translate(127.246094 0)"/>
      </g>
     </g>
    </g>
    <g id="ytick_3">
     <g id="line2d_13">
      <g>
       <use xlink:href="#m7fdeef1358" x="94.5" y="174.146186" style="stroke: #000000; stroke-width: 0.8"/>
      </g>
     </g>
     <g id="text_13">
      <!-- 180 -->
      <g transform="translate(68.4125 177.945404) scale(0.1 -0.1)">
       <defs>
        <path id="DejaVuSans-38" d="M 2034 2216 
Q 1584 2216 1326 1975 
Q 1069 1734 1069 1313 
Q 1069 891 1326 650 
Q 1584 409 2034 409 
Q 2484 409 2743 651 
Q 3003 894 3003 1313 
Q 3003 1734 2745 1975 
Q 2488 2216 2034 2216 
z
M 1403 2484 
Q 997 2584 770 2862 
Q 544 3141 544 3541 
Q 544 4100 942 4425 
Q 1341 4750 2034 4750 
Q 2731 4750 3128 4425 
Q 3525 4100 3525 3541 
Q 3525 3141 3298 2862 
Q 3072 2584 2669 2484 
Q 3125 2378 3379 2068 
Q 3634 1759 3634 1313 
Q 3634 634 3220 271 
Q 2806 -91 2034 -91 
Q 1263 -91 848 271 
Q 434 634 434 1313 
Q 434 1759 690 2068 
Q 947 2378 1403 2484 
z
M 1172 3481 
Q 1172 3119 1398 2916 
Q 1625 2713 2034 2713 
Q 2441 2713 2670 2916 
Q 2900 3119 2900 3481 
Q 2900 3844 2670 4047 
Q 2441 4250 2034 4250 
Q 1625 4250 1398 4047 
Q 1172 3844 1172 3481 
z
" transform="scale(0.015625)"/>
       </defs>
       <use xlink:href="#DejaVuSans-31"/>
       <use xlink:href="#DejaVuSans-38" transform="translate(63.623047 0)"/>
       <use xlink:href="#DejaVuSans-30" transform="translate(127.246094 0)"/>
      </g>
     </g>
    </g>
    <g id="ytick_4">
     <g id="line2d_14">
      <g>
       <use xlink:href="#m7fdeef1358" x="94.5" y="152.379155" style="stroke: #000000; stroke-width: 0.8"/>
      </g>
     </g>
     <g id="text_14">
      <!-- 190 -->
      <g transform="translate(68.4125 156.178374) scale(0.1 -0.1)">
       <use xlink:href="#DejaVuSans-31"/>
       <use xlink:href="#DejaVuSans-39" transform="translate(63.623047 0)"/>
       <use xlink:href="#DejaVuSans-30" transform="translate(127.246094 0)"/>
      </g>
     </g>
    </g>
    <g id="ytick_5">
     <g id="line2d_15">
      <g>
       <use xlink:href="#m7fdeef1358" x="94.5" y="130.612125" style="stroke: #000000; stroke-width: 0.8"/>
      </g>
     </g>
     <g id="text_15">
      <!-- 200 -->
      <g transform="translate(68.4125 134.411343) scale(0.1 -0.1)">
       <use xlink:href="#DejaVuSans-32"/>
       <use xlink:href="#DejaVuSans-30" transform="translate(63.623047 0)"/>
       <use xlink:href="#DejaVuSans-30" transform="translate(127.246094 0)"/>
      </g>
     </g>
    </g>
    <g id="ytick_6">
     <g id="line2d_16">
      <g>
       <use xlink:href="#m7fdeef1358" x="94.5" y="108.845094" style="stroke: #000000; stroke-width: 0.8"/>
      </g>
     </g>
     <g id="text_16">
      <!-- 210 -->
      <g transform="translate(68.4125 112.644313) scale(0.1 -0.1)">
       <use xlink:href="#DejaVuSans-32"/>
       <use xlink:href="#DejaVuSans-31" transform="translate(63.623047 0)"/>
       <use xlink:href="#DejaVuSans-30" transform="translate(127.246094 0)"/>
      </g>
     </g>
    </g>
    <g id="ytick_7">
     <g id="line2d_17">
      <g>
       <use xlink:href="#m7fdeef1358" x="94.5" y="87.078064" style="stroke: #000000; stroke-width: 0.8"/>
      </g>
     </g>
     <g id="text_17">
      <!-- 220 -->
      <g transform="translate(68.4125 90.877283) scale(0.1 -0.1)">
       <use xlink:href="#DejaVuSans-32"/>
       <use xlink:href="#DejaVuSans-32" transform="translate(63.623047 0)"/>
       <use xlink:href="#DejaVuSans-30" transform="translate(127.246094 0)"/>
      </g>
     </g>
    </g>
    <g id="ytick_8">
     <g id="line2d_18">
      <g>
       <use xlink:href="#m7fdeef1358" x="94.5" y="65.311033" style="stroke: #000000; stroke-width: 0.8"/>
      </g>
     </g>
     <g id="text_18">
      <!-- 230 -->
      <g transform="translate(68.4125 69.110252) scale(0.1 -0.1)">
       <use xlink:href="#DejaVuSans-32"/>
       <use xlink:href="#DejaVuSans-33" transform="translate(63.623047 0)"/>
       <use xlink:href="#DejaVuSans-30" transform="translate(127.246094 0)"/>
      </g>
     </g>
    </g>
    <g id="ytick_9">
     <g id="line2d_19">
      <g>
       <use xlink:href="#m7fdeef1358" x="94.5" y="43.544003" style="stroke: #000000; stroke-width: 0.8"/>
      </g>
     </g>
     <g id="text_19">
      <!-- 240 -->
      <g transform="translate(68.4125 47.343222) scale(0.1 -0.1)">
       <use xlink:href="#DejaVuSans-32"/>
       <use xlink:href="#DejaVuSans-34" transform="translate(63.623047 0)"/>
       <use xlink:href="#DejaVuSans-30" transform="translate(127.246094 0)"/>
      </g>
     </g>
    </g>
   </g>
   <g id="line2d_20">
    <path d="M 121.131818 196.979812 
L 124.984522 202.269185 
L 125.947699 198.982375 
L 126.910875 185.943912 
L 127.874051 185.051456 
L 130.763579 185.61742 
L 131.726755 188.207702 
L 132.689931 189.034826 
L 133.653107 181.198715 
L 134.616283 178.020714 
L 137.505811 179.413803 
L 138.468987 186.94521 
L 139.432163 188.273 
L 140.395339 181.068085 
L 141.358516 184.267841 
L 144.248044 191.646863 
L 145.21122 184.180788 
L 146.174396 181.634049 
L 147.137572 176.867064 
L 148.100748 186.292193 
L 150.990276 186.161596 
L 151.953452 183.070681 
L 152.916628 178.173099 
L 153.879804 178.173099 
L 154.84298 176.605871 
L 157.732509 174.777415 
L 158.695685 177.846574 
L 159.658861 174.516221 
L 160.622037 173.319028 
L 164.474741 172.034781 
L 165.437917 172.644255 
L 166.401093 168.900323 
L 167.364269 174.146186 
L 168.327445 163.110285 
L 171.216974 162.849091 
L 172.18015 161.804283 
L 173.143326 161.194809 
L 174.106502 154.447016 
L 175.069678 160.802985 
L 177.959206 166.266531 
L 178.922382 166.919515 
L 180.848734 175.844011 
L 181.81191 185.83507 
L 184.701438 180.175662 
L 185.664614 175.147484 
L 187.590967 187.92472 
L 188.554143 174.973343 
L 191.443671 172.056536 
L 192.406847 185.029701 
L 193.370023 176.322889 
L 194.333199 163.872145 
L 195.296375 160.628845 
L 198.185903 155.208876 
L 199.149079 155.078279 
L 200.112255 156.732561 
L 201.075432 153.467507 
L 202.038608 157.864456 
L 204.928136 159.845231 
L 205.891312 158.756879 
L 206.854488 161.107722 
L 207.817664 166.244743 
L 208.78084 163.915688 
L 212.633544 167.289584 
L 213.59672 167.333094 
L 214.559896 171.860641 
L 215.523072 172.513658 
L 219.375777 169.466287 
L 220.338953 169.749236 
L 222.265305 181.895243 
L 225.154833 177.759521 
L 226.118009 175.582818 
L 227.081185 171.360008 
L 228.044361 163.26267 
L 229.007537 164.786356 
L 231.897066 158.778667 
L 232.860242 158.408632 
L 233.823418 159.148703 
L 234.786594 165.809409 
L 235.74977 166.179444 
L 238.639298 165.308777 
L 239.602474 168.029655 
L 241.528826 160.868284 
L 242.492002 154.381718 
L 245.38153 162.021934 
L 246.344707 160.345896 
L 247.307883 144.521256 
L 248.271059 135.292023 
L 249.234235 145.30487 
L 252.123763 136.7069 
L 253.086939 130.612125 
L 254.050115 135.857987 
L 255.976467 130.612125 
L 258.865995 132.157598 
L 259.829171 132.048757 
L 260.792348 131.069247 
L 261.755524 141.386798 
L 262.7187 142.605746 
L 265.608228 146.45852 
L 266.571404 145.805503 
L 267.53458 156.884946 
L 268.497756 165.983549 
L 269.460932 167.333094 
L 272.35046 168.595586 
L 273.313636 160.193511 
L 274.276812 172.339518 
L 275.239988 174.472678 
L 276.203165 168.704428 
L 279.092693 167.180742 
L 280.055869 170.424009 
L 281.019045 158.952808 
L 281.982221 165.286988 
L 282.945397 200.484306 
L 285.834925 215.46 
L 287.761277 211.65077 
L 288.724453 205.055362 
L 289.687629 202.573922 
L 292.577158 202.878659 
L 293.540334 195.412584 
L 294.50351 195.695532 
L 295.466686 179.392048 
L 296.429862 180.545698 
L 299.31939 178.020714 
L 300.282566 176.584082 
L 301.245742 173.906747 
L 302.208918 182.570016 
L 303.172094 180.589241 
L 306.061623 183.941349 
L 307.987975 194.171847 
L 308.951151 191.298616 
L 309.914327 177.41124 
L 313.767031 182.308822 
L 314.730207 188.664791 
L 315.693383 178.73903 
L 316.656559 192.8876 
L 319.546087 184.159033 
L 320.509264 175.125695 
L 321.47244 164.307478 
L 322.435616 158.909264 
L 326.28832 163.502109 
L 327.251496 159.170458 
L 328.214672 160.150001 
L 329.177848 152.662137 
L 330.141024 148.896417 
L 333.030552 143.933537 
L 333.993728 143.759396 
L 335.920081 149.854172 
L 336.883257 156.79786 
L 339.772785 160.367651 
L 340.735961 162.979688 
L 341.699137 163.785091 
L 342.662313 169.879833 
L 343.625489 159.975861 
L 346.515017 172.404816 
L 347.478193 168.225551 
L 348.441369 162.892635 
L 349.404545 159.671124 
L 350.367722 154.947649 
L 353.25725 157.733859 
L 354.220426 157.407334 
L 355.183602 159.148703 
L 356.146778 157.755614 
L 357.109954 154.577613 
L 359.999482 154.403473 
L 360.962658 153.032173 
L 361.925834 163.8939 
L 362.88901 160.258809 
L 363.852186 157.102597 
L 366.741715 155.883648 
L 367.704891 150.572488 
L 368.668067 146.436765 
L 369.631243 160.215299 
L 370.594419 135.117916 
L 373.483947 139.797814 
L 374.447123 131.700476 
L 375.410299 115.179308 
L 376.373475 108.736252 
L 377.336651 112.80671 
L 380.22618 115.723484 
L 381.189356 111.217693 
L 382.152532 99.920598 
L 383.115708 105.623583 
L 384.078884 124.930928 
L 386.968412 126.911736 
L 387.931588 120.577522 
L 388.894764 124.343209 
L 389.85794 134.138373 
L 390.821116 136.88104 
L 393.710644 127.455912 
L 394.67382 113.503237 
L 395.636997 118.117837 
L 397.563349 113.437939 
L 400.452877 107.29962 
L 401.416053 101.35723 
L 402.379229 91.083189 
L 403.342405 85.880871 
L 404.305581 71.775844 
L 407.195109 73.82195 
L 408.158285 76.107495 
L 409.121461 64.745103 
L 410.084638 67.553035 
L 411.047814 70.839845 
L 413.937342 58.933309 
L 414.900518 62.807838 
L 415.863694 85.946169 
L 416.82687 79.916725 
L 417.790046 76.368689 
L 420.679574 76.063952 
L 421.64275 67.378895 
L 423.569102 71.732301 
L 424.532278 78.915427 
L 427.421807 84.248343 
L 428.384983 88.405854 
L 430.311335 86.599186 
L 431.274511 77.957673 
L 434.164039 70.513352 
L 435.127215 82.485219 
L 436.090391 82.441676 
L 438.016743 89.385364 
L 440.906272 90.430172 
L 441.869448 91.953891 
L 442.832624 79.786095 
L 443.7958 85.641432 
L 444.758976 74.148442 
L 448.61168 63.76556 
L 449.574856 54.405763 
L 450.538032 53.513307 
L 451.501208 54.75401 
L 454.390736 53.513307 
L 455.353913 47.570917 
L 456.317089 49.921727 
L 457.280265 55.211133 
L 458.243441 48.59397 
L 461.132969 49.159901 
L 462.096145 39.06 
L 463.059321 51.88078 
L 464.022497 46.090742 
L 464.985673 67.161244 
L 467.875201 58.476187 
L 468.838377 59.303345 
L 469.801554 67.640122 
L 470.76473 64.505664 
L 471.727906 68.184297 
L 475.58061 72.603002 
L 476.543786 72.646512 
L 477.506962 80.809148 
L 478.470138 94.522384 
L 481.359666 102.946214 
L 482.322842 102.750319 
L 483.286018 99.376423 
L 484.249194 111.587728 
L 485.212371 103.882214 
L 488.101899 119.685066 
L 489.065075 122.340646 
L 490.028251 112.414886 
L 490.991427 129.088439 
L 491.954603 132.244652 
L 494.844131 142.496938 
L 495.807307 138.03469 
L 496.770483 133.028266 
L 497.733659 143.911782 
L 498.696835 135.074373 
L 501.586364 139.884868 
L 502.54954 146.240837 
L 503.512716 140.320235 
L 504.475892 141.604482 
L 505.439068 138.861815 
L 509.291772 118.183136 
L 510.254948 128.15244 
L 511.218124 127.651807 
L 512.1813 146.45852 
L 515.070829 151.813224 
L 516.034005 147.655713 
L 516.997181 139.297182 
L 517.960357 177.607135 
L 518.923533 193.736513 
L 521.813061 184.46377 
L 522.776237 194.476584 
L 523.739413 149.984768 
L 524.702589 171.490605 
L 525.665765 163.545652 
L 528.555293 169.531586 
L 529.51847 175.038642 
L 530.481646 186.488088 
L 531.444822 190.23202 
L 535.297526 201.746764 
L 536.260702 188.991316 
L 537.223878 172.84015 
L 538.187054 159.910562 
L 539.15023 154.577613 
L 542.039758 157.385579 
L 543.002934 158.060351 
L 543.96611 164.525162 
L 544.929287 151.943821 
L 545.892463 152.422698 
L 549.745167 163.240915 
L 551.671519 147.851609 
L 552.634695 145.718449 
L 555.524223 111.805412 
L 556.487399 105.863022 
L 557.450575 108.300918 
L 558.413751 119.358574 
L 559.376928 118.444363 
L 562.266456 117.203626 
L 563.229632 121.752927 
L 564.192808 128.174228 
L 565.155984 123.864332 
L 566.11916 128.457177 
L 569.971864 117.508363 
L 570.93504 120.338084 
L 571.898216 118.204924 
L 572.861392 119.706854 
L 575.750921 116.137063 
L 576.714097 118.183136 
L 577.677273 114.874571 
L 578.640449 113.394396 
L 579.603625 101.074248 
L 582.493153 93.651716 
L 583.456329 92.280383 
L 584.419505 101.879651 
L 585.382681 101.792564 
L 586.345857 104.274005 
L 589.235386 95.567192 
L 590.198562 98.35337 
L 591.161738 103.359793 
L 593.08809 109.519867 
L 595.977618 112.175447 
L 596.940794 102.815618 
L 597.90397 104.513443 
L 598.867146 93.346979 
L 599.830322 79.894937 
L 602.71985 88.405854 
L 603.683026 86.076766 
L 604.646203 87.252204 
L 605.609379 79.655498 
L 609.462083 79.524902 
L 610.425259 88.471152 
L 611.388435 81.549253 
L 612.351611 82.158727 
L 613.314787 76.151005 
L 616.204315 74.692618 
L 617.167491 73.255986 
L 618.130667 80.134376 
L 619.093843 78.632445 
L 620.05702 73.734864 
L 622.946548 66.834719 
L 623.909724 70.818089 
L 624.8729 69.03321 
L 625.836076 60.456995 
L 626.799252 62.176576 
L 629.68878 59.238047 
L 630.651956 63.112575 
L 631.615132 64.897454 
L 632.578308 56.364783 
L 633.541484 98.505755 
L 636.431013 105.253548 
L 637.394189 100.682458 
L 638.357365 82.049885 
L 639.320541 80.264973 
L 643.173245 84.248343 
L 644.136421 83.878308 
L 645.099597 77.152303 
L 646.062773 63.177874 
L 647.025949 63.069032 
L 649.915478 62.067734 
L 650.878654 69.642684 
L 651.84183 78.784831 
L 652.805006 82.8335 
L 653.768182 67.836017 
L 653.768182 67.836017 
" clip-path="url(#p4e969c42f7)" style="fill: none; stroke: #1f77b4; stroke-width: 1.5; stroke-linecap: square"/>
   </g>
   <g id="patch_3">
    <path d="M 94.5 224.28 
L 94.5 30.24 
" style="fill: none; stroke: #000000; stroke-width: 0.8; stroke-linejoin: miter; stroke-linecap: square"/>
   </g>
   <g id="patch_4">
    <path d="M 94.5 224.28 
L 680.4 224.28 
" style="fill: none; stroke: #000000; stroke-width: 0.8; stroke-linejoin: miter; stroke-linecap: square"/>
   </g>
  </g>
 </g>
 <defs>
  <clipPath id="p4e969c42f7">
   <rect x="94.5" y="30.24" width="585.9" height="194.04"/>
  </clipPath>
 </defs>
</svg>
