<?xml version="1.0" encoding="utf-8" standalone="no"?>
<!DOCTYPE svg PUBLIC "-//W3C//DTD SVG 1.1//EN"
  "http://www.w3.org/Graphics/SVG/1.1/DTD/svg11.dtd">
<svg xmlns:xlink="http://www.w3.org/1999/xlink" width="648pt" height="252pt" viewBox="0 0 648 252" xmlns="http://www.w3.org/2000/svg" version="1.1">
 <metadata>
  <rdf:RDF xmlns:dc="http://purl.org/dc/elements/1.1/" xmlns:cc="http://creativecommons.org/ns#" xmlns:rdf="http://www.w3.org/1999/02/22-rdf-syntax-ns#">
   <cc:Work>
    <dc:type rdf:resource="http://purl.org/dc/dcmitype/StillImage"/>
    <dc:date>2025-08-25T18:02:43.103255</dc:date>
    <dc:format>image/svg+xml</dc:format>
    <dc:creator>
     <cc:Agent>
      <dc:title>Matplotlib v3.10.5, https://matplotlib.org/</dc:title>
     </cc:Agent>
    </dc:creator>
   </cc:Work>
  </rdf:RDF>
 </metadata>
 <defs>
  <style type="text/css">*{stroke-linejoin: round; stroke-linecap: butt}</style>
 </defs>
 <g id="figure_1">
  <g id="patch_1">
   <path d="M 0 252 
L 648 252 
L 648 0 
L 0 0 
z
" style="fill: #ffffff"/>
  </g>
  <g id="axes_1">
   <g id="patch_2">
    <path d="M 81 224.28 
L 583.2 224.28 
L 583.2 30.24 
L 81 30.24 
z
" style="fill: #ffffff"/>
   </g>
   <g id="matplotlib.axis_1">
    <g id="xtick_1">
     <g id="line2d_1">
      <defs>
       <path id="m5eddb03f89" d="M 0 0 
L 0 3.5 
" style="stroke: #000000; stroke-width: 0.8"/>
      </defs>
      <g>
       <use xlink:href="#m5eddb03f89" x="99.125235" y="224.28" style="stroke: #000000; stroke-width: 0.8"/>
      </g>
     </g>
     <g id="text_1">
      <!-- 2020 -->
      <g transform="translate(86.400235 238.878438) scale(0.1 -0.1)">
       <defs>
        <path id="DejaVuSans-32" d="M 1228 531 
L 3431 531 
L 3431 0 
L 469 0 
L 469 531 
Q 828 903 1448 1529 
Q 2069 2156 2228 2338 
Q 2531 2678 2651 2914 
Q 2772 3150 2772 3378 
Q 2772 3750 2511 3984 
Q 2250 4219 1831 4219 
Q 1534 4219 1204 4116 
Q 875 4013 500 3803 
L 500 4441 
Q 881 4594 1212 4672 
Q 1544 4750 1819 4750 
Q 2544 4750 2975 4387 
Q 3406 4025 3406 3419 
Q 3406 3131 3298 2873 
Q 3191 2616 2906 2266 
Q 2828 2175 2409 1742 
Q 1991 1309 1228 531 
z
" transform="scale(0.015625)"/>
        <path id="DejaVuSans-30" d="M 2034 4250 
Q 1547 4250 1301 3770 
Q 1056 3291 1056 2328 
Q 1056 1369 1301 889 
Q 1547 409 2034 409 
Q 2525 409 2770 889 
Q 3016 1369 3016 2328 
Q 3016 3291 2770 3770 
Q 2525 4250 2034 4250 
z
M 2034 4750 
Q 2819 4750 3233 4129 
Q 3647 3509 3647 2328 
Q 3647 1150 3233 529 
Q 2819 -91 2034 -91 
Q 1250 -91 836 529 
Q 422 1150 422 2328 
Q 422 3509 836 4129 
Q 1250 4750 2034 4750 
z
" transform="scale(0.015625)"/>
       </defs>
       <use xlink:href="#DejaVuSans-32"/>
       <use xlink:href="#DejaVuSans-30" transform="translate(63.623047 0)"/>
       <use xlink:href="#DejaVuSans-32" transform="translate(127.246094 0)"/>
       <use xlink:href="#DejaVuSans-30" transform="translate(190.869141 0)"/>
      </g>
     </g>
    </g>
    <g id="xtick_2">
     <g id="line2d_2">
      <g>
       <use xlink:href="#m5eddb03f89" x="181.075032" y="224.28" style="stroke: #000000; stroke-width: 0.8"/>
      </g>
     </g>
     <g id="text_2">
      <!-- 2021 -->
      <g transform="translate(168.350032 238.878438) scale(0.1 -0.1)">
       <defs>
        <path id="DejaVuSans-31" d="M 794 531 
L 1825 531 
L 1825 4091 
L 703 3866 
L 703 4441 
L 1819 4666 
L 2450 4666 
L 2450 531 
L 3481 531 
L 3481 0 
L 794 0 
L 794 531 
z
" transform="scale(0.015625)"/>
       </defs>
       <use xlink:href="#DejaVuSans-32"/>
       <use xlink:href="#DejaVuSans-30" transform="translate(63.623047 0)"/>
       <use xlink:href="#DejaVuSans-32" transform="translate(127.246094 0)"/>
       <use xlink:href="#DejaVuSans-31" transform="translate(190.869141 0)"/>
      </g>
     </g>
    </g>
    <g id="xtick_3">
     <g id="line2d_3">
      <g>
       <use xlink:href="#m5eddb03f89" x="262.800923" y="224.28" style="stroke: #000000; stroke-width: 0.8"/>
      </g>
     </g>
     <g id="text_3">
      <!-- 2022 -->
      <g transform="translate(250.075923 238.878438) scale(0.1 -0.1)">
       <use xlink:href="#DejaVuSans-32"/>
       <use xlink:href="#DejaVuSans-30" transform="translate(63.623047 0)"/>
       <use xlink:href="#DejaVuSans-32" transform="translate(127.246094 0)"/>
       <use xlink:href="#DejaVuSans-32" transform="translate(190.869141 0)"/>
      </g>
     </g>
    </g>
    <g id="xtick_4">
     <g id="line2d_4">
      <g>
       <use xlink:href="#m5eddb03f89" x="344.526814" y="224.28" style="stroke: #000000; stroke-width: 0.8"/>
      </g>
     </g>
     <g id="text_4">
      <!-- 2023 -->
      <g transform="translate(331.801814 238.878438) scale(0.1 -0.1)">
       <defs>
        <path id="DejaVuSans-33" d="M 2597 2516 
Q 3050 2419 3304 2112 
Q 3559 1806 3559 1356 
Q 3559 666 3084 287 
Q 2609 -91 1734 -91 
Q 1441 -91 1130 -33 
Q 819 25 488 141 
L 488 750 
Q 750 597 1062 519 
Q 1375 441 1716 441 
Q 2309 441 2620 675 
Q 2931 909 2931 1356 
Q 2931 1769 2642 2001 
Q 2353 2234 1838 2234 
L 1294 2234 
L 1294 2753 
L 1863 2753 
Q 2328 2753 2575 2939 
Q 2822 3125 2822 3475 
Q 2822 3834 2567 4026 
Q 2313 4219 1838 4219 
Q 1578 4219 1281 4162 
Q 984 4106 628 3988 
L 628 4550 
Q 988 4650 1302 4700 
Q 1616 4750 1894 4750 
Q 2613 4750 3031 4423 
Q 3450 4097 3450 3541 
Q 3450 3153 3228 2886 
Q 3006 2619 2597 2516 
z
" transform="scale(0.015625)"/>
       </defs>
       <use xlink:href="#DejaVuSans-32"/>
       <use xlink:href="#DejaVuSans-30" transform="translate(63.623047 0)"/>
       <use xlink:href="#DejaVuSans-32" transform="translate(127.246094 0)"/>
       <use xlink:href="#DejaVuSans-33" transform="translate(190.869141 0)"/>
      </g>
     </g>
    </g>
    <g id="xtick_5">
     <g id="line2d_5">
      <g>
       <use xlink:href="#m5eddb03f89" x="426.252704" y="224.28" style="stroke: #000000; stroke-width: 0.8"/>
      </g>
     </g>
     <g id="text_5">
      <!-- 2024 -->
      <g transform="translate(413.527704 238.878438) scale(0.1 -0.1)">
       <defs>
        <path id="DejaVuSans-34" d="M 2419 4116 
L 825 1625 
L 2419 1625 
L 2419 4116 
z
M 2253 4666 
L 3047 4666 
L 3047 1625 
L 3713 1625 
L 3713 1100 
L 3047 1100 
L 3047 0 
L 2419 0 
L 2419 1100 
L 313 1100 
L 313 1709 
L 2253 4666 
z
" transform="scale(0.015625)"/>
       </defs>
       <use xlink:href="#DejaVuSans-32"/>
       <use xlink:href="#DejaVuSans-30" transform="translate(63.623047 0)"/>
       <use xlink:href="#DejaVuSans-32" transform="translate(127.246094 0)"/>
       <use xlink:href="#DejaVuSans-34" transform="translate(190.869141 0)"/>
      </g>
     </g>
    </g>
    <g id="xtick_6">
     <g id="line2d_6">
      <g>
       <use xlink:href="#m5eddb03f89" x="508.202501" y="224.28" style="stroke: #000000; stroke-width: 0.8"/>
      </g>
     </g>
     <g id="text_6">
      <!-- 2025 -->
      <g transform="translate(495.477501 238.878438) scale(0.1 -0.1)">
       <defs>
        <path id="DejaVuSans-35" d="M 691 4666 
L 3169 4666 
L 3169 4134 
L 1269 4134 
L 1269 2991 
Q 1406 3038 1543 3061 
Q 1681 3084 1819 3084 
Q 2600 3084 3056 2656 
Q 3513 2228 3513 1497 
Q 3513 744 3044 326 
Q 2575 -91 1722 -91 
Q 1428 -91 1123 -41 
Q 819 9 494 109 
L 494 744 
Q 775 591 1075 516 
Q 1375 441 1709 441 
Q 2250 441 2565 725 
Q 2881 1009 2881 1497 
Q 2881 1984 2565 2268 
Q 2250 2553 1709 2553 
Q 1456 2553 1204 2497 
Q 953 2441 691 2322 
L 691 4666 
z
" transform="scale(0.015625)"/>
       </defs>
       <use xlink:href="#DejaVuSans-32"/>
       <use xlink:href="#DejaVuSans-30" transform="translate(63.623047 0)"/>
       <use xlink:href="#DejaVuSans-32" transform="translate(127.246094 0)"/>
       <use xlink:href="#DejaVuSans-35" transform="translate(190.869141 0)"/>
      </g>
     </g>
    </g>
   </g>
   <g id="matplotlib.axis_2">
    <g id="ytick_1">
     <g id="line2d_7">
      <defs>
       <path id="ma34b194a9d" d="M 0 0 
L -3.5 0 
" style="stroke: #000000; stroke-width: 0.8"/>
      </defs>
      <g>
       <use xlink:href="#ma34b194a9d" x="81" y="206.401118" style="stroke: #000000; stroke-width: 0.8"/>
      </g>
     </g>
     <g id="text_7">
      <!-- 150 -->
      <g transform="translate(54.9125 210.200337) scale(0.1 -0.1)">
       <use xlink:href="#DejaVuSans-31"/>
       <use xlink:href="#DejaVuSans-35" transform="translate(63.623047 0)"/>
       <use xlink:href="#DejaVuSans-30" transform="translate(127.246094 0)"/>
      </g>
     </g>
    </g>
    <g id="ytick_2">
     <g id="line2d_8">
      <g>
       <use xlink:href="#ma34b194a9d" x="81" y="184.655001" style="stroke: #000000; stroke-width: 0.8"/>
      </g>
     </g>
     <g id="text_8">
      <!-- 200 -->
      <g transform="translate(54.9125 188.45422) scale(0.1 -0.1)">
       <use xlink:href="#DejaVuSans-32"/>
       <use xlink:href="#DejaVuSans-30" transform="translate(63.623047 0)"/>
       <use xlink:href="#DejaVuSans-30" transform="translate(127.246094 0)"/>
      </g>
     </g>
    </g>
    <g id="ytick_3">
     <g id="line2d_9">
      <g>
       <use xlink:href="#ma34b194a9d" x="81" y="162.908885" style="stroke: #000000; stroke-width: 0.8"/>
      </g>
     </g>
     <g id="text_9">
      <!-- 250 -->
      <g transform="translate(54.9125 166.708104) scale(0.1 -0.1)">
       <use xlink:href="#DejaVuSans-32"/>
       <use xlink:href="#DejaVuSans-35" transform="translate(63.623047 0)"/>
       <use xlink:href="#DejaVuSans-30" transform="translate(127.246094 0)"/>
      </g>
     </g>
    </g>
    <g id="ytick_4">
     <g id="line2d_10">
      <g>
       <use xlink:href="#ma34b194a9d" x="81" y="141.162768" style="stroke: #000000; stroke-width: 0.8"/>
      </g>
     </g>
     <g id="text_10">
      <!-- 300 -->
      <g transform="translate(54.9125 144.961987) scale(0.1 -0.1)">
       <use xlink:href="#DejaVuSans-33"/>
       <use xlink:href="#DejaVuSans-30" transform="translate(63.623047 0)"/>
       <use xlink:href="#DejaVuSans-30" transform="translate(127.246094 0)"/>
      </g>
     </g>
    </g>
    <g id="ytick_5">
     <g id="line2d_11">
      <g>
       <use xlink:href="#ma34b194a9d" x="81" y="119.416652" style="stroke: #000000; stroke-width: 0.8"/>
      </g>
     </g>
     <g id="text_11">
      <!-- 350 -->
      <g transform="translate(54.9125 123.215871) scale(0.1 -0.1)">
       <use xlink:href="#DejaVuSans-33"/>
       <use xlink:href="#DejaVuSans-35" transform="translate(63.623047 0)"/>
       <use xlink:href="#DejaVuSans-30" transform="translate(127.246094 0)"/>
      </g>
     </g>
    </g>
    <g id="ytick_6">
     <g id="line2d_12">
      <g>
       <use xlink:href="#ma34b194a9d" x="81" y="97.670536" style="stroke: #000000; stroke-width: 0.8"/>
      </g>
     </g>
     <g id="text_12">
      <!-- 400 -->
      <g transform="translate(54.9125 101.469754) scale(0.1 -0.1)">
       <use xlink:href="#DejaVuSans-34"/>
       <use xlink:href="#DejaVuSans-30" transform="translate(63.623047 0)"/>
       <use xlink:href="#DejaVuSans-30" transform="translate(127.246094 0)"/>
      </g>
     </g>
    </g>
    <g id="ytick_7">
     <g id="line2d_13">
      <g>
       <use xlink:href="#ma34b194a9d" x="81" y="75.924419" style="stroke: #000000; stroke-width: 0.8"/>
      </g>
     </g>
     <g id="text_13">
      <!-- 450 -->
      <g transform="translate(54.9125 79.723638) scale(0.1 -0.1)">
       <use xlink:href="#DejaVuSans-34"/>
       <use xlink:href="#DejaVuSans-35" transform="translate(63.623047 0)"/>
       <use xlink:href="#DejaVuSans-30" transform="translate(127.246094 0)"/>
      </g>
     </g>
    </g>
    <g id="ytick_8">
     <g id="line2d_14">
      <g>
       <use xlink:href="#ma34b194a9d" x="81" y="54.178303" style="stroke: #000000; stroke-width: 0.8"/>
      </g>
     </g>
     <g id="text_14">
      <!-- 500 -->
      <g transform="translate(54.9125 57.977521) scale(0.1 -0.1)">
       <use xlink:href="#DejaVuSans-35"/>
       <use xlink:href="#DejaVuSans-30" transform="translate(63.623047 0)"/>
       <use xlink:href="#DejaVuSans-30" transform="translate(127.246094 0)"/>
      </g>
     </g>
    </g>
    <g id="ytick_9">
     <g id="line2d_15">
      <g>
       <use xlink:href="#ma34b194a9d" x="81" y="32.432186" style="stroke: #000000; stroke-width: 0.8"/>
      </g>
     </g>
     <g id="text_15">
      <!-- 550 -->
      <g transform="translate(54.9125 36.231405) scale(0.1 -0.1)">
       <use xlink:href="#DejaVuSans-35"/>
       <use xlink:href="#DejaVuSans-35" transform="translate(63.623047 0)"/>
       <use xlink:href="#DejaVuSans-30" transform="translate(127.246094 0)"/>
      </g>
     </g>
    </g>
   </g>
   <g id="line2d_16">
    <path d="M 103.827273 203.085486 
L 104.051179 202.663484 
L 104.275086 203.35854 
L 104.946805 204.50041 
L 105.618525 200.156317 
L 105.842432 201.211303 
L 106.514151 199.494357 
L 106.738058 197.119612 
L 106.961964 197.210596 
L 107.185871 195.667411 
L 107.409778 195.559848 
L 108.081497 193.569847 
L 108.305404 195.332306 
L 108.52931 195.220589 
L 108.753217 195.634308 
L 108.977123 194.955811 
L 110.096656 193.945706 
L 110.320563 195.132186 
L 110.544469 197.550784 
L 111.440095 201.915052 
L 111.664002 201.043834 
L 111.887909 206.017926 
L 112.783535 199.956926 
L 113.007441 203.391927 
L 113.231348 200.886213 
L 114.350881 209.15421 
L 114.574787 204.881232 
L 114.798694 207.905514 
L 115.0226 213.94993 
L 115.246507 205.748283 
L 115.918226 215.46 
L 116.142133 210.834371 
L 116.36604 213.394033 
L 116.589946 212.435712 
L 116.813853 214.659326 
L 117.485572 215.227673 
L 117.709479 210.100088 
L 117.933385 210.689187 
L 118.157292 206.876681 
L 118.381198 209.535895 
L 119.052918 205.167473 
L 119.276825 206.212917 
L 119.500731 208.536084 
L 119.724638 207.229299 
L 119.948544 207.822546 
L 120.620264 203.076613 
L 120.84417 203.815063 
L 121.068077 203.134694 
L 121.291984 203.130553 
L 122.18761 202.977047 
L 122.411516 199.579402 
L 122.635423 200.334444 
L 122.859329 198.193797 
L 123.083236 197.54663 
L 123.754956 199.015203 
L 123.978862 202.018746 
L 124.202769 199.654075 
L 124.426675 200.525273 
L 124.650582 199.226778 
L 125.322301 199.434191 
L 125.546208 201.193192 
L 125.770115 198.032002 
L 125.994021 197.293558 
L 126.217928 199.218482 
L 127.113554 196.650538 
L 127.561367 195.472347 
L 127.785274 195.024318 
L 128.456993 194.169717 
L 128.904806 197.06954 
L 129.128713 196.74595 
L 129.352619 195.654901 
L 130.024339 194.928893 
L 130.248246 195.459897 
L 130.472152 194.403238 
L 130.696059 195.330946 
L 130.919965 195.297664 
L 131.815591 196.104742 
L 132.039498 196.004884 
L 132.263405 196.175446 
L 132.487311 195.405831 
L 133.159031 195.580547 
L 133.382937 194.715248 
L 133.606844 194.528042 
L 133.83075 195.543111 
L 134.054657 193.762588 
L 134.726377 193.28003 
L 134.950283 192.680963 
L 135.17419 189.752265 
L 135.398096 194.149483 
L 135.622003 193.53796 
L 136.293722 193.038717 
L 136.517629 191.112612 
L 136.741536 190.833877 
L 136.965442 189.968578 
L 137.189349 190.455317 
L 138.084975 187.643095 
L 138.308881 189.336256 
L 138.532788 188.296242 
L 138.756694 189.964411 
L 139.428414 189.086649 
L 139.652321 186.977478 
L 140.99576 183.986372 
L 141.219667 185.005602 
L 141.443573 183.100282 
L 141.66748 182.480436 
L 141.891386 182.750829 
L 142.563106 185.496495 
L 142.787012 184.963992 
L 143.010919 185.092976 
L 143.234825 186.80693 
L 143.458732 187.239569 
L 144.130452 183.611974 
L 144.354358 184.797598 
L 144.578265 183.549558 
L 144.802171 187.381004 
L 145.026078 187.896857 
L 145.697797 186.83603 
L 145.921704 187.59735 
L 146.145611 186.748669 
L 146.369517 186.815245 
L 146.593424 186.353485 
L 147.265143 181.556903 
L 147.48905 182.908915 
L 147.712956 183.054524 
L 147.936863 181.635929 
L 148.16077 183.245877 
L 148.832489 185.005602 
L 149.056396 187.031552 
L 149.280302 184.614546 
L 149.504209 184.818403 
L 149.728115 184.735202 
L 150.399835 184.161095 
L 150.623742 183.657738 
L 150.847648 184.191503 
L 151.071555 182.156468 
L 151.295461 182.807026 
L 151.967181 182.527621 
L 152.191087 181.36833 
L 152.862807 176.180652 
L 153.534527 177.590168 
L 153.758433 176.864559 
L 153.98234 175.038052 
L 154.206246 181.022196 
L 155.325779 187.127288 
L 155.549686 183.528461 
L 155.773592 185.997191 
L 155.997499 186.555982 
L 156.669218 185.980507 
L 156.893125 184.575172 
L 157.340938 187.023031 
L 157.564845 188.073929 
L 158.236564 187.177327 
L 158.460471 185.142305 
L 158.684377 187.990523 
L 158.908284 186.90627 
L 159.13219 184.975493 
L 159.80391 184.299928 
L 160.027817 185.20902 
L 160.47563 183.040541 
L 160.699536 185.655231 
L 161.371256 183.907943 
L 161.595163 185.771985 
L 161.819069 184.137297 
L 162.042976 183.824537 
L 162.266882 181.643555 
L 163.162508 178.703608 
L 163.610321 180.038033 
L 163.834228 180.038033 
L 164.505948 182.306603 
L 164.953761 182.064733 
L 165.177667 182.027204 
L 165.401574 181.468414 
L 166.073294 184.033046 
L 166.2972 182.71111 
L 166.521107 187.118946 
L 166.745013 186.268261 
L 166.96892 187.20652 
L 167.640639 187.264914 
L 167.864546 185.555161 
L 168.312359 178.524299 
L 168.536266 178.344964 
L 169.207985 180.567663 
L 169.431892 183.645222 
L 169.655798 181.334956 
L 169.879705 181.797844 
L 170.103611 181.35166 
L 170.775331 181.051383 
L 171.223144 183.385573 
L 171.447051 182.825323 
L 171.670957 183.674084 
L 172.342677 183.791143 
L 172.566583 182.223236 
L 172.79049 182.219075 
L 173.238303 181.650456 
L 173.910023 182.135437 
L 174.133929 181.240693 
L 174.581742 182.064348 
L 174.805649 182.014177 
L 175.477369 182.043463 
L 175.701275 181.324318 
L 175.925182 183.08454 
L 176.149088 183.619725 
L 176.372995 182.474112 
L 177.044714 182.081092 
L 177.268621 182.110338 
L 177.492528 179.957109 
L 177.716434 179.898563 
L 177.940341 180.245599 
L 178.835967 178.008745 
L 179.059873 179.229595 
L 179.28378 178.506282 
L 180.179406 177.582264 
L 180.403313 177.920926 
L 180.627219 178.953654 
L 180.851126 178.644252 
L 181.746752 180.621896 
L 181.970659 180.534096 
L 182.194565 182.896385 
L 182.418472 180.37104 
L 182.642378 179.814951 
L 183.314098 180.705514 
L 183.538004 181.775884 
L 183.761911 181.186347 
L 183.985817 182.574441 
L 184.209724 182.729161 
L 185.10535 181.144518 
L 185.329257 177.841488 
L 185.77707 177.168333 
L 186.44879 175.671522 
L 186.672696 174.50083 
L 186.896603 174.262497 
L 187.120509 171.74132 
L 187.344416 174.655498 
L 188.016135 171.44028 
L 188.240042 171.498813 
L 188.463948 170.039624 
L 188.687855 170.453549 
L 188.911762 170.374098 
L 189.583481 170.26122 
L 189.807388 169.71768 
L 190.031294 170.114868 
L 190.255201 169.416633 
L 190.479107 169.207594 
L 191.374734 169.74696 
L 191.59864 169.302733 
L 191.822547 169.474582 
L 192.046453 170.656337 
L 192.942079 173.883175 
L 193.165986 173.346762 
L 193.389893 175.676791 
L 193.613799 174.256153 
L 194.285519 172.345178 
L 194.509425 173.631729 
L 194.733332 176.276057 
L 194.957238 176.62389 
L 195.181145 174.583015 
L 195.852865 176.347292 
L 196.076771 173.66945 
L 196.300678 174.239383 
L 196.524584 172.265562 
L 196.748491 172.843883 
L 197.42021 173.237799 
L 197.644117 172.022504 
L 197.868024 172.303276 
L 198.09193 174.951792 
L 198.315837 175.106838 
L 199.211463 172.076982 
L 199.659276 174.27291 
L 199.883182 172.537959 
L 200.554902 173.057588 
L 200.778809 174.478233 
L 201.002715 172.835501 
L 201.226622 170.078016 
L 202.122248 167.261878 
L 202.346155 167.768944 
L 202.570061 166.914051 
L 203.017874 164.420568 
L 203.689594 164.395443 
L 203.9135 163.314242 
L 204.137407 164.529551 
L 204.361313 162.890967 
L 204.58522 162.371324 
L 205.480846 163.410616 
L 205.704753 162.438372 
L 205.928659 163.867432 
L 206.152566 162.199528 
L 206.824286 162.03188 
L 207.048192 161.855869 
L 207.272099 164.961188 
L 207.496005 165.820275 
L 207.719912 165.958577 
L 208.391631 166.092666 
L 208.615538 167.798284 
L 208.839444 168.351447 
L 209.287258 165.841226 
L 210.182884 168.452014 
L 210.40679 171.481884 
L 210.854603 167.647425 
L 211.526323 168.892047 
L 211.75023 169.772092 
L 211.974136 169.520081 
L 212.198043 168.108747 
L 212.421949 168.65901 
L 213.317575 165.907749 
L 213.541482 166.004375 
L 213.765389 166.920051 
L 213.989295 166.764633 
L 214.884921 167.722317 
L 215.108828 167.764312 
L 215.332734 168.432185 
L 215.556641 166.298394 
L 216.228361 165.029875 
L 216.452267 165.550725 
L 216.676174 165.12228 
L 216.90008 163.589155 
L 217.795706 162.476033 
L 218.24352 163.53035 
L 218.467426 162.051822 
L 218.691333 162.669258 
L 219.363052 161.325171 
L 219.586959 160.115417 
L 219.810865 160.216277 
L 220.034772 159.619785 
L 220.258678 160.321244 
L 220.930398 158.767115 
L 221.154305 157.641451 
L 221.378211 157.85144 
L 221.602118 157.557408 
L 221.826024 155.016202 
L 222.721651 155.012008 
L 222.945557 154.058518 
L 223.169464 155.112775 
L 223.39337 154.894358 
L 224.06509 155.154823 
L 224.288996 153.617504 
L 224.512903 152.974809 
L 224.736809 153.596453 
L 224.960716 153.71409 
L 225.632436 155.285029 
L 226.080249 153.441069 
L 226.528062 149.967344 
L 227.199782 150.227796 
L 227.423688 151.282079 
L 227.647595 151.416492 
L 227.871501 151.298882 
L 228.095408 151.966715 
L 228.767127 152.00453 
L 228.991034 151.038444 
L 229.21494 151.294648 
L 229.438847 150.03035 
L 229.662754 150.055555 
L 230.334473 150.530216 
L 230.55838 151.324114 
L 230.782286 151.109851 
L 231.230099 148.631625 
L 231.901819 147.896552 
L 232.349632 149.288349 
L 232.797445 143.552253 
L 233.469165 143.43021 
L 233.693071 144.284539 
L 233.916978 144.541261 
L 234.140885 145.770134 
L 234.364791 145.504984 
L 235.036511 143.876321 
L 235.260417 144.595931 
L 235.484324 144.616969 
L 235.70823 144.903196 
L 235.932137 144.907364 
L 237.05167 145.298765 
L 237.499483 147.192551 
L 238.171202 146.653862 
L 238.395109 145.475518 
L 238.619016 143.358683 
L 238.842922 143.190358 
L 239.066829 145.441858 
L 239.738548 147.785963 
L 239.962455 147.575524 
L 240.186361 145.984728 
L 240.410268 145.572303 
L 240.634175 145.660673 
L 241.305894 147.840621 
L 241.529801 152.322625 
L 241.753707 152.120587 
L 241.977614 152.99594 
L 242.20152 149.974312 
L 242.87324 152.495131 
L 243.321053 148.286745 
L 243.54496 147.554473 
L 243.768866 147.554473 
L 244.440586 147.815376 
L 244.664492 148.38353 
L 244.888399 146.940036 
L 245.112305 144.229815 
L 245.336212 143.615392 
L 246.231838 141.923604 
L 246.455745 142.268696 
L 246.679651 140.858888 
L 246.903558 141.532216 
L 247.575278 141.965692 
L 247.799184 141.132427 
L 248.023091 135.636237 
L 248.246997 135.139676 
L 248.470904 132.080128 
L 249.142623 133.027021 
L 249.36653 131.444667 
L 249.590436 131.078538 
L 249.814343 130.051676 
L 250.03825 130.211587 
L 250.709969 129.820226 
L 250.933876 130.257895 
L 251.157782 132.425247 
L 251.381689 131.73927 
L 251.605595 129.933827 
L 252.277315 130.207392 
L 252.501222 128.759718 
L 252.725128 128.662747 
L 253.172941 126.980515 
L 253.844661 128.363406 
L 254.068567 129.269843 
L 254.292474 129.172873 
L 254.740287 132.642748 
L 255.412007 129.712544 
L 255.635913 132.259058 
L 256.083726 132.722862 
L 256.307633 135.454891 
L 256.979353 134.114181 
L 257.203259 130.433494 
L 257.427166 130.412391 
L 257.651072 131.20086 
L 257.874979 127.220792 
L 258.546698 128.544699 
L 258.770605 133.207677 
L 258.994512 130.547322 
L 259.218418 134.658033 
L 260.114044 136.761901 
L 260.561857 131.158652 
L 260.785764 130.530465 
L 261.68139 127.258766 
L 261.905297 127.764711 
L 262.129203 127.469577 
L 262.577016 129.843214 
L 263.248736 130.50518 
L 263.472643 132.925232 
L 263.696549 138.25019 
L 263.920456 139.304182 
L 264.816082 139.139772 
L 265.039988 138.840404 
L 265.263895 137.453306 
L 265.487802 143.132435 
L 265.711708 140.855716 
L 266.607334 144.038873 
L 266.831241 143.752181 
L 267.055147 144.481547 
L 267.279054 146.829925 
L 267.950774 146.686606 
L 268.17468 150.008915 
L 268.398587 146.54326 
L 268.622493 145.223641 
L 268.8464 141.673651 
L 269.518119 140.526883 
L 269.742026 141.462826 
L 269.965932 139.481267 
L 270.189839 144.629166 
L 270.413746 142.651788 
L 271.085465 144.755629 
L 271.309372 143.2336 
L 271.533278 140.429899 
L 271.981091 147.247328 
L 272.652811 147.264237 
L 272.876718 144.957986 
L 273.100624 145.105871 
L 273.324531 148.81106 
L 273.548437 149.993996 
L 274.444063 150.082698 
L 274.66797 153.230204 
L 274.891877 147.18026 
L 275.115783 146.031103 
L 275.787503 145.405823 
L 276.011409 147.028154 
L 276.235316 144.814348 
L 277.578755 155.097591 
L 277.802662 149.753188 
L 278.026568 150.982579 
L 278.250475 153.314685 
L 278.922194 154.848328 
L 279.370008 147.264755 
L 279.593914 146.914101 
L 279.817821 144.712971 
L 280.48954 145.249509 
L 280.713447 143.179341 
L 280.937353 145.110079 
L 281.16126 143.162418 
L 281.385167 143.339902 
L 282.056886 140.374034 
L 282.280793 138.384139 
L 282.504699 139.039018 
L 282.728606 141.383773 
L 282.952512 140.91482 
L 283.624232 138.570051 
L 283.848139 140.297994 
L 284.072045 145.105871 
L 284.295952 144.315823 
L 285.191578 151.122023 
L 285.415484 152.473961 
L 285.639391 150.124972 
L 285.863298 153.416129 
L 286.758924 153.124579 
L 286.98283 151.105113 
L 287.206737 150.657303 
L 287.65455 155.866483 
L 288.32627 153.040111 
L 288.550176 157.476178 
L 288.774083 151.983877 
L 288.997989 149.275753 
L 289.221896 154.39205 
L 289.893615 151.45578 
L 290.117522 152.592275 
L 290.341429 149.127881 
L 290.565335 154.463829 
L 290.789242 155.570778 
L 291.460961 159.859 
L 291.684868 157.780337 
L 292.132681 163.758475 
L 292.356587 161.320764 
L 293.028307 161.16019 
L 293.252214 158.912598 
L 293.47612 164.045015 
L 293.923933 164.688685 
L 294.595653 161.262835 
L 294.819559 161.699012 
L 295.267373 159.039619 
L 295.491279 155.931387 
L 296.386905 156.51154 
L 296.610812 156.278655 
L 296.834718 155.363962 
L 297.058625 157.294965 
L 297.730345 157.832725 
L 297.954251 156.244757 
L 298.178158 157.129799 
L 298.402064 159.509674 
L 298.625971 164.506589 
L 299.29769 169.050384 
L 299.521597 168.106059 
L 299.745504 165.027472 
L 299.96941 167.902807 
L 300.193317 166.767911 
L 301.088943 164.188998 
L 301.312849 164.447313 
L 301.536756 162.020837 
L 301.760663 158.277403 
L 302.432382 159.467347 
L 302.656289 163.028692 
L 302.880195 161.428002 
L 303.104102 162.880488 
L 303.328008 161.715941 
L 304.223635 160.331219 
L 304.671448 157.980982 
L 304.895354 158.294339 
L 305.567074 159.628266 
L 305.79098 164.218636 
L 306.014887 164.620927 
L 306.238794 164.045015 
L 306.4627 162.927062 
L 307.13442 163.973036 
L 307.582233 160.576838 
L 307.806139 159.488517 
L 308.030046 161.385668 
L 308.701766 162.033572 
L 308.925672 164.968176 
L 309.149579 157.837025 
L 309.597392 152.755397 
L 310.269111 153.911443 
L 310.493018 155.262319 
L 310.716925 152.022793 
L 310.940831 151.523086 
L 311.836457 152.933239 
L 312.060364 152.094771 
L 312.28427 149.189825 
L 312.508177 150.096037 
L 312.732083 148.025272 
L 313.403803 147.364672 
L 314.075523 148.501273 
L 314.299429 150.207223 
L 314.971149 153.771906 
L 315.418962 154.603658 
L 315.642869 153.305089 
L 315.866775 157.871282 
L 316.538495 159.084945 
L 316.986308 160.680578 
L 317.210214 161.13466 
L 317.434121 162.976384 
L 318.329747 164.168863 
L 318.553654 162.114921 
L 318.77756 161.93246 
L 319.001467 159.411708 
L 319.673186 158.482348 
L 319.897093 164.703557 
L 320.121 164.605955 
L 320.344906 167.508625 
L 320.568813 167.780213 
L 321.240532 167.873574 
L 321.464439 168.752019 
L 321.688345 170.237289 
L 321.912252 169.375826 
L 322.136159 170.674388 
L 322.807878 170.873845 
L 323.031785 171.315178 
L 323.255691 169.337634 
L 323.703504 172.804709 
L 324.375224 169.477688 
L 324.599131 166.023335 
L 324.823037 165.887548 
L 325.046944 166.910269 
L 325.27085 172.236056 
L 325.94257 174.353635 
L 326.166476 175.9832 
L 326.390383 175.838912 
L 326.61429 172.236056 
L 326.838196 174.646446 
L 327.509916 170.839893 
L 327.733822 170.428251 
L 327.957729 171.285473 
L 328.181635 171.425521 
L 328.405542 168.89206 
L 329.077262 166.715059 
L 329.301168 165.267968 
L 329.525075 173.475189 
L 329.748981 175.414554 
L 329.972888 171.544326 
L 330.644607 173.131471 
L 330.868514 174.81195 
L 331.316327 180.719119 
L 331.540234 177.68915 
L 332.211953 174.939256 
L 332.43586 174.514899 
L 332.659766 176.365137 
L 332.883673 168.527092 
L 333.107579 166.774462 
L 333.779299 169.133943 
L 334.227112 168.768451 
L 334.451019 168.78974 
L 334.674925 168.985487 
L 335.346645 168.632279 
L 335.794458 166.278922 
L 336.242271 166.317228 
L 337.137897 169.364266 
L 337.361804 163.061675 
L 337.58571 163.253187 
L 337.809617 163.112748 
L 338.481337 165.163956 
L 338.705243 167.325806 
L 338.92915 167.644976 
L 339.153056 166.355526 
L 339.376963 167.198135 
L 340.048683 164.180915 
L 340.272589 162.304177 
L 340.496496 162.176506 
L 340.944309 167.508798 
L 341.616028 169.313185 
L 341.839935 168.738667 
L 342.063841 167.619453 
L 342.287748 170.274951 
L 342.511655 170.045146 
L 343.407281 170.798389 
L 343.631187 171.832498 
L 343.855094 169.074873 
L 344.079 169.581275 
L 344.974627 169.683416 
L 345.42244 177.032858 
L 345.646346 175.917905 
L 346.318066 174.985917 
L 346.541972 174.249696 
L 346.765879 171.304812 
L 346.989786 170.138765 
L 347.213692 169.832376 
L 348.109318 169.355731 
L 348.557131 172.938963 
L 348.781038 169.411072 
L 349.452758 168.406734 
L 349.676664 168.636539 
L 349.900571 169.245089 
L 350.124477 166.100185 
L 350.348384 166.032102 
L 351.020103 168.351413 
L 351.467917 164.078774 
L 351.691823 159.035862 
L 351.91573 161.695607 
L 352.587449 162.368013 
L 352.811356 157.776223 
L 353.035262 158.129425 
L 353.259169 159.452893 
L 353.483075 159.674216 
L 354.154795 156.176083 
L 354.378702 155.81436 
L 354.602608 156.740123 
L 355.050421 161.543966 
L 356.169954 164.338383 
L 356.393861 162.947588 
L 356.617767 165.315365 
L 357.289487 164.914328 
L 357.513393 165.230028 
L 357.7373 166.573903 
L 358.185113 162.725734 
L 358.856833 162.051669 
L 359.080739 163.212102 
L 359.304646 163.404066 
L 359.528552 163.992813 
L 359.752459 165.584126 
L 360.424179 163.310207 
L 361.319805 152.426949 
L 361.991524 155.498654 
L 362.215431 154.837391 
L 362.439337 155.473064 
L 362.887151 151.940595 
L 363.782777 154.218787 
L 364.23059 150.455915 
L 364.454496 148.642774 
L 365.350123 149.120568 
L 365.574029 150.332226 
L 365.797936 147.234904 
L 366.693562 148.177723 
L 366.917468 150.976407 
L 367.141375 150.694838 
L 367.365282 147.985732 
L 367.589188 149.56425 
L 368.260908 148.429441 
L 368.484814 148.612897 
L 368.708721 148.578773 
L 368.932627 149.577071 
L 369.156534 149.72639 
L 369.828254 151.428624 
L 370.05216 154.137717 
L 370.276067 145.626496 
L 370.499973 141.590603 
L 370.72388 140.553893 
L 371.395599 141.279157 
L 371.619506 141.343159 
L 371.843413 141.774046 
L 372.067319 141.343159 
L 372.291226 139.107638 
L 372.962945 139.960892 
L 373.186852 140.664814 
L 373.410758 138.39943 
L 373.858571 139.824355 
L 374.530291 139.615335 
L 374.978104 137.385589 
L 375.202011 135.453006 
L 375.425917 135.529988 
L 376.097637 134.315702 
L 376.321544 136.846833 
L 376.54545 137.449723 
L 376.993263 129.308985 
L 377.888889 130.027254 
L 378.112796 131.232967 
L 378.560609 128.235801 
L 379.232329 128.004908 
L 379.456235 128.971193 
L 379.680142 133.375047 
L 381.247488 127.406332 
L 381.471394 122.805789 
L 381.695301 125.272813 
L 382.590927 127.102784 
L 382.814833 129.022505 
L 383.03874 126.393022 
L 383.262647 128.39826 
L 383.934366 131.143203 
L 384.158273 128.590662 
L 384.382179 128.043399 
L 384.606086 128.385452 
L 384.829992 126.038148 
L 385.501712 127.128427 
L 385.949525 127.059993 
L 386.173432 125.726025 
L 386.397338 127.457632 
L 387.069058 129.762197 
L 387.292964 129.488526 
L 387.964684 124.028623 
L 388.636404 123.819086 
L 388.86031 117.935875 
L 389.084217 119.821419 
L 389.308123 123.331683 
L 389.53203 124.657142 
L 390.20375 124.084183 
L 390.427656 121.574367 
L 390.875469 130.236765 
L 391.099376 126.965942 
L 391.771095 128.013456 
L 391.995002 127.833888 
L 392.218909 131.613524 
L 392.442815 131.972672 
L 392.666722 131.493817 
L 393.338441 130.497602 
L 393.786254 133.866737 
L 394.010161 133.567475 
L 394.234068 134.388383 
L 394.905787 133.092894 
L 395.129694 134.024975 
L 395.3536 134.35917 
L 395.577507 135.867369 
L 395.801413 136.03872 
L 396.473133 133.725023 
L 396.69704 133.476557 
L 396.920946 131.531286 
L 397.144853 134.543396 
L 397.368759 133.253734 
L 398.040479 132.945208 
L 398.264385 130.927162 
L 398.488292 130.764331 
L 398.712198 131.205651 
L 398.936105 130.820024 
L 399.831731 128.72485 
L 400.055638 129.011914 
L 400.279544 130.284468 
L 400.503451 128.416351 
L 401.175171 126.843872 
L 401.399077 129.487504 
L 401.84689 126.518224 
L 402.070797 130.151634 
L 402.966423 130.824324 
L 403.190329 134.20064 
L 403.414236 134.731923 
L 403.638143 135.811636 
L 404.309862 135.584566 
L 404.533769 137.898303 
L 404.981582 137.255568 
L 405.877208 133.759307 
L 406.101115 137.362706 
L 406.325021 134.976155 
L 406.548928 134.804777 
L 406.772834 131.419887 
L 407.444554 130.322985 
L 407.66846 130.93571 
L 407.892367 129.208988 
L 408.116274 129.748871 
L 408.34018 131.218513 
L 409.0119 129.114711 
L 409.235806 129.363257 
L 409.459713 130.198752 
L 409.683619 129.680331 
L 409.907526 131.672654 
L 410.803152 130.018813 
L 411.027059 125.674155 
L 411.250965 131.149945 
L 411.474872 130.327325 
L 412.146591 127.113814 
L 412.370498 126.771057 
L 412.594405 123.360458 
L 412.818311 122.396404 
L 413.042218 120.476881 
L 413.713937 118.87872 
L 414.16175 116.020852 
L 414.385657 117.096305 
L 414.609564 113.24866 
L 415.281283 114.529788 
L 415.50519 112.991593 
L 415.729096 112.927194 
L 415.953003 110.136499 
L 416.176909 112.849919 
L 416.848629 109.591267 
L 417.072536 111.46744 
L 417.296442 109.415257 
L 417.744255 109.595541 
L 418.415975 109.088946 
L 418.639881 107.332931 
L 418.863788 108.985896 
L 419.087695 108.960147 
L 419.311601 110.849208 
L 419.983321 113.154729 
L 420.207227 111.70359 
L 420.431134 113.300716 
L 420.65504 112.377621 
L 420.878947 110.969419 
L 421.550667 112.22736 
L 421.774573 110.90502 
L 421.99848 110.90932 
L 422.222386 114.532907 
L 422.446293 112.472083 
L 423.341919 111.385866 
L 423.565825 112.519334 
L 423.789732 111.265641 
L 424.013639 110.819158 
L 424.909265 110.784808 
L 425.133171 111.038106 
L 425.580984 110.192325 
L 426.476611 112.411997 
L 426.700517 112.527909 
L 426.924424 113.669951 
L 427.14833 113.751513 
L 427.82005 110.771934 
L 428.043956 110.299648 
L 428.267863 107.302908 
L 428.49177 106.504325 
L 428.715676 104.855687 
L 429.611302 104.082892 
L 429.835209 104.426352 
L 430.283022 100.476467 
L 430.954742 101.403836 
L 431.178648 100.377744 
L 431.626461 97.814585 
L 431.850368 98.21817 
L 432.522087 95.732325 
L 432.745994 96.217472 
L 432.969901 100.944465 
L 433.417714 95.088304 
L 434.089433 97.479726 
L 434.31334 97.548426 
L 434.537246 93.8733 
L 434.761153 93.847565 
L 434.98506 91.082633 
L 435.656779 93.353791 
L 435.880686 97.192079 
L 436.104592 95.505958 
L 436.552405 97.841569 
L 437.671938 98.650212 
L 437.895845 94.57689 
L 438.119751 95.140359 
L 438.791471 96.344705 
L 439.015377 96.37052 
L 439.239284 96.267271 
L 439.463191 93.720902 
L 439.687097 92.920873 
L 440.358817 93.170334 
L 440.582723 98.448041 
L 440.80663 98.688916 
L 441.030536 95.656498 
L 441.254443 96.912474 
L 441.926163 97.643711 
L 442.150069 93.015494 
L 442.373976 93.092941 
L 442.597882 88.740028 
L 442.821789 92.525171 
L 443.493508 92.138044 
L 444.165228 86.954972 
L 444.389135 87.225962 
L 445.284761 90.275595 
L 445.508667 90.370217 
L 445.732574 90.67561 
L 446.6282 89.019605 
L 446.852107 90.365916 
L 447.076013 90.79176 
L 447.29992 91.89717 
L 447.523826 88.61099 
L 448.195546 89.011018 
L 448.419452 88.284095 
L 448.643359 89.583075 
L 448.867266 87.574399 
L 449.091172 90.168046 
L 449.762892 93.720902 
L 449.986798 93.3166 
L 450.210705 94.495143 
L 450.658518 99.966407 
L 451.330238 99.174952 
L 451.554144 96.33179 
L 451.778051 95.690914 
L 452.001957 100.000797 
L 452.225864 96.869484 
L 452.897583 98.620096 
L 453.12149 104.177381 
L 453.79321 96.723231 
L 454.464929 93.763933 
L 454.688836 95.57049 
L 455.136649 94.288672 
L 455.360556 93.247794 
L 456.032275 93.686526 
L 456.256182 92.464939 
L 456.480088 89.332259 
L 456.703995 90.232857 
L 456.927901 90.568963 
L 457.599621 88.358409 
L 457.823528 86.764056 
L 458.047434 86.126326 
L 458.271341 87.643112 
L 458.495247 86.281472 
L 459.390873 86.212493 
L 459.61478 86.708059 
L 459.838687 92.956165 
L 460.062593 92.757949 
L 460.734313 93.451717 
L 460.958219 92.352904 
L 461.182126 88.931527 
L 461.406032 88.711757 
L 461.629939 89.000453 
L 462.301659 87.268236 
L 462.525565 85.195573 
L 462.749472 81.584608 
L 462.973378 81.360523 
L 463.197285 80.933923 
L 463.869004 78.434673 
L 464.092911 79.309415 
L 464.540724 79.585197 
L 464.764631 77.827111 
L 465.43635 78.736297 
L 465.660257 77.322945 
L 466.10807 76.504214 
L 466.331976 79.046561 
L 467.227603 73.733522 
L 467.451509 73.091464 
L 467.899322 70.165614 
L 468.571042 70.734418 
L 468.794949 73.621486 
L 469.018855 70.730105 
L 469.242762 75.707038 
L 469.466668 76.202603 
L 470.138388 76.025929 
L 471.034014 83.286669 
L 471.92964 79.951472 
L 472.377453 91.348898 
L 472.60136 88.388591 
L 473.273079 87.759462 
L 473.944799 91.904775 
L 474.168706 95.619148 
L 474.840425 101.367442 
L 475.064332 99.445597 
L 475.288238 99.954064 
L 475.736052 96.683506 
L 476.407771 96.343099 
L 476.631678 93.240574 
L 476.855584 92.012484 
L 477.079491 89.888627 
L 477.303397 90.993719 
L 477.975117 89.672799 
L 478.199024 88.261173 
L 478.42293 88.546086 
L 478.646837 92.254247 
L 478.870743 91.718956 
L 479.542463 93.143497 
L 479.766369 92.9924 
L 479.990276 94.391058 
L 480.214183 93.303208 
L 480.438089 91.567846 
L 481.333715 94.8918 
L 481.781528 95.345066 
L 482.005435 98.233023 
L 482.677155 96.49766 
L 483.348874 87.311479 
L 483.572781 85.761763 
L 484.2445 85.437973 
L 484.468407 83.793277 
L 484.692314 85.666783 
L 484.91622 82.265116 
L 485.140127 83.7415 
L 485.811846 84.501234 
L 486.035753 86.374726 
L 486.259659 85.10561 
L 486.483566 85.450954 
L 486.707472 86.871181 
L 487.379192 85.886938 
L 487.603099 90.035384 
L 487.827005 91.572173 
L 488.274818 92.034065 
L 488.946538 94.848637 
L 489.394351 91.429729 
L 489.618258 92.129059 
L 489.842164 91.921831 
L 490.513884 90.704492 
L 490.73779 90.877184 
L 490.961697 92.008183 
L 491.185603 91.749165 
L 491.40951 91.127535 
L 492.08123 90.859902 
L 492.305136 87.09131 
L 492.529043 88.347512 
L 492.752949 88.291395 
L 492.976856 86.81505 
L 493.648576 87.488471 
L 493.872482 85.174655 
L 494.096389 84.92429 
L 494.320295 96.225701 
L 494.544202 94.490339 
L 495.215921 95.314857 
L 495.439828 94.019819 
L 495.887641 87.989227 
L 496.111548 89.236788 
L 496.783267 91.192293 
L 497.007174 89.02526 
L 497.454987 87.358956 
L 497.678893 92.491658 
L 498.350613 92.163568 
L 498.57452 91.287259 
L 499.022333 93.054397 
L 499.246239 91.267974 
L 499.917959 90.49372 
L 500.141865 86.514303 
L 500.365772 88.677035 
L 500.813585 88.473736 
L 501.485305 85.22099 
L 501.709211 85.125838 
L 502.157024 80.186161 
L 503.052651 78.715511 
L 503.276557 79.879056 
L 503.500464 77.430839 
L 503.72437 77.184284 
L 503.948277 78.174832 
L 504.619996 76.306224 
L 504.843903 75.064834 
L 505.06781 82.448373 
L 505.515623 82.790068 
L 506.187342 83.374017 
L 506.411249 81.609242 
L 506.859062 82.136941 
L 507.082968 85.415649 
L 507.754688 87.881146 
L 507.978595 89.321521 
L 508.426408 90.584559 
L 508.650314 88.521306 
L 509.322034 86.574853 
L 509.545941 88.945212 
L 509.769847 87.997947 
L 510.21766 90.424502 
L 510.88938 91.185789 
L 511.113286 91.843256 
L 511.337193 87.240987 
L 511.561099 87.989293 
L 511.785006 86.064462 
L 512.680632 86.293696 
L 512.904539 78.63764 
L 513.128445 78.41706 
L 513.352352 79.563297 
L 514.024072 83.672469 
L 514.247978 78.205093 
L 514.471885 80.311603 
L 514.695791 92.137394 
L 514.919698 92.107119 
L 515.591417 93.897842 
L 516.263137 91.778392 
L 516.487044 94.403933 
L 517.158763 93.335541 
L 517.38267 93.672921 
L 517.606576 94.711038 
L 517.830483 94.062225 
L 518.054389 94.974901 
L 518.950016 94.451502 
L 519.173922 92.23256 
L 519.397829 91.28337 
L 519.621735 94.716016 
L 520.293455 96.540677 
L 520.517361 99.184495 
L 520.741268 98.39134 
L 520.965175 101.511929 
L 521.189081 99.578909 
L 521.860801 103.262914 
L 522.084707 103.210911 
L 522.308614 97.832251 
L 523.428147 106.873241 
L 523.652053 106.747535 
L 523.87596 105.525325 
L 524.099866 107.475693 
L 524.323773 103.232572 
L 524.995492 103.171889 
L 525.219399 105.416966 
L 525.443306 103.553295 
L 525.667212 103.978038 
L 525.891119 102.062351 
L 526.562838 101.27355 
L 526.786745 100.372037 
L 527.010651 102.621454 
L 527.234558 102.357086 
L 527.458464 107.462685 
L 528.130184 108.940609 
L 528.354091 105.993416 
L 528.577997 106.015077 
L 529.02581 115.680193 
L 529.69753 116.538344 
L 529.921437 117.968605 
L 530.145343 102.396082 
L 530.36925 106.357475 
L 530.593156 103.280248 
L 531.264876 103.557636 
L 531.488782 104.459123 
L 531.712689 110.578921 
L 531.936595 112.238894 
L 532.832222 115.992249 
L 533.280035 109.374018 
L 533.503941 103.77868 
L 533.727848 101.806638 
L 534.399568 102.105687 
L 534.623474 100.857462 
L 534.847381 100.328701 
L 535.071287 87.265648 
L 535.295194 82.983519 
L 535.966913 82.597785 
L 536.19082 83.837343 
L 536.414726 83.820009 
L 536.638633 81.730953 
L 536.86254 81.488247 
L 537.534259 76.924403 
L 537.758166 76.976406 
L 537.982072 75.329454 
L 538.429885 74.391559 
L 539.101605 72.394206 
L 539.325512 72.698139 
L 539.549418 75.129712 
L 539.773325 74.135382 
L 539.997231 76.16747 
L 540.892857 71.603945 
L 541.116764 73.049854 
L 541.564577 71.747238 
L 542.236297 71.048147 
L 542.68411 70.223164 
L 543.131923 67.396461 
L 543.803643 66.367383 
L 544.027549 67.161984 
L 544.251456 66.423832 
L 544.475362 63.710027 
L 544.699269 65.407788 
L 545.370988 63.592789 
L 545.594895 64.070423 
L 545.818802 63.115168 
L 546.266615 64.348315 
L 547.386147 57.89164 
L 547.610054 55.642436 
L 547.83396 56.298084 
L 548.50568 55.659797 
L 548.729587 57.987165 
L 548.953493 58.403996 
L 549.1774 55.038883 
L 550.073026 55.525197 
L 550.296933 56.002832 
L 550.520839 53.011121 
L 550.744746 53.892566 
L 550.968652 53.093625 
L 551.640372 53.223897 
L 551.864278 52.008111 
L 552.088185 52.094955 
L 552.312091 49.45496 
L 552.535998 50.171411 
L 553.207718 50.167071 
L 553.431624 52.246928 
L 553.655531 51.986397 
L 554.103344 48.582182 
L 554.775064 49.107598 
L 554.99897 49.077203 
L 555.222877 48.78629 
L 555.446783 39.989227 
L 555.67069 44.066438 
L 556.342409 39.06 
L 556.566316 42.485916 
L 557.014129 45.48628 
L 557.238036 44.965244 
L 557.909755 45.082469 
L 558.133662 41.838948 
L 558.357568 45.599178 
L 558.581475 44.774196 
L 558.805381 45.777219 
L 559.477101 47.110257 
L 559.924914 52.051526 
L 560.148821 52.334236 
L 560.372727 51.033809 
L 560.372727 51.033809 
" clip-path="url(#pbbac646983)" style="fill: none; stroke: #1f77b4; stroke-width: 1.5; stroke-linecap: square"/>
   </g>
   <g id="patch_3">
    <path d="M 81 224.28 
L 81 30.24 
" style="fill: none; stroke: #000000; stroke-width: 0.8; stroke-linejoin: miter; stroke-linecap: square"/>
   </g>
   <g id="patch_4">
    <path d="M 81 224.28 
L 583.2 224.28 
" style="fill: none; stroke: #000000; stroke-width: 0.8; stroke-linejoin: miter; stroke-linecap: square"/>
   </g>
  </g>
 </g>
 <defs>
  <clipPath id="pbbac646983">
   <rect x="81" y="30.24" width="502.2" height="194.04"/>
  </clipPath>
 </defs>
</svg>
