<?xml version="1.0" encoding="utf-8" standalone="no"?>
<!DOCTYPE svg PUBLIC "-//W3C//DTD SVG 1.1//EN"
  "http://www.w3.org/Graphics/SVG/1.1/DTD/svg11.dtd">
<svg xmlns:xlink="http://www.w3.org/1999/xlink" width="756pt" height="252pt" viewBox="0 0 756 252" xmlns="http://www.w3.org/2000/svg" version="1.1">
 <metadata>
  <rdf:RDF xmlns:dc="http://purl.org/dc/elements/1.1/" xmlns:cc="http://creativecommons.org/ns#" xmlns:rdf="http://www.w3.org/1999/02/22-rdf-syntax-ns#">
   <cc:Work>
    <dc:type rdf:resource="http://purl.org/dc/dcmitype/StillImage"/>
    <dc:date>2025-08-27T00:34:02.933288</dc:date>
    <dc:format>image/svg+xml</dc:format>
    <dc:creator>
     <cc:Agent>
      <dc:title>Matplotlib v3.10.5, https://matplotlib.org/</dc:title>
     </cc:Agent>
    </dc:creator>
   </cc:Work>
  </rdf:RDF>
 </metadata>
 <defs>
  <style type="text/css">*{stroke-linejoin: round; stroke-linecap: butt}</style>
 </defs>
 <g id="figure_1">
  <g id="patch_1">
   <path d="M 0 252 
L 756 252 
L 756 0 
L 0 0 
z
" style="fill: #ffffff"/>
  </g>
  <g id="axes_1">
   <g id="patch_2">
    <path d="M 94.5 224.28 
L 680.4 224.28 
L 680.4 30.24 
L 94.5 30.24 
z
" style="fill: #ffffff"/>
   </g>
   <g id="matplotlib.axis_1">
    <g id="xtick_1">
     <g id="line2d_1">
      <defs>
       <path id="mc6caa4fe58" d="M 0 0 
L 0 3.5 
" style="stroke: #000000; stroke-width: 0.8"/>
      </defs>
      <g>
       <use xlink:href="#mc6caa4fe58" x="115.646108" y="224.28" style="stroke: #000000; stroke-width: 0.8"/>
      </g>
     </g>
     <g id="text_1">
      <!-- 2020 -->
      <g transform="translate(102.921108 238.878438) scale(0.1 -0.1)">
       <defs>
        <path id="DejaVuSans-32" d="M 1228 531 
L 3431 531 
L 3431 0 
L 469 0 
L 469 531 
Q 828 903 1448 1529 
Q 2069 2156 2228 2338 
Q 2531 2678 2651 2914 
Q 2772 3150 2772 3378 
Q 2772 3750 2511 3984 
Q 2250 4219 1831 4219 
Q 1534 4219 1204 4116 
Q 875 4013 500 3803 
L 500 4441 
Q 881 4594 1212 4672 
Q 1544 4750 1819 4750 
Q 2544 4750 2975 4387 
Q 3406 4025 3406 3419 
Q 3406 3131 3298 2873 
Q 3191 2616 2906 2266 
Q 2828 2175 2409 1742 
Q 1991 1309 1228 531 
z
" transform="scale(0.015625)"/>
        <path id="DejaVuSans-30" d="M 2034 4250 
Q 1547 4250 1301 3770 
Q 1056 3291 1056 2328 
Q 1056 1369 1301 889 
Q 1547 409 2034 409 
Q 2525 409 2770 889 
Q 3016 1369 3016 2328 
Q 3016 3291 2770 3770 
Q 2525 4250 2034 4250 
z
M 2034 4750 
Q 2819 4750 3233 4129 
Q 3647 3509 3647 2328 
Q 3647 1150 3233 529 
Q 2819 -91 2034 -91 
Q 1250 -91 836 529 
Q 422 1150 422 2328 
Q 422 3509 836 4129 
Q 1250 4750 2034 4750 
z
" transform="scale(0.015625)"/>
       </defs>
       <use xlink:href="#DejaVuSans-32"/>
       <use xlink:href="#DejaVuSans-30" transform="translate(63.623047 0)"/>
       <use xlink:href="#DejaVuSans-32" transform="translate(127.246094 0)"/>
       <use xlink:href="#DejaVuSans-30" transform="translate(190.869141 0)"/>
      </g>
     </g>
    </g>
    <g id="xtick_2">
     <g id="line2d_2">
      <g>
       <use xlink:href="#mc6caa4fe58" x="211.254204" y="224.28" style="stroke: #000000; stroke-width: 0.8"/>
      </g>
     </g>
     <g id="text_2">
      <!-- 2021 -->
      <g transform="translate(198.529204 238.878438) scale(0.1 -0.1)">
       <defs>
        <path id="DejaVuSans-31" d="M 794 531 
L 1825 531 
L 1825 4091 
L 703 3866 
L 703 4441 
L 1819 4666 
L 2450 4666 
L 2450 531 
L 3481 531 
L 3481 0 
L 794 0 
L 794 531 
z
" transform="scale(0.015625)"/>
       </defs>
       <use xlink:href="#DejaVuSans-32"/>
       <use xlink:href="#DejaVuSans-30" transform="translate(63.623047 0)"/>
       <use xlink:href="#DejaVuSans-32" transform="translate(127.246094 0)"/>
       <use xlink:href="#DejaVuSans-31" transform="translate(190.869141 0)"/>
      </g>
     </g>
    </g>
    <g id="xtick_3">
     <g id="line2d_3">
      <g>
       <use xlink:href="#mc6caa4fe58" x="306.601077" y="224.28" style="stroke: #000000; stroke-width: 0.8"/>
      </g>
     </g>
     <g id="text_3">
      <!-- 2022 -->
      <g transform="translate(293.876077 238.878438) scale(0.1 -0.1)">
       <use xlink:href="#DejaVuSans-32"/>
       <use xlink:href="#DejaVuSans-30" transform="translate(63.623047 0)"/>
       <use xlink:href="#DejaVuSans-32" transform="translate(127.246094 0)"/>
       <use xlink:href="#DejaVuSans-32" transform="translate(190.869141 0)"/>
      </g>
     </g>
    </g>
    <g id="xtick_4">
     <g id="line2d_4">
      <g>
       <use xlink:href="#mc6caa4fe58" x="401.947949" y="224.28" style="stroke: #000000; stroke-width: 0.8"/>
      </g>
     </g>
     <g id="text_4">
      <!-- 2023 -->
      <g transform="translate(389.222949 238.878438) scale(0.1 -0.1)">
       <defs>
        <path id="DejaVuSans-33" d="M 2597 2516 
Q 3050 2419 3304 2112 
Q 3559 1806 3559 1356 
Q 3559 666 3084 287 
Q 2609 -91 1734 -91 
Q 1441 -91 1130 -33 
Q 819 25 488 141 
L 488 750 
Q 750 597 1062 519 
Q 1375 441 1716 441 
Q 2309 441 2620 675 
Q 2931 909 2931 1356 
Q 2931 1769 2642 2001 
Q 2353 2234 1838 2234 
L 1294 2234 
L 1294 2753 
L 1863 2753 
Q 2328 2753 2575 2939 
Q 2822 3125 2822 3475 
Q 2822 3834 2567 4026 
Q 2313 4219 1838 4219 
Q 1578 4219 1281 4162 
Q 984 4106 628 3988 
L 628 4550 
Q 988 4650 1302 4700 
Q 1616 4750 1894 4750 
Q 2613 4750 3031 4423 
Q 3450 4097 3450 3541 
Q 3450 3153 3228 2886 
Q 3006 2619 2597 2516 
z
" transform="scale(0.015625)"/>
       </defs>
       <use xlink:href="#DejaVuSans-32"/>
       <use xlink:href="#DejaVuSans-30" transform="translate(63.623047 0)"/>
       <use xlink:href="#DejaVuSans-32" transform="translate(127.246094 0)"/>
       <use xlink:href="#DejaVuSans-33" transform="translate(190.869141 0)"/>
      </g>
     </g>
    </g>
    <g id="xtick_5">
     <g id="line2d_5">
      <g>
       <use xlink:href="#mc6caa4fe58" x="497.294821" y="224.28" style="stroke: #000000; stroke-width: 0.8"/>
      </g>
     </g>
     <g id="text_5">
      <!-- 2024 -->
      <g transform="translate(484.569821 238.878438) scale(0.1 -0.1)">
       <defs>
        <path id="DejaVuSans-34" d="M 2419 4116 
L 825 1625 
L 2419 1625 
L 2419 4116 
z
M 2253 4666 
L 3047 4666 
L 3047 1625 
L 3713 1625 
L 3713 1100 
L 3047 1100 
L 3047 0 
L 2419 0 
L 2419 1100 
L 313 1100 
L 313 1709 
L 2253 4666 
z
" transform="scale(0.015625)"/>
       </defs>
       <use xlink:href="#DejaVuSans-32"/>
       <use xlink:href="#DejaVuSans-30" transform="translate(63.623047 0)"/>
       <use xlink:href="#DejaVuSans-32" transform="translate(127.246094 0)"/>
       <use xlink:href="#DejaVuSans-34" transform="translate(190.869141 0)"/>
      </g>
     </g>
    </g>
    <g id="xtick_6">
     <g id="line2d_6">
      <g>
       <use xlink:href="#mc6caa4fe58" x="592.902918" y="224.28" style="stroke: #000000; stroke-width: 0.8"/>
      </g>
     </g>
     <g id="text_6">
      <!-- 2025 -->
      <g transform="translate(580.177918 238.878438) scale(0.1 -0.1)">
       <defs>
        <path id="DejaVuSans-35" d="M 691 4666 
L 3169 4666 
L 3169 4134 
L 1269 4134 
L 1269 2991 
Q 1406 3038 1543 3061 
Q 1681 3084 1819 3084 
Q 2600 3084 3056 2656 
Q 3513 2228 3513 1497 
Q 3513 744 3044 326 
Q 2575 -91 1722 -91 
Q 1428 -91 1123 -41 
Q 819 9 494 109 
L 494 744 
Q 775 591 1075 516 
Q 1375 441 1709 441 
Q 2250 441 2565 725 
Q 2881 1009 2881 1497 
Q 2881 1984 2565 2268 
Q 2250 2553 1709 2553 
Q 1456 2553 1204 2497 
Q 953 2441 691 2322 
L 691 4666 
z
" transform="scale(0.015625)"/>
       </defs>
       <use xlink:href="#DejaVuSans-32"/>
       <use xlink:href="#DejaVuSans-30" transform="translate(63.623047 0)"/>
       <use xlink:href="#DejaVuSans-32" transform="translate(127.246094 0)"/>
       <use xlink:href="#DejaVuSans-35" transform="translate(190.869141 0)"/>
      </g>
     </g>
    </g>
   </g>
   <g id="matplotlib.axis_2">
    <g id="ytick_1">
     <g id="line2d_7">
      <defs>
       <path id="m18594e61ab" d="M 0 0 
L -3.5 0 
" style="stroke: #000000; stroke-width: 0.8"/>
      </defs>
      <g>
       <use xlink:href="#m18594e61ab" x="94.5" y="206.401099" style="stroke: #000000; stroke-width: 0.8"/>
      </g>
     </g>
     <g id="text_7">
      <!-- 150 -->
      <g transform="translate(68.4125 210.200318) scale(0.1 -0.1)">
       <use xlink:href="#DejaVuSans-31"/>
       <use xlink:href="#DejaVuSans-35" transform="translate(63.623047 0)"/>
       <use xlink:href="#DejaVuSans-30" transform="translate(127.246094 0)"/>
      </g>
     </g>
    </g>
    <g id="ytick_2">
     <g id="line2d_8">
      <g>
       <use xlink:href="#m18594e61ab" x="94.5" y="184.654985" style="stroke: #000000; stroke-width: 0.8"/>
      </g>
     </g>
     <g id="text_8">
      <!-- 200 -->
      <g transform="translate(68.4125 188.454204) scale(0.1 -0.1)">
       <use xlink:href="#DejaVuSans-32"/>
       <use xlink:href="#DejaVuSans-30" transform="translate(63.623047 0)"/>
       <use xlink:href="#DejaVuSans-30" transform="translate(127.246094 0)"/>
      </g>
     </g>
    </g>
    <g id="ytick_3">
     <g id="line2d_9">
      <g>
       <use xlink:href="#m18594e61ab" x="94.5" y="162.908871" style="stroke: #000000; stroke-width: 0.8"/>
      </g>
     </g>
     <g id="text_9">
      <!-- 250 -->
      <g transform="translate(68.4125 166.70809) scale(0.1 -0.1)">
       <use xlink:href="#DejaVuSans-32"/>
       <use xlink:href="#DejaVuSans-35" transform="translate(63.623047 0)"/>
       <use xlink:href="#DejaVuSans-30" transform="translate(127.246094 0)"/>
      </g>
     </g>
    </g>
    <g id="ytick_4">
     <g id="line2d_10">
      <g>
       <use xlink:href="#m18594e61ab" x="94.5" y="141.162757" style="stroke: #000000; stroke-width: 0.8"/>
      </g>
     </g>
     <g id="text_10">
      <!-- 300 -->
      <g transform="translate(68.4125 144.961976) scale(0.1 -0.1)">
       <use xlink:href="#DejaVuSans-33"/>
       <use xlink:href="#DejaVuSans-30" transform="translate(63.623047 0)"/>
       <use xlink:href="#DejaVuSans-30" transform="translate(127.246094 0)"/>
      </g>
     </g>
    </g>
    <g id="ytick_5">
     <g id="line2d_11">
      <g>
       <use xlink:href="#m18594e61ab" x="94.5" y="119.416643" style="stroke: #000000; stroke-width: 0.8"/>
      </g>
     </g>
     <g id="text_11">
      <!-- 350 -->
      <g transform="translate(68.4125 123.215862) scale(0.1 -0.1)">
       <use xlink:href="#DejaVuSans-33"/>
       <use xlink:href="#DejaVuSans-35" transform="translate(63.623047 0)"/>
       <use xlink:href="#DejaVuSans-30" transform="translate(127.246094 0)"/>
      </g>
     </g>
    </g>
    <g id="ytick_6">
     <g id="line2d_12">
      <g>
       <use xlink:href="#m18594e61ab" x="94.5" y="97.670529" style="stroke: #000000; stroke-width: 0.8"/>
      </g>
     </g>
     <g id="text_12">
      <!-- 400 -->
      <g transform="translate(68.4125 101.469748) scale(0.1 -0.1)">
       <use xlink:href="#DejaVuSans-34"/>
       <use xlink:href="#DejaVuSans-30" transform="translate(63.623047 0)"/>
       <use xlink:href="#DejaVuSans-30" transform="translate(127.246094 0)"/>
      </g>
     </g>
    </g>
    <g id="ytick_7">
     <g id="line2d_13">
      <g>
       <use xlink:href="#m18594e61ab" x="94.5" y="75.924415" style="stroke: #000000; stroke-width: 0.8"/>
      </g>
     </g>
     <g id="text_13">
      <!-- 450 -->
      <g transform="translate(68.4125 79.723634) scale(0.1 -0.1)">
       <use xlink:href="#DejaVuSans-34"/>
       <use xlink:href="#DejaVuSans-35" transform="translate(63.623047 0)"/>
       <use xlink:href="#DejaVuSans-30" transform="translate(127.246094 0)"/>
      </g>
     </g>
    </g>
    <g id="ytick_8">
     <g id="line2d_14">
      <g>
       <use xlink:href="#m18594e61ab" x="94.5" y="54.178301" style="stroke: #000000; stroke-width: 0.8"/>
      </g>
     </g>
     <g id="text_14">
      <!-- 500 -->
      <g transform="translate(68.4125 57.97752) scale(0.1 -0.1)">
       <use xlink:href="#DejaVuSans-35"/>
       <use xlink:href="#DejaVuSans-30" transform="translate(63.623047 0)"/>
       <use xlink:href="#DejaVuSans-30" transform="translate(127.246094 0)"/>
      </g>
     </g>
    </g>
    <g id="ytick_9">
     <g id="line2d_15">
      <g>
       <use xlink:href="#m18594e61ab" x="94.5" y="32.432187" style="stroke: #000000; stroke-width: 0.8"/>
      </g>
     </g>
     <g id="text_15">
      <!-- 550 -->
      <g transform="translate(68.4125 36.231406) scale(0.1 -0.1)">
       <use xlink:href="#DejaVuSans-35"/>
       <use xlink:href="#DejaVuSans-35" transform="translate(63.623047 0)"/>
       <use xlink:href="#DejaVuSans-30" transform="translate(127.246094 0)"/>
      </g>
     </g>
    </g>
   </g>
   <g id="line2d_16">
    <path d="M 121.131818 203.085474 
L 121.393042 202.663459 
L 121.654267 203.358521 
L 122.43794 204.500411 
L 123.221613 200.156318 
L 123.482837 201.211278 
L 124.26651 199.494345 
L 124.527734 197.119567 
L 124.788958 197.210592 
L 125.050183 195.667386 
L 125.311407 195.559824 
L 126.09508 193.569823 
L 126.356304 195.332275 
L 126.617529 195.220565 
L 126.878753 195.63431 
L 127.139977 194.95578 
L 128.446099 193.945682 
L 128.707323 195.132155 
L 128.968547 197.55074 
L 130.013445 201.915001 
L 130.274669 201.043816 
L 130.535893 206.017914 
L 131.58079 199.956895 
L 131.842015 203.391882 
L 132.103239 200.886162 
L 133.409361 209.154211 
L 133.670585 204.881214 
L 133.931809 207.905482 
L 134.193034 213.94991 
L 134.454258 205.748264 
L 135.237931 215.46 
L 135.499155 210.834345 
L 135.760379 213.39402 
L 136.021604 212.435699 
L 136.282828 214.659307 
L 137.066501 215.22766 
L 137.327725 210.100075 
L 137.58895 210.689161 
L 137.850174 206.876649 
L 138.111398 209.535876 
L 138.895071 205.167448 
L 139.156295 206.212884 
L 139.41752 208.536065 
L 139.678744 207.229294 
L 139.939968 207.822547 
L 140.723641 203.076607 
L 140.984866 203.815025 
L 141.24609 203.134676 
L 141.507314 203.130521 
L 142.552211 202.977048 
L 142.813436 199.579384 
L 143.07466 200.334412 
L 143.335884 198.193786 
L 143.597109 197.546612 
L 144.380782 199.015185 
L 144.642006 202.018721 
L 144.90323 199.65405 
L 145.164455 200.525248 
L 145.425679 199.226753 
L 146.209352 199.434193 
L 146.470576 201.193174 
L 146.7318 198.031984 
L 146.993025 197.293533 
L 147.254249 199.218464 
L 148.299146 196.650521 
L 148.821595 195.472343 
L 149.082819 195.024294 
L 149.866492 194.1697 
L 150.388941 197.069529 
L 150.650165 196.745932 
L 150.911389 195.654857 
L 151.695062 194.928876 
L 151.956287 195.4599 
L 152.217511 194.403234 
L 152.478735 195.330935 
L 152.739959 195.29764 
L 153.784857 196.104691 
L 154.046081 196.00486 
L 154.307305 196.175422 
L 154.56853 195.4058 
L 155.352203 195.580523 
L 155.613427 194.715231 
L 155.874651 194.528038 
L 156.135875 195.5431 
L 156.3971 193.76259 
L 157.180773 193.280006 
L 157.441997 192.680939 
L 157.703221 189.752261 
L 157.964446 194.149465 
L 158.22567 193.537935 
L 159.009343 193.03874 
L 159.270567 191.112581 
L 159.531791 190.83386 
L 159.793016 189.968574 
L 160.05424 190.455307 
L 161.099137 187.643065 
L 161.360362 189.336246 
L 161.621586 188.296218 
L 161.88281 189.964427 
L 162.666483 189.086612 
L 162.927707 186.977468 
L 164.495053 183.986382 
L 164.756278 185.005605 
L 165.017502 183.100265 
L 165.278726 182.480407 
L 165.539951 182.750806 
L 166.323623 185.496486 
L 166.584848 184.963988 
L 166.846072 185.092947 
L 167.107296 186.806907 
L 167.368521 187.239559 
L 168.152194 183.611964 
L 168.413418 184.797581 
L 168.674642 183.549555 
L 168.935867 187.381001 
L 169.197091 187.896847 
L 169.980764 186.836034 
L 170.241988 187.59732 
L 170.503212 186.748652 
L 170.764437 186.815215 
L 171.025661 186.353469 
L 171.809334 181.556874 
L 172.070558 182.908912 
L 172.331783 183.054521 
L 172.593007 181.635926 
L 172.854231 183.245854 
L 173.637904 185.005605 
L 173.899128 187.031555 
L 174.160353 184.61453 
L 174.421577 184.818399 
L 174.682801 184.735172 
L 175.466474 184.161092 
L 175.727699 183.657709 
L 175.988923 184.191486 
L 176.250147 182.156458 
L 176.511371 182.80701 
L 177.295044 182.527605 
L 177.556269 181.368308 
L 178.339942 176.18063 
L 179.123615 177.590133 
L 179.384839 176.864537 
L 179.646063 175.038017 
L 179.907287 181.022167 
L 181.213409 187.127278 
L 181.474633 183.528438 
L 181.735858 185.997174 
L 181.997082 186.555958 
L 182.780755 185.980484 
L 183.041979 184.575149 
L 183.564428 187.023014 
L 183.825652 188.073892 
L 184.609325 187.177323 
L 184.870549 185.142288 
L 185.131774 187.990493 
L 185.392998 186.906253 
L 185.654222 184.975463 
L 186.437895 184.299918 
L 186.699119 185.209017 
L 187.221568 183.040531 
L 187.482792 185.655215 
L 188.266465 183.90792 
L 188.52769 185.771975 
L 188.788914 184.13728 
L 189.050138 183.824521 
L 189.311363 181.643538 
L 190.35626 178.703572 
L 190.878708 180.038011 
L 191.139933 180.038011 
L 191.923606 182.306593 
L 192.446054 182.064703 
L 192.707279 182.027188 
L 192.968503 181.468391 
L 193.752176 184.033016 
L 194.0134 182.711094 
L 194.274624 187.118936 
L 194.535849 186.268231 
L 194.797073 187.206517 
L 195.580746 187.26489 
L 195.84197 185.555131 
L 196.364419 178.524264 
L 196.625643 178.344949 
L 197.409316 180.567627 
L 197.67054 183.645206 
L 197.931765 181.33494 
L 198.192989 181.797834 
L 198.454213 181.351637 
L 199.237886 181.05138 
L 199.760335 183.38555 
L 200.021559 182.8253 
L 200.282783 183.674041 
L 201.066456 183.791126 
L 201.327681 182.223227 
L 201.588905 182.219053 
L 202.111354 181.650434 
L 202.895027 182.135414 
L 203.156251 181.240677 
L 203.678699 182.064338 
L 203.939924 182.014161 
L 204.723597 182.04344 
L 204.984821 181.324302 
L 205.246045 183.084517 
L 205.50727 183.619695 
L 205.768494 182.474096 
L 206.552167 182.081075 
L 206.813391 182.110322 
L 207.074615 179.95708 
L 207.33584 179.898553 
L 207.597064 180.245583 
L 208.641961 178.008723 
L 208.903186 179.229586 
L 209.16441 178.506273 
L 210.209307 177.582249 
L 210.470531 177.92091 
L 210.731756 178.953651 
L 210.99298 178.644236 
L 212.037877 180.621873 
L 212.299102 180.534087 
L 212.560326 182.896369 
L 212.82155 180.371018 
L 213.082775 179.814935 
L 213.866447 180.705492 
L 214.127672 181.775861 
L 214.388896 181.186318 
L 214.65012 182.574438 
L 214.911345 182.729132 
L 215.956242 181.144522 
L 216.217466 177.841472 
L 216.739915 177.16833 
L 217.523588 175.671493 
L 217.784812 174.500801 
L 218.046036 174.262489 
L 218.307261 171.741299 
L 218.568485 174.655502 
L 219.352158 171.440265 
L 219.613382 171.498805 
L 219.874607 170.039609 
L 220.135831 170.453534 
L 220.397055 170.37411 
L 221.180728 170.261212 
L 221.441952 169.717672 
L 221.703177 170.114873 
L 221.964401 169.416632 
L 222.225625 169.207559 
L 223.270523 169.746945 
L 223.531747 169.302738 
L 223.792971 169.474561 
L 224.054195 170.656302 
L 225.099093 173.883159 
L 225.360317 173.34674 
L 225.621541 175.676756 
L 225.882766 174.256118 
L 226.666439 172.345157 
L 226.927663 173.631707 
L 227.188887 176.276042 
L 227.450111 176.623881 
L 227.711336 174.583006 
L 228.495009 176.34729 
L 228.756233 173.669428 
L 229.017457 174.239368 
L 229.278682 172.265527 
L 229.539906 172.843861 
L 230.323579 173.237797 
L 230.584803 172.022482 
L 230.846027 172.303275 
L 231.107252 174.951764 
L 231.368476 175.106823 
L 232.413373 172.07696 
L 232.674598 172.9654 
L 232.935822 174.272901 
L 233.197046 172.53795 
L 233.980719 173.057593 
L 234.241943 174.478211 
L 234.503168 172.835473 
L 234.764392 170.078001 
L 235.809289 167.261863 
L 236.070514 167.76893 
L 236.331738 166.91403 
L 236.854187 164.420547 
L 237.637859 164.395402 
L 237.899084 163.314228 
L 238.160308 164.529523 
L 238.421532 162.890973 
L 238.682757 162.371337 
L 239.727654 163.410608 
L 239.988878 162.438384 
L 240.250103 163.867384 
L 240.511327 162.199501 
L 241.295 162.031906 
L 241.556224 161.855909 
L 241.817448 164.961167 
L 242.078673 165.820267 
L 242.339897 165.958556 
L 243.12357 166.092671 
L 243.384794 167.798276 
L 243.646019 168.351439 
L 244.168467 165.841205 
L 244.95214 168.053903 
L 245.213364 168.452026 
L 245.474589 171.481889 
L 245.997037 167.647404 
L 246.78071 168.892059 
L 247.041935 169.772077 
L 247.303159 169.52006 
L 247.564383 168.108733 
L 247.825607 168.658995 
L 248.60928 166.302587 
L 248.870505 165.907748 
L 249.131729 166.004347 
L 249.392953 166.920023 
L 249.654178 166.764612 
L 250.699075 167.722322 
L 250.960299 167.764311 
L 251.221523 168.432164 
L 251.482748 166.298379 
L 252.266421 165.029874 
L 252.527645 165.550704 
L 252.788869 165.122279 
L 253.050094 163.589134 
L 254.094991 162.476033 
L 254.617439 163.530342 
L 254.878664 162.051808 
L 255.139888 162.669264 
L 255.923561 161.325157 
L 256.184785 160.11543 
L 256.44601 160.216223 
L 256.707234 159.619785 
L 256.968458 160.321251 
L 257.752131 158.767128 
L 258.013355 157.641411 
L 258.27458 157.851426 
L 258.535804 157.557394 
L 258.797028 155.016162 
L 259.841926 155.011982 
L 260.10315 154.058492 
L 260.364374 155.112748 
L 260.625599 154.894358 
L 261.409271 155.154783 
L 261.670496 153.617438 
L 261.93172 152.974796 
L 262.192944 153.596453 
L 262.454169 153.714063 
L 263.237842 155.285002 
L 263.76029 153.441016 
L 264.282739 149.967318 
L 265.066412 150.22773 
L 265.327636 151.28204 
L 265.58886 151.416506 
L 265.850085 151.298856 
L 266.111309 151.966729 
L 266.894982 152.004517 
L 267.156206 151.038458 
L 267.417431 151.294649 
L 267.678655 150.030364 
L 267.939879 150.055556 
L 268.723552 150.530204 
L 268.984776 151.324061 
L 269.246001 151.109826 
L 269.768449 148.631626 
L 270.552122 147.896566 
L 271.074571 149.28831 
L 271.597019 143.552241 
L 272.380692 143.430198 
L 272.641917 144.2845 
L 272.903141 144.541236 
L 273.164365 145.770056 
L 273.42559 145.504932 
L 274.209263 143.876323 
L 274.470487 144.595933 
L 274.731711 144.61697 
L 274.992935 144.903197 
L 275.25416 144.907339 
L 276.560281 145.298779 
L 276.821506 146.544456 
L 277.08273 147.192525 
L 277.866403 146.653863 
L 278.127627 145.475506 
L 278.388851 143.358684 
L 278.650076 143.190333 
L 278.9113 145.441846 
L 279.694973 147.785911 
L 279.956197 147.575511 
L 280.217422 145.984716 
L 280.478646 145.572291 
L 280.73987 145.660675 
L 281.523543 147.840608 
L 281.784767 152.322612 
L 282.045992 152.120547 
L 282.307216 152.995913 
L 282.56844 149.9743 
L 283.352113 152.495105 
L 283.874562 148.28672 
L 284.135786 147.554461 
L 284.397011 147.554461 
L 285.180683 147.81539 
L 285.441908 148.383518 
L 285.703132 146.940011 
L 285.964356 144.229816 
L 286.225581 143.615353 
L 287.270478 141.923605 
L 287.531702 142.268698 
L 287.792927 140.85885 
L 288.054151 141.532191 
L 288.837824 141.965693 
L 289.099048 141.132429 
L 289.360272 135.636226 
L 289.621497 135.139612 
L 289.882721 132.080131 
L 290.666394 133.027011 
L 290.927618 131.444644 
L 291.188843 131.078514 
L 291.450067 130.051679 
L 291.711291 130.211576 
L 292.494964 129.820215 
L 292.756188 130.257859 
L 293.017413 132.42521 
L 293.278637 131.739273 
L 293.539861 129.933817 
L 294.323534 130.207382 
L 294.584759 128.759707 
L 294.845983 128.66271 
L 295.368431 126.980492 
L 296.152104 128.363396 
L 296.413329 129.269833 
L 296.674553 129.172876 
L 297.197002 132.642724 
L 297.980675 129.712547 
L 298.241899 132.259048 
L 298.764347 132.722825 
L 299.025572 135.454867 
L 299.809245 134.114144 
L 300.070469 130.433484 
L 300.331693 130.412393 
L 300.592918 131.200823 
L 300.854142 127.220822 
L 301.637815 128.544675 
L 301.899039 133.207693 
L 302.160263 130.547351 
L 302.421488 134.658036 
L 302.682712 135.121826 
L 303.466385 136.761863 
L 303.988834 131.158629 
L 304.250058 130.530455 
L 305.294955 127.258742 
L 305.556179 127.764701 
L 305.817404 127.469567 
L 306.339852 129.843204 
L 307.123525 130.505157 
L 307.38475 132.925195 
L 307.645974 138.250153 
L 307.907198 139.30417 
L 308.952096 139.139734 
L 309.21332 138.840406 
L 309.474544 137.453308 
L 309.735768 143.132423 
L 309.996993 140.855705 
L 311.04189 144.038848 
L 311.303114 143.752209 
L 311.564339 144.481574 
L 311.825563 146.82994 
L 312.609236 146.686607 
L 312.87046 150.008915 
L 313.131684 146.543248 
L 313.392909 145.223589 
L 313.654133 141.6736 
L 314.437806 140.526832 
L 314.69903 141.462841 
L 314.960255 139.481269 
L 315.221479 144.629141 
L 315.482703 142.651763 
L 316.266376 144.755631 
L 316.5276 143.233589 
L 316.788825 140.429901 
L 317.311273 147.247355 
L 318.094946 147.264198 
L 318.356171 144.958001 
L 318.617395 145.105846 
L 318.878619 148.811021 
L 319.139844 149.993983 
L 320.184741 150.082699 
L 320.445965 153.230165 
L 320.707189 147.180261 
L 320.968414 146.031078 
L 321.752087 145.405811 
L 322.013311 147.028142 
L 322.274535 144.814323 
L 323.841881 155.097578 
L 324.103105 149.753162 
L 324.36433 150.982593 
L 324.625554 153.314686 
L 325.409227 154.848302 
L 325.931676 147.264716 
L 326.1929 146.914063 
L 326.454124 144.712959 
L 327.237797 145.249497 
L 327.499021 143.179343 
L 327.760246 145.110054 
L 328.02147 143.162433 
L 328.282694 143.339864 
L 329.066367 140.374049 
L 329.327592 138.384128 
L 329.588816 139.039007 
L 329.85004 141.383788 
L 330.111264 140.914822 
L 330.894937 138.57004 
L 331.156162 140.297996 
L 331.417386 145.105846 
L 331.67861 144.315811 
L 332.723508 151.121983 
L 332.984732 152.473948 
L 333.245956 150.124933 
L 333.50718 153.416103 
L 334.552078 153.124566 
L 334.813302 151.1051 
L 335.074526 150.657277 
L 335.596975 155.866496 
L 336.380648 153.040072 
L 336.641872 157.476125 
L 336.903096 151.983864 
L 337.164321 149.27574 
L 337.425545 154.392023 
L 338.209218 151.45578 
L 338.470442 152.592249 
L 338.731667 149.127895 
L 338.992891 154.463829 
L 339.254115 155.570752 
L 340.037788 159.858947 
L 340.299012 157.780324 
L 340.821461 163.758455 
L 341.082685 161.32075 
L 341.866358 161.16019 
L 342.127583 158.912558 
L 342.388807 164.044987 
L 342.911256 164.688664 
L 343.694928 161.262821 
L 343.956153 161.699018 
L 344.478601 159.039605 
L 344.739826 155.931373 
L 345.784723 156.511566 
L 346.045947 156.278629 
L 346.307172 155.363962 
L 346.568396 157.294939 
L 347.352069 157.832738 
L 347.613293 156.24473 
L 347.874517 157.129785 
L 348.135742 159.50966 
L 348.396966 164.506581 
L 349.180639 169.050383 
L 349.441863 168.106058 
L 349.703088 165.027445 
L 349.964312 167.902792 
L 350.225536 166.767897 
L 351.270433 164.188977 
L 351.531658 164.447292 
L 351.792882 162.020836 
L 352.054106 158.277376 
L 352.837779 159.467307 
L 353.099004 163.028664 
L 353.360228 161.427961 
L 353.621452 162.880467 
L 353.882676 161.715941 
L 354.927574 160.331192 
L 355.450022 157.980955 
L 355.711247 158.294352 
L 356.49492 159.628239 
L 356.756144 164.218628 
L 357.017368 164.62092 
L 357.278592 164.044987 
L 357.539817 162.927055 
L 358.32349 163.973002 
L 358.584714 161.737097 
L 359.107163 159.488517 
L 359.368387 161.385628 
L 360.15206 162.033551 
L 360.413284 164.968175 
L 360.674508 157.836985 
L 360.935733 154.588991 
L 361.196957 152.755384 
L 361.98063 153.911456 
L 362.241854 155.262319 
L 362.503079 152.02278 
L 362.764303 151.523073 
L 363.8092 152.933213 
L 364.070424 152.094798 
L 364.331649 149.189799 
L 364.592873 150.096011 
L 364.854097 148.025273 
L 365.63777 147.364647 
L 366.421443 148.501248 
L 366.682668 150.20725 
L 367.46634 153.771893 
L 367.727565 154.32781 
L 367.988789 154.603645 
L 368.250013 153.305076 
L 368.511238 157.871282 
L 369.294911 159.084945 
L 369.817359 160.680545 
L 370.078584 161.13462 
L 370.339808 162.97639 
L 371.384705 164.168842 
L 371.645929 162.114914 
L 371.907154 161.932453 
L 372.168378 159.411707 
L 372.952051 158.482348 
L 373.213275 164.703543 
L 373.4745 164.605935 
L 373.735724 167.508597 
L 373.996948 167.780198 
L 374.780621 167.873552 
L 375.041845 168.751998 
L 375.30307 170.237274 
L 375.564294 169.375805 
L 375.825518 170.674367 
L 376.609191 170.873837 
L 376.870416 171.31517 
L 377.13164 169.337619 
L 377.654088 172.804687 
L 378.437761 169.47766 
L 378.698986 166.023321 
L 378.96021 165.887527 
L 379.221434 166.910254 
L 379.482659 172.236041 
L 380.266332 174.353633 
L 380.527556 175.983178 
L 380.78878 175.838903 
L 381.050004 172.236041 
L 381.311229 174.646437 
L 382.094902 170.839878 
L 382.356126 170.428236 
L 382.61735 171.285465 
L 382.878575 171.425506 
L 383.139799 168.892032 
L 383.923472 166.715038 
L 384.184696 165.267961 
L 384.44592 173.475181 
L 384.707145 175.414532 
L 384.968369 171.544324 
L 385.752042 173.131456 
L 386.013266 174.811942 
L 386.535715 180.71911 
L 386.796939 177.689128 
L 387.580612 174.939234 
L 387.841836 174.514897 
L 388.103061 176.365115 
L 388.364285 168.527077 
L 388.625509 166.77446 
L 389.409182 169.133915 
L 389.931631 168.768449 
L 390.192855 168.789732 
L 390.45408 168.985492 
L 391.237752 168.632271 
L 391.760201 166.278901 
L 392.28265 166.317213 
L 393.327547 169.364231 
L 393.588771 163.061661 
L 393.849996 163.253167 
L 394.11122 163.112734 
L 394.894893 165.163935 
L 395.156117 167.325792 
L 395.417341 167.644969 
L 395.678566 166.355512 
L 395.93979 167.198121 
L 396.723463 164.180894 
L 396.984687 162.304163 
L 397.245912 162.176486 
L 397.507136 165.670358 
L 397.76836 167.508777 
L 398.552033 169.313164 
L 398.813257 168.738659 
L 399.074482 167.619432 
L 399.335706 170.274922 
L 399.59693 170.045131 
L 400.641828 170.798368 
L 400.903052 171.832489 
L 401.164276 169.074858 
L 401.4255 169.581267 
L 402.470398 169.683401 
L 402.992846 177.032855 
L 403.254071 175.917889 
L 404.037744 174.985915 
L 404.298968 174.249674 
L 404.560192 171.304784 
L 404.821416 170.138757 
L 405.082641 169.832355 
L 406.127538 169.355723 
L 406.649987 172.938954 
L 406.911211 169.411051 
L 407.694884 168.40672 
L 407.956108 168.636518 
L 408.217332 169.245075 
L 408.478557 166.100184 
L 408.739781 166.032094 
L 409.523454 168.351405 
L 410.045903 164.078753 
L 410.307127 159.035849 
L 410.568351 161.695613 
L 411.352024 162.367999 
L 411.613248 157.776183 
L 411.874473 158.129424 
L 412.135697 159.452906 
L 412.396921 159.67419 
L 413.180594 156.176097 
L 413.441819 155.814347 
L 413.703043 156.74015 
L 413.964267 159.799033 
L 414.225492 161.543952 
L 415.531613 164.338369 
L 415.792837 162.947561 
L 416.054062 165.315344 
L 416.837735 164.914321 
L 417.098959 165.230014 
L 417.360183 166.573902 
L 417.882632 162.725727 
L 418.666305 162.051642 
L 418.927529 163.212074 
L 419.188753 163.404072 
L 419.449978 163.992799 
L 419.711202 165.584125 
L 420.494875 163.310187 
L 421.539772 152.426936 
L 422.323445 155.498628 
L 422.584669 154.837378 
L 422.845894 155.473051 
L 423.107118 153.182051 
L 423.368342 151.940582 
L 424.41324 154.218747 
L 424.935688 150.455916 
L 425.196912 148.642762 
L 425.980585 149.099213 
L 426.24181 149.120555 
L 426.503034 150.3322 
L 426.764258 147.234852 
L 427.809156 148.17771 
L 428.07038 150.976408 
L 428.331604 150.694826 
L 428.592828 147.985733 
L 428.854053 149.564238 
L 429.637726 148.429415 
L 429.89895 148.612872 
L 430.160174 148.578761 
L 430.421399 149.577059 
L 430.682623 149.726364 
L 431.466296 151.428598 
L 431.72752 154.137704 
L 431.988744 145.626511 
L 432.249969 141.590592 
L 432.511193 140.553882 
L 433.294866 141.279159 
L 433.55609 141.343147 
L 433.817315 141.774048 
L 434.078539 141.343147 
L 434.339763 139.107627 
L 435.123436 139.960867 
L 435.38466 140.664802 
L 435.645885 138.399418 
L 435.907109 139.338016 
L 436.168333 139.824357 
L 436.952006 139.615324 
L 437.474455 137.385591 
L 437.735679 135.452995 
L 437.996904 135.529964 
L 438.780576 134.315704 
L 439.041801 136.846836 
L 439.303025 137.449712 
L 439.825474 129.308961 
L 440.870371 130.027271 
L 441.131595 131.232983 
L 441.654044 128.235791 
L 442.437717 128.004898 
L 442.698941 128.971183 
L 442.960165 133.375049 
L 443.482614 131.917101 
L 444.527511 128.710386 
L 444.788736 127.406336 
L 445.04996 122.80578 
L 445.311184 125.272803 
L 446.356081 127.102747 
L 446.617306 129.022495 
L 446.87853 126.392999 
L 447.139754 128.398276 
L 447.923427 131.143192 
L 448.184652 128.590665 
L 448.445876 128.043389 
L 448.7071 128.385455 
L 448.968324 126.038112 
L 449.751997 127.128404 
L 450.274446 127.059996 
L 450.53567 125.726002 
L 450.796895 127.457635 
L 451.580568 129.762187 
L 451.841792 129.488529 
L 452.625465 124.0286 
L 453.409138 123.81909 
L 453.670362 117.935866 
L 453.931586 119.821396 
L 454.192811 123.33166 
L 454.454035 124.657106 
L 455.237708 124.084173 
L 455.498932 121.574398 
L 455.760156 127.222481 
L 456.021381 130.236755 
L 456.282605 126.965932 
L 457.066278 128.013459 
L 457.327502 127.833892 
L 457.588727 131.613513 
L 457.849951 131.972661 
L 458.111175 131.493793 
L 458.894848 130.497565 
L 459.417297 133.866739 
L 459.678521 133.567478 
L 459.939745 134.388386 
L 460.723418 133.092857 
L 460.984643 134.024951 
L 461.245867 134.359146 
L 461.507091 135.867345 
L 461.768316 136.038709 
L 462.551988 133.725013 
L 462.813213 133.476506 
L 463.074437 131.531262 
L 463.335661 134.543385 
L 463.596886 133.253696 
L 464.380559 132.945197 
L 464.641783 130.927165 
L 464.903007 130.764308 
L 465.164232 131.205641 
L 465.425456 130.820027 
L 466.470353 128.724827 
L 466.731577 129.011917 
L 466.992802 130.284444 
L 467.254026 128.416327 
L 468.037699 126.843875 
L 468.298923 129.487493 
L 468.821372 126.518228 
L 469.082596 130.151623 
L 470.127493 130.824314 
L 470.388718 134.200616 
L 470.649942 134.731925 
L 470.911166 135.811652 
L 471.694839 135.584555 
L 471.956064 137.898265 
L 472.478512 137.255544 
L 473.523409 133.759309 
L 473.784634 137.362682 
L 474.045858 134.976118 
L 474.307082 134.804766 
L 474.568307 131.419877 
L 475.35198 130.323001 
L 475.613204 130.935712 
L 475.874428 129.208991 
L 476.135653 129.748874 
L 476.396877 131.218502 
L 477.18055 129.114728 
L 477.441774 129.363234 
L 477.702998 130.198768 
L 477.964223 129.680307 
L 478.225447 131.67267 
L 479.270344 130.018803 
L 479.531569 125.674132 
L 479.792793 131.149935 
L 480.054017 130.327288 
L 480.83769 127.113804 
L 481.098914 126.771034 
L 481.360139 123.360436 
L 481.621363 122.396394 
L 481.882587 120.476846 
L 482.66626 118.878684 
L 483.188709 116.02083 
L 483.449933 117.096296 
L 483.711157 113.248665 
L 484.49483 114.52978 
L 484.756055 112.991585 
L 485.017279 112.927185 
L 485.278503 110.136518 
L 485.539728 112.849911 
L 486.323401 109.591233 
L 486.584625 111.467432 
L 486.845849 109.415222 
L 487.368298 109.595546 
L 488.151971 109.088924 
L 488.413195 107.332923 
L 488.674419 108.985888 
L 488.935644 108.960125 
L 489.196868 110.8492 
L 489.980541 113.15472 
L 490.241765 111.703581 
L 490.502989 113.300708 
L 490.764214 112.377613 
L 491.025438 110.969411 
L 491.809111 112.227365 
L 492.070335 110.905012 
L 492.33156 110.909325 
L 492.592784 114.532886 
L 492.854008 112.472102 
L 493.898905 111.385871 
L 494.16013 112.519326 
L 494.421354 111.265659 
L 494.682578 110.819163 
L 495.727476 110.784813 
L 495.9887 111.038098 
L 496.511149 110.192303 
L 497.556046 112.411989 
L 497.81727 112.527914 
L 498.078494 113.669943 
L 498.339719 113.751504 
L 499.123392 110.771939 
L 499.384616 110.299654 
L 499.64584 107.302913 
L 499.907065 106.504344 
L 500.168289 104.855692 
L 501.213186 104.082885 
L 501.47441 104.426345 
L 501.996859 100.47646 
L 502.780532 101.403815 
L 503.041756 100.377724 
L 503.564205 97.814592 
L 503.825429 98.218177 
L 504.609102 95.732306 
L 504.870326 96.217479 
L 505.131551 100.944471 
L 505.653999 95.088311 
L 506.437672 97.47972 
L 506.698897 97.548419 
L 506.960121 93.873308 
L 507.221345 93.847558 
L 507.482569 91.08264 
L 508.266242 93.353785 
L 508.527467 97.192059 
L 508.788691 95.505952 
L 509.31114 97.841535 
L 510.356037 98.387829 
L 510.617261 98.650192 
L 510.878485 94.576884 
L 511.13971 95.14034 
L 511.923383 96.344672 
L 512.184607 96.370527 
L 512.445831 96.267278 
L 512.707056 93.720896 
L 512.96828 92.920893 
L 513.751953 93.170342 
L 514.013177 98.448035 
L 514.274401 98.688896 
L 514.535626 95.656465 
L 514.79685 96.912468 
L 515.580523 97.643691 
L 515.841747 93.015501 
L 516.102972 93.092921 
L 516.364196 88.740022 
L 516.62542 92.525179 
L 517.409093 92.138038 
L 518.192766 86.95498 
L 518.45399 87.22597 
L 519.498888 90.275589 
L 519.760112 90.370211 
L 520.021336 90.675604 
L 521.066233 89.019587 
L 521.327458 90.36591 
L 521.588682 90.791728 
L 521.849906 91.897151 
L 522.111131 88.610971 
L 522.894804 89.011012 
L 523.156028 88.284076 
L 523.417252 89.583069 
L 523.678477 87.574381 
L 523.939701 90.168053 
L 524.723374 93.720896 
L 524.984598 93.316608 
L 525.245822 94.495137 
L 525.768271 99.966374 
L 526.551944 99.174945 
L 526.813168 96.331784 
L 527.074393 95.690921 
L 527.335617 100.000803 
L 527.596841 96.869464 
L 528.380514 98.620103 
L 528.641738 104.177347 
L 528.902963 101.764344 
L 529.164187 100.516955 
L 529.425411 96.723211 
L 530.209084 93.763927 
L 530.470309 95.570457 
L 530.731533 95.054319 
L 531.253981 93.247775 
L 532.037654 93.686507 
L 532.298879 92.464947 
L 532.560103 89.332267 
L 532.821327 90.232864 
L 533.082552 90.568957 
L 533.866225 88.358417 
L 534.127449 86.764051 
L 534.388673 86.126334 
L 534.649897 87.64312 
L 534.911122 86.281453 
L 535.956019 86.212501 
L 536.217243 86.708027 
L 536.478468 92.956159 
L 536.739692 92.75793 
L 537.523365 93.451711 
L 537.784589 92.352898 
L 538.045813 88.931535 
L 538.307038 88.711764 
L 538.568262 89.000447 
L 539.351935 87.268244 
L 539.613159 85.195567 
L 539.874384 81.584603 
L 540.135608 81.360532 
L 540.396832 80.933932 
L 541.180505 78.434668 
L 541.441729 79.30941 
L 541.964178 79.585179 
L 542.225402 77.827107 
L 543.009075 78.736305 
L 543.2703 77.322927 
L 543.792748 76.504223 
L 544.053973 79.04657 
L 545.09887 73.733518 
L 545.360094 73.091474 
L 545.882543 70.165623 
L 546.666216 70.734415 
L 546.92744 73.621469 
L 547.188664 70.730101 
L 547.449889 75.707047 
L 547.711113 76.202599 
L 548.494786 76.025925 
L 549.539683 83.286664 
L 550.58458 79.951468 
L 551.107029 91.348879 
L 551.368253 88.388599 
L 552.151926 87.759456 
L 552.674375 91.370434 
L 552.935599 91.904756 
L 553.196823 95.619169 
L 553.980496 101.367435 
L 554.241721 99.44559 
L 554.502945 99.954057 
L 555.025393 96.683486 
L 555.809066 96.343079 
L 556.070291 93.240555 
L 556.331515 92.012478 
L 556.592739 89.888622 
L 556.853964 90.993713 
L 557.637637 89.67278 
L 557.898861 88.261167 
L 558.160085 88.54608 
L 558.421309 92.254228 
L 558.682534 91.718937 
L 559.466207 93.143491 
L 559.727431 92.992407 
L 559.988655 94.391052 
L 560.24988 93.303215 
L 560.511104 91.56784 
L 561.556001 94.891794 
L 562.07845 95.345059 
L 562.339674 98.233003 
L 563.123347 96.49764 
L 563.645796 89.020927 
L 564.168244 85.761731 
L 564.951917 85.437981 
L 565.213141 83.793272 
L 565.474366 85.666778 
L 565.73559 82.265125 
L 565.996814 83.741482 
L 566.780487 84.501229 
L 567.041712 86.374708 
L 567.302936 85.105605 
L 567.56416 85.450936 
L 567.825385 86.871176 
L 568.609057 85.886933 
L 568.870282 90.035379 
L 569.131506 91.572167 
L 569.653955 92.034059 
L 570.437628 94.848631 
L 570.698852 92.616854 
L 570.960076 91.429723 
L 571.221301 92.129039 
L 571.482525 91.921825 
L 572.266198 90.704486 
L 572.527422 90.877178 
L 572.788646 92.008177 
L 573.049871 91.749159 
L 573.311095 91.127542 
L 574.094768 90.859897 
L 574.355992 87.091318 
L 574.617217 88.347506 
L 574.878441 88.291389 
L 575.139665 86.815045 
L 575.923338 87.488479 
L 576.184562 85.174636 
L 576.445787 84.924272 
L 576.707011 96.225694 
L 576.968235 94.490346 
L 577.751908 95.314864 
L 578.013133 94.019812 
L 578.535581 87.989221 
L 578.796805 89.236756 
L 579.580478 91.192287 
L 579.841703 89.025254 
L 580.364151 87.35895 
L 580.625376 92.491652 
L 581.409049 92.163575 
L 581.670273 91.287253 
L 582.192721 93.054377 
L 582.453946 91.267968 
L 583.237619 90.493714 
L 583.498843 86.514297 
L 583.760067 88.67703 
L 584.282516 88.47373 
L 585.066189 85.220985 
L 585.327413 85.125819 
L 585.849862 80.186157 
L 586.894759 78.71552 
L 587.155983 79.879051 
L 587.417208 77.430835 
L 587.678432 77.18428 
L 587.939656 78.174814 
L 588.723329 76.30622 
L 588.984553 75.06483 
L 589.245778 82.448369 
L 589.768226 82.790076 
L 590.551899 83.373999 
L 590.813124 81.609237 
L 591.335572 82.136936 
L 591.596797 85.41563 
L 592.380469 87.881141 
L 592.641694 89.321516 
L 593.164142 90.584553 
L 593.425367 88.521287 
L 594.20904 86.574848 
L 594.470264 88.945206 
L 594.731488 87.997941 
L 595.253937 90.424497 
L 596.03761 91.185783 
L 596.298834 91.84325 
L 596.560058 87.240968 
L 596.821283 87.989287 
L 597.082507 86.064443 
L 598.127404 86.29369 
L 598.388629 78.637622 
L 598.649853 78.417055 
L 598.911077 79.563279 
L 599.69475 83.672463 
L 599.955974 78.205089 
L 600.217199 80.311598 
L 600.478423 92.137388 
L 600.739647 92.107113 
L 601.52332 93.897849 
L 602.306993 91.778386 
L 602.568217 94.403927 
L 603.35189 93.335535 
L 603.613115 93.672928 
L 603.874339 94.711032 
L 604.135563 94.062219 
L 604.396788 94.974895 
L 605.441685 94.451496 
L 605.702909 92.232554 
L 605.964133 91.283364 
L 606.225358 94.716009 
L 607.009031 96.540671 
L 607.270255 99.184488 
L 607.531479 98.391334 
L 607.792704 101.511922 
L 608.053928 99.578902 
L 608.837601 103.262906 
L 609.098825 103.210904 
L 609.360049 97.832244 
L 610.666171 106.873234 
L 610.927395 106.747527 
L 611.18862 105.525317 
L 611.449844 107.475685 
L 611.711068 103.232565 
L 612.494741 103.171882 
L 612.755965 105.416958 
L 613.01719 103.553288 
L 613.278414 103.97803 
L 613.539638 102.062344 
L 614.323311 101.273543 
L 614.584536 100.37203 
L 614.84576 102.621446 
L 615.106984 102.357079 
L 615.368209 107.462678 
L 616.151881 108.940601 
L 616.413106 105.993408 
L 616.67433 106.015069 
L 616.935554 109.928799 
L 617.196779 115.680184 
L 617.980452 116.538336 
L 618.241676 117.968597 
L 618.5029 102.396075 
L 618.764125 106.357467 
L 619.025349 103.280241 
L 619.809022 103.557628 
L 620.070246 104.459115 
L 620.33147 110.578913 
L 620.592695 112.238886 
L 621.637592 115.992241 
L 622.160041 109.37401 
L 622.421265 103.778673 
L 622.682489 101.806631 
L 623.466162 102.10568 
L 623.727386 100.857455 
L 623.988611 100.328694 
L 624.249835 87.265643 
L 624.511059 82.983514 
L 625.294732 82.59778 
L 625.555957 83.837338 
L 625.817181 83.820004 
L 626.078405 81.730949 
L 626.339629 81.488243 
L 627.123302 76.924399 
L 627.384527 76.976402 
L 627.645751 75.32945 
L 628.1682 74.391555 
L 628.951873 72.394202 
L 629.213097 72.698135 
L 629.474321 75.129708 
L 629.735545 74.135378 
L 629.99677 76.167466 
L 631.041667 71.603941 
L 631.302891 73.04985 
L 631.82534 71.747234 
L 632.609013 71.048143 
L 633.131462 70.223161 
L 633.65391 67.396458 
L 634.437583 66.36738 
L 634.698807 67.161981 
L 634.960032 66.423829 
L 635.221256 63.710025 
L 635.48248 65.407785 
L 636.266153 63.592786 
L 636.527378 64.07042 
L 636.788602 63.115165 
L 637.31105 64.348312 
L 638.617172 57.891638 
L 638.878396 55.642434 
L 639.139621 56.298082 
L 639.923294 55.659795 
L 640.184518 57.987162 
L 640.445742 58.403994 
L 640.706966 55.038881 
L 641.751864 55.525196 
L 642.013088 56.00283 
L 642.274312 53.01112 
L 642.535537 53.892565 
L 642.796761 53.093623 
L 643.580434 53.223895 
L 643.841658 52.008109 
L 644.102882 52.094953 
L 644.364107 49.454958 
L 644.625331 50.171409 
L 645.409004 50.167069 
L 645.670228 52.246926 
L 645.931453 51.986395 
L 646.192677 49.811014 
L 646.453901 48.582181 
L 647.237574 49.107597 
L 647.498798 49.077202 
L 647.760023 48.786289 
L 648.021247 39.989227 
L 648.282471 44.066438 
L 649.066144 39.06 
L 649.327369 42.485916 
L 649.588593 43.706029 
L 649.849817 45.486279 
L 650.111042 44.965243 
L 650.894714 45.082468 
L 651.155939 41.838947 
L 651.417163 45.599178 
L 651.678387 44.774195 
L 651.939612 45.777219 
L 652.723285 47.110256 
L 652.984509 50.292988 
L 653.245733 52.051525 
L 653.506958 52.334235 
L 653.768182 51.033808 
L 653.768182 51.033808 
" clip-path="url(#pa4e9b4d507)" style="fill: none; stroke: #1f77b4; stroke-width: 1.5; stroke-linecap: square"/>
   </g>
   <g id="patch_3">
    <path d="M 94.5 224.28 
L 94.5 30.24 
" style="fill: none; stroke: #000000; stroke-width: 0.8; stroke-linejoin: miter; stroke-linecap: square"/>
   </g>
   <g id="patch_4">
    <path d="M 94.5 224.28 
L 680.4 224.28 
" style="fill: none; stroke: #000000; stroke-width: 0.8; stroke-linejoin: miter; stroke-linecap: square"/>
   </g>
  </g>
 </g>
 <defs>
  <clipPath id="pa4e9b4d507">
   <rect x="94.5" y="30.24" width="585.9" height="194.04"/>
  </clipPath>
 </defs>
</svg>
