<?xml version="1.0" encoding="utf-8" standalone="no"?>
<!DOCTYPE svg PUBLIC "-//W3C//DTD SVG 1.1//EN"
  "http://www.w3.org/Graphics/SVG/1.1/DTD/svg11.dtd">
<svg xmlns:xlink="http://www.w3.org/1999/xlink" width="756pt" height="252pt" viewBox="0 0 756 252" xmlns="http://www.w3.org/2000/svg" version="1.1">
 <metadata>
  <rdf:RDF xmlns:dc="http://purl.org/dc/elements/1.1/" xmlns:cc="http://creativecommons.org/ns#" xmlns:rdf="http://www.w3.org/1999/02/22-rdf-syntax-ns#">
   <cc:Work>
    <dc:type rdf:resource="http://purl.org/dc/dcmitype/StillImage"/>
    <dc:date>2025-08-27T15:29:16.669705</dc:date>
    <dc:format>image/svg+xml</dc:format>
    <dc:creator>
     <cc:Agent>
      <dc:title>Matplotlib v3.10.5, https://matplotlib.org/</dc:title>
     </cc:Agent>
    </dc:creator>
   </cc:Work>
  </rdf:RDF>
 </metadata>
 <defs>
  <style type="text/css">*{stroke-linejoin: round; stroke-linecap: butt}</style>
 </defs>
 <g id="figure_1">
  <g id="patch_1">
   <path d="M 0 252 
L 756 252 
L 756 0 
L 0 0 
z
" style="fill: #ffffff"/>
  </g>
  <g id="axes_1">
   <g id="patch_2">
    <path d="M 94.5 224.28 
L 680.4 224.28 
L 680.4 30.24 
L 94.5 30.24 
z
" style="fill: #ffffff"/>
   </g>
   <g id="matplotlib.axis_1">
    <g id="xtick_1">
     <g id="line2d_1">
      <defs>
       <path id="md70ffc8592" d="M 0 0 
L 0 3.5 
" style="stroke: #000000; stroke-width: 0.8"/>
      </defs>
      <g>
       <use xlink:href="#md70ffc8592" x="115.646108" y="224.28" style="stroke: #000000; stroke-width: 0.8"/>
      </g>
     </g>
     <g id="text_1">
      <!-- 2020 -->
      <g transform="translate(102.921108 238.878438) scale(0.1 -0.1)">
       <defs>
        <path id="DejaVuSans-32" d="M 1228 531 
L 3431 531 
L 3431 0 
L 469 0 
L 469 531 
Q 828 903 1448 1529 
Q 2069 2156 2228 2338 
Q 2531 2678 2651 2914 
Q 2772 3150 2772 3378 
Q 2772 3750 2511 3984 
Q 2250 4219 1831 4219 
Q 1534 4219 1204 4116 
Q 875 4013 500 3803 
L 500 4441 
Q 881 4594 1212 4672 
Q 1544 4750 1819 4750 
Q 2544 4750 2975 4387 
Q 3406 4025 3406 3419 
Q 3406 3131 3298 2873 
Q 3191 2616 2906 2266 
Q 2828 2175 2409 1742 
Q 1991 1309 1228 531 
z
" transform="scale(0.015625)"/>
        <path id="DejaVuSans-30" d="M 2034 4250 
Q 1547 4250 1301 3770 
Q 1056 3291 1056 2328 
Q 1056 1369 1301 889 
Q 1547 409 2034 409 
Q 2525 409 2770 889 
Q 3016 1369 3016 2328 
Q 3016 3291 2770 3770 
Q 2525 4250 2034 4250 
z
M 2034 4750 
Q 2819 4750 3233 4129 
Q 3647 3509 3647 2328 
Q 3647 1150 3233 529 
Q 2819 -91 2034 -91 
Q 1250 -91 836 529 
Q 422 1150 422 2328 
Q 422 3509 836 4129 
Q 1250 4750 2034 4750 
z
" transform="scale(0.015625)"/>
       </defs>
       <use xlink:href="#DejaVuSans-32"/>
       <use xlink:href="#DejaVuSans-30" transform="translate(63.623047 0)"/>
       <use xlink:href="#DejaVuSans-32" transform="translate(127.246094 0)"/>
       <use xlink:href="#DejaVuSans-30" transform="translate(190.869141 0)"/>
      </g>
     </g>
    </g>
    <g id="xtick_2">
     <g id="line2d_2">
      <g>
       <use xlink:href="#md70ffc8592" x="211.254204" y="224.28" style="stroke: #000000; stroke-width: 0.8"/>
      </g>
     </g>
     <g id="text_2">
      <!-- 2021 -->
      <g transform="translate(198.529204 238.878438) scale(0.1 -0.1)">
       <defs>
        <path id="DejaVuSans-31" d="M 794 531 
L 1825 531 
L 1825 4091 
L 703 3866 
L 703 4441 
L 1819 4666 
L 2450 4666 
L 2450 531 
L 3481 531 
L 3481 0 
L 794 0 
L 794 531 
z
" transform="scale(0.015625)"/>
       </defs>
       <use xlink:href="#DejaVuSans-32"/>
       <use xlink:href="#DejaVuSans-30" transform="translate(63.623047 0)"/>
       <use xlink:href="#DejaVuSans-32" transform="translate(127.246094 0)"/>
       <use xlink:href="#DejaVuSans-31" transform="translate(190.869141 0)"/>
      </g>
     </g>
    </g>
    <g id="xtick_3">
     <g id="line2d_3">
      <g>
       <use xlink:href="#md70ffc8592" x="306.601077" y="224.28" style="stroke: #000000; stroke-width: 0.8"/>
      </g>
     </g>
     <g id="text_3">
      <!-- 2022 -->
      <g transform="translate(293.876077 238.878438) scale(0.1 -0.1)">
       <use xlink:href="#DejaVuSans-32"/>
       <use xlink:href="#DejaVuSans-30" transform="translate(63.623047 0)"/>
       <use xlink:href="#DejaVuSans-32" transform="translate(127.246094 0)"/>
       <use xlink:href="#DejaVuSans-32" transform="translate(190.869141 0)"/>
      </g>
     </g>
    </g>
    <g id="xtick_4">
     <g id="line2d_4">
      <g>
       <use xlink:href="#md70ffc8592" x="401.947949" y="224.28" style="stroke: #000000; stroke-width: 0.8"/>
      </g>
     </g>
     <g id="text_4">
      <!-- 2023 -->
      <g transform="translate(389.222949 238.878438) scale(0.1 -0.1)">
       <defs>
        <path id="DejaVuSans-33" d="M 2597 2516 
Q 3050 2419 3304 2112 
Q 3559 1806 3559 1356 
Q 3559 666 3084 287 
Q 2609 -91 1734 -91 
Q 1441 -91 1130 -33 
Q 819 25 488 141 
L 488 750 
Q 750 597 1062 519 
Q 1375 441 1716 441 
Q 2309 441 2620 675 
Q 2931 909 2931 1356 
Q 2931 1769 2642 2001 
Q 2353 2234 1838 2234 
L 1294 2234 
L 1294 2753 
L 1863 2753 
Q 2328 2753 2575 2939 
Q 2822 3125 2822 3475 
Q 2822 3834 2567 4026 
Q 2313 4219 1838 4219 
Q 1578 4219 1281 4162 
Q 984 4106 628 3988 
L 628 4550 
Q 988 4650 1302 4700 
Q 1616 4750 1894 4750 
Q 2613 4750 3031 4423 
Q 3450 4097 3450 3541 
Q 3450 3153 3228 2886 
Q 3006 2619 2597 2516 
z
" transform="scale(0.015625)"/>
       </defs>
       <use xlink:href="#DejaVuSans-32"/>
       <use xlink:href="#DejaVuSans-30" transform="translate(63.623047 0)"/>
       <use xlink:href="#DejaVuSans-32" transform="translate(127.246094 0)"/>
       <use xlink:href="#DejaVuSans-33" transform="translate(190.869141 0)"/>
      </g>
     </g>
    </g>
    <g id="xtick_5">
     <g id="line2d_5">
      <g>
       <use xlink:href="#md70ffc8592" x="497.294821" y="224.28" style="stroke: #000000; stroke-width: 0.8"/>
      </g>
     </g>
     <g id="text_5">
      <!-- 2024 -->
      <g transform="translate(484.569821 238.878438) scale(0.1 -0.1)">
       <defs>
        <path id="DejaVuSans-34" d="M 2419 4116 
L 825 1625 
L 2419 1625 
L 2419 4116 
z
M 2253 4666 
L 3047 4666 
L 3047 1625 
L 3713 1625 
L 3713 1100 
L 3047 1100 
L 3047 0 
L 2419 0 
L 2419 1100 
L 313 1100 
L 313 1709 
L 2253 4666 
z
" transform="scale(0.015625)"/>
       </defs>
       <use xlink:href="#DejaVuSans-32"/>
       <use xlink:href="#DejaVuSans-30" transform="translate(63.623047 0)"/>
       <use xlink:href="#DejaVuSans-32" transform="translate(127.246094 0)"/>
       <use xlink:href="#DejaVuSans-34" transform="translate(190.869141 0)"/>
      </g>
     </g>
    </g>
    <g id="xtick_6">
     <g id="line2d_6">
      <g>
       <use xlink:href="#md70ffc8592" x="592.902918" y="224.28" style="stroke: #000000; stroke-width: 0.8"/>
      </g>
     </g>
     <g id="text_6">
      <!-- 2025 -->
      <g transform="translate(580.177918 238.878438) scale(0.1 -0.1)">
       <defs>
        <path id="DejaVuSans-35" d="M 691 4666 
L 3169 4666 
L 3169 4134 
L 1269 4134 
L 1269 2991 
Q 1406 3038 1543 3061 
Q 1681 3084 1819 3084 
Q 2600 3084 3056 2656 
Q 3513 2228 3513 1497 
Q 3513 744 3044 326 
Q 2575 -91 1722 -91 
Q 1428 -91 1123 -41 
Q 819 9 494 109 
L 494 744 
Q 775 591 1075 516 
Q 1375 441 1709 441 
Q 2250 441 2565 725 
Q 2881 1009 2881 1497 
Q 2881 1984 2565 2268 
Q 2250 2553 1709 2553 
Q 1456 2553 1204 2497 
Q 953 2441 691 2322 
L 691 4666 
z
" transform="scale(0.015625)"/>
       </defs>
       <use xlink:href="#DejaVuSans-32"/>
       <use xlink:href="#DejaVuSans-30" transform="translate(63.623047 0)"/>
       <use xlink:href="#DejaVuSans-32" transform="translate(127.246094 0)"/>
       <use xlink:href="#DejaVuSans-35" transform="translate(190.869141 0)"/>
      </g>
     </g>
    </g>
   </g>
   <g id="matplotlib.axis_2">
    <g id="ytick_1">
     <g id="line2d_7">
      <defs>
       <path id="md5d131e5e6" d="M 0 0 
L -3.5 0 
" style="stroke: #000000; stroke-width: 0.8"/>
      </defs>
      <g>
       <use xlink:href="#md5d131e5e6" x="94.5" y="206.401118" style="stroke: #000000; stroke-width: 0.8"/>
      </g>
     </g>
     <g id="text_7">
      <!-- 150 -->
      <g transform="translate(68.4125 210.200337) scale(0.1 -0.1)">
       <use xlink:href="#DejaVuSans-31"/>
       <use xlink:href="#DejaVuSans-35" transform="translate(63.623047 0)"/>
       <use xlink:href="#DejaVuSans-30" transform="translate(127.246094 0)"/>
      </g>
     </g>
    </g>
    <g id="ytick_2">
     <g id="line2d_8">
      <g>
       <use xlink:href="#md5d131e5e6" x="94.5" y="184.655001" style="stroke: #000000; stroke-width: 0.8"/>
      </g>
     </g>
     <g id="text_8">
      <!-- 200 -->
      <g transform="translate(68.4125 188.45422) scale(0.1 -0.1)">
       <use xlink:href="#DejaVuSans-32"/>
       <use xlink:href="#DejaVuSans-30" transform="translate(63.623047 0)"/>
       <use xlink:href="#DejaVuSans-30" transform="translate(127.246094 0)"/>
      </g>
     </g>
    </g>
    <g id="ytick_3">
     <g id="line2d_9">
      <g>
       <use xlink:href="#md5d131e5e6" x="94.5" y="162.908885" style="stroke: #000000; stroke-width: 0.8"/>
      </g>
     </g>
     <g id="text_9">
      <!-- 250 -->
      <g transform="translate(68.4125 166.708104) scale(0.1 -0.1)">
       <use xlink:href="#DejaVuSans-32"/>
       <use xlink:href="#DejaVuSans-35" transform="translate(63.623047 0)"/>
       <use xlink:href="#DejaVuSans-30" transform="translate(127.246094 0)"/>
      </g>
     </g>
    </g>
    <g id="ytick_4">
     <g id="line2d_10">
      <g>
       <use xlink:href="#md5d131e5e6" x="94.5" y="141.162768" style="stroke: #000000; stroke-width: 0.8"/>
      </g>
     </g>
     <g id="text_10">
      <!-- 300 -->
      <g transform="translate(68.4125 144.961987) scale(0.1 -0.1)">
       <use xlink:href="#DejaVuSans-33"/>
       <use xlink:href="#DejaVuSans-30" transform="translate(63.623047 0)"/>
       <use xlink:href="#DejaVuSans-30" transform="translate(127.246094 0)"/>
      </g>
     </g>
    </g>
    <g id="ytick_5">
     <g id="line2d_11">
      <g>
       <use xlink:href="#md5d131e5e6" x="94.5" y="119.416652" style="stroke: #000000; stroke-width: 0.8"/>
      </g>
     </g>
     <g id="text_11">
      <!-- 350 -->
      <g transform="translate(68.4125 123.215871) scale(0.1 -0.1)">
       <use xlink:href="#DejaVuSans-33"/>
       <use xlink:href="#DejaVuSans-35" transform="translate(63.623047 0)"/>
       <use xlink:href="#DejaVuSans-30" transform="translate(127.246094 0)"/>
      </g>
     </g>
    </g>
    <g id="ytick_6">
     <g id="line2d_12">
      <g>
       <use xlink:href="#md5d131e5e6" x="94.5" y="97.670536" style="stroke: #000000; stroke-width: 0.8"/>
      </g>
     </g>
     <g id="text_12">
      <!-- 400 -->
      <g transform="translate(68.4125 101.469754) scale(0.1 -0.1)">
       <use xlink:href="#DejaVuSans-34"/>
       <use xlink:href="#DejaVuSans-30" transform="translate(63.623047 0)"/>
       <use xlink:href="#DejaVuSans-30" transform="translate(127.246094 0)"/>
      </g>
     </g>
    </g>
    <g id="ytick_7">
     <g id="line2d_13">
      <g>
       <use xlink:href="#md5d131e5e6" x="94.5" y="75.924419" style="stroke: #000000; stroke-width: 0.8"/>
      </g>
     </g>
     <g id="text_13">
      <!-- 450 -->
      <g transform="translate(68.4125 79.723638) scale(0.1 -0.1)">
       <use xlink:href="#DejaVuSans-34"/>
       <use xlink:href="#DejaVuSans-35" transform="translate(63.623047 0)"/>
       <use xlink:href="#DejaVuSans-30" transform="translate(127.246094 0)"/>
      </g>
     </g>
    </g>
    <g id="ytick_8">
     <g id="line2d_14">
      <g>
       <use xlink:href="#md5d131e5e6" x="94.5" y="54.178303" style="stroke: #000000; stroke-width: 0.8"/>
      </g>
     </g>
     <g id="text_14">
      <!-- 500 -->
      <g transform="translate(68.4125 57.977521) scale(0.1 -0.1)">
       <use xlink:href="#DejaVuSans-35"/>
       <use xlink:href="#DejaVuSans-30" transform="translate(63.623047 0)"/>
       <use xlink:href="#DejaVuSans-30" transform="translate(127.246094 0)"/>
      </g>
     </g>
    </g>
    <g id="ytick_9">
     <g id="line2d_15">
      <g>
       <use xlink:href="#md5d131e5e6" x="94.5" y="32.432186" style="stroke: #000000; stroke-width: 0.8"/>
      </g>
     </g>
     <g id="text_15">
      <!-- 550 -->
      <g transform="translate(68.4125 36.231405) scale(0.1 -0.1)">
       <use xlink:href="#DejaVuSans-35"/>
       <use xlink:href="#DejaVuSans-35" transform="translate(63.623047 0)"/>
       <use xlink:href="#DejaVuSans-30" transform="translate(127.246094 0)"/>
      </g>
     </g>
    </g>
   </g>
   <g id="line2d_16">
    <path d="M 121.131818 203.085466 
L 121.393042 202.663484 
L 121.654267 203.35854 
L 122.43794 204.50043 
L 123.221613 200.156317 
L 123.482837 201.211323 
L 124.26651 199.49437 
L 124.527734 197.119578 
L 124.788958 197.210603 
L 125.050183 195.667417 
L 125.311407 195.559855 
L 126.09508 193.569841 
L 126.356304 195.332313 
L 126.617529 195.220596 
L 126.878753 195.634315 
L 127.139977 194.955824 
L 128.446099 193.945686 
L 128.707323 195.132179 
L 128.968547 197.550771 
L 130.013445 201.915026 
L 130.274669 201.043814 
L 130.535893 206.017926 
L 131.58079 199.956913 
L 131.842015 203.391914 
L 132.103239 200.88618 
L 133.409361 209.15423 
L 133.670585 204.881232 
L 133.931809 207.905521 
L 134.193034 213.94991 
L 134.454258 205.748296 
L 135.237931 215.46 
L 135.499155 210.834365 
L 135.760379 213.394039 
L 136.021604 212.435705 
L 136.282828 214.659333 
L 137.066501 215.227687 
L 137.327725 210.100081 
L 137.58895 210.68918 
L 137.850174 206.876675 
L 138.111398 209.535882 
L 138.895071 205.167473 
L 139.156295 206.21291 
L 139.41752 208.536084 
L 139.678744 207.229313 
L 139.939968 207.822546 
L 140.723641 203.076619 
L 140.984866 203.815063 
L 141.24609 203.134708 
L 141.507314 203.13054 
L 142.552211 202.977047 
L 142.813436 199.579389 
L 143.07466 200.334431 
L 143.335884 198.193791 
L 143.597109 197.546617 
L 144.380782 199.015203 
L 144.642006 202.018733 
L 144.90323 199.654081 
L 145.164455 200.525273 
L 145.425679 199.226784 
L 146.209352 199.434224 
L 146.470576 201.193192 
L 146.7318 198.031982 
L 146.993025 197.293571 
L 147.254249 199.218482 
L 148.299146 196.650545 
L 148.821595 195.472367 
L 149.082819 195.024305 
L 149.866492 194.169697 
L 150.388941 197.06954 
L 150.650165 196.745956 
L 150.911389 195.654894 
L 151.695062 194.928893 
L 151.956287 195.459904 
L 152.217511 194.403238 
L 152.478735 195.330946 
L 152.739959 195.297664 
L 153.784857 196.104722 
L 154.046081 196.004897 
L 154.307305 196.175439 
L 154.56853 195.405824 
L 155.352203 195.58056 
L 155.613427 194.715248 
L 155.874651 194.528049 
L 156.135875 195.543111 
L 156.3971 193.762581 
L 157.180773 193.28001 
L 157.441997 192.68097 
L 157.703221 189.752258 
L 157.964446 194.149483 
L 158.22567 193.537953 
L 159.009343 193.038731 
L 159.270567 191.112605 
L 159.531791 190.833884 
L 159.793016 189.968591 
L 160.05424 190.455331 
L 161.099137 187.643075 
L 161.360362 189.33625 
L 161.621586 188.296222 
L 161.88281 189.96443 
L 162.666483 189.086662 
L 162.927707 186.977478 
L 164.495053 183.986379 
L 164.756278 185.005602 
L 165.017502 183.100295 
L 165.278726 182.480436 
L 165.539951 182.750843 
L 166.323623 185.496482 
L 166.584848 184.964018 
L 166.846072 185.092963 
L 167.107296 186.806923 
L 167.368521 187.239576 
L 168.152194 183.611967 
L 168.413418 184.797604 
L 168.674642 183.549572 
L 168.935867 187.381017 
L 169.197091 187.896864 
L 169.980764 186.836037 
L 170.241988 187.597317 
L 170.503212 186.748676 
L 170.764437 186.815245 
L 171.025661 186.353479 
L 171.809334 181.55689 
L 172.070558 182.908935 
L 172.331783 183.054524 
L 172.593007 181.635923 
L 172.854231 183.245897 
L 173.637904 185.005602 
L 173.899128 187.031552 
L 174.160353 184.614559 
L 174.421577 184.818403 
L 174.682801 184.735196 
L 175.466474 184.161115 
L 175.727699 183.657745 
L 175.988923 184.191503 
L 176.250147 182.156481 
L 176.511371 182.807013 
L 177.295044 182.527608 
L 177.556269 181.368324 
L 178.339942 176.180659 
L 179.123615 177.590175 
L 179.384839 176.864552 
L 179.646063 175.038052 
L 179.907287 181.022176 
L 181.213409 187.127295 
L 181.474633 183.528461 
L 181.735858 185.997178 
L 181.997082 186.555975 
L 182.780755 185.9805 
L 183.041979 184.575166 
L 183.564428 187.023031 
L 183.825652 188.073909 
L 184.609325 187.177333 
L 184.870549 185.142311 
L 185.131774 187.99051 
L 185.392998 186.906277 
L 185.654222 184.975506 
L 186.437895 184.299948 
L 186.699119 185.20904 
L 187.221568 183.040554 
L 187.482792 185.655238 
L 188.266465 183.907943 
L 188.52769 185.771985 
L 188.788914 184.137303 
L 189.050138 183.824537 
L 189.311363 181.643548 
L 190.35626 178.703595 
L 190.878708 180.038046 
L 191.139933 180.038046 
L 191.923606 182.306603 
L 192.446054 182.064746 
L 192.707279 182.027197 
L 192.968503 181.468407 
L 193.752176 184.033039 
L 194.0134 182.711097 
L 194.274624 187.118946 
L 194.535849 186.268228 
L 194.797073 187.20654 
L 195.580746 187.2649 
L 195.84197 185.555148 
L 196.364419 178.524286 
L 196.625643 178.344964 
L 197.409316 180.56765 
L 197.67054 183.645229 
L 197.931765 181.334969 
L 198.192989 181.797851 
L 198.454213 181.35164 
L 199.237886 181.05139 
L 199.760335 183.385593 
L 200.021559 182.825323 
L 200.282783 183.674064 
L 201.066456 183.791143 
L 201.327681 182.22325 
L 201.588905 182.219082 
L 202.111354 181.65045 
L 202.895027 182.135444 
L 203.156251 181.240686 
L 203.678699 182.064361 
L 203.939924 182.01419 
L 204.723597 182.043477 
L 204.984821 181.324324 
L 205.246045 183.08454 
L 205.50727 183.619718 
L 205.768494 182.474112 
L 206.552167 182.081098 
L 206.813391 182.110365 
L 207.074615 179.957102 
L 207.33584 179.898576 
L 207.597064 180.245599 
L 208.641961 178.008718 
L 208.903186 179.229602 
L 209.16441 178.506288 
L 210.209307 177.582258 
L 210.470531 177.920926 
L 210.731756 178.953661 
L 210.99298 178.644252 
L 212.037877 180.621909 
L 212.299102 180.534103 
L 212.560326 182.896392 
L 212.82155 180.37104 
L 213.082775 179.814958 
L 213.866447 180.705501 
L 214.127672 181.775884 
L 214.388896 181.186347 
L 214.65012 182.574454 
L 214.911345 182.729161 
L 215.956242 181.144538 
L 216.217466 177.841495 
L 216.739915 177.168333 
L 217.523588 175.671529 
L 217.784812 174.50081 
L 218.046036 174.262511 
L 218.307261 171.741327 
L 218.568485 174.655518 
L 219.352158 171.440274 
L 219.613382 171.498813 
L 219.874607 170.039624 
L 220.135831 170.453536 
L 220.397055 170.374105 
L 221.180728 170.261213 
L 221.441952 169.717686 
L 221.703177 170.114881 
L 221.964401 169.416653 
L 222.225625 169.20758 
L 223.270523 169.746946 
L 223.531747 169.302753 
L 223.792971 169.474556 
L 224.054195 170.656324 
L 225.099093 173.883155 
L 225.360317 173.346762 
L 225.621541 175.676771 
L 225.882766 174.25614 
L 226.666439 172.345192 
L 226.927663 173.631715 
L 227.188887 176.276044 
L 227.450111 176.623883 
L 227.711336 174.583022 
L 228.495009 176.347292 
L 228.756233 173.669443 
L 229.017457 174.23937 
L 229.278682 172.265548 
L 229.539906 172.84387 
L 230.323579 173.237799 
L 230.584803 172.022497 
L 230.846027 172.30327 
L 231.107252 174.951799 
L 231.368476 175.106845 
L 232.413373 172.076989 
L 232.674598 172.965409 
L 232.935822 174.272897 
L 233.197046 172.537946 
L 233.980719 173.057581 
L 234.241943 174.478233 
L 234.503168 172.835488 
L 234.764392 170.078022 
L 235.809289 167.261871 
L 236.070514 167.768951 
L 236.331738 166.914045 
L 236.854187 164.420575 
L 237.637859 164.395436 
L 237.899084 163.314236 
L 238.160308 164.529537 
L 238.421532 162.891 
L 238.682757 162.371338 
L 239.727654 163.410616 
L 239.988878 162.438378 
L 240.250103 163.867405 
L 240.511327 162.199508 
L 241.295 162.031906 
L 241.556224 161.855883 
L 241.817448 164.961195 
L 242.078673 165.820288 
L 242.339897 165.958564 
L 243.12357 166.092672 
L 243.384794 167.798277 
L 243.646019 168.351447 
L 244.168467 165.841226 
L 244.95214 168.053911 
L 245.213364 168.452034 
L 245.474589 171.48191 
L 245.997037 167.647432 
L 246.78071 168.892047 
L 247.041935 169.772092 
L 247.303159 169.520075 
L 247.564383 168.10876 
L 247.825607 168.658997 
L 248.60928 166.302588 
L 248.870505 165.907763 
L 249.131729 166.004368 
L 249.392953 166.920031 
L 249.654178 166.764626 
L 250.699075 167.722317 
L 250.960299 167.764319 
L 251.221523 168.432178 
L 251.482748 166.298387 
L 252.266421 165.029875 
L 252.527645 165.550732 
L 252.788869 165.1223 
L 253.050094 163.589168 
L 254.094991 162.476053 
L 254.617439 163.530356 
L 254.878664 162.051822 
L 255.139888 162.669272 
L 255.923561 161.325171 
L 256.184785 160.11547 
L 256.44601 160.216277 
L 256.707234 159.619785 
L 256.968458 160.321271 
L 257.752131 158.767155 
L 258.013355 157.641424 
L 258.27458 157.851493 
L 258.535804 157.557434 
L 258.797028 155.016189 
L 259.841926 155.011995 
L 260.10315 154.058518 
L 260.364374 155.112775 
L 260.625599 154.894371 
L 261.409271 155.15481 
L 261.670496 153.617464 
L 261.93172 152.974796 
L 262.192944 153.59648 
L 262.454169 153.714076 
L 263.237842 155.285029 
L 263.76029 153.441055 
L 264.282739 149.967344 
L 265.066412 150.227756 
L 265.327636 151.282066 
L 265.58886 151.416479 
L 265.850085 151.298882 
L 266.111309 151.966702 
L 266.894982 152.004543 
L 267.156206 151.038444 
L 267.417431 151.294662 
L 267.678655 150.030363 
L 267.939879 150.055568 
L 268.723552 150.530216 
L 268.984776 151.324074 
L 269.246001 151.109851 
L 269.768449 148.631638 
L 270.552122 147.896565 
L 271.074571 149.288336 
L 271.597019 143.552253 
L 272.380692 143.430197 
L 272.641917 144.284512 
L 272.903141 144.541261 
L 273.164365 145.770107 
L 273.42559 145.504984 
L 274.209263 143.876321 
L 274.470487 144.595984 
L 274.731711 144.616995 
L 274.992935 144.90317 
L 275.25416 144.90739 
L 276.560281 145.298738 
L 276.821506 146.544428 
L 277.08273 147.192551 
L 277.866403 146.653875 
L 278.127627 145.475505 
L 278.388851 143.35867 
L 278.650076 143.190344 
L 278.9113 145.441845 
L 279.694973 147.785924 
L 279.956197 147.57551 
L 280.217422 145.984755 
L 280.478646 145.572303 
L 280.73987 145.660687 
L 281.523543 147.840621 
L 281.784767 152.322612 
L 282.045992 152.120573 
L 282.307216 152.995926 
L 282.56844 149.974326 
L 283.352113 152.495144 
L 283.874562 148.286732 
L 284.135786 147.554446 
L 284.397011 147.554446 
L 285.180683 147.815336 
L 285.441908 148.383544 
L 285.703132 146.940023 
L 285.964356 144.229828 
L 286.225581 143.615378 
L 287.270478 141.923604 
L 287.531702 142.268696 
L 287.792927 140.858875 
L 288.054151 141.532216 
L 288.837824 141.965692 
L 289.099048 141.13244 
L 289.360272 135.63625 
L 289.621497 135.139636 
L 289.882721 132.080168 
L 290.666394 133.027035 
L 290.927618 131.444654 
L 291.188843 131.078525 
L 291.450067 130.05169 
L 291.711291 130.211613 
L 292.494964 129.820252 
L 292.756188 130.257882 
L 293.017413 132.42522 
L 293.278637 131.73927 
L 293.539861 129.933827 
L 294.323534 130.207392 
L 294.584759 128.759704 
L 294.845983 128.662747 
L 295.368431 126.980502 
L 296.152104 128.363406 
L 296.413329 129.269857 
L 296.674553 129.172886 
L 297.197002 132.642761 
L 297.980675 129.712544 
L 298.241899 132.259072 
L 298.764347 132.722862 
L 299.025572 135.454891 
L 299.809245 134.114141 
L 300.070469 130.433521 
L 300.331693 130.412391 
L 300.592918 131.200833 
L 300.854142 127.220805 
L 301.637815 128.544699 
L 301.899039 133.20773 
L 302.160263 130.547308 
L 302.421488 134.658033 
L 302.682712 135.121837 
L 303.466385 136.761874 
L 303.988834 131.158666 
L 304.250058 130.530465 
L 305.294955 127.258766 
L 305.556179 127.764697 
L 305.817404 127.469577 
L 306.339852 129.843241 
L 307.123525 130.50518 
L 307.38475 132.925206 
L 307.645974 138.250151 
L 307.907198 139.304195 
L 308.952096 139.139772 
L 309.21332 138.840431 
L 309.474544 137.453333 
L 309.735768 143.132422 
L 309.996993 140.855703 
L 311.04189 144.038873 
L 311.303114 143.752207 
L 311.564339 144.481573 
L 311.825563 146.829965 
L 312.609236 146.686619 
L 312.87046 150.008915 
L 313.131684 146.543247 
L 313.392909 145.223641 
L 313.654133 141.673651 
L 314.437806 140.52687 
L 314.69903 141.462853 
L 314.960255 139.48128 
L 315.221479 144.62914 
L 315.482703 142.651775 
L 316.266376 144.755616 
L 316.5276 143.233587 
L 316.788825 140.429925 
L 317.311273 147.247354 
L 318.094946 147.264197 
L 318.356171 144.957999 
L 318.617395 145.105858 
L 318.878619 148.81102 
L 319.139844 149.993996 
L 320.184741 150.082698 
L 320.445965 153.230217 
L 320.707189 147.18026 
L 320.968414 146.03109 
L 321.752087 145.40581 
L 322.013311 147.028128 
L 322.274535 144.814348 
L 323.841881 155.097591 
L 324.103105 149.753175 
L 324.36433 150.982619 
L 324.625554 153.314712 
L 325.409227 154.848315 
L 325.931676 147.264742 
L 326.1929 146.914088 
L 326.454124 144.712944 
L 327.237797 145.249509 
L 327.499021 143.179328 
L 327.760246 145.110092 
L 328.02147 143.162445 
L 328.282694 143.339902 
L 329.066367 140.374087 
L 329.327592 138.384179 
L 329.588816 139.039018 
L 329.85004 141.3838 
L 330.111264 140.914833 
L 330.894937 138.570064 
L 331.156162 140.298021 
L 331.417386 145.105858 
L 331.67861 144.315849 
L 332.723508 151.121996 
L 332.984732 152.473961 
L 333.245956 150.124932 
L 333.50718 153.416103 
L 334.552078 153.124579 
L 334.813302 151.105113 
L 335.074526 150.65729 
L 335.596975 155.866509 
L 336.380648 153.040072 
L 336.641872 157.476165 
L 336.903096 151.983877 
L 337.164321 149.275779 
L 337.425545 154.392036 
L 338.209218 151.455793 
L 338.470442 152.592288 
L 338.731667 149.127907 
L 338.992891 154.463869 
L 339.254115 155.570765 
L 340.037788 159.859 
L 340.299012 157.780364 
L 340.821461 163.758482 
L 341.082685 161.320764 
L 341.866358 161.160197 
L 342.127583 158.912598 
L 342.388807 164.045015 
L 342.911256 164.688671 
L 343.694928 161.262835 
L 343.956153 161.699018 
L 344.478601 159.039645 
L 344.739826 155.931413 
L 345.784723 156.511566 
L 346.045947 156.278642 
L 346.307172 155.363949 
L 346.568396 157.294978 
L 347.352069 157.832752 
L 347.613293 156.244744 
L 347.874517 157.129785 
L 348.135742 159.509687 
L 348.396966 164.506595 
L 349.180639 169.050404 
L 349.441863 168.106066 
L 349.703088 165.027466 
L 349.964312 167.9028 
L 350.225536 166.767911 
L 351.270433 164.188984 
L 351.531658 164.447306 
L 351.792882 162.020863 
L 352.054106 158.27739 
L 352.837779 159.467334 
L 353.099004 163.028678 
L 353.360228 161.427982 
L 353.621452 162.880481 
L 353.882676 161.715954 
L 354.927574 160.331199 
L 355.450022 157.980995 
L 355.711247 158.294339 
L 356.49492 159.62824 
L 356.756144 164.218643 
L 357.017368 164.620927 
L 357.278592 164.045015 
L 357.539817 162.927062 
L 358.32349 163.97305 
L 358.584714 161.737131 
L 359.107163 159.488517 
L 359.368387 161.385635 
L 360.15206 162.033565 
L 360.413284 164.968183 
L 360.674508 157.836986 
L 360.935733 154.589004 
L 361.196957 152.75541 
L 361.98063 153.911456 
L 362.241854 155.262319 
L 362.503079 152.022806 
L 362.764303 151.523099 
L 363.8092 152.933252 
L 364.070424 152.094798 
L 364.331649 149.189798 
L 364.592873 150.096037 
L 364.854097 148.025258 
L 365.63777 147.364672 
L 366.421443 148.5013 
L 366.682668 150.207223 
L 367.46634 153.771879 
L 367.727565 154.327823 
L 367.988789 154.603658 
L 368.250013 153.305089 
L 368.511238 157.871296 
L 369.294911 159.084945 
L 369.817359 160.680572 
L 370.078584 161.13464 
L 370.339808 162.976397 
L 371.384705 164.168856 
L 371.645929 162.114934 
L 371.907154 161.932453 
L 372.168378 159.411708 
L 372.952051 158.482348 
L 373.213275 164.70355 
L 373.4745 164.605949 
L 373.735724 167.508619 
L 373.996948 167.7802 
L 374.780621 167.873567 
L 375.041845 168.752026 
L 375.30307 170.237276 
L 375.564294 169.375833 
L 375.825518 170.674395 
L 376.609191 170.873845 
L 376.870416 171.315184 
L 377.13164 169.337627 
L 377.654088 172.804695 
L 378.437761 169.477675 
L 378.698986 166.023342 
L 378.96021 165.887548 
L 379.221434 166.910275 
L 379.482659 172.23605 
L 380.266332 174.353635 
L 380.527556 175.983207 
L 380.78878 175.838912 
L 381.050004 172.23605 
L 381.311229 174.646452 
L 382.094902 170.839886 
L 382.356126 170.428264 
L 382.61735 171.285487 
L 382.878575 171.425514 
L 383.139799 168.892047 
L 383.923472 166.715059 
L 384.184696 165.267962 
L 384.44592 173.475189 
L 384.707145 175.414554 
L 384.968369 171.544339 
L 385.752042 173.131458 
L 386.013266 174.811957 
L 386.535715 180.719126 
L 386.796939 177.689143 
L 387.580612 174.939256 
L 387.841836 174.514906 
L 388.103061 176.365124 
L 388.364285 168.527105 
L 388.625509 166.774468 
L 389.409182 169.133923 
L 389.931631 168.768464 
L 390.192855 168.789734 
L 390.45408 168.985494 
L 391.237752 168.632279 
L 391.760201 166.278929 
L 392.28265 166.317214 
L 393.327547 169.364246 
L 393.588771 163.061675 
L 393.849996 163.253181 
L 394.11122 163.112748 
L 394.894893 165.163943 
L 395.156117 167.325819 
L 395.417341 167.64497 
L 395.678566 166.355533 
L 395.93979 167.198135 
L 396.723463 164.180908 
L 396.984687 162.304177 
L 397.245912 162.176513 
L 397.507136 165.670372 
L 397.76836 167.508791 
L 398.552033 169.313179 
L 398.813257 168.738673 
L 399.074482 167.61944 
L 399.335706 170.274951 
L 399.59693 170.045159 
L 400.641828 170.798389 
L 400.903052 171.832504 
L 401.164276 169.074873 
L 401.4255 169.581275 
L 402.470398 169.683416 
L 402.992846 177.032871 
L 403.254071 175.917891 
L 404.037744 174.985923 
L 404.298968 174.249689 
L 404.560192 171.304812 
L 404.821416 170.138772 
L 405.082641 169.832363 
L 406.127538 169.355738 
L 406.649987 172.938976 
L 406.911211 169.411072 
L 407.694884 168.406734 
L 407.956108 168.636526 
L 408.217332 169.245096 
L 408.478557 166.100191 
L 408.739781 166.032095 
L 409.523454 168.351413 
L 410.045903 164.078774 
L 410.307127 159.035849 
L 410.568351 161.69562 
L 411.352024 162.368019 
L 411.613248 157.776183 
L 411.874473 158.129438 
L 412.135697 159.45292 
L 412.396921 159.67419 
L 413.180594 156.17607 
L 413.441819 155.81436 
L 413.703043 156.74015 
L 413.964267 159.799074 
L 414.225492 161.543966 
L 415.531613 164.338376 
L 415.792837 162.947575 
L 416.054062 165.315365 
L 416.837735 164.914328 
L 417.098959 165.230028 
L 417.360183 166.57391 
L 417.882632 162.725727 
L 418.666305 162.051649 
L 418.927529 163.212095 
L 419.188753 163.404072 
L 419.449978 163.992806 
L 419.711202 165.584139 
L 420.494875 163.310207 
L 421.539772 152.426949 
L 422.323445 155.498654 
L 422.584669 154.837404 
L 422.845894 155.473064 
L 423.107118 153.182064 
L 423.368342 151.940581 
L 424.41324 154.21876 
L 424.935688 150.455942 
L 425.196912 148.642761 
L 425.980585 149.099238 
L 426.24181 149.120594 
L 426.503034 150.332213 
L 426.764258 147.234878 
L 427.809156 148.177723 
L 428.07038 150.976407 
L 428.331604 150.694838 
L 428.592828 147.985745 
L 428.854053 149.56425 
L 429.637726 148.429454 
L 429.89895 148.612871 
L 430.160174 148.578746 
L 430.421399 149.577085 
L 430.682623 149.72639 
L 431.466296 151.42865 
L 431.72752 154.137717 
L 431.988744 145.626509 
L 432.249969 141.590616 
L 432.511193 140.553893 
L 433.294866 141.279171 
L 433.55609 141.343159 
L 433.817315 141.774059 
L 434.078539 141.343159 
L 434.339763 139.107652 
L 435.123436 139.960905 
L 435.38466 140.664814 
L 435.645885 138.399443 
L 435.907109 139.338014 
L 436.168333 139.824355 
L 436.952006 139.615322 
L 437.474455 137.385602 
L 437.735679 135.453019 
L 437.996904 135.529962 
L 438.780576 134.315702 
L 439.041801 136.846847 
L 439.303025 137.449723 
L 439.825474 129.308945 
L 440.870371 130.027268 
L 441.131595 131.23298 
L 441.654044 128.235828 
L 442.437717 128.004908 
L 442.698941 128.971206 
L 442.960165 133.37506 
L 443.482614 131.917112 
L 444.527511 128.710383 
L 444.788736 127.406346 
L 445.04996 122.805776 
L 445.311184 125.272813 
L 446.356081 127.102757 
L 446.617306 129.022518 
L 446.87853 126.393009 
L 447.139754 128.398273 
L 447.923427 131.143216 
L 448.184652 128.590675 
L 448.445876 128.043386 
L 448.7071 128.385465 
L 448.968324 126.038121 
L 449.751997 127.128414 
L 450.274446 127.060006 
L 450.53567 125.726039 
L 450.796895 127.457645 
L 451.580568 129.762197 
L 451.841792 129.488552 
L 452.625465 124.02861 
L 453.409138 123.819099 
L 453.670362 117.935901 
L 453.931586 119.821419 
L 454.192811 123.331683 
L 454.454035 124.657129 
L 455.237708 124.084196 
L 455.498932 121.574381 
L 455.760156 127.222478 
L 456.021381 130.236778 
L 456.282605 126.965928 
L 457.066278 128.013469 
L 457.327502 127.833888 
L 457.588727 131.61351 
L 457.849951 131.972672 
L 458.111175 131.493803 
L 458.894848 130.497602 
L 459.417297 133.866763 
L 459.678521 133.567489 
L 459.939745 134.38837 
L 460.723418 133.092881 
L 460.984643 134.024975 
L 461.245867 134.359157 
L 461.507091 135.867369 
L 461.768316 136.03872 
L 462.551988 133.725023 
L 462.813213 133.476544 
L 463.074437 131.531299 
L 463.335661 134.543396 
L 463.596886 133.253734 
L 464.380559 132.945208 
L 464.641783 130.927149 
L 464.903007 130.764318 
L 465.164232 131.205651 
L 465.425456 130.820037 
L 466.470353 128.724837 
L 466.731577 129.011914 
L 466.992802 130.284454 
L 467.254026 128.416338 
L 468.037699 126.843872 
L 468.298923 129.48753 
L 468.821372 126.518238 
L 469.082596 130.151634 
L 470.127493 130.824324 
L 470.388718 134.20064 
L 470.649942 134.731923 
L 470.911166 135.811663 
L 471.694839 135.584566 
L 471.956064 137.898263 
L 472.478512 137.255582 
L 473.523409 133.759307 
L 473.784634 137.36268 
L 474.045858 134.976142 
L 474.307082 134.804764 
L 474.568307 131.419874 
L 475.35198 130.323012 
L 475.613204 130.935723 
L 475.874428 129.209001 
L 476.135653 129.748871 
L 476.396877 131.218499 
L 477.18055 129.114724 
L 477.441774 129.36327 
L 477.702998 130.198765 
L 477.964223 129.680331 
L 478.225447 131.672667 
L 479.270344 130.0188 
L 479.531569 125.674169 
L 479.792793 131.149959 
L 480.054017 130.327285 
L 480.83769 127.1138 
L 481.098914 126.771031 
L 481.360139 123.360458 
L 481.621363 122.39639 
L 481.882587 120.476855 
L 482.66626 118.878706 
L 483.188709 116.020852 
L 483.449933 117.096305 
L 483.711157 113.248687 
L 484.49483 114.529775 
L 484.756055 112.991606 
L 485.017279 112.927207 
L 485.278503 110.136499 
L 485.539728 112.849906 
L 486.323401 109.591254 
L 486.584625 111.46744 
L 486.845849 109.41523 
L 487.368298 109.595554 
L 488.151971 109.088946 
L 488.413195 107.332931 
L 488.674419 108.985896 
L 488.935644 108.960133 
L 489.196868 110.849208 
L 489.980541 113.154729 
L 490.241765 111.70359 
L 490.502989 113.300729 
L 490.764214 112.377608 
L 491.025438 110.969433 
L 491.809111 112.227373 
L 492.070335 110.90502 
L 492.33156 110.90932 
L 492.592784 114.532921 
L 492.854008 112.472097 
L 493.898905 111.385866 
L 494.16013 112.519334 
L 494.421354 111.265668 
L 494.682578 110.819171 
L 495.727476 110.784821 
L 495.9887 111.038106 
L 496.511149 110.192311 
L 497.556046 112.412011 
L 497.81727 112.527909 
L 498.078494 113.669951 
L 498.339719 113.751513 
L 499.123392 110.771947 
L 499.384616 110.299648 
L 499.64584 107.302908 
L 499.907065 106.504325 
L 500.168289 104.855687 
L 501.213186 104.082879 
L 501.47441 104.426339 
L 501.996859 100.476467 
L 502.780532 101.403849 
L 503.041756 100.377744 
L 503.564205 97.814598 
L 503.825429 98.218184 
L 504.609102 95.732325 
L 504.870326 96.217472 
L 505.131551 100.944465 
L 505.653999 95.088317 
L 506.437672 97.479726 
L 506.698897 97.548399 
L 506.960121 93.8733 
L 507.221345 93.847578 
L 507.482569 91.082646 
L 508.266242 93.353804 
L 508.527467 97.192079 
L 508.788691 95.505945 
L 509.31114 97.841555 
L 510.356037 98.387823 
L 510.617261 98.650199 
L 510.878485 94.57689 
L 511.13971 95.140359 
L 511.923383 96.344718 
L 512.184607 96.37052 
L 512.445831 96.267271 
L 512.707056 93.720916 
L 512.96828 92.920886 
L 513.751953 93.170348 
L 514.013177 98.448055 
L 514.274401 98.688903 
L 514.535626 95.656498 
L 514.79685 96.912474 
L 515.580523 97.643698 
L 515.841747 93.015507 
L 516.102972 93.092928 
L 516.364196 88.740028 
L 516.62542 92.525171 
L 517.409093 92.138058 
L 518.192766 86.954985 
L 518.45399 87.225976 
L 519.498888 90.275595 
L 519.760112 90.370217 
L 520.021336 90.67561 
L 521.066233 89.019605 
L 521.327458 90.365916 
L 521.588682 90.79176 
L 521.849906 91.897183 
L 522.111131 88.61099 
L 522.894804 89.011018 
L 523.156028 88.284081 
L 523.417252 89.583088 
L 523.678477 87.574399 
L 523.939701 90.168046 
L 524.723374 93.720916 
L 524.984598 93.3166 
L 525.245822 94.495143 
L 525.768271 99.966394 
L 526.551944 99.174952 
L 526.813168 96.33179 
L 527.074393 95.690901 
L 527.335617 100.000797 
L 527.596841 96.86947 
L 528.380514 98.62011 
L 528.641738 104.177355 
L 528.902963 101.764338 
L 529.164187 100.516962 
L 529.425411 96.723218 
L 530.209084 93.763946 
L 530.470309 95.57049 
L 530.731533 95.054325 
L 531.253981 93.247781 
L 532.037654 93.686526 
L 532.298879 92.464939 
L 532.560103 89.332272 
L 532.821327 90.23287 
L 533.082552 90.568963 
L 533.866225 88.358409 
L 534.127449 86.76407 
L 534.388673 86.126326 
L 534.649897 87.643112 
L 534.911122 86.281458 
L 535.956019 86.212506 
L 536.217243 86.708045 
L 536.478468 92.956178 
L 536.739692 92.757949 
L 537.523365 93.451717 
L 537.784589 92.352917 
L 538.045813 88.931527 
L 538.307038 88.711757 
L 538.568262 89.000453 
L 539.351935 87.268236 
L 539.613159 85.195586 
L 539.874384 81.584608 
L 540.135608 81.360523 
L 540.396832 80.933923 
L 541.180505 78.434673 
L 541.441729 79.309415 
L 541.964178 79.585197 
L 542.225402 77.827111 
L 543.009075 78.73631 
L 543.2703 77.322945 
L 543.792748 76.504227 
L 544.053973 79.046561 
L 545.09887 73.733522 
L 545.360094 73.091464 
L 545.882543 70.165627 
L 546.666216 70.734405 
L 546.92744 73.621486 
L 547.188664 70.730105 
L 547.449889 75.707051 
L 547.711113 76.202603 
L 548.494786 76.025929 
L 549.539683 83.286669 
L 550.58458 79.951472 
L 551.107029 91.348885 
L 551.368253 88.388591 
L 552.151926 87.759462 
L 552.674375 91.37044 
L 552.935599 91.904775 
L 553.196823 95.619162 
L 553.980496 101.367442 
L 554.241721 99.445597 
L 554.502945 99.95405 
L 555.025393 96.683506 
L 555.809066 96.343099 
L 556.070291 93.240574 
L 556.331515 92.012497 
L 556.592739 89.888641 
L 556.853964 90.993719 
L 557.637637 89.672772 
L 557.898861 88.261173 
L 558.160085 88.546086 
L 558.421309 92.254247 
L 558.682534 91.718956 
L 559.466207 93.143497 
L 559.727431 92.992413 
L 559.988655 94.391071 
L 560.24988 93.303221 
L 560.511104 91.567846 
L 561.556001 94.8918 
L 562.07845 95.345066 
L 562.339674 98.233009 
L 563.123347 96.49766 
L 563.645796 89.020933 
L 564.168244 85.761736 
L 564.951917 85.437987 
L 565.213141 83.793277 
L 565.474366 85.666783 
L 565.73559 82.265116 
L 565.996814 83.741487 
L 566.780487 84.501234 
L 567.041712 86.374726 
L 567.302936 85.105597 
L 567.56416 85.450954 
L 567.825385 86.871181 
L 568.609057 85.886925 
L 568.870282 90.035371 
L 569.131506 91.572173 
L 569.653955 92.034065 
L 570.437628 94.848637 
L 570.698852 92.616846 
L 570.960076 91.429729 
L 571.221301 92.129059 
L 571.482525 91.921831 
L 572.266198 90.704492 
L 572.527422 90.877184 
L 572.788646 92.008183 
L 573.049871 91.749165 
L 573.311095 91.127548 
L 574.094768 90.859902 
L 574.355992 87.09131 
L 574.617217 88.347512 
L 574.878441 88.291395 
L 575.139665 86.815064 
L 575.923338 87.488485 
L 576.184562 85.174642 
L 576.445787 84.924277 
L 576.707011 96.225701 
L 576.968235 94.490352 
L 577.751908 95.314857 
L 578.013133 94.019819 
L 578.535581 87.989227 
L 578.796805 89.236775 
L 579.580478 91.192293 
L 579.841703 89.02526 
L 580.364151 87.358956 
L 580.625376 92.491658 
L 581.409049 92.163581 
L 581.670273 91.287259 
L 582.192721 93.054383 
L 582.453946 91.267974 
L 583.237619 90.49372 
L 583.498843 86.514303 
L 583.760067 88.677035 
L 584.282516 88.473736 
L 585.066189 85.22099 
L 585.327413 85.125824 
L 585.849862 80.186161 
L 586.894759 78.715525 
L 587.155983 79.879056 
L 587.417208 77.430839 
L 587.678432 77.184284 
L 587.939656 78.174818 
L 588.723329 76.306224 
L 588.984553 75.064834 
L 589.245778 82.448373 
L 589.768226 82.790081 
L 590.551899 83.374004 
L 590.813124 81.609242 
L 591.335572 82.136941 
L 591.596797 85.415635 
L 592.380469 87.881146 
L 592.641694 89.321521 
L 593.164142 90.584559 
L 593.425367 88.521292 
L 594.20904 86.574853 
L 594.470264 88.945212 
L 594.731488 87.997947 
L 595.253937 90.424502 
L 596.03761 91.185789 
L 596.298834 91.843256 
L 596.560058 87.240974 
L 596.821283 87.989293 
L 597.082507 86.064448 
L 598.127404 86.293696 
L 598.388629 78.637627 
L 598.649853 78.41706 
L 598.911077 79.563283 
L 599.69475 83.672469 
L 599.955974 78.205093 
L 600.217199 80.311603 
L 600.478423 92.137394 
L 600.739647 92.107119 
L 601.52332 93.897855 
L 602.306993 91.778392 
L 602.568217 94.403933 
L 603.35189 93.335541 
L 603.613115 93.672935 
L 603.874339 94.711038 
L 604.135563 94.062225 
L 604.396788 94.974901 
L 605.441685 94.451502 
L 605.702909 92.23256 
L 605.964133 91.28337 
L 606.225358 94.716016 
L 607.009031 96.540677 
L 607.270255 99.184495 
L 607.531479 98.39134 
L 607.792704 101.511929 
L 608.053928 99.578909 
L 608.837601 103.262914 
L 609.098825 103.210911 
L 609.360049 97.832251 
L 610.666171 106.873241 
L 610.927395 106.747535 
L 611.18862 105.525325 
L 611.449844 107.475693 
L 611.711068 103.232572 
L 612.494741 103.171889 
L 612.755965 105.416966 
L 613.01719 103.553295 
L 613.278414 103.978038 
L 613.539638 102.062351 
L 614.323311 101.27355 
L 614.584536 100.372037 
L 614.84576 102.621454 
L 615.106984 102.357086 
L 615.368209 107.462685 
L 616.151881 108.940609 
L 616.413106 105.993416 
L 616.67433 106.015077 
L 616.935554 109.928807 
L 617.196779 115.680193 
L 617.980452 116.538344 
L 618.241676 117.968605 
L 618.5029 102.396082 
L 618.764125 106.357475 
L 619.025349 103.280248 
L 619.809022 103.557636 
L 620.070246 104.459123 
L 620.33147 110.578921 
L 620.592695 112.238894 
L 621.637592 115.992249 
L 622.160041 109.374018 
L 622.421265 103.77868 
L 622.682489 101.806638 
L 623.466162 102.105687 
L 623.727386 100.857462 
L 623.988611 100.328701 
L 624.249835 87.265648 
L 624.511059 82.983519 
L 625.294732 82.597785 
L 625.555957 83.837343 
L 625.817181 83.820009 
L 626.078405 81.730953 
L 626.339629 81.488247 
L 627.123302 76.924403 
L 627.384527 76.976406 
L 627.645751 75.329454 
L 628.1682 74.391559 
L 628.951873 72.394206 
L 629.213097 72.698139 
L 629.474321 75.129712 
L 629.735545 74.135382 
L 629.99677 76.16747 
L 631.041667 71.603945 
L 631.302891 73.049854 
L 631.82534 71.747238 
L 632.609013 71.048147 
L 633.131462 70.223164 
L 633.65391 67.396461 
L 634.437583 66.367383 
L 634.698807 67.161984 
L 634.960032 66.423832 
L 635.221256 63.710027 
L 635.48248 65.407788 
L 636.266153 63.592789 
L 636.527378 64.070423 
L 636.788602 63.115168 
L 637.31105 64.348315 
L 638.617172 57.89164 
L 638.878396 55.642436 
L 639.139621 56.298084 
L 639.923294 55.659797 
L 640.184518 57.987165 
L 640.445742 58.403996 
L 640.706966 55.038883 
L 641.751864 55.525197 
L 642.013088 56.002832 
L 642.274312 53.011121 
L 642.535537 53.892566 
L 642.796761 53.093625 
L 643.580434 53.223897 
L 643.841658 52.008111 
L 644.102882 52.094955 
L 644.364107 49.45496 
L 644.625331 50.171411 
L 645.409004 50.167071 
L 645.670228 52.246928 
L 645.931453 51.986397 
L 646.192677 49.811015 
L 646.453901 48.582182 
L 647.237574 49.107598 
L 647.498798 49.077203 
L 647.760023 48.78629 
L 648.021247 39.989227 
L 648.282471 44.066438 
L 649.066144 39.06 
L 649.327369 42.485916 
L 649.588593 43.706029 
L 649.849817 45.48628 
L 650.111042 44.965244 
L 650.894714 45.082469 
L 651.155939 41.838948 
L 651.417163 45.599178 
L 651.678387 44.774196 
L 651.939612 45.777219 
L 652.723285 47.110257 
L 652.984509 50.292989 
L 653.245733 52.051526 
L 653.506958 52.334236 
L 653.768182 51.033809 
L 653.768182 51.033809 
" clip-path="url(#p54155d53c6)" style="fill: none; stroke: #1f77b4; stroke-width: 1.5; stroke-linecap: square"/>
   </g>
   <g id="patch_3">
    <path d="M 94.5 224.28 
L 94.5 30.24 
" style="fill: none; stroke: #000000; stroke-width: 0.8; stroke-linejoin: miter; stroke-linecap: square"/>
   </g>
   <g id="patch_4">
    <path d="M 94.5 224.28 
L 680.4 224.28 
" style="fill: none; stroke: #000000; stroke-width: 0.8; stroke-linejoin: miter; stroke-linecap: square"/>
   </g>
  </g>
 </g>
 <defs>
  <clipPath id="p54155d53c6">
   <rect x="94.5" y="30.24" width="585.9" height="194.04"/>
  </clipPath>
 </defs>
</svg>
