<?xml version="1.0" encoding="utf-8" standalone="no"?>
<!DOCTYPE svg PUBLIC "-//W3C//DTD SVG 1.1//EN"
  "http://www.w3.org/Graphics/SVG/1.1/DTD/svg11.dtd">
<svg xmlns:xlink="http://www.w3.org/1999/xlink" width="756pt" height="252pt" viewBox="0 0 756 252" xmlns="http://www.w3.org/2000/svg" version="1.1">
 <metadata>
  <rdf:RDF xmlns:dc="http://purl.org/dc/elements/1.1/" xmlns:cc="http://creativecommons.org/ns#" xmlns:rdf="http://www.w3.org/1999/02/22-rdf-syntax-ns#">
   <cc:Work>
    <dc:type rdf:resource="http://purl.org/dc/dcmitype/StillImage"/>
    <dc:date>2025-08-27T15:29:17.677598</dc:date>
    <dc:format>image/svg+xml</dc:format>
    <dc:creator>
     <cc:Agent>
      <dc:title>Matplotlib v3.10.5, https://matplotlib.org/</dc:title>
     </cc:Agent>
    </dc:creator>
   </cc:Work>
  </rdf:RDF>
 </metadata>
 <defs>
  <style type="text/css">*{stroke-linejoin: round; stroke-linecap: butt}</style>
 </defs>
 <g id="figure_1">
  <g id="patch_1">
   <path d="M 0 252 
L 756 252 
L 756 0 
L 0 0 
z
" style="fill: #ffffff"/>
  </g>
  <g id="axes_1">
   <g id="patch_2">
    <path d="M 94.5 224.28 
L 680.4 224.28 
L 680.4 30.24 
L 94.5 30.24 
z
" style="fill: #ffffff"/>
   </g>
   <g id="matplotlib.axis_1">
    <g id="xtick_1">
     <g id="line2d_1">
      <defs>
       <path id="mc9dbbf09cf" d="M 0 0 
L 0 3.5 
" style="stroke: #000000; stroke-width: 0.8"/>
      </defs>
      <g>
       <use xlink:href="#mc9dbbf09cf" x="115.646108" y="224.28" style="stroke: #000000; stroke-width: 0.8"/>
      </g>
     </g>
     <g id="text_1">
      <!-- 2020 -->
      <g transform="translate(102.921108 238.878438) scale(0.1 -0.1)">
       <defs>
        <path id="DejaVuSans-32" d="M 1228 531 
L 3431 531 
L 3431 0 
L 469 0 
L 469 531 
Q 828 903 1448 1529 
Q 2069 2156 2228 2338 
Q 2531 2678 2651 2914 
Q 2772 3150 2772 3378 
Q 2772 3750 2511 3984 
Q 2250 4219 1831 4219 
Q 1534 4219 1204 4116 
Q 875 4013 500 3803 
L 500 4441 
Q 881 4594 1212 4672 
Q 1544 4750 1819 4750 
Q 2544 4750 2975 4387 
Q 3406 4025 3406 3419 
Q 3406 3131 3298 2873 
Q 3191 2616 2906 2266 
Q 2828 2175 2409 1742 
Q 1991 1309 1228 531 
z
" transform="scale(0.015625)"/>
        <path id="DejaVuSans-30" d="M 2034 4250 
Q 1547 4250 1301 3770 
Q 1056 3291 1056 2328 
Q 1056 1369 1301 889 
Q 1547 409 2034 409 
Q 2525 409 2770 889 
Q 3016 1369 3016 2328 
Q 3016 3291 2770 3770 
Q 2525 4250 2034 4250 
z
M 2034 4750 
Q 2819 4750 3233 4129 
Q 3647 3509 3647 2328 
Q 3647 1150 3233 529 
Q 2819 -91 2034 -91 
Q 1250 -91 836 529 
Q 422 1150 422 2328 
Q 422 3509 836 4129 
Q 1250 4750 2034 4750 
z
" transform="scale(0.015625)"/>
       </defs>
       <use xlink:href="#DejaVuSans-32"/>
       <use xlink:href="#DejaVuSans-30" transform="translate(63.623047 0)"/>
       <use xlink:href="#DejaVuSans-32" transform="translate(127.246094 0)"/>
       <use xlink:href="#DejaVuSans-30" transform="translate(190.869141 0)"/>
      </g>
     </g>
    </g>
    <g id="xtick_2">
     <g id="line2d_2">
      <g>
       <use xlink:href="#mc9dbbf09cf" x="211.254204" y="224.28" style="stroke: #000000; stroke-width: 0.8"/>
      </g>
     </g>
     <g id="text_2">
      <!-- 2021 -->
      <g transform="translate(198.529204 238.878438) scale(0.1 -0.1)">
       <defs>
        <path id="DejaVuSans-31" d="M 794 531 
L 1825 531 
L 1825 4091 
L 703 3866 
L 703 4441 
L 1819 4666 
L 2450 4666 
L 2450 531 
L 3481 531 
L 3481 0 
L 794 0 
L 794 531 
z
" transform="scale(0.015625)"/>
       </defs>
       <use xlink:href="#DejaVuSans-32"/>
       <use xlink:href="#DejaVuSans-30" transform="translate(63.623047 0)"/>
       <use xlink:href="#DejaVuSans-32" transform="translate(127.246094 0)"/>
       <use xlink:href="#DejaVuSans-31" transform="translate(190.869141 0)"/>
      </g>
     </g>
    </g>
    <g id="xtick_3">
     <g id="line2d_3">
      <g>
       <use xlink:href="#mc9dbbf09cf" x="306.601077" y="224.28" style="stroke: #000000; stroke-width: 0.8"/>
      </g>
     </g>
     <g id="text_3">
      <!-- 2022 -->
      <g transform="translate(293.876077 238.878438) scale(0.1 -0.1)">
       <use xlink:href="#DejaVuSans-32"/>
       <use xlink:href="#DejaVuSans-30" transform="translate(63.623047 0)"/>
       <use xlink:href="#DejaVuSans-32" transform="translate(127.246094 0)"/>
       <use xlink:href="#DejaVuSans-32" transform="translate(190.869141 0)"/>
      </g>
     </g>
    </g>
    <g id="xtick_4">
     <g id="line2d_4">
      <g>
       <use xlink:href="#mc9dbbf09cf" x="401.947949" y="224.28" style="stroke: #000000; stroke-width: 0.8"/>
      </g>
     </g>
     <g id="text_4">
      <!-- 2023 -->
      <g transform="translate(389.222949 238.878438) scale(0.1 -0.1)">
       <defs>
        <path id="DejaVuSans-33" d="M 2597 2516 
Q 3050 2419 3304 2112 
Q 3559 1806 3559 1356 
Q 3559 666 3084 287 
Q 2609 -91 1734 -91 
Q 1441 -91 1130 -33 
Q 819 25 488 141 
L 488 750 
Q 750 597 1062 519 
Q 1375 441 1716 441 
Q 2309 441 2620 675 
Q 2931 909 2931 1356 
Q 2931 1769 2642 2001 
Q 2353 2234 1838 2234 
L 1294 2234 
L 1294 2753 
L 1863 2753 
Q 2328 2753 2575 2939 
Q 2822 3125 2822 3475 
Q 2822 3834 2567 4026 
Q 2313 4219 1838 4219 
Q 1578 4219 1281 4162 
Q 984 4106 628 3988 
L 628 4550 
Q 988 4650 1302 4700 
Q 1616 4750 1894 4750 
Q 2613 4750 3031 4423 
Q 3450 4097 3450 3541 
Q 3450 3153 3228 2886 
Q 3006 2619 2597 2516 
z
" transform="scale(0.015625)"/>
       </defs>
       <use xlink:href="#DejaVuSans-32"/>
       <use xlink:href="#DejaVuSans-30" transform="translate(63.623047 0)"/>
       <use xlink:href="#DejaVuSans-32" transform="translate(127.246094 0)"/>
       <use xlink:href="#DejaVuSans-33" transform="translate(190.869141 0)"/>
      </g>
     </g>
    </g>
    <g id="xtick_5">
     <g id="line2d_5">
      <g>
       <use xlink:href="#mc9dbbf09cf" x="497.294821" y="224.28" style="stroke: #000000; stroke-width: 0.8"/>
      </g>
     </g>
     <g id="text_5">
      <!-- 2024 -->
      <g transform="translate(484.569821 238.878438) scale(0.1 -0.1)">
       <defs>
        <path id="DejaVuSans-34" d="M 2419 4116 
L 825 1625 
L 2419 1625 
L 2419 4116 
z
M 2253 4666 
L 3047 4666 
L 3047 1625 
L 3713 1625 
L 3713 1100 
L 3047 1100 
L 3047 0 
L 2419 0 
L 2419 1100 
L 313 1100 
L 313 1709 
L 2253 4666 
z
" transform="scale(0.015625)"/>
       </defs>
       <use xlink:href="#DejaVuSans-32"/>
       <use xlink:href="#DejaVuSans-30" transform="translate(63.623047 0)"/>
       <use xlink:href="#DejaVuSans-32" transform="translate(127.246094 0)"/>
       <use xlink:href="#DejaVuSans-34" transform="translate(190.869141 0)"/>
      </g>
     </g>
    </g>
    <g id="xtick_6">
     <g id="line2d_6">
      <g>
       <use xlink:href="#mc9dbbf09cf" x="592.902918" y="224.28" style="stroke: #000000; stroke-width: 0.8"/>
      </g>
     </g>
     <g id="text_6">
      <!-- 2025 -->
      <g transform="translate(580.177918 238.878438) scale(0.1 -0.1)">
       <defs>
        <path id="DejaVuSans-35" d="M 691 4666 
L 3169 4666 
L 3169 4134 
L 1269 4134 
L 1269 2991 
Q 1406 3038 1543 3061 
Q 1681 3084 1819 3084 
Q 2600 3084 3056 2656 
Q 3513 2228 3513 1497 
Q 3513 744 3044 326 
Q 2575 -91 1722 -91 
Q 1428 -91 1123 -41 
Q 819 9 494 109 
L 494 744 
Q 775 591 1075 516 
Q 1375 441 1709 441 
Q 2250 441 2565 725 
Q 2881 1009 2881 1497 
Q 2881 1984 2565 2268 
Q 2250 2553 1709 2553 
Q 1456 2553 1204 2497 
Q 953 2441 691 2322 
L 691 4666 
z
" transform="scale(0.015625)"/>
       </defs>
       <use xlink:href="#DejaVuSans-32"/>
       <use xlink:href="#DejaVuSans-30" transform="translate(63.623047 0)"/>
       <use xlink:href="#DejaVuSans-32" transform="translate(127.246094 0)"/>
       <use xlink:href="#DejaVuSans-35" transform="translate(190.869141 0)"/>
      </g>
     </g>
    </g>
   </g>
   <g id="matplotlib.axis_2">
    <g id="ytick_1">
     <g id="line2d_7">
      <defs>
       <path id="m8feca5e63b" d="M 0 0 
L -3.5 0 
" style="stroke: #000000; stroke-width: 0.8"/>
      </defs>
      <g>
       <use xlink:href="#m8feca5e63b" x="94.5" y="220.300369" style="stroke: #000000; stroke-width: 0.8"/>
      </g>
     </g>
     <g id="text_7">
      <!-- 0 -->
      <g transform="translate(81.1375 224.099588) scale(0.1 -0.1)">
       <use xlink:href="#DejaVuSans-30"/>
      </g>
     </g>
    </g>
    <g id="ytick_2">
     <g id="line2d_8">
      <g>
       <use xlink:href="#m8feca5e63b" x="94.5" y="195.562385" style="stroke: #000000; stroke-width: 0.8"/>
      </g>
     </g>
     <g id="text_8">
      <!-- 25 -->
      <g transform="translate(74.775 199.361604) scale(0.1 -0.1)">
       <use xlink:href="#DejaVuSans-32"/>
       <use xlink:href="#DejaVuSans-35" transform="translate(63.623047 0)"/>
      </g>
     </g>
    </g>
    <g id="ytick_3">
     <g id="line2d_9">
      <g>
       <use xlink:href="#m8feca5e63b" x="94.5" y="170.824401" style="stroke: #000000; stroke-width: 0.8"/>
      </g>
     </g>
     <g id="text_9">
      <!-- 50 -->
      <g transform="translate(74.775 174.62362) scale(0.1 -0.1)">
       <use xlink:href="#DejaVuSans-35"/>
       <use xlink:href="#DejaVuSans-30" transform="translate(63.623047 0)"/>
      </g>
     </g>
    </g>
    <g id="ytick_4">
     <g id="line2d_10">
      <g>
       <use xlink:href="#m8feca5e63b" x="94.5" y="146.086417" style="stroke: #000000; stroke-width: 0.8"/>
      </g>
     </g>
     <g id="text_10">
      <!-- 75 -->
      <g transform="translate(74.775 149.885636) scale(0.1 -0.1)">
       <defs>
        <path id="DejaVuSans-37" d="M 525 4666 
L 3525 4666 
L 3525 4397 
L 1831 0 
L 1172 0 
L 2766 4134 
L 525 4134 
L 525 4666 
z
" transform="scale(0.015625)"/>
       </defs>
       <use xlink:href="#DejaVuSans-37"/>
       <use xlink:href="#DejaVuSans-35" transform="translate(63.623047 0)"/>
      </g>
     </g>
    </g>
    <g id="ytick_5">
     <g id="line2d_11">
      <g>
       <use xlink:href="#m8feca5e63b" x="94.5" y="121.348433" style="stroke: #000000; stroke-width: 0.8"/>
      </g>
     </g>
     <g id="text_11">
      <!-- 100 -->
      <g transform="translate(68.4125 125.147652) scale(0.1 -0.1)">
       <use xlink:href="#DejaVuSans-31"/>
       <use xlink:href="#DejaVuSans-30" transform="translate(63.623047 0)"/>
       <use xlink:href="#DejaVuSans-30" transform="translate(127.246094 0)"/>
      </g>
     </g>
    </g>
    <g id="ytick_6">
     <g id="line2d_12">
      <g>
       <use xlink:href="#m8feca5e63b" x="94.5" y="96.61045" style="stroke: #000000; stroke-width: 0.8"/>
      </g>
     </g>
     <g id="text_12">
      <!-- 125 -->
      <g transform="translate(68.4125 100.409668) scale(0.1 -0.1)">
       <use xlink:href="#DejaVuSans-31"/>
       <use xlink:href="#DejaVuSans-32" transform="translate(63.623047 0)"/>
       <use xlink:href="#DejaVuSans-35" transform="translate(127.246094 0)"/>
      </g>
     </g>
    </g>
    <g id="ytick_7">
     <g id="line2d_13">
      <g>
       <use xlink:href="#m8feca5e63b" x="94.5" y="71.872466" style="stroke: #000000; stroke-width: 0.8"/>
      </g>
     </g>
     <g id="text_13">
      <!-- 150 -->
      <g transform="translate(68.4125 75.671684) scale(0.1 -0.1)">
       <use xlink:href="#DejaVuSans-31"/>
       <use xlink:href="#DejaVuSans-35" transform="translate(63.623047 0)"/>
       <use xlink:href="#DejaVuSans-30" transform="translate(127.246094 0)"/>
      </g>
     </g>
    </g>
    <g id="ytick_8">
     <g id="line2d_14">
      <g>
       <use xlink:href="#m8feca5e63b" x="94.5" y="47.134482" style="stroke: #000000; stroke-width: 0.8"/>
      </g>
     </g>
     <g id="text_14">
      <!-- 175 -->
      <g transform="translate(68.4125 50.9337) scale(0.1 -0.1)">
       <use xlink:href="#DejaVuSans-31"/>
       <use xlink:href="#DejaVuSans-37" transform="translate(63.623047 0)"/>
       <use xlink:href="#DejaVuSans-35" transform="translate(127.246094 0)"/>
      </g>
     </g>
    </g>
   </g>
   <g id="line2d_15">
    <path d="M 121.131818 214.139978 
L 121.393042 214.072242 
L 122.43794 214.384067 
L 122.699164 214.192686 
L 123.482837 214.476925 
L 124.26651 214.380866 
L 124.788958 214.123967 
L 125.050183 214.038007 
L 125.311407 214.103523 
L 126.878753 213.63086 
L 127.139977 213.16263 
L 128.184874 212.995633 
L 128.446099 212.549079 
L 128.707323 212.696862 
L 128.968547 213.05721 
L 130.013445 213.845885 
L 130.274669 213.707955 
L 130.535893 214.074926 
L 130.797118 213.644368 
L 131.58079 213.487624 
L 131.842015 213.747387 
L 132.103239 213.288489 
L 132.625688 213.743691 
L 133.409361 214.251386 
L 133.670585 213.865932 
L 133.931809 214.226001 
L 134.193034 214.969309 
L 134.454258 214.364756 
L 135.237931 215.46 
L 135.499155 214.945648 
L 135.760379 215.301777 
L 136.021604 215.051625 
L 136.282828 215.229565 
L 137.066501 215.058526 
L 137.327725 214.159212 
L 137.58895 214.24695 
L 137.850174 213.96057 
L 138.111398 214.071721 
L 138.895071 213.754781 
L 139.156295 213.803825 
L 139.41752 214.309797 
L 139.678744 214.004192 
L 139.939968 214.289094 
L 140.723641 213.685526 
L 140.984866 213.916455 
L 141.24609 213.721263 
L 141.507314 213.819845 
L 142.552211 213.649791 
L 142.813436 213.302289 
L 143.07466 213.378938 
L 143.335884 213.03735 
L 144.380782 213.225889 
L 144.642006 213.65817 
L 144.90323 213.24807 
L 145.164455 213.300812 
L 145.425679 213.163289 
L 146.209352 212.978695 
L 146.470576 213.119667 
L 146.7318 212.944684 
L 147.254249 213.331125 
L 148.560371 212.961196 
L 149.082819 212.598661 
L 149.866492 212.349249 
L 150.127716 212.60852 
L 150.388941 212.630701 
L 150.650165 212.383752 
L 150.911389 211.930032 
L 152.217511 211.457575 
L 152.478735 211.649566 
L 152.739959 211.402124 
L 154.307305 211.933725 
L 154.56853 211.550736 
L 156.135875 211.654247 
L 156.3971 211.502854 
L 157.180773 211.616277 
L 157.703221 211.062238 
L 157.964446 211.624906 
L 158.22567 211.490527 
L 159.009343 211.25259 
L 159.270567 211.356394 
L 159.531791 211.191195 
L 160.05424 211.166289 
L 160.837913 210.904437 
L 161.099137 210.980131 
L 161.360362 211.191687 
L 161.621586 210.940681 
L 161.88281 211.271083 
L 162.666483 211.226699 
L 162.927707 210.933037 
L 163.450156 210.820112 
L 164.756278 210.564173 
L 165.278726 209.935676 
L 165.539951 209.965015 
L 166.323623 210.386154 
L 166.584848 210.065862 
L 167.107296 210.304785 
L 168.152194 209.933947 
L 168.413418 210.113698 
L 168.674642 210.00496 
L 168.935867 210.309717 
L 169.980764 210.021973 
L 170.241988 210.225143 
L 170.764437 209.832113 
L 171.025661 209.831374 
L 172.593007 209.120523 
L 172.854231 209.254656 
L 173.637904 209.288683 
L 173.899128 209.599357 
L 174.160353 209.017211 
L 174.421577 209.0145 
L 174.682801 208.895163 
L 175.466474 208.132776 
L 176.250147 208.326084 
L 176.511371 207.791033 
L 177.817493 207.702765 
L 178.078717 207.845524 
L 178.339942 207.333159 
L 179.123615 207.109522 
L 179.646063 206.146635 
L 179.907287 207.459751 
L 180.168512 207.84747 
L 181.213409 208.547439 
L 181.474633 207.756214 
L 181.735858 208.154045 
L 181.997082 208.299318 
L 183.041979 207.483923 
L 183.303203 207.95402 
L 183.564428 208.004336 
L 183.825652 208.274898 
L 184.870549 207.832426 
L 185.131774 208.339519 
L 185.392998 208.118282 
L 185.654222 207.599598 
L 186.437895 207.440512 
L 187.221568 206.868801 
L 187.482792 207.413628 
L 188.788914 206.523995 
L 189.311363 206.72254 
L 190.095035 206.265517 
L 190.35626 206.243565 
L 191.139933 206.674449 
L 191.923606 206.98398 
L 192.18483 206.838216 
L 192.707279 207.118893 
L 192.968503 206.892723 
L 193.752176 207.33569 
L 194.0134 207.083624 
L 194.274624 207.843031 
L 194.535849 207.451365 
L 194.797073 207.934781 
L 195.580746 207.888657 
L 195.84197 207.455806 
L 196.103195 206.691466 
L 196.625643 205.93403 
L 197.409316 206.852769 
L 197.67054 207.701952 
L 197.931765 207.06266 
L 198.192989 207.024432 
L 198.454213 207.182034 
L 199.237886 206.966716 
L 199.760335 207.052053 
L 200.021559 207.040708 
L 200.282783 207.388473 
L 201.066456 207.336924 
L 201.327681 207.516725 
L 201.588905 207.243448 
L 203.156251 207.090284 
L 203.417475 206.937861 
L 203.678699 207.080462 
L 203.939924 206.920343 
L 204.723597 206.87248 
L 204.984821 207.125854 
L 205.246045 207.539596 
L 205.768494 207.458178 
L 206.813391 207.115492 
L 207.074615 207.231939 
L 207.33584 207.13449 
L 207.597064 207.20283 
L 208.641961 207.196663 
L 208.903186 207.462125 
L 210.470531 207.527257 
L 210.731756 207.327419 
L 210.99298 207.416976 
L 212.037877 207.359244 
L 212.299102 207.071823 
L 212.560326 207.851686 
L 212.82155 207.131777 
L 213.082775 207.198141 
L 213.866447 206.857923 
L 214.127672 206.992874 
L 214.388896 206.946494 
L 214.911345 207.609906 
L 215.956242 207.446336 
L 216.478691 206.615156 
L 216.739915 206.768119 
L 217.523588 206.826591 
L 217.784812 207.041727 
L 218.046036 207.552422 
L 218.307261 207.420924 
L 218.568485 207.48137 
L 219.352158 207.237365 
L 219.613382 206.921824 
L 219.874607 206.947728 
L 220.135831 206.815736 
L 220.397055 206.888022 
L 221.180728 206.051416 
L 221.441952 206.224607 
L 221.964401 205.25009 
L 222.225625 205.535785 
L 223.270523 205.171637 
L 223.531747 205.590308 
L 223.792971 205.666295 
L 224.054195 205.570077 
L 225.099093 206.344265 
L 225.360317 205.99196 
L 225.621541 207.167797 
L 225.882766 206.766146 
L 226.666439 206.640568 
L 227.450111 208.092727 
L 227.711336 208.002674 
L 228.495009 208.859511 
L 228.756233 207.940434 
L 229.017457 207.991764 
L 229.278682 207.473243 
L 229.539906 207.60898 
L 230.846027 207.129944 
L 231.107252 207.740775 
L 232.152149 207.28296 
L 232.413373 207.396984 
L 232.674598 207.819255 
L 232.935822 207.925624 
L 233.197046 207.625517 
L 234.241943 207.593431 
L 234.764392 206.665469 
L 235.809289 206.49197 
L 236.070514 206.616358 
L 236.592962 206.166686 
L 236.854187 206.084751 
L 237.637859 205.286111 
L 237.899084 204.821635 
L 238.160308 205.218979 
L 238.421532 204.369747 
L 239.46643 205.135315 
L 239.727654 205.323376 
L 239.988878 205.13655 
L 240.250103 205.640266 
L 240.511327 205.230581 
L 241.295 205.020555 
L 241.817448 205.219227 
L 242.078673 205.171842 
L 242.339897 205.483057 
L 243.12357 205.653593 
L 243.384794 206.132879 
L 243.907243 205.963327 
L 244.168467 205.677779 
L 244.95214 206.217285 
L 245.213364 206.1773 
L 245.474589 206.718038 
L 245.735813 206.810095 
L 245.997037 206.239742 
L 246.78071 206.31625 
L 247.041935 206.464083 
L 247.303159 206.414724 
L 247.825607 205.50058 
L 248.60928 204.88827 
L 249.131729 204.801398 
L 249.392953 205.010684 
L 249.654178 204.263868 
L 250.699075 204.244125 
L 250.960299 203.736959 
L 251.221523 203.547908 
L 251.482748 202.947196 
L 252.266421 202.906971 
L 252.788869 203.160452 
L 253.050094 203.094544 
L 253.311318 202.699327 
L 254.094991 202.508264 
L 254.356215 202.735614 
L 254.617439 202.714137 
L 254.878664 201.87779 
L 255.139888 201.89606 
L 255.923561 202.1049 
L 256.184785 201.651177 
L 256.707234 201.336443 
L 256.968458 201.508744 
L 257.752131 200.566743 
L 258.535804 200.342598 
L 258.797028 200.07106 
L 259.841926 199.86222 
L 260.364374 200.647959 
L 261.409271 200.045875 
L 261.93172 200.708442 
L 262.454169 202.367803 
L 263.237842 201.756832 
L 263.499066 201.922472 
L 263.76029 201.134509 
L 264.021515 200.95283 
L 264.282739 200.988369 
L 265.327636 201.333971 
L 265.850085 200.88568 
L 266.111309 201.04663 
L 267.156206 200.734602 
L 267.678655 199.922942 
L 267.939879 200.190535 
L 268.723552 200.260641 
L 269.246001 200.849142 
L 269.768449 200.366296 
L 270.552122 200.6013 
L 271.074571 201.499858 
L 271.597019 199.746195 
L 272.380692 198.618558 
L 272.641917 198.781487 
L 272.903141 198.366766 
L 273.164365 198.509943 
L 273.42559 197.949086 
L 274.209263 197.897742 
L 274.470487 198.193027 
L 274.992935 198.182173 
L 275.25416 197.740714 
L 276.299057 197.919464 
L 276.821506 198.398453 
L 277.08273 198.101186 
L 277.866403 198.423141 
L 278.388851 198.236489 
L 278.650076 198.334254 
L 278.9113 198.67202 
L 279.694973 199.449253 
L 279.956197 199.317902 
L 280.478646 198.097238 
L 280.73987 198.49326 
L 281.523543 198.909038 
L 281.784767 199.858121 
L 282.045992 200.037861 
L 282.307216 199.841329 
L 282.56844 199.815653 
L 283.352113 200.813122 
L 283.613338 200.103045 
L 284.135786 199.486779 
L 284.397011 199.727753 
L 285.441908 199.885772 
L 285.703132 199.621095 
L 285.964356 198.824105 
L 287.270478 198.286853 
L 287.531702 198.471529 
L 287.792927 197.889844 
L 288.054151 197.856262 
L 288.837824 197.42172 
L 289.099048 195.889961 
L 289.360272 196.152661 
L 289.882721 195.050502 
L 290.666394 194.79373 
L 290.927618 194.226845 
L 291.188843 194.032293 
L 291.450067 190.869021 
L 291.711291 190.917413 
L 292.494964 189.878458 
L 292.756188 190.023642 
L 293.017413 191.206779 
L 293.278637 190.287322 
L 293.539861 190.287322 
L 294.323534 190.647798 
L 294.584759 190.47201 
L 294.845983 191.402321 
L 295.107207 189.018268 
L 295.368431 187.724514 
L 296.413329 188.948145 
L 296.674553 188.031659 
L 297.197002 189.188134 
L 297.980675 187.338365 
L 298.241899 188.029685 
L 298.503123 189.251485 
L 298.764347 188.568979 
L 299.025572 189.984371 
L 299.809245 190.632318 
L 300.070469 188.271678 
L 300.331693 188.865289 
L 300.592918 190.18488 
L 300.854142 190.473291 
L 301.637815 192.485274 
L 301.899039 192.311435 
L 302.160263 190.215499 
L 302.421488 192.262052 
L 302.682712 192.840852 
L 303.466385 192.921846 
L 303.727609 191.582498 
L 305.294955 189.735468 
L 305.556179 190.350815 
L 306.339852 191.250628 
L 307.123525 190.549344 
L 307.38475 191.37014 
L 307.645974 193.035428 
L 307.907198 192.468484 
L 308.168423 193.388047 
L 308.952096 193.236926 
L 309.21332 192.825046 
L 309.474544 192.645282 
L 309.735768 194.051791 
L 309.996993 193.689297 
L 311.04189 194.715537 
L 311.825563 197.213473 
L 312.609236 197.215451 
L 312.87046 198.250574 
L 313.131684 197.808078 
L 313.392909 198.62591 
L 313.654133 197.740914 
L 314.437806 196.11513 
L 314.69903 195.964999 
L 314.960255 195.368418 
L 315.221479 196.646527 
L 315.482703 196.28008 
L 316.266376 195.876104 
L 316.5276 195.500769 
L 316.788825 193.92339 
L 317.050049 194.793568 
L 317.311273 196.645538 
L 318.094946 196.331441 
L 318.356171 194.130805 
L 318.617395 194.115004 
L 318.878619 196.094392 
L 319.139844 196.948769 
L 320.184741 197.197672 
L 320.445965 198.188352 
L 320.707189 196.844066 
L 320.968414 196.440094 
L 321.752087 196.214896 
L 322.013311 197.111741 
L 322.274535 196.373791 
L 322.53576 196.873658 
L 322.796984 197.642232 
L 323.580657 199.207046 
L 323.841881 199.047004 
L 324.103105 197.56518 
L 324.36433 197.916865 
L 324.625554 198.468104 
L 325.409227 199.228777 
L 325.931676 196.101134 
L 326.1929 195.834401 
L 326.454124 194.167843 
L 327.237797 193.890244 
L 327.499021 194.097701 
L 327.760246 194.976921 
L 328.02147 192.491398 
L 328.282694 192.943853 
L 329.066367 192.423238 
L 329.327592 191.991532 
L 329.588816 192.945825 
L 330.111264 193.911977 
L 330.894937 193.271825 
L 331.417386 196.189056 
L 331.67861 196.38564 
L 331.939835 197.461449 
L 332.984732 199.05689 
L 333.245956 198.366358 
L 333.50718 199.299908 
L 334.552078 198.781266 
L 334.813302 198.371296 
L 335.074526 199.078621 
L 335.335751 200.361881 
L 335.596975 201.02179 
L 336.380648 200.639474 
L 336.641872 201.739983 
L 336.903096 202.108462 
L 337.164321 200.758023 
L 337.425545 201.97806 
L 338.209218 201.004004 
L 338.470442 200.935846 
L 338.731667 200.212708 
L 338.992891 201.684663 
L 339.254115 201.851607 
L 340.037788 203.555714 
L 340.299012 202.918529 
L 340.560237 203.871839 
L 340.821461 204.321325 
L 341.082685 202.808875 
L 341.866358 203.245518 
L 342.127583 202.343577 
L 342.388807 203.567567 
L 342.650031 203.383819 
L 342.911256 203.808617 
L 343.694928 203.607084 
L 343.956153 204.342069 
L 344.739826 201.717259 
L 345.784723 201.854574 
L 346.045947 202.202312 
L 346.307172 200.945724 
L 346.568396 201.807156 
L 347.352069 201.741957 
L 347.613293 201.603654 
L 347.874517 201.874391 
L 348.135742 202.467245 
L 348.396966 203.528459 
L 349.180639 204.839662 
L 349.441863 204.65291 
L 349.703088 203.970137 
L 349.964312 204.885113 
L 350.225536 204.609434 
L 351.270433 203.931599 
L 351.792882 204.268541 
L 352.054106 203.378272 
L 352.837779 203.632207 
L 353.099004 204.50865 
L 353.882676 205.95028 
L 355.188798 205.350506 
L 355.450022 204.631174 
L 355.711247 204.650935 
L 356.49492 205.328767 
L 356.756144 205.397937 
L 357.017368 205.316911 
L 357.278592 205.111387 
L 357.539817 204.72603 
L 358.32349 204.391067 
L 358.845938 202.705378 
L 359.107163 202.46527 
L 359.368387 203.18757 
L 360.15206 203.479056 
L 360.413284 203.964209 
L 360.674508 202.722176 
L 361.196957 202.353616 
L 362.241854 201.994941 
L 362.764303 201.314146 
L 363.025527 201.537451 
L 363.8092 202.719214 
L 364.070424 203.417794 
L 364.331649 202.418832 
L 364.592873 202.571985 
L 364.854097 201.814117 
L 365.63777 201.494962 
L 365.898995 201.646142 
L 366.160219 202.183667 
L 366.421443 201.750883 
L 366.682668 202.663879 
L 367.46634 203.469175 
L 367.988789 203.283412 
L 368.250013 202.600641 
L 368.511238 204.233959 
L 369.294911 204.687494 
L 369.817359 205.386079 
L 370.078584 206.529301 
L 370.339808 206.815849 
L 371.384705 206.995683 
L 371.907154 206.472826 
L 372.168378 206.080437 
L 372.952051 205.963806 
L 373.213275 207.321852 
L 373.4745 207.324815 
L 373.735724 207.521504 
L 373.996948 207.255629 
L 374.780621 207.073765 
L 375.041845 207.277374 
L 375.30307 207.193361 
L 375.564294 207.885231 
L 375.825518 207.929709 
L 376.609191 208.214365 
L 376.870416 208.031514 
L 377.13164 207.712263 
L 377.392864 208.222271 
L 377.654088 208.302331 
L 378.437761 207.933663 
L 378.698986 207.286271 
L 378.96021 207.244757 
L 379.221434 207.322838 
L 379.482659 208.364599 
L 380.78878 208.933911 
L 381.050004 208.479253 
L 381.311229 209.203741 
L 382.356126 208.472334 
L 382.878575 208.24797 
L 383.139799 207.979129 
L 383.923472 207.847673 
L 384.184696 207.193361 
L 384.44592 207.554121 
L 384.707145 207.277374 
L 384.968369 206.627014 
L 385.752042 206.960102 
L 386.013266 206.914634 
L 386.274491 207.234872 
L 386.535715 207.035219 
L 386.796939 206.308754 
L 387.580612 206.165437 
L 387.841836 205.86793 
L 388.103061 206.684341 
L 388.364285 204.733264 
L 388.625509 204.162964 
L 389.409182 204.194593 
L 389.670407 203.827902 
L 389.931631 204.575122 
L 390.45408 205.070304 
L 391.237752 205.161234 
L 391.760201 203.973194 
L 393.066323 204.657156 
L 393.327547 204.842975 
L 393.588771 203.569605 
L 393.849996 203.360012 
L 394.11122 203.616074 
L 394.894893 203.879047 
L 395.156117 204.494972 
L 395.417341 204.363481 
L 395.678566 203.326398 
L 395.93979 203.492492 
L 396.723463 202.96456 
L 396.984687 202.433655 
L 397.245912 202.827135 
L 397.507136 203.540936 
L 397.76836 203.917608 
L 398.813257 204.39809 
L 399.074482 203.986813 
L 399.335706 205.135612 
L 399.59693 205.2671 
L 400.641828 206.339777 
L 400.903052 206.423809 
L 401.164276 205.86325 
L 401.4255 205.852376 
L 402.470398 206.14798 
L 402.731622 205.718909 
L 402.992846 206.197411 
L 403.254071 205.610159 
L 404.821416 203.976926 
L 405.082641 203.593335 
L 406.127538 202.799454 
L 406.388762 203.120763 
L 406.649987 203.725811 
L 406.911211 202.664009 
L 407.694884 201.325389 
L 408.217332 201.196869 
L 408.739781 200.166706 
L 409.523454 201.356038 
L 409.784678 200.985298 
L 410.045903 199.595268 
L 410.307127 198.837973 
L 410.568351 199.440054 
L 411.352024 199.450931 
L 411.613248 198.379241 
L 412.135697 198.217108 
L 412.396921 199.276929 
L 413.180594 198.759871 
L 413.441819 197.590307 
L 413.703043 197.794957 
L 414.225492 199.155323 
L 415.270389 199.879999 
L 415.531613 199.782122 
L 415.792837 196.90518 
L 416.054062 197.278885 
L 416.837735 197.066331 
L 417.098959 197.348091 
L 417.360183 197.860206 
L 417.882632 196.681747 
L 418.666305 197.013928 
L 418.927529 197.273 
L 419.188753 196.389992 
L 419.711202 197.592383 
L 420.494875 197.591394 
L 420.756099 196.50667 
L 421.017324 196.343516 
L 421.278548 195.045213 
L 421.539772 194.86327 
L 422.323445 194.690228 
L 422.845894 194.128586 
L 423.107118 193.413679 
L 423.368342 193.821067 
L 424.41324 194.185937 
L 424.935688 193.223826 
L 425.196912 192.834235 
L 425.980585 192.64834 
L 426.503034 193.72021 
L 427.809156 193.030018 
L 428.07038 193.435431 
L 428.331604 194.101891 
L 428.592828 194.133532 
L 428.854053 193.841832 
L 429.637726 193.600559 
L 429.89895 192.943006 
L 430.160174 192.681961 
L 430.421399 193.499706 
L 430.682623 193.484874 
L 431.466296 193.561012 
L 431.72752 194.353047 
L 431.988744 193.64605 
L 432.249969 193.37907 
L 432.511193 192.861925 
L 433.294866 191.713918 
L 433.817315 192.80952 
L 434.078539 193.046831 
L 434.339763 191.941339 
L 435.123436 191.475618 
L 435.38466 192.049124 
L 435.645885 191.738635 
L 436.168333 192.27754 
L 437.213231 191.414308 
L 437.474455 190.460106 
L 437.735679 188.976897 
L 437.996904 189.386262 
L 438.780576 189.473275 
L 439.041801 189.955816 
L 439.303025 190.104139 
L 439.564249 182.745429 
L 439.825474 181.790233 
L 440.870371 180.638273 
L 441.131595 182.889789 
L 441.39282 180.975453 
L 441.654044 181.413497 
L 442.437717 181.567751 
L 442.698941 182.078969 
L 442.960165 183.24094 
L 443.22139 182.217414 
L 444.266287 181.256194 
L 444.788736 177.780174 
L 445.04996 178.120355 
L 445.311184 178.081793 
L 446.356081 176.978167 
L 446.617306 177.732707 
L 446.87853 177.752479 
L 447.139754 178.559434 
L 447.923427 180.118951 
L 448.184652 178.888744 
L 448.445876 179.639324 
L 448.7071 179.931053 
L 448.968324 178.467471 
L 449.751997 178.357702 
L 450.274446 178.452628 
L 450.53567 178.664258 
L 450.796895 178.268702 
L 451.580568 178.588114 
L 451.841792 178.365606 
L 452.36424 174.833211 
L 452.625465 175.335584 
L 453.409138 174.354581 
L 453.670362 173.333037 
L 453.931586 173.745413 
L 454.454035 176.482725 
L 455.237708 176.183088 
L 455.498932 175.127911 
L 455.760156 175.352397 
L 456.021381 174.909362 
L 456.282605 174.068789 
L 457.066278 174.089562 
L 457.327502 174.309092 
L 457.588727 176.522272 
L 458.894848 175.387007 
L 459.156072 176.131657 
L 459.417297 178.218256 
L 459.678521 178.382415 
L 459.939745 179.898417 
L 460.723418 177.032561 
L 460.984643 176.847626 
L 461.245867 177.296595 
L 461.768316 177.481522 
L 462.551988 173.854193 
L 462.813213 175.138793 
L 463.074437 173.706843 
L 463.335661 173.660373 
L 463.596886 174.792671 
L 464.380559 173.984734 
L 464.641783 172.057345 
L 464.903007 171.58267 
L 465.164232 171.492677 
L 465.425456 172.329298 
L 466.470353 172.290724 
L 466.731577 173.757405 
L 467.254026 175.230013 
L 468.037699 175.619677 
L 468.298923 175.924289 
L 468.560148 175.316054 
L 468.821372 175.221108 
L 469.082596 176.883607 
L 469.866269 176.818335 
L 470.127493 177.259425 
L 470.649942 179.734873 
L 470.911166 179.148403 
L 471.694839 178.543139 
L 471.956064 178.850714 
L 472.739737 177.280194 
L 473.523409 176.011323 
L 473.784634 177.262396 
L 474.307082 176.104283 
L 474.568307 175.042104 
L 475.35198 175.525732 
L 475.613204 175.006497 
L 475.874428 174.009598 
L 476.135653 173.87213 
L 476.396877 175.339793 
L 477.18055 174.712767 
L 477.702998 178.568852 
L 477.964223 178.662805 
L 478.225447 179.368948 
L 479.270344 177.118006 
L 479.792793 180.418267 
L 480.054017 180.246181 
L 480.83769 179.592457 
L 481.098914 179.969264 
L 481.882587 175.790774 
L 482.927485 174.851228 
L 483.449933 173.867182 
L 483.711157 172.497424 
L 484.49483 172.21557 
L 484.756055 171.190972 
L 485.017279 171.950516 
L 485.278503 171.365031 
L 485.539728 171.545029 
L 486.323401 170.446254 
L 486.584625 170.906139 
L 486.845849 172.120624 
L 487.368298 173.050273 
L 488.151971 172.589402 
L 488.413195 173.005773 
L 488.674419 172.690282 
L 488.935644 174.045205 
L 489.196868 174.050146 
L 489.980541 175.291337 
L 490.241765 174.242906 
L 490.502989 175.2943 
L 491.025438 173.31317 
L 491.809111 174.182571 
L 492.070335 173.16382 
L 493.637681 170.770246 
L 493.898905 171.238088 
L 494.16013 172.71478 
L 494.421354 171.845375 
L 494.682578 172.00363 
L 496.511149 171.319188 
L 497.556046 172.6584 
L 497.81727 173.250861 
L 498.078494 172.826541 
L 499.64584 166.543914 
L 499.907065 166.077072 
L 500.168289 166.187849 
L 501.213186 164.534104 
L 501.47441 164.859507 
L 501.735635 163.817021 
L 501.996859 161.459057 
L 502.780532 161.297832 
L 503.041756 161.081227 
L 503.302981 159.608487 
L 503.564205 159.356276 
L 503.825429 159.935876 
L 504.870326 158.21191 
L 505.131551 159.445291 
L 505.392775 157.961676 
L 505.653999 154.862891 
L 506.437672 151.725527 
L 506.698897 152.822415 
L 506.960121 150.966915 
L 507.221345 151.419919 
L 507.482569 148.955104 
L 508.266242 148.841372 
L 508.527467 148.960049 
L 508.788691 147.207403 
L 509.049915 148.435854 
L 509.31114 148.480365 
L 510.356037 151.606835 
L 510.617261 153.565211 
L 510.878485 142.620065 
L 511.13971 142.34411 
L 511.923383 142.072104 
L 512.184607 142.458854 
L 512.445831 143.485502 
L 512.707056 142.05234 
L 512.96828 138.919929 
L 514.013177 135.271174 
L 514.274401 132.564929 
L 514.535626 128.639088 
L 514.79685 133.724175 
L 515.580523 135.459102 
L 515.841747 129.386859 
L 516.102972 130.400725 
L 516.364196 133.312708 
L 516.62542 133.418536 
L 517.409093 132.807258 
L 518.192766 129.859672 
L 518.45399 127.036705 
L 519.237663 126.33146 
L 519.760112 131.031782 
L 520.021336 130.926936 
L 521.066233 130.920013 
L 521.327458 131.821106 
L 521.588682 132.303794 
L 521.849906 135.329547 
L 522.111131 133.249398 
L 522.894804 134.114888 
L 523.156028 135.874555 
L 523.417252 134.207867 
L 523.678477 130.669757 
L 523.939701 133.07333 
L 524.723374 135.234582 
L 524.984598 133.835952 
L 525.245822 137.179203 
L 525.507047 136.550116 
L 525.768271 144.928999 
L 526.551944 141.647086 
L 526.813168 138.773674 
L 527.074393 141.489809 
L 527.335617 138.566932 
L 527.596841 133.519426 
L 528.380514 133.497669 
L 528.641738 134.837935 
L 528.902963 138.162396 
L 529.425411 132.476895 
L 530.209084 129.162339 
L 530.470309 130.731096 
L 530.731533 130.871538 
L 530.992757 132.518432 
L 531.253981 131.399734 
L 532.037654 130.884402 
L 532.298879 129.937802 
L 532.560103 126.699427 
L 532.821327 126.967469 
L 533.082552 128.827023 
L 534.127449 125.951633 
L 534.388673 126.382894 
L 534.649897 117.630103 
L 534.911122 114.989145 
L 535.956019 107.637975 
L 536.217243 106.724026 
L 536.478468 111.001988 
L 536.739692 111.859566 
L 537.784589 105.129547 
L 538.045813 99.191827 
L 538.307038 100.618149 
L 538.568262 100.726952 
L 539.351935 99.83476 
L 539.613159 100.695365 
L 540.135608 92.08926 
L 540.396832 89.843756 
L 541.180505 90.734046 
L 541.441729 86.1837 
L 541.964178 90.931886 
L 542.225402 95.096463 
L 543.009075 103.465154 
L 543.2703 95.571278 
L 543.531524 95.26462 
L 543.792748 97.648617 
L 544.053973 98.093755 
L 544.837645 97.341944 
L 545.09887 98.954367 
L 545.360094 93.404915 
L 545.882543 95.828464 
L 546.666216 93.484063 
L 547.188664 86.846465 
L 547.449889 94.27541 
L 547.711113 92.455271 
L 548.494786 93.246633 
L 548.75601 95.304186 
L 549.017234 103.583854 
L 549.278459 100.517312 
L 549.539683 103.643207 
L 550.323356 98.093755 
L 550.58458 99.033501 
L 550.845805 107.283491 
L 551.107029 109.232234 
L 551.368253 108.460644 
L 552.151926 109.914779 
L 552.41315 117.68994 
L 552.674375 104.543394 
L 552.935599 112.269085 
L 553.196823 114.188151 
L 553.980496 120.934543 
L 554.241721 117.17556 
L 554.502945 122.457913 
L 554.764169 116.463323 
L 555.025393 116.680951 
L 555.809066 112.457035 
L 556.070291 105.413889 
L 556.331515 103.494816 
L 556.592739 98.766409 
L 557.637637 91.703484 
L 557.898861 94.423794 
L 558.160085 93.187295 
L 558.421309 97.895914 
L 558.682534 92.32669 
L 559.466207 95.205273 
L 559.727431 93.38512 
L 559.988655 96.046092 
L 560.24988 103.979542 
L 560.511104 102.218743 
L 561.817225 115.236706 
L 562.07845 114.247504 
L 562.339674 118.580237 
L 563.384571 113.367112 
L 563.645796 104.652189 
L 563.90702 102.436181 
L 564.168244 102.475763 
L 564.951917 104.770919 
L 565.213141 105.94817 
L 565.474366 108.144399 
L 565.73559 103.692581 
L 565.996814 105.542562 
L 566.780487 105.285338 
L 567.041712 100.72471 
L 567.302936 98.112976 
L 567.56416 97.588652 
L 567.825385 100.200379 
L 568.609057 100.160812 
L 568.870282 104.553269 
L 569.131506 102.723082 
L 569.39273 98.765911 
L 569.653955 96.718082 
L 570.437628 93.948059 
L 570.698852 88.833431 
L 570.960076 89.070876 
L 571.221301 86.933993 
L 571.482525 86.943868 
L 572.266198 83.708875 
L 572.527422 90.109602 
L 572.788646 86.033738 
L 573.311095 83.778149 
L 574.094768 78.129285 
L 574.355992 78.247992 
L 574.617217 82.234848 
L 575.139665 80.276057 
L 575.923338 81.285114 
L 576.184562 80.562951 
L 576.445787 82.452498 
L 576.707011 88.962028 
L 576.968235 86.350301 
L 577.751908 85.707256 
L 578.013133 81.888601 
L 578.274357 76.249642 
L 578.535581 73.014634 
L 578.796805 74.251277 
L 579.580478 76.595905 
L 579.841703 73.598357 
L 580.102927 75.596707 
L 580.364151 75.111973 
L 580.625376 79.840772 
L 581.409049 81.651186 
L 581.670273 74.864638 
L 581.931497 75.972638 
L 582.192721 75.200981 
L 582.453946 79.870456 
L 583.237619 85.73694 
L 583.498843 84.846575 
L 583.760067 86.40967 
L 584.282516 83.530814 
L 585.066189 83.154898 
L 585.327413 81.542339 
L 585.588637 76.714597 
L 585.849862 76.783855 
L 586.111086 79.375983 
L 586.894759 82.96737 
L 587.155983 86.667559 
L 587.417208 82.472686 
L 587.678432 84.421723 
L 587.939656 87.478836 
L 588.723329 89.704907 
L 589.245778 92.76202 
L 589.507002 91.010869 
L 589.768226 87.033631 
L 590.551899 82.116518 
L 590.813124 81.572355 
L 591.335572 81.859279 
L 591.596797 84.748206 
L 592.380469 84.273316 
L 592.641694 87.439262 
L 593.164142 83.462039 
L 593.425367 77.367577 
L 594.20904 72.46037 
L 594.470264 81.651519 
L 594.731488 81.681188 
L 595.253937 85.836487 
L 596.03761 88.487984 
L 596.298834 89.942352 
L 596.560058 85.510004 
L 596.821283 88.151596 
L 597.082507 84.055651 
L 598.127404 80.968854 
L 598.388629 74.795229 
L 598.649853 74.646837 
L 598.911077 79.197907 
L 599.69475 103.140408 
L 599.955974 92.682857 
L 600.217199 97.916585 
L 600.478423 96.976688 
L 600.739647 101.507956 
L 601.52332 104.881669 
L 601.784545 102.912845 
L 602.306993 92.98959 
L 603.35189 88.151596 
L 603.613115 88.913394 
L 603.874339 90.555743 
L 604.396788 82.927781 
L 605.441685 82.383633 
L 605.702909 82.551834 
L 605.964133 81.681188 
L 606.225358 87.30076 
L 607.009031 91.406595 
L 607.270255 95.017753 
L 607.531479 90.417226 
L 607.792704 101.4288 
L 608.053928 96.709566 
L 608.837601 107.454011 
L 609.360049 104.248483 
L 609.621274 110.906872 
L 609.882498 108.809428 
L 610.666171 114.458677 
L 610.927395 112.697613 
L 611.18862 105.78135 
L 611.449844 105.939662 
L 611.711068 99.913908 
L 612.494741 102.031335 
L 612.755965 106.088084 
L 613.01719 104.020136 
L 613.278414 103.020787 
L 613.539638 103.842029 
L 614.323311 100.171163 
L 614.584536 100.883565 
L 614.84576 107.740459 
L 615.368209 111.787317 
L 616.151881 113.063708 
L 616.413106 111.312383 
L 616.67433 111.045231 
L 617.196779 126.985278 
L 617.980452 123.690411 
L 618.241676 125.016265 
L 618.5029 107.176478 
L 618.764125 113.865163 
L 619.025349 110.540612 
L 619.809022 110.758292 
L 620.070246 109.284008 
L 620.33147 116.912673 
L 620.592695 119.881027 
L 621.637592 124.412703 
L 621.898816 122.453595 
L 622.682489 110.461448 
L 623.466162 112.7174 
L 623.727386 112.430461 
L 623.988611 112.529404 
L 624.511059 107.008269 
L 625.555957 107.958139 
L 625.817181 104.475276 
L 626.078405 104.168542 
L 626.339629 104.880952 
L 627.123302 98.597936 
L 627.645751 86.388124 
L 627.906975 86.892743 
L 628.1682 86.328755 
L 628.951873 86.160539 
L 629.213097 87.337994 
L 629.474321 89.890774 
L 629.735545 88.871631 
L 629.99677 90.395393 
L 631.041667 86.229812 
L 631.302891 86.912523 
L 631.564116 82.578725 
L 631.82534 86.595899 
L 632.609013 84.369632 
L 632.870237 80.570153 
L 633.131462 79.877538 
L 633.392686 81.787167 
L 633.65391 80.075423 
L 634.437583 79.175018 
L 634.698807 77.859046 
L 634.960032 78.967318 
L 635.221256 76.820062 
L 635.48248 79.818305 
L 636.266153 77.126811 
L 636.527378 77.690844 
L 636.788602 76.345097 
L 637.31105 77.958004 
L 638.094723 77.641365 
L 638.355948 73.950462 
L 638.617172 67.60764 
L 638.878396 66.905074 
L 639.139621 64.203691 
L 639.923294 63.9662 
L 640.184518 68.607049 
L 640.445742 64.69845 
L 640.706966 62.630358 
L 641.751864 63.718821 
L 642.013088 61.977272 
L 642.274312 59.127451 
L 642.796761 57.108839 
L 643.580434 57.949921 
L 643.841658 51.389418 
L 644.102882 50.726442 
L 644.364107 49.11352 
L 644.625331 49.697333 
L 645.409004 50.716537 
L 645.670228 55.020952 
L 646.192677 48.381271 
L 646.453901 48.618761 
L 647.237574 45.402823 
L 647.498798 46.629832 
L 647.760023 42.90923 
L 648.021247 44.294566 
L 648.282471 48.401065 
L 649.066144 42.186885 
L 649.327369 43.908654 
L 649.849817 41.424951 
L 650.111042 39.515186 
L 650.894714 40.148477 
L 651.155939 39.06 
L 651.417163 40.613553 
L 651.678387 40.188051 
L 651.939612 41.741604 
L 652.723285 40.197956 
L 652.984509 46.50119 
L 653.245733 46.73868 
L 653.506958 47.154276 
L 653.768182 44.175813 
L 653.768182 44.175813 
" clip-path="url(#p7b7e5f762e)" style="fill: none; stroke: #1f77b4; stroke-width: 1.5; stroke-linecap: square"/>
   </g>
   <g id="patch_3">
    <path d="M 94.5 224.28 
L 94.5 30.24 
" style="fill: none; stroke: #000000; stroke-width: 0.8; stroke-linejoin: miter; stroke-linecap: square"/>
   </g>
   <g id="patch_4">
    <path d="M 94.5 224.28 
L 680.4 224.28 
" style="fill: none; stroke: #000000; stroke-width: 0.8; stroke-linejoin: miter; stroke-linecap: square"/>
   </g>
  </g>
 </g>
 <defs>
  <clipPath id="p7b7e5f762e">
   <rect x="94.5" y="30.24" width="585.9" height="194.04"/>
  </clipPath>
 </defs>
</svg>
