<?xml version="1.0" encoding="utf-8" standalone="no"?>
<!DOCTYPE svg PUBLIC "-//W3C//DTD SVG 1.1//EN"
  "http://www.w3.org/Graphics/SVG/1.1/DTD/svg11.dtd">
<svg xmlns:xlink="http://www.w3.org/1999/xlink" width="1166.4pt" height="252pt" viewBox="0 0 1166.4 252" xmlns="http://www.w3.org/2000/svg" version="1.1">
 <metadata>
  <rdf:RDF xmlns:dc="http://purl.org/dc/elements/1.1/" xmlns:cc="http://creativecommons.org/ns#" xmlns:rdf="http://www.w3.org/1999/02/22-rdf-syntax-ns#">
   <cc:Work>
    <dc:type rdf:resource="http://purl.org/dc/dcmitype/StillImage"/>
    <dc:date>2025-09-07T00:54:21.598017</dc:date>
    <dc:format>image/svg+xml</dc:format>
    <dc:creator>
     <cc:Agent>
      <dc:title>Matplotlib v3.10.5, https://matplotlib.org/</dc:title>
     </cc:Agent>
    </dc:creator>
   </cc:Work>
  </rdf:RDF>
 </metadata>
 <defs>
  <style type="text/css">*{stroke-linejoin: round; stroke-linecap: butt}</style>
 </defs>
 <g id="figure_1">
  <g id="patch_1">
   <path d="M 0 252 
L 1166.4 252 
L 1166.4 0 
L 0 0 
z
" style="fill: #ffffff"/>
  </g>
  <g id="axes_1">
   <g id="patch_2">
    <path d="M 145.8 224.28 
L 1049.76 224.28 
L 1049.76 30.24 
L 145.8 30.24 
z
" style="fill: #ffffff"/>
   </g>
   <g id="matplotlib.axis_1">
    <g id="xtick_1">
     <g id="line2d_1">
      <defs>
       <path id="m8187288a95" d="M 0 0 
L 0 3.5 
" style="stroke: #000000; stroke-width: 0.8"/>
      </defs>
      <g>
       <use xlink:href="#m8187288a95" x="178.479043" y="224.28" style="stroke: #000000; stroke-width: 0.8"/>
      </g>
     </g>
     <g id="text_1">
      <!-- 2020 -->
      <g transform="translate(165.754043 238.878438) scale(0.1 -0.1)">
       <defs>
        <path id="DejaVuSans-32" d="M 1228 531 
L 3431 531 
L 3431 0 
L 469 0 
L 469 531 
Q 828 903 1448 1529 
Q 2069 2156 2228 2338 
Q 2531 2678 2651 2914 
Q 2772 3150 2772 3378 
Q 2772 3750 2511 3984 
Q 2250 4219 1831 4219 
Q 1534 4219 1204 4116 
Q 875 4013 500 3803 
L 500 4441 
Q 881 4594 1212 4672 
Q 1544 4750 1819 4750 
Q 2544 4750 2975 4387 
Q 3406 4025 3406 3419 
Q 3406 3131 3298 2873 
Q 3191 2616 2906 2266 
Q 2828 2175 2409 1742 
Q 1991 1309 1228 531 
z
" transform="scale(0.015625)"/>
        <path id="DejaVuSans-30" d="M 2034 4250 
Q 1547 4250 1301 3770 
Q 1056 3291 1056 2328 
Q 1056 1369 1301 889 
Q 1547 409 2034 409 
Q 2525 409 2770 889 
Q 3016 1369 3016 2328 
Q 3016 3291 2770 3770 
Q 2525 4250 2034 4250 
z
M 2034 4750 
Q 2819 4750 3233 4129 
Q 3647 3509 3647 2328 
Q 3647 1150 3233 529 
Q 2819 -91 2034 -91 
Q 1250 -91 836 529 
Q 422 1150 422 2328 
Q 422 3509 836 4129 
Q 1250 4750 2034 4750 
z
" transform="scale(0.015625)"/>
       </defs>
       <use xlink:href="#DejaVuSans-32"/>
       <use xlink:href="#DejaVuSans-30" transform="translate(63.623047 0)"/>
       <use xlink:href="#DejaVuSans-32" transform="translate(127.246094 0)"/>
       <use xlink:href="#DejaVuSans-30" transform="translate(190.869141 0)"/>
      </g>
     </g>
    </g>
    <g id="xtick_2">
     <g id="line2d_2">
      <g>
       <use xlink:href="#m8187288a95" x="325.054163" y="224.28" style="stroke: #000000; stroke-width: 0.8"/>
      </g>
     </g>
     <g id="text_2">
      <!-- 2021 -->
      <g transform="translate(312.329163 238.878438) scale(0.1 -0.1)">
       <defs>
        <path id="DejaVuSans-31" d="M 794 531 
L 1825 531 
L 1825 4091 
L 703 3866 
L 703 4441 
L 1819 4666 
L 2450 4666 
L 2450 531 
L 3481 531 
L 3481 0 
L 794 0 
L 794 531 
z
" transform="scale(0.015625)"/>
       </defs>
       <use xlink:href="#DejaVuSans-32"/>
       <use xlink:href="#DejaVuSans-30" transform="translate(63.623047 0)"/>
       <use xlink:href="#DejaVuSans-32" transform="translate(127.246094 0)"/>
       <use xlink:href="#DejaVuSans-31" transform="translate(190.869141 0)"/>
      </g>
     </g>
    </g>
    <g id="xtick_3">
     <g id="line2d_3">
      <g>
       <use xlink:href="#m8187288a95" x="471.228804" y="224.28" style="stroke: #000000; stroke-width: 0.8"/>
      </g>
     </g>
     <g id="text_3">
      <!-- 2022 -->
      <g transform="translate(458.503804 238.878438) scale(0.1 -0.1)">
       <use xlink:href="#DejaVuSans-32"/>
       <use xlink:href="#DejaVuSans-30" transform="translate(63.623047 0)"/>
       <use xlink:href="#DejaVuSans-32" transform="translate(127.246094 0)"/>
       <use xlink:href="#DejaVuSans-32" transform="translate(190.869141 0)"/>
      </g>
     </g>
    </g>
    <g id="xtick_4">
     <g id="line2d_4">
      <g>
       <use xlink:href="#m8187288a95" x="617.403445" y="224.28" style="stroke: #000000; stroke-width: 0.8"/>
      </g>
     </g>
     <g id="text_4">
      <!-- 2023 -->
      <g transform="translate(604.678445 238.878438) scale(0.1 -0.1)">
       <defs>
        <path id="DejaVuSans-33" d="M 2597 2516 
Q 3050 2419 3304 2112 
Q 3559 1806 3559 1356 
Q 3559 666 3084 287 
Q 2609 -91 1734 -91 
Q 1441 -91 1130 -33 
Q 819 25 488 141 
L 488 750 
Q 750 597 1062 519 
Q 1375 441 1716 441 
Q 2309 441 2620 675 
Q 2931 909 2931 1356 
Q 2931 1769 2642 2001 
Q 2353 2234 1838 2234 
L 1294 2234 
L 1294 2753 
L 1863 2753 
Q 2328 2753 2575 2939 
Q 2822 3125 2822 3475 
Q 2822 3834 2567 4026 
Q 2313 4219 1838 4219 
Q 1578 4219 1281 4162 
Q 984 4106 628 3988 
L 628 4550 
Q 988 4650 1302 4700 
Q 1616 4750 1894 4750 
Q 2613 4750 3031 4423 
Q 3450 4097 3450 3541 
Q 3450 3153 3228 2886 
Q 3006 2619 2597 2516 
z
" transform="scale(0.015625)"/>
       </defs>
       <use xlink:href="#DejaVuSans-32"/>
       <use xlink:href="#DejaVuSans-30" transform="translate(63.623047 0)"/>
       <use xlink:href="#DejaVuSans-32" transform="translate(127.246094 0)"/>
       <use xlink:href="#DejaVuSans-33" transform="translate(190.869141 0)"/>
      </g>
     </g>
    </g>
    <g id="xtick_5">
     <g id="line2d_5">
      <g>
       <use xlink:href="#m8187288a95" x="763.578086" y="224.28" style="stroke: #000000; stroke-width: 0.8"/>
      </g>
     </g>
     <g id="text_5">
      <!-- 2024 -->
      <g transform="translate(750.853086 238.878438) scale(0.1 -0.1)">
       <defs>
        <path id="DejaVuSans-34" d="M 2419 4116 
L 825 1625 
L 2419 1625 
L 2419 4116 
z
M 2253 4666 
L 3047 4666 
L 3047 1625 
L 3713 1625 
L 3713 1100 
L 3047 1100 
L 3047 0 
L 2419 0 
L 2419 1100 
L 313 1100 
L 313 1709 
L 2253 4666 
z
" transform="scale(0.015625)"/>
       </defs>
       <use xlink:href="#DejaVuSans-32"/>
       <use xlink:href="#DejaVuSans-30" transform="translate(63.623047 0)"/>
       <use xlink:href="#DejaVuSans-32" transform="translate(127.246094 0)"/>
       <use xlink:href="#DejaVuSans-34" transform="translate(190.869141 0)"/>
      </g>
     </g>
    </g>
    <g id="xtick_6">
     <g id="line2d_6">
      <g>
       <use xlink:href="#m8187288a95" x="910.153206" y="224.28" style="stroke: #000000; stroke-width: 0.8"/>
      </g>
     </g>
     <g id="text_6">
      <!-- 2025 -->
      <g transform="translate(897.428206 238.878438) scale(0.1 -0.1)">
       <defs>
        <path id="DejaVuSans-35" d="M 691 4666 
L 3169 4666 
L 3169 4134 
L 1269 4134 
L 1269 2991 
Q 1406 3038 1543 3061 
Q 1681 3084 1819 3084 
Q 2600 3084 3056 2656 
Q 3513 2228 3513 1497 
Q 3513 744 3044 326 
Q 2575 -91 1722 -91 
Q 1428 -91 1123 -41 
Q 819 9 494 109 
L 494 744 
Q 775 591 1075 516 
Q 1375 441 1709 441 
Q 2250 441 2565 725 
Q 2881 1009 2881 1497 
Q 2881 1984 2565 2268 
Q 2250 2553 1709 2553 
Q 1456 2553 1204 2497 
Q 953 2441 691 2322 
L 691 4666 
z
" transform="scale(0.015625)"/>
       </defs>
       <use xlink:href="#DejaVuSans-32"/>
       <use xlink:href="#DejaVuSans-30" transform="translate(63.623047 0)"/>
       <use xlink:href="#DejaVuSans-32" transform="translate(127.246094 0)"/>
       <use xlink:href="#DejaVuSans-35" transform="translate(190.869141 0)"/>
      </g>
     </g>
    </g>
   </g>
   <g id="matplotlib.axis_2">
    <g id="ytick_1">
     <g id="line2d_7">
      <defs>
       <path id="me1576767c8" d="M 0 0 
L -3.5 0 
" style="stroke: #000000; stroke-width: 0.8"/>
      </defs>
      <g>
       <use xlink:href="#me1576767c8" x="145.8" y="221.493842" style="stroke: #000000; stroke-width: 0.8"/>
      </g>
     </g>
     <g id="text_7">
      <!-- 0 -->
      <g transform="translate(132.4375 225.293061) scale(0.1 -0.1)">
       <use xlink:href="#DejaVuSans-30"/>
      </g>
     </g>
    </g>
    <g id="ytick_2">
     <g id="line2d_8">
      <g>
       <use xlink:href="#me1576767c8" x="145.8" y="183.551182" style="stroke: #000000; stroke-width: 0.8"/>
      </g>
     </g>
     <g id="text_8">
      <!-- 20 -->
      <g transform="translate(126.075 187.350401) scale(0.1 -0.1)">
       <use xlink:href="#DejaVuSans-32"/>
       <use xlink:href="#DejaVuSans-30" transform="translate(63.623047 0)"/>
      </g>
     </g>
    </g>
    <g id="ytick_3">
     <g id="line2d_9">
      <g>
       <use xlink:href="#me1576767c8" x="145.8" y="145.608522" style="stroke: #000000; stroke-width: 0.8"/>
      </g>
     </g>
     <g id="text_9">
      <!-- 40 -->
      <g transform="translate(126.075 149.407741) scale(0.1 -0.1)">
       <use xlink:href="#DejaVuSans-34"/>
       <use xlink:href="#DejaVuSans-30" transform="translate(63.623047 0)"/>
      </g>
     </g>
    </g>
    <g id="ytick_4">
     <g id="line2d_10">
      <g>
       <use xlink:href="#me1576767c8" x="145.8" y="107.665862" style="stroke: #000000; stroke-width: 0.8"/>
      </g>
     </g>
     <g id="text_10">
      <!-- 60 -->
      <g transform="translate(126.075 111.465081) scale(0.1 -0.1)">
       <defs>
        <path id="DejaVuSans-36" d="M 2113 2584 
Q 1688 2584 1439 2293 
Q 1191 2003 1191 1497 
Q 1191 994 1439 701 
Q 1688 409 2113 409 
Q 2538 409 2786 701 
Q 3034 994 3034 1497 
Q 3034 2003 2786 2293 
Q 2538 2584 2113 2584 
z
M 3366 4563 
L 3366 3988 
Q 3128 4100 2886 4159 
Q 2644 4219 2406 4219 
Q 1781 4219 1451 3797 
Q 1122 3375 1075 2522 
Q 1259 2794 1537 2939 
Q 1816 3084 2150 3084 
Q 2853 3084 3261 2657 
Q 3669 2231 3669 1497 
Q 3669 778 3244 343 
Q 2819 -91 2113 -91 
Q 1303 -91 875 529 
Q 447 1150 447 2328 
Q 447 3434 972 4092 
Q 1497 4750 2381 4750 
Q 2619 4750 2861 4703 
Q 3103 4656 3366 4563 
z
" transform="scale(0.015625)"/>
       </defs>
       <use xlink:href="#DejaVuSans-36"/>
       <use xlink:href="#DejaVuSans-30" transform="translate(63.623047 0)"/>
      </g>
     </g>
    </g>
    <g id="ytick_5">
     <g id="line2d_11">
      <g>
       <use xlink:href="#me1576767c8" x="145.8" y="69.723202" style="stroke: #000000; stroke-width: 0.8"/>
      </g>
     </g>
     <g id="text_11">
      <!-- 80 -->
      <g transform="translate(126.075 73.522421) scale(0.1 -0.1)">
       <defs>
        <path id="DejaVuSans-38" d="M 2034 2216 
Q 1584 2216 1326 1975 
Q 1069 1734 1069 1313 
Q 1069 891 1326 650 
Q 1584 409 2034 409 
Q 2484 409 2743 651 
Q 3003 894 3003 1313 
Q 3003 1734 2745 1975 
Q 2488 2216 2034 2216 
z
M 1403 2484 
Q 997 2584 770 2862 
Q 544 3141 544 3541 
Q 544 4100 942 4425 
Q 1341 4750 2034 4750 
Q 2731 4750 3128 4425 
Q 3525 4100 3525 3541 
Q 3525 3141 3298 2862 
Q 3072 2584 2669 2484 
Q 3125 2378 3379 2068 
Q 3634 1759 3634 1313 
Q 3634 634 3220 271 
Q 2806 -91 2034 -91 
Q 1263 -91 848 271 
Q 434 634 434 1313 
Q 434 1759 690 2068 
Q 947 2378 1403 2484 
z
M 1172 3481 
Q 1172 3119 1398 2916 
Q 1625 2713 2034 2713 
Q 2441 2713 2670 2916 
Q 2900 3119 2900 3481 
Q 2900 3844 2670 4047 
Q 2441 4250 2034 4250 
Q 1625 4250 1398 4047 
Q 1172 3844 1172 3481 
z
" transform="scale(0.015625)"/>
       </defs>
       <use xlink:href="#DejaVuSans-38"/>
       <use xlink:href="#DejaVuSans-30" transform="translate(63.623047 0)"/>
      </g>
     </g>
    </g>
    <g id="ytick_6">
     <g id="line2d_12">
      <g>
       <use xlink:href="#me1576767c8" x="145.8" y="31.780542" style="stroke: #000000; stroke-width: 0.8"/>
      </g>
     </g>
     <g id="text_12">
      <!-- 100 -->
      <g transform="translate(119.7125 35.579761) scale(0.1 -0.1)">
       <use xlink:href="#DejaVuSans-31"/>
       <use xlink:href="#DejaVuSans-30" transform="translate(63.623047 0)"/>
       <use xlink:href="#DejaVuSans-30" transform="translate(127.246094 0)"/>
      </g>
     </g>
    </g>
   </g>
   <g id="line2d_13">
    <path d="M 186.889091 87.046935 
L 187.289569 85.085129 
L 187.690048 78.447381 
L 188.891483 108.588854 
L 189.291962 93.603284 
L 189.69244 91.606316 
L 190.092919 100.306775 
L 190.493397 127.83451 
L 191.694833 139.940686 
L 192.095311 117.645408 
L 192.495789 112.183146 
L 192.896268 112.353434 
L 193.296746 123.727254 
L 194.498182 118.445516 
L 194.89866 122.877023 
L 195.299139 115.333173 
L 195.699617 117.341928 
L 196.100096 102.361069 
L 197.70201 123.512723 
L 198.102488 126.562152 
L 198.502967 130.828077 
L 198.903445 119.447132 
L 200.10488 139.775186 
L 200.505359 167.122679 
L 200.905837 163.423452 
L 201.306316 181.725122 
L 201.706794 179.699292 
L 202.90823 146.728933 
L 203.308708 151.641197 
L 203.709187 145.853688 
L 204.109665 150.271915 
L 204.510144 152.441992 
L 205.711579 160.281341 
L 206.112057 148.845827 
L 206.512536 151.660574 
L 206.913014 158.991492 
L 207.313493 135.992758 
L 208.514928 145.508157 
L 208.915407 142.586251 
L 209.315885 138.022014 
L 209.716364 138.66257 
L 210.116842 157.255542 
L 211.318278 155.848413 
L 211.718756 150.722133 
L 212.119234 147.891788 
L 212.519713 139.79249 
L 212.920191 135.025492 
L 214.121627 141.389258 
L 214.522105 137.365143 
L 214.922584 130.648458 
L 215.323062 147.902373 
L 215.723541 127.296272 
L 217.325455 116.748601 
L 217.725933 110.754402 
L 218.126411 94.260777 
L 219.728325 85.936905 
L 220.128804 90.420282 
L 220.529282 91.971359 
L 220.929761 98.668306 
L 221.330239 89.270116 
L 222.531675 102.739332 
L 222.932153 112.70175 
L 223.332632 89.62646 
L 223.73311 93.909306 
L 224.133589 83.627875 
L 225.335024 98.903832 
L 225.735502 101.53001 
L 226.135981 99.191385 
L 226.536459 95.650623 
L 226.936938 107.516011 
L 228.138373 118.209426 
L 228.538852 108.983625 
L 228.93933 108.107235 
L 229.339809 98.494771 
L 229.740287 81.754221 
L 230.941722 60.651948 
L 231.342201 73.181173 
L 232.143158 83.882613 
L 232.543636 88.093249 
L 233.745072 72.404721 
L 234.14555 83.543554 
L 234.546029 83.51089 
L 234.946507 77.683137 
L 235.346986 79.439118 
L 237.349378 91.508299 
L 237.749856 95.318134 
L 238.150335 107.896315 
L 239.35177 109.811042 
L 240.152727 78.562086 
L 240.553206 92.372887 
L 240.953684 73.825588 
L 242.15512 79.76612 
L 242.555598 63.227822 
L 242.956077 61.453316 
L 243.356555 98.166528 
L 243.757033 97.279175 
L 244.958469 89.100198 
L 245.358947 83.133862 
L 245.759426 84.141238 
L 246.159904 83.469181 
L 246.560383 90.097018 
L 247.761818 84.513993 
L 248.162297 80.903778 
L 248.562775 86.665018 
L 248.963254 89.500726 
L 249.363732 106.371681 
L 250.565167 108.300687 
L 250.965646 113.476034 
L 251.366124 88.382517 
L 251.766603 90.830551 
L 253.368517 86.316482 
L 253.768995 96.406661 
L 254.169474 87.866511 
L 254.569952 86.735041 
L 254.970431 82.52147 
L 256.171866 93.341958 
L 256.572344 94.624968 
L 256.972823 78.28381 
L 257.373301 93.336315 
L 257.77378 66.656116 
L 258.975215 66.677045 
L 259.375694 84.70357 
L 259.776172 81.827806 
L 260.176651 116.868018 
L 260.577129 131.842899 
L 261.778565 117.683247 
L 262.179043 138.483517 
L 262.579522 130.368689 
L 262.98 125.295855 
L 263.380478 91.02765 
L 264.581914 88.847124 
L 264.982392 88.732562 
L 265.783349 75.686409 
L 266.183828 89.71064 
L 267.385263 81.582446 
L 267.785742 94.782589 
L 268.18622 72.727937 
L 268.586699 69.637163 
L 268.987177 72.415548 
L 270.188612 66.946796 
L 270.989569 68.937252 
L 271.390048 80.111841 
L 271.790526 74.26894 
L 272.991962 73.15617 
L 273.39244 78.864828 
L 273.792919 82.511977 
L 274.193397 76.886657 
L 274.593876 80.958015 
L 275.795311 54.796406 
L 276.195789 53.535406 
L 276.596268 71.604014 
L 276.996746 111.985843 
L 277.397225 110.964529 
L 278.999139 132.338021 
L 279.399617 123.577268 
L 279.800096 135.493579 
L 280.200574 151.792566 
L 281.40201 147.160859 
L 281.802488 145.114921 
L 282.202967 154.285889 
L 282.603445 154.661483 
L 283.003923 158.823303 
L 284.205359 161.249956 
L 284.605837 170.34359 
L 285.006316 172.279666 
L 285.406794 155.898528 
L 285.807273 144.925811 
L 287.008708 121.505862 
L 287.409187 135.164557 
L 287.809665 120.130164 
L 288.210144 112.996779 
L 288.610622 133.219761 
L 289.812057 124.177425 
L 290.212536 123.992975 
L 291.013493 103.746565 
L 291.413971 106.496553 
L 292.615407 95.333251 
L 293.015885 90.562724 
L 293.416364 92.223461 
L 293.816842 101.780397 
L 294.217321 114.285835 
L 295.418756 121.261488 
L 295.819234 121.77417 
L 296.219713 126.405945 
L 296.620191 118.053823 
L 297.02067 131.691539 
L 298.222105 119.188945 
L 298.622584 120.55365 
L 299.023062 138.972845 
L 299.423541 131.668203 
L 299.824019 175.544675 
L 301.025455 170.067719 
L 301.425933 162.40378 
L 302.22689 126.610056 
L 302.627368 118.003807 
L 303.828804 129.492302 
L 304.229282 128.675059 
L 304.629761 115.93811 
L 305.030239 114.626083 
L 305.430718 114.530145 
L 306.632153 115.763735 
L 307.032632 99.731234 
L 307.43311 116.340842 
L 307.833589 81.522349 
L 309.435502 112.402035 
L 309.835981 124.731746 
L 310.236459 141.705344 
L 311.037416 137.691592 
L 312.238852 112.337948 
L 312.63933 96.759238 
L 313.039809 107.998089 
L 313.440287 107.121782 
L 313.840766 111.526828 
L 315.042201 109.6192 
L 315.442679 101.659032 
L 315.843158 109.018964 
L 316.644115 103.257468 
L 317.84555 84.163352 
L 318.246029 73.02997 
L 318.646507 75.143672 
L 319.046986 74.494131 
L 319.447464 93.233226 
L 320.6489 99.847905 
L 321.049378 90.025829 
L 321.449856 94.374622 
L 321.850335 88.059452 
L 323.452249 81.377422 
L 323.852727 91.488878 
L 324.253206 84.470576 
L 324.653684 92.72118 
L 326.255598 103.645589 
L 326.656077 97.306319 
L 327.056555 130.948944 
L 327.457033 117.534945 
L 327.857512 116.904507 
L 329.058947 120.103198 
L 329.859904 129.693045 
L 330.260383 132.754112 
L 330.660861 140.712699 
L 332.262775 156.105095 
L 333.063732 117.999064 
L 333.464211 109.713855 
L 334.665646 91.363064 
L 335.066124 93.680292 
L 335.466603 80.317611 
L 335.867081 108.523254 
L 336.26756 126.872422 
L 337.468995 112.818494 
L 337.869474 110.36785 
L 338.269952 118.383073 
L 338.670431 104.611403 
L 339.070909 100.144266 
L 340.272344 101.209603 
L 340.672823 113.974786 
L 341.073301 131.106421 
L 341.47378 140.719726 
L 341.874258 158.95096 
L 343.476172 166.056492 
L 343.876651 168.862383 
L 344.277129 159.209192 
L 344.677608 137.906836 
L 345.879043 169.363479 
L 346.279522 176.697151 
L 346.68 175.224563 
L 347.080478 215.46 
L 347.480957 212.417136 
L 348.682392 163.418383 
L 349.883828 175.033376 
L 350.284306 170.093815 
L 351.485742 174.535169 
L 351.88622 152.536137 
L 352.286699 152.497572 
L 353.087656 140.274319 
L 354.289091 131.381311 
L 354.689569 126.09462 
L 355.090048 116.393433 
L 355.490526 128.418613 
L 355.891005 149.139646 
L 357.492919 125.187159 
L 357.893397 126.756007 
L 358.293876 129.166236 
L 358.694354 109.400198 
L 359.895789 125.351904 
L 360.296268 126.974143 
L 360.696746 125.846477 
L 361.097225 118.408745 
L 362.699139 118.638212 
L 363.099617 123.797637 
L 363.500096 113.256657 
L 363.900574 81.130067 
L 364.301053 72.007421 
L 365.502488 91.09432 
L 365.902967 78.211153 
L 366.303445 77.902903 
L 366.703923 74.29868 
L 367.104402 77.363706 
L 368.305837 76.46744 
L 368.706316 77.823409 
L 369.106794 81.420191 
L 369.507273 92.052536 
L 369.907751 93.358373 
L 371.109187 93.128372 
L 371.509665 99.553102 
L 372.310622 124.181417 
L 372.7111 125.527071 
L 373.912536 137.378887 
L 374.313014 147.527542 
L 374.713493 162.859356 
L 375.113971 149.852318 
L 375.51445 149.779475 
L 376.715885 155.731971 
L 377.516842 165.552426 
L 377.917321 166.640683 
L 378.317799 154.80663 
L 379.519234 157.116044 
L 379.919713 158.679481 
L 380.320191 158.82922 
L 380.72067 141.054905 
L 381.121148 151.154429 
L 382.322584 128.777883 
L 382.723062 130.591179 
L 383.524019 147.085102 
L 383.924498 137.166368 
L 385.526411 134.537824 
L 385.92689 114.015395 
L 386.327368 134.843145 
L 386.727847 135.660101 
L 387.929282 128.941718 
L 388.329761 114.39982 
L 388.730239 111.082727 
L 389.130718 135.208657 
L 389.531196 112.228494 
L 390.732632 103.898524 
L 391.13311 109.004187 
L 391.533589 106.043097 
L 391.934067 86.197008 
L 392.334545 91.802256 
L 393.936459 80.501481 
L 394.336938 70.277593 
L 394.737416 79.208842 
L 395.137895 82.024092 
L 396.33933 79.443388 
L 396.739809 76.251302 
L 397.140287 65.845663 
L 397.540766 67.825715 
L 397.941244 68.844999 
L 399.943636 53.957349 
L 400.344115 67.960444 
L 400.744593 53.690059 
L 401.946029 61.696343 
L 402.346507 62.631086 
L 402.746986 55.182755 
L 403.147464 58.207596 
L 403.547943 71.095131 
L 404.749378 97.476844 
L 405.149856 92.26472 
L 405.550335 97.225396 
L 405.950813 94.705571 
L 406.351292 96.842954 
L 407.552727 100.961462 
L 407.953206 118.427622 
L 408.353684 120.259588 
L 408.754163 124.599143 
L 409.154641 121.323812 
L 410.356077 127.122077 
L 410.756555 134.422295 
L 411.157033 133.371853 
L 411.557512 123.389566 
L 411.95799 103.932568 
L 413.159426 125.449124 
L 413.559904 123.44428 
L 413.960383 132.703019 
L 414.360861 122.459177 
L 414.76134 124.0737 
L 416.363254 80.93893 
L 416.763732 120.474458 
L 417.164211 119.741456 
L 417.564689 109.197199 
L 418.766124 110.793292 
L 419.166603 108.447043 
L 419.567081 117.748178 
L 419.96756 118.509983 
L 420.368038 112.914059 
L 421.569474 93.273082 
L 422.370431 109.519541 
L 422.770909 106.075305 
L 423.171388 111.262941 
L 424.773301 97.3884 
L 425.17378 82.558986 
L 425.574258 90.841604 
L 425.974737 123.439877 
L 427.176172 127.320752 
L 427.576651 132.681646 
L 427.977129 123.896505 
L 428.377608 121.393109 
L 428.778086 136.560479 
L 429.979522 168.841439 
L 430.38 162.723642 
L 430.780478 153.158661 
L 431.180957 153.979369 
L 431.581435 156.941874 
L 432.782871 174.875027 
L 433.183349 178.505666 
L 434.384785 158.073999 
L 435.58622 163.834283 
L 436.387177 152.808455 
L 437.188134 126.822943 
L 438.389569 129.571878 
L 438.790048 148.396231 
L 439.190526 156.926021 
L 439.591005 140.710046 
L 439.991483 129.050752 
L 441.192919 103.569247 
L 441.593397 99.023073 
L 441.993876 88.966244 
L 442.394354 91.823951 
L 442.794833 69.627254 
L 443.996268 75.50835 
L 444.396746 76.175551 
L 444.797225 85.879193 
L 445.197703 70.259164 
L 445.598182 91.647891 
L 446.799617 88.417514 
L 447.200096 81.036135 
L 447.600574 84.904608 
L 448.001053 92.528931 
L 448.401531 97.010037 
L 449.602967 114.195031 
L 450.003445 114.938684 
L 450.403923 134.125304 
L 450.804402 130.156097 
L 451.20488 118.531346 
L 452.406316 121.817092 
L 452.806794 114.297733 
L 453.207273 120.252345 
L 453.607751 84.332379 
L 454.00823 71.804514 
L 455.209665 72.991766 
L 455.610144 75.359875 
L 456.010622 70.006161 
L 456.811579 104.172128 
L 458.013014 90.800753 
L 458.413493 81.763603 
L 458.813971 70.09862 
L 459.21445 75.07125 
L 459.614928 87.916831 
L 460.816364 81.923204 
L 461.216842 75.400359 
L 461.617321 73.813908 
L 462.017799 81.28759 
L 462.418278 78.340073 
L 464.020191 97.020304 
L 464.42067 90.698554 
L 464.821148 95.932602 
L 465.221627 103.873312 
L 466.423062 116.526714 
L 467.624498 96.076594 
L 469.226411 95.269144 
L 469.62689 107.675309 
L 470.027368 115.541334 
L 470.427847 117.410025 
L 470.828325 132.015036 
L 472.029761 109.087783 
L 472.430239 111.995828 
L 472.830718 138.645063 
L 473.231196 127.446311 
L 473.631675 123.328543 
L 474.83311 118.418133 
L 475.233589 119.508491 
L 475.634067 127.044578 
L 476.435024 154.030061 
L 478.036938 159.526568 
L 478.437416 167.070552 
L 478.837895 168.006713 
L 479.238373 170.399448 
L 480.439809 192.851828 
L 480.840287 192.383388 
L 481.240766 186.706543 
L 481.641244 182.760798 
L 482.041722 132.000982 
L 483.243158 119.991831 
L 483.643636 127.938863 
L 484.044115 125.797794 
L 484.444593 124.692424 
L 484.845072 127.919992 
L 486.046507 120.377803 
L 486.446986 99.731807 
L 486.847464 89.741159 
L 487.648421 107.358128 
L 488.849856 100.646498 
L 489.250335 93.230729 
L 489.650813 92.446877 
L 490.051292 130.521265 
L 490.45177 151.896715 
L 492.053684 158.402223 
L 492.454163 171.207627 
L 492.854641 155.365897 
L 493.25512 147.284393 
L 494.456555 144.787073 
L 494.857033 160.137981 
L 495.65799 144.654127 
L 496.058469 143.599162 
L 497.259904 153.192669 
L 497.660383 171.898135 
L 498.060861 150.959498 
L 498.46134 152.36276 
L 498.861818 156.143581 
L 500.063254 157.921265 
L 500.463732 137.949174 
L 500.864211 133.492034 
L 501.264689 136.076091 
L 501.665167 129.008703 
L 502.866603 122.050093 
L 503.267081 121.890141 
L 503.66756 118.46909 
L 504.468517 93.242366 
L 505.669952 86.408457 
L 506.070431 89.296225 
L 506.470909 77.853168 
L 506.871388 75.394117 
L 507.271866 58.521317 
L 508.473301 58.799749 
L 508.87378 80.096456 
L 509.274258 95.112146 
L 509.674737 101.408144 
L 510.075215 112.377022 
L 511.276651 135.672527 
L 511.677129 134.022875 
L 512.077608 137.643274 
L 512.478086 151.422391 
L 514.08 154.829157 
L 514.480478 158.513475 
L 514.880957 156.588922 
L 515.281435 151.673475 
L 515.681914 160.22315 
L 517.283828 176.097121 
L 517.684306 171.84375 
L 518.084785 147.428421 
L 518.485263 154.259352 
L 519.686699 145.736006 
L 520.087177 146.89648 
L 520.487656 136.505879 
L 520.888134 144.115063 
L 521.288612 141.9707 
L 522.490048 155.512478 
L 522.890526 149.451903 
L 523.291005 158.234839 
L 523.691483 157.494646 
L 524.091962 150.458189 
L 525.293397 144.882459 
L 525.693876 137.711997 
L 526.094354 161.085823 
L 526.494833 158.543307 
L 526.895311 158.691346 
L 528.096746 150.704583 
L 528.497225 166.942514 
L 528.897703 156.586107 
L 529.298182 150.680906 
L 529.69866 130.896099 
L 531.300574 136.930677 
L 532.101531 107.524498 
L 532.50201 130.349084 
L 533.703445 125.325804 
L 534.103923 127.826587 
L 534.504402 107.062665 
L 534.90488 112.870618 
L 535.305359 127.682969 
L 536.506794 152.336629 
L 537.307751 138.108396 
L 538.108708 169.684641 
L 539.710622 155.017594 
L 540.1111 155.61032 
L 540.511579 154.432494 
L 540.912057 135.095159 
L 542.113493 137.012158 
L 542.513971 151.725998 
L 543.314928 140.387309 
L 543.715407 122.089022 
L 545.317321 100.342509 
L 545.717799 99.41272 
L 546.118278 97.991287 
L 546.518756 75.472483 
L 547.720191 87.366808 
L 548.12067 93.768096 
L 548.521148 93.099879 
L 548.921627 92.971985 
L 549.322105 96.794967 
L 550.523541 109.6164 
L 550.924019 83.56091 
L 551.324498 83.130903 
L 551.724976 67.553641 
L 552.125455 76.981416 
L 553.32689 87.306182 
L 553.727368 96.653378 
L 554.127847 92.745914 
L 554.528325 93.018243 
L 554.928804 74.477852 
L 556.130239 80.376489 
L 556.530718 85.176769 
L 556.931196 80.565508 
L 557.331675 84.225644 
L 557.732153 71.958082 
L 558.933589 79.975137 
L 559.334067 83.570947 
L 559.734545 79.931382 
L 560.135024 77.374237 
L 560.535502 66.637452 
L 561.736938 58.507468 
L 562.137416 65.006013 
L 562.537895 63.7918 
L 563.338852 84.737988 
L 564.540287 97.826149 
L 564.940766 120.279176 
L 565.341244 117.309361 
L 565.741722 106.549997 
L 566.142201 130.86722 
L 567.343636 137.748679 
L 567.744115 161.176072 
L 568.144593 163.110533 
L 568.545072 177.365855 
L 568.94555 186.586331 
L 570.547464 187.952309 
L 570.947943 188.445254 
L 571.348421 189.672145 
L 571.7489 171.512445 
L 572.950335 138.901771 
L 573.350813 157.413423 
L 573.751292 153.949909 
L 574.15177 165.703707 
L 574.552249 158.770135 
L 575.753684 143.132058 
L 576.154163 131.448282 
L 576.95512 138.609083 
L 577.355598 138.928369 
L 578.557033 135.426291 
L 579.35799 137.442009 
L 580.158947 181.997891 
L 581.760861 148.439799 
L 582.16134 141.766683 
L 582.561818 140.247179 
L 582.962297 162.285994 
L 584.163732 169.820562 
L 584.564211 167.211465 
L 584.964689 166.670524 
L 585.365167 145.993673 
L 585.765646 155.492507 
L 586.967081 146.900107 
L 587.36756 140.012401 
L 587.768038 122.994922 
L 588.168517 111.314903 
L 588.568995 112.241408 
L 589.770431 116.146286 
L 590.170909 109.500642 
L 590.571388 115.982875 
L 590.971866 113.539057 
L 591.372344 94.141576 
L 592.57378 96.817942 
L 592.974258 102.172876 
L 593.374737 122.663731 
L 593.775215 125.693152 
L 594.175694 134.393029 
L 595.377129 136.188125 
L 595.777608 135.122638 
L 596.178086 142.276235 
L 596.578565 126.890977 
L 596.979043 125.837562 
L 598.180478 132.913126 
L 598.981435 119.071807 
L 599.381914 136.893663 
L 599.782392 130.672752 
L 600.983828 131.933884 
L 601.784785 92.108683 
L 602.585742 101.563844 
L 603.787177 114.118832 
L 604.187656 122.921193 
L 604.588134 98.810226 
L 604.988612 122.515451 
L 605.389091 132.456084 
L 606.590526 131.756922 
L 606.991005 147.428069 
L 607.391483 149.031845 
L 607.791962 149.812845 
L 608.19244 152.9208 
L 609.393876 137.071392 
L 609.794354 141.138239 
L 610.595311 157.288127 
L 610.995789 153.703304 
L 612.197225 151.840871 
L 612.597703 183.30632 
L 612.998182 168.413017 
L 613.39866 172.936243 
L 613.799139 171.671966 
L 615.401053 168.449391 
L 615.801531 171.879311 
L 616.20201 164.006627 
L 616.602488 161.866389 
L 618.204402 178.586368 
L 619.005359 176.147689 
L 619.405837 146.570435 
L 620.607273 139.858884 
L 621.40823 123.154304 
L 621.808708 133.232482 
L 622.209187 117.900839 
L 623.8111 112.951984 
L 624.211579 108.559196 
L 624.612057 88.980127 
L 625.012536 91.470461 
L 626.213971 84.553935 
L 626.61445 50.525191 
L 627.014928 57.087573 
L 627.415407 44.601315 
L 627.815885 46.351103 
L 629.017321 70.388519 
L 629.417799 69.163676 
L 629.818278 72.080923 
L 630.218756 63.290367 
L 630.619234 60.705137 
L 631.82067 76.694505 
L 632.221148 69.334201 
L 632.621627 81.318363 
L 633.022105 89.606073 
L 633.422584 95.058762 
L 634.624019 92.229331 
L 635.424976 92.089308 
L 635.825455 102.518995 
L 636.225933 95.448258 
L 637.827847 113.762082 
L 638.228325 115.588891 
L 638.628804 130.835304 
L 639.029282 154.29897 
L 640.230718 140.578353 
L 640.631196 156.913979 
L 641.031675 155.018084 
L 641.432153 148.13578 
L 641.832632 126.563055 
L 643.034067 126.711388 
L 643.434545 132.225172 
L 643.835024 135.509627 
L 644.235502 137.614621 
L 644.635981 140.411623 
L 646.237895 113.934446 
L 646.638373 114.204205 
L 647.038852 95.178764 
L 647.43933 101.946331 
L 648.640766 94.061677 
L 649.041244 80.736583 
L 649.842201 97.478816 
L 650.242679 101.493376 
L 651.444115 100.191195 
L 651.844593 107.193909 
L 652.64555 71.070171 
L 653.046029 70.14583 
L 654.247464 71.540667 
L 654.647943 75.659543 
L 655.048421 93.334163 
L 655.4489 86.056276 
L 657.050813 107.383002 
L 657.451292 120.130607 
L 657.85177 116.580003 
L 658.252249 102.232827 
L 658.652727 107.665862 
L 659.854163 97.785808 
L 660.254641 90.974975 
L 660.65512 96.371268 
L 661.055598 107.157282 
L 661.456077 126.067467 
L 662.657512 130.826321 
L 663.05799 135.44128 
L 663.458469 126.637192 
L 664.259426 91.359962 
L 665.460861 83.724902 
L 665.86134 86.162759 
L 666.261818 115.00337 
L 666.662297 123.34676 
L 667.062775 94.320964 
L 668.264211 98.029679 
L 668.664689 110.192219 
L 669.465646 91.020185 
L 669.866124 96.931635 
L 671.06756 91.150009 
L 671.468038 91.092803 
L 671.868517 103.816231 
L 672.268995 99.853893 
L 672.669474 98.926611 
L 673.870909 98.377834 
L 674.271388 107.332587 
L 674.671866 96.788345 
L 675.072344 129.057155 
L 675.472823 113.532625 
L 677.074737 92.116142 
L 677.475215 100.218563 
L 678.276172 78.981922 
L 679.878086 88.84296 
L 680.278565 100.60096 
L 680.679043 99.194368 
L 681.079522 98.219409 
L 682.280957 83.788713 
L 682.681435 68.190978 
L 683.081914 67.516379 
L 683.482392 65.917642 
L 683.882871 79.233683 
L 685.484785 84.141796 
L 685.885263 91.684193 
L 686.285742 91.033394 
L 686.68622 96.221154 
L 687.887656 96.500992 
L 688.688612 72.77651 
L 689.089091 78.352123 
L 689.489569 69.792854 
L 690.691005 86.302914 
L 691.491962 90.479718 
L 691.89244 90.929564 
L 692.292919 104.43251 
L 693.494354 109.913792 
L 693.894833 113.010105 
L 694.295311 101.597851 
L 694.695789 109.626399 
L 695.096268 107.200607 
L 696.297703 88.093385 
L 696.698182 98.225232 
L 697.09866 97.599289 
L 697.499139 110.446491 
L 697.899617 137.609222 
L 699.101053 125.004879 
L 699.501531 113.543669 
L 699.90201 111.618705 
L 700.302488 112.580282 
L 700.702967 87.900323 
L 701.904402 81.957864 
L 702.30488 93.896887 
L 702.705359 116.54816 
L 703.105837 124.409573 
L 703.506316 169.88494 
L 705.10823 177.064987 
L 705.508708 176.502214 
L 705.909187 174.912325 
L 706.309665 178.93225 
L 707.5111 174.639873 
L 707.911579 182.323386 
L 708.312057 181.770182 
L 708.712536 199.277458 
L 709.113014 200.049061 
L 710.31445 191.460535 
L 710.714928 179.834224 
L 711.115407 158.241985 
L 711.515885 147.02283 
L 711.916364 126.632635 
L 713.117799 124.20698 
L 713.518278 104.967493 
L 713.918756 95.602391 
L 714.319234 95.267339 
L 714.719713 95.434408 
L 716.321627 86.050693 
L 716.722105 109.22581 
L 717.122584 117.588711 
L 717.523062 117.290847 
L 718.724498 117.680779 
L 719.124976 128.90209 
L 719.525455 144.28079 
L 719.925933 128.425835 
L 720.326411 137.163814 
L 721.527847 132.863841 
L 721.928325 142.09454 
L 722.328804 163.797365 
L 723.129761 170.603876 
L 724.331196 166.14621 
L 724.731675 161.225104 
L 725.132153 152.441275 
L 725.532632 154.121791 
L 725.93311 157.327144 
L 727.134545 136.442051 
L 727.535024 133.811967 
L 727.935502 134.976307 
L 728.335981 127.029362 
L 728.736459 128.550257 
L 729.937895 126.950766 
L 730.738852 100.210604 
L 731.13933 100.048602 
L 731.539809 114.523114 
L 732.741244 90.409656 
L 733.141722 90.705221 
L 733.542201 100.63881 
L 733.942679 105.021051 
L 734.343158 131.052559 
L 735.544593 123.377455 
L 735.945072 127.891208 
L 736.34555 147.021027 
L 736.746029 178.57294 
L 737.146507 179.873449 
L 738.347943 163.826992 
L 738.748421 170.050934 
L 739.1489 155.671396 
L 739.549378 131.747281 
L 739.949856 134.635347 
L 741.151292 118.917969 
L 741.55177 105.502955 
L 741.952249 101.036633 
L 742.753206 82.827968 
L 743.954641 90.793918 
L 744.35512 75.901223 
L 744.755598 52.588126 
L 745.156077 52.308936 
L 745.556555 54.094621 
L 746.75799 53.033991 
L 747.158469 61.356861 
L 747.558947 65.356837 
L 748.359904 68.339004 
L 749.56134 74.534366 
L 749.961818 79.314762 
L 750.362297 90.496451 
L 750.762775 85.036819 
L 751.163254 95.616312 
L 752.364689 97.377566 
L 752.765167 91.964497 
L 753.165646 102.431313 
L 753.566124 101.401028 
L 753.966603 95.869829 
L 755.168038 118.147558 
L 755.968995 98.762839 
L 756.369474 90.623517 
L 756.769952 92.784596 
L 757.971388 103.866664 
L 758.371866 95.267046 
L 758.772344 107.681522 
L 759.172823 112.620672 
L 759.573301 109.096093 
L 761.175215 128.4737 
L 761.575694 122.289857 
L 761.976172 130.582268 
L 762.376651 145.257198 
L 763.978565 161.423991 
L 764.379043 175.22673 
L 764.779522 204.671041 
L 765.18 206.573473 
L 766.381435 174.24384 
L 766.781914 171.617627 
L 767.182392 171.617722 
L 767.582871 168.058497 
L 767.983349 165.575397 
L 769.985742 169.498313 
L 770.38622 141.524445 
L 770.786699 132.7589 
L 771.988134 122.677549 
L 772.388612 93.096384 
L 772.789091 89.626262 
L 773.189569 78.700607 
L 773.590048 84.461988 
L 774.791483 99.529043 
L 775.59244 132.822806 
L 775.992919 122.527068 
L 776.393397 126.858597 
L 777.594833 113.627832 
L 777.995311 105.844083 
L 778.796268 140.284421 
L 779.196746 148.354629 
L 780.79866 165.002197 
L 781.199139 166.358866 
L 781.599617 162.685303 
L 782.000096 164.911562 
L 783.60201 156.525573 
L 784.002488 136.974636 
L 784.402967 139.565067 
L 784.803445 143.534544 
L 786.00488 161.897823 
L 786.405359 163.047244 
L 786.805837 167.817339 
L 787.206316 166.528228 
L 787.606794 175.749002 
L 788.80823 182.096867 
L 789.208708 186.912453 
L 789.609187 187.073671 
L 790.009665 186.823862 
L 790.410144 173.181328 
L 791.611579 160.239505 
L 792.012057 161.702217 
L 792.412536 177.607355 
L 792.813014 163.256676 
L 793.213493 160.846572 
L 794.414928 162.895118 
L 795.215885 134.116526 
L 795.616364 150.766181 
L 796.016842 135.880367 
L 797.218278 123.909872 
L 797.618756 124.445021 
L 798.019234 112.544346 
L 798.419713 124.193301 
L 800.021627 135.677439 
L 800.422105 140.873714 
L 800.822584 131.658181 
L 801.223062 141.366088 
L 801.623541 137.199936 
L 802.824976 144.92824 
L 803.225455 149.853317 
L 803.625933 167.162392 
L 804.026411 112.958408 
L 804.42689 111.088726 
L 805.628325 120.508832 
L 806.028804 127.658503 
L 806.429282 144.354071 
L 806.829761 141.918951 
L 807.230239 143.586794 
L 808.431675 136.873562 
L 808.832153 135.936857 
L 809.232632 125.990576 
L 809.63311 125.638667 
L 810.033589 123.848226 
L 811.235024 115.244842 
L 811.635502 119.344942 
L 812.035981 146.847894 
L 812.436459 138.087656 
L 812.836938 98.193528 
L 814.038373 92.247832 
L 814.438852 85.642707 
L 814.83933 81.094323 
L 815.239809 69.501244 
L 815.640287 76.335036 
L 816.841722 73.574643 
L 817.242201 74.760631 
L 817.642679 73.040121 
L 818.043158 70.402063 
L 818.443636 75.612201 
L 820.04555 50.896711 
L 820.446029 62.748456 
L 820.846507 109.34659 
L 821.246986 89.912075 
L 822.8489 91.763762 
L 823.249378 91.875302 
L 823.649856 94.307129 
L 824.050335 83.306372 
L 825.25177 87.303848 
L 826.052727 92.502155 
L 826.453206 102.664634 
L 826.853684 94.530322 
L 828.05512 118.18379 
L 828.455598 87.705449 
L 828.856077 74.750362 
L 829.256555 57.760454 
L 829.657033 67.864181 
L 830.858469 64.148938 
L 832.059904 88.871146 
L 832.460383 96.151872 
L 833.661818 97.723252 
L 834.062297 96.865549 
L 834.462775 93.372301 
L 834.863254 88.671343 
L 835.263732 100.636419 
L 836.465167 83.90198 
L 836.865646 96.963376 
L 837.266124 105.071949 
L 838.067081 98.588163 
L 839.268517 90.864695 
L 839.668995 96.119471 
L 840.069474 81.468607 
L 840.469952 84.265529 
L 840.870431 73.087234 
L 842.071866 70.076459 
L 842.472344 70.525135 
L 842.872823 93.901272 
L 843.273301 107.17944 
L 843.67378 98.277548 
L 844.875215 109.543556 
L 845.275694 114.660129 
L 846.076651 148.167891 
L 846.477129 151.262994 
L 847.678565 153.115827 
L 848.079043 166.597563 
L 848.479522 143.15361 
L 848.88 162.428691 
L 849.280478 172.733994 
L 850.481914 187.09087 
L 850.882392 183.383468 
L 851.282871 166.60606 
L 852.083828 144.93534 
L 853.285263 143.561771 
L 853.685742 119.140905 
L 854.08622 115.192545 
L 854.486699 109.872248 
L 854.887177 107.858221 
L 856.088612 109.364385 
L 856.489091 114.835178 
L 856.889569 103.545054 
L 857.290048 113.072729 
L 857.690526 62.068692 
L 858.891962 48.372071 
L 859.29244 49.639846 
L 859.692919 65.366844 
L 860.093397 64.774231 
L 860.493876 73.329789 
L 862.496268 130.023523 
L 862.896746 136.329966 
L 863.297225 148.085537 
L 864.49866 147.122232 
L 864.899139 152.759448 
L 865.299617 140.45195 
L 865.700096 133.616535 
L 866.100574 145.452422 
L 867.30201 163.799542 
L 867.702488 165.634679 
L 868.503445 129.160857 
L 868.903923 128.839322 
L 870.105359 114.922588 
L 870.505837 105.26659 
L 870.906316 113.315253 
L 871.306794 103.939352 
L 871.707273 103.47847 
L 872.908708 89.119466 
L 873.309187 117.494072 
L 873.709665 116.436763 
L 874.110144 118.75111 
L 874.510622 96.585914 
L 875.712057 114.314789 
L 876.112536 113.922899 
L 876.513014 124.73952 
L 876.913493 124.245852 
L 877.313971 123.540293 
L 878.515407 116.261752 
L 878.915885 107.706289 
L 879.316364 116.114007 
L 879.716842 115.894933 
L 880.117321 121.387809 
L 881.318756 95.038779 
L 881.719234 98.745235 
L 882.119713 112.790887 
L 882.520191 116.09744 
L 882.92067 95.551199 
L 884.122105 100.385496 
L 885.323541 131.850548 
L 885.724019 153.995471 
L 886.925455 167.566682 
L 887.325933 156.109603 
L 887.726411 159.559498 
L 888.12689 151.166792 
L 888.527368 158.188561 
L 889.728804 162.649931 
L 890.129282 150.589431 
L 890.529761 145.925467 
L 890.930239 136.647917 
L 891.330718 153.22864 
L 892.532153 142.724849 
L 892.932632 131.854298 
L 893.33311 113.985154 
L 894.134067 93.159941 
L 895.335502 89.25163 
L 895.735981 80.696773 
L 896.136459 92.442687 
L 896.937416 84.761396 
L 898.138852 63.344508 
L 898.53933 59.641045 
L 898.939809 60.218952 
L 899.340287 64.102712 
L 899.740766 39.677232 
L 900.942201 39.331866 
L 901.342679 39.06 
L 901.743158 50.077781 
L 902.143636 45.259882 
L 902.544115 46.000357 
L 903.74555 46.060184 
L 904.146029 45.895226 
L 904.546507 80.44115 
L 904.946986 81.663257 
L 905.347464 77.425262 
L 906.5489 81.361385 
L 906.949378 76.968978 
L 907.750335 75.771081 
L 908.150813 90.02128 
L 910.954163 138.248148 
L 912.155598 134.240314 
L 912.556077 148.15235 
L 912.956555 154.288786 
L 913.757512 155.043504 
L 914.958947 164.943318 
L 915.359426 184.902897 
L 915.759904 169.686477 
L 916.160383 189.72066 
L 916.560861 186.625021 
L 918.162775 189.361066 
L 918.563254 183.136982 
L 918.963732 181.795083 
L 919.364211 176.194134 
L 920.565646 153.929734 
L 920.966124 138.547282 
L 921.366603 131.837067 
L 921.767081 135.736464 
L 922.16756 128.282341 
L 923.368995 137.748727 
L 923.769474 127.419246 
L 924.169952 136.129872 
L 924.570431 116.205057 
L 924.970909 131.189171 
L 926.572823 107.855622 
L 927.37378 92.957161 
L 927.774258 97.904036 
L 929.376172 111.749352 
L 929.776651 113.127979 
L 930.177129 106.339336 
L 930.577608 102.418043 
L 931.779043 69.284355 
L 932.179522 76.201493 
L 932.58 103.650992 
L 932.980478 115.187664 
L 933.380957 87.313044 
L 934.582392 101.009608 
L 935.783828 148.227183 
L 936.184306 145.431789 
L 938.587177 187.910515 
L 938.987656 181.804711 
L 940.189091 180.450105 
L 940.589569 176.281296 
L 940.990048 166.601625 
L 941.390526 180.38154 
L 941.791005 164.641414 
L 942.99244 155.659374 
L 943.392919 148.296523 
L 943.793397 150.735565 
L 944.193876 153.928655 
L 946.196268 112.628635 
L 946.596746 88.614311 
L 946.997225 145.304063 
L 947.397703 163.105171 
L 948.599139 167.638876 
L 948.999617 178.221658 
L 949.400096 140.542452 
L 949.800574 151.032388 
L 950.201053 145.498268 
L 951.402488 144.162269 
L 951.802967 142.903831 
L 952.203445 150.291379 
L 952.603923 143.83602 
L 954.205837 150.53907 
L 954.606316 145.09837 
L 955.006794 141.316551 
L 955.807751 105.506278 
L 957.009187 95.638011 
L 957.409665 80.522532 
L 957.810144 102.944734 
L 958.210622 80.45913 
L 958.6111 112.192005 
L 959.812536 133.611663 
L 960.213014 133.61169 
L 960.613493 122.345251 
L 961.013971 125.493253 
L 961.41445 113.744733 
L 962.615885 103.006903 
L 963.016364 107.534158 
L 963.416842 116.479447 
L 963.817321 120.767792 
L 964.217799 123.228951 
L 965.419234 131.713092 
L 965.819713 139.080255 
L 966.220191 149.810623 
L 966.62067 136.025882 
L 967.021148 135.195949 
L 968.623062 122.188732 
L 969.023541 116.072069 
L 969.424019 120.021257 
L 969.824498 120.336213 
L 971.025933 158.372482 
L 971.426411 161.085156 
L 971.82689 160.742548 
L 972.227368 163.609422 
L 972.627847 149.198729 
L 973.829282 149.175281 
L 974.229761 139.819637 
L 974.630239 137.364074 
L 975.030718 133.712136 
L 975.431196 122.268345 
L 976.632632 134.133638 
L 977.03311 144.61559 
L 977.433589 139.080447 
L 978.234545 126.150094 
L 979.435981 127.294532 
L 979.836459 136.525715 
L 980.637416 125.368824 
L 981.037895 137.650775 
L 982.23933 113.10707 
L 982.639809 108.879599 
L 983.040287 80.754038 
L 983.440766 79.585977 
L 985.042679 83.636436 
L 985.443158 87.190247 
L 985.843636 70.562583 
L 986.244115 70.080555 
L 986.644593 85.416396 
L 987.846029 100.068433 
L 988.246507 92.817445 
L 988.646986 93.340619 
L 989.447943 88.558878 
L 991.049856 97.794515 
L 991.450335 117.244972 
L 991.850813 125.43366 
L 992.251292 98.114907 
L 993.452727 97.561267 
L 994.253684 146.834711 
L 994.654163 147.907249 
L 995.054641 158.357596 
L 996.256077 155.183317 
L 996.656555 163.719381 
L 997.057033 115.965441 
L 997.85799 88.85135 
L 999.059426 97.429392 
L 999.459904 93.090701 
L 999.860383 87.324728 
L 1000.260861 88.992635 
L 1000.66134 92.391097 
L 1001.862775 86.707819 
L 1002.263254 81.090668 
L 1002.663732 90.00818 
L 1003.064211 77.912784 
L 1003.464689 76.023626 
L 1004.666124 76.558604 
L 1005.467081 95.465726 
L 1005.86756 113.652933 
L 1006.268038 106.918432 
L 1007.869952 126.35829 
L 1008.270431 109.754806 
L 1008.670909 104.235137 
L 1008.670909 104.235137 
" clip-path="url(#p4dafb5b54b)" style="fill: none; stroke: #1f77b4; stroke-width: 1.5; stroke-linecap: square"/>
   </g>
   <g id="patch_3">
    <path d="M 145.8 224.28 
L 145.8 30.24 
" style="fill: none; stroke: #000000; stroke-width: 0.8; stroke-linejoin: miter; stroke-linecap: square"/>
   </g>
   <g id="patch_4">
    <path d="M 145.8 224.28 
L 1049.76 224.28 
" style="fill: none; stroke: #000000; stroke-width: 0.8; stroke-linejoin: miter; stroke-linecap: square"/>
   </g>
  </g>
 </g>
 <defs>
  <clipPath id="p4dafb5b54b">
   <rect x="145.8" y="30.24" width="903.96" height="194.04"/>
  </clipPath>
 </defs>
</svg>
