<?xml version="1.0" encoding="utf-8" standalone="no"?>
<!DOCTYPE svg PUBLIC "-//W3C//DTD SVG 1.1//EN"
  "http://www.w3.org/Graphics/SVG/1.1/DTD/svg11.dtd">
<svg xmlns:xlink="http://www.w3.org/1999/xlink" width="756pt" height="252pt" viewBox="0 0 756 252" xmlns="http://www.w3.org/2000/svg" version="1.1">
 <metadata>
  <rdf:RDF xmlns:dc="http://purl.org/dc/elements/1.1/" xmlns:cc="http://creativecommons.org/ns#" xmlns:rdf="http://www.w3.org/1999/02/22-rdf-syntax-ns#">
   <cc:Work>
    <dc:type rdf:resource="http://purl.org/dc/dcmitype/StillImage"/>
    <dc:date>2025-08-30T18:51:04.525990</dc:date>
    <dc:format>image/svg+xml</dc:format>
    <dc:creator>
     <cc:Agent>
      <dc:title>Matplotlib v3.10.5, https://matplotlib.org/</dc:title>
     </cc:Agent>
    </dc:creator>
   </cc:Work>
  </rdf:RDF>
 </metadata>
 <defs>
  <style type="text/css">*{stroke-linejoin: round; stroke-linecap: butt}</style>
 </defs>
 <g id="figure_1">
  <g id="patch_1">
   <path d="M 0 252 
L 756 252 
L 756 0 
L 0 0 
z
" style="fill: #ffffff"/>
  </g>
  <g id="axes_1">
   <g id="patch_2">
    <path d="M 94.5 224.28 
L 680.4 224.28 
L 680.4 30.24 
L 94.5 30.24 
z
" style="fill: #ffffff"/>
   </g>
   <g id="matplotlib.axis_1">
    <g id="xtick_1">
     <g id="line2d_1">
      <defs>
       <path id="md590864180" d="M 0 0 
L 0 3.5 
" style="stroke: #000000; stroke-width: 0.8"/>
      </defs>
      <g>
       <use xlink:href="#md590864180" x="115.659527" y="224.28" style="stroke: #000000; stroke-width: 0.8"/>
      </g>
     </g>
     <g id="text_1">
      <!-- 2020 -->
      <g transform="translate(102.934527 238.878438) scale(0.1 -0.1)">
       <defs>
        <path id="DejaVuSans-32" d="M 1228 531 
L 3431 531 
L 3431 0 
L 469 0 
L 469 531 
Q 828 903 1448 1529 
Q 2069 2156 2228 2338 
Q 2531 2678 2651 2914 
Q 2772 3150 2772 3378 
Q 2772 3750 2511 3984 
Q 2250 4219 1831 4219 
Q 1534 4219 1204 4116 
Q 875 4013 500 3803 
L 500 4441 
Q 881 4594 1212 4672 
Q 1544 4750 1819 4750 
Q 2544 4750 2975 4387 
Q 3406 4025 3406 3419 
Q 3406 3131 3298 2873 
Q 3191 2616 2906 2266 
Q 2828 2175 2409 1742 
Q 1991 1309 1228 531 
z
" transform="scale(0.015625)"/>
        <path id="DejaVuSans-30" d="M 2034 4250 
Q 1547 4250 1301 3770 
Q 1056 3291 1056 2328 
Q 1056 1369 1301 889 
Q 1547 409 2034 409 
Q 2525 409 2770 889 
Q 3016 1369 3016 2328 
Q 3016 3291 2770 3770 
Q 2525 4250 2034 4250 
z
M 2034 4750 
Q 2819 4750 3233 4129 
Q 3647 3509 3647 2328 
Q 3647 1150 3233 529 
Q 2819 -91 2034 -91 
Q 1250 -91 836 529 
Q 422 1150 422 2328 
Q 422 3509 836 4129 
Q 1250 4750 2034 4750 
z
" transform="scale(0.015625)"/>
       </defs>
       <use xlink:href="#DejaVuSans-32"/>
       <use xlink:href="#DejaVuSans-30" transform="translate(63.623047 0)"/>
       <use xlink:href="#DejaVuSans-32" transform="translate(127.246094 0)"/>
       <use xlink:href="#DejaVuSans-30" transform="translate(190.869141 0)"/>
      </g>
     </g>
    </g>
    <g id="xtick_2">
     <g id="line2d_2">
      <g>
       <use xlink:href="#md590864180" x="211.033748" y="224.28" style="stroke: #000000; stroke-width: 0.8"/>
      </g>
     </g>
     <g id="text_2">
      <!-- 2021 -->
      <g transform="translate(198.308748 238.878438) scale(0.1 -0.1)">
       <defs>
        <path id="DejaVuSans-31" d="M 794 531 
L 1825 531 
L 1825 4091 
L 703 3866 
L 703 4441 
L 1819 4666 
L 2450 4666 
L 2450 531 
L 3481 531 
L 3481 0 
L 794 0 
L 794 531 
z
" transform="scale(0.015625)"/>
       </defs>
       <use xlink:href="#DejaVuSans-32"/>
       <use xlink:href="#DejaVuSans-30" transform="translate(63.623047 0)"/>
       <use xlink:href="#DejaVuSans-32" transform="translate(127.246094 0)"/>
       <use xlink:href="#DejaVuSans-31" transform="translate(190.869141 0)"/>
      </g>
     </g>
    </g>
    <g id="xtick_3">
     <g id="line2d_3">
      <g>
       <use xlink:href="#md590864180" x="306.147385" y="224.28" style="stroke: #000000; stroke-width: 0.8"/>
      </g>
     </g>
     <g id="text_3">
      <!-- 2022 -->
      <g transform="translate(293.422385 238.878438) scale(0.1 -0.1)">
       <use xlink:href="#DejaVuSans-32"/>
       <use xlink:href="#DejaVuSans-30" transform="translate(63.623047 0)"/>
       <use xlink:href="#DejaVuSans-32" transform="translate(127.246094 0)"/>
       <use xlink:href="#DejaVuSans-32" transform="translate(190.869141 0)"/>
      </g>
     </g>
    </g>
    <g id="xtick_4">
     <g id="line2d_4">
      <g>
       <use xlink:href="#md590864180" x="401.261021" y="224.28" style="stroke: #000000; stroke-width: 0.8"/>
      </g>
     </g>
     <g id="text_4">
      <!-- 2023 -->
      <g transform="translate(388.536021 238.878438) scale(0.1 -0.1)">
       <defs>
        <path id="DejaVuSans-33" d="M 2597 2516 
Q 3050 2419 3304 2112 
Q 3559 1806 3559 1356 
Q 3559 666 3084 287 
Q 2609 -91 1734 -91 
Q 1441 -91 1130 -33 
Q 819 25 488 141 
L 488 750 
Q 750 597 1062 519 
Q 1375 441 1716 441 
Q 2309 441 2620 675 
Q 2931 909 2931 1356 
Q 2931 1769 2642 2001 
Q 2353 2234 1838 2234 
L 1294 2234 
L 1294 2753 
L 1863 2753 
Q 2328 2753 2575 2939 
Q 2822 3125 2822 3475 
Q 2822 3834 2567 4026 
Q 2313 4219 1838 4219 
Q 1578 4219 1281 4162 
Q 984 4106 628 3988 
L 628 4550 
Q 988 4650 1302 4700 
Q 1616 4750 1894 4750 
Q 2613 4750 3031 4423 
Q 3450 4097 3450 3541 
Q 3450 3153 3228 2886 
Q 3006 2619 2597 2516 
z
" transform="scale(0.015625)"/>
       </defs>
       <use xlink:href="#DejaVuSans-32"/>
       <use xlink:href="#DejaVuSans-30" transform="translate(63.623047 0)"/>
       <use xlink:href="#DejaVuSans-32" transform="translate(127.246094 0)"/>
       <use xlink:href="#DejaVuSans-33" transform="translate(190.869141 0)"/>
      </g>
     </g>
    </g>
    <g id="xtick_5">
     <g id="line2d_5">
      <g>
       <use xlink:href="#md590864180" x="496.374658" y="224.28" style="stroke: #000000; stroke-width: 0.8"/>
      </g>
     </g>
     <g id="text_5">
      <!-- 2024 -->
      <g transform="translate(483.649658 238.878438) scale(0.1 -0.1)">
       <defs>
        <path id="DejaVuSans-34" d="M 2419 4116 
L 825 1625 
L 2419 1625 
L 2419 4116 
z
M 2253 4666 
L 3047 4666 
L 3047 1625 
L 3713 1625 
L 3713 1100 
L 3047 1100 
L 3047 0 
L 2419 0 
L 2419 1100 
L 313 1100 
L 313 1709 
L 2253 4666 
z
" transform="scale(0.015625)"/>
       </defs>
       <use xlink:href="#DejaVuSans-32"/>
       <use xlink:href="#DejaVuSans-30" transform="translate(63.623047 0)"/>
       <use xlink:href="#DejaVuSans-32" transform="translate(127.246094 0)"/>
       <use xlink:href="#DejaVuSans-34" transform="translate(190.869141 0)"/>
      </g>
     </g>
    </g>
    <g id="xtick_6">
     <g id="line2d_6">
      <g>
       <use xlink:href="#md590864180" x="591.748879" y="224.28" style="stroke: #000000; stroke-width: 0.8"/>
      </g>
     </g>
     <g id="text_6">
      <!-- 2025 -->
      <g transform="translate(579.023879 238.878438) scale(0.1 -0.1)">
       <defs>
        <path id="DejaVuSans-35" d="M 691 4666 
L 3169 4666 
L 3169 4134 
L 1269 4134 
L 1269 2991 
Q 1406 3038 1543 3061 
Q 1681 3084 1819 3084 
Q 2600 3084 3056 2656 
Q 3513 2228 3513 1497 
Q 3513 744 3044 326 
Q 2575 -91 1722 -91 
Q 1428 -91 1123 -41 
Q 819 9 494 109 
L 494 744 
Q 775 591 1075 516 
Q 1375 441 1709 441 
Q 2250 441 2565 725 
Q 2881 1009 2881 1497 
Q 2881 1984 2565 2268 
Q 2250 2553 1709 2553 
Q 1456 2553 1204 2497 
Q 953 2441 691 2322 
L 691 4666 
z
" transform="scale(0.015625)"/>
       </defs>
       <use xlink:href="#DejaVuSans-32"/>
       <use xlink:href="#DejaVuSans-30" transform="translate(63.623047 0)"/>
       <use xlink:href="#DejaVuSans-32" transform="translate(127.246094 0)"/>
       <use xlink:href="#DejaVuSans-35" transform="translate(190.869141 0)"/>
      </g>
     </g>
    </g>
   </g>
   <g id="matplotlib.axis_2">
    <g id="ytick_1">
     <g id="line2d_7">
      <defs>
       <path id="mdbe9949168" d="M 0 0 
L -3.5 0 
" style="stroke: #000000; stroke-width: 0.8"/>
      </defs>
      <g>
       <use xlink:href="#mdbe9949168" x="94.5" y="219.196796" style="stroke: #000000; stroke-width: 0.8"/>
      </g>
     </g>
     <g id="text_7">
      <!-- 50 -->
      <g transform="translate(74.775 222.996015) scale(0.1 -0.1)">
       <use xlink:href="#DejaVuSans-35"/>
       <use xlink:href="#DejaVuSans-30" transform="translate(63.623047 0)"/>
      </g>
     </g>
    </g>
    <g id="ytick_2">
     <g id="line2d_8">
      <g>
       <use xlink:href="#mdbe9949168" x="94.5" y="197.556531" style="stroke: #000000; stroke-width: 0.8"/>
      </g>
     </g>
     <g id="text_8">
      <!-- 75 -->
      <g transform="translate(74.775 201.355749) scale(0.1 -0.1)">
       <defs>
        <path id="DejaVuSans-37" d="M 525 4666 
L 3525 4666 
L 3525 4397 
L 1831 0 
L 1172 0 
L 2766 4134 
L 525 4134 
L 525 4666 
z
" transform="scale(0.015625)"/>
       </defs>
       <use xlink:href="#DejaVuSans-37"/>
       <use xlink:href="#DejaVuSans-35" transform="translate(63.623047 0)"/>
      </g>
     </g>
    </g>
    <g id="ytick_3">
     <g id="line2d_9">
      <g>
       <use xlink:href="#mdbe9949168" x="94.5" y="175.916265" style="stroke: #000000; stroke-width: 0.8"/>
      </g>
     </g>
     <g id="text_9">
      <!-- 100 -->
      <g transform="translate(68.4125 179.715484) scale(0.1 -0.1)">
       <use xlink:href="#DejaVuSans-31"/>
       <use xlink:href="#DejaVuSans-30" transform="translate(63.623047 0)"/>
       <use xlink:href="#DejaVuSans-30" transform="translate(127.246094 0)"/>
      </g>
     </g>
    </g>
    <g id="ytick_4">
     <g id="line2d_10">
      <g>
       <use xlink:href="#mdbe9949168" x="94.5" y="154.276" style="stroke: #000000; stroke-width: 0.8"/>
      </g>
     </g>
     <g id="text_10">
      <!-- 125 -->
      <g transform="translate(68.4125 158.075219) scale(0.1 -0.1)">
       <use xlink:href="#DejaVuSans-31"/>
       <use xlink:href="#DejaVuSans-32" transform="translate(63.623047 0)"/>
       <use xlink:href="#DejaVuSans-35" transform="translate(127.246094 0)"/>
      </g>
     </g>
    </g>
    <g id="ytick_5">
     <g id="line2d_11">
      <g>
       <use xlink:href="#mdbe9949168" x="94.5" y="132.635735" style="stroke: #000000; stroke-width: 0.8"/>
      </g>
     </g>
     <g id="text_11">
      <!-- 150 -->
      <g transform="translate(68.4125 136.434954) scale(0.1 -0.1)">
       <use xlink:href="#DejaVuSans-31"/>
       <use xlink:href="#DejaVuSans-35" transform="translate(63.623047 0)"/>
       <use xlink:href="#DejaVuSans-30" transform="translate(127.246094 0)"/>
      </g>
     </g>
    </g>
    <g id="ytick_6">
     <g id="line2d_12">
      <g>
       <use xlink:href="#mdbe9949168" x="94.5" y="110.99547" style="stroke: #000000; stroke-width: 0.8"/>
      </g>
     </g>
     <g id="text_12">
      <!-- 175 -->
      <g transform="translate(68.4125 114.794688) scale(0.1 -0.1)">
       <use xlink:href="#DejaVuSans-31"/>
       <use xlink:href="#DejaVuSans-37" transform="translate(63.623047 0)"/>
       <use xlink:href="#DejaVuSans-35" transform="translate(127.246094 0)"/>
      </g>
     </g>
    </g>
    <g id="ytick_7">
     <g id="line2d_13">
      <g>
       <use xlink:href="#mdbe9949168" x="94.5" y="89.355204" style="stroke: #000000; stroke-width: 0.8"/>
      </g>
     </g>
     <g id="text_13">
      <!-- 200 -->
      <g transform="translate(68.4125 93.154423) scale(0.1 -0.1)">
       <use xlink:href="#DejaVuSans-32"/>
       <use xlink:href="#DejaVuSans-30" transform="translate(63.623047 0)"/>
       <use xlink:href="#DejaVuSans-30" transform="translate(127.246094 0)"/>
      </g>
     </g>
    </g>
    <g id="ytick_8">
     <g id="line2d_14">
      <g>
       <use xlink:href="#mdbe9949168" x="94.5" y="67.714939" style="stroke: #000000; stroke-width: 0.8"/>
      </g>
     </g>
     <g id="text_14">
      <!-- 225 -->
      <g transform="translate(68.4125 71.514158) scale(0.1 -0.1)">
       <use xlink:href="#DejaVuSans-32"/>
       <use xlink:href="#DejaVuSans-32" transform="translate(63.623047 0)"/>
       <use xlink:href="#DejaVuSans-35" transform="translate(127.246094 0)"/>
      </g>
     </g>
    </g>
    <g id="ytick_9">
     <g id="line2d_15">
      <g>
       <use xlink:href="#mdbe9949168" x="94.5" y="46.074674" style="stroke: #000000; stroke-width: 0.8"/>
      </g>
     </g>
     <g id="text_15">
      <!-- 250 -->
      <g transform="translate(68.4125 49.873893) scale(0.1 -0.1)">
       <use xlink:href="#DejaVuSans-32"/>
       <use xlink:href="#DejaVuSans-35" transform="translate(63.623047 0)"/>
       <use xlink:href="#DejaVuSans-30" transform="translate(127.246094 0)"/>
      </g>
     </g>
    </g>
   </g>
   <g id="line2d_16">
    <path d="M 121.131818 196.060071 
L 121.392403 195.740236 
L 121.652989 195.932573 
L 122.434745 197.88933 
L 122.955915 194.671959 
L 123.216501 194.770214 
L 123.477086 197.77224 
L 124.258842 197.949962 
L 124.519427 195.819676 
L 125.040598 194.490076 
L 125.301183 195.414212 
L 126.082939 195.095677 
L 126.343524 195.502218 
L 126.60411 193.91171 
L 126.864695 194.39997 
L 127.12528 194.383182 
L 128.167621 195.63004 
L 128.428207 194.661914 
L 128.688792 195.357635 
L 128.949377 196.876898 
L 129.731133 199.99291 
L 129.991719 202.109407 
L 130.252304 201.151755 
L 130.512889 205.160487 
L 130.773474 205.194036 
L 131.55523 199.860914 
L 131.815816 201.849569 
L 132.076401 199.037391 
L 132.336986 201.095178 
L 132.597572 201.910333 
L 133.379328 206.700705 
L 133.639913 202.683592 
L 133.900498 204.76026 
L 134.161083 210.460084 
L 134.421669 204.227984 
L 135.203425 211.721589 
L 135.46401 209.489858 
L 135.724595 210.786992 
L 135.985181 211.183043 
L 136.245766 214.439484 
L 137.027522 215.46 
L 137.288107 210.74298 
L 137.548692 211.027962 
L 137.809278 208.320555 
L 138.069863 210.562764 
L 138.851619 209.08122 
L 139.112204 209.190191 
L 139.37279 211.994008 
L 139.633375 211.151604 
L 139.89396 211.889237 
L 140.675716 207.476041 
L 140.936301 208.113081 
L 141.196887 206.72168 
L 141.457472 206.319326 
L 142.499813 205.217064 
L 142.760399 202.325248 
L 143.020984 202.874272 
L 143.281569 202.40068 
L 143.542154 203.215855 
L 144.32391 204.445919 
L 144.584496 206.2397 
L 144.845081 204.61985 
L 145.105666 204.844066 
L 145.366252 203.180239 
L 146.148007 203.13831 
L 146.408593 204.100168 
L 146.929763 200.910759 
L 147.190349 201.901959 
L 147.972105 201.044874 
L 148.493275 199.479528 
L 148.753861 198.82781 
L 149.014446 197.312853 
L 149.796202 196.287457 
L 150.317372 197.833948 
L 150.577958 197.436812 
L 150.838543 197.821348 
L 151.620299 196.297984 
L 151.880884 196.68038 
L 152.141469 195.400746 
L 152.402055 195.900834 
L 152.66264 195.472196 
L 153.704981 195.926061 
L 153.965567 195.636096 
L 154.486737 195.671811 
L 155.789664 194.16316 
L 156.050249 194.751492 
L 156.310834 192.822591 
L 157.09259 192.41076 
L 157.613761 188.338642 
L 157.874346 191.898072 
L 158.134932 191.288719 
L 158.916687 190.408315 
L 159.177273 188.498335 
L 159.437858 188.601279 
L 159.698443 188.571865 
L 159.959029 188.994203 
L 160.740785 187.071615 
L 161.00137 185.462094 
L 161.261955 186.821578 
L 161.52254 185.817209 
L 161.783126 188.172654 
L 162.825467 185.825602 
L 163.086052 185.970588 
L 163.346638 185.970588 
L 164.388979 183.924016 
L 164.649564 184.167752 
L 164.910149 182.343929 
L 165.170735 181.999314 
L 165.43132 181.858529 
L 166.213076 182.230457 
L 166.473661 180.902488 
L 166.734247 180.341471 
L 166.994832 181.352141 
L 167.255417 181.516047 
L 168.037173 179.809882 
L 168.297758 180.95083 
L 168.558344 180.721807 
L 168.818929 184.443017 
L 169.079514 184.636332 
L 169.86127 182.791461 
L 170.121856 184.100523 
L 170.643026 181.631606 
L 170.903611 173.167982 
L 171.945953 170.306155 
L 172.206538 169.972048 
L 172.467123 166.744611 
L 172.727709 168.921166 
L 173.509465 167.561345 
L 173.77005 170.384136 
L 174.030635 167.323493 
L 174.29122 165.63951 
L 175.333562 165.978392 
L 175.594147 165.174299 
L 175.854732 165.052196 
L 176.115318 162.890388 
L 176.375903 157.758427 
L 177.157659 156.505955 
L 177.418244 157.375324 
L 177.678829 155.946041 
L 177.939415 157.219546 
L 178.2 157.390044 
L 178.981756 153.826315 
L 179.242341 149.498434 
L 179.502927 151.839212 
L 179.763512 160.696987 
L 180.024097 160.629638 
L 181.066438 167.48347 
L 181.327024 163.694515 
L 181.587609 166.919336 
L 181.848194 168.173907 
L 182.62995 165.344816 
L 182.890535 165.193233 
L 183.151121 168.064444 
L 183.411706 169.571622 
L 183.672291 172.518602 
L 184.454047 169.790541 
L 184.714633 168.333878 
L 184.975218 172.282837 
L 185.235803 171.356647 
L 185.496389 167.938141 
L 186.278144 165.681578 
L 186.53873 166.414136 
L 187.0599 164.140753 
L 187.320486 167.315072 
L 188.102242 164.384926 
L 188.362827 167.197176 
L 188.623412 165.580562 
L 188.883998 165.673165 
L 189.144583 163.989169 
L 189.926339 157.733166 
L 190.186924 160.511755 
L 190.447509 160.435967 
L 190.708095 160.84013 
L 190.96868 162.263093 
L 191.750436 164.82275 
L 192.011021 163.534511 
L 192.271606 164.073378 
L 192.792777 165.61423 
L 193.574533 165.60581 
L 193.835118 164.300743 
L 194.095704 168.847504 
L 194.356289 165.378484 
L 194.616874 170.81776 
L 195.39863 170.893562 
L 195.659215 169.48742 
L 196.180386 162.254686 
L 196.440971 162.368547 
L 197.222727 164.367524 
L 197.483313 164.662727 
L 197.743898 161.693774 
L 198.004483 161.929956 
L 198.265068 161.887783 
L 199.046824 161.010602 
L 199.30741 161.778128 
L 199.567995 162.925225 
L 199.82858 162.410727 
L 200.870922 166.450829 
L 201.392092 164.612113 
L 201.913263 164.139795 
L 202.695019 162.064911 
L 202.955604 158.969444 
L 203.216189 158.665801 
L 203.476775 158.783882 
L 203.73736 159.365861 
L 204.779701 157.569319 
L 205.040286 159.762304 
L 205.300872 158.53086 
L 205.561457 159.230913 
L 206.343213 159.762304 
L 206.603798 154.61726 
L 206.864384 154.676307 
L 207.124969 153.92564 
L 207.385554 155.646269 
L 208.16731 154.322064 
L 208.427895 151.243497 
L 208.688481 152.01947 
L 208.949066 151.16755 
L 209.991407 147.186462 
L 210.512578 149.691524 
L 210.773163 150.560278 
L 211.815504 153.326782 
L 212.07609 151.97729 
L 212.336675 155.696882 
L 212.59726 152.053158 
L 212.857846 151.100096 
L 213.639601 153.689485 
L 213.900187 153.84128 
L 214.160772 152.078484 
L 214.681943 155.241412 
L 215.724284 154.659433 
L 216.50604 145.179085 
L 217.287796 141.931817 
L 217.548381 141.729375 
L 217.808966 142.65717 
L 218.330137 151.175964 
L 219.372478 148.620354 
L 219.633064 149.505949 
L 219.893649 146.596097 
L 220.154234 146.955095 
L 220.93599 146.828376 
L 221.457161 148.112342 
L 221.717746 148.331954 
L 221.978331 148.129235 
L 223.020672 149.970678 
L 223.281258 151.955754 
L 223.541843 152.910256 
L 223.802428 152.775116 
L 224.584184 156.044138 
L 224.84477 156.162391 
L 225.105355 156.593195 
L 225.36594 160.276128 
L 225.626526 160.048043 
L 226.408281 154.532113 
L 227.190037 161.002571 
L 227.450623 159.912897 
L 228.232379 164.18712 
L 228.492964 160.191649 
L 228.753549 161.12927 
L 229.014134 159.456753 
L 229.27472 160.242348 
L 230.056476 157.741989 
L 230.317061 156.407363 
L 230.577646 157.091573 
L 230.838232 160.66468 
L 231.098817 161.120844 
L 231.880573 158.248813 
L 232.141158 158.966822 
L 232.401743 161.036364 
L 232.922914 160.090296 
L 233.70467 159.938244 
L 233.965255 161.196857 
L 234.225841 159.296267 
L 234.486426 158.578264 
L 235.528767 156.128605 
L 235.789352 155.866753 
L 236.049938 154.4392 
L 236.571108 150.131171 
L 237.352864 151.617869 
L 237.61345 148.923257 
L 237.874035 150.95054 
L 238.13462 148.864151 
L 238.395205 149.15131 
L 239.176961 148.576886 
L 239.437547 150.038278 
L 239.698132 149.7088 
L 239.958717 151.026566 
L 240.219303 149.01615 
L 241.001059 148.678299 
L 241.261644 148.957031 
L 241.522229 149.64124 
L 241.782814 149.72572 
L 242.0434 151.432017 
L 242.825156 150.519768 
L 243.085741 154.48142 
L 243.346326 154.270228 
L 243.606912 152.884909 
L 243.867497 152.301068 
L 244.909838 155.939497 
L 245.170423 158.596406 
L 245.691594 154.636438 
L 246.47335 155.63489 
L 246.733935 156.836397 
L 246.994521 156.971794 
L 247.255106 154.754902 
L 247.515691 156.345654 
L 248.297447 154.932585 
L 248.818618 155.144127 
L 249.079203 156.472572 
L 249.339788 157.03948 
L 250.38213 157.318713 
L 250.642715 156.658721 
L 250.9033 157.944867 
L 251.163885 155.956423 
L 251.945641 155.94797 
L 252.206227 155.237205 
L 252.466812 154.907212 
L 252.727397 155.770267 
L 252.987983 154.721056 
L 253.769738 152.072666 
L 254.030324 152.783404 
L 254.290909 152.35186 
L 254.551494 150.964171 
L 254.81208 152.089546 
L 255.593836 150.53266 
L 255.854421 149.11113 
L 256.636177 149.847288 
L 257.417933 148.434265 
L 257.678518 147.122693 
L 257.939103 146.589638 
L 258.199689 146.32731 
L 258.460274 144.051199 
L 259.502615 142.308144 
L 259.7632 140.15047 
L 260.023786 141.275846 
L 260.284371 139.69356 
L 261.066127 140.209722 
L 261.326712 139.245103 
L 261.587298 136.275167 
L 261.847883 136.842075 
L 262.108468 138.610503 
L 262.890224 141.944311 
L 263.150809 138.813579 
L 263.411395 139.448192 
L 263.932565 136.774356 
L 264.714321 136.410551 
L 265.235492 139.803571 
L 265.496077 139.245103 
L 265.756663 139.058974 
L 266.538418 139.346661 
L 266.799004 137.789708 
L 267.059589 138.13666 
L 267.320174 138.043582 
L 267.58076 138.636748 
L 268.362516 138.679133 
L 268.623101 139.094385 
L 268.883686 138.874072 
L 269.144271 136.306417 
L 269.404857 136.128451 
L 270.186613 134.416659 
L 270.447198 135.204737 
L 270.707783 138.450354 
L 270.968369 138.162231 
L 271.228954 136.89957 
L 272.01071 135.611509 
L 272.271295 135.687786 
L 272.792466 137.45039 
L 273.053051 136.552142 
L 273.834807 132.721865 
L 274.095392 133.815026 
L 274.355978 133.238754 
L 274.877148 131.721915 
L 275.919489 129.696587 
L 276.44066 131.916788 
L 276.701245 136.23858 
L 277.483001 135.747091 
L 277.743587 136.958914 
L 278.004172 136.187768 
L 278.264757 136.391161 
L 278.525342 138.704559 
L 279.307098 141.348464 
L 279.567684 140.933252 
L 279.828269 138.882512 
L 280.088854 138.052022 
L 280.34944 137.975798 
L 281.131196 139.289258 
L 281.391781 142.22134 
L 281.652366 141.441714 
L 281.912951 142.568767 
L 282.173537 141.594229 
L 282.955293 144.568616 
L 283.215878 142.899209 
L 283.737049 141.051888 
L 283.997634 141.382396 
L 284.77939 141.458634 
L 285.039975 142.560274 
L 285.30056 143.06871 
L 285.561146 140.653622 
L 285.821731 139.738402 
L 286.603487 138.28932 
L 286.864072 136.41656 
L 287.124658 135.992829 
L 287.385243 135.806422 
L 287.645828 136.475852 
L 288.427584 136.51825 
L 288.688169 135.942017 
L 288.948755 136.34027 
L 289.20934 133.187903 
L 289.469925 135.535245 
L 290.251681 136.24706 
L 290.772852 134.10311 
L 291.033437 134.552267 
L 291.294022 134.093957 
L 292.075778 134.806841 
L 292.336364 134.492856 
L 292.596949 136.945468 
L 292.857534 136.987867 
L 293.11812 135.188729 
L 293.899875 135.180236 
L 294.160461 134.331585 
L 294.421046 132.218476 
L 294.942217 126.227025 
L 295.723973 125.828165 
L 296.245143 125.047417 
L 296.766314 129.400949 
L 297.54807 126.490119 
L 297.808655 122.195932 
L 298.06924 122.645736 
L 298.329826 123.502867 
L 298.590411 125.132279 
L 299.372167 122.178999 
L 299.893337 113.896208 
L 300.153923 114.337506 
L 300.414508 110.187579 
L 301.456849 114.53267 
L 301.717435 110.314879 
L 301.97802 116.289357 
L 302.238605 117.23987 
L 303.020361 118.419465 
L 303.541532 113.420939 
L 303.802117 112.877766 
L 304.844458 109.440776 
L 305.105044 110.323385 
L 305.365629 110.246963 
L 305.626214 111.248419 
L 305.8868 111.783046 
L 306.668555 108.015073 
L 306.929141 109.975442 
L 307.450311 116.510039 
L 307.710897 116.365779 
L 308.492653 116.348767 
L 308.753238 113.896208 
L 309.013823 113.514307 
L 309.274408 116.348767 
L 309.534994 115.601951 
L 310.577335 118.377053 
L 310.83792 121.406717 
L 311.359091 124.648543 
L 312.140847 125.31899 
L 312.401432 126.880473 
L 312.662017 126.956869 
L 312.922603 127.35573 
L 313.183188 117.927276 
L 313.964944 114.150809 
L 314.225529 114.295029 
L 314.486115 113.25124 
L 314.7467 115.74625 
L 315.789041 116.612944 
L 316.049626 113.919296 
L 316.310212 112.687199 
L 316.831382 119.17912 
L 317.613138 118.975172 
L 317.873724 115.652763 
L 318.134309 115.856684 
L 318.394894 118.975172 
L 318.655479 120.317796 
L 319.697821 122.849947 
L 319.958406 126.461272 
L 320.479577 122.399588 
L 321.261333 122.170189 
L 321.521918 123.801636 
L 321.782503 120.946558 
L 322.043088 121.226993 
L 322.303674 123.82718 
L 323.08543 127.115579 
L 323.346015 128.696121 
L 323.6066 124.014102 
L 324.127771 130.99886 
L 324.909527 134.491245 
L 325.430697 126.869207 
L 325.691283 125.993994 
L 325.951868 123.138876 
L 326.733624 121.949256 
L 326.994209 119.026169 
L 327.254795 117.845055 
L 327.51538 114.565096 
L 327.775965 114.01277 
L 328.557721 113.265003 
L 328.818306 110.409912 
L 329.078892 111.42109 
L 329.339477 114.106231 
L 329.600062 114.361162 
L 330.381818 110.851804 
L 330.902989 116.468473 
L 331.163574 116.205062 
L 331.424159 117.947022 
L 332.205915 121.634849 
L 332.466501 120.011855 
L 332.727086 117.683638 
L 332.987671 122.025705 
L 334.030012 122.212653 
L 334.290598 120.232815 
L 334.551183 120.377246 
L 334.811768 121.065524 
L 335.072354 124.999815 
L 335.85411 124.073552 
L 336.114695 129.239915 
L 336.37528 129.435343 
L 336.635866 123.427765 
L 336.896451 128.517652 
L 337.678207 128.254228 
L 337.938792 126.962641 
L 338.199377 121.405423 
L 338.459963 129.265433 
L 338.720548 128.63568 
L 339.502304 133.077786 
L 339.762889 130.99289 
L 340.023474 137.809217 
L 340.28406 141.162071 
L 340.544645 137.290109 
L 341.326401 138.626142 
L 341.586986 135.477512 
L 341.847572 142.642759 
L 342.108157 145.595631 
L 342.368742 145.391419 
L 343.150498 140.694039 
L 343.411083 143.03421 
L 343.671669 142.898073 
L 343.932254 140.123882 
L 344.192839 135.137177 
L 345.495766 135.928558 
L 345.756351 133.801092 
L 346.016936 138.762278 
L 346.798692 138.115554 
L 347.059278 135.928558 
L 347.319863 136.566777 
L 347.841034 145.78287 
L 348.62279 150.250507 
L 348.883375 149.501643 
L 349.14396 147.229534 
L 349.404545 151.79925 
L 349.665131 150.522806 
L 350.707472 146.855096 
L 350.968057 147.297596 
L 351.489228 141.92796 
L 352.270984 141.92796 
L 352.531569 145.519063 
L 352.792154 143.995818 
L 353.05274 146.13179 
L 353.313325 144.251118 
L 354.355666 142.013034 
L 354.616252 140.855734 
L 354.876837 137.936874 
L 355.137422 137.349691 
L 355.919178 139.196339 
L 356.179763 138.353855 
L 356.440349 138.668685 
L 356.700934 136.132783 
L 356.961519 134.686145 
L 357.743275 137.324147 
L 358.003861 133.979825 
L 358.525031 130.27805 
L 358.785616 131.350316 
L 359.567372 132.320403 
L 359.827958 133.469223 
L 360.088543 129.052649 
L 360.349128 128.576125 
L 360.609714 124.185069 
L 361.391469 125.036058 
L 361.652055 126.312522 
L 361.91264 121.104554 
L 362.433811 121.572823 
L 363.215567 121.981906 
L 363.476152 121.93927 
L 363.736737 118.257942 
L 363.997323 118.897072 
L 364.257908 115.820784 
L 365.039664 114.891933 
L 365.300249 115.028294 
L 365.560834 113.732982 
L 365.82142 114.073858 
L 366.082005 116.315034 
L 366.863761 119.681043 
L 367.124346 119.970791 
L 367.384932 119.715147 
L 367.645517 117.584735 
L 367.906102 123.047092 
L 368.687858 124.955898 
L 369.209029 128.500917 
L 369.469614 127.87028 
L 369.730199 129.702438 
L 370.77254 130.793222 
L 371.033126 129.574596 
L 371.293711 130.852896 
L 371.554296 128.373089 
L 372.336052 123.208998 
L 372.596638 131.38121 
L 372.857223 130.128521 
L 373.117808 132.633873 
L 373.378394 134.056987 
L 374.160149 130.835818 
L 374.420735 128.773627 
L 374.68132 131.483467 
L 374.941905 132.318567 
L 375.202491 134.28706 
L 375.984247 133.997326 
L 376.244832 133.153707 
L 376.505417 134.789829 
L 377.026588 144.708979 
L 377.808344 141.087273 
L 378.068929 137.976894 
L 378.329514 137.721277 
L 378.5901 138.547857 
L 378.850685 143.098388 
L 379.632441 142.81716 
L 379.893026 144.044265 
L 380.153611 144.589657 
L 380.414197 140.627127 
L 380.674782 144.55558 
L 381.717123 139.979491 
L 381.977709 139.885765 
L 382.238294 140.286263 
L 382.498879 136.979876 
L 383.280635 135.122186 
L 383.54122 132.659444 
L 383.801806 135.207392 
L 384.062391 139.084729 
L 384.322976 129.7621 
L 385.104732 131.807279 
L 385.365318 134.099596 
L 385.886488 144.129484 
L 386.147073 144.359954 
L 386.928829 143.899041 
L 387.189415 143.403973 
L 387.45 147.356016 
L 387.710585 137.113172 
L 387.971171 134.697517 
L 388.752927 135.909591 
L 389.013512 134.407307 
L 389.274097 135.47429 
L 389.534682 133.826874 
L 389.795268 133.340351 
L 390.577024 136.140061 
L 390.837609 134.287813 
L 391.098194 133.528105 
L 392.401121 139.375098 
L 392.661706 141.978507 
L 392.922291 136.123009 
L 393.182877 135.883994 
L 393.443462 136.310776 
L 394.225218 137.317965 
L 394.485803 140.493288 
L 394.746389 142.17482 
L 395.006974 140.715212 
L 395.267559 141.133449 
L 396.3099 138.308116 
L 396.570486 140.237195 
L 396.831071 145.96468 
L 397.091656 147.66329 
L 397.873412 149.489941 
L 398.133998 149.549681 
L 398.394583 146.860921 
L 398.655168 149.609448 
L 398.915753 149.925256 
L 399.958095 151.487293 
L 400.21868 154.893046 
L 400.479265 151.845796 
L 400.739851 151.572658 
L 401.782192 155.721014 
L 402.042777 154.619908 
L 402.303362 155.763702 
L 402.563948 151.837257 
L 403.345704 151.38489 
L 403.606289 150.889795 
L 403.866874 148.533933 
L 404.12746 148.60222 
L 404.388045 147.449899 
L 405.430386 146.442684 
L 405.690971 147.065766 
L 405.951557 147.014584 
L 406.212142 144.795295 
L 407.254483 140.817628 
L 407.515068 141.389529 
L 408.036239 137.915489 
L 408.817995 140.41647 
L 409.339166 138.342285 
L 409.860336 130.600369 
L 410.642092 132.964764 
L 410.902677 130.472342 
L 411.163263 132.802594 
L 411.423848 133.698847 
L 411.684433 133.382538 
L 412.466189 130.954692 
L 412.726775 131.510359 
L 412.98736 129.689494 
L 413.508531 132.066014 
L 414.550872 135.545363 
L 415.072042 134.758882 
L 415.332628 137.058477 
L 416.114384 136.024106 
L 416.374969 136.460081 
L 416.635554 138.255336 
L 416.896139 137.742396 
L 417.156725 133.365434 
L 417.938481 130.971757 
L 418.199066 132.878158 
L 418.459651 131.792459 
L 418.980822 135.528271 
L 419.762578 133.844177 
L 420.023163 132.031818 
L 420.283748 131.689872 
L 420.544334 129.24492 
L 420.804919 129.971581 
L 421.586675 127.91989 
L 421.84726 126.31272 
L 422.107846 127.55228 
L 422.629016 125.483471 
L 423.671357 127.706169 
L 423.931943 125.038951 
L 424.192528 123.679711 
L 424.453113 121.508327 
L 425.234869 120.422616 
L 425.495455 120.884255 
L 425.75604 122.482866 
L 426.016625 121.713464 
L 427.058966 123.961798 
L 427.580137 125.61171 
L 427.840722 120.944088 
L 428.101308 121.243279 
L 428.883064 121.226214 
L 429.404234 119.174484 
L 429.664819 120.012278 
L 429.925405 121.40574 
L 430.707161 121.140718 
L 430.967746 122.47432 
L 431.228331 122.482866 
L 431.488917 118.507682 
L 431.749502 117.422024 
L 432.531258 117.498948 
L 433.052428 119.328359 
L 433.313014 120.747484 
L 433.573599 114.096537 
L 434.355355 114.15637 
L 434.61594 115.635315 
L 434.876526 114.105096 
L 435.137111 113.942675 
L 435.397696 114.74733 
L 436.179452 115.175406 
L 436.440037 115.175406 
L 436.700623 114.644596 
L 436.961208 112.624328 
L 437.221793 112.53014 
L 438.003549 113.351992 
L 438.264134 115.611976 
L 438.52472 115.372261 
L 438.785305 114.38779 
L 439.04589 112.299024 
L 440.088232 110.698207 
L 440.348817 110.741014 
L 440.609402 108.3098 
L 440.869988 107.57359 
L 441.912329 109.063101 
L 442.172914 110.253065 
L 442.433499 107.898894 
L 442.694085 107.565017 
L 443.475841 105.142388 
L 443.736426 105.553308 
L 443.997011 105.005406 
L 444.257597 103.241944 
L 444.518182 104.175035 
L 445.560523 104.098005 
L 445.821108 104.996834 
L 446.081694 102.394442 
L 446.342279 102.668379 
L 447.124035 103.875421 
L 447.38462 101.487027 
L 447.645205 100.468308 
L 447.905791 100.177252 
L 448.166376 96.427704 
L 449.469303 98.687688 
L 449.729888 98.276795 
L 449.990473 99.244148 
L 451.032814 101.46987 
L 451.2934 100.023153 
L 451.553985 99.363986 
L 451.81457 99.235589 
L 452.596326 96.410573 
L 452.856912 96.633183 
L 453.117497 95.460351 
L 453.638667 98.16549 
L 454.420423 97.4721 
L 454.941594 95.97399 
L 455.202179 97.06974 
L 455.462765 94.835446 
L 456.244521 94.304689 
L 456.505106 95.023781 
L 456.765691 97.617628 
L 457.026276 98.82467 
L 457.286862 106.68328 
L 458.068618 109.371314 
L 458.329203 108.558061 
L 458.589788 109.93632 
L 458.850374 110.124655 
L 459.110959 110.073209 
L 459.892715 108.641642 
L 460.1533 110.364648 
L 460.413885 111.118979 
L 460.674471 113.322036 
L 461.716812 111.744796 
L 461.977397 110.553247 
L 462.237983 107.218686 
L 462.498568 111.281876 
L 462.759153 109.370284 
L 463.540909 108.015865 
L 464.06208 101.621077 
L 464.322665 101.432477 
L 464.58325 100.069487 
L 465.625592 99.863783 
L 466.146762 110.270354 
L 466.407347 109.738897 
L 467.189103 108.727402 
L 467.710274 113.142035 
L 467.970859 111.83049 
L 468.231445 112.456254 
L 469.273786 108.97598 
L 469.534371 112.044793 
L 469.794956 113.382067 
L 470.055542 112.644866 
L 470.837298 111.539052 
L 471.097883 115.070758 
L 471.358468 116.382329 
L 471.619054 116.159441 
L 471.879639 115.713679 
L 472.661395 113.536339 
L 472.92198 114.693586 
L 473.443151 112.541975 
L 473.703736 110.330346 
L 474.485492 109.044544 
L 474.746077 109.558883 
L 475.267248 107.570129 
L 475.527833 109.164553 
L 476.309589 109.276004 
L 476.83076 111.744796 
L 477.091345 112.070509 
L 477.35193 114.282125 
L 478.133686 114.179273 
L 478.394271 113.8021 
L 478.654857 115.807972 
L 478.915442 119.416853 
L 479.176027 118.276751 
L 480.218369 116.090851 
L 480.739539 110.261769 
L 481.000125 111.050429 
L 481.78188 108.838813 
L 482.042466 106.618639 
L 482.303051 105.701411 
L 482.563636 106.112858 
L 482.824222 102.482078 
L 483.605978 103.855424 
L 483.866563 101.589391 
L 484.127148 101.100147 
L 484.387733 99.640961 
L 484.648319 99.658118 
L 485.430075 98.147447 
L 485.69066 98.842712 
L 485.951245 98.267628 
L 486.472416 99.417796 
L 487.254172 99.572305 
L 487.514757 99.04872 
L 487.775342 99.932809 
L 488.035928 99.434953 
L 488.296513 98.327686 
L 489.078269 99.88131 
L 489.338854 96.456524 
L 489.59944 97.400697 
L 490.12061 94.490897 
L 490.902366 96.662519 
L 491.162951 95.34923 
L 491.423537 92.559612 
L 491.684122 92.430872 
L 492.726463 94.336402 
L 492.987049 93.435142 
L 493.247634 95.246233 
L 493.508219 95.375 
L 493.768804 96.302002 
L 494.811146 96.774115 
L 495.071731 96.688248 
L 495.332316 96.319172 
L 495.592902 97.220445 
L 497.416999 106.962632 
L 498.198755 103.203099 
L 498.45934 103.563602 
L 498.719925 102.66233 
L 498.980511 103.177343 
L 499.241096 102.894094 
L 500.283437 104.859694 
L 500.544022 105.67514 
L 500.804608 100.56799 
L 501.065193 98.053035 
L 501.846949 96.053107 
L 502.107534 94.945813 
L 502.36812 95.529496 
L 502.628705 95.812758 
L 502.88929 97.314857 
L 503.671046 97.907111 
L 504.192217 104.19877 
L 504.452802 102.087246 
L 504.713387 102.954178 
L 505.495143 101.383409 
L 505.755729 99.992893 
L 506.016314 99.898467 
L 506.276899 100.834042 
L 506.537484 100.172286 
L 507.31924 101.633347 
L 507.579826 103.446789 
L 507.840411 104.211661 
L 508.100996 104.460899 
L 508.361582 105.793036 
L 509.403923 106.437608 
L 509.664508 105.784424 
L 509.925093 104.022573 
L 510.185679 105.612533 
L 510.967435 106.781377 
L 511.22802 105.517989 
L 511.488605 106.557921 
L 511.749191 107.133758 
L 512.009776 108.070534 
L 512.791532 111.989569 
L 513.052117 116.269584 
L 513.312702 117.12904 
L 513.573288 117.232169 
L 513.833873 115.745326 
L 514.876214 113.596726 
L 515.1368 115.401543 
L 515.397385 113.7944 
L 515.65797 114.120998 
L 516.439726 113.17561 
L 516.960897 108.921404 
L 517.221482 115.195311 
L 517.482067 114.413203 
L 518.263823 115.642183 
L 518.524408 116.621952 
L 518.784994 113.527978 
L 519.045579 115.100767 
L 520.08792 116.346931 
L 520.348506 117.369693 
L 520.609091 116.673543 
L 520.869676 117.38685 
L 521.130262 116.733667 
L 521.912017 117.704837 
L 522.172603 116.656333 
L 522.433188 118.280673 
L 522.693773 112.041161 
L 522.954359 110.743405 
L 523.736115 114.060822 
L 523.9967 116.905571 
L 524.778456 120.669926 
L 525.560212 119.947994 
L 525.820797 119.036986 
L 526.081382 117.214959 
L 526.341968 116.467258 
L 526.602553 116.974333 
L 527.384309 113.364672 
L 527.644894 116.089108 
L 527.905479 116.974333 
L 528.166065 113.768617 
L 528.42665 104.873417 
L 529.208406 106.308683 
L 529.468991 105.715689 
L 529.729577 105.423458 
L 529.990162 103.850695 
L 530.250747 104.943645 
L 531.293088 101.174231 
L 531.553674 99.203414 
L 532.074844 99.074344 
L 532.8566 98.067419 
L 533.117186 96.940022 
L 533.377771 98.187917 
L 533.638356 101.647546 
L 533.898941 98.979681 
L 534.941283 98.971069 
L 535.201868 98.712889 
L 535.723039 97.0261 
L 536.76538 95.218813 
L 537.025965 93.910715 
L 537.28655 95.106953 
L 537.547136 93.0329 
L 538.328892 96.277368 
L 538.589477 84.203094 
L 538.850062 79.108306 
L 539.110648 78.101382 
L 539.371233 79.607456 
L 540.152989 76.010132 
L 541.19533 83.91048 
L 541.977086 83.351088 
L 542.237671 82.550712 
L 542.498257 78.953401 
L 542.758842 78.22188 
L 543.019427 81.216806 
L 543.801183 75.941291 
L 544.061768 72.911958 
L 544.322354 71.81037 
L 544.843524 67.688087 
L 545.62528 66.414397 
L 545.885866 65.674277 
L 546.146451 61.973691 
L 546.407036 66.629531 
L 546.667621 64.073553 
L 547.449377 60.751619 
L 547.709963 60.390164 
L 548.231133 69.547005 
L 548.491719 69.435132 
L 549.273474 69.736331 
L 549.53406 68.832694 
L 549.794645 74.400822 
L 550.05523 75.304433 
L 550.315816 74.899946 
L 551.097572 74.658976 
L 551.358157 74.177036 
L 551.618742 71.354266 
L 551.879328 74.555715 
L 552.139913 73.264814 
L 553.182254 84.13424 
L 553.703425 78.901757 
L 553.96401 76.380172 
L 554.745766 75.053319 
L 555.006351 71.830935 
L 555.266936 71.443209 
L 555.527522 68.85841 
L 555.788107 67.712483 
L 556.569863 67.850349 
L 556.830448 67.316145 
L 557.091034 67.410927 
L 557.351619 69.022125 
L 557.612204 67.031826 
L 558.39396 66.738895 
L 558.654545 66.006515 
L 558.915131 67.333395 
L 559.175716 64.490099 
L 559.436301 65.170768 
L 560.739228 72.192813 
L 560.999813 70.874558 
L 561.260399 72.218661 
L 562.042154 72.141103 
L 562.30274 72.830411 
L 562.563325 70.633311 
L 562.82391 70.538529 
L 563.084496 70.771178 
L 563.866252 76.095866 
L 564.126837 75.69093 
L 564.387422 72.330666 
L 564.648007 65.282774 
L 565.690349 67.350618 
L 565.950934 66.57518 
L 566.211519 67.436775 
L 566.472105 66.445938 
L 566.73269 66.213316 
L 567.514446 61.724361 
L 567.775031 67.574642 
L 568.035616 67.083523 
L 568.296202 68.0399 
L 568.556787 67.066286 
L 569.338543 71.469058 
L 569.859714 64.705497 
L 570.120299 65.136321 
L 570.380884 66.420076 
L 571.16264 63.189081 
L 571.423225 60.991994 
L 571.683811 62.77552 
L 571.944396 62.456727 
L 572.204981 60.00117 
L 572.986737 58.725987 
L 573.247323 59.260178 
L 573.507908 63.654352 
L 573.768493 63.818054 
L 574.029078 63.094299 
L 574.810834 61.379733 
L 575.07142 61.147098 
L 575.853176 70.417899 
L 576.634932 71.193364 
L 576.895517 69.952641 
L 577.156102 70.581614 
L 577.416687 66.480398 
L 577.677273 66.713284 
L 578.459029 69.068037 
L 578.719614 69.068037 
L 578.980199 68.300378 
L 579.240785 65.626477 
L 579.50137 68.403891 
L 580.283126 65.798989 
L 580.543711 65.574727 
L 580.804296 64.953692 
L 581.064882 65.367715 
L 581.325467 64.20327 
L 582.107223 61.615631 
L 582.367808 59.726651 
L 582.628394 59.838776 
L 583.149564 57.768659 
L 583.93132 55.819305 
L 584.191905 53.179903 
L 584.452491 52.869392 
L 584.713076 52.843504 
L 584.973661 53.016016 
L 586.016002 48.763646 
L 586.276588 49.867717 
L 586.537173 48.599746 
L 586.797758 48.453135 
L 587.579514 45.943121 
L 587.8401 43.838504 
L 588.100685 48.522135 
L 588.36127 47.021304 
L 588.621856 42.96732 
L 589.403611 42.294522 
L 589.664197 39.767271 
L 590.185367 39.06 
L 590.445953 42.018524 
L 591.227709 44.942562 
L 591.488294 46.477893 
L 592.009465 52.144832 
L 592.27005 52.567493 
L 593.051806 51.152911 
L 593.312391 53.559414 
L 593.572976 53.136779 
L 594.094147 58.182682 
L 595.136488 61.261982 
L 595.397073 57.302886 
L 595.657659 65.591964 
L 595.918244 64.108396 
L 596.960585 70.439494 
L 597.221171 69.413074 
L 597.481756 69.559685 
L 597.742341 70.318745 
L 598.524097 64.211895 
L 598.784682 56.966501 
L 599.045268 56.017679 
L 599.566438 58.915842 
L 600.348194 65.807614 
L 600.60878 61.675992 
L 600.869365 61.960642 
L 601.12995 61.313732 
L 601.390535 66.135374 
L 602.172291 65.90225 
L 602.954047 53.916906 
L 603.214633 51.26596 
L 604.256974 51.378216 
L 604.517559 51.032823 
L 604.778144 50.203852 
L 605.03873 50.44564 
L 605.820486 49.107217 
L 606.081071 49.159033 
L 606.341656 54.927186 
L 606.602242 57.569493 
L 606.862827 53.649216 
L 607.644583 56.939146 
L 607.905168 58.752483 
L 608.165753 58.916542 
L 608.426339 59.270573 
L 608.686924 56.041097 
L 609.46868 66.049032 
L 610.250436 81.419287 
L 610.511021 78.129357 
L 611.292777 77.68897 
L 611.553362 78.820144 
L 611.813948 76.618236 
L 612.074533 77.602615 
L 612.335118 74.00183 
L 613.116874 71.877639 
L 613.37746 69.269871 
L 613.638045 71.186839 
L 613.89863 69.183516 
L 614.159215 74.321336 
L 615.201557 69.753422 
L 615.462142 69.148977 
L 615.983313 99.811756 
L 616.765068 105.787158 
L 617.025654 113.593187 
L 617.286239 90.770949 
L 617.546824 98.050235 
L 617.80741 91.375407 
L 618.589166 87.601912 
L 618.849751 87.930056 
L 619.110336 94.725765 
L 619.370922 92.385687 
L 620.413263 95.684242 
L 620.934433 85.805839 
L 621.195019 82.550461 
L 621.455604 81.764681 
L 622.23736 81.022065 
L 623.019116 78.276139 
L 623.279701 85.158216 
L 624.061457 90.736409 
L 624.322042 91.06454 
L 624.582628 93.016047 
L 625.103798 91.047263 
L 625.885554 80.222112 
L 626.146139 78.371806 
L 626.927895 79.815736 
L 627.709651 81.960016 
L 627.970237 83.620098 
L 628.230822 87.744389 
L 628.491407 88.375568 
L 628.751993 93.64115 
L 629.794334 89.369879 
L 630.054919 89.188319 
L 630.315504 89.594695 
L 630.57609 88.816523 
L 631.357846 88.081594 
L 631.618431 86.724124 
L 631.879016 87.113197 
L 632.139601 89.006733 
L 632.400187 86.162116 
L 633.181943 88.297745 
L 633.442528 87.242901 
L 633.703113 90.606309 
L 633.963699 90.243163 
L 634.224284 92.620898 
L 635.00604 90.917572 
L 635.266625 93.321248 
L 635.52721 92.508497 
L 636.048381 88.686831 
L 636.830137 88.254515 
L 637.090722 89.292069 
L 637.351308 88.202633 
L 637.611893 88.686831 
L 637.872478 88.61766 
L 638.654234 85.081331 
L 638.914819 82.790057 
L 639.175405 78.795471 
L 639.43599 77.835726 
L 640.478331 80.948403 
L 640.738917 80.896521 
L 641.260087 78.821412 
L 641.520672 79.902197 
L 642.302428 82.098359 
L 642.563014 81.67468 
L 642.823599 80.766817 
L 643.084184 80.88787 
L 643.34477 79.884907 
L 644.126526 78.760892 
L 644.387111 77.100797 
L 644.908281 77.654166 
L 645.168867 77.550403 
L 645.950623 77.403409 
L 646.471793 81.726562 
L 646.732379 83.006209 
L 646.992964 87.493632 
L 647.77472 86.654939 
L 648.035305 87.026749 
L 648.556476 72.232939 
L 648.817061 64.174582 
L 649.598817 65.827914 
L 649.859402 63.689855 
L 650.119988 60.504401 
L 650.380573 60.98049 
L 650.641158 62.010569 
L 651.683499 62.902146 
L 651.944085 66.840677 
L 652.20467 67.801506 
L 652.465255 65.325859 
L 653.247011 65.845217 
L 653.507597 63.98416 
L 653.768182 62.962732 
L 653.768182 62.962732 
" clip-path="url(#pa188603d6d)" style="fill: none; stroke: #1f77b4; stroke-width: 1.5; stroke-linecap: square"/>
   </g>
   <g id="patch_3">
    <path d="M 94.5 224.28 
L 94.5 30.24 
" style="fill: none; stroke: #000000; stroke-width: 0.8; stroke-linejoin: miter; stroke-linecap: square"/>
   </g>
   <g id="patch_4">
    <path d="M 94.5 224.28 
L 680.4 224.28 
" style="fill: none; stroke: #000000; stroke-width: 0.8; stroke-linejoin: miter; stroke-linecap: square"/>
   </g>
  </g>
 </g>
 <defs>
  <clipPath id="pa188603d6d">
   <rect x="94.5" y="30.24" width="585.9" height="194.04"/>
  </clipPath>
 </defs>
</svg>
