<?xml version="1.0" encoding="utf-8" standalone="no"?>
<!DOCTYPE svg PUBLIC "-//W3C//DTD SVG 1.1//EN"
  "http://www.w3.org/Graphics/SVG/1.1/DTD/svg11.dtd">
<svg xmlns:xlink="http://www.w3.org/1999/xlink" width="756pt" height="252pt" viewBox="0 0 756 252" xmlns="http://www.w3.org/2000/svg" version="1.1">
 <metadata>
  <rdf:RDF xmlns:dc="http://purl.org/dc/elements/1.1/" xmlns:cc="http://creativecommons.org/ns#" xmlns:rdf="http://www.w3.org/1999/02/22-rdf-syntax-ns#">
   <cc:Work>
    <dc:type rdf:resource="http://purl.org/dc/dcmitype/StillImage"/>
    <dc:date>2025-09-05T15:24:32.600809</dc:date>
    <dc:format>image/svg+xml</dc:format>
    <dc:creator>
     <cc:Agent>
      <dc:title>Matplotlib v3.10.5, https://matplotlib.org/</dc:title>
     </cc:Agent>
    </dc:creator>
   </cc:Work>
  </rdf:RDF>
 </metadata>
 <defs>
  <style type="text/css">*{stroke-linejoin: round; stroke-linecap: butt}</style>
 </defs>
 <g id="figure_1">
  <g id="patch_1">
   <path d="M 0 252 
L 756 252 
L 756 0 
L 0 0 
z
" style="fill: #ffffff"/>
  </g>
  <g id="axes_1">
   <g id="patch_2">
    <path d="M 94.5 224.28 
L 680.4 224.28 
L 680.4 30.24 
L 94.5 30.24 
z
" style="fill: #ffffff"/>
   </g>
   <g id="matplotlib.axis_1">
    <g id="xtick_1">
     <g id="line2d_1">
      <defs>
       <path id="m0f36905814" d="M 0 0 
L 0 3.5 
" style="stroke: #000000; stroke-width: 0.8"/>
      </defs>
      <g>
       <use xlink:href="#m0f36905814" x="124.021346" y="224.28" style="stroke: #000000; stroke-width: 0.8"/>
      </g>
     </g>
     <g id="text_1">
      <!-- 2024-03 -->
      <g transform="translate(103.12994 238.878438) scale(0.1 -0.1)">
       <defs>
        <path id="DejaVuSans-32" d="M 1228 531 
L 3431 531 
L 3431 0 
L 469 0 
L 469 531 
Q 828 903 1448 1529 
Q 2069 2156 2228 2338 
Q 2531 2678 2651 2914 
Q 2772 3150 2772 3378 
Q 2772 3750 2511 3984 
Q 2250 4219 1831 4219 
Q 1534 4219 1204 4116 
Q 875 4013 500 3803 
L 500 4441 
Q 881 4594 1212 4672 
Q 1544 4750 1819 4750 
Q 2544 4750 2975 4387 
Q 3406 4025 3406 3419 
Q 3406 3131 3298 2873 
Q 3191 2616 2906 2266 
Q 2828 2175 2409 1742 
Q 1991 1309 1228 531 
z
" transform="scale(0.015625)"/>
        <path id="DejaVuSans-30" d="M 2034 4250 
Q 1547 4250 1301 3770 
Q 1056 3291 1056 2328 
Q 1056 1369 1301 889 
Q 1547 409 2034 409 
Q 2525 409 2770 889 
Q 3016 1369 3016 2328 
Q 3016 3291 2770 3770 
Q 2525 4250 2034 4250 
z
M 2034 4750 
Q 2819 4750 3233 4129 
Q 3647 3509 3647 2328 
Q 3647 1150 3233 529 
Q 2819 -91 2034 -91 
Q 1250 -91 836 529 
Q 422 1150 422 2328 
Q 422 3509 836 4129 
Q 1250 4750 2034 4750 
z
" transform="scale(0.015625)"/>
        <path id="DejaVuSans-34" d="M 2419 4116 
L 825 1625 
L 2419 1625 
L 2419 4116 
z
M 2253 4666 
L 3047 4666 
L 3047 1625 
L 3713 1625 
L 3713 1100 
L 3047 1100 
L 3047 0 
L 2419 0 
L 2419 1100 
L 313 1100 
L 313 1709 
L 2253 4666 
z
" transform="scale(0.015625)"/>
        <path id="DejaVuSans-2d" d="M 313 2009 
L 1997 2009 
L 1997 1497 
L 313 1497 
L 313 2009 
z
" transform="scale(0.015625)"/>
        <path id="DejaVuSans-33" d="M 2597 2516 
Q 3050 2419 3304 2112 
Q 3559 1806 3559 1356 
Q 3559 666 3084 287 
Q 2609 -91 1734 -91 
Q 1441 -91 1130 -33 
Q 819 25 488 141 
L 488 750 
Q 750 597 1062 519 
Q 1375 441 1716 441 
Q 2309 441 2620 675 
Q 2931 909 2931 1356 
Q 2931 1769 2642 2001 
Q 2353 2234 1838 2234 
L 1294 2234 
L 1294 2753 
L 1863 2753 
Q 2328 2753 2575 2939 
Q 2822 3125 2822 3475 
Q 2822 3834 2567 4026 
Q 2313 4219 1838 4219 
Q 1578 4219 1281 4162 
Q 984 4106 628 3988 
L 628 4550 
Q 988 4650 1302 4700 
Q 1616 4750 1894 4750 
Q 2613 4750 3031 4423 
Q 3450 4097 3450 3541 
Q 3450 3153 3228 2886 
Q 3006 2619 2597 2516 
z
" transform="scale(0.015625)"/>
       </defs>
       <use xlink:href="#DejaVuSans-32"/>
       <use xlink:href="#DejaVuSans-30" transform="translate(63.623047 0)"/>
       <use xlink:href="#DejaVuSans-32" transform="translate(127.246094 0)"/>
       <use xlink:href="#DejaVuSans-34" transform="translate(190.869141 0)"/>
       <use xlink:href="#DejaVuSans-2d" transform="translate(254.492188 0)"/>
       <use xlink:href="#DejaVuSans-30" transform="translate(290.576172 0)"/>
       <use xlink:href="#DejaVuSans-33" transform="translate(354.199219 0)"/>
      </g>
     </g>
    </g>
    <g id="xtick_2">
     <g id="line2d_2">
      <g>
       <use xlink:href="#m0f36905814" x="182.775086" y="224.28" style="stroke: #000000; stroke-width: 0.8"/>
      </g>
     </g>
     <g id="text_2">
      <!-- 2024-05 -->
      <g transform="translate(161.88368 238.878438) scale(0.1 -0.1)">
       <defs>
        <path id="DejaVuSans-35" d="M 691 4666 
L 3169 4666 
L 3169 4134 
L 1269 4134 
L 1269 2991 
Q 1406 3038 1543 3061 
Q 1681 3084 1819 3084 
Q 2600 3084 3056 2656 
Q 3513 2228 3513 1497 
Q 3513 744 3044 326 
Q 2575 -91 1722 -91 
Q 1428 -91 1123 -41 
Q 819 9 494 109 
L 494 744 
Q 775 591 1075 516 
Q 1375 441 1709 441 
Q 2250 441 2565 725 
Q 2881 1009 2881 1497 
Q 2881 1984 2565 2268 
Q 2250 2553 1709 2553 
Q 1456 2553 1204 2497 
Q 953 2441 691 2322 
L 691 4666 
z
" transform="scale(0.015625)"/>
       </defs>
       <use xlink:href="#DejaVuSans-32"/>
       <use xlink:href="#DejaVuSans-30" transform="translate(63.623047 0)"/>
       <use xlink:href="#DejaVuSans-32" transform="translate(127.246094 0)"/>
       <use xlink:href="#DejaVuSans-34" transform="translate(190.869141 0)"/>
       <use xlink:href="#DejaVuSans-2d" transform="translate(254.492188 0)"/>
       <use xlink:href="#DejaVuSans-30" transform="translate(290.576172 0)"/>
       <use xlink:href="#DejaVuSans-35" transform="translate(354.199219 0)"/>
      </g>
     </g>
    </g>
    <g id="xtick_3">
     <g id="line2d_3">
      <g>
       <use xlink:href="#m0f36905814" x="241.528826" y="224.28" style="stroke: #000000; stroke-width: 0.8"/>
      </g>
     </g>
     <g id="text_3">
      <!-- 2024-07 -->
      <g transform="translate(220.63742 238.878438) scale(0.1 -0.1)">
       <defs>
        <path id="DejaVuSans-37" d="M 525 4666 
L 3525 4666 
L 3525 4397 
L 1831 0 
L 1172 0 
L 2766 4134 
L 525 4134 
L 525 4666 
z
" transform="scale(0.015625)"/>
       </defs>
       <use xlink:href="#DejaVuSans-32"/>
       <use xlink:href="#DejaVuSans-30" transform="translate(63.623047 0)"/>
       <use xlink:href="#DejaVuSans-32" transform="translate(127.246094 0)"/>
       <use xlink:href="#DejaVuSans-34" transform="translate(190.869141 0)"/>
       <use xlink:href="#DejaVuSans-2d" transform="translate(254.492188 0)"/>
       <use xlink:href="#DejaVuSans-30" transform="translate(290.576172 0)"/>
       <use xlink:href="#DejaVuSans-37" transform="translate(354.199219 0)"/>
      </g>
     </g>
    </g>
    <g id="xtick_4">
     <g id="line2d_4">
      <g>
       <use xlink:href="#m0f36905814" x="301.245742" y="224.28" style="stroke: #000000; stroke-width: 0.8"/>
      </g>
     </g>
     <g id="text_4">
      <!-- 2024-09 -->
      <g transform="translate(280.354336 238.878438) scale(0.1 -0.1)">
       <defs>
        <path id="DejaVuSans-39" d="M 703 97 
L 703 672 
Q 941 559 1184 500 
Q 1428 441 1663 441 
Q 2288 441 2617 861 
Q 2947 1281 2994 2138 
Q 2813 1869 2534 1725 
Q 2256 1581 1919 1581 
Q 1219 1581 811 2004 
Q 403 2428 403 3163 
Q 403 3881 828 4315 
Q 1253 4750 1959 4750 
Q 2769 4750 3195 4129 
Q 3622 3509 3622 2328 
Q 3622 1225 3098 567 
Q 2575 -91 1691 -91 
Q 1453 -91 1209 -44 
Q 966 3 703 97 
z
M 1959 2075 
Q 2384 2075 2632 2365 
Q 2881 2656 2881 3163 
Q 2881 3666 2632 3958 
Q 2384 4250 1959 4250 
Q 1534 4250 1286 3958 
Q 1038 3666 1038 3163 
Q 1038 2656 1286 2365 
Q 1534 2075 1959 2075 
z
" transform="scale(0.015625)"/>
       </defs>
       <use xlink:href="#DejaVuSans-32"/>
       <use xlink:href="#DejaVuSans-30" transform="translate(63.623047 0)"/>
       <use xlink:href="#DejaVuSans-32" transform="translate(127.246094 0)"/>
       <use xlink:href="#DejaVuSans-34" transform="translate(190.869141 0)"/>
       <use xlink:href="#DejaVuSans-2d" transform="translate(254.492188 0)"/>
       <use xlink:href="#DejaVuSans-30" transform="translate(290.576172 0)"/>
       <use xlink:href="#DejaVuSans-39" transform="translate(354.199219 0)"/>
      </g>
     </g>
    </g>
    <g id="xtick_5">
     <g id="line2d_5">
      <g>
       <use xlink:href="#m0f36905814" x="359.999482" y="224.28" style="stroke: #000000; stroke-width: 0.8"/>
      </g>
     </g>
     <g id="text_5">
      <!-- 2024-11 -->
      <g transform="translate(339.108076 238.878438) scale(0.1 -0.1)">
       <defs>
        <path id="DejaVuSans-31" d="M 794 531 
L 1825 531 
L 1825 4091 
L 703 3866 
L 703 4441 
L 1819 4666 
L 2450 4666 
L 2450 531 
L 3481 531 
L 3481 0 
L 794 0 
L 794 531 
z
" transform="scale(0.015625)"/>
       </defs>
       <use xlink:href="#DejaVuSans-32"/>
       <use xlink:href="#DejaVuSans-30" transform="translate(63.623047 0)"/>
       <use xlink:href="#DejaVuSans-32" transform="translate(127.246094 0)"/>
       <use xlink:href="#DejaVuSans-34" transform="translate(190.869141 0)"/>
       <use xlink:href="#DejaVuSans-2d" transform="translate(254.492188 0)"/>
       <use xlink:href="#DejaVuSans-31" transform="translate(290.576172 0)"/>
       <use xlink:href="#DejaVuSans-31" transform="translate(354.199219 0)"/>
      </g>
     </g>
    </g>
    <g id="xtick_6">
     <g id="line2d_6">
      <g>
       <use xlink:href="#m0f36905814" x="418.753222" y="224.28" style="stroke: #000000; stroke-width: 0.8"/>
      </g>
     </g>
     <g id="text_6">
      <!-- 2025-01 -->
      <g transform="translate(397.861816 238.878438) scale(0.1 -0.1)">
       <use xlink:href="#DejaVuSans-32"/>
       <use xlink:href="#DejaVuSans-30" transform="translate(63.623047 0)"/>
       <use xlink:href="#DejaVuSans-32" transform="translate(127.246094 0)"/>
       <use xlink:href="#DejaVuSans-35" transform="translate(190.869141 0)"/>
       <use xlink:href="#DejaVuSans-2d" transform="translate(254.492188 0)"/>
       <use xlink:href="#DejaVuSans-30" transform="translate(290.576172 0)"/>
       <use xlink:href="#DejaVuSans-31" transform="translate(354.199219 0)"/>
      </g>
     </g>
    </g>
    <g id="xtick_7">
     <g id="line2d_7">
      <g>
       <use xlink:href="#m0f36905814" x="475.58061" y="224.28" style="stroke: #000000; stroke-width: 0.8"/>
      </g>
     </g>
     <g id="text_7">
      <!-- 2025-03 -->
      <g transform="translate(454.689204 238.878438) scale(0.1 -0.1)">
       <use xlink:href="#DejaVuSans-32"/>
       <use xlink:href="#DejaVuSans-30" transform="translate(63.623047 0)"/>
       <use xlink:href="#DejaVuSans-32" transform="translate(127.246094 0)"/>
       <use xlink:href="#DejaVuSans-35" transform="translate(190.869141 0)"/>
       <use xlink:href="#DejaVuSans-2d" transform="translate(254.492188 0)"/>
       <use xlink:href="#DejaVuSans-30" transform="translate(290.576172 0)"/>
       <use xlink:href="#DejaVuSans-33" transform="translate(354.199219 0)"/>
      </g>
     </g>
    </g>
    <g id="xtick_8">
     <g id="line2d_8">
      <g>
       <use xlink:href="#m0f36905814" x="534.33435" y="224.28" style="stroke: #000000; stroke-width: 0.8"/>
      </g>
     </g>
     <g id="text_8">
      <!-- 2025-05 -->
      <g transform="translate(513.442944 238.878438) scale(0.1 -0.1)">
       <use xlink:href="#DejaVuSans-32"/>
       <use xlink:href="#DejaVuSans-30" transform="translate(63.623047 0)"/>
       <use xlink:href="#DejaVuSans-32" transform="translate(127.246094 0)"/>
       <use xlink:href="#DejaVuSans-35" transform="translate(190.869141 0)"/>
       <use xlink:href="#DejaVuSans-2d" transform="translate(254.492188 0)"/>
       <use xlink:href="#DejaVuSans-30" transform="translate(290.576172 0)"/>
       <use xlink:href="#DejaVuSans-35" transform="translate(354.199219 0)"/>
      </g>
     </g>
    </g>
    <g id="xtick_9">
     <g id="line2d_9">
      <g>
       <use xlink:href="#m0f36905814" x="593.08809" y="224.28" style="stroke: #000000; stroke-width: 0.8"/>
      </g>
     </g>
     <g id="text_9">
      <!-- 2025-07 -->
      <g transform="translate(572.196684 238.878438) scale(0.1 -0.1)">
       <use xlink:href="#DejaVuSans-32"/>
       <use xlink:href="#DejaVuSans-30" transform="translate(63.623047 0)"/>
       <use xlink:href="#DejaVuSans-32" transform="translate(127.246094 0)"/>
       <use xlink:href="#DejaVuSans-35" transform="translate(190.869141 0)"/>
       <use xlink:href="#DejaVuSans-2d" transform="translate(254.492188 0)"/>
       <use xlink:href="#DejaVuSans-30" transform="translate(290.576172 0)"/>
       <use xlink:href="#DejaVuSans-37" transform="translate(354.199219 0)"/>
      </g>
     </g>
    </g>
    <g id="xtick_10">
     <g id="line2d_10">
      <g>
       <use xlink:href="#m0f36905814" x="652.805006" y="224.28" style="stroke: #000000; stroke-width: 0.8"/>
      </g>
     </g>
     <g id="text_10">
      <!-- 2025-09 -->
      <g transform="translate(631.9136 238.878438) scale(0.1 -0.1)">
       <use xlink:href="#DejaVuSans-32"/>
       <use xlink:href="#DejaVuSans-30" transform="translate(63.623047 0)"/>
       <use xlink:href="#DejaVuSans-32" transform="translate(127.246094 0)"/>
       <use xlink:href="#DejaVuSans-35" transform="translate(190.869141 0)"/>
       <use xlink:href="#DejaVuSans-2d" transform="translate(254.492188 0)"/>
       <use xlink:href="#DejaVuSans-30" transform="translate(290.576172 0)"/>
       <use xlink:href="#DejaVuSans-39" transform="translate(354.199219 0)"/>
      </g>
     </g>
    </g>
   </g>
   <g id="matplotlib.axis_2">
    <g id="ytick_1">
     <g id="line2d_11">
      <defs>
       <path id="m1f93cf0dcb" d="M 0 0 
L -3.5 0 
" style="stroke: #000000; stroke-width: 0.8"/>
      </defs>
      <g>
       <use xlink:href="#m1f93cf0dcb" x="94.5" y="222.613929" style="stroke: #000000; stroke-width: 0.8"/>
      </g>
     </g>
     <g id="text_11">
      <!-- 160 -->
      <g transform="translate(68.4125 226.413148) scale(0.1 -0.1)">
       <defs>
        <path id="DejaVuSans-36" d="M 2113 2584 
Q 1688 2584 1439 2293 
Q 1191 2003 1191 1497 
Q 1191 994 1439 701 
Q 1688 409 2113 409 
Q 2538 409 2786 701 
Q 3034 994 3034 1497 
Q 3034 2003 2786 2293 
Q 2538 2584 2113 2584 
z
M 3366 4563 
L 3366 3988 
Q 3128 4100 2886 4159 
Q 2644 4219 2406 4219 
Q 1781 4219 1451 3797 
Q 1122 3375 1075 2522 
Q 1259 2794 1537 2939 
Q 1816 3084 2150 3084 
Q 2853 3084 3261 2657 
Q 3669 2231 3669 1497 
Q 3669 778 3244 343 
Q 2819 -91 2113 -91 
Q 1303 -91 875 529 
Q 447 1150 447 2328 
Q 447 3434 972 4092 
Q 1497 4750 2381 4750 
Q 2619 4750 2861 4703 
Q 3103 4656 3366 4563 
z
" transform="scale(0.015625)"/>
       </defs>
       <use xlink:href="#DejaVuSans-31"/>
       <use xlink:href="#DejaVuSans-36" transform="translate(63.623047 0)"/>
       <use xlink:href="#DejaVuSans-30" transform="translate(127.246094 0)"/>
      </g>
     </g>
    </g>
    <g id="ytick_2">
     <g id="line2d_12">
      <g>
       <use xlink:href="#m1f93cf0dcb" x="94.5" y="185.193552" style="stroke: #000000; stroke-width: 0.8"/>
      </g>
     </g>
     <g id="text_12">
      <!-- 180 -->
      <g transform="translate(68.4125 188.992771) scale(0.1 -0.1)">
       <defs>
        <path id="DejaVuSans-38" d="M 2034 2216 
Q 1584 2216 1326 1975 
Q 1069 1734 1069 1313 
Q 1069 891 1326 650 
Q 1584 409 2034 409 
Q 2484 409 2743 651 
Q 3003 894 3003 1313 
Q 3003 1734 2745 1975 
Q 2488 2216 2034 2216 
z
M 1403 2484 
Q 997 2584 770 2862 
Q 544 3141 544 3541 
Q 544 4100 942 4425 
Q 1341 4750 2034 4750 
Q 2731 4750 3128 4425 
Q 3525 4100 3525 3541 
Q 3525 3141 3298 2862 
Q 3072 2584 2669 2484 
Q 3125 2378 3379 2068 
Q 3634 1759 3634 1313 
Q 3634 634 3220 271 
Q 2806 -91 2034 -91 
Q 1263 -91 848 271 
Q 434 634 434 1313 
Q 434 1759 690 2068 
Q 947 2378 1403 2484 
z
M 1172 3481 
Q 1172 3119 1398 2916 
Q 1625 2713 2034 2713 
Q 2441 2713 2670 2916 
Q 2900 3119 2900 3481 
Q 2900 3844 2670 4047 
Q 2441 4250 2034 4250 
Q 1625 4250 1398 4047 
Q 1172 3844 1172 3481 
z
" transform="scale(0.015625)"/>
       </defs>
       <use xlink:href="#DejaVuSans-31"/>
       <use xlink:href="#DejaVuSans-38" transform="translate(63.623047 0)"/>
       <use xlink:href="#DejaVuSans-30" transform="translate(127.246094 0)"/>
      </g>
     </g>
    </g>
    <g id="ytick_3">
     <g id="line2d_13">
      <g>
       <use xlink:href="#m1f93cf0dcb" x="94.5" y="147.773174" style="stroke: #000000; stroke-width: 0.8"/>
      </g>
     </g>
     <g id="text_13">
      <!-- 200 -->
      <g transform="translate(68.4125 151.572393) scale(0.1 -0.1)">
       <use xlink:href="#DejaVuSans-32"/>
       <use xlink:href="#DejaVuSans-30" transform="translate(63.623047 0)"/>
       <use xlink:href="#DejaVuSans-30" transform="translate(127.246094 0)"/>
      </g>
     </g>
    </g>
    <g id="ytick_4">
     <g id="line2d_14">
      <g>
       <use xlink:href="#m1f93cf0dcb" x="94.5" y="110.352797" style="stroke: #000000; stroke-width: 0.8"/>
      </g>
     </g>
     <g id="text_14">
      <!-- 220 -->
      <g transform="translate(68.4125 114.152015) scale(0.1 -0.1)">
       <use xlink:href="#DejaVuSans-32"/>
       <use xlink:href="#DejaVuSans-32" transform="translate(63.623047 0)"/>
       <use xlink:href="#DejaVuSans-30" transform="translate(127.246094 0)"/>
      </g>
     </g>
    </g>
    <g id="ytick_5">
     <g id="line2d_15">
      <g>
       <use xlink:href="#m1f93cf0dcb" x="94.5" y="72.932419" style="stroke: #000000; stroke-width: 0.8"/>
      </g>
     </g>
     <g id="text_15">
      <!-- 240 -->
      <g transform="translate(68.4125 76.731638) scale(0.1 -0.1)">
       <use xlink:href="#DejaVuSans-32"/>
       <use xlink:href="#DejaVuSans-34" transform="translate(63.623047 0)"/>
       <use xlink:href="#DejaVuSans-30" transform="translate(127.246094 0)"/>
      </g>
     </g>
    </g>
    <g id="ytick_6">
     <g id="line2d_16">
      <g>
       <use xlink:href="#m1f93cf0dcb" x="94.5" y="35.512042" style="stroke: #000000; stroke-width: 0.8"/>
      </g>
     </g>
     <g id="text_16">
      <!-- 260 -->
      <g transform="translate(68.4125 39.31126) scale(0.1 -0.1)">
       <use xlink:href="#DejaVuSans-32"/>
       <use xlink:href="#DejaVuSans-36" transform="translate(63.623047 0)"/>
       <use xlink:href="#DejaVuSans-30" transform="translate(127.246094 0)"/>
      </g>
     </g>
    </g>
   </g>
   <g id="line2d_17">
    <path d="M 121.131818 182.709119 
L 122.094994 184.956905 
L 123.05817 186.201548 
L 124.021346 188.226392 
L 126.910875 196.697423 
L 127.874051 205.948711 
L 128.837227 207.806341 
L 129.800403 208.029283 
L 130.763579 204.815497 
L 133.653107 201.062981 
L 134.616283 200.171295 
L 135.579459 204.072382 
L 136.542635 200.598567 
L 137.505811 201.304481 
L 140.395339 199.261024 
L 142.321692 190.065521 
L 143.284868 203.626582 
L 144.248044 201.936053 
L 147.137572 204.592554 
L 148.100748 206.710269 
L 149.063924 200.022667 
L 150.0271 203.422196 
L 153.879804 206.11584 
L 154.84298 208.326484 
L 155.806157 206.821783 
L 156.769333 208.363655 
L 157.732509 206.951826 
L 160.622037 209.050984 
L 161.585213 206.78464 
L 162.548389 210.295627 
L 163.511565 196.80888 
L 164.474741 194.003779 
L 167.364269 201.174467 
L 168.327445 207.323369 
L 169.290621 209.886941 
L 170.253797 211.670342 
L 171.216974 215.46 
L 174.106502 213.899542 
L 175.069678 211.930399 
L 176.032854 207.992084 
L 176.99603 206.375897 
L 177.959206 207.471969 
L 180.848734 199.66971 
L 181.81191 205.558526 
L 182.775086 207.471969 
L 183.738262 200.542838 
L 184.701438 181.315818 
L 187.590967 184.418119 
L 188.554143 183.136362 
L 189.517319 182.504762 
L 190.480495 179.105203 
L 191.443671 181.467644 
L 195.296375 173.319993 
L 196.259551 169.060125 
L 197.222727 168.836925 
L 198.185903 168.781111 
L 201.075432 166.60467 
L 202.038608 164.1678 
L 203.001784 166.865098 
L 203.96496 174.343093 
L 204.928136 168.576497 
L 208.78084 168.557883 
L 209.744016 167.999826 
L 211.670368 164.353829 
L 214.559896 161.04266 
L 215.523072 160.447403 
L 216.486249 157.619919 
L 217.449425 160.205589 
L 218.412601 155.722521 
L 221.302129 162.735444 
L 222.265305 136.636878 
L 223.228481 125.624457 
L 224.191657 123.448073 
L 225.154833 126.703428 
L 228.044361 118.927776 
L 230.93389 131.930581 
L 231.897066 136.004364 
L 234.786594 134.795265 
L 235.74977 133.06528 
L 236.712946 125.289686 
L 237.676122 123.708473 
L 238.639298 130.182011 
L 241.528826 118.779005 
L 242.492002 112.231067 
L 243.455178 109.850012 
L 245.38153 100.93969 
L 248.271059 98.186549 
L 249.234235 96.586807 
L 250.197411 88.587956 
L 251.160587 98.65162 
L 252.123763 93.126867 
L 255.013291 85.946472 
L 255.976467 85.165159 
L 256.939643 96.21475 
L 257.902819 104.957715 
L 258.865995 104.715873 
L 261.755524 105.366915 
L 262.7187 103.413731 
L 263.681876 115.449222 
L 264.645052 117.402435 
L 265.608228 116.528107 
L 268.497756 116.00725 
L 269.460932 114.965565 
L 270.424108 108.864141 
L 271.387284 115.784022 
L 272.35046 112.993767 
L 275.239988 132.693252 
L 276.203165 136.488078 
L 277.166341 131.670124 
L 278.129517 125.178029 
L 279.092693 119.727647 
L 281.982221 116.859652 
L 282.945397 109.894435 
L 283.908573 109.056393 
L 284.871749 103.469317 
L 285.834925 100.992392 
L 288.724453 101.290392 
L 289.687629 100.135765 
L 290.650806 100.340579 
L 291.613982 103.823187 
L 292.577158 99.521123 
L 295.466686 98.887953 
L 296.429862 97.304941 
L 297.393038 100.172936 
L 298.356214 94.027232 
L 299.31939 95.498472 
L 303.172094 107.100896 
L 304.13527 110.676633 
L 305.098446 107.827252 
L 306.061623 110.732505 
L 308.951151 110.564891 
L 309.914327 112.054774 
L 310.877503 107.305768 
L 311.840679 107.100896 
L 312.803855 107.603738 
L 315.693383 119.113063 
L 316.656559 118.237821 
L 317.619735 110.974576 
L 318.582911 95.740572 
L 319.546087 96.988356 
L 322.435616 100.210222 
L 323.398792 98.53411 
L 324.361968 100.396479 
L 325.325144 98.254725 
L 326.28832 97.75194 
L 329.177848 88.049056 
L 330.141024 100.694393 
L 331.1042 99.632894 
L 332.067376 101.700077 
L 333.030552 99.595666 
L 335.920081 109.112236 
L 337.846433 94.492817 
L 338.809609 95.423987 
L 339.772785 98.198854 
L 342.662313 91.215051 
L 343.625489 86.466073 
L 344.588665 90.321138 
L 345.551841 89.632068 
L 346.515017 84.324376 
L 349.404545 81.568124 
L 350.367722 82.722722 
L 351.330898 92.220763 
L 352.294074 92.574549 
L 353.25725 91.01018 
L 356.146778 87.304114 
L 357.109954 86.801272 
L 358.07313 93.449876 
L 359.036306 101.253135 
L 359.999482 106.840211 
L 362.88901 108.516323 
L 363.852186 105.834527 
L 364.815362 107.194053 
L 365.778539 98.329211 
L 366.741715 98.832624 
L 369.631243 103.922454 
L 370.594419 103.922454 
L 371.557595 102.263158 
L 372.520771 96.483487 
L 373.483947 102.486843 
L 376.373475 96.856371 
L 377.336651 96.37163 
L 378.299827 95.029262 
L 379.263003 95.924145 
L 380.22618 93.407223 
L 383.115708 87.814037 
L 384.078884 83.730975 
L 385.04206 83.973389 
L 386.968412 79.4988 
L 389.85794 75.285296 
L 390.821116 69.580196 
L 391.784292 68.908998 
L 392.747468 68.853098 
L 393.710644 69.225983 
L 396.600173 61.936158 
L 397.563349 60.034448 
L 398.526525 62.420871 
L 399.489701 59.680235 
L 400.452877 59.363278 
L 403.342405 53.937878 
L 404.305581 49.388746 
L 405.268757 59.512421 
L 406.231933 56.268372 
L 407.195109 47.505679 
L 410.084638 46.051454 
L 411.047814 40.588711 
L 412.974166 39.06 
L 413.937342 45.454884 
L 416.82687 51.775169 
L 417.790046 55.093789 
L 419.716398 67.342916 
L 420.679574 68.256442 
L 423.569102 65.19885 
L 424.532278 70.400508 
L 425.495455 69.486953 
L 427.421807 80.393684 
L 430.311335 84.961487 
L 431.274511 87.049624 
L 432.237687 78.492031 
L 433.200863 96.408915 
L 434.164039 93.202181 
L 438.016743 106.886861 
L 438.979919 104.668195 
L 439.943096 104.985151 
L 440.906272 106.625833 
L 443.7958 93.425866 
L 444.758976 77.764904 
L 445.722152 75.714052 
L 447.648504 81.978437 
L 450.538032 96.875014 
L 451.501208 87.944536 
L 452.464384 88.559778 
L 453.42756 87.161481 
L 454.390736 97.58347 
L 457.280265 97.079571 
L 458.243441 87.803274 
L 460.169793 71.1732 
L 461.132969 65.443205 
L 464.985673 65.685847 
L 465.948849 64.939278 
L 466.912025 63.147484 
L 467.875201 63.670082 
L 470.76473 60.777077 
L 471.727906 60.889077 
L 472.691082 73.356979 
L 473.654258 79.068302 
L 474.617434 70.594616 
L 477.506962 77.705807 
L 478.470138 81.625337 
L 479.433314 81.97995 
L 480.39649 82.74519 
L 481.359666 75.764671 
L 484.249194 97.396842 
L 485.212371 109.790058 
L 486.175547 116.994577 
L 487.138723 130.619646 
L 488.101899 123.508455 
L 490.991427 122.556587 
L 491.954603 125.00165 
L 492.917779 120.242195 
L 493.880955 122.36993 
L 494.844131 114.586856 
L 497.733659 109.995386 
L 498.696835 104.35869 
L 499.660012 108.502248 
L 500.623188 104.172062 
L 501.586364 115.27744 
L 504.475892 107.382337 
L 505.439068 105.403915 
L 506.402244 104.097405 
L 507.36542 142.732906 
L 508.328596 170.375029 
L 511.218124 183.290872 
L 512.1813 200.163587 
L 513.144476 150.833308 
L 514.107652 166.56747 
L 515.070829 152.139846 
L 517.960357 143.98343 
L 518.923533 144.692685 
L 519.886709 159.381651 
L 520.849885 154.323567 
L 524.702589 161.45343 
L 525.665765 149.172156 
L 526.628941 140.101186 
L 527.592117 133.064709 
L 528.555293 131.366243 
L 531.444822 129.761077 
L 532.407998 127.763984 
L 533.371174 125.356263 
L 534.33435 123.825754 
L 535.297526 138.701376 
L 538.187054 150.758651 
L 539.15023 151.467934 
L 540.113406 155.686092 
L 541.076582 153.371671 
L 542.039758 151.430563 
L 544.929287 128.031978 
L 545.892463 124.032538 
L 546.855639 125.153876 
L 547.818815 126.798498 
L 548.781991 127.153596 
L 551.671519 131.788462 
L 552.634695 135.376732 
L 553.597871 144.291394 
L 554.561047 145.655688 
L 555.524223 157.037253 
L 559.376928 147.804893 
L 560.340104 147.412452 
L 561.30328 148.290833 
L 562.266456 146.608812 
L 565.155984 145.020262 
L 566.11916 142.086089 
L 567.082336 142.927071 
L 568.045512 147.019953 
L 569.008688 140.871308 
L 571.898216 145.487474 
L 572.861392 143.207427 
L 573.824568 150.477438 
L 574.787745 149.692499 
L 575.750921 154.831977 
L 578.640449 151.150235 
L 579.603625 156.345784 
L 580.566801 154.589021 
L 582.493153 146.328485 
L 585.382681 145.394032 
L 586.345857 147.636708 
L 587.309033 145.281889 
L 588.272209 146.328485 
L 589.235386 146.178971 
L 592.124914 138.53519 
L 593.08809 133.582597 
L 594.051266 124.948291 
L 595.014442 122.8738 
L 598.867146 129.601857 
L 599.830322 129.489715 
L 601.756674 125.004362 
L 602.71985 127.340481 
L 605.609379 132.087489 
L 606.572555 131.171707 
L 607.535731 129.209359 
L 608.498907 129.471015 
L 609.462083 127.30311 
L 612.351611 124.873549 
L 613.314787 121.28525 
L 614.277963 121.752491 
L 615.241139 122.481359 
L 616.204315 122.257074 
L 619.093843 121.939347 
L 620.05702 127.134896 
L 621.020196 131.28385 
L 621.983372 134.049809 
L 622.946548 143.749382 
L 625.836076 141.936547 
L 626.799252 142.740215 
L 627.762428 123.434484 
L 628.725604 110.763367 
L 629.68878 93.345213 
L 632.578308 96.918895 
L 633.541484 92.297476 
L 634.504661 85.412112 
L 635.467837 86.441178 
L 636.431013 88.667695 
L 639.320541 89.977402 
L 640.283717 90.594842 
L 641.246893 99.107984 
L 642.210069 101.184816 
L 643.173245 95.8337 
L 646.062773 96.956295 
L 647.025949 92.933616 
L 647.989125 90.725798 
L 648.952301 86.852804 
L 649.915478 87.638629 
L 653.768182 92.166491 
L 653.768182 92.166491 
" clip-path="url(#p8dc48dcc30)" style="fill: none; stroke: #1f77b4; stroke-width: 1.5; stroke-linecap: square"/>
   </g>
   <g id="patch_3">
    <path d="M 94.5 224.28 
L 94.5 30.24 
" style="fill: none; stroke: #000000; stroke-width: 0.8; stroke-linejoin: miter; stroke-linecap: square"/>
   </g>
   <g id="patch_4">
    <path d="M 94.5 224.28 
L 680.4 224.28 
" style="fill: none; stroke: #000000; stroke-width: 0.8; stroke-linejoin: miter; stroke-linecap: square"/>
   </g>
  </g>
 </g>
 <defs>
  <clipPath id="p8dc48dcc30">
   <rect x="94.5" y="30.24" width="585.9" height="194.04"/>
  </clipPath>
 </defs>
</svg>
