<?xml version="1.0" encoding="utf-8" standalone="no"?>
<!DOCTYPE svg PUBLIC "-//W3C//DTD SVG 1.1//EN"
  "http://www.w3.org/Graphics/SVG/1.1/DTD/svg11.dtd">
<svg xmlns:xlink="http://www.w3.org/1999/xlink" width="1166.4pt" height="252pt" viewBox="0 0 1166.4 252" xmlns="http://www.w3.org/2000/svg" version="1.1">
 <metadata>
  <rdf:RDF xmlns:dc="http://purl.org/dc/elements/1.1/" xmlns:cc="http://creativecommons.org/ns#" xmlns:rdf="http://www.w3.org/1999/02/22-rdf-syntax-ns#">
   <cc:Work>
    <dc:type rdf:resource="http://purl.org/dc/dcmitype/StillImage"/>
    <dc:date>2025-09-08T17:06:51.781677</dc:date>
    <dc:format>image/svg+xml</dc:format>
    <dc:creator>
     <cc:Agent>
      <dc:title>Matplotlib v3.10.5, https://matplotlib.org/</dc:title>
     </cc:Agent>
    </dc:creator>
   </cc:Work>
  </rdf:RDF>
 </metadata>
 <defs>
  <style type="text/css">*{stroke-linejoin: round; stroke-linecap: butt}</style>
 </defs>
 <g id="figure_1">
  <g id="patch_1">
   <path d="M 0 252 
L 1166.4 252 
L 1166.4 0 
L 0 0 
z
" style="fill: #ffffff"/>
  </g>
  <g id="axes_1">
   <g id="patch_2">
    <path d="M 145.8 224.28 
L 1049.76 224.28 
L 1049.76 30.24 
L 145.8 30.24 
z
" style="fill: #ffffff"/>
   </g>
   <g id="matplotlib.axis_1">
    <g id="xtick_1">
     <g id="line2d_1">
      <defs>
       <path id="m08b9a364b0" d="M 0 0 
L 0 3.5 
" style="stroke: #000000; stroke-width: 0.8"/>
      </defs>
      <g>
       <use xlink:href="#m08b9a364b0" x="178.48314" y="224.28" style="stroke: #000000; stroke-width: 0.8"/>
      </g>
     </g>
     <g id="text_1">
      <!-- 2020 -->
      <g transform="translate(165.75814 238.878438) scale(0.1 -0.1)">
       <defs>
        <path id="DejaVuSans-32" d="M 1228 531 
L 3431 531 
L 3431 0 
L 469 0 
L 469 531 
Q 828 903 1448 1529 
Q 2069 2156 2228 2338 
Q 2531 2678 2651 2914 
Q 2772 3150 2772 3378 
Q 2772 3750 2511 3984 
Q 2250 4219 1831 4219 
Q 1534 4219 1204 4116 
Q 875 4013 500 3803 
L 500 4441 
Q 881 4594 1212 4672 
Q 1544 4750 1819 4750 
Q 2544 4750 2975 4387 
Q 3406 4025 3406 3419 
Q 3406 3131 3298 2873 
Q 3191 2616 2906 2266 
Q 2828 2175 2409 1742 
Q 1991 1309 1228 531 
z
" transform="scale(0.015625)"/>
        <path id="DejaVuSans-30" d="M 2034 4250 
Q 1547 4250 1301 3770 
Q 1056 3291 1056 2328 
Q 1056 1369 1301 889 
Q 1547 409 2034 409 
Q 2525 409 2770 889 
Q 3016 1369 3016 2328 
Q 3016 3291 2770 3770 
Q 2525 4250 2034 4250 
z
M 2034 4750 
Q 2819 4750 3233 4129 
Q 3647 3509 3647 2328 
Q 3647 1150 3233 529 
Q 2819 -91 2034 -91 
Q 1250 -91 836 529 
Q 422 1150 422 2328 
Q 422 3509 836 4129 
Q 1250 4750 2034 4750 
z
" transform="scale(0.015625)"/>
       </defs>
       <use xlink:href="#DejaVuSans-32"/>
       <use xlink:href="#DejaVuSans-30" transform="translate(63.623047 0)"/>
       <use xlink:href="#DejaVuSans-32" transform="translate(127.246094 0)"/>
       <use xlink:href="#DejaVuSans-30" transform="translate(190.869141 0)"/>
      </g>
     </g>
    </g>
    <g id="xtick_2">
     <g id="line2d_2">
      <g>
       <use xlink:href="#m08b9a364b0" x="324.986864" y="224.28" style="stroke: #000000; stroke-width: 0.8"/>
      </g>
     </g>
     <g id="text_2">
      <!-- 2021 -->
      <g transform="translate(312.261864 238.878438) scale(0.1 -0.1)">
       <defs>
        <path id="DejaVuSans-31" d="M 794 531 
L 1825 531 
L 1825 4091 
L 703 3866 
L 703 4441 
L 1819 4666 
L 2450 4666 
L 2450 531 
L 3481 531 
L 3481 0 
L 794 0 
L 794 531 
z
" transform="scale(0.015625)"/>
       </defs>
       <use xlink:href="#DejaVuSans-32"/>
       <use xlink:href="#DejaVuSans-30" transform="translate(63.623047 0)"/>
       <use xlink:href="#DejaVuSans-32" transform="translate(127.246094 0)"/>
       <use xlink:href="#DejaVuSans-31" transform="translate(190.869141 0)"/>
      </g>
     </g>
    </g>
    <g id="xtick_3">
     <g id="line2d_3">
      <g>
       <use xlink:href="#m08b9a364b0" x="471.090304" y="224.28" style="stroke: #000000; stroke-width: 0.8"/>
      </g>
     </g>
     <g id="text_3">
      <!-- 2022 -->
      <g transform="translate(458.365304 238.878438) scale(0.1 -0.1)">
       <use xlink:href="#DejaVuSans-32"/>
       <use xlink:href="#DejaVuSans-30" transform="translate(63.623047 0)"/>
       <use xlink:href="#DejaVuSans-32" transform="translate(127.246094 0)"/>
       <use xlink:href="#DejaVuSans-32" transform="translate(190.869141 0)"/>
      </g>
     </g>
    </g>
    <g id="xtick_4">
     <g id="line2d_4">
      <g>
       <use xlink:href="#m08b9a364b0" x="617.193745" y="224.28" style="stroke: #000000; stroke-width: 0.8"/>
      </g>
     </g>
     <g id="text_4">
      <!-- 2023 -->
      <g transform="translate(604.468745 238.878438) scale(0.1 -0.1)">
       <defs>
        <path id="DejaVuSans-33" d="M 2597 2516 
Q 3050 2419 3304 2112 
Q 3559 1806 3559 1356 
Q 3559 666 3084 287 
Q 2609 -91 1734 -91 
Q 1441 -91 1130 -33 
Q 819 25 488 141 
L 488 750 
Q 750 597 1062 519 
Q 1375 441 1716 441 
Q 2309 441 2620 675 
Q 2931 909 2931 1356 
Q 2931 1769 2642 2001 
Q 2353 2234 1838 2234 
L 1294 2234 
L 1294 2753 
L 1863 2753 
Q 2328 2753 2575 2939 
Q 2822 3125 2822 3475 
Q 2822 3834 2567 4026 
Q 2313 4219 1838 4219 
Q 1578 4219 1281 4162 
Q 984 4106 628 3988 
L 628 4550 
Q 988 4650 1302 4700 
Q 1616 4750 1894 4750 
Q 2613 4750 3031 4423 
Q 3450 4097 3450 3541 
Q 3450 3153 3228 2886 
Q 3006 2619 2597 2516 
z
" transform="scale(0.015625)"/>
       </defs>
       <use xlink:href="#DejaVuSans-32"/>
       <use xlink:href="#DejaVuSans-30" transform="translate(63.623047 0)"/>
       <use xlink:href="#DejaVuSans-32" transform="translate(127.246094 0)"/>
       <use xlink:href="#DejaVuSans-33" transform="translate(190.869141 0)"/>
      </g>
     </g>
    </g>
    <g id="xtick_5">
     <g id="line2d_5">
      <g>
       <use xlink:href="#m08b9a364b0" x="763.297185" y="224.28" style="stroke: #000000; stroke-width: 0.8"/>
      </g>
     </g>
     <g id="text_5">
      <!-- 2024 -->
      <g transform="translate(750.572185 238.878438) scale(0.1 -0.1)">
       <defs>
        <path id="DejaVuSans-34" d="M 2419 4116 
L 825 1625 
L 2419 1625 
L 2419 4116 
z
M 2253 4666 
L 3047 4666 
L 3047 1625 
L 3713 1625 
L 3713 1100 
L 3047 1100 
L 3047 0 
L 2419 0 
L 2419 1100 
L 313 1100 
L 313 1709 
L 2253 4666 
z
" transform="scale(0.015625)"/>
       </defs>
       <use xlink:href="#DejaVuSans-32"/>
       <use xlink:href="#DejaVuSans-30" transform="translate(63.623047 0)"/>
       <use xlink:href="#DejaVuSans-32" transform="translate(127.246094 0)"/>
       <use xlink:href="#DejaVuSans-34" transform="translate(190.869141 0)"/>
      </g>
     </g>
    </g>
    <g id="xtick_6">
     <g id="line2d_6">
      <g>
       <use xlink:href="#m08b9a364b0" x="909.80091" y="224.28" style="stroke: #000000; stroke-width: 0.8"/>
      </g>
     </g>
     <g id="text_6">
      <!-- 2025 -->
      <g transform="translate(897.07591 238.878438) scale(0.1 -0.1)">
       <defs>
        <path id="DejaVuSans-35" d="M 691 4666 
L 3169 4666 
L 3169 4134 
L 1269 4134 
L 1269 2991 
Q 1406 3038 1543 3061 
Q 1681 3084 1819 3084 
Q 2600 3084 3056 2656 
Q 3513 2228 3513 1497 
Q 3513 744 3044 326 
Q 2575 -91 1722 -91 
Q 1428 -91 1123 -41 
Q 819 9 494 109 
L 494 744 
Q 775 591 1075 516 
Q 1375 441 1709 441 
Q 2250 441 2565 725 
Q 2881 1009 2881 1497 
Q 2881 1984 2565 2268 
Q 2250 2553 1709 2553 
Q 1456 2553 1204 2497 
Q 953 2441 691 2322 
L 691 4666 
z
" transform="scale(0.015625)"/>
       </defs>
       <use xlink:href="#DejaVuSans-32"/>
       <use xlink:href="#DejaVuSans-30" transform="translate(63.623047 0)"/>
       <use xlink:href="#DejaVuSans-32" transform="translate(127.246094 0)"/>
       <use xlink:href="#DejaVuSans-35" transform="translate(190.869141 0)"/>
      </g>
     </g>
    </g>
   </g>
   <g id="matplotlib.axis_2">
    <g id="ytick_1">
     <g id="line2d_7">
      <defs>
       <path id="m74e67a353c" d="M 0 0 
L -3.5 0 
" style="stroke: #000000; stroke-width: 0.8"/>
      </defs>
      <g>
       <use xlink:href="#m74e67a353c" x="145.8" y="221.492578" style="stroke: #000000; stroke-width: 0.8"/>
      </g>
     </g>
     <g id="text_7">
      <!-- 0 -->
      <g transform="translate(132.4375 225.291797) scale(0.1 -0.1)">
       <use xlink:href="#DejaVuSans-30"/>
      </g>
     </g>
    </g>
    <g id="ytick_2">
     <g id="line2d_8">
      <g>
       <use xlink:href="#m74e67a353c" x="145.8" y="183.550207" style="stroke: #000000; stroke-width: 0.8"/>
      </g>
     </g>
     <g id="text_8">
      <!-- 20 -->
      <g transform="translate(126.075 187.349426) scale(0.1 -0.1)">
       <use xlink:href="#DejaVuSans-32"/>
       <use xlink:href="#DejaVuSans-30" transform="translate(63.623047 0)"/>
      </g>
     </g>
    </g>
    <g id="ytick_3">
     <g id="line2d_9">
      <g>
       <use xlink:href="#m74e67a353c" x="145.8" y="145.607837" style="stroke: #000000; stroke-width: 0.8"/>
      </g>
     </g>
     <g id="text_9">
      <!-- 40 -->
      <g transform="translate(126.075 149.407055) scale(0.1 -0.1)">
       <use xlink:href="#DejaVuSans-34"/>
       <use xlink:href="#DejaVuSans-30" transform="translate(63.623047 0)"/>
      </g>
     </g>
    </g>
    <g id="ytick_4">
     <g id="line2d_10">
      <g>
       <use xlink:href="#m74e67a353c" x="145.8" y="107.665466" style="stroke: #000000; stroke-width: 0.8"/>
      </g>
     </g>
     <g id="text_10">
      <!-- 60 -->
      <g transform="translate(126.075 111.464685) scale(0.1 -0.1)">
       <defs>
        <path id="DejaVuSans-36" d="M 2113 2584 
Q 1688 2584 1439 2293 
Q 1191 2003 1191 1497 
Q 1191 994 1439 701 
Q 1688 409 2113 409 
Q 2538 409 2786 701 
Q 3034 994 3034 1497 
Q 3034 2003 2786 2293 
Q 2538 2584 2113 2584 
z
M 3366 4563 
L 3366 3988 
Q 3128 4100 2886 4159 
Q 2644 4219 2406 4219 
Q 1781 4219 1451 3797 
Q 1122 3375 1075 2522 
Q 1259 2794 1537 2939 
Q 1816 3084 2150 3084 
Q 2853 3084 3261 2657 
Q 3669 2231 3669 1497 
Q 3669 778 3244 343 
Q 2819 -91 2113 -91 
Q 1303 -91 875 529 
Q 447 1150 447 2328 
Q 447 3434 972 4092 
Q 1497 4750 2381 4750 
Q 2619 4750 2861 4703 
Q 3103 4656 3366 4563 
z
" transform="scale(0.015625)"/>
       </defs>
       <use xlink:href="#DejaVuSans-36"/>
       <use xlink:href="#DejaVuSans-30" transform="translate(63.623047 0)"/>
      </g>
     </g>
    </g>
    <g id="ytick_5">
     <g id="line2d_11">
      <g>
       <use xlink:href="#m74e67a353c" x="145.8" y="69.723095" style="stroke: #000000; stroke-width: 0.8"/>
      </g>
     </g>
     <g id="text_11">
      <!-- 80 -->
      <g transform="translate(126.075 73.522314) scale(0.1 -0.1)">
       <defs>
        <path id="DejaVuSans-38" d="M 2034 2216 
Q 1584 2216 1326 1975 
Q 1069 1734 1069 1313 
Q 1069 891 1326 650 
Q 1584 409 2034 409 
Q 2484 409 2743 651 
Q 3003 894 3003 1313 
Q 3003 1734 2745 1975 
Q 2488 2216 2034 2216 
z
M 1403 2484 
Q 997 2584 770 2862 
Q 544 3141 544 3541 
Q 544 4100 942 4425 
Q 1341 4750 2034 4750 
Q 2731 4750 3128 4425 
Q 3525 4100 3525 3541 
Q 3525 3141 3298 2862 
Q 3072 2584 2669 2484 
Q 3125 2378 3379 2068 
Q 3634 1759 3634 1313 
Q 3634 634 3220 271 
Q 2806 -91 2034 -91 
Q 1263 -91 848 271 
Q 434 634 434 1313 
Q 434 1759 690 2068 
Q 947 2378 1403 2484 
z
M 1172 3481 
Q 1172 3119 1398 2916 
Q 1625 2713 2034 2713 
Q 2441 2713 2670 2916 
Q 2900 3119 2900 3481 
Q 2900 3844 2670 4047 
Q 2441 4250 2034 4250 
Q 1625 4250 1398 4047 
Q 1172 3844 1172 3481 
z
" transform="scale(0.015625)"/>
       </defs>
       <use xlink:href="#DejaVuSans-38"/>
       <use xlink:href="#DejaVuSans-30" transform="translate(63.623047 0)"/>
      </g>
     </g>
    </g>
    <g id="ytick_6">
     <g id="line2d_12">
      <g>
       <use xlink:href="#m74e67a353c" x="145.8" y="31.780724" style="stroke: #000000; stroke-width: 0.8"/>
      </g>
     </g>
     <g id="text_12">
      <!-- 100 -->
      <g transform="translate(119.7125 35.579943) scale(0.1 -0.1)">
       <use xlink:href="#DejaVuSans-31"/>
       <use xlink:href="#DejaVuSans-30" transform="translate(63.623047 0)"/>
       <use xlink:href="#DejaVuSans-30" transform="translate(127.246094 0)"/>
      </g>
     </g>
    </g>
   </g>
   <g id="line2d_13">
    <path d="M 186.889091 87.046864 
L 187.289374 85.085062 
L 187.689658 78.446582 
L 188.890508 108.588285 
L 189.290791 93.602912 
L 189.691075 91.605916 
L 190.091358 100.306069 
L 190.491642 127.833967 
L 191.692492 139.940216 
L 192.092775 117.644859 
L 192.493058 112.183011 
L 192.893342 112.353068 
L 193.293625 123.726968 
L 194.494475 118.44511 
L 194.894759 122.876475 
L 195.295042 115.332738 
L 195.695326 117.341518 
L 196.095609 102.36092 
L 197.696743 123.512255 
L 198.097026 126.561514 
L 198.497309 130.827672 
L 198.897593 119.446442 
L 200.098443 139.774363 
L 200.498726 167.121878 
L 200.89901 163.422509 
L 201.299293 181.724176 
L 201.699577 179.698362 
L 202.900427 146.728159 
L 203.30071 151.640501 
L 203.700994 145.8529 
L 204.101277 150.271014 
L 204.50156 152.441135 
L 205.702411 160.280361 
L 206.102694 148.845062 
L 206.502977 151.659729 
L 206.903261 158.990639 
L 207.303544 135.992139 
L 208.504394 145.507426 
L 208.904678 142.585563 
L 209.304961 138.021367 
L 209.705245 138.661883 
L 210.105528 157.254754 
L 211.306378 155.847631 
L 211.706662 150.721434 
L 212.106945 147.891143 
L 212.507228 139.791802 
L 212.907512 135.024884 
L 214.108362 141.388605 
L 214.508645 137.364555 
L 214.908929 130.64788 
L 215.309212 147.901688 
L 215.709496 127.295688 
L 217.310629 116.748078 
L 217.710913 110.753916 
L 218.111196 94.260481 
L 219.71233 85.936472 
L 220.112613 90.419874 
L 220.512896 91.971101 
L 220.91318 98.667912 
L 221.313463 89.269771 
L 222.514313 102.738901 
L 222.914597 112.701311 
L 223.31488 89.626238 
L 223.715164 93.909154 
L 224.115447 83.627822 
L 225.316297 98.903524 
L 225.716581 101.529956 
L 226.116864 99.191284 
L 226.517147 95.650566 
L 226.917431 107.515677 
L 228.118281 118.208956 
L 228.518564 108.983163 
L 228.918848 108.107019 
L 229.319131 98.494665 
L 229.719415 81.754228 
L 230.920265 60.652019 
L 231.320548 73.180999 
L 232.121115 83.882317 
L 232.521398 88.093271 
L 233.722249 72.404607 
L 234.122532 83.543285 
L 234.522815 83.510594 
L 234.923099 77.683381 
L 235.323382 79.439215 
L 237.324799 91.508448 
L 237.725083 95.318212 
L 238.125366 107.895942 
L 239.326216 109.810868 
L 240.126783 78.562788 
L 240.527066 92.373324 
L 240.92735 73.825792 
L 242.1282 79.76653 
L 242.528483 63.228391 
L 242.928767 61.453877 
L 243.32905 98.166495 
L 243.729334 97.279183 
L 244.930184 89.09996 
L 245.330467 83.133748 
L 245.730751 84.140964 
L 246.131034 83.468969 
L 246.531317 90.096984 
L 247.732168 84.513844 
L 248.132451 80.903719 
L 248.532734 86.664799 
L 248.933018 89.500523 
L 249.333301 106.37126 
L 250.534151 108.300375 
L 250.934435 113.475533 
L 251.334718 88.382235 
L 251.735002 90.830295 
L 253.336135 86.316271 
L 253.736419 96.406196 
L 254.136702 87.866309 
L 254.536985 86.734942 
L 254.937269 82.521146 
L 256.138119 93.341482 
L 256.538402 94.624515 
L 256.938686 78.283536 
L 257.338969 93.336055 
L 257.739253 66.655753 
L 258.940103 66.676594 
L 259.340386 84.703179 
L 259.74067 81.827347 
L 260.140953 116.867389 
L 260.541236 131.842355 
L 261.742087 117.682859 
L 262.14237 138.483081 
L 262.542653 130.367961 
L 262.942937 125.295396 
L 263.34322 91.027426 
L 264.54407 88.846851 
L 264.944354 88.732246 
L 265.744921 75.686222 
L 266.145204 89.71047 
L 267.346054 81.582303 
L 267.746338 94.782373 
L 268.146621 72.728038 
L 268.546904 69.637231 
L 268.947188 72.415468 
L 270.148038 66.946694 
L 270.948605 68.937124 
L 271.348888 80.111686 
L 271.749172 74.268775 
L 272.950022 73.156093 
L 273.350305 78.864576 
L 273.750588 82.51174 
L 274.150872 76.886233 
L 274.551155 80.957609 
L 275.752005 54.795936 
L 276.152289 53.534983 
L 276.552572 71.603369 
L 276.952856 111.985405 
L 277.353139 110.96406 
L 278.954273 132.337473 
L 279.354556 123.576793 
L 279.754839 135.492945 
L 280.155123 151.791899 
L 281.355973 147.160107 
L 281.756256 145.114257 
L 282.15654 154.285099 
L 282.556823 154.660679 
L 282.957107 158.822479 
L 284.157957 161.249034 
L 284.55824 170.342649 
L 284.958524 172.278743 
L 285.358807 155.89774 
L 285.75909 144.925229 
L 286.959941 121.505387 
L 287.360224 135.163914 
L 287.760507 120.129672 
L 288.160791 112.996265 
L 288.561074 133.21925 
L 289.761924 124.176919 
L 290.162208 123.992471 
L 290.962775 103.746222 
L 291.363058 106.496228 
L 292.563908 95.33291 
L 292.964192 90.562501 
L 293.364475 92.223173 
L 293.764758 101.780118 
L 294.165042 114.285324 
L 295.365892 121.261053 
L 295.766175 121.773687 
L 296.166459 126.40543 
L 296.566742 118.053343 
L 296.967026 131.69092 
L 298.167876 119.188424 
L 298.568159 120.553113 
L 298.968443 138.972214 
L 299.368726 131.667604 
L 299.769009 175.543681 
L 300.96986 170.066691 
L 301.370143 162.403015 
L 302.17071 126.609452 
L 302.570993 118.003353 
L 303.771843 129.491709 
L 304.172127 128.674563 
L 304.57241 115.937746 
L 304.972694 114.625686 
L 305.372977 114.529767 
L 306.573827 115.763366 
L 306.974111 99.730845 
L 307.374394 116.340417 
L 307.774677 81.522112 
L 309.375811 112.401713 
L 309.776094 124.731163 
L 310.176378 141.704715 
L 310.976945 137.690883 
L 312.177795 112.337531 
L 312.578078 96.758991 
L 312.978362 107.997672 
L 313.378645 107.121376 
L 313.778928 111.526373 
L 314.979779 109.61883 
L 315.380062 101.658843 
L 315.780345 109.018555 
L 316.580912 103.256943 
L 317.781762 84.163051 
L 318.182046 73.029772 
L 318.582329 75.143487 
L 318.982613 74.493906 
L 319.382896 93.232988 
L 320.583746 99.847529 
L 320.98403 90.025678 
L 321.384313 94.374432 
L 321.784596 88.059311 
L 323.38573 81.377322 
L 323.786013 91.488694 
L 324.186297 84.470652 
L 324.58658 92.720837 
L 326.187714 103.645218 
L 326.587997 97.305906 
L 326.988281 130.948327 
L 327.388564 117.53441 
L 327.788847 116.904119 
L 328.989698 120.102653 
L 329.790264 129.692469 
L 330.190548 132.753393 
L 330.590831 140.712059 
L 332.191965 156.104338 
L 332.992532 117.998382 
L 333.392815 109.713386 
L 334.593665 91.36277 
L 334.993949 93.679916 
L 335.394232 80.317273 
L 335.794515 108.522861 
L 336.194799 126.871757 
L 337.395649 112.818041 
L 337.795932 110.367412 
L 338.196216 118.382334 
L 338.596499 104.610998 
L 338.996783 100.143749 
L 340.197633 101.209235 
L 340.597916 113.974146 
L 340.9982 131.105887 
L 341.398483 140.719303 
L 341.798766 158.950502 
L 343.3999 166.056265 
L 343.800183 168.862208 
L 344.200467 159.209033 
L 344.60075 137.906854 
L 345.8016 169.363461 
L 346.201884 176.697087 
L 346.602167 175.224621 
L 347.002451 215.46 
L 347.402734 212.417053 
L 348.603584 163.417544 
L 349.804434 175.032557 
L 350.204718 170.092983 
L 351.405568 174.534341 
L 351.805851 152.535497 
L 352.206135 152.496857 
L 353.006702 140.273803 
L 354.207552 131.380702 
L 354.607835 126.09414 
L 355.008118 116.392956 
L 355.408402 128.418118 
L 355.808685 149.139028 
L 357.409819 125.186606 
L 357.810102 126.755535 
L 358.210386 129.165721 
L 358.610669 109.399809 
L 359.811519 125.351309 
L 360.211803 126.973632 
L 360.612086 125.845816 
L 361.012369 118.408295 
L 362.613503 118.63779 
L 363.013786 123.797162 
L 363.41407 113.256332 
L 363.814353 81.129739 
L 364.214637 72.007348 
L 365.415487 91.093701 
L 365.81577 78.210642 
L 366.216054 77.902247 
L 366.616337 74.298202 
L 367.01662 77.362971 
L 368.217471 76.466727 
L 368.617754 77.822442 
L 369.018037 81.419282 
L 369.418321 92.051735 
L 369.818604 93.357689 
L 371.019454 93.127608 
L 371.419738 99.552432 
L 372.220305 124.180858 
L 372.620588 125.526922 
L 373.821438 137.378542 
L 374.221722 147.527201 
L 374.622005 162.85847 
L 375.022288 149.851927 
L 375.422572 149.778523 
L 376.623422 155.731298 
L 377.423989 165.551345 
L 377.824272 166.639538 
L 378.224556 154.805704 
L 379.425406 157.115055 
L 379.825689 158.678479 
L 380.225973 158.828217 
L 380.626256 141.054046 
L 381.026539 151.153594 
L 382.22739 128.777381 
L 382.627673 130.590597 
L 383.42824 147.084583 
L 383.828523 137.165714 
L 385.429657 134.537292 
L 385.82994 114.014974 
L 386.230224 134.842503 
L 386.630507 135.659596 
L 387.831357 128.941053 
L 388.231641 114.399236 
L 388.631924 111.082396 
L 389.032207 135.208101 
L 389.432491 112.228031 
L 390.633341 103.897982 
L 391.033624 109.00425 
L 391.433908 106.042849 
L 391.834191 86.197148 
L 392.234475 91.802352 
L 393.835608 80.501708 
L 394.235892 70.277929 
L 394.636175 79.208516 
L 395.036458 82.023814 
L 396.237309 79.443322 
L 396.637592 76.251146 
L 397.037875 65.845698 
L 397.438159 67.825878 
L 397.838442 68.845052 
L 399.839859 53.956949 
L 400.240143 67.959585 
L 400.640426 53.689277 
L 401.841276 61.695737 
L 402.24156 62.630543 
L 402.641843 55.182215 
L 403.042126 58.207554 
L 403.44241 71.094735 
L 404.64326 97.476452 
L 405.043543 92.264397 
L 405.443827 97.225016 
L 405.84411 94.705099 
L 406.244394 96.842576 
L 407.445244 100.961024 
L 407.845527 118.427367 
L 408.245811 120.259317 
L 408.646094 124.598856 
L 409.046377 121.323362 
L 410.247228 127.12147 
L 410.647511 134.421412 
L 411.047794 133.371104 
L 411.448078 123.389217 
L 411.848361 103.9324 
L 413.049211 125.44801 
L 413.449495 123.443294 
L 413.849778 132.702309 
L 414.250062 122.458545 
L 414.650345 124.073055 
L 416.251479 80.938611 
L 416.651762 120.474047 
L 417.052045 119.740764 
L 417.452329 109.196987 
L 418.653179 110.79308 
L 419.053462 108.446724 
L 419.453746 117.747654 
L 419.854029 118.509457 
L 420.254313 112.913963 
L 421.455163 93.273117 
L 422.25573 109.519146 
L 422.656013 106.074744 
L 423.056296 111.262293 
L 424.65743 97.387915 
L 425.057713 82.558574 
L 425.457997 90.841078 
L 425.85828 123.439207 
L 427.05913 127.32028 
L 427.459414 132.681006 
L 427.859697 123.895828 
L 428.259981 121.392351 
L 428.660264 136.559856 
L 429.861114 168.840907 
L 430.261398 162.723256 
L 430.661681 153.157942 
L 431.061964 153.978969 
L 431.462248 156.941562 
L 432.663098 174.874288 
L 433.063381 178.504847 
L 434.264232 158.073123 
L 435.465082 163.833509 
L 436.265648 152.807901 
L 437.066215 126.822257 
L 438.267065 129.571395 
L 438.667349 148.39544 
L 439.067632 156.925141 
L 439.467916 140.7092 
L 439.868199 129.050123 
L 441.069049 103.569 
L 441.469333 99.02264 
L 441.869616 88.966187 
L 442.269899 91.823784 
L 442.670183 69.627297 
L 443.871033 75.507955 
L 444.271316 76.175345 
L 444.6716 85.879518 
L 445.071883 70.259633 
L 445.472167 91.647403 
L 446.673017 88.417377 
L 447.0733 81.035901 
L 447.473584 84.904385 
L 447.873867 92.528948 
L 448.27415 97.009768 
L 449.475001 114.194958 
L 449.875284 114.938063 
L 450.275567 134.124717 
L 450.675851 130.155495 
L 451.076134 118.53095 
L 452.276984 121.816559 
L 452.677268 114.297208 
L 453.077551 120.251644 
L 453.477835 84.332789 
L 453.878118 71.804985 
L 455.078968 72.992333 
L 455.479252 75.360236 
L 455.879535 70.006271 
L 456.680102 104.171849 
L 457.880952 90.800536 
L 458.281235 81.763546 
L 458.681519 70.098677 
L 459.081802 75.071024 
L 459.482086 87.916544 
L 460.682936 81.922914 
L 461.083219 75.400148 
L 461.483503 73.813778 
L 461.883786 81.287126 
L 462.284069 78.339678 
L 463.885203 97.019739 
L 464.285486 90.698088 
L 464.68577 95.932218 
L 465.086053 103.872829 
L 466.286903 116.526183 
L 467.487754 96.076162 
L 469.088887 95.268757 
L 469.489171 107.674651 
L 469.889454 115.540871 
L 470.289737 117.409613 
L 470.690021 132.014473 
L 471.890871 109.087202 
L 472.291154 111.995264 
L 472.691438 138.644427 
L 473.091721 127.445581 
L 473.492005 123.327889 
L 474.692855 118.417545 
L 475.093138 119.507908 
L 475.493422 127.044213 
L 476.293988 154.029601 
L 477.895122 159.526364 
L 478.295405 167.06966 
L 478.695689 168.005953 
L 479.095972 170.398698 
L 480.296822 192.850853 
L 480.697106 192.382448 
L 481.097389 186.705667 
L 481.497673 182.759882 
L 481.897956 132.00041 
L 483.098806 119.991367 
L 483.49909 127.938315 
L 483.899373 125.797133 
L 484.299656 124.691856 
L 484.69994 127.919571 
L 485.90079 120.377203 
L 486.301073 99.731437 
L 486.701357 89.740767 
L 487.501924 107.357634 
L 488.702774 100.646156 
L 489.103057 93.230417 
L 489.503341 92.446786 
L 489.903624 130.520733 
L 490.303907 151.895798 
L 491.905041 158.401178 
L 492.305324 171.206639 
L 492.705608 155.364961 
L 493.105891 147.28368 
L 494.306741 144.786497 
L 494.707025 160.137369 
L 495.507592 144.653542 
L 495.907875 143.598544 
L 497.108725 153.191967 
L 497.509009 171.89752 
L 497.909292 150.958713 
L 498.309575 152.361995 
L 498.709859 156.142765 
L 499.910709 157.920462 
L 500.310992 137.948586 
L 500.711276 133.491513 
L 501.111559 136.075517 
L 501.511843 129.008078 
L 502.712693 122.049562 
L 503.112976 121.889581 
L 503.51326 118.468594 
L 504.313826 93.242195 
L 505.514677 86.408214 
L 505.91496 89.296028 
L 506.315243 77.852975 
L 506.715527 75.393873 
L 507.11581 58.520898 
L 508.31666 58.799377 
L 508.716944 80.095996 
L 509.117227 95.11173 
L 509.517511 101.407667 
L 509.917794 112.376505 
L 511.118644 135.672102 
L 511.518928 134.022354 
L 511.919211 137.642797 
L 512.319494 151.421686 
L 513.920628 154.828221 
L 514.320911 158.51275 
L 514.721195 156.588232 
L 515.121478 151.672763 
L 515.521762 160.222635 
L 517.122895 176.096075 
L 517.523178 171.842752 
L 517.923462 147.427752 
L 518.323745 154.258625 
L 519.524595 145.735335 
L 519.924879 146.895801 
L 520.325162 136.505231 
L 520.725446 144.11444 
L 521.125729 141.970148 
L 522.326579 155.511705 
L 522.726863 149.45105 
L 523.127146 158.233974 
L 523.527429 157.493738 
L 523.927713 150.457395 
L 525.128563 144.881761 
L 525.528846 137.711316 
L 525.92913 161.084948 
L 526.329413 158.54244 
L 526.729697 158.690478 
L 527.930547 150.7038 
L 528.33083 166.941575 
L 528.731114 156.585208 
L 529.131397 150.680077 
L 529.53168 130.895487 
L 531.132814 136.930102 
L 531.933381 107.524007 
L 532.333664 130.348481 
L 533.534514 125.325205 
L 533.934798 127.825967 
L 534.335081 107.062291 
L 534.735365 112.870147 
L 535.135648 127.682419 
L 536.336498 152.335898 
L 537.137065 138.107681 
L 537.937632 169.683584 
L 539.538765 155.016779 
L 539.939049 155.609522 
L 540.339332 154.431754 
L 540.739616 135.094561 
L 541.940466 137.011538 
L 542.340749 151.725244 
L 543.141316 140.386601 
L 543.541599 122.088568 
L 545.142733 100.342171 
L 545.543016 99.412512 
L 545.9433 97.991177 
L 546.343583 75.472361 
L 547.544433 87.366734 
L 547.944717 93.767879 
L 548.345 93.099601 
L 548.745284 92.971741 
L 549.145567 96.794648 
L 550.346417 109.616174 
L 550.746701 83.560868 
L 551.146984 83.130945 
L 551.547267 67.553876 
L 551.947551 76.981472 
L 553.148401 87.306302 
L 553.548684 96.653128 
L 553.948968 92.745678 
L 554.349251 93.018135 
L 554.749535 74.477748 
L 555.950385 80.376367 
L 556.350668 85.176851 
L 556.750952 80.565533 
L 557.151235 84.225737 
L 557.551518 71.958006 
L 558.752369 79.975053 
L 559.152652 83.570774 
L 559.552935 79.931298 
L 559.953219 77.37418 
L 560.353502 66.637411 
L 561.554352 58.507683 
L 561.954636 65.005922 
L 562.354919 63.791739 
L 563.155486 84.737563 
L 564.356336 97.825683 
L 564.75662 120.278713 
L 565.156903 117.308818 
L 565.557186 106.549444 
L 565.95747 130.866762 
L 567.15832 137.748228 
L 567.558603 161.175344 
L 567.958887 163.10976 
L 568.35917 177.365106 
L 568.759454 186.585428 
L 570.360587 187.951488 
L 570.760871 188.444175 
L 571.161154 189.671057 
L 571.561437 171.511593 
L 572.762288 138.900969 
L 573.162571 157.412555 
L 573.562854 153.948991 
L 573.963138 165.702775 
L 574.363421 158.769245 
L 575.564271 143.131253 
L 575.964555 131.447608 
L 576.765122 138.608379 
L 577.165405 138.927754 
L 578.366255 135.425701 
L 579.166822 137.44123 
L 579.967389 181.99661 
L 581.568522 148.439171 
L 581.968806 141.765964 
L 582.369089 140.246545 
L 582.769373 162.285071 
L 583.970223 169.819737 
L 584.370506 167.21059 
L 584.77079 166.669653 
L 585.171073 145.99284 
L 585.571356 155.491627 
L 586.772207 146.899508 
L 587.17249 140.011846 
L 587.572773 122.994563 
L 587.973057 111.314458 
L 588.37334 112.24096 
L 589.57419 116.14574 
L 589.974474 109.500204 
L 590.374757 115.982321 
L 590.775041 113.538606 
L 591.175324 94.141193 
L 592.376174 96.817548 
L 592.776458 102.172497 
L 593.176741 122.663271 
L 593.577024 125.692645 
L 593.977308 134.39245 
L 595.178158 136.187537 
L 595.578441 135.121986 
L 595.978725 142.27557 
L 596.379008 126.890384 
L 596.779292 125.837002 
L 597.980142 132.912524 
L 598.780708 119.071315 
L 599.180992 136.892984 
L 599.581275 130.672255 
L 600.782125 131.933282 
L 601.582692 92.108194 
L 602.383259 101.563432 
L 603.584109 114.118233 
L 603.984393 122.920743 
L 604.384676 98.810052 
L 604.784959 122.514949 
L 605.185243 132.455488 
L 606.386093 131.756332 
L 606.786376 147.427385 
L 607.18666 149.031146 
L 607.586943 149.812305 
L 607.987227 152.920002 
L 609.188077 137.070853 
L 609.58836 141.137558 
L 610.388927 157.287324 
L 610.78921 153.702618 
L 611.990061 151.84004 
L 612.390344 183.30528 
L 612.790627 168.41229 
L 613.190911 172.935436 
L 613.591194 171.671265 
L 615.192328 168.448664 
L 615.592611 171.878571 
L 615.992895 164.005919 
L 616.393178 161.865657 
L 617.994312 178.585416 
L 618.794878 176.146891 
L 619.195162 146.569752 
L 620.396012 139.858322 
L 621.196579 123.153827 
L 621.596862 133.231912 
L 621.997146 117.900306 
L 623.598279 112.951488 
L 623.998563 108.558839 
L 624.398846 88.979641 
L 624.799129 91.469914 
L 625.99998 84.553534 
L 626.400263 50.525108 
L 626.800546 57.087308 
L 627.20083 44.601163 
L 627.601113 46.350946 
L 628.801963 70.388167 
L 629.202247 69.163413 
L 629.60253 72.080524 
L 630.002814 63.29014 
L 630.403097 60.705003 
L 631.603947 76.694218 
L 632.004231 69.333986 
L 632.404514 81.318132 
L 632.804797 89.60565 
L 633.205081 95.058237 
L 634.405931 92.22886 
L 635.206498 92.088808 
L 635.606781 102.518487 
L 636.007065 95.448053 
L 637.608198 113.761459 
L 638.008482 115.588453 
L 638.408765 130.834684 
L 638.809048 154.298218 
L 640.009899 140.577706 
L 640.410182 156.913028 
L 640.810465 155.017237 
L 641.210749 148.135011 
L 641.611032 126.562687 
L 642.811882 126.710846 
L 643.212166 132.224575 
L 643.612449 135.509119 
L 644.012733 137.614044 
L 644.413016 140.410977 
L 646.01415 113.934013 
L 646.414433 114.203908 
L 646.814716 95.178604 
L 647.215 101.946047 
L 648.41585 94.061488 
L 648.816133 80.736415 
L 649.6167 97.478488 
L 650.016984 101.493046 
L 651.217834 100.191037 
L 651.618117 107.19367 
L 652.418684 71.070049 
L 652.818967 70.145914 
L 654.019818 71.540619 
L 654.420101 75.659458 
L 654.820384 93.333837 
L 655.220668 86.056119 
L 656.821801 107.382685 
L 657.222085 120.130337 
L 657.622368 116.579553 
L 658.022652 102.232544 
L 658.422935 107.665608 
L 659.623785 97.785571 
L 660.024069 90.974714 
L 660.424352 96.371094 
L 660.824635 107.157173 
L 661.224919 126.06686 
L 662.425769 130.825728 
L 662.826052 135.440499 
L 663.226336 126.636651 
L 664.026903 91.359992 
L 665.227753 83.724606 
L 665.628036 86.162442 
L 666.02832 115.002858 
L 666.428603 123.346075 
L 666.828886 94.320591 
L 668.029737 98.029356 
L 668.43002 110.191804 
L 669.230587 91.019742 
L 669.63087 96.931363 
L 670.83172 91.149867 
L 671.232004 91.092485 
L 671.632287 103.815708 
L 672.032571 99.853462 
L 672.432854 98.926281 
L 673.633704 98.377796 
L 674.033988 107.332193 
L 674.434271 96.788032 
L 674.834554 129.057046 
L 675.234838 113.532104 
L 676.835971 92.115923 
L 677.236255 100.218281 
L 678.036822 78.981569 
L 679.637955 88.842773 
L 680.038238 100.600717 
L 680.438522 99.19419 
L 680.838805 98.21913 
L 682.039655 83.788424 
L 682.439939 68.191072 
L 682.840222 67.516505 
L 683.240506 65.917645 
L 683.640789 79.233928 
L 685.241923 84.141837 
L 685.642206 91.684105 
L 686.042489 91.033512 
L 686.442773 96.221274 
L 687.643623 96.500784 
L 688.44419 72.776596 
L 688.844473 78.352122 
L 689.244757 69.792989 
L 690.445607 86.303007 
L 691.246174 90.479559 
L 691.646457 90.929401 
L 692.04674 104.432173 
L 693.247591 109.913157 
L 693.647874 113.009726 
L 694.048157 101.597418 
L 694.448441 109.62584 
L 694.848724 107.199975 
L 696.049574 88.093002 
L 696.449858 98.225109 
L 696.850141 97.599169 
L 697.250425 110.446181 
L 697.650708 137.608505 
L 698.851558 125.004091 
L 699.251842 113.543329 
L 699.652125 111.618233 
L 700.052408 112.579899 
L 700.452692 87.90028 
L 701.653542 81.957698 
L 702.053825 93.896772 
L 702.454109 116.547712 
L 702.854392 124.409126 
L 703.254676 169.884109 
L 704.855809 177.064086 
L 705.256093 176.501293 
L 705.656376 174.911416 
L 706.056659 178.93165 
L 707.25751 174.638886 
L 707.657793 182.32242 
L 708.058076 181.7692 
L 708.45836 199.276467 
L 708.858643 200.047972 
L 710.059493 191.459414 
L 710.459777 179.833471 
L 710.86006 158.241336 
L 711.260344 147.022092 
L 711.660627 126.631973 
L 712.861477 124.206388 
L 713.261761 104.96696 
L 713.662044 95.602023 
L 714.062327 95.266941 
L 714.462611 95.434138 
L 716.063744 86.050418 
L 716.464028 109.225386 
L 716.864311 117.588146 
L 717.264595 117.290354 
L 718.465445 117.68032 
L 718.865728 128.90146 
L 719.266012 144.280065 
L 719.666295 128.42537 
L 720.066578 137.163223 
L 721.267429 132.863316 
L 721.667712 142.093983 
L 722.067995 163.796811 
L 722.868562 170.603129 
L 724.069412 166.145543 
L 724.469696 161.224534 
L 724.869979 152.440739 
L 725.270263 154.121106 
L 725.670546 157.326368 
L 726.871396 136.441394 
L 727.27168 133.81138 
L 727.671963 134.975579 
L 728.072246 127.028879 
L 728.47253 128.549512 
L 729.67338 126.950162 
L 730.473947 100.210304 
L 730.87423 100.048253 
L 731.274514 114.522607 
L 732.475364 90.40934 
L 732.875647 90.705016 
L 733.275931 100.638411 
L 733.676214 105.020772 
L 734.076497 131.052059 
L 735.277348 123.37694 
L 735.677631 127.890658 
L 736.077914 147.020295 
L 736.478198 178.572154 
L 736.878481 179.872535 
L 738.079331 163.826014 
L 738.479615 170.049886 
L 738.879898 155.670506 
L 739.280182 131.746688 
L 739.680465 134.634725 
L 740.881315 118.917506 
L 741.281599 105.502691 
L 741.681882 101.036384 
L 742.482449 82.827761 
L 743.683299 90.793716 
L 744.083582 75.901047 
L 744.483866 52.588115 
L 744.884149 52.308973 
L 745.284433 54.094473 
L 746.485283 53.033843 
L 746.885566 61.356655 
L 747.28585 65.356589 
L 748.086416 68.338532 
L 749.287267 74.533945 
L 749.68755 79.314294 
L 750.087833 90.496008 
L 750.488117 85.036688 
L 750.8884 95.615941 
L 752.08925 97.377054 
L 752.489534 91.964156 
L 752.889817 102.431041 
L 753.290101 101.40051 
L 753.690384 95.86968 
L 754.891234 118.147151 
L 755.691801 98.762466 
L 756.092084 90.623387 
L 756.492368 92.784447 
L 757.693218 103.866187 
L 758.093501 95.26666 
L 758.493785 107.680911 
L 758.894068 112.620073 
L 759.294352 109.095719 
L 760.895485 128.473232 
L 761.295768 122.289328 
L 761.696052 130.581811 
L 762.096335 145.256514 
L 763.697469 161.423244 
L 764.097752 175.226 
L 764.498036 204.670397 
L 764.898319 206.572567 
L 766.099169 174.242937 
L 766.499453 171.616838 
L 766.899736 171.616743 
L 767.300019 168.057619 
L 767.700303 165.574584 
L 769.70172 169.497388 
L 770.102003 141.523716 
L 770.502287 132.758406 
L 771.703137 122.677085 
L 772.10342 93.09621 
L 772.503704 89.625892 
L 772.903987 78.700764 
L 773.30427 84.461987 
L 774.505121 99.528883 
L 775.305687 132.822211 
L 775.705971 122.526611 
L 776.106254 126.858055 
L 777.307104 113.627406 
L 777.707388 105.843679 
L 778.507955 140.283647 
L 778.908238 148.353868 
L 780.509372 165.001454 
L 780.909655 166.358002 
L 781.309938 162.684497 
L 781.710222 164.910781 
L 783.311355 156.5248 
L 783.711639 136.974054 
L 784.111922 139.564275 
L 784.512206 143.533805 
L 785.713056 161.896604 
L 786.113339 163.046131 
L 786.513623 167.81646 
L 786.913906 166.527361 
L 787.314189 175.748002 
L 788.51504 182.09585 
L 788.915323 186.911374 
L 789.315606 187.072636 
L 789.71589 186.82276 
L 790.116173 173.180432 
L 791.317023 160.238624 
L 791.717307 161.70124 
L 792.11759 177.606326 
L 792.517874 163.255801 
L 792.918157 160.845682 
L 794.119007 162.894378 
L 794.919574 134.115817 
L 795.319857 150.765467 
L 795.720141 135.879736 
L 796.920991 123.909359 
L 797.321274 124.444502 
L 797.721558 112.543957 
L 798.121841 124.192789 
L 799.722975 135.676856 
L 800.123258 140.873161 
L 800.523542 131.657634 
L 800.923825 141.365384 
L 801.324108 137.199326 
L 802.524959 144.927435 
L 802.925242 149.852518 
L 803.325525 167.161477 
L 803.725809 112.958037 
L 804.126092 111.088322 
L 805.326942 120.50829 
L 805.727226 127.657906 
L 806.127509 144.353437 
L 806.527793 141.918249 
L 806.928076 143.586038 
L 808.128926 136.872988 
L 808.52921 135.936286 
L 808.929493 125.989989 
L 809.329776 125.638179 
L 809.73006 123.847799 
L 810.93091 115.244366 
L 811.331193 119.344443 
L 811.731477 146.847156 
L 812.13176 138.08704 
L 812.532044 98.193175 
L 813.732894 92.247585 
L 814.133177 85.642504 
L 814.533461 81.094149 
L 814.933744 69.501337 
L 815.334027 76.334774 
L 816.534878 73.574489 
L 816.935161 74.760524 
L 817.335444 73.039971 
L 817.735728 70.401935 
L 818.136011 75.612006 
L 819.737145 50.896648 
L 820.137428 62.748221 
L 820.537712 109.346297 
L 820.937995 89.911671 
L 822.539129 91.763387 
L 822.939412 91.874926 
L 823.339695 94.306691 
L 823.739979 83.306307 
L 824.940829 87.303717 
L 825.741396 92.50199 
L 826.141679 102.664375 
L 826.541963 94.530167 
L 827.742813 118.183382 
L 828.143096 87.705262 
L 828.54338 74.750312 
L 828.943663 57.760417 
L 829.343946 67.864138 
L 830.544797 64.148896 
L 831.745647 88.870937 
L 832.14593 96.151564 
L 833.34678 97.722888 
L 833.747064 96.865235 
L 834.147347 93.371994 
L 834.547631 88.671039 
L 834.947914 100.636071 
L 836.148764 83.90179 
L 836.549048 96.963107 
L 836.949331 105.07159 
L 837.749898 98.587933 
L 838.950748 90.864449 
L 839.351031 96.119163 
L 839.751315 81.468321 
L 840.151598 84.265279 
L 840.551882 73.087101 
L 841.752732 70.076363 
L 842.153015 70.525036 
L 842.553298 93.90098 
L 842.953582 107.179059 
L 843.353865 98.277208 
L 844.554715 109.543119 
L 844.954999 114.659626 
L 845.755566 148.167117 
L 846.155849 151.262296 
L 847.356699 153.115172 
L 847.756983 166.59674 
L 848.157266 143.152991 
L 848.557549 162.42807 
L 848.957833 172.733197 
L 850.158683 187.089974 
L 850.558966 183.382574 
L 850.95925 166.605347 
L 851.759817 144.934687 
L 852.960667 143.561084 
L 853.36095 119.140409 
L 853.761234 115.192126 
L 854.161517 109.871865 
L 854.5618 107.857823 
L 855.762651 109.364005 
L 856.162934 114.834693 
L 856.563217 103.544657 
L 856.963501 113.072292 
L 857.363784 62.06855 
L 858.564634 48.372246 
L 858.964918 49.639996 
L 859.365201 65.367 
L 859.765485 64.774341 
L 860.165768 73.329846 
L 862.167185 130.02301 
L 862.567468 136.329325 
L 862.967752 148.084776 
L 864.168602 147.121404 
L 864.568885 152.75873 
L 864.969169 140.451254 
L 865.369452 133.615915 
L 865.769736 145.451659 
L 866.970586 163.798553 
L 867.370869 165.633666 
L 868.171436 129.16029 
L 868.571719 128.838758 
L 869.77257 114.922227 
L 870.172853 105.266303 
L 870.573136 113.314813 
L 870.97342 103.939059 
L 871.373703 103.47822 
L 872.574553 89.119219 
L 872.974837 117.493652 
L 873.37512 116.436316 
L 873.775404 118.750642 
L 874.175687 96.585571 
L 875.376537 114.314362 
L 875.776821 113.922443 
L 876.177104 124.738954 
L 876.577387 124.245381 
L 876.977671 123.539739 
L 878.178521 116.261344 
L 878.578804 107.705939 
L 878.979088 116.11358 
L 879.379371 115.894509 
L 879.779655 121.387326 
L 880.980505 95.038479 
L 881.380788 98.745046 
L 881.781072 112.790464 
L 882.181355 116.097113 
L 882.581638 95.551056 
L 883.782489 100.385339 
L 884.983339 131.849952 
L 885.383622 153.994499 
L 886.584472 167.565768 
L 886.984756 156.10877 
L 887.385039 159.558597 
L 887.785323 151.166038 
L 888.185606 158.187884 
L 889.386456 162.649123 
L 889.78674 150.588737 
L 890.187023 145.924712 
L 890.587306 136.647333 
L 890.98759 153.227952 
L 892.18844 142.724163 
L 892.588723 131.853723 
L 892.989007 113.984695 
L 893.789574 93.159655 
L 894.990424 89.251375 
L 895.390707 80.696694 
L 895.790991 92.442314 
L 896.591557 84.76112 
L 897.792408 63.34445 
L 898.192691 59.641031 
L 898.592974 60.218952 
L 898.993258 64.102626 
L 899.393541 39.677206 
L 900.594391 39.33186 
L 900.994675 39.06 
L 901.394958 50.077837 
L 901.795242 45.259824 
L 902.195525 46.000316 
L 903.396375 46.060142 
L 903.796659 45.895177 
L 904.196942 80.441042 
L 904.597225 81.663111 
L 904.997509 77.425174 
L 906.198359 81.361213 
L 906.598642 76.968892 
L 907.399209 75.771003 
L 907.799493 90.021018 
L 910.601476 138.247639 
L 911.802327 134.239709 
L 912.20261 148.151629 
L 912.602893 154.288062 
L 913.40346 155.042773 
L 914.60431 164.942485 
L 915.004594 184.901912 
L 915.404877 169.685663 
L 915.805161 189.71952 
L 916.205444 186.624011 
L 917.806578 189.360047 
L 918.206861 183.136095 
L 918.607144 181.794182 
L 919.007428 176.193308 
L 920.208278 153.928999 
L 920.608561 138.546701 
L 921.008845 131.836496 
L 921.409128 135.73584 
L 921.809412 128.281761 
L 923.010262 137.748114 
L 923.410545 127.418675 
L 923.810828 136.129264 
L 924.211112 116.204624 
L 924.611395 131.188626 
L 926.212529 107.855224 
L 927.013096 92.956914 
L 927.413379 97.903732 
L 929.014513 111.748906 
L 929.414796 113.127551 
L 929.815079 106.338937 
L 930.215363 102.417725 
L 931.416213 69.284362 
L 931.816496 76.201475 
L 932.21678 103.650594 
L 932.617063 115.187221 
L 933.017347 87.312837 
L 934.218197 101.009283 
L 935.419047 148.226388 
L 935.81933 145.431084 
L 938.221031 187.909516 
L 938.621314 181.80376 
L 939.822164 180.449126 
L 940.222448 176.280348 
L 940.622731 166.60078 
L 941.023015 180.38059 
L 941.423298 164.640542 
L 942.624148 155.658611 
L 943.024432 148.295817 
L 943.424715 150.734821 
L 943.824998 153.927886 
L 945.826415 112.628172 
L 946.226699 88.613978 
L 946.626982 145.303369 
L 947.027266 163.104352 
L 948.228116 167.638034 
L 948.628399 178.220712 
L 949.028683 140.541797 
L 949.428966 151.031674 
L 949.829249 145.497568 
L 951.0301 144.16158 
L 951.430383 142.903174 
L 951.830666 150.290648 
L 952.23095 143.835335 
L 953.832083 150.538318 
L 954.232367 145.097693 
L 954.63265 141.315918 
L 955.433217 105.505905 
L 956.634067 95.637718 
L 957.034351 80.522325 
L 957.434634 102.944374 
L 957.834917 80.458896 
L 958.235201 112.191565 
L 959.436051 133.611073 
L 959.836334 133.611046 
L 960.236618 122.34474 
L 960.636901 125.49272 
L 961.037185 113.744322 
L 962.238035 103.006542 
L 962.638318 107.533736 
L 963.038602 116.478983 
L 963.438885 120.767296 
L 963.839168 123.228437 
L 965.040019 131.71255 
L 965.440302 139.079619 
L 965.840585 149.809906 
L 966.240869 136.02527 
L 966.641152 135.195343 
L 968.242286 122.188261 
L 968.642569 116.071609 
L 969.042853 120.020767 
L 969.443136 120.33572 
L 970.643986 158.371699 
L 971.04427 161.084353 
L 971.444553 160.741747 
L 971.844836 163.608599 
L 972.24512 149.198017 
L 973.44597 149.174569 
L 973.846253 139.818995 
L 974.246537 137.363451 
L 974.64682 133.711541 
L 975.047104 122.267837 
L 976.247954 134.13304 
L 976.648237 144.614912 
L 977.048521 139.079811 
L 977.849087 126.149557 
L 979.049938 127.293987 
L 979.450221 136.525099 
L 980.250788 125.368293 
L 980.651071 137.650151 
L 981.851921 113.106632 
L 982.252205 108.879193 
L 982.652488 80.753847 
L 983.052772 79.585795 
L 984.653905 83.636224 
L 985.054189 87.190007 
L 985.454472 70.56247 
L 985.854755 70.080445 
L 986.255039 85.41617 
L 987.455889 100.068095 
L 987.856172 92.817162 
L 988.256456 93.340332 
L 989.057023 88.558627 
L 990.658156 97.794194 
L 991.05844 117.244503 
L 991.458723 125.433128 
L 991.859006 98.114584 
L 993.059857 97.560948 
L 993.860423 146.834016 
L 994.260707 147.906546 
L 994.66099 158.356813 
L 995.86184 155.182559 
L 996.262124 163.718557 
L 996.662407 115.964982 
L 997.462974 88.851097 
L 998.663824 97.429074 
L 999.064108 93.090416 
L 999.464391 87.324487 
L 999.864674 88.992381 
L 1000.264958 92.390817 
L 1001.465808 86.707583 
L 1001.866091 81.090474 
L 1002.266375 90.007919 
L 1002.666658 77.912614 
L 1003.066942 76.023471 
L 1004.267792 76.558445 
L 1005.068358 95.465422 
L 1005.468642 113.652491 
L 1005.868925 106.918042 
L 1007.470059 126.357751 
L 1007.870342 109.754394 
L 1008.670909 99.715342 
L 1008.670909 99.715342 
" clip-path="url(#p081b7c80d7)" style="fill: none; stroke: #1f77b4; stroke-width: 1.5; stroke-linecap: square"/>
   </g>
   <g id="patch_3">
    <path d="M 145.8 224.28 
L 145.8 30.24 
" style="fill: none; stroke: #000000; stroke-width: 0.8; stroke-linejoin: miter; stroke-linecap: square"/>
   </g>
   <g id="patch_4">
    <path d="M 145.8 224.28 
L 1049.76 224.28 
" style="fill: none; stroke: #000000; stroke-width: 0.8; stroke-linejoin: miter; stroke-linecap: square"/>
   </g>
  </g>
 </g>
 <defs>
  <clipPath id="p081b7c80d7">
   <rect x="145.8" y="30.24" width="903.96" height="194.04"/>
  </clipPath>
 </defs>
</svg>
