<?xml version="1.0" encoding="utf-8" standalone="no"?>
<!DOCTYPE svg PUBLIC "-//W3C//DTD SVG 1.1//EN"
  "http://www.w3.org/Graphics/SVG/1.1/DTD/svg11.dtd">
<svg xmlns:xlink="http://www.w3.org/1999/xlink" width="468pt" height="252pt" viewBox="0 0 468 252" xmlns="http://www.w3.org/2000/svg" version="1.1">
 <metadata>
  <rdf:RDF xmlns:dc="http://purl.org/dc/elements/1.1/" xmlns:cc="http://creativecommons.org/ns#" xmlns:rdf="http://www.w3.org/1999/02/22-rdf-syntax-ns#">
   <cc:Work>
    <dc:type rdf:resource="http://purl.org/dc/dcmitype/StillImage"/>
    <dc:date>2025-08-30T18:51:04.896724</dc:date>
    <dc:format>image/svg+xml</dc:format>
    <dc:creator>
     <cc:Agent>
      <dc:title>Matplotlib v3.10.5, https://matplotlib.org/</dc:title>
     </cc:Agent>
    </dc:creator>
   </cc:Work>
  </rdf:RDF>
 </metadata>
 <defs>
  <style type="text/css">*{stroke-linejoin: round; stroke-linecap: butt}</style>
 </defs>
 <g id="figure_1">
  <g id="patch_1">
   <path d="M 0 252 
L 468 252 
L 468 0 
L 0 0 
z
" style="fill: #ffffff"/>
  </g>
  <g id="axes_1">
   <g id="patch_2">
    <path d="M 58.5 224.28 
L 421.2 224.28 
L 421.2 30.24 
L 58.5 30.24 
z
" style="fill: #ffffff"/>
   </g>
   <g id="matplotlib.axis_1">
    <g id="xtick_1">
     <g id="line2d_1">
      <defs>
       <path id="m8519bc06b9" d="M 0 0 
L 0 3.5 
" style="stroke: #000000; stroke-width: 0.8"/>
      </defs>
      <g>
       <use xlink:href="#m8519bc06b9" x="71.598755" y="224.28" style="stroke: #000000; stroke-width: 0.8"/>
      </g>
     </g>
     <g id="text_1">
      <!-- 2020 -->
      <g transform="translate(58.873755 238.878438) scale(0.1 -0.1)">
       <defs>
        <path id="DejaVuSans-32" d="M 1228 531 
L 3431 531 
L 3431 0 
L 469 0 
L 469 531 
Q 828 903 1448 1529 
Q 2069 2156 2228 2338 
Q 2531 2678 2651 2914 
Q 2772 3150 2772 3378 
Q 2772 3750 2511 3984 
Q 2250 4219 1831 4219 
Q 1534 4219 1204 4116 
Q 875 4013 500 3803 
L 500 4441 
Q 881 4594 1212 4672 
Q 1544 4750 1819 4750 
Q 2544 4750 2975 4387 
Q 3406 4025 3406 3419 
Q 3406 3131 3298 2873 
Q 3191 2616 2906 2266 
Q 2828 2175 2409 1742 
Q 1991 1309 1228 531 
z
" transform="scale(0.015625)"/>
        <path id="DejaVuSans-30" d="M 2034 4250 
Q 1547 4250 1301 3770 
Q 1056 3291 1056 2328 
Q 1056 1369 1301 889 
Q 1547 409 2034 409 
Q 2525 409 2770 889 
Q 3016 1369 3016 2328 
Q 3016 3291 2770 3770 
Q 2525 4250 2034 4250 
z
M 2034 4750 
Q 2819 4750 3233 4129 
Q 3647 3509 3647 2328 
Q 3647 1150 3233 529 
Q 2819 -91 2034 -91 
Q 1250 -91 836 529 
Q 422 1150 422 2328 
Q 422 3509 836 4129 
Q 1250 4750 2034 4750 
z
" transform="scale(0.015625)"/>
       </defs>
       <use xlink:href="#DejaVuSans-32"/>
       <use xlink:href="#DejaVuSans-30" transform="translate(63.623047 0)"/>
       <use xlink:href="#DejaVuSans-32" transform="translate(127.246094 0)"/>
       <use xlink:href="#DejaVuSans-30" transform="translate(190.869141 0)"/>
      </g>
     </g>
    </g>
    <g id="xtick_2">
     <g id="line2d_2">
      <g>
       <use xlink:href="#m8519bc06b9" x="130.63994" y="224.28" style="stroke: #000000; stroke-width: 0.8"/>
      </g>
     </g>
     <g id="text_2">
      <!-- 2021 -->
      <g transform="translate(117.91494 238.878438) scale(0.1 -0.1)">
       <defs>
        <path id="DejaVuSans-31" d="M 794 531 
L 1825 531 
L 1825 4091 
L 703 3866 
L 703 4441 
L 1819 4666 
L 2450 4666 
L 2450 531 
L 3481 531 
L 3481 0 
L 794 0 
L 794 531 
z
" transform="scale(0.015625)"/>
       </defs>
       <use xlink:href="#DejaVuSans-32"/>
       <use xlink:href="#DejaVuSans-30" transform="translate(63.623047 0)"/>
       <use xlink:href="#DejaVuSans-32" transform="translate(127.246094 0)"/>
       <use xlink:href="#DejaVuSans-31" transform="translate(190.869141 0)"/>
      </g>
     </g>
    </g>
    <g id="xtick_3">
     <g id="line2d_3">
      <g>
       <use xlink:href="#m8519bc06b9" x="189.51981" y="224.28" style="stroke: #000000; stroke-width: 0.8"/>
      </g>
     </g>
     <g id="text_3">
      <!-- 2022 -->
      <g transform="translate(176.79481 238.878438) scale(0.1 -0.1)">
       <use xlink:href="#DejaVuSans-32"/>
       <use xlink:href="#DejaVuSans-30" transform="translate(63.623047 0)"/>
       <use xlink:href="#DejaVuSans-32" transform="translate(127.246094 0)"/>
       <use xlink:href="#DejaVuSans-32" transform="translate(190.869141 0)"/>
      </g>
     </g>
    </g>
    <g id="xtick_4">
     <g id="line2d_4">
      <g>
       <use xlink:href="#m8519bc06b9" x="248.39968" y="224.28" style="stroke: #000000; stroke-width: 0.8"/>
      </g>
     </g>
     <g id="text_4">
      <!-- 2023 -->
      <g transform="translate(235.67468 238.878438) scale(0.1 -0.1)">
       <defs>
        <path id="DejaVuSans-33" d="M 2597 2516 
Q 3050 2419 3304 2112 
Q 3559 1806 3559 1356 
Q 3559 666 3084 287 
Q 2609 -91 1734 -91 
Q 1441 -91 1130 -33 
Q 819 25 488 141 
L 488 750 
Q 750 597 1062 519 
Q 1375 441 1716 441 
Q 2309 441 2620 675 
Q 2931 909 2931 1356 
Q 2931 1769 2642 2001 
Q 2353 2234 1838 2234 
L 1294 2234 
L 1294 2753 
L 1863 2753 
Q 2328 2753 2575 2939 
Q 2822 3125 2822 3475 
Q 2822 3834 2567 4026 
Q 2313 4219 1838 4219 
Q 1578 4219 1281 4162 
Q 984 4106 628 3988 
L 628 4550 
Q 988 4650 1302 4700 
Q 1616 4750 1894 4750 
Q 2613 4750 3031 4423 
Q 3450 4097 3450 3541 
Q 3450 3153 3228 2886 
Q 3006 2619 2597 2516 
z
" transform="scale(0.015625)"/>
       </defs>
       <use xlink:href="#DejaVuSans-32"/>
       <use xlink:href="#DejaVuSans-30" transform="translate(63.623047 0)"/>
       <use xlink:href="#DejaVuSans-32" transform="translate(127.246094 0)"/>
       <use xlink:href="#DejaVuSans-33" transform="translate(190.869141 0)"/>
      </g>
     </g>
    </g>
    <g id="xtick_5">
     <g id="line2d_5">
      <g>
       <use xlink:href="#m8519bc06b9" x="307.27955" y="224.28" style="stroke: #000000; stroke-width: 0.8"/>
      </g>
     </g>
     <g id="text_5">
      <!-- 2024 -->
      <g transform="translate(294.55455 238.878438) scale(0.1 -0.1)">
       <defs>
        <path id="DejaVuSans-34" d="M 2419 4116 
L 825 1625 
L 2419 1625 
L 2419 4116 
z
M 2253 4666 
L 3047 4666 
L 3047 1625 
L 3713 1625 
L 3713 1100 
L 3047 1100 
L 3047 0 
L 2419 0 
L 2419 1100 
L 313 1100 
L 313 1709 
L 2253 4666 
z
" transform="scale(0.015625)"/>
       </defs>
       <use xlink:href="#DejaVuSans-32"/>
       <use xlink:href="#DejaVuSans-30" transform="translate(63.623047 0)"/>
       <use xlink:href="#DejaVuSans-32" transform="translate(127.246094 0)"/>
       <use xlink:href="#DejaVuSans-34" transform="translate(190.869141 0)"/>
      </g>
     </g>
    </g>
    <g id="xtick_6">
     <g id="line2d_6">
      <g>
       <use xlink:href="#m8519bc06b9" x="366.320735" y="224.28" style="stroke: #000000; stroke-width: 0.8"/>
      </g>
     </g>
     <g id="text_6">
      <!-- 2025 -->
      <g transform="translate(353.595735 238.878438) scale(0.1 -0.1)">
       <defs>
        <path id="DejaVuSans-35" d="M 691 4666 
L 3169 4666 
L 3169 4134 
L 1269 4134 
L 1269 2991 
Q 1406 3038 1543 3061 
Q 1681 3084 1819 3084 
Q 2600 3084 3056 2656 
Q 3513 2228 3513 1497 
Q 3513 744 3044 326 
Q 2575 -91 1722 -91 
Q 1428 -91 1123 -41 
Q 819 9 494 109 
L 494 744 
Q 775 591 1075 516 
Q 1375 441 1709 441 
Q 2250 441 2565 725 
Q 2881 1009 2881 1497 
Q 2881 1984 2565 2268 
Q 2250 2553 1709 2553 
Q 1456 2553 1204 2497 
Q 953 2441 691 2322 
L 691 4666 
z
" transform="scale(0.015625)"/>
       </defs>
       <use xlink:href="#DejaVuSans-32"/>
       <use xlink:href="#DejaVuSans-30" transform="translate(63.623047 0)"/>
       <use xlink:href="#DejaVuSans-32" transform="translate(127.246094 0)"/>
       <use xlink:href="#DejaVuSans-35" transform="translate(190.869141 0)"/>
      </g>
     </g>
    </g>
   </g>
   <g id="matplotlib.axis_2">
    <g id="ytick_1">
     <g id="line2d_7">
      <defs>
       <path id="mbafb8edf90" d="M 0 0 
L -3.5 0 
" style="stroke: #000000; stroke-width: 0.8"/>
      </defs>
      <g>
       <use xlink:href="#mbafb8edf90" x="58.5" y="219.196796" style="stroke: #000000; stroke-width: 0.8"/>
      </g>
     </g>
     <g id="text_7">
      <!-- 50 -->
      <g transform="translate(38.775 222.996015) scale(0.1 -0.1)">
       <use xlink:href="#DejaVuSans-35"/>
       <use xlink:href="#DejaVuSans-30" transform="translate(63.623047 0)"/>
      </g>
     </g>
    </g>
    <g id="ytick_2">
     <g id="line2d_8">
      <g>
       <use xlink:href="#mbafb8edf90" x="58.5" y="197.556531" style="stroke: #000000; stroke-width: 0.8"/>
      </g>
     </g>
     <g id="text_8">
      <!-- 75 -->
      <g transform="translate(38.775 201.355749) scale(0.1 -0.1)">
       <defs>
        <path id="DejaVuSans-37" d="M 525 4666 
L 3525 4666 
L 3525 4397 
L 1831 0 
L 1172 0 
L 2766 4134 
L 525 4134 
L 525 4666 
z
" transform="scale(0.015625)"/>
       </defs>
       <use xlink:href="#DejaVuSans-37"/>
       <use xlink:href="#DejaVuSans-35" transform="translate(63.623047 0)"/>
      </g>
     </g>
    </g>
    <g id="ytick_3">
     <g id="line2d_9">
      <g>
       <use xlink:href="#mbafb8edf90" x="58.5" y="175.916265" style="stroke: #000000; stroke-width: 0.8"/>
      </g>
     </g>
     <g id="text_9">
      <!-- 100 -->
      <g transform="translate(32.4125 179.715484) scale(0.1 -0.1)">
       <use xlink:href="#DejaVuSans-31"/>
       <use xlink:href="#DejaVuSans-30" transform="translate(63.623047 0)"/>
       <use xlink:href="#DejaVuSans-30" transform="translate(127.246094 0)"/>
      </g>
     </g>
    </g>
    <g id="ytick_4">
     <g id="line2d_10">
      <g>
       <use xlink:href="#mbafb8edf90" x="58.5" y="154.276" style="stroke: #000000; stroke-width: 0.8"/>
      </g>
     </g>
     <g id="text_10">
      <!-- 125 -->
      <g transform="translate(32.4125 158.075219) scale(0.1 -0.1)">
       <use xlink:href="#DejaVuSans-31"/>
       <use xlink:href="#DejaVuSans-32" transform="translate(63.623047 0)"/>
       <use xlink:href="#DejaVuSans-35" transform="translate(127.246094 0)"/>
      </g>
     </g>
    </g>
    <g id="ytick_5">
     <g id="line2d_11">
      <g>
       <use xlink:href="#mbafb8edf90" x="58.5" y="132.635735" style="stroke: #000000; stroke-width: 0.8"/>
      </g>
     </g>
     <g id="text_11">
      <!-- 150 -->
      <g transform="translate(32.4125 136.434954) scale(0.1 -0.1)">
       <use xlink:href="#DejaVuSans-31"/>
       <use xlink:href="#DejaVuSans-35" transform="translate(63.623047 0)"/>
       <use xlink:href="#DejaVuSans-30" transform="translate(127.246094 0)"/>
      </g>
     </g>
    </g>
    <g id="ytick_6">
     <g id="line2d_12">
      <g>
       <use xlink:href="#mbafb8edf90" x="58.5" y="110.99547" style="stroke: #000000; stroke-width: 0.8"/>
      </g>
     </g>
     <g id="text_12">
      <!-- 175 -->
      <g transform="translate(32.4125 114.794688) scale(0.1 -0.1)">
       <use xlink:href="#DejaVuSans-31"/>
       <use xlink:href="#DejaVuSans-37" transform="translate(63.623047 0)"/>
       <use xlink:href="#DejaVuSans-35" transform="translate(127.246094 0)"/>
      </g>
     </g>
    </g>
    <g id="ytick_7">
     <g id="line2d_13">
      <g>
       <use xlink:href="#mbafb8edf90" x="58.5" y="89.355204" style="stroke: #000000; stroke-width: 0.8"/>
      </g>
     </g>
     <g id="text_13">
      <!-- 200 -->
      <g transform="translate(32.4125 93.154423) scale(0.1 -0.1)">
       <use xlink:href="#DejaVuSans-32"/>
       <use xlink:href="#DejaVuSans-30" transform="translate(63.623047 0)"/>
       <use xlink:href="#DejaVuSans-30" transform="translate(127.246094 0)"/>
      </g>
     </g>
    </g>
    <g id="ytick_8">
     <g id="line2d_14">
      <g>
       <use xlink:href="#mbafb8edf90" x="58.5" y="67.714939" style="stroke: #000000; stroke-width: 0.8"/>
      </g>
     </g>
     <g id="text_14">
      <!-- 225 -->
      <g transform="translate(32.4125 71.514158) scale(0.1 -0.1)">
       <use xlink:href="#DejaVuSans-32"/>
       <use xlink:href="#DejaVuSans-32" transform="translate(63.623047 0)"/>
       <use xlink:href="#DejaVuSans-35" transform="translate(127.246094 0)"/>
      </g>
     </g>
    </g>
    <g id="ytick_9">
     <g id="line2d_15">
      <g>
       <use xlink:href="#mbafb8edf90" x="58.5" y="46.074674" style="stroke: #000000; stroke-width: 0.8"/>
      </g>
     </g>
     <g id="text_15">
      <!-- 250 -->
      <g transform="translate(32.4125 49.873893) scale(0.1 -0.1)">
       <use xlink:href="#DejaVuSans-32"/>
       <use xlink:href="#DejaVuSans-35" transform="translate(63.623047 0)"/>
       <use xlink:href="#DejaVuSans-30" transform="translate(127.246094 0)"/>
      </g>
     </g>
    </g>
   </g>
   <g id="line2d_16">
    <path d="M 74.986364 196.060071 
L 75.147678 195.740236 
L 75.308993 195.932573 
L 75.792937 197.88933 
L 76.115567 194.671959 
L 76.276881 194.770214 
L 76.438196 197.77224 
L 76.92214 197.949962 
L 77.083455 195.819676 
L 77.406084 194.490076 
L 77.567399 195.414212 
L 78.051343 195.095677 
L 78.212658 195.502218 
L 78.373973 193.91171 
L 78.535287 194.39997 
L 78.696602 194.383182 
L 79.341861 195.63004 
L 79.503176 194.661914 
L 79.66449 195.357635 
L 79.825805 196.876898 
L 80.309749 199.99291 
L 80.471064 202.109407 
L 80.632379 201.151755 
L 80.793693 205.160487 
L 80.955008 205.194036 
L 81.438952 199.860914 
L 81.600267 201.849569 
L 81.761582 199.037391 
L 82.084211 201.910333 
L 82.568155 206.700705 
L 82.72947 202.683592 
L 82.890785 204.76026 
L 83.052099 210.460084 
L 83.213414 204.227984 
L 83.697358 211.721589 
L 83.858673 209.489858 
L 84.019988 210.786992 
L 84.181302 211.183043 
L 84.342617 214.439484 
L 84.826561 215.46 
L 84.987876 210.74298 
L 85.149191 211.027962 
L 85.310505 208.320555 
L 85.47182 210.562764 
L 85.955764 209.08122 
L 86.117079 209.190191 
L 86.278394 211.994008 
L 86.439708 211.151604 
L 86.601023 211.889237 
L 87.084967 207.476041 
L 87.246282 208.113081 
L 87.407597 206.72168 
L 87.568911 206.319326 
L 88.21417 205.217064 
L 88.375485 202.325248 
L 88.5368 202.874272 
L 88.698114 202.40068 
L 88.859429 203.215855 
L 89.343373 204.445919 
L 89.504688 206.2397 
L 89.666002 204.61985 
L 89.827317 204.844066 
L 89.988632 203.180239 
L 90.472576 203.13831 
L 90.633891 204.100168 
L 90.95652 200.910759 
L 91.117835 201.901959 
L 91.601779 201.044874 
L 92.247038 197.312853 
L 92.730982 196.287457 
L 93.053611 197.833948 
L 93.214926 197.436812 
L 93.376241 197.821348 
L 93.860185 196.297984 
L 94.0215 196.68038 
L 94.182814 195.400746 
L 94.344129 195.900834 
L 94.505444 195.472196 
L 95.150703 195.926061 
L 95.312017 195.636096 
L 95.634647 195.671811 
L 96.44122 194.16316 
L 96.602535 194.751492 
L 96.76385 192.822591 
L 97.247794 192.41076 
L 97.570423 188.338642 
L 97.731738 191.898072 
L 97.893053 191.288719 
L 98.376997 190.408315 
L 98.538312 188.498335 
L 98.699626 188.601279 
L 98.860941 188.571865 
L 99.022256 188.994203 
L 99.5062 187.071615 
L 99.667515 185.462094 
L 99.828829 186.821578 
L 99.990144 185.817209 
L 100.151459 188.172654 
L 100.796718 185.825602 
L 101.119347 185.970588 
L 101.764606 183.924016 
L 101.925921 184.167752 
L 102.087235 182.343929 
L 102.409865 181.858529 
L 102.893809 182.230457 
L 103.216438 180.341471 
L 103.377753 181.352141 
L 103.539068 181.516047 
L 104.023012 179.809882 
L 104.184327 180.95083 
L 104.345641 180.721807 
L 104.506956 184.443017 
L 104.668271 184.636332 
L 105.152215 182.791461 
L 105.31353 184.100523 
L 105.636159 181.631606 
L 105.797474 173.167982 
L 106.442733 170.306155 
L 106.604047 169.972048 
L 106.765362 166.744611 
L 106.926677 168.921166 
L 107.410621 167.561345 
L 107.571936 170.384136 
L 107.894565 165.63951 
L 108.539824 165.978392 
L 108.701139 165.174299 
L 108.862453 165.052196 
L 109.023768 162.890388 
L 109.185083 157.758427 
L 109.669027 156.505955 
L 109.830342 157.375324 
L 109.991656 155.946041 
L 110.152971 157.219546 
L 110.314286 157.390044 
L 110.79823 153.826315 
L 110.959545 149.498434 
L 111.120859 151.839212 
L 111.282174 160.696987 
L 111.443489 160.629638 
L 112.088748 167.48347 
L 112.250062 163.694515 
L 112.572692 168.173907 
L 113.056636 165.344816 
L 113.217951 165.193233 
L 113.701895 172.518602 
L 114.347154 168.333878 
L 114.508468 172.282837 
L 114.669783 171.356647 
L 114.831098 167.938141 
L 115.315042 165.681578 
L 115.476357 166.414136 
L 115.798986 164.140753 
L 115.960301 167.315072 
L 116.444245 164.384926 
L 116.60556 167.197176 
L 116.766874 165.580562 
L 116.928189 165.673165 
L 117.089504 163.989169 
L 117.573448 157.733166 
L 117.734762 160.511755 
L 117.896077 160.435967 
L 118.057392 160.84013 
L 118.218707 162.263093 
L 118.702651 164.82275 
L 118.863965 163.534511 
L 119.02528 164.073378 
L 119.34791 165.61423 
L 119.831854 165.60581 
L 119.993168 164.300743 
L 120.154483 168.847504 
L 120.315798 165.378484 
L 120.477113 170.81776 
L 120.961057 170.893562 
L 121.122371 169.48742 
L 121.445001 162.254686 
L 121.606316 162.368547 
L 122.251574 164.662727 
L 122.412889 161.693774 
L 122.574204 161.929956 
L 122.735519 161.887783 
L 123.219463 161.010602 
L 123.542092 162.925225 
L 123.703407 162.410727 
L 124.348666 166.450829 
L 124.671295 164.612113 
L 124.993925 164.139795 
L 125.477869 162.064911 
L 125.639183 158.969444 
L 125.800498 158.665801 
L 125.961813 158.783882 
L 126.123128 159.365861 
L 126.768386 157.569319 
L 126.929701 159.762304 
L 127.091016 158.53086 
L 127.252331 159.230913 
L 127.736275 159.762304 
L 127.897589 154.61726 
L 128.058904 154.676307 
L 128.220219 153.92564 
L 128.381534 155.646269 
L 128.865478 154.322064 
L 129.026792 151.243497 
L 129.188107 152.01947 
L 129.994681 147.186462 
L 130.31731 149.691524 
L 130.478625 150.560278 
L 131.123884 153.326782 
L 131.285198 151.97729 
L 131.446513 155.696882 
L 131.607828 152.053158 
L 131.769143 151.100096 
L 132.253087 153.689485 
L 132.414401 153.84128 
L 132.575716 152.078484 
L 132.898345 155.241412 
L 133.543604 154.659433 
L 134.027548 145.179085 
L 134.511493 141.931817 
L 134.672807 141.729375 
L 134.834122 142.65717 
L 135.156751 151.175964 
L 135.80201 148.620354 
L 135.963325 149.505949 
L 136.12464 146.596097 
L 136.285954 146.955095 
L 136.769899 146.828376 
L 137.092528 148.112342 
L 137.253843 148.331954 
L 137.415157 148.129235 
L 138.060416 149.970678 
L 138.383046 152.910256 
L 138.54436 152.775116 
L 139.028305 156.044138 
L 139.189619 156.162391 
L 139.350934 156.593195 
L 139.512249 160.276128 
L 139.673563 160.048043 
L 140.157508 154.532113 
L 140.641452 161.002571 
L 140.802766 159.912897 
L 141.286711 164.18712 
L 141.448025 160.191649 
L 141.60934 161.12927 
L 141.770655 159.456753 
L 141.931969 160.242348 
L 142.577228 156.407363 
L 142.738543 157.091573 
L 142.899858 160.66468 
L 143.061172 161.120844 
L 143.545117 158.248813 
L 143.706431 158.966822 
L 143.867746 161.036364 
L 144.190375 160.090296 
L 144.67432 159.938244 
L 144.835634 161.196857 
L 145.158264 158.578264 
L 145.964837 155.866753 
L 146.287467 152.361199 
L 146.448781 150.131171 
L 146.932725 151.617869 
L 147.09404 148.923257 
L 147.255355 150.95054 
L 147.41667 148.864151 
L 147.577984 149.15131 
L 148.061928 148.576886 
L 148.223243 150.038278 
L 148.384558 149.7088 
L 148.545873 151.026566 
L 148.707187 149.01615 
L 149.191131 148.678299 
L 149.352446 148.957031 
L 149.513761 149.64124 
L 149.675076 149.72572 
L 149.83639 151.432017 
L 150.320334 150.519768 
L 150.481649 154.48142 
L 150.642964 154.270228 
L 150.965593 152.301068 
L 151.610852 155.939497 
L 151.772167 158.596406 
L 152.094796 154.636438 
L 152.57874 155.63489 
L 152.740055 156.836397 
L 152.90137 156.971794 
L 153.062685 154.754902 
L 153.223999 156.345654 
L 153.707943 154.932585 
L 154.030573 155.144127 
L 154.353202 157.03948 
L 154.998461 157.318713 
L 155.159776 156.658721 
L 155.321091 157.944867 
L 155.482405 155.956423 
L 155.966349 155.94797 
L 156.288979 154.907212 
L 156.450294 155.770267 
L 157.095552 152.072666 
L 157.256867 152.783404 
L 157.418182 152.35186 
L 157.579497 150.964171 
L 157.740811 152.089546 
L 158.224755 150.53266 
L 158.38607 149.11113 
L 158.870014 149.847288 
L 159.353958 148.434265 
L 159.676588 146.589638 
L 159.837903 146.32731 
L 159.999217 144.051199 
L 160.644476 142.308144 
L 160.805791 140.15047 
L 160.967105 141.275846 
L 161.12842 139.69356 
L 161.612364 140.209722 
L 161.773679 139.245103 
L 161.934994 136.275167 
L 162.096308 136.842075 
L 162.257623 138.610503 
L 162.741567 141.944311 
L 162.902882 138.813579 
L 163.064197 139.448192 
L 163.386826 136.774356 
L 163.87077 136.410551 
L 164.1934 139.803571 
L 164.516029 139.058974 
L 164.999973 139.346661 
L 165.161288 137.789708 
L 165.322603 138.13666 
L 165.483917 138.043582 
L 165.645232 138.636748 
L 166.129176 138.679133 
L 166.290491 139.094385 
L 166.451806 138.874072 
L 166.61312 136.306417 
L 166.774435 136.128451 
L 167.258379 134.416659 
L 167.419694 135.204737 
L 167.581009 138.450354 
L 167.742323 138.162231 
L 167.903638 136.89957 
L 168.387582 135.611509 
L 168.548897 135.687786 
L 168.871526 137.45039 
L 169.032841 136.552142 
L 169.516785 132.721865 
L 169.6781 133.815026 
L 170.807303 129.696587 
L 171.129932 131.916788 
L 171.291247 136.23858 
L 171.775191 135.747091 
L 171.936506 136.958914 
L 172.097821 136.187768 
L 172.259135 136.391161 
L 172.42045 138.704559 
L 172.904394 141.348464 
L 173.065709 140.933252 
L 173.388338 138.052022 
L 173.549653 137.975798 
L 174.033597 139.289258 
L 174.194912 142.22134 
L 174.356227 141.441714 
L 174.517541 142.568767 
L 174.678856 141.594229 
L 175.1628 144.568616 
L 175.48543 142.145049 
L 175.646744 141.051888 
L 175.808059 141.382396 
L 176.292003 141.458634 
L 176.614633 143.06871 
L 176.937262 139.738402 
L 177.421206 138.28932 
L 177.582521 136.41656 
L 177.90515 135.806422 
L 178.066465 136.475852 
L 178.550409 136.51825 
L 178.711724 135.942017 
L 178.873039 136.34027 
L 179.034353 133.187903 
L 179.195668 135.535245 
L 179.679612 136.24706 
L 180.002242 134.10311 
L 180.163556 134.552267 
L 180.324871 134.093957 
L 180.808815 134.806841 
L 180.97013 134.492856 
L 181.131445 136.945468 
L 181.292759 136.987867 
L 181.454074 135.188729 
L 181.938018 135.180236 
L 182.099333 134.331585 
L 182.260648 132.218476 
L 182.583277 126.227025 
L 183.067221 125.828165 
L 183.389851 125.047417 
L 183.71248 129.400949 
L 184.196424 126.490119 
L 184.357739 122.195932 
L 184.519054 122.645736 
L 184.680368 123.502867 
L 184.841683 125.132279 
L 185.325627 122.178999 
L 185.648257 113.896208 
L 185.809571 114.337506 
L 185.970886 110.187579 
L 186.616145 114.53267 
L 186.77746 110.314879 
L 186.938774 116.289357 
L 187.100089 117.23987 
L 187.584033 118.419465 
L 187.906663 113.420939 
L 188.067977 112.877766 
L 188.713236 109.440776 
L 188.874551 110.323385 
L 189.035866 110.246963 
L 189.358495 111.783046 
L 189.842439 108.015073 
L 190.003754 109.975442 
L 190.326383 116.510039 
L 190.487698 116.365779 
L 190.971642 116.348767 
L 191.132957 113.896208 
L 191.294271 113.514307 
L 191.455586 116.348767 
L 191.616901 115.601951 
L 192.26216 118.377053 
L 192.584789 122.866405 
L 192.746104 124.648543 
L 193.230048 125.31899 
L 193.391363 126.880473 
L 193.552677 126.956869 
L 193.713992 127.35573 
L 193.875307 117.927276 
L 194.359251 114.150809 
L 194.520566 114.295029 
L 194.68188 113.25124 
L 194.843195 115.74625 
L 195.488454 116.612944 
L 195.811083 112.687199 
L 196.133713 119.17912 
L 196.617657 118.975172 
L 196.778972 115.652763 
L 196.940286 115.856684 
L 197.262916 120.317796 
L 197.908175 122.849947 
L 198.069489 126.461272 
L 198.392119 122.399588 
L 198.876063 122.170189 
L 199.037378 123.801636 
L 199.198692 120.946558 
L 199.360007 121.226993 
L 199.521322 123.82718 
L 200.166581 128.696121 
L 200.327895 124.014102 
L 200.650525 130.99886 
L 201.134469 134.491245 
L 201.457098 126.869207 
L 201.618413 125.993994 
L 201.779728 123.138876 
L 202.263672 121.949256 
L 202.747616 114.565096 
L 202.908931 114.01277 
L 203.392875 113.265003 
L 203.55419 110.409912 
L 203.715504 111.42109 
L 203.876819 114.106231 
L 204.038134 114.361162 
L 204.522078 110.851804 
L 204.844707 116.468473 
L 205.006022 116.205062 
L 205.167337 117.947022 
L 205.651281 121.634849 
L 205.97391 117.683638 
L 206.135225 122.025705 
L 206.780484 122.212653 
L 206.941799 120.232815 
L 207.103113 120.377246 
L 207.264428 121.065524 
L 207.425743 124.999815 
L 207.909687 124.073552 
L 208.071002 129.239915 
L 208.232316 129.435343 
L 208.393631 123.427765 
L 208.554946 128.517652 
L 209.03889 128.254228 
L 209.200205 126.962641 
L 209.361519 121.405423 
L 209.522834 129.265433 
L 209.684149 128.63568 
L 210.168093 133.077786 
L 210.329408 130.99289 
L 210.652037 141.162071 
L 210.813352 137.290109 
L 211.297296 138.626142 
L 211.458611 135.477512 
L 211.78124 145.595631 
L 211.942555 145.391419 
L 212.426499 140.694039 
L 212.587814 143.03421 
L 212.749128 142.898073 
L 212.910443 140.123882 
L 213.071758 135.137177 
L 213.878331 135.928558 
L 214.039646 133.801092 
L 214.200961 138.762278 
L 214.684905 138.115554 
L 214.84622 135.928558 
L 215.007534 136.566777 
L 215.330164 145.78287 
L 215.814108 150.250507 
L 215.975423 149.501643 
L 216.136737 147.229534 
L 216.298052 151.79925 
L 216.459367 150.522806 
L 217.104626 146.855096 
L 217.26594 147.297596 
L 217.58857 141.92796 
L 218.072514 141.92796 
L 218.233829 145.519063 
L 218.395143 143.995818 
L 218.556458 146.13179 
L 218.717773 144.251118 
L 219.363031 142.013034 
L 219.524346 140.855734 
L 219.685661 137.936874 
L 219.846976 137.349691 
L 220.33092 139.196339 
L 220.492234 138.353855 
L 220.653549 138.668685 
L 220.976179 134.686145 
L 221.460123 137.324147 
L 221.782752 132.243822 
L 221.944067 130.27805 
L 222.105382 131.350316 
L 222.589326 132.320403 
L 222.75064 133.469223 
L 222.911955 129.052649 
L 223.07327 128.576125 
L 223.234585 124.185069 
L 223.718529 125.036058 
L 223.879843 126.312522 
L 224.041158 121.104554 
L 224.363788 121.572823 
L 224.847732 121.981906 
L 225.009046 121.93927 
L 225.170361 118.257942 
L 225.331676 118.897072 
L 225.492991 115.820784 
L 225.976935 114.891933 
L 226.138249 115.028294 
L 226.299564 113.732982 
L 226.460879 114.073858 
L 226.622194 116.315034 
L 227.106138 119.681043 
L 227.267452 119.970791 
L 227.428767 119.715147 
L 227.590082 117.584735 
L 227.751397 123.047092 
L 228.235341 124.955898 
L 228.55797 128.500917 
L 228.719285 127.87028 
L 228.8806 129.702438 
L 229.525858 130.793222 
L 229.687173 129.574596 
L 229.848488 130.852896 
L 230.009803 128.373089 
L 230.493747 123.208998 
L 230.655061 131.38121 
L 230.816376 130.128521 
L 231.139006 134.056987 
L 231.62295 130.835818 
L 231.784264 128.773627 
L 231.945579 131.483467 
L 232.106894 132.318567 
L 232.268209 134.28706 
L 232.752153 133.997326 
L 232.913467 133.153707 
L 233.074782 134.789829 
L 233.397411 144.708979 
L 233.881356 141.087273 
L 234.04267 137.976894 
L 234.203985 137.721277 
L 234.3653 138.547857 
L 234.526614 143.098388 
L 235.010559 142.81716 
L 235.333188 144.589657 
L 235.494503 140.627127 
L 235.655817 144.55558 
L 236.301076 139.979491 
L 236.462391 139.885765 
L 236.623706 140.286263 
L 236.78502 136.979876 
L 237.268965 135.122186 
L 237.430279 132.659444 
L 237.752909 139.084729 
L 237.914223 129.7621 
L 238.398168 131.807279 
L 238.559482 134.099596 
L 238.882112 144.129484 
L 239.043426 144.359954 
L 239.527371 143.899041 
L 239.688685 143.403973 
L 239.85 147.356016 
L 240.011315 137.113172 
L 240.172629 134.697517 
L 240.656574 135.909591 
L 240.817888 134.407307 
L 240.979203 135.47429 
L 241.140518 133.826874 
L 241.301832 133.340351 
L 241.785777 136.140061 
L 242.108406 133.528105 
L 243.076294 141.978507 
L 243.237609 136.123009 
L 243.398924 135.883994 
L 244.044183 137.317965 
L 244.366812 142.17482 
L 244.528127 140.715212 
L 244.689441 141.133449 
L 245.3347 138.308116 
L 245.496015 140.237195 
L 245.65733 145.96468 
L 245.818644 147.66329 
L 246.302589 149.489941 
L 246.463903 149.549681 
L 246.625218 146.860921 
L 246.786533 149.609448 
L 246.947847 149.925256 
L 247.593106 151.487293 
L 247.754421 154.893046 
L 247.915736 151.845796 
L 248.07705 151.572658 
L 248.722309 155.721014 
L 248.883624 154.619908 
L 249.044939 155.763702 
L 249.206253 151.837257 
L 249.690197 151.38489 
L 249.851512 150.889795 
L 250.012827 148.533933 
L 250.174142 148.60222 
L 250.335456 147.449899 
L 250.980715 146.442684 
L 251.14203 147.065766 
L 251.303345 147.014584 
L 251.464659 144.795295 
L 252.109918 140.817628 
L 252.271233 141.389529 
L 252.593862 137.915489 
L 253.077806 140.41647 
L 253.400436 138.342285 
L 253.723065 130.600369 
L 254.207009 132.964764 
L 254.368324 130.472342 
L 254.690954 133.698847 
L 254.852268 133.382538 
L 255.336212 130.954692 
L 255.497527 131.510359 
L 255.658842 129.689494 
L 255.981471 132.066014 
L 256.62673 135.545363 
L 256.94936 134.758882 
L 257.110674 137.058477 
L 257.594618 136.024106 
L 257.755933 136.460081 
L 257.917248 138.255336 
L 258.078563 137.742396 
L 258.239877 133.365434 
L 258.723821 130.971757 
L 258.885136 132.878158 
L 259.046451 131.792459 
L 259.36908 135.528271 
L 259.853024 133.844177 
L 260.014339 132.031818 
L 260.175654 131.689872 
L 260.336969 129.24492 
L 260.498283 129.971581 
L 260.982227 127.91989 
L 261.143542 126.31272 
L 261.304857 127.55228 
L 261.627486 125.483471 
L 262.272745 127.706169 
L 262.756689 121.508327 
L 263.240633 120.422616 
L 263.401948 120.884255 
L 263.563263 122.482866 
L 263.724577 121.713464 
L 264.369836 123.961798 
L 264.692466 125.61171 
L 264.85378 120.944088 
L 265.015095 121.243279 
L 265.499039 121.226214 
L 265.821669 119.174484 
L 266.144298 121.40574 
L 266.628242 121.140718 
L 266.789557 122.47432 
L 266.950872 122.482866 
L 267.112186 118.507682 
L 267.273501 117.422024 
L 267.757445 117.498948 
L 268.241389 120.747484 
L 268.402704 114.096537 
L 268.886648 114.15637 
L 269.047963 115.635315 
L 269.209278 114.105096 
L 269.370592 113.942675 
L 269.531907 114.74733 
L 270.177166 115.175406 
L 270.338481 114.644596 
L 270.499795 112.624328 
L 270.66111 112.53014 
L 271.145054 113.351992 
L 271.306369 115.611976 
L 271.467684 115.372261 
L 271.628998 114.38779 
L 271.790313 112.299024 
L 272.435572 110.698207 
L 272.596887 110.741014 
L 272.758201 108.3098 
L 272.919516 107.57359 
L 273.564775 109.063101 
L 273.72609 110.253065 
L 273.887404 107.898894 
L 274.048719 107.565017 
L 274.532663 105.142388 
L 274.693978 105.553308 
L 274.855293 105.005406 
L 275.016607 103.241944 
L 275.177922 104.175035 
L 275.823181 104.098005 
L 275.984496 104.996834 
L 276.14581 102.394442 
L 276.307125 102.668379 
L 276.791069 103.875421 
L 277.113699 100.468308 
L 277.275013 100.177252 
L 277.436328 96.427704 
L 278.242902 98.687688 
L 278.404216 98.276795 
L 278.565531 99.244148 
L 279.21079 101.46987 
L 279.533419 99.363986 
L 279.694734 99.235589 
L 280.178678 96.410573 
L 280.339993 96.633183 
L 280.501308 95.460351 
L 280.823937 98.16549 
L 281.307881 97.4721 
L 281.630511 95.97399 
L 281.791825 97.06974 
L 281.95314 94.835446 
L 282.437084 94.304689 
L 282.598399 95.023781 
L 282.921028 98.82467 
L 283.082343 106.68328 
L 283.566287 109.371314 
L 283.727602 108.558061 
L 283.888917 109.93632 
L 284.050231 110.124655 
L 284.211546 110.073209 
L 284.69549 108.641642 
L 285.179434 113.322036 
L 285.824693 111.744796 
L 285.986008 110.553247 
L 286.147323 107.218686 
L 286.308637 111.281876 
L 286.469952 109.370284 
L 286.953896 108.015865 
L 287.276526 101.621077 
L 287.43784 101.432477 
L 287.599155 100.069487 
L 288.244414 99.863783 
L 288.567043 110.270354 
L 288.728358 109.738897 
L 289.212302 108.727402 
L 289.534932 113.142035 
L 289.696246 111.83049 
L 289.857561 112.456254 
L 290.50282 108.97598 
L 290.825449 113.382067 
L 290.986764 112.644866 
L 291.470708 111.539052 
L 291.793337 116.382329 
L 291.954652 116.159441 
L 292.115967 115.713679 
L 292.599911 113.536339 
L 292.761226 114.693586 
L 293.083855 112.541975 
L 293.24517 110.330346 
L 293.729114 109.044544 
L 293.890429 109.558883 
L 294.213058 107.570129 
L 294.374373 109.164553 
L 294.858317 109.276004 
L 295.180946 111.744796 
L 295.342261 112.070509 
L 295.503576 114.282125 
L 295.98752 114.179273 
L 296.148835 113.8021 
L 296.310149 115.807972 
L 296.471464 119.416853 
L 296.632779 118.276751 
L 297.278038 116.090851 
L 297.600667 110.261769 
L 297.761982 111.050429 
L 298.245926 108.838813 
L 298.568555 105.701411 
L 298.72987 106.112858 
L 298.891185 102.482078 
L 299.375129 103.855424 
L 299.536444 101.589391 
L 299.697758 101.100147 
L 299.859073 99.640961 
L 300.020388 99.658118 
L 300.504332 98.147447 
L 300.665647 98.842712 
L 300.826961 98.267628 
L 301.149591 99.417796 
L 301.633535 99.572305 
L 301.79485 99.04872 
L 301.956164 99.932809 
L 302.117479 99.434953 
L 302.278794 98.327686 
L 302.762738 99.88131 
L 302.924053 96.456524 
L 303.085367 97.400697 
L 303.407997 94.490897 
L 303.891941 96.662519 
L 304.053256 95.34923 
L 304.21457 92.559612 
L 304.375885 92.430872 
L 305.021144 94.336402 
L 305.182459 93.435142 
L 305.343773 95.246233 
L 305.505088 95.375 
L 305.666403 96.302002 
L 306.311662 96.774115 
L 306.472976 96.688248 
L 306.634291 96.319172 
L 306.795606 97.220445 
L 307.924809 106.962632 
L 308.408753 103.203099 
L 308.570068 103.563602 
L 308.731382 102.66233 
L 308.892697 103.177343 
L 309.054012 102.894094 
L 309.860585 105.67514 
L 310.183215 98.053035 
L 310.828474 94.945813 
L 311.151103 95.812758 
L 311.312418 97.314857 
L 311.796362 97.907111 
L 312.118991 104.19877 
L 312.280306 102.087246 
L 312.441621 102.954178 
L 312.925565 101.383409 
L 313.08688 99.992893 
L 313.248194 99.898467 
L 313.409509 100.834042 
L 313.570824 100.172286 
L 314.054768 101.633347 
L 314.377397 104.211661 
L 314.538712 104.460899 
L 314.700027 105.793036 
L 315.345286 106.437608 
L 315.5066 105.784424 
L 315.667915 104.022573 
L 315.82923 105.612533 
L 316.313174 106.781377 
L 316.474489 105.517989 
L 317.442377 111.989569 
L 317.603692 116.269584 
L 317.765006 117.12904 
L 317.926321 117.232169 
L 318.087636 115.745326 
L 318.732895 113.596726 
L 318.894209 115.401543 
L 319.055524 113.7944 
L 319.216839 114.120998 
L 319.700783 113.17561 
L 320.023412 108.921404 
L 320.184727 115.195311 
L 320.346042 114.413203 
L 320.829986 115.642183 
L 320.9913 116.621952 
L 321.152615 113.527978 
L 321.31393 115.100767 
L 321.959189 116.346931 
L 322.120503 117.369693 
L 322.281818 116.673543 
L 322.443133 117.38685 
L 322.604448 116.733667 
L 323.088392 117.704837 
L 323.249706 116.656333 
L 323.411021 118.280673 
L 323.572336 112.041161 
L 323.733651 110.743405 
L 324.217595 114.060822 
L 324.540224 118.091612 
L 324.701539 118.916673 
L 324.862854 120.669926 
L 325.346798 119.947994 
L 325.508112 119.036986 
L 325.830742 116.467258 
L 325.992057 116.974333 
L 326.476001 113.364672 
L 326.79863 116.974333 
L 326.959945 113.768617 
L 327.12126 104.873417 
L 327.605204 106.308683 
L 327.927833 105.423458 
L 328.089148 103.850695 
L 328.250463 104.943645 
L 328.895721 101.174231 
L 329.057036 99.203414 
L 329.379666 99.074344 
L 329.86361 98.067419 
L 330.024924 96.940022 
L 330.186239 98.187917 
L 330.347554 101.647546 
L 330.508869 98.979681 
L 331.154127 98.971069 
L 331.315442 98.712889 
L 331.638072 97.0261 
L 332.28333 95.218813 
L 332.444645 93.910715 
L 332.60596 95.106953 
L 332.767275 93.0329 
L 333.251219 96.277368 
L 333.573848 79.108306 
L 333.735163 78.101382 
L 333.896477 79.607456 
L 334.380422 76.010132 
L 335.02568 83.91048 
L 335.509625 83.351088 
L 335.670939 82.550712 
L 335.832254 78.953401 
L 335.993569 78.22188 
L 336.154883 81.216806 
L 336.638828 75.941291 
L 336.961457 71.81037 
L 337.284086 67.688087 
L 337.768031 66.414397 
L 337.929345 65.674277 
L 338.09066 61.973691 
L 338.251975 66.629531 
L 338.413289 64.073553 
L 339.058548 60.390164 
L 339.381178 69.547005 
L 339.542492 69.435132 
L 340.026437 69.736331 
L 340.187751 68.832694 
L 340.349066 74.400822 
L 340.510381 75.304433 
L 340.671695 74.899946 
L 341.15564 74.658976 
L 341.316954 74.177036 
L 341.478269 71.354266 
L 341.639584 74.555715 
L 341.800898 73.264814 
L 342.446157 84.13424 
L 342.930101 76.380172 
L 343.414046 75.053319 
L 343.57536 71.830935 
L 343.736675 71.443209 
L 344.059304 67.712483 
L 344.543249 67.850349 
L 344.704563 67.316145 
L 344.865878 67.410927 
L 345.027193 69.022125 
L 345.188507 67.031826 
L 345.672452 66.738895 
L 345.833766 66.006515 
L 345.995081 67.333395 
L 346.156396 64.490099 
L 346.31771 65.170768 
L 347.124284 72.192813 
L 347.285599 70.874558 
L 347.446913 72.218661 
L 347.930857 72.141103 
L 348.092172 72.830411 
L 348.253487 70.633311 
L 348.414802 70.538529 
L 348.576116 70.771178 
L 349.06006 76.095866 
L 349.221375 75.69093 
L 349.38269 72.330666 
L 349.544005 65.282774 
L 350.189263 67.350618 
L 350.350578 66.57518 
L 350.511893 67.436775 
L 350.673208 66.445938 
L 350.834522 66.213316 
L 351.318466 61.724361 
L 351.479781 67.574642 
L 351.641096 67.083523 
L 351.802411 68.0399 
L 351.963725 67.066286 
L 352.447669 71.469058 
L 352.770299 64.705497 
L 352.931614 65.136321 
L 353.092928 66.420076 
L 353.576872 63.189081 
L 353.738187 60.991994 
L 353.899502 62.77552 
L 354.060817 62.456727 
L 354.222131 60.00117 
L 354.706075 58.725987 
L 354.86739 59.260178 
L 355.028705 63.654352 
L 355.19002 63.818054 
L 355.835278 61.379733 
L 355.996593 61.147098 
L 356.480537 70.417899 
L 356.964481 71.193364 
L 357.125796 69.952641 
L 357.287111 70.581614 
L 357.448426 66.480398 
L 357.60974 66.713284 
L 358.093684 69.068037 
L 358.254999 69.068037 
L 358.416314 68.300378 
L 358.577629 65.626477 
L 358.738943 68.403891 
L 359.222887 65.798989 
L 359.384202 65.574727 
L 359.545517 64.953692 
L 359.706832 65.367715 
L 359.868146 64.20327 
L 360.35209 61.615631 
L 360.513405 59.726651 
L 360.67472 59.838776 
L 360.997349 57.768659 
L 361.481293 55.819305 
L 361.642608 53.179903 
L 361.803923 52.869392 
L 361.965238 52.843504 
L 362.126552 53.016016 
L 362.771811 48.763646 
L 362.933126 49.867717 
L 363.09444 48.599746 
L 363.255755 48.453135 
L 363.739699 45.943121 
L 363.901014 43.838504 
L 364.062329 48.522135 
L 364.223643 47.021304 
L 364.384958 42.96732 
L 364.868902 42.294522 
L 365.030217 39.767271 
L 365.352846 39.06 
L 365.514161 42.018524 
L 366.15942 46.477893 
L 366.482049 52.144832 
L 366.643364 52.567493 
L 367.127308 51.152911 
L 367.288623 53.559414 
L 367.449938 53.136779 
L 367.772567 58.182682 
L 368.417826 61.261982 
L 368.579141 57.302886 
L 368.740455 65.591964 
L 368.90177 64.108396 
L 369.547029 70.439494 
L 369.708344 69.413074 
L 369.869658 69.559685 
L 370.030973 70.318745 
L 370.514917 64.211895 
L 370.676232 56.966501 
L 370.837547 56.017679 
L 371.160176 58.915842 
L 371.64412 65.807614 
L 371.805435 61.675992 
L 371.96675 61.960642 
L 372.128064 61.313732 
L 372.289379 66.135374 
L 372.773323 65.90225 
L 373.418582 51.26596 
L 374.063841 51.378216 
L 374.225156 51.032823 
L 374.38647 50.203852 
L 374.547785 50.44564 
L 375.031729 49.107217 
L 375.193044 49.159033 
L 375.515673 57.569493 
L 375.676988 53.649216 
L 376.483562 58.916542 
L 376.644876 59.270573 
L 376.806191 56.041097 
L 377.290135 66.049032 
L 377.774079 81.419287 
L 377.935394 78.129357 
L 378.419338 77.68897 
L 378.580653 78.820144 
L 378.741968 76.618236 
L 378.903282 77.602615 
L 379.064597 74.00183 
L 379.548541 71.877639 
L 379.709856 69.269871 
L 379.871171 71.186839 
L 380.032485 69.183516 
L 380.1938 74.321336 
L 380.839059 69.753422 
L 381.000374 69.148977 
L 381.323003 99.811756 
L 381.806947 105.787158 
L 381.968262 113.593187 
L 382.129577 90.770949 
L 382.290891 98.050235 
L 382.452206 91.375407 
L 382.93615 87.601912 
L 383.097465 87.930056 
L 383.25878 94.725765 
L 383.420094 92.385687 
L 384.065353 95.684242 
L 384.549297 82.550461 
L 384.710612 81.764681 
L 385.194556 81.022065 
L 385.6785 78.276139 
L 385.839815 85.158216 
L 386.323759 90.736409 
L 386.485074 91.06454 
L 386.646389 93.016047 
L 386.969018 91.047263 
L 387.614277 78.371806 
L 388.098221 79.815736 
L 388.582165 81.960016 
L 388.74348 83.620098 
L 388.904795 87.744389 
L 389.066109 88.375568 
L 389.227424 93.64115 
L 389.872683 89.369879 
L 390.033998 89.188319 
L 390.195312 89.594695 
L 390.356627 88.816523 
L 390.840571 88.081594 
L 391.001886 86.724124 
L 391.1632 87.113197 
L 391.324515 89.006733 
L 391.48583 86.162116 
L 391.969774 88.297745 
L 392.131089 87.242901 
L 392.292403 90.606309 
L 392.453718 90.243163 
L 392.615033 92.620898 
L 393.098977 90.917572 
L 393.260292 93.321248 
L 393.421606 92.508497 
L 393.744236 88.686831 
L 394.22818 88.254515 
L 394.389495 89.292069 
L 394.550809 88.202633 
L 394.712124 88.686831 
L 394.873439 88.61766 
L 395.357383 85.081331 
L 395.518698 82.790057 
L 395.680012 78.795471 
L 395.841327 77.835726 
L 396.486586 80.948403 
L 396.647901 80.896521 
L 396.97053 78.821412 
L 397.131845 79.902197 
L 397.615789 82.098359 
L 397.777104 81.67468 
L 397.938418 80.766817 
L 398.099733 80.88787 
L 398.261048 79.884907 
L 398.744992 78.760892 
L 398.906307 77.100797 
L 399.228936 77.654166 
L 399.390251 77.550403 
L 399.874195 77.403409 
L 400.519454 87.493632 
L 401.003398 86.654939 
L 401.164713 87.026749 
L 401.648657 64.174582 
L 402.132601 65.827914 
L 402.45523 60.504401 
L 402.616545 60.98049 
L 402.77786 62.010569 
L 403.423119 62.902146 
L 403.584433 66.840677 
L 403.745748 67.801506 
L 403.907063 65.325859 
L 404.391007 65.845217 
L 404.713636 62.962732 
L 404.713636 62.962732 
" clip-path="url(#pb2a98a0fe3)" style="fill: none; stroke: #1f77b4; stroke-width: 1.5; stroke-linecap: square"/>
   </g>
   <g id="patch_3">
    <path d="M 58.5 224.28 
L 58.5 30.24 
" style="fill: none; stroke: #000000; stroke-width: 0.8; stroke-linejoin: miter; stroke-linecap: square"/>
   </g>
   <g id="patch_4">
    <path d="M 58.5 224.28 
L 421.2 224.28 
" style="fill: none; stroke: #000000; stroke-width: 0.8; stroke-linejoin: miter; stroke-linecap: square"/>
   </g>
  </g>
 </g>
 <defs>
  <clipPath id="pb2a98a0fe3">
   <rect x="58.5" y="30.24" width="362.7" height="194.04"/>
  </clipPath>
 </defs>
</svg>
