<?xml version="1.0" encoding="utf-8" standalone="no"?>
<!DOCTYPE svg PUBLIC "-//W3C//DTD SVG 1.1//EN"
  "http://www.w3.org/Graphics/SVG/1.1/DTD/svg11.dtd">
<svg xmlns:xlink="http://www.w3.org/1999/xlink" width="756pt" height="252pt" viewBox="0 0 756 252" xmlns="http://www.w3.org/2000/svg" version="1.1">
 <metadata>
  <rdf:RDF xmlns:dc="http://purl.org/dc/elements/1.1/" xmlns:cc="http://creativecommons.org/ns#" xmlns:rdf="http://www.w3.org/1999/02/22-rdf-syntax-ns#">
   <cc:Work>
    <dc:type rdf:resource="http://purl.org/dc/dcmitype/StillImage"/>
    <dc:date>2025-09-06T14:16:06.405044</dc:date>
    <dc:format>image/svg+xml</dc:format>
    <dc:creator>
     <cc:Agent>
      <dc:title>Matplotlib v3.10.5, https://matplotlib.org/</dc:title>
     </cc:Agent>
    </dc:creator>
   </cc:Work>
  </rdf:RDF>
 </metadata>
 <defs>
  <style type="text/css">*{stroke-linejoin: round; stroke-linecap: butt}</style>
 </defs>
 <g id="figure_1">
  <g id="patch_1">
   <path d="M 0 252 
L 756 252 
L 756 0 
L 0 0 
z
" style="fill: #ffffff"/>
  </g>
  <g id="axes_1">
   <g id="patch_2">
    <path d="M 94.5 224.28 
L 680.4 224.28 
L 680.4 30.24 
L 94.5 30.24 
z
" style="fill: #ffffff"/>
   </g>
   <g id="matplotlib.axis_1">
    <g id="xtick_1">
     <g id="line2d_1">
      <defs>
       <path id="m56dae94b93" d="M 0 0 
L 0 3.5 
" style="stroke: #000000; stroke-width: 0.8"/>
      </defs>
      <g>
       <use xlink:href="#m56dae94b93" x="115.678204" y="224.28" style="stroke: #000000; stroke-width: 0.8"/>
      </g>
     </g>
     <g id="text_1">
      <!-- 2020 -->
      <g transform="translate(102.953204 238.878438) scale(0.1 -0.1)">
       <defs>
        <path id="DejaVuSans-32" d="M 1228 531 
L 3431 531 
L 3431 0 
L 469 0 
L 469 531 
Q 828 903 1448 1529 
Q 2069 2156 2228 2338 
Q 2531 2678 2651 2914 
Q 2772 3150 2772 3378 
Q 2772 3750 2511 3984 
Q 2250 4219 1831 4219 
Q 1534 4219 1204 4116 
Q 875 4013 500 3803 
L 500 4441 
Q 881 4594 1212 4672 
Q 1544 4750 1819 4750 
Q 2544 4750 2975 4387 
Q 3406 4025 3406 3419 
Q 3406 3131 3298 2873 
Q 3191 2616 2906 2266 
Q 2828 2175 2409 1742 
Q 1991 1309 1228 531 
z
" transform="scale(0.015625)"/>
        <path id="DejaVuSans-30" d="M 2034 4250 
Q 1547 4250 1301 3770 
Q 1056 3291 1056 2328 
Q 1056 1369 1301 889 
Q 1547 409 2034 409 
Q 2525 409 2770 889 
Q 3016 1369 3016 2328 
Q 3016 3291 2770 3770 
Q 2525 4250 2034 4250 
z
M 2034 4750 
Q 2819 4750 3233 4129 
Q 3647 3509 3647 2328 
Q 3647 1150 3233 529 
Q 2819 -91 2034 -91 
Q 1250 -91 836 529 
Q 422 1150 422 2328 
Q 422 3509 836 4129 
Q 1250 4750 2034 4750 
z
" transform="scale(0.015625)"/>
       </defs>
       <use xlink:href="#DejaVuSans-32"/>
       <use xlink:href="#DejaVuSans-30" transform="translate(63.623047 0)"/>
       <use xlink:href="#DejaVuSans-32" transform="translate(127.246094 0)"/>
       <use xlink:href="#DejaVuSans-30" transform="translate(190.869141 0)"/>
      </g>
     </g>
    </g>
    <g id="xtick_2">
     <g id="line2d_2">
      <g>
       <use xlink:href="#m56dae94b93" x="210.726916" y="224.28" style="stroke: #000000; stroke-width: 0.8"/>
      </g>
     </g>
     <g id="text_2">
      <!-- 2021 -->
      <g transform="translate(198.001916 238.878438) scale(0.1 -0.1)">
       <defs>
        <path id="DejaVuSans-31" d="M 794 531 
L 1825 531 
L 1825 4091 
L 703 3866 
L 703 4441 
L 1819 4666 
L 2450 4666 
L 2450 531 
L 3481 531 
L 3481 0 
L 794 0 
L 794 531 
z
" transform="scale(0.015625)"/>
       </defs>
       <use xlink:href="#DejaVuSans-32"/>
       <use xlink:href="#DejaVuSans-30" transform="translate(63.623047 0)"/>
       <use xlink:href="#DejaVuSans-32" transform="translate(127.246094 0)"/>
       <use xlink:href="#DejaVuSans-31" transform="translate(190.869141 0)"/>
      </g>
     </g>
    </g>
    <g id="xtick_3">
     <g id="line2d_3">
      <g>
       <use xlink:href="#m56dae94b93" x="305.515932" y="224.28" style="stroke: #000000; stroke-width: 0.8"/>
      </g>
     </g>
     <g id="text_3">
      <!-- 2022 -->
      <g transform="translate(292.790932 238.878438) scale(0.1 -0.1)">
       <use xlink:href="#DejaVuSans-32"/>
       <use xlink:href="#DejaVuSans-30" transform="translate(63.623047 0)"/>
       <use xlink:href="#DejaVuSans-32" transform="translate(127.246094 0)"/>
       <use xlink:href="#DejaVuSans-32" transform="translate(190.869141 0)"/>
      </g>
     </g>
    </g>
    <g id="xtick_4">
     <g id="line2d_4">
      <g>
       <use xlink:href="#m56dae94b93" x="400.304949" y="224.28" style="stroke: #000000; stroke-width: 0.8"/>
      </g>
     </g>
     <g id="text_4">
      <!-- 2023 -->
      <g transform="translate(387.579949 238.878438) scale(0.1 -0.1)">
       <defs>
        <path id="DejaVuSans-33" d="M 2597 2516 
Q 3050 2419 3304 2112 
Q 3559 1806 3559 1356 
Q 3559 666 3084 287 
Q 2609 -91 1734 -91 
Q 1441 -91 1130 -33 
Q 819 25 488 141 
L 488 750 
Q 750 597 1062 519 
Q 1375 441 1716 441 
Q 2309 441 2620 675 
Q 2931 909 2931 1356 
Q 2931 1769 2642 2001 
Q 2353 2234 1838 2234 
L 1294 2234 
L 1294 2753 
L 1863 2753 
Q 2328 2753 2575 2939 
Q 2822 3125 2822 3475 
Q 2822 3834 2567 4026 
Q 2313 4219 1838 4219 
Q 1578 4219 1281 4162 
Q 984 4106 628 3988 
L 628 4550 
Q 988 4650 1302 4700 
Q 1616 4750 1894 4750 
Q 2613 4750 3031 4423 
Q 3450 4097 3450 3541 
Q 3450 3153 3228 2886 
Q 3006 2619 2597 2516 
z
" transform="scale(0.015625)"/>
       </defs>
       <use xlink:href="#DejaVuSans-32"/>
       <use xlink:href="#DejaVuSans-30" transform="translate(63.623047 0)"/>
       <use xlink:href="#DejaVuSans-32" transform="translate(127.246094 0)"/>
       <use xlink:href="#DejaVuSans-33" transform="translate(190.869141 0)"/>
      </g>
     </g>
    </g>
    <g id="xtick_5">
     <g id="line2d_5">
      <g>
       <use xlink:href="#m56dae94b93" x="495.093965" y="224.28" style="stroke: #000000; stroke-width: 0.8"/>
      </g>
     </g>
     <g id="text_5">
      <!-- 2024 -->
      <g transform="translate(482.368965 238.878438) scale(0.1 -0.1)">
       <defs>
        <path id="DejaVuSans-34" d="M 2419 4116 
L 825 1625 
L 2419 1625 
L 2419 4116 
z
M 2253 4666 
L 3047 4666 
L 3047 1625 
L 3713 1625 
L 3713 1100 
L 3047 1100 
L 3047 0 
L 2419 0 
L 2419 1100 
L 313 1100 
L 313 1709 
L 2253 4666 
z
" transform="scale(0.015625)"/>
       </defs>
       <use xlink:href="#DejaVuSans-32"/>
       <use xlink:href="#DejaVuSans-30" transform="translate(63.623047 0)"/>
       <use xlink:href="#DejaVuSans-32" transform="translate(127.246094 0)"/>
       <use xlink:href="#DejaVuSans-34" transform="translate(190.869141 0)"/>
      </g>
     </g>
    </g>
    <g id="xtick_6">
     <g id="line2d_6">
      <g>
       <use xlink:href="#m56dae94b93" x="590.142678" y="224.28" style="stroke: #000000; stroke-width: 0.8"/>
      </g>
     </g>
     <g id="text_6">
      <!-- 2025 -->
      <g transform="translate(577.417678 238.878438) scale(0.1 -0.1)">
       <defs>
        <path id="DejaVuSans-35" d="M 691 4666 
L 3169 4666 
L 3169 4134 
L 1269 4134 
L 1269 2991 
Q 1406 3038 1543 3061 
Q 1681 3084 1819 3084 
Q 2600 3084 3056 2656 
Q 3513 2228 3513 1497 
Q 3513 744 3044 326 
Q 2575 -91 1722 -91 
Q 1428 -91 1123 -41 
Q 819 9 494 109 
L 494 744 
Q 775 591 1075 516 
Q 1375 441 1709 441 
Q 2250 441 2565 725 
Q 2881 1009 2881 1497 
Q 2881 1984 2565 2268 
Q 2250 2553 1709 2553 
Q 1456 2553 1204 2497 
Q 953 2441 691 2322 
L 691 4666 
z
" transform="scale(0.015625)"/>
       </defs>
       <use xlink:href="#DejaVuSans-32"/>
       <use xlink:href="#DejaVuSans-30" transform="translate(63.623047 0)"/>
       <use xlink:href="#DejaVuSans-32" transform="translate(127.246094 0)"/>
       <use xlink:href="#DejaVuSans-35" transform="translate(190.869141 0)"/>
      </g>
     </g>
    </g>
   </g>
   <g id="matplotlib.axis_2">
    <g id="ytick_1">
     <g id="line2d_7">
      <defs>
       <path id="m7ae6a17d82" d="M 0 0 
L -3.5 0 
" style="stroke: #000000; stroke-width: 0.8"/>
      </defs>
      <g>
       <use xlink:href="#m7ae6a17d82" x="94.5" y="219.196782" style="stroke: #000000; stroke-width: 0.8"/>
      </g>
     </g>
     <g id="text_7">
      <!-- 50 -->
      <g transform="translate(74.775 222.996001) scale(0.1 -0.1)">
       <use xlink:href="#DejaVuSans-35"/>
       <use xlink:href="#DejaVuSans-30" transform="translate(63.623047 0)"/>
      </g>
     </g>
    </g>
    <g id="ytick_2">
     <g id="line2d_8">
      <g>
       <use xlink:href="#m7ae6a17d82" x="94.5" y="197.556519" style="stroke: #000000; stroke-width: 0.8"/>
      </g>
     </g>
     <g id="text_8">
      <!-- 75 -->
      <g transform="translate(74.775 201.355738) scale(0.1 -0.1)">
       <defs>
        <path id="DejaVuSans-37" d="M 525 4666 
L 3525 4666 
L 3525 4397 
L 1831 0 
L 1172 0 
L 2766 4134 
L 525 4134 
L 525 4666 
z
" transform="scale(0.015625)"/>
       </defs>
       <use xlink:href="#DejaVuSans-37"/>
       <use xlink:href="#DejaVuSans-35" transform="translate(63.623047 0)"/>
      </g>
     </g>
    </g>
    <g id="ytick_3">
     <g id="line2d_9">
      <g>
       <use xlink:href="#m7ae6a17d82" x="94.5" y="175.916255" style="stroke: #000000; stroke-width: 0.8"/>
      </g>
     </g>
     <g id="text_9">
      <!-- 100 -->
      <g transform="translate(68.4125 179.715474) scale(0.1 -0.1)">
       <use xlink:href="#DejaVuSans-31"/>
       <use xlink:href="#DejaVuSans-30" transform="translate(63.623047 0)"/>
       <use xlink:href="#DejaVuSans-30" transform="translate(127.246094 0)"/>
      </g>
     </g>
    </g>
    <g id="ytick_4">
     <g id="line2d_10">
      <g>
       <use xlink:href="#m7ae6a17d82" x="94.5" y="154.275992" style="stroke: #000000; stroke-width: 0.8"/>
      </g>
     </g>
     <g id="text_10">
      <!-- 125 -->
      <g transform="translate(68.4125 158.07521) scale(0.1 -0.1)">
       <use xlink:href="#DejaVuSans-31"/>
       <use xlink:href="#DejaVuSans-32" transform="translate(63.623047 0)"/>
       <use xlink:href="#DejaVuSans-35" transform="translate(127.246094 0)"/>
      </g>
     </g>
    </g>
    <g id="ytick_5">
     <g id="line2d_11">
      <g>
       <use xlink:href="#m7ae6a17d82" x="94.5" y="132.635728" style="stroke: #000000; stroke-width: 0.8"/>
      </g>
     </g>
     <g id="text_11">
      <!-- 150 -->
      <g transform="translate(68.4125 136.434947) scale(0.1 -0.1)">
       <use xlink:href="#DejaVuSans-31"/>
       <use xlink:href="#DejaVuSans-35" transform="translate(63.623047 0)"/>
       <use xlink:href="#DejaVuSans-30" transform="translate(127.246094 0)"/>
      </g>
     </g>
    </g>
    <g id="ytick_6">
     <g id="line2d_12">
      <g>
       <use xlink:href="#m7ae6a17d82" x="94.5" y="110.995464" style="stroke: #000000; stroke-width: 0.8"/>
      </g>
     </g>
     <g id="text_12">
      <!-- 175 -->
      <g transform="translate(68.4125 114.794683) scale(0.1 -0.1)">
       <use xlink:href="#DejaVuSans-31"/>
       <use xlink:href="#DejaVuSans-37" transform="translate(63.623047 0)"/>
       <use xlink:href="#DejaVuSans-35" transform="translate(127.246094 0)"/>
      </g>
     </g>
    </g>
    <g id="ytick_7">
     <g id="line2d_13">
      <g>
       <use xlink:href="#m7ae6a17d82" x="94.5" y="89.355201" style="stroke: #000000; stroke-width: 0.8"/>
      </g>
     </g>
     <g id="text_13">
      <!-- 200 -->
      <g transform="translate(68.4125 93.154419) scale(0.1 -0.1)">
       <use xlink:href="#DejaVuSans-32"/>
       <use xlink:href="#DejaVuSans-30" transform="translate(63.623047 0)"/>
       <use xlink:href="#DejaVuSans-30" transform="translate(127.246094 0)"/>
      </g>
     </g>
    </g>
    <g id="ytick_8">
     <g id="line2d_14">
      <g>
       <use xlink:href="#m7ae6a17d82" x="94.5" y="67.714937" style="stroke: #000000; stroke-width: 0.8"/>
      </g>
     </g>
     <g id="text_14">
      <!-- 225 -->
      <g transform="translate(68.4125 71.514156) scale(0.1 -0.1)">
       <use xlink:href="#DejaVuSans-32"/>
       <use xlink:href="#DejaVuSans-32" transform="translate(63.623047 0)"/>
       <use xlink:href="#DejaVuSans-35" transform="translate(127.246094 0)"/>
      </g>
     </g>
    </g>
    <g id="ytick_9">
     <g id="line2d_15">
      <g>
       <use xlink:href="#m7ae6a17d82" x="94.5" y="46.074673" style="stroke: #000000; stroke-width: 0.8"/>
      </g>
     </g>
     <g id="text_15">
      <!-- 250 -->
      <g transform="translate(68.4125 49.873892) scale(0.1 -0.1)">
       <use xlink:href="#DejaVuSans-32"/>
       <use xlink:href="#DejaVuSans-35" transform="translate(63.623047 0)"/>
       <use xlink:href="#DejaVuSans-30" transform="translate(127.246094 0)"/>
      </g>
     </g>
    </g>
   </g>
   <g id="line2d_16">
    <path d="M 121.131818 196.060066 
L 121.391514 195.740211 
L 121.65121 195.932561 
L 122.430298 197.889332 
L 122.94969 194.671934 
L 123.209386 194.770209 
L 123.469082 197.772241 
L 124.248169 197.949957 
L 124.507865 195.819678 
L 125.027257 194.490077 
L 125.286953 195.4142 
L 126.066041 195.095678 
L 126.325737 195.502213 
L 126.585433 193.911705 
L 126.845129 194.399958 
L 127.104825 194.38319 
L 128.143608 195.630041 
L 128.403304 194.661896 
L 128.663 195.357623 
L 128.922696 196.876859 
L 129.701784 199.992904 
L 129.96148 202.109401 
L 130.221176 201.15173 
L 130.480872 205.160495 
L 130.740568 205.19401 
L 131.519656 199.860908 
L 131.779352 201.849557 
L 132.039047 199.037366 
L 132.298743 201.095166 
L 132.558439 201.910327 
L 133.337527 206.700693 
L 133.597223 202.683587 
L 133.856919 204.760234 
L 134.116615 210.460074 
L 134.376311 204.227965 
L 135.155399 211.72158 
L 135.415095 209.489845 
L 135.674791 210.786976 
L 135.934487 211.183017 
L 136.194182 214.439477 
L 136.97327 215.46 
L 137.232966 210.74296 
L 137.492662 211.027963 
L 137.752358 208.320532 
L 138.012054 210.562751 
L 138.791142 209.081217 
L 139.050838 209.190181 
L 139.310534 211.993985 
L 139.57023 211.151598 
L 139.829926 211.889218 
L 140.609013 207.476055 
L 140.868709 208.113075 
L 141.128405 206.72166 
L 141.388101 206.319313 
L 142.426885 205.217065 
L 142.686581 202.325236 
L 142.946277 202.874266 
L 143.205973 202.400681 
L 143.465669 203.215843 
L 144.244756 204.445913 
L 144.504452 206.239675 
L 144.764148 204.619845 
L 145.023844 204.844053 
L 145.28354 203.180227 
L 146.062628 203.138291 
L 146.322324 204.100149 
L 146.841716 200.910766 
L 147.101412 201.901947 
L 147.8805 201.044869 
L 148.399891 199.479509 
L 148.659587 198.827805 
L 148.919283 197.312841 
L 149.698371 196.287458 
L 150.217763 197.833937 
L 150.477459 197.4368 
L 150.737155 197.821329 
L 151.516243 196.297985 
L 151.775939 196.680368 
L 152.035635 195.400734 
L 152.29533 195.900842 
L 152.555026 195.472191 
L 153.59381 195.92605 
L 153.853506 195.636091 
L 154.372898 195.671799 
L 155.671378 194.163142 
L 155.931074 194.7515 
L 156.190769 192.822566 
L 156.969857 192.410755 
L 157.489249 188.33863 
L 157.748945 191.898053 
L 158.008641 191.288714 
L 158.787729 190.408284 
L 159.047425 188.498317 
L 159.307121 188.601275 
L 159.566817 188.571854 
L 159.826513 188.994211 
L 160.6056 187.07161 
L 160.865296 185.462076 
L 161.124992 186.82154 
L 161.384688 185.817198 
L 161.644384 188.17263 
L 162.683168 185.825591 
L 162.942864 185.970577 
L 163.20256 185.970577 
L 164.241343 183.924005 
L 164.501039 184.167735 
L 164.760735 182.343898 
L 165.020431 181.99931 
L 165.280127 181.858531 
L 166.059215 182.23042 
L 166.318911 180.902484 
L 166.578607 180.341474 
L 166.838303 181.352156 
L 167.097999 181.516023 
L 167.877087 179.809852 
L 168.136783 180.950793 
L 168.396478 180.721783 
L 168.656174 184.442993 
L 168.91587 184.636321 
L 169.694958 182.791457 
L 169.954654 184.100492 
L 170.474046 181.631588 
L 170.733742 173.167966 
L 171.772526 170.306138 
L 172.032222 169.972038 
L 172.291917 166.744609 
L 172.551613 168.921169 
L 173.330701 167.561336 
L 173.590397 170.384119 
L 173.850093 167.323483 
L 174.109789 165.639474 
L 175.148573 165.978389 
L 175.408269 165.174289 
L 175.667965 165.052193 
L 175.927661 162.890366 
L 176.187357 157.758418 
L 176.966444 156.50596 
L 177.22614 157.375321 
L 177.485836 155.946032 
L 177.745532 157.219538 
L 178.005228 157.390042 
L 178.784316 153.826313 
L 179.044012 149.498452 
L 179.303708 151.83921 
L 179.563404 160.696991 
L 179.8231 160.629616 
L 180.861883 167.48346 
L 181.121579 163.694492 
L 181.381275 166.919333 
L 181.640971 168.173897 
L 182.420059 165.344794 
L 182.679755 165.19323 
L 182.939451 168.064435 
L 183.199147 169.571606 
L 183.458843 172.518599 
L 184.23793 169.790518 
L 184.497626 168.333881 
L 184.757322 172.282833 
L 185.017018 171.356624 
L 185.276714 167.938125 
L 186.055802 165.681589 
L 186.315498 166.414127 
L 186.83489 164.14073 
L 187.094586 167.315056 
L 187.873674 164.38493 
L 188.13337 167.197167 
L 188.393065 165.580559 
L 188.652761 165.673175 
L 188.912457 163.989186 
L 189.691545 157.73317 
L 189.951241 160.51174 
L 190.210937 160.435958 
L 190.470633 160.840121 
L 190.730329 162.26309 
L 191.509417 164.822747 
L 191.769113 163.534522 
L 192.028809 164.073375 
L 192.5482 165.614234 
L 193.327288 165.605807 
L 193.586984 164.300714 
L 193.84668 168.847488 
L 194.106376 165.378468 
L 194.366072 170.817777 
L 195.14516 170.893519 
L 195.404856 169.487404 
L 195.924248 162.25467 
L 196.183944 162.368518 
L 196.963031 164.367495 
L 197.222727 164.662704 
L 197.482423 161.693778 
L 197.742119 161.929934 
L 198.001815 161.88778 
L 198.780903 161.010579 
L 199.040599 161.778119 
L 199.300295 162.925196 
L 199.559991 162.410718 
L 200.598774 166.450826 
L 201.118166 164.61209 
L 201.637558 164.13976 
L 202.416646 162.064888 
L 202.676342 158.969428 
L 202.936038 158.665799 
L 203.195734 158.783874 
L 203.45543 159.365865 
L 204.494213 157.569336 
L 204.753909 159.762295 
L 205.013605 158.530851 
L 205.273301 159.230897 
L 206.052389 159.762295 
L 206.312085 154.617264 
L 206.571781 154.676305 
L 206.831477 153.925625 
L 207.091173 155.646247 
L 207.870261 154.322048 
L 208.129957 151.243475 
L 208.389652 152.019442 
L 208.649348 151.167555 
L 209.688132 147.186467 
L 210.207524 149.691515 
L 210.46722 150.56027 
L 211.506004 153.326793 
L 211.7657 151.977255 
L 212.025396 155.696867 
L 212.285092 152.053189 
L 212.544787 151.100061 
L 213.323875 153.68947 
L 213.583571 153.841271 
L 213.843267 152.078469 
L 214.362659 155.241403 
L 215.401443 154.659425 
L 216.180531 145.179077 
L 216.959618 141.931809 
L 217.219314 141.729367 
L 217.47901 142.657162 
L 217.998402 151.176008 
L 219.037186 148.620333 
L 219.296882 149.505994 
L 219.556578 146.596089 
L 219.816274 146.955073 
L 220.595361 146.828354 
L 221.114753 148.11232 
L 221.374449 148.331919 
L 221.634145 148.1292 
L 222.672929 149.970657 
L 222.932625 151.955746 
L 223.192321 152.910247 
L 223.452017 152.775095 
L 224.231105 156.04413 
L 224.4908 156.162402 
L 224.750496 156.59318 
L 225.010192 160.276139 
L 225.269888 160.048041 
L 226.048976 154.532105 
L 226.828064 161.002555 
L 227.08776 159.912875 
L 227.866848 164.187117 
L 228.126544 160.191633 
L 228.38624 161.129274 
L 228.645935 159.456744 
L 228.905631 160.24232 
L 229.684719 157.741987 
L 229.944415 156.407354 
L 230.204111 157.09157 
L 230.463807 160.664684 
L 230.723503 161.120828 
L 231.502591 158.248811 
L 231.762287 158.966826 
L 232.021983 161.036348 
L 232.541374 160.09028 
L 233.320462 159.938234 
L 233.580158 161.196847 
L 233.839854 159.296258 
L 234.09955 158.578249 
L 235.138334 156.128589 
L 235.39803 155.866737 
L 235.657726 154.439179 
L 236.177118 150.131149 
L 236.956205 151.617848 
L 237.215901 148.923249 
L 237.475597 150.950558 
L 237.735293 148.86409 
L 237.994989 149.151301 
L 238.774077 148.576918 
L 239.033773 150.038283 
L 239.293469 149.708805 
L 239.553165 151.026558 
L 239.812861 149.016155 
L 240.591948 148.678277 
L 240.851644 148.957022 
L 241.11134 149.641232 
L 241.371036 149.725711 
L 241.630732 151.432009 
L 242.40982 150.519734 
L 242.669516 154.481425 
L 242.929212 154.270233 
L 243.188908 152.884914 
L 243.448604 152.30106 
L 244.487388 155.939488 
L 244.747083 158.59639 
L 245.266475 154.636443 
L 246.045563 155.634894 
L 246.305259 156.836415 
L 246.564955 156.971792 
L 246.824651 154.754893 
L 247.084347 156.345646 
L 247.863435 154.932589 
L 248.382827 155.144112 
L 248.642522 156.472569 
L 248.902218 157.03949 
L 249.941002 157.318718 
L 250.200698 156.658719 
L 250.460394 157.944851 
L 250.72009 155.956414 
L 251.499178 155.947954 
L 251.758874 155.237196 
L 252.01857 154.907197 
L 252.278266 155.770265 
L 252.537962 154.721047 
L 253.317049 152.072592 
L 253.576745 152.783369 
L 253.836441 152.351865 
L 254.096137 150.964189 
L 254.355833 152.089558 
L 255.134921 150.532651 
L 255.394617 149.111149 
L 256.173705 149.847293 
L 256.952792 148.43423 
L 257.212488 147.122685 
L 257.472184 146.589603 
L 257.73188 146.327302 
L 257.991576 144.051192 
L 259.03036 142.308123 
L 259.290056 140.150489 
L 259.549752 141.275865 
L 259.809448 139.693526 
L 260.588536 140.209715 
L 260.848231 139.245096 
L 261.107927 136.27516 
L 261.367623 136.842067 
L 261.627319 138.610509 
L 262.406407 141.944291 
L 262.666103 138.813585 
L 262.925799 139.448198 
L 263.445191 136.774376 
L 264.224279 136.41053 
L 264.74367 139.80355 
L 265.003366 139.245096 
L 265.263062 139.058953 
L 266.04215 139.346614 
L 266.301846 137.789793 
L 266.561542 138.136679 
L 266.821238 138.043562 
L 267.080934 138.636767 
L 267.860022 138.679126 
L 268.119718 139.094351 
L 268.379414 138.874052 
L 268.63911 136.306371 
L 268.898805 136.128443 
L 269.677893 134.416665 
L 269.937589 135.204743 
L 270.197285 138.45032 
L 270.456981 138.162237 
L 270.716677 136.899576 
L 271.495765 135.611476 
L 271.755461 135.687779 
L 272.274853 137.450396 
L 272.534549 136.552161 
L 273.313636 132.721819 
L 273.573332 133.815006 
L 273.833028 133.238747 
L 274.35242 131.721908 
L 275.391204 129.696593 
L 275.910596 131.916794 
L 276.170292 136.238586 
L 276.949379 135.747084 
L 277.209075 136.958907 
L 277.468771 136.187774 
L 277.728467 136.391141 
L 277.988163 138.704564 
L 278.767251 141.348496 
L 279.026947 140.933232 
L 279.286643 138.882518 
L 279.546339 138.052055 
L 279.806035 137.975764 
L 280.585123 139.289277 
L 280.844818 142.221292 
L 281.104514 141.44168 
L 281.36421 142.568733 
L 281.623906 141.594234 
L 282.402994 144.568648 
L 282.66269 142.899241 
L 283.182082 141.051881 
L 283.441778 141.382375 
L 284.220866 141.458666 
L 284.480562 142.560253 
L 284.740258 143.068715 
L 284.999953 140.653641 
L 285.259649 139.738421 
L 286.038737 138.289353 
L 286.298433 136.416566 
L 286.558129 135.992848 
L 286.817825 135.806388 
L 287.077521 136.475884 
L 287.856609 136.518243 
L 288.116305 135.941997 
L 288.376001 136.340263 
L 288.635697 133.187922 
L 288.895392 135.535238 
L 289.67448 136.247066 
L 290.193872 134.103116 
L 290.453568 134.55222 
L 290.713264 134.093976 
L 291.492352 134.806834 
L 291.752048 134.492863 
L 292.011744 136.945421 
L 292.27144 136.987886 
L 292.531136 135.188735 
L 293.310223 135.180268 
L 293.569919 134.331591 
L 293.829615 132.218456 
L 294.349007 126.227019 
L 295.128095 125.828145 
L 295.647487 125.047397 
L 296.166879 129.400968 
L 296.945966 126.490086 
L 297.205662 122.195978 
L 297.465358 122.645703 
L 297.725054 123.502874 
L 297.98475 125.132273 
L 298.763838 122.178966 
L 299.28323 113.89615 
L 299.542926 114.337474 
L 299.802622 110.187587 
L 300.841406 114.532665 
L 301.101101 110.314861 
L 301.360797 116.289351 
L 301.620493 117.239864 
L 302.399581 118.419459 
L 302.918973 113.420933 
L 303.178669 112.877774 
L 304.217453 109.44077 
L 304.477149 110.32338 
L 304.736845 110.246971 
L 304.99654 111.248388 
L 305.256236 111.783015 
L 306.035324 108.015054 
L 306.29502 109.975437 
L 306.814412 116.509994 
L 307.074108 116.365734 
L 307.853196 116.348748 
L 308.112892 113.89615 
L 308.372588 113.514302 
L 308.632284 116.348748 
L 308.89198 115.601958 
L 309.930763 118.377048 
L 310.190459 121.406711 
L 310.709851 124.648537 
L 311.488939 125.31897 
L 311.748635 126.880493 
L 312.008331 126.956836 
L 312.268027 127.355736 
L 312.527723 117.92727 
L 313.30681 114.15079 
L 313.566506 114.29505 
L 313.826202 113.251221 
L 314.085898 115.746231 
L 315.124682 116.612938 
L 315.384378 113.919304 
L 315.644074 112.687206 
L 316.163466 119.1791 
L 316.942554 118.975166 
L 317.202249 115.65277 
L 317.461945 115.856678 
L 317.721641 118.975166 
L 317.981337 120.31775 
L 319.020121 122.849954 
L 319.279817 126.461305 
L 319.799209 122.399609 
L 320.578297 122.170169 
L 320.837993 123.801642 
L 321.097688 120.946565 
L 321.357384 121.226974 
L 321.61708 123.827121 
L 322.396168 127.115598 
L 322.655864 128.696088 
L 322.91556 124.014069 
L 323.434952 130.998853 
L 324.21404 134.491238 
L 324.733432 126.86916 
L 324.993128 125.993934 
L 325.252823 123.138843 
L 326.031911 121.94925 
L 326.291607 119.02615 
L 326.551303 117.845049 
L 326.810999 114.565091 
L 327.070695 114.012804 
L 327.849783 113.265011 
L 328.109479 110.40992 
L 328.369175 111.421084 
L 328.628871 114.106252 
L 328.888567 114.361157 
L 329.667654 110.851773 
L 330.187046 116.468507 
L 330.446742 116.205057 
L 330.706438 117.947003 
L 331.485526 121.634816 
L 331.745222 120.011836 
L 332.004918 117.683619 
L 332.264614 122.025725 
L 333.303397 122.212647 
L 333.563093 120.232808 
L 333.822789 120.37724 
L 334.082485 121.065517 
L 334.342181 124.999769 
L 335.121269 124.073546 
L 335.380965 129.239921 
L 335.640661 129.435349 
L 335.900357 123.427798 
L 336.160053 128.517659 
L 336.939141 128.254209 
L 337.198836 126.962648 
L 337.458532 121.405416 
L 337.718228 129.265373 
L 337.977924 128.6357 
L 338.757012 133.077766 
L 339.016708 130.992883 
L 339.276404 137.809196 
L 339.5361 141.162063 
L 339.795796 137.290102 
L 340.574884 138.626161 
L 340.83458 135.477532 
L 341.094276 142.642752 
L 341.353971 145.595623 
L 341.613667 145.391424 
L 342.392755 140.693992 
L 342.652451 143.034215 
L 342.912147 142.898052 
L 343.171843 140.123861 
L 343.431539 135.137157 
L 344.730019 135.928551 
L 344.989715 133.801085 
L 345.24941 138.762271 
L 346.028498 138.115546 
L 346.288194 135.928551 
L 346.54789 136.56677 
L 347.067282 145.782862 
L 347.84637 150.250485 
L 348.106066 149.501648 
L 348.365762 147.229539 
L 348.625458 151.799268 
L 348.885154 150.522798 
L 349.923937 146.855088 
L 350.183633 147.297588 
L 350.703025 141.927939 
L 351.482113 141.927939 
L 351.741809 145.519068 
L 352.001505 143.995797 
L 352.261201 146.131756 
L 352.520897 144.251124 
L 353.55968 142.013013 
L 353.819376 140.8557 
L 354.079072 137.936866 
L 354.338768 137.349684 
L 355.117856 139.196305 
L 355.377552 138.353835 
L 355.637248 138.668665 
L 356.15664 134.686138 
L 356.935728 137.324126 
L 357.195424 133.979818 
L 357.714815 130.278057 
L 357.974511 131.350283 
L 358.753599 132.320409 
L 359.013295 133.469216 
L 359.272991 129.052656 
L 359.532687 128.576092 
L 359.792383 124.185062 
L 360.571471 125.036038 
L 360.831167 126.312515 
L 361.090863 121.104548 
L 361.610254 121.57283 
L 362.389342 121.981887 
L 362.649038 121.939264 
L 362.908734 118.257936 
L 363.16843 118.897053 
L 363.428126 115.820765 
L 364.207214 114.891927 
L 364.46691 115.028275 
L 364.726606 113.732989 
L 364.986302 114.073839 
L 365.245998 116.315015 
L 366.025085 119.681077 
L 366.284781 119.970798 
L 366.544477 119.715141 
L 366.804173 117.584756 
L 367.063869 123.047086 
L 367.842957 124.955904 
L 368.362349 128.500898 
L 368.622045 127.870287 
L 368.881741 129.702445 
L 369.920524 130.793202 
L 370.18022 129.574616 
L 370.439916 130.852823 
L 370.699612 128.373069 
L 371.4787 123.208992 
L 371.738396 131.381203 
L 371.998092 130.128514 
L 372.257788 132.633879 
L 372.517484 134.05698 
L 373.296572 130.835824 
L 373.556267 128.773593 
L 373.815963 131.483461 
L 374.075659 132.31856 
L 374.335355 134.287026 
L 375.114443 133.997318 
L 375.374139 133.153686 
L 375.633835 134.789822 
L 376.153227 144.708945 
L 376.932315 141.087292 
L 377.192011 137.976887 
L 377.451706 137.721256 
L 377.711402 138.54785 
L 377.971098 143.098354 
L 378.750186 142.817152 
L 379.009882 144.044284 
L 379.269578 144.589649 
L 379.529274 140.627119 
L 379.78897 144.555559 
L 380.827754 139.97947 
L 381.08745 139.885731 
L 381.347146 140.286256 
L 381.606841 136.979881 
L 382.385929 135.122179 
L 382.645625 132.659423 
L 382.905321 135.207398 
L 383.165017 139.084709 
L 383.424713 129.762093 
L 384.203801 131.807259 
L 384.463497 134.099589 
L 384.982889 144.12949 
L 385.242585 144.359946 
L 386.021672 143.899033 
L 386.281368 143.403952 
L 386.541064 147.355994 
L 386.80076 137.113125 
L 387.060456 134.697483 
L 387.839544 135.909584 
L 388.09924 134.4073 
L 388.358936 135.474269 
L 388.618632 133.826867 
L 388.878328 133.340344 
L 389.657415 136.14004 
L 389.917111 134.287793 
L 390.176807 133.528111 
L 391.475287 139.375077 
L 391.734983 141.978486 
L 391.994679 136.122975 
L 392.254375 135.883986 
L 392.514071 136.310769 
L 393.293159 137.317971 
L 393.552854 140.493281 
L 393.81255 142.174786 
L 394.072246 140.715191 
L 394.331942 141.133428 
L 395.370726 138.308108 
L 395.630422 140.237201 
L 395.890118 145.964659 
L 396.149814 147.663282 
L 396.928902 149.489959 
L 397.188598 149.549673 
L 397.448294 146.860926 
L 397.707989 149.609427 
L 397.967685 149.925234 
L 399.006469 151.487285 
L 399.266165 154.893038 
L 399.525861 151.845788 
L 399.785557 151.572649 
L 400.824341 155.721005 
L 401.084037 154.619893 
L 401.343733 155.76368 
L 401.603428 151.837255 
L 402.382516 151.384869 
L 402.642212 150.8898 
L 402.901908 148.533925 
L 403.161604 148.602211 
L 403.4213 147.449878 
L 404.460084 146.442649 
L 404.71978 147.065784 
L 404.979476 147.014563 
L 405.239172 144.795287 
L 406.277955 140.817634 
L 406.537651 141.389534 
L 407.057043 137.915508 
L 407.836131 140.416436 
L 408.355523 138.342278 
L 408.874915 130.600336 
L 409.654002 132.964783 
L 409.913698 130.472336 
L 410.173394 132.80256 
L 410.43309 133.69884 
L 410.692786 133.382518 
L 411.471874 130.954672 
L 411.73157 131.510339 
L 411.991266 129.689448 
L 412.510658 132.066033 
L 413.549442 135.545369 
L 414.068833 134.758875 
L 414.328529 137.058496 
L 415.107617 136.024099 
L 415.367313 136.460061 
L 415.627009 138.255328 
L 415.886705 137.742389 
L 416.146401 133.365426 
L 416.925489 130.971776 
L 417.185185 132.878124 
L 417.444881 131.792452 
L 417.964272 135.528277 
L 418.74336 133.84413 
L 419.003056 132.031811 
L 419.262752 131.689851 
L 419.522448 129.244927 
L 419.782144 129.971588 
L 420.561232 127.91987 
L 420.820928 126.312727 
L 421.080624 127.55226 
L 421.600016 125.483465 
L 422.638799 127.706162 
L 422.898495 125.038931 
L 423.158191 123.679665 
L 423.417887 121.508308 
L 424.196975 120.422623 
L 424.456671 120.884222 
L 424.716367 122.48286 
L 424.976063 121.713471 
L 426.014846 123.961805 
L 426.534238 125.611716 
L 426.793934 120.944082 
L 427.05363 121.243273 
L 427.832718 121.226208 
L 428.35211 119.174478 
L 428.611806 120.012298 
L 428.871502 121.40572 
L 429.65059 121.140712 
L 429.910285 122.474314 
L 430.169981 122.48286 
L 430.429677 118.50769 
L 430.689373 117.422005 
L 431.468461 117.498942 
L 431.987853 119.328366 
L 432.247549 120.747452 
L 432.507245 114.096531 
L 433.286333 114.15639 
L 433.546029 115.635296 
L 433.805724 114.105077 
L 434.06542 113.942656 
L 434.325116 114.747337 
L 435.104204 115.175387 
L 435.3639 115.175387 
L 435.623596 114.644617 
L 435.883292 112.624322 
L 436.142988 112.530135 
L 436.922076 113.351973 
L 437.181772 115.611957 
L 437.441468 115.372282 
L 437.701164 114.387811 
L 437.960859 112.299031 
L 438.999643 110.698175 
L 439.259339 110.740996 
L 439.519035 108.309781 
L 439.778731 107.573584 
L 440.817515 109.063109 
L 441.077211 110.25302 
L 441.336907 107.898875 
L 441.596603 107.565026 
L 442.37569 105.142383 
L 442.635386 105.553303 
L 442.895082 105.005415 
L 443.154778 103.241926 
L 443.414474 104.17503 
L 444.453258 104.098 
L 444.712954 104.996829 
L 444.97265 102.394437 
L 445.232346 102.668388 
L 446.011433 103.875416 
L 446.271129 101.487009 
L 446.530825 100.468303 
L 446.790521 100.177235 
L 447.050217 96.427713 
L 448.348697 98.68771 
L 448.608393 98.276777 
L 448.868089 99.244143 
L 449.906872 101.469892 
L 450.166568 100.023148 
L 450.426264 99.363994 
L 450.68596 99.235571 
L 451.465048 96.410582 
L 451.724744 96.633179 
L 451.98444 95.46036 
L 452.503832 98.165498 
L 453.28292 97.472083 
L 453.802312 95.974012 
L 454.062007 97.069762 
L 454.321703 94.835442 
L 455.100791 94.304671 
L 455.360487 95.023764 
L 455.620183 97.617597 
L 455.879879 98.824665 
L 456.139575 106.683301 
L 456.918663 109.371309 
L 457.178359 108.558055 
L 457.438055 109.936301 
L 457.697751 110.12461 
L 457.957446 110.073204 
L 458.736534 108.64165 
L 458.99623 110.364642 
L 459.255926 111.119 
L 459.515622 113.322057 
L 460.554406 111.744764 
L 460.814102 110.553255 
L 461.073798 107.218681 
L 461.333494 111.28187 
L 461.59319 109.370292 
L 462.372277 108.015886 
L 462.891669 101.621072 
L 463.151365 101.432473 
L 463.411061 100.069509 
L 464.449845 99.863778 
L 464.969237 110.270362 
L 465.228933 109.738892 
L 466.00802 108.727371 
L 466.527412 113.14203 
L 466.787108 111.830485 
L 467.046804 112.456275 
L 468.085588 108.975962 
L 468.345284 112.044787 
L 468.60498 113.382062 
L 468.864676 112.644861 
L 469.643764 111.539047 
L 469.90346 115.070739 
L 470.163155 116.382324 
L 470.422851 116.159422 
L 470.682547 115.71366 
L 471.461635 113.536346 
L 471.721331 114.69358 
L 472.240723 112.541969 
L 472.500419 110.330367 
L 473.279507 109.044525 
L 473.539203 109.558865 
L 474.058594 107.570124 
L 474.31829 109.164548 
L 475.097378 109.275985 
L 475.61677 111.744764 
L 475.876466 112.070504 
L 476.136162 114.282106 
L 476.91525 114.179254 
L 477.174946 113.802081 
L 477.434642 115.807966 
L 477.694338 119.416821 
L 477.954034 118.276745 
L 478.992817 116.090832 
L 479.512209 110.261764 
L 479.771905 111.050437 
L 480.550993 108.838821 
L 480.810689 106.618607 
L 481.070385 105.701379 
L 481.330081 106.11288 
L 481.589777 102.482073 
L 482.368864 103.855432 
L 482.62856 101.589399 
L 482.888256 101.100155 
L 483.147952 99.640943 
L 483.407648 99.65814 
L 484.186736 98.14743 
L 484.446432 98.842708 
L 484.706128 98.267597 
L 485.22552 99.417778 
L 486.004608 99.572314 
L 486.264303 99.048715 
L 486.523999 99.932804 
L 486.783695 99.434949 
L 487.043391 98.327695 
L 487.822479 99.881305 
L 488.082175 96.45652 
L 488.341871 97.400666 
L 488.861263 94.490893 
L 489.640351 96.662514 
L 489.900047 95.349239 
L 490.159742 92.559621 
L 490.419438 92.430868 
L 491.458222 94.336397 
L 491.717918 93.435112 
L 491.977614 95.246216 
L 492.23731 95.374995 
L 492.497006 96.302011 
L 493.53579 96.774084 
L 493.795486 96.68827 
L 494.055182 96.319168 
L 494.314877 97.220441 
L 496.132749 106.962627 
L 496.911837 103.203081 
L 497.171533 103.563584 
L 497.431229 102.662338 
L 497.690925 103.177338 
L 497.950621 102.894076 
L 498.989404 104.859702 
L 499.2491 105.675108 
L 499.508796 100.567972 
L 499.768492 98.053031 
L 500.54758 96.053089 
L 500.807276 94.945836 
L 501.066972 95.529504 
L 501.326668 95.812754 
L 501.586364 97.314853 
L 502.365451 97.907094 
L 502.884843 104.198778 
L 503.144539 102.087228 
L 503.404235 102.95416 
L 504.183323 101.383404 
L 504.443019 99.992888 
L 504.702715 99.89845 
L 504.962411 100.834037 
L 505.222107 100.172268 
L 506.001195 101.633343 
L 506.26089 103.446758 
L 506.520586 104.21167 
L 506.780282 104.460895 
L 507.039978 105.793031 
L 508.078762 106.437603 
L 508.338458 105.784419 
L 508.598154 104.022582 
L 508.85785 105.612541 
L 509.636938 106.781372 
L 509.896634 105.517997 
L 510.15633 106.557929 
L 510.416025 107.133739 
L 510.675721 108.070515 
L 511.454809 111.989577 
L 511.714505 116.269592 
L 511.974201 117.129034 
L 512.233897 117.23215 
L 512.493593 115.745333 
L 513.532377 113.596721 
L 513.792073 115.401551 
L 514.051769 113.794407 
L 514.311464 114.120979 
L 515.090552 113.175605 
L 515.609944 108.921386 
L 515.86964 115.195305 
L 516.129336 114.413184 
L 516.908424 115.642191 
L 517.16812 116.621946 
L 517.427816 113.527959 
L 517.687512 115.100761 
L 518.726295 116.346926 
L 518.985991 117.369674 
L 519.245687 116.673537 
L 519.505383 117.386844 
L 519.765079 116.733687 
L 520.544167 117.704844 
L 520.803863 116.656327 
L 521.063559 118.280654 
L 521.323255 112.041168 
L 521.582951 110.743386 
L 522.362038 114.060829 
L 522.621734 116.905578 
L 523.400822 120.669893 
L 524.17991 119.948001 
L 524.439606 119.036967 
L 524.699302 117.214966 
L 524.958998 116.467252 
L 525.218694 116.974327 
L 525.997782 113.36468 
L 526.257478 116.089089 
L 526.517173 116.974327 
L 526.776869 113.768612 
L 527.036565 104.873425 
L 527.815653 106.308704 
L 528.075349 105.715684 
L 528.335045 105.423466 
L 528.594741 103.850677 
L 528.854437 104.94364 
L 529.893221 101.174214 
L 530.152917 99.203423 
L 530.672308 99.074339 
L 531.451396 98.067441 
L 531.711092 96.940031 
L 531.970788 98.187926 
L 532.230484 101.647541 
L 532.49018 98.979689 
L 533.528964 98.971051 
L 533.78866 98.712884 
L 534.308052 97.026109 
L 535.346835 95.218822 
L 535.606531 93.910725 
L 535.866227 95.106949 
L 536.125923 93.03291 
L 536.905011 96.277364 
L 537.164707 84.203104 
L 537.424403 79.108303 
L 537.684099 78.101405 
L 537.943795 79.607467 
L 538.722882 76.010129 
L 539.761666 83.910477 
L 540.540754 83.351084 
L 540.80045 82.550722 
L 541.060146 78.953411 
L 541.319842 78.221877 
L 541.579538 81.216789 
L 542.358626 75.941275 
L 542.618321 72.911968 
L 542.878017 71.810394 
L 543.397409 67.688085 
L 544.176497 66.414382 
L 544.436193 65.674275 
L 544.695889 61.97369 
L 544.955585 66.629543 
L 545.215281 64.073551 
L 545.994369 60.751617 
L 546.254065 60.390149 
L 546.773456 69.547003 
L 547.033152 69.435116 
L 547.81224 69.736328 
L 548.071936 68.832705 
L 548.331632 74.40082 
L 548.591328 75.30443 
L 548.851024 74.899943 
L 549.630112 74.658987 
L 549.889808 74.177034 
L 550.149504 71.354263 
L 550.4092 74.555712 
L 550.668895 73.264798 
L 551.707679 84.134223 
L 552.227071 78.901767 
L 552.486767 76.380183 
L 553.265855 75.053316 
L 553.525551 71.830946 
L 553.785247 71.443207 
L 554.044943 68.858408 
L 554.304639 67.71248 
L 555.083726 67.850347 
L 555.343422 67.316156 
L 555.603118 67.410938 
L 555.862814 69.022123 
L 556.12251 67.031824 
L 556.901598 66.738893 
L 557.161294 66.006513 
L 557.42099 67.333393 
L 557.680686 64.490123 
L 557.940382 65.170766 
L 559.238861 72.19281 
L 559.498557 70.874542 
L 559.758253 72.218645 
L 560.537341 72.141113 
L 560.797037 72.830395 
L 561.056733 70.633322 
L 561.316429 70.538513 
L 561.576125 70.771162 
L 562.355213 76.09585 
L 562.614908 75.690914 
L 562.874604 72.330664 
L 563.1343 65.282772 
L 564.173084 67.350616 
L 564.43278 66.575178 
L 564.692476 67.436773 
L 564.952172 66.445936 
L 565.211868 66.213314 
L 565.990956 61.724346 
L 566.250652 67.574627 
L 566.510348 67.083507 
L 566.770043 68.039898 
L 567.029739 67.066284 
L 567.808827 71.469068 
L 568.328219 64.705509 
L 568.587915 65.13632 
L 568.847611 66.420074 
L 569.626699 63.189079 
L 569.886395 60.991992 
L 570.146091 62.775531 
L 570.405787 62.456726 
L 570.665482 60.001168 
L 571.44457 58.725999 
L 571.704266 59.26019 
L 571.963962 63.65435 
L 572.223658 63.818065 
L 572.483354 63.094297 
L 573.262442 61.379731 
L 573.522138 61.147096 
L 574.301226 70.41791 
L 575.080313 71.193361 
L 575.340009 69.952639 
L 575.599705 70.581625 
L 575.859401 66.480396 
L 576.119097 66.713282 
L 576.898185 69.068048 
L 577.157881 69.068048 
L 577.417577 68.300389 
L 577.677273 65.626475 
L 577.936969 68.403875 
L 578.716056 65.798973 
L 578.975752 65.574725 
L 579.235448 64.95369 
L 579.495144 65.3677 
L 579.75484 64.203268 
L 580.533928 61.615629 
L 580.793624 59.72665 
L 581.05332 59.838787 
L 581.572712 57.768658 
L 582.3518 55.819304 
L 582.611496 53.179902 
L 582.871191 52.869391 
L 583.130887 52.843503 
L 583.390583 53.016015 
L 584.429367 48.763645 
L 584.689063 49.867703 
L 584.948759 48.599758 
L 585.208455 48.453121 
L 585.987543 45.943133 
L 586.247239 43.838504 
L 586.506935 48.522134 
L 586.76663 47.021316 
L 587.026326 42.967333 
L 587.805414 42.294535 
L 588.06511 39.767271 
L 588.584502 39.06 
L 588.844198 42.018537 
L 589.623286 44.942575 
L 589.882982 46.477892 
L 590.402374 52.144844 
L 590.66207 52.567492 
L 591.441157 51.152911 
L 591.700853 53.559426 
L 591.960549 53.136778 
L 592.479941 58.182668 
L 593.518725 61.261981 
L 593.778421 57.302885 
L 594.038117 65.591975 
L 594.297813 64.108394 
L 595.336596 70.439505 
L 595.596292 69.413059 
L 595.855988 69.559682 
L 596.115684 70.318743 
L 596.894772 64.211893 
L 597.154468 56.966499 
L 597.414164 56.01769 
L 597.933556 58.91584 
L 598.712643 65.807625 
L 598.972339 61.675991 
L 599.232035 61.96064 
L 599.491731 61.31373 
L 599.751427 66.135359 
L 600.530515 65.902248 
L 601.309603 53.916905 
L 601.569299 51.265959 
L 602.608083 51.378216 
L 602.867778 51.032822 
L 603.127474 50.203851 
L 603.38717 50.44564 
L 604.166258 49.107216 
L 604.425954 49.159032 
L 604.68565 54.927184 
L 604.945346 57.569492 
L 605.205042 53.649215 
L 605.98413 56.939145 
L 606.243826 58.752481 
L 606.503522 58.91654 
L 606.763217 59.270572 
L 607.022913 56.041095 
L 607.802001 66.04903 
L 608.581089 81.419284 
L 608.840785 78.129354 
L 609.619873 77.688967 
L 609.879569 78.820141 
L 610.139265 76.618233 
L 610.398961 77.602612 
L 610.658657 74.001827 
L 611.437744 71.877637 
L 611.69744 69.269869 
L 611.957136 71.186836 
L 612.216832 69.183514 
L 612.476528 74.321333 
L 613.515312 69.75342 
L 613.775008 69.148974 
L 614.2944 99.811751 
L 615.073487 105.787153 
L 615.333183 113.593181 
L 615.592879 90.770945 
L 615.852575 98.050231 
L 616.112271 91.375403 
L 616.891359 87.601909 
L 617.151055 87.930053 
L 617.410751 94.725761 
L 617.670447 92.385683 
L 618.709231 95.684238 
L 619.228622 85.805836 
L 619.488318 82.550458 
L 619.748014 81.764677 
L 620.527102 81.022061 
L 621.30619 78.276136 
L 621.565886 85.158213 
L 622.344974 90.736405 
L 622.60467 91.064536 
L 622.864365 93.016043 
L 623.383757 91.04726 
L 624.162845 80.222109 
L 624.422541 78.371803 
L 625.201629 79.815733 
L 625.980717 81.960013 
L 626.240413 83.620095 
L 626.500109 87.744385 
L 626.759805 88.375564 
L 627.0195 93.641146 
L 628.058284 89.369875 
L 628.31798 89.188316 
L 628.577676 89.594691 
L 628.837372 88.816519 
L 629.61646 88.08159 
L 629.876156 86.72412 
L 630.135852 87.113193 
L 630.395548 89.00673 
L 630.655244 86.162113 
L 631.434331 88.297742 
L 631.694027 87.242898 
L 631.953723 90.606305 
L 632.213419 90.243159 
L 632.473115 92.620894 
L 633.252203 90.917569 
L 633.511899 93.321244 
L 633.771595 92.508493 
L 634.290987 88.686828 
L 635.070074 88.254511 
L 635.32977 89.292066 
L 635.589466 88.20263 
L 635.849162 88.686828 
L 636.108858 88.617657 
L 636.887946 85.081328 
L 637.147642 82.790054 
L 637.407338 78.795468 
L 637.667034 77.835723 
L 638.705818 80.948399 
L 638.965513 80.896518 
L 639.484905 78.821409 
L 639.744601 79.902194 
L 640.523689 82.098355 
L 640.783385 81.674677 
L 641.043081 80.766814 
L 641.302777 80.887866 
L 641.562473 79.884904 
L 642.341561 78.760889 
L 642.601257 77.100794 
L 643.120648 77.654163 
L 643.380344 77.5504 
L 644.159432 77.403406 
L 644.678824 81.726559 
L 644.93852 83.006206 
L 645.198216 87.493628 
L 645.977304 86.654936 
L 646.237 87.026746 
L 646.756392 72.232937 
L 647.016087 64.17458 
L 647.795175 65.827912 
L 648.054871 63.689853 
L 648.314567 60.5044 
L 648.574263 60.980488 
L 648.833959 62.010567 
L 649.872743 62.902145 
L 650.132439 66.840675 
L 650.392135 67.801503 
L 650.651831 65.325857 
L 651.430918 65.845215 
L 651.690614 63.984158 
L 651.95031 62.96273 
L 652.210006 61.170924 
L 652.469702 61.534478 
L 653.508486 63.629254 
L 653.768182 56.055162 
L 653.768182 56.055162 
" clip-path="url(#pce64ebe81e)" style="fill: none; stroke: #1f77b4; stroke-width: 1.5; stroke-linecap: square"/>
   </g>
   <g id="patch_3">
    <path d="M 94.5 224.28 
L 94.5 30.24 
" style="fill: none; stroke: #000000; stroke-width: 0.8; stroke-linejoin: miter; stroke-linecap: square"/>
   </g>
   <g id="patch_4">
    <path d="M 94.5 224.28 
L 680.4 224.28 
" style="fill: none; stroke: #000000; stroke-width: 0.8; stroke-linejoin: miter; stroke-linecap: square"/>
   </g>
  </g>
 </g>
 <defs>
  <clipPath id="pce64ebe81e">
   <rect x="94.5" y="30.24" width="585.9" height="194.04"/>
  </clipPath>
 </defs>
</svg>
