<?xml version="1.0" encoding="utf-8" standalone="no"?>
<!DOCTYPE svg PUBLIC "-//W3C//DTD SVG 1.1//EN"
  "http://www.w3.org/Graphics/SVG/1.1/DTD/svg11.dtd">
<svg xmlns:xlink="http://www.w3.org/1999/xlink" width="1166.4pt" height="252pt" viewBox="0 0 1166.4 252" xmlns="http://www.w3.org/2000/svg" version="1.1">
 <metadata>
  <rdf:RDF xmlns:dc="http://purl.org/dc/elements/1.1/" xmlns:cc="http://creativecommons.org/ns#" xmlns:rdf="http://www.w3.org/1999/02/22-rdf-syntax-ns#">
   <cc:Work>
    <dc:type rdf:resource="http://purl.org/dc/dcmitype/StillImage"/>
    <dc:date>2025-09-08T17:06:49.822302</dc:date>
    <dc:format>image/svg+xml</dc:format>
    <dc:creator>
     <cc:Agent>
      <dc:title>Matplotlib v3.10.5, https://matplotlib.org/</dc:title>
     </cc:Agent>
    </dc:creator>
   </cc:Work>
  </rdf:RDF>
 </metadata>
 <defs>
  <style type="text/css">*{stroke-linejoin: round; stroke-linecap: butt}</style>
 </defs>
 <g id="figure_1">
  <g id="patch_1">
   <path d="M 0 252 
L 1166.4 252 
L 1166.4 0 
L 0 0 
z
" style="fill: #ffffff"/>
  </g>
  <g id="axes_1">
   <g id="patch_2">
    <path d="M 145.8 224.28 
L 1049.76 224.28 
L 1049.76 30.24 
L 145.8 30.24 
z
" style="fill: #ffffff"/>
   </g>
   <g id="matplotlib.axis_1">
    <g id="xtick_1">
     <g id="line2d_1">
      <defs>
       <path id="m0188936123" d="M 0 0 
L 0 3.5 
" style="stroke: #000000; stroke-width: 0.8"/>
      </defs>
      <g>
       <use xlink:href="#m0188936123" x="186.889091" y="224.28" style="stroke: #000000; stroke-width: 0.8"/>
      </g>
     </g>
     <g id="text_1">
      <!-- 2024-03 -->
      <g transform="translate(165.997685 238.878438) scale(0.1 -0.1)">
       <defs>
        <path id="DejaVuSans-32" d="M 1228 531 
L 3431 531 
L 3431 0 
L 469 0 
L 469 531 
Q 828 903 1448 1529 
Q 2069 2156 2228 2338 
Q 2531 2678 2651 2914 
Q 2772 3150 2772 3378 
Q 2772 3750 2511 3984 
Q 2250 4219 1831 4219 
Q 1534 4219 1204 4116 
Q 875 4013 500 3803 
L 500 4441 
Q 881 4594 1212 4672 
Q 1544 4750 1819 4750 
Q 2544 4750 2975 4387 
Q 3406 4025 3406 3419 
Q 3406 3131 3298 2873 
Q 3191 2616 2906 2266 
Q 2828 2175 2409 1742 
Q 1991 1309 1228 531 
z
" transform="scale(0.015625)"/>
        <path id="DejaVuSans-30" d="M 2034 4250 
Q 1547 4250 1301 3770 
Q 1056 3291 1056 2328 
Q 1056 1369 1301 889 
Q 1547 409 2034 409 
Q 2525 409 2770 889 
Q 3016 1369 3016 2328 
Q 3016 3291 2770 3770 
Q 2525 4250 2034 4250 
z
M 2034 4750 
Q 2819 4750 3233 4129 
Q 3647 3509 3647 2328 
Q 3647 1150 3233 529 
Q 2819 -91 2034 -91 
Q 1250 -91 836 529 
Q 422 1150 422 2328 
Q 422 3509 836 4129 
Q 1250 4750 2034 4750 
z
" transform="scale(0.015625)"/>
        <path id="DejaVuSans-34" d="M 2419 4116 
L 825 1625 
L 2419 1625 
L 2419 4116 
z
M 2253 4666 
L 3047 4666 
L 3047 1625 
L 3713 1625 
L 3713 1100 
L 3047 1100 
L 3047 0 
L 2419 0 
L 2419 1100 
L 313 1100 
L 313 1709 
L 2253 4666 
z
" transform="scale(0.015625)"/>
        <path id="DejaVuSans-2d" d="M 313 2009 
L 1997 2009 
L 1997 1497 
L 313 1497 
L 313 2009 
z
" transform="scale(0.015625)"/>
        <path id="DejaVuSans-33" d="M 2597 2516 
Q 3050 2419 3304 2112 
Q 3559 1806 3559 1356 
Q 3559 666 3084 287 
Q 2609 -91 1734 -91 
Q 1441 -91 1130 -33 
Q 819 25 488 141 
L 488 750 
Q 750 597 1062 519 
Q 1375 441 1716 441 
Q 2309 441 2620 675 
Q 2931 909 2931 1356 
Q 2931 1769 2642 2001 
Q 2353 2234 1838 2234 
L 1294 2234 
L 1294 2753 
L 1863 2753 
Q 2328 2753 2575 2939 
Q 2822 3125 2822 3475 
Q 2822 3834 2567 4026 
Q 2313 4219 1838 4219 
Q 1578 4219 1281 4162 
Q 984 4106 628 3988 
L 628 4550 
Q 988 4650 1302 4700 
Q 1616 4750 1894 4750 
Q 2613 4750 3031 4423 
Q 3450 4097 3450 3541 
Q 3450 3153 3228 2886 
Q 3006 2619 2597 2516 
z
" transform="scale(0.015625)"/>
       </defs>
       <use xlink:href="#DejaVuSans-32"/>
       <use xlink:href="#DejaVuSans-30" transform="translate(63.623047 0)"/>
       <use xlink:href="#DejaVuSans-32" transform="translate(127.246094 0)"/>
       <use xlink:href="#DejaVuSans-34" transform="translate(190.869141 0)"/>
       <use xlink:href="#DejaVuSans-2d" transform="translate(254.492188 0)"/>
       <use xlink:href="#DejaVuSans-30" transform="translate(290.576172 0)"/>
       <use xlink:href="#DejaVuSans-33" transform="translate(354.199219 0)"/>
      </g>
     </g>
    </g>
    <g id="xtick_2">
     <g id="line2d_2">
      <g>
       <use xlink:href="#m0188936123" x="277.537718" y="224.28" style="stroke: #000000; stroke-width: 0.8"/>
      </g>
     </g>
     <g id="text_2">
      <!-- 2024-05 -->
      <g transform="translate(256.646312 238.878438) scale(0.1 -0.1)">
       <defs>
        <path id="DejaVuSans-35" d="M 691 4666 
L 3169 4666 
L 3169 4134 
L 1269 4134 
L 1269 2991 
Q 1406 3038 1543 3061 
Q 1681 3084 1819 3084 
Q 2600 3084 3056 2656 
Q 3513 2228 3513 1497 
Q 3513 744 3044 326 
Q 2575 -91 1722 -91 
Q 1428 -91 1123 -41 
Q 819 9 494 109 
L 494 744 
Q 775 591 1075 516 
Q 1375 441 1709 441 
Q 2250 441 2565 725 
Q 2881 1009 2881 1497 
Q 2881 1984 2565 2268 
Q 2250 2553 1709 2553 
Q 1456 2553 1204 2497 
Q 953 2441 691 2322 
L 691 4666 
z
" transform="scale(0.015625)"/>
       </defs>
       <use xlink:href="#DejaVuSans-32"/>
       <use xlink:href="#DejaVuSans-30" transform="translate(63.623047 0)"/>
       <use xlink:href="#DejaVuSans-32" transform="translate(127.246094 0)"/>
       <use xlink:href="#DejaVuSans-34" transform="translate(190.869141 0)"/>
       <use xlink:href="#DejaVuSans-2d" transform="translate(254.492188 0)"/>
       <use xlink:href="#DejaVuSans-30" transform="translate(290.576172 0)"/>
       <use xlink:href="#DejaVuSans-35" transform="translate(354.199219 0)"/>
      </g>
     </g>
    </g>
    <g id="xtick_3">
     <g id="line2d_3">
      <g>
       <use xlink:href="#m0188936123" x="368.186346" y="224.28" style="stroke: #000000; stroke-width: 0.8"/>
      </g>
     </g>
     <g id="text_3">
      <!-- 2024-07 -->
      <g transform="translate(347.294939 238.878438) scale(0.1 -0.1)">
       <defs>
        <path id="DejaVuSans-37" d="M 525 4666 
L 3525 4666 
L 3525 4397 
L 1831 0 
L 1172 0 
L 2766 4134 
L 525 4134 
L 525 4666 
z
" transform="scale(0.015625)"/>
       </defs>
       <use xlink:href="#DejaVuSans-32"/>
       <use xlink:href="#DejaVuSans-30" transform="translate(63.623047 0)"/>
       <use xlink:href="#DejaVuSans-32" transform="translate(127.246094 0)"/>
       <use xlink:href="#DejaVuSans-34" transform="translate(190.869141 0)"/>
       <use xlink:href="#DejaVuSans-2d" transform="translate(254.492188 0)"/>
       <use xlink:href="#DejaVuSans-30" transform="translate(290.576172 0)"/>
       <use xlink:href="#DejaVuSans-37" transform="translate(354.199219 0)"/>
      </g>
     </g>
    </g>
    <g id="xtick_4">
     <g id="line2d_4">
      <g>
       <use xlink:href="#m0188936123" x="460.321016" y="224.28" style="stroke: #000000; stroke-width: 0.8"/>
      </g>
     </g>
     <g id="text_4">
      <!-- 2024-09 -->
      <g transform="translate(439.42961 238.878438) scale(0.1 -0.1)">
       <defs>
        <path id="DejaVuSans-39" d="M 703 97 
L 703 672 
Q 941 559 1184 500 
Q 1428 441 1663 441 
Q 2288 441 2617 861 
Q 2947 1281 2994 2138 
Q 2813 1869 2534 1725 
Q 2256 1581 1919 1581 
Q 1219 1581 811 2004 
Q 403 2428 403 3163 
Q 403 3881 828 4315 
Q 1253 4750 1959 4750 
Q 2769 4750 3195 4129 
Q 3622 3509 3622 2328 
Q 3622 1225 3098 567 
Q 2575 -91 1691 -91 
Q 1453 -91 1209 -44 
Q 966 3 703 97 
z
M 1959 2075 
Q 2384 2075 2632 2365 
Q 2881 2656 2881 3163 
Q 2881 3666 2632 3958 
Q 2384 4250 1959 4250 
Q 1534 4250 1286 3958 
Q 1038 3666 1038 3163 
Q 1038 2656 1286 2365 
Q 1534 2075 1959 2075 
z
" transform="scale(0.015625)"/>
       </defs>
       <use xlink:href="#DejaVuSans-32"/>
       <use xlink:href="#DejaVuSans-30" transform="translate(63.623047 0)"/>
       <use xlink:href="#DejaVuSans-32" transform="translate(127.246094 0)"/>
       <use xlink:href="#DejaVuSans-34" transform="translate(190.869141 0)"/>
       <use xlink:href="#DejaVuSans-2d" transform="translate(254.492188 0)"/>
       <use xlink:href="#DejaVuSans-30" transform="translate(290.576172 0)"/>
       <use xlink:href="#DejaVuSans-39" transform="translate(354.199219 0)"/>
      </g>
     </g>
    </g>
    <g id="xtick_5">
     <g id="line2d_5">
      <g>
       <use xlink:href="#m0188936123" x="550.969643" y="224.28" style="stroke: #000000; stroke-width: 0.8"/>
      </g>
     </g>
     <g id="text_5">
      <!-- 2024-11 -->
      <g transform="translate(530.078237 238.878438) scale(0.1 -0.1)">
       <defs>
        <path id="DejaVuSans-31" d="M 794 531 
L 1825 531 
L 1825 4091 
L 703 3866 
L 703 4441 
L 1819 4666 
L 2450 4666 
L 2450 531 
L 3481 531 
L 3481 0 
L 794 0 
L 794 531 
z
" transform="scale(0.015625)"/>
       </defs>
       <use xlink:href="#DejaVuSans-32"/>
       <use xlink:href="#DejaVuSans-30" transform="translate(63.623047 0)"/>
       <use xlink:href="#DejaVuSans-32" transform="translate(127.246094 0)"/>
       <use xlink:href="#DejaVuSans-34" transform="translate(190.869141 0)"/>
       <use xlink:href="#DejaVuSans-2d" transform="translate(254.492188 0)"/>
       <use xlink:href="#DejaVuSans-31" transform="translate(290.576172 0)"/>
       <use xlink:href="#DejaVuSans-31" transform="translate(354.199219 0)"/>
      </g>
     </g>
    </g>
    <g id="xtick_6">
     <g id="line2d_6">
      <g>
       <use xlink:href="#m0188936123" x="641.618271" y="224.28" style="stroke: #000000; stroke-width: 0.8"/>
      </g>
     </g>
     <g id="text_6">
      <!-- 2025-01 -->
      <g transform="translate(620.726864 238.878438) scale(0.1 -0.1)">
       <use xlink:href="#DejaVuSans-32"/>
       <use xlink:href="#DejaVuSans-30" transform="translate(63.623047 0)"/>
       <use xlink:href="#DejaVuSans-32" transform="translate(127.246094 0)"/>
       <use xlink:href="#DejaVuSans-35" transform="translate(190.869141 0)"/>
       <use xlink:href="#DejaVuSans-2d" transform="translate(254.492188 0)"/>
       <use xlink:href="#DejaVuSans-30" transform="translate(290.576172 0)"/>
       <use xlink:href="#DejaVuSans-31" transform="translate(354.199219 0)"/>
      </g>
     </g>
    </g>
    <g id="xtick_7">
     <g id="line2d_7">
      <g>
       <use xlink:href="#m0188936123" x="729.294812" y="224.28" style="stroke: #000000; stroke-width: 0.8"/>
      </g>
     </g>
     <g id="text_7">
      <!-- 2025-03 -->
      <g transform="translate(708.403406 238.878438) scale(0.1 -0.1)">
       <use xlink:href="#DejaVuSans-32"/>
       <use xlink:href="#DejaVuSans-30" transform="translate(63.623047 0)"/>
       <use xlink:href="#DejaVuSans-32" transform="translate(127.246094 0)"/>
       <use xlink:href="#DejaVuSans-35" transform="translate(190.869141 0)"/>
       <use xlink:href="#DejaVuSans-2d" transform="translate(254.492188 0)"/>
       <use xlink:href="#DejaVuSans-30" transform="translate(290.576172 0)"/>
       <use xlink:href="#DejaVuSans-33" transform="translate(354.199219 0)"/>
      </g>
     </g>
    </g>
    <g id="xtick_8">
     <g id="line2d_8">
      <g>
       <use xlink:href="#m0188936123" x="819.943439" y="224.28" style="stroke: #000000; stroke-width: 0.8"/>
      </g>
     </g>
     <g id="text_8">
      <!-- 2025-05 -->
      <g transform="translate(799.052033 238.878438) scale(0.1 -0.1)">
       <use xlink:href="#DejaVuSans-32"/>
       <use xlink:href="#DejaVuSans-30" transform="translate(63.623047 0)"/>
       <use xlink:href="#DejaVuSans-32" transform="translate(127.246094 0)"/>
       <use xlink:href="#DejaVuSans-35" transform="translate(190.869141 0)"/>
       <use xlink:href="#DejaVuSans-2d" transform="translate(254.492188 0)"/>
       <use xlink:href="#DejaVuSans-30" transform="translate(290.576172 0)"/>
       <use xlink:href="#DejaVuSans-35" transform="translate(354.199219 0)"/>
      </g>
     </g>
    </g>
    <g id="xtick_9">
     <g id="line2d_9">
      <g>
       <use xlink:href="#m0188936123" x="910.592066" y="224.28" style="stroke: #000000; stroke-width: 0.8"/>
      </g>
     </g>
     <g id="text_9">
      <!-- 2025-07 -->
      <g transform="translate(889.70066 238.878438) scale(0.1 -0.1)">
       <use xlink:href="#DejaVuSans-32"/>
       <use xlink:href="#DejaVuSans-30" transform="translate(63.623047 0)"/>
       <use xlink:href="#DejaVuSans-32" transform="translate(127.246094 0)"/>
       <use xlink:href="#DejaVuSans-35" transform="translate(190.869141 0)"/>
       <use xlink:href="#DejaVuSans-2d" transform="translate(254.492188 0)"/>
       <use xlink:href="#DejaVuSans-30" transform="translate(290.576172 0)"/>
       <use xlink:href="#DejaVuSans-37" transform="translate(354.199219 0)"/>
      </g>
     </g>
    </g>
    <g id="xtick_10">
     <g id="line2d_10">
      <g>
       <use xlink:href="#m0188936123" x="1002.726737" y="224.28" style="stroke: #000000; stroke-width: 0.8"/>
      </g>
     </g>
     <g id="text_10">
      <!-- 2025-09 -->
      <g transform="translate(981.835331 238.878438) scale(0.1 -0.1)">
       <use xlink:href="#DejaVuSans-32"/>
       <use xlink:href="#DejaVuSans-30" transform="translate(63.623047 0)"/>
       <use xlink:href="#DejaVuSans-32" transform="translate(127.246094 0)"/>
       <use xlink:href="#DejaVuSans-35" transform="translate(190.869141 0)"/>
       <use xlink:href="#DejaVuSans-2d" transform="translate(254.492188 0)"/>
       <use xlink:href="#DejaVuSans-30" transform="translate(290.576172 0)"/>
       <use xlink:href="#DejaVuSans-39" transform="translate(354.199219 0)"/>
      </g>
     </g>
    </g>
   </g>
   <g id="matplotlib.axis_2">
    <g id="ytick_1">
     <g id="line2d_11">
      <defs>
       <path id="me5aa280b63" d="M 0 0 
L -3.5 0 
" style="stroke: #000000; stroke-width: 0.8"/>
      </defs>
      <g>
       <use xlink:href="#me5aa280b63" x="145.8" y="208.236648" style="stroke: #000000; stroke-width: 0.8"/>
      </g>
     </g>
     <g id="text_11">
      <!-- 20 -->
      <g transform="translate(126.075 212.035867) scale(0.1 -0.1)">
       <use xlink:href="#DejaVuSans-32"/>
       <use xlink:href="#DejaVuSans-30" transform="translate(63.623047 0)"/>
      </g>
     </g>
    </g>
    <g id="ytick_2">
     <g id="line2d_12">
      <g>
       <use xlink:href="#me5aa280b63" x="145.8" y="186.024198" style="stroke: #000000; stroke-width: 0.8"/>
      </g>
     </g>
     <g id="text_12">
      <!-- 30 -->
      <g transform="translate(126.075 189.823416) scale(0.1 -0.1)">
       <use xlink:href="#DejaVuSans-33"/>
       <use xlink:href="#DejaVuSans-30" transform="translate(63.623047 0)"/>
      </g>
     </g>
    </g>
    <g id="ytick_3">
     <g id="line2d_13">
      <g>
       <use xlink:href="#me5aa280b63" x="145.8" y="163.811747" style="stroke: #000000; stroke-width: 0.8"/>
      </g>
     </g>
     <g id="text_13">
      <!-- 40 -->
      <g transform="translate(126.075 167.610966) scale(0.1 -0.1)">
       <use xlink:href="#DejaVuSans-34"/>
       <use xlink:href="#DejaVuSans-30" transform="translate(63.623047 0)"/>
      </g>
     </g>
    </g>
    <g id="ytick_4">
     <g id="line2d_14">
      <g>
       <use xlink:href="#me5aa280b63" x="145.8" y="141.599297" style="stroke: #000000; stroke-width: 0.8"/>
      </g>
     </g>
     <g id="text_14">
      <!-- 50 -->
      <g transform="translate(126.075 145.398516) scale(0.1 -0.1)">
       <use xlink:href="#DejaVuSans-35"/>
       <use xlink:href="#DejaVuSans-30" transform="translate(63.623047 0)"/>
      </g>
     </g>
    </g>
    <g id="ytick_5">
     <g id="line2d_15">
      <g>
       <use xlink:href="#me5aa280b63" x="145.8" y="119.386847" style="stroke: #000000; stroke-width: 0.8"/>
      </g>
     </g>
     <g id="text_15">
      <!-- 60 -->
      <g transform="translate(126.075 123.186066) scale(0.1 -0.1)">
       <defs>
        <path id="DejaVuSans-36" d="M 2113 2584 
Q 1688 2584 1439 2293 
Q 1191 2003 1191 1497 
Q 1191 994 1439 701 
Q 1688 409 2113 409 
Q 2538 409 2786 701 
Q 3034 994 3034 1497 
Q 3034 2003 2786 2293 
Q 2538 2584 2113 2584 
z
M 3366 4563 
L 3366 3988 
Q 3128 4100 2886 4159 
Q 2644 4219 2406 4219 
Q 1781 4219 1451 3797 
Q 1122 3375 1075 2522 
Q 1259 2794 1537 2939 
Q 1816 3084 2150 3084 
Q 2853 3084 3261 2657 
Q 3669 2231 3669 1497 
Q 3669 778 3244 343 
Q 2819 -91 2113 -91 
Q 1303 -91 875 529 
Q 447 1150 447 2328 
Q 447 3434 972 4092 
Q 1497 4750 2381 4750 
Q 2619 4750 2861 4703 
Q 3103 4656 3366 4563 
z
" transform="scale(0.015625)"/>
       </defs>
       <use xlink:href="#DejaVuSans-36"/>
       <use xlink:href="#DejaVuSans-30" transform="translate(63.623047 0)"/>
      </g>
     </g>
    </g>
    <g id="ytick_6">
     <g id="line2d_16">
      <g>
       <use xlink:href="#me5aa280b63" x="145.8" y="97.174396" style="stroke: #000000; stroke-width: 0.8"/>
      </g>
     </g>
     <g id="text_16">
      <!-- 70 -->
      <g transform="translate(126.075 100.973615) scale(0.1 -0.1)">
       <use xlink:href="#DejaVuSans-37"/>
       <use xlink:href="#DejaVuSans-30" transform="translate(63.623047 0)"/>
      </g>
     </g>
    </g>
    <g id="ytick_7">
     <g id="line2d_17">
      <g>
       <use xlink:href="#me5aa280b63" x="145.8" y="74.961946" style="stroke: #000000; stroke-width: 0.8"/>
      </g>
     </g>
     <g id="text_17">
      <!-- 80 -->
      <g transform="translate(126.075 78.761165) scale(0.1 -0.1)">
       <defs>
        <path id="DejaVuSans-38" d="M 2034 2216 
Q 1584 2216 1326 1975 
Q 1069 1734 1069 1313 
Q 1069 891 1326 650 
Q 1584 409 2034 409 
Q 2484 409 2743 651 
Q 3003 894 3003 1313 
Q 3003 1734 2745 1975 
Q 2488 2216 2034 2216 
z
M 1403 2484 
Q 997 2584 770 2862 
Q 544 3141 544 3541 
Q 544 4100 942 4425 
Q 1341 4750 2034 4750 
Q 2731 4750 3128 4425 
Q 3525 4100 3525 3541 
Q 3525 3141 3298 2862 
Q 3072 2584 2669 2484 
Q 3125 2378 3379 2068 
Q 3634 1759 3634 1313 
Q 3634 634 3220 271 
Q 2806 -91 2034 -91 
Q 1263 -91 848 271 
Q 434 634 434 1313 
Q 434 1759 690 2068 
Q 947 2378 1403 2484 
z
M 1172 3481 
Q 1172 3119 1398 2916 
Q 1625 2713 2034 2713 
Q 2441 2713 2670 2916 
Q 2900 3119 2900 3481 
Q 2900 3844 2670 4047 
Q 2441 4250 2034 4250 
Q 1625 4250 1398 4047 
Q 1172 3844 1172 3481 
z
" transform="scale(0.015625)"/>
       </defs>
       <use xlink:href="#DejaVuSans-38"/>
       <use xlink:href="#DejaVuSans-30" transform="translate(63.623047 0)"/>
      </g>
     </g>
    </g>
    <g id="ytick_8">
     <g id="line2d_18">
      <g>
       <use xlink:href="#me5aa280b63" x="145.8" y="52.749496" style="stroke: #000000; stroke-width: 0.8"/>
      </g>
     </g>
     <g id="text_18">
      <!-- 90 -->
      <g transform="translate(126.075 56.548715) scale(0.1 -0.1)">
       <use xlink:href="#DejaVuSans-39"/>
       <use xlink:href="#DejaVuSans-30" transform="translate(63.623047 0)"/>
      </g>
     </g>
    </g>
    <g id="ytick_9">
     <g id="line2d_19">
      <g>
       <use xlink:href="#me5aa280b63" x="145.8" y="30.537046" style="stroke: #000000; stroke-width: 0.8"/>
      </g>
     </g>
     <g id="text_19">
      <!-- 100 -->
      <g transform="translate(119.7125 34.336264) scale(0.1 -0.1)">
       <use xlink:href="#DejaVuSans-31"/>
       <use xlink:href="#DejaVuSans-30" transform="translate(63.623047 0)"/>
       <use xlink:href="#DejaVuSans-30" transform="translate(127.246094 0)"/>
      </g>
     </g>
    </g>
   </g>
   <g id="line2d_20">
    <path d="M 186.889091 199.10142 
L 191.34722 206.53381 
L 192.833263 212.172077 
L 194.319306 212.36089 
L 195.805349 212.068323 
L 197.291392 196.095176 
L 201.749522 180.942235 
L 203.235565 182.654741 
L 204.721608 201.277242 
L 206.207651 184.474902 
L 207.693694 181.653009 
L 212.151823 184.051728 
L 213.637866 165.846007 
L 215.123909 150.356294 
L 216.609952 169.850569 
L 218.095995 152.421581 
L 222.554125 138.406041 
L 224.040168 139.032615 
L 225.526211 125.098838 
L 227.012254 138.737896 
L 232.956426 152.184039 
L 234.442469 158.268143 
L 235.928512 147.478125 
L 237.414555 158.844464 
L 238.900598 153.966626 
L 243.358728 163.015098 
L 244.844771 168.781641 
L 246.330814 189.047871 
L 247.816857 125.583664 
L 249.3029 123.394505 
L 253.761029 134.423893 
L 255.247072 142.795036 
L 256.733115 162.343031 
L 258.219158 159.491786 
L 259.705201 161.444521 
L 264.163331 153.584533 
L 265.649374 152.487794 
L 267.135417 140.842151 
L 268.62146 140.430234 
L 270.107503 138.333964 
L 274.565632 128.260617 
L 276.051675 133.061201 
L 277.537718 165.262807 
L 279.023761 155.006008 
L 280.509804 108.296196 
L 284.967934 101.33479 
L 286.453977 93.601218 
L 287.94002 88.275768 
L 289.426063 74.7023 
L 290.912106 82.703244 
L 295.370235 79.471358 
L 296.856278 80.86003 
L 298.342321 78.845517 
L 299.828364 75.756767 
L 301.314407 81.856989 
L 305.772537 61.050235 
L 307.25858 52.918963 
L 308.744623 66.795401 
L 310.230666 121.354852 
L 311.716709 98.599781 
L 317.660881 100.767866 
L 319.146924 100.898462 
L 320.632967 103.745698 
L 322.11901 90.865877 
L 326.57714 95.546252 
L 329.549226 101.632661 
L 331.035269 113.531309 
L 332.521312 104.007355 
L 336.979441 131.70177 
L 338.465484 96.016402 
L 339.951527 80.848073 
L 341.43757 60.955421 
L 342.923613 72.785383 
L 347.381743 68.435384 
L 348.867786 78.999771 
L 353.325915 105.905772 
L 357.784044 107.745559 
L 359.270087 106.741375 
L 360.75613 102.651307 
L 362.242173 97.147184 
L 363.728216 111.156466 
L 368.186346 91.563099 
L 369.672389 106.855969 
L 371.158432 116.349802 
L 374.130518 108.758399 
L 378.588647 99.715343 
L 380.07469 105.867835 
L 381.560733 88.713867 
L 383.046776 91.988691 
L 384.532819 78.900699 
L 388.990949 75.37557 
L 390.476992 75.9009 
L 391.963035 103.270671 
L 393.449078 118.817337 
L 394.935121 108.394586 
L 399.39325 121.585301 
L 400.879293 127.575973 
L 402.365336 149.422886 
L 403.851379 166.808286 
L 405.337422 170.432283 
L 409.795552 172.601725 
L 411.281595 188.386647 
L 412.767638 160.937487 
L 414.253681 183.505751 
L 415.739724 195.571529 
L 420.197853 212.381191 
L 421.683896 208.040374 
L 423.169939 188.396724 
L 424.655982 174.229834 
L 426.142025 163.023589 
L 430.600155 161.415303 
L 432.086198 132.822307 
L 433.572241 128.199452 
L 435.058284 121.970213 
L 436.544327 119.612069 
L 441.002456 121.375585 
L 442.488499 127.780951 
L 443.974542 114.56199 
L 445.460585 125.717439 
L 446.946628 65.999607 
L 451.404758 49.963261 
L 452.890801 51.447609 
L 454.376844 69.861604 
L 455.862887 69.167688 
L 457.34893 79.184918 
L 463.293102 134.324472 
L 464.779145 145.564222 
L 466.265188 152.947984 
L 467.751231 166.711877 
L 472.209361 165.583911 
L 473.695404 172.184385 
L 475.181447 157.774153 
L 476.66749 149.770982 
L 478.153533 163.628887 
L 482.611662 185.110384 
L 484.097705 187.259029 
L 485.583748 163.288071 
L 487.069791 144.554105 
L 488.555834 144.177638 
L 493.013964 127.88344 
L 494.500007 116.577782 
L 495.98605 126.001396 
L 497.472093 115.023776 
L 498.958136 114.484202 
L 503.416265 97.671937 
L 504.902308 130.894198 
L 506.388351 129.656215 
L 507.874394 132.365948 
L 509.360437 106.413929 
L 513.818566 127.17172 
L 515.30461 126.712841 
L 516.790653 139.377375 
L 518.276696 138.799474 
L 519.762739 137.973271 
L 524.220868 129.451348 
L 525.706911 119.434235 
L 527.192954 129.278339 
L 528.678997 129.021838 
L 530.16504 135.453114 
L 534.623169 104.602514 
L 536.109213 108.942355 
L 537.595256 125.387462 
L 539.081299 129.259058 
L 540.567342 105.202666 
L 545.025471 110.862896 
L 546.511514 122.542987 
L 547.997557 137.261395 
L 549.4836 147.7033 
L 550.969643 173.631288 
L 555.427772 189.521235 
L 556.913816 176.106786 
L 558.399859 180.146023 
L 559.885902 170.319579 
L 561.371945 178.541121 
L 565.830074 183.764571 
L 567.316117 169.643645 
L 568.80216 164.182761 
L 570.288203 153.320324 
L 571.774246 172.733775 
L 576.232375 160.435393 
L 577.718419 147.707716 
L 579.204462 126.785728 
L 580.690505 112.71334 
L 582.176548 102.40269 
L 586.634677 97.826671 
L 588.12072 87.810407 
L 589.606763 101.562789 
L 592.578849 92.569248 
L 597.036978 67.493497 
L 598.523022 63.157342 
L 600.009065 63.834001 
L 601.495108 68.381209 
L 602.981151 39.782656 
L 607.43928 39.378308 
L 608.925323 39.06 
L 610.411366 51.960256 
L 611.897409 46.319076 
L 613.383452 47.186083 
L 617.841581 47.25613 
L 619.327625 47.062981 
L 620.813668 87.511076 
L 622.299711 88.941938 
L 623.785754 83.97994 
L 628.243883 88.58846 
L 629.729926 83.445702 
L 632.702012 82.043151 
L 634.188055 98.72781 
L 638.646184 122.980704 
L 640.132228 132.753028 
L 643.104314 149.203114 
L 644.590357 155.194045 
L 649.048486 150.501353 
L 650.534529 166.790151 
L 652.020572 173.975006 
L 654.992658 174.858662 
L 659.450787 186.44976 
L 660.936831 209.819294 
L 662.422874 192.003318 
L 663.908917 215.46 
L 665.39496 211.835617 
L 671.339132 215.03911 
L 672.825175 207.751784 
L 674.311218 206.180602 
L 675.797261 199.622807 
L 680.25539 173.554597 
L 681.741434 155.544203 
L 683.227477 147.687546 
L 684.71352 152.2531 
L 686.199563 143.525477 
L 690.657692 154.609176 
L 692.143735 142.514931 
L 693.629778 152.713742 
L 695.115821 129.384937 
L 696.601864 146.928986 
L 701.059993 127.656241 
L 704.03208 111.540232 
L 705.518123 102.165309 
L 707.004166 107.957302 
L 712.948338 124.167951 
L 714.434381 125.78214 
L 715.920424 117.833677 
L 717.406467 113.242519 
L 721.864596 74.448254 
L 723.350639 82.54717 
L 724.836683 114.686026 
L 726.322726 128.193708 
L 727.808769 95.556931 
L 732.266898 111.593442 
L 733.752941 131.258469 
L 735.238984 145.584649 
L 736.725027 166.877683 
L 738.21107 163.604797 
L 742.669199 189.527837 
L 744.155242 200.113306 
L 745.641286 207.650552 
L 747.127329 213.340753 
L 748.613372 206.191816 
L 753.071501 204.60574 
L 754.557544 199.724719 
L 756.043587 188.391377 
L 757.52963 204.525495 
L 759.015673 186.096229 
L 763.473802 175.579717 
L 764.959845 166.958975 
L 766.445889 169.814687 
L 767.931932 173.553294 
L 769.417975 164.112546 
L 773.876104 138.404828 
L 775.362147 125.197441 
L 776.84819 97.080374 
L 778.334233 163.455261 
L 779.820276 184.297577 
L 784.278405 189.605848 
L 785.764448 201.996597 
L 787.250492 157.880165 
L 788.736535 170.162258 
L 790.222578 163.682639 
L 794.680707 162.118395 
L 796.16675 160.644988 
L 797.652793 169.294627 
L 799.138836 161.73641 
L 805.083008 169.584612 
L 806.569051 163.214445 
L 808.055095 158.786546 
L 809.541138 136.25857 
L 811.027181 116.858321 
L 815.48531 105.304134 
L 816.971353 87.606246 
L 818.457396 113.859147 
L 819.943439 87.53198 
L 821.429482 124.686239 
L 825.887611 149.765313 
L 827.373654 149.765281 
L 828.859698 136.574105 
L 830.345741 140.259923 
L 831.831784 126.504288 
L 836.289913 113.931937 
L 837.775956 119.232611 
L 839.261999 129.706172 
L 840.748042 134.727151 
L 842.234085 137.608782 
L 846.692214 147.542423 
L 848.178257 156.168171 
L 849.664301 168.731749 
L 851.150344 152.59198 
L 852.636387 151.620258 
L 858.580559 136.390891 
L 860.066602 129.229196 
L 861.552645 133.853076 
L 863.038688 134.221839 
L 867.496817 178.756342 
L 868.98286 181.932457 
L 870.468904 181.531316 
L 871.954947 184.887976 
L 873.44099 168.015317 
L 877.899119 167.987863 
L 879.385162 157.033871 
L 880.871205 154.158792 
L 882.357248 149.882946 
L 883.843291 136.484063 
L 888.30142 150.376459 
L 889.787463 162.649179 
L 891.273506 156.168396 
L 894.245593 141.028982 
L 898.703722 142.36894 
L 900.189765 153.177206 
L 901.675808 146.375367 
L 903.161851 140.114237 
L 904.647894 154.494475 
L 909.106023 125.757647 
L 910.592066 120.807942 
L 912.078109 87.877324 
L 913.564153 86.509709 
L 919.508325 91.25216 
L 920.994368 95.413115 
L 922.480411 75.944729 
L 923.966454 75.38035 
L 925.452497 93.336214 
L 929.910626 110.491449 
L 931.396669 102.001681 
L 932.882712 102.614235 
L 934.368756 99.997128 
L 935.854799 97.015566 
L 940.312928 105.306786 
L 941.798971 107.829048 
L 943.285014 130.602481 
L 944.771057 140.19015 
L 946.2571 108.204178 
L 950.715229 107.555952 
L 952.201272 140.625729 
L 953.687315 165.247422 
L 955.173359 166.503196 
L 956.659402 178.738912 
L 961.117531 175.02233 
L 962.603574 185.016721 
L 964.089617 129.104351 
L 967.061703 97.358005 
L 971.519832 107.401546 
L 973.005875 102.32162 
L 974.491918 95.570571 
L 975.977962 97.523428 
L 977.464005 101.502494 
L 981.922134 94.848268 
L 983.408177 88.271465 
L 984.89422 98.712472 
L 986.380263 84.550661 
L 987.866306 82.338754 
L 992.324435 82.965129 
L 995.296521 105.102402 
L 996.782565 126.396767 
L 998.268608 118.511724 
L 1004.21278 141.272746 
L 1005.698823 121.832673 
L 1007.184866 115.370006 
L 1008.670909 110.078428 
L 1008.670909 110.078428 
" clip-path="url(#p7d4e589bb2)" style="fill: none; stroke: #1f77b4; stroke-width: 1.5; stroke-linecap: square"/>
   </g>
   <g id="patch_3">
    <path d="M 145.8 224.28 
L 145.8 30.24 
" style="fill: none; stroke: #000000; stroke-width: 0.8; stroke-linejoin: miter; stroke-linecap: square"/>
   </g>
   <g id="patch_4">
    <path d="M 145.8 224.28 
L 1049.76 224.28 
" style="fill: none; stroke: #000000; stroke-width: 0.8; stroke-linejoin: miter; stroke-linecap: square"/>
   </g>
  </g>
 </g>
 <defs>
  <clipPath id="p7d4e589bb2">
   <rect x="145.8" y="30.24" width="903.96" height="194.04"/>
  </clipPath>
 </defs>
</svg>
