<?xml version="1.0" encoding="utf-8" standalone="no"?>
<!DOCTYPE svg PUBLIC "-//W3C//DTD SVG 1.1//EN"
  "http://www.w3.org/Graphics/SVG/1.1/DTD/svg11.dtd">
<svg xmlns:xlink="http://www.w3.org/1999/xlink" width="1166.4pt" height="252pt" viewBox="0 0 1166.4 252" xmlns="http://www.w3.org/2000/svg" version="1.1">
 <metadata>
  <rdf:RDF xmlns:dc="http://purl.org/dc/elements/1.1/" xmlns:cc="http://creativecommons.org/ns#" xmlns:rdf="http://www.w3.org/1999/02/22-rdf-syntax-ns#">
   <cc:Work>
    <dc:type rdf:resource="http://purl.org/dc/dcmitype/StillImage"/>
    <dc:date>2025-09-05T15:16:50.657032</dc:date>
    <dc:format>image/svg+xml</dc:format>
    <dc:creator>
     <cc:Agent>
      <dc:title>Matplotlib v3.10.5, https://matplotlib.org/</dc:title>
     </cc:Agent>
    </dc:creator>
   </cc:Work>
  </rdf:RDF>
 </metadata>
 <defs>
  <style type="text/css">*{stroke-linejoin: round; stroke-linecap: butt}</style>
 </defs>
 <g id="figure_1">
  <g id="patch_1">
   <path d="M 0 252 
L 1166.4 252 
L 1166.4 0 
L 0 0 
z
" style="fill: #ffffff"/>
  </g>
  <g id="axes_1">
   <g id="patch_2">
    <path d="M 145.8 224.28 
L 1049.76 224.28 
L 1049.76 30.24 
L 145.8 30.24 
z
" style="fill: #ffffff"/>
   </g>
   <g id="matplotlib.axis_1">
    <g id="xtick_1">
     <g id="line2d_1">
      <defs>
       <path id="m0e4dce2547" d="M 0 0 
L 0 3.5 
" style="stroke: #000000; stroke-width: 0.8"/>
      </defs>
      <g>
       <use xlink:href="#m0e4dce2547" x="178.470838" y="224.28" style="stroke: #000000; stroke-width: 0.8"/>
      </g>
     </g>
     <g id="text_1">
      <!-- 2020 -->
      <g transform="translate(165.745838 238.878438) scale(0.1 -0.1)">
       <defs>
        <path id="DejaVuSans-32" d="M 1228 531 
L 3431 531 
L 3431 0 
L 469 0 
L 469 531 
Q 828 903 1448 1529 
Q 2069 2156 2228 2338 
Q 2531 2678 2651 2914 
Q 2772 3150 2772 3378 
Q 2772 3750 2511 3984 
Q 2250 4219 1831 4219 
Q 1534 4219 1204 4116 
Q 875 4013 500 3803 
L 500 4441 
Q 881 4594 1212 4672 
Q 1544 4750 1819 4750 
Q 2544 4750 2975 4387 
Q 3406 4025 3406 3419 
Q 3406 3131 3298 2873 
Q 3191 2616 2906 2266 
Q 2828 2175 2409 1742 
Q 1991 1309 1228 531 
z
" transform="scale(0.015625)"/>
        <path id="DejaVuSans-30" d="M 2034 4250 
Q 1547 4250 1301 3770 
Q 1056 3291 1056 2328 
Q 1056 1369 1301 889 
Q 1547 409 2034 409 
Q 2525 409 2770 889 
Q 3016 1369 3016 2328 
Q 3016 3291 2770 3770 
Q 2525 4250 2034 4250 
z
M 2034 4750 
Q 2819 4750 3233 4129 
Q 3647 3509 3647 2328 
Q 3647 1150 3233 529 
Q 2819 -91 2034 -91 
Q 1250 -91 836 529 
Q 422 1150 422 2328 
Q 422 3509 836 4129 
Q 1250 4750 2034 4750 
z
" transform="scale(0.015625)"/>
       </defs>
       <use xlink:href="#DejaVuSans-32"/>
       <use xlink:href="#DejaVuSans-30" transform="translate(63.623047 0)"/>
       <use xlink:href="#DejaVuSans-32" transform="translate(127.246094 0)"/>
       <use xlink:href="#DejaVuSans-30" transform="translate(190.869141 0)"/>
      </g>
     </g>
    </g>
    <g id="xtick_2">
     <g id="line2d_2">
      <g>
       <use xlink:href="#m0e4dce2547" x="325.188958" y="224.28" style="stroke: #000000; stroke-width: 0.8"/>
      </g>
     </g>
     <g id="text_2">
      <!-- 2021 -->
      <g transform="translate(312.463958 238.878438) scale(0.1 -0.1)">
       <defs>
        <path id="DejaVuSans-31" d="M 794 531 
L 1825 531 
L 1825 4091 
L 703 3866 
L 703 4441 
L 1819 4666 
L 2450 4666 
L 2450 531 
L 3481 531 
L 3481 0 
L 794 0 
L 794 531 
z
" transform="scale(0.015625)"/>
       </defs>
       <use xlink:href="#DejaVuSans-32"/>
       <use xlink:href="#DejaVuSans-30" transform="translate(63.623047 0)"/>
       <use xlink:href="#DejaVuSans-32" transform="translate(127.246094 0)"/>
       <use xlink:href="#DejaVuSans-31" transform="translate(190.869141 0)"/>
      </g>
     </g>
    </g>
    <g id="xtick_3">
     <g id="line2d_3">
      <g>
       <use xlink:href="#m0e4dce2547" x="471.506208" y="224.28" style="stroke: #000000; stroke-width: 0.8"/>
      </g>
     </g>
     <g id="text_3">
      <!-- 2022 -->
      <g transform="translate(458.781208 238.878438) scale(0.1 -0.1)">
       <use xlink:href="#DejaVuSans-32"/>
       <use xlink:href="#DejaVuSans-30" transform="translate(63.623047 0)"/>
       <use xlink:href="#DejaVuSans-32" transform="translate(127.246094 0)"/>
       <use xlink:href="#DejaVuSans-32" transform="translate(190.869141 0)"/>
      </g>
     </g>
    </g>
    <g id="xtick_4">
     <g id="line2d_4">
      <g>
       <use xlink:href="#m0e4dce2547" x="617.823459" y="224.28" style="stroke: #000000; stroke-width: 0.8"/>
      </g>
     </g>
     <g id="text_4">
      <!-- 2023 -->
      <g transform="translate(605.098459 238.878438) scale(0.1 -0.1)">
       <defs>
        <path id="DejaVuSans-33" d="M 2597 2516 
Q 3050 2419 3304 2112 
Q 3559 1806 3559 1356 
Q 3559 666 3084 287 
Q 2609 -91 1734 -91 
Q 1441 -91 1130 -33 
Q 819 25 488 141 
L 488 750 
Q 750 597 1062 519 
Q 1375 441 1716 441 
Q 2309 441 2620 675 
Q 2931 909 2931 1356 
Q 2931 1769 2642 2001 
Q 2353 2234 1838 2234 
L 1294 2234 
L 1294 2753 
L 1863 2753 
Q 2328 2753 2575 2939 
Q 2822 3125 2822 3475 
Q 2822 3834 2567 4026 
Q 2313 4219 1838 4219 
Q 1578 4219 1281 4162 
Q 984 4106 628 3988 
L 628 4550 
Q 988 4650 1302 4700 
Q 1616 4750 1894 4750 
Q 2613 4750 3031 4423 
Q 3450 4097 3450 3541 
Q 3450 3153 3228 2886 
Q 3006 2619 2597 2516 
z
" transform="scale(0.015625)"/>
       </defs>
       <use xlink:href="#DejaVuSans-32"/>
       <use xlink:href="#DejaVuSans-30" transform="translate(63.623047 0)"/>
       <use xlink:href="#DejaVuSans-32" transform="translate(127.246094 0)"/>
       <use xlink:href="#DejaVuSans-33" transform="translate(190.869141 0)"/>
      </g>
     </g>
    </g>
    <g id="xtick_5">
     <g id="line2d_5">
      <g>
       <use xlink:href="#m0e4dce2547" x="764.14071" y="224.28" style="stroke: #000000; stroke-width: 0.8"/>
      </g>
     </g>
     <g id="text_5">
      <!-- 2024 -->
      <g transform="translate(751.41571 238.878438) scale(0.1 -0.1)">
       <defs>
        <path id="DejaVuSans-34" d="M 2419 4116 
L 825 1625 
L 2419 1625 
L 2419 4116 
z
M 2253 4666 
L 3047 4666 
L 3047 1625 
L 3713 1625 
L 3713 1100 
L 3047 1100 
L 3047 0 
L 2419 0 
L 2419 1100 
L 313 1100 
L 313 1709 
L 2253 4666 
z
" transform="scale(0.015625)"/>
       </defs>
       <use xlink:href="#DejaVuSans-32"/>
       <use xlink:href="#DejaVuSans-30" transform="translate(63.623047 0)"/>
       <use xlink:href="#DejaVuSans-32" transform="translate(127.246094 0)"/>
       <use xlink:href="#DejaVuSans-34" transform="translate(190.869141 0)"/>
      </g>
     </g>
    </g>
    <g id="xtick_6">
     <g id="line2d_6">
      <g>
       <use xlink:href="#m0e4dce2547" x="910.858829" y="224.28" style="stroke: #000000; stroke-width: 0.8"/>
      </g>
     </g>
     <g id="text_6">
      <!-- 2025 -->
      <g transform="translate(898.133829 238.878438) scale(0.1 -0.1)">
       <defs>
        <path id="DejaVuSans-35" d="M 691 4666 
L 3169 4666 
L 3169 4134 
L 1269 4134 
L 1269 2991 
Q 1406 3038 1543 3061 
Q 1681 3084 1819 3084 
Q 2600 3084 3056 2656 
Q 3513 2228 3513 1497 
Q 3513 744 3044 326 
Q 2575 -91 1722 -91 
Q 1428 -91 1123 -41 
Q 819 9 494 109 
L 494 744 
Q 775 591 1075 516 
Q 1375 441 1709 441 
Q 2250 441 2565 725 
Q 2881 1009 2881 1497 
Q 2881 1984 2565 2268 
Q 2250 2553 1709 2553 
Q 1456 2553 1204 2497 
Q 953 2441 691 2322 
L 691 4666 
z
" transform="scale(0.015625)"/>
       </defs>
       <use xlink:href="#DejaVuSans-32"/>
       <use xlink:href="#DejaVuSans-30" transform="translate(63.623047 0)"/>
       <use xlink:href="#DejaVuSans-32" transform="translate(127.246094 0)"/>
       <use xlink:href="#DejaVuSans-35" transform="translate(190.869141 0)"/>
      </g>
     </g>
    </g>
   </g>
   <g id="matplotlib.axis_2">
    <g id="ytick_1">
     <g id="line2d_7">
      <defs>
       <path id="m8b1599869d" d="M 0 0 
L -3.5 0 
" style="stroke: #000000; stroke-width: 0.8"/>
      </defs>
      <g>
       <use xlink:href="#m8b1599869d" x="145.8" y="221.492755" style="stroke: #000000; stroke-width: 0.8"/>
      </g>
     </g>
     <g id="text_7">
      <!-- 0 -->
      <g transform="translate(132.4375 225.291974) scale(0.1 -0.1)">
       <use xlink:href="#DejaVuSans-30"/>
      </g>
     </g>
    </g>
    <g id="ytick_2">
     <g id="line2d_8">
      <g>
       <use xlink:href="#m8b1599869d" x="145.8" y="183.550348" style="stroke: #000000; stroke-width: 0.8"/>
      </g>
     </g>
     <g id="text_8">
      <!-- 20 -->
      <g transform="translate(126.075 187.349566) scale(0.1 -0.1)">
       <use xlink:href="#DejaVuSans-32"/>
       <use xlink:href="#DejaVuSans-30" transform="translate(63.623047 0)"/>
      </g>
     </g>
    </g>
    <g id="ytick_3">
     <g id="line2d_9">
      <g>
       <use xlink:href="#m8b1599869d" x="145.8" y="145.60794" style="stroke: #000000; stroke-width: 0.8"/>
      </g>
     </g>
     <g id="text_9">
      <!-- 40 -->
      <g transform="translate(126.075 149.407159) scale(0.1 -0.1)">
       <use xlink:href="#DejaVuSans-34"/>
       <use xlink:href="#DejaVuSans-30" transform="translate(63.623047 0)"/>
      </g>
     </g>
    </g>
    <g id="ytick_4">
     <g id="line2d_10">
      <g>
       <use xlink:href="#m8b1599869d" x="145.8" y="107.665533" style="stroke: #000000; stroke-width: 0.8"/>
      </g>
     </g>
     <g id="text_10">
      <!-- 60 -->
      <g transform="translate(126.075 111.464751) scale(0.1 -0.1)">
       <defs>
        <path id="DejaVuSans-36" d="M 2113 2584 
Q 1688 2584 1439 2293 
Q 1191 2003 1191 1497 
Q 1191 994 1439 701 
Q 1688 409 2113 409 
Q 2538 409 2786 701 
Q 3034 994 3034 1497 
Q 3034 2003 2786 2293 
Q 2538 2584 2113 2584 
z
M 3366 4563 
L 3366 3988 
Q 3128 4100 2886 4159 
Q 2644 4219 2406 4219 
Q 1781 4219 1451 3797 
Q 1122 3375 1075 2522 
Q 1259 2794 1537 2939 
Q 1816 3084 2150 3084 
Q 2853 3084 3261 2657 
Q 3669 2231 3669 1497 
Q 3669 778 3244 343 
Q 2819 -91 2113 -91 
Q 1303 -91 875 529 
Q 447 1150 447 2328 
Q 447 3434 972 4092 
Q 1497 4750 2381 4750 
Q 2619 4750 2861 4703 
Q 3103 4656 3366 4563 
z
" transform="scale(0.015625)"/>
       </defs>
       <use xlink:href="#DejaVuSans-36"/>
       <use xlink:href="#DejaVuSans-30" transform="translate(63.623047 0)"/>
      </g>
     </g>
    </g>
    <g id="ytick_5">
     <g id="line2d_11">
      <g>
       <use xlink:href="#m8b1599869d" x="145.8" y="69.723125" style="stroke: #000000; stroke-width: 0.8"/>
      </g>
     </g>
     <g id="text_11">
      <!-- 80 -->
      <g transform="translate(126.075 73.522344) scale(0.1 -0.1)">
       <defs>
        <path id="DejaVuSans-38" d="M 2034 2216 
Q 1584 2216 1326 1975 
Q 1069 1734 1069 1313 
Q 1069 891 1326 650 
Q 1584 409 2034 409 
Q 2484 409 2743 651 
Q 3003 894 3003 1313 
Q 3003 1734 2745 1975 
Q 2488 2216 2034 2216 
z
M 1403 2484 
Q 997 2584 770 2862 
Q 544 3141 544 3541 
Q 544 4100 942 4425 
Q 1341 4750 2034 4750 
Q 2731 4750 3128 4425 
Q 3525 4100 3525 3541 
Q 3525 3141 3298 2862 
Q 3072 2584 2669 2484 
Q 3125 2378 3379 2068 
Q 3634 1759 3634 1313 
Q 3634 634 3220 271 
Q 2806 -91 2034 -91 
Q 1263 -91 848 271 
Q 434 634 434 1313 
Q 434 1759 690 2068 
Q 947 2378 1403 2484 
z
M 1172 3481 
Q 1172 3119 1398 2916 
Q 1625 2713 2034 2713 
Q 2441 2713 2670 2916 
Q 2900 3119 2900 3481 
Q 2900 3844 2670 4047 
Q 2441 4250 2034 4250 
Q 1625 4250 1398 4047 
Q 1172 3844 1172 3481 
z
" transform="scale(0.015625)"/>
       </defs>
       <use xlink:href="#DejaVuSans-38"/>
       <use xlink:href="#DejaVuSans-30" transform="translate(63.623047 0)"/>
      </g>
     </g>
    </g>
    <g id="ytick_6">
     <g id="line2d_12">
      <g>
       <use xlink:href="#m8b1599869d" x="145.8" y="31.780717" style="stroke: #000000; stroke-width: 0.8"/>
      </g>
     </g>
     <g id="text_12">
      <!-- 100 -->
      <g transform="translate(119.7125 35.579936) scale(0.1 -0.1)">
       <use xlink:href="#DejaVuSans-31"/>
       <use xlink:href="#DejaVuSans-30" transform="translate(63.623047 0)"/>
       <use xlink:href="#DejaVuSans-30" transform="translate(127.246094 0)"/>
      </g>
     </g>
    </g>
   </g>
   <g id="line2d_13">
    <path d="M 186.889091 87.046742 
L 187.28996 85.084911 
L 187.690829 78.4471 
L 188.893437 108.588845 
L 189.294306 93.603335 
L 189.695175 91.606204 
L 190.096044 100.306443 
L 190.496914 127.834041 
L 191.699521 139.940288 
L 192.10039 117.645089 
L 192.501259 112.183178 
L 192.902129 112.353235 
L 193.302998 123.727062 
L 194.505605 118.445341 
L 194.906475 122.87661 
L 195.307344 115.332913 
L 195.708213 117.341558 
L 196.109082 102.360799 
L 197.712559 123.512386 
L 198.113428 126.561747 
L 198.514297 130.827725 
L 198.915166 119.446732 
L 200.117774 139.774485 
L 200.518643 167.122027 
L 200.919512 163.422311 
L 201.320381 181.724037 
L 201.721251 179.698234 
L 202.923858 146.728102 
L 203.324727 151.640416 
L 203.725596 145.852875 
L 204.126466 150.271035 
L 204.527335 152.44113 
L 205.729942 160.2803 
L 206.130812 148.845143 
L 206.531681 151.659811 
L 206.93255 158.990667 
L 207.333419 135.992229 
L 208.536027 145.507475 
L 208.936896 142.585713 
L 209.337765 138.021457 
L 209.738634 138.661998 
L 210.139503 157.254928 
L 211.342111 155.847798 
L 211.74298 150.721602 
L 212.143849 147.891285 
L 212.544718 139.791946 
L 212.945588 135.025052 
L 214.148195 141.388677 
L 214.549064 137.364634 
L 214.949933 130.648002 
L 215.350803 147.901784 
L 215.751672 127.295812 
L 217.355149 116.748179 
L 217.756018 110.754009 
L 218.156887 94.260519 
L 219.760364 85.936596 
L 220.161233 90.419995 
L 220.562102 91.971026 
L 220.962971 98.667961 
L 221.36384 89.269736 
L 222.566448 102.739064 
L 222.967317 112.701346 
L 223.368186 89.626155 
L 223.769055 93.909042 
L 224.169925 83.627634 
L 225.372532 98.903539 
L 225.773401 101.529678 
L 226.174271 99.191009 
L 226.57514 95.650376 
L 226.976009 107.515651 
L 228.178616 118.20898 
L 228.579486 108.983327 
L 228.980355 108.106905 
L 229.381224 98.494457 
L 229.782093 81.75385 
L 230.984701 60.651701 
L 231.38557 73.180645 
L 232.187308 83.882052 
L 232.588177 88.092834 
L 233.790785 72.404403 
L 234.191654 83.542934 
L 234.592523 83.510214 
L 234.993392 77.682837 
L 235.394262 79.438725 
L 237.398608 91.507822 
L 237.799477 95.31776 
L 238.200346 107.895834 
L 239.402953 109.810489 
L 240.204692 78.562165 
L 240.605561 92.373011 
L 241.00643 73.825407 
L 242.209038 79.765975 
L 242.609907 63.228284 
L 243.010776 61.453693 
L 243.411645 98.166553 
L 243.812514 97.27908 
L 245.015122 89.100412 
L 245.415991 83.133926 
L 245.81686 84.141496 
L 246.217729 83.469392 
L 246.618599 90.097205 
L 247.821206 84.514161 
L 248.222075 80.904048 
L 248.622945 86.664958 
L 249.023814 89.500682 
L 249.424683 106.371531 
L 250.62729 108.300492 
L 251.02816 113.475752 
L 251.429029 88.382566 
L 251.829898 90.830713 
L 253.433375 86.316432 
L 253.834244 96.406705 
L 254.235113 87.866375 
L 254.635982 86.734986 
L 255.036851 82.521438 
L 256.239459 93.341851 
L 256.640328 94.624697 
L 257.041197 78.283954 
L 257.442067 93.336387 
L 257.842936 66.656144 
L 259.045543 66.677029 
L 259.446412 84.703758 
L 259.847282 81.827808 
L 260.248151 116.867514 
L 260.64902 131.842545 
L 261.851627 117.682836 
L 262.252497 138.483066 
L 262.653366 130.368231 
L 263.054235 125.295491 
L 263.455104 91.027629 
L 264.657712 88.847099 
L 265.058581 88.732523 
L 265.860319 75.686517 
L 266.261188 89.710617 
L 267.463796 81.582332 
L 267.864665 94.782386 
L 268.265534 72.727991 
L 268.666404 69.637174 
L 269.067273 72.41548 
L 270.26988 66.946655 
L 271.071619 68.937087 
L 271.472488 80.111546 
L 271.873357 74.268711 
L 273.075965 73.155983 
L 273.476834 78.864539 
L 273.877703 82.511649 
L 274.278572 76.886257 
L 274.679441 80.957576 
L 275.882049 54.795967 
L 276.282918 53.535014 
L 276.683787 71.603689 
L 277.084656 111.985455 
L 277.485525 110.964146 
L 279.089002 132.337539 
L 279.489871 123.576856 
L 279.890741 135.493113 
L 280.29161 151.792039 
L 281.494217 147.160308 
L 281.895086 145.114434 
L 282.295956 154.285271 
L 282.696825 154.660894 
L 283.097694 158.822699 
L 284.300302 161.249342 
L 284.701171 170.342869 
L 285.10204 172.278934 
L 285.502909 155.897946 
L 285.903778 144.925259 
L 287.106386 121.50547 
L 287.507255 135.164015 
L 287.908124 120.129698 
L 288.308993 112.996427 
L 288.709863 133.219261 
L 289.91247 124.176946 
L 290.313339 123.992581 
L 291.115078 103.746348 
L 291.515947 106.496316 
L 292.718554 95.333068 
L 293.119424 90.562697 
L 293.520293 92.223344 
L 293.921162 101.780315 
L 294.322031 114.285422 
L 295.524639 121.261073 
L 295.925508 121.773791 
L 296.326377 126.405515 
L 296.727246 118.053438 
L 297.128115 131.691027 
L 298.330723 119.188516 
L 298.731592 120.553234 
L 299.132461 138.972187 
L 299.53333 131.667727 
L 299.9342 175.543977 
L 301.136807 170.06693 
L 301.537676 162.403253 
L 302.339415 126.609643 
L 302.740284 118.003498 
L 303.942891 129.491806 
L 304.343761 128.674546 
L 304.74463 115.937754 
L 305.145499 114.625686 
L 305.546368 114.52973 
L 306.748976 115.763371 
L 307.149845 99.730937 
L 307.550714 116.340437 
L 307.951583 81.521895 
L 309.55506 112.401711 
L 309.955929 124.731344 
L 310.356798 141.704833 
L 311.158537 137.690879 
L 312.361144 112.337589 
L 312.762013 96.759116 
L 313.162882 107.997821 
L 313.563752 107.121524 
L 313.964621 111.526544 
L 315.167228 109.618899 
L 315.568098 101.658969 
L 315.968967 109.018481 
L 316.770705 103.256908 
L 317.973313 84.162673 
L 318.374182 73.02946 
L 318.775051 75.142992 
L 319.17592 74.493473 
L 319.576789 93.232842 
L 320.779397 99.847325 
L 321.180266 90.025391 
L 321.581135 94.37423 
L 321.982004 88.059131 
L 323.585481 81.377099 
L 323.98635 91.488399 
L 324.38722 84.470622 
L 324.788089 92.72108 
L 326.391565 103.645281 
L 326.792435 97.306031 
L 327.193304 130.948366 
L 327.594173 117.534553 
L 327.995042 116.9042 
L 329.19765 120.102711 
L 329.999388 129.692611 
L 330.400257 132.753499 
L 330.801126 140.712185 
L 332.404603 156.104585 
L 333.206341 117.998482 
L 333.607211 109.71323 
L 334.809818 91.362734 
L 335.210687 93.679855 
L 335.611557 80.317523 
L 336.012426 108.522782 
L 336.413295 126.871842 
L 337.615902 112.818089 
L 338.016772 110.367462 
L 338.417641 118.382572 
L 338.81851 104.611232 
L 339.219379 100.14398 
L 340.421987 101.209434 
L 340.822856 113.97439 
L 341.223725 131.105894 
L 341.624594 140.719264 
L 342.025463 158.950523 
L 343.62894 166.056215 
L 344.029809 168.862004 
L 344.430678 159.209048 
L 344.831548 137.906758 
L 346.034155 169.363232 
L 346.435024 176.696964 
L 346.835894 175.224475 
L 347.236763 215.46 
L 347.637632 212.417131 
L 348.840239 163.417714 
L 350.042847 175.032815 
L 350.443716 170.093057 
L 351.646324 174.534394 
L 352.047193 152.535574 
L 352.448062 152.496948 
L 353.2498 140.273859 
L 354.452408 131.380848 
L 354.853277 126.094051 
L 355.254146 116.393139 
L 355.655016 128.41822 
L 356.055885 149.139047 
L 357.659361 125.186741 
L 358.060231 126.75562 
L 358.4611 129.165803 
L 358.861969 109.39995 
L 360.064576 125.351397 
L 360.465446 126.973651 
L 360.866315 125.84587 
L 361.267184 118.40837 
L 362.870661 118.637865 
L 363.27153 123.797288 
L 363.672399 113.256261 
L 364.073268 81.129943 
L 364.474137 72.007476 
L 365.676745 91.094256 
L 366.077614 78.210974 
L 366.478483 77.902485 
L 366.879353 74.298483 
L 367.280222 77.363046 
L 368.482829 76.466955 
L 368.883698 77.822669 
L 369.284568 81.419442 
L 369.685437 92.051996 
L 370.086306 93.357852 
L 371.288914 93.127871 
L 371.689783 99.552719 
L 372.491521 124.181101 
L 372.89239 125.526605 
L 374.094998 137.378561 
L 374.495867 147.527535 
L 374.896736 162.859004 
L 375.297605 149.852208 
L 375.698475 149.778497 
L 376.901082 155.731131 
L 377.70282 165.551524 
L 378.10369 166.639768 
L 378.504559 154.805813 
L 379.707166 157.115148 
L 380.108035 158.678596 
L 380.508905 158.828334 
L 380.909774 141.054391 
L 381.310643 151.153843 
L 382.513251 128.777476 
L 382.91412 130.590757 
L 383.715858 147.084733 
L 384.116727 137.165916 
L 385.720204 134.537382 
L 386.121073 114.014918 
L 386.521942 134.842714 
L 386.922812 135.659669 
L 388.125419 128.941159 
L 388.526288 114.399148 
L 388.927157 111.082426 
L 389.328027 135.208002 
L 389.728896 112.228149 
L 390.931503 103.898009 
L 391.332373 109.003826 
L 391.733242 106.043253 
L 392.134111 86.197015 
L 392.53498 91.802472 
L 394.138457 80.501575 
L 394.539326 70.27722 
L 394.940195 79.207988 
L 395.341064 82.023305 
L 396.543672 79.44286 
L 396.944541 76.250722 
L 397.34541 65.845233 
L 397.746279 67.825205 
L 398.147149 68.844443 
L 400.151494 53.956556 
L 400.552364 67.959773 
L 400.953233 53.689429 
L 402.15584 61.695505 
L 402.55671 62.630251 
L 402.957579 55.182466 
L 403.358448 58.207797 
L 403.759317 71.094947 
L 404.961925 97.476427 
L 405.362794 92.264414 
L 405.763663 97.224851 
L 406.164532 94.705187 
L 406.565401 96.842487 
L 407.768009 100.961095 
L 408.168878 118.427424 
L 408.569747 120.259014 
L 408.970616 124.598683 
L 409.371486 121.323465 
L 410.574093 127.121623 
L 410.974962 134.421792 
L 411.375831 133.371348 
L 411.776701 123.389258 
L 412.17757 103.932115 
L 413.380177 125.448428 
L 413.781047 123.443813 
L 414.181916 132.702311 
L 414.582785 122.458821 
L 414.983654 124.073469 
L 416.587131 80.938662 
L 416.988 120.4741 
L 417.388869 119.740719 
L 417.789738 109.19702 
L 418.992346 110.792798 
L 419.393215 108.446905 
L 419.794084 117.747465 
L 420.194953 118.509566 
L 420.595823 112.913767 
L 421.79843 93.272983 
L 422.600169 109.519214 
L 423.001038 106.074644 
L 423.401907 111.262363 
L 425.005384 97.388015 
L 425.406253 82.558689 
L 425.807122 90.841034 
L 426.207991 123.439364 
L 427.410599 127.320497 
L 427.811468 132.68103 
L 428.212337 123.896297 
L 428.613206 121.392761 
L 429.014075 136.560018 
L 430.216683 168.840961 
L 430.617552 162.723396 
L 431.018421 153.158033 
L 431.41929 153.979144 
L 431.82016 156.941756 
L 433.022767 174.874691 
L 433.423636 178.505251 
L 434.626244 158.073333 
L 435.828851 163.833743 
L 436.63059 152.807991 
L 437.432328 126.822631 
L 438.634936 129.571407 
L 439.035805 148.395883 
L 439.436674 156.925313 
L 439.837543 140.709157 
L 440.238412 129.0502 
L 441.44102 103.569154 
L 441.841889 99.022919 
L 442.242758 88.966173 
L 442.643627 91.824002 
L 443.044497 69.627438 
L 444.247104 75.508642 
L 444.647973 76.175788 
L 445.048843 85.87963 
L 445.449712 70.259516 
L 445.850581 91.647898 
L 447.053188 88.417347 
L 447.454058 81.036092 
L 447.854927 84.904719 
L 448.255796 92.528882 
L 448.656665 97.009959 
L 449.859273 114.194978 
L 450.260142 114.938267 
L 450.661011 134.124663 
L 451.06188 130.155678 
L 451.462749 118.530839 
L 452.665357 121.816614 
L 453.066226 114.29726 
L 453.467095 120.25163 
L 453.867965 84.332462 
L 454.268834 71.804766 
L 455.471441 72.991952 
L 455.87231 75.359943 
L 456.27318 70.006396 
L 457.074918 104.171804 
L 458.277525 90.800508 
L 458.678395 81.763492 
L 459.079264 70.098853 
L 459.480133 75.071192 
L 459.881002 87.916633 
L 461.08361 81.923046 
L 461.484479 75.400208 
L 461.885348 73.813871 
L 462.286217 81.287311 
L 462.687086 78.339838 
L 464.290563 97.020096 
L 464.691432 90.698233 
L 465.092302 95.93237 
L 465.493171 103.873079 
L 466.695778 116.526412 
L 467.898386 96.076363 
L 469.501863 95.26894 
L 469.902732 107.675081 
L 470.303601 115.541032 
L 470.70447 117.409753 
L 471.105339 132.014577 
L 472.307947 109.087631 
L 472.708816 111.9953 
L 473.109685 138.644586 
L 473.510554 127.445996 
L 473.911424 123.328061 
L 475.114031 118.417732 
L 475.5149 119.508033 
L 475.915769 127.044119 
L 476.717508 154.029272 
L 478.320984 159.525854 
L 478.721854 167.069527 
L 479.122723 168.005765 
L 479.523592 170.398463 
L 480.7262 192.85065 
L 481.127069 192.382241 
L 481.527938 186.705399 
L 481.928807 182.759618 
L 482.329676 132.000571 
L 483.532284 119.991436 
L 483.933153 127.938438 
L 484.334022 125.797306 
L 484.734891 124.691947 
L 485.135761 127.919652 
L 486.338368 120.377457 
L 486.739237 99.731814 
L 487.140106 89.741202 
L 487.941845 107.357785 
L 489.144452 100.646366 
L 489.545322 93.230582 
L 489.946191 92.446847 
L 490.34706 130.520755 
L 490.747929 151.896038 
L 492.351406 158.401326 
L 492.752275 171.206707 
L 493.153144 155.365258 
L 493.554013 147.283867 
L 494.756621 144.786429 
L 495.15749 160.137392 
L 495.959228 144.653531 
L 496.360098 143.598611 
L 497.562705 153.192068 
L 497.963574 171.897653 
L 498.364443 150.958781 
L 498.765313 152.362119 
L 499.166182 156.142833 
L 500.368789 157.920554 
L 500.769659 137.948657 
L 501.170528 133.491445 
L 501.571397 136.075476 
L 501.972266 129.008193 
L 503.174874 122.049646 
L 503.575743 121.889665 
L 503.976612 118.468693 
L 504.77835 93.24216 
L 505.980958 86.408259 
L 506.381827 89.296134 
L 506.782696 77.852915 
L 507.183565 75.393749 
L 507.584435 58.520891 
L 508.787042 58.79937 
L 509.187911 80.096152 
L 509.58878 95.111668 
L 509.98965 101.407712 
L 510.390519 112.376548 
L 511.593126 135.671998 
L 511.993996 134.022586 
L 512.394865 137.642905 
L 512.795734 151.421963 
L 514.399211 154.82857 
L 514.80008 158.513009 
L 515.200949 156.588428 
L 515.601818 151.673113 
L 516.002687 160.222844 
L 517.606164 176.096448 
L 518.007033 171.843173 
L 518.407902 147.427844 
L 518.808772 154.258733 
L 520.011379 145.735545 
L 520.412248 146.895873 
L 520.813118 136.505466 
L 521.213987 144.11454 
L 521.614856 141.970315 
L 522.817463 155.511828 
L 523.218333 149.451261 
L 523.619202 158.234173 
L 524.020071 157.493986 
L 524.42094 150.457551 
L 525.623548 144.881862 
L 526.024417 137.711435 
L 526.425286 161.085121 
L 526.826155 158.542656 
L 527.227024 158.690594 
L 528.429632 150.703961 
L 528.830501 166.941685 
L 529.23137 156.585395 
L 529.632239 150.680242 
L 530.033109 130.895662 
L 531.636585 136.930204 
L 532.438324 107.524087 
L 532.839193 130.348644 
L 534.0418 125.325253 
L 534.44267 127.826092 
L 534.843539 107.062287 
L 535.244408 112.87008 
L 535.645277 127.68258 
L 536.847885 152.33606 
L 537.649623 138.107903 
L 538.451361 169.683949 
L 540.054838 155.017028 
L 540.455707 155.609725 
L 540.856576 154.43195 
L 541.257446 135.094535 
L 542.460053 137.011597 
L 542.860922 151.725356 
L 543.662661 140.386705 
L 544.06353 122.088479 
L 545.667007 100.342132 
L 546.067876 99.412558 
L 546.468745 97.991042 
L 546.869614 75.472378 
L 548.072222 87.366495 
L 548.473091 93.767657 
L 548.87396 93.099792 
L 549.274829 92.971767 
L 549.675698 96.794922 
L 550.878306 109.61615 
L 551.279175 83.560616 
L 551.680044 83.130692 
L 552.080914 67.553738 
L 552.481783 76.981499 
L 553.68439 87.306153 
L 554.085259 96.653082 
L 554.486129 92.745655 
L 554.886998 93.018112 
L 555.287867 74.477865 
L 556.490475 80.376501 
L 556.891344 85.176486 
L 557.292213 80.565321 
L 557.693082 84.225419 
L 558.093951 71.95776 
L 559.296559 79.97484 
L 559.697428 83.570627 
L 560.098297 79.931033 
L 560.499166 77.374055 
L 560.900035 66.637352 
L 562.102643 58.507563 
L 562.503512 65.005852 
L 562.904381 63.791689 
L 563.70612 84.73746 
L 564.908727 97.82593 
L 565.309596 120.278812 
L 565.710466 117.308871 
L 566.111335 106.54986 
L 566.512204 130.866896 
L 567.714812 137.748138 
L 568.115681 161.175528 
L 568.51655 163.10985 
L 568.917419 177.3653 
L 569.318288 186.585834 
L 570.921765 187.951796 
L 571.322634 188.444401 
L 571.723503 189.671336 
L 572.124373 171.511768 
L 573.32698 138.901038 
L 573.727849 157.412693 
L 574.128718 153.949212 
L 574.529588 165.702878 
L 574.930457 158.769336 
L 576.133064 143.131454 
L 576.533933 131.447662 
L 577.335672 138.608365 
L 577.736541 138.92774 
L 578.939149 135.425735 
L 579.740887 137.441294 
L 580.542625 181.996817 
L 582.146102 148.439097 
L 582.546971 141.76611 
L 582.94784 140.246655 
L 583.34871 162.285085 
L 584.551317 169.819982 
L 584.952186 167.210861 
L 585.353055 166.669975 
L 585.753925 145.993008 
L 586.154794 155.49186 
L 587.357401 146.899517 
L 587.758271 140.011886 
L 588.15914 122.994451 
L 588.560009 111.314564 
L 588.960878 112.241102 
L 590.163486 116.145998 
L 590.564355 109.500353 
L 590.965224 115.982443 
L 591.366093 113.538836 
L 591.766962 94.141404 
L 592.96957 96.817745 
L 593.370439 102.172514 
L 593.771308 122.663302 
L 594.172177 125.692702 
L 594.573047 134.392527 
L 595.775654 136.187576 
L 596.176523 135.122166 
L 596.577392 142.27567 
L 596.978262 126.890469 
L 597.379131 125.837111 
L 598.581738 132.912588 
L 599.383477 119.071316 
L 599.784346 136.893116 
L 600.185215 130.672275 
L 601.387823 131.933433 
L 602.189561 92.108312 
L 602.991299 101.563526 
L 604.193907 114.118459 
L 604.594776 122.920836 
L 604.995645 98.810056 
L 605.396514 122.51508 
L 605.797384 132.455561 
L 606.999991 131.756406 
L 607.40086 147.427506 
L 607.801729 149.031299 
L 608.202599 149.812182 
L 608.603468 152.920014 
L 609.806075 137.070877 
L 610.206945 141.137683 
L 611.008683 157.287524 
L 611.409552 153.702674 
L 612.61216 151.840094 
L 613.013029 183.305509 
L 613.413898 168.412489 
L 613.814767 172.935612 
L 614.215636 171.671414 
L 615.819113 168.448806 
L 616.219982 171.878696 
L 616.620851 164.006177 
L 617.021721 161.865848 
L 618.625197 178.585624 
L 619.426936 176.147084 
L 619.827805 146.56987 
L 621.030412 139.858459 
L 621.832151 123.154036 
L 622.23302 133.232057 
L 622.633889 117.90048 
L 624.237366 112.95153 
L 624.638235 108.558948 
L 625.039104 88.979866 
L 625.439973 91.470083 
L 626.642581 84.553682 
L 627.04345 50.525201 
L 627.444319 57.08764 
L 627.845188 44.601512 
L 628.246058 46.351323 
L 629.448665 70.38841 
L 629.849534 69.163603 
L 630.250404 72.08077 
L 630.651273 63.290277 
L 631.052142 60.705136 
L 632.254749 76.69433 
L 632.655619 69.334053 
L 633.056488 81.318272 
L 633.457357 89.605986 
L 633.858226 95.058516 
L 635.060834 92.229171 
L 635.862572 92.089053 
L 636.263441 102.518654 
L 636.66431 95.448173 
L 638.267787 113.761685 
L 638.668656 115.588519 
L 639.069525 130.834816 
L 639.470395 154.298151 
L 640.673002 140.577631 
L 641.073871 156.913239 
L 641.474741 155.01722 
L 641.87561 148.134923 
L 642.276479 126.562714 
L 643.479086 126.710874 
L 643.879956 132.224774 
L 644.280825 135.509263 
L 644.681694 137.61414 
L 645.082563 140.411121 
L 646.68604 113.934132 
L 647.086909 114.203888 
L 647.487778 95.178694 
L 647.888647 101.9463 
L 649.091255 94.061542 
L 649.492124 80.736603 
L 650.293863 97.478685 
L 650.694732 101.493324 
L 651.897339 100.19093 
L 652.298208 107.193712 
L 653.099947 71.070324 
L 653.500816 70.146062 
L 654.703424 71.540843 
L 655.104293 75.659599 
L 655.505162 93.334069 
L 655.906031 86.056294 
L 657.509508 107.382701 
L 657.910377 120.130397 
L 658.311246 116.579675 
L 658.712115 102.232619 
L 659.112984 107.665462 
L 660.315592 97.785634 
L 660.716461 90.974623 
L 661.11733 96.370973 
L 661.5182 107.157041 
L 661.919069 126.066869 
L 663.121676 130.826005 
L 663.522545 135.440939 
L 663.923415 126.636736 
L 664.725153 91.359733 
L 665.927761 83.724486 
L 666.32863 86.162129 
L 666.729499 115.002922 
L 667.130368 123.346398 
L 667.531237 94.320563 
L 668.733845 98.029376 
L 669.134714 110.191953 
L 669.936452 91.019792 
L 670.337322 96.931454 
L 671.539929 91.149974 
L 671.940798 91.092857 
L 672.341667 103.815959 
L 672.742537 99.853624 
L 673.143406 98.926554 
L 674.346013 98.378075 
L 674.746882 107.332316 
L 675.147752 96.788273 
L 675.548621 129.056999 
L 675.94949 113.532334 
L 677.552967 92.116118 
L 677.953836 100.218589 
L 678.755574 78.981783 
L 680.359051 88.842528 
L 680.75992 100.601047 
L 681.160789 99.194347 
L 681.561659 98.219339 
L 682.764266 83.788529 
L 683.165135 68.191443 
L 683.566004 67.516758 
L 683.966874 65.917999 
L 684.367743 79.234044 
L 685.97122 84.142033 
L 686.372089 91.684385 
L 686.772958 91.033841 
L 687.173827 96.221376 
L 688.376435 96.500992 
L 689.178173 72.776617 
L 689.579042 78.352244 
L 689.979911 69.793046 
L 691.182519 86.303319 
L 691.984257 90.479566 
L 692.385126 90.929495 
L 692.785996 104.432452 
L 693.988603 109.91325 
L 694.389472 113.00974 
L 694.790341 101.597394 
L 695.191211 109.625943 
L 695.59208 107.199951 
L 696.794687 88.093171 
L 697.195557 98.224919 
L 697.596426 97.599086 
L 697.997295 110.446319 
L 698.398164 137.608658 
L 699.600772 125.004075 
L 700.001641 113.543227 
L 700.40251 111.618122 
L 700.803379 112.579502 
L 701.204248 87.900106 
L 702.406856 81.957638 
L 702.807725 93.896526 
L 703.208594 116.547723 
L 703.609463 124.409262 
L 704.010333 169.884268 
L 705.613809 177.064304 
L 706.014678 176.501486 
L 706.415548 174.911709 
L 706.816417 178.931616 
L 708.019024 174.638937 
L 708.419894 182.322581 
L 708.820763 181.769338 
L 709.221632 199.27644 
L 709.622501 200.047851 
L 710.825109 191.459336 
L 711.225978 179.833462 
L 711.626847 158.241253 
L 712.027716 147.022188 
L 712.428585 126.631997 
L 713.631193 124.206659 
L 714.032062 104.967231 
L 714.432931 95.602109 
L 714.8338 95.267091 
L 715.23467 95.434256 
L 716.838146 86.050507 
L 717.239016 109.22547 
L 717.639885 117.588358 
L 718.040754 117.290567 
L 719.243361 117.680461 
L 719.644231 128.901504 
L 720.0451 144.280202 
L 720.445969 128.425454 
L 720.846838 137.163438 
L 722.049446 132.863252 
L 722.450315 142.094092 
L 722.851184 163.796773 
L 723.652922 170.603238 
L 724.85553 166.145529 
L 725.256399 161.224577 
L 725.657268 152.440678 
L 726.058137 154.120966 
L 726.459007 157.326522 
L 727.661614 136.441399 
L 728.062483 133.811388 
L 728.463353 134.975718 
L 728.864222 127.028842 
L 729.265091 128.549721 
L 730.467698 126.950308 
L 731.269437 100.210313 
L 731.670306 100.048313 
L 732.071175 114.522739 
L 733.273783 90.409441 
L 733.674652 90.705004 
L 734.075521 100.638385 
L 734.47639 105.020836 
L 734.877259 131.052245 
L 736.079867 123.377247 
L 736.480736 127.89084 
L 736.881605 147.020548 
L 737.282475 178.572552 
L 737.683344 179.872947 
L 738.885951 163.826357 
L 739.28682 170.050393 
L 739.68769 155.670869 
L 740.088559 131.74687 
L 740.489428 134.634705 
L 741.692035 118.917519 
L 742.092905 105.50261 
L 742.493774 101.036176 
L 743.295512 82.827457 
L 744.49812 90.793419 
L 744.898989 75.900925 
L 745.299858 52.587723 
L 745.700727 52.308562 
L 746.101596 54.094139 
L 747.304204 53.033508 
L 747.705073 61.356431 
L 748.105942 65.356329 
L 748.907681 68.338932 
L 750.110288 74.534209 
L 750.511157 79.314539 
L 750.912027 90.496299 
L 751.312896 85.037021 
L 751.713765 95.616188 
L 752.916373 97.377665 
L 753.317242 91.96472 
L 753.718111 102.431259 
L 754.11898 101.400797 
L 754.519849 95.869887 
L 755.722457 118.147364 
L 756.524195 98.762675 
L 756.925064 90.623362 
L 757.325933 92.784327 
L 758.528541 103.866311 
L 758.92941 95.266714 
L 759.330279 107.681121 
L 759.731149 112.620163 
L 760.132018 109.095581 
L 761.735494 128.473244 
L 762.136364 122.289493 
L 762.537233 130.581893 
L 762.938102 145.256654 
L 764.541579 161.423266 
L 764.942448 175.226098 
L 765.343317 204.670571 
L 765.744186 206.57273 
L 766.946794 174.243038 
L 767.347663 171.616872 
L 767.748532 171.616872 
L 768.149401 168.057744 
L 768.550271 165.57465 
L 770.554616 169.497457 
L 770.955486 141.5238 
L 771.356355 132.758491 
L 772.558962 122.677167 
L 772.959831 93.096301 
L 773.360701 89.625984 
L 773.76157 78.700773 
L 774.162439 84.461999 
L 775.365047 99.529029 
L 776.166785 132.822246 
L 776.567654 122.52664 
L 776.968523 126.85814 
L 778.171131 113.62738 
L 778.572 105.843685 
L 779.373738 140.283671 
L 779.774608 148.353975 
L 781.378084 165.001628 
L 781.778953 166.358142 
L 782.179823 162.684667 
L 782.580692 164.910917 
L 784.184169 156.52496 
L 784.585038 136.974131 
L 784.985907 139.564349 
L 785.386776 143.533946 
L 786.589384 161.896951 
L 786.990253 163.046239 
L 787.391122 167.816585 
L 787.791991 166.527533 
L 788.19286 175.747925 
L 789.395468 182.095794 
L 789.796337 186.911383 
L 790.197206 187.072645 
L 790.598075 186.822768 
L 790.998945 173.180473 
L 792.201552 160.238621 
L 792.602421 161.701396 
L 793.00329 177.606397 
L 793.40416 163.255922 
L 793.805029 160.8458 
L 795.007636 162.894498 
L 795.809375 134.11591 
L 796.210244 150.765576 
L 796.611113 135.879729 
L 797.813721 123.909386 
L 798.21459 124.444529 
L 798.615459 112.544071 
L 799.016328 124.192869 
L 800.619805 135.67696 
L 801.020674 140.873275 
L 801.421543 131.65773 
L 801.822412 141.365392 
L 802.223282 137.199386 
L 803.425889 144.927579 
L 803.826758 149.852611 
L 804.227627 167.161618 
L 804.628497 112.958027 
L 805.029366 111.088355 
L 806.231973 120.508465 
L 806.632843 127.657995 
L 807.033712 144.353456 
L 807.434581 141.918304 
L 807.83545 143.586183 
L 809.038058 136.873072 
L 809.438927 135.93637 
L 809.839796 125.990124 
L 810.240665 125.638265 
L 810.641534 123.847835 
L 811.844142 115.244531 
L 812.245011 119.344514 
L 812.64588 146.847284 
L 813.046749 138.087149 
L 813.447619 98.193159 
L 814.650226 92.247543 
L 815.051095 85.642461 
L 815.451965 81.094085 
L 815.852834 69.501078 
L 816.253703 76.334644 
L 817.45631 73.574336 
L 817.85718 74.760372 
L 818.258049 73.039819 
L 818.658918 70.401834 
L 819.059787 75.611889 
L 820.663264 50.8966 
L 821.064133 62.748207 
L 821.465002 109.346256 
L 821.865871 89.911802 
L 823.469348 91.763352 
L 823.870217 91.875021 
L 824.271086 94.306791 
L 824.671956 83.306284 
L 825.874563 87.303699 
L 826.676302 92.501927 
L 827.077171 102.664437 
L 827.47804 94.530174 
L 828.680647 118.183459 
L 829.081517 87.705309 
L 829.482386 74.75033 
L 829.883255 57.760492 
L 830.284124 67.864136 
L 831.486732 64.148945 
L 832.689339 88.871011 
L 833.090208 96.151599 
L 834.292816 97.722945 
L 834.693685 96.865313 
L 835.094554 93.372085 
L 835.495424 88.671081 
L 835.896293 100.636099 
L 837.0989 83.901768 
L 837.499769 96.96312 
L 837.900639 105.071649 
L 838.702377 98.587923 
L 839.904984 90.864517 
L 840.305854 96.11922 
L 840.706723 81.468307 
L 841.107592 84.265217 
L 841.508461 73.087094 
L 842.711069 70.076354 
L 843.111938 70.525013 
L 843.512807 93.900947 
L 843.913676 107.179161 
L 844.314545 98.277303 
L 845.517153 109.543201 
L 845.918022 114.659675 
L 846.719761 148.167252 
L 847.12063 151.262337 
L 848.323237 153.115211 
L 848.724106 166.596827 
L 849.124976 143.153131 
L 849.525845 162.428155 
L 849.926714 172.733279 
L 851.129322 187.090058 
L 851.530191 183.382699 
L 851.93106 166.60541 
L 852.732798 144.93482 
L 853.935406 143.561173 
L 854.336275 119.140493 
L 854.737144 115.192209 
L 855.138013 109.871977 
L 855.538882 107.857904 
L 856.74149 109.364116 
L 857.142359 114.83481 
L 857.543228 103.54472 
L 857.944098 113.072363 
L 858.344967 62.068648 
L 859.547574 48.372146 
L 859.948443 49.63989 
L 860.349313 65.366845 
L 860.750182 64.774187 
L 861.151051 73.329719 
L 863.155397 130.023107 
L 863.556266 136.329376 
L 863.957135 148.084939 
L 865.159743 147.121563 
L 865.560612 152.758829 
L 865.961481 140.451369 
L 866.36235 133.616015 
L 866.76322 145.451815 
L 867.965827 163.798683 
L 868.366696 165.633801 
L 869.168435 129.16038 
L 869.569304 128.838847 
L 870.771911 114.922343 
L 871.17278 105.266328 
L 871.57365 113.3149 
L 871.974519 103.939147 
L 872.375388 103.478347 
L 873.577996 89.119303 
L 873.978865 117.493692 
L 874.379734 116.436392 
L 874.780603 118.75072 
L 875.181472 96.585627 
L 876.38408 114.314479 
L 876.784949 113.922526 
L 877.185818 124.738997 
L 877.586687 124.245424 
L 877.987557 123.539781 
L 879.190164 116.261464 
L 879.591033 107.706006 
L 879.991902 116.113655 
L 880.392772 115.89455 
L 880.793641 121.387406 
L 881.996248 95.038628 
L 882.397118 98.745104 
L 882.797987 112.790584 
L 883.198856 116.097236 
L 883.599725 95.551111 
L 884.802333 100.385399 
L 886.00494 131.850047 
L 886.405809 153.99464 
L 887.608417 167.565939 
L 888.009286 156.108989 
L 888.410155 159.558788 
L 888.811024 151.166199 
L 889.211894 158.188 
L 890.414501 162.64928 
L 890.81537 150.588875 
L 891.216239 145.924839 
L 891.617109 136.647439 
L 892.017978 153.228091 
L 893.220585 142.72428 
L 893.621455 131.85377 
L 894.022324 113.984752 
L 894.824062 93.159663 
L 896.02667 89.251341 
L 896.427539 80.696735 
L 896.828408 92.442366 
L 897.630146 84.761165 
L 898.832754 63.344474 
L 899.233623 59.641051 
L 899.634492 60.218973 
L 900.035361 64.102651 
L 900.436231 39.677206 
L 901.638838 39.33186 
L 902.039707 39.06 
L 902.440576 50.077847 
L 902.841446 45.25983 
L 903.242315 46.000323 
L 904.444922 46.060149 
L 904.845792 45.895184 
L 905.246661 80.441082 
L 905.64753 81.663153 
L 906.048399 77.425211 
L 907.251007 81.361254 
L 907.651876 76.968929 
L 908.453614 75.771039 
L 908.854483 90.021068 
L 911.660568 138.247735 
L 912.863175 134.239802 
L 913.264044 148.151735 
L 913.664914 154.288174 
L 914.466652 155.042886 
L 915.669259 164.942608 
L 916.070129 184.902054 
L 916.470998 169.68579 
L 916.871867 189.719666 
L 917.272736 186.624154 
L 918.876213 189.360193 
L 919.277082 183.136235 
L 919.677951 181.794321 
L 920.07882 176.193441 
L 921.281428 153.92911 
L 921.682297 138.546798 
L 922.083166 131.836586 
L 922.484035 135.735934 
L 922.884905 128.281848 
L 924.087512 137.74821 
L 924.488381 127.418761 
L 924.889251 136.129359 
L 925.29012 116.204699 
L 925.690989 131.188716 
L 927.294466 107.855291 
L 928.096204 92.956966 
L 928.497073 97.90379 
L 930.10055 111.748977 
L 930.501419 113.127623 
L 930.902288 106.339002 
L 931.303157 102.417787 
L 932.505765 69.284391 
L 932.906634 76.201511 
L 933.307503 103.650656 
L 933.708373 115.187295 
L 934.109242 87.312884 
L 935.311849 101.009343 
L 936.514457 148.226494 
L 936.915326 145.431188 
L 939.320541 187.909661 
L 939.72141 181.803899 
L 940.924018 180.449263 
L 941.324887 176.280481 
L 941.725756 166.600904 
L 942.126625 180.380727 
L 942.527494 164.640664 
L 943.730102 155.658725 
L 944.130971 148.295923 
L 944.53184 150.734929 
L 944.93271 153.927998 
L 946.937055 112.628243 
L 947.337925 88.614026 
L 947.738794 145.303472 
L 948.139663 163.104473 
L 949.342271 167.638159 
L 949.74314 178.220847 
L 950.144009 140.541896 
L 950.544878 151.031783 
L 950.945747 145.497672 
L 952.148355 144.161682 
L 952.549224 142.903275 
L 952.950093 150.290757 
L 953.350962 143.835436 
L 954.954439 150.538427 
L 955.355308 145.097797 
L 955.756177 141.316018 
L 956.557916 105.505969 
L 957.760523 95.637773 
L 958.161392 80.522365 
L 958.562262 102.944436 
L 958.963131 80.458936 
L 959.364 112.191636 
L 960.566608 133.611165 
L 960.967477 133.611138 
L 961.368346 122.344821 
L 961.769215 125.492804 
L 962.170084 113.744395 
L 963.372692 103.006605 
L 963.773561 107.533803 
L 964.17443 116.479059 
L 964.575299 120.767376 
L 964.976169 123.228518 
L 966.178776 131.71264 
L 966.579645 139.079717 
L 966.980514 149.810014 
L 967.381384 136.025364 
L 967.782253 135.195436 
L 969.385729 122.188342 
L 969.786599 116.071684 
L 970.187468 120.020846 
L 970.588337 120.335799 
L 971.790945 158.371815 
L 972.191814 161.084471 
L 972.592683 160.741865 
L 972.993552 163.60872 
L 973.394421 149.198124 
L 974.597029 149.174676 
L 974.997898 139.819093 
L 975.398767 137.363547 
L 975.799636 133.711633 
L 976.200506 122.267918 
L 977.403113 134.133132 
L 977.803982 144.615014 
L 978.204851 139.079908 
L 979.00659 126.149641 
L 980.209197 127.294072 
L 980.610067 136.525193 
L 981.411805 125.368377 
L 981.812674 137.650246 
L 983.015282 113.106704 
L 983.416151 108.879261 
L 983.81702 80.753887 
L 984.217889 79.585835 
L 985.821366 83.636267 
L 986.222235 87.190054 
L 986.623104 70.5625 
L 987.023973 70.080476 
L 987.424843 85.416215 
L 988.62745 100.068154 
L 989.028319 92.817214 
L 989.429188 93.340385 
L 990.230927 88.558675 
L 991.834404 97.794251 
L 992.235273 117.244579 
L 992.636142 125.433212 
L 993.037011 98.114641 
L 994.239619 97.561005 
L 995.041357 146.834121 
L 995.442226 147.906652 
L 995.843095 158.356929 
L 997.045703 155.182672 
L 997.446572 163.718679 
L 997.847441 115.965056 
L 998.64918 88.851145 
L 999.851787 97.42913 
L 1000.252656 93.090468 
L 1000.653525 87.324534 
L 1001.054395 88.99243 
L 1001.455264 92.390869 
L 1002.657871 86.707629 
L 1003.058741 81.090515 
L 1003.45961 90.007968 
L 1003.860479 77.912652 
L 1004.261348 76.023507 
L 1005.463956 76.558481 
L 1006.265694 95.465477 
L 1006.666563 113.652564 
L 1007.067432 106.918108 
L 1008.670909 126.357836 
L 1008.670909 126.357836 
" clip-path="url(#pc55129f46c)" style="fill: none; stroke: #1f77b4; stroke-width: 1.5; stroke-linecap: square"/>
   </g>
   <g id="patch_3">
    <path d="M 145.8 224.28 
L 145.8 30.24 
" style="fill: none; stroke: #000000; stroke-width: 0.8; stroke-linejoin: miter; stroke-linecap: square"/>
   </g>
   <g id="patch_4">
    <path d="M 145.8 224.28 
L 1049.76 224.28 
" style="fill: none; stroke: #000000; stroke-width: 0.8; stroke-linejoin: miter; stroke-linecap: square"/>
   </g>
  </g>
 </g>
 <defs>
  <clipPath id="pc55129f46c">
   <rect x="145.8" y="30.24" width="903.96" height="194.04"/>
  </clipPath>
 </defs>
</svg>
