<?xml version="1.0" encoding="utf-8" standalone="no"?>
<!DOCTYPE svg PUBLIC "-//W3C//DTD SVG 1.1//EN"
  "http://www.w3.org/Graphics/SVG/1.1/DTD/svg11.dtd">
<svg xmlns:xlink="http://www.w3.org/1999/xlink" width="1166.4pt" height="252pt" viewBox="0 0 1166.4 252" xmlns="http://www.w3.org/2000/svg" version="1.1">
 <metadata>
  <rdf:RDF xmlns:dc="http://purl.org/dc/elements/1.1/" xmlns:cc="http://creativecommons.org/ns#" xmlns:rdf="http://www.w3.org/1999/02/22-rdf-syntax-ns#">
   <cc:Work>
    <dc:type rdf:resource="http://purl.org/dc/dcmitype/StillImage"/>
    <dc:date>2025-09-06T14:01:11.194543</dc:date>
    <dc:format>image/svg+xml</dc:format>
    <dc:creator>
     <cc:Agent>
      <dc:title>Matplotlib v3.10.5, https://matplotlib.org/</dc:title>
     </cc:Agent>
    </dc:creator>
   </cc:Work>
  </rdf:RDF>
 </metadata>
 <defs>
  <style type="text/css">*{stroke-linejoin: round; stroke-linecap: butt}</style>
 </defs>
 <g id="figure_1">
  <g id="patch_1">
   <path d="M 0 252 
L 1166.4 252 
L 1166.4 0 
L 0 0 
z
" style="fill: #ffffff"/>
  </g>
  <g id="axes_1">
   <g id="patch_2">
    <path d="M 145.8 224.28 
L 1049.76 224.28 
L 1049.76 30.24 
L 145.8 30.24 
z
" style="fill: #ffffff"/>
   </g>
   <g id="matplotlib.axis_1">
    <g id="xtick_1">
     <g id="line2d_1">
      <defs>
       <path id="m48006a752b" d="M 0 0 
L 0 3.5 
" style="stroke: #000000; stroke-width: 0.8"/>
      </defs>
      <g>
       <use xlink:href="#m48006a752b" x="178.474943" y="224.28" style="stroke: #000000; stroke-width: 0.8"/>
      </g>
     </g>
     <g id="text_1">
      <!-- 2020 -->
      <g transform="translate(165.749943 238.878438) scale(0.1 -0.1)">
       <defs>
        <path id="DejaVuSans-32" d="M 1228 531 
L 3431 531 
L 3431 0 
L 469 0 
L 469 531 
Q 828 903 1448 1529 
Q 2069 2156 2228 2338 
Q 2531 2678 2651 2914 
Q 2772 3150 2772 3378 
Q 2772 3750 2511 3984 
Q 2250 4219 1831 4219 
Q 1534 4219 1204 4116 
Q 875 4013 500 3803 
L 500 4441 
Q 881 4594 1212 4672 
Q 1544 4750 1819 4750 
Q 2544 4750 2975 4387 
Q 3406 4025 3406 3419 
Q 3406 3131 3298 2873 
Q 3191 2616 2906 2266 
Q 2828 2175 2409 1742 
Q 1991 1309 1228 531 
z
" transform="scale(0.015625)"/>
        <path id="DejaVuSans-30" d="M 2034 4250 
Q 1547 4250 1301 3770 
Q 1056 3291 1056 2328 
Q 1056 1369 1301 889 
Q 1547 409 2034 409 
Q 2525 409 2770 889 
Q 3016 1369 3016 2328 
Q 3016 3291 2770 3770 
Q 2525 4250 2034 4250 
z
M 2034 4750 
Q 2819 4750 3233 4129 
Q 3647 3509 3647 2328 
Q 3647 1150 3233 529 
Q 2819 -91 2034 -91 
Q 1250 -91 836 529 
Q 422 1150 422 2328 
Q 422 3509 836 4129 
Q 1250 4750 2034 4750 
z
" transform="scale(0.015625)"/>
       </defs>
       <use xlink:href="#DejaVuSans-32"/>
       <use xlink:href="#DejaVuSans-30" transform="translate(63.623047 0)"/>
       <use xlink:href="#DejaVuSans-32" transform="translate(127.246094 0)"/>
       <use xlink:href="#DejaVuSans-30" transform="translate(190.869141 0)"/>
      </g>
     </g>
    </g>
    <g id="xtick_2">
     <g id="line2d_2">
      <g>
       <use xlink:href="#m48006a752b" x="325.121527" y="224.28" style="stroke: #000000; stroke-width: 0.8"/>
      </g>
     </g>
     <g id="text_2">
      <!-- 2021 -->
      <g transform="translate(312.396527 238.878438) scale(0.1 -0.1)">
       <defs>
        <path id="DejaVuSans-31" d="M 794 531 
L 1825 531 
L 1825 4091 
L 703 3866 
L 703 4441 
L 1819 4666 
L 2450 4666 
L 2450 531 
L 3481 531 
L 3481 0 
L 794 0 
L 794 531 
z
" transform="scale(0.015625)"/>
       </defs>
       <use xlink:href="#DejaVuSans-32"/>
       <use xlink:href="#DejaVuSans-30" transform="translate(63.623047 0)"/>
       <use xlink:href="#DejaVuSans-32" transform="translate(127.246094 0)"/>
       <use xlink:href="#DejaVuSans-31" transform="translate(190.869141 0)"/>
      </g>
     </g>
    </g>
    <g id="xtick_3">
     <g id="line2d_3">
      <g>
       <use xlink:href="#m48006a752b" x="471.367439" y="224.28" style="stroke: #000000; stroke-width: 0.8"/>
      </g>
     </g>
     <g id="text_3">
      <!-- 2022 -->
      <g transform="translate(458.642439 238.878438) scale(0.1 -0.1)">
       <use xlink:href="#DejaVuSans-32"/>
       <use xlink:href="#DejaVuSans-30" transform="translate(63.623047 0)"/>
       <use xlink:href="#DejaVuSans-32" transform="translate(127.246094 0)"/>
       <use xlink:href="#DejaVuSans-32" transform="translate(190.869141 0)"/>
      </g>
     </g>
    </g>
    <g id="xtick_4">
     <g id="line2d_4">
      <g>
       <use xlink:href="#m48006a752b" x="617.61335" y="224.28" style="stroke: #000000; stroke-width: 0.8"/>
      </g>
     </g>
     <g id="text_4">
      <!-- 2023 -->
      <g transform="translate(604.88835 238.878438) scale(0.1 -0.1)">
       <defs>
        <path id="DejaVuSans-33" d="M 2597 2516 
Q 3050 2419 3304 2112 
Q 3559 1806 3559 1356 
Q 3559 666 3084 287 
Q 2609 -91 1734 -91 
Q 1441 -91 1130 -33 
Q 819 25 488 141 
L 488 750 
Q 750 597 1062 519 
Q 1375 441 1716 441 
Q 2309 441 2620 675 
Q 2931 909 2931 1356 
Q 2931 1769 2642 2001 
Q 2353 2234 1838 2234 
L 1294 2234 
L 1294 2753 
L 1863 2753 
Q 2328 2753 2575 2939 
Q 2822 3125 2822 3475 
Q 2822 3834 2567 4026 
Q 2313 4219 1838 4219 
Q 1578 4219 1281 4162 
Q 984 4106 628 3988 
L 628 4550 
Q 988 4650 1302 4700 
Q 1616 4750 1894 4750 
Q 2613 4750 3031 4423 
Q 3450 4097 3450 3541 
Q 3450 3153 3228 2886 
Q 3006 2619 2597 2516 
z
" transform="scale(0.015625)"/>
       </defs>
       <use xlink:href="#DejaVuSans-32"/>
       <use xlink:href="#DejaVuSans-30" transform="translate(63.623047 0)"/>
       <use xlink:href="#DejaVuSans-32" transform="translate(127.246094 0)"/>
       <use xlink:href="#DejaVuSans-33" transform="translate(190.869141 0)"/>
      </g>
     </g>
    </g>
    <g id="xtick_5">
     <g id="line2d_5">
      <g>
       <use xlink:href="#m48006a752b" x="763.859261" y="224.28" style="stroke: #000000; stroke-width: 0.8"/>
      </g>
     </g>
     <g id="text_5">
      <!-- 2024 -->
      <g transform="translate(751.134261 238.878438) scale(0.1 -0.1)">
       <defs>
        <path id="DejaVuSans-34" d="M 2419 4116 
L 825 1625 
L 2419 1625 
L 2419 4116 
z
M 2253 4666 
L 3047 4666 
L 3047 1625 
L 3713 1625 
L 3713 1100 
L 3047 1100 
L 3047 0 
L 2419 0 
L 2419 1100 
L 313 1100 
L 313 1709 
L 2253 4666 
z
" transform="scale(0.015625)"/>
       </defs>
       <use xlink:href="#DejaVuSans-32"/>
       <use xlink:href="#DejaVuSans-30" transform="translate(63.623047 0)"/>
       <use xlink:href="#DejaVuSans-32" transform="translate(127.246094 0)"/>
       <use xlink:href="#DejaVuSans-34" transform="translate(190.869141 0)"/>
      </g>
     </g>
    </g>
    <g id="xtick_6">
     <g id="line2d_6">
      <g>
       <use xlink:href="#m48006a752b" x="910.505845" y="224.28" style="stroke: #000000; stroke-width: 0.8"/>
      </g>
     </g>
     <g id="text_6">
      <!-- 2025 -->
      <g transform="translate(897.780845 238.878438) scale(0.1 -0.1)">
       <defs>
        <path id="DejaVuSans-35" d="M 691 4666 
L 3169 4666 
L 3169 4134 
L 1269 4134 
L 1269 2991 
Q 1406 3038 1543 3061 
Q 1681 3084 1819 3084 
Q 2600 3084 3056 2656 
Q 3513 2228 3513 1497 
Q 3513 744 3044 326 
Q 2575 -91 1722 -91 
Q 1428 -91 1123 -41 
Q 819 9 494 109 
L 494 744 
Q 775 591 1075 516 
Q 1375 441 1709 441 
Q 2250 441 2565 725 
Q 2881 1009 2881 1497 
Q 2881 1984 2565 2268 
Q 2250 2553 1709 2553 
Q 1456 2553 1204 2497 
Q 953 2441 691 2322 
L 691 4666 
z
" transform="scale(0.015625)"/>
       </defs>
       <use xlink:href="#DejaVuSans-32"/>
       <use xlink:href="#DejaVuSans-30" transform="translate(63.623047 0)"/>
       <use xlink:href="#DejaVuSans-32" transform="translate(127.246094 0)"/>
       <use xlink:href="#DejaVuSans-35" transform="translate(190.869141 0)"/>
      </g>
     </g>
    </g>
   </g>
   <g id="matplotlib.axis_2">
    <g id="ytick_1">
     <g id="line2d_7">
      <defs>
       <path id="m05e6b761f4" d="M 0 0 
L -3.5 0 
" style="stroke: #000000; stroke-width: 0.8"/>
      </defs>
      <g>
       <use xlink:href="#m05e6b761f4" x="145.8" y="221.49332" style="stroke: #000000; stroke-width: 0.8"/>
      </g>
     </g>
     <g id="text_7">
      <!-- 0 -->
      <g transform="translate(132.4375 225.292539) scale(0.1 -0.1)">
       <use xlink:href="#DejaVuSans-30"/>
      </g>
     </g>
    </g>
    <g id="ytick_2">
     <g id="line2d_8">
      <g>
       <use xlink:href="#m05e6b761f4" x="145.8" y="183.550795" style="stroke: #000000; stroke-width: 0.8"/>
      </g>
     </g>
     <g id="text_8">
      <!-- 20 -->
      <g transform="translate(126.075 187.350014) scale(0.1 -0.1)">
       <use xlink:href="#DejaVuSans-32"/>
       <use xlink:href="#DejaVuSans-30" transform="translate(63.623047 0)"/>
      </g>
     </g>
    </g>
    <g id="ytick_3">
     <g id="line2d_9">
      <g>
       <use xlink:href="#m05e6b761f4" x="145.8" y="145.60827" style="stroke: #000000; stroke-width: 0.8"/>
      </g>
     </g>
     <g id="text_9">
      <!-- 40 -->
      <g transform="translate(126.075 149.407489) scale(0.1 -0.1)">
       <use xlink:href="#DejaVuSans-34"/>
       <use xlink:href="#DejaVuSans-30" transform="translate(63.623047 0)"/>
      </g>
     </g>
    </g>
    <g id="ytick_4">
     <g id="line2d_10">
      <g>
       <use xlink:href="#m05e6b761f4" x="145.8" y="107.665745" style="stroke: #000000; stroke-width: 0.8"/>
      </g>
     </g>
     <g id="text_10">
      <!-- 60 -->
      <g transform="translate(126.075 111.464964) scale(0.1 -0.1)">
       <defs>
        <path id="DejaVuSans-36" d="M 2113 2584 
Q 1688 2584 1439 2293 
Q 1191 2003 1191 1497 
Q 1191 994 1439 701 
Q 1688 409 2113 409 
Q 2538 409 2786 701 
Q 3034 994 3034 1497 
Q 3034 2003 2786 2293 
Q 2538 2584 2113 2584 
z
M 3366 4563 
L 3366 3988 
Q 3128 4100 2886 4159 
Q 2644 4219 2406 4219 
Q 1781 4219 1451 3797 
Q 1122 3375 1075 2522 
Q 1259 2794 1537 2939 
Q 1816 3084 2150 3084 
Q 2853 3084 3261 2657 
Q 3669 2231 3669 1497 
Q 3669 778 3244 343 
Q 2819 -91 2113 -91 
Q 1303 -91 875 529 
Q 447 1150 447 2328 
Q 447 3434 972 4092 
Q 1497 4750 2381 4750 
Q 2619 4750 2861 4703 
Q 3103 4656 3366 4563 
z
" transform="scale(0.015625)"/>
       </defs>
       <use xlink:href="#DejaVuSans-36"/>
       <use xlink:href="#DejaVuSans-30" transform="translate(63.623047 0)"/>
      </g>
     </g>
    </g>
    <g id="ytick_5">
     <g id="line2d_11">
      <g>
       <use xlink:href="#m05e6b761f4" x="145.8" y="69.72322" style="stroke: #000000; stroke-width: 0.8"/>
      </g>
     </g>
     <g id="text_11">
      <!-- 80 -->
      <g transform="translate(126.075 73.522439) scale(0.1 -0.1)">
       <defs>
        <path id="DejaVuSans-38" d="M 2034 2216 
Q 1584 2216 1326 1975 
Q 1069 1734 1069 1313 
Q 1069 891 1326 650 
Q 1584 409 2034 409 
Q 2484 409 2743 651 
Q 3003 894 3003 1313 
Q 3003 1734 2745 1975 
Q 2488 2216 2034 2216 
z
M 1403 2484 
Q 997 2584 770 2862 
Q 544 3141 544 3541 
Q 544 4100 942 4425 
Q 1341 4750 2034 4750 
Q 2731 4750 3128 4425 
Q 3525 4100 3525 3541 
Q 3525 3141 3298 2862 
Q 3072 2584 2669 2484 
Q 3125 2378 3379 2068 
Q 3634 1759 3634 1313 
Q 3634 634 3220 271 
Q 2806 -91 2034 -91 
Q 1263 -91 848 271 
Q 434 634 434 1313 
Q 434 1759 690 2068 
Q 947 2378 1403 2484 
z
M 1172 3481 
Q 1172 3119 1398 2916 
Q 1625 2713 2034 2713 
Q 2441 2713 2670 2916 
Q 2900 3119 2900 3481 
Q 2900 3844 2670 4047 
Q 2441 4250 2034 4250 
Q 1625 4250 1398 4047 
Q 1172 3844 1172 3481 
z
" transform="scale(0.015625)"/>
       </defs>
       <use xlink:href="#DejaVuSans-38"/>
       <use xlink:href="#DejaVuSans-30" transform="translate(63.623047 0)"/>
      </g>
     </g>
    </g>
    <g id="ytick_6">
     <g id="line2d_12">
      <g>
       <use xlink:href="#m05e6b761f4" x="145.8" y="31.780695" style="stroke: #000000; stroke-width: 0.8"/>
      </g>
     </g>
     <g id="text_12">
      <!-- 100 -->
      <g transform="translate(119.7125 35.579914) scale(0.1 -0.1)">
       <use xlink:href="#DejaVuSans-31"/>
       <use xlink:href="#DejaVuSans-30" transform="translate(63.623047 0)"/>
       <use xlink:href="#DejaVuSans-30" transform="translate(127.246094 0)"/>
      </g>
     </g>
    </g>
   </g>
   <g id="line2d_13">
    <path d="M 186.889091 87.047095 
L 187.289765 85.085332 
L 187.690438 78.447184 
L 188.89246 108.58876 
L 189.293133 93.603433 
L 189.693807 91.606268 
L 190.094481 100.306558 
L 190.495154 127.834269 
L 191.697176 139.940701 
L 192.097849 117.645424 
L 192.498523 112.183342 
L 192.899197 112.35336 
L 193.299871 123.727326 
L 194.501892 118.445456 
L 194.902565 122.877054 
L 195.303239 115.33308 
L 195.703913 117.341855 
L 196.104587 102.361216 
L 197.707282 123.512574 
L 198.107955 126.562067 
L 198.508629 130.828033 
L 198.909303 119.446907 
L 200.111324 139.774664 
L 200.511998 167.122168 
L 200.912671 163.423034 
L 201.313345 181.724569 
L 201.714019 179.698742 
L 202.91604 146.728573 
L 203.316714 151.640874 
L 203.717388 145.853434 
L 204.118061 150.271548 
L 204.518735 152.441625 
L 205.720756 160.280899 
L 206.12143 148.845546 
L 206.522104 151.660256 
L 206.922777 158.991171 
L 207.323451 135.99258 
L 208.525472 145.507879 
L 208.926146 142.58602 
L 209.32682 138.021814 
L 209.727493 138.662351 
L 210.128167 157.255289 
L 211.330188 155.848116 
L 211.730862 150.721888 
L 212.131536 147.891593 
L 212.53221 139.792264 
L 212.932883 135.025319 
L 214.134904 141.389013 
L 214.535578 137.364908 
L 214.936252 130.648263 
L 215.336926 147.902111 
L 215.737599 127.296073 
L 217.340294 116.748449 
L 217.740968 110.754313 
L 218.141642 94.26076 
L 219.744337 85.936805 
L 220.14501 90.420217 
L 220.545684 91.971403 
L 220.946358 98.668309 
L 221.347032 89.270198 
L 222.549053 102.739373 
L 222.949727 112.701616 
L 223.3504 89.626468 
L 223.751074 93.909236 
L 224.151748 83.627778 
L 225.353769 98.903706 
L 225.754443 101.529773 
L 226.155116 99.191143 
L 226.55579 95.650475 
L 226.956464 107.515786 
L 228.158485 118.2094 
L 228.559159 108.983211 
L 228.959832 108.106987 
L 229.360506 98.494415 
L 229.76118 81.753663 
L 230.963201 60.651511 
L 231.363875 73.18073 
L 232.165222 83.882422 
L 232.565896 88.093053 
L 233.767917 72.404546 
L 234.168591 83.542996 
L 234.569265 83.510305 
L 234.969938 77.682982 
L 235.370612 79.438794 
L 237.373981 91.508067 
L 237.774654 95.317847 
L 238.175328 107.896138 
L 239.377349 109.81099 
L 240.178697 78.561809 
L 240.579371 92.372656 
L 240.980044 73.825359 
L 242.182066 79.765943 
L 242.582739 63.228251 
L 242.983413 61.453679 
L 243.384087 98.166769 
L 243.78476 97.27926 
L 244.986782 89.100477 
L 245.387455 83.134003 
L 245.788129 84.141528 
L 246.188803 83.469376 
L 246.589477 90.097306 
L 247.791498 84.514227 
L 248.192171 80.904126 
L 248.592845 86.665105 
L 248.993519 89.500923 
L 249.394193 106.371674 
L 250.596214 108.300668 
L 250.996888 113.475894 
L 251.397561 88.382564 
L 251.798235 90.83069 
L 253.40093 86.316426 
L 253.801604 96.406821 
L 254.202277 87.866583 
L 254.602951 86.73526 
L 255.003625 82.521534 
L 256.205646 93.342078 
L 256.60632 94.624992 
L 257.006993 78.284147 
L 257.407667 93.336491 
L 257.808341 66.656671 
L 259.010362 66.677491 
L 259.411036 84.704232 
L 259.81171 81.828379 
L 260.212383 116.867772 
L 260.613057 131.842913 
L 261.815078 117.683096 
L 262.215752 138.483391 
L 262.616426 130.368419 
L 263.017099 125.295761 
L 263.417773 91.02778 
L 264.619794 88.847263 
L 265.020468 88.732657 
L 265.821816 75.686598 
L 266.222489 89.710756 
L 267.42451 81.582433 
L 267.825184 94.782477 
L 268.225858 72.728137 
L 268.626532 69.637236 
L 269.027205 72.415517 
L 270.229227 66.946635 
L 271.030574 68.937078 
L 271.431248 80.111661 
L 271.831921 74.268709 
L 273.033943 73.156047 
L 273.434616 78.864549 
L 273.83529 82.511694 
L 274.235964 76.886401 
L 274.636638 80.957705 
L 275.838659 54.796052 
L 276.239332 53.535131 
L 276.640006 71.603387 
L 277.04068 111.985673 
L 277.441354 110.964343 
L 279.044049 132.337849 
L 279.444722 123.57713 
L 279.845396 135.493379 
L 280.24607 151.792437 
L 281.448091 147.16063 
L 281.848765 145.114713 
L 282.249438 154.285627 
L 282.650112 154.661241 
L 283.050786 158.823088 
L 284.252807 161.249719 
L 284.653481 170.343113 
L 285.054155 172.279286 
L 285.454828 155.898136 
L 285.855502 144.92549 
L 287.057523 121.505739 
L 287.458197 135.164293 
L 287.858871 120.129937 
L 288.259544 112.996681 
L 288.660218 133.21954 
L 289.862239 124.177233 
L 290.262913 123.992868 
L 291.06426 103.746504 
L 291.464934 106.496569 
L 292.666955 95.333242 
L 293.067629 90.562825 
L 293.468303 92.223545 
L 293.868977 101.780512 
L 294.26965 114.28569 
L 295.471671 121.26139 
L 295.872345 121.774047 
L 296.273019 126.405785 
L 296.673693 118.053655 
L 297.074366 131.691342 
L 298.276388 119.188873 
L 298.677061 120.553452 
L 299.077735 138.972496 
L 299.478409 131.667887 
L 299.879082 175.544311 
L 301.081104 170.067229 
L 301.481777 162.403543 
L 302.283125 126.609872 
L 302.683799 118.003674 
L 303.88582 129.492064 
L 304.286494 128.674801 
L 304.687167 115.93803 
L 305.087841 114.625981 
L 305.488515 114.529893 
L 306.690536 115.763574 
L 307.09121 99.731167 
L 307.491883 116.340768 
L 307.892557 81.522134 
L 309.495252 112.401955 
L 309.895926 124.731537 
L 310.296599 141.704968 
L 311.097947 137.691267 
L 312.299968 112.337933 
L 312.700642 96.75934 
L 313.101316 107.997985 
L 313.501989 107.121538 
L 313.902663 111.52663 
L 315.104684 109.619044 
L 315.505358 101.659002 
L 315.906032 109.018743 
L 316.707379 103.257213 
L 317.9094 84.16316 
L 318.310074 73.029849 
L 318.710748 75.143553 
L 319.111421 74.493954 
L 319.512095 93.233043 
L 320.714116 99.847669 
L 321.11479 90.02576 
L 321.515464 94.374592 
L 321.916138 88.059552 
L 323.518832 81.377441 
L 323.919506 91.488929 
L 324.32018 84.47079 
L 324.720854 92.721132 
L 326.323549 103.645481 
L 326.724222 97.306112 
L 327.124896 130.948703 
L 327.52557 117.534791 
L 327.926244 116.904415 
L 329.128265 120.103033 
L 329.929612 129.692959 
L 330.330286 132.75387 
L 330.73096 140.712421 
L 332.333655 156.105015 
L 333.135002 117.998727 
L 333.535676 109.713629 
L 334.737697 91.362868 
L 335.138371 93.680051 
L 335.539044 80.317349 
L 335.939718 108.523016 
L 336.340392 126.872196 
L 337.542413 112.818197 
L 337.943087 110.36762 
L 338.34376 118.382706 
L 338.744434 104.611287 
L 339.145108 100.144285 
L 340.347129 101.209632 
L 340.747803 113.974659 
L 341.148477 131.106106 
L 341.54915 140.719591 
L 341.949824 158.950658 
L 343.552519 166.056167 
L 343.953193 168.862081 
L 344.353866 159.208962 
L 344.75454 137.906756 
L 345.956561 169.363707 
L 346.357235 176.696973 
L 346.757909 175.224413 
L 347.158583 215.46 
L 347.559256 212.416798 
L 348.761277 163.417966 
L 349.963299 175.032956 
L 350.363972 170.093449 
L 351.565994 174.534836 
L 351.966667 152.535913 
L 352.367341 152.497273 
L 353.168688 140.274153 
L 354.37071 131.381174 
L 354.771383 126.094398 
L 355.172057 116.393285 
L 355.572731 128.418443 
L 355.973405 149.13943 
L 357.576099 125.186907 
L 357.976773 126.755869 
L 358.377447 129.166164 
L 358.778121 109.400062 
L 359.980142 125.351659 
L 360.380816 126.974055 
L 360.781489 125.846137 
L 361.182163 118.408599 
L 362.784858 118.638004 
L 363.185532 123.797578 
L 363.586205 113.256472 
L 363.986879 81.130108 
L 364.387553 72.007558 
L 365.589574 91.094311 
L 365.990248 78.211144 
L 366.390922 77.902847 
L 366.791595 74.298701 
L 367.192269 77.363709 
L 368.39429 76.467458 
L 368.794964 77.823118 
L 369.195638 81.419897 
L 369.596311 92.05245 
L 369.996985 93.358424 
L 371.199006 93.128183 
L 371.59968 99.553279 
L 372.401027 124.181085 
L 372.801701 125.526815 
L 374.003722 137.378841 
L 374.404396 147.527531 
L 374.80507 162.858935 
L 375.205744 149.851757 
L 375.606417 149.778864 
L 376.808438 155.731428 
L 377.609786 165.551832 
L 378.01046 166.639882 
L 378.411133 154.806399 
L 379.613155 157.11557 
L 380.013828 158.679143 
L 380.414502 158.82892 
L 380.815176 141.054716 
L 381.215849 151.154114 
L 382.417871 128.777627 
L 382.818544 130.590909 
L 383.619892 147.084884 
L 384.020566 137.166219 
L 385.62326 134.537721 
L 386.023934 114.015207 
L 386.424608 134.84289 
L 386.825282 135.659843 
L 388.027303 128.941375 
L 388.427977 114.399402 
L 388.82865 111.08254 
L 389.229324 135.20834 
L 389.629998 112.228379 
L 390.832019 103.898525 
L 391.232693 109.004046 
L 391.633366 106.043105 
L 392.03404 86.196981 
L 392.434714 91.802454 
L 394.037409 80.501618 
L 394.438083 70.277953 
L 394.838756 79.208876 
L 395.23943 82.02404 
L 396.441451 79.443532 
L 396.842125 76.251337 
L 397.242799 65.845767 
L 397.643472 67.825833 
L 398.044146 68.845096 
L 400.047515 53.957501 
L 400.448188 67.96006 
L 400.848862 53.689336 
L 402.050883 61.695803 
L 402.451557 62.630695 
L 402.852231 55.182245 
L 403.252905 58.207592 
L 403.653578 71.095019 
L 404.855599 97.476763 
L 405.256273 92.264657 
L 405.656947 97.225282 
L 406.057621 94.705569 
L 406.458294 96.842731 
L 407.660316 100.96138 
L 408.060989 118.42752 
L 408.461663 120.259541 
L 408.862337 124.599203 
L 409.263011 121.323754 
L 410.465032 127.12164 
L 410.865705 134.422285 
L 411.266379 133.371649 
L 411.667053 123.389435 
L 412.067727 103.93216 
L 413.269748 125.448686 
L 413.670422 123.443927 
L 414.071095 132.702528 
L 414.471769 122.459263 
L 414.872443 124.073589 
L 416.475138 80.938412 
L 416.875811 120.474011 
L 417.276485 119.741098 
L 417.677159 109.197356 
L 418.87918 110.793068 
L 419.279854 108.447161 
L 419.680527 117.747874 
L 420.081201 118.509879 
L 420.481875 112.914141 
L 421.683896 93.273106 
L 422.485244 109.519285 
L 422.885917 106.074931 
L 423.286591 111.262499 
L 424.889286 97.388109 
L 425.28996 82.558793 
L 425.690633 90.840995 
L 426.091307 123.439621 
L 427.293328 127.320503 
L 427.694002 132.681413 
L 428.094676 123.896574 
L 428.495349 121.392907 
L 428.896023 136.56005 
L 430.098044 168.841449 
L 430.498718 162.723657 
L 430.899392 153.158416 
L 431.300066 153.979203 
L 431.700739 156.941791 
L 432.902761 174.874535 
L 433.303434 178.505107 
L 434.505455 158.073703 
L 435.707477 163.833809 
L 436.508824 152.8082 
L 437.310172 126.822469 
L 438.512193 129.571625 
L 438.912866 148.395884 
L 439.31354 156.925725 
L 439.714214 140.709772 
L 440.114888 129.050504 
L 441.316909 103.569031 
L 441.717583 99.022808 
L 442.118256 88.966119 
L 442.51893 91.823673 
L 442.919604 69.627719 
L 444.121625 75.508478 
L 444.522299 76.175674 
L 444.922972 85.879938 
L 445.323646 70.260337 
L 445.72432 91.648381 
L 446.926341 88.417836 
L 447.327015 81.036453 
L 447.727688 84.904915 
L 448.128362 92.529242 
L 448.529036 97.010243 
L 449.731057 114.19514 
L 450.131731 114.938694 
L 450.532405 134.125184 
L 450.933078 130.155866 
L 451.333752 118.53142 
L 452.535773 121.817055 
L 452.936447 114.297211 
L 453.337121 120.251881 
L 453.737794 84.332558 
L 454.138468 71.804951 
L 455.340489 72.992173 
L 455.741163 75.360213 
L 456.141837 70.006366 
L 456.943184 104.172336 
L 458.145205 90.800832 
L 458.545879 81.763786 
L 458.946553 70.09899 
L 459.347227 75.071413 
L 459.7479 87.916736 
L 460.949922 81.923174 
L 461.350595 75.4004 
L 461.751269 73.813971 
L 462.151943 81.287563 
L 462.552616 78.340061 
L 464.155311 97.020249 
L 464.555985 90.698497 
L 464.956659 95.932404 
L 465.357333 103.873211 
L 466.559354 116.526621 
L 467.761375 96.076519 
L 469.36407 95.269114 
L 469.764744 107.675192 
L 470.165417 115.541276 
L 470.566091 117.409922 
L 470.966765 132.014806 
L 472.168786 109.0877 
L 472.56946 111.995496 
L 472.970133 138.644756 
L 473.370807 127.446078 
L 473.771481 123.328453 
L 474.973502 118.417827 
L 475.374176 119.508185 
L 475.77485 127.044279 
L 476.576197 154.02999 
L 478.178892 159.526559 
L 478.579566 167.070154 
L 478.980239 168.006422 
L 479.380913 170.399149 
L 480.582934 192.851377 
L 480.983608 192.382985 
L 481.384282 186.706257 
L 481.784955 182.760442 
L 482.185629 132.000677 
L 483.38765 119.991675 
L 483.788324 127.938759 
L 484.188998 125.797656 
L 484.589672 124.692205 
L 484.990345 127.919843 
L 486.192366 120.377653 
L 486.59304 99.731819 
L 486.993714 89.741151 
L 487.795061 107.358162 
L 488.997083 100.646549 
L 489.397756 93.230564 
L 489.79843 92.447038 
L 490.199104 130.520948 
L 490.599777 151.896387 
L 492.202472 158.401696 
L 492.603146 171.207163 
L 493.00382 155.365446 
L 493.404494 147.284028 
L 494.606515 144.786758 
L 495.007189 160.137793 
L 495.808536 144.653845 
L 496.20921 143.598808 
L 497.411231 153.192459 
L 497.811905 171.897865 
L 498.212578 150.959067 
L 498.613252 152.362463 
L 499.013926 156.143102 
L 500.215947 157.920876 
L 500.616621 137.948867 
L 501.017294 133.4918 
L 501.417968 136.075839 
L 501.818642 129.008435 
L 503.020663 122.049816 
L 503.421337 121.889959 
L 503.822011 118.468909 
L 504.623358 93.242373 
L 505.825379 86.408454 
L 506.226053 89.296318 
L 506.626727 77.853135 
L 507.0274 75.393966 
L 507.428074 58.521093 
L 508.630095 58.799548 
L 509.030769 80.096416 
L 509.431443 95.111928 
L 509.832116 101.408052 
L 510.23279 112.376869 
L 511.434811 135.672412 
L 511.835485 134.022803 
L 512.236159 137.643167 
L 512.636833 151.422255 
L 514.239528 154.828859 
L 514.640201 158.513235 
L 515.040875 156.588712 
L 515.441549 151.673336 
L 515.842222 160.223044 
L 517.444917 176.096723 
L 517.845591 171.84352 
L 518.246265 147.427944 
L 518.646939 154.258949 
L 519.84896 145.735722 
L 520.249633 146.896281 
L 520.650307 136.505739 
L 521.050981 144.114844 
L 521.451655 141.970473 
L 522.653676 155.512041 
L 523.05435 149.451442 
L 523.455023 158.234425 
L 523.855697 157.494203 
L 524.256371 150.457836 
L 525.458392 144.882161 
L 525.859066 137.711729 
L 526.259739 161.085563 
L 526.660413 158.543058 
L 527.061087 158.691031 
L 528.263108 150.704272 
L 528.663782 166.94213 
L 529.064455 156.585701 
L 529.465129 150.680636 
L 529.865803 130.895951 
L 531.468498 136.930569 
L 532.269845 107.524271 
L 532.670519 130.348919 
L 533.87254 125.325659 
L 534.273214 127.826361 
L 534.673888 107.062654 
L 535.074561 112.870471 
L 535.475235 127.682848 
L 536.677256 152.336295 
L 537.478604 138.108184 
L 538.279951 169.684323 
L 539.882646 155.017332 
L 540.28332 155.610032 
L 540.683994 154.432426 
L 541.084667 135.094886 
L 542.286689 137.01192 
L 542.687362 151.725717 
L 543.48871 140.387024 
L 543.889383 122.088794 
L 545.492078 100.342355 
L 545.892752 99.412567 
L 546.293426 97.991078 
L 546.6941 75.472379 
L 547.896121 87.366671 
L 548.296794 93.76786 
L 548.697468 93.099992 
L 549.098142 92.971934 
L 549.498816 96.795026 
L 550.700837 109.616346 
L 551.101511 83.560906 
L 551.502184 83.131061 
L 551.902858 67.554029 
L 552.303532 76.981495 
L 553.505553 87.306328 
L 553.906227 96.653153 
L 554.3069 92.74585 
L 554.707574 93.018243 
L 555.108248 74.477803 
L 556.310269 80.376403 
L 556.710943 85.176552 
L 557.111617 80.56535 
L 557.51229 84.225361 
L 557.912964 71.9579 
L 559.114985 79.974944 
L 559.515659 83.570574 
L 559.916333 79.931084 
L 560.317006 77.374169 
L 560.71768 66.637237 
L 561.919701 58.507678 
L 562.320375 65.005685 
L 562.721049 63.791524 
L 563.522396 84.737728 
L 564.724417 97.825927 
L 565.125091 120.279122 
L 565.525765 117.309462 
L 565.926439 106.549799 
L 566.327112 130.867185 
L 567.529133 137.748618 
L 567.929807 161.175807 
L 568.330481 163.110234 
L 568.731155 177.366069 
L 569.131828 186.586366 
L 570.734523 187.952426 
L 571.135197 188.445118 
L 571.535871 189.671966 
L 571.936544 171.512385 
L 573.138566 138.901498 
L 573.539239 157.41315 
L 573.939913 153.949549 
L 574.340587 165.703427 
L 574.741261 158.769889 
L 575.943282 143.131736 
L 576.343955 131.448045 
L 577.145303 138.608585 
L 577.545977 138.928178 
L 578.747998 135.426093 
L 579.549345 137.441679 
L 580.350693 181.99722 
L 581.953388 148.43952 
L 582.354061 141.766423 
L 582.754735 140.246899 
L 583.155409 162.285491 
L 584.35743 169.820172 
L 584.758104 167.211063 
L 585.158778 166.670199 
L 585.559451 145.993274 
L 585.960125 155.492101 
L 587.162146 146.899824 
L 587.56282 140.012247 
L 587.963494 122.994868 
L 588.364167 111.314622 
L 588.764841 112.241204 
L 589.966862 116.146042 
L 590.367536 109.500401 
L 590.76821 115.98269 
L 591.168883 113.53897 
L 591.569557 94.141505 
L 592.771578 96.817867 
L 593.172252 102.17256 
L 593.572926 122.663548 
L 593.9736 125.693056 
L 594.374273 134.392901 
L 595.576294 136.187925 
L 595.976968 135.122371 
L 596.377642 142.27598 
L 596.778316 126.890791 
L 597.178989 125.837404 
L 598.381011 132.912933 
L 599.182358 119.07164 
L 599.583032 136.893382 
L 599.983706 130.672558 
L 601.185727 131.933818 
L 601.987074 92.108391 
L 602.788422 101.563791 
L 603.990443 114.118545 
L 604.391117 122.921095 
L 604.79179 98.810306 
L 605.192464 122.515258 
L 605.593138 132.455799 
L 606.795159 131.756733 
L 607.195833 147.427802 
L 607.596506 149.031531 
L 607.99718 149.81269 
L 608.397854 152.920448 
L 609.599875 137.071089 
L 610.000549 141.137959 
L 610.801896 157.287886 
L 611.20257 153.703165 
L 612.404591 151.840546 
L 612.805265 183.306133 
L 613.205939 168.412816 
L 613.606612 172.935981 
L 614.007286 171.671755 
L 615.609981 168.449191 
L 616.010655 171.879087 
L 616.411328 164.006246 
L 616.812002 161.866067 
L 618.414697 178.586076 
L 619.216045 176.147336 
L 619.616718 146.570079 
L 620.818739 139.858572 
L 621.620087 123.154048 
L 622.020761 133.232306 
L 622.421434 117.900735 
L 624.024129 112.951938 
L 624.424803 108.559181 
L 624.825477 88.980259 
L 625.22615 91.470524 
L 626.428172 84.554029 
L 626.828845 50.525501 
L 627.229519 57.087848 
L 627.630193 44.601516 
L 628.030867 46.351316 
L 629.232888 70.388588 
L 629.633561 69.163775 
L 630.034235 72.081044 
L 630.434909 63.290276 
L 630.835583 60.705147 
L 632.037604 76.694348 
L 632.438278 69.334183 
L 632.838951 81.318175 
L 633.239625 89.605951 
L 633.640299 95.058593 
L 634.84232 92.229202 
L 635.643667 92.089053 
L 636.044341 102.518884 
L 636.445015 95.448218 
L 638.04771 113.761879 
L 638.448383 115.588765 
L 638.849057 130.835114 
L 639.249731 154.298647 
L 640.451752 140.578118 
L 640.852426 156.913555 
L 641.2531 155.017764 
L 641.653773 148.135283 
L 642.054447 126.562928 
L 643.256468 126.711145 
L 643.657142 132.2251 
L 644.057816 135.509531 
L 644.458489 137.614455 
L 644.859163 140.411478 
L 646.461858 113.934361 
L 646.862532 114.204303 
L 647.263206 95.178903 
L 647.663879 101.946539 
L 648.8659 94.061883 
L 649.266574 80.736905 
L 650.067922 97.47905 
L 650.468595 101.493569 
L 651.670617 100.191255 
L 652.07129 107.19405 
L 652.872638 71.07047 
L 653.273311 70.146255 
L 654.475333 71.541016 
L 654.876006 75.659817 
L 655.27668 93.334413 
L 655.677354 86.056458 
L 657.280049 107.38299 
L 657.680722 120.130543 
L 658.081396 116.579822 
L 658.48207 102.232788 
L 658.882744 107.66565 
L 660.084765 97.785771 
L 660.485439 90.974792 
L 660.886112 96.37124 
L 661.286786 107.157307 
L 661.68746 126.06699 
L 662.889481 130.826222 
L 663.290155 135.441185 
L 663.690828 126.637007 
L 664.492176 91.359646 
L 665.694197 83.724556 
L 666.094871 86.162212 
L 666.495545 115.003133 
L 666.896218 123.346744 
L 667.296892 94.320695 
L 668.498913 98.02964 
L 668.899587 110.191949 
L 669.700934 91.020127 
L 670.101608 96.931714 
L 671.303629 91.150135 
L 671.704303 91.092929 
L 672.104977 103.816062 
L 672.50565 99.853823 
L 672.906324 98.926654 
L 674.108345 98.37817 
L 674.509019 107.332637 
L 674.909693 96.788401 
L 675.310367 129.057502 
L 675.71104 113.532539 
L 677.313735 92.116466 
L 677.714409 100.218629 
L 678.515756 78.982039 
L 680.118451 88.842682 
L 680.519125 100.601138 
L 680.919799 99.19438 
L 681.320472 98.219371 
L 682.522494 83.788606 
L 682.923167 68.190942 
L 683.323841 67.516376 
L 683.724515 65.91757 
L 684.125189 79.233744 
L 685.727884 84.141745 
L 686.128557 91.68442 
L 686.529231 91.033575 
L 686.929905 96.221389 
L 688.131926 96.501329 
L 688.933273 72.776918 
L 689.333947 78.352696 
L 689.734621 69.793383 
L 690.936642 86.303321 
L 691.737989 90.480067 
L 692.138663 90.929866 
L 692.539337 104.432791 
L 693.741358 109.913733 
L 694.142032 113.010047 
L 694.542706 101.597644 
L 694.943379 109.626423 
L 695.344053 107.200311 
L 696.546074 88.093242 
L 696.946748 98.225195 
L 697.347422 97.599307 
L 697.748095 110.446413 
L 698.148769 137.60896 
L 699.35079 125.004621 
L 699.751464 113.543504 
L 700.152138 111.618628 
L 700.552811 112.580198 
L 700.953485 87.900547 
L 702.155506 81.95827 
L 702.55618 93.897174 
L 702.956854 116.548108 
L 703.357528 124.409486 
L 703.758201 169.884439 
L 705.360896 177.064377 
L 705.76157 176.501532 
L 706.162244 174.911671 
L 706.562917 178.931637 
L 707.764939 174.639302 
L 708.165612 182.322844 
L 708.566286 181.769556 
L 708.96696 199.276923 
L 709.367634 200.0488 
L 710.569655 191.460206 
L 710.970328 179.83391 
L 711.371002 158.241787 
L 711.771676 147.022485 
L 712.17235 126.632329 
L 713.374371 124.206789 
L 713.775045 104.967353 
L 714.175718 95.602126 
L 714.576392 95.267171 
L 714.977066 95.434208 
L 716.579761 86.050449 
L 716.980434 109.225641 
L 717.381108 117.588579 
L 717.781782 117.290715 
L 718.983803 117.680576 
L 719.384477 128.901862 
L 719.78515 144.28051 
L 720.185824 128.42573 
L 720.586498 137.163632 
L 721.788519 132.863583 
L 722.189193 142.094285 
L 722.589867 163.797114 
L 723.391214 170.603382 
L 724.593235 166.145747 
L 724.993909 161.224751 
L 725.394583 152.440948 
L 725.795256 154.121159 
L 726.19593 157.3267 
L 727.397951 136.441848 
L 727.798625 133.811672 
L 728.199299 134.976004 
L 728.599973 127.029175 
L 729.000646 128.549998 
L 730.202667 126.95064 
L 731.004015 100.210464 
L 731.404689 100.048462 
L 731.805362 114.5232 
L 733.007384 90.409714 
L 733.408057 90.70505 
L 733.808731 100.638774 
L 734.209405 105.020908 
L 734.610078 131.052284 
L 735.8121 123.377444 
L 736.212773 127.891197 
L 736.613447 147.020676 
L 737.014121 178.572852 
L 737.414795 179.873245 
L 738.616816 163.826632 
L 739.017489 170.050662 
L 739.418163 155.671322 
L 739.818837 131.74704 
L 740.219511 134.635055 
L 741.421532 118.917837 
L 741.822206 105.502706 
L 742.222879 101.036531 
L 743.024227 82.82773 
L 744.226248 90.793723 
L 744.626922 75.901262 
L 745.027595 52.588098 
L 745.428269 52.308911 
L 745.828943 54.094808 
L 747.030964 53.034116 
L 747.431638 61.357136 
L 747.832312 65.357108 
L 748.633659 68.339459 
L 749.83568 74.53466 
L 750.236354 79.315117 
L 750.637028 90.496824 
L 751.037701 85.037334 
L 751.438375 95.616623 
L 752.640396 97.377838 
L 753.04107 91.964892 
L 753.441744 102.431608 
L 753.842417 101.401205 
L 754.243091 95.869958 
L 755.445112 118.147651 
L 756.24646 98.762746 
L 756.647134 90.623461 
L 757.047807 92.784622 
L 758.249828 103.866591 
L 758.650502 95.266888 
L 759.051176 107.681238 
L 759.45185 112.620553 
L 759.852523 109.095899 
L 761.455218 128.47344 
L 761.855892 122.28975 
L 762.256566 130.582176 
L 762.657239 145.256983 
L 764.259934 161.42378 
L 764.660608 175.226519 
L 765.061282 204.670974 
L 765.461956 206.573126 
L 766.663977 174.243548 
L 767.064651 171.617343 
L 767.465324 171.617343 
L 767.865998 168.058204 
L 768.266672 165.575267 
L 770.27004 169.498091 
L 770.670714 141.524122 
L 771.071388 132.758755 
L 772.273409 122.67741 
L 772.674083 93.096134 
L 773.074756 89.626243 
L 773.47543 78.700623 
L 773.876104 84.462069 
L 775.078125 99.528916 
L 775.879473 132.822607 
L 776.280146 122.526846 
L 776.68082 126.858363 
L 777.882841 113.627721 
L 778.283515 105.844111 
L 779.084862 140.284002 
L 779.485536 148.354217 
L 781.088231 165.001876 
L 781.488905 166.358431 
L 781.889578 162.684949 
L 782.290252 164.91128 
L 783.892947 156.525181 
L 784.293621 136.974319 
L 784.694295 139.564837 
L 785.094968 143.534161 
L 786.296989 161.897405 
L 786.697663 163.046702 
L 787.098337 167.817079 
L 787.499011 166.528068 
L 787.899684 175.748558 
L 789.101706 182.096461 
L 789.502379 186.911953 
L 789.903053 187.07326 
L 790.303727 186.823384 
L 790.704401 173.180917 
L 791.906422 160.239038 
L 792.307095 161.701982 
L 792.707769 177.606989 
L 793.108443 163.256361 
L 793.509117 160.846305 
L 794.711138 162.894842 
L 795.512485 134.116204 
L 795.913159 150.765821 
L 796.313833 135.880104 
L 797.515854 123.909756 
L 797.916528 124.444785 
L 798.317201 112.544196 
L 798.717875 124.193122 
L 800.32057 135.677297 
L 800.721244 140.873536 
L 801.121917 131.658077 
L 801.522591 141.365851 
L 801.923265 137.199666 
L 803.125286 144.927991 
L 803.52596 149.85305 
L 803.926634 167.162129 
L 804.327307 112.958354 
L 804.727981 111.088633 
L 805.930002 120.508628 
L 806.330676 127.658266 
L 806.73135 144.353724 
L 807.132023 141.918616 
L 807.532697 143.58645 
L 808.734718 136.873225 
L 809.135392 135.93664 
L 809.536066 125.990346 
L 809.93674 125.638634 
L 810.337413 123.848049 
L 811.539434 115.244727 
L 811.940108 119.344722 
L 812.340782 146.847706 
L 812.741456 138.087467 
L 813.142129 98.193367 
L 814.344151 92.247739 
L 814.744824 85.642618 
L 815.145498 81.094192 
L 815.546172 69.501227 
L 815.946845 76.334847 
L 817.148867 73.574508 
L 817.54954 74.760549 
L 817.950214 73.039953 
L 818.350888 70.402013 
L 818.751562 75.612125 
L 820.354256 50.896706 
L 820.75493 62.748318 
L 821.155604 109.346499 
L 821.556278 89.911878 
L 823.158973 91.763644 
L 823.559646 91.875141 
L 823.96032 94.306868 
L 824.360994 83.306381 
L 825.563015 87.303757 
L 826.364362 92.502092 
L 826.765036 102.664593 
L 827.16571 94.530252 
L 828.367731 118.183704 
L 828.768405 87.70546 
L 829.169078 74.750473 
L 829.569752 57.760571 
L 829.970426 67.864271 
L 831.172447 64.14901 
L 832.374468 88.871178 
L 832.775142 96.151776 
L 833.977163 97.723151 
L 834.377837 96.865451 
L 834.778511 93.372214 
L 835.179184 88.671252 
L 835.579858 100.636348 
L 836.781879 83.901922 
L 837.182553 96.963275 
L 837.583227 105.071793 
L 838.384574 98.588107 
L 839.586595 90.864633 
L 839.987269 96.11937 
L 840.387943 81.468548 
L 840.788617 84.26541 
L 841.18929 73.087239 
L 842.391312 70.076476 
L 842.791985 70.525164 
L 843.192659 93.901247 
L 843.593333 107.179313 
L 843.994006 98.277426 
L 845.196028 109.543406 
L 845.596701 114.659967 
L 846.398049 148.167589 
L 846.798723 151.262733 
L 848.000744 153.115564 
L 848.401417 166.597283 
L 848.802091 143.153399 
L 849.202765 162.428537 
L 849.603439 172.733693 
L 850.80546 187.090516 
L 851.206134 183.383113 
L 851.606807 166.605793 
L 852.408155 144.935133 
L 853.610176 143.561484 
L 854.01085 119.140788 
L 854.411523 115.19241 
L 854.812197 109.872166 
L 855.212871 107.858117 
L 856.414892 109.364275 
L 856.815566 114.835011 
L 857.21624 103.54494 
L 857.616913 113.072605 
L 858.017587 62.068813 
L 859.219608 48.372273 
L 859.620282 49.640039 
L 860.020956 65.367107 
L 860.421629 64.774422 
L 860.822303 73.329985 
L 862.825672 130.02338 
L 863.226345 136.329721 
L 863.627019 148.085219 
L 864.82904 147.121843 
L 865.229714 152.759192 
L 865.630388 140.451667 
L 866.031062 133.616299 
L 866.431735 145.452092 
L 867.633756 163.79906 
L 868.03443 165.63418 
L 868.835778 129.160657 
L 869.236451 128.839123 
L 870.438473 114.922535 
L 870.839146 105.266572 
L 871.23982 113.315115 
L 871.640494 103.939323 
L 872.041168 103.478482 
L 873.243189 89.119423 
L 873.643862 117.49397 
L 874.044536 116.436631 
L 874.44521 118.750966 
L 874.845884 96.585804 
L 876.047905 114.314668 
L 876.448579 113.922747 
L 876.849252 124.739303 
L 877.249926 124.245727 
L 877.6506 123.540082 
L 878.852621 116.261658 
L 879.253295 107.706218 
L 879.653968 116.113894 
L 880.054642 115.894821 
L 880.455316 121.387661 
L 881.657337 95.038707 
L 882.058011 98.745288 
L 882.458684 112.790764 
L 882.859358 116.097427 
L 883.260032 95.551286 
L 884.462053 100.385589 
L 885.664074 131.850329 
L 886.064748 153.994967 
L 887.266769 167.566291 
L 887.667443 156.109246 
L 888.068117 159.559087 
L 888.46879 151.166494 
L 888.869464 158.188368 
L 890.071485 162.649625 
L 890.472159 150.589191 
L 890.872833 145.925146 
L 891.273506 136.64773 
L 891.67418 153.228416 
L 892.876201 142.724585 
L 893.276875 131.8541 
L 893.677549 113.984999 
L 894.478896 93.159875 
L 895.680918 89.251579 
L 896.081591 80.696863 
L 896.482265 92.442531 
L 897.283612 84.761306 
L 898.485634 63.344549 
L 898.886307 59.641115 
L 899.286981 60.219038 
L 899.687655 64.102728 
L 900.088329 39.677208 
L 901.29035 39.331861 
L 901.691023 39.06 
L 902.091697 50.077881 
L 902.492371 45.259849 
L 902.893045 46.000344 
L 904.095066 46.06017 
L 904.49574 45.895205 
L 904.896413 80.44121 
L 905.297087 81.663285 
L 905.697761 77.42533 
L 906.899782 81.361385 
L 907.300456 76.969046 
L 908.101803 75.771152 
L 908.502477 90.021225 
L 911.307193 138.248042 
L 912.509214 134.240096 
L 912.909888 148.152072 
L 913.310562 154.28853 
L 914.111909 155.043245 
L 915.31393 164.942997 
L 915.714604 184.902505 
L 916.115278 169.686194 
L 916.515951 189.720133 
L 916.916625 186.624611 
L 918.51932 189.360658 
L 918.919994 183.136681 
L 919.320668 181.794763 
L 919.721341 176.193865 
L 920.923362 153.929466 
L 921.324036 138.547106 
L 921.72471 131.836873 
L 922.125384 135.736233 
L 922.526057 128.282124 
L 923.728079 137.748515 
L 924.128752 127.419034 
L 924.529426 136.129659 
L 924.9301 116.204938 
L 925.330773 131.189001 
L 926.933468 107.855504 
L 927.734816 92.957133 
L 928.13549 97.903972 
L 929.738184 111.749202 
L 930.138858 113.127852 
L 930.539532 106.33921 
L 930.940206 102.417983 
L 932.142227 69.284484 
L 932.542901 76.201626 
L 932.943574 103.650856 
L 933.344248 115.18753 
L 933.744922 87.313033 
L 934.946943 101.009535 
L 936.148964 148.226832 
L 936.549638 145.431517 
L 938.95368 187.910121 
L 939.354354 181.80434 
L 940.556375 180.4497 
L 940.957049 176.280906 
L 941.357723 166.601298 
L 941.758396 180.381164 
L 942.15907 164.641053 
L 943.361091 155.659086 
L 943.761765 148.296261 
L 944.162439 150.735275 
L 944.563112 153.928353 
L 946.566481 112.628471 
L 946.967155 88.61418 
L 947.367829 145.303801 
L 947.768502 163.104856 
L 948.970523 167.638557 
L 949.371197 178.221278 
L 949.771871 140.54221 
L 950.172545 151.032129 
L 950.573218 145.498001 
L 951.77524 144.162008 
L 952.175913 142.903597 
L 952.576587 150.291101 
L 952.977261 143.835761 
L 954.579956 150.538772 
L 954.980629 145.098125 
L 955.381303 141.316334 
L 956.182651 105.506175 
L 957.384672 95.637948 
L 957.785346 80.522493 
L 958.186019 102.944633 
L 958.586693 80.459064 
L 958.987367 112.191862 
L 960.189388 133.611457 
L 960.590062 133.61143 
L 960.990735 122.345079 
L 961.391409 125.493071 
L 961.792083 113.744626 
L 962.994104 103.006802 
L 963.394778 107.534015 
L 963.795451 116.479298 
L 964.196125 120.767629 
L 964.596799 123.228779 
L 965.79882 131.712927 
L 966.199494 139.080026 
L 966.600168 149.810356 
L 967.000841 136.025664 
L 967.401515 135.195734 
L 969.00421 122.188599 
L 969.404884 116.071922 
L 969.805557 120.021096 
L 970.206231 120.336051 
L 971.408252 158.372185 
L 971.808926 161.084849 
L 972.2096 160.742241 
L 972.610273 163.609106 
L 973.010947 149.198464 
L 974.212968 149.175016 
L 974.613642 139.819405 
L 975.014316 137.363851 
L 975.41499 133.711926 
L 975.815663 122.268176 
L 977.017684 134.133426 
L 977.418358 144.615341 
L 977.819032 139.080218 
L 978.620379 126.149911 
L 979.822401 127.294345 
L 980.223074 136.525495 
L 981.024422 125.368644 
L 981.425096 137.650551 
L 982.627117 113.106933 
L 983.02779 108.879477 
L 983.428464 80.754016 
L 983.829138 79.58596 
L 985.431833 83.636405 
L 985.832507 87.190202 
L 986.23318 70.562598 
L 986.633854 70.080572 
L 987.034528 85.416358 
L 988.236549 100.068343 
L 988.637223 92.817381 
L 989.037896 93.340553 
L 989.839244 88.558828 
L 991.441939 97.794433 
L 991.842612 117.24482 
L 992.243286 125.433479 
L 992.64396 98.114824 
L 993.845981 97.561186 
L 994.647329 146.834454 
L 995.048002 147.906988 
L 995.448676 158.357298 
L 996.650697 155.183031 
L 997.051371 163.719064 
L 997.452045 115.965294 
L 998.253392 88.851299 
L 999.455413 97.429311 
L 999.856087 93.090635 
L 1000.256761 87.324683 
L 1000.657435 88.992584 
L 1001.058108 92.391034 
L 1002.260129 86.707777 
L 1002.660803 81.090645 
L 1003.061477 90.008126 
L 1003.462151 77.912772 
L 1003.862824 76.023622 
L 1005.064846 76.558597 
L 1005.866193 95.465652 
L 1006.266867 113.652794 
L 1006.66754 106.918318 
L 1008.270235 126.358106 
L 1008.670909 109.754682 
L 1008.670909 109.754682 
" clip-path="url(#p65503e31f6)" style="fill: none; stroke: #1f77b4; stroke-width: 1.5; stroke-linecap: square"/>
   </g>
   <g id="patch_3">
    <path d="M 145.8 224.28 
L 145.8 30.24 
" style="fill: none; stroke: #000000; stroke-width: 0.8; stroke-linejoin: miter; stroke-linecap: square"/>
   </g>
   <g id="patch_4">
    <path d="M 145.8 224.28 
L 1049.76 224.28 
" style="fill: none; stroke: #000000; stroke-width: 0.8; stroke-linejoin: miter; stroke-linecap: square"/>
   </g>
  </g>
 </g>
 <defs>
  <clipPath id="p65503e31f6">
   <rect x="145.8" y="30.24" width="903.96" height="194.04"/>
  </clipPath>
 </defs>
</svg>
