<?xml version="1.0" encoding="utf-8" standalone="no"?>
<!DOCTYPE svg PUBLIC "-//W3C//DTD SVG 1.1//EN"
  "http://www.w3.org/Graphics/SVG/1.1/DTD/svg11.dtd">
<svg xmlns:xlink="http://www.w3.org/1999/xlink" width="1166.4pt" height="252pt" viewBox="0 0 1166.4 252" xmlns="http://www.w3.org/2000/svg" version="1.1">
 <metadata>
  <rdf:RDF xmlns:dc="http://purl.org/dc/elements/1.1/" xmlns:cc="http://creativecommons.org/ns#" xmlns:rdf="http://www.w3.org/1999/02/22-rdf-syntax-ns#">
   <cc:Work>
    <dc:type rdf:resource="http://purl.org/dc/dcmitype/StillImage"/>
    <dc:date>2025-09-06T14:16:06.766411</dc:date>
    <dc:format>image/svg+xml</dc:format>
    <dc:creator>
     <cc:Agent>
      <dc:title>Matplotlib v3.10.5, https://matplotlib.org/</dc:title>
     </cc:Agent>
    </dc:creator>
   </cc:Work>
  </rdf:RDF>
 </metadata>
 <defs>
  <style type="text/css">*{stroke-linejoin: round; stroke-linecap: butt}</style>
 </defs>
 <g id="figure_1">
  <g id="patch_1">
   <path d="M 0 252 
L 1166.4 252 
L 1166.4 0 
L 0 0 
z
" style="fill: #ffffff"/>
  </g>
  <g id="axes_1">
   <g id="patch_2">
    <path d="M 145.8 224.28 
L 1049.76 224.28 
L 1049.76 30.24 
L 145.8 30.24 
z
" style="fill: #ffffff"/>
   </g>
   <g id="matplotlib.axis_1">
    <g id="xtick_1">
     <g id="line2d_1">
      <defs>
       <path id="md0be07c4a4" d="M 0 0 
L 0 3.5 
" style="stroke: #000000; stroke-width: 0.8"/>
      </defs>
      <g>
       <use xlink:href="#md0be07c4a4" x="178.474943" y="224.28" style="stroke: #000000; stroke-width: 0.8"/>
      </g>
     </g>
     <g id="text_1">
      <!-- 2020 -->
      <g transform="translate(165.749943 238.878438) scale(0.1 -0.1)">
       <defs>
        <path id="DejaVuSans-32" d="M 1228 531 
L 3431 531 
L 3431 0 
L 469 0 
L 469 531 
Q 828 903 1448 1529 
Q 2069 2156 2228 2338 
Q 2531 2678 2651 2914 
Q 2772 3150 2772 3378 
Q 2772 3750 2511 3984 
Q 2250 4219 1831 4219 
Q 1534 4219 1204 4116 
Q 875 4013 500 3803 
L 500 4441 
Q 881 4594 1212 4672 
Q 1544 4750 1819 4750 
Q 2544 4750 2975 4387 
Q 3406 4025 3406 3419 
Q 3406 3131 3298 2873 
Q 3191 2616 2906 2266 
Q 2828 2175 2409 1742 
Q 1991 1309 1228 531 
z
" transform="scale(0.015625)"/>
        <path id="DejaVuSans-30" d="M 2034 4250 
Q 1547 4250 1301 3770 
Q 1056 3291 1056 2328 
Q 1056 1369 1301 889 
Q 1547 409 2034 409 
Q 2525 409 2770 889 
Q 3016 1369 3016 2328 
Q 3016 3291 2770 3770 
Q 2525 4250 2034 4250 
z
M 2034 4750 
Q 2819 4750 3233 4129 
Q 3647 3509 3647 2328 
Q 3647 1150 3233 529 
Q 2819 -91 2034 -91 
Q 1250 -91 836 529 
Q 422 1150 422 2328 
Q 422 3509 836 4129 
Q 1250 4750 2034 4750 
z
" transform="scale(0.015625)"/>
       </defs>
       <use xlink:href="#DejaVuSans-32"/>
       <use xlink:href="#DejaVuSans-30" transform="translate(63.623047 0)"/>
       <use xlink:href="#DejaVuSans-32" transform="translate(127.246094 0)"/>
       <use xlink:href="#DejaVuSans-30" transform="translate(190.869141 0)"/>
      </g>
     </g>
    </g>
    <g id="xtick_2">
     <g id="line2d_2">
      <g>
       <use xlink:href="#md0be07c4a4" x="325.121527" y="224.28" style="stroke: #000000; stroke-width: 0.8"/>
      </g>
     </g>
     <g id="text_2">
      <!-- 2021 -->
      <g transform="translate(312.396527 238.878438) scale(0.1 -0.1)">
       <defs>
        <path id="DejaVuSans-31" d="M 794 531 
L 1825 531 
L 1825 4091 
L 703 3866 
L 703 4441 
L 1819 4666 
L 2450 4666 
L 2450 531 
L 3481 531 
L 3481 0 
L 794 0 
L 794 531 
z
" transform="scale(0.015625)"/>
       </defs>
       <use xlink:href="#DejaVuSans-32"/>
       <use xlink:href="#DejaVuSans-30" transform="translate(63.623047 0)"/>
       <use xlink:href="#DejaVuSans-32" transform="translate(127.246094 0)"/>
       <use xlink:href="#DejaVuSans-31" transform="translate(190.869141 0)"/>
      </g>
     </g>
    </g>
    <g id="xtick_3">
     <g id="line2d_3">
      <g>
       <use xlink:href="#md0be07c4a4" x="471.367439" y="224.28" style="stroke: #000000; stroke-width: 0.8"/>
      </g>
     </g>
     <g id="text_3">
      <!-- 2022 -->
      <g transform="translate(458.642439 238.878438) scale(0.1 -0.1)">
       <use xlink:href="#DejaVuSans-32"/>
       <use xlink:href="#DejaVuSans-30" transform="translate(63.623047 0)"/>
       <use xlink:href="#DejaVuSans-32" transform="translate(127.246094 0)"/>
       <use xlink:href="#DejaVuSans-32" transform="translate(190.869141 0)"/>
      </g>
     </g>
    </g>
    <g id="xtick_4">
     <g id="line2d_4">
      <g>
       <use xlink:href="#md0be07c4a4" x="617.61335" y="224.28" style="stroke: #000000; stroke-width: 0.8"/>
      </g>
     </g>
     <g id="text_4">
      <!-- 2023 -->
      <g transform="translate(604.88835 238.878438) scale(0.1 -0.1)">
       <defs>
        <path id="DejaVuSans-33" d="M 2597 2516 
Q 3050 2419 3304 2112 
Q 3559 1806 3559 1356 
Q 3559 666 3084 287 
Q 2609 -91 1734 -91 
Q 1441 -91 1130 -33 
Q 819 25 488 141 
L 488 750 
Q 750 597 1062 519 
Q 1375 441 1716 441 
Q 2309 441 2620 675 
Q 2931 909 2931 1356 
Q 2931 1769 2642 2001 
Q 2353 2234 1838 2234 
L 1294 2234 
L 1294 2753 
L 1863 2753 
Q 2328 2753 2575 2939 
Q 2822 3125 2822 3475 
Q 2822 3834 2567 4026 
Q 2313 4219 1838 4219 
Q 1578 4219 1281 4162 
Q 984 4106 628 3988 
L 628 4550 
Q 988 4650 1302 4700 
Q 1616 4750 1894 4750 
Q 2613 4750 3031 4423 
Q 3450 4097 3450 3541 
Q 3450 3153 3228 2886 
Q 3006 2619 2597 2516 
z
" transform="scale(0.015625)"/>
       </defs>
       <use xlink:href="#DejaVuSans-32"/>
       <use xlink:href="#DejaVuSans-30" transform="translate(63.623047 0)"/>
       <use xlink:href="#DejaVuSans-32" transform="translate(127.246094 0)"/>
       <use xlink:href="#DejaVuSans-33" transform="translate(190.869141 0)"/>
      </g>
     </g>
    </g>
    <g id="xtick_5">
     <g id="line2d_5">
      <g>
       <use xlink:href="#md0be07c4a4" x="763.859261" y="224.28" style="stroke: #000000; stroke-width: 0.8"/>
      </g>
     </g>
     <g id="text_5">
      <!-- 2024 -->
      <g transform="translate(751.134261 238.878438) scale(0.1 -0.1)">
       <defs>
        <path id="DejaVuSans-34" d="M 2419 4116 
L 825 1625 
L 2419 1625 
L 2419 4116 
z
M 2253 4666 
L 3047 4666 
L 3047 1625 
L 3713 1625 
L 3713 1100 
L 3047 1100 
L 3047 0 
L 2419 0 
L 2419 1100 
L 313 1100 
L 313 1709 
L 2253 4666 
z
" transform="scale(0.015625)"/>
       </defs>
       <use xlink:href="#DejaVuSans-32"/>
       <use xlink:href="#DejaVuSans-30" transform="translate(63.623047 0)"/>
       <use xlink:href="#DejaVuSans-32" transform="translate(127.246094 0)"/>
       <use xlink:href="#DejaVuSans-34" transform="translate(190.869141 0)"/>
      </g>
     </g>
    </g>
    <g id="xtick_6">
     <g id="line2d_6">
      <g>
       <use xlink:href="#md0be07c4a4" x="910.505845" y="224.28" style="stroke: #000000; stroke-width: 0.8"/>
      </g>
     </g>
     <g id="text_6">
      <!-- 2025 -->
      <g transform="translate(897.780845 238.878438) scale(0.1 -0.1)">
       <defs>
        <path id="DejaVuSans-35" d="M 691 4666 
L 3169 4666 
L 3169 4134 
L 1269 4134 
L 1269 2991 
Q 1406 3038 1543 3061 
Q 1681 3084 1819 3084 
Q 2600 3084 3056 2656 
Q 3513 2228 3513 1497 
Q 3513 744 3044 326 
Q 2575 -91 1722 -91 
Q 1428 -91 1123 -41 
Q 819 9 494 109 
L 494 744 
Q 775 591 1075 516 
Q 1375 441 1709 441 
Q 2250 441 2565 725 
Q 2881 1009 2881 1497 
Q 2881 1984 2565 2268 
Q 2250 2553 1709 2553 
Q 1456 2553 1204 2497 
Q 953 2441 691 2322 
L 691 4666 
z
" transform="scale(0.015625)"/>
       </defs>
       <use xlink:href="#DejaVuSans-32"/>
       <use xlink:href="#DejaVuSans-30" transform="translate(63.623047 0)"/>
       <use xlink:href="#DejaVuSans-32" transform="translate(127.246094 0)"/>
       <use xlink:href="#DejaVuSans-35" transform="translate(190.869141 0)"/>
      </g>
     </g>
    </g>
   </g>
   <g id="matplotlib.axis_2">
    <g id="ytick_1">
     <g id="line2d_7">
      <defs>
       <path id="m4f0d77ae0d" d="M 0 0 
L -3.5 0 
" style="stroke: #000000; stroke-width: 0.8"/>
      </defs>
      <g>
       <use xlink:href="#m4f0d77ae0d" x="145.8" y="221.493076" style="stroke: #000000; stroke-width: 0.8"/>
      </g>
     </g>
     <g id="text_7">
      <!-- 0 -->
      <g transform="translate(132.4375 225.292295) scale(0.1 -0.1)">
       <use xlink:href="#DejaVuSans-30"/>
      </g>
     </g>
    </g>
    <g id="ytick_2">
     <g id="line2d_8">
      <g>
       <use xlink:href="#m4f0d77ae0d" x="145.8" y="183.550602" style="stroke: #000000; stroke-width: 0.8"/>
      </g>
     </g>
     <g id="text_8">
      <!-- 20 -->
      <g transform="translate(126.075 187.349821) scale(0.1 -0.1)">
       <use xlink:href="#DejaVuSans-32"/>
       <use xlink:href="#DejaVuSans-30" transform="translate(63.623047 0)"/>
      </g>
     </g>
    </g>
    <g id="ytick_3">
     <g id="line2d_9">
      <g>
       <use xlink:href="#m4f0d77ae0d" x="145.8" y="145.608128" style="stroke: #000000; stroke-width: 0.8"/>
      </g>
     </g>
     <g id="text_9">
      <!-- 40 -->
      <g transform="translate(126.075 149.407346) scale(0.1 -0.1)">
       <use xlink:href="#DejaVuSans-34"/>
       <use xlink:href="#DejaVuSans-30" transform="translate(63.623047 0)"/>
      </g>
     </g>
    </g>
    <g id="ytick_4">
     <g id="line2d_10">
      <g>
       <use xlink:href="#m4f0d77ae0d" x="145.8" y="107.665653" style="stroke: #000000; stroke-width: 0.8"/>
      </g>
     </g>
     <g id="text_10">
      <!-- 60 -->
      <g transform="translate(126.075 111.464872) scale(0.1 -0.1)">
       <defs>
        <path id="DejaVuSans-36" d="M 2113 2584 
Q 1688 2584 1439 2293 
Q 1191 2003 1191 1497 
Q 1191 994 1439 701 
Q 1688 409 2113 409 
Q 2538 409 2786 701 
Q 3034 994 3034 1497 
Q 3034 2003 2786 2293 
Q 2538 2584 2113 2584 
z
M 3366 4563 
L 3366 3988 
Q 3128 4100 2886 4159 
Q 2644 4219 2406 4219 
Q 1781 4219 1451 3797 
Q 1122 3375 1075 2522 
Q 1259 2794 1537 2939 
Q 1816 3084 2150 3084 
Q 2853 3084 3261 2657 
Q 3669 2231 3669 1497 
Q 3669 778 3244 343 
Q 2819 -91 2113 -91 
Q 1303 -91 875 529 
Q 447 1150 447 2328 
Q 447 3434 972 4092 
Q 1497 4750 2381 4750 
Q 2619 4750 2861 4703 
Q 3103 4656 3366 4563 
z
" transform="scale(0.015625)"/>
       </defs>
       <use xlink:href="#DejaVuSans-36"/>
       <use xlink:href="#DejaVuSans-30" transform="translate(63.623047 0)"/>
      </g>
     </g>
    </g>
    <g id="ytick_5">
     <g id="line2d_11">
      <g>
       <use xlink:href="#m4f0d77ae0d" x="145.8" y="69.723179" style="stroke: #000000; stroke-width: 0.8"/>
      </g>
     </g>
     <g id="text_11">
      <!-- 80 -->
      <g transform="translate(126.075 73.522398) scale(0.1 -0.1)">
       <defs>
        <path id="DejaVuSans-38" d="M 2034 2216 
Q 1584 2216 1326 1975 
Q 1069 1734 1069 1313 
Q 1069 891 1326 650 
Q 1584 409 2034 409 
Q 2484 409 2743 651 
Q 3003 894 3003 1313 
Q 3003 1734 2745 1975 
Q 2488 2216 2034 2216 
z
M 1403 2484 
Q 997 2584 770 2862 
Q 544 3141 544 3541 
Q 544 4100 942 4425 
Q 1341 4750 2034 4750 
Q 2731 4750 3128 4425 
Q 3525 4100 3525 3541 
Q 3525 3141 3298 2862 
Q 3072 2584 2669 2484 
Q 3125 2378 3379 2068 
Q 3634 1759 3634 1313 
Q 3634 634 3220 271 
Q 2806 -91 2034 -91 
Q 1263 -91 848 271 
Q 434 634 434 1313 
Q 434 1759 690 2068 
Q 947 2378 1403 2484 
z
M 1172 3481 
Q 1172 3119 1398 2916 
Q 1625 2713 2034 2713 
Q 2441 2713 2670 2916 
Q 2900 3119 2900 3481 
Q 2900 3844 2670 4047 
Q 2441 4250 2034 4250 
Q 1625 4250 1398 4047 
Q 1172 3844 1172 3481 
z
" transform="scale(0.015625)"/>
       </defs>
       <use xlink:href="#DejaVuSans-38"/>
       <use xlink:href="#DejaVuSans-30" transform="translate(63.623047 0)"/>
      </g>
     </g>
    </g>
    <g id="ytick_6">
     <g id="line2d_12">
      <g>
       <use xlink:href="#m4f0d77ae0d" x="145.8" y="31.780705" style="stroke: #000000; stroke-width: 0.8"/>
      </g>
     </g>
     <g id="text_12">
      <!-- 100 -->
      <g transform="translate(119.7125 35.579923) scale(0.1 -0.1)">
       <use xlink:href="#DejaVuSans-31"/>
       <use xlink:href="#DejaVuSans-30" transform="translate(63.623047 0)"/>
       <use xlink:href="#DejaVuSans-30" transform="translate(127.246094 0)"/>
      </g>
     </g>
    </g>
   </g>
   <g id="line2d_13">
    <path d="M 186.889091 87.046971 
L 187.289765 85.085092 
L 187.690438 78.44739 
L 188.89246 108.58889 
L 189.293133 93.60329 
L 189.693807 91.606198 
L 190.094481 100.306784 
L 190.495154 127.834196 
L 191.697176 139.940538 
L 192.097849 117.645479 
L 192.498523 112.183376 
L 192.899197 112.35347 
L 193.299871 123.727181 
L 194.501892 118.445396 
L 194.902565 122.876914 
L 195.303239 115.333197 
L 195.703913 117.341698 
L 196.104587 102.36105 
L 197.707282 123.5126 
L 198.107955 126.561901 
L 198.508629 130.827906 
L 198.909303 119.446694 
L 200.111324 139.774408 
L 200.511998 167.121852 
L 200.912671 163.42267 
L 201.313345 181.72422 
L 201.714019 179.698347 
L 202.91604 146.728418 
L 203.316714 151.640691 
L 203.717388 145.853232 
L 204.118061 150.271393 
L 204.518735 152.441449 
L 205.720756 160.280696 
L 206.12143 148.845481 
L 206.522104 151.660094 
L 206.922777 158.991069 
L 207.323451 135.992436 
L 208.525472 145.50775 
L 208.926146 142.585917 
L 209.32682 138.021668 
L 209.727493 138.662216 
L 210.128167 157.255113 
L 211.330188 155.847986 
L 211.730862 150.721708 
L 212.131536 147.891419 
L 212.53221 139.792101 
L 212.932883 135.025162 
L 214.134904 141.388818 
L 214.535578 137.364787 
L 214.936252 130.648097 
L 215.336926 147.902007 
L 215.737599 127.295941 
L 217.340294 116.748239 
L 217.740968 110.754215 
L 218.141642 94.26057 
L 219.744337 85.936578 
L 220.14501 90.419997 
L 220.545684 91.971112 
L 220.946358 98.668075 
L 221.347032 89.269832 
L 222.549053 102.739082 
L 222.949727 112.701341 
L 223.3504 89.626178 
L 223.751074 93.908917 
L 224.151748 83.627556 
L 225.353769 98.903252 
L 225.754443 101.529833 
L 226.155116 99.191086 
L 226.55579 95.65045 
L 226.956464 107.515771 
L 228.158485 118.209199 
L 228.559159 108.98318 
L 228.959832 108.106893 
L 229.360506 98.494431 
L 229.76118 81.753846 
L 230.963201 60.651827 
L 231.363875 73.180935 
L 232.165222 83.882235 
L 232.565896 88.093172 
L 233.767917 72.404573 
L 234.168591 83.54289 
L 234.569265 83.510142 
L 234.969938 77.682905 
L 235.370612 79.438824 
L 237.373981 91.508028 
L 237.774654 95.317773 
L 238.175328 107.895895 
L 239.377349 109.810677 
L 240.178697 78.561974 
L 240.579371 92.373212 
L 240.980044 73.825515 
L 242.182066 79.766125 
L 242.582739 63.228651 
L 242.983413 61.454106 
L 243.384087 98.166591 
L 243.78476 97.279183 
L 244.986782 89.100337 
L 245.387455 83.13396 
L 245.788129 84.141562 
L 246.188803 83.469434 
L 246.589477 90.097466 
L 247.791498 84.514299 
L 248.192171 80.904186 
L 248.592845 86.664993 
L 248.993519 89.500926 
L 249.394193 106.371509 
L 250.596214 108.300602 
L 250.996888 113.475824 
L 251.397561 88.382524 
L 251.798235 90.830593 
L 253.40093 86.316528 
L 253.801604 96.406596 
L 254.202277 87.866327 
L 254.602951 86.735005 
L 255.003625 82.521167 
L 256.205646 93.341476 
L 256.60632 94.624573 
L 257.006993 78.283565 
L 257.407667 93.336001 
L 257.808341 66.655387 
L 259.010362 66.676271 
L 259.411036 84.70299 
L 259.81171 81.827251 
L 260.212383 116.867567 
L 260.613057 131.842818 
L 261.815078 117.683018 
L 262.215752 138.483325 
L 262.616426 130.368345 
L 263.017099 125.295553 
L 263.417773 91.027565 
L 264.619794 88.847013 
L 265.020468 88.732376 
L 265.821816 75.686438 
L 266.222489 89.710609 
L 267.42451 81.58243 
L 267.825184 94.782443 
L 268.225858 72.728069 
L 268.626532 69.637116 
L 269.027205 72.415454 
L 270.229227 66.946759 
L 271.030574 68.937187 
L 271.431248 80.111723 
L 271.831921 74.268819 
L 273.033943 73.156135 
L 273.434616 78.864684 
L 273.83529 82.511805 
L 274.235964 76.886366 
L 274.636638 80.957693 
L 275.838659 54.796109 
L 276.239332 53.535141 
L 276.640006 71.603635 
L 277.04068 111.985642 
L 277.441354 110.964243 
L 279.044049 132.337719 
L 279.444722 123.577049 
L 279.845396 135.493269 
L 280.24607 151.792249 
L 281.448091 147.160454 
L 281.848765 145.114559 
L 282.249438 154.285447 
L 282.650112 154.66106 
L 283.050786 158.822891 
L 284.252807 161.249456 
L 284.653481 170.342999 
L 285.054155 172.279099 
L 285.454828 155.897988 
L 285.855502 144.925439 
L 287.057523 121.505634 
L 287.458197 135.164146 
L 287.858871 120.129861 
L 288.259544 112.996486 
L 288.660218 133.219409 
L 289.862239 124.177133 
L 290.262913 123.992684 
L 291.06426 103.746339 
L 291.464934 106.496392 
L 292.666955 95.333064 
L 293.067629 90.562547 
L 293.468303 92.223266 
L 293.868977 101.780244 
L 294.26965 114.285479 
L 295.471671 121.261187 
L 295.872345 121.773994 
L 296.273019 126.405689 
L 296.673693 118.053631 
L 297.074366 131.691262 
L 298.276388 119.188708 
L 298.677061 120.553207 
L 299.077735 138.972445 
L 299.478409 131.667809 
L 299.879082 175.544232 
L 301.081104 170.067166 
L 301.481777 162.403533 
L 302.283125 126.609733 
L 302.683799 118.003518 
L 303.88582 129.491832 
L 304.286494 128.674702 
L 304.687167 115.937799 
L 305.087841 114.6258 
L 305.488515 114.529881 
L 306.690536 115.763506 
L 307.09121 99.731011 
L 307.491883 116.340524 
L 307.892557 81.521789 
L 309.495252 112.40182 
L 309.895926 124.731382 
L 310.296599 141.704934 
L 311.097947 137.6912 
L 312.299968 112.337739 
L 312.700642 96.759085 
L 313.101316 107.997862 
L 313.501989 107.121461 
L 313.902663 111.526554 
L 315.104684 109.619062 
L 315.505358 101.658976 
L 315.906032 109.018841 
L 316.707379 103.25701 
L 317.9094 84.163258 
L 318.310074 73.029988 
L 318.710748 75.143648 
L 319.111421 74.494063 
L 319.512095 93.233088 
L 320.714116 99.847734 
L 321.11479 90.025767 
L 321.515464 94.374583 
L 321.916138 88.05935 
L 323.518832 81.377244 
L 323.919506 91.488829 
L 324.32018 84.470708 
L 324.720854 92.721237 
L 326.323549 103.645585 
L 326.724222 97.306125 
L 327.124896 130.948486 
L 327.52557 117.534709 
L 327.926244 116.904294 
L 329.128265 120.102946 
L 329.929612 129.692704 
L 330.330286 132.753668 
L 330.73096 140.712263 
L 332.333655 156.104784 
L 333.135002 117.998695 
L 333.535676 109.713489 
L 334.737697 91.362846 
L 335.138371 93.680037 
L 335.539044 80.317386 
L 335.939718 108.522903 
L 336.340392 126.87212 
L 337.542413 112.818231 
L 337.943087 110.367611 
L 338.34376 118.3828 
L 338.744434 104.611331 
L 339.145108 100.14418 
L 340.347129 101.209542 
L 340.747803 113.974477 
L 341.148477 131.10604 
L 341.54915 140.719322 
L 341.949824 158.950594 
L 343.552519 166.056207 
L 343.953193 168.862188 
L 344.353866 159.209043 
L 344.75454 137.906556 
L 345.956561 169.363333 
L 346.357235 176.69699 
L 346.757909 175.22426 
L 347.158583 215.46 
L 347.559256 212.416645 
L 348.761277 163.417868 
L 349.963299 175.0329 
L 350.363972 170.093078 
L 351.565994 174.534519 
L 351.966667 152.53563 
L 352.367341 152.497065 
L 353.168688 140.273938 
L 354.37071 131.380899 
L 354.771383 126.094322 
L 355.172057 116.393143 
L 355.572731 128.418358 
L 355.973405 149.139236 
L 357.576099 125.186895 
L 357.976773 126.755774 
L 358.377447 129.166031 
L 358.778121 109.400018 
L 359.980142 125.351647 
L 360.380816 126.973839 
L 360.781489 125.846118 
L 361.182163 118.408523 
L 362.784858 118.637958 
L 363.185532 123.797397 
L 363.586205 113.25642 
L 363.986879 81.129998 
L 364.387553 72.007393 
L 365.589574 91.094148 
L 365.990248 78.210944 
L 366.390922 77.90284 
L 366.791595 74.298609 
L 367.192269 77.363541 
L 368.39429 76.467336 
L 368.794964 77.823388 
L 369.195638 81.420045 
L 369.596311 92.052492 
L 369.996985 93.358401 
L 371.199006 93.128341 
L 371.59968 99.553151 
L 372.401027 124.181214 
L 372.801701 125.526857 
L 374.003722 137.378393 
L 374.404396 147.527066 
L 374.80507 162.858763 
L 375.205744 149.851927 
L 375.606417 149.778676 
L 376.808438 155.731044 
L 377.609786 165.551814 
L 378.01046 166.639867 
L 378.411133 154.80612 
L 379.613155 157.115456 
L 380.013828 158.678963 
L 380.414502 158.828701 
L 380.815176 141.05452 
L 381.215849 151.153997 
L 382.417871 128.777567 
L 382.818544 130.590913 
L 383.619892 147.084777 
L 384.020566 137.166113 
L 385.62326 134.537622 
L 386.023934 114.015104 
L 386.424608 134.84291 
L 386.825282 135.659712 
L 388.027303 128.941246 
L 388.427977 114.39941 
L 388.82865 111.082484 
L 389.229324 135.208222 
L 389.629998 112.228334 
L 390.832019 103.898115 
L 391.232693 109.004076 
L 391.633366 106.043366 
L 392.03404 86.197387 
L 392.434714 91.802784 
L 394.037409 80.50198 
L 394.438083 70.277652 
L 394.838756 79.208847 
L 395.23943 82.024403 
L 396.441451 79.443797 
L 396.842125 76.251525 
L 397.242799 65.846123 
L 397.643472 67.826178 
L 398.044146 68.845574 
L 400.047515 53.957491 
L 400.448188 67.96038 
L 400.848862 53.689741 
L 402.050883 61.696482 
L 402.451557 62.631274 
L 402.852231 55.183382 
L 403.252905 58.208302 
L 403.653578 71.095228 
L 404.855599 97.476676 
L 405.256273 92.26477 
L 405.656947 97.225381 
L 406.057621 94.705462 
L 406.458294 96.842867 
L 407.660316 100.96139 
L 408.060989 118.427528 
L 408.461663 120.259288 
L 408.862337 124.599153 
L 409.263011 121.323644 
L 410.465032 127.121586 
L 410.865705 134.422231 
L 411.266379 133.371597 
L 411.667053 123.389177 
L 412.067727 103.932273 
L 413.269748 125.448228 
L 413.670422 123.443477 
L 414.071095 132.703224 
L 414.471769 122.458598 
L 414.872443 124.073599 
L 416.475138 80.937967 
L 416.875811 120.473985 
L 417.276485 119.740975 
L 417.677159 109.197228 
L 418.87918 110.79246 
L 419.279854 108.446906 
L 419.680527 117.747903 
L 420.081201 118.509705 
L 420.481875 112.914408 
L 421.683896 93.273131 
L 422.485244 109.519384 
L 422.885917 106.074994 
L 423.286591 111.262778 
L 424.889286 97.388339 
L 425.28996 82.5591 
L 425.690633 90.841316 
L 426.091307 123.439464 
L 427.293328 127.32065 
L 427.694002 132.681288 
L 428.094676 123.896457 
L 428.495349 121.39279 
L 428.896023 136.559949 
L 430.098044 168.841405 
L 430.498718 162.723317 
L 430.899392 153.158492 
L 431.300066 153.979203 
L 431.700739 156.941377 
L 432.902761 174.874457 
L 433.303434 178.505027 
L 434.505455 158.073449 
L 435.707477 163.83376 
L 436.508824 152.808069 
L 437.310172 126.822423 
L 438.512193 129.571781 
L 438.912866 148.39551 
L 439.31354 156.92531 
L 439.714214 140.709814 
L 440.114888 129.050515 
L 441.316909 103.569331 
L 441.717583 99.023 
L 442.118256 88.966338 
L 442.51893 91.823886 
L 442.919604 69.628014 
L 444.121625 75.508495 
L 444.522299 76.175789 
L 444.922972 85.879516 
L 445.323646 70.25961 
L 445.72432 91.647489 
L 446.926341 88.41756 
L 447.327015 81.035906 
L 447.727688 84.904363 
L 448.128362 92.528497 
L 448.529036 97.009577 
L 449.731057 114.194683 
L 450.131731 114.938338 
L 450.532405 134.125128 
L 450.933078 130.155818 
L 451.333752 118.531117 
L 452.535773 121.816868 
L 452.936447 114.297287 
L 453.337121 120.251552 
L 453.737794 84.332355 
L 454.138468 71.804626 
L 455.340489 72.991875 
L 455.741163 75.359837 
L 456.141837 70.006356 
L 456.943184 104.172075 
L 458.145205 90.800728 
L 458.545879 81.763754 
L 458.946553 70.098887 
L 459.347227 75.071154 
L 459.7479 87.916719 
L 460.949922 81.92305 
L 461.350595 75.400308 
L 461.751269 73.813899 
L 462.151943 81.28751 
L 462.552616 78.340007 
L 464.155311 97.020149 
L 464.555985 90.698364 
L 464.956659 95.932348 
L 465.357333 103.873196 
L 466.559354 116.526391 
L 467.761375 96.076375 
L 469.36407 95.269018 
L 469.764744 107.675085 
L 470.165417 115.541148 
L 470.566091 117.409832 
L 470.966765 132.01463 
L 472.168786 109.087606 
L 472.56946 111.995448 
L 472.970133 138.644757 
L 473.370807 127.44601 
L 473.771481 123.328233 
L 474.973502 118.417769 
L 475.374176 119.508127 
L 475.77485 127.044393 
L 476.576197 154.029897 
L 478.178892 159.526545 
L 478.579566 167.070242 
L 478.980239 168.006402 
L 479.380913 170.39923 
L 480.582934 192.851399 
L 480.983608 192.38301 
L 481.384282 186.706181 
L 481.784955 182.76052 
L 482.185629 132.000707 
L 483.38765 119.991667 
L 483.788324 127.938688 
L 484.188998 125.797454 
L 484.589672 124.692176 
L 484.990345 127.919725 
L 486.192366 120.377438 
L 486.59304 99.731718 
L 486.993714 89.741179 
L 487.795061 107.357804 
L 488.997083 100.646292 
L 489.397756 93.230643 
L 489.79843 92.44669 
L 490.199104 130.520799 
L 490.599777 151.896222 
L 492.202472 158.401701 
L 492.603146 171.207172 
L 493.00382 155.365571 
L 493.404494 147.284113 
L 494.606515 144.78675 
L 495.007189 160.137671 
L 495.808536 144.65383 
L 496.20921 143.598829 
L 497.411231 153.192348 
L 497.811905 171.897752 
L 498.212578 150.958967 
L 498.613252 152.362389 
L 499.013926 156.143019 
L 500.215947 157.920693 
L 500.616621 137.948673 
L 501.017294 133.491539 
L 501.417968 136.07557 
L 501.818642 129.008252 
L 503.020663 122.04983 
L 503.421337 121.889817 
L 503.822011 118.468827 
L 504.623358 93.242367 
L 505.825379 86.408322 
L 506.226053 89.2962 
L 506.626727 77.852785 
L 507.0274 75.393979 
L 507.428074 58.52099 
L 508.630095 58.79947 
L 509.030769 80.096316 
L 509.431443 95.112028 
L 509.832116 101.407914 
L 510.23279 112.376628 
L 511.434811 135.672198 
L 511.835485 134.022551 
L 512.236159 137.643044 
L 512.636833 151.421878 
L 514.239528 154.828679 
L 514.640201 158.513104 
L 515.040875 156.588586 
L 515.441549 151.673081 
L 515.842222 160.222937 
L 517.444917 176.096533 
L 517.845591 171.843207 
L 518.246265 147.42817 
L 518.646939 154.259054 
L 519.84896 145.735687 
L 520.249633 146.896156 
L 520.650307 136.505522 
L 521.050981 144.114664 
L 521.451655 141.970476 
L 522.653676 155.511997 
L 523.05435 149.451406 
L 523.455023 158.234366 
L 523.855697 157.494127 
L 524.256371 150.457747 
L 525.458392 144.882048 
L 525.859066 137.711587 
L 526.259739 161.08532 
L 526.660413 158.5428 
L 527.061087 158.690905 
L 528.263108 150.704117 
L 528.663782 166.942008 
L 529.064455 156.585642 
L 529.465129 150.680341 
L 529.865803 130.89579 
L 531.468498 136.930382 
L 532.269845 107.524208 
L 532.670519 130.34869 
L 533.87254 125.325442 
L 534.273214 127.826244 
L 534.673888 107.062477 
L 535.074561 112.870488 
L 535.475235 127.682731 
L 536.677256 152.336234 
L 537.478604 138.108038 
L 538.279951 169.684109 
L 539.882646 155.017174 
L 540.28332 155.609897 
L 540.683994 154.432249 
L 541.084667 135.094938 
L 542.286689 137.011853 
L 542.687362 151.725643 
L 543.48871 140.386827 
L 543.889383 122.088698 
L 545.492078 100.342221 
L 545.892752 99.412558 
L 546.293426 97.99113 
L 546.6941 75.472431 
L 547.896121 87.366763 
L 548.296794 93.767924 
L 548.697468 93.099781 
L 549.098142 92.971855 
L 549.498816 96.79488 
L 550.700837 109.616101 
L 551.101511 83.560649 
L 551.502184 83.130778 
L 551.902858 67.553623 
L 552.303532 76.981149 
L 553.505553 87.306122 
L 553.906227 96.653014 
L 554.3069 92.745537 
L 554.707574 93.017962 
L 555.108248 74.477512 
L 556.310269 80.376121 
L 556.710943 85.17654 
L 557.111617 80.565295 
L 557.51229 84.225339 
L 557.912964 71.957909 
L 559.114985 79.974912 
L 559.515659 83.570645 
L 559.916333 79.931105 
L 560.317006 77.374201 
L 560.71768 66.637322 
L 561.919701 58.507624 
L 562.320375 65.005863 
L 562.721049 63.791677 
L 563.522396 84.737667 
L 564.724417 97.826073 
L 565.125091 120.279024 
L 565.525765 117.309157 
L 565.926439 106.54987 
L 566.327112 130.867012 
L 567.529133 137.748443 
L 567.929807 161.175748 
L 568.330481 163.110169 
L 568.731155 177.365569 
L 569.131828 186.585919 
L 570.734523 187.951943 
L 571.135197 188.444632 
L 571.535871 189.671518 
L 571.936544 171.512094 
L 573.138566 138.901198 
L 573.539239 157.4129 
L 573.939913 153.949405 
L 574.340587 165.703137 
L 574.741261 158.769624 
L 575.943282 143.131606 
L 576.343955 131.447906 
L 577.145303 138.608607 
L 577.545977 138.927922 
L 578.747998 135.425952 
L 579.549345 137.441605 
L 580.350693 181.99712 
L 581.953388 148.439385 
L 582.354061 141.766249 
L 582.754735 140.246822 
L 583.155409 162.285394 
L 584.35743 169.82016 
L 584.758104 167.21105 
L 585.158778 166.670136 
L 585.559451 145.993326 
L 585.960125 155.492036 
L 587.162146 146.89979 
L 587.56282 140.012102 
L 587.963494 122.994625 
L 588.364167 111.31467 
L 588.764841 112.241174 
L 589.966862 116.14609 
L 590.367536 109.500412 
L 590.76821 115.982588 
L 591.168883 113.538968 
L 591.569557 94.141477 
L 592.771578 96.817746 
L 593.172252 102.172662 
L 593.572926 122.663413 
L 593.9736 125.692883 
L 594.374273 134.392729 
L 595.576294 136.187783 
L 595.976968 135.122335 
L 596.377642 142.275852 
L 596.778316 126.890599 
L 597.178989 125.837189 
L 598.381011 132.91275 
L 599.182358 119.071508 
L 599.583032 136.893252 
L 599.983706 130.672539 
L 601.185727 131.933536 
L 601.987074 92.108339 
L 602.788422 101.563602 
L 603.990443 114.11847 
L 604.391117 122.920973 
L 604.79179 98.810169 
L 605.192464 122.51522 
L 605.593138 132.455844 
L 606.795159 131.756686 
L 607.195833 147.427736 
L 607.596506 149.031467 
L 607.99718 149.812519 
L 608.397854 152.920224 
L 609.599875 137.071223 
L 610.000549 141.137782 
L 610.801896 157.287621 
L 611.20257 153.702907 
L 612.404591 151.840357 
L 612.805265 183.305785 
L 613.205939 168.412672 
L 613.606612 172.935826 
L 614.007286 171.671553 
L 615.609981 168.44899 
L 616.010655 171.878922 
L 616.411328 164.006278 
L 616.812002 161.866009 
L 618.414697 178.585656 
L 619.216045 176.147223 
L 619.616718 146.570091 
L 620.818739 139.85859 
L 621.620087 123.154058 
L 622.020761 133.232205 
L 622.421434 117.900546 
L 624.024129 112.951817 
L 624.424803 108.559122 
L 624.825477 88.980085 
L 625.22615 91.470384 
L 626.428172 84.553917 
L 626.828845 50.525499 
L 627.229519 57.087945 
L 627.630193 44.601749 
L 628.030867 46.351599 
L 629.232888 70.388438 
L 629.633561 69.163656 
L 630.034235 72.080858 
L 630.434909 63.290207 
L 630.835583 60.705102 
L 632.037604 76.694522 
L 632.438278 69.334161 
L 632.838951 81.318159 
L 633.239625 89.605987 
L 633.640299 95.058582 
L 634.84232 92.229202 
L 635.643667 92.08902 
L 636.044341 102.518731 
L 636.445015 95.448436 
L 638.04771 113.761814 
L 638.448383 115.588768 
L 638.849057 130.83502 
L 639.249731 154.298408 
L 640.451752 140.577774 
L 640.852426 156.913225 
L 641.2531 155.017582 
L 641.653773 148.135042 
L 642.054447 126.562869 
L 643.256468 126.711085 
L 643.657142 132.224811 
L 644.057816 135.509412 
L 644.458489 137.614288 
L 644.859163 140.411269 
L 646.461858 113.934108 
L 646.862532 114.204049 
L 647.263206 95.178757 
L 647.663879 101.946439 
L 648.8659 94.06181 
L 649.266574 80.736676 
L 650.067922 97.478762 
L 650.468595 101.493249 
L 651.670617 100.191238 
L 652.07129 107.193907 
L 652.872638 71.070184 
L 653.273311 70.146046 
L 654.475333 71.540833 
L 654.876006 75.659587 
L 655.27668 93.334027 
L 655.677354 86.056081 
L 657.280049 107.382871 
L 657.680722 120.130319 
L 658.081396 116.579873 
L 658.48207 102.232645 
L 658.882744 107.66563 
L 660.084765 97.785743 
L 660.485439 90.974715 
L 660.886112 96.371074 
L 661.286786 107.157357 
L 661.68746 126.067168 
L 662.889481 130.826079 
L 663.290155 135.441015 
L 663.690828 126.63689 
L 664.492176 91.35978 
L 665.694197 83.724742 
L 666.094871 86.162275 
L 666.495545 115.002972 
L 666.896218 123.346462 
L 667.296892 94.320621 
L 668.498913 98.029605 
L 668.899587 110.191955 
L 669.700934 91.019789 
L 670.101608 96.931402 
L 671.303629 91.149873 
L 671.704303 91.092756 
L 672.104977 103.815863 
L 672.50565 99.853617 
L 672.906324 98.926436 
L 674.108345 98.377951 
L 674.509019 107.332353 
L 674.909693 96.788286 
L 675.310367 129.057286 
L 675.71104 113.532282 
L 677.313735 92.116135 
L 677.714409 100.218448 
L 678.515756 78.981722 
L 680.118451 88.842615 
L 680.519125 100.600856 
L 680.919799 99.194211 
L 681.320472 98.21936 
L 682.522494 83.788459 
L 682.923167 68.19124 
L 683.323841 67.516554 
L 683.724515 65.917744 
L 684.125189 79.233768 
L 685.727884 84.141901 
L 686.128557 91.684122 
L 686.529231 91.033475 
L 686.929905 96.22127 
L 688.131926 96.500889 
L 688.933273 72.776605 
L 689.333947 78.352185 
L 689.734621 69.792965 
L 690.936642 86.303014 
L 691.737989 90.479594 
L 692.138663 90.929349 
L 692.539337 104.432476 
L 693.741358 109.913539 
L 694.142032 113.00985 
L 694.542706 101.597729 
L 694.943379 109.626261 
L 695.344053 107.200253 
L 696.546074 88.093343 
L 696.946748 98.225363 
L 697.347422 97.599423 
L 697.748095 110.446482 
L 698.148769 137.608716 
L 699.35079 125.004338 
L 699.751464 113.543429 
L 700.152138 111.618704 
L 700.552811 112.580074 
L 700.953485 87.900463 
L 702.155506 81.957893 
L 702.55618 93.896981 
L 702.956854 116.547703 
L 703.357528 124.409362 
L 703.758201 169.884365 
L 705.360896 177.064277 
L 705.76157 176.501481 
L 706.162244 174.911572 
L 706.562917 178.931887 
L 707.764939 174.639282 
L 708.165612 182.32273 
L 708.566286 181.769507 
L 708.96696 199.276801 
L 709.367634 200.0484 
L 710.569655 191.4599 
L 710.970328 179.833964 
L 711.371002 158.241628 
L 711.771676 147.022341 
L 712.17235 126.632212 
L 713.374371 124.206736 
L 713.775045 104.967265 
L 714.175718 95.602243 
L 714.576392 95.267127 
L 714.977066 95.434227 
L 716.579761 86.05059 
L 716.980434 109.225594 
L 717.381108 117.58841 
L 717.781782 117.290654 
L 718.983803 117.680514 
L 719.384477 128.9017 
L 719.78515 144.280387 
L 720.185824 128.425565 
L 720.586498 137.163491 
L 721.788519 132.863406 
L 722.189193 142.094132 
L 722.589867 163.79691 
L 723.391214 170.603341 
L 724.593235 166.145704 
L 724.993909 161.224628 
L 725.394583 152.440938 
L 725.795256 154.121151 
L 726.19593 157.326542 
L 727.397951 136.441599 
L 727.798625 133.81148 
L 728.199299 134.975876 
L 728.599973 127.029058 
L 729.000646 128.549941 
L 730.202667 126.950402 
L 731.004015 100.210471 
L 731.404689 100.04837 
L 731.805362 114.522906 
L 733.007384 90.409658 
L 733.408057 90.704879 
L 733.808731 100.638536 
L 734.209405 105.020916 
L 734.610078 131.052243 
L 735.8121 123.377245 
L 736.212773 127.890992 
L 736.613447 147.020596 
L 737.014121 178.572515 
L 737.414795 179.873262 
L 738.616816 163.826521 
L 739.017489 170.050447 
L 739.418163 155.67112 
L 739.818837 131.74691 
L 740.219511 134.635027 
L 741.421532 118.917801 
L 741.822206 105.502733 
L 742.222879 101.036361 
L 743.024227 82.827926 
L 744.226248 90.793929 
L 744.626922 75.901393 
L 745.027595 52.588604 
L 745.428269 52.309388 
L 745.828943 54.095323 
L 747.030964 53.034602 
L 747.431638 61.357697 
L 747.832312 65.357683 
L 748.633659 68.339776 
L 749.83568 74.535299 
L 750.236354 79.315722 
L 750.637028 90.497248 
L 751.037701 85.037469 
L 751.438375 95.616805 
L 752.640396 97.377873 
L 753.04107 91.965018 
L 753.441744 102.431483 
L 753.842417 101.401213 
L 754.243091 95.869984 
L 755.445112 118.147572 
L 756.24646 98.76275 
L 756.647134 90.623486 
L 757.047807 92.784551 
L 758.249828 103.866364 
L 758.650502 95.266686 
L 759.051176 107.681122 
L 759.45185 112.620383 
L 759.852523 109.095882 
L 761.455218 128.47332 
L 761.855892 122.289724 
L 762.256566 130.582046 
L 762.657239 145.256806 
L 764.259934 161.423474 
L 764.660608 175.226191 
L 765.061282 204.670617 
L 765.461956 206.572768 
L 766.663977 174.243215 
L 767.064651 171.617105 
L 767.465324 171.61739 
L 767.865998 168.058191 
L 768.266672 165.575057 
L 770.27004 169.497882 
L 770.670714 141.524001 
L 771.071388 132.758636 
L 772.273409 122.677252 
L 772.674083 93.09624 
L 773.074756 89.625968 
L 773.47543 78.700478 
L 773.876104 84.461854 
L 775.078125 99.52872 
L 775.879473 132.822439 
L 776.280146 122.52673 
L 776.68082 126.858295 
L 777.882841 113.627455 
L 778.283515 105.843958 
L 779.084862 140.283905 
L 779.485536 148.35405 
L 781.088231 165.001566 
L 781.488905 166.358193 
L 781.889578 162.684682 
L 782.290252 164.911046 
L 783.892947 156.524931 
L 784.293621 136.974151 
L 784.694295 139.564755 
L 785.094968 143.53413 
L 786.296989 161.897167 
L 786.697663 163.046457 
L 787.098337 167.816858 
L 787.499011 166.527709 
L 787.899684 175.748375 
L 789.101706 182.09624 
L 789.502379 186.9118 
L 789.903053 187.07304 
L 790.303727 186.823186 
L 790.704401 173.180799 
L 791.906422 160.238918 
L 792.307095 161.7017 
L 792.707769 177.606677 
L 793.108443 163.256186 
L 793.509117 160.846019 
L 794.711138 162.894725 
L 795.512485 134.116136 
L 795.913159 150.765828 
L 796.313833 135.87991 
L 797.515854 123.909591 
L 797.916528 124.444677 
L 798.317201 112.544143 
L 798.717875 124.193019 
L 800.32057 135.67713 
L 800.721244 140.873454 
L 801.121917 131.657948 
L 801.522591 141.365589 
L 801.923265 137.199677 
L 803.125286 144.927829 
L 803.52596 149.852806 
L 803.926634 167.161843 
L 804.327307 112.958206 
L 804.727981 111.088482 
L 805.930002 120.508554 
L 806.330676 127.658245 
L 806.73135 144.353702 
L 807.132023 141.918502 
L 807.532697 143.586342 
L 808.734718 136.873267 
L 809.135392 135.936447 
L 809.536066 125.990326 
L 809.93674 125.638368 
L 810.337413 123.847984 
L 811.539434 115.244625 
L 811.940108 119.344662 
L 812.340782 146.847427 
L 812.741456 138.087299 
L 813.142129 98.193312 
L 814.344151 92.247699 
L 814.744824 85.642669 
L 815.145498 81.094353 
L 815.546172 69.501402 
L 815.946845 76.334991 
L 817.148867 73.574676 
L 817.54954 74.760676 
L 817.950214 73.040175 
L 818.350888 70.402119 
L 818.751562 75.612229 
L 820.354256 50.896839 
L 820.75493 62.748631 
L 821.155604 109.346483 
L 821.556278 89.911913 
L 823.158973 91.763631 
L 823.559646 91.875171 
L 823.96032 94.307079 
L 824.360994 83.306467 
L 825.563015 87.303894 
L 826.364362 92.502082 
L 826.765036 102.664449 
L 827.16571 94.530317 
L 828.367731 118.18344 
L 828.768405 87.705286 
L 829.169078 74.750157 
L 829.569752 57.760255 
L 829.970426 67.864018 
L 831.172447 64.148788 
L 832.374468 88.870935 
L 832.775142 96.151599 
L 833.977163 97.722993 
L 834.377837 96.865337 
L 834.778511 93.37208 
L 835.179184 88.671139 
L 835.579858 100.636134 
L 836.781879 83.901887 
L 837.182553 96.963244 
L 837.583227 105.071783 
L 838.384574 98.588024 
L 839.586595 90.864541 
L 839.987269 96.119294 
L 840.387943 81.468456 
L 840.788617 84.26537 
L 841.18929 73.087154 
L 842.391312 70.076395 
L 842.791985 70.525055 
L 843.192659 93.901066 
L 843.593333 107.179258 
L 843.994006 98.277408 
L 845.196028 109.543368 
L 845.596701 114.659852 
L 846.398049 148.167472 
L 846.798723 151.262563 
L 848.000744 153.115489 
L 848.401417 166.597015 
L 848.802091 143.153244 
L 849.202765 162.428338 
L 849.603439 172.733395 
L 850.80546 187.090286 
L 851.206134 183.382872 
L 851.606807 166.605635 
L 852.408155 144.934976 
L 853.610176 143.561327 
L 854.01085 119.140669 
L 854.411523 115.192299 
L 854.812197 109.872058 
L 855.212871 107.857982 
L 856.414892 109.364197 
L 856.815566 114.834934 
L 857.21624 103.544866 
L 857.616913 113.072518 
L 858.017587 62.068555 
L 859.219608 48.372183 
L 859.620282 49.639921 
L 860.020956 65.366982 
L 860.421629 64.77437 
L 860.822303 73.329699 
L 862.825672 130.023271 
L 863.226345 136.32956 
L 863.627019 148.085082 
L 864.82904 147.121857 
L 865.229714 152.759053 
L 865.630388 140.451614 
L 866.031062 133.616143 
L 866.431735 145.451975 
L 867.633756 163.798985 
L 868.03443 165.634111 
L 868.835778 129.160459 
L 869.236451 128.839007 
L 870.438473 114.922464 
L 870.839146 105.266439 
L 871.23982 113.315031 
L 871.640494 103.939226 
L 872.041168 103.478307 
L 873.243189 89.119356 
L 873.643862 117.493794 
L 874.044536 116.436528 
L 874.44521 118.750901 
L 874.845884 96.585786 
L 876.047905 114.314654 
L 876.448579 113.922668 
L 876.849252 124.739234 
L 877.249926 124.245616 
L 877.6506 123.539973 
L 878.852621 116.261564 
L 879.253295 107.706142 
L 879.653968 116.113841 
L 880.054642 115.894736 
L 880.455316 121.387598 
L 881.657337 95.038758 
L 882.058011 98.74533 
L 882.458684 112.790666 
L 882.859358 116.097371 
L 883.260032 95.551177 
L 884.462053 100.385507 
L 885.664074 131.8502 
L 886.064748 153.99482 
L 887.266769 167.566073 
L 887.667443 156.109019 
L 888.068117 159.558961 
L 888.46879 151.166318 
L 888.869464 158.188105 
L 890.071485 162.649387 
L 890.472159 150.589026 
L 890.872833 145.924957 
L 891.273506 136.647578 
L 891.67418 153.228172 
L 892.876201 142.724378 
L 893.276875 131.853923 
L 893.677549 113.984915 
L 894.478896 93.159803 
L 895.680918 89.251512 
L 896.081591 80.696725 
L 896.482265 92.442503 
L 897.283612 84.761245 
L 898.485634 63.344411 
L 898.886307 59.640993 
L 899.286981 60.218913 
L 899.687655 64.10261 
L 900.088329 39.677213 
L 901.29035 39.331866 
L 901.691023 39.06 
L 902.091697 50.077746 
L 902.492371 45.259859 
L 902.893045 46.000325 
L 904.095066 46.060171 
L 904.49574 45.895196 
L 904.896413 80.441075 
L 905.297087 81.663204 
L 905.697761 77.42525 
L 906.899782 81.361305 
L 907.300456 76.968943 
L 908.101803 75.771051 
L 908.502477 90.021184 
L 911.307193 138.247866 
L 912.509214 134.24001 
L 912.909888 148.15191 
L 913.310562 154.288354 
L 914.111909 155.04304 
L 915.31393 164.942745 
L 915.714604 184.902191 
L 916.115278 169.68593 
L 916.515951 189.719899 
L 916.916625 186.624334 
L 918.51932 189.36038 
L 918.919994 183.136319 
L 919.320668 181.794425 
L 919.721341 176.193515 
L 920.923362 153.929241 
L 921.324036 138.546946 
L 921.72471 131.83674 
L 922.125384 135.736093 
L 922.526057 128.282032 
L 923.728079 137.748395 
L 924.128752 127.418915 
L 924.529426 136.129513 
L 924.9301 116.20482 
L 925.330773 131.188844 
L 926.933468 107.855437 
L 927.734816 92.957041 
L 928.13549 97.903875 
L 929.738184 111.749094 
L 930.138858 113.127713 
L 930.539532 106.33912 
L 930.940206 102.417898 
L 932.142227 69.284371 
L 932.542901 76.20152 
L 932.943574 103.650749 
L 933.344248 115.187419 
L 933.744922 87.312993 
L 934.946943 101.009452 
L 936.148964 148.226686 
L 936.549638 145.431375 
L 938.95368 187.909923 
L 939.354354 181.80415 
L 940.556375 180.449512 
L 940.957049 176.280723 
L 941.357723 166.601128 
L 941.758396 180.380976 
L 942.15907 164.640885 
L 943.361091 155.65893 
L 943.761765 148.296115 
L 944.162439 150.735126 
L 944.563112 153.9282 
L 946.566481 112.628373 
L 946.967155 88.614113 
L 947.367829 145.303659 
L 947.768502 163.104691 
L 948.970523 167.638385 
L 949.371197 178.221092 
L 949.771871 140.542074 
L 950.172545 151.03198 
L 950.573218 145.497859 
L 951.77524 144.161867 
L 952.175913 142.903458 
L 952.576587 150.290952 
L 952.977261 143.835621 
L 954.579956 150.538623 
L 954.980629 145.097983 
L 955.381303 141.316198 
L 956.182651 105.506086 
L 957.384672 95.637872 
L 957.785346 80.522438 
L 958.186019 102.944548 
L 958.586693 80.459009 
L 958.987367 112.191765 
L 960.189388 133.611331 
L 960.590062 133.611304 
L 960.990735 122.344968 
L 961.391409 125.492956 
L 961.792083 113.744526 
L 962.994104 103.006717 
L 963.394778 107.533923 
L 963.795451 116.479195 
L 964.196125 120.767519 
L 964.596799 123.228667 
L 965.79882 131.712803 
L 966.199494 139.079892 
L 966.600168 149.810208 
L 967.000841 136.025534 
L 967.401515 135.195605 
L 969.00421 122.188488 
L 969.404884 116.071819 
L 969.805557 120.020988 
L 970.206231 120.335942 
L 971.408252 158.372025 
L 971.808926 161.084686 
L 972.2096 160.742079 
L 972.610273 163.608939 
L 973.010947 149.198317 
L 974.212968 149.174869 
L 974.613642 139.819271 
L 975.014316 137.36372 
L 975.41499 133.7118 
L 975.815663 122.268065 
L 977.017684 134.1333 
L 977.418358 144.6152 
L 977.819032 139.080084 
L 978.620379 126.149795 
L 979.822401 127.294228 
L 980.223074 136.525365 
L 981.024422 125.368529 
L 981.425096 137.65042 
L 982.627117 113.106834 
L 983.02779 108.879384 
L 983.428464 80.753961 
L 983.829138 79.585906 
L 985.431833 83.636345 
L 985.832507 87.190138 
L 986.23318 70.562556 
L 986.633854 70.08053 
L 987.034528 85.416296 
L 988.236549 100.068261 
L 988.637223 92.817309 
L 989.037896 93.34048 
L 989.839244 88.558762 
L 991.441939 97.794354 
L 991.842612 117.244716 
L 992.243286 125.433364 
L 992.64396 98.114745 
L 993.845981 97.561108 
L 994.647329 146.834311 
L 995.048002 147.906843 
L 995.448676 158.357139 
L 996.650697 155.182876 
L 997.051371 163.718898 
L 997.452045 115.965192 
L 998.253392 88.851233 
L 999.455413 97.429233 
L 999.856087 93.090563 
L 1000.256761 87.324619 
L 1000.657435 88.992518 
L 1001.058108 92.390963 
L 1002.260129 86.707713 
L 1002.660803 81.090589 
L 1003.061477 90.008058 
L 1003.462151 77.912721 
L 1003.862824 76.023572 
L 1005.064846 76.558547 
L 1005.866193 95.465577 
L 1006.266867 113.652695 
L 1006.66754 106.918227 
L 1008.270235 126.35799 
L 1008.670909 109.754587 
L 1008.670909 109.754587 
" clip-path="url(#pc0b36ea229)" style="fill: none; stroke: #1f77b4; stroke-width: 1.5; stroke-linecap: square"/>
   </g>
   <g id="patch_3">
    <path d="M 145.8 224.28 
L 145.8 30.24 
" style="fill: none; stroke: #000000; stroke-width: 0.8; stroke-linejoin: miter; stroke-linecap: square"/>
   </g>
   <g id="patch_4">
    <path d="M 145.8 224.28 
L 1049.76 224.28 
" style="fill: none; stroke: #000000; stroke-width: 0.8; stroke-linejoin: miter; stroke-linecap: square"/>
   </g>
  </g>
 </g>
 <defs>
  <clipPath id="pc0b36ea229">
   <rect x="145.8" y="30.24" width="903.96" height="194.04"/>
  </clipPath>
 </defs>
</svg>
