<?xml version="1.0" encoding="utf-8" standalone="no"?>
<!DOCTYPE svg PUBLIC "-//W3C//DTD SVG 1.1//EN"
  "http://www.w3.org/Graphics/SVG/1.1/DTD/svg11.dtd">
<svg xmlns:xlink="http://www.w3.org/1999/xlink" width="1166.4pt" height="252pt" viewBox="0 0 1166.4 252" xmlns="http://www.w3.org/2000/svg" version="1.1">
 <metadata>
  <rdf:RDF xmlns:dc="http://purl.org/dc/elements/1.1/" xmlns:cc="http://creativecommons.org/ns#" xmlns:rdf="http://www.w3.org/1999/02/22-rdf-syntax-ns#">
   <cc:Work>
    <dc:type rdf:resource="http://purl.org/dc/dcmitype/StillImage"/>
    <dc:date>2025-08-31T00:52:48.237508</dc:date>
    <dc:format>image/svg+xml</dc:format>
    <dc:creator>
     <cc:Agent>
      <dc:title>Matplotlib v3.10.5, https://matplotlib.org/</dc:title>
     </cc:Agent>
    </dc:creator>
   </cc:Work>
  </rdf:RDF>
 </metadata>
 <defs>
  <style type="text/css">*{stroke-linejoin: round; stroke-linecap: butt}</style>
 </defs>
 <g id="figure_1">
  <g id="patch_1">
   <path d="M 0 252 
L 1166.4 252 
L 1166.4 0 
L 0 0 
z
" style="fill: #ffffff"/>
  </g>
  <g id="axes_1">
   <g id="patch_2">
    <path d="M 145.8 224.28 
L 1049.76 224.28 
L 1049.76 30.24 
L 145.8 30.24 
z
" style="fill: #ffffff"/>
   </g>
   <g id="matplotlib.axis_1">
    <g id="xtick_1">
     <g id="line2d_1">
      <defs>
       <path id="m7a0a90c689" d="M 0 0 
L 0 3.5 
" style="stroke: #000000; stroke-width: 0.8"/>
      </defs>
      <g>
       <use xlink:href="#m7a0a90c689" x="178.450256" y="224.28" style="stroke: #000000; stroke-width: 0.8"/>
      </g>
     </g>
     <g id="text_1">
      <!-- 2020 -->
      <g transform="translate(165.725256 238.878438) scale(0.1 -0.1)">
       <defs>
        <path id="DejaVuSans-32" d="M 1228 531 
L 3431 531 
L 3431 0 
L 469 0 
L 469 531 
Q 828 903 1448 1529 
Q 2069 2156 2228 2338 
Q 2531 2678 2651 2914 
Q 2772 3150 2772 3378 
Q 2772 3750 2511 3984 
Q 2250 4219 1831 4219 
Q 1534 4219 1204 4116 
Q 875 4013 500 3803 
L 500 4441 
Q 881 4594 1212 4672 
Q 1544 4750 1819 4750 
Q 2544 4750 2975 4387 
Q 3406 4025 3406 3419 
Q 3406 3131 3298 2873 
Q 3191 2616 2906 2266 
Q 2828 2175 2409 1742 
Q 1991 1309 1228 531 
z
" transform="scale(0.015625)"/>
        <path id="DejaVuSans-30" d="M 2034 4250 
Q 1547 4250 1301 3770 
Q 1056 3291 1056 2328 
Q 1056 1369 1301 889 
Q 1547 409 2034 409 
Q 2525 409 2770 889 
Q 3016 1369 3016 2328 
Q 3016 3291 2770 3770 
Q 2525 4250 2034 4250 
z
M 2034 4750 
Q 2819 4750 3233 4129 
Q 3647 3509 3647 2328 
Q 3647 1150 3233 529 
Q 2819 -91 2034 -91 
Q 1250 -91 836 529 
Q 422 1150 422 2328 
Q 422 3509 836 4129 
Q 1250 4750 2034 4750 
z
" transform="scale(0.015625)"/>
       </defs>
       <use xlink:href="#DejaVuSans-32"/>
       <use xlink:href="#DejaVuSans-30" transform="translate(63.623047 0)"/>
       <use xlink:href="#DejaVuSans-32" transform="translate(127.246094 0)"/>
       <use xlink:href="#DejaVuSans-30" transform="translate(190.869141 0)"/>
      </g>
     </g>
    </g>
    <g id="xtick_2">
     <g id="line2d_2">
      <g>
       <use xlink:href="#m7a0a90c689" x="325.527099" y="224.28" style="stroke: #000000; stroke-width: 0.8"/>
      </g>
     </g>
     <g id="text_2">
      <!-- 2021 -->
      <g transform="translate(312.802099 238.878438) scale(0.1 -0.1)">
       <defs>
        <path id="DejaVuSans-31" d="M 794 531 
L 1825 531 
L 1825 4091 
L 703 3866 
L 703 4441 
L 1819 4666 
L 2450 4666 
L 2450 531 
L 3481 531 
L 3481 0 
L 794 0 
L 794 531 
z
" transform="scale(0.015625)"/>
       </defs>
       <use xlink:href="#DejaVuSans-32"/>
       <use xlink:href="#DejaVuSans-30" transform="translate(63.623047 0)"/>
       <use xlink:href="#DejaVuSans-32" transform="translate(127.246094 0)"/>
       <use xlink:href="#DejaVuSans-31" transform="translate(190.869141 0)"/>
      </g>
     </g>
    </g>
    <g id="xtick_3">
     <g id="line2d_3">
      <g>
       <use xlink:href="#m7a0a90c689" x="472.202094" y="224.28" style="stroke: #000000; stroke-width: 0.8"/>
      </g>
     </g>
     <g id="text_3">
      <!-- 2022 -->
      <g transform="translate(459.477094 238.878438) scale(0.1 -0.1)">
       <use xlink:href="#DejaVuSans-32"/>
       <use xlink:href="#DejaVuSans-30" transform="translate(63.623047 0)"/>
       <use xlink:href="#DejaVuSans-32" transform="translate(127.246094 0)"/>
       <use xlink:href="#DejaVuSans-32" transform="translate(190.869141 0)"/>
      </g>
     </g>
    </g>
    <g id="xtick_4">
     <g id="line2d_4">
      <g>
       <use xlink:href="#m7a0a90c689" x="618.877088" y="224.28" style="stroke: #000000; stroke-width: 0.8"/>
      </g>
     </g>
     <g id="text_4">
      <!-- 2023 -->
      <g transform="translate(606.152088 238.878438) scale(0.1 -0.1)">
       <defs>
        <path id="DejaVuSans-33" d="M 2597 2516 
Q 3050 2419 3304 2112 
Q 3559 1806 3559 1356 
Q 3559 666 3084 287 
Q 2609 -91 1734 -91 
Q 1441 -91 1130 -33 
Q 819 25 488 141 
L 488 750 
Q 750 597 1062 519 
Q 1375 441 1716 441 
Q 2309 441 2620 675 
Q 2931 909 2931 1356 
Q 2931 1769 2642 2001 
Q 2353 2234 1838 2234 
L 1294 2234 
L 1294 2753 
L 1863 2753 
Q 2328 2753 2575 2939 
Q 2822 3125 2822 3475 
Q 2822 3834 2567 4026 
Q 2313 4219 1838 4219 
Q 1578 4219 1281 4162 
Q 984 4106 628 3988 
L 628 4550 
Q 988 4650 1302 4700 
Q 1616 4750 1894 4750 
Q 2613 4750 3031 4423 
Q 3450 4097 3450 3541 
Q 3450 3153 3228 2886 
Q 3006 2619 2597 2516 
z
" transform="scale(0.015625)"/>
       </defs>
       <use xlink:href="#DejaVuSans-32"/>
       <use xlink:href="#DejaVuSans-30" transform="translate(63.623047 0)"/>
       <use xlink:href="#DejaVuSans-32" transform="translate(127.246094 0)"/>
       <use xlink:href="#DejaVuSans-33" transform="translate(190.869141 0)"/>
      </g>
     </g>
    </g>
    <g id="xtick_5">
     <g id="line2d_5">
      <g>
       <use xlink:href="#m7a0a90c689" x="765.552083" y="224.28" style="stroke: #000000; stroke-width: 0.8"/>
      </g>
     </g>
     <g id="text_5">
      <!-- 2024 -->
      <g transform="translate(752.827083 238.878438) scale(0.1 -0.1)">
       <defs>
        <path id="DejaVuSans-34" d="M 2419 4116 
L 825 1625 
L 2419 1625 
L 2419 4116 
z
M 2253 4666 
L 3047 4666 
L 3047 1625 
L 3713 1625 
L 3713 1100 
L 3047 1100 
L 3047 0 
L 2419 0 
L 2419 1100 
L 313 1100 
L 313 1709 
L 2253 4666 
z
" transform="scale(0.015625)"/>
       </defs>
       <use xlink:href="#DejaVuSans-32"/>
       <use xlink:href="#DejaVuSans-30" transform="translate(63.623047 0)"/>
       <use xlink:href="#DejaVuSans-32" transform="translate(127.246094 0)"/>
       <use xlink:href="#DejaVuSans-34" transform="translate(190.869141 0)"/>
      </g>
     </g>
    </g>
    <g id="xtick_6">
     <g id="line2d_6">
      <g>
       <use xlink:href="#m7a0a90c689" x="912.628926" y="224.28" style="stroke: #000000; stroke-width: 0.8"/>
      </g>
     </g>
     <g id="text_6">
      <!-- 2025 -->
      <g transform="translate(899.903926 238.878438) scale(0.1 -0.1)">
       <defs>
        <path id="DejaVuSans-35" d="M 691 4666 
L 3169 4666 
L 3169 4134 
L 1269 4134 
L 1269 2991 
Q 1406 3038 1543 3061 
Q 1681 3084 1819 3084 
Q 2600 3084 3056 2656 
Q 3513 2228 3513 1497 
Q 3513 744 3044 326 
Q 2575 -91 1722 -91 
Q 1428 -91 1123 -41 
Q 819 9 494 109 
L 494 744 
Q 775 591 1075 516 
Q 1375 441 1709 441 
Q 2250 441 2565 725 
Q 2881 1009 2881 1497 
Q 2881 1984 2565 2268 
Q 2250 2553 1709 2553 
Q 1456 2553 1204 2497 
Q 953 2441 691 2322 
L 691 4666 
z
" transform="scale(0.015625)"/>
       </defs>
       <use xlink:href="#DejaVuSans-32"/>
       <use xlink:href="#DejaVuSans-30" transform="translate(63.623047 0)"/>
       <use xlink:href="#DejaVuSans-32" transform="translate(127.246094 0)"/>
       <use xlink:href="#DejaVuSans-35" transform="translate(190.869141 0)"/>
      </g>
     </g>
    </g>
   </g>
   <g id="matplotlib.axis_2">
    <g id="ytick_1">
     <g id="line2d_7">
      <defs>
       <path id="md290e1cc7d" d="M 0 0 
L -3.5 0 
" style="stroke: #000000; stroke-width: 0.8"/>
      </defs>
      <g>
       <use xlink:href="#md290e1cc7d" x="145.8" y="221.493572" style="stroke: #000000; stroke-width: 0.8"/>
      </g>
     </g>
     <g id="text_7">
      <!-- 0 -->
      <g transform="translate(132.4375 225.29279) scale(0.1 -0.1)">
       <use xlink:href="#DejaVuSans-30"/>
      </g>
     </g>
    </g>
    <g id="ytick_2">
     <g id="line2d_8">
      <g>
       <use xlink:href="#md290e1cc7d" x="145.8" y="183.550994" style="stroke: #000000; stroke-width: 0.8"/>
      </g>
     </g>
     <g id="text_8">
      <!-- 20 -->
      <g transform="translate(126.075 187.350213) scale(0.1 -0.1)">
       <use xlink:href="#DejaVuSans-32"/>
       <use xlink:href="#DejaVuSans-30" transform="translate(63.623047 0)"/>
      </g>
     </g>
    </g>
    <g id="ytick_3">
     <g id="line2d_9">
      <g>
       <use xlink:href="#md290e1cc7d" x="145.8" y="145.608417" style="stroke: #000000; stroke-width: 0.8"/>
      </g>
     </g>
     <g id="text_9">
      <!-- 40 -->
      <g transform="translate(126.075 149.407636) scale(0.1 -0.1)">
       <use xlink:href="#DejaVuSans-34"/>
       <use xlink:href="#DejaVuSans-30" transform="translate(63.623047 0)"/>
      </g>
     </g>
    </g>
    <g id="ytick_4">
     <g id="line2d_10">
      <g>
       <use xlink:href="#md290e1cc7d" x="145.8" y="107.66584" style="stroke: #000000; stroke-width: 0.8"/>
      </g>
     </g>
     <g id="text_10">
      <!-- 60 -->
      <g transform="translate(126.075 111.465058) scale(0.1 -0.1)">
       <defs>
        <path id="DejaVuSans-36" d="M 2113 2584 
Q 1688 2584 1439 2293 
Q 1191 2003 1191 1497 
Q 1191 994 1439 701 
Q 1688 409 2113 409 
Q 2538 409 2786 701 
Q 3034 994 3034 1497 
Q 3034 2003 2786 2293 
Q 2538 2584 2113 2584 
z
M 3366 4563 
L 3366 3988 
Q 3128 4100 2886 4159 
Q 2644 4219 2406 4219 
Q 1781 4219 1451 3797 
Q 1122 3375 1075 2522 
Q 1259 2794 1537 2939 
Q 1816 3084 2150 3084 
Q 2853 3084 3261 2657 
Q 3669 2231 3669 1497 
Q 3669 778 3244 343 
Q 2819 -91 2113 -91 
Q 1303 -91 875 529 
Q 447 1150 447 2328 
Q 447 3434 972 4092 
Q 1497 4750 2381 4750 
Q 2619 4750 2861 4703 
Q 3103 4656 3366 4563 
z
" transform="scale(0.015625)"/>
       </defs>
       <use xlink:href="#DejaVuSans-36"/>
       <use xlink:href="#DejaVuSans-30" transform="translate(63.623047 0)"/>
      </g>
     </g>
    </g>
    <g id="ytick_5">
     <g id="line2d_11">
      <g>
       <use xlink:href="#md290e1cc7d" x="145.8" y="69.723262" style="stroke: #000000; stroke-width: 0.8"/>
      </g>
     </g>
     <g id="text_11">
      <!-- 80 -->
      <g transform="translate(126.075 73.522481) scale(0.1 -0.1)">
       <defs>
        <path id="DejaVuSans-38" d="M 2034 2216 
Q 1584 2216 1326 1975 
Q 1069 1734 1069 1313 
Q 1069 891 1326 650 
Q 1584 409 2034 409 
Q 2484 409 2743 651 
Q 3003 894 3003 1313 
Q 3003 1734 2745 1975 
Q 2488 2216 2034 2216 
z
M 1403 2484 
Q 997 2584 770 2862 
Q 544 3141 544 3541 
Q 544 4100 942 4425 
Q 1341 4750 2034 4750 
Q 2731 4750 3128 4425 
Q 3525 4100 3525 3541 
Q 3525 3141 3298 2862 
Q 3072 2584 2669 2484 
Q 3125 2378 3379 2068 
Q 3634 1759 3634 1313 
Q 3634 634 3220 271 
Q 2806 -91 2034 -91 
Q 1263 -91 848 271 
Q 434 634 434 1313 
Q 434 1759 690 2068 
Q 947 2378 1403 2484 
z
M 1172 3481 
Q 1172 3119 1398 2916 
Q 1625 2713 2034 2713 
Q 2441 2713 2670 2916 
Q 2900 3119 2900 3481 
Q 2900 3844 2670 4047 
Q 2441 4250 2034 4250 
Q 1625 4250 1398 4047 
Q 1172 3844 1172 3481 
z
" transform="scale(0.015625)"/>
       </defs>
       <use xlink:href="#DejaVuSans-38"/>
       <use xlink:href="#DejaVuSans-30" transform="translate(63.623047 0)"/>
      </g>
     </g>
    </g>
    <g id="ytick_6">
     <g id="line2d_12">
      <g>
       <use xlink:href="#md290e1cc7d" x="145.8" y="31.780685" style="stroke: #000000; stroke-width: 0.8"/>
      </g>
     </g>
     <g id="text_12">
      <!-- 100 -->
      <g transform="translate(119.7125 35.579904) scale(0.1 -0.1)">
       <use xlink:href="#DejaVuSans-31"/>
       <use xlink:href="#DejaVuSans-30" transform="translate(63.623047 0)"/>
       <use xlink:href="#DejaVuSans-30" transform="translate(127.246094 0)"/>
      </g>
     </g>
    </g>
   </g>
   <g id="line2d_13">
    <path d="M 186.889091 87.047143 
L 187.29094 85.085217 
L 187.69279 78.447277 
L 188.898337 108.588829 
L 189.300187 93.603546 
L 189.702036 91.60661 
L 190.103885 100.306792 
L 190.505735 127.834442 
L 191.711283 139.940811 
L 192.113132 117.64539 
L 192.514981 112.183467 
L 192.91683 112.353486 
L 193.31868 123.727397 
L 194.524228 118.445467 
L 194.926077 122.876985 
L 195.327926 115.333326 
L 195.729776 117.34198 
L 196.131625 102.361275 
L 197.739022 123.512659 
L 198.140871 126.561891 
L 198.542721 130.828041 
L 198.94457 119.4471 
L 200.150118 139.77485 
L 200.551967 167.122587 
L 200.953816 163.423308 
L 201.355666 181.72495 
L 201.757515 179.699105 
L 202.963063 146.728838 
L 203.364912 151.641101 
L 203.766762 145.853563 
L 204.168611 150.271718 
L 204.57046 152.441765 
L 205.776008 160.281123 
L 206.177857 148.845777 
L 206.579707 151.660454 
L 206.981556 158.991401 
L 207.383405 135.992744 
L 208.588953 145.508078 
L 208.990802 142.586165 
L 209.392652 138.021972 
L 209.794501 138.662504 
L 210.19635 157.255438 
L 211.401898 155.848336 
L 211.803747 150.722018 
L 212.205597 147.891739 
L 212.607446 139.792394 
L 213.009295 135.025431 
L 214.214843 141.389148 
L 214.616693 137.365044 
L 215.018542 130.648358 
L 215.420391 147.902226 
L 215.82224 127.296155 
L 217.429638 116.748505 
L 217.831487 110.754402 
L 218.233336 94.260827 
L 219.840733 85.936776 
L 220.242583 90.420247 
L 220.644432 91.971383 
L 221.046281 98.668255 
L 221.448131 89.270117 
L 222.653679 102.73929 
L 223.055528 112.701659 
L 223.457377 89.626436 
L 223.859226 93.909325 
L 224.261076 83.627961 
L 225.466624 98.903809 
L 225.868473 101.530134 
L 226.270322 99.191502 
L 226.672172 95.650701 
L 227.074021 107.516156 
L 228.279569 118.209444 
L 228.681418 108.983512 
L 229.083267 108.107295 
L 229.485117 98.494794 
L 229.886966 81.754338 
L 231.092514 60.652211 
L 231.494363 73.181416 
L 232.298062 83.882704 
L 232.699911 88.093404 
L 233.905459 72.404776 
L 234.307308 83.543405 
L 234.709158 83.510742 
L 235.111007 77.683072 
L 235.512856 79.439101 
L 237.522103 91.508419 
L 237.923952 95.31801 
L 238.325801 107.896562 
L 239.531349 109.811216 
L 240.335048 78.56252 
L 240.736897 92.373088 
L 241.138746 73.825888 
L 242.344294 79.766514 
L 242.746144 63.2285 
L 243.147993 61.453896 
L 243.549842 98.166879 
L 243.951691 97.279305 
L 245.157239 89.100563 
L 245.559089 83.134029 
L 245.960938 84.141742 
L 246.362787 83.469386 
L 246.764637 90.097186 
L 247.970184 84.514112 
L 248.372034 80.903947 
L 248.773883 86.665201 
L 249.175732 89.500902 
L 249.577582 106.37164 
L 250.78313 108.300739 
L 251.184979 113.476067 
L 251.586828 88.38252 
L 251.988677 90.830655 
L 253.596075 86.31647 
L 253.997924 96.406697 
L 254.399773 87.866374 
L 254.801623 86.734953 
L 255.203472 82.521448 
L 256.40902 93.341933 
L 256.810869 94.624911 
L 257.212718 78.283725 
L 257.614568 93.336284 
L 258.016417 66.655903 
L 259.221965 66.676745 
L 259.623814 84.703396 
L 260.025663 81.827627 
L 260.427513 116.867755 
L 260.829362 131.842936 
L 262.03491 117.683281 
L 262.436759 138.483489 
L 262.838609 130.368534 
L 263.240458 125.295716 
L 263.642307 91.027644 
L 264.847855 88.847153 
L 265.249704 88.732546 
L 266.053403 75.686492 
L 266.455252 89.710705 
L 267.6608 81.582534 
L 268.062649 94.782635 
L 268.464499 72.72816 
L 268.866348 69.637207 
L 269.268197 72.415536 
L 270.473745 66.946862 
L 271.277444 68.937341 
L 271.679293 80.111894 
L 272.081142 74.268967 
L 273.28669 73.156234 
L 273.68854 78.864868 
L 274.090389 82.512013 
L 274.492238 76.886571 
L 274.894088 80.957921 
L 276.099635 54.796318 
L 276.501485 53.535366 
L 276.903334 71.603701 
L 277.305183 111.98583 
L 277.707033 110.964461 
L 279.31443 132.337928 
L 279.716279 123.577188 
L 280.118128 135.493492 
L 280.519978 151.792544 
L 281.725526 147.160773 
L 282.127375 145.114884 
L 282.529224 154.285784 
L 282.931074 154.661399 
L 283.332923 158.823245 
L 284.538471 161.249841 
L 284.94032 170.343359 
L 285.342169 172.279489 
L 285.744019 155.898363 
L 286.145868 144.925766 
L 287.351416 121.505987 
L 287.753265 135.164497 
L 288.155114 120.130119 
L 288.556964 112.996668 
L 288.958813 133.219739 
L 290.164361 124.177344 
L 290.56621 123.992977 
L 291.369909 103.746475 
L 291.771758 106.496548 
L 292.977306 95.333191 
L 293.379155 90.562832 
L 293.781005 92.223516 
L 294.182854 101.780494 
L 294.584703 114.285692 
L 295.790251 121.261435 
L 296.1921 121.774156 
L 296.59395 126.405928 
L 296.995799 118.053881 
L 297.397648 131.691453 
L 298.603196 119.188941 
L 299.005046 120.553582 
L 299.406895 138.972772 
L 299.808744 131.668088 
L 300.210593 175.544525 
L 301.416141 170.067465 
L 301.817991 162.40373 
L 302.621689 126.609971 
L 303.023539 118.003758 
L 304.229086 129.492208 
L 304.630936 128.674945 
L 305.032785 115.938008 
L 305.434634 114.626054 
L 305.836484 114.530059 
L 307.042032 115.763743 
L 307.443881 99.731158 
L 307.84573 116.340765 
L 308.247579 81.522058 
L 309.854977 112.40201 
L 310.256826 124.731683 
L 310.658675 141.705324 
L 311.462374 137.69157 
L 312.667922 112.337878 
L 313.069771 96.759265 
L 313.47162 107.997951 
L 313.87347 107.121696 
L 314.275319 111.526763 
L 315.480867 109.61911 
L 315.882716 101.659122 
L 316.284565 109.019026 
L 317.088264 103.257373 
L 318.293812 84.163494 
L 318.695661 73.030106 
L 319.097511 75.143816 
L 319.49936 74.494293 
L 319.901209 93.233401 
L 321.106757 99.848034 
L 321.508606 90.026031 
L 321.910456 94.374714 
L 322.312305 88.059603 
L 323.919702 81.377521 
L 324.321551 91.489188 
L 324.723401 84.470752 
L 325.12525 92.72123 
L 326.732647 103.645601 
L 327.134497 97.306256 
L 327.536346 130.948858 
L 327.938195 117.534854 
L 328.340044 116.904477 
L 329.545592 120.103077 
L 330.349291 129.692945 
L 330.75114 132.754003 
L 331.15299 140.712607 
L 332.760387 156.105195 
L 333.564085 117.998847 
L 333.965935 109.713685 
L 335.171483 91.362953 
L 335.573332 93.680071 
L 335.975181 80.317393 
L 336.37703 108.523157 
L 336.77888 126.872317 
L 337.984428 112.818401 
L 338.386277 110.367977 
L 338.788126 118.382939 
L 339.189976 104.611371 
L 339.591825 100.144299 
L 340.797373 101.209728 
L 341.199222 113.97451 
L 341.601071 131.10653 
L 342.002921 140.719887 
L 342.40477 158.951151 
L 344.012167 166.056783 
L 344.414016 168.862718 
L 344.815866 159.209632 
L 345.217715 137.906784 
L 346.423263 169.363763 
L 346.825112 176.697055 
L 347.226962 175.224576 
L 347.628811 215.46 
L 348.03066 212.416881 
L 349.236208 163.418001 
L 350.441756 175.033041 
L 350.843605 170.093434 
L 352.049153 174.534854 
L 352.451002 152.53607 
L 352.852852 152.497324 
L 353.65655 140.274404 
L 354.862098 131.381213 
L 355.263948 126.094556 
L 355.665797 116.393364 
L 356.067646 128.418589 
L 356.469495 149.139614 
L 358.076893 125.187049 
L 358.478742 126.756036 
L 358.880591 129.166239 
L 359.282441 109.400093 
L 360.487988 125.351743 
L 360.889838 126.974111 
L 361.291687 125.846191 
L 361.693536 118.408638 
L 363.300934 118.638193 
L 363.702783 123.797657 
L 364.104632 113.256632 
L 364.506481 81.130153 
L 364.908331 72.00749 
L 366.113879 91.094033 
L 366.515728 78.210952 
L 366.917577 77.902603 
L 367.319427 74.298465 
L 367.721276 77.363286 
L 368.926824 76.467065 
L 369.328673 77.823004 
L 369.730522 81.419718 
L 370.132372 92.052201 
L 370.534221 93.358098 
L 371.739769 93.128037 
L 372.141618 99.553078 
L 372.945317 124.181096 
L 373.347166 125.527083 
L 374.552714 137.378761 
L 374.954563 147.527532 
L 375.356413 162.859132 
L 375.758262 149.85245 
L 376.160111 149.779097 
L 377.365659 155.731578 
L 378.169358 165.552309 
L 378.571207 166.640417 
L 378.973056 154.806512 
L 380.178604 157.115752 
L 380.580453 158.679289 
L 380.982303 158.829105 
L 381.384152 141.054832 
L 381.786001 151.154359 
L 382.991549 128.777909 
L 383.393399 130.591172 
L 384.197097 147.085033 
L 384.598946 137.166257 
L 386.206344 134.537749 
L 386.608193 114.01525 
L 387.010042 134.84312 
L 387.411892 135.660125 
L 388.617439 128.941601 
L 389.019289 114.399739 
L 389.421138 111.082623 
L 389.822987 135.208493 
L 390.224837 112.228408 
L 391.430385 103.898274 
L 391.832234 109.004359 
L 392.234083 106.043303 
L 392.635932 86.19717 
L 393.037782 91.80282 
L 394.645179 80.501892 
L 395.047028 70.277995 
L 395.448878 79.20903 
L 395.850727 82.024469 
L 397.056275 79.443838 
L 397.458124 76.251626 
L 397.859973 65.846268 
L 398.261823 67.826314 
L 398.663672 68.845657 
L 400.672918 53.957642 
L 401.074768 67.960169 
L 401.476617 53.689614 
L 402.682165 61.69614 
L 403.084014 62.630931 
L 403.485864 55.182611 
L 403.887713 58.207823 
L 404.289562 71.095009 
L 405.49511 97.476766 
L 405.896959 92.264865 
L 406.298809 97.225299 
L 406.700658 94.705471 
L 407.102507 96.842708 
L 408.308055 100.961372 
L 408.709904 118.427546 
L 409.111754 120.259699 
L 409.513603 124.599202 
L 409.915452 121.323861 
L 411.121 127.121952 
L 411.52285 134.42227 
L 411.924699 133.37176 
L 412.326548 123.389562 
L 412.728397 103.932224 
L 413.933945 125.44835 
L 414.335795 123.443722 
L 414.737644 132.703026 
L 415.139493 122.459296 
L 415.541343 124.073726 
L 417.14874 80.938275 
L 417.550589 120.474315 
L 417.952438 119.740927 
L 418.354288 109.197342 
L 419.559836 110.793055 
L 419.961685 108.447257 
L 420.363534 117.747983 
L 420.765383 118.510087 
L 421.167233 112.914316 
L 422.372781 93.273319 
L 423.176479 109.519488 
L 423.578329 106.07509 
L 423.980178 111.262823 
L 425.587575 97.388449 
L 425.989424 82.559176 
L 426.391274 90.841551 
L 426.793123 123.439763 
L 427.998671 127.321089 
L 428.40052 132.681492 
L 428.802369 123.896498 
L 429.204219 121.393028 
L 429.606068 136.560323 
L 430.811616 168.841441 
L 431.213465 162.723704 
L 431.615315 153.158758 
L 432.017164 153.979712 
L 432.419013 156.941823 
L 433.624561 174.875026 
L 434.02641 178.505568 
L 435.231958 158.073535 
L 436.437506 163.834099 
L 437.241205 152.8084 
L 438.044903 126.822806 
L 439.250451 129.571803 
L 439.652301 148.395832 
L 440.05415 156.925633 
L 440.455999 140.70973 
L 440.857848 129.05061 
L 442.063396 103.569347 
L 442.465246 99.023145 
L 442.867095 88.966805 
L 443.268944 91.824413 
L 443.670794 69.628059 
L 444.876341 75.508594 
L 445.278191 76.175991 
L 445.68004 85.879936 
L 446.081889 70.25984 
L 446.483739 91.647632 
L 447.689287 88.417582 
L 448.091136 81.035864 
L 448.492985 84.904602 
L 448.894834 92.528636 
L 449.296684 97.009933 
L 450.502232 114.194718 
L 450.904081 114.938197 
L 451.30593 134.12532 
L 451.70778 130.15616 
L 452.109629 118.531259 
L 453.315177 121.816934 
L 453.717026 114.297188 
L 454.118875 120.25168 
L 454.520725 84.332637 
L 454.922574 71.804631 
L 456.128122 72.991948 
L 456.529971 75.359851 
L 456.93182 70.006315 
L 457.735519 104.172017 
L 458.941067 90.800896 
L 459.342916 81.763799 
L 459.744766 70.099054 
L 460.146615 75.071174 
L 460.548464 87.916912 
L 461.754012 81.923238 
L 462.155861 75.400462 
L 462.557711 73.814061 
L 462.95956 81.287503 
L 463.361409 78.339993 
L 464.968806 97.020168 
L 465.370656 90.698426 
L 465.772505 95.932525 
L 466.174354 103.873139 
L 467.379902 116.526603 
L 468.58545 96.076381 
L 470.192847 95.268998 
L 470.594697 107.675112 
L 470.996546 115.541219 
L 471.398395 117.410007 
L 471.800244 132.014949 
L 473.005792 109.087748 
L 473.407642 111.995508 
L 473.809491 138.645075 
L 474.21134 127.446203 
L 474.61319 123.328762 
L 475.818737 118.418128 
L 476.220587 119.508493 
L 476.622436 127.044516 
L 477.426135 154.029956 
L 479.033532 159.52665 
L 479.435381 167.070249 
L 479.83723 168.006492 
L 480.23908 170.399296 
L 481.444628 192.851479 
L 481.846477 192.383101 
L 482.248326 186.706193 
L 482.650176 182.76045 
L 483.052025 132.000752 
L 484.257573 119.991793 
L 484.659422 127.938836 
L 485.061271 125.797735 
L 485.463121 124.692285 
L 485.86497 127.920052 
L 487.070518 120.377759 
L 487.472367 99.73191 
L 487.874216 89.741221 
L 488.677915 107.358156 
L 489.883463 100.646705 
L 490.285312 93.23082 
L 490.687162 92.44708 
L 491.089011 130.52127 
L 491.49086 151.896334 
L 493.098257 158.401861 
L 493.500107 171.207382 
L 493.901956 155.365747 
L 494.303805 147.284266 
L 495.509353 144.787107 
L 495.911202 160.138032 
L 496.714901 144.654114 
L 497.11675 143.599068 
L 498.322298 153.192582 
L 498.724148 171.898287 
L 499.125997 150.959352 
L 499.527846 152.36264 
L 499.929695 156.143528 
L 501.135243 157.921085 
L 501.537093 137.949094 
L 501.938942 133.491851 
L 502.340791 136.075976 
L 502.742641 129.008437 
L 503.948188 122.050052 
L 504.350038 121.89007 
L 504.751887 118.468979 
L 505.555586 93.242492 
L 506.761134 86.408392 
L 507.162983 89.29628 
L 507.564832 77.852988 
L 507.966681 75.393868 
L 508.368531 58.521145 
L 509.574079 58.799588 
L 509.975928 80.096475 
L 510.377777 95.112064 
L 510.779627 101.408103 
L 511.181476 112.37681 
L 512.387024 135.672487 
L 512.788873 134.022975 
L 513.190722 137.643345 
L 513.592572 151.422341 
L 515.199969 154.829039 
L 515.601818 158.513486 
L 516.003667 156.588898 
L 516.405517 151.673567 
L 516.807366 160.2233 
L 518.414763 176.097021 
L 518.816613 171.843743 
L 519.218462 147.428346 
L 519.620311 154.259367 
L 520.825859 145.735946 
L 521.227708 146.896325 
L 521.629558 136.505755 
L 522.031407 144.115001 
L 522.433256 141.970672 
L 523.638804 155.512259 
L 524.040653 149.451673 
L 524.442503 158.234623 
L 524.844352 157.494366 
L 525.246201 150.457984 
L 526.451749 144.882338 
L 526.853599 137.711827 
L 527.255448 161.085613 
L 527.657297 158.543058 
L 528.059146 158.691097 
L 529.264694 150.704431 
L 529.666544 166.942272 
L 530.068393 156.585868 
L 530.470242 150.680636 
L 530.872092 130.895951 
L 532.479489 136.93063 
L 533.283187 107.524503 
L 533.685037 130.34897 
L 534.890585 125.32571 
L 535.292434 127.826449 
L 535.694283 107.062748 
L 536.096132 112.870712 
L 536.497982 127.683041 
L 537.70353 152.336529 
L 538.507228 138.108203 
L 539.310927 169.684477 
L 540.918324 155.017452 
L 541.320173 155.610198 
L 541.722023 154.432335 
L 542.123872 135.095084 
L 543.32942 137.011992 
L 543.731269 151.725883 
L 544.534968 140.387091 
L 544.936817 122.088927 
L 546.544214 100.342418 
L 546.946064 99.41284 
L 547.347913 97.991347 
L 547.749762 75.472336 
L 548.95531 87.366791 
L 549.357159 93.768002 
L 549.759009 93.099994 
L 550.160858 92.972035 
L 550.562707 96.795037 
L 551.768255 109.616351 
L 552.170104 83.560788 
L 552.571954 83.130836 
L 552.973803 67.553909 
L 553.375652 76.981727 
L 554.5812 87.306306 
L 554.98305 96.653371 
L 555.384899 92.745967 
L 555.786748 93.018393 
L 556.188597 74.477911 
L 557.394145 80.376639 
L 557.795995 85.176643 
L 558.197844 80.565445 
L 558.599693 84.225635 
L 559.001543 71.958157 
L 560.20709 79.975303 
L 560.60894 83.570937 
L 561.010789 79.931418 
L 561.412638 77.374443 
L 561.814488 66.637875 
L 563.020036 58.507928 
L 563.421885 65.006194 
L 563.823734 63.792003 
L 564.627433 84.737945 
L 565.832981 97.826442 
L 566.23483 120.279304 
L 566.636679 117.309361 
L 567.038529 106.550061 
L 567.440378 130.867083 
L 568.645926 137.74872 
L 569.047775 161.176065 
L 569.449624 163.110297 
L 569.851474 177.365859 
L 570.253323 186.586387 
L 571.86072 187.952432 
L 572.262569 188.445208 
L 572.664419 189.672109 
L 573.066268 171.512552 
L 574.271816 138.90164 
L 574.673665 157.413292 
L 575.075515 153.949786 
L 575.477364 165.703558 
L 575.879213 158.770078 
L 577.084761 143.131889 
L 577.48661 131.448165 
L 578.290309 138.608971 
L 578.692158 138.928254 
L 579.897706 135.426286 
L 580.701405 137.44184 
L 581.505103 181.997519 
L 583.112501 148.439654 
L 583.51435 141.766516 
L 583.916199 140.247051 
L 584.318048 162.285853 
L 585.523596 169.820523 
L 585.925446 167.211361 
L 586.327295 166.670346 
L 586.729144 145.993536 
L 587.130994 155.492283 
L 588.336541 146.899988 
L 588.738391 140.012298 
L 589.14024 122.994902 
L 589.542089 111.314896 
L 589.943939 112.24144 
L 591.149487 116.146321 
L 591.551336 109.500783 
L 591.953185 115.982731 
L 592.355034 113.539049 
L 592.756884 94.141406 
L 593.962432 96.817943 
L 594.364281 102.172865 
L 594.76613 122.663708 
L 595.16798 125.69309 
L 595.569829 134.393046 
L 596.775377 136.188034 
L 597.177226 135.122585 
L 597.579075 142.276113 
L 597.980925 126.890862 
L 598.382774 125.83745 
L 599.588322 132.912919 
L 600.39202 119.071708 
L 600.79387 136.893577 
L 601.195719 130.672754 
L 602.401267 131.933853 
L 603.204966 92.10846 
L 604.008664 101.563785 
L 605.214212 114.118776 
L 605.616061 122.921241 
L 606.017911 98.810388 
L 606.41976 122.515415 
L 606.821609 132.456068 
L 608.027157 131.756958 
L 608.429006 147.427876 
L 608.830856 149.031674 
L 609.232705 149.812667 
L 609.634554 152.920392 
L 610.840102 137.071326 
L 611.241952 141.137917 
L 612.04565 157.287809 
L 612.447499 153.703089 
L 613.653047 151.840439 
L 614.054897 183.305955 
L 614.456746 168.413079 
L 614.858595 172.936142 
L 615.260445 171.671938 
L 616.867842 168.449313 
L 617.269691 171.879258 
L 617.67154 164.006621 
L 618.07339 161.866409 
L 619.680787 178.58618 
L 620.484485 176.147746 
L 620.886335 146.570474 
L 622.091883 139.858843 
L 622.895581 123.154242 
L 623.297431 133.23235 
L 623.69928 117.900931 
L 625.306677 112.951921 
L 625.708526 108.559277 
L 626.110376 88.980195 
L 626.512225 91.470606 
L 627.717773 84.554015 
L 628.119622 50.52551 
L 628.521471 57.088077 
L 628.923321 44.601737 
L 629.32517 46.351613 
L 630.530718 70.388631 
L 630.932567 69.163869 
L 631.334417 72.081059 
L 631.736266 63.29031 
L 632.138115 60.705145 
L 633.343663 76.694349 
L 633.745512 69.334188 
L 634.147362 81.31834 
L 634.549211 89.605933 
L 634.95106 95.058606 
L 636.156608 92.229271 
L 636.960307 92.089084 
L 637.362156 102.518878 
L 637.764005 95.448198 
L 639.371403 113.761931 
L 639.773252 115.588819 
L 640.175101 130.835246 
L 640.57695 154.298919 
L 641.782498 140.578085 
L 642.184348 156.91355 
L 642.586197 155.017622 
L 642.988046 148.135274 
L 643.389896 126.563049 
L 644.595443 126.711208 
L 644.997293 132.22514 
L 645.399142 135.509673 
L 645.800991 137.614397 
L 646.202841 140.411512 
L 647.810238 113.934507 
L 648.212087 114.204355 
L 648.613936 95.178944 
L 649.015786 101.946705 
L 650.221334 94.061755 
L 650.623183 80.736737 
L 651.426882 97.479017 
L 651.828731 101.493623 
L 653.034279 100.191305 
L 653.436128 107.194044 
L 654.239827 71.070711 
L 654.641676 70.146467 
L 655.847224 71.541233 
L 656.249073 75.660222 
L 656.650922 93.334537 
L 657.052772 86.056764 
L 658.660169 107.383111 
L 659.062018 120.130858 
L 659.463868 116.579839 
L 659.865717 102.232986 
L 660.267566 107.665769 
L 661.473114 97.785779 
L 661.874963 90.974754 
L 662.276813 96.371146 
L 662.678662 107.157061 
L 663.080511 126.067254 
L 664.286059 130.826523 
L 664.687908 135.441173 
L 665.089758 126.637128 
L 665.893456 91.359747 
L 667.099004 83.724386 
L 667.500854 86.16196 
L 667.902703 115.002978 
L 668.304552 123.346848 
L 668.706401 94.320729 
L 669.911949 98.029601 
L 670.313799 110.19222 
L 671.117497 91.020072 
L 671.519347 96.931794 
L 672.724894 91.150295 
L 673.126744 91.093001 
L 673.528593 103.81627 
L 673.930442 99.853854 
L 674.332292 98.926727 
L 675.53784 98.378532 
L 675.939689 107.332704 
L 676.341538 96.788581 
L 676.743387 129.057401 
L 677.145237 113.532722 
L 678.752634 92.116221 
L 679.154483 100.218424 
L 679.958182 78.981434 
L 681.565579 88.842555 
L 681.967428 100.600924 
L 682.369278 99.19433 
L 682.771127 98.219422 
L 683.976675 83.788518 
L 684.378524 68.190976 
L 684.780373 67.516322 
L 685.182223 65.917592 
L 685.584072 79.233607 
L 687.191469 84.141701 
L 687.593319 91.684315 
L 687.995168 91.033567 
L 688.397017 96.221317 
L 689.602565 96.500938 
L 690.406264 72.776386 
L 690.808113 78.351999 
L 691.209962 69.792806 
L 692.41551 86.302918 
L 693.219209 90.479627 
L 693.621058 90.929472 
L 694.022907 104.432516 
L 695.228455 109.913633 
L 695.630305 113.010031 
L 696.032154 101.597772 
L 696.434003 109.626319 
L 696.835852 107.200434 
L 698.0414 88.09335 
L 698.44325 98.225485 
L 698.845099 97.599488 
L 699.246948 110.446711 
L 699.648798 137.609077 
L 700.854345 125.004742 
L 701.256195 113.543807 
L 701.658044 111.618638 
L 702.059893 112.580302 
L 702.461743 87.900817 
L 703.667291 81.958363 
L 704.06914 93.897253 
L 704.470989 116.548131 
L 704.872838 124.409534 
L 705.274688 169.884619 
L 706.882085 177.064597 
L 707.283934 176.501752 
L 707.685784 174.911913 
L 708.087633 178.932061 
L 709.293181 174.639383 
L 709.69503 182.323123 
L 710.096879 181.769856 
L 710.498729 199.277157 
L 710.900578 200.048756 
L 712.106126 191.460346 
L 712.507975 179.834176 
L 712.909824 158.241886 
L 713.311674 147.022676 
L 713.713523 126.632389 
L 714.919071 124.207095 
L 715.32092 104.967651 
L 715.72277 95.602363 
L 716.124619 95.267311 
L 716.526468 95.434444 
L 718.133865 86.050645 
L 718.535715 109.225734 
L 718.937564 117.588624 
L 719.339413 117.290901 
L 720.544961 117.680692 
L 720.94681 128.901946 
L 721.34866 144.280688 
L 721.750509 128.425767 
L 722.152358 137.163837 
L 723.357906 132.863632 
L 723.759756 142.094458 
L 724.161605 163.797388 
L 724.965303 170.603735 
L 726.170851 166.146198 
L 726.572701 161.225164 
L 726.97455 152.441367 
L 727.376399 154.121303 
L 727.778248 157.327013 
L 728.983796 136.441835 
L 729.385646 133.811812 
L 729.787495 134.976147 
L 730.189344 127.029358 
L 730.591194 128.550059 
L 731.796741 126.950761 
L 732.60044 100.210637 
L 733.002289 100.048635 
L 733.404139 114.523111 
L 734.609687 90.409683 
L 735.011536 90.705247 
L 735.413385 100.639057 
L 735.815234 105.02107 
L 736.217084 131.052568 
L 737.422632 123.377387 
L 737.824481 127.891235 
L 738.22633 147.02099 
L 738.62818 178.573244 
L 739.030029 179.873525 
L 740.235577 163.826805 
L 740.637426 170.050735 
L 741.039275 155.671396 
L 741.441125 131.74722 
L 741.842974 134.635286 
L 743.048522 118.917956 
L 743.450371 105.502822 
L 743.85222 101.036568 
L 744.655919 82.827908 
L 745.861467 90.793896 
L 746.263316 75.901197 
L 746.665166 52.5882 
L 747.067015 52.309011 
L 747.468864 54.094728 
L 748.674412 53.034075 
L 749.076261 61.357003 
L 749.478111 65.35697 
L 750.281809 68.339337 
L 751.487357 74.534661 
L 751.889206 79.315007 
L 752.291056 90.496947 
L 752.692905 85.037444 
L 753.094754 95.616701 
L 754.300302 97.377919 
L 754.702152 91.965022 
L 755.104001 102.431695 
L 755.50585 101.401229 
L 755.907699 95.870192 
L 757.113247 118.147883 
L 757.916946 98.763018 
L 758.318795 90.623739 
L 758.720645 92.784797 
L 759.926192 103.866632 
L 760.328042 95.266923 
L 760.729891 107.681309 
L 761.13174 112.620565 
L 761.53359 109.096048 
L 763.140987 128.473566 
L 763.542836 122.289781 
L 763.944685 130.582309 
L 764.346535 145.257165 
L 765.953932 161.423866 
L 766.355781 175.226927 
L 766.757631 204.671572 
L 767.15948 206.573579 
L 768.365028 174.243796 
L 768.766877 171.617682 
L 769.168726 171.617682 
L 769.570576 168.058541 
L 769.972425 165.575345 
L 771.981671 169.498248 
L 772.383521 141.524349 
L 772.78537 132.758922 
L 773.990918 122.677533 
L 774.392767 93.096428 
L 774.794617 89.626235 
L 775.196466 78.700587 
L 775.598315 84.462048 
L 776.803863 99.529087 
L 777.607562 132.822672 
L 778.009411 122.527013 
L 778.41126 126.858533 
L 779.616808 113.627714 
L 780.018657 105.84406 
L 780.822356 140.284198 
L 781.224205 148.354464 
L 782.831603 165.002064 
L 783.233452 166.358659 
L 783.635301 162.685211 
L 784.03715 164.911467 
L 785.644548 156.52544 
L 786.046397 136.974569 
L 786.448246 139.564899 
L 786.850096 143.534443 
L 788.055643 161.897564 
L 788.457493 163.04674 
L 788.859342 167.817232 
L 789.261191 166.528077 
L 789.663041 175.748707 
L 790.868589 182.096599 
L 791.270438 186.912225 
L 791.672287 187.073465 
L 792.074136 186.82361 
L 792.475986 173.181042 
L 793.681534 160.239126 
L 794.083383 161.701989 
L 794.485232 177.607053 
L 794.887082 163.256441 
L 795.288931 160.846345 
L 796.494479 162.894966 
L 797.298177 134.116377 
L 797.700027 150.765986 
L 798.101876 135.880228 
L 799.307424 123.909877 
L 799.709273 124.444964 
L 800.111122 112.544355 
L 800.512972 124.193237 
L 802.120369 135.677487 
L 802.522218 140.873691 
L 802.924068 131.658221 
L 803.325917 141.365997 
L 803.727766 137.199896 
L 804.933314 144.928262 
L 805.335163 149.853216 
L 805.737013 167.162403 
L 806.138862 112.958423 
L 806.540711 111.088649 
L 807.746259 120.508734 
L 808.148108 127.658389 
L 808.549958 144.353828 
L 808.951807 141.918758 
L 809.353656 143.586595 
L 810.559204 136.873406 
L 810.961054 135.936706 
L 811.362903 125.990566 
L 811.764752 125.638707 
L 812.166601 123.848175 
L 813.372149 115.244865 
L 813.773999 119.344853 
L 814.175848 146.847828 
L 814.577697 138.087612 
L 814.979547 98.193497 
L 816.185094 92.247875 
L 816.586944 85.642758 
L 816.988793 81.094402 
L 817.390642 69.501341 
L 817.792492 76.335087 
L 818.99804 73.574705 
L 819.399889 74.760746 
L 819.801738 73.040203 
L 820.203587 70.402221 
L 820.605437 75.61235 
L 822.212834 50.896792 
L 822.614683 62.748605 
L 823.016533 109.346648 
L 823.418382 89.912143 
L 825.025779 91.763824 
L 825.427628 91.875408 
L 825.829478 94.307325 
L 826.231327 83.306587 
L 827.436875 87.304025 
L 828.240573 92.502172 
L 828.642423 102.664603 
L 829.044272 94.530469 
L 830.24982 118.183677 
L 830.651669 87.705484 
L 831.053519 74.750333 
L 831.455368 57.760407 
L 831.857217 67.864196 
L 833.062765 64.14895 
L 834.268313 88.871165 
L 834.670162 96.151834 
L 835.87571 97.72321 
L 836.277559 96.865552 
L 836.679409 93.372308 
L 837.081258 88.671321 
L 837.483107 100.636354 
L 838.688655 83.902034 
L 839.090505 96.963423 
L 839.492354 105.07198 
L 840.296052 98.588232 
L 841.5016 90.864731 
L 841.90345 96.119474 
L 842.305299 81.468552 
L 842.707148 84.26542 
L 843.108998 73.087206 
L 844.314545 70.07644 
L 844.716395 70.525101 
L 845.118244 93.901193 
L 845.520093 107.179466 
L 845.921943 98.277591 
L 847.127491 109.543546 
L 847.52934 114.660048 
L 848.333038 148.167757 
L 848.734888 151.262908 
L 849.940436 153.115793 
L 850.342285 166.597435 
L 850.744134 143.153597 
L 851.145984 162.428645 
L 851.547833 172.733877 
L 852.753381 187.090767 
L 853.15523 183.383393 
L 853.557079 166.606017 
L 854.360778 144.935307 
L 855.566326 143.561611 
L 855.968175 119.140851 
L 856.370024 115.19255 
L 856.771874 109.872263 
L 857.173723 107.858241 
L 858.379271 109.364345 
L 858.78112 114.83513 
L 859.18297 103.54502 
L 859.584819 113.072671 
L 859.986668 62.068711 
L 861.192216 48.371992 
L 861.594065 49.63973 
L 861.995915 65.366782 
L 862.397764 64.774123 
L 862.799613 73.329632 
L 864.80886 130.023526 
L 865.210709 136.32992 
L 865.612558 148.085435 
L 866.818106 147.122151 
L 867.219956 152.759373 
L 867.621805 140.451791 
L 868.023654 133.616448 
L 868.425503 145.452238 
L 869.631051 163.799283 
L 870.032901 165.634411 
L 870.836599 129.160742 
L 871.238449 128.839249 
L 872.443996 114.922628 
L 872.845846 105.266641 
L 873.247695 113.315262 
L 873.649544 103.939413 
L 874.051394 103.478571 
L 875.256942 89.119492 
L 875.658791 117.494036 
L 876.06064 116.436695 
L 876.462489 118.751118 
L 876.864339 96.585942 
L 878.069887 114.314815 
L 878.471736 113.922861 
L 878.873585 124.739423 
L 879.275435 124.245803 
L 879.677284 123.540202 
L 880.882832 116.261773 
L 881.284681 107.706282 
L 881.68653 116.114 
L 882.08838 115.894927 
L 882.490229 121.387775 
L 883.695777 95.038878 
L 884.097626 98.745465 
L 884.499475 112.790854 
L 884.901325 116.097523 
L 885.303174 95.551332 
L 886.508722 100.385644 
L 887.71427 131.850508 
L 888.116119 153.99519 
L 889.321667 167.566484 
L 889.723516 156.109546 
L 890.125366 159.559364 
L 890.527215 151.166726 
L 890.929064 158.188567 
L 892.134612 162.64987 
L 892.536461 150.589447 
L 892.938311 145.925385 
L 893.34016 136.647876 
L 893.742009 153.228566 
L 894.947557 142.724706 
L 895.349407 131.854191 
L 895.751256 113.985006 
L 896.554954 93.159902 
L 897.760502 89.251519 
L 898.162352 80.696867 
L 898.564201 92.442648 
L 899.3679 84.761369 
L 900.573447 63.344477 
L 900.975297 59.641048 
L 901.377146 60.218971 
L 901.778995 64.102678 
L 902.180845 39.677215 
L 903.386393 39.331867 
L 903.788242 39.06 
L 904.190091 50.077776 
L 904.59194 45.259876 
L 904.99379 46.000343 
L 906.199338 46.06019 
L 906.601187 45.895214 
L 907.003036 80.441187 
L 907.404886 81.66332 
L 907.806735 77.425354 
L 909.012283 81.36142 
L 909.414132 76.969046 
L 910.217831 75.771151 
L 910.61968 90.021323 
L 913.432625 138.248136 
L 914.638173 134.240268 
L 915.040022 148.152206 
L 915.441872 154.288667 
L 916.24557 155.043355 
L 917.451118 164.943087 
L 917.852967 184.902587 
L 918.254817 169.686285 
L 918.656666 189.720309 
L 919.058515 186.624735 
L 920.665912 189.360788 
L 921.067762 183.13671 
L 921.469611 181.794813 
L 921.87146 176.193887 
L 923.077008 153.929553 
L 923.478858 138.547216 
L 923.880707 131.836992 
L 924.282556 135.736356 
L 924.684405 128.282274 
L 925.889953 137.748663 
L 926.291803 127.419155 
L 926.693652 136.129777 
L 927.095501 116.20503 
L 927.497351 131.189094 
L 929.104748 107.855624 
L 929.908446 92.957188 
L 930.310296 97.904035 
L 931.917693 111.749291 
L 932.319542 113.127914 
L 932.721391 106.339303 
L 933.123241 102.418071 
L 934.328789 69.284453 
L 934.730638 76.20162 
L 935.132487 103.650924 
L 935.534337 115.187626 
L 935.936186 87.313124 
L 937.141734 101.00962 
L 938.347282 148.226982 
L 938.749131 145.431664 
L 941.160227 187.910327 
L 941.562076 181.804537 
L 942.767624 180.449896 
L 943.169473 176.281095 
L 943.571323 166.601474 
L 943.973172 180.381359 
L 944.375021 164.641226 
L 945.580569 155.659247 
L 945.982418 148.296412 
L 946.384268 150.735429 
L 946.786117 153.928512 
L 947.187966 145.865324 
L 948.393514 123.908785 
L 948.795363 112.628573 
L 949.197213 88.614248 
L 949.599062 145.303948 
L 950.000911 163.105028 
L 951.206459 167.638734 
L 951.608309 178.22147 
L 952.010158 140.54235 
L 952.412007 151.032284 
L 952.813856 145.498148 
L 954.019404 144.162153 
L 954.421254 142.90374 
L 954.823103 150.291254 
L 955.224952 143.835905 
L 956.832349 150.538926 
L 957.234199 145.098271 
L 957.636048 141.316475 
L 958.439747 105.506267 
L 959.645295 95.638026 
L 960.047144 80.522551 
L 960.448993 102.944722 
L 960.850842 80.459121 
L 961.252692 112.191963 
L 962.45824 133.611588 
L 962.860089 133.611561 
L 963.261938 122.345194 
L 963.663788 125.493191 
L 964.065637 113.744729 
L 965.271185 103.006891 
L 965.673034 107.534109 
L 966.074883 116.479405 
L 966.476733 120.767741 
L 966.878582 123.228895 
L 968.08413 131.713055 
L 968.485979 139.080164 
L 968.887828 149.810509 
L 969.289678 136.025798 
L 969.691527 135.195867 
L 971.298924 122.188714 
L 971.700774 116.072028 
L 972.102623 120.021208 
L 972.504472 120.336163 
L 973.71002 158.372349 
L 974.111869 161.085018 
L 974.513719 160.74241 
L 974.915568 163.609278 
L 975.317417 149.198616 
L 976.522965 149.175168 
L 976.924814 139.819544 
L 977.326664 137.363987 
L 977.728513 133.712057 
L 978.130362 122.268291 
L 979.33591 134.133558 
L 979.73776 144.615487 
L 980.139609 139.080356 
L 980.943307 126.150031 
L 982.148855 127.294467 
L 982.550705 136.52563 
L 983.354403 125.368763 
L 983.756253 137.650688 
L 984.9618 113.107035 
L 985.36365 108.879574 
L 985.765499 80.754074 
L 986.167348 79.586016 
L 987.774745 83.636466 
L 988.176595 87.190269 
L 988.578444 70.562641 
L 988.980293 70.080614 
L 989.382143 85.416422 
L 990.587691 100.068427 
L 990.98954 92.817455 
L 991.391389 93.340628 
L 992.195088 88.558897 
L 993.802485 97.794514 
L 994.204334 117.244928 
L 994.606184 125.433599 
L 995.008033 98.114906 
L 996.213581 97.561267 
L 997.017279 146.834603 
L 997.419129 147.907139 
L 997.820978 158.357463 
L 999.026526 155.183191 
L 999.428375 163.719236 
L 999.830224 115.9654 
L 1000.633923 88.851368 
L 1001.839471 97.429392 
L 1002.24132 93.09071 
L 1002.64317 87.32475 
L 1003.045019 88.992653 
L 1003.446868 92.391107 
L 1004.652416 86.707843 
L 1005.054265 81.090703 
L 1005.456115 90.008196 
L 1005.857964 77.912826 
L 1006.259813 76.023673 
L 1007.465361 76.558649 
L 1008.26906 95.46573 
L 1008.670909 113.652897 
L 1008.670909 113.652897 
" clip-path="url(#p9ebf7dd7a0)" style="fill: none; stroke: #1f77b4; stroke-width: 1.5; stroke-linecap: square"/>
   </g>
   <g id="patch_3">
    <path d="M 145.8 224.28 
L 145.8 30.24 
" style="fill: none; stroke: #000000; stroke-width: 0.8; stroke-linejoin: miter; stroke-linecap: square"/>
   </g>
   <g id="patch_4">
    <path d="M 145.8 224.28 
L 1049.76 224.28 
" style="fill: none; stroke: #000000; stroke-width: 0.8; stroke-linejoin: miter; stroke-linecap: square"/>
   </g>
  </g>
 </g>
 <defs>
  <clipPath id="p9ebf7dd7a0">
   <rect x="145.8" y="30.24" width="903.96" height="194.04"/>
  </clipPath>
 </defs>
</svg>
