<?xml version="1.0" encoding="utf-8" standalone="no"?>
<!DOCTYPE svg PUBLIC "-//W3C//DTD SVG 1.1//EN"
  "http://www.w3.org/Graphics/SVG/1.1/DTD/svg11.dtd">
<svg xmlns:xlink="http://www.w3.org/1999/xlink" width="1166.4pt" height="252pt" viewBox="0 0 1166.4 252" xmlns="http://www.w3.org/2000/svg" version="1.1">
 <metadata>
  <rdf:RDF xmlns:dc="http://purl.org/dc/elements/1.1/" xmlns:cc="http://creativecommons.org/ns#" xmlns:rdf="http://www.w3.org/1999/02/22-rdf-syntax-ns#">
   <cc:Work>
    <dc:type rdf:resource="http://purl.org/dc/dcmitype/StillImage"/>
    <dc:date>2025-09-06T14:16:06.077521</dc:date>
    <dc:format>image/svg+xml</dc:format>
    <dc:creator>
     <cc:Agent>
      <dc:title>Matplotlib v3.10.5, https://matplotlib.org/</dc:title>
     </cc:Agent>
    </dc:creator>
   </cc:Work>
  </rdf:RDF>
 </metadata>
 <defs>
  <style type="text/css">*{stroke-linejoin: round; stroke-linecap: butt}</style>
 </defs>
 <g id="figure_1">
  <g id="patch_1">
   <path d="M 0 252 
L 1166.4 252 
L 1166.4 0 
L 0 0 
z
" style="fill: #ffffff"/>
  </g>
  <g id="axes_1">
   <g id="patch_2">
    <path d="M 145.8 224.28 
L 1049.76 224.28 
L 1049.76 30.24 
L 145.8 30.24 
z
" style="fill: #ffffff"/>
   </g>
   <g id="matplotlib.axis_1">
    <g id="xtick_1">
     <g id="line2d_1">
      <defs>
       <path id="m2e6aa9649d" d="M 0 0 
L 0 3.5 
" style="stroke: #000000; stroke-width: 0.8"/>
      </defs>
      <g>
       <use xlink:href="#m2e6aa9649d" x="189.861177" y="224.28" style="stroke: #000000; stroke-width: 0.8"/>
      </g>
     </g>
     <g id="text_1">
      <!-- 2024-03 -->
      <g transform="translate(168.969771 238.878438) scale(0.1 -0.1)">
       <defs>
        <path id="DejaVuSans-32" d="M 1228 531 
L 3431 531 
L 3431 0 
L 469 0 
L 469 531 
Q 828 903 1448 1529 
Q 2069 2156 2228 2338 
Q 2531 2678 2651 2914 
Q 2772 3150 2772 3378 
Q 2772 3750 2511 3984 
Q 2250 4219 1831 4219 
Q 1534 4219 1204 4116 
Q 875 4013 500 3803 
L 500 4441 
Q 881 4594 1212 4672 
Q 1544 4750 1819 4750 
Q 2544 4750 2975 4387 
Q 3406 4025 3406 3419 
Q 3406 3131 3298 2873 
Q 3191 2616 2906 2266 
Q 2828 2175 2409 1742 
Q 1991 1309 1228 531 
z
" transform="scale(0.015625)"/>
        <path id="DejaVuSans-30" d="M 2034 4250 
Q 1547 4250 1301 3770 
Q 1056 3291 1056 2328 
Q 1056 1369 1301 889 
Q 1547 409 2034 409 
Q 2525 409 2770 889 
Q 3016 1369 3016 2328 
Q 3016 3291 2770 3770 
Q 2525 4250 2034 4250 
z
M 2034 4750 
Q 2819 4750 3233 4129 
Q 3647 3509 3647 2328 
Q 3647 1150 3233 529 
Q 2819 -91 2034 -91 
Q 1250 -91 836 529 
Q 422 1150 422 2328 
Q 422 3509 836 4129 
Q 1250 4750 2034 4750 
z
" transform="scale(0.015625)"/>
        <path id="DejaVuSans-34" d="M 2419 4116 
L 825 1625 
L 2419 1625 
L 2419 4116 
z
M 2253 4666 
L 3047 4666 
L 3047 1625 
L 3713 1625 
L 3713 1100 
L 3047 1100 
L 3047 0 
L 2419 0 
L 2419 1100 
L 313 1100 
L 313 1709 
L 2253 4666 
z
" transform="scale(0.015625)"/>
        <path id="DejaVuSans-2d" d="M 313 2009 
L 1997 2009 
L 1997 1497 
L 313 1497 
L 313 2009 
z
" transform="scale(0.015625)"/>
        <path id="DejaVuSans-33" d="M 2597 2516 
Q 3050 2419 3304 2112 
Q 3559 1806 3559 1356 
Q 3559 666 3084 287 
Q 2609 -91 1734 -91 
Q 1441 -91 1130 -33 
Q 819 25 488 141 
L 488 750 
Q 750 597 1062 519 
Q 1375 441 1716 441 
Q 2309 441 2620 675 
Q 2931 909 2931 1356 
Q 2931 1769 2642 2001 
Q 2353 2234 1838 2234 
L 1294 2234 
L 1294 2753 
L 1863 2753 
Q 2328 2753 2575 2939 
Q 2822 3125 2822 3475 
Q 2822 3834 2567 4026 
Q 2313 4219 1838 4219 
Q 1578 4219 1281 4162 
Q 984 4106 628 3988 
L 628 4550 
Q 988 4650 1302 4700 
Q 1616 4750 1894 4750 
Q 2613 4750 3031 4423 
Q 3450 4097 3450 3541 
Q 3450 3153 3228 2886 
Q 3006 2619 2597 2516 
z
" transform="scale(0.015625)"/>
       </defs>
       <use xlink:href="#DejaVuSans-32"/>
       <use xlink:href="#DejaVuSans-30" transform="translate(63.623047 0)"/>
       <use xlink:href="#DejaVuSans-32" transform="translate(127.246094 0)"/>
       <use xlink:href="#DejaVuSans-34" transform="translate(190.869141 0)"/>
       <use xlink:href="#DejaVuSans-2d" transform="translate(254.492188 0)"/>
       <use xlink:href="#DejaVuSans-30" transform="translate(290.576172 0)"/>
       <use xlink:href="#DejaVuSans-33" transform="translate(354.199219 0)"/>
      </g>
     </g>
    </g>
    <g id="xtick_2">
     <g id="line2d_2">
      <g>
       <use xlink:href="#m2e6aa9649d" x="280.509804" y="224.28" style="stroke: #000000; stroke-width: 0.8"/>
      </g>
     </g>
     <g id="text_2">
      <!-- 2024-05 -->
      <g transform="translate(259.618398 238.878438) scale(0.1 -0.1)">
       <defs>
        <path id="DejaVuSans-35" d="M 691 4666 
L 3169 4666 
L 3169 4134 
L 1269 4134 
L 1269 2991 
Q 1406 3038 1543 3061 
Q 1681 3084 1819 3084 
Q 2600 3084 3056 2656 
Q 3513 2228 3513 1497 
Q 3513 744 3044 326 
Q 2575 -91 1722 -91 
Q 1428 -91 1123 -41 
Q 819 9 494 109 
L 494 744 
Q 775 591 1075 516 
Q 1375 441 1709 441 
Q 2250 441 2565 725 
Q 2881 1009 2881 1497 
Q 2881 1984 2565 2268 
Q 2250 2553 1709 2553 
Q 1456 2553 1204 2497 
Q 953 2441 691 2322 
L 691 4666 
z
" transform="scale(0.015625)"/>
       </defs>
       <use xlink:href="#DejaVuSans-32"/>
       <use xlink:href="#DejaVuSans-30" transform="translate(63.623047 0)"/>
       <use xlink:href="#DejaVuSans-32" transform="translate(127.246094 0)"/>
       <use xlink:href="#DejaVuSans-34" transform="translate(190.869141 0)"/>
       <use xlink:href="#DejaVuSans-2d" transform="translate(254.492188 0)"/>
       <use xlink:href="#DejaVuSans-30" transform="translate(290.576172 0)"/>
       <use xlink:href="#DejaVuSans-35" transform="translate(354.199219 0)"/>
      </g>
     </g>
    </g>
    <g id="xtick_3">
     <g id="line2d_3">
      <g>
       <use xlink:href="#m2e6aa9649d" x="371.158432" y="224.28" style="stroke: #000000; stroke-width: 0.8"/>
      </g>
     </g>
     <g id="text_3">
      <!-- 2024-07 -->
      <g transform="translate(350.267025 238.878438) scale(0.1 -0.1)">
       <defs>
        <path id="DejaVuSans-37" d="M 525 4666 
L 3525 4666 
L 3525 4397 
L 1831 0 
L 1172 0 
L 2766 4134 
L 525 4134 
L 525 4666 
z
" transform="scale(0.015625)"/>
       </defs>
       <use xlink:href="#DejaVuSans-32"/>
       <use xlink:href="#DejaVuSans-30" transform="translate(63.623047 0)"/>
       <use xlink:href="#DejaVuSans-32" transform="translate(127.246094 0)"/>
       <use xlink:href="#DejaVuSans-34" transform="translate(190.869141 0)"/>
       <use xlink:href="#DejaVuSans-2d" transform="translate(254.492188 0)"/>
       <use xlink:href="#DejaVuSans-30" transform="translate(290.576172 0)"/>
       <use xlink:href="#DejaVuSans-37" transform="translate(354.199219 0)"/>
      </g>
     </g>
    </g>
    <g id="xtick_4">
     <g id="line2d_4">
      <g>
       <use xlink:href="#m2e6aa9649d" x="463.293102" y="224.28" style="stroke: #000000; stroke-width: 0.8"/>
      </g>
     </g>
     <g id="text_4">
      <!-- 2024-09 -->
      <g transform="translate(442.401696 238.878438) scale(0.1 -0.1)">
       <defs>
        <path id="DejaVuSans-39" d="M 703 97 
L 703 672 
Q 941 559 1184 500 
Q 1428 441 1663 441 
Q 2288 441 2617 861 
Q 2947 1281 2994 2138 
Q 2813 1869 2534 1725 
Q 2256 1581 1919 1581 
Q 1219 1581 811 2004 
Q 403 2428 403 3163 
Q 403 3881 828 4315 
Q 1253 4750 1959 4750 
Q 2769 4750 3195 4129 
Q 3622 3509 3622 2328 
Q 3622 1225 3098 567 
Q 2575 -91 1691 -91 
Q 1453 -91 1209 -44 
Q 966 3 703 97 
z
M 1959 2075 
Q 2384 2075 2632 2365 
Q 2881 2656 2881 3163 
Q 2881 3666 2632 3958 
Q 2384 4250 1959 4250 
Q 1534 4250 1286 3958 
Q 1038 3666 1038 3163 
Q 1038 2656 1286 2365 
Q 1534 2075 1959 2075 
z
" transform="scale(0.015625)"/>
       </defs>
       <use xlink:href="#DejaVuSans-32"/>
       <use xlink:href="#DejaVuSans-30" transform="translate(63.623047 0)"/>
       <use xlink:href="#DejaVuSans-32" transform="translate(127.246094 0)"/>
       <use xlink:href="#DejaVuSans-34" transform="translate(190.869141 0)"/>
       <use xlink:href="#DejaVuSans-2d" transform="translate(254.492188 0)"/>
       <use xlink:href="#DejaVuSans-30" transform="translate(290.576172 0)"/>
       <use xlink:href="#DejaVuSans-39" transform="translate(354.199219 0)"/>
      </g>
     </g>
    </g>
    <g id="xtick_5">
     <g id="line2d_5">
      <g>
       <use xlink:href="#m2e6aa9649d" x="553.941729" y="224.28" style="stroke: #000000; stroke-width: 0.8"/>
      </g>
     </g>
     <g id="text_5">
      <!-- 2024-11 -->
      <g transform="translate(533.050323 238.878438) scale(0.1 -0.1)">
       <defs>
        <path id="DejaVuSans-31" d="M 794 531 
L 1825 531 
L 1825 4091 
L 703 3866 
L 703 4441 
L 1819 4666 
L 2450 4666 
L 2450 531 
L 3481 531 
L 3481 0 
L 794 0 
L 794 531 
z
" transform="scale(0.015625)"/>
       </defs>
       <use xlink:href="#DejaVuSans-32"/>
       <use xlink:href="#DejaVuSans-30" transform="translate(63.623047 0)"/>
       <use xlink:href="#DejaVuSans-32" transform="translate(127.246094 0)"/>
       <use xlink:href="#DejaVuSans-34" transform="translate(190.869141 0)"/>
       <use xlink:href="#DejaVuSans-2d" transform="translate(254.492188 0)"/>
       <use xlink:href="#DejaVuSans-31" transform="translate(290.576172 0)"/>
       <use xlink:href="#DejaVuSans-31" transform="translate(354.199219 0)"/>
      </g>
     </g>
    </g>
    <g id="xtick_6">
     <g id="line2d_6">
      <g>
       <use xlink:href="#m2e6aa9649d" x="644.590357" y="224.28" style="stroke: #000000; stroke-width: 0.8"/>
      </g>
     </g>
     <g id="text_6">
      <!-- 2025-01 -->
      <g transform="translate(623.69895 238.878438) scale(0.1 -0.1)">
       <use xlink:href="#DejaVuSans-32"/>
       <use xlink:href="#DejaVuSans-30" transform="translate(63.623047 0)"/>
       <use xlink:href="#DejaVuSans-32" transform="translate(127.246094 0)"/>
       <use xlink:href="#DejaVuSans-35" transform="translate(190.869141 0)"/>
       <use xlink:href="#DejaVuSans-2d" transform="translate(254.492188 0)"/>
       <use xlink:href="#DejaVuSans-30" transform="translate(290.576172 0)"/>
       <use xlink:href="#DejaVuSans-31" transform="translate(354.199219 0)"/>
      </g>
     </g>
    </g>
    <g id="xtick_7">
     <g id="line2d_7">
      <g>
       <use xlink:href="#m2e6aa9649d" x="732.266898" y="224.28" style="stroke: #000000; stroke-width: 0.8"/>
      </g>
     </g>
     <g id="text_7">
      <!-- 2025-03 -->
      <g transform="translate(711.375492 238.878438) scale(0.1 -0.1)">
       <use xlink:href="#DejaVuSans-32"/>
       <use xlink:href="#DejaVuSans-30" transform="translate(63.623047 0)"/>
       <use xlink:href="#DejaVuSans-32" transform="translate(127.246094 0)"/>
       <use xlink:href="#DejaVuSans-35" transform="translate(190.869141 0)"/>
       <use xlink:href="#DejaVuSans-2d" transform="translate(254.492188 0)"/>
       <use xlink:href="#DejaVuSans-30" transform="translate(290.576172 0)"/>
       <use xlink:href="#DejaVuSans-33" transform="translate(354.199219 0)"/>
      </g>
     </g>
    </g>
    <g id="xtick_8">
     <g id="line2d_8">
      <g>
       <use xlink:href="#m2e6aa9649d" x="822.915525" y="224.28" style="stroke: #000000; stroke-width: 0.8"/>
      </g>
     </g>
     <g id="text_8">
      <!-- 2025-05 -->
      <g transform="translate(802.024119 238.878438) scale(0.1 -0.1)">
       <use xlink:href="#DejaVuSans-32"/>
       <use xlink:href="#DejaVuSans-30" transform="translate(63.623047 0)"/>
       <use xlink:href="#DejaVuSans-32" transform="translate(127.246094 0)"/>
       <use xlink:href="#DejaVuSans-35" transform="translate(190.869141 0)"/>
       <use xlink:href="#DejaVuSans-2d" transform="translate(254.492188 0)"/>
       <use xlink:href="#DejaVuSans-30" transform="translate(290.576172 0)"/>
       <use xlink:href="#DejaVuSans-35" transform="translate(354.199219 0)"/>
      </g>
     </g>
    </g>
    <g id="xtick_9">
     <g id="line2d_9">
      <g>
       <use xlink:href="#m2e6aa9649d" x="913.564153" y="224.28" style="stroke: #000000; stroke-width: 0.8"/>
      </g>
     </g>
     <g id="text_9">
      <!-- 2025-07 -->
      <g transform="translate(892.672746 238.878438) scale(0.1 -0.1)">
       <use xlink:href="#DejaVuSans-32"/>
       <use xlink:href="#DejaVuSans-30" transform="translate(63.623047 0)"/>
       <use xlink:href="#DejaVuSans-32" transform="translate(127.246094 0)"/>
       <use xlink:href="#DejaVuSans-35" transform="translate(190.869141 0)"/>
       <use xlink:href="#DejaVuSans-2d" transform="translate(254.492188 0)"/>
       <use xlink:href="#DejaVuSans-30" transform="translate(290.576172 0)"/>
       <use xlink:href="#DejaVuSans-37" transform="translate(354.199219 0)"/>
      </g>
     </g>
    </g>
    <g id="xtick_10">
     <g id="line2d_10">
      <g>
       <use xlink:href="#m2e6aa9649d" x="1005.698823" y="224.28" style="stroke: #000000; stroke-width: 0.8"/>
      </g>
     </g>
     <g id="text_10">
      <!-- 2025-09 -->
      <g transform="translate(984.807417 238.878438) scale(0.1 -0.1)">
       <use xlink:href="#DejaVuSans-32"/>
       <use xlink:href="#DejaVuSans-30" transform="translate(63.623047 0)"/>
       <use xlink:href="#DejaVuSans-32" transform="translate(127.246094 0)"/>
       <use xlink:href="#DejaVuSans-35" transform="translate(190.869141 0)"/>
       <use xlink:href="#DejaVuSans-2d" transform="translate(254.492188 0)"/>
       <use xlink:href="#DejaVuSans-30" transform="translate(290.576172 0)"/>
       <use xlink:href="#DejaVuSans-39" transform="translate(354.199219 0)"/>
      </g>
     </g>
    </g>
   </g>
   <g id="matplotlib.axis_2">
    <g id="ytick_1">
     <g id="line2d_11">
      <defs>
       <path id="mc6d2f24ba5" d="M 0 0 
L -3.5 0 
" style="stroke: #000000; stroke-width: 0.8"/>
      </defs>
      <g>
       <use xlink:href="#mc6d2f24ba5" x="145.8" y="208.236684" style="stroke: #000000; stroke-width: 0.8"/>
      </g>
     </g>
     <g id="text_11">
      <!-- 20 -->
      <g transform="translate(126.075 212.035903) scale(0.1 -0.1)">
       <use xlink:href="#DejaVuSans-32"/>
       <use xlink:href="#DejaVuSans-30" transform="translate(63.623047 0)"/>
      </g>
     </g>
    </g>
    <g id="ytick_2">
     <g id="line2d_12">
      <g>
       <use xlink:href="#mc6d2f24ba5" x="145.8" y="186.024229" style="stroke: #000000; stroke-width: 0.8"/>
      </g>
     </g>
     <g id="text_12">
      <!-- 30 -->
      <g transform="translate(126.075 189.823448) scale(0.1 -0.1)">
       <use xlink:href="#DejaVuSans-33"/>
       <use xlink:href="#DejaVuSans-30" transform="translate(63.623047 0)"/>
      </g>
     </g>
    </g>
    <g id="ytick_3">
     <g id="line2d_13">
      <g>
       <use xlink:href="#mc6d2f24ba5" x="145.8" y="163.811774" style="stroke: #000000; stroke-width: 0.8"/>
      </g>
     </g>
     <g id="text_13">
      <!-- 40 -->
      <g transform="translate(126.075 167.610993) scale(0.1 -0.1)">
       <use xlink:href="#DejaVuSans-34"/>
       <use xlink:href="#DejaVuSans-30" transform="translate(63.623047 0)"/>
      </g>
     </g>
    </g>
    <g id="ytick_4">
     <g id="line2d_14">
      <g>
       <use xlink:href="#mc6d2f24ba5" x="145.8" y="141.599319" style="stroke: #000000; stroke-width: 0.8"/>
      </g>
     </g>
     <g id="text_14">
      <!-- 50 -->
      <g transform="translate(126.075 145.398538) scale(0.1 -0.1)">
       <use xlink:href="#DejaVuSans-35"/>
       <use xlink:href="#DejaVuSans-30" transform="translate(63.623047 0)"/>
      </g>
     </g>
    </g>
    <g id="ytick_5">
     <g id="line2d_15">
      <g>
       <use xlink:href="#mc6d2f24ba5" x="145.8" y="119.386864" style="stroke: #000000; stroke-width: 0.8"/>
      </g>
     </g>
     <g id="text_15">
      <!-- 60 -->
      <g transform="translate(126.075 123.186083) scale(0.1 -0.1)">
       <defs>
        <path id="DejaVuSans-36" d="M 2113 2584 
Q 1688 2584 1439 2293 
Q 1191 2003 1191 1497 
Q 1191 994 1439 701 
Q 1688 409 2113 409 
Q 2538 409 2786 701 
Q 3034 994 3034 1497 
Q 3034 2003 2786 2293 
Q 2538 2584 2113 2584 
z
M 3366 4563 
L 3366 3988 
Q 3128 4100 2886 4159 
Q 2644 4219 2406 4219 
Q 1781 4219 1451 3797 
Q 1122 3375 1075 2522 
Q 1259 2794 1537 2939 
Q 1816 3084 2150 3084 
Q 2853 3084 3261 2657 
Q 3669 2231 3669 1497 
Q 3669 778 3244 343 
Q 2819 -91 2113 -91 
Q 1303 -91 875 529 
Q 447 1150 447 2328 
Q 447 3434 972 4092 
Q 1497 4750 2381 4750 
Q 2619 4750 2861 4703 
Q 3103 4656 3366 4563 
z
" transform="scale(0.015625)"/>
       </defs>
       <use xlink:href="#DejaVuSans-36"/>
       <use xlink:href="#DejaVuSans-30" transform="translate(63.623047 0)"/>
      </g>
     </g>
    </g>
    <g id="ytick_6">
     <g id="line2d_16">
      <g>
       <use xlink:href="#mc6d2f24ba5" x="145.8" y="97.174409" style="stroke: #000000; stroke-width: 0.8"/>
      </g>
     </g>
     <g id="text_16">
      <!-- 70 -->
      <g transform="translate(126.075 100.973628) scale(0.1 -0.1)">
       <use xlink:href="#DejaVuSans-37"/>
       <use xlink:href="#DejaVuSans-30" transform="translate(63.623047 0)"/>
      </g>
     </g>
    </g>
    <g id="ytick_7">
     <g id="line2d_17">
      <g>
       <use xlink:href="#mc6d2f24ba5" x="145.8" y="74.961954" style="stroke: #000000; stroke-width: 0.8"/>
      </g>
     </g>
     <g id="text_17">
      <!-- 80 -->
      <g transform="translate(126.075 78.761173) scale(0.1 -0.1)">
       <defs>
        <path id="DejaVuSans-38" d="M 2034 2216 
Q 1584 2216 1326 1975 
Q 1069 1734 1069 1313 
Q 1069 891 1326 650 
Q 1584 409 2034 409 
Q 2484 409 2743 651 
Q 3003 894 3003 1313 
Q 3003 1734 2745 1975 
Q 2488 2216 2034 2216 
z
M 1403 2484 
Q 997 2584 770 2862 
Q 544 3141 544 3541 
Q 544 4100 942 4425 
Q 1341 4750 2034 4750 
Q 2731 4750 3128 4425 
Q 3525 4100 3525 3541 
Q 3525 3141 3298 2862 
Q 3072 2584 2669 2484 
Q 3125 2378 3379 2068 
Q 3634 1759 3634 1313 
Q 3634 634 3220 271 
Q 2806 -91 2034 -91 
Q 1263 -91 848 271 
Q 434 634 434 1313 
Q 434 1759 690 2068 
Q 947 2378 1403 2484 
z
M 1172 3481 
Q 1172 3119 1398 2916 
Q 1625 2713 2034 2713 
Q 2441 2713 2670 2916 
Q 2900 3119 2900 3481 
Q 2900 3844 2670 4047 
Q 2441 4250 2034 4250 
Q 1625 4250 1398 4047 
Q 1172 3844 1172 3481 
z
" transform="scale(0.015625)"/>
       </defs>
       <use xlink:href="#DejaVuSans-38"/>
       <use xlink:href="#DejaVuSans-30" transform="translate(63.623047 0)"/>
      </g>
     </g>
    </g>
    <g id="ytick_8">
     <g id="line2d_18">
      <g>
       <use xlink:href="#mc6d2f24ba5" x="145.8" y="52.749499" style="stroke: #000000; stroke-width: 0.8"/>
      </g>
     </g>
     <g id="text_18">
      <!-- 90 -->
      <g transform="translate(126.075 56.548718) scale(0.1 -0.1)">
       <use xlink:href="#DejaVuSans-39"/>
       <use xlink:href="#DejaVuSans-30" transform="translate(63.623047 0)"/>
      </g>
     </g>
    </g>
    <g id="ytick_9">
     <g id="line2d_19">
      <g>
       <use xlink:href="#mc6d2f24ba5" x="145.8" y="30.537044" style="stroke: #000000; stroke-width: 0.8"/>
      </g>
     </g>
     <g id="text_19">
      <!-- 100 -->
      <g transform="translate(119.7125 34.336263) scale(0.1 -0.1)">
       <use xlink:href="#DejaVuSans-31"/>
       <use xlink:href="#DejaVuSans-30" transform="translate(63.623047 0)"/>
       <use xlink:href="#DejaVuSans-30" transform="translate(127.246094 0)"/>
      </g>
     </g>
    </g>
   </g>
   <g id="line2d_20">
    <path d="M 186.889091 189.814844 
L 188.375134 188.305446 
L 189.861177 199.101454 
L 194.319306 206.533846 
L 195.805349 212.17214 
L 197.291392 212.360927 
L 198.777435 212.068386 
L 200.263479 196.09521 
L 204.721608 180.94222 
L 206.207651 182.654918 
L 207.693694 201.277245 
L 209.179737 184.474986 
L 210.66578 181.653045 
L 215.123909 184.05177 
L 216.609952 165.846064 
L 218.095995 150.356387 
L 219.582038 169.850663 
L 221.068082 152.421499 
L 225.526211 138.406063 
L 227.012254 139.032567 
L 228.498297 125.098839 
L 229.98434 138.737914 
L 235.928512 152.184074 
L 237.414555 158.268186 
L 238.900598 147.478219 
L 240.386641 158.844402 
L 241.872685 153.966748 
L 246.330814 163.015247 
L 247.816857 168.781651 
L 249.3029 189.047922 
L 250.788943 125.583644 
L 252.274986 123.39448 
L 256.733115 134.423962 
L 258.219158 142.79517 
L 259.705201 162.343031 
L 261.191244 159.49178 
L 262.677288 161.444569 
L 267.135417 153.58457 
L 268.62146 152.487696 
L 270.107503 140.842289 
L 271.593546 140.4302 
L 273.079589 138.333931 
L 277.537718 128.260696 
L 279.023761 133.061221 
L 280.509804 165.262807 
L 281.995847 155.006019 
L 283.481891 108.296182 
L 287.94002 101.334767 
L 289.426063 93.601274 
L 290.912106 88.275883 
L 292.398149 74.702287 
L 293.884192 82.703388 
L 298.342321 79.471475 
L 299.828364 80.860103 
L 301.314407 78.845655 
L 302.80045 75.75689 
L 304.286494 81.857142 
L 308.744623 61.050529 
L 310.230666 52.919152 
L 311.716709 66.795811 
L 313.202752 121.354862 
L 314.688795 98.599914 
L 320.632967 100.767996 
L 322.11901 100.898592 
L 323.605053 103.74599 
L 325.091096 90.865934 
L 329.549226 95.546318 
L 332.521312 101.632611 
L 334.007355 113.531209 
L 335.493398 104.007368 
L 339.951527 131.701605 
L 341.43757 96.016287 
L 342.923613 80.847787 
L 344.409656 60.955175 
L 345.895699 72.785158 
L 350.353829 68.435183 
L 351.839872 78.999519 
L 356.298001 105.905645 
L 360.75613 107.74551 
L 362.242173 106.741323 
L 363.728216 102.651247 
L 365.214259 97.147154 
L 366.700302 111.156358 
L 371.158432 91.563081 
L 372.644475 106.855958 
L 374.130518 116.349833 
L 377.102604 108.75833 
L 381.560733 99.715298 
L 383.046776 105.86782 
L 384.532819 88.713901 
L 386.018862 91.988664 
L 387.504905 78.900661 
L 391.963035 75.375516 
L 393.449078 75.90083 
L 394.935121 103.27061 
L 396.421164 118.817368 
L 397.907207 108.394645 
L 402.365336 121.585384 
L 403.851379 127.576015 
L 405.337422 149.422818 
L 406.823465 166.80838 
L 408.309508 170.432264 
L 412.767638 172.601761 
L 414.253681 188.386593 
L 415.739724 160.937475 
L 417.225767 183.505702 
L 418.71181 195.571367 
L 423.169939 212.381119 
L 424.655982 208.040298 
L 426.142025 188.396685 
L 427.628068 174.229863 
L 429.114111 163.023616 
L 433.572241 161.41528 
L 435.058284 132.822376 
L 436.544327 128.19943 
L 438.03037 121.970231 
L 439.516413 119.612052 
L 443.974542 121.375602 
L 445.460585 127.78101 
L 446.946628 114.562044 
L 448.432671 125.717486 
L 449.918714 65.999545 
L 454.376844 49.963161 
L 455.862887 51.44749 
L 457.34893 69.861505 
L 458.834973 69.167645 
L 460.321016 79.184645 
L 466.265188 134.324314 
L 467.751231 145.564259 
L 469.237274 152.947972 
L 470.723317 166.711914 
L 475.181447 165.584123 
L 476.66749 172.184428 
L 478.153533 157.774275 
L 479.639576 149.770971 
L 481.125619 163.628943 
L 485.583748 185.110522 
L 487.069791 187.259178 
L 488.555834 163.288187 
L 490.041877 144.554037 
L 491.52792 144.177665 
L 495.98605 127.883494 
L 497.472093 116.577746 
L 498.958136 126.001433 
L 500.444179 115.02378 
L 501.930222 114.484113 
L 506.388351 97.671949 
L 507.874394 130.894134 
L 509.360437 129.656234 
L 510.84648 132.366016 
L 512.332523 106.414011 
L 516.790653 127.171841 
L 518.276696 126.712884 
L 519.762739 139.37745 
L 521.248782 138.799497 
L 522.734825 137.973296 
L 527.192954 129.451378 
L 528.678997 119.43427 
L 530.16504 129.278417 
L 531.651083 129.021877 
L 533.137126 135.45319 
L 537.595256 104.602675 
L 539.081299 108.942512 
L 540.567342 125.38748 
L 542.053385 129.259133 
L 543.539428 105.202641 
L 547.997557 110.862912 
L 549.4836 122.542946 
L 550.969643 137.261486 
L 552.455686 147.703317 
L 553.941729 173.631325 
L 558.399859 189.521214 
L 559.885902 176.106732 
L 561.371945 180.146094 
L 562.857988 170.319576 
L 564.344031 178.541029 
L 568.80216 183.764516 
L 570.288203 169.643655 
L 571.774246 164.182734 
L 573.260289 153.320322 
L 574.746332 172.733695 
L 579.204462 160.435338 
L 580.690505 147.707676 
L 582.176548 126.785765 
L 583.662591 112.713205 
L 585.148634 102.402703 
L 589.606763 97.826684 
L 591.092806 87.81032 
L 592.578849 101.562853 
L 595.550935 92.56926 
L 600.009065 67.49338 
L 601.495108 63.157236 
L 602.981151 63.833894 
L 604.467194 68.381116 
L 605.953237 39.782664 
L 610.411366 39.378314 
L 611.897409 39.06 
L 613.383452 51.960117 
L 614.869495 46.319099 
L 616.355538 47.186072 
L 620.813668 47.256144 
L 622.299711 47.062982 
L 623.785754 87.510992 
L 625.271797 88.941921 
L 626.75784 83.979917 
L 631.215969 88.588443 
L 632.702012 83.44565 
L 635.674098 82.043099 
L 637.160141 98.727854 
L 641.618271 122.980765 
L 643.104314 132.753039 
L 646.0764 149.203226 
L 647.562443 155.194019 
L 652.020572 150.501424 
L 653.506615 166.790159 
L 654.992658 173.975008 
L 657.964744 174.858632 
L 662.422874 186.449692 
L 663.908917 209.819191 
L 665.39496 192.003246 
L 666.881003 215.46 
L 668.367046 211.83556 
L 674.311218 215.039057 
L 675.797261 207.751621 
L 677.283304 206.180466 
L 678.769347 199.622645 
L 683.227477 173.554542 
L 684.71352 155.544196 
L 686.199563 147.687558 
L 687.685606 152.253112 
L 689.171649 143.525531 
L 693.629778 154.609213 
L 695.115821 142.514951 
L 696.601864 152.713747 
L 698.087907 129.38494 
L 699.57395 146.928969 
L 704.03208 127.656224 
L 707.004166 111.540229 
L 708.490209 102.1653 
L 709.976252 107.957295 
L 715.920424 124.167957 
L 717.406467 125.782111 
L 718.89251 117.833694 
L 720.378553 113.242535 
L 724.836683 74.448176 
L 726.322726 82.547113 
L 727.808769 114.686017 
L 729.294812 128.193716 
L 730.780855 95.556971 
L 735.238984 111.593457 
L 736.725027 131.258488 
L 738.21107 145.584672 
L 739.697113 166.87771 
L 741.183156 163.604823 
L 745.641286 189.527869 
L 747.127329 200.113341 
L 748.613372 207.650588 
L 750.099415 213.34079 
L 751.585458 206.191852 
L 756.043587 204.605776 
L 757.52963 199.724753 
L 759.015673 188.391408 
L 760.501716 204.52553 
L 761.987759 186.09626 
L 766.445889 175.579746 
L 767.931932 166.959002 
L 769.417975 169.814715 
L 770.904018 173.553323 
L 772.390061 164.112573 
L 776.84819 138.40485 
L 778.334233 125.197459 
L 779.820276 97.080387 
L 781.306319 163.455287 
L 782.792362 184.297608 
L 787.250492 189.60588 
L 788.736535 201.996632 
L 790.222578 157.88019 
L 791.708621 170.162286 
L 793.194664 163.682666 
L 797.652793 162.118422 
L 799.138836 160.645014 
L 800.624879 169.294655 
L 802.110922 161.736436 
L 808.055095 169.58464 
L 809.541138 163.214472 
L 811.027181 158.786572 
L 812.513224 136.258591 
L 813.999267 116.858337 
L 818.457396 105.304148 
L 819.943439 87.606256 
L 821.429482 113.859163 
L 822.915525 87.53199 
L 824.401568 124.686257 
L 828.859698 149.765336 
L 830.345741 149.765304 
L 831.831784 136.574125 
L 833.317827 140.259944 
L 834.80387 126.504307 
L 839.261999 113.931953 
L 840.748042 119.232628 
L 842.234085 129.706191 
L 843.720128 134.727172 
L 845.206171 137.608803 
L 849.664301 147.542446 
L 851.150344 156.168196 
L 852.636387 168.731776 
L 854.12243 152.592004 
L 855.608473 151.620282 
L 861.552645 136.390911 
L 863.038688 129.229215 
L 864.524731 133.853096 
L 866.010774 134.22186 
L 870.468904 178.756371 
L 871.954947 181.932488 
L 873.44099 181.531347 
L 874.927033 184.888007 
L 876.413076 168.015344 
L 880.871205 167.98789 
L 882.357248 157.033896 
L 883.843291 154.158817 
L 885.329334 149.88297 
L 886.815377 136.484083 
L 891.273506 150.376482 
L 892.75955 162.649206 
L 894.245593 156.168421 
L 897.217679 141.029003 
L 901.675808 142.368962 
L 903.161851 153.17723 
L 904.647894 146.37539 
L 906.133937 140.114259 
L 907.61998 154.494499 
L 912.078109 125.757665 
L 913.564153 120.80796 
L 915.050196 87.877334 
L 916.536239 86.509719 
L 922.480411 91.252172 
L 923.966454 95.413127 
L 925.452497 75.944737 
L 926.93854 75.380358 
L 928.424583 93.336226 
L 932.882712 110.491465 
L 934.368756 102.001694 
L 935.854799 102.614249 
L 937.340842 99.997141 
L 938.826885 97.015579 
L 943.285014 105.3068 
L 944.771057 107.829063 
L 946.2571 130.602501 
L 947.743143 140.190171 
L 949.229186 108.204192 
L 953.687315 107.555967 
L 955.173359 140.625751 
L 956.659402 165.247449 
L 958.145445 166.503223 
L 959.631488 178.738942 
L 964.089617 175.022359 
L 965.57566 185.016752 
L 967.061703 129.10437 
L 970.033789 97.358018 
L 974.491918 107.401561 
L 975.977962 102.321634 
L 977.464005 95.570583 
L 978.950048 97.523441 
L 980.436091 101.502507 
L 984.89422 94.84828 
L 986.380263 88.271475 
L 987.866306 98.712485 
L 989.352349 84.550671 
L 990.838392 82.338763 
L 995.296521 82.965139 
L 998.268608 105.102416 
L 999.754651 126.396786 
L 1001.240694 118.511741 
L 1007.184866 141.272768 
L 1008.670909 121.83269 
L 1008.670909 121.83269 
" clip-path="url(#pd87ac4f06a)" style="fill: none; stroke: #1f77b4; stroke-width: 1.5; stroke-linecap: square"/>
   </g>
   <g id="patch_3">
    <path d="M 145.8 224.28 
L 145.8 30.24 
" style="fill: none; stroke: #000000; stroke-width: 0.8; stroke-linejoin: miter; stroke-linecap: square"/>
   </g>
   <g id="patch_4">
    <path d="M 145.8 224.28 
L 1049.76 224.28 
" style="fill: none; stroke: #000000; stroke-width: 0.8; stroke-linejoin: miter; stroke-linecap: square"/>
   </g>
  </g>
 </g>
 <defs>
  <clipPath id="pd87ac4f06a">
   <rect x="145.8" y="30.24" width="903.96" height="194.04"/>
  </clipPath>
 </defs>
</svg>
