<?xml version="1.0" encoding="utf-8" standalone="no"?>
<!DOCTYPE svg PUBLIC "-//W3C//DTD SVG 1.1//EN"
  "http://www.w3.org/Graphics/SVG/1.1/DTD/svg11.dtd">
<svg xmlns:xlink="http://www.w3.org/1999/xlink" width="1166.4pt" height="252pt" viewBox="0 0 1166.4 252" xmlns="http://www.w3.org/2000/svg" version="1.1">
 <metadata>
  <rdf:RDF xmlns:dc="http://purl.org/dc/elements/1.1/" xmlns:cc="http://creativecommons.org/ns#" xmlns:rdf="http://www.w3.org/1999/02/22-rdf-syntax-ns#">
   <cc:Work>
    <dc:type rdf:resource="http://purl.org/dc/dcmitype/StillImage"/>
    <dc:date>2025-09-05T16:12:21.740823</dc:date>
    <dc:format>image/svg+xml</dc:format>
    <dc:creator>
     <cc:Agent>
      <dc:title>Matplotlib v3.10.5, https://matplotlib.org/</dc:title>
     </cc:Agent>
    </dc:creator>
   </cc:Work>
  </rdf:RDF>
 </metadata>
 <defs>
  <style type="text/css">*{stroke-linejoin: round; stroke-linecap: butt}</style>
 </defs>
 <g id="figure_1">
  <g id="patch_1">
   <path d="M 0 252 
L 1166.4 252 
L 1166.4 0 
L 0 0 
z
" style="fill: #ffffff"/>
  </g>
  <g id="axes_1">
   <g id="patch_2">
    <path d="M 145.8 224.28 
L 1049.76 224.28 
L 1049.76 30.24 
L 145.8 30.24 
z
" style="fill: #ffffff"/>
   </g>
   <g id="matplotlib.axis_1">
    <g id="xtick_1">
     <g id="line2d_1">
      <defs>
       <path id="m28677fa8d7" d="M 0 0 
L 0 3.5 
" style="stroke: #000000; stroke-width: 0.8"/>
      </defs>
      <g>
       <use xlink:href="#m28677fa8d7" x="178.470838" y="224.28" style="stroke: #000000; stroke-width: 0.8"/>
      </g>
     </g>
     <g id="text_1">
      <!-- 2020 -->
      <g transform="translate(165.745838 238.878438) scale(0.1 -0.1)">
       <defs>
        <path id="DejaVuSans-32" d="M 1228 531 
L 3431 531 
L 3431 0 
L 469 0 
L 469 531 
Q 828 903 1448 1529 
Q 2069 2156 2228 2338 
Q 2531 2678 2651 2914 
Q 2772 3150 2772 3378 
Q 2772 3750 2511 3984 
Q 2250 4219 1831 4219 
Q 1534 4219 1204 4116 
Q 875 4013 500 3803 
L 500 4441 
Q 881 4594 1212 4672 
Q 1544 4750 1819 4750 
Q 2544 4750 2975 4387 
Q 3406 4025 3406 3419 
Q 3406 3131 3298 2873 
Q 3191 2616 2906 2266 
Q 2828 2175 2409 1742 
Q 1991 1309 1228 531 
z
" transform="scale(0.015625)"/>
        <path id="DejaVuSans-30" d="M 2034 4250 
Q 1547 4250 1301 3770 
Q 1056 3291 1056 2328 
Q 1056 1369 1301 889 
Q 1547 409 2034 409 
Q 2525 409 2770 889 
Q 3016 1369 3016 2328 
Q 3016 3291 2770 3770 
Q 2525 4250 2034 4250 
z
M 2034 4750 
Q 2819 4750 3233 4129 
Q 3647 3509 3647 2328 
Q 3647 1150 3233 529 
Q 2819 -91 2034 -91 
Q 1250 -91 836 529 
Q 422 1150 422 2328 
Q 422 3509 836 4129 
Q 1250 4750 2034 4750 
z
" transform="scale(0.015625)"/>
       </defs>
       <use xlink:href="#DejaVuSans-32"/>
       <use xlink:href="#DejaVuSans-30" transform="translate(63.623047 0)"/>
       <use xlink:href="#DejaVuSans-32" transform="translate(127.246094 0)"/>
       <use xlink:href="#DejaVuSans-30" transform="translate(190.869141 0)"/>
      </g>
     </g>
    </g>
    <g id="xtick_2">
     <g id="line2d_2">
      <g>
       <use xlink:href="#m28677fa8d7" x="325.188958" y="224.28" style="stroke: #000000; stroke-width: 0.8"/>
      </g>
     </g>
     <g id="text_2">
      <!-- 2021 -->
      <g transform="translate(312.463958 238.878438) scale(0.1 -0.1)">
       <defs>
        <path id="DejaVuSans-31" d="M 794 531 
L 1825 531 
L 1825 4091 
L 703 3866 
L 703 4441 
L 1819 4666 
L 2450 4666 
L 2450 531 
L 3481 531 
L 3481 0 
L 794 0 
L 794 531 
z
" transform="scale(0.015625)"/>
       </defs>
       <use xlink:href="#DejaVuSans-32"/>
       <use xlink:href="#DejaVuSans-30" transform="translate(63.623047 0)"/>
       <use xlink:href="#DejaVuSans-32" transform="translate(127.246094 0)"/>
       <use xlink:href="#DejaVuSans-31" transform="translate(190.869141 0)"/>
      </g>
     </g>
    </g>
    <g id="xtick_3">
     <g id="line2d_3">
      <g>
       <use xlink:href="#m28677fa8d7" x="471.506208" y="224.28" style="stroke: #000000; stroke-width: 0.8"/>
      </g>
     </g>
     <g id="text_3">
      <!-- 2022 -->
      <g transform="translate(458.781208 238.878438) scale(0.1 -0.1)">
       <use xlink:href="#DejaVuSans-32"/>
       <use xlink:href="#DejaVuSans-30" transform="translate(63.623047 0)"/>
       <use xlink:href="#DejaVuSans-32" transform="translate(127.246094 0)"/>
       <use xlink:href="#DejaVuSans-32" transform="translate(190.869141 0)"/>
      </g>
     </g>
    </g>
    <g id="xtick_4">
     <g id="line2d_4">
      <g>
       <use xlink:href="#m28677fa8d7" x="617.823459" y="224.28" style="stroke: #000000; stroke-width: 0.8"/>
      </g>
     </g>
     <g id="text_4">
      <!-- 2023 -->
      <g transform="translate(605.098459 238.878438) scale(0.1 -0.1)">
       <defs>
        <path id="DejaVuSans-33" d="M 2597 2516 
Q 3050 2419 3304 2112 
Q 3559 1806 3559 1356 
Q 3559 666 3084 287 
Q 2609 -91 1734 -91 
Q 1441 -91 1130 -33 
Q 819 25 488 141 
L 488 750 
Q 750 597 1062 519 
Q 1375 441 1716 441 
Q 2309 441 2620 675 
Q 2931 909 2931 1356 
Q 2931 1769 2642 2001 
Q 2353 2234 1838 2234 
L 1294 2234 
L 1294 2753 
L 1863 2753 
Q 2328 2753 2575 2939 
Q 2822 3125 2822 3475 
Q 2822 3834 2567 4026 
Q 2313 4219 1838 4219 
Q 1578 4219 1281 4162 
Q 984 4106 628 3988 
L 628 4550 
Q 988 4650 1302 4700 
Q 1616 4750 1894 4750 
Q 2613 4750 3031 4423 
Q 3450 4097 3450 3541 
Q 3450 3153 3228 2886 
Q 3006 2619 2597 2516 
z
" transform="scale(0.015625)"/>
       </defs>
       <use xlink:href="#DejaVuSans-32"/>
       <use xlink:href="#DejaVuSans-30" transform="translate(63.623047 0)"/>
       <use xlink:href="#DejaVuSans-32" transform="translate(127.246094 0)"/>
       <use xlink:href="#DejaVuSans-33" transform="translate(190.869141 0)"/>
      </g>
     </g>
    </g>
    <g id="xtick_5">
     <g id="line2d_5">
      <g>
       <use xlink:href="#m28677fa8d7" x="764.14071" y="224.28" style="stroke: #000000; stroke-width: 0.8"/>
      </g>
     </g>
     <g id="text_5">
      <!-- 2024 -->
      <g transform="translate(751.41571 238.878438) scale(0.1 -0.1)">
       <defs>
        <path id="DejaVuSans-34" d="M 2419 4116 
L 825 1625 
L 2419 1625 
L 2419 4116 
z
M 2253 4666 
L 3047 4666 
L 3047 1625 
L 3713 1625 
L 3713 1100 
L 3047 1100 
L 3047 0 
L 2419 0 
L 2419 1100 
L 313 1100 
L 313 1709 
L 2253 4666 
z
" transform="scale(0.015625)"/>
       </defs>
       <use xlink:href="#DejaVuSans-32"/>
       <use xlink:href="#DejaVuSans-30" transform="translate(63.623047 0)"/>
       <use xlink:href="#DejaVuSans-32" transform="translate(127.246094 0)"/>
       <use xlink:href="#DejaVuSans-34" transform="translate(190.869141 0)"/>
      </g>
     </g>
    </g>
    <g id="xtick_6">
     <g id="line2d_6">
      <g>
       <use xlink:href="#m28677fa8d7" x="910.858829" y="224.28" style="stroke: #000000; stroke-width: 0.8"/>
      </g>
     </g>
     <g id="text_6">
      <!-- 2025 -->
      <g transform="translate(898.133829 238.878438) scale(0.1 -0.1)">
       <defs>
        <path id="DejaVuSans-35" d="M 691 4666 
L 3169 4666 
L 3169 4134 
L 1269 4134 
L 1269 2991 
Q 1406 3038 1543 3061 
Q 1681 3084 1819 3084 
Q 2600 3084 3056 2656 
Q 3513 2228 3513 1497 
Q 3513 744 3044 326 
Q 2575 -91 1722 -91 
Q 1428 -91 1123 -41 
Q 819 9 494 109 
L 494 744 
Q 775 591 1075 516 
Q 1375 441 1709 441 
Q 2250 441 2565 725 
Q 2881 1009 2881 1497 
Q 2881 1984 2565 2268 
Q 2250 2553 1709 2553 
Q 1456 2553 1204 2497 
Q 953 2441 691 2322 
L 691 4666 
z
" transform="scale(0.015625)"/>
       </defs>
       <use xlink:href="#DejaVuSans-32"/>
       <use xlink:href="#DejaVuSans-30" transform="translate(63.623047 0)"/>
       <use xlink:href="#DejaVuSans-32" transform="translate(127.246094 0)"/>
       <use xlink:href="#DejaVuSans-35" transform="translate(190.869141 0)"/>
      </g>
     </g>
    </g>
   </g>
   <g id="matplotlib.axis_2">
    <g id="ytick_1">
     <g id="line2d_7">
      <defs>
       <path id="mfd8832cd32" d="M 0 0 
L -3.5 0 
" style="stroke: #000000; stroke-width: 0.8"/>
      </defs>
      <g>
       <use xlink:href="#mfd8832cd32" x="145.8" y="221.493181" style="stroke: #000000; stroke-width: 0.8"/>
      </g>
     </g>
     <g id="text_7">
      <!-- 0 -->
      <g transform="translate(132.4375 225.292399) scale(0.1 -0.1)">
       <use xlink:href="#DejaVuSans-30"/>
      </g>
     </g>
    </g>
    <g id="ytick_2">
     <g id="line2d_8">
      <g>
       <use xlink:href="#mfd8832cd32" x="145.8" y="183.550658" style="stroke: #000000; stroke-width: 0.8"/>
      </g>
     </g>
     <g id="text_8">
      <!-- 20 -->
      <g transform="translate(126.075 187.349877) scale(0.1 -0.1)">
       <use xlink:href="#DejaVuSans-32"/>
       <use xlink:href="#DejaVuSans-30" transform="translate(63.623047 0)"/>
      </g>
     </g>
    </g>
    <g id="ytick_3">
     <g id="line2d_9">
      <g>
       <use xlink:href="#mfd8832cd32" x="145.8" y="145.608136" style="stroke: #000000; stroke-width: 0.8"/>
      </g>
     </g>
     <g id="text_9">
      <!-- 40 -->
      <g transform="translate(126.075 149.407354) scale(0.1 -0.1)">
       <use xlink:href="#DejaVuSans-34"/>
       <use xlink:href="#DejaVuSans-30" transform="translate(63.623047 0)"/>
      </g>
     </g>
    </g>
    <g id="ytick_4">
     <g id="line2d_10">
      <g>
       <use xlink:href="#mfd8832cd32" x="145.8" y="107.665613" style="stroke: #000000; stroke-width: 0.8"/>
      </g>
     </g>
     <g id="text_10">
      <!-- 60 -->
      <g transform="translate(126.075 111.464832) scale(0.1 -0.1)">
       <defs>
        <path id="DejaVuSans-36" d="M 2113 2584 
Q 1688 2584 1439 2293 
Q 1191 2003 1191 1497 
Q 1191 994 1439 701 
Q 1688 409 2113 409 
Q 2538 409 2786 701 
Q 3034 994 3034 1497 
Q 3034 2003 2786 2293 
Q 2538 2584 2113 2584 
z
M 3366 4563 
L 3366 3988 
Q 3128 4100 2886 4159 
Q 2644 4219 2406 4219 
Q 1781 4219 1451 3797 
Q 1122 3375 1075 2522 
Q 1259 2794 1537 2939 
Q 1816 3084 2150 3084 
Q 2853 3084 3261 2657 
Q 3669 2231 3669 1497 
Q 3669 778 3244 343 
Q 2819 -91 2113 -91 
Q 1303 -91 875 529 
Q 447 1150 447 2328 
Q 447 3434 972 4092 
Q 1497 4750 2381 4750 
Q 2619 4750 2861 4703 
Q 3103 4656 3366 4563 
z
" transform="scale(0.015625)"/>
       </defs>
       <use xlink:href="#DejaVuSans-36"/>
       <use xlink:href="#DejaVuSans-30" transform="translate(63.623047 0)"/>
      </g>
     </g>
    </g>
    <g id="ytick_5">
     <g id="line2d_11">
      <g>
       <use xlink:href="#mfd8832cd32" x="145.8" y="69.723091" style="stroke: #000000; stroke-width: 0.8"/>
      </g>
     </g>
     <g id="text_11">
      <!-- 80 -->
      <g transform="translate(126.075 73.522309) scale(0.1 -0.1)">
       <defs>
        <path id="DejaVuSans-38" d="M 2034 2216 
Q 1584 2216 1326 1975 
Q 1069 1734 1069 1313 
Q 1069 891 1326 650 
Q 1584 409 2034 409 
Q 2484 409 2743 651 
Q 3003 894 3003 1313 
Q 3003 1734 2745 1975 
Q 2488 2216 2034 2216 
z
M 1403 2484 
Q 997 2584 770 2862 
Q 544 3141 544 3541 
Q 544 4100 942 4425 
Q 1341 4750 2034 4750 
Q 2731 4750 3128 4425 
Q 3525 4100 3525 3541 
Q 3525 3141 3298 2862 
Q 3072 2584 2669 2484 
Q 3125 2378 3379 2068 
Q 3634 1759 3634 1313 
Q 3634 634 3220 271 
Q 2806 -91 2034 -91 
Q 1263 -91 848 271 
Q 434 634 434 1313 
Q 434 1759 690 2068 
Q 947 2378 1403 2484 
z
M 1172 3481 
Q 1172 3119 1398 2916 
Q 1625 2713 2034 2713 
Q 2441 2713 2670 2916 
Q 2900 3119 2900 3481 
Q 2900 3844 2670 4047 
Q 2441 4250 2034 4250 
Q 1625 4250 1398 4047 
Q 1172 3844 1172 3481 
z
" transform="scale(0.015625)"/>
       </defs>
       <use xlink:href="#DejaVuSans-38"/>
       <use xlink:href="#DejaVuSans-30" transform="translate(63.623047 0)"/>
      </g>
     </g>
    </g>
    <g id="ytick_6">
     <g id="line2d_12">
      <g>
       <use xlink:href="#mfd8832cd32" x="145.8" y="31.780568" style="stroke: #000000; stroke-width: 0.8"/>
      </g>
     </g>
     <g id="text_12">
      <!-- 100 -->
      <g transform="translate(119.7125 35.579787) scale(0.1 -0.1)">
       <use xlink:href="#DejaVuSans-31"/>
       <use xlink:href="#DejaVuSans-30" transform="translate(63.623047 0)"/>
       <use xlink:href="#DejaVuSans-30" transform="translate(127.246094 0)"/>
      </g>
     </g>
    </g>
   </g>
   <g id="line2d_13">
    <path d="M 186.889091 87.046628 
L 187.28996 85.084658 
L 187.690829 78.447198 
L 188.893437 108.588581 
L 189.294306 93.603083 
L 189.695175 91.606087 
L 190.096044 100.306521 
L 190.496914 127.834325 
L 191.699521 139.940364 
L 192.10039 117.645274 
L 192.501259 112.183259 
L 192.902129 112.353201 
L 193.302998 123.727191 
L 194.505605 118.445488 
L 194.906475 122.876683 
L 195.307344 115.332988 
L 195.708213 117.341688 
L 196.109082 102.360955 
L 197.712559 123.512607 
L 198.113428 126.561835 
L 198.514297 130.827826 
L 198.915166 119.446685 
L 200.117774 139.774651 
L 200.518643 167.122142 
L 200.919512 163.42288 
L 201.320381 181.724511 
L 201.721251 179.698686 
L 202.923858 146.72826 
L 203.324727 151.640684 
L 203.725596 145.8532 
L 204.126466 150.271326 
L 204.527335 152.441424 
L 205.729942 160.280681 
L 206.130812 148.845462 
L 206.531681 151.660117 
L 206.93255 158.991041 
L 207.333419 135.992432 
L 208.536027 145.507763 
L 208.936896 142.585897 
L 209.337765 138.021677 
L 209.738634 138.662208 
L 210.139503 157.255186 
L 211.342111 155.848033 
L 211.74298 150.721795 
L 212.143849 147.891451 
L 212.544718 139.792149 
L 212.945588 135.025197 
L 214.148195 141.388834 
L 214.549064 137.364798 
L 214.949933 130.648127 
L 215.350803 147.901963 
L 215.751672 127.295939 
L 217.355149 116.748231 
L 217.756018 110.754077 
L 218.156887 94.260627 
L 219.760364 85.936581 
L 220.161233 90.419989 
L 220.562102 91.971161 
L 220.962971 98.66813 
L 221.36384 89.269812 
L 222.566448 102.739156 
L 222.967317 112.701308 
L 223.368186 89.626034 
L 223.769055 93.908986 
L 224.169925 83.627447 
L 225.372532 98.903228 
L 225.773401 101.529838 
L 226.174271 99.1912 
L 226.57514 95.650292 
L 226.976009 107.515716 
L 228.178616 118.209061 
L 228.579486 108.983243 
L 228.980355 108.106785 
L 229.381224 98.494595 
L 229.782093 81.753913 
L 230.984701 60.651931 
L 231.38557 73.181187 
L 232.187308 83.882423 
L 232.588177 88.093358 
L 233.790785 72.40464 
L 234.191654 83.54312 
L 234.592523 83.510428 
L 234.993392 77.683487 
L 235.394262 79.439333 
L 237.398608 91.508453 
L 237.799477 95.318141 
L 238.200346 107.896153 
L 239.402953 109.810978 
L 240.204692 78.562511 
L 240.605561 92.37341 
L 241.00643 73.825882 
L 242.209038 79.766483 
L 242.609907 63.228749 
L 243.010776 61.454175 
L 243.411645 98.166534 
L 243.812514 97.279126 
L 245.015122 89.100499 
L 245.415991 83.133882 
L 245.81686 84.141497 
L 246.217729 83.469392 
L 246.618599 90.097404 
L 247.821206 84.51425 
L 248.222075 80.90413 
L 248.622945 86.665182 
L 249.023814 89.500915 
L 249.424683 106.371598 
L 250.62729 108.300534 
L 251.02816 113.475879 
L 251.429029 88.382572 
L 251.829898 90.830749 
L 253.433375 86.316483 
L 253.834244 96.406814 
L 254.235113 87.866468 
L 254.635982 86.735096 
L 255.036851 82.521323 
L 256.239459 93.341857 
L 256.640328 94.624768 
L 257.041197 78.283646 
L 257.442067 93.336421 
L 257.842936 66.656047 
L 259.045543 66.676998 
L 259.446412 84.703505 
L 259.847282 81.827674 
L 260.248151 116.86766 
L 260.64902 131.842506 
L 261.851627 117.682939 
L 262.252497 138.483201 
L 262.653366 130.36817 
L 263.054235 125.29574 
L 263.455104 91.027572 
L 264.657712 88.847053 
L 265.058581 88.732462 
L 265.860319 75.686395 
L 266.261188 89.710567 
L 267.463796 81.582378 
L 267.864665 94.7824 
L 268.265534 72.727881 
L 268.666404 69.637115 
L 269.067273 72.415307 
L 270.26988 66.946522 
L 271.071619 68.93694 
L 271.472488 80.111547 
L 271.873357 74.268639 
L 273.075965 73.155906 
L 273.476834 78.864419 
L 273.877703 82.511582 
L 274.278572 76.88611 
L 274.679441 80.957505 
L 275.882049 54.795908 
L 276.282918 53.534936 
L 276.683787 71.603505 
L 277.084656 111.985654 
L 277.485525 110.964201 
L 279.089002 132.337736 
L 279.489871 123.577019 
L 279.890741 135.493193 
L 280.29161 151.792188 
L 281.494217 147.160451 
L 281.895086 145.114604 
L 282.295956 154.28547 
L 282.696825 154.661062 
L 283.097694 158.822869 
L 284.300302 161.249514 
L 284.701171 170.343075 
L 285.10204 172.279161 
L 285.502909 155.898054 
L 285.903778 144.925511 
L 287.106386 121.505657 
L 287.507255 135.164182 
L 287.908124 120.129866 
L 288.308993 112.996472 
L 288.709863 133.219496 
L 289.91247 124.177055 
L 290.313339 123.992668 
L 291.115078 103.746429 
L 291.515947 106.496392 
L 292.718554 95.333085 
L 293.119424 90.562723 
L 293.520293 92.223403 
L 293.921162 101.780354 
L 294.322031 114.285508 
L 295.524639 121.261176 
L 295.925508 121.773917 
L 296.326377 126.405629 
L 296.727246 118.053595 
L 297.128115 131.691272 
L 298.330723 119.188698 
L 298.731592 120.55319 
L 299.132461 138.972355 
L 299.53333 131.667827 
L 299.9342 175.544114 
L 301.136807 170.067068 
L 301.537676 162.403424 
L 302.339415 126.609717 
L 302.740284 118.003546 
L 303.942891 129.491924 
L 304.343761 128.674707 
L 304.74463 115.937765 
L 305.145499 114.625815 
L 305.546368 114.529858 
L 306.748976 115.76352 
L 307.149845 99.730921 
L 307.550714 116.340575 
L 307.951583 81.522057 
L 309.55506 112.401797 
L 309.955929 124.731509 
L 310.356798 141.705128 
L 311.158537 137.69139 
L 312.361144 112.337707 
L 312.762013 96.759281 
L 313.162882 107.997984 
L 313.563752 107.121487 
L 313.964621 111.526465 
L 315.167228 109.619007 
L 315.568098 101.658991 
L 315.968967 109.018713 
L 316.770705 103.256974 
L 317.973313 84.163053 
L 318.374182 73.029706 
L 318.775051 75.14342 
L 319.17592 74.493838 
L 319.576789 93.233007 
L 320.779397 99.847603 
L 321.180266 90.025605 
L 321.581135 94.374675 
L 321.982004 88.059587 
L 323.585481 81.377478 
L 323.98635 91.489043 
L 324.38722 84.470752 
L 324.788089 92.721182 
L 326.391565 103.645398 
L 326.792435 97.306157 
L 327.193304 130.948568 
L 327.594173 117.534655 
L 327.995042 116.904299 
L 329.19765 120.102823 
L 329.999388 129.692855 
L 330.400257 132.75364 
L 330.801126 140.712308 
L 332.404603 156.105096 
L 333.206341 117.998575 
L 333.607211 109.713363 
L 334.809818 91.362738 
L 335.210687 93.679791 
L 335.611557 80.317197 
L 336.012426 108.522839 
L 336.413295 126.872104 
L 337.615902 112.818227 
L 338.016772 110.367602 
L 338.417641 118.382631 
L 338.81851 104.611265 
L 339.219379 100.144099 
L 340.421987 101.209416 
L 340.822856 113.974407 
L 341.223725 131.106155 
L 341.624594 140.719545 
L 342.025463 158.950666 
L 343.62894 166.056272 
L 344.029809 168.862299 
L 344.430678 159.209212 
L 344.831548 137.906547 
L 346.034155 169.36366 
L 346.435024 176.697052 
L 346.835894 175.224555 
L 347.236763 215.46 
L 347.637632 212.417046 
L 348.840239 163.417934 
L 350.042847 175.032998 
L 350.443716 170.093264 
L 351.646324 174.534721 
L 352.047193 152.53582 
L 352.448062 152.497135 
L 353.2498 140.27402 
L 354.452408 131.380992 
L 354.853277 126.094283 
L 355.254146 116.393191 
L 355.655016 128.418351 
L 356.055885 149.139317 
L 357.659361 125.186774 
L 358.060231 126.755713 
L 358.4611 129.165983 
L 358.861969 109.399988 
L 360.064576 125.351558 
L 360.465446 126.973857 
L 360.866315 125.846002 
L 361.267184 118.408515 
L 362.870661 118.637981 
L 363.27153 123.797374 
L 363.672399 113.256426 
L 364.073268 81.130003 
L 364.474137 72.007311 
L 365.676745 91.094008 
L 366.077614 78.210851 
L 366.478483 77.902795 
L 366.879353 74.298572 
L 367.280222 77.363418 
L 368.482829 76.467199 
L 368.883698 77.823209 
L 369.284568 81.420026 
L 369.685437 92.052217 
L 370.086306 93.358169 
L 371.288914 93.128109 
L 371.689783 99.552905 
L 372.491521 124.181018 
L 372.89239 125.526754 
L 374.094998 137.378669 
L 374.495867 147.527283 
L 374.896736 162.859015 
L 375.297605 149.852192 
L 375.698475 149.779094 
L 376.901082 155.731545 
L 377.70282 165.552015 
L 378.10369 166.640026 
L 378.504559 154.80621 
L 379.707166 157.115514 
L 380.108035 158.679145 
L 380.508905 158.828844 
L 380.909774 141.05469 
L 381.310643 151.154078 
L 382.513251 128.777563 
L 382.91412 130.590893 
L 383.715858 147.08478 
L 384.116727 137.166118 
L 385.720204 134.537544 
L 386.121073 114.015101 
L 386.521942 134.842846 
L 386.922812 135.659849 
L 388.125419 128.94134 
L 388.526288 114.3992 
L 388.927157 111.082491 
L 389.328027 135.208217 
L 389.728896 112.228296 
L 390.931503 103.898034 
L 391.332373 109.004261 
L 391.733242 106.043261 
L 392.134111 86.197292 
L 392.53498 91.802504 
L 394.138457 80.501825 
L 394.539326 70.277823 
L 394.940195 79.208697 
L 395.341064 82.024021 
L 396.543672 79.443424 
L 396.944541 76.251264 
L 397.34541 65.845815 
L 397.746279 67.825986 
L 398.147149 68.845255 
L 400.151494 53.957026 
L 400.552364 67.960011 
L 400.953233 53.689492 
L 402.15584 61.695814 
L 402.55671 62.630626 
L 402.957579 55.182443 
L 403.358448 58.208137 
L 403.759317 71.095119 
L 404.961925 97.476668 
L 405.362794 92.264636 
L 405.763663 97.225189 
L 406.164532 94.705369 
L 406.565401 96.842785 
L 407.768009 100.961165 
L 408.168878 118.427408 
L 408.569747 120.259301 
L 408.970616 124.598894 
L 409.371486 121.323571 
L 410.574093 127.121758 
L 410.974962 134.421887 
L 411.375831 133.37132 
L 411.776701 123.389266 
L 412.17757 103.932489 
L 413.380177 125.448468 
L 413.781047 123.443883 
L 414.181916 132.70235 
L 414.582785 122.458793 
L 414.983654 124.073645 
L 416.587131 80.939226 
L 416.988 120.473985 
L 417.388869 119.740895 
L 417.789738 109.196937 
L 418.992346 110.793336 
L 419.393215 108.446988 
L 419.794084 117.747859 
L 420.194953 118.509565 
L 420.595823 112.91396 
L 421.79843 93.272923 
L 422.600169 109.519141 
L 423.001038 106.074812 
L 423.401907 111.262308 
L 425.005384 97.38781 
L 425.406253 82.55834 
L 425.807122 90.840778 
L 426.207991 123.439652 
L 427.410599 127.320576 
L 427.811468 132.681344 
L 428.212337 123.896347 
L 428.613206 121.392786 
L 429.014075 136.560035 
L 430.216683 168.841435 
L 430.617552 162.724003 
L 431.018421 153.158262 
L 431.41929 153.979213 
L 431.82016 156.941988 
L 433.022767 174.874772 
L 433.423636 178.505317 
L 434.626244 158.073802 
L 435.828851 163.834146 
L 436.63059 152.808318 
L 437.432328 126.822698 
L 438.634936 129.571568 
L 439.035805 148.395857 
L 439.436674 156.925641 
L 439.837543 140.7095 
L 440.238412 129.050436 
L 441.44102 103.569189 
L 441.841889 99.022753 
L 442.242758 88.966274 
L 442.643627 91.823926 
L 443.044497 69.627404 
L 444.247104 75.507974 
L 444.647973 76.175416 
L 445.048843 85.879317 
L 445.449712 70.259125 
L 445.850581 91.647585 
L 447.053188 88.417431 
L 447.454058 81.035757 
L 447.854927 84.904361 
L 448.255796 92.528785 
L 448.656665 97.009832 
L 449.859273 114.194971 
L 450.260142 114.938358 
L 450.661011 134.124733 
L 451.06188 130.155948 
L 451.462749 118.531026 
L 452.665357 121.816659 
L 453.066226 114.297291 
L 453.467095 120.251749 
L 453.867965 84.332542 
L 454.268834 71.804791 
L 455.471441 72.992076 
L 455.87231 75.360047 
L 456.27318 70.006173 
L 457.074918 104.171982 
L 458.277525 90.800631 
L 458.678395 81.763605 
L 459.079264 70.099319 
L 459.480133 75.071082 
L 459.881002 87.916797 
L 461.08361 81.923062 
L 461.484479 75.400331 
L 461.885348 73.813917 
L 462.286217 81.287517 
L 462.687086 78.340011 
L 464.290563 97.020093 
L 464.691432 90.698387 
L 465.092302 95.932253 
L 465.493171 103.87308 
L 466.695778 116.526442 
L 467.898386 96.07628 
L 469.501863 95.268941 
L 469.902732 107.675002 
L 470.303601 115.54109 
L 470.70447 117.409825 
L 471.105339 132.014641 
L 472.307947 109.087642 
L 472.708816 111.995299 
L 473.109685 138.644628 
L 473.510554 127.445949 
L 473.911424 123.328303 
L 475.114031 118.417763 
L 475.5149 119.508127 
L 475.915769 127.044263 
L 476.717508 154.029949 
L 478.320984 159.526538 
L 478.721854 167.07025 
L 479.122723 168.006412 
L 479.523592 170.399221 
L 480.7262 192.851396 
L 481.127069 192.38299 
L 481.527938 186.706231 
L 481.928807 182.760467 
L 482.329676 132.000458 
L 483.532284 119.991569 
L 483.933153 127.9385 
L 484.334022 125.797437 
L 484.734891 124.692068 
L 485.135761 127.919713 
L 486.338368 120.377452 
L 486.739237 99.731519 
L 487.140106 89.740909 
L 487.941845 107.35773 
L 489.144452 100.646354 
L 489.545322 93.230429 
L 489.946191 92.446847 
L 490.34706 130.520976 
L 490.747929 151.896191 
L 492.351406 158.401659 
L 492.752275 171.207069 
L 493.153144 155.365456 
L 493.554013 147.284049 
L 494.756621 144.786691 
L 495.15749 160.137632 
L 495.959228 144.653688 
L 496.360098 143.598726 
L 497.562705 153.192256 
L 497.963574 171.897841 
L 498.364443 150.959002 
L 498.765313 152.362258 
L 499.166182 156.143038 
L 500.368789 157.920787 
L 500.769659 137.94875 
L 501.170528 133.491604 
L 501.571397 136.075604 
L 501.972266 129.008339 
L 503.174874 122.049746 
L 503.575743 121.889857 
L 503.976612 118.468835 
L 504.77835 93.242334 
L 505.980958 86.408255 
L 506.381827 89.296115 
L 506.782696 77.853165 
L 507.183565 75.393941 
L 507.584435 58.520952 
L 508.787042 58.799394 
L 509.187911 80.096378 
L 509.58878 95.111943 
L 509.98965 101.407857 
L 510.390519 112.376768 
L 511.593126 135.672144 
L 511.993996 134.022544 
L 512.394865 137.643042 
L 512.795734 151.422108 
L 514.399211 154.828699 
L 514.80008 158.513071 
L 515.200949 156.58858 
L 515.601818 151.673211 
L 516.002687 160.222961 
L 517.606164 176.096452 
L 518.007033 171.843161 
L 518.407902 147.427962 
L 518.808772 154.258879 
L 520.011379 145.735542 
L 520.412248 146.8961 
L 520.813118 136.505489 
L 521.213987 144.114623 
L 521.614856 141.970271 
L 522.817463 155.511875 
L 523.218333 149.451274 
L 523.619202 158.234191 
L 524.020071 157.493969 
L 524.42094 150.457797 
L 525.623548 144.882005 
L 526.024417 137.711601 
L 526.425286 161.085378 
L 526.826155 158.542841 
L 527.227024 158.690946 
L 528.429632 150.704178 
L 528.830501 166.942036 
L 529.23137 156.585717 
L 529.632239 150.680598 
L 530.033109 130.895744 
L 531.636585 136.930422 
L 532.438324 107.524084 
L 532.839193 130.348663 
L 534.0418 125.325523 
L 534.44267 127.826196 
L 534.843539 107.06247 
L 535.244408 112.870396 
L 535.645277 127.682717 
L 536.847885 152.336205 
L 537.649623 138.107964 
L 538.451361 169.684141 
L 540.054838 155.017133 
L 540.455707 155.609856 
L 540.856576 154.432166 
L 541.257446 135.094766 
L 542.460053 137.011715 
L 542.860922 151.725579 
L 543.662661 140.386859 
L 544.06353 122.088639 
L 545.667007 100.342179 
L 546.067876 99.412572 
L 546.468745 97.991025 
L 546.869614 75.472271 
L 548.072222 87.366519 
L 548.473091 93.767691 
L 548.87396 93.099753 
L 549.274829 92.97176 
L 549.675698 96.794792 
L 550.878306 109.616219 
L 551.279175 83.560695 
L 551.680044 83.130823 
L 552.080914 67.553716 
L 552.481783 76.981177 
L 553.68439 87.306127 
L 554.085259 96.653166 
L 554.486129 92.745658 
L 554.886998 93.01805 
L 555.287867 74.477783 
L 556.490475 80.376452 
L 556.891344 85.176513 
L 557.292213 80.565359 
L 557.693082 84.225391 
L 558.093951 71.957896 
L 559.296559 79.974735 
L 559.697428 83.570444 
L 560.098297 79.930955 
L 560.499166 77.374039 
L 560.900035 66.637048 
L 562.102643 58.507133 
L 562.503512 65.005583 
L 562.904381 63.79134 
L 563.70612 84.737247 
L 564.908727 97.825916 
L 565.309596 120.27892 
L 565.710466 117.309063 
L 566.111335 106.54951 
L 566.512204 130.866988 
L 567.714812 137.748341 
L 568.115681 161.175521 
L 568.51655 163.109944 
L 568.917419 177.365609 
L 569.318288 186.585998 
L 570.921765 187.951969 
L 571.322634 188.444744 
L 571.723503 189.671681 
L 572.124373 171.512068 
L 573.32698 138.901357 
L 573.727849 157.412923 
L 574.128718 153.949513 
L 574.529588 165.703344 
L 574.930457 158.769779 
L 576.133064 143.131663 
L 576.533933 131.447947 
L 577.335672 138.608544 
L 577.736541 138.928044 
L 578.939149 135.425953 
L 579.740887 137.441473 
L 580.542625 181.997041 
L 582.146102 148.439284 
L 582.546971 141.76619 
L 582.94784 140.246731 
L 583.34871 162.28535 
L 584.551317 169.820022 
L 584.952186 167.210915 
L 585.353055 166.669952 
L 585.753925 145.993108 
L 586.154794 155.492013 
L 587.357401 146.899772 
L 587.758271 140.012084 
L 588.15914 122.994611 
L 588.560009 111.314558 
L 588.960878 112.241218 
L 590.163486 116.146104 
L 590.564355 109.500375 
L 590.965224 115.982511 
L 591.366093 113.538838 
L 591.766962 94.141331 
L 592.96957 96.817819 
L 593.370439 102.172576 
L 593.771308 122.663423 
L 594.172177 125.692807 
L 594.573047 134.392752 
L 595.775654 136.187701 
L 596.176523 135.122324 
L 596.577392 142.275895 
L 596.978262 126.890583 
L 597.379131 125.837223 
L 598.581738 132.912741 
L 599.383477 119.071422 
L 599.784346 136.893263 
L 600.185215 130.672398 
L 601.387823 131.933595 
L 602.189561 92.108424 
L 602.991299 101.563382 
L 604.193907 114.118524 
L 604.594776 122.920911 
L 604.995645 98.810017 
L 605.396514 122.515098 
L 605.797384 132.455612 
L 606.999991 131.756722 
L 607.40086 147.427782 
L 607.801729 149.031547 
L 608.202599 149.812489 
L 608.603468 152.920345 
L 609.806075 137.071088 
L 610.206945 141.137631 
L 611.008683 157.287621 
L 611.409552 153.702765 
L 612.61216 151.840214 
L 613.013029 183.305508 
L 613.413898 168.412632 
L 613.814767 172.935804 
L 614.215636 171.67141 
L 615.819113 168.448866 
L 616.219982 171.878804 
L 616.620851 164.00624 
L 617.021721 161.865888 
L 618.625197 178.585815 
L 619.426936 176.147354 
L 619.827805 146.570002 
L 621.030412 139.858645 
L 621.832151 123.153991 
L 622.23302 133.232051 
L 622.633889 117.9005 
L 624.237366 112.951872 
L 624.638235 108.558977 
L 625.039104 88.979832 
L 625.439973 91.470177 
L 626.642581 84.553693 
L 627.04345 50.525048 
L 627.444319 57.087516 
L 627.845188 44.601281 
L 628.246058 46.351077 
L 629.448665 70.388351 
L 629.849534 69.163644 
L 630.250404 72.080743 
L 630.651273 63.290279 
L 631.052142 60.70509 
L 632.254749 76.694219 
L 632.655619 69.334018 
L 633.056488 81.31817 
L 633.457357 89.605862 
L 633.858226 95.058494 
L 635.060834 92.229168 
L 635.862572 92.08899 
L 636.263441 102.518765 
L 636.66431 95.448185 
L 638.267787 113.761745 
L 638.668656 115.588705 
L 639.069525 130.834853 
L 639.470395 154.2983 
L 640.673002 140.577862 
L 641.073871 156.913426 
L 641.474741 155.017547 
L 641.87561 148.135257 
L 642.276479 126.56291 
L 643.479086 126.711012 
L 643.879956 132.224802 
L 644.280825 135.509408 
L 644.681694 137.614382 
L 645.082563 140.411225 
L 646.68604 113.934171 
L 647.086909 114.204021 
L 647.487778 95.178737 
L 647.888647 101.946199 
L 649.091255 94.061444 
L 649.492124 80.736405 
L 650.293863 97.478599 
L 650.694732 101.493226 
L 651.897339 100.190974 
L 652.298208 107.193738 
L 653.099947 71.070003 
L 653.500816 70.145766 
L 654.703424 71.540523 
L 655.104293 75.659669 
L 655.505162 93.333881 
L 655.906031 86.056198 
L 657.509508 107.382832 
L 657.910377 120.130383 
L 658.311246 116.579646 
L 658.712115 102.232611 
L 659.112984 107.665519 
L 660.315592 97.785601 
L 660.716461 90.974654 
L 661.11733 96.370973 
L 661.5182 107.157176 
L 661.919069 126.067153 
L 663.121676 130.826223 
L 663.522545 135.440825 
L 663.923415 126.636874 
L 664.725153 91.359756 
L 665.927761 83.724467 
L 666.32863 86.162124 
L 666.729499 115.002728 
L 667.130368 123.346442 
L 667.531237 94.320525 
L 668.733845 98.029503 
L 669.134714 110.192084 
L 669.936452 91.019744 
L 670.337322 96.931502 
L 671.539929 91.150005 
L 671.940798 91.092887 
L 672.341667 103.815968 
L 672.742537 99.853628 
L 673.143406 98.926704 
L 674.346013 98.378127 
L 674.746882 107.332644 
L 675.147752 96.788367 
L 675.548621 129.057251 
L 675.94949 113.532407 
L 677.552967 92.116201 
L 677.953836 100.218283 
L 678.755574 78.981336 
L 680.359051 88.842455 
L 680.75992 100.600735 
L 681.160789 99.194136 
L 681.561659 98.218907 
L 682.764266 83.788289 
L 683.165135 68.190777 
L 683.566004 67.516182 
L 683.966874 65.917452 
L 684.367743 79.233384 
L 685.97122 84.141433 
L 686.372089 91.684273 
L 686.772958 91.033374 
L 687.173827 96.221104 
L 688.376435 96.500831 
L 689.178173 72.77647 
L 689.579042 78.352024 
L 689.979911 69.792877 
L 691.182519 86.30303 
L 691.984257 90.47933 
L 692.385126 90.92913 
L 692.785996 104.432273 
L 693.988603 109.913453 
L 694.389472 113.009856 
L 694.790341 101.597478 
L 695.191211 109.626083 
L 695.59208 107.200151 
L 696.794687 88.093263 
L 697.195557 98.225211 
L 697.596426 97.599217 
L 697.997295 110.446363 
L 698.398164 137.608807 
L 699.600772 125.004317 
L 700.001641 113.543673 
L 700.40251 111.618651 
L 700.803379 112.580018 
L 701.204248 87.900533 
L 702.406856 81.957941 
L 702.807725 93.897097 
L 703.208594 116.548064 
L 703.609463 124.409556 
L 704.010333 169.884536 
L 705.613809 177.064301 
L 706.014678 176.501529 
L 706.415548 174.91167 
L 706.816417 178.931731 
L 708.019024 174.639059 
L 708.419894 182.322728 
L 708.820763 181.769462 
L 709.221632 199.276627 
L 709.622501 200.048223 
L 710.825109 191.45974 
L 711.225978 179.833676 
L 711.626847 158.241453 
L 712.027716 147.02225 
L 712.428585 126.632257 
L 713.631193 124.206787 
L 714.032062 104.967296 
L 714.432931 95.602058 
L 714.8338 95.267135 
L 715.23467 95.434204 
L 716.838146 86.050362 
L 717.239016 109.225424 
L 717.639885 117.588368 
L 718.040754 117.290575 
L 719.243361 117.680472 
L 719.644231 128.901656 
L 720.0451 144.280437 
L 720.445969 128.425513 
L 720.846838 137.163418 
L 722.049446 132.863415 
L 722.450315 142.094182 
L 722.851184 163.797118 
L 723.652922 170.603467 
L 724.85553 166.145749 
L 725.256399 161.224784 
L 725.657268 152.440985 
L 726.058137 154.12113 
L 726.459007 157.326603 
L 727.661614 136.441649 
L 728.062483 133.811473 
L 728.463353 134.975938 
L 728.864222 127.029164 
L 729.265091 128.549865 
L 730.467698 126.950386 
L 731.269437 100.210232 
L 731.670306 100.048282 
L 732.071175 114.522934 
L 733.273783 90.409418 
L 733.674652 90.704869 
L 734.075521 100.638643 
L 734.47639 105.02062 
L 734.877259 131.052307 
L 736.079867 123.377231 
L 736.480736 127.891064 
L 736.881605 147.020441 
L 737.282475 178.57275 
L 737.683344 179.873024 
L 738.885951 163.82654 
L 739.28682 170.050459 
L 739.68769 155.671146 
L 740.088559 131.746894 
L 740.489428 134.635011 
L 741.692035 118.917732 
L 742.092905 105.502648 
L 742.493774 101.036554 
L 743.295512 82.827672 
L 744.49812 90.793629 
L 744.898989 75.901183 
L 745.299858 52.587982 
L 745.700727 52.308805 
L 746.101596 54.094493 
L 747.304204 53.033844 
L 747.705073 61.356844 
L 748.105942 65.356805 
L 748.907681 68.339061 
L 750.110288 74.534401 
L 750.511157 79.314822 
L 750.912027 90.496454 
L 751.312896 85.037106 
L 751.713765 95.616363 
L 752.916373 97.377587 
L 753.317242 91.964575 
L 753.718111 102.431304 
L 754.11898 101.401029 
L 754.519849 95.869878 
L 755.722457 118.147477 
L 756.524195 98.762737 
L 756.925064 90.623434 
L 757.325933 92.784678 
L 758.528541 103.866332 
L 758.92941 95.2668 
L 759.330279 107.681178 
L 759.731149 112.620421 
L 760.132018 109.095767 
L 761.735494 128.473384 
L 762.136364 122.28961 
L 762.537233 130.58205 
L 762.938102 145.256955 
L 764.541579 161.423756 
L 764.942448 175.226495 
L 765.343317 204.671056 
L 765.744186 206.573355 
L 766.946794 174.243443 
L 767.347663 171.617363 
L 767.748532 171.617173 
L 768.149401 168.058029 
L 768.550271 165.574938 
L 770.554616 169.49784 
L 770.955486 141.524015 
L 771.356355 132.75851 
L 772.558962 122.677293 
L 772.959831 93.096226 
L 773.360701 89.626199 
L 773.76157 78.700705 
L 774.162439 84.462041 
L 775.365047 99.528998 
L 776.166785 132.822516 
L 776.567654 122.526718 
L 776.968523 126.858279 
L 778.171131 113.627463 
L 778.572 105.843862 
L 779.373738 140.28398 
L 779.774608 148.354147 
L 781.378084 165.001741 
L 781.778953 166.358296 
L 782.179823 162.684813 
L 782.580692 164.911144 
L 784.184169 156.525147 
L 784.585038 136.974072 
L 784.985907 139.564779 
L 785.386776 143.534234 
L 786.589384 161.897378 
L 786.990253 163.046674 
L 787.391122 167.816848 
L 787.791991 166.527744 
L 788.19286 175.748376 
L 789.395468 182.096241 
L 789.796337 186.911737 
L 790.197206 187.073044 
L 790.598075 186.823145 
L 790.998945 173.180658 
L 792.201552 160.238944 
L 792.602421 161.701891 
L 793.00329 177.606789 
L 793.40416 163.256226 
L 793.805029 160.84613 
L 795.007636 162.894669 
L 795.809375 134.11619 
L 796.210244 150.765766 
L 796.611113 135.879879 
L 797.813721 123.909624 
L 798.21459 124.444653 
L 798.615459 112.544165 
L 799.016328 124.192987 
L 800.619805 135.677108 
L 801.020674 140.873459 
L 801.421543 131.657955 
L 801.822412 141.365642 
L 802.223282 137.199663 
L 803.425889 144.928025 
L 803.826758 149.85297 
L 804.227627 167.161993 
L 804.628497 112.958173 
L 805.029366 111.088548 
L 806.231973 120.508489 
L 806.632843 127.658181 
L 807.033712 144.353507 
L 807.434581 141.918526 
L 807.83545 143.586316 
L 809.038058 136.873149 
L 809.438927 135.936449 
L 809.839796 125.990312 
L 810.240665 125.638356 
L 810.641534 123.847876 
L 811.844142 115.244668 
L 812.245011 119.344556 
L 812.64588 146.847549 
L 813.046749 138.087321 
L 813.447619 98.193231 
L 814.650226 92.247612 
L 815.051095 85.642601 
L 815.451965 81.094148 
L 815.852834 69.50117 
L 816.253703 76.335088 
L 817.45631 73.574685 
L 817.85718 74.760669 
L 818.258049 73.040166 
L 818.658918 70.402196 
L 819.059787 75.6123 
L 820.663264 50.897067 
L 821.064133 62.748735 
L 821.465002 109.346722 
L 821.865871 89.912136 
L 823.469348 91.763815 
L 823.870217 91.875354 
L 824.271086 94.307216 
L 824.671956 83.306239 
L 825.874563 87.303783 
L 826.676302 92.502023 
L 827.077171 102.664542 
L 827.47804 94.530262 
L 828.680647 118.183526 
L 829.081517 87.705339 
L 829.482386 74.750311 
L 829.883255 57.760421 
L 830.284124 67.864176 
L 831.486732 64.148929 
L 832.689339 88.870972 
L 833.090208 96.151664 
L 834.292816 97.723036 
L 834.693685 96.865359 
L 835.094554 93.372124 
L 835.495424 88.671146 
L 835.896293 100.636196 
L 837.0989 83.901817 
L 837.499769 96.96319 
L 837.900639 105.071709 
L 838.702377 98.587972 
L 839.904984 90.86448 
L 840.305854 96.119239 
L 840.706723 81.468344 
L 841.107592 84.265417 
L 841.508461 73.087166 
L 842.711069 70.076386 
L 843.111938 70.525047 
L 843.512807 93.901117 
L 843.913676 107.179218 
L 844.314545 98.277371 
L 845.517153 109.543284 
L 845.918022 114.659831 
L 846.719761 148.167479 
L 847.12063 151.262519 
L 848.323237 153.115342 
L 848.724106 166.597125 
L 849.124976 143.153232 
L 849.525845 162.428244 
L 849.926714 172.73351 
L 851.129322 187.090393 
L 851.530191 183.382992 
L 851.93106 166.605633 
L 852.732798 144.934956 
L 853.935406 143.561392 
L 854.336275 119.140615 
L 854.737144 115.192269 
L 855.138013 109.872021 
L 855.538882 107.858 
L 856.74149 109.36413 
L 857.142359 114.834903 
L 857.543228 103.54482 
L 857.944098 113.072461 
L 858.344967 62.068608 
L 859.547574 48.372037 
L 859.948443 49.639807 
L 860.349313 65.366773 
L 860.750182 64.774162 
L 861.151051 73.329665 
L 863.155397 130.023193 
L 863.556266 136.329613 
L 863.957135 148.085142 
L 865.159743 147.12184 
L 865.560612 152.759036 
L 865.961481 140.451582 
L 866.36235 133.616193 
L 866.76322 145.452037 
L 867.965827 163.799089 
L 868.366696 165.63422 
L 869.168435 129.16053 
L 869.569304 128.838996 
L 870.771911 114.922313 
L 871.17278 105.26635 
L 871.57365 113.314984 
L 871.974519 103.939117 
L 872.375388 103.478236 
L 873.577996 89.119284 
L 873.978865 117.493787 
L 874.379734 116.436482 
L 874.780603 118.750821 
L 875.181472 96.585706 
L 876.38408 114.314516 
L 876.784949 113.922628 
L 877.185818 124.739209 
L 877.586687 124.245543 
L 877.987557 123.539987 
L 879.190164 116.261472 
L 879.591033 107.70604 
L 879.991902 116.113728 
L 880.392772 115.894655 
L 880.793641 121.387511 
L 881.996248 95.038576 
L 882.397118 98.745019 
L 882.797987 112.790619 
L 883.198856 116.097161 
L 883.599725 95.550994 
L 884.802333 100.385274 
L 886.00494 131.850212 
L 886.405809 153.995054 
L 887.608417 167.566216 
L 888.009286 156.109179 
L 888.410155 159.559061 
L 888.811024 151.166385 
L 889.211894 158.188129 
L 890.414501 162.649483 
L 890.81537 150.589027 
L 891.216239 145.92508 
L 891.617109 136.647563 
L 892.017978 153.228225 
L 893.220585 142.724473 
L 893.621455 131.853961 
L 894.022324 113.984883 
L 894.824062 93.159745 
L 896.02667 89.251448 
L 896.427539 80.696622 
L 896.828408 92.442493 
L 897.630146 84.761231 
L 898.832754 63.34442 
L 899.233623 59.64097 
L 899.634492 60.218876 
L 900.035361 64.102621 
L 900.436231 39.67723 
L 901.638838 39.331865 
L 902.039707 39.06 
L 902.440576 50.077741 
L 902.841446 45.259859 
L 903.242315 46.000331 
L 904.444922 46.060158 
L 904.845792 45.895201 
L 905.246661 80.441 
L 905.64753 81.663102 
L 906.048399 77.425123 
L 907.251007 81.361232 
L 907.651876 76.96884 
L 908.453614 75.770948 
L 908.854483 90.021095 
L 911.660568 138.247788 
L 912.863175 134.239969 
L 913.264044 148.151955 
L 913.664914 154.288368 
L 914.466652 155.043083 
L 915.669259 164.942862 
L 916.070129 184.902368 
L 916.470998 169.686003 
L 916.871867 189.720114 
L 917.272736 186.624486 
L 918.876213 189.360521 
L 919.277082 183.136459 
L 919.677951 181.794566 
L 920.07882 176.193637 
L 921.281428 153.929318 
L 921.682297 138.546921 
L 922.083166 131.836731 
L 922.484035 135.736114 
L 922.884905 128.282018 
L 924.087512 137.748369 
L 924.488381 127.418925 
L 924.889251 136.12952 
L 925.29012 116.204777 
L 925.690989 131.188836 
L 927.294466 107.855372 
L 928.096204 92.956965 
L 928.497073 97.903823 
L 930.10055 111.749089 
L 930.501419 113.12771 
L 930.902288 106.339092 
L 931.303157 102.417813 
L 932.505765 69.284246 
L 932.906634 76.201358 
L 933.307503 103.650758 
L 933.708373 115.187388 
L 934.109242 87.312869 
L 935.311849 101.009383 
L 936.514457 148.226787 
L 936.915326 145.431403 
L 939.320541 187.909975 
L 939.72141 181.804193 
L 940.924018 180.449592 
L 941.324887 176.280798 
L 941.725756 166.601163 
L 942.126625 180.381028 
L 942.527494 164.640959 
L 943.730102 155.658951 
L 944.130971 148.296127 
L 944.53184 150.73516 
L 944.93271 153.928238 
L 946.937055 112.628368 
L 947.337925 88.614131 
L 947.738794 145.303678 
L 948.139663 163.104721 
L 949.342271 167.63841 
L 949.74314 178.221153 
L 950.144009 140.542084 
L 950.544878 151.031982 
L 950.945747 145.497882 
L 952.148355 144.161888 
L 952.549224 142.903455 
L 952.950093 150.290975 
L 953.350962 143.83564 
L 954.954439 150.538666 
L 955.355308 145.097985 
L 955.756177 141.31618 
L 956.557916 105.506037 
L 957.760523 95.637806 
L 958.161392 80.522382 
L 958.562262 102.944502 
L 958.963131 80.45898 
L 959.364 112.19174 
L 960.566608 133.61132 
L 960.967477 133.611347 
L 961.368346 122.344949 
L 961.769215 125.492939 
L 962.170084 113.744462 
L 963.372692 103.006671 
L 963.773561 107.53391 
L 964.17443 116.479166 
L 964.575299 120.767496 
L 964.976169 123.228646 
L 966.178776 131.712756 
L 966.579645 139.079892 
L 966.980514 149.810222 
L 967.381384 136.02553 
L 967.782253 135.1956 
L 969.385729 122.18843 
L 969.786599 116.07179 
L 970.187468 120.020964 
L 970.588337 120.335918 
L 971.790945 158.37205 
L 972.191814 161.084714 
L 972.592683 160.742106 
L 972.993552 163.60897 
L 973.394421 149.19833 
L 974.597029 149.174882 
L 974.997898 139.819271 
L 975.398767 137.363717 
L 975.799636 133.711793 
L 976.200506 122.268043 
L 977.403113 134.133293 
L 977.803982 144.615207 
L 978.204851 139.080084 
L 979.00659 126.149778 
L 980.209197 127.294212 
L 980.610067 136.525361 
L 981.411805 125.368511 
L 981.812674 137.650418 
L 983.015282 113.106801 
L 983.416151 108.879346 
L 983.81702 80.753886 
L 984.217889 79.585831 
L 985.821366 83.636275 
L 986.222235 87.190072 
L 986.623104 70.562468 
L 987.023973 70.080442 
L 987.424843 85.416228 
L 988.62745 100.068212 
L 989.028319 92.81725 
L 989.429188 93.340422 
L 990.230927 88.558698 
L 991.834404 97.794302 
L 992.235273 117.244688 
L 992.636142 125.433347 
L 993.037011 98.114693 
L 994.239619 97.561055 
L 995.041357 146.83432 
L 995.442226 147.906854 
L 995.843095 158.357163 
L 997.045703 155.182896 
L 997.446572 163.718929 
L 997.847441 115.965162 
L 998.64918 88.851169 
L 999.851787 97.42918 
L 1000.252656 93.090505 
L 1000.653525 87.324553 
L 1001.054395 88.992454 
L 1001.455264 92.390903 
L 1002.657871 86.707647 
L 1003.058741 81.090515 
L 1003.45961 90.007995 
L 1003.860479 77.912643 
L 1004.261348 76.023492 
L 1005.463956 76.558468 
L 1006.265694 95.465521 
L 1006.666563 113.652662 
L 1007.067432 106.918186 
L 1008.670909 126.357973 
L 1008.670909 126.357973 
" clip-path="url(#p83047cd61e)" style="fill: none; stroke: #1f77b4; stroke-width: 1.5; stroke-linecap: square"/>
   </g>
   <g id="patch_3">
    <path d="M 145.8 224.28 
L 145.8 30.24 
" style="fill: none; stroke: #000000; stroke-width: 0.8; stroke-linejoin: miter; stroke-linecap: square"/>
   </g>
   <g id="patch_4">
    <path d="M 145.8 224.28 
L 1049.76 224.28 
" style="fill: none; stroke: #000000; stroke-width: 0.8; stroke-linejoin: miter; stroke-linecap: square"/>
   </g>
  </g>
 </g>
 <defs>
  <clipPath id="p83047cd61e">
   <rect x="145.8" y="30.24" width="903.96" height="194.04"/>
  </clipPath>
 </defs>
</svg>
