<?xml version="1.0" encoding="utf-8" standalone="no"?>
<!DOCTYPE svg PUBLIC "-//W3C//DTD SVG 1.1//EN"
  "http://www.w3.org/Graphics/SVG/1.1/DTD/svg11.dtd">
<svg xmlns:xlink="http://www.w3.org/1999/xlink" width="1166.4pt" height="252pt" viewBox="0 0 1166.4 252" xmlns="http://www.w3.org/2000/svg" version="1.1">
 <metadata>
  <rdf:RDF xmlns:dc="http://purl.org/dc/elements/1.1/" xmlns:cc="http://creativecommons.org/ns#" xmlns:rdf="http://www.w3.org/1999/02/22-rdf-syntax-ns#">
   <cc:Work>
    <dc:type rdf:resource="http://purl.org/dc/dcmitype/StillImage"/>
    <dc:date>2025-08-31T00:52:46.955015</dc:date>
    <dc:format>image/svg+xml</dc:format>
    <dc:creator>
     <cc:Agent>
      <dc:title>Matplotlib v3.10.5, https://matplotlib.org/</dc:title>
     </cc:Agent>
    </dc:creator>
   </cc:Work>
  </rdf:RDF>
 </metadata>
 <defs>
  <style type="text/css">*{stroke-linejoin: round; stroke-linecap: butt}</style>
 </defs>
 <g id="figure_1">
  <g id="patch_1">
   <path d="M 0 252 
L 1166.4 252 
L 1166.4 0 
L 0 0 
z
" style="fill: #ffffff"/>
  </g>
  <g id="axes_1">
   <g id="patch_2">
    <path d="M 145.8 224.28 
L 1049.76 224.28 
L 1049.76 30.24 
L 145.8 30.24 
z
" style="fill: #ffffff"/>
   </g>
   <g id="matplotlib.axis_1">
    <g id="xtick_1">
     <g id="line2d_1">
      <defs>
       <path id="m4e334f3e75" d="M 0 0 
L 0 3.5 
" style="stroke: #000000; stroke-width: 0.8"/>
      </defs>
      <g>
       <use xlink:href="#m4e334f3e75" x="197.310237" y="224.28" style="stroke: #000000; stroke-width: 0.8"/>
      </g>
     </g>
     <g id="text_1">
      <!-- 2024-03 -->
      <g transform="translate(176.418831 238.878438) scale(0.1 -0.1)">
       <defs>
        <path id="DejaVuSans-32" d="M 1228 531 
L 3431 531 
L 3431 0 
L 469 0 
L 469 531 
Q 828 903 1448 1529 
Q 2069 2156 2228 2338 
Q 2531 2678 2651 2914 
Q 2772 3150 2772 3378 
Q 2772 3750 2511 3984 
Q 2250 4219 1831 4219 
Q 1534 4219 1204 4116 
Q 875 4013 500 3803 
L 500 4441 
Q 881 4594 1212 4672 
Q 1544 4750 1819 4750 
Q 2544 4750 2975 4387 
Q 3406 4025 3406 3419 
Q 3406 3131 3298 2873 
Q 3191 2616 2906 2266 
Q 2828 2175 2409 1742 
Q 1991 1309 1228 531 
z
" transform="scale(0.015625)"/>
        <path id="DejaVuSans-30" d="M 2034 4250 
Q 1547 4250 1301 3770 
Q 1056 3291 1056 2328 
Q 1056 1369 1301 889 
Q 1547 409 2034 409 
Q 2525 409 2770 889 
Q 3016 1369 3016 2328 
Q 3016 3291 2770 3770 
Q 2525 4250 2034 4250 
z
M 2034 4750 
Q 2819 4750 3233 4129 
Q 3647 3509 3647 2328 
Q 3647 1150 3233 529 
Q 2819 -91 2034 -91 
Q 1250 -91 836 529 
Q 422 1150 422 2328 
Q 422 3509 836 4129 
Q 1250 4750 2034 4750 
z
" transform="scale(0.015625)"/>
        <path id="DejaVuSans-34" d="M 2419 4116 
L 825 1625 
L 2419 1625 
L 2419 4116 
z
M 2253 4666 
L 3047 4666 
L 3047 1625 
L 3713 1625 
L 3713 1100 
L 3047 1100 
L 3047 0 
L 2419 0 
L 2419 1100 
L 313 1100 
L 313 1709 
L 2253 4666 
z
" transform="scale(0.015625)"/>
        <path id="DejaVuSans-2d" d="M 313 2009 
L 1997 2009 
L 1997 1497 
L 313 1497 
L 313 2009 
z
" transform="scale(0.015625)"/>
        <path id="DejaVuSans-33" d="M 2597 2516 
Q 3050 2419 3304 2112 
Q 3559 1806 3559 1356 
Q 3559 666 3084 287 
Q 2609 -91 1734 -91 
Q 1441 -91 1130 -33 
Q 819 25 488 141 
L 488 750 
Q 750 597 1062 519 
Q 1375 441 1716 441 
Q 2309 441 2620 675 
Q 2931 909 2931 1356 
Q 2931 1769 2642 2001 
Q 2353 2234 1838 2234 
L 1294 2234 
L 1294 2753 
L 1863 2753 
Q 2328 2753 2575 2939 
Q 2822 3125 2822 3475 
Q 2822 3834 2567 4026 
Q 2313 4219 1838 4219 
Q 1578 4219 1281 4162 
Q 984 4106 628 3988 
L 628 4550 
Q 988 4650 1302 4700 
Q 1616 4750 1894 4750 
Q 2613 4750 3031 4423 
Q 3450 4097 3450 3541 
Q 3450 3153 3228 2886 
Q 3006 2619 2597 2516 
z
" transform="scale(0.015625)"/>
       </defs>
       <use xlink:href="#DejaVuSans-32"/>
       <use xlink:href="#DejaVuSans-30" transform="translate(63.623047 0)"/>
       <use xlink:href="#DejaVuSans-32" transform="translate(127.246094 0)"/>
       <use xlink:href="#DejaVuSans-34" transform="translate(190.869141 0)"/>
       <use xlink:href="#DejaVuSans-2d" transform="translate(254.492188 0)"/>
       <use xlink:href="#DejaVuSans-30" transform="translate(290.576172 0)"/>
       <use xlink:href="#DejaVuSans-33" transform="translate(354.199219 0)"/>
      </g>
     </g>
    </g>
    <g id="xtick_2">
     <g id="line2d_2">
      <g>
       <use xlink:href="#m4e334f3e75" x="288.123083" y="224.28" style="stroke: #000000; stroke-width: 0.8"/>
      </g>
     </g>
     <g id="text_2">
      <!-- 2024-05 -->
      <g transform="translate(267.231677 238.878438) scale(0.1 -0.1)">
       <defs>
        <path id="DejaVuSans-35" d="M 691 4666 
L 3169 4666 
L 3169 4134 
L 1269 4134 
L 1269 2991 
Q 1406 3038 1543 3061 
Q 1681 3084 1819 3084 
Q 2600 3084 3056 2656 
Q 3513 2228 3513 1497 
Q 3513 744 3044 326 
Q 2575 -91 1722 -91 
Q 1428 -91 1123 -41 
Q 819 9 494 109 
L 494 744 
Q 775 591 1075 516 
Q 1375 441 1709 441 
Q 2250 441 2565 725 
Q 2881 1009 2881 1497 
Q 2881 1984 2565 2268 
Q 2250 2553 1709 2553 
Q 1456 2553 1204 2497 
Q 953 2441 691 2322 
L 691 4666 
z
" transform="scale(0.015625)"/>
       </defs>
       <use xlink:href="#DejaVuSans-32"/>
       <use xlink:href="#DejaVuSans-30" transform="translate(63.623047 0)"/>
       <use xlink:href="#DejaVuSans-32" transform="translate(127.246094 0)"/>
       <use xlink:href="#DejaVuSans-34" transform="translate(190.869141 0)"/>
       <use xlink:href="#DejaVuSans-2d" transform="translate(254.492188 0)"/>
       <use xlink:href="#DejaVuSans-30" transform="translate(290.576172 0)"/>
       <use xlink:href="#DejaVuSans-35" transform="translate(354.199219 0)"/>
      </g>
     </g>
    </g>
    <g id="xtick_3">
     <g id="line2d_3">
      <g>
       <use xlink:href="#m4e334f3e75" x="378.935929" y="224.28" style="stroke: #000000; stroke-width: 0.8"/>
      </g>
     </g>
     <g id="text_3">
      <!-- 2024-07 -->
      <g transform="translate(358.044523 238.878438) scale(0.1 -0.1)">
       <defs>
        <path id="DejaVuSans-37" d="M 525 4666 
L 3525 4666 
L 3525 4397 
L 1831 0 
L 1172 0 
L 2766 4134 
L 525 4134 
L 525 4666 
z
" transform="scale(0.015625)"/>
       </defs>
       <use xlink:href="#DejaVuSans-32"/>
       <use xlink:href="#DejaVuSans-30" transform="translate(63.623047 0)"/>
       <use xlink:href="#DejaVuSans-32" transform="translate(127.246094 0)"/>
       <use xlink:href="#DejaVuSans-34" transform="translate(190.869141 0)"/>
       <use xlink:href="#DejaVuSans-2d" transform="translate(254.492188 0)"/>
       <use xlink:href="#DejaVuSans-30" transform="translate(290.576172 0)"/>
       <use xlink:href="#DejaVuSans-37" transform="translate(354.199219 0)"/>
      </g>
     </g>
    </g>
    <g id="xtick_4">
     <g id="line2d_4">
      <g>
       <use xlink:href="#m4e334f3e75" x="471.23751" y="224.28" style="stroke: #000000; stroke-width: 0.8"/>
      </g>
     </g>
     <g id="text_4">
      <!-- 2024-09 -->
      <g transform="translate(450.346104 238.878438) scale(0.1 -0.1)">
       <defs>
        <path id="DejaVuSans-39" d="M 703 97 
L 703 672 
Q 941 559 1184 500 
Q 1428 441 1663 441 
Q 2288 441 2617 861 
Q 2947 1281 2994 2138 
Q 2813 1869 2534 1725 
Q 2256 1581 1919 1581 
Q 1219 1581 811 2004 
Q 403 2428 403 3163 
Q 403 3881 828 4315 
Q 1253 4750 1959 4750 
Q 2769 4750 3195 4129 
Q 3622 3509 3622 2328 
Q 3622 1225 3098 567 
Q 2575 -91 1691 -91 
Q 1453 -91 1209 -44 
Q 966 3 703 97 
z
M 1959 2075 
Q 2384 2075 2632 2365 
Q 2881 2656 2881 3163 
Q 2881 3666 2632 3958 
Q 2384 4250 1959 4250 
Q 1534 4250 1286 3958 
Q 1038 3666 1038 3163 
Q 1038 2656 1286 2365 
Q 1534 2075 1959 2075 
z
" transform="scale(0.015625)"/>
       </defs>
       <use xlink:href="#DejaVuSans-32"/>
       <use xlink:href="#DejaVuSans-30" transform="translate(63.623047 0)"/>
       <use xlink:href="#DejaVuSans-32" transform="translate(127.246094 0)"/>
       <use xlink:href="#DejaVuSans-34" transform="translate(190.869141 0)"/>
       <use xlink:href="#DejaVuSans-2d" transform="translate(254.492188 0)"/>
       <use xlink:href="#DejaVuSans-30" transform="translate(290.576172 0)"/>
       <use xlink:href="#DejaVuSans-39" transform="translate(354.199219 0)"/>
      </g>
     </g>
    </g>
    <g id="xtick_5">
     <g id="line2d_5">
      <g>
       <use xlink:href="#m4e334f3e75" x="562.050356" y="224.28" style="stroke: #000000; stroke-width: 0.8"/>
      </g>
     </g>
     <g id="text_5">
      <!-- 2024-11 -->
      <g transform="translate(541.158949 238.878438) scale(0.1 -0.1)">
       <defs>
        <path id="DejaVuSans-31" d="M 794 531 
L 1825 531 
L 1825 4091 
L 703 3866 
L 703 4441 
L 1819 4666 
L 2450 4666 
L 2450 531 
L 3481 531 
L 3481 0 
L 794 0 
L 794 531 
z
" transform="scale(0.015625)"/>
       </defs>
       <use xlink:href="#DejaVuSans-32"/>
       <use xlink:href="#DejaVuSans-30" transform="translate(63.623047 0)"/>
       <use xlink:href="#DejaVuSans-32" transform="translate(127.246094 0)"/>
       <use xlink:href="#DejaVuSans-34" transform="translate(190.869141 0)"/>
       <use xlink:href="#DejaVuSans-2d" transform="translate(254.492188 0)"/>
       <use xlink:href="#DejaVuSans-31" transform="translate(290.576172 0)"/>
       <use xlink:href="#DejaVuSans-31" transform="translate(354.199219 0)"/>
      </g>
     </g>
    </g>
    <g id="xtick_6">
     <g id="line2d_6">
      <g>
       <use xlink:href="#m4e334f3e75" x="652.863202" y="224.28" style="stroke: #000000; stroke-width: 0.8"/>
      </g>
     </g>
     <g id="text_6">
      <!-- 2025-01 -->
      <g transform="translate(631.971795 238.878438) scale(0.1 -0.1)">
       <use xlink:href="#DejaVuSans-32"/>
       <use xlink:href="#DejaVuSans-30" transform="translate(63.623047 0)"/>
       <use xlink:href="#DejaVuSans-32" transform="translate(127.246094 0)"/>
       <use xlink:href="#DejaVuSans-35" transform="translate(190.869141 0)"/>
       <use xlink:href="#DejaVuSans-2d" transform="translate(254.492188 0)"/>
       <use xlink:href="#DejaVuSans-30" transform="translate(290.576172 0)"/>
       <use xlink:href="#DejaVuSans-31" transform="translate(354.199219 0)"/>
      </g>
     </g>
    </g>
    <g id="xtick_7">
     <g id="line2d_7">
      <g>
       <use xlink:href="#m4e334f3e75" x="740.698577" y="224.28" style="stroke: #000000; stroke-width: 0.8"/>
      </g>
     </g>
     <g id="text_7">
      <!-- 2025-03 -->
      <g transform="translate(719.807171 238.878438) scale(0.1 -0.1)">
       <use xlink:href="#DejaVuSans-32"/>
       <use xlink:href="#DejaVuSans-30" transform="translate(63.623047 0)"/>
       <use xlink:href="#DejaVuSans-32" transform="translate(127.246094 0)"/>
       <use xlink:href="#DejaVuSans-35" transform="translate(190.869141 0)"/>
       <use xlink:href="#DejaVuSans-2d" transform="translate(254.492188 0)"/>
       <use xlink:href="#DejaVuSans-30" transform="translate(290.576172 0)"/>
       <use xlink:href="#DejaVuSans-33" transform="translate(354.199219 0)"/>
      </g>
     </g>
    </g>
    <g id="xtick_8">
     <g id="line2d_8">
      <g>
       <use xlink:href="#m4e334f3e75" x="831.511423" y="224.28" style="stroke: #000000; stroke-width: 0.8"/>
      </g>
     </g>
     <g id="text_8">
      <!-- 2025-05 -->
      <g transform="translate(810.620017 238.878438) scale(0.1 -0.1)">
       <use xlink:href="#DejaVuSans-32"/>
       <use xlink:href="#DejaVuSans-30" transform="translate(63.623047 0)"/>
       <use xlink:href="#DejaVuSans-32" transform="translate(127.246094 0)"/>
       <use xlink:href="#DejaVuSans-35" transform="translate(190.869141 0)"/>
       <use xlink:href="#DejaVuSans-2d" transform="translate(254.492188 0)"/>
       <use xlink:href="#DejaVuSans-30" transform="translate(290.576172 0)"/>
       <use xlink:href="#DejaVuSans-35" transform="translate(354.199219 0)"/>
      </g>
     </g>
    </g>
    <g id="xtick_9">
     <g id="line2d_9">
      <g>
       <use xlink:href="#m4e334f3e75" x="922.324269" y="224.28" style="stroke: #000000; stroke-width: 0.8"/>
      </g>
     </g>
     <g id="text_9">
      <!-- 2025-07 -->
      <g transform="translate(901.432863 238.878438) scale(0.1 -0.1)">
       <use xlink:href="#DejaVuSans-32"/>
       <use xlink:href="#DejaVuSans-30" transform="translate(63.623047 0)"/>
       <use xlink:href="#DejaVuSans-32" transform="translate(127.246094 0)"/>
       <use xlink:href="#DejaVuSans-35" transform="translate(190.869141 0)"/>
       <use xlink:href="#DejaVuSans-2d" transform="translate(254.492188 0)"/>
       <use xlink:href="#DejaVuSans-30" transform="translate(290.576172 0)"/>
       <use xlink:href="#DejaVuSans-37" transform="translate(354.199219 0)"/>
      </g>
     </g>
    </g>
    <g id="xtick_10">
     <g id="line2d_10">
      <g>
       <use xlink:href="#m4e334f3e75" x="1014.62585" y="224.28" style="stroke: #000000; stroke-width: 0.8"/>
      </g>
     </g>
     <g id="text_10">
      <!-- 2025-09 -->
      <g transform="translate(993.734444 238.878438) scale(0.1 -0.1)">
       <use xlink:href="#DejaVuSans-32"/>
       <use xlink:href="#DejaVuSans-30" transform="translate(63.623047 0)"/>
       <use xlink:href="#DejaVuSans-32" transform="translate(127.246094 0)"/>
       <use xlink:href="#DejaVuSans-35" transform="translate(190.869141 0)"/>
       <use xlink:href="#DejaVuSans-2d" transform="translate(254.492188 0)"/>
       <use xlink:href="#DejaVuSans-30" transform="translate(290.576172 0)"/>
       <use xlink:href="#DejaVuSans-39" transform="translate(354.199219 0)"/>
      </g>
     </g>
    </g>
   </g>
   <g id="matplotlib.axis_2">
    <g id="ytick_1">
     <g id="line2d_11">
      <defs>
       <path id="m10ec6d275a" d="M 0 0 
L -3.5 0 
" style="stroke: #000000; stroke-width: 0.8"/>
      </defs>
      <g>
       <use xlink:href="#m10ec6d275a" x="145.8" y="208.236684" style="stroke: #000000; stroke-width: 0.8"/>
      </g>
     </g>
     <g id="text_11">
      <!-- 20 -->
      <g transform="translate(126.075 212.035903) scale(0.1 -0.1)">
       <use xlink:href="#DejaVuSans-32"/>
       <use xlink:href="#DejaVuSans-30" transform="translate(63.623047 0)"/>
      </g>
     </g>
    </g>
    <g id="ytick_2">
     <g id="line2d_12">
      <g>
       <use xlink:href="#m10ec6d275a" x="145.8" y="186.024229" style="stroke: #000000; stroke-width: 0.8"/>
      </g>
     </g>
     <g id="text_12">
      <!-- 30 -->
      <g transform="translate(126.075 189.823448) scale(0.1 -0.1)">
       <use xlink:href="#DejaVuSans-33"/>
       <use xlink:href="#DejaVuSans-30" transform="translate(63.623047 0)"/>
      </g>
     </g>
    </g>
    <g id="ytick_3">
     <g id="line2d_13">
      <g>
       <use xlink:href="#m10ec6d275a" x="145.8" y="163.811774" style="stroke: #000000; stroke-width: 0.8"/>
      </g>
     </g>
     <g id="text_13">
      <!-- 40 -->
      <g transform="translate(126.075 167.610993) scale(0.1 -0.1)">
       <use xlink:href="#DejaVuSans-34"/>
       <use xlink:href="#DejaVuSans-30" transform="translate(63.623047 0)"/>
      </g>
     </g>
    </g>
    <g id="ytick_4">
     <g id="line2d_14">
      <g>
       <use xlink:href="#m10ec6d275a" x="145.8" y="141.599319" style="stroke: #000000; stroke-width: 0.8"/>
      </g>
     </g>
     <g id="text_14">
      <!-- 50 -->
      <g transform="translate(126.075 145.398538) scale(0.1 -0.1)">
       <use xlink:href="#DejaVuSans-35"/>
       <use xlink:href="#DejaVuSans-30" transform="translate(63.623047 0)"/>
      </g>
     </g>
    </g>
    <g id="ytick_5">
     <g id="line2d_15">
      <g>
       <use xlink:href="#m10ec6d275a" x="145.8" y="119.386864" style="stroke: #000000; stroke-width: 0.8"/>
      </g>
     </g>
     <g id="text_15">
      <!-- 60 -->
      <g transform="translate(126.075 123.186083) scale(0.1 -0.1)">
       <defs>
        <path id="DejaVuSans-36" d="M 2113 2584 
Q 1688 2584 1439 2293 
Q 1191 2003 1191 1497 
Q 1191 994 1439 701 
Q 1688 409 2113 409 
Q 2538 409 2786 701 
Q 3034 994 3034 1497 
Q 3034 2003 2786 2293 
Q 2538 2584 2113 2584 
z
M 3366 4563 
L 3366 3988 
Q 3128 4100 2886 4159 
Q 2644 4219 2406 4219 
Q 1781 4219 1451 3797 
Q 1122 3375 1075 2522 
Q 1259 2794 1537 2939 
Q 1816 3084 2150 3084 
Q 2853 3084 3261 2657 
Q 3669 2231 3669 1497 
Q 3669 778 3244 343 
Q 2819 -91 2113 -91 
Q 1303 -91 875 529 
Q 447 1150 447 2328 
Q 447 3434 972 4092 
Q 1497 4750 2381 4750 
Q 2619 4750 2861 4703 
Q 3103 4656 3366 4563 
z
" transform="scale(0.015625)"/>
       </defs>
       <use xlink:href="#DejaVuSans-36"/>
       <use xlink:href="#DejaVuSans-30" transform="translate(63.623047 0)"/>
      </g>
     </g>
    </g>
    <g id="ytick_6">
     <g id="line2d_16">
      <g>
       <use xlink:href="#m10ec6d275a" x="145.8" y="97.174409" style="stroke: #000000; stroke-width: 0.8"/>
      </g>
     </g>
     <g id="text_16">
      <!-- 70 -->
      <g transform="translate(126.075 100.973628) scale(0.1 -0.1)">
       <use xlink:href="#DejaVuSans-37"/>
       <use xlink:href="#DejaVuSans-30" transform="translate(63.623047 0)"/>
      </g>
     </g>
    </g>
    <g id="ytick_7">
     <g id="line2d_17">
      <g>
       <use xlink:href="#m10ec6d275a" x="145.8" y="74.961954" style="stroke: #000000; stroke-width: 0.8"/>
      </g>
     </g>
     <g id="text_17">
      <!-- 80 -->
      <g transform="translate(126.075 78.761173) scale(0.1 -0.1)">
       <defs>
        <path id="DejaVuSans-38" d="M 2034 2216 
Q 1584 2216 1326 1975 
Q 1069 1734 1069 1313 
Q 1069 891 1326 650 
Q 1584 409 2034 409 
Q 2484 409 2743 651 
Q 3003 894 3003 1313 
Q 3003 1734 2745 1975 
Q 2488 2216 2034 2216 
z
M 1403 2484 
Q 997 2584 770 2862 
Q 544 3141 544 3541 
Q 544 4100 942 4425 
Q 1341 4750 2034 4750 
Q 2731 4750 3128 4425 
Q 3525 4100 3525 3541 
Q 3525 3141 3298 2862 
Q 3072 2584 2669 2484 
Q 3125 2378 3379 2068 
Q 3634 1759 3634 1313 
Q 3634 634 3220 271 
Q 2806 -91 2034 -91 
Q 1263 -91 848 271 
Q 434 634 434 1313 
Q 434 1759 690 2068 
Q 947 2378 1403 2484 
z
M 1172 3481 
Q 1172 3119 1398 2916 
Q 1625 2713 2034 2713 
Q 2441 2713 2670 2916 
Q 2900 3119 2900 3481 
Q 2900 3844 2670 4047 
Q 2441 4250 2034 4250 
Q 1625 4250 1398 4047 
Q 1172 3844 1172 3481 
z
" transform="scale(0.015625)"/>
       </defs>
       <use xlink:href="#DejaVuSans-38"/>
       <use xlink:href="#DejaVuSans-30" transform="translate(63.623047 0)"/>
      </g>
     </g>
    </g>
    <g id="ytick_8">
     <g id="line2d_18">
      <g>
       <use xlink:href="#m10ec6d275a" x="145.8" y="52.749499" style="stroke: #000000; stroke-width: 0.8"/>
      </g>
     </g>
     <g id="text_18">
      <!-- 90 -->
      <g transform="translate(126.075 56.548718) scale(0.1 -0.1)">
       <use xlink:href="#DejaVuSans-39"/>
       <use xlink:href="#DejaVuSans-30" transform="translate(63.623047 0)"/>
      </g>
     </g>
    </g>
    <g id="ytick_9">
     <g id="line2d_19">
      <g>
       <use xlink:href="#m10ec6d275a" x="145.8" y="30.537044" style="stroke: #000000; stroke-width: 0.8"/>
      </g>
     </g>
     <g id="text_19">
      <!-- 100 -->
      <g transform="translate(119.7125 34.336263) scale(0.1 -0.1)">
       <use xlink:href="#DejaVuSans-31"/>
       <use xlink:href="#DejaVuSans-30" transform="translate(63.623047 0)"/>
       <use xlink:href="#DejaVuSans-30" transform="translate(127.246094 0)"/>
      </g>
     </g>
    </g>
   </g>
   <g id="line2d_20">
    <path d="M 186.889091 161.383471 
L 191.355296 182.883855 
L 192.844032 184.229362 
L 194.332767 189.814873 
L 195.821502 188.305472 
L 197.310237 199.101408 
L 201.776443 206.533812 
L 203.265178 212.172167 
L 204.753913 212.360954 
L 206.242648 212.068413 
L 207.731383 196.095068 
L 212.197589 180.942079 
L 213.686324 182.654866 
L 215.175059 201.277245 
L 216.663794 184.47489 
L 218.15253 181.653039 
L 222.618735 184.051658 
L 224.10747 165.845973 
L 225.596206 150.356367 
L 227.084941 169.850492 
L 228.573676 152.421564 
L 233.039881 138.406128 
L 234.528617 139.032633 
L 236.017352 125.098854 
L 237.506087 138.737899 
L 243.461028 152.184185 
L 244.949763 158.26814 
L 246.438498 147.478245 
L 247.927233 158.844554 
L 249.415968 153.966692 
L 253.882174 163.015418 
L 255.370909 168.781779 
L 256.859644 189.04817 
L 258.348379 125.583663 
L 259.837115 123.394447 
L 264.30332 134.423913 
L 265.792055 142.795058 
L 267.280791 162.342844 
L 268.769526 159.491752 
L 270.258261 161.444532 
L 274.724466 153.584423 
L 276.213202 152.487691 
L 277.701937 140.842294 
L 279.190672 140.430322 
L 280.679407 138.333884 
L 285.145613 128.260735 
L 286.634348 133.061189 
L 288.123083 165.262934 
L 289.611818 155.00607 
L 291.100553 108.296211 
L 295.566759 101.334803 
L 297.055494 93.601229 
L 298.544229 88.275806 
L 300.032964 74.702119 
L 301.5217 82.703381 
L 305.987905 79.471399 
L 307.47664 80.860071 
L 308.965375 78.84558 
L 310.454111 75.75691 
L 311.942846 81.857168 
L 316.409051 61.050341 
L 317.897787 52.919059 
L 319.386522 66.795705 
L 320.875257 121.354832 
L 322.363992 98.600021 
L 328.318933 100.768055 
L 329.807668 100.898702 
L 331.296403 103.746102 
L 332.785138 90.865934 
L 337.251344 95.546318 
L 340.228814 101.632547 
L 341.717549 113.531187 
L 343.206285 104.007369 
L 347.67249 131.701631 
L 349.161225 96.016364 
L 350.64996 80.847879 
L 352.138696 60.955294 
L 353.627431 72.785274 
L 358.093636 68.435294 
L 359.582372 78.999672 
L 364.048577 105.905738 
L 368.514783 107.745577 
L 370.003518 106.741392 
L 371.492253 102.651341 
L 372.980988 97.14721 
L 374.469723 111.15642 
L 378.935929 91.56311 
L 380.424664 106.855983 
L 381.913399 116.349854 
L 384.89087 108.758384 
L 389.357075 99.715356 
L 390.84581 105.86785 
L 392.334545 88.713878 
L 393.823281 91.988579 
L 395.312016 78.900614 
L 399.778221 75.37547 
L 401.266957 75.900784 
L 402.755692 103.270584 
L 404.244427 118.817396 
L 405.733162 108.394672 
L 410.199368 121.585369 
L 411.688103 127.576004 
L 413.176838 149.422824 
L 414.665573 166.808366 
L 416.154308 170.432311 
L 420.620514 172.601754 
L 422.109249 188.386679 
L 423.597984 160.937558 
L 425.086719 183.505669 
L 426.575455 195.571507 
L 431.04166 212.381212 
L 432.530395 208.040448 
L 434.01913 188.396727 
L 435.507866 174.229772 
L 436.996601 163.023666 
L 441.462806 161.41528 
L 442.951542 132.822334 
L 444.440277 128.199482 
L 445.929012 121.970246 
L 447.417747 119.612136 
L 451.883953 121.375552 
L 453.372688 127.780998 
L 454.861423 114.562019 
L 456.350158 125.71743 
L 457.838893 65.999654 
L 462.305099 49.962907 
L 463.793834 51.447233 
L 465.282569 69.861187 
L 466.771304 69.167274 
L 468.26004 79.184457 
L 474.21498 134.324444 
L 475.703715 145.564269 
L 477.192451 152.948084 
L 478.681186 166.71198 
L 483.147391 165.584123 
L 484.636126 172.184441 
L 486.124862 157.77416 
L 487.613597 149.771026 
L 489.102332 163.628912 
L 493.568538 185.110474 
L 495.057273 187.259127 
L 496.546008 163.288211 
L 498.034743 144.554082 
L 499.523478 144.177663 
L 503.989684 127.883445 
L 505.478419 116.577772 
L 506.967154 126.001467 
L 508.455889 115.023792 
L 509.944625 114.484218 
L 514.41083 97.671949 
L 515.899565 130.894167 
L 517.3883 129.656183 
L 518.877036 132.366016 
L 520.365771 106.414011 
L 524.831976 127.17179 
L 526.320711 126.712871 
L 527.809447 139.377398 
L 529.298182 138.799445 
L 530.786917 137.973296 
L 535.253123 129.451378 
L 536.741858 119.434216 
L 538.230593 129.278358 
L 539.719328 129.021857 
L 541.208063 135.453135 
L 545.674269 104.602638 
L 547.163004 108.94248 
L 548.651739 125.387466 
L 550.140474 129.259066 
L 551.629209 105.202642 
L 556.095415 110.862877 
L 557.58415 122.54298 
L 559.072885 137.261541 
L 560.561621 147.703384 
L 562.050356 173.631392 
L 566.516561 189.521286 
L 568.005296 176.106978 
L 569.494032 180.146183 
L 570.982767 170.319698 
L 572.471502 178.541191 
L 576.937708 183.764688 
L 578.426443 169.643793 
L 579.915178 164.182895 
L 581.403913 153.320361 
L 582.892648 172.733794 
L 587.358854 160.435392 
L 588.847589 147.707696 
L 590.336324 126.785634 
L 591.825059 112.713087 
L 593.313794 102.402646 
L 597.78 97.826533 
L 599.268735 87.810354 
L 600.75747 101.562853 
L 603.734941 92.56926 
L 608.201146 67.49338 
L 609.689881 63.157236 
L 611.178617 63.833894 
L 612.667352 68.381116 
L 614.156087 39.782664 
L 618.622292 39.378314 
L 620.111028 39.06 
L 621.599763 51.960117 
L 623.088498 46.319099 
L 624.577233 47.186072 
L 629.043439 47.256144 
L 630.532174 47.062982 
L 632.020909 87.510992 
L 633.509644 88.941921 
L 634.998379 83.979917 
L 639.464585 88.588443 
L 640.95332 83.44565 
L 643.930791 82.043099 
L 645.419526 98.727854 
L 649.885731 122.980765 
L 651.374466 132.753039 
L 654.351937 149.203226 
L 655.840672 155.194019 
L 660.306877 150.501424 
L 661.795613 166.790159 
L 663.284348 173.975008 
L 666.261818 174.858632 
L 670.728024 186.449692 
L 672.216759 209.819191 
L 673.705494 192.003246 
L 675.194229 215.46 
L 676.682964 211.83556 
L 682.637905 215.039057 
L 684.12664 207.751621 
L 685.615375 206.180466 
L 687.104111 199.622645 
L 691.570316 173.554542 
L 693.059051 155.544196 
L 694.547787 147.687558 
L 696.036522 152.253112 
L 697.525257 143.525531 
L 701.991462 154.609213 
L 703.480198 142.514951 
L 704.968933 152.713747 
L 706.457668 129.38494 
L 707.946403 146.928969 
L 712.412609 127.656224 
L 715.390079 111.540229 
L 716.878814 102.1653 
L 718.367549 107.957295 
L 724.32249 124.167957 
L 725.811225 125.782111 
L 727.29996 117.833694 
L 728.788696 113.242535 
L 733.254901 74.448176 
L 734.743636 82.547113 
L 736.232372 114.686017 
L 737.721107 128.193716 
L 739.209842 95.556971 
L 743.676047 111.593457 
L 745.164783 131.258488 
L 746.653518 145.584672 
L 748.142253 166.87771 
L 749.630988 163.604823 
L 754.097194 189.527869 
L 755.585929 200.113341 
L 757.074664 207.650588 
L 758.563399 213.34079 
L 760.052134 206.191852 
L 764.51834 204.605776 
L 766.007075 199.724753 
L 767.49581 188.391408 
L 768.984545 204.52553 
L 770.473281 186.09626 
L 774.939486 175.579746 
L 776.428221 166.959002 
L 777.916957 169.814715 
L 779.405692 173.553323 
L 780.894427 164.112573 
L 785.360632 138.40485 
L 786.849368 125.197459 
L 788.338103 97.080387 
L 789.826838 163.455287 
L 791.315573 184.297608 
L 795.781779 189.60588 
L 797.270514 201.996632 
L 798.759249 157.88019 
L 800.247984 170.162286 
L 801.736719 163.682666 
L 806.202925 162.118422 
L 807.69166 160.645014 
L 809.180395 169.294655 
L 810.66913 161.736436 
L 816.624071 169.58464 
L 818.112806 163.214472 
L 819.601542 158.786572 
L 821.090277 136.258591 
L 822.579012 116.858337 
L 827.045217 105.304148 
L 828.533953 87.606256 
L 830.022688 113.859163 
L 831.511423 87.53199 
L 833.000158 124.686257 
L 837.466364 149.765336 
L 838.955099 149.765304 
L 840.443834 136.574125 
L 841.932569 140.259944 
L 843.421304 126.504307 
L 847.88751 113.931953 
L 849.376245 119.232628 
L 850.86498 129.706191 
L 852.353715 134.727172 
L 853.842451 137.608803 
L 858.308656 147.542446 
L 859.797391 156.168196 
L 861.286126 168.731776 
L 862.774862 152.592004 
L 864.263597 151.620282 
L 870.218538 136.390911 
L 871.707273 129.229215 
L 873.196008 133.853096 
L 874.684743 134.22186 
L 879.150949 178.756371 
L 880.639684 181.932488 
L 882.128419 181.531347 
L 883.617154 184.888007 
L 885.105889 168.015344 
L 889.572095 167.98789 
L 891.06083 157.033896 
L 892.549565 154.158817 
L 894.0383 149.88297 
L 895.527036 136.484083 
L 899.993241 150.376482 
L 901.481976 162.649206 
L 902.970711 156.168421 
L 905.948182 141.029003 
L 910.414387 142.368962 
L 911.903123 153.17723 
L 913.391858 146.37539 
L 914.880593 140.114259 
L 916.369328 154.494499 
L 920.835534 125.757665 
L 922.324269 120.80796 
L 923.813004 87.877334 
L 925.301739 86.509719 
L 931.25668 91.252172 
L 932.745415 95.413127 
L 934.23415 75.944737 
L 935.722885 75.380358 
L 937.211621 93.336226 
L 941.677826 110.491465 
L 943.166561 102.001694 
L 944.655296 102.614249 
L 946.144032 99.997141 
L 947.632767 97.015579 
L 952.098972 105.3068 
L 953.587708 107.829063 
L 955.076443 130.602501 
L 956.565178 140.190171 
L 958.053913 108.204192 
L 962.520119 107.555967 
L 964.008854 140.625751 
L 965.497589 165.247449 
L 966.986324 166.503223 
L 968.475059 178.738942 
L 972.941265 175.022359 
L 974.43 185.016752 
L 975.918735 129.10437 
L 978.896206 97.358018 
L 983.362411 107.401561 
L 984.851146 102.321634 
L 986.339881 95.570583 
L 987.828617 97.523441 
L 989.317352 101.502507 
L 993.783557 94.84828 
L 995.272292 88.271475 
L 996.761028 98.712485 
L 998.249763 84.550671 
L 999.738498 82.338763 
L 1004.204704 82.965139 
L 1007.182174 105.102416 
L 1008.670909 126.396786 
L 1008.670909 126.396786 
" clip-path="url(#p5764a3a7ad)" style="fill: none; stroke: #1f77b4; stroke-width: 1.5; stroke-linecap: square"/>
   </g>
   <g id="patch_3">
    <path d="M 145.8 224.28 
L 145.8 30.24 
" style="fill: none; stroke: #000000; stroke-width: 0.8; stroke-linejoin: miter; stroke-linecap: square"/>
   </g>
   <g id="patch_4">
    <path d="M 145.8 224.28 
L 1049.76 224.28 
" style="fill: none; stroke: #000000; stroke-width: 0.8; stroke-linejoin: miter; stroke-linecap: square"/>
   </g>
  </g>
 </g>
 <defs>
  <clipPath id="p5764a3a7ad">
   <rect x="145.8" y="30.24" width="903.96" height="194.04"/>
  </clipPath>
 </defs>
</svg>
