<?xml version="1.0" encoding="utf-8" standalone="no"?>
<!DOCTYPE svg PUBLIC "-//W3C//DTD SVG 1.1//EN"
  "http://www.w3.org/Graphics/SVG/1.1/DTD/svg11.dtd">
<svg xmlns:xlink="http://www.w3.org/1999/xlink" width="756pt" height="252pt" viewBox="0 0 756 252" xmlns="http://www.w3.org/2000/svg" version="1.1">
 <metadata>
  <rdf:RDF xmlns:dc="http://purl.org/dc/elements/1.1/" xmlns:cc="http://creativecommons.org/ns#" xmlns:rdf="http://www.w3.org/1999/02/22-rdf-syntax-ns#">
   <cc:Work>
    <dc:type rdf:resource="http://purl.org/dc/dcmitype/StillImage"/>
    <dc:date>2025-08-27T15:49:04.119320</dc:date>
    <dc:format>image/svg+xml</dc:format>
    <dc:creator>
     <cc:Agent>
      <dc:title>Matplotlib v3.10.5, https://matplotlib.org/</dc:title>
     </cc:Agent>
    </dc:creator>
   </cc:Work>
  </rdf:RDF>
 </metadata>
 <defs>
  <style type="text/css">*{stroke-linejoin: round; stroke-linecap: butt}</style>
 </defs>
 <g id="figure_1">
  <g id="patch_1">
   <path d="M 0 252 
L 756 252 
L 756 0 
L 0 0 
z
" style="fill: #ffffff"/>
  </g>
  <g id="axes_1">
   <g id="patch_2">
    <path d="M 94.5 224.28 
L 680.4 224.28 
L 680.4 30.24 
L 94.5 30.24 
z
" style="fill: #ffffff"/>
   </g>
   <g id="matplotlib.axis_1">
    <g id="xtick_1">
     <g id="line2d_1">
      <defs>
       <path id="meb51c260eb" d="M 0 0 
L 0 3.5 
" style="stroke: #000000; stroke-width: 0.8"/>
      </defs>
      <g>
       <use xlink:href="#meb51c260eb" x="134.616283" y="224.28" style="stroke: #000000; stroke-width: 0.8"/>
      </g>
     </g>
     <g id="text_1">
      <!-- 2024-03 -->
      <g transform="translate(113.724877 238.878438) scale(0.1 -0.1)">
       <defs>
        <path id="DejaVuSans-32" d="M 1228 531 
L 3431 531 
L 3431 0 
L 469 0 
L 469 531 
Q 828 903 1448 1529 
Q 2069 2156 2228 2338 
Q 2531 2678 2651 2914 
Q 2772 3150 2772 3378 
Q 2772 3750 2511 3984 
Q 2250 4219 1831 4219 
Q 1534 4219 1204 4116 
Q 875 4013 500 3803 
L 500 4441 
Q 881 4594 1212 4672 
Q 1544 4750 1819 4750 
Q 2544 4750 2975 4387 
Q 3406 4025 3406 3419 
Q 3406 3131 3298 2873 
Q 3191 2616 2906 2266 
Q 2828 2175 2409 1742 
Q 1991 1309 1228 531 
z
" transform="scale(0.015625)"/>
        <path id="DejaVuSans-30" d="M 2034 4250 
Q 1547 4250 1301 3770 
Q 1056 3291 1056 2328 
Q 1056 1369 1301 889 
Q 1547 409 2034 409 
Q 2525 409 2770 889 
Q 3016 1369 3016 2328 
Q 3016 3291 2770 3770 
Q 2525 4250 2034 4250 
z
M 2034 4750 
Q 2819 4750 3233 4129 
Q 3647 3509 3647 2328 
Q 3647 1150 3233 529 
Q 2819 -91 2034 -91 
Q 1250 -91 836 529 
Q 422 1150 422 2328 
Q 422 3509 836 4129 
Q 1250 4750 2034 4750 
z
" transform="scale(0.015625)"/>
        <path id="DejaVuSans-34" d="M 2419 4116 
L 825 1625 
L 2419 1625 
L 2419 4116 
z
M 2253 4666 
L 3047 4666 
L 3047 1625 
L 3713 1625 
L 3713 1100 
L 3047 1100 
L 3047 0 
L 2419 0 
L 2419 1100 
L 313 1100 
L 313 1709 
L 2253 4666 
z
" transform="scale(0.015625)"/>
        <path id="DejaVuSans-2d" d="M 313 2009 
L 1997 2009 
L 1997 1497 
L 313 1497 
L 313 2009 
z
" transform="scale(0.015625)"/>
        <path id="DejaVuSans-33" d="M 2597 2516 
Q 3050 2419 3304 2112 
Q 3559 1806 3559 1356 
Q 3559 666 3084 287 
Q 2609 -91 1734 -91 
Q 1441 -91 1130 -33 
Q 819 25 488 141 
L 488 750 
Q 750 597 1062 519 
Q 1375 441 1716 441 
Q 2309 441 2620 675 
Q 2931 909 2931 1356 
Q 2931 1769 2642 2001 
Q 2353 2234 1838 2234 
L 1294 2234 
L 1294 2753 
L 1863 2753 
Q 2328 2753 2575 2939 
Q 2822 3125 2822 3475 
Q 2822 3834 2567 4026 
Q 2313 4219 1838 4219 
Q 1578 4219 1281 4162 
Q 984 4106 628 3988 
L 628 4550 
Q 988 4650 1302 4700 
Q 1616 4750 1894 4750 
Q 2613 4750 3031 4423 
Q 3450 4097 3450 3541 
Q 3450 3153 3228 2886 
Q 3006 2619 2597 2516 
z
" transform="scale(0.015625)"/>
       </defs>
       <use xlink:href="#DejaVuSans-32"/>
       <use xlink:href="#DejaVuSans-30" transform="translate(63.623047 0)"/>
       <use xlink:href="#DejaVuSans-32" transform="translate(127.246094 0)"/>
       <use xlink:href="#DejaVuSans-34" transform="translate(190.869141 0)"/>
       <use xlink:href="#DejaVuSans-2d" transform="translate(254.492188 0)"/>
       <use xlink:href="#DejaVuSans-30" transform="translate(290.576172 0)"/>
       <use xlink:href="#DejaVuSans-33" transform="translate(354.199219 0)"/>
      </g>
     </g>
    </g>
    <g id="xtick_2">
     <g id="line2d_2">
      <g>
       <use xlink:href="#meb51c260eb" x="193.370023" y="224.28" style="stroke: #000000; stroke-width: 0.8"/>
      </g>
     </g>
     <g id="text_2">
      <!-- 2024-05 -->
      <g transform="translate(172.478617 238.878438) scale(0.1 -0.1)">
       <defs>
        <path id="DejaVuSans-35" d="M 691 4666 
L 3169 4666 
L 3169 4134 
L 1269 4134 
L 1269 2991 
Q 1406 3038 1543 3061 
Q 1681 3084 1819 3084 
Q 2600 3084 3056 2656 
Q 3513 2228 3513 1497 
Q 3513 744 3044 326 
Q 2575 -91 1722 -91 
Q 1428 -91 1123 -41 
Q 819 9 494 109 
L 494 744 
Q 775 591 1075 516 
Q 1375 441 1709 441 
Q 2250 441 2565 725 
Q 2881 1009 2881 1497 
Q 2881 1984 2565 2268 
Q 2250 2553 1709 2553 
Q 1456 2553 1204 2497 
Q 953 2441 691 2322 
L 691 4666 
z
" transform="scale(0.015625)"/>
       </defs>
       <use xlink:href="#DejaVuSans-32"/>
       <use xlink:href="#DejaVuSans-30" transform="translate(63.623047 0)"/>
       <use xlink:href="#DejaVuSans-32" transform="translate(127.246094 0)"/>
       <use xlink:href="#DejaVuSans-34" transform="translate(190.869141 0)"/>
       <use xlink:href="#DejaVuSans-2d" transform="translate(254.492188 0)"/>
       <use xlink:href="#DejaVuSans-30" transform="translate(290.576172 0)"/>
       <use xlink:href="#DejaVuSans-35" transform="translate(354.199219 0)"/>
      </g>
     </g>
    </g>
    <g id="xtick_3">
     <g id="line2d_3">
      <g>
       <use xlink:href="#meb51c260eb" x="252.123763" y="224.28" style="stroke: #000000; stroke-width: 0.8"/>
      </g>
     </g>
     <g id="text_3">
      <!-- 2024-07 -->
      <g transform="translate(231.232357 238.878438) scale(0.1 -0.1)">
       <defs>
        <path id="DejaVuSans-37" d="M 525 4666 
L 3525 4666 
L 3525 4397 
L 1831 0 
L 1172 0 
L 2766 4134 
L 525 4134 
L 525 4666 
z
" transform="scale(0.015625)"/>
       </defs>
       <use xlink:href="#DejaVuSans-32"/>
       <use xlink:href="#DejaVuSans-30" transform="translate(63.623047 0)"/>
       <use xlink:href="#DejaVuSans-32" transform="translate(127.246094 0)"/>
       <use xlink:href="#DejaVuSans-34" transform="translate(190.869141 0)"/>
       <use xlink:href="#DejaVuSans-2d" transform="translate(254.492188 0)"/>
       <use xlink:href="#DejaVuSans-30" transform="translate(290.576172 0)"/>
       <use xlink:href="#DejaVuSans-37" transform="translate(354.199219 0)"/>
      </g>
     </g>
    </g>
    <g id="xtick_4">
     <g id="line2d_4">
      <g>
       <use xlink:href="#meb51c260eb" x="311.840679" y="224.28" style="stroke: #000000; stroke-width: 0.8"/>
      </g>
     </g>
     <g id="text_4">
      <!-- 2024-09 -->
      <g transform="translate(290.949273 238.878438) scale(0.1 -0.1)">
       <defs>
        <path id="DejaVuSans-39" d="M 703 97 
L 703 672 
Q 941 559 1184 500 
Q 1428 441 1663 441 
Q 2288 441 2617 861 
Q 2947 1281 2994 2138 
Q 2813 1869 2534 1725 
Q 2256 1581 1919 1581 
Q 1219 1581 811 2004 
Q 403 2428 403 3163 
Q 403 3881 828 4315 
Q 1253 4750 1959 4750 
Q 2769 4750 3195 4129 
Q 3622 3509 3622 2328 
Q 3622 1225 3098 567 
Q 2575 -91 1691 -91 
Q 1453 -91 1209 -44 
Q 966 3 703 97 
z
M 1959 2075 
Q 2384 2075 2632 2365 
Q 2881 2656 2881 3163 
Q 2881 3666 2632 3958 
Q 2384 4250 1959 4250 
Q 1534 4250 1286 3958 
Q 1038 3666 1038 3163 
Q 1038 2656 1286 2365 
Q 1534 2075 1959 2075 
z
" transform="scale(0.015625)"/>
       </defs>
       <use xlink:href="#DejaVuSans-32"/>
       <use xlink:href="#DejaVuSans-30" transform="translate(63.623047 0)"/>
       <use xlink:href="#DejaVuSans-32" transform="translate(127.246094 0)"/>
       <use xlink:href="#DejaVuSans-34" transform="translate(190.869141 0)"/>
       <use xlink:href="#DejaVuSans-2d" transform="translate(254.492188 0)"/>
       <use xlink:href="#DejaVuSans-30" transform="translate(290.576172 0)"/>
       <use xlink:href="#DejaVuSans-39" transform="translate(354.199219 0)"/>
      </g>
     </g>
    </g>
    <g id="xtick_5">
     <g id="line2d_5">
      <g>
       <use xlink:href="#meb51c260eb" x="370.594419" y="224.28" style="stroke: #000000; stroke-width: 0.8"/>
      </g>
     </g>
     <g id="text_5">
      <!-- 2024-11 -->
      <g transform="translate(349.703013 238.878438) scale(0.1 -0.1)">
       <defs>
        <path id="DejaVuSans-31" d="M 794 531 
L 1825 531 
L 1825 4091 
L 703 3866 
L 703 4441 
L 1819 4666 
L 2450 4666 
L 2450 531 
L 3481 531 
L 3481 0 
L 794 0 
L 794 531 
z
" transform="scale(0.015625)"/>
       </defs>
       <use xlink:href="#DejaVuSans-32"/>
       <use xlink:href="#DejaVuSans-30" transform="translate(63.623047 0)"/>
       <use xlink:href="#DejaVuSans-32" transform="translate(127.246094 0)"/>
       <use xlink:href="#DejaVuSans-34" transform="translate(190.869141 0)"/>
       <use xlink:href="#DejaVuSans-2d" transform="translate(254.492188 0)"/>
       <use xlink:href="#DejaVuSans-31" transform="translate(290.576172 0)"/>
       <use xlink:href="#DejaVuSans-31" transform="translate(354.199219 0)"/>
      </g>
     </g>
    </g>
    <g id="xtick_6">
     <g id="line2d_6">
      <g>
       <use xlink:href="#meb51c260eb" x="429.348159" y="224.28" style="stroke: #000000; stroke-width: 0.8"/>
      </g>
     </g>
     <g id="text_6">
      <!-- 2025-01 -->
      <g transform="translate(408.456753 238.878438) scale(0.1 -0.1)">
       <use xlink:href="#DejaVuSans-32"/>
       <use xlink:href="#DejaVuSans-30" transform="translate(63.623047 0)"/>
       <use xlink:href="#DejaVuSans-32" transform="translate(127.246094 0)"/>
       <use xlink:href="#DejaVuSans-35" transform="translate(190.869141 0)"/>
       <use xlink:href="#DejaVuSans-2d" transform="translate(254.492188 0)"/>
       <use xlink:href="#DejaVuSans-30" transform="translate(290.576172 0)"/>
       <use xlink:href="#DejaVuSans-31" transform="translate(354.199219 0)"/>
      </g>
     </g>
    </g>
    <g id="xtick_7">
     <g id="line2d_7">
      <g>
       <use xlink:href="#meb51c260eb" x="486.175547" y="224.28" style="stroke: #000000; stroke-width: 0.8"/>
      </g>
     </g>
     <g id="text_7">
      <!-- 2025-03 -->
      <g transform="translate(465.28414 238.878438) scale(0.1 -0.1)">
       <use xlink:href="#DejaVuSans-32"/>
       <use xlink:href="#DejaVuSans-30" transform="translate(63.623047 0)"/>
       <use xlink:href="#DejaVuSans-32" transform="translate(127.246094 0)"/>
       <use xlink:href="#DejaVuSans-35" transform="translate(190.869141 0)"/>
       <use xlink:href="#DejaVuSans-2d" transform="translate(254.492188 0)"/>
       <use xlink:href="#DejaVuSans-30" transform="translate(290.576172 0)"/>
       <use xlink:href="#DejaVuSans-33" transform="translate(354.199219 0)"/>
      </g>
     </g>
    </g>
    <g id="xtick_8">
     <g id="line2d_8">
      <g>
       <use xlink:href="#meb51c260eb" x="544.929287" y="224.28" style="stroke: #000000; stroke-width: 0.8"/>
      </g>
     </g>
     <g id="text_8">
      <!-- 2025-05 -->
      <g transform="translate(524.03788 238.878438) scale(0.1 -0.1)">
       <use xlink:href="#DejaVuSans-32"/>
       <use xlink:href="#DejaVuSans-30" transform="translate(63.623047 0)"/>
       <use xlink:href="#DejaVuSans-32" transform="translate(127.246094 0)"/>
       <use xlink:href="#DejaVuSans-35" transform="translate(190.869141 0)"/>
       <use xlink:href="#DejaVuSans-2d" transform="translate(254.492188 0)"/>
       <use xlink:href="#DejaVuSans-30" transform="translate(290.576172 0)"/>
       <use xlink:href="#DejaVuSans-35" transform="translate(354.199219 0)"/>
      </g>
     </g>
    </g>
    <g id="xtick_9">
     <g id="line2d_9">
      <g>
       <use xlink:href="#meb51c260eb" x="603.683026" y="224.28" style="stroke: #000000; stroke-width: 0.8"/>
      </g>
     </g>
     <g id="text_9">
      <!-- 2025-07 -->
      <g transform="translate(582.79162 238.878438) scale(0.1 -0.1)">
       <use xlink:href="#DejaVuSans-32"/>
       <use xlink:href="#DejaVuSans-30" transform="translate(63.623047 0)"/>
       <use xlink:href="#DejaVuSans-32" transform="translate(127.246094 0)"/>
       <use xlink:href="#DejaVuSans-35" transform="translate(190.869141 0)"/>
       <use xlink:href="#DejaVuSans-2d" transform="translate(254.492188 0)"/>
       <use xlink:href="#DejaVuSans-30" transform="translate(290.576172 0)"/>
       <use xlink:href="#DejaVuSans-37" transform="translate(354.199219 0)"/>
      </g>
     </g>
    </g>
    <g id="xtick_10">
     <g id="line2d_10">
      <g>
       <use xlink:href="#meb51c260eb" x="663.399942" y="224.28" style="stroke: #000000; stroke-width: 0.8"/>
      </g>
     </g>
     <g id="text_10">
      <!-- 2025-09 -->
      <g transform="translate(642.508536 238.878438) scale(0.1 -0.1)">
       <use xlink:href="#DejaVuSans-32"/>
       <use xlink:href="#DejaVuSans-30" transform="translate(63.623047 0)"/>
       <use xlink:href="#DejaVuSans-32" transform="translate(127.246094 0)"/>
       <use xlink:href="#DejaVuSans-35" transform="translate(190.869141 0)"/>
       <use xlink:href="#DejaVuSans-2d" transform="translate(254.492188 0)"/>
       <use xlink:href="#DejaVuSans-30" transform="translate(290.576172 0)"/>
       <use xlink:href="#DejaVuSans-39" transform="translate(354.199219 0)"/>
      </g>
     </g>
    </g>
   </g>
   <g id="matplotlib.axis_2">
    <g id="ytick_1">
     <g id="line2d_11">
      <defs>
       <path id="m0098604df2" d="M 0 0 
L -3.5 0 
" style="stroke: #000000; stroke-width: 0.8"/>
      </defs>
      <g>
       <use xlink:href="#m0098604df2" x="94.5" y="222.613959" style="stroke: #000000; stroke-width: 0.8"/>
      </g>
     </g>
     <g id="text_11">
      <!-- 160 -->
      <g transform="translate(68.4125 226.413178) scale(0.1 -0.1)">
       <defs>
        <path id="DejaVuSans-36" d="M 2113 2584 
Q 1688 2584 1439 2293 
Q 1191 2003 1191 1497 
Q 1191 994 1439 701 
Q 1688 409 2113 409 
Q 2538 409 2786 701 
Q 3034 994 3034 1497 
Q 3034 2003 2786 2293 
Q 2538 2584 2113 2584 
z
M 3366 4563 
L 3366 3988 
Q 3128 4100 2886 4159 
Q 2644 4219 2406 4219 
Q 1781 4219 1451 3797 
Q 1122 3375 1075 2522 
Q 1259 2794 1537 2939 
Q 1816 3084 2150 3084 
Q 2853 3084 3261 2657 
Q 3669 2231 3669 1497 
Q 3669 778 3244 343 
Q 2819 -91 2113 -91 
Q 1303 -91 875 529 
Q 447 1150 447 2328 
Q 447 3434 972 4092 
Q 1497 4750 2381 4750 
Q 2619 4750 2861 4703 
Q 3103 4656 3366 4563 
z
" transform="scale(0.015625)"/>
       </defs>
       <use xlink:href="#DejaVuSans-31"/>
       <use xlink:href="#DejaVuSans-36" transform="translate(63.623047 0)"/>
       <use xlink:href="#DejaVuSans-30" transform="translate(127.246094 0)"/>
      </g>
     </g>
    </g>
    <g id="ytick_2">
     <g id="line2d_12">
      <g>
       <use xlink:href="#m0098604df2" x="94.5" y="185.193575" style="stroke: #000000; stroke-width: 0.8"/>
      </g>
     </g>
     <g id="text_12">
      <!-- 180 -->
      <g transform="translate(68.4125 188.992794) scale(0.1 -0.1)">
       <defs>
        <path id="DejaVuSans-38" d="M 2034 2216 
Q 1584 2216 1326 1975 
Q 1069 1734 1069 1313 
Q 1069 891 1326 650 
Q 1584 409 2034 409 
Q 2484 409 2743 651 
Q 3003 894 3003 1313 
Q 3003 1734 2745 1975 
Q 2488 2216 2034 2216 
z
M 1403 2484 
Q 997 2584 770 2862 
Q 544 3141 544 3541 
Q 544 4100 942 4425 
Q 1341 4750 2034 4750 
Q 2731 4750 3128 4425 
Q 3525 4100 3525 3541 
Q 3525 3141 3298 2862 
Q 3072 2584 2669 2484 
Q 3125 2378 3379 2068 
Q 3634 1759 3634 1313 
Q 3634 634 3220 271 
Q 2806 -91 2034 -91 
Q 1263 -91 848 271 
Q 434 634 434 1313 
Q 434 1759 690 2068 
Q 947 2378 1403 2484 
z
M 1172 3481 
Q 1172 3119 1398 2916 
Q 1625 2713 2034 2713 
Q 2441 2713 2670 2916 
Q 2900 3119 2900 3481 
Q 2900 3844 2670 4047 
Q 2441 4250 2034 4250 
Q 1625 4250 1398 4047 
Q 1172 3844 1172 3481 
z
" transform="scale(0.015625)"/>
       </defs>
       <use xlink:href="#DejaVuSans-31"/>
       <use xlink:href="#DejaVuSans-38" transform="translate(63.623047 0)"/>
       <use xlink:href="#DejaVuSans-30" transform="translate(127.246094 0)"/>
      </g>
     </g>
    </g>
    <g id="ytick_3">
     <g id="line2d_13">
      <g>
       <use xlink:href="#m0098604df2" x="94.5" y="147.773192" style="stroke: #000000; stroke-width: 0.8"/>
      </g>
     </g>
     <g id="text_13">
      <!-- 200 -->
      <g transform="translate(68.4125 151.572411) scale(0.1 -0.1)">
       <use xlink:href="#DejaVuSans-32"/>
       <use xlink:href="#DejaVuSans-30" transform="translate(63.623047 0)"/>
       <use xlink:href="#DejaVuSans-30" transform="translate(127.246094 0)"/>
      </g>
     </g>
    </g>
    <g id="ytick_4">
     <g id="line2d_14">
      <g>
       <use xlink:href="#m0098604df2" x="94.5" y="110.352808" style="stroke: #000000; stroke-width: 0.8"/>
      </g>
     </g>
     <g id="text_14">
      <!-- 220 -->
      <g transform="translate(68.4125 114.152027) scale(0.1 -0.1)">
       <use xlink:href="#DejaVuSans-32"/>
       <use xlink:href="#DejaVuSans-32" transform="translate(63.623047 0)"/>
       <use xlink:href="#DejaVuSans-30" transform="translate(127.246094 0)"/>
      </g>
     </g>
    </g>
    <g id="ytick_5">
     <g id="line2d_15">
      <g>
       <use xlink:href="#m0098604df2" x="94.5" y="72.932425" style="stroke: #000000; stroke-width: 0.8"/>
      </g>
     </g>
     <g id="text_15">
      <!-- 240 -->
      <g transform="translate(68.4125 76.731643) scale(0.1 -0.1)">
       <use xlink:href="#DejaVuSans-32"/>
       <use xlink:href="#DejaVuSans-34" transform="translate(63.623047 0)"/>
       <use xlink:href="#DejaVuSans-30" transform="translate(127.246094 0)"/>
      </g>
     </g>
    </g>
    <g id="ytick_6">
     <g id="line2d_16">
      <g>
       <use xlink:href="#m0098604df2" x="94.5" y="35.512041" style="stroke: #000000; stroke-width: 0.8"/>
      </g>
     </g>
     <g id="text_16">
      <!-- 260 -->
      <g transform="translate(68.4125 39.31126) scale(0.1 -0.1)">
       <use xlink:href="#DejaVuSans-32"/>
       <use xlink:href="#DejaVuSans-36" transform="translate(63.623047 0)"/>
       <use xlink:href="#DejaVuSans-30" transform="translate(127.246094 0)"/>
      </g>
     </g>
    </g>
   </g>
   <g id="line2d_17">
    <path d="M 121.131818 183.303599 
L 124.984522 184.696871 
L 125.947699 183.284957 
L 126.910875 179.476769 
L 127.874051 182.913471 
L 130.763579 185.4399 
L 131.726755 182.709142 
L 132.689931 184.9569 
L 133.653107 186.201544 
L 134.616283 188.226416 
L 137.505811 196.697477 
L 138.468987 205.948681 
L 139.432163 207.806396 
L 140.395339 208.029311 
L 141.358516 204.815524 
L 144.248044 201.062979 
L 145.21122 200.17135 
L 146.174396 204.072409 
L 147.137572 200.598565 
L 148.100748 201.304508 
L 150.990276 199.26105 
L 152.916628 190.065545 
L 153.879804 203.62658 
L 154.84298 201.936079 
L 157.732509 204.592581 
L 158.695685 206.710296 
L 159.658861 200.022693 
L 160.622037 203.42228 
L 164.474741 206.115867 
L 165.437917 208.32654 
L 166.401093 206.821839 
L 167.364269 208.363625 
L 168.327445 206.951825 
L 171.216974 209.05104 
L 172.18015 206.78461 
L 173.143326 210.295655 
L 174.106502 196.808906 
L 175.069678 194.003804 
L 177.959206 201.174465 
L 178.922382 207.323368 
L 179.885558 209.88694 
L 180.848734 211.670341 
L 181.81191 215.46 
L 184.701438 213.899542 
L 185.664614 211.930398 
L 186.627791 207.992111 
L 187.590967 206.375981 
L 188.554143 207.471968 
L 191.443671 199.669736 
L 192.406847 205.558553 
L 193.370023 207.471968 
L 194.333199 200.542836 
L 195.296375 181.31587 
L 198.185903 184.4182 
L 199.149079 183.136385 
L 200.112255 182.504785 
L 201.075432 179.105197 
L 202.038608 181.467668 
L 205.891312 173.320015 
L 206.854488 169.060146 
L 207.817664 168.836918 
L 208.78084 168.781161 
L 211.670368 166.604719 
L 212.633544 164.16782 
L 213.59672 166.865147 
L 214.559896 174.343086 
L 215.523072 168.576518 
L 219.375777 168.557875 
L 220.338953 167.999847 
L 222.265305 164.353877 
L 225.154833 161.042679 
L 226.118009 160.447423 
L 227.081185 157.619938 
L 228.044361 160.20558 
L 229.007537 155.72254 
L 231.897066 162.735464 
L 232.860242 136.636922 
L 233.823418 125.624528 
L 234.786594 123.448115 
L 235.74977 126.703442 
L 238.639298 118.927818 
L 241.528826 131.930625 
L 242.492002 136.004408 
L 245.38153 134.795309 
L 246.344707 133.065296 
L 247.307883 125.2897 
L 248.271059 123.708515 
L 249.234235 130.182026 
L 252.123763 118.778961 
L 253.086939 112.231079 
L 254.050115 109.850052 
L 255.976467 100.939671 
L 258.865995 98.186559 
L 259.829171 96.586845 
L 260.792348 88.587993 
L 261.755524 98.65163 
L 262.7187 93.126847 
L 265.608228 85.94648 
L 266.571404 85.165166 
L 267.53458 96.21476 
L 268.497756 104.957726 
L 269.460932 104.715883 
L 272.35046 105.366954 
L 273.313636 103.41377 
L 274.276812 115.449234 
L 275.239988 117.402447 
L 276.203165 116.528119 
L 279.092693 116.007291 
L 280.055869 114.965577 
L 281.019045 108.864124 
L 281.982221 115.784063 
L 282.945397 112.99375 
L 285.834925 132.693239 
L 286.798101 136.488065 
L 287.761277 131.670139 
L 288.724453 125.178071 
L 289.687629 119.727689 
L 292.577158 116.859636 
L 293.540334 109.894475 
L 294.50351 109.056376 
L 295.466686 103.469327 
L 296.429862 100.992402 
L 299.31939 101.290402 
L 300.282566 100.135746 
L 301.245742 100.340617 
L 302.208918 103.823198 
L 303.172094 99.521161 
L 306.061623 98.887991 
L 307.024799 97.30495 
L 307.987975 100.173003 
L 308.951151 94.027269 
L 309.914327 95.498482 
L 313.767031 107.100879 
L 314.730207 110.676645 
L 315.693383 107.827206 
L 316.656559 110.732488 
L 319.546087 110.564902 
L 320.509264 112.054786 
L 321.47244 107.305807 
L 322.435616 107.100879 
L 323.398792 107.60375 
L 326.28832 119.113076 
L 327.251496 118.237805 
L 328.214672 110.974616 
L 329.177848 95.740581 
L 330.141024 96.988365 
L 333.030552 100.210232 
L 333.993728 98.53412 
L 334.956904 100.39646 
L 335.920081 98.254763 
L 336.883257 97.75195 
L 339.772785 88.049035 
L 340.735961 100.694431 
L 341.699137 99.632876 
L 342.662313 101.700115 
L 343.625489 99.595647 
L 346.515017 109.112276 
L 348.441369 94.492826 
L 349.404545 95.424025 
L 350.367722 98.198863 
L 353.25725 91.215059 
L 354.220426 86.466052 
L 355.183602 90.321175 
L 356.146778 89.632076 
L 357.109954 84.324384 
L 359.999482 81.568102 
L 360.962658 82.722757 
L 361.925834 92.220744 
L 362.88901 92.574614 
L 363.852186 91.010188 
L 366.741715 87.304151 
L 367.704891 86.801309 
L 368.668067 93.449885 
L 369.631243 101.253145 
L 370.594419 106.840194 
L 373.483947 108.516334 
L 374.447123 105.834509 
L 375.410299 107.194064 
L 376.373475 98.329249 
L 377.336651 98.832633 
L 380.22618 103.922465 
L 381.189356 103.922465 
L 382.152532 102.263168 
L 383.115708 96.483496 
L 384.078884 102.486854 
L 386.968412 96.856352 
L 387.931588 96.371639 
L 388.894764 95.029271 
L 389.85794 95.924154 
L 390.821116 93.407232 
L 393.710644 87.814045 
L 394.67382 83.731011 
L 395.636997 83.973396 
L 397.563349 79.498807 
L 400.452877 75.285274 
L 401.416053 69.580201 
L 402.379229 68.909031 
L 403.342405 68.853074 
L 404.305581 69.225959 
L 407.195109 61.936161 
L 408.158285 60.034452 
L 409.121461 62.420875 
L 410.084638 59.68021 
L 411.047814 59.363253 
L 413.937342 53.937909 
L 414.900518 49.388748 
L 415.863694 59.512424 
L 416.82687 56.268403 
L 417.790046 47.505709 
L 420.679574 46.051455 
L 421.64275 40.588768 
L 423.569102 39.06 
L 424.532278 45.454885 
L 427.421807 51.775199 
L 428.384983 55.093792 
L 430.311335 67.34292 
L 431.274511 68.256475 
L 434.164039 65.198854 
L 435.127215 70.400542 
L 436.090391 69.486987 
L 438.016743 80.39369 
L 440.906272 84.961494 
L 441.869448 87.049632 
L 442.832624 78.492038 
L 443.7958 96.408925 
L 444.758976 93.202161 
L 448.61168 106.886872 
L 449.574856 104.668206 
L 450.538032 104.985134 
L 451.501208 106.625844 
L 454.390736 93.425874 
L 455.353913 77.764939 
L 456.317089 75.714087 
L 458.243441 81.978444 
L 461.132969 96.875052 
L 462.096145 87.944516 
L 463.059321 88.559786 
L 464.022497 87.161489 
L 464.985673 97.583451 
L 467.875201 97.079581 
L 468.838377 87.80331 
L 470.76473 71.173234 
L 471.727906 65.443209 
L 475.58061 65.685851 
L 476.543786 64.939282 
L 477.506962 63.147459 
L 478.470138 63.670086 
L 481.359666 60.777081 
L 482.322842 60.889081 
L 483.286018 73.356956 
L 484.249194 79.068309 
L 485.212371 70.594621 
L 488.101899 77.705813 
L 489.065075 81.625344 
L 490.028251 81.979957 
L 490.991427 82.745197 
L 491.954603 75.764676 
L 494.844131 97.396851 
L 495.807307 109.790098 
L 496.770483 116.994589 
L 497.733659 130.619689 
L 498.696835 123.508497 
L 501.586364 122.5566 
L 502.54954 125.001636 
L 503.512716 120.242208 
L 504.475892 122.369944 
L 505.439068 114.58684 
L 508.328596 109.995397 
L 509.291772 104.358701 
L 510.254948 108.50223 
L 511.218124 104.172044 
L 512.1813 115.277452 
L 515.070829 107.382348 
L 516.034005 105.403897 
L 516.997181 104.097387 
L 517.960357 142.732951 
L 518.923533 170.37505 
L 521.813061 183.290895 
L 522.776237 200.163642 
L 523.739413 150.833326 
L 524.702589 166.567519 
L 525.665765 152.139864 
L 528.555293 143.983447 
L 529.51847 144.692731 
L 530.481646 159.38167 
L 531.444822 154.323586 
L 535.297526 161.453421 
L 536.260702 149.172174 
L 537.223878 140.101231 
L 538.187054 133.064725 
L 539.15023 131.366258 
L 542.039758 129.761092 
L 543.002934 127.76397 
L 543.96611 125.356277 
L 544.929287 123.825768 
L 545.892463 138.701392 
L 548.781991 150.758669 
L 549.745167 151.467924 
L 550.708343 155.68611 
L 551.671519 153.371689 
L 552.634695 151.430581 
L 555.524223 128.031992 
L 556.487399 124.032552 
L 557.450575 125.15389 
L 558.413751 126.798512 
L 559.376928 127.15361 
L 562.266456 131.788477 
L 563.229632 135.376748 
L 564.192808 144.291411 
L 565.155984 145.655705 
L 566.11916 157.037272 
L 569.971864 147.80491 
L 570.93504 147.412469 
L 571.898216 148.290851 
L 572.861392 146.60883 
L 575.750921 145.020279 
L 576.714097 142.086105 
L 577.677273 142.927088 
L 578.640449 147.019971 
L 579.603625 140.871325 
L 582.493153 145.487491 
L 583.456329 143.207444 
L 584.419505 150.477456 
L 585.382681 149.692517 
L 586.345857 154.831995 
L 589.235386 151.150254 
L 590.198562 156.345803 
L 591.161738 154.589039 
L 593.08809 146.328502 
L 595.977618 145.394049 
L 596.940794 147.636725 
L 597.90397 145.281906 
L 598.867146 146.328502 
L 599.830322 146.178988 
L 602.71985 138.535206 
L 603.683026 133.582612 
L 604.646203 124.948305 
L 605.609379 122.873814 
L 609.462083 129.601872 
L 610.425259 129.489729 
L 612.351611 125.004376 
L 613.314787 127.340495 
L 616.204315 132.087504 
L 617.167491 131.171722 
L 618.130667 129.209373 
L 619.093843 129.471029 
L 620.05702 127.303124 
L 622.946548 124.873563 
L 623.909724 121.285263 
L 624.8729 121.752504 
L 625.836076 122.481373 
L 626.799252 122.257088 
L 629.68878 121.939361 
L 630.651956 127.13491 
L 631.615132 131.283865 
L 632.578308 134.049825 
L 633.541484 143.749399 
L 636.431013 141.936563 
L 637.394189 142.740231 
L 638.357365 123.434497 
L 639.320541 110.763378 
L 640.283717 93.345222 
L 643.173245 96.918904 
L 644.136421 92.297485 
L 645.099597 85.412119 
L 646.062773 86.441185 
L 647.025949 88.667703 
L 649.915478 89.977411 
L 650.878654 90.59485 
L 651.84183 99.107993 
L 652.805006 101.184826 
L 653.768182 95.83371 
L 653.768182 95.83371 
" clip-path="url(#p7f2ae6eda6)" style="fill: none; stroke: #1f77b4; stroke-width: 1.5; stroke-linecap: square"/>
   </g>
   <g id="patch_3">
    <path d="M 94.5 224.28 
L 94.5 30.24 
" style="fill: none; stroke: #000000; stroke-width: 0.8; stroke-linejoin: miter; stroke-linecap: square"/>
   </g>
   <g id="patch_4">
    <path d="M 94.5 224.28 
L 680.4 224.28 
" style="fill: none; stroke: #000000; stroke-width: 0.8; stroke-linejoin: miter; stroke-linecap: square"/>
   </g>
  </g>
 </g>
 <defs>
  <clipPath id="p7f2ae6eda6">
   <rect x="94.5" y="30.24" width="585.9" height="194.04"/>
  </clipPath>
 </defs>
</svg>
