<?xml version="1.0" encoding="utf-8" standalone="no"?>
<!DOCTYPE svg PUBLIC "-//W3C//DTD SVG 1.1//EN"
  "http://www.w3.org/Graphics/SVG/1.1/DTD/svg11.dtd">
<svg xmlns:xlink="http://www.w3.org/1999/xlink" width="756pt" height="252pt" viewBox="0 0 756 252" xmlns="http://www.w3.org/2000/svg" version="1.1">
 <metadata>
  <rdf:RDF xmlns:dc="http://purl.org/dc/elements/1.1/" xmlns:cc="http://creativecommons.org/ns#" xmlns:rdf="http://www.w3.org/1999/02/22-rdf-syntax-ns#">
   <cc:Work>
    <dc:type rdf:resource="http://purl.org/dc/dcmitype/StillImage"/>
    <dc:date>2025-09-05T16:12:21.372590</dc:date>
    <dc:format>image/svg+xml</dc:format>
    <dc:creator>
     <cc:Agent>
      <dc:title>Matplotlib v3.10.5, https://matplotlib.org/</dc:title>
     </cc:Agent>
    </dc:creator>
   </cc:Work>
  </rdf:RDF>
 </metadata>
 <defs>
  <style type="text/css">*{stroke-linejoin: round; stroke-linecap: butt}</style>
 </defs>
 <g id="figure_1">
  <g id="patch_1">
   <path d="M 0 252 
L 756 252 
L 756 0 
L 0 0 
z
" style="fill: #ffffff"/>
  </g>
  <g id="axes_1">
   <g id="patch_2">
    <path d="M 94.5 224.28 
L 680.4 224.28 
L 680.4 30.24 
L 94.5 30.24 
z
" style="fill: #ffffff"/>
   </g>
   <g id="matplotlib.axis_1">
    <g id="xtick_1">
     <g id="line2d_1">
      <defs>
       <path id="ma02bdc6f35" d="M 0 0 
L 0 3.5 
" style="stroke: #000000; stroke-width: 0.8"/>
      </defs>
      <g>
       <use xlink:href="#ma02bdc6f35" x="115.675543" y="224.28" style="stroke: #000000; stroke-width: 0.8"/>
      </g>
     </g>
     <g id="text_1">
      <!-- 2020 -->
      <g transform="translate(102.950543 238.878438) scale(0.1 -0.1)">
       <defs>
        <path id="DejaVuSans-32" d="M 1228 531 
L 3431 531 
L 3431 0 
L 469 0 
L 469 531 
Q 828 903 1448 1529 
Q 2069 2156 2228 2338 
Q 2531 2678 2651 2914 
Q 2772 3150 2772 3378 
Q 2772 3750 2511 3984 
Q 2250 4219 1831 4219 
Q 1534 4219 1204 4116 
Q 875 4013 500 3803 
L 500 4441 
Q 881 4594 1212 4672 
Q 1544 4750 1819 4750 
Q 2544 4750 2975 4387 
Q 3406 4025 3406 3419 
Q 3406 3131 3298 2873 
Q 3191 2616 2906 2266 
Q 2828 2175 2409 1742 
Q 1991 1309 1228 531 
z
" transform="scale(0.015625)"/>
        <path id="DejaVuSans-30" d="M 2034 4250 
Q 1547 4250 1301 3770 
Q 1056 3291 1056 2328 
Q 1056 1369 1301 889 
Q 1547 409 2034 409 
Q 2525 409 2770 889 
Q 3016 1369 3016 2328 
Q 3016 3291 2770 3770 
Q 2525 4250 2034 4250 
z
M 2034 4750 
Q 2819 4750 3233 4129 
Q 3647 3509 3647 2328 
Q 3647 1150 3233 529 
Q 2819 -91 2034 -91 
Q 1250 -91 836 529 
Q 422 1150 422 2328 
Q 422 3509 836 4129 
Q 1250 4750 2034 4750 
z
" transform="scale(0.015625)"/>
       </defs>
       <use xlink:href="#DejaVuSans-32"/>
       <use xlink:href="#DejaVuSans-30" transform="translate(63.623047 0)"/>
       <use xlink:href="#DejaVuSans-32" transform="translate(127.246094 0)"/>
       <use xlink:href="#DejaVuSans-30" transform="translate(190.869141 0)"/>
      </g>
     </g>
    </g>
    <g id="xtick_2">
     <g id="line2d_2">
      <g>
       <use xlink:href="#ma02bdc6f35" x="210.770621" y="224.28" style="stroke: #000000; stroke-width: 0.8"/>
      </g>
     </g>
     <g id="text_2">
      <!-- 2021 -->
      <g transform="translate(198.045621 238.878438) scale(0.1 -0.1)">
       <defs>
        <path id="DejaVuSans-31" d="M 794 531 
L 1825 531 
L 1825 4091 
L 703 3866 
L 703 4441 
L 1819 4666 
L 2450 4666 
L 2450 531 
L 3481 531 
L 3481 0 
L 794 0 
L 794 531 
z
" transform="scale(0.015625)"/>
       </defs>
       <use xlink:href="#DejaVuSans-32"/>
       <use xlink:href="#DejaVuSans-30" transform="translate(63.623047 0)"/>
       <use xlink:href="#DejaVuSans-32" transform="translate(127.246094 0)"/>
       <use xlink:href="#DejaVuSans-31" transform="translate(190.869141 0)"/>
      </g>
     </g>
    </g>
    <g id="xtick_3">
     <g id="line2d_3">
      <g>
       <use xlink:href="#ma02bdc6f35" x="305.605876" y="224.28" style="stroke: #000000; stroke-width: 0.8"/>
      </g>
     </g>
     <g id="text_3">
      <!-- 2022 -->
      <g transform="translate(292.880876 238.878438) scale(0.1 -0.1)">
       <use xlink:href="#DejaVuSans-32"/>
       <use xlink:href="#DejaVuSans-30" transform="translate(63.623047 0)"/>
       <use xlink:href="#DejaVuSans-32" transform="translate(127.246094 0)"/>
       <use xlink:href="#DejaVuSans-32" transform="translate(190.869141 0)"/>
      </g>
     </g>
    </g>
    <g id="xtick_4">
     <g id="line2d_4">
      <g>
       <use xlink:href="#ma02bdc6f35" x="400.441131" y="224.28" style="stroke: #000000; stroke-width: 0.8"/>
      </g>
     </g>
     <g id="text_4">
      <!-- 2023 -->
      <g transform="translate(387.716131 238.878438) scale(0.1 -0.1)">
       <defs>
        <path id="DejaVuSans-33" d="M 2597 2516 
Q 3050 2419 3304 2112 
Q 3559 1806 3559 1356 
Q 3559 666 3084 287 
Q 2609 -91 1734 -91 
Q 1441 -91 1130 -33 
Q 819 25 488 141 
L 488 750 
Q 750 597 1062 519 
Q 1375 441 1716 441 
Q 2309 441 2620 675 
Q 2931 909 2931 1356 
Q 2931 1769 2642 2001 
Q 2353 2234 1838 2234 
L 1294 2234 
L 1294 2753 
L 1863 2753 
Q 2328 2753 2575 2939 
Q 2822 3125 2822 3475 
Q 2822 3834 2567 4026 
Q 2313 4219 1838 4219 
Q 1578 4219 1281 4162 
Q 984 4106 628 3988 
L 628 4550 
Q 988 4650 1302 4700 
Q 1616 4750 1894 4750 
Q 2613 4750 3031 4423 
Q 3450 4097 3450 3541 
Q 3450 3153 3228 2886 
Q 3006 2619 2597 2516 
z
" transform="scale(0.015625)"/>
       </defs>
       <use xlink:href="#DejaVuSans-32"/>
       <use xlink:href="#DejaVuSans-30" transform="translate(63.623047 0)"/>
       <use xlink:href="#DejaVuSans-32" transform="translate(127.246094 0)"/>
       <use xlink:href="#DejaVuSans-33" transform="translate(190.869141 0)"/>
      </g>
     </g>
    </g>
    <g id="xtick_5">
     <g id="line2d_5">
      <g>
       <use xlink:href="#ma02bdc6f35" x="495.276386" y="224.28" style="stroke: #000000; stroke-width: 0.8"/>
      </g>
     </g>
     <g id="text_5">
      <!-- 2024 -->
      <g transform="translate(482.551386 238.878438) scale(0.1 -0.1)">
       <defs>
        <path id="DejaVuSans-34" d="M 2419 4116 
L 825 1625 
L 2419 1625 
L 2419 4116 
z
M 2253 4666 
L 3047 4666 
L 3047 1625 
L 3713 1625 
L 3713 1100 
L 3047 1100 
L 3047 0 
L 2419 0 
L 2419 1100 
L 313 1100 
L 313 1709 
L 2253 4666 
z
" transform="scale(0.015625)"/>
       </defs>
       <use xlink:href="#DejaVuSans-32"/>
       <use xlink:href="#DejaVuSans-30" transform="translate(63.623047 0)"/>
       <use xlink:href="#DejaVuSans-32" transform="translate(127.246094 0)"/>
       <use xlink:href="#DejaVuSans-34" transform="translate(190.869141 0)"/>
      </g>
     </g>
    </g>
    <g id="xtick_6">
     <g id="line2d_6">
      <g>
       <use xlink:href="#ma02bdc6f35" x="590.371463" y="224.28" style="stroke: #000000; stroke-width: 0.8"/>
      </g>
     </g>
     <g id="text_6">
      <!-- 2025 -->
      <g transform="translate(577.646463 238.878438) scale(0.1 -0.1)">
       <defs>
        <path id="DejaVuSans-35" d="M 691 4666 
L 3169 4666 
L 3169 4134 
L 1269 4134 
L 1269 2991 
Q 1406 3038 1543 3061 
Q 1681 3084 1819 3084 
Q 2600 3084 3056 2656 
Q 3513 2228 3513 1497 
Q 3513 744 3044 326 
Q 2575 -91 1722 -91 
Q 1428 -91 1123 -41 
Q 819 9 494 109 
L 494 744 
Q 775 591 1075 516 
Q 1375 441 1709 441 
Q 2250 441 2565 725 
Q 2881 1009 2881 1497 
Q 2881 1984 2565 2268 
Q 2250 2553 1709 2553 
Q 1456 2553 1204 2497 
Q 953 2441 691 2322 
L 691 4666 
z
" transform="scale(0.015625)"/>
       </defs>
       <use xlink:href="#DejaVuSans-32"/>
       <use xlink:href="#DejaVuSans-30" transform="translate(63.623047 0)"/>
       <use xlink:href="#DejaVuSans-32" transform="translate(127.246094 0)"/>
       <use xlink:href="#DejaVuSans-35" transform="translate(190.869141 0)"/>
      </g>
     </g>
    </g>
   </g>
   <g id="matplotlib.axis_2">
    <g id="ytick_1">
     <g id="line2d_7">
      <defs>
       <path id="m1041e5ac38" d="M 0 0 
L -3.5 0 
" style="stroke: #000000; stroke-width: 0.8"/>
      </defs>
      <g>
       <use xlink:href="#m1041e5ac38" x="94.5" y="219.196789" style="stroke: #000000; stroke-width: 0.8"/>
      </g>
     </g>
     <g id="text_7">
      <!-- 50 -->
      <g transform="translate(74.775 222.996008) scale(0.1 -0.1)">
       <use xlink:href="#DejaVuSans-35"/>
       <use xlink:href="#DejaVuSans-30" transform="translate(63.623047 0)"/>
      </g>
     </g>
    </g>
    <g id="ytick_2">
     <g id="line2d_8">
      <g>
       <use xlink:href="#m1041e5ac38" x="94.5" y="197.556525" style="stroke: #000000; stroke-width: 0.8"/>
      </g>
     </g>
     <g id="text_8">
      <!-- 75 -->
      <g transform="translate(74.775 201.355744) scale(0.1 -0.1)">
       <defs>
        <path id="DejaVuSans-37" d="M 525 4666 
L 3525 4666 
L 3525 4397 
L 1831 0 
L 1172 0 
L 2766 4134 
L 525 4134 
L 525 4666 
z
" transform="scale(0.015625)"/>
       </defs>
       <use xlink:href="#DejaVuSans-37"/>
       <use xlink:href="#DejaVuSans-35" transform="translate(63.623047 0)"/>
      </g>
     </g>
    </g>
    <g id="ytick_3">
     <g id="line2d_9">
      <g>
       <use xlink:href="#m1041e5ac38" x="94.5" y="175.91626" style="stroke: #000000; stroke-width: 0.8"/>
      </g>
     </g>
     <g id="text_9">
      <!-- 100 -->
      <g transform="translate(68.4125 179.715479) scale(0.1 -0.1)">
       <use xlink:href="#DejaVuSans-31"/>
       <use xlink:href="#DejaVuSans-30" transform="translate(63.623047 0)"/>
       <use xlink:href="#DejaVuSans-30" transform="translate(127.246094 0)"/>
      </g>
     </g>
    </g>
    <g id="ytick_4">
     <g id="line2d_10">
      <g>
       <use xlink:href="#m1041e5ac38" x="94.5" y="154.275996" style="stroke: #000000; stroke-width: 0.8"/>
      </g>
     </g>
     <g id="text_10">
      <!-- 125 -->
      <g transform="translate(68.4125 158.075215) scale(0.1 -0.1)">
       <use xlink:href="#DejaVuSans-31"/>
       <use xlink:href="#DejaVuSans-32" transform="translate(63.623047 0)"/>
       <use xlink:href="#DejaVuSans-35" transform="translate(127.246094 0)"/>
      </g>
     </g>
    </g>
    <g id="ytick_5">
     <g id="line2d_11">
      <g>
       <use xlink:href="#m1041e5ac38" x="94.5" y="132.635731" style="stroke: #000000; stroke-width: 0.8"/>
      </g>
     </g>
     <g id="text_11">
      <!-- 150 -->
      <g transform="translate(68.4125 136.43495) scale(0.1 -0.1)">
       <use xlink:href="#DejaVuSans-31"/>
       <use xlink:href="#DejaVuSans-35" transform="translate(63.623047 0)"/>
       <use xlink:href="#DejaVuSans-30" transform="translate(127.246094 0)"/>
      </g>
     </g>
    </g>
    <g id="ytick_6">
     <g id="line2d_12">
      <g>
       <use xlink:href="#m1041e5ac38" x="94.5" y="110.995467" style="stroke: #000000; stroke-width: 0.8"/>
      </g>
     </g>
     <g id="text_12">
      <!-- 175 -->
      <g transform="translate(68.4125 114.794686) scale(0.1 -0.1)">
       <use xlink:href="#DejaVuSans-31"/>
       <use xlink:href="#DejaVuSans-37" transform="translate(63.623047 0)"/>
       <use xlink:href="#DejaVuSans-35" transform="translate(127.246094 0)"/>
      </g>
     </g>
    </g>
    <g id="ytick_7">
     <g id="line2d_13">
      <g>
       <use xlink:href="#m1041e5ac38" x="94.5" y="89.355203" style="stroke: #000000; stroke-width: 0.8"/>
      </g>
     </g>
     <g id="text_13">
      <!-- 200 -->
      <g transform="translate(68.4125 93.154421) scale(0.1 -0.1)">
       <use xlink:href="#DejaVuSans-32"/>
       <use xlink:href="#DejaVuSans-30" transform="translate(63.623047 0)"/>
       <use xlink:href="#DejaVuSans-30" transform="translate(127.246094 0)"/>
      </g>
     </g>
    </g>
    <g id="ytick_8">
     <g id="line2d_14">
      <g>
       <use xlink:href="#m1041e5ac38" x="94.5" y="67.714938" style="stroke: #000000; stroke-width: 0.8"/>
      </g>
     </g>
     <g id="text_14">
      <!-- 225 -->
      <g transform="translate(68.4125 71.514157) scale(0.1 -0.1)">
       <use xlink:href="#DejaVuSans-32"/>
       <use xlink:href="#DejaVuSans-32" transform="translate(63.623047 0)"/>
       <use xlink:href="#DejaVuSans-35" transform="translate(127.246094 0)"/>
      </g>
     </g>
    </g>
    <g id="ytick_9">
     <g id="line2d_15">
      <g>
       <use xlink:href="#m1041e5ac38" x="94.5" y="46.074674" style="stroke: #000000; stroke-width: 0.8"/>
      </g>
     </g>
     <g id="text_15">
      <!-- 250 -->
      <g transform="translate(68.4125 49.873893) scale(0.1 -0.1)">
       <use xlink:href="#DejaVuSans-32"/>
       <use xlink:href="#DejaVuSans-35" transform="translate(63.623047 0)"/>
       <use xlink:href="#DejaVuSans-30" transform="translate(127.246094 0)"/>
      </g>
     </g>
    </g>
   </g>
   <g id="line2d_16">
    <path d="M 121.131818 196.060085 
L 121.391641 195.740217 
L 121.651463 195.932567 
L 122.430931 197.889324 
L 122.950576 194.671953 
L 123.210399 194.770222 
L 123.470222 197.77226 
L 124.24969 197.949943 
L 124.509512 195.819664 
L 125.029157 194.49007 
L 125.28898 195.414199 
L 126.068448 195.095704 
L 126.328271 195.502205 
L 126.588093 193.911697 
L 126.847916 194.399977 
L 127.107738 194.383196 
L 128.147029 195.630041 
L 128.406851 194.661908 
L 128.666674 195.357622 
L 128.926497 196.876885 
L 129.705965 199.992923 
L 129.965787 202.109407 
L 130.22561 201.151749 
L 130.485432 205.160488 
L 130.745255 205.19403 
L 131.524723 199.860895 
L 131.784545 201.849556 
L 132.044368 199.037359 
L 132.304191 201.095172 
L 132.564013 201.910327 
L 133.343481 206.700686 
L 133.603304 202.683593 
L 133.863126 204.760247 
L 134.122949 210.460081 
L 134.382772 204.227984 
L 135.162239 211.72159 
L 135.422062 209.489855 
L 135.681885 210.786979 
L 135.941707 211.183036 
L 136.20153 214.439481 
L 136.980998 215.46 
L 137.24082 210.742973 
L 137.500643 211.027959 
L 137.760466 208.320542 
L 138.020288 210.562754 
L 138.799756 209.081217 
L 139.059579 209.190191 
L 139.319401 211.994005 
L 139.579224 211.151594 
L 139.839047 211.889231 
L 140.618514 207.476058 
L 140.878337 208.113081 
L 141.13816 206.721647 
L 141.397982 206.319346 
L 142.437273 205.217071 
L 142.697095 202.325248 
L 142.956918 202.874272 
L 143.216741 202.4007 
L 143.476563 203.215842 
L 144.256031 204.445926 
L 144.515854 206.239681 
L 144.775676 204.619838 
L 145.035499 204.844066 
L 145.295322 203.18022 
L 146.074789 203.138297 
L 146.334612 204.100162 
L 146.854257 200.910766 
L 147.11408 201.901946 
L 147.893548 201.044862 
L 148.413193 199.479509 
L 148.673016 198.827824 
L 148.932838 197.31286 
L 149.712306 196.287444 
L 150.231951 197.833943 
L 150.491774 197.436813 
L 150.751596 197.821349 
L 151.531064 196.297978 
L 151.790887 196.680381 
L 152.05071 195.40074 
L 152.310532 195.900868 
L 152.570355 195.47219 
L 153.609645 195.926049 
L 153.869468 195.636097 
L 154.389113 195.671818 
L 155.688226 194.163148 
L 155.948049 194.751499 
L 156.207871 192.822598 
L 156.987339 192.410754 
L 157.506984 188.338636 
L 157.766807 191.898072 
L 158.02663 191.288707 
L 158.806098 190.40833 
L 159.06592 188.498309 
L 159.325743 188.601274 
L 159.585565 188.571859 
L 159.845388 188.994204 
L 160.624856 187.071616 
L 160.884678 185.462088 
L 161.144501 186.821579 
L 161.404324 185.817203 
L 161.664146 188.172642 
L 162.703437 185.825603 
L 162.963259 185.970589 
L 163.223082 185.970589 
L 164.262373 183.924017 
L 164.522195 184.167754 
L 164.782018 182.343917 
L 165.04184 181.999322 
L 165.301663 181.858523 
L 166.081131 182.230445 
L 166.340953 180.902476 
L 166.600776 180.341459 
L 166.860599 181.352175 
L 167.120421 181.516035 
L 167.899889 179.809864 
L 168.159712 180.950812 
L 168.419534 180.721775 
L 168.679357 184.443005 
L 168.93918 184.6363 
L 169.718647 182.791456 
L 169.97847 184.100511 
L 170.498115 181.631613 
L 170.757938 173.167971 
L 171.797228 170.306137 
L 172.057051 169.972049 
L 172.316874 166.744613 
L 172.576696 168.921174 
L 173.356164 167.561354 
L 173.615987 170.384124 
L 173.875809 167.323488 
L 174.135632 165.639506 
L 175.174922 165.978401 
L 175.434745 165.174274 
L 175.694568 165.052204 
L 175.95439 162.89039 
L 176.214213 157.758429 
L 176.993681 156.505958 
L 177.253503 157.375313 
L 177.513326 155.946037 
L 177.773149 157.219542 
L 178.032971 157.39006 
L 178.812439 153.826311 
L 179.072262 149.498443 
L 179.332084 151.839214 
L 179.591907 160.697002 
L 179.851729 160.629614 
L 180.89102 167.483458 
L 181.150843 163.694497 
L 181.410665 166.919331 
L 181.670488 168.173889 
L 182.449956 165.344792 
L 182.709778 165.193241 
L 182.969601 168.064453 
L 183.229424 169.571611 
L 183.489246 172.518597 
L 184.268714 169.790523 
L 184.528537 168.33388 
L 184.788359 172.282832 
L 185.048182 171.356635 
L 185.308004 167.938136 
L 186.087472 165.681607 
L 186.347295 166.414138 
L 186.86694 164.140735 
L 187.126763 167.315081 
L 187.906231 164.384921 
L 188.166053 167.197185 
L 188.425876 165.580564 
L 188.685698 165.673193 
L 188.945521 163.989178 
L 189.724989 157.733155 
L 189.984812 160.511757 
L 190.244634 160.435969 
L 190.504457 160.840132 
L 190.764279 162.263101 
L 191.543747 164.822752 
L 191.80357 163.534506 
L 192.063392 164.073367 
L 192.583038 165.614238 
L 193.362506 165.605818 
L 193.622328 164.300712 
L 193.882151 168.847499 
L 194.141973 165.378473 
L 194.401796 170.817755 
L 195.181264 170.893544 
L 195.441086 169.487415 
L 195.960732 162.254681 
L 196.220554 162.368529 
L 197.000022 164.367513 
L 197.259845 164.662702 
L 197.519667 161.693776 
L 197.77949 161.929945 
L 198.039313 161.887785 
L 198.81878 161.010584 
L 199.078603 161.778111 
L 199.338426 162.925214 
L 199.598248 162.410709 
L 200.637539 166.450831 
L 201.157184 164.612135 
L 201.676829 164.139804 
L 202.456297 162.0649 
L 202.71612 158.969459 
L 202.975942 158.66581 
L 203.235765 158.783885 
L 203.495588 159.365856 
L 204.534878 157.569327 
L 204.794701 159.762293 
L 205.054523 158.530856 
L 205.314346 159.230908 
L 206.093814 159.762293 
L 206.353636 154.617249 
L 206.613459 154.676302 
L 206.873282 153.925623 
L 207.133104 155.646251 
L 207.912572 154.322059 
L 208.172395 151.243453 
L 208.432217 152.019459 
L 208.69204 151.167572 
L 209.73133 147.186498 
L 210.250976 149.69152 
L 210.510798 150.560261 
L 211.550089 153.326764 
L 211.809911 151.977286 
L 212.069734 155.696871 
L 212.329557 152.053187 
L 212.589379 151.100078 
L 213.368847 153.689454 
L 213.62867 153.841275 
L 213.888492 152.078487 
L 214.408137 155.241401 
L 215.447428 154.659455 
L 216.226896 145.179067 
L 217.006364 141.931826 
L 217.266186 141.729371 
L 217.526009 142.657166 
L 218.045654 151.176025 
L 219.084945 148.62035 
L 219.344767 149.505971 
L 219.60459 146.596093 
L 219.864412 146.955078 
L 220.64388 146.828372 
L 221.163525 148.112338 
L 221.423348 148.33195 
L 221.683171 148.129218 
L 222.722461 149.970635 
L 222.982284 151.955737 
L 223.242106 152.910265 
L 223.501929 152.775105 
L 224.281397 156.044127 
L 224.54122 156.16238 
L 224.801042 156.593191 
L 225.060865 160.276104 
L 225.320687 160.048038 
L 226.100155 154.532109 
L 226.879623 161.002573 
L 227.139446 159.912899 
L 227.918914 164.187109 
L 228.178736 160.191651 
L 228.438559 161.129266 
L 228.698381 159.456748 
L 228.958204 160.242317 
L 229.737672 157.741991 
L 229.997494 156.407359 
L 230.257317 157.091575 
L 230.51714 160.664682 
L 230.776962 161.120826 
L 231.55643 158.248815 
L 231.816253 158.966811 
L 232.076075 161.036353 
L 232.595721 160.090291 
L 233.375188 159.938239 
L 233.635011 161.196845 
L 233.894834 159.296243 
L 234.154656 158.578253 
L 235.193947 156.128607 
L 235.453769 155.866742 
L 235.713592 154.439196 
L 236.233237 150.131167 
L 237.012705 151.617852 
L 237.272528 148.923227 
L 237.53235 150.950562 
L 237.792173 148.864107 
L 238.051996 149.151305 
L 238.831463 148.576909 
L 239.091286 150.03826 
L 239.351109 149.708836 
L 239.610931 151.026549 
L 239.870754 149.016173 
L 240.650222 148.678281 
L 240.910044 148.957027 
L 241.169867 149.641223 
L 241.42969 149.725702 
L 241.689512 151.432 
L 242.46898 150.519738 
L 242.728803 154.481429 
L 242.988625 154.270231 
L 243.248448 152.884925 
L 243.508271 152.301077 
L 244.547561 155.939505 
L 244.807384 158.596381 
L 245.327029 154.63644 
L 246.106497 155.634879 
L 246.366319 156.836426 
L 246.626142 156.97179 
L 246.885965 154.754911 
L 247.145787 156.345643 
L 247.925255 154.932594 
L 248.4449 155.144129 
L 248.704723 156.472567 
L 248.964545 157.039502 
L 250.003836 157.318716 
L 250.263659 156.658723 
L 250.523481 157.944849 
L 250.783304 155.956425 
L 251.562772 155.947952 
L 251.822594 155.237194 
L 252.082417 154.907214 
L 252.342239 155.770276 
L 252.602062 154.721052 
L 253.38153 152.072603 
L 253.641353 152.783394 
L 253.901175 152.351883 
L 254.160998 150.96418 
L 254.42082 152.089542 
L 255.200288 150.532669 
L 255.460111 149.111139 
L 256.239579 149.847257 
L 257.019047 148.434194 
L 257.278869 147.122702 
L 257.538692 146.589594 
L 257.798514 146.327333 
L 258.058337 144.051182 
L 259.097627 142.308127 
L 259.35745 140.150467 
L 259.617273 141.275842 
L 259.877095 139.693583 
L 260.656563 140.209732 
L 260.916386 139.245099 
L 261.176208 136.275124 
L 261.436031 136.842084 
L 261.695854 138.6105 
L 262.475322 141.944281 
L 262.735144 138.813588 
L 262.994967 139.448175 
L 263.514612 136.774392 
L 264.29408 136.410507 
L 264.813725 139.803541 
L 265.073548 139.245099 
L 265.33337 139.058957 
L 266.112838 139.346657 
L 266.372661 137.789704 
L 266.632483 138.136657 
L 266.892306 138.043565 
L 267.152129 138.636757 
L 267.931596 138.679156 
L 268.191419 139.094368 
L 268.451242 138.874042 
L 268.711064 136.306401 
L 268.970887 136.12842 
L 269.750355 134.416655 
L 270.010177 135.204747 
L 270.27 138.450311 
L 270.529823 138.162214 
L 270.789645 136.89954 
L 271.569113 135.611506 
L 271.828936 135.687783 
L 272.348581 137.450373 
L 272.608404 136.552139 
L 273.387871 132.721849 
L 273.647694 133.814957 
L 273.907517 133.23879 
L 274.427162 131.721858 
L 275.466452 129.696597 
L 275.986098 131.916798 
L 276.24592 136.238603 
L 277.025388 135.747101 
L 277.285211 136.958911 
L 277.545033 136.187765 
L 277.804856 136.391131 
L 278.064678 138.704542 
L 278.844146 141.348461 
L 279.103969 140.933262 
L 279.363792 138.882509 
L 279.623614 138.052058 
L 279.883437 137.975794 
L 280.662905 139.289281 
L 280.922727 142.221283 
L 281.18255 141.441697 
L 281.442373 142.568737 
L 281.702195 141.594251 
L 282.481663 144.568652 
L 282.741486 142.899258 
L 283.261131 141.051884 
L 283.520953 141.382392 
L 284.300421 141.458656 
L 284.560244 142.560271 
L 284.820067 143.068732 
L 285.079889 140.653605 
L 285.339712 139.738411 
L 286.11918 138.28933 
L 286.379002 136.416543 
L 286.638825 135.992852 
L 286.898647 135.806432 
L 287.15847 136.475861 
L 287.937938 136.518233 
L 288.197761 135.942 
L 288.457583 136.34028 
L 288.717406 133.187912 
L 288.977228 135.535255 
L 289.756696 136.247083 
L 290.276341 134.103119 
L 290.536164 134.552263 
L 290.795987 134.093993 
L 291.575455 134.806851 
L 291.835277 134.492866 
L 292.0951 136.945412 
L 292.354922 136.987889 
L 292.614745 135.188699 
L 293.394213 135.180232 
L 293.654035 134.331594 
L 293.913858 132.218472 
L 294.433503 126.227035 
L 295.212971 125.828175 
L 295.732616 125.047401 
L 296.252262 129.400972 
L 297.031729 126.490089 
L 297.291552 122.195942 
L 297.551375 122.645746 
L 297.811197 123.50285 
L 298.07102 125.132263 
L 298.850488 122.17893 
L 299.370133 113.896179 
L 299.629956 114.337504 
L 299.889778 110.187603 
L 300.929069 114.532668 
L 301.188891 110.314903 
L 301.448714 116.289354 
L 301.708537 117.239854 
L 302.488004 118.419462 
L 303.00765 113.420949 
L 303.267472 112.87779 
L 304.306763 109.440773 
L 304.566585 110.323396 
L 304.826408 110.247 
L 305.086231 111.24843 
L 305.346053 111.783031 
L 306.125521 108.015083 
L 306.385344 109.975427 
L 306.904989 116.509983 
L 307.164812 116.36575 
L 307.944279 116.348764 
L 308.204102 113.896179 
L 308.463925 113.514291 
L 308.723747 116.348764 
L 308.98357 115.601961 
L 310.02286 118.377037 
L 310.282683 121.406727 
L 310.802328 124.648527 
L 311.581796 125.319 
L 311.841619 126.88047 
L 312.101441 126.956866 
L 312.361264 127.355713 
L 312.621086 117.92722 
L 313.400554 114.15078 
L 313.660377 114.295026 
L 313.9202 113.251211 
L 314.180022 115.746221 
L 315.219313 116.612941 
L 315.479135 113.919293 
L 315.738958 112.687209 
L 316.258603 119.17913 
L 317.038071 118.975169 
L 317.297894 115.652747 
L 317.557716 115.856694 
L 317.817539 118.975169 
L 318.077361 120.317753 
L 319.116652 122.849944 
L 319.376475 126.461309 
L 319.89612 122.399612 
L 320.675588 122.170173 
L 320.93541 123.801646 
L 321.195233 120.946568 
L 321.455055 121.226964 
L 321.714878 123.827137 
L 322.494346 127.115575 
L 322.754169 128.696091 
L 323.013991 124.014086 
L 323.533636 130.998843 
L 324.313104 134.491255 
L 324.832749 126.869177 
L 325.092572 125.993951 
L 325.352395 123.138886 
L 326.131863 121.949226 
L 326.391685 119.026179 
L 326.651508 117.845052 
L 326.91133 114.565094 
L 327.171153 114.012768 
L 327.950621 113.265014 
L 328.210443 110.409922 
L 328.470266 111.4211 
L 328.730089 114.106242 
L 328.989911 114.361173 
L 329.769379 110.851762 
L 330.289024 116.468496 
L 330.548847 116.205086 
L 330.80867 117.947032 
L 331.588137 121.634832 
L 331.84796 120.011839 
L 332.107783 117.683622 
L 332.367605 122.025754 
L 333.406896 122.21265 
L 333.666718 120.232798 
L 333.926541 120.377256 
L 334.186364 121.06556 
L 334.446186 124.999798 
L 335.225654 124.073536 
L 335.485477 129.239911 
L 335.745299 129.435339 
L 336.005122 123.427775 
L 336.264945 128.517649 
L 337.044412 128.254199 
L 337.304235 126.962651 
L 337.564058 121.40542 
L 337.82388 129.265403 
L 338.083703 128.635651 
L 338.863171 133.077769 
L 339.122993 130.992886 
L 339.382816 137.8092 
L 339.642639 141.162067 
L 339.902461 137.290145 
L 340.681929 138.626138 
L 340.941752 135.477535 
L 341.201574 142.642756 
L 341.461397 145.595627 
L 341.72122 145.391428 
L 342.500687 140.694022 
L 342.76051 143.034193 
L 343.020333 142.898069 
L 343.280155 140.123878 
L 343.539978 135.137134 
L 344.839091 135.928541 
L 345.098914 133.801101 
L 345.358736 138.762301 
L 346.138204 138.115563 
L 346.398027 135.928541 
L 346.657849 136.566786 
L 347.177494 145.782866 
L 347.956962 150.250503 
L 348.216785 149.501626 
L 348.476608 147.229543 
L 348.73643 151.799286 
L 348.996253 150.522815 
L 350.035543 146.855092 
L 350.295366 147.297579 
L 350.815011 141.927916 
L 351.594479 141.927916 
L 351.854302 145.519046 
L 352.114124 143.995814 
L 352.373947 146.13176 
L 352.633769 144.251114 
L 353.67306 142.013043 
L 353.932882 140.855717 
L 354.192705 137.936857 
L 354.452528 137.349714 
L 355.231996 139.196308 
L 355.491818 138.353825 
L 355.751641 138.668682 
L 356.271286 134.686115 
L 357.050754 137.324143 
L 357.310576 133.979808 
L 357.830222 130.27806 
L 358.090044 131.350273 
L 358.869512 132.320413 
L 359.129335 133.469246 
L 359.389157 129.052646 
L 359.64898 128.576108 
L 359.908803 124.185066 
L 360.688271 125.036055 
L 360.948093 126.312492 
L 361.207916 121.104564 
L 361.727561 121.57286 
L 362.507029 121.981877 
L 362.766851 121.939281 
L 363.026674 118.257952 
L 363.286497 118.897056 
L 363.546319 115.820768 
L 364.325787 114.891917 
L 364.58561 115.028291 
L 364.845432 113.732992 
L 365.105255 114.073855 
L 365.365078 116.315004 
L 366.144545 119.681053 
L 366.404368 119.970801 
L 366.664191 119.715131 
L 366.924013 117.584719 
L 367.183836 123.047076 
L 367.963304 124.955908 
L 368.482949 128.500874 
L 368.742772 127.870316 
L 369.002594 129.702448 
L 370.041885 130.793192 
L 370.301707 129.574606 
L 370.56153 130.852866 
L 370.821353 128.373072 
L 371.60082 123.209021 
L 371.860643 131.381206 
L 372.120466 130.12853 
L 372.380288 132.633882 
L 372.640111 134.056983 
L 373.419579 130.835828 
L 373.679401 128.773597 
L 373.939224 131.483438 
L 374.199047 132.318564 
L 374.458869 134.287083 
L 375.238337 133.997322 
L 375.49816 133.15369 
L 375.757982 134.789825 
L 376.277627 144.708962 
L 377.057095 141.087282 
L 377.316918 137.976891 
L 377.576741 137.72126 
L 377.836563 138.54784 
L 378.096386 143.098398 
L 378.875854 142.817183 
L 379.135676 144.044288 
L 379.395499 144.589653 
L 379.655322 140.627123 
L 379.915144 144.555563 
L 380.954435 139.979474 
L 381.214257 139.885735 
L 381.47408 140.286246 
L 381.733902 136.979898 
L 382.51337 135.122196 
L 382.773193 132.659427 
L 383.033016 135.207375 
L 383.292838 139.084726 
L 383.552661 129.762096 
L 384.332129 131.807302 
L 384.591951 134.09958 
L 385.111596 144.129467 
L 385.371419 144.359963 
L 386.150887 143.899011 
L 386.41071 143.403956 
L 386.670532 147.356012 
L 386.930355 137.113142 
L 387.190177 134.697527 
L 387.969645 135.909588 
L 388.229468 134.407304 
L 388.48929 135.474259 
L 388.749113 133.826871 
L 389.008936 133.340334 
L 389.788404 136.140057 
L 390.048226 134.287822 
L 390.308049 133.528128 
L 391.607162 139.375094 
L 391.866984 141.978477 
L 392.126807 136.122979 
L 392.38663 135.883977 
L 392.646452 136.310746 
L 393.42592 137.317988 
L 393.685743 140.493298 
L 393.945565 142.174803 
L 394.205388 140.715195 
L 394.465211 141.133471 
L 395.504501 138.308112 
L 395.764324 140.237178 
L 396.024146 145.964676 
L 396.283969 147.663273 
L 397.063437 149.489923 
L 397.323259 149.549677 
L 397.583082 146.860943 
L 397.842905 149.609444 
L 398.102727 149.925225 
L 399.142018 151.487289 
L 399.40184 154.893042 
L 399.661663 151.845792 
L 399.921486 151.572653 
L 400.960776 155.721009 
L 401.220599 154.619897 
L 401.480421 155.763685 
L 401.740244 151.83724 
L 402.519712 151.384873 
L 402.779534 150.889778 
L 403.039357 148.533916 
L 403.29918 148.602189 
L 403.559002 147.449895 
L 404.598293 146.442667 
L 404.858115 147.065775 
L 405.117938 147.014554 
L 405.377761 144.795291 
L 406.417051 140.817624 
L 406.676874 141.389525 
L 407.196519 137.915473 
L 407.975987 140.416439 
L 408.495632 138.342255 
L 409.015277 130.600366 
L 409.794745 132.96476 
L 410.054568 130.472326 
L 410.31439 132.802577 
L 410.574213 133.698831 
L 410.834035 133.382521 
L 411.613503 130.954688 
L 411.873326 131.510369 
L 412.133149 129.689464 
L 412.652794 132.066024 
L 413.692084 135.545385 
L 414.211729 134.758879 
L 414.471552 137.058474 
L 415.25102 136.024089 
L 415.510843 136.460091 
L 415.770665 138.255319 
L 416.030488 137.742406 
L 416.29031 133.365443 
L 417.069778 130.97178 
L 417.329601 132.878154 
L 417.589424 131.792469 
L 418.109069 135.528254 
L 418.888537 133.84416 
L 419.148359 132.031828 
L 419.408182 131.689868 
L 419.668004 129.24493 
L 419.927827 129.971551 
L 420.707295 127.919874 
L 420.967118 126.312717 
L 421.22694 127.552277 
L 421.746585 125.483495 
L 422.785876 127.706179 
L 423.045698 125.038934 
L 423.305521 123.679668 
L 423.565344 121.508311 
L 424.344812 120.4226 
L 424.604634 120.884252 
L 424.864457 122.48285 
L 425.124279 121.71346 
L 426.16357 123.961795 
L 426.683215 125.611693 
L 426.943038 120.944098 
L 427.20286 121.243289 
L 427.982328 121.226198 
L 428.501973 119.174467 
L 428.761796 120.012275 
L 429.021619 121.405723 
L 429.801086 121.140715 
L 430.060909 122.474304 
L 430.320732 122.48285 
L 430.580554 118.507693 
L 430.840377 117.422021 
L 431.619845 117.498945 
L 432.13949 119.328356 
L 432.399313 120.747468 
L 432.659135 114.096507 
L 433.438603 114.15638 
L 433.698426 115.635312 
L 433.958248 114.105066 
L 434.218071 113.942632 
L 434.477894 114.74734 
L 435.257361 115.175377 
L 435.517184 115.175377 
L 435.777007 114.64462 
L 436.036829 112.624312 
L 436.296652 112.530164 
L 437.07612 113.351976 
L 437.335942 115.611986 
L 437.595765 115.372284 
L 437.855588 114.387787 
L 438.11541 112.299034 
L 439.154701 110.698204 
L 439.414523 110.740985 
L 439.674346 108.30981 
L 439.934169 107.5736 
L 440.973459 109.063125 
L 441.233282 110.253036 
L 441.493104 107.898891 
L 441.752927 107.564989 
L 442.532395 105.142373 
L 442.792217 105.553292 
L 443.05204 105.005417 
L 443.311863 103.241942 
L 443.571685 104.175033 
L 444.610976 104.098003 
L 444.870798 104.996858 
L 445.130621 102.394439 
L 445.390443 102.668377 
L 446.169911 103.875392 
L 446.429734 101.487012 
L 446.689557 100.468332 
L 446.949379 100.17725 
L 447.209202 96.427715 
L 448.508315 98.687686 
L 448.768137 98.276779 
L 449.02796 99.244146 
L 450.067251 101.469907 
L 450.327073 100.02315 
L 450.586896 99.363983 
L 450.846718 99.23556 
L 451.626186 96.410571 
L 451.886009 96.633168 
L 452.145831 95.460362 
L 452.665477 98.165514 
L 453.444945 97.472098 
L 453.96459 95.974001 
L 454.224412 97.069751 
L 454.484235 94.835444 
L 455.263703 94.3047 
L 455.523525 95.023792 
L 455.783348 97.617652 
L 456.043171 98.824694 
L 456.302993 106.683304 
L 457.082461 109.371311 
L 457.342284 108.558045 
L 457.602106 109.936304 
L 457.861929 110.124652 
L 458.121752 110.073207 
L 458.90122 108.641639 
L 459.161042 110.364671 
L 459.420865 111.119003 
L 459.680687 113.322046 
L 460.719978 111.74478 
L 460.9798 110.553258 
L 461.239623 107.218684 
L 461.499446 111.281873 
L 461.759268 109.370307 
L 462.538736 108.015889 
L 463.058381 101.621061 
L 463.318204 101.432502 
L 463.578027 100.069511 
L 464.617317 99.863794 
L 465.136962 110.270352 
L 465.396785 109.738895 
L 466.176253 108.727387 
L 466.695898 113.142032 
L 466.955721 111.830474 
L 467.215543 112.456264 
L 468.254834 108.975964 
L 468.514656 112.04479 
L 468.774479 113.382078 
L 469.034302 112.644864 
L 469.813769 111.539049 
L 470.073592 115.070755 
L 470.333415 116.382313 
L 470.593237 116.159412 
L 470.85306 115.713676 
L 471.632528 113.536349 
L 471.89235 114.693583 
L 472.411996 112.541985 
L 472.671818 110.330356 
L 473.451286 109.044528 
L 473.711109 109.558867 
L 474.230754 107.570126 
L 474.490576 109.164564 
L 475.270044 109.275988 
L 475.78969 111.74478 
L 476.049512 112.07048 
L 476.309335 114.282122 
L 477.088803 114.179257 
L 477.348625 113.802097 
L 477.608448 115.807956 
L 477.868271 119.41685 
L 478.128093 118.276734 
L 479.167384 116.090822 
L 479.687029 110.26178 
L 479.946851 111.050439 
L 480.726319 108.838811 
L 480.986142 106.61861 
L 481.245965 105.701408 
L 481.505787 106.112856 
L 481.76561 102.482076 
L 482.545078 103.855421 
L 482.8049 101.589401 
L 483.064723 101.100171 
L 483.324545 99.640959 
L 483.584368 99.658129 
L 484.363836 98.147445 
L 484.623659 98.84271 
L 484.883481 98.267613 
L 485.403126 99.417793 
L 486.182594 99.572303 
L 486.442417 99.048718 
L 486.702239 99.932806 
L 486.962062 99.434964 
L 487.221885 98.327697 
L 488.001353 99.881308 
L 488.261175 96.456509 
L 488.520998 97.400682 
L 489.040643 94.490882 
L 489.820111 96.662517 
L 490.079933 95.349242 
L 490.339756 92.559637 
L 490.599579 92.43087 
L 491.638869 94.336386 
L 491.898692 93.43514 
L 492.158514 95.246244 
L 492.418337 95.375011 
L 492.67816 96.302 
L 493.71745 96.774086 
L 493.977273 96.688272 
L 494.237095 96.319183 
L 494.496918 97.22043 
L 496.315676 106.962643 
L 497.095144 103.203083 
L 497.354967 103.563587 
L 497.614789 102.662314 
L 497.874612 103.17734 
L 498.134435 102.894078 
L 499.173725 104.859691 
L 499.433548 105.675124 
L 499.69337 100.567987 
L 499.953193 98.05302 
L 500.732661 96.053092 
L 500.992483 94.945824 
L 501.252306 95.529507 
L 501.512129 95.812756 
L 501.771951 97.314868 
L 502.551419 97.907122 
L 503.071064 104.198781 
L 503.330887 102.087231 
L 503.59071 102.954162 
L 504.370177 101.383394 
L 504.63 99.992877 
L 504.889823 99.898465 
L 505.149645 100.834039 
L 505.409468 100.172284 
L 506.188936 101.633345 
L 506.448758 103.446774 
L 506.708581 104.211659 
L 506.968404 104.46091 
L 507.228226 105.793047 
L 508.267517 106.437618 
L 508.527339 105.784408 
L 508.787162 104.022584 
L 509.046984 105.612557 
L 509.826452 106.781374 
L 510.086275 105.518 
L 510.346098 106.557932 
L 510.60592 107.133742 
L 510.865743 108.070544 
L 511.645211 111.989593 
L 511.905033 116.269581 
L 512.164856 117.129037 
L 512.424678 117.232153 
L 512.684501 115.745323 
L 513.723792 113.596737 
L 513.983614 115.401554 
L 514.243437 113.79441 
L 514.503259 114.120995 
L 515.282727 113.175594 
L 515.802373 108.921401 
L 516.062195 115.195295 
L 516.322018 114.413186 
L 517.101486 115.642193 
L 517.361308 116.621949 
L 517.621131 113.527988 
L 517.880953 115.100751 
L 518.920244 116.346929 
L 519.180067 117.369677 
L 519.439889 116.67354 
L 519.699712 117.386847 
L 519.959534 116.73369 
L 520.739002 117.70486 
L 520.998825 116.656317 
L 521.258647 118.280697 
L 521.51847 112.041145 
L 521.778293 110.743402 
L 522.557761 114.060819 
L 522.817583 116.905568 
L 523.597051 120.669909 
L 524.376519 119.947991 
L 524.636341 119.036983 
L 524.896164 117.214969 
L 525.155987 116.467255 
L 525.415809 116.974317 
L 526.195277 113.364682 
L 526.4551 116.089105 
L 526.714922 116.974317 
L 526.974745 113.768628 
L 527.234568 104.873401 
L 528.014035 106.30868 
L 528.273858 105.715673 
L 528.533681 105.423456 
L 528.793503 103.850666 
L 529.053326 104.943682 
L 530.092616 101.174203 
L 530.352439 99.203412 
L 530.872084 99.074341 
L 531.651552 98.067443 
L 531.911375 96.940047 
L 532.171197 98.187928 
L 532.43102 101.647557 
L 532.690843 98.979692 
L 533.730133 98.971054 
L 533.989956 98.712887 
L 534.509601 97.026098 
L 535.548891 95.218837 
L 535.808714 93.910713 
L 536.068537 95.106964 
L 536.328359 93.032885 
L 537.107827 96.27738 
L 537.36765 84.203092 
L 537.627472 79.108305 
L 537.887295 78.101407 
L 538.147118 79.607468 
L 538.926585 76.010131 
L 539.965876 83.910478 
L 540.745344 83.351086 
L 541.005166 82.550724 
L 541.264989 78.9534 
L 541.524812 78.221891 
L 541.784634 81.216804 
L 542.564102 75.94129 
L 542.823925 72.911957 
L 543.083747 71.810382 
L 543.603392 67.688086 
L 544.38286 66.414383 
L 544.642683 65.674276 
L 544.902506 61.973664 
L 545.162328 66.629544 
L 545.422151 64.073565 
L 546.201619 60.751618 
L 546.461441 60.39015 
L 546.981086 69.547004 
L 547.240909 69.435117 
L 548.020377 69.736316 
L 548.2802 68.832693 
L 548.540022 74.400821 
L 548.799845 75.304445 
L 549.059667 74.899944 
L 549.839135 74.658961 
L 550.098958 74.177048 
L 550.35878 71.354264 
L 550.618603 74.5557 
L 550.878426 73.264813 
L 551.917716 84.134251 
L 552.437361 78.901769 
L 552.697184 76.380171 
L 553.476652 75.053331 
L 553.736475 71.830934 
L 553.996297 71.443221 
L 554.25612 68.858409 
L 554.515942 67.712481 
L 555.29541 67.850348 
L 555.555233 67.316157 
L 555.815055 67.410926 
L 556.074878 69.022124 
L 556.334701 67.031825 
L 557.114169 66.738881 
L 557.373991 66.006514 
L 557.633814 67.333381 
L 557.893636 64.490098 
L 558.153459 65.170767 
L 559.452572 72.192811 
L 559.712395 70.874557 
L 559.972217 72.21866 
L 560.751685 72.141115 
L 561.011508 72.830396 
L 561.27133 70.63331 
L 561.531153 70.538528 
L 561.790976 70.771176 
L 562.570443 76.095852 
L 562.830266 75.690929 
L 563.090089 72.330652 
L 563.349911 65.282773 
L 564.389202 67.350604 
L 564.649024 66.575179 
L 564.908847 67.436787 
L 565.16867 66.445937 
L 565.428492 66.213315 
L 566.20796 61.72436 
L 566.467783 67.574628 
L 566.727605 67.083522 
L 566.987428 68.039899 
L 567.247251 67.066298 
L 568.026718 71.469056 
L 568.546364 64.70551 
L 568.806186 65.136307 
L 569.066009 66.420075 
L 569.845477 63.189067 
L 570.105299 60.992006 
L 570.365122 62.775519 
L 570.624945 62.456726 
L 570.884767 60.001169 
L 571.664235 58.726013 
L 571.924058 59.260178 
L 572.18388 63.654364 
L 572.443703 63.81804 
L 572.703525 63.094298 
L 573.482993 61.379719 
L 573.742816 61.147084 
L 574.522284 70.417924 
L 575.301752 71.193362 
L 575.561574 69.95264 
L 575.821397 70.581626 
L 576.08122 66.480397 
L 576.341042 66.713283 
L 577.12051 69.068049 
L 577.380333 69.068049 
L 577.640155 68.30039 
L 577.899978 65.626476 
L 578.1598 68.403876 
L 578.939268 65.798988 
L 579.199091 65.574726 
L 579.458914 64.953691 
L 579.718736 65.367701 
L 579.978559 64.203269 
L 580.758027 61.61563 
L 581.017849 59.726637 
L 581.277672 59.838788 
L 581.797317 57.768658 
L 582.576785 55.819318 
L 582.836608 53.179903 
L 583.09643 52.869379 
L 583.356253 52.843517 
L 583.616075 53.016029 
L 584.655366 48.763646 
L 584.915188 49.867703 
L 585.175011 48.599772 
L 585.434834 48.453135 
L 586.214302 45.94312 
L 586.474124 43.838504 
L 586.733947 48.522134 
L 586.993769 47.021303 
L 587.253592 42.96732 
L 588.03306 42.294535 
L 588.292882 39.767245 
L 588.812528 39.06 
L 589.07235 42.018537 
L 589.851818 44.942562 
L 590.111641 46.477893 
L 590.631286 52.144845 
L 590.891109 52.56748 
L 591.670576 51.152911 
L 591.930399 53.559413 
L 592.190222 53.136765 
L 592.709867 58.182669 
L 593.749157 61.261981 
L 594.00898 57.302886 
L 594.268803 65.591976 
L 594.528625 64.108408 
L 595.567916 70.439506 
L 595.827738 69.41306 
L 596.087561 69.559697 
L 596.347384 70.318744 
L 597.126851 64.211894 
L 597.386674 56.966487 
L 597.646497 56.017678 
L 598.166142 58.915841 
L 598.94561 65.807613 
L 599.205432 61.676005 
L 599.465255 61.960641 
L 599.725078 61.313731 
L 599.9849 66.135373 
L 600.764368 65.902249 
L 601.543836 53.916892 
L 601.803659 51.26596 
L 602.842949 51.378216 
L 603.102772 51.032822 
L 603.362594 50.203864 
L 603.622417 50.44564 
L 604.401885 49.107217 
L 604.661707 49.159032 
L 604.92153 54.927198 
L 605.181353 57.569492 
L 605.441175 53.649215 
L 606.220643 56.939146 
L 606.480466 58.752482 
L 606.740288 58.916541 
L 607.000111 59.270573 
L 607.259933 56.041096 
L 608.039401 66.049031 
L 608.818869 81.419272 
L 609.078692 78.129342 
L 609.85816 77.688968 
L 610.117982 78.820156 
L 610.377805 76.618235 
L 610.637627 77.602613 
L 610.89745 74.001842 
L 611.676918 71.877638 
L 611.936741 69.26987 
L 612.196563 71.186851 
L 612.456386 69.183528 
L 612.716208 74.321334 
L 613.755499 69.753434 
L 614.015322 69.148989 
L 614.534967 99.811754 
L 615.314435 105.787156 
L 615.574257 113.593171 
L 615.83408 90.770947 
L 616.093902 98.05022 
L 616.353725 91.375405 
L 617.133193 87.601911 
L 617.393016 87.930041 
L 617.652838 94.725763 
L 617.912661 92.385685 
L 618.951951 95.684254 
L 619.471596 85.805824 
L 619.731419 82.55046 
L 619.991242 81.764679 
L 620.77071 81.022063 
L 621.550177 78.276137 
L 621.81 85.158214 
L 622.589468 90.736407 
L 622.84929 91.064551 
L 623.109113 93.016045 
L 623.628758 91.047262 
L 624.408226 80.22211 
L 624.668049 78.371804 
L 625.447517 79.815734 
L 626.226984 81.960015 
L 626.486807 83.620097 
L 626.74663 87.744387 
L 627.006452 88.375566 
L 627.266275 93.641148 
L 628.305565 89.369877 
L 628.565388 89.188317 
L 628.825211 89.594693 
L 629.085033 88.816521 
L 629.864501 88.081592 
L 630.124324 86.724122 
L 630.384146 87.113195 
L 630.643969 89.006731 
L 630.903792 86.162114 
L 631.683259 88.297743 
L 631.943082 87.242899 
L 632.202905 90.606307 
L 632.462727 90.243161 
L 632.72255 92.620896 
L 633.502018 90.917571 
L 633.76184 93.321246 
L 634.021663 92.508495 
L 634.541308 88.68683 
L 635.320776 88.254513 
L 635.580599 89.292068 
L 635.840421 88.202631 
L 636.100244 88.68683 
L 636.360067 88.617658 
L 637.139534 85.08133 
L 637.399357 82.790056 
L 637.65918 78.795469 
L 637.919002 77.835724 
L 638.958293 80.948401 
L 639.218115 80.896519 
L 639.737761 78.82141 
L 639.997583 79.902195 
L 640.777051 82.098357 
L 641.036874 81.674679 
L 641.296696 80.766815 
L 641.556519 80.887868 
L 641.816341 79.884906 
L 642.595809 78.76089 
L 642.855632 77.100795 
L 643.375277 77.654165 
L 643.6351 77.550401 
L 644.414568 77.403408 
L 644.934213 81.72656 
L 645.194035 83.006207 
L 645.453858 87.49363 
L 646.233326 86.654938 
L 646.493149 87.026748 
L 647.012794 72.232938 
L 647.272616 64.174581 
L 648.052084 65.827913 
L 648.311907 63.689854 
L 648.571729 60.5044 
L 648.831552 60.980489 
L 649.091375 62.010568 
L 650.130665 62.902145 
L 650.390488 66.840676 
L 650.65031 67.801505 
L 650.910133 65.325858 
L 651.689601 65.845216 
L 651.949424 63.984159 
L 652.209246 62.962731 
L 652.469069 61.170924 
L 652.728891 61.534479 
L 653.768182 63.629255 
L 653.768182 63.629255 
" clip-path="url(#pf7e44df426)" style="fill: none; stroke: #1f77b4; stroke-width: 1.5; stroke-linecap: square"/>
   </g>
   <g id="patch_3">
    <path d="M 94.5 224.28 
L 94.5 30.24 
" style="fill: none; stroke: #000000; stroke-width: 0.8; stroke-linejoin: miter; stroke-linecap: square"/>
   </g>
   <g id="patch_4">
    <path d="M 94.5 224.28 
L 680.4 224.28 
" style="fill: none; stroke: #000000; stroke-width: 0.8; stroke-linejoin: miter; stroke-linecap: square"/>
   </g>
  </g>
 </g>
 <defs>
  <clipPath id="pf7e44df426">
   <rect x="94.5" y="30.24" width="585.9" height="194.04"/>
  </clipPath>
 </defs>
</svg>
