<?xml version="1.0" encoding="utf-8" standalone="no"?>
<!DOCTYPE svg PUBLIC "-//W3C//DTD SVG 1.1//EN"
  "http://www.w3.org/Graphics/SVG/1.1/DTD/svg11.dtd">
<svg xmlns:xlink="http://www.w3.org/1999/xlink" width="1166.4pt" height="252pt" viewBox="0 0 1166.4 252" xmlns="http://www.w3.org/2000/svg" version="1.1">
 <metadata>
  <rdf:RDF xmlns:dc="http://purl.org/dc/elements/1.1/" xmlns:cc="http://creativecommons.org/ns#" xmlns:rdf="http://www.w3.org/1999/02/22-rdf-syntax-ns#">
   <cc:Work>
    <dc:type rdf:resource="http://purl.org/dc/dcmitype/StillImage"/>
    <dc:date>2025-09-06T23:30:03.095831</dc:date>
    <dc:format>image/svg+xml</dc:format>
    <dc:creator>
     <cc:Agent>
      <dc:title>Matplotlib v3.10.5, https://matplotlib.org/</dc:title>
     </cc:Agent>
    </dc:creator>
   </cc:Work>
  </rdf:RDF>
 </metadata>
 <defs>
  <style type="text/css">*{stroke-linejoin: round; stroke-linecap: butt}</style>
 </defs>
 <g id="figure_1">
  <g id="patch_1">
   <path d="M 0 252 
L 1166.4 252 
L 1166.4 0 
L 0 0 
z
" style="fill: #ffffff"/>
  </g>
  <g id="axes_1">
   <g id="patch_2">
    <path d="M 145.8 224.28 
L 1049.76 224.28 
L 1049.76 30.24 
L 145.8 30.24 
z
" style="fill: #ffffff"/>
   </g>
   <g id="matplotlib.axis_1">
    <g id="xtick_1">
     <g id="line2d_1">
      <defs>
       <path id="m31ac077e31" d="M 0 0 
L 0 3.5 
" style="stroke: #000000; stroke-width: 0.8"/>
      </defs>
      <g>
       <use xlink:href="#m31ac077e31" x="189.861177" y="224.28" style="stroke: #000000; stroke-width: 0.8"/>
      </g>
     </g>
     <g id="text_1">
      <!-- 2024-03 -->
      <g transform="translate(168.969771 238.878438) scale(0.1 -0.1)">
       <defs>
        <path id="DejaVuSans-32" d="M 1228 531 
L 3431 531 
L 3431 0 
L 469 0 
L 469 531 
Q 828 903 1448 1529 
Q 2069 2156 2228 2338 
Q 2531 2678 2651 2914 
Q 2772 3150 2772 3378 
Q 2772 3750 2511 3984 
Q 2250 4219 1831 4219 
Q 1534 4219 1204 4116 
Q 875 4013 500 3803 
L 500 4441 
Q 881 4594 1212 4672 
Q 1544 4750 1819 4750 
Q 2544 4750 2975 4387 
Q 3406 4025 3406 3419 
Q 3406 3131 3298 2873 
Q 3191 2616 2906 2266 
Q 2828 2175 2409 1742 
Q 1991 1309 1228 531 
z
" transform="scale(0.015625)"/>
        <path id="DejaVuSans-30" d="M 2034 4250 
Q 1547 4250 1301 3770 
Q 1056 3291 1056 2328 
Q 1056 1369 1301 889 
Q 1547 409 2034 409 
Q 2525 409 2770 889 
Q 3016 1369 3016 2328 
Q 3016 3291 2770 3770 
Q 2525 4250 2034 4250 
z
M 2034 4750 
Q 2819 4750 3233 4129 
Q 3647 3509 3647 2328 
Q 3647 1150 3233 529 
Q 2819 -91 2034 -91 
Q 1250 -91 836 529 
Q 422 1150 422 2328 
Q 422 3509 836 4129 
Q 1250 4750 2034 4750 
z
" transform="scale(0.015625)"/>
        <path id="DejaVuSans-34" d="M 2419 4116 
L 825 1625 
L 2419 1625 
L 2419 4116 
z
M 2253 4666 
L 3047 4666 
L 3047 1625 
L 3713 1625 
L 3713 1100 
L 3047 1100 
L 3047 0 
L 2419 0 
L 2419 1100 
L 313 1100 
L 313 1709 
L 2253 4666 
z
" transform="scale(0.015625)"/>
        <path id="DejaVuSans-2d" d="M 313 2009 
L 1997 2009 
L 1997 1497 
L 313 1497 
L 313 2009 
z
" transform="scale(0.015625)"/>
        <path id="DejaVuSans-33" d="M 2597 2516 
Q 3050 2419 3304 2112 
Q 3559 1806 3559 1356 
Q 3559 666 3084 287 
Q 2609 -91 1734 -91 
Q 1441 -91 1130 -33 
Q 819 25 488 141 
L 488 750 
Q 750 597 1062 519 
Q 1375 441 1716 441 
Q 2309 441 2620 675 
Q 2931 909 2931 1356 
Q 2931 1769 2642 2001 
Q 2353 2234 1838 2234 
L 1294 2234 
L 1294 2753 
L 1863 2753 
Q 2328 2753 2575 2939 
Q 2822 3125 2822 3475 
Q 2822 3834 2567 4026 
Q 2313 4219 1838 4219 
Q 1578 4219 1281 4162 
Q 984 4106 628 3988 
L 628 4550 
Q 988 4650 1302 4700 
Q 1616 4750 1894 4750 
Q 2613 4750 3031 4423 
Q 3450 4097 3450 3541 
Q 3450 3153 3228 2886 
Q 3006 2619 2597 2516 
z
" transform="scale(0.015625)"/>
       </defs>
       <use xlink:href="#DejaVuSans-32"/>
       <use xlink:href="#DejaVuSans-30" transform="translate(63.623047 0)"/>
       <use xlink:href="#DejaVuSans-32" transform="translate(127.246094 0)"/>
       <use xlink:href="#DejaVuSans-34" transform="translate(190.869141 0)"/>
       <use xlink:href="#DejaVuSans-2d" transform="translate(254.492188 0)"/>
       <use xlink:href="#DejaVuSans-30" transform="translate(290.576172 0)"/>
       <use xlink:href="#DejaVuSans-33" transform="translate(354.199219 0)"/>
      </g>
     </g>
    </g>
    <g id="xtick_2">
     <g id="line2d_2">
      <g>
       <use xlink:href="#m31ac077e31" x="280.509804" y="224.28" style="stroke: #000000; stroke-width: 0.8"/>
      </g>
     </g>
     <g id="text_2">
      <!-- 2024-05 -->
      <g transform="translate(259.618398 238.878438) scale(0.1 -0.1)">
       <defs>
        <path id="DejaVuSans-35" d="M 691 4666 
L 3169 4666 
L 3169 4134 
L 1269 4134 
L 1269 2991 
Q 1406 3038 1543 3061 
Q 1681 3084 1819 3084 
Q 2600 3084 3056 2656 
Q 3513 2228 3513 1497 
Q 3513 744 3044 326 
Q 2575 -91 1722 -91 
Q 1428 -91 1123 -41 
Q 819 9 494 109 
L 494 744 
Q 775 591 1075 516 
Q 1375 441 1709 441 
Q 2250 441 2565 725 
Q 2881 1009 2881 1497 
Q 2881 1984 2565 2268 
Q 2250 2553 1709 2553 
Q 1456 2553 1204 2497 
Q 953 2441 691 2322 
L 691 4666 
z
" transform="scale(0.015625)"/>
       </defs>
       <use xlink:href="#DejaVuSans-32"/>
       <use xlink:href="#DejaVuSans-30" transform="translate(63.623047 0)"/>
       <use xlink:href="#DejaVuSans-32" transform="translate(127.246094 0)"/>
       <use xlink:href="#DejaVuSans-34" transform="translate(190.869141 0)"/>
       <use xlink:href="#DejaVuSans-2d" transform="translate(254.492188 0)"/>
       <use xlink:href="#DejaVuSans-30" transform="translate(290.576172 0)"/>
       <use xlink:href="#DejaVuSans-35" transform="translate(354.199219 0)"/>
      </g>
     </g>
    </g>
    <g id="xtick_3">
     <g id="line2d_3">
      <g>
       <use xlink:href="#m31ac077e31" x="371.158432" y="224.28" style="stroke: #000000; stroke-width: 0.8"/>
      </g>
     </g>
     <g id="text_3">
      <!-- 2024-07 -->
      <g transform="translate(350.267025 238.878438) scale(0.1 -0.1)">
       <defs>
        <path id="DejaVuSans-37" d="M 525 4666 
L 3525 4666 
L 3525 4397 
L 1831 0 
L 1172 0 
L 2766 4134 
L 525 4134 
L 525 4666 
z
" transform="scale(0.015625)"/>
       </defs>
       <use xlink:href="#DejaVuSans-32"/>
       <use xlink:href="#DejaVuSans-30" transform="translate(63.623047 0)"/>
       <use xlink:href="#DejaVuSans-32" transform="translate(127.246094 0)"/>
       <use xlink:href="#DejaVuSans-34" transform="translate(190.869141 0)"/>
       <use xlink:href="#DejaVuSans-2d" transform="translate(254.492188 0)"/>
       <use xlink:href="#DejaVuSans-30" transform="translate(290.576172 0)"/>
       <use xlink:href="#DejaVuSans-37" transform="translate(354.199219 0)"/>
      </g>
     </g>
    </g>
    <g id="xtick_4">
     <g id="line2d_4">
      <g>
       <use xlink:href="#m31ac077e31" x="463.293102" y="224.28" style="stroke: #000000; stroke-width: 0.8"/>
      </g>
     </g>
     <g id="text_4">
      <!-- 2024-09 -->
      <g transform="translate(442.401696 238.878438) scale(0.1 -0.1)">
       <defs>
        <path id="DejaVuSans-39" d="M 703 97 
L 703 672 
Q 941 559 1184 500 
Q 1428 441 1663 441 
Q 2288 441 2617 861 
Q 2947 1281 2994 2138 
Q 2813 1869 2534 1725 
Q 2256 1581 1919 1581 
Q 1219 1581 811 2004 
Q 403 2428 403 3163 
Q 403 3881 828 4315 
Q 1253 4750 1959 4750 
Q 2769 4750 3195 4129 
Q 3622 3509 3622 2328 
Q 3622 1225 3098 567 
Q 2575 -91 1691 -91 
Q 1453 -91 1209 -44 
Q 966 3 703 97 
z
M 1959 2075 
Q 2384 2075 2632 2365 
Q 2881 2656 2881 3163 
Q 2881 3666 2632 3958 
Q 2384 4250 1959 4250 
Q 1534 4250 1286 3958 
Q 1038 3666 1038 3163 
Q 1038 2656 1286 2365 
Q 1534 2075 1959 2075 
z
" transform="scale(0.015625)"/>
       </defs>
       <use xlink:href="#DejaVuSans-32"/>
       <use xlink:href="#DejaVuSans-30" transform="translate(63.623047 0)"/>
       <use xlink:href="#DejaVuSans-32" transform="translate(127.246094 0)"/>
       <use xlink:href="#DejaVuSans-34" transform="translate(190.869141 0)"/>
       <use xlink:href="#DejaVuSans-2d" transform="translate(254.492188 0)"/>
       <use xlink:href="#DejaVuSans-30" transform="translate(290.576172 0)"/>
       <use xlink:href="#DejaVuSans-39" transform="translate(354.199219 0)"/>
      </g>
     </g>
    </g>
    <g id="xtick_5">
     <g id="line2d_5">
      <g>
       <use xlink:href="#m31ac077e31" x="553.941729" y="224.28" style="stroke: #000000; stroke-width: 0.8"/>
      </g>
     </g>
     <g id="text_5">
      <!-- 2024-11 -->
      <g transform="translate(533.050323 238.878438) scale(0.1 -0.1)">
       <defs>
        <path id="DejaVuSans-31" d="M 794 531 
L 1825 531 
L 1825 4091 
L 703 3866 
L 703 4441 
L 1819 4666 
L 2450 4666 
L 2450 531 
L 3481 531 
L 3481 0 
L 794 0 
L 794 531 
z
" transform="scale(0.015625)"/>
       </defs>
       <use xlink:href="#DejaVuSans-32"/>
       <use xlink:href="#DejaVuSans-30" transform="translate(63.623047 0)"/>
       <use xlink:href="#DejaVuSans-32" transform="translate(127.246094 0)"/>
       <use xlink:href="#DejaVuSans-34" transform="translate(190.869141 0)"/>
       <use xlink:href="#DejaVuSans-2d" transform="translate(254.492188 0)"/>
       <use xlink:href="#DejaVuSans-31" transform="translate(290.576172 0)"/>
       <use xlink:href="#DejaVuSans-31" transform="translate(354.199219 0)"/>
      </g>
     </g>
    </g>
    <g id="xtick_6">
     <g id="line2d_6">
      <g>
       <use xlink:href="#m31ac077e31" x="644.590357" y="224.28" style="stroke: #000000; stroke-width: 0.8"/>
      </g>
     </g>
     <g id="text_6">
      <!-- 2025-01 -->
      <g transform="translate(623.69895 238.878438) scale(0.1 -0.1)">
       <use xlink:href="#DejaVuSans-32"/>
       <use xlink:href="#DejaVuSans-30" transform="translate(63.623047 0)"/>
       <use xlink:href="#DejaVuSans-32" transform="translate(127.246094 0)"/>
       <use xlink:href="#DejaVuSans-35" transform="translate(190.869141 0)"/>
       <use xlink:href="#DejaVuSans-2d" transform="translate(254.492188 0)"/>
       <use xlink:href="#DejaVuSans-30" transform="translate(290.576172 0)"/>
       <use xlink:href="#DejaVuSans-31" transform="translate(354.199219 0)"/>
      </g>
     </g>
    </g>
    <g id="xtick_7">
     <g id="line2d_7">
      <g>
       <use xlink:href="#m31ac077e31" x="732.266898" y="224.28" style="stroke: #000000; stroke-width: 0.8"/>
      </g>
     </g>
     <g id="text_7">
      <!-- 2025-03 -->
      <g transform="translate(711.375492 238.878438) scale(0.1 -0.1)">
       <use xlink:href="#DejaVuSans-32"/>
       <use xlink:href="#DejaVuSans-30" transform="translate(63.623047 0)"/>
       <use xlink:href="#DejaVuSans-32" transform="translate(127.246094 0)"/>
       <use xlink:href="#DejaVuSans-35" transform="translate(190.869141 0)"/>
       <use xlink:href="#DejaVuSans-2d" transform="translate(254.492188 0)"/>
       <use xlink:href="#DejaVuSans-30" transform="translate(290.576172 0)"/>
       <use xlink:href="#DejaVuSans-33" transform="translate(354.199219 0)"/>
      </g>
     </g>
    </g>
    <g id="xtick_8">
     <g id="line2d_8">
      <g>
       <use xlink:href="#m31ac077e31" x="822.915525" y="224.28" style="stroke: #000000; stroke-width: 0.8"/>
      </g>
     </g>
     <g id="text_8">
      <!-- 2025-05 -->
      <g transform="translate(802.024119 238.878438) scale(0.1 -0.1)">
       <use xlink:href="#DejaVuSans-32"/>
       <use xlink:href="#DejaVuSans-30" transform="translate(63.623047 0)"/>
       <use xlink:href="#DejaVuSans-32" transform="translate(127.246094 0)"/>
       <use xlink:href="#DejaVuSans-35" transform="translate(190.869141 0)"/>
       <use xlink:href="#DejaVuSans-2d" transform="translate(254.492188 0)"/>
       <use xlink:href="#DejaVuSans-30" transform="translate(290.576172 0)"/>
       <use xlink:href="#DejaVuSans-35" transform="translate(354.199219 0)"/>
      </g>
     </g>
    </g>
    <g id="xtick_9">
     <g id="line2d_9">
      <g>
       <use xlink:href="#m31ac077e31" x="913.564153" y="224.28" style="stroke: #000000; stroke-width: 0.8"/>
      </g>
     </g>
     <g id="text_9">
      <!-- 2025-07 -->
      <g transform="translate(892.672746 238.878438) scale(0.1 -0.1)">
       <use xlink:href="#DejaVuSans-32"/>
       <use xlink:href="#DejaVuSans-30" transform="translate(63.623047 0)"/>
       <use xlink:href="#DejaVuSans-32" transform="translate(127.246094 0)"/>
       <use xlink:href="#DejaVuSans-35" transform="translate(190.869141 0)"/>
       <use xlink:href="#DejaVuSans-2d" transform="translate(254.492188 0)"/>
       <use xlink:href="#DejaVuSans-30" transform="translate(290.576172 0)"/>
       <use xlink:href="#DejaVuSans-37" transform="translate(354.199219 0)"/>
      </g>
     </g>
    </g>
    <g id="xtick_10">
     <g id="line2d_10">
      <g>
       <use xlink:href="#m31ac077e31" x="1005.698823" y="224.28" style="stroke: #000000; stroke-width: 0.8"/>
      </g>
     </g>
     <g id="text_10">
      <!-- 2025-09 -->
      <g transform="translate(984.807417 238.878438) scale(0.1 -0.1)">
       <use xlink:href="#DejaVuSans-32"/>
       <use xlink:href="#DejaVuSans-30" transform="translate(63.623047 0)"/>
       <use xlink:href="#DejaVuSans-32" transform="translate(127.246094 0)"/>
       <use xlink:href="#DejaVuSans-35" transform="translate(190.869141 0)"/>
       <use xlink:href="#DejaVuSans-2d" transform="translate(254.492188 0)"/>
       <use xlink:href="#DejaVuSans-30" transform="translate(290.576172 0)"/>
       <use xlink:href="#DejaVuSans-39" transform="translate(354.199219 0)"/>
      </g>
     </g>
    </g>
   </g>
   <g id="matplotlib.axis_2">
    <g id="ytick_1">
     <g id="line2d_11">
      <defs>
       <path id="m9fd06a7b73" d="M 0 0 
L -3.5 0 
" style="stroke: #000000; stroke-width: 0.8"/>
      </defs>
      <g>
       <use xlink:href="#m9fd06a7b73" x="145.8" y="208.236371" style="stroke: #000000; stroke-width: 0.8"/>
      </g>
     </g>
     <g id="text_11">
      <!-- 20 -->
      <g transform="translate(126.075 212.035589) scale(0.1 -0.1)">
       <use xlink:href="#DejaVuSans-32"/>
       <use xlink:href="#DejaVuSans-30" transform="translate(63.623047 0)"/>
      </g>
     </g>
    </g>
    <g id="ytick_2">
     <g id="line2d_12">
      <g>
       <use xlink:href="#m9fd06a7b73" x="145.8" y="186.023957" style="stroke: #000000; stroke-width: 0.8"/>
      </g>
     </g>
     <g id="text_12">
      <!-- 30 -->
      <g transform="translate(126.075 189.823175) scale(0.1 -0.1)">
       <use xlink:href="#DejaVuSans-33"/>
       <use xlink:href="#DejaVuSans-30" transform="translate(63.623047 0)"/>
      </g>
     </g>
    </g>
    <g id="ytick_3">
     <g id="line2d_13">
      <g>
       <use xlink:href="#m9fd06a7b73" x="145.8" y="163.811543" style="stroke: #000000; stroke-width: 0.8"/>
      </g>
     </g>
     <g id="text_13">
      <!-- 40 -->
      <g transform="translate(126.075 167.610762) scale(0.1 -0.1)">
       <use xlink:href="#DejaVuSans-34"/>
       <use xlink:href="#DejaVuSans-30" transform="translate(63.623047 0)"/>
      </g>
     </g>
    </g>
    <g id="ytick_4">
     <g id="line2d_14">
      <g>
       <use xlink:href="#m9fd06a7b73" x="145.8" y="141.599129" style="stroke: #000000; stroke-width: 0.8"/>
      </g>
     </g>
     <g id="text_14">
      <!-- 50 -->
      <g transform="translate(126.075 145.398348) scale(0.1 -0.1)">
       <use xlink:href="#DejaVuSans-35"/>
       <use xlink:href="#DejaVuSans-30" transform="translate(63.623047 0)"/>
      </g>
     </g>
    </g>
    <g id="ytick_5">
     <g id="line2d_15">
      <g>
       <use xlink:href="#m9fd06a7b73" x="145.8" y="119.386715" style="stroke: #000000; stroke-width: 0.8"/>
      </g>
     </g>
     <g id="text_15">
      <!-- 60 -->
      <g transform="translate(126.075 123.185934) scale(0.1 -0.1)">
       <defs>
        <path id="DejaVuSans-36" d="M 2113 2584 
Q 1688 2584 1439 2293 
Q 1191 2003 1191 1497 
Q 1191 994 1439 701 
Q 1688 409 2113 409 
Q 2538 409 2786 701 
Q 3034 994 3034 1497 
Q 3034 2003 2786 2293 
Q 2538 2584 2113 2584 
z
M 3366 4563 
L 3366 3988 
Q 3128 4100 2886 4159 
Q 2644 4219 2406 4219 
Q 1781 4219 1451 3797 
Q 1122 3375 1075 2522 
Q 1259 2794 1537 2939 
Q 1816 3084 2150 3084 
Q 2853 3084 3261 2657 
Q 3669 2231 3669 1497 
Q 3669 778 3244 343 
Q 2819 -91 2113 -91 
Q 1303 -91 875 529 
Q 447 1150 447 2328 
Q 447 3434 972 4092 
Q 1497 4750 2381 4750 
Q 2619 4750 2861 4703 
Q 3103 4656 3366 4563 
z
" transform="scale(0.015625)"/>
       </defs>
       <use xlink:href="#DejaVuSans-36"/>
       <use xlink:href="#DejaVuSans-30" transform="translate(63.623047 0)"/>
      </g>
     </g>
    </g>
    <g id="ytick_6">
     <g id="line2d_16">
      <g>
       <use xlink:href="#m9fd06a7b73" x="145.8" y="97.174301" style="stroke: #000000; stroke-width: 0.8"/>
      </g>
     </g>
     <g id="text_16">
      <!-- 70 -->
      <g transform="translate(126.075 100.97352) scale(0.1 -0.1)">
       <use xlink:href="#DejaVuSans-37"/>
       <use xlink:href="#DejaVuSans-30" transform="translate(63.623047 0)"/>
      </g>
     </g>
    </g>
    <g id="ytick_7">
     <g id="line2d_17">
      <g>
       <use xlink:href="#m9fd06a7b73" x="145.8" y="74.961887" style="stroke: #000000; stroke-width: 0.8"/>
      </g>
     </g>
     <g id="text_17">
      <!-- 80 -->
      <g transform="translate(126.075 78.761106) scale(0.1 -0.1)">
       <defs>
        <path id="DejaVuSans-38" d="M 2034 2216 
Q 1584 2216 1326 1975 
Q 1069 1734 1069 1313 
Q 1069 891 1326 650 
Q 1584 409 2034 409 
Q 2484 409 2743 651 
Q 3003 894 3003 1313 
Q 3003 1734 2745 1975 
Q 2488 2216 2034 2216 
z
M 1403 2484 
Q 997 2584 770 2862 
Q 544 3141 544 3541 
Q 544 4100 942 4425 
Q 1341 4750 2034 4750 
Q 2731 4750 3128 4425 
Q 3525 4100 3525 3541 
Q 3525 3141 3298 2862 
Q 3072 2584 2669 2484 
Q 3125 2378 3379 2068 
Q 3634 1759 3634 1313 
Q 3634 634 3220 271 
Q 2806 -91 2034 -91 
Q 1263 -91 848 271 
Q 434 634 434 1313 
Q 434 1759 690 2068 
Q 947 2378 1403 2484 
z
M 1172 3481 
Q 1172 3119 1398 2916 
Q 1625 2713 2034 2713 
Q 2441 2713 2670 2916 
Q 2900 3119 2900 3481 
Q 2900 3844 2670 4047 
Q 2441 4250 2034 4250 
Q 1625 4250 1398 4047 
Q 1172 3844 1172 3481 
z
" transform="scale(0.015625)"/>
       </defs>
       <use xlink:href="#DejaVuSans-38"/>
       <use xlink:href="#DejaVuSans-30" transform="translate(63.623047 0)"/>
      </g>
     </g>
    </g>
    <g id="ytick_8">
     <g id="line2d_18">
      <g>
       <use xlink:href="#m9fd06a7b73" x="145.8" y="52.749473" style="stroke: #000000; stroke-width: 0.8"/>
      </g>
     </g>
     <g id="text_18">
      <!-- 90 -->
      <g transform="translate(126.075 56.548692) scale(0.1 -0.1)">
       <use xlink:href="#DejaVuSans-39"/>
       <use xlink:href="#DejaVuSans-30" transform="translate(63.623047 0)"/>
      </g>
     </g>
    </g>
    <g id="ytick_9">
     <g id="line2d_19">
      <g>
       <use xlink:href="#m9fd06a7b73" x="145.8" y="30.53706" style="stroke: #000000; stroke-width: 0.8"/>
      </g>
     </g>
     <g id="text_19">
      <!-- 100 -->
      <g transform="translate(119.7125 34.336278) scale(0.1 -0.1)">
       <use xlink:href="#DejaVuSans-31"/>
       <use xlink:href="#DejaVuSans-30" transform="translate(63.623047 0)"/>
       <use xlink:href="#DejaVuSans-30" transform="translate(127.246094 0)"/>
      </g>
     </g>
    </g>
   </g>
   <g id="line2d_20">
    <path d="M 186.889091 189.814457 
L 188.375134 188.30517 
L 189.861177 199.101012 
L 194.319306 206.533439 
L 195.805349 212.171674 
L 197.291392 212.360514 
L 198.777435 212.068 
L 200.263479 196.094922 
L 204.721608 180.941816 
L 206.207651 182.6546 
L 207.693694 201.276912 
L 209.179737 184.474674 
L 210.66578 181.652827 
L 215.123909 184.051446 
L 216.609952 165.845714 
L 218.095995 150.356041 
L 219.582038 169.85025 
L 221.068082 152.421407 
L 225.526211 138.405875 
L 227.012254 139.032516 
L 228.498297 125.098662 
L 229.98434 138.737606 
L 235.928512 152.183942 
L 237.414555 158.267933 
L 238.900598 147.477954 
L 240.386641 158.844214 
L 241.872685 153.966396 
L 246.330814 163.014993 
L 247.816857 168.781541 
L 249.3029 189.047816 
L 250.788943 125.583599 
L 252.274986 123.394388 
L 256.733115 134.423808 
L 258.219158 142.794809 
L 259.705201 162.342638 
L 261.191244 159.491549 
L 262.677288 161.444327 
L 267.135417 153.584224 
L 268.62146 152.487627 
L 270.107503 140.842045 
L 271.593546 140.43013 
L 273.079589 138.33369 
L 277.537718 128.260437 
L 279.023761 133.060896 
L 280.509804 165.2626 
L 281.995847 155.005818 
L 283.481891 108.296021 
L 287.94002 101.334756 
L 289.426063 93.601246 
L 290.912106 88.275792 
L 292.398149 74.702073 
L 293.884192 82.703166 
L 298.342321 79.471259 
L 299.828364 80.859907 
L 301.314407 78.845377 
L 302.80045 75.756764 
L 304.286494 81.857029 
L 308.744623 61.050402 
L 310.230666 52.919045 
L 311.716709 66.795653 
L 313.202752 121.354747 
L 314.688795 98.599696 
L 320.632967 100.767874 
L 322.11901 100.898419 
L 323.605053 103.745594 
L 325.091096 90.865746 
L 329.549226 95.546053 
L 332.521312 101.632495 
L 334.007355 113.531187 
L 335.493398 104.007195 
L 339.951527 131.701618 
L 341.43757 96.016309 
L 342.923613 80.847893 
L 344.409656 60.955373 
L 345.895699 72.785404 
L 350.353829 68.435392 
L 351.839872 78.999734 
L 356.298001 105.905685 
L 360.75613 107.745495 
L 362.242173 106.741287 
L 363.728216 102.65125 
L 365.214259 97.147158 
L 366.700302 111.156435 
L 371.158432 91.563072 
L 372.644475 106.855881 
L 374.130518 116.349717 
L 377.102604 108.758334 
L 381.560733 99.715301 
L 383.046776 105.867755 
L 384.532819 88.713804 
L 386.018862 91.98868 
L 387.504905 78.900699 
L 391.963035 75.375557 
L 393.449078 75.900886 
L 394.935121 103.270643 
L 396.421164 118.817193 
L 397.907207 108.394446 
L 402.365336 121.58515 
L 403.851379 127.575817 
L 405.337422 149.422625 
L 406.823465 166.808164 
L 408.309508 170.431988 
L 412.767638 172.601481 
L 414.253681 188.386431 
L 415.739724 160.937332 
L 417.225767 183.505434 
L 418.71181 195.571162 
L 423.169939 212.380783 
L 424.655982 208.039984 
L 426.142025 188.396353 
L 427.628068 174.229473 
L 429.114111 163.023269 
L 433.572241 161.415092 
L 435.058284 132.822182 
L 436.544327 128.199328 
L 438.03037 121.970143 
L 439.516413 119.61197 
L 443.974542 121.375481 
L 445.460585 127.780828 
L 446.946628 114.561852 
L 448.432671 125.717368 
L 449.918714 65.999849 
L 454.376844 49.963346 
L 455.862887 51.447711 
L 457.34893 69.861659 
L 458.834973 69.167771 
L 460.321016 79.184815 
L 466.265188 134.324395 
L 467.751231 145.56397 
L 469.237274 152.9477 
L 470.723317 166.711634 
L 475.181447 165.583761 
L 476.66749 172.184113 
L 478.153533 157.773978 
L 479.639576 149.770745 
L 481.125619 163.628744 
L 485.583748 185.110241 
L 487.069791 187.258889 
L 488.555834 163.287912 
L 490.041877 144.553937 
L 491.52792 144.177519 
L 495.98605 127.883266 
L 497.472093 116.577602 
L 498.958136 126.00122 
L 500.444179 115.023593 
L 501.930222 114.483973 
L 506.388351 97.671904 
L 507.874394 130.894038 
L 509.360437 129.656056 
L 510.84648 132.365787 
L 512.332523 106.413786 
L 516.790653 127.171513 
L 518.276696 126.712673 
L 519.762739 139.377206 
L 521.248782 138.799253 
L 522.734825 137.973102 
L 527.192954 129.451179 
L 528.678997 119.434103 
L 530.16504 129.278161 
L 531.651083 129.021661 
L 533.137126 135.452852 
L 537.595256 104.602333 
L 539.081299 108.942175 
L 540.567342 125.387292 
L 542.053385 129.258888 
L 543.539428 105.202597 
L 547.997557 110.8627 
L 549.4836 122.542767 
L 550.969643 137.261364 
L 552.455686 147.703122 
L 553.941729 173.631109 
L 558.399859 189.5209 
L 559.885902 176.106605 
L 561.371945 180.145832 
L 562.857988 170.319407 
L 564.344031 178.540852 
L 568.80216 183.764326 
L 570.288203 169.643447 
L 571.774246 164.182502 
L 573.260289 153.319976 
L 574.746332 172.733532 
L 579.204462 160.435202 
L 580.690505 147.707468 
L 582.176548 126.785621 
L 583.662591 112.713203 
L 585.148634 102.402738 
L 589.606763 97.826642 
L 591.092806 87.81042 
L 592.578849 101.562802 
L 595.550935 92.569288 
L 600.009065 67.493524 
L 601.495108 63.157375 
L 602.981151 63.834034 
L 604.467194 68.381312 
L 605.953237 39.782662 
L 610.411366 39.378307 
L 611.897409 39.06 
L 613.383452 51.960235 
L 614.869495 46.319075 
L 616.355538 47.186057 
L 620.813668 47.256129 
L 622.299711 47.062967 
L 623.785754 87.510996 
L 625.271797 88.941856 
L 626.75784 83.979838 
L 631.215969 88.588379 
L 632.702012 83.445601 
L 635.674098 82.043054 
L 637.160141 98.727681 
L 641.618271 122.980566 
L 643.104314 132.752874 
L 646.0764 149.202934 
L 647.562443 155.193764 
L 652.020572 150.501177 
L 653.506615 166.789908 
L 654.992658 173.974871 
L 657.964744 174.858494 
L 662.422874 186.44959 
L 663.908917 209.819215 
L 665.39496 192.003212 
L 666.881003 215.46 
L 668.367046 211.835428 
L 674.311218 215.038924 
L 675.797261 207.75155 
L 677.283304 206.180371 
L 678.769347 199.622588 
L 683.227477 173.55447 
L 684.71352 155.543976 
L 686.199563 147.687368 
L 687.685606 152.252908 
L 689.171649 143.525305 
L 693.629778 154.608979 
L 695.115821 142.51479 
L 696.601864 152.713521 
L 698.087907 129.384756 
L 699.57395 146.928842 
L 704.03208 127.65606 
L 707.004166 111.540113 
L 708.490209 102.165185 
L 709.976252 107.957165 
L 715.920424 124.167847 
L 717.406467 125.781998 
L 718.89251 117.83353 
L 720.378553 113.242375 
L 724.836683 74.448132 
L 726.322726 82.547003 
L 727.808769 114.685964 
L 729.294812 128.193562 
L 730.780855 95.556769 
L 735.238984 111.593299 
L 736.725027 131.258352 
L 738.21107 145.584479 
L 739.697113 166.877579 
L 741.183156 163.604617 
L 745.641286 189.527627 
L 747.127329 200.113064 
L 748.613372 207.650262 
L 750.099415 213.340457 
L 751.585458 206.19153 
L 756.043587 204.605502 
L 757.52963 199.724489 
L 759.015673 188.391132 
L 760.501716 204.525223 
L 761.987759 186.096036 
L 766.445889 175.579493 
L 767.931932 166.958765 
L 769.417975 169.814496 
L 770.904018 173.553096 
L 772.390061 164.112341 
L 776.84819 138.404705 
L 778.334233 125.197334 
L 779.820276 97.080375 
L 781.306319 163.45507 
L 782.792362 184.297339 
L 787.250492 189.605588 
L 788.736535 201.996344 
L 790.222578 157.879979 
L 791.708621 170.162028 
L 793.194664 163.682453 
L 797.652793 162.11821 
L 799.138836 160.644779 
L 800.624879 169.294424 
L 802.110922 161.736225 
L 808.055095 169.584431 
L 809.541138 163.214236 
L 811.027181 158.786327 
L 812.513224 136.258426 
L 813.999267 116.858185 
L 818.457396 105.304013 
L 819.943439 87.606188 
L 821.429482 113.859024 
L 822.915525 87.531954 
L 824.401568 124.68611 
L 828.859698 149.765126 
L 830.345741 149.765158 
L 831.831784 136.573948 
L 833.317827 140.259758 
L 834.80387 126.504108 
L 839.261999 113.931814 
L 840.748042 119.232511 
L 842.234085 129.706023 
L 843.720128 134.726994 
L 845.206171 137.608621 
L 849.664301 147.542201 
L 851.150344 156.167979 
L 852.636387 168.731536 
L 854.12243 152.591794 
L 855.608473 151.620074 
L 861.552645 136.390689 
L 863.038688 129.229048 
L 864.524731 133.85292 
L 866.010774 134.221683 
L 870.468904 178.756113 
L 871.954947 181.932223 
L 873.44099 181.531083 
L 874.927033 184.887737 
L 876.413076 168.015105 
L 880.871205 167.987651 
L 882.357248 157.033678 
L 883.843291 154.158604 
L 885.329334 149.882765 
L 886.815377 136.483903 
L 891.273506 150.376276 
L 892.75955 162.648977 
L 894.245593 156.168204 
L 897.217679 141.028814 
L 901.675808 142.36877 
L 903.161851 153.177018 
L 904.647894 146.375191 
L 906.133937 140.114071 
L 907.61998 154.494286 
L 912.078109 125.757505 
L 913.564153 120.807808 
L 915.050196 87.877244 
L 916.536239 86.509631 
L 922.480411 91.252075 
L 923.966454 95.413022 
L 925.452497 75.944669 
L 926.93854 75.380291 
L 928.424583 93.336125 
L 932.882712 110.491332 
L 934.368756 102.001578 
L 935.854799 102.614131 
L 937.340842 99.997028 
L 938.826885 97.015471 
L 943.285014 105.306677 
L 944.771057 107.828935 
L 946.2571 130.602331 
L 947.743143 140.189984 
L 949.229186 108.204064 
L 953.687315 107.55584 
L 955.173359 140.625563 
L 956.659402 165.247215 
L 958.145445 166.502987 
L 959.631488 178.738683 
L 964.089617 175.022107 
L 965.57566 185.016482 
L 967.061703 129.104204 
L 970.033789 97.35791 
L 974.491918 107.401434 
L 975.977962 102.321516 
L 977.464005 95.570478 
L 978.950048 97.523332 
L 980.436091 101.502391 
L 984.89422 94.848176 
L 986.380263 88.271384 
L 987.866306 98.712375 
L 989.352349 84.550587 
L 990.838392 82.338683 
L 995.296521 82.965057 
L 998.268608 105.102293 
L 999.754651 126.396624 
L 1001.240694 118.511594 
L 1007.184866 141.272579 
L 1008.670909 121.832537 
L 1008.670909 121.832537 
" clip-path="url(#pb68d04edcf)" style="fill: none; stroke: #1f77b4; stroke-width: 1.5; stroke-linecap: square"/>
   </g>
   <g id="patch_3">
    <path d="M 145.8 224.28 
L 145.8 30.24 
" style="fill: none; stroke: #000000; stroke-width: 0.8; stroke-linejoin: miter; stroke-linecap: square"/>
   </g>
   <g id="patch_4">
    <path d="M 145.8 224.28 
L 1049.76 224.28 
" style="fill: none; stroke: #000000; stroke-width: 0.8; stroke-linejoin: miter; stroke-linecap: square"/>
   </g>
  </g>
 </g>
 <defs>
  <clipPath id="pb68d04edcf">
   <rect x="145.8" y="30.24" width="903.96" height="194.04"/>
  </clipPath>
 </defs>
</svg>
