<?xml version="1.0" encoding="utf-8" standalone="no"?>
<!DOCTYPE svg PUBLIC "-//W3C//DTD SVG 1.1//EN"
  "http://www.w3.org/Graphics/SVG/1.1/DTD/svg11.dtd">
<svg xmlns:xlink="http://www.w3.org/1999/xlink" width="1166.4pt" height="252pt" viewBox="0 0 1166.4 252" xmlns="http://www.w3.org/2000/svg" version="1.1">
 <metadata>
  <rdf:RDF xmlns:dc="http://purl.org/dc/elements/1.1/" xmlns:cc="http://creativecommons.org/ns#" xmlns:rdf="http://www.w3.org/1999/02/22-rdf-syntax-ns#">
   <cc:Work>
    <dc:type rdf:resource="http://purl.org/dc/dcmitype/StillImage"/>
    <dc:date>2025-09-06T23:30:03.855039</dc:date>
    <dc:format>image/svg+xml</dc:format>
    <dc:creator>
     <cc:Agent>
      <dc:title>Matplotlib v3.10.5, https://matplotlib.org/</dc:title>
     </cc:Agent>
    </dc:creator>
   </cc:Work>
  </rdf:RDF>
 </metadata>
 <defs>
  <style type="text/css">*{stroke-linejoin: round; stroke-linecap: butt}</style>
 </defs>
 <g id="figure_1">
  <g id="patch_1">
   <path d="M 0 252 
L 1166.4 252 
L 1166.4 0 
L 0 0 
z
" style="fill: #ffffff"/>
  </g>
  <g id="axes_1">
   <g id="patch_2">
    <path d="M 145.8 224.28 
L 1049.76 224.28 
L 1049.76 30.24 
L 145.8 30.24 
z
" style="fill: #ffffff"/>
   </g>
   <g id="matplotlib.axis_1">
    <g id="xtick_1">
     <g id="line2d_1">
      <defs>
       <path id="me8315c5727" d="M 0 0 
L 0 3.5 
" style="stroke: #000000; stroke-width: 0.8"/>
      </defs>
      <g>
       <use xlink:href="#me8315c5727" x="178.474943" y="224.28" style="stroke: #000000; stroke-width: 0.8"/>
      </g>
     </g>
     <g id="text_1">
      <!-- 2020 -->
      <g transform="translate(165.749943 238.878438) scale(0.1 -0.1)">
       <defs>
        <path id="DejaVuSans-32" d="M 1228 531 
L 3431 531 
L 3431 0 
L 469 0 
L 469 531 
Q 828 903 1448 1529 
Q 2069 2156 2228 2338 
Q 2531 2678 2651 2914 
Q 2772 3150 2772 3378 
Q 2772 3750 2511 3984 
Q 2250 4219 1831 4219 
Q 1534 4219 1204 4116 
Q 875 4013 500 3803 
L 500 4441 
Q 881 4594 1212 4672 
Q 1544 4750 1819 4750 
Q 2544 4750 2975 4387 
Q 3406 4025 3406 3419 
Q 3406 3131 3298 2873 
Q 3191 2616 2906 2266 
Q 2828 2175 2409 1742 
Q 1991 1309 1228 531 
z
" transform="scale(0.015625)"/>
        <path id="DejaVuSans-30" d="M 2034 4250 
Q 1547 4250 1301 3770 
Q 1056 3291 1056 2328 
Q 1056 1369 1301 889 
Q 1547 409 2034 409 
Q 2525 409 2770 889 
Q 3016 1369 3016 2328 
Q 3016 3291 2770 3770 
Q 2525 4250 2034 4250 
z
M 2034 4750 
Q 2819 4750 3233 4129 
Q 3647 3509 3647 2328 
Q 3647 1150 3233 529 
Q 2819 -91 2034 -91 
Q 1250 -91 836 529 
Q 422 1150 422 2328 
Q 422 3509 836 4129 
Q 1250 4750 2034 4750 
z
" transform="scale(0.015625)"/>
       </defs>
       <use xlink:href="#DejaVuSans-32"/>
       <use xlink:href="#DejaVuSans-30" transform="translate(63.623047 0)"/>
       <use xlink:href="#DejaVuSans-32" transform="translate(127.246094 0)"/>
       <use xlink:href="#DejaVuSans-30" transform="translate(190.869141 0)"/>
      </g>
     </g>
    </g>
    <g id="xtick_2">
     <g id="line2d_2">
      <g>
       <use xlink:href="#me8315c5727" x="325.121527" y="224.28" style="stroke: #000000; stroke-width: 0.8"/>
      </g>
     </g>
     <g id="text_2">
      <!-- 2021 -->
      <g transform="translate(312.396527 238.878438) scale(0.1 -0.1)">
       <defs>
        <path id="DejaVuSans-31" d="M 794 531 
L 1825 531 
L 1825 4091 
L 703 3866 
L 703 4441 
L 1819 4666 
L 2450 4666 
L 2450 531 
L 3481 531 
L 3481 0 
L 794 0 
L 794 531 
z
" transform="scale(0.015625)"/>
       </defs>
       <use xlink:href="#DejaVuSans-32"/>
       <use xlink:href="#DejaVuSans-30" transform="translate(63.623047 0)"/>
       <use xlink:href="#DejaVuSans-32" transform="translate(127.246094 0)"/>
       <use xlink:href="#DejaVuSans-31" transform="translate(190.869141 0)"/>
      </g>
     </g>
    </g>
    <g id="xtick_3">
     <g id="line2d_3">
      <g>
       <use xlink:href="#me8315c5727" x="471.367439" y="224.28" style="stroke: #000000; stroke-width: 0.8"/>
      </g>
     </g>
     <g id="text_3">
      <!-- 2022 -->
      <g transform="translate(458.642439 238.878438) scale(0.1 -0.1)">
       <use xlink:href="#DejaVuSans-32"/>
       <use xlink:href="#DejaVuSans-30" transform="translate(63.623047 0)"/>
       <use xlink:href="#DejaVuSans-32" transform="translate(127.246094 0)"/>
       <use xlink:href="#DejaVuSans-32" transform="translate(190.869141 0)"/>
      </g>
     </g>
    </g>
    <g id="xtick_4">
     <g id="line2d_4">
      <g>
       <use xlink:href="#me8315c5727" x="617.61335" y="224.28" style="stroke: #000000; stroke-width: 0.8"/>
      </g>
     </g>
     <g id="text_4">
      <!-- 2023 -->
      <g transform="translate(604.88835 238.878438) scale(0.1 -0.1)">
       <defs>
        <path id="DejaVuSans-33" d="M 2597 2516 
Q 3050 2419 3304 2112 
Q 3559 1806 3559 1356 
Q 3559 666 3084 287 
Q 2609 -91 1734 -91 
Q 1441 -91 1130 -33 
Q 819 25 488 141 
L 488 750 
Q 750 597 1062 519 
Q 1375 441 1716 441 
Q 2309 441 2620 675 
Q 2931 909 2931 1356 
Q 2931 1769 2642 2001 
Q 2353 2234 1838 2234 
L 1294 2234 
L 1294 2753 
L 1863 2753 
Q 2328 2753 2575 2939 
Q 2822 3125 2822 3475 
Q 2822 3834 2567 4026 
Q 2313 4219 1838 4219 
Q 1578 4219 1281 4162 
Q 984 4106 628 3988 
L 628 4550 
Q 988 4650 1302 4700 
Q 1616 4750 1894 4750 
Q 2613 4750 3031 4423 
Q 3450 4097 3450 3541 
Q 3450 3153 3228 2886 
Q 3006 2619 2597 2516 
z
" transform="scale(0.015625)"/>
       </defs>
       <use xlink:href="#DejaVuSans-32"/>
       <use xlink:href="#DejaVuSans-30" transform="translate(63.623047 0)"/>
       <use xlink:href="#DejaVuSans-32" transform="translate(127.246094 0)"/>
       <use xlink:href="#DejaVuSans-33" transform="translate(190.869141 0)"/>
      </g>
     </g>
    </g>
    <g id="xtick_5">
     <g id="line2d_5">
      <g>
       <use xlink:href="#me8315c5727" x="763.859261" y="224.28" style="stroke: #000000; stroke-width: 0.8"/>
      </g>
     </g>
     <g id="text_5">
      <!-- 2024 -->
      <g transform="translate(751.134261 238.878438) scale(0.1 -0.1)">
       <defs>
        <path id="DejaVuSans-34" d="M 2419 4116 
L 825 1625 
L 2419 1625 
L 2419 4116 
z
M 2253 4666 
L 3047 4666 
L 3047 1625 
L 3713 1625 
L 3713 1100 
L 3047 1100 
L 3047 0 
L 2419 0 
L 2419 1100 
L 313 1100 
L 313 1709 
L 2253 4666 
z
" transform="scale(0.015625)"/>
       </defs>
       <use xlink:href="#DejaVuSans-32"/>
       <use xlink:href="#DejaVuSans-30" transform="translate(63.623047 0)"/>
       <use xlink:href="#DejaVuSans-32" transform="translate(127.246094 0)"/>
       <use xlink:href="#DejaVuSans-34" transform="translate(190.869141 0)"/>
      </g>
     </g>
    </g>
    <g id="xtick_6">
     <g id="line2d_6">
      <g>
       <use xlink:href="#me8315c5727" x="910.505845" y="224.28" style="stroke: #000000; stroke-width: 0.8"/>
      </g>
     </g>
     <g id="text_6">
      <!-- 2025 -->
      <g transform="translate(897.780845 238.878438) scale(0.1 -0.1)">
       <defs>
        <path id="DejaVuSans-35" d="M 691 4666 
L 3169 4666 
L 3169 4134 
L 1269 4134 
L 1269 2991 
Q 1406 3038 1543 3061 
Q 1681 3084 1819 3084 
Q 2600 3084 3056 2656 
Q 3513 2228 3513 1497 
Q 3513 744 3044 326 
Q 2575 -91 1722 -91 
Q 1428 -91 1123 -41 
Q 819 9 494 109 
L 494 744 
Q 775 591 1075 516 
Q 1375 441 1709 441 
Q 2250 441 2565 725 
Q 2881 1009 2881 1497 
Q 2881 1984 2565 2268 
Q 2250 2553 1709 2553 
Q 1456 2553 1204 2497 
Q 953 2441 691 2322 
L 691 4666 
z
" transform="scale(0.015625)"/>
       </defs>
       <use xlink:href="#DejaVuSans-32"/>
       <use xlink:href="#DejaVuSans-30" transform="translate(63.623047 0)"/>
       <use xlink:href="#DejaVuSans-32" transform="translate(127.246094 0)"/>
       <use xlink:href="#DejaVuSans-35" transform="translate(190.869141 0)"/>
      </g>
     </g>
    </g>
   </g>
   <g id="matplotlib.axis_2">
    <g id="ytick_1">
     <g id="line2d_7">
      <defs>
       <path id="m4227d5199e" d="M 0 0 
L -3.5 0 
" style="stroke: #000000; stroke-width: 0.8"/>
      </defs>
      <g>
       <use xlink:href="#m4227d5199e" x="145.8" y="221.492755" style="stroke: #000000; stroke-width: 0.8"/>
      </g>
     </g>
     <g id="text_7">
      <!-- 0 -->
      <g transform="translate(132.4375 225.291974) scale(0.1 -0.1)">
       <use xlink:href="#DejaVuSans-30"/>
      </g>
     </g>
    </g>
    <g id="ytick_2">
     <g id="line2d_8">
      <g>
       <use xlink:href="#m4227d5199e" x="145.8" y="183.550348" style="stroke: #000000; stroke-width: 0.8"/>
      </g>
     </g>
     <g id="text_8">
      <!-- 20 -->
      <g transform="translate(126.075 187.349566) scale(0.1 -0.1)">
       <use xlink:href="#DejaVuSans-32"/>
       <use xlink:href="#DejaVuSans-30" transform="translate(63.623047 0)"/>
      </g>
     </g>
    </g>
    <g id="ytick_3">
     <g id="line2d_9">
      <g>
       <use xlink:href="#m4227d5199e" x="145.8" y="145.60794" style="stroke: #000000; stroke-width: 0.8"/>
      </g>
     </g>
     <g id="text_9">
      <!-- 40 -->
      <g transform="translate(126.075 149.407159) scale(0.1 -0.1)">
       <use xlink:href="#DejaVuSans-34"/>
       <use xlink:href="#DejaVuSans-30" transform="translate(63.623047 0)"/>
      </g>
     </g>
    </g>
    <g id="ytick_4">
     <g id="line2d_10">
      <g>
       <use xlink:href="#m4227d5199e" x="145.8" y="107.665533" style="stroke: #000000; stroke-width: 0.8"/>
      </g>
     </g>
     <g id="text_10">
      <!-- 60 -->
      <g transform="translate(126.075 111.464751) scale(0.1 -0.1)">
       <defs>
        <path id="DejaVuSans-36" d="M 2113 2584 
Q 1688 2584 1439 2293 
Q 1191 2003 1191 1497 
Q 1191 994 1439 701 
Q 1688 409 2113 409 
Q 2538 409 2786 701 
Q 3034 994 3034 1497 
Q 3034 2003 2786 2293 
Q 2538 2584 2113 2584 
z
M 3366 4563 
L 3366 3988 
Q 3128 4100 2886 4159 
Q 2644 4219 2406 4219 
Q 1781 4219 1451 3797 
Q 1122 3375 1075 2522 
Q 1259 2794 1537 2939 
Q 1816 3084 2150 3084 
Q 2853 3084 3261 2657 
Q 3669 2231 3669 1497 
Q 3669 778 3244 343 
Q 2819 -91 2113 -91 
Q 1303 -91 875 529 
Q 447 1150 447 2328 
Q 447 3434 972 4092 
Q 1497 4750 2381 4750 
Q 2619 4750 2861 4703 
Q 3103 4656 3366 4563 
z
" transform="scale(0.015625)"/>
       </defs>
       <use xlink:href="#DejaVuSans-36"/>
       <use xlink:href="#DejaVuSans-30" transform="translate(63.623047 0)"/>
      </g>
     </g>
    </g>
    <g id="ytick_5">
     <g id="line2d_11">
      <g>
       <use xlink:href="#m4227d5199e" x="145.8" y="69.723125" style="stroke: #000000; stroke-width: 0.8"/>
      </g>
     </g>
     <g id="text_11">
      <!-- 80 -->
      <g transform="translate(126.075 73.522344) scale(0.1 -0.1)">
       <defs>
        <path id="DejaVuSans-38" d="M 2034 2216 
Q 1584 2216 1326 1975 
Q 1069 1734 1069 1313 
Q 1069 891 1326 650 
Q 1584 409 2034 409 
Q 2484 409 2743 651 
Q 3003 894 3003 1313 
Q 3003 1734 2745 1975 
Q 2488 2216 2034 2216 
z
M 1403 2484 
Q 997 2584 770 2862 
Q 544 3141 544 3541 
Q 544 4100 942 4425 
Q 1341 4750 2034 4750 
Q 2731 4750 3128 4425 
Q 3525 4100 3525 3541 
Q 3525 3141 3298 2862 
Q 3072 2584 2669 2484 
Q 3125 2378 3379 2068 
Q 3634 1759 3634 1313 
Q 3634 634 3220 271 
Q 2806 -91 2034 -91 
Q 1263 -91 848 271 
Q 434 634 434 1313 
Q 434 1759 690 2068 
Q 947 2378 1403 2484 
z
M 1172 3481 
Q 1172 3119 1398 2916 
Q 1625 2713 2034 2713 
Q 2441 2713 2670 2916 
Q 2900 3119 2900 3481 
Q 2900 3844 2670 4047 
Q 2441 4250 2034 4250 
Q 1625 4250 1398 4047 
Q 1172 3844 1172 3481 
z
" transform="scale(0.015625)"/>
       </defs>
       <use xlink:href="#DejaVuSans-38"/>
       <use xlink:href="#DejaVuSans-30" transform="translate(63.623047 0)"/>
      </g>
     </g>
    </g>
    <g id="ytick_6">
     <g id="line2d_12">
      <g>
       <use xlink:href="#m4227d5199e" x="145.8" y="31.780717" style="stroke: #000000; stroke-width: 0.8"/>
      </g>
     </g>
     <g id="text_12">
      <!-- 100 -->
      <g transform="translate(119.7125 35.579936) scale(0.1 -0.1)">
       <use xlink:href="#DejaVuSans-31"/>
       <use xlink:href="#DejaVuSans-30" transform="translate(63.623047 0)"/>
       <use xlink:href="#DejaVuSans-30" transform="translate(127.246094 0)"/>
      </g>
     </g>
    </g>
   </g>
   <g id="line2d_13">
    <path d="M 186.889091 87.046658 
L 187.289765 85.084911 
L 187.690438 78.44721 
L 188.89246 108.588622 
L 189.293133 93.603078 
L 189.693807 91.60605 
L 190.094481 100.306472 
L 190.495154 127.834322 
L 191.697176 139.940287 
L 192.097849 117.645122 
L 192.498523 112.183074 
L 192.899197 112.352977 
L 193.299871 123.727018 
L 194.501892 118.445177 
L 194.902565 122.876845 
L 195.303239 115.332828 
L 195.703913 117.341636 
L 196.104587 102.361194 
L 197.707282 123.512378 
L 198.107955 126.561698 
L 198.508629 130.827671 
L 198.909303 119.44638 
L 200.111324 139.774222 
L 200.511998 167.121567 
L 200.912671 163.422418 
L 201.313345 181.723918 
L 201.714019 179.698082 
L 202.91604 146.728192 
L 203.316714 151.640443 
L 203.717388 145.853043 
L 204.118061 150.271081 
L 204.518735 152.441225 
L 205.720756 160.280493 
L 206.12143 148.8452 
L 206.522104 151.659831 
L 206.922777 158.990772 
L 207.323451 135.992248 
L 208.525472 145.507501 
L 208.926146 142.585641 
L 209.32682 138.021472 
L 209.727493 138.661977 
L 210.128167 157.254869 
L 211.330188 155.847721 
L 211.730862 150.721546 
L 212.131536 147.891247 
L 212.53221 139.791966 
L 212.932883 135.024983 
L 214.134904 141.388679 
L 214.535578 137.364636 
L 214.936252 130.647961 
L 215.336926 147.901836 
L 215.737599 127.295852 
L 217.340294 116.748096 
L 217.740968 110.754113 
L 218.141642 94.260499 
L 219.744337 85.936506 
L 220.14501 90.419935 
L 220.545684 91.971067 
L 220.946358 98.667889 
L 221.347032 89.269866 
L 222.549053 102.739116 
L 222.949727 112.701302 
L 223.3504 89.626224 
L 223.751074 93.909054 
L 224.151748 83.62759 
L 225.353769 98.903412 
L 225.754443 101.529946 
L 226.155116 99.191091 
L 226.55579 95.650498 
L 226.956464 107.515697 
L 228.158485 118.209058 
L 228.559159 108.983152 
L 228.959832 108.106937 
L 229.360506 98.494482 
L 229.76118 81.753867 
L 230.963201 60.651972 
L 231.363875 73.180834 
L 232.165222 83.882335 
L 232.565896 88.093181 
L 233.767917 72.404364 
L 234.168591 83.542981 
L 234.569265 83.510289 
L 234.969938 77.682918 
L 235.370612 79.438809 
L 237.373981 91.50786 
L 237.774654 95.317631 
L 238.175328 107.895894 
L 239.377349 109.810417 
L 240.178697 78.562123 
L 240.579371 92.372781 
L 240.980044 73.825267 
L 242.182066 79.766057 
L 242.582739 63.228133 
L 242.983413 61.453488 
L 243.384087 98.166492 
L 243.78476 97.278955 
L 244.986782 89.100303 
L 245.387455 83.133882 
L 245.788129 84.141576 
L 246.188803 83.469356 
L 246.589477 90.097224 
L 247.791498 84.514045 
L 248.192171 80.904015 
L 248.592845 86.664835 
L 248.993519 89.500685 
L 249.394193 106.371364 
L 250.596214 108.300351 
L 250.996888 113.475704 
L 251.397561 88.382214 
L 251.798235 90.830362 
L 253.40093 86.3162 
L 253.801604 96.406379 
L 254.202277 87.866007 
L 254.602951 86.734685 
L 255.003625 82.52102 
L 256.205646 93.341619 
L 256.60632 94.624383 
L 257.006993 78.283723 
L 257.407667 93.335945 
L 257.808341 66.655714 
L 259.010362 66.676643 
L 259.411036 84.70311 
L 259.81171 81.827501 
L 260.212383 116.867363 
L 260.613057 131.842639 
L 261.815078 117.682943 
L 262.215752 138.483194 
L 262.616426 130.368126 
L 263.017099 125.295484 
L 263.417773 91.027444 
L 264.619794 88.84693 
L 265.020468 88.732324 
L 265.821816 75.686349 
L 266.222489 89.710471 
L 267.42451 81.58237 
L 267.825184 94.782386 
L 268.225858 72.728122 
L 268.626532 69.637142 
L 269.027205 72.415372 
L 270.229227 66.946647 
L 271.030574 68.93706 
L 271.431248 80.111622 
L 271.831921 74.268675 
L 273.033943 73.156028 
L 273.434616 78.864489 
L 273.83529 82.51161 
L 274.235964 76.886214 
L 274.636638 80.957485 
L 275.838659 54.795923 
L 276.239332 53.534997 
L 276.640006 71.603328 
L 277.04068 111.985514 
L 277.441354 110.964078 
L 279.044049 132.337535 
L 279.444722 123.576901 
L 279.845396 135.493049 
L 280.24607 151.792118 
L 281.448091 147.1602 
L 281.848765 145.114323 
L 282.249438 154.28523 
L 282.650112 154.660874 
L 283.050786 158.822651 
L 284.252807 161.24917 
L 284.653481 170.342697 
L 285.054155 172.278793 
L 285.454828 155.897808 
L 285.855502 144.925299 
L 287.057523 121.505472 
L 287.458197 135.164056 
L 287.858871 120.129789 
L 288.259544 112.996356 
L 288.660218 133.219294 
L 289.862239 124.176963 
L 290.262913 123.992597 
L 291.06426 103.746284 
L 291.464934 106.496312 
L 292.666955 95.333004 
L 293.067629 90.562701 
L 293.468303 92.223325 
L 293.868977 101.780221 
L 294.26965 114.285382 
L 295.471671 121.26102 
L 295.872345 121.773782 
L 296.273019 126.40556 
L 296.673693 118.053519 
L 297.074366 131.691124 
L 298.276388 119.188625 
L 298.677061 120.553147 
L 299.077735 138.972265 
L 299.478409 131.667684 
L 299.879082 175.543892 
L 301.081104 170.066875 
L 301.481777 162.403201 
L 302.283125 126.609622 
L 302.683799 118.003447 
L 303.88582 129.491782 
L 304.286494 128.674477 
L 304.687167 115.937669 
L 305.087841 114.625745 
L 305.488515 114.529658 
L 306.690536 115.763333 
L 307.09121 99.730972 
L 307.491883 116.34043 
L 307.892557 81.522104 
L 309.495252 112.401747 
L 309.895926 124.731345 
L 310.296599 141.70477 
L 311.097947 137.690942 
L 312.299968 112.337624 
L 312.700642 96.759231 
L 313.101316 107.997885 
L 313.501989 107.121393 
L 313.902663 111.526577 
L 315.104684 109.618962 
L 315.505358 101.658813 
L 315.906032 109.018683 
L 316.707379 103.256978 
L 317.9094 84.163133 
L 318.310074 73.029871 
L 318.710748 75.143574 
L 319.111421 74.494023 
L 319.512095 93.232948 
L 320.714116 99.847573 
L 321.11479 90.025617 
L 321.515464 94.374381 
L 321.916138 88.059246 
L 323.518832 81.377198 
L 323.919506 91.488875 
L 324.32018 84.470769 
L 324.720854 92.721026 
L 326.323549 103.645255 
L 326.724222 97.306083 
L 327.124896 130.948378 
L 327.52557 117.534352 
L 327.926244 116.904203 
L 329.128265 120.102728 
L 329.929612 129.692664 
L 330.330286 132.753642 
L 330.73096 140.712186 
L 332.333655 156.104855 
L 333.135002 117.998326 
L 333.535676 109.713302 
L 334.737697 91.362666 
L 335.138371 93.67971 
L 335.539044 80.317222 
L 335.939718 108.52284 
L 336.340392 126.871761 
L 337.542413 112.818148 
L 337.943087 110.367409 
L 338.34376 118.382454 
L 338.744434 104.611053 
L 339.145108 100.143823 
L 340.347129 101.209233 
L 340.747803 113.97438 
L 341.148477 131.106034 
L 341.54915 140.719334 
L 341.949824 158.950804 
L 343.552519 166.056478 
L 343.953193 168.862371 
L 344.353866 159.209338 
L 344.75454 137.906846 
L 345.956561 169.363436 
L 346.357235 176.697128 
L 346.757909 175.22466 
L 347.158583 215.46 
L 347.559256 212.416982 
L 348.761277 163.417616 
L 349.963299 175.032675 
L 350.363972 170.092892 
L 351.565994 174.53426 
L 351.966667 152.53549 
L 352.367341 152.496835 
L 353.168688 140.273816 
L 354.37071 131.380826 
L 354.771383 126.094148 
L 355.172057 116.39305 
L 355.572731 128.418165 
L 355.973405 149.139113 
L 357.576099 125.186641 
L 357.976773 126.755574 
L 358.377447 129.165836 
L 358.778121 109.39988 
L 359.980142 125.351391 
L 360.380816 126.973751 
L 360.781489 125.845932 
L 361.182163 118.408342 
L 362.784858 118.637747 
L 363.185532 123.797143 
L 363.586205 113.256347 
L 363.986879 81.130035 
L 364.387553 72.007456 
L 365.589574 91.09415 
L 365.990248 78.211037 
L 366.390922 77.902789 
L 366.791595 74.298632 
L 367.192269 77.363381 
L 368.39429 76.467219 
L 368.794964 77.822704 
L 369.195638 81.419544 
L 369.596311 92.052167 
L 369.996985 93.358002 
L 371.199006 93.128061 
L 371.59968 99.552686 
L 372.401027 124.180789 
L 372.801701 125.526692 
L 374.003722 137.378559 
L 374.404396 147.527185 
L 374.80507 162.858909 
L 375.205744 149.851962 
L 375.606417 149.778711 
L 376.808438 155.731452 
L 377.609786 165.55152 
L 378.01046 166.639961 
L 378.411133 154.805865 
L 379.613155 157.115266 
L 380.013828 158.678753 
L 380.414502 158.828549 
L 380.815176 141.054369 
L 381.215849 151.153845 
L 382.417871 128.777444 
L 382.818544 130.590694 
L 383.619892 147.08464 
L 384.020566 137.165826 
L 385.62326 134.537398 
L 386.023934 114.014963 
L 386.424608 134.842586 
L 386.825282 135.659585 
L 388.027303 128.941197 
L 388.427977 114.399371 
L 388.82865 111.082292 
L 389.229324 135.207952 
L 389.629998 112.228138 
L 390.832019 103.898175 
L 391.232693 109.00402 
L 391.633366 106.0431 
L 392.03404 86.196986 
L 392.434714 91.802594 
L 394.037409 80.501785 
L 394.438083 70.278096 
L 394.838756 79.208973 
L 395.23943 82.024342 
L 396.441451 79.443748 
L 396.842125 76.251571 
L 397.242799 65.846029 
L 397.643472 67.826145 
L 398.044146 68.845485 
L 400.047515 53.95759 
L 400.448188 67.960477 
L 400.848862 53.689934 
L 402.050883 61.695847 
L 402.451557 62.630738 
L 402.852231 55.182322 
L 403.252905 58.207777 
L 403.653578 71.094713 
L 404.855599 97.476587 
L 405.256273 92.264453 
L 405.656947 97.225174 
L 406.057621 94.705398 
L 406.458294 96.842623 
L 407.660316 100.961219 
L 408.060989 118.427348 
L 408.461663 120.259114 
L 408.862337 124.598816 
L 409.263011 121.323628 
L 410.465032 127.121492 
L 410.865705 134.421725 
L 411.266379 133.371289 
L 411.667053 123.389367 
L 412.067727 103.932151 
L 413.269748 125.448549 
L 413.670422 123.443698 
L 414.071095 132.702311 
L 414.471769 122.458708 
L 414.872443 124.073235 
L 416.475138 80.938856 
L 416.875811 120.473812 
L 417.276485 119.741001 
L 417.677159 109.196978 
L 418.87918 110.79299 
L 419.279854 108.446633 
L 419.680527 117.747349 
L 420.081201 118.509648 
L 420.481875 112.914035 
L 421.683896 93.273032 
L 422.485244 109.519127 
L 422.885917 106.074889 
L 423.286591 111.262402 
L 424.889286 97.387783 
L 425.28996 82.558647 
L 425.690633 90.840855 
L 426.091307 123.439368 
L 427.293328 127.320429 
L 427.694002 132.681132 
L 428.094676 123.896184 
L 428.495349 121.392452 
L 428.896023 136.5599 
L 430.098044 168.84086 
L 430.498718 162.723409 
L 430.899392 153.158029 
L 431.300066 153.978731 
L 431.700739 156.941385 
L 432.902761 174.874483 
L 433.303434 178.504971 
L 434.505455 158.07324 
L 435.707477 163.833462 
L 436.508824 152.808121 
L 437.310172 126.822271 
L 438.512193 129.571273 
L 438.912866 148.395653 
L 439.31354 156.925517 
L 439.714214 140.709319 
L 440.114888 129.050076 
L 441.316909 103.569025 
L 441.717583 99.022759 
L 442.118256 88.965919 
L 442.51893 91.82366 
L 442.919604 69.627438 
L 444.121625 75.507877 
L 444.522299 76.175267 
L 444.922972 85.879074 
L 445.323646 70.259663 
L 445.72432 91.647668 
L 446.926341 88.417425 
L 447.327015 81.035832 
L 447.727688 84.904423 
L 448.128362 92.528806 
L 448.529036 97.00972 
L 449.731057 114.194693 
L 450.131731 114.938165 
L 450.532405 134.124718 
L 450.933078 130.15553 
L 451.333752 118.530958 
L 452.535773 121.816677 
L 452.936447 114.297077 
L 453.337121 120.251688 
L 453.737794 84.332479 
L 454.138468 71.804652 
L 455.340489 72.9919 
L 455.741163 75.359822 
L 456.141837 70.006145 
L 456.943184 104.171852 
L 458.145205 90.800657 
L 458.545879 81.763588 
L 458.946553 70.098791 
L 459.347227 75.071137 
L 459.7479 87.916663 
L 460.949922 81.922974 
L 461.350595 75.400281 
L 461.751269 73.813854 
L 462.151943 81.287164 
L 462.552616 78.339796 
L 464.155311 97.019914 
L 464.555985 90.698147 
L 464.956659 95.93219 
L 465.357333 103.872834 
L 466.559354 116.526241 
L 467.761375 96.076171 
L 469.36407 95.268855 
L 469.764744 107.67479 
L 470.165417 115.540919 
L 470.566091 117.409791 
L 470.966765 132.014459 
L 472.168786 109.087335 
L 472.56946 111.995241 
L 472.970133 138.644625 
L 473.370807 127.445858 
L 473.771481 123.32813 
L 474.973502 118.417746 
L 475.374176 119.50806 
L 475.77485 127.04424 
L 476.576197 154.029392 
L 478.178892 159.526149 
L 478.579566 167.069717 
L 478.980239 168.005929 
L 479.380913 170.398726 
L 480.582934 192.850776 
L 480.983608 192.3824 
L 481.384282 186.705487 
L 481.784955 182.759752 
L 482.185629 132.00049 
L 483.38765 119.991308 
L 483.788324 127.938439 
L 484.188998 125.797179 
L 484.589672 124.691863 
L 484.990345 127.919523 
L 486.192366 120.377363 
L 486.59304 99.731692 
L 486.993714 89.741069 
L 487.795061 107.357785 
L 488.997083 100.646224 
L 489.397756 93.230709 
L 489.79843 92.446866 
L 490.199104 130.520673 
L 490.599777 151.896124 
L 492.202472 158.40136 
L 492.603146 171.207005 
L 493.00382 155.365363 
L 493.404494 147.283941 
L 494.606515 144.786563 
L 495.007189 160.137579 
L 495.808536 144.65357 
L 496.20921 143.598611 
L 497.411231 153.192123 
L 497.811905 171.897387 
L 498.212578 150.958759 
L 498.613252 152.36212 
L 499.013926 156.142742 
L 500.215947 157.920461 
L 500.616621 137.948632 
L 501.017294 133.491467 
L 501.417968 136.075493 
L 501.818642 129.008222 
L 503.020663 122.049559 
L 503.421337 121.889764 
L 503.822011 118.468612 
L 504.623358 93.242248 
L 505.825379 86.408131 
L 506.226053 89.296004 
L 506.626727 77.852815 
L 507.0274 75.393829 
L 507.428074 58.520904 
L 508.630095 58.799345 
L 509.030769 80.096174 
L 509.431443 95.111813 
L 509.832116 101.407754 
L 510.23279 112.376616 
L 511.434811 135.672063 
L 511.835485 134.022509 
L 512.236159 137.642862 
L 512.636833 151.421735 
L 514.239528 154.828579 
L 514.640201 158.512722 
L 515.040875 156.588293 
L 515.441549 151.672833 
L 515.842222 160.222718 
L 517.444917 176.096164 
L 517.845591 171.842886 
L 518.246265 147.427714 
L 518.646939 154.258612 
L 519.84896 145.735392 
L 520.249633 146.895807 
L 520.650307 136.505437 
L 521.050981 144.114519 
L 521.451655 141.970185 
L 522.653676 155.511893 
L 523.05435 149.451177 
L 523.455023 158.234173 
L 523.855697 157.493851 
L 524.256371 150.457575 
L 525.458392 144.881882 
L 525.859066 137.71143 
L 526.259739 161.08519 
L 526.660413 158.542706 
L 527.061087 158.690678 
L 528.263108 150.70399 
L 528.663782 166.941727 
L 529.064455 156.585472 
L 529.465129 150.680276 
L 529.865803 130.895612 
L 531.468498 136.930272 
L 532.269845 107.524086 
L 532.670519 130.348609 
L 533.87254 125.325424 
L 534.273214 127.826088 
L 534.673888 107.06246 
L 535.074561 112.870312 
L 535.475235 127.682611 
L 536.677256 152.336009 
L 537.478604 138.107847 
L 538.279951 169.683969 
L 539.882646 155.017004 
L 540.28332 155.609725 
L 540.683994 154.431993 
L 541.084667 135.094586 
L 542.286689 137.011573 
L 542.687362 151.725447 
L 543.48871 140.386716 
L 543.889383 122.088468 
L 545.492078 100.342085 
L 545.892752 99.412451 
L 546.293426 97.990879 
L 546.6941 75.472349 
L 547.896121 87.366586 
L 548.296794 93.767726 
L 548.697468 93.099862 
L 549.098142 92.97177 
L 549.498816 96.794844 
L 550.700837 109.616163 
L 551.101511 83.560911 
L 551.502184 83.131014 
L 551.902858 67.553922 
L 552.303532 76.98145 
L 553.505553 87.306349 
L 553.906227 96.653257 
L 554.3069 92.745828 
L 554.707574 93.018154 
L 555.108248 74.477895 
L 556.310269 80.376341 
L 556.710943 85.176525 
L 557.111617 80.565298 
L 557.51229 84.22563 
L 557.912964 71.958116 
L 559.114985 79.975145 
L 559.515659 83.570818 
L 559.916333 79.93126 
L 560.317006 77.37446 
L 560.71768 66.637524 
L 561.919701 58.507814 
L 562.320375 65.006269 
L 562.721049 63.792078 
L 563.522396 84.737944 
L 564.724417 97.826024 
L 565.125091 120.279316 
L 565.525765 117.309011 
L 565.926439 106.549864 
L 566.327112 130.866782 
L 567.529133 137.748278 
L 567.929807 161.175458 
L 568.330481 163.109935 
L 568.731155 177.365173 
L 569.131828 186.585476 
L 570.734523 187.951482 
L 571.135197 188.444083 
L 571.535871 189.670989 
L 571.936544 171.51168 
L 573.138566 138.901174 
L 573.539239 157.412551 
L 573.939913 153.949163 
L 574.340587 165.70279 
L 574.741261 158.76931 
L 575.943282 143.131367 
L 576.343955 131.447772 
L 577.145303 138.608503 
L 577.545977 138.927909 
L 578.747998 135.425762 
L 579.549345 137.441375 
L 580.350693 181.996721 
L 581.953388 148.43917 
L 582.354061 141.766097 
L 582.754735 140.246712 
L 583.155409 162.285109 
L 584.35743 169.819827 
L 584.758104 167.210678 
L 585.158778 166.669766 
L 585.559451 145.99283 
L 585.960125 155.491765 
L 587.162146 146.899558 
L 587.56282 140.011876 
L 587.963494 122.994481 
L 588.364167 111.314452 
L 588.764841 112.240953 
L 589.966862 116.145858 
L 590.367536 109.500272 
L 590.76821 115.982302 
L 591.168883 113.538629 
L 591.569557 94.141202 
L 592.771578 96.817688 
L 593.172252 102.172403 
L 593.572926 122.663379 
L 593.9736 125.692698 
L 594.374273 134.392592 
L 595.576294 136.187651 
L 595.976968 135.122131 
L 596.377642 142.275782 
L 596.778316 126.890495 
L 597.178989 125.83711 
L 598.381011 132.912544 
L 599.182358 119.071473 
L 599.583032 136.893072 
L 599.983706 130.672308 
L 601.185727 131.933433 
L 601.987074 92.108308 
L 602.788422 101.563534 
L 603.990443 114.118408 
L 604.391117 122.92083 
L 604.79179 98.81004 
L 605.192464 122.515073 
L 605.593138 132.455578 
L 606.795159 131.756604 
L 607.195833 147.427416 
L 607.596506 149.031177 
L 607.99718 149.81228 
L 608.397854 152.920006 
L 609.599875 137.070877 
L 610.000549 141.137463 
L 610.801896 157.287414 
L 611.20257 153.702681 
L 612.404591 151.84007 
L 612.805265 183.305376 
L 613.205939 168.412328 
L 613.606612 172.9355 
L 614.007286 171.671206 
L 615.609981 168.448758 
L 616.010655 171.878574 
L 616.411328 164.006147 
L 616.812002 161.865793 
L 618.414697 178.585594 
L 619.216045 176.147024 
L 619.616718 146.569803 
L 620.818739 139.858326 
L 621.620087 123.153999 
L 622.020761 133.232096 
L 622.421434 117.900441 
L 624.024129 112.951664 
L 624.424803 108.558776 
L 624.825477 88.979821 
L 625.22615 91.470038 
L 626.428172 84.553689 
L 626.828845 50.525147 
L 627.229519 57.087709 
L 627.630193 44.601507 
L 628.030867 46.35134 
L 629.232888 70.38833 
L 629.633561 69.163575 
L 630.034235 72.080719 
L 630.434909 63.290201 
L 630.835583 60.70508 
L 632.037604 76.694278 
L 632.438278 69.334053 
L 632.838951 81.318187 
L 633.239625 89.605898 
L 633.640299 95.058484 
L 634.84232 92.229108 
L 635.643667 92.088985 
L 636.044341 102.518665 
L 636.445015 95.448108 
L 638.04771 113.761697 
L 638.448383 115.58853 
L 638.849057 130.834811 
L 639.249731 154.298158 
L 640.451752 140.577595 
L 640.852426 156.913242 
L 641.2531 155.017371 
L 641.653773 148.134936 
L 642.054447 126.562715 
L 643.256468 126.711046 
L 643.657142 132.224812 
L 644.057816 135.509232 
L 644.458489 137.61415 
L 644.859163 140.41112 
L 646.461858 113.934008 
L 646.862532 114.203902 
L 647.263206 95.178658 
L 647.663879 101.9463 
L 648.8659 94.061508 
L 649.266574 80.736452 
L 650.067922 97.478615 
L 650.468595 101.493127 
L 651.670617 100.190885 
L 652.07129 107.193662 
L 652.872638 71.070324 
L 653.273311 70.146111 
L 654.475333 71.540896 
L 654.876006 75.659695 
L 655.27668 93.334069 
L 655.677354 86.05622 
L 657.280049 107.382804 
L 657.680722 120.130557 
L 658.081396 116.579553 
L 658.48207 102.232534 
L 658.882744 107.665533 
L 660.084765 97.785807 
L 660.485439 90.974709 
L 660.886112 96.371063 
L 661.286786 107.157012 
L 661.68746 126.067016 
L 662.889481 130.82583 
L 663.290155 135.440818 
L 663.690828 126.636736 
L 664.492176 91.359839 
L 665.694197 83.724294 
L 666.094871 86.162467 
L 666.495545 115.002992 
L 666.896218 123.346416 
L 667.296892 94.320607 
L 668.498913 98.029489 
L 668.899587 110.191915 
L 669.700934 91.019848 
L 670.101608 96.931619 
L 671.303629 91.14979 
L 671.704303 91.092672 
L 672.104977 103.815787 
L 672.50565 99.853499 
L 672.906324 98.926521 
L 674.108345 98.37775 
L 674.509019 107.332315 
L 674.909693 96.788084 
L 675.310367 129.057128 
L 675.71104 113.532257 
L 677.313735 92.115975 
L 677.714409 100.21815 
L 678.515756 78.981343 
L 680.118451 88.842626 
L 680.519125 100.600805 
L 680.919799 99.19416 
L 681.320472 98.21915 
L 682.522494 83.788505 
L 682.923167 68.191253 
L 683.323841 67.516598 
L 683.724515 65.917789 
L 684.125189 79.23389 
L 685.727884 84.141881 
L 686.128557 91.684376 
L 686.529231 91.033632 
L 686.929905 96.221432 
L 688.131926 96.501156 
L 688.933273 72.776845 
L 689.333947 78.352453 
L 689.734621 69.793234 
L 690.936642 86.30338 
L 691.737989 90.479619 
L 692.138663 90.929504 
L 692.539337 104.432521 
L 693.741358 109.9133 
L 694.142032 113.00972 
L 694.542706 101.597451 
L 694.943379 109.626023 
L 695.344053 107.200012 
L 696.546074 88.093105 
L 696.946748 98.224958 
L 697.347422 97.599126 
L 697.748095 110.446226 
L 698.148769 137.608674 
L 699.35079 125.004175 
L 699.751464 113.543325 
L 700.152138 111.618376 
L 700.552811 112.579651 
L 700.953485 87.900309 
L 702.155506 81.957871 
L 702.55618 93.896646 
L 702.956854 116.547671 
L 703.357528 124.409345 
L 703.758201 169.884308 
L 705.360896 177.064142 
L 705.76157 176.501397 
L 706.162244 174.911494 
L 706.562917 178.931556 
L 707.764939 174.639044 
L 708.165612 182.32256 
L 708.566286 181.769317 
L 708.96696 199.276507 
L 709.367634 200.048105 
L 710.569655 191.459664 
L 710.970328 179.833462 
L 711.371002 158.241418 
L 711.771676 147.022197 
L 712.17235 126.632058 
L 713.374371 124.206641 
L 713.775045 104.967033 
L 714.175718 95.601952 
L 714.576392 95.266933 
L 714.977066 95.434034 
L 716.579761 86.050362 
L 716.980434 109.225443 
L 717.381108 117.588278 
L 717.781782 117.290485 
L 718.983803 117.680346 
L 719.384477 128.901591 
L 719.78515 144.280229 
L 720.185824 128.425457 
L 720.586498 137.163268 
L 721.788519 132.863315 
L 722.189193 142.094083 
L 722.589867 163.796884 
L 723.391214 170.603232 
L 724.593235 166.145641 
L 724.993909 161.224653 
L 725.394583 152.44085 
L 725.795256 154.120999 
L 726.19593 157.326636 
L 727.397951 136.441542 
L 727.798625 133.811359 
L 728.199299 134.975694 
L 728.599973 127.029026 
L 729.000646 128.549666 
L 730.202667 126.950309 
L 731.004015 100.210159 
L 731.404689 100.048108 
L 731.805362 114.522722 
L 733.007384 90.409492 
L 733.408057 90.704828 
L 733.808731 100.638541 
L 734.209405 105.02074 
L 734.610078 131.052089 
L 735.8121 123.37701 
L 736.212773 127.891105 
L 736.613447 147.020448 
L 737.014121 178.572703 
L 737.414795 179.872743 
L 738.616816 163.826246 
L 739.017489 170.050149 
L 739.418163 155.671048 
L 739.818837 131.746812 
L 740.219511 134.634705 
L 741.421532 118.917537 
L 741.822206 105.502543 
L 742.222879 101.036244 
L 743.024227 82.827556 
L 744.226248 90.793461 
L 744.626922 75.901098 
L 745.027595 52.587866 
L 745.428269 52.308727 
L 745.828943 54.094414 
L 747.030964 53.03376 
L 747.431638 61.35684 
L 747.832312 65.356789 
L 748.633659 68.339043 
L 749.83568 74.534372 
L 750.236354 79.314704 
L 750.637028 90.496425 
L 751.037701 85.037166 
L 751.438375 95.616383 
L 752.640396 97.377598 
L 753.04107 91.964664 
L 753.441744 102.431432 
L 753.842417 101.400967 
L 754.243091 95.869887 
L 755.445112 118.147268 
L 756.24646 98.762432 
L 756.647134 90.623343 
L 757.047807 92.784317 
L 758.249828 103.86625 
L 758.650502 95.266587 
L 759.051176 107.680954 
L 759.45185 112.620198 
L 759.852523 109.095687 
L 761.455218 128.473247 
L 761.855892 122.289401 
L 762.256566 130.581816 
L 762.657239 145.256725 
L 764.259934 161.423505 
L 764.660608 175.226206 
L 765.061282 204.670695 
L 765.461956 206.572596 
L 766.663977 174.243129 
L 767.064651 171.616967 
L 767.465324 171.616872 
L 767.865998 168.057744 
L 768.266672 165.574763 
L 770.27004 169.497572 
L 770.670714 141.523831 
L 771.071388 132.758404 
L 772.273409 122.677159 
L 772.674083 93.096116 
L 773.074756 89.626018 
L 773.47543 78.700894 
L 773.876104 84.461947 
L 775.078125 99.528893 
L 775.879473 132.822203 
L 776.280146 122.526588 
L 776.68082 126.85814 
L 777.882841 113.627477 
L 778.283515 105.843711 
L 779.084862 140.283875 
L 779.485536 148.353943 
L 781.088231 165.001666 
L 781.488905 166.358106 
L 781.889578 162.684667 
L 782.290252 164.910917 
L 783.892947 156.525061 
L 784.293621 136.974284 
L 784.694295 139.564602 
L 785.094968 143.533907 
L 786.296989 161.897079 
L 786.697663 163.046613 
L 787.098337 167.816539 
L 787.499011 166.527485 
L 787.899684 175.74801 
L 789.101706 182.095906 
L 789.502379 186.911416 
L 789.903053 187.072701 
L 790.303727 186.82287 
L 790.704401 173.180565 
L 791.906422 160.238583 
L 792.307095 161.70144 
L 792.707769 177.606406 
L 793.108443 163.255931 
L 793.509117 160.845844 
L 794.711138 162.894459 
L 795.512485 134.11585 
L 795.913159 150.765486 
L 796.313833 135.87984 
L 797.515854 123.909438 
L 797.916528 124.444641 
L 798.317201 112.543999 
L 798.717875 124.192764 
L 800.32057 135.677025 
L 800.721244 140.873248 
L 801.121917 131.65773 
L 801.522591 141.365438 
L 801.923265 137.199386 
L 803.125286 144.927622 
L 803.52596 149.852722 
L 803.926634 167.161765 
L 804.327307 112.958174 
L 804.727981 111.08841 
L 805.930002 120.50843 
L 806.330676 127.657944 
L 806.73135 144.353376 
L 807.132023 141.918315 
L 807.532697 143.586146 
L 808.734718 136.87298 
L 809.135392 135.936397 
L 809.536066 125.990126 
L 809.93674 125.638317 
L 810.337413 123.847786 
L 811.539434 115.244411 
L 811.940108 119.344393 
L 812.340782 146.847261 
L 812.741456 138.087137 
L 813.142129 98.193179 
L 814.344151 92.247695 
L 814.744824 85.64265 
L 815.145498 81.094279 
L 815.546172 69.501223 
L 815.946845 76.334805 
L 817.148867 73.574494 
L 817.54954 74.760512 
L 817.950214 73.03994 
L 818.350888 70.402014 
L 818.751562 75.612136 
L 820.354256 50.896749 
L 820.75493 62.748499 
L 821.155604 109.346391 
L 821.556278 89.911731 
L 823.158973 91.763531 
L 823.559646 91.875028 
L 823.96032 94.306746 
L 824.360994 83.30631 
L 825.563015 87.303673 
L 826.364362 92.501988 
L 826.765036 102.664437 
L 827.16571 94.530174 
L 828.367731 118.183459 
L 828.768405 87.705309 
L 829.169078 74.750252 
L 829.569752 57.760425 
L 829.970426 67.864231 
L 831.172447 64.148968 
L 832.374468 88.870986 
L 832.775142 96.151639 
L 833.977163 97.722986 
L 834.377837 96.865311 
L 834.778511 93.372087 
L 835.179184 88.671146 
L 835.579858 100.636205 
L 836.781879 83.901883 
L 837.182553 96.963183 
L 837.583227 105.07169 
L 838.384574 98.588032 
L 839.586595 90.864549 
L 839.987269 96.119244 
L 840.387943 81.468378 
L 840.788617 84.265387 
L 841.18929 73.08719 
L 842.391312 70.076432 
L 842.791985 70.525106 
L 843.192659 93.901099 
L 843.593333 107.179114 
L 843.994006 98.277243 
L 845.196028 109.543175 
L 845.596701 114.65969 
L 846.398049 148.167297 
L 846.798723 151.262337 
L 848.000744 153.115261 
L 848.401417 166.596889 
L 848.802091 143.153131 
L 849.202765 162.428121 
L 849.603439 172.733232 
L 850.80546 187.090012 
L 851.206134 183.382618 
L 851.606807 166.605363 
L 852.408155 144.934691 
L 853.610176 143.561177 
L 854.01085 119.140511 
L 854.411523 115.192219 
L 854.812197 109.87199 
L 855.212871 107.857918 
L 856.414892 109.3641 
L 856.815566 114.834786 
L 857.21624 103.544708 
L 857.616913 113.072424 
L 858.017587 62.068817 
L 859.219608 48.372342 
L 859.620282 49.64011 
L 860.020956 65.367116 
L 860.421629 64.77448 
L 860.822303 73.329848 
L 862.825672 130.023032 
L 863.226345 136.329337 
L 863.627019 148.084854 
L 864.82904 147.121558 
L 865.229714 152.758795 
L 865.630388 140.451369 
L 866.031062 133.615959 
L 866.431735 145.451815 
L 867.633756 163.798756 
L 868.03443 165.633876 
L 868.835778 129.160382 
L 869.236451 128.838891 
L 870.438473 114.922276 
L 870.839146 105.266322 
L 871.23982 113.314857 
L 871.640494 103.939073 
L 872.041168 103.478193 
L 873.243189 89.119322 
L 873.643862 117.49372 
L 874.044536 116.436383 
L 874.44521 118.750713 
L 874.845884 96.585599 
L 876.047905 114.314381 
L 876.448579 113.922495 
L 876.849252 124.739034 
L 877.249926 124.245415 
L 877.6506 123.539815 
L 878.852621 116.261401 
L 879.253295 107.706006 
L 879.653968 116.11363 
L 880.054642 115.894558 
L 880.455316 121.387317 
L 881.657337 95.03847 
L 882.058011 98.745048 
L 882.458684 112.790512 
L 882.859358 116.097169 
L 883.260032 95.551145 
L 884.462053 100.385332 
L 885.664074 131.850042 
L 886.064748 153.994647 
L 887.266769 167.565817 
L 887.667443 156.108921 
L 888.068117 159.558749 
L 888.46879 151.166184 
L 888.869464 158.187965 
L 890.071485 162.649236 
L 890.472159 150.58886 
L 890.872833 145.924769 
L 891.273506 136.64729 
L 891.67418 153.228043 
L 892.876201 142.724271 
L 893.276875 131.853754 
L 893.677549 113.984798 
L 894.478896 93.159838 
L 895.680918 89.251481 
L 896.081591 80.696814 
L 896.482265 92.442464 
L 897.283612 84.761274 
L 898.485634 63.344537 
L 898.886307 59.641114 
L 899.286981 60.219035 
L 899.687655 64.10278 
L 900.088329 39.677212 
L 901.29035 39.33186 
L 901.691023 39.06 
L 902.091697 50.077847 
L 902.492371 45.259839 
L 902.893045 46.000312 
L 904.095066 46.060159 
L 904.49574 45.895184 
L 904.896413 80.441082 
L 905.297087 81.663153 
L 905.697761 77.425187 
L 906.899782 81.361254 
L 907.300456 76.968905 
L 908.101803 75.771016 
L 908.502477 90.021041 
L 911.307193 138.247658 
L 912.509214 134.239808 
L 912.909888 148.151706 
L 913.310562 154.288247 
L 914.111909 155.042933 
L 915.31393 164.942669 
L 915.714604 184.902225 
L 916.115278 169.685913 
L 916.515951 189.719913 
L 916.916625 186.624234 
L 918.51932 189.36028 
L 918.919994 183.136272 
L 919.320668 181.794358 
L 919.721341 176.193479 
L 920.923362 153.92919 
L 921.324036 138.546768 
L 921.72471 131.836586 
L 922.125384 135.735929 
L 922.526057 128.281847 
L 923.728079 137.748204 
L 924.128752 127.418785 
L 924.529426 136.129329 
L 924.9301 116.204671 
L 925.330773 131.188744 
L 926.933468 107.855265 
L 927.734816 92.956948 
L 928.13549 97.903769 
L 929.738184 111.749007 
L 930.138858 113.127623 
L 930.539532 106.338986 
L 930.940206 102.417768 
L 932.142227 69.284336 
L 932.542901 76.201429 
L 932.943574 103.65071 
L 933.344248 115.187295 
L 933.744922 87.312825 
L 934.946943 101.009323 
L 936.148964 148.226584 
L 936.549638 145.431208 
L 938.95368 187.909651 
L 939.354354 181.803888 
L 940.556375 180.449291 
L 940.957049 176.28051 
L 941.357723 166.600904 
L 941.758396 180.380727 
L 942.15907 164.640706 
L 943.361091 155.658725 
L 943.761765 148.295923 
L 944.162439 150.734949 
L 944.563112 153.928017 
L 946.566481 112.628273 
L 946.967155 88.614108 
L 947.367829 145.303483 
L 947.768502 163.104473 
L 948.970523 167.638147 
L 949.371197 178.220859 
L 949.771871 140.541904 
L 950.172545 151.03177 
L 950.573218 145.497687 
L 951.77524 144.161696 
L 952.175913 142.903267 
L 952.576587 150.290766 
L 952.977261 143.83545 
L 954.579956 150.538455 
L 954.980629 145.097791 
L 955.381303 141.315998 
L 956.182651 105.505963 
L 957.384672 95.637762 
L 957.785346 80.522384 
L 958.186019 102.944436 
L 958.586693 80.458982 
L 958.987367 112.191645 
L 960.189388 133.611161 
L 960.590062 133.611188 
L 960.990735 122.344824 
L 961.391409 125.492805 
L 961.792083 113.744363 
L 962.994104 103.006605 
L 963.394778 107.53383 
L 963.795451 116.479059 
L 964.196125 120.767376 
L 964.596799 123.228518 
L 965.79882 131.712602 
L 966.199494 139.079717 
L 966.600168 149.810014 
L 967.000841 136.025364 
L 967.401515 135.195436 
L 969.00421 122.188306 
L 969.404884 116.071684 
L 969.805557 120.020846 
L 970.206231 120.335799 
L 971.408252 158.371815 
L 971.808926 161.084471 
L 972.2096 160.741865 
L 972.610273 163.60872 
L 973.010947 149.198124 
L 974.212968 149.174676 
L 974.613642 139.819093 
L 975.014316 137.363547 
L 975.41499 133.711633 
L 975.815663 122.267918 
L 977.017684 134.133132 
L 977.418358 144.615014 
L 977.819032 139.079908 
L 978.620379 126.149641 
L 979.822401 127.294072 
L 980.223074 136.525193 
L 981.024422 125.368377 
L 981.425096 137.650246 
L 982.627117 113.106704 
L 983.02779 108.879261 
L 983.428464 80.753887 
L 983.829138 79.585835 
L 985.431833 83.636267 
L 985.832507 87.190054 
L 986.23318 70.5625 
L 986.633854 70.080476 
L 987.034528 85.416215 
L 988.236549 100.068154 
L 988.637223 92.817214 
L 989.037896 93.340385 
L 989.839244 88.558675 
L 991.441939 97.794251 
L 991.842612 117.244579 
L 992.243286 125.433212 
L 992.64396 98.114641 
L 993.845981 97.561005 
L 994.647329 146.834121 
L 995.048002 147.906652 
L 995.448676 158.356929 
L 996.650697 155.182672 
L 997.051371 163.718679 
L 997.452045 115.965056 
L 998.253392 88.851145 
L 999.455413 97.42913 
L 999.856087 93.090468 
L 1000.256761 87.324534 
L 1000.657435 88.99243 
L 1001.058108 92.390869 
L 1002.260129 86.707629 
L 1002.660803 81.090515 
L 1003.061477 90.007968 
L 1003.462151 77.912652 
L 1003.862824 76.023507 
L 1005.064846 76.558481 
L 1005.866193 95.465477 
L 1006.266867 113.652564 
L 1006.66754 106.918108 
L 1008.270235 126.357836 
L 1008.670909 109.754463 
L 1008.670909 109.754463 
" clip-path="url(#p2d0e5ee00d)" style="fill: none; stroke: #1f77b4; stroke-width: 1.5; stroke-linecap: square"/>
   </g>
   <g id="patch_3">
    <path d="M 145.8 224.28 
L 145.8 30.24 
" style="fill: none; stroke: #000000; stroke-width: 0.8; stroke-linejoin: miter; stroke-linecap: square"/>
   </g>
   <g id="patch_4">
    <path d="M 145.8 224.28 
L 1049.76 224.28 
" style="fill: none; stroke: #000000; stroke-width: 0.8; stroke-linejoin: miter; stroke-linecap: square"/>
   </g>
  </g>
 </g>
 <defs>
  <clipPath id="p2d0e5ee00d">
   <rect x="145.8" y="30.24" width="903.96" height="194.04"/>
  </clipPath>
 </defs>
</svg>
