<?xml version="1.0" encoding="utf-8" standalone="no"?>
<!DOCTYPE svg PUBLIC "-//W3C//DTD SVG 1.1//EN"
  "http://www.w3.org/Graphics/SVG/1.1/DTD/svg11.dtd">
<svg xmlns:xlink="http://www.w3.org/1999/xlink" width="756pt" height="252pt" viewBox="0 0 756 252" xmlns="http://www.w3.org/2000/svg" version="1.1">
 <metadata>
  <rdf:RDF xmlns:dc="http://purl.org/dc/elements/1.1/" xmlns:cc="http://creativecommons.org/ns#" xmlns:rdf="http://www.w3.org/1999/02/22-rdf-syntax-ns#">
   <cc:Work>
    <dc:type rdf:resource="http://purl.org/dc/dcmitype/StillImage"/>
    <dc:date>2025-09-06T14:16:05.882810</dc:date>
    <dc:format>image/svg+xml</dc:format>
    <dc:creator>
     <cc:Agent>
      <dc:title>Matplotlib v3.10.5, https://matplotlib.org/</dc:title>
     </cc:Agent>
    </dc:creator>
   </cc:Work>
  </rdf:RDF>
 </metadata>
 <defs>
  <style type="text/css">*{stroke-linejoin: round; stroke-linecap: butt}</style>
 </defs>
 <g id="figure_1">
  <g id="patch_1">
   <path d="M 0 252 
L 756 252 
L 756 0 
L 0 0 
z
" style="fill: #ffffff"/>
  </g>
  <g id="axes_1">
   <g id="patch_2">
    <path d="M 94.5 224.28 
L 680.4 224.28 
L 680.4 30.24 
L 94.5 30.24 
z
" style="fill: #ffffff"/>
   </g>
   <g id="matplotlib.axis_1">
    <g id="xtick_1">
     <g id="line2d_1">
      <defs>
       <path id="md76bda1c48" d="M 0 0 
L 0 3.5 
" style="stroke: #000000; stroke-width: 0.8"/>
      </defs>
      <g>
       <use xlink:href="#md76bda1c48" x="123.05817" y="224.28" style="stroke: #000000; stroke-width: 0.8"/>
      </g>
     </g>
     <g id="text_1">
      <!-- 2024-03 -->
      <g transform="translate(102.166764 238.878438) scale(0.1 -0.1)">
       <defs>
        <path id="DejaVuSans-32" d="M 1228 531 
L 3431 531 
L 3431 0 
L 469 0 
L 469 531 
Q 828 903 1448 1529 
Q 2069 2156 2228 2338 
Q 2531 2678 2651 2914 
Q 2772 3150 2772 3378 
Q 2772 3750 2511 3984 
Q 2250 4219 1831 4219 
Q 1534 4219 1204 4116 
Q 875 4013 500 3803 
L 500 4441 
Q 881 4594 1212 4672 
Q 1544 4750 1819 4750 
Q 2544 4750 2975 4387 
Q 3406 4025 3406 3419 
Q 3406 3131 3298 2873 
Q 3191 2616 2906 2266 
Q 2828 2175 2409 1742 
Q 1991 1309 1228 531 
z
" transform="scale(0.015625)"/>
        <path id="DejaVuSans-30" d="M 2034 4250 
Q 1547 4250 1301 3770 
Q 1056 3291 1056 2328 
Q 1056 1369 1301 889 
Q 1547 409 2034 409 
Q 2525 409 2770 889 
Q 3016 1369 3016 2328 
Q 3016 3291 2770 3770 
Q 2525 4250 2034 4250 
z
M 2034 4750 
Q 2819 4750 3233 4129 
Q 3647 3509 3647 2328 
Q 3647 1150 3233 529 
Q 2819 -91 2034 -91 
Q 1250 -91 836 529 
Q 422 1150 422 2328 
Q 422 3509 836 4129 
Q 1250 4750 2034 4750 
z
" transform="scale(0.015625)"/>
        <path id="DejaVuSans-34" d="M 2419 4116 
L 825 1625 
L 2419 1625 
L 2419 4116 
z
M 2253 4666 
L 3047 4666 
L 3047 1625 
L 3713 1625 
L 3713 1100 
L 3047 1100 
L 3047 0 
L 2419 0 
L 2419 1100 
L 313 1100 
L 313 1709 
L 2253 4666 
z
" transform="scale(0.015625)"/>
        <path id="DejaVuSans-2d" d="M 313 2009 
L 1997 2009 
L 1997 1497 
L 313 1497 
L 313 2009 
z
" transform="scale(0.015625)"/>
        <path id="DejaVuSans-33" d="M 2597 2516 
Q 3050 2419 3304 2112 
Q 3559 1806 3559 1356 
Q 3559 666 3084 287 
Q 2609 -91 1734 -91 
Q 1441 -91 1130 -33 
Q 819 25 488 141 
L 488 750 
Q 750 597 1062 519 
Q 1375 441 1716 441 
Q 2309 441 2620 675 
Q 2931 909 2931 1356 
Q 2931 1769 2642 2001 
Q 2353 2234 1838 2234 
L 1294 2234 
L 1294 2753 
L 1863 2753 
Q 2328 2753 2575 2939 
Q 2822 3125 2822 3475 
Q 2822 3834 2567 4026 
Q 2313 4219 1838 4219 
Q 1578 4219 1281 4162 
Q 984 4106 628 3988 
L 628 4550 
Q 988 4650 1302 4700 
Q 1616 4750 1894 4750 
Q 2613 4750 3031 4423 
Q 3450 4097 3450 3541 
Q 3450 3153 3228 2886 
Q 3006 2619 2597 2516 
z
" transform="scale(0.015625)"/>
       </defs>
       <use xlink:href="#DejaVuSans-32"/>
       <use xlink:href="#DejaVuSans-30" transform="translate(63.623047 0)"/>
       <use xlink:href="#DejaVuSans-32" transform="translate(127.246094 0)"/>
       <use xlink:href="#DejaVuSans-34" transform="translate(190.869141 0)"/>
       <use xlink:href="#DejaVuSans-2d" transform="translate(254.492188 0)"/>
       <use xlink:href="#DejaVuSans-30" transform="translate(290.576172 0)"/>
       <use xlink:href="#DejaVuSans-33" transform="translate(354.199219 0)"/>
      </g>
     </g>
    </g>
    <g id="xtick_2">
     <g id="line2d_2">
      <g>
       <use xlink:href="#md76bda1c48" x="181.81191" y="224.28" style="stroke: #000000; stroke-width: 0.8"/>
      </g>
     </g>
     <g id="text_2">
      <!-- 2024-05 -->
      <g transform="translate(160.920504 238.878438) scale(0.1 -0.1)">
       <defs>
        <path id="DejaVuSans-35" d="M 691 4666 
L 3169 4666 
L 3169 4134 
L 1269 4134 
L 1269 2991 
Q 1406 3038 1543 3061 
Q 1681 3084 1819 3084 
Q 2600 3084 3056 2656 
Q 3513 2228 3513 1497 
Q 3513 744 3044 326 
Q 2575 -91 1722 -91 
Q 1428 -91 1123 -41 
Q 819 9 494 109 
L 494 744 
Q 775 591 1075 516 
Q 1375 441 1709 441 
Q 2250 441 2565 725 
Q 2881 1009 2881 1497 
Q 2881 1984 2565 2268 
Q 2250 2553 1709 2553 
Q 1456 2553 1204 2497 
Q 953 2441 691 2322 
L 691 4666 
z
" transform="scale(0.015625)"/>
       </defs>
       <use xlink:href="#DejaVuSans-32"/>
       <use xlink:href="#DejaVuSans-30" transform="translate(63.623047 0)"/>
       <use xlink:href="#DejaVuSans-32" transform="translate(127.246094 0)"/>
       <use xlink:href="#DejaVuSans-34" transform="translate(190.869141 0)"/>
       <use xlink:href="#DejaVuSans-2d" transform="translate(254.492188 0)"/>
       <use xlink:href="#DejaVuSans-30" transform="translate(290.576172 0)"/>
       <use xlink:href="#DejaVuSans-35" transform="translate(354.199219 0)"/>
      </g>
     </g>
    </g>
    <g id="xtick_3">
     <g id="line2d_3">
      <g>
       <use xlink:href="#md76bda1c48" x="240.56565" y="224.28" style="stroke: #000000; stroke-width: 0.8"/>
      </g>
     </g>
     <g id="text_3">
      <!-- 2024-07 -->
      <g transform="translate(219.674244 238.878438) scale(0.1 -0.1)">
       <defs>
        <path id="DejaVuSans-37" d="M 525 4666 
L 3525 4666 
L 3525 4397 
L 1831 0 
L 1172 0 
L 2766 4134 
L 525 4134 
L 525 4666 
z
" transform="scale(0.015625)"/>
       </defs>
       <use xlink:href="#DejaVuSans-32"/>
       <use xlink:href="#DejaVuSans-30" transform="translate(63.623047 0)"/>
       <use xlink:href="#DejaVuSans-32" transform="translate(127.246094 0)"/>
       <use xlink:href="#DejaVuSans-34" transform="translate(190.869141 0)"/>
       <use xlink:href="#DejaVuSans-2d" transform="translate(254.492188 0)"/>
       <use xlink:href="#DejaVuSans-30" transform="translate(290.576172 0)"/>
       <use xlink:href="#DejaVuSans-37" transform="translate(354.199219 0)"/>
      </g>
     </g>
    </g>
    <g id="xtick_4">
     <g id="line2d_4">
      <g>
       <use xlink:href="#md76bda1c48" x="300.282566" y="224.28" style="stroke: #000000; stroke-width: 0.8"/>
      </g>
     </g>
     <g id="text_4">
      <!-- 2024-09 -->
      <g transform="translate(279.39116 238.878438) scale(0.1 -0.1)">
       <defs>
        <path id="DejaVuSans-39" d="M 703 97 
L 703 672 
Q 941 559 1184 500 
Q 1428 441 1663 441 
Q 2288 441 2617 861 
Q 2947 1281 2994 2138 
Q 2813 1869 2534 1725 
Q 2256 1581 1919 1581 
Q 1219 1581 811 2004 
Q 403 2428 403 3163 
Q 403 3881 828 4315 
Q 1253 4750 1959 4750 
Q 2769 4750 3195 4129 
Q 3622 3509 3622 2328 
Q 3622 1225 3098 567 
Q 2575 -91 1691 -91 
Q 1453 -91 1209 -44 
Q 966 3 703 97 
z
M 1959 2075 
Q 2384 2075 2632 2365 
Q 2881 2656 2881 3163 
Q 2881 3666 2632 3958 
Q 2384 4250 1959 4250 
Q 1534 4250 1286 3958 
Q 1038 3666 1038 3163 
Q 1038 2656 1286 2365 
Q 1534 2075 1959 2075 
z
" transform="scale(0.015625)"/>
       </defs>
       <use xlink:href="#DejaVuSans-32"/>
       <use xlink:href="#DejaVuSans-30" transform="translate(63.623047 0)"/>
       <use xlink:href="#DejaVuSans-32" transform="translate(127.246094 0)"/>
       <use xlink:href="#DejaVuSans-34" transform="translate(190.869141 0)"/>
       <use xlink:href="#DejaVuSans-2d" transform="translate(254.492188 0)"/>
       <use xlink:href="#DejaVuSans-30" transform="translate(290.576172 0)"/>
       <use xlink:href="#DejaVuSans-39" transform="translate(354.199219 0)"/>
      </g>
     </g>
    </g>
    <g id="xtick_5">
     <g id="line2d_5">
      <g>
       <use xlink:href="#md76bda1c48" x="359.036306" y="224.28" style="stroke: #000000; stroke-width: 0.8"/>
      </g>
     </g>
     <g id="text_5">
      <!-- 2024-11 -->
      <g transform="translate(338.1449 238.878438) scale(0.1 -0.1)">
       <defs>
        <path id="DejaVuSans-31" d="M 794 531 
L 1825 531 
L 1825 4091 
L 703 3866 
L 703 4441 
L 1819 4666 
L 2450 4666 
L 2450 531 
L 3481 531 
L 3481 0 
L 794 0 
L 794 531 
z
" transform="scale(0.015625)"/>
       </defs>
       <use xlink:href="#DejaVuSans-32"/>
       <use xlink:href="#DejaVuSans-30" transform="translate(63.623047 0)"/>
       <use xlink:href="#DejaVuSans-32" transform="translate(127.246094 0)"/>
       <use xlink:href="#DejaVuSans-34" transform="translate(190.869141 0)"/>
       <use xlink:href="#DejaVuSans-2d" transform="translate(254.492188 0)"/>
       <use xlink:href="#DejaVuSans-31" transform="translate(290.576172 0)"/>
       <use xlink:href="#DejaVuSans-31" transform="translate(354.199219 0)"/>
      </g>
     </g>
    </g>
    <g id="xtick_6">
     <g id="line2d_6">
      <g>
       <use xlink:href="#md76bda1c48" x="417.790046" y="224.28" style="stroke: #000000; stroke-width: 0.8"/>
      </g>
     </g>
     <g id="text_6">
      <!-- 2025-01 -->
      <g transform="translate(396.89864 238.878438) scale(0.1 -0.1)">
       <use xlink:href="#DejaVuSans-32"/>
       <use xlink:href="#DejaVuSans-30" transform="translate(63.623047 0)"/>
       <use xlink:href="#DejaVuSans-32" transform="translate(127.246094 0)"/>
       <use xlink:href="#DejaVuSans-35" transform="translate(190.869141 0)"/>
       <use xlink:href="#DejaVuSans-2d" transform="translate(254.492188 0)"/>
       <use xlink:href="#DejaVuSans-30" transform="translate(290.576172 0)"/>
       <use xlink:href="#DejaVuSans-31" transform="translate(354.199219 0)"/>
      </g>
     </g>
    </g>
    <g id="xtick_7">
     <g id="line2d_7">
      <g>
       <use xlink:href="#md76bda1c48" x="474.617434" y="224.28" style="stroke: #000000; stroke-width: 0.8"/>
      </g>
     </g>
     <g id="text_7">
      <!-- 2025-03 -->
      <g transform="translate(453.726028 238.878438) scale(0.1 -0.1)">
       <use xlink:href="#DejaVuSans-32"/>
       <use xlink:href="#DejaVuSans-30" transform="translate(63.623047 0)"/>
       <use xlink:href="#DejaVuSans-32" transform="translate(127.246094 0)"/>
       <use xlink:href="#DejaVuSans-35" transform="translate(190.869141 0)"/>
       <use xlink:href="#DejaVuSans-2d" transform="translate(254.492188 0)"/>
       <use xlink:href="#DejaVuSans-30" transform="translate(290.576172 0)"/>
       <use xlink:href="#DejaVuSans-33" transform="translate(354.199219 0)"/>
      </g>
     </g>
    </g>
    <g id="xtick_8">
     <g id="line2d_8">
      <g>
       <use xlink:href="#md76bda1c48" x="533.371174" y="224.28" style="stroke: #000000; stroke-width: 0.8"/>
      </g>
     </g>
     <g id="text_8">
      <!-- 2025-05 -->
      <g transform="translate(512.479768 238.878438) scale(0.1 -0.1)">
       <use xlink:href="#DejaVuSans-32"/>
       <use xlink:href="#DejaVuSans-30" transform="translate(63.623047 0)"/>
       <use xlink:href="#DejaVuSans-32" transform="translate(127.246094 0)"/>
       <use xlink:href="#DejaVuSans-35" transform="translate(190.869141 0)"/>
       <use xlink:href="#DejaVuSans-2d" transform="translate(254.492188 0)"/>
       <use xlink:href="#DejaVuSans-30" transform="translate(290.576172 0)"/>
       <use xlink:href="#DejaVuSans-35" transform="translate(354.199219 0)"/>
      </g>
     </g>
    </g>
    <g id="xtick_9">
     <g id="line2d_9">
      <g>
       <use xlink:href="#md76bda1c48" x="592.124914" y="224.28" style="stroke: #000000; stroke-width: 0.8"/>
      </g>
     </g>
     <g id="text_9">
      <!-- 2025-07 -->
      <g transform="translate(571.233507 238.878438) scale(0.1 -0.1)">
       <use xlink:href="#DejaVuSans-32"/>
       <use xlink:href="#DejaVuSans-30" transform="translate(63.623047 0)"/>
       <use xlink:href="#DejaVuSans-32" transform="translate(127.246094 0)"/>
       <use xlink:href="#DejaVuSans-35" transform="translate(190.869141 0)"/>
       <use xlink:href="#DejaVuSans-2d" transform="translate(254.492188 0)"/>
       <use xlink:href="#DejaVuSans-30" transform="translate(290.576172 0)"/>
       <use xlink:href="#DejaVuSans-37" transform="translate(354.199219 0)"/>
      </g>
     </g>
    </g>
    <g id="xtick_10">
     <g id="line2d_10">
      <g>
       <use xlink:href="#md76bda1c48" x="651.84183" y="224.28" style="stroke: #000000; stroke-width: 0.8"/>
      </g>
     </g>
     <g id="text_10">
      <!-- 2025-09 -->
      <g transform="translate(630.950423 238.878438) scale(0.1 -0.1)">
       <use xlink:href="#DejaVuSans-32"/>
       <use xlink:href="#DejaVuSans-30" transform="translate(63.623047 0)"/>
       <use xlink:href="#DejaVuSans-32" transform="translate(127.246094 0)"/>
       <use xlink:href="#DejaVuSans-35" transform="translate(190.869141 0)"/>
       <use xlink:href="#DejaVuSans-2d" transform="translate(254.492188 0)"/>
       <use xlink:href="#DejaVuSans-30" transform="translate(290.576172 0)"/>
       <use xlink:href="#DejaVuSans-39" transform="translate(354.199219 0)"/>
      </g>
     </g>
    </g>
   </g>
   <g id="matplotlib.axis_2">
    <g id="ytick_1">
     <g id="line2d_11">
      <defs>
       <path id="mde9e24942a" d="M 0 0 
L -3.5 0 
" style="stroke: #000000; stroke-width: 0.8"/>
      </defs>
      <g>
       <use xlink:href="#mde9e24942a" x="94.5" y="222.613989" style="stroke: #000000; stroke-width: 0.8"/>
      </g>
     </g>
     <g id="text_11">
      <!-- 160 -->
      <g transform="translate(68.4125 226.413207) scale(0.1 -0.1)">
       <defs>
        <path id="DejaVuSans-36" d="M 2113 2584 
Q 1688 2584 1439 2293 
Q 1191 2003 1191 1497 
Q 1191 994 1439 701 
Q 1688 409 2113 409 
Q 2538 409 2786 701 
Q 3034 994 3034 1497 
Q 3034 2003 2786 2293 
Q 2538 2584 2113 2584 
z
M 3366 4563 
L 3366 3988 
Q 3128 4100 2886 4159 
Q 2644 4219 2406 4219 
Q 1781 4219 1451 3797 
Q 1122 3375 1075 2522 
Q 1259 2794 1537 2939 
Q 1816 3084 2150 3084 
Q 2853 3084 3261 2657 
Q 3669 2231 3669 1497 
Q 3669 778 3244 343 
Q 2819 -91 2113 -91 
Q 1303 -91 875 529 
Q 447 1150 447 2328 
Q 447 3434 972 4092 
Q 1497 4750 2381 4750 
Q 2619 4750 2861 4703 
Q 3103 4656 3366 4563 
z
" transform="scale(0.015625)"/>
       </defs>
       <use xlink:href="#DejaVuSans-31"/>
       <use xlink:href="#DejaVuSans-36" transform="translate(63.623047 0)"/>
       <use xlink:href="#DejaVuSans-30" transform="translate(127.246094 0)"/>
      </g>
     </g>
    </g>
    <g id="ytick_2">
     <g id="line2d_12">
      <g>
       <use xlink:href="#mde9e24942a" x="94.5" y="185.193599" style="stroke: #000000; stroke-width: 0.8"/>
      </g>
     </g>
     <g id="text_12">
      <!-- 180 -->
      <g transform="translate(68.4125 188.992818) scale(0.1 -0.1)">
       <defs>
        <path id="DejaVuSans-38" d="M 2034 2216 
Q 1584 2216 1326 1975 
Q 1069 1734 1069 1313 
Q 1069 891 1326 650 
Q 1584 409 2034 409 
Q 2484 409 2743 651 
Q 3003 894 3003 1313 
Q 3003 1734 2745 1975 
Q 2488 2216 2034 2216 
z
M 1403 2484 
Q 997 2584 770 2862 
Q 544 3141 544 3541 
Q 544 4100 942 4425 
Q 1341 4750 2034 4750 
Q 2731 4750 3128 4425 
Q 3525 4100 3525 3541 
Q 3525 3141 3298 2862 
Q 3072 2584 2669 2484 
Q 3125 2378 3379 2068 
Q 3634 1759 3634 1313 
Q 3634 634 3220 271 
Q 2806 -91 2034 -91 
Q 1263 -91 848 271 
Q 434 634 434 1313 
Q 434 1759 690 2068 
Q 947 2378 1403 2484 
z
M 1172 3481 
Q 1172 3119 1398 2916 
Q 1625 2713 2034 2713 
Q 2441 2713 2670 2916 
Q 2900 3119 2900 3481 
Q 2900 3844 2670 4047 
Q 2441 4250 2034 4250 
Q 1625 4250 1398 4047 
Q 1172 3844 1172 3481 
z
" transform="scale(0.015625)"/>
       </defs>
       <use xlink:href="#DejaVuSans-31"/>
       <use xlink:href="#DejaVuSans-38" transform="translate(63.623047 0)"/>
       <use xlink:href="#DejaVuSans-30" transform="translate(127.246094 0)"/>
      </g>
     </g>
    </g>
    <g id="ytick_3">
     <g id="line2d_13">
      <g>
       <use xlink:href="#mde9e24942a" x="94.5" y="147.773209" style="stroke: #000000; stroke-width: 0.8"/>
      </g>
     </g>
     <g id="text_13">
      <!-- 200 -->
      <g transform="translate(68.4125 151.572428) scale(0.1 -0.1)">
       <use xlink:href="#DejaVuSans-32"/>
       <use xlink:href="#DejaVuSans-30" transform="translate(63.623047 0)"/>
       <use xlink:href="#DejaVuSans-30" transform="translate(127.246094 0)"/>
      </g>
     </g>
    </g>
    <g id="ytick_4">
     <g id="line2d_14">
      <g>
       <use xlink:href="#mde9e24942a" x="94.5" y="110.35282" style="stroke: #000000; stroke-width: 0.8"/>
      </g>
     </g>
     <g id="text_14">
      <!-- 220 -->
      <g transform="translate(68.4125 114.152039) scale(0.1 -0.1)">
       <use xlink:href="#DejaVuSans-32"/>
       <use xlink:href="#DejaVuSans-32" transform="translate(63.623047 0)"/>
       <use xlink:href="#DejaVuSans-30" transform="translate(127.246094 0)"/>
      </g>
     </g>
    </g>
    <g id="ytick_5">
     <g id="line2d_15">
      <g>
       <use xlink:href="#mde9e24942a" x="94.5" y="72.93243" style="stroke: #000000; stroke-width: 0.8"/>
      </g>
     </g>
     <g id="text_15">
      <!-- 240 -->
      <g transform="translate(68.4125 76.731649) scale(0.1 -0.1)">
       <use xlink:href="#DejaVuSans-32"/>
       <use xlink:href="#DejaVuSans-34" transform="translate(63.623047 0)"/>
       <use xlink:href="#DejaVuSans-30" transform="translate(127.246094 0)"/>
      </g>
     </g>
    </g>
    <g id="ytick_6">
     <g id="line2d_16">
      <g>
       <use xlink:href="#mde9e24942a" x="94.5" y="35.51204" style="stroke: #000000; stroke-width: 0.8"/>
      </g>
     </g>
     <g id="text_16">
      <!-- 260 -->
      <g transform="translate(68.4125 39.311259) scale(0.1 -0.1)">
       <use xlink:href="#DejaVuSans-32"/>
       <use xlink:href="#DejaVuSans-36" transform="translate(63.623047 0)"/>
       <use xlink:href="#DejaVuSans-30" transform="translate(127.246094 0)"/>
      </g>
     </g>
    </g>
   </g>
   <g id="line2d_17">
    <path d="M 121.131818 184.956952 
L 122.094994 186.201567 
L 123.05817 188.226412 
L 125.947699 196.697474 
L 126.910875 205.948737 
L 127.874051 207.806424 
L 128.837227 208.02931 
L 129.800403 204.81555 
L 132.689931 201.063005 
L 133.653107 200.171319 
L 134.616283 204.072464 
L 135.579459 200.598619 
L 136.542635 201.304505 
L 139.432163 199.261076 
L 141.358516 190.06557 
L 142.321692 203.626664 
L 143.284868 201.936106 
L 146.174396 204.592607 
L 147.137572 206.710352 
L 148.100748 200.02269 
L 149.063924 203.422307 
L 152.916628 206.115894 
L 153.879804 208.326567 
L 154.84298 206.821866 
L 155.806157 208.363681 
L 156.769333 206.95188 
L 159.658861 209.051039 
L 160.622037 206.784666 
L 161.585213 210.295654 
L 162.548389 196.808988 
L 163.511565 194.003829 
L 166.401093 201.174491 
L 167.364269 207.323423 
L 168.327445 209.886996 
L 169.290621 211.670369 
L 170.253797 215.46 
L 173.143326 213.899628 
L 174.106502 211.930426 
L 175.069678 207.992167 
L 176.032854 206.37598 
L 176.99603 207.472024 
L 179.885558 199.669762 
L 180.848734 205.55858 
L 181.81191 207.472024 
L 182.775086 200.542862 
L 183.738262 181.315893 
L 186.627791 184.418252 
L 187.590967 183.136437 
L 188.554143 182.504808 
L 189.517319 179.10522 
L 190.480495 181.467662 
L 194.333199 173.320037 
L 195.296375 169.060167 
L 196.259551 168.836967 
L 197.222727 168.781153 
L 200.112255 166.60474 
L 201.075432 164.167841 
L 202.038608 166.865168 
L 203.001784 174.343136 
L 203.96496 168.576567 
L 207.817664 168.557896 
L 208.78084 167.999868 
L 210.707192 164.353898 
L 213.59672 161.042728 
L 214.559896 160.447442 
L 215.523072 157.619986 
L 216.486249 160.205628 
L 217.449425 155.722587 
L 220.338953 162.735484 
L 221.302129 136.636938 
L 222.265305 125.624514 
L 223.228481 123.4481 
L 224.191657 126.703456 
L 227.081185 118.927802 
L 229.970713 131.930611 
L 230.93389 136.004424 
L 233.823418 134.795296 
L 234.786594 133.065311 
L 235.74977 125.289714 
L 236.712946 123.7085 
L 237.676122 130.182012 
L 240.56565 118.778974 
L 241.528826 112.231119 
L 242.492002 109.850063 
L 244.418354 100.939681 
L 247.307883 98.186568 
L 248.271059 96.586826 
L 249.234235 88.588001 
L 250.197411 98.651639 
L 251.160587 93.126856 
L 254.050115 85.946487 
L 255.013291 85.165174 
L 255.976467 96.21474 
L 256.939643 104.957737 
L 257.902819 104.715894 
L 260.792348 105.366965 
L 261.755524 103.41378 
L 262.7187 115.449275 
L 263.681876 117.402432 
L 264.645052 116.528132 
L 267.53458 116.007304 
L 268.497756 114.965561 
L 269.460932 108.864135 
L 270.424108 115.784075 
L 271.387284 112.993762 
L 274.276812 132.693282 
L 275.239988 136.488052 
L 276.203165 131.670154 
L 277.166341 125.178085 
L 278.129517 119.727673 
L 281.019045 116.859649 
L 281.982221 109.894486 
L 282.945397 109.056387 
L 283.908573 103.469337 
L 284.871749 100.992412 
L 287.761277 101.290412 
L 288.724453 100.135756 
L 289.687629 100.340627 
L 290.650806 103.823208 
L 291.613982 99.521171 
L 294.50351 98.888001 
L 295.466686 97.30496 
L 296.429862 100.173013 
L 297.393038 94.027278 
L 298.356214 95.498491 
L 302.208918 107.10089 
L 303.172094 110.676657 
L 304.13527 107.827218 
L 305.098446 110.732499 
L 307.987975 110.564914 
L 308.951151 112.054798 
L 309.914327 107.305818 
L 310.877503 107.10089 
L 311.840679 107.603761 
L 314.730207 119.113089 
L 315.693383 118.237818 
L 316.656559 110.974628 
L 317.619735 95.74059 
L 318.582911 96.988375 
L 321.47244 100.210242 
L 322.435616 98.53413 
L 323.398792 100.39647 
L 324.361968 98.254773 
L 325.325144 97.751959 
L 328.214672 88.049043 
L 329.177848 100.694441 
L 330.141024 99.632885 
L 331.1042 101.700126 
L 332.067376 99.595657 
L 334.956904 109.112287 
L 336.883257 94.492835 
L 337.846433 95.424034 
L 338.809609 98.198873 
L 341.699137 91.215068 
L 342.662313 86.46606 
L 343.625489 90.321183 
L 344.588665 89.632084 
L 345.551841 84.324391 
L 348.441369 81.568109 
L 349.404545 82.722765 
L 350.367722 92.220752 
L 351.330898 92.574623 
L 352.294074 91.010197 
L 355.183602 87.304159 
L 356.146778 86.801316 
L 357.109954 93.449893 
L 358.07313 101.253155 
L 359.036306 106.840205 
L 361.925834 108.516345 
L 362.88901 105.83452 
L 363.852186 107.194075 
L 364.815362 98.329258 
L 365.778539 98.832643 
L 368.668067 103.922475 
L 369.631243 103.922475 
L 370.594419 102.263179 
L 371.557595 96.483505 
L 372.520771 102.486864 
L 375.410299 96.856362 
L 376.373475 96.371648 
L 377.336651 95.02928 
L 378.299827 95.924164 
L 379.263003 93.40724 
L 382.152532 87.814052 
L 383.115708 83.731018 
L 384.078884 83.973404 
L 386.005236 79.498813 
L 388.894764 75.285279 
L 389.85794 69.580206 
L 390.821116 68.909036 
L 391.784292 68.853079 
L 392.747468 69.225964 
L 395.636997 61.936165 
L 396.600173 60.034455 
L 397.563349 62.420878 
L 398.526525 59.680213 
L 399.489701 59.363256 
L 402.379229 53.937911 
L 403.342405 49.388749 
L 404.305581 59.512428 
L 405.268757 56.268406 
L 406.231933 47.50571 
L 409.121461 46.051456 
L 410.084638 40.588768 
L 412.01099 39.06 
L 412.974166 45.454886 
L 415.863694 51.775201 
L 416.82687 55.093794 
L 418.753222 67.342925 
L 419.716398 68.25648 
L 422.605926 65.198858 
L 423.569102 70.400547 
L 424.532278 69.486992 
L 426.458631 80.393697 
L 429.348159 84.961501 
L 430.311335 87.04964 
L 431.274511 78.492044 
L 432.237687 96.408934 
L 433.200863 93.202169 
L 437.053567 106.886883 
L 438.016743 104.668216 
L 438.979919 104.985144 
L 439.943096 106.625855 
L 442.832624 93.425883 
L 443.7958 77.764945 
L 444.758976 75.714093 
L 446.685328 81.978451 
L 449.574856 96.875062 
L 450.538032 87.944524 
L 451.501208 88.559794 
L 452.464384 87.161497 
L 453.42756 97.58346 
L 456.317089 97.07959 
L 457.280265 87.803318 
L 459.206617 71.173239 
L 460.169793 65.443213 
L 464.022497 65.685855 
L 464.985673 64.939286 
L 465.948849 63.147463 
L 466.912025 63.67009 
L 469.801554 60.777084 
L 470.76473 60.889084 
L 471.727906 73.356961 
L 472.691082 79.068315 
L 473.654258 70.594626 
L 476.543786 77.705819 
L 477.506962 81.625351 
L 478.470138 81.979964 
L 479.433314 82.745204 
L 480.39649 75.764682 
L 483.286018 97.396861 
L 484.249194 109.790109 
L 485.212371 116.994602 
L 486.175547 130.619704 
L 487.138723 123.508511 
L 490.028251 122.556614 
L 490.991427 125.00165 
L 491.954603 120.242221 
L 492.917779 122.369957 
L 493.880955 114.586852 
L 496.770483 109.995409 
L 497.733659 104.358711 
L 498.696835 108.502242 
L 499.660012 104.172055 
L 500.623188 115.277464 
L 503.512716 107.382359 
L 504.475892 105.403908 
L 505.439068 104.097398 
L 506.402244 142.732968 
L 507.36542 170.375071 
L 510.254948 183.290918 
L 511.218124 200.163668 
L 512.1813 150.833344 
L 513.144476 166.56754 
L 514.107652 152.139883 
L 516.997181 143.983464 
L 517.960357 144.692748 
L 518.923533 159.38169 
L 519.886709 154.323605 
L 523.739413 161.453441 
L 524.702589 149.172192 
L 525.665765 140.101247 
L 526.628941 133.06474 
L 527.592117 131.366273 
L 530.481646 129.761107 
L 531.444822 127.763984 
L 532.407998 125.356291 
L 533.371174 123.825782 
L 534.33435 138.701409 
L 537.223878 150.758687 
L 538.187054 151.467942 
L 539.15023 155.686129 
L 540.113406 153.371708 
L 541.076582 151.430599 
L 543.96611 128.032007 
L 544.929287 124.032566 
L 545.892463 125.153904 
L 546.855639 126.798526 
L 547.818815 127.153625 
L 550.708343 131.788492 
L 551.671519 135.376763 
L 552.634695 144.291428 
L 553.597871 145.655722 
L 554.561047 157.037291 
L 558.413751 147.804928 
L 559.376928 147.412487 
L 560.340104 148.290869 
L 561.30328 146.608847 
L 564.192808 145.020296 
L 565.155984 142.086122 
L 566.11916 142.927105 
L 567.082336 147.019988 
L 568.045512 140.871341 
L 570.93504 145.487509 
L 571.898216 143.207461 
L 572.861392 150.477474 
L 573.824568 149.692535 
L 574.787745 154.832014 
L 577.677273 151.150272 
L 578.640449 156.345822 
L 579.603625 154.589058 
L 581.529977 146.328519 
L 584.419505 145.394066 
L 585.382681 147.636743 
L 586.345857 145.281924 
L 587.309033 146.328519 
L 588.272209 146.179006 
L 591.161738 138.535222 
L 592.124914 133.582628 
L 593.08809 124.948319 
L 594.051266 122.873827 
L 597.90397 129.601886 
L 598.867146 129.489744 
L 600.793498 125.00439 
L 601.756674 127.34051 
L 604.646203 132.087519 
L 605.609379 131.171737 
L 606.572555 129.209388 
L 607.535731 129.471044 
L 608.498907 127.303138 
L 611.388435 124.873577 
L 612.351611 121.285277 
L 613.314787 121.752518 
L 614.277963 122.481386 
L 615.241139 122.257101 
L 618.130667 121.939374 
L 619.093843 127.134925 
L 620.05702 131.28388 
L 621.020196 134.04984 
L 621.983372 143.749416 
L 624.8729 141.93658 
L 625.836076 142.740248 
L 626.799252 123.434511 
L 627.762428 110.76339 
L 628.725604 93.345231 
L 631.615132 96.918914 
L 632.578308 92.297493 
L 633.541484 85.412127 
L 634.504661 86.441193 
L 635.467837 88.667711 
L 638.357365 89.977419 
L 639.320541 90.594859 
L 640.283717 99.108003 
L 641.246893 101.184836 
L 642.210069 95.833719 
L 645.099597 96.956313 
L 646.062773 92.933633 
L 647.025949 90.725815 
L 647.989125 86.85282 
L 648.952301 87.638644 
L 652.805006 92.166508 
L 653.768182 75.795088 
L 653.768182 75.795088 
" clip-path="url(#p6ac597c11c)" style="fill: none; stroke: #1f77b4; stroke-width: 1.5; stroke-linecap: square"/>
   </g>
   <g id="patch_3">
    <path d="M 94.5 224.28 
L 94.5 30.24 
" style="fill: none; stroke: #000000; stroke-width: 0.8; stroke-linejoin: miter; stroke-linecap: square"/>
   </g>
   <g id="patch_4">
    <path d="M 94.5 224.28 
L 680.4 224.28 
" style="fill: none; stroke: #000000; stroke-width: 0.8; stroke-linejoin: miter; stroke-linecap: square"/>
   </g>
  </g>
 </g>
 <defs>
  <clipPath id="p6ac597c11c">
   <rect x="94.5" y="30.24" width="585.9" height="194.04"/>
  </clipPath>
 </defs>
</svg>
