<?xml version="1.0" encoding="utf-8" standalone="no"?>
<!DOCTYPE svg PUBLIC "-//W3C//DTD SVG 1.1//EN"
  "http://www.w3.org/Graphics/SVG/1.1/DTD/svg11.dtd">
<svg xmlns:xlink="http://www.w3.org/1999/xlink" width="756pt" height="252pt" viewBox="0 0 756 252" xmlns="http://www.w3.org/2000/svg" version="1.1">
 <metadata>
  <rdf:RDF xmlns:dc="http://purl.org/dc/elements/1.1/" xmlns:cc="http://creativecommons.org/ns#" xmlns:rdf="http://www.w3.org/1999/02/22-rdf-syntax-ns#">
   <cc:Work>
    <dc:type rdf:resource="http://purl.org/dc/dcmitype/StillImage"/>
    <dc:date>2025-09-05T01:36:58.935471</dc:date>
    <dc:format>image/svg+xml</dc:format>
    <dc:creator>
     <cc:Agent>
      <dc:title>Matplotlib v3.10.5, https://matplotlib.org/</dc:title>
     </cc:Agent>
    </dc:creator>
   </cc:Work>
  </rdf:RDF>
 </metadata>
 <defs>
  <style type="text/css">*{stroke-linejoin: round; stroke-linecap: butt}</style>
 </defs>
 <g id="figure_1">
  <g id="patch_1">
   <path d="M 0 252 
L 756 252 
L 756 0 
L 0 0 
z
" style="fill: #ffffff"/>
  </g>
  <g id="axes_1">
   <g id="patch_2">
    <path d="M 94.5 224.28 
L 680.4 224.28 
L 680.4 30.24 
L 94.5 30.24 
z
" style="fill: #ffffff"/>
   </g>
   <g id="matplotlib.axis_1">
    <g id="xtick_1">
     <g id="line2d_1">
      <defs>
       <path id="mbfc56549b7" d="M 0 0 
L 0 3.5 
" style="stroke: #000000; stroke-width: 0.8"/>
      </defs>
      <g>
       <use xlink:href="#mbfc56549b7" x="146.495455" y="224.28" style="stroke: #000000; stroke-width: 0.8"/>
      </g>
     </g>
     <g id="text_1">
      <!-- 2022-01 -->
      <g transform="translate(125.604048 238.878438) scale(0.1 -0.1)">
       <defs>
        <path id="DejaVuSans-32" d="M 1228 531 
L 3431 531 
L 3431 0 
L 469 0 
L 469 531 
Q 828 903 1448 1529 
Q 2069 2156 2228 2338 
Q 2531 2678 2651 2914 
Q 2772 3150 2772 3378 
Q 2772 3750 2511 3984 
Q 2250 4219 1831 4219 
Q 1534 4219 1204 4116 
Q 875 4013 500 3803 
L 500 4441 
Q 881 4594 1212 4672 
Q 1544 4750 1819 4750 
Q 2544 4750 2975 4387 
Q 3406 4025 3406 3419 
Q 3406 3131 3298 2873 
Q 3191 2616 2906 2266 
Q 2828 2175 2409 1742 
Q 1991 1309 1228 531 
z
" transform="scale(0.015625)"/>
        <path id="DejaVuSans-30" d="M 2034 4250 
Q 1547 4250 1301 3770 
Q 1056 3291 1056 2328 
Q 1056 1369 1301 889 
Q 1547 409 2034 409 
Q 2525 409 2770 889 
Q 3016 1369 3016 2328 
Q 3016 3291 2770 3770 
Q 2525 4250 2034 4250 
z
M 2034 4750 
Q 2819 4750 3233 4129 
Q 3647 3509 3647 2328 
Q 3647 1150 3233 529 
Q 2819 -91 2034 -91 
Q 1250 -91 836 529 
Q 422 1150 422 2328 
Q 422 3509 836 4129 
Q 1250 4750 2034 4750 
z
" transform="scale(0.015625)"/>
        <path id="DejaVuSans-2d" d="M 313 2009 
L 1997 2009 
L 1997 1497 
L 313 1497 
L 313 2009 
z
" transform="scale(0.015625)"/>
        <path id="DejaVuSans-31" d="M 794 531 
L 1825 531 
L 1825 4091 
L 703 3866 
L 703 4441 
L 1819 4666 
L 2450 4666 
L 2450 531 
L 3481 531 
L 3481 0 
L 794 0 
L 794 531 
z
" transform="scale(0.015625)"/>
       </defs>
       <use xlink:href="#DejaVuSans-32"/>
       <use xlink:href="#DejaVuSans-30" transform="translate(63.623047 0)"/>
       <use xlink:href="#DejaVuSans-32" transform="translate(127.246094 0)"/>
       <use xlink:href="#DejaVuSans-32" transform="translate(190.869141 0)"/>
       <use xlink:href="#DejaVuSans-2d" transform="translate(254.492188 0)"/>
       <use xlink:href="#DejaVuSans-30" transform="translate(290.576172 0)"/>
       <use xlink:href="#DejaVuSans-31" transform="translate(354.199219 0)"/>
      </g>
     </g>
    </g>
    <g id="xtick_2">
     <g id="line2d_2">
      <g>
       <use xlink:href="#mbfc56549b7" x="215.015129" y="224.28" style="stroke: #000000; stroke-width: 0.8"/>
      </g>
     </g>
     <g id="text_2">
      <!-- 2022-07 -->
      <g transform="translate(194.123723 238.878438) scale(0.1 -0.1)">
       <defs>
        <path id="DejaVuSans-37" d="M 525 4666 
L 3525 4666 
L 3525 4397 
L 1831 0 
L 1172 0 
L 2766 4134 
L 525 4134 
L 525 4666 
z
" transform="scale(0.015625)"/>
       </defs>
       <use xlink:href="#DejaVuSans-32"/>
       <use xlink:href="#DejaVuSans-30" transform="translate(63.623047 0)"/>
       <use xlink:href="#DejaVuSans-32" transform="translate(127.246094 0)"/>
       <use xlink:href="#DejaVuSans-32" transform="translate(190.869141 0)"/>
       <use xlink:href="#DejaVuSans-2d" transform="translate(254.492188 0)"/>
       <use xlink:href="#DejaVuSans-30" transform="translate(290.576172 0)"/>
       <use xlink:href="#DejaVuSans-37" transform="translate(354.199219 0)"/>
      </g>
     </g>
    </g>
    <g id="xtick_3">
     <g id="line2d_3">
      <g>
       <use xlink:href="#mbfc56549b7" x="284.670488" y="224.28" style="stroke: #000000; stroke-width: 0.8"/>
      </g>
     </g>
     <g id="text_3">
      <!-- 2023-01 -->
      <g transform="translate(263.779082 238.878438) scale(0.1 -0.1)">
       <defs>
        <path id="DejaVuSans-33" d="M 2597 2516 
Q 3050 2419 3304 2112 
Q 3559 1806 3559 1356 
Q 3559 666 3084 287 
Q 2609 -91 1734 -91 
Q 1441 -91 1130 -33 
Q 819 25 488 141 
L 488 750 
Q 750 597 1062 519 
Q 1375 441 1716 441 
Q 2309 441 2620 675 
Q 2931 909 2931 1356 
Q 2931 1769 2642 2001 
Q 2353 2234 1838 2234 
L 1294 2234 
L 1294 2753 
L 1863 2753 
Q 2328 2753 2575 2939 
Q 2822 3125 2822 3475 
Q 2822 3834 2567 4026 
Q 2313 4219 1838 4219 
Q 1578 4219 1281 4162 
Q 984 4106 628 3988 
L 628 4550 
Q 988 4650 1302 4700 
Q 1616 4750 1894 4750 
Q 2613 4750 3031 4423 
Q 3450 4097 3450 3541 
Q 3450 3153 3228 2886 
Q 3006 2619 2597 2516 
z
" transform="scale(0.015625)"/>
       </defs>
       <use xlink:href="#DejaVuSans-32"/>
       <use xlink:href="#DejaVuSans-30" transform="translate(63.623047 0)"/>
       <use xlink:href="#DejaVuSans-32" transform="translate(127.246094 0)"/>
       <use xlink:href="#DejaVuSans-33" transform="translate(190.869141 0)"/>
       <use xlink:href="#DejaVuSans-2d" transform="translate(254.492188 0)"/>
       <use xlink:href="#DejaVuSans-30" transform="translate(290.576172 0)"/>
       <use xlink:href="#DejaVuSans-31" transform="translate(354.199219 0)"/>
      </g>
     </g>
    </g>
    <g id="xtick_4">
     <g id="line2d_4">
      <g>
       <use xlink:href="#mbfc56549b7" x="353.190163" y="224.28" style="stroke: #000000; stroke-width: 0.8"/>
      </g>
     </g>
     <g id="text_4">
      <!-- 2023-07 -->
      <g transform="translate(332.298757 238.878438) scale(0.1 -0.1)">
       <use xlink:href="#DejaVuSans-32"/>
       <use xlink:href="#DejaVuSans-30" transform="translate(63.623047 0)"/>
       <use xlink:href="#DejaVuSans-32" transform="translate(127.246094 0)"/>
       <use xlink:href="#DejaVuSans-33" transform="translate(190.869141 0)"/>
       <use xlink:href="#DejaVuSans-2d" transform="translate(254.492188 0)"/>
       <use xlink:href="#DejaVuSans-30" transform="translate(290.576172 0)"/>
       <use xlink:href="#DejaVuSans-37" transform="translate(354.199219 0)"/>
      </g>
     </g>
    </g>
    <g id="xtick_5">
     <g id="line2d_5">
      <g>
       <use xlink:href="#mbfc56549b7" x="422.845522" y="224.28" style="stroke: #000000; stroke-width: 0.8"/>
      </g>
     </g>
     <g id="text_5">
      <!-- 2024-01 -->
      <g transform="translate(401.954116 238.878438) scale(0.1 -0.1)">
       <defs>
        <path id="DejaVuSans-34" d="M 2419 4116 
L 825 1625 
L 2419 1625 
L 2419 4116 
z
M 2253 4666 
L 3047 4666 
L 3047 1625 
L 3713 1625 
L 3713 1100 
L 3047 1100 
L 3047 0 
L 2419 0 
L 2419 1100 
L 313 1100 
L 313 1709 
L 2253 4666 
z
" transform="scale(0.015625)"/>
       </defs>
       <use xlink:href="#DejaVuSans-32"/>
       <use xlink:href="#DejaVuSans-30" transform="translate(63.623047 0)"/>
       <use xlink:href="#DejaVuSans-32" transform="translate(127.246094 0)"/>
       <use xlink:href="#DejaVuSans-34" transform="translate(190.869141 0)"/>
       <use xlink:href="#DejaVuSans-2d" transform="translate(254.492188 0)"/>
       <use xlink:href="#DejaVuSans-30" transform="translate(290.576172 0)"/>
       <use xlink:href="#DejaVuSans-31" transform="translate(354.199219 0)"/>
      </g>
     </g>
    </g>
    <g id="xtick_6">
     <g id="line2d_6">
      <g>
       <use xlink:href="#mbfc56549b7" x="491.743758" y="224.28" style="stroke: #000000; stroke-width: 0.8"/>
      </g>
     </g>
     <g id="text_6">
      <!-- 2024-07 -->
      <g transform="translate(470.852352 238.878438) scale(0.1 -0.1)">
       <use xlink:href="#DejaVuSans-32"/>
       <use xlink:href="#DejaVuSans-30" transform="translate(63.623047 0)"/>
       <use xlink:href="#DejaVuSans-32" transform="translate(127.246094 0)"/>
       <use xlink:href="#DejaVuSans-34" transform="translate(190.869141 0)"/>
       <use xlink:href="#DejaVuSans-2d" transform="translate(254.492188 0)"/>
       <use xlink:href="#DejaVuSans-30" transform="translate(290.576172 0)"/>
       <use xlink:href="#DejaVuSans-37" transform="translate(354.199219 0)"/>
      </g>
     </g>
    </g>
    <g id="xtick_7">
     <g id="line2d_7">
      <g>
       <use xlink:href="#mbfc56549b7" x="561.399118" y="224.28" style="stroke: #000000; stroke-width: 0.8"/>
      </g>
     </g>
     <g id="text_7">
      <!-- 2025-01 -->
      <g transform="translate(540.507712 238.878438) scale(0.1 -0.1)">
       <defs>
        <path id="DejaVuSans-35" d="M 691 4666 
L 3169 4666 
L 3169 4134 
L 1269 4134 
L 1269 2991 
Q 1406 3038 1543 3061 
Q 1681 3084 1819 3084 
Q 2600 3084 3056 2656 
Q 3513 2228 3513 1497 
Q 3513 744 3044 326 
Q 2575 -91 1722 -91 
Q 1428 -91 1123 -41 
Q 819 9 494 109 
L 494 744 
Q 775 591 1075 516 
Q 1375 441 1709 441 
Q 2250 441 2565 725 
Q 2881 1009 2881 1497 
Q 2881 1984 2565 2268 
Q 2250 2553 1709 2553 
Q 1456 2553 1204 2497 
Q 953 2441 691 2322 
L 691 4666 
z
" transform="scale(0.015625)"/>
       </defs>
       <use xlink:href="#DejaVuSans-32"/>
       <use xlink:href="#DejaVuSans-30" transform="translate(63.623047 0)"/>
       <use xlink:href="#DejaVuSans-32" transform="translate(127.246094 0)"/>
       <use xlink:href="#DejaVuSans-35" transform="translate(190.869141 0)"/>
       <use xlink:href="#DejaVuSans-2d" transform="translate(254.492188 0)"/>
       <use xlink:href="#DejaVuSans-30" transform="translate(290.576172 0)"/>
       <use xlink:href="#DejaVuSans-31" transform="translate(354.199219 0)"/>
      </g>
     </g>
    </g>
    <g id="xtick_8">
     <g id="line2d_8">
      <g>
       <use xlink:href="#mbfc56549b7" x="629.918792" y="224.28" style="stroke: #000000; stroke-width: 0.8"/>
      </g>
     </g>
     <g id="text_8">
      <!-- 2025-07 -->
      <g transform="translate(609.027386 238.878438) scale(0.1 -0.1)">
       <use xlink:href="#DejaVuSans-32"/>
       <use xlink:href="#DejaVuSans-30" transform="translate(63.623047 0)"/>
       <use xlink:href="#DejaVuSans-32" transform="translate(127.246094 0)"/>
       <use xlink:href="#DejaVuSans-35" transform="translate(190.869141 0)"/>
       <use xlink:href="#DejaVuSans-2d" transform="translate(254.492188 0)"/>
       <use xlink:href="#DejaVuSans-30" transform="translate(290.576172 0)"/>
       <use xlink:href="#DejaVuSans-37" transform="translate(354.199219 0)"/>
      </g>
     </g>
    </g>
   </g>
   <g id="matplotlib.axis_2">
    <g id="ytick_1">
     <g id="line2d_9">
      <defs>
       <path id="me1a81a0c0e" d="M 0 0 
L -3.5 0 
" style="stroke: #000000; stroke-width: 0.8"/>
      </defs>
      <g>
       <use xlink:href="#me1a81a0c0e" x="94.5" y="219.753278" style="stroke: #000000; stroke-width: 0.8"/>
      </g>
     </g>
     <g id="text_9">
      <!-- 120 -->
      <g transform="translate(68.4125 223.552497) scale(0.1 -0.1)">
       <use xlink:href="#DejaVuSans-31"/>
       <use xlink:href="#DejaVuSans-32" transform="translate(63.623047 0)"/>
       <use xlink:href="#DejaVuSans-30" transform="translate(127.246094 0)"/>
      </g>
     </g>
    </g>
    <g id="ytick_2">
     <g id="line2d_10">
      <g>
       <use xlink:href="#me1a81a0c0e" x="94.5" y="193.585516" style="stroke: #000000; stroke-width: 0.8"/>
      </g>
     </g>
     <g id="text_10">
      <!-- 140 -->
      <g transform="translate(68.4125 197.384735) scale(0.1 -0.1)">
       <use xlink:href="#DejaVuSans-31"/>
       <use xlink:href="#DejaVuSans-34" transform="translate(63.623047 0)"/>
       <use xlink:href="#DejaVuSans-30" transform="translate(127.246094 0)"/>
      </g>
     </g>
    </g>
    <g id="ytick_3">
     <g id="line2d_11">
      <g>
       <use xlink:href="#me1a81a0c0e" x="94.5" y="167.417754" style="stroke: #000000; stroke-width: 0.8"/>
      </g>
     </g>
     <g id="text_11">
      <!-- 160 -->
      <g transform="translate(68.4125 171.216972) scale(0.1 -0.1)">
       <defs>
        <path id="DejaVuSans-36" d="M 2113 2584 
Q 1688 2584 1439 2293 
Q 1191 2003 1191 1497 
Q 1191 994 1439 701 
Q 1688 409 2113 409 
Q 2538 409 2786 701 
Q 3034 994 3034 1497 
Q 3034 2003 2786 2293 
Q 2538 2584 2113 2584 
z
M 3366 4563 
L 3366 3988 
Q 3128 4100 2886 4159 
Q 2644 4219 2406 4219 
Q 1781 4219 1451 3797 
Q 1122 3375 1075 2522 
Q 1259 2794 1537 2939 
Q 1816 3084 2150 3084 
Q 2853 3084 3261 2657 
Q 3669 2231 3669 1497 
Q 3669 778 3244 343 
Q 2819 -91 2113 -91 
Q 1303 -91 875 529 
Q 447 1150 447 2328 
Q 447 3434 972 4092 
Q 1497 4750 2381 4750 
Q 2619 4750 2861 4703 
Q 3103 4656 3366 4563 
z
" transform="scale(0.015625)"/>
       </defs>
       <use xlink:href="#DejaVuSans-31"/>
       <use xlink:href="#DejaVuSans-36" transform="translate(63.623047 0)"/>
       <use xlink:href="#DejaVuSans-30" transform="translate(127.246094 0)"/>
      </g>
     </g>
    </g>
    <g id="ytick_4">
     <g id="line2d_12">
      <g>
       <use xlink:href="#me1a81a0c0e" x="94.5" y="141.249991" style="stroke: #000000; stroke-width: 0.8"/>
      </g>
     </g>
     <g id="text_12">
      <!-- 180 -->
      <g transform="translate(68.4125 145.04921) scale(0.1 -0.1)">
       <defs>
        <path id="DejaVuSans-38" d="M 2034 2216 
Q 1584 2216 1326 1975 
Q 1069 1734 1069 1313 
Q 1069 891 1326 650 
Q 1584 409 2034 409 
Q 2484 409 2743 651 
Q 3003 894 3003 1313 
Q 3003 1734 2745 1975 
Q 2488 2216 2034 2216 
z
M 1403 2484 
Q 997 2584 770 2862 
Q 544 3141 544 3541 
Q 544 4100 942 4425 
Q 1341 4750 2034 4750 
Q 2731 4750 3128 4425 
Q 3525 4100 3525 3541 
Q 3525 3141 3298 2862 
Q 3072 2584 2669 2484 
Q 3125 2378 3379 2068 
Q 3634 1759 3634 1313 
Q 3634 634 3220 271 
Q 2806 -91 2034 -91 
Q 1263 -91 848 271 
Q 434 634 434 1313 
Q 434 1759 690 2068 
Q 947 2378 1403 2484 
z
M 1172 3481 
Q 1172 3119 1398 2916 
Q 1625 2713 2034 2713 
Q 2441 2713 2670 2916 
Q 2900 3119 2900 3481 
Q 2900 3844 2670 4047 
Q 2441 4250 2034 4250 
Q 1625 4250 1398 4047 
Q 1172 3844 1172 3481 
z
" transform="scale(0.015625)"/>
       </defs>
       <use xlink:href="#DejaVuSans-31"/>
       <use xlink:href="#DejaVuSans-38" transform="translate(63.623047 0)"/>
       <use xlink:href="#DejaVuSans-30" transform="translate(127.246094 0)"/>
      </g>
     </g>
    </g>
    <g id="ytick_5">
     <g id="line2d_13">
      <g>
       <use xlink:href="#me1a81a0c0e" x="94.5" y="115.082229" style="stroke: #000000; stroke-width: 0.8"/>
      </g>
     </g>
     <g id="text_13">
      <!-- 200 -->
      <g transform="translate(68.4125 118.881448) scale(0.1 -0.1)">
       <use xlink:href="#DejaVuSans-32"/>
       <use xlink:href="#DejaVuSans-30" transform="translate(63.623047 0)"/>
       <use xlink:href="#DejaVuSans-30" transform="translate(127.246094 0)"/>
      </g>
     </g>
    </g>
    <g id="ytick_6">
     <g id="line2d_14">
      <g>
       <use xlink:href="#me1a81a0c0e" x="94.5" y="88.914467" style="stroke: #000000; stroke-width: 0.8"/>
      </g>
     </g>
     <g id="text_14">
      <!-- 220 -->
      <g transform="translate(68.4125 92.713685) scale(0.1 -0.1)">
       <use xlink:href="#DejaVuSans-32"/>
       <use xlink:href="#DejaVuSans-32" transform="translate(63.623047 0)"/>
       <use xlink:href="#DejaVuSans-30" transform="translate(127.246094 0)"/>
      </g>
     </g>
    </g>
    <g id="ytick_7">
     <g id="line2d_15">
      <g>
       <use xlink:href="#me1a81a0c0e" x="94.5" y="62.746704" style="stroke: #000000; stroke-width: 0.8"/>
      </g>
     </g>
     <g id="text_15">
      <!-- 240 -->
      <g transform="translate(68.4125 66.545923) scale(0.1 -0.1)">
       <use xlink:href="#DejaVuSans-32"/>
       <use xlink:href="#DejaVuSans-34" transform="translate(63.623047 0)"/>
       <use xlink:href="#DejaVuSans-30" transform="translate(127.246094 0)"/>
      </g>
     </g>
    </g>
    <g id="ytick_8">
     <g id="line2d_16">
      <g>
       <use xlink:href="#me1a81a0c0e" x="94.5" y="36.578942" style="stroke: #000000; stroke-width: 0.8"/>
      </g>
     </g>
     <g id="text_16">
      <!-- 260 -->
      <g transform="translate(68.4125 40.378161) scale(0.1 -0.1)">
       <use xlink:href="#DejaVuSans-32"/>
       <use xlink:href="#DejaVuSans-36" transform="translate(63.623047 0)"/>
       <use xlink:href="#DejaVuSans-30" transform="translate(127.246094 0)"/>
      </g>
     </g>
    </g>
   </g>
   <g id="line2d_17">
    <path d="M 121.131818 185.499168 
L 121.51038 186.101135 
L 121.888942 181.336267 
L 122.267503 184.884324 
L 123.403189 185.960226 
L 123.78175 184.602506 
L 124.160312 182.719602 
L 124.538874 183.398532 
L 124.917436 182.705826 
L 126.053121 183.783326 
L 126.431682 183.308692 
L 126.810244 187.015805 
L 127.188806 187.08001 
L 127.567368 184.360557 
L 128.703053 184.34774 
L 129.081615 183.064966 
L 129.460176 179.870959 
L 129.838738 174.252512 
L 130.2173 170.814739 
L 131.352985 170.211874 
L 132.110109 169.031737 
L 132.867232 175.612189 
L 134.002917 171.212391 
L 134.381479 164.721659 
L 134.760041 165.401547 
L 135.138602 166.697158 
L 135.517164 169.160008 
L 136.652849 164.696024 
L 137.031411 157.179141 
L 137.409973 152.176457 
L 137.788535 152.843469 
L 138.167096 146.570788 
L 139.681343 153.138443 
L 140.059905 146.763245 
L 140.438467 155.793731 
L 140.817028 157.23043 
L 141.952714 159.013472 
L 142.709837 151.458078 
L 143.088399 150.637101 
L 144.602646 145.44198 
L 144.981208 146.776082 
L 145.359769 146.660588 
L 145.738331 148.17425 
L 146.116893 148.98235 
L 147.252578 143.286981 
L 147.63114 146.2501 
L 148.009701 152.381672 
L 148.388263 156.127296 
L 148.766825 155.909185 
L 149.90251 155.88355 
L 150.281072 152.176457 
L 150.659634 151.599166 
L 151.038195 155.88355 
L 151.416757 154.754722 
L 152.931004 158.949346 
L 153.309566 163.528745 
L 154.066689 168.428792 
L 155.202374 169.442186 
L 155.580936 171.802399 
L 155.959498 171.917893 
L 156.33806 172.520819 
L 156.716621 158.269478 
L 157.852307 152.561232 
L 158.230868 152.779283 
L 158.60943 151.201495 
L 158.987992 154.972774 
L 159.366554 155.34529 
L 160.502239 156.282879 
L 160.880801 152.211355 
L 161.259362 150.349034 
L 162.016486 160.161726 
L 163.152171 159.853415 
L 163.530733 154.831545 
L 163.909294 155.139796 
L 164.287856 159.853415 
L 164.666418 161.882778 
L 166.180665 165.710217 
L 166.559227 171.168828 
L 167.31635 165.02947 
L 168.452035 164.682748 
L 168.830597 167.148773 
L 169.209159 162.833184 
L 169.58772 163.257089 
L 169.966282 167.187304 
L 171.101967 172.157846 
L 171.480529 174.546788 
L 171.859091 167.469781 
L 172.616214 178.027484 
L 173.7519 183.306256 
L 174.509023 171.785349 
L 174.887585 170.462427 
L 175.266147 166.146919 
L 176.401832 164.348823 
L 176.780393 159.930498 
L 177.158955 158.14518 
L 177.537517 153.187496 
L 177.916079 152.352663 
L 179.051764 151.222418 
L 179.430326 146.906869 
L 179.808887 148.435305 
L 180.187449 152.493952 
L 180.566011 152.879285 
L 181.701696 147.574739 
L 182.45882 156.064548 
L 182.837381 155.666358 
L 183.215943 158.299285 
L 184.351628 163.87353 
L 184.73019 161.420382 
L 185.108752 157.901234 
L 185.487313 164.464397 
L 187.00156 164.746914 
L 187.380122 161.754387 
L 187.758684 161.972678 
L 188.137246 163.013004 
L 188.515807 168.959725 
L 189.651493 167.559701 
L 190.030054 175.368763 
L 190.408616 175.664216 
L 190.787178 166.58362 
L 191.165739 174.277069 
L 192.301425 173.878878 
L 192.679986 171.926678 
L 193.058548 163.526768 
L 193.43711 175.407314 
L 193.815672 174.455471 
L 194.951357 181.169804 
L 195.329919 178.01844 
L 195.70848 188.321478 
L 196.087042 193.389366 
L 196.465604 187.536816 
L 197.601289 189.556317 
L 197.979851 184.797079 
L 198.358412 195.627457 
L 198.736974 200.090842 
L 199.115536 199.782092 
L 200.251221 192.681926 
L 200.629783 196.219162 
L 201.008345 196.013329 
L 201.386906 191.820102 
L 201.765468 184.282576 
L 203.658277 185.478804 
L 204.036839 182.263155 
L 204.4154 189.76209 
L 205.551085 188.784493 
L 205.929647 185.478804 
L 206.308209 186.443485 
L 207.065332 200.373797 
L 208.201018 207.126682 
L 208.579579 205.994819 
L 208.958141 202.56046 
L 209.336703 209.46771 
L 209.715265 207.538289 
L 211.229512 201.994509 
L 211.608073 202.663377 
L 212.365197 194.546982 
L 213.500882 194.546982 
L 213.879444 199.975048 
L 214.258005 197.672672 
L 214.636567 200.901158 
L 215.015129 198.058524 
L 216.529376 194.675633 
L 216.907938 192.926291 
L 217.286499 188.514374 
L 217.665061 187.626896 
L 218.800746 190.418081 
L 219.179308 189.144631 
L 219.55787 189.620602 
L 219.936431 185.787534 
L 220.314993 183.600891 
L 221.450678 187.588245 
L 221.82924 182.533234 
L 222.586364 176.937966 
L 222.964925 178.558698 
L 224.100611 180.025044 
L 224.479172 181.761469 
L 224.857734 175.085767 
L 225.236296 174.365431 
L 225.614858 167.72826 
L 226.750543 169.014608 
L 227.129104 170.943969 
L 227.507666 163.071959 
L 228.26479 163.779837 
L 229.400475 164.398115 
L 229.779037 164.33375 
L 230.157598 158.769307 
L 230.53616 159.735366 
L 230.914722 155.085493 
L 232.050407 153.681475 
L 232.428969 153.887588 
L 232.807531 151.929757 
L 233.186092 152.444959 
L 233.564654 155.832541 
L 234.700339 160.920374 
L 235.078901 161.358353 
L 235.457463 160.971922 
L 235.836024 157.751741 
L 236.214586 166.008226 
L 237.350271 168.893464 
L 237.728833 172.074893 
L 238.107395 174.251754 
L 238.485957 173.298553 
L 238.864518 176.067937 
L 240.378765 177.716618 
L 240.757327 175.874681 
L 241.135889 177.806778 
L 241.51445 174.058558 
L 242.650136 166.25293 
L 243.028697 178.605414 
L 243.407259 176.711889 
L 243.785821 180.49882 
L 244.164383 182.649906 
L 245.300068 177.781044 
L 245.67863 174.663939 
L 246.057191 178.759959 
L 246.435753 180.022229 
L 246.814315 182.997666 
L 247.95 182.559727 
L 248.328562 181.284499 
L 248.707123 183.757592 
L 249.085685 193.237676 
L 249.464247 198.750531 
L 250.599932 193.276347 
L 250.978494 188.574926 
L 251.357056 188.188535 
L 251.735617 189.437948 
L 252.114179 196.316169 
L 253.249864 195.891087 
L 253.628426 197.745921 
L 254.006988 198.570232 
L 254.38555 192.580787 
L 254.764111 198.518704 
L 256.278358 191.601851 
L 256.65692 191.460164 
L 257.035482 192.065565 
L 257.414043 187.067912 
L 258.549729 184.259937 
L 258.92829 180.537431 
L 259.306852 184.388707 
L 259.685414 190.249382 
L 260.063976 176.158096 
L 261.199661 179.249407 
L 261.578223 182.714271 
L 262.335346 197.874692 
L 262.713908 198.223011 
L 263.849593 197.526332 
L 264.228155 196.778026 
L 264.606716 202.75162 
L 264.985278 187.269313 
L 265.36384 183.61806 
L 266.499525 185.450155 
L 266.878087 183.179402 
L 267.256649 184.792148 
L 267.63521 182.302046 
L 268.013772 181.566677 
L 269.149457 185.798514 
L 269.528019 182.998764 
L 269.906581 181.850491 
L 270.663704 185.669464 
L 271.799389 190.688319 
L 272.177951 194.623426 
L 272.556513 185.77272 
L 272.935075 185.411424 
L 273.313636 186.056515 
L 274.449322 187.578941 
L 274.827883 192.378467 
L 275.206445 194.920137 
L 275.585007 192.713949 
L 275.963569 193.346103 
L 277.477815 189.075594 
L 277.856377 191.991417 
L 278.234939 200.648628 
L 278.613501 203.216092 
L 279.749186 205.977091 
L 280.127748 206.06739 
L 280.506309 202.003313 
L 280.884871 206.157709 
L 281.263433 206.635138 
L 282.77768 208.99615 
L 283.156242 214.144005 
L 283.534803 209.538024 
L 283.913365 209.12516 
L 285.427612 215.395485 
L 285.806174 213.731151 
L 286.184735 215.46 
L 286.563297 209.525127 
L 287.698982 208.841366 
L 288.077544 208.09302 
L 288.456106 204.532106 
L 288.834668 204.635302 
L 289.213229 202.893547 
L 290.727476 201.3711 
L 291.106038 202.312921 
L 291.4846 202.235559 
L 291.863161 198.881018 
L 292.998847 194.700788 
L 293.377408 192.868753 
L 293.75597 193.733173 
L 294.513094 188.482092 
L 295.648779 192.262394 
L 296.405902 189.127202 
L 296.784464 182.173016 
L 297.163026 177.425138 
L 298.298711 180.998988 
L 298.677273 177.231623 
L 299.055834 180.753825 
L 299.434396 182.108571 
L 299.812958 181.630443 
L 300.948643 177.960703 
L 301.327205 178.800606 
L 301.705767 176.048272 
L 302.46289 179.64051 
L 303.977137 184.899596 
L 304.734261 183.710835 
L 305.112822 187.18674 
L 306.248507 185.623187 
L 306.627069 186.282212 
L 307.005631 188.995776 
L 307.384193 188.220458 
L 307.762754 181.604609 
L 308.89844 177.986517 
L 309.277001 180.868042 
L 309.655563 179.227046 
L 310.412687 184.873743 
L 311.548372 182.328199 
L 311.926934 179.588842 
L 312.305495 179.071943 
L 312.684057 175.376389 
L 313.062619 176.474732 
L 314.198304 173.373539 
L 314.576866 170.944268 
L 314.955427 172.817909 
L 315.712551 169.690862 
L 317.226798 173.050495 
L 317.60536 169.01894 
L 317.983921 166.964402 
L 318.362483 163.682331 
L 319.498168 162.041276 
L 319.87673 162.739032 
L 320.255292 165.155386 
L 320.633853 163.992418 
L 322.1481 167.390802 
L 322.526662 168.980149 
L 322.905224 169.884677 
L 323.283786 162.829511 
L 323.662347 163.281745 
L 324.798033 163.255911 
L 325.555156 160.154678 
L 325.933718 161.421001 
L 326.31228 163.527267 
L 327.447965 163.126641 
L 327.826526 165.142449 
L 328.205088 165.155386 
L 328.58365 159.146795 
L 328.962212 157.505779 
L 330.097897 157.622052 
L 330.85502 160.387244 
L 331.233582 162.532321 
L 331.612144 152.479238 
L 332.747829 152.569737 
L 333.126391 154.805152 
L 333.504953 152.492195 
L 333.883514 152.246652 
L 334.262076 153.462985 
L 335.397761 154.109932 
L 335.776323 154.109932 
L 336.154885 153.307701 
L 336.533446 150.253984 
L 336.912008 150.111638 
L 338.047693 151.353864 
L 338.426255 154.769875 
L 338.804817 154.407561 
L 339.183379 152.919513 
L 339.56194 149.7623 
L 341.076187 147.342613 
L 341.454749 147.407297 
L 341.833311 143.732487 
L 342.211872 142.61967 
L 343.726119 144.871177 
L 344.104681 146.669772 
L 344.483243 143.111394 
L 344.861805 142.606713 
L 345.99749 138.94488 
L 346.376052 139.565993 
L 346.754613 138.737829 
L 347.133175 136.072279 
L 347.511737 137.482686 
L 349.025984 137.366253 
L 349.404545 138.724892 
L 349.783107 134.791322 
L 350.161669 135.205384 
L 351.297354 137.029813 
L 351.675916 133.419707 
L 352.054478 131.879931 
L 352.433039 131.439955 
L 352.811601 125.772436 
L 354.70441 129.188488 
L 355.082972 128.567375 
L 355.461533 130.029589 
L 356.97578 133.393813 
L 357.354342 131.20703 
L 357.732904 130.210706 
L 358.111465 130.016592 
L 359.247151 125.746602 
L 359.625712 126.083003 
L 360.004274 124.310322 
L 360.382836 126.859399 
L 360.761398 128.399175 
L 361.897083 127.351083 
L 362.654206 125.086638 
L 363.032768 126.742947 
L 363.41133 123.365706 
L 364.547015 122.563495 
L 364.925577 123.650378 
L 365.304138 127.571011 
L 365.6827 129.395519 
L 366.061262 141.273949 
L 367.196947 145.336987 
L 367.575509 144.107738 
L 367.954071 146.190965 
L 368.332632 146.475638 
L 368.711194 146.397916 
L 369.846879 144.234113 
L 370.225441 146.838431 
L 370.604003 147.978679 
L 370.982564 151.308624 
L 372.496811 148.924493 
L 372.875373 147.123523 
L 373.253935 142.083246 
L 373.632497 148.22482 
L 374.011058 145.33543 
L 375.146744 143.288199 
L 375.903867 133.622346 
L 376.282429 133.337294 
L 376.660991 131.277125 
L 378.175237 130.96616 
L 378.932361 146.695905 
L 379.310923 145.892577 
L 380.446608 144.363682 
L 380.82517 148.328476 
L 381.203731 151.036509 
L 381.582293 149.054082 
L 381.960855 149.999937 
L 383.475102 144.739392 
L 383.853664 149.377985 
L 384.232225 151.399323 
L 384.610787 150.284989 
L 385.746472 148.613567 
L 386.125034 153.951813 
L 386.503596 155.93424 
L 386.882157 155.597361 
L 387.260719 154.923581 
L 388.396404 151.632527 
L 388.774966 153.381729 
L 389.53209 150.129526 
L 389.910651 146.786604 
L 391.046336 144.843067 
L 391.424898 145.620502 
L 391.80346 143.793558 
L 392.182022 142.614479 
L 392.560583 145.024444 
L 393.696269 145.192884 
L 394.453392 148.924493 
L 394.831954 149.416916 
L 395.210516 152.759778 
L 396.346201 152.604275 
L 396.724763 152.034191 
L 397.103324 155.066127 
L 397.481886 160.521025 
L 397.860448 158.797737 
L 399.374695 155.493705 
L 400.131818 146.682968 
L 400.51038 147.875004 
L 401.646065 144.532122 
L 402.024627 141.176243 
L 402.403189 139.789834 
L 402.78175 140.411785 
L 403.160312 134.923766 
L 404.295997 136.999607 
L 404.674559 133.574471 
L 405.053121 132.834969 
L 405.431682 130.62936 
L 405.810244 130.655274 
L 406.945929 128.371883 
L 407.324491 129.42277 
L 407.703053 128.5535 
L 408.460176 130.292041 
L 409.595862 130.525605 
L 409.974423 129.734155 
L 410.352985 131.070494 
L 410.731547 130.318015 
L 411.110109 128.644318 
L 412.245794 130.992672 
L 412.624355 125.815979 
L 413.002917 127.243095 
L 413.760041 122.844934 
L 414.895726 126.127384 
L 415.274288 124.142341 
L 415.652849 119.925776 
L 416.031411 119.731163 
L 417.545658 122.61141 
L 417.92422 121.249138 
L 418.302782 123.986659 
L 418.681343 124.181272 
L 419.059905 125.582455 
L 420.574152 126.296043 
L 420.952714 126.166314 
L 421.331275 125.608429 
L 421.709837 126.970701 
L 423.981208 140.749124 
L 424.359769 141.696216 
L 425.495455 136.013584 
L 425.874016 136.558493 
L 426.252578 135.196221 
L 426.63114 135.974693 
L 427.009701 135.546516 
L 428.523948 138.517581 
L 428.90251 139.750124 
L 429.281072 132.030563 
L 429.659634 128.229178 
L 430.795319 125.206265 
L 431.173881 123.532588 
L 431.552442 124.414816 
L 431.931004 124.842953 
L 432.309566 127.113426 
L 433.445251 128.008611 
L 434.202374 137.518602 
L 434.580936 134.32695 
L 434.959498 135.637334 
L 436.095183 133.263086 
L 436.473745 131.161292 
L 436.852307 131.018586 
L 437.230868 132.432766 
L 437.60943 131.432489 
L 438.745115 133.640893 
L 439.123677 136.381907 
L 439.502239 137.538087 
L 439.880801 137.914795 
L 440.259362 139.928347 
L 441.773609 140.90263 
L 442.152171 139.91533 
L 442.530733 137.252276 
L 442.909294 139.655533 
L 444.04498 141.422244 
L 444.423541 139.512648 
L 444.802103 141.084486 
L 445.180665 141.954875 
L 445.559227 143.370831 
L 446.694912 149.294554 
L 447.073474 155.763864 
L 447.452035 157.062929 
L 447.830597 157.218831 
L 448.209159 154.971456 
L 449.723406 151.723804 
L 450.101967 154.451802 
L 450.480529 152.022552 
L 450.859091 152.516232 
L 451.994776 151.087259 
L 452.7519 144.656899 
L 453.130461 154.140058 
L 453.509023 152.957905 
L 454.644708 154.815534 
L 455.02327 156.296475 
L 455.401832 151.619889 
L 455.780393 153.997153 
L 457.29464 155.880775 
L 457.673202 157.42666 
L 458.051764 156.374436 
L 458.430326 157.452654 
L 458.808887 156.465374 
L 459.944573 157.933277 
L 460.323134 156.348462 
L 460.701696 158.803666 
L 461.080258 149.372535 
L 461.45882 147.410931 
L 462.594505 152.425294 
L 462.973066 156.725171 
L 463.351628 158.517875 
L 463.73019 159.764973 
L 464.108752 162.41505 
L 465.244437 161.323874 
L 465.622999 159.946849 
L 466.00156 157.192817 
L 466.380122 156.062651 
L 466.758684 156.829085 
L 467.894369 151.373049 
L 468.272931 155.49107 
L 468.651493 156.829085 
L 469.030054 151.983641 
L 469.408616 138.538344 
L 470.544301 140.707758 
L 470.922863 139.811435 
L 471.301425 139.369722 
L 471.679986 136.992459 
L 472.058548 138.644515 
L 473.572795 132.946909 
L 473.951357 129.968019 
L 474.70848 129.772906 
L 475.844166 128.250959 
L 476.222727 126.546856 
L 476.601289 128.433054 
L 476.979851 133.662354 
L 477.358412 129.629821 
L 478.872659 129.616805 
L 479.251221 129.22656 
L 480.008345 126.676964 
L 481.14403 124.361471 
L 481.522592 123.945213 
L 481.901153 121.967997 
L 482.279715 123.776134 
L 482.658277 120.641142 
L 483.793962 125.545241 
L 484.172524 107.294728 
L 484.551085 99.593833 
L 484.929647 98.071886 
L 485.308209 100.348309 
L 486.443894 94.910879 
L 487.958141 106.852397 
L 489.093826 106.006883 
L 489.472388 104.79712 
L 489.85095 99.35971 
L 490.229512 98.254001 
L 490.608073 102.780873 
L 491.743758 94.806825 
L 492.12232 90.227946 
L 492.500882 88.562893 
L 493.258005 82.331958 
L 494.393691 80.40673 
L 494.772252 79.288023 
L 495.150814 73.694492 
L 495.529376 80.73191 
L 495.907938 76.868536 
L 497.043623 71.847325 
L 497.422185 71.300958 
L 498.179308 85.141731 
L 498.55787 84.972592 
L 499.693555 85.427861 
L 500.072117 84.062035 
L 500.450678 92.478355 
L 500.82924 93.844201 
L 501.207802 93.23281 
L 502.343487 92.868579 
L 502.722049 92.140138 
L 503.100611 87.873442 
L 503.479172 92.712498 
L 503.857734 90.761275 
L 504.993419 104.536943 
L 505.371981 107.190654 
L 505.750543 103.821498 
L 506.507666 95.470223 
L 507.643351 93.464657 
L 508.021913 88.593958 
L 508.400475 88.007882 
L 508.779037 84.100906 
L 509.157598 82.368813 
L 510.293284 82.577201 
L 510.671845 81.76976 
L 511.050407 81.913005 
L 511.428969 84.348365 
L 511.807531 81.339986 
L 512.943216 80.897195 
L 513.321777 79.790208 
L 513.700339 81.795794 
L 514.078901 77.498133 
L 514.457463 78.52694 
L 516.350271 89.140943 
L 516.728833 87.148354 
L 517.107395 89.179973 
L 518.24308 89.062782 
L 518.621642 90.104645 
L 519.000204 86.783724 
L 519.378765 86.64042 
L 519.757327 86.992073 
L 520.893012 95.040448 
L 521.271574 94.428399 
L 521.650136 89.349292 
L 522.028697 78.696258 
L 522.407259 79.568843 
L 523.542944 81.821827 
L 523.921506 80.649756 
L 524.300068 81.952095 
L 524.67863 80.454385 
L 525.057191 80.102791 
L 526.192877 73.317624 
L 526.571438 82.160444 
L 526.95 81.418127 
L 527.328562 82.863711 
L 527.707123 81.392093 
L 528.842809 88.046973 
L 529.599932 77.823713 
L 529.978494 78.474873 
L 530.357056 80.415314 
L 531.492741 75.531598 
L 531.871303 72.210657 
L 532.249864 74.906512 
L 532.628426 74.424611 
L 533.006988 70.713006 
L 534.142673 68.785581 
L 534.521235 69.592982 
L 534.899796 76.234885 
L 535.278358 76.482304 
L 535.65692 75.388334 
L 536.792605 72.796732 
L 537.171167 72.445099 
L 538.306852 86.458144 
L 539.442537 87.630235 
L 539.821099 85.754878 
L 540.199661 86.705583 
L 540.578223 80.506492 
L 540.956784 80.858504 
L 542.092469 84.417781 
L 542.471031 84.417781 
L 542.849593 83.257449 
L 543.228155 79.215752 
L 543.606716 83.41387 
L 544.742402 79.476507 
L 545.120963 79.137571 
L 545.499525 78.198825 
L 545.878087 78.824629 
L 546.256649 77.064586 
L 547.392334 73.153297 
L 547.770896 70.298046 
L 548.149457 70.467564 
L 548.906581 67.3385 
L 550.042266 64.392032 
L 550.420828 60.402522 
L 550.799389 59.933159 
L 551.177951 59.894048 
L 551.556513 60.154804 
L 553.07076 53.727279 
L 553.449322 55.396065 
L 553.827883 53.479561 
L 554.206445 53.257896 
L 555.34213 49.463997 
L 555.720692 46.282807 
L 556.099254 53.36221 
L 556.477815 51.093693 
L 556.856377 44.966014 
L 557.992062 43.949086 
L 558.370624 40.129015 
L 559.127748 39.06 
L 559.506309 43.53189 
L 560.641995 47.951613 
L 561.020556 50.272297 
L 561.77768 58.837991 
L 562.156242 59.476832 
L 563.291927 57.338683 
L 563.670488 60.97618 
L 564.04905 60.337338 
L 564.806174 67.964305 
L 565.941859 71.158532 
L 566.320421 72.61875 
L 566.698982 66.634495 
L 567.077544 79.163625 
L 567.456106 76.921162 
L 568.970353 86.490766 
L 569.348915 84.939271 
L 569.727476 85.160916 
L 570.106038 86.308232 
L 571.241723 77.077603 
L 571.620285 66.126021 
L 571.998847 64.691897 
L 572.75597 69.07251 
L 573.891655 79.489564 
L 574.270217 73.244534 
L 574.648779 73.674808 
L 575.027341 72.69697 
L 575.405902 79.984981 
L 576.541588 79.632609 
L 577.677273 61.516517 
L 578.055834 57.509558 
L 579.570081 57.679236 
L 579.948643 57.157166 
L 580.327205 55.904159 
L 580.705767 56.269628 
L 581.841452 54.246574 
L 582.220014 54.324894 
L 582.598575 63.043575 
L 582.977137 67.037477 
L 583.355699 61.111898 
L 584.491384 66.084695 
L 584.869946 68.82559 
L 585.248507 69.073568 
L 585.627069 69.608694 
L 586.005631 64.727274 
L 587.141316 79.854474 
L 587.519878 88.520968 
L 587.89844 93.559009 
L 588.277001 103.086928 
L 588.655563 98.11413 
L 589.791248 97.448477 
L 590.16981 99.158269 
L 590.548372 95.830041 
L 590.926934 97.317949 
L 591.305495 91.87529 
L 592.44118 88.664532 
L 592.819742 84.722837 
L 593.198304 87.620373 
L 593.576866 84.59231 
L 593.955427 92.358229 
L 595.469674 85.453734 
L 595.848236 84.540103 
L 596.60536 130.88752 
L 597.741045 139.919463 
L 598.119607 151.718434 
L 598.498168 117.222155 
L 598.87673 128.224945 
L 599.255292 118.135807 
L 600.390977 112.432092 
L 600.769539 112.928088 
L 601.1481 123.199941 
L 601.526662 119.662865 
L 603.040909 124.648699 
L 603.798033 109.717291 
L 604.176594 104.79672 
L 604.555156 103.608997 
L 605.690841 102.486518 
L 606.826526 98.335995 
L 607.205088 108.738395 
L 608.340773 117.169948 
L 608.719335 117.665924 
L 609.097897 120.615667 
L 609.85502 117.639811 
L 610.990706 101.277373 
L 611.369267 98.480597 
L 611.747829 99.26474 
L 612.126391 100.41481 
L 612.504953 100.663127 
L 613.640638 103.904251 
L 614.019199 106.413499 
L 614.397761 112.647448 
L 614.776323 113.601488 
L 615.154885 121.560523 
L 616.669132 115.104409 
L 617.047693 114.829978 
L 617.426255 115.444224 
L 617.804817 114.268 
L 618.940502 113.15714 
L 619.319064 111.105297 
L 619.697626 111.693389 
L 620.076187 114.555508 
L 620.454749 110.255811 
L 621.590434 113.483858 
L 621.968996 111.889439 
L 622.347558 116.973299 
L 622.726119 116.424397 
L 623.104681 120.018391 
L 624.240366 117.44378 
L 624.618928 121.076985 
L 624.99749 119.848494 
L 625.754613 114.071969 
L 626.890299 113.418514 
L 627.26886 114.986799 
L 627.647422 113.340094 
L 628.025984 114.071969 
L 628.404545 113.967416 
L 629.540231 108.622182 
L 629.918792 105.158875 
L 630.297354 99.120976 
L 630.675916 97.670301 
L 632.190163 102.375176 
L 632.568725 102.296756 
L 633.325848 99.160186 
L 633.70441 100.793815 
L 634.840095 104.113358 
L 635.218657 103.47296 
L 635.597218 102.100705 
L 635.97578 102.283679 
L 636.354342 100.767681 
L 637.490027 99.068709 
L 637.868589 96.559441 
L 638.247151 96.886179 
L 638.625712 97.395871 
L 639.004274 97.23903 
L 640.139959 97.016846 
L 640.897083 103.55138 
L 641.275645 105.485593 
L 641.654206 112.268424 
L 642.789891 111.000723 
L 643.168453 111.562722 
L 643.547015 98.062383 
L 643.925577 89.201575 
L 644.304138 77.021203 
L 645.439824 79.520249 
L 645.818385 76.288529 
L 646.196947 71.473651 
L 646.575509 72.193268 
L 646.954071 73.750253 
L 648.468318 75.097891 
L 648.846879 81.051061 
L 649.225441 82.503373 
L 649.604003 78.761382 
L 650.739688 79.546403 
L 651.11825 76.733376 
L 651.496811 75.189468 
L 651.875373 72.481115 
L 652.253935 73.030636 
L 653.768182 76.196932 
L 653.768182 76.196932 
" clip-path="url(#pf3d7295edc)" style="fill: none; stroke: #1f77b4; stroke-width: 1.5; stroke-linecap: square"/>
   </g>
   <g id="patch_3">
    <path d="M 94.5 224.28 
L 94.5 30.24 
" style="fill: none; stroke: #000000; stroke-width: 0.8; stroke-linejoin: miter; stroke-linecap: square"/>
   </g>
   <g id="patch_4">
    <path d="M 94.5 224.28 
L 680.4 224.28 
" style="fill: none; stroke: #000000; stroke-width: 0.8; stroke-linejoin: miter; stroke-linecap: square"/>
   </g>
  </g>
 </g>
 <defs>
  <clipPath id="pf3d7295edc">
   <rect x="94.5" y="30.24" width="585.9" height="194.04"/>
  </clipPath>
 </defs>
</svg>
