<?xml version="1.0" encoding="utf-8" standalone="no"?>
<!DOCTYPE svg PUBLIC "-//W3C//DTD SVG 1.1//EN"
  "http://www.w3.org/Graphics/SVG/1.1/DTD/svg11.dtd">
<svg xmlns:xlink="http://www.w3.org/1999/xlink" width="756pt" height="252pt" viewBox="0 0 756 252" xmlns="http://www.w3.org/2000/svg" version="1.1">
 <metadata>
  <rdf:RDF xmlns:dc="http://purl.org/dc/elements/1.1/" xmlns:cc="http://creativecommons.org/ns#" xmlns:rdf="http://www.w3.org/1999/02/22-rdf-syntax-ns#">
   <cc:Work>
    <dc:type rdf:resource="http://purl.org/dc/dcmitype/StillImage"/>
    <dc:date>2025-09-06T23:30:02.699453</dc:date>
    <dc:format>image/svg+xml</dc:format>
    <dc:creator>
     <cc:Agent>
      <dc:title>Matplotlib v3.10.5, https://matplotlib.org/</dc:title>
     </cc:Agent>
    </dc:creator>
   </cc:Work>
  </rdf:RDF>
 </metadata>
 <defs>
  <style type="text/css">*{stroke-linejoin: round; stroke-linecap: butt}</style>
 </defs>
 <g id="figure_1">
  <g id="patch_1">
   <path d="M 0 252 
L 756 252 
L 756 0 
L 0 0 
z
" style="fill: #ffffff"/>
  </g>
  <g id="axes_1">
   <g id="patch_2">
    <path d="M 94.5 224.28 
L 680.4 224.28 
L 680.4 30.24 
L 94.5 30.24 
z
" style="fill: #ffffff"/>
   </g>
   <g id="matplotlib.axis_1">
    <g id="xtick_1">
     <g id="line2d_1">
      <defs>
       <path id="mbb7a97041e" d="M 0 0 
L 0 3.5 
" style="stroke: #000000; stroke-width: 0.8"/>
      </defs>
      <g>
       <use xlink:href="#mbb7a97041e" x="123.05817" y="224.28" style="stroke: #000000; stroke-width: 0.8"/>
      </g>
     </g>
     <g id="text_1">
      <!-- 2024-03 -->
      <g transform="translate(102.166764 238.878438) scale(0.1 -0.1)">
       <defs>
        <path id="DejaVuSans-32" d="M 1228 531 
L 3431 531 
L 3431 0 
L 469 0 
L 469 531 
Q 828 903 1448 1529 
Q 2069 2156 2228 2338 
Q 2531 2678 2651 2914 
Q 2772 3150 2772 3378 
Q 2772 3750 2511 3984 
Q 2250 4219 1831 4219 
Q 1534 4219 1204 4116 
Q 875 4013 500 3803 
L 500 4441 
Q 881 4594 1212 4672 
Q 1544 4750 1819 4750 
Q 2544 4750 2975 4387 
Q 3406 4025 3406 3419 
Q 3406 3131 3298 2873 
Q 3191 2616 2906 2266 
Q 2828 2175 2409 1742 
Q 1991 1309 1228 531 
z
" transform="scale(0.015625)"/>
        <path id="DejaVuSans-30" d="M 2034 4250 
Q 1547 4250 1301 3770 
Q 1056 3291 1056 2328 
Q 1056 1369 1301 889 
Q 1547 409 2034 409 
Q 2525 409 2770 889 
Q 3016 1369 3016 2328 
Q 3016 3291 2770 3770 
Q 2525 4250 2034 4250 
z
M 2034 4750 
Q 2819 4750 3233 4129 
Q 3647 3509 3647 2328 
Q 3647 1150 3233 529 
Q 2819 -91 2034 -91 
Q 1250 -91 836 529 
Q 422 1150 422 2328 
Q 422 3509 836 4129 
Q 1250 4750 2034 4750 
z
" transform="scale(0.015625)"/>
        <path id="DejaVuSans-34" d="M 2419 4116 
L 825 1625 
L 2419 1625 
L 2419 4116 
z
M 2253 4666 
L 3047 4666 
L 3047 1625 
L 3713 1625 
L 3713 1100 
L 3047 1100 
L 3047 0 
L 2419 0 
L 2419 1100 
L 313 1100 
L 313 1709 
L 2253 4666 
z
" transform="scale(0.015625)"/>
        <path id="DejaVuSans-2d" d="M 313 2009 
L 1997 2009 
L 1997 1497 
L 313 1497 
L 313 2009 
z
" transform="scale(0.015625)"/>
        <path id="DejaVuSans-33" d="M 2597 2516 
Q 3050 2419 3304 2112 
Q 3559 1806 3559 1356 
Q 3559 666 3084 287 
Q 2609 -91 1734 -91 
Q 1441 -91 1130 -33 
Q 819 25 488 141 
L 488 750 
Q 750 597 1062 519 
Q 1375 441 1716 441 
Q 2309 441 2620 675 
Q 2931 909 2931 1356 
Q 2931 1769 2642 2001 
Q 2353 2234 1838 2234 
L 1294 2234 
L 1294 2753 
L 1863 2753 
Q 2328 2753 2575 2939 
Q 2822 3125 2822 3475 
Q 2822 3834 2567 4026 
Q 2313 4219 1838 4219 
Q 1578 4219 1281 4162 
Q 984 4106 628 3988 
L 628 4550 
Q 988 4650 1302 4700 
Q 1616 4750 1894 4750 
Q 2613 4750 3031 4423 
Q 3450 4097 3450 3541 
Q 3450 3153 3228 2886 
Q 3006 2619 2597 2516 
z
" transform="scale(0.015625)"/>
       </defs>
       <use xlink:href="#DejaVuSans-32"/>
       <use xlink:href="#DejaVuSans-30" transform="translate(63.623047 0)"/>
       <use xlink:href="#DejaVuSans-32" transform="translate(127.246094 0)"/>
       <use xlink:href="#DejaVuSans-34" transform="translate(190.869141 0)"/>
       <use xlink:href="#DejaVuSans-2d" transform="translate(254.492188 0)"/>
       <use xlink:href="#DejaVuSans-30" transform="translate(290.576172 0)"/>
       <use xlink:href="#DejaVuSans-33" transform="translate(354.199219 0)"/>
      </g>
     </g>
    </g>
    <g id="xtick_2">
     <g id="line2d_2">
      <g>
       <use xlink:href="#mbb7a97041e" x="181.81191" y="224.28" style="stroke: #000000; stroke-width: 0.8"/>
      </g>
     </g>
     <g id="text_2">
      <!-- 2024-05 -->
      <g transform="translate(160.920504 238.878438) scale(0.1 -0.1)">
       <defs>
        <path id="DejaVuSans-35" d="M 691 4666 
L 3169 4666 
L 3169 4134 
L 1269 4134 
L 1269 2991 
Q 1406 3038 1543 3061 
Q 1681 3084 1819 3084 
Q 2600 3084 3056 2656 
Q 3513 2228 3513 1497 
Q 3513 744 3044 326 
Q 2575 -91 1722 -91 
Q 1428 -91 1123 -41 
Q 819 9 494 109 
L 494 744 
Q 775 591 1075 516 
Q 1375 441 1709 441 
Q 2250 441 2565 725 
Q 2881 1009 2881 1497 
Q 2881 1984 2565 2268 
Q 2250 2553 1709 2553 
Q 1456 2553 1204 2497 
Q 953 2441 691 2322 
L 691 4666 
z
" transform="scale(0.015625)"/>
       </defs>
       <use xlink:href="#DejaVuSans-32"/>
       <use xlink:href="#DejaVuSans-30" transform="translate(63.623047 0)"/>
       <use xlink:href="#DejaVuSans-32" transform="translate(127.246094 0)"/>
       <use xlink:href="#DejaVuSans-34" transform="translate(190.869141 0)"/>
       <use xlink:href="#DejaVuSans-2d" transform="translate(254.492188 0)"/>
       <use xlink:href="#DejaVuSans-30" transform="translate(290.576172 0)"/>
       <use xlink:href="#DejaVuSans-35" transform="translate(354.199219 0)"/>
      </g>
     </g>
    </g>
    <g id="xtick_3">
     <g id="line2d_3">
      <g>
       <use xlink:href="#mbb7a97041e" x="240.56565" y="224.28" style="stroke: #000000; stroke-width: 0.8"/>
      </g>
     </g>
     <g id="text_3">
      <!-- 2024-07 -->
      <g transform="translate(219.674244 238.878438) scale(0.1 -0.1)">
       <defs>
        <path id="DejaVuSans-37" d="M 525 4666 
L 3525 4666 
L 3525 4397 
L 1831 0 
L 1172 0 
L 2766 4134 
L 525 4134 
L 525 4666 
z
" transform="scale(0.015625)"/>
       </defs>
       <use xlink:href="#DejaVuSans-32"/>
       <use xlink:href="#DejaVuSans-30" transform="translate(63.623047 0)"/>
       <use xlink:href="#DejaVuSans-32" transform="translate(127.246094 0)"/>
       <use xlink:href="#DejaVuSans-34" transform="translate(190.869141 0)"/>
       <use xlink:href="#DejaVuSans-2d" transform="translate(254.492188 0)"/>
       <use xlink:href="#DejaVuSans-30" transform="translate(290.576172 0)"/>
       <use xlink:href="#DejaVuSans-37" transform="translate(354.199219 0)"/>
      </g>
     </g>
    </g>
    <g id="xtick_4">
     <g id="line2d_4">
      <g>
       <use xlink:href="#mbb7a97041e" x="300.282566" y="224.28" style="stroke: #000000; stroke-width: 0.8"/>
      </g>
     </g>
     <g id="text_4">
      <!-- 2024-09 -->
      <g transform="translate(279.39116 238.878438) scale(0.1 -0.1)">
       <defs>
        <path id="DejaVuSans-39" d="M 703 97 
L 703 672 
Q 941 559 1184 500 
Q 1428 441 1663 441 
Q 2288 441 2617 861 
Q 2947 1281 2994 2138 
Q 2813 1869 2534 1725 
Q 2256 1581 1919 1581 
Q 1219 1581 811 2004 
Q 403 2428 403 3163 
Q 403 3881 828 4315 
Q 1253 4750 1959 4750 
Q 2769 4750 3195 4129 
Q 3622 3509 3622 2328 
Q 3622 1225 3098 567 
Q 2575 -91 1691 -91 
Q 1453 -91 1209 -44 
Q 966 3 703 97 
z
M 1959 2075 
Q 2384 2075 2632 2365 
Q 2881 2656 2881 3163 
Q 2881 3666 2632 3958 
Q 2384 4250 1959 4250 
Q 1534 4250 1286 3958 
Q 1038 3666 1038 3163 
Q 1038 2656 1286 2365 
Q 1534 2075 1959 2075 
z
" transform="scale(0.015625)"/>
       </defs>
       <use xlink:href="#DejaVuSans-32"/>
       <use xlink:href="#DejaVuSans-30" transform="translate(63.623047 0)"/>
       <use xlink:href="#DejaVuSans-32" transform="translate(127.246094 0)"/>
       <use xlink:href="#DejaVuSans-34" transform="translate(190.869141 0)"/>
       <use xlink:href="#DejaVuSans-2d" transform="translate(254.492188 0)"/>
       <use xlink:href="#DejaVuSans-30" transform="translate(290.576172 0)"/>
       <use xlink:href="#DejaVuSans-39" transform="translate(354.199219 0)"/>
      </g>
     </g>
    </g>
    <g id="xtick_5">
     <g id="line2d_5">
      <g>
       <use xlink:href="#mbb7a97041e" x="359.036306" y="224.28" style="stroke: #000000; stroke-width: 0.8"/>
      </g>
     </g>
     <g id="text_5">
      <!-- 2024-11 -->
      <g transform="translate(338.1449 238.878438) scale(0.1 -0.1)">
       <defs>
        <path id="DejaVuSans-31" d="M 794 531 
L 1825 531 
L 1825 4091 
L 703 3866 
L 703 4441 
L 1819 4666 
L 2450 4666 
L 2450 531 
L 3481 531 
L 3481 0 
L 794 0 
L 794 531 
z
" transform="scale(0.015625)"/>
       </defs>
       <use xlink:href="#DejaVuSans-32"/>
       <use xlink:href="#DejaVuSans-30" transform="translate(63.623047 0)"/>
       <use xlink:href="#DejaVuSans-32" transform="translate(127.246094 0)"/>
       <use xlink:href="#DejaVuSans-34" transform="translate(190.869141 0)"/>
       <use xlink:href="#DejaVuSans-2d" transform="translate(254.492188 0)"/>
       <use xlink:href="#DejaVuSans-31" transform="translate(290.576172 0)"/>
       <use xlink:href="#DejaVuSans-31" transform="translate(354.199219 0)"/>
      </g>
     </g>
    </g>
    <g id="xtick_6">
     <g id="line2d_6">
      <g>
       <use xlink:href="#mbb7a97041e" x="417.790046" y="224.28" style="stroke: #000000; stroke-width: 0.8"/>
      </g>
     </g>
     <g id="text_6">
      <!-- 2025-01 -->
      <g transform="translate(396.89864 238.878438) scale(0.1 -0.1)">
       <use xlink:href="#DejaVuSans-32"/>
       <use xlink:href="#DejaVuSans-30" transform="translate(63.623047 0)"/>
       <use xlink:href="#DejaVuSans-32" transform="translate(127.246094 0)"/>
       <use xlink:href="#DejaVuSans-35" transform="translate(190.869141 0)"/>
       <use xlink:href="#DejaVuSans-2d" transform="translate(254.492188 0)"/>
       <use xlink:href="#DejaVuSans-30" transform="translate(290.576172 0)"/>
       <use xlink:href="#DejaVuSans-31" transform="translate(354.199219 0)"/>
      </g>
     </g>
    </g>
    <g id="xtick_7">
     <g id="line2d_7">
      <g>
       <use xlink:href="#mbb7a97041e" x="474.617434" y="224.28" style="stroke: #000000; stroke-width: 0.8"/>
      </g>
     </g>
     <g id="text_7">
      <!-- 2025-03 -->
      <g transform="translate(453.726028 238.878438) scale(0.1 -0.1)">
       <use xlink:href="#DejaVuSans-32"/>
       <use xlink:href="#DejaVuSans-30" transform="translate(63.623047 0)"/>
       <use xlink:href="#DejaVuSans-32" transform="translate(127.246094 0)"/>
       <use xlink:href="#DejaVuSans-35" transform="translate(190.869141 0)"/>
       <use xlink:href="#DejaVuSans-2d" transform="translate(254.492188 0)"/>
       <use xlink:href="#DejaVuSans-30" transform="translate(290.576172 0)"/>
       <use xlink:href="#DejaVuSans-33" transform="translate(354.199219 0)"/>
      </g>
     </g>
    </g>
    <g id="xtick_8">
     <g id="line2d_8">
      <g>
       <use xlink:href="#mbb7a97041e" x="533.371174" y="224.28" style="stroke: #000000; stroke-width: 0.8"/>
      </g>
     </g>
     <g id="text_8">
      <!-- 2025-05 -->
      <g transform="translate(512.479768 238.878438) scale(0.1 -0.1)">
       <use xlink:href="#DejaVuSans-32"/>
       <use xlink:href="#DejaVuSans-30" transform="translate(63.623047 0)"/>
       <use xlink:href="#DejaVuSans-32" transform="translate(127.246094 0)"/>
       <use xlink:href="#DejaVuSans-35" transform="translate(190.869141 0)"/>
       <use xlink:href="#DejaVuSans-2d" transform="translate(254.492188 0)"/>
       <use xlink:href="#DejaVuSans-30" transform="translate(290.576172 0)"/>
       <use xlink:href="#DejaVuSans-35" transform="translate(354.199219 0)"/>
      </g>
     </g>
    </g>
    <g id="xtick_9">
     <g id="line2d_9">
      <g>
       <use xlink:href="#mbb7a97041e" x="592.124914" y="224.28" style="stroke: #000000; stroke-width: 0.8"/>
      </g>
     </g>
     <g id="text_9">
      <!-- 2025-07 -->
      <g transform="translate(571.233507 238.878438) scale(0.1 -0.1)">
       <use xlink:href="#DejaVuSans-32"/>
       <use xlink:href="#DejaVuSans-30" transform="translate(63.623047 0)"/>
       <use xlink:href="#DejaVuSans-32" transform="translate(127.246094 0)"/>
       <use xlink:href="#DejaVuSans-35" transform="translate(190.869141 0)"/>
       <use xlink:href="#DejaVuSans-2d" transform="translate(254.492188 0)"/>
       <use xlink:href="#DejaVuSans-30" transform="translate(290.576172 0)"/>
       <use xlink:href="#DejaVuSans-37" transform="translate(354.199219 0)"/>
      </g>
     </g>
    </g>
    <g id="xtick_10">
     <g id="line2d_10">
      <g>
       <use xlink:href="#mbb7a97041e" x="651.84183" y="224.28" style="stroke: #000000; stroke-width: 0.8"/>
      </g>
     </g>
     <g id="text_10">
      <!-- 2025-09 -->
      <g transform="translate(630.950423 238.878438) scale(0.1 -0.1)">
       <use xlink:href="#DejaVuSans-32"/>
       <use xlink:href="#DejaVuSans-30" transform="translate(63.623047 0)"/>
       <use xlink:href="#DejaVuSans-32" transform="translate(127.246094 0)"/>
       <use xlink:href="#DejaVuSans-35" transform="translate(190.869141 0)"/>
       <use xlink:href="#DejaVuSans-2d" transform="translate(254.492188 0)"/>
       <use xlink:href="#DejaVuSans-30" transform="translate(290.576172 0)"/>
       <use xlink:href="#DejaVuSans-39" transform="translate(354.199219 0)"/>
      </g>
     </g>
    </g>
   </g>
   <g id="matplotlib.axis_2">
    <g id="ytick_1">
     <g id="line2d_11">
      <defs>
       <path id="m97dec889d0" d="M 0 0 
L -3.5 0 
" style="stroke: #000000; stroke-width: 0.8"/>
      </defs>
      <g>
       <use xlink:href="#m97dec889d0" x="94.5" y="222.613929" style="stroke: #000000; stroke-width: 0.8"/>
      </g>
     </g>
     <g id="text_11">
      <!-- 160 -->
      <g transform="translate(68.4125 226.413148) scale(0.1 -0.1)">
       <defs>
        <path id="DejaVuSans-36" d="M 2113 2584 
Q 1688 2584 1439 2293 
Q 1191 2003 1191 1497 
Q 1191 994 1439 701 
Q 1688 409 2113 409 
Q 2538 409 2786 701 
Q 3034 994 3034 1497 
Q 3034 2003 2786 2293 
Q 2538 2584 2113 2584 
z
M 3366 4563 
L 3366 3988 
Q 3128 4100 2886 4159 
Q 2644 4219 2406 4219 
Q 1781 4219 1451 3797 
Q 1122 3375 1075 2522 
Q 1259 2794 1537 2939 
Q 1816 3084 2150 3084 
Q 2853 3084 3261 2657 
Q 3669 2231 3669 1497 
Q 3669 778 3244 343 
Q 2819 -91 2113 -91 
Q 1303 -91 875 529 
Q 447 1150 447 2328 
Q 447 3434 972 4092 
Q 1497 4750 2381 4750 
Q 2619 4750 2861 4703 
Q 3103 4656 3366 4563 
z
" transform="scale(0.015625)"/>
       </defs>
       <use xlink:href="#DejaVuSans-31"/>
       <use xlink:href="#DejaVuSans-36" transform="translate(63.623047 0)"/>
       <use xlink:href="#DejaVuSans-30" transform="translate(127.246094 0)"/>
      </g>
     </g>
    </g>
    <g id="ytick_2">
     <g id="line2d_12">
      <g>
       <use xlink:href="#m97dec889d0" x="94.5" y="185.193552" style="stroke: #000000; stroke-width: 0.8"/>
      </g>
     </g>
     <g id="text_12">
      <!-- 180 -->
      <g transform="translate(68.4125 188.992771) scale(0.1 -0.1)">
       <defs>
        <path id="DejaVuSans-38" d="M 2034 2216 
Q 1584 2216 1326 1975 
Q 1069 1734 1069 1313 
Q 1069 891 1326 650 
Q 1584 409 2034 409 
Q 2484 409 2743 651 
Q 3003 894 3003 1313 
Q 3003 1734 2745 1975 
Q 2488 2216 2034 2216 
z
M 1403 2484 
Q 997 2584 770 2862 
Q 544 3141 544 3541 
Q 544 4100 942 4425 
Q 1341 4750 2034 4750 
Q 2731 4750 3128 4425 
Q 3525 4100 3525 3541 
Q 3525 3141 3298 2862 
Q 3072 2584 2669 2484 
Q 3125 2378 3379 2068 
Q 3634 1759 3634 1313 
Q 3634 634 3220 271 
Q 2806 -91 2034 -91 
Q 1263 -91 848 271 
Q 434 634 434 1313 
Q 434 1759 690 2068 
Q 947 2378 1403 2484 
z
M 1172 3481 
Q 1172 3119 1398 2916 
Q 1625 2713 2034 2713 
Q 2441 2713 2670 2916 
Q 2900 3119 2900 3481 
Q 2900 3844 2670 4047 
Q 2441 4250 2034 4250 
Q 1625 4250 1398 4047 
Q 1172 3844 1172 3481 
z
" transform="scale(0.015625)"/>
       </defs>
       <use xlink:href="#DejaVuSans-31"/>
       <use xlink:href="#DejaVuSans-38" transform="translate(63.623047 0)"/>
       <use xlink:href="#DejaVuSans-30" transform="translate(127.246094 0)"/>
      </g>
     </g>
    </g>
    <g id="ytick_3">
     <g id="line2d_13">
      <g>
       <use xlink:href="#m97dec889d0" x="94.5" y="147.773174" style="stroke: #000000; stroke-width: 0.8"/>
      </g>
     </g>
     <g id="text_13">
      <!-- 200 -->
      <g transform="translate(68.4125 151.572393) scale(0.1 -0.1)">
       <use xlink:href="#DejaVuSans-32"/>
       <use xlink:href="#DejaVuSans-30" transform="translate(63.623047 0)"/>
       <use xlink:href="#DejaVuSans-30" transform="translate(127.246094 0)"/>
      </g>
     </g>
    </g>
    <g id="ytick_4">
     <g id="line2d_14">
      <g>
       <use xlink:href="#m97dec889d0" x="94.5" y="110.352797" style="stroke: #000000; stroke-width: 0.8"/>
      </g>
     </g>
     <g id="text_14">
      <!-- 220 -->
      <g transform="translate(68.4125 114.152015) scale(0.1 -0.1)">
       <use xlink:href="#DejaVuSans-32"/>
       <use xlink:href="#DejaVuSans-32" transform="translate(63.623047 0)"/>
       <use xlink:href="#DejaVuSans-30" transform="translate(127.246094 0)"/>
      </g>
     </g>
    </g>
    <g id="ytick_5">
     <g id="line2d_15">
      <g>
       <use xlink:href="#m97dec889d0" x="94.5" y="72.932419" style="stroke: #000000; stroke-width: 0.8"/>
      </g>
     </g>
     <g id="text_15">
      <!-- 240 -->
      <g transform="translate(68.4125 76.731638) scale(0.1 -0.1)">
       <use xlink:href="#DejaVuSans-32"/>
       <use xlink:href="#DejaVuSans-34" transform="translate(63.623047 0)"/>
       <use xlink:href="#DejaVuSans-30" transform="translate(127.246094 0)"/>
      </g>
     </g>
    </g>
    <g id="ytick_6">
     <g id="line2d_16">
      <g>
       <use xlink:href="#m97dec889d0" x="94.5" y="35.512042" style="stroke: #000000; stroke-width: 0.8"/>
      </g>
     </g>
     <g id="text_16">
      <!-- 260 -->
      <g transform="translate(68.4125 39.31126) scale(0.1 -0.1)">
       <use xlink:href="#DejaVuSans-32"/>
       <use xlink:href="#DejaVuSans-36" transform="translate(63.623047 0)"/>
       <use xlink:href="#DejaVuSans-30" transform="translate(127.246094 0)"/>
      </g>
     </g>
    </g>
   </g>
   <g id="line2d_17">
    <path d="M 121.131818 184.956905 
L 122.094994 186.201548 
L 123.05817 188.226392 
L 125.947699 196.697394 
L 126.910875 205.948683 
L 127.874051 207.806341 
L 128.837227 208.029283 
L 129.800403 204.815525 
L 132.689931 201.062953 
L 133.653107 200.171295 
L 134.616283 204.072382 
L 135.579459 200.598538 
L 136.542635 201.304481 
L 139.432163 199.261024 
L 141.358516 190.065492 
L 142.321692 203.626554 
L 143.284868 201.936082 
L 146.174396 204.592554 
L 147.137572 206.710326 
L 148.100748 200.022667 
L 149.063924 203.422225 
L 152.916628 206.115869 
L 153.879804 208.326512 
L 154.84298 206.821755 
L 155.806157 208.363626 
L 156.769333 206.951797 
L 159.658861 209.050984 
L 160.622037 206.78464 
L 161.585213 210.295656 
L 162.548389 196.808909 
L 163.511565 194.003808 
L 166.401093 201.174439 
L 167.364269 207.323312 
L 168.327445 209.886913 
L 169.290621 211.670313 
L 170.253797 215.46 
L 173.143326 213.899542 
L 174.106502 211.930399 
L 175.069678 207.992084 
L 176.032854 206.375954 
L 176.99603 207.47194 
L 179.885558 199.669681 
L 180.848734 205.558497 
L 181.81191 207.47194 
L 182.775086 200.542838 
L 183.738262 181.315818 
L 186.627791 184.418176 
L 187.590967 183.13639 
L 188.554143 182.504762 
L 189.517319 179.105203 
L 190.480495 181.467616 
L 194.333199 173.320022 
L 195.296375 169.060097 
L 196.259551 168.836897 
L 197.222727 168.781111 
L 200.112255 166.60467 
L 201.075432 164.1678 
L 202.038608 166.865127 
L 203.001784 174.343093 
L 203.96496 168.576468 
L 207.817664 168.557883 
L 208.78084 167.999826 
L 210.707192 164.3538 
L 213.59672 161.04266 
L 214.559896 160.447403 
L 215.523072 157.619919 
L 216.486249 160.205589 
L 217.449425 155.722492 
L 220.338953 162.735473 
L 221.302129 136.636878 
L 222.265305 125.624486 
L 223.228481 123.448016 
L 224.191657 126.703399 
L 227.081185 118.927776 
L 229.970713 131.930553 
L 230.93389 136.004392 
L 233.823418 134.795236 
L 234.786594 133.065252 
L 235.74977 125.289657 
L 236.712946 123.708473 
L 237.676122 130.18204 
L 240.56565 118.778977 
L 241.528826 112.231039 
L 242.492002 109.850012 
L 244.418354 100.939661 
L 247.307883 98.186578 
L 248.271059 96.586807 
L 249.234235 88.587956 
L 250.197411 98.651591 
L 251.160587 93.126867 
L 254.050115 85.946472 
L 255.013291 85.165187 
L 255.976467 96.214779 
L 256.939643 104.957687 
L 257.902819 104.715901 
L 260.792348 105.366944 
L 261.755524 103.413702 
L 262.7187 115.449222 
L 263.681876 117.402406 
L 264.645052 116.528107 
L 267.53458 116.00725 
L 268.497756 114.965537 
L 269.460932 108.864112 
L 270.424108 115.784079 
L 271.387284 112.993767 
L 274.276812 132.693252 
L 275.239988 136.488078 
L 276.203165 131.670124 
L 277.166341 125.178058 
L 278.129517 119.727619 
L 281.019045 116.859623 
L 281.982221 109.894406 
L 282.945397 109.056393 
L 283.908573 103.469345 
L 284.871749 100.992392 
L 287.761277 101.290392 
L 288.724453 100.135708 
L 289.687629 100.340579 
L 290.650806 103.823216 
L 291.613982 99.521152 
L 294.50351 98.887981 
L 295.466686 97.304941 
L 296.429862 100.172993 
L 297.393038 94.027203 
L 298.356214 95.498444 
L 302.208918 107.100896 
L 303.172094 110.676633 
L 304.13527 107.827224 
L 305.098446 110.732505 
L 307.987975 110.564891 
L 308.951151 112.054774 
L 309.914327 107.305768 
L 310.877503 107.100896 
L 311.840679 107.603767 
L 314.730207 119.113091 
L 315.693383 118.237821 
L 316.656559 110.974604 
L 317.619735 95.740572 
L 318.582911 96.988356 
L 321.47244 100.210222 
L 322.435616 98.53411 
L 323.398792 100.39645 
L 324.361968 98.254754 
L 325.325144 97.75194 
L 328.214672 88.049085 
L 329.177848 100.69445 
L 330.141024 99.632894 
L 331.1042 101.700105 
L 332.067376 99.595637 
L 334.956904 109.112207 
L 336.883257 94.492788 
L 337.846433 95.423987 
L 338.809609 98.198854 
L 341.699137 91.215051 
L 342.662313 86.466073 
L 343.625489 90.321138 
L 344.588665 89.632068 
L 345.551841 84.324348 
L 348.441369 81.568067 
L 349.404545 82.722722 
L 350.367722 92.220735 
L 351.330898 92.574577 
L 352.294074 91.010208 
L 355.183602 87.304114 
L 356.146778 86.801272 
L 357.109954 93.449876 
L 358.07313 101.253135 
L 359.036306 106.840183 
L 361.925834 108.516323 
L 362.88901 105.834527 
L 363.852186 107.194053 
L 364.815362 98.329239 
L 365.778539 98.832624 
L 368.668067 103.922454 
L 369.631243 103.922454 
L 370.594419 102.26313 
L 371.557595 96.483458 
L 372.520771 102.486872 
L 375.410299 96.856371 
L 376.373475 96.37163 
L 377.336651 95.029262 
L 378.299827 95.924174 
L 379.263003 93.407251 
L 382.152532 87.814037 
L 383.115708 83.731004 
L 384.078884 83.97336 
L 386.005236 79.4988 
L 388.894764 75.285268 
L 389.85794 69.580196 
L 390.821116 68.908998 
L 391.784292 68.853098 
L 392.747468 69.225983 
L 395.636997 61.936158 
L 396.600173 60.034448 
L 397.563349 62.420899 
L 398.526525 59.680206 
L 399.489701 59.363278 
L 402.379229 53.937906 
L 403.342405 49.388746 
L 404.305581 59.512421 
L 405.268757 56.268372 
L 406.231933 47.505651 
L 409.121461 46.051426 
L 410.084638 40.588711 
L 412.01099 39.06 
L 412.974166 45.454856 
L 415.863694 51.775169 
L 416.82687 55.093789 
L 418.753222 67.342887 
L 419.716398 68.256442 
L 422.605926 65.19885 
L 423.569102 70.400508 
L 424.532278 69.487011 
L 426.458631 80.393712 
L 429.348159 84.961487 
L 430.311335 87.049624 
L 431.274511 78.49206 
L 432.237687 96.408915 
L 433.200863 93.202152 
L 437.053567 106.886861 
L 438.016743 104.668224 
L 438.979919 104.985123 
L 439.943096 106.625833 
L 442.832624 93.425894 
L 443.7958 77.764904 
L 444.758976 75.714052 
L 446.685328 81.978437 
L 449.574856 96.875014 
L 450.538032 87.944536 
L 451.501208 88.559778 
L 452.464384 87.161481 
L 453.42756 97.583498 
L 456.317089 97.079571 
L 457.280265 87.803274 
L 459.206617 71.1732 
L 460.169793 65.443205 
L 464.022497 65.685847 
L 464.985673 64.939278 
L 465.948849 63.147484 
L 466.912025 63.670082 
L 469.801554 60.777077 
L 470.76473 60.889077 
L 471.727906 73.356979 
L 472.691082 79.068302 
L 473.654258 70.594616 
L 476.543786 77.705807 
L 477.506962 81.625337 
L 478.470138 81.97995 
L 479.433314 82.74519 
L 480.39649 75.764671 
L 483.286018 97.396842 
L 484.249194 109.790058 
L 485.212371 116.994577 
L 486.175547 130.619646 
L 487.138723 123.508455 
L 490.028251 122.556587 
L 490.991427 125.00165 
L 491.954603 120.242195 
L 492.917779 122.36993 
L 493.880955 114.586856 
L 496.770483 109.995386 
L 497.733659 104.35869 
L 498.696835 108.502248 
L 499.660012 104.172062 
L 500.623188 115.27744 
L 503.512716 107.382337 
L 504.475892 105.403915 
L 505.439068 104.097405 
L 506.402244 142.732906 
L 507.36542 170.375029 
L 510.254948 183.290872 
L 511.218124 200.163587 
L 512.1813 150.833308 
L 513.144476 166.56747 
L 514.107652 152.139846 
L 516.997181 143.98343 
L 517.960357 144.692685 
L 518.923533 159.381651 
L 519.886709 154.323567 
L 523.739413 161.45343 
L 524.702589 149.172156 
L 525.665765 140.101186 
L 526.628941 133.064709 
L 527.592117 131.366243 
L 530.481646 129.761077 
L 531.444822 127.763984 
L 532.407998 125.356263 
L 533.371174 123.825754 
L 534.33435 138.701376 
L 537.223878 150.758651 
L 538.187054 151.467934 
L 539.15023 155.686092 
L 540.113406 153.371671 
L 541.076582 151.430563 
L 543.96611 128.031978 
L 544.929287 124.032538 
L 545.892463 125.153876 
L 546.855639 126.798498 
L 547.818815 127.153596 
L 550.708343 131.788462 
L 551.671519 135.376732 
L 552.634695 144.291394 
L 553.597871 145.655688 
L 554.561047 157.037253 
L 558.413751 147.804893 
L 559.376928 147.412452 
L 560.340104 148.290833 
L 561.30328 146.608812 
L 564.192808 145.020262 
L 565.155984 142.086089 
L 566.11916 142.927071 
L 567.082336 147.019953 
L 568.045512 140.871308 
L 570.93504 145.487474 
L 571.898216 143.207427 
L 572.861392 150.477438 
L 573.824568 149.692499 
L 574.787745 154.831977 
L 577.677273 151.150235 
L 578.640449 156.345784 
L 579.603625 154.589021 
L 581.529977 146.328485 
L 584.419505 145.394032 
L 585.382681 147.636708 
L 586.345857 145.281889 
L 587.309033 146.328485 
L 588.272209 146.178971 
L 591.161738 138.53519 
L 592.124914 133.582597 
L 593.08809 124.948291 
L 594.051266 122.8738 
L 597.90397 129.601857 
L 598.867146 129.489715 
L 600.793498 125.004362 
L 601.756674 127.340481 
L 604.646203 132.087489 
L 605.609379 131.171707 
L 606.572555 129.209359 
L 607.535731 129.471015 
L 608.498907 127.30311 
L 611.388435 124.873549 
L 612.351611 121.28525 
L 613.314787 121.752491 
L 614.277963 122.481359 
L 615.241139 122.257074 
L 618.130667 121.939347 
L 619.093843 127.134896 
L 620.05702 131.28385 
L 621.020196 134.049809 
L 621.983372 143.749382 
L 624.8729 141.936547 
L 625.836076 142.740215 
L 626.799252 123.434484 
L 627.762428 110.763367 
L 628.725604 93.345213 
L 631.615132 96.918895 
L 632.578308 92.297476 
L 633.541484 85.412112 
L 634.504661 86.441178 
L 635.467837 88.667695 
L 638.357365 89.977402 
L 639.320541 90.594842 
L 640.283717 99.107984 
L 641.246893 101.184816 
L 642.210069 95.8337 
L 645.099597 96.956295 
L 646.062773 92.933616 
L 647.025949 90.725798 
L 647.989125 86.852804 
L 648.952301 87.638629 
L 652.805006 92.166491 
L 653.768182 75.795076 
L 653.768182 75.795076 
" clip-path="url(#pb05097a81a)" style="fill: none; stroke: #1f77b4; stroke-width: 1.5; stroke-linecap: square"/>
   </g>
   <g id="patch_3">
    <path d="M 94.5 224.28 
L 94.5 30.24 
" style="fill: none; stroke: #000000; stroke-width: 0.8; stroke-linejoin: miter; stroke-linecap: square"/>
   </g>
   <g id="patch_4">
    <path d="M 94.5 224.28 
L 680.4 224.28 
" style="fill: none; stroke: #000000; stroke-width: 0.8; stroke-linejoin: miter; stroke-linecap: square"/>
   </g>
  </g>
 </g>
 <defs>
  <clipPath id="pb05097a81a">
   <rect x="94.5" y="30.24" width="585.9" height="194.04"/>
  </clipPath>
 </defs>
</svg>
