<?xml version="1.0" encoding="utf-8" standalone="no"?>
<!DOCTYPE svg PUBLIC "-//W3C//DTD SVG 1.1//EN"
  "http://www.w3.org/Graphics/SVG/1.1/DTD/svg11.dtd">
<svg xmlns:xlink="http://www.w3.org/1999/xlink" width="1166.4pt" height="252pt" viewBox="0 0 1166.4 252" xmlns="http://www.w3.org/2000/svg" version="1.1">
 <metadata>
  <rdf:RDF xmlns:dc="http://purl.org/dc/elements/1.1/" xmlns:cc="http://creativecommons.org/ns#" xmlns:rdf="http://www.w3.org/1999/02/22-rdf-syntax-ns#">
   <cc:Work>
    <dc:type rdf:resource="http://purl.org/dc/dcmitype/StillImage"/>
    <dc:date>2025-09-05T15:16:50.012435</dc:date>
    <dc:format>image/svg+xml</dc:format>
    <dc:creator>
     <cc:Agent>
      <dc:title>Matplotlib v3.10.5, https://matplotlib.org/</dc:title>
     </cc:Agent>
    </dc:creator>
   </cc:Work>
  </rdf:RDF>
 </metadata>
 <defs>
  <style type="text/css">*{stroke-linejoin: round; stroke-linecap: butt}</style>
 </defs>
 <g id="figure_1">
  <g id="patch_1">
   <path d="M 0 252 
L 1166.4 252 
L 1166.4 0 
L 0 0 
z
" style="fill: #ffffff"/>
  </g>
  <g id="axes_1">
   <g id="patch_2">
    <path d="M 145.8 224.28 
L 1049.76 224.28 
L 1049.76 30.24 
L 145.8 30.24 
z
" style="fill: #ffffff"/>
   </g>
   <g id="matplotlib.axis_1">
    <g id="xtick_1">
     <g id="line2d_1">
      <defs>
       <path id="m99f4225ec4" d="M 0 0 
L 0 3.5 
" style="stroke: #000000; stroke-width: 0.8"/>
      </defs>
      <g>
       <use xlink:href="#m99f4225ec4" x="191.34722" y="224.28" style="stroke: #000000; stroke-width: 0.8"/>
      </g>
     </g>
     <g id="text_1">
      <!-- 2024-03 -->
      <g transform="translate(170.455814 238.878438) scale(0.1 -0.1)">
       <defs>
        <path id="DejaVuSans-32" d="M 1228 531 
L 3431 531 
L 3431 0 
L 469 0 
L 469 531 
Q 828 903 1448 1529 
Q 2069 2156 2228 2338 
Q 2531 2678 2651 2914 
Q 2772 3150 2772 3378 
Q 2772 3750 2511 3984 
Q 2250 4219 1831 4219 
Q 1534 4219 1204 4116 
Q 875 4013 500 3803 
L 500 4441 
Q 881 4594 1212 4672 
Q 1544 4750 1819 4750 
Q 2544 4750 2975 4387 
Q 3406 4025 3406 3419 
Q 3406 3131 3298 2873 
Q 3191 2616 2906 2266 
Q 2828 2175 2409 1742 
Q 1991 1309 1228 531 
z
" transform="scale(0.015625)"/>
        <path id="DejaVuSans-30" d="M 2034 4250 
Q 1547 4250 1301 3770 
Q 1056 3291 1056 2328 
Q 1056 1369 1301 889 
Q 1547 409 2034 409 
Q 2525 409 2770 889 
Q 3016 1369 3016 2328 
Q 3016 3291 2770 3770 
Q 2525 4250 2034 4250 
z
M 2034 4750 
Q 2819 4750 3233 4129 
Q 3647 3509 3647 2328 
Q 3647 1150 3233 529 
Q 2819 -91 2034 -91 
Q 1250 -91 836 529 
Q 422 1150 422 2328 
Q 422 3509 836 4129 
Q 1250 4750 2034 4750 
z
" transform="scale(0.015625)"/>
        <path id="DejaVuSans-34" d="M 2419 4116 
L 825 1625 
L 2419 1625 
L 2419 4116 
z
M 2253 4666 
L 3047 4666 
L 3047 1625 
L 3713 1625 
L 3713 1100 
L 3047 1100 
L 3047 0 
L 2419 0 
L 2419 1100 
L 313 1100 
L 313 1709 
L 2253 4666 
z
" transform="scale(0.015625)"/>
        <path id="DejaVuSans-2d" d="M 313 2009 
L 1997 2009 
L 1997 1497 
L 313 1497 
L 313 2009 
z
" transform="scale(0.015625)"/>
        <path id="DejaVuSans-33" d="M 2597 2516 
Q 3050 2419 3304 2112 
Q 3559 1806 3559 1356 
Q 3559 666 3084 287 
Q 2609 -91 1734 -91 
Q 1441 -91 1130 -33 
Q 819 25 488 141 
L 488 750 
Q 750 597 1062 519 
Q 1375 441 1716 441 
Q 2309 441 2620 675 
Q 2931 909 2931 1356 
Q 2931 1769 2642 2001 
Q 2353 2234 1838 2234 
L 1294 2234 
L 1294 2753 
L 1863 2753 
Q 2328 2753 2575 2939 
Q 2822 3125 2822 3475 
Q 2822 3834 2567 4026 
Q 2313 4219 1838 4219 
Q 1578 4219 1281 4162 
Q 984 4106 628 3988 
L 628 4550 
Q 988 4650 1302 4700 
Q 1616 4750 1894 4750 
Q 2613 4750 3031 4423 
Q 3450 4097 3450 3541 
Q 3450 3153 3228 2886 
Q 3006 2619 2597 2516 
z
" transform="scale(0.015625)"/>
       </defs>
       <use xlink:href="#DejaVuSans-32"/>
       <use xlink:href="#DejaVuSans-30" transform="translate(63.623047 0)"/>
       <use xlink:href="#DejaVuSans-32" transform="translate(127.246094 0)"/>
       <use xlink:href="#DejaVuSans-34" transform="translate(190.869141 0)"/>
       <use xlink:href="#DejaVuSans-2d" transform="translate(254.492188 0)"/>
       <use xlink:href="#DejaVuSans-30" transform="translate(290.576172 0)"/>
       <use xlink:href="#DejaVuSans-33" transform="translate(354.199219 0)"/>
      </g>
     </g>
    </g>
    <g id="xtick_2">
     <g id="line2d_2">
      <g>
       <use xlink:href="#m99f4225ec4" x="281.995847" y="224.28" style="stroke: #000000; stroke-width: 0.8"/>
      </g>
     </g>
     <g id="text_2">
      <!-- 2024-05 -->
      <g transform="translate(261.104441 238.878438) scale(0.1 -0.1)">
       <defs>
        <path id="DejaVuSans-35" d="M 691 4666 
L 3169 4666 
L 3169 4134 
L 1269 4134 
L 1269 2991 
Q 1406 3038 1543 3061 
Q 1681 3084 1819 3084 
Q 2600 3084 3056 2656 
Q 3513 2228 3513 1497 
Q 3513 744 3044 326 
Q 2575 -91 1722 -91 
Q 1428 -91 1123 -41 
Q 819 9 494 109 
L 494 744 
Q 775 591 1075 516 
Q 1375 441 1709 441 
Q 2250 441 2565 725 
Q 2881 1009 2881 1497 
Q 2881 1984 2565 2268 
Q 2250 2553 1709 2553 
Q 1456 2553 1204 2497 
Q 953 2441 691 2322 
L 691 4666 
z
" transform="scale(0.015625)"/>
       </defs>
       <use xlink:href="#DejaVuSans-32"/>
       <use xlink:href="#DejaVuSans-30" transform="translate(63.623047 0)"/>
       <use xlink:href="#DejaVuSans-32" transform="translate(127.246094 0)"/>
       <use xlink:href="#DejaVuSans-34" transform="translate(190.869141 0)"/>
       <use xlink:href="#DejaVuSans-2d" transform="translate(254.492188 0)"/>
       <use xlink:href="#DejaVuSans-30" transform="translate(290.576172 0)"/>
       <use xlink:href="#DejaVuSans-35" transform="translate(354.199219 0)"/>
      </g>
     </g>
    </g>
    <g id="xtick_3">
     <g id="line2d_3">
      <g>
       <use xlink:href="#m99f4225ec4" x="372.644475" y="224.28" style="stroke: #000000; stroke-width: 0.8"/>
      </g>
     </g>
     <g id="text_3">
      <!-- 2024-07 -->
      <g transform="translate(351.753069 238.878438) scale(0.1 -0.1)">
       <defs>
        <path id="DejaVuSans-37" d="M 525 4666 
L 3525 4666 
L 3525 4397 
L 1831 0 
L 1172 0 
L 2766 4134 
L 525 4134 
L 525 4666 
z
" transform="scale(0.015625)"/>
       </defs>
       <use xlink:href="#DejaVuSans-32"/>
       <use xlink:href="#DejaVuSans-30" transform="translate(63.623047 0)"/>
       <use xlink:href="#DejaVuSans-32" transform="translate(127.246094 0)"/>
       <use xlink:href="#DejaVuSans-34" transform="translate(190.869141 0)"/>
       <use xlink:href="#DejaVuSans-2d" transform="translate(254.492188 0)"/>
       <use xlink:href="#DejaVuSans-30" transform="translate(290.576172 0)"/>
       <use xlink:href="#DejaVuSans-37" transform="translate(354.199219 0)"/>
      </g>
     </g>
    </g>
    <g id="xtick_4">
     <g id="line2d_4">
      <g>
       <use xlink:href="#m99f4225ec4" x="464.779145" y="224.28" style="stroke: #000000; stroke-width: 0.8"/>
      </g>
     </g>
     <g id="text_4">
      <!-- 2024-09 -->
      <g transform="translate(443.887739 238.878438) scale(0.1 -0.1)">
       <defs>
        <path id="DejaVuSans-39" d="M 703 97 
L 703 672 
Q 941 559 1184 500 
Q 1428 441 1663 441 
Q 2288 441 2617 861 
Q 2947 1281 2994 2138 
Q 2813 1869 2534 1725 
Q 2256 1581 1919 1581 
Q 1219 1581 811 2004 
Q 403 2428 403 3163 
Q 403 3881 828 4315 
Q 1253 4750 1959 4750 
Q 2769 4750 3195 4129 
Q 3622 3509 3622 2328 
Q 3622 1225 3098 567 
Q 2575 -91 1691 -91 
Q 1453 -91 1209 -44 
Q 966 3 703 97 
z
M 1959 2075 
Q 2384 2075 2632 2365 
Q 2881 2656 2881 3163 
Q 2881 3666 2632 3958 
Q 2384 4250 1959 4250 
Q 1534 4250 1286 3958 
Q 1038 3666 1038 3163 
Q 1038 2656 1286 2365 
Q 1534 2075 1959 2075 
z
" transform="scale(0.015625)"/>
       </defs>
       <use xlink:href="#DejaVuSans-32"/>
       <use xlink:href="#DejaVuSans-30" transform="translate(63.623047 0)"/>
       <use xlink:href="#DejaVuSans-32" transform="translate(127.246094 0)"/>
       <use xlink:href="#DejaVuSans-34" transform="translate(190.869141 0)"/>
       <use xlink:href="#DejaVuSans-2d" transform="translate(254.492188 0)"/>
       <use xlink:href="#DejaVuSans-30" transform="translate(290.576172 0)"/>
       <use xlink:href="#DejaVuSans-39" transform="translate(354.199219 0)"/>
      </g>
     </g>
    </g>
    <g id="xtick_5">
     <g id="line2d_5">
      <g>
       <use xlink:href="#m99f4225ec4" x="555.427772" y="224.28" style="stroke: #000000; stroke-width: 0.8"/>
      </g>
     </g>
     <g id="text_5">
      <!-- 2024-11 -->
      <g transform="translate(534.536366 238.878438) scale(0.1 -0.1)">
       <defs>
        <path id="DejaVuSans-31" d="M 794 531 
L 1825 531 
L 1825 4091 
L 703 3866 
L 703 4441 
L 1819 4666 
L 2450 4666 
L 2450 531 
L 3481 531 
L 3481 0 
L 794 0 
L 794 531 
z
" transform="scale(0.015625)"/>
       </defs>
       <use xlink:href="#DejaVuSans-32"/>
       <use xlink:href="#DejaVuSans-30" transform="translate(63.623047 0)"/>
       <use xlink:href="#DejaVuSans-32" transform="translate(127.246094 0)"/>
       <use xlink:href="#DejaVuSans-34" transform="translate(190.869141 0)"/>
       <use xlink:href="#DejaVuSans-2d" transform="translate(254.492188 0)"/>
       <use xlink:href="#DejaVuSans-31" transform="translate(290.576172 0)"/>
       <use xlink:href="#DejaVuSans-31" transform="translate(354.199219 0)"/>
      </g>
     </g>
    </g>
    <g id="xtick_6">
     <g id="line2d_6">
      <g>
       <use xlink:href="#m99f4225ec4" x="646.0764" y="224.28" style="stroke: #000000; stroke-width: 0.8"/>
      </g>
     </g>
     <g id="text_6">
      <!-- 2025-01 -->
      <g transform="translate(625.184994 238.878438) scale(0.1 -0.1)">
       <use xlink:href="#DejaVuSans-32"/>
       <use xlink:href="#DejaVuSans-30" transform="translate(63.623047 0)"/>
       <use xlink:href="#DejaVuSans-32" transform="translate(127.246094 0)"/>
       <use xlink:href="#DejaVuSans-35" transform="translate(190.869141 0)"/>
       <use xlink:href="#DejaVuSans-2d" transform="translate(254.492188 0)"/>
       <use xlink:href="#DejaVuSans-30" transform="translate(290.576172 0)"/>
       <use xlink:href="#DejaVuSans-31" transform="translate(354.199219 0)"/>
      </g>
     </g>
    </g>
    <g id="xtick_7">
     <g id="line2d_7">
      <g>
       <use xlink:href="#m99f4225ec4" x="733.752941" y="224.28" style="stroke: #000000; stroke-width: 0.8"/>
      </g>
     </g>
     <g id="text_7">
      <!-- 2025-03 -->
      <g transform="translate(712.861535 238.878438) scale(0.1 -0.1)">
       <use xlink:href="#DejaVuSans-32"/>
       <use xlink:href="#DejaVuSans-30" transform="translate(63.623047 0)"/>
       <use xlink:href="#DejaVuSans-32" transform="translate(127.246094 0)"/>
       <use xlink:href="#DejaVuSans-35" transform="translate(190.869141 0)"/>
       <use xlink:href="#DejaVuSans-2d" transform="translate(254.492188 0)"/>
       <use xlink:href="#DejaVuSans-30" transform="translate(290.576172 0)"/>
       <use xlink:href="#DejaVuSans-33" transform="translate(354.199219 0)"/>
      </g>
     </g>
    </g>
    <g id="xtick_8">
     <g id="line2d_8">
      <g>
       <use xlink:href="#m99f4225ec4" x="824.401568" y="224.28" style="stroke: #000000; stroke-width: 0.8"/>
      </g>
     </g>
     <g id="text_8">
      <!-- 2025-05 -->
      <g transform="translate(803.510162 238.878438) scale(0.1 -0.1)">
       <use xlink:href="#DejaVuSans-32"/>
       <use xlink:href="#DejaVuSans-30" transform="translate(63.623047 0)"/>
       <use xlink:href="#DejaVuSans-32" transform="translate(127.246094 0)"/>
       <use xlink:href="#DejaVuSans-35" transform="translate(190.869141 0)"/>
       <use xlink:href="#DejaVuSans-2d" transform="translate(254.492188 0)"/>
       <use xlink:href="#DejaVuSans-30" transform="translate(290.576172 0)"/>
       <use xlink:href="#DejaVuSans-35" transform="translate(354.199219 0)"/>
      </g>
     </g>
    </g>
    <g id="xtick_9">
     <g id="line2d_9">
      <g>
       <use xlink:href="#m99f4225ec4" x="915.050196" y="224.28" style="stroke: #000000; stroke-width: 0.8"/>
      </g>
     </g>
     <g id="text_9">
      <!-- 2025-07 -->
      <g transform="translate(894.158789 238.878438) scale(0.1 -0.1)">
       <use xlink:href="#DejaVuSans-32"/>
       <use xlink:href="#DejaVuSans-30" transform="translate(63.623047 0)"/>
       <use xlink:href="#DejaVuSans-32" transform="translate(127.246094 0)"/>
       <use xlink:href="#DejaVuSans-35" transform="translate(190.869141 0)"/>
       <use xlink:href="#DejaVuSans-2d" transform="translate(254.492188 0)"/>
       <use xlink:href="#DejaVuSans-30" transform="translate(290.576172 0)"/>
       <use xlink:href="#DejaVuSans-37" transform="translate(354.199219 0)"/>
      </g>
     </g>
    </g>
    <g id="xtick_10">
     <g id="line2d_10">
      <g>
       <use xlink:href="#m99f4225ec4" x="1007.184866" y="224.28" style="stroke: #000000; stroke-width: 0.8"/>
      </g>
     </g>
     <g id="text_10">
      <!-- 2025-09 -->
      <g transform="translate(986.29346 238.878438) scale(0.1 -0.1)">
       <use xlink:href="#DejaVuSans-32"/>
       <use xlink:href="#DejaVuSans-30" transform="translate(63.623047 0)"/>
       <use xlink:href="#DejaVuSans-32" transform="translate(127.246094 0)"/>
       <use xlink:href="#DejaVuSans-35" transform="translate(190.869141 0)"/>
       <use xlink:href="#DejaVuSans-2d" transform="translate(254.492188 0)"/>
       <use xlink:href="#DejaVuSans-30" transform="translate(290.576172 0)"/>
       <use xlink:href="#DejaVuSans-39" transform="translate(354.199219 0)"/>
      </g>
     </g>
    </g>
   </g>
   <g id="matplotlib.axis_2">
    <g id="ytick_1">
     <g id="line2d_11">
      <defs>
       <path id="m13a1dc0589" d="M 0 0 
L -3.5 0 
" style="stroke: #000000; stroke-width: 0.8"/>
      </defs>
      <g>
       <use xlink:href="#m13a1dc0589" x="145.8" y="208.236648" style="stroke: #000000; stroke-width: 0.8"/>
      </g>
     </g>
     <g id="text_11">
      <!-- 20 -->
      <g transform="translate(126.075 212.035867) scale(0.1 -0.1)">
       <use xlink:href="#DejaVuSans-32"/>
       <use xlink:href="#DejaVuSans-30" transform="translate(63.623047 0)"/>
      </g>
     </g>
    </g>
    <g id="ytick_2">
     <g id="line2d_12">
      <g>
       <use xlink:href="#m13a1dc0589" x="145.8" y="186.024198" style="stroke: #000000; stroke-width: 0.8"/>
      </g>
     </g>
     <g id="text_12">
      <!-- 30 -->
      <g transform="translate(126.075 189.823416) scale(0.1 -0.1)">
       <use xlink:href="#DejaVuSans-33"/>
       <use xlink:href="#DejaVuSans-30" transform="translate(63.623047 0)"/>
      </g>
     </g>
    </g>
    <g id="ytick_3">
     <g id="line2d_13">
      <g>
       <use xlink:href="#m13a1dc0589" x="145.8" y="163.811747" style="stroke: #000000; stroke-width: 0.8"/>
      </g>
     </g>
     <g id="text_13">
      <!-- 40 -->
      <g transform="translate(126.075 167.610966) scale(0.1 -0.1)">
       <use xlink:href="#DejaVuSans-34"/>
       <use xlink:href="#DejaVuSans-30" transform="translate(63.623047 0)"/>
      </g>
     </g>
    </g>
    <g id="ytick_4">
     <g id="line2d_14">
      <g>
       <use xlink:href="#m13a1dc0589" x="145.8" y="141.599297" style="stroke: #000000; stroke-width: 0.8"/>
      </g>
     </g>
     <g id="text_14">
      <!-- 50 -->
      <g transform="translate(126.075 145.398516) scale(0.1 -0.1)">
       <use xlink:href="#DejaVuSans-35"/>
       <use xlink:href="#DejaVuSans-30" transform="translate(63.623047 0)"/>
      </g>
     </g>
    </g>
    <g id="ytick_5">
     <g id="line2d_15">
      <g>
       <use xlink:href="#m13a1dc0589" x="145.8" y="119.386847" style="stroke: #000000; stroke-width: 0.8"/>
      </g>
     </g>
     <g id="text_15">
      <!-- 60 -->
      <g transform="translate(126.075 123.186066) scale(0.1 -0.1)">
       <defs>
        <path id="DejaVuSans-36" d="M 2113 2584 
Q 1688 2584 1439 2293 
Q 1191 2003 1191 1497 
Q 1191 994 1439 701 
Q 1688 409 2113 409 
Q 2538 409 2786 701 
Q 3034 994 3034 1497 
Q 3034 2003 2786 2293 
Q 2538 2584 2113 2584 
z
M 3366 4563 
L 3366 3988 
Q 3128 4100 2886 4159 
Q 2644 4219 2406 4219 
Q 1781 4219 1451 3797 
Q 1122 3375 1075 2522 
Q 1259 2794 1537 2939 
Q 1816 3084 2150 3084 
Q 2853 3084 3261 2657 
Q 3669 2231 3669 1497 
Q 3669 778 3244 343 
Q 2819 -91 2113 -91 
Q 1303 -91 875 529 
Q 447 1150 447 2328 
Q 447 3434 972 4092 
Q 1497 4750 2381 4750 
Q 2619 4750 2861 4703 
Q 3103 4656 3366 4563 
z
" transform="scale(0.015625)"/>
       </defs>
       <use xlink:href="#DejaVuSans-36"/>
       <use xlink:href="#DejaVuSans-30" transform="translate(63.623047 0)"/>
      </g>
     </g>
    </g>
    <g id="ytick_6">
     <g id="line2d_16">
      <g>
       <use xlink:href="#m13a1dc0589" x="145.8" y="97.174396" style="stroke: #000000; stroke-width: 0.8"/>
      </g>
     </g>
     <g id="text_16">
      <!-- 70 -->
      <g transform="translate(126.075 100.973615) scale(0.1 -0.1)">
       <use xlink:href="#DejaVuSans-37"/>
       <use xlink:href="#DejaVuSans-30" transform="translate(63.623047 0)"/>
      </g>
     </g>
    </g>
    <g id="ytick_7">
     <g id="line2d_17">
      <g>
       <use xlink:href="#m13a1dc0589" x="145.8" y="74.961946" style="stroke: #000000; stroke-width: 0.8"/>
      </g>
     </g>
     <g id="text_17">
      <!-- 80 -->
      <g transform="translate(126.075 78.761165) scale(0.1 -0.1)">
       <defs>
        <path id="DejaVuSans-38" d="M 2034 2216 
Q 1584 2216 1326 1975 
Q 1069 1734 1069 1313 
Q 1069 891 1326 650 
Q 1584 409 2034 409 
Q 2484 409 2743 651 
Q 3003 894 3003 1313 
Q 3003 1734 2745 1975 
Q 2488 2216 2034 2216 
z
M 1403 2484 
Q 997 2584 770 2862 
Q 544 3141 544 3541 
Q 544 4100 942 4425 
Q 1341 4750 2034 4750 
Q 2731 4750 3128 4425 
Q 3525 4100 3525 3541 
Q 3525 3141 3298 2862 
Q 3072 2584 2669 2484 
Q 3125 2378 3379 2068 
Q 3634 1759 3634 1313 
Q 3634 634 3220 271 
Q 2806 -91 2034 -91 
Q 1263 -91 848 271 
Q 434 634 434 1313 
Q 434 1759 690 2068 
Q 947 2378 1403 2484 
z
M 1172 3481 
Q 1172 3119 1398 2916 
Q 1625 2713 2034 2713 
Q 2441 2713 2670 2916 
Q 2900 3119 2900 3481 
Q 2900 3844 2670 4047 
Q 2441 4250 2034 4250 
Q 1625 4250 1398 4047 
Q 1172 3844 1172 3481 
z
" transform="scale(0.015625)"/>
       </defs>
       <use xlink:href="#DejaVuSans-38"/>
       <use xlink:href="#DejaVuSans-30" transform="translate(63.623047 0)"/>
      </g>
     </g>
    </g>
    <g id="ytick_8">
     <g id="line2d_18">
      <g>
       <use xlink:href="#m13a1dc0589" x="145.8" y="52.749496" style="stroke: #000000; stroke-width: 0.8"/>
      </g>
     </g>
     <g id="text_18">
      <!-- 90 -->
      <g transform="translate(126.075 56.548715) scale(0.1 -0.1)">
       <use xlink:href="#DejaVuSans-39"/>
       <use xlink:href="#DejaVuSans-30" transform="translate(63.623047 0)"/>
      </g>
     </g>
    </g>
    <g id="ytick_9">
     <g id="line2d_19">
      <g>
       <use xlink:href="#m13a1dc0589" x="145.8" y="30.537046" style="stroke: #000000; stroke-width: 0.8"/>
      </g>
     </g>
     <g id="text_19">
      <!-- 100 -->
      <g transform="translate(119.7125 34.336264) scale(0.1 -0.1)">
       <use xlink:href="#DejaVuSans-31"/>
       <use xlink:href="#DejaVuSans-30" transform="translate(63.623047 0)"/>
       <use xlink:href="#DejaVuSans-30" transform="translate(127.246094 0)"/>
      </g>
     </g>
    </g>
   </g>
   <g id="line2d_20">
    <path d="M 186.889091 184.229394 
L 188.375134 189.814758 
L 189.861177 188.305471 
L 191.34722 199.101175 
L 195.805349 206.533582 
L 197.291392 212.171918 
L 198.777435 212.360732 
L 200.263479 212.068165 
L 201.749522 196.095071 
L 206.207651 180.942093 
L 207.693694 182.654784 
L 209.179737 201.277168 
L 210.66578 184.474902 
L 212.151823 181.653009 
L 216.609952 184.051728 
L 218.095995 165.846116 
L 219.582038 150.356294 
L 221.068082 169.850569 
L 222.554125 152.421463 
L 227.012254 138.405976 
L 228.498297 139.032549 
L 229.98434 125.098888 
L 231.470383 138.737893 
L 237.414555 152.18405 
L 238.900598 158.268161 
L 240.386641 147.478132 
L 241.872685 158.844357 
L 243.358728 153.966584 
L 247.816857 163.015146 
L 249.3029 168.781624 
L 250.788943 189.04789 
L 252.274986 125.583568 
L 253.761029 123.394462 
L 258.219158 134.424005 
L 259.705201 142.795038 
L 261.191244 162.342933 
L 262.677288 159.491734 
L 264.163331 161.444571 
L 268.62146 153.58452 
L 270.107503 152.487782 
L 271.593546 140.842211 
L 273.079589 140.430237 
L 274.565632 138.33391 
L 279.023761 128.260724 
L 280.509804 133.061193 
L 281.995847 165.262834 
L 283.481891 155.006022 
L 284.967934 108.29611 
L 289.426063 101.334681 
L 290.912106 93.601114 
L 292.398149 88.275645 
L 293.884192 74.701963 
L 295.370235 82.703048 
L 299.828364 79.47114 
L 301.314407 80.859811 
L 302.80045 78.8453 
L 304.286494 75.756613 
L 305.772537 81.856811 
L 310.230666 61.050165 
L 311.716709 52.918893 
L 313.202752 66.795357 
L 314.688795 121.354723 
L 316.174838 98.599876 
L 322.11901 100.767765 
L 323.605053 100.898512 
L 325.091096 103.745753 
L 326.57714 90.865799 
L 331.035269 95.546177 
L 334.007355 101.632526 
L 335.493398 113.531309 
L 336.979441 104.007301 
L 341.43757 131.70177 
L 342.923613 96.016402 
L 344.409656 80.848054 
L 345.895699 60.955487 
L 347.381743 72.785347 
L 351.839872 68.435413 
L 353.325915 78.999754 
L 357.784044 105.905747 
L 362.242173 107.745559 
L 363.728216 106.7414 
L 365.214259 102.651352 
L 366.700302 97.147177 
L 368.186346 111.156429 
L 372.644475 91.563023 
L 374.130518 106.855918 
L 375.616561 116.349796 
L 378.588647 108.75832 
L 383.046776 99.715363 
L 384.532819 105.867837 
L 386.018862 88.713803 
L 387.504905 91.988568 
L 388.990949 78.900652 
L 393.449078 75.375524 
L 394.935121 75.900838 
L 396.421164 103.27057 
L 397.907207 118.817379 
L 399.39325 108.394631 
L 403.851379 121.585316 
L 405.337422 127.575945 
L 406.823465 149.422838 
L 408.309508 166.808319 
L 409.795552 170.432203 
L 414.253681 172.601642 
L 415.739724 188.386604 
L 417.225767 160.937532 
L 418.71181 183.505711 
L 420.197853 195.571474 
L 424.655982 212.381121 
L 426.142025 208.040356 
L 427.628068 188.396653 
L 429.114111 174.229775 
L 430.600155 163.023624 
L 435.058284 161.415288 
L 436.544327 132.822314 
L 438.03037 128.199463 
L 439.516413 121.970264 
L 441.002456 119.612085 
L 445.460585 121.375635 
L 446.946628 127.781002 
L 448.432671 114.56199 
L 449.918714 125.717439 
L 451.404758 65.999695 
L 455.862887 49.963134 
L 457.34893 51.447474 
L 458.834973 69.861392 
L 460.321016 69.167478 
L 461.807059 79.18473 
L 467.751231 134.324452 
L 469.237274 145.564232 
L 470.723317 152.947932 
L 472.209361 166.711943 
L 476.66749 165.583974 
L 478.153533 172.184372 
L 479.639576 157.774172 
L 481.125619 149.770992 
L 482.611662 163.628948 
L 487.069791 185.110395 
L 488.555834 187.259044 
L 490.041877 163.288162 
L 491.52792 144.554107 
L 493.013964 144.177641 
L 497.472093 127.883489 
L 498.958136 116.577737 
L 500.444179 126.001413 
L 501.930222 115.023805 
L 503.416265 114.484277 
L 507.874394 97.671978 
L 509.360437 130.894156 
L 510.84648 129.656215 
L 512.332523 132.365948 
L 513.818566 106.413929 
L 518.276696 127.171771 
L 519.762739 126.712853 
L 521.248782 139.377327 
L 522.734825 138.799426 
L 524.220868 137.973225 
L 528.678997 129.451401 
L 530.16504 119.434235 
L 531.651083 129.278339 
L 533.137126 129.021799 
L 534.623169 135.453114 
L 539.081299 104.602624 
L 540.567342 108.942355 
L 542.053385 125.387518 
L 543.539428 129.259114 
L 545.025471 105.202666 
L 549.4836 110.862896 
L 550.969643 122.543046 
L 552.455686 137.26152 
L 553.941729 147.703306 
L 555.427772 173.631322 
L 559.885902 189.521289 
L 561.371945 176.106909 
L 562.857988 180.14611 
L 564.344031 170.319639 
L 565.830074 178.541121 
L 570.288203 183.764614 
L 571.774246 169.643679 
L 573.260289 164.182788 
L 574.746332 153.320337 
L 576.232375 172.733808 
L 580.690505 160.435411 
L 582.176548 147.707666 
L 583.662591 126.78571 
L 585.148634 112.713301 
L 586.634677 102.402637 
L 591.092806 97.826575 
L 592.578849 87.810407 
L 594.064892 101.562789 
L 597.036978 92.569248 
L 601.495108 67.493497 
L 602.981151 63.157342 
L 604.467194 63.834001 
L 605.953237 68.381209 
L 607.43928 39.782656 
L 611.897409 39.378308 
L 613.383452 39.06 
L 614.869495 51.960256 
L 616.355538 46.319076 
L 617.841581 47.186083 
L 622.299711 47.25613 
L 623.785754 47.062981 
L 625.271797 87.511076 
L 626.75784 88.941938 
L 628.243883 83.97994 
L 632.702012 88.58846 
L 634.188055 83.445702 
L 637.160141 82.043151 
L 638.646184 98.72781 
L 643.104314 122.980704 
L 644.590357 132.753028 
L 647.562443 149.203114 
L 649.048486 155.194045 
L 653.506615 150.501353 
L 654.992658 166.790151 
L 656.478701 173.975006 
L 659.450787 174.858662 
L 663.908917 186.44976 
L 665.39496 209.819294 
L 666.881003 192.003318 
L 668.367046 215.46 
L 669.853089 211.835617 
L 675.797261 215.03911 
L 677.283304 207.751784 
L 678.769347 206.180602 
L 680.25539 199.622807 
L 684.71352 173.554597 
L 686.199563 155.544203 
L 687.685606 147.687546 
L 689.171649 152.2531 
L 690.657692 143.525477 
L 695.115821 154.609176 
L 696.601864 142.514931 
L 698.087907 152.713742 
L 699.57395 129.384937 
L 701.059993 146.928986 
L 705.518123 127.656241 
L 708.490209 111.540232 
L 709.976252 102.165309 
L 711.462295 107.957302 
L 717.406467 124.167951 
L 718.89251 125.78214 
L 720.378553 117.833677 
L 721.864596 113.242519 
L 726.322726 74.448254 
L 727.808769 82.54717 
L 729.294812 114.686026 
L 730.780855 128.193708 
L 732.266898 95.556931 
L 736.725027 111.593442 
L 738.21107 131.258469 
L 739.697113 145.584649 
L 741.183156 166.877683 
L 742.669199 163.604797 
L 747.127329 189.527837 
L 748.613372 200.113306 
L 750.099415 207.650552 
L 751.585458 213.340753 
L 753.071501 206.191816 
L 757.52963 204.60574 
L 759.015673 199.724719 
L 760.501716 188.391377 
L 761.987759 204.525495 
L 763.473802 186.096229 
L 767.931932 175.579717 
L 769.417975 166.958975 
L 770.904018 169.814687 
L 772.390061 173.553294 
L 773.876104 164.112546 
L 778.334233 138.404828 
L 779.820276 125.197441 
L 781.306319 97.080374 
L 782.792362 163.455261 
L 784.278405 184.297577 
L 788.736535 189.605848 
L 790.222578 201.996597 
L 791.708621 157.880165 
L 793.194664 170.162258 
L 794.680707 163.682639 
L 799.138836 162.118395 
L 800.624879 160.644988 
L 802.110922 169.294627 
L 803.596965 161.73641 
L 809.541138 169.584612 
L 811.027181 163.214445 
L 812.513224 158.786546 
L 813.999267 136.25857 
L 815.48531 116.858321 
L 819.943439 105.304134 
L 821.429482 87.606246 
L 822.915525 113.859147 
L 824.401568 87.53198 
L 825.887611 124.686239 
L 830.345741 149.765313 
L 831.831784 149.765281 
L 833.317827 136.574105 
L 834.80387 140.259923 
L 836.289913 126.504288 
L 840.748042 113.931937 
L 842.234085 119.232611 
L 843.720128 129.706172 
L 845.206171 134.727151 
L 846.692214 137.608782 
L 851.150344 147.542423 
L 852.636387 156.168171 
L 854.12243 168.731749 
L 855.608473 152.59198 
L 857.094516 151.620258 
L 863.038688 136.390891 
L 864.524731 129.229196 
L 866.010774 133.853076 
L 867.496817 134.221839 
L 871.954947 178.756342 
L 873.44099 181.932457 
L 874.927033 181.531316 
L 876.413076 184.887976 
L 877.899119 168.015317 
L 882.357248 167.987863 
L 883.843291 157.033871 
L 885.329334 154.158792 
L 886.815377 149.882946 
L 888.30142 136.484063 
L 892.75955 150.376459 
L 894.245593 162.649179 
L 895.731636 156.168396 
L 898.703722 141.028982 
L 903.161851 142.36894 
L 904.647894 153.177206 
L 906.133937 146.375367 
L 907.61998 140.114237 
L 909.106023 154.494475 
L 913.564153 125.757647 
L 915.050196 120.807942 
L 916.536239 87.877324 
L 918.022282 86.509709 
L 923.966454 91.25216 
L 925.452497 95.413115 
L 926.93854 75.944729 
L 928.424583 75.38035 
L 929.910626 93.336214 
L 934.368756 110.491449 
L 935.854799 102.001681 
L 937.340842 102.614235 
L 938.826885 99.997128 
L 940.312928 97.015566 
L 944.771057 105.306786 
L 946.2571 107.829048 
L 947.743143 130.602481 
L 949.229186 140.19015 
L 950.715229 108.204178 
L 955.173359 107.555952 
L 956.659402 140.625729 
L 958.145445 165.247422 
L 959.631488 166.503196 
L 961.117531 178.738912 
L 965.57566 175.02233 
L 967.061703 185.016721 
L 968.547746 129.104351 
L 971.519832 97.358005 
L 975.977962 107.401546 
L 977.464005 102.32162 
L 978.950048 95.570571 
L 980.436091 97.523428 
L 981.922134 101.502494 
L 986.380263 94.848268 
L 987.866306 88.271465 
L 989.352349 98.712472 
L 990.838392 84.550661 
L 992.324435 82.338754 
L 996.782565 82.965129 
L 999.754651 105.102402 
L 1001.240694 126.396767 
L 1002.726737 118.511724 
L 1008.670909 141.272746 
L 1008.670909 141.272746 
" clip-path="url(#pb3646c3180)" style="fill: none; stroke: #1f77b4; stroke-width: 1.5; stroke-linecap: square"/>
   </g>
   <g id="patch_3">
    <path d="M 145.8 224.28 
L 145.8 30.24 
" style="fill: none; stroke: #000000; stroke-width: 0.8; stroke-linejoin: miter; stroke-linecap: square"/>
   </g>
   <g id="patch_4">
    <path d="M 145.8 224.28 
L 1049.76 224.28 
" style="fill: none; stroke: #000000; stroke-width: 0.8; stroke-linejoin: miter; stroke-linecap: square"/>
   </g>
  </g>
 </g>
 <defs>
  <clipPath id="pb3646c3180">
   <rect x="145.8" y="30.24" width="903.96" height="194.04"/>
  </clipPath>
 </defs>
</svg>
