<?xml version="1.0" encoding="utf-8" standalone="no"?>
<!DOCTYPE svg PUBLIC "-//W3C//DTD SVG 1.1//EN"
  "http://www.w3.org/Graphics/SVG/1.1/DTD/svg11.dtd">
<svg xmlns:xlink="http://www.w3.org/1999/xlink" width="756pt" height="252pt" viewBox="0 0 756 252" xmlns="http://www.w3.org/2000/svg" version="1.1">
 <metadata>
  <rdf:RDF xmlns:dc="http://purl.org/dc/elements/1.1/" xmlns:cc="http://creativecommons.org/ns#" xmlns:rdf="http://www.w3.org/1999/02/22-rdf-syntax-ns#">
   <cc:Work>
    <dc:type rdf:resource="http://purl.org/dc/dcmitype/StillImage"/>
    <dc:date>2025-08-27T15:49:04.621435</dc:date>
    <dc:format>image/svg+xml</dc:format>
    <dc:creator>
     <cc:Agent>
      <dc:title>Matplotlib v3.10.5, https://matplotlib.org/</dc:title>
     </cc:Agent>
    </dc:creator>
   </cc:Work>
  </rdf:RDF>
 </metadata>
 <defs>
  <style type="text/css">*{stroke-linejoin: round; stroke-linecap: butt}</style>
 </defs>
 <g id="figure_1">
  <g id="patch_1">
   <path d="M 0 252 
L 756 252 
L 756 0 
L 0 0 
z
" style="fill: #ffffff"/>
  </g>
  <g id="axes_1">
   <g id="patch_2">
    <path d="M 94.5 224.28 
L 680.4 224.28 
L 680.4 30.24 
L 94.5 30.24 
z
" style="fill: #ffffff"/>
   </g>
   <g id="matplotlib.axis_1">
    <g id="xtick_1">
     <g id="line2d_1">
      <defs>
       <path id="m0fb1a6cc07" d="M 0 0 
L 0 3.5 
" style="stroke: #000000; stroke-width: 0.8"/>
      </defs>
      <g>
       <use xlink:href="#m0fb1a6cc07" x="115.646108" y="224.28" style="stroke: #000000; stroke-width: 0.8"/>
      </g>
     </g>
     <g id="text_1">
      <!-- 2020 -->
      <g transform="translate(102.921108 238.878438) scale(0.1 -0.1)">
       <defs>
        <path id="DejaVuSans-32" d="M 1228 531 
L 3431 531 
L 3431 0 
L 469 0 
L 469 531 
Q 828 903 1448 1529 
Q 2069 2156 2228 2338 
Q 2531 2678 2651 2914 
Q 2772 3150 2772 3378 
Q 2772 3750 2511 3984 
Q 2250 4219 1831 4219 
Q 1534 4219 1204 4116 
Q 875 4013 500 3803 
L 500 4441 
Q 881 4594 1212 4672 
Q 1544 4750 1819 4750 
Q 2544 4750 2975 4387 
Q 3406 4025 3406 3419 
Q 3406 3131 3298 2873 
Q 3191 2616 2906 2266 
Q 2828 2175 2409 1742 
Q 1991 1309 1228 531 
z
" transform="scale(0.015625)"/>
        <path id="DejaVuSans-30" d="M 2034 4250 
Q 1547 4250 1301 3770 
Q 1056 3291 1056 2328 
Q 1056 1369 1301 889 
Q 1547 409 2034 409 
Q 2525 409 2770 889 
Q 3016 1369 3016 2328 
Q 3016 3291 2770 3770 
Q 2525 4250 2034 4250 
z
M 2034 4750 
Q 2819 4750 3233 4129 
Q 3647 3509 3647 2328 
Q 3647 1150 3233 529 
Q 2819 -91 2034 -91 
Q 1250 -91 836 529 
Q 422 1150 422 2328 
Q 422 3509 836 4129 
Q 1250 4750 2034 4750 
z
" transform="scale(0.015625)"/>
       </defs>
       <use xlink:href="#DejaVuSans-32"/>
       <use xlink:href="#DejaVuSans-30" transform="translate(63.623047 0)"/>
       <use xlink:href="#DejaVuSans-32" transform="translate(127.246094 0)"/>
       <use xlink:href="#DejaVuSans-30" transform="translate(190.869141 0)"/>
      </g>
     </g>
    </g>
    <g id="xtick_2">
     <g id="line2d_2">
      <g>
       <use xlink:href="#m0fb1a6cc07" x="211.254204" y="224.28" style="stroke: #000000; stroke-width: 0.8"/>
      </g>
     </g>
     <g id="text_2">
      <!-- 2021 -->
      <g transform="translate(198.529204 238.878438) scale(0.1 -0.1)">
       <defs>
        <path id="DejaVuSans-31" d="M 794 531 
L 1825 531 
L 1825 4091 
L 703 3866 
L 703 4441 
L 1819 4666 
L 2450 4666 
L 2450 531 
L 3481 531 
L 3481 0 
L 794 0 
L 794 531 
z
" transform="scale(0.015625)"/>
       </defs>
       <use xlink:href="#DejaVuSans-32"/>
       <use xlink:href="#DejaVuSans-30" transform="translate(63.623047 0)"/>
       <use xlink:href="#DejaVuSans-32" transform="translate(127.246094 0)"/>
       <use xlink:href="#DejaVuSans-31" transform="translate(190.869141 0)"/>
      </g>
     </g>
    </g>
    <g id="xtick_3">
     <g id="line2d_3">
      <g>
       <use xlink:href="#m0fb1a6cc07" x="306.601077" y="224.28" style="stroke: #000000; stroke-width: 0.8"/>
      </g>
     </g>
     <g id="text_3">
      <!-- 2022 -->
      <g transform="translate(293.876077 238.878438) scale(0.1 -0.1)">
       <use xlink:href="#DejaVuSans-32"/>
       <use xlink:href="#DejaVuSans-30" transform="translate(63.623047 0)"/>
       <use xlink:href="#DejaVuSans-32" transform="translate(127.246094 0)"/>
       <use xlink:href="#DejaVuSans-32" transform="translate(190.869141 0)"/>
      </g>
     </g>
    </g>
    <g id="xtick_4">
     <g id="line2d_4">
      <g>
       <use xlink:href="#m0fb1a6cc07" x="401.947949" y="224.28" style="stroke: #000000; stroke-width: 0.8"/>
      </g>
     </g>
     <g id="text_4">
      <!-- 2023 -->
      <g transform="translate(389.222949 238.878438) scale(0.1 -0.1)">
       <defs>
        <path id="DejaVuSans-33" d="M 2597 2516 
Q 3050 2419 3304 2112 
Q 3559 1806 3559 1356 
Q 3559 666 3084 287 
Q 2609 -91 1734 -91 
Q 1441 -91 1130 -33 
Q 819 25 488 141 
L 488 750 
Q 750 597 1062 519 
Q 1375 441 1716 441 
Q 2309 441 2620 675 
Q 2931 909 2931 1356 
Q 2931 1769 2642 2001 
Q 2353 2234 1838 2234 
L 1294 2234 
L 1294 2753 
L 1863 2753 
Q 2328 2753 2575 2939 
Q 2822 3125 2822 3475 
Q 2822 3834 2567 4026 
Q 2313 4219 1838 4219 
Q 1578 4219 1281 4162 
Q 984 4106 628 3988 
L 628 4550 
Q 988 4650 1302 4700 
Q 1616 4750 1894 4750 
Q 2613 4750 3031 4423 
Q 3450 4097 3450 3541 
Q 3450 3153 3228 2886 
Q 3006 2619 2597 2516 
z
" transform="scale(0.015625)"/>
       </defs>
       <use xlink:href="#DejaVuSans-32"/>
       <use xlink:href="#DejaVuSans-30" transform="translate(63.623047 0)"/>
       <use xlink:href="#DejaVuSans-32" transform="translate(127.246094 0)"/>
       <use xlink:href="#DejaVuSans-33" transform="translate(190.869141 0)"/>
      </g>
     </g>
    </g>
    <g id="xtick_5">
     <g id="line2d_5">
      <g>
       <use xlink:href="#m0fb1a6cc07" x="497.294821" y="224.28" style="stroke: #000000; stroke-width: 0.8"/>
      </g>
     </g>
     <g id="text_5">
      <!-- 2024 -->
      <g transform="translate(484.569821 238.878438) scale(0.1 -0.1)">
       <defs>
        <path id="DejaVuSans-34" d="M 2419 4116 
L 825 1625 
L 2419 1625 
L 2419 4116 
z
M 2253 4666 
L 3047 4666 
L 3047 1625 
L 3713 1625 
L 3713 1100 
L 3047 1100 
L 3047 0 
L 2419 0 
L 2419 1100 
L 313 1100 
L 313 1709 
L 2253 4666 
z
" transform="scale(0.015625)"/>
       </defs>
       <use xlink:href="#DejaVuSans-32"/>
       <use xlink:href="#DejaVuSans-30" transform="translate(63.623047 0)"/>
       <use xlink:href="#DejaVuSans-32" transform="translate(127.246094 0)"/>
       <use xlink:href="#DejaVuSans-34" transform="translate(190.869141 0)"/>
      </g>
     </g>
    </g>
    <g id="xtick_6">
     <g id="line2d_6">
      <g>
       <use xlink:href="#m0fb1a6cc07" x="592.902918" y="224.28" style="stroke: #000000; stroke-width: 0.8"/>
      </g>
     </g>
     <g id="text_6">
      <!-- 2025 -->
      <g transform="translate(580.177918 238.878438) scale(0.1 -0.1)">
       <defs>
        <path id="DejaVuSans-35" d="M 691 4666 
L 3169 4666 
L 3169 4134 
L 1269 4134 
L 1269 2991 
Q 1406 3038 1543 3061 
Q 1681 3084 1819 3084 
Q 2600 3084 3056 2656 
Q 3513 2228 3513 1497 
Q 3513 744 3044 326 
Q 2575 -91 1722 -91 
Q 1428 -91 1123 -41 
Q 819 9 494 109 
L 494 744 
Q 775 591 1075 516 
Q 1375 441 1709 441 
Q 2250 441 2565 725 
Q 2881 1009 2881 1497 
Q 2881 1984 2565 2268 
Q 2250 2553 1709 2553 
Q 1456 2553 1204 2497 
Q 953 2441 691 2322 
L 691 4666 
z
" transform="scale(0.015625)"/>
       </defs>
       <use xlink:href="#DejaVuSans-32"/>
       <use xlink:href="#DejaVuSans-30" transform="translate(63.623047 0)"/>
       <use xlink:href="#DejaVuSans-32" transform="translate(127.246094 0)"/>
       <use xlink:href="#DejaVuSans-35" transform="translate(190.869141 0)"/>
      </g>
     </g>
    </g>
   </g>
   <g id="matplotlib.axis_2">
    <g id="ytick_1">
     <g id="line2d_7">
      <defs>
       <path id="m164de0e750" d="M 0 0 
L -3.5 0 
" style="stroke: #000000; stroke-width: 0.8"/>
      </defs>
      <g>
       <use xlink:href="#m164de0e750" x="94.5" y="219.196782" style="stroke: #000000; stroke-width: 0.8"/>
      </g>
     </g>
     <g id="text_7">
      <!-- 50 -->
      <g transform="translate(74.775 222.996001) scale(0.1 -0.1)">
       <use xlink:href="#DejaVuSans-35"/>
       <use xlink:href="#DejaVuSans-30" transform="translate(63.623047 0)"/>
      </g>
     </g>
    </g>
    <g id="ytick_2">
     <g id="line2d_8">
      <g>
       <use xlink:href="#m164de0e750" x="94.5" y="197.556519" style="stroke: #000000; stroke-width: 0.8"/>
      </g>
     </g>
     <g id="text_8">
      <!-- 75 -->
      <g transform="translate(74.775 201.355738) scale(0.1 -0.1)">
       <defs>
        <path id="DejaVuSans-37" d="M 525 4666 
L 3525 4666 
L 3525 4397 
L 1831 0 
L 1172 0 
L 2766 4134 
L 525 4134 
L 525 4666 
z
" transform="scale(0.015625)"/>
       </defs>
       <use xlink:href="#DejaVuSans-37"/>
       <use xlink:href="#DejaVuSans-35" transform="translate(63.623047 0)"/>
      </g>
     </g>
    </g>
    <g id="ytick_3">
     <g id="line2d_9">
      <g>
       <use xlink:href="#m164de0e750" x="94.5" y="175.916255" style="stroke: #000000; stroke-width: 0.8"/>
      </g>
     </g>
     <g id="text_9">
      <!-- 100 -->
      <g transform="translate(68.4125 179.715474) scale(0.1 -0.1)">
       <use xlink:href="#DejaVuSans-31"/>
       <use xlink:href="#DejaVuSans-30" transform="translate(63.623047 0)"/>
       <use xlink:href="#DejaVuSans-30" transform="translate(127.246094 0)"/>
      </g>
     </g>
    </g>
    <g id="ytick_4">
     <g id="line2d_10">
      <g>
       <use xlink:href="#m164de0e750" x="94.5" y="154.275992" style="stroke: #000000; stroke-width: 0.8"/>
      </g>
     </g>
     <g id="text_10">
      <!-- 125 -->
      <g transform="translate(68.4125 158.07521) scale(0.1 -0.1)">
       <use xlink:href="#DejaVuSans-31"/>
       <use xlink:href="#DejaVuSans-32" transform="translate(63.623047 0)"/>
       <use xlink:href="#DejaVuSans-35" transform="translate(127.246094 0)"/>
      </g>
     </g>
    </g>
    <g id="ytick_5">
     <g id="line2d_11">
      <g>
       <use xlink:href="#m164de0e750" x="94.5" y="132.635728" style="stroke: #000000; stroke-width: 0.8"/>
      </g>
     </g>
     <g id="text_11">
      <!-- 150 -->
      <g transform="translate(68.4125 136.434947) scale(0.1 -0.1)">
       <use xlink:href="#DejaVuSans-31"/>
       <use xlink:href="#DejaVuSans-35" transform="translate(63.623047 0)"/>
       <use xlink:href="#DejaVuSans-30" transform="translate(127.246094 0)"/>
      </g>
     </g>
    </g>
    <g id="ytick_6">
     <g id="line2d_12">
      <g>
       <use xlink:href="#m164de0e750" x="94.5" y="110.995464" style="stroke: #000000; stroke-width: 0.8"/>
      </g>
     </g>
     <g id="text_12">
      <!-- 175 -->
      <g transform="translate(68.4125 114.794683) scale(0.1 -0.1)">
       <use xlink:href="#DejaVuSans-31"/>
       <use xlink:href="#DejaVuSans-37" transform="translate(63.623047 0)"/>
       <use xlink:href="#DejaVuSans-35" transform="translate(127.246094 0)"/>
      </g>
     </g>
    </g>
    <g id="ytick_7">
     <g id="line2d_13">
      <g>
       <use xlink:href="#m164de0e750" x="94.5" y="89.355201" style="stroke: #000000; stroke-width: 0.8"/>
      </g>
     </g>
     <g id="text_13">
      <!-- 200 -->
      <g transform="translate(68.4125 93.154419) scale(0.1 -0.1)">
       <use xlink:href="#DejaVuSans-32"/>
       <use xlink:href="#DejaVuSans-30" transform="translate(63.623047 0)"/>
       <use xlink:href="#DejaVuSans-30" transform="translate(127.246094 0)"/>
      </g>
     </g>
    </g>
    <g id="ytick_8">
     <g id="line2d_14">
      <g>
       <use xlink:href="#m164de0e750" x="94.5" y="67.714937" style="stroke: #000000; stroke-width: 0.8"/>
      </g>
     </g>
     <g id="text_14">
      <!-- 225 -->
      <g transform="translate(68.4125 71.514156) scale(0.1 -0.1)">
       <use xlink:href="#DejaVuSans-32"/>
       <use xlink:href="#DejaVuSans-32" transform="translate(63.623047 0)"/>
       <use xlink:href="#DejaVuSans-35" transform="translate(127.246094 0)"/>
      </g>
     </g>
    </g>
    <g id="ytick_9">
     <g id="line2d_15">
      <g>
       <use xlink:href="#m164de0e750" x="94.5" y="46.074673" style="stroke: #000000; stroke-width: 0.8"/>
      </g>
     </g>
     <g id="text_15">
      <!-- 250 -->
      <g transform="translate(68.4125 49.873892) scale(0.1 -0.1)">
       <use xlink:href="#DejaVuSans-32"/>
       <use xlink:href="#DejaVuSans-35" transform="translate(63.623047 0)"/>
       <use xlink:href="#DejaVuSans-30" transform="translate(127.246094 0)"/>
      </g>
     </g>
    </g>
   </g>
   <g id="line2d_16">
    <path d="M 121.131818 196.060086 
L 121.393042 195.740211 
L 121.654267 195.932548 
L 122.43794 197.889325 
L 122.960388 194.671941 
L 123.221613 194.770223 
L 123.482837 197.772248 
L 124.26651 197.949964 
L 124.527734 195.819664 
L 125.050183 194.490044 
L 125.311407 195.414207 
L 126.09508 195.095672 
L 126.356304 195.502206 
L 126.617529 193.911705 
L 126.878753 194.399951 
L 127.139977 194.383203 
L 128.184874 195.630028 
L 128.446099 194.661909 
L 128.707323 195.357616 
L 128.968547 196.876873 
L 129.75222 199.992904 
L 130.013445 202.109401 
L 130.274669 201.151763 
L 130.535893 205.160481 
L 130.797118 205.194024 
L 131.58079 199.860902 
L 131.842015 201.849543 
L 132.103239 199.037366 
L 132.364463 201.095172 
L 132.625688 201.910321 
L 133.409361 206.700686 
L 133.670585 202.683573 
L 133.931809 204.760234 
L 134.193034 210.460074 
L 134.454258 204.227985 
L 135.237931 211.721573 
L 135.499155 209.489838 
L 135.760379 210.786976 
L 136.021604 211.18302 
L 136.282828 214.439471 
L 137.066501 215.46 
L 137.327725 210.742963 
L 137.58895 211.027966 
L 137.850174 208.320542 
L 138.111398 210.562745 
L 138.895071 209.081211 
L 139.156295 209.190178 
L 139.41752 211.993995 
L 139.678744 211.151601 
L 139.939968 211.889218 
L 140.723641 207.476042 
L 140.984866 208.113085 
L 141.24609 206.721647 
L 141.507314 206.31932 
L 142.552211 205.217078 
L 142.813436 202.325229 
L 143.07466 202.874273 
L 143.335884 202.400661 
L 143.597109 203.215829 
L 144.380782 204.445906 
L 144.642006 206.239681 
L 144.90323 204.619838 
L 145.164455 204.844053 
L 145.425679 203.180227 
L 146.209352 203.138291 
L 146.470576 204.100149 
L 146.993025 200.910753 
L 147.254249 201.901947 
L 148.037922 201.044889 
L 148.560371 199.479509 
L 148.821595 198.827805 
L 149.082819 197.312841 
L 149.866492 196.287458 
L 150.388941 197.833923 
L 150.650165 197.436813 
L 150.911389 197.821323 
L 151.695062 196.297965 
L 151.956287 196.680375 
L 152.217511 195.400748 
L 152.478735 195.900829 
L 152.739959 195.472184 
L 153.784857 195.92605 
L 154.046081 195.636084 
L 154.56853 195.671792 
L 155.874651 194.163136 
L 156.135875 194.751474 
L 156.3971 192.822586 
L 157.180773 192.410735 
L 157.703221 188.338617 
L 157.964446 191.898053 
L 158.22567 191.288708 
L 159.009343 190.408291 
L 159.270567 188.49831 
L 159.531791 188.601262 
L 159.793016 188.571834 
L 160.05424 188.994211 
L 160.837913 187.071617 
L 161.099137 185.462089 
L 161.360362 186.821566 
L 161.621586 185.817198 
L 161.88281 188.17263 
L 162.927707 185.825578 
L 163.188932 185.970571 
L 163.450156 185.970571 
L 164.495053 183.924011 
L 164.756278 184.167735 
L 165.017502 182.343905 
L 165.278726 181.999304 
L 165.539951 181.858531 
L 166.323623 182.23044 
L 166.584848 180.902471 
L 166.846072 180.341461 
L 167.107296 181.35213 
L 167.368521 181.51603 
L 168.152194 179.809865 
L 168.413418 180.950786 
L 168.674642 180.721777 
L 168.935867 184.443006 
L 169.197091 184.636315 
L 169.980764 182.79147 
L 170.241988 184.100505 
L 170.764437 181.631602 
L 171.025661 173.167966 
L 172.070558 170.306138 
L 172.331783 169.972058 
L 172.593007 166.744609 
L 172.854231 168.921169 
L 173.637904 167.561342 
L 173.899128 170.384126 
L 174.160353 167.323483 
L 174.421577 165.639488 
L 175.466474 165.978389 
L 175.727699 165.174296 
L 175.988923 165.052206 
L 176.250147 162.890379 
L 176.511371 157.758418 
L 177.295044 156.50596 
L 177.556269 157.375315 
L 177.817493 155.946013 
L 178.078717 157.219518 
L 178.339942 157.390035 
L 179.123615 153.826306 
L 179.384839 149.498465 
L 179.646063 151.83921 
L 179.907287 160.696984 
L 180.168512 160.629623 
L 181.213409 167.483467 
L 181.474633 163.694499 
L 181.735858 166.919326 
L 181.997082 168.173917 
L 182.780755 165.344794 
L 183.041979 165.19323 
L 183.303203 168.064441 
L 183.564428 169.571619 
L 183.825652 172.518612 
L 184.609325 169.790505 
L 184.870549 168.333868 
L 185.131774 172.282833 
L 185.392998 171.35663 
L 185.654222 167.938145 
L 186.437895 165.681589 
L 186.699119 166.41414 
L 187.221568 164.14073 
L 187.482792 167.315056 
L 188.266465 164.38491 
L 188.52769 167.197173 
L 188.788914 165.58054 
L 189.050138 165.673175 
L 189.311363 163.989173 
L 190.095035 157.73317 
L 190.35626 160.511727 
L 190.617484 160.435958 
L 190.878708 160.840115 
L 191.139933 162.26311 
L 191.923606 164.822754 
L 192.18483 163.534495 
L 192.446054 164.073388 
L 192.968503 165.614214 
L 193.752176 165.605827 
L 194.0134 164.300714 
L 194.274624 168.847494 
L 194.535849 165.378481 
L 194.797073 170.81777 
L 195.580746 170.893539 
L 195.84197 169.48739 
L 196.364419 162.25467 
L 196.625643 162.368531 
L 197.409316 164.367521 
L 197.67054 164.662711 
L 197.931765 161.693772 
L 198.192989 161.929954 
L 198.454213 161.887767 
L 199.237886 161.010566 
L 199.499111 161.778126 
L 199.760335 162.925209 
L 200.021559 162.410711 
L 201.066456 166.450819 
L 201.588905 164.61211 
L 202.111354 164.139779 
L 202.895027 162.064915 
L 203.156251 158.969455 
L 203.417475 158.665806 
L 203.678699 158.783893 
L 203.939924 159.365865 
L 204.984821 157.569316 
L 205.246045 159.762288 
L 205.50727 158.530851 
L 205.768494 159.230891 
L 206.552167 159.762288 
L 206.813391 154.617251 
L 207.074615 154.676298 
L 207.33584 153.925638 
L 207.597064 155.646253 
L 208.380737 154.322042 
L 208.641961 151.243449 
L 208.903186 152.019442 
L 209.16441 151.167555 
L 210.209307 147.186467 
L 210.731756 149.691476 
L 210.99298 150.560283 
L 212.037877 153.326787 
L 212.299102 151.977282 
L 212.560326 155.696874 
L 212.82155 152.053162 
L 213.082775 151.100048 
L 213.866447 153.689483 
L 214.127672 153.841271 
L 214.388896 152.078502 
L 214.911345 155.24139 
L 215.956242 154.659425 
L 216.739915 145.179064 
L 217.523588 141.931809 
L 217.784812 141.729367 
L 218.046036 142.657149 
L 218.568485 151.176021 
L 219.613382 148.620359 
L 219.874607 149.505954 
L 220.135831 146.596075 
L 220.397055 146.95506 
L 221.180728 146.828381 
L 221.703177 148.112334 
L 221.964401 148.331946 
L 222.225625 148.129214 
L 223.270523 149.97067 
L 223.531747 151.955752 
L 223.792971 152.91026 
L 224.054195 152.775121 
L 224.837868 156.04413 
L 225.099093 156.162376 
L 225.360317 156.5932 
L 225.621541 160.276113 
L 225.882766 160.048034 
L 226.666439 154.532111 
L 227.450111 161.002555 
L 227.711336 159.912888 
L 228.495009 164.187117 
L 228.756233 160.191646 
L 229.017457 161.129261 
L 229.278682 159.456744 
L 229.539906 160.242326 
L 230.323579 157.741993 
L 230.584803 156.407367 
L 230.846027 157.091564 
L 231.107252 160.664671 
L 231.368476 161.120801 
L 232.152149 158.248837 
L 232.413373 158.96682 
L 232.674598 161.036355 
L 233.197046 160.09028 
L 233.980719 159.938234 
L 234.241943 161.196847 
L 234.503168 159.296251 
L 234.764392 158.578255 
L 235.809289 156.128616 
L 236.070514 155.86675 
L 236.331738 154.439172 
L 236.854187 150.131189 
L 237.637859 151.617848 
L 237.899084 148.923262 
L 238.160308 150.950545 
L 238.421532 148.864129 
L 238.682757 149.151315 
L 239.46643 148.576878 
L 239.727654 150.038243 
L 239.988878 149.708831 
L 240.250103 151.026558 
L 240.511327 149.016155 
L 241.295 148.678264 
L 241.556224 148.957049 
L 241.817448 149.641245 
L 242.078673 149.725725 
L 242.339897 151.432035 
L 243.12357 150.51976 
L 243.384794 154.481418 
L 243.646019 154.270239 
L 243.907243 152.884901 
L 244.168467 152.301073 
L 245.213364 155.939488 
L 245.474589 158.596384 
L 245.997037 154.636436 
L 246.78071 155.634901 
L 247.041935 156.836408 
L 247.303159 156.971812 
L 247.564383 154.754907 
L 247.825607 156.345632 
L 248.60928 154.932589 
L 249.131729 155.144131 
L 249.392953 156.472563 
L 249.654178 157.039477 
L 250.699075 157.318718 
L 250.960299 156.658725 
L 251.221523 157.944844 
L 251.482748 155.956421 
L 252.266421 155.947967 
L 252.527645 155.237203 
L 252.788869 154.90719 
L 253.050094 155.770265 
L 253.311318 154.721054 
L 254.094991 152.072645 
L 254.356215 152.783363 
L 254.617439 152.351845 
L 254.878664 150.964175 
L 255.139888 152.089538 
L 255.923561 150.532651 
L 256.184785 149.111122 
L 256.968458 149.847293 
L 257.752131 148.434203 
L 258.013355 147.122672 
L 258.27458 146.58963 
L 258.535804 146.327316 
L 258.797028 144.051178 
L 259.841926 142.308136 
L 260.10315 140.150489 
L 260.364374 141.275865 
L 260.625599 139.693566 
L 261.409271 140.209688 
L 261.670496 139.245122 
L 261.93172 136.275173 
L 262.192944 136.842067 
L 262.454169 138.610496 
L 263.237842 141.944291 
L 263.499066 138.813611 
L 263.76029 139.448158 
L 264.282739 136.774389 
L 265.066412 136.41053 
L 265.58886 139.803563 
L 265.850085 139.245122 
L 266.111309 139.058966 
L 266.894982 139.346614 
L 267.156206 137.78974 
L 267.417431 138.136679 
L 267.678655 138.043548 
L 267.939879 138.636741 
L 268.723552 138.679139 
L 268.984776 139.094364 
L 269.246001 138.874052 
L 269.507225 136.306397 
L 269.768449 136.12843 
L 270.552122 134.416691 
L 270.813347 135.20477 
L 271.074571 138.45032 
L 271.335795 138.162211 
L 271.597019 136.899563 
L 272.380692 135.611502 
L 272.641917 135.687753 
L 273.164365 137.450396 
L 273.42559 136.552108 
L 274.209263 132.721858 
L 274.470487 133.815006 
L 274.731711 133.23876 
L 275.25416 131.721881 
L 276.299057 129.696593 
L 276.821506 131.916781 
L 277.08273 136.238599 
L 277.866403 135.747084 
L 278.127627 136.958907 
L 278.388851 136.187722 
L 278.650076 136.391114 
L 278.9113 138.704525 
L 279.694973 141.348457 
L 279.956197 140.933232 
L 280.217422 138.882518 
L 280.478646 138.052041 
L 280.73987 137.975751 
L 281.523543 139.289264 
L 281.784767 142.221279 
L 282.045992 141.44172 
L 282.307216 142.56872 
L 282.56844 141.594248 
L 283.352113 144.568635 
L 283.613338 142.899254 
L 284.135786 141.051854 
L 284.397011 141.382389 
L 285.180683 141.458653 
L 285.441908 142.560253 
L 285.703132 143.068689 
L 285.964356 140.653615 
L 286.225581 139.738394 
L 287.009254 138.289339 
L 287.270478 136.416553 
L 287.531702 135.992848 
L 287.792927 135.806415 
L 288.054151 136.475858 
L 288.837824 136.518216 
L 289.099048 135.941997 
L 289.360272 136.340276 
L 289.621497 133.187882 
L 289.882721 135.535251 
L 290.666394 136.247066 
L 291.188843 134.103103 
L 291.450067 134.55226 
L 291.711291 134.093989 
L 292.494964 134.806834 
L 292.756188 134.492849 
L 293.017413 136.945448 
L 293.278637 136.987846 
L 293.539861 135.188708 
L 294.323534 135.180229 
L 294.584759 134.331591 
L 294.845983 132.218456 
L 295.368431 126.227019 
L 296.152104 125.828159 
L 296.674553 125.047411 
L 297.197002 129.400955 
L 297.980675 126.490099 
L 298.241899 122.195925 
L 298.503123 122.64573 
L 298.764347 123.50286 
L 299.025572 125.13226 
L 299.809245 122.178966 
L 300.331693 113.896163 
L 300.592918 114.337527 
L 300.854142 110.187613 
L 301.899039 114.532665 
L 302.160263 110.314887 
L 302.421488 116.289378 
L 302.682712 117.239851 
L 303.466385 118.419446 
L 303.988834 113.42096 
L 304.250058 112.877813 
L 305.294955 109.440731 
L 305.556179 110.323353 
L 305.817404 110.24701 
L 306.078628 111.248401 
L 306.339852 111.783054 
L 307.123525 108.015067 
L 307.38475 109.975397 
L 307.907198 116.510007 
L 308.168423 116.365747 
L 308.952096 116.348775 
L 309.21332 113.896163 
L 309.474544 113.514249 
L 309.735768 116.348775 
L 309.996993 115.601972 
L 311.04189 118.377021 
L 311.303114 121.406698 
L 311.825563 124.648524 
L 312.609236 125.318984 
L 312.87046 126.880467 
L 313.131684 126.956849 
L 313.392909 127.355723 
L 313.654133 117.92727 
L 314.437806 114.15079 
L 314.69903 114.29501 
L 314.960255 113.251195 
L 315.221479 115.746245 
L 316.266376 116.612938 
L 316.5276 113.919291 
L 316.788825 112.687219 
L 317.311273 119.1791 
L 318.094946 118.975193 
L 318.356171 115.652744 
L 318.617395 115.856691 
L 318.878619 118.975193 
L 319.139844 120.317763 
L 320.184741 122.849941 
L 320.445965 126.461266 
L 320.968414 122.399582 
L 321.752087 122.170169 
L 322.013311 123.801656 
L 322.274535 120.946551 
L 322.53576 121.226974 
L 322.796984 123.827134 
L 323.580657 127.115572 
L 323.841881 128.696101 
L 324.103105 124.014096 
L 324.625554 130.998853 
L 325.409227 134.491225 
L 325.931676 126.869147 
L 326.1929 125.993947 
L 326.454124 123.13887 
L 327.237797 121.949223 
L 327.499021 119.02615 
L 327.760246 117.845036 
L 328.02147 114.565091 
L 328.282694 114.012752 
L 329.066367 113.265037 
L 329.327592 110.40992 
L 329.588816 111.421084 
L 329.85004 114.106226 
L 330.111264 114.361157 
L 330.894937 110.851812 
L 331.417386 116.468507 
L 331.67861 116.205083 
L 331.939835 117.947042 
L 332.723508 121.634842 
L 332.984732 120.011862 
L 333.245956 117.683619 
L 333.50718 122.025698 
L 334.552078 122.21266 
L 334.813302 120.232769 
L 335.074526 120.377253 
L 335.335751 121.065504 
L 335.596975 124.999782 
L 336.380648 124.073572 
L 336.641872 129.239921 
L 336.903096 129.435362 
L 337.164321 123.427746 
L 337.425545 128.517659 
L 338.209218 128.254222 
L 338.470442 126.962635 
L 338.731667 121.405416 
L 338.992891 129.265426 
L 339.254115 128.635687 
L 340.037788 133.077779 
L 340.299012 130.992883 
L 340.560237 137.809209 
L 340.821461 141.16205 
L 341.082685 137.290115 
L 341.866358 138.626134 
L 342.127583 135.477545 
L 342.388807 142.642738 
L 342.650031 145.595649 
L 342.911256 145.391438 
L 343.694928 140.694018 
L 343.956153 143.034242 
L 344.217377 142.898052 
L 344.478601 140.123888 
L 344.739826 135.137157 
L 346.045947 135.928564 
L 346.307172 133.801111 
L 346.568396 138.762297 
L 347.352069 138.115559 
L 347.613293 135.928564 
L 347.874517 136.566783 
L 348.396966 145.782822 
L 349.180639 150.250485 
L 349.441863 149.501622 
L 349.703088 147.229526 
L 349.964312 151.799282 
L 350.225536 150.522811 
L 351.270433 146.855074 
L 351.531658 147.297575 
L 352.054106 141.927939 
L 352.837779 141.927939 
L 353.099004 145.519029 
L 353.360228 143.99581 
L 353.621452 146.131756 
L 353.882676 144.251097 
L 354.927574 142.013039 
L 355.188798 140.855713 
L 355.450022 137.93684 
L 355.711247 137.349671 
L 356.49492 139.196318 
L 356.756144 138.353822 
L 357.017368 138.668691 
L 357.278592 136.132762 
L 357.539817 134.686124 
L 358.32349 137.324152 
L 358.584714 133.979804 
L 359.107163 130.278057 
L 359.368387 131.350296 
L 360.15206 132.320423 
L 360.413284 133.469243 
L 360.674508 129.052642 
L 360.935733 128.576118 
L 361.196957 124.185076 
L 361.98063 125.036051 
L 362.241854 126.312515 
L 362.503079 121.104534 
L 363.025527 121.572856 
L 363.8092 121.981887 
L 364.070424 121.939264 
L 364.331649 118.257963 
L 364.592873 118.897053 
L 364.854097 115.820778 
L 365.63777 114.891927 
L 365.898995 115.028288 
L 366.160219 113.733003 
L 366.421443 114.073853 
L 366.682668 116.315015 
L 367.46634 119.68105 
L 367.727565 119.970772 
L 367.988789 119.715154 
L 368.250013 117.584729 
L 368.511238 123.04706 
L 369.294911 124.955918 
L 369.817359 128.500898 
L 370.078584 127.8703 
L 370.339808 129.702431 
L 371.384705 130.793215 
L 371.645929 129.574616 
L 371.907154 130.852863 
L 372.168378 128.373069 
L 372.952051 123.208992 
L 373.213275 131.381176 
L 373.4745 130.128514 
L 373.735724 132.633852 
L 373.996948 134.056967 
L 374.780621 130.835838 
L 375.041845 128.773593 
L 375.30307 131.483434 
L 375.564294 132.318573 
L 375.825518 134.287053 
L 376.609191 133.997318 
L 376.870416 133.153686 
L 377.13164 134.789822 
L 377.654088 144.709011 
L 378.437761 141.087279 
L 378.698986 137.9769 
L 378.96021 137.721256 
L 379.221434 138.547836 
L 379.482659 143.098381 
L 380.266332 142.817152 
L 380.527556 144.04427 
L 380.78878 144.589675 
L 381.050004 140.627106 
L 381.311229 144.555545 
L 382.356126 139.979509 
L 382.61735 139.885745 
L 382.878575 140.286256 
L 383.139799 136.979868 
L 383.923472 135.122179 
L 384.184696 132.65945 
L 384.44592 135.207385 
L 384.707145 139.084722 
L 384.968369 129.762093 
L 385.752042 131.807298 
L 386.013266 134.099589 
L 386.535715 144.129476 
L 386.796939 144.359946 
L 387.580612 143.89902 
L 387.841836 143.403965 
L 388.103061 147.355994 
L 388.364285 137.113139 
L 388.625509 134.69751 
L 389.409182 135.90961 
L 389.670407 134.407313 
L 389.931631 135.474269 
L 390.192855 133.826854 
L 390.45408 133.340318 
L 391.237752 136.140066 
L 391.498977 134.287819 
L 391.760201 133.528125 
L 393.066323 139.375077 
L 393.327547 141.9785 
L 393.588771 136.122975 
L 393.849996 135.883986 
L 394.11122 136.310769 
L 394.894893 137.317958 
L 395.156117 140.493254 
L 395.417341 142.174813 
L 395.678566 140.715191 
L 395.93979 141.133454 
L 396.984687 138.308108 
L 397.245912 140.237188 
L 397.507136 145.964672 
L 397.76836 147.663282 
L 398.552033 149.489932 
L 398.813257 149.549686 
L 399.074482 146.860926 
L 399.335706 149.60944 
L 399.59693 149.925247 
L 400.641828 151.487298 
L 400.903052 154.893038 
L 401.164276 151.845774 
L 401.4255 151.572636 
L 402.470398 155.721011 
L 402.731622 154.619893 
L 402.992846 155.763687 
L 403.254071 151.837255 
L 404.037744 151.384869 
L 404.298968 150.889787 
L 404.560192 148.533912 
L 404.821416 148.602198 
L 405.082641 147.449904 
L 406.127538 146.442676 
L 406.388762 147.065798 
L 406.649987 147.014537 
L 406.911211 144.795274 
L 407.956108 140.817621 
L 408.217332 141.389508 
L 408.739781 137.915495 
L 409.523454 140.416436 
L 410.045903 138.342264 
L 410.568351 130.600376 
L 411.352024 132.964757 
L 411.613248 130.472349 
L 411.874473 132.802587 
L 412.135697 133.698853 
L 412.396921 133.382518 
L 413.180594 130.954672 
L 413.441819 131.510366 
L 413.703043 129.689487 
L 414.225492 132.066007 
L 415.270389 135.545382 
L 415.792837 134.758875 
L 416.054062 137.05847 
L 416.837735 136.024099 
L 417.098959 136.460061 
L 417.360183 138.255328 
L 417.621408 137.742376 
L 417.882632 133.36544 
L 418.666305 130.971763 
L 418.927529 132.878151 
L 419.188753 131.792439 
L 419.711202 135.528277 
L 420.494875 133.844157 
L 420.756099 132.031837 
L 421.017324 131.689891 
L 421.278548 129.244927 
L 421.539772 129.971574 
L 422.323445 127.919883 
L 422.584669 126.312713 
L 422.845894 127.552274 
L 423.368342 125.483491 
L 424.41324 127.706162 
L 424.674464 125.038944 
L 424.935688 123.679691 
L 425.196912 121.508308 
L 425.980585 120.422597 
L 426.24181 120.884249 
L 426.503034 122.48286 
L 426.764258 121.713471 
L 427.809156 123.961791 
L 428.331604 125.611703 
L 428.592828 120.944082 
L 428.854053 121.243273 
L 429.637726 121.226195 
L 430.160174 119.174464 
L 430.421399 120.012298 
L 430.682623 121.40572 
L 431.466296 121.140712 
L 431.72752 122.474314 
L 431.988744 122.48286 
L 432.249969 118.50769 
L 432.511193 117.421991 
L 433.294866 117.498929 
L 433.817315 119.328379 
L 434.078539 120.747478 
L 434.339763 114.096518 
L 435.123436 114.156364 
L 435.38466 115.635309 
L 435.645885 114.105064 
L 435.907109 113.942643 
L 436.168333 114.747337 
L 436.952006 115.175374 
L 437.213231 115.175374 
L 437.474455 114.644617 
L 437.735679 112.624309 
L 437.996904 112.530148 
L 438.780576 113.352 
L 439.041801 115.611983 
L 439.303025 115.372268 
L 439.564249 114.387784 
L 439.825474 112.299045 
L 440.870371 110.698188 
L 441.131595 110.740996 
L 441.39282 108.309821 
L 441.654044 107.573584 
L 442.698941 109.063136 
L 442.960165 110.253033 
L 443.22139 107.898875 
L 443.482614 107.565012 
L 444.266287 105.142396 
L 444.527511 105.553303 
L 444.788736 105.005401 
L 445.04996 103.241913 
L 445.311184 104.17503 
L 446.356081 104.097974 
L 446.617306 104.996842 
L 446.87853 102.394437 
L 447.139754 102.668374 
L 447.923427 103.875403 
L 448.184652 101.487009 
L 448.445876 100.46829 
L 448.7071 100.177235 
L 448.968324 96.4277 
L 450.274446 98.68771 
L 450.53567 98.276777 
L 450.796895 99.244143 
L 451.841792 101.469892 
L 452.103016 100.023135 
L 452.36424 99.363981 
L 452.625465 99.235571 
L 453.409138 96.410582 
L 453.670362 96.633179 
L 453.931586 95.460347 
L 454.454035 98.165485 
L 455.237708 97.472083 
L 455.760156 95.973986 
L 456.021381 97.069749 
L 456.282605 94.835442 
L 457.066278 94.304685 
L 457.327502 95.023777 
L 457.588727 97.617637 
L 457.849951 98.824692 
L 458.111175 106.683275 
L 458.894848 109.371322 
L 459.156072 108.558055 
L 459.417297 109.936315 
L 459.678521 110.124637 
L 459.939745 110.073191 
L 460.723418 108.64165 
L 460.984643 110.364655 
L 461.245867 111.119 
L 461.507091 113.322044 
L 462.551988 111.744764 
L 462.813213 110.553242 
L 463.074437 107.218668 
L 463.335661 111.28187 
L 463.596886 109.370305 
L 464.380559 108.015873 
L 464.903007 101.621072 
L 465.164232 101.432473 
L 465.425456 100.069509 
L 466.470353 99.863778 
L 466.992802 110.270362 
L 467.254026 109.738905 
L 468.037699 108.727397 
L 468.560148 113.14203 
L 468.821372 111.830472 
L 469.082596 112.456275 
L 470.127493 108.975962 
L 470.388718 112.044787 
L 470.649942 113.382062 
L 470.911166 112.644848 
L 471.694839 111.539033 
L 471.956064 115.070766 
L 472.217288 116.38231 
L 472.478512 116.159409 
L 472.739737 115.713673 
L 473.523409 113.536346 
L 473.784634 114.69358 
L 474.307082 112.541982 
L 474.568307 110.330354 
L 475.35198 109.044539 
L 475.613204 109.558865 
L 476.135653 107.570111 
L 476.396877 109.164574 
L 477.18055 109.275999 
L 477.702998 111.744764 
L 477.964223 112.070477 
L 478.225447 114.282119 
L 479.00912 114.17928 
L 479.270344 113.802081 
L 479.531569 115.807966 
L 479.792793 119.416821 
L 480.054017 118.276745 
L 481.098914 116.090819 
L 481.621363 110.261764 
L 481.882587 111.050424 
L 482.66626 108.838795 
L 482.927485 106.618621 
L 483.188709 105.701406 
L 483.449933 106.112867 
L 483.711157 102.482073 
L 484.49483 103.855432 
L 484.756055 101.589399 
L 485.017279 101.100142 
L 485.278503 99.640956 
L 485.539728 99.658127 
L 486.323401 98.14743 
L 486.584625 98.842708 
L 486.845849 98.267611 
L 487.368298 99.417791 
L 488.151971 99.5723 
L 488.413195 99.048715 
L 488.674419 99.932817 
L 488.935644 99.434949 
L 489.196868 98.327708 
L 489.980541 99.881305 
L 490.241765 96.45652 
L 490.502989 97.400693 
L 491.025438 94.490893 
L 491.809111 96.662528 
L 492.070335 95.349239 
L 492.33156 92.559635 
L 492.592784 92.430855 
L 493.637681 94.336397 
L 493.898905 93.435125 
L 494.16013 95.246229 
L 494.421354 95.374995 
L 494.682578 96.301997 
L 495.727476 96.774071 
L 495.9887 96.688284 
L 496.249924 96.319168 
L 496.511149 97.220441 
L 498.339719 106.962627 
L 499.123392 103.203094 
L 499.384616 103.563584 
L 499.64584 102.662325 
L 499.907065 103.177351 
L 500.168289 102.894089 
L 501.213186 104.859676 
L 501.47441 105.675122 
L 501.735635 100.567959 
L 501.996859 98.053044 
L 502.780532 96.053089 
L 503.041756 94.945836 
L 503.302981 95.529491 
L 503.564205 95.812754 
L 503.825429 97.314853 
L 504.609102 97.907107 
L 505.131551 104.198778 
L 505.392775 102.087241 
L 505.653999 102.95416 
L 506.437672 101.383404 
L 506.698897 99.992901 
L 506.960121 99.89845 
L 507.221345 100.83405 
L 507.482569 100.172281 
L 508.266242 101.633343 
L 508.527467 103.446758 
L 508.788691 104.211656 
L 509.049915 104.460895 
L 509.31114 105.793031 
L 510.356037 106.437616 
L 510.617261 105.784406 
L 510.878485 104.022582 
L 511.13971 105.612541 
L 511.923383 106.781372 
L 512.184607 105.51801 
L 512.445831 106.557916 
L 512.707056 107.133739 
L 512.96828 108.070529 
L 513.751953 111.98959 
L 514.013177 116.269579 
L 514.274401 117.129034 
L 514.535626 117.232163 
L 514.79685 115.745333 
L 515.841747 113.596747 
L 516.102972 115.401538 
L 516.364196 113.794394 
L 516.62542 114.120993 
L 517.409093 113.175605 
L 517.931542 108.921386 
L 518.192766 115.195279 
L 518.45399 114.413184 
L 519.237663 115.642191 
L 519.498888 116.621933 
L 519.760112 113.527972 
L 520.021336 115.100761 
L 521.066233 116.346926 
L 521.327458 117.369674 
L 521.588682 116.673537 
L 521.849906 117.386831 
L 522.111131 116.733674 
L 522.894804 117.704857 
L 523.156028 116.656314 
L 523.417252 118.280668 
L 523.678477 112.041142 
L 523.939701 110.743386 
L 524.723374 114.060829 
L 524.984598 116.905565 
L 525.768271 120.669906 
L 526.551944 119.947974 
L 526.813168 119.036967 
L 527.074393 117.214953 
L 527.335617 116.467265 
L 527.596841 116.974314 
L 528.380514 113.36468 
L 528.641738 116.089089 
L 528.902963 116.974314 
L 529.164187 113.768612 
L 529.425411 104.873425 
L 530.209084 106.308691 
L 530.470309 105.715671 
L 530.731533 105.423466 
L 530.992757 103.850677 
L 531.253981 104.943653 
L 532.298879 101.174214 
L 532.560103 99.203423 
L 533.082552 99.074352 
L 533.866225 98.067441 
L 534.127449 96.940031 
L 534.388673 98.187926 
L 534.649897 101.647528 
L 534.911122 98.979676 
L 535.956019 98.971051 
L 536.217243 98.712884 
L 536.739692 97.026109 
L 537.784589 95.218822 
L 538.045813 93.910711 
L 538.307038 95.106936 
L 538.568262 93.032896 
L 539.351935 96.277364 
L 539.613159 84.203104 
L 539.874384 79.108317 
L 540.135608 78.101418 
L 540.396832 79.607467 
L 541.180505 76.010143 
L 542.225402 83.910477 
L 543.009075 83.351097 
L 543.2703 82.550722 
L 543.531524 78.953411 
L 543.792748 78.22189 
L 544.053973 81.216803 
L 544.837645 75.941275 
L 545.09887 72.911955 
L 545.360094 71.810394 
L 545.882543 67.688085 
L 546.666216 66.414382 
L 546.92744 65.674288 
L 547.188664 61.97369 
L 547.449889 66.629543 
L 547.711113 64.073551 
L 548.494786 60.751617 
L 548.75601 60.390149 
L 549.278459 69.547003 
L 549.539683 69.435116 
L 550.323356 69.736328 
L 550.58458 68.832705 
L 550.845805 74.400806 
L 551.107029 75.304443 
L 551.368253 74.899943 
L 552.151926 74.658987 
L 552.41315 74.177047 
L 552.674375 71.354263 
L 552.935599 74.555712 
L 553.196823 73.264798 
L 554.241721 84.134236 
L 554.764169 78.901767 
L 555.025393 76.380196 
L 555.809066 75.053316 
L 556.070291 71.830946 
L 556.331515 71.443207 
L 556.592739 68.858408 
L 556.853964 67.71248 
L 557.637637 67.850347 
L 557.898861 67.316156 
L 558.160085 67.410938 
L 558.421309 69.022123 
L 558.682534 67.031824 
L 559.466207 66.738893 
L 559.727431 66.006513 
L 559.988655 67.333393 
L 560.24988 64.490123 
L 560.511104 65.170766 
L 561.817225 72.19281 
L 562.07845 70.874542 
L 562.339674 72.218645 
L 563.123347 72.141113 
L 563.384571 72.830395 
L 563.645796 70.633322 
L 563.90702 70.538513 
L 564.168244 70.771162 
L 564.951917 76.09585 
L 565.213141 75.690914 
L 565.474366 72.330664 
L 565.73559 65.282772 
L 566.780487 67.350616 
L 567.041712 66.575178 
L 567.302936 67.436773 
L 567.56416 66.445936 
L 567.825385 66.213314 
L 568.609057 61.724346 
L 568.870282 67.574627 
L 569.131506 67.083507 
L 569.39273 68.039898 
L 569.653955 67.066284 
L 570.437628 71.469068 
L 570.960076 64.705509 
L 571.221301 65.13632 
L 571.482525 66.420074 
L 572.266198 63.189079 
L 572.527422 60.991992 
L 572.788646 62.775531 
L 573.049871 62.456726 
L 573.311095 60.001168 
L 574.094768 58.725999 
L 574.355992 59.26019 
L 574.617217 63.65435 
L 574.878441 63.818065 
L 575.139665 63.094297 
L 575.923338 61.379731 
L 576.184562 61.147096 
L 576.968235 70.41791 
L 577.751908 71.193361 
L 578.013133 69.952639 
L 578.274357 70.581625 
L 578.535581 66.480396 
L 578.796805 66.713282 
L 579.580478 69.068048 
L 579.841703 69.068048 
L 580.102927 68.300389 
L 580.364151 65.626475 
L 580.625376 68.403875 
L 581.409049 65.798973 
L 581.670273 65.574725 
L 581.931497 64.95369 
L 582.192721 65.3677 
L 582.453946 64.203268 
L 583.237619 61.615629 
L 583.498843 59.72665 
L 583.760067 59.838787 
L 584.282516 57.768658 
L 585.066189 55.819304 
L 585.327413 53.179902 
L 585.588637 52.869391 
L 585.849862 52.843503 
L 586.111086 53.016015 
L 587.155983 48.763645 
L 587.417208 49.867703 
L 587.678432 48.599758 
L 587.939656 48.453121 
L 588.723329 45.943133 
L 588.984553 43.838504 
L 589.245778 48.522134 
L 589.507002 47.021316 
L 589.768226 42.967333 
L 590.551899 42.294535 
L 590.813124 39.767271 
L 591.335572 39.06 
L 591.596797 42.018537 
L 592.380469 44.942575 
L 592.641694 46.477892 
L 593.164142 52.144844 
L 593.425367 52.567492 
L 594.20904 51.152911 
L 594.470264 53.559426 
L 594.731488 53.136778 
L 595.253937 58.182668 
L 596.298834 61.261981 
L 596.560058 57.302885 
L 596.821283 65.591975 
L 597.082507 64.108394 
L 598.127404 70.439505 
L 598.388629 69.413059 
L 598.649853 69.559682 
L 598.911077 70.318743 
L 599.69475 64.211893 
L 599.955974 56.966499 
L 600.217199 56.01769 
L 600.739647 58.91584 
L 601.52332 65.807625 
L 601.784545 61.675991 
L 602.045769 61.96064 
L 602.306993 61.31373 
L 602.568217 66.135359 
L 603.35189 65.902248 
L 604.135563 53.916905 
L 604.396788 51.265959 
L 605.441685 51.378216 
L 605.702909 51.032822 
L 605.964133 50.203851 
L 606.225358 50.44564 
L 607.009031 49.107216 
L 607.270255 49.159032 
L 607.531479 54.927184 
L 607.792704 57.569492 
L 608.053928 53.649215 
L 608.837601 56.939145 
L 609.098825 58.752481 
L 609.360049 58.91654 
L 609.621274 59.270572 
L 609.882498 56.041095 
L 610.666171 66.04903 
L 611.449844 81.419284 
L 611.711068 78.129354 
L 612.494741 77.688967 
L 612.755965 78.820141 
L 613.01719 76.618233 
L 613.278414 77.602612 
L 613.539638 74.001827 
L 614.323311 71.877637 
L 614.584536 69.269869 
L 614.84576 71.186836 
L 615.106984 69.183514 
L 615.368209 74.321333 
L 616.413106 69.75342 
L 616.67433 69.148974 
L 617.196779 99.811751 
L 617.980452 105.787153 
L 618.241676 113.593181 
L 618.5029 90.770945 
L 618.764125 98.050231 
L 619.025349 91.375403 
L 619.809022 87.601909 
L 620.070246 87.930053 
L 620.33147 94.725761 
L 620.592695 92.385683 
L 621.637592 95.684238 
L 622.160041 85.805836 
L 622.421265 82.550458 
L 622.682489 81.764677 
L 623.466162 81.022061 
L 624.249835 78.276136 
L 624.511059 85.158213 
L 625.294732 90.736405 
L 625.555957 91.064536 
L 625.817181 93.016043 
L 626.339629 91.04726 
L 627.123302 80.222109 
L 627.384527 78.371803 
L 628.1682 79.815733 
L 628.951873 81.960013 
L 629.213097 83.620095 
L 629.474321 87.744385 
L 629.735545 88.375564 
L 629.99677 93.641146 
L 631.041667 89.369875 
L 631.302891 89.188316 
L 631.564116 89.594691 
L 631.82534 88.816519 
L 632.609013 88.08159 
L 632.870237 86.72412 
L 633.131462 87.113193 
L 633.392686 89.00673 
L 633.65391 86.162113 
L 634.437583 88.297742 
L 634.698807 87.242898 
L 634.960032 90.606305 
L 635.221256 90.243159 
L 635.48248 92.620894 
L 636.266153 90.917569 
L 636.527378 93.321244 
L 636.788602 92.508493 
L 637.31105 88.686828 
L 638.094723 88.254511 
L 638.355948 89.292066 
L 638.617172 88.20263 
L 638.878396 88.686828 
L 639.139621 88.617657 
L 639.923294 85.081328 
L 640.184518 82.790054 
L 640.445742 78.795468 
L 640.706966 77.835723 
L 641.751864 80.948399 
L 642.013088 80.896518 
L 642.535537 78.821409 
L 642.796761 79.902194 
L 643.580434 82.098355 
L 643.841658 81.674677 
L 644.102882 80.766814 
L 644.364107 80.887866 
L 644.625331 79.884904 
L 645.409004 78.760889 
L 645.670228 77.100794 
L 646.192677 77.654163 
L 646.453901 77.5504 
L 647.237574 77.403406 
L 647.760023 81.726559 
L 648.021247 83.006206 
L 648.282471 87.493628 
L 649.066144 86.654936 
L 649.327369 87.026746 
L 649.849817 72.232937 
L 650.111042 64.17458 
L 650.894714 65.827912 
L 651.155939 63.689853 
L 651.417163 60.5044 
L 651.678387 60.980488 
L 651.939612 62.010567 
L 652.984509 62.902145 
L 653.245733 66.840675 
L 653.506958 67.801503 
L 653.768182 65.325857 
L 653.768182 65.325857 
" clip-path="url(#p15f68a4b86)" style="fill: none; stroke: #1f77b4; stroke-width: 1.5; stroke-linecap: square"/>
   </g>
   <g id="patch_3">
    <path d="M 94.5 224.28 
L 94.5 30.24 
" style="fill: none; stroke: #000000; stroke-width: 0.8; stroke-linejoin: miter; stroke-linecap: square"/>
   </g>
   <g id="patch_4">
    <path d="M 94.5 224.28 
L 680.4 224.28 
" style="fill: none; stroke: #000000; stroke-width: 0.8; stroke-linejoin: miter; stroke-linecap: square"/>
   </g>
  </g>
 </g>
 <defs>
  <clipPath id="p15f68a4b86">
   <rect x="94.5" y="30.24" width="585.9" height="194.04"/>
  </clipPath>
 </defs>
</svg>
