<?xml version="1.0" encoding="utf-8" standalone="no"?>
<!DOCTYPE svg PUBLIC "-//W3C//DTD SVG 1.1//EN"
  "http://www.w3.org/Graphics/SVG/1.1/DTD/svg11.dtd">
<svg xmlns:xlink="http://www.w3.org/1999/xlink" width="1166.4pt" height="252pt" viewBox="0 0 1166.4 252" xmlns="http://www.w3.org/2000/svg" version="1.1">
 <metadata>
  <rdf:RDF xmlns:dc="http://purl.org/dc/elements/1.1/" xmlns:cc="http://creativecommons.org/ns#" xmlns:rdf="http://www.w3.org/1999/02/22-rdf-syntax-ns#">
   <cc:Work>
    <dc:type rdf:resource="http://purl.org/dc/dcmitype/StillImage"/>
    <dc:date>2025-09-05T15:24:33.630559</dc:date>
    <dc:format>image/svg+xml</dc:format>
    <dc:creator>
     <cc:Agent>
      <dc:title>Matplotlib v3.10.5, https://matplotlib.org/</dc:title>
     </cc:Agent>
    </dc:creator>
   </cc:Work>
  </rdf:RDF>
 </metadata>
 <defs>
  <style type="text/css">*{stroke-linejoin: round; stroke-linecap: butt}</style>
 </defs>
 <g id="figure_1">
  <g id="patch_1">
   <path d="M 0 252 
L 1166.4 252 
L 1166.4 0 
L 0 0 
z
" style="fill: #ffffff"/>
  </g>
  <g id="axes_1">
   <g id="patch_2">
    <path d="M 145.8 224.28 
L 1049.76 224.28 
L 1049.76 30.24 
L 145.8 30.24 
z
" style="fill: #ffffff"/>
   </g>
   <g id="matplotlib.axis_1">
    <g id="xtick_1">
     <g id="line2d_1">
      <defs>
       <path id="med1f40e897" d="M 0 0 
L 0 3.5 
" style="stroke: #000000; stroke-width: 0.8"/>
      </defs>
      <g>
       <use xlink:href="#med1f40e897" x="178.470838" y="224.28" style="stroke: #000000; stroke-width: 0.8"/>
      </g>
     </g>
     <g id="text_1">
      <!-- 2020 -->
      <g transform="translate(165.745838 238.878438) scale(0.1 -0.1)">
       <defs>
        <path id="DejaVuSans-32" d="M 1228 531 
L 3431 531 
L 3431 0 
L 469 0 
L 469 531 
Q 828 903 1448 1529 
Q 2069 2156 2228 2338 
Q 2531 2678 2651 2914 
Q 2772 3150 2772 3378 
Q 2772 3750 2511 3984 
Q 2250 4219 1831 4219 
Q 1534 4219 1204 4116 
Q 875 4013 500 3803 
L 500 4441 
Q 881 4594 1212 4672 
Q 1544 4750 1819 4750 
Q 2544 4750 2975 4387 
Q 3406 4025 3406 3419 
Q 3406 3131 3298 2873 
Q 3191 2616 2906 2266 
Q 2828 2175 2409 1742 
Q 1991 1309 1228 531 
z
" transform="scale(0.015625)"/>
        <path id="DejaVuSans-30" d="M 2034 4250 
Q 1547 4250 1301 3770 
Q 1056 3291 1056 2328 
Q 1056 1369 1301 889 
Q 1547 409 2034 409 
Q 2525 409 2770 889 
Q 3016 1369 3016 2328 
Q 3016 3291 2770 3770 
Q 2525 4250 2034 4250 
z
M 2034 4750 
Q 2819 4750 3233 4129 
Q 3647 3509 3647 2328 
Q 3647 1150 3233 529 
Q 2819 -91 2034 -91 
Q 1250 -91 836 529 
Q 422 1150 422 2328 
Q 422 3509 836 4129 
Q 1250 4750 2034 4750 
z
" transform="scale(0.015625)"/>
       </defs>
       <use xlink:href="#DejaVuSans-32"/>
       <use xlink:href="#DejaVuSans-30" transform="translate(63.623047 0)"/>
       <use xlink:href="#DejaVuSans-32" transform="translate(127.246094 0)"/>
       <use xlink:href="#DejaVuSans-30" transform="translate(190.869141 0)"/>
      </g>
     </g>
    </g>
    <g id="xtick_2">
     <g id="line2d_2">
      <g>
       <use xlink:href="#med1f40e897" x="325.188958" y="224.28" style="stroke: #000000; stroke-width: 0.8"/>
      </g>
     </g>
     <g id="text_2">
      <!-- 2021 -->
      <g transform="translate(312.463958 238.878438) scale(0.1 -0.1)">
       <defs>
        <path id="DejaVuSans-31" d="M 794 531 
L 1825 531 
L 1825 4091 
L 703 3866 
L 703 4441 
L 1819 4666 
L 2450 4666 
L 2450 531 
L 3481 531 
L 3481 0 
L 794 0 
L 794 531 
z
" transform="scale(0.015625)"/>
       </defs>
       <use xlink:href="#DejaVuSans-32"/>
       <use xlink:href="#DejaVuSans-30" transform="translate(63.623047 0)"/>
       <use xlink:href="#DejaVuSans-32" transform="translate(127.246094 0)"/>
       <use xlink:href="#DejaVuSans-31" transform="translate(190.869141 0)"/>
      </g>
     </g>
    </g>
    <g id="xtick_3">
     <g id="line2d_3">
      <g>
       <use xlink:href="#med1f40e897" x="471.506208" y="224.28" style="stroke: #000000; stroke-width: 0.8"/>
      </g>
     </g>
     <g id="text_3">
      <!-- 2022 -->
      <g transform="translate(458.781208 238.878438) scale(0.1 -0.1)">
       <use xlink:href="#DejaVuSans-32"/>
       <use xlink:href="#DejaVuSans-30" transform="translate(63.623047 0)"/>
       <use xlink:href="#DejaVuSans-32" transform="translate(127.246094 0)"/>
       <use xlink:href="#DejaVuSans-32" transform="translate(190.869141 0)"/>
      </g>
     </g>
    </g>
    <g id="xtick_4">
     <g id="line2d_4">
      <g>
       <use xlink:href="#med1f40e897" x="617.823459" y="224.28" style="stroke: #000000; stroke-width: 0.8"/>
      </g>
     </g>
     <g id="text_4">
      <!-- 2023 -->
      <g transform="translate(605.098459 238.878438) scale(0.1 -0.1)">
       <defs>
        <path id="DejaVuSans-33" d="M 2597 2516 
Q 3050 2419 3304 2112 
Q 3559 1806 3559 1356 
Q 3559 666 3084 287 
Q 2609 -91 1734 -91 
Q 1441 -91 1130 -33 
Q 819 25 488 141 
L 488 750 
Q 750 597 1062 519 
Q 1375 441 1716 441 
Q 2309 441 2620 675 
Q 2931 909 2931 1356 
Q 2931 1769 2642 2001 
Q 2353 2234 1838 2234 
L 1294 2234 
L 1294 2753 
L 1863 2753 
Q 2328 2753 2575 2939 
Q 2822 3125 2822 3475 
Q 2822 3834 2567 4026 
Q 2313 4219 1838 4219 
Q 1578 4219 1281 4162 
Q 984 4106 628 3988 
L 628 4550 
Q 988 4650 1302 4700 
Q 1616 4750 1894 4750 
Q 2613 4750 3031 4423 
Q 3450 4097 3450 3541 
Q 3450 3153 3228 2886 
Q 3006 2619 2597 2516 
z
" transform="scale(0.015625)"/>
       </defs>
       <use xlink:href="#DejaVuSans-32"/>
       <use xlink:href="#DejaVuSans-30" transform="translate(63.623047 0)"/>
       <use xlink:href="#DejaVuSans-32" transform="translate(127.246094 0)"/>
       <use xlink:href="#DejaVuSans-33" transform="translate(190.869141 0)"/>
      </g>
     </g>
    </g>
    <g id="xtick_5">
     <g id="line2d_5">
      <g>
       <use xlink:href="#med1f40e897" x="764.14071" y="224.28" style="stroke: #000000; stroke-width: 0.8"/>
      </g>
     </g>
     <g id="text_5">
      <!-- 2024 -->
      <g transform="translate(751.41571 238.878438) scale(0.1 -0.1)">
       <defs>
        <path id="DejaVuSans-34" d="M 2419 4116 
L 825 1625 
L 2419 1625 
L 2419 4116 
z
M 2253 4666 
L 3047 4666 
L 3047 1625 
L 3713 1625 
L 3713 1100 
L 3047 1100 
L 3047 0 
L 2419 0 
L 2419 1100 
L 313 1100 
L 313 1709 
L 2253 4666 
z
" transform="scale(0.015625)"/>
       </defs>
       <use xlink:href="#DejaVuSans-32"/>
       <use xlink:href="#DejaVuSans-30" transform="translate(63.623047 0)"/>
       <use xlink:href="#DejaVuSans-32" transform="translate(127.246094 0)"/>
       <use xlink:href="#DejaVuSans-34" transform="translate(190.869141 0)"/>
      </g>
     </g>
    </g>
    <g id="xtick_6">
     <g id="line2d_6">
      <g>
       <use xlink:href="#med1f40e897" x="910.858829" y="224.28" style="stroke: #000000; stroke-width: 0.8"/>
      </g>
     </g>
     <g id="text_6">
      <!-- 2025 -->
      <g transform="translate(898.133829 238.878438) scale(0.1 -0.1)">
       <defs>
        <path id="DejaVuSans-35" d="M 691 4666 
L 3169 4666 
L 3169 4134 
L 1269 4134 
L 1269 2991 
Q 1406 3038 1543 3061 
Q 1681 3084 1819 3084 
Q 2600 3084 3056 2656 
Q 3513 2228 3513 1497 
Q 3513 744 3044 326 
Q 2575 -91 1722 -91 
Q 1428 -91 1123 -41 
Q 819 9 494 109 
L 494 744 
Q 775 591 1075 516 
Q 1375 441 1709 441 
Q 2250 441 2565 725 
Q 2881 1009 2881 1497 
Q 2881 1984 2565 2268 
Q 2250 2553 1709 2553 
Q 1456 2553 1204 2497 
Q 953 2441 691 2322 
L 691 4666 
z
" transform="scale(0.015625)"/>
       </defs>
       <use xlink:href="#DejaVuSans-32"/>
       <use xlink:href="#DejaVuSans-30" transform="translate(63.623047 0)"/>
       <use xlink:href="#DejaVuSans-32" transform="translate(127.246094 0)"/>
       <use xlink:href="#DejaVuSans-35" transform="translate(190.869141 0)"/>
      </g>
     </g>
    </g>
   </g>
   <g id="matplotlib.axis_2">
    <g id="ytick_1">
     <g id="line2d_7">
      <defs>
       <path id="mf6a9632780" d="M 0 0 
L -3.5 0 
" style="stroke: #000000; stroke-width: 0.8"/>
      </defs>
      <g>
       <use xlink:href="#mf6a9632780" x="145.8" y="221.493169" style="stroke: #000000; stroke-width: 0.8"/>
      </g>
     </g>
     <g id="text_7">
      <!-- 0 -->
      <g transform="translate(132.4375 225.292388) scale(0.1 -0.1)">
       <use xlink:href="#DejaVuSans-30"/>
      </g>
     </g>
    </g>
    <g id="ytick_2">
     <g id="line2d_8">
      <g>
       <use xlink:href="#mf6a9632780" x="145.8" y="183.550649" style="stroke: #000000; stroke-width: 0.8"/>
      </g>
     </g>
     <g id="text_8">
      <!-- 20 -->
      <g transform="translate(126.075 187.349868) scale(0.1 -0.1)">
       <use xlink:href="#DejaVuSans-32"/>
       <use xlink:href="#DejaVuSans-30" transform="translate(63.623047 0)"/>
      </g>
     </g>
    </g>
    <g id="ytick_3">
     <g id="line2d_9">
      <g>
       <use xlink:href="#mf6a9632780" x="145.8" y="145.608129" style="stroke: #000000; stroke-width: 0.8"/>
      </g>
     </g>
     <g id="text_9">
      <!-- 40 -->
      <g transform="translate(126.075 149.407348) scale(0.1 -0.1)">
       <use xlink:href="#DejaVuSans-34"/>
       <use xlink:href="#DejaVuSans-30" transform="translate(63.623047 0)"/>
      </g>
     </g>
    </g>
    <g id="ytick_4">
     <g id="line2d_10">
      <g>
       <use xlink:href="#mf6a9632780" x="145.8" y="107.665609" style="stroke: #000000; stroke-width: 0.8"/>
      </g>
     </g>
     <g id="text_10">
      <!-- 60 -->
      <g transform="translate(126.075 111.464828) scale(0.1 -0.1)">
       <defs>
        <path id="DejaVuSans-36" d="M 2113 2584 
Q 1688 2584 1439 2293 
Q 1191 2003 1191 1497 
Q 1191 994 1439 701 
Q 1688 409 2113 409 
Q 2538 409 2786 701 
Q 3034 994 3034 1497 
Q 3034 2003 2786 2293 
Q 2538 2584 2113 2584 
z
M 3366 4563 
L 3366 3988 
Q 3128 4100 2886 4159 
Q 2644 4219 2406 4219 
Q 1781 4219 1451 3797 
Q 1122 3375 1075 2522 
Q 1259 2794 1537 2939 
Q 1816 3084 2150 3084 
Q 2853 3084 3261 2657 
Q 3669 2231 3669 1497 
Q 3669 778 3244 343 
Q 2819 -91 2113 -91 
Q 1303 -91 875 529 
Q 447 1150 447 2328 
Q 447 3434 972 4092 
Q 1497 4750 2381 4750 
Q 2619 4750 2861 4703 
Q 3103 4656 3366 4563 
z
" transform="scale(0.015625)"/>
       </defs>
       <use xlink:href="#DejaVuSans-36"/>
       <use xlink:href="#DejaVuSans-30" transform="translate(63.623047 0)"/>
      </g>
     </g>
    </g>
    <g id="ytick_5">
     <g id="line2d_11">
      <g>
       <use xlink:href="#mf6a9632780" x="145.8" y="69.723089" style="stroke: #000000; stroke-width: 0.8"/>
      </g>
     </g>
     <g id="text_11">
      <!-- 80 -->
      <g transform="translate(126.075 73.522308) scale(0.1 -0.1)">
       <defs>
        <path id="DejaVuSans-38" d="M 2034 2216 
Q 1584 2216 1326 1975 
Q 1069 1734 1069 1313 
Q 1069 891 1326 650 
Q 1584 409 2034 409 
Q 2484 409 2743 651 
Q 3003 894 3003 1313 
Q 3003 1734 2745 1975 
Q 2488 2216 2034 2216 
z
M 1403 2484 
Q 997 2584 770 2862 
Q 544 3141 544 3541 
Q 544 4100 942 4425 
Q 1341 4750 2034 4750 
Q 2731 4750 3128 4425 
Q 3525 4100 3525 3541 
Q 3525 3141 3298 2862 
Q 3072 2584 2669 2484 
Q 3125 2378 3379 2068 
Q 3634 1759 3634 1313 
Q 3634 634 3220 271 
Q 2806 -91 2034 -91 
Q 1263 -91 848 271 
Q 434 634 434 1313 
Q 434 1759 690 2068 
Q 947 2378 1403 2484 
z
M 1172 3481 
Q 1172 3119 1398 2916 
Q 1625 2713 2034 2713 
Q 2441 2713 2670 2916 
Q 2900 3119 2900 3481 
Q 2900 3844 2670 4047 
Q 2441 4250 2034 4250 
Q 1625 4250 1398 4047 
Q 1172 3844 1172 3481 
z
" transform="scale(0.015625)"/>
       </defs>
       <use xlink:href="#DejaVuSans-38"/>
       <use xlink:href="#DejaVuSans-30" transform="translate(63.623047 0)"/>
      </g>
     </g>
    </g>
    <g id="ytick_6">
     <g id="line2d_12">
      <g>
       <use xlink:href="#mf6a9632780" x="145.8" y="31.780569" style="stroke: #000000; stroke-width: 0.8"/>
      </g>
     </g>
     <g id="text_12">
      <!-- 100 -->
      <g transform="translate(119.7125 35.579787) scale(0.1 -0.1)">
       <use xlink:href="#DejaVuSans-31"/>
       <use xlink:href="#DejaVuSans-30" transform="translate(63.623047 0)"/>
       <use xlink:href="#DejaVuSans-30" transform="translate(127.246094 0)"/>
      </g>
     </g>
    </g>
   </g>
   <g id="line2d_13">
    <path d="M 186.889091 87.046661 
L 187.28996 85.08466 
L 187.690829 78.447456 
L 188.893437 108.588897 
L 189.294306 93.603339 
L 189.695175 91.60631 
L 190.096044 100.306669 
L 190.496914 127.834082 
L 191.699521 139.940446 
L 192.10039 117.645398 
L 192.501259 112.183364 
L 192.902129 112.353267 
L 193.302998 123.727118 
L 194.505605 118.445365 
L 194.906475 122.876621 
L 195.307344 115.333133 
L 195.708213 117.341598 
L 196.109082 102.360963 
L 197.712559 123.512655 
L 198.113428 126.561928 
L 198.514297 130.827731 
L 198.915166 119.446737 
L 200.117774 139.774425 
L 200.518643 167.12217 
L 200.919512 163.42295 
L 201.320381 181.724794 
L 201.721251 179.698958 
L 202.923858 146.728471 
L 203.324727 151.640886 
L 203.725596 145.853214 
L 204.126466 150.271389 
L 204.527335 152.441454 
L 205.729942 160.280755 
L 206.130812 148.845365 
L 206.531681 151.660073 
L 206.93255 158.990991 
L 207.333419 135.992379 
L 208.536027 145.507726 
L 208.936896 142.585859 
L 209.337765 138.021641 
L 209.738634 138.662194 
L 210.139503 157.255085 
L 211.342111 155.847919 
L 211.74298 150.721734 
L 212.143849 147.891418 
L 212.544718 139.792098 
L 212.945588 135.025109 
L 214.148195 141.388859 
L 214.549064 137.364807 
L 214.949933 130.648128 
L 215.350803 147.902112 
L 215.751672 127.295923 
L 217.355149 116.748236 
L 217.756018 110.754008 
L 218.156887 94.260429 
L 219.760364 85.936417 
L 220.161233 90.41984 
L 220.562102 91.971057 
L 220.962971 98.668 
L 221.36384 89.269719 
L 222.566448 102.73916 
L 222.967317 112.70141 
L 223.368186 89.6261 
L 223.769055 93.908973 
L 224.169925 83.627637 
L 225.372532 98.9034 
L 225.773401 101.529913 
L 226.174271 99.191369 
L 226.57514 95.650514 
L 226.976009 107.515804 
L 228.178616 118.209245 
L 228.579486 108.983251 
L 228.980355 108.106931 
L 229.381224 98.494582 
L 229.782093 81.75391 
L 230.984701 60.651795 
L 231.38557 73.180954 
L 232.187308 83.882297 
L 232.588177 88.092902 
L 233.790785 72.404251 
L 234.191654 83.543136 
L 234.592523 83.510332 
L 234.993392 77.682883 
L 235.394262 79.438773 
L 237.398608 91.508277 
L 237.799477 95.318097 
L 238.200346 107.895938 
L 239.402953 109.810891 
L 240.204692 78.562378 
L 240.605561 92.373063 
L 241.00643 73.826019 
L 242.209038 79.76664 
L 242.609907 63.228294 
L 243.010776 61.4538 
L 243.411645 98.166902 
L 243.812514 97.279298 
L 245.015122 89.100333 
L 245.415991 83.133944 
L 245.81686 84.141467 
L 246.217729 83.469317 
L 246.618599 90.097375 
L 247.821206 84.514268 
L 248.222075 80.904146 
L 248.622945 86.665245 
L 249.023814 89.500918 
L 249.424683 106.371547 
L 250.62729 108.300659 
L 251.02816 113.475894 
L 251.429029 88.382637 
L 251.829898 90.830813 
L 253.433375 86.316526 
L 253.834244 96.406802 
L 254.235113 87.866617 
L 254.635982 86.735249 
L 255.036851 82.521494 
L 256.239459 93.341885 
L 256.640328 94.624827 
L 257.041197 78.283816 
L 257.442067 93.336181 
L 257.842936 66.656014 
L 259.045543 66.676855 
L 259.446412 84.703597 
L 259.847282 81.827654 
L 260.248151 116.867612 
L 260.64902 131.842725 
L 261.851627 117.683041 
L 262.252497 138.483384 
L 262.653366 130.368404 
L 263.054235 125.295533 
L 263.455104 91.02752 
L 264.657712 88.846966 
L 265.058581 88.732374 
L 265.860319 75.68632 
L 266.261188 89.710574 
L 267.463796 81.58231 
L 267.864665 94.78237 
L 268.265534 72.727958 
L 268.666404 69.637137 
L 269.067273 72.415374 
L 270.26988 66.946641 
L 271.071619 68.937096 
L 271.472488 80.11166 
L 271.873357 74.268723 
L 273.075965 73.156015 
L 273.476834 78.864568 
L 273.877703 82.511673 
L 274.278572 76.886317 
L 274.679441 80.957658 
L 275.882049 54.796081 
L 276.282918 53.535121 
L 276.683787 71.603525 
L 277.084656 111.985637 
L 277.485525 110.964206 
L 279.089002 132.337696 
L 279.489871 123.576984 
L 279.890741 135.493179 
L 280.29161 151.792204 
L 281.494217 147.16045 
L 281.895086 145.114535 
L 282.295956 154.285514 
L 282.696825 154.661064 
L 283.097694 158.822899 
L 284.300302 161.249505 
L 284.701171 170.342994 
L 285.10204 172.279089 
L 285.502909 155.898061 
L 285.903778 144.925486 
L 287.106386 121.505603 
L 287.507255 135.164229 
L 287.908124 120.129905 
L 288.308993 112.996538 
L 288.709863 133.219426 
L 289.91247 124.177087 
L 290.313339 123.992679 
L 291.115078 103.746326 
L 291.515947 106.496358 
L 292.718554 95.33303 
L 293.119424 90.562661 
L 293.520293 92.223301 
L 293.921162 101.78028 
L 294.322031 114.285484 
L 295.524639 121.261187 
L 295.925508 121.773886 
L 296.326377 126.405624 
L 296.727246 118.053585 
L 297.128115 131.691238 
L 298.330723 119.188603 
L 298.731592 120.553387 
L 299.132461 138.97247 
L 299.53333 131.667784 
L 299.9342 175.544243 
L 301.136807 170.067176 
L 301.537676 162.403548 
L 302.339415 126.609712 
L 302.740284 118.003529 
L 303.942891 129.491901 
L 304.343761 128.674705 
L 304.74463 115.937765 
L 305.145499 114.625864 
L 305.546368 114.52987 
L 306.748976 115.763492 
L 307.149845 99.731085 
L 307.550714 116.340692 
L 307.951583 81.522096 
L 309.55506 112.40185 
L 309.955929 124.731482 
L 310.356798 141.704854 
L 311.158537 137.691142 
L 312.361144 112.337858 
L 312.762013 96.759315 
L 313.162882 107.998092 
L 313.563752 107.121551 
L 313.964621 111.526657 
L 315.167228 109.618977 
L 315.568098 101.658933 
L 315.968967 109.018586 
L 316.770705 103.256935 
L 317.973313 84.162914 
L 318.374182 73.02962 
L 318.775051 75.143257 
L 319.17592 74.493674 
L 319.576789 93.232883 
L 320.779397 99.847437 
L 321.180266 90.025456 
L 321.581135 94.37446 
L 321.982004 88.059308 
L 323.585481 81.377295 
L 323.98635 91.488757 
L 324.38722 84.470608 
L 324.788089 92.720984 
L 326.391565 103.645376 
L 326.792435 97.306136 
L 327.193304 130.948525 
L 327.594173 117.534701 
L 327.995042 116.904388 
L 329.19765 120.102854 
L 329.999388 129.692819 
L 330.400257 132.753772 
L 330.801126 140.712307 
L 332.404603 156.104839 
L 333.206341 117.998675 
L 333.607211 109.713376 
L 334.809818 91.36276 
L 335.210687 93.679875 
L 335.611557 80.317251 
L 336.012426 108.522915 
L 336.413295 126.871853 
L 337.615902 112.818144 
L 338.016772 110.367576 
L 338.417641 118.382528 
L 338.81851 104.610973 
L 339.219379 100.144007 
L 340.421987 101.209329 
L 340.822856 113.974488 
L 341.223725 131.105951 
L 341.624594 140.719677 
L 342.025463 158.95103 
L 343.62894 166.056801 
L 344.029809 168.862645 
L 344.430678 159.209427 
L 344.831548 137.907065 
L 346.034155 169.363879 
L 346.435024 176.697229 
L 346.835894 175.224886 
L 347.236763 215.46 
L 347.637632 212.417036 
L 348.840239 163.41797 
L 350.042847 175.033003 
L 350.443716 170.093159 
L 351.646324 174.534569 
L 352.047193 152.535749 
L 352.448062 152.497139 
L 353.2498 140.274062 
L 354.452408 131.380945 
L 354.853277 126.09428 
L 355.254146 116.393142 
L 355.655016 128.418281 
L 356.055885 149.139259 
L 357.659361 125.186822 
L 358.060231 126.75573 
L 358.4611 129.165992 
L 358.861969 109.400012 
L 360.064576 125.351491 
L 360.465446 126.973817 
L 360.866315 125.846065 
L 361.267184 118.408396 
L 362.870661 118.637922 
L 363.27153 123.797236 
L 363.672399 113.256459 
L 364.073268 81.130048 
L 364.474137 72.007333 
L 365.676745 91.093695 
L 366.077614 78.210686 
L 366.478483 77.902628 
L 366.879353 74.298421 
L 367.280222 77.363622 
L 368.482829 76.467344 
L 368.883698 77.823133 
L 369.284568 81.419964 
L 369.685437 92.052272 
L 370.086306 93.358106 
L 371.288914 93.128165 
L 371.689783 99.553116 
L 372.491521 124.181177 
L 372.89239 125.527148 
L 374.094998 137.378662 
L 374.495867 147.527138 
L 374.896736 162.858798 
L 375.297605 149.851572 
L 375.698475 149.779036 
L 376.901082 155.731436 
L 377.70282 165.551883 
L 378.10369 166.640232 
L 378.504559 154.806265 
L 379.707166 157.115485 
L 380.108035 158.679099 
L 380.508905 158.828779 
L 380.909774 141.054562 
L 381.310643 151.153988 
L 382.513251 128.777622 
L 382.91412 130.590859 
L 383.715858 147.084712 
L 384.116727 137.16612 
L 385.720204 134.537579 
L 386.121073 114.015013 
L 386.521942 134.842912 
L 386.922812 135.65982 
L 388.125419 128.941341 
L 388.526288 114.399283 
L 388.927157 111.082429 
L 389.328027 135.208221 
L 389.728896 112.228256 
L 390.931503 103.89806 
L 391.332373 109.004242 
L 391.733242 106.043142 
L 392.134111 86.197248 
L 392.53498 91.80253 
L 394.138457 80.501723 
L 394.539326 70.277493 
L 394.940195 79.208522 
L 395.341064 82.023973 
L 396.543672 79.443353 
L 396.944541 76.251236 
L 397.34541 65.845867 
L 397.746279 67.825892 
L 398.147149 68.845195 
L 400.151494 53.957201 
L 400.552364 67.960139 
L 400.953233 53.689629 
L 402.15584 61.695533 
L 402.55671 62.630421 
L 402.957579 55.182369 
L 403.358448 58.207585 
L 403.759317 71.094887 
L 404.961925 97.476752 
L 405.362794 92.264558 
L 405.763663 97.225001 
L 406.164532 94.705296 
L 406.565401 96.842673 
L 407.768009 100.96113 
L 408.168878 118.427519 
L 408.569747 120.259411 
L 408.970616 124.598951 
L 409.371486 121.323766 
L 410.574093 127.121687 
L 410.974962 134.422057 
L 411.375831 133.371432 
L 411.776701 123.389334 
L 412.17757 103.932216 
L 413.380177 125.448566 
L 413.781047 123.443837 
L 414.181916 132.702707 
L 414.582785 122.458736 
L 414.983654 124.07384 
L 416.587131 80.938007 
L 416.988 120.4739 
L 417.388869 119.740707 
L 417.789738 109.196802 
L 418.992346 110.792899 
L 419.393215 108.446987 
L 419.794084 117.747637 
L 420.194953 118.509643 
L 420.595823 112.913762 
L 421.79843 93.273017 
L 422.600169 109.519175 
L 423.001038 106.074826 
L 423.401907 111.26264 
L 425.005384 97.388109 
L 425.406253 82.558618 
L 425.807122 90.84106 
L 426.207991 123.439611 
L 427.410599 127.320431 
L 427.811468 132.681098 
L 428.212337 123.896363 
L 428.613206 121.392824 
L 429.014075 136.560234 
L 430.216683 168.841327 
L 430.617552 162.72339 
L 431.018421 153.158538 
L 431.41929 153.97917 
L 431.82016 156.941771 
L 433.022767 174.874766 
L 433.423636 178.505403 
L 434.626244 158.073889 
L 435.828851 163.834189 
L 436.63059 152.80841 
L 437.432328 126.822477 
L 438.634936 129.571733 
L 439.035805 148.395766 
L 439.436674 156.925838 
L 439.837543 140.709337 
L 440.238412 129.050504 
L 441.44102 103.569072 
L 441.841889 99.022828 
L 442.242758 88.965894 
L 442.643627 91.82364 
L 443.044497 69.627513 
L 444.247104 75.508444 
L 444.647973 76.175542 
L 445.048843 85.879608 
L 445.449712 70.259734 
L 445.850581 91.647878 
L 447.053188 88.417767 
L 447.454058 81.036239 
L 447.854927 84.904924 
L 448.255796 92.529157 
L 448.656665 97.01005 
L 449.859273 114.194914 
L 450.260142 114.938828 
L 450.661011 134.124871 
L 451.06188 130.15572 
L 451.462749 118.530988 
L 452.665357 121.816838 
L 453.066226 114.297258 
L 453.467095 120.25193 
L 453.867965 84.332698 
L 454.268834 71.804789 
L 455.471441 72.992074 
L 455.87231 75.360009 
L 456.27318 70.006297 
L 457.074918 104.172056 
L 458.277525 90.800655 
L 458.678395 81.763557 
L 459.079264 70.098922 
L 459.480133 75.071102 
L 459.881002 87.916806 
L 461.08361 81.923103 
L 461.484479 75.400371 
L 461.885348 73.813941 
L 462.286217 81.287574 
L 462.687086 78.34009 
L 464.290563 97.020159 
L 464.691432 90.698432 
L 465.092302 95.932371 
L 465.493171 103.873033 
L 466.695778 116.526499 
L 467.898386 96.076318 
L 469.501863 95.268959 
L 469.902732 107.674997 
L 470.303601 115.541174 
L 470.70447 117.409734 
L 471.105339 132.014803 
L 472.307947 109.087615 
L 472.708816 111.995408 
L 473.109685 138.644643 
L 473.510554 127.446035 
L 473.911424 123.328281 
L 475.114031 118.417822 
L 475.5149 119.508031 
L 475.915769 127.044138 
L 476.717508 154.02952 
L 478.320984 159.526156 
L 478.721854 167.069766 
L 479.122723 168.005979 
L 479.523592 170.398708 
L 480.7262 192.850933 
L 481.127069 192.382553 
L 481.527938 186.70571 
L 481.928807 182.759889 
L 482.329676 132.000677 
L 483.532284 119.991506 
L 483.933153 127.938704 
L 484.334022 125.797436 
L 484.734891 124.692075 
L 485.135761 127.919703 
L 486.338368 120.377471 
L 486.739237 99.731691 
L 487.140106 89.74118 
L 487.941845 107.358059 
L 489.144452 100.64654 
L 489.545322 93.230689 
L 489.946191 92.446791 
L 490.34706 130.520958 
L 490.747929 151.896292 
L 492.351406 158.401619 
L 492.752275 171.207205 
L 493.153144 155.365436 
L 493.554013 147.284098 
L 494.756621 144.786802 
L 495.15749 160.137719 
L 495.959228 144.653797 
L 496.360098 143.59872 
L 497.562705 153.192193 
L 497.963574 171.897602 
L 498.364443 150.958975 
L 498.765313 152.36223 
L 499.166182 156.143058 
L 500.368789 157.920709 
L 500.769659 137.948775 
L 501.170528 133.49163 
L 501.571397 136.075668 
L 501.972266 129.008398 
L 503.174874 122.049709 
L 503.575743 121.889914 
L 503.976612 118.468814 
L 504.77835 93.242236 
L 505.980958 86.408272 
L 506.381827 89.296178 
L 506.782696 77.852862 
L 507.183565 75.393748 
L 507.584435 58.520758 
L 508.787042 58.799211 
L 509.187911 80.096286 
L 509.58878 95.111823 
L 509.98965 101.407645 
L 510.390519 112.376612 
L 511.593126 135.672205 
L 511.993996 134.022552 
L 512.394865 137.643058 
L 512.795734 151.422041 
L 514.399211 154.828825 
L 514.80008 158.512921 
L 515.200949 156.588486 
L 515.601818 151.673014 
L 516.002687 160.222894 
L 517.606164 176.096359 
L 518.007033 171.843109 
L 518.407902 147.427985 
L 518.808772 154.258945 
L 520.011379 145.73549 
L 520.412248 146.896 
L 520.813118 136.505444 
L 521.213987 144.114553 
L 521.614856 141.970286 
L 522.817463 155.511982 
L 523.218333 149.45133 
L 523.619202 158.234283 
L 524.020071 157.494028 
L 524.42094 150.457665 
L 525.623548 144.882031 
L 526.024417 137.711539 
L 526.425286 161.085237 
L 526.826155 158.54275 
L 527.227024 158.690821 
L 528.429632 150.704118 
L 528.830501 166.941931 
L 529.23137 156.585545 
L 529.632239 150.680431 
L 530.033109 130.895717 
L 531.636585 136.930317 
L 532.438324 107.524204 
L 532.839193 130.348769 
L 534.0418 125.325488 
L 534.44267 127.826257 
L 534.843539 107.06257 
L 535.244408 112.870288 
L 535.645277 127.682676 
L 536.847885 152.336101 
L 537.649623 138.108061 
L 538.451361 169.684196 
L 540.054838 155.017268 
L 540.455707 155.609897 
L 540.856576 154.43229 
L 541.257446 135.094795 
L 542.460053 137.011752 
L 542.860922 151.725698 
L 543.662661 140.38694 
L 544.06353 122.088632 
L 545.667007 100.342302 
L 546.067876 99.412664 
L 546.468745 97.991058 
L 546.869614 75.472359 
L 548.072222 87.366629 
L 548.473091 93.767828 
L 548.87396 93.099822 
L 549.274829 92.971797 
L 549.675698 96.794857 
L 550.878306 109.616192 
L 551.279175 83.560612 
L 551.680044 83.13082 
L 552.080914 67.55361 
L 552.481783 76.981063 
L 553.68439 87.305871 
L 554.085259 96.652991 
L 554.486129 92.745575 
L 554.886998 93.017871 
L 555.287867 74.477591 
L 556.490475 80.375976 
L 556.891344 85.176341 
L 557.292213 80.565118 
L 557.693082 84.225252 
L 558.093951 71.957644 
L 559.296559 79.974581 
L 559.697428 83.570352 
L 560.098297 79.930748 
L 560.499166 77.373983 
L 560.900035 66.637124 
L 562.102643 58.507146 
L 562.503512 65.005274 
L 562.904381 63.791116 
L 563.70612 84.737539 
L 564.908727 97.825907 
L 565.309596 120.279064 
L 565.710466 117.308976 
L 566.111335 106.549744 
L 566.512204 130.867146 
L 567.714812 137.74826 
L 568.115681 161.175556 
L 568.51655 163.110075 
L 568.917419 177.365515 
L 569.318288 186.585815 
L 570.921765 187.951881 
L 571.322634 188.444654 
L 571.723503 189.671523 
L 572.124373 171.512106 
L 573.32698 138.901247 
L 573.727849 157.412869 
L 574.128718 153.949466 
L 574.529588 165.703155 
L 574.930457 158.76959 
L 576.133064 143.131622 
L 576.533933 131.447958 
L 577.335672 138.608591 
L 577.736541 138.92806 
L 578.939149 135.425908 
L 579.740887 137.441587 
L 580.542625 181.996992 
L 582.146102 148.439339 
L 582.546971 141.766118 
L 582.94784 140.246725 
L 583.34871 162.285271 
L 584.551317 169.820184 
L 584.952186 167.211053 
L 585.353055 166.67009 
L 585.753925 145.993102 
L 586.154794 155.49205 
L 587.357401 146.899834 
L 587.758271 140.012038 
L 588.15914 122.994521 
L 588.560009 111.314766 
L 588.960878 112.241192 
L 590.163486 116.146099 
L 590.564355 109.500472 
L 590.965224 115.982629 
L 591.366093 113.539016 
L 591.766962 94.14142 
L 592.96957 96.817808 
L 593.370439 102.1727 
L 593.771308 122.663496 
L 594.172177 125.692864 
L 594.573047 134.392622 
L 595.775654 136.187776 
L 596.176523 135.122365 
L 596.577392 142.27582 
L 596.978262 126.890628 
L 597.379131 125.837217 
L 598.581738 132.912759 
L 599.383477 119.071443 
L 599.784346 136.893257 
L 600.185215 130.672531 
L 601.387823 131.933565 
L 602.189561 92.108213 
L 602.991299 101.563559 
L 604.193907 114.118392 
L 604.594776 122.920908 
L 604.995645 98.810056 
L 605.396514 122.515054 
L 605.797384 132.455695 
L 606.999991 131.756716 
L 607.40086 147.427649 
L 607.801729 149.031452 
L 608.202599 149.812669 
L 608.603468 152.920291 
L 609.806075 137.071071 
L 610.206945 141.137793 
L 611.008683 157.287771 
L 611.409552 153.702992 
L 612.61216 151.840372 
L 613.013029 183.305876 
L 613.413898 168.412934 
L 613.814767 172.936087 
L 614.215636 171.67179 
L 615.819113 168.449224 
L 616.219982 171.879134 
L 616.620851 164.006349 
L 617.021721 161.866069 
L 618.625197 178.585952 
L 619.426936 176.147361 
L 619.827805 146.570106 
L 621.030412 139.858624 
L 621.832151 123.153979 
L 622.23302 133.232105 
L 622.633889 117.900485 
L 624.237366 112.951719 
L 624.638235 108.558996 
L 625.039104 88.979817 
L 625.439973 91.470063 
L 626.642581 84.553671 
L 627.04345 50.525 
L 627.444319 57.087326 
L 627.845188 44.601276 
L 628.246058 46.351077 
L 629.448665 70.388296 
L 629.849534 69.163434 
L 630.250404 72.08069 
L 630.651273 63.290052 
L 631.052142 60.704945 
L 632.254749 76.69409 
L 632.655619 69.333869 
L 633.056488 81.318105 
L 633.457357 89.605852 
L 633.858226 95.058426 
L 635.060834 92.229072 
L 635.862572 92.089049 
L 636.263441 102.518715 
L 636.66431 95.448213 
L 638.267787 113.761831 
L 638.668656 115.588711 
L 639.069525 130.835013 
L 639.470395 154.29826 
L 640.673002 140.577838 
L 641.073871 156.913464 
L 641.474741 155.017588 
L 641.87561 148.135046 
L 642.276479 126.56279 
L 643.479086 126.711121 
L 643.879956 132.224853 
L 644.280825 135.509402 
L 644.681694 137.61428 
L 645.082563 140.411264 
L 646.68604 113.934149 
L 647.086909 114.204045 
L 647.487778 95.178804 
L 647.888647 101.946387 
L 649.091255 94.061612 
L 649.492124 80.736498 
L 650.293863 97.478854 
L 650.694732 101.493261 
L 651.897339 100.191174 
L 652.298208 107.193813 
L 653.099947 71.070292 
L 653.500816 70.146003 
L 654.703424 71.540839 
L 655.104293 75.659868 
L 655.505162 93.334103 
L 655.906031 86.056269 
L 657.509508 107.382879 
L 657.910377 120.13059 
L 658.311246 116.579641 
L 658.712115 102.232565 
L 659.112984 107.66568 
L 660.315592 97.785603 
L 660.716461 90.97465 
L 661.11733 96.371016 
L 661.5182 107.157087 
L 661.919069 126.067145 
L 663.121676 130.82607 
L 663.522545 135.440885 
L 663.923415 126.636869 
L 664.725153 91.359708 
L 665.927761 83.724313 
L 666.32863 86.16229 
L 666.729499 115.00296 
L 667.130368 123.346443 
L 667.531237 94.320562 
L 668.733845 98.029461 
L 669.134714 110.192029 
L 669.936452 91.019954 
L 670.337322 96.93146 
L 671.539929 91.149865 
L 671.940798 91.092748 
L 672.341667 103.81583 
L 672.742537 99.853594 
L 673.143406 98.926562 
L 674.346013 98.378079 
L 674.746882 107.332446 
L 675.147752 96.78822 
L 675.548621 129.057257 
L 675.94949 113.532482 
L 677.552967 92.116072 
L 677.953836 100.218337 
L 678.755574 78.981687 
L 680.359051 88.842826 
L 680.75992 100.60096 
L 681.160789 99.194255 
L 681.561659 98.219191 
L 682.764266 83.788448 
L 683.165135 68.190746 
L 683.566004 67.516152 
L 683.966874 65.917373 
L 684.367743 79.233535 
L 685.97122 84.141629 
L 686.372089 91.683999 
L 686.772958 91.033252 
L 687.173827 96.221104 
L 688.376435 96.500939 
L 689.178173 72.776322 
L 689.579042 78.351857 
L 689.979911 69.792714 
L 691.182519 86.302801 
L 691.984257 90.479678 
L 692.385126 90.929478 
L 692.785996 104.432609 
L 693.988603 109.913498 
L 694.389472 113.009813 
L 694.790341 101.597628 
L 695.191211 109.62628 
L 695.59208 107.200327 
L 696.794687 88.093356 
L 697.195557 98.22496 
L 697.596426 97.599179 
L 697.997295 110.446486 
L 698.398164 137.608971 
L 699.600772 125.004385 
L 700.001641 113.543346 
L 700.40251 111.618238 
L 700.803379 112.58001 
L 701.204248 87.900395 
L 702.406856 81.957818 
L 702.807725 93.896861 
L 703.208594 116.547838 
L 703.609463 124.409268 
L 704.010333 169.884255 
L 705.613809 177.064286 
L 706.014678 176.501417 
L 706.415548 174.911607 
L 706.816417 178.931917 
L 708.019024 174.639157 
L 708.419894 182.322861 
L 708.820763 181.769531 
L 709.221632 199.276923 
L 709.622501 200.048709 
L 710.825109 191.460183 
L 711.225978 179.834142 
L 711.626847 158.241678 
L 712.027716 147.022532 
L 712.428585 126.632252 
L 713.631193 124.206657 
L 714.032062 104.967334 
L 714.432931 95.602086 
L 714.8338 95.267035 
L 715.23467 95.434168 
L 716.838146 86.050447 
L 717.239016 109.225501 
L 717.639885 117.588464 
L 718.040754 117.290636 
L 719.243361 117.680532 
L 719.644231 128.90168 
L 720.0451 144.280419 
L 720.445969 128.425504 
L 720.846838 137.163502 
L 722.049446 132.863403 
L 722.450315 142.094215 
L 722.851184 163.797081 
L 723.652922 170.603366 
L 724.85553 166.145715 
L 725.256399 161.224746 
L 725.657268 152.440938 
L 726.058137 154.121155 
L 726.459007 157.326479 
L 727.661614 136.441602 
L 728.062483 133.811533 
L 728.463353 134.975865 
L 728.864222 127.029158 
L 729.265091 128.549857 
L 730.467698 126.95038 
L 731.269437 100.210456 
L 731.670306 100.048455 
L 732.071175 114.522929 
L 733.273783 90.409529 
L 733.674652 90.704866 
L 734.075521 100.63854 
L 734.47639 105.020833 
L 734.877259 131.052376 
L 736.079867 123.377144 
L 736.480736 127.890969 
L 736.881605 147.020335 
L 737.282475 178.572625 
L 737.683344 179.873015 
L 738.885951 163.826575 
L 739.28682 170.050383 
L 739.68769 155.670925 
L 740.088559 131.746998 
L 740.489428 134.63494 
L 741.692035 118.917737 
L 742.092905 105.502777 
L 742.493774 101.036511 
L 743.295512 82.827741 
L 744.49812 90.793655 
L 744.898989 75.901181 
L 745.299858 52.587969 
L 745.700727 52.308793 
L 746.101596 54.094478 
L 747.304204 53.033831 
L 747.705073 61.356697 
L 748.105942 65.356629 
L 748.907681 68.338896 
L 750.110288 74.53435 
L 750.511157 79.314696 
L 750.912027 90.496502 
L 751.312896 85.036985 
L 751.713765 95.616162 
L 752.916373 97.377643 
L 753.317242 91.964693 
L 753.718111 102.431364 
L 754.11898 101.401025 
L 754.519849 95.869981 
L 755.722457 118.147376 
L 756.524195 98.762642 
L 756.925064 90.623473 
L 757.325933 92.784354 
L 758.528541 103.866266 
L 758.92941 95.266584 
L 759.330279 107.681126 
L 759.731149 112.620433 
L 760.132018 109.095614 
L 761.735494 128.473463 
L 762.136364 122.289752 
L 762.537233 130.58196 
L 762.938102 145.256733 
L 764.541579 161.423689 
L 764.942448 175.226518 
L 765.343317 204.671072 
L 765.744186 206.572966 
L 766.946794 174.243403 
L 767.347663 171.617267 
L 767.748532 171.617172 
L 768.149401 168.058 
L 768.550271 165.574914 
L 770.554616 169.49774 
L 770.955486 141.523832 
L 771.356355 132.758604 
L 772.558962 122.677327 
L 772.959831 93.096146 
L 773.360701 89.625877 
L 773.76157 78.700581 
L 774.162439 84.461852 
L 775.365047 99.528781 
L 776.166785 132.822517 
L 776.567654 122.526708 
L 776.968523 126.858176 
L 778.171131 113.627418 
L 778.572 105.843891 
L 779.373738 140.283974 
L 779.774608 148.35414 
L 781.378084 165.001733 
L 781.778953 166.358324 
L 782.179823 162.684806 
L 782.580692 164.911098 
L 784.184169 156.525039 
L 784.585038 136.974199 
L 784.985907 139.56462 
L 785.386776 143.534228 
L 786.589384 161.897242 
L 786.990253 163.046413 
L 787.391122 167.816886 
L 787.791991 166.527736 
L 788.19286 175.748289 
L 789.395468 182.096174 
L 789.796337 186.911796 
L 790.197206 187.07299 
L 790.598075 186.823181 
L 790.998945 173.180744 
L 792.201552 160.238933 
L 792.602421 161.701633 
L 793.00329 177.606717 
L 793.40416 163.256254 
L 793.805029 160.846083 
L 795.007636 162.894709 
L 795.809375 134.116073 
L 796.210244 150.765769 
L 796.611113 135.879909 
L 797.813721 123.909504 
L 798.21459 124.44465 
L 798.615459 112.54406 
L 799.016328 124.192881 
L 800.619805 135.677102 
L 801.020674 140.87341 
L 801.421543 131.657949 
L 801.822412 141.365665 
L 802.223282 137.199633 
L 803.425889 144.927871 
L 803.826758 149.853075 
L 804.227627 167.16205 
L 804.628497 112.958102 
L 805.029366 111.088424 
L 806.231973 120.508573 
L 806.632843 127.658272 
L 807.033712 144.353641 
L 807.434581 141.918616 
L 807.83545 143.586408 
L 809.038058 136.873212 
L 809.438927 135.93651 
L 809.839796 125.990206 
L 810.240665 125.638298 
L 810.641534 123.847969 
L 811.844142 115.244583 
L 812.245011 119.344612 
L 812.64588 146.847492 
L 813.046749 138.087311 
L 813.447619 98.193248 
L 814.650226 92.247585 
L 815.051095 85.642611 
L 815.451965 81.094254 
L 815.852834 69.50124 
L 816.253703 76.334903 
L 817.45631 73.574544 
L 817.85718 74.760565 
L 818.258049 73.04006 
L 818.658918 70.401931 
L 819.059787 75.612044 
L 820.663264 50.896567 
L 821.064133 62.748278 
L 821.465002 109.346447 
L 821.865871 89.911928 
L 823.469348 91.763654 
L 823.870217 91.875107 
L 824.271086 94.306878 
L 824.671956 83.306315 
L 825.874563 87.303734 
L 826.676302 92.501965 
L 827.077171 102.664439 
L 827.47804 94.530258 
L 828.680647 118.183487 
L 829.081517 87.70526 
L 829.482386 74.750191 
L 829.883255 57.760262 
L 830.284124 67.864041 
L 831.486732 64.148773 
L 832.689339 88.870956 
L 833.090208 96.151561 
L 834.292816 97.722978 
L 834.693685 96.865299 
L 835.094554 93.372058 
L 835.495424 88.671071 
L 835.896293 100.636139 
L 837.0989 83.901845 
L 837.499769 96.963186 
L 837.900639 105.071735 
L 838.702377 98.587994 
L 839.904984 90.864477 
L 840.305854 96.119236 
L 840.706723 81.468306 
L 841.107592 84.265329 
L 841.508461 73.087179 
L 842.711069 70.076384 
L 843.111938 70.525045 
L 843.512807 93.901093 
L 843.913676 107.179237 
L 844.314545 98.277349 
L 845.517153 109.543236 
L 845.918022 114.659816 
L 846.719761 148.167443 
L 847.12063 151.262531 
L 848.323237 153.115407 
L 848.724106 166.597092 
L 849.124976 143.15328 
L 849.525845 162.42827 
L 849.926714 172.733549 
L 851.129322 187.09043 
L 851.530191 183.383031 
L 851.93106 166.605661 
L 852.732798 144.935006 
L 853.935406 143.561398 
L 854.336275 119.140645 
L 854.737144 115.192255 
L 855.138013 109.872004 
L 855.538882 107.857953 
L 856.74149 109.364112 
L 857.142359 114.834889 
L 857.543228 103.544796 
L 857.944098 113.072444 
L 858.344967 62.068514 
L 859.547574 48.371938 
L 859.948443 49.639703 
L 860.349313 65.366591 
L 860.750182 64.773981 
L 861.151051 73.329422 
L 863.155397 130.0232 
L 863.556266 136.329716 
L 863.957135 148.085249 
L 865.159743 147.121942 
L 865.560612 152.759087 
L 865.961481 140.451626 
L 866.36235 133.616214 
L 866.76322 145.452135 
L 867.965827 163.799205 
L 868.366696 165.634343 
L 869.168435 129.160486 
L 869.569304 128.838992 
L 870.771911 114.92235 
L 871.17278 105.266346 
L 871.57365 113.314935 
L 871.974519 103.939098 
L 872.375388 103.478257 
L 873.577996 89.119316 
L 873.978865 117.493747 
L 874.379734 116.436477 
L 874.780603 118.750816 
L 875.181472 96.585674 
L 876.38408 114.314501 
L 876.784949 113.922613 
L 877.185818 124.739202 
L 877.586687 124.245536 
L 877.987557 123.539933 
L 879.190164 116.261486 
L 879.591033 107.706005 
L 879.991902 116.11374 
L 880.392772 115.894633 
L 880.793641 121.387497 
L 881.996248 95.038572 
L 882.397118 98.744987 
L 882.797987 112.79065 
L 883.198856 116.097156 
L 883.599725 95.550991 
L 884.802333 100.38527 
L 886.00494 131.850206 
L 886.405809 153.994983 
L 887.608417 167.566208 
L 888.009286 156.109242 
L 888.410155 159.55909 
L 888.811024 151.166341 
L 889.211894 158.188122 
L 890.414501 162.649476 
L 890.81537 150.58902 
L 891.216239 145.925073 
L 891.617109 136.647557 
L 892.017978 153.228218 
L 893.220585 142.724467 
L 893.621455 131.853907 
L 894.022324 113.984878 
L 894.824062 93.159741 
L 896.02667 89.251409 
L 896.427539 80.696673 
L 896.828408 92.442582 
L 897.630146 84.761228 
L 898.832754 63.344419 
L 899.233623 59.640969 
L 899.634492 60.218874 
L 900.035361 64.10262 
L 900.436231 39.67723 
L 901.638838 39.331865 
L 902.039707 39.06 
L 902.440576 50.07774 
L 902.841446 45.259859 
L 903.242315 46.000331 
L 904.444922 46.060158 
L 904.845792 45.895201 
L 905.246661 80.440998 
L 905.64753 81.6631 
L 906.048399 77.425121 
L 907.251007 81.361229 
L 907.651876 76.968838 
L 908.453614 75.770946 
L 908.854483 90.021092 
L 911.660568 138.247782 
L 912.863175 134.239963 
L 913.264044 148.151948 
L 913.664914 154.288361 
L 914.466652 155.043076 
L 915.669259 164.942854 
L 916.070129 184.902359 
L 916.470998 169.685995 
L 916.871867 189.720104 
L 917.272736 186.624477 
L 918.876213 189.360512 
L 919.277082 183.13645 
L 919.677951 181.794557 
L 920.07882 176.193628 
L 921.281428 153.92931 
L 921.682297 138.546915 
L 922.083166 131.836725 
L 922.484035 135.736108 
L 922.884905 128.282012 
L 924.087512 137.748363 
L 924.488381 127.41892 
L 924.889251 136.129514 
L 925.29012 116.204772 
L 925.690989 131.188831 
L 927.294466 107.855368 
L 928.096204 92.956962 
L 928.497073 97.903819 
L 930.10055 111.749084 
L 930.501419 113.127706 
L 930.902288 106.339088 
L 931.303157 102.417809 
L 932.505765 69.284244 
L 932.906634 76.201356 
L 933.307503 103.650754 
L 933.708373 115.187384 
L 934.109242 87.312866 
L 935.311849 101.009379 
L 936.514457 148.22678 
L 936.915326 145.431397 
L 939.320541 187.909966 
L 939.72141 181.804184 
L 940.924018 180.449584 
L 941.324887 176.28079 
L 941.725756 166.601155 
L 942.126625 180.381019 
L 942.527494 164.640951 
L 943.730102 155.658944 
L 944.130971 148.29612 
L 944.53184 150.735153 
L 944.93271 153.928231 
L 946.937055 112.628364 
L 947.337925 88.614128 
L 947.738794 145.303671 
L 948.139663 163.104713 
L 949.342271 167.638402 
L 949.74314 178.221144 
L 950.144009 140.542078 
L 950.544878 151.031975 
L 950.945747 145.497875 
L 952.148355 144.161881 
L 952.549224 142.903448 
L 952.950093 150.290969 
L 953.350962 143.835634 
L 954.954439 150.538659 
L 955.355308 145.097979 
L 955.756177 141.316174 
L 956.557916 105.506033 
L 957.760523 95.637803 
L 958.161392 80.52238 
L 958.562262 102.944498 
L 958.963131 80.458977 
L 959.364 112.191735 
L 960.566608 133.611314 
L 960.967477 133.611341 
L 961.368346 122.344944 
L 961.769215 125.492934 
L 962.170084 113.744458 
L 963.372692 103.006667 
L 963.773561 107.533906 
L 964.17443 116.479161 
L 964.575299 120.767491 
L 964.976169 123.228641 
L 966.178776 131.71275 
L 966.579645 139.079886 
L 966.980514 149.810215 
L 967.381384 136.025524 
L 967.782253 135.195594 
L 969.385729 122.188425 
L 969.786599 116.071785 
L 970.187468 120.020959 
L 970.588337 120.335913 
L 971.790945 158.372042 
L 972.191814 161.084706 
L 972.592683 160.742099 
L 972.993552 163.608963 
L 973.394421 149.198323 
L 974.597029 149.174875 
L 974.997898 139.819265 
L 975.398767 137.363711 
L 975.799636 133.711787 
L 976.200506 122.268038 
L 977.403113 134.133287 
L 977.803982 144.6152 
L 978.204851 139.080078 
L 979.00659 126.149773 
L 980.209197 127.294207 
L 980.610067 136.525355 
L 981.411805 125.368506 
L 981.812674 137.650412 
L 983.015282 113.106796 
L 983.416151 108.879341 
L 983.81702 80.753884 
L 984.217889 79.585828 
L 985.821366 83.636272 
L 986.222235 87.190069 
L 986.623104 70.562467 
L 987.023973 70.08044 
L 987.424843 85.416225 
L 988.62745 100.068208 
L 989.028319 92.817247 
L 989.429188 93.340419 
L 990.230927 88.558695 
L 991.834404 97.794298 
L 992.235273 117.244683 
L 992.636142 125.433341 
L 993.037011 98.114689 
L 994.239619 97.561052 
L 995.041357 146.834314 
L 995.442226 147.906847 
L 995.843095 158.357156 
L 997.045703 155.182889 
L 997.446572 163.718921 
L 997.847441 115.965157 
L 998.64918 88.851166 
L 999.851787 97.429176 
L 1000.252656 93.090501 
L 1000.653525 87.32455 
L 1001.054395 88.992451 
L 1001.455264 92.3909 
L 1002.657871 86.707644 
L 1003.058741 81.090513 
L 1003.45961 90.007992 
L 1003.860479 77.91264 
L 1004.261348 76.02349 
L 1005.463956 76.558466 
L 1006.265694 95.465517 
L 1006.666563 113.652658 
L 1007.067432 106.918182 
L 1008.670909 126.357968 
L 1008.670909 126.357968 
" clip-path="url(#p89f93608a2)" style="fill: none; stroke: #1f77b4; stroke-width: 1.5; stroke-linecap: square"/>
   </g>
   <g id="patch_3">
    <path d="M 145.8 224.28 
L 145.8 30.24 
" style="fill: none; stroke: #000000; stroke-width: 0.8; stroke-linejoin: miter; stroke-linecap: square"/>
   </g>
   <g id="patch_4">
    <path d="M 145.8 224.28 
L 1049.76 224.28 
" style="fill: none; stroke: #000000; stroke-width: 0.8; stroke-linejoin: miter; stroke-linecap: square"/>
   </g>
  </g>
 </g>
 <defs>
  <clipPath id="p89f93608a2">
   <rect x="145.8" y="30.24" width="903.96" height="194.04"/>
  </clipPath>
 </defs>
</svg>
