<?xml version="1.0" encoding="utf-8" standalone="no"?>
<!DOCTYPE svg PUBLIC "-//W3C//DTD SVG 1.1//EN"
  "http://www.w3.org/Graphics/SVG/1.1/DTD/svg11.dtd">
<svg xmlns:xlink="http://www.w3.org/1999/xlink" width="1166.4pt" height="252pt" viewBox="0 0 1166.4 252" xmlns="http://www.w3.org/2000/svg" version="1.1">
 <metadata>
  <rdf:RDF xmlns:dc="http://purl.org/dc/elements/1.1/" xmlns:cc="http://creativecommons.org/ns#" xmlns:rdf="http://www.w3.org/1999/02/22-rdf-syntax-ns#">
   <cc:Work>
    <dc:type rdf:resource="http://purl.org/dc/dcmitype/StillImage"/>
    <dc:date>2025-09-07T00:54:20.838992</dc:date>
    <dc:format>image/svg+xml</dc:format>
    <dc:creator>
     <cc:Agent>
      <dc:title>Matplotlib v3.10.5, https://matplotlib.org/</dc:title>
     </cc:Agent>
    </dc:creator>
   </cc:Work>
  </rdf:RDF>
 </metadata>
 <defs>
  <style type="text/css">*{stroke-linejoin: round; stroke-linecap: butt}</style>
 </defs>
 <g id="figure_1">
  <g id="patch_1">
   <path d="M 0 252 
L 1166.4 252 
L 1166.4 0 
L 0 0 
z
" style="fill: #ffffff"/>
  </g>
  <g id="axes_1">
   <g id="patch_2">
    <path d="M 145.8 224.28 
L 1049.76 224.28 
L 1049.76 30.24 
L 145.8 30.24 
z
" style="fill: #ffffff"/>
   </g>
   <g id="matplotlib.axis_1">
    <g id="xtick_1">
     <g id="line2d_1">
      <defs>
       <path id="md15e122539" d="M 0 0 
L 0 3.5 
" style="stroke: #000000; stroke-width: 0.8"/>
      </defs>
      <g>
       <use xlink:href="#md15e122539" x="188.375134" y="224.28" style="stroke: #000000; stroke-width: 0.8"/>
      </g>
     </g>
     <g id="text_1">
      <!-- 2024-03 -->
      <g transform="translate(167.483728 238.878438) scale(0.1 -0.1)">
       <defs>
        <path id="DejaVuSans-32" d="M 1228 531 
L 3431 531 
L 3431 0 
L 469 0 
L 469 531 
Q 828 903 1448 1529 
Q 2069 2156 2228 2338 
Q 2531 2678 2651 2914 
Q 2772 3150 2772 3378 
Q 2772 3750 2511 3984 
Q 2250 4219 1831 4219 
Q 1534 4219 1204 4116 
Q 875 4013 500 3803 
L 500 4441 
Q 881 4594 1212 4672 
Q 1544 4750 1819 4750 
Q 2544 4750 2975 4387 
Q 3406 4025 3406 3419 
Q 3406 3131 3298 2873 
Q 3191 2616 2906 2266 
Q 2828 2175 2409 1742 
Q 1991 1309 1228 531 
z
" transform="scale(0.015625)"/>
        <path id="DejaVuSans-30" d="M 2034 4250 
Q 1547 4250 1301 3770 
Q 1056 3291 1056 2328 
Q 1056 1369 1301 889 
Q 1547 409 2034 409 
Q 2525 409 2770 889 
Q 3016 1369 3016 2328 
Q 3016 3291 2770 3770 
Q 2525 4250 2034 4250 
z
M 2034 4750 
Q 2819 4750 3233 4129 
Q 3647 3509 3647 2328 
Q 3647 1150 3233 529 
Q 2819 -91 2034 -91 
Q 1250 -91 836 529 
Q 422 1150 422 2328 
Q 422 3509 836 4129 
Q 1250 4750 2034 4750 
z
" transform="scale(0.015625)"/>
        <path id="DejaVuSans-34" d="M 2419 4116 
L 825 1625 
L 2419 1625 
L 2419 4116 
z
M 2253 4666 
L 3047 4666 
L 3047 1625 
L 3713 1625 
L 3713 1100 
L 3047 1100 
L 3047 0 
L 2419 0 
L 2419 1100 
L 313 1100 
L 313 1709 
L 2253 4666 
z
" transform="scale(0.015625)"/>
        <path id="DejaVuSans-2d" d="M 313 2009 
L 1997 2009 
L 1997 1497 
L 313 1497 
L 313 2009 
z
" transform="scale(0.015625)"/>
        <path id="DejaVuSans-33" d="M 2597 2516 
Q 3050 2419 3304 2112 
Q 3559 1806 3559 1356 
Q 3559 666 3084 287 
Q 2609 -91 1734 -91 
Q 1441 -91 1130 -33 
Q 819 25 488 141 
L 488 750 
Q 750 597 1062 519 
Q 1375 441 1716 441 
Q 2309 441 2620 675 
Q 2931 909 2931 1356 
Q 2931 1769 2642 2001 
Q 2353 2234 1838 2234 
L 1294 2234 
L 1294 2753 
L 1863 2753 
Q 2328 2753 2575 2939 
Q 2822 3125 2822 3475 
Q 2822 3834 2567 4026 
Q 2313 4219 1838 4219 
Q 1578 4219 1281 4162 
Q 984 4106 628 3988 
L 628 4550 
Q 988 4650 1302 4700 
Q 1616 4750 1894 4750 
Q 2613 4750 3031 4423 
Q 3450 4097 3450 3541 
Q 3450 3153 3228 2886 
Q 3006 2619 2597 2516 
z
" transform="scale(0.015625)"/>
       </defs>
       <use xlink:href="#DejaVuSans-32"/>
       <use xlink:href="#DejaVuSans-30" transform="translate(63.623047 0)"/>
       <use xlink:href="#DejaVuSans-32" transform="translate(127.246094 0)"/>
       <use xlink:href="#DejaVuSans-34" transform="translate(190.869141 0)"/>
       <use xlink:href="#DejaVuSans-2d" transform="translate(254.492188 0)"/>
       <use xlink:href="#DejaVuSans-30" transform="translate(290.576172 0)"/>
       <use xlink:href="#DejaVuSans-33" transform="translate(354.199219 0)"/>
      </g>
     </g>
    </g>
    <g id="xtick_2">
     <g id="line2d_2">
      <g>
       <use xlink:href="#md15e122539" x="279.023761" y="224.28" style="stroke: #000000; stroke-width: 0.8"/>
      </g>
     </g>
     <g id="text_2">
      <!-- 2024-05 -->
      <g transform="translate(258.132355 238.878438) scale(0.1 -0.1)">
       <defs>
        <path id="DejaVuSans-35" d="M 691 4666 
L 3169 4666 
L 3169 4134 
L 1269 4134 
L 1269 2991 
Q 1406 3038 1543 3061 
Q 1681 3084 1819 3084 
Q 2600 3084 3056 2656 
Q 3513 2228 3513 1497 
Q 3513 744 3044 326 
Q 2575 -91 1722 -91 
Q 1428 -91 1123 -41 
Q 819 9 494 109 
L 494 744 
Q 775 591 1075 516 
Q 1375 441 1709 441 
Q 2250 441 2565 725 
Q 2881 1009 2881 1497 
Q 2881 1984 2565 2268 
Q 2250 2553 1709 2553 
Q 1456 2553 1204 2497 
Q 953 2441 691 2322 
L 691 4666 
z
" transform="scale(0.015625)"/>
       </defs>
       <use xlink:href="#DejaVuSans-32"/>
       <use xlink:href="#DejaVuSans-30" transform="translate(63.623047 0)"/>
       <use xlink:href="#DejaVuSans-32" transform="translate(127.246094 0)"/>
       <use xlink:href="#DejaVuSans-34" transform="translate(190.869141 0)"/>
       <use xlink:href="#DejaVuSans-2d" transform="translate(254.492188 0)"/>
       <use xlink:href="#DejaVuSans-30" transform="translate(290.576172 0)"/>
       <use xlink:href="#DejaVuSans-35" transform="translate(354.199219 0)"/>
      </g>
     </g>
    </g>
    <g id="xtick_3">
     <g id="line2d_3">
      <g>
       <use xlink:href="#md15e122539" x="369.672389" y="224.28" style="stroke: #000000; stroke-width: 0.8"/>
      </g>
     </g>
     <g id="text_3">
      <!-- 2024-07 -->
      <g transform="translate(348.780982 238.878438) scale(0.1 -0.1)">
       <defs>
        <path id="DejaVuSans-37" d="M 525 4666 
L 3525 4666 
L 3525 4397 
L 1831 0 
L 1172 0 
L 2766 4134 
L 525 4134 
L 525 4666 
z
" transform="scale(0.015625)"/>
       </defs>
       <use xlink:href="#DejaVuSans-32"/>
       <use xlink:href="#DejaVuSans-30" transform="translate(63.623047 0)"/>
       <use xlink:href="#DejaVuSans-32" transform="translate(127.246094 0)"/>
       <use xlink:href="#DejaVuSans-34" transform="translate(190.869141 0)"/>
       <use xlink:href="#DejaVuSans-2d" transform="translate(254.492188 0)"/>
       <use xlink:href="#DejaVuSans-30" transform="translate(290.576172 0)"/>
       <use xlink:href="#DejaVuSans-37" transform="translate(354.199219 0)"/>
      </g>
     </g>
    </g>
    <g id="xtick_4">
     <g id="line2d_4">
      <g>
       <use xlink:href="#md15e122539" x="461.807059" y="224.28" style="stroke: #000000; stroke-width: 0.8"/>
      </g>
     </g>
     <g id="text_4">
      <!-- 2024-09 -->
      <g transform="translate(440.915653 238.878438) scale(0.1 -0.1)">
       <defs>
        <path id="DejaVuSans-39" d="M 703 97 
L 703 672 
Q 941 559 1184 500 
Q 1428 441 1663 441 
Q 2288 441 2617 861 
Q 2947 1281 2994 2138 
Q 2813 1869 2534 1725 
Q 2256 1581 1919 1581 
Q 1219 1581 811 2004 
Q 403 2428 403 3163 
Q 403 3881 828 4315 
Q 1253 4750 1959 4750 
Q 2769 4750 3195 4129 
Q 3622 3509 3622 2328 
Q 3622 1225 3098 567 
Q 2575 -91 1691 -91 
Q 1453 -91 1209 -44 
Q 966 3 703 97 
z
M 1959 2075 
Q 2384 2075 2632 2365 
Q 2881 2656 2881 3163 
Q 2881 3666 2632 3958 
Q 2384 4250 1959 4250 
Q 1534 4250 1286 3958 
Q 1038 3666 1038 3163 
Q 1038 2656 1286 2365 
Q 1534 2075 1959 2075 
z
" transform="scale(0.015625)"/>
       </defs>
       <use xlink:href="#DejaVuSans-32"/>
       <use xlink:href="#DejaVuSans-30" transform="translate(63.623047 0)"/>
       <use xlink:href="#DejaVuSans-32" transform="translate(127.246094 0)"/>
       <use xlink:href="#DejaVuSans-34" transform="translate(190.869141 0)"/>
       <use xlink:href="#DejaVuSans-2d" transform="translate(254.492188 0)"/>
       <use xlink:href="#DejaVuSans-30" transform="translate(290.576172 0)"/>
       <use xlink:href="#DejaVuSans-39" transform="translate(354.199219 0)"/>
      </g>
     </g>
    </g>
    <g id="xtick_5">
     <g id="line2d_5">
      <g>
       <use xlink:href="#md15e122539" x="552.455686" y="224.28" style="stroke: #000000; stroke-width: 0.8"/>
      </g>
     </g>
     <g id="text_5">
      <!-- 2024-11 -->
      <g transform="translate(531.56428 238.878438) scale(0.1 -0.1)">
       <defs>
        <path id="DejaVuSans-31" d="M 794 531 
L 1825 531 
L 1825 4091 
L 703 3866 
L 703 4441 
L 1819 4666 
L 2450 4666 
L 2450 531 
L 3481 531 
L 3481 0 
L 794 0 
L 794 531 
z
" transform="scale(0.015625)"/>
       </defs>
       <use xlink:href="#DejaVuSans-32"/>
       <use xlink:href="#DejaVuSans-30" transform="translate(63.623047 0)"/>
       <use xlink:href="#DejaVuSans-32" transform="translate(127.246094 0)"/>
       <use xlink:href="#DejaVuSans-34" transform="translate(190.869141 0)"/>
       <use xlink:href="#DejaVuSans-2d" transform="translate(254.492188 0)"/>
       <use xlink:href="#DejaVuSans-31" transform="translate(290.576172 0)"/>
       <use xlink:href="#DejaVuSans-31" transform="translate(354.199219 0)"/>
      </g>
     </g>
    </g>
    <g id="xtick_6">
     <g id="line2d_6">
      <g>
       <use xlink:href="#md15e122539" x="643.104314" y="224.28" style="stroke: #000000; stroke-width: 0.8"/>
      </g>
     </g>
     <g id="text_6">
      <!-- 2025-01 -->
      <g transform="translate(622.212907 238.878438) scale(0.1 -0.1)">
       <use xlink:href="#DejaVuSans-32"/>
       <use xlink:href="#DejaVuSans-30" transform="translate(63.623047 0)"/>
       <use xlink:href="#DejaVuSans-32" transform="translate(127.246094 0)"/>
       <use xlink:href="#DejaVuSans-35" transform="translate(190.869141 0)"/>
       <use xlink:href="#DejaVuSans-2d" transform="translate(254.492188 0)"/>
       <use xlink:href="#DejaVuSans-30" transform="translate(290.576172 0)"/>
       <use xlink:href="#DejaVuSans-31" transform="translate(354.199219 0)"/>
      </g>
     </g>
    </g>
    <g id="xtick_7">
     <g id="line2d_7">
      <g>
       <use xlink:href="#md15e122539" x="730.780855" y="224.28" style="stroke: #000000; stroke-width: 0.8"/>
      </g>
     </g>
     <g id="text_7">
      <!-- 2025-03 -->
      <g transform="translate(709.889449 238.878438) scale(0.1 -0.1)">
       <use xlink:href="#DejaVuSans-32"/>
       <use xlink:href="#DejaVuSans-30" transform="translate(63.623047 0)"/>
       <use xlink:href="#DejaVuSans-32" transform="translate(127.246094 0)"/>
       <use xlink:href="#DejaVuSans-35" transform="translate(190.869141 0)"/>
       <use xlink:href="#DejaVuSans-2d" transform="translate(254.492188 0)"/>
       <use xlink:href="#DejaVuSans-30" transform="translate(290.576172 0)"/>
       <use xlink:href="#DejaVuSans-33" transform="translate(354.199219 0)"/>
      </g>
     </g>
    </g>
    <g id="xtick_8">
     <g id="line2d_8">
      <g>
       <use xlink:href="#md15e122539" x="821.429482" y="224.28" style="stroke: #000000; stroke-width: 0.8"/>
      </g>
     </g>
     <g id="text_8">
      <!-- 2025-05 -->
      <g transform="translate(800.538076 238.878438) scale(0.1 -0.1)">
       <use xlink:href="#DejaVuSans-32"/>
       <use xlink:href="#DejaVuSans-30" transform="translate(63.623047 0)"/>
       <use xlink:href="#DejaVuSans-32" transform="translate(127.246094 0)"/>
       <use xlink:href="#DejaVuSans-35" transform="translate(190.869141 0)"/>
       <use xlink:href="#DejaVuSans-2d" transform="translate(254.492188 0)"/>
       <use xlink:href="#DejaVuSans-30" transform="translate(290.576172 0)"/>
       <use xlink:href="#DejaVuSans-35" transform="translate(354.199219 0)"/>
      </g>
     </g>
    </g>
    <g id="xtick_9">
     <g id="line2d_9">
      <g>
       <use xlink:href="#md15e122539" x="912.078109" y="224.28" style="stroke: #000000; stroke-width: 0.8"/>
      </g>
     </g>
     <g id="text_9">
      <!-- 2025-07 -->
      <g transform="translate(891.186703 238.878438) scale(0.1 -0.1)">
       <use xlink:href="#DejaVuSans-32"/>
       <use xlink:href="#DejaVuSans-30" transform="translate(63.623047 0)"/>
       <use xlink:href="#DejaVuSans-32" transform="translate(127.246094 0)"/>
       <use xlink:href="#DejaVuSans-35" transform="translate(190.869141 0)"/>
       <use xlink:href="#DejaVuSans-2d" transform="translate(254.492188 0)"/>
       <use xlink:href="#DejaVuSans-30" transform="translate(290.576172 0)"/>
       <use xlink:href="#DejaVuSans-37" transform="translate(354.199219 0)"/>
      </g>
     </g>
    </g>
    <g id="xtick_10">
     <g id="line2d_10">
      <g>
       <use xlink:href="#md15e122539" x="1004.21278" y="224.28" style="stroke: #000000; stroke-width: 0.8"/>
      </g>
     </g>
     <g id="text_10">
      <!-- 2025-09 -->
      <g transform="translate(983.321374 238.878438) scale(0.1 -0.1)">
       <use xlink:href="#DejaVuSans-32"/>
       <use xlink:href="#DejaVuSans-30" transform="translate(63.623047 0)"/>
       <use xlink:href="#DejaVuSans-32" transform="translate(127.246094 0)"/>
       <use xlink:href="#DejaVuSans-35" transform="translate(190.869141 0)"/>
       <use xlink:href="#DejaVuSans-2d" transform="translate(254.492188 0)"/>
       <use xlink:href="#DejaVuSans-30" transform="translate(290.576172 0)"/>
       <use xlink:href="#DejaVuSans-39" transform="translate(354.199219 0)"/>
      </g>
     </g>
    </g>
   </g>
   <g id="matplotlib.axis_2">
    <g id="ytick_1">
     <g id="line2d_11">
      <defs>
       <path id="mbc66268087" d="M 0 0 
L -3.5 0 
" style="stroke: #000000; stroke-width: 0.8"/>
      </defs>
      <g>
       <use xlink:href="#mbc66268087" x="145.8" y="208.236509" style="stroke: #000000; stroke-width: 0.8"/>
      </g>
     </g>
     <g id="text_11">
      <!-- 20 -->
      <g transform="translate(126.075 212.035728) scale(0.1 -0.1)">
       <use xlink:href="#DejaVuSans-32"/>
       <use xlink:href="#DejaVuSans-30" transform="translate(63.623047 0)"/>
      </g>
     </g>
    </g>
    <g id="ytick_2">
     <g id="line2d_12">
      <g>
       <use xlink:href="#mbc66268087" x="145.8" y="186.024057" style="stroke: #000000; stroke-width: 0.8"/>
      </g>
     </g>
     <g id="text_12">
      <!-- 30 -->
      <g transform="translate(126.075 189.823276) scale(0.1 -0.1)">
       <use xlink:href="#DejaVuSans-33"/>
       <use xlink:href="#DejaVuSans-30" transform="translate(63.623047 0)"/>
      </g>
     </g>
    </g>
    <g id="ytick_3">
     <g id="line2d_13">
      <g>
       <use xlink:href="#mbc66268087" x="145.8" y="163.811606" style="stroke: #000000; stroke-width: 0.8"/>
      </g>
     </g>
     <g id="text_13">
      <!-- 40 -->
      <g transform="translate(126.075 167.610825) scale(0.1 -0.1)">
       <use xlink:href="#DejaVuSans-34"/>
       <use xlink:href="#DejaVuSans-30" transform="translate(63.623047 0)"/>
      </g>
     </g>
    </g>
    <g id="ytick_4">
     <g id="line2d_14">
      <g>
       <use xlink:href="#mbc66268087" x="145.8" y="141.599154" style="stroke: #000000; stroke-width: 0.8"/>
      </g>
     </g>
     <g id="text_14">
      <!-- 50 -->
      <g transform="translate(126.075 145.398373) scale(0.1 -0.1)">
       <use xlink:href="#DejaVuSans-35"/>
       <use xlink:href="#DejaVuSans-30" transform="translate(63.623047 0)"/>
      </g>
     </g>
    </g>
    <g id="ytick_5">
     <g id="line2d_15">
      <g>
       <use xlink:href="#mbc66268087" x="145.8" y="119.386703" style="stroke: #000000; stroke-width: 0.8"/>
      </g>
     </g>
     <g id="text_15">
      <!-- 60 -->
      <g transform="translate(126.075 123.185921) scale(0.1 -0.1)">
       <defs>
        <path id="DejaVuSans-36" d="M 2113 2584 
Q 1688 2584 1439 2293 
Q 1191 2003 1191 1497 
Q 1191 994 1439 701 
Q 1688 409 2113 409 
Q 2538 409 2786 701 
Q 3034 994 3034 1497 
Q 3034 2003 2786 2293 
Q 2538 2584 2113 2584 
z
M 3366 4563 
L 3366 3988 
Q 3128 4100 2886 4159 
Q 2644 4219 2406 4219 
Q 1781 4219 1451 3797 
Q 1122 3375 1075 2522 
Q 1259 2794 1537 2939 
Q 1816 3084 2150 3084 
Q 2853 3084 3261 2657 
Q 3669 2231 3669 1497 
Q 3669 778 3244 343 
Q 2819 -91 2113 -91 
Q 1303 -91 875 529 
Q 447 1150 447 2328 
Q 447 3434 972 4092 
Q 1497 4750 2381 4750 
Q 2619 4750 2861 4703 
Q 3103 4656 3366 4563 
z
" transform="scale(0.015625)"/>
       </defs>
       <use xlink:href="#DejaVuSans-36"/>
       <use xlink:href="#DejaVuSans-30" transform="translate(63.623047 0)"/>
      </g>
     </g>
    </g>
    <g id="ytick_6">
     <g id="line2d_16">
      <g>
       <use xlink:href="#mbc66268087" x="145.8" y="97.174251" style="stroke: #000000; stroke-width: 0.8"/>
      </g>
     </g>
     <g id="text_16">
      <!-- 70 -->
      <g transform="translate(126.075 100.97347) scale(0.1 -0.1)">
       <use xlink:href="#DejaVuSans-37"/>
       <use xlink:href="#DejaVuSans-30" transform="translate(63.623047 0)"/>
      </g>
     </g>
    </g>
    <g id="ytick_7">
     <g id="line2d_17">
      <g>
       <use xlink:href="#mbc66268087" x="145.8" y="74.9618" style="stroke: #000000; stroke-width: 0.8"/>
      </g>
     </g>
     <g id="text_17">
      <!-- 80 -->
      <g transform="translate(126.075 78.761018) scale(0.1 -0.1)">
       <defs>
        <path id="DejaVuSans-38" d="M 2034 2216 
Q 1584 2216 1326 1975 
Q 1069 1734 1069 1313 
Q 1069 891 1326 650 
Q 1584 409 2034 409 
Q 2484 409 2743 651 
Q 3003 894 3003 1313 
Q 3003 1734 2745 1975 
Q 2488 2216 2034 2216 
z
M 1403 2484 
Q 997 2584 770 2862 
Q 544 3141 544 3541 
Q 544 4100 942 4425 
Q 1341 4750 2034 4750 
Q 2731 4750 3128 4425 
Q 3525 4100 3525 3541 
Q 3525 3141 3298 2862 
Q 3072 2584 2669 2484 
Q 3125 2378 3379 2068 
Q 3634 1759 3634 1313 
Q 3634 634 3220 271 
Q 2806 -91 2034 -91 
Q 1263 -91 848 271 
Q 434 634 434 1313 
Q 434 1759 690 2068 
Q 947 2378 1403 2484 
z
M 1172 3481 
Q 1172 3119 1398 2916 
Q 1625 2713 2034 2713 
Q 2441 2713 2670 2916 
Q 2900 3119 2900 3481 
Q 2900 3844 2670 4047 
Q 2441 4250 2034 4250 
Q 1625 4250 1398 4047 
Q 1172 3844 1172 3481 
z
" transform="scale(0.015625)"/>
       </defs>
       <use xlink:href="#DejaVuSans-38"/>
       <use xlink:href="#DejaVuSans-30" transform="translate(63.623047 0)"/>
      </g>
     </g>
    </g>
    <g id="ytick_8">
     <g id="line2d_18">
      <g>
       <use xlink:href="#mbc66268087" x="145.8" y="52.749348" style="stroke: #000000; stroke-width: 0.8"/>
      </g>
     </g>
     <g id="text_18">
      <!-- 90 -->
      <g transform="translate(126.075 56.548567) scale(0.1 -0.1)">
       <use xlink:href="#DejaVuSans-39"/>
       <use xlink:href="#DejaVuSans-30" transform="translate(63.623047 0)"/>
      </g>
     </g>
    </g>
    <g id="ytick_9">
     <g id="line2d_19">
      <g>
       <use xlink:href="#mbc66268087" x="145.8" y="30.536896" style="stroke: #000000; stroke-width: 0.8"/>
      </g>
     </g>
     <g id="text_19">
      <!-- 100 -->
      <g transform="translate(119.7125 34.336115) scale(0.1 -0.1)">
       <use xlink:href="#DejaVuSans-31"/>
       <use xlink:href="#DejaVuSans-30" transform="translate(63.623047 0)"/>
       <use xlink:href="#DejaVuSans-30" transform="translate(127.246094 0)"/>
      </g>
     </g>
    </g>
   </g>
   <g id="line2d_20">
    <path d="M 186.889091 188.3053 
L 188.375134 199.10138 
L 192.833263 206.533734 
L 194.319306 212.17203 
L 195.805349 212.360792 
L 197.291392 212.068303 
L 198.777435 196.095037 
L 203.235565 180.942191 
L 204.721608 182.654798 
L 206.207651 201.27722 
L 207.693694 184.474826 
L 209.179737 181.652972 
L 213.637866 184.051498 
L 215.123909 165.84592 
L 216.609952 150.356281 
L 218.095995 169.850416 
L 219.582038 152.421462 
L 224.040168 138.405891 
L 225.526211 139.032465 
L 227.012254 125.098642 
L 228.498297 138.737741 
L 234.442469 152.183865 
L 235.928512 158.267888 
L 237.414555 147.477945 
L 238.900598 158.844381 
L 240.386641 153.96647 
L 244.844771 163.015103 
L 246.330814 168.781595 
L 247.816857 189.047807 
L 249.3029 125.583444 
L 250.788943 123.39434 
L 255.247072 134.423806 
L 256.733115 142.794949 
L 258.219158 162.342841 
L 259.705201 159.491696 
L 261.191244 161.444479 
L 265.649374 153.584338 
L 267.135417 152.487604 
L 268.62146 140.842069 
L 270.107503 140.430038 
L 271.593546 138.333713 
L 276.051675 128.260499 
L 277.537718 133.061073 
L 279.023761 165.262715 
L 280.509804 155.005852 
L 281.995847 108.296085 
L 286.453977 101.334609 
L 287.94002 93.601043 
L 289.426063 88.275599 
L 290.912106 74.701922 
L 292.398149 82.70322 
L 296.856278 79.471233 
L 298.342321 80.859838 
L 299.828364 78.845392 
L 301.314407 75.75664 
L 302.80045 81.856894 
L 307.25858 61.050104 
L 308.744623 52.918932 
L 310.230666 66.795466 
L 311.716709 121.354572 
L 313.202752 98.599803 
L 319.146924 100.767838 
L 320.632967 100.898434 
L 322.11901 103.745722 
L 323.605053 90.865562 
L 328.063183 95.545978 
L 331.035269 101.632381 
L 332.521312 113.531049 
L 334.007355 104.007046 
L 338.465484 131.701547 
L 339.951527 96.01619 
L 341.43757 80.847816 
L 342.923613 60.955298 
L 344.409656 72.785178 
L 348.867786 68.43521 
L 350.353829 78.999437 
L 354.811958 105.905627 
L 359.270087 107.745466 
L 360.75613 106.74123 
L 362.242173 102.651185 
L 363.728216 97.147101 
L 365.214259 111.156328 
L 369.672389 91.562924 
L 371.158432 106.855771 
L 372.644475 116.349637 
L 375.616561 108.758141 
L 380.07469 99.715171 
L 381.560733 105.86769 
L 383.046776 88.713827 
L 384.532819 91.988583 
L 386.018862 78.900553 
L 390.476992 75.375408 
L 391.963035 75.900738 
L 393.449078 103.270526 
L 394.935121 118.817179 
L 396.421164 108.39446 
L 400.879293 121.585188 
L 402.365336 127.575892 
L 403.851379 149.42269 
L 405.337422 166.808226 
L 406.823465 170.432105 
L 411.281595 172.601483 
L 412.767638 188.38648 
L 414.253681 160.937289 
L 415.739724 183.505385 
L 417.225767 195.571279 
L 421.683896 212.380928 
L 423.169939 208.040142 
L 424.655982 188.396429 
L 426.142025 174.229699 
L 427.628068 163.023415 
L 432.086198 161.415181 
L 433.572241 132.822178 
L 435.058284 128.199268 
L 436.544327 121.970034 
L 438.03037 119.611925 
L 442.488499 121.375406 
L 443.974542 127.780847 
L 445.460585 114.561883 
L 446.946628 125.717296 
L 448.432671 65.999569 
L 452.890801 49.962974 
L 454.376844 51.44734 
L 455.862887 69.861187 
L 457.34893 69.167331 
L 458.834973 79.184547 
L 464.779145 134.324309 
L 466.265188 145.564017 
L 467.751231 152.947872 
L 469.237274 166.711802 
L 473.695404 165.583923 
L 475.181447 172.184218 
L 476.66749 157.774069 
L 478.153533 149.770871 
L 479.639576 163.628838 
L 484.097705 185.110436 
L 485.583748 187.259094 
L 487.069791 163.287997 
L 488.555834 144.55397 
L 490.041877 144.177503 
L 494.500007 127.88319 
L 495.98605 116.577532 
L 497.472093 126.001254 
L 498.958136 115.023545 
L 500.444179 114.483923 
L 504.902308 97.671782 
L 506.388351 130.893995 
L 507.874394 129.656052 
L 509.360437 132.36579 
L 510.84648 106.413822 
L 515.30461 127.171553 
L 516.790653 126.712712 
L 518.276696 139.377278 
L 519.762739 138.799271 
L 521.248782 137.973171 
L 525.706911 129.451142 
L 527.192954 119.434037 
L 528.678997 129.278156 
L 530.16504 129.021655 
L 531.651083 135.45295 
L 536.109213 104.602369 
L 537.595256 108.942048 
L 539.081299 125.387303 
L 540.567342 129.258758 
L 542.053385 105.202333 
L 546.511514 110.862536 
L 547.997557 122.542604 
L 549.4836 137.261302 
L 550.969643 147.703177 
L 552.455686 173.631407 
L 556.913816 189.521167 
L 558.399859 176.106725 
L 559.885902 180.14601 
L 561.371945 170.319468 
L 562.857988 178.540858 
L 567.316117 183.764423 
L 568.80216 169.643469 
L 570.288203 164.182699 
L 571.774246 153.320143 
L 573.260289 172.733568 
L 577.718419 160.435277 
L 579.204462 147.707567 
L 580.690505 126.785603 
L 582.176548 112.71295 
L 583.662591 102.402545 
L 588.12072 97.826526 
L 589.606763 87.81013 
L 591.092806 101.562752 
L 594.064892 92.569166 
L 598.523022 67.49335 
L 600.009065 63.157175 
L 601.495108 63.833814 
L 602.981151 68.381088 
L 604.467194 39.782682 
L 608.925323 39.378313 
L 610.411366 39.06 
L 611.897409 51.960093 
L 613.383452 46.319089 
L 614.869495 47.186069 
L 619.327625 47.256117 
L 620.813668 47.062978 
L 622.299711 87.510836 
L 623.785754 88.941731 
L 625.271797 83.979704 
L 629.729926 88.588286 
L 631.215969 83.445466 
L 634.188055 82.042917 
L 635.674098 98.727665 
L 640.132228 122.980542 
L 641.618271 132.752876 
L 644.590357 149.20306 
L 646.0764 155.193762 
L 650.534529 150.501218 
L 652.020572 166.79003 
L 653.506615 173.974833 
L 656.478701 174.858489 
L 660.936831 186.449619 
L 662.422874 209.819156 
L 663.908917 192.003114 
L 665.39496 215.46 
L 666.881003 211.835492 
L 672.825175 215.038972 
L 674.311218 207.751545 
L 675.797261 206.180393 
L 677.283304 199.62256 
L 681.741434 173.55444 
L 683.227477 155.544002 
L 684.71352 147.687393 
L 686.199563 152.252975 
L 687.685606 143.525366 
L 692.143735 154.609019 
L 693.629778 142.514817 
L 695.115821 152.713594 
L 696.601864 129.38476 
L 698.087907 146.928807 
L 702.546036 127.656062 
L 705.518123 111.540025 
L 707.004166 102.165121 
L 708.490209 107.957136 
L 714.434381 124.167829 
L 715.920424 125.781985 
L 717.406467 117.833549 
L 718.89251 113.24233 
L 723.350639 74.447979 
L 724.836683 82.546862 
L 726.322726 114.685919 
L 727.808769 128.193553 
L 729.294812 95.556745 
L 733.752941 111.593273 
L 735.238984 131.25836 
L 736.725027 145.584511 
L 738.21107 166.877647 
L 739.697113 163.604679 
L 744.155242 189.527734 
L 745.641286 200.113188 
L 747.127329 207.650399 
L 748.613372 213.340604 
L 750.099415 206.191665 
L 754.557544 204.605634 
L 756.043587 199.724613 
L 757.52963 188.391237 
L 759.015673 204.525356 
L 760.501716 186.096137 
L 764.959845 175.579576 
L 766.445889 166.958833 
L 767.931932 169.814569 
L 769.417975 173.553176 
L 770.904018 164.112405 
L 775.362147 138.404724 
L 776.84819 125.197332 
L 778.334233 97.080325 
L 779.820276 163.455132 
L 781.306319 184.297437 
L 785.764448 189.605695 
L 787.250492 201.996472 
L 788.736535 157.880032 
L 790.222578 170.162102 
L 791.708621 163.682516 
L 796.16675 162.11827 
L 797.652793 160.644837 
L 799.138836 169.294497 
L 800.624879 161.736284 
L 806.569051 169.584504 
L 808.055095 163.214298 
L 809.541138 158.786381 
L 811.027181 136.258442 
L 812.513224 116.858168 
L 816.971353 105.303976 
L 818.457396 87.606122 
L 819.943439 113.859002 
L 821.429482 87.531887 
L 822.915525 124.686106 
L 827.373654 149.765165 
L 828.859698 149.765197 
L 830.345741 136.573965 
L 831.831784 140.259781 
L 833.317827 126.504107 
L 837.775956 113.931793 
L 839.261999 119.232498 
L 840.748042 129.706028 
L 842.234085 134.727008 
L 843.720128 137.608639 
L 848.178257 147.542236 
L 849.664301 156.168029 
L 851.150344 168.731607 
L 852.636387 152.591838 
L 854.12243 151.620116 
L 860.066602 136.390705 
L 861.552645 129.229052 
L 863.038688 133.852933 
L 864.524731 134.221696 
L 868.98286 178.756201 
L 870.468904 181.932317 
L 871.954947 181.531176 
L 873.44099 184.887836 
L 874.927033 168.015176 
L 879.385162 167.987721 
L 880.871205 157.033729 
L 882.357248 154.15865 
L 883.843291 149.882804 
L 885.329334 136.48392 
L 889.787463 150.376316 
L 891.273506 162.649038 
L 892.75955 156.168254 
L 895.731636 141.028839 
L 900.189765 142.368797 
L 901.675808 153.177063 
L 903.161851 146.375225 
L 904.647894 140.114094 
L 906.133937 154.494333 
L 910.592066 125.757503 
L 912.078109 120.807798 
L 913.564153 87.877178 
L 915.050196 86.509563 
L 920.994368 91.252015 
L 922.480411 95.412969 
L 923.966454 75.944583 
L 925.452497 75.380204 
L 926.93854 93.336068 
L 931.396669 110.491305 
L 932.882712 102.001536 
L 934.368756 102.61409 
L 935.854799 99.996983 
L 937.340842 97.015421 
L 941.798971 105.306641 
L 943.285014 107.828903 
L 944.771057 130.602338 
L 946.2571 140.190007 
L 947.743143 108.204033 
L 952.201272 107.555807 
L 953.687315 140.625586 
L 955.173359 165.247281 
L 956.659402 166.503054 
L 958.145445 178.738772 
L 962.603574 175.022189 
L 964.089617 185.016581 
L 965.57566 129.104208 
L 968.547746 97.35786 
L 973.005875 107.401402 
L 974.491918 102.321475 
L 975.977962 95.570425 
L 977.464005 97.523283 
L 978.950048 101.502349 
L 983.408177 94.848122 
L 984.89422 88.271319 
L 986.380263 98.712327 
L 987.866306 84.550515 
L 989.352349 82.338608 
L 993.810478 82.964983 
L 996.782565 105.102257 
L 998.268608 126.396624 
L 999.754651 118.51158 
L 1005.698823 141.272604 
L 1007.184866 121.832529 
L 1008.670909 115.369862 
L 1008.670909 115.369862 
" clip-path="url(#pd3decd5c11)" style="fill: none; stroke: #1f77b4; stroke-width: 1.5; stroke-linecap: square"/>
   </g>
   <g id="patch_3">
    <path d="M 145.8 224.28 
L 145.8 30.24 
" style="fill: none; stroke: #000000; stroke-width: 0.8; stroke-linejoin: miter; stroke-linecap: square"/>
   </g>
   <g id="patch_4">
    <path d="M 145.8 224.28 
L 1049.76 224.28 
" style="fill: none; stroke: #000000; stroke-width: 0.8; stroke-linejoin: miter; stroke-linecap: square"/>
   </g>
  </g>
 </g>
 <defs>
  <clipPath id="pd3decd5c11">
   <rect x="145.8" y="30.24" width="903.96" height="194.04"/>
  </clipPath>
 </defs>
</svg>
