<?xml version="1.0" encoding="utf-8" standalone="no"?>
<!DOCTYPE svg PUBLIC "-//W3C//DTD SVG 1.1//EN"
  "http://www.w3.org/Graphics/SVG/1.1/DTD/svg11.dtd">
<svg xmlns:xlink="http://www.w3.org/1999/xlink" width="756pt" height="252pt" viewBox="0 0 756 252" xmlns="http://www.w3.org/2000/svg" version="1.1">
 <metadata>
  <rdf:RDF xmlns:dc="http://purl.org/dc/elements/1.1/" xmlns:cc="http://creativecommons.org/ns#" xmlns:rdf="http://www.w3.org/1999/02/22-rdf-syntax-ns#">
   <cc:Work>
    <dc:type rdf:resource="http://purl.org/dc/dcmitype/StillImage"/>
    <dc:date>2025-09-06T14:01:10.968641</dc:date>
    <dc:format>image/svg+xml</dc:format>
    <dc:creator>
     <cc:Agent>
      <dc:title>Matplotlib v3.10.5, https://matplotlib.org/</dc:title>
     </cc:Agent>
    </dc:creator>
   </cc:Work>
  </rdf:RDF>
 </metadata>
 <defs>
  <style type="text/css">*{stroke-linejoin: round; stroke-linecap: butt}</style>
 </defs>
 <g id="figure_1">
  <g id="patch_1">
   <path d="M 0 252 
L 756 252 
L 756 0 
L 0 0 
z
" style="fill: #ffffff"/>
  </g>
  <g id="axes_1">
   <g id="patch_2">
    <path d="M 94.5 224.28 
L 680.4 224.28 
L 680.4 30.24 
L 94.5 30.24 
z
" style="fill: #ffffff"/>
   </g>
   <g id="matplotlib.axis_1">
    <g id="xtick_1">
     <g id="line2d_1">
      <defs>
       <path id="m4dc99f7bb9" d="M 0 0 
L 0 3.5 
" style="stroke: #000000; stroke-width: 0.8"/>
      </defs>
      <g>
       <use xlink:href="#m4dc99f7bb9" x="115.678204" y="224.28" style="stroke: #000000; stroke-width: 0.8"/>
      </g>
     </g>
     <g id="text_1">
      <!-- 2020 -->
      <g transform="translate(102.953204 238.878438) scale(0.1 -0.1)">
       <defs>
        <path id="DejaVuSans-32" d="M 1228 531 
L 3431 531 
L 3431 0 
L 469 0 
L 469 531 
Q 828 903 1448 1529 
Q 2069 2156 2228 2338 
Q 2531 2678 2651 2914 
Q 2772 3150 2772 3378 
Q 2772 3750 2511 3984 
Q 2250 4219 1831 4219 
Q 1534 4219 1204 4116 
Q 875 4013 500 3803 
L 500 4441 
Q 881 4594 1212 4672 
Q 1544 4750 1819 4750 
Q 2544 4750 2975 4387 
Q 3406 4025 3406 3419 
Q 3406 3131 3298 2873 
Q 3191 2616 2906 2266 
Q 2828 2175 2409 1742 
Q 1991 1309 1228 531 
z
" transform="scale(0.015625)"/>
        <path id="DejaVuSans-30" d="M 2034 4250 
Q 1547 4250 1301 3770 
Q 1056 3291 1056 2328 
Q 1056 1369 1301 889 
Q 1547 409 2034 409 
Q 2525 409 2770 889 
Q 3016 1369 3016 2328 
Q 3016 3291 2770 3770 
Q 2525 4250 2034 4250 
z
M 2034 4750 
Q 2819 4750 3233 4129 
Q 3647 3509 3647 2328 
Q 3647 1150 3233 529 
Q 2819 -91 2034 -91 
Q 1250 -91 836 529 
Q 422 1150 422 2328 
Q 422 3509 836 4129 
Q 1250 4750 2034 4750 
z
" transform="scale(0.015625)"/>
       </defs>
       <use xlink:href="#DejaVuSans-32"/>
       <use xlink:href="#DejaVuSans-30" transform="translate(63.623047 0)"/>
       <use xlink:href="#DejaVuSans-32" transform="translate(127.246094 0)"/>
       <use xlink:href="#DejaVuSans-30" transform="translate(190.869141 0)"/>
      </g>
     </g>
    </g>
    <g id="xtick_2">
     <g id="line2d_2">
      <g>
       <use xlink:href="#m4dc99f7bb9" x="210.726916" y="224.28" style="stroke: #000000; stroke-width: 0.8"/>
      </g>
     </g>
     <g id="text_2">
      <!-- 2021 -->
      <g transform="translate(198.001916 238.878438) scale(0.1 -0.1)">
       <defs>
        <path id="DejaVuSans-31" d="M 794 531 
L 1825 531 
L 1825 4091 
L 703 3866 
L 703 4441 
L 1819 4666 
L 2450 4666 
L 2450 531 
L 3481 531 
L 3481 0 
L 794 0 
L 794 531 
z
" transform="scale(0.015625)"/>
       </defs>
       <use xlink:href="#DejaVuSans-32"/>
       <use xlink:href="#DejaVuSans-30" transform="translate(63.623047 0)"/>
       <use xlink:href="#DejaVuSans-32" transform="translate(127.246094 0)"/>
       <use xlink:href="#DejaVuSans-31" transform="translate(190.869141 0)"/>
      </g>
     </g>
    </g>
    <g id="xtick_3">
     <g id="line2d_3">
      <g>
       <use xlink:href="#m4dc99f7bb9" x="305.515932" y="224.28" style="stroke: #000000; stroke-width: 0.8"/>
      </g>
     </g>
     <g id="text_3">
      <!-- 2022 -->
      <g transform="translate(292.790932 238.878438) scale(0.1 -0.1)">
       <use xlink:href="#DejaVuSans-32"/>
       <use xlink:href="#DejaVuSans-30" transform="translate(63.623047 0)"/>
       <use xlink:href="#DejaVuSans-32" transform="translate(127.246094 0)"/>
       <use xlink:href="#DejaVuSans-32" transform="translate(190.869141 0)"/>
      </g>
     </g>
    </g>
    <g id="xtick_4">
     <g id="line2d_4">
      <g>
       <use xlink:href="#m4dc99f7bb9" x="400.304949" y="224.28" style="stroke: #000000; stroke-width: 0.8"/>
      </g>
     </g>
     <g id="text_4">
      <!-- 2023 -->
      <g transform="translate(387.579949 238.878438) scale(0.1 -0.1)">
       <defs>
        <path id="DejaVuSans-33" d="M 2597 2516 
Q 3050 2419 3304 2112 
Q 3559 1806 3559 1356 
Q 3559 666 3084 287 
Q 2609 -91 1734 -91 
Q 1441 -91 1130 -33 
Q 819 25 488 141 
L 488 750 
Q 750 597 1062 519 
Q 1375 441 1716 441 
Q 2309 441 2620 675 
Q 2931 909 2931 1356 
Q 2931 1769 2642 2001 
Q 2353 2234 1838 2234 
L 1294 2234 
L 1294 2753 
L 1863 2753 
Q 2328 2753 2575 2939 
Q 2822 3125 2822 3475 
Q 2822 3834 2567 4026 
Q 2313 4219 1838 4219 
Q 1578 4219 1281 4162 
Q 984 4106 628 3988 
L 628 4550 
Q 988 4650 1302 4700 
Q 1616 4750 1894 4750 
Q 2613 4750 3031 4423 
Q 3450 4097 3450 3541 
Q 3450 3153 3228 2886 
Q 3006 2619 2597 2516 
z
" transform="scale(0.015625)"/>
       </defs>
       <use xlink:href="#DejaVuSans-32"/>
       <use xlink:href="#DejaVuSans-30" transform="translate(63.623047 0)"/>
       <use xlink:href="#DejaVuSans-32" transform="translate(127.246094 0)"/>
       <use xlink:href="#DejaVuSans-33" transform="translate(190.869141 0)"/>
      </g>
     </g>
    </g>
    <g id="xtick_5">
     <g id="line2d_5">
      <g>
       <use xlink:href="#m4dc99f7bb9" x="495.093965" y="224.28" style="stroke: #000000; stroke-width: 0.8"/>
      </g>
     </g>
     <g id="text_5">
      <!-- 2024 -->
      <g transform="translate(482.368965 238.878438) scale(0.1 -0.1)">
       <defs>
        <path id="DejaVuSans-34" d="M 2419 4116 
L 825 1625 
L 2419 1625 
L 2419 4116 
z
M 2253 4666 
L 3047 4666 
L 3047 1625 
L 3713 1625 
L 3713 1100 
L 3047 1100 
L 3047 0 
L 2419 0 
L 2419 1100 
L 313 1100 
L 313 1709 
L 2253 4666 
z
" transform="scale(0.015625)"/>
       </defs>
       <use xlink:href="#DejaVuSans-32"/>
       <use xlink:href="#DejaVuSans-30" transform="translate(63.623047 0)"/>
       <use xlink:href="#DejaVuSans-32" transform="translate(127.246094 0)"/>
       <use xlink:href="#DejaVuSans-34" transform="translate(190.869141 0)"/>
      </g>
     </g>
    </g>
    <g id="xtick_6">
     <g id="line2d_6">
      <g>
       <use xlink:href="#m4dc99f7bb9" x="590.142678" y="224.28" style="stroke: #000000; stroke-width: 0.8"/>
      </g>
     </g>
     <g id="text_6">
      <!-- 2025 -->
      <g transform="translate(577.417678 238.878438) scale(0.1 -0.1)">
       <defs>
        <path id="DejaVuSans-35" d="M 691 4666 
L 3169 4666 
L 3169 4134 
L 1269 4134 
L 1269 2991 
Q 1406 3038 1543 3061 
Q 1681 3084 1819 3084 
Q 2600 3084 3056 2656 
Q 3513 2228 3513 1497 
Q 3513 744 3044 326 
Q 2575 -91 1722 -91 
Q 1428 -91 1123 -41 
Q 819 9 494 109 
L 494 744 
Q 775 591 1075 516 
Q 1375 441 1709 441 
Q 2250 441 2565 725 
Q 2881 1009 2881 1497 
Q 2881 1984 2565 2268 
Q 2250 2553 1709 2553 
Q 1456 2553 1204 2497 
Q 953 2441 691 2322 
L 691 4666 
z
" transform="scale(0.015625)"/>
       </defs>
       <use xlink:href="#DejaVuSans-32"/>
       <use xlink:href="#DejaVuSans-30" transform="translate(63.623047 0)"/>
       <use xlink:href="#DejaVuSans-32" transform="translate(127.246094 0)"/>
       <use xlink:href="#DejaVuSans-35" transform="translate(190.869141 0)"/>
      </g>
     </g>
    </g>
   </g>
   <g id="matplotlib.axis_2">
    <g id="ytick_1">
     <g id="line2d_7">
      <defs>
       <path id="m4b77cc7386" d="M 0 0 
L -3.5 0 
" style="stroke: #000000; stroke-width: 0.8"/>
      </defs>
      <g>
       <use xlink:href="#m4b77cc7386" x="94.5" y="219.196793" style="stroke: #000000; stroke-width: 0.8"/>
      </g>
     </g>
     <g id="text_7">
      <!-- 50 -->
      <g transform="translate(74.775 222.996011) scale(0.1 -0.1)">
       <use xlink:href="#DejaVuSans-35"/>
       <use xlink:href="#DejaVuSans-30" transform="translate(63.623047 0)"/>
      </g>
     </g>
    </g>
    <g id="ytick_2">
     <g id="line2d_8">
      <g>
       <use xlink:href="#m4b77cc7386" x="94.5" y="197.556528" style="stroke: #000000; stroke-width: 0.8"/>
      </g>
     </g>
     <g id="text_8">
      <!-- 75 -->
      <g transform="translate(74.775 201.355746) scale(0.1 -0.1)">
       <defs>
        <path id="DejaVuSans-37" d="M 525 4666 
L 3525 4666 
L 3525 4397 
L 1831 0 
L 1172 0 
L 2766 4134 
L 525 4134 
L 525 4666 
z
" transform="scale(0.015625)"/>
       </defs>
       <use xlink:href="#DejaVuSans-37"/>
       <use xlink:href="#DejaVuSans-35" transform="translate(63.623047 0)"/>
      </g>
     </g>
    </g>
    <g id="ytick_3">
     <g id="line2d_9">
      <g>
       <use xlink:href="#m4b77cc7386" x="94.5" y="175.916263" style="stroke: #000000; stroke-width: 0.8"/>
      </g>
     </g>
     <g id="text_9">
      <!-- 100 -->
      <g transform="translate(68.4125 179.715482) scale(0.1 -0.1)">
       <use xlink:href="#DejaVuSans-31"/>
       <use xlink:href="#DejaVuSans-30" transform="translate(63.623047 0)"/>
       <use xlink:href="#DejaVuSans-30" transform="translate(127.246094 0)"/>
      </g>
     </g>
    </g>
    <g id="ytick_4">
     <g id="line2d_10">
      <g>
       <use xlink:href="#m4b77cc7386" x="94.5" y="154.275998" style="stroke: #000000; stroke-width: 0.8"/>
      </g>
     </g>
     <g id="text_10">
      <!-- 125 -->
      <g transform="translate(68.4125 158.075217) scale(0.1 -0.1)">
       <use xlink:href="#DejaVuSans-31"/>
       <use xlink:href="#DejaVuSans-32" transform="translate(63.623047 0)"/>
       <use xlink:href="#DejaVuSans-35" transform="translate(127.246094 0)"/>
      </g>
     </g>
    </g>
    <g id="ytick_5">
     <g id="line2d_11">
      <g>
       <use xlink:href="#m4b77cc7386" x="94.5" y="132.635733" style="stroke: #000000; stroke-width: 0.8"/>
      </g>
     </g>
     <g id="text_11">
      <!-- 150 -->
      <g transform="translate(68.4125 136.434952) scale(0.1 -0.1)">
       <use xlink:href="#DejaVuSans-31"/>
       <use xlink:href="#DejaVuSans-35" transform="translate(63.623047 0)"/>
       <use xlink:href="#DejaVuSans-30" transform="translate(127.246094 0)"/>
      </g>
     </g>
    </g>
    <g id="ytick_6">
     <g id="line2d_12">
      <g>
       <use xlink:href="#m4b77cc7386" x="94.5" y="110.995468" style="stroke: #000000; stroke-width: 0.8"/>
      </g>
     </g>
     <g id="text_12">
      <!-- 175 -->
      <g transform="translate(68.4125 114.794687) scale(0.1 -0.1)">
       <use xlink:href="#DejaVuSans-31"/>
       <use xlink:href="#DejaVuSans-37" transform="translate(63.623047 0)"/>
       <use xlink:href="#DejaVuSans-35" transform="translate(127.246094 0)"/>
      </g>
     </g>
    </g>
    <g id="ytick_7">
     <g id="line2d_13">
      <g>
       <use xlink:href="#m4b77cc7386" x="94.5" y="89.355204" style="stroke: #000000; stroke-width: 0.8"/>
      </g>
     </g>
     <g id="text_13">
      <!-- 200 -->
      <g transform="translate(68.4125 93.154422) scale(0.1 -0.1)">
       <use xlink:href="#DejaVuSans-32"/>
       <use xlink:href="#DejaVuSans-30" transform="translate(63.623047 0)"/>
       <use xlink:href="#DejaVuSans-30" transform="translate(127.246094 0)"/>
      </g>
     </g>
    </g>
    <g id="ytick_8">
     <g id="line2d_14">
      <g>
       <use xlink:href="#m4b77cc7386" x="94.5" y="67.714939" style="stroke: #000000; stroke-width: 0.8"/>
      </g>
     </g>
     <g id="text_14">
      <!-- 225 -->
      <g transform="translate(68.4125 71.514157) scale(0.1 -0.1)">
       <use xlink:href="#DejaVuSans-32"/>
       <use xlink:href="#DejaVuSans-32" transform="translate(63.623047 0)"/>
       <use xlink:href="#DejaVuSans-35" transform="translate(127.246094 0)"/>
      </g>
     </g>
    </g>
    <g id="ytick_9">
     <g id="line2d_15">
      <g>
       <use xlink:href="#m4b77cc7386" x="94.5" y="46.074674" style="stroke: #000000; stroke-width: 0.8"/>
      </g>
     </g>
     <g id="text_15">
      <!-- 250 -->
      <g transform="translate(68.4125 49.873893) scale(0.1 -0.1)">
       <use xlink:href="#DejaVuSans-32"/>
       <use xlink:href="#DejaVuSans-35" transform="translate(63.623047 0)"/>
       <use xlink:href="#DejaVuSans-30" transform="translate(127.246094 0)"/>
      </g>
     </g>
    </g>
   </g>
   <g id="line2d_16">
    <path d="M 121.131818 196.060075 
L 121.391514 195.740239 
L 121.65121 195.932563 
L 122.430298 197.889334 
L 122.94969 194.671949 
L 123.209386 194.770205 
L 123.469082 197.77225 
L 124.248169 197.949959 
L 124.507865 195.819673 
L 125.027257 194.490073 
L 125.286953 195.414196 
L 126.066041 195.095681 
L 126.325737 195.502228 
L 126.585433 193.9117 
L 126.845129 194.399967 
L 127.104825 194.383199 
L 128.143608 195.630037 
L 128.403304 194.661918 
L 128.663 195.357618 
L 128.922696 196.876882 
L 129.701784 199.992926 
L 129.96148 202.109417 
L 130.221176 201.151758 
L 130.480872 205.160491 
L 130.740568 205.194026 
L 131.519656 199.860911 
L 131.779352 201.849579 
L 132.039047 199.037375 
L 132.298743 201.095168 
L 132.558439 201.910337 
L 133.337527 206.700695 
L 133.597223 202.683582 
L 133.856919 204.76025 
L 134.116615 210.46008 
L 134.376311 204.227994 
L 135.155399 211.721586 
L 135.415095 209.489855 
L 135.674791 210.786983 
L 135.934487 211.183036 
L 136.194182 214.439487 
L 136.97327 215.46 
L 137.232966 210.74297 
L 137.492662 211.027966 
L 137.752358 208.320545 
L 138.012054 210.562761 
L 138.791142 209.081227 
L 139.050838 209.190181 
L 139.310534 211.994005 
L 139.57023 211.151604 
L 139.829926 211.889228 
L 140.609013 207.476041 
L 140.868709 208.113104 
L 141.128405 206.72167 
L 141.388101 206.319329 
L 142.426885 205.217068 
L 142.686581 202.325245 
L 142.946277 202.874282 
L 143.205973 202.40069 
L 143.465669 203.215859 
L 144.244756 204.445929 
L 144.504452 206.239691 
L 144.764148 204.619861 
L 145.023844 204.844069 
L 145.28354 203.180203 
L 146.062628 203.138313 
L 146.322324 204.100152 
L 146.841716 200.910775 
L 147.101412 201.901943 
L 147.8805 201.044898 
L 148.399891 199.479532 
L 148.659587 198.827827 
L 148.919283 197.312844 
L 149.698371 196.287454 
L 150.217763 197.833952 
L 150.477459 197.436829 
L 150.737155 197.821345 
L 151.516243 196.297981 
L 151.775939 196.680377 
L 152.035635 195.400756 
L 152.29533 195.900844 
L 152.555026 195.472199 
L 153.59381 195.926065 
L 153.853506 195.6361 
L 154.372898 195.671814 
L 155.671378 194.163151 
L 155.931074 194.751489 
L 156.190769 192.822588 
L 156.969857 192.41075 
L 157.489249 188.338639 
L 157.748945 191.898075 
L 158.008641 191.288723 
L 158.787729 190.408326 
L 159.047425 188.498332 
L 159.307121 188.601283 
L 159.566817 188.571855 
L 159.826513 188.9942 
L 160.6056 187.071612 
L 160.865296 185.462091 
L 161.124992 186.821555 
L 161.384688 185.817206 
L 161.644384 188.172645 
L 162.683168 185.825593 
L 162.942864 185.970592 
L 163.20256 185.970592 
L 164.241343 183.924 
L 164.501039 184.167756 
L 164.760735 182.343913 
L 165.020431 181.999318 
L 165.280127 181.858532 
L 166.059215 182.230455 
L 166.318911 180.902492 
L 166.578607 180.341469 
L 166.838303 181.352158 
L 167.097999 181.516051 
L 167.877087 179.809846 
L 168.136783 180.950821 
L 168.396478 180.721811 
L 168.656174 184.443001 
L 168.91587 184.636323 
L 169.694958 182.791459 
L 169.954654 184.10052 
L 170.474046 181.631603 
L 170.733742 173.16798 
L 171.772526 170.306139 
L 172.032222 169.972078 
L 172.291917 166.744629 
L 172.551613 168.921177 
L 173.330701 167.561356 
L 173.590397 170.38414 
L 173.850093 167.32349 
L 174.109789 165.639501 
L 175.148573 165.978397 
L 175.408269 165.174296 
L 175.667965 165.0522 
L 175.927661 162.890393 
L 176.187357 157.758411 
L 176.966444 156.505966 
L 177.22614 157.375328 
L 177.485836 155.946032 
L 177.745532 157.219551 
L 178.005228 157.390055 
L 178.784316 153.8263 
L 179.044012 149.498471 
L 179.303708 151.83919 
L 179.563404 160.696985 
L 179.8231 160.629629 
L 180.861883 167.483467 
L 181.121579 163.694486 
L 181.381275 166.919353 
L 181.640971 168.173898 
L 182.420059 165.344807 
L 182.679755 165.193237 
L 182.939451 168.064435 
L 183.199147 169.57162 
L 183.458843 172.51862 
L 184.23793 169.790532 
L 184.497626 168.333875 
L 184.757322 172.282847 
L 185.017018 171.356631 
L 185.276714 167.938119 
L 186.055802 165.681589 
L 186.315498 166.414134 
L 186.83489 164.140751 
L 187.094586 167.315077 
L 187.873674 164.38493 
L 188.13337 167.197187 
L 188.393065 165.58056 
L 188.652761 165.673189 
L 188.912457 163.9892 
L 189.691545 157.733157 
L 189.951241 160.511766 
L 190.210937 160.435978 
L 190.470633 160.840135 
L 190.730329 162.263104 
L 191.509417 164.822774 
L 191.769113 163.534502 
L 192.028809 164.073389 
L 192.5482 165.614234 
L 193.327288 165.605827 
L 193.586984 164.300735 
L 193.84668 168.847495 
L 194.106376 165.378475 
L 194.366072 170.817777 
L 195.14516 170.893553 
L 195.404856 169.487418 
L 195.924248 162.25469 
L 196.183944 162.368551 
L 196.963031 164.367508 
L 197.222727 164.662711 
L 197.482423 161.693798 
L 197.742119 161.929961 
L 198.001815 161.887767 
L 198.780903 161.010586 
L 199.040599 161.778133 
L 199.300295 162.925229 
L 199.559991 162.410725 
L 200.598774 166.45084 
L 201.118166 164.612104 
L 201.637558 164.139786 
L 202.416646 162.064908 
L 202.676342 158.969448 
L 202.936038 158.665806 
L 203.195734 158.78388 
L 203.45543 159.365845 
L 204.494213 157.569336 
L 204.753909 159.762295 
L 205.013605 158.530845 
L 205.273301 159.230911 
L 206.052389 159.762295 
L 206.312085 154.617264 
L 206.571781 154.676305 
L 206.831477 153.925632 
L 207.091173 155.646253 
L 207.870261 154.322048 
L 208.129957 151.243482 
L 208.389652 152.019448 
L 208.649348 151.167574 
L 209.688132 147.1865 
L 210.207524 149.691535 
L 210.46722 150.560249 
L 211.506004 153.32678 
L 211.7657 151.977261 
L 212.025396 155.696887 
L 212.285092 152.053189 
L 212.544787 151.100081 
L 213.323875 153.689476 
L 213.583571 153.841284 
L 213.843267 152.078509 
L 214.362659 155.24141 
L 215.401443 154.659438 
L 216.180531 145.179083 
L 216.959618 141.931801 
L 217.219314 141.729373 
L 217.47901 142.657181 
L 217.998402 151.176014 
L 219.037186 148.620326 
L 219.296882 149.505973 
L 219.556578 146.596068 
L 219.816274 146.95508 
L 220.595361 146.82836 
L 221.114753 148.112313 
L 221.374449 148.331965 
L 221.634145 148.129207 
L 222.672929 149.970663 
L 222.932625 151.955739 
L 223.192321 152.910254 
L 223.452017 152.775121 
L 224.231105 156.044143 
L 224.4908 156.162376 
L 224.750496 156.593193 
L 225.010192 160.276133 
L 225.269888 160.048047 
L 226.048976 154.532104 
L 226.828064 161.002562 
L 227.08776 159.912901 
L 227.866848 164.187111 
L 228.126544 160.19164 
L 228.38624 161.129262 
L 228.645935 159.456757 
L 228.905631 160.24234 
L 229.684719 157.742007 
L 229.944415 156.407354 
L 230.204111 157.091584 
L 230.463807 160.664677 
L 230.723503 161.120821 
L 231.502591 158.248824 
L 231.762287 158.966813 
L 232.021983 161.036349 
L 232.541374 160.090274 
L 233.320462 159.938221 
L 233.580158 161.196854 
L 233.839854 159.296252 
L 234.09955 158.578262 
L 235.138334 156.128596 
L 235.39803 155.86675 
L 235.657726 154.439185 
L 236.177118 150.131182 
L 236.956205 151.61788 
L 237.215901 148.923229 
L 237.475597 150.950524 
L 237.735293 148.864122 
L 237.994989 149.151334 
L 238.774077 148.576924 
L 239.033773 150.038249 
L 239.293469 149.708811 
L 239.553165 151.026577 
L 239.812861 149.016188 
L 240.591948 148.678257 
L 240.851644 148.957042 
L 241.11134 149.641238 
L 241.371036 149.725704 
L 241.630732 151.432015 
L 242.40982 150.519753 
L 242.669516 154.481431 
L 242.929212 154.270259 
L 243.188908 152.8849 
L 243.448604 152.301066 
L 244.487388 155.939488 
L 244.747083 158.596397 
L 245.266475 154.636449 
L 246.045563 155.634888 
L 246.305259 156.836415 
L 246.564955 156.971792 
L 246.824651 154.754906 
L 247.084347 156.345646 
L 247.863435 154.932583 
L 248.382827 155.144125 
L 248.642522 156.472563 
L 248.902218 157.039497 
L 249.941002 157.318711 
L 250.200698 156.658732 
L 250.460394 157.944844 
L 250.72009 155.956414 
L 251.499178 155.947948 
L 251.758874 155.23719 
L 252.01857 154.907203 
L 252.278266 155.770271 
L 252.537962 154.721047 
L 253.317049 152.072651 
L 253.576745 152.783382 
L 253.836441 152.351865 
L 254.096137 150.964168 
L 254.355833 152.089551 
L 255.134921 150.532671 
L 255.394617 149.111128 
L 256.173705 149.847259 
L 256.952792 148.434223 
L 257.212488 147.122718 
L 257.472184 146.58961 
L 257.73188 146.327308 
L 257.991576 144.051211 
L 259.03036 142.308142 
L 259.290056 140.150482 
L 259.549752 141.275818 
L 259.809448 139.693558 
L 260.588536 140.20972 
L 260.848231 139.245114 
L 261.107927 136.275139 
L 261.367623 136.84206 
L 261.627319 138.610502 
L 262.406407 141.94431 
L 262.666103 138.813577 
L 262.925799 139.448177 
L 263.445191 136.774355 
L 264.224279 136.410549 
L 264.74367 139.803543 
L 265.003366 139.245114 
L 265.263062 139.058958 
L 266.04215 139.346619 
L 266.301846 137.789759 
L 266.561542 138.136658 
L 266.821238 138.04358 
L 267.080934 138.636773 
L 267.860022 138.679158 
L 268.119718 139.09437 
L 268.379414 138.874031 
L 268.63911 136.306416 
L 268.898805 136.128449 
L 269.677893 134.41667 
L 269.937589 135.204762 
L 270.197285 138.450326 
L 270.456981 138.162243 
L 270.716677 136.899581 
L 271.495765 135.611521 
L 271.755461 135.687798 
L 272.274853 137.450415 
L 272.534549 136.55214 
L 273.313636 132.721837 
L 273.573332 133.814985 
L 273.833028 133.238779 
L 274.35242 131.72186 
L 275.391204 129.696599 
L 275.910596 131.916786 
L 276.170292 136.238605 
L 276.949379 135.747076 
L 277.209075 136.958926 
L 277.468771 136.18778 
L 277.728467 136.391159 
L 277.988163 138.70453 
L 278.767251 141.348489 
L 279.026947 140.933251 
L 279.286643 138.882524 
L 279.546339 138.052047 
L 279.806035 137.97577 
L 280.585123 139.289296 
L 280.844818 142.221311 
L 281.104514 141.441686 
L 281.36421 142.568739 
L 281.623906 141.594253 
L 282.402994 144.568628 
L 282.66269 142.899234 
L 283.182082 141.0519 
L 283.441778 141.382355 
L 284.220866 141.458632 
L 284.480562 142.560286 
L 284.740258 143.068721 
L 284.999953 140.653607 
L 285.259649 139.738413 
L 286.038737 138.289318 
L 286.298433 136.416545 
L 286.558129 135.99284 
L 286.817825 135.806394 
L 287.077521 136.475863 
L 287.856609 136.518248 
L 288.116305 135.941976 
L 288.376001 136.340295 
L 288.635697 133.187914 
L 288.895392 135.53527 
L 289.67448 136.247084 
L 290.193872 134.103095 
L 290.453568 134.552239 
L 290.713264 134.093955 
L 291.492352 134.806826 
L 291.752048 134.492855 
L 292.011744 136.94544 
L 292.27144 136.987865 
L 292.531136 135.188754 
L 293.310223 135.180247 
L 293.569919 134.33157 
L 293.829615 132.218474 
L 294.349007 126.22705 
L 295.128095 125.828163 
L 295.647487 125.047402 
L 296.166879 129.400986 
L 296.945966 126.490091 
L 297.205662 122.195956 
L 297.465358 122.645721 
L 297.725054 123.502878 
L 297.98475 125.132251 
L 298.763838 122.178958 
L 299.28323 113.896154 
L 299.542926 114.337479 
L 299.802622 110.187591 
L 300.841406 114.532669 
L 301.101101 110.314891 
L 301.360797 116.289369 
L 301.620493 117.239855 
L 302.399581 118.41949 
L 302.918973 113.420951 
L 303.178669 112.877791 
L 304.217453 109.440774 
L 304.477149 110.323371 
L 304.736845 110.246988 
L 304.99654 111.248392 
L 305.256236 111.783032 
L 306.035324 108.015045 
L 306.29502 109.975428 
L 306.814412 116.509998 
L 307.074108 116.365752 
L 307.853196 116.348766 
L 308.112892 113.896154 
L 308.372588 113.514266 
L 308.632284 116.348766 
L 308.89198 115.601976 
L 309.930763 118.377026 
L 310.190459 121.406702 
L 310.709851 124.648529 
L 311.488939 125.318949 
L 311.748635 126.880472 
L 312.008331 126.956894 
L 312.268027 127.355728 
L 312.527723 117.927248 
L 313.30681 114.150768 
L 313.566506 114.295041 
L 313.826202 113.251212 
L 314.085898 115.746222 
L 315.124682 116.612942 
L 315.384378 113.919282 
L 315.644074 112.68721 
L 316.163466 119.179145 
L 316.942554 118.975158 
L 317.202249 115.652748 
L 317.461945 115.856696 
L 317.721641 118.975158 
L 317.981337 120.317781 
L 319.020121 122.849946 
L 319.279817 126.46131 
L 319.799209 122.399587 
L 320.578297 122.170161 
L 320.837993 123.80166 
L 321.097688 120.946569 
L 321.357384 121.226966 
L 321.61708 123.827152 
L 322.396168 127.115603 
L 322.655864 128.69608 
L 322.91556 124.014074 
L 323.434952 130.998858 
L 324.21404 134.491256 
L 324.733432 126.869179 
L 324.993128 125.993966 
L 325.252823 123.138861 
L 326.031911 121.949215 
L 326.291607 119.026167 
L 326.551303 117.845027 
L 326.810999 114.565082 
L 327.070695 114.012769 
L 327.849783 113.265028 
L 328.109479 110.409937 
L 328.369175 111.421115 
L 328.628871 114.106243 
L 328.888567 114.361187 
L 329.667654 110.85179 
L 330.187046 116.468485 
L 330.446742 116.205114 
L 330.706438 117.947034 
L 331.485526 121.634847 
L 331.745222 120.01184 
L 332.004918 117.683597 
L 332.264614 122.025743 
L 333.303397 122.212665 
L 333.563093 120.232813 
L 333.822789 120.377258 
L 334.082485 121.065548 
L 334.342181 124.999773 
L 335.121269 124.073564 
L 335.380965 129.239886 
L 335.640661 129.435354 
L 335.900357 123.42775 
L 336.160053 128.517637 
L 336.939141 128.254227 
L 337.198836 126.962666 
L 337.458532 121.405434 
L 337.718228 129.265418 
L 337.977924 128.635679 
L 338.757012 133.077758 
L 339.016708 130.992875 
L 339.276404 137.809215 
L 339.5361 141.162069 
L 339.795796 137.29012 
L 340.574884 138.62614 
L 340.83458 135.47755 
L 341.094276 142.642744 
L 341.353971 145.595655 
L 341.613667 145.391444 
L 342.392755 140.694024 
L 342.652451 143.034208 
L 342.912147 142.898045 
L 343.171843 140.12388 
L 343.431539 135.137162 
L 344.730019 135.928569 
L 344.989715 133.801103 
L 345.24941 138.762329 
L 346.028498 138.115565 
L 346.288194 135.928569 
L 346.54789 136.566775 
L 347.067282 145.782881 
L 347.84637 150.250491 
L 348.106066 149.501654 
L 348.365762 147.229545 
L 348.625458 151.799262 
L 348.885154 150.522831 
L 349.923937 146.855107 
L 350.183633 147.297607 
L 350.703025 141.927931 
L 351.482113 141.927931 
L 351.741809 145.519048 
L 352.001505 143.995816 
L 352.261201 146.131762 
L 352.520897 144.251143 
L 353.55968 142.013071 
L 353.819376 140.855705 
L 354.079072 137.936845 
L 354.338768 137.349676 
L 355.117856 139.196297 
L 355.377552 138.353827 
L 355.637248 138.66871 
L 356.15664 134.68613 
L 356.935728 137.324145 
L 357.195424 133.979783 
L 357.714815 130.278062 
L 357.974511 131.350288 
L 358.753599 132.320415 
L 359.013295 133.469195 
L 359.272991 129.052674 
L 359.532687 128.57611 
L 359.792383 124.18508 
L 360.571471 125.036056 
L 360.831167 126.312533 
L 361.090863 121.104552 
L 361.610254 121.572848 
L 362.389342 121.981892 
L 362.649038 121.939269 
L 362.908734 118.257954 
L 363.16843 118.897071 
L 363.428126 115.820769 
L 364.207214 114.891931 
L 364.46691 115.028253 
L 364.726606 113.73298 
L 364.986302 114.07387 
L 365.245998 116.315032 
L 366.025085 119.681055 
L 366.284781 119.970803 
L 366.544477 119.715172 
L 366.804173 117.584747 
L 367.063869 123.047104 
L 367.842957 124.955922 
L 368.362349 128.500889 
L 368.622045 127.870331 
L 368.881741 129.702437 
L 369.920524 130.793194 
L 370.18022 129.574621 
L 370.439916 130.852842 
L 370.699612 128.373074 
L 371.4787 123.20901 
L 371.738396 131.381208 
L 371.998092 130.128519 
L 372.257788 132.633858 
L 372.517484 134.056985 
L 373.296572 130.835816 
L 373.556267 128.773585 
L 373.815963 131.483453 
L 374.075659 132.318539 
L 374.335355 134.287071 
L 375.114443 133.997324 
L 375.374139 133.153705 
L 375.633835 134.789827 
L 376.153227 144.708991 
L 376.932315 141.087297 
L 377.192011 137.976919 
L 377.451706 137.721275 
L 377.711402 138.547855 
L 377.971098 143.098373 
L 378.750186 142.817158 
L 379.009882 144.04429 
L 379.269578 144.589668 
L 379.529274 140.627125 
L 379.78897 144.555551 
L 380.827754 139.979489 
L 381.08745 139.885763 
L 381.347146 140.286262 
L 381.606841 136.979874 
L 382.385929 135.122171 
L 382.645625 132.659415 
L 382.905321 135.207403 
L 383.165017 139.084701 
L 383.424713 129.762098 
L 384.203801 131.80729 
L 384.463497 134.099555 
L 384.982889 144.129509 
L 385.242585 144.359952 
L 386.021672 143.899053 
L 386.281368 143.403944 
L 386.541064 147.356 
L 386.80076 137.113157 
L 387.060456 134.697528 
L 387.839544 135.909603 
L 388.09924 134.407292 
L 388.358936 135.474275 
L 388.618632 133.826872 
L 388.878328 133.340336 
L 389.657415 136.140072 
L 389.917111 134.287811 
L 390.176807 133.52809 
L 391.475287 139.37507 
L 391.734983 141.978479 
L 391.994679 136.122981 
L 392.254375 135.883992 
L 392.514071 136.310774 
L 393.293159 137.317976 
L 393.552854 140.493273 
L 393.81255 142.174792 
L 394.072246 140.715223 
L 394.331942 141.13346 
L 395.370726 138.30814 
L 395.630422 140.237193 
L 395.890118 145.964678 
L 396.149814 147.663288 
L 396.928902 149.489939 
L 397.188598 149.549692 
L 397.448294 146.860919 
L 397.707989 149.60942 
L 397.967685 149.925253 
L 399.006469 151.487291 
L 399.266165 154.893038 
L 399.525861 151.845774 
L 399.785557 151.572656 
L 400.824341 155.721025 
L 401.084037 154.619899 
L 401.343733 155.7637 
L 401.603428 151.837248 
L 402.382516 151.384849 
L 402.642212 150.889793 
L 402.901908 148.533905 
L 403.161604 148.602204 
L 403.4213 147.449884 
L 404.460084 146.442669 
L 404.71978 147.065777 
L 404.979476 147.014582 
L 405.239172 144.79528 
L 406.277955 140.817639 
L 406.537651 141.389527 
L 407.057043 137.915461 
L 407.836131 140.416428 
L 408.355523 138.342283 
L 408.874915 130.600354 
L 409.654002 132.964762 
L 409.913698 130.472354 
L 410.173394 132.802579 
L 410.43309 133.698832 
L 410.692786 133.382536 
L 411.471874 130.95469 
L 411.73157 131.510358 
L 411.991266 129.689466 
L 412.510658 132.066012 
L 413.549442 135.545374 
L 414.068833 134.75888 
L 414.328529 137.058489 
L 415.107617 136.024104 
L 415.367313 136.460093 
L 415.627009 138.255321 
L 415.886705 137.742381 
L 416.146401 133.365432 
L 416.925489 130.971781 
L 417.185185 132.878182 
L 417.444881 131.792471 
L 417.964272 135.528283 
L 418.74336 133.844175 
L 419.003056 132.031843 
L 419.262752 131.689896 
L 419.522448 129.244919 
L 419.782144 129.971579 
L 420.561232 127.919902 
L 420.820928 126.312732 
L 421.080624 127.552305 
L 421.600016 125.483483 
L 422.638799 127.70618 
L 422.898495 125.038936 
L 423.158191 123.679683 
L 423.417887 121.508326 
L 424.196975 120.422614 
L 424.456671 120.884227 
L 424.716367 122.482878 
L 424.976063 121.713475 
L 426.014846 123.961809 
L 426.534238 125.611721 
L 426.793934 120.944086 
L 427.05363 121.243264 
L 427.832718 121.226199 
L 428.35211 119.174495 
L 428.611806 120.012289 
L 428.871502 121.405685 
L 429.65059 121.140703 
L 429.910285 122.474319 
L 430.169981 122.482878 
L 430.429677 118.507694 
L 430.689373 117.421996 
L 431.468461 117.498946 
L 431.987853 119.328384 
L 432.247549 120.747469 
L 432.507245 114.096522 
L 433.286333 114.156381 
L 433.546029 115.635287 
L 433.805724 114.105094 
L 434.06542 113.942647 
L 434.325116 114.747341 
L 435.104204 115.175392 
L 435.3639 115.175392 
L 435.623596 114.644621 
L 435.883292 112.624313 
L 436.142988 112.530152 
L 436.922076 113.351991 
L 437.181772 115.612001 
L 437.441468 115.372273 
L 437.701164 114.387815 
L 437.960859 112.299035 
L 438.999643 110.698179 
L 439.259339 110.741 
L 439.519035 108.309798 
L 439.778731 107.573615 
L 440.817515 109.063113 
L 441.077211 110.25305 
L 441.336907 107.898866 
L 441.596603 107.565003 
L 442.37569 105.142387 
L 442.635386 105.55328 
L 442.895082 105.005392 
L 443.154778 103.241916 
L 443.414474 104.175034 
L 444.453258 104.097964 
L 444.712954 104.996846 
L 444.97265 102.394414 
L 445.232346 102.668378 
L 446.011433 103.875407 
L 446.271129 101.487026 
L 446.530825 100.468306 
L 446.790521 100.177264 
L 447.050217 96.427716 
L 448.348697 98.687713 
L 448.608393 98.276794 
L 448.868089 99.244147 
L 449.906872 101.469869 
L 450.166568 100.023138 
L 450.426264 99.363998 
L 450.68596 99.235575 
L 451.465048 96.410572 
L 451.724744 96.633169 
L 451.98444 95.46035 
L 452.503832 98.165515 
L 453.28292 97.472112 
L 453.802312 95.974002 
L 454.062007 97.069765 
L 454.321703 94.835432 
L 455.100791 94.304674 
L 455.360487 95.023754 
L 455.620183 97.61764 
L 455.879879 98.824669 
L 456.139575 106.683292 
L 456.918663 109.371313 
L 457.178359 108.558059 
L 457.438055 109.936292 
L 457.697751 110.124641 
L 457.957446 110.073195 
L 458.736534 108.641654 
L 458.99623 110.364659 
L 459.255926 111.118991 
L 459.515622 113.322035 
L 460.554406 111.744781 
L 460.814102 110.553232 
L 461.073798 107.218685 
L 461.333494 111.281861 
L 461.59319 109.370296 
L 462.372277 108.015877 
L 462.891669 101.621063 
L 463.151365 101.43249 
L 463.411061 100.069512 
L 464.449845 99.863782 
L 464.969237 110.270366 
L 465.228933 109.738909 
L 466.00802 108.727375 
L 466.527412 113.14202 
L 466.787108 111.830489 
L 467.046804 112.456279 
L 468.085588 108.975952 
L 468.345284 112.044778 
L 468.60498 113.382066 
L 468.864676 112.644839 
L 469.643764 111.539024 
L 469.90346 115.070743 
L 470.163155 116.382301 
L 470.422851 116.159414 
L 470.682547 115.713664 
L 471.461635 113.536364 
L 471.721331 114.693584 
L 472.240723 112.541973 
L 472.500419 110.330358 
L 473.279507 109.044543 
L 473.539203 109.558882 
L 474.058594 107.570115 
L 474.31829 109.164565 
L 475.097378 109.276002 
L 475.61677 111.744781 
L 475.876466 112.070495 
L 476.136162 114.28211 
L 476.91525 114.179271 
L 477.174946 113.802099 
L 477.434642 115.807957 
L 477.694338 119.416839 
L 477.954034 118.276749 
L 478.992817 116.090837 
L 479.512209 110.261781 
L 479.771905 111.050428 
L 480.550993 108.838812 
L 480.810689 106.618611 
L 481.070385 105.70141 
L 481.330081 106.11287 
L 481.589777 102.482077 
L 482.368864 103.855423 
L 482.62856 101.589403 
L 482.888256 101.100146 
L 483.147952 99.640947 
L 483.407648 99.658144 
L 484.186736 98.147433 
L 484.446432 98.842698 
L 484.706128 98.267614 
L 485.22552 99.417795 
L 486.004608 99.572291 
L 486.264303 99.048719 
L 486.523999 99.932821 
L 486.783695 99.434965 
L 487.043391 98.327698 
L 487.822479 99.881309 
L 488.082175 96.456523 
L 488.341871 97.400683 
L 488.861263 94.490896 
L 489.640351 96.662518 
L 489.900047 95.349229 
L 490.159742 92.559624 
L 490.419438 92.430871 
L 491.458222 94.336414 
L 491.717918 93.435141 
L 491.977614 95.246232 
L 492.23731 95.375012 
L 492.497006 96.302001 
L 493.53579 96.774087 
L 493.795486 96.688274 
L 494.055182 96.319171 
L 494.314877 97.220444 
L 496.132749 106.962644 
L 496.911837 103.203097 
L 497.171533 103.563601 
L 497.431229 102.662329 
L 497.690925 103.177342 
L 497.950621 102.894106 
L 498.989404 104.859679 
L 499.2491 105.675125 
L 499.508796 100.567975 
L 499.768492 98.053034 
L 500.54758 96.053106 
L 500.807276 94.945812 
L 501.066972 95.529508 
L 501.326668 95.812757 
L 501.586364 97.314869 
L 502.365451 97.90711 
L 502.884843 104.198782 
L 503.144539 102.087232 
L 503.404235 102.954176 
L 504.183323 101.383408 
L 504.443019 99.992905 
L 504.702715 99.898466 
L 504.962411 100.834041 
L 505.222107 100.172298 
L 506.001195 101.633333 
L 506.26089 103.446775 
L 506.520586 104.21166 
L 506.780282 104.460911 
L 507.039978 105.793035 
L 508.078762 106.437606 
L 508.338458 105.784423 
L 508.598154 104.022572 
L 508.85785 105.612532 
L 509.636938 106.781362 
L 509.896634 105.518001 
L 510.15633 106.55792 
L 510.416025 107.133756 
L 510.675721 108.070546 
L 511.454809 111.989581 
L 511.714505 116.269583 
L 511.974201 117.129038 
L 512.233897 117.232168 
L 512.493593 115.745337 
L 513.532377 113.596751 
L 513.792073 115.401542 
L 514.051769 113.794385 
L 514.311464 114.120997 
L 515.090552 113.175609 
L 515.609944 108.92139 
L 515.86964 115.195283 
L 516.129336 114.413201 
L 516.908424 115.642195 
L 517.16812 116.62195 
L 517.427816 113.527976 
L 517.687512 115.100766 
L 518.726295 116.34693 
L 518.985991 117.369678 
L 519.245687 116.673528 
L 519.505383 117.386849 
L 519.765079 116.733665 
L 520.544167 117.704849 
L 520.803863 116.656331 
L 521.063559 118.280685 
L 521.323255 112.041146 
L 521.582951 110.743404 
L 522.362038 114.06082 
L 522.621734 116.905556 
L 523.400822 120.669911 
L 524.17991 119.947979 
L 524.439606 119.036985 
L 524.699302 117.214944 
L 524.958998 116.46727 
L 525.218694 116.974318 
L 525.997782 113.364684 
L 526.257478 116.089106 
L 526.517173 116.974318 
L 526.776869 113.768629 
L 527.036565 104.873416 
L 527.815653 106.308682 
L 528.075349 105.715688 
L 528.335045 105.423457 
L 528.594741 103.850694 
L 528.854437 104.943644 
L 529.893221 101.17423 
L 530.152917 99.203413 
L 530.672308 99.074343 
L 531.451396 98.067431 
L 531.711092 96.940034 
L 531.970788 98.187903 
L 532.230484 101.647532 
L 532.49018 98.979666 
L 533.528964 98.971068 
L 533.78866 98.712875 
L 534.308052 97.026086 
L 535.346835 95.218825 
L 535.606531 93.910714 
L 535.866227 95.106952 
L 536.125923 93.032873 
L 536.905011 96.277381 
L 537.164707 84.203093 
L 537.424403 79.108306 
L 537.684099 78.101407 
L 537.943795 79.607456 
L 538.722882 76.010145 
L 539.761666 83.910479 
L 540.540754 83.351087 
L 540.80045 82.550711 
L 541.060146 78.9534 
L 541.319842 78.221879 
L 541.579538 81.216805 
L 542.358626 75.94129 
L 542.618321 72.911944 
L 542.878017 71.810369 
L 543.397409 67.6881 
L 544.176497 66.414383 
L 544.436193 65.67429 
L 544.695889 61.973691 
L 544.955585 66.629544 
L 545.215281 64.073552 
L 545.994369 60.751618 
L 546.254065 60.390163 
L 546.773456 69.546991 
L 547.033152 69.435118 
L 547.81224 69.73633 
L 548.071936 68.832693 
L 548.331632 74.400808 
L 548.591328 75.304432 
L 548.851024 74.899945 
L 549.630112 74.658975 
L 549.889808 74.177049 
L 550.149504 71.354265 
L 550.4092 74.555714 
L 550.668895 73.264813 
L 551.707679 84.134252 
L 552.227071 78.90177 
L 552.486767 76.380198 
L 553.265855 75.053318 
L 553.525551 71.830935 
L 553.785247 71.443209 
L 554.044943 68.85841 
L 554.304639 67.712482 
L 555.083726 67.850349 
L 555.343422 67.316144 
L 555.603118 67.410926 
L 555.862814 69.022125 
L 556.12251 67.031825 
L 556.901598 66.738895 
L 557.161294 66.006515 
L 557.42099 67.333394 
L 557.680686 64.490098 
L 557.940382 65.170768 
L 559.238861 72.192812 
L 559.498557 70.874557 
L 559.758253 72.21866 
L 560.537341 72.141102 
L 560.797037 72.83041 
L 561.056733 70.63331 
L 561.316429 70.538528 
L 561.576125 70.771177 
L 562.355213 76.095866 
L 562.614908 75.69093 
L 562.874604 72.330666 
L 563.1343 65.282773 
L 564.173084 67.350618 
L 564.43278 66.575179 
L 564.692476 67.436775 
L 564.952172 66.445937 
L 565.211868 66.213315 
L 565.990956 61.72436 
L 566.250652 67.574642 
L 566.510348 67.083522 
L 566.770043 68.039899 
L 567.029739 67.066286 
L 567.808827 71.469057 
L 568.328219 64.705497 
L 568.587915 65.136321 
L 568.847611 66.420076 
L 569.626699 63.18908 
L 569.886395 60.991994 
L 570.146091 62.775519 
L 570.405787 62.456727 
L 570.665482 60.00117 
L 571.44457 58.725987 
L 571.704266 59.260178 
L 571.963962 63.654351 
L 572.223658 63.818053 
L 572.483354 63.094298 
L 573.262442 61.379733 
L 573.522138 61.147097 
L 574.301226 70.417898 
L 575.080313 71.193363 
L 575.340009 69.95264 
L 575.599705 70.581613 
L 575.859401 66.480398 
L 576.119097 66.713284 
L 576.898185 69.068036 
L 577.157881 69.068036 
L 577.417577 68.300378 
L 577.677273 65.626476 
L 577.936969 68.40389 
L 578.716056 65.798988 
L 578.975752 65.574727 
L 579.235448 64.953692 
L 579.495144 65.367715 
L 579.75484 64.203269 
L 580.533928 61.615631 
L 580.793624 59.726651 
L 581.05332 59.838775 
L 581.572712 57.768659 
L 582.3518 55.819305 
L 582.611496 53.179903 
L 582.871191 52.869392 
L 583.130887 52.843504 
L 583.390583 53.016016 
L 584.429367 48.763646 
L 584.689063 49.867717 
L 584.948759 48.599746 
L 585.208455 48.453135 
L 585.987543 45.943121 
L 586.247239 43.838504 
L 586.506935 48.522134 
L 586.76663 47.021303 
L 587.026326 42.96732 
L 587.805414 42.294522 
L 588.06511 39.767271 
L 588.584502 39.06 
L 588.844198 42.018524 
L 589.623286 44.942562 
L 589.882982 46.477893 
L 590.402374 52.144832 
L 590.66207 52.567493 
L 591.441157 51.152911 
L 591.700853 53.559413 
L 591.960549 53.136778 
L 592.479941 58.182682 
L 593.518725 61.261982 
L 593.778421 57.302886 
L 594.038117 65.591963 
L 594.297813 64.108395 
L 595.336596 70.439493 
L 595.596292 69.413073 
L 595.855988 69.559684 
L 596.115684 70.318744 
L 596.894772 64.211894 
L 597.154468 56.9665 
L 597.414164 56.017678 
L 597.933556 58.915841 
L 598.712643 65.807613 
L 598.972339 61.675992 
L 599.232035 61.960641 
L 599.491731 61.313731 
L 599.751427 66.135374 
L 600.530515 65.90225 
L 601.309603 53.916906 
L 601.569299 51.26596 
L 602.608083 51.378216 
L 602.867778 51.032823 
L 603.127474 50.203851 
L 603.38717 50.44564 
L 604.166258 49.107217 
L 604.425954 49.159032 
L 604.68565 54.927185 
L 604.945346 57.569493 
L 605.205042 53.649216 
L 605.98413 56.939146 
L 606.243826 58.752483 
L 606.503522 58.916541 
L 606.763217 59.270573 
L 607.022913 56.041096 
L 607.802001 66.049032 
L 608.581089 81.419286 
L 608.840785 78.129356 
L 609.619873 77.688969 
L 609.879569 78.820143 
L 610.139265 76.618236 
L 610.398961 77.602614 
L 610.658657 74.001829 
L 611.437744 71.877639 
L 611.69744 69.26987 
L 611.957136 71.186838 
L 612.216832 69.183515 
L 612.476528 74.321335 
L 613.515312 69.753422 
L 613.775008 69.148976 
L 614.2944 99.811755 
L 615.073487 105.787157 
L 615.333183 113.593185 
L 615.592879 90.770948 
L 615.852575 98.050234 
L 616.112271 91.375406 
L 616.891359 87.601912 
L 617.151055 87.930055 
L 617.410751 94.725764 
L 617.670447 92.385686 
L 618.709231 95.684241 
L 619.228622 85.805838 
L 619.488318 82.55046 
L 619.748014 81.76468 
L 620.527102 81.022064 
L 621.30619 78.276138 
L 621.565886 85.158215 
L 622.344974 90.736408 
L 622.60467 91.064539 
L 622.864365 93.016046 
L 623.383757 91.047263 
L 624.162845 80.222111 
L 624.422541 78.371805 
L 625.201629 79.815735 
L 625.980717 81.960016 
L 626.240413 83.620098 
L 626.500109 87.744388 
L 626.759805 88.375567 
L 627.0195 93.641149 
L 628.058284 89.369878 
L 628.31798 89.188318 
L 628.577676 89.594694 
L 628.837372 88.816522 
L 629.61646 88.081593 
L 629.876156 86.724123 
L 630.135852 87.113196 
L 630.395548 89.006732 
L 630.655244 86.162115 
L 631.434331 88.297744 
L 631.694027 87.2429 
L 631.953723 90.606308 
L 632.213419 90.243162 
L 632.473115 92.620897 
L 633.252203 90.917572 
L 633.511899 93.321247 
L 633.771595 92.508496 
L 634.290987 88.686831 
L 635.070074 88.254514 
L 635.32977 89.292069 
L 635.589466 88.202632 
L 635.849162 88.686831 
L 636.108858 88.617659 
L 636.887946 85.08133 
L 637.147642 82.790057 
L 637.407338 78.79547 
L 637.667034 77.835725 
L 638.705818 80.948402 
L 638.965513 80.89652 
L 639.484905 78.821411 
L 639.744601 79.902196 
L 640.523689 82.098358 
L 640.783385 81.674679 
L 641.043081 80.766816 
L 641.302777 80.887869 
L 641.562473 79.884906 
L 642.341561 78.760891 
L 642.601257 77.100796 
L 643.120648 77.654165 
L 643.380344 77.550402 
L 644.159432 77.403408 
L 644.678824 81.726561 
L 644.93852 83.006208 
L 645.198216 87.493631 
L 645.977304 86.654939 
L 646.237 87.026749 
L 646.756392 72.232938 
L 647.016087 64.174581 
L 647.795175 65.827914 
L 648.054871 63.689855 
L 648.314567 60.504401 
L 648.574263 60.980489 
L 648.833959 62.010568 
L 649.872743 62.902146 
L 650.132439 66.840677 
L 650.392135 67.801505 
L 650.651831 65.325858 
L 651.430918 65.845217 
L 651.690614 63.984159 
L 651.95031 62.962732 
L 652.210006 61.170925 
L 652.469702 61.53448 
L 653.508486 63.629256 
L 653.768182 56.055163 
L 653.768182 56.055163 
" clip-path="url(#p1208800bf3)" style="fill: none; stroke: #1f77b4; stroke-width: 1.5; stroke-linecap: square"/>
   </g>
   <g id="patch_3">
    <path d="M 94.5 224.28 
L 94.5 30.24 
" style="fill: none; stroke: #000000; stroke-width: 0.8; stroke-linejoin: miter; stroke-linecap: square"/>
   </g>
   <g id="patch_4">
    <path d="M 94.5 224.28 
L 680.4 224.28 
" style="fill: none; stroke: #000000; stroke-width: 0.8; stroke-linejoin: miter; stroke-linecap: square"/>
   </g>
  </g>
 </g>
 <defs>
  <clipPath id="p1208800bf3">
   <rect x="94.5" y="30.24" width="585.9" height="194.04"/>
  </clipPath>
 </defs>
</svg>
