<?xml version="1.0" encoding="utf-8" standalone="no"?>
<!DOCTYPE svg PUBLIC "-//W3C//DTD SVG 1.1//EN"
  "http://www.w3.org/Graphics/SVG/1.1/DTD/svg11.dtd">
<svg xmlns:xlink="http://www.w3.org/1999/xlink" width="756pt" height="252pt" viewBox="0 0 756 252" xmlns="http://www.w3.org/2000/svg" version="1.1">
 <metadata>
  <rdf:RDF xmlns:dc="http://purl.org/dc/elements/1.1/" xmlns:cc="http://creativecommons.org/ns#" xmlns:rdf="http://www.w3.org/1999/02/22-rdf-syntax-ns#">
   <cc:Work>
    <dc:type rdf:resource="http://purl.org/dc/dcmitype/StillImage"/>
    <dc:date>2025-09-07T00:54:21.211092</dc:date>
    <dc:format>image/svg+xml</dc:format>
    <dc:creator>
     <cc:Agent>
      <dc:title>Matplotlib v3.10.5, https://matplotlib.org/</dc:title>
     </cc:Agent>
    </dc:creator>
   </cc:Work>
  </rdf:RDF>
 </metadata>
 <defs>
  <style type="text/css">*{stroke-linejoin: round; stroke-linecap: butt}</style>
 </defs>
 <g id="figure_1">
  <g id="patch_1">
   <path d="M 0 252 
L 756 252 
L 756 0 
L 0 0 
z
" style="fill: #ffffff"/>
  </g>
  <g id="axes_1">
   <g id="patch_2">
    <path d="M 94.5 224.28 
L 680.4 224.28 
L 680.4 30.24 
L 94.5 30.24 
z
" style="fill: #ffffff"/>
   </g>
   <g id="matplotlib.axis_1">
    <g id="xtick_1">
     <g id="line2d_1">
      <defs>
       <path id="m62df6a6733" d="M 0 0 
L 0 3.5 
" style="stroke: #000000; stroke-width: 0.8"/>
      </defs>
      <g>
       <use xlink:href="#m62df6a6733" x="115.680861" y="224.28" style="stroke: #000000; stroke-width: 0.8"/>
      </g>
     </g>
     <g id="text_1">
      <!-- 2020 -->
      <g transform="translate(102.955861 238.878438) scale(0.1 -0.1)">
       <defs>
        <path id="DejaVuSans-32" d="M 1228 531 
L 3431 531 
L 3431 0 
L 469 0 
L 469 531 
Q 828 903 1448 1529 
Q 2069 2156 2228 2338 
Q 2531 2678 2651 2914 
Q 2772 3150 2772 3378 
Q 2772 3750 2511 3984 
Q 2250 4219 1831 4219 
Q 1534 4219 1204 4116 
Q 875 4013 500 3803 
L 500 4441 
Q 881 4594 1212 4672 
Q 1544 4750 1819 4750 
Q 2544 4750 2975 4387 
Q 3406 4025 3406 3419 
Q 3406 3131 3298 2873 
Q 3191 2616 2906 2266 
Q 2828 2175 2409 1742 
Q 1991 1309 1228 531 
z
" transform="scale(0.015625)"/>
        <path id="DejaVuSans-30" d="M 2034 4250 
Q 1547 4250 1301 3770 
Q 1056 3291 1056 2328 
Q 1056 1369 1301 889 
Q 1547 409 2034 409 
Q 2525 409 2770 889 
Q 3016 1369 3016 2328 
Q 3016 3291 2770 3770 
Q 2525 4250 2034 4250 
z
M 2034 4750 
Q 2819 4750 3233 4129 
Q 3647 3509 3647 2328 
Q 3647 1150 3233 529 
Q 2819 -91 2034 -91 
Q 1250 -91 836 529 
Q 422 1150 422 2328 
Q 422 3509 836 4129 
Q 1250 4750 2034 4750 
z
" transform="scale(0.015625)"/>
       </defs>
       <use xlink:href="#DejaVuSans-32"/>
       <use xlink:href="#DejaVuSans-30" transform="translate(63.623047 0)"/>
       <use xlink:href="#DejaVuSans-32" transform="translate(127.246094 0)"/>
       <use xlink:href="#DejaVuSans-30" transform="translate(190.869141 0)"/>
      </g>
     </g>
    </g>
    <g id="xtick_2">
     <g id="line2d_2">
      <g>
       <use xlink:href="#m62df6a6733" x="210.683254" y="224.28" style="stroke: #000000; stroke-width: 0.8"/>
      </g>
     </g>
     <g id="text_2">
      <!-- 2021 -->
      <g transform="translate(197.958254 238.878438) scale(0.1 -0.1)">
       <defs>
        <path id="DejaVuSans-31" d="M 794 531 
L 1825 531 
L 1825 4091 
L 703 3866 
L 703 4441 
L 1819 4666 
L 2450 4666 
L 2450 531 
L 3481 531 
L 3481 0 
L 794 0 
L 794 531 
z
" transform="scale(0.015625)"/>
       </defs>
       <use xlink:href="#DejaVuSans-32"/>
       <use xlink:href="#DejaVuSans-30" transform="translate(63.623047 0)"/>
       <use xlink:href="#DejaVuSans-32" transform="translate(127.246094 0)"/>
       <use xlink:href="#DejaVuSans-31" transform="translate(190.869141 0)"/>
      </g>
     </g>
    </g>
    <g id="xtick_3">
     <g id="line2d_3">
      <g>
       <use xlink:href="#m62df6a6733" x="305.426077" y="224.28" style="stroke: #000000; stroke-width: 0.8"/>
      </g>
     </g>
     <g id="text_3">
      <!-- 2022 -->
      <g transform="translate(292.701077 238.878438) scale(0.1 -0.1)">
       <use xlink:href="#DejaVuSans-32"/>
       <use xlink:href="#DejaVuSans-30" transform="translate(63.623047 0)"/>
       <use xlink:href="#DejaVuSans-32" transform="translate(127.246094 0)"/>
       <use xlink:href="#DejaVuSans-32" transform="translate(190.869141 0)"/>
      </g>
     </g>
    </g>
    <g id="xtick_4">
     <g id="line2d_4">
      <g>
       <use xlink:href="#m62df6a6733" x="400.1689" y="224.28" style="stroke: #000000; stroke-width: 0.8"/>
      </g>
     </g>
     <g id="text_4">
      <!-- 2023 -->
      <g transform="translate(387.4439 238.878438) scale(0.1 -0.1)">
       <defs>
        <path id="DejaVuSans-33" d="M 2597 2516 
Q 3050 2419 3304 2112 
Q 3559 1806 3559 1356 
Q 3559 666 3084 287 
Q 2609 -91 1734 -91 
Q 1441 -91 1130 -33 
Q 819 25 488 141 
L 488 750 
Q 750 597 1062 519 
Q 1375 441 1716 441 
Q 2309 441 2620 675 
Q 2931 909 2931 1356 
Q 2931 1769 2642 2001 
Q 2353 2234 1838 2234 
L 1294 2234 
L 1294 2753 
L 1863 2753 
Q 2328 2753 2575 2939 
Q 2822 3125 2822 3475 
Q 2822 3834 2567 4026 
Q 2313 4219 1838 4219 
Q 1578 4219 1281 4162 
Q 984 4106 628 3988 
L 628 4550 
Q 988 4650 1302 4700 
Q 1616 4750 1894 4750 
Q 2613 4750 3031 4423 
Q 3450 4097 3450 3541 
Q 3450 3153 3228 2886 
Q 3006 2619 2597 2516 
z
" transform="scale(0.015625)"/>
       </defs>
       <use xlink:href="#DejaVuSans-32"/>
       <use xlink:href="#DejaVuSans-30" transform="translate(63.623047 0)"/>
       <use xlink:href="#DejaVuSans-32" transform="translate(127.246094 0)"/>
       <use xlink:href="#DejaVuSans-33" transform="translate(190.869141 0)"/>
      </g>
     </g>
    </g>
    <g id="xtick_5">
     <g id="line2d_5">
      <g>
       <use xlink:href="#m62df6a6733" x="494.911722" y="224.28" style="stroke: #000000; stroke-width: 0.8"/>
      </g>
     </g>
     <g id="text_5">
      <!-- 2024 -->
      <g transform="translate(482.186722 238.878438) scale(0.1 -0.1)">
       <defs>
        <path id="DejaVuSans-34" d="M 2419 4116 
L 825 1625 
L 2419 1625 
L 2419 4116 
z
M 2253 4666 
L 3047 4666 
L 3047 1625 
L 3713 1625 
L 3713 1100 
L 3047 1100 
L 3047 0 
L 2419 0 
L 2419 1100 
L 313 1100 
L 313 1709 
L 2253 4666 
z
" transform="scale(0.015625)"/>
       </defs>
       <use xlink:href="#DejaVuSans-32"/>
       <use xlink:href="#DejaVuSans-30" transform="translate(63.623047 0)"/>
       <use xlink:href="#DejaVuSans-32" transform="translate(127.246094 0)"/>
       <use xlink:href="#DejaVuSans-34" transform="translate(190.869141 0)"/>
      </g>
     </g>
    </g>
    <g id="xtick_6">
     <g id="line2d_6">
      <g>
       <use xlink:href="#m62df6a6733" x="589.914115" y="224.28" style="stroke: #000000; stroke-width: 0.8"/>
      </g>
     </g>
     <g id="text_6">
      <!-- 2025 -->
      <g transform="translate(577.189115 238.878438) scale(0.1 -0.1)">
       <defs>
        <path id="DejaVuSans-35" d="M 691 4666 
L 3169 4666 
L 3169 4134 
L 1269 4134 
L 1269 2991 
Q 1406 3038 1543 3061 
Q 1681 3084 1819 3084 
Q 2600 3084 3056 2656 
Q 3513 2228 3513 1497 
Q 3513 744 3044 326 
Q 2575 -91 1722 -91 
Q 1428 -91 1123 -41 
Q 819 9 494 109 
L 494 744 
Q 775 591 1075 516 
Q 1375 441 1709 441 
Q 2250 441 2565 725 
Q 2881 1009 2881 1497 
Q 2881 1984 2565 2268 
Q 2250 2553 1709 2553 
Q 1456 2553 1204 2497 
Q 953 2441 691 2322 
L 691 4666 
z
" transform="scale(0.015625)"/>
       </defs>
       <use xlink:href="#DejaVuSans-32"/>
       <use xlink:href="#DejaVuSans-30" transform="translate(63.623047 0)"/>
       <use xlink:href="#DejaVuSans-32" transform="translate(127.246094 0)"/>
       <use xlink:href="#DejaVuSans-35" transform="translate(190.869141 0)"/>
      </g>
     </g>
    </g>
   </g>
   <g id="matplotlib.axis_2">
    <g id="ytick_1">
     <g id="line2d_7">
      <defs>
       <path id="mba7926154f" d="M 0 0 
L -3.5 0 
" style="stroke: #000000; stroke-width: 0.8"/>
      </defs>
      <g>
       <use xlink:href="#mba7926154f" x="94.5" y="219.196793" style="stroke: #000000; stroke-width: 0.8"/>
      </g>
     </g>
     <g id="text_7">
      <!-- 50 -->
      <g transform="translate(74.775 222.996011) scale(0.1 -0.1)">
       <use xlink:href="#DejaVuSans-35"/>
       <use xlink:href="#DejaVuSans-30" transform="translate(63.623047 0)"/>
      </g>
     </g>
    </g>
    <g id="ytick_2">
     <g id="line2d_8">
      <g>
       <use xlink:href="#mba7926154f" x="94.5" y="197.556528" style="stroke: #000000; stroke-width: 0.8"/>
      </g>
     </g>
     <g id="text_8">
      <!-- 75 -->
      <g transform="translate(74.775 201.355746) scale(0.1 -0.1)">
       <defs>
        <path id="DejaVuSans-37" d="M 525 4666 
L 3525 4666 
L 3525 4397 
L 1831 0 
L 1172 0 
L 2766 4134 
L 525 4134 
L 525 4666 
z
" transform="scale(0.015625)"/>
       </defs>
       <use xlink:href="#DejaVuSans-37"/>
       <use xlink:href="#DejaVuSans-35" transform="translate(63.623047 0)"/>
      </g>
     </g>
    </g>
    <g id="ytick_3">
     <g id="line2d_9">
      <g>
       <use xlink:href="#mba7926154f" x="94.5" y="175.916263" style="stroke: #000000; stroke-width: 0.8"/>
      </g>
     </g>
     <g id="text_9">
      <!-- 100 -->
      <g transform="translate(68.4125 179.715482) scale(0.1 -0.1)">
       <use xlink:href="#DejaVuSans-31"/>
       <use xlink:href="#DejaVuSans-30" transform="translate(63.623047 0)"/>
       <use xlink:href="#DejaVuSans-30" transform="translate(127.246094 0)"/>
      </g>
     </g>
    </g>
    <g id="ytick_4">
     <g id="line2d_10">
      <g>
       <use xlink:href="#mba7926154f" x="94.5" y="154.275998" style="stroke: #000000; stroke-width: 0.8"/>
      </g>
     </g>
     <g id="text_10">
      <!-- 125 -->
      <g transform="translate(68.4125 158.075217) scale(0.1 -0.1)">
       <use xlink:href="#DejaVuSans-31"/>
       <use xlink:href="#DejaVuSans-32" transform="translate(63.623047 0)"/>
       <use xlink:href="#DejaVuSans-35" transform="translate(127.246094 0)"/>
      </g>
     </g>
    </g>
    <g id="ytick_5">
     <g id="line2d_11">
      <g>
       <use xlink:href="#mba7926154f" x="94.5" y="132.635733" style="stroke: #000000; stroke-width: 0.8"/>
      </g>
     </g>
     <g id="text_11">
      <!-- 150 -->
      <g transform="translate(68.4125 136.434952) scale(0.1 -0.1)">
       <use xlink:href="#DejaVuSans-31"/>
       <use xlink:href="#DejaVuSans-35" transform="translate(63.623047 0)"/>
       <use xlink:href="#DejaVuSans-30" transform="translate(127.246094 0)"/>
      </g>
     </g>
    </g>
    <g id="ytick_6">
     <g id="line2d_12">
      <g>
       <use xlink:href="#mba7926154f" x="94.5" y="110.995468" style="stroke: #000000; stroke-width: 0.8"/>
      </g>
     </g>
     <g id="text_12">
      <!-- 175 -->
      <g transform="translate(68.4125 114.794687) scale(0.1 -0.1)">
       <use xlink:href="#DejaVuSans-31"/>
       <use xlink:href="#DejaVuSans-37" transform="translate(63.623047 0)"/>
       <use xlink:href="#DejaVuSans-35" transform="translate(127.246094 0)"/>
      </g>
     </g>
    </g>
    <g id="ytick_7">
     <g id="line2d_13">
      <g>
       <use xlink:href="#mba7926154f" x="94.5" y="89.355204" style="stroke: #000000; stroke-width: 0.8"/>
      </g>
     </g>
     <g id="text_13">
      <!-- 200 -->
      <g transform="translate(68.4125 93.154422) scale(0.1 -0.1)">
       <use xlink:href="#DejaVuSans-32"/>
       <use xlink:href="#DejaVuSans-30" transform="translate(63.623047 0)"/>
       <use xlink:href="#DejaVuSans-30" transform="translate(127.246094 0)"/>
      </g>
     </g>
    </g>
    <g id="ytick_8">
     <g id="line2d_14">
      <g>
       <use xlink:href="#mba7926154f" x="94.5" y="67.714939" style="stroke: #000000; stroke-width: 0.8"/>
      </g>
     </g>
     <g id="text_14">
      <!-- 225 -->
      <g transform="translate(68.4125 71.514157) scale(0.1 -0.1)">
       <use xlink:href="#DejaVuSans-32"/>
       <use xlink:href="#DejaVuSans-32" transform="translate(63.623047 0)"/>
       <use xlink:href="#DejaVuSans-35" transform="translate(127.246094 0)"/>
      </g>
     </g>
    </g>
    <g id="ytick_9">
     <g id="line2d_15">
      <g>
       <use xlink:href="#mba7926154f" x="94.5" y="46.074674" style="stroke: #000000; stroke-width: 0.8"/>
      </g>
     </g>
     <g id="text_15">
      <!-- 250 -->
      <g transform="translate(68.4125 49.873893) scale(0.1 -0.1)">
       <use xlink:href="#DejaVuSans-32"/>
       <use xlink:href="#DejaVuSans-35" transform="translate(63.623047 0)"/>
       <use xlink:href="#DejaVuSans-30" transform="translate(127.246094 0)"/>
      </g>
     </g>
    </g>
   </g>
   <g id="line2d_16">
    <path d="M 121.131818 196.060082 
L 121.391388 195.740239 
L 121.650957 195.932563 
L 122.429665 197.889327 
L 122.948804 194.671956 
L 123.208373 194.770225 
L 123.467943 197.772244 
L 124.246651 197.949933 
L 124.50622 195.819653 
L 125.025359 194.490073 
L 125.284928 195.414189 
L 126.063636 195.095674 
L 126.323206 195.502208 
L 126.582775 193.911707 
L 126.842344 194.399967 
L 127.101914 194.383186 
L 128.140191 195.63003 
L 128.399761 194.661911 
L 128.65933 195.357612 
L 128.9189 196.876888 
L 129.697608 199.99294 
L 129.957177 202.109397 
L 130.216746 201.151752 
L 130.476316 205.160497 
L 130.735885 205.194026 
L 131.514593 199.860917 
L 131.774163 201.849553 
L 132.033732 199.037368 
L 132.293301 201.095188 
L 132.552871 201.91033 
L 133.331579 206.700715 
L 133.591148 202.683576 
L 133.850718 204.760257 
L 134.110287 210.460087 
L 134.369856 204.227987 
L 135.148565 211.721583 
L 135.408134 209.489848 
L 135.667703 210.786979 
L 135.927273 211.183036 
L 136.186842 214.439487 
L 136.96555 215.46 
L 137.22512 210.742973 
L 137.484689 211.027969 
L 137.744258 208.320549 
L 138.003828 210.562767 
L 138.782536 209.08123 
L 139.042105 209.190198 
L 139.301675 211.994011 
L 139.561244 211.151604 
L 139.820813 211.889228 
L 140.599522 207.476045 
L 140.859091 208.113101 
L 141.11866 206.721657 
L 141.37823 206.319309 
L 142.416507 205.217094 
L 142.676077 202.325251 
L 142.935646 202.874269 
L 143.195215 202.400683 
L 143.454785 203.215852 
L 144.233493 204.445916 
L 144.493062 206.23971 
L 144.752632 204.619847 
L 145.012201 204.844063 
L 145.27177 203.180216 
L 146.050478 203.13832 
L 146.310048 204.100165 
L 146.829187 200.910756 
L 147.088756 201.901963 
L 147.867464 201.044871 
L 148.386603 199.479512 
L 148.646172 198.827814 
L 148.905742 197.312837 
L 149.68445 196.287474 
L 150.203589 197.833965 
L 150.463158 197.436815 
L 150.722727 197.821332 
L 151.501435 196.297967 
L 151.761005 196.680397 
L 152.020574 195.400756 
L 152.280144 195.900844 
L 152.539713 195.472193 
L 153.57799 195.926052 
L 153.83756 195.636086 
L 154.356699 195.671808 
L 155.654545 194.163164 
L 155.914115 194.751489 
L 156.173684 192.822608 
L 156.952392 192.41075 
L 157.471531 188.338645 
L 157.7311 191.898055 
L 157.99067 191.28873 
L 158.769378 190.408293 
L 159.028947 188.498345 
L 159.288517 188.601283 
L 159.548086 188.571869 
L 159.807656 188.9942 
L 160.586364 187.071625 
L 160.845933 185.462091 
L 161.105502 186.821568 
L 161.365072 185.817199 
L 161.624641 188.172638 
L 162.662919 185.825613 
L 162.922488 185.970592 
L 163.182057 185.970592 
L 164.220335 183.924019 
L 164.479904 184.167763 
L 164.739474 182.343926 
L 164.999043 181.999305 
L 165.258612 181.858539 
L 166.037321 182.230455 
L 166.29689 180.902499 
L 166.556459 180.341469 
L 166.816029 181.352151 
L 167.075598 181.516045 
L 167.854306 179.809879 
L 168.113876 180.950821 
L 168.373445 180.721785 
L 168.633014 184.443021 
L 168.892584 184.63631 
L 169.671292 182.791472 
L 169.930861 184.100507 
L 170.45 181.631596 
L 170.709569 173.167966 
L 171.747847 170.306146 
L 172.007416 169.972058 
L 172.266986 166.744609 
L 172.526555 168.92117 
L 173.305263 167.561349 
L 173.564833 170.384133 
L 173.824402 167.32349 
L 174.083971 165.639482 
L 175.122249 165.978403 
L 175.381818 165.174303 
L 175.641388 165.052213 
L 175.900957 162.890373 
L 176.160526 157.758438 
L 176.939234 156.505947 
L 177.198804 157.375328 
L 177.458373 155.946026 
L 177.717943 157.219551 
L 177.977512 157.390062 
L 178.75622 153.826326 
L 179.015789 149.498445 
L 179.275359 151.839223 
L 179.534928 160.696985 
L 179.794498 160.629636 
L 180.832775 167.483467 
L 181.092344 163.69448 
L 181.351914 166.919333 
L 181.611483 168.173905 
L 182.390191 165.344801 
L 182.649761 165.193237 
L 182.90933 168.064449 
L 183.1689 169.571626 
L 183.428469 172.518607 
L 184.207177 169.790545 
L 184.466746 168.333902 
L 184.726316 172.282847 
L 184.985885 171.356644 
L 185.245455 167.938139 
L 186.024163 165.681576 
L 186.283732 166.414141 
L 186.802871 164.140751 
L 187.06244 167.31507 
L 187.841148 164.384937 
L 188.100718 167.19718 
L 188.360287 165.580547 
L 188.619856 165.673176 
L 188.879426 163.98918 
L 189.658134 157.733177 
L 189.917703 160.51174 
L 190.177273 160.435971 
L 190.436842 160.840115 
L 190.696411 162.263104 
L 191.47512 164.822768 
L 191.734689 163.534496 
L 191.994258 164.073382 
L 192.513397 165.614234 
L 193.292105 165.605807 
L 193.551675 164.300735 
L 193.811244 168.847502 
L 194.070813 165.378482 
L 194.330383 170.817758 
L 195.109091 170.893559 
L 195.36866 169.487404 
L 195.887799 162.25469 
L 196.147368 162.368538 
L 196.926077 164.367515 
L 197.185646 164.662724 
L 197.445215 161.693779 
L 197.704785 161.929941 
L 197.964354 161.88778 
L 198.743062 161.010586 
L 199.002632 161.778126 
L 199.262201 162.925216 
L 199.52177 162.410725 
L 200.560048 166.45082 
L 201.079187 164.612117 
L 201.598325 164.139786 
L 202.377033 162.064902 
L 202.636603 158.969442 
L 202.896172 158.665799 
L 203.155742 158.783893 
L 203.415311 159.365872 
L 204.453589 157.56931 
L 204.713158 159.762289 
L 204.972727 158.530871 
L 205.232297 159.230931 
L 206.011005 159.762289 
L 206.270574 154.617258 
L 206.530144 154.676305 
L 206.789713 153.925645 
L 207.049282 155.64626 
L 207.82799 154.322062 
L 208.08756 151.243455 
L 208.347129 152.019435 
L 208.606699 151.167548 
L 209.644976 147.186487 
L 210.164115 149.691495 
L 210.423684 150.560263 
L 211.461962 153.326793 
L 211.721531 151.977268 
L 211.9811 155.696893 
L 212.24067 152.053182 
L 212.500239 151.100067 
L 213.278947 153.689476 
L 213.538517 153.841271 
L 213.798086 152.078456 
L 214.317225 155.241416 
L 215.355502 154.659425 
L 216.134211 145.179109 
L 216.912919 141.931815 
L 217.172488 141.729399 
L 217.432057 142.657207 
L 217.951196 151.176014 
L 218.989474 148.620339 
L 219.249043 149.505987 
L 219.508612 146.596095 
L 219.768182 146.95508 
L 220.54689 146.828334 
L 221.066029 148.11234 
L 221.325598 148.331965 
L 221.585167 148.129207 
L 222.623445 149.97069 
L 222.883014 151.955752 
L 223.142584 152.910247 
L 223.402153 152.775101 
L 224.180861 156.044143 
L 224.440431 156.162389 
L 224.7 156.5932 
L 224.959569 160.276113 
L 225.219139 160.048054 
L 225.997847 154.532104 
L 226.776555 161.002582 
L 227.036124 159.912915 
L 227.814833 164.187124 
L 228.074402 160.19164 
L 228.333971 161.129275 
L 228.593541 159.456737 
L 228.85311 160.242326 
L 229.631818 157.742 
L 229.891388 156.407374 
L 230.150957 157.091564 
L 230.410526 160.664677 
L 230.670096 161.120815 
L 231.448804 158.248831 
L 231.708373 158.966827 
L 231.967943 161.036355 
L 232.487081 160.090294 
L 233.265789 159.938235 
L 233.525359 161.196848 
L 233.784928 159.296265 
L 234.044498 158.578255 
L 235.082775 156.128609 
L 235.342344 155.86675 
L 235.601914 154.439178 
L 236.121053 150.131169 
L 236.899761 151.61788 
L 237.15933 148.923269 
L 237.4189 150.950564 
L 237.678469 148.864109 
L 237.938038 149.151334 
L 238.716746 148.576911 
L 238.976316 150.038263 
L 239.235885 149.708838 
L 239.495455 151.026564 
L 239.755024 149.016148 
L 240.533732 148.678283 
L 240.793301 148.957002 
L 241.052871 149.641238 
L 241.31244 149.725718 
L 241.57201 151.432028 
L 242.350718 150.519766 
L 242.610287 154.481425 
L 242.869856 154.270239 
L 243.129426 152.88492 
L 243.388995 152.30108 
L 244.427273 155.939501 
L 244.686842 158.59639 
L 245.205981 154.636442 
L 245.984689 155.634888 
L 246.244258 156.836408 
L 246.503828 156.971785 
L 246.763397 154.7549 
L 247.022967 156.345659 
L 247.801675 154.932589 
L 248.320813 155.144138 
L 248.580383 156.472569 
L 248.839952 157.039497 
L 249.87823 157.318705 
L 250.137799 156.658732 
L 250.397368 157.944844 
L 250.656938 155.956414 
L 251.435646 155.947967 
L 251.695215 155.237223 
L 251.954785 154.907203 
L 252.214354 155.770278 
L 252.473923 154.721061 
L 253.252632 152.072644 
L 253.512201 152.783376 
L 253.77177 152.351865 
L 254.03134 150.964182 
L 254.290909 152.089531 
L 255.069617 150.532618 
L 255.329187 149.111128 
L 256.107895 149.847286 
L 256.886603 148.43421 
L 257.146172 147.122704 
L 257.405742 146.58961 
L 257.665311 146.327308 
L 257.92488 144.051197 
L 258.963158 142.308142 
L 259.222727 140.150468 
L 259.482297 141.275857 
L 259.741866 139.693598 
L 260.520574 140.209733 
L 260.780144 139.245101 
L 261.039713 136.275152 
L 261.299282 136.842046 
L 261.558852 138.610515 
L 262.33756 141.944296 
L 262.597129 138.813564 
L 262.856699 139.448177 
L 263.375837 136.774381 
L 264.154545 136.410536 
L 264.673684 139.803556 
L 264.933254 139.245101 
L 265.192823 139.058945 
L 265.971531 139.346659 
L 266.2311 137.789746 
L 266.49067 138.136658 
L 266.750239 138.04358 
L 267.009809 138.636759 
L 267.788517 138.679171 
L 268.048086 139.094383 
L 268.307656 138.874031 
L 268.567225 136.306402 
L 268.826794 136.128422 
L 269.605502 134.41667 
L 269.865072 135.204749 
L 270.124641 138.450339 
L 270.384211 138.162243 
L 270.64378 136.899555 
L 271.422488 135.611507 
L 271.682057 135.687758 
L 272.201196 137.450388 
L 272.460766 136.552114 
L 273.239474 132.721824 
L 273.499043 133.815038 
L 273.758612 133.238765 
L 274.277751 131.7219 
L 275.316029 129.696572 
L 275.835167 131.916813 
L 276.094737 136.238592 
L 276.873445 135.747076 
L 277.133014 136.958899 
L 277.392584 136.18774 
L 277.652153 136.391133 
L 277.911722 138.70457 
L 278.690431 141.348476 
L 278.95 140.933264 
L 279.209569 138.882511 
L 279.469139 138.052034 
L 279.728708 137.975783 
L 280.507416 139.289269 
L 280.766986 142.221311 
L 281.026555 141.441699 
L 281.286124 142.568765 
L 281.545694 141.594253 
L 282.324402 144.568654 
L 282.583971 142.899207 
L 283.10311 141.0519 
L 283.362679 141.382394 
L 284.141388 141.458658 
L 284.400957 142.560299 
L 284.660526 143.068721 
L 284.920096 140.653634 
L 285.179665 139.7384 
L 285.958373 138.289318 
L 286.217943 136.416572 
L 286.477512 135.992854 
L 286.737081 135.80642 
L 286.996651 136.47585 
L 287.775359 136.518248 
L 288.034928 135.941989 
L 288.294498 136.340255 
L 288.554067 133.187888 
L 288.813636 135.535257 
L 289.592344 136.247084 
L 290.111483 134.103108 
L 290.371053 134.552225 
L 290.630622 134.093968 
L 291.40933 134.806839 
L 291.6689 134.492868 
L 291.928469 136.94544 
L 292.188038 136.987851 
L 292.447608 135.188727 
L 293.226316 135.180247 
L 293.485885 134.331609 
L 293.745455 132.2185 
L 294.264593 126.227011 
L 295.043301 125.828124 
L 295.56244 125.047389 
L 296.081579 129.400947 
L 296.860287 126.490117 
L 297.119856 122.195956 
L 297.379426 122.645695 
L 297.638995 123.502865 
L 297.898565 125.132265 
L 298.677273 122.178984 
L 299.196411 113.896167 
L 299.455981 114.337492 
L 299.71555 110.187577 
L 300.753828 114.532669 
L 301.013397 110.314878 
L 301.272967 116.289369 
L 301.532536 117.239855 
L 302.311244 118.419463 
L 302.830383 113.420951 
L 303.089952 112.877804 
L 304.12823 109.440774 
L 304.387799 110.323397 
L 304.647368 110.246961 
L 304.906938 111.248378 
L 305.166507 111.783032 
L 305.945215 108.015032 
L 306.204785 109.975468 
L 306.723923 116.510011 
L 306.983493 116.365725 
L 307.762201 116.348766 
L 308.02177 113.896167 
L 308.28134 113.514293 
L 308.540909 116.348766 
L 308.800478 115.601963 
L 309.838756 118.377012 
L 310.098325 121.406729 
L 310.617464 124.648529 
L 311.396172 125.318962 
L 311.655742 126.880498 
L 311.915311 126.956854 
L 312.17488 127.355728 
L 312.43445 117.927248 
L 313.213158 114.150768 
L 313.472727 114.295028 
L 313.732297 113.251226 
L 313.991866 115.746236 
L 315.030144 116.612929 
L 315.289713 113.919321 
L 315.549282 112.68721 
L 316.068421 119.179131 
L 316.847129 118.975184 
L 317.106699 115.652775 
L 317.366268 115.856682 
L 317.625837 118.975184 
L 317.885407 120.317742 
L 318.923684 122.849946 
L 319.183254 126.461297 
L 319.702392 122.399574 
L 320.4811 122.170148 
L 320.74067 123.801647 
L 321.000239 120.946569 
L 321.259809 121.226979 
L 321.519378 123.827152 
L 322.298086 127.11559 
L 322.557656 128.69604 
L 322.817225 124.014087 
L 323.336364 130.998858 
L 324.115072 134.491243 
L 324.634211 126.869192 
L 324.89378 125.993952 
L 325.153349 123.138874 
L 325.932057 121.949254 
L 326.191627 119.026181 
L 326.451196 117.845067 
L 326.710766 114.565108 
L 326.970335 114.012769 
L 327.749043 113.265002 
L 328.008612 110.409897 
L 328.268182 111.421088 
L 328.527751 114.106256 
L 328.787321 114.361201 
L 329.566029 110.85179 
L 330.085167 116.468485 
L 330.344737 116.205087 
L 330.604306 117.947047 
L 331.383014 121.634847 
L 331.642584 120.011854 
L 331.902153 117.68361 
L 332.161722 122.02573 
L 333.2 122.212678 
L 333.459569 120.2328 
L 333.719139 120.377244 
L 333.978708 121.065548 
L 334.238278 124.999747 
L 335.016986 124.073564 
L 335.276555 129.239913 
L 335.536124 129.435315 
L 335.795694 123.427777 
L 336.055263 128.517651 
L 336.833971 128.254214 
L 337.093541 126.96264 
L 337.35311 121.405408 
L 337.612679 129.265378 
L 337.872249 128.635666 
L 338.650957 133.077771 
L 338.910526 130.992914 
L 339.170096 137.809201 
L 339.429665 141.162056 
L 339.689234 137.29012 
L 340.467943 138.626153 
L 340.727512 135.477524 
L 340.987081 142.642744 
L 341.246651 145.595642 
L 341.50622 145.39143 
L 342.284928 140.694011 
L 342.544498 143.034195 
L 342.804067 142.898045 
L 343.063636 140.123867 
L 343.323206 135.137149 
L 344.621053 135.928556 
L 344.880622 133.80113 
L 345.140191 138.762316 
L 345.9189 138.115565 
L 346.178469 135.928556 
L 346.438038 136.566762 
L 346.957177 145.782841 
L 347.735885 150.250478 
L 347.995455 149.501667 
L 348.255024 147.229532 
L 348.514593 151.799275 
L 348.774163 150.522804 
L 349.81244 146.855081 
L 350.07201 147.297594 
L 350.591148 141.927945 
L 351.369856 141.927945 
L 351.629426 145.519048 
L 351.888995 143.995816 
L 352.148565 146.131788 
L 352.408134 144.251116 
L 353.446411 142.013045 
L 353.705981 140.855705 
L 353.96555 137.936845 
L 354.22512 137.349689 
L 355.003828 139.196297 
L 355.263397 138.353854 
L 355.522967 138.668683 
L 356.042105 134.686143 
L 356.820813 137.324158 
L 357.080383 133.979836 
L 357.599522 130.278049 
L 357.859091 131.350301 
L 358.637799 132.320401 
L 358.897368 133.469248 
L 359.156938 129.052674 
L 359.416507 128.576097 
L 359.676077 124.18508 
L 360.454785 125.03607 
L 360.714354 126.31252 
L 360.973923 121.104552 
L 361.493062 121.572848 
L 362.27177 121.981905 
L 362.53134 121.939282 
L 362.790909 118.257954 
L 363.050478 118.897058 
L 363.310048 115.820756 
L 364.088756 114.891905 
L 364.348325 115.028292 
L 364.607895 113.73298 
L 364.867464 114.073844 
L 365.127033 116.315045 
L 365.905742 119.681042 
L 366.165311 119.970776 
L 366.42488 119.715145 
L 366.68445 117.584747 
L 366.944019 123.047078 
L 367.722727 124.955896 
L 368.241866 128.500903 
L 368.501435 127.870265 
L 368.761005 129.702437 
L 369.799282 130.793194 
L 370.058852 129.574621 
L 370.318421 130.852842 
L 370.57799 128.373061 
L 371.356699 123.209023 
L 371.616268 131.381208 
L 371.875837 130.128545 
L 372.135407 132.633884 
L 372.394976 134.056972 
L 373.173684 130.83583 
L 373.433254 128.773612 
L 373.692823 131.483466 
L 373.952392 132.318565 
L 374.211962 134.287032 
L 374.99067 133.997297 
L 375.250239 133.153705 
L 375.509809 134.78984 
L 376.028947 144.708978 
L 376.807656 141.087284 
L 377.067225 137.976906 
L 377.326794 137.721275 
L 377.586364 138.547829 
L 377.845933 143.098413 
L 378.624641 142.817171 
L 378.884211 144.044303 
L 379.14378 144.589655 
L 379.403349 140.627125 
L 379.662919 144.555565 
L 380.701196 139.979475 
L 380.960766 139.885737 
L 381.220335 140.286275 
L 381.479904 136.979861 
L 382.258612 135.122171 
L 382.518182 132.659429 
L 382.777751 135.207377 
L 383.037321 139.084714 
L 383.29689 129.762085 
L 384.075598 131.807277 
L 384.335167 134.099595 
L 384.854306 144.129482 
L 385.113876 144.359938 
L 385.892584 143.899039 
L 386.152153 143.403944 
L 386.411722 147.356027 
L 386.671292 137.113144 
L 386.930861 134.697515 
L 387.709569 135.909616 
L 387.969139 134.407332 
L 388.228708 135.474288 
L 388.488278 133.826886 
L 388.747847 133.340323 
L 389.526555 136.140059 
L 389.786124 134.287785 
L 390.045694 133.52813 
L 391.343541 139.375109 
L 391.60311 141.978453 
L 391.862679 136.122967 
L 392.122249 135.883992 
L 392.381818 136.310774 
L 393.160526 137.317976 
L 393.420096 140.493286 
L 393.679665 142.174792 
L 393.939234 140.715184 
L 394.198804 141.133447 
L 395.237081 138.308114 
L 395.496651 140.237193 
L 395.75622 145.964665 
L 396.015789 147.663288 
L 396.794498 149.489952 
L 397.054067 149.549679 
L 397.313636 146.860919 
L 397.573206 149.609446 
L 397.832775 149.925253 
L 398.871053 151.487304 
L 399.130622 154.893044 
L 399.390191 151.845774 
L 399.649761 151.572656 
L 400.688038 155.721018 
L 400.947608 154.619893 
L 401.207177 155.76368 
L 401.466746 151.837255 
L 402.245455 151.384862 
L 402.505024 150.889793 
L 402.764593 148.533918 
L 403.024163 148.602191 
L 403.283732 147.44991 
L 404.32201 146.442655 
L 404.581579 147.065777 
L 404.841148 147.014569 
L 405.100718 144.79528 
L 406.138995 140.817626 
L 406.398565 141.389514 
L 406.917703 137.915488 
L 407.696411 140.416455 
L 408.21555 138.342283 
L 408.734689 130.600354 
L 409.513397 132.964775 
L 409.772967 130.472341 
L 410.032536 132.802592 
L 410.292105 133.698832 
L 410.551675 133.38255 
L 411.330383 130.954677 
L 411.589952 131.510371 
L 411.849522 129.689506 
L 412.36866 132.066012 
L 413.406938 135.545387 
L 413.926077 134.758907 
L 414.185646 137.058502 
L 414.964354 136.024117 
L 415.223923 136.460093 
L 415.483493 138.255321 
L 415.743062 137.742408 
L 416.002632 133.365432 
L 416.78134 130.971781 
L 417.040909 132.878156 
L 417.300478 131.792471 
L 417.819617 135.528243 
L 418.598325 133.844175 
L 418.857895 132.031843 
L 419.117464 131.689883 
L 419.377033 129.244932 
L 419.636603 129.971566 
L 420.415311 127.919888 
L 420.67488 126.312732 
L 420.93445 127.552279 
L 421.453589 125.483483 
L 422.491866 127.706167 
L 422.751435 125.038962 
L 423.011005 123.679683 
L 423.270574 121.5083 
L 424.049282 120.422628 
L 424.308852 120.88424 
L 424.568421 122.482878 
L 424.82799 121.713462 
L 425.866268 123.961796 
L 426.385407 125.611708 
L 426.644976 120.944086 
L 426.904545 121.243291 
L 427.683254 121.226186 
L 428.202392 119.174495 
L 428.461962 120.012263 
L 428.721531 121.405712 
L 429.500239 121.140703 
L 429.759809 122.474319 
L 430.019378 122.482878 
L 430.278947 118.507681 
L 430.538517 117.421996 
L 431.317225 117.498946 
L 431.836364 119.328384 
L 432.095933 120.747469 
L 432.355502 114.096548 
L 433.134211 114.156381 
L 433.39378 115.635313 
L 433.653349 114.105081 
L 433.912919 113.942673 
L 434.172488 114.747328 
L 434.951196 115.175379 
L 435.210766 115.175379 
L 435.470335 114.644648 
L 435.729904 112.624339 
L 435.989474 112.530152 
L 436.768182 113.351978 
L 437.027751 115.611988 
L 437.287321 115.372286 
L 437.54689 114.387775 
L 437.806459 112.299035 
L 438.844737 110.698179 
L 439.104306 110.741 
L 439.363876 108.309825 
L 439.623445 107.573588 
L 440.661722 109.063126 
L 440.921292 110.253024 
L 441.180861 107.898879 
L 441.440431 107.565003 
L 442.219139 105.1424 
L 442.478708 105.553293 
L 442.738278 105.005418 
L 442.997847 103.24193 
L 443.257416 104.175034 
L 444.295694 104.097991 
L 444.555263 104.996833 
L 444.814833 102.394441 
L 445.074402 102.668365 
L 445.85311 103.875407 
L 446.112679 101.487013 
L 446.372249 100.46832 
L 446.631818 100.177251 
L 446.891388 96.427703 
L 448.189234 98.6877 
L 448.448804 98.276807 
L 448.708373 99.244134 
L 449.746651 101.469895 
L 450.00622 100.023165 
L 450.265789 99.363998 
L 450.525359 99.235588 
L 451.304067 96.410585 
L 451.563636 96.633156 
L 451.823206 95.46035 
L 452.342344 98.165502 
L 453.121053 97.472112 
L 453.640191 95.974015 
L 453.899761 97.069752 
L 454.15933 94.835445 
L 454.938038 94.304688 
L 455.197608 95.023767 
L 455.457177 97.61764 
L 455.716746 98.824669 
L 455.976316 106.683265 
L 456.755024 109.371286 
L 457.014593 108.558046 
L 457.274163 109.936305 
L 457.533732 110.124641 
L 457.793301 110.073195 
L 458.57201 108.641654 
L 458.831579 110.364659 
L 459.091148 111.119018 
L 459.350718 113.322061 
L 460.388995 111.744781 
L 460.648565 110.553232 
L 460.908134 107.218672 
L 461.167703 111.281874 
L 461.427273 109.370296 
L 462.205981 108.015864 
L 462.72512 101.621089 
L 462.984689 101.432476 
L 463.244258 100.069512 
L 464.282536 99.863795 
L 464.801675 110.27038 
L 465.061244 109.738883 
L 465.839952 108.727388 
L 466.359091 113.14202 
L 466.61866 111.830476 
L 466.87823 112.456266 
L 467.916507 108.975952 
L 468.176077 112.044791 
L 468.435646 113.382053 
L 468.695215 112.644852 
L 469.473923 111.539051 
L 469.733493 115.070743 
L 469.993062 116.382301 
L 470.252632 116.159427 
L 470.512201 115.713677 
L 471.290909 113.536364 
L 471.550478 114.693597 
L 472.069617 112.54196 
L 472.329187 110.330371 
L 473.107895 109.044529 
L 473.367464 109.558882 
L 473.886603 107.570141 
L 474.146172 109.164552 
L 474.92488 109.275989 
L 475.444019 111.744781 
L 475.703589 112.070508 
L 475.963158 114.282123 
L 476.741866 114.179258 
L 477.001435 113.802072 
L 477.261005 115.807971 
L 477.520574 119.416839 
L 477.780144 118.276736 
L 478.818421 116.090837 
L 479.33756 110.261781 
L 479.597129 111.050441 
L 480.375837 108.838812 
L 480.635407 106.618624 
L 480.894976 105.701396 
L 481.154545 106.11287 
L 481.414115 102.482077 
L 482.192823 103.855409 
L 482.452392 101.589389 
L 482.711962 101.100172 
L 482.971531 99.64096 
L 483.2311 99.65813 
L 484.009809 98.147473 
L 484.269378 98.842711 
L 484.528947 98.267627 
L 485.048086 99.417795 
L 485.826794 99.572304 
L 486.086364 99.048719 
L 486.345933 99.932794 
L 486.605502 99.434952 
L 486.865072 98.327711 
L 487.64378 99.881309 
L 487.903349 96.45651 
L 488.162919 97.400683 
L 488.682057 94.490883 
L 489.460766 96.662518 
L 489.720335 95.349243 
L 489.979904 92.559651 
L 490.239474 92.430871 
L 491.277751 94.336414 
L 491.537321 93.435128 
L 491.79689 95.246245 
L 492.056459 95.375012 
L 492.316029 96.302001 
L 493.354306 96.774087 
L 493.613876 96.68826 
L 493.873445 96.319171 
L 494.133014 97.220431 
L 495.95 106.962644 
L 496.728708 103.203097 
L 496.988278 103.563601 
L 497.247847 102.662329 
L 497.507416 103.177342 
L 497.766986 102.894079 
L 498.805263 104.859666 
L 499.064833 105.675125 
L 499.324402 100.567988 
L 499.583971 98.053021 
L 500.362679 96.053079 
L 500.622249 94.945825 
L 500.881818 95.529508 
L 501.141388 95.812744 
L 501.400957 97.314843 
L 502.179665 97.90711 
L 502.698804 104.198782 
L 502.958373 102.087245 
L 503.217943 102.954163 
L 503.996651 101.383395 
L 504.25622 99.992878 
L 504.515789 99.898466 
L 504.775359 100.834054 
L 505.034928 100.172285 
L 505.813636 101.633346 
L 506.073206 103.446775 
L 506.332775 104.211687 
L 506.592344 104.460898 
L 506.851914 105.793021 
L 507.890191 106.437606 
L 508.149761 105.784436 
L 508.40933 104.022585 
L 508.6689 105.612545 
L 509.447608 106.781376 
L 509.707177 105.518014 
L 509.966746 106.55792 
L 510.226316 107.133743 
L 510.485885 108.070532 
L 511.264593 111.989568 
L 511.524163 116.269596 
L 511.783732 117.129025 
L 512.043301 117.232155 
L 512.302871 115.745324 
L 513.341148 113.596738 
L 513.600718 115.401555 
L 513.860287 113.794398 
L 514.119856 114.120997 
L 514.898565 113.175609 
L 515.417703 108.921403 
L 515.677273 115.195296 
L 515.936842 114.413201 
L 516.71555 115.642195 
L 516.97512 116.62195 
L 517.234689 113.527963 
L 517.494258 115.100752 
L 518.532536 116.34693 
L 518.792105 117.369652 
L 519.051675 116.673515 
L 519.311244 117.386862 
L 519.570813 116.733678 
L 520.349522 117.704849 
L 520.609091 116.656345 
L 520.86866 118.280672 
L 521.12823 112.041146 
L 521.387799 110.743404 
L 522.166507 114.060834 
L 522.426077 116.905569 
L 523.204785 120.669924 
L 523.983493 119.947979 
L 524.243062 119.036972 
L 524.502632 117.214971 
L 524.762201 116.467243 
L 525.02177 116.974318 
L 525.800478 113.364684 
L 526.060048 116.089106 
L 526.319617 116.974318 
L 526.579187 113.768629 
L 526.838756 104.873442 
L 527.617464 106.308695 
L 527.877033 105.715674 
L 528.136603 105.42347 
L 528.396172 103.850694 
L 528.655742 104.94367 
L 529.694019 101.174217 
L 529.953589 99.203413 
L 530.472727 99.074356 
L 531.251435 98.067444 
L 531.511005 96.940048 
L 531.770574 98.187929 
L 532.030144 101.647545 
L 532.289713 98.979693 
L 533.32799 98.971041 
L 533.58756 98.712888 
L 534.106699 97.026099 
L 535.144976 95.218838 
L 535.404545 93.910714 
L 535.664115 95.106952 
L 535.923684 93.032886 
L 536.702392 96.277381 
L 536.961962 84.203093 
L 537.221531 79.108306 
L 537.4811 78.101421 
L 537.74067 79.607469 
L 538.519378 76.010131 
L 539.557656 83.910492 
L 540.336364 83.351087 
L 540.595933 82.550724 
L 540.855502 78.9534 
L 541.115072 78.221892 
L 541.374641 81.216805 
L 542.153349 75.94129 
L 542.412919 72.911944 
L 542.672488 71.810383 
L 543.191627 67.688087 
L 543.970335 66.414383 
L 544.229904 65.674277 
L 544.489474 61.973678 
L 544.749043 66.629544 
L 545.008612 64.073565 
L 545.787321 60.751618 
L 546.04689 60.390163 
L 546.566029 69.547004 
L 546.825598 69.435118 
L 547.604306 69.73633 
L 547.863876 68.832693 
L 548.123445 74.400822 
L 548.383014 75.304445 
L 548.642584 74.899958 
L 549.421292 74.658975 
L 549.680861 74.177049 
L 549.940431 71.354265 
L 550.2 74.555701 
L 550.459569 73.264813 
L 551.497847 84.134252 
L 552.016986 78.901783 
L 552.276555 76.380185 
L 553.055263 75.053332 
L 553.314833 71.830935 
L 553.574402 71.443222 
L 553.833971 68.85841 
L 554.093541 67.712482 
L 554.872249 67.850349 
L 555.131818 67.316158 
L 555.391388 67.410926 
L 555.650957 69.022125 
L 555.910526 67.031825 
L 556.689234 66.738881 
L 556.948804 66.006515 
L 557.208373 67.333381 
L 557.467943 64.490098 
L 557.727512 65.170768 
L 559.025359 72.192812 
L 559.284928 70.874557 
L 559.544498 72.21866 
L 560.323206 72.141115 
L 560.582775 72.830397 
L 560.842344 70.63331 
L 561.101914 70.538528 
L 561.361483 70.771177 
L 562.140191 76.095852 
L 562.399761 75.69093 
L 562.65933 72.330652 
L 562.9189 65.282773 
L 563.957177 67.350605 
L 564.216746 66.575179 
L 564.476316 67.436788 
L 564.735885 66.445937 
L 564.995455 66.213315 
L 565.774163 61.72436 
L 566.033732 67.574628 
L 566.293301 67.083522 
L 566.552871 68.039899 
L 566.81244 67.066299 
L 567.591148 71.469057 
L 568.110287 64.70551 
L 568.369856 65.136308 
L 568.629426 66.420076 
L 569.408134 63.189067 
L 569.667703 60.992007 
L 569.927273 62.775519 
L 570.186842 62.456727 
L 570.446411 60.00117 
L 571.22512 58.726013 
L 571.484689 59.260178 
L 571.744258 63.654364 
L 572.003828 63.81804 
L 572.263397 63.094298 
L 573.042105 61.379719 
L 573.301675 61.147084 
L 574.080383 70.417925 
L 574.859091 71.193363 
L 575.11866 69.95264 
L 575.37823 70.581627 
L 575.637799 66.480398 
L 575.897368 66.713284 
L 576.676077 69.06805 
L 576.935646 69.06805 
L 577.195215 68.300391 
L 577.454785 65.626476 
L 577.714354 68.403877 
L 578.493062 65.798988 
L 578.752632 65.574727 
L 579.012201 64.953692 
L 579.27177 65.367702 
L 579.53134 64.203269 
L 580.310048 61.615631 
L 580.569617 59.726638 
L 580.829187 59.838788 
L 581.348325 57.768659 
L 582.127033 55.819318 
L 582.386603 53.179903 
L 582.646172 52.869379 
L 582.905742 52.843517 
L 583.165311 53.016029 
L 584.203589 48.763646 
L 584.463158 49.867704 
L 584.722727 48.599772 
L 584.982297 48.453135 
L 585.761005 45.943121 
L 586.020574 43.838504 
L 586.280144 48.522134 
L 586.539713 47.021303 
L 586.799282 42.96732 
L 587.57799 42.294535 
L 587.83756 39.767245 
L 588.356699 39.06 
L 588.616268 42.018538 
L 589.394976 44.942562 
L 589.654545 46.477893 
L 590.173684 52.144845 
L 590.433254 52.56748 
L 591.211962 51.152911 
L 591.471531 53.559413 
L 591.7311 53.136765 
L 592.250239 58.182669 
L 593.288517 61.261982 
L 593.548086 57.302886 
L 593.807656 65.591976 
L 594.067225 64.108408 
L 595.105502 70.439507 
L 595.365072 69.41306 
L 595.624641 69.559697 
L 595.884211 70.318744 
L 596.662919 64.211894 
L 596.922488 56.966487 
L 597.182057 56.017678 
L 597.701196 58.915841 
L 598.479904 65.807613 
L 598.739474 61.676005 
L 598.999043 61.960641 
L 599.258612 61.313731 
L 599.518182 66.135374 
L 600.29689 65.90225 
L 601.075598 53.916892 
L 601.335167 51.26596 
L 602.373445 51.378216 
L 602.633014 51.032823 
L 602.892584 50.203865 
L 603.152153 50.44564 
L 603.930861 49.107217 
L 604.190431 49.159032 
L 604.45 54.927199 
L 604.709569 57.569493 
L 604.969139 53.649216 
L 605.747847 56.939146 
L 606.007416 58.752483 
L 606.266986 58.916541 
L 606.526555 59.270573 
L 606.786124 56.041096 
L 607.564833 66.049032 
L 608.343541 81.419273 
L 608.60311 78.129343 
L 609.381818 77.688969 
L 609.641388 78.820156 
L 609.900957 76.618236 
L 610.160526 77.602614 
L 610.420096 74.001842 
L 611.198804 71.877639 
L 611.458373 69.26987 
L 611.717943 71.186851 
L 611.977512 69.183529 
L 612.237081 74.321335 
L 613.275359 69.753435 
L 613.534928 69.148989 
L 614.054067 99.811755 
L 614.832775 105.787157 
L 615.092344 113.593172 
L 615.351914 90.770948 
L 615.611483 98.050221 
L 615.871053 91.375406 
L 616.649761 87.601912 
L 616.90933 87.930042 
L 617.1689 94.725764 
L 617.428469 92.385686 
L 618.466746 95.684255 
L 618.985885 85.805825 
L 619.245455 82.55046 
L 619.505024 81.76468 
L 620.283732 81.022064 
L 621.06244 78.276138 
L 621.32201 85.158215 
L 622.100718 90.736408 
L 622.360287 91.064552 
L 622.619856 93.016046 
L 623.138995 91.047263 
L 623.917703 80.222111 
L 624.177273 78.371805 
L 624.955981 79.815735 
L 625.734689 81.960016 
L 625.994258 83.620098 
L 626.253828 87.744388 
L 626.513397 88.375567 
L 626.772967 93.641149 
L 627.811244 89.369878 
L 628.070813 89.188318 
L 628.330383 89.594694 
L 628.589952 88.816522 
L 629.36866 88.081593 
L 629.62823 86.724123 
L 629.887799 87.113196 
L 630.147368 89.006732 
L 630.406938 86.162115 
L 631.185646 88.297744 
L 631.445215 87.2429 
L 631.704785 90.606308 
L 631.964354 90.243162 
L 632.223923 92.620897 
L 633.002632 90.917572 
L 633.262201 93.321247 
L 633.52177 92.508496 
L 634.040909 88.686831 
L 634.819617 88.254514 
L 635.079187 89.292069 
L 635.338756 88.202632 
L 635.598325 88.686831 
L 635.857895 88.617659 
L 636.636603 85.08133 
L 636.896172 82.790057 
L 637.155742 78.79547 
L 637.415311 77.835725 
L 638.453589 80.948402 
L 638.713158 80.89652 
L 639.232297 78.821411 
L 639.491866 79.902196 
L 640.270574 82.098358 
L 640.530144 81.674679 
L 640.789713 80.766816 
L 641.049282 80.887869 
L 641.308852 79.884906 
L 642.08756 78.760891 
L 642.347129 77.100796 
L 642.866268 77.654165 
L 643.125837 77.550402 
L 643.904545 77.403408 
L 644.423684 81.726561 
L 644.683254 83.006208 
L 644.942823 87.493631 
L 645.721531 86.654939 
L 645.9811 87.026749 
L 646.500239 72.232938 
L 646.759809 64.174581 
L 647.538517 65.827914 
L 647.798086 63.689855 
L 648.057656 60.504401 
L 648.317225 60.980489 
L 648.576794 62.010568 
L 649.615072 62.902146 
L 649.874641 66.840677 
L 650.134211 67.801505 
L 650.39378 65.325858 
L 651.172488 65.845217 
L 651.432057 63.984159 
L 651.691627 62.962732 
L 651.951196 61.170925 
L 652.210766 61.53448 
L 653.249043 63.629256 
L 653.508612 56.055163 
L 653.768182 54.921215 
L 653.768182 54.921215 
" clip-path="url(#p531224e596)" style="fill: none; stroke: #1f77b4; stroke-width: 1.5; stroke-linecap: square"/>
   </g>
   <g id="patch_3">
    <path d="M 94.5 224.28 
L 94.5 30.24 
" style="fill: none; stroke: #000000; stroke-width: 0.8; stroke-linejoin: miter; stroke-linecap: square"/>
   </g>
   <g id="patch_4">
    <path d="M 94.5 224.28 
L 680.4 224.28 
" style="fill: none; stroke: #000000; stroke-width: 0.8; stroke-linejoin: miter; stroke-linecap: square"/>
   </g>
  </g>
 </g>
 <defs>
  <clipPath id="p531224e596">
   <rect x="94.5" y="30.24" width="585.9" height="194.04"/>
  </clipPath>
 </defs>
</svg>
