<?xml version="1.0" encoding="utf-8" standalone="no"?>
<!DOCTYPE svg PUBLIC "-//W3C//DTD SVG 1.1//EN"
  "http://www.w3.org/Graphics/SVG/1.1/DTD/svg11.dtd">
<svg xmlns:xlink="http://www.w3.org/1999/xlink" width="468pt" height="252pt" viewBox="0 0 468 252" xmlns="http://www.w3.org/2000/svg" version="1.1">
 <metadata>
  <rdf:RDF xmlns:dc="http://purl.org/dc/elements/1.1/" xmlns:cc="http://creativecommons.org/ns#" xmlns:rdf="http://www.w3.org/1999/02/22-rdf-syntax-ns#">
   <cc:Work>
    <dc:type rdf:resource="http://purl.org/dc/dcmitype/StillImage"/>
    <dc:date>2025-08-30T18:51:04.024073</dc:date>
    <dc:format>image/svg+xml</dc:format>
    <dc:creator>
     <cc:Agent>
      <dc:title>Matplotlib v3.10.5, https://matplotlib.org/</dc:title>
     </cc:Agent>
    </dc:creator>
   </cc:Work>
  </rdf:RDF>
 </metadata>
 <defs>
  <style type="text/css">*{stroke-linejoin: round; stroke-linecap: butt}</style>
 </defs>
 <g id="figure_1">
  <g id="patch_1">
   <path d="M 0 252 
L 468 252 
L 468 0 
L 0 0 
z
" style="fill: #ffffff"/>
  </g>
  <g id="axes_1">
   <g id="patch_2">
    <path d="M 58.5 224.28 
L 421.2 224.28 
L 421.2 30.24 
L 58.5 30.24 
z
" style="fill: #ffffff"/>
   </g>
   <g id="matplotlib.axis_1">
    <g id="xtick_1">
     <g id="line2d_1">
      <defs>
       <path id="ma66c246771" d="M 0 0 
L 0 3.5 
" style="stroke: #000000; stroke-width: 0.8"/>
      </defs>
      <g>
       <use xlink:href="#ma66c246771" x="79.76502" y="224.28" style="stroke: #000000; stroke-width: 0.8"/>
      </g>
     </g>
     <g id="text_1">
      <!-- 2024-03 -->
      <g transform="translate(58.873614 238.878438) scale(0.1 -0.1)">
       <defs>
        <path id="DejaVuSans-32" d="M 1228 531 
L 3431 531 
L 3431 0 
L 469 0 
L 469 531 
Q 828 903 1448 1529 
Q 2069 2156 2228 2338 
Q 2531 2678 2651 2914 
Q 2772 3150 2772 3378 
Q 2772 3750 2511 3984 
Q 2250 4219 1831 4219 
Q 1534 4219 1204 4116 
Q 875 4013 500 3803 
L 500 4441 
Q 881 4594 1212 4672 
Q 1544 4750 1819 4750 
Q 2544 4750 2975 4387 
Q 3406 4025 3406 3419 
Q 3406 3131 3298 2873 
Q 3191 2616 2906 2266 
Q 2828 2175 2409 1742 
Q 1991 1309 1228 531 
z
" transform="scale(0.015625)"/>
        <path id="DejaVuSans-30" d="M 2034 4250 
Q 1547 4250 1301 3770 
Q 1056 3291 1056 2328 
Q 1056 1369 1301 889 
Q 1547 409 2034 409 
Q 2525 409 2770 889 
Q 3016 1369 3016 2328 
Q 3016 3291 2770 3770 
Q 2525 4250 2034 4250 
z
M 2034 4750 
Q 2819 4750 3233 4129 
Q 3647 3509 3647 2328 
Q 3647 1150 3233 529 
Q 2819 -91 2034 -91 
Q 1250 -91 836 529 
Q 422 1150 422 2328 
Q 422 3509 836 4129 
Q 1250 4750 2034 4750 
z
" transform="scale(0.015625)"/>
        <path id="DejaVuSans-34" d="M 2419 4116 
L 825 1625 
L 2419 1625 
L 2419 4116 
z
M 2253 4666 
L 3047 4666 
L 3047 1625 
L 3713 1625 
L 3713 1100 
L 3047 1100 
L 3047 0 
L 2419 0 
L 2419 1100 
L 313 1100 
L 313 1709 
L 2253 4666 
z
" transform="scale(0.015625)"/>
        <path id="DejaVuSans-2d" d="M 313 2009 
L 1997 2009 
L 1997 1497 
L 313 1497 
L 313 2009 
z
" transform="scale(0.015625)"/>
        <path id="DejaVuSans-33" d="M 2597 2516 
Q 3050 2419 3304 2112 
Q 3559 1806 3559 1356 
Q 3559 666 3084 287 
Q 2609 -91 1734 -91 
Q 1441 -91 1130 -33 
Q 819 25 488 141 
L 488 750 
Q 750 597 1062 519 
Q 1375 441 1716 441 
Q 2309 441 2620 675 
Q 2931 909 2931 1356 
Q 2931 1769 2642 2001 
Q 2353 2234 1838 2234 
L 1294 2234 
L 1294 2753 
L 1863 2753 
Q 2328 2753 2575 2939 
Q 2822 3125 2822 3475 
Q 2822 3834 2567 4026 
Q 2313 4219 1838 4219 
Q 1578 4219 1281 4162 
Q 984 4106 628 3988 
L 628 4550 
Q 988 4650 1302 4700 
Q 1616 4750 1894 4750 
Q 2613 4750 3031 4423 
Q 3450 4097 3450 3541 
Q 3450 3153 3228 2886 
Q 3006 2619 2597 2516 
z
" transform="scale(0.015625)"/>
       </defs>
       <use xlink:href="#DejaVuSans-32"/>
       <use xlink:href="#DejaVuSans-30" transform="translate(63.623047 0)"/>
       <use xlink:href="#DejaVuSans-32" transform="translate(127.246094 0)"/>
       <use xlink:href="#DejaVuSans-34" transform="translate(190.869141 0)"/>
       <use xlink:href="#DejaVuSans-2d" transform="translate(254.492188 0)"/>
       <use xlink:href="#DejaVuSans-30" transform="translate(290.576172 0)"/>
       <use xlink:href="#DejaVuSans-33" transform="translate(354.199219 0)"/>
      </g>
     </g>
    </g>
    <g id="xtick_2">
     <g id="line2d_2">
      <g>
       <use xlink:href="#ma66c246771" x="116.202273" y="224.28" style="stroke: #000000; stroke-width: 0.8"/>
      </g>
     </g>
     <g id="text_2">
      <!-- 2024-05 -->
      <g transform="translate(95.310866 238.878438) scale(0.1 -0.1)">
       <defs>
        <path id="DejaVuSans-35" d="M 691 4666 
L 3169 4666 
L 3169 4134 
L 1269 4134 
L 1269 2991 
Q 1406 3038 1543 3061 
Q 1681 3084 1819 3084 
Q 2600 3084 3056 2656 
Q 3513 2228 3513 1497 
Q 3513 744 3044 326 
Q 2575 -91 1722 -91 
Q 1428 -91 1123 -41 
Q 819 9 494 109 
L 494 744 
Q 775 591 1075 516 
Q 1375 441 1709 441 
Q 2250 441 2565 725 
Q 2881 1009 2881 1497 
Q 2881 1984 2565 2268 
Q 2250 2553 1709 2553 
Q 1456 2553 1204 2497 
Q 953 2441 691 2322 
L 691 4666 
z
" transform="scale(0.015625)"/>
       </defs>
       <use xlink:href="#DejaVuSans-32"/>
       <use xlink:href="#DejaVuSans-30" transform="translate(63.623047 0)"/>
       <use xlink:href="#DejaVuSans-32" transform="translate(127.246094 0)"/>
       <use xlink:href="#DejaVuSans-34" transform="translate(190.869141 0)"/>
       <use xlink:href="#DejaVuSans-2d" transform="translate(254.492188 0)"/>
       <use xlink:href="#DejaVuSans-30" transform="translate(290.576172 0)"/>
       <use xlink:href="#DejaVuSans-35" transform="translate(354.199219 0)"/>
      </g>
     </g>
    </g>
    <g id="xtick_3">
     <g id="line2d_3">
      <g>
       <use xlink:href="#ma66c246771" x="152.639526" y="224.28" style="stroke: #000000; stroke-width: 0.8"/>
      </g>
     </g>
     <g id="text_3">
      <!-- 2024-07 -->
      <g transform="translate(131.748119 238.878438) scale(0.1 -0.1)">
       <defs>
        <path id="DejaVuSans-37" d="M 525 4666 
L 3525 4666 
L 3525 4397 
L 1831 0 
L 1172 0 
L 2766 4134 
L 525 4134 
L 525 4666 
z
" transform="scale(0.015625)"/>
       </defs>
       <use xlink:href="#DejaVuSans-32"/>
       <use xlink:href="#DejaVuSans-30" transform="translate(63.623047 0)"/>
       <use xlink:href="#DejaVuSans-32" transform="translate(127.246094 0)"/>
       <use xlink:href="#DejaVuSans-34" transform="translate(190.869141 0)"/>
       <use xlink:href="#DejaVuSans-2d" transform="translate(254.492188 0)"/>
       <use xlink:href="#DejaVuSans-30" transform="translate(290.576172 0)"/>
       <use xlink:href="#DejaVuSans-37" transform="translate(354.199219 0)"/>
      </g>
     </g>
    </g>
    <g id="xtick_4">
     <g id="line2d_4">
      <g>
       <use xlink:href="#ma66c246771" x="189.674111" y="224.28" style="stroke: #000000; stroke-width: 0.8"/>
      </g>
     </g>
     <g id="text_4">
      <!-- 2024-09 -->
      <g transform="translate(168.782704 238.878438) scale(0.1 -0.1)">
       <defs>
        <path id="DejaVuSans-39" d="M 703 97 
L 703 672 
Q 941 559 1184 500 
Q 1428 441 1663 441 
Q 2288 441 2617 861 
Q 2947 1281 2994 2138 
Q 2813 1869 2534 1725 
Q 2256 1581 1919 1581 
Q 1219 1581 811 2004 
Q 403 2428 403 3163 
Q 403 3881 828 4315 
Q 1253 4750 1959 4750 
Q 2769 4750 3195 4129 
Q 3622 3509 3622 2328 
Q 3622 1225 3098 567 
Q 2575 -91 1691 -91 
Q 1453 -91 1209 -44 
Q 966 3 703 97 
z
M 1959 2075 
Q 2384 2075 2632 2365 
Q 2881 2656 2881 3163 
Q 2881 3666 2632 3958 
Q 2384 4250 1959 4250 
Q 1534 4250 1286 3958 
Q 1038 3666 1038 3163 
Q 1038 2656 1286 2365 
Q 1534 2075 1959 2075 
z
" transform="scale(0.015625)"/>
       </defs>
       <use xlink:href="#DejaVuSans-32"/>
       <use xlink:href="#DejaVuSans-30" transform="translate(63.623047 0)"/>
       <use xlink:href="#DejaVuSans-32" transform="translate(127.246094 0)"/>
       <use xlink:href="#DejaVuSans-34" transform="translate(190.869141 0)"/>
       <use xlink:href="#DejaVuSans-2d" transform="translate(254.492188 0)"/>
       <use xlink:href="#DejaVuSans-30" transform="translate(290.576172 0)"/>
       <use xlink:href="#DejaVuSans-39" transform="translate(354.199219 0)"/>
      </g>
     </g>
    </g>
    <g id="xtick_5">
     <g id="line2d_5">
      <g>
       <use xlink:href="#ma66c246771" x="226.111364" y="224.28" style="stroke: #000000; stroke-width: 0.8"/>
      </g>
     </g>
     <g id="text_5">
      <!-- 2024-11 -->
      <g transform="translate(205.219957 238.878438) scale(0.1 -0.1)">
       <defs>
        <path id="DejaVuSans-31" d="M 794 531 
L 1825 531 
L 1825 4091 
L 703 3866 
L 703 4441 
L 1819 4666 
L 2450 4666 
L 2450 531 
L 3481 531 
L 3481 0 
L 794 0 
L 794 531 
z
" transform="scale(0.015625)"/>
       </defs>
       <use xlink:href="#DejaVuSans-32"/>
       <use xlink:href="#DejaVuSans-30" transform="translate(63.623047 0)"/>
       <use xlink:href="#DejaVuSans-32" transform="translate(127.246094 0)"/>
       <use xlink:href="#DejaVuSans-34" transform="translate(190.869141 0)"/>
       <use xlink:href="#DejaVuSans-2d" transform="translate(254.492188 0)"/>
       <use xlink:href="#DejaVuSans-31" transform="translate(290.576172 0)"/>
       <use xlink:href="#DejaVuSans-31" transform="translate(354.199219 0)"/>
      </g>
     </g>
    </g>
    <g id="xtick_6">
     <g id="line2d_6">
      <g>
       <use xlink:href="#ma66c246771" x="262.548617" y="224.28" style="stroke: #000000; stroke-width: 0.8"/>
      </g>
     </g>
     <g id="text_6">
      <!-- 2025-01 -->
      <g transform="translate(241.65721 238.878438) scale(0.1 -0.1)">
       <use xlink:href="#DejaVuSans-32"/>
       <use xlink:href="#DejaVuSans-30" transform="translate(63.623047 0)"/>
       <use xlink:href="#DejaVuSans-32" transform="translate(127.246094 0)"/>
       <use xlink:href="#DejaVuSans-35" transform="translate(190.869141 0)"/>
       <use xlink:href="#DejaVuSans-2d" transform="translate(254.492188 0)"/>
       <use xlink:href="#DejaVuSans-30" transform="translate(290.576172 0)"/>
       <use xlink:href="#DejaVuSans-31" transform="translate(354.199219 0)"/>
      </g>
     </g>
    </g>
    <g id="xtick_7">
     <g id="line2d_7">
      <g>
       <use xlink:href="#ma66c246771" x="297.791206" y="224.28" style="stroke: #000000; stroke-width: 0.8"/>
      </g>
     </g>
     <g id="text_7">
      <!-- 2025-03 -->
      <g transform="translate(276.899799 238.878438) scale(0.1 -0.1)">
       <use xlink:href="#DejaVuSans-32"/>
       <use xlink:href="#DejaVuSans-30" transform="translate(63.623047 0)"/>
       <use xlink:href="#DejaVuSans-32" transform="translate(127.246094 0)"/>
       <use xlink:href="#DejaVuSans-35" transform="translate(190.869141 0)"/>
       <use xlink:href="#DejaVuSans-2d" transform="translate(254.492188 0)"/>
       <use xlink:href="#DejaVuSans-30" transform="translate(290.576172 0)"/>
       <use xlink:href="#DejaVuSans-33" transform="translate(354.199219 0)"/>
      </g>
     </g>
    </g>
    <g id="xtick_8">
     <g id="line2d_8">
      <g>
       <use xlink:href="#ma66c246771" x="334.228458" y="224.28" style="stroke: #000000; stroke-width: 0.8"/>
      </g>
     </g>
     <g id="text_8">
      <!-- 2025-05 -->
      <g transform="translate(313.337052 238.878438) scale(0.1 -0.1)">
       <use xlink:href="#DejaVuSans-32"/>
       <use xlink:href="#DejaVuSans-30" transform="translate(63.623047 0)"/>
       <use xlink:href="#DejaVuSans-32" transform="translate(127.246094 0)"/>
       <use xlink:href="#DejaVuSans-35" transform="translate(190.869141 0)"/>
       <use xlink:href="#DejaVuSans-2d" transform="translate(254.492188 0)"/>
       <use xlink:href="#DejaVuSans-30" transform="translate(290.576172 0)"/>
       <use xlink:href="#DejaVuSans-35" transform="translate(354.199219 0)"/>
      </g>
     </g>
    </g>
    <g id="xtick_9">
     <g id="line2d_9">
      <g>
       <use xlink:href="#ma66c246771" x="370.665711" y="224.28" style="stroke: #000000; stroke-width: 0.8"/>
      </g>
     </g>
     <g id="text_9">
      <!-- 2025-07 -->
      <g transform="translate(349.774305 238.878438) scale(0.1 -0.1)">
       <use xlink:href="#DejaVuSans-32"/>
       <use xlink:href="#DejaVuSans-30" transform="translate(63.623047 0)"/>
       <use xlink:href="#DejaVuSans-32" transform="translate(127.246094 0)"/>
       <use xlink:href="#DejaVuSans-35" transform="translate(190.869141 0)"/>
       <use xlink:href="#DejaVuSans-2d" transform="translate(254.492188 0)"/>
       <use xlink:href="#DejaVuSans-30" transform="translate(290.576172 0)"/>
       <use xlink:href="#DejaVuSans-37" transform="translate(354.199219 0)"/>
      </g>
     </g>
    </g>
    <g id="xtick_10">
     <g id="line2d_10">
      <g>
       <use xlink:href="#ma66c246771" x="407.700296" y="224.28" style="stroke: #000000; stroke-width: 0.8"/>
      </g>
     </g>
     <g id="text_10">
      <!-- 2025-09 -->
      <g transform="translate(386.80889 238.878438) scale(0.1 -0.1)">
       <use xlink:href="#DejaVuSans-32"/>
       <use xlink:href="#DejaVuSans-30" transform="translate(63.623047 0)"/>
       <use xlink:href="#DejaVuSans-32" transform="translate(127.246094 0)"/>
       <use xlink:href="#DejaVuSans-35" transform="translate(190.869141 0)"/>
       <use xlink:href="#DejaVuSans-2d" transform="translate(254.492188 0)"/>
       <use xlink:href="#DejaVuSans-30" transform="translate(290.576172 0)"/>
       <use xlink:href="#DejaVuSans-39" transform="translate(354.199219 0)"/>
      </g>
     </g>
    </g>
   </g>
   <g id="matplotlib.axis_2">
    <g id="ytick_1">
     <g id="line2d_11">
      <defs>
       <path id="m6fc45ddbfc" d="M 0 0 
L -3.5 0 
" style="stroke: #000000; stroke-width: 0.8"/>
      </defs>
      <g>
       <use xlink:href="#m6fc45ddbfc" x="58.5" y="222.613929" style="stroke: #000000; stroke-width: 0.8"/>
      </g>
     </g>
     <g id="text_11">
      <!-- 160 -->
      <g transform="translate(32.4125 226.413148) scale(0.1 -0.1)">
       <defs>
        <path id="DejaVuSans-36" d="M 2113 2584 
Q 1688 2584 1439 2293 
Q 1191 2003 1191 1497 
Q 1191 994 1439 701 
Q 1688 409 2113 409 
Q 2538 409 2786 701 
Q 3034 994 3034 1497 
Q 3034 2003 2786 2293 
Q 2538 2584 2113 2584 
z
M 3366 4563 
L 3366 3988 
Q 3128 4100 2886 4159 
Q 2644 4219 2406 4219 
Q 1781 4219 1451 3797 
Q 1122 3375 1075 2522 
Q 1259 2794 1537 2939 
Q 1816 3084 2150 3084 
Q 2853 3084 3261 2657 
Q 3669 2231 3669 1497 
Q 3669 778 3244 343 
Q 2819 -91 2113 -91 
Q 1303 -91 875 529 
Q 447 1150 447 2328 
Q 447 3434 972 4092 
Q 1497 4750 2381 4750 
Q 2619 4750 2861 4703 
Q 3103 4656 3366 4563 
z
" transform="scale(0.015625)"/>
       </defs>
       <use xlink:href="#DejaVuSans-31"/>
       <use xlink:href="#DejaVuSans-36" transform="translate(63.623047 0)"/>
       <use xlink:href="#DejaVuSans-30" transform="translate(127.246094 0)"/>
      </g>
     </g>
    </g>
    <g id="ytick_2">
     <g id="line2d_12">
      <g>
       <use xlink:href="#m6fc45ddbfc" x="58.5" y="185.193552" style="stroke: #000000; stroke-width: 0.8"/>
      </g>
     </g>
     <g id="text_12">
      <!-- 180 -->
      <g transform="translate(32.4125 188.992771) scale(0.1 -0.1)">
       <defs>
        <path id="DejaVuSans-38" d="M 2034 2216 
Q 1584 2216 1326 1975 
Q 1069 1734 1069 1313 
Q 1069 891 1326 650 
Q 1584 409 2034 409 
Q 2484 409 2743 651 
Q 3003 894 3003 1313 
Q 3003 1734 2745 1975 
Q 2488 2216 2034 2216 
z
M 1403 2484 
Q 997 2584 770 2862 
Q 544 3141 544 3541 
Q 544 4100 942 4425 
Q 1341 4750 2034 4750 
Q 2731 4750 3128 4425 
Q 3525 4100 3525 3541 
Q 3525 3141 3298 2862 
Q 3072 2584 2669 2484 
Q 3125 2378 3379 2068 
Q 3634 1759 3634 1313 
Q 3634 634 3220 271 
Q 2806 -91 2034 -91 
Q 1263 -91 848 271 
Q 434 634 434 1313 
Q 434 1759 690 2068 
Q 947 2378 1403 2484 
z
M 1172 3481 
Q 1172 3119 1398 2916 
Q 1625 2713 2034 2713 
Q 2441 2713 2670 2916 
Q 2900 3119 2900 3481 
Q 2900 3844 2670 4047 
Q 2441 4250 2034 4250 
Q 1625 4250 1398 4047 
Q 1172 3844 1172 3481 
z
" transform="scale(0.015625)"/>
       </defs>
       <use xlink:href="#DejaVuSans-31"/>
       <use xlink:href="#DejaVuSans-38" transform="translate(63.623047 0)"/>
       <use xlink:href="#DejaVuSans-30" transform="translate(127.246094 0)"/>
      </g>
     </g>
    </g>
    <g id="ytick_3">
     <g id="line2d_13">
      <g>
       <use xlink:href="#m6fc45ddbfc" x="58.5" y="147.773174" style="stroke: #000000; stroke-width: 0.8"/>
      </g>
     </g>
     <g id="text_13">
      <!-- 200 -->
      <g transform="translate(32.4125 151.572393) scale(0.1 -0.1)">
       <use xlink:href="#DejaVuSans-32"/>
       <use xlink:href="#DejaVuSans-30" transform="translate(63.623047 0)"/>
       <use xlink:href="#DejaVuSans-30" transform="translate(127.246094 0)"/>
      </g>
     </g>
    </g>
    <g id="ytick_4">
     <g id="line2d_14">
      <g>
       <use xlink:href="#m6fc45ddbfc" x="58.5" y="110.352797" style="stroke: #000000; stroke-width: 0.8"/>
      </g>
     </g>
     <g id="text_14">
      <!-- 220 -->
      <g transform="translate(32.4125 114.152015) scale(0.1 -0.1)">
       <use xlink:href="#DejaVuSans-32"/>
       <use xlink:href="#DejaVuSans-32" transform="translate(63.623047 0)"/>
       <use xlink:href="#DejaVuSans-30" transform="translate(127.246094 0)"/>
      </g>
     </g>
    </g>
    <g id="ytick_5">
     <g id="line2d_15">
      <g>
       <use xlink:href="#m6fc45ddbfc" x="58.5" y="72.932419" style="stroke: #000000; stroke-width: 0.8"/>
      </g>
     </g>
     <g id="text_15">
      <!-- 240 -->
      <g transform="translate(32.4125 76.731638) scale(0.1 -0.1)">
       <use xlink:href="#DejaVuSans-32"/>
       <use xlink:href="#DejaVuSans-34" transform="translate(63.623047 0)"/>
       <use xlink:href="#DejaVuSans-30" transform="translate(127.246094 0)"/>
      </g>
     </g>
    </g>
    <g id="ytick_6">
     <g id="line2d_16">
      <g>
       <use xlink:href="#m6fc45ddbfc" x="58.5" y="35.512042" style="stroke: #000000; stroke-width: 0.8"/>
      </g>
     </g>
     <g id="text_16">
      <!-- 260 -->
      <g transform="translate(32.4125 39.31126) scale(0.1 -0.1)">
       <use xlink:href="#DejaVuSans-32"/>
       <use xlink:href="#DejaVuSans-36" transform="translate(63.623047 0)"/>
       <use xlink:href="#DejaVuSans-30" transform="translate(127.246094 0)"/>
      </g>
     </g>
    </g>
   </g>
   <g id="line2d_17">
    <path d="M 74.986364 179.476718 
L 75.583696 182.913419 
L 77.375692 185.439877 
L 77.973024 182.709062 
L 78.570356 184.956877 
L 79.167688 186.201548 
L 79.76502 188.226392 
L 81.557016 196.697394 
L 82.154348 205.948654 
L 82.75168 207.806369 
L 83.349012 208.029283 
L 83.946344 204.815468 
L 85.73834 201.062953 
L 86.335672 200.171267 
L 86.933004 204.072382 
L 87.530336 200.598538 
L 88.127668 201.304481 
L 89.919664 199.261024 
L 91.114328 190.065549 
L 91.71166 203.626611 
L 92.308992 201.936082 
L 94.100988 204.592525 
L 94.69832 206.710297 
L 95.295652 200.022667 
L 95.892984 203.422254 
L 98.282312 206.11584 
L 98.879644 208.326541 
L 99.476976 206.821812 
L 100.074308 208.363626 
L 100.67164 206.951769 
L 102.463636 209.050955 
L 103.060968 206.784612 
L 103.6583 210.295627 
L 104.255632 196.808909 
L 104.852964 194.003808 
L 106.64496 201.17441 
L 107.242292 207.32334 
L 107.839625 209.88697 
L 108.436957 211.670342 
L 109.034289 215.46 
L 110.826285 213.899542 
L 111.423617 211.930399 
L 112.020949 207.992084 
L 112.618281 206.375926 
L 113.215613 207.471969 
L 115.007609 199.669681 
L 115.604941 205.558554 
L 116.202273 207.471969 
L 116.799605 200.54281 
L 117.396937 181.315818 
L 119.188933 184.418148 
L 119.786265 183.13639 
L 120.383597 182.504733 
L 120.980929 179.105203 
L 121.578261 181.467616 
L 123.967589 173.320022 
L 124.564921 169.060097 
L 125.162253 168.836925 
L 125.759585 168.781111 
L 127.551581 166.604641 
L 128.148913 164.167772 
L 128.746245 166.865098 
L 129.343577 174.343093 
L 129.940909 168.576497 
L 132.330237 168.557883 
L 132.927569 167.999826 
L 134.122233 164.353829 
L 135.914229 161.042688 
L 136.511561 160.447374 
L 137.108893 157.619919 
L 137.706225 160.205589 
L 138.303557 155.722521 
L 140.095553 162.735444 
L 140.692885 136.636878 
L 141.290217 125.624486 
L 141.887549 123.448016 
L 142.484881 126.703399 
L 144.276877 118.927776 
L 146.666206 136.004392 
L 148.458202 134.795265 
L 149.055534 133.065252 
L 149.652866 125.289657 
L 150.250198 123.708473 
L 150.84753 130.182011 
L 152.639526 118.778977 
L 153.236858 112.231067 
L 153.83419 109.849983 
L 155.028854 100.939661 
L 156.82085 98.186578 
L 157.418182 96.586807 
L 158.015514 88.587985 
L 158.612846 98.651591 
L 159.210178 93.126838 
L 161.002174 85.946472 
L 161.599506 85.165187 
L 162.196838 96.21475 
L 162.79417 104.957715 
L 163.391502 104.715901 
L 165.183498 105.366944 
L 165.78083 103.413731 
L 166.378162 115.44925 
L 166.975494 117.402406 
L 167.572826 116.528107 
L 169.364822 116.00725 
L 169.962154 114.965537 
L 170.559486 108.864112 
L 171.156818 115.78405 
L 171.75415 112.993767 
L 173.546146 132.693252 
L 174.143478 136.488049 
L 174.74081 131.670124 
L 175.935474 119.727619 
L 177.72747 116.859623 
L 178.324802 109.894435 
L 178.922134 109.056365 
L 179.519466 103.469317 
L 180.116798 100.992392 
L 181.908794 101.290392 
L 182.506126 100.135708 
L 183.103458 100.340579 
L 183.700791 103.823187 
L 184.298123 99.521152 
L 186.090119 98.887981 
L 186.687451 97.304941 
L 187.284783 100.172993 
L 187.882115 94.027203 
L 188.479447 95.498472 
L 190.868775 107.100896 
L 191.466107 110.676633 
L 192.063439 107.827224 
L 192.660771 110.732505 
L 194.452767 110.564862 
L 195.050099 112.054803 
L 195.647431 107.305768 
L 196.244763 107.100896 
L 196.842095 107.603767 
L 198.634091 119.113091 
L 199.231423 118.237821 
L 199.828755 110.974604 
L 200.426087 95.740572 
L 201.023419 96.988356 
L 202.815415 100.210222 
L 203.412747 98.53411 
L 204.010079 100.39645 
L 204.607411 98.254754 
L 205.204743 97.75194 
L 206.996739 88.049056 
L 207.594071 100.69445 
L 208.191403 99.632894 
L 208.788735 101.700105 
L 209.386067 99.595637 
L 211.178063 109.112236 
L 212.372727 94.492788 
L 212.970059 95.424015 
L 213.567391 98.198854 
L 215.359387 91.215051 
L 215.956719 86.466044 
L 216.554051 90.321138 
L 217.151383 89.632068 
L 217.748715 84.324376 
L 219.540711 81.568067 
L 220.138043 82.722722 
L 220.735375 92.220735 
L 221.332708 92.574577 
L 221.93004 91.01018 
L 223.722036 87.304143 
L 224.319368 86.801301 
L 226.111364 106.840154 
L 227.90336 108.516323 
L 228.500692 105.834499 
L 229.098024 107.194025 
L 229.695356 98.329239 
L 230.292688 98.832624 
L 232.084684 103.922425 
L 232.682016 103.922425 
L 233.279348 102.26313 
L 233.87668 96.483487 
L 234.474012 102.486872 
L 236.266008 96.856371 
L 236.86334 96.37163 
L 237.460672 95.029262 
L 238.058004 95.924174 
L 238.655336 93.407223 
L 240.447332 87.814037 
L 241.044664 83.731004 
L 241.641996 83.97336 
L 242.83666 79.4988 
L 244.628656 75.285268 
L 245.225988 69.580196 
L 245.82332 68.909026 
L 246.420652 68.853069 
L 247.017984 69.225954 
L 248.80998 61.936158 
L 249.407312 60.034448 
L 250.004644 62.420899 
L 250.601976 59.680178 
L 251.199308 59.363278 
L 252.991304 53.937878 
L 253.588636 49.388746 
L 254.185968 59.512421 
L 254.7833 56.268372 
L 255.380632 47.505679 
L 257.172628 46.051426 
L 257.76996 40.588768 
L 258.964625 39.06 
L 259.561957 45.454856 
L 261.353953 51.775169 
L 261.951285 55.093789 
L 263.145949 67.342887 
L 263.743281 68.256471 
L 265.535277 65.19885 
L 266.132609 70.400508 
L 266.729941 69.486982 
L 267.924605 80.393712 
L 269.716601 84.961487 
L 270.313933 87.049624 
L 270.911265 78.492031 
L 271.508597 96.408887 
L 272.105929 93.202152 
L 274.495257 106.886832 
L 275.092589 104.668224 
L 275.689921 104.985123 
L 276.287253 106.625833 
L 278.079249 93.425866 
L 278.676581 77.764933 
L 279.273913 75.714052 
L 280.468577 81.978437 
L 282.260573 96.875014 
L 282.857905 87.944508 
L 283.455237 88.559778 
L 284.052569 87.161481 
L 284.649901 97.58347 
L 286.441897 97.079571 
L 287.636561 79.870886 
L 288.233893 71.173229 
L 288.831225 65.443205 
L 291.220553 65.685847 
L 291.817885 64.939278 
L 292.415217 63.147455 
L 293.012549 63.670082 
L 294.804545 60.777077 
L 295.401877 60.889077 
L 295.999209 73.35695 
L 296.596542 79.068302 
L 297.193874 70.594616 
L 298.98587 77.705807 
L 299.583202 81.625337 
L 300.180534 81.97995 
L 300.777866 82.74519 
L 301.375198 75.764671 
L 303.167194 97.396842 
L 303.764526 109.790086 
L 304.361858 116.994577 
L 304.95919 130.619675 
L 305.556522 123.508484 
L 307.348518 122.556587 
L 307.94585 125.001622 
L 308.543182 120.242195 
L 309.140514 122.36993 
L 309.737846 114.586828 
L 311.529842 109.995386 
L 312.127174 104.35869 
L 312.724506 108.502219 
L 313.321838 104.172034 
L 313.91917 115.27744 
L 315.711166 107.382337 
L 316.308498 105.403887 
L 316.90583 104.097377 
L 317.503162 142.732934 
L 318.100494 170.375029 
L 319.89249 183.290872 
L 320.489822 200.163616 
L 321.087154 150.833308 
L 321.684486 166.567498 
L 322.281818 152.139846 
L 324.073814 143.98343 
L 324.671146 144.692714 
L 325.268478 159.381651 
L 325.86581 154.323567 
L 328.255138 161.453401 
L 328.85247 149.172156 
L 329.449802 140.101215 
L 330.047134 133.064709 
L 330.644466 131.366243 
L 332.436462 129.761077 
L 333.033794 127.763955 
L 333.631126 125.356263 
L 334.228458 123.825754 
L 334.825791 138.701376 
L 336.617787 150.758651 
L 337.215119 151.467905 
L 337.812451 155.686092 
L 339.007115 151.430563 
L 340.799111 128.031978 
L 341.396443 124.032538 
L 341.993775 125.153876 
L 342.591107 126.798498 
L 343.188439 127.153596 
L 344.980435 131.788462 
L 345.577767 135.376732 
L 346.175099 144.291394 
L 346.772431 145.655688 
L 347.369763 157.037253 
L 349.759091 147.804893 
L 350.356423 147.412452 
L 350.953755 148.290833 
L 351.551087 146.608812 
L 353.343083 145.020262 
L 353.940415 142.086089 
L 354.537747 142.927071 
L 355.135079 147.019953 
L 355.732411 140.871308 
L 357.524407 145.487474 
L 358.121739 143.207427 
L 358.719071 150.477438 
L 359.316403 149.692499 
L 359.913735 154.831977 
L 361.705731 151.150235 
L 362.303063 156.345784 
L 362.900395 154.589021 
L 364.095059 146.328485 
L 365.887055 145.394032 
L 366.484387 147.636708 
L 367.081719 145.281889 
L 367.679051 146.328485 
L 368.276383 146.178971 
L 370.068379 138.53519 
L 370.665711 133.582597 
L 371.263043 124.948291 
L 371.860375 122.8738 
L 374.249704 129.601857 
L 374.847036 129.489715 
L 376.0417 125.004362 
L 376.639032 127.340481 
L 378.431028 132.087489 
L 379.02836 131.171707 
L 379.625692 129.209359 
L 380.223024 129.471015 
L 380.820356 127.30311 
L 382.612352 124.873549 
L 383.209684 121.28525 
L 383.807016 121.752491 
L 384.404348 122.481359 
L 385.00168 122.257074 
L 386.793676 121.939347 
L 387.391008 127.134896 
L 387.98834 131.28385 
L 388.585672 134.049809 
L 389.183004 143.749382 
L 390.975 141.936547 
L 391.572332 142.740215 
L 392.169664 123.434484 
L 392.766996 110.763367 
L 393.364328 93.345213 
L 395.156324 96.918895 
L 395.753656 92.297476 
L 396.350988 85.412112 
L 396.94832 86.441178 
L 397.545652 88.667695 
L 399.337648 89.977402 
L 399.93498 90.594842 
L 400.532312 99.107984 
L 401.129644 101.184816 
L 401.726976 95.8337 
L 403.518972 96.956295 
L 404.116304 92.933616 
L 404.713636 90.725798 
L 404.713636 90.725798 
" clip-path="url(#p3856bbc411)" style="fill: none; stroke: #1f77b4; stroke-width: 1.5; stroke-linecap: square"/>
   </g>
   <g id="patch_3">
    <path d="M 58.5 224.28 
L 58.5 30.24 
" style="fill: none; stroke: #000000; stroke-width: 0.8; stroke-linejoin: miter; stroke-linecap: square"/>
   </g>
   <g id="patch_4">
    <path d="M 58.5 224.28 
L 421.2 224.28 
" style="fill: none; stroke: #000000; stroke-width: 0.8; stroke-linejoin: miter; stroke-linecap: square"/>
   </g>
  </g>
 </g>
 <defs>
  <clipPath id="p3856bbc411">
   <rect x="58.5" y="30.24" width="362.7" height="194.04"/>
  </clipPath>
 </defs>
</svg>
