<?xml version="1.0" encoding="utf-8" standalone="no"?>
<!DOCTYPE svg PUBLIC "-//W3C//DTD SVG 1.1//EN"
  "http://www.w3.org/Graphics/SVG/1.1/DTD/svg11.dtd">
<svg xmlns:xlink="http://www.w3.org/1999/xlink" width="756pt" height="252pt" viewBox="0 0 756 252" xmlns="http://www.w3.org/2000/svg" version="1.1">
 <metadata>
  <rdf:RDF xmlns:dc="http://purl.org/dc/elements/1.1/" xmlns:cc="http://creativecommons.org/ns#" xmlns:rdf="http://www.w3.org/1999/02/22-rdf-syntax-ns#">
   <cc:Work>
    <dc:type rdf:resource="http://purl.org/dc/dcmitype/StillImage"/>
    <dc:date>2025-09-05T15:24:33.286540</dc:date>
    <dc:format>image/svg+xml</dc:format>
    <dc:creator>
     <cc:Agent>
      <dc:title>Matplotlib v3.10.5, https://matplotlib.org/</dc:title>
     </cc:Agent>
    </dc:creator>
   </cc:Work>
  </rdf:RDF>
 </metadata>
 <defs>
  <style type="text/css">*{stroke-linejoin: round; stroke-linecap: butt}</style>
 </defs>
 <g id="figure_1">
  <g id="patch_1">
   <path d="M 0 252 
L 756 252 
L 756 0 
L 0 0 
z
" style="fill: #ffffff"/>
  </g>
  <g id="axes_1">
   <g id="patch_2">
    <path d="M 94.5 224.28 
L 680.4 224.28 
L 680.4 30.24 
L 94.5 30.24 
z
" style="fill: #ffffff"/>
   </g>
   <g id="matplotlib.axis_1">
    <g id="xtick_1">
     <g id="line2d_1">
      <defs>
       <path id="m41d04ee1d1" d="M 0 0 
L 0 3.5 
" style="stroke: #000000; stroke-width: 0.8"/>
      </defs>
      <g>
       <use xlink:href="#m41d04ee1d1" x="115.675543" y="224.28" style="stroke: #000000; stroke-width: 0.8"/>
      </g>
     </g>
     <g id="text_1">
      <!-- 2020 -->
      <g transform="translate(102.950543 238.878438) scale(0.1 -0.1)">
       <defs>
        <path id="DejaVuSans-32" d="M 1228 531 
L 3431 531 
L 3431 0 
L 469 0 
L 469 531 
Q 828 903 1448 1529 
Q 2069 2156 2228 2338 
Q 2531 2678 2651 2914 
Q 2772 3150 2772 3378 
Q 2772 3750 2511 3984 
Q 2250 4219 1831 4219 
Q 1534 4219 1204 4116 
Q 875 4013 500 3803 
L 500 4441 
Q 881 4594 1212 4672 
Q 1544 4750 1819 4750 
Q 2544 4750 2975 4387 
Q 3406 4025 3406 3419 
Q 3406 3131 3298 2873 
Q 3191 2616 2906 2266 
Q 2828 2175 2409 1742 
Q 1991 1309 1228 531 
z
" transform="scale(0.015625)"/>
        <path id="DejaVuSans-30" d="M 2034 4250 
Q 1547 4250 1301 3770 
Q 1056 3291 1056 2328 
Q 1056 1369 1301 889 
Q 1547 409 2034 409 
Q 2525 409 2770 889 
Q 3016 1369 3016 2328 
Q 3016 3291 2770 3770 
Q 2525 4250 2034 4250 
z
M 2034 4750 
Q 2819 4750 3233 4129 
Q 3647 3509 3647 2328 
Q 3647 1150 3233 529 
Q 2819 -91 2034 -91 
Q 1250 -91 836 529 
Q 422 1150 422 2328 
Q 422 3509 836 4129 
Q 1250 4750 2034 4750 
z
" transform="scale(0.015625)"/>
       </defs>
       <use xlink:href="#DejaVuSans-32"/>
       <use xlink:href="#DejaVuSans-30" transform="translate(63.623047 0)"/>
       <use xlink:href="#DejaVuSans-32" transform="translate(127.246094 0)"/>
       <use xlink:href="#DejaVuSans-30" transform="translate(190.869141 0)"/>
      </g>
     </g>
    </g>
    <g id="xtick_2">
     <g id="line2d_2">
      <g>
       <use xlink:href="#m41d04ee1d1" x="210.770621" y="224.28" style="stroke: #000000; stroke-width: 0.8"/>
      </g>
     </g>
     <g id="text_2">
      <!-- 2021 -->
      <g transform="translate(198.045621 238.878438) scale(0.1 -0.1)">
       <defs>
        <path id="DejaVuSans-31" d="M 794 531 
L 1825 531 
L 1825 4091 
L 703 3866 
L 703 4441 
L 1819 4666 
L 2450 4666 
L 2450 531 
L 3481 531 
L 3481 0 
L 794 0 
L 794 531 
z
" transform="scale(0.015625)"/>
       </defs>
       <use xlink:href="#DejaVuSans-32"/>
       <use xlink:href="#DejaVuSans-30" transform="translate(63.623047 0)"/>
       <use xlink:href="#DejaVuSans-32" transform="translate(127.246094 0)"/>
       <use xlink:href="#DejaVuSans-31" transform="translate(190.869141 0)"/>
      </g>
     </g>
    </g>
    <g id="xtick_3">
     <g id="line2d_3">
      <g>
       <use xlink:href="#m41d04ee1d1" x="305.605876" y="224.28" style="stroke: #000000; stroke-width: 0.8"/>
      </g>
     </g>
     <g id="text_3">
      <!-- 2022 -->
      <g transform="translate(292.880876 238.878438) scale(0.1 -0.1)">
       <use xlink:href="#DejaVuSans-32"/>
       <use xlink:href="#DejaVuSans-30" transform="translate(63.623047 0)"/>
       <use xlink:href="#DejaVuSans-32" transform="translate(127.246094 0)"/>
       <use xlink:href="#DejaVuSans-32" transform="translate(190.869141 0)"/>
      </g>
     </g>
    </g>
    <g id="xtick_4">
     <g id="line2d_4">
      <g>
       <use xlink:href="#m41d04ee1d1" x="400.441131" y="224.28" style="stroke: #000000; stroke-width: 0.8"/>
      </g>
     </g>
     <g id="text_4">
      <!-- 2023 -->
      <g transform="translate(387.716131 238.878438) scale(0.1 -0.1)">
       <defs>
        <path id="DejaVuSans-33" d="M 2597 2516 
Q 3050 2419 3304 2112 
Q 3559 1806 3559 1356 
Q 3559 666 3084 287 
Q 2609 -91 1734 -91 
Q 1441 -91 1130 -33 
Q 819 25 488 141 
L 488 750 
Q 750 597 1062 519 
Q 1375 441 1716 441 
Q 2309 441 2620 675 
Q 2931 909 2931 1356 
Q 2931 1769 2642 2001 
Q 2353 2234 1838 2234 
L 1294 2234 
L 1294 2753 
L 1863 2753 
Q 2328 2753 2575 2939 
Q 2822 3125 2822 3475 
Q 2822 3834 2567 4026 
Q 2313 4219 1838 4219 
Q 1578 4219 1281 4162 
Q 984 4106 628 3988 
L 628 4550 
Q 988 4650 1302 4700 
Q 1616 4750 1894 4750 
Q 2613 4750 3031 4423 
Q 3450 4097 3450 3541 
Q 3450 3153 3228 2886 
Q 3006 2619 2597 2516 
z
" transform="scale(0.015625)"/>
       </defs>
       <use xlink:href="#DejaVuSans-32"/>
       <use xlink:href="#DejaVuSans-30" transform="translate(63.623047 0)"/>
       <use xlink:href="#DejaVuSans-32" transform="translate(127.246094 0)"/>
       <use xlink:href="#DejaVuSans-33" transform="translate(190.869141 0)"/>
      </g>
     </g>
    </g>
    <g id="xtick_5">
     <g id="line2d_5">
      <g>
       <use xlink:href="#m41d04ee1d1" x="495.276386" y="224.28" style="stroke: #000000; stroke-width: 0.8"/>
      </g>
     </g>
     <g id="text_5">
      <!-- 2024 -->
      <g transform="translate(482.551386 238.878438) scale(0.1 -0.1)">
       <defs>
        <path id="DejaVuSans-34" d="M 2419 4116 
L 825 1625 
L 2419 1625 
L 2419 4116 
z
M 2253 4666 
L 3047 4666 
L 3047 1625 
L 3713 1625 
L 3713 1100 
L 3047 1100 
L 3047 0 
L 2419 0 
L 2419 1100 
L 313 1100 
L 313 1709 
L 2253 4666 
z
" transform="scale(0.015625)"/>
       </defs>
       <use xlink:href="#DejaVuSans-32"/>
       <use xlink:href="#DejaVuSans-30" transform="translate(63.623047 0)"/>
       <use xlink:href="#DejaVuSans-32" transform="translate(127.246094 0)"/>
       <use xlink:href="#DejaVuSans-34" transform="translate(190.869141 0)"/>
      </g>
     </g>
    </g>
    <g id="xtick_6">
     <g id="line2d_6">
      <g>
       <use xlink:href="#m41d04ee1d1" x="590.371463" y="224.28" style="stroke: #000000; stroke-width: 0.8"/>
      </g>
     </g>
     <g id="text_6">
      <!-- 2025 -->
      <g transform="translate(577.646463 238.878438) scale(0.1 -0.1)">
       <defs>
        <path id="DejaVuSans-35" d="M 691 4666 
L 3169 4666 
L 3169 4134 
L 1269 4134 
L 1269 2991 
Q 1406 3038 1543 3061 
Q 1681 3084 1819 3084 
Q 2600 3084 3056 2656 
Q 3513 2228 3513 1497 
Q 3513 744 3044 326 
Q 2575 -91 1722 -91 
Q 1428 -91 1123 -41 
Q 819 9 494 109 
L 494 744 
Q 775 591 1075 516 
Q 1375 441 1709 441 
Q 2250 441 2565 725 
Q 2881 1009 2881 1497 
Q 2881 1984 2565 2268 
Q 2250 2553 1709 2553 
Q 1456 2553 1204 2497 
Q 953 2441 691 2322 
L 691 4666 
z
" transform="scale(0.015625)"/>
       </defs>
       <use xlink:href="#DejaVuSans-32"/>
       <use xlink:href="#DejaVuSans-30" transform="translate(63.623047 0)"/>
       <use xlink:href="#DejaVuSans-32" transform="translate(127.246094 0)"/>
       <use xlink:href="#DejaVuSans-35" transform="translate(190.869141 0)"/>
      </g>
     </g>
    </g>
   </g>
   <g id="matplotlib.axis_2">
    <g id="ytick_1">
     <g id="line2d_7">
      <defs>
       <path id="m50205cd9a5" d="M 0 0 
L -3.5 0 
" style="stroke: #000000; stroke-width: 0.8"/>
      </defs>
      <g>
       <use xlink:href="#m50205cd9a5" x="94.5" y="219.196786" style="stroke: #000000; stroke-width: 0.8"/>
      </g>
     </g>
     <g id="text_7">
      <!-- 50 -->
      <g transform="translate(74.775 222.996005) scale(0.1 -0.1)">
       <use xlink:href="#DejaVuSans-35"/>
       <use xlink:href="#DejaVuSans-30" transform="translate(63.623047 0)"/>
      </g>
     </g>
    </g>
    <g id="ytick_2">
     <g id="line2d_8">
      <g>
       <use xlink:href="#m50205cd9a5" x="94.5" y="197.556522" style="stroke: #000000; stroke-width: 0.8"/>
      </g>
     </g>
     <g id="text_8">
      <!-- 75 -->
      <g transform="translate(74.775 201.355741) scale(0.1 -0.1)">
       <defs>
        <path id="DejaVuSans-37" d="M 525 4666 
L 3525 4666 
L 3525 4397 
L 1831 0 
L 1172 0 
L 2766 4134 
L 525 4134 
L 525 4666 
z
" transform="scale(0.015625)"/>
       </defs>
       <use xlink:href="#DejaVuSans-37"/>
       <use xlink:href="#DejaVuSans-35" transform="translate(63.623047 0)"/>
      </g>
     </g>
    </g>
    <g id="ytick_3">
     <g id="line2d_9">
      <g>
       <use xlink:href="#m50205cd9a5" x="94.5" y="175.916258" style="stroke: #000000; stroke-width: 0.8"/>
      </g>
     </g>
     <g id="text_9">
      <!-- 100 -->
      <g transform="translate(68.4125 179.715477) scale(0.1 -0.1)">
       <use xlink:href="#DejaVuSans-31"/>
       <use xlink:href="#DejaVuSans-30" transform="translate(63.623047 0)"/>
       <use xlink:href="#DejaVuSans-30" transform="translate(127.246094 0)"/>
      </g>
     </g>
    </g>
    <g id="ytick_4">
     <g id="line2d_10">
      <g>
       <use xlink:href="#m50205cd9a5" x="94.5" y="154.275994" style="stroke: #000000; stroke-width: 0.8"/>
      </g>
     </g>
     <g id="text_10">
      <!-- 125 -->
      <g transform="translate(68.4125 158.075212) scale(0.1 -0.1)">
       <use xlink:href="#DejaVuSans-31"/>
       <use xlink:href="#DejaVuSans-32" transform="translate(63.623047 0)"/>
       <use xlink:href="#DejaVuSans-35" transform="translate(127.246094 0)"/>
      </g>
     </g>
    </g>
    <g id="ytick_5">
     <g id="line2d_11">
      <g>
       <use xlink:href="#m50205cd9a5" x="94.5" y="132.63573" style="stroke: #000000; stroke-width: 0.8"/>
      </g>
     </g>
     <g id="text_11">
      <!-- 150 -->
      <g transform="translate(68.4125 136.434948) scale(0.1 -0.1)">
       <use xlink:href="#DejaVuSans-31"/>
       <use xlink:href="#DejaVuSans-35" transform="translate(63.623047 0)"/>
       <use xlink:href="#DejaVuSans-30" transform="translate(127.246094 0)"/>
      </g>
     </g>
    </g>
    <g id="ytick_6">
     <g id="line2d_12">
      <g>
       <use xlink:href="#m50205cd9a5" x="94.5" y="110.995466" style="stroke: #000000; stroke-width: 0.8"/>
      </g>
     </g>
     <g id="text_12">
      <!-- 175 -->
      <g transform="translate(68.4125 114.794684) scale(0.1 -0.1)">
       <use xlink:href="#DejaVuSans-31"/>
       <use xlink:href="#DejaVuSans-37" transform="translate(63.623047 0)"/>
       <use xlink:href="#DejaVuSans-35" transform="translate(127.246094 0)"/>
      </g>
     </g>
    </g>
    <g id="ytick_7">
     <g id="line2d_13">
      <g>
       <use xlink:href="#m50205cd9a5" x="94.5" y="89.355202" style="stroke: #000000; stroke-width: 0.8"/>
      </g>
     </g>
     <g id="text_13">
      <!-- 200 -->
      <g transform="translate(68.4125 93.15442) scale(0.1 -0.1)">
       <use xlink:href="#DejaVuSans-32"/>
       <use xlink:href="#DejaVuSans-30" transform="translate(63.623047 0)"/>
       <use xlink:href="#DejaVuSans-30" transform="translate(127.246094 0)"/>
      </g>
     </g>
    </g>
    <g id="ytick_8">
     <g id="line2d_14">
      <g>
       <use xlink:href="#m50205cd9a5" x="94.5" y="67.714938" style="stroke: #000000; stroke-width: 0.8"/>
      </g>
     </g>
     <g id="text_14">
      <!-- 225 -->
      <g transform="translate(68.4125 71.514156) scale(0.1 -0.1)">
       <use xlink:href="#DejaVuSans-32"/>
       <use xlink:href="#DejaVuSans-32" transform="translate(63.623047 0)"/>
       <use xlink:href="#DejaVuSans-35" transform="translate(127.246094 0)"/>
      </g>
     </g>
    </g>
    <g id="ytick_9">
     <g id="line2d_15">
      <g>
       <use xlink:href="#m50205cd9a5" x="94.5" y="46.074674" style="stroke: #000000; stroke-width: 0.8"/>
      </g>
     </g>
     <g id="text_15">
      <!-- 250 -->
      <g transform="translate(68.4125 49.873892) scale(0.1 -0.1)">
       <use xlink:href="#DejaVuSans-32"/>
       <use xlink:href="#DejaVuSans-35" transform="translate(63.623047 0)"/>
       <use xlink:href="#DejaVuSans-30" transform="translate(127.246094 0)"/>
      </g>
     </g>
    </g>
   </g>
   <g id="line2d_16">
    <path d="M 121.131818 196.060089 
L 121.391641 195.740214 
L 121.651463 195.932571 
L 122.430931 197.889335 
L 122.950576 194.671944 
L 123.210399 194.770219 
L 123.470222 197.772244 
L 124.24969 197.949967 
L 124.509512 195.819667 
L 125.029157 194.49006 
L 125.28898 195.414183 
L 126.068448 195.095681 
L 126.328271 195.502196 
L 126.588093 193.911708 
L 126.847916 194.399961 
L 127.107738 194.3832 
L 128.147029 195.630044 
L 128.406851 194.661912 
L 128.666674 195.357606 
L 128.926497 196.876876 
L 129.705965 199.992907 
L 129.965787 202.109391 
L 130.22561 201.151746 
L 130.485432 205.160484 
L 130.745255 205.194013 
L 131.524723 199.860898 
L 131.784545 201.849566 
L 132.044368 199.037356 
L 132.304191 201.095155 
L 132.564013 201.910331 
L 133.343481 206.700709 
L 133.603304 202.68357 
L 133.863126 204.760231 
L 134.122949 210.460071 
L 134.382772 204.227955 
L 135.162239 211.721576 
L 135.422062 209.489851 
L 135.681885 210.786973 
L 135.941707 211.18303 
L 136.20153 214.439484 
L 136.980998 215.46 
L 137.24082 210.742973 
L 137.500643 211.027959 
L 137.760466 208.320539 
L 138.020288 210.562748 
L 138.799756 209.081214 
L 139.059579 209.190185 
L 139.319401 211.993998 
L 139.579224 211.151611 
L 139.839047 211.889214 
L 140.618514 207.476058 
L 140.878337 208.113085 
L 141.13816 206.721631 
L 141.397982 206.319316 
L 142.437273 205.217055 
L 142.697095 202.325239 
L 142.956918 202.874269 
L 143.216741 202.400684 
L 143.476563 203.215833 
L 144.256031 204.445929 
L 144.515854 206.239698 
L 144.775676 204.619841 
L 145.035499 204.84407 
L 145.295322 203.180204 
L 146.074789 203.138301 
L 146.334612 204.100159 
L 146.854257 200.910763 
L 147.11408 201.901937 
L 147.893548 201.044878 
L 148.413193 199.479512 
L 148.673016 198.827801 
L 148.932838 197.312864 
L 149.712306 196.287455 
L 150.231951 197.83394 
L 150.491774 197.43681 
L 150.751596 197.821319 
L 151.531064 196.297968 
L 151.790887 196.680404 
L 152.05071 195.400737 
L 152.310532 195.900818 
L 152.570355 195.47218 
L 153.609645 195.926072 
L 153.869468 195.636094 
L 154.389113 195.671809 
L 155.688226 194.163138 
L 155.948049 194.751477 
L 156.207871 192.822582 
L 156.987339 192.410758 
L 157.506984 188.33862 
L 157.766807 191.89807 
L 158.02663 191.288704 
L 158.806098 190.408314 
L 159.06592 188.498327 
L 159.325743 188.601278 
L 159.585565 188.57185 
L 159.845388 188.994207 
L 160.624856 187.071607 
L 160.884678 185.462085 
L 161.144501 186.821569 
L 161.404324 185.81718 
L 161.664146 188.172626 
L 162.703437 185.825587 
L 162.963259 185.970587 
L 163.223082 185.970587 
L 164.262373 183.923994 
L 164.522195 184.167744 
L 164.782018 182.343908 
L 165.04184 181.9993 
L 165.301663 181.858534 
L 166.081131 182.230436 
L 166.340953 180.90248 
L 166.600776 180.34147 
L 166.860599 181.352139 
L 167.120421 181.516033 
L 167.899889 179.809861 
L 168.159712 180.950816 
L 168.419534 180.721792 
L 168.679357 184.443003 
L 168.93918 184.636304 
L 169.718647 182.791473 
L 169.97847 184.100515 
L 170.498115 181.631591 
L 170.757938 173.167981 
L 171.797228 170.306154 
L 172.057051 169.972053 
L 172.316874 166.744611 
L 172.576696 168.921185 
L 173.356164 167.561345 
L 173.615987 170.384128 
L 173.875809 167.323492 
L 174.135632 165.63949 
L 175.174922 165.978392 
L 175.434745 165.174292 
L 175.694568 165.052195 
L 175.95439 162.890388 
L 176.214213 157.758407 
L 176.993681 156.505955 
L 177.253503 157.375317 
L 177.513326 155.946008 
L 177.773149 157.21954 
L 178.032971 157.390044 
L 178.812439 153.826315 
L 179.072262 149.498467 
L 179.332084 151.839212 
L 179.591907 160.697 
L 179.851729 160.629612 
L 180.89102 167.483463 
L 181.150843 163.694475 
L 181.410665 166.919329 
L 181.670488 168.17388 
L 182.449956 165.344796 
L 182.709778 165.193226 
L 182.969601 168.06445 
L 183.229424 169.571608 
L 183.489246 172.518602 
L 184.268714 169.790534 
L 184.528537 168.33389 
L 184.788359 172.282823 
L 185.048182 171.356646 
L 185.308004 167.938134 
L 186.087472 165.681591 
L 186.347295 166.414136 
L 186.86694 164.140746 
L 187.126763 167.315065 
L 187.906231 164.384919 
L 188.166053 167.197189 
L 188.425876 165.580535 
L 188.685698 165.673171 
L 188.945521 163.989189 
L 189.724989 157.733159 
L 189.984812 160.511742 
L 190.244634 160.435954 
L 190.504457 160.840117 
L 190.764279 162.263086 
L 191.543747 164.822756 
L 191.80357 163.534511 
L 192.063392 164.073378 
L 192.583038 165.614229 
L 193.362506 165.605803 
L 193.622328 164.30073 
L 193.882151 168.847497 
L 194.141973 165.37847 
L 194.401796 170.817779 
L 195.181264 170.893535 
L 195.441086 169.487413 
L 195.960732 162.254666 
L 196.220554 162.368533 
L 197.000022 164.36751 
L 197.259845 164.662713 
L 197.519667 161.693761 
L 197.77949 161.929949 
L 198.039313 161.887769 
L 198.81878 161.010588 
L 199.078603 161.778128 
L 199.338426 162.925231 
L 199.598248 162.4107 
L 200.637539 166.450822 
L 201.157184 164.612099 
L 201.676829 164.139782 
L 202.456297 162.06491 
L 202.71612 158.969451 
L 202.975942 158.665801 
L 203.235765 158.783889 
L 203.495588 159.365867 
L 204.534878 157.569319 
L 204.794701 159.762277 
L 205.054523 158.530873 
L 205.314346 159.230913 
L 206.093814 159.762277 
L 206.353636 154.61726 
L 206.613459 154.676294 
L 206.873282 153.925627 
L 207.133104 155.646262 
L 207.912572 154.322037 
L 208.172395 151.243438 
L 208.432217 152.019444 
L 208.69204 151.167557 
L 209.73133 147.186496 
L 210.250976 149.691518 
L 210.510798 150.560258 
L 211.550089 153.326775 
L 211.809911 151.977264 
L 212.069734 155.696876 
L 212.329557 152.053184 
L 212.589379 151.100103 
L 213.368847 153.689472 
L 213.62867 153.841286 
L 213.888492 152.078465 
L 214.408137 155.241399 
L 215.447428 154.659427 
L 216.226896 145.179052 
L 217.006364 141.931811 
L 217.266186 141.729356 
L 217.526009 142.657164 
L 218.045654 151.17597 
L 219.084945 148.620361 
L 219.344767 149.50593 
L 219.60459 146.596077 
L 219.864412 146.955089 
L 220.64388 146.828356 
L 221.163525 148.112309 
L 221.423348 148.331948 
L 221.683171 148.129229 
L 222.722461 149.970699 
L 222.982284 151.955748 
L 223.242106 152.910256 
L 223.501929 152.77511 
L 224.281397 156.044125 
L 224.54122 156.162391 
L 224.801042 156.593195 
L 225.060865 160.276115 
L 225.320687 160.048049 
L 226.100155 154.5321 
L 226.879623 161.002564 
L 227.139446 159.912884 
L 227.918914 164.187113 
L 228.178736 160.191649 
L 228.438559 161.129277 
L 228.698381 159.456746 
L 228.958204 160.242348 
L 229.737672 157.741996 
L 229.997494 156.407363 
L 230.257317 157.091559 
L 230.51714 160.664673 
L 230.776962 161.12083 
L 231.55643 158.248826 
L 231.816253 158.966822 
L 232.076075 161.036351 
L 232.595721 160.090289 
L 233.375188 159.938224 
L 233.635011 161.19685 
L 233.894834 159.296254 
L 234.154656 158.578258 
L 235.193947 156.128598 
L 235.453769 155.86672 
L 235.713592 154.439181 
L 236.233237 150.131165 
L 237.012705 151.61781 
L 237.272528 148.923238 
L 237.53235 150.95056 
L 237.792173 148.864105 
L 238.051996 149.151356 
L 238.831463 148.57692 
L 239.091286 150.038258 
L 239.351109 149.708847 
L 239.610931 151.026573 
L 239.870754 149.016144 
L 240.650222 148.678279 
L 240.910044 148.957051 
L 241.169867 149.641234 
L 241.42969 149.725727 
L 241.689512 151.432024 
L 242.46898 150.519762 
L 242.728803 154.481427 
L 242.988625 154.270235 
L 243.248448 152.884896 
L 243.508271 152.301082 
L 244.547561 155.93949 
L 244.807384 158.596392 
L 245.327029 154.636451 
L 246.106497 155.63489 
L 246.366319 156.836417 
L 246.626142 156.971788 
L 246.885965 154.754902 
L 247.145787 156.345641 
L 247.925255 154.932605 
L 248.4449 155.144107 
L 248.704723 156.472552 
L 248.964545 157.039479 
L 250.003836 157.318707 
L 250.263659 156.658728 
L 250.523481 157.94486 
L 250.783304 155.956429 
L 251.562772 155.947963 
L 251.822594 155.237198 
L 252.082417 154.907206 
L 252.342239 155.770267 
L 252.602062 154.72105 
L 253.38153 152.072627 
L 253.641353 152.783398 
L 253.901175 152.351841 
L 254.160998 150.964164 
L 254.42082 152.089527 
L 255.200288 150.532653 
L 255.460111 149.111137 
L 256.239579 149.847268 
L 257.019047 148.434192 
L 257.278869 147.1227 
L 257.538692 146.589632 
L 257.798514 146.327318 
L 258.058337 144.051207 
L 259.097627 142.308125 
L 259.35745 140.150465 
L 259.617273 141.27584 
L 259.877095 139.693581 
L 260.656563 140.20969 
L 260.916386 139.245111 
L 261.176208 136.275135 
L 261.436031 136.842056 
L 261.695854 138.610511 
L 262.475322 141.944319 
L 262.735144 138.813573 
L 262.994967 139.44816 
L 263.514612 136.774391 
L 264.29408 136.410506 
L 264.813725 139.803565 
L 265.073548 139.245111 
L 265.33337 139.058955 
L 266.112838 139.346655 
L 266.372661 137.789755 
L 266.632483 138.136655 
L 266.892306 138.04359 
L 267.152129 138.636769 
L 267.931596 138.679154 
L 268.191419 139.094353 
L 268.451242 138.87404 
L 268.711064 136.306399 
L 268.970887 136.128445 
L 269.750355 134.416653 
L 270.010177 135.204732 
L 270.27 138.450322 
L 270.529823 138.162199 
L 270.789645 136.899551 
L 271.569113 135.611517 
L 271.828936 135.687794 
L 272.348581 137.450398 
L 272.608404 136.552097 
L 273.387871 132.721834 
L 273.647694 133.814995 
L 273.907517 133.238762 
L 274.427162 131.721896 
L 275.466452 129.696582 
L 275.986098 131.916783 
L 276.24592 136.238601 
L 277.025388 135.747086 
L 277.285211 136.958882 
L 277.545033 136.187763 
L 277.804856 136.391156 
L 278.064678 138.704553 
L 278.844146 141.348472 
L 279.103969 140.93322 
L 279.363792 138.882533 
L 279.623614 138.052043 
L 279.883437 137.975806 
L 280.662905 139.289239 
L 280.922727 142.221281 
L 281.18255 141.441682 
L 281.442373 142.568735 
L 281.702195 141.59425 
L 282.481663 144.568624 
L 282.741486 142.89923 
L 283.261131 141.051896 
L 283.520953 141.382364 
L 284.300421 141.458641 
L 284.560244 142.560269 
L 284.820067 143.068717 
L 285.079889 140.653577 
L 285.339712 139.738383 
L 286.11918 138.289328 
L 286.379002 136.416581 
L 286.638825 135.99281 
L 286.898647 135.806417 
L 287.15847 136.475873 
L 287.937938 136.518271 
L 288.197761 135.941999 
L 288.457583 136.340291 
L 288.717406 133.187871 
L 288.977228 135.535227 
L 289.756696 136.247068 
L 290.276341 134.103104 
L 290.536164 134.552235 
L 290.795987 134.093964 
L 291.575455 134.806849 
L 291.835277 134.492864 
L 292.0951 136.945436 
L 292.354922 136.987874 
L 292.614745 135.188723 
L 293.394213 135.180257 
L 293.654035 134.331593 
L 293.913858 132.218457 
L 294.433503 126.22702 
L 295.212971 125.828147 
L 295.732616 125.047386 
L 296.252262 129.400957 
L 297.031729 126.490114 
L 297.291552 122.19594 
L 297.551375 122.645718 
L 297.811197 123.502849 
L 298.07102 125.132275 
L 298.850488 122.178954 
L 299.370133 113.896151 
L 299.629956 114.337489 
L 299.889778 110.187588 
L 300.929069 114.532653 
L 301.188891 110.314888 
L 301.448714 116.289366 
L 301.708537 117.239839 
L 302.488004 118.419474 
L 303.00765 113.420974 
L 303.267472 112.877788 
L 304.306763 109.440772 
L 304.566585 110.323381 
L 304.826408 110.246998 
L 305.086231 111.248389 
L 305.346053 111.783069 
L 306.125521 108.015056 
L 306.385344 109.975425 
L 306.904989 116.510022 
L 307.164812 116.365722 
L 307.944279 116.348776 
L 308.204102 113.896151 
L 308.463925 113.51429 
L 308.723747 116.348776 
L 308.98357 115.601933 
L 310.02286 118.377023 
L 310.282683 121.406712 
L 310.802328 124.648539 
L 311.581796 125.318946 
L 311.841619 126.880468 
L 312.101441 126.956851 
L 312.361264 127.355711 
L 312.621086 117.927258 
L 313.400554 114.150765 
L 313.660377 114.295064 
L 313.9202 113.25121 
L 314.180022 115.746233 
L 315.219313 116.612926 
L 315.479135 113.919305 
L 315.738958 112.687221 
L 316.258603 119.179155 
L 317.038071 118.975207 
L 317.297894 115.652798 
L 317.557716 115.856679 
L 317.817539 118.975207 
L 318.077361 120.317765 
L 319.116652 122.849956 
L 319.376475 126.461294 
L 319.89612 122.399584 
L 320.675588 122.170171 
L 320.93541 123.801657 
L 321.195233 120.94654 
L 321.455055 121.226976 
L 321.714878 123.827162 
L 322.494346 127.1156 
L 322.754169 128.696063 
L 323.013991 124.014071 
L 323.533636 130.998881 
L 324.313104 134.49124 
L 324.832749 126.869162 
L 325.092572 125.993949 
L 325.352395 123.138911 
L 326.131863 121.949225 
L 326.391685 119.026178 
L 326.651508 117.845064 
L 326.91133 114.565092 
L 327.171153 114.012793 
L 327.950621 113.264999 
L 328.210443 110.409948 
L 328.470266 111.421099 
L 328.730089 114.106267 
L 328.989911 114.361158 
L 329.769379 110.851774 
L 330.289024 116.468495 
L 330.548847 116.205071 
L 330.80867 117.947004 
L 331.588137 121.634844 
L 331.84796 120.011851 
L 332.107783 117.68362 
L 332.367605 122.025753 
L 333.406896 122.212662 
L 333.666718 120.232784 
L 333.926541 120.377241 
L 334.186364 121.065532 
L 334.446186 124.999783 
L 335.225654 124.073561 
L 335.485477 129.239896 
L 335.745299 129.435338 
L 336.005122 123.427774 
L 336.264945 128.51766 
L 337.044412 128.254197 
L 337.304235 126.962636 
L 337.564058 121.405405 
L 337.82388 129.265375 
L 338.083703 128.635662 
L 338.863171 133.077781 
L 339.122993 130.992884 
L 339.382816 137.809211 
L 339.642639 141.162065 
L 339.902461 137.290104 
L 340.681929 138.626163 
L 340.941752 135.47752 
L 341.201574 142.642727 
L 341.461397 145.595651 
L 341.72122 145.391426 
L 342.500687 140.69402 
L 342.76051 143.034204 
L 343.020333 142.898041 
L 343.280155 140.123877 
L 343.539978 135.137146 
L 344.839091 135.928553 
L 345.098914 133.8011 
L 345.358736 138.762312 
L 346.138204 138.115574 
L 346.398027 135.928553 
L 346.657849 136.566771 
L 347.177494 145.782851 
L 347.956962 150.250461 
L 348.216785 149.50161 
L 348.476608 147.229541 
L 348.73643 151.799277 
L 348.996253 150.522813 
L 350.035543 146.855103 
L 350.295366 147.297577 
L 350.815011 141.927928 
L 351.594479 141.927928 
L 351.854302 145.51907 
L 352.114124 143.995798 
L 352.373947 146.131771 
L 352.633769 144.251099 
L 353.67306 142.013041 
L 353.932882 140.855728 
L 354.192705 137.936855 
L 354.452528 137.349699 
L 355.231996 139.196306 
L 355.491818 138.35385 
L 355.751641 138.66868 
L 356.271286 134.686126 
L 357.050754 137.324141 
L 357.310576 133.979793 
L 357.830222 130.278085 
L 358.090044 131.350284 
L 358.869512 132.320398 
L 359.129335 133.469244 
L 359.389157 129.05267 
L 359.64898 128.57608 
L 359.908803 124.185104 
L 360.688271 125.03604 
L 360.948093 126.312504 
L 361.207916 121.104536 
L 361.727561 121.572832 
L 362.507029 121.981862 
L 362.766851 121.939292 
L 363.026674 118.257951 
L 363.286497 118.897068 
L 363.546319 115.820766 
L 364.325787 114.891928 
L 364.58561 115.028263 
L 364.845432 113.732964 
L 365.105255 114.073841 
L 365.365078 116.315016 
L 366.144545 119.681052 
L 366.404368 119.9708 
L 366.664191 119.715116 
L 366.924013 117.584744 
L 367.183836 123.047101 
L 367.963304 124.955893 
L 368.482949 128.500912 
L 368.742772 127.870302 
L 369.002594 129.702433 
L 370.041885 130.793203 
L 370.301707 129.574618 
L 370.56153 130.852838 
L 370.821353 128.373084 
L 371.60082 123.208993 
L 371.860643 131.381205 
L 372.120466 130.128515 
L 372.380288 132.633881 
L 372.640111 134.056982 
L 373.419579 130.835826 
L 373.679401 128.773595 
L 373.939224 131.483449 
L 374.199047 132.318575 
L 374.458869 134.287081 
L 375.238337 133.99732 
L 375.49816 133.153688 
L 375.757982 134.78985 
L 376.277627 144.708934 
L 377.057095 141.087294 
L 377.316918 137.976889 
L 377.576741 137.721231 
L 377.836563 138.547838 
L 378.096386 143.098356 
L 378.875854 142.817194 
L 379.135676 144.044299 
L 379.395499 144.589664 
L 379.655322 140.627108 
L 379.915144 144.555561 
L 380.954435 139.979472 
L 381.214257 139.885707 
L 381.47408 140.286271 
L 381.733902 136.979883 
L 382.51337 135.122181 
L 382.773193 132.659412 
L 383.033016 135.2074 
L 383.292838 139.084724 
L 383.552661 129.762081 
L 384.332129 131.807261 
L 384.591951 134.099591 
L 385.111596 144.129492 
L 385.371419 144.359934 
L 386.150887 143.899049 
L 386.41071 143.403954 
L 386.670532 147.356009 
L 386.930355 137.113154 
L 387.190177 134.697512 
L 387.969645 135.909586 
L 388.229468 134.407315 
L 388.48929 135.474271 
L 388.749113 133.826856 
L 389.008936 133.340346 
L 389.788404 136.140055 
L 390.048226 134.287821 
L 390.308049 133.528113 
L 391.607162 139.375079 
L 391.866984 141.978475 
L 392.126807 136.12299 
L 392.38663 135.883975 
L 392.646452 136.310757 
L 393.42592 137.317986 
L 393.685743 140.493269 
L 393.945565 142.174788 
L 394.205388 140.71522 
L 394.465211 141.133443 
L 395.504501 138.308136 
L 395.764324 140.237203 
L 396.024146 145.964687 
L 396.283969 147.663284 
L 397.063437 149.489921 
L 397.323259 149.549675 
L 397.583082 146.860941 
L 397.842905 149.609442 
L 398.102727 149.925263 
L 399.142018 151.487287 
L 399.40184 154.89304 
L 399.661663 151.845796 
L 399.921486 151.572651 
L 400.960776 155.721 
L 401.220599 154.619908 
L 401.480421 155.763676 
L 401.740244 151.837264 
L 402.519712 151.384871 
L 402.779534 150.889802 
L 403.039357 148.533914 
L 403.29918 148.6022 
L 403.559002 147.449893 
L 404.598293 146.442678 
L 404.858115 147.065786 
L 405.117938 147.014565 
L 405.377761 144.795276 
L 406.417051 140.817622 
L 406.676874 141.38951 
L 407.196519 137.915497 
L 407.975987 140.416451 
L 408.495632 138.342266 
L 409.015277 130.600364 
L 409.794745 132.964758 
L 410.054568 130.472311 
L 410.31439 132.802575 
L 410.574213 133.698829 
L 410.834035 133.38252 
L 411.613503 130.95466 
L 411.873326 131.510354 
L 412.133149 129.689463 
L 412.652794 132.066022 
L 413.692084 135.54537 
L 414.211729 134.758877 
L 414.471552 137.058472 
L 415.25102 136.024087 
L 415.510843 136.460089 
L 415.770665 138.25533 
L 416.030488 137.742378 
L 416.29031 133.365415 
L 417.069778 130.971778 
L 417.329601 132.878152 
L 417.589424 131.792467 
L 418.109069 135.528266 
L 418.888537 133.844172 
L 419.148359 132.031826 
L 419.408182 131.689866 
L 419.668004 129.244929 
L 419.927827 129.971576 
L 420.707295 127.919885 
L 420.967118 126.312702 
L 421.22694 127.552275 
L 421.746585 125.483467 
L 422.785876 127.706164 
L 423.045698 125.038932 
L 423.305521 123.67968 
L 423.565344 121.508296 
L 424.344812 120.422611 
L 424.604634 120.88425 
L 424.864457 122.482861 
L 425.124279 121.713472 
L 426.16357 123.961806 
L 426.683215 125.611692 
L 426.943038 120.944096 
L 427.20286 121.243301 
L 427.982328 121.22621 
L 428.501973 119.174479 
L 428.761796 120.012273 
L 429.021619 121.405709 
L 429.801086 121.1407 
L 430.060909 122.474316 
L 430.320732 122.482861 
L 430.580554 118.507691 
L 430.840377 117.422019 
L 431.619845 117.498944 
L 432.13949 119.328381 
L 432.399313 120.74748 
L 432.659135 114.096519 
L 433.438603 114.156365 
L 433.698426 115.635311 
L 433.958248 114.105078 
L 434.218071 113.942657 
L 434.477894 114.747325 
L 435.257361 115.175376 
L 435.517184 115.175376 
L 435.777007 114.644605 
L 436.036829 112.624324 
L 436.296652 112.530149 
L 437.07612 113.351988 
L 437.335942 115.611985 
L 437.595765 115.372283 
L 437.855588 114.387799 
L 438.11541 112.299033 
L 439.154701 110.698189 
L 439.414523 110.740997 
L 439.674346 108.309796 
L 439.934169 107.573586 
L 440.973459 109.063137 
L 441.233282 110.253035 
L 441.493104 107.89889 
L 441.752927 107.565 
L 442.532395 105.142398 
L 442.792217 105.553277 
L 443.05204 105.005403 
L 443.311863 103.241914 
L 443.571685 104.175031 
L 444.610976 104.098001 
L 444.870798 104.99683 
L 445.130621 102.394425 
L 445.390443 102.668376 
L 446.169911 103.875404 
L 446.429734 101.487011 
L 446.689557 100.468304 
L 446.949379 100.177222 
L 447.209202 96.427687 
L 448.508315 98.687698 
L 448.768137 98.276791 
L 449.02796 99.244158 
L 450.067251 101.469893 
L 450.327073 100.023136 
L 450.586896 99.363995 
L 450.846718 99.235586 
L 451.626186 96.410596 
L 451.886009 96.633141 
L 452.145831 95.460361 
L 452.665477 98.165499 
L 453.444945 97.472084 
L 453.96459 95.973974 
L 454.224412 97.069776 
L 454.484235 94.835443 
L 455.263703 94.304672 
L 455.523525 95.023752 
L 455.783348 97.617625 
L 456.043171 98.824666 
L 456.302993 106.683276 
L 457.082461 109.371284 
L 457.342284 108.55807 
L 457.602106 109.936289 
L 457.861929 110.124638 
L 458.121752 110.073232 
L 458.90122 108.641651 
L 459.161042 110.364657 
L 459.420865 111.119002 
L 459.680687 113.322032 
L 460.719978 111.744765 
L 460.9798 110.553256 
L 461.239623 107.218669 
L 461.499446 111.281885 
L 461.759268 109.37028 
L 462.538736 108.015888 
L 463.058381 101.62106 
L 463.318204 101.432487 
L 463.578027 100.06951 
L 464.617317 99.863779 
L 465.136962 110.270364 
L 465.396785 109.738893 
L 466.176253 108.727385 
L 466.695898 113.142031 
L 466.955721 111.830486 
L 467.215543 112.456263 
L 468.254834 108.975976 
L 468.514656 112.044775 
L 468.774479 113.382063 
L 469.034302 112.644836 
L 469.813769 111.539021 
L 470.073592 115.070754 
L 470.333415 116.382312 
L 470.593237 116.159411 
L 470.85306 115.713648 
L 471.632528 113.536348 
L 471.89235 114.693595 
L 472.411996 112.541984 
L 472.671818 110.330355 
L 473.451286 109.04454 
L 473.711109 109.558866 
L 474.230754 107.570125 
L 474.490576 109.164536 
L 475.270044 109.276 
L 475.78969 111.744765 
L 476.049512 112.070492 
L 476.309335 114.282134 
L 477.088803 114.179255 
L 477.348625 113.802083 
L 477.608448 115.807941 
L 477.868271 119.416836 
L 478.128093 118.276746 
L 479.167384 116.090847 
L 479.687029 110.261778 
L 479.946851 111.050438 
L 480.726319 108.838809 
L 480.986142 106.618622 
L 481.245965 105.701407 
L 481.505787 106.112868 
L 481.76561 102.482088 
L 482.545078 103.85542 
L 482.8049 101.589387 
L 483.064723 101.100143 
L 483.324545 99.640958 
L 483.584368 99.658128 
L 484.363836 98.147457 
L 484.623659 98.842695 
L 484.883481 98.267612 
L 485.403126 99.417792 
L 486.182594 99.572315 
L 486.442417 99.048716 
L 486.702239 99.932818 
L 486.962062 99.434963 
L 487.221885 98.327683 
L 488.001353 99.881307 
L 488.261175 96.456508 
L 488.520998 97.400667 
L 489.040643 94.490908 
L 489.820111 96.662515 
L 490.079933 95.349227 
L 490.339756 92.559609 
L 490.599579 92.430882 
L 491.638869 94.336385 
L 491.898692 93.435126 
L 492.158514 95.246243 
L 492.418337 95.37501 
L 492.67816 96.301985 
L 493.71745 96.774098 
L 493.977273 96.688285 
L 494.237095 96.319169 
L 494.496918 97.220429 
L 496.315676 106.962642 
L 497.095144 103.203095 
L 497.354967 103.563599 
L 497.614789 102.662326 
L 497.874612 103.177352 
L 498.134435 102.89409 
L 499.173725 104.859703 
L 499.433548 105.675123 
L 499.69337 100.56796 
L 499.953193 98.053032 
L 500.732661 96.053104 
L 500.992483 94.945837 
L 501.252306 95.529492 
L 501.512129 95.812755 
L 501.771951 97.314854 
L 502.551419 97.907108 
L 503.071064 104.198793 
L 503.330887 102.087243 
L 503.59071 102.954148 
L 504.370177 101.383406 
L 504.63 99.992902 
L 504.889823 99.898451 
L 505.149645 100.834051 
L 505.409468 100.172296 
L 506.188936 101.633357 
L 506.448758 103.446759 
L 506.708581 104.211671 
L 506.968404 104.460896 
L 507.228226 105.793019 
L 508.267517 106.437604 
L 508.527339 105.784434 
L 508.787162 104.02257 
L 509.046984 105.612542 
L 509.826452 106.781386 
L 510.086275 105.518012 
L 510.346098 106.55793 
L 510.60592 107.133754 
L 510.865743 108.07053 
L 511.645211 111.989579 
L 511.905033 116.269606 
L 512.164856 117.129022 
L 512.424678 117.232165 
L 512.684501 115.745335 
L 513.723792 113.596735 
L 513.983614 115.401539 
L 514.243437 113.794409 
L 514.503259 114.120994 
L 515.282727 113.175606 
L 515.802373 108.921387 
L 516.062195 115.195294 
L 516.322018 114.413185 
L 517.101486 115.642192 
L 517.361308 116.621934 
L 517.621131 113.527974 
L 517.880953 115.100736 
L 518.920244 116.346927 
L 519.180067 117.369662 
L 519.439889 116.673525 
L 519.699712 117.386859 
L 519.959534 116.733689 
L 520.739002 117.704846 
L 520.998825 116.656342 
L 521.258647 118.280669 
L 521.51847 112.041143 
L 521.778293 110.743388 
L 522.557761 114.060844 
L 522.817583 116.90558 
L 523.597051 120.669921 
L 524.376519 119.947989 
L 524.636341 119.036982 
L 524.896164 117.214955 
L 525.155987 116.46724 
L 525.415809 116.974328 
L 526.195277 113.364681 
L 526.4551 116.08909 
L 526.714922 116.974328 
L 526.974745 113.768626 
L 527.234568 104.873413 
L 528.014035 106.308666 
L 528.273858 105.715672 
L 528.533681 105.423468 
L 528.793503 103.850692 
L 529.053326 104.943654 
L 530.092616 101.174215 
L 530.352439 99.203424 
L 530.872084 99.07434 
L 531.651552 98.067429 
L 531.911375 96.940032 
L 532.171197 98.187914 
L 532.43102 101.647543 
L 532.690843 98.979677 
L 533.730133 98.971066 
L 533.989956 98.712886 
L 534.509601 97.026097 
L 535.548891 95.218823 
L 535.808714 93.910712 
L 536.068537 95.10695 
L 536.328359 93.032897 
L 537.107827 96.277365 
L 537.36765 84.203091 
L 537.627472 79.108291 
L 537.887295 78.101406 
L 538.147118 79.607467 
L 538.926585 76.01013 
L 539.965876 83.910464 
L 540.745344 83.351085 
L 541.005166 82.550723 
L 541.264989 78.953412 
L 541.524812 78.221878 
L 541.784634 81.216803 
L 542.564102 75.941302 
L 542.823925 72.911956 
L 543.083747 71.810381 
L 543.603392 67.688099 
L 544.38286 66.414382 
L 544.642683 65.674276 
L 544.902506 61.973677 
L 545.162328 66.629543 
L 545.422151 64.073564 
L 546.201619 60.751617 
L 546.461441 60.390149 
L 546.981086 69.547003 
L 547.240909 69.435117 
L 548.020377 69.736316 
L 548.2802 68.832692 
L 548.540022 74.400807 
L 548.799845 75.304444 
L 549.059667 74.899944 
L 549.839135 74.658974 
L 550.098958 74.177048 
L 550.35878 71.354277 
L 550.618603 74.555699 
L 550.878426 73.264812 
L 551.917716 84.13425 
L 552.437361 78.901755 
L 552.697184 76.380183 
L 553.476652 75.05333 
L 553.736475 71.830933 
L 553.996297 71.443221 
L 554.25612 68.858408 
L 554.515942 67.712481 
L 555.29541 67.850348 
L 555.555233 67.31617 
L 555.815055 67.410925 
L 556.074878 69.022124 
L 556.334701 67.031811 
L 557.114169 66.73888 
L 557.373991 66.006514 
L 557.633814 67.333367 
L 557.893636 64.49011 
L 558.153459 65.170767 
L 559.452572 72.192811 
L 559.712395 70.874569 
L 559.972217 72.218659 
L 560.751685 72.141114 
L 561.011508 72.830395 
L 561.27133 70.633309 
L 561.531153 70.538527 
L 561.790976 70.771163 
L 562.570443 76.095851 
L 562.830266 75.690928 
L 563.090089 72.330651 
L 563.349911 65.282772 
L 564.389202 67.350617 
L 564.649024 66.575178 
L 564.908847 67.436787 
L 565.16867 66.445923 
L 565.428492 66.213314 
L 566.20796 61.724359 
L 566.467783 67.574614 
L 566.727605 67.083521 
L 566.987428 68.039885 
L 567.247251 67.066298 
L 568.026718 71.469056 
L 568.546364 64.705509 
L 568.806186 65.136307 
L 569.066009 66.420075 
L 569.845477 63.189079 
L 570.105299 60.992006 
L 570.365122 62.775518 
L 570.624945 62.456726 
L 570.884767 60.001169 
L 571.664235 58.726013 
L 571.924058 59.260177 
L 572.18388 63.654363 
L 572.443703 63.818039 
L 572.703525 63.094297 
L 573.482993 61.379719 
L 573.742816 61.147083 
L 574.522284 70.417923 
L 575.301752 71.193362 
L 575.561574 69.952652 
L 575.821397 70.581625 
L 576.08122 66.480383 
L 576.341042 66.713283 
L 577.12051 69.068049 
L 577.380333 69.068049 
L 577.640155 68.30039 
L 577.899978 65.626475 
L 578.1598 68.403876 
L 578.939268 65.798987 
L 579.199091 65.574726 
L 579.458914 64.953691 
L 579.718736 65.367701 
L 579.978559 64.203269 
L 580.758027 61.61563 
L 581.017849 59.726637 
L 581.277672 59.838788 
L 581.797317 57.768658 
L 582.576785 55.819317 
L 582.836608 53.179902 
L 583.09643 52.869378 
L 583.356253 52.843517 
L 583.616075 53.016029 
L 584.655366 48.763645 
L 584.915188 49.867703 
L 585.175011 48.599772 
L 585.434834 48.453135 
L 586.214302 45.94312 
L 586.474124 43.838504 
L 586.733947 48.522134 
L 586.993769 47.021303 
L 587.253592 42.96732 
L 588.03306 42.294535 
L 588.292882 39.767245 
L 588.812528 39.06 
L 589.07235 42.018537 
L 589.851818 44.942562 
L 590.111641 46.477893 
L 590.631286 52.144844 
L 590.891109 52.567479 
L 591.670576 51.152911 
L 591.930399 53.559413 
L 592.190222 53.136765 
L 592.709867 58.182668 
L 593.749157 61.261981 
L 594.00898 57.302885 
L 594.268803 65.591975 
L 594.528625 64.108407 
L 595.567916 70.439506 
L 595.827738 69.413059 
L 596.087561 69.559696 
L 596.347384 70.318743 
L 597.126851 64.211893 
L 597.386674 56.966486 
L 597.646497 56.017678 
L 598.166142 58.91584 
L 598.94561 65.807612 
L 599.205432 61.676004 
L 599.465255 61.96064 
L 599.725078 61.313731 
L 599.9849 66.135373 
L 600.764368 65.902249 
L 601.543836 53.916892 
L 601.803659 51.26596 
L 602.842949 51.378216 
L 603.102772 51.032822 
L 603.362594 50.203864 
L 603.622417 50.44564 
L 604.401885 49.107216 
L 604.661707 49.159032 
L 604.92153 54.927198 
L 605.181353 57.569492 
L 605.441175 53.649215 
L 606.220643 56.939145 
L 606.480466 58.752482 
L 606.740288 58.91654 
L 607.000111 59.270572 
L 607.259933 56.041096 
L 608.039401 66.049031 
L 608.818869 81.419271 
L 609.078692 78.129341 
L 609.85816 77.688968 
L 610.117982 78.820155 
L 610.377805 76.618234 
L 610.637627 77.602613 
L 610.89745 74.001841 
L 611.676918 71.877637 
L 611.936741 69.269869 
L 612.196563 71.18685 
L 612.456386 69.183528 
L 612.716208 74.321334 
L 613.755499 69.753434 
L 614.015322 69.148988 
L 614.534967 99.811752 
L 615.314435 105.787154 
L 615.574257 113.593169 
L 615.83408 90.770946 
L 616.093902 98.050219 
L 616.353725 91.375404 
L 617.133193 87.60191 
L 617.393016 87.93004 
L 617.652838 94.725762 
L 617.912661 92.385684 
L 618.951951 95.684252 
L 619.471596 85.805823 
L 619.731419 82.550459 
L 619.991242 81.764678 
L 620.77071 81.022062 
L 621.550177 78.276137 
L 621.81 85.158214 
L 622.589468 90.736406 
L 622.84929 91.06455 
L 623.109113 93.016044 
L 623.628758 91.047261 
L 624.408226 80.222109 
L 624.668049 78.371803 
L 625.447517 79.815734 
L 626.226984 81.960014 
L 626.486807 83.620096 
L 626.74663 87.744386 
L 627.006452 88.375565 
L 627.266275 93.641147 
L 628.305565 89.369876 
L 628.565388 89.188316 
L 628.825211 89.594692 
L 629.085033 88.81652 
L 629.864501 88.081591 
L 630.124324 86.724121 
L 630.384146 87.113194 
L 630.643969 89.006731 
L 630.903792 86.162114 
L 631.683259 88.297742 
L 631.943082 87.242898 
L 632.202905 90.606306 
L 632.462727 90.24316 
L 632.72255 92.620895 
L 633.502018 90.91757 
L 633.76184 93.321245 
L 634.021663 92.508494 
L 634.541308 88.686829 
L 635.320776 88.254512 
L 635.580599 89.292067 
L 635.840421 88.20263 
L 636.100244 88.686829 
L 636.360067 88.617658 
L 637.139534 85.081329 
L 637.399357 82.790055 
L 637.65918 78.795469 
L 637.919002 77.835724 
L 638.958293 80.9484 
L 639.218115 80.896519 
L 639.737761 78.82141 
L 639.997583 79.902194 
L 640.777051 82.098356 
L 641.036874 81.674678 
L 641.296696 80.766814 
L 641.556519 80.887867 
L 641.816341 79.884905 
L 642.595809 78.76089 
L 642.855632 77.100795 
L 643.375277 77.654164 
L 643.6351 77.550401 
L 644.414568 77.403407 
L 644.934213 81.72656 
L 645.194035 83.006207 
L 645.453858 87.493629 
L 646.233326 86.654937 
L 646.493149 87.026747 
L 647.012794 72.232937 
L 647.272616 64.17458 
L 648.052084 65.827913 
L 648.311907 63.689854 
L 648.571729 60.5044 
L 648.831552 60.980489 
L 649.091375 62.010567 
L 650.130665 62.902145 
L 650.390488 66.840676 
L 650.65031 67.801504 
L 650.910133 65.325857 
L 651.689601 65.845216 
L 651.949424 63.984158 
L 652.209246 62.962731 
L 652.469069 61.170924 
L 652.728891 61.534479 
L 653.768182 63.629255 
L 653.768182 63.629255 
" clip-path="url(#pd39f471fce)" style="fill: none; stroke: #1f77b4; stroke-width: 1.5; stroke-linecap: square"/>
   </g>
   <g id="patch_3">
    <path d="M 94.5 224.28 
L 94.5 30.24 
" style="fill: none; stroke: #000000; stroke-width: 0.8; stroke-linejoin: miter; stroke-linecap: square"/>
   </g>
   <g id="patch_4">
    <path d="M 94.5 224.28 
L 680.4 224.28 
" style="fill: none; stroke: #000000; stroke-width: 0.8; stroke-linejoin: miter; stroke-linecap: square"/>
   </g>
  </g>
 </g>
 <defs>
  <clipPath id="pd39f471fce">
   <rect x="94.5" y="30.24" width="585.9" height="194.04"/>
  </clipPath>
 </defs>
</svg>
