<?xml version="1.0" encoding="utf-8" standalone="no"?>
<!DOCTYPE svg PUBLIC "-//W3C//DTD SVG 1.1//EN"
  "http://www.w3.org/Graphics/SVG/1.1/DTD/svg11.dtd">
<svg xmlns:xlink="http://www.w3.org/1999/xlink" width="756pt" height="252pt" viewBox="0 0 756 252" xmlns="http://www.w3.org/2000/svg" version="1.1">
 <metadata>
  <rdf:RDF xmlns:dc="http://purl.org/dc/elements/1.1/" xmlns:cc="http://creativecommons.org/ns#" xmlns:rdf="http://www.w3.org/1999/02/22-rdf-syntax-ns#">
   <cc:Work>
    <dc:type rdf:resource="http://purl.org/dc/dcmitype/StillImage"/>
    <dc:date>2025-09-08T17:06:50.541002</dc:date>
    <dc:format>image/svg+xml</dc:format>
    <dc:creator>
     <cc:Agent>
      <dc:title>Matplotlib v3.10.5, https://matplotlib.org/</dc:title>
     </cc:Agent>
    </dc:creator>
   </cc:Work>
  </rdf:RDF>
 </metadata>
 <defs>
  <style type="text/css">*{stroke-linejoin: round; stroke-linecap: butt}</style>
 </defs>
 <g id="figure_1">
  <g id="patch_1">
   <path d="M 0 252 
L 756 252 
L 756 0 
L 0 0 
z
" style="fill: #ffffff"/>
  </g>
  <g id="axes_1">
   <g id="patch_2">
    <path d="M 94.5 224.28 
L 680.4 224.28 
L 680.4 30.24 
L 94.5 30.24 
z
" style="fill: #ffffff"/>
   </g>
   <g id="matplotlib.axis_1">
    <g id="xtick_1">
     <g id="line2d_1">
      <defs>
       <path id="m9104de022a" d="M 0 0 
L 0 3.5 
" style="stroke: #000000; stroke-width: 0.8"/>
      </defs>
      <g>
       <use xlink:href="#m9104de022a" x="115.683516" y="224.28" style="stroke: #000000; stroke-width: 0.8"/>
      </g>
     </g>
     <g id="text_1">
      <!-- 2020 -->
      <g transform="translate(102.958516 238.878438) scale(0.1 -0.1)">
       <defs>
        <path id="DejaVuSans-32" d="M 1228 531 
L 3431 531 
L 3431 0 
L 469 0 
L 469 531 
Q 828 903 1448 1529 
Q 2069 2156 2228 2338 
Q 2531 2678 2651 2914 
Q 2772 3150 2772 3378 
Q 2772 3750 2511 3984 
Q 2250 4219 1831 4219 
Q 1534 4219 1204 4116 
Q 875 4013 500 3803 
L 500 4441 
Q 881 4594 1212 4672 
Q 1544 4750 1819 4750 
Q 2544 4750 2975 4387 
Q 3406 4025 3406 3419 
Q 3406 3131 3298 2873 
Q 3191 2616 2906 2266 
Q 2828 2175 2409 1742 
Q 1991 1309 1228 531 
z
" transform="scale(0.015625)"/>
        <path id="DejaVuSans-30" d="M 2034 4250 
Q 1547 4250 1301 3770 
Q 1056 3291 1056 2328 
Q 1056 1369 1301 889 
Q 1547 409 2034 409 
Q 2525 409 2770 889 
Q 3016 1369 3016 2328 
Q 3016 3291 2770 3770 
Q 2525 4250 2034 4250 
z
M 2034 4750 
Q 2819 4750 3233 4129 
Q 3647 3509 3647 2328 
Q 3647 1150 3233 529 
Q 2819 -91 2034 -91 
Q 1250 -91 836 529 
Q 422 1150 422 2328 
Q 422 3509 836 4129 
Q 1250 4750 2034 4750 
z
" transform="scale(0.015625)"/>
       </defs>
       <use xlink:href="#DejaVuSans-32"/>
       <use xlink:href="#DejaVuSans-30" transform="translate(63.623047 0)"/>
       <use xlink:href="#DejaVuSans-32" transform="translate(127.246094 0)"/>
       <use xlink:href="#DejaVuSans-30" transform="translate(190.869141 0)"/>
      </g>
     </g>
    </g>
    <g id="xtick_2">
     <g id="line2d_2">
      <g>
       <use xlink:href="#m9104de022a" x="210.639634" y="224.28" style="stroke: #000000; stroke-width: 0.8"/>
      </g>
     </g>
     <g id="text_2">
      <!-- 2021 -->
      <g transform="translate(197.914634 238.878438) scale(0.1 -0.1)">
       <defs>
        <path id="DejaVuSans-31" d="M 794 531 
L 1825 531 
L 1825 4091 
L 703 3866 
L 703 4441 
L 1819 4666 
L 2450 4666 
L 2450 531 
L 3481 531 
L 3481 0 
L 794 0 
L 794 531 
z
" transform="scale(0.015625)"/>
       </defs>
       <use xlink:href="#DejaVuSans-32"/>
       <use xlink:href="#DejaVuSans-30" transform="translate(63.623047 0)"/>
       <use xlink:href="#DejaVuSans-32" transform="translate(127.246094 0)"/>
       <use xlink:href="#DejaVuSans-31" transform="translate(190.869141 0)"/>
      </g>
     </g>
    </g>
    <g id="xtick_3">
     <g id="line2d_3">
      <g>
       <use xlink:href="#m9104de022a" x="305.336308" y="224.28" style="stroke: #000000; stroke-width: 0.8"/>
      </g>
     </g>
     <g id="text_3">
      <!-- 2022 -->
      <g transform="translate(292.611308 238.878438) scale(0.1 -0.1)">
       <use xlink:href="#DejaVuSans-32"/>
       <use xlink:href="#DejaVuSans-30" transform="translate(63.623047 0)"/>
       <use xlink:href="#DejaVuSans-32" transform="translate(127.246094 0)"/>
       <use xlink:href="#DejaVuSans-32" transform="translate(190.869141 0)"/>
      </g>
     </g>
    </g>
    <g id="xtick_4">
     <g id="line2d_4">
      <g>
       <use xlink:href="#m9104de022a" x="400.032983" y="224.28" style="stroke: #000000; stroke-width: 0.8"/>
      </g>
     </g>
     <g id="text_4">
      <!-- 2023 -->
      <g transform="translate(387.307983 238.878438) scale(0.1 -0.1)">
       <defs>
        <path id="DejaVuSans-33" d="M 2597 2516 
Q 3050 2419 3304 2112 
Q 3559 1806 3559 1356 
Q 3559 666 3084 287 
Q 2609 -91 1734 -91 
Q 1441 -91 1130 -33 
Q 819 25 488 141 
L 488 750 
Q 750 597 1062 519 
Q 1375 441 1716 441 
Q 2309 441 2620 675 
Q 2931 909 2931 1356 
Q 2931 1769 2642 2001 
Q 2353 2234 1838 2234 
L 1294 2234 
L 1294 2753 
L 1863 2753 
Q 2328 2753 2575 2939 
Q 2822 3125 2822 3475 
Q 2822 3834 2567 4026 
Q 2313 4219 1838 4219 
Q 1578 4219 1281 4162 
Q 984 4106 628 3988 
L 628 4550 
Q 988 4650 1302 4700 
Q 1616 4750 1894 4750 
Q 2613 4750 3031 4423 
Q 3450 4097 3450 3541 
Q 3450 3153 3228 2886 
Q 3006 2619 2597 2516 
z
" transform="scale(0.015625)"/>
       </defs>
       <use xlink:href="#DejaVuSans-32"/>
       <use xlink:href="#DejaVuSans-30" transform="translate(63.623047 0)"/>
       <use xlink:href="#DejaVuSans-32" transform="translate(127.246094 0)"/>
       <use xlink:href="#DejaVuSans-33" transform="translate(190.869141 0)"/>
      </g>
     </g>
    </g>
    <g id="xtick_5">
     <g id="line2d_5">
      <g>
       <use xlink:href="#m9104de022a" x="494.729657" y="224.28" style="stroke: #000000; stroke-width: 0.8"/>
      </g>
     </g>
     <g id="text_5">
      <!-- 2024 -->
      <g transform="translate(482.004657 238.878438) scale(0.1 -0.1)">
       <defs>
        <path id="DejaVuSans-34" d="M 2419 4116 
L 825 1625 
L 2419 1625 
L 2419 4116 
z
M 2253 4666 
L 3047 4666 
L 3047 1625 
L 3713 1625 
L 3713 1100 
L 3047 1100 
L 3047 0 
L 2419 0 
L 2419 1100 
L 313 1100 
L 313 1709 
L 2253 4666 
z
" transform="scale(0.015625)"/>
       </defs>
       <use xlink:href="#DejaVuSans-32"/>
       <use xlink:href="#DejaVuSans-30" transform="translate(63.623047 0)"/>
       <use xlink:href="#DejaVuSans-32" transform="translate(127.246094 0)"/>
       <use xlink:href="#DejaVuSans-34" transform="translate(190.869141 0)"/>
      </g>
     </g>
    </g>
    <g id="xtick_6">
     <g id="line2d_6">
      <g>
       <use xlink:href="#m9104de022a" x="589.685775" y="224.28" style="stroke: #000000; stroke-width: 0.8"/>
      </g>
     </g>
     <g id="text_6">
      <!-- 2025 -->
      <g transform="translate(576.960775 238.878438) scale(0.1 -0.1)">
       <defs>
        <path id="DejaVuSans-35" d="M 691 4666 
L 3169 4666 
L 3169 4134 
L 1269 4134 
L 1269 2991 
Q 1406 3038 1543 3061 
Q 1681 3084 1819 3084 
Q 2600 3084 3056 2656 
Q 3513 2228 3513 1497 
Q 3513 744 3044 326 
Q 2575 -91 1722 -91 
Q 1428 -91 1123 -41 
Q 819 9 494 109 
L 494 744 
Q 775 591 1075 516 
Q 1375 441 1709 441 
Q 2250 441 2565 725 
Q 2881 1009 2881 1497 
Q 2881 1984 2565 2268 
Q 2250 2553 1709 2553 
Q 1456 2553 1204 2497 
Q 953 2441 691 2322 
L 691 4666 
z
" transform="scale(0.015625)"/>
       </defs>
       <use xlink:href="#DejaVuSans-32"/>
       <use xlink:href="#DejaVuSans-30" transform="translate(63.623047 0)"/>
       <use xlink:href="#DejaVuSans-32" transform="translate(127.246094 0)"/>
       <use xlink:href="#DejaVuSans-35" transform="translate(190.869141 0)"/>
      </g>
     </g>
    </g>
   </g>
   <g id="matplotlib.axis_2">
    <g id="ytick_1">
     <g id="line2d_7">
      <defs>
       <path id="m5873ef26a4" d="M 0 0 
L -3.5 0 
" style="stroke: #000000; stroke-width: 0.8"/>
      </defs>
      <g>
       <use xlink:href="#m5873ef26a4" x="94.5" y="219.196779" style="stroke: #000000; stroke-width: 0.8"/>
      </g>
     </g>
     <g id="text_7">
      <!-- 50 -->
      <g transform="translate(74.775 222.995998) scale(0.1 -0.1)">
       <use xlink:href="#DejaVuSans-35"/>
       <use xlink:href="#DejaVuSans-30" transform="translate(63.623047 0)"/>
      </g>
     </g>
    </g>
    <g id="ytick_2">
     <g id="line2d_8">
      <g>
       <use xlink:href="#m5873ef26a4" x="94.5" y="197.556516" style="stroke: #000000; stroke-width: 0.8"/>
      </g>
     </g>
     <g id="text_8">
      <!-- 75 -->
      <g transform="translate(74.775 201.355735) scale(0.1 -0.1)">
       <defs>
        <path id="DejaVuSans-37" d="M 525 4666 
L 3525 4666 
L 3525 4397 
L 1831 0 
L 1172 0 
L 2766 4134 
L 525 4134 
L 525 4666 
z
" transform="scale(0.015625)"/>
       </defs>
       <use xlink:href="#DejaVuSans-37"/>
       <use xlink:href="#DejaVuSans-35" transform="translate(63.623047 0)"/>
      </g>
     </g>
    </g>
    <g id="ytick_3">
     <g id="line2d_9">
      <g>
       <use xlink:href="#m5873ef26a4" x="94.5" y="175.916253" style="stroke: #000000; stroke-width: 0.8"/>
      </g>
     </g>
     <g id="text_9">
      <!-- 100 -->
      <g transform="translate(68.4125 179.715471) scale(0.1 -0.1)">
       <use xlink:href="#DejaVuSans-31"/>
       <use xlink:href="#DejaVuSans-30" transform="translate(63.623047 0)"/>
       <use xlink:href="#DejaVuSans-30" transform="translate(127.246094 0)"/>
      </g>
     </g>
    </g>
    <g id="ytick_4">
     <g id="line2d_10">
      <g>
       <use xlink:href="#m5873ef26a4" x="94.5" y="154.275989" style="stroke: #000000; stroke-width: 0.8"/>
      </g>
     </g>
     <g id="text_10">
      <!-- 125 -->
      <g transform="translate(68.4125 158.075208) scale(0.1 -0.1)">
       <use xlink:href="#DejaVuSans-31"/>
       <use xlink:href="#DejaVuSans-32" transform="translate(63.623047 0)"/>
       <use xlink:href="#DejaVuSans-35" transform="translate(127.246094 0)"/>
      </g>
     </g>
    </g>
    <g id="ytick_5">
     <g id="line2d_11">
      <g>
       <use xlink:href="#m5873ef26a4" x="94.5" y="132.635726" style="stroke: #000000; stroke-width: 0.8"/>
      </g>
     </g>
     <g id="text_11">
      <!-- 150 -->
      <g transform="translate(68.4125 136.434945) scale(0.1 -0.1)">
       <use xlink:href="#DejaVuSans-31"/>
       <use xlink:href="#DejaVuSans-35" transform="translate(63.623047 0)"/>
       <use xlink:href="#DejaVuSans-30" transform="translate(127.246094 0)"/>
      </g>
     </g>
    </g>
    <g id="ytick_6">
     <g id="line2d_12">
      <g>
       <use xlink:href="#m5873ef26a4" x="94.5" y="110.995463" style="stroke: #000000; stroke-width: 0.8"/>
      </g>
     </g>
     <g id="text_12">
      <!-- 175 -->
      <g transform="translate(68.4125 114.794682) scale(0.1 -0.1)">
       <use xlink:href="#DejaVuSans-31"/>
       <use xlink:href="#DejaVuSans-37" transform="translate(63.623047 0)"/>
       <use xlink:href="#DejaVuSans-35" transform="translate(127.246094 0)"/>
      </g>
     </g>
    </g>
    <g id="ytick_7">
     <g id="line2d_13">
      <g>
       <use xlink:href="#m5873ef26a4" x="94.5" y="89.3552" style="stroke: #000000; stroke-width: 0.8"/>
      </g>
     </g>
     <g id="text_13">
      <!-- 200 -->
      <g transform="translate(68.4125 93.154419) scale(0.1 -0.1)">
       <use xlink:href="#DejaVuSans-32"/>
       <use xlink:href="#DejaVuSans-30" transform="translate(63.623047 0)"/>
       <use xlink:href="#DejaVuSans-30" transform="translate(127.246094 0)"/>
      </g>
     </g>
    </g>
    <g id="ytick_8">
     <g id="line2d_14">
      <g>
       <use xlink:href="#m5873ef26a4" x="94.5" y="67.714937" style="stroke: #000000; stroke-width: 0.8"/>
      </g>
     </g>
     <g id="text_14">
      <!-- 225 -->
      <g transform="translate(68.4125 71.514155) scale(0.1 -0.1)">
       <use xlink:href="#DejaVuSans-32"/>
       <use xlink:href="#DejaVuSans-32" transform="translate(63.623047 0)"/>
       <use xlink:href="#DejaVuSans-35" transform="translate(127.246094 0)"/>
      </g>
     </g>
    </g>
    <g id="ytick_9">
     <g id="line2d_15">
      <g>
       <use xlink:href="#m5873ef26a4" x="94.5" y="46.074673" style="stroke: #000000; stroke-width: 0.8"/>
      </g>
     </g>
     <g id="text_15">
      <!-- 250 -->
      <g transform="translate(68.4125 49.873892) scale(0.1 -0.1)">
       <use xlink:href="#DejaVuSans-32"/>
       <use xlink:href="#DejaVuSans-35" transform="translate(63.623047 0)"/>
       <use xlink:href="#DejaVuSans-30" transform="translate(127.246094 0)"/>
      </g>
     </g>
    </g>
   </g>
   <g id="line2d_16">
    <path d="M 121.131818 196.06007 
L 121.391261 195.740228 
L 121.650704 195.932545 
L 122.429033 197.889309 
L 122.947919 194.671958 
L 123.207362 194.770193 
L 123.466805 197.772238 
L 124.245134 197.949941 
L 124.504576 195.819642 
L 125.023462 194.490055 
L 125.282905 195.414197 
L 126.061234 195.095669 
L 126.320677 195.50219 
L 126.58012 193.911695 
L 126.839563 194.399955 
L 127.099006 194.383194 
L 128.136778 195.630025 
L 128.396221 194.6619 
L 128.655664 195.357607 
L 128.915106 196.876857 
L 129.693435 199.992921 
L 129.952878 202.109398 
L 130.212321 201.151746 
L 130.471764 205.160485 
L 130.731207 205.19404 
L 131.509536 199.860899 
L 131.768979 201.84956 
L 132.028422 199.03735 
L 132.287865 201.095143 
L 132.547308 201.910344 
L 133.325637 206.700696 
L 133.585079 202.68357 
L 133.844522 204.760231 
L 134.103965 210.460068 
L 134.363408 204.227975 
L 135.141737 211.721577 
L 135.40118 209.489842 
L 135.660623 210.786967 
L 135.920066 211.18303 
L 136.179509 214.439464 
L 136.957838 215.46 
L 137.217281 210.742963 
L 137.476724 211.027953 
L 137.736167 208.320533 
L 137.99561 210.562745 
L 138.773938 209.081221 
L 139.033381 209.190185 
L 139.292824 211.993988 
L 139.552267 211.151591 
L 139.81171 211.889211 
L 140.590039 207.476039 
L 140.849482 208.113078 
L 141.108925 206.721644 
L 141.368368 206.31931 
L 142.40614 205.217075 
L 142.665583 202.325246 
L 142.925025 202.874283 
L 143.184468 202.400664 
L 143.443911 203.215826 
L 144.22224 204.445897 
L 144.481683 206.239698 
L 144.741126 204.619828 
L 145.000569 204.844063 
L 145.260012 203.180211 
L 146.038341 203.138294 
L 146.297784 204.10016 
L 146.81667 200.910757 
L 147.076113 201.901937 
L 147.854441 201.044859 
L 148.373327 199.47952 
L 148.63277 198.827815 
L 148.892213 197.312845 
L 149.670542 196.287455 
L 150.189428 197.833953 
L 150.448871 197.43679 
L 150.708314 197.821333 
L 151.486643 196.297949 
L 151.746086 196.680372 
L 152.005528 195.400738 
L 152.264971 195.900839 
L 152.524414 195.472168 
L 153.562186 195.926067 
L 153.821629 195.636075 
L 154.340515 195.671783 
L 155.63773 194.163152 
L 155.897173 194.751477 
L 156.156616 192.822583 
L 156.934944 192.410752 
L 157.45383 188.338634 
L 157.713273 191.898064 
L 157.972716 191.288725 
L 158.751045 190.408295 
L 159.010488 188.498341 
L 159.269931 188.601259 
L 159.529374 188.571844 
L 159.788817 188.994202 
L 160.567146 187.071601 
L 160.826589 185.46208 
L 161.086032 186.821544 
L 161.345474 185.817175 
L 161.604917 188.172621 
L 162.642689 185.825582 
L 162.902132 185.970575 
L 163.161575 185.970575 
L 164.199347 183.924009 
L 164.45879 184.167732 
L 164.718233 182.343896 
L 164.977676 181.999301 
L 165.237119 181.858528 
L 166.015447 182.230424 
L 166.27489 180.902488 
L 166.534333 180.341458 
L 166.793776 181.352147 
L 167.053219 181.516034 
L 167.831548 179.809856 
L 168.090991 180.950797 
L 168.350434 180.721781 
L 168.609877 184.442991 
L 168.86932 184.636299 
L 169.647649 182.791461 
L 169.907092 184.100496 
L 170.425978 181.631599 
L 170.68542 173.167963 
L 171.723192 170.306116 
L 171.982635 169.972042 
L 172.242078 166.744593 
L 172.501521 168.921174 
L 173.27985 167.561333 
L 173.539293 170.384137 
L 173.798736 167.323474 
L 174.058179 165.639498 
L 175.09595 165.97838 
L 175.355393 165.174287 
L 175.614836 165.052197 
L 175.874279 162.890383 
L 176.133722 157.758416 
L 176.912051 156.505951 
L 177.171494 157.375313 
L 177.430937 155.94603 
L 177.69038 157.219542 
L 177.949823 157.390053 
L 178.728152 153.826331 
L 178.987595 149.49845 
L 179.247038 151.839201 
L 179.506481 160.696989 
L 179.765923 160.629607 
L 180.803695 167.483464 
L 181.063138 163.694483 
L 181.322581 166.91933 
L 181.582024 168.173895 
L 182.360353 165.344778 
L 182.619796 165.193227 
L 182.879239 168.064439 
L 183.138682 169.571597 
L 183.398125 172.518583 
L 184.176454 169.790509 
L 184.435896 168.333886 
L 184.695339 172.282831 
L 184.954782 171.356641 
L 185.214225 167.938142 
L 185.992554 165.681586 
L 186.251997 166.414125 
L 186.770883 164.140728 
L 187.030326 167.315067 
L 187.808655 164.384934 
L 188.068098 167.197177 
L 188.327541 165.580537 
L 188.586984 165.673166 
L 188.846427 163.989171 
L 189.624755 157.733148 
L 189.884198 160.511731 
L 190.143641 160.435949 
L 190.403084 160.840119 
L 190.662527 162.263088 
L 191.440856 164.822765 
L 191.700299 163.534499 
L 191.959742 164.073366 
L 192.478628 165.614225 
L 193.256957 165.605791 
L 193.5164 164.300712 
L 193.775842 168.847505 
L 194.035285 165.378472 
L 194.294728 170.817754 
L 195.073057 170.893536 
L 195.3325 169.487401 
L 195.851386 162.254654 
L 196.110829 162.368535 
L 196.889158 164.367512 
L 197.148601 164.662728 
L 197.408044 161.693789 
L 197.667487 161.929938 
L 197.92693 161.887778 
L 198.705258 161.010584 
L 198.964701 161.77811 
L 199.224144 162.925213 
L 199.483587 162.410696 
L 200.521359 166.450823 
L 201.040245 164.612101 
L 201.559131 164.139777 
L 202.33746 162.064893 
L 202.596903 158.969446 
L 202.856345 158.665797 
L 203.115788 158.783878 
L 203.375231 159.365856 
L 204.413003 157.569308 
L 204.672446 159.76228 
L 204.931889 158.530849 
L 205.191332 159.230908 
L 205.969661 159.76228 
L 206.229104 154.617242 
L 206.488547 154.676289 
L 206.74799 153.925616 
L 207.007433 155.646251 
L 207.785761 154.322046 
L 208.045204 151.243473 
L 208.304647 152.01944 
L 208.56409 151.167553 
L 209.601862 147.186505 
L 210.120748 149.69154 
L 210.380191 150.560241 
L 211.417963 153.326778 
L 211.677406 151.977246 
L 211.936849 155.696865 
L 212.196291 152.053154 
L 212.455734 151.100072 
L 213.234063 153.689461 
L 213.493506 153.841276 
L 213.752949 152.078467 
L 214.271835 155.241407 
L 215.309607 154.659416 
L 216.087936 145.179075 
L 216.866264 141.93182 
L 217.125707 141.729365 
L 217.38515 142.65716 
L 217.904036 151.175979 
L 218.941808 148.620344 
L 219.201251 149.505925 
L 219.460694 146.59606 
L 219.720137 146.955045 
L 220.498466 146.828366 
L 221.017352 148.112332 
L 221.276794 148.331944 
L 221.536237 148.129198 
L 222.574009 149.970668 
L 222.833452 151.955743 
L 223.092895 152.910252 
L 223.352338 152.775125 
L 224.130667 156.044114 
L 224.39011 156.162387 
L 224.649553 156.593164 
L 224.908996 160.27611 
L 225.168439 160.048045 
L 225.946767 154.532096 
L 226.725096 161.002553 
L 226.984539 159.912892 
L 227.762868 164.187108 
L 228.022311 160.191644 
L 228.281754 161.129259 
L 228.541197 159.456742 
L 228.80064 160.24233 
L 229.578969 157.741985 
L 229.838412 156.407359 
L 230.097855 157.091561 
L 230.357298 160.664688 
L 230.61674 161.120826 
L 231.395069 158.248815 
L 231.654512 158.966811 
L 231.913955 161.036346 
L 232.432841 160.090278 
L 233.21117 159.938226 
L 233.470613 161.196839 
L 233.730056 159.296243 
L 233.989499 158.57826 
L 235.027271 156.1286 
L 235.286713 155.866742 
L 235.546156 154.439196 
L 236.065042 150.131187 
L 236.843371 151.617832 
L 237.102814 148.923234 
L 237.362257 150.950516 
L 237.6217 148.864127 
L 237.881143 149.151313 
L 238.659472 148.576902 
L 238.918915 150.038215 
L 239.178358 149.708816 
L 239.437801 151.026555 
L 239.697244 149.016167 
L 240.475572 148.678275 
L 240.735015 148.95702 
L 240.994458 149.641256 
L 241.253901 149.725736 
L 241.513344 151.432046 
L 242.291673 150.519758 
L 242.551116 154.481409 
L 242.810559 154.270224 
L 243.070002 152.884938 
L 243.329445 152.301038 
L 244.367216 155.939486 
L 244.626659 158.596375 
L 245.145545 154.636427 
L 245.923874 155.634885 
L 246.183317 156.836406 
L 246.44276 156.971783 
L 246.702203 154.754885 
L 246.961646 156.345643 
L 247.739975 154.932587 
L 248.258861 155.144136 
L 248.518304 156.472574 
L 248.777747 157.039488 
L 249.815518 157.318702 
L 250.074961 156.658717 
L 250.334404 157.944849 
L 250.593847 155.956418 
L 251.372176 155.947952 
L 251.631619 155.237194 
L 251.891062 154.907208 
L 252.150505 155.770269 
L 252.409948 154.721039 
L 253.188277 152.072609 
L 253.44772 152.7834 
L 253.707162 152.35185 
L 253.966605 150.964186 
L 254.226048 152.089529 
L 255.004377 150.532636 
L 255.26382 149.111133 
L 256.042149 149.847251 
L 256.820478 148.434215 
L 257.079921 147.12271 
L 257.339364 146.589601 
L 257.598807 146.32734 
L 257.85825 144.051176 
L 258.896021 142.308134 
L 259.155464 140.150461 
L 259.414907 141.27581 
L 259.67435 139.693537 
L 260.452679 140.209699 
L 260.712122 139.245094 
L 260.971565 136.275171 
L 261.231008 136.842066 
L 261.490451 138.610494 
L 262.26878 141.944302 
L 262.528223 138.813583 
L 262.787666 139.448183 
L 263.306551 136.774374 
L 264.08488 136.410528 
L 264.603766 139.803561 
L 264.863209 139.245094 
L 265.122652 139.058925 
L 265.900981 139.346638 
L 266.160424 137.789712 
L 266.419867 138.136651 
L 266.67931 138.043586 
L 266.938753 138.636778 
L 267.717081 138.679124 
L 267.976524 139.094336 
L 268.235967 138.874023 
L 268.49541 136.306382 
L 268.754853 136.128402 
L 269.533182 134.416663 
L 269.792625 135.204755 
L 270.052068 138.450345 
L 270.311511 138.162196 
L 270.570954 136.899574 
L 271.349283 135.611513 
L 271.608726 135.687777 
L 272.127611 137.450407 
L 272.387054 136.55212 
L 273.165383 132.721843 
L 273.424826 133.814978 
L 273.684269 133.238772 
L 274.203155 131.721866 
L 275.240927 129.696592 
L 275.759813 131.916806 
L 276.019256 136.238584 
L 276.797584 135.747095 
L 277.057027 136.958892 
L 277.31647 136.18772 
L 277.575913 136.391112 
L 277.835356 138.704549 
L 278.613685 141.348468 
L 278.873128 140.933243 
L 279.132571 138.882503 
L 279.392014 138.052039 
L 279.651457 137.975802 
L 280.429786 139.289275 
L 280.689229 142.221304 
L 280.948672 141.441691 
L 281.208115 142.568744 
L 281.467557 141.594233 
L 282.245886 144.568646 
L 282.505329 142.899266 
L 283.024215 141.051879 
L 283.283658 141.38236 
L 284.061987 141.458651 
L 284.32143 142.560265 
L 284.580873 143.0687 
L 284.840316 140.653613 
L 285.099759 139.738392 
L 285.878087 138.289337 
L 286.13753 136.416538 
L 286.396973 135.992873 
L 286.656416 135.806413 
L 286.915859 136.475856 
L 287.694188 136.518241 
L 287.953631 135.941982 
L 288.213074 136.340287 
L 288.472517 133.187907 
L 288.73196 135.535223 
L 289.510289 136.247064 
L 290.029175 134.103088 
L 290.288618 134.552245 
L 290.54806 134.093961 
L 291.326389 134.806845 
L 291.585832 134.492848 
L 291.845275 136.945446 
L 292.104718 136.987857 
L 292.364161 135.18872 
L 293.14249 135.180227 
L 293.401933 134.331615 
L 293.661376 132.21848 
L 294.180262 126.22703 
L 294.958591 125.82817 
L 295.477476 125.047382 
L 295.996362 129.40094 
L 296.774691 126.490111 
L 297.034134 122.195963 
L 297.293577 122.645728 
L 297.55302 123.502859 
L 297.812463 125.132258 
L 298.590792 122.178938 
L 299.109678 113.896188 
L 299.369121 114.33746 
L 299.628564 110.187585 
L 300.666335 114.532624 
L 300.925778 110.314886 
L 301.185221 116.289403 
L 301.444664 117.239862 
L 302.222993 118.419471 
L 302.741879 113.420932 
L 303.001322 112.877825 
L 304.039094 109.440782 
L 304.298537 110.323352 
L 304.557979 110.247022 
L 304.817422 111.248399 
L 305.076865 111.783026 
L 305.855194 108.015053 
L 306.114637 109.975436 
L 306.633523 116.509992 
L 306.892966 116.365706 
L 307.671295 116.348773 
L 307.930738 113.896188 
L 308.190181 113.514314 
L 308.449624 116.348773 
L 308.709067 115.601944 
L 309.746838 118.377033 
L 310.006281 121.406709 
L 310.525167 124.648522 
L 311.303496 125.318982 
L 311.562939 126.880491 
L 311.822382 126.956848 
L 312.081825 127.355695 
L 312.341268 117.927229 
L 313.119597 114.150789 
L 313.37904 114.295048 
L 313.638482 113.251207 
L 313.897925 115.74623 
L 314.935697 116.612923 
L 315.19514 113.919289 
L 315.454583 112.687192 
L 315.973469 119.179125 
L 316.751798 118.975178 
L 317.011241 115.652756 
L 317.270684 115.85669 
L 317.530127 118.975178 
L 317.78957 120.317749 
L 318.827341 122.849926 
L 319.086784 126.461264 
L 319.60567 122.399581 
L 320.383999 122.170168 
L 320.643442 123.801641 
L 320.902885 120.946563 
L 321.162328 121.226973 
L 321.421771 123.827146 
L 322.2001 127.11557 
L 322.459543 128.696073 
L 322.718986 124.014068 
L 323.237871 130.998838 
L 324.0162 134.49121 
L 324.535086 126.869172 
L 324.794529 125.993972 
L 325.053972 123.138868 
L 325.832301 121.949235 
L 326.091744 119.026148 
L 326.351187 117.845047 
L 326.61063 114.565089 
L 326.870073 114.012777 
L 327.648401 113.265049 
L 327.907844 110.409932 
L 328.167287 111.421109 
L 328.42673 114.106264 
L 328.686173 114.361155 
L 329.464502 110.851811 
L 329.983388 116.468519 
L 330.242831 116.205082 
L 330.502274 117.947028 
L 331.280603 121.634854 
L 331.540046 120.011847 
L 331.799489 117.683617 
L 332.058931 122.02571 
L 333.096703 122.212632 
L 333.356146 120.232794 
L 333.615589 120.377238 
L 333.875032 121.065516 
L 334.134475 124.999767 
L 334.912804 124.073557 
L 335.172247 129.239893 
L 335.43169 129.435334 
L 335.691133 123.427784 
L 335.950576 128.517644 
L 336.728904 128.25422 
L 336.988347 126.962633 
L 337.24779 121.405402 
L 337.507233 129.265385 
L 337.766676 128.635672 
L 338.545005 133.07779 
L 338.804448 130.992881 
L 339.063891 137.809194 
L 339.323334 141.162061 
L 339.582777 137.290113 
L 340.361106 138.626159 
L 340.620549 135.47753 
L 340.879992 142.642763 
L 341.139435 145.595634 
L 341.398877 145.391436 
L 342.177206 140.694003 
L 342.436649 143.0342 
L 342.696092 142.898037 
L 342.955535 140.12386 
L 343.214978 135.137155 
L 344.512193 135.928536 
L 344.771636 133.801096 
L 345.031079 138.762296 
L 345.809408 138.115544 
L 346.06885 135.928536 
L 346.328293 136.566781 
L 346.847179 145.782847 
L 347.625508 150.250483 
L 347.884951 149.501659 
L 348.144394 147.229498 
L 348.403837 151.79928 
L 348.66328 150.522796 
L 349.701052 146.855086 
L 349.960495 147.297599 
L 350.479381 141.927937 
L 351.257709 141.927937 
L 351.517152 145.519053 
L 351.776595 143.995795 
L 352.036038 146.131767 
L 352.295481 144.251135 
L 353.333253 142.013011 
L 353.592696 140.855711 
L 353.852139 137.936864 
L 354.111582 137.349682 
L 354.889911 139.196316 
L 355.149353 138.353846 
L 355.408796 138.668663 
L 355.927682 134.686109 
L 356.706011 137.324177 
L 356.965454 133.979816 
L 357.48434 130.278042 
L 357.743783 131.350294 
L 358.522112 132.320408 
L 358.781555 133.469228 
L 359.040998 129.052654 
L 359.300441 128.576103 
L 359.559884 124.185061 
L 360.338212 125.03605 
L 360.597655 126.31254 
L 360.857098 121.104533 
L 361.375984 121.572828 
L 362.154313 121.981885 
L 362.413756 121.939249 
L 362.673199 118.257948 
L 362.932642 118.897052 
L 363.192085 115.82075 
L 363.970414 114.891912 
L 364.229857 115.02826 
L 364.489299 113.732988 
L 364.748742 114.073851 
L 365.008185 116.315013 
L 365.786514 119.681049 
L 366.045957 119.97077 
L 366.3054 119.715139 
L 366.564843 117.584714 
L 366.824286 123.047085 
L 367.602615 124.955903 
L 368.121501 128.500883 
L 368.380944 127.870259 
L 368.640387 129.702417 
L 369.678158 130.7932 
L 369.937601 129.574628 
L 370.197044 130.852848 
L 370.456487 128.373067 
L 371.234816 123.20899 
L 371.494259 131.381201 
L 371.753702 130.128512 
L 372.013145 132.633864 
L 372.272588 134.056978 
L 373.050917 130.835809 
L 373.31036 128.773579 
L 373.569803 131.483459 
L 373.829245 132.318558 
L 374.088688 134.287051 
L 374.867017 133.99733 
L 375.12646 133.153685 
L 375.385903 134.78982 
L 375.904789 144.708943 
L 376.683118 141.08729 
L 376.942561 137.976925 
L 377.202004 137.721254 
L 377.461447 138.547861 
L 377.72089 143.098379 
L 378.499218 142.817164 
L 378.758661 144.044282 
L 379.018104 144.589634 
L 379.277547 140.627091 
L 379.53699 144.555557 
L 380.574762 139.979481 
L 380.834205 139.885769 
L 381.093648 140.286254 
L 381.353091 136.97988 
L 382.13142 135.122177 
L 382.390863 132.659422 
L 382.650306 135.207396 
L 382.909748 139.084694 
L 383.169191 129.762078 
L 383.94752 131.807257 
L 384.206963 134.099588 
L 384.725849 144.129488 
L 384.985292 144.359944 
L 385.763621 143.899045 
L 386.023064 143.40395 
L 386.282507 147.355992 
L 386.54195 137.113137 
L 386.801393 134.697508 
L 387.579721 135.909595 
L 387.839164 134.407298 
L 388.098607 135.474267 
L 388.35805 133.826852 
L 388.617493 133.340329 
L 389.395822 136.140038 
L 389.655265 134.287791 
L 389.914708 133.52811 
L 391.211923 139.375075 
L 391.471366 141.978485 
L 391.730809 136.123 
L 391.990252 135.883985 
L 392.249694 136.310767 
L 393.028023 137.317956 
L 393.287466 140.493266 
L 393.546909 142.174784 
L 393.806352 140.715202 
L 394.065795 141.133439 
L 395.103567 138.308119 
L 395.36301 140.237186 
L 395.622453 145.964657 
L 395.881896 147.66328 
L 396.660225 149.489944 
L 396.919667 149.549671 
L 397.17911 146.86091 
L 397.438553 149.609411 
L 397.697996 149.925258 
L 398.735768 151.487283 
L 398.995211 154.893042 
L 399.254654 151.845799 
L 399.514097 151.57266 
L 400.551869 155.720996 
L 400.811312 154.619897 
L 401.070755 155.763678 
L 401.330197 151.83724 
L 402.108526 151.384867 
L 402.367969 150.889772 
L 402.627412 148.533923 
L 402.886855 148.602183 
L 403.146298 147.449863 
L 404.18407 146.442661 
L 404.443513 147.065782 
L 404.702956 147.014548 
L 404.962399 144.795272 
L 406.00017 140.817645 
L 406.259613 141.389519 
L 406.778499 137.915507 
L 407.556828 140.41646 
L 408.075714 138.342276 
L 408.5946 130.600347 
L 409.372929 132.964768 
L 409.632372 130.472347 
L 409.891815 132.802598 
L 410.151258 133.698812 
L 410.410701 133.382516 
L 411.189029 130.95467 
L 411.448472 131.510351 
L 411.707915 129.689459 
L 412.226801 132.066031 
L 413.264573 135.545354 
L 413.783459 134.758873 
L 414.042902 137.058495 
L 414.821231 136.02411 
L 415.080674 136.460059 
L 415.340116 138.255313 
L 415.599559 137.742387 
L 415.859002 133.365438 
L 416.637331 130.971774 
L 416.896774 132.878136 
L 417.156217 131.792451 
L 417.675103 135.528262 
L 418.453432 133.844128 
L 418.712875 132.031836 
L 418.972318 131.689876 
L 419.231761 129.244952 
L 419.491204 129.971573 
L 420.269532 127.919855 
L 420.528975 126.312712 
L 420.788418 127.552272 
L 421.307304 125.483463 
L 422.345076 127.70616 
L 422.604519 125.038916 
L 422.863962 123.679663 
L 423.123405 121.50832 
L 423.901734 120.422622 
L 424.161177 120.884234 
L 424.420619 122.482871 
L 424.680062 121.713456 
L 425.717834 123.961777 
L 426.23672 125.611701 
L 426.496163 120.94408 
L 426.755606 121.243298 
L 427.533935 121.226193 
L 428.052821 119.174476 
L 428.312264 120.012283 
L 428.571707 121.405719 
L 429.350035 121.140697 
L 429.609478 122.474286 
L 429.868921 122.482871 
L 430.128364 118.507688 
L 430.387807 117.422003 
L 431.166136 117.498941 
L 431.685022 119.328364 
L 431.944465 120.74745 
L 432.203908 114.09653 
L 432.982237 114.156363 
L 433.24168 115.635294 
L 433.501123 114.105089 
L 433.760565 113.942654 
L 434.020008 114.747336 
L 434.798337 115.175373 
L 435.05778 115.175373 
L 435.317223 114.644629 
L 435.576666 112.624334 
L 435.836109 112.530147 
L 436.614438 113.351985 
L 436.873881 115.611969 
L 437.133324 115.372267 
L 437.392767 114.387809 
L 437.65221 112.299004 
L 438.689981 110.698174 
L 438.949424 110.741008 
L 439.208867 108.309793 
L 439.46831 107.57357 
L 440.506082 109.063121 
L 440.765525 110.253019 
L 441.024968 107.8989 
L 441.284411 107.564998 
L 442.06274 105.142382 
L 442.322183 105.553275 
L 442.581626 105.005413 
L 442.841069 103.241911 
L 443.100511 104.175042 
L 444.138283 104.097973 
L 444.397726 104.996828 
L 444.657169 102.394449 
L 444.916612 102.668386 
L 445.694941 103.875415 
L 445.954384 101.487008 
L 446.213827 100.468302 
L 446.47327 100.177247 
L 446.732713 96.427699 
L 448.029927 98.687682 
L 448.28937 98.276802 
L 448.548813 99.244116 
L 449.586585 101.46989 
L 449.846028 100.023147 
L 450.105471 99.36398 
L 450.364914 99.23557 
L 451.143243 96.410568 
L 451.402686 96.633178 
L 451.662129 95.460359 
L 452.181014 98.165484 
L 452.959343 97.472082 
L 453.478229 95.973998 
L 453.737672 97.069734 
L 453.997115 94.835414 
L 454.775444 94.30467 
L 455.034887 95.023763 
L 455.29433 97.617622 
L 455.553773 98.824664 
L 455.813216 106.683287 
L 456.591545 109.371307 
L 456.850987 108.558067 
L 457.11043 109.936313 
L 457.369873 110.124622 
L 457.629316 110.073216 
L 458.407645 108.641635 
L 458.667088 110.364641 
L 458.926531 111.118986 
L 459.185974 113.322055 
L 460.223746 111.744762 
L 460.483189 110.553254 
L 460.742632 107.218693 
L 461.002075 111.281869 
L 461.261518 109.37029 
L 462.039846 108.015872 
L 462.558732 101.621058 
L 462.818175 101.432472 
L 463.077618 100.069521 
L 464.11539 99.863777 
L 464.634276 110.270348 
L 464.893719 109.738877 
L 465.672048 108.727383 
L 466.190933 113.142015 
L 466.450376 111.830497 
L 466.709819 112.45626 
L 467.747591 108.975947 
L 468.007034 112.044799 
L 468.266477 113.382047 
L 468.52592 112.644859 
L 469.304249 111.539045 
L 469.563692 115.070751 
L 469.823135 116.382296 
L 470.082578 116.159421 
L 470.342021 115.713659 
L 471.120349 113.536345 
L 471.379792 114.693592 
L 471.898678 112.541968 
L 472.158121 110.330352 
L 472.93645 109.044511 
L 473.195893 109.558863 
L 473.714779 107.570136 
L 473.974222 109.164533 
L 474.752551 109.275984 
L 475.271436 111.744762 
L 475.530879 112.070502 
L 475.790322 114.282118 
L 476.568651 114.179252 
L 476.828094 113.802067 
L 477.087537 115.807978 
L 477.34698 119.416846 
L 477.606423 118.27673 
L 478.644195 116.090818 
L 479.163081 110.261762 
L 479.422524 111.050435 
L 480.200852 108.838807 
L 480.460295 106.618619 
L 480.719738 105.701405 
L 480.979181 106.112852 
L 481.238624 102.482072 
L 482.016953 103.855418 
L 482.276396 101.589385 
L 482.535839 101.100141 
L 482.795282 99.640969 
L 483.054725 99.658113 
L 483.833054 98.147455 
L 484.092497 98.842693 
L 484.35194 98.26761 
L 484.870825 99.417764 
L 485.649154 99.572286 
L 485.908597 99.048701 
L 486.16804 99.93279 
L 486.427483 99.434961 
L 486.686926 98.327694 
L 487.465255 99.881291 
L 487.724698 96.456506 
L 487.984141 97.400678 
L 488.503027 94.490892 
L 489.281355 96.662513 
L 489.540798 95.349238 
L 489.800241 92.55962 
L 490.059684 92.430867 
L 491.097456 94.336383 
L 491.356899 93.435137 
L 491.616342 95.246228 
L 491.875785 95.374981 
L 492.135228 96.30201 
L 493.173 96.774096 
L 493.432443 96.688256 
L 493.691885 96.319167 
L 493.951328 97.220426 
L 495.767429 106.962639 
L 496.545758 103.203079 
L 496.805201 103.563583 
L 497.064644 102.662324 
L 497.324087 103.177337 
L 497.58353 102.894074 
L 498.621301 104.859688 
L 498.880744 105.675133 
L 499.140187 100.567971 
L 499.39963 98.053043 
L 500.177959 96.053088 
L 500.437402 94.945821 
L 500.696845 95.52949 
L 500.956288 95.812753 
L 501.215731 97.314865 
L 501.99406 97.907119 
L 502.512946 104.198777 
L 502.772389 102.087253 
L 503.031831 102.954158 
L 503.81016 101.38343 
L 504.069603 99.992887 
L 504.329046 99.898462 
L 504.588489 100.834049 
L 504.847932 100.17228 
L 505.626261 101.633328 
L 505.885704 103.44677 
L 506.145147 104.211668 
L 506.40459 104.460907 
L 506.664033 105.79303 
L 507.701804 106.437588 
L 507.961247 105.784431 
L 508.22069 104.022567 
L 508.480133 105.612527 
L 509.258462 106.781357 
L 509.517905 105.517983 
L 509.777348 106.557928 
L 510.036791 107.133751 
L 510.296234 108.070527 
L 511.074563 111.989563 
L 511.334006 116.26959 
L 511.593449 117.129033 
L 511.852892 117.232149 
L 512.112334 115.745332 
L 513.150106 113.596719 
L 513.409549 115.40155 
L 513.668992 113.794393 
L 513.928435 114.120978 
L 514.706764 113.175603 
L 515.22565 108.921384 
L 515.485093 115.195304 
L 515.744536 114.413195 
L 516.522865 115.642189 
L 516.782307 116.621958 
L 517.04175 113.527958 
L 517.301193 115.10076 
L 518.338965 116.346924 
L 518.598408 117.369672 
L 518.857851 116.673523 
L 519.117294 117.386856 
L 519.376737 116.733673 
L 520.155066 117.70483 
L 520.414509 116.656339 
L 520.673952 118.280666 
L 520.933395 112.041167 
L 521.192838 110.743398 
L 521.971166 114.060815 
L 522.230609 116.905564 
L 523.008938 120.669892 
L 523.787267 119.947999 
L 524.04671 119.036979 
L 524.306153 117.214952 
L 524.565596 116.467251 
L 524.825039 116.974325 
L 525.603368 113.364678 
L 525.862811 116.089101 
L 526.122253 116.974325 
L 526.381696 113.768624 
L 526.641139 104.873411 
L 527.419468 106.30869 
L 527.678911 105.715696 
L 527.938354 105.423452 
L 528.197797 103.850689 
L 528.45724 104.943626 
L 529.495012 101.174226 
L 529.754455 99.203408 
L 530.273341 99.074325 
L 531.051669 98.067427 
L 531.311112 96.94003 
L 531.570555 98.187898 
L 531.829998 101.64754 
L 532.089441 98.979675 
L 533.127213 98.971063 
L 533.386656 98.71287 
L 533.905542 97.026081 
L 534.943314 95.218821 
L 535.202756 93.910724 
L 535.462199 95.106961 
L 535.721642 93.032882 
L 536.499971 96.277376 
L 536.759414 84.20309 
L 537.018857 79.108289 
L 537.2783 78.101391 
L 537.537743 79.607453 
L 538.316072 76.010129 
L 539.353844 83.910476 
L 540.132172 83.35107 
L 540.391615 82.550708 
L 540.651058 78.953397 
L 540.910501 78.221863 
L 541.169944 81.216789 
L 541.948273 75.941288 
L 542.207716 72.911955 
L 542.467159 71.810367 
L 542.986045 67.688098 
L 543.764374 66.414381 
L 544.023817 65.674275 
L 544.28326 61.973689 
L 544.542702 66.629542 
L 544.802145 64.07355 
L 545.580474 60.751617 
L 545.839917 60.390162 
L 546.358803 69.546989 
L 546.618246 69.435116 
L 547.396575 69.736328 
L 547.656018 68.832691 
L 547.915461 74.400819 
L 548.174904 75.304416 
L 548.434347 74.899942 
L 549.212675 74.658973 
L 549.472118 74.177033 
L 549.731561 71.354262 
L 549.991004 74.555711 
L 550.250447 73.264811 
L 551.288219 84.134235 
L 551.807105 78.901767 
L 552.066548 76.380182 
L 552.844877 75.053316 
L 553.10432 71.830932 
L 553.363763 71.443206 
L 553.623206 68.858407 
L 553.882648 67.71248 
L 554.660977 67.850347 
L 554.92042 67.316142 
L 555.179863 67.410924 
L 555.439306 69.022123 
L 555.698749 67.031823 
L 556.477078 66.738893 
L 556.736521 66.006513 
L 556.995964 67.333392 
L 557.255407 64.490096 
L 557.51485 65.170766 
L 558.812064 72.192809 
L 559.071507 70.874555 
L 559.33095 72.218658 
L 560.109279 72.141099 
L 560.368722 72.830407 
L 560.628165 70.633308 
L 560.887608 70.538526 
L 561.147051 70.771175 
L 561.92538 76.095863 
L 562.184823 75.690927 
L 562.444266 72.330663 
L 562.703709 65.282771 
L 563.74148 67.350616 
L 564.000923 66.575177 
L 564.260366 67.436773 
L 564.519809 66.445935 
L 564.779252 66.213313 
L 565.557581 61.724359 
L 565.817024 67.574639 
L 566.076467 67.08352 
L 566.33591 68.039897 
L 566.595353 67.066283 
L 567.373682 71.469055 
L 567.892567 64.705495 
L 568.15201 65.136319 
L 568.411453 66.420074 
L 569.189782 63.189078 
L 569.449225 60.991992 
L 569.708668 62.775517 
L 569.968111 62.456725 
L 570.227554 60.001168 
L 571.005883 58.725985 
L 571.265326 59.260177 
L 571.524769 63.654349 
L 571.784212 63.818051 
L 572.043655 63.094297 
L 572.821983 61.379731 
L 573.081426 61.147096 
L 573.859755 70.417896 
L 574.638084 71.193361 
L 574.897527 69.952638 
L 575.15697 70.581611 
L 575.416413 66.480395 
L 575.675856 66.713282 
L 576.454185 69.068034 
L 576.713628 69.068034 
L 576.97307 68.300375 
L 577.232513 65.626474 
L 577.491956 68.403888 
L 578.270285 65.798986 
L 578.529728 65.574725 
L 578.789171 64.95369 
L 579.048614 65.367713 
L 579.308057 64.203268 
L 580.086386 61.615629 
L 580.345829 59.726649 
L 580.605272 59.838774 
L 581.124158 57.768657 
L 581.902486 55.819303 
L 582.161929 53.179902 
L 582.421372 52.869391 
L 582.680815 52.843503 
L 582.940258 53.016015 
L 583.97803 48.763645 
L 584.237473 49.867716 
L 584.496916 48.599745 
L 584.756359 48.453134 
L 585.534688 45.94312 
L 585.794131 43.838504 
L 586.053573 48.522134 
L 586.313016 47.021303 
L 586.572459 42.96732 
L 587.350788 42.294522 
L 587.610231 39.767271 
L 588.129117 39.06 
L 588.38856 42.018524 
L 589.166889 44.942562 
L 589.426332 46.477892 
L 589.945218 52.144831 
L 590.204661 52.567492 
L 590.982989 51.15291 
L 591.242432 53.559412 
L 591.501875 53.136777 
L 592.020761 58.182681 
L 593.058533 61.26198 
L 593.317976 57.302885 
L 593.577419 65.591961 
L 593.836862 64.108393 
L 594.874634 70.439491 
L 595.134077 69.413071 
L 595.393519 69.559682 
L 595.652962 70.318742 
L 596.431291 64.211893 
L 596.690734 56.966499 
L 596.950177 56.017677 
L 597.469063 58.91584 
L 598.247392 65.807611 
L 598.506835 61.67599 
L 598.766278 61.960639 
L 599.025721 61.31373 
L 599.285164 66.135372 
L 600.063492 65.902248 
L 600.841821 53.916905 
L 601.101264 51.265959 
L 602.139036 51.378215 
L 602.398479 51.032822 
L 602.657922 50.203851 
L 602.917365 50.445639 
L 603.695694 49.107216 
L 603.955137 49.159032 
L 604.21458 54.927184 
L 604.474022 57.569491 
L 604.733465 53.649215 
L 605.511794 56.939145 
L 605.771237 58.752481 
L 606.03068 58.91654 
L 606.290123 59.270571 
L 606.549566 56.041095 
L 607.327895 66.04903 
L 608.106224 81.419283 
L 608.365667 78.129353 
L 609.143995 77.688966 
L 609.403438 78.82014 
L 609.662881 76.618233 
L 609.922324 77.602611 
L 610.181767 74.001827 
L 610.960096 71.877636 
L 611.219539 69.269868 
L 611.478982 71.186836 
L 611.738425 69.183513 
L 611.997868 74.321332 
L 613.03564 69.753419 
L 613.295083 69.148974 
L 613.813968 99.81175 
L 614.592297 105.787152 
L 614.85174 113.59318 
L 615.111183 90.770944 
L 615.370626 98.05023 
L 615.630069 91.375402 
L 616.408398 87.601908 
L 616.667841 87.930052 
L 616.927284 94.72576 
L 617.186727 92.385682 
L 618.224499 95.684237 
L 618.743384 85.805835 
L 619.002827 82.550457 
L 619.26227 81.764677 
L 620.040599 81.022061 
L 620.818928 78.276135 
L 621.078371 85.158212 
L 621.8567 90.736404 
L 622.116143 91.064535 
L 622.375586 93.016042 
L 622.894472 91.047259 
L 623.6728 80.222108 
L 623.932243 78.371802 
L 624.710572 79.815732 
L 625.488901 81.960012 
L 625.748344 83.620094 
L 626.007787 87.744384 
L 626.26723 88.375563 
L 626.526673 93.641145 
L 627.564444 89.369874 
L 627.823887 89.188315 
L 628.08333 89.59469 
L 628.342773 88.816518 
L 629.121102 88.081589 
L 629.380545 86.724119 
L 629.639988 87.113192 
L 629.899431 89.006729 
L 630.158874 86.162112 
L 630.937203 88.297741 
L 631.196646 87.242897 
L 631.456089 90.606304 
L 631.715532 90.243159 
L 631.974975 92.620893 
L 632.753303 90.917568 
L 633.012746 93.321243 
L 633.272189 92.508492 
L 633.791075 88.686827 
L 634.569404 88.25451 
L 634.828847 89.292065 
L 635.08829 88.202629 
L 635.347733 88.686827 
L 635.607176 88.617656 
L 636.385505 85.081327 
L 636.644948 82.790053 
L 636.90439 78.795467 
L 637.163833 77.835722 
L 638.201605 80.948399 
L 638.461048 80.896517 
L 638.979934 78.821408 
L 639.239377 79.902193 
L 640.017706 82.098355 
L 640.277149 81.674676 
L 640.536592 80.766813 
L 640.796035 80.887866 
L 641.055478 79.884903 
L 641.833806 78.760888 
L 642.093249 77.100793 
L 642.612135 77.654163 
L 642.871578 77.550399 
L 643.649907 77.403406 
L 644.168793 81.726558 
L 644.428236 83.006205 
L 644.687679 87.493627 
L 645.466008 86.654935 
L 645.725451 87.026745 
L 646.244336 72.232936 
L 646.503779 64.174579 
L 647.282108 65.827912 
L 647.541551 63.689853 
L 647.800994 60.504399 
L 648.060437 60.980488 
L 648.31988 62.010566 
L 649.357652 62.902144 
L 649.617095 66.840675 
L 649.876538 67.801503 
L 650.135981 65.325856 
L 650.914309 65.845215 
L 651.173752 63.984157 
L 651.433195 62.96273 
L 651.692638 61.170923 
L 651.952081 61.534478 
L 652.989853 63.629254 
L 653.249296 56.055162 
L 653.508739 54.921214 
L 653.768182 54.999116 
L 653.768182 54.999116 
" clip-path="url(#pa11accef3c)" style="fill: none; stroke: #1f77b4; stroke-width: 1.5; stroke-linecap: square"/>
   </g>
   <g id="patch_3">
    <path d="M 94.5 224.28 
L 94.5 30.24 
" style="fill: none; stroke: #000000; stroke-width: 0.8; stroke-linejoin: miter; stroke-linecap: square"/>
   </g>
   <g id="patch_4">
    <path d="M 94.5 224.28 
L 680.4 224.28 
" style="fill: none; stroke: #000000; stroke-width: 0.8; stroke-linejoin: miter; stroke-linecap: square"/>
   </g>
  </g>
 </g>
 <defs>
  <clipPath id="pa11accef3c">
   <rect x="94.5" y="30.24" width="585.9" height="194.04"/>
  </clipPath>
 </defs>
</svg>
