<?xml version="1.0" encoding="utf-8" standalone="no"?>
<!DOCTYPE svg PUBLIC "-//W3C//DTD SVG 1.1//EN"
  "http://www.w3.org/Graphics/SVG/1.1/DTD/svg11.dtd">
<svg xmlns:xlink="http://www.w3.org/1999/xlink" width="756pt" height="252pt" viewBox="0 0 756 252" xmlns="http://www.w3.org/2000/svg" version="1.1">
 <metadata>
  <rdf:RDF xmlns:dc="http://purl.org/dc/elements/1.1/" xmlns:cc="http://creativecommons.org/ns#" xmlns:rdf="http://www.w3.org/1999/02/22-rdf-syntax-ns#">
   <cc:Work>
    <dc:type rdf:resource="http://purl.org/dc/dcmitype/StillImage"/>
    <dc:date>2025-09-08T17:06:48.579161</dc:date>
    <dc:format>image/svg+xml</dc:format>
    <dc:creator>
     <cc:Agent>
      <dc:title>Matplotlib v3.10.5, https://matplotlib.org/</dc:title>
     </cc:Agent>
    </dc:creator>
   </cc:Work>
  </rdf:RDF>
 </metadata>
 <defs>
  <style type="text/css">*{stroke-linejoin: round; stroke-linecap: butt}</style>
 </defs>
 <g id="figure_1">
  <g id="patch_1">
   <path d="M 0 252 
L 756 252 
L 756 0 
L 0 0 
z
" style="fill: #ffffff"/>
  </g>
  <g id="axes_1">
   <g id="patch_2">
    <path d="M 94.5 224.28 
L 680.4 224.28 
L 680.4 30.24 
L 94.5 30.24 
z
" style="fill: #ffffff"/>
   </g>
   <g id="matplotlib.axis_1">
    <g id="xtick_1">
     <g id="line2d_1">
      <defs>
       <path id="m479de629e5" d="M 0 0 
L 0 3.5 
" style="stroke: #000000; stroke-width: 0.8"/>
      </defs>
      <g>
       <use xlink:href="#m479de629e5" x="121.131818" y="224.28" style="stroke: #000000; stroke-width: 0.8"/>
      </g>
     </g>
     <g id="text_1">
      <!-- 2024-03 -->
      <g transform="translate(100.240412 238.878438) scale(0.1 -0.1)">
       <defs>
        <path id="DejaVuSans-32" d="M 1228 531 
L 3431 531 
L 3431 0 
L 469 0 
L 469 531 
Q 828 903 1448 1529 
Q 2069 2156 2228 2338 
Q 2531 2678 2651 2914 
Q 2772 3150 2772 3378 
Q 2772 3750 2511 3984 
Q 2250 4219 1831 4219 
Q 1534 4219 1204 4116 
Q 875 4013 500 3803 
L 500 4441 
Q 881 4594 1212 4672 
Q 1544 4750 1819 4750 
Q 2544 4750 2975 4387 
Q 3406 4025 3406 3419 
Q 3406 3131 3298 2873 
Q 3191 2616 2906 2266 
Q 2828 2175 2409 1742 
Q 1991 1309 1228 531 
z
" transform="scale(0.015625)"/>
        <path id="DejaVuSans-30" d="M 2034 4250 
Q 1547 4250 1301 3770 
Q 1056 3291 1056 2328 
Q 1056 1369 1301 889 
Q 1547 409 2034 409 
Q 2525 409 2770 889 
Q 3016 1369 3016 2328 
Q 3016 3291 2770 3770 
Q 2525 4250 2034 4250 
z
M 2034 4750 
Q 2819 4750 3233 4129 
Q 3647 3509 3647 2328 
Q 3647 1150 3233 529 
Q 2819 -91 2034 -91 
Q 1250 -91 836 529 
Q 422 1150 422 2328 
Q 422 3509 836 4129 
Q 1250 4750 2034 4750 
z
" transform="scale(0.015625)"/>
        <path id="DejaVuSans-34" d="M 2419 4116 
L 825 1625 
L 2419 1625 
L 2419 4116 
z
M 2253 4666 
L 3047 4666 
L 3047 1625 
L 3713 1625 
L 3713 1100 
L 3047 1100 
L 3047 0 
L 2419 0 
L 2419 1100 
L 313 1100 
L 313 1709 
L 2253 4666 
z
" transform="scale(0.015625)"/>
        <path id="DejaVuSans-2d" d="M 313 2009 
L 1997 2009 
L 1997 1497 
L 313 1497 
L 313 2009 
z
" transform="scale(0.015625)"/>
        <path id="DejaVuSans-33" d="M 2597 2516 
Q 3050 2419 3304 2112 
Q 3559 1806 3559 1356 
Q 3559 666 3084 287 
Q 2609 -91 1734 -91 
Q 1441 -91 1130 -33 
Q 819 25 488 141 
L 488 750 
Q 750 597 1062 519 
Q 1375 441 1716 441 
Q 2309 441 2620 675 
Q 2931 909 2931 1356 
Q 2931 1769 2642 2001 
Q 2353 2234 1838 2234 
L 1294 2234 
L 1294 2753 
L 1863 2753 
Q 2328 2753 2575 2939 
Q 2822 3125 2822 3475 
Q 2822 3834 2567 4026 
Q 2313 4219 1838 4219 
Q 1578 4219 1281 4162 
Q 984 4106 628 3988 
L 628 4550 
Q 988 4650 1302 4700 
Q 1616 4750 1894 4750 
Q 2613 4750 3031 4423 
Q 3450 4097 3450 3541 
Q 3450 3153 3228 2886 
Q 3006 2619 2597 2516 
z
" transform="scale(0.015625)"/>
       </defs>
       <use xlink:href="#DejaVuSans-32"/>
       <use xlink:href="#DejaVuSans-30" transform="translate(63.623047 0)"/>
       <use xlink:href="#DejaVuSans-32" transform="translate(127.246094 0)"/>
       <use xlink:href="#DejaVuSans-34" transform="translate(190.869141 0)"/>
       <use xlink:href="#DejaVuSans-2d" transform="translate(254.492188 0)"/>
       <use xlink:href="#DejaVuSans-30" transform="translate(290.576172 0)"/>
       <use xlink:href="#DejaVuSans-33" transform="translate(354.199219 0)"/>
      </g>
     </g>
    </g>
    <g id="xtick_2">
     <g id="line2d_2">
      <g>
       <use xlink:href="#m479de629e5" x="179.885558" y="224.28" style="stroke: #000000; stroke-width: 0.8"/>
      </g>
     </g>
     <g id="text_2">
      <!-- 2024-05 -->
      <g transform="translate(158.994152 238.878438) scale(0.1 -0.1)">
       <defs>
        <path id="DejaVuSans-35" d="M 691 4666 
L 3169 4666 
L 3169 4134 
L 1269 4134 
L 1269 2991 
Q 1406 3038 1543 3061 
Q 1681 3084 1819 3084 
Q 2600 3084 3056 2656 
Q 3513 2228 3513 1497 
Q 3513 744 3044 326 
Q 2575 -91 1722 -91 
Q 1428 -91 1123 -41 
Q 819 9 494 109 
L 494 744 
Q 775 591 1075 516 
Q 1375 441 1709 441 
Q 2250 441 2565 725 
Q 2881 1009 2881 1497 
Q 2881 1984 2565 2268 
Q 2250 2553 1709 2553 
Q 1456 2553 1204 2497 
Q 953 2441 691 2322 
L 691 4666 
z
" transform="scale(0.015625)"/>
       </defs>
       <use xlink:href="#DejaVuSans-32"/>
       <use xlink:href="#DejaVuSans-30" transform="translate(63.623047 0)"/>
       <use xlink:href="#DejaVuSans-32" transform="translate(127.246094 0)"/>
       <use xlink:href="#DejaVuSans-34" transform="translate(190.869141 0)"/>
       <use xlink:href="#DejaVuSans-2d" transform="translate(254.492188 0)"/>
       <use xlink:href="#DejaVuSans-30" transform="translate(290.576172 0)"/>
       <use xlink:href="#DejaVuSans-35" transform="translate(354.199219 0)"/>
      </g>
     </g>
    </g>
    <g id="xtick_3">
     <g id="line2d_3">
      <g>
       <use xlink:href="#m479de629e5" x="238.639298" y="224.28" style="stroke: #000000; stroke-width: 0.8"/>
      </g>
     </g>
     <g id="text_3">
      <!-- 2024-07 -->
      <g transform="translate(217.747892 238.878438) scale(0.1 -0.1)">
       <defs>
        <path id="DejaVuSans-37" d="M 525 4666 
L 3525 4666 
L 3525 4397 
L 1831 0 
L 1172 0 
L 2766 4134 
L 525 4134 
L 525 4666 
z
" transform="scale(0.015625)"/>
       </defs>
       <use xlink:href="#DejaVuSans-32"/>
       <use xlink:href="#DejaVuSans-30" transform="translate(63.623047 0)"/>
       <use xlink:href="#DejaVuSans-32" transform="translate(127.246094 0)"/>
       <use xlink:href="#DejaVuSans-34" transform="translate(190.869141 0)"/>
       <use xlink:href="#DejaVuSans-2d" transform="translate(254.492188 0)"/>
       <use xlink:href="#DejaVuSans-30" transform="translate(290.576172 0)"/>
       <use xlink:href="#DejaVuSans-37" transform="translate(354.199219 0)"/>
      </g>
     </g>
    </g>
    <g id="xtick_4">
     <g id="line2d_4">
      <g>
       <use xlink:href="#m479de629e5" x="298.356214" y="224.28" style="stroke: #000000; stroke-width: 0.8"/>
      </g>
     </g>
     <g id="text_4">
      <!-- 2024-09 -->
      <g transform="translate(277.464808 238.878438) scale(0.1 -0.1)">
       <defs>
        <path id="DejaVuSans-39" d="M 703 97 
L 703 672 
Q 941 559 1184 500 
Q 1428 441 1663 441 
Q 2288 441 2617 861 
Q 2947 1281 2994 2138 
Q 2813 1869 2534 1725 
Q 2256 1581 1919 1581 
Q 1219 1581 811 2004 
Q 403 2428 403 3163 
Q 403 3881 828 4315 
Q 1253 4750 1959 4750 
Q 2769 4750 3195 4129 
Q 3622 3509 3622 2328 
Q 3622 1225 3098 567 
Q 2575 -91 1691 -91 
Q 1453 -91 1209 -44 
Q 966 3 703 97 
z
M 1959 2075 
Q 2384 2075 2632 2365 
Q 2881 2656 2881 3163 
Q 2881 3666 2632 3958 
Q 2384 4250 1959 4250 
Q 1534 4250 1286 3958 
Q 1038 3666 1038 3163 
Q 1038 2656 1286 2365 
Q 1534 2075 1959 2075 
z
" transform="scale(0.015625)"/>
       </defs>
       <use xlink:href="#DejaVuSans-32"/>
       <use xlink:href="#DejaVuSans-30" transform="translate(63.623047 0)"/>
       <use xlink:href="#DejaVuSans-32" transform="translate(127.246094 0)"/>
       <use xlink:href="#DejaVuSans-34" transform="translate(190.869141 0)"/>
       <use xlink:href="#DejaVuSans-2d" transform="translate(254.492188 0)"/>
       <use xlink:href="#DejaVuSans-30" transform="translate(290.576172 0)"/>
       <use xlink:href="#DejaVuSans-39" transform="translate(354.199219 0)"/>
      </g>
     </g>
    </g>
    <g id="xtick_5">
     <g id="line2d_5">
      <g>
       <use xlink:href="#m479de629e5" x="357.109954" y="224.28" style="stroke: #000000; stroke-width: 0.8"/>
      </g>
     </g>
     <g id="text_5">
      <!-- 2024-11 -->
      <g transform="translate(336.218548 238.878438) scale(0.1 -0.1)">
       <defs>
        <path id="DejaVuSans-31" d="M 794 531 
L 1825 531 
L 1825 4091 
L 703 3866 
L 703 4441 
L 1819 4666 
L 2450 4666 
L 2450 531 
L 3481 531 
L 3481 0 
L 794 0 
L 794 531 
z
" transform="scale(0.015625)"/>
       </defs>
       <use xlink:href="#DejaVuSans-32"/>
       <use xlink:href="#DejaVuSans-30" transform="translate(63.623047 0)"/>
       <use xlink:href="#DejaVuSans-32" transform="translate(127.246094 0)"/>
       <use xlink:href="#DejaVuSans-34" transform="translate(190.869141 0)"/>
       <use xlink:href="#DejaVuSans-2d" transform="translate(254.492188 0)"/>
       <use xlink:href="#DejaVuSans-31" transform="translate(290.576172 0)"/>
       <use xlink:href="#DejaVuSans-31" transform="translate(354.199219 0)"/>
      </g>
     </g>
    </g>
    <g id="xtick_6">
     <g id="line2d_6">
      <g>
       <use xlink:href="#m479de629e5" x="415.863694" y="224.28" style="stroke: #000000; stroke-width: 0.8"/>
      </g>
     </g>
     <g id="text_6">
      <!-- 2025-01 -->
      <g transform="translate(394.972288 238.878438) scale(0.1 -0.1)">
       <use xlink:href="#DejaVuSans-32"/>
       <use xlink:href="#DejaVuSans-30" transform="translate(63.623047 0)"/>
       <use xlink:href="#DejaVuSans-32" transform="translate(127.246094 0)"/>
       <use xlink:href="#DejaVuSans-35" transform="translate(190.869141 0)"/>
       <use xlink:href="#DejaVuSans-2d" transform="translate(254.492188 0)"/>
       <use xlink:href="#DejaVuSans-30" transform="translate(290.576172 0)"/>
       <use xlink:href="#DejaVuSans-31" transform="translate(354.199219 0)"/>
      </g>
     </g>
    </g>
    <g id="xtick_7">
     <g id="line2d_7">
      <g>
       <use xlink:href="#m479de629e5" x="472.691082" y="224.28" style="stroke: #000000; stroke-width: 0.8"/>
      </g>
     </g>
     <g id="text_7">
      <!-- 2025-03 -->
      <g transform="translate(451.799675 238.878438) scale(0.1 -0.1)">
       <use xlink:href="#DejaVuSans-32"/>
       <use xlink:href="#DejaVuSans-30" transform="translate(63.623047 0)"/>
       <use xlink:href="#DejaVuSans-32" transform="translate(127.246094 0)"/>
       <use xlink:href="#DejaVuSans-35" transform="translate(190.869141 0)"/>
       <use xlink:href="#DejaVuSans-2d" transform="translate(254.492188 0)"/>
       <use xlink:href="#DejaVuSans-30" transform="translate(290.576172 0)"/>
       <use xlink:href="#DejaVuSans-33" transform="translate(354.199219 0)"/>
      </g>
     </g>
    </g>
    <g id="xtick_8">
     <g id="line2d_8">
      <g>
       <use xlink:href="#m479de629e5" x="531.444822" y="224.28" style="stroke: #000000; stroke-width: 0.8"/>
      </g>
     </g>
     <g id="text_8">
      <!-- 2025-05 -->
      <g transform="translate(510.553415 238.878438) scale(0.1 -0.1)">
       <use xlink:href="#DejaVuSans-32"/>
       <use xlink:href="#DejaVuSans-30" transform="translate(63.623047 0)"/>
       <use xlink:href="#DejaVuSans-32" transform="translate(127.246094 0)"/>
       <use xlink:href="#DejaVuSans-35" transform="translate(190.869141 0)"/>
       <use xlink:href="#DejaVuSans-2d" transform="translate(254.492188 0)"/>
       <use xlink:href="#DejaVuSans-30" transform="translate(290.576172 0)"/>
       <use xlink:href="#DejaVuSans-35" transform="translate(354.199219 0)"/>
      </g>
     </g>
    </g>
    <g id="xtick_9">
     <g id="line2d_9">
      <g>
       <use xlink:href="#m479de629e5" x="590.198562" y="224.28" style="stroke: #000000; stroke-width: 0.8"/>
      </g>
     </g>
     <g id="text_9">
      <!-- 2025-07 -->
      <g transform="translate(569.307155 238.878438) scale(0.1 -0.1)">
       <use xlink:href="#DejaVuSans-32"/>
       <use xlink:href="#DejaVuSans-30" transform="translate(63.623047 0)"/>
       <use xlink:href="#DejaVuSans-32" transform="translate(127.246094 0)"/>
       <use xlink:href="#DejaVuSans-35" transform="translate(190.869141 0)"/>
       <use xlink:href="#DejaVuSans-2d" transform="translate(254.492188 0)"/>
       <use xlink:href="#DejaVuSans-30" transform="translate(290.576172 0)"/>
       <use xlink:href="#DejaVuSans-37" transform="translate(354.199219 0)"/>
      </g>
     </g>
    </g>
    <g id="xtick_10">
     <g id="line2d_10">
      <g>
       <use xlink:href="#m479de629e5" x="649.915478" y="224.28" style="stroke: #000000; stroke-width: 0.8"/>
      </g>
     </g>
     <g id="text_10">
      <!-- 2025-09 -->
      <g transform="translate(629.024071 238.878438) scale(0.1 -0.1)">
       <use xlink:href="#DejaVuSans-32"/>
       <use xlink:href="#DejaVuSans-30" transform="translate(63.623047 0)"/>
       <use xlink:href="#DejaVuSans-32" transform="translate(127.246094 0)"/>
       <use xlink:href="#DejaVuSans-35" transform="translate(190.869141 0)"/>
       <use xlink:href="#DejaVuSans-2d" transform="translate(254.492188 0)"/>
       <use xlink:href="#DejaVuSans-30" transform="translate(290.576172 0)"/>
       <use xlink:href="#DejaVuSans-39" transform="translate(354.199219 0)"/>
      </g>
     </g>
    </g>
   </g>
   <g id="matplotlib.axis_2">
    <g id="ytick_1">
     <g id="line2d_11">
      <defs>
       <path id="m61f21b70c0" d="M 0 0 
L -3.5 0 
" style="stroke: #000000; stroke-width: 0.8"/>
      </defs>
      <g>
       <use xlink:href="#m61f21b70c0" x="94.5" y="222.613989" style="stroke: #000000; stroke-width: 0.8"/>
      </g>
     </g>
     <g id="text_11">
      <!-- 160 -->
      <g transform="translate(68.4125 226.413207) scale(0.1 -0.1)">
       <defs>
        <path id="DejaVuSans-36" d="M 2113 2584 
Q 1688 2584 1439 2293 
Q 1191 2003 1191 1497 
Q 1191 994 1439 701 
Q 1688 409 2113 409 
Q 2538 409 2786 701 
Q 3034 994 3034 1497 
Q 3034 2003 2786 2293 
Q 2538 2584 2113 2584 
z
M 3366 4563 
L 3366 3988 
Q 3128 4100 2886 4159 
Q 2644 4219 2406 4219 
Q 1781 4219 1451 3797 
Q 1122 3375 1075 2522 
Q 1259 2794 1537 2939 
Q 1816 3084 2150 3084 
Q 2853 3084 3261 2657 
Q 3669 2231 3669 1497 
Q 3669 778 3244 343 
Q 2819 -91 2113 -91 
Q 1303 -91 875 529 
Q 447 1150 447 2328 
Q 447 3434 972 4092 
Q 1497 4750 2381 4750 
Q 2619 4750 2861 4703 
Q 3103 4656 3366 4563 
z
" transform="scale(0.015625)"/>
       </defs>
       <use xlink:href="#DejaVuSans-31"/>
       <use xlink:href="#DejaVuSans-36" transform="translate(63.623047 0)"/>
       <use xlink:href="#DejaVuSans-30" transform="translate(127.246094 0)"/>
      </g>
     </g>
    </g>
    <g id="ytick_2">
     <g id="line2d_12">
      <g>
       <use xlink:href="#m61f21b70c0" x="94.5" y="185.193599" style="stroke: #000000; stroke-width: 0.8"/>
      </g>
     </g>
     <g id="text_12">
      <!-- 180 -->
      <g transform="translate(68.4125 188.992818) scale(0.1 -0.1)">
       <defs>
        <path id="DejaVuSans-38" d="M 2034 2216 
Q 1584 2216 1326 1975 
Q 1069 1734 1069 1313 
Q 1069 891 1326 650 
Q 1584 409 2034 409 
Q 2484 409 2743 651 
Q 3003 894 3003 1313 
Q 3003 1734 2745 1975 
Q 2488 2216 2034 2216 
z
M 1403 2484 
Q 997 2584 770 2862 
Q 544 3141 544 3541 
Q 544 4100 942 4425 
Q 1341 4750 2034 4750 
Q 2731 4750 3128 4425 
Q 3525 4100 3525 3541 
Q 3525 3141 3298 2862 
Q 3072 2584 2669 2484 
Q 3125 2378 3379 2068 
Q 3634 1759 3634 1313 
Q 3634 634 3220 271 
Q 2806 -91 2034 -91 
Q 1263 -91 848 271 
Q 434 634 434 1313 
Q 434 1759 690 2068 
Q 947 2378 1403 2484 
z
M 1172 3481 
Q 1172 3119 1398 2916 
Q 1625 2713 2034 2713 
Q 2441 2713 2670 2916 
Q 2900 3119 2900 3481 
Q 2900 3844 2670 4047 
Q 2441 4250 2034 4250 
Q 1625 4250 1398 4047 
Q 1172 3844 1172 3481 
z
" transform="scale(0.015625)"/>
       </defs>
       <use xlink:href="#DejaVuSans-31"/>
       <use xlink:href="#DejaVuSans-38" transform="translate(63.623047 0)"/>
       <use xlink:href="#DejaVuSans-30" transform="translate(127.246094 0)"/>
      </g>
     </g>
    </g>
    <g id="ytick_3">
     <g id="line2d_13">
      <g>
       <use xlink:href="#m61f21b70c0" x="94.5" y="147.773209" style="stroke: #000000; stroke-width: 0.8"/>
      </g>
     </g>
     <g id="text_13">
      <!-- 200 -->
      <g transform="translate(68.4125 151.572428) scale(0.1 -0.1)">
       <use xlink:href="#DejaVuSans-32"/>
       <use xlink:href="#DejaVuSans-30" transform="translate(63.623047 0)"/>
       <use xlink:href="#DejaVuSans-30" transform="translate(127.246094 0)"/>
      </g>
     </g>
    </g>
    <g id="ytick_4">
     <g id="line2d_14">
      <g>
       <use xlink:href="#m61f21b70c0" x="94.5" y="110.35282" style="stroke: #000000; stroke-width: 0.8"/>
      </g>
     </g>
     <g id="text_14">
      <!-- 220 -->
      <g transform="translate(68.4125 114.152039) scale(0.1 -0.1)">
       <use xlink:href="#DejaVuSans-32"/>
       <use xlink:href="#DejaVuSans-32" transform="translate(63.623047 0)"/>
       <use xlink:href="#DejaVuSans-30" transform="translate(127.246094 0)"/>
      </g>
     </g>
    </g>
    <g id="ytick_5">
     <g id="line2d_15">
      <g>
       <use xlink:href="#m61f21b70c0" x="94.5" y="72.93243" style="stroke: #000000; stroke-width: 0.8"/>
      </g>
     </g>
     <g id="text_15">
      <!-- 240 -->
      <g transform="translate(68.4125 76.731649) scale(0.1 -0.1)">
       <use xlink:href="#DejaVuSans-32"/>
       <use xlink:href="#DejaVuSans-34" transform="translate(63.623047 0)"/>
       <use xlink:href="#DejaVuSans-30" transform="translate(127.246094 0)"/>
      </g>
     </g>
    </g>
    <g id="ytick_6">
     <g id="line2d_16">
      <g>
       <use xlink:href="#m61f21b70c0" x="94.5" y="35.51204" style="stroke: #000000; stroke-width: 0.8"/>
      </g>
     </g>
     <g id="text_16">
      <!-- 260 -->
      <g transform="translate(68.4125 39.311259) scale(0.1 -0.1)">
       <use xlink:href="#DejaVuSans-32"/>
       <use xlink:href="#DejaVuSans-36" transform="translate(63.623047 0)"/>
       <use xlink:href="#DejaVuSans-30" transform="translate(127.246094 0)"/>
      </g>
     </g>
    </g>
   </g>
   <g id="line2d_17">
    <path d="M 121.131818 188.22644 
L 124.021346 196.697445 
L 124.984522 205.948737 
L 125.947699 207.806424 
L 126.910875 208.02931 
L 127.874051 204.81555 
L 130.763579 201.063005 
L 131.726755 200.171319 
L 132.689931 204.072464 
L 133.653107 200.598591 
L 134.616283 201.304505 
L 137.505811 199.261076 
L 139.432163 190.06557 
L 140.395339 203.626664 
L 141.358516 201.936134 
L 144.248044 204.592607 
L 145.21122 206.71038 
L 146.174396 200.02269 
L 147.137572 203.422307 
L 150.990276 206.115894 
L 151.953452 208.326567 
L 152.916628 206.821837 
L 153.879804 208.36371 
L 154.84298 206.951852 
L 157.732509 209.05101 
L 158.695685 206.784695 
L 159.658861 210.295682 
L 160.622037 196.808988 
L 161.585213 194.003858 
L 164.474741 201.174462 
L 165.437917 207.323395 
L 166.401093 209.887025 
L 167.364269 211.670398 
L 168.327445 215.46 
L 171.216974 213.899628 
L 172.18015 211.930455 
L 173.143326 207.992138 
L 174.106502 206.37598 
L 175.069678 207.472024 
L 177.959206 199.669762 
L 178.922382 205.558608 
L 179.885558 207.472024 
L 180.848734 200.542891 
L 181.81191 181.315864 
L 184.701438 184.418223 
L 185.664614 183.136465 
L 186.627791 182.504779 
L 187.590967 179.105249 
L 188.554143 181.467633 
L 192.406847 173.320065 
L 193.370023 169.060139 
L 194.333199 168.836967 
L 195.296375 168.781124 
L 198.185903 166.604711 
L 199.149079 164.167841 
L 200.112255 166.865111 
L 201.075432 174.343136 
L 202.038608 168.576539 
L 205.891312 168.557924 
L 206.854488 167.999839 
L 208.78084 164.353841 
L 211.670368 161.042728 
L 212.633544 160.447442 
L 213.59672 157.619986 
L 214.559896 160.205657 
L 215.523072 155.72253 
L 218.412601 162.735513 
L 219.375777 136.636909 
L 220.338953 125.624485 
L 221.302129 123.448072 
L 222.265305 126.703428 
L 225.154833 118.927802 
L 228.044361 131.930611 
L 229.007537 136.004424 
L 231.897066 134.795267 
L 232.860242 133.065282 
L 233.823418 125.289685 
L 234.786594 123.708472 
L 235.74977 130.182012 
L 238.639298 118.779002 
L 239.602474 112.231091 
L 240.56565 109.850006 
L 242.492002 100.93971 
L 245.38153 98.186568 
L 246.344707 96.586826 
L 247.307883 88.588001 
L 248.271059 98.651639 
L 249.234235 93.126856 
L 252.123763 85.946487 
L 253.086939 85.165202 
L 254.050115 96.214769 
L 255.013291 104.957708 
L 255.976467 104.715894 
L 258.865995 105.366965 
L 259.829171 103.413752 
L 260.792348 115.449275 
L 261.755524 117.402403 
L 262.7187 116.528132 
L 265.608228 116.007275 
L 266.571404 114.965561 
L 267.53458 108.864135 
L 268.497756 115.784075 
L 269.460932 112.99379 
L 272.35046 132.693311 
L 273.313636 136.488081 
L 274.276812 131.670154 
L 275.239988 125.178085 
L 276.203165 119.727673 
L 279.092693 116.859649 
L 280.055869 109.894458 
L 281.019045 109.056387 
L 281.982221 103.469337 
L 282.945397 100.992412 
L 285.834925 101.290412 
L 286.798101 100.135728 
L 287.761277 100.340599 
L 288.724453 103.823208 
L 289.687629 99.521171 
L 292.577158 98.888001 
L 293.540334 97.30496 
L 294.50351 100.173013 
L 295.466686 94.027221 
L 296.429862 95.498491 
L 300.282566 107.100918 
L 301.245742 110.676657 
L 302.208918 107.827246 
L 303.172094 110.732528 
L 306.061623 110.564885 
L 307.024799 112.054826 
L 307.987975 107.30579 
L 308.951151 107.100918 
L 309.914327 107.603789 
L 312.803855 119.113117 
L 313.767031 118.237847 
L 314.730207 110.974628 
L 315.693383 95.74059 
L 316.656559 96.988375 
L 319.546087 100.210242 
L 320.509264 98.53413 
L 321.47244 100.39647 
L 322.435616 98.254773 
L 323.398792 97.751959 
L 326.28832 88.049072 
L 327.251496 100.69447 
L 328.214672 99.632914 
L 329.177848 101.700126 
L 330.141024 99.595657 
L 333.030552 109.112259 
L 334.956904 94.492806 
L 335.920081 95.424034 
L 336.883257 98.198873 
L 339.772785 91.215068 
L 340.735961 86.46606 
L 341.699137 90.321155 
L 342.662313 89.632084 
L 343.625489 84.324391 
L 346.515017 81.56808 
L 347.478193 82.722736 
L 348.441369 92.220752 
L 349.404545 92.574595 
L 350.367722 91.010197 
L 353.25725 87.304159 
L 354.220426 86.801316 
L 355.183602 93.449865 
L 356.146778 101.253155 
L 357.109954 106.840176 
L 359.999482 108.516345 
L 360.962658 105.83452 
L 361.925834 107.194047 
L 362.88901 98.329258 
L 363.852186 98.832643 
L 366.741715 103.922446 
L 367.704891 103.922446 
L 368.668067 102.26315 
L 369.631243 96.483505 
L 370.594419 102.486892 
L 373.483947 96.85639 
L 374.447123 96.371648 
L 375.410299 95.02928 
L 376.373475 95.924192 
L 377.336651 93.40724 
L 380.22618 87.814052 
L 381.189356 83.731018 
L 382.152532 83.973375 
L 384.078884 79.498813 
L 386.968412 75.285279 
L 387.931588 69.580206 
L 388.894764 68.909036 
L 389.85794 68.853079 
L 390.821116 69.225964 
L 393.710644 61.936165 
L 394.67382 60.034455 
L 395.636997 62.420907 
L 396.600173 59.680184 
L 397.563349 59.363285 
L 400.452877 53.937882 
L 401.416053 49.388749 
L 402.379229 59.512428 
L 403.342405 56.268377 
L 404.305581 47.505682 
L 407.195109 46.051428 
L 408.158285 40.588768 
L 410.084638 39.06 
L 411.047814 45.454858 
L 413.937342 51.775173 
L 414.900518 55.093794 
L 416.82687 67.342896 
L 417.790046 68.25648 
L 420.679574 65.198858 
L 421.64275 70.400518 
L 422.605926 69.486992 
L 424.532278 80.393726 
L 427.421807 84.961501 
L 428.384983 87.04964 
L 429.348159 78.492044 
L 430.311335 96.408905 
L 431.274511 93.202169 
L 435.127215 106.886854 
L 436.090391 104.668245 
L 437.053567 104.985144 
L 438.016743 106.625855 
L 440.906272 93.425883 
L 441.869448 77.764945 
L 442.832624 75.714064 
L 444.758976 81.978451 
L 447.648504 96.875033 
L 448.61168 87.944524 
L 449.574856 88.559794 
L 450.538032 87.161497 
L 451.501208 97.583489 
L 454.390736 97.07959 
L 455.353913 87.803318 
L 457.280265 71.173239 
L 458.243441 65.443213 
L 462.096145 65.685855 
L 463.059321 64.939286 
L 464.022497 63.147463 
L 464.985673 63.67009 
L 467.875201 60.777084 
L 468.838377 60.889084 
L 469.801554 73.356961 
L 470.76473 79.068315 
L 471.727906 70.594626 
L 474.617434 77.705819 
L 475.58061 81.625351 
L 476.543786 81.979964 
L 477.506962 82.745204 
L 478.470138 75.764682 
L 481.359666 97.396861 
L 482.322842 109.790109 
L 483.286018 116.994602 
L 484.249194 130.619704 
L 485.212371 123.508511 
L 488.101899 122.556614 
L 489.065075 125.00165 
L 490.028251 120.242221 
L 490.991427 122.369957 
L 491.954603 114.586852 
L 494.844131 109.995409 
L 495.807307 104.358711 
L 496.770483 108.502242 
L 497.733659 104.172055 
L 498.696835 115.277464 
L 501.586364 107.382359 
L 502.54954 105.403908 
L 503.512716 104.097398 
L 504.475892 142.732968 
L 505.439068 170.375071 
L 508.328596 183.290918 
L 509.291772 200.163668 
L 510.254948 150.833344 
L 511.218124 166.56754 
L 512.1813 152.139883 
L 515.070829 143.983464 
L 516.034005 144.692748 
L 516.997181 159.38169 
L 517.960357 154.323605 
L 521.813061 161.453441 
L 522.776237 149.172192 
L 523.739413 140.101247 
L 524.702589 133.06474 
L 525.665765 131.366273 
L 528.555293 129.761107 
L 529.51847 127.763984 
L 530.481646 125.356291 
L 531.444822 123.825782 
L 532.407998 138.701409 
L 535.297526 150.758687 
L 536.260702 151.467942 
L 537.223878 155.686129 
L 538.187054 153.371708 
L 539.15023 151.430599 
L 542.039758 128.032007 
L 543.002934 124.032566 
L 543.96611 125.153904 
L 544.929287 126.798526 
L 545.892463 127.153625 
L 548.781991 131.788492 
L 549.745167 135.376763 
L 550.708343 144.291428 
L 551.671519 145.655722 
L 552.634695 157.037291 
L 556.487399 147.804928 
L 557.450575 147.412487 
L 558.413751 148.290869 
L 559.376928 146.608847 
L 562.266456 145.020296 
L 563.229632 142.086122 
L 564.192808 142.927105 
L 565.155984 147.019988 
L 566.11916 140.871341 
L 569.008688 145.487509 
L 569.971864 143.207461 
L 570.93504 150.477474 
L 571.898216 149.692535 
L 572.861392 154.832014 
L 575.750921 151.150272 
L 576.714097 156.345822 
L 577.677273 154.589058 
L 579.603625 146.328519 
L 582.493153 145.394066 
L 583.456329 147.636743 
L 584.419505 145.281924 
L 585.382681 146.328519 
L 586.345857 146.179006 
L 589.235386 138.535222 
L 590.198562 133.582628 
L 591.161738 124.948319 
L 592.124914 122.873827 
L 595.977618 129.601886 
L 596.940794 129.489744 
L 598.867146 125.00439 
L 599.830322 127.34051 
L 602.71985 132.087519 
L 603.683026 131.171737 
L 604.646203 129.209388 
L 605.609379 129.471044 
L 606.572555 127.303138 
L 609.462083 124.873577 
L 610.425259 121.285277 
L 611.388435 121.752518 
L 612.351611 122.481386 
L 613.314787 122.257101 
L 616.204315 121.939374 
L 617.167491 127.134925 
L 618.130667 131.28388 
L 619.093843 134.04984 
L 620.05702 143.749416 
L 622.946548 141.93658 
L 623.909724 142.740248 
L 624.8729 123.434511 
L 625.836076 110.76339 
L 626.799252 93.345231 
L 629.68878 96.918914 
L 630.651956 92.297493 
L 631.615132 85.412127 
L 632.578308 86.441193 
L 633.541484 88.667711 
L 636.431013 89.977419 
L 637.394189 90.594859 
L 638.357365 99.108003 
L 639.320541 101.184836 
L 640.283717 95.833719 
L 643.173245 96.956313 
L 644.136421 92.933633 
L 645.099597 90.725815 
L 646.062773 86.85282 
L 647.025949 87.638644 
L 650.878654 92.166508 
L 651.84183 75.795088 
L 652.805006 73.344057 
L 653.768182 73.512442 
L 653.768182 73.512442 
" clip-path="url(#paa9003fc4a)" style="fill: none; stroke: #1f77b4; stroke-width: 1.5; stroke-linecap: square"/>
   </g>
   <g id="patch_3">
    <path d="M 94.5 224.28 
L 94.5 30.24 
" style="fill: none; stroke: #000000; stroke-width: 0.8; stroke-linejoin: miter; stroke-linecap: square"/>
   </g>
   <g id="patch_4">
    <path d="M 94.5 224.28 
L 680.4 224.28 
" style="fill: none; stroke: #000000; stroke-width: 0.8; stroke-linejoin: miter; stroke-linecap: square"/>
   </g>
  </g>
 </g>
 <defs>
  <clipPath id="paa9003fc4a">
   <rect x="94.5" y="30.24" width="585.9" height="194.04"/>
  </clipPath>
 </defs>
</svg>
