<?xml version="1.0" encoding="utf-8" standalone="no"?>
<!DOCTYPE svg PUBLIC "-//W3C//DTD SVG 1.1//EN"
  "http://www.w3.org/Graphics/SVG/1.1/DTD/svg11.dtd">
<svg xmlns:xlink="http://www.w3.org/1999/xlink" width="1166.4pt" height="252pt" viewBox="0 0 1166.4 252" xmlns="http://www.w3.org/2000/svg" version="1.1">
 <metadata>
  <rdf:RDF xmlns:dc="http://purl.org/dc/elements/1.1/" xmlns:cc="http://creativecommons.org/ns#" xmlns:rdf="http://www.w3.org/1999/02/22-rdf-syntax-ns#">
   <cc:Work>
    <dc:type rdf:resource="http://purl.org/dc/dcmitype/StillImage"/>
    <dc:date>2025-09-05T01:36:59.582037</dc:date>
    <dc:format>image/svg+xml</dc:format>
    <dc:creator>
     <cc:Agent>
      <dc:title>Matplotlib v3.10.5, https://matplotlib.org/</dc:title>
     </cc:Agent>
    </dc:creator>
   </cc:Work>
  </rdf:RDF>
 </metadata>
 <defs>
  <style type="text/css">*{stroke-linejoin: round; stroke-linecap: butt}</style>
 </defs>
 <g id="figure_1">
  <g id="patch_1">
   <path d="M 0 252 
L 1166.4 252 
L 1166.4 0 
L 0 0 
z
" style="fill: #ffffff"/>
  </g>
  <g id="axes_1">
   <g id="patch_2">
    <path d="M 145.8 224.28 
L 1049.76 224.28 
L 1049.76 30.24 
L 145.8 30.24 
z
" style="fill: #ffffff"/>
   </g>
   <g id="matplotlib.axis_1">
    <g id="xtick_1">
     <g id="line2d_1">
      <defs>
       <path id="m7901a1b20c" d="M 0 0 
L 0 3.5 
" style="stroke: #000000; stroke-width: 0.8"/>
      </defs>
      <g>
       <use xlink:href="#m7901a1b20c" x="226.021558" y="224.28" style="stroke: #000000; stroke-width: 0.8"/>
      </g>
     </g>
     <g id="text_1">
      <!-- 2022-01 -->
      <g transform="translate(205.130152 238.878438) scale(0.1 -0.1)">
       <defs>
        <path id="DejaVuSans-32" d="M 1228 531 
L 3431 531 
L 3431 0 
L 469 0 
L 469 531 
Q 828 903 1448 1529 
Q 2069 2156 2228 2338 
Q 2531 2678 2651 2914 
Q 2772 3150 2772 3378 
Q 2772 3750 2511 3984 
Q 2250 4219 1831 4219 
Q 1534 4219 1204 4116 
Q 875 4013 500 3803 
L 500 4441 
Q 881 4594 1212 4672 
Q 1544 4750 1819 4750 
Q 2544 4750 2975 4387 
Q 3406 4025 3406 3419 
Q 3406 3131 3298 2873 
Q 3191 2616 2906 2266 
Q 2828 2175 2409 1742 
Q 1991 1309 1228 531 
z
" transform="scale(0.015625)"/>
        <path id="DejaVuSans-30" d="M 2034 4250 
Q 1547 4250 1301 3770 
Q 1056 3291 1056 2328 
Q 1056 1369 1301 889 
Q 1547 409 2034 409 
Q 2525 409 2770 889 
Q 3016 1369 3016 2328 
Q 3016 3291 2770 3770 
Q 2525 4250 2034 4250 
z
M 2034 4750 
Q 2819 4750 3233 4129 
Q 3647 3509 3647 2328 
Q 3647 1150 3233 529 
Q 2819 -91 2034 -91 
Q 1250 -91 836 529 
Q 422 1150 422 2328 
Q 422 3509 836 4129 
Q 1250 4750 2034 4750 
z
" transform="scale(0.015625)"/>
        <path id="DejaVuSans-2d" d="M 313 2009 
L 1997 2009 
L 1997 1497 
L 313 1497 
L 313 2009 
z
" transform="scale(0.015625)"/>
        <path id="DejaVuSans-31" d="M 794 531 
L 1825 531 
L 1825 4091 
L 703 3866 
L 703 4441 
L 1819 4666 
L 2450 4666 
L 2450 531 
L 3481 531 
L 3481 0 
L 794 0 
L 794 531 
z
" transform="scale(0.015625)"/>
       </defs>
       <use xlink:href="#DejaVuSans-32"/>
       <use xlink:href="#DejaVuSans-30" transform="translate(63.623047 0)"/>
       <use xlink:href="#DejaVuSans-32" transform="translate(127.246094 0)"/>
       <use xlink:href="#DejaVuSans-32" transform="translate(190.869141 0)"/>
       <use xlink:href="#DejaVuSans-2d" transform="translate(254.492188 0)"/>
       <use xlink:href="#DejaVuSans-30" transform="translate(290.576172 0)"/>
       <use xlink:href="#DejaVuSans-31" transform="translate(354.199219 0)"/>
      </g>
     </g>
    </g>
    <g id="xtick_2">
     <g id="line2d_2">
      <g>
       <use xlink:href="#m7901a1b20c" x="331.737627" y="224.28" style="stroke: #000000; stroke-width: 0.8"/>
      </g>
     </g>
     <g id="text_2">
      <!-- 2022-07 -->
      <g transform="translate(310.846221 238.878438) scale(0.1 -0.1)">
       <defs>
        <path id="DejaVuSans-37" d="M 525 4666 
L 3525 4666 
L 3525 4397 
L 1831 0 
L 1172 0 
L 2766 4134 
L 525 4134 
L 525 4666 
z
" transform="scale(0.015625)"/>
       </defs>
       <use xlink:href="#DejaVuSans-32"/>
       <use xlink:href="#DejaVuSans-30" transform="translate(63.623047 0)"/>
       <use xlink:href="#DejaVuSans-32" transform="translate(127.246094 0)"/>
       <use xlink:href="#DejaVuSans-32" transform="translate(190.869141 0)"/>
       <use xlink:href="#DejaVuSans-2d" transform="translate(254.492188 0)"/>
       <use xlink:href="#DejaVuSans-30" transform="translate(290.576172 0)"/>
       <use xlink:href="#DejaVuSans-37" transform="translate(354.199219 0)"/>
      </g>
     </g>
    </g>
    <g id="xtick_3">
     <g id="line2d_3">
      <g>
       <use xlink:href="#m7901a1b20c" x="439.205896" y="224.28" style="stroke: #000000; stroke-width: 0.8"/>
      </g>
     </g>
     <g id="text_3">
      <!-- 2023-01 -->
      <g transform="translate(418.31449 238.878438) scale(0.1 -0.1)">
       <defs>
        <path id="DejaVuSans-33" d="M 2597 2516 
Q 3050 2419 3304 2112 
Q 3559 1806 3559 1356 
Q 3559 666 3084 287 
Q 2609 -91 1734 -91 
Q 1441 -91 1130 -33 
Q 819 25 488 141 
L 488 750 
Q 750 597 1062 519 
Q 1375 441 1716 441 
Q 2309 441 2620 675 
Q 2931 909 2931 1356 
Q 2931 1769 2642 2001 
Q 2353 2234 1838 2234 
L 1294 2234 
L 1294 2753 
L 1863 2753 
Q 2328 2753 2575 2939 
Q 2822 3125 2822 3475 
Q 2822 3834 2567 4026 
Q 2313 4219 1838 4219 
Q 1578 4219 1281 4162 
Q 984 4106 628 3988 
L 628 4550 
Q 988 4650 1302 4700 
Q 1616 4750 1894 4750 
Q 2613 4750 3031 4423 
Q 3450 4097 3450 3541 
Q 3450 3153 3228 2886 
Q 3006 2619 2597 2516 
z
" transform="scale(0.015625)"/>
       </defs>
       <use xlink:href="#DejaVuSans-32"/>
       <use xlink:href="#DejaVuSans-30" transform="translate(63.623047 0)"/>
       <use xlink:href="#DejaVuSans-32" transform="translate(127.246094 0)"/>
       <use xlink:href="#DejaVuSans-33" transform="translate(190.869141 0)"/>
       <use xlink:href="#DejaVuSans-2d" transform="translate(254.492188 0)"/>
       <use xlink:href="#DejaVuSans-30" transform="translate(290.576172 0)"/>
       <use xlink:href="#DejaVuSans-31" transform="translate(354.199219 0)"/>
      </g>
     </g>
    </g>
    <g id="xtick_4">
     <g id="line2d_4">
      <g>
       <use xlink:href="#m7901a1b20c" x="544.921965" y="224.28" style="stroke: #000000; stroke-width: 0.8"/>
      </g>
     </g>
     <g id="text_4">
      <!-- 2023-07 -->
      <g transform="translate(524.030559 238.878438) scale(0.1 -0.1)">
       <use xlink:href="#DejaVuSans-32"/>
       <use xlink:href="#DejaVuSans-30" transform="translate(63.623047 0)"/>
       <use xlink:href="#DejaVuSans-32" transform="translate(127.246094 0)"/>
       <use xlink:href="#DejaVuSans-33" transform="translate(190.869141 0)"/>
       <use xlink:href="#DejaVuSans-2d" transform="translate(254.492188 0)"/>
       <use xlink:href="#DejaVuSans-30" transform="translate(290.576172 0)"/>
       <use xlink:href="#DejaVuSans-37" transform="translate(354.199219 0)"/>
      </g>
     </g>
    </g>
    <g id="xtick_5">
     <g id="line2d_5">
      <g>
       <use xlink:href="#m7901a1b20c" x="652.390235" y="224.28" style="stroke: #000000; stroke-width: 0.8"/>
      </g>
     </g>
     <g id="text_5">
      <!-- 2024-01 -->
      <g transform="translate(631.498828 238.878438) scale(0.1 -0.1)">
       <defs>
        <path id="DejaVuSans-34" d="M 2419 4116 
L 825 1625 
L 2419 1625 
L 2419 4116 
z
M 2253 4666 
L 3047 4666 
L 3047 1625 
L 3713 1625 
L 3713 1100 
L 3047 1100 
L 3047 0 
L 2419 0 
L 2419 1100 
L 313 1100 
L 313 1709 
L 2253 4666 
z
" transform="scale(0.015625)"/>
       </defs>
       <use xlink:href="#DejaVuSans-32"/>
       <use xlink:href="#DejaVuSans-30" transform="translate(63.623047 0)"/>
       <use xlink:href="#DejaVuSans-32" transform="translate(127.246094 0)"/>
       <use xlink:href="#DejaVuSans-34" transform="translate(190.869141 0)"/>
       <use xlink:href="#DejaVuSans-2d" transform="translate(254.492188 0)"/>
       <use xlink:href="#DejaVuSans-30" transform="translate(290.576172 0)"/>
       <use xlink:href="#DejaVuSans-31" transform="translate(354.199219 0)"/>
      </g>
     </g>
    </g>
    <g id="xtick_6">
     <g id="line2d_6">
      <g>
       <use xlink:href="#m7901a1b20c" x="758.69037" y="224.28" style="stroke: #000000; stroke-width: 0.8"/>
      </g>
     </g>
     <g id="text_6">
      <!-- 2024-07 -->
      <g transform="translate(737.798964 238.878438) scale(0.1 -0.1)">
       <use xlink:href="#DejaVuSans-32"/>
       <use xlink:href="#DejaVuSans-30" transform="translate(63.623047 0)"/>
       <use xlink:href="#DejaVuSans-32" transform="translate(127.246094 0)"/>
       <use xlink:href="#DejaVuSans-34" transform="translate(190.869141 0)"/>
       <use xlink:href="#DejaVuSans-2d" transform="translate(254.492188 0)"/>
       <use xlink:href="#DejaVuSans-30" transform="translate(290.576172 0)"/>
       <use xlink:href="#DejaVuSans-37" transform="translate(354.199219 0)"/>
      </g>
     </g>
    </g>
    <g id="xtick_7">
     <g id="line2d_7">
      <g>
       <use xlink:href="#m7901a1b20c" x="866.158639" y="224.28" style="stroke: #000000; stroke-width: 0.8"/>
      </g>
     </g>
     <g id="text_7">
      <!-- 2025-01 -->
      <g transform="translate(845.267233 238.878438) scale(0.1 -0.1)">
       <defs>
        <path id="DejaVuSans-35" d="M 691 4666 
L 3169 4666 
L 3169 4134 
L 1269 4134 
L 1269 2991 
Q 1406 3038 1543 3061 
Q 1681 3084 1819 3084 
Q 2600 3084 3056 2656 
Q 3513 2228 3513 1497 
Q 3513 744 3044 326 
Q 2575 -91 1722 -91 
Q 1428 -91 1123 -41 
Q 819 9 494 109 
L 494 744 
Q 775 591 1075 516 
Q 1375 441 1709 441 
Q 2250 441 2565 725 
Q 2881 1009 2881 1497 
Q 2881 1984 2565 2268 
Q 2250 2553 1709 2553 
Q 1456 2553 1204 2497 
Q 953 2441 691 2322 
L 691 4666 
z
" transform="scale(0.015625)"/>
       </defs>
       <use xlink:href="#DejaVuSans-32"/>
       <use xlink:href="#DejaVuSans-30" transform="translate(63.623047 0)"/>
       <use xlink:href="#DejaVuSans-32" transform="translate(127.246094 0)"/>
       <use xlink:href="#DejaVuSans-35" transform="translate(190.869141 0)"/>
       <use xlink:href="#DejaVuSans-2d" transform="translate(254.492188 0)"/>
       <use xlink:href="#DejaVuSans-30" transform="translate(290.576172 0)"/>
       <use xlink:href="#DejaVuSans-31" transform="translate(354.199219 0)"/>
      </g>
     </g>
    </g>
    <g id="xtick_8">
     <g id="line2d_8">
      <g>
       <use xlink:href="#m7901a1b20c" x="971.874708" y="224.28" style="stroke: #000000; stroke-width: 0.8"/>
      </g>
     </g>
     <g id="text_8">
      <!-- 2025-07 -->
      <g transform="translate(950.983302 238.878438) scale(0.1 -0.1)">
       <use xlink:href="#DejaVuSans-32"/>
       <use xlink:href="#DejaVuSans-30" transform="translate(63.623047 0)"/>
       <use xlink:href="#DejaVuSans-32" transform="translate(127.246094 0)"/>
       <use xlink:href="#DejaVuSans-35" transform="translate(190.869141 0)"/>
       <use xlink:href="#DejaVuSans-2d" transform="translate(254.492188 0)"/>
       <use xlink:href="#DejaVuSans-30" transform="translate(290.576172 0)"/>
       <use xlink:href="#DejaVuSans-37" transform="translate(354.199219 0)"/>
      </g>
     </g>
    </g>
   </g>
   <g id="matplotlib.axis_2">
    <g id="ytick_1">
     <g id="line2d_9">
      <defs>
       <path id="me59c85034c" d="M 0 0 
L -3.5 0 
" style="stroke: #000000; stroke-width: 0.8"/>
      </defs>
      <g>
       <use xlink:href="#me59c85034c" x="145.8" y="191.216155" style="stroke: #000000; stroke-width: 0.8"/>
      </g>
     </g>
     <g id="text_9">
      <!-- 20 -->
      <g transform="translate(126.075 195.015374) scale(0.1 -0.1)">
       <use xlink:href="#DejaVuSans-32"/>
       <use xlink:href="#DejaVuSans-30" transform="translate(63.623047 0)"/>
      </g>
     </g>
    </g>
    <g id="ytick_2">
     <g id="line2d_10">
      <g>
       <use xlink:href="#me59c85034c" x="145.8" y="151.260676" style="stroke: #000000; stroke-width: 0.8"/>
      </g>
     </g>
     <g id="text_10">
      <!-- 40 -->
      <g transform="translate(126.075 155.059895) scale(0.1 -0.1)">
       <use xlink:href="#DejaVuSans-34"/>
       <use xlink:href="#DejaVuSans-30" transform="translate(63.623047 0)"/>
      </g>
     </g>
    </g>
    <g id="ytick_3">
     <g id="line2d_11">
      <g>
       <use xlink:href="#me59c85034c" x="145.8" y="111.305198" style="stroke: #000000; stroke-width: 0.8"/>
      </g>
     </g>
     <g id="text_11">
      <!-- 60 -->
      <g transform="translate(126.075 115.104416) scale(0.1 -0.1)">
       <defs>
        <path id="DejaVuSans-36" d="M 2113 2584 
Q 1688 2584 1439 2293 
Q 1191 2003 1191 1497 
Q 1191 994 1439 701 
Q 1688 409 2113 409 
Q 2538 409 2786 701 
Q 3034 994 3034 1497 
Q 3034 2003 2786 2293 
Q 2538 2584 2113 2584 
z
M 3366 4563 
L 3366 3988 
Q 3128 4100 2886 4159 
Q 2644 4219 2406 4219 
Q 1781 4219 1451 3797 
Q 1122 3375 1075 2522 
Q 1259 2794 1537 2939 
Q 1816 3084 2150 3084 
Q 2853 3084 3261 2657 
Q 3669 2231 3669 1497 
Q 3669 778 3244 343 
Q 2819 -91 2113 -91 
Q 1303 -91 875 529 
Q 447 1150 447 2328 
Q 447 3434 972 4092 
Q 1497 4750 2381 4750 
Q 2619 4750 2861 4703 
Q 3103 4656 3366 4563 
z
" transform="scale(0.015625)"/>
       </defs>
       <use xlink:href="#DejaVuSans-36"/>
       <use xlink:href="#DejaVuSans-30" transform="translate(63.623047 0)"/>
      </g>
     </g>
    </g>
    <g id="ytick_4">
     <g id="line2d_12">
      <g>
       <use xlink:href="#me59c85034c" x="145.8" y="71.349719" style="stroke: #000000; stroke-width: 0.8"/>
      </g>
     </g>
     <g id="text_12">
      <!-- 80 -->
      <g transform="translate(126.075 75.148938) scale(0.1 -0.1)">
       <defs>
        <path id="DejaVuSans-38" d="M 2034 2216 
Q 1584 2216 1326 1975 
Q 1069 1734 1069 1313 
Q 1069 891 1326 650 
Q 1584 409 2034 409 
Q 2484 409 2743 651 
Q 3003 894 3003 1313 
Q 3003 1734 2745 1975 
Q 2488 2216 2034 2216 
z
M 1403 2484 
Q 997 2584 770 2862 
Q 544 3141 544 3541 
Q 544 4100 942 4425 
Q 1341 4750 2034 4750 
Q 2731 4750 3128 4425 
Q 3525 4100 3525 3541 
Q 3525 3141 3298 2862 
Q 3072 2584 2669 2484 
Q 3125 2378 3379 2068 
Q 3634 1759 3634 1313 
Q 3634 634 3220 271 
Q 2806 -91 2034 -91 
Q 1263 -91 848 271 
Q 434 634 434 1313 
Q 434 1759 690 2068 
Q 947 2378 1403 2484 
z
M 1172 3481 
Q 1172 3119 1398 2916 
Q 1625 2713 2034 2713 
Q 2441 2713 2670 2916 
Q 2900 3119 2900 3481 
Q 2900 3844 2670 4047 
Q 2441 4250 2034 4250 
Q 1625 4250 1398 4047 
Q 1172 3844 1172 3481 
z
" transform="scale(0.015625)"/>
       </defs>
       <use xlink:href="#DejaVuSans-38"/>
       <use xlink:href="#DejaVuSans-30" transform="translate(63.623047 0)"/>
      </g>
     </g>
    </g>
    <g id="ytick_5">
     <g id="line2d_13">
      <g>
       <use xlink:href="#me59c85034c" x="145.8" y="31.39424" style="stroke: #000000; stroke-width: 0.8"/>
      </g>
     </g>
     <g id="text_13">
      <!-- 100 -->
      <g transform="translate(119.7125 35.193459) scale(0.1 -0.1)">
       <use xlink:href="#DejaVuSans-31"/>
       <use xlink:href="#DejaVuSans-30" transform="translate(63.623047 0)"/>
       <use xlink:href="#DejaVuSans-30" transform="translate(127.246094 0)"/>
      </g>
     </g>
    </g>
   </g>
   <g id="line2d_14">
    <path d="M 186.889091 78.144773 
L 187.473158 88.363181 
L 188.057224 71.91461 
L 188.641291 94.437542 
L 190.393491 91.035559 
L 190.977558 83.262268 
L 191.561624 87.336192 
L 192.145691 95.365378 
L 192.729758 100.084166 
L 194.481958 118.180676 
L 195.066024 118.963592 
L 195.650091 139.168117 
L 196.234158 134.988608 
L 196.818224 122.747206 
L 198.570425 126.206995 
L 199.154491 118.288748 
L 199.738558 124.559173 
L 200.322625 86.734392 
L 200.906691 73.542243 
L 202.658891 74.792556 
L 203.242958 77.286014 
L 203.827025 71.648018 
L 204.995158 107.626087 
L 206.747358 93.545473 
L 207.331425 84.028995 
L 207.915491 71.745689 
L 208.499558 76.981566 
L 209.083625 90.508545 
L 210.835825 84.196913 
L 211.419891 77.328089 
L 212.003958 75.657549 
L 212.588025 83.527477 
L 213.172091 80.4236 
L 215.508358 100.094836 
L 216.092425 93.437689 
L 216.676492 98.94933 
L 217.260558 107.311375 
L 219.012758 120.636185 
L 220.180892 105.541447 
L 220.764958 99.100951 
L 223.101225 98.250734 
L 223.685292 111.315084 
L 224.269358 119.598358 
L 224.853425 121.56633 
L 225.437492 136.946097 
L 227.189692 112.802486 
L 227.773758 115.864664 
L 228.357825 143.927769 
L 228.941892 132.135134 
L 229.525959 127.798815 
L 231.278159 122.627786 
L 231.862225 123.776247 
L 232.446292 131.711936 
L 233.614425 160.128961 
L 235.950692 165.917211 
L 236.534759 173.861115 
L 237.118825 174.847025 
L 237.702892 177.366666 
L 239.455092 201.009936 
L 240.039159 200.516675 
L 240.623225 194.538659 
L 241.207292 190.383587 
L 241.791359 136.931305 
L 243.543559 124.285064 
L 244.127626 132.653519 
L 244.711692 130.398925 
L 245.295759 129.234919 
L 245.879826 132.633918 
L 247.632026 124.691467 
L 248.216092 102.950412 
L 248.800159 92.429703 
L 249.968292 110.981297 
L 251.720492 103.913839 
L 252.304559 96.104498 
L 252.888626 95.279127 
L 253.472692 135.372927 
L 254.056759 157.882354 
L 256.393026 164.732863 
L 256.977092 178.217704 
L 257.561159 161.535678 
L 258.145226 153.025342 
L 259.897426 150.395704 
L 260.481493 166.561197 
L 261.065559 159.150768 
L 261.649626 150.255673 
L 262.233693 149.144704 
L 263.985893 159.247246 
L 264.569959 178.945027 
L 265.154026 156.895213 
L 265.738093 158.373154 
L 266.322159 162.354415 
L 268.074359 164.2264 
L 268.658426 143.194987 
L 269.242493 138.501309 
L 269.826559 141.222469 
L 270.410626 133.780103 
L 272.162826 126.452491 
L 272.746893 126.28412 
L 273.330959 122.681432 
L 274.499093 96.116675 
L 276.251293 88.920129 
L 276.83536 91.961246 
L 277.419426 79.910843 
L 278.003493 77.321268 
L 278.58756 59.553383 
L 280.33976 59.846571 
L 280.923826 82.273363 
L 281.507893 98.085613 
L 282.09196 104.715514 
L 282.676026 116.265968 
L 284.428226 140.797543 
L 285.012293 139.060583 
L 285.59636 142.873056 
L 286.180426 157.382978 
L 288.516693 160.970329 
L 289.10076 164.850406 
L 289.684827 162.823688 
L 290.268893 157.647416 
L 290.85296 166.650867 
L 293.189227 183.366692 
L 293.773293 178.887799 
L 294.35736 153.177168 
L 294.941427 160.370574 
L 296.693627 151.395003 
L 297.277693 152.61704 
L 297.86176 141.675058 
L 298.445827 149.688008 
L 299.029893 147.42994 
L 300.782093 161.689834 
L 301.36616 155.307727 
L 301.950227 164.556684 
L 302.534293 163.777122 
L 303.11836 156.367506 
L 304.87056 150.496058 
L 305.454627 142.945116 
L 306.038694 167.558921 
L 306.62276 164.881551 
L 307.206827 165.037303 
L 308.959027 156.626966 
L 309.543094 173.72629 
L 310.12716 162.820395 
L 310.711227 156.602005 
L 311.295294 135.767726 
L 313.63156 142.122502 
L 314.799694 111.156363 
L 315.38376 135.191767 
L 317.13596 129.901876 
L 317.720027 132.53539 
L 318.304094 110.670039 
L 318.88816 116.785988 
L 319.472227 132.38434 
L 321.224427 158.345607 
L 322.392561 143.362677 
L 322.976627 162.289169 
L 323.560694 176.61397 
L 325.896961 161.168994 
L 326.481027 161.793162 
L 327.065094 160.552852 
L 327.649161 140.189553 
L 329.401361 142.208288 
L 329.985427 157.702696 
L 331.153561 145.762424 
L 331.737627 126.493395 
L 334.073894 103.593287 
L 334.657961 102.614204 
L 335.242028 101.117332 
L 335.826094 77.403921 
L 337.578294 89.929276 
L 338.162361 96.66992 
L 338.746428 95.96662 
L 339.330494 95.831872 
L 339.914561 99.8578 
L 341.666761 113.359168 
L 342.250828 85.921324 
L 342.834894 85.46859 
L 343.418961 69.065253 
L 344.003028 78.993111 
L 345.755228 89.865664 
L 346.339294 99.7084 
L 346.923361 95.593724 
L 347.507428 95.8805 
L 348.091494 76.35648 
L 349.843695 82.568345 
L 350.427761 87.622866 
L 351.011828 82.766966 
L 351.595895 86.621309 
L 352.179961 73.703234 
L 353.932161 82.145508 
L 354.516228 85.932041 
L 355.100295 82.099377 
L 355.684361 79.406748 
L 356.268428 68.100337 
L 358.020628 59.539398 
L 358.604695 66.382484 
L 359.188761 65.103897 
L 360.356895 87.160735 
L 362.109095 100.943577 
L 362.693161 124.588103 
L 363.277228 121.460516 
L 363.861295 110.130167 
L 364.445362 135.73757 
L 366.197562 142.983919 
L 366.781628 167.65392 
L 367.365695 169.691037 
L 367.949762 184.70255 
L 368.533828 194.412356 
L 370.870095 195.850815 
L 371.454162 196.369461 
L 372.038228 197.661499 
L 372.622295 178.538688 
L 374.374495 144.197913 
L 374.958562 163.69157 
L 375.542628 160.044205 
L 376.126695 172.421622 
L 376.710762 165.120252 
L 378.462962 148.652592 
L 379.047028 136.349277 
L 379.631095 139.785106 
L 380.215162 143.889769 
L 380.799229 144.226055 
L 382.551429 140.538265 
L 383.135495 141.734583 
L 383.719562 142.660723 
L 384.887695 189.579863 
L 386.639895 161.310021 
L 387.808029 147.214988 
L 388.392095 145.614883 
L 388.976162 168.822725 
L 390.728362 176.757086 
L 391.312429 174.009556 
L 391.896495 173.439919 
L 392.480562 151.666124 
L 393.064629 161.668871 
L 394.816829 152.620923 
L 395.400896 145.367759 
L 395.984962 127.44748 
L 396.569029 115.147866 
L 397.153096 116.123484 
L 398.905296 120.235477 
L 399.489362 113.237238 
L 400.073429 120.063212 
L 400.657496 117.489947 
L 401.241562 97.063484 
L 402.993762 99.881743 
L 403.577829 105.520723 
L 404.161896 127.098714 
L 404.745962 130.288846 
L 405.330029 139.450229 
L 407.082229 141.34052 
L 407.666296 140.218582 
L 408.250362 147.75163 
L 408.834429 131.550106 
L 409.418496 130.440886 
L 411.170696 137.891824 
L 411.754763 129.620727 
L 412.338829 123.316193 
L 412.922896 142.083385 
L 413.506963 135.532665 
L 415.259163 136.860702 
L 416.427296 94.922504 
L 417.595429 104.879408 
L 419.347629 118.10045 
L 419.931696 127.369915 
L 420.515763 101.979982 
L 421.099829 126.942558 
L 421.683896 137.410438 
L 423.436096 136.674284 
L 424.020163 153.176702 
L 424.60423 154.865586 
L 425.188296 155.688188 
L 425.772363 158.960665 
L 427.524563 142.270725 
L 428.10863 146.553246 
L 429.276763 163.559902 
L 429.86083 159.784885 
L 431.61303 157.823414 
L 432.197096 190.958209 
L 432.781163 175.275265 
L 433.36523 180.038363 
L 433.949296 178.707094 
L 436.285563 175.31351 
L 436.86963 178.925347 
L 437.453696 170.634927 
L 438.037763 168.381099 
L 440.37403 185.987898 
L 441.542163 183.420055 
L 442.12623 152.273612 
L 443.87843 145.206186 
L 445.046563 127.615415 
L 445.63063 138.228175 
L 446.214697 122.083186 
L 448.550963 116.871641 
L 449.13503 112.245868 
L 449.719097 91.628106 
L 450.303163 94.250406 
L 452.055363 86.967044 
L 452.63943 51.133024 
L 453.223497 58.043524 
L 453.807563 44.894879 
L 454.39163 46.737484 
L 456.14383 72.050331 
L 456.727897 70.760511 
L 457.311964 73.832451 
L 457.89603 64.57553 
L 458.480097 61.853288 
L 460.232297 78.690763 
L 460.816364 70.940159 
L 461.40043 83.559946 
L 461.984497 92.287549 
L 462.568564 98.029405 
L 464.320764 95.04988 
L 465.488897 94.902297 
L 466.072964 105.885358 
L 466.65703 98.439565 
L 468.993297 117.724746 
L 469.577364 119.648589 
L 470.161431 135.70387 
L 470.745497 160.411997 
L 472.497697 145.963388 
L 473.081764 163.165558 
L 473.665831 161.169247 
L 474.249897 153.921563 
L 474.833964 131.204988 
L 476.586164 131.360947 
L 477.170231 137.167306 
L 477.754297 140.626289 
L 478.338364 142.842731 
L 478.922431 145.788055 
L 480.674631 123.575365 
L 481.258697 117.906351 
L 481.842764 118.190467 
L 482.426831 98.155858 
L 483.010897 105.28261 
L 484.763097 96.979469 
L 485.347164 82.947345 
L 486.515298 100.577808 
L 487.099364 104.805415 
L 488.851564 103.434162 
L 489.435631 110.808237 
L 490.019698 89.194125 
L 490.603764 72.768373 
L 491.187831 71.795072 
L 492.940031 73.263829 
L 493.524098 77.60132 
L 494.108164 96.213316 
L 494.692231 88.549324 
L 497.028498 111.00736 
L 497.612564 124.431259 
L 498.196631 120.692145 
L 498.780698 105.584004 
L 499.364764 111.305198 
L 501.116965 100.901029 
L 501.701031 93.728818 
L 502.285098 99.411346 
L 502.869165 110.769549 
L 503.453231 130.68299 
L 505.205431 135.694203 
L 505.789498 140.553974 
L 506.373565 131.282937 
L 507.541698 94.134501 
L 509.293898 86.094223 
L 509.877965 88.661177 
L 510.462031 119.031489 
L 511.046098 127.818072 
L 511.630165 97.252416 
L 513.382365 101.158145 
L 513.966431 113.965786 
L 515.134565 93.776518 
L 515.718632 100.001988 
L 517.470832 93.913356 
L 518.054898 93.853116 
L 518.638965 107.251381 
L 519.223032 103.078876 
L 519.807098 102.102665 
L 521.559298 101.525086 
L 522.143365 110.954563 
L 522.727432 99.850578 
L 523.311498 133.831739 
L 523.895565 117.483075 
L 526.231832 94.930705 
L 526.815898 103.462627 
L 527.984032 81.09891 
L 530.320299 91.483796 
L 530.904365 103.865854 
L 531.488432 102.384462 
L 532.072499 101.357668 
L 533.824699 86.161312 
L 534.408765 69.736672 
L 534.992832 69.026222 
L 535.576899 67.342584 
L 536.160965 81.365005 
L 538.497232 86.533426 
L 539.081299 94.476208 
L 539.665365 93.790991 
L 540.249432 99.253978 
L 542.001632 99.548316 
L 543.169765 74.565076 
L 543.753832 80.436487 
L 544.337899 71.423208 
L 546.090099 88.809311 
L 547.258232 93.207358 
L 547.842299 93.681066 
L 548.426366 107.900678 
L 550.178566 113.672257 
L 550.762632 116.932927 
L 551.346699 104.915168 
L 551.930766 113.369639 
L 552.514832 110.815011 
L 554.267032 90.694581 
L 554.851099 101.363801 
L 555.435166 100.704765 
L 556.019232 114.233547 
L 556.603299 142.83714 
L 558.355499 129.563842 
L 558.939566 117.494685 
L 559.523632 115.467601 
L 560.107699 116.480192 
L 560.691766 90.491434 
L 562.443966 84.233591 
L 563.028033 96.805912 
L 563.612099 120.658497 
L 564.196166 128.937292 
L 564.780233 176.824848 
L 566.532433 182.185171 
L 567.116499 184.385622 
L 567.700566 183.792941 
L 568.284633 182.11876 
L 568.868699 186.352181 
L 570.620899 181.832109 
L 571.204966 189.923333 
L 571.789033 189.340716 
L 572.373099 207.776958 
L 572.957166 208.589302 
L 574.709366 199.544983 
L 575.293433 187.302334 
L 575.8775 164.564436 
L 576.461566 152.750016 
L 577.045633 131.277947 
L 578.797833 128.723728 
L 579.3819 108.463605 
L 579.965966 98.601673 
L 580.550033 98.248845 
L 581.1341 98.424744 
L 583.470366 88.54332 
L 584.054433 112.94783 
L 584.6385 121.754345 
L 585.222566 121.440754 
L 586.974766 121.851447 
L 587.558833 133.667871 
L 588.1429 149.86254 
L 588.726966 133.166558 
L 589.311033 142.368006 
L 591.063233 137.839867 
L 591.6473 147.560372 
L 592.231367 170.414535 
L 593.3995 177.581982 
L 595.1517 172.887974 
L 595.735767 167.705841 
L 596.319833 158.456049 
L 596.9039 160.225565 
L 597.487967 163.600878 
L 599.240167 141.607921 
L 599.824233 138.838257 
L 600.4083 140.064363 
L 600.992367 131.696102 
L 601.576433 133.297483 
L 603.328633 131.613209 
L 604.496767 103.454394 
L 605.080833 103.283903 
L 605.6649 118.52614 
L 607.4171 93.133327 
L 608.001167 93.444812 
L 608.585234 103.905159 
L 609.1693 108.520349 
L 609.753367 135.932621 
L 611.505567 127.850184 
L 612.089634 132.603574 
L 612.6737 152.747977 
L 613.257767 185.974155 
L 613.841834 187.343412 
L 615.594034 170.445514 
L 616.1781 176.999846 
L 616.762167 161.857375 
L 617.346234 136.664241 
L 617.9303 139.705397 
L 619.6825 123.154254 
L 620.266567 109.02764 
L 620.850634 104.324093 
L 622.018767 85.149611 
L 623.770967 93.538176 
L 624.355034 77.855501 
L 624.939101 53.305533 
L 625.523167 53.011546 
L 626.107234 54.891769 
L 627.859434 53.774859 
L 628.443501 62.539361 
L 629.027567 66.751464 
L 630.195701 69.892289 
L 631.947901 76.416368 
L 632.531967 81.450318 
L 633.116034 93.225353 
L 633.700101 87.476185 
L 634.284167 98.616631 
L 636.036368 100.47156 
L 636.620434 94.771253 
L 637.204501 105.793172 
L 637.788568 104.708242 
L 638.372634 98.883995 
L 640.124834 122.343182 
L 640.708901 111.006461 
L 641.877034 93.358992 
L 642.461101 95.634601 
L 644.213301 107.30452 
L 644.797368 98.248637 
L 645.381434 111.321563 
L 645.965501 116.522872 
L 646.549568 112.811144 
L 648.885834 133.217043 
L 649.469901 126.705208 
L 650.053968 135.437504 
L 650.638035 150.89079 
L 652.974301 167.915202 
L 653.558368 182.450254 
L 654.142435 213.456947 
L 654.726501 215.46 
L 656.478701 181.415166 
L 657.062768 178.649666 
L 657.646835 178.649666 
L 658.230901 174.901703 
L 658.814968 172.286816 
L 661.735301 176.417759 
L 662.319368 146.959836 
L 662.903435 137.729402 
L 664.655635 127.113326 
L 665.239701 95.962938 
L 665.823768 92.30857 
L 666.407835 80.803398 
L 666.991902 86.870592 
L 668.744102 102.73678 
L 669.912235 137.796692 
L 670.496302 126.954671 
L 671.080368 131.516088 
L 672.832568 117.583326 
L 673.416635 109.386775 
L 674.584768 145.654118 
L 675.168835 154.152247 
L 677.505102 171.683071 
L 678.089168 173.111673 
L 678.673235 169.243222 
L 679.257302 171.587709 
L 681.593569 162.756816 
L 682.177635 142.168652 
L 682.761702 144.896703 
L 683.345769 149.076676 
L 685.097969 168.414108 
L 685.682035 169.624505 
L 686.266102 174.647648 
L 686.850169 173.290151 
L 687.434235 183.000036 
L 689.186435 189.684721 
L 689.770502 194.755738 
L 690.354569 194.925532 
L 690.938635 194.662471 
L 691.522702 180.296191 
L 693.274902 166.667774 
L 693.858969 168.208164 
L 694.443035 184.956918 
L 695.027102 169.84496 
L 695.611169 167.307042 
L 697.363369 169.464258 
L 698.531502 139.158853 
L 699.115569 156.691872 
L 699.699636 141.016374 
L 701.451836 128.410946 
L 702.035902 128.974482 
L 702.619969 116.442556 
L 703.204036 128.709348 
L 705.540302 140.80276 
L 706.124369 146.274736 
L 706.708436 136.570388 
L 707.292502 146.793234 
L 707.876569 142.406086 
L 709.628769 150.544283 
L 710.212836 155.730784 
L 710.796903 173.958232 
L 711.380969 116.878541 
L 711.965036 114.909564 
L 713.717236 124.829503 
L 714.301303 132.358432 
L 714.885369 149.939631 
L 715.469436 147.375366 
L 716.053503 149.131692 
L 717.805703 142.062445 
L 718.389769 141.075983 
L 718.973836 130.601965 
L 719.557903 130.231438 
L 720.141969 128.346065 
L 721.894169 119.286211 
L 722.478236 123.603826 
L 723.062303 152.565706 
L 723.646369 143.340921 
L 724.230436 101.330284 
L 725.982636 95.069163 
L 726.566703 88.113684 
L 727.15077 83.324022 
L 727.734836 71.115949 
L 728.318903 78.31221 
L 730.071103 75.405388 
L 730.65517 76.654349 
L 731.239236 74.842549 
L 731.823303 72.064576 
L 732.40737 77.5511 
L 734.743636 51.524492 
L 735.327703 64.004933 
L 735.91177 113.075175 
L 736.495836 92.609645 
L 738.832103 94.559606 
L 739.41617 94.677063 
L 740.000236 97.237799 
L 740.584303 85.653574 
L 742.336503 89.863116 
L 743.504637 95.337137 
L 744.088703 106.038826 
L 744.67277 97.472979 
L 746.42497 122.381091 
L 747.009037 90.285956 
L 747.593103 76.643582 
L 748.17717 58.75229 
L 748.761237 69.392027 
L 750.513437 65.47967 
L 751.097503 74.981217 
L 752.849703 99.180275 
L 754.601903 100.835082 
L 755.18597 99.9319 
L 755.770037 96.253313 
L 756.354104 91.302946 
L 756.93817 103.902778 
L 758.69037 86.280614 
L 759.274437 100.034936 
L 759.858504 108.573675 
L 761.026637 101.745945 
L 762.778837 93.612736 
L 763.362904 99.14623 
L 763.94697 83.718016 
L 764.531037 86.663377 
L 765.115104 74.892216 
L 766.867304 71.721675 
L 767.45137 72.194138 
L 768.035437 96.810388 
L 768.619504 110.792972 
L 769.20357 101.41882 
L 770.95577 113.282425 
L 771.539837 118.670422 
L 772.123904 138.319309 
L 772.707971 153.955757 
L 773.292037 157.215052 
L 775.044237 159.166282 
L 775.628304 173.36324 
L 776.212371 148.675608 
L 776.796437 168.973138 
L 777.380504 179.825127 
L 779.132704 194.943668 
L 779.716771 191.039594 
L 780.300837 173.37215 
L 780.884904 160.630615 
L 781.468971 150.551874 
L 783.221171 149.105347 
L 783.805237 123.389061 
L 784.389304 119.231173 
L 784.973371 113.628675 
L 785.557437 111.507776 
L 787.309638 113.093839 
L 787.893704 118.854849 
L 788.477771 106.965751 
L 789.061838 116.998893 
L 789.645904 63.289244 
L 791.398104 48.865932 
L 791.982171 50.200962 
L 792.566238 66.762313 
L 793.150304 66.138236 
L 793.734371 75.14743 
L 796.654704 134.84904 
L 797.238771 141.489903 
L 797.822838 153.869044 
L 799.575038 152.854716 
L 800.159104 158.790988 
L 800.743171 145.830639 
L 801.327238 138.632468 
L 801.911305 151.09624 
L 803.663505 170.416711 
L 804.247571 172.3492 
L 804.831638 150.789807 
L 805.415705 133.940434 
L 805.999771 133.601972 
L 807.751971 118.946955 
L 808.336038 108.778606 
L 808.920105 117.254283 
L 809.504171 107.381027 
L 810.088238 106.895695 
L 811.840438 91.774943 
L 812.424505 121.654762 
L 813.008571 120.54144 
L 813.592638 122.978557 
L 814.176705 99.6375 
L 815.928905 118.306899 
L 816.512972 117.894151 
L 817.097038 129.284599 
L 817.681105 128.764697 
L 818.265172 128.021757 
L 820.017372 120.357147 
L 820.601438 111.347769 
L 821.185505 120.201615 
L 821.769572 119.970814 
L 822.353638 125.755139 
L 824.105838 98.00836 
L 824.689905 101.911429 
L 825.273972 116.702138 
L 825.858038 120.184143 
L 826.442105 98.547931 
L 828.194305 103.638748 
L 828.778372 114.143714 
L 829.362438 127.381568 
L 829.946505 136.772845 
L 830.530572 160.092416 
L 832.282772 174.383678 
L 832.866839 162.318829 
L 833.450905 165.951852 
L 834.034972 157.113834 
L 834.619039 164.50811 
L 836.371239 169.206154 
L 836.955305 156.505849 
L 837.539372 151.594412 
L 838.123439 141.824683 
L 838.707505 159.284995 
L 840.459705 148.223932 
L 841.043772 136.776811 
L 841.627839 117.959669 
L 842.211905 105.302901 
L 842.795972 96.029843 
L 844.548172 91.914122 
L 845.132239 82.905541 
L 845.716305 95.274552 
L 846.884439 87.185753 
L 848.636639 64.632797 
L 849.220706 60.73288 
L 849.804772 61.341447 
L 850.388839 65.431248 
L 850.972906 39.70998 
L 852.725106 39.346299 
L 853.309172 39.06 
L 853.893239 50.662142 
L 854.477306 45.588529 
L 855.061372 46.368259 
L 856.813572 46.431292 
L 857.397639 46.257574 
L 857.981706 82.636188 
L 858.565772 83.923188 
L 859.149839 79.460362 
L 860.902039 83.605271 
L 861.486106 78.97982 
L 862.654239 77.718401 
L 863.238306 92.724582 
L 864.990506 114.537459 
L 865.574573 123.3266 
L 866.742706 138.121805 
L 867.326773 143.509842 
L 869.078973 139.289439 
L 869.663039 153.939434 
L 870.247106 160.401448 
L 871.415239 161.196174 
L 873.167439 171.621107 
L 873.751506 192.639506 
L 874.335573 176.615883 
L 874.919639 197.712917 
L 875.503706 194.453003 
L 877.839973 197.334207 
L 878.42404 190.779944 
L 879.008106 189.366859 
L 879.592173 183.468802 
L 881.344373 160.023301 
L 881.92844 143.824838 
L 882.512506 136.758661 
L 883.096573 140.86489 
L 883.68064 133.01536 
L 885.43284 142.983928 
L 886.016906 132.106452 
L 886.600973 141.279214 
L 887.18504 120.297403 
L 887.769106 136.07642 
L 889.521306 118.742617 
L 891.273506 95.816254 
L 891.857573 101.025536 
L 894.19384 115.605325 
L 894.777907 117.057053 
L 895.361973 109.908303 
L 895.94604 105.779048 
L 897.69824 70.887765 
L 898.282307 78.171882 
L 898.866373 107.077274 
L 899.45044 119.226034 
L 900.034507 89.87272 
L 901.786707 104.295858 
L 902.370773 121.98246 
L 902.95484 134.867338 
L 903.538907 154.01816 
L 904.122973 151.074546 
L 905.875173 174.389567 
L 906.45924 183.910072 
L 907.043307 190.689024 
L 907.627374 195.806756 
L 908.21144 189.377046 
L 909.96364 187.950539 
L 910.547707 183.560579 
L 911.131774 173.367442 
L 911.71584 187.878367 
L 912.299907 171.3032 
L 914.052107 161.844715 
L 914.636174 154.091273 
L 915.22024 156.659683 
L 915.804307 160.022163 
L 916.388374 151.531213 
L 918.140574 128.409852 
L 918.72464 116.53121 
L 919.308707 91.242895 
L 919.892774 150.940055 
L 920.47684 169.685504 
L 922.229041 174.45973 
L 922.813107 185.603893 
L 923.397174 145.925848 
L 923.981241 156.972287 
L 924.565307 151.144557 
L 926.317507 149.737686 
L 926.901574 148.412513 
L 927.485641 156.191944 
L 928.069707 149.394131 
L 930.405974 156.452755 
L 930.990041 150.723467 
L 931.574107 146.741042 
L 932.742241 109.031057 
L 934.494441 98.639293 
L 935.078507 82.721923 
L 935.662574 106.333619 
L 936.246641 82.655129 
L 936.830708 116.071438 
L 938.582908 138.627401 
L 939.166974 138.627372 
L 939.751041 126.76331 
L 940.335108 130.078312 
L 940.919174 117.70658 
L 942.671374 106.399086 
L 943.255441 111.166479 
L 943.839508 120.586334 
L 944.423574 125.102172 
L 945.007641 127.693893 
L 946.759841 136.628148 
L 947.343908 144.386092 
L 947.927974 155.685695 
L 948.512041 141.169687 
L 949.096108 140.295727 
L 951.432374 126.598529 
L 952.016441 120.157345 
L 952.600508 124.316034 
L 953.184575 124.647698 
L 954.936775 164.701751 
L 955.520841 167.55833 
L 956.104908 167.197546 
L 956.688975 170.216505 
L 957.273041 155.041341 
L 959.025241 155.016649 
L 959.609308 145.164697 
L 960.193375 142.578869 
L 960.777441 138.7332 
L 961.361508 126.682327 
L 963.113708 139.177062 
L 963.697775 150.21507 
L 964.281841 144.386294 
L 965.449975 130.769999 
L 967.202175 131.975149 
L 967.786242 141.696036 
L 968.954375 129.947283 
L 969.538442 142.88078 
L 971.290642 117.035056 
L 971.874708 112.583322 
L 972.458775 82.965729 
L 973.042842 81.735705 
L 975.379108 86.001036 
L 975.963175 89.743372 
L 976.547242 72.233628 
L 977.131308 71.726029 
L 977.715375 87.875421 
L 979.467575 103.304733 
L 980.051642 95.669088 
L 980.635708 96.220016 
L 981.803842 91.184608 
L 984.140109 100.910186 
L 984.724175 121.392469 
L 985.308242 130.015559 
L 985.892309 101.247575 
L 987.644509 100.664565 
L 988.228575 130.407316 
L 988.812642 152.551914 
L 989.396709 153.681348 
L 989.980775 164.686075 
L 991.732975 161.343405 
L 992.317042 170.332298 
L 992.901109 120.045061 
L 994.069242 91.492595 
L 995.821442 100.525693 
L 996.405509 95.956839 
L 996.989575 89.884988 
L 997.573642 91.641375 
L 998.157709 95.220122 
L 999.909909 89.235353 
L 1000.493976 83.320217 
L 1001.078042 92.710794 
L 1001.662109 79.97375 
L 1002.246176 77.984374 
L 1003.998376 78.547732 
L 1005.166509 98.457857 
L 1005.750576 117.609877 
L 1006.334642 110.518118 
L 1008.670909 130.989239 
L 1008.670909 130.989239 
" clip-path="url(#p179bb239f5)" style="fill: none; stroke: #1f77b4; stroke-width: 1.5; stroke-linecap: square"/>
   </g>
   <g id="patch_3">
    <path d="M 145.8 224.28 
L 145.8 30.24 
" style="fill: none; stroke: #000000; stroke-width: 0.8; stroke-linejoin: miter; stroke-linecap: square"/>
   </g>
   <g id="patch_4">
    <path d="M 145.8 224.28 
L 1049.76 224.28 
" style="fill: none; stroke: #000000; stroke-width: 0.8; stroke-linejoin: miter; stroke-linecap: square"/>
   </g>
  </g>
 </g>
 <defs>
  <clipPath id="p179bb239f5">
   <rect x="145.8" y="30.24" width="903.96" height="194.04"/>
  </clipPath>
 </defs>
</svg>
