<?xml version="1.0" encoding="utf-8" standalone="no"?>
<!DOCTYPE svg PUBLIC "-//W3C//DTD SVG 1.1//EN"
  "http://www.w3.org/Graphics/SVG/1.1/DTD/svg11.dtd">
<svg xmlns:xlink="http://www.w3.org/1999/xlink" width="756pt" height="252pt" viewBox="0 0 756 252" xmlns="http://www.w3.org/2000/svg" version="1.1">
 <metadata>
  <rdf:RDF xmlns:dc="http://purl.org/dc/elements/1.1/" xmlns:cc="http://creativecommons.org/ns#" xmlns:rdf="http://www.w3.org/1999/02/22-rdf-syntax-ns#">
   <cc:Work>
    <dc:type rdf:resource="http://purl.org/dc/dcmitype/StillImage"/>
    <dc:date>2025-09-06T17:34:20.269782</dc:date>
    <dc:format>image/svg+xml</dc:format>
    <dc:creator>
     <cc:Agent>
      <dc:title>Matplotlib v3.10.5, https://matplotlib.org/</dc:title>
     </cc:Agent>
    </dc:creator>
   </cc:Work>
  </rdf:RDF>
 </metadata>
 <defs>
  <style type="text/css">*{stroke-linejoin: round; stroke-linecap: butt}</style>
 </defs>
 <g id="figure_1">
  <g id="patch_1">
   <path d="M 0 252 
L 756 252 
L 756 0 
L 0 0 
z
" style="fill: #ffffff"/>
  </g>
  <g id="axes_1">
   <g id="patch_2">
    <path d="M 94.5 224.28 
L 680.4 224.28 
L 680.4 30.24 
L 94.5 30.24 
z
" style="fill: #ffffff"/>
   </g>
   <g id="matplotlib.axis_1">
    <g id="xtick_1">
     <g id="line2d_1">
      <defs>
       <path id="m608367dc0f" d="M 0 0 
L 0 3.5 
" style="stroke: #000000; stroke-width: 0.8"/>
      </defs>
      <g>
       <use xlink:href="#m608367dc0f" x="115.678204" y="224.28" style="stroke: #000000; stroke-width: 0.8"/>
      </g>
     </g>
     <g id="text_1">
      <!-- 2020 -->
      <g transform="translate(102.953204 238.878438) scale(0.1 -0.1)">
       <defs>
        <path id="DejaVuSans-32" d="M 1228 531 
L 3431 531 
L 3431 0 
L 469 0 
L 469 531 
Q 828 903 1448 1529 
Q 2069 2156 2228 2338 
Q 2531 2678 2651 2914 
Q 2772 3150 2772 3378 
Q 2772 3750 2511 3984 
Q 2250 4219 1831 4219 
Q 1534 4219 1204 4116 
Q 875 4013 500 3803 
L 500 4441 
Q 881 4594 1212 4672 
Q 1544 4750 1819 4750 
Q 2544 4750 2975 4387 
Q 3406 4025 3406 3419 
Q 3406 3131 3298 2873 
Q 3191 2616 2906 2266 
Q 2828 2175 2409 1742 
Q 1991 1309 1228 531 
z
" transform="scale(0.015625)"/>
        <path id="DejaVuSans-30" d="M 2034 4250 
Q 1547 4250 1301 3770 
Q 1056 3291 1056 2328 
Q 1056 1369 1301 889 
Q 1547 409 2034 409 
Q 2525 409 2770 889 
Q 3016 1369 3016 2328 
Q 3016 3291 2770 3770 
Q 2525 4250 2034 4250 
z
M 2034 4750 
Q 2819 4750 3233 4129 
Q 3647 3509 3647 2328 
Q 3647 1150 3233 529 
Q 2819 -91 2034 -91 
Q 1250 -91 836 529 
Q 422 1150 422 2328 
Q 422 3509 836 4129 
Q 1250 4750 2034 4750 
z
" transform="scale(0.015625)"/>
       </defs>
       <use xlink:href="#DejaVuSans-32"/>
       <use xlink:href="#DejaVuSans-30" transform="translate(63.623047 0)"/>
       <use xlink:href="#DejaVuSans-32" transform="translate(127.246094 0)"/>
       <use xlink:href="#DejaVuSans-30" transform="translate(190.869141 0)"/>
      </g>
     </g>
    </g>
    <g id="xtick_2">
     <g id="line2d_2">
      <g>
       <use xlink:href="#m608367dc0f" x="210.726916" y="224.28" style="stroke: #000000; stroke-width: 0.8"/>
      </g>
     </g>
     <g id="text_2">
      <!-- 2021 -->
      <g transform="translate(198.001916 238.878438) scale(0.1 -0.1)">
       <defs>
        <path id="DejaVuSans-31" d="M 794 531 
L 1825 531 
L 1825 4091 
L 703 3866 
L 703 4441 
L 1819 4666 
L 2450 4666 
L 2450 531 
L 3481 531 
L 3481 0 
L 794 0 
L 794 531 
z
" transform="scale(0.015625)"/>
       </defs>
       <use xlink:href="#DejaVuSans-32"/>
       <use xlink:href="#DejaVuSans-30" transform="translate(63.623047 0)"/>
       <use xlink:href="#DejaVuSans-32" transform="translate(127.246094 0)"/>
       <use xlink:href="#DejaVuSans-31" transform="translate(190.869141 0)"/>
      </g>
     </g>
    </g>
    <g id="xtick_3">
     <g id="line2d_3">
      <g>
       <use xlink:href="#m608367dc0f" x="305.515932" y="224.28" style="stroke: #000000; stroke-width: 0.8"/>
      </g>
     </g>
     <g id="text_3">
      <!-- 2022 -->
      <g transform="translate(292.790932 238.878438) scale(0.1 -0.1)">
       <use xlink:href="#DejaVuSans-32"/>
       <use xlink:href="#DejaVuSans-30" transform="translate(63.623047 0)"/>
       <use xlink:href="#DejaVuSans-32" transform="translate(127.246094 0)"/>
       <use xlink:href="#DejaVuSans-32" transform="translate(190.869141 0)"/>
      </g>
     </g>
    </g>
    <g id="xtick_4">
     <g id="line2d_4">
      <g>
       <use xlink:href="#m608367dc0f" x="400.304949" y="224.28" style="stroke: #000000; stroke-width: 0.8"/>
      </g>
     </g>
     <g id="text_4">
      <!-- 2023 -->
      <g transform="translate(387.579949 238.878438) scale(0.1 -0.1)">
       <defs>
        <path id="DejaVuSans-33" d="M 2597 2516 
Q 3050 2419 3304 2112 
Q 3559 1806 3559 1356 
Q 3559 666 3084 287 
Q 2609 -91 1734 -91 
Q 1441 -91 1130 -33 
Q 819 25 488 141 
L 488 750 
Q 750 597 1062 519 
Q 1375 441 1716 441 
Q 2309 441 2620 675 
Q 2931 909 2931 1356 
Q 2931 1769 2642 2001 
Q 2353 2234 1838 2234 
L 1294 2234 
L 1294 2753 
L 1863 2753 
Q 2328 2753 2575 2939 
Q 2822 3125 2822 3475 
Q 2822 3834 2567 4026 
Q 2313 4219 1838 4219 
Q 1578 4219 1281 4162 
Q 984 4106 628 3988 
L 628 4550 
Q 988 4650 1302 4700 
Q 1616 4750 1894 4750 
Q 2613 4750 3031 4423 
Q 3450 4097 3450 3541 
Q 3450 3153 3228 2886 
Q 3006 2619 2597 2516 
z
" transform="scale(0.015625)"/>
       </defs>
       <use xlink:href="#DejaVuSans-32"/>
       <use xlink:href="#DejaVuSans-30" transform="translate(63.623047 0)"/>
       <use xlink:href="#DejaVuSans-32" transform="translate(127.246094 0)"/>
       <use xlink:href="#DejaVuSans-33" transform="translate(190.869141 0)"/>
      </g>
     </g>
    </g>
    <g id="xtick_5">
     <g id="line2d_5">
      <g>
       <use xlink:href="#m608367dc0f" x="495.093965" y="224.28" style="stroke: #000000; stroke-width: 0.8"/>
      </g>
     </g>
     <g id="text_5">
      <!-- 2024 -->
      <g transform="translate(482.368965 238.878438) scale(0.1 -0.1)">
       <defs>
        <path id="DejaVuSans-34" d="M 2419 4116 
L 825 1625 
L 2419 1625 
L 2419 4116 
z
M 2253 4666 
L 3047 4666 
L 3047 1625 
L 3713 1625 
L 3713 1100 
L 3047 1100 
L 3047 0 
L 2419 0 
L 2419 1100 
L 313 1100 
L 313 1709 
L 2253 4666 
z
" transform="scale(0.015625)"/>
       </defs>
       <use xlink:href="#DejaVuSans-32"/>
       <use xlink:href="#DejaVuSans-30" transform="translate(63.623047 0)"/>
       <use xlink:href="#DejaVuSans-32" transform="translate(127.246094 0)"/>
       <use xlink:href="#DejaVuSans-34" transform="translate(190.869141 0)"/>
      </g>
     </g>
    </g>
    <g id="xtick_6">
     <g id="line2d_6">
      <g>
       <use xlink:href="#m608367dc0f" x="590.142678" y="224.28" style="stroke: #000000; stroke-width: 0.8"/>
      </g>
     </g>
     <g id="text_6">
      <!-- 2025 -->
      <g transform="translate(577.417678 238.878438) scale(0.1 -0.1)">
       <defs>
        <path id="DejaVuSans-35" d="M 691 4666 
L 3169 4666 
L 3169 4134 
L 1269 4134 
L 1269 2991 
Q 1406 3038 1543 3061 
Q 1681 3084 1819 3084 
Q 2600 3084 3056 2656 
Q 3513 2228 3513 1497 
Q 3513 744 3044 326 
Q 2575 -91 1722 -91 
Q 1428 -91 1123 -41 
Q 819 9 494 109 
L 494 744 
Q 775 591 1075 516 
Q 1375 441 1709 441 
Q 2250 441 2565 725 
Q 2881 1009 2881 1497 
Q 2881 1984 2565 2268 
Q 2250 2553 1709 2553 
Q 1456 2553 1204 2497 
Q 953 2441 691 2322 
L 691 4666 
z
" transform="scale(0.015625)"/>
       </defs>
       <use xlink:href="#DejaVuSans-32"/>
       <use xlink:href="#DejaVuSans-30" transform="translate(63.623047 0)"/>
       <use xlink:href="#DejaVuSans-32" transform="translate(127.246094 0)"/>
       <use xlink:href="#DejaVuSans-35" transform="translate(190.869141 0)"/>
      </g>
     </g>
    </g>
   </g>
   <g id="matplotlib.axis_2">
    <g id="ytick_1">
     <g id="line2d_7">
      <defs>
       <path id="m18f5057f5e" d="M 0 0 
L -3.5 0 
" style="stroke: #000000; stroke-width: 0.8"/>
      </defs>
      <g>
       <use xlink:href="#m18f5057f5e" x="94.5" y="219.196786" style="stroke: #000000; stroke-width: 0.8"/>
      </g>
     </g>
     <g id="text_7">
      <!-- 50 -->
      <g transform="translate(74.775 222.996005) scale(0.1 -0.1)">
       <use xlink:href="#DejaVuSans-35"/>
       <use xlink:href="#DejaVuSans-30" transform="translate(63.623047 0)"/>
      </g>
     </g>
    </g>
    <g id="ytick_2">
     <g id="line2d_8">
      <g>
       <use xlink:href="#m18f5057f5e" x="94.5" y="197.556522" style="stroke: #000000; stroke-width: 0.8"/>
      </g>
     </g>
     <g id="text_8">
      <!-- 75 -->
      <g transform="translate(74.775 201.355741) scale(0.1 -0.1)">
       <defs>
        <path id="DejaVuSans-37" d="M 525 4666 
L 3525 4666 
L 3525 4397 
L 1831 0 
L 1172 0 
L 2766 4134 
L 525 4134 
L 525 4666 
z
" transform="scale(0.015625)"/>
       </defs>
       <use xlink:href="#DejaVuSans-37"/>
       <use xlink:href="#DejaVuSans-35" transform="translate(63.623047 0)"/>
      </g>
     </g>
    </g>
    <g id="ytick_3">
     <g id="line2d_9">
      <g>
       <use xlink:href="#m18f5057f5e" x="94.5" y="175.916258" style="stroke: #000000; stroke-width: 0.8"/>
      </g>
     </g>
     <g id="text_9">
      <!-- 100 -->
      <g transform="translate(68.4125 179.715477) scale(0.1 -0.1)">
       <use xlink:href="#DejaVuSans-31"/>
       <use xlink:href="#DejaVuSans-30" transform="translate(63.623047 0)"/>
       <use xlink:href="#DejaVuSans-30" transform="translate(127.246094 0)"/>
      </g>
     </g>
    </g>
    <g id="ytick_4">
     <g id="line2d_10">
      <g>
       <use xlink:href="#m18f5057f5e" x="94.5" y="154.275994" style="stroke: #000000; stroke-width: 0.8"/>
      </g>
     </g>
     <g id="text_10">
      <!-- 125 -->
      <g transform="translate(68.4125 158.075212) scale(0.1 -0.1)">
       <use xlink:href="#DejaVuSans-31"/>
       <use xlink:href="#DejaVuSans-32" transform="translate(63.623047 0)"/>
       <use xlink:href="#DejaVuSans-35" transform="translate(127.246094 0)"/>
      </g>
     </g>
    </g>
    <g id="ytick_5">
     <g id="line2d_11">
      <g>
       <use xlink:href="#m18f5057f5e" x="94.5" y="132.63573" style="stroke: #000000; stroke-width: 0.8"/>
      </g>
     </g>
     <g id="text_11">
      <!-- 150 -->
      <g transform="translate(68.4125 136.434948) scale(0.1 -0.1)">
       <use xlink:href="#DejaVuSans-31"/>
       <use xlink:href="#DejaVuSans-35" transform="translate(63.623047 0)"/>
       <use xlink:href="#DejaVuSans-30" transform="translate(127.246094 0)"/>
      </g>
     </g>
    </g>
    <g id="ytick_6">
     <g id="line2d_12">
      <g>
       <use xlink:href="#m18f5057f5e" x="94.5" y="110.995466" style="stroke: #000000; stroke-width: 0.8"/>
      </g>
     </g>
     <g id="text_12">
      <!-- 175 -->
      <g transform="translate(68.4125 114.794684) scale(0.1 -0.1)">
       <use xlink:href="#DejaVuSans-31"/>
       <use xlink:href="#DejaVuSans-37" transform="translate(63.623047 0)"/>
       <use xlink:href="#DejaVuSans-35" transform="translate(127.246094 0)"/>
      </g>
     </g>
    </g>
    <g id="ytick_7">
     <g id="line2d_13">
      <g>
       <use xlink:href="#m18f5057f5e" x="94.5" y="89.355202" style="stroke: #000000; stroke-width: 0.8"/>
      </g>
     </g>
     <g id="text_13">
      <!-- 200 -->
      <g transform="translate(68.4125 93.15442) scale(0.1 -0.1)">
       <use xlink:href="#DejaVuSans-32"/>
       <use xlink:href="#DejaVuSans-30" transform="translate(63.623047 0)"/>
       <use xlink:href="#DejaVuSans-30" transform="translate(127.246094 0)"/>
      </g>
     </g>
    </g>
    <g id="ytick_8">
     <g id="line2d_14">
      <g>
       <use xlink:href="#m18f5057f5e" x="94.5" y="67.714938" style="stroke: #000000; stroke-width: 0.8"/>
      </g>
     </g>
     <g id="text_14">
      <!-- 225 -->
      <g transform="translate(68.4125 71.514156) scale(0.1 -0.1)">
       <use xlink:href="#DejaVuSans-32"/>
       <use xlink:href="#DejaVuSans-32" transform="translate(63.623047 0)"/>
       <use xlink:href="#DejaVuSans-35" transform="translate(127.246094 0)"/>
      </g>
     </g>
    </g>
    <g id="ytick_9">
     <g id="line2d_15">
      <g>
       <use xlink:href="#m18f5057f5e" x="94.5" y="46.074674" style="stroke: #000000; stroke-width: 0.8"/>
      </g>
     </g>
     <g id="text_15">
      <!-- 250 -->
      <g transform="translate(68.4125 49.873892) scale(0.1 -0.1)">
       <use xlink:href="#DejaVuSans-32"/>
       <use xlink:href="#DejaVuSans-35" transform="translate(63.623047 0)"/>
       <use xlink:href="#DejaVuSans-30" transform="translate(127.246094 0)"/>
      </g>
     </g>
    </g>
   </g>
   <g id="line2d_16">
    <path d="M 121.131818 196.060076 
L 121.391514 195.740227 
L 121.65121 195.932558 
L 122.430298 197.889335 
L 122.94969 194.67195 
L 123.209386 194.770199 
L 123.469082 197.772257 
L 124.248169 197.949947 
L 124.507865 195.819667 
L 125.027257 194.490067 
L 125.286953 195.41421 
L 126.066041 195.095681 
L 126.325737 195.502216 
L 126.585433 193.911701 
L 126.845129 194.399968 
L 127.104825 194.3832 
L 128.143608 195.630038 
L 128.403304 194.661899 
L 128.663 195.357632 
L 128.922696 196.876882 
L 129.701784 199.99292 
L 129.96148 202.109397 
L 130.221176 201.151746 
L 130.480872 205.160491 
L 130.740568 205.19402 
L 131.519656 199.860892 
L 131.779352 201.849573 
L 132.039047 199.037369 
L 132.298743 201.095188 
L 132.558439 201.910324 
L 133.337527 206.700689 
L 133.597223 202.683563 
L 133.856919 204.760224 
L 134.116615 210.460067 
L 134.376311 204.227988 
L 135.155399 211.721583 
L 135.415095 209.489842 
L 135.674791 210.786973 
L 135.934487 211.183036 
L 136.194182 214.439474 
L 136.97327 215.46 
L 137.232966 210.742967 
L 137.492662 211.027953 
L 137.752358 208.320549 
L 138.012054 210.562754 
L 138.791142 209.081217 
L 139.050838 209.190188 
L 139.310534 211.993995 
L 139.57023 211.151601 
L 139.829926 211.889224 
L 140.609013 207.476042 
L 140.868709 208.113088 
L 141.128405 206.72165 
L 141.388101 206.319316 
L 142.426885 205.217062 
L 142.686581 202.325259 
L 142.946277 202.874283 
L 143.205973 202.400677 
L 143.465669 203.215833 
L 144.244756 204.445929 
L 144.504452 206.239671 
L 144.764148 204.619841 
L 145.023844 204.844056 
L 145.28354 203.18023 
L 146.062628 203.138307 
L 146.322324 204.100139 
L 146.841716 200.910769 
L 147.101412 201.901943 
L 147.8805 201.044859 
L 148.399891 199.479512 
L 148.659587 198.827821 
L 148.919283 197.312851 
L 149.698371 196.287448 
L 150.217763 197.833953 
L 150.477459 197.43681 
L 150.737155 197.821326 
L 151.516243 196.297955 
L 151.775939 196.680371 
L 152.035635 195.40075 
L 152.29533 195.900838 
L 152.555026 195.4722 
L 153.59381 195.926046 
L 153.853506 195.636094 
L 154.372898 195.671815 
L 155.671378 194.163145 
L 155.931074 194.75149 
L 156.190769 192.822582 
L 156.969857 192.410738 
L 157.489249 188.338633 
L 157.748945 191.89807 
L 158.008641 191.288711 
L 158.787729 190.408307 
L 159.047425 188.49832 
L 159.307121 188.601284 
L 159.566817 188.571863 
L 159.826513 188.994201 
L 160.6056 187.071607 
L 160.865296 185.462079 
L 161.124992 186.821563 
L 161.384688 185.817194 
L 161.644384 188.172626 
L 162.683168 185.825594 
L 162.942864 185.970574 
L 163.20256 185.970574 
L 164.241343 183.924001 
L 164.501039 184.167744 
L 164.760735 182.343908 
L 165.020431 181.999306 
L 165.280127 181.858527 
L 166.059215 182.230449 
L 166.318911 180.902493 
L 166.578607 180.341457 
L 166.838303 181.352146 
L 167.097999 181.516033 
L 167.877087 179.809867 
L 168.136783 180.950809 
L 168.396478 180.721779 
L 168.656174 184.443029 
L 168.91587 184.636324 
L 169.694958 182.791473 
L 169.954654 184.100508 
L 170.474046 181.631604 
L 170.733742 173.167968 
L 171.772526 170.306147 
L 172.032222 169.97206 
L 172.291917 166.744611 
L 172.551613 168.921159 
L 173.330701 167.561345 
L 173.590397 170.384142 
L 173.850093 167.323485 
L 174.109789 165.63949 
L 175.148573 165.978398 
L 175.408269 165.174285 
L 175.667965 165.052202 
L 175.927661 162.890381 
L 176.187357 157.758427 
L 176.966444 156.505949 
L 177.22614 157.375304 
L 177.485836 155.946028 
L 177.745532 157.21954 
L 178.005228 157.390057 
L 178.784316 153.826308 
L 179.044012 149.498467 
L 179.303708 151.839205 
L 179.563404 160.696987 
L 179.8231 160.629625 
L 180.861883 167.483456 
L 181.121579 163.694488 
L 181.381275 166.919315 
L 181.640971 168.1739 
L 182.420059 165.344783 
L 182.679755 165.193239 
L 182.939451 168.064431 
L 183.199147 169.571608 
L 183.458843 172.518595 
L 184.23793 169.790514 
L 184.497626 168.333877 
L 184.757322 172.282816 
L 185.017018 171.356639 
L 185.276714 167.938141 
L 186.055802 165.681611 
L 186.315498 166.414136 
L 186.83489 164.140739 
L 187.094586 167.315052 
L 187.873674 164.384899 
L 188.13337 167.197169 
L 188.393065 165.580549 
L 188.652761 165.673171 
L 188.912457 163.989182 
L 189.691545 157.733153 
L 189.951241 160.511749 
L 190.210937 160.43596 
L 190.470633 160.840124 
L 190.730329 162.263099 
L 191.509417 164.822769 
L 191.769113 163.534504 
L 192.028809 164.073371 
L 192.5482 165.614243 
L 193.327288 165.605803 
L 193.586984 164.300723 
L 193.84668 168.847503 
L 194.106376 165.378477 
L 194.366072 170.817766 
L 195.14516 170.893535 
L 195.404856 169.487413 
L 195.924248 162.254685 
L 196.183944 162.368533 
L 196.963031 164.367497 
L 197.222727 164.662706 
L 197.482423 161.693787 
L 197.742119 161.929956 
L 198.001815 161.887789 
L 198.780903 161.010595 
L 199.040599 161.778121 
L 199.300295 162.925218 
L 199.559991 162.410707 
L 200.598774 166.450835 
L 201.118166 164.612119 
L 201.637558 164.139768 
L 202.416646 162.064897 
L 202.676342 158.969444 
L 202.936038 158.665808 
L 203.195734 158.783882 
L 203.45543 159.365848 
L 204.494213 157.569319 
L 204.753909 159.762291 
L 205.013605 158.530847 
L 205.273301 159.2309 
L 206.052389 159.762291 
L 206.312085 154.617266 
L 206.571781 154.6763 
L 206.831477 153.925634 
L 207.091173 155.646262 
L 207.870261 154.322064 
L 208.129957 151.243504 
L 208.389652 152.019418 
L 208.649348 151.16757 
L 209.688132 147.186496 
L 210.207524 149.691531 
L 210.46722 150.560272 
L 211.506004 153.326789 
L 211.7657 151.977251 
L 212.025396 155.696863 
L 212.285092 152.053151 
L 212.544787 151.100103 
L 213.323875 153.689472 
L 213.583571 153.84128 
L 213.843267 152.078465 
L 214.362659 155.241412 
L 215.401443 154.65942 
L 216.180531 145.179079 
L 216.959618 141.931811 
L 217.219314 141.729396 
L 217.47901 142.657164 
L 217.998402 151.175984 
L 219.037186 148.620348 
L 219.296882 149.505956 
L 219.556578 146.596077 
L 219.816274 146.955102 
L 220.595361 146.828356 
L 221.114753 148.112309 
L 221.374449 148.331935 
L 221.634145 148.129255 
L 222.672929 149.970672 
L 222.932625 151.955748 
L 223.192321 152.910256 
L 223.452017 152.775103 
L 224.231105 156.044118 
L 224.4908 156.162398 
L 224.750496 156.593189 
L 225.010192 160.276115 
L 225.269888 160.048043 
L 226.048976 154.532107 
L 226.828064 161.002577 
L 227.08776 159.91289 
L 227.866848 164.187113 
L 228.126544 160.191649 
L 228.38624 161.129277 
L 228.645935 159.456746 
L 228.905631 160.242342 
L 229.684719 157.742002 
L 229.944415 156.40735 
L 230.204111 157.091566 
L 230.463807 160.664679 
L 230.723503 161.12083 
L 231.502591 158.248819 
L 231.762287 158.966809 
L 232.021983 161.036364 
L 232.541374 160.090276 
L 233.320462 159.93823 
L 233.580158 161.19683 
L 233.839854 159.296267 
L 234.09955 158.578251 
L 235.138334 156.128598 
L 235.39803 155.866733 
L 235.657726 154.439187 
L 236.177118 150.131178 
L 236.956205 151.617863 
L 237.215901 148.923238 
L 237.475597 150.95052 
L 237.735293 148.864118 
L 237.994989 149.151317 
L 238.774077 148.57692 
L 239.033773 150.038232 
L 239.293469 149.708833 
L 239.553165 151.026546 
L 239.812861 149.016171 
L 240.591948 148.678266 
L 240.851644 148.957024 
L 241.11134 149.64126 
L 241.371036 149.725713 
L 241.630732 151.432024 
L 242.40982 150.519749 
L 242.669516 154.481427 
L 242.929212 154.270248 
L 243.188908 152.884916 
L 243.448604 152.301095 
L 244.487388 155.939483 
L 244.747083 158.596392 
L 245.266475 154.636445 
L 246.045563 155.634896 
L 246.305259 156.836417 
L 246.564955 156.971781 
L 246.824651 154.754896 
L 247.084347 156.345635 
L 247.863435 154.932598 
L 248.382827 155.144127 
L 248.642522 156.472578 
L 248.902218 157.039479 
L 249.941002 157.318707 
L 250.200698 156.658701 
L 250.460394 157.944847 
L 250.72009 155.956423 
L 251.499178 155.947956 
L 251.758874 155.237205 
L 252.01857 154.907206 
L 252.278266 155.770267 
L 252.537962 154.721043 
L 253.317049 152.072627 
L 253.576745 152.783391 
L 253.836441 152.351848 
L 254.096137 150.964164 
L 254.355833 152.089546 
L 255.134921 150.53264 
L 255.394617 149.111137 
L 256.173705 149.847281 
L 256.952792 148.434206 
L 257.212488 147.122674 
L 257.472184 146.589605 
L 257.73188 146.327331 
L 257.991576 144.051194 
L 259.03036 142.308125 
L 259.290056 140.150504 
L 259.549752 141.275827 
L 259.809448 139.693554 
L 260.588536 140.209716 
L 260.848231 139.245111 
L 261.107927 136.275175 
L 261.367623 136.842043 
L 261.627319 138.610524 
L 262.406407 141.944319 
L 262.666103 138.813587 
L 262.925799 139.448186 
L 263.445191 136.774364 
L 264.224279 136.410519 
L 264.74367 139.803578 
L 265.003366 139.245111 
L 265.263062 139.058968 
L 266.04215 139.346655 
L 266.301846 137.789755 
L 266.561542 138.136668 
L 266.821238 138.04359 
L 267.080934 138.636769 
L 267.860022 138.679114 
L 268.119718 139.094366 
L 268.379414 138.874054 
L 268.63911 136.306372 
L 268.898805 136.128419 
L 269.677893 134.41664 
L 269.937589 135.204745 
L 270.197285 138.450349 
L 270.456981 138.162213 
L 270.716677 136.899578 
L 271.495765 135.611517 
L 271.755461 135.687781 
L 272.274853 137.450398 
L 272.534549 136.552137 
L 273.313636 132.72186 
L 273.573332 133.814981 
L 273.833028 133.238762 
L 274.35242 131.72187 
L 275.391204 129.696595 
L 275.910596 131.916796 
L 276.170292 136.238601 
L 276.949379 135.747112 
L 277.209075 136.958909 
L 277.468771 136.18775 
L 277.728467 136.391156 
L 277.988163 138.704553 
L 278.767251 141.348472 
L 279.026947 140.933247 
L 279.286643 138.88252 
L 279.546339 138.052017 
L 279.806035 137.975792 
L 280.585123 139.289266 
L 280.844818 142.221321 
L 281.104514 141.441708 
L 281.36421 142.568748 
L 281.623906 141.59425 
L 282.402994 144.568624 
L 282.66269 142.899243 
L 283.182082 141.051909 
L 283.441778 141.382377 
L 284.220866 141.458655 
L 284.480562 142.560255 
L 284.740258 143.068677 
L 284.999953 140.653603 
L 285.259649 139.738409 
L 286.038737 138.289328 
L 286.298433 136.416528 
L 286.558129 135.992863 
L 286.817825 135.806404 
L 287.077521 136.475873 
L 287.856609 136.518231 
L 288.116305 135.941985 
L 288.376001 136.340278 
L 288.635697 133.187884 
L 288.895392 135.535227 
L 289.67448 136.247054 
L 290.193872 134.103131 
L 290.453568 134.552235 
L 290.713264 134.093991 
L 291.492352 134.806849 
L 291.752048 134.492838 
L 292.011744 136.94541 
L 292.27144 136.987861 
L 292.531136 135.18871 
L 293.310223 135.180231 
L 293.569919 134.331606 
L 293.829615 132.21847 
L 294.349007 126.227034 
L 295.128095 125.828173 
L 295.647487 125.047425 
L 296.166879 129.400957 
L 296.945966 126.490101 
L 297.205662 122.19594 
L 297.465358 122.645705 
L 297.725054 123.502862 
L 297.98475 125.132248 
L 298.763838 122.178981 
L 299.28323 113.896165 
L 299.542926 114.337489 
L 299.802622 110.187575 
L 300.841406 114.532653 
L 301.101101 110.314888 
L 301.360797 116.289392 
L 301.620493 117.239852 
L 302.399581 118.41946 
L 302.918973 113.420935 
L 303.178669 112.877801 
L 304.217453 109.440772 
L 304.477149 110.323368 
L 304.736845 110.246972 
L 304.99654 111.248376 
L 305.256236 111.783029 
L 306.035324 108.015029 
L 306.29502 109.975438 
L 306.814412 116.510008 
L 307.074108 116.365749 
L 307.853196 116.348789 
L 308.112892 113.896165 
L 308.372588 113.51429 
L 308.632284 116.348789 
L 308.89198 115.601947 
L 309.930763 118.377036 
L 310.190459 121.406726 
L 310.709851 124.648539 
L 311.488939 125.318959 
L 311.748635 126.880508 
L 312.008331 126.956864 
L 312.268027 127.355738 
L 312.527723 117.927258 
L 313.30681 114.150778 
L 313.566506 114.295038 
L 313.826202 113.251196 
L 314.085898 115.746246 
L 315.124682 116.612953 
L 315.384378 113.919305 
L 315.644074 112.687221 
L 316.163466 119.179115 
L 316.942554 118.975194 
L 317.202249 115.652759 
L 317.461945 115.856706 
L 317.721641 118.975194 
L 317.981337 120.317778 
L 319.020121 122.849943 
L 319.279817 126.461294 
L 319.799209 122.39961 
L 320.578297 122.170158 
L 320.837993 123.801657 
L 321.097688 120.946579 
L 321.357384 121.226989 
L 321.61708 123.827149 
L 322.396168 127.1156 
L 322.655864 128.696063 
L 322.91556 124.014084 
L 323.434952 130.998828 
L 324.21404 134.49124 
L 324.733432 126.869149 
L 324.993128 125.993962 
L 325.252823 123.138885 
L 326.031911 121.949251 
L 326.291607 119.026165 
L 326.551303 117.845037 
L 326.810999 114.565066 
L 327.070695 114.012779 
L 327.849783 113.264999 
L 328.109479 110.409908 
L 328.369175 111.421099 
L 328.628871 114.106254 
L 328.888567 114.361158 
L 329.667654 110.851774 
L 330.187046 116.468469 
L 330.446742 116.205085 
L 330.706438 117.947044 
L 331.485526 121.634857 
L 331.745222 120.011837 
L 332.004918 117.68362 
L 332.264614 122.025713 
L 333.303397 122.212662 
L 333.563093 120.232784 
L 333.822789 120.377255 
L 334.082485 121.065532 
L 334.342181 124.999783 
L 335.121269 124.073561 
L 335.380965 129.239923 
L 335.640661 129.435338 
L 335.900357 123.42776 
L 336.160053 128.517634 
L 336.939141 128.25425 
L 337.198836 126.962636 
L 337.458532 121.405405 
L 337.718228 129.265401 
L 337.977924 128.635689 
L 338.757012 133.077794 
L 339.016708 130.992898 
L 339.276404 137.809224 
L 339.5361 141.162052 
L 339.795796 137.290104 
L 340.574884 138.626176 
L 340.83458 135.477507 
L 341.094276 142.642767 
L 341.353971 145.595638 
L 341.613667 145.3914 
L 342.392755 140.69402 
L 342.652451 143.034191 
L 342.912147 142.898068 
L 343.171843 140.123877 
L 343.431539 135.137159 
L 344.730019 135.928553 
L 344.989715 133.801113 
L 345.24941 138.762312 
L 346.028498 138.115574 
L 346.288194 135.928553 
L 346.54789 136.566785 
L 347.067282 145.782864 
L 347.84637 150.250474 
L 348.106066 149.501624 
L 348.365762 147.229515 
L 348.625458 151.799284 
L 348.885154 150.522813 
L 349.923937 146.855076 
L 350.183633 147.297603 
L 350.703025 141.927941 
L 351.482113 141.927941 
L 351.741809 145.519044 
L 352.001505 143.995798 
L 352.261201 146.131744 
L 352.520897 144.251112 
L 353.55968 142.013041 
L 353.819376 140.855715 
L 354.079072 137.936842 
L 354.338768 137.349659 
L 355.117856 139.196306 
L 355.377552 138.35385 
L 355.637248 138.668667 
L 356.15664 134.686139 
L 356.935728 137.324154 
L 357.195424 133.979819 
L 357.714815 130.278045 
L 357.974511 131.350311 
L 358.753599 132.320411 
L 359.013295 133.469218 
L 359.272991 129.052657 
L 359.532687 128.576107 
L 359.792383 124.185064 
L 360.571471 125.036053 
L 360.831167 126.312517 
L 361.090863 121.104523 
L 361.610254 121.572832 
L 362.389342 121.981875 
L 362.649038 121.939279 
L 362.908734 118.257938 
L 363.16843 118.897068 
L 363.428126 115.820766 
L 364.207214 114.891915 
L 364.46691 115.02829 
L 364.726606 113.732991 
L 364.986302 114.073854 
L 365.245998 116.315043 
L 366.025085 119.681052 
L 366.284781 119.9708 
L 366.544477 119.715129 
L 366.804173 117.584757 
L 367.063869 123.047088 
L 367.842957 124.955919 
L 368.362349 128.500912 
L 368.622045 127.870315 
L 368.881741 129.702446 
L 369.920524 130.79319 
L 370.18022 129.574618 
L 370.439916 130.852851 
L 370.699612 128.373071 
L 371.4787 123.208993 
L 371.738396 131.381205 
L 371.998092 130.128542 
L 372.257788 132.633867 
L 372.517484 134.056968 
L 373.296572 130.8358 
L 373.556267 128.773608 
L 373.815963 131.483436 
L 374.075659 132.318562 
L 374.335355 134.287081 
L 375.114443 133.997307 
L 375.374139 133.153701 
L 375.633835 134.789824 
L 376.153227 144.708934 
L 376.932315 141.08728 
L 377.192011 137.976889 
L 377.451706 137.721258 
L 377.711402 138.547838 
L 377.971098 143.098369 
L 378.750186 142.817168 
L 379.009882 144.044272 
L 379.269578 144.589677 
L 379.529274 140.627108 
L 379.78897 144.555561 
L 380.827754 139.979498 
L 381.08745 139.88576 
L 381.347146 140.286258 
L 381.606841 136.979896 
L 382.385929 135.122181 
L 382.645625 132.659452 
L 382.905321 135.2074 
L 383.165017 139.084697 
L 383.424713 129.762108 
L 384.203801 131.807261 
L 384.463497 134.099565 
L 384.982889 144.129492 
L 385.242585 144.359948 
L 386.021672 143.899035 
L 386.281368 143.40394 
L 386.541064 147.355996 
L 386.80076 137.113114 
L 387.060456 134.697498 
L 387.839544 135.909573 
L 388.09924 134.407302 
L 388.358936 135.474284 
L 388.618632 133.826869 
L 388.878328 133.340359 
L 389.657415 136.140042 
L 389.917111 134.287794 
L 390.176807 133.528113 
L 391.475287 139.375105 
L 391.734983 141.978515 
L 391.994679 136.122977 
L 392.254375 135.883988 
L 392.514071 136.310757 
L 393.293159 137.317986 
L 393.552854 140.493269 
L 393.81255 142.174815 
L 394.072246 140.71522 
L 394.331942 141.133443 
L 395.370726 138.308123 
L 395.630422 140.237189 
L 395.890118 145.964674 
L 396.149814 147.663271 
L 396.928902 149.489934 
L 397.188598 149.549662 
L 397.448294 146.860928 
L 397.707989 149.609429 
L 397.967685 149.925223 
L 399.006469 151.487287 
L 399.266165 154.893033 
L 399.525861 151.845777 
L 399.785557 151.572651 
L 400.824341 155.721007 
L 401.084037 154.619888 
L 401.343733 155.763696 
L 401.603428 151.837257 
L 402.382516 151.384858 
L 402.642212 150.889789 
L 402.901908 148.533914 
L 403.161604 148.6022 
L 403.4213 147.44988 
L 404.460084 146.442651 
L 404.71978 147.06576 
L 404.979476 147.014578 
L 405.239172 144.795289 
L 406.277955 140.817622 
L 406.537651 141.389523 
L 407.057043 137.915484 
L 407.836131 140.416464 
L 408.355523 138.342253 
L 408.874915 130.600364 
L 409.654002 132.964758 
L 409.913698 130.472364 
L 410.173394 132.802602 
L 410.43309 133.698842 
L 410.692786 133.38252 
L 411.471874 130.954673 
L 411.73157 131.510367 
L 411.991266 129.689463 
L 412.510658 132.066009 
L 413.549442 135.54537 
L 414.068833 134.758903 
L 414.328529 137.058498 
L 415.107617 136.024074 
L 415.367313 136.460102 
L 415.627009 138.25533 
L 415.886705 137.742391 
L 416.146401 133.365428 
L 416.925489 130.971778 
L 417.185185 132.878139 
L 417.444881 131.792454 
L 417.964272 135.528266 
L 418.74336 133.844172 
L 419.003056 132.031813 
L 419.262752 131.689866 
L 419.522448 129.244902 
L 419.782144 129.971576 
L 420.561232 127.919872 
L 420.820928 126.312715 
L 421.080624 127.552289 
L 421.600016 125.48348 
L 422.638799 127.706164 
L 422.898495 125.038932 
L 423.158191 123.679667 
L 423.417887 121.50831 
L 424.196975 120.422598 
L 424.456671 120.88425 
L 424.716367 122.482861 
L 424.976063 121.713459 
L 426.014846 123.96178 
L 426.534238 125.611705 
L 426.793934 120.944083 
L 427.05363 121.243288 
L 427.832718 121.22617 
L 428.35211 119.174492 
L 428.611806 120.012273 
L 428.871502 121.405709 
L 429.65059 121.140713 
L 429.910285 122.474316 
L 430.169981 122.482861 
L 430.429677 118.507691 
L 430.689373 117.422019 
L 431.468461 117.49893 
L 431.987853 119.328354 
L 432.247549 120.747466 
L 432.507245 114.096532 
L 433.286333 114.156365 
L 433.546029 115.635311 
L 433.805724 114.105078 
L 434.06542 113.942644 
L 434.325116 114.747339 
L 435.104204 115.175376 
L 435.3639 115.175376 
L 435.623596 114.644645 
L 435.883292 112.62435 
L 436.142988 112.530162 
L 436.922076 113.351988 
L 437.181772 115.611972 
L 437.441468 115.372296 
L 437.701164 114.387799 
L 437.960859 112.299006 
L 438.999643 110.698203 
L 439.259339 110.740984 
L 439.519035 108.309796 
L 439.778731 107.573586 
L 440.817515 109.063137 
L 441.077211 110.253048 
L 441.336907 107.898877 
L 441.596603 107.565027 
L 442.37569 105.142398 
L 442.635386 105.553304 
L 442.895082 105.005416 
L 443.154778 103.24194 
L 443.414474 104.175045 
L 444.453258 104.097975 
L 444.712954 104.99683 
L 444.97265 102.394451 
L 445.232346 102.668402 
L 446.011433 103.875417 
L 446.271129 101.487011 
L 446.530825 100.468291 
L 446.790521 100.177236 
L 447.050217 96.427714 
L 448.348697 98.687711 
L 448.608393 98.276791 
L 448.868089 99.244131 
L 449.906872 101.469893 
L 450.166568 100.023162 
L 450.426264 99.363995 
L 450.68596 99.235572 
L 451.465048 96.410583 
L 451.724744 96.633193 
L 451.98444 95.460361 
L 452.503832 98.165499 
L 453.28292 97.472084 
L 453.802312 95.974 
L 454.062007 97.06975 
L 454.321703 94.835429 
L 455.100791 94.304686 
L 455.360487 95.023765 
L 455.620183 97.617625 
L 455.879879 98.82468 
L 456.139575 106.683289 
L 456.918663 109.371297 
L 457.178359 108.558043 
L 457.438055 109.936289 
L 457.697751 110.124638 
L 457.957446 110.073219 
L 458.736534 108.641638 
L 458.99623 110.36467 
L 459.255926 111.119002 
L 459.515622 113.322032 
L 460.554406 111.744765 
L 460.814102 110.553243 
L 461.073798 107.218682 
L 461.333494 111.281858 
L 461.59319 109.370293 
L 462.372277 108.015888 
L 462.891669 101.621073 
L 463.151365 101.4325 
L 463.411061 100.06951 
L 464.449845 99.863793 
L 464.969237 110.27035 
L 465.228933 109.73892 
L 466.00802 108.727372 
L 466.527412 113.142004 
L 466.787108 111.830486 
L 467.046804 112.456263 
L 468.085588 108.975963 
L 468.345284 112.044802 
L 468.60498 113.38205 
L 468.864676 112.644862 
L 469.643764 111.539035 
L 469.90346 115.070741 
L 470.163155 116.382299 
L 470.422851 116.159424 
L 470.682547 115.713661 
L 471.461635 113.536334 
L 471.721331 114.693581 
L 472.240723 112.541984 
L 472.500419 110.330355 
L 473.279507 109.044527 
L 473.539203 109.558879 
L 474.058594 107.570112 
L 474.31829 109.164549 
L 475.097378 109.275987 
L 475.61677 111.744765 
L 475.876466 112.070505 
L 476.136162 114.28212 
L 476.91525 114.179255 
L 477.174946 113.80207 
L 477.434642 115.807968 
L 477.694338 119.416836 
L 477.954034 118.276733 
L 478.992817 116.090834 
L 479.512209 110.261778 
L 479.771905 111.050425 
L 480.550993 108.838836 
L 480.810689 106.618635 
L 481.070385 105.701407 
L 481.330081 106.112894 
L 481.589777 102.482074 
L 482.368864 103.855433 
L 482.62856 101.589387 
L 482.888256 101.100156 
L 483.147952 99.640984 
L 483.407648 99.658128 
L 484.186736 98.147431 
L 484.446432 98.842695 
L 484.706128 98.267612 
L 485.22552 99.417779 
L 486.004608 99.572302 
L 486.264303 99.048716 
L 486.523999 99.932792 
L 486.783695 99.434976 
L 487.043391 98.327683 
L 487.822479 99.881307 
L 488.082175 96.456508 
L 488.341871 97.400667 
L 488.861263 94.490894 
L 489.640351 96.662515 
L 489.900047 95.349254 
L 490.159742 92.559636 
L 490.419438 92.430869 
L 491.458222 94.336398 
L 491.717918 93.435139 
L 491.977614 95.246243 
L 492.23731 95.374996 
L 492.497006 96.302012 
L 493.53579 96.774098 
L 493.795486 96.688285 
L 494.055182 96.319169 
L 494.314877 97.220442 
L 496.132749 106.962642 
L 496.911837 103.203082 
L 497.171533 103.563586 
L 497.431229 102.662339 
L 497.690925 103.177339 
L 497.950621 102.894077 
L 498.989404 104.859677 
L 499.2491 105.675123 
L 499.508796 100.567973 
L 499.768492 98.053032 
L 500.54758 96.053091 
L 500.807276 94.945823 
L 501.066972 95.529492 
L 501.326668 95.812755 
L 501.586364 97.314854 
L 502.365451 97.907095 
L 502.884843 104.19878 
L 503.144539 102.087243 
L 503.404235 102.954161 
L 504.183323 101.383406 
L 504.443019 99.992876 
L 504.702715 99.898464 
L 504.962411 100.834065 
L 505.222107 100.172296 
L 506.001195 101.633344 
L 506.26089 103.446746 
L 506.520586 104.211644 
L 506.780282 104.460896 
L 507.039978 105.793019 
L 508.078762 106.437604 
L 508.338458 105.78442 
L 508.598154 104.022583 
L 508.85785 105.612529 
L 509.636938 106.781386 
L 509.896634 105.517998 
L 510.15633 106.55793 
L 510.416025 107.133741 
L 510.675721 108.07053 
L 511.454809 111.989565 
L 511.714505 116.269593 
L 511.974201 117.129022 
L 512.233897 117.232165 
L 512.493593 115.745321 
L 513.532377 113.596735 
L 513.792073 115.401552 
L 514.051769 113.794409 
L 514.311464 114.120994 
L 515.090552 113.175593 
L 515.609944 108.921374 
L 515.86964 115.195307 
L 516.129336 114.413185 
L 516.908424 115.642192 
L 517.16812 116.621948 
L 517.427816 113.527974 
L 517.687512 115.10075 
L 518.726295 116.346927 
L 518.985991 117.369675 
L 519.245687 116.673525 
L 519.505383 117.386859 
L 519.765079 116.733675 
L 520.544167 117.704846 
L 520.803863 116.656328 
L 521.063559 118.280669 
L 521.323255 112.041156 
L 521.582951 110.743375 
L 522.362038 114.060831 
L 522.621734 116.905567 
L 523.400822 120.669908 
L 524.17991 119.947976 
L 524.439606 119.036982 
L 524.699302 117.214955 
L 524.958998 116.467267 
L 525.218694 116.974315 
L 525.997782 113.364681 
L 526.257478 116.089104 
L 526.517173 116.974315 
L 526.776869 113.76864 
L 527.036565 104.873427 
L 527.815653 106.308666 
L 528.075349 105.715698 
L 528.335045 105.423454 
L 528.594741 103.850678 
L 528.854437 104.943654 
L 529.893221 101.174215 
L 530.152917 99.203424 
L 530.672308 99.07434 
L 531.451396 98.067442 
L 531.711092 96.940032 
L 531.970788 98.187927 
L 532.230484 101.647543 
L 532.49018 98.979664 
L 533.528964 98.971066 
L 533.78866 98.712886 
L 534.308052 97.02611 
L 535.346835 95.218823 
L 535.606531 93.910712 
L 535.866227 95.106937 
L 536.125923 93.032897 
L 536.905011 96.277365 
L 537.164707 84.203104 
L 537.424403 79.108317 
L 537.684099 78.101406 
L 537.943795 79.607454 
L 538.722882 76.010117 
L 539.761666 83.910477 
L 540.540754 83.351098 
L 540.80045 82.55071 
L 541.060146 78.953412 
L 541.319842 78.221891 
L 541.579538 81.21679 
L 542.358626 75.941276 
L 542.618321 72.911956 
L 542.878017 71.810395 
L 543.397409 67.688085 
L 544.176497 66.414369 
L 544.436193 65.674276 
L 544.695889 61.97369 
L 544.955585 66.629543 
L 545.215281 64.073564 
L 545.994369 60.751617 
L 546.254065 60.390149 
L 546.773456 69.547003 
L 547.033152 69.43513 
L 547.81224 69.736329 
L 548.071936 68.832705 
L 548.331632 74.400807 
L 548.591328 75.304431 
L 548.851024 74.899957 
L 549.630112 74.658987 
L 549.889808 74.177048 
L 550.149504 71.354264 
L 550.4092 74.555713 
L 550.668895 73.264812 
L 551.707679 84.13425 
L 552.227071 78.901755 
L 552.486767 76.380197 
L 553.265855 75.05333 
L 553.525551 71.830933 
L 553.785247 71.443221 
L 554.044943 68.858408 
L 554.304639 67.712481 
L 555.083726 67.850335 
L 555.343422 67.316157 
L 555.603118 67.410925 
L 555.862814 69.022124 
L 556.12251 67.031838 
L 556.901598 66.73888 
L 557.161294 66.006514 
L 557.42099 67.33338 
L 557.680686 64.49011 
L 557.940382 65.170767 
L 559.238861 72.192811 
L 559.498557 70.874556 
L 559.758253 72.218646 
L 560.537341 72.141101 
L 560.797037 72.830395 
L 561.056733 70.633309 
L 561.316429 70.538527 
L 561.576125 70.771176 
L 562.355213 76.095851 
L 562.614908 75.690915 
L 562.874604 72.330678 
L 563.1343 65.282785 
L 564.173084 67.350604 
L 564.43278 66.575178 
L 564.692476 67.436787 
L 564.952172 66.445936 
L 565.211868 66.213301 
L 565.990956 61.724359 
L 566.250652 67.574627 
L 566.510348 67.083521 
L 566.770043 68.039911 
L 567.029739 67.066284 
L 567.808827 71.469056 
L 568.328219 64.705509 
L 568.587915 65.136307 
L 568.847611 66.420088 
L 569.626699 63.189079 
L 569.886395 60.991993 
L 570.146091 62.775532 
L 570.405787 62.456726 
L 570.665482 60.001169 
L 571.44457 58.725999 
L 571.704266 59.260177 
L 571.963962 63.65435 
L 572.223658 63.818052 
L 572.483354 63.094297 
L 573.262442 61.379732 
L 573.522138 61.147096 
L 574.301226 70.41791 
L 575.080313 71.193349 
L 575.340009 69.952666 
L 575.599705 70.581612 
L 575.859401 66.48041 
L 576.119097 66.713283 
L 576.898185 69.068049 
L 577.157881 69.068049 
L 577.417577 68.30039 
L 577.677273 65.626475 
L 577.936969 68.403876 
L 578.716056 65.798974 
L 578.975752 65.574726 
L 579.235448 64.953691 
L 579.495144 65.367701 
L 579.75484 64.203269 
L 580.533928 61.61563 
L 580.793624 59.72665 
L 581.05332 59.838788 
L 581.572712 57.768658 
L 582.3518 55.819304 
L 582.611496 53.179902 
L 582.871191 52.869392 
L 583.130887 52.843504 
L 583.390583 53.016015 
L 584.429367 48.763645 
L 584.689063 49.867703 
L 584.948759 48.599759 
L 585.208455 48.453121 
L 585.987543 45.943133 
L 586.247239 43.838504 
L 586.506935 48.522134 
L 586.76663 47.021316 
L 587.026326 42.967333 
L 587.805414 42.294535 
L 588.06511 39.767271 
L 588.584502 39.06 
L 588.844198 42.018537 
L 589.623286 44.942575 
L 589.882982 46.477893 
L 590.402374 52.144844 
L 590.66207 52.567492 
L 591.441157 51.152911 
L 591.700853 53.559426 
L 591.960549 53.136778 
L 592.479941 58.182668 
L 593.518725 61.261981 
L 593.778421 57.302885 
L 594.038117 65.591975 
L 594.297813 64.108394 
L 595.336596 70.439506 
L 595.596292 69.413059 
L 595.855988 69.559683 
L 596.115684 70.318743 
L 596.894772 64.211893 
L 597.154468 56.9665 
L 597.414164 56.017691 
L 597.933556 58.91584 
L 598.712643 65.807625 
L 598.972339 61.675991 
L 599.232035 61.96064 
L 599.491731 61.313731 
L 599.751427 66.13536 
L 600.530515 65.902249 
L 601.309603 53.916905 
L 601.569299 51.26596 
L 602.608083 51.378216 
L 602.867778 51.032822 
L 603.127474 50.203851 
L 603.38717 50.44564 
L 604.166258 49.107216 
L 604.425954 49.159032 
L 604.68565 54.927185 
L 604.945346 57.569492 
L 605.205042 53.649215 
L 605.98413 56.939145 
L 606.243826 58.752482 
L 606.503522 58.91654 
L 606.763217 59.270572 
L 607.022913 56.041096 
L 607.802001 66.049031 
L 608.581089 81.419285 
L 608.840785 78.129354 
L 609.619873 77.688968 
L 609.879569 78.820142 
L 610.139265 76.618234 
L 610.398961 77.602613 
L 610.658657 74.001828 
L 611.437744 71.877637 
L 611.69744 69.269869 
L 611.957136 71.186837 
L 612.216832 69.183514 
L 612.476528 74.321334 
L 613.515312 69.75342 
L 613.775008 69.148975 
L 614.2944 99.811752 
L 615.073487 105.787154 
L 615.333183 113.593182 
L 615.592879 90.770946 
L 615.852575 98.050232 
L 616.112271 91.375404 
L 616.891359 87.60191 
L 617.151055 87.930053 
L 617.410751 94.725762 
L 617.670447 92.385684 
L 618.709231 95.684239 
L 619.228622 85.805836 
L 619.488318 82.550459 
L 619.748014 81.764678 
L 620.527102 81.022062 
L 621.30619 78.276137 
L 621.565886 85.158214 
L 622.344974 90.736406 
L 622.60467 91.064537 
L 622.864365 93.016044 
L 623.383757 91.047261 
L 624.162845 80.222109 
L 624.422541 78.371803 
L 625.201629 79.815734 
L 625.980717 81.960014 
L 626.240413 83.620096 
L 626.500109 87.744386 
L 626.759805 88.375565 
L 627.0195 93.641147 
L 628.058284 89.369876 
L 628.31798 89.188316 
L 628.577676 89.594692 
L 628.837372 88.81652 
L 629.61646 88.081591 
L 629.876156 86.724121 
L 630.135852 87.113194 
L 630.395548 89.006731 
L 630.655244 86.162114 
L 631.434331 88.297742 
L 631.694027 87.242898 
L 631.953723 90.606306 
L 632.213419 90.24316 
L 632.473115 92.620895 
L 633.252203 90.91757 
L 633.511899 93.321245 
L 633.771595 92.508494 
L 634.290987 88.686829 
L 635.070074 88.254512 
L 635.32977 89.292067 
L 635.589466 88.20263 
L 635.849162 88.686829 
L 636.108858 88.617658 
L 636.887946 85.081329 
L 637.147642 82.790055 
L 637.407338 78.795469 
L 637.667034 77.835724 
L 638.705818 80.9484 
L 638.965513 80.896519 
L 639.484905 78.82141 
L 639.744601 79.902194 
L 640.523689 82.098356 
L 640.783385 81.674678 
L 641.043081 80.766814 
L 641.302777 80.887867 
L 641.562473 79.884905 
L 642.341561 78.76089 
L 642.601257 77.100795 
L 643.120648 77.654164 
L 643.380344 77.550401 
L 644.159432 77.403407 
L 644.678824 81.72656 
L 644.93852 83.006207 
L 645.198216 87.493629 
L 645.977304 86.654937 
L 646.237 87.026747 
L 646.756392 72.232937 
L 647.016087 64.17458 
L 647.795175 65.827913 
L 648.054871 63.689854 
L 648.314567 60.5044 
L 648.574263 60.980489 
L 648.833959 62.010567 
L 649.872743 62.902145 
L 650.132439 66.840676 
L 650.392135 67.801504 
L 650.651831 65.325857 
L 651.430918 65.845216 
L 651.690614 63.984158 
L 651.95031 62.962731 
L 652.210006 61.170924 
L 652.469702 61.534479 
L 653.508486 63.629255 
L 653.768182 56.055162 
L 653.768182 56.055162 
" clip-path="url(#pce736c1758)" style="fill: none; stroke: #1f77b4; stroke-width: 1.5; stroke-linecap: square"/>
   </g>
   <g id="patch_3">
    <path d="M 94.5 224.28 
L 94.5 30.24 
" style="fill: none; stroke: #000000; stroke-width: 0.8; stroke-linejoin: miter; stroke-linecap: square"/>
   </g>
   <g id="patch_4">
    <path d="M 94.5 224.28 
L 680.4 224.28 
" style="fill: none; stroke: #000000; stroke-width: 0.8; stroke-linejoin: miter; stroke-linecap: square"/>
   </g>
  </g>
 </g>
 <defs>
  <clipPath id="pce736c1758">
   <rect x="94.5" y="30.24" width="585.9" height="194.04"/>
  </clipPath>
 </defs>
</svg>
