<?xml version="1.0" encoding="utf-8" standalone="no"?>
<!DOCTYPE svg PUBLIC "-//W3C//DTD SVG 1.1//EN"
  "http://www.w3.org/Graphics/SVG/1.1/DTD/svg11.dtd">
<svg xmlns:xlink="http://www.w3.org/1999/xlink" width="756pt" height="252pt" viewBox="0 0 756 252" xmlns="http://www.w3.org/2000/svg" version="1.1">
 <metadata>
  <rdf:RDF xmlns:dc="http://purl.org/dc/elements/1.1/" xmlns:cc="http://creativecommons.org/ns#" xmlns:rdf="http://www.w3.org/1999/02/22-rdf-syntax-ns#">
   <cc:Work>
    <dc:type rdf:resource="http://purl.org/dc/dcmitype/StillImage"/>
    <dc:date>2025-09-05T15:16:50.476022</dc:date>
    <dc:format>image/svg+xml</dc:format>
    <dc:creator>
     <cc:Agent>
      <dc:title>Matplotlib v3.10.5, https://matplotlib.org/</dc:title>
     </cc:Agent>
    </dc:creator>
   </cc:Work>
  </rdf:RDF>
 </metadata>
 <defs>
  <style type="text/css">*{stroke-linejoin: round; stroke-linecap: butt}</style>
 </defs>
 <g id="figure_1">
  <g id="patch_1">
   <path d="M 0 252 
L 756 252 
L 756 0 
L 0 0 
z
" style="fill: #ffffff"/>
  </g>
  <g id="axes_1">
   <g id="patch_2">
    <path d="M 94.5 224.28 
L 680.4 224.28 
L 680.4 30.24 
L 94.5 30.24 
z
" style="fill: #ffffff"/>
   </g>
   <g id="matplotlib.axis_1">
    <g id="xtick_1">
     <g id="line2d_1">
      <defs>
       <path id="mc2676e7d68" d="M 0 0 
L 0 3.5 
" style="stroke: #000000; stroke-width: 0.8"/>
      </defs>
      <g>
       <use xlink:href="#mc2676e7d68" x="115.675543" y="224.28" style="stroke: #000000; stroke-width: 0.8"/>
      </g>
     </g>
     <g id="text_1">
      <!-- 2020 -->
      <g transform="translate(102.950543 238.878438) scale(0.1 -0.1)">
       <defs>
        <path id="DejaVuSans-32" d="M 1228 531 
L 3431 531 
L 3431 0 
L 469 0 
L 469 531 
Q 828 903 1448 1529 
Q 2069 2156 2228 2338 
Q 2531 2678 2651 2914 
Q 2772 3150 2772 3378 
Q 2772 3750 2511 3984 
Q 2250 4219 1831 4219 
Q 1534 4219 1204 4116 
Q 875 4013 500 3803 
L 500 4441 
Q 881 4594 1212 4672 
Q 1544 4750 1819 4750 
Q 2544 4750 2975 4387 
Q 3406 4025 3406 3419 
Q 3406 3131 3298 2873 
Q 3191 2616 2906 2266 
Q 2828 2175 2409 1742 
Q 1991 1309 1228 531 
z
" transform="scale(0.015625)"/>
        <path id="DejaVuSans-30" d="M 2034 4250 
Q 1547 4250 1301 3770 
Q 1056 3291 1056 2328 
Q 1056 1369 1301 889 
Q 1547 409 2034 409 
Q 2525 409 2770 889 
Q 3016 1369 3016 2328 
Q 3016 3291 2770 3770 
Q 2525 4250 2034 4250 
z
M 2034 4750 
Q 2819 4750 3233 4129 
Q 3647 3509 3647 2328 
Q 3647 1150 3233 529 
Q 2819 -91 2034 -91 
Q 1250 -91 836 529 
Q 422 1150 422 2328 
Q 422 3509 836 4129 
Q 1250 4750 2034 4750 
z
" transform="scale(0.015625)"/>
       </defs>
       <use xlink:href="#DejaVuSans-32"/>
       <use xlink:href="#DejaVuSans-30" transform="translate(63.623047 0)"/>
       <use xlink:href="#DejaVuSans-32" transform="translate(127.246094 0)"/>
       <use xlink:href="#DejaVuSans-30" transform="translate(190.869141 0)"/>
      </g>
     </g>
    </g>
    <g id="xtick_2">
     <g id="line2d_2">
      <g>
       <use xlink:href="#mc2676e7d68" x="210.770621" y="224.28" style="stroke: #000000; stroke-width: 0.8"/>
      </g>
     </g>
     <g id="text_2">
      <!-- 2021 -->
      <g transform="translate(198.045621 238.878438) scale(0.1 -0.1)">
       <defs>
        <path id="DejaVuSans-31" d="M 794 531 
L 1825 531 
L 1825 4091 
L 703 3866 
L 703 4441 
L 1819 4666 
L 2450 4666 
L 2450 531 
L 3481 531 
L 3481 0 
L 794 0 
L 794 531 
z
" transform="scale(0.015625)"/>
       </defs>
       <use xlink:href="#DejaVuSans-32"/>
       <use xlink:href="#DejaVuSans-30" transform="translate(63.623047 0)"/>
       <use xlink:href="#DejaVuSans-32" transform="translate(127.246094 0)"/>
       <use xlink:href="#DejaVuSans-31" transform="translate(190.869141 0)"/>
      </g>
     </g>
    </g>
    <g id="xtick_3">
     <g id="line2d_3">
      <g>
       <use xlink:href="#mc2676e7d68" x="305.605876" y="224.28" style="stroke: #000000; stroke-width: 0.8"/>
      </g>
     </g>
     <g id="text_3">
      <!-- 2022 -->
      <g transform="translate(292.880876 238.878438) scale(0.1 -0.1)">
       <use xlink:href="#DejaVuSans-32"/>
       <use xlink:href="#DejaVuSans-30" transform="translate(63.623047 0)"/>
       <use xlink:href="#DejaVuSans-32" transform="translate(127.246094 0)"/>
       <use xlink:href="#DejaVuSans-32" transform="translate(190.869141 0)"/>
      </g>
     </g>
    </g>
    <g id="xtick_4">
     <g id="line2d_4">
      <g>
       <use xlink:href="#mc2676e7d68" x="400.441131" y="224.28" style="stroke: #000000; stroke-width: 0.8"/>
      </g>
     </g>
     <g id="text_4">
      <!-- 2023 -->
      <g transform="translate(387.716131 238.878438) scale(0.1 -0.1)">
       <defs>
        <path id="DejaVuSans-33" d="M 2597 2516 
Q 3050 2419 3304 2112 
Q 3559 1806 3559 1356 
Q 3559 666 3084 287 
Q 2609 -91 1734 -91 
Q 1441 -91 1130 -33 
Q 819 25 488 141 
L 488 750 
Q 750 597 1062 519 
Q 1375 441 1716 441 
Q 2309 441 2620 675 
Q 2931 909 2931 1356 
Q 2931 1769 2642 2001 
Q 2353 2234 1838 2234 
L 1294 2234 
L 1294 2753 
L 1863 2753 
Q 2328 2753 2575 2939 
Q 2822 3125 2822 3475 
Q 2822 3834 2567 4026 
Q 2313 4219 1838 4219 
Q 1578 4219 1281 4162 
Q 984 4106 628 3988 
L 628 4550 
Q 988 4650 1302 4700 
Q 1616 4750 1894 4750 
Q 2613 4750 3031 4423 
Q 3450 4097 3450 3541 
Q 3450 3153 3228 2886 
Q 3006 2619 2597 2516 
z
" transform="scale(0.015625)"/>
       </defs>
       <use xlink:href="#DejaVuSans-32"/>
       <use xlink:href="#DejaVuSans-30" transform="translate(63.623047 0)"/>
       <use xlink:href="#DejaVuSans-32" transform="translate(127.246094 0)"/>
       <use xlink:href="#DejaVuSans-33" transform="translate(190.869141 0)"/>
      </g>
     </g>
    </g>
    <g id="xtick_5">
     <g id="line2d_5">
      <g>
       <use xlink:href="#mc2676e7d68" x="495.276386" y="224.28" style="stroke: #000000; stroke-width: 0.8"/>
      </g>
     </g>
     <g id="text_5">
      <!-- 2024 -->
      <g transform="translate(482.551386 238.878438) scale(0.1 -0.1)">
       <defs>
        <path id="DejaVuSans-34" d="M 2419 4116 
L 825 1625 
L 2419 1625 
L 2419 4116 
z
M 2253 4666 
L 3047 4666 
L 3047 1625 
L 3713 1625 
L 3713 1100 
L 3047 1100 
L 3047 0 
L 2419 0 
L 2419 1100 
L 313 1100 
L 313 1709 
L 2253 4666 
z
" transform="scale(0.015625)"/>
       </defs>
       <use xlink:href="#DejaVuSans-32"/>
       <use xlink:href="#DejaVuSans-30" transform="translate(63.623047 0)"/>
       <use xlink:href="#DejaVuSans-32" transform="translate(127.246094 0)"/>
       <use xlink:href="#DejaVuSans-34" transform="translate(190.869141 0)"/>
      </g>
     </g>
    </g>
    <g id="xtick_6">
     <g id="line2d_6">
      <g>
       <use xlink:href="#mc2676e7d68" x="590.371463" y="224.28" style="stroke: #000000; stroke-width: 0.8"/>
      </g>
     </g>
     <g id="text_6">
      <!-- 2025 -->
      <g transform="translate(577.646463 238.878438) scale(0.1 -0.1)">
       <defs>
        <path id="DejaVuSans-35" d="M 691 4666 
L 3169 4666 
L 3169 4134 
L 1269 4134 
L 1269 2991 
Q 1406 3038 1543 3061 
Q 1681 3084 1819 3084 
Q 2600 3084 3056 2656 
Q 3513 2228 3513 1497 
Q 3513 744 3044 326 
Q 2575 -91 1722 -91 
Q 1428 -91 1123 -41 
Q 819 9 494 109 
L 494 744 
Q 775 591 1075 516 
Q 1375 441 1709 441 
Q 2250 441 2565 725 
Q 2881 1009 2881 1497 
Q 2881 1984 2565 2268 
Q 2250 2553 1709 2553 
Q 1456 2553 1204 2497 
Q 953 2441 691 2322 
L 691 4666 
z
" transform="scale(0.015625)"/>
       </defs>
       <use xlink:href="#DejaVuSans-32"/>
       <use xlink:href="#DejaVuSans-30" transform="translate(63.623047 0)"/>
       <use xlink:href="#DejaVuSans-32" transform="translate(127.246094 0)"/>
       <use xlink:href="#DejaVuSans-35" transform="translate(190.869141 0)"/>
      </g>
     </g>
    </g>
   </g>
   <g id="matplotlib.axis_2">
    <g id="ytick_1">
     <g id="line2d_7">
      <defs>
       <path id="m951ab82134" d="M 0 0 
L -3.5 0 
" style="stroke: #000000; stroke-width: 0.8"/>
      </defs>
      <g>
       <use xlink:href="#m951ab82134" x="94.5" y="219.196789" style="stroke: #000000; stroke-width: 0.8"/>
      </g>
     </g>
     <g id="text_7">
      <!-- 50 -->
      <g transform="translate(74.775 222.996008) scale(0.1 -0.1)">
       <use xlink:href="#DejaVuSans-35"/>
       <use xlink:href="#DejaVuSans-30" transform="translate(63.623047 0)"/>
      </g>
     </g>
    </g>
    <g id="ytick_2">
     <g id="line2d_8">
      <g>
       <use xlink:href="#m951ab82134" x="94.5" y="197.556525" style="stroke: #000000; stroke-width: 0.8"/>
      </g>
     </g>
     <g id="text_8">
      <!-- 75 -->
      <g transform="translate(74.775 201.355744) scale(0.1 -0.1)">
       <defs>
        <path id="DejaVuSans-37" d="M 525 4666 
L 3525 4666 
L 3525 4397 
L 1831 0 
L 1172 0 
L 2766 4134 
L 525 4134 
L 525 4666 
z
" transform="scale(0.015625)"/>
       </defs>
       <use xlink:href="#DejaVuSans-37"/>
       <use xlink:href="#DejaVuSans-35" transform="translate(63.623047 0)"/>
      </g>
     </g>
    </g>
    <g id="ytick_3">
     <g id="line2d_9">
      <g>
       <use xlink:href="#m951ab82134" x="94.5" y="175.91626" style="stroke: #000000; stroke-width: 0.8"/>
      </g>
     </g>
     <g id="text_9">
      <!-- 100 -->
      <g transform="translate(68.4125 179.715479) scale(0.1 -0.1)">
       <use xlink:href="#DejaVuSans-31"/>
       <use xlink:href="#DejaVuSans-30" transform="translate(63.623047 0)"/>
       <use xlink:href="#DejaVuSans-30" transform="translate(127.246094 0)"/>
      </g>
     </g>
    </g>
    <g id="ytick_4">
     <g id="line2d_10">
      <g>
       <use xlink:href="#m951ab82134" x="94.5" y="154.275996" style="stroke: #000000; stroke-width: 0.8"/>
      </g>
     </g>
     <g id="text_10">
      <!-- 125 -->
      <g transform="translate(68.4125 158.075215) scale(0.1 -0.1)">
       <use xlink:href="#DejaVuSans-31"/>
       <use xlink:href="#DejaVuSans-32" transform="translate(63.623047 0)"/>
       <use xlink:href="#DejaVuSans-35" transform="translate(127.246094 0)"/>
      </g>
     </g>
    </g>
    <g id="ytick_5">
     <g id="line2d_11">
      <g>
       <use xlink:href="#m951ab82134" x="94.5" y="132.635731" style="stroke: #000000; stroke-width: 0.8"/>
      </g>
     </g>
     <g id="text_11">
      <!-- 150 -->
      <g transform="translate(68.4125 136.43495) scale(0.1 -0.1)">
       <use xlink:href="#DejaVuSans-31"/>
       <use xlink:href="#DejaVuSans-35" transform="translate(63.623047 0)"/>
       <use xlink:href="#DejaVuSans-30" transform="translate(127.246094 0)"/>
      </g>
     </g>
    </g>
    <g id="ytick_6">
     <g id="line2d_12">
      <g>
       <use xlink:href="#m951ab82134" x="94.5" y="110.995467" style="stroke: #000000; stroke-width: 0.8"/>
      </g>
     </g>
     <g id="text_12">
      <!-- 175 -->
      <g transform="translate(68.4125 114.794686) scale(0.1 -0.1)">
       <use xlink:href="#DejaVuSans-31"/>
       <use xlink:href="#DejaVuSans-37" transform="translate(63.623047 0)"/>
       <use xlink:href="#DejaVuSans-35" transform="translate(127.246094 0)"/>
      </g>
     </g>
    </g>
    <g id="ytick_7">
     <g id="line2d_13">
      <g>
       <use xlink:href="#m951ab82134" x="94.5" y="89.355203" style="stroke: #000000; stroke-width: 0.8"/>
      </g>
     </g>
     <g id="text_13">
      <!-- 200 -->
      <g transform="translate(68.4125 93.154421) scale(0.1 -0.1)">
       <use xlink:href="#DejaVuSans-32"/>
       <use xlink:href="#DejaVuSans-30" transform="translate(63.623047 0)"/>
       <use xlink:href="#DejaVuSans-30" transform="translate(127.246094 0)"/>
      </g>
     </g>
    </g>
    <g id="ytick_8">
     <g id="line2d_14">
      <g>
       <use xlink:href="#m951ab82134" x="94.5" y="67.714938" style="stroke: #000000; stroke-width: 0.8"/>
      </g>
     </g>
     <g id="text_14">
      <!-- 225 -->
      <g transform="translate(68.4125 71.514157) scale(0.1 -0.1)">
       <use xlink:href="#DejaVuSans-32"/>
       <use xlink:href="#DejaVuSans-32" transform="translate(63.623047 0)"/>
       <use xlink:href="#DejaVuSans-35" transform="translate(127.246094 0)"/>
      </g>
     </g>
    </g>
    <g id="ytick_9">
     <g id="line2d_15">
      <g>
       <use xlink:href="#m951ab82134" x="94.5" y="46.074674" style="stroke: #000000; stroke-width: 0.8"/>
      </g>
     </g>
     <g id="text_15">
      <!-- 250 -->
      <g transform="translate(68.4125 49.873893) scale(0.1 -0.1)">
       <use xlink:href="#DejaVuSans-32"/>
       <use xlink:href="#DejaVuSans-35" transform="translate(63.623047 0)"/>
       <use xlink:href="#DejaVuSans-30" transform="translate(127.246094 0)"/>
      </g>
     </g>
    </g>
   </g>
   <g id="line2d_16">
    <path d="M 121.131818 196.060079 
L 121.391641 195.74023 
L 121.651463 195.932561 
L 122.430931 197.889338 
L 122.950576 194.671946 
L 123.210399 194.770209 
L 123.470222 197.772247 
L 124.24969 197.94995 
L 124.509512 195.819664 
L 125.029157 194.490077 
L 125.28898 195.414199 
L 126.068448 195.095691 
L 126.328271 195.502205 
L 126.588093 193.911711 
L 126.847916 194.399964 
L 127.107738 194.383196 
L 128.147029 195.630047 
L 128.406851 194.661908 
L 128.666674 195.357616 
L 128.926497 196.876892 
L 129.705965 199.99293 
L 129.965787 202.109427 
L 130.22561 201.151729 
L 130.485432 205.160507 
L 130.745255 205.19405 
L 131.524723 199.860908 
L 131.784545 201.849556 
L 132.044368 199.037352 
L 132.304191 201.095158 
L 132.564013 201.91034 
L 133.343481 206.700686 
L 133.603304 202.683579 
L 133.863126 204.76024 
L 134.122949 210.460067 
L 134.382772 204.227984 
L 135.162239 211.721576 
L 135.422062 209.489841 
L 135.681885 210.786976 
L 135.941707 211.18304 
L 136.20153 214.439481 
L 136.980998 215.46 
L 137.24082 210.742976 
L 137.500643 211.027966 
L 137.760466 208.320542 
L 138.020288 210.562764 
L 138.799756 209.081217 
L 139.059579 209.190188 
L 139.319401 211.994001 
L 139.579224 211.151604 
L 139.839047 211.889221 
L 140.618514 207.476045 
L 140.878337 208.113091 
L 141.13816 206.721654 
L 141.397982 206.319306 
L 142.437273 205.217065 
L 142.697095 202.325248 
L 142.956918 202.874253 
L 143.216741 202.400674 
L 143.476563 203.215836 
L 144.256031 204.445919 
L 144.515854 206.239701 
L 144.775676 204.619844 
L 145.035499 204.844073 
L 145.295322 203.1802 
L 146.074789 203.138323 
L 146.334612 204.100156 
L 146.854257 200.910766 
L 147.11408 201.901946 
L 147.893548 201.044868 
L 148.413193 199.479515 
L 148.673016 198.827804 
L 148.932838 197.312847 
L 149.712306 196.287471 
L 150.231951 197.833936 
L 150.491774 197.436813 
L 150.751596 197.821349 
L 151.531064 196.297971 
L 151.790887 196.680374 
L 152.05071 195.400747 
L 152.310532 195.900841 
L 152.570355 195.472183 
L 153.609645 195.926042 
L 153.869468 195.636077 
L 154.389113 195.671811 
L 155.688226 194.163155 
L 155.948049 194.751499 
L 156.207871 192.822591 
L 156.987339 192.410741 
L 157.506984 188.338629 
L 157.766807 191.898066 
L 158.02663 191.288707 
L 158.806098 190.408316 
L 159.06592 188.498316 
L 159.325743 188.60128 
L 159.585565 188.571866 
L 159.845388 188.994197 
L 160.624856 187.071616 
L 160.884678 185.462101 
L 161.144501 186.821565 
L 161.404324 185.817183 
L 161.664146 188.172642 
L 162.703437 185.825597 
L 162.963259 185.970596 
L 163.223082 185.970596 
L 164.262373 183.924003 
L 164.522195 184.167747 
L 164.782018 182.343904 
L 165.04184 181.999302 
L 165.301663 181.85853 
L 166.081131 182.230445 
L 166.340953 180.902476 
L 166.600776 180.341459 
L 166.860599 181.352148 
L 167.120421 181.516029 
L 167.899889 179.80985 
L 168.159712 180.950818 
L 168.419534 180.721789 
L 168.679357 184.443005 
L 168.93918 184.636313 
L 169.718647 182.791449 
L 169.97847 184.100504 
L 170.498115 181.6316 
L 170.757938 173.16799 
L 171.797228 170.306157 
L 172.057051 169.972049 
L 172.316874 166.744627 
L 172.576696 168.921181 
L 173.356164 167.561347 
L 173.615987 170.384138 
L 173.875809 167.323481 
L 174.135632 165.639499 
L 175.174922 165.978401 
L 175.434745 165.174294 
L 175.694568 165.052211 
L 175.95439 162.89037 
L 176.214213 157.758422 
L 176.993681 156.505958 
L 177.253503 157.375319 
L 177.513326 155.946037 
L 177.773149 157.219542 
L 178.032971 157.390046 
L 178.812439 153.826304 
L 179.072262 149.498429 
L 179.332084 151.839227 
L 179.591907 160.696982 
L 179.851729 160.629634 
L 180.89102 167.483458 
L 181.150843 163.69449 
L 181.410665 166.919344 
L 181.670488 168.173896 
L 182.449956 165.344805 
L 182.709778 165.193248 
L 182.969601 168.06444 
L 183.229424 169.571617 
L 183.489246 172.518597 
L 184.268714 169.790529 
L 184.528537 168.333873 
L 184.788359 172.282838 
L 185.048182 171.356648 
L 185.308004 167.938136 
L 186.087472 165.68158 
L 186.347295 166.414138 
L 186.86694 164.140748 
L 187.126763 167.315074 
L 187.906231 164.384934 
L 188.166053 167.197185 
L 188.425876 165.580544 
L 188.685698 165.67318 
L 188.945521 163.989178 
L 189.724989 157.733148 
L 189.984812 160.511757 
L 190.244634 160.435962 
L 190.504457 160.840132 
L 190.764279 162.263081 
L 191.543747 164.822759 
L 191.80357 163.5345 
L 192.063392 164.073387 
L 192.583038 165.614232 
L 193.362506 165.605798 
L 193.622328 164.300726 
L 193.882151 168.847486 
L 194.141973 165.378486 
L 194.401796 170.817775 
L 195.181264 170.893557 
L 195.441086 169.487415 
L 195.960732 162.254681 
L 196.220554 162.368555 
L 197.000022 164.367513 
L 197.259845 164.662715 
L 197.519667 161.69379 
L 197.77949 161.929938 
L 198.039313 161.887765 
L 198.81878 161.01059 
L 199.078603 161.778124 
L 199.338426 162.92522 
L 199.598248 162.410696 
L 200.637539 166.450831 
L 201.157184 164.612121 
L 201.676829 164.139777 
L 202.456297 162.064893 
L 202.71612 158.969446 
L 202.975942 158.66581 
L 203.235765 158.783891 
L 203.495588 159.365863 
L 204.534878 157.569341 
L 204.794701 159.762273 
L 205.054523 158.530862 
L 205.314346 159.230902 
L 206.093814 159.762273 
L 206.353636 154.617262 
L 206.613459 154.676289 
L 206.873282 153.925623 
L 207.133104 155.646271 
L 207.912572 154.32204 
L 208.172395 151.243466 
L 208.432217 152.01944 
L 208.69204 151.167559 
L 209.73133 147.186498 
L 210.250976 149.691533 
L 210.510798 150.560287 
L 211.550089 153.326771 
L 211.809911 151.977266 
L 212.069734 155.696871 
L 212.329557 152.053173 
L 212.589379 151.100078 
L 213.368847 153.689474 
L 213.62867 153.841269 
L 213.888492 152.078474 
L 214.408137 155.241414 
L 215.447428 154.659422 
L 216.226896 145.179067 
L 217.006364 141.931799 
L 217.266186 141.729358 
L 217.526009 142.657205 
L 218.045654 151.175986 
L 219.084945 148.620324 
L 219.344767 149.505971 
L 219.60459 146.596079 
L 219.864412 146.955064 
L 220.64388 146.828372 
L 221.163525 148.112324 
L 221.423348 148.331924 
L 221.683171 148.129191 
L 222.722461 149.970674 
L 222.982284 151.955743 
L 223.242106 152.910258 
L 223.501929 152.775119 
L 224.281397 156.044127 
L 224.54122 156.162373 
L 224.801042 156.593211 
L 225.060865 160.276104 
L 225.320687 160.048045 
L 226.100155 154.532102 
L 226.879623 161.002573 
L 227.139446 159.912893 
L 227.918914 164.187109 
L 228.178736 160.191644 
L 228.438559 161.129272 
L 228.698381 159.456755 
L 228.958204 160.242331 
L 229.737672 157.741991 
L 229.997494 156.407345 
L 230.257317 157.091581 
L 230.51714 160.664695 
L 230.776962 161.120819 
L 231.55643 158.248808 
L 231.816253 158.966831 
L 232.076075 161.036366 
L 232.595721 160.090285 
L 233.375188 159.938226 
L 233.635011 161.196839 
L 233.894834 159.296249 
L 234.154656 158.578253 
L 235.193947 156.1286 
L 235.453769 155.866735 
L 235.713592 154.439183 
L 236.233237 150.131154 
L 237.012705 151.617865 
L 237.272528 148.92324 
L 237.53235 150.950509 
L 237.792173 148.86412 
L 238.051996 149.151279 
L 238.831463 148.576935 
L 239.091286 150.038247 
L 239.351109 149.708822 
L 239.610931 151.026575 
L 239.870754 149.01616 
L 240.650222 148.678295 
L 240.910044 148.95704 
L 241.169867 149.641276 
L 241.42969 149.725729 
L 241.689512 151.432013 
L 242.46898 150.519738 
L 242.728803 154.481423 
L 242.988625 154.270244 
L 243.248448 152.884925 
L 243.508271 152.301051 
L 244.547561 155.939492 
L 244.807384 158.596395 
L 245.327029 154.63644 
L 246.106497 155.634892 
L 246.366319 156.836419 
L 246.626142 156.97177 
L 246.885965 154.754904 
L 247.145787 156.34565 
L 247.925255 154.9326 
L 248.4449 155.144109 
L 248.704723 156.47258 
L 248.964545 157.039475 
L 250.003836 157.318702 
L 250.263659 156.65873 
L 250.523481 157.944855 
L 250.783304 155.956418 
L 251.562772 155.947959 
L 251.822594 155.237201 
L 252.082417 154.907201 
L 252.342239 155.770263 
L 252.602062 154.721058 
L 253.38153 152.072629 
L 253.641353 152.783387 
L 253.901175 152.351889 
L 254.160998 150.964219 
L 254.42082 152.089562 
L 255.200288 150.532655 
L 255.460111 149.111166 
L 256.239579 149.847244 
L 257.019047 148.434221 
L 257.278869 147.122716 
L 257.538692 146.589647 
L 257.798514 146.327333 
L 258.058337 144.051195 
L 259.097627 142.30814 
L 259.35745 140.150467 
L 259.617273 141.275869 
L 259.877095 139.693583 
L 260.656563 140.209705 
L 260.916386 139.245086 
L 261.176208 136.275163 
L 261.436031 136.842071 
L 261.695854 138.6105 
L 262.475322 141.944281 
L 262.735144 138.813575 
L 262.994967 139.448162 
L 263.514612 136.774353 
L 264.29408 136.410547 
L 264.813725 139.803541 
L 265.073548 139.245086 
L 265.33337 139.058943 
L 266.112838 139.346644 
L 266.372661 137.789744 
L 266.632483 138.13667 
L 266.892306 138.043592 
L 267.152129 138.636757 
L 267.931596 138.679156 
L 268.191419 139.094368 
L 268.451242 138.874029 
L 268.711064 136.306387 
L 268.970887 136.12846 
L 269.750355 134.416681 
L 270.010177 135.20476 
L 270.27 138.450337 
L 270.529823 138.162201 
L 270.789645 136.899579 
L 271.569113 135.611492 
L 271.828936 135.687796 
L 272.348581 137.450387 
L 272.608404 136.552112 
L 273.387871 132.721849 
L 273.647694 133.81501 
L 273.907517 133.238777 
L 274.427162 131.721885 
L 275.466452 129.696597 
L 275.986098 131.916784 
L 276.24592 136.238603 
L 277.025388 135.747101 
L 277.285211 136.958897 
L 277.545033 136.187765 
L 277.804856 136.391157 
L 278.064678 138.704555 
L 278.844146 141.348447 
L 279.103969 140.933249 
L 279.363792 138.882482 
L 279.623614 138.052045 
L 279.883437 137.975807 
L 280.662905 139.289281 
L 280.922727 142.221296 
L 281.18255 141.441684 
L 281.442373 142.568763 
L 281.702195 141.594225 
L 282.481663 144.568639 
L 282.741486 142.899245 
L 283.261131 141.051884 
L 283.520953 141.382392 
L 284.300421 141.458643 
L 284.560244 142.56031 
L 284.820067 143.068732 
L 285.079889 140.653605 
L 285.339712 139.738398 
L 286.11918 138.289317 
L 286.379002 136.416543 
L 286.638825 135.992839 
L 286.898647 135.806419 
L 287.15847 136.475848 
L 287.937938 136.518273 
L 288.197761 135.941987 
L 288.457583 136.340266 
L 288.717406 133.187886 
L 288.977228 135.535242 
L 289.756696 136.247069 
L 290.276341 134.103119 
L 290.536164 134.552237 
L 290.795987 134.093979 
L 291.575455 134.806851 
L 291.835277 134.49284 
L 292.0951 136.945425 
L 292.354922 136.987863 
L 292.614745 135.188725 
L 293.394213 135.180232 
L 293.654035 134.331594 
L 293.913858 132.218446 
L 294.433503 126.227035 
L 295.212971 125.828135 
L 295.732616 125.047414 
L 296.252262 129.400945 
L 297.031729 126.490102 
L 297.291552 122.195928 
L 297.551375 122.645719 
L 297.811197 123.502877 
L 298.07102 125.132263 
L 298.850488 122.178969 
L 299.370133 113.896166 
L 299.629956 114.337464 
L 299.889778 110.187589 
L 300.929069 114.532694 
L 301.188891 110.31485 
L 301.448714 116.289354 
L 301.708537 117.239854 
L 302.488004 118.419462 
L 303.00765 113.420949 
L 303.267472 112.877803 
L 304.306763 109.440773 
L 304.566585 110.323396 
L 304.826408 110.246987 
L 305.086231 111.24839 
L 305.346053 111.783057 
L 306.125521 108.015057 
L 306.385344 109.97544 
L 306.904989 116.510036 
L 307.164812 116.365711 
L 307.944279 116.348764 
L 308.204102 113.896166 
L 308.463925 113.514291 
L 308.723747 116.348764 
L 308.98357 115.601935 
L 310.02286 118.377024 
L 310.282683 121.406688 
L 310.802328 124.648514 
L 311.581796 125.318987 
L 311.841619 126.880496 
L 312.101441 126.956853 
L 312.361264 127.355739 
L 312.621086 117.92726 
L 313.400554 114.150767 
L 313.660377 114.295039 
L 313.9202 113.251211 
L 314.180022 115.746221 
L 315.219313 116.612954 
L 315.479135 113.919307 
L 315.738958 112.687209 
L 316.258603 119.17913 
L 317.038071 118.975196 
L 317.297894 115.652747 
L 317.557716 115.856694 
L 317.817539 118.975196 
L 318.077361 120.31778 
L 319.116652 122.849944 
L 319.376475 126.461282 
L 319.89612 122.399612 
L 320.675588 122.170159 
L 320.93541 123.801659 
L 321.195233 120.946594 
L 321.455055 121.226964 
L 321.714878 123.827151 
L 322.494346 127.115615 
L 322.754169 128.696091 
L 323.013991 124.014073 
L 323.533636 130.998869 
L 324.313104 134.491241 
L 324.832749 126.869177 
L 325.092572 125.993964 
L 325.352395 123.138873 
L 326.131863 121.949253 
L 326.391685 119.026179 
L 326.651508 117.845039 
L 326.91133 114.56508 
L 327.171153 114.012768 
L 327.950621 113.265027 
L 328.210443 110.409936 
L 328.470266 111.421114 
L 328.730089 114.106242 
L 328.989911 114.36116 
L 329.769379 110.851802 
L 330.289024 116.468483 
L 330.548847 116.205099 
L 330.80867 117.947045 
L 331.588137 121.634819 
L 331.84796 120.011865 
L 332.107783 117.683595 
L 332.367605 122.025728 
L 333.406896 122.21265 
L 333.666718 120.232812 
L 333.926541 120.37723 
L 334.186364 121.065547 
L 334.446186 124.999759 
L 335.225654 124.073549 
L 335.485477 129.239924 
L 335.745299 129.435339 
L 336.005122 123.427788 
L 336.264945 128.517649 
L 337.044412 128.254225 
L 337.304235 126.962651 
L 337.564058 121.405433 
L 337.82388 129.26539 
L 338.083703 128.635703 
L 338.863171 133.077769 
L 339.122993 130.992886 
L 339.382816 137.809213 
L 339.642639 141.16208 
L 339.902461 137.290105 
L 340.681929 138.626165 
L 340.941752 135.477535 
L 341.201574 142.642756 
L 341.461397 145.595666 
L 341.72122 145.391428 
L 342.500687 140.694036 
L 342.76051 143.03418 
L 343.020333 142.898043 
L 343.280155 140.123892 
L 343.539978 135.137174 
L 344.839091 135.928554 
L 345.098914 133.801128 
L 345.358736 138.762314 
L 346.138204 138.115537 
L 346.398027 135.928554 
L 346.657849 136.566773 
L 347.177494 145.782866 
L 347.956962 150.250503 
L 348.216785 149.501613 
L 348.476608 147.229543 
L 348.73643 151.799266 
L 348.996253 150.522829 
L 350.035543 146.855105 
L 350.295366 147.297605 
L 350.815011 141.927903 
L 351.594479 141.927903 
L 351.854302 145.519059 
L 352.114124 143.995827 
L 352.373947 146.13176 
L 352.633769 144.251101 
L 353.67306 142.013043 
L 353.932882 140.855717 
L 354.192705 137.936883 
L 354.452528 137.349687 
L 355.231996 139.196282 
L 355.491818 138.353812 
L 355.751641 138.668695 
L 356.271286 134.686128 
L 357.050754 137.32413 
L 357.310576 133.979808 
L 357.830222 130.278047 
L 358.090044 131.350312 
L 358.869512 132.320413 
L 359.129335 133.469233 
L 359.389157 129.052685 
L 359.64898 128.576121 
L 359.908803 124.185079 
L 360.688271 125.036068 
L 360.948093 126.312519 
L 361.207916 121.104551 
L 361.727561 121.572807 
L 362.507029 121.981877 
L 362.766851 121.939294 
L 363.026674 118.257926 
L 363.286497 118.897069 
L 363.546319 115.820781 
L 364.325787 114.891917 
L 364.58561 115.028278 
L 364.845432 113.733005 
L 365.105255 114.073869 
L 365.365078 116.315018 
L 366.144545 119.681067 
L 366.404368 119.970788 
L 366.664191 119.715131 
L 366.924013 117.584745 
L 367.183836 123.047089 
L 367.963304 124.955908 
L 368.482949 128.500888 
L 368.742772 127.87029 
L 369.002594 129.702461 
L 370.041885 130.793192 
L 370.301707 129.574606 
L 370.56153 130.852866 
L 370.821353 128.373072 
L 371.60082 123.208995 
L 371.860643 131.38122 
L 372.120466 130.12853 
L 372.380288 132.633882 
L 372.640111 134.05697 
L 373.419579 130.835841 
L 373.679401 128.77357 
L 373.939224 131.483451 
L 374.199047 132.31855 
L 374.458869 134.287056 
L 375.238337 133.997309 
L 375.49816 133.153703 
L 375.757982 134.789825 
L 376.277627 144.708976 
L 377.057095 141.087282 
L 377.316918 137.976891 
L 377.576741 137.721286 
L 377.836563 138.547853 
L 378.096386 143.098385 
L 378.875854 142.817183 
L 379.135676 144.044314 
L 379.395499 144.589693 
L 379.655322 140.627123 
L 379.915144 144.555576 
L 380.954435 139.979474 
L 381.214257 139.885722 
L 381.47408 140.286273 
L 381.733902 136.979872 
L 382.51337 135.122183 
L 382.773193 132.659453 
L 383.033016 135.207388 
L 383.292838 139.084726 
L 383.552661 129.762096 
L 384.332129 131.807289 
L 384.591951 134.099593 
L 385.111596 144.129494 
L 385.371419 144.359936 
L 386.150887 143.899024 
L 386.41071 143.403942 
L 386.670532 147.356012 
L 386.930355 137.113129 
L 387.190177 134.697527 
L 387.969645 135.909614 
L 388.229468 134.40729 
L 388.48929 135.474259 
L 388.749113 133.826884 
L 389.008936 133.340334 
L 389.788404 136.14007 
L 390.048226 134.287783 
L 390.308049 133.528102 
L 391.607162 139.375094 
L 391.866984 141.978477 
L 392.126807 136.122966 
L 392.38663 135.88399 
L 392.646452 136.310786 
L 393.42592 137.317975 
L 393.685743 140.493271 
L 393.945565 142.174803 
L 394.205388 140.715195 
L 394.465211 141.133445 
L 395.504501 138.308125 
L 395.764324 140.237218 
L 396.024146 145.964689 
L 396.283969 147.663286 
L 397.063437 149.489923 
L 397.323259 149.549651 
L 397.583082 146.86093 
L 397.842905 149.609431 
L 398.102727 149.925265 
L 399.142018 151.487276 
L 399.40184 154.893035 
L 399.661663 151.845798 
L 399.921486 151.572653 
L 400.960776 155.721003 
L 401.220599 154.619897 
L 401.480421 155.763678 
L 401.740244 151.837253 
L 402.519712 151.384873 
L 402.779534 150.889778 
L 403.039357 148.533942 
L 403.29918 148.602215 
L 403.559002 147.449908 
L 404.598293 146.442653 
L 404.858115 147.065775 
L 405.117938 147.014567 
L 405.377761 144.795278 
L 406.417051 140.817624 
L 406.676874 141.389525 
L 407.196519 137.915499 
L 407.975987 140.416453 
L 408.495632 138.342281 
L 409.015277 130.600366 
L 409.794745 132.964773 
L 410.054568 130.472326 
L 410.31439 132.802603 
L 410.574213 133.698857 
L 410.834035 133.382521 
L 411.613503 130.954675 
L 411.873326 131.510356 
L 412.133149 129.689478 
L 412.652794 132.066024 
L 413.692084 135.545359 
L 414.211729 134.758892 
L 414.471552 137.058487 
L 415.25102 136.024089 
L 415.510843 136.460091 
L 415.770665 138.255306 
L 416.030488 137.742393 
L 416.29031 133.36543 
L 417.069778 130.971766 
L 417.329601 132.878167 
L 417.589424 131.792482 
L 418.109069 135.528268 
L 418.888537 133.844173 
L 419.148359 132.031841 
L 419.408182 131.689868 
L 419.668004 129.24493 
L 419.927827 129.971578 
L 420.707295 127.919887 
L 420.967118 126.312704 
L 421.22694 127.552277 
L 421.746585 125.483481 
L 422.785876 127.706179 
L 423.045698 125.038921 
L 423.305521 123.679681 
L 423.565344 121.508311 
L 424.344812 120.422613 
L 424.604634 120.884212 
L 424.864457 122.482863 
L 425.124279 121.713487 
L 426.16357 123.961795 
L 426.683215 125.61172 
L 426.943038 120.944085 
L 427.20286 121.243276 
L 427.982328 121.226198 
L 428.501973 119.174467 
L 428.761796 120.012275 
L 429.021619 121.405697 
L 429.801086 121.140715 
L 430.060909 122.474317 
L 430.320732 122.482863 
L 430.580554 118.507679 
L 430.840377 117.422007 
L 431.619845 117.498945 
L 432.13949 119.328382 
L 432.399313 120.747468 
L 432.659135 114.096534 
L 433.438603 114.15638 
L 433.698426 115.635312 
L 433.958248 114.10508 
L 434.218071 113.942632 
L 434.477894 114.74734 
L 435.257361 115.17539 
L 435.517184 115.17539 
L 435.777007 114.64462 
L 436.036829 112.624312 
L 436.296652 112.530151 
L 437.07612 113.351989 
L 437.335942 115.611973 
L 437.595765 115.372284 
L 437.855588 114.3878 
L 438.11541 112.299034 
L 439.154701 110.698178 
L 439.414523 110.741012 
L 439.674346 108.309771 
L 439.934169 107.5736 
L 440.973459 109.063112 
L 441.233282 110.253062 
L 441.493104 107.898891 
L 441.752927 107.565028 
L 442.532395 105.142386 
L 442.792217 105.553305 
L 443.05204 105.005404 
L 443.311863 103.241928 
L 443.571685 104.175046 
L 444.610976 104.097976 
L 444.870798 104.996845 
L 445.130621 102.394453 
L 445.390443 102.66839 
L 446.169911 103.875405 
L 446.429734 101.487025 
L 446.689557 100.468305 
L 446.949379 100.177237 
L 447.209202 96.427702 
L 448.508315 98.687699 
L 448.768137 98.276806 
L 449.02796 99.244159 
L 450.067251 101.469881 
L 450.327073 100.02315 
L 450.586896 99.363997 
L 450.846718 99.23556 
L 451.626186 96.410597 
L 451.886009 96.633168 
L 452.145831 95.460362 
L 452.665477 98.165487 
L 453.444945 97.472098 
L 453.96459 95.973988 
L 454.224412 97.069724 
L 454.484235 94.835431 
L 455.263703 94.3047 
L 455.523525 95.023766 
L 455.783348 97.617639 
L 456.043171 98.824667 
L 456.302993 106.683264 
L 457.082461 109.371298 
L 457.342284 108.558058 
L 457.602106 109.936304 
L 457.861929 110.124652 
L 458.121752 110.073207 
L 458.90122 108.641626 
L 459.161042 110.364645 
L 459.420865 111.118977 
L 459.680687 113.322046 
L 460.719978 111.744753 
L 460.9798 110.553258 
L 461.239623 107.21867 
L 461.499446 111.281873 
L 461.759268 109.370268 
L 462.538736 108.015902 
L 463.058381 101.621075 
L 463.318204 101.432475 
L 463.578027 100.069511 
L 464.617317 99.863781 
L 465.136962 110.270378 
L 465.396785 109.738908 
L 466.176253 108.727387 
L 466.695898 113.142019 
L 466.955721 111.830501 
L 467.215543 112.456277 
L 468.254834 108.975978 
L 468.514656 112.044777 
L 468.774479 113.382064 
L 469.034302 112.644864 
L 469.813769 111.539036 
L 470.073592 115.070755 
L 470.333415 116.3823 
L 470.593237 116.159412 
L 470.85306 115.713676 
L 471.632528 113.536323 
L 471.89235 114.693583 
L 472.411996 112.541959 
L 472.671818 110.33037 
L 473.451286 109.044554 
L 473.711109 109.558881 
L 474.230754 107.57014 
L 474.490576 109.164537 
L 475.270044 109.276001 
L 475.78969 111.744753 
L 476.049512 112.07052 
L 476.309335 114.282109 
L 477.088803 114.179283 
L 477.348625 113.802097 
L 477.608448 115.807956 
L 477.868271 119.416837 
L 478.128093 118.276748 
L 479.167384 116.090835 
L 479.687029 110.26178 
L 479.946851 111.050413 
L 480.726319 108.838811 
L 480.986142 106.61861 
L 481.245965 105.701408 
L 481.505787 106.112843 
L 481.76561 102.482089 
L 482.545078 103.855421 
L 482.8049 101.589388 
L 483.064723 101.100144 
L 483.324545 99.640972 
L 483.584368 99.658129 
L 484.363836 98.147458 
L 484.623659 98.84271 
L 484.883481 98.267613 
L 485.403126 99.417807 
L 486.182594 99.572316 
L 486.442417 99.048704 
L 486.702239 99.932806 
L 486.962062 99.434951 
L 487.221885 98.327697 
L 488.001353 99.881321 
L 488.261175 96.456522 
L 488.520998 97.400668 
L 489.040643 94.490895 
L 489.820111 96.66253 
L 490.079933 95.349242 
L 490.339756 92.559623 
L 490.599579 92.43087 
L 491.638869 94.336386 
L 491.898692 93.43514 
L 492.158514 95.246244 
L 492.418337 95.374984 
L 492.67816 96.302 
L 493.71745 96.774099 
L 493.977273 96.688259 
L 494.237095 96.31917 
L 494.496918 97.220443 
L 496.315676 106.962643 
L 497.095144 103.20307 
L 497.354967 103.563574 
L 497.614789 102.662327 
L 497.874612 103.177354 
L 498.134435 102.894078 
L 499.173725 104.859691 
L 499.433548 105.675137 
L 499.69337 100.567974 
L 499.953193 98.053046 
L 500.732661 96.053105 
L 500.992483 94.945824 
L 501.252306 95.52948 
L 501.512129 95.812756 
L 501.771951 97.314855 
L 502.551419 97.907122 
L 503.071064 104.198768 
L 503.330887 102.087257 
L 503.59071 102.954162 
L 504.370177 101.383407 
L 504.63 99.992877 
L 504.889823 99.898439 
L 505.149645 100.834039 
L 505.409468 100.172297 
L 506.188936 101.633358 
L 506.448758 103.446761 
L 506.708581 104.211659 
L 506.968404 104.460897 
L 507.228226 105.79302 
L 508.267517 106.437605 
L 508.527339 105.784422 
L 508.787162 104.022571 
L 509.046984 105.612544 
L 509.826452 106.781374 
L 510.086275 105.517986 
L 510.346098 106.557905 
L 510.60592 107.133755 
L 510.865743 108.070531 
L 511.645211 111.98958 
L 511.905033 116.269595 
L 512.164856 117.129037 
L 512.424678 117.232153 
L 512.684501 115.745336 
L 513.723792 113.596724 
L 513.983614 115.401554 
L 514.243437 113.79441 
L 514.503259 114.120995 
L 515.282727 113.175607 
L 515.802373 108.921388 
L 516.062195 115.195308 
L 516.322018 114.413186 
L 517.101486 115.64218 
L 517.361308 116.621949 
L 517.621131 113.527975 
L 517.880953 115.100764 
L 518.920244 116.346929 
L 519.180067 117.369677 
L 519.439889 116.673527 
L 519.699712 117.386847 
L 519.959534 116.733677 
L 520.739002 117.704834 
L 520.998825 116.65633 
L 521.258647 118.280657 
L 521.51847 112.041158 
L 521.778293 110.743389 
L 522.557761 114.060832 
L 522.817583 116.905555 
L 523.597051 120.669909 
L 524.376519 119.948004 
L 524.636341 119.036983 
L 524.896164 117.214956 
L 525.155987 116.467255 
L 525.415809 116.974317 
L 526.195277 113.364696 
L 526.4551 116.089092 
L 526.714922 116.974317 
L 526.974745 113.768615 
L 527.234568 104.873428 
L 528.014035 106.30868 
L 528.273858 105.7157 
L 528.533681 105.423456 
L 528.793503 103.850693 
L 529.053326 104.943642 
L 530.092616 101.174229 
L 530.352439 99.203412 
L 530.872084 99.074341 
L 531.651552 98.06743 
L 531.911375 96.940047 
L 532.171197 98.187915 
L 532.43102 101.647544 
L 532.690843 98.979692 
L 533.730133 98.97104 
L 533.989956 98.712887 
L 534.509601 97.026098 
L 535.548891 95.218824 
L 535.808714 93.910713 
L 536.068537 95.106964 
L 536.328359 93.032885 
L 537.107827 96.27738 
L 537.36765 84.203105 
L 537.627472 79.108292 
L 537.887295 78.101393 
L 538.147118 79.607442 
L 538.926585 76.010131 
L 539.965876 83.910478 
L 540.745344 83.351073 
L 541.005166 82.550724 
L 541.264989 78.953413 
L 541.524812 78.221878 
L 541.784634 81.216791 
L 542.564102 75.941277 
L 542.823925 72.91197 
L 543.083747 71.810382 
L 543.603392 67.688086 
L 544.38286 66.414396 
L 544.642683 65.674289 
L 544.902506 61.973677 
L 545.162328 66.62953 
L 545.422151 64.073552 
L 546.201619 60.751618 
L 546.461441 60.390163 
L 546.981086 69.547017 
L 547.240909 69.435117 
L 548.020377 69.736316 
L 548.2802 68.832693 
L 548.540022 74.400821 
L 548.799845 75.304418 
L 549.059667 74.899944 
L 549.839135 74.658975 
L 550.098958 74.177022 
L 550.35878 71.354264 
L 550.618603 74.555713 
L 550.878426 73.264813 
L 551.917716 84.134251 
L 552.437361 78.901756 
L 552.697184 76.380184 
L 553.476652 75.053318 
L 553.736475 71.830934 
L 553.996297 71.443208 
L 554.25612 68.858422 
L 554.515942 67.712481 
L 555.29541 67.850348 
L 555.555233 67.316157 
L 555.815055 67.410926 
L 556.074878 69.022124 
L 556.334701 67.031812 
L 557.114169 66.738894 
L 557.373991 66.006514 
L 557.633814 67.333381 
L 557.893636 64.490098 
L 558.153459 65.170767 
L 559.452572 72.192811 
L 559.712395 70.874557 
L 559.972217 72.21866 
L 560.751685 72.141101 
L 561.011508 72.830409 
L 561.27133 70.63331 
L 561.531153 70.538528 
L 561.790976 70.771163 
L 562.570443 76.095852 
L 562.830266 75.690916 
L 563.090089 72.330665 
L 563.349911 65.282773 
L 564.389202 67.35063 
L 564.649024 66.575166 
L 564.908847 67.436774 
L 565.16867 66.445937 
L 565.428492 66.213328 
L 566.20796 61.72436 
L 566.467783 67.574628 
L 566.727605 67.083522 
L 566.987428 68.039886 
L 567.247251 67.066272 
L 568.026718 71.469056 
L 568.546364 64.705483 
L 568.806186 65.136307 
L 569.066009 66.420075 
L 569.845477 63.18908 
L 570.105299 60.991993 
L 570.365122 62.775519 
L 570.624945 62.456726 
L 570.884767 60.001169 
L 571.664235 58.726 
L 571.924058 59.260178 
L 572.18388 63.654351 
L 572.443703 63.818053 
L 572.703525 63.094298 
L 573.482993 61.379732 
L 573.742816 61.147097 
L 574.522284 70.417898 
L 575.301752 71.193362 
L 575.561574 69.952653 
L 575.821397 70.581613 
L 576.08122 66.480397 
L 576.341042 66.713283 
L 577.12051 69.068036 
L 577.380333 69.068036 
L 577.640155 68.300377 
L 577.899978 65.626476 
L 578.1598 68.403889 
L 578.939268 65.798988 
L 579.199091 65.574726 
L 579.458914 64.953691 
L 579.718736 65.367714 
L 579.978559 64.203269 
L 580.758027 61.61563 
L 581.017849 59.726651 
L 581.277672 59.838775 
L 581.797317 57.768658 
L 582.576785 55.819304 
L 582.836608 53.179903 
L 583.09643 52.869392 
L 583.356253 52.843504 
L 583.616075 53.016016 
L 584.655366 48.763646 
L 584.915188 49.867717 
L 585.175011 48.599746 
L 585.434834 48.453135 
L 586.214302 45.94312 
L 586.474124 43.838504 
L 586.733947 48.522134 
L 586.993769 47.021303 
L 587.253592 42.96732 
L 588.03306 42.294522 
L 588.292882 39.767271 
L 588.812528 39.06 
L 589.07235 42.018524 
L 589.851818 44.942562 
L 590.111641 46.477893 
L 590.631286 52.144831 
L 590.891109 52.567493 
L 591.670576 51.152911 
L 591.930399 53.559413 
L 592.190222 53.136778 
L 592.709867 58.182682 
L 593.749157 61.261981 
L 594.00898 57.302886 
L 594.268803 65.591963 
L 594.528625 64.108395 
L 595.567916 70.439493 
L 595.827738 69.413073 
L 596.087561 69.559684 
L 596.347384 70.318744 
L 597.126851 64.211894 
L 597.386674 56.9665 
L 597.646497 56.017678 
L 598.166142 58.915841 
L 598.94561 65.807613 
L 599.205432 61.675992 
L 599.465255 61.960641 
L 599.725078 61.313731 
L 599.9849 66.135373 
L 600.764368 65.902249 
L 601.543836 53.916905 
L 601.803659 51.26596 
L 602.842949 51.378216 
L 603.102772 51.032822 
L 603.362594 50.203851 
L 603.622417 50.44564 
L 604.401885 49.107217 
L 604.661707 49.159032 
L 604.92153 54.927185 
L 605.181353 57.569492 
L 605.441175 53.649215 
L 606.220643 56.939146 
L 606.480466 58.752482 
L 606.740288 58.916541 
L 607.000111 59.270573 
L 607.259933 56.041096 
L 608.039401 66.049031 
L 608.818869 81.419285 
L 609.078692 78.129355 
L 609.85816 77.688968 
L 610.117982 78.820142 
L 610.377805 76.618235 
L 610.637627 77.602613 
L 610.89745 74.001829 
L 611.676918 71.877638 
L 611.936741 69.26987 
L 612.196563 71.186838 
L 612.456386 69.183515 
L 612.716208 74.321334 
L 613.755499 69.753421 
L 614.015322 69.148976 
L 614.534967 99.811754 
L 615.314435 105.787156 
L 615.574257 113.593184 
L 615.83408 90.770947 
L 616.093902 98.050233 
L 616.353725 91.375405 
L 617.133193 87.601911 
L 617.393016 87.930054 
L 617.652838 94.725763 
L 617.912661 92.385685 
L 618.951951 95.68424 
L 619.471596 85.805837 
L 619.731419 82.55046 
L 619.991242 81.764679 
L 620.77071 81.022063 
L 621.550177 78.276137 
L 621.81 85.158214 
L 622.589468 90.736407 
L 622.84929 91.064538 
L 623.109113 93.016045 
L 623.628758 91.047262 
L 624.408226 80.22211 
L 624.668049 78.371804 
L 625.447517 79.815734 
L 626.226984 81.960015 
L 626.486807 83.620097 
L 626.74663 87.744387 
L 627.006452 88.375566 
L 627.266275 93.641148 
L 628.305565 89.369877 
L 628.565388 89.188317 
L 628.825211 89.594693 
L 629.085033 88.816521 
L 629.864501 88.081592 
L 630.124324 86.724122 
L 630.384146 87.113195 
L 630.643969 89.006731 
L 630.903792 86.162114 
L 631.683259 88.297743 
L 631.943082 87.242899 
L 632.202905 90.606307 
L 632.462727 90.243161 
L 632.72255 92.620896 
L 633.502018 90.917571 
L 633.76184 93.321246 
L 634.021663 92.508495 
L 634.541308 88.68683 
L 635.320776 88.254513 
L 635.580599 89.292068 
L 635.840421 88.202631 
L 636.100244 88.68683 
L 636.360067 88.617658 
L 637.139534 85.08133 
L 637.399357 82.790056 
L 637.65918 78.795469 
L 637.919002 77.835724 
L 638.958293 80.948401 
L 639.218115 80.896519 
L 639.737761 78.82141 
L 639.997583 79.902195 
L 640.777051 82.098357 
L 641.036874 81.674679 
L 641.296696 80.766815 
L 641.556519 80.887868 
L 641.816341 79.884906 
L 642.595809 78.76089 
L 642.855632 77.100795 
L 643.375277 77.654165 
L 643.6351 77.550401 
L 644.414568 77.403408 
L 644.934213 81.72656 
L 645.194035 83.006207 
L 645.453858 87.49363 
L 646.233326 86.654938 
L 646.493149 87.026748 
L 647.012794 72.232938 
L 647.272616 64.174581 
L 648.052084 65.827913 
L 648.311907 63.689854 
L 648.571729 60.5044 
L 648.831552 60.980489 
L 649.091375 62.010568 
L 650.130665 62.902145 
L 650.390488 66.840676 
L 650.65031 67.801505 
L 650.910133 65.325858 
L 651.689601 65.845216 
L 651.949424 63.984159 
L 652.209246 62.962731 
L 652.469069 61.170924 
L 652.728891 61.534479 
L 653.768182 63.629255 
L 653.768182 63.629255 
" clip-path="url(#p9852ba9a03)" style="fill: none; stroke: #1f77b4; stroke-width: 1.5; stroke-linecap: square"/>
   </g>
   <g id="patch_3">
    <path d="M 94.5 224.28 
L 94.5 30.24 
" style="fill: none; stroke: #000000; stroke-width: 0.8; stroke-linejoin: miter; stroke-linecap: square"/>
   </g>
   <g id="patch_4">
    <path d="M 94.5 224.28 
L 680.4 224.28 
" style="fill: none; stroke: #000000; stroke-width: 0.8; stroke-linejoin: miter; stroke-linecap: square"/>
   </g>
  </g>
 </g>
 <defs>
  <clipPath id="p9852ba9a03">
   <rect x="94.5" y="30.24" width="585.9" height="194.04"/>
  </clipPath>
 </defs>
</svg>
