<?xml version="1.0" encoding="utf-8" standalone="no"?>
<!DOCTYPE svg PUBLIC "-//W3C//DTD SVG 1.1//EN"
  "http://www.w3.org/Graphics/SVG/1.1/DTD/svg11.dtd">
<svg xmlns:xlink="http://www.w3.org/1999/xlink" width="1166.4pt" height="252pt" viewBox="0 0 1166.4 252" xmlns="http://www.w3.org/2000/svg" version="1.1">
 <metadata>
  <rdf:RDF xmlns:dc="http://purl.org/dc/elements/1.1/" xmlns:cc="http://creativecommons.org/ns#" xmlns:rdf="http://www.w3.org/1999/02/22-rdf-syntax-ns#">
   <cc:Work>
    <dc:type rdf:resource="http://purl.org/dc/dcmitype/StillImage"/>
    <dc:date>2025-09-06T17:30:03.993609</dc:date>
    <dc:format>image/svg+xml</dc:format>
    <dc:creator>
     <cc:Agent>
      <dc:title>Matplotlib v3.10.5, https://matplotlib.org/</dc:title>
     </cc:Agent>
    </dc:creator>
   </cc:Work>
  </rdf:RDF>
 </metadata>
 <defs>
  <style type="text/css">*{stroke-linejoin: round; stroke-linecap: butt}</style>
 </defs>
 <g id="figure_1">
  <g id="patch_1">
   <path d="M 0 252 
L 1166.4 252 
L 1166.4 0 
L 0 0 
z
" style="fill: #ffffff"/>
  </g>
  <g id="axes_1">
   <g id="patch_2">
    <path d="M 145.8 224.28 
L 1049.76 224.28 
L 1049.76 30.24 
L 145.8 30.24 
z
" style="fill: #ffffff"/>
   </g>
   <g id="matplotlib.axis_1">
    <g id="xtick_1">
     <g id="line2d_1">
      <defs>
       <path id="me335d2d97b" d="M 0 0 
L 0 3.5 
" style="stroke: #000000; stroke-width: 0.8"/>
      </defs>
      <g>
       <use xlink:href="#me335d2d97b" x="178.474943" y="224.28" style="stroke: #000000; stroke-width: 0.8"/>
      </g>
     </g>
     <g id="text_1">
      <!-- 2020 -->
      <g transform="translate(165.749943 238.878438) scale(0.1 -0.1)">
       <defs>
        <path id="DejaVuSans-32" d="M 1228 531 
L 3431 531 
L 3431 0 
L 469 0 
L 469 531 
Q 828 903 1448 1529 
Q 2069 2156 2228 2338 
Q 2531 2678 2651 2914 
Q 2772 3150 2772 3378 
Q 2772 3750 2511 3984 
Q 2250 4219 1831 4219 
Q 1534 4219 1204 4116 
Q 875 4013 500 3803 
L 500 4441 
Q 881 4594 1212 4672 
Q 1544 4750 1819 4750 
Q 2544 4750 2975 4387 
Q 3406 4025 3406 3419 
Q 3406 3131 3298 2873 
Q 3191 2616 2906 2266 
Q 2828 2175 2409 1742 
Q 1991 1309 1228 531 
z
" transform="scale(0.015625)"/>
        <path id="DejaVuSans-30" d="M 2034 4250 
Q 1547 4250 1301 3770 
Q 1056 3291 1056 2328 
Q 1056 1369 1301 889 
Q 1547 409 2034 409 
Q 2525 409 2770 889 
Q 3016 1369 3016 2328 
Q 3016 3291 2770 3770 
Q 2525 4250 2034 4250 
z
M 2034 4750 
Q 2819 4750 3233 4129 
Q 3647 3509 3647 2328 
Q 3647 1150 3233 529 
Q 2819 -91 2034 -91 
Q 1250 -91 836 529 
Q 422 1150 422 2328 
Q 422 3509 836 4129 
Q 1250 4750 2034 4750 
z
" transform="scale(0.015625)"/>
       </defs>
       <use xlink:href="#DejaVuSans-32"/>
       <use xlink:href="#DejaVuSans-30" transform="translate(63.623047 0)"/>
       <use xlink:href="#DejaVuSans-32" transform="translate(127.246094 0)"/>
       <use xlink:href="#DejaVuSans-30" transform="translate(190.869141 0)"/>
      </g>
     </g>
    </g>
    <g id="xtick_2">
     <g id="line2d_2">
      <g>
       <use xlink:href="#me335d2d97b" x="325.121527" y="224.28" style="stroke: #000000; stroke-width: 0.8"/>
      </g>
     </g>
     <g id="text_2">
      <!-- 2021 -->
      <g transform="translate(312.396527 238.878438) scale(0.1 -0.1)">
       <defs>
        <path id="DejaVuSans-31" d="M 794 531 
L 1825 531 
L 1825 4091 
L 703 3866 
L 703 4441 
L 1819 4666 
L 2450 4666 
L 2450 531 
L 3481 531 
L 3481 0 
L 794 0 
L 794 531 
z
" transform="scale(0.015625)"/>
       </defs>
       <use xlink:href="#DejaVuSans-32"/>
       <use xlink:href="#DejaVuSans-30" transform="translate(63.623047 0)"/>
       <use xlink:href="#DejaVuSans-32" transform="translate(127.246094 0)"/>
       <use xlink:href="#DejaVuSans-31" transform="translate(190.869141 0)"/>
      </g>
     </g>
    </g>
    <g id="xtick_3">
     <g id="line2d_3">
      <g>
       <use xlink:href="#me335d2d97b" x="471.367439" y="224.28" style="stroke: #000000; stroke-width: 0.8"/>
      </g>
     </g>
     <g id="text_3">
      <!-- 2022 -->
      <g transform="translate(458.642439 238.878438) scale(0.1 -0.1)">
       <use xlink:href="#DejaVuSans-32"/>
       <use xlink:href="#DejaVuSans-30" transform="translate(63.623047 0)"/>
       <use xlink:href="#DejaVuSans-32" transform="translate(127.246094 0)"/>
       <use xlink:href="#DejaVuSans-32" transform="translate(190.869141 0)"/>
      </g>
     </g>
    </g>
    <g id="xtick_4">
     <g id="line2d_4">
      <g>
       <use xlink:href="#me335d2d97b" x="617.61335" y="224.28" style="stroke: #000000; stroke-width: 0.8"/>
      </g>
     </g>
     <g id="text_4">
      <!-- 2023 -->
      <g transform="translate(604.88835 238.878438) scale(0.1 -0.1)">
       <defs>
        <path id="DejaVuSans-33" d="M 2597 2516 
Q 3050 2419 3304 2112 
Q 3559 1806 3559 1356 
Q 3559 666 3084 287 
Q 2609 -91 1734 -91 
Q 1441 -91 1130 -33 
Q 819 25 488 141 
L 488 750 
Q 750 597 1062 519 
Q 1375 441 1716 441 
Q 2309 441 2620 675 
Q 2931 909 2931 1356 
Q 2931 1769 2642 2001 
Q 2353 2234 1838 2234 
L 1294 2234 
L 1294 2753 
L 1863 2753 
Q 2328 2753 2575 2939 
Q 2822 3125 2822 3475 
Q 2822 3834 2567 4026 
Q 2313 4219 1838 4219 
Q 1578 4219 1281 4162 
Q 984 4106 628 3988 
L 628 4550 
Q 988 4650 1302 4700 
Q 1616 4750 1894 4750 
Q 2613 4750 3031 4423 
Q 3450 4097 3450 3541 
Q 3450 3153 3228 2886 
Q 3006 2619 2597 2516 
z
" transform="scale(0.015625)"/>
       </defs>
       <use xlink:href="#DejaVuSans-32"/>
       <use xlink:href="#DejaVuSans-30" transform="translate(63.623047 0)"/>
       <use xlink:href="#DejaVuSans-32" transform="translate(127.246094 0)"/>
       <use xlink:href="#DejaVuSans-33" transform="translate(190.869141 0)"/>
      </g>
     </g>
    </g>
    <g id="xtick_5">
     <g id="line2d_5">
      <g>
       <use xlink:href="#me335d2d97b" x="763.859261" y="224.28" style="stroke: #000000; stroke-width: 0.8"/>
      </g>
     </g>
     <g id="text_5">
      <!-- 2024 -->
      <g transform="translate(751.134261 238.878438) scale(0.1 -0.1)">
       <defs>
        <path id="DejaVuSans-34" d="M 2419 4116 
L 825 1625 
L 2419 1625 
L 2419 4116 
z
M 2253 4666 
L 3047 4666 
L 3047 1625 
L 3713 1625 
L 3713 1100 
L 3047 1100 
L 3047 0 
L 2419 0 
L 2419 1100 
L 313 1100 
L 313 1709 
L 2253 4666 
z
" transform="scale(0.015625)"/>
       </defs>
       <use xlink:href="#DejaVuSans-32"/>
       <use xlink:href="#DejaVuSans-30" transform="translate(63.623047 0)"/>
       <use xlink:href="#DejaVuSans-32" transform="translate(127.246094 0)"/>
       <use xlink:href="#DejaVuSans-34" transform="translate(190.869141 0)"/>
      </g>
     </g>
    </g>
    <g id="xtick_6">
     <g id="line2d_6">
      <g>
       <use xlink:href="#me335d2d97b" x="910.505845" y="224.28" style="stroke: #000000; stroke-width: 0.8"/>
      </g>
     </g>
     <g id="text_6">
      <!-- 2025 -->
      <g transform="translate(897.780845 238.878438) scale(0.1 -0.1)">
       <defs>
        <path id="DejaVuSans-35" d="M 691 4666 
L 3169 4666 
L 3169 4134 
L 1269 4134 
L 1269 2991 
Q 1406 3038 1543 3061 
Q 1681 3084 1819 3084 
Q 2600 3084 3056 2656 
Q 3513 2228 3513 1497 
Q 3513 744 3044 326 
Q 2575 -91 1722 -91 
Q 1428 -91 1123 -41 
Q 819 9 494 109 
L 494 744 
Q 775 591 1075 516 
Q 1375 441 1709 441 
Q 2250 441 2565 725 
Q 2881 1009 2881 1497 
Q 2881 1984 2565 2268 
Q 2250 2553 1709 2553 
Q 1456 2553 1204 2497 
Q 953 2441 691 2322 
L 691 4666 
z
" transform="scale(0.015625)"/>
       </defs>
       <use xlink:href="#DejaVuSans-32"/>
       <use xlink:href="#DejaVuSans-30" transform="translate(63.623047 0)"/>
       <use xlink:href="#DejaVuSans-32" transform="translate(127.246094 0)"/>
       <use xlink:href="#DejaVuSans-35" transform="translate(190.869141 0)"/>
      </g>
     </g>
    </g>
   </g>
   <g id="matplotlib.axis_2">
    <g id="ytick_1">
     <g id="line2d_7">
      <defs>
       <path id="m438fccd639" d="M 0 0 
L -3.5 0 
" style="stroke: #000000; stroke-width: 0.8"/>
      </defs>
      <g>
       <use xlink:href="#m438fccd639" x="145.8" y="191.997111" style="stroke: #000000; stroke-width: 0.8"/>
      </g>
     </g>
     <g id="text_7">
      <!-- 20 -->
      <g transform="translate(126.075 195.796329) scale(0.1 -0.1)">
       <use xlink:href="#DejaVuSans-32"/>
       <use xlink:href="#DejaVuSans-30" transform="translate(63.623047 0)"/>
      </g>
     </g>
    </g>
    <g id="ytick_2">
     <g id="line2d_8">
      <g>
       <use xlink:href="#m438fccd639" x="145.8" y="152.270538" style="stroke: #000000; stroke-width: 0.8"/>
      </g>
     </g>
     <g id="text_8">
      <!-- 40 -->
      <g transform="translate(126.075 156.069756) scale(0.1 -0.1)">
       <use xlink:href="#DejaVuSans-34"/>
       <use xlink:href="#DejaVuSans-30" transform="translate(63.623047 0)"/>
      </g>
     </g>
    </g>
    <g id="ytick_3">
     <g id="line2d_9">
      <g>
       <use xlink:href="#m438fccd639" x="145.8" y="112.543964" style="stroke: #000000; stroke-width: 0.8"/>
      </g>
     </g>
     <g id="text_9">
      <!-- 60 -->
      <g transform="translate(126.075 116.343183) scale(0.1 -0.1)">
       <defs>
        <path id="DejaVuSans-36" d="M 2113 2584 
Q 1688 2584 1439 2293 
Q 1191 2003 1191 1497 
Q 1191 994 1439 701 
Q 1688 409 2113 409 
Q 2538 409 2786 701 
Q 3034 994 3034 1497 
Q 3034 2003 2786 2293 
Q 2538 2584 2113 2584 
z
M 3366 4563 
L 3366 3988 
Q 3128 4100 2886 4159 
Q 2644 4219 2406 4219 
Q 1781 4219 1451 3797 
Q 1122 3375 1075 2522 
Q 1259 2794 1537 2939 
Q 1816 3084 2150 3084 
Q 2853 3084 3261 2657 
Q 3669 2231 3669 1497 
Q 3669 778 3244 343 
Q 2819 -91 2113 -91 
Q 1303 -91 875 529 
Q 447 1150 447 2328 
Q 447 3434 972 4092 
Q 1497 4750 2381 4750 
Q 2619 4750 2861 4703 
Q 3103 4656 3366 4563 
z
" transform="scale(0.015625)"/>
       </defs>
       <use xlink:href="#DejaVuSans-36"/>
       <use xlink:href="#DejaVuSans-30" transform="translate(63.623047 0)"/>
      </g>
     </g>
    </g>
    <g id="ytick_4">
     <g id="line2d_10">
      <g>
       <use xlink:href="#m438fccd639" x="145.8" y="72.817391" style="stroke: #000000; stroke-width: 0.8"/>
      </g>
     </g>
     <g id="text_10">
      <!-- 80 -->
      <g transform="translate(126.075 76.61661) scale(0.1 -0.1)">
       <defs>
        <path id="DejaVuSans-38" d="M 2034 2216 
Q 1584 2216 1326 1975 
Q 1069 1734 1069 1313 
Q 1069 891 1326 650 
Q 1584 409 2034 409 
Q 2484 409 2743 651 
Q 3003 894 3003 1313 
Q 3003 1734 2745 1975 
Q 2488 2216 2034 2216 
z
M 1403 2484 
Q 997 2584 770 2862 
Q 544 3141 544 3541 
Q 544 4100 942 4425 
Q 1341 4750 2034 4750 
Q 2731 4750 3128 4425 
Q 3525 4100 3525 3541 
Q 3525 3141 3298 2862 
Q 3072 2584 2669 2484 
Q 3125 2378 3379 2068 
Q 3634 1759 3634 1313 
Q 3634 634 3220 271 
Q 2806 -91 2034 -91 
Q 1263 -91 848 271 
Q 434 634 434 1313 
Q 434 1759 690 2068 
Q 947 2378 1403 2484 
z
M 1172 3481 
Q 1172 3119 1398 2916 
Q 1625 2713 2034 2713 
Q 2441 2713 2670 2916 
Q 2900 3119 2900 3481 
Q 2900 3844 2670 4047 
Q 2441 4250 2034 4250 
Q 1625 4250 1398 4047 
Q 1172 3844 1172 3481 
z
" transform="scale(0.015625)"/>
       </defs>
       <use xlink:href="#DejaVuSans-38"/>
       <use xlink:href="#DejaVuSans-30" transform="translate(63.623047 0)"/>
      </g>
     </g>
    </g>
    <g id="ytick_5">
     <g id="line2d_11">
      <g>
       <use xlink:href="#m438fccd639" x="145.8" y="33.090818" style="stroke: #000000; stroke-width: 0.8"/>
      </g>
     </g>
     <g id="text_11">
      <!-- 100 -->
      <g transform="translate(119.7125 36.890037) scale(0.1 -0.1)">
       <use xlink:href="#DejaVuSans-31"/>
       <use xlink:href="#DejaVuSans-30" transform="translate(63.623047 0)"/>
       <use xlink:href="#DejaVuSans-30" transform="translate(127.246094 0)"/>
      </g>
     </g>
    </g>
   </g>
   <g id="line2d_12">
    <path d="M 186.889091 102.05876 
L 187.690438 91.127908 
L 188.89246 125.313065 
L 189.293133 116.064543 
L 189.693807 122.327081 
L 190.094481 126.690494 
L 190.495154 146.264132 
L 191.697176 154.325003 
L 192.097849 132.678684 
L 192.498523 123.333918 
L 192.899197 123.127889 
L 193.299871 128.535141 
L 194.501892 110.864122 
L 194.902565 107.895205 
L 195.303239 105.973048 
L 195.703913 104.909621 
L 196.104587 72.381637 
L 197.707282 72.861507 
L 198.107955 61.419965 
L 198.909303 79.273747 
L 200.111324 106.149782 
L 200.511998 120.925708 
L 200.912671 119.605172 
L 201.313345 133.452384 
L 201.714019 120.634253 
L 202.91604 123.518697 
L 203.316714 133.565421 
L 203.717388 125.391136 
L 204.118061 130.942851 
L 204.518735 146.224996 
L 205.720756 160.017004 
L 206.12143 161.757465 
L 206.522104 164.939066 
L 206.922777 170.002326 
L 207.323451 147.766364 
L 208.525472 159.293795 
L 208.926146 151.799467 
L 209.32682 151.662488 
L 209.727493 155.142058 
L 210.128167 160.452356 
L 211.330188 153.824519 
L 211.730862 145.669719 
L 212.131536 143.10396 
L 212.932883 129.454374 
L 214.134904 130.559465 
L 214.936252 120.335549 
L 215.336926 125.422676 
L 215.737599 105.467376 
L 216.939621 104.00177 
L 217.340294 100.266229 
L 217.740968 101.139931 
L 218.141642 98.640639 
L 219.744337 98.65621 
L 220.14501 108.724192 
L 220.545684 108.343378 
L 220.946358 107.201356 
L 221.347032 105.378054 
L 222.549053 116.949356 
L 222.949727 128.581667 
L 223.3504 103.79583 
L 223.751074 112.056224 
L 224.151748 98.372924 
L 225.353769 107.91547 
L 225.754443 103.903891 
L 226.155116 104.42311 
L 226.55579 106.857216 
L 226.956464 121.394789 
L 228.158485 125.841016 
L 228.559159 120.798134 
L 228.959832 129.355101 
L 229.360506 120.564752 
L 229.76118 108.918725 
L 230.963201 79.76022 
L 231.363875 105.009982 
L 231.764549 103.317415 
L 232.165222 100.111836 
L 232.565896 93.347136 
L 233.767917 80.790984 
L 234.168591 82.951532 
L 234.569265 71.439063 
L 234.969938 68.869103 
L 235.370612 68.363082 
L 236.973307 86.168376 
L 237.373981 97.142396 
L 237.774654 102.818323 
L 238.175328 98.373303 
L 239.377349 107.197508 
L 239.778023 94.424267 
L 240.178697 96.110414 
L 240.579371 102.507221 
L 240.980044 112.402815 
L 242.182066 129.498856 
L 242.582739 121.327212 
L 242.983413 115.452806 
L 243.384087 131.495592 
L 243.78476 135.818948 
L 244.986782 114.436971 
L 245.387455 110.272815 
L 245.788129 103.473642 
L 246.188803 116.861136 
L 246.589477 111.571455 
L 247.791498 103.624832 
L 248.192171 104.721623 
L 248.592845 114.955226 
L 248.993519 111.970312 
L 249.394193 120.78157 
L 250.596214 126.933119 
L 250.996888 127.712034 
L 251.397561 99.768864 
L 251.798235 101.421408 
L 253.40093 101.871411 
L 253.801604 94.268751 
L 254.202277 89.502067 
L 254.602951 81.997424 
L 255.003625 84.594148 
L 256.205646 113.016211 
L 256.60632 101.086785 
L 257.006993 98.144508 
L 257.407667 108.802344 
L 257.808341 89.889481 
L 259.010362 84.348516 
L 259.411036 100.591161 
L 259.81171 98.620124 
L 260.212383 114.672137 
L 260.613057 119.510516 
L 261.815078 113.774276 
L 262.215752 132.425052 
L 262.616426 133.978853 
L 263.017099 127.740519 
L 263.417773 109.52572 
L 264.619794 107.373109 
L 265.020468 93.893252 
L 265.421142 87.478045 
L 265.821816 87.86519 
L 266.222489 103.364057 
L 267.42451 94.772614 
L 267.825184 115.475524 
L 268.225858 84.085825 
L 268.626532 85.287224 
L 269.027205 87.478023 
L 270.229227 64.274755 
L 271.030574 80.062206 
L 271.431248 80.033835 
L 271.831921 77.764815 
L 273.033943 80.587681 
L 274.235964 81.985926 
L 274.636638 72.721282 
L 275.838659 54.324338 
L 276.239332 55.289529 
L 276.640006 52.060013 
L 277.04068 102.323171 
L 277.441354 125.914333 
L 279.044049 139.16513 
L 279.444722 122.363524 
L 279.845396 129.585352 
L 280.24607 141.318263 
L 281.448091 129.994503 
L 281.848765 128.667889 
L 282.249438 136.043677 
L 282.650112 134.737062 
L 283.050786 146.734715 
L 284.252807 145.020841 
L 284.653481 150.802937 
L 285.054155 167.026042 
L 285.855502 127.788645 
L 287.057523 109.452714 
L 287.458197 120.452757 
L 287.858871 103.203495 
L 288.259544 97.123908 
L 288.660218 127.600739 
L 289.862239 117.659763 
L 290.262913 102.10395 
L 291.06426 91.781708 
L 291.464934 99.687098 
L 292.666955 94.151197 
L 293.067629 74.305214 
L 293.468303 83.666126 
L 293.868977 97.950292 
L 294.26965 107.979226 
L 296.273019 135.228262 
L 296.673693 121.700619 
L 297.074366 134.551344 
L 298.276388 153.709124 
L 298.677061 152.504439 
L 299.077735 167.313127 
L 299.478409 151.8753 
L 299.879082 176.681565 
L 301.081104 175.760785 
L 301.481777 158.429246 
L 301.882451 136.077852 
L 302.283125 125.432578 
L 302.683799 111.480136 
L 303.88582 132.658319 
L 304.286494 143.809189 
L 304.687167 131.605197 
L 305.087841 134.337767 
L 305.488515 130.055958 
L 306.690536 130.608107 
L 307.09121 118.940118 
L 307.491883 125.064084 
L 307.892557 114.390855 
L 308.293231 122.909236 
L 309.495252 129.97231 
L 309.895926 151.627201 
L 310.296599 154.112047 
L 311.097947 165.890289 
L 312.299968 139.830324 
L 312.700642 104.645106 
L 313.101316 125.12204 
L 313.501989 135.488955 
L 313.902663 118.033631 
L 315.104684 126.703047 
L 315.505358 136.12045 
L 315.906032 154.320047 
L 316.306705 152.717165 
L 316.707379 135.990682 
L 317.9094 124.617573 
L 318.310074 112.905509 
L 318.710748 131.801499 
L 319.111421 128.20625 
L 319.512095 138.925049 
L 320.714116 135.130803 
L 321.11479 146.400905 
L 321.515464 151.750474 
L 321.916138 162.893643 
L 323.518832 169.659085 
L 323.919506 156.58627 
L 324.32018 117.721417 
L 324.720854 126.94029 
L 326.323549 125.860129 
L 326.724222 126.120381 
L 327.124896 165.263066 
L 327.52557 128.890553 
L 327.926244 134.666893 
L 329.128265 121.247933 
L 329.528938 127.654886 
L 329.929612 124.490069 
L 330.330286 126.556972 
L 330.73096 136.144468 
L 332.333655 128.989579 
L 333.135002 115.486349 
L 333.535676 117.222802 
L 334.737697 119.944356 
L 335.138371 131.690744 
L 335.539044 124.792634 
L 335.939718 141.070399 
L 336.340392 140.908168 
L 337.542413 144.137221 
L 337.943087 130.327662 
L 338.34376 132.443486 
L 338.744434 118.095785 
L 339.145108 107.800871 
L 340.347129 93.781919 
L 340.747803 106.715734 
L 341.148477 106.731626 
L 341.54915 92.206271 
L 341.949824 100.176439 
L 343.953193 84.106291 
L 344.353866 88.611391 
L 344.75454 85.12613 
L 345.956561 107.107502 
L 346.357235 118.844831 
L 346.757909 111.571567 
L 347.158583 138.651452 
L 347.559256 130.365667 
L 349.161951 147.750044 
L 349.963299 183.529656 
L 350.363972 178.401639 
L 351.565994 195.345283 
L 351.966667 169.339257 
L 352.367341 169.094917 
L 352.768015 160.544828 
L 353.168688 155.70711 
L 354.37071 146.874758 
L 354.771383 151.56158 
L 355.172057 131.659926 
L 355.572731 150.88281 
L 355.973405 150.97067 
L 357.175426 136.514226 
L 357.576099 126.720207 
L 357.976773 126.57326 
L 358.377447 130.769356 
L 358.778121 102.625392 
L 359.980142 119.705126 
L 360.380816 120.519396 
L 360.781489 121.802276 
L 361.182163 106.388821 
L 362.784858 109.739943 
L 363.185532 116.29366 
L 363.586205 111.141721 
L 363.986879 84.441218 
L 364.387553 85.075023 
L 365.589574 78.545148 
L 365.990248 68.978424 
L 366.390922 67.966092 
L 366.791595 58.064391 
L 367.192269 67.915341 
L 368.39429 86.083943 
L 369.195638 92.447347 
L 369.596311 111.975387 
L 369.996985 108.405798 
L 371.199006 102.532872 
L 372.000354 113.789402 
L 372.401027 114.344831 
L 372.801701 136.723008 
L 374.003722 151.90273 
L 374.404396 153.416588 
L 374.80507 178.423209 
L 375.205744 172.257148 
L 375.606417 149.45373 
L 376.808438 157.686473 
L 377.209112 163.123488 
L 377.609786 163.870005 
L 378.01046 183.265392 
L 378.411133 167.557235 
L 379.613155 167.210601 
L 380.013828 168.031712 
L 380.414502 167.955032 
L 380.815176 142.924394 
L 381.215849 128.515379 
L 382.417871 101.794613 
L 382.818544 103.01698 
L 383.219218 103.2308 
L 383.619892 115.32687 
L 384.020566 84.929416 
L 385.62326 85.187474 
L 386.023934 58.985036 
L 386.424608 53.948775 
L 386.825282 53.79654 
L 388.027303 50.293323 
L 388.427977 50.823941 
L 388.82865 55.082582 
L 389.229324 57.894396 
L 389.629998 57.755795 
L 390.832019 60.898995 
L 391.232693 72.283771 
L 391.633366 72.624016 
L 392.03404 56.417058 
L 392.434714 62.543922 
L 393.636735 72.645485 
L 394.037409 73.249274 
L 394.438083 73.488021 
L 394.838756 79.552024 
L 395.23943 88.444285 
L 396.441451 69.398126 
L 396.842125 65.10754 
L 397.643472 68.423439 
L 398.044146 67.662909 
L 399.646841 55.695388 
L 400.047515 69.939347 
L 400.448188 98.92517 
L 400.848862 95.742799 
L 402.050883 81.575595 
L 402.852231 113.480245 
L 403.252905 137.314298 
L 403.653578 148.19485 
L 404.855599 155.705671 
L 405.256273 159.100732 
L 405.656947 142.153831 
L 406.057621 142.616528 
L 406.458294 148.389409 
L 407.660316 156.351875 
L 408.060989 153.102837 
L 408.461663 139.744775 
L 408.862337 139.518632 
L 409.263011 152.055351 
L 410.465032 142.122243 
L 410.865705 132.959193 
L 411.667053 69.507246 
L 412.067727 88.17631 
L 413.269748 84.1678 
L 413.670422 115.14339 
L 414.071095 129.020283 
L 414.471769 121.799876 
L 414.872443 105.238202 
L 416.074464 110.859559 
L 416.475138 133.642872 
L 416.875811 148.344909 
L 417.276485 125.765503 
L 417.677159 112.19506 
L 418.87918 98.704167 
L 419.279854 107.35139 
L 419.680527 106.655064 
L 420.081201 104.00717 
L 420.481875 96.355202 
L 421.683896 87.907298 
L 422.485244 90.739465 
L 422.885917 94.635498 
L 423.286591 84.65361 
L 424.889286 76.650049 
L 425.28996 74.029857 
L 426.091307 93.985186 
L 427.293328 126.775895 
L 427.694002 119.236512 
L 428.094676 128.172615 
L 428.495349 126.610574 
L 428.896023 158.169746 
L 430.098044 176.272012 
L 430.498718 165.766691 
L 430.899392 144.729389 
L 431.300066 130.520275 
L 431.700739 149.299986 
L 432.902761 153.491021 
L 433.303434 162.806637 
L 433.704108 163.062873 
L 434.104782 165.575732 
L 434.505455 160.549834 
L 435.707477 174.687655 
L 436.10815 161.214487 
L 436.508824 155.381521 
L 436.909498 144.638319 
L 437.310172 136.956879 
L 438.512193 141.292434 
L 438.912866 155.390532 
L 439.31354 161.792757 
L 439.714214 138.326274 
L 441.316909 100.326736 
L 441.717583 94.135404 
L 442.118256 102.389284 
L 442.51893 94.816536 
L 442.919604 61.201967 
L 444.121625 63.214501 
L 444.522299 55.670547 
L 444.922972 66.53453 
L 445.323646 55.909658 
L 445.72432 49.353682 
L 446.926341 47.934297 
L 447.327015 47.221007 
L 447.727688 48.717977 
L 448.128362 43.26392 
L 448.529036 44.77506 
L 449.731057 43.567119 
L 450.131731 42.772879 
L 450.532405 65.77942 
L 450.933078 63.109919 
L 451.333752 64.362629 
L 452.535773 76.073427 
L 452.936447 70.781726 
L 453.337121 88.275612 
L 453.737794 79.703031 
L 454.138468 75.806282 
L 455.340489 90.017451 
L 455.741163 93.16243 
L 456.141837 105.871807 
L 456.943184 117.762805 
L 458.145205 112.28731 
L 458.545879 117.272652 
L 458.946553 117.609737 
L 459.347227 119.163766 
L 459.7479 130.303443 
L 460.949922 132.301844 
L 461.350595 119.379449 
L 461.751269 117.078315 
L 462.151943 139.94413 
L 462.552616 151.408264 
L 463.754638 156.61372 
L 464.155311 154.196835 
L 464.555985 145.544768 
L 464.956659 149.953344 
L 465.357333 166.290876 
L 466.559354 163.717345 
L 466.960027 147.213713 
L 467.360701 149.914817 
L 467.761375 139.735417 
L 469.36407 126.363089 
L 469.764744 148.30184 
L 470.165417 146.487298 
L 470.566091 139.919132 
L 470.966765 139.011571 
L 472.168786 113.88225 
L 472.56946 123.928458 
L 472.970133 158.84037 
L 473.370807 134.656385 
L 473.771481 138.154262 
L 474.973502 135.692097 
L 475.374176 146.758309 
L 475.77485 148.65649 
L 476.576197 177.538734 
L 478.178892 179.982245 
L 479.380913 187.703128 
L 480.582934 198.543113 
L 480.983608 199.238635 
L 481.384282 185.06226 
L 481.784955 198.497982 
L 482.185629 179.303947 
L 483.38765 159.139941 
L 483.788324 162.302753 
L 484.188998 157.338077 
L 484.589672 156.447072 
L 484.990345 156.401675 
L 486.192366 143.817902 
L 486.59304 131.990503 
L 486.993714 108.126908 
L 487.394388 109.356364 
L 487.795061 127.796604 
L 488.997083 115.912531 
L 489.79843 96.599436 
L 490.599777 138.858135 
L 492.202472 141.873212 
L 492.603146 153.421748 
L 493.00382 133.8721 
L 493.404494 133.590459 
L 494.606515 134.946215 
L 495.407862 151.222749 
L 495.808536 148.850037 
L 496.20921 141.029494 
L 497.411231 154.839721 
L 497.811905 178.078668 
L 498.212578 160.594008 
L 498.613252 149.59799 
L 499.013926 147.163443 
L 500.215947 151.19366 
L 500.616621 127.317681 
L 501.017294 126.007951 
L 501.417968 127.127277 
L 501.818642 116.566659 
L 503.020663 106.214733 
L 503.421337 113.061164 
L 503.822011 116.792501 
L 504.222684 95.28637 
L 504.623358 83.306631 
L 505.825379 81.916915 
L 506.226053 86.197155 
L 506.626727 93.167226 
L 507.0274 91.47142 
L 507.428074 89.251973 
L 508.630095 94.157644 
L 509.030769 119.791613 
L 510.23279 162.651446 
L 511.434811 167.978387 
L 511.835485 165.523452 
L 512.236159 188.290926 
L 512.636833 190.204061 
L 514.239528 190.232519 
L 514.640201 190.545937 
L 515.040875 189.591146 
L 515.441549 192.820456 
L 515.842222 193.131122 
L 517.044244 196.760155 
L 517.444917 195.776379 
L 517.845591 191.656976 
L 518.246265 171.612978 
L 518.646939 172.385647 
L 519.84896 153.657474 
L 520.249633 149.901223 
L 520.650307 149.545302 
L 521.050981 153.482293 
L 521.451655 160.417754 
L 522.653676 174.679132 
L 523.05435 163.897799 
L 523.455023 161.998084 
L 523.855697 160.730078 
L 524.256371 149.37202 
L 525.458392 144.829944 
L 525.859066 134.264938 
L 526.259739 154.831525 
L 526.660413 144.646532 
L 527.061087 158.060864 
L 528.263108 156.544469 
L 528.663782 169.679842 
L 529.064455 150.137914 
L 529.465129 139.729755 
L 529.865803 114.654154 
L 531.468498 121.608286 
L 531.869172 114.34392 
L 532.269845 98.836769 
L 532.670519 121.750469 
L 533.87254 115.748756 
L 534.273214 123.445978 
L 534.673888 109.203587 
L 535.475235 129.052029 
L 536.677256 145.426865 
L 537.07793 135.89392 
L 537.478604 137.405229 
L 537.879278 157.526316 
L 538.279951 167.856952 
L 539.882646 156.273538 
L 540.28332 154.993514 
L 540.683994 177.148979 
L 541.084667 153.479806 
L 542.286689 157.130176 
L 542.687362 167.036009 
L 543.088036 168.284979 
L 543.48871 166.642405 
L 543.889383 163.053653 
L 545.492078 142.019404 
L 545.892752 142.375619 
L 546.293426 141.803777 
L 546.6941 128.589274 
L 547.896121 143.408798 
L 548.296794 157.152981 
L 548.697468 152.774653 
L 549.098142 146.753869 
L 549.498816 157.521773 
L 550.700837 146.336145 
L 551.101511 114.102586 
L 551.502184 93.986852 
L 551.902858 82.166926 
L 552.303532 84.612245 
L 553.505553 96.285771 
L 553.906227 109.141086 
L 554.3069 102.96887 
L 554.707574 100.558268 
L 555.108248 84.057735 
L 556.310269 80.224523 
L 556.710943 80.202403 
L 557.111617 79.05968 
L 557.51229 79.541539 
L 557.912964 87.407868 
L 559.114985 120.49643 
L 559.515659 143.304643 
L 560.71768 109.276855 
L 561.919701 97.287422 
L 562.721049 126.885297 
L 563.121722 123.188864 
L 563.522396 140.552924 
L 565.525765 158.986731 
L 565.926439 145.913885 
L 566.327112 150.599633 
L 567.529133 148.122279 
L 567.929807 167.487586 
L 568.330481 169.323627 
L 568.731155 191.26698 
L 569.131828 199.101212 
L 570.734523 199.218775 
L 571.135197 191.519262 
L 571.535871 194.896797 
L 571.936544 180.991793 
L 573.138566 171.762303 
L 573.539239 185.290346 
L 573.939913 186.134194 
L 574.340587 202.378537 
L 574.741261 185.832916 
L 575.943282 176.742726 
L 576.343955 175.421684 
L 577.145303 162.445229 
L 577.545977 158.491039 
L 578.747998 160.257356 
L 579.148672 162.254869 
L 579.549345 160.86759 
L 579.950019 180.286745 
L 580.350693 185.117538 
L 581.552714 150.190514 
L 581.953388 131.464643 
L 582.354061 125.370703 
L 582.754735 134.202429 
L 583.155409 160.409726 
L 584.35743 163.361433 
L 584.758104 166.842164 
L 585.158778 157.395347 
L 585.559451 144.328636 
L 585.960125 151.988871 
L 587.162146 141.797017 
L 587.56282 146.793085 
L 587.963494 135.848875 
L 588.364167 131.301271 
L 588.764841 133.351552 
L 589.966862 145.477587 
L 590.367536 131.36094 
L 590.76821 136.857677 
L 591.569557 86.679427 
L 592.771578 94.088353 
L 593.172252 91.107956 
L 593.572926 106.231959 
L 593.9736 81.088309 
L 594.374273 80.266139 
L 595.576294 79.556249 
L 595.976968 77.365692 
L 596.377642 102.683742 
L 596.778316 85.733675 
L 597.178989 82.588738 
L 598.381011 88.107595 
L 598.781684 77.409725 
L 599.182358 95.129457 
L 599.583032 105.721097 
L 599.983706 104.440676 
L 601.185727 106.633797 
L 601.5864 93.69952 
L 601.987074 91.44847 
L 602.788422 102.524657 
L 603.990443 111.714055 
L 604.391117 118.124728 
L 604.79179 91.619297 
L 605.593138 122.582549 
L 606.795159 126.966292 
L 607.195833 143.432473 
L 607.596506 128.509999 
L 607.99718 108.715705 
L 608.397854 106.723885 
L 609.599875 99.040038 
L 610.000549 100.925388 
L 610.401222 114.267338 
L 610.801896 122.414834 
L 611.20257 121.413786 
L 612.404591 123.480798 
L 612.805265 146.836435 
L 613.205939 142.950881 
L 613.606612 154.610722 
L 614.007286 153.089576 
L 615.609981 158.132402 
L 616.010655 161.330588 
L 616.411328 170.592103 
L 616.812002 168.784131 
L 618.414697 183.314325 
L 618.815371 185.818511 
L 619.216045 186.448629 
L 619.616718 166.278654 
L 620.818739 146.760554 
L 621.219413 137.68754 
L 621.620087 133.708277 
L 622.020761 132.254604 
L 622.421434 105.377691 
L 624.024129 93.685971 
L 624.424803 75.091794 
L 624.825477 88.472391 
L 625.22615 84.266546 
L 626.428172 75.695752 
L 626.828845 69.314886 
L 627.229519 71.151485 
L 627.630193 58.204754 
L 628.030867 58.310259 
L 629.232888 87.489888 
L 629.633561 86.843273 
L 630.034235 79.184331 
L 630.434909 77.939344 
L 630.835583 89.389639 
L 632.037604 94.640891 
L 632.838951 72.944114 
L 633.239625 77.553854 
L 633.640299 106.232815 
L 634.84232 102.264649 
L 635.242994 94.019206 
L 635.643667 100.313041 
L 636.044341 115.04668 
L 636.445015 107.215973 
L 638.04771 120.250911 
L 638.448383 134.805481 
L 638.849057 112.934405 
L 639.249731 110.117095 
L 640.451752 108.317222 
L 640.852426 121.080085 
L 641.2531 127.323323 
L 641.653773 122.814339 
L 642.054447 105.303992 
L 643.256468 113.8117 
L 643.657142 128.661927 
L 644.057816 117.061331 
L 644.458489 116.850621 
L 644.859163 115.033979 
L 646.061184 104.725585 
L 646.461858 97.039835 
L 646.862532 123.804279 
L 647.263206 102.464056 
L 647.663879 102.751986 
L 648.8659 96.094725 
L 649.266574 83.605599 
L 649.667248 86.187945 
L 650.067922 85.061389 
L 650.468595 86.652787 
L 651.670617 86.362388 
L 652.07129 96.833368 
L 652.471964 74.182778 
L 652.872638 59.032619 
L 653.273311 57.43289 
L 654.475333 61.482475 
L 654.876006 77.288478 
L 655.27668 106.157902 
L 655.677354 106.563655 
L 657.280049 101.578567 
L 658.081396 131.954657 
L 658.48207 146.221198 
L 658.882744 132.814874 
L 660.084765 123.258481 
L 660.485439 110.338902 
L 660.886112 114.817419 
L 661.286786 137.205385 
L 661.68746 144.518123 
L 662.889481 149.752424 
L 663.290155 154.002449 
L 663.690828 131.104387 
L 664.091502 129.188058 
L 664.492176 129.502262 
L 665.694197 106.061107 
L 666.094871 106.557015 
L 666.896218 120.851466 
L 667.296892 110.997569 
L 668.498913 112.988886 
L 668.899587 124.367471 
L 669.300261 108.4816 
L 669.700934 113.552022 
L 670.101608 115.976884 
L 671.303629 97.23538 
L 671.704303 101.287277 
L 672.50565 88.439483 
L 672.906324 103.64357 
L 674.108345 93.214428 
L 674.509019 94.673296 
L 674.909693 93.029971 
L 675.310367 65.621782 
L 675.71104 64.497658 
L 677.313735 55.538587 
L 677.714409 79.732365 
L 678.115083 72.329926 
L 678.515756 74.076705 
L 679.717778 76.800934 
L 680.118451 81.742736 
L 680.519125 93.667485 
L 680.919799 95.210377 
L 681.320472 91.195143 
L 682.522494 88.324715 
L 682.923167 80.483909 
L 683.323841 75.099714 
L 683.724515 100.373541 
L 684.125189 104.968187 
L 685.727884 105.227951 
L 686.128557 89.285101 
L 686.529231 100.343124 
L 688.131926 120.168658 
L 688.5326 107.011461 
L 688.933273 102.758854 
L 689.333947 112.370626 
L 689.734621 104.742773 
L 690.936642 108.307884 
L 691.737989 120.313681 
L 692.138663 142.412842 
L 692.539337 134.075571 
L 693.741358 137.926074 
L 694.142032 149.148968 
L 694.542706 123.009636 
L 694.943379 106.022963 
L 695.344053 102.439475 
L 696.546074 75.756242 
L 696.946748 76.655791 
L 697.347422 71.169087 
L 697.748095 89.710568 
L 698.148769 113.706795 
L 699.35079 112.280348 
L 699.751464 104.163142 
L 700.152138 104.303228 
L 700.552811 104.015532 
L 700.953485 95.833829 
L 702.155506 97.224129 
L 702.55618 108.738788 
L 702.956854 147.697755 
L 703.357528 141.154311 
L 703.758201 150.086763 
L 704.960223 153.653508 
L 705.360896 156.264968 
L 705.76157 160.202365 
L 706.162244 152.378635 
L 706.562917 167.010922 
L 707.764939 147.571641 
L 708.165612 144.349873 
L 708.566286 151.465336 
L 708.96696 160.900487 
L 709.367634 161.043404 
L 710.569655 129.429445 
L 711.371002 115.853459 
L 711.771676 116.484052 
L 712.17235 128.652055 
L 713.374371 118.896668 
L 713.775045 93.241521 
L 714.175718 90.022784 
L 714.576392 74.862032 
L 714.977066 94.972719 
L 716.579761 95.707173 
L 716.980434 106.07657 
L 717.781782 117.130225 
L 718.983803 147.788838 
L 719.384477 139.894378 
L 719.78515 149.062655 
L 720.185824 148.479789 
L 720.586498 152.817664 
L 721.788519 162.245216 
L 722.189193 197.43224 
L 722.589867 211.332191 
L 722.99054 215.46 
L 723.391214 202.909549 
L 724.593235 193.449452 
L 724.993909 188.527617 
L 725.795256 160.420839 
L 726.19593 151.31553 
L 727.397951 133.299643 
L 727.798625 151.121904 
L 728.199299 146.475304 
L 728.599973 124.452256 
L 729.000646 115.961272 
L 730.202667 116.418524 
L 731.004015 74.443599 
L 731.404689 76.427112 
L 731.805362 101.287456 
L 733.007384 93.426087 
L 733.408057 120.499017 
L 733.808731 139.035255 
L 734.209405 143.033607 
L 734.610078 159.387967 
L 735.8121 136.60604 
L 736.212773 135.298632 
L 737.014121 169.385582 
L 737.414795 165.591451 
L 738.616816 164.341935 
L 739.017489 175.794245 
L 739.418163 162.594185 
L 739.818837 145.44101 
L 741.421532 119.860354 
L 741.822206 103.270319 
L 742.222879 99.098215 
L 742.623553 89.904162 
L 743.024227 90.805488 
L 744.226248 92.682262 
L 744.626922 64.644818 
L 745.027595 54.106342 
L 745.428269 53.327435 
L 745.828943 57.572646 
L 747.030964 49.458283 
L 747.431638 59.989678 
L 747.832312 83.10856 
L 748.633659 104.712199 
L 749.83568 106.78879 
L 750.236354 113.638419 
L 750.637028 116.162288 
L 751.438375 149.377875 
L 752.640396 162.814134 
L 753.04107 162.507156 
L 753.441744 164.456687 
L 753.842417 158.460617 
L 754.243091 147.575058 
L 755.445112 165.106591 
L 756.647134 126.971208 
L 757.047807 126.317805 
L 758.249828 112.722861 
L 758.650502 119.790716 
L 759.051176 120.970564 
L 759.45185 114.773701 
L 759.852523 103.600313 
L 761.455218 107.571356 
L 761.855892 93.237139 
L 762.657239 107.460634 
L 764.259934 114.403919 
L 764.660608 133.490281 
L 765.061282 133.515167 
L 765.461956 124.076042 
L 766.663977 103.416634 
L 767.064651 105.296852 
L 767.465324 92.989652 
L 767.865998 71.466204 
L 768.266672 76.547974 
L 769.869367 68.202747 
L 770.27004 74.219298 
L 770.670714 71.200106 
L 771.071388 65.314699 
L 772.273409 64.962643 
L 772.674083 48.076605 
L 773.074756 39.06 
L 773.47543 39.131627 
L 773.876104 47.674498 
L 775.478799 50.544322 
L 775.879473 71.614618 
L 776.280146 68.509265 
L 776.68082 60.315611 
L 777.882841 57.95154 
L 778.283515 65.45913 
L 778.684189 64.049598 
L 779.084862 72.934567 
L 779.485536 68.121222 
L 780.687557 68.311226 
L 781.088231 72.357709 
L 781.488905 69.274967 
L 781.889578 74.60895 
L 782.290252 78.191929 
L 784.293621 105.780994 
L 784.694295 83.873869 
L 785.094968 88.891196 
L 786.296989 95.111014 
L 786.697663 91.22976 
L 787.098337 101.661958 
L 787.499011 95.411118 
L 787.899684 93.799444 
L 789.903053 84.229517 
L 790.303727 72.613824 
L 790.704401 93.762139 
L 791.906422 88.506939 
L 792.307095 73.327467 
L 792.707769 92.894731 
L 793.108443 105.511597 
L 793.509117 106.507795 
L 794.711138 103.714953 
L 795.111812 97.792668 
L 795.512485 98.718102 
L 795.913159 103.157385 
L 796.313833 103.39215 
L 797.515854 103.433008 
L 798.317201 140.683905 
L 798.717875 120.700609 
L 800.32057 111.918966 
L 800.721244 146.770388 
L 801.121917 144.002179 
L 801.522591 144.610099 
L 801.923265 131.493715 
L 803.125286 139.373297 
L 803.52596 152.811553 
L 803.926634 148.637787 
L 804.327307 135.957813 
L 804.727981 159.364224 
L 805.930002 169.721833 
L 806.330676 154.695992 
L 806.73135 158.127091 
L 807.132023 155.425446 
L 807.532697 175.041045 
L 808.734718 160.277556 
L 809.135392 149.585464 
L 809.536066 148.899944 
L 809.93674 146.32748 
L 810.337413 131.00322 
L 811.539434 126.561633 
L 811.940108 133.969443 
L 812.340782 151.084103 
L 813.142129 125.721256 
L 814.344151 121.582356 
L 814.744824 116.827591 
L 815.145498 118.52185 
L 815.546172 96.031549 
L 815.946845 100.323772 
L 817.148867 105.723035 
L 817.54954 90.828729 
L 817.950214 90.175985 
L 818.350888 104.273871 
L 818.751562 113.828266 
L 819.953583 100.634193 
L 820.354256 80.085237 
L 820.75493 89.404466 
L 821.155604 77.13322 
L 821.556278 78.274118 
L 823.158973 60.250972 
L 823.559646 58.748892 
L 823.96032 71.681782 
L 824.360994 76.847043 
L 825.563015 71.566979 
L 825.963689 71.112514 
L 826.364362 68.719932 
L 826.765036 73.005578 
L 827.16571 66.436984 
L 828.367731 67.564658 
L 828.768405 71.496992 
L 829.169078 66.338896 
L 829.569752 69.933943 
L 829.970426 70.296325 
L 831.172447 82.659464 
L 831.573121 77.83777 
L 832.374468 79.749397 
L 833.977163 125.476833 
L 834.377837 113.680995 
L 834.778511 123.751725 
L 835.179184 125.998613 
L 835.579858 126.765714 
L 836.781879 127.05027 
L 837.182553 128.725796 
L 837.583227 126.138911 
L 838.384574 140.422132 
L 839.586595 140.193477 
L 839.987269 131.600133 
L 840.387943 133.789215 
L 840.788617 139.007504 
L 841.18929 126.938586 
L 842.391312 107.280165 
L 843.192659 151.836219 
L 843.593333 139.001057 
L 843.994006 144.417684 
L 845.196028 133.880338 
L 845.596701 132.56439 
L 845.997375 158.554915 
L 846.398049 157.889867 
L 846.798723 161.763915 
L 848.000744 172.105738 
L 848.401417 189.923698 
L 848.802091 149.698506 
L 849.202765 162.736695 
L 849.603439 163.915269 
L 850.80546 168.412412 
L 851.206134 152.804987 
L 851.606807 164.267814 
L 852.007481 150.274297 
L 852.408155 160.406602 
L 853.610176 151.668725 
L 854.01085 129.676948 
L 854.812197 119.023015 
L 855.212871 114.727096 
L 856.414892 95.415269 
L 856.815566 115.470961 
L 857.21624 96.550718 
L 857.616913 103.327385 
L 858.017587 80.24178 
L 859.219608 91.686941 
L 859.620282 74.800996 
L 860.020956 89.069197 
L 860.421629 109.263472 
L 860.822303 112.868662 
L 863.627019 171.265503 
L 864.82904 175.83628 
L 865.229714 168.503469 
L 865.630388 151.512282 
L 866.031062 140.303345 
L 866.431735 151.950083 
L 867.633756 151.037386 
L 868.03443 157.187572 
L 868.435104 156.493192 
L 868.835778 131.793122 
L 869.236451 139.507313 
L 870.438473 109.523062 
L 870.839146 94.769862 
L 871.23982 92.262715 
L 871.640494 74.66905 
L 872.041168 90.611853 
L 873.243189 93.30878 
L 873.643862 132.071046 
L 874.044536 133.395327 
L 874.845884 107.804803 
L 876.047905 97.457766 
L 876.448579 80.59921 
L 876.849252 88.14015 
L 877.249926 76.558442 
L 877.6506 76.945584 
L 878.852621 78.79005 
L 879.253295 109.894781 
L 879.653968 102.875307 
L 880.054642 91.657365 
L 880.455316 90.105835 
L 881.657337 66.336486 
L 882.058011 68.453861 
L 882.458684 89.245307 
L 882.859358 91.085436 
L 883.260032 93.809056 
L 884.462053 108.281666 
L 884.862727 105.632292 
L 885.263401 118.192328 
L 885.664074 137.708299 
L 886.064748 139.4617 
L 887.266769 118.496066 
L 887.667443 119.200757 
L 888.068117 108.460991 
L 888.46879 104.12021 
L 888.869464 120.868464 
L 890.071485 127.798833 
L 890.472159 107.627875 
L 890.872833 116.312333 
L 891.273506 117.811806 
L 891.67418 128.715773 
L 892.876201 135.112788 
L 893.677549 99.700359 
L 894.078223 102.959838 
L 894.478896 118.482241 
L 895.680918 141.157878 
L 896.482265 168.114806 
L 897.283612 156.099675 
L 898.485634 150.046372 
L 898.886307 154.603386 
L 899.286981 135.300393 
L 899.687655 136.781567 
L 900.088329 131.118644 
L 901.29035 135.883489 
L 901.691023 166.367912 
L 902.091697 149.57462 
L 902.492371 156.020944 
L 902.893045 152.737017 
L 904.095066 144.160932 
L 904.49574 151.12442 
L 904.896413 150.891028 
L 905.297087 154.916044 
L 905.697761 142.930755 
L 906.899782 133.836088 
L 907.300456 145.949157 
L 908.101803 146.470022 
L 908.502477 147.170139 
L 909.704498 136.334661 
L 910.105172 134.766176 
L 910.906519 135.45188 
L 911.307193 113.169891 
L 912.509214 93.43046 
L 912.909888 114.724919 
L 913.310562 110.53693 
L 914.111909 117.571205 
L 915.31393 127.105624 
L 915.714604 138.864366 
L 916.115278 140.023022 
L 916.515951 146.504459 
L 916.916625 136.756006 
L 918.51932 124.953642 
L 919.320668 108.453476 
L 920.923362 168.226077 
L 921.324036 158.486698 
L 921.72471 154.519386 
L 922.125384 152.945377 
L 922.526057 153.34379 
L 923.728079 154.097922 
L 924.128752 149.451839 
L 924.529426 146.918718 
L 924.9301 138.533903 
L 925.330773 142.652648 
L 926.532795 141.78353 
L 926.933468 152.248287 
L 927.334142 154.302059 
L 927.734816 142.449858 
L 928.13549 93.274484 
L 929.738184 107.690959 
L 930.138858 90.391916 
L 930.539532 90.501382 
L 930.940206 94.617587 
L 932.142227 97.254224 
L 932.542901 112.662735 
L 932.943574 115.81592 
L 933.344248 150.868036 
L 933.744922 142.278678 
L 934.946943 166.62346 
L 935.74829 156.337254 
L 936.148964 173.311963 
L 936.549638 176.758861 
L 937.751659 182.922444 
L 938.152333 178.714371 
L 938.553007 166.262028 
L 938.95368 160.78213 
L 939.354354 144.988093 
L 940.556375 143.01506 
L 940.957049 156.306814 
L 941.357723 136.988459 
L 941.758396 144.356027 
L 942.15907 123.973456 
L 943.361091 120.359572 
L 943.761765 124.762023 
L 944.162439 125.245556 
L 944.563112 135.19064 
L 944.963786 125.809329 
L 946.165807 133.32249 
L 946.566481 148.301297 
L 946.967155 147.032622 
L 947.367829 184.933663 
L 947.768502 190.766059 
L 948.970523 174.325149 
L 949.371197 183.312898 
L 949.771871 139.547426 
L 950.172545 148.041682 
L 950.573218 148.670333 
L 951.77524 148.016374 
L 952.175913 135.075772 
L 952.576587 143.271953 
L 952.977261 144.967689 
L 954.579956 149.166993 
L 954.980629 148.809472 
L 955.381303 143.082423 
L 956.182651 106.459417 
L 957.384672 114.888245 
L 957.785346 111.972045 
L 958.186019 144.649259 
L 958.586693 122.330949 
L 958.987367 123.396831 
L 960.189388 124.648537 
L 960.590062 128.959464 
L 960.990735 96.126861 
L 961.391409 82.686372 
L 961.792083 62.037345 
L 962.994104 58.112539 
L 963.394778 55.910574 
L 963.795451 54.869113 
L 964.196125 60.63187 
L 964.596799 47.646635 
L 965.79882 47.702739 
L 966.199494 53.928212 
L 966.600168 69.959486 
L 967.000841 72.226441 
L 967.401515 76.635589 
L 969.00421 70.1645 
L 969.404884 77.676862 
L 969.805557 72.675068 
L 970.206231 86.082993 
L 971.408252 92.199767 
L 971.808926 97.831801 
L 972.2096 108.832151 
L 972.610273 114.820644 
L 973.010947 111.691733 
L 974.212968 109.817881 
L 975.014316 95.514837 
L 975.41499 93.208564 
L 975.815663 99.58917 
L 977.017684 102.799394 
L 977.418358 102.296364 
L 977.819032 109.835638 
L 978.620379 98.124847 
L 979.822401 103.497719 
L 980.223074 103.830004 
L 981.024422 78.560614 
L 981.425096 76.978305 
L 982.627117 78.025756 
L 983.02779 102.861992 
L 983.428464 90.605061 
L 983.829138 90.73968 
L 985.431833 82.302459 
L 985.832507 83.812319 
L 986.23318 76.955507 
L 986.633854 77.13904 
L 987.034528 68.315434 
L 988.236549 72.841269 
L 988.637223 69.646254 
L 989.037896 76.562162 
L 989.43857 75.282776 
L 989.839244 82.407902 
L 991.041265 87.945571 
L 991.441939 86.292406 
L 991.842612 86.654686 
L 992.243286 85.113642 
L 992.64396 80.822201 
L 993.845981 78.518345 
L 994.246655 89.493611 
L 994.647329 84.984213 
L 995.048002 92.650013 
L 995.448676 105.523596 
L 996.650697 106.241748 
L 997.051371 113.592585 
L 997.452045 114.64651 
L 997.852718 109.759015 
L 998.253392 102.474878 
L 999.455413 88.309046 
L 999.856087 92.999038 
L 1000.256761 106.253881 
L 1000.657435 104.201413 
L 1001.058108 119.431622 
L 1002.260129 109.866895 
L 1002.660803 143.943852 
L 1003.061477 140.559843 
L 1003.462151 127.659982 
L 1003.862824 141.052774 
L 1005.064846 125.76329 
L 1005.465519 122.670333 
L 1005.866193 128.790194 
L 1006.66754 160.721748 
L 1008.270235 173.473937 
L 1008.670909 170.595133 
L 1008.670909 170.595133 
" clip-path="url(#pe3ce6fc61f)" style="fill: none; stroke: #1f77b4; stroke-width: 1.5; stroke-linecap: square"/>
   </g>
   <g id="patch_3">
    <path d="M 145.8 224.28 
L 145.8 30.24 
" style="fill: none; stroke: #000000; stroke-width: 0.8; stroke-linejoin: miter; stroke-linecap: square"/>
   </g>
   <g id="patch_4">
    <path d="M 145.8 224.28 
L 1049.76 224.28 
" style="fill: none; stroke: #000000; stroke-width: 0.8; stroke-linejoin: miter; stroke-linecap: square"/>
   </g>
  </g>
 </g>
 <defs>
  <clipPath id="pe3ce6fc61f">
   <rect x="145.8" y="30.24" width="903.96" height="194.04"/>
  </clipPath>
 </defs>
</svg>
