<?xml version="1.0" encoding="utf-8" standalone="no"?>
<!DOCTYPE svg PUBLIC "-//W3C//DTD SVG 1.1//EN"
  "http://www.w3.org/Graphics/SVG/1.1/DTD/svg11.dtd">
<svg xmlns:xlink="http://www.w3.org/1999/xlink" width="756pt" height="252pt" viewBox="0 0 756 252" xmlns="http://www.w3.org/2000/svg" version="1.1">
 <metadata>
  <rdf:RDF xmlns:dc="http://purl.org/dc/elements/1.1/" xmlns:cc="http://creativecommons.org/ns#" xmlns:rdf="http://www.w3.org/1999/02/22-rdf-syntax-ns#">
   <cc:Work>
    <dc:type rdf:resource="http://purl.org/dc/dcmitype/StillImage"/>
    <dc:date>2025-09-05T15:24:35.633533</dc:date>
    <dc:format>image/svg+xml</dc:format>
    <dc:creator>
     <cc:Agent>
      <dc:title>Matplotlib v3.10.5, https://matplotlib.org/</dc:title>
     </cc:Agent>
    </dc:creator>
   </cc:Work>
  </rdf:RDF>
 </metadata>
 <defs>
  <style type="text/css">*{stroke-linejoin: round; stroke-linecap: butt}</style>
 </defs>
 <g id="figure_1">
  <g id="patch_1">
   <path d="M 0 252 
L 756 252 
L 756 0 
L 0 0 
z
" style="fill: #ffffff"/>
  </g>
  <g id="axes_1">
   <g id="patch_2">
    <path d="M 94.5 224.28 
L 680.4 224.28 
L 680.4 30.24 
L 94.5 30.24 
z
" style="fill: #ffffff"/>
   </g>
   <g id="matplotlib.axis_1">
    <g id="xtick_1">
     <g id="line2d_1">
      <defs>
       <path id="m8d2e3b95ef" d="M 0 0 
L 0 3.5 
" style="stroke: #000000; stroke-width: 0.8"/>
      </defs>
      <g>
       <use xlink:href="#m8d2e3b95ef" x="124.021346" y="224.28" style="stroke: #000000; stroke-width: 0.8"/>
      </g>
     </g>
     <g id="text_1">
      <!-- 2024-03 -->
      <g transform="translate(103.12994 238.878438) scale(0.1 -0.1)">
       <defs>
        <path id="DejaVuSans-32" d="M 1228 531 
L 3431 531 
L 3431 0 
L 469 0 
L 469 531 
Q 828 903 1448 1529 
Q 2069 2156 2228 2338 
Q 2531 2678 2651 2914 
Q 2772 3150 2772 3378 
Q 2772 3750 2511 3984 
Q 2250 4219 1831 4219 
Q 1534 4219 1204 4116 
Q 875 4013 500 3803 
L 500 4441 
Q 881 4594 1212 4672 
Q 1544 4750 1819 4750 
Q 2544 4750 2975 4387 
Q 3406 4025 3406 3419 
Q 3406 3131 3298 2873 
Q 3191 2616 2906 2266 
Q 2828 2175 2409 1742 
Q 1991 1309 1228 531 
z
" transform="scale(0.015625)"/>
        <path id="DejaVuSans-30" d="M 2034 4250 
Q 1547 4250 1301 3770 
Q 1056 3291 1056 2328 
Q 1056 1369 1301 889 
Q 1547 409 2034 409 
Q 2525 409 2770 889 
Q 3016 1369 3016 2328 
Q 3016 3291 2770 3770 
Q 2525 4250 2034 4250 
z
M 2034 4750 
Q 2819 4750 3233 4129 
Q 3647 3509 3647 2328 
Q 3647 1150 3233 529 
Q 2819 -91 2034 -91 
Q 1250 -91 836 529 
Q 422 1150 422 2328 
Q 422 3509 836 4129 
Q 1250 4750 2034 4750 
z
" transform="scale(0.015625)"/>
        <path id="DejaVuSans-34" d="M 2419 4116 
L 825 1625 
L 2419 1625 
L 2419 4116 
z
M 2253 4666 
L 3047 4666 
L 3047 1625 
L 3713 1625 
L 3713 1100 
L 3047 1100 
L 3047 0 
L 2419 0 
L 2419 1100 
L 313 1100 
L 313 1709 
L 2253 4666 
z
" transform="scale(0.015625)"/>
        <path id="DejaVuSans-2d" d="M 313 2009 
L 1997 2009 
L 1997 1497 
L 313 1497 
L 313 2009 
z
" transform="scale(0.015625)"/>
        <path id="DejaVuSans-33" d="M 2597 2516 
Q 3050 2419 3304 2112 
Q 3559 1806 3559 1356 
Q 3559 666 3084 287 
Q 2609 -91 1734 -91 
Q 1441 -91 1130 -33 
Q 819 25 488 141 
L 488 750 
Q 750 597 1062 519 
Q 1375 441 1716 441 
Q 2309 441 2620 675 
Q 2931 909 2931 1356 
Q 2931 1769 2642 2001 
Q 2353 2234 1838 2234 
L 1294 2234 
L 1294 2753 
L 1863 2753 
Q 2328 2753 2575 2939 
Q 2822 3125 2822 3475 
Q 2822 3834 2567 4026 
Q 2313 4219 1838 4219 
Q 1578 4219 1281 4162 
Q 984 4106 628 3988 
L 628 4550 
Q 988 4650 1302 4700 
Q 1616 4750 1894 4750 
Q 2613 4750 3031 4423 
Q 3450 4097 3450 3541 
Q 3450 3153 3228 2886 
Q 3006 2619 2597 2516 
z
" transform="scale(0.015625)"/>
       </defs>
       <use xlink:href="#DejaVuSans-32"/>
       <use xlink:href="#DejaVuSans-30" transform="translate(63.623047 0)"/>
       <use xlink:href="#DejaVuSans-32" transform="translate(127.246094 0)"/>
       <use xlink:href="#DejaVuSans-34" transform="translate(190.869141 0)"/>
       <use xlink:href="#DejaVuSans-2d" transform="translate(254.492188 0)"/>
       <use xlink:href="#DejaVuSans-30" transform="translate(290.576172 0)"/>
       <use xlink:href="#DejaVuSans-33" transform="translate(354.199219 0)"/>
      </g>
     </g>
    </g>
    <g id="xtick_2">
     <g id="line2d_2">
      <g>
       <use xlink:href="#m8d2e3b95ef" x="182.775086" y="224.28" style="stroke: #000000; stroke-width: 0.8"/>
      </g>
     </g>
     <g id="text_2">
      <!-- 2024-05 -->
      <g transform="translate(161.88368 238.878438) scale(0.1 -0.1)">
       <defs>
        <path id="DejaVuSans-35" d="M 691 4666 
L 3169 4666 
L 3169 4134 
L 1269 4134 
L 1269 2991 
Q 1406 3038 1543 3061 
Q 1681 3084 1819 3084 
Q 2600 3084 3056 2656 
Q 3513 2228 3513 1497 
Q 3513 744 3044 326 
Q 2575 -91 1722 -91 
Q 1428 -91 1123 -41 
Q 819 9 494 109 
L 494 744 
Q 775 591 1075 516 
Q 1375 441 1709 441 
Q 2250 441 2565 725 
Q 2881 1009 2881 1497 
Q 2881 1984 2565 2268 
Q 2250 2553 1709 2553 
Q 1456 2553 1204 2497 
Q 953 2441 691 2322 
L 691 4666 
z
" transform="scale(0.015625)"/>
       </defs>
       <use xlink:href="#DejaVuSans-32"/>
       <use xlink:href="#DejaVuSans-30" transform="translate(63.623047 0)"/>
       <use xlink:href="#DejaVuSans-32" transform="translate(127.246094 0)"/>
       <use xlink:href="#DejaVuSans-34" transform="translate(190.869141 0)"/>
       <use xlink:href="#DejaVuSans-2d" transform="translate(254.492188 0)"/>
       <use xlink:href="#DejaVuSans-30" transform="translate(290.576172 0)"/>
       <use xlink:href="#DejaVuSans-35" transform="translate(354.199219 0)"/>
      </g>
     </g>
    </g>
    <g id="xtick_3">
     <g id="line2d_3">
      <g>
       <use xlink:href="#m8d2e3b95ef" x="241.528826" y="224.28" style="stroke: #000000; stroke-width: 0.8"/>
      </g>
     </g>
     <g id="text_3">
      <!-- 2024-07 -->
      <g transform="translate(220.63742 238.878438) scale(0.1 -0.1)">
       <defs>
        <path id="DejaVuSans-37" d="M 525 4666 
L 3525 4666 
L 3525 4397 
L 1831 0 
L 1172 0 
L 2766 4134 
L 525 4134 
L 525 4666 
z
" transform="scale(0.015625)"/>
       </defs>
       <use xlink:href="#DejaVuSans-32"/>
       <use xlink:href="#DejaVuSans-30" transform="translate(63.623047 0)"/>
       <use xlink:href="#DejaVuSans-32" transform="translate(127.246094 0)"/>
       <use xlink:href="#DejaVuSans-34" transform="translate(190.869141 0)"/>
       <use xlink:href="#DejaVuSans-2d" transform="translate(254.492188 0)"/>
       <use xlink:href="#DejaVuSans-30" transform="translate(290.576172 0)"/>
       <use xlink:href="#DejaVuSans-37" transform="translate(354.199219 0)"/>
      </g>
     </g>
    </g>
    <g id="xtick_4">
     <g id="line2d_4">
      <g>
       <use xlink:href="#m8d2e3b95ef" x="301.245742" y="224.28" style="stroke: #000000; stroke-width: 0.8"/>
      </g>
     </g>
     <g id="text_4">
      <!-- 2024-09 -->
      <g transform="translate(280.354336 238.878438) scale(0.1 -0.1)">
       <defs>
        <path id="DejaVuSans-39" d="M 703 97 
L 703 672 
Q 941 559 1184 500 
Q 1428 441 1663 441 
Q 2288 441 2617 861 
Q 2947 1281 2994 2138 
Q 2813 1869 2534 1725 
Q 2256 1581 1919 1581 
Q 1219 1581 811 2004 
Q 403 2428 403 3163 
Q 403 3881 828 4315 
Q 1253 4750 1959 4750 
Q 2769 4750 3195 4129 
Q 3622 3509 3622 2328 
Q 3622 1225 3098 567 
Q 2575 -91 1691 -91 
Q 1453 -91 1209 -44 
Q 966 3 703 97 
z
M 1959 2075 
Q 2384 2075 2632 2365 
Q 2881 2656 2881 3163 
Q 2881 3666 2632 3958 
Q 2384 4250 1959 4250 
Q 1534 4250 1286 3958 
Q 1038 3666 1038 3163 
Q 1038 2656 1286 2365 
Q 1534 2075 1959 2075 
z
" transform="scale(0.015625)"/>
       </defs>
       <use xlink:href="#DejaVuSans-32"/>
       <use xlink:href="#DejaVuSans-30" transform="translate(63.623047 0)"/>
       <use xlink:href="#DejaVuSans-32" transform="translate(127.246094 0)"/>
       <use xlink:href="#DejaVuSans-34" transform="translate(190.869141 0)"/>
       <use xlink:href="#DejaVuSans-2d" transform="translate(254.492188 0)"/>
       <use xlink:href="#DejaVuSans-30" transform="translate(290.576172 0)"/>
       <use xlink:href="#DejaVuSans-39" transform="translate(354.199219 0)"/>
      </g>
     </g>
    </g>
    <g id="xtick_5">
     <g id="line2d_5">
      <g>
       <use xlink:href="#m8d2e3b95ef" x="359.999482" y="224.28" style="stroke: #000000; stroke-width: 0.8"/>
      </g>
     </g>
     <g id="text_5">
      <!-- 2024-11 -->
      <g transform="translate(339.108076 238.878438) scale(0.1 -0.1)">
       <defs>
        <path id="DejaVuSans-31" d="M 794 531 
L 1825 531 
L 1825 4091 
L 703 3866 
L 703 4441 
L 1819 4666 
L 2450 4666 
L 2450 531 
L 3481 531 
L 3481 0 
L 794 0 
L 794 531 
z
" transform="scale(0.015625)"/>
       </defs>
       <use xlink:href="#DejaVuSans-32"/>
       <use xlink:href="#DejaVuSans-30" transform="translate(63.623047 0)"/>
       <use xlink:href="#DejaVuSans-32" transform="translate(127.246094 0)"/>
       <use xlink:href="#DejaVuSans-34" transform="translate(190.869141 0)"/>
       <use xlink:href="#DejaVuSans-2d" transform="translate(254.492188 0)"/>
       <use xlink:href="#DejaVuSans-31" transform="translate(290.576172 0)"/>
       <use xlink:href="#DejaVuSans-31" transform="translate(354.199219 0)"/>
      </g>
     </g>
    </g>
    <g id="xtick_6">
     <g id="line2d_6">
      <g>
       <use xlink:href="#m8d2e3b95ef" x="418.753222" y="224.28" style="stroke: #000000; stroke-width: 0.8"/>
      </g>
     </g>
     <g id="text_6">
      <!-- 2025-01 -->
      <g transform="translate(397.861816 238.878438) scale(0.1 -0.1)">
       <use xlink:href="#DejaVuSans-32"/>
       <use xlink:href="#DejaVuSans-30" transform="translate(63.623047 0)"/>
       <use xlink:href="#DejaVuSans-32" transform="translate(127.246094 0)"/>
       <use xlink:href="#DejaVuSans-35" transform="translate(190.869141 0)"/>
       <use xlink:href="#DejaVuSans-2d" transform="translate(254.492188 0)"/>
       <use xlink:href="#DejaVuSans-30" transform="translate(290.576172 0)"/>
       <use xlink:href="#DejaVuSans-31" transform="translate(354.199219 0)"/>
      </g>
     </g>
    </g>
    <g id="xtick_7">
     <g id="line2d_7">
      <g>
       <use xlink:href="#m8d2e3b95ef" x="475.58061" y="224.28" style="stroke: #000000; stroke-width: 0.8"/>
      </g>
     </g>
     <g id="text_7">
      <!-- 2025-03 -->
      <g transform="translate(454.689204 238.878438) scale(0.1 -0.1)">
       <use xlink:href="#DejaVuSans-32"/>
       <use xlink:href="#DejaVuSans-30" transform="translate(63.623047 0)"/>
       <use xlink:href="#DejaVuSans-32" transform="translate(127.246094 0)"/>
       <use xlink:href="#DejaVuSans-35" transform="translate(190.869141 0)"/>
       <use xlink:href="#DejaVuSans-2d" transform="translate(254.492188 0)"/>
       <use xlink:href="#DejaVuSans-30" transform="translate(290.576172 0)"/>
       <use xlink:href="#DejaVuSans-33" transform="translate(354.199219 0)"/>
      </g>
     </g>
    </g>
    <g id="xtick_8">
     <g id="line2d_8">
      <g>
       <use xlink:href="#m8d2e3b95ef" x="534.33435" y="224.28" style="stroke: #000000; stroke-width: 0.8"/>
      </g>
     </g>
     <g id="text_8">
      <!-- 2025-05 -->
      <g transform="translate(513.442944 238.878438) scale(0.1 -0.1)">
       <use xlink:href="#DejaVuSans-32"/>
       <use xlink:href="#DejaVuSans-30" transform="translate(63.623047 0)"/>
       <use xlink:href="#DejaVuSans-32" transform="translate(127.246094 0)"/>
       <use xlink:href="#DejaVuSans-35" transform="translate(190.869141 0)"/>
       <use xlink:href="#DejaVuSans-2d" transform="translate(254.492188 0)"/>
       <use xlink:href="#DejaVuSans-30" transform="translate(290.576172 0)"/>
       <use xlink:href="#DejaVuSans-35" transform="translate(354.199219 0)"/>
      </g>
     </g>
    </g>
    <g id="xtick_9">
     <g id="line2d_9">
      <g>
       <use xlink:href="#m8d2e3b95ef" x="593.08809" y="224.28" style="stroke: #000000; stroke-width: 0.8"/>
      </g>
     </g>
     <g id="text_9">
      <!-- 2025-07 -->
      <g transform="translate(572.196684 238.878438) scale(0.1 -0.1)">
       <use xlink:href="#DejaVuSans-32"/>
       <use xlink:href="#DejaVuSans-30" transform="translate(63.623047 0)"/>
       <use xlink:href="#DejaVuSans-32" transform="translate(127.246094 0)"/>
       <use xlink:href="#DejaVuSans-35" transform="translate(190.869141 0)"/>
       <use xlink:href="#DejaVuSans-2d" transform="translate(254.492188 0)"/>
       <use xlink:href="#DejaVuSans-30" transform="translate(290.576172 0)"/>
       <use xlink:href="#DejaVuSans-37" transform="translate(354.199219 0)"/>
      </g>
     </g>
    </g>
    <g id="xtick_10">
     <g id="line2d_10">
      <g>
       <use xlink:href="#m8d2e3b95ef" x="652.805006" y="224.28" style="stroke: #000000; stroke-width: 0.8"/>
      </g>
     </g>
     <g id="text_10">
      <!-- 2025-09 -->
      <g transform="translate(631.9136 238.878438) scale(0.1 -0.1)">
       <use xlink:href="#DejaVuSans-32"/>
       <use xlink:href="#DejaVuSans-30" transform="translate(63.623047 0)"/>
       <use xlink:href="#DejaVuSans-32" transform="translate(127.246094 0)"/>
       <use xlink:href="#DejaVuSans-35" transform="translate(190.869141 0)"/>
       <use xlink:href="#DejaVuSans-2d" transform="translate(254.492188 0)"/>
       <use xlink:href="#DejaVuSans-30" transform="translate(290.576172 0)"/>
       <use xlink:href="#DejaVuSans-39" transform="translate(354.199219 0)"/>
      </g>
     </g>
    </g>
   </g>
   <g id="matplotlib.axis_2">
    <g id="ytick_1">
     <g id="line2d_11">
      <defs>
       <path id="m2ef6caae0a" d="M 0 0 
L -3.5 0 
" style="stroke: #000000; stroke-width: 0.8"/>
      </defs>
      <g>
       <use xlink:href="#m2ef6caae0a" x="94.5" y="217.680246" style="stroke: #000000; stroke-width: 0.8"/>
      </g>
     </g>
     <g id="text_11">
      <!-- 160 -->
      <g transform="translate(68.4125 221.479465) scale(0.1 -0.1)">
       <defs>
        <path id="DejaVuSans-36" d="M 2113 2584 
Q 1688 2584 1439 2293 
Q 1191 2003 1191 1497 
Q 1191 994 1439 701 
Q 1688 409 2113 409 
Q 2538 409 2786 701 
Q 3034 994 3034 1497 
Q 3034 2003 2786 2293 
Q 2538 2584 2113 2584 
z
M 3366 4563 
L 3366 3988 
Q 3128 4100 2886 4159 
Q 2644 4219 2406 4219 
Q 1781 4219 1451 3797 
Q 1122 3375 1075 2522 
Q 1259 2794 1537 2939 
Q 1816 3084 2150 3084 
Q 2853 3084 3261 2657 
Q 3669 2231 3669 1497 
Q 3669 778 3244 343 
Q 2819 -91 2113 -91 
Q 1303 -91 875 529 
Q 447 1150 447 2328 
Q 447 3434 972 4092 
Q 1497 4750 2381 4750 
Q 2619 4750 2861 4703 
Q 3103 4656 3366 4563 
z
" transform="scale(0.015625)"/>
       </defs>
       <use xlink:href="#DejaVuSans-31"/>
       <use xlink:href="#DejaVuSans-36" transform="translate(63.623047 0)"/>
       <use xlink:href="#DejaVuSans-30" transform="translate(127.246094 0)"/>
      </g>
     </g>
    </g>
    <g id="ytick_2">
     <g id="line2d_12">
      <g>
       <use xlink:href="#m2ef6caae0a" x="94.5" y="195.913216" style="stroke: #000000; stroke-width: 0.8"/>
      </g>
     </g>
     <g id="text_12">
      <!-- 170 -->
      <g transform="translate(68.4125 199.712435) scale(0.1 -0.1)">
       <use xlink:href="#DejaVuSans-31"/>
       <use xlink:href="#DejaVuSans-37" transform="translate(63.623047 0)"/>
       <use xlink:href="#DejaVuSans-30" transform="translate(127.246094 0)"/>
      </g>
     </g>
    </g>
    <g id="ytick_3">
     <g id="line2d_13">
      <g>
       <use xlink:href="#m2ef6caae0a" x="94.5" y="174.146186" style="stroke: #000000; stroke-width: 0.8"/>
      </g>
     </g>
     <g id="text_13">
      <!-- 180 -->
      <g transform="translate(68.4125 177.945404) scale(0.1 -0.1)">
       <defs>
        <path id="DejaVuSans-38" d="M 2034 2216 
Q 1584 2216 1326 1975 
Q 1069 1734 1069 1313 
Q 1069 891 1326 650 
Q 1584 409 2034 409 
Q 2484 409 2743 651 
Q 3003 894 3003 1313 
Q 3003 1734 2745 1975 
Q 2488 2216 2034 2216 
z
M 1403 2484 
Q 997 2584 770 2862 
Q 544 3141 544 3541 
Q 544 4100 942 4425 
Q 1341 4750 2034 4750 
Q 2731 4750 3128 4425 
Q 3525 4100 3525 3541 
Q 3525 3141 3298 2862 
Q 3072 2584 2669 2484 
Q 3125 2378 3379 2068 
Q 3634 1759 3634 1313 
Q 3634 634 3220 271 
Q 2806 -91 2034 -91 
Q 1263 -91 848 271 
Q 434 634 434 1313 
Q 434 1759 690 2068 
Q 947 2378 1403 2484 
z
M 1172 3481 
Q 1172 3119 1398 2916 
Q 1625 2713 2034 2713 
Q 2441 2713 2670 2916 
Q 2900 3119 2900 3481 
Q 2900 3844 2670 4047 
Q 2441 4250 2034 4250 
Q 1625 4250 1398 4047 
Q 1172 3844 1172 3481 
z
" transform="scale(0.015625)"/>
       </defs>
       <use xlink:href="#DejaVuSans-31"/>
       <use xlink:href="#DejaVuSans-38" transform="translate(63.623047 0)"/>
       <use xlink:href="#DejaVuSans-30" transform="translate(127.246094 0)"/>
      </g>
     </g>
    </g>
    <g id="ytick_4">
     <g id="line2d_14">
      <g>
       <use xlink:href="#m2ef6caae0a" x="94.5" y="152.379155" style="stroke: #000000; stroke-width: 0.8"/>
      </g>
     </g>
     <g id="text_14">
      <!-- 190 -->
      <g transform="translate(68.4125 156.178374) scale(0.1 -0.1)">
       <use xlink:href="#DejaVuSans-31"/>
       <use xlink:href="#DejaVuSans-39" transform="translate(63.623047 0)"/>
       <use xlink:href="#DejaVuSans-30" transform="translate(127.246094 0)"/>
      </g>
     </g>
    </g>
    <g id="ytick_5">
     <g id="line2d_15">
      <g>
       <use xlink:href="#m2ef6caae0a" x="94.5" y="130.612125" style="stroke: #000000; stroke-width: 0.8"/>
      </g>
     </g>
     <g id="text_15">
      <!-- 200 -->
      <g transform="translate(68.4125 134.411343) scale(0.1 -0.1)">
       <use xlink:href="#DejaVuSans-32"/>
       <use xlink:href="#DejaVuSans-30" transform="translate(63.623047 0)"/>
       <use xlink:href="#DejaVuSans-30" transform="translate(127.246094 0)"/>
      </g>
     </g>
    </g>
    <g id="ytick_6">
     <g id="line2d_16">
      <g>
       <use xlink:href="#m2ef6caae0a" x="94.5" y="108.845094" style="stroke: #000000; stroke-width: 0.8"/>
      </g>
     </g>
     <g id="text_16">
      <!-- 210 -->
      <g transform="translate(68.4125 112.644313) scale(0.1 -0.1)">
       <use xlink:href="#DejaVuSans-32"/>
       <use xlink:href="#DejaVuSans-31" transform="translate(63.623047 0)"/>
       <use xlink:href="#DejaVuSans-30" transform="translate(127.246094 0)"/>
      </g>
     </g>
    </g>
    <g id="ytick_7">
     <g id="line2d_17">
      <g>
       <use xlink:href="#m2ef6caae0a" x="94.5" y="87.078064" style="stroke: #000000; stroke-width: 0.8"/>
      </g>
     </g>
     <g id="text_17">
      <!-- 220 -->
      <g transform="translate(68.4125 90.877283) scale(0.1 -0.1)">
       <use xlink:href="#DejaVuSans-32"/>
       <use xlink:href="#DejaVuSans-32" transform="translate(63.623047 0)"/>
       <use xlink:href="#DejaVuSans-30" transform="translate(127.246094 0)"/>
      </g>
     </g>
    </g>
    <g id="ytick_8">
     <g id="line2d_18">
      <g>
       <use xlink:href="#m2ef6caae0a" x="94.5" y="65.311033" style="stroke: #000000; stroke-width: 0.8"/>
      </g>
     </g>
     <g id="text_18">
      <!-- 230 -->
      <g transform="translate(68.4125 69.110252) scale(0.1 -0.1)">
       <use xlink:href="#DejaVuSans-32"/>
       <use xlink:href="#DejaVuSans-33" transform="translate(63.623047 0)"/>
       <use xlink:href="#DejaVuSans-30" transform="translate(127.246094 0)"/>
      </g>
     </g>
    </g>
    <g id="ytick_9">
     <g id="line2d_19">
      <g>
       <use xlink:href="#m2ef6caae0a" x="94.5" y="43.544003" style="stroke: #000000; stroke-width: 0.8"/>
      </g>
     </g>
     <g id="text_19">
      <!-- 240 -->
      <g transform="translate(68.4125 47.343222) scale(0.1 -0.1)">
       <use xlink:href="#DejaVuSans-32"/>
       <use xlink:href="#DejaVuSans-34" transform="translate(63.623047 0)"/>
       <use xlink:href="#DejaVuSans-30" transform="translate(127.246094 0)"/>
      </g>
     </g>
    </g>
   </g>
   <g id="line2d_20">
    <path d="M 121.131818 188.207702 
L 122.094994 189.034826 
L 123.05817 181.198715 
L 124.021346 178.020714 
L 126.910875 179.413803 
L 127.874051 186.94521 
L 128.837227 188.273 
L 129.800403 181.068085 
L 130.763579 184.267841 
L 133.653107 191.646863 
L 134.616283 184.180788 
L 135.579459 181.634049 
L 136.542635 176.867064 
L 137.505811 186.292193 
L 140.395339 186.161596 
L 141.358516 183.070681 
L 142.321692 178.173099 
L 143.284868 178.173099 
L 144.248044 176.605871 
L 147.137572 174.777415 
L 148.100748 177.846574 
L 149.063924 174.516221 
L 150.0271 173.319028 
L 153.879804 172.034781 
L 154.84298 172.644255 
L 155.806157 168.900323 
L 156.769333 174.146186 
L 157.732509 163.110285 
L 160.622037 162.849091 
L 161.585213 161.804283 
L 162.548389 161.194809 
L 163.511565 154.447016 
L 164.474741 160.802985 
L 167.364269 166.266531 
L 168.327445 166.919515 
L 170.253797 175.844011 
L 171.216974 185.83507 
L 174.106502 180.175662 
L 175.069678 175.147484 
L 176.99603 187.92472 
L 177.959206 174.973343 
L 180.848734 172.056536 
L 181.81191 185.029701 
L 182.775086 176.322889 
L 183.738262 163.872145 
L 184.701438 160.628845 
L 187.590967 155.208876 
L 188.554143 155.078279 
L 189.517319 156.732561 
L 190.480495 153.467507 
L 191.443671 157.864456 
L 194.333199 159.845231 
L 195.296375 158.756879 
L 196.259551 161.107722 
L 197.222727 166.244743 
L 198.185903 163.915688 
L 202.038608 167.289584 
L 203.001784 167.333094 
L 203.96496 171.860641 
L 204.928136 172.513658 
L 208.78084 169.466287 
L 209.744016 169.749236 
L 211.670368 181.895243 
L 214.559896 177.759521 
L 215.523072 175.582818 
L 216.486249 171.360008 
L 217.449425 163.26267 
L 218.412601 164.786356 
L 221.302129 158.778667 
L 222.265305 158.408632 
L 223.228481 159.148703 
L 224.191657 165.809409 
L 225.154833 166.179444 
L 228.044361 165.308777 
L 229.007537 168.029655 
L 230.93389 160.868284 
L 231.897066 154.381718 
L 234.786594 162.021934 
L 235.74977 160.345896 
L 236.712946 144.521256 
L 237.676122 135.292023 
L 238.639298 145.30487 
L 241.528826 136.7069 
L 242.492002 130.612125 
L 243.455178 135.857987 
L 245.38153 130.612125 
L 248.271059 132.157598 
L 249.234235 132.048757 
L 250.197411 131.069247 
L 251.160587 141.386798 
L 252.123763 142.605746 
L 255.013291 146.45852 
L 255.976467 145.805503 
L 256.939643 156.884946 
L 257.902819 165.983549 
L 258.865995 167.333094 
L 261.755524 168.595586 
L 262.7187 160.193511 
L 263.681876 172.339518 
L 264.645052 174.472678 
L 265.608228 168.704428 
L 268.497756 167.180742 
L 269.460932 170.424009 
L 270.424108 158.952808 
L 271.387284 165.286988 
L 272.35046 200.484306 
L 275.239988 215.46 
L 277.166341 211.65077 
L 278.129517 205.055362 
L 279.092693 202.573922 
L 281.982221 202.878659 
L 282.945397 195.412584 
L 283.908573 195.695532 
L 284.871749 179.392048 
L 285.834925 180.545698 
L 288.724453 178.020714 
L 289.687629 176.584082 
L 290.650806 173.906747 
L 291.613982 182.570016 
L 292.577158 180.589241 
L 295.466686 183.941349 
L 297.393038 194.171847 
L 298.356214 191.298616 
L 299.31939 177.41124 
L 303.172094 182.308822 
L 304.13527 188.664791 
L 305.098446 178.73903 
L 306.061623 192.8876 
L 308.951151 184.159033 
L 309.914327 175.125695 
L 310.877503 164.307478 
L 311.840679 158.909264 
L 315.693383 163.502109 
L 316.656559 159.170458 
L 317.619735 160.150001 
L 318.582911 152.662137 
L 319.546087 148.896417 
L 322.435616 143.933537 
L 323.398792 143.759396 
L 325.325144 149.854172 
L 326.28832 156.79786 
L 329.177848 160.367651 
L 330.141024 162.979688 
L 331.1042 163.785091 
L 332.067376 169.879833 
L 333.030552 159.975861 
L 335.920081 172.404816 
L 336.883257 168.225551 
L 337.846433 162.892635 
L 338.809609 159.671124 
L 339.772785 154.947649 
L 342.662313 157.733859 
L 343.625489 157.407334 
L 344.588665 159.148703 
L 345.551841 157.755614 
L 346.515017 154.577613 
L 349.404545 154.403473 
L 350.367722 153.032173 
L 351.330898 163.8939 
L 352.294074 160.258809 
L 353.25725 157.102597 
L 356.146778 155.883648 
L 357.109954 150.572488 
L 358.07313 146.436765 
L 359.036306 160.215299 
L 359.999482 135.117916 
L 362.88901 139.797814 
L 363.852186 131.700476 
L 364.815362 115.179308 
L 365.778539 108.736252 
L 366.741715 112.80671 
L 369.631243 115.723484 
L 370.594419 111.217693 
L 371.557595 99.920598 
L 372.520771 105.623583 
L 373.483947 124.930928 
L 376.373475 126.911736 
L 377.336651 120.577522 
L 378.299827 124.343209 
L 379.263003 134.138373 
L 380.22618 136.88104 
L 383.115708 127.455912 
L 384.078884 113.503237 
L 385.04206 118.117837 
L 386.968412 113.437939 
L 389.85794 107.29962 
L 390.821116 101.35723 
L 391.784292 91.083189 
L 392.747468 85.880871 
L 393.710644 71.775844 
L 396.600173 73.82195 
L 397.563349 76.107495 
L 398.526525 64.745103 
L 399.489701 67.553035 
L 400.452877 70.839845 
L 403.342405 58.933309 
L 404.305581 62.807838 
L 405.268757 85.946169 
L 406.231933 79.916725 
L 407.195109 76.368689 
L 410.084638 76.063952 
L 411.047814 67.378895 
L 412.974166 71.732301 
L 413.937342 78.915427 
L 416.82687 84.248343 
L 417.790046 88.405854 
L 419.716398 86.599186 
L 420.679574 77.957673 
L 423.569102 70.513352 
L 424.532278 82.485219 
L 425.495455 82.441676 
L 427.421807 89.385364 
L 430.311335 90.430172 
L 431.274511 91.953891 
L 432.237687 79.786095 
L 433.200863 85.641432 
L 434.164039 74.148442 
L 438.016743 63.76556 
L 438.979919 54.405763 
L 439.943096 53.513307 
L 440.906272 54.75401 
L 443.7958 53.513307 
L 444.758976 47.570917 
L 445.722152 49.921727 
L 446.685328 55.211133 
L 447.648504 48.59397 
L 450.538032 49.159901 
L 451.501208 39.06 
L 452.464384 51.88078 
L 453.42756 46.090742 
L 454.390736 67.161244 
L 457.280265 58.476187 
L 458.243441 59.303345 
L 459.206617 67.640122 
L 460.169793 64.505664 
L 461.132969 68.184297 
L 464.985673 72.603002 
L 465.948849 72.646512 
L 466.912025 80.809148 
L 467.875201 94.522384 
L 470.76473 102.946214 
L 471.727906 102.750319 
L 472.691082 99.376423 
L 473.654258 111.587728 
L 474.617434 103.882214 
L 477.506962 119.685066 
L 478.470138 122.340646 
L 479.433314 112.414886 
L 480.39649 129.088439 
L 481.359666 132.244652 
L 484.249194 142.496938 
L 485.212371 138.03469 
L 486.175547 133.028266 
L 487.138723 143.911782 
L 488.101899 135.074373 
L 490.991427 139.884868 
L 491.954603 146.240837 
L 492.917779 140.320235 
L 493.880955 141.604482 
L 494.844131 138.861815 
L 498.696835 118.183136 
L 499.660012 128.15244 
L 500.623188 127.651807 
L 501.586364 146.45852 
L 504.475892 151.813224 
L 505.439068 147.655713 
L 506.402244 139.297182 
L 507.36542 177.607135 
L 508.328596 193.736513 
L 511.218124 184.46377 
L 512.1813 194.476584 
L 513.144476 149.984768 
L 514.107652 171.490605 
L 515.070829 163.545652 
L 517.960357 169.531586 
L 518.923533 175.038642 
L 519.886709 186.488088 
L 520.849885 190.23202 
L 524.702589 201.746764 
L 525.665765 188.991316 
L 526.628941 172.84015 
L 527.592117 159.910562 
L 528.555293 154.577613 
L 531.444822 157.385579 
L 532.407998 158.060351 
L 533.371174 164.525162 
L 534.33435 151.943821 
L 535.297526 152.422698 
L 539.15023 163.240915 
L 541.076582 147.851609 
L 542.039758 145.718449 
L 544.929287 111.805412 
L 545.892463 105.863022 
L 546.855639 108.300918 
L 547.818815 119.358574 
L 548.781991 118.444363 
L 551.671519 117.203626 
L 552.634695 121.752927 
L 553.597871 128.174228 
L 554.561047 123.864332 
L 555.524223 128.457177 
L 559.376928 117.508363 
L 560.340104 120.338084 
L 561.30328 118.204924 
L 562.266456 119.706854 
L 565.155984 116.137063 
L 566.11916 118.183136 
L 567.082336 114.874571 
L 568.045512 113.394396 
L 569.008688 101.074248 
L 571.898216 93.651716 
L 572.861392 92.280383 
L 573.824568 101.879651 
L 574.787745 101.792564 
L 575.750921 104.274005 
L 578.640449 95.567192 
L 579.603625 98.35337 
L 580.566801 103.359793 
L 582.493153 109.519867 
L 585.382681 112.175447 
L 586.345857 102.815618 
L 587.309033 104.513443 
L 588.272209 93.346979 
L 589.235386 79.894937 
L 592.124914 88.405854 
L 593.08809 86.076766 
L 594.051266 87.252204 
L 595.014442 79.655498 
L 598.867146 79.524902 
L 599.830322 88.471152 
L 600.793498 81.549253 
L 601.756674 82.158727 
L 602.71985 76.151005 
L 605.609379 74.692618 
L 606.572555 73.255986 
L 607.535731 80.134376 
L 608.498907 78.632445 
L 609.462083 73.734864 
L 612.351611 66.834719 
L 613.314787 70.818089 
L 614.277963 69.03321 
L 615.241139 60.456995 
L 616.204315 62.176576 
L 619.093843 59.238047 
L 620.05702 63.112575 
L 621.020196 64.897454 
L 621.983372 56.364783 
L 622.946548 98.505755 
L 625.836076 105.253548 
L 626.799252 100.682458 
L 627.762428 82.049885 
L 628.725604 80.264973 
L 632.578308 84.248343 
L 633.541484 83.878308 
L 634.504661 77.152303 
L 635.467837 63.177874 
L 636.431013 63.069032 
L 639.320541 62.067734 
L 640.283717 69.642684 
L 641.246893 78.784831 
L 642.210069 82.8335 
L 643.173245 67.836017 
L 646.062773 69.795036 
L 647.025949 68.118966 
L 647.989125 67.226543 
L 648.952301 61.828295 
L 649.915478 67.487736 
L 653.768182 75.454478 
L 653.768182 75.454478 
" clip-path="url(#p50771a27f1)" style="fill: none; stroke: #1f77b4; stroke-width: 1.5; stroke-linecap: square"/>
   </g>
   <g id="patch_3">
    <path d="M 94.5 224.28 
L 94.5 30.24 
" style="fill: none; stroke: #000000; stroke-width: 0.8; stroke-linejoin: miter; stroke-linecap: square"/>
   </g>
   <g id="patch_4">
    <path d="M 94.5 224.28 
L 680.4 224.28 
" style="fill: none; stroke: #000000; stroke-width: 0.8; stroke-linejoin: miter; stroke-linecap: square"/>
   </g>
  </g>
 </g>
 <defs>
  <clipPath id="p50771a27f1">
   <rect x="94.5" y="30.24" width="585.9" height="194.04"/>
  </clipPath>
 </defs>
</svg>
