<?xml version="1.0" encoding="utf-8" standalone="no"?>
<!DOCTYPE svg PUBLIC "-//W3C//DTD SVG 1.1//EN"
  "http://www.w3.org/Graphics/SVG/1.1/DTD/svg11.dtd">
<svg xmlns:xlink="http://www.w3.org/1999/xlink" width="1166.4pt" height="252pt" viewBox="0 0 1166.4 252" xmlns="http://www.w3.org/2000/svg" version="1.1">
 <metadata>
  <rdf:RDF xmlns:dc="http://purl.org/dc/elements/1.1/" xmlns:cc="http://creativecommons.org/ns#" xmlns:rdf="http://www.w3.org/1999/02/22-rdf-syntax-ns#">
   <cc:Work>
    <dc:type rdf:resource="http://purl.org/dc/dcmitype/StillImage"/>
    <dc:date>2025-09-05T15:24:36.457299</dc:date>
    <dc:format>image/svg+xml</dc:format>
    <dc:creator>
     <cc:Agent>
      <dc:title>Matplotlib v3.10.5, https://matplotlib.org/</dc:title>
     </cc:Agent>
    </dc:creator>
   </cc:Work>
  </rdf:RDF>
 </metadata>
 <defs>
  <style type="text/css">*{stroke-linejoin: round; stroke-linecap: butt}</style>
 </defs>
 <g id="figure_1">
  <g id="patch_1">
   <path d="M 0 252 
L 1166.4 252 
L 1166.4 0 
L 0 0 
z
" style="fill: #ffffff"/>
  </g>
  <g id="axes_1">
   <g id="patch_2">
    <path d="M 145.8 224.28 
L 1049.76 224.28 
L 1049.76 30.24 
L 145.8 30.24 
z
" style="fill: #ffffff"/>
   </g>
   <g id="matplotlib.axis_1">
    <g id="xtick_1">
     <g id="line2d_1">
      <defs>
       <path id="mfabedb1e0d" d="M 0 0 
L 0 3.5 
" style="stroke: #000000; stroke-width: 0.8"/>
      </defs>
      <g>
       <use xlink:href="#mfabedb1e0d" x="178.470838" y="224.28" style="stroke: #000000; stroke-width: 0.8"/>
      </g>
     </g>
     <g id="text_1">
      <!-- 2020 -->
      <g transform="translate(165.745838 238.878438) scale(0.1 -0.1)">
       <defs>
        <path id="DejaVuSans-32" d="M 1228 531 
L 3431 531 
L 3431 0 
L 469 0 
L 469 531 
Q 828 903 1448 1529 
Q 2069 2156 2228 2338 
Q 2531 2678 2651 2914 
Q 2772 3150 2772 3378 
Q 2772 3750 2511 3984 
Q 2250 4219 1831 4219 
Q 1534 4219 1204 4116 
Q 875 4013 500 3803 
L 500 4441 
Q 881 4594 1212 4672 
Q 1544 4750 1819 4750 
Q 2544 4750 2975 4387 
Q 3406 4025 3406 3419 
Q 3406 3131 3298 2873 
Q 3191 2616 2906 2266 
Q 2828 2175 2409 1742 
Q 1991 1309 1228 531 
z
" transform="scale(0.015625)"/>
        <path id="DejaVuSans-30" d="M 2034 4250 
Q 1547 4250 1301 3770 
Q 1056 3291 1056 2328 
Q 1056 1369 1301 889 
Q 1547 409 2034 409 
Q 2525 409 2770 889 
Q 3016 1369 3016 2328 
Q 3016 3291 2770 3770 
Q 2525 4250 2034 4250 
z
M 2034 4750 
Q 2819 4750 3233 4129 
Q 3647 3509 3647 2328 
Q 3647 1150 3233 529 
Q 2819 -91 2034 -91 
Q 1250 -91 836 529 
Q 422 1150 422 2328 
Q 422 3509 836 4129 
Q 1250 4750 2034 4750 
z
" transform="scale(0.015625)"/>
       </defs>
       <use xlink:href="#DejaVuSans-32"/>
       <use xlink:href="#DejaVuSans-30" transform="translate(63.623047 0)"/>
       <use xlink:href="#DejaVuSans-32" transform="translate(127.246094 0)"/>
       <use xlink:href="#DejaVuSans-30" transform="translate(190.869141 0)"/>
      </g>
     </g>
    </g>
    <g id="xtick_2">
     <g id="line2d_2">
      <g>
       <use xlink:href="#mfabedb1e0d" x="325.188958" y="224.28" style="stroke: #000000; stroke-width: 0.8"/>
      </g>
     </g>
     <g id="text_2">
      <!-- 2021 -->
      <g transform="translate(312.463958 238.878438) scale(0.1 -0.1)">
       <defs>
        <path id="DejaVuSans-31" d="M 794 531 
L 1825 531 
L 1825 4091 
L 703 3866 
L 703 4441 
L 1819 4666 
L 2450 4666 
L 2450 531 
L 3481 531 
L 3481 0 
L 794 0 
L 794 531 
z
" transform="scale(0.015625)"/>
       </defs>
       <use xlink:href="#DejaVuSans-32"/>
       <use xlink:href="#DejaVuSans-30" transform="translate(63.623047 0)"/>
       <use xlink:href="#DejaVuSans-32" transform="translate(127.246094 0)"/>
       <use xlink:href="#DejaVuSans-31" transform="translate(190.869141 0)"/>
      </g>
     </g>
    </g>
    <g id="xtick_3">
     <g id="line2d_3">
      <g>
       <use xlink:href="#mfabedb1e0d" x="471.506208" y="224.28" style="stroke: #000000; stroke-width: 0.8"/>
      </g>
     </g>
     <g id="text_3">
      <!-- 2022 -->
      <g transform="translate(458.781208 238.878438) scale(0.1 -0.1)">
       <use xlink:href="#DejaVuSans-32"/>
       <use xlink:href="#DejaVuSans-30" transform="translate(63.623047 0)"/>
       <use xlink:href="#DejaVuSans-32" transform="translate(127.246094 0)"/>
       <use xlink:href="#DejaVuSans-32" transform="translate(190.869141 0)"/>
      </g>
     </g>
    </g>
    <g id="xtick_4">
     <g id="line2d_4">
      <g>
       <use xlink:href="#mfabedb1e0d" x="617.823459" y="224.28" style="stroke: #000000; stroke-width: 0.8"/>
      </g>
     </g>
     <g id="text_4">
      <!-- 2023 -->
      <g transform="translate(605.098459 238.878438) scale(0.1 -0.1)">
       <defs>
        <path id="DejaVuSans-33" d="M 2597 2516 
Q 3050 2419 3304 2112 
Q 3559 1806 3559 1356 
Q 3559 666 3084 287 
Q 2609 -91 1734 -91 
Q 1441 -91 1130 -33 
Q 819 25 488 141 
L 488 750 
Q 750 597 1062 519 
Q 1375 441 1716 441 
Q 2309 441 2620 675 
Q 2931 909 2931 1356 
Q 2931 1769 2642 2001 
Q 2353 2234 1838 2234 
L 1294 2234 
L 1294 2753 
L 1863 2753 
Q 2328 2753 2575 2939 
Q 2822 3125 2822 3475 
Q 2822 3834 2567 4026 
Q 2313 4219 1838 4219 
Q 1578 4219 1281 4162 
Q 984 4106 628 3988 
L 628 4550 
Q 988 4650 1302 4700 
Q 1616 4750 1894 4750 
Q 2613 4750 3031 4423 
Q 3450 4097 3450 3541 
Q 3450 3153 3228 2886 
Q 3006 2619 2597 2516 
z
" transform="scale(0.015625)"/>
       </defs>
       <use xlink:href="#DejaVuSans-32"/>
       <use xlink:href="#DejaVuSans-30" transform="translate(63.623047 0)"/>
       <use xlink:href="#DejaVuSans-32" transform="translate(127.246094 0)"/>
       <use xlink:href="#DejaVuSans-33" transform="translate(190.869141 0)"/>
      </g>
     </g>
    </g>
    <g id="xtick_5">
     <g id="line2d_5">
      <g>
       <use xlink:href="#mfabedb1e0d" x="764.14071" y="224.28" style="stroke: #000000; stroke-width: 0.8"/>
      </g>
     </g>
     <g id="text_5">
      <!-- 2024 -->
      <g transform="translate(751.41571 238.878438) scale(0.1 -0.1)">
       <defs>
        <path id="DejaVuSans-34" d="M 2419 4116 
L 825 1625 
L 2419 1625 
L 2419 4116 
z
M 2253 4666 
L 3047 4666 
L 3047 1625 
L 3713 1625 
L 3713 1100 
L 3047 1100 
L 3047 0 
L 2419 0 
L 2419 1100 
L 313 1100 
L 313 1709 
L 2253 4666 
z
" transform="scale(0.015625)"/>
       </defs>
       <use xlink:href="#DejaVuSans-32"/>
       <use xlink:href="#DejaVuSans-30" transform="translate(63.623047 0)"/>
       <use xlink:href="#DejaVuSans-32" transform="translate(127.246094 0)"/>
       <use xlink:href="#DejaVuSans-34" transform="translate(190.869141 0)"/>
      </g>
     </g>
    </g>
    <g id="xtick_6">
     <g id="line2d_6">
      <g>
       <use xlink:href="#mfabedb1e0d" x="910.858829" y="224.28" style="stroke: #000000; stroke-width: 0.8"/>
      </g>
     </g>
     <g id="text_6">
      <!-- 2025 -->
      <g transform="translate(898.133829 238.878438) scale(0.1 -0.1)">
       <defs>
        <path id="DejaVuSans-35" d="M 691 4666 
L 3169 4666 
L 3169 4134 
L 1269 4134 
L 1269 2991 
Q 1406 3038 1543 3061 
Q 1681 3084 1819 3084 
Q 2600 3084 3056 2656 
Q 3513 2228 3513 1497 
Q 3513 744 3044 326 
Q 2575 -91 1722 -91 
Q 1428 -91 1123 -41 
Q 819 9 494 109 
L 494 744 
Q 775 591 1075 516 
Q 1375 441 1709 441 
Q 2250 441 2565 725 
Q 2881 1009 2881 1497 
Q 2881 1984 2565 2268 
Q 2250 2553 1709 2553 
Q 1456 2553 1204 2497 
Q 953 2441 691 2322 
L 691 4666 
z
" transform="scale(0.015625)"/>
       </defs>
       <use xlink:href="#DejaVuSans-32"/>
       <use xlink:href="#DejaVuSans-30" transform="translate(63.623047 0)"/>
       <use xlink:href="#DejaVuSans-32" transform="translate(127.246094 0)"/>
       <use xlink:href="#DejaVuSans-35" transform="translate(190.869141 0)"/>
      </g>
     </g>
    </g>
   </g>
   <g id="matplotlib.axis_2">
    <g id="ytick_1">
     <g id="line2d_7">
      <defs>
       <path id="m221a84b457" d="M 0 0 
L -3.5 0 
" style="stroke: #000000; stroke-width: 0.8"/>
      </defs>
      <g>
       <use xlink:href="#m221a84b457" x="145.8" y="223.492138" style="stroke: #000000; stroke-width: 0.8"/>
      </g>
     </g>
     <g id="text_7">
      <!-- 10 -->
      <g transform="translate(126.075 227.291356) scale(0.1 -0.1)">
       <use xlink:href="#DejaVuSans-31"/>
       <use xlink:href="#DejaVuSans-30" transform="translate(63.623047 0)"/>
      </g>
     </g>
    </g>
    <g id="ytick_2">
     <g id="line2d_8">
      <g>
       <use xlink:href="#m221a84b457" x="145.8" y="200.701871" style="stroke: #000000; stroke-width: 0.8"/>
      </g>
     </g>
     <g id="text_8">
      <!-- 20 -->
      <g transform="translate(126.075 204.501089) scale(0.1 -0.1)">
       <use xlink:href="#DejaVuSans-32"/>
       <use xlink:href="#DejaVuSans-30" transform="translate(63.623047 0)"/>
      </g>
     </g>
    </g>
    <g id="ytick_3">
     <g id="line2d_9">
      <g>
       <use xlink:href="#m221a84b457" x="145.8" y="177.911604" style="stroke: #000000; stroke-width: 0.8"/>
      </g>
     </g>
     <g id="text_9">
      <!-- 30 -->
      <g transform="translate(126.075 181.710822) scale(0.1 -0.1)">
       <use xlink:href="#DejaVuSans-33"/>
       <use xlink:href="#DejaVuSans-30" transform="translate(63.623047 0)"/>
      </g>
     </g>
    </g>
    <g id="ytick_4">
     <g id="line2d_10">
      <g>
       <use xlink:href="#m221a84b457" x="145.8" y="155.121336" style="stroke: #000000; stroke-width: 0.8"/>
      </g>
     </g>
     <g id="text_10">
      <!-- 40 -->
      <g transform="translate(126.075 158.920555) scale(0.1 -0.1)">
       <use xlink:href="#DejaVuSans-34"/>
       <use xlink:href="#DejaVuSans-30" transform="translate(63.623047 0)"/>
      </g>
     </g>
    </g>
    <g id="ytick_5">
     <g id="line2d_11">
      <g>
       <use xlink:href="#m221a84b457" x="145.8" y="132.331069" style="stroke: #000000; stroke-width: 0.8"/>
      </g>
     </g>
     <g id="text_11">
      <!-- 50 -->
      <g transform="translate(126.075 136.130288) scale(0.1 -0.1)">
       <use xlink:href="#DejaVuSans-35"/>
       <use xlink:href="#DejaVuSans-30" transform="translate(63.623047 0)"/>
      </g>
     </g>
    </g>
    <g id="ytick_6">
     <g id="line2d_12">
      <g>
       <use xlink:href="#m221a84b457" x="145.8" y="109.540802" style="stroke: #000000; stroke-width: 0.8"/>
      </g>
     </g>
     <g id="text_12">
      <!-- 60 -->
      <g transform="translate(126.075 113.340021) scale(0.1 -0.1)">
       <defs>
        <path id="DejaVuSans-36" d="M 2113 2584 
Q 1688 2584 1439 2293 
Q 1191 2003 1191 1497 
Q 1191 994 1439 701 
Q 1688 409 2113 409 
Q 2538 409 2786 701 
Q 3034 994 3034 1497 
Q 3034 2003 2786 2293 
Q 2538 2584 2113 2584 
z
M 3366 4563 
L 3366 3988 
Q 3128 4100 2886 4159 
Q 2644 4219 2406 4219 
Q 1781 4219 1451 3797 
Q 1122 3375 1075 2522 
Q 1259 2794 1537 2939 
Q 1816 3084 2150 3084 
Q 2853 3084 3261 2657 
Q 3669 2231 3669 1497 
Q 3669 778 3244 343 
Q 2819 -91 2113 -91 
Q 1303 -91 875 529 
Q 447 1150 447 2328 
Q 447 3434 972 4092 
Q 1497 4750 2381 4750 
Q 2619 4750 2861 4703 
Q 3103 4656 3366 4563 
z
" transform="scale(0.015625)"/>
       </defs>
       <use xlink:href="#DejaVuSans-36"/>
       <use xlink:href="#DejaVuSans-30" transform="translate(63.623047 0)"/>
      </g>
     </g>
    </g>
    <g id="ytick_7">
     <g id="line2d_13">
      <g>
       <use xlink:href="#m221a84b457" x="145.8" y="86.750535" style="stroke: #000000; stroke-width: 0.8"/>
      </g>
     </g>
     <g id="text_13">
      <!-- 70 -->
      <g transform="translate(126.075 90.549754) scale(0.1 -0.1)">
       <defs>
        <path id="DejaVuSans-37" d="M 525 4666 
L 3525 4666 
L 3525 4397 
L 1831 0 
L 1172 0 
L 2766 4134 
L 525 4134 
L 525 4666 
z
" transform="scale(0.015625)"/>
       </defs>
       <use xlink:href="#DejaVuSans-37"/>
       <use xlink:href="#DejaVuSans-30" transform="translate(63.623047 0)"/>
      </g>
     </g>
    </g>
    <g id="ytick_8">
     <g id="line2d_14">
      <g>
       <use xlink:href="#m221a84b457" x="145.8" y="63.960268" style="stroke: #000000; stroke-width: 0.8"/>
      </g>
     </g>
     <g id="text_14">
      <!-- 80 -->
      <g transform="translate(126.075 67.759487) scale(0.1 -0.1)">
       <defs>
        <path id="DejaVuSans-38" d="M 2034 2216 
Q 1584 2216 1326 1975 
Q 1069 1734 1069 1313 
Q 1069 891 1326 650 
Q 1584 409 2034 409 
Q 2484 409 2743 651 
Q 3003 894 3003 1313 
Q 3003 1734 2745 1975 
Q 2488 2216 2034 2216 
z
M 1403 2484 
Q 997 2584 770 2862 
Q 544 3141 544 3541 
Q 544 4100 942 4425 
Q 1341 4750 2034 4750 
Q 2731 4750 3128 4425 
Q 3525 4100 3525 3541 
Q 3525 3141 3298 2862 
Q 3072 2584 2669 2484 
Q 3125 2378 3379 2068 
Q 3634 1759 3634 1313 
Q 3634 634 3220 271 
Q 2806 -91 2034 -91 
Q 1263 -91 848 271 
Q 434 634 434 1313 
Q 434 1759 690 2068 
Q 947 2378 1403 2484 
z
M 1172 3481 
Q 1172 3119 1398 2916 
Q 1625 2713 2034 2713 
Q 2441 2713 2670 2916 
Q 2900 3119 2900 3481 
Q 2900 3844 2670 4047 
Q 2441 4250 2034 4250 
Q 1625 4250 1398 4047 
Q 1172 3844 1172 3481 
z
" transform="scale(0.015625)"/>
       </defs>
       <use xlink:href="#DejaVuSans-38"/>
       <use xlink:href="#DejaVuSans-30" transform="translate(63.623047 0)"/>
      </g>
     </g>
    </g>
    <g id="ytick_9">
     <g id="line2d_15">
      <g>
       <use xlink:href="#m221a84b457" x="145.8" y="41.170001" style="stroke: #000000; stroke-width: 0.8"/>
      </g>
     </g>
     <g id="text_15">
      <!-- 90 -->
      <g transform="translate(126.075 44.96922) scale(0.1 -0.1)">
       <defs>
        <path id="DejaVuSans-39" d="M 703 97 
L 703 672 
Q 941 559 1184 500 
Q 1428 441 1663 441 
Q 2288 441 2617 861 
Q 2947 1281 2994 2138 
Q 2813 1869 2534 1725 
Q 2256 1581 1919 1581 
Q 1219 1581 811 2004 
Q 403 2428 403 3163 
Q 403 3881 828 4315 
Q 1253 4750 1959 4750 
Q 2769 4750 3195 4129 
Q 3622 3509 3622 2328 
Q 3622 1225 3098 567 
Q 2575 -91 1691 -91 
Q 1453 -91 1209 -44 
Q 966 3 703 97 
z
M 1959 2075 
Q 2384 2075 2632 2365 
Q 2881 2656 2881 3163 
Q 2881 3666 2632 3958 
Q 2384 4250 1959 4250 
Q 1534 4250 1286 3958 
Q 1038 3666 1038 3163 
Q 1038 2656 1286 2365 
Q 1534 2075 1959 2075 
z
" transform="scale(0.015625)"/>
       </defs>
       <use xlink:href="#DejaVuSans-39"/>
       <use xlink:href="#DejaVuSans-30" transform="translate(63.623047 0)"/>
      </g>
     </g>
    </g>
   </g>
   <g id="line2d_16">
    <path d="M 186.889091 138.490707 
L 187.28996 140.05824 
L 187.690829 140.004525 
L 188.893437 174.103047 
L 189.294306 159.570268 
L 189.695175 150.408527 
L 190.096044 148.22553 
L 190.496914 89.985506 
L 191.699521 93.842784 
L 192.10039 74.943074 
L 192.902129 76.979426 
L 193.302998 66.344321 
L 194.505605 63.047165 
L 194.906475 59.180192 
L 195.307344 56.985357 
L 195.708213 50.979169 
L 196.109082 41.706268 
L 197.712559 41.957687 
L 198.113428 41.366914 
L 198.514297 50.972638 
L 198.915166 100.733224 
L 200.117774 130.869374 
L 200.518643 154.930951 
L 200.919512 150.175372 
L 201.320381 172.571863 
L 201.721251 182.812283 
L 202.923858 177.209357 
L 203.324727 189.14344 
L 203.725596 171.005033 
L 204.126466 176.373329 
L 204.527335 177.310556 
L 205.729942 192.544134 
L 206.130812 174.708913 
L 206.531681 179.511165 
L 206.93255 186.050482 
L 207.333419 160.377802 
L 208.536027 165.626418 
L 209.337765 138.461726 
L 209.738634 132.634318 
L 210.139503 144.330289 
L 211.342111 133.008562 
L 211.74298 136.376213 
L 212.143849 136.644181 
L 212.544718 126.459068 
L 212.945588 121.112867 
L 214.148195 123.971577 
L 214.549064 116.48243 
L 214.949933 100.383997 
L 215.350803 111.354607 
L 215.751672 93.820691 
L 217.355149 98.270956 
L 217.756018 100.924354 
L 218.156887 91.836668 
L 219.760364 83.654755 
L 220.161233 76.457496 
L 220.562102 60.594516 
L 220.962971 58.735944 
L 221.36384 52.601734 
L 222.566448 55.045632 
L 222.967317 69.361281 
L 223.368186 55.738951 
L 223.769055 54.4193 
L 224.169925 50.51814 
L 225.372532 65.445694 
L 225.773401 82.564965 
L 226.174271 80.136949 
L 226.57514 72.468024 
L 226.976009 117.205614 
L 228.579486 130.844399 
L 228.980355 141.485697 
L 229.381224 133.548345 
L 229.782093 134.659381 
L 230.984701 118.131919 
L 231.38557 133.450441 
L 231.786439 137.938211 
L 232.187308 136.072105 
L 232.588177 126.294326 
L 233.790785 110.745333 
L 234.191654 116.645957 
L 234.592523 126.91792 
L 234.993392 82.46185 
L 235.394262 92.644547 
L 236.997738 99.422021 
L 237.398608 112.415778 
L 237.799477 120.811068 
L 238.200346 112.495296 
L 239.402953 112.683598 
L 239.803823 89.771682 
L 240.204692 90.940582 
L 240.605561 105.170957 
L 241.00643 104.749186 
L 242.209038 98.25856 
L 242.609907 86.988138 
L 243.010776 87.354031 
L 243.411645 101.944369 
L 243.812514 103.002493 
L 245.015122 92.62187 
L 245.415991 82.006966 
L 245.81686 75.424197 
L 246.217729 78.991423 
L 246.618599 80.033382 
L 247.821206 75.243074 
L 248.222075 70.425862 
L 248.622945 74.411944 
L 249.023814 74.643819 
L 249.424683 97.802711 
L 250.62729 113.943488 
L 251.02816 108.142094 
L 251.429029 66.482282 
L 251.829898 61.272576 
L 253.433375 52.661567 
L 253.834244 70.312264 
L 254.235113 66.546691 
L 254.635982 61.535901 
L 255.036851 61.722328 
L 257.041197 98.297107 
L 257.442067 101.536033 
L 257.842936 97.642169 
L 259.045543 79.137464 
L 260.248151 122.420963 
L 260.64902 138.030138 
L 261.851627 125.7351 
L 262.252497 142.275745 
L 262.653366 152.149273 
L 263.054235 151.996545 
L 263.455104 124.429438 
L 264.657712 128.830453 
L 265.058581 115.104752 
L 265.860319 98.989244 
L 266.261188 136.970461 
L 267.463796 130.682845 
L 267.864665 135.412584 
L 268.265534 102.876313 
L 268.666404 106.010934 
L 269.067273 115.416514 
L 270.26988 98.022809 
L 270.670749 87.025985 
L 271.472488 109.400455 
L 271.873357 100.527773 
L 273.075965 101.088715 
L 273.476834 104.911282 
L 273.877703 95.075752 
L 274.278572 91.412217 
L 274.679441 86.459774 
L 275.882049 63.356729 
L 276.282918 65.955023 
L 276.683787 63.070247 
L 277.084656 99.343832 
L 277.485525 116.325746 
L 279.089002 155.111796 
L 279.489871 131.278748 
L 279.890741 147.200122 
L 280.29161 151.859937 
L 281.494217 156.262146 
L 281.895086 154.289849 
L 282.295956 175.04038 
L 282.696825 177.004841 
L 283.097694 180.82754 
L 284.300302 187.864902 
L 284.701171 169.761355 
L 285.10204 181.836553 
L 285.903778 153.339489 
L 287.106386 129.616271 
L 287.507255 147.547274 
L 287.908124 135.92277 
L 288.308993 118.258973 
L 288.709863 129.642147 
L 289.91247 127.189925 
L 290.313339 129.778416 
L 290.714208 111.073478 
L 291.515947 96.730963 
L 292.718554 97.660406 
L 293.119424 76.355055 
L 293.520293 91.651251 
L 293.921162 101.940751 
L 294.322031 119.841147 
L 295.524639 124.746484 
L 295.925508 124.074919 
L 296.326377 136.91977 
L 296.727246 125.13754 
L 297.128115 131.55956 
L 298.330723 114.157759 
L 298.731592 116.561808 
L 299.132461 136.422674 
L 299.53333 144.211217 
L 299.9342 194.625345 
L 301.136807 196.895284 
L 301.537676 180.94406 
L 301.938545 144.582377 
L 302.339415 126.23704 
L 302.740284 118.637992 
L 304.343761 147.843528 
L 304.74463 136.050596 
L 305.145499 141.311898 
L 305.546368 139.697682 
L 306.748976 147.946377 
L 307.149845 135.378407 
L 307.550714 144.405867 
L 307.951583 121.265557 
L 308.352452 119.120206 
L 309.55506 124.990102 
L 309.955929 155.603783 
L 310.356798 158.826421 
L 311.158537 154.796055 
L 312.361144 126.153282 
L 312.762013 78.472499 
L 313.162882 107.678743 
L 313.563752 102.841365 
L 313.964621 119.547923 
L 315.167228 122.211607 
L 315.568098 117.415883 
L 315.968967 132.728786 
L 316.369836 137.357258 
L 316.770705 126.780292 
L 317.973313 115.168375 
L 318.374182 118.122672 
L 318.775051 115.842403 
L 319.17592 120.141886 
L 319.576789 122.459878 
L 320.779397 136.983039 
L 321.180266 131.28032 
L 321.581135 132.837166 
L 321.982004 128.698513 
L 323.585481 98.466148 
L 323.98635 95.073348 
L 324.38722 81.303823 
L 324.788089 91.316416 
L 326.391565 115.910662 
L 326.792435 117.67756 
L 327.193304 137.865697 
L 327.594173 150.344564 
L 327.995042 144.161965 
L 329.19765 150.50678 
L 329.598519 150.004926 
L 329.999388 140.112222 
L 330.400257 143.089976 
L 330.801126 144.852915 
L 332.404603 167.548385 
L 332.805472 142.889717 
L 333.206341 128.567679 
L 333.607211 125.904768 
L 334.809818 110.381431 
L 335.210687 110.340196 
L 336.012426 116.763212 
L 336.413295 127.576514 
L 337.615902 91.062741 
L 338.016772 87.713613 
L 338.417641 107.912948 
L 339.219379 89.678925 
L 340.421987 98.199691 
L 340.822856 123.713108 
L 341.223725 136.759995 
L 341.624594 138.744274 
L 342.025463 135.714524 
L 343.62894 144.735892 
L 344.029809 113.945078 
L 344.430678 111.083749 
L 344.831548 122.9859 
L 346.034155 172.035498 
L 346.435024 180.156672 
L 346.835894 174.908341 
L 347.236763 195.577346 
L 347.637632 190.477662 
L 348.840239 170.200587 
L 349.241109 174.729159 
L 349.641978 182.719587 
L 350.042847 183.015697 
L 350.443716 181.155748 
L 351.646324 184.924955 
L 352.047193 169.279616 
L 352.448062 173.794221 
L 352.848931 153.866254 
L 353.2498 147.70803 
L 354.452408 151.511683 
L 354.853277 144.27753 
L 355.254146 117.07791 
L 355.655016 143.561204 
L 356.055885 144.75802 
L 357.258492 129.408042 
L 357.659361 106.031541 
L 358.060231 111.433911 
L 358.4611 123.845175 
L 358.861969 112.403322 
L 360.064576 129.305408 
L 360.866315 136.932568 
L 361.267184 116.83843 
L 362.870661 104.023249 
L 363.27153 106.253231 
L 363.672399 104.505659 
L 364.073268 70.559388 
L 364.474137 67.989146 
L 365.676745 70.851887 
L 366.077614 71.494331 
L 366.478483 77.192823 
L 366.879353 58.476829 
L 367.280222 57.369828 
L 368.482829 68.850626 
L 368.883698 74.308827 
L 369.284568 75.501814 
L 369.685437 100.09588 
L 370.086306 105.754169 
L 371.288914 94.285679 
L 371.689783 101.336307 
L 372.090652 98.015918 
L 372.491521 108.228554 
L 372.89239 110.771262 
L 374.094998 135.260149 
L 374.495867 136.846668 
L 374.896736 155.738043 
L 375.297605 151.828883 
L 375.698475 149.576215 
L 376.901082 159.944674 
L 377.301951 158.51059 
L 377.70282 161.19833 
L 378.10369 166.528121 
L 378.504559 168.204673 
L 379.707166 158.918532 
L 380.108035 173.428707 
L 380.508905 176.715626 
L 381.310643 167.720256 
L 382.513251 145.992363 
L 382.91412 134.798675 
L 383.314989 141.70664 
L 383.715858 145.778071 
L 384.116727 123.638239 
L 385.720204 133.83676 
L 386.121073 104.948745 
L 386.521942 124.650146 
L 386.922812 137.976512 
L 388.125419 160.064087 
L 388.526288 121.184189 
L 388.927157 115.885699 
L 389.328027 102.882284 
L 389.728896 85.899741 
L 390.931503 86.84485 
L 391.332373 90.074425 
L 391.733242 84.90322 
L 392.134111 58.427365 
L 392.53498 56.19142 
L 393.737588 68.996699 
L 394.138457 65.015715 
L 394.539326 45.162503 
L 394.940195 70.789153 
L 395.341064 84.930003 
L 396.543672 88.314574 
L 396.944541 90.290714 
L 397.34541 106.027935 
L 397.746279 107.573859 
L 398.147149 99.220236 
L 399.750625 76.894749 
L 400.151494 78.013137 
L 400.552364 82.251113 
L 400.953233 85.09727 
L 402.15584 75.293925 
L 402.55671 94.534925 
L 403.358448 92.171565 
L 403.759317 95.082836 
L 404.961925 108.636012 
L 405.763663 101.246785 
L 406.164532 91.857721 
L 407.768009 125.408223 
L 408.168878 150.146485 
L 408.569747 159.88597 
L 408.970616 163.515042 
L 409.371486 195.262514 
L 410.574093 191.102771 
L 410.974962 183.603198 
L 411.375831 179.914962 
L 411.776701 168.319173 
L 412.17757 169.18284 
L 413.380177 175.381979 
L 413.781047 180.833611 
L 414.181916 198.335853 
L 414.582785 200.538056 
L 414.983654 215.46 
L 416.186262 208.793755 
L 416.587131 214.128687 
L 416.988 214.731684 
L 417.388869 186.809581 
L 417.789738 182.156672 
L 418.992346 166.783802 
L 419.393215 147.806583 
L 419.794084 157.650291 
L 420.595823 129.888489 
L 421.79843 104.478826 
L 422.199299 85.353928 
L 422.600169 85.848986 
L 423.001038 88.182342 
L 423.401907 86.633086 
L 425.005384 59.923498 
L 425.406253 39.06 
L 425.807122 52.679305 
L 426.207991 60.467331 
L 427.410599 73.876344 
L 427.811468 84.021101 
L 428.212337 76.330332 
L 428.613206 77.043716 
L 430.216683 151.974429 
L 430.617552 174.353236 
L 431.018421 162.557828 
L 431.41929 145.990184 
L 431.82016 147.770869 
L 433.022767 163.680781 
L 433.423636 185.41544 
L 433.824506 181.604971 
L 434.225375 181.768086 
L 434.626244 180.179273 
L 435.828851 191.579027 
L 436.229721 189.720058 
L 436.63059 180.564335 
L 437.432328 149.094412 
L 438.634936 155.132575 
L 439.035805 165.863104 
L 439.436674 165.536808 
L 439.837543 163.590088 
L 440.238412 131.66087 
L 441.44102 102.249222 
L 441.841889 98.597325 
L 442.242758 102.469814 
L 442.643627 98.710376 
L 443.044497 100.406506 
L 444.247104 109.876203 
L 444.647973 107.286207 
L 445.048843 111.597213 
L 445.449712 98.703255 
L 445.850581 106.984667 
L 447.053188 119.329375 
L 447.454058 126.820795 
L 447.854927 117.452798 
L 448.255796 120.001132 
L 448.656665 119.315166 
L 449.859273 124.590425 
L 450.260142 106.756289 
L 450.661011 125.565985 
L 451.06188 110.11441 
L 451.462749 100.793039 
L 452.665357 104.905964 
L 453.066226 107.970764 
L 453.467095 114.305048 
L 453.867965 81.14207 
L 454.268834 72.752482 
L 455.87231 101.324413 
L 457.074918 134.816089 
L 458.277525 120.320238 
L 458.678395 144.345677 
L 459.079264 139.318211 
L 459.480133 138.769614 
L 459.881002 157.336703 
L 461.08361 153.599081 
L 461.484479 135.068111 
L 461.885348 136.43969 
L 462.286217 172.096352 
L 462.687086 174.418564 
L 463.889694 168.063054 
L 464.290563 171.274932 
L 464.691432 151.911779 
L 465.092302 153.727844 
L 465.493171 160.901323 
L 466.695778 161.464562 
L 467.096647 138.526842 
L 467.497517 135.214793 
L 467.898386 126.429839 
L 469.501863 138.78238 
L 469.902732 156.262386 
L 470.303601 160.992974 
L 470.70447 156.341309 
L 471.105339 156.233181 
L 472.307947 128.829742 
L 472.708816 138.363723 
L 473.109685 168.037537 
L 473.510554 157.683187 
L 473.911424 166.623752 
L 475.114031 160.125656 
L 475.5149 156.876188 
L 475.915769 161.21149 
L 476.316639 173.975906 
L 476.717508 164.729709 
L 478.721854 181.539502 
L 479.523592 199.160068 
L 480.7262 207.385828 
L 481.127069 208.977797 
L 481.527938 207.009739 
L 481.928807 202.142638 
L 482.329676 182.504336 
L 483.532284 161.388127 
L 483.933153 168.644651 
L 484.334022 169.381471 
L 484.734891 180.733967 
L 485.135761 139.598999 
L 486.338368 133.986242 
L 487.140106 115.392588 
L 487.540976 99.749526 
L 487.941845 115.994161 
L 489.545322 98.017644 
L 489.946191 96.911547 
L 490.747929 126.053189 
L 492.351406 134.367015 
L 492.752275 143.221646 
L 493.153144 106.547543 
L 493.554013 143.601525 
L 494.756621 145.150979 
L 495.15749 163.288434 
L 495.558359 159.37803 
L 495.959228 163.604805 
L 496.360098 155.892281 
L 497.963574 186.120708 
L 498.364443 179.891909 
L 498.765313 150.483092 
L 499.166182 148.98361 
L 500.368789 151.465299 
L 500.769659 126.524603 
L 501.170528 128.274322 
L 501.571397 124.583277 
L 501.972266 116.267841 
L 503.174874 109.805044 
L 503.575743 105.659014 
L 504.377481 91.41405 
L 504.77835 60.079664 
L 505.980958 50.405995 
L 506.381827 52.599422 
L 506.782696 74.517954 
L 507.183565 83.063024 
L 507.584435 66.023417 
L 508.787042 66.970384 
L 509.58878 127.568322 
L 509.98965 144.207649 
L 510.390519 154.3794 
L 511.593126 175.57287 
L 511.993996 173.265333 
L 512.394865 155.63759 
L 512.795734 167.486362 
L 514.399211 179.419334 
L 514.80008 161.189666 
L 515.200949 163.261295 
L 515.601818 167.433703 
L 516.002687 175.162043 
L 517.606164 188.053972 
L 518.007033 182.93597 
L 518.407902 161.331296 
L 518.808772 182.307658 
L 520.011379 178.511127 
L 520.412248 178.420229 
L 520.813118 186.300096 
L 521.614856 195.31982 
L 522.817463 213.298842 
L 523.218333 211.012669 
L 523.619202 209.775734 
L 524.020071 202.496788 
L 524.42094 190.064748 
L 525.623548 185.956204 
L 526.024417 172.881462 
L 526.425286 197.153626 
L 526.826155 174.548428 
L 527.227024 174.366138 
L 528.429632 174.031199 
L 528.830501 184.799285 
L 529.23137 159.391026 
L 529.632239 142.071063 
L 530.033109 114.796174 
L 531.636585 104.400285 
L 532.037455 90.367555 
L 532.438324 86.860409 
L 532.839193 108.038012 
L 534.0418 95.957873 
L 534.44267 111.135057 
L 534.843539 85.989933 
L 535.645277 127.19062 
L 536.847885 140.916792 
L 537.248754 136.452401 
L 537.649623 130.376453 
L 538.050492 148.621743 
L 538.451361 152.523154 
L 540.054838 159.832294 
L 540.455707 163.491016 
L 540.856576 164.548796 
L 541.257446 146.58406 
L 542.460053 159.861183 
L 542.860922 166.569147 
L 543.261792 159.395075 
L 543.662661 155.306259 
L 544.06353 132.553303 
L 546.067876 100.901607 
L 546.468745 107.795532 
L 546.869614 95.743452 
L 548.072222 115.84792 
L 548.473091 130.724442 
L 548.87396 128.117094 
L 549.274829 138.068276 
L 549.675698 141.846075 
L 550.878306 130.39726 
L 551.279175 91.877415 
L 551.680044 85.205781 
L 552.080914 68.023979 
L 552.481783 85.809982 
L 553.68439 102.144237 
L 554.085259 130.738287 
L 554.486129 118.597715 
L 554.886998 112.64804 
L 555.287867 77.139609 
L 556.490475 67.233789 
L 556.891344 73.293032 
L 557.292213 67.768312 
L 557.693082 67.642717 
L 558.093951 73.84124 
L 559.296559 83.645687 
L 559.697428 95.536313 
L 560.098297 90.873345 
L 560.499166 90.370823 
L 560.900035 82.367284 
L 562.102643 60.729805 
L 562.503512 65.487531 
L 562.904381 78.505638 
L 563.70612 122.5599 
L 564.908727 135.2339 
L 565.710466 166.708535 
L 566.111335 145.362551 
L 566.512204 159.803748 
L 567.714812 158.284872 
L 568.115681 182.831407 
L 568.51655 182.649591 
L 568.917419 192.989419 
L 569.318288 192.880967 
L 570.921765 204.965815 
L 571.322634 180.298622 
L 571.723503 179.545933 
L 572.124373 151.490312 
L 573.32698 119.029214 
L 573.727849 153.330216 
L 574.128718 147.890096 
L 574.529588 165.990159 
L 574.930457 156.919492 
L 576.133064 149.713439 
L 576.934803 157.863842 
L 577.736541 171.318155 
L 578.939149 163.47586 
L 579.340018 178.160932 
L 579.740887 165.372212 
L 580.542625 200.655216 
L 581.745233 170.85478 
L 582.146102 156.049748 
L 582.94784 143.974926 
L 583.34871 164.106584 
L 584.551317 160.358375 
L 585.353055 148.079267 
L 585.753925 137.285475 
L 586.154794 160.810278 
L 587.357401 134.13521 
L 587.758271 137.262092 
L 588.960878 121.375427 
L 590.163486 136.988868 
L 590.564355 133.588805 
L 590.965224 147.018128 
L 591.366093 144.065184 
L 591.766962 160.421896 
L 592.96957 159.399006 
L 593.370439 172.160886 
L 593.771308 178.485995 
L 594.172177 174.482048 
L 594.573047 193.677068 
L 595.775654 205.458105 
L 596.176523 204.693484 
L 596.577392 209.169698 
L 596.978262 184.469732 
L 597.379131 173.053957 
L 598.581738 178.331871 
L 598.982608 170.224187 
L 599.383477 165.602921 
L 599.784346 155.489275 
L 600.185215 154.925338 
L 601.387823 145.35322 
L 602.189561 115.16911 
L 602.991299 123.43034 
L 604.193907 119.840255 
L 604.594776 123.6909 
L 604.995645 95.821701 
L 605.797384 169.86402 
L 606.999991 172.842275 
L 607.40086 184.499829 
L 607.801729 177.722947 
L 608.202599 156.337687 
L 608.603468 158.595556 
L 610.206945 135.865599 
L 611.008683 154.688641 
L 611.409552 159.727957 
L 612.61216 164.291983 
L 613.013029 188.833782 
L 613.413898 174.789265 
L 613.814767 179.38605 
L 614.215636 160.404637 
L 615.819113 158.335734 
L 616.219982 164.069195 
L 616.620851 161.252484 
L 617.021721 157.2993 
L 618.625197 155.17933 
L 619.026067 169.838564 
L 619.426936 173.458561 
L 619.827805 143.936752 
L 621.030412 134.70902 
L 621.431282 108.359125 
L 621.832151 92.720174 
L 622.23302 96.563461 
L 622.633889 71.740233 
L 624.237366 87.676683 
L 624.638235 77.7715 
L 625.039104 81.332469 
L 625.439973 78.583543 
L 626.642581 76.913015 
L 627.04345 88.310122 
L 627.444319 82.185801 
L 627.845188 65.325353 
L 628.246058 65.222707 
L 629.448665 78.362707 
L 629.849534 78.212337 
L 630.250404 85.957634 
L 630.651273 70.09879 
L 631.052142 116.921184 
L 632.254749 114.001983 
L 632.655619 112.17207 
L 633.056488 113.16364 
L 633.457357 129.20696 
L 633.858226 132.04985 
L 635.060834 122.467535 
L 635.862572 126.176674 
L 636.263441 145.309641 
L 636.66431 143.185136 
L 638.668656 163.336426 
L 639.069525 205.350505 
L 639.470395 190.213892 
L 640.673002 184.138295 
L 641.073871 179.790685 
L 641.474741 179.790712 
L 641.87561 172.928291 
L 642.276479 148.339766 
L 643.479086 167.975462 
L 643.879956 170.110009 
L 644.280825 179.582385 
L 644.681694 174.037827 
L 645.082563 176.505104 
L 647.086909 129.964883 
L 647.487778 94.730573 
L 647.888647 103.691515 
L 649.091255 113.817988 
L 649.492124 89.125778 
L 650.293863 112.015 
L 650.694732 108.335558 
L 651.897339 107.602148 
L 652.298208 114.418269 
L 652.699078 91.742894 
L 653.099947 75.732101 
L 653.500816 76.787497 
L 654.703424 90.899216 
L 655.104293 90.136969 
L 655.505162 126.273491 
L 655.906031 114.441682 
L 657.509508 105.124279 
L 657.910377 136.691952 
L 658.311246 137.775174 
L 658.712115 113.864626 
L 659.112984 109.949559 
L 660.315592 108.464259 
L 660.716461 106.21717 
L 661.11733 110.427711 
L 661.5182 121.919569 
L 661.919069 113.03243 
L 663.121676 112.228245 
L 663.522545 138.98304 
L 663.923415 113.273664 
L 664.324284 99.677347 
L 664.725153 120.405087 
L 665.927761 124.860556 
L 666.32863 111.664482 
L 666.729499 127.138244 
L 667.130368 126.194918 
L 667.531237 120.896754 
L 668.733845 118.378657 
L 669.134714 122.75949 
L 669.535583 108.649957 
L 669.936452 112.194771 
L 670.337322 117.303281 
L 671.539929 97.222174 
L 671.940798 97.817744 
L 672.341667 106.503301 
L 672.742537 70.326649 
L 673.143406 58.241835 
L 674.346013 72.016337 
L 674.746882 72.228385 
L 675.147752 68.914252 
L 675.548621 86.056937 
L 675.94949 74.091099 
L 677.552967 72.615811 
L 677.953836 87.159227 
L 678.354705 86.638375 
L 678.755574 70.945687 
L 679.958182 70.723958 
L 680.359051 72.573371 
L 680.75992 109.396706 
L 681.160789 108.229028 
L 682.764266 87.918494 
L 683.165135 87.601416 
L 683.566004 93.270136 
L 683.966874 81.504172 
L 684.367743 106.419929 
L 685.97122 111.372197 
L 686.372089 110.584636 
L 686.772958 99.222389 
L 687.173827 108.932799 
L 688.376435 123.326741 
L 688.777304 121.166211 
L 689.178173 89.931855 
L 689.579042 110.56639 
L 689.979911 94.274026 
L 691.182519 108.898783 
L 691.984257 108.54321 
L 692.385126 121.052185 
L 692.785996 117.365487 
L 693.988603 123.581988 
L 694.389472 117.284659 
L 694.790341 103.735431 
L 695.191211 110.806291 
L 695.59208 104.015274 
L 696.794687 97.952519 
L 697.195557 111.034409 
L 697.596426 99.476424 
L 697.997295 123.364665 
L 698.398164 134.057609 
L 699.600772 138.850442 
L 700.001641 138.030922 
L 700.40251 133.330258 
L 700.803379 140.035245 
L 701.204248 108.150869 
L 702.406856 108.831013 
L 702.807725 128.057291 
L 703.208594 161.599916 
L 703.609463 159.692652 
L 704.010333 111.930441 
L 705.21294 102.181627 
L 705.613809 117.52126 
L 706.014678 104.173331 
L 706.415548 102.410091 
L 706.816417 97.62193 
L 708.019024 93.277608 
L 708.820763 111.77155 
L 709.221632 126.556869 
L 709.622501 133.862825 
L 710.825109 122.217871 
L 711.225978 109.86808 
L 711.626847 108.197171 
L 712.027716 168.684589 
L 712.428585 176.722609 
L 713.631193 169.512937 
L 714.032062 148.657453 
L 714.432931 152.245392 
L 714.8338 134.333775 
L 715.23467 145.811624 
L 716.838146 134.773722 
L 717.239016 130.492163 
L 717.639885 109.564249 
L 718.040754 102.268072 
L 719.243361 89.497496 
L 719.644231 98.967838 
L 720.0451 91.736741 
L 720.445969 67.503649 
L 720.846838 100.531735 
L 722.049446 102.167528 
L 722.450315 120.599517 
L 722.851184 131.454577 
L 723.252053 163.611776 
L 723.652922 164.662753 
L 724.85553 153.036914 
L 725.657268 172.219037 
L 726.058137 173.962469 
L 726.459007 193.436445 
L 727.661614 176.639111 
L 728.062483 205.406531 
L 728.463353 192.5343 
L 728.864222 186.688642 
L 729.265091 175.349092 
L 730.467698 168.172773 
L 730.868568 155.423384 
L 731.269437 120.963231 
L 731.670306 117.901711 
L 732.071175 138.883093 
L 733.273783 100.075176 
L 733.674652 106.575953 
L 734.075521 123.464066 
L 734.47639 126.880524 
L 734.877259 150.011071 
L 736.079867 123.702674 
L 736.480736 124.930413 
L 736.881605 149.603293 
L 737.282475 164.231356 
L 737.683344 133.896987 
L 738.885951 123.481251 
L 739.28682 128.707191 
L 740.088559 109.628502 
L 740.489428 114.802309 
L 741.692035 108.406764 
L 742.092905 89.752619 
L 742.493774 92.746128 
L 742.894643 85.605856 
L 743.295512 82.913395 
L 744.49812 90.446417 
L 744.898989 51.022915 
L 745.299858 55.37569 
L 745.700727 69.089971 
L 746.101596 74.497451 
L 747.304204 73.225042 
L 747.705073 98.816032 
L 748.105942 93.262086 
L 748.907681 94.777921 
L 750.110288 95.24474 
L 750.511157 110.236431 
L 750.912027 110.723096 
L 751.312896 102.69624 
L 751.713765 111.618093 
L 752.916373 119.707231 
L 753.317242 125.901213 
L 753.718111 124.37253 
L 754.11898 110.239035 
L 754.519849 118.953125 
L 755.722457 133.722164 
L 756.123326 110.88281 
L 756.925064 128.244249 
L 757.325933 119.891909 
L 758.528541 98.793531 
L 758.92941 96.093795 
L 759.330279 104.768864 
L 759.731149 102.147964 
L 760.132018 91.491389 
L 761.735494 98.369319 
L 762.136364 81.105313 
L 762.537233 89.517029 
L 762.938102 104.031083 
L 764.541579 107.68644 
L 764.942448 126.249547 
L 765.343317 155.402209 
L 765.744186 144.544086 
L 766.946794 136.910145 
L 767.347663 147.854272 
L 768.149401 116.24754 
L 768.550271 127.99959 
L 770.153747 133.705223 
L 770.554616 140.75355 
L 771.356355 123.90935 
L 772.558962 119.709308 
L 773.360701 92.875482 
L 773.76157 61.621059 
L 774.162439 60.24144 
L 775.365047 63.802386 
L 775.765916 89.310242 
L 776.166785 124.593938 
L 776.567654 113.088821 
L 776.968523 78.294507 
L 778.171131 78.479708 
L 778.572 77.127995 
L 778.972869 77.804761 
L 779.373738 84.355046 
L 779.774608 74.097184 
L 780.977215 85.082978 
L 781.378084 100.556431 
L 781.778953 97.809069 
L 782.580692 109.748835 
L 784.184169 110.304109 
L 784.585038 93.712782 
L 784.985907 90.238944 
L 785.386776 119.963625 
L 786.589384 114.381516 
L 786.990253 114.52238 
L 787.391122 121.268219 
L 787.791991 106.046288 
L 788.19286 116.331175 
L 789.395468 108.80444 
L 789.796337 107.492054 
L 790.197206 120.015961 
L 790.598075 101.010078 
L 790.998945 107.425504 
L 792.201552 112.24138 
L 792.602421 106.153067 
L 793.00329 123.226024 
L 793.40416 116.199436 
L 793.805029 133.484338 
L 795.007636 128.700068 
L 795.408506 122.107577 
L 796.210244 132.618752 
L 796.611113 127.045331 
L 797.813721 107.0437 
L 798.21459 111.329629 
L 798.615459 118.163668 
L 799.016328 107.720727 
L 800.619805 82.223669 
L 801.020674 97.501656 
L 801.421543 95.069165 
L 801.822412 124.465854 
L 802.223282 67.950094 
L 803.425889 67.792817 
L 803.826758 70.377591 
L 804.227627 76.779825 
L 804.628497 67.301268 
L 805.029366 93.4913 
L 806.231973 112.934113 
L 806.632843 106.1629 
L 807.033712 124.944882 
L 807.434581 137.86641 
L 807.83545 158.243943 
L 809.038058 145.386448 
L 809.438927 142.952751 
L 809.839796 144.733707 
L 810.240665 176.849482 
L 810.641534 150.460465 
L 811.844142 147.293709 
L 812.245011 162.361555 
L 812.64588 159.308957 
L 813.046749 135.881827 
L 813.447619 125.658329 
L 814.650226 119.124326 
L 815.051095 113.151147 
L 815.451965 109.1393 
L 815.852834 90.022547 
L 816.253703 102.738945 
L 817.45631 111.288788 
L 817.85718 98.80464 
L 818.258049 90.771527 
L 818.658918 117.195398 
L 819.059787 118.087182 
L 820.262395 93.591244 
L 820.663264 110.346048 
L 821.465002 168.184156 
L 821.865871 196.082954 
L 823.870217 178.00332 
L 824.271086 204.292999 
L 824.671956 206.419677 
L 825.874563 184.519287 
L 826.275432 180.021728 
L 826.676302 160.09684 
L 827.077171 124.785734 
L 827.47804 134.574174 
L 828.680647 114.032266 
L 829.081517 110.906075 
L 829.482386 112.873444 
L 829.883255 118.557809 
L 830.284124 117.831755 
L 831.486732 122.37918 
L 831.887601 128.415415 
L 832.689339 99.566423 
L 833.090208 71.505639 
L 834.292816 99.754157 
L 834.693685 100.501046 
L 835.094554 86.098045 
L 835.495424 84.958807 
L 835.896293 103.033034 
L 837.0989 100.234765 
L 837.499769 94.661915 
L 837.900639 102.373354 
L 838.702377 86.32376 
L 840.305854 89.061304 
L 840.706723 83.271934 
L 841.107592 107.389418 
L 841.508461 116.30619 
L 842.711069 110.148899 
L 843.111938 111.33837 
L 843.512807 151.322967 
L 843.913676 179.55957 
L 844.314545 170.719439 
L 845.517153 194.925202 
L 845.918022 188.176638 
L 846.318891 194.137645 
L 846.719761 210.244833 
L 847.12063 193.242972 
L 848.323237 189.697741 
L 848.724106 194.573974 
L 849.124976 159.675369 
L 849.525845 165.33201 
L 849.926714 188.469903 
L 851.129322 196.348717 
L 851.93106 180.686665 
L 852.331929 170.417441 
L 852.732798 166.270811 
L 853.935406 178.225252 
L 854.336275 158.284791 
L 854.737144 156.647702 
L 855.138013 143.403742 
L 855.538882 146.224278 
L 856.74149 140.280123 
L 857.142359 152.652633 
L 857.543228 142.647675 
L 858.344967 60.966633 
L 859.547574 73.333635 
L 859.948443 89.830269 
L 860.349313 111.260146 
L 860.750182 110.645971 
L 861.151051 92.485509 
L 862.754528 111.079876 
L 863.556266 131.267417 
L 863.957135 149.28474 
L 865.159743 140.17638 
L 865.961481 121.903053 
L 866.36235 105.801808 
L 866.76322 109.068118 
L 867.965827 109.24578 
L 868.366696 98.21506 
L 868.767565 91.935113 
L 869.168435 88.56056 
L 869.569304 96.412826 
L 870.771911 84.027119 
L 871.17278 71.664882 
L 871.57365 85.49655 
L 871.974519 58.444034 
L 872.375388 84.05446 
L 873.577996 103.885232 
L 873.978865 129.359274 
L 874.379734 144.325951 
L 874.780603 154.23173 
L 875.181472 125.370267 
L 876.38408 155.241923 
L 876.784949 145.663097 
L 877.185818 149.765027 
L 877.586687 150.843083 
L 877.987557 151.322959 
L 879.190164 155.511334 
L 879.591033 150.545206 
L 879.991902 148.70847 
L 880.793641 121.09642 
L 881.996248 114.969574 
L 882.397118 110.779768 
L 883.198856 132.91355 
L 883.599725 94.49086 
L 884.802333 99.716055 
L 885.203202 99.757111 
L 885.604071 98.066788 
L 886.00494 143.642132 
L 886.405809 98.14237 
L 887.608417 107.164088 
L 888.410155 84.397966 
L 888.811024 82.334895 
L 889.211894 88.595193 
L 890.414501 93.655299 
L 890.81537 74.373485 
L 891.216239 70.516377 
L 891.617109 80.772864 
L 892.017978 105.583171 
L 893.220585 111.354777 
L 893.621455 109.791246 
L 894.022324 98.470296 
L 894.423193 131.272233 
L 894.824062 129.119158 
L 896.02667 127.716229 
L 896.427539 130.463006 
L 896.828408 142.977711 
L 897.630146 133.043095 
L 898.832754 123.122621 
L 899.233623 121.698748 
L 899.634492 122.708732 
L 900.035361 110.731502 
L 900.436231 71.119213 
L 901.638838 71.234726 
L 902.039707 78.972722 
L 902.841446 52.946632 
L 903.242315 54.041084 
L 904.444922 53.143658 
L 904.845792 67.075895 
L 905.246661 98.085403 
L 905.64753 97.09309 
L 906.048399 99.020043 
L 907.651876 104.931401 
L 908.453614 115.83476 
L 908.854483 141.289854 
L 910.057091 144.957176 
L 910.45796 146.933584 
L 911.259698 161.148994 
L 911.660568 145.183537 
L 912.863175 131.945158 
L 913.264044 160.150401 
L 913.664914 156.481442 
L 914.466652 137.457586 
L 915.669259 149.095709 
L 916.070129 157.907601 
L 916.470998 137.548087 
L 916.871867 158.851201 
L 917.272736 135.547086 
L 918.876213 112.892309 
L 919.277082 95.701036 
L 919.677951 87.941308 
L 920.07882 91.560514 
L 921.281428 98.197359 
L 921.682297 99.693944 
L 922.083166 79.683964 
L 922.484035 91.355765 
L 922.884905 70.68419 
L 924.087512 69.561824 
L 924.488381 60.145982 
L 924.889251 94.543775 
L 925.29012 78.732888 
L 925.690989 123.830417 
L 926.893596 125.777197 
L 927.695335 150.044724 
L 928.096204 144.309091 
L 928.497073 149.890112 
L 930.10055 162.778098 
L 930.501419 160.669609 
L 930.902288 163.279499 
L 931.303157 183.97135 
L 932.505765 188.454963 
L 932.906634 205.417757 
L 933.307503 192.564024 
L 933.708373 209.852987 
L 934.109242 182.799924 
L 935.311849 209.804767 
L 935.712718 210.530859 
L 936.113588 186.9311 
L 936.514457 201.119215 
L 936.915326 200.897596 
L 938.117933 203.255256 
L 938.518803 196.171043 
L 938.919672 184.730787 
L 939.320541 183.157811 
L 939.72141 165.271197 
L 940.924018 168.886349 
L 941.324887 177.30582 
L 941.725756 161.447597 
L 942.126625 172.872597 
L 942.527494 155.836365 
L 943.730102 133.598781 
L 944.130971 138.834847 
L 944.53184 131.200735 
L 944.93271 126.624033 
L 945.333579 136.833688 
L 946.536186 147.853178 
L 946.937055 148.94898 
L 947.337925 126.953145 
L 947.738794 170.418809 
L 948.139663 176.615662 
L 949.342271 163.115491 
L 949.74314 174.722045 
L 950.144009 137.38943 
L 950.544878 150.245399 
L 950.945747 155.121336 
L 952.148355 161.470514 
L 952.549224 159.542968 
L 952.950093 164.674922 
L 953.350962 158.280134 
L 954.954439 161.012692 
L 955.756177 150.127657 
L 956.157047 121.683747 
L 956.557916 107.346477 
L 957.760523 114.405486 
L 958.161392 106.840957 
L 958.562262 145.610831 
L 958.963131 113.103659 
L 959.364 120.636121 
L 960.566608 122.81823 
L 960.967477 119.848934 
L 961.368346 98.136155 
L 961.769215 87.573508 
L 962.170084 67.525377 
L 963.372692 58.836832 
L 963.773561 62.609838 
L 964.17443 72.911981 
L 964.575299 93.999852 
L 964.976169 89.168048 
L 966.178776 87.292813 
L 966.579645 84.291062 
L 966.980514 103.90832 
L 967.782253 94.43361 
L 969.385729 82.150446 
L 969.786599 92.067116 
L 970.588337 100.388366 
L 972.191814 156.30739 
L 972.592683 144.936691 
L 972.993552 118.696696 
L 973.394421 100.016484 
L 974.597029 92.532725 
L 974.997898 80.064806 
L 975.398767 87.898128 
L 975.799636 92.54227 
L 976.200506 87.229546 
L 977.403113 89.852151 
L 977.803982 89.736338 
L 978.204851 104.908732 
L 979.00659 114.834572 
L 980.209197 125.431792 
L 980.610067 108.258783 
L 981.010936 115.733484 
L 981.411805 104.065767 
L 981.812674 102.882311 
L 983.015282 125.132565 
L 983.416151 123.915372 
L 983.81702 110.275988 
L 984.217889 101.969948 
L 985.821366 97.399142 
L 986.222235 122.345036 
L 986.623104 109.832291 
L 987.023973 102.398912 
L 987.424843 85.131042 
L 988.62745 78.512064 
L 989.028319 85.181213 
L 990.230927 120.31161 
L 991.433534 89.047935 
L 991.834404 102.580693 
L 992.235273 97.17545 
L 992.636142 95.889815 
L 993.037011 100.250802 
L 994.239619 72.434149 
L 994.640488 92.365513 
L 995.041357 95.73182 
L 995.442226 92.260733 
L 995.843095 160.320034 
L 997.045703 167.986385 
L 997.446572 155.75662 
L 997.847441 135.65705 
L 998.24831 138.859987 
L 998.64918 147.507748 
L 999.851787 146.624213 
L 1000.252656 148.341521 
L 1000.653525 150.657905 
L 1001.054395 133.31416 
L 1001.455264 136.186389 
L 1002.657871 131.252216 
L 1003.058741 136.986517 
L 1003.45961 154.212099 
L 1003.860479 109.629116 
L 1004.261348 83.274656 
L 1005.463956 90.581282 
L 1005.864825 108.759991 
L 1006.265694 109.973801 
L 1006.666563 101.158009 
L 1007.067432 106.356393 
L 1008.670909 120.498741 
L 1008.670909 120.498741 
" clip-path="url(#pe37b1f654e)" style="fill: none; stroke: #1f77b4; stroke-width: 1.5; stroke-linecap: square"/>
   </g>
   <g id="patch_3">
    <path d="M 145.8 224.28 
L 145.8 30.24 
" style="fill: none; stroke: #000000; stroke-width: 0.8; stroke-linejoin: miter; stroke-linecap: square"/>
   </g>
   <g id="patch_4">
    <path d="M 145.8 224.28 
L 1049.76 224.28 
" style="fill: none; stroke: #000000; stroke-width: 0.8; stroke-linejoin: miter; stroke-linecap: square"/>
   </g>
  </g>
 </g>
 <defs>
  <clipPath id="pe37b1f654e">
   <rect x="145.8" y="30.24" width="903.96" height="194.04"/>
  </clipPath>
 </defs>
</svg>
