<?xml version="1.0" encoding="utf-8" standalone="no"?>
<!DOCTYPE svg PUBLIC "-//W3C//DTD SVG 1.1//EN"
  "http://www.w3.org/Graphics/SVG/1.1/DTD/svg11.dtd">
<svg xmlns:xlink="http://www.w3.org/1999/xlink" width="1166.4pt" height="252pt" viewBox="0 0 1166.4 252" xmlns="http://www.w3.org/2000/svg" version="1.1">
 <metadata>
  <rdf:RDF xmlns:dc="http://purl.org/dc/elements/1.1/" xmlns:cc="http://creativecommons.org/ns#" xmlns:rdf="http://www.w3.org/1999/02/22-rdf-syntax-ns#">
   <cc:Work>
    <dc:type rdf:resource="http://purl.org/dc/dcmitype/StillImage"/>
    <dc:date>2025-09-08T17:06:59.564443</dc:date>
    <dc:format>image/svg+xml</dc:format>
    <dc:creator>
     <cc:Agent>
      <dc:title>Matplotlib v3.10.5, https://matplotlib.org/</dc:title>
     </cc:Agent>
    </dc:creator>
   </cc:Work>
  </rdf:RDF>
 </metadata>
 <defs>
  <style type="text/css">*{stroke-linejoin: round; stroke-linecap: butt}</style>
 </defs>
 <g id="figure_1">
  <g id="patch_1">
   <path d="M 0 252 
L 1166.4 252 
L 1166.4 0 
L 0 0 
z
" style="fill: #ffffff"/>
  </g>
  <g id="axes_1">
   <g id="patch_2">
    <path d="M 145.8 224.28 
L 1049.76 224.28 
L 1049.76 30.24 
L 145.8 30.24 
z
" style="fill: #ffffff"/>
   </g>
   <g id="matplotlib.axis_1">
    <g id="xtick_1">
     <g id="line2d_1">
      <defs>
       <path id="m08adf2360f" d="M 0 0 
L 0 3.5 
" style="stroke: #000000; stroke-width: 0.8"/>
      </defs>
      <g>
       <use xlink:href="#m08adf2360f" x="178.48314" y="224.28" style="stroke: #000000; stroke-width: 0.8"/>
      </g>
     </g>
     <g id="text_1">
      <!-- 2020 -->
      <g transform="translate(165.75814 238.878438) scale(0.1 -0.1)">
       <defs>
        <path id="DejaVuSans-32" d="M 1228 531 
L 3431 531 
L 3431 0 
L 469 0 
L 469 531 
Q 828 903 1448 1529 
Q 2069 2156 2228 2338 
Q 2531 2678 2651 2914 
Q 2772 3150 2772 3378 
Q 2772 3750 2511 3984 
Q 2250 4219 1831 4219 
Q 1534 4219 1204 4116 
Q 875 4013 500 3803 
L 500 4441 
Q 881 4594 1212 4672 
Q 1544 4750 1819 4750 
Q 2544 4750 2975 4387 
Q 3406 4025 3406 3419 
Q 3406 3131 3298 2873 
Q 3191 2616 2906 2266 
Q 2828 2175 2409 1742 
Q 1991 1309 1228 531 
z
" transform="scale(0.015625)"/>
        <path id="DejaVuSans-30" d="M 2034 4250 
Q 1547 4250 1301 3770 
Q 1056 3291 1056 2328 
Q 1056 1369 1301 889 
Q 1547 409 2034 409 
Q 2525 409 2770 889 
Q 3016 1369 3016 2328 
Q 3016 3291 2770 3770 
Q 2525 4250 2034 4250 
z
M 2034 4750 
Q 2819 4750 3233 4129 
Q 3647 3509 3647 2328 
Q 3647 1150 3233 529 
Q 2819 -91 2034 -91 
Q 1250 -91 836 529 
Q 422 1150 422 2328 
Q 422 3509 836 4129 
Q 1250 4750 2034 4750 
z
" transform="scale(0.015625)"/>
       </defs>
       <use xlink:href="#DejaVuSans-32"/>
       <use xlink:href="#DejaVuSans-30" transform="translate(63.623047 0)"/>
       <use xlink:href="#DejaVuSans-32" transform="translate(127.246094 0)"/>
       <use xlink:href="#DejaVuSans-30" transform="translate(190.869141 0)"/>
      </g>
     </g>
    </g>
    <g id="xtick_2">
     <g id="line2d_2">
      <g>
       <use xlink:href="#m08adf2360f" x="324.986864" y="224.28" style="stroke: #000000; stroke-width: 0.8"/>
      </g>
     </g>
     <g id="text_2">
      <!-- 2021 -->
      <g transform="translate(312.261864 238.878438) scale(0.1 -0.1)">
       <defs>
        <path id="DejaVuSans-31" d="M 794 531 
L 1825 531 
L 1825 4091 
L 703 3866 
L 703 4441 
L 1819 4666 
L 2450 4666 
L 2450 531 
L 3481 531 
L 3481 0 
L 794 0 
L 794 531 
z
" transform="scale(0.015625)"/>
       </defs>
       <use xlink:href="#DejaVuSans-32"/>
       <use xlink:href="#DejaVuSans-30" transform="translate(63.623047 0)"/>
       <use xlink:href="#DejaVuSans-32" transform="translate(127.246094 0)"/>
       <use xlink:href="#DejaVuSans-31" transform="translate(190.869141 0)"/>
      </g>
     </g>
    </g>
    <g id="xtick_3">
     <g id="line2d_3">
      <g>
       <use xlink:href="#m08adf2360f" x="471.090304" y="224.28" style="stroke: #000000; stroke-width: 0.8"/>
      </g>
     </g>
     <g id="text_3">
      <!-- 2022 -->
      <g transform="translate(458.365304 238.878438) scale(0.1 -0.1)">
       <use xlink:href="#DejaVuSans-32"/>
       <use xlink:href="#DejaVuSans-30" transform="translate(63.623047 0)"/>
       <use xlink:href="#DejaVuSans-32" transform="translate(127.246094 0)"/>
       <use xlink:href="#DejaVuSans-32" transform="translate(190.869141 0)"/>
      </g>
     </g>
    </g>
    <g id="xtick_4">
     <g id="line2d_4">
      <g>
       <use xlink:href="#m08adf2360f" x="617.193745" y="224.28" style="stroke: #000000; stroke-width: 0.8"/>
      </g>
     </g>
     <g id="text_4">
      <!-- 2023 -->
      <g transform="translate(604.468745 238.878438) scale(0.1 -0.1)">
       <defs>
        <path id="DejaVuSans-33" d="M 2597 2516 
Q 3050 2419 3304 2112 
Q 3559 1806 3559 1356 
Q 3559 666 3084 287 
Q 2609 -91 1734 -91 
Q 1441 -91 1130 -33 
Q 819 25 488 141 
L 488 750 
Q 750 597 1062 519 
Q 1375 441 1716 441 
Q 2309 441 2620 675 
Q 2931 909 2931 1356 
Q 2931 1769 2642 2001 
Q 2353 2234 1838 2234 
L 1294 2234 
L 1294 2753 
L 1863 2753 
Q 2328 2753 2575 2939 
Q 2822 3125 2822 3475 
Q 2822 3834 2567 4026 
Q 2313 4219 1838 4219 
Q 1578 4219 1281 4162 
Q 984 4106 628 3988 
L 628 4550 
Q 988 4650 1302 4700 
Q 1616 4750 1894 4750 
Q 2613 4750 3031 4423 
Q 3450 4097 3450 3541 
Q 3450 3153 3228 2886 
Q 3006 2619 2597 2516 
z
" transform="scale(0.015625)"/>
       </defs>
       <use xlink:href="#DejaVuSans-32"/>
       <use xlink:href="#DejaVuSans-30" transform="translate(63.623047 0)"/>
       <use xlink:href="#DejaVuSans-32" transform="translate(127.246094 0)"/>
       <use xlink:href="#DejaVuSans-33" transform="translate(190.869141 0)"/>
      </g>
     </g>
    </g>
    <g id="xtick_5">
     <g id="line2d_5">
      <g>
       <use xlink:href="#m08adf2360f" x="763.297185" y="224.28" style="stroke: #000000; stroke-width: 0.8"/>
      </g>
     </g>
     <g id="text_5">
      <!-- 2024 -->
      <g transform="translate(750.572185 238.878438) scale(0.1 -0.1)">
       <defs>
        <path id="DejaVuSans-34" d="M 2419 4116 
L 825 1625 
L 2419 1625 
L 2419 4116 
z
M 2253 4666 
L 3047 4666 
L 3047 1625 
L 3713 1625 
L 3713 1100 
L 3047 1100 
L 3047 0 
L 2419 0 
L 2419 1100 
L 313 1100 
L 313 1709 
L 2253 4666 
z
" transform="scale(0.015625)"/>
       </defs>
       <use xlink:href="#DejaVuSans-32"/>
       <use xlink:href="#DejaVuSans-30" transform="translate(63.623047 0)"/>
       <use xlink:href="#DejaVuSans-32" transform="translate(127.246094 0)"/>
       <use xlink:href="#DejaVuSans-34" transform="translate(190.869141 0)"/>
      </g>
     </g>
    </g>
    <g id="xtick_6">
     <g id="line2d_6">
      <g>
       <use xlink:href="#m08adf2360f" x="909.80091" y="224.28" style="stroke: #000000; stroke-width: 0.8"/>
      </g>
     </g>
     <g id="text_6">
      <!-- 2025 -->
      <g transform="translate(897.07591 238.878438) scale(0.1 -0.1)">
       <defs>
        <path id="DejaVuSans-35" d="M 691 4666 
L 3169 4666 
L 3169 4134 
L 1269 4134 
L 1269 2991 
Q 1406 3038 1543 3061 
Q 1681 3084 1819 3084 
Q 2600 3084 3056 2656 
Q 3513 2228 3513 1497 
Q 3513 744 3044 326 
Q 2575 -91 1722 -91 
Q 1428 -91 1123 -41 
Q 819 9 494 109 
L 494 744 
Q 775 591 1075 516 
Q 1375 441 1709 441 
Q 2250 441 2565 725 
Q 2881 1009 2881 1497 
Q 2881 1984 2565 2268 
Q 2250 2553 1709 2553 
Q 1456 2553 1204 2497 
Q 953 2441 691 2322 
L 691 4666 
z
" transform="scale(0.015625)"/>
       </defs>
       <use xlink:href="#DejaVuSans-32"/>
       <use xlink:href="#DejaVuSans-30" transform="translate(63.623047 0)"/>
       <use xlink:href="#DejaVuSans-32" transform="translate(127.246094 0)"/>
       <use xlink:href="#DejaVuSans-35" transform="translate(190.869141 0)"/>
      </g>
     </g>
    </g>
   </g>
   <g id="matplotlib.axis_2">
    <g id="ytick_1">
     <g id="line2d_7">
      <defs>
       <path id="me36ba2ab58" d="M 0 0 
L -3.5 0 
" style="stroke: #000000; stroke-width: 0.8"/>
      </defs>
      <g>
       <use xlink:href="#me36ba2ab58" x="145.8" y="223.492138" style="stroke: #000000; stroke-width: 0.8"/>
      </g>
     </g>
     <g id="text_7">
      <!-- 10 -->
      <g transform="translate(126.075 227.291356) scale(0.1 -0.1)">
       <use xlink:href="#DejaVuSans-31"/>
       <use xlink:href="#DejaVuSans-30" transform="translate(63.623047 0)"/>
      </g>
     </g>
    </g>
    <g id="ytick_2">
     <g id="line2d_8">
      <g>
       <use xlink:href="#me36ba2ab58" x="145.8" y="200.701871" style="stroke: #000000; stroke-width: 0.8"/>
      </g>
     </g>
     <g id="text_8">
      <!-- 20 -->
      <g transform="translate(126.075 204.501089) scale(0.1 -0.1)">
       <use xlink:href="#DejaVuSans-32"/>
       <use xlink:href="#DejaVuSans-30" transform="translate(63.623047 0)"/>
      </g>
     </g>
    </g>
    <g id="ytick_3">
     <g id="line2d_9">
      <g>
       <use xlink:href="#me36ba2ab58" x="145.8" y="177.911604" style="stroke: #000000; stroke-width: 0.8"/>
      </g>
     </g>
     <g id="text_9">
      <!-- 30 -->
      <g transform="translate(126.075 181.710822) scale(0.1 -0.1)">
       <use xlink:href="#DejaVuSans-33"/>
       <use xlink:href="#DejaVuSans-30" transform="translate(63.623047 0)"/>
      </g>
     </g>
    </g>
    <g id="ytick_4">
     <g id="line2d_10">
      <g>
       <use xlink:href="#me36ba2ab58" x="145.8" y="155.121336" style="stroke: #000000; stroke-width: 0.8"/>
      </g>
     </g>
     <g id="text_10">
      <!-- 40 -->
      <g transform="translate(126.075 158.920555) scale(0.1 -0.1)">
       <use xlink:href="#DejaVuSans-34"/>
       <use xlink:href="#DejaVuSans-30" transform="translate(63.623047 0)"/>
      </g>
     </g>
    </g>
    <g id="ytick_5">
     <g id="line2d_11">
      <g>
       <use xlink:href="#me36ba2ab58" x="145.8" y="132.331069" style="stroke: #000000; stroke-width: 0.8"/>
      </g>
     </g>
     <g id="text_11">
      <!-- 50 -->
      <g transform="translate(126.075 136.130288) scale(0.1 -0.1)">
       <use xlink:href="#DejaVuSans-35"/>
       <use xlink:href="#DejaVuSans-30" transform="translate(63.623047 0)"/>
      </g>
     </g>
    </g>
    <g id="ytick_6">
     <g id="line2d_12">
      <g>
       <use xlink:href="#me36ba2ab58" x="145.8" y="109.540802" style="stroke: #000000; stroke-width: 0.8"/>
      </g>
     </g>
     <g id="text_12">
      <!-- 60 -->
      <g transform="translate(126.075 113.340021) scale(0.1 -0.1)">
       <defs>
        <path id="DejaVuSans-36" d="M 2113 2584 
Q 1688 2584 1439 2293 
Q 1191 2003 1191 1497 
Q 1191 994 1439 701 
Q 1688 409 2113 409 
Q 2538 409 2786 701 
Q 3034 994 3034 1497 
Q 3034 2003 2786 2293 
Q 2538 2584 2113 2584 
z
M 3366 4563 
L 3366 3988 
Q 3128 4100 2886 4159 
Q 2644 4219 2406 4219 
Q 1781 4219 1451 3797 
Q 1122 3375 1075 2522 
Q 1259 2794 1537 2939 
Q 1816 3084 2150 3084 
Q 2853 3084 3261 2657 
Q 3669 2231 3669 1497 
Q 3669 778 3244 343 
Q 2819 -91 2113 -91 
Q 1303 -91 875 529 
Q 447 1150 447 2328 
Q 447 3434 972 4092 
Q 1497 4750 2381 4750 
Q 2619 4750 2861 4703 
Q 3103 4656 3366 4563 
z
" transform="scale(0.015625)"/>
       </defs>
       <use xlink:href="#DejaVuSans-36"/>
       <use xlink:href="#DejaVuSans-30" transform="translate(63.623047 0)"/>
      </g>
     </g>
    </g>
    <g id="ytick_7">
     <g id="line2d_13">
      <g>
       <use xlink:href="#me36ba2ab58" x="145.8" y="86.750535" style="stroke: #000000; stroke-width: 0.8"/>
      </g>
     </g>
     <g id="text_13">
      <!-- 70 -->
      <g transform="translate(126.075 90.549754) scale(0.1 -0.1)">
       <defs>
        <path id="DejaVuSans-37" d="M 525 4666 
L 3525 4666 
L 3525 4397 
L 1831 0 
L 1172 0 
L 2766 4134 
L 525 4134 
L 525 4666 
z
" transform="scale(0.015625)"/>
       </defs>
       <use xlink:href="#DejaVuSans-37"/>
       <use xlink:href="#DejaVuSans-30" transform="translate(63.623047 0)"/>
      </g>
     </g>
    </g>
    <g id="ytick_8">
     <g id="line2d_14">
      <g>
       <use xlink:href="#me36ba2ab58" x="145.8" y="63.960268" style="stroke: #000000; stroke-width: 0.8"/>
      </g>
     </g>
     <g id="text_14">
      <!-- 80 -->
      <g transform="translate(126.075 67.759487) scale(0.1 -0.1)">
       <defs>
        <path id="DejaVuSans-38" d="M 2034 2216 
Q 1584 2216 1326 1975 
Q 1069 1734 1069 1313 
Q 1069 891 1326 650 
Q 1584 409 2034 409 
Q 2484 409 2743 651 
Q 3003 894 3003 1313 
Q 3003 1734 2745 1975 
Q 2488 2216 2034 2216 
z
M 1403 2484 
Q 997 2584 770 2862 
Q 544 3141 544 3541 
Q 544 4100 942 4425 
Q 1341 4750 2034 4750 
Q 2731 4750 3128 4425 
Q 3525 4100 3525 3541 
Q 3525 3141 3298 2862 
Q 3072 2584 2669 2484 
Q 3125 2378 3379 2068 
Q 3634 1759 3634 1313 
Q 3634 634 3220 271 
Q 2806 -91 2034 -91 
Q 1263 -91 848 271 
Q 434 634 434 1313 
Q 434 1759 690 2068 
Q 947 2378 1403 2484 
z
M 1172 3481 
Q 1172 3119 1398 2916 
Q 1625 2713 2034 2713 
Q 2441 2713 2670 2916 
Q 2900 3119 2900 3481 
Q 2900 3844 2670 4047 
Q 2441 4250 2034 4250 
Q 1625 4250 1398 4047 
Q 1172 3844 1172 3481 
z
" transform="scale(0.015625)"/>
       </defs>
       <use xlink:href="#DejaVuSans-38"/>
       <use xlink:href="#DejaVuSans-30" transform="translate(63.623047 0)"/>
      </g>
     </g>
    </g>
    <g id="ytick_9">
     <g id="line2d_15">
      <g>
       <use xlink:href="#me36ba2ab58" x="145.8" y="41.170001" style="stroke: #000000; stroke-width: 0.8"/>
      </g>
     </g>
     <g id="text_15">
      <!-- 90 -->
      <g transform="translate(126.075 44.96922) scale(0.1 -0.1)">
       <defs>
        <path id="DejaVuSans-39" d="M 703 97 
L 703 672 
Q 941 559 1184 500 
Q 1428 441 1663 441 
Q 2288 441 2617 861 
Q 2947 1281 2994 2138 
Q 2813 1869 2534 1725 
Q 2256 1581 1919 1581 
Q 1219 1581 811 2004 
Q 403 2428 403 3163 
Q 403 3881 828 4315 
Q 1253 4750 1959 4750 
Q 2769 4750 3195 4129 
Q 3622 3509 3622 2328 
Q 3622 1225 3098 567 
Q 2575 -91 1691 -91 
Q 1453 -91 1209 -44 
Q 966 3 703 97 
z
M 1959 2075 
Q 2384 2075 2632 2365 
Q 2881 2656 2881 3163 
Q 2881 3666 2632 3958 
Q 2384 4250 1959 4250 
Q 1534 4250 1286 3958 
Q 1038 3666 1038 3163 
Q 1038 2656 1286 2365 
Q 1534 2075 1959 2075 
z
" transform="scale(0.015625)"/>
       </defs>
       <use xlink:href="#DejaVuSans-39"/>
       <use xlink:href="#DejaVuSans-30" transform="translate(63.623047 0)"/>
      </g>
     </g>
    </g>
   </g>
   <g id="line2d_16">
    <path d="M 186.889091 138.490707 
L 187.289374 140.05824 
L 187.689658 140.004525 
L 188.890508 174.103047 
L 189.290791 159.570268 
L 189.691075 150.408527 
L 190.091358 148.22553 
L 190.491642 89.985506 
L 191.692492 93.842784 
L 192.092775 74.943074 
L 192.893342 76.979426 
L 193.293625 66.344321 
L 194.494475 63.047165 
L 194.894759 59.180192 
L 195.295042 56.985357 
L 195.695326 50.979169 
L 196.095609 41.706268 
L 197.696743 41.957687 
L 198.097026 41.366914 
L 198.497309 50.972638 
L 198.897593 100.733224 
L 200.098443 130.869374 
L 200.498726 154.930951 
L 200.89901 150.175372 
L 201.299293 172.571863 
L 201.699577 182.812283 
L 202.900427 177.209357 
L 203.30071 189.14344 
L 203.700994 171.005033 
L 204.101277 176.373329 
L 204.50156 177.310556 
L 205.702411 192.544134 
L 206.102694 174.708913 
L 206.502977 179.511165 
L 206.903261 186.050482 
L 207.303544 160.377802 
L 208.504394 165.626418 
L 209.304961 138.461726 
L 209.705245 132.634318 
L 210.105528 144.330289 
L 211.306378 133.008562 
L 211.706662 136.376213 
L 212.106945 136.644181 
L 212.507228 126.459068 
L 212.907512 121.112867 
L 214.108362 123.971577 
L 214.508645 116.48243 
L 214.908929 100.383997 
L 215.309212 111.354607 
L 215.709496 93.820691 
L 217.310629 98.270956 
L 217.710913 100.924354 
L 218.111196 91.836668 
L 219.71233 83.654755 
L 220.112613 76.457496 
L 220.512896 60.594516 
L 220.91318 58.735944 
L 221.313463 52.601734 
L 222.514313 55.045632 
L 222.914597 69.361281 
L 223.31488 55.738951 
L 223.715164 54.4193 
L 224.115447 50.51814 
L 225.316297 65.445694 
L 225.716581 82.564965 
L 226.116864 80.136949 
L 226.517147 72.468024 
L 226.917431 117.205614 
L 228.518564 130.844399 
L 228.918848 141.485697 
L 229.319131 133.548345 
L 229.719415 134.659381 
L 230.920265 118.131919 
L 231.320548 133.450441 
L 231.720832 137.938211 
L 232.121115 136.072105 
L 232.521398 126.294326 
L 233.722249 110.745333 
L 234.122532 116.645957 
L 234.522815 126.91792 
L 234.923099 82.46185 
L 235.323382 92.644547 
L 236.924516 99.422021 
L 237.324799 112.415778 
L 237.725083 120.811068 
L 238.125366 112.495296 
L 239.326216 112.683598 
L 239.7265 89.771682 
L 240.126783 90.940582 
L 240.527066 105.170957 
L 240.92735 104.749186 
L 242.1282 98.25856 
L 242.528483 86.988138 
L 242.928767 87.354031 
L 243.32905 101.944369 
L 243.729334 103.002493 
L 244.930184 92.62187 
L 245.330467 82.006966 
L 245.730751 75.424197 
L 246.131034 78.991423 
L 246.531317 80.033382 
L 247.732168 75.243074 
L 248.132451 70.425862 
L 248.532734 74.411944 
L 248.933018 74.643819 
L 249.333301 97.802711 
L 250.534151 113.943488 
L 250.934435 108.142094 
L 251.334718 66.482282 
L 251.735002 61.272576 
L 253.336135 52.661567 
L 253.736419 70.312264 
L 254.136702 66.546691 
L 254.536985 61.535901 
L 254.937269 61.722328 
L 256.938686 98.297107 
L 257.338969 101.536033 
L 257.739253 97.642169 
L 258.940103 79.137464 
L 260.140953 122.420963 
L 260.541236 138.030138 
L 261.742087 125.7351 
L 262.14237 142.275745 
L 262.542653 152.149273 
L 262.942937 151.996545 
L 263.34322 124.429438 
L 264.54407 128.830453 
L 264.944354 115.104752 
L 265.744921 98.989244 
L 266.145204 136.970461 
L 267.346054 130.682845 
L 267.746338 135.412584 
L 268.146621 102.876313 
L 268.546904 106.010934 
L 268.947188 115.416514 
L 270.148038 98.022809 
L 270.548321 87.025985 
L 271.348888 109.400455 
L 271.749172 100.527773 
L 272.950022 101.088715 
L 273.350305 104.911282 
L 273.750588 95.075752 
L 274.150872 91.412217 
L 274.551155 86.459774 
L 275.752005 63.356729 
L 276.152289 65.955023 
L 276.552572 63.070247 
L 276.952856 99.343832 
L 277.353139 116.325746 
L 278.954273 155.111796 
L 279.354556 131.278748 
L 279.754839 147.200122 
L 280.155123 151.859937 
L 281.355973 156.262146 
L 281.756256 154.289849 
L 282.15654 175.04038 
L 282.556823 177.004841 
L 282.957107 180.82754 
L 284.157957 187.864902 
L 284.55824 169.761355 
L 284.958524 181.836553 
L 285.75909 153.339489 
L 286.959941 129.616271 
L 287.360224 147.547274 
L 287.760507 135.92277 
L 288.160791 118.258973 
L 288.561074 129.642147 
L 289.761924 127.189925 
L 290.162208 129.778416 
L 290.562491 111.073478 
L 291.363058 96.730963 
L 292.563908 97.660406 
L 292.964192 76.355055 
L 293.364475 91.651251 
L 293.764758 101.940751 
L 294.165042 119.841147 
L 295.365892 124.746484 
L 295.766175 124.074919 
L 296.166459 136.91977 
L 296.566742 125.13754 
L 296.967026 131.55956 
L 298.167876 114.157759 
L 298.568159 116.561808 
L 298.968443 136.422674 
L 299.368726 144.211217 
L 299.769009 194.625345 
L 300.96986 196.895284 
L 301.370143 180.94406 
L 301.770426 144.582377 
L 302.17071 126.23704 
L 302.570993 118.637992 
L 304.172127 147.843528 
L 304.57241 136.050596 
L 304.972694 141.311898 
L 305.372977 139.697682 
L 306.573827 147.946377 
L 306.974111 135.378407 
L 307.374394 144.405867 
L 307.774677 121.265557 
L 308.174961 119.120206 
L 309.375811 124.990102 
L 309.776094 155.603783 
L 310.176378 158.826421 
L 310.976945 154.796055 
L 312.177795 126.153282 
L 312.578078 78.472499 
L 312.978362 107.678743 
L 313.378645 102.841365 
L 313.778928 119.547923 
L 314.979779 122.211607 
L 315.380062 117.415883 
L 315.780345 132.728786 
L 316.180629 137.357258 
L 316.580912 126.780292 
L 317.781762 115.168375 
L 318.182046 118.122672 
L 318.582329 115.842403 
L 318.982613 120.141886 
L 319.382896 122.459878 
L 320.583746 136.983039 
L 320.98403 131.28032 
L 321.384313 132.837166 
L 321.784596 128.698513 
L 323.38573 98.466148 
L 323.786013 95.073348 
L 324.186297 81.303823 
L 324.58658 91.316416 
L 326.187714 115.910662 
L 326.587997 117.67756 
L 326.988281 137.865697 
L 327.388564 150.344564 
L 327.788847 144.161965 
L 328.989698 150.50678 
L 329.389981 150.004926 
L 329.790264 140.112222 
L 330.190548 143.089976 
L 330.590831 144.852915 
L 332.191965 167.548385 
L 332.592248 142.889717 
L 332.992532 128.567679 
L 333.392815 125.904768 
L 334.593665 110.381431 
L 334.993949 110.340196 
L 335.794515 116.763212 
L 336.194799 127.576514 
L 337.395649 91.062741 
L 337.795932 87.713613 
L 338.196216 107.912948 
L 338.996783 89.678925 
L 340.197633 98.199691 
L 340.597916 123.713108 
L 340.9982 136.759995 
L 341.398483 138.744274 
L 341.798766 135.714524 
L 343.3999 144.735892 
L 343.800183 113.945078 
L 344.200467 111.083749 
L 344.60075 122.9859 
L 345.8016 172.035498 
L 346.201884 180.156672 
L 346.602167 174.908341 
L 347.002451 195.577346 
L 347.402734 190.477662 
L 348.603584 170.200587 
L 349.003868 174.729159 
L 349.404151 182.719587 
L 349.804434 183.015697 
L 350.204718 181.155748 
L 351.405568 184.924955 
L 351.805851 169.279616 
L 352.206135 173.794221 
L 352.606418 153.866254 
L 353.006702 147.70803 
L 354.207552 151.511683 
L 354.607835 144.27753 
L 355.008118 117.07791 
L 355.408402 143.561204 
L 355.808685 144.75802 
L 357.009535 129.408042 
L 357.409819 106.031541 
L 357.810102 111.433911 
L 358.210386 123.845175 
L 358.610669 112.403322 
L 359.811519 129.305408 
L 360.612086 136.932568 
L 361.012369 116.83843 
L 362.613503 104.023249 
L 363.013786 106.253231 
L 363.41407 104.505659 
L 363.814353 70.559388 
L 364.214637 67.989146 
L 365.415487 70.851887 
L 365.81577 71.494331 
L 366.216054 77.192823 
L 366.616337 58.476829 
L 367.01662 57.369828 
L 368.217471 68.850626 
L 368.617754 74.308827 
L 369.018037 75.501814 
L 369.418321 100.09588 
L 369.818604 105.754169 
L 371.019454 94.285679 
L 371.419738 101.336307 
L 371.820021 98.015918 
L 372.220305 108.228554 
L 372.620588 110.771262 
L 373.821438 135.260149 
L 374.221722 136.846668 
L 374.622005 155.738043 
L 375.022288 151.828883 
L 375.422572 149.576215 
L 376.623422 159.944674 
L 377.023705 158.51059 
L 377.423989 161.19833 
L 377.824272 166.528121 
L 378.224556 168.204673 
L 379.425406 158.918532 
L 379.825689 173.428707 
L 380.225973 176.715626 
L 381.026539 167.720256 
L 382.22739 145.992363 
L 382.627673 134.798675 
L 383.027956 141.70664 
L 383.42824 145.778071 
L 383.828523 123.638239 
L 385.429657 133.83676 
L 385.82994 104.948745 
L 386.230224 124.650146 
L 386.630507 137.976512 
L 387.831357 160.064087 
L 388.231641 121.184189 
L 388.631924 115.885699 
L 389.032207 102.882284 
L 389.432491 85.899741 
L 390.633341 86.84485 
L 391.033624 90.074425 
L 391.433908 84.90322 
L 391.834191 58.427365 
L 392.234475 56.19142 
L 393.435325 68.996699 
L 393.835608 65.015715 
L 394.235892 45.162503 
L 394.636175 70.789153 
L 395.036458 84.930003 
L 396.237309 88.314574 
L 396.637592 90.290714 
L 397.037875 106.027935 
L 397.438159 107.573859 
L 397.838442 99.220236 
L 399.439576 76.894749 
L 399.839859 78.013137 
L 400.240143 82.251113 
L 400.640426 85.09727 
L 401.841276 75.293925 
L 402.24156 94.534925 
L 403.042126 92.171565 
L 403.44241 95.082836 
L 404.64326 108.636012 
L 405.443827 101.246785 
L 405.84411 91.857721 
L 407.445244 125.408223 
L 407.845527 150.146485 
L 408.245811 159.88597 
L 408.646094 163.515042 
L 409.046377 195.262514 
L 410.247228 191.102771 
L 410.647511 183.603198 
L 411.047794 179.914962 
L 411.448078 168.319173 
L 411.848361 169.18284 
L 413.049211 175.381979 
L 413.449495 180.833611 
L 413.849778 198.335853 
L 414.250062 200.538056 
L 414.650345 215.46 
L 415.851195 208.793755 
L 416.251479 214.128687 
L 416.651762 214.731684 
L 417.052045 186.809581 
L 417.452329 182.156672 
L 418.653179 166.783802 
L 419.053462 147.806583 
L 419.453746 157.650291 
L 420.254313 129.888489 
L 421.455163 104.478826 
L 421.855446 85.353928 
L 422.25573 85.848986 
L 422.656013 88.182342 
L 423.056296 86.633086 
L 424.65743 59.923498 
L 425.057713 39.06 
L 425.457997 52.679305 
L 425.85828 60.467331 
L 427.05913 73.876344 
L 427.459414 84.021101 
L 427.859697 76.330332 
L 428.259981 77.043716 
L 429.861114 151.974429 
L 430.261398 174.353236 
L 430.661681 162.557828 
L 431.061964 145.990184 
L 431.462248 147.770869 
L 432.663098 163.680781 
L 433.063381 185.41544 
L 433.463665 181.604971 
L 433.863948 181.768086 
L 434.264232 180.179273 
L 435.465082 191.579027 
L 435.865365 189.720058 
L 436.265648 180.564335 
L 437.066215 149.094412 
L 438.267065 155.132575 
L 438.667349 165.863104 
L 439.067632 165.536808 
L 439.467916 163.590088 
L 439.868199 131.66087 
L 441.069049 102.249222 
L 441.469333 98.597325 
L 441.869616 102.469814 
L 442.269899 98.710376 
L 442.670183 100.406506 
L 443.871033 109.876203 
L 444.271316 107.286207 
L 444.6716 111.597213 
L 445.071883 98.703255 
L 445.472167 106.984667 
L 446.673017 119.329375 
L 447.0733 126.820795 
L 447.473584 117.452798 
L 447.873867 120.001132 
L 448.27415 119.315166 
L 449.475001 124.590425 
L 449.875284 106.756289 
L 450.275567 125.565985 
L 450.675851 110.11441 
L 451.076134 100.793039 
L 452.276984 104.905964 
L 452.677268 107.970764 
L 453.077551 114.305048 
L 453.477835 81.14207 
L 453.878118 72.752482 
L 455.479252 101.324413 
L 456.680102 134.816089 
L 457.880952 120.320238 
L 458.281235 144.345677 
L 458.681519 139.318211 
L 459.081802 138.769614 
L 459.482086 157.336703 
L 460.682936 153.599081 
L 461.083219 135.068111 
L 461.483503 136.43969 
L 461.883786 172.096352 
L 462.284069 174.418564 
L 463.48492 168.063054 
L 463.885203 171.274932 
L 464.285486 151.911779 
L 464.68577 153.727844 
L 465.086053 160.901323 
L 466.286903 161.464562 
L 466.687187 138.526842 
L 467.08747 135.214793 
L 467.487754 126.429839 
L 469.088887 138.78238 
L 469.489171 156.262386 
L 469.889454 160.992974 
L 470.289737 156.341309 
L 470.690021 156.233181 
L 471.890871 128.829742 
L 472.291154 138.363723 
L 472.691438 168.037537 
L 473.091721 157.683187 
L 473.492005 166.623752 
L 474.692855 160.125656 
L 475.093138 156.876188 
L 475.493422 161.21149 
L 475.893705 173.975906 
L 476.293988 164.729709 
L 478.295405 181.539502 
L 479.095972 199.160068 
L 480.296822 207.385828 
L 480.697106 208.977797 
L 481.097389 207.009739 
L 481.497673 202.142638 
L 481.897956 182.504336 
L 483.098806 161.388127 
L 483.49909 168.644651 
L 483.899373 169.381471 
L 484.299656 180.733967 
L 484.69994 139.598999 
L 485.90079 133.986242 
L 486.701357 115.392588 
L 487.10164 99.749526 
L 487.501924 115.994161 
L 489.103057 98.017644 
L 489.503341 96.911547 
L 490.303907 126.053189 
L 491.905041 134.367015 
L 492.305324 143.221646 
L 492.705608 106.547543 
L 493.105891 143.601525 
L 494.306741 145.150979 
L 494.707025 163.288434 
L 495.107308 159.37803 
L 495.507592 163.604805 
L 495.907875 155.892281 
L 497.509009 186.120708 
L 497.909292 179.891909 
L 498.309575 150.483092 
L 498.709859 148.98361 
L 499.910709 151.465299 
L 500.310992 126.524603 
L 500.711276 128.274322 
L 501.111559 124.583277 
L 501.511843 116.267841 
L 502.712693 109.805044 
L 503.112976 105.659014 
L 503.913543 91.41405 
L 504.313826 60.079664 
L 505.514677 50.405995 
L 505.91496 52.599422 
L 506.315243 74.517954 
L 506.715527 83.063024 
L 507.11581 66.023417 
L 508.31666 66.970384 
L 509.117227 127.568322 
L 509.517511 144.207649 
L 509.917794 154.3794 
L 511.118644 175.57287 
L 511.518928 173.265333 
L 511.919211 155.63759 
L 512.319494 167.486362 
L 513.920628 179.419334 
L 514.320911 161.189666 
L 514.721195 163.261295 
L 515.121478 167.433703 
L 515.521762 175.162043 
L 517.122895 188.053972 
L 517.523178 182.93597 
L 517.923462 161.331296 
L 518.323745 182.307658 
L 519.524595 178.511127 
L 519.924879 178.420229 
L 520.325162 186.300096 
L 521.125729 195.31982 
L 522.326579 213.298842 
L 522.726863 211.012669 
L 523.127146 209.775734 
L 523.527429 202.496788 
L 523.927713 190.064748 
L 525.128563 185.956204 
L 525.528846 172.881462 
L 525.92913 197.153626 
L 526.329413 174.548428 
L 526.729697 174.366138 
L 527.930547 174.031199 
L 528.33083 184.799285 
L 528.731114 159.391026 
L 529.131397 142.071063 
L 529.53168 114.796174 
L 531.132814 104.400285 
L 531.533097 90.367555 
L 531.933381 86.860409 
L 532.333664 108.038012 
L 533.534514 95.957873 
L 533.934798 111.135057 
L 534.335081 85.989933 
L 535.135648 127.19062 
L 536.336498 140.916792 
L 536.736782 136.452401 
L 537.137065 130.376453 
L 537.537348 148.621743 
L 537.937632 152.523154 
L 539.538765 159.832294 
L 539.939049 163.491016 
L 540.339332 164.548796 
L 540.739616 146.58406 
L 541.940466 159.861183 
L 542.340749 166.569147 
L 542.741033 159.395075 
L 543.141316 155.306259 
L 543.541599 132.553303 
L 545.543016 100.901607 
L 545.9433 107.795532 
L 546.343583 95.743452 
L 547.544433 115.84792 
L 547.944717 130.724442 
L 548.345 128.117094 
L 548.745284 138.068276 
L 549.145567 141.846075 
L 550.346417 130.39726 
L 550.746701 91.877415 
L 551.146984 85.205781 
L 551.547267 68.023979 
L 551.947551 85.809982 
L 553.148401 102.144237 
L 553.548684 130.738287 
L 553.948968 118.597715 
L 554.349251 112.64804 
L 554.749535 77.139609 
L 555.950385 67.233789 
L 556.350668 73.293032 
L 556.750952 67.768312 
L 557.151235 67.642717 
L 557.551518 73.84124 
L 558.752369 83.645687 
L 559.152652 95.536313 
L 559.552935 90.873345 
L 559.953219 90.370823 
L 560.353502 82.367284 
L 561.554352 60.729805 
L 561.954636 65.487531 
L 562.354919 78.505638 
L 563.155486 122.5599 
L 564.356336 135.2339 
L 565.156903 166.708535 
L 565.557186 145.362551 
L 565.95747 159.803748 
L 567.15832 158.284872 
L 567.558603 182.831407 
L 567.958887 182.649591 
L 568.35917 192.989419 
L 568.759454 192.880967 
L 570.360587 204.965815 
L 570.760871 180.298622 
L 571.161154 179.545933 
L 571.561437 151.490312 
L 572.762288 119.029214 
L 573.162571 153.330216 
L 573.562854 147.890096 
L 573.963138 165.990159 
L 574.363421 156.919492 
L 575.564271 149.713439 
L 576.364838 157.863842 
L 577.165405 171.318155 
L 578.366255 163.47586 
L 578.766539 178.160932 
L 579.166822 165.372212 
L 579.967389 200.655216 
L 581.168239 170.85478 
L 581.568522 156.049748 
L 582.369089 143.974926 
L 582.769373 164.106584 
L 583.970223 160.358375 
L 584.77079 148.079267 
L 585.171073 137.285475 
L 585.571356 160.810278 
L 586.772207 134.13521 
L 587.17249 137.262092 
L 588.37334 121.375427 
L 589.57419 136.988868 
L 589.974474 133.588805 
L 590.374757 147.018128 
L 590.775041 144.065184 
L 591.175324 160.421896 
L 592.376174 159.399006 
L 592.776458 172.160886 
L 593.176741 178.485995 
L 593.577024 174.482048 
L 593.977308 193.677068 
L 595.178158 205.458105 
L 595.578441 204.693484 
L 595.978725 209.169698 
L 596.379008 184.469732 
L 596.779292 173.053957 
L 597.980142 178.331871 
L 598.380425 170.224187 
L 598.780708 165.602921 
L 599.180992 155.489275 
L 599.581275 154.925338 
L 600.782125 145.35322 
L 601.582692 115.16911 
L 602.383259 123.43034 
L 603.584109 119.840255 
L 603.984393 123.6909 
L 604.384676 95.821701 
L 605.185243 169.86402 
L 606.386093 172.842275 
L 606.786376 184.499829 
L 607.18666 177.722947 
L 607.586943 156.337687 
L 607.987227 158.595556 
L 609.58836 135.865599 
L 610.388927 154.688641 
L 610.78921 159.727957 
L 611.990061 164.291983 
L 612.390344 188.833782 
L 612.790627 174.789265 
L 613.190911 179.38605 
L 613.591194 160.404637 
L 615.192328 158.335734 
L 615.592611 164.069195 
L 615.992895 161.252484 
L 616.393178 157.2993 
L 617.994312 155.17933 
L 618.394595 169.838564 
L 618.794878 173.458561 
L 619.195162 143.936752 
L 620.396012 134.70902 
L 620.796295 108.359125 
L 621.196579 92.720174 
L 621.596862 96.563461 
L 621.997146 71.740233 
L 623.598279 87.676683 
L 623.998563 77.7715 
L 624.398846 81.332469 
L 624.799129 78.583543 
L 625.99998 76.913015 
L 626.400263 88.310122 
L 626.800546 82.185801 
L 627.20083 65.325353 
L 627.601113 65.222707 
L 628.801963 78.362707 
L 629.202247 78.212337 
L 629.60253 85.957634 
L 630.002814 70.09879 
L 630.403097 116.921184 
L 631.603947 114.001983 
L 632.004231 112.17207 
L 632.404514 113.16364 
L 632.804797 129.20696 
L 633.205081 132.04985 
L 634.405931 122.467535 
L 635.206498 126.176674 
L 635.606781 145.309641 
L 636.007065 143.185136 
L 638.008482 163.336426 
L 638.408765 205.350505 
L 638.809048 190.213892 
L 640.009899 184.138295 
L 640.410182 179.790685 
L 640.810465 179.790712 
L 641.210749 172.928291 
L 641.611032 148.339766 
L 642.811882 167.975462 
L 643.212166 170.110009 
L 643.612449 179.582385 
L 644.012733 174.037827 
L 644.413016 176.505104 
L 646.414433 129.964883 
L 646.814716 94.730573 
L 647.215 103.691515 
L 648.41585 113.817988 
L 648.816133 89.125778 
L 649.6167 112.015 
L 650.016984 108.335558 
L 651.217834 107.602148 
L 651.618117 114.418269 
L 652.018401 91.742894 
L 652.418684 75.732101 
L 652.818967 76.787497 
L 654.019818 90.899216 
L 654.420101 90.136969 
L 654.820384 126.273491 
L 655.220668 114.441682 
L 656.821801 105.124279 
L 657.222085 136.691952 
L 657.622368 137.775174 
L 658.022652 113.864626 
L 658.422935 109.949559 
L 659.623785 108.464259 
L 660.024069 106.21717 
L 660.424352 110.427711 
L 660.824635 121.919569 
L 661.224919 113.03243 
L 662.425769 112.228245 
L 662.826052 138.98304 
L 663.226336 113.273664 
L 663.626619 99.677347 
L 664.026903 120.405087 
L 665.227753 124.860556 
L 665.628036 111.664482 
L 666.02832 127.138244 
L 666.428603 126.194918 
L 666.828886 120.896754 
L 668.029737 118.378657 
L 668.43002 122.75949 
L 668.830303 108.649957 
L 669.230587 112.194771 
L 669.63087 117.303281 
L 670.83172 97.222174 
L 671.232004 97.817744 
L 671.632287 106.503301 
L 672.032571 70.326649 
L 672.432854 58.241835 
L 673.633704 72.016337 
L 674.033988 72.228385 
L 674.434271 68.914252 
L 674.834554 86.056937 
L 675.234838 74.091099 
L 676.835971 72.615811 
L 677.236255 87.159227 
L 677.636538 86.638375 
L 678.036822 70.945687 
L 679.237672 70.723958 
L 679.637955 72.573371 
L 680.038238 109.396706 
L 680.438522 108.229028 
L 682.039655 87.918494 
L 682.439939 87.601416 
L 682.840222 93.270136 
L 683.240506 81.504172 
L 683.640789 106.419929 
L 685.241923 111.372197 
L 685.642206 110.584636 
L 686.042489 99.222389 
L 686.442773 108.932799 
L 687.643623 123.326741 
L 688.043906 121.166211 
L 688.44419 89.931855 
L 688.844473 110.56639 
L 689.244757 94.274026 
L 690.445607 108.898783 
L 691.246174 108.54321 
L 691.646457 121.052185 
L 692.04674 117.365487 
L 693.247591 123.581988 
L 693.647874 117.284659 
L 694.048157 103.735431 
L 694.448441 110.806291 
L 694.848724 104.015274 
L 696.049574 97.952519 
L 696.449858 111.034409 
L 696.850141 99.476424 
L 697.250425 123.364665 
L 697.650708 134.057609 
L 698.851558 138.850442 
L 699.251842 138.030922 
L 699.652125 133.330258 
L 700.052408 140.035245 
L 700.452692 108.150869 
L 701.653542 108.831013 
L 702.053825 128.057291 
L 702.454109 161.599916 
L 702.854392 159.692652 
L 703.254676 111.930441 
L 704.455526 102.181627 
L 704.855809 117.52126 
L 705.256093 104.173331 
L 705.656376 102.410091 
L 706.056659 97.62193 
L 707.25751 93.277608 
L 708.058076 111.77155 
L 708.45836 126.556869 
L 708.858643 133.862825 
L 710.059493 122.217871 
L 710.459777 109.86808 
L 710.86006 108.197171 
L 711.260344 168.684589 
L 711.660627 176.722609 
L 712.861477 169.512937 
L 713.261761 148.657453 
L 713.662044 152.245392 
L 714.062327 134.333775 
L 714.462611 145.811624 
L 716.063744 134.773722 
L 716.464028 130.492163 
L 716.864311 109.564249 
L 717.264595 102.268072 
L 718.465445 89.497496 
L 718.865728 98.967838 
L 719.266012 91.736741 
L 719.666295 67.503649 
L 720.066578 100.531735 
L 721.267429 102.167528 
L 721.667712 120.599517 
L 722.067995 131.454577 
L 722.468279 163.611776 
L 722.868562 164.662753 
L 724.069412 153.036914 
L 724.869979 172.219037 
L 725.270263 173.962469 
L 725.670546 193.436445 
L 726.871396 176.639111 
L 727.27168 205.406531 
L 727.671963 192.5343 
L 728.072246 186.688642 
L 728.47253 175.349092 
L 729.67338 168.172773 
L 730.073663 155.423384 
L 730.473947 120.963231 
L 730.87423 117.901711 
L 731.274514 138.883093 
L 732.475364 100.075176 
L 732.875647 106.575953 
L 733.275931 123.464066 
L 733.676214 126.880524 
L 734.076497 150.011071 
L 735.277348 123.702674 
L 735.677631 124.930413 
L 736.077914 149.603293 
L 736.478198 164.231356 
L 736.878481 133.896987 
L 738.079331 123.481251 
L 738.479615 128.707191 
L 739.280182 109.628502 
L 739.680465 114.802309 
L 740.881315 108.406764 
L 741.281599 89.752619 
L 741.681882 92.746128 
L 742.082165 85.605856 
L 742.482449 82.913395 
L 743.683299 90.446417 
L 744.083582 51.022915 
L 744.483866 55.37569 
L 744.884149 69.089971 
L 745.284433 74.497451 
L 746.485283 73.225042 
L 746.885566 98.816032 
L 747.28585 93.262086 
L 748.086416 94.777921 
L 749.287267 95.24474 
L 749.68755 110.236431 
L 750.087833 110.723096 
L 750.488117 102.69624 
L 750.8884 111.618093 
L 752.08925 119.707231 
L 752.489534 125.901213 
L 752.889817 124.37253 
L 753.290101 110.239035 
L 753.690384 118.953125 
L 754.891234 133.722164 
L 755.291518 110.88281 
L 756.092084 128.244249 
L 756.492368 119.891909 
L 757.693218 98.793531 
L 758.093501 96.093795 
L 758.493785 104.768864 
L 758.894068 102.147964 
L 759.294352 91.491389 
L 760.895485 98.369319 
L 761.295768 81.105313 
L 761.696052 89.517029 
L 762.096335 104.031083 
L 763.697469 107.68644 
L 764.097752 126.249547 
L 764.498036 155.402209 
L 764.898319 144.544086 
L 766.099169 136.910145 
L 766.499453 147.854272 
L 767.300019 116.24754 
L 767.700303 127.99959 
L 769.301436 133.705223 
L 769.70172 140.75355 
L 770.502287 123.90935 
L 771.703137 119.709308 
L 772.503704 92.875482 
L 772.903987 61.621059 
L 773.30427 60.24144 
L 774.505121 63.802386 
L 774.905404 89.310242 
L 775.305687 124.593938 
L 775.705971 113.088821 
L 776.106254 78.294507 
L 777.307104 78.479708 
L 777.707388 77.127995 
L 778.107671 77.804761 
L 778.507955 84.355046 
L 778.908238 74.097184 
L 780.109088 85.082978 
L 780.509372 100.556431 
L 780.909655 97.809069 
L 781.710222 109.748835 
L 783.311355 110.304109 
L 783.711639 93.712782 
L 784.111922 90.238944 
L 784.512206 119.963625 
L 785.713056 114.381516 
L 786.113339 114.52238 
L 786.513623 121.268219 
L 786.913906 106.046288 
L 787.314189 116.331175 
L 788.51504 108.80444 
L 788.915323 107.492054 
L 789.315606 120.015961 
L 789.71589 101.010078 
L 790.116173 107.425504 
L 791.317023 112.24138 
L 791.717307 106.153067 
L 792.11759 123.226024 
L 792.517874 116.199436 
L 792.918157 133.484338 
L 794.119007 128.700068 
L 794.519291 122.107577 
L 795.319857 132.618752 
L 795.720141 127.045331 
L 796.920991 107.0437 
L 797.321274 111.329629 
L 797.721558 118.163668 
L 798.121841 107.720727 
L 799.722975 82.223669 
L 800.123258 97.501656 
L 800.523542 95.069165 
L 800.923825 124.465854 
L 801.324108 67.950094 
L 802.524959 67.792817 
L 802.925242 70.377591 
L 803.325525 76.779825 
L 803.725809 67.301268 
L 804.126092 93.4913 
L 805.326942 112.934113 
L 805.727226 106.1629 
L 806.127509 124.944882 
L 806.527793 137.86641 
L 806.928076 158.243943 
L 808.128926 145.386448 
L 808.52921 142.952751 
L 808.929493 144.733707 
L 809.329776 176.849482 
L 809.73006 150.460465 
L 810.93091 147.293709 
L 811.331193 162.361555 
L 811.731477 159.308957 
L 812.13176 135.881827 
L 812.532044 125.658329 
L 813.732894 119.124326 
L 814.133177 113.151147 
L 814.533461 109.1393 
L 814.933744 90.022547 
L 815.334027 102.738945 
L 816.534878 111.288788 
L 816.935161 98.80464 
L 817.335444 90.771527 
L 817.735728 117.195398 
L 818.136011 118.087182 
L 819.336861 93.591244 
L 819.737145 110.346048 
L 820.537712 168.184156 
L 820.937995 196.082954 
L 822.939412 178.00332 
L 823.339695 204.292999 
L 823.739979 206.419677 
L 824.940829 184.519287 
L 825.341112 180.021728 
L 825.741396 160.09684 
L 826.141679 124.785734 
L 826.541963 134.574174 
L 827.742813 114.032266 
L 828.143096 110.906075 
L 828.54338 112.873444 
L 828.943663 118.557809 
L 829.343946 117.831755 
L 830.544797 122.37918 
L 830.94508 128.415415 
L 831.745647 99.566423 
L 832.14593 71.505639 
L 833.34678 99.754157 
L 833.747064 100.501046 
L 834.147347 86.098045 
L 834.547631 84.958807 
L 834.947914 103.033034 
L 836.148764 100.234765 
L 836.549048 94.661915 
L 836.949331 102.373354 
L 837.749898 86.32376 
L 839.351031 89.061304 
L 839.751315 83.271934 
L 840.151598 107.389418 
L 840.551882 116.30619 
L 841.752732 110.148899 
L 842.153015 111.33837 
L 842.553298 151.322967 
L 842.953582 179.55957 
L 843.353865 170.719439 
L 844.554715 194.925202 
L 844.954999 188.176638 
L 845.355282 194.137645 
L 845.755566 210.244833 
L 846.155849 193.242972 
L 847.356699 189.697741 
L 847.756983 194.573974 
L 848.157266 159.675369 
L 848.557549 165.33201 
L 848.957833 188.469903 
L 850.158683 196.348717 
L 850.95925 180.686665 
L 851.359533 170.417441 
L 851.759817 166.270811 
L 852.960667 178.225252 
L 853.36095 158.284791 
L 853.761234 156.647702 
L 854.161517 143.403742 
L 854.5618 146.224278 
L 855.762651 140.280123 
L 856.162934 152.652633 
L 856.563217 142.647675 
L 857.363784 60.966633 
L 858.564634 73.333635 
L 858.964918 89.830269 
L 859.365201 111.260146 
L 859.765485 110.645971 
L 860.165768 92.485509 
L 861.766902 111.079876 
L 862.567468 131.267417 
L 862.967752 149.28474 
L 864.168602 140.17638 
L 864.969169 121.903053 
L 865.369452 105.801808 
L 865.769736 109.068118 
L 866.970586 109.24578 
L 867.370869 98.21506 
L 867.771153 91.935113 
L 868.171436 88.56056 
L 868.571719 96.412826 
L 869.77257 84.027119 
L 870.172853 71.664882 
L 870.573136 85.49655 
L 870.97342 58.444034 
L 871.373703 84.05446 
L 872.574553 103.885232 
L 872.974837 129.359274 
L 873.37512 144.325951 
L 873.775404 154.23173 
L 874.175687 125.370267 
L 875.376537 155.241923 
L 875.776821 145.663097 
L 876.177104 149.765027 
L 876.577387 150.843083 
L 876.977671 151.322959 
L 878.178521 155.511334 
L 878.578804 150.545206 
L 878.979088 148.70847 
L 879.779655 121.09642 
L 880.980505 114.969574 
L 881.380788 110.779768 
L 882.181355 132.91355 
L 882.581638 94.49086 
L 883.782489 99.716055 
L 884.182772 99.757111 
L 884.583055 98.066788 
L 884.983339 143.642132 
L 885.383622 98.14237 
L 886.584472 107.164088 
L 887.385039 84.397966 
L 887.785323 82.334895 
L 888.185606 88.595193 
L 889.386456 93.655299 
L 889.78674 74.373485 
L 890.187023 70.516377 
L 890.587306 80.772864 
L 890.98759 105.583171 
L 892.18844 111.354777 
L 892.588723 109.791246 
L 892.989007 98.470296 
L 893.38929 131.272233 
L 893.789574 129.119158 
L 894.990424 127.716229 
L 895.390707 130.463006 
L 895.790991 142.977711 
L 896.591557 133.043095 
L 897.792408 123.122621 
L 898.192691 121.698748 
L 898.592974 122.708732 
L 898.993258 110.731502 
L 899.393541 71.119213 
L 900.594391 71.234726 
L 900.994675 78.972722 
L 901.795242 52.946632 
L 902.195525 54.041084 
L 903.396375 53.143658 
L 903.796659 67.075895 
L 904.196942 98.085403 
L 904.597225 97.09309 
L 904.997509 99.020043 
L 906.598642 104.931401 
L 907.399209 115.83476 
L 907.799493 141.289854 
L 909.000343 144.957176 
L 909.400626 146.933584 
L 910.201193 161.148994 
L 910.601476 145.183537 
L 911.802327 131.945158 
L 912.20261 160.150401 
L 912.602893 156.481442 
L 913.40346 137.457586 
L 914.60431 149.095709 
L 915.004594 157.907601 
L 915.404877 137.548087 
L 915.805161 158.851201 
L 916.205444 135.547086 
L 917.806578 112.892309 
L 918.206861 95.701036 
L 918.607144 87.941308 
L 919.007428 91.560514 
L 920.208278 98.197359 
L 920.608561 99.693944 
L 921.008845 79.683964 
L 921.409128 91.355765 
L 921.809412 70.68419 
L 923.010262 69.561824 
L 923.410545 60.145982 
L 923.810828 94.543775 
L 924.211112 78.732888 
L 924.611395 123.830417 
L 925.812245 125.777197 
L 926.612812 150.044724 
L 927.013096 144.309091 
L 927.413379 149.890112 
L 929.014513 162.778098 
L 929.414796 160.669609 
L 929.815079 163.279499 
L 930.215363 183.97135 
L 931.416213 188.454963 
L 931.816496 205.417757 
L 932.21678 192.564024 
L 932.617063 209.852987 
L 933.017347 182.799924 
L 934.218197 209.804767 
L 934.61848 210.530859 
L 935.018764 186.9311 
L 935.419047 201.119215 
L 935.81933 200.897596 
L 937.020181 203.255256 
L 937.420464 196.171043 
L 937.820747 184.730787 
L 938.221031 183.157811 
L 938.621314 165.271197 
L 939.822164 168.886349 
L 940.222448 177.30582 
L 940.622731 161.447597 
L 941.023015 172.872597 
L 941.423298 155.836365 
L 942.624148 133.598781 
L 943.024432 138.834847 
L 943.424715 131.200735 
L 943.824998 126.624033 
L 944.225282 136.833688 
L 945.426132 147.853178 
L 945.826415 148.94898 
L 946.226699 126.953145 
L 946.626982 170.418809 
L 947.027266 176.615662 
L 948.228116 163.115491 
L 948.628399 174.722045 
L 949.028683 137.38943 
L 949.428966 150.245399 
L 949.829249 155.121336 
L 951.0301 161.470514 
L 951.430383 159.542968 
L 951.830666 164.674922 
L 952.23095 158.280134 
L 953.832083 161.012692 
L 954.63265 150.127657 
L 955.032934 121.683747 
L 955.433217 107.346477 
L 956.634067 114.405486 
L 957.034351 106.840957 
L 957.434634 145.610831 
L 957.834917 113.103659 
L 958.235201 120.636121 
L 959.436051 122.81823 
L 959.836334 119.848934 
L 960.236618 98.136155 
L 960.636901 87.573508 
L 961.037185 67.525377 
L 962.238035 58.836832 
L 962.638318 62.609838 
L 963.038602 72.911981 
L 963.438885 93.999852 
L 963.839168 89.168048 
L 965.040019 87.292813 
L 965.440302 84.291062 
L 965.840585 103.90832 
L 966.641152 94.43361 
L 968.242286 82.150446 
L 968.642569 92.067116 
L 969.443136 100.388366 
L 971.04427 156.30739 
L 971.444553 144.936691 
L 971.844836 118.696696 
L 972.24512 100.016484 
L 973.44597 92.532725 
L 973.846253 80.064806 
L 974.246537 87.898128 
L 974.64682 92.54227 
L 975.047104 87.229546 
L 976.247954 89.852151 
L 976.648237 89.736338 
L 977.048521 104.908732 
L 977.849087 114.834572 
L 979.049938 125.431792 
L 979.450221 108.258783 
L 979.850504 115.733484 
L 980.250788 104.065767 
L 980.651071 102.882311 
L 981.851921 125.132565 
L 982.252205 123.915372 
L 982.652488 110.275988 
L 983.052772 101.969948 
L 984.653905 97.399142 
L 985.054189 122.345036 
L 985.454472 109.832291 
L 985.854755 102.398912 
L 986.255039 85.131042 
L 987.455889 78.512064 
L 987.856172 85.181213 
L 989.057023 120.31161 
L 990.257873 89.047935 
L 990.658156 102.580693 
L 991.05844 97.17545 
L 991.458723 95.889815 
L 991.859006 100.250802 
L 993.059857 72.434149 
L 993.46014 92.365513 
L 993.860423 95.73182 
L 994.260707 92.260733 
L 994.66099 160.320034 
L 995.86184 167.986385 
L 996.262124 155.75662 
L 996.662407 135.65705 
L 997.062691 138.859987 
L 997.462974 147.507748 
L 998.663824 146.624213 
L 999.064108 148.341521 
L 999.464391 150.657905 
L 999.864674 133.31416 
L 1000.264958 136.186389 
L 1001.465808 131.252216 
L 1001.866091 136.986517 
L 1002.266375 154.212099 
L 1002.666658 109.629116 
L 1003.066942 83.274656 
L 1004.267792 90.581282 
L 1004.668075 108.759991 
L 1005.068358 109.973801 
L 1005.468642 101.158009 
L 1005.868925 106.356393 
L 1007.470059 120.498741 
L 1007.870342 127.652598 
L 1008.270626 118.274098 
L 1008.670909 128.75288 
L 1008.670909 128.75288 
" clip-path="url(#pe0a0952fec)" style="fill: none; stroke: #1f77b4; stroke-width: 1.5; stroke-linecap: square"/>
   </g>
   <g id="patch_3">
    <path d="M 145.8 224.28 
L 145.8 30.24 
" style="fill: none; stroke: #000000; stroke-width: 0.8; stroke-linejoin: miter; stroke-linecap: square"/>
   </g>
   <g id="patch_4">
    <path d="M 145.8 224.28 
L 1049.76 224.28 
" style="fill: none; stroke: #000000; stroke-width: 0.8; stroke-linejoin: miter; stroke-linecap: square"/>
   </g>
  </g>
 </g>
 <defs>
  <clipPath id="pe0a0952fec">
   <rect x="145.8" y="30.24" width="903.96" height="194.04"/>
  </clipPath>
 </defs>
</svg>
