<?xml version="1.0" encoding="utf-8" standalone="no"?>
<!DOCTYPE svg PUBLIC "-//W3C//DTD SVG 1.1//EN"
  "http://www.w3.org/Graphics/SVG/1.1/DTD/svg11.dtd">
<svg xmlns:xlink="http://www.w3.org/1999/xlink" width="1166.4pt" height="252pt" viewBox="0 0 1166.4 252" xmlns="http://www.w3.org/2000/svg" version="1.1">
 <metadata>
  <rdf:RDF xmlns:dc="http://purl.org/dc/elements/1.1/" xmlns:cc="http://creativecommons.org/ns#" xmlns:rdf="http://www.w3.org/1999/02/22-rdf-syntax-ns#">
   <cc:Work>
    <dc:type rdf:resource="http://purl.org/dc/dcmitype/StillImage"/>
    <dc:date>2025-09-05T15:16:53.468686</dc:date>
    <dc:format>image/svg+xml</dc:format>
    <dc:creator>
     <cc:Agent>
      <dc:title>Matplotlib v3.10.5, https://matplotlib.org/</dc:title>
     </cc:Agent>
    </dc:creator>
   </cc:Work>
  </rdf:RDF>
 </metadata>
 <defs>
  <style type="text/css">*{stroke-linejoin: round; stroke-linecap: butt}</style>
 </defs>
 <g id="figure_1">
  <g id="patch_1">
   <path d="M 0 252 
L 1166.4 252 
L 1166.4 0 
L 0 0 
z
" style="fill: #ffffff"/>
  </g>
  <g id="axes_1">
   <g id="patch_2">
    <path d="M 145.8 224.28 
L 1049.76 224.28 
L 1049.76 30.24 
L 145.8 30.24 
z
" style="fill: #ffffff"/>
   </g>
   <g id="matplotlib.axis_1">
    <g id="xtick_1">
     <g id="line2d_1">
      <defs>
       <path id="m9e82ccc3a8" d="M 0 0 
L 0 3.5 
" style="stroke: #000000; stroke-width: 0.8"/>
      </defs>
      <g>
       <use xlink:href="#m9e82ccc3a8" x="191.34722" y="224.28" style="stroke: #000000; stroke-width: 0.8"/>
      </g>
     </g>
     <g id="text_1">
      <!-- 2024-03 -->
      <g transform="translate(170.455814 238.878438) scale(0.1 -0.1)">
       <defs>
        <path id="DejaVuSans-32" d="M 1228 531 
L 3431 531 
L 3431 0 
L 469 0 
L 469 531 
Q 828 903 1448 1529 
Q 2069 2156 2228 2338 
Q 2531 2678 2651 2914 
Q 2772 3150 2772 3378 
Q 2772 3750 2511 3984 
Q 2250 4219 1831 4219 
Q 1534 4219 1204 4116 
Q 875 4013 500 3803 
L 500 4441 
Q 881 4594 1212 4672 
Q 1544 4750 1819 4750 
Q 2544 4750 2975 4387 
Q 3406 4025 3406 3419 
Q 3406 3131 3298 2873 
Q 3191 2616 2906 2266 
Q 2828 2175 2409 1742 
Q 1991 1309 1228 531 
z
" transform="scale(0.015625)"/>
        <path id="DejaVuSans-30" d="M 2034 4250 
Q 1547 4250 1301 3770 
Q 1056 3291 1056 2328 
Q 1056 1369 1301 889 
Q 1547 409 2034 409 
Q 2525 409 2770 889 
Q 3016 1369 3016 2328 
Q 3016 3291 2770 3770 
Q 2525 4250 2034 4250 
z
M 2034 4750 
Q 2819 4750 3233 4129 
Q 3647 3509 3647 2328 
Q 3647 1150 3233 529 
Q 2819 -91 2034 -91 
Q 1250 -91 836 529 
Q 422 1150 422 2328 
Q 422 3509 836 4129 
Q 1250 4750 2034 4750 
z
" transform="scale(0.015625)"/>
        <path id="DejaVuSans-34" d="M 2419 4116 
L 825 1625 
L 2419 1625 
L 2419 4116 
z
M 2253 4666 
L 3047 4666 
L 3047 1625 
L 3713 1625 
L 3713 1100 
L 3047 1100 
L 3047 0 
L 2419 0 
L 2419 1100 
L 313 1100 
L 313 1709 
L 2253 4666 
z
" transform="scale(0.015625)"/>
        <path id="DejaVuSans-2d" d="M 313 2009 
L 1997 2009 
L 1997 1497 
L 313 1497 
L 313 2009 
z
" transform="scale(0.015625)"/>
        <path id="DejaVuSans-33" d="M 2597 2516 
Q 3050 2419 3304 2112 
Q 3559 1806 3559 1356 
Q 3559 666 3084 287 
Q 2609 -91 1734 -91 
Q 1441 -91 1130 -33 
Q 819 25 488 141 
L 488 750 
Q 750 597 1062 519 
Q 1375 441 1716 441 
Q 2309 441 2620 675 
Q 2931 909 2931 1356 
Q 2931 1769 2642 2001 
Q 2353 2234 1838 2234 
L 1294 2234 
L 1294 2753 
L 1863 2753 
Q 2328 2753 2575 2939 
Q 2822 3125 2822 3475 
Q 2822 3834 2567 4026 
Q 2313 4219 1838 4219 
Q 1578 4219 1281 4162 
Q 984 4106 628 3988 
L 628 4550 
Q 988 4650 1302 4700 
Q 1616 4750 1894 4750 
Q 2613 4750 3031 4423 
Q 3450 4097 3450 3541 
Q 3450 3153 3228 2886 
Q 3006 2619 2597 2516 
z
" transform="scale(0.015625)"/>
       </defs>
       <use xlink:href="#DejaVuSans-32"/>
       <use xlink:href="#DejaVuSans-30" transform="translate(63.623047 0)"/>
       <use xlink:href="#DejaVuSans-32" transform="translate(127.246094 0)"/>
       <use xlink:href="#DejaVuSans-34" transform="translate(190.869141 0)"/>
       <use xlink:href="#DejaVuSans-2d" transform="translate(254.492188 0)"/>
       <use xlink:href="#DejaVuSans-30" transform="translate(290.576172 0)"/>
       <use xlink:href="#DejaVuSans-33" transform="translate(354.199219 0)"/>
      </g>
     </g>
    </g>
    <g id="xtick_2">
     <g id="line2d_2">
      <g>
       <use xlink:href="#m9e82ccc3a8" x="281.995847" y="224.28" style="stroke: #000000; stroke-width: 0.8"/>
      </g>
     </g>
     <g id="text_2">
      <!-- 2024-05 -->
      <g transform="translate(261.104441 238.878438) scale(0.1 -0.1)">
       <defs>
        <path id="DejaVuSans-35" d="M 691 4666 
L 3169 4666 
L 3169 4134 
L 1269 4134 
L 1269 2991 
Q 1406 3038 1543 3061 
Q 1681 3084 1819 3084 
Q 2600 3084 3056 2656 
Q 3513 2228 3513 1497 
Q 3513 744 3044 326 
Q 2575 -91 1722 -91 
Q 1428 -91 1123 -41 
Q 819 9 494 109 
L 494 744 
Q 775 591 1075 516 
Q 1375 441 1709 441 
Q 2250 441 2565 725 
Q 2881 1009 2881 1497 
Q 2881 1984 2565 2268 
Q 2250 2553 1709 2553 
Q 1456 2553 1204 2497 
Q 953 2441 691 2322 
L 691 4666 
z
" transform="scale(0.015625)"/>
       </defs>
       <use xlink:href="#DejaVuSans-32"/>
       <use xlink:href="#DejaVuSans-30" transform="translate(63.623047 0)"/>
       <use xlink:href="#DejaVuSans-32" transform="translate(127.246094 0)"/>
       <use xlink:href="#DejaVuSans-34" transform="translate(190.869141 0)"/>
       <use xlink:href="#DejaVuSans-2d" transform="translate(254.492188 0)"/>
       <use xlink:href="#DejaVuSans-30" transform="translate(290.576172 0)"/>
       <use xlink:href="#DejaVuSans-35" transform="translate(354.199219 0)"/>
      </g>
     </g>
    </g>
    <g id="xtick_3">
     <g id="line2d_3">
      <g>
       <use xlink:href="#m9e82ccc3a8" x="372.644475" y="224.28" style="stroke: #000000; stroke-width: 0.8"/>
      </g>
     </g>
     <g id="text_3">
      <!-- 2024-07 -->
      <g transform="translate(351.753069 238.878438) scale(0.1 -0.1)">
       <defs>
        <path id="DejaVuSans-37" d="M 525 4666 
L 3525 4666 
L 3525 4397 
L 1831 0 
L 1172 0 
L 2766 4134 
L 525 4134 
L 525 4666 
z
" transform="scale(0.015625)"/>
       </defs>
       <use xlink:href="#DejaVuSans-32"/>
       <use xlink:href="#DejaVuSans-30" transform="translate(63.623047 0)"/>
       <use xlink:href="#DejaVuSans-32" transform="translate(127.246094 0)"/>
       <use xlink:href="#DejaVuSans-34" transform="translate(190.869141 0)"/>
       <use xlink:href="#DejaVuSans-2d" transform="translate(254.492188 0)"/>
       <use xlink:href="#DejaVuSans-30" transform="translate(290.576172 0)"/>
       <use xlink:href="#DejaVuSans-37" transform="translate(354.199219 0)"/>
      </g>
     </g>
    </g>
    <g id="xtick_4">
     <g id="line2d_4">
      <g>
       <use xlink:href="#m9e82ccc3a8" x="464.779145" y="224.28" style="stroke: #000000; stroke-width: 0.8"/>
      </g>
     </g>
     <g id="text_4">
      <!-- 2024-09 -->
      <g transform="translate(443.887739 238.878438) scale(0.1 -0.1)">
       <defs>
        <path id="DejaVuSans-39" d="M 703 97 
L 703 672 
Q 941 559 1184 500 
Q 1428 441 1663 441 
Q 2288 441 2617 861 
Q 2947 1281 2994 2138 
Q 2813 1869 2534 1725 
Q 2256 1581 1919 1581 
Q 1219 1581 811 2004 
Q 403 2428 403 3163 
Q 403 3881 828 4315 
Q 1253 4750 1959 4750 
Q 2769 4750 3195 4129 
Q 3622 3509 3622 2328 
Q 3622 1225 3098 567 
Q 2575 -91 1691 -91 
Q 1453 -91 1209 -44 
Q 966 3 703 97 
z
M 1959 2075 
Q 2384 2075 2632 2365 
Q 2881 2656 2881 3163 
Q 2881 3666 2632 3958 
Q 2384 4250 1959 4250 
Q 1534 4250 1286 3958 
Q 1038 3666 1038 3163 
Q 1038 2656 1286 2365 
Q 1534 2075 1959 2075 
z
" transform="scale(0.015625)"/>
       </defs>
       <use xlink:href="#DejaVuSans-32"/>
       <use xlink:href="#DejaVuSans-30" transform="translate(63.623047 0)"/>
       <use xlink:href="#DejaVuSans-32" transform="translate(127.246094 0)"/>
       <use xlink:href="#DejaVuSans-34" transform="translate(190.869141 0)"/>
       <use xlink:href="#DejaVuSans-2d" transform="translate(254.492188 0)"/>
       <use xlink:href="#DejaVuSans-30" transform="translate(290.576172 0)"/>
       <use xlink:href="#DejaVuSans-39" transform="translate(354.199219 0)"/>
      </g>
     </g>
    </g>
    <g id="xtick_5">
     <g id="line2d_5">
      <g>
       <use xlink:href="#m9e82ccc3a8" x="555.427772" y="224.28" style="stroke: #000000; stroke-width: 0.8"/>
      </g>
     </g>
     <g id="text_5">
      <!-- 2024-11 -->
      <g transform="translate(534.536366 238.878438) scale(0.1 -0.1)">
       <defs>
        <path id="DejaVuSans-31" d="M 794 531 
L 1825 531 
L 1825 4091 
L 703 3866 
L 703 4441 
L 1819 4666 
L 2450 4666 
L 2450 531 
L 3481 531 
L 3481 0 
L 794 0 
L 794 531 
z
" transform="scale(0.015625)"/>
       </defs>
       <use xlink:href="#DejaVuSans-32"/>
       <use xlink:href="#DejaVuSans-30" transform="translate(63.623047 0)"/>
       <use xlink:href="#DejaVuSans-32" transform="translate(127.246094 0)"/>
       <use xlink:href="#DejaVuSans-34" transform="translate(190.869141 0)"/>
       <use xlink:href="#DejaVuSans-2d" transform="translate(254.492188 0)"/>
       <use xlink:href="#DejaVuSans-31" transform="translate(290.576172 0)"/>
       <use xlink:href="#DejaVuSans-31" transform="translate(354.199219 0)"/>
      </g>
     </g>
    </g>
    <g id="xtick_6">
     <g id="line2d_6">
      <g>
       <use xlink:href="#m9e82ccc3a8" x="646.0764" y="224.28" style="stroke: #000000; stroke-width: 0.8"/>
      </g>
     </g>
     <g id="text_6">
      <!-- 2025-01 -->
      <g transform="translate(625.184994 238.878438) scale(0.1 -0.1)">
       <use xlink:href="#DejaVuSans-32"/>
       <use xlink:href="#DejaVuSans-30" transform="translate(63.623047 0)"/>
       <use xlink:href="#DejaVuSans-32" transform="translate(127.246094 0)"/>
       <use xlink:href="#DejaVuSans-35" transform="translate(190.869141 0)"/>
       <use xlink:href="#DejaVuSans-2d" transform="translate(254.492188 0)"/>
       <use xlink:href="#DejaVuSans-30" transform="translate(290.576172 0)"/>
       <use xlink:href="#DejaVuSans-31" transform="translate(354.199219 0)"/>
      </g>
     </g>
    </g>
    <g id="xtick_7">
     <g id="line2d_7">
      <g>
       <use xlink:href="#m9e82ccc3a8" x="733.752941" y="224.28" style="stroke: #000000; stroke-width: 0.8"/>
      </g>
     </g>
     <g id="text_7">
      <!-- 2025-03 -->
      <g transform="translate(712.861535 238.878438) scale(0.1 -0.1)">
       <use xlink:href="#DejaVuSans-32"/>
       <use xlink:href="#DejaVuSans-30" transform="translate(63.623047 0)"/>
       <use xlink:href="#DejaVuSans-32" transform="translate(127.246094 0)"/>
       <use xlink:href="#DejaVuSans-35" transform="translate(190.869141 0)"/>
       <use xlink:href="#DejaVuSans-2d" transform="translate(254.492188 0)"/>
       <use xlink:href="#DejaVuSans-30" transform="translate(290.576172 0)"/>
       <use xlink:href="#DejaVuSans-33" transform="translate(354.199219 0)"/>
      </g>
     </g>
    </g>
    <g id="xtick_8">
     <g id="line2d_8">
      <g>
       <use xlink:href="#m9e82ccc3a8" x="824.401568" y="224.28" style="stroke: #000000; stroke-width: 0.8"/>
      </g>
     </g>
     <g id="text_8">
      <!-- 2025-05 -->
      <g transform="translate(803.510162 238.878438) scale(0.1 -0.1)">
       <use xlink:href="#DejaVuSans-32"/>
       <use xlink:href="#DejaVuSans-30" transform="translate(63.623047 0)"/>
       <use xlink:href="#DejaVuSans-32" transform="translate(127.246094 0)"/>
       <use xlink:href="#DejaVuSans-35" transform="translate(190.869141 0)"/>
       <use xlink:href="#DejaVuSans-2d" transform="translate(254.492188 0)"/>
       <use xlink:href="#DejaVuSans-30" transform="translate(290.576172 0)"/>
       <use xlink:href="#DejaVuSans-35" transform="translate(354.199219 0)"/>
      </g>
     </g>
    </g>
    <g id="xtick_9">
     <g id="line2d_9">
      <g>
       <use xlink:href="#m9e82ccc3a8" x="915.050196" y="224.28" style="stroke: #000000; stroke-width: 0.8"/>
      </g>
     </g>
     <g id="text_9">
      <!-- 2025-07 -->
      <g transform="translate(894.158789 238.878438) scale(0.1 -0.1)">
       <use xlink:href="#DejaVuSans-32"/>
       <use xlink:href="#DejaVuSans-30" transform="translate(63.623047 0)"/>
       <use xlink:href="#DejaVuSans-32" transform="translate(127.246094 0)"/>
       <use xlink:href="#DejaVuSans-35" transform="translate(190.869141 0)"/>
       <use xlink:href="#DejaVuSans-2d" transform="translate(254.492188 0)"/>
       <use xlink:href="#DejaVuSans-30" transform="translate(290.576172 0)"/>
       <use xlink:href="#DejaVuSans-37" transform="translate(354.199219 0)"/>
      </g>
     </g>
    </g>
    <g id="xtick_10">
     <g id="line2d_10">
      <g>
       <use xlink:href="#m9e82ccc3a8" x="1007.184866" y="224.28" style="stroke: #000000; stroke-width: 0.8"/>
      </g>
     </g>
     <g id="text_10">
      <!-- 2025-09 -->
      <g transform="translate(986.29346 238.878438) scale(0.1 -0.1)">
       <use xlink:href="#DejaVuSans-32"/>
       <use xlink:href="#DejaVuSans-30" transform="translate(63.623047 0)"/>
       <use xlink:href="#DejaVuSans-32" transform="translate(127.246094 0)"/>
       <use xlink:href="#DejaVuSans-35" transform="translate(190.869141 0)"/>
       <use xlink:href="#DejaVuSans-2d" transform="translate(254.492188 0)"/>
       <use xlink:href="#DejaVuSans-30" transform="translate(290.576172 0)"/>
       <use xlink:href="#DejaVuSans-39" transform="translate(354.199219 0)"/>
      </g>
     </g>
    </g>
   </g>
   <g id="matplotlib.axis_2">
    <g id="ytick_1">
     <g id="line2d_11">
      <defs>
       <path id="m7e72c04b83" d="M 0 0 
L -3.5 0 
" style="stroke: #000000; stroke-width: 0.8"/>
      </defs>
      <g>
       <use xlink:href="#m7e72c04b83" x="145.8" y="204.457417" style="stroke: #000000; stroke-width: 0.8"/>
      </g>
     </g>
     <g id="text_11">
      <!-- 20 -->
      <g transform="translate(126.075 208.256635) scale(0.1 -0.1)">
       <use xlink:href="#DejaVuSans-32"/>
       <use xlink:href="#DejaVuSans-30" transform="translate(63.623047 0)"/>
      </g>
     </g>
    </g>
    <g id="ytick_2">
     <g id="line2d_12">
      <g>
       <use xlink:href="#m7e72c04b83" x="145.8" y="178.94596" style="stroke: #000000; stroke-width: 0.8"/>
      </g>
     </g>
     <g id="text_12">
      <!-- 30 -->
      <g transform="translate(126.075 182.745179) scale(0.1 -0.1)">
       <use xlink:href="#DejaVuSans-33"/>
       <use xlink:href="#DejaVuSans-30" transform="translate(63.623047 0)"/>
      </g>
     </g>
    </g>
    <g id="ytick_3">
     <g id="line2d_13">
      <g>
       <use xlink:href="#m7e72c04b83" x="145.8" y="153.434504" style="stroke: #000000; stroke-width: 0.8"/>
      </g>
     </g>
     <g id="text_13">
      <!-- 40 -->
      <g transform="translate(126.075 157.233723) scale(0.1 -0.1)">
       <use xlink:href="#DejaVuSans-34"/>
       <use xlink:href="#DejaVuSans-30" transform="translate(63.623047 0)"/>
      </g>
     </g>
    </g>
    <g id="ytick_4">
     <g id="line2d_14">
      <g>
       <use xlink:href="#m7e72c04b83" x="145.8" y="127.923048" style="stroke: #000000; stroke-width: 0.8"/>
      </g>
     </g>
     <g id="text_14">
      <!-- 50 -->
      <g transform="translate(126.075 131.722267) scale(0.1 -0.1)">
       <use xlink:href="#DejaVuSans-35"/>
       <use xlink:href="#DejaVuSans-30" transform="translate(63.623047 0)"/>
      </g>
     </g>
    </g>
    <g id="ytick_5">
     <g id="line2d_15">
      <g>
       <use xlink:href="#m7e72c04b83" x="145.8" y="102.411592" style="stroke: #000000; stroke-width: 0.8"/>
      </g>
     </g>
     <g id="text_15">
      <!-- 60 -->
      <g transform="translate(126.075 106.210811) scale(0.1 -0.1)">
       <defs>
        <path id="DejaVuSans-36" d="M 2113 2584 
Q 1688 2584 1439 2293 
Q 1191 2003 1191 1497 
Q 1191 994 1439 701 
Q 1688 409 2113 409 
Q 2538 409 2786 701 
Q 3034 994 3034 1497 
Q 3034 2003 2786 2293 
Q 2538 2584 2113 2584 
z
M 3366 4563 
L 3366 3988 
Q 3128 4100 2886 4159 
Q 2644 4219 2406 4219 
Q 1781 4219 1451 3797 
Q 1122 3375 1075 2522 
Q 1259 2794 1537 2939 
Q 1816 3084 2150 3084 
Q 2853 3084 3261 2657 
Q 3669 2231 3669 1497 
Q 3669 778 3244 343 
Q 2819 -91 2113 -91 
Q 1303 -91 875 529 
Q 447 1150 447 2328 
Q 447 3434 972 4092 
Q 1497 4750 2381 4750 
Q 2619 4750 2861 4703 
Q 3103 4656 3366 4563 
z
" transform="scale(0.015625)"/>
       </defs>
       <use xlink:href="#DejaVuSans-36"/>
       <use xlink:href="#DejaVuSans-30" transform="translate(63.623047 0)"/>
      </g>
     </g>
    </g>
    <g id="ytick_6">
     <g id="line2d_16">
      <g>
       <use xlink:href="#m7e72c04b83" x="145.8" y="76.900136" style="stroke: #000000; stroke-width: 0.8"/>
      </g>
     </g>
     <g id="text_16">
      <!-- 70 -->
      <g transform="translate(126.075 80.699354) scale(0.1 -0.1)">
       <use xlink:href="#DejaVuSans-37"/>
       <use xlink:href="#DejaVuSans-30" transform="translate(63.623047 0)"/>
      </g>
     </g>
    </g>
    <g id="ytick_7">
     <g id="line2d_17">
      <g>
       <use xlink:href="#m7e72c04b83" x="145.8" y="51.388679" style="stroke: #000000; stroke-width: 0.8"/>
      </g>
     </g>
     <g id="text_17">
      <!-- 80 -->
      <g transform="translate(126.075 55.187898) scale(0.1 -0.1)">
       <defs>
        <path id="DejaVuSans-38" d="M 2034 2216 
Q 1584 2216 1326 1975 
Q 1069 1734 1069 1313 
Q 1069 891 1326 650 
Q 1584 409 2034 409 
Q 2484 409 2743 651 
Q 3003 894 3003 1313 
Q 3003 1734 2745 1975 
Q 2488 2216 2034 2216 
z
M 1403 2484 
Q 997 2584 770 2862 
Q 544 3141 544 3541 
Q 544 4100 942 4425 
Q 1341 4750 2034 4750 
Q 2731 4750 3128 4425 
Q 3525 4100 3525 3541 
Q 3525 3141 3298 2862 
Q 3072 2584 2669 2484 
Q 3125 2378 3379 2068 
Q 3634 1759 3634 1313 
Q 3634 634 3220 271 
Q 2806 -91 2034 -91 
Q 1263 -91 848 271 
Q 434 634 434 1313 
Q 434 1759 690 2068 
Q 947 2378 1403 2484 
z
M 1172 3481 
Q 1172 3119 1398 2916 
Q 1625 2713 2034 2713 
Q 2441 2713 2670 2916 
Q 2900 3119 2900 3481 
Q 2900 3844 2670 4047 
Q 2441 4250 2034 4250 
Q 1625 4250 1398 4047 
Q 1172 3844 1172 3481 
z
" transform="scale(0.015625)"/>
       </defs>
       <use xlink:href="#DejaVuSans-38"/>
       <use xlink:href="#DejaVuSans-30" transform="translate(63.623047 0)"/>
      </g>
     </g>
    </g>
   </g>
   <g id="line2d_18">
    <path d="M 186.889091 107.987977 
L 188.375134 115.539278 
L 189.861177 98.499828 
L 191.34722 110.012744 
L 195.805349 101.587306 
L 197.291392 100.11822 
L 198.777435 114.137498 
L 200.263479 92.862287 
L 201.749522 100.043724 
L 206.207651 105.434622 
L 207.693694 98.619356 
L 209.179737 117.730847 
L 210.66578 109.865275 
L 212.151823 129.214019 
L 216.609952 123.8585 
L 218.095995 116.478857 
L 219.582038 121.848898 
L 221.068082 128.24508 
L 222.554125 122.006185 
L 227.012254 99.616332 
L 228.498297 104.414007 
L 229.98434 112.064039 
L 231.470383 100.374197 
L 237.414555 71.832755 
L 238.900598 88.934955 
L 240.386641 86.212022 
L 241.872685 119.118715 
L 243.358728 55.854896 
L 247.816857 55.67884 
L 249.3029 58.572239 
L 250.788943 65.738908 
L 252.274986 55.128599 
L 253.761029 84.445756 
L 258.219158 106.210069 
L 259.705201 98.630364 
L 261.191244 119.65494 
L 262.677288 134.119316 
L 264.163331 156.929955 
L 268.62146 142.537256 
L 270.107503 139.812973 
L 271.593546 141.806578 
L 273.079589 177.75702 
L 274.565632 148.217119 
L 279.023761 144.672247 
L 280.509804 161.539215 
L 281.995847 158.122133 
L 283.481891 131.897771 
L 284.967934 120.453573 
L 289.426063 113.139401 
L 290.912106 106.453017 
L 292.398149 101.962149 
L 293.884192 80.56283 
L 295.370235 94.797583 
L 299.828364 104.368289 
L 301.314407 90.393517 
L 302.80045 81.401239 
L 304.286494 110.980156 
L 305.772537 111.97842 
L 310.230666 84.557634 
L 311.716709 103.312985 
L 313.202752 140.751387 
L 314.688795 168.057042 
L 316.174838 199.286996 
L 322.11901 182.145247 
L 323.605053 179.048628 
L 325.091096 208.477331 
L 326.57714 210.857937 
L 331.035269 186.34261 
L 332.521312 181.308037 
L 334.007355 159.00409 
L 335.493398 119.476789 
L 336.979441 130.433983 
L 341.43757 107.439342 
L 342.923613 103.93988 
L 344.409656 106.142156 
L 345.895699 112.505241 
L 347.381743 111.692496 
L 351.839872 116.782889 
L 353.325915 123.539859 
L 356.298001 91.246258 
L 357.784044 59.834978 
L 362.242173 91.456407 
L 363.728216 92.292476 
L 365.214259 76.169737 
L 366.700302 74.894473 
L 368.186346 95.126787 
L 372.644475 91.994401 
L 374.130518 85.756145 
L 375.616561 94.38834 
L 378.588647 76.422403 
L 384.532819 79.486813 
L 386.018862 73.006184 
L 387.504905 100.003329 
L 388.990949 109.984776 
L 393.449078 103.092296 
L 394.935121 104.423791 
L 396.421164 149.182604 
L 397.907207 180.790697 
L 399.39325 170.895042 
L 403.851379 197.991006 
L 405.337422 190.436654 
L 406.823465 197.109414 
L 408.309508 215.139822 
L 409.795552 196.107915 
L 414.253681 192.139379 
L 415.739724 197.59784 
L 417.225767 158.532295 
L 418.71181 164.864347 
L 420.197853 190.764935 
L 424.655982 199.584491 
L 427.628068 182.052368 
L 429.114111 170.556984 
L 430.600155 165.915241 
L 435.058284 179.297059 
L 436.544327 156.97568 
L 438.03037 155.14312 
L 439.516413 140.317813 
L 441.002456 143.475124 
L 445.460585 136.82123 
L 446.946628 150.671034 
L 448.432671 139.47147 
L 451.404758 48.0376 
L 455.862887 61.881239 
L 457.34893 80.347593 
L 458.834973 104.336227 
L 460.321016 103.648719 
L 461.807059 83.319873 
L 467.751231 104.134433 
L 469.237274 116.174832 
L 470.723317 126.732394 
L 472.209361 146.90101 
L 476.66749 136.705099 
L 478.153533 126.000366 
L 479.639576 116.249912 
L 481.125619 98.226157 
L 482.611662 101.882468 
L 487.069791 102.081343 
L 488.555834 89.733541 
L 490.041877 82.703759 
L 491.52792 78.92628 
L 493.013964 87.716117 
L 497.472093 73.85154 
L 498.958136 60.013235 
L 500.444179 75.496423 
L 501.930222 45.213799 
L 503.416265 73.882145 
L 507.874394 96.080739 
L 509.360437 124.596416 
L 510.84648 141.350135 
L 512.332523 152.438678 
L 513.818566 120.131117 
L 518.276696 153.569489 
L 519.762739 142.846938 
L 521.248782 147.438644 
L 522.734825 148.645421 
L 524.220868 149.182595 
L 528.678997 153.871068 
L 530.16504 148.311978 
L 531.651083 146.255933 
L 533.137126 129.989525 
L 534.623169 115.346966 
L 539.081299 108.488567 
L 540.567342 103.798492 
L 542.053385 115.532283 
L 543.539428 128.575078 
L 545.025471 85.564665 
L 549.4836 91.413756 
L 550.969643 91.459714 
L 552.455686 89.567565 
L 553.941729 140.584667 
L 555.427772 89.652171 
L 559.885902 99.751094 
L 562.857988 74.266666 
L 564.344031 71.957262 
L 565.830074 78.965047 
L 570.288203 84.629337 
L 571.774246 63.045249 
L 573.260289 58.727597 
L 574.746332 70.208723 
L 576.232375 97.981414 
L 580.690505 104.442157 
L 582.176548 102.691939 
L 583.662591 90.019251 
L 585.148634 126.737785 
L 586.634677 124.32763 
L 591.092806 122.757189 
L 592.578849 125.831936 
L 594.064892 139.840914 
L 597.036978 128.72009 
L 601.495108 117.615099 
L 602.981151 116.021213 
L 604.467194 117.15179 
L 605.953237 103.744462 
L 607.43928 59.402412 
L 611.897409 59.531717 
L 613.383452 68.193641 
L 616.355538 39.06 
L 617.841581 40.285131 
L 622.299711 39.280551 
L 623.785754 54.876316 
L 625.271797 89.588402 
L 626.75784 88.477605 
L 628.243883 90.634639 
L 634.188055 97.251821 
L 637.160141 109.457057 
L 638.646184 137.951524 
L 643.104314 142.056729 
L 644.590357 144.269122 
L 647.562443 160.181872 
L 649.048486 142.310118 
L 653.506615 127.491058 
L 654.992658 159.064046 
L 656.478701 154.957008 
L 659.450787 133.661678 
L 663.908917 146.689409 
L 665.39496 156.553452 
L 666.881003 133.762985 
L 668.367046 157.60972 
L 669.853089 131.523062 
L 675.797261 106.163273 
L 677.283304 86.919338 
L 678.769347 78.233088 
L 680.25539 82.284433 
L 684.71352 89.713725 
L 686.199563 91.389005 
L 687.685606 68.989805 
L 689.171649 82.055236 
L 690.657692 58.915447 
L 695.115821 57.659069 
L 696.601864 47.118962 
L 698.087907 85.623899 
L 699.57395 67.92517 
L 701.059993 118.407406 
L 705.518123 120.586634 
L 707.004166 135.41076 
L 708.490209 147.751737 
L 709.976252 141.331262 
L 711.462295 147.578665 
L 717.406467 162.005493 
L 718.89251 159.645249 
L 720.378553 162.566762 
L 721.864596 185.729249 
L 726.322726 190.748212 
L 727.808769 209.736386 
L 729.294812 195.347901 
L 730.780855 214.701189 
L 732.266898 184.417953 
L 736.725027 214.647211 
L 738.21107 215.46 
L 739.697113 189.042397 
L 741.183156 204.924593 
L 742.669199 204.676512 
L 747.127329 207.31568 
L 748.613372 199.385602 
L 750.099415 186.579364 
L 751.585458 184.818572 
L 753.071501 164.796272 
L 757.52963 168.843078 
L 759.015673 178.267846 
L 760.501716 160.516129 
L 761.987759 173.30529 
L 763.473802 154.234908 
L 767.931932 129.342126 
L 769.417975 135.203385 
L 770.904018 126.65775 
L 772.390061 121.534584 
L 773.876104 132.963285 
L 778.334233 145.298517 
L 779.820276 146.52516 
L 781.306319 121.902992 
L 782.792362 170.558516 
L 784.278405 177.495282 
L 788.736535 162.383171 
L 790.222578 175.375565 
L 791.708621 133.585384 
L 793.194664 147.976373 
L 794.680707 153.434504 
L 799.138836 160.541782 
L 800.624879 158.384084 
L 802.110922 164.128801 
L 803.596965 156.970466 
L 809.541138 160.029295 
L 811.027181 153.396965 
L 812.513224 147.844573 
L 813.999267 116.00442 
L 815.48531 99.955261 
L 819.943439 107.857125 
L 821.429482 99.389381 
L 822.915525 142.788431 
L 824.401568 106.399859 
L 825.887611 114.831707 
L 830.345741 117.274363 
L 831.831784 113.950528 
L 833.317827 89.645214 
L 834.80387 77.821373 
L 836.289913 55.379467 
L 840.748042 45.653497 
L 842.234085 49.877006 
L 843.720128 61.409239 
L 845.206171 85.015031 
L 846.692214 79.606303 
L 851.150344 77.507162 
L 852.636387 74.146998 
L 854.12243 96.106583 
L 855.608473 91.173993 
L 857.094516 85.50058 
L 863.038688 71.750789 
L 864.524731 82.851523 
L 867.496817 92.166341 
L 871.954947 136.770714 
L 873.44099 154.762174 
L 874.927033 142.033799 
L 876.413076 112.660711 
L 877.899119 91.750057 
L 882.357248 83.372726 
L 883.843291 69.416121 
L 885.329334 78.184752 
L 886.815377 83.383411 
L 888.30142 77.436341 
L 892.75955 80.372088 
L 894.245593 80.242447 
L 895.731636 97.226446 
L 898.703722 108.337445 
L 903.161851 120.199987 
L 904.647894 100.976497 
L 906.133937 109.343688 
L 907.61998 96.282829 
L 909.106023 94.958068 
L 913.564153 119.865032 
L 915.050196 118.502504 
L 916.536239 103.23456 
L 918.022282 93.936767 
L 923.966454 88.820201 
L 925.452497 116.744668 
L 926.93854 102.737885 
L 928.424583 94.41695 
L 929.910626 75.087273 
L 934.368756 67.677979 
L 935.854799 75.143434 
L 938.826885 99.8903 
L 940.312928 114.468449 
L 944.771057 79.471847 
L 946.2571 94.620436 
L 947.743143 88.5698 
L 949.229186 87.130657 
L 950.715229 92.012353 
L 955.173359 60.874353 
L 956.659402 83.185549 
L 958.145445 86.953798 
L 959.631488 83.068258 
L 961.117531 159.253934 
L 965.57566 167.835657 
L 967.061703 154.145641 
L 968.547746 131.646155 
L 970.033789 135.231527 
L 971.519832 144.911843 
L 975.977962 143.922812 
L 977.464005 145.845169 
L 978.950048 148.438132 
L 980.436091 129.023521 
L 981.922134 132.238698 
L 986.380263 126.715378 
L 987.866306 133.134362 
L 989.352349 152.416703 
L 990.838392 102.51045 
L 992.324435 73.009231 
L 996.782565 81.188279 
L 998.268608 101.53755 
L 999.754651 102.896291 
L 1001.240694 93.027881 
L 1002.726737 98.84696 
L 1008.670909 114.677923 
L 1008.670909 114.677923 
" clip-path="url(#p14c6164ecc)" style="fill: none; stroke: #1f77b4; stroke-width: 1.5; stroke-linecap: square"/>
   </g>
   <g id="patch_3">
    <path d="M 145.8 224.28 
L 145.8 30.24 
" style="fill: none; stroke: #000000; stroke-width: 0.8; stroke-linejoin: miter; stroke-linecap: square"/>
   </g>
   <g id="patch_4">
    <path d="M 145.8 224.28 
L 1049.76 224.28 
" style="fill: none; stroke: #000000; stroke-width: 0.8; stroke-linejoin: miter; stroke-linecap: square"/>
   </g>
  </g>
 </g>
 <defs>
  <clipPath id="p14c6164ecc">
   <rect x="145.8" y="30.24" width="903.96" height="194.04"/>
  </clipPath>
 </defs>
</svg>
