<?xml version="1.0" encoding="utf-8" standalone="no"?>
<!DOCTYPE svg PUBLIC "-//W3C//DTD SVG 1.1//EN"
  "http://www.w3.org/Graphics/SVG/1.1/DTD/svg11.dtd">
<svg xmlns:xlink="http://www.w3.org/1999/xlink" width="756pt" height="252pt" viewBox="0 0 756 252" xmlns="http://www.w3.org/2000/svg" version="1.1">
 <metadata>
  <rdf:RDF xmlns:dc="http://purl.org/dc/elements/1.1/" xmlns:cc="http://creativecommons.org/ns#" xmlns:rdf="http://www.w3.org/1999/02/22-rdf-syntax-ns#">
   <cc:Work>
    <dc:type rdf:resource="http://purl.org/dc/dcmitype/StillImage"/>
    <dc:date>2025-09-07T00:54:24.614519</dc:date>
    <dc:format>image/svg+xml</dc:format>
    <dc:creator>
     <cc:Agent>
      <dc:title>Matplotlib v3.10.5, https://matplotlib.org/</dc:title>
     </cc:Agent>
    </dc:creator>
   </cc:Work>
  </rdf:RDF>
 </metadata>
 <defs>
  <style type="text/css">*{stroke-linejoin: round; stroke-linecap: butt}</style>
 </defs>
 <g id="figure_1">
  <g id="patch_1">
   <path d="M 0 252 
L 756 252 
L 756 0 
L 0 0 
z
" style="fill: #ffffff"/>
  </g>
  <g id="axes_1">
   <g id="patch_2">
    <path d="M 94.5 224.28 
L 680.4 224.28 
L 680.4 30.24 
L 94.5 30.24 
z
" style="fill: #ffffff"/>
   </g>
   <g id="matplotlib.axis_1">
    <g id="xtick_1">
     <g id="line2d_1">
      <defs>
       <path id="m2142ccd59a" d="M 0 0 
L 0 3.5 
" style="stroke: #000000; stroke-width: 0.8"/>
      </defs>
      <g>
       <use xlink:href="#m2142ccd59a" x="115.680861" y="224.28" style="stroke: #000000; stroke-width: 0.8"/>
      </g>
     </g>
     <g id="text_1">
      <!-- 2020 -->
      <g transform="translate(102.955861 238.878438) scale(0.1 -0.1)">
       <defs>
        <path id="DejaVuSans-32" d="M 1228 531 
L 3431 531 
L 3431 0 
L 469 0 
L 469 531 
Q 828 903 1448 1529 
Q 2069 2156 2228 2338 
Q 2531 2678 2651 2914 
Q 2772 3150 2772 3378 
Q 2772 3750 2511 3984 
Q 2250 4219 1831 4219 
Q 1534 4219 1204 4116 
Q 875 4013 500 3803 
L 500 4441 
Q 881 4594 1212 4672 
Q 1544 4750 1819 4750 
Q 2544 4750 2975 4387 
Q 3406 4025 3406 3419 
Q 3406 3131 3298 2873 
Q 3191 2616 2906 2266 
Q 2828 2175 2409 1742 
Q 1991 1309 1228 531 
z
" transform="scale(0.015625)"/>
        <path id="DejaVuSans-30" d="M 2034 4250 
Q 1547 4250 1301 3770 
Q 1056 3291 1056 2328 
Q 1056 1369 1301 889 
Q 1547 409 2034 409 
Q 2525 409 2770 889 
Q 3016 1369 3016 2328 
Q 3016 3291 2770 3770 
Q 2525 4250 2034 4250 
z
M 2034 4750 
Q 2819 4750 3233 4129 
Q 3647 3509 3647 2328 
Q 3647 1150 3233 529 
Q 2819 -91 2034 -91 
Q 1250 -91 836 529 
Q 422 1150 422 2328 
Q 422 3509 836 4129 
Q 1250 4750 2034 4750 
z
" transform="scale(0.015625)"/>
       </defs>
       <use xlink:href="#DejaVuSans-32"/>
       <use xlink:href="#DejaVuSans-30" transform="translate(63.623047 0)"/>
       <use xlink:href="#DejaVuSans-32" transform="translate(127.246094 0)"/>
       <use xlink:href="#DejaVuSans-30" transform="translate(190.869141 0)"/>
      </g>
     </g>
    </g>
    <g id="xtick_2">
     <g id="line2d_2">
      <g>
       <use xlink:href="#m2142ccd59a" x="210.683254" y="224.28" style="stroke: #000000; stroke-width: 0.8"/>
      </g>
     </g>
     <g id="text_2">
      <!-- 2021 -->
      <g transform="translate(197.958254 238.878438) scale(0.1 -0.1)">
       <defs>
        <path id="DejaVuSans-31" d="M 794 531 
L 1825 531 
L 1825 4091 
L 703 3866 
L 703 4441 
L 1819 4666 
L 2450 4666 
L 2450 531 
L 3481 531 
L 3481 0 
L 794 0 
L 794 531 
z
" transform="scale(0.015625)"/>
       </defs>
       <use xlink:href="#DejaVuSans-32"/>
       <use xlink:href="#DejaVuSans-30" transform="translate(63.623047 0)"/>
       <use xlink:href="#DejaVuSans-32" transform="translate(127.246094 0)"/>
       <use xlink:href="#DejaVuSans-31" transform="translate(190.869141 0)"/>
      </g>
     </g>
    </g>
    <g id="xtick_3">
     <g id="line2d_3">
      <g>
       <use xlink:href="#m2142ccd59a" x="305.426077" y="224.28" style="stroke: #000000; stroke-width: 0.8"/>
      </g>
     </g>
     <g id="text_3">
      <!-- 2022 -->
      <g transform="translate(292.701077 238.878438) scale(0.1 -0.1)">
       <use xlink:href="#DejaVuSans-32"/>
       <use xlink:href="#DejaVuSans-30" transform="translate(63.623047 0)"/>
       <use xlink:href="#DejaVuSans-32" transform="translate(127.246094 0)"/>
       <use xlink:href="#DejaVuSans-32" transform="translate(190.869141 0)"/>
      </g>
     </g>
    </g>
    <g id="xtick_4">
     <g id="line2d_4">
      <g>
       <use xlink:href="#m2142ccd59a" x="400.1689" y="224.28" style="stroke: #000000; stroke-width: 0.8"/>
      </g>
     </g>
     <g id="text_4">
      <!-- 2023 -->
      <g transform="translate(387.4439 238.878438) scale(0.1 -0.1)">
       <defs>
        <path id="DejaVuSans-33" d="M 2597 2516 
Q 3050 2419 3304 2112 
Q 3559 1806 3559 1356 
Q 3559 666 3084 287 
Q 2609 -91 1734 -91 
Q 1441 -91 1130 -33 
Q 819 25 488 141 
L 488 750 
Q 750 597 1062 519 
Q 1375 441 1716 441 
Q 2309 441 2620 675 
Q 2931 909 2931 1356 
Q 2931 1769 2642 2001 
Q 2353 2234 1838 2234 
L 1294 2234 
L 1294 2753 
L 1863 2753 
Q 2328 2753 2575 2939 
Q 2822 3125 2822 3475 
Q 2822 3834 2567 4026 
Q 2313 4219 1838 4219 
Q 1578 4219 1281 4162 
Q 984 4106 628 3988 
L 628 4550 
Q 988 4650 1302 4700 
Q 1616 4750 1894 4750 
Q 2613 4750 3031 4423 
Q 3450 4097 3450 3541 
Q 3450 3153 3228 2886 
Q 3006 2619 2597 2516 
z
" transform="scale(0.015625)"/>
       </defs>
       <use xlink:href="#DejaVuSans-32"/>
       <use xlink:href="#DejaVuSans-30" transform="translate(63.623047 0)"/>
       <use xlink:href="#DejaVuSans-32" transform="translate(127.246094 0)"/>
       <use xlink:href="#DejaVuSans-33" transform="translate(190.869141 0)"/>
      </g>
     </g>
    </g>
    <g id="xtick_5">
     <g id="line2d_5">
      <g>
       <use xlink:href="#m2142ccd59a" x="494.911722" y="224.28" style="stroke: #000000; stroke-width: 0.8"/>
      </g>
     </g>
     <g id="text_5">
      <!-- 2024 -->
      <g transform="translate(482.186722 238.878438) scale(0.1 -0.1)">
       <defs>
        <path id="DejaVuSans-34" d="M 2419 4116 
L 825 1625 
L 2419 1625 
L 2419 4116 
z
M 2253 4666 
L 3047 4666 
L 3047 1625 
L 3713 1625 
L 3713 1100 
L 3047 1100 
L 3047 0 
L 2419 0 
L 2419 1100 
L 313 1100 
L 313 1709 
L 2253 4666 
z
" transform="scale(0.015625)"/>
       </defs>
       <use xlink:href="#DejaVuSans-32"/>
       <use xlink:href="#DejaVuSans-30" transform="translate(63.623047 0)"/>
       <use xlink:href="#DejaVuSans-32" transform="translate(127.246094 0)"/>
       <use xlink:href="#DejaVuSans-34" transform="translate(190.869141 0)"/>
      </g>
     </g>
    </g>
    <g id="xtick_6">
     <g id="line2d_6">
      <g>
       <use xlink:href="#m2142ccd59a" x="589.914115" y="224.28" style="stroke: #000000; stroke-width: 0.8"/>
      </g>
     </g>
     <g id="text_6">
      <!-- 2025 -->
      <g transform="translate(577.189115 238.878438) scale(0.1 -0.1)">
       <defs>
        <path id="DejaVuSans-35" d="M 691 4666 
L 3169 4666 
L 3169 4134 
L 1269 4134 
L 1269 2991 
Q 1406 3038 1543 3061 
Q 1681 3084 1819 3084 
Q 2600 3084 3056 2656 
Q 3513 2228 3513 1497 
Q 3513 744 3044 326 
Q 2575 -91 1722 -91 
Q 1428 -91 1123 -41 
Q 819 9 494 109 
L 494 744 
Q 775 591 1075 516 
Q 1375 441 1709 441 
Q 2250 441 2565 725 
Q 2881 1009 2881 1497 
Q 2881 1984 2565 2268 
Q 2250 2553 1709 2553 
Q 1456 2553 1204 2497 
Q 953 2441 691 2322 
L 691 4666 
z
" transform="scale(0.015625)"/>
       </defs>
       <use xlink:href="#DejaVuSans-32"/>
       <use xlink:href="#DejaVuSans-30" transform="translate(63.623047 0)"/>
       <use xlink:href="#DejaVuSans-32" transform="translate(127.246094 0)"/>
       <use xlink:href="#DejaVuSans-35" transform="translate(190.869141 0)"/>
      </g>
     </g>
    </g>
   </g>
   <g id="matplotlib.axis_2">
    <g id="ytick_1">
     <g id="line2d_7">
      <defs>
       <path id="m3931b3bb53" d="M 0 0 
L -3.5 0 
" style="stroke: #000000; stroke-width: 0.8"/>
      </defs>
      <g>
       <use xlink:href="#m3931b3bb53" x="94.5" y="217.463544" style="stroke: #000000; stroke-width: 0.8"/>
      </g>
     </g>
     <g id="text_7">
      <!-- 80 -->
      <g transform="translate(74.775 221.262763) scale(0.1 -0.1)">
       <defs>
        <path id="DejaVuSans-38" d="M 2034 2216 
Q 1584 2216 1326 1975 
Q 1069 1734 1069 1313 
Q 1069 891 1326 650 
Q 1584 409 2034 409 
Q 2484 409 2743 651 
Q 3003 894 3003 1313 
Q 3003 1734 2745 1975 
Q 2488 2216 2034 2216 
z
M 1403 2484 
Q 997 2584 770 2862 
Q 544 3141 544 3541 
Q 544 4100 942 4425 
Q 1341 4750 2034 4750 
Q 2731 4750 3128 4425 
Q 3525 4100 3525 3541 
Q 3525 3141 3298 2862 
Q 3072 2584 2669 2484 
Q 3125 2378 3379 2068 
Q 3634 1759 3634 1313 
Q 3634 634 3220 271 
Q 2806 -91 2034 -91 
Q 1263 -91 848 271 
Q 434 634 434 1313 
Q 434 1759 690 2068 
Q 947 2378 1403 2484 
z
M 1172 3481 
Q 1172 3119 1398 2916 
Q 1625 2713 2034 2713 
Q 2441 2713 2670 2916 
Q 2900 3119 2900 3481 
Q 2900 3844 2670 4047 
Q 2441 4250 2034 4250 
Q 1625 4250 1398 4047 
Q 1172 3844 1172 3481 
z
" transform="scale(0.015625)"/>
       </defs>
       <use xlink:href="#DejaVuSans-38"/>
       <use xlink:href="#DejaVuSans-30" transform="translate(63.623047 0)"/>
      </g>
     </g>
    </g>
    <g id="ytick_2">
     <g id="line2d_8">
      <g>
       <use xlink:href="#m3931b3bb53" x="94.5" y="195.44657" style="stroke: #000000; stroke-width: 0.8"/>
      </g>
     </g>
     <g id="text_8">
      <!-- 100 -->
      <g transform="translate(68.4125 199.245788) scale(0.1 -0.1)">
       <use xlink:href="#DejaVuSans-31"/>
       <use xlink:href="#DejaVuSans-30" transform="translate(63.623047 0)"/>
       <use xlink:href="#DejaVuSans-30" transform="translate(127.246094 0)"/>
      </g>
     </g>
    </g>
    <g id="ytick_3">
     <g id="line2d_9">
      <g>
       <use xlink:href="#m3931b3bb53" x="94.5" y="173.429595" style="stroke: #000000; stroke-width: 0.8"/>
      </g>
     </g>
     <g id="text_9">
      <!-- 120 -->
      <g transform="translate(68.4125 177.228813) scale(0.1 -0.1)">
       <use xlink:href="#DejaVuSans-31"/>
       <use xlink:href="#DejaVuSans-32" transform="translate(63.623047 0)"/>
       <use xlink:href="#DejaVuSans-30" transform="translate(127.246094 0)"/>
      </g>
     </g>
    </g>
    <g id="ytick_4">
     <g id="line2d_10">
      <g>
       <use xlink:href="#m3931b3bb53" x="94.5" y="151.41262" style="stroke: #000000; stroke-width: 0.8"/>
      </g>
     </g>
     <g id="text_10">
      <!-- 140 -->
      <g transform="translate(68.4125 155.211839) scale(0.1 -0.1)">
       <use xlink:href="#DejaVuSans-31"/>
       <use xlink:href="#DejaVuSans-34" transform="translate(63.623047 0)"/>
       <use xlink:href="#DejaVuSans-30" transform="translate(127.246094 0)"/>
      </g>
     </g>
    </g>
    <g id="ytick_5">
     <g id="line2d_11">
      <g>
       <use xlink:href="#m3931b3bb53" x="94.5" y="129.395645" style="stroke: #000000; stroke-width: 0.8"/>
      </g>
     </g>
     <g id="text_11">
      <!-- 160 -->
      <g transform="translate(68.4125 133.194864) scale(0.1 -0.1)">
       <defs>
        <path id="DejaVuSans-36" d="M 2113 2584 
Q 1688 2584 1439 2293 
Q 1191 2003 1191 1497 
Q 1191 994 1439 701 
Q 1688 409 2113 409 
Q 2538 409 2786 701 
Q 3034 994 3034 1497 
Q 3034 2003 2786 2293 
Q 2538 2584 2113 2584 
z
M 3366 4563 
L 3366 3988 
Q 3128 4100 2886 4159 
Q 2644 4219 2406 4219 
Q 1781 4219 1451 3797 
Q 1122 3375 1075 2522 
Q 1259 2794 1537 2939 
Q 1816 3084 2150 3084 
Q 2853 3084 3261 2657 
Q 3669 2231 3669 1497 
Q 3669 778 3244 343 
Q 2819 -91 2113 -91 
Q 1303 -91 875 529 
Q 447 1150 447 2328 
Q 447 3434 972 4092 
Q 1497 4750 2381 4750 
Q 2619 4750 2861 4703 
Q 3103 4656 3366 4563 
z
" transform="scale(0.015625)"/>
       </defs>
       <use xlink:href="#DejaVuSans-31"/>
       <use xlink:href="#DejaVuSans-36" transform="translate(63.623047 0)"/>
       <use xlink:href="#DejaVuSans-30" transform="translate(127.246094 0)"/>
      </g>
     </g>
    </g>
    <g id="ytick_6">
     <g id="line2d_12">
      <g>
       <use xlink:href="#m3931b3bb53" x="94.5" y="107.37867" style="stroke: #000000; stroke-width: 0.8"/>
      </g>
     </g>
     <g id="text_12">
      <!-- 180 -->
      <g transform="translate(68.4125 111.177889) scale(0.1 -0.1)">
       <use xlink:href="#DejaVuSans-31"/>
       <use xlink:href="#DejaVuSans-38" transform="translate(63.623047 0)"/>
       <use xlink:href="#DejaVuSans-30" transform="translate(127.246094 0)"/>
      </g>
     </g>
    </g>
    <g id="ytick_7">
     <g id="line2d_13">
      <g>
       <use xlink:href="#m3931b3bb53" x="94.5" y="85.361695" style="stroke: #000000; stroke-width: 0.8"/>
      </g>
     </g>
     <g id="text_13">
      <!-- 200 -->
      <g transform="translate(68.4125 89.160914) scale(0.1 -0.1)">
       <use xlink:href="#DejaVuSans-32"/>
       <use xlink:href="#DejaVuSans-30" transform="translate(63.623047 0)"/>
       <use xlink:href="#DejaVuSans-30" transform="translate(127.246094 0)"/>
      </g>
     </g>
    </g>
    <g id="ytick_8">
     <g id="line2d_14">
      <g>
       <use xlink:href="#m3931b3bb53" x="94.5" y="63.344721" style="stroke: #000000; stroke-width: 0.8"/>
      </g>
     </g>
     <g id="text_14">
      <!-- 220 -->
      <g transform="translate(68.4125 67.143939) scale(0.1 -0.1)">
       <use xlink:href="#DejaVuSans-32"/>
       <use xlink:href="#DejaVuSans-32" transform="translate(63.623047 0)"/>
       <use xlink:href="#DejaVuSans-30" transform="translate(127.246094 0)"/>
      </g>
     </g>
    </g>
    <g id="ytick_9">
     <g id="line2d_15">
      <g>
       <use xlink:href="#m3931b3bb53" x="94.5" y="41.327746" style="stroke: #000000; stroke-width: 0.8"/>
      </g>
     </g>
     <g id="text_15">
      <!-- 240 -->
      <g transform="translate(68.4125 45.126964) scale(0.1 -0.1)">
       <use xlink:href="#DejaVuSans-32"/>
       <use xlink:href="#DejaVuSans-34" transform="translate(63.623047 0)"/>
       <use xlink:href="#DejaVuSans-30" transform="translate(127.246094 0)"/>
      </g>
     </g>
    </g>
   </g>
   <g id="line2d_16">
    <path d="M 121.131818 201.641044 
L 121.391388 201.799572 
L 121.650957 203.06224 
L 122.429665 204.895154 
L 122.689234 203.524049 
L 122.948804 203.262594 
L 123.208373 202.564661 
L 123.467943 194.966603 
L 124.246651 195.215392 
L 124.50622 192.712614 
L 124.765789 193.252028 
L 125.025359 192.681791 
L 125.284928 191.082809 
L 126.323206 187.146169 
L 126.582775 186.63978 
L 126.842344 187.19736 
L 127.101914 188.022996 
L 128.140191 186.878113 
L 128.399761 186.077244 
L 128.65933 187.019574 
L 128.9189 190.164147 
L 129.957177 196.947025 
L 130.216746 196.569986 
L 130.476316 201.814984 
L 130.735885 201.845253 
L 131.514593 197.981271 
L 131.774163 200.455981 
L 132.033732 196.776949 
L 132.293301 199.628144 
L 132.552871 200.890821 
L 133.331579 206.421479 
L 133.591148 201.401057 
L 133.850718 205.306873 
L 134.110287 213.246746 
L 134.369856 207.280694 
L 135.148565 212.556515 
L 135.408134 206.023526 
L 135.667703 204.803784 
L 135.927273 202.000471 
L 136.186842 203.918155 
L 136.96555 200.795041 
L 137.22512 198.743615 
L 137.484689 201.730214 
L 137.744258 197.896511 
L 138.003828 200.945312 
L 138.782536 197.430847 
L 139.042105 198.214103 
L 139.301675 200.526984 
L 139.561244 199.914367 
L 139.820813 200.588085 
L 140.599522 195.57922 
L 140.859091 194.808075 
L 141.11866 193.079743 
L 141.37823 193.092954 
L 142.416507 186.151557 
L 142.676077 179.851946 
L 142.935646 178.51111 
L 143.195215 172.978797 
L 143.454785 174.805656 
L 144.233493 173.78132 
L 144.493062 177.386047 
L 145.012201 173.459864 
L 145.27177 172.867059 
L 146.050478 174.75061 
L 146.310048 178.158838 
L 146.569617 174.931705 
L 146.829187 169.356458 
L 147.088756 179.702229 
L 147.867464 178.05371 
L 148.127033 177.954084 
L 148.386603 176.112359 
L 148.905742 174.551911 
L 149.68445 172.934216 
L 149.944019 175.799168 
L 150.203589 175.195352 
L 150.722727 172.891281 
L 151.501435 171.984176 
L 151.761005 170.714352 
L 152.020574 168.038735 
L 152.280144 170.856913 
L 152.539713 171.399628 
L 153.57799 172.226364 
L 154.097129 173.369048 
L 154.356699 171.097447 
L 155.135407 169.519378 
L 155.394976 169.443973 
L 155.654545 169.11427 
L 155.914115 170.094024 
L 156.173684 168.861071 
L 156.952392 166.601027 
L 157.471531 159.809346 
L 157.7311 164.735088 
L 157.99067 165.447341 
L 158.769378 163.924864 
L 159.288517 160.165473 
L 159.548086 159.449911 
L 159.807656 158.29237 
L 160.586364 156.156183 
L 160.845933 153.371575 
L 161.105502 155.023402 
L 161.365072 153.912643 
L 161.624641 157.309323 
L 162.403349 157.996799 
L 162.662919 153.679274 
L 162.922488 147.080783 
L 163.182057 146.442288 
L 164.220335 137.264506 
L 164.479904 140.397531 
L 164.999043 130.351732 
L 165.258612 129.395645 
L 166.29689 135.780571 
L 166.556459 139.91591 
L 166.816029 140.409642 
L 167.075598 142.497401 
L 167.854306 129.569584 
L 168.373445 134.904844 
L 168.633014 141.144454 
L 168.892584 139.913709 
L 169.671292 137.365242 
L 169.930861 140.385974 
L 170.190431 138.558561 
L 170.45 137.548537 
L 170.709569 131.339751 
L 171.488278 134.245437 
L 171.747847 132.762593 
L 172.007416 129.118787 
L 172.266986 128.019584 
L 172.526555 131.186725 
L 173.305263 132.24904 
L 173.564833 135.963867 
L 173.824402 131.474048 
L 174.083971 131.541205 
L 174.343541 132.25675 
L 175.122249 130.363843 
L 175.381818 123.203925 
L 175.641388 126.066676 
L 175.900957 124.036163 
L 176.160526 124.732458 
L 176.939234 123.480784 
L 177.198804 121.332486 
L 177.458373 116.083633 
L 177.717943 118.387158 
L 177.977512 118.288085 
L 178.75622 115.58219 
L 179.275359 111.151835 
L 179.534928 120.148522 
L 179.794498 124.187527 
L 180.832775 132.156569 
L 181.092344 125.619188 
L 181.611483 134.007095 
L 182.390191 134.736414 
L 182.649761 131.810353 
L 183.428469 142.885997 
L 184.207177 142.579962 
L 184.466746 133.304216 
L 184.726316 140.411843 
L 184.985885 139.31484 
L 185.245455 135.167945 
L 186.024163 130.823997 
L 186.283732 132.429581 
L 186.543301 132.217679 
L 186.802871 128.225439 
L 187.06244 133.523828 
L 187.841148 129.439672 
L 188.100718 134.902089 
L 188.360287 129.632878 
L 188.619856 129.9158 
L 188.879426 124.626213 
L 189.658134 116.024186 
L 189.917703 115.985652 
L 190.177273 120.384646 
L 190.436842 121.764017 
L 190.696411 125.393512 
L 191.47512 128.998785 
L 191.734689 128.459379 
L 191.994258 130.224591 
L 192.253828 130.694638 
L 192.513397 129.153457 
L 193.292105 129.008141 
L 193.551675 124.643834 
L 193.811244 131.444316 
L 194.070813 128.789621 
L 194.330383 138.414354 
L 195.109091 140.157543 
L 195.36866 137.739526 
L 195.62823 127.1301 
L 195.887799 122.680461 
L 196.147368 123.265572 
L 196.926077 132.492336 
L 197.185646 138.476539 
L 197.445215 132.841845 
L 197.704785 134.334044 
L 197.964354 133.31411 
L 198.743062 133.190278 
L 199.002632 132.93707 
L 199.262201 134.599363 
L 199.52177 133.963069 
L 199.78134 134.932913 
L 200.560048 134.988513 
L 200.819617 133.905822 
L 201.079187 130.217435 
L 201.598325 129.652145 
L 202.377033 131.154809 
L 202.636603 128.290395 
L 203.155742 130.126056 
L 203.415311 131.455335 
L 204.194019 131.707434 
L 204.453589 130.645657 
L 204.713158 134.668703 
L 204.972727 134.817883 
L 206.011005 131.764126 
L 206.270574 131.315529 
L 206.530144 127.141102 
L 206.789713 127.409713 
L 207.049282 129.30482 
L 208.08756 129.036764 
L 208.606699 130.898847 
L 209.904545 122.680461 
L 210.423684 126.262083 
L 211.461962 130.131566 
L 211.721531 128.376802 
L 211.9811 132.787353 
L 212.500239 130.347885 
L 213.278947 134.117741 
L 213.538517 133.75335 
L 213.798086 131.273148 
L 214.317225 134.665965 
L 215.355502 133.757214 
L 215.615072 125.907048 
L 215.874641 123.506652 
L 216.134211 124.319086 
L 216.912919 124.221659 
L 217.172488 122.453139 
L 217.432057 127.602365 
L 217.691627 127.324952 
L 217.951196 129.054385 
L 218.989474 119.488006 
L 219.249043 123.201725 
L 219.768182 121.02094 
L 220.54689 122.628724 
L 221.325598 125.975851 
L 221.585167 125.118299 
L 222.623445 125.600475 
L 222.883014 123.415827 
L 223.142584 122.337554 
L 223.402153 126.649033 
L 224.180861 130.45576 
L 224.440431 129.698372 
L 224.7 131.623211 
L 224.959569 137.257905 
L 225.219139 135.289039 
L 225.997847 132.360223 
L 226.257416 135.200969 
L 226.516986 140.12892 
L 226.776555 141.638741 
L 227.036124 140.378818 
L 227.814833 143.048918 
L 228.074402 136.944713 
L 228.333971 137.231482 
L 228.593541 134.151857 
L 228.85311 135.478382 
L 229.631818 135.908267 
L 229.891388 135.347932 
L 230.150957 132.933224 
L 230.410526 138.863488 
L 230.670096 136.27815 
L 231.448804 134.301574 
L 231.708373 132.835797 
L 232.227512 137.857865 
L 232.487081 137.540273 
L 233.265789 136.23577 
L 233.525359 137.360841 
L 233.784928 135.225746 
L 234.044498 131.542297 
L 235.082775 127.924358 
L 235.342344 128.084541 
L 235.601914 125.025829 
L 235.861483 123.929935 
L 236.121053 119.917337 
L 236.899761 119.521585 
L 237.15933 118.387158 
L 237.4189 122.075008 
L 237.678469 119.538097 
L 237.938038 118.417981 
L 238.716746 119.927802 
L 238.976316 121.981982 
L 239.235885 120.477672 
L 239.495455 123.393822 
L 239.755024 121.64126 
L 240.533732 117.891779 
L 240.793301 117.427762 
L 241.052871 115.167172 
L 241.31244 114.462075 
L 241.57201 114.676194 
L 242.350718 119.130788 
L 242.610287 123.238041 
L 242.869856 125.512959 
L 243.129426 123.540785 
L 243.388995 124.353201 
L 244.167703 129.919092 
L 244.427273 128.079585 
L 244.686842 132.040984 
L 244.946411 131.516428 
L 245.205981 128.135169 
L 245.984689 125.521207 
L 246.244258 127.618877 
L 246.503828 127.6453 
L 246.763397 126.771219 
L 247.022967 129.226107 
L 248.061244 126.14539 
L 248.320813 125.809085 
L 248.580383 127.738325 
L 248.839952 128.125812 
L 249.87823 128.369109 
L 250.137799 127.52476 
L 250.397368 130.110652 
L 250.656938 129.053276 
L 251.435646 129.505182 
L 251.695215 125.866868 
L 251.954785 124.928957 
L 252.214354 121.158546 
L 252.473923 121.313756 
L 253.252632 119.274996 
L 253.512201 119.31573 
L 253.77177 117.547764 
L 254.03134 113.475164 
L 254.290909 113.603969 
L 255.069617 115.41707 
L 255.329187 112.58348 
L 255.588756 112.672658 
L 256.107895 118.306798 
L 256.886603 115.971341 
L 257.146172 115.737417 
L 257.665311 116.57241 
L 257.92488 112.278552 
L 258.963158 103.209753 
L 259.222727 102.062677 
L 259.482297 100.145548 
L 259.741866 100.809911 
L 260.520574 100.853383 
L 260.780144 103.120591 
L 261.039713 102.882804 
L 261.558852 108.830136 
L 262.33756 110.153351 
L 262.597129 108.854358 
L 262.856699 108.193304 
L 263.116268 105.285401 
L 263.375837 104.261066 
L 264.154545 101.884337 
L 264.414115 105.926096 
L 264.673684 105.709776 
L 264.933254 107.383071 
L 265.192823 122.372779 
L 265.971531 122.15866 
L 266.2311 120.245394 
L 266.49067 120.879488 
L 266.750239 119.708727 
L 267.009809 121.417801 
L 267.788517 121.586768 
L 268.307656 124.325687 
L 268.567225 123.698749 
L 268.826794 124.223305 
L 269.605502 123.947001 
L 270.124641 129.328488 
L 270.384211 130.069918 
L 270.64378 129.3984 
L 271.422488 125.769997 
L 271.682057 123.573254 
L 271.941627 123.936537 
L 272.201196 123.010719 
L 272.460766 121.159638 
L 273.239474 117.199885 
L 273.499043 114.490698 
L 273.758612 114.038808 
L 274.018182 114.912873 
L 274.277751 114.091099 
L 275.316029 112.371578 
L 275.575598 111.479338 
L 275.835167 113.754794 
L 276.094737 114.580968 
L 276.873445 115.240376 
L 277.133014 115.635036 
L 277.392584 114.215486 
L 277.652153 113.53021 
L 277.911722 114.945897 
L 278.690431 120.823887 
L 278.95 121.489896 
L 279.469139 117.506475 
L 279.728708 116.982474 
L 280.507416 118.067919 
L 280.766986 123.012919 
L 281.286124 124.714837 
L 281.545694 124.812818 
L 282.324402 129.958181 
L 282.843541 125.98247 
L 283.10311 123.757642 
L 284.141388 126.847178 
L 284.400957 126.790486 
L 284.660526 124.756663 
L 284.920096 123.899111 
L 285.179665 117.89067 
L 285.958373 115.814468 
L 286.217943 115.957029 
L 286.477512 117.558212 
L 286.737081 116.460118 
L 286.996651 121.934647 
L 287.775359 122.770194 
L 288.034928 119.704326 
L 288.294498 118.80053 
L 288.554067 115.823824 
L 288.813636 119.904671 
L 289.592344 122.89458 
L 289.851914 123.189614 
L 290.630622 111.837665 
L 291.40933 113.489476 
L 291.6689 108.687037 
L 291.928469 113.870933 
L 292.188038 114.396581 
L 292.447608 111.498589 
L 293.226316 110.368579 
L 293.485885 110.642683 
L 293.745455 110.185838 
L 294.005024 102.091301 
L 294.264593 103.164064 
L 295.043301 108.888491 
L 295.302871 108.477318 
L 295.56244 108.45696 
L 296.081579 112.631924 
L 296.860287 109.493944 
L 297.379426 115.980697 
L 297.638995 116.330776 
L 297.898565 118.949139 
L 298.677273 116.880646 
L 298.936842 111.60097 
L 299.196411 111.608126 
L 299.71555 115.952074 
L 300.494258 118.863269 
L 300.753828 119.387271 
L 301.013397 114.737841 
L 301.272967 119.630013 
L 301.532536 118.367891 
L 302.311244 121.602743 
L 302.570813 117.928096 
L 302.830383 117.245575 
L 303.089952 117.210904 
L 304.12823 118.750994 
L 304.387799 117.659502 
L 304.647368 119.266731 
L 304.906938 119.879357 
L 305.166507 122.001249 
L 305.945215 117.94187 
L 306.464354 124.599253 
L 306.983493 126.584076 
L 307.762201 127.759792 
L 308.02177 123.492895 
L 308.28134 123.663525 
L 308.540909 128.05921 
L 308.800478 127.04203 
L 309.838756 130.587319 
L 310.098325 133.469891 
L 310.357895 138.568472 
L 310.617464 148.503071 
L 311.396172 146.410356 
L 311.655742 151.42804 
L 311.915311 152.65383 
L 312.17488 151.811681 
L 312.43445 147.033447 
L 313.472727 139.090273 
L 313.732297 139.729859 
L 313.991866 152.683545 
L 314.251435 131.994203 
L 315.030144 131.668346 
L 315.289713 127.839598 
L 315.549282 128.086187 
L 315.808852 130.492647 
L 316.068421 136.778484 
L 316.847129 134.716039 
L 317.366268 131.486713 
L 317.885407 137.540273 
L 318.923684 140.186721 
L 319.183254 146.098828 
L 319.442823 138.909178 
L 319.702392 136.233569 
L 320.4811 136.481804 
L 320.74067 139.146965 
L 321.000239 138.144634 
L 321.259809 142.717568 
L 321.519378 145.202725 
L 322.298086 154.216478 
L 322.557656 155.800057 
L 322.817225 152.206324 
L 323.076794 143.907578 
L 324.115072 149.372751 
L 324.89378 132.43509 
L 325.153349 128.01903 
L 325.932057 127.753728 
L 326.191627 124.013587 
L 326.451196 125.643947 
L 326.710766 125.378091 
L 326.970335 124.140745 
L 327.749043 119.498471 
L 328.008612 119.141236 
L 328.527751 126.095854 
L 328.787321 125.476626 
L 329.566029 120.207415 
L 330.085167 130.765105 
L 330.344737 131.834575 
L 330.604306 135.493802 
L 331.383014 139.168987 
L 331.642584 139.537207 
L 331.902153 134.304329 
L 332.161722 138.525537 
L 333.2 137.338265 
L 333.459569 131.470201 
L 334.238278 146.623921 
L 335.016986 144.726059 
L 335.276555 152.08303 
L 335.536124 153.430467 
L 335.795694 146.352572 
L 336.055263 168.716309 
L 336.833971 168.475775 
L 337.093541 168.747133 
L 337.35311 166.903216 
L 337.612679 177.384947 
L 337.872249 179.184283 
L 338.650957 185.771208 
L 338.910526 185.694149 
L 339.170096 189.532808 
L 339.429665 187.817142 
L 339.689234 181.074989 
L 340.467943 183.545843 
L 340.727512 178.528176 
L 340.987081 187.61678 
L 341.50622 187.090023 
L 342.284928 187.127456 
L 342.544498 190.933091 
L 342.804067 187.988318 
L 343.323206 178.772564 
L 344.621053 171.575768 
L 344.880622 167.362816 
L 345.140191 170.842602 
L 345.9189 168.156528 
L 346.438038 172.130593 
L 346.957177 184.823378 
L 347.995455 192.903612 
L 348.255024 187.003062 
L 348.514593 191.417459 
L 348.774163 188.599289 
L 349.81244 185.891202 
L 350.07201 185.593977 
L 350.591148 177.3266 
L 351.369856 180.893348 
L 351.629426 187.300287 
L 351.888995 185.627001 
L 352.148565 188.6103 
L 352.408134 184.922458 
L 353.705981 179.671405 
L 353.96555 177.469708 
L 354.22512 178.339379 
L 355.003828 182.511597 
L 355.263397 185.296743 
L 355.522967 183.997741 
L 355.782536 183.74455 
L 356.042105 180.530066 
L 356.820813 180.298889 
L 357.339952 170.380247 
L 357.599522 168.332668 
L 357.859091 170.765543 
L 358.637799 172.174628 
L 358.897368 179.143002 
L 359.156938 172.36177 
L 359.416507 170.919661 
L 359.676077 156.971909 
L 360.454785 156.487533 
L 360.714354 157.841572 
L 360.973923 151.941023 
L 361.233493 148.583431 
L 361.493062 150.531938 
L 362.27177 152.062117 
L 362.53134 153.80146 
L 362.790909 148.451334 
L 363.050478 150.708077 
L 363.310048 147.504603 
L 364.088756 147.911929 
L 364.348325 146.150564 
L 364.607895 149.100831 
L 364.867464 148.880664 
L 365.127033 153.361127 
L 365.905742 158.876373 
L 366.165311 158.43604 
L 366.42488 158.237879 
L 366.68445 154.40693 
L 366.944019 161.595471 
L 367.722727 162.652293 
L 367.982297 163.81919 
L 368.241866 165.976852 
L 368.501435 164.820958 
L 369.799282 166.703408 
L 370.058852 162.993553 
L 370.318421 162.619252 
L 370.57799 158.821327 
L 371.356699 155.320636 
L 371.616268 165.921807 
L 371.875837 164.017335 
L 372.394976 169.5436 
L 373.173684 168.299636 
L 373.433254 171.018733 
L 373.692823 175.036833 
L 373.952392 176.390881 
L 374.211962 180.276875 
L 374.99067 178.768709 
L 375.250239 179.583335 
L 375.509809 175.620281 
L 375.769378 179.154005 
L 376.028947 181.135536 
L 376.807656 177.965095 
L 377.067225 172.229674 
L 377.326794 172.383792 
L 377.586364 173.099337 
L 377.845933 179.418215 
L 378.624641 180.397969 
L 378.884211 182.005207 
L 379.14378 181.245619 
L 379.403349 181.652936 
L 379.662919 187.850712 
L 380.701196 177.436683 
L 380.960766 178.856779 
L 381.220335 178.658626 
L 381.479904 174.178172 
L 382.258612 173.627748 
L 382.518182 172.769087 
L 383.037321 183.381268 
L 383.29689 191.692671 
L 384.075598 192.760496 
L 384.594737 204.121255 
L 384.854306 207.225648 
L 385.113876 205.376221 
L 385.892584 205.871608 
L 386.152153 206.47707 
L 386.411722 210.704334 
L 386.671292 199.156433 
L 386.930861 194.576898 
L 387.709569 197.108853 
L 387.969139 196.613467 
L 388.747847 201.897544 
L 389.526555 203.74697 
L 390.045694 201.908555 
L 390.564833 202.701159 
L 391.343541 202.106708 
L 391.60311 203.791005 
L 391.862679 199.255505 
L 393.160526 205.343197 
L 393.420096 208.381542 
L 393.679665 208.150365 
L 393.939234 206.069762 
L 394.198804 207.456833 
L 394.977512 205.849587 
L 395.237081 203.713946 
L 395.496651 204.715714 
L 395.75622 208.161376 
L 396.015789 208.810873 
L 396.794498 212.047371 
L 397.054067 211.750137 
L 397.313636 210.010802 
L 397.573206 213.291327 
L 397.832775 211.684088 
L 398.871053 214.116963 
L 399.130622 215.46 
L 399.390191 212.861996 
L 399.649761 213.060149 
L 400.688038 211.056605 
L 400.947608 211.805183 
L 401.207177 214.028893 
L 401.466746 210.770382 
L 402.245455 209.361297 
L 402.505024 206.598164 
L 402.764593 200.851741 
L 403.024163 200.653588 
L 403.283732 197.516162 
L 404.581579 200.444424 
L 404.841148 202.403933 
L 405.100718 198.473904 
L 405.879426 198.176678 
L 406.138995 199.497693 
L 406.398565 198.550963 
L 406.658134 196.30523 
L 406.917703 192.980671 
L 407.696411 194.841099 
L 408.21555 189.777197 
L 408.47512 181.234608 
L 408.734689 191.714693 
L 409.513397 193.046719 
L 409.772967 193.123778 
L 410.292105 197.384066 
L 410.551675 198.077597 
L 411.330383 195.952959 
L 411.589952 195.776828 
L 411.849522 194.169581 
L 412.109091 197.483138 
L 412.36866 198.528949 
L 413.406938 201.413168 
L 413.666507 200.081142 
L 413.926077 200.048118 
L 414.185646 202.602086 
L 414.964354 202.315863 
L 415.223923 201.798463 
L 415.483493 204.066217 
L 415.743062 204.110252 
L 416.002632 201.060896 
L 417.040909 202.547041 
L 417.300478 202.139732 
L 417.819617 205.651434 
L 418.598325 203.779994 
L 418.857895 201.082918 
L 419.117464 199.629798 
L 419.377033 195.402535 
L 419.636603 196.602464 
L 420.415311 197.967514 
L 420.67488 194.775051 
L 420.93445 196.877676 
L 421.194019 196.866665 
L 421.453589 197.50516 
L 422.232297 197.604232 
L 422.491866 198.484914 
L 423.011005 193.244872 
L 423.270574 191.824776 
L 424.049282 192.79352 
L 424.308852 191.09822 
L 424.568421 194.235638 
L 424.82799 193.178824 
L 425.866268 193.05773 
L 426.385407 197.835409 
L 426.644976 192.804531 
L 427.683254 192.430246 
L 427.942823 192.914614 
L 428.202392 190.712917 
L 428.461962 191.252339 
L 428.721531 187.784663 
L 429.500239 188.6103 
L 429.759809 192.617389 
L 430.019378 189.964339 
L 430.278947 184.636235 
L 430.538517 189.446947 
L 431.317225 193.189826 
L 431.576794 191.450492 
L 431.836364 191.42847 
L 432.095933 191.043175 
L 432.355502 189.215762 
L 433.134211 189.028619 
L 433.39378 188.158948 
L 433.653349 184.228918 
L 433.912919 182.038232 
L 434.172488 184.151859 
L 434.951196 183.117067 
L 435.729904 175.466163 
L 435.989474 177.557777 
L 436.768182 178.922828 
L 437.027751 178.944849 
L 437.287321 177.007353 
L 437.54689 178.933838 
L 437.806459 173.308501 
L 438.844737 171.602182 
L 439.104306 172.7911 
L 439.623445 168.750988 
L 440.402153 167.595093 
L 440.661722 166.152984 
L 440.921292 172.075547 
L 441.180861 168.750988 
L 441.440431 169.653683 
L 442.219139 166.197019 
L 442.478708 166.097938 
L 442.738278 166.362148 
L 442.997847 165.602559 
L 443.257416 167.385937 
L 444.295694 167.06669 
L 444.555263 168.112493 
L 444.814833 162.255987 
L 445.074402 163.158674 
L 445.85311 165.360371 
L 446.112679 163.323811 
L 446.372249 163.477929 
L 446.631818 164.732888 
L 446.891388 162.024801 
L 447.670096 162.178919 
L 448.189234 162.002779 
L 448.448804 164.226499 
L 448.708373 162.663295 
L 449.487081 165.580546 
L 450.00622 161.540425 
L 450.265789 157.687454 
L 450.525359 157.269143 
L 451.304067 158.502088 
L 451.563636 159.305703 
L 451.823206 156.520557 
L 452.082775 162.465134 
L 452.342344 162.421107 
L 453.121053 163.742122 
L 453.380622 163.37884 
L 453.640191 164.457684 
L 453.899761 164.347593 
L 454.15933 159.988224 
L 454.938038 158.369992 
L 455.197608 160.56067 
L 455.457177 164.391619 
L 455.716746 163.621028 
L 455.976316 151.885977 
L 456.755024 148.968734 
L 457.274163 153.779438 
L 457.533732 152.997845 
L 457.793301 153.162965 
L 458.57201 150.785128 
L 459.091148 156.839796 
L 459.610287 158.876373 
L 460.388995 157.269143 
L 460.648565 157.7425 
L 460.908134 156.344418 
L 461.167703 160.39555 
L 461.427273 158.832346 
L 462.205981 158.964443 
L 462.46555 157.015936 
L 462.72512 156.839796 
L 462.984689 153.603315 
L 463.244258 153.482221 
L 464.282536 154.417932 
L 464.542105 156.520557 
L 464.801675 153.779438 
L 465.061244 153.361127 
L 465.839952 147.999982 
L 466.099522 150.058581 
L 466.359091 146.073497 
L 466.61866 146.216612 
L 466.87823 150.98329 
L 467.656938 151.434642 
L 468.176077 156.597625 
L 468.435646 163.158674 
L 468.695215 163.38986 
L 469.473923 161.023025 
L 469.733493 166.846516 
L 470.252632 166.846516 
L 470.512201 165.591549 
L 471.290909 163.015558 
L 471.550478 168.233587 
L 471.810048 165.723654 
L 472.069617 166.868537 
L 472.329187 164.66684 
L 473.107895 164.33659 
L 473.367464 162.993553 
L 473.627033 160.406552 
L 473.886603 159.856128 
L 474.146172 162.652293 
L 474.92488 159.61394 
L 475.18445 160.802858 
L 475.444019 164.479689 
L 475.703589 164.182472 
L 475.963158 167.738209 
L 476.741866 166.20803 
L 477.001435 164.006332 
L 477.261005 171.899416 
L 477.520574 173.90296 
L 477.780144 164.909028 
L 478.558852 159.4378 
L 478.818421 159.019489 
L 479.07799 154.715166 
L 479.33756 153.53725 
L 479.597129 152.953801 
L 480.375837 151.698835 
L 480.635407 148.429312 
L 480.894976 149.122852 
L 481.154545 150.752104 
L 481.414115 147.493601 
L 482.192823 148.561426 
L 482.452392 145.027694 
L 482.711962 147.889907 
L 482.971531 148.297216 
L 483.2311 145.710231 
L 484.009809 144.664412 
L 484.269378 147.119317 
L 484.528947 144.025917 
L 485.048086 143.992893 
L 485.826794 142.903064 
L 486.345933 144.455248 
L 486.605502 144.708455 
L 486.865072 143.673655 
L 487.64378 146.084516 
L 487.903349 143.838775 
L 488.162919 146.436779 
L 488.422488 143.838775 
L 488.682057 143.244324 
L 489.460766 144.928621 
L 489.979904 141.681121 
L 490.239474 143.244324 
L 490.499043 140.437157 
L 491.277751 135.92367 
L 491.537321 136.231923 
L 491.79689 138.070339 
L 492.056459 136.176877 
L 492.316029 136.639232 
L 493.873445 136.683258 
L 494.133014 138.268483 
L 495.171292 140.4812 
L 495.430861 142.08843 
L 495.690431 146.381733 
L 495.95 145.644166 
L 496.728708 141.39489 
L 497.507416 134.701744 
L 497.766986 135.318217 
L 498.805263 136.925446 
L 499.064833 138.521674 
L 499.583971 134.525604 
L 500.362679 135.142077 
L 500.881818 132.841307 
L 501.141388 131.872555 
L 501.400957 130.364397 
L 502.179665 128.008582 
L 502.439234 130.496494 
L 502.698804 134.679722 
L 502.958373 130.188257 
L 503.217943 116.394624 
L 503.996651 118.045897 
L 504.25622 119.322886 
L 504.515789 117.803709 
L 504.775359 118.563297 
L 505.034928 113.488384 
L 505.813636 115.811176 
L 506.073206 119.884313 
L 506.332775 117.308331 
L 506.592344 118.607324 
L 506.851914 118.92658 
L 507.890191 121.601634 
L 508.149761 119.939358 
L 508.40933 113.345268 
L 508.6689 112.893916 
L 509.447608 113.180148 
L 509.707177 114.49016 
L 509.966746 114.908472 
L 510.226316 110.945426 
L 510.485885 109.33818 
L 511.264593 110.042722 
L 511.524163 113.851666 
L 511.783732 114.523185 
L 512.043301 110.879361 
L 512.302871 112.49761 
L 513.081579 116.229487 
L 513.341148 112.453584 
L 513.600718 111.165593 
L 513.860287 108.754731 
L 514.119856 113.521408 
L 514.898565 113.45536 
L 515.158134 111.892157 
L 515.417703 109.415247 
L 515.677273 109.415247 
L 515.936842 108.622635 
L 516.71555 107.697909 
L 516.97512 109.25011 
L 517.234689 107.565812 
L 517.494258 106.960342 
L 518.532536 106.310846 
L 518.792105 106.619082 
L 519.051675 104.725621 
L 519.311244 107.37867 
L 519.570813 101.797359 
L 520.349522 101.665263 
L 520.86866 100.828624 
L 521.12823 97.415986 
L 521.387799 100.630462 
L 522.166507 103.393603 
L 522.426077 103.723844 
L 522.945215 108.237331 
L 523.204785 113.290223 
L 523.983493 110.428026 
L 524.243062 107.885068 
L 524.762201 114.347045 
L 525.02177 107.796998 
L 525.800478 106.321848 
L 526.060048 112.882914 
L 526.319617 108.479519 
L 526.579187 102.182663 
L 526.838756 100.542392 
L 527.617464 97.80129 
L 527.877033 97.735241 
L 528.136603 98.57188 
L 528.396172 96.920607 
L 528.655742 99.144326 
L 529.43445 100.146086 
L 529.694019 99.595662 
L 529.953589 100.78458 
L 530.213158 103.382584 
L 530.472727 102.204684 
L 531.511005 103.911003 
L 531.770574 103.933008 
L 532.030144 106.222776 
L 532.289713 106.553034 
L 533.32799 105.011852 
L 533.58756 105.154951 
L 534.106699 111.297689 
L 534.885407 109.206083 
L 535.144976 108.105234 
L 535.404545 105.969585 
L 535.664115 101.874427 
L 535.923684 102.645017 
L 536.702392 99.606681 
L 536.961962 99.419539 
L 537.221531 99.793823 
L 537.4811 103.162418 
L 537.74067 103.34956 
L 538.519378 102.909227 
L 538.778947 104.285288 
L 539.298086 100.663486 
L 539.557656 97.382962 
L 540.336364 101.246935 
L 540.595933 100.399293 
L 541.115072 87.728513 
L 541.374641 92.792424 
L 542.153349 88.444075 
L 542.412919 85.361695 
L 542.672488 88.014745 
L 543.191627 85.361695 
L 543.970335 86.143305 
L 544.229904 86.08826 
L 544.489474 85.592881 
L 544.749043 90.810893 
L 545.787321 93.375873 
L 546.04689 93.045615 
L 546.566029 103.250487 
L 546.825598 103.933008 
L 547.604306 104.571503 
L 547.863876 100.322226 
L 548.123445 106.464964 
L 548.383014 107.543791 
L 548.642584 104.626548 
L 549.421292 103.855958 
L 549.680861 105.496211 
L 549.940431 99.694751 
L 550.2 102.898208 
L 550.459569 120.698947 
L 551.238278 128.272775 
L 551.757416 126.346289 
L 552.016986 123.010719 
L 552.276555 121.755752 
L 553.055263 121.90987 
L 553.314833 118.133967 
L 553.574402 118.277066 
L 553.833971 110.03172 
L 554.093541 110.615168 
L 554.872249 109.33818 
L 555.131818 108.611615 
L 555.391388 107.257576 
L 555.650957 111.638949 
L 555.910526 110.63719 
L 556.689234 112.33249 
L 557.208373 117.506475 
L 557.467943 116.053364 
L 557.727512 109.029943 
L 558.765789 111.506853 
L 559.025359 114.721329 
L 559.284928 109.701462 
L 559.544498 116.856979 
L 560.323206 112.442581 
L 561.101914 99.672729 
L 562.140191 101.995521 
L 562.399761 99.804825 
L 562.65933 100.300221 
L 562.9189 96.513299 
L 563.178469 94.608818 
L 563.957177 92.098884 
L 564.216746 92.010814 
L 564.735885 95.093194 
L 564.995455 98.604904 
L 565.774163 100.410296 
L 566.033732 101.731311 
L 566.293301 102.138636 
L 566.552871 105.220999 
L 566.81244 100.212151 
L 567.591148 106.497988 
L 568.629426 97.669176 
L 569.408134 99.078278 
L 569.667703 98.913141 
L 569.927273 99.793823 
L 570.186842 99.089281 
L 570.446411 97.482034 
L 571.22512 97.393964 
L 571.484689 96.700441 
L 571.744258 102.193665 
L 572.263397 98.759023 
L 573.042105 98.14255 
L 573.561244 93.36487 
L 573.820813 100.333245 
L 574.080383 87.64046 
L 574.859091 90.007278 
L 575.11866 85.91212 
L 575.37823 77.556682 
L 575.637799 74.298162 
L 575.897368 76.356761 
L 576.676077 77.831894 
L 576.935646 75.553129 
L 577.195215 69.839721 
L 577.454785 72.723957 
L 577.714354 82.488479 
L 578.493062 83.490256 
L 578.752632 80.286782 
L 579.012201 82.191246 
L 579.27177 87.145065 
L 579.53134 88.532145 
L 580.310048 83.765468 
L 580.569617 76.709024 
L 580.829187 79.042818 
L 582.127033 73.571598 
L 582.386603 70.566286 
L 582.646172 65.370278 
L 582.905742 62.73925 
L 583.165311 55.605755 
L 583.944019 56.640556 
L 584.203589 57.79645 
L 584.463158 52.050019 
L 584.982297 55.132382 
L 585.761005 49.110754 
L 586.020574 51.070264 
L 586.280144 62.772275 
L 586.799282 57.928547 
L 587.57799 57.774429 
L 587.83756 53.382036 
L 588.356699 55.583734 
L 588.616268 59.216538 
L 589.394976 61.913614 
L 589.654545 64.016239 
L 590.173684 63.102532 
L 590.433254 58.732162 
L 591.211962 54.967261 
L 591.471531 61.021929 
L 591.7311 60.999907 
L 592.250239 64.511618 
L 593.028947 65.04002 
L 593.288517 65.810628 
L 593.548086 59.656871 
L 593.807656 62.618156 
L 594.067225 56.805676 
L 595.105502 51.554623 
L 595.365072 46.820987 
L 595.624641 46.369635 
L 595.884211 46.99711 
L 596.662919 46.369635 
L 596.922488 43.364323 
L 597.182057 44.553224 
L 597.441627 47.228296 
L 597.701196 43.881723 
L 598.479904 44.167937 
L 598.739474 39.06 
L 598.999043 45.543998 
L 599.258612 42.615737 
L 599.518182 53.271961 
L 600.29689 48.879569 
L 600.556459 49.297897 
L 600.816029 53.514149 
L 601.075598 51.928924 
L 601.335167 53.789362 
L 602.373445 56.024083 
L 602.633014 56.046088 
L 602.892584 60.174271 
L 603.152153 67.109621 
L 603.930861 71.3699 
L 604.190431 71.270828 
L 604.45 69.564509 
L 604.709569 75.740271 
L 604.969139 71.843274 
L 605.747847 79.83543 
L 606.007416 81.178467 
L 606.266986 76.158599 
L 606.526555 84.591105 
L 607.564833 91.372337 
L 608.083971 86.583638 
L 608.343541 92.087882 
L 608.60311 87.618439 
L 609.381818 90.051305 
L 609.641388 93.265781 
L 609.900957 90.271488 
L 610.160526 90.920985 
L 610.420096 89.533905 
L 611.458373 79.075842 
L 611.717943 84.117731 
L 611.977512 83.86454 
L 612.237081 93.375873 
L 613.015789 96.083968 
L 613.275359 93.981343 
L 613.534928 89.754088 
L 613.794498 109.129016 
L 614.054067 117.286309 
L 614.832775 112.596699 
L 615.092344 117.660593 
L 615.351914 95.159242 
L 615.611483 106.035633 
L 615.871053 102.017542 
L 616.649761 105.044876 
L 616.90933 107.830022 
L 617.1689 113.620481 
L 617.428469 115.513942 
L 618.466746 121.337424 
L 619.505024 97.482034 
L 620.543301 99.243399 
L 620.802871 102.512921 
L 621.06244 96.150016 
L 621.32201 96.392204 
L 622.360287 101.863424 
L 622.879426 94.080415 
L 623.138995 93.001588 
L 623.917703 75.850363 
L 624.177273 72.845051 
L 624.436842 74.077996 
L 624.696411 79.670309 
L 624.955981 79.207955 
L 625.734689 78.580463 
L 626.253828 84.12875 
L 626.513397 81.949058 
L 626.772967 84.271849 
L 627.811244 78.734581 
L 628.070813 80.165688 
L 628.330383 79.086861 
L 628.589952 79.846449 
L 629.36866 78.041058 
L 629.62823 79.075842 
L 629.887799 77.402564 
L 630.147368 76.653978 
L 630.406938 70.42317 
L 631.185646 66.669288 
L 631.445215 65.975748 
L 631.704785 70.830495 
L 631.964354 70.786452 
L 632.223923 72.041419 
L 633.002632 67.638024 
L 633.262201 69.047109 
L 633.52177 71.579064 
L 634.040909 74.694468 
L 634.819617 76.037505 
L 635.079187 71.303852 
L 635.338756 72.162513 
L 635.857895 59.711916 
L 636.636603 64.016239 
L 636.896172 62.838323 
L 637.155742 63.43279 
L 637.415311 59.590822 
L 638.453589 59.524774 
L 638.713158 64.049263 
L 638.972727 60.548572 
L 639.232297 60.856808 
L 639.491866 57.818455 
L 640.270574 57.080889 
L 640.530144 56.354324 
L 640.789713 59.83301 
L 641.049282 59.073422 
L 641.308852 56.596512 
L 642.08756 53.106824 
L 642.347129 55.121379 
L 642.606699 54.218692 
L 642.866268 49.881345 
L 643.125837 50.751008 
L 643.904545 49.264873 
L 644.164115 51.224382 
L 644.423684 52.127069 
L 644.683254 47.811744 
L 644.942823 69.124176 
L 645.721531 72.536814 
L 645.9811 70.225025 
L 646.24067 60.801763 
L 646.500239 59.899059 
L 647.538517 61.913614 
L 647.798086 61.726472 
L 648.057656 58.324853 
L 648.317225 51.257406 
L 648.576794 51.20236 
L 649.355502 50.695962 
L 650.134211 61.198069 
L 650.39378 53.613222 
L 651.172488 54.603979 
L 651.432057 53.756321 
L 651.691627 53.304985 
L 651.951196 50.574868 
L 652.210766 53.437082 
L 653.249043 57.466192 
L 653.508612 56.750631 
L 653.768182 46.08342 
L 653.768182 46.08342 
" clip-path="url(#pdfc284f0f0)" style="fill: none; stroke: #1f77b4; stroke-width: 1.5; stroke-linecap: square"/>
   </g>
   <g id="patch_3">
    <path d="M 94.5 224.28 
L 94.5 30.24 
" style="fill: none; stroke: #000000; stroke-width: 0.8; stroke-linejoin: miter; stroke-linecap: square"/>
   </g>
   <g id="patch_4">
    <path d="M 94.5 224.28 
L 680.4 224.28 
" style="fill: none; stroke: #000000; stroke-width: 0.8; stroke-linejoin: miter; stroke-linecap: square"/>
   </g>
  </g>
 </g>
 <defs>
  <clipPath id="pdfc284f0f0">
   <rect x="94.5" y="30.24" width="585.9" height="194.04"/>
  </clipPath>
 </defs>
</svg>
