<?xml version="1.0" encoding="utf-8" standalone="no"?>
<!DOCTYPE svg PUBLIC "-//W3C//DTD SVG 1.1//EN"
  "http://www.w3.org/Graphics/SVG/1.1/DTD/svg11.dtd">
<svg xmlns:xlink="http://www.w3.org/1999/xlink" width="756pt" height="252pt" viewBox="0 0 756 252" xmlns="http://www.w3.org/2000/svg" version="1.1">
 <metadata>
  <rdf:RDF xmlns:dc="http://purl.org/dc/elements/1.1/" xmlns:cc="http://creativecommons.org/ns#" xmlns:rdf="http://www.w3.org/1999/02/22-rdf-syntax-ns#">
   <cc:Work>
    <dc:type rdf:resource="http://purl.org/dc/dcmitype/StillImage"/>
    <dc:date>2025-09-06T23:30:06.799929</dc:date>
    <dc:format>image/svg+xml</dc:format>
    <dc:creator>
     <cc:Agent>
      <dc:title>Matplotlib v3.10.5, https://matplotlib.org/</dc:title>
     </cc:Agent>
    </dc:creator>
   </cc:Work>
  </rdf:RDF>
 </metadata>
 <defs>
  <style type="text/css">*{stroke-linejoin: round; stroke-linecap: butt}</style>
 </defs>
 <g id="figure_1">
  <g id="patch_1">
   <path d="M 0 252 
L 756 252 
L 756 0 
L 0 0 
z
" style="fill: #ffffff"/>
  </g>
  <g id="axes_1">
   <g id="patch_2">
    <path d="M 94.5 224.28 
L 680.4 224.28 
L 680.4 30.24 
L 94.5 30.24 
z
" style="fill: #ffffff"/>
   </g>
   <g id="matplotlib.axis_1">
    <g id="xtick_1">
     <g id="line2d_1">
      <defs>
       <path id="mdb357bbf6c" d="M 0 0 
L 0 3.5 
" style="stroke: #000000; stroke-width: 0.8"/>
      </defs>
      <g>
       <use xlink:href="#mdb357bbf6c" x="115.678204" y="224.28" style="stroke: #000000; stroke-width: 0.8"/>
      </g>
     </g>
     <g id="text_1">
      <!-- 2020 -->
      <g transform="translate(102.953204 238.878438) scale(0.1 -0.1)">
       <defs>
        <path id="DejaVuSans-32" d="M 1228 531 
L 3431 531 
L 3431 0 
L 469 0 
L 469 531 
Q 828 903 1448 1529 
Q 2069 2156 2228 2338 
Q 2531 2678 2651 2914 
Q 2772 3150 2772 3378 
Q 2772 3750 2511 3984 
Q 2250 4219 1831 4219 
Q 1534 4219 1204 4116 
Q 875 4013 500 3803 
L 500 4441 
Q 881 4594 1212 4672 
Q 1544 4750 1819 4750 
Q 2544 4750 2975 4387 
Q 3406 4025 3406 3419 
Q 3406 3131 3298 2873 
Q 3191 2616 2906 2266 
Q 2828 2175 2409 1742 
Q 1991 1309 1228 531 
z
" transform="scale(0.015625)"/>
        <path id="DejaVuSans-30" d="M 2034 4250 
Q 1547 4250 1301 3770 
Q 1056 3291 1056 2328 
Q 1056 1369 1301 889 
Q 1547 409 2034 409 
Q 2525 409 2770 889 
Q 3016 1369 3016 2328 
Q 3016 3291 2770 3770 
Q 2525 4250 2034 4250 
z
M 2034 4750 
Q 2819 4750 3233 4129 
Q 3647 3509 3647 2328 
Q 3647 1150 3233 529 
Q 2819 -91 2034 -91 
Q 1250 -91 836 529 
Q 422 1150 422 2328 
Q 422 3509 836 4129 
Q 1250 4750 2034 4750 
z
" transform="scale(0.015625)"/>
       </defs>
       <use xlink:href="#DejaVuSans-32"/>
       <use xlink:href="#DejaVuSans-30" transform="translate(63.623047 0)"/>
       <use xlink:href="#DejaVuSans-32" transform="translate(127.246094 0)"/>
       <use xlink:href="#DejaVuSans-30" transform="translate(190.869141 0)"/>
      </g>
     </g>
    </g>
    <g id="xtick_2">
     <g id="line2d_2">
      <g>
       <use xlink:href="#mdb357bbf6c" x="210.726916" y="224.28" style="stroke: #000000; stroke-width: 0.8"/>
      </g>
     </g>
     <g id="text_2">
      <!-- 2021 -->
      <g transform="translate(198.001916 238.878438) scale(0.1 -0.1)">
       <defs>
        <path id="DejaVuSans-31" d="M 794 531 
L 1825 531 
L 1825 4091 
L 703 3866 
L 703 4441 
L 1819 4666 
L 2450 4666 
L 2450 531 
L 3481 531 
L 3481 0 
L 794 0 
L 794 531 
z
" transform="scale(0.015625)"/>
       </defs>
       <use xlink:href="#DejaVuSans-32"/>
       <use xlink:href="#DejaVuSans-30" transform="translate(63.623047 0)"/>
       <use xlink:href="#DejaVuSans-32" transform="translate(127.246094 0)"/>
       <use xlink:href="#DejaVuSans-31" transform="translate(190.869141 0)"/>
      </g>
     </g>
    </g>
    <g id="xtick_3">
     <g id="line2d_3">
      <g>
       <use xlink:href="#mdb357bbf6c" x="305.515932" y="224.28" style="stroke: #000000; stroke-width: 0.8"/>
      </g>
     </g>
     <g id="text_3">
      <!-- 2022 -->
      <g transform="translate(292.790932 238.878438) scale(0.1 -0.1)">
       <use xlink:href="#DejaVuSans-32"/>
       <use xlink:href="#DejaVuSans-30" transform="translate(63.623047 0)"/>
       <use xlink:href="#DejaVuSans-32" transform="translate(127.246094 0)"/>
       <use xlink:href="#DejaVuSans-32" transform="translate(190.869141 0)"/>
      </g>
     </g>
    </g>
    <g id="xtick_4">
     <g id="line2d_4">
      <g>
       <use xlink:href="#mdb357bbf6c" x="400.304949" y="224.28" style="stroke: #000000; stroke-width: 0.8"/>
      </g>
     </g>
     <g id="text_4">
      <!-- 2023 -->
      <g transform="translate(387.579949 238.878438) scale(0.1 -0.1)">
       <defs>
        <path id="DejaVuSans-33" d="M 2597 2516 
Q 3050 2419 3304 2112 
Q 3559 1806 3559 1356 
Q 3559 666 3084 287 
Q 2609 -91 1734 -91 
Q 1441 -91 1130 -33 
Q 819 25 488 141 
L 488 750 
Q 750 597 1062 519 
Q 1375 441 1716 441 
Q 2309 441 2620 675 
Q 2931 909 2931 1356 
Q 2931 1769 2642 2001 
Q 2353 2234 1838 2234 
L 1294 2234 
L 1294 2753 
L 1863 2753 
Q 2328 2753 2575 2939 
Q 2822 3125 2822 3475 
Q 2822 3834 2567 4026 
Q 2313 4219 1838 4219 
Q 1578 4219 1281 4162 
Q 984 4106 628 3988 
L 628 4550 
Q 988 4650 1302 4700 
Q 1616 4750 1894 4750 
Q 2613 4750 3031 4423 
Q 3450 4097 3450 3541 
Q 3450 3153 3228 2886 
Q 3006 2619 2597 2516 
z
" transform="scale(0.015625)"/>
       </defs>
       <use xlink:href="#DejaVuSans-32"/>
       <use xlink:href="#DejaVuSans-30" transform="translate(63.623047 0)"/>
       <use xlink:href="#DejaVuSans-32" transform="translate(127.246094 0)"/>
       <use xlink:href="#DejaVuSans-33" transform="translate(190.869141 0)"/>
      </g>
     </g>
    </g>
    <g id="xtick_5">
     <g id="line2d_5">
      <g>
       <use xlink:href="#mdb357bbf6c" x="495.093965" y="224.28" style="stroke: #000000; stroke-width: 0.8"/>
      </g>
     </g>
     <g id="text_5">
      <!-- 2024 -->
      <g transform="translate(482.368965 238.878438) scale(0.1 -0.1)">
       <defs>
        <path id="DejaVuSans-34" d="M 2419 4116 
L 825 1625 
L 2419 1625 
L 2419 4116 
z
M 2253 4666 
L 3047 4666 
L 3047 1625 
L 3713 1625 
L 3713 1100 
L 3047 1100 
L 3047 0 
L 2419 0 
L 2419 1100 
L 313 1100 
L 313 1709 
L 2253 4666 
z
" transform="scale(0.015625)"/>
       </defs>
       <use xlink:href="#DejaVuSans-32"/>
       <use xlink:href="#DejaVuSans-30" transform="translate(63.623047 0)"/>
       <use xlink:href="#DejaVuSans-32" transform="translate(127.246094 0)"/>
       <use xlink:href="#DejaVuSans-34" transform="translate(190.869141 0)"/>
      </g>
     </g>
    </g>
    <g id="xtick_6">
     <g id="line2d_6">
      <g>
       <use xlink:href="#mdb357bbf6c" x="590.142678" y="224.28" style="stroke: #000000; stroke-width: 0.8"/>
      </g>
     </g>
     <g id="text_6">
      <!-- 2025 -->
      <g transform="translate(577.417678 238.878438) scale(0.1 -0.1)">
       <defs>
        <path id="DejaVuSans-35" d="M 691 4666 
L 3169 4666 
L 3169 4134 
L 1269 4134 
L 1269 2991 
Q 1406 3038 1543 3061 
Q 1681 3084 1819 3084 
Q 2600 3084 3056 2656 
Q 3513 2228 3513 1497 
Q 3513 744 3044 326 
Q 2575 -91 1722 -91 
Q 1428 -91 1123 -41 
Q 819 9 494 109 
L 494 744 
Q 775 591 1075 516 
Q 1375 441 1709 441 
Q 2250 441 2565 725 
Q 2881 1009 2881 1497 
Q 2881 1984 2565 2268 
Q 2250 2553 1709 2553 
Q 1456 2553 1204 2497 
Q 953 2441 691 2322 
L 691 4666 
z
" transform="scale(0.015625)"/>
       </defs>
       <use xlink:href="#DejaVuSans-32"/>
       <use xlink:href="#DejaVuSans-30" transform="translate(63.623047 0)"/>
       <use xlink:href="#DejaVuSans-32" transform="translate(127.246094 0)"/>
       <use xlink:href="#DejaVuSans-35" transform="translate(190.869141 0)"/>
      </g>
     </g>
    </g>
   </g>
   <g id="matplotlib.axis_2">
    <g id="ytick_1">
     <g id="line2d_7">
      <defs>
       <path id="m4476d9a5cd" d="M 0 0 
L -3.5 0 
" style="stroke: #000000; stroke-width: 0.8"/>
      </defs>
      <g>
       <use xlink:href="#m4476d9a5cd" x="94.5" y="217.463544" style="stroke: #000000; stroke-width: 0.8"/>
      </g>
     </g>
     <g id="text_7">
      <!-- 80 -->
      <g transform="translate(74.775 221.262763) scale(0.1 -0.1)">
       <defs>
        <path id="DejaVuSans-38" d="M 2034 2216 
Q 1584 2216 1326 1975 
Q 1069 1734 1069 1313 
Q 1069 891 1326 650 
Q 1584 409 2034 409 
Q 2484 409 2743 651 
Q 3003 894 3003 1313 
Q 3003 1734 2745 1975 
Q 2488 2216 2034 2216 
z
M 1403 2484 
Q 997 2584 770 2862 
Q 544 3141 544 3541 
Q 544 4100 942 4425 
Q 1341 4750 2034 4750 
Q 2731 4750 3128 4425 
Q 3525 4100 3525 3541 
Q 3525 3141 3298 2862 
Q 3072 2584 2669 2484 
Q 3125 2378 3379 2068 
Q 3634 1759 3634 1313 
Q 3634 634 3220 271 
Q 2806 -91 2034 -91 
Q 1263 -91 848 271 
Q 434 634 434 1313 
Q 434 1759 690 2068 
Q 947 2378 1403 2484 
z
M 1172 3481 
Q 1172 3119 1398 2916 
Q 1625 2713 2034 2713 
Q 2441 2713 2670 2916 
Q 2900 3119 2900 3481 
Q 2900 3844 2670 4047 
Q 2441 4250 2034 4250 
Q 1625 4250 1398 4047 
Q 1172 3844 1172 3481 
z
" transform="scale(0.015625)"/>
       </defs>
       <use xlink:href="#DejaVuSans-38"/>
       <use xlink:href="#DejaVuSans-30" transform="translate(63.623047 0)"/>
      </g>
     </g>
    </g>
    <g id="ytick_2">
     <g id="line2d_8">
      <g>
       <use xlink:href="#m4476d9a5cd" x="94.5" y="195.44657" style="stroke: #000000; stroke-width: 0.8"/>
      </g>
     </g>
     <g id="text_8">
      <!-- 100 -->
      <g transform="translate(68.4125 199.245788) scale(0.1 -0.1)">
       <use xlink:href="#DejaVuSans-31"/>
       <use xlink:href="#DejaVuSans-30" transform="translate(63.623047 0)"/>
       <use xlink:href="#DejaVuSans-30" transform="translate(127.246094 0)"/>
      </g>
     </g>
    </g>
    <g id="ytick_3">
     <g id="line2d_9">
      <g>
       <use xlink:href="#m4476d9a5cd" x="94.5" y="173.429595" style="stroke: #000000; stroke-width: 0.8"/>
      </g>
     </g>
     <g id="text_9">
      <!-- 120 -->
      <g transform="translate(68.4125 177.228813) scale(0.1 -0.1)">
       <use xlink:href="#DejaVuSans-31"/>
       <use xlink:href="#DejaVuSans-32" transform="translate(63.623047 0)"/>
       <use xlink:href="#DejaVuSans-30" transform="translate(127.246094 0)"/>
      </g>
     </g>
    </g>
    <g id="ytick_4">
     <g id="line2d_10">
      <g>
       <use xlink:href="#m4476d9a5cd" x="94.5" y="151.41262" style="stroke: #000000; stroke-width: 0.8"/>
      </g>
     </g>
     <g id="text_10">
      <!-- 140 -->
      <g transform="translate(68.4125 155.211839) scale(0.1 -0.1)">
       <use xlink:href="#DejaVuSans-31"/>
       <use xlink:href="#DejaVuSans-34" transform="translate(63.623047 0)"/>
       <use xlink:href="#DejaVuSans-30" transform="translate(127.246094 0)"/>
      </g>
     </g>
    </g>
    <g id="ytick_5">
     <g id="line2d_11">
      <g>
       <use xlink:href="#m4476d9a5cd" x="94.5" y="129.395645" style="stroke: #000000; stroke-width: 0.8"/>
      </g>
     </g>
     <g id="text_11">
      <!-- 160 -->
      <g transform="translate(68.4125 133.194864) scale(0.1 -0.1)">
       <defs>
        <path id="DejaVuSans-36" d="M 2113 2584 
Q 1688 2584 1439 2293 
Q 1191 2003 1191 1497 
Q 1191 994 1439 701 
Q 1688 409 2113 409 
Q 2538 409 2786 701 
Q 3034 994 3034 1497 
Q 3034 2003 2786 2293 
Q 2538 2584 2113 2584 
z
M 3366 4563 
L 3366 3988 
Q 3128 4100 2886 4159 
Q 2644 4219 2406 4219 
Q 1781 4219 1451 3797 
Q 1122 3375 1075 2522 
Q 1259 2794 1537 2939 
Q 1816 3084 2150 3084 
Q 2853 3084 3261 2657 
Q 3669 2231 3669 1497 
Q 3669 778 3244 343 
Q 2819 -91 2113 -91 
Q 1303 -91 875 529 
Q 447 1150 447 2328 
Q 447 3434 972 4092 
Q 1497 4750 2381 4750 
Q 2619 4750 2861 4703 
Q 3103 4656 3366 4563 
z
" transform="scale(0.015625)"/>
       </defs>
       <use xlink:href="#DejaVuSans-31"/>
       <use xlink:href="#DejaVuSans-36" transform="translate(63.623047 0)"/>
       <use xlink:href="#DejaVuSans-30" transform="translate(127.246094 0)"/>
      </g>
     </g>
    </g>
    <g id="ytick_6">
     <g id="line2d_12">
      <g>
       <use xlink:href="#m4476d9a5cd" x="94.5" y="107.37867" style="stroke: #000000; stroke-width: 0.8"/>
      </g>
     </g>
     <g id="text_12">
      <!-- 180 -->
      <g transform="translate(68.4125 111.177889) scale(0.1 -0.1)">
       <use xlink:href="#DejaVuSans-31"/>
       <use xlink:href="#DejaVuSans-38" transform="translate(63.623047 0)"/>
       <use xlink:href="#DejaVuSans-30" transform="translate(127.246094 0)"/>
      </g>
     </g>
    </g>
    <g id="ytick_7">
     <g id="line2d_13">
      <g>
       <use xlink:href="#m4476d9a5cd" x="94.5" y="85.361695" style="stroke: #000000; stroke-width: 0.8"/>
      </g>
     </g>
     <g id="text_13">
      <!-- 200 -->
      <g transform="translate(68.4125 89.160914) scale(0.1 -0.1)">
       <use xlink:href="#DejaVuSans-32"/>
       <use xlink:href="#DejaVuSans-30" transform="translate(63.623047 0)"/>
       <use xlink:href="#DejaVuSans-30" transform="translate(127.246094 0)"/>
      </g>
     </g>
    </g>
    <g id="ytick_8">
     <g id="line2d_14">
      <g>
       <use xlink:href="#m4476d9a5cd" x="94.5" y="63.344721" style="stroke: #000000; stroke-width: 0.8"/>
      </g>
     </g>
     <g id="text_14">
      <!-- 220 -->
      <g transform="translate(68.4125 67.143939) scale(0.1 -0.1)">
       <use xlink:href="#DejaVuSans-32"/>
       <use xlink:href="#DejaVuSans-32" transform="translate(63.623047 0)"/>
       <use xlink:href="#DejaVuSans-30" transform="translate(127.246094 0)"/>
      </g>
     </g>
    </g>
    <g id="ytick_9">
     <g id="line2d_15">
      <g>
       <use xlink:href="#m4476d9a5cd" x="94.5" y="41.327746" style="stroke: #000000; stroke-width: 0.8"/>
      </g>
     </g>
     <g id="text_15">
      <!-- 240 -->
      <g transform="translate(68.4125 45.126964) scale(0.1 -0.1)">
       <use xlink:href="#DejaVuSans-32"/>
       <use xlink:href="#DejaVuSans-34" transform="translate(63.623047 0)"/>
       <use xlink:href="#DejaVuSans-30" transform="translate(127.246094 0)"/>
      </g>
     </g>
    </g>
   </g>
   <g id="line2d_16">
    <path d="M 121.131818 201.641044 
L 121.391514 201.799572 
L 121.65121 203.06224 
L 122.430298 204.895154 
L 122.689994 203.524049 
L 122.94969 203.262594 
L 123.209386 202.564661 
L 123.469082 194.966603 
L 124.248169 195.215392 
L 124.507865 192.712614 
L 124.767561 193.252028 
L 125.027257 192.681791 
L 125.286953 191.082809 
L 126.325737 187.146169 
L 126.585433 186.63978 
L 126.845129 187.19736 
L 127.104825 188.022996 
L 128.143608 186.878113 
L 128.403304 186.077244 
L 128.663 187.019574 
L 128.922696 190.164147 
L 129.96148 196.947025 
L 130.221176 196.569986 
L 130.480872 201.814984 
L 130.740568 201.845253 
L 131.519656 197.981271 
L 131.779352 200.455981 
L 132.039047 196.776949 
L 132.298743 199.628144 
L 132.558439 200.890821 
L 133.337527 206.421479 
L 133.597223 201.401057 
L 133.856919 205.306873 
L 134.116615 213.246746 
L 134.376311 207.280694 
L 135.155399 212.556515 
L 135.415095 206.023526 
L 135.674791 204.803784 
L 135.934487 202.000471 
L 136.194182 203.918155 
L 136.97327 200.795041 
L 137.232966 198.743615 
L 137.492662 201.730214 
L 137.752358 197.896511 
L 138.012054 200.945312 
L 138.791142 197.430847 
L 139.050838 198.214103 
L 139.310534 200.526984 
L 139.57023 199.914367 
L 139.829926 200.588085 
L 140.609013 195.57922 
L 140.868709 194.808075 
L 141.128405 193.079743 
L 141.388101 193.092954 
L 142.426885 186.151557 
L 142.686581 179.851946 
L 142.946277 178.51111 
L 143.205973 172.978797 
L 143.465669 174.805656 
L 144.244756 173.78132 
L 144.504452 177.386047 
L 145.023844 173.459864 
L 145.28354 172.867059 
L 146.062628 174.75061 
L 146.322324 178.158838 
L 146.58202 174.931705 
L 146.841716 169.356458 
L 147.101412 179.702229 
L 147.8805 178.05371 
L 148.140195 177.954084 
L 148.399891 176.112359 
L 148.919283 174.551911 
L 149.698371 172.934216 
L 149.958067 175.799168 
L 150.217763 175.195352 
L 150.737155 172.891281 
L 151.516243 171.984176 
L 151.775939 170.714352 
L 152.035635 168.038735 
L 152.29533 170.856913 
L 152.555026 171.399628 
L 153.59381 172.226364 
L 154.113202 173.369048 
L 154.372898 171.097447 
L 155.151986 169.519378 
L 155.411682 169.443973 
L 155.671378 169.11427 
L 155.931074 170.094024 
L 156.190769 168.861071 
L 156.969857 166.601027 
L 157.489249 159.809346 
L 157.748945 164.735088 
L 158.008641 165.447341 
L 158.787729 163.924864 
L 159.307121 160.165473 
L 159.566817 159.449911 
L 159.826513 158.29237 
L 160.6056 156.156183 
L 160.865296 153.371575 
L 161.124992 155.023402 
L 161.384688 153.912643 
L 161.644384 157.309323 
L 162.423472 157.996799 
L 162.683168 153.679274 
L 162.942864 147.080783 
L 163.20256 146.442288 
L 164.241343 137.264506 
L 164.501039 140.397531 
L 165.020431 130.351732 
L 165.280127 129.395645 
L 166.318911 135.780571 
L 166.578607 139.91591 
L 166.838303 140.409642 
L 167.097999 142.497401 
L 167.877087 129.569584 
L 168.396478 134.904844 
L 168.656174 141.144454 
L 168.91587 139.913709 
L 169.694958 137.365242 
L 169.954654 140.385974 
L 170.21435 138.558561 
L 170.474046 137.548537 
L 170.733742 131.339751 
L 171.51283 134.245437 
L 171.772526 132.762593 
L 172.032222 129.118787 
L 172.291917 128.019584 
L 172.551613 131.186725 
L 173.330701 132.24904 
L 173.590397 135.963867 
L 173.850093 131.474048 
L 174.109789 131.541205 
L 174.369485 132.25675 
L 175.148573 130.363843 
L 175.408269 123.203925 
L 175.667965 126.066676 
L 175.927661 124.036163 
L 176.187357 124.732458 
L 176.966444 123.480784 
L 177.22614 121.332486 
L 177.485836 116.083633 
L 177.745532 118.387158 
L 178.005228 118.288085 
L 178.784316 115.58219 
L 179.303708 111.151835 
L 179.563404 120.148522 
L 179.8231 124.187527 
L 180.861883 132.156569 
L 181.121579 125.619188 
L 181.640971 134.007095 
L 182.420059 134.736414 
L 182.679755 131.810353 
L 183.458843 142.885997 
L 184.23793 142.579962 
L 184.497626 133.304216 
L 184.757322 140.411843 
L 185.017018 139.31484 
L 185.276714 135.167945 
L 186.055802 130.823997 
L 186.315498 132.429581 
L 186.575194 132.217679 
L 186.83489 128.225439 
L 187.094586 133.523828 
L 187.873674 129.439672 
L 188.13337 134.902089 
L 188.393065 129.632878 
L 188.652761 129.9158 
L 188.912457 124.626213 
L 189.691545 116.024186 
L 189.951241 115.985652 
L 190.210937 120.384646 
L 190.470633 121.764017 
L 190.730329 125.393512 
L 191.509417 128.998785 
L 191.769113 128.459379 
L 192.028809 130.224591 
L 192.288504 130.694638 
L 192.5482 129.153457 
L 193.327288 129.008141 
L 193.586984 124.643834 
L 193.84668 131.444316 
L 194.106376 128.789621 
L 194.366072 138.414354 
L 195.14516 140.157543 
L 195.404856 137.739526 
L 195.664552 127.1301 
L 195.924248 122.680461 
L 196.183944 123.265572 
L 196.963031 132.492336 
L 197.222727 138.476539 
L 197.482423 132.841845 
L 197.742119 134.334044 
L 198.001815 133.31411 
L 198.780903 133.190278 
L 199.040599 132.93707 
L 199.300295 134.599363 
L 199.559991 133.963069 
L 199.819687 134.932913 
L 200.598774 134.988513 
L 200.85847 133.905822 
L 201.118166 130.217435 
L 201.637558 129.652145 
L 202.416646 131.154809 
L 202.676342 128.290395 
L 203.195734 130.126056 
L 203.45543 131.455335 
L 204.234518 131.707434 
L 204.494213 130.645657 
L 204.753909 134.668703 
L 205.013605 134.817883 
L 206.052389 131.764126 
L 206.312085 131.315529 
L 206.571781 127.141102 
L 206.831477 127.409713 
L 207.091173 129.30482 
L 208.129957 129.036764 
L 208.649348 130.898847 
L 209.947828 122.680461 
L 210.46722 126.262083 
L 211.506004 130.131566 
L 211.7657 128.376802 
L 212.025396 132.787353 
L 212.544787 130.347885 
L 213.323875 134.117741 
L 213.583571 133.75335 
L 213.843267 131.273148 
L 214.362659 134.665965 
L 215.401443 133.757214 
L 215.661139 125.907048 
L 215.920835 123.506652 
L 216.180531 124.319086 
L 216.959618 124.221659 
L 217.219314 122.453139 
L 217.47901 127.602365 
L 217.738706 127.324952 
L 217.998402 129.054385 
L 219.037186 119.488006 
L 219.296882 123.201725 
L 219.816274 121.02094 
L 220.595361 122.628724 
L 221.374449 125.975851 
L 221.634145 125.118299 
L 222.672929 125.600475 
L 222.932625 123.415827 
L 223.192321 122.337554 
L 223.452017 126.649033 
L 224.231105 130.45576 
L 224.4908 129.698372 
L 224.750496 131.623211 
L 225.010192 137.257905 
L 225.269888 135.289039 
L 226.048976 132.360223 
L 226.308672 135.200969 
L 226.568368 140.12892 
L 226.828064 141.638741 
L 227.08776 140.378818 
L 227.866848 143.048918 
L 228.126544 136.944713 
L 228.38624 137.231482 
L 228.645935 134.151857 
L 228.905631 135.478382 
L 229.684719 135.908267 
L 229.944415 135.347932 
L 230.204111 132.933224 
L 230.463807 138.863488 
L 230.723503 136.27815 
L 231.502591 134.301574 
L 231.762287 132.835797 
L 232.281679 137.857865 
L 232.541374 137.540273 
L 233.320462 136.23577 
L 233.580158 137.360841 
L 233.839854 135.225746 
L 234.09955 131.542297 
L 235.138334 127.924358 
L 235.39803 128.084541 
L 235.657726 125.025829 
L 235.917422 123.929935 
L 236.177118 119.917337 
L 236.956205 119.521585 
L 237.215901 118.387158 
L 237.475597 122.075008 
L 237.735293 119.538097 
L 237.994989 118.417981 
L 238.774077 119.927802 
L 239.033773 121.981982 
L 239.293469 120.477672 
L 239.553165 123.393822 
L 239.812861 121.64126 
L 240.591948 117.891779 
L 240.851644 117.427762 
L 241.11134 115.167172 
L 241.371036 114.462075 
L 241.630732 114.676194 
L 242.40982 119.130788 
L 242.669516 123.238041 
L 242.929212 125.512959 
L 243.188908 123.540785 
L 243.448604 124.353201 
L 244.227692 129.919092 
L 244.487388 128.079585 
L 244.747083 132.040984 
L 245.006779 131.516428 
L 245.266475 128.135169 
L 246.045563 125.521207 
L 246.305259 127.618877 
L 246.564955 127.6453 
L 246.824651 126.771219 
L 247.084347 129.226107 
L 248.123131 126.14539 
L 248.382827 125.809085 
L 248.642522 127.738325 
L 248.902218 128.125812 
L 249.941002 128.369109 
L 250.200698 127.52476 
L 250.460394 130.110652 
L 250.72009 129.053276 
L 251.499178 129.505182 
L 251.758874 125.866868 
L 252.01857 124.928957 
L 252.278266 121.158546 
L 252.537962 121.313756 
L 253.317049 119.274996 
L 253.576745 119.31573 
L 253.836441 117.547764 
L 254.096137 113.475164 
L 254.355833 113.603969 
L 255.134921 115.41707 
L 255.394617 112.58348 
L 255.654313 112.672658 
L 256.173705 118.306798 
L 256.952792 115.971341 
L 257.212488 115.737417 
L 257.73188 116.57241 
L 257.991576 112.278552 
L 259.03036 103.209753 
L 259.290056 102.062677 
L 259.549752 100.145548 
L 259.809448 100.809911 
L 260.588536 100.853383 
L 260.848231 103.120591 
L 261.107927 102.882804 
L 261.627319 108.830136 
L 262.406407 110.153351 
L 262.666103 108.854358 
L 262.925799 108.193304 
L 263.185495 105.285401 
L 263.445191 104.261066 
L 264.224279 101.884337 
L 264.483975 105.926096 
L 264.74367 105.709776 
L 265.003366 107.383071 
L 265.263062 122.372779 
L 266.04215 122.15866 
L 266.301846 120.245394 
L 266.561542 120.879488 
L 266.821238 119.708727 
L 267.080934 121.417801 
L 267.860022 121.586768 
L 268.379414 124.325687 
L 268.63911 123.698749 
L 268.898805 124.223305 
L 269.677893 123.947001 
L 270.197285 129.328488 
L 270.456981 130.069918 
L 270.716677 129.3984 
L 271.495765 125.769997 
L 271.755461 123.573254 
L 272.015157 123.936537 
L 272.274853 123.010719 
L 272.534549 121.159638 
L 273.313636 117.199885 
L 273.573332 114.490698 
L 273.833028 114.038808 
L 274.092724 114.912873 
L 274.35242 114.091099 
L 275.391204 112.371578 
L 275.6509 111.479338 
L 275.910596 113.754794 
L 276.170292 114.580968 
L 276.949379 115.240376 
L 277.209075 115.635036 
L 277.468771 114.215486 
L 277.728467 113.53021 
L 277.988163 114.945897 
L 278.767251 120.823887 
L 279.026947 121.489896 
L 279.546339 117.506475 
L 279.806035 116.982474 
L 280.585123 118.067919 
L 280.844818 123.012919 
L 281.36421 124.714837 
L 281.623906 124.812818 
L 282.402994 129.958181 
L 282.922386 125.98247 
L 283.182082 123.757642 
L 284.220866 126.847178 
L 284.480562 126.790486 
L 284.740258 124.756663 
L 284.999953 123.899111 
L 285.259649 117.89067 
L 286.038737 115.814468 
L 286.298433 115.957029 
L 286.558129 117.558212 
L 286.817825 116.460118 
L 287.077521 121.934647 
L 287.856609 122.770194 
L 288.116305 119.704326 
L 288.376001 118.80053 
L 288.635697 115.823824 
L 288.895392 119.904671 
L 289.67448 122.89458 
L 289.934176 123.189614 
L 290.713264 111.837665 
L 291.492352 113.489476 
L 291.752048 108.687037 
L 292.011744 113.870933 
L 292.27144 114.396581 
L 292.531136 111.498589 
L 293.310223 110.368579 
L 293.569919 110.642683 
L 293.829615 110.185838 
L 294.089311 102.091301 
L 294.349007 103.164064 
L 295.128095 108.888491 
L 295.387791 108.477318 
L 295.647487 108.45696 
L 296.166879 112.631924 
L 296.945966 109.493944 
L 297.465358 115.980697 
L 297.725054 116.330776 
L 297.98475 118.949139 
L 298.763838 116.880646 
L 299.023534 111.60097 
L 299.28323 111.608126 
L 299.802622 115.952074 
L 300.58171 118.863269 
L 300.841406 119.387271 
L 301.101101 114.737841 
L 301.360797 119.630013 
L 301.620493 118.367891 
L 302.399581 121.602743 
L 302.659277 117.928096 
L 302.918973 117.245575 
L 303.178669 117.210904 
L 304.217453 118.750994 
L 304.477149 117.659502 
L 304.736845 119.266731 
L 304.99654 119.879357 
L 305.256236 122.001249 
L 306.035324 117.94187 
L 306.554716 124.599253 
L 307.074108 126.584076 
L 307.853196 127.759792 
L 308.112892 123.492895 
L 308.372588 123.663525 
L 308.632284 128.05921 
L 308.89198 127.04203 
L 309.930763 130.587319 
L 310.190459 133.469891 
L 310.450155 138.568472 
L 310.709851 148.503071 
L 311.488939 146.410356 
L 311.748635 151.42804 
L 312.008331 152.65383 
L 312.268027 151.811681 
L 312.527723 147.033447 
L 313.566506 139.090273 
L 313.826202 139.729859 
L 314.085898 152.683545 
L 314.345594 131.994203 
L 315.124682 131.668346 
L 315.384378 127.839598 
L 315.644074 128.086187 
L 315.90377 130.492647 
L 316.163466 136.778484 
L 316.942554 134.716039 
L 317.461945 131.486713 
L 317.981337 137.540273 
L 319.020121 140.186721 
L 319.279817 146.098828 
L 319.539513 138.909178 
L 319.799209 136.233569 
L 320.578297 136.481804 
L 320.837993 139.146965 
L 321.097688 138.144634 
L 321.357384 142.717568 
L 321.61708 145.202725 
L 322.396168 154.216478 
L 322.655864 155.800057 
L 322.91556 152.206324 
L 323.175256 143.907578 
L 324.21404 149.372751 
L 324.993128 132.43509 
L 325.252823 128.01903 
L 326.031911 127.753728 
L 326.291607 124.013587 
L 326.551303 125.643947 
L 326.810999 125.378091 
L 327.070695 124.140745 
L 327.849783 119.498471 
L 328.109479 119.141236 
L 328.628871 126.095854 
L 328.888567 125.476626 
L 329.667654 120.207415 
L 330.187046 130.765105 
L 330.446742 131.834575 
L 330.706438 135.493802 
L 331.485526 139.168987 
L 331.745222 139.537207 
L 332.004918 134.304329 
L 332.264614 138.525537 
L 333.303397 137.338265 
L 333.563093 131.470201 
L 334.342181 146.623921 
L 335.121269 144.726059 
L 335.380965 152.08303 
L 335.640661 153.430467 
L 335.900357 146.352572 
L 336.160053 168.716309 
L 336.939141 168.475775 
L 337.198836 168.747133 
L 337.458532 166.903216 
L 337.718228 177.384947 
L 337.977924 179.184283 
L 338.757012 185.771208 
L 339.016708 185.694149 
L 339.276404 189.532808 
L 339.5361 187.817142 
L 339.795796 181.074989 
L 340.574884 183.545843 
L 340.83458 178.528176 
L 341.094276 187.61678 
L 341.613667 187.090023 
L 342.392755 187.127456 
L 342.652451 190.933091 
L 342.912147 187.988318 
L 343.431539 178.772564 
L 344.730019 171.575768 
L 344.989715 167.362816 
L 345.24941 170.842602 
L 346.028498 168.156528 
L 346.54789 172.130593 
L 347.067282 184.823378 
L 348.106066 192.903612 
L 348.365762 187.003062 
L 348.625458 191.417459 
L 348.885154 188.599289 
L 349.923937 185.891202 
L 350.183633 185.593977 
L 350.703025 177.3266 
L 351.482113 180.893348 
L 351.741809 187.300287 
L 352.001505 185.627001 
L 352.261201 188.6103 
L 352.520897 184.922458 
L 353.819376 179.671405 
L 354.079072 177.469708 
L 354.338768 178.339379 
L 355.117856 182.511597 
L 355.377552 185.296743 
L 355.637248 183.997741 
L 355.896944 183.74455 
L 356.15664 180.530066 
L 356.935728 180.298889 
L 357.455119 170.380247 
L 357.714815 168.332668 
L 357.974511 170.765543 
L 358.753599 172.174628 
L 359.013295 179.143002 
L 359.272991 172.36177 
L 359.532687 170.919661 
L 359.792383 156.971909 
L 360.571471 156.487533 
L 360.831167 157.841572 
L 361.090863 151.941023 
L 361.350558 148.583431 
L 361.610254 150.531938 
L 362.389342 152.062117 
L 362.649038 153.80146 
L 362.908734 148.451334 
L 363.16843 150.708077 
L 363.428126 147.504603 
L 364.207214 147.911929 
L 364.46691 146.150564 
L 364.726606 149.100831 
L 364.986302 148.880664 
L 365.245998 153.361127 
L 366.025085 158.876373 
L 366.284781 158.43604 
L 366.544477 158.237879 
L 366.804173 154.40693 
L 367.063869 161.595471 
L 367.842957 162.652293 
L 368.102653 163.81919 
L 368.362349 165.976852 
L 368.622045 164.820958 
L 369.920524 166.703408 
L 370.18022 162.993553 
L 370.439916 162.619252 
L 370.699612 158.821327 
L 371.4787 155.320636 
L 371.738396 165.921807 
L 371.998092 164.017335 
L 372.517484 169.5436 
L 373.296572 168.299636 
L 373.556267 171.018733 
L 373.815963 175.036833 
L 374.075659 176.390881 
L 374.335355 180.276875 
L 375.114443 178.768709 
L 375.374139 179.583335 
L 375.633835 175.620281 
L 375.893531 179.154005 
L 376.153227 181.135536 
L 376.932315 177.965095 
L 377.192011 172.229674 
L 377.451706 172.383792 
L 377.711402 173.099337 
L 377.971098 179.418215 
L 378.750186 180.397969 
L 379.009882 182.005207 
L 379.269578 181.245619 
L 379.529274 181.652936 
L 379.78897 187.850712 
L 380.827754 177.436683 
L 381.08745 178.856779 
L 381.347146 178.658626 
L 381.606841 174.178172 
L 382.385929 173.627748 
L 382.645625 172.769087 
L 383.165017 183.381268 
L 383.424713 191.692671 
L 384.203801 192.760496 
L 384.723193 204.121255 
L 384.982889 207.225648 
L 385.242585 205.376221 
L 386.021672 205.871608 
L 386.281368 206.47707 
L 386.541064 210.704334 
L 386.80076 199.156433 
L 387.060456 194.576898 
L 387.839544 197.108853 
L 388.09924 196.613467 
L 388.878328 201.897544 
L 389.657415 203.74697 
L 390.176807 201.908555 
L 390.696199 202.701159 
L 391.475287 202.106708 
L 391.734983 203.791005 
L 391.994679 199.255505 
L 393.293159 205.343197 
L 393.552854 208.381542 
L 393.81255 208.150365 
L 394.072246 206.069762 
L 394.331942 207.456833 
L 395.11103 205.849587 
L 395.370726 203.713946 
L 395.630422 204.715714 
L 395.890118 208.161376 
L 396.149814 208.810873 
L 396.928902 212.047371 
L 397.188598 211.750137 
L 397.448294 210.010802 
L 397.707989 213.291327 
L 397.967685 211.684088 
L 399.006469 214.116963 
L 399.266165 215.46 
L 399.525861 212.861996 
L 399.785557 213.060149 
L 400.824341 211.056605 
L 401.084037 211.805183 
L 401.343733 214.028893 
L 401.603428 210.770382 
L 402.382516 209.361297 
L 402.642212 206.598164 
L 402.901908 200.851741 
L 403.161604 200.653588 
L 403.4213 197.516162 
L 404.71978 200.444424 
L 404.979476 202.403933 
L 405.239172 198.473904 
L 406.018259 198.176678 
L 406.277955 199.497693 
L 406.537651 198.550963 
L 406.797347 196.30523 
L 407.057043 192.980671 
L 407.836131 194.841099 
L 408.355523 189.777197 
L 408.615219 181.234608 
L 408.874915 191.714693 
L 409.654002 193.046719 
L 409.913698 193.123778 
L 410.43309 197.384066 
L 410.692786 198.077597 
L 411.471874 195.952959 
L 411.73157 195.776828 
L 411.991266 194.169581 
L 412.250962 197.483138 
L 412.510658 198.528949 
L 413.549442 201.413168 
L 413.809137 200.081142 
L 414.068833 200.048118 
L 414.328529 202.602086 
L 415.107617 202.315863 
L 415.367313 201.798463 
L 415.627009 204.066217 
L 415.886705 204.110252 
L 416.146401 201.060896 
L 417.185185 202.547041 
L 417.444881 202.139732 
L 417.964272 205.651434 
L 418.74336 203.779994 
L 419.003056 201.082918 
L 419.262752 199.629798 
L 419.522448 195.402535 
L 419.782144 196.602464 
L 420.561232 197.967514 
L 420.820928 194.775051 
L 421.080624 196.877676 
L 421.34032 196.866665 
L 421.600016 197.50516 
L 422.379103 197.604232 
L 422.638799 198.484914 
L 423.158191 193.244872 
L 423.417887 191.824776 
L 424.196975 192.79352 
L 424.456671 191.09822 
L 424.716367 194.235638 
L 424.976063 193.178824 
L 426.014846 193.05773 
L 426.534238 197.835409 
L 426.793934 192.804531 
L 427.832718 192.430246 
L 428.092414 192.914614 
L 428.35211 190.712917 
L 428.611806 191.252339 
L 428.871502 187.784663 
L 429.65059 188.6103 
L 429.910285 192.617389 
L 430.169981 189.964339 
L 430.429677 184.636235 
L 430.689373 189.446947 
L 431.468461 193.189826 
L 431.728157 191.450492 
L 431.987853 191.42847 
L 432.247549 191.043175 
L 432.507245 189.215762 
L 433.286333 189.028619 
L 433.546029 188.158948 
L 433.805724 184.228918 
L 434.06542 182.038232 
L 434.325116 184.151859 
L 435.104204 183.117067 
L 435.883292 175.466163 
L 436.142988 177.557777 
L 436.922076 178.922828 
L 437.181772 178.944849 
L 437.441468 177.007353 
L 437.701164 178.933838 
L 437.960859 173.308501 
L 438.999643 171.602182 
L 439.259339 172.7911 
L 439.778731 168.750988 
L 440.557819 167.595093 
L 440.817515 166.152984 
L 441.077211 172.075547 
L 441.336907 168.750988 
L 441.596603 169.653683 
L 442.37569 166.197019 
L 442.635386 166.097938 
L 442.895082 166.362148 
L 443.154778 165.602559 
L 443.414474 167.385937 
L 444.453258 167.06669 
L 444.712954 168.112493 
L 444.97265 162.255987 
L 445.232346 163.158674 
L 446.011433 165.360371 
L 446.271129 163.323811 
L 446.530825 163.477929 
L 446.790521 164.732888 
L 447.050217 162.024801 
L 447.829305 162.178919 
L 448.348697 162.002779 
L 448.608393 164.226499 
L 448.868089 162.663295 
L 449.647177 165.580546 
L 450.166568 161.540425 
L 450.426264 157.687454 
L 450.68596 157.269143 
L 451.465048 158.502088 
L 451.724744 159.305703 
L 451.98444 156.520557 
L 452.244136 162.465134 
L 452.503832 162.421107 
L 453.28292 163.742122 
L 453.542616 163.37884 
L 453.802312 164.457684 
L 454.062007 164.347593 
L 454.321703 159.988224 
L 455.100791 158.369992 
L 455.360487 160.56067 
L 455.620183 164.391619 
L 455.879879 163.621028 
L 456.139575 151.885977 
L 456.918663 148.968734 
L 457.438055 153.779438 
L 457.697751 152.997845 
L 457.957446 153.162965 
L 458.736534 150.785128 
L 459.255926 156.839796 
L 459.775318 158.876373 
L 460.554406 157.269143 
L 460.814102 157.7425 
L 461.073798 156.344418 
L 461.333494 160.39555 
L 461.59319 158.832346 
L 462.372277 158.964443 
L 462.631973 157.015936 
L 462.891669 156.839796 
L 463.151365 153.603315 
L 463.411061 153.482221 
L 464.449845 154.417932 
L 464.709541 156.520557 
L 464.969237 153.779438 
L 465.228933 153.361127 
L 466.00802 147.999982 
L 466.267716 150.058581 
L 466.527412 146.073497 
L 466.787108 146.216612 
L 467.046804 150.98329 
L 467.825892 151.434642 
L 468.345284 156.597625 
L 468.60498 163.158674 
L 468.864676 163.38986 
L 469.643764 161.023025 
L 469.90346 166.846516 
L 470.422851 166.846516 
L 470.682547 165.591549 
L 471.461635 163.015558 
L 471.721331 168.233587 
L 471.981027 165.723654 
L 472.240723 166.868537 
L 472.500419 164.66684 
L 473.279507 164.33659 
L 473.539203 162.993553 
L 473.798899 160.406552 
L 474.058594 159.856128 
L 474.31829 162.652293 
L 475.097378 159.61394 
L 475.357074 160.802858 
L 475.61677 164.479689 
L 475.876466 164.182472 
L 476.136162 167.738209 
L 476.91525 166.20803 
L 477.174946 164.006332 
L 477.434642 171.899416 
L 477.694338 173.90296 
L 477.954034 164.909028 
L 478.733121 159.4378 
L 478.992817 159.019489 
L 479.252513 154.715166 
L 479.512209 153.53725 
L 479.771905 152.953801 
L 480.550993 151.698835 
L 480.810689 148.429312 
L 481.070385 149.122852 
L 481.330081 150.752104 
L 481.589777 147.493601 
L 482.368864 148.561426 
L 482.62856 145.027694 
L 482.888256 147.889907 
L 483.147952 148.297216 
L 483.407648 145.710231 
L 484.186736 144.664412 
L 484.446432 147.119317 
L 484.706128 144.025917 
L 485.22552 143.992893 
L 486.004608 142.903064 
L 486.523999 144.455248 
L 486.783695 144.708455 
L 487.043391 143.673655 
L 487.822479 146.084516 
L 488.082175 143.838775 
L 488.341871 146.436779 
L 488.601567 143.838775 
L 488.861263 143.244324 
L 489.640351 144.928621 
L 490.159742 141.681121 
L 490.419438 143.244324 
L 490.679134 140.437157 
L 491.458222 135.92367 
L 491.717918 136.231923 
L 491.977614 138.070339 
L 492.23731 136.176877 
L 492.497006 136.639232 
L 494.055182 136.683258 
L 494.314877 138.268483 
L 495.353661 140.4812 
L 495.613357 142.08843 
L 495.873053 146.381733 
L 496.132749 145.644166 
L 496.911837 141.39489 
L 497.690925 134.701744 
L 497.950621 135.318217 
L 498.989404 136.925446 
L 499.2491 138.521674 
L 499.768492 134.525604 
L 500.54758 135.142077 
L 501.066972 132.841307 
L 501.326668 131.872555 
L 501.586364 130.364397 
L 502.365451 128.008582 
L 502.625147 130.496494 
L 502.884843 134.679722 
L 503.144539 130.188257 
L 503.404235 116.394624 
L 504.183323 118.045897 
L 504.443019 119.322886 
L 504.702715 117.803709 
L 504.962411 118.563297 
L 505.222107 113.488384 
L 506.001195 115.811176 
L 506.26089 119.884313 
L 506.520586 117.308331 
L 506.780282 118.607324 
L 507.039978 118.92658 
L 508.078762 121.601634 
L 508.338458 119.939358 
L 508.598154 113.345268 
L 508.85785 112.893916 
L 509.636938 113.180148 
L 509.896634 114.49016 
L 510.15633 114.908472 
L 510.416025 110.945426 
L 510.675721 109.33818 
L 511.454809 110.042722 
L 511.714505 113.851666 
L 511.974201 114.523185 
L 512.233897 110.879361 
L 512.493593 112.49761 
L 513.272681 116.229487 
L 513.532377 112.453584 
L 513.792073 111.165593 
L 514.051769 108.754731 
L 514.311464 113.521408 
L 515.090552 113.45536 
L 515.350248 111.892157 
L 515.609944 109.415247 
L 515.86964 109.415247 
L 516.129336 108.622635 
L 516.908424 107.697909 
L 517.16812 109.25011 
L 517.427816 107.565812 
L 517.687512 106.960342 
L 518.726295 106.310846 
L 518.985991 106.619082 
L 519.245687 104.725621 
L 519.505383 107.37867 
L 519.765079 101.797359 
L 520.544167 101.665263 
L 521.063559 100.828624 
L 521.323255 97.415986 
L 521.582951 100.630462 
L 522.362038 103.393603 
L 522.621734 103.723844 
L 523.141126 108.237331 
L 523.400822 113.290223 
L 524.17991 110.428026 
L 524.439606 107.885068 
L 524.958998 114.347045 
L 525.218694 107.796998 
L 525.997782 106.321848 
L 526.257478 112.882914 
L 526.517173 108.479519 
L 526.776869 102.182663 
L 527.036565 100.542392 
L 527.815653 97.80129 
L 528.075349 97.735241 
L 528.335045 98.57188 
L 528.594741 96.920607 
L 528.854437 99.144326 
L 529.633525 100.146086 
L 529.893221 99.595662 
L 530.152917 100.78458 
L 530.412612 103.382584 
L 530.672308 102.204684 
L 531.711092 103.911003 
L 531.970788 103.933008 
L 532.230484 106.222776 
L 532.49018 106.553034 
L 533.528964 105.011852 
L 533.78866 105.154951 
L 534.308052 111.297689 
L 535.087139 109.206083 
L 535.346835 108.105234 
L 535.606531 105.969585 
L 535.866227 101.874427 
L 536.125923 102.645017 
L 536.905011 99.606681 
L 537.164707 99.419539 
L 537.424403 99.793823 
L 537.684099 103.162418 
L 537.943795 103.34956 
L 538.722882 102.909227 
L 538.982578 104.285288 
L 539.50197 100.663486 
L 539.761666 97.382962 
L 540.540754 101.246935 
L 540.80045 100.399293 
L 541.319842 87.728513 
L 541.579538 92.792424 
L 542.358626 88.444075 
L 542.618321 85.361695 
L 542.878017 88.014745 
L 543.397409 85.361695 
L 544.176497 86.143305 
L 544.436193 86.08826 
L 544.695889 85.592881 
L 544.955585 90.810893 
L 545.994369 93.375873 
L 546.254065 93.045615 
L 546.773456 103.250487 
L 547.033152 103.933008 
L 547.81224 104.571503 
L 548.071936 100.322226 
L 548.331632 106.464964 
L 548.591328 107.543791 
L 548.851024 104.626548 
L 549.630112 103.855958 
L 549.889808 105.496211 
L 550.149504 99.694751 
L 550.4092 102.898208 
L 550.668895 120.698947 
L 551.447983 128.272775 
L 551.967375 126.346289 
L 552.227071 123.010719 
L 552.486767 121.755752 
L 553.265855 121.90987 
L 553.525551 118.133967 
L 553.785247 118.277066 
L 554.044943 110.03172 
L 554.304639 110.615168 
L 555.083726 109.33818 
L 555.343422 108.611615 
L 555.603118 107.257576 
L 555.862814 111.638949 
L 556.12251 110.63719 
L 556.901598 112.33249 
L 557.42099 117.506475 
L 557.680686 116.053364 
L 557.940382 109.029943 
L 558.979165 111.506853 
L 559.238861 114.721329 
L 559.498557 109.701462 
L 559.758253 116.856979 
L 560.537341 112.442581 
L 561.316429 99.672729 
L 562.355213 101.995521 
L 562.614908 99.804825 
L 562.874604 100.300221 
L 563.1343 96.513299 
L 563.393996 94.608818 
L 564.173084 92.098884 
L 564.43278 92.010814 
L 564.952172 95.093194 
L 565.211868 98.604904 
L 565.990956 100.410296 
L 566.250652 101.731311 
L 566.510348 102.138636 
L 566.770043 105.220999 
L 567.029739 100.212151 
L 567.808827 106.497988 
L 568.847611 97.669176 
L 569.626699 99.078278 
L 569.886395 98.913141 
L 570.146091 99.793823 
L 570.405787 99.089281 
L 570.665482 97.482034 
L 571.44457 97.393964 
L 571.704266 96.700441 
L 571.963962 102.193665 
L 572.483354 98.759023 
L 573.262442 98.14255 
L 573.781834 93.36487 
L 574.04153 100.333245 
L 574.301226 87.64046 
L 575.080313 90.007278 
L 575.340009 85.91212 
L 575.599705 77.556682 
L 575.859401 74.298162 
L 576.119097 76.356761 
L 576.898185 77.831894 
L 577.157881 75.553129 
L 577.417577 69.839721 
L 577.677273 72.723957 
L 577.936969 82.488479 
L 578.716056 83.490256 
L 578.975752 80.286782 
L 579.235448 82.191246 
L 579.495144 87.145065 
L 579.75484 88.532145 
L 580.533928 83.765468 
L 580.793624 76.709024 
L 581.05332 79.042818 
L 582.3518 73.571598 
L 582.611496 70.566286 
L 582.871191 65.370278 
L 583.130887 62.73925 
L 583.390583 55.605755 
L 584.169671 56.640556 
L 584.429367 57.79645 
L 584.689063 52.050019 
L 585.208455 55.132382 
L 585.987543 49.110754 
L 586.247239 51.070264 
L 586.506935 62.772275 
L 587.026326 57.928547 
L 587.805414 57.774429 
L 588.06511 53.382036 
L 588.584502 55.583734 
L 588.844198 59.216538 
L 589.623286 61.913614 
L 589.882982 64.016239 
L 590.402374 63.102532 
L 590.66207 58.732162 
L 591.441157 54.967261 
L 591.700853 61.021929 
L 591.960549 60.999907 
L 592.479941 64.511618 
L 593.259029 65.04002 
L 593.518725 65.810628 
L 593.778421 59.656871 
L 594.038117 62.618156 
L 594.297813 56.805676 
L 595.336596 51.554623 
L 595.596292 46.820987 
L 595.855988 46.369635 
L 596.115684 46.99711 
L 596.894772 46.369635 
L 597.154468 43.364323 
L 597.414164 44.553224 
L 597.67386 47.228296 
L 597.933556 43.881723 
L 598.712643 44.167937 
L 598.972339 39.06 
L 599.232035 45.543998 
L 599.491731 42.615737 
L 599.751427 53.271961 
L 600.530515 48.879569 
L 600.790211 49.297897 
L 601.049907 53.514149 
L 601.309603 51.928924 
L 601.569299 53.789362 
L 602.608083 56.024083 
L 602.867778 56.046088 
L 603.127474 60.174271 
L 603.38717 67.109621 
L 604.166258 71.3699 
L 604.425954 71.270828 
L 604.68565 69.564509 
L 604.945346 75.740271 
L 605.205042 71.843274 
L 605.98413 79.83543 
L 606.243826 81.178467 
L 606.503522 76.158599 
L 606.763217 84.591105 
L 607.802001 91.372337 
L 608.321393 86.583638 
L 608.581089 92.087882 
L 608.840785 87.618439 
L 609.619873 90.051305 
L 609.879569 93.265781 
L 610.139265 90.271488 
L 610.398961 90.920985 
L 610.658657 89.533905 
L 611.69744 79.075842 
L 611.957136 84.117731 
L 612.216832 83.86454 
L 612.476528 93.375873 
L 613.255616 96.083968 
L 613.515312 93.981343 
L 613.775008 89.754088 
L 614.034704 109.129016 
L 614.2944 117.286309 
L 615.073487 112.596699 
L 615.333183 117.660593 
L 615.592879 95.159242 
L 615.852575 106.035633 
L 616.112271 102.017542 
L 616.891359 105.044876 
L 617.151055 107.830022 
L 617.410751 113.620481 
L 617.670447 115.513942 
L 618.709231 121.337424 
L 619.748014 97.482034 
L 620.786798 99.243399 
L 621.046494 102.512921 
L 621.30619 96.150016 
L 621.565886 96.392204 
L 622.60467 101.863424 
L 623.124061 94.080415 
L 623.383757 93.001588 
L 624.162845 75.850363 
L 624.422541 72.845051 
L 624.682237 74.077996 
L 624.941933 79.670309 
L 625.201629 79.207955 
L 625.980717 78.580463 
L 626.500109 84.12875 
L 626.759805 81.949058 
L 627.0195 84.271849 
L 628.058284 78.734581 
L 628.31798 80.165688 
L 628.577676 79.086861 
L 628.837372 79.846449 
L 629.61646 78.041058 
L 629.876156 79.075842 
L 630.135852 77.402564 
L 630.395548 76.653978 
L 630.655244 70.42317 
L 631.434331 66.669288 
L 631.694027 65.975748 
L 631.953723 70.830495 
L 632.213419 70.786452 
L 632.473115 72.041419 
L 633.252203 67.638024 
L 633.511899 69.047109 
L 633.771595 71.579064 
L 634.290987 74.694468 
L 635.070074 76.037505 
L 635.32977 71.303852 
L 635.589466 72.162513 
L 636.108858 59.711916 
L 636.887946 64.016239 
L 637.147642 62.838323 
L 637.407338 63.43279 
L 637.667034 59.590822 
L 638.705818 59.524774 
L 638.965513 64.049263 
L 639.225209 60.548572 
L 639.484905 60.856808 
L 639.744601 57.818455 
L 640.523689 57.080889 
L 640.783385 56.354324 
L 641.043081 59.83301 
L 641.302777 59.073422 
L 641.562473 56.596512 
L 642.341561 53.106824 
L 642.601257 55.121379 
L 642.860953 54.218692 
L 643.120648 49.881345 
L 643.380344 50.751008 
L 644.159432 49.264873 
L 644.419128 51.224382 
L 644.678824 52.127069 
L 644.93852 47.811744 
L 645.198216 69.124176 
L 645.977304 72.536814 
L 646.237 70.225025 
L 646.496696 60.801763 
L 646.756392 59.899059 
L 647.795175 61.913614 
L 648.054871 61.726472 
L 648.314567 58.324853 
L 648.574263 51.257406 
L 648.833959 51.20236 
L 649.613047 50.695962 
L 650.392135 61.198069 
L 650.651831 53.613222 
L 651.430918 54.603979 
L 651.690614 53.756321 
L 651.95031 53.304985 
L 652.210006 50.574868 
L 652.469702 53.437082 
L 653.508486 57.466192 
L 653.768182 56.750631 
L 653.768182 56.750631 
" clip-path="url(#pb330ffcc47)" style="fill: none; stroke: #1f77b4; stroke-width: 1.5; stroke-linecap: square"/>
   </g>
   <g id="patch_3">
    <path d="M 94.5 224.28 
L 94.5 30.24 
" style="fill: none; stroke: #000000; stroke-width: 0.8; stroke-linejoin: miter; stroke-linecap: square"/>
   </g>
   <g id="patch_4">
    <path d="M 94.5 224.28 
L 680.4 224.28 
" style="fill: none; stroke: #000000; stroke-width: 0.8; stroke-linejoin: miter; stroke-linecap: square"/>
   </g>
  </g>
 </g>
 <defs>
  <clipPath id="pb330ffcc47">
   <rect x="94.5" y="30.24" width="585.9" height="194.04"/>
  </clipPath>
 </defs>
</svg>
