<?xml version="1.0" encoding="utf-8" standalone="no"?>
<!DOCTYPE svg PUBLIC "-//W3C//DTD SVG 1.1//EN"
  "http://www.w3.org/Graphics/SVG/1.1/DTD/svg11.dtd">
<svg xmlns:xlink="http://www.w3.org/1999/xlink" width="756pt" height="252pt" viewBox="0 0 756 252" xmlns="http://www.w3.org/2000/svg" version="1.1">
 <metadata>
  <rdf:RDF xmlns:dc="http://purl.org/dc/elements/1.1/" xmlns:cc="http://creativecommons.org/ns#" xmlns:rdf="http://www.w3.org/1999/02/22-rdf-syntax-ns#">
   <cc:Work>
    <dc:type rdf:resource="http://purl.org/dc/dcmitype/StillImage"/>
    <dc:date>2025-09-05T15:16:53.951392</dc:date>
    <dc:format>image/svg+xml</dc:format>
    <dc:creator>
     <cc:Agent>
      <dc:title>Matplotlib v3.10.5, https://matplotlib.org/</dc:title>
     </cc:Agent>
    </dc:creator>
   </cc:Work>
  </rdf:RDF>
 </metadata>
 <defs>
  <style type="text/css">*{stroke-linejoin: round; stroke-linecap: butt}</style>
 </defs>
 <g id="figure_1">
  <g id="patch_1">
   <path d="M 0 252 
L 756 252 
L 756 0 
L 0 0 
z
" style="fill: #ffffff"/>
  </g>
  <g id="axes_1">
   <g id="patch_2">
    <path d="M 94.5 224.28 
L 680.4 224.28 
L 680.4 30.24 
L 94.5 30.24 
z
" style="fill: #ffffff"/>
   </g>
   <g id="matplotlib.axis_1">
    <g id="xtick_1">
     <g id="line2d_1">
      <defs>
       <path id="m601da862de" d="M 0 0 
L 0 3.5 
" style="stroke: #000000; stroke-width: 0.8"/>
      </defs>
      <g>
       <use xlink:href="#m601da862de" x="115.675543" y="224.28" style="stroke: #000000; stroke-width: 0.8"/>
      </g>
     </g>
     <g id="text_1">
      <!-- 2020 -->
      <g transform="translate(102.950543 238.878438) scale(0.1 -0.1)">
       <defs>
        <path id="DejaVuSans-32" d="M 1228 531 
L 3431 531 
L 3431 0 
L 469 0 
L 469 531 
Q 828 903 1448 1529 
Q 2069 2156 2228 2338 
Q 2531 2678 2651 2914 
Q 2772 3150 2772 3378 
Q 2772 3750 2511 3984 
Q 2250 4219 1831 4219 
Q 1534 4219 1204 4116 
Q 875 4013 500 3803 
L 500 4441 
Q 881 4594 1212 4672 
Q 1544 4750 1819 4750 
Q 2544 4750 2975 4387 
Q 3406 4025 3406 3419 
Q 3406 3131 3298 2873 
Q 3191 2616 2906 2266 
Q 2828 2175 2409 1742 
Q 1991 1309 1228 531 
z
" transform="scale(0.015625)"/>
        <path id="DejaVuSans-30" d="M 2034 4250 
Q 1547 4250 1301 3770 
Q 1056 3291 1056 2328 
Q 1056 1369 1301 889 
Q 1547 409 2034 409 
Q 2525 409 2770 889 
Q 3016 1369 3016 2328 
Q 3016 3291 2770 3770 
Q 2525 4250 2034 4250 
z
M 2034 4750 
Q 2819 4750 3233 4129 
Q 3647 3509 3647 2328 
Q 3647 1150 3233 529 
Q 2819 -91 2034 -91 
Q 1250 -91 836 529 
Q 422 1150 422 2328 
Q 422 3509 836 4129 
Q 1250 4750 2034 4750 
z
" transform="scale(0.015625)"/>
       </defs>
       <use xlink:href="#DejaVuSans-32"/>
       <use xlink:href="#DejaVuSans-30" transform="translate(63.623047 0)"/>
       <use xlink:href="#DejaVuSans-32" transform="translate(127.246094 0)"/>
       <use xlink:href="#DejaVuSans-30" transform="translate(190.869141 0)"/>
      </g>
     </g>
    </g>
    <g id="xtick_2">
     <g id="line2d_2">
      <g>
       <use xlink:href="#m601da862de" x="210.770621" y="224.28" style="stroke: #000000; stroke-width: 0.8"/>
      </g>
     </g>
     <g id="text_2">
      <!-- 2021 -->
      <g transform="translate(198.045621 238.878438) scale(0.1 -0.1)">
       <defs>
        <path id="DejaVuSans-31" d="M 794 531 
L 1825 531 
L 1825 4091 
L 703 3866 
L 703 4441 
L 1819 4666 
L 2450 4666 
L 2450 531 
L 3481 531 
L 3481 0 
L 794 0 
L 794 531 
z
" transform="scale(0.015625)"/>
       </defs>
       <use xlink:href="#DejaVuSans-32"/>
       <use xlink:href="#DejaVuSans-30" transform="translate(63.623047 0)"/>
       <use xlink:href="#DejaVuSans-32" transform="translate(127.246094 0)"/>
       <use xlink:href="#DejaVuSans-31" transform="translate(190.869141 0)"/>
      </g>
     </g>
    </g>
    <g id="xtick_3">
     <g id="line2d_3">
      <g>
       <use xlink:href="#m601da862de" x="305.605876" y="224.28" style="stroke: #000000; stroke-width: 0.8"/>
      </g>
     </g>
     <g id="text_3">
      <!-- 2022 -->
      <g transform="translate(292.880876 238.878438) scale(0.1 -0.1)">
       <use xlink:href="#DejaVuSans-32"/>
       <use xlink:href="#DejaVuSans-30" transform="translate(63.623047 0)"/>
       <use xlink:href="#DejaVuSans-32" transform="translate(127.246094 0)"/>
       <use xlink:href="#DejaVuSans-32" transform="translate(190.869141 0)"/>
      </g>
     </g>
    </g>
    <g id="xtick_4">
     <g id="line2d_4">
      <g>
       <use xlink:href="#m601da862de" x="400.441131" y="224.28" style="stroke: #000000; stroke-width: 0.8"/>
      </g>
     </g>
     <g id="text_4">
      <!-- 2023 -->
      <g transform="translate(387.716131 238.878438) scale(0.1 -0.1)">
       <defs>
        <path id="DejaVuSans-33" d="M 2597 2516 
Q 3050 2419 3304 2112 
Q 3559 1806 3559 1356 
Q 3559 666 3084 287 
Q 2609 -91 1734 -91 
Q 1441 -91 1130 -33 
Q 819 25 488 141 
L 488 750 
Q 750 597 1062 519 
Q 1375 441 1716 441 
Q 2309 441 2620 675 
Q 2931 909 2931 1356 
Q 2931 1769 2642 2001 
Q 2353 2234 1838 2234 
L 1294 2234 
L 1294 2753 
L 1863 2753 
Q 2328 2753 2575 2939 
Q 2822 3125 2822 3475 
Q 2822 3834 2567 4026 
Q 2313 4219 1838 4219 
Q 1578 4219 1281 4162 
Q 984 4106 628 3988 
L 628 4550 
Q 988 4650 1302 4700 
Q 1616 4750 1894 4750 
Q 2613 4750 3031 4423 
Q 3450 4097 3450 3541 
Q 3450 3153 3228 2886 
Q 3006 2619 2597 2516 
z
" transform="scale(0.015625)"/>
       </defs>
       <use xlink:href="#DejaVuSans-32"/>
       <use xlink:href="#DejaVuSans-30" transform="translate(63.623047 0)"/>
       <use xlink:href="#DejaVuSans-32" transform="translate(127.246094 0)"/>
       <use xlink:href="#DejaVuSans-33" transform="translate(190.869141 0)"/>
      </g>
     </g>
    </g>
    <g id="xtick_5">
     <g id="line2d_5">
      <g>
       <use xlink:href="#m601da862de" x="495.276386" y="224.28" style="stroke: #000000; stroke-width: 0.8"/>
      </g>
     </g>
     <g id="text_5">
      <!-- 2024 -->
      <g transform="translate(482.551386 238.878438) scale(0.1 -0.1)">
       <defs>
        <path id="DejaVuSans-34" d="M 2419 4116 
L 825 1625 
L 2419 1625 
L 2419 4116 
z
M 2253 4666 
L 3047 4666 
L 3047 1625 
L 3713 1625 
L 3713 1100 
L 3047 1100 
L 3047 0 
L 2419 0 
L 2419 1100 
L 313 1100 
L 313 1709 
L 2253 4666 
z
" transform="scale(0.015625)"/>
       </defs>
       <use xlink:href="#DejaVuSans-32"/>
       <use xlink:href="#DejaVuSans-30" transform="translate(63.623047 0)"/>
       <use xlink:href="#DejaVuSans-32" transform="translate(127.246094 0)"/>
       <use xlink:href="#DejaVuSans-34" transform="translate(190.869141 0)"/>
      </g>
     </g>
    </g>
    <g id="xtick_6">
     <g id="line2d_6">
      <g>
       <use xlink:href="#m601da862de" x="590.371463" y="224.28" style="stroke: #000000; stroke-width: 0.8"/>
      </g>
     </g>
     <g id="text_6">
      <!-- 2025 -->
      <g transform="translate(577.646463 238.878438) scale(0.1 -0.1)">
       <defs>
        <path id="DejaVuSans-35" d="M 691 4666 
L 3169 4666 
L 3169 4134 
L 1269 4134 
L 1269 2991 
Q 1406 3038 1543 3061 
Q 1681 3084 1819 3084 
Q 2600 3084 3056 2656 
Q 3513 2228 3513 1497 
Q 3513 744 3044 326 
Q 2575 -91 1722 -91 
Q 1428 -91 1123 -41 
Q 819 9 494 109 
L 494 744 
Q 775 591 1075 516 
Q 1375 441 1709 441 
Q 2250 441 2565 725 
Q 2881 1009 2881 1497 
Q 2881 1984 2565 2268 
Q 2250 2553 1709 2553 
Q 1456 2553 1204 2497 
Q 953 2441 691 2322 
L 691 4666 
z
" transform="scale(0.015625)"/>
       </defs>
       <use xlink:href="#DejaVuSans-32"/>
       <use xlink:href="#DejaVuSans-30" transform="translate(63.623047 0)"/>
       <use xlink:href="#DejaVuSans-32" transform="translate(127.246094 0)"/>
       <use xlink:href="#DejaVuSans-35" transform="translate(190.869141 0)"/>
      </g>
     </g>
    </g>
   </g>
   <g id="matplotlib.axis_2">
    <g id="ytick_1">
     <g id="line2d_7">
      <defs>
       <path id="mffee865b92" d="M 0 0 
L -3.5 0 
" style="stroke: #000000; stroke-width: 0.8"/>
      </defs>
      <g>
       <use xlink:href="#mffee865b92" x="94.5" y="217.463544" style="stroke: #000000; stroke-width: 0.8"/>
      </g>
     </g>
     <g id="text_7">
      <!-- 80 -->
      <g transform="translate(74.775 221.262763) scale(0.1 -0.1)">
       <defs>
        <path id="DejaVuSans-38" d="M 2034 2216 
Q 1584 2216 1326 1975 
Q 1069 1734 1069 1313 
Q 1069 891 1326 650 
Q 1584 409 2034 409 
Q 2484 409 2743 651 
Q 3003 894 3003 1313 
Q 3003 1734 2745 1975 
Q 2488 2216 2034 2216 
z
M 1403 2484 
Q 997 2584 770 2862 
Q 544 3141 544 3541 
Q 544 4100 942 4425 
Q 1341 4750 2034 4750 
Q 2731 4750 3128 4425 
Q 3525 4100 3525 3541 
Q 3525 3141 3298 2862 
Q 3072 2584 2669 2484 
Q 3125 2378 3379 2068 
Q 3634 1759 3634 1313 
Q 3634 634 3220 271 
Q 2806 -91 2034 -91 
Q 1263 -91 848 271 
Q 434 634 434 1313 
Q 434 1759 690 2068 
Q 947 2378 1403 2484 
z
M 1172 3481 
Q 1172 3119 1398 2916 
Q 1625 2713 2034 2713 
Q 2441 2713 2670 2916 
Q 2900 3119 2900 3481 
Q 2900 3844 2670 4047 
Q 2441 4250 2034 4250 
Q 1625 4250 1398 4047 
Q 1172 3844 1172 3481 
z
" transform="scale(0.015625)"/>
       </defs>
       <use xlink:href="#DejaVuSans-38"/>
       <use xlink:href="#DejaVuSans-30" transform="translate(63.623047 0)"/>
      </g>
     </g>
    </g>
    <g id="ytick_2">
     <g id="line2d_8">
      <g>
       <use xlink:href="#mffee865b92" x="94.5" y="195.44657" style="stroke: #000000; stroke-width: 0.8"/>
      </g>
     </g>
     <g id="text_8">
      <!-- 100 -->
      <g transform="translate(68.4125 199.245788) scale(0.1 -0.1)">
       <use xlink:href="#DejaVuSans-31"/>
       <use xlink:href="#DejaVuSans-30" transform="translate(63.623047 0)"/>
       <use xlink:href="#DejaVuSans-30" transform="translate(127.246094 0)"/>
      </g>
     </g>
    </g>
    <g id="ytick_3">
     <g id="line2d_9">
      <g>
       <use xlink:href="#mffee865b92" x="94.5" y="173.429595" style="stroke: #000000; stroke-width: 0.8"/>
      </g>
     </g>
     <g id="text_9">
      <!-- 120 -->
      <g transform="translate(68.4125 177.228813) scale(0.1 -0.1)">
       <use xlink:href="#DejaVuSans-31"/>
       <use xlink:href="#DejaVuSans-32" transform="translate(63.623047 0)"/>
       <use xlink:href="#DejaVuSans-30" transform="translate(127.246094 0)"/>
      </g>
     </g>
    </g>
    <g id="ytick_4">
     <g id="line2d_10">
      <g>
       <use xlink:href="#mffee865b92" x="94.5" y="151.41262" style="stroke: #000000; stroke-width: 0.8"/>
      </g>
     </g>
     <g id="text_10">
      <!-- 140 -->
      <g transform="translate(68.4125 155.211839) scale(0.1 -0.1)">
       <use xlink:href="#DejaVuSans-31"/>
       <use xlink:href="#DejaVuSans-34" transform="translate(63.623047 0)"/>
       <use xlink:href="#DejaVuSans-30" transform="translate(127.246094 0)"/>
      </g>
     </g>
    </g>
    <g id="ytick_5">
     <g id="line2d_11">
      <g>
       <use xlink:href="#mffee865b92" x="94.5" y="129.395645" style="stroke: #000000; stroke-width: 0.8"/>
      </g>
     </g>
     <g id="text_11">
      <!-- 160 -->
      <g transform="translate(68.4125 133.194864) scale(0.1 -0.1)">
       <defs>
        <path id="DejaVuSans-36" d="M 2113 2584 
Q 1688 2584 1439 2293 
Q 1191 2003 1191 1497 
Q 1191 994 1439 701 
Q 1688 409 2113 409 
Q 2538 409 2786 701 
Q 3034 994 3034 1497 
Q 3034 2003 2786 2293 
Q 2538 2584 2113 2584 
z
M 3366 4563 
L 3366 3988 
Q 3128 4100 2886 4159 
Q 2644 4219 2406 4219 
Q 1781 4219 1451 3797 
Q 1122 3375 1075 2522 
Q 1259 2794 1537 2939 
Q 1816 3084 2150 3084 
Q 2853 3084 3261 2657 
Q 3669 2231 3669 1497 
Q 3669 778 3244 343 
Q 2819 -91 2113 -91 
Q 1303 -91 875 529 
Q 447 1150 447 2328 
Q 447 3434 972 4092 
Q 1497 4750 2381 4750 
Q 2619 4750 2861 4703 
Q 3103 4656 3366 4563 
z
" transform="scale(0.015625)"/>
       </defs>
       <use xlink:href="#DejaVuSans-31"/>
       <use xlink:href="#DejaVuSans-36" transform="translate(63.623047 0)"/>
       <use xlink:href="#DejaVuSans-30" transform="translate(127.246094 0)"/>
      </g>
     </g>
    </g>
    <g id="ytick_6">
     <g id="line2d_12">
      <g>
       <use xlink:href="#mffee865b92" x="94.5" y="107.37867" style="stroke: #000000; stroke-width: 0.8"/>
      </g>
     </g>
     <g id="text_12">
      <!-- 180 -->
      <g transform="translate(68.4125 111.177889) scale(0.1 -0.1)">
       <use xlink:href="#DejaVuSans-31"/>
       <use xlink:href="#DejaVuSans-38" transform="translate(63.623047 0)"/>
       <use xlink:href="#DejaVuSans-30" transform="translate(127.246094 0)"/>
      </g>
     </g>
    </g>
    <g id="ytick_7">
     <g id="line2d_13">
      <g>
       <use xlink:href="#mffee865b92" x="94.5" y="85.361695" style="stroke: #000000; stroke-width: 0.8"/>
      </g>
     </g>
     <g id="text_13">
      <!-- 200 -->
      <g transform="translate(68.4125 89.160914) scale(0.1 -0.1)">
       <use xlink:href="#DejaVuSans-32"/>
       <use xlink:href="#DejaVuSans-30" transform="translate(63.623047 0)"/>
       <use xlink:href="#DejaVuSans-30" transform="translate(127.246094 0)"/>
      </g>
     </g>
    </g>
    <g id="ytick_8">
     <g id="line2d_14">
      <g>
       <use xlink:href="#mffee865b92" x="94.5" y="63.344721" style="stroke: #000000; stroke-width: 0.8"/>
      </g>
     </g>
     <g id="text_14">
      <!-- 220 -->
      <g transform="translate(68.4125 67.143939) scale(0.1 -0.1)">
       <use xlink:href="#DejaVuSans-32"/>
       <use xlink:href="#DejaVuSans-32" transform="translate(63.623047 0)"/>
       <use xlink:href="#DejaVuSans-30" transform="translate(127.246094 0)"/>
      </g>
     </g>
    </g>
    <g id="ytick_9">
     <g id="line2d_15">
      <g>
       <use xlink:href="#mffee865b92" x="94.5" y="41.327746" style="stroke: #000000; stroke-width: 0.8"/>
      </g>
     </g>
     <g id="text_15">
      <!-- 240 -->
      <g transform="translate(68.4125 45.126964) scale(0.1 -0.1)">
       <use xlink:href="#DejaVuSans-32"/>
       <use xlink:href="#DejaVuSans-34" transform="translate(63.623047 0)"/>
       <use xlink:href="#DejaVuSans-30" transform="translate(127.246094 0)"/>
      </g>
     </g>
    </g>
   </g>
   <g id="line2d_16">
    <path d="M 121.131818 201.641044 
L 121.391641 201.799572 
L 121.651463 203.06224 
L 122.430931 204.895154 
L 122.690754 203.524049 
L 122.950576 203.262594 
L 123.210399 202.564661 
L 123.470222 194.966603 
L 124.24969 195.215392 
L 124.509512 192.712614 
L 124.769335 193.252028 
L 125.029157 192.681791 
L 125.28898 191.082809 
L 126.328271 187.146169 
L 126.588093 186.63978 
L 126.847916 187.19736 
L 127.107738 188.022996 
L 128.147029 186.878113 
L 128.406851 186.077244 
L 128.666674 187.019574 
L 128.926497 190.164147 
L 129.965787 196.947025 
L 130.22561 196.569986 
L 130.485432 201.814984 
L 130.745255 201.845253 
L 131.524723 197.981271 
L 131.784545 200.455981 
L 132.044368 196.776949 
L 132.304191 199.628144 
L 132.564013 200.890821 
L 133.343481 206.421479 
L 133.603304 201.401057 
L 133.863126 205.306873 
L 134.122949 213.246746 
L 134.382772 207.280694 
L 135.162239 212.556515 
L 135.422062 206.023526 
L 135.681885 204.803784 
L 135.941707 202.000471 
L 136.20153 203.918155 
L 136.980998 200.795041 
L 137.24082 198.743615 
L 137.500643 201.730214 
L 137.760466 197.896511 
L 138.020288 200.945312 
L 138.799756 197.430847 
L 139.059579 198.214103 
L 139.319401 200.526984 
L 139.579224 199.914367 
L 139.839047 200.588085 
L 140.618514 195.57922 
L 140.878337 194.808075 
L 141.13816 193.079743 
L 141.397982 193.092954 
L 142.437273 186.151557 
L 142.697095 179.851946 
L 142.956918 178.51111 
L 143.216741 172.978797 
L 143.476563 174.805656 
L 144.256031 173.78132 
L 144.515854 177.386047 
L 145.035499 173.459864 
L 145.295322 172.867059 
L 146.074789 174.75061 
L 146.334612 178.158838 
L 146.594435 174.931705 
L 146.854257 169.356458 
L 147.11408 179.702229 
L 147.893548 178.05371 
L 148.15337 177.954084 
L 148.413193 176.112359 
L 148.932838 174.551911 
L 149.712306 172.934216 
L 149.972129 175.799168 
L 150.231951 175.195352 
L 150.751596 172.891281 
L 151.531064 171.984176 
L 151.790887 170.714352 
L 152.05071 168.038735 
L 152.310532 170.856913 
L 152.570355 171.399628 
L 153.609645 172.226364 
L 154.12929 173.369048 
L 154.389113 171.097447 
L 155.168581 169.519378 
L 155.428404 169.443973 
L 155.688226 169.11427 
L 155.948049 170.094024 
L 156.207871 168.861071 
L 156.987339 166.601027 
L 157.506984 159.809346 
L 157.766807 164.735088 
L 158.02663 165.447341 
L 158.806098 163.924864 
L 159.325743 160.165473 
L 159.585565 159.449911 
L 159.845388 158.29237 
L 160.624856 156.156183 
L 160.884678 153.371575 
L 161.144501 155.023402 
L 161.404324 153.912643 
L 161.664146 157.309323 
L 162.443614 157.996799 
L 162.703437 153.679274 
L 162.963259 147.080783 
L 163.223082 146.442288 
L 164.262373 137.264506 
L 164.522195 140.397531 
L 165.04184 130.351732 
L 165.301663 129.395645 
L 166.340953 135.780571 
L 166.600776 139.91591 
L 166.860599 140.409642 
L 167.120421 142.497401 
L 167.899889 129.569584 
L 168.419534 134.904844 
L 168.679357 141.144454 
L 168.93918 139.913709 
L 169.718647 137.365242 
L 169.97847 140.385974 
L 170.238293 138.558561 
L 170.498115 137.548537 
L 170.757938 131.339751 
L 171.537406 134.245437 
L 171.797228 132.762593 
L 172.057051 129.118787 
L 172.316874 128.019584 
L 172.576696 131.186725 
L 173.356164 132.24904 
L 173.615987 135.963867 
L 173.875809 131.474048 
L 174.135632 131.541205 
L 174.395455 132.25675 
L 175.174922 130.363843 
L 175.434745 123.203925 
L 175.694568 126.066676 
L 175.95439 124.036163 
L 176.214213 124.732458 
L 176.993681 123.480784 
L 177.253503 121.332486 
L 177.513326 116.083633 
L 177.773149 118.387158 
L 178.032971 118.288085 
L 178.812439 115.58219 
L 179.332084 111.151835 
L 179.591907 120.148522 
L 179.851729 124.187527 
L 180.89102 132.156569 
L 181.150843 125.619188 
L 181.670488 134.007095 
L 182.449956 134.736414 
L 182.709778 131.810353 
L 183.489246 142.885997 
L 184.268714 142.579962 
L 184.528537 133.304216 
L 184.788359 140.411843 
L 185.048182 139.31484 
L 185.308004 135.167945 
L 186.087472 130.823997 
L 186.347295 132.429581 
L 186.607118 132.217679 
L 186.86694 128.225439 
L 187.126763 133.523828 
L 187.906231 129.439672 
L 188.166053 134.902089 
L 188.425876 129.632878 
L 188.685698 129.9158 
L 188.945521 124.626213 
L 189.724989 116.024186 
L 189.984812 115.985652 
L 190.244634 120.384646 
L 190.504457 121.764017 
L 190.764279 125.393512 
L 191.543747 128.998785 
L 191.80357 128.459379 
L 192.063392 130.224591 
L 192.323215 130.694638 
L 192.583038 129.153457 
L 193.362506 129.008141 
L 193.622328 124.643834 
L 193.882151 131.444316 
L 194.141973 128.789621 
L 194.401796 138.414354 
L 195.181264 140.157543 
L 195.441086 137.739526 
L 195.700909 127.1301 
L 195.960732 122.680461 
L 196.220554 123.265572 
L 197.000022 132.492336 
L 197.259845 138.476539 
L 197.519667 132.841845 
L 197.77949 134.334044 
L 198.039313 133.31411 
L 198.81878 133.190278 
L 199.078603 132.93707 
L 199.338426 134.599363 
L 199.598248 133.963069 
L 199.858071 134.932913 
L 200.637539 134.988513 
L 200.897361 133.905822 
L 201.157184 130.217435 
L 201.676829 129.652145 
L 202.456297 131.154809 
L 202.71612 128.290395 
L 203.235765 130.126056 
L 203.495588 131.455335 
L 204.275055 131.707434 
L 204.534878 130.645657 
L 204.794701 134.668703 
L 205.054523 134.817883 
L 206.093814 131.764126 
L 206.353636 131.315529 
L 206.613459 127.141102 
L 206.873282 127.409713 
L 207.133104 129.30482 
L 208.172395 129.036764 
L 208.69204 130.898847 
L 209.991153 122.680461 
L 210.510798 126.262083 
L 211.550089 130.131566 
L 211.809911 128.376802 
L 212.069734 132.787353 
L 212.589379 130.347885 
L 213.368847 134.117741 
L 213.62867 133.75335 
L 213.888492 131.273148 
L 214.408137 134.665965 
L 215.447428 133.757214 
L 215.707251 125.907048 
L 215.967073 123.506652 
L 216.226896 124.319086 
L 217.006364 124.221659 
L 217.266186 122.453139 
L 217.526009 127.602365 
L 217.785831 127.324952 
L 218.045654 129.054385 
L 219.084945 119.488006 
L 219.344767 123.201725 
L 219.864412 121.02094 
L 220.64388 122.628724 
L 221.423348 125.975851 
L 221.683171 125.118299 
L 222.722461 125.600475 
L 222.982284 123.415827 
L 223.242106 122.337554 
L 223.501929 126.649033 
L 224.281397 130.45576 
L 224.54122 129.698372 
L 224.801042 131.623211 
L 225.060865 137.257905 
L 225.320687 135.289039 
L 226.100155 132.360223 
L 226.359978 135.200969 
L 226.6198 140.12892 
L 226.879623 141.638741 
L 227.139446 140.378818 
L 227.918914 143.048918 
L 228.178736 136.944713 
L 228.438559 137.231482 
L 228.698381 134.151857 
L 228.958204 135.478382 
L 229.737672 135.908267 
L 229.997494 135.347932 
L 230.257317 132.933224 
L 230.51714 138.863488 
L 230.776962 136.27815 
L 231.55643 134.301574 
L 231.816253 132.835797 
L 232.335898 137.857865 
L 232.595721 137.540273 
L 233.375188 136.23577 
L 233.635011 137.360841 
L 233.894834 135.225746 
L 234.154656 131.542297 
L 235.193947 127.924358 
L 235.453769 128.084541 
L 235.713592 125.025829 
L 235.973415 123.929935 
L 236.233237 119.917337 
L 237.012705 119.521585 
L 237.272528 118.387158 
L 237.53235 122.075008 
L 237.792173 119.538097 
L 238.051996 118.417981 
L 238.831463 119.927802 
L 239.091286 121.981982 
L 239.351109 120.477672 
L 239.610931 123.393822 
L 239.870754 121.64126 
L 240.650222 117.891779 
L 240.910044 117.427762 
L 241.169867 115.167172 
L 241.42969 114.462075 
L 241.689512 114.676194 
L 242.46898 119.130788 
L 242.728803 123.238041 
L 242.988625 125.512959 
L 243.248448 123.540785 
L 243.508271 124.353201 
L 244.287738 129.919092 
L 244.547561 128.079585 
L 244.807384 132.040984 
L 245.067206 131.516428 
L 245.327029 128.135169 
L 246.106497 125.521207 
L 246.366319 127.618877 
L 246.626142 127.6453 
L 246.885965 126.771219 
L 247.145787 129.226107 
L 248.185078 126.14539 
L 248.4449 125.809085 
L 248.704723 127.738325 
L 248.964545 128.125812 
L 250.003836 128.369109 
L 250.263659 127.52476 
L 250.523481 130.110652 
L 250.783304 129.053276 
L 251.562772 129.505182 
L 251.822594 125.866868 
L 252.082417 124.928957 
L 252.342239 121.158546 
L 252.602062 121.313756 
L 253.38153 119.274996 
L 253.641353 119.31573 
L 253.901175 117.547764 
L 254.160998 113.475164 
L 254.42082 113.603969 
L 255.200288 115.41707 
L 255.460111 112.58348 
L 255.719933 112.672658 
L 256.239579 118.306798 
L 257.019047 115.971341 
L 257.278869 115.737417 
L 257.798514 116.57241 
L 258.058337 112.278552 
L 259.097627 103.209753 
L 259.35745 102.062677 
L 259.617273 100.145548 
L 259.877095 100.809911 
L 260.656563 100.853383 
L 260.916386 103.120591 
L 261.176208 102.882804 
L 261.695854 108.830136 
L 262.475322 110.153351 
L 262.735144 108.854358 
L 262.994967 108.193304 
L 263.254789 105.285401 
L 263.514612 104.261066 
L 264.29408 101.884337 
L 264.553902 105.926096 
L 264.813725 105.709776 
L 265.073548 107.383071 
L 265.33337 122.372779 
L 266.112838 122.15866 
L 266.372661 120.245394 
L 266.632483 120.879488 
L 266.892306 119.708727 
L 267.152129 121.417801 
L 267.931596 121.586768 
L 268.451242 124.325687 
L 268.711064 123.698749 
L 268.970887 124.223305 
L 269.750355 123.947001 
L 270.27 129.328488 
L 270.529823 130.069918 
L 270.789645 129.3984 
L 271.569113 125.769997 
L 271.828936 123.573254 
L 272.088758 123.936537 
L 272.348581 123.010719 
L 272.608404 121.159638 
L 273.387871 117.199885 
L 273.647694 114.490698 
L 273.907517 114.038808 
L 274.167339 114.912873 
L 274.427162 114.091099 
L 275.466452 112.371578 
L 275.726275 111.479338 
L 275.986098 113.754794 
L 276.24592 114.580968 
L 277.025388 115.240376 
L 277.285211 115.635036 
L 277.545033 114.215486 
L 277.804856 113.53021 
L 278.064678 114.945897 
L 278.844146 120.823887 
L 279.103969 121.489896 
L 279.623614 117.506475 
L 279.883437 116.982474 
L 280.662905 118.067919 
L 280.922727 123.012919 
L 281.442373 124.714837 
L 281.702195 124.812818 
L 282.481663 129.958181 
L 283.001308 125.98247 
L 283.261131 123.757642 
L 284.300421 126.847178 
L 284.560244 126.790486 
L 284.820067 124.756663 
L 285.079889 123.899111 
L 285.339712 117.89067 
L 286.11918 115.814468 
L 286.379002 115.957029 
L 286.638825 117.558212 
L 286.898647 116.460118 
L 287.15847 121.934647 
L 287.937938 122.770194 
L 288.197761 119.704326 
L 288.457583 118.80053 
L 288.717406 115.823824 
L 288.977228 119.904671 
L 289.756696 122.89458 
L 290.016519 123.189614 
L 290.795987 111.837665 
L 291.575455 113.489476 
L 291.835277 108.687037 
L 292.0951 113.870933 
L 292.354922 114.396581 
L 292.614745 111.498589 
L 293.394213 110.368579 
L 293.654035 110.642683 
L 293.913858 110.185838 
L 294.173681 102.091301 
L 294.433503 103.164064 
L 295.212971 108.888491 
L 295.472794 108.477318 
L 295.732616 108.45696 
L 296.252262 112.631924 
L 297.031729 109.493944 
L 297.551375 115.980697 
L 297.811197 116.330776 
L 298.07102 118.949139 
L 298.850488 116.880646 
L 299.11031 111.60097 
L 299.370133 111.608126 
L 299.889778 115.952074 
L 300.669246 118.863269 
L 300.929069 119.387271 
L 301.188891 114.737841 
L 301.448714 119.630013 
L 301.708537 118.367891 
L 302.488004 121.602743 
L 302.747827 117.928096 
L 303.00765 117.245575 
L 303.267472 117.210904 
L 304.306763 118.750994 
L 304.566585 117.659502 
L 304.826408 119.266731 
L 305.086231 119.879357 
L 305.346053 122.001249 
L 306.125521 117.94187 
L 306.645166 124.599253 
L 307.164812 126.584076 
L 307.944279 127.759792 
L 308.204102 123.492895 
L 308.463925 123.663525 
L 308.723747 128.05921 
L 308.98357 127.04203 
L 310.02286 130.587319 
L 310.282683 133.469891 
L 310.542506 138.568472 
L 310.802328 148.503071 
L 311.581796 146.410356 
L 311.841619 151.42804 
L 312.101441 152.65383 
L 312.361264 151.811681 
L 312.621086 147.033447 
L 313.660377 139.090273 
L 313.9202 139.729859 
L 314.180022 152.683545 
L 314.439845 131.994203 
L 315.219313 131.668346 
L 315.479135 127.839598 
L 315.738958 128.086187 
L 315.99878 130.492647 
L 316.258603 136.778484 
L 317.038071 134.716039 
L 317.557716 131.486713 
L 318.077361 137.540273 
L 319.116652 140.186721 
L 319.376475 146.098828 
L 319.636297 138.909178 
L 319.89612 136.233569 
L 320.675588 136.481804 
L 320.93541 139.146965 
L 321.195233 138.144634 
L 321.455055 142.717568 
L 321.714878 145.202725 
L 322.494346 154.216478 
L 322.754169 155.800057 
L 323.013991 152.206324 
L 323.273814 143.907578 
L 324.313104 149.372751 
L 325.092572 132.43509 
L 325.352395 128.01903 
L 326.131863 127.753728 
L 326.391685 124.013587 
L 326.651508 125.643947 
L 326.91133 125.378091 
L 327.171153 124.140745 
L 327.950621 119.498471 
L 328.210443 119.141236 
L 328.730089 126.095854 
L 328.989911 125.476626 
L 329.769379 120.207415 
L 330.289024 130.765105 
L 330.548847 131.834575 
L 330.80867 135.493802 
L 331.588137 139.168987 
L 331.84796 139.537207 
L 332.107783 134.304329 
L 332.367605 138.525537 
L 333.406896 137.338265 
L 333.666718 131.470201 
L 334.446186 146.623921 
L 335.225654 144.726059 
L 335.485477 152.08303 
L 335.745299 153.430467 
L 336.005122 146.352572 
L 336.264945 168.716309 
L 337.044412 168.475775 
L 337.304235 168.747133 
L 337.564058 166.903216 
L 337.82388 177.384947 
L 338.083703 179.184283 
L 338.863171 185.771208 
L 339.122993 185.694149 
L 339.382816 189.532808 
L 339.642639 187.817142 
L 339.902461 181.074989 
L 340.681929 183.545843 
L 340.941752 178.528176 
L 341.201574 187.61678 
L 341.72122 187.090023 
L 342.500687 187.127456 
L 342.76051 190.933091 
L 343.020333 187.988318 
L 343.539978 178.772564 
L 344.839091 171.575768 
L 345.098914 167.362816 
L 345.358736 170.842602 
L 346.138204 168.156528 
L 346.657849 172.130593 
L 347.177494 184.823378 
L 348.216785 192.903612 
L 348.476608 187.003062 
L 348.73643 191.417459 
L 348.996253 188.599289 
L 350.035543 185.891202 
L 350.295366 185.593977 
L 350.815011 177.3266 
L 351.594479 180.893348 
L 351.854302 187.300287 
L 352.114124 185.627001 
L 352.373947 188.6103 
L 352.633769 184.922458 
L 353.932882 179.671405 
L 354.192705 177.469708 
L 354.452528 178.339379 
L 355.231996 182.511597 
L 355.491818 185.296743 
L 355.751641 183.997741 
L 356.011463 183.74455 
L 356.271286 180.530066 
L 357.050754 180.298889 
L 357.570399 170.380247 
L 357.830222 168.332668 
L 358.090044 170.765543 
L 358.869512 172.174628 
L 359.129335 179.143002 
L 359.389157 172.36177 
L 359.64898 170.919661 
L 359.908803 156.971909 
L 360.688271 156.487533 
L 360.948093 157.841572 
L 361.207916 151.941023 
L 361.467738 148.583431 
L 361.727561 150.531938 
L 362.507029 152.062117 
L 362.766851 153.80146 
L 363.026674 148.451334 
L 363.286497 150.708077 
L 363.546319 147.504603 
L 364.325787 147.911929 
L 364.58561 146.150564 
L 364.845432 149.100831 
L 365.105255 148.880664 
L 365.365078 153.361127 
L 366.144545 158.876373 
L 366.404368 158.43604 
L 366.664191 158.237879 
L 366.924013 154.40693 
L 367.183836 161.595471 
L 367.963304 162.652293 
L 368.223126 163.81919 
L 368.482949 165.976852 
L 368.742772 164.820958 
L 370.041885 166.703408 
L 370.301707 162.993553 
L 370.56153 162.619252 
L 370.821353 158.821327 
L 371.60082 155.320636 
L 371.860643 165.921807 
L 372.120466 164.017335 
L 372.640111 169.5436 
L 373.419579 168.299636 
L 373.679401 171.018733 
L 373.939224 175.036833 
L 374.199047 176.390881 
L 374.458869 180.276875 
L 375.238337 178.768709 
L 375.49816 179.583335 
L 375.757982 175.620281 
L 376.017805 179.154005 
L 376.277627 181.135536 
L 377.057095 177.965095 
L 377.316918 172.229674 
L 377.576741 172.383792 
L 377.836563 173.099337 
L 378.096386 179.418215 
L 378.875854 180.397969 
L 379.135676 182.005207 
L 379.395499 181.245619 
L 379.655322 181.652936 
L 379.915144 187.850712 
L 380.954435 177.436683 
L 381.214257 178.856779 
L 381.47408 178.658626 
L 381.733902 174.178172 
L 382.51337 173.627748 
L 382.773193 172.769087 
L 383.292838 183.381268 
L 383.552661 191.692671 
L 384.332129 192.760496 
L 384.851774 204.121255 
L 385.111596 207.225648 
L 385.371419 205.376221 
L 386.150887 205.871608 
L 386.41071 206.47707 
L 386.670532 210.704334 
L 386.930355 199.156433 
L 387.190177 194.576898 
L 387.969645 197.108853 
L 388.229468 196.613467 
L 389.008936 201.897544 
L 389.788404 203.74697 
L 390.308049 201.908555 
L 390.827694 202.701159 
L 391.607162 202.106708 
L 391.866984 203.791005 
L 392.126807 199.255505 
L 393.42592 205.343197 
L 393.685743 208.381542 
L 393.945565 208.150365 
L 394.205388 206.069762 
L 394.465211 207.456833 
L 395.244678 205.849587 
L 395.504501 203.713946 
L 395.764324 204.715714 
L 396.024146 208.161376 
L 396.283969 208.810873 
L 397.063437 212.047371 
L 397.323259 211.750137 
L 397.583082 210.010802 
L 397.842905 213.291327 
L 398.102727 211.684088 
L 399.142018 214.116963 
L 399.40184 215.46 
L 399.661663 212.861996 
L 399.921486 213.060149 
L 400.960776 211.056605 
L 401.220599 211.805183 
L 401.480421 214.028893 
L 401.740244 210.770382 
L 402.519712 209.361297 
L 402.779534 206.598164 
L 403.039357 200.851741 
L 403.29918 200.653588 
L 403.559002 197.516162 
L 404.858115 200.444424 
L 405.117938 202.403933 
L 405.377761 198.473904 
L 406.157228 198.176678 
L 406.417051 199.497693 
L 406.676874 198.550963 
L 406.936696 196.30523 
L 407.196519 192.980671 
L 407.975987 194.841099 
L 408.495632 189.777197 
L 408.755455 181.234608 
L 409.015277 191.714693 
L 409.794745 193.046719 
L 410.054568 193.123778 
L 410.574213 197.384066 
L 410.834035 198.077597 
L 411.613503 195.952959 
L 411.873326 195.776828 
L 412.133149 194.169581 
L 412.392971 197.483138 
L 412.652794 198.528949 
L 413.692084 201.413168 
L 413.951907 200.081142 
L 414.211729 200.048118 
L 414.471552 202.602086 
L 415.25102 202.315863 
L 415.510843 201.798463 
L 415.770665 204.066217 
L 416.030488 204.110252 
L 416.29031 201.060896 
L 417.329601 202.547041 
L 417.589424 202.139732 
L 418.109069 205.651434 
L 418.888537 203.779994 
L 419.148359 201.082918 
L 419.408182 199.629798 
L 419.668004 195.402535 
L 419.927827 196.602464 
L 420.707295 197.967514 
L 420.967118 194.775051 
L 421.22694 196.877676 
L 421.486763 196.866665 
L 421.746585 197.50516 
L 422.526053 197.604232 
L 422.785876 198.484914 
L 423.305521 193.244872 
L 423.565344 191.824776 
L 424.344812 192.79352 
L 424.604634 191.09822 
L 424.864457 194.235638 
L 425.124279 193.178824 
L 426.16357 193.05773 
L 426.683215 197.835409 
L 426.943038 192.804531 
L 427.982328 192.430246 
L 428.242151 192.914614 
L 428.501973 190.712917 
L 428.761796 191.252339 
L 429.021619 187.784663 
L 429.801086 188.6103 
L 430.060909 192.617389 
L 430.320732 189.964339 
L 430.580554 184.636235 
L 430.840377 189.446947 
L 431.619845 193.189826 
L 431.879667 191.450492 
L 432.13949 191.42847 
L 432.399313 191.043175 
L 432.659135 189.215762 
L 433.438603 189.028619 
L 433.698426 188.158948 
L 433.958248 184.228918 
L 434.218071 182.038232 
L 434.477894 184.151859 
L 435.257361 183.117067 
L 436.036829 175.466163 
L 436.296652 177.557777 
L 437.07612 178.922828 
L 437.335942 178.944849 
L 437.595765 177.007353 
L 437.855588 178.933838 
L 438.11541 173.308501 
L 439.154701 171.602182 
L 439.414523 172.7911 
L 439.934169 168.750988 
L 440.713636 167.595093 
L 440.973459 166.152984 
L 441.233282 172.075547 
L 441.493104 168.750988 
L 441.752927 169.653683 
L 442.532395 166.197019 
L 442.792217 166.097938 
L 443.05204 166.362148 
L 443.311863 165.602559 
L 443.571685 167.385937 
L 444.610976 167.06669 
L 444.870798 168.112493 
L 445.130621 162.255987 
L 445.390443 163.158674 
L 446.169911 165.360371 
L 446.429734 163.323811 
L 446.689557 163.477929 
L 446.949379 164.732888 
L 447.209202 162.024801 
L 447.98867 162.178919 
L 448.508315 162.002779 
L 448.768137 164.226499 
L 449.02796 162.663295 
L 449.807428 165.580546 
L 450.327073 161.540425 
L 450.586896 157.687454 
L 450.846718 157.269143 
L 451.626186 158.502088 
L 451.886009 159.305703 
L 452.145831 156.520557 
L 452.405654 162.465134 
L 452.665477 162.421107 
L 453.444945 163.742122 
L 453.704767 163.37884 
L 453.96459 164.457684 
L 454.224412 164.347593 
L 454.484235 159.988224 
L 455.263703 158.369992 
L 455.523525 160.56067 
L 455.783348 164.391619 
L 456.043171 163.621028 
L 456.302993 151.885977 
L 457.082461 148.968734 
L 457.602106 153.779438 
L 457.861929 152.997845 
L 458.121752 153.162965 
L 458.90122 150.785128 
L 459.420865 156.839796 
L 459.94051 158.876373 
L 460.719978 157.269143 
L 460.9798 157.7425 
L 461.239623 156.344418 
L 461.499446 160.39555 
L 461.759268 158.832346 
L 462.538736 158.964443 
L 462.798559 157.015936 
L 463.058381 156.839796 
L 463.318204 153.603315 
L 463.578027 153.482221 
L 464.617317 154.417932 
L 464.87714 156.520557 
L 465.136962 153.779438 
L 465.396785 153.361127 
L 466.176253 147.999982 
L 466.436075 150.058581 
L 466.695898 146.073497 
L 466.955721 146.216612 
L 467.215543 150.98329 
L 467.995011 151.434642 
L 468.514656 156.597625 
L 468.774479 163.158674 
L 469.034302 163.38986 
L 469.813769 161.023025 
L 470.073592 166.846516 
L 470.593237 166.846516 
L 470.85306 165.591549 
L 471.632528 163.015558 
L 471.89235 168.233587 
L 472.152173 165.723654 
L 472.411996 166.868537 
L 472.671818 164.66684 
L 473.451286 164.33659 
L 473.711109 162.993553 
L 473.970931 160.406552 
L 474.230754 159.856128 
L 474.490576 162.652293 
L 475.270044 159.61394 
L 475.529867 160.802858 
L 475.78969 164.479689 
L 476.049512 164.182472 
L 476.309335 167.738209 
L 477.088803 166.20803 
L 477.348625 164.006332 
L 477.608448 171.899416 
L 477.868271 173.90296 
L 478.128093 164.909028 
L 478.907561 159.4378 
L 479.167384 159.019489 
L 479.427206 154.715166 
L 479.687029 153.53725 
L 479.946851 152.953801 
L 480.726319 151.698835 
L 480.986142 148.429312 
L 481.245965 149.122852 
L 481.505787 150.752104 
L 481.76561 147.493601 
L 482.545078 148.561426 
L 482.8049 145.027694 
L 483.064723 147.889907 
L 483.324545 148.297216 
L 483.584368 145.710231 
L 484.363836 144.664412 
L 484.623659 147.119317 
L 484.883481 144.025917 
L 485.403126 143.992893 
L 486.182594 142.903064 
L 486.702239 144.455248 
L 486.962062 144.708455 
L 487.221885 143.673655 
L 488.001353 146.084516 
L 488.261175 143.838775 
L 488.520998 146.436779 
L 488.78082 143.838775 
L 489.040643 143.244324 
L 489.820111 144.928621 
L 490.339756 141.681121 
L 490.599579 143.244324 
L 490.859401 140.437157 
L 491.638869 135.92367 
L 491.898692 136.231923 
L 492.158514 138.070339 
L 492.418337 136.176877 
L 492.67816 136.639232 
L 494.237095 136.683258 
L 494.496918 138.268483 
L 495.536208 140.4812 
L 495.796031 142.08843 
L 496.055854 146.381733 
L 496.315676 145.644166 
L 497.095144 141.39489 
L 497.874612 134.701744 
L 498.134435 135.318217 
L 499.173725 136.925446 
L 499.433548 138.521674 
L 499.953193 134.525604 
L 500.732661 135.142077 
L 501.252306 132.841307 
L 501.512129 131.872555 
L 501.771951 130.364397 
L 502.551419 128.008582 
L 502.811242 130.496494 
L 503.071064 134.679722 
L 503.330887 130.188257 
L 503.59071 116.394624 
L 504.370177 118.045897 
L 504.63 119.322886 
L 504.889823 117.803709 
L 505.149645 118.563297 
L 505.409468 113.488384 
L 506.188936 115.811176 
L 506.448758 119.884313 
L 506.708581 117.308331 
L 506.968404 118.607324 
L 507.228226 118.92658 
L 508.267517 121.601634 
L 508.527339 119.939358 
L 508.787162 113.345268 
L 509.046984 112.893916 
L 509.826452 113.180148 
L 510.086275 114.49016 
L 510.346098 114.908472 
L 510.60592 110.945426 
L 510.865743 109.33818 
L 511.645211 110.042722 
L 511.905033 113.851666 
L 512.164856 114.523185 
L 512.424678 110.879361 
L 512.684501 112.49761 
L 513.463969 116.229487 
L 513.723792 112.453584 
L 513.983614 111.165593 
L 514.243437 108.754731 
L 514.503259 113.521408 
L 515.282727 113.45536 
L 515.54255 111.892157 
L 515.802373 109.415247 
L 516.062195 109.415247 
L 516.322018 108.622635 
L 517.101486 107.697909 
L 517.361308 109.25011 
L 517.621131 107.565812 
L 517.880953 106.960342 
L 518.920244 106.310846 
L 519.180067 106.619082 
L 519.439889 104.725621 
L 519.699712 107.37867 
L 519.959534 101.797359 
L 520.739002 101.665263 
L 521.258647 100.828624 
L 521.51847 97.415986 
L 521.778293 100.630462 
L 522.557761 103.393603 
L 522.817583 103.723844 
L 523.337228 108.237331 
L 523.597051 113.290223 
L 524.376519 110.428026 
L 524.636341 107.885068 
L 525.155987 114.347045 
L 525.415809 107.796998 
L 526.195277 106.321848 
L 526.4551 112.882914 
L 526.714922 108.479519 
L 526.974745 102.182663 
L 527.234568 100.542392 
L 528.014035 97.80129 
L 528.273858 97.735241 
L 528.533681 98.57188 
L 528.793503 96.920607 
L 529.053326 99.144326 
L 529.832794 100.146086 
L 530.092616 99.595662 
L 530.352439 100.78458 
L 530.612262 103.382584 
L 530.872084 102.204684 
L 531.911375 103.911003 
L 532.171197 103.933008 
L 532.43102 106.222776 
L 532.690843 106.553034 
L 533.730133 105.011852 
L 533.989956 105.154951 
L 534.509601 111.297689 
L 535.289069 109.206083 
L 535.548891 108.105234 
L 535.808714 105.969585 
L 536.068537 101.874427 
L 536.328359 102.645017 
L 537.107827 99.606681 
L 537.36765 99.419539 
L 537.627472 99.793823 
L 537.887295 103.162418 
L 538.147118 103.34956 
L 538.926585 102.909227 
L 539.186408 104.285288 
L 539.706053 100.663486 
L 539.965876 97.382962 
L 540.745344 101.246935 
L 541.005166 100.399293 
L 541.524812 87.728513 
L 541.784634 92.792424 
L 542.564102 88.444075 
L 542.823925 85.361695 
L 543.083747 88.014745 
L 543.603392 85.361695 
L 544.38286 86.143305 
L 544.642683 86.08826 
L 544.902506 85.592881 
L 545.162328 90.810893 
L 546.201619 93.375873 
L 546.461441 93.045615 
L 546.981086 103.250487 
L 547.240909 103.933008 
L 548.020377 104.571503 
L 548.2802 100.322226 
L 548.540022 106.464964 
L 548.799845 107.543791 
L 549.059667 104.626548 
L 549.839135 103.855958 
L 550.098958 105.496211 
L 550.35878 99.694751 
L 550.618603 102.898208 
L 550.878426 120.698947 
L 551.657894 128.272775 
L 552.177539 126.346289 
L 552.437361 123.010719 
L 552.697184 121.755752 
L 553.476652 121.90987 
L 553.736475 118.133967 
L 553.996297 118.277066 
L 554.25612 110.03172 
L 554.515942 110.615168 
L 555.29541 109.33818 
L 555.555233 108.611615 
L 555.815055 107.257576 
L 556.074878 111.638949 
L 556.334701 110.63719 
L 557.114169 112.33249 
L 557.633814 117.506475 
L 557.893636 116.053364 
L 558.153459 109.029943 
L 559.192749 111.506853 
L 559.452572 114.721329 
L 559.712395 109.701462 
L 559.972217 116.856979 
L 560.751685 112.442581 
L 561.531153 99.672729 
L 562.570443 101.995521 
L 562.830266 99.804825 
L 563.090089 100.300221 
L 563.349911 96.513299 
L 563.609734 94.608818 
L 564.389202 92.098884 
L 564.649024 92.010814 
L 565.16867 95.093194 
L 565.428492 98.604904 
L 566.20796 100.410296 
L 566.467783 101.731311 
L 566.727605 102.138636 
L 566.987428 105.220999 
L 567.247251 100.212151 
L 568.026718 106.497988 
L 569.066009 97.669176 
L 569.845477 99.078278 
L 570.105299 98.913141 
L 570.365122 99.793823 
L 570.624945 99.089281 
L 570.884767 97.482034 
L 571.664235 97.393964 
L 571.924058 96.700441 
L 572.18388 102.193665 
L 572.703525 98.759023 
L 573.482993 98.14255 
L 574.002639 93.36487 
L 574.262461 100.333245 
L 574.522284 87.64046 
L 575.301752 90.007278 
L 575.561574 85.91212 
L 575.821397 77.556682 
L 576.08122 74.298162 
L 576.341042 76.356761 
L 577.12051 77.831894 
L 577.380333 75.553129 
L 577.640155 69.839721 
L 577.899978 72.723957 
L 578.1598 82.488479 
L 578.939268 83.490256 
L 579.199091 80.286782 
L 579.458914 82.191246 
L 579.718736 87.145065 
L 579.978559 88.532145 
L 580.758027 83.765468 
L 581.017849 76.709024 
L 581.277672 79.042818 
L 582.576785 73.571598 
L 582.836608 70.566286 
L 583.09643 65.370278 
L 583.356253 62.73925 
L 583.616075 55.605755 
L 584.395543 56.640556 
L 584.655366 57.79645 
L 584.915188 52.050019 
L 585.434834 55.132382 
L 586.214302 49.110754 
L 586.474124 51.070264 
L 586.733947 62.772275 
L 587.253592 57.928547 
L 588.03306 57.774429 
L 588.292882 53.382036 
L 588.812528 55.583734 
L 589.07235 59.216538 
L 589.851818 61.913614 
L 590.111641 64.016239 
L 590.631286 63.102532 
L 590.891109 58.732162 
L 591.670576 54.967261 
L 591.930399 61.021929 
L 592.190222 60.999907 
L 592.709867 64.511618 
L 593.489335 65.04002 
L 593.749157 65.810628 
L 594.00898 59.656871 
L 594.268803 62.618156 
L 594.528625 56.805676 
L 595.567916 51.554623 
L 595.827738 46.820987 
L 596.087561 46.369635 
L 596.347384 46.99711 
L 597.126851 46.369635 
L 597.386674 43.364323 
L 597.646497 44.553224 
L 597.906319 47.228296 
L 598.166142 43.881723 
L 598.94561 44.167937 
L 599.205432 39.06 
L 599.465255 45.543998 
L 599.725078 42.615737 
L 599.9849 53.271961 
L 600.764368 48.879569 
L 601.024191 49.297897 
L 601.284013 53.514149 
L 601.543836 51.928924 
L 601.803659 53.789362 
L 602.842949 56.024083 
L 603.102772 56.046088 
L 603.362594 60.174271 
L 603.622417 67.109621 
L 604.401885 71.3699 
L 604.661707 71.270828 
L 604.92153 69.564509 
L 605.181353 75.740271 
L 605.441175 71.843274 
L 606.220643 79.83543 
L 606.480466 81.178467 
L 606.740288 76.158599 
L 607.000111 84.591105 
L 608.039401 91.372337 
L 608.559047 86.583638 
L 608.818869 92.087882 
L 609.078692 87.618439 
L 609.85816 90.051305 
L 610.117982 93.265781 
L 610.377805 90.271488 
L 610.637627 90.920985 
L 610.89745 89.533905 
L 611.936741 79.075842 
L 612.196563 84.117731 
L 612.456386 83.86454 
L 612.716208 93.375873 
L 613.495676 96.083968 
L 613.755499 93.981343 
L 614.015322 89.754088 
L 614.275144 109.129016 
L 614.534967 117.286309 
L 615.314435 112.596699 
L 615.574257 117.660593 
L 615.83408 95.159242 
L 616.093902 106.035633 
L 616.353725 102.017542 
L 617.133193 105.044876 
L 617.393016 107.830022 
L 617.652838 113.620481 
L 617.912661 115.513942 
L 618.951951 121.337424 
L 619.991242 97.482034 
L 621.030532 99.243399 
L 621.290355 102.512921 
L 621.550177 96.150016 
L 621.81 96.392204 
L 622.84929 101.863424 
L 623.368936 94.080415 
L 623.628758 93.001588 
L 624.408226 75.850363 
L 624.668049 72.845051 
L 624.927871 74.077996 
L 625.187694 79.670309 
L 625.447517 79.207955 
L 626.226984 78.580463 
L 626.74663 84.12875 
L 627.006452 81.949058 
L 627.266275 84.271849 
L 628.305565 78.734581 
L 628.565388 80.165688 
L 628.825211 79.086861 
L 629.085033 79.846449 
L 629.864501 78.041058 
L 630.124324 79.075842 
L 630.384146 77.402564 
L 630.643969 76.653978 
L 630.903792 70.42317 
L 631.683259 66.669288 
L 631.943082 65.975748 
L 632.202905 70.830495 
L 632.462727 70.786452 
L 632.72255 72.041419 
L 633.502018 67.638024 
L 633.76184 69.047109 
L 634.021663 71.579064 
L 634.541308 74.694468 
L 635.320776 76.037505 
L 635.580599 71.303852 
L 635.840421 72.162513 
L 636.360067 59.711916 
L 637.139534 64.016239 
L 637.399357 62.838323 
L 637.65918 63.43279 
L 637.919002 59.590822 
L 638.958293 59.524774 
L 639.218115 64.049263 
L 639.477938 60.548572 
L 639.737761 60.856808 
L 639.997583 57.818455 
L 640.777051 57.080889 
L 641.036874 56.354324 
L 641.296696 59.83301 
L 641.556519 59.073422 
L 641.816341 56.596512 
L 642.595809 53.106824 
L 642.855632 55.121379 
L 643.115455 54.218692 
L 643.375277 49.881345 
L 643.6351 50.751008 
L 644.414568 49.264873 
L 644.67439 51.224382 
L 644.934213 52.127069 
L 645.194035 47.811744 
L 645.453858 69.124176 
L 646.233326 72.536814 
L 646.493149 70.225025 
L 646.752971 60.801763 
L 647.012794 59.899059 
L 648.052084 61.913614 
L 648.311907 61.726472 
L 648.571729 58.324853 
L 648.831552 51.257406 
L 649.091375 51.20236 
L 649.870843 50.695962 
L 650.65031 61.198069 
L 650.910133 53.613222 
L 651.689601 54.603979 
L 651.949424 53.756321 
L 652.209246 53.304985 
L 652.469069 50.574868 
L 652.728891 53.437082 
L 653.768182 57.466192 
L 653.768182 57.466192 
" clip-path="url(#pa2f96559d0)" style="fill: none; stroke: #1f77b4; stroke-width: 1.5; stroke-linecap: square"/>
   </g>
   <g id="patch_3">
    <path d="M 94.5 224.28 
L 94.5 30.24 
" style="fill: none; stroke: #000000; stroke-width: 0.8; stroke-linejoin: miter; stroke-linecap: square"/>
   </g>
   <g id="patch_4">
    <path d="M 94.5 224.28 
L 680.4 224.28 
" style="fill: none; stroke: #000000; stroke-width: 0.8; stroke-linejoin: miter; stroke-linecap: square"/>
   </g>
  </g>
 </g>
 <defs>
  <clipPath id="pa2f96559d0">
   <rect x="94.5" y="30.24" width="585.9" height="194.04"/>
  </clipPath>
 </defs>
</svg>
