<?xml version="1.0" encoding="utf-8" standalone="no"?>
<!DOCTYPE svg PUBLIC "-//W3C//DTD SVG 1.1//EN"
  "http://www.w3.org/Graphics/SVG/1.1/DTD/svg11.dtd">
<svg xmlns:xlink="http://www.w3.org/1999/xlink" width="756pt" height="252pt" viewBox="0 0 756 252" xmlns="http://www.w3.org/2000/svg" version="1.1">
 <metadata>
  <rdf:RDF xmlns:dc="http://purl.org/dc/elements/1.1/" xmlns:cc="http://creativecommons.org/ns#" xmlns:rdf="http://www.w3.org/1999/02/22-rdf-syntax-ns#">
   <cc:Work>
    <dc:type rdf:resource="http://purl.org/dc/dcmitype/StillImage"/>
    <dc:date>2025-08-31T00:52:51.150905</dc:date>
    <dc:format>image/svg+xml</dc:format>
    <dc:creator>
     <cc:Agent>
      <dc:title>Matplotlib v3.10.5, https://matplotlib.org/</dc:title>
     </cc:Agent>
    </dc:creator>
   </cc:Work>
  </rdf:RDF>
 </metadata>
 <defs>
  <style type="text/css">*{stroke-linejoin: round; stroke-linecap: butt}</style>
 </defs>
 <g id="figure_1">
  <g id="patch_1">
   <path d="M 0 252 
L 756 252 
L 756 0 
L 0 0 
z
" style="fill: #ffffff"/>
  </g>
  <g id="axes_1">
   <g id="patch_2">
    <path d="M 94.5 224.28 
L 680.4 224.28 
L 680.4 30.24 
L 94.5 30.24 
z
" style="fill: #ffffff"/>
   </g>
   <g id="matplotlib.axis_1">
    <g id="xtick_1">
     <g id="line2d_1">
      <defs>
       <path id="m9c7bffad1a" d="M 0 0 
L 0 3.5 
" style="stroke: #000000; stroke-width: 0.8"/>
      </defs>
      <g>
       <use xlink:href="#m9c7bffad1a" x="115.662203" y="224.28" style="stroke: #000000; stroke-width: 0.8"/>
      </g>
     </g>
     <g id="text_1">
      <!-- 2020 -->
      <g transform="translate(102.937203 238.878438) scale(0.1 -0.1)">
       <defs>
        <path id="DejaVuSans-32" d="M 1228 531 
L 3431 531 
L 3431 0 
L 469 0 
L 469 531 
Q 828 903 1448 1529 
Q 2069 2156 2228 2338 
Q 2531 2678 2651 2914 
Q 2772 3150 2772 3378 
Q 2772 3750 2511 3984 
Q 2250 4219 1831 4219 
Q 1534 4219 1204 4116 
Q 875 4013 500 3803 
L 500 4441 
Q 881 4594 1212 4672 
Q 1544 4750 1819 4750 
Q 2544 4750 2975 4387 
Q 3406 4025 3406 3419 
Q 3406 3131 3298 2873 
Q 3191 2616 2906 2266 
Q 2828 2175 2409 1742 
Q 1991 1309 1228 531 
z
" transform="scale(0.015625)"/>
        <path id="DejaVuSans-30" d="M 2034 4250 
Q 1547 4250 1301 3770 
Q 1056 3291 1056 2328 
Q 1056 1369 1301 889 
Q 1547 409 2034 409 
Q 2525 409 2770 889 
Q 3016 1369 3016 2328 
Q 3016 3291 2770 3770 
Q 2525 4250 2034 4250 
z
M 2034 4750 
Q 2819 4750 3233 4129 
Q 3647 3509 3647 2328 
Q 3647 1150 3233 529 
Q 2819 -91 2034 -91 
Q 1250 -91 836 529 
Q 422 1150 422 2328 
Q 422 3509 836 4129 
Q 1250 4750 2034 4750 
z
" transform="scale(0.015625)"/>
       </defs>
       <use xlink:href="#DejaVuSans-32"/>
       <use xlink:href="#DejaVuSans-30" transform="translate(63.623047 0)"/>
       <use xlink:href="#DejaVuSans-32" transform="translate(127.246094 0)"/>
       <use xlink:href="#DejaVuSans-30" transform="translate(190.869141 0)"/>
      </g>
     </g>
    </g>
    <g id="xtick_2">
     <g id="line2d_2">
      <g>
       <use xlink:href="#m9c7bffad1a" x="210.989787" y="224.28" style="stroke: #000000; stroke-width: 0.8"/>
      </g>
     </g>
     <g id="text_2">
      <!-- 2021 -->
      <g transform="translate(198.264787 238.878438) scale(0.1 -0.1)">
       <defs>
        <path id="DejaVuSans-31" d="M 794 531 
L 1825 531 
L 1825 4091 
L 703 3866 
L 703 4441 
L 1819 4666 
L 2450 4666 
L 2450 531 
L 3481 531 
L 3481 0 
L 794 0 
L 794 531 
z
" transform="scale(0.015625)"/>
       </defs>
       <use xlink:href="#DejaVuSans-32"/>
       <use xlink:href="#DejaVuSans-30" transform="translate(63.623047 0)"/>
       <use xlink:href="#DejaVuSans-32" transform="translate(127.246094 0)"/>
       <use xlink:href="#DejaVuSans-31" transform="translate(190.869141 0)"/>
      </g>
     </g>
    </g>
    <g id="xtick_3">
     <g id="line2d_3">
      <g>
       <use xlink:href="#m9c7bffad1a" x="306.056913" y="224.28" style="stroke: #000000; stroke-width: 0.8"/>
      </g>
     </g>
     <g id="text_3">
      <!-- 2022 -->
      <g transform="translate(293.331913 238.878438) scale(0.1 -0.1)">
       <use xlink:href="#DejaVuSans-32"/>
       <use xlink:href="#DejaVuSans-30" transform="translate(63.623047 0)"/>
       <use xlink:href="#DejaVuSans-32" transform="translate(127.246094 0)"/>
       <use xlink:href="#DejaVuSans-32" transform="translate(190.869141 0)"/>
      </g>
     </g>
    </g>
    <g id="xtick_4">
     <g id="line2d_4">
      <g>
       <use xlink:href="#m9c7bffad1a" x="401.124039" y="224.28" style="stroke: #000000; stroke-width: 0.8"/>
      </g>
     </g>
     <g id="text_4">
      <!-- 2023 -->
      <g transform="translate(388.399039 238.878438) scale(0.1 -0.1)">
       <defs>
        <path id="DejaVuSans-33" d="M 2597 2516 
Q 3050 2419 3304 2112 
Q 3559 1806 3559 1356 
Q 3559 666 3084 287 
Q 2609 -91 1734 -91 
Q 1441 -91 1130 -33 
Q 819 25 488 141 
L 488 750 
Q 750 597 1062 519 
Q 1375 441 1716 441 
Q 2309 441 2620 675 
Q 2931 909 2931 1356 
Q 2931 1769 2642 2001 
Q 2353 2234 1838 2234 
L 1294 2234 
L 1294 2753 
L 1863 2753 
Q 2328 2753 2575 2939 
Q 2822 3125 2822 3475 
Q 2822 3834 2567 4026 
Q 2313 4219 1838 4219 
Q 1578 4219 1281 4162 
Q 984 4106 628 3988 
L 628 4550 
Q 988 4650 1302 4700 
Q 1616 4750 1894 4750 
Q 2613 4750 3031 4423 
Q 3450 4097 3450 3541 
Q 3450 3153 3228 2886 
Q 3006 2619 2597 2516 
z
" transform="scale(0.015625)"/>
       </defs>
       <use xlink:href="#DejaVuSans-32"/>
       <use xlink:href="#DejaVuSans-30" transform="translate(63.623047 0)"/>
       <use xlink:href="#DejaVuSans-32" transform="translate(127.246094 0)"/>
       <use xlink:href="#DejaVuSans-33" transform="translate(190.869141 0)"/>
      </g>
     </g>
    </g>
    <g id="xtick_5">
     <g id="line2d_5">
      <g>
       <use xlink:href="#m9c7bffad1a" x="496.191165" y="224.28" style="stroke: #000000; stroke-width: 0.8"/>
      </g>
     </g>
     <g id="text_5">
      <!-- 2024 -->
      <g transform="translate(483.466165 238.878438) scale(0.1 -0.1)">
       <defs>
        <path id="DejaVuSans-34" d="M 2419 4116 
L 825 1625 
L 2419 1625 
L 2419 4116 
z
M 2253 4666 
L 3047 4666 
L 3047 1625 
L 3713 1625 
L 3713 1100 
L 3047 1100 
L 3047 0 
L 2419 0 
L 2419 1100 
L 313 1100 
L 313 1709 
L 2253 4666 
z
" transform="scale(0.015625)"/>
       </defs>
       <use xlink:href="#DejaVuSans-32"/>
       <use xlink:href="#DejaVuSans-30" transform="translate(63.623047 0)"/>
       <use xlink:href="#DejaVuSans-32" transform="translate(127.246094 0)"/>
       <use xlink:href="#DejaVuSans-34" transform="translate(190.869141 0)"/>
      </g>
     </g>
    </g>
    <g id="xtick_6">
     <g id="line2d_6">
      <g>
       <use xlink:href="#m9c7bffad1a" x="591.518749" y="224.28" style="stroke: #000000; stroke-width: 0.8"/>
      </g>
     </g>
     <g id="text_6">
      <!-- 2025 -->
      <g transform="translate(578.793749 238.878438) scale(0.1 -0.1)">
       <defs>
        <path id="DejaVuSans-35" d="M 691 4666 
L 3169 4666 
L 3169 4134 
L 1269 4134 
L 1269 2991 
Q 1406 3038 1543 3061 
Q 1681 3084 1819 3084 
Q 2600 3084 3056 2656 
Q 3513 2228 3513 1497 
Q 3513 744 3044 326 
Q 2575 -91 1722 -91 
Q 1428 -91 1123 -41 
Q 819 9 494 109 
L 494 744 
Q 775 591 1075 516 
Q 1375 441 1709 441 
Q 2250 441 2565 725 
Q 2881 1009 2881 1497 
Q 2881 1984 2565 2268 
Q 2250 2553 1709 2553 
Q 1456 2553 1204 2497 
Q 953 2441 691 2322 
L 691 4666 
z
" transform="scale(0.015625)"/>
       </defs>
       <use xlink:href="#DejaVuSans-32"/>
       <use xlink:href="#DejaVuSans-30" transform="translate(63.623047 0)"/>
       <use xlink:href="#DejaVuSans-32" transform="translate(127.246094 0)"/>
       <use xlink:href="#DejaVuSans-35" transform="translate(190.869141 0)"/>
      </g>
     </g>
    </g>
   </g>
   <g id="matplotlib.axis_2">
    <g id="ytick_1">
     <g id="line2d_7">
      <defs>
       <path id="m0f80252dd2" d="M 0 0 
L -3.5 0 
" style="stroke: #000000; stroke-width: 0.8"/>
      </defs>
      <g>
       <use xlink:href="#m0f80252dd2" x="94.5" y="217.463544" style="stroke: #000000; stroke-width: 0.8"/>
      </g>
     </g>
     <g id="text_7">
      <!-- 80 -->
      <g transform="translate(74.775 221.262763) scale(0.1 -0.1)">
       <defs>
        <path id="DejaVuSans-38" d="M 2034 2216 
Q 1584 2216 1326 1975 
Q 1069 1734 1069 1313 
Q 1069 891 1326 650 
Q 1584 409 2034 409 
Q 2484 409 2743 651 
Q 3003 894 3003 1313 
Q 3003 1734 2745 1975 
Q 2488 2216 2034 2216 
z
M 1403 2484 
Q 997 2584 770 2862 
Q 544 3141 544 3541 
Q 544 4100 942 4425 
Q 1341 4750 2034 4750 
Q 2731 4750 3128 4425 
Q 3525 4100 3525 3541 
Q 3525 3141 3298 2862 
Q 3072 2584 2669 2484 
Q 3125 2378 3379 2068 
Q 3634 1759 3634 1313 
Q 3634 634 3220 271 
Q 2806 -91 2034 -91 
Q 1263 -91 848 271 
Q 434 634 434 1313 
Q 434 1759 690 2068 
Q 947 2378 1403 2484 
z
M 1172 3481 
Q 1172 3119 1398 2916 
Q 1625 2713 2034 2713 
Q 2441 2713 2670 2916 
Q 2900 3119 2900 3481 
Q 2900 3844 2670 4047 
Q 2441 4250 2034 4250 
Q 1625 4250 1398 4047 
Q 1172 3844 1172 3481 
z
" transform="scale(0.015625)"/>
       </defs>
       <use xlink:href="#DejaVuSans-38"/>
       <use xlink:href="#DejaVuSans-30" transform="translate(63.623047 0)"/>
      </g>
     </g>
    </g>
    <g id="ytick_2">
     <g id="line2d_8">
      <g>
       <use xlink:href="#m0f80252dd2" x="94.5" y="195.44657" style="stroke: #000000; stroke-width: 0.8"/>
      </g>
     </g>
     <g id="text_8">
      <!-- 100 -->
      <g transform="translate(68.4125 199.245788) scale(0.1 -0.1)">
       <use xlink:href="#DejaVuSans-31"/>
       <use xlink:href="#DejaVuSans-30" transform="translate(63.623047 0)"/>
       <use xlink:href="#DejaVuSans-30" transform="translate(127.246094 0)"/>
      </g>
     </g>
    </g>
    <g id="ytick_3">
     <g id="line2d_9">
      <g>
       <use xlink:href="#m0f80252dd2" x="94.5" y="173.429595" style="stroke: #000000; stroke-width: 0.8"/>
      </g>
     </g>
     <g id="text_9">
      <!-- 120 -->
      <g transform="translate(68.4125 177.228813) scale(0.1 -0.1)">
       <use xlink:href="#DejaVuSans-31"/>
       <use xlink:href="#DejaVuSans-32" transform="translate(63.623047 0)"/>
       <use xlink:href="#DejaVuSans-30" transform="translate(127.246094 0)"/>
      </g>
     </g>
    </g>
    <g id="ytick_4">
     <g id="line2d_10">
      <g>
       <use xlink:href="#m0f80252dd2" x="94.5" y="151.41262" style="stroke: #000000; stroke-width: 0.8"/>
      </g>
     </g>
     <g id="text_10">
      <!-- 140 -->
      <g transform="translate(68.4125 155.211839) scale(0.1 -0.1)">
       <use xlink:href="#DejaVuSans-31"/>
       <use xlink:href="#DejaVuSans-34" transform="translate(63.623047 0)"/>
       <use xlink:href="#DejaVuSans-30" transform="translate(127.246094 0)"/>
      </g>
     </g>
    </g>
    <g id="ytick_5">
     <g id="line2d_11">
      <g>
       <use xlink:href="#m0f80252dd2" x="94.5" y="129.395645" style="stroke: #000000; stroke-width: 0.8"/>
      </g>
     </g>
     <g id="text_11">
      <!-- 160 -->
      <g transform="translate(68.4125 133.194864) scale(0.1 -0.1)">
       <defs>
        <path id="DejaVuSans-36" d="M 2113 2584 
Q 1688 2584 1439 2293 
Q 1191 2003 1191 1497 
Q 1191 994 1439 701 
Q 1688 409 2113 409 
Q 2538 409 2786 701 
Q 3034 994 3034 1497 
Q 3034 2003 2786 2293 
Q 2538 2584 2113 2584 
z
M 3366 4563 
L 3366 3988 
Q 3128 4100 2886 4159 
Q 2644 4219 2406 4219 
Q 1781 4219 1451 3797 
Q 1122 3375 1075 2522 
Q 1259 2794 1537 2939 
Q 1816 3084 2150 3084 
Q 2853 3084 3261 2657 
Q 3669 2231 3669 1497 
Q 3669 778 3244 343 
Q 2819 -91 2113 -91 
Q 1303 -91 875 529 
Q 447 1150 447 2328 
Q 447 3434 972 4092 
Q 1497 4750 2381 4750 
Q 2619 4750 2861 4703 
Q 3103 4656 3366 4563 
z
" transform="scale(0.015625)"/>
       </defs>
       <use xlink:href="#DejaVuSans-31"/>
       <use xlink:href="#DejaVuSans-36" transform="translate(63.623047 0)"/>
       <use xlink:href="#DejaVuSans-30" transform="translate(127.246094 0)"/>
      </g>
     </g>
    </g>
    <g id="ytick_6">
     <g id="line2d_12">
      <g>
       <use xlink:href="#m0f80252dd2" x="94.5" y="107.37867" style="stroke: #000000; stroke-width: 0.8"/>
      </g>
     </g>
     <g id="text_12">
      <!-- 180 -->
      <g transform="translate(68.4125 111.177889) scale(0.1 -0.1)">
       <use xlink:href="#DejaVuSans-31"/>
       <use xlink:href="#DejaVuSans-38" transform="translate(63.623047 0)"/>
       <use xlink:href="#DejaVuSans-30" transform="translate(127.246094 0)"/>
      </g>
     </g>
    </g>
    <g id="ytick_7">
     <g id="line2d_13">
      <g>
       <use xlink:href="#m0f80252dd2" x="94.5" y="85.361695" style="stroke: #000000; stroke-width: 0.8"/>
      </g>
     </g>
     <g id="text_13">
      <!-- 200 -->
      <g transform="translate(68.4125 89.160914) scale(0.1 -0.1)">
       <use xlink:href="#DejaVuSans-32"/>
       <use xlink:href="#DejaVuSans-30" transform="translate(63.623047 0)"/>
       <use xlink:href="#DejaVuSans-30" transform="translate(127.246094 0)"/>
      </g>
     </g>
    </g>
    <g id="ytick_8">
     <g id="line2d_14">
      <g>
       <use xlink:href="#m0f80252dd2" x="94.5" y="63.344721" style="stroke: #000000; stroke-width: 0.8"/>
      </g>
     </g>
     <g id="text_14">
      <!-- 220 -->
      <g transform="translate(68.4125 67.143939) scale(0.1 -0.1)">
       <use xlink:href="#DejaVuSans-32"/>
       <use xlink:href="#DejaVuSans-32" transform="translate(63.623047 0)"/>
       <use xlink:href="#DejaVuSans-30" transform="translate(127.246094 0)"/>
      </g>
     </g>
    </g>
    <g id="ytick_9">
     <g id="line2d_15">
      <g>
       <use xlink:href="#m0f80252dd2" x="94.5" y="41.327746" style="stroke: #000000; stroke-width: 0.8"/>
      </g>
     </g>
     <g id="text_15">
      <!-- 240 -->
      <g transform="translate(68.4125 45.126964) scale(0.1 -0.1)">
       <use xlink:href="#DejaVuSans-32"/>
       <use xlink:href="#DejaVuSans-34" transform="translate(63.623047 0)"/>
       <use xlink:href="#DejaVuSans-30" transform="translate(127.246094 0)"/>
      </g>
     </g>
    </g>
   </g>
   <g id="line2d_16">
    <path d="M 121.131818 201.641044 
L 121.392276 201.799572 
L 121.652734 203.06224 
L 122.434108 204.895154 
L 122.694565 203.524049 
L 122.955023 203.262594 
L 123.215481 202.564661 
L 123.475939 194.966603 
L 124.257313 195.215392 
L 124.517771 192.712614 
L 124.778228 193.252028 
L 125.038686 192.681791 
L 125.299144 191.082809 
L 126.340976 187.146169 
L 126.601434 186.63978 
L 126.861892 187.19736 
L 127.122349 188.022996 
L 128.164181 186.878113 
L 128.424639 186.077244 
L 128.685097 187.019574 
L 128.945555 190.164147 
L 129.987386 196.947025 
L 130.247844 196.569986 
L 130.508302 201.814984 
L 130.76876 201.845253 
L 131.550133 197.981271 
L 131.810591 200.455981 
L 132.071049 196.776949 
L 132.331507 199.628144 
L 132.591965 200.890821 
L 133.373339 206.421479 
L 133.633796 201.401057 
L 133.894254 205.306873 
L 134.154712 213.246746 
L 134.41517 207.280694 
L 135.196544 212.556515 
L 135.457002 206.023526 
L 135.717459 204.803784 
L 135.977917 202.000471 
L 136.238375 203.918155 
L 137.019749 200.795041 
L 137.280207 198.743615 
L 137.540665 201.730214 
L 137.801122 197.896511 
L 138.06158 200.945312 
L 138.842954 197.430847 
L 139.103412 198.214103 
L 139.36387 200.526984 
L 139.624328 199.914367 
L 139.884786 200.588085 
L 140.666159 195.57922 
L 140.926617 194.808075 
L 141.187075 193.079743 
L 141.447533 193.092954 
L 142.489364 186.151557 
L 142.749822 179.851946 
L 143.01028 178.51111 
L 143.270738 172.978797 
L 143.531196 174.805656 
L 144.312569 173.78132 
L 144.573027 177.386047 
L 145.093943 173.459864 
L 145.354401 172.867059 
L 146.135775 174.75061 
L 146.396232 178.158838 
L 146.65669 174.931705 
L 146.917148 169.356458 
L 147.177606 179.702229 
L 147.95898 178.05371 
L 148.219438 177.954084 
L 148.479896 176.112359 
L 149.000811 174.551911 
L 149.782185 172.934216 
L 150.042643 175.799168 
L 150.303101 175.195352 
L 150.824016 172.891281 
L 151.60539 171.984176 
L 151.865848 170.714352 
L 152.126306 168.038735 
L 152.386764 170.856913 
L 152.647222 171.399628 
L 153.689053 172.226364 
L 154.209969 173.369048 
L 154.470427 171.097447 
L 155.2518 169.519378 
L 155.512258 169.443973 
L 155.772716 169.11427 
L 156.033174 170.094024 
L 156.293632 168.861071 
L 157.075006 166.601027 
L 157.595921 159.809346 
L 157.856379 164.735088 
L 158.116837 165.447341 
L 158.898211 163.924864 
L 159.419126 160.165473 
L 159.679584 159.449911 
L 159.940042 158.29237 
L 160.721416 156.156183 
L 160.981874 153.371575 
L 161.242332 155.023402 
L 161.50279 153.912643 
L 161.763247 157.309323 
L 162.544621 157.996799 
L 162.805079 153.679274 
L 163.065537 147.080783 
L 163.325995 146.442288 
L 164.367826 137.264506 
L 164.628284 140.397531 
L 165.1492 130.351732 
L 165.409658 129.395645 
L 166.451489 135.780571 
L 166.711947 139.91591 
L 166.972405 140.409642 
L 167.232863 142.497401 
L 168.014236 129.569584 
L 168.535152 134.904844 
L 168.79561 141.144454 
L 169.056068 139.913709 
L 169.837442 137.365242 
L 170.0979 140.385974 
L 170.358357 138.558561 
L 170.618815 137.548537 
L 170.879273 131.339751 
L 171.660647 134.245437 
L 171.921105 132.762593 
L 172.181563 129.118787 
L 172.44202 128.019584 
L 172.702478 131.186725 
L 173.483852 132.24904 
L 173.74431 135.963867 
L 174.004768 131.474048 
L 174.265226 131.541205 
L 174.525683 132.25675 
L 175.307057 130.363843 
L 175.567515 123.203925 
L 175.827973 126.066676 
L 176.088431 124.036163 
L 176.348889 124.732458 
L 177.130262 123.480784 
L 177.39072 121.332486 
L 177.651178 116.083633 
L 177.911636 118.387158 
L 178.172094 118.288085 
L 178.953467 115.58219 
L 179.474383 111.151835 
L 179.734841 120.148522 
L 179.995299 124.187527 
L 181.03713 132.156569 
L 181.297588 125.619188 
L 181.818504 134.007095 
L 182.599878 134.736414 
L 182.860336 131.810353 
L 183.641709 142.885997 
L 184.423083 142.579962 
L 184.683541 133.304216 
L 184.943999 140.411843 
L 185.204457 139.31484 
L 185.464914 135.167945 
L 186.246288 130.823997 
L 186.506746 132.429581 
L 186.767204 132.217679 
L 187.027662 128.225439 
L 187.28812 133.523828 
L 188.069493 129.439672 
L 188.329951 134.902089 
L 188.590409 129.632878 
L 188.850867 129.9158 
L 189.111325 124.626213 
L 189.892698 116.024186 
L 190.153156 115.985652 
L 190.413614 120.384646 
L 190.674072 121.764017 
L 190.93453 125.393512 
L 191.715904 128.998785 
L 191.976361 128.459379 
L 192.236819 130.224591 
L 192.497277 130.694638 
L 192.757735 129.153457 
L 193.539109 129.008141 
L 193.799567 124.643834 
L 194.060024 131.444316 
L 194.320482 128.789621 
L 194.58094 138.414354 
L 195.362314 140.157543 
L 195.622772 137.739526 
L 195.88323 127.1301 
L 196.143687 122.680461 
L 196.404145 123.265572 
L 197.185519 132.492336 
L 197.445977 138.476539 
L 197.706435 132.841845 
L 197.966893 134.334044 
L 198.227351 133.31411 
L 199.008724 133.190278 
L 199.269182 132.93707 
L 199.52964 134.599363 
L 199.790098 133.963069 
L 200.050556 134.932913 
L 200.831929 134.988513 
L 201.092387 133.905822 
L 201.352845 130.217435 
L 201.873761 129.652145 
L 202.655134 131.154809 
L 202.915592 128.290395 
L 203.436508 130.126056 
L 203.696966 131.455335 
L 204.47834 131.707434 
L 204.738798 130.645657 
L 204.999255 134.668703 
L 205.259713 134.817883 
L 206.301545 131.764126 
L 206.562003 131.315529 
L 206.822461 127.141102 
L 207.082918 127.409713 
L 207.343376 129.30482 
L 208.385208 129.036764 
L 208.906124 130.898847 
L 210.208413 122.680461 
L 210.729329 126.262083 
L 211.77116 130.131566 
L 212.031618 128.376802 
L 212.292076 132.787353 
L 212.812992 130.347885 
L 213.594365 134.117741 
L 213.854823 133.75335 
L 214.115281 131.273148 
L 214.636197 134.665965 
L 215.678028 133.757214 
L 215.938486 125.907048 
L 216.198944 123.506652 
L 216.459402 124.319086 
L 217.240776 124.221659 
L 217.501234 122.453139 
L 217.761691 127.602365 
L 218.022149 127.324952 
L 218.282607 129.054385 
L 219.324439 119.488006 
L 219.584897 123.201725 
L 220.105812 121.02094 
L 220.887186 122.628724 
L 221.66856 125.975851 
L 221.929018 125.118299 
L 222.970849 125.600475 
L 223.231307 123.415827 
L 223.491765 122.337554 
L 223.752223 126.649033 
L 224.533596 130.45576 
L 224.794054 129.698372 
L 225.054512 131.623211 
L 225.31497 137.257905 
L 225.575428 135.289039 
L 226.356802 132.360223 
L 226.617259 135.200969 
L 226.877717 140.12892 
L 227.138175 141.638741 
L 227.398633 140.378818 
L 228.180007 143.048918 
L 228.440465 136.944713 
L 228.700922 137.231482 
L 228.96138 134.151857 
L 229.221838 135.478382 
L 230.003212 135.908267 
L 230.26367 135.347932 
L 230.524128 132.933224 
L 230.784585 138.863488 
L 231.045043 136.27815 
L 231.826417 134.301574 
L 232.086875 132.835797 
L 232.607791 137.857865 
L 232.868248 137.540273 
L 233.649622 136.23577 
L 233.91008 137.360841 
L 234.170538 135.225746 
L 234.430996 131.542297 
L 235.472827 127.924358 
L 235.733285 128.084541 
L 235.993743 125.025829 
L 236.254201 123.929935 
L 236.514659 119.917337 
L 237.296032 119.521585 
L 237.55649 118.387158 
L 237.816948 122.075008 
L 238.077406 119.538097 
L 238.337864 118.417981 
L 239.119238 119.927802 
L 239.379695 121.981982 
L 239.640153 120.477672 
L 239.900611 123.393822 
L 240.161069 121.64126 
L 240.942443 117.891779 
L 241.202901 117.427762 
L 241.463359 115.167172 
L 241.723816 114.462075 
L 241.984274 114.676194 
L 242.765648 119.130788 
L 243.026106 123.238041 
L 243.286564 125.512959 
L 243.547022 123.540785 
L 243.807479 124.353201 
L 244.588853 129.919092 
L 244.849311 128.079585 
L 245.109769 132.040984 
L 245.370227 131.516428 
L 245.630685 128.135169 
L 246.412058 125.521207 
L 246.672516 127.618877 
L 246.932974 127.6453 
L 247.193432 126.771219 
L 247.45389 129.226107 
L 248.495721 126.14539 
L 248.756179 125.809085 
L 249.016637 127.738325 
L 249.277095 128.125812 
L 250.318926 128.369109 
L 250.579384 127.52476 
L 250.839842 130.110652 
L 251.1003 129.053276 
L 251.881674 129.505182 
L 252.142132 125.866868 
L 252.402589 124.928957 
L 252.663047 121.158546 
L 252.923505 121.313756 
L 253.704879 119.274996 
L 253.965337 119.31573 
L 254.225795 117.547764 
L 254.486253 113.475164 
L 254.74671 113.603969 
L 255.528084 115.41707 
L 255.788542 112.58348 
L 256.049 112.672658 
L 256.569916 118.306798 
L 257.351289 115.971341 
L 257.611747 115.737417 
L 258.132663 116.57241 
L 258.393121 112.278552 
L 259.434952 103.209753 
L 259.69541 102.062677 
L 259.955868 100.145548 
L 260.216326 100.809911 
L 260.997699 100.853383 
L 261.258157 103.120591 
L 261.518615 102.882804 
L 262.039531 108.830136 
L 262.820905 110.153351 
L 263.081363 108.854358 
L 263.34182 108.193304 
L 263.602278 105.285401 
L 263.862736 104.261066 
L 264.64411 101.884337 
L 264.904568 105.926096 
L 265.165026 105.709776 
L 265.425483 107.383071 
L 265.685941 122.372779 
L 266.467315 122.15866 
L 266.727773 120.245394 
L 266.988231 120.879488 
L 267.248689 119.708727 
L 267.509146 121.417801 
L 268.29052 121.586768 
L 268.811436 124.325687 
L 269.071894 123.698749 
L 269.332352 124.223305 
L 270.113725 123.947001 
L 270.634641 129.328488 
L 270.895099 130.069918 
L 271.155557 129.3984 
L 271.93693 125.769997 
L 272.197388 123.573254 
L 272.457846 123.936537 
L 272.718304 123.010719 
L 272.978762 121.159638 
L 273.760136 117.199885 
L 274.020593 114.490698 
L 274.281051 114.038808 
L 274.541509 114.912873 
L 274.801967 114.091099 
L 275.843799 112.371578 
L 276.104257 111.479338 
L 276.364714 113.754794 
L 276.625172 114.580968 
L 277.406546 115.240376 
L 277.667004 115.635036 
L 277.927462 114.215486 
L 278.18792 113.53021 
L 278.448377 114.945897 
L 279.229751 120.823887 
L 279.490209 121.489896 
L 280.011125 117.506475 
L 280.271583 116.982474 
L 281.052956 118.067919 
L 281.313414 123.012919 
L 281.83433 124.714837 
L 282.094788 124.812818 
L 282.876161 129.958181 
L 283.397077 125.98247 
L 283.657535 123.757642 
L 284.699367 126.847178 
L 284.959824 126.790486 
L 285.220282 124.756663 
L 285.48074 123.899111 
L 285.741198 117.89067 
L 286.522572 115.814468 
L 286.78303 115.957029 
L 287.043487 117.558212 
L 287.303945 116.460118 
L 287.564403 121.934647 
L 288.345777 122.770194 
L 288.606235 119.704326 
L 288.866693 118.80053 
L 289.12715 115.823824 
L 289.387608 119.904671 
L 290.168982 122.89458 
L 290.42944 123.189614 
L 291.210814 111.837665 
L 291.992187 113.489476 
L 292.252645 108.687037 
L 292.513103 113.870933 
L 292.773561 114.396581 
L 293.034019 111.498589 
L 293.815392 110.368579 
L 294.07585 110.642683 
L 294.336308 110.185838 
L 294.596766 102.091301 
L 294.857224 103.164064 
L 295.638597 108.888491 
L 295.899055 108.477318 
L 296.159513 108.45696 
L 296.680429 112.631924 
L 297.461803 109.493944 
L 297.982718 115.980697 
L 298.243176 116.330776 
L 298.503634 118.949139 
L 299.285008 116.880646 
L 299.545466 111.60097 
L 299.805924 111.608126 
L 300.326839 115.952074 
L 301.108213 118.863269 
L 301.368671 119.387271 
L 301.629129 114.737841 
L 301.889587 119.630013 
L 302.150044 118.367891 
L 302.931418 121.602743 
L 303.191876 117.928096 
L 303.452334 117.245575 
L 303.712792 117.210904 
L 304.754623 118.750994 
L 305.015081 117.659502 
L 305.275539 119.266731 
L 305.535997 119.879357 
L 305.796455 122.001249 
L 306.577828 117.94187 
L 307.098744 124.599253 
L 307.61966 126.584076 
L 308.401034 127.759792 
L 308.661491 123.492895 
L 308.921949 123.663525 
L 309.182407 128.05921 
L 309.442865 127.04203 
L 310.484697 130.587319 
L 310.745154 133.469891 
L 311.005612 138.568472 
L 311.26607 148.503071 
L 312.047444 146.410356 
L 312.307902 151.42804 
L 312.56836 152.65383 
L 312.828818 151.811681 
L 313.089275 147.033447 
L 314.131107 139.090273 
L 314.391565 139.729859 
L 314.652023 152.683545 
L 314.912481 131.994203 
L 315.693854 131.668346 
L 315.954312 127.839598 
L 316.21477 128.086187 
L 316.475228 130.492647 
L 316.735686 136.778484 
L 317.517059 134.716039 
L 318.037975 131.486713 
L 318.558891 137.540273 
L 319.600722 140.186721 
L 319.86118 146.098828 
L 320.121638 138.909178 
L 320.382096 136.233569 
L 321.16347 136.481804 
L 321.423928 139.146965 
L 321.684385 138.144634 
L 321.944843 142.717568 
L 322.205301 145.202725 
L 322.986675 154.216478 
L 323.247133 155.800057 
L 323.507591 152.206324 
L 323.768048 143.907578 
L 324.80988 149.372751 
L 325.591254 132.43509 
L 325.851711 128.01903 
L 326.633085 127.753728 
L 326.893543 124.013587 
L 327.154001 125.643947 
L 327.414459 125.378091 
L 327.674917 124.140745 
L 328.45629 119.498471 
L 328.716748 119.141236 
L 329.237664 126.095854 
L 329.498122 125.476626 
L 330.279495 120.207415 
L 330.800411 130.765105 
L 331.060869 131.834575 
L 331.321327 135.493802 
L 332.102701 139.168987 
L 332.363158 139.537207 
L 332.623616 134.304329 
L 332.884074 138.525537 
L 333.925906 137.338265 
L 334.186364 131.470201 
L 334.967737 146.623921 
L 335.749111 144.726059 
L 336.009569 152.08303 
L 336.270027 153.430467 
L 336.530485 146.352572 
L 336.790942 168.716309 
L 337.572316 168.475775 
L 337.832774 168.747133 
L 338.093232 166.903216 
L 338.35369 177.384947 
L 338.614148 179.184283 
L 339.395521 185.771208 
L 339.655979 185.694149 
L 339.916437 189.532808 
L 340.176895 187.817142 
L 340.437353 181.074989 
L 341.218726 183.545843 
L 341.479184 178.528176 
L 341.739642 187.61678 
L 342.260558 187.090023 
L 343.041932 187.127456 
L 343.302389 190.933091 
L 343.562847 187.988318 
L 344.083763 178.772564 
L 345.386052 171.575768 
L 345.64651 167.362816 
L 345.906968 170.842602 
L 346.688342 168.156528 
L 347.209258 172.130593 
L 347.730173 184.823378 
L 348.772005 192.903612 
L 349.032463 187.003062 
L 349.292921 191.417459 
L 349.553379 188.599289 
L 350.59521 185.891202 
L 350.855668 185.593977 
L 351.376584 177.3266 
L 352.157957 180.893348 
L 352.418415 187.300287 
L 352.678873 185.627001 
L 352.939331 188.6103 
L 353.199789 184.922458 
L 354.502078 179.671405 
L 354.762536 177.469708 
L 355.022994 178.339379 
L 355.804368 182.511597 
L 356.064826 185.296743 
L 356.325283 183.997741 
L 356.585741 183.74455 
L 356.846199 180.530066 
L 357.627573 180.298889 
L 358.148489 170.380247 
L 358.408946 168.332668 
L 358.669404 170.765543 
L 359.450778 172.174628 
L 359.711236 179.143002 
L 359.971694 172.36177 
L 360.232152 170.919661 
L 360.492609 156.971909 
L 361.273983 156.487533 
L 361.534441 157.841572 
L 361.794899 151.941023 
L 362.055357 148.583431 
L 362.315815 150.531938 
L 363.097188 152.062117 
L 363.357646 153.80146 
L 363.618104 148.451334 
L 363.878562 150.708077 
L 364.13902 147.504603 
L 364.920393 147.911929 
L 365.180851 146.150564 
L 365.441309 149.100831 
L 365.701767 148.880664 
L 365.962225 153.361127 
L 366.743599 158.876373 
L 367.004056 158.43604 
L 367.264514 158.237879 
L 367.524972 154.40693 
L 367.78543 161.595471 
L 368.566804 162.652293 
L 368.827262 163.81919 
L 369.087719 165.976852 
L 369.348177 164.820958 
L 370.650467 166.703408 
L 370.910925 162.993553 
L 371.171383 162.619252 
L 371.43184 158.821327 
L 372.213214 155.320636 
L 372.473672 165.921807 
L 372.73413 164.017335 
L 373.255046 169.5436 
L 374.036419 168.299636 
L 374.296877 171.018733 
L 374.557335 175.036833 
L 374.817793 176.390881 
L 375.078251 180.276875 
L 375.859624 178.768709 
L 376.120082 179.583335 
L 376.38054 175.620281 
L 376.640998 179.154005 
L 376.901456 181.135536 
L 377.68283 177.965095 
L 377.943287 172.229674 
L 378.203745 172.383792 
L 378.464203 173.099337 
L 378.724661 179.418215 
L 379.506035 180.397969 
L 379.766493 182.005207 
L 380.02695 181.245619 
L 380.287408 181.652936 
L 380.547866 187.850712 
L 381.589698 177.436683 
L 381.850156 178.856779 
L 382.110613 178.658626 
L 382.371071 174.178172 
L 383.152445 173.627748 
L 383.412903 172.769087 
L 383.933819 183.381268 
L 384.194277 191.692671 
L 384.97565 192.760496 
L 385.496566 204.121255 
L 385.757024 207.225648 
L 386.017482 205.376221 
L 386.798855 205.871608 
L 387.059313 206.47707 
L 387.319771 210.704334 
L 387.580229 199.156433 
L 387.840687 194.576898 
L 388.62206 197.108853 
L 388.882518 196.613467 
L 389.663892 201.897544 
L 390.445266 203.74697 
L 390.966181 201.908555 
L 391.487097 202.701159 
L 392.268471 202.106708 
L 392.528929 203.791005 
L 392.789387 199.255505 
L 394.091676 205.343197 
L 394.352134 208.381542 
L 394.612592 208.150365 
L 394.87305 206.069762 
L 395.133507 207.456833 
L 395.914881 205.849587 
L 396.175339 203.713946 
L 396.435797 204.715714 
L 396.696255 208.161376 
L 396.956713 208.810873 
L 397.738086 212.047371 
L 397.998544 211.750137 
L 398.259002 210.010802 
L 398.51946 213.291327 
L 398.779918 211.684088 
L 399.821749 214.116963 
L 400.082207 215.46 
L 400.342665 212.861996 
L 400.603123 213.060149 
L 401.644954 211.056605 
L 401.905412 211.805183 
L 402.16587 214.028893 
L 402.426328 210.770382 
L 403.207702 209.361297 
L 403.46816 206.598164 
L 403.728617 200.851741 
L 403.989075 200.653588 
L 404.249533 197.516162 
L 405.551823 200.444424 
L 405.812281 202.403933 
L 406.072738 198.473904 
L 406.854112 198.176678 
L 407.11457 199.497693 
L 407.375028 198.550963 
L 407.635486 196.30523 
L 407.895944 192.980671 
L 408.677317 194.841099 
L 409.198233 189.777197 
L 409.458691 181.234608 
L 409.719149 191.714693 
L 410.500522 193.046719 
L 410.76098 193.123778 
L 411.281896 197.384066 
L 411.542354 198.077597 
L 412.323727 195.952959 
L 412.584185 195.776828 
L 412.844643 194.169581 
L 413.105101 197.483138 
L 413.365559 198.528949 
L 414.407391 201.413168 
L 414.667848 200.081142 
L 414.928306 200.048118 
L 415.188764 202.602086 
L 415.970138 202.315863 
L 416.230596 201.798463 
L 416.491054 204.066217 
L 416.751511 204.110252 
L 417.011969 201.060896 
L 418.053801 202.547041 
L 418.314259 202.139732 
L 418.835174 205.651434 
L 419.616548 203.779994 
L 419.877006 201.082918 
L 420.137464 199.629798 
L 420.397922 195.402535 
L 420.65838 196.602464 
L 421.439753 197.967514 
L 421.700211 194.775051 
L 421.960669 196.877676 
L 422.221127 196.866665 
L 422.481585 197.50516 
L 423.262958 197.604232 
L 423.523416 198.484914 
L 424.044332 193.244872 
L 424.30479 191.824776 
L 425.086164 192.79352 
L 425.346621 191.09822 
L 425.607079 194.235638 
L 425.867537 193.178824 
L 426.909369 193.05773 
L 427.430285 197.835409 
L 427.690742 192.804531 
L 428.732574 192.430246 
L 428.993032 192.914614 
L 429.25349 190.712917 
L 429.513948 191.252339 
L 429.774405 187.784663 
L 430.555779 188.6103 
L 430.816237 192.617389 
L 431.076695 189.964339 
L 431.337153 184.636235 
L 431.597611 189.446947 
L 432.378984 193.189826 
L 432.639442 191.450492 
L 432.8999 191.42847 
L 433.160358 191.043175 
L 433.420816 189.215762 
L 434.202189 189.028619 
L 434.462647 188.158948 
L 434.723105 184.228918 
L 434.983563 182.038232 
L 435.244021 184.151859 
L 436.025395 183.117067 
L 436.806768 175.466163 
L 437.067226 177.557777 
L 437.8486 178.922828 
L 438.109058 178.944849 
L 438.369515 177.007353 
L 438.629973 178.933838 
L 438.890431 173.308501 
L 439.932263 171.602182 
L 440.192721 172.7911 
L 440.713636 168.750988 
L 441.49501 167.595093 
L 441.755468 166.152984 
L 442.015926 172.075547 
L 442.276384 168.750988 
L 442.536842 169.653683 
L 443.318215 166.197019 
L 443.578673 166.097938 
L 443.839131 166.362148 
L 444.099589 165.602559 
L 444.360047 167.385937 
L 445.401878 167.06669 
L 445.662336 168.112493 
L 445.922794 162.255987 
L 446.183252 163.158674 
L 446.964625 165.360371 
L 447.225083 163.323811 
L 447.485541 163.477929 
L 447.745999 164.732888 
L 448.006457 162.024801 
L 448.787831 162.178919 
L 449.308746 162.002779 
L 449.569204 164.226499 
L 449.829662 162.663295 
L 450.611036 165.580546 
L 451.131952 161.540425 
L 451.392409 157.687454 
L 451.652867 157.269143 
L 452.434241 158.502088 
L 452.694699 159.305703 
L 452.955157 156.520557 
L 453.215615 162.465134 
L 453.476072 162.421107 
L 454.257446 163.742122 
L 454.517904 163.37884 
L 454.778362 164.457684 
L 455.03882 164.347593 
L 455.299278 159.988224 
L 456.080651 158.369992 
L 456.341109 160.56067 
L 456.601567 164.391619 
L 456.862025 163.621028 
L 457.122483 151.885977 
L 457.903856 148.968734 
L 458.424772 153.779438 
L 458.68523 152.997845 
L 458.945688 153.162965 
L 459.727062 150.785128 
L 460.247977 156.839796 
L 460.768893 158.876373 
L 461.550267 157.269143 
L 461.810725 157.7425 
L 462.071182 156.344418 
L 462.33164 160.39555 
L 462.592098 158.832346 
L 463.373472 158.964443 
L 463.63393 157.015936 
L 463.894388 156.839796 
L 464.154846 153.603315 
L 464.415303 153.482221 
L 465.457135 154.417932 
L 465.717593 156.520557 
L 465.978051 153.779438 
L 466.238509 153.361127 
L 467.019882 147.999982 
L 467.28034 150.058581 
L 467.540798 146.073497 
L 467.801256 146.216612 
L 468.061714 150.98329 
L 468.843087 151.434642 
L 469.364003 156.597625 
L 469.624461 163.158674 
L 469.884919 163.38986 
L 470.666293 161.023025 
L 470.92675 166.846516 
L 471.447666 166.846516 
L 471.708124 165.591549 
L 472.489498 163.015558 
L 472.749956 168.233587 
L 473.010413 165.723654 
L 473.270871 166.868537 
L 473.531329 164.66684 
L 474.312703 164.33659 
L 474.573161 162.993553 
L 474.833619 160.406552 
L 475.094076 159.856128 
L 475.354534 162.652293 
L 476.135908 159.61394 
L 476.396366 160.802858 
L 476.656824 164.479689 
L 476.917282 164.182472 
L 477.177739 167.738209 
L 477.959113 166.20803 
L 478.219571 164.006332 
L 478.480029 171.899416 
L 478.740487 173.90296 
L 479.000945 164.909028 
L 479.782318 159.4378 
L 480.042776 159.019489 
L 480.303234 154.715166 
L 480.563692 153.53725 
L 480.82415 152.953801 
L 481.605523 151.698835 
L 481.865981 148.429312 
L 482.126439 149.122852 
L 482.386897 150.752104 
L 482.647355 147.493601 
L 483.428729 148.561426 
L 483.689186 145.027694 
L 483.949644 147.889907 
L 484.210102 148.297216 
L 484.47056 145.710231 
L 485.251934 144.664412 
L 485.512392 147.119317 
L 485.77285 144.025917 
L 486.293765 143.992893 
L 487.075139 142.903064 
L 487.596055 144.455248 
L 487.856513 144.708455 
L 488.11697 143.673655 
L 488.898344 146.084516 
L 489.158802 143.838775 
L 489.41926 146.436779 
L 489.679718 143.838775 
L 489.940176 143.244324 
L 490.721549 144.928621 
L 491.242465 141.681121 
L 491.502923 143.244324 
L 491.763381 140.437157 
L 492.544754 135.92367 
L 492.805212 136.231923 
L 493.06567 138.070339 
L 493.326128 136.176877 
L 493.586586 136.639232 
L 495.149333 136.683258 
L 495.409791 138.268483 
L 496.451623 140.4812 
L 496.71208 142.08843 
L 496.972538 146.381733 
L 497.232996 145.644166 
L 498.01437 141.39489 
L 498.795743 134.701744 
L 499.056201 135.318217 
L 500.098033 136.925446 
L 500.358491 138.521674 
L 500.879407 134.525604 
L 501.66078 135.142077 
L 502.181696 132.841307 
L 502.442154 131.872555 
L 502.702612 130.364397 
L 503.483985 128.008582 
L 503.744443 130.496494 
L 504.004901 134.679722 
L 504.265359 130.188257 
L 504.525817 116.394624 
L 505.30719 118.045897 
L 505.567648 119.322886 
L 505.828106 117.803709 
L 506.088564 118.563297 
L 506.349022 113.488384 
L 507.130396 115.811176 
L 507.390854 119.884313 
L 507.651311 117.308331 
L 507.911769 118.607324 
L 508.172227 118.92658 
L 509.214059 121.601634 
L 509.474517 119.939358 
L 509.734974 113.345268 
L 509.995432 112.893916 
L 510.776806 113.180148 
L 511.037264 114.49016 
L 511.297722 114.908472 
L 511.55818 110.945426 
L 511.818637 109.33818 
L 512.600011 110.042722 
L 512.860469 113.851666 
L 513.120927 114.523185 
L 513.381385 110.879361 
L 513.641843 112.49761 
L 514.423216 116.229487 
L 514.683674 112.453584 
L 514.944132 111.165593 
L 515.20459 108.754731 
L 515.465048 113.521408 
L 516.246421 113.45536 
L 516.506879 111.892157 
L 516.767337 109.415247 
L 517.027795 109.415247 
L 517.288253 108.622635 
L 518.069627 107.697909 
L 518.330084 109.25011 
L 518.590542 107.565812 
L 518.851 106.960342 
L 519.892832 106.310846 
L 520.15329 106.619082 
L 520.413747 104.725621 
L 520.674205 107.37867 
L 520.934663 101.797359 
L 521.716037 101.665263 
L 522.236953 100.828624 
L 522.497411 97.415986 
L 522.757868 100.630462 
L 523.539242 103.393603 
L 523.7997 103.723844 
L 524.320616 108.237331 
L 524.581074 113.290223 
L 525.362447 110.428026 
L 525.622905 107.885068 
L 526.143821 114.347045 
L 526.404279 107.796998 
L 527.185652 106.321848 
L 527.44611 112.882914 
L 527.706568 108.479519 
L 527.967026 102.182663 
L 528.227484 100.542392 
L 529.008858 97.80129 
L 529.269315 97.735241 
L 529.529773 98.57188 
L 529.790231 96.920607 
L 530.050689 99.144326 
L 530.832063 100.146086 
L 531.092521 99.595662 
L 531.352978 100.78458 
L 531.613436 103.382584 
L 531.873894 102.204684 
L 532.915726 103.911003 
L 533.176184 103.933008 
L 533.436641 106.222776 
L 533.697099 106.553034 
L 534.738931 105.011852 
L 534.999389 105.154951 
L 535.520305 111.297689 
L 536.301678 109.206083 
L 536.562136 108.105234 
L 536.822594 105.969585 
L 537.083052 101.874427 
L 537.34351 102.645017 
L 538.124883 99.606681 
L 538.385341 99.419539 
L 538.645799 99.793823 
L 538.906257 103.162418 
L 539.166715 103.34956 
L 539.948088 102.909227 
L 540.208546 104.285288 
L 540.729462 100.663486 
L 540.98992 97.382962 
L 541.771294 101.246935 
L 542.031752 100.399293 
L 542.552667 87.728513 
L 542.813125 92.792424 
L 543.594499 88.444075 
L 543.854957 85.361695 
L 544.115415 88.014745 
L 544.63633 85.361695 
L 545.417704 86.143305 
L 545.678162 86.08826 
L 545.93862 85.592881 
L 546.199078 90.810893 
L 547.240909 93.375873 
L 547.501367 93.045615 
L 548.022283 103.250487 
L 548.282741 103.933008 
L 549.064114 104.571503 
L 549.324572 100.322226 
L 549.58503 106.464964 
L 549.845488 107.543791 
L 550.105946 104.626548 
L 550.887319 103.855958 
L 551.147777 105.496211 
L 551.408235 99.694751 
L 551.668693 102.898208 
L 551.929151 120.698947 
L 552.710525 128.272775 
L 553.23144 126.346289 
L 553.491898 123.010719 
L 553.752356 121.755752 
L 554.53373 121.90987 
L 554.794188 118.133967 
L 555.054645 118.277066 
L 555.315103 110.03172 
L 555.575561 110.615168 
L 556.356935 109.33818 
L 556.617393 108.611615 
L 556.877851 107.257576 
L 557.138309 111.638949 
L 557.398766 110.63719 
L 558.18014 112.33249 
L 558.701056 117.506475 
L 558.961514 116.053364 
L 559.221972 109.029943 
L 560.263803 111.506853 
L 560.524261 114.721329 
L 560.784719 109.701462 
L 561.045177 116.856979 
L 561.82655 112.442581 
L 562.607924 99.672729 
L 563.649756 101.995521 
L 563.910213 99.804825 
L 564.170671 100.300221 
L 564.431129 96.513299 
L 564.691587 94.608818 
L 565.472961 92.098884 
L 565.733419 92.010814 
L 566.254334 95.093194 
L 566.514792 98.604904 
L 567.296166 100.410296 
L 567.556624 101.731311 
L 567.817082 102.138636 
L 568.077539 105.220999 
L 568.337997 100.212151 
L 569.119371 106.497988 
L 570.161202 97.669176 
L 570.942576 99.078278 
L 571.203034 98.913141 
L 571.463492 99.793823 
L 571.72395 99.089281 
L 571.984408 97.482034 
L 572.765781 97.393964 
L 573.026239 96.700441 
L 573.286697 102.193665 
L 573.807613 98.759023 
L 574.588986 98.14255 
L 575.109902 93.36487 
L 575.37036 100.333245 
L 575.630818 87.64046 
L 576.412192 90.007278 
L 576.672649 85.91212 
L 576.933107 77.556682 
L 577.193565 74.298162 
L 577.454023 76.356761 
L 578.235397 77.831894 
L 578.495855 75.553129 
L 578.756313 69.839721 
L 579.01677 72.723957 
L 579.277228 82.488479 
L 580.058602 83.490256 
L 580.31906 80.286782 
L 580.579518 82.191246 
L 580.839976 87.145065 
L 581.100433 88.532145 
L 581.881807 83.765468 
L 582.142265 76.709024 
L 582.402723 79.042818 
L 583.705012 73.571598 
L 583.96547 70.566286 
L 584.225928 65.370278 
L 584.486386 62.73925 
L 584.746844 55.605755 
L 585.528217 56.640556 
L 585.788675 57.79645 
L 586.049133 52.050019 
L 586.570049 55.132382 
L 587.351423 49.110754 
L 587.61188 51.070264 
L 587.872338 62.772275 
L 588.393254 57.928547 
L 589.174628 57.774429 
L 589.435086 53.382036 
L 589.956001 55.583734 
L 590.216459 59.216538 
L 590.997833 61.913614 
L 591.258291 64.016239 
L 591.779206 63.102532 
L 592.039664 58.732162 
L 592.821038 54.967261 
L 593.081496 61.021929 
L 593.341954 60.999907 
L 593.86287 64.511618 
L 594.644243 65.04002 
L 594.904701 65.810628 
L 595.165159 59.656871 
L 595.425617 62.618156 
L 595.686075 56.805676 
L 596.727906 51.554623 
L 596.988364 46.820987 
L 597.248822 46.369635 
L 597.50928 46.99711 
L 598.290653 46.369635 
L 598.551111 43.364323 
L 598.811569 44.553224 
L 599.072027 47.228296 
L 599.332485 43.881723 
L 600.113859 44.167937 
L 600.374317 39.06 
L 600.634774 45.543998 
L 600.895232 42.615737 
L 601.15569 53.271961 
L 601.937064 48.879569 
L 602.197522 49.297897 
L 602.45798 53.514149 
L 602.718437 51.928924 
L 602.978895 53.789362 
L 604.020727 56.024083 
L 604.281185 56.046088 
L 604.541643 60.174271 
L 604.8021 67.109621 
L 605.583474 71.3699 
L 605.843932 71.270828 
L 606.10439 69.564509 
L 606.364848 75.740271 
L 606.625306 71.843274 
L 607.406679 79.83543 
L 607.667137 81.178467 
L 607.927595 76.158599 
L 608.188053 84.591105 
L 609.229884 91.372337 
L 609.7508 86.583638 
L 610.011258 92.087882 
L 610.271716 87.618439 
L 611.05309 90.051305 
L 611.313547 93.265781 
L 611.574005 90.271488 
L 611.834463 90.920985 
L 612.094921 89.533905 
L 613.136753 79.075842 
L 613.39721 84.117731 
L 613.657668 83.86454 
L 613.918126 93.375873 
L 614.6995 96.083968 
L 614.959958 93.981343 
L 615.220416 89.754088 
L 615.480874 109.129016 
L 615.741331 117.286309 
L 616.522705 112.596699 
L 616.783163 117.660593 
L 617.043621 95.159242 
L 617.304079 106.035633 
L 617.564537 102.017542 
L 618.34591 105.044876 
L 618.606368 107.830022 
L 618.866826 113.620481 
L 619.127284 115.513942 
L 620.169115 121.337424 
L 621.210947 97.482034 
L 622.252778 99.243399 
L 622.513236 102.512921 
L 622.773694 96.150016 
L 623.034152 96.392204 
L 624.075984 101.863424 
L 624.596899 94.080415 
L 624.857357 93.001588 
L 625.638731 75.850363 
L 625.899189 72.845051 
L 626.159647 74.077996 
L 626.420104 79.670309 
L 626.680562 79.207955 
L 627.461936 78.580463 
L 627.982852 84.12875 
L 628.24331 81.949058 
L 628.503768 84.271849 
L 629.545599 78.734581 
L 629.806057 80.165688 
L 630.066515 79.086861 
L 630.326973 79.846449 
L 631.108346 78.041058 
L 631.368804 79.075842 
L 631.629262 77.402564 
L 631.88972 76.653978 
L 632.150178 70.42317 
L 632.931551 66.669288 
L 633.192009 65.975748 
L 633.452467 70.830495 
L 633.712925 70.786452 
L 633.973383 72.041419 
L 634.754757 67.638024 
L 635.015214 69.047109 
L 635.275672 71.579064 
L 635.796588 74.694468 
L 636.577962 76.037505 
L 636.83842 71.303852 
L 637.098878 72.162513 
L 637.619793 59.711916 
L 638.401167 64.016239 
L 638.661625 62.838323 
L 638.922083 63.43279 
L 639.182541 59.590822 
L 640.224372 59.524774 
L 640.48483 64.049263 
L 640.745288 60.548572 
L 641.005746 60.856808 
L 641.266204 57.818455 
L 642.047577 57.080889 
L 642.308035 56.354324 
L 642.568493 59.83301 
L 642.828951 59.073422 
L 643.089409 56.596512 
L 643.870782 53.106824 
L 644.13124 55.121379 
L 644.391698 54.218692 
L 644.652156 49.881345 
L 644.912614 50.751008 
L 645.693988 49.264873 
L 645.954445 51.224382 
L 646.214903 52.127069 
L 646.475361 47.811744 
L 646.735819 69.124176 
L 647.517193 72.536814 
L 647.777651 70.225025 
L 648.038108 60.801763 
L 648.298566 59.899059 
L 649.340398 61.913614 
L 649.600856 61.726472 
L 649.861314 58.324853 
L 650.121772 51.257406 
L 650.382229 51.20236 
L 651.163603 50.695962 
L 651.944977 61.198069 
L 652.205435 53.613222 
L 652.986808 54.603979 
L 653.247266 53.756321 
L 653.507724 53.304985 
L 653.768182 50.574868 
L 653.768182 50.574868 
" clip-path="url(#p797af59235)" style="fill: none; stroke: #1f77b4; stroke-width: 1.5; stroke-linecap: square"/>
   </g>
   <g id="patch_3">
    <path d="M 94.5 224.28 
L 94.5 30.24 
" style="fill: none; stroke: #000000; stroke-width: 0.8; stroke-linejoin: miter; stroke-linecap: square"/>
   </g>
   <g id="patch_4">
    <path d="M 94.5 224.28 
L 680.4 224.28 
" style="fill: none; stroke: #000000; stroke-width: 0.8; stroke-linejoin: miter; stroke-linecap: square"/>
   </g>
  </g>
 </g>
 <defs>
  <clipPath id="p797af59235">
   <rect x="94.5" y="30.24" width="585.9" height="194.04"/>
  </clipPath>
 </defs>
</svg>
