<?xml version="1.0" encoding="utf-8" standalone="no"?>
<!DOCTYPE svg PUBLIC "-//W3C//DTD SVG 1.1//EN"
  "http://www.w3.org/Graphics/SVG/1.1/DTD/svg11.dtd">
<svg xmlns:xlink="http://www.w3.org/1999/xlink" width="468pt" height="252pt" viewBox="0 0 468 252" xmlns="http://www.w3.org/2000/svg" version="1.1">
 <metadata>
  <rdf:RDF xmlns:dc="http://purl.org/dc/elements/1.1/" xmlns:cc="http://creativecommons.org/ns#" xmlns:rdf="http://www.w3.org/1999/02/22-rdf-syntax-ns#">
   <cc:Work>
    <dc:type rdf:resource="http://purl.org/dc/dcmitype/StillImage"/>
    <dc:date>2025-08-30T18:51:08.424108</dc:date>
    <dc:format>image/svg+xml</dc:format>
    <dc:creator>
     <cc:Agent>
      <dc:title>Matplotlib v3.10.5, https://matplotlib.org/</dc:title>
     </cc:Agent>
    </dc:creator>
   </cc:Work>
  </rdf:RDF>
 </metadata>
 <defs>
  <style type="text/css">*{stroke-linejoin: round; stroke-linecap: butt}</style>
 </defs>
 <g id="figure_1">
  <g id="patch_1">
   <path d="M 0 252 
L 468 252 
L 468 0 
L 0 0 
z
" style="fill: #ffffff"/>
  </g>
  <g id="axes_1">
   <g id="patch_2">
    <path d="M 58.5 224.28 
L 421.2 224.28 
L 421.2 30.24 
L 58.5 30.24 
z
" style="fill: #ffffff"/>
   </g>
   <g id="matplotlib.axis_1">
    <g id="xtick_1">
     <g id="line2d_1">
      <defs>
       <path id="m4e4304f084" d="M 0 0 
L 0 3.5 
" style="stroke: #000000; stroke-width: 0.8"/>
      </defs>
      <g>
       <use xlink:href="#m4e4304f084" x="71.598755" y="224.28" style="stroke: #000000; stroke-width: 0.8"/>
      </g>
     </g>
     <g id="text_1">
      <!-- 2020 -->
      <g transform="translate(58.873755 238.878438) scale(0.1 -0.1)">
       <defs>
        <path id="DejaVuSans-32" d="M 1228 531 
L 3431 531 
L 3431 0 
L 469 0 
L 469 531 
Q 828 903 1448 1529 
Q 2069 2156 2228 2338 
Q 2531 2678 2651 2914 
Q 2772 3150 2772 3378 
Q 2772 3750 2511 3984 
Q 2250 4219 1831 4219 
Q 1534 4219 1204 4116 
Q 875 4013 500 3803 
L 500 4441 
Q 881 4594 1212 4672 
Q 1544 4750 1819 4750 
Q 2544 4750 2975 4387 
Q 3406 4025 3406 3419 
Q 3406 3131 3298 2873 
Q 3191 2616 2906 2266 
Q 2828 2175 2409 1742 
Q 1991 1309 1228 531 
z
" transform="scale(0.015625)"/>
        <path id="DejaVuSans-30" d="M 2034 4250 
Q 1547 4250 1301 3770 
Q 1056 3291 1056 2328 
Q 1056 1369 1301 889 
Q 1547 409 2034 409 
Q 2525 409 2770 889 
Q 3016 1369 3016 2328 
Q 3016 3291 2770 3770 
Q 2525 4250 2034 4250 
z
M 2034 4750 
Q 2819 4750 3233 4129 
Q 3647 3509 3647 2328 
Q 3647 1150 3233 529 
Q 2819 -91 2034 -91 
Q 1250 -91 836 529 
Q 422 1150 422 2328 
Q 422 3509 836 4129 
Q 1250 4750 2034 4750 
z
" transform="scale(0.015625)"/>
       </defs>
       <use xlink:href="#DejaVuSans-32"/>
       <use xlink:href="#DejaVuSans-30" transform="translate(63.623047 0)"/>
       <use xlink:href="#DejaVuSans-32" transform="translate(127.246094 0)"/>
       <use xlink:href="#DejaVuSans-30" transform="translate(190.869141 0)"/>
      </g>
     </g>
    </g>
    <g id="xtick_2">
     <g id="line2d_2">
      <g>
       <use xlink:href="#m4e4304f084" x="130.63994" y="224.28" style="stroke: #000000; stroke-width: 0.8"/>
      </g>
     </g>
     <g id="text_2">
      <!-- 2021 -->
      <g transform="translate(117.91494 238.878438) scale(0.1 -0.1)">
       <defs>
        <path id="DejaVuSans-31" d="M 794 531 
L 1825 531 
L 1825 4091 
L 703 3866 
L 703 4441 
L 1819 4666 
L 2450 4666 
L 2450 531 
L 3481 531 
L 3481 0 
L 794 0 
L 794 531 
z
" transform="scale(0.015625)"/>
       </defs>
       <use xlink:href="#DejaVuSans-32"/>
       <use xlink:href="#DejaVuSans-30" transform="translate(63.623047 0)"/>
       <use xlink:href="#DejaVuSans-32" transform="translate(127.246094 0)"/>
       <use xlink:href="#DejaVuSans-31" transform="translate(190.869141 0)"/>
      </g>
     </g>
    </g>
    <g id="xtick_3">
     <g id="line2d_3">
      <g>
       <use xlink:href="#m4e4304f084" x="189.51981" y="224.28" style="stroke: #000000; stroke-width: 0.8"/>
      </g>
     </g>
     <g id="text_3">
      <!-- 2022 -->
      <g transform="translate(176.79481 238.878438) scale(0.1 -0.1)">
       <use xlink:href="#DejaVuSans-32"/>
       <use xlink:href="#DejaVuSans-30" transform="translate(63.623047 0)"/>
       <use xlink:href="#DejaVuSans-32" transform="translate(127.246094 0)"/>
       <use xlink:href="#DejaVuSans-32" transform="translate(190.869141 0)"/>
      </g>
     </g>
    </g>
    <g id="xtick_4">
     <g id="line2d_4">
      <g>
       <use xlink:href="#m4e4304f084" x="248.39968" y="224.28" style="stroke: #000000; stroke-width: 0.8"/>
      </g>
     </g>
     <g id="text_4">
      <!-- 2023 -->
      <g transform="translate(235.67468 238.878438) scale(0.1 -0.1)">
       <defs>
        <path id="DejaVuSans-33" d="M 2597 2516 
Q 3050 2419 3304 2112 
Q 3559 1806 3559 1356 
Q 3559 666 3084 287 
Q 2609 -91 1734 -91 
Q 1441 -91 1130 -33 
Q 819 25 488 141 
L 488 750 
Q 750 597 1062 519 
Q 1375 441 1716 441 
Q 2309 441 2620 675 
Q 2931 909 2931 1356 
Q 2931 1769 2642 2001 
Q 2353 2234 1838 2234 
L 1294 2234 
L 1294 2753 
L 1863 2753 
Q 2328 2753 2575 2939 
Q 2822 3125 2822 3475 
Q 2822 3834 2567 4026 
Q 2313 4219 1838 4219 
Q 1578 4219 1281 4162 
Q 984 4106 628 3988 
L 628 4550 
Q 988 4650 1302 4700 
Q 1616 4750 1894 4750 
Q 2613 4750 3031 4423 
Q 3450 4097 3450 3541 
Q 3450 3153 3228 2886 
Q 3006 2619 2597 2516 
z
" transform="scale(0.015625)"/>
       </defs>
       <use xlink:href="#DejaVuSans-32"/>
       <use xlink:href="#DejaVuSans-30" transform="translate(63.623047 0)"/>
       <use xlink:href="#DejaVuSans-32" transform="translate(127.246094 0)"/>
       <use xlink:href="#DejaVuSans-33" transform="translate(190.869141 0)"/>
      </g>
     </g>
    </g>
    <g id="xtick_5">
     <g id="line2d_5">
      <g>
       <use xlink:href="#m4e4304f084" x="307.27955" y="224.28" style="stroke: #000000; stroke-width: 0.8"/>
      </g>
     </g>
     <g id="text_5">
      <!-- 2024 -->
      <g transform="translate(294.55455 238.878438) scale(0.1 -0.1)">
       <defs>
        <path id="DejaVuSans-34" d="M 2419 4116 
L 825 1625 
L 2419 1625 
L 2419 4116 
z
M 2253 4666 
L 3047 4666 
L 3047 1625 
L 3713 1625 
L 3713 1100 
L 3047 1100 
L 3047 0 
L 2419 0 
L 2419 1100 
L 313 1100 
L 313 1709 
L 2253 4666 
z
" transform="scale(0.015625)"/>
       </defs>
       <use xlink:href="#DejaVuSans-32"/>
       <use xlink:href="#DejaVuSans-30" transform="translate(63.623047 0)"/>
       <use xlink:href="#DejaVuSans-32" transform="translate(127.246094 0)"/>
       <use xlink:href="#DejaVuSans-34" transform="translate(190.869141 0)"/>
      </g>
     </g>
    </g>
    <g id="xtick_6">
     <g id="line2d_6">
      <g>
       <use xlink:href="#m4e4304f084" x="366.320735" y="224.28" style="stroke: #000000; stroke-width: 0.8"/>
      </g>
     </g>
     <g id="text_6">
      <!-- 2025 -->
      <g transform="translate(353.595735 238.878438) scale(0.1 -0.1)">
       <defs>
        <path id="DejaVuSans-35" d="M 691 4666 
L 3169 4666 
L 3169 4134 
L 1269 4134 
L 1269 2991 
Q 1406 3038 1543 3061 
Q 1681 3084 1819 3084 
Q 2600 3084 3056 2656 
Q 3513 2228 3513 1497 
Q 3513 744 3044 326 
Q 2575 -91 1722 -91 
Q 1428 -91 1123 -41 
Q 819 9 494 109 
L 494 744 
Q 775 591 1075 516 
Q 1375 441 1709 441 
Q 2250 441 2565 725 
Q 2881 1009 2881 1497 
Q 2881 1984 2565 2268 
Q 2250 2553 1709 2553 
Q 1456 2553 1204 2497 
Q 953 2441 691 2322 
L 691 4666 
z
" transform="scale(0.015625)"/>
       </defs>
       <use xlink:href="#DejaVuSans-32"/>
       <use xlink:href="#DejaVuSans-30" transform="translate(63.623047 0)"/>
       <use xlink:href="#DejaVuSans-32" transform="translate(127.246094 0)"/>
       <use xlink:href="#DejaVuSans-35" transform="translate(190.869141 0)"/>
      </g>
     </g>
    </g>
   </g>
   <g id="matplotlib.axis_2">
    <g id="ytick_1">
     <g id="line2d_7">
      <defs>
       <path id="md6999ef207" d="M 0 0 
L -3.5 0 
" style="stroke: #000000; stroke-width: 0.8"/>
      </defs>
      <g>
       <use xlink:href="#md6999ef207" x="58.5" y="217.463544" style="stroke: #000000; stroke-width: 0.8"/>
      </g>
     </g>
     <g id="text_7">
      <!-- 80 -->
      <g transform="translate(38.775 221.262763) scale(0.1 -0.1)">
       <defs>
        <path id="DejaVuSans-38" d="M 2034 2216 
Q 1584 2216 1326 1975 
Q 1069 1734 1069 1313 
Q 1069 891 1326 650 
Q 1584 409 2034 409 
Q 2484 409 2743 651 
Q 3003 894 3003 1313 
Q 3003 1734 2745 1975 
Q 2488 2216 2034 2216 
z
M 1403 2484 
Q 997 2584 770 2862 
Q 544 3141 544 3541 
Q 544 4100 942 4425 
Q 1341 4750 2034 4750 
Q 2731 4750 3128 4425 
Q 3525 4100 3525 3541 
Q 3525 3141 3298 2862 
Q 3072 2584 2669 2484 
Q 3125 2378 3379 2068 
Q 3634 1759 3634 1313 
Q 3634 634 3220 271 
Q 2806 -91 2034 -91 
Q 1263 -91 848 271 
Q 434 634 434 1313 
Q 434 1759 690 2068 
Q 947 2378 1403 2484 
z
M 1172 3481 
Q 1172 3119 1398 2916 
Q 1625 2713 2034 2713 
Q 2441 2713 2670 2916 
Q 2900 3119 2900 3481 
Q 2900 3844 2670 4047 
Q 2441 4250 2034 4250 
Q 1625 4250 1398 4047 
Q 1172 3844 1172 3481 
z
" transform="scale(0.015625)"/>
       </defs>
       <use xlink:href="#DejaVuSans-38"/>
       <use xlink:href="#DejaVuSans-30" transform="translate(63.623047 0)"/>
      </g>
     </g>
    </g>
    <g id="ytick_2">
     <g id="line2d_8">
      <g>
       <use xlink:href="#md6999ef207" x="58.5" y="195.44657" style="stroke: #000000; stroke-width: 0.8"/>
      </g>
     </g>
     <g id="text_8">
      <!-- 100 -->
      <g transform="translate(32.4125 199.245788) scale(0.1 -0.1)">
       <use xlink:href="#DejaVuSans-31"/>
       <use xlink:href="#DejaVuSans-30" transform="translate(63.623047 0)"/>
       <use xlink:href="#DejaVuSans-30" transform="translate(127.246094 0)"/>
      </g>
     </g>
    </g>
    <g id="ytick_3">
     <g id="line2d_9">
      <g>
       <use xlink:href="#md6999ef207" x="58.5" y="173.429595" style="stroke: #000000; stroke-width: 0.8"/>
      </g>
     </g>
     <g id="text_9">
      <!-- 120 -->
      <g transform="translate(32.4125 177.228813) scale(0.1 -0.1)">
       <use xlink:href="#DejaVuSans-31"/>
       <use xlink:href="#DejaVuSans-32" transform="translate(63.623047 0)"/>
       <use xlink:href="#DejaVuSans-30" transform="translate(127.246094 0)"/>
      </g>
     </g>
    </g>
    <g id="ytick_4">
     <g id="line2d_10">
      <g>
       <use xlink:href="#md6999ef207" x="58.5" y="151.41262" style="stroke: #000000; stroke-width: 0.8"/>
      </g>
     </g>
     <g id="text_10">
      <!-- 140 -->
      <g transform="translate(32.4125 155.211839) scale(0.1 -0.1)">
       <use xlink:href="#DejaVuSans-31"/>
       <use xlink:href="#DejaVuSans-34" transform="translate(63.623047 0)"/>
       <use xlink:href="#DejaVuSans-30" transform="translate(127.246094 0)"/>
      </g>
     </g>
    </g>
    <g id="ytick_5">
     <g id="line2d_11">
      <g>
       <use xlink:href="#md6999ef207" x="58.5" y="129.395645" style="stroke: #000000; stroke-width: 0.8"/>
      </g>
     </g>
     <g id="text_11">
      <!-- 160 -->
      <g transform="translate(32.4125 133.194864) scale(0.1 -0.1)">
       <defs>
        <path id="DejaVuSans-36" d="M 2113 2584 
Q 1688 2584 1439 2293 
Q 1191 2003 1191 1497 
Q 1191 994 1439 701 
Q 1688 409 2113 409 
Q 2538 409 2786 701 
Q 3034 994 3034 1497 
Q 3034 2003 2786 2293 
Q 2538 2584 2113 2584 
z
M 3366 4563 
L 3366 3988 
Q 3128 4100 2886 4159 
Q 2644 4219 2406 4219 
Q 1781 4219 1451 3797 
Q 1122 3375 1075 2522 
Q 1259 2794 1537 2939 
Q 1816 3084 2150 3084 
Q 2853 3084 3261 2657 
Q 3669 2231 3669 1497 
Q 3669 778 3244 343 
Q 2819 -91 2113 -91 
Q 1303 -91 875 529 
Q 447 1150 447 2328 
Q 447 3434 972 4092 
Q 1497 4750 2381 4750 
Q 2619 4750 2861 4703 
Q 3103 4656 3366 4563 
z
" transform="scale(0.015625)"/>
       </defs>
       <use xlink:href="#DejaVuSans-31"/>
       <use xlink:href="#DejaVuSans-36" transform="translate(63.623047 0)"/>
       <use xlink:href="#DejaVuSans-30" transform="translate(127.246094 0)"/>
      </g>
     </g>
    </g>
    <g id="ytick_6">
     <g id="line2d_12">
      <g>
       <use xlink:href="#md6999ef207" x="58.5" y="107.37867" style="stroke: #000000; stroke-width: 0.8"/>
      </g>
     </g>
     <g id="text_12">
      <!-- 180 -->
      <g transform="translate(32.4125 111.177889) scale(0.1 -0.1)">
       <use xlink:href="#DejaVuSans-31"/>
       <use xlink:href="#DejaVuSans-38" transform="translate(63.623047 0)"/>
       <use xlink:href="#DejaVuSans-30" transform="translate(127.246094 0)"/>
      </g>
     </g>
    </g>
    <g id="ytick_7">
     <g id="line2d_13">
      <g>
       <use xlink:href="#md6999ef207" x="58.5" y="85.361695" style="stroke: #000000; stroke-width: 0.8"/>
      </g>
     </g>
     <g id="text_13">
      <!-- 200 -->
      <g transform="translate(32.4125 89.160914) scale(0.1 -0.1)">
       <use xlink:href="#DejaVuSans-32"/>
       <use xlink:href="#DejaVuSans-30" transform="translate(63.623047 0)"/>
       <use xlink:href="#DejaVuSans-30" transform="translate(127.246094 0)"/>
      </g>
     </g>
    </g>
    <g id="ytick_8">
     <g id="line2d_14">
      <g>
       <use xlink:href="#md6999ef207" x="58.5" y="63.344721" style="stroke: #000000; stroke-width: 0.8"/>
      </g>
     </g>
     <g id="text_14">
      <!-- 220 -->
      <g transform="translate(32.4125 67.143939) scale(0.1 -0.1)">
       <use xlink:href="#DejaVuSans-32"/>
       <use xlink:href="#DejaVuSans-32" transform="translate(63.623047 0)"/>
       <use xlink:href="#DejaVuSans-30" transform="translate(127.246094 0)"/>
      </g>
     </g>
    </g>
    <g id="ytick_9">
     <g id="line2d_15">
      <g>
       <use xlink:href="#md6999ef207" x="58.5" y="41.327746" style="stroke: #000000; stroke-width: 0.8"/>
      </g>
     </g>
     <g id="text_15">
      <!-- 240 -->
      <g transform="translate(32.4125 45.126964) scale(0.1 -0.1)">
       <use xlink:href="#DejaVuSans-32"/>
       <use xlink:href="#DejaVuSans-34" transform="translate(63.623047 0)"/>
       <use xlink:href="#DejaVuSans-30" transform="translate(127.246094 0)"/>
      </g>
     </g>
    </g>
   </g>
   <g id="line2d_16">
    <path d="M 74.986364 201.641044 
L 75.147678 201.799572 
L 75.308993 203.06224 
L 75.792937 204.895154 
L 75.954252 203.524049 
L 76.115567 203.262594 
L 76.276881 202.564661 
L 76.438196 194.966603 
L 76.92214 195.215392 
L 77.083455 192.712614 
L 77.24477 193.252028 
L 77.406084 192.681791 
L 77.567399 191.082809 
L 78.373973 186.63978 
L 78.696602 188.022996 
L 79.341861 186.878113 
L 79.503176 186.077244 
L 79.66449 187.019574 
L 79.825805 190.164147 
L 80.471064 196.947025 
L 80.632379 196.569986 
L 80.793693 201.814984 
L 80.955008 201.845253 
L 81.438952 197.981271 
L 81.600267 200.455981 
L 81.761582 196.776949 
L 82.084211 200.890821 
L 82.568155 206.421479 
L 82.72947 201.401057 
L 82.890785 205.306873 
L 83.052099 213.246746 
L 83.213414 207.280694 
L 83.697358 212.556515 
L 83.858673 206.023526 
L 84.019988 204.803784 
L 84.181302 202.000471 
L 84.342617 203.918155 
L 84.826561 200.795041 
L 84.987876 198.743615 
L 85.149191 201.730214 
L 85.310505 197.896511 
L 85.47182 200.945312 
L 85.955764 197.430847 
L 86.117079 198.214103 
L 86.278394 200.526984 
L 86.439708 199.914367 
L 86.601023 200.588085 
L 87.407597 193.079743 
L 87.568911 193.092954 
L 88.21417 186.151557 
L 88.375485 179.851946 
L 88.5368 178.51111 
L 88.698114 172.978797 
L 88.859429 174.805656 
L 89.343373 173.78132 
L 89.504688 177.386047 
L 89.988632 172.867059 
L 90.472576 174.75061 
L 90.633891 178.158838 
L 90.795205 174.931705 
L 90.95652 169.356458 
L 91.117835 179.702229 
L 91.601779 178.05371 
L 91.763094 177.954084 
L 92.085723 175.212418 
L 92.730982 172.934216 
L 92.892297 175.799168 
L 93.053611 175.195352 
L 93.376241 172.891281 
L 93.860185 171.984176 
L 94.0215 170.714352 
L 94.182814 168.038735 
L 94.344129 170.856913 
L 94.505444 171.399628 
L 95.150703 172.226364 
L 95.473332 173.369048 
L 95.634647 171.097447 
L 96.118591 169.519378 
L 96.279906 169.443973 
L 96.44122 169.11427 
L 96.602535 170.094024 
L 96.76385 168.861071 
L 97.247794 166.601027 
L 97.570423 159.809346 
L 97.731738 164.735088 
L 97.893053 165.447341 
L 98.376997 163.924864 
L 98.699626 160.165473 
L 99.5062 156.156183 
L 99.667515 153.371575 
L 99.828829 155.023402 
L 99.990144 153.912643 
L 100.151459 157.309323 
L 100.635403 157.996799 
L 101.119347 146.442288 
L 101.764606 137.264506 
L 101.925921 140.397531 
L 102.409865 129.395645 
L 103.055124 135.780571 
L 103.216438 139.91591 
L 103.377753 140.409642 
L 103.539068 142.497401 
L 104.023012 129.569584 
L 104.506956 141.144454 
L 104.668271 139.913709 
L 105.152215 137.365242 
L 105.31353 140.385974 
L 105.636159 137.548537 
L 105.797474 131.339751 
L 106.281418 134.245437 
L 106.442733 132.762593 
L 106.604047 129.118787 
L 106.765362 128.019584 
L 106.926677 131.186725 
L 107.410621 132.24904 
L 107.571936 135.963867 
L 107.73325 131.474048 
L 107.894565 131.541205 
L 108.05588 132.25675 
L 108.539824 130.363843 
L 108.701139 123.203925 
L 108.862453 126.066676 
L 109.023768 124.036163 
L 109.185083 124.732458 
L 109.669027 123.480784 
L 109.830342 121.332486 
L 109.991656 116.083633 
L 110.152971 118.387158 
L 110.314286 118.288085 
L 110.79823 115.58219 
L 111.120859 111.151835 
L 111.443489 124.187527 
L 112.088748 132.156569 
L 112.250062 125.619188 
L 112.572692 134.007095 
L 113.056636 134.736414 
L 113.217951 131.810353 
L 113.701895 142.885997 
L 114.185839 142.579962 
L 114.347154 133.304216 
L 114.508468 140.411843 
L 114.669783 139.31484 
L 114.831098 135.167945 
L 115.315042 130.823997 
L 115.476357 132.429581 
L 115.637671 132.217679 
L 115.798986 128.225439 
L 115.960301 133.523828 
L 116.444245 129.439672 
L 116.60556 134.902089 
L 116.766874 129.632878 
L 116.928189 129.9158 
L 117.089504 124.626213 
L 117.573448 116.024186 
L 117.734762 115.985652 
L 118.057392 121.764017 
L 118.218707 125.393512 
L 118.702651 128.998785 
L 118.863965 128.459379 
L 119.02528 130.224591 
L 119.186595 130.694638 
L 119.34791 129.153457 
L 119.831854 129.008141 
L 119.993168 124.643834 
L 120.154483 131.444316 
L 120.315798 128.789621 
L 120.477113 138.414354 
L 120.961057 140.157543 
L 121.122371 137.739526 
L 121.445001 122.680461 
L 121.606316 123.265572 
L 122.09026 132.492336 
L 122.251574 138.476539 
L 122.412889 132.841845 
L 122.574204 134.334044 
L 122.735519 133.31411 
L 123.219463 133.190278 
L 123.380777 132.93707 
L 123.542092 134.599363 
L 123.703407 133.963069 
L 123.864722 134.932913 
L 124.348666 134.988513 
L 124.50998 133.905822 
L 124.671295 130.217435 
L 124.993925 129.652145 
L 125.477869 131.154809 
L 125.639183 128.290395 
L 126.123128 131.455335 
L 126.607072 131.707434 
L 126.768386 130.645657 
L 126.929701 134.668703 
L 127.091016 134.817883 
L 127.736275 131.764126 
L 127.897589 131.315529 
L 128.058904 127.141102 
L 128.220219 127.409713 
L 128.381534 129.30482 
L 129.026792 129.036764 
L 129.349422 130.898847 
L 130.155995 122.680461 
L 130.478625 126.262083 
L 131.123884 130.131566 
L 131.285198 128.376802 
L 131.446513 132.787353 
L 131.769143 130.347885 
L 132.253087 134.117741 
L 132.414401 133.75335 
L 132.575716 131.273148 
L 132.898345 134.665965 
L 133.543604 133.757214 
L 133.704919 125.907048 
L 133.866234 123.506652 
L 134.027548 124.319086 
L 134.511493 124.221659 
L 134.672807 122.453139 
L 134.834122 127.602365 
L 134.995437 127.324952 
L 135.156751 129.054385 
L 135.80201 119.488006 
L 135.963325 123.201725 
L 136.285954 121.02094 
L 136.769899 122.628724 
L 137.253843 125.975851 
L 137.415157 125.118299 
L 138.060416 125.600475 
L 138.383046 122.337554 
L 138.54436 126.649033 
L 139.028305 130.45576 
L 139.189619 129.698372 
L 139.350934 131.623211 
L 139.512249 137.257905 
L 139.673563 135.289039 
L 140.157508 132.360223 
L 140.318822 135.200969 
L 140.480137 140.12892 
L 140.641452 141.638741 
L 140.802766 140.378818 
L 141.286711 143.048918 
L 141.448025 136.944713 
L 141.60934 137.231482 
L 141.770655 134.151857 
L 141.931969 135.478382 
L 142.415914 135.908267 
L 142.577228 135.347932 
L 142.738543 132.933224 
L 142.899858 138.863488 
L 143.061172 136.27815 
L 143.545117 134.301574 
L 143.706431 132.835797 
L 144.029061 137.857865 
L 144.190375 137.540273 
L 144.67432 136.23577 
L 144.835634 137.360841 
L 144.996949 135.225746 
L 145.158264 131.542297 
L 145.803523 127.924358 
L 145.964837 128.084541 
L 146.448781 119.917337 
L 146.932725 119.521585 
L 147.09404 118.387158 
L 147.255355 122.075008 
L 147.577984 118.417981 
L 148.061928 119.927802 
L 148.223243 121.981982 
L 148.384558 120.477672 
L 148.545873 123.393822 
L 148.707187 121.64126 
L 149.675076 114.462075 
L 149.83639 114.676194 
L 150.320334 119.130788 
L 150.642964 125.512959 
L 150.804279 123.540785 
L 150.965593 124.353201 
L 151.449537 129.919092 
L 151.610852 128.079585 
L 151.772167 132.040984 
L 151.933482 131.516428 
L 152.094796 128.135169 
L 152.57874 125.521207 
L 152.740055 127.618877 
L 152.90137 127.6453 
L 153.062685 126.771219 
L 153.223999 129.226107 
L 154.030573 125.809085 
L 154.191888 127.738325 
L 154.353202 128.125812 
L 154.998461 128.369109 
L 155.159776 127.52476 
L 155.321091 130.110652 
L 155.482405 129.053276 
L 155.966349 129.505182 
L 156.127664 125.866868 
L 156.288979 124.928957 
L 156.450294 121.158546 
L 156.611608 121.313756 
L 157.095552 119.274996 
L 157.256867 119.31573 
L 157.418182 117.547764 
L 157.579497 113.475164 
L 157.740811 113.603969 
L 158.224755 115.41707 
L 158.38607 112.58348 
L 158.547385 112.672658 
L 158.870014 118.306798 
L 159.515273 115.737417 
L 159.837903 116.57241 
L 159.999217 112.278552 
L 160.967105 100.145548 
L 161.12842 100.809911 
L 161.612364 100.853383 
L 161.773679 103.120591 
L 161.934994 102.882804 
L 162.257623 108.830136 
L 162.741567 110.153351 
L 163.064197 108.193304 
L 163.386826 104.261066 
L 163.87077 101.884337 
L 164.032085 105.926096 
L 164.1934 105.709776 
L 164.354714 107.383071 
L 164.516029 122.372779 
L 164.999973 122.15866 
L 165.161288 120.245394 
L 165.322603 120.879488 
L 165.483917 119.708727 
L 165.645232 121.417801 
L 166.129176 121.586768 
L 166.451806 124.325687 
L 166.61312 123.698749 
L 166.774435 124.223305 
L 167.258379 123.947001 
L 167.581009 129.328488 
L 167.742323 130.069918 
L 167.903638 129.3984 
L 168.387582 125.769997 
L 168.548897 123.573254 
L 168.710212 123.936537 
L 168.871526 123.010719 
L 169.032841 121.159638 
L 169.516785 117.199885 
L 169.6781 114.490698 
L 169.839415 114.038808 
L 170.000729 114.912873 
L 170.162044 114.091099 
L 170.807303 112.371578 
L 170.968618 111.479338 
L 171.291247 114.580968 
L 171.936506 115.635036 
L 172.259135 113.53021 
L 172.42045 114.945897 
L 173.065709 121.489896 
L 173.388338 117.506475 
L 173.549653 116.982474 
L 174.033597 118.067919 
L 174.194912 123.012919 
L 174.517541 124.714837 
L 174.678856 124.812818 
L 175.1628 129.958181 
L 175.646744 123.757642 
L 176.292003 126.847178 
L 176.453318 126.790486 
L 176.775947 123.899111 
L 176.937262 117.89067 
L 177.421206 115.814468 
L 177.582521 115.957029 
L 177.743836 117.558212 
L 177.90515 116.460118 
L 178.066465 121.934647 
L 178.550409 122.770194 
L 178.711724 119.704326 
L 178.873039 118.80053 
L 179.034353 115.823824 
L 179.195668 119.904671 
L 179.679612 122.89458 
L 179.840927 123.189614 
L 180.324871 111.837665 
L 180.808815 113.489476 
L 180.97013 108.687037 
L 181.131445 113.870933 
L 181.292759 114.396581 
L 181.454074 111.498589 
L 181.938018 110.368579 
L 182.099333 110.642683 
L 182.260648 110.185838 
L 182.421962 102.091301 
L 182.583277 103.164064 
L 183.067221 108.888491 
L 183.228536 108.477318 
L 183.389851 108.45696 
L 183.71248 112.631924 
L 184.196424 109.493944 
L 184.519054 115.980697 
L 184.680368 116.330776 
L 184.841683 118.949139 
L 185.325627 116.880646 
L 185.486942 111.60097 
L 185.648257 111.608126 
L 185.970886 115.952074 
L 186.616145 119.387271 
L 186.77746 114.737841 
L 186.938774 119.630013 
L 187.100089 118.367891 
L 187.584033 121.602743 
L 187.745348 117.928096 
L 187.906663 117.245575 
L 188.067977 117.210904 
L 188.713236 118.750994 
L 188.874551 117.659502 
L 189.358495 122.001249 
L 189.842439 117.94187 
L 190.326383 125.813486 
L 190.487698 126.584076 
L 190.971642 127.759792 
L 191.132957 123.492895 
L 191.294271 123.663525 
L 191.455586 128.05921 
L 191.616901 127.04203 
L 192.26216 130.587319 
L 192.423474 133.469891 
L 192.584789 138.568472 
L 192.746104 148.503071 
L 193.230048 146.410356 
L 193.391363 151.42804 
L 193.552677 152.65383 
L 193.713992 151.811681 
L 193.875307 147.033447 
L 194.520566 139.090273 
L 194.68188 139.729859 
L 194.843195 152.683545 
L 195.00451 131.994203 
L 195.488454 131.668346 
L 195.649769 127.839598 
L 195.811083 128.086187 
L 195.972398 130.492647 
L 196.133713 136.778484 
L 196.617657 134.716039 
L 196.940286 131.486713 
L 197.262916 137.540273 
L 197.908175 140.186721 
L 198.069489 146.098828 
L 198.392119 136.233569 
L 198.876063 136.481804 
L 199.037378 139.146965 
L 199.198692 138.144634 
L 199.521322 145.202725 
L 200.166581 155.800057 
L 200.327895 152.206324 
L 200.48921 143.907578 
L 201.134469 149.372751 
L 201.779728 128.01903 
L 202.263672 127.753728 
L 202.424987 124.013587 
L 202.586301 125.643947 
L 202.747616 125.378091 
L 202.908931 124.140745 
L 203.392875 119.498471 
L 203.55419 119.141236 
L 203.876819 126.095854 
L 204.038134 125.476626 
L 204.522078 120.207415 
L 205.006022 131.834575 
L 205.167337 135.493802 
L 205.651281 139.168987 
L 205.812596 139.537207 
L 205.97391 134.304329 
L 206.135225 138.525537 
L 206.780484 137.338265 
L 206.941799 131.470201 
L 207.425743 146.623921 
L 207.909687 144.726059 
L 208.071002 152.08303 
L 208.232316 153.430467 
L 208.393631 146.352572 
L 208.554946 168.716309 
L 209.03889 168.475775 
L 209.200205 168.747133 
L 209.361519 166.903216 
L 209.522834 177.384947 
L 210.168093 185.771208 
L 210.329408 185.694149 
L 210.490722 189.532808 
L 210.652037 187.817142 
L 210.813352 181.074989 
L 211.297296 183.545843 
L 211.458611 178.528176 
L 211.619925 187.61678 
L 211.942555 187.090023 
L 212.426499 187.127456 
L 212.587814 190.933091 
L 212.910443 183.251918 
L 213.071758 178.772564 
L 213.878331 171.575768 
L 214.039646 167.362816 
L 214.200961 170.842602 
L 214.684905 168.156528 
L 215.007534 172.130593 
L 215.330164 184.823378 
L 215.975423 192.903612 
L 216.136737 187.003062 
L 216.298052 191.417459 
L 216.459367 188.599289 
L 217.26594 185.593977 
L 217.58857 177.3266 
L 218.072514 180.893348 
L 218.233829 187.300287 
L 218.395143 185.627001 
L 218.556458 188.6103 
L 218.717773 184.922458 
L 219.524346 179.671405 
L 219.685661 177.469708 
L 219.846976 178.339379 
L 220.33092 182.511597 
L 220.492234 185.296743 
L 220.653549 183.997741 
L 220.814864 183.74455 
L 220.976179 180.530066 
L 221.460123 180.298889 
L 221.944067 168.332668 
L 222.105382 170.765543 
L 222.589326 172.174628 
L 222.75064 179.143002 
L 222.911955 172.36177 
L 223.07327 170.919661 
L 223.234585 156.971909 
L 223.718529 156.487533 
L 223.879843 157.841572 
L 224.202473 148.583431 
L 224.363788 150.531938 
L 224.847732 152.062117 
L 225.009046 153.80146 
L 225.170361 148.451334 
L 225.331676 150.708077 
L 225.492991 147.504603 
L 225.976935 147.911929 
L 226.138249 146.150564 
L 226.299564 149.100831 
L 226.460879 148.880664 
L 226.622194 153.361127 
L 227.106138 158.876373 
L 227.428767 158.237879 
L 227.590082 154.40693 
L 227.751397 161.595471 
L 228.235341 162.652293 
L 228.396655 163.81919 
L 228.55797 165.976852 
L 228.719285 164.820958 
L 229.525858 166.703408 
L 229.687173 162.993553 
L 229.848488 162.619252 
L 230.009803 158.821327 
L 230.493747 155.320636 
L 230.655061 165.921807 
L 230.816376 164.017335 
L 231.139006 169.5436 
L 231.62295 168.299636 
L 232.268209 180.276875 
L 232.752153 178.768709 
L 232.913467 179.583335 
L 233.074782 175.620281 
L 233.397411 181.135536 
L 233.881356 177.965095 
L 234.04267 172.229674 
L 234.203985 172.383792 
L 234.3653 173.099337 
L 234.526614 179.418215 
L 235.010559 180.397969 
L 235.171873 182.005207 
L 235.333188 181.245619 
L 235.494503 181.652936 
L 235.655817 187.850712 
L 236.301076 177.436683 
L 236.462391 178.856779 
L 236.623706 178.658626 
L 236.78502 174.178172 
L 237.268965 173.627748 
L 237.430279 172.769087 
L 237.914223 191.692671 
L 238.398168 192.760496 
L 238.882112 207.225648 
L 239.043426 205.376221 
L 239.527371 205.871608 
L 239.688685 206.47707 
L 239.85 210.704334 
L 240.172629 194.576898 
L 240.656574 197.108853 
L 240.817888 196.613467 
L 241.301832 201.897544 
L 241.785777 203.74697 
L 242.108406 201.908555 
L 242.431035 202.701159 
L 242.91498 202.106708 
L 243.076294 203.791005 
L 243.237609 199.255505 
L 244.044183 205.343197 
L 244.205497 208.381542 
L 244.366812 208.150365 
L 244.528127 206.069762 
L 244.689441 207.456833 
L 245.173386 205.849587 
L 245.3347 203.713946 
L 245.496015 204.715714 
L 245.65733 208.161376 
L 245.818644 208.810873 
L 246.302589 212.047371 
L 246.463903 211.750137 
L 246.625218 210.010802 
L 246.786533 213.291327 
L 246.947847 211.684088 
L 247.593106 214.116963 
L 247.754421 215.46 
L 247.915736 212.861996 
L 248.07705 213.060149 
L 248.722309 211.056605 
L 248.883624 211.805183 
L 249.044939 214.028893 
L 249.206253 210.770382 
L 249.690197 209.361297 
L 249.851512 206.598164 
L 250.012827 200.851741 
L 250.174142 200.653588 
L 250.335456 197.516162 
L 251.14203 200.444424 
L 251.303345 202.403933 
L 251.464659 198.473904 
L 251.948603 198.176678 
L 252.109918 199.497693 
L 252.271233 198.550963 
L 252.593862 192.980671 
L 253.077806 194.841099 
L 253.400436 189.777197 
L 253.561751 181.234608 
L 253.723065 191.714693 
L 254.207009 193.046719 
L 254.368324 193.123778 
L 254.690954 197.384066 
L 254.852268 198.077597 
L 255.336212 195.952959 
L 255.497527 195.776828 
L 255.658842 194.169581 
L 255.981471 198.528949 
L 256.62673 201.413168 
L 256.788045 200.081142 
L 256.94936 200.048118 
L 257.110674 202.602086 
L 257.594618 202.315863 
L 257.755933 201.798463 
L 257.917248 204.066217 
L 258.078563 204.110252 
L 258.239877 201.060896 
L 258.885136 202.547041 
L 259.046451 202.139732 
L 259.36908 205.651434 
L 259.853024 203.779994 
L 260.336969 195.402535 
L 260.498283 196.602464 
L 260.982227 197.967514 
L 261.143542 194.775051 
L 261.304857 196.877676 
L 261.466171 196.866665 
L 261.627486 197.50516 
L 262.11143 197.604232 
L 262.272745 198.484914 
L 262.595374 193.244872 
L 262.756689 191.824776 
L 263.240633 192.79352 
L 263.401948 191.09822 
L 263.563263 194.235638 
L 263.724577 193.178824 
L 264.369836 193.05773 
L 264.692466 197.835409 
L 264.85378 192.804531 
L 265.499039 192.430246 
L 265.660354 192.914614 
L 265.821669 190.712917 
L 265.982983 191.252339 
L 266.144298 187.784663 
L 266.628242 188.6103 
L 266.789557 192.617389 
L 266.950872 189.964339 
L 267.112186 184.636235 
L 267.273501 189.446947 
L 267.757445 193.189826 
L 267.91876 191.450492 
L 268.080075 191.42847 
L 268.241389 191.043175 
L 268.402704 189.215762 
L 268.886648 189.028619 
L 269.047963 188.158948 
L 269.370592 182.038232 
L 269.531907 184.151859 
L 270.015851 183.117067 
L 270.499795 175.466163 
L 270.66111 177.557777 
L 271.145054 178.922828 
L 271.306369 178.944849 
L 271.467684 177.007353 
L 271.628998 178.933838 
L 271.790313 173.308501 
L 272.435572 171.602182 
L 272.596887 172.7911 
L 272.919516 168.750988 
L 273.40346 167.595093 
L 273.564775 166.152984 
L 273.72609 172.075547 
L 273.887404 168.750988 
L 274.048719 169.653683 
L 274.532663 166.197019 
L 274.693978 166.097938 
L 274.855293 166.362148 
L 275.016607 165.602559 
L 275.177922 167.385937 
L 275.823181 167.06669 
L 275.984496 168.112493 
L 276.14581 162.255987 
L 276.791069 165.360371 
L 276.952384 163.323811 
L 277.113699 163.477929 
L 277.275013 164.732888 
L 277.436328 162.024801 
L 277.920272 162.178919 
L 278.242902 162.002779 
L 278.404216 164.226499 
L 278.565531 162.663295 
L 279.049475 165.580546 
L 279.372105 161.540425 
L 279.533419 157.687454 
L 279.694734 157.269143 
L 280.178678 158.502088 
L 280.339993 159.305703 
L 280.501308 156.520557 
L 280.662622 162.465134 
L 280.823937 162.421107 
L 281.307881 163.742122 
L 281.469196 163.37884 
L 281.630511 164.457684 
L 281.791825 164.347593 
L 281.95314 159.988224 
L 282.437084 158.369992 
L 282.598399 160.56067 
L 282.759714 164.391619 
L 282.921028 163.621028 
L 283.082343 151.885977 
L 283.566287 148.968734 
L 283.888917 153.779438 
L 284.050231 152.997845 
L 284.211546 153.162965 
L 284.69549 150.785128 
L 285.01812 156.839796 
L 285.340749 158.876373 
L 285.824693 157.269143 
L 285.986008 157.7425 
L 286.147323 156.344418 
L 286.308637 160.39555 
L 286.469952 158.832346 
L 286.953896 158.964443 
L 287.115211 157.015936 
L 287.276526 156.839796 
L 287.43784 153.603315 
L 287.599155 153.482221 
L 288.244414 154.417932 
L 288.405729 156.520557 
L 288.567043 153.779438 
L 288.728358 153.361127 
L 289.212302 147.999982 
L 289.373617 150.058581 
L 289.534932 146.073497 
L 289.696246 146.216612 
L 289.857561 150.98329 
L 290.341505 151.434642 
L 290.664134 156.597625 
L 290.825449 163.158674 
L 290.986764 163.38986 
L 291.470708 161.023025 
L 291.632023 166.846516 
L 291.954652 166.846516 
L 292.115967 165.591549 
L 292.599911 163.015558 
L 292.761226 168.233587 
L 292.92254 165.723654 
L 293.083855 166.868537 
L 293.24517 164.66684 
L 293.729114 164.33659 
L 293.890429 162.993553 
L 294.051743 160.406552 
L 294.213058 159.856128 
L 294.374373 162.652293 
L 294.858317 159.61394 
L 295.019632 160.802858 
L 295.180946 164.479689 
L 295.342261 164.182472 
L 295.503576 167.738209 
L 295.98752 166.20803 
L 296.148835 164.006332 
L 296.310149 171.899416 
L 296.471464 173.90296 
L 296.632779 164.909028 
L 297.116723 159.4378 
L 297.278038 159.019489 
L 297.439352 154.715166 
L 297.761982 152.953801 
L 298.245926 151.698835 
L 298.407241 148.429312 
L 298.568555 149.122852 
L 298.72987 150.752104 
L 298.891185 147.493601 
L 299.375129 148.561426 
L 299.536444 145.027694 
L 299.697758 147.889907 
L 299.859073 148.297216 
L 300.020388 145.710231 
L 300.504332 144.664412 
L 300.665647 147.119317 
L 300.826961 144.025917 
L 301.149591 143.992893 
L 301.633535 142.903064 
L 302.117479 144.708455 
L 302.278794 143.673655 
L 302.762738 146.084516 
L 302.924053 143.838775 
L 303.085367 146.436779 
L 303.246682 143.838775 
L 303.407997 143.244324 
L 303.891941 144.928621 
L 304.21457 141.681121 
L 304.375885 143.244324 
L 304.5372 140.437157 
L 305.021144 135.92367 
L 305.182459 136.231923 
L 305.343773 138.070339 
L 305.505088 136.176877 
L 305.666403 136.639232 
L 306.634291 136.683258 
L 306.795606 138.268483 
L 307.440865 140.4812 
L 307.602179 142.08843 
L 307.763494 146.381733 
L 307.924809 145.644166 
L 308.408753 141.39489 
L 308.892697 134.701744 
L 309.054012 135.318217 
L 309.699271 136.925446 
L 309.860585 138.521674 
L 310.183215 134.525604 
L 310.667159 135.142077 
L 311.312418 130.364397 
L 311.796362 128.008582 
L 312.118991 134.679722 
L 312.280306 130.188257 
L 312.441621 116.394624 
L 312.925565 118.045897 
L 313.08688 119.322886 
L 313.248194 117.803709 
L 313.409509 118.563297 
L 313.570824 113.488384 
L 314.054768 115.811176 
L 314.216083 119.884313 
L 314.377397 117.308331 
L 314.538712 118.607324 
L 314.700027 118.92658 
L 315.345286 121.601634 
L 315.5066 119.939358 
L 315.667915 113.345268 
L 315.82923 112.893916 
L 316.313174 113.180148 
L 316.635803 114.908472 
L 316.958433 109.33818 
L 317.442377 110.042722 
L 317.603692 113.851666 
L 317.765006 114.523185 
L 317.926321 110.879361 
L 318.087636 112.49761 
L 318.57158 116.229487 
L 318.894209 111.165593 
L 319.055524 108.754731 
L 319.216839 113.521408 
L 319.700783 113.45536 
L 320.184727 109.415247 
L 320.346042 108.622635 
L 320.829986 107.697909 
L 320.9913 109.25011 
L 321.31393 106.960342 
L 321.959189 106.310846 
L 322.120503 106.619082 
L 322.281818 104.725621 
L 322.443133 107.37867 
L 322.604448 101.797359 
L 323.088392 101.665263 
L 323.411021 100.828624 
L 323.572336 97.415986 
L 323.733651 100.630462 
L 324.378909 103.723844 
L 324.701539 108.237331 
L 324.862854 113.290223 
L 325.346798 110.428026 
L 325.508112 107.885068 
L 325.830742 114.347045 
L 325.992057 107.796998 
L 326.476001 106.321848 
L 326.637315 112.882914 
L 327.12126 100.542392 
L 327.605204 97.80129 
L 327.766518 97.735241 
L 327.927833 98.57188 
L 328.089148 96.920607 
L 328.250463 99.144326 
L 328.734407 100.146086 
L 328.895721 99.595662 
L 329.057036 100.78458 
L 329.218351 103.382584 
L 329.379666 102.204684 
L 330.024924 103.911003 
L 330.186239 103.933008 
L 330.347554 106.222776 
L 330.508869 106.553034 
L 331.154127 105.011852 
L 331.315442 105.154951 
L 331.638072 111.297689 
L 332.28333 108.105234 
L 332.444645 105.969585 
L 332.60596 101.874427 
L 332.767275 102.645017 
L 333.251219 99.606681 
L 333.412533 99.419539 
L 333.573848 99.793823 
L 333.735163 103.162418 
L 333.896477 103.34956 
L 334.380422 102.909227 
L 334.541736 104.285288 
L 334.864366 100.663486 
L 335.02568 97.382962 
L 335.509625 101.246935 
L 335.670939 100.399293 
L 335.993569 87.728513 
L 336.154883 92.792424 
L 336.638828 88.444075 
L 336.800142 85.361695 
L 336.961457 88.014745 
L 337.284086 85.361695 
L 337.768031 86.143305 
L 337.929345 86.08826 
L 338.09066 85.592881 
L 338.251975 90.810893 
L 338.897234 93.375873 
L 339.058548 93.045615 
L 339.381178 103.250487 
L 339.542492 103.933008 
L 340.026437 104.571503 
L 340.187751 100.322226 
L 340.349066 106.464964 
L 340.510381 107.543791 
L 340.671695 104.626548 
L 341.15564 103.855958 
L 341.316954 105.496211 
L 341.478269 99.694751 
L 341.639584 102.898208 
L 341.800898 120.698947 
L 342.284843 128.272775 
L 342.607472 126.346289 
L 342.930101 121.755752 
L 343.414046 121.90987 
L 343.57536 118.133967 
L 343.736675 118.277066 
L 343.89799 110.03172 
L 344.059304 110.615168 
L 344.704563 108.611615 
L 344.865878 107.257576 
L 345.027193 111.638949 
L 345.188507 110.63719 
L 345.672452 112.33249 
L 345.995081 117.506475 
L 346.156396 116.053364 
L 346.31771 109.029943 
L 346.962969 111.506853 
L 347.124284 114.721329 
L 347.285599 109.701462 
L 347.446913 116.856979 
L 347.930857 112.442581 
L 348.414802 99.672729 
L 349.06006 101.995521 
L 349.221375 99.804825 
L 349.38269 100.300221 
L 349.705319 94.608818 
L 350.189263 92.098884 
L 350.350578 92.010814 
L 350.673208 95.093194 
L 350.834522 98.604904 
L 351.318466 100.410296 
L 351.802411 105.220999 
L 351.963725 100.212151 
L 352.447669 106.497988 
L 353.092928 97.669176 
L 353.576872 99.078278 
L 353.738187 98.913141 
L 353.899502 99.793823 
L 354.060817 99.089281 
L 354.222131 97.482034 
L 354.706075 97.393964 
L 354.86739 96.700441 
L 355.028705 102.193665 
L 355.351334 98.759023 
L 355.835278 98.14255 
L 356.157908 93.36487 
L 356.319223 100.333245 
L 356.480537 87.64046 
L 356.964481 90.007278 
L 357.125796 85.91212 
L 357.448426 74.298162 
L 357.60974 76.356761 
L 358.093684 77.831894 
L 358.254999 75.553129 
L 358.416314 69.839721 
L 358.577629 72.723957 
L 358.738943 82.488479 
L 359.222887 83.490256 
L 359.384202 80.286782 
L 359.545517 82.191246 
L 359.706832 87.145065 
L 359.868146 88.532145 
L 360.35209 83.765468 
L 360.513405 76.709024 
L 360.67472 79.042818 
L 361.481293 73.571598 
L 361.642608 70.566286 
L 362.126552 55.605755 
L 362.610496 56.640556 
L 362.771811 57.79645 
L 362.933126 52.050019 
L 363.255755 55.132382 
L 363.739699 49.110754 
L 363.901014 51.070264 
L 364.062329 62.772275 
L 364.384958 57.928547 
L 364.868902 57.774429 
L 365.030217 53.382036 
L 365.352846 55.583734 
L 365.514161 59.216538 
L 365.998105 61.913614 
L 366.15942 64.016239 
L 366.482049 63.102532 
L 366.643364 58.732162 
L 367.127308 54.967261 
L 367.288623 61.021929 
L 367.449938 60.999907 
L 367.772567 64.511618 
L 368.256511 65.04002 
L 368.417826 65.810628 
L 368.579141 59.656871 
L 368.740455 62.618156 
L 368.90177 56.805676 
L 369.547029 51.554623 
L 369.708344 46.820987 
L 369.869658 46.369635 
L 370.030973 46.99711 
L 370.514917 46.369635 
L 370.676232 43.364323 
L 370.837547 44.553224 
L 370.998861 47.228296 
L 371.160176 43.881723 
L 371.64412 44.167937 
L 371.805435 39.06 
L 371.96675 45.543998 
L 372.128064 42.615737 
L 372.289379 53.271961 
L 372.773323 48.879569 
L 372.934638 49.297897 
L 373.095953 53.514149 
L 373.257267 51.928924 
L 373.418582 53.789362 
L 374.063841 56.024083 
L 374.225156 56.046088 
L 374.547785 67.109621 
L 375.031729 71.3699 
L 375.193044 71.270828 
L 375.354359 69.564509 
L 375.515673 75.740271 
L 375.676988 71.843274 
L 376.322247 81.178467 
L 376.483562 76.158599 
L 376.644876 84.591105 
L 377.290135 91.372337 
L 377.612765 86.583638 
L 377.774079 92.087882 
L 377.935394 87.618439 
L 378.419338 90.051305 
L 378.580653 93.265781 
L 378.741968 90.271488 
L 378.903282 90.920985 
L 379.064597 89.533905 
L 379.709856 79.075842 
L 379.871171 84.117731 
L 380.032485 83.86454 
L 380.1938 93.375873 
L 380.677744 96.083968 
L 380.839059 93.981343 
L 381.000374 89.754088 
L 381.323003 117.286309 
L 381.806947 112.596699 
L 381.968262 117.660593 
L 382.129577 95.159242 
L 382.290891 106.035633 
L 382.452206 102.017542 
L 382.93615 105.044876 
L 383.097465 107.830022 
L 383.420094 115.513942 
L 384.065353 121.337424 
L 384.710612 97.482034 
L 385.355871 99.243399 
L 385.517186 102.512921 
L 385.6785 96.150016 
L 385.839815 96.392204 
L 386.485074 101.863424 
L 386.807703 94.080415 
L 386.969018 93.001588 
L 387.614277 72.845051 
L 387.775592 74.077996 
L 387.936906 79.670309 
L 388.098221 79.207955 
L 388.582165 78.580463 
L 388.904795 84.12875 
L 389.066109 81.949058 
L 389.227424 84.271849 
L 389.872683 78.734581 
L 390.033998 80.165688 
L 390.195312 79.086861 
L 390.356627 79.846449 
L 390.840571 78.041058 
L 391.001886 79.075842 
L 391.324515 76.653978 
L 391.48583 70.42317 
L 392.131089 65.975748 
L 392.292403 70.830495 
L 392.453718 70.786452 
L 392.615033 72.041419 
L 393.098977 67.638024 
L 393.260292 69.047109 
L 393.421606 71.579064 
L 393.744236 74.694468 
L 394.22818 76.037505 
L 394.389495 71.303852 
L 394.550809 72.162513 
L 394.873439 59.711916 
L 395.357383 64.016239 
L 395.518698 62.838323 
L 395.680012 63.43279 
L 395.841327 59.590822 
L 396.486586 59.524774 
L 396.647901 64.049263 
L 396.809215 60.548572 
L 396.97053 60.856808 
L 397.131845 57.818455 
L 397.615789 57.080889 
L 397.777104 56.354324 
L 397.938418 59.83301 
L 398.099733 59.073422 
L 398.261048 56.596512 
L 398.744992 53.106824 
L 398.906307 55.121379 
L 399.067621 54.218692 
L 399.228936 49.881345 
L 399.390251 50.751008 
L 399.874195 49.264873 
L 400.196824 52.127069 
L 400.358139 47.811744 
L 400.519454 69.124176 
L 401.003398 72.536814 
L 401.164713 70.225025 
L 401.326027 60.801763 
L 401.487342 59.899059 
L 402.132601 61.913614 
L 402.293916 61.726472 
L 402.45523 58.324853 
L 402.616545 51.257406 
L 402.77786 51.20236 
L 403.261804 50.695962 
L 403.745748 61.198069 
L 403.907063 53.613222 
L 404.391007 54.603979 
L 404.713636 53.304985 
L 404.713636 53.304985 
" clip-path="url(#pe8c97ed989)" style="fill: none; stroke: #1f77b4; stroke-width: 1.5; stroke-linecap: square"/>
   </g>
   <g id="patch_3">
    <path d="M 58.5 224.28 
L 58.5 30.24 
" style="fill: none; stroke: #000000; stroke-width: 0.8; stroke-linejoin: miter; stroke-linecap: square"/>
   </g>
   <g id="patch_4">
    <path d="M 58.5 224.28 
L 421.2 224.28 
" style="fill: none; stroke: #000000; stroke-width: 0.8; stroke-linejoin: miter; stroke-linecap: square"/>
   </g>
  </g>
 </g>
 <defs>
  <clipPath id="pe8c97ed989">
   <rect x="58.5" y="30.24" width="362.7" height="194.04"/>
  </clipPath>
 </defs>
</svg>
