<?xml version="1.0" encoding="utf-8" standalone="no"?>
<!DOCTYPE svg PUBLIC "-//W3C//DTD SVG 1.1//EN"
  "http://www.w3.org/Graphics/SVG/1.1/DTD/svg11.dtd">
<svg xmlns:xlink="http://www.w3.org/1999/xlink" width="1166.4pt" height="252pt" viewBox="0 0 1166.4 252" xmlns="http://www.w3.org/2000/svg" version="1.1">
 <metadata>
  <rdf:RDF xmlns:dc="http://purl.org/dc/elements/1.1/" xmlns:cc="http://creativecommons.org/ns#" xmlns:rdf="http://www.w3.org/1999/02/22-rdf-syntax-ns#">
   <cc:Work>
    <dc:type rdf:resource="http://purl.org/dc/dcmitype/StillImage"/>
    <dc:date>2025-09-07T00:54:24.803011</dc:date>
    <dc:format>image/svg+xml</dc:format>
    <dc:creator>
     <cc:Agent>
      <dc:title>Matplotlib v3.10.5, https://matplotlib.org/</dc:title>
     </cc:Agent>
    </dc:creator>
   </cc:Work>
  </rdf:RDF>
 </metadata>
 <defs>
  <style type="text/css">*{stroke-linejoin: round; stroke-linecap: butt}</style>
 </defs>
 <g id="figure_1">
  <g id="patch_1">
   <path d="M 0 252 
L 1166.4 252 
L 1166.4 0 
L 0 0 
z
" style="fill: #ffffff"/>
  </g>
  <g id="axes_1">
   <g id="patch_2">
    <path d="M 145.8 224.28 
L 1049.76 224.28 
L 1049.76 30.24 
L 145.8 30.24 
z
" style="fill: #ffffff"/>
   </g>
   <g id="matplotlib.axis_1">
    <g id="xtick_1">
     <g id="line2d_1">
      <defs>
       <path id="m34c1e9f336" d="M 0 0 
L 0 3.5 
" style="stroke: #000000; stroke-width: 0.8"/>
      </defs>
      <g>
       <use xlink:href="#m34c1e9f336" x="178.479043" y="224.28" style="stroke: #000000; stroke-width: 0.8"/>
      </g>
     </g>
     <g id="text_1">
      <!-- 2020 -->
      <g transform="translate(165.754043 238.878438) scale(0.1 -0.1)">
       <defs>
        <path id="DejaVuSans-32" d="M 1228 531 
L 3431 531 
L 3431 0 
L 469 0 
L 469 531 
Q 828 903 1448 1529 
Q 2069 2156 2228 2338 
Q 2531 2678 2651 2914 
Q 2772 3150 2772 3378 
Q 2772 3750 2511 3984 
Q 2250 4219 1831 4219 
Q 1534 4219 1204 4116 
Q 875 4013 500 3803 
L 500 4441 
Q 881 4594 1212 4672 
Q 1544 4750 1819 4750 
Q 2544 4750 2975 4387 
Q 3406 4025 3406 3419 
Q 3406 3131 3298 2873 
Q 3191 2616 2906 2266 
Q 2828 2175 2409 1742 
Q 1991 1309 1228 531 
z
" transform="scale(0.015625)"/>
        <path id="DejaVuSans-30" d="M 2034 4250 
Q 1547 4250 1301 3770 
Q 1056 3291 1056 2328 
Q 1056 1369 1301 889 
Q 1547 409 2034 409 
Q 2525 409 2770 889 
Q 3016 1369 3016 2328 
Q 3016 3291 2770 3770 
Q 2525 4250 2034 4250 
z
M 2034 4750 
Q 2819 4750 3233 4129 
Q 3647 3509 3647 2328 
Q 3647 1150 3233 529 
Q 2819 -91 2034 -91 
Q 1250 -91 836 529 
Q 422 1150 422 2328 
Q 422 3509 836 4129 
Q 1250 4750 2034 4750 
z
" transform="scale(0.015625)"/>
       </defs>
       <use xlink:href="#DejaVuSans-32"/>
       <use xlink:href="#DejaVuSans-30" transform="translate(63.623047 0)"/>
       <use xlink:href="#DejaVuSans-32" transform="translate(127.246094 0)"/>
       <use xlink:href="#DejaVuSans-30" transform="translate(190.869141 0)"/>
      </g>
     </g>
    </g>
    <g id="xtick_2">
     <g id="line2d_2">
      <g>
       <use xlink:href="#m34c1e9f336" x="325.054163" y="224.28" style="stroke: #000000; stroke-width: 0.8"/>
      </g>
     </g>
     <g id="text_2">
      <!-- 2021 -->
      <g transform="translate(312.329163 238.878438) scale(0.1 -0.1)">
       <defs>
        <path id="DejaVuSans-31" d="M 794 531 
L 1825 531 
L 1825 4091 
L 703 3866 
L 703 4441 
L 1819 4666 
L 2450 4666 
L 2450 531 
L 3481 531 
L 3481 0 
L 794 0 
L 794 531 
z
" transform="scale(0.015625)"/>
       </defs>
       <use xlink:href="#DejaVuSans-32"/>
       <use xlink:href="#DejaVuSans-30" transform="translate(63.623047 0)"/>
       <use xlink:href="#DejaVuSans-32" transform="translate(127.246094 0)"/>
       <use xlink:href="#DejaVuSans-31" transform="translate(190.869141 0)"/>
      </g>
     </g>
    </g>
    <g id="xtick_3">
     <g id="line2d_3">
      <g>
       <use xlink:href="#m34c1e9f336" x="471.228804" y="224.28" style="stroke: #000000; stroke-width: 0.8"/>
      </g>
     </g>
     <g id="text_3">
      <!-- 2022 -->
      <g transform="translate(458.503804 238.878438) scale(0.1 -0.1)">
       <use xlink:href="#DejaVuSans-32"/>
       <use xlink:href="#DejaVuSans-30" transform="translate(63.623047 0)"/>
       <use xlink:href="#DejaVuSans-32" transform="translate(127.246094 0)"/>
       <use xlink:href="#DejaVuSans-32" transform="translate(190.869141 0)"/>
      </g>
     </g>
    </g>
    <g id="xtick_4">
     <g id="line2d_4">
      <g>
       <use xlink:href="#m34c1e9f336" x="617.403445" y="224.28" style="stroke: #000000; stroke-width: 0.8"/>
      </g>
     </g>
     <g id="text_4">
      <!-- 2023 -->
      <g transform="translate(604.678445 238.878438) scale(0.1 -0.1)">
       <defs>
        <path id="DejaVuSans-33" d="M 2597 2516 
Q 3050 2419 3304 2112 
Q 3559 1806 3559 1356 
Q 3559 666 3084 287 
Q 2609 -91 1734 -91 
Q 1441 -91 1130 -33 
Q 819 25 488 141 
L 488 750 
Q 750 597 1062 519 
Q 1375 441 1716 441 
Q 2309 441 2620 675 
Q 2931 909 2931 1356 
Q 2931 1769 2642 2001 
Q 2353 2234 1838 2234 
L 1294 2234 
L 1294 2753 
L 1863 2753 
Q 2328 2753 2575 2939 
Q 2822 3125 2822 3475 
Q 2822 3834 2567 4026 
Q 2313 4219 1838 4219 
Q 1578 4219 1281 4162 
Q 984 4106 628 3988 
L 628 4550 
Q 988 4650 1302 4700 
Q 1616 4750 1894 4750 
Q 2613 4750 3031 4423 
Q 3450 4097 3450 3541 
Q 3450 3153 3228 2886 
Q 3006 2619 2597 2516 
z
" transform="scale(0.015625)"/>
       </defs>
       <use xlink:href="#DejaVuSans-32"/>
       <use xlink:href="#DejaVuSans-30" transform="translate(63.623047 0)"/>
       <use xlink:href="#DejaVuSans-32" transform="translate(127.246094 0)"/>
       <use xlink:href="#DejaVuSans-33" transform="translate(190.869141 0)"/>
      </g>
     </g>
    </g>
    <g id="xtick_5">
     <g id="line2d_5">
      <g>
       <use xlink:href="#m34c1e9f336" x="763.578086" y="224.28" style="stroke: #000000; stroke-width: 0.8"/>
      </g>
     </g>
     <g id="text_5">
      <!-- 2024 -->
      <g transform="translate(750.853086 238.878438) scale(0.1 -0.1)">
       <defs>
        <path id="DejaVuSans-34" d="M 2419 4116 
L 825 1625 
L 2419 1625 
L 2419 4116 
z
M 2253 4666 
L 3047 4666 
L 3047 1625 
L 3713 1625 
L 3713 1100 
L 3047 1100 
L 3047 0 
L 2419 0 
L 2419 1100 
L 313 1100 
L 313 1709 
L 2253 4666 
z
" transform="scale(0.015625)"/>
       </defs>
       <use xlink:href="#DejaVuSans-32"/>
       <use xlink:href="#DejaVuSans-30" transform="translate(63.623047 0)"/>
       <use xlink:href="#DejaVuSans-32" transform="translate(127.246094 0)"/>
       <use xlink:href="#DejaVuSans-34" transform="translate(190.869141 0)"/>
      </g>
     </g>
    </g>
    <g id="xtick_6">
     <g id="line2d_6">
      <g>
       <use xlink:href="#m34c1e9f336" x="910.153206" y="224.28" style="stroke: #000000; stroke-width: 0.8"/>
      </g>
     </g>
     <g id="text_6">
      <!-- 2025 -->
      <g transform="translate(897.428206 238.878438) scale(0.1 -0.1)">
       <defs>
        <path id="DejaVuSans-35" d="M 691 4666 
L 3169 4666 
L 3169 4134 
L 1269 4134 
L 1269 2991 
Q 1406 3038 1543 3061 
Q 1681 3084 1819 3084 
Q 2600 3084 3056 2656 
Q 3513 2228 3513 1497 
Q 3513 744 3044 326 
Q 2575 -91 1722 -91 
Q 1428 -91 1123 -41 
Q 819 9 494 109 
L 494 744 
Q 775 591 1075 516 
Q 1375 441 1709 441 
Q 2250 441 2565 725 
Q 2881 1009 2881 1497 
Q 2881 1984 2565 2268 
Q 2250 2553 1709 2553 
Q 1456 2553 1204 2497 
Q 953 2441 691 2322 
L 691 4666 
z
" transform="scale(0.015625)"/>
       </defs>
       <use xlink:href="#DejaVuSans-32"/>
       <use xlink:href="#DejaVuSans-30" transform="translate(63.623047 0)"/>
       <use xlink:href="#DejaVuSans-32" transform="translate(127.246094 0)"/>
       <use xlink:href="#DejaVuSans-35" transform="translate(190.869141 0)"/>
      </g>
     </g>
    </g>
   </g>
   <g id="matplotlib.axis_2">
    <g id="ytick_1">
     <g id="line2d_7">
      <defs>
       <path id="med8c3869dd" d="M 0 0 
L -3.5 0 
" style="stroke: #000000; stroke-width: 0.8"/>
      </defs>
      <g>
       <use xlink:href="#med8c3869dd" x="145.8" y="223.492138" style="stroke: #000000; stroke-width: 0.8"/>
      </g>
     </g>
     <g id="text_7">
      <!-- 10 -->
      <g transform="translate(126.075 227.291356) scale(0.1 -0.1)">
       <use xlink:href="#DejaVuSans-31"/>
       <use xlink:href="#DejaVuSans-30" transform="translate(63.623047 0)"/>
      </g>
     </g>
    </g>
    <g id="ytick_2">
     <g id="line2d_8">
      <g>
       <use xlink:href="#med8c3869dd" x="145.8" y="200.701871" style="stroke: #000000; stroke-width: 0.8"/>
      </g>
     </g>
     <g id="text_8">
      <!-- 20 -->
      <g transform="translate(126.075 204.501089) scale(0.1 -0.1)">
       <use xlink:href="#DejaVuSans-32"/>
       <use xlink:href="#DejaVuSans-30" transform="translate(63.623047 0)"/>
      </g>
     </g>
    </g>
    <g id="ytick_3">
     <g id="line2d_9">
      <g>
       <use xlink:href="#med8c3869dd" x="145.8" y="177.911604" style="stroke: #000000; stroke-width: 0.8"/>
      </g>
     </g>
     <g id="text_9">
      <!-- 30 -->
      <g transform="translate(126.075 181.710822) scale(0.1 -0.1)">
       <use xlink:href="#DejaVuSans-33"/>
       <use xlink:href="#DejaVuSans-30" transform="translate(63.623047 0)"/>
      </g>
     </g>
    </g>
    <g id="ytick_4">
     <g id="line2d_10">
      <g>
       <use xlink:href="#med8c3869dd" x="145.8" y="155.121336" style="stroke: #000000; stroke-width: 0.8"/>
      </g>
     </g>
     <g id="text_10">
      <!-- 40 -->
      <g transform="translate(126.075 158.920555) scale(0.1 -0.1)">
       <use xlink:href="#DejaVuSans-34"/>
       <use xlink:href="#DejaVuSans-30" transform="translate(63.623047 0)"/>
      </g>
     </g>
    </g>
    <g id="ytick_5">
     <g id="line2d_11">
      <g>
       <use xlink:href="#med8c3869dd" x="145.8" y="132.331069" style="stroke: #000000; stroke-width: 0.8"/>
      </g>
     </g>
     <g id="text_11">
      <!-- 50 -->
      <g transform="translate(126.075 136.130288) scale(0.1 -0.1)">
       <use xlink:href="#DejaVuSans-35"/>
       <use xlink:href="#DejaVuSans-30" transform="translate(63.623047 0)"/>
      </g>
     </g>
    </g>
    <g id="ytick_6">
     <g id="line2d_12">
      <g>
       <use xlink:href="#med8c3869dd" x="145.8" y="109.540802" style="stroke: #000000; stroke-width: 0.8"/>
      </g>
     </g>
     <g id="text_12">
      <!-- 60 -->
      <g transform="translate(126.075 113.340021) scale(0.1 -0.1)">
       <defs>
        <path id="DejaVuSans-36" d="M 2113 2584 
Q 1688 2584 1439 2293 
Q 1191 2003 1191 1497 
Q 1191 994 1439 701 
Q 1688 409 2113 409 
Q 2538 409 2786 701 
Q 3034 994 3034 1497 
Q 3034 2003 2786 2293 
Q 2538 2584 2113 2584 
z
M 3366 4563 
L 3366 3988 
Q 3128 4100 2886 4159 
Q 2644 4219 2406 4219 
Q 1781 4219 1451 3797 
Q 1122 3375 1075 2522 
Q 1259 2794 1537 2939 
Q 1816 3084 2150 3084 
Q 2853 3084 3261 2657 
Q 3669 2231 3669 1497 
Q 3669 778 3244 343 
Q 2819 -91 2113 -91 
Q 1303 -91 875 529 
Q 447 1150 447 2328 
Q 447 3434 972 4092 
Q 1497 4750 2381 4750 
Q 2619 4750 2861 4703 
Q 3103 4656 3366 4563 
z
" transform="scale(0.015625)"/>
       </defs>
       <use xlink:href="#DejaVuSans-36"/>
       <use xlink:href="#DejaVuSans-30" transform="translate(63.623047 0)"/>
      </g>
     </g>
    </g>
    <g id="ytick_7">
     <g id="line2d_13">
      <g>
       <use xlink:href="#med8c3869dd" x="145.8" y="86.750535" style="stroke: #000000; stroke-width: 0.8"/>
      </g>
     </g>
     <g id="text_13">
      <!-- 70 -->
      <g transform="translate(126.075 90.549754) scale(0.1 -0.1)">
       <defs>
        <path id="DejaVuSans-37" d="M 525 4666 
L 3525 4666 
L 3525 4397 
L 1831 0 
L 1172 0 
L 2766 4134 
L 525 4134 
L 525 4666 
z
" transform="scale(0.015625)"/>
       </defs>
       <use xlink:href="#DejaVuSans-37"/>
       <use xlink:href="#DejaVuSans-30" transform="translate(63.623047 0)"/>
      </g>
     </g>
    </g>
    <g id="ytick_8">
     <g id="line2d_14">
      <g>
       <use xlink:href="#med8c3869dd" x="145.8" y="63.960268" style="stroke: #000000; stroke-width: 0.8"/>
      </g>
     </g>
     <g id="text_14">
      <!-- 80 -->
      <g transform="translate(126.075 67.759487) scale(0.1 -0.1)">
       <defs>
        <path id="DejaVuSans-38" d="M 2034 2216 
Q 1584 2216 1326 1975 
Q 1069 1734 1069 1313 
Q 1069 891 1326 650 
Q 1584 409 2034 409 
Q 2484 409 2743 651 
Q 3003 894 3003 1313 
Q 3003 1734 2745 1975 
Q 2488 2216 2034 2216 
z
M 1403 2484 
Q 997 2584 770 2862 
Q 544 3141 544 3541 
Q 544 4100 942 4425 
Q 1341 4750 2034 4750 
Q 2731 4750 3128 4425 
Q 3525 4100 3525 3541 
Q 3525 3141 3298 2862 
Q 3072 2584 2669 2484 
Q 3125 2378 3379 2068 
Q 3634 1759 3634 1313 
Q 3634 634 3220 271 
Q 2806 -91 2034 -91 
Q 1263 -91 848 271 
Q 434 634 434 1313 
Q 434 1759 690 2068 
Q 947 2378 1403 2484 
z
M 1172 3481 
Q 1172 3119 1398 2916 
Q 1625 2713 2034 2713 
Q 2441 2713 2670 2916 
Q 2900 3119 2900 3481 
Q 2900 3844 2670 4047 
Q 2441 4250 2034 4250 
Q 1625 4250 1398 4047 
Q 1172 3844 1172 3481 
z
" transform="scale(0.015625)"/>
       </defs>
       <use xlink:href="#DejaVuSans-38"/>
       <use xlink:href="#DejaVuSans-30" transform="translate(63.623047 0)"/>
      </g>
     </g>
    </g>
    <g id="ytick_9">
     <g id="line2d_15">
      <g>
       <use xlink:href="#med8c3869dd" x="145.8" y="41.170001" style="stroke: #000000; stroke-width: 0.8"/>
      </g>
     </g>
     <g id="text_15">
      <!-- 90 -->
      <g transform="translate(126.075 44.96922) scale(0.1 -0.1)">
       <defs>
        <path id="DejaVuSans-39" d="M 703 97 
L 703 672 
Q 941 559 1184 500 
Q 1428 441 1663 441 
Q 2288 441 2617 861 
Q 2947 1281 2994 2138 
Q 2813 1869 2534 1725 
Q 2256 1581 1919 1581 
Q 1219 1581 811 2004 
Q 403 2428 403 3163 
Q 403 3881 828 4315 
Q 1253 4750 1959 4750 
Q 2769 4750 3195 4129 
Q 3622 3509 3622 2328 
Q 3622 1225 3098 567 
Q 2575 -91 1691 -91 
Q 1453 -91 1209 -44 
Q 966 3 703 97 
z
M 1959 2075 
Q 2384 2075 2632 2365 
Q 2881 2656 2881 3163 
Q 2881 3666 2632 3958 
Q 2384 4250 1959 4250 
Q 1534 4250 1286 3958 
Q 1038 3666 1038 3163 
Q 1038 2656 1286 2365 
Q 1534 2075 1959 2075 
z
" transform="scale(0.015625)"/>
       </defs>
       <use xlink:href="#DejaVuSans-39"/>
       <use xlink:href="#DejaVuSans-30" transform="translate(63.623047 0)"/>
      </g>
     </g>
    </g>
   </g>
   <g id="line2d_16">
    <path d="M 186.889091 138.490707 
L 187.289569 140.05824 
L 187.690048 140.004525 
L 188.891483 174.103047 
L 189.291962 159.570268 
L 189.69244 150.408527 
L 190.092919 148.22553 
L 190.493397 89.985506 
L 191.694833 93.842784 
L 192.095311 74.943074 
L 192.896268 76.979426 
L 193.296746 66.344321 
L 194.498182 63.047165 
L 194.89866 59.180192 
L 195.299139 56.985357 
L 195.699617 50.979169 
L 196.100096 41.706268 
L 197.70201 41.957687 
L 198.102488 41.366914 
L 198.502967 50.972638 
L 198.903445 100.733224 
L 200.10488 130.869374 
L 200.505359 154.930951 
L 200.905837 150.175372 
L 201.306316 172.571863 
L 201.706794 182.812283 
L 202.90823 177.209357 
L 203.308708 189.14344 
L 203.709187 171.005033 
L 204.109665 176.373329 
L 204.510144 177.310556 
L 205.711579 192.544134 
L 206.112057 174.708913 
L 206.512536 179.511165 
L 206.913014 186.050482 
L 207.313493 160.377802 
L 208.514928 165.626418 
L 209.315885 138.461726 
L 209.716364 132.634318 
L 210.116842 144.330289 
L 211.318278 133.008562 
L 211.718756 136.376213 
L 212.119234 136.644181 
L 212.519713 126.459068 
L 212.920191 121.112867 
L 214.121627 123.971577 
L 214.522105 116.48243 
L 214.922584 100.383997 
L 215.323062 111.354607 
L 215.723541 93.820691 
L 217.325455 98.270956 
L 217.725933 100.924354 
L 218.126411 91.836668 
L 219.728325 83.654755 
L 220.128804 76.457496 
L 220.529282 60.594516 
L 220.929761 58.735944 
L 221.330239 52.601734 
L 222.531675 55.045632 
L 222.932153 69.361281 
L 223.332632 55.738951 
L 223.73311 54.4193 
L 224.133589 50.51814 
L 225.335024 65.445694 
L 225.735502 82.564965 
L 226.135981 80.136949 
L 226.536459 72.468024 
L 226.936938 117.205614 
L 228.538852 130.844399 
L 228.93933 141.485697 
L 229.339809 133.548345 
L 229.740287 134.659381 
L 230.941722 118.131919 
L 231.342201 133.450441 
L 231.742679 137.938211 
L 232.143158 136.072105 
L 232.543636 126.294326 
L 233.745072 110.745333 
L 234.14555 116.645957 
L 234.546029 126.91792 
L 234.946507 82.46185 
L 235.346986 92.644547 
L 236.9489 99.422021 
L 237.349378 112.415778 
L 237.749856 120.811068 
L 238.150335 112.495296 
L 239.35177 112.683598 
L 239.752249 89.771682 
L 240.152727 90.940582 
L 240.553206 105.170957 
L 240.953684 104.749186 
L 242.15512 98.25856 
L 242.555598 86.988138 
L 242.956077 87.354031 
L 243.356555 101.944369 
L 243.757033 103.002493 
L 244.958469 92.62187 
L 245.358947 82.006966 
L 245.759426 75.424197 
L 246.159904 78.991423 
L 246.560383 80.033382 
L 247.761818 75.243074 
L 248.162297 70.425862 
L 248.562775 74.411944 
L 248.963254 74.643819 
L 249.363732 97.802711 
L 250.565167 113.943488 
L 250.965646 108.142094 
L 251.366124 66.482282 
L 251.766603 61.272576 
L 253.368517 52.661567 
L 253.768995 70.312264 
L 254.169474 66.546691 
L 254.569952 61.535901 
L 254.970431 61.722328 
L 256.972823 98.297107 
L 257.373301 101.536033 
L 257.77378 97.642169 
L 258.975215 79.137464 
L 260.176651 122.420963 
L 260.577129 138.030138 
L 261.778565 125.7351 
L 262.179043 142.275745 
L 262.579522 152.149273 
L 262.98 151.996545 
L 263.380478 124.429438 
L 264.581914 128.830453 
L 264.982392 115.104752 
L 265.783349 98.989244 
L 266.183828 136.970461 
L 267.385263 130.682845 
L 267.785742 135.412584 
L 268.18622 102.876313 
L 268.586699 106.010934 
L 268.987177 115.416514 
L 270.188612 98.022809 
L 270.589091 87.025985 
L 271.390048 109.400455 
L 271.790526 100.527773 
L 272.991962 101.088715 
L 273.39244 104.911282 
L 273.792919 95.075752 
L 274.193397 91.412217 
L 274.593876 86.459774 
L 275.795311 63.356729 
L 276.195789 65.955023 
L 276.596268 63.070247 
L 276.996746 99.343832 
L 277.397225 116.325746 
L 278.999139 155.111796 
L 279.399617 131.278748 
L 279.800096 147.200122 
L 280.200574 151.859937 
L 281.40201 156.262146 
L 281.802488 154.289849 
L 282.202967 175.04038 
L 282.603445 177.004841 
L 283.003923 180.82754 
L 284.205359 187.864902 
L 284.605837 169.761355 
L 285.006316 181.836553 
L 285.807273 153.339489 
L 287.008708 129.616271 
L 287.409187 147.547274 
L 287.809665 135.92277 
L 288.210144 118.258973 
L 288.610622 129.642147 
L 289.812057 127.189925 
L 290.212536 129.778416 
L 290.613014 111.073478 
L 291.413971 96.730963 
L 292.615407 97.660406 
L 293.015885 76.355055 
L 293.416364 91.651251 
L 293.816842 101.940751 
L 294.217321 119.841147 
L 295.418756 124.746484 
L 295.819234 124.074919 
L 296.219713 136.91977 
L 296.620191 125.13754 
L 297.02067 131.55956 
L 298.222105 114.157759 
L 298.622584 116.561808 
L 299.023062 136.422674 
L 299.423541 144.211217 
L 299.824019 194.625345 
L 301.025455 196.895284 
L 301.425933 180.94406 
L 301.826411 144.582377 
L 302.22689 126.23704 
L 302.627368 118.637992 
L 304.229282 147.843528 
L 304.629761 136.050596 
L 305.030239 141.311898 
L 305.430718 139.697682 
L 306.632153 147.946377 
L 307.032632 135.378407 
L 307.43311 144.405867 
L 307.833589 121.265557 
L 308.234067 119.120206 
L 309.435502 124.990102 
L 309.835981 155.603783 
L 310.236459 158.826421 
L 311.037416 154.796055 
L 312.238852 126.153282 
L 312.63933 78.472499 
L 313.039809 107.678743 
L 313.440287 102.841365 
L 313.840766 119.547923 
L 315.042201 122.211607 
L 315.442679 117.415883 
L 315.843158 132.728786 
L 316.243636 137.357258 
L 316.644115 126.780292 
L 317.84555 115.168375 
L 318.246029 118.122672 
L 318.646507 115.842403 
L 319.046986 120.141886 
L 319.447464 122.459878 
L 320.6489 136.983039 
L 321.049378 131.28032 
L 321.449856 132.837166 
L 321.850335 128.698513 
L 323.452249 98.466148 
L 323.852727 95.073348 
L 324.253206 81.303823 
L 324.653684 91.316416 
L 326.255598 115.910662 
L 326.656077 117.67756 
L 327.056555 137.865697 
L 327.457033 150.344564 
L 327.857512 144.161965 
L 329.058947 150.50678 
L 329.459426 150.004926 
L 329.859904 140.112222 
L 330.260383 143.089976 
L 330.660861 144.852915 
L 332.262775 167.548385 
L 332.663254 142.889717 
L 333.063732 128.567679 
L 333.464211 125.904768 
L 334.665646 110.381431 
L 335.066124 110.340196 
L 335.867081 116.763212 
L 336.26756 127.576514 
L 337.468995 91.062741 
L 337.869474 87.713613 
L 338.269952 107.912948 
L 339.070909 89.678925 
L 340.272344 98.199691 
L 340.672823 123.713108 
L 341.073301 136.759995 
L 341.47378 138.744274 
L 341.874258 135.714524 
L 343.476172 144.735892 
L 343.876651 113.945078 
L 344.277129 111.083749 
L 344.677608 122.9859 
L 345.879043 172.035498 
L 346.279522 180.156672 
L 346.68 174.908341 
L 347.080478 195.577346 
L 347.480957 190.477662 
L 348.682392 170.200587 
L 349.082871 174.729159 
L 349.483349 182.719587 
L 349.883828 183.015697 
L 350.284306 181.155748 
L 351.485742 184.924955 
L 351.88622 169.279616 
L 352.286699 173.794221 
L 352.687177 153.866254 
L 353.087656 147.70803 
L 354.289091 151.511683 
L 354.689569 144.27753 
L 355.090048 117.07791 
L 355.490526 143.561204 
L 355.891005 144.75802 
L 357.09244 129.408042 
L 357.492919 106.031541 
L 357.893397 111.433911 
L 358.293876 123.845175 
L 358.694354 112.403322 
L 359.895789 129.305408 
L 360.696746 136.932568 
L 361.097225 116.83843 
L 362.699139 104.023249 
L 363.099617 106.253231 
L 363.500096 104.505659 
L 363.900574 70.559388 
L 364.301053 67.989146 
L 365.502488 70.851887 
L 365.902967 71.494331 
L 366.303445 77.192823 
L 366.703923 58.476829 
L 367.104402 57.369828 
L 368.305837 68.850626 
L 368.706316 74.308827 
L 369.106794 75.501814 
L 369.507273 100.09588 
L 369.907751 105.754169 
L 371.109187 94.285679 
L 371.509665 101.336307 
L 371.910144 98.015918 
L 372.310622 108.228554 
L 372.7111 110.771262 
L 373.912536 135.260149 
L 374.313014 136.846668 
L 374.713493 155.738043 
L 375.113971 151.828883 
L 375.51445 149.576215 
L 376.715885 159.944674 
L 377.116364 158.51059 
L 377.516842 161.19833 
L 377.917321 166.528121 
L 378.317799 168.204673 
L 379.519234 158.918532 
L 379.919713 173.428707 
L 380.320191 176.715626 
L 381.121148 167.720256 
L 382.322584 145.992363 
L 382.723062 134.798675 
L 383.123541 141.70664 
L 383.524019 145.778071 
L 383.924498 123.638239 
L 385.526411 133.83676 
L 385.92689 104.948745 
L 386.327368 124.650146 
L 386.727847 137.976512 
L 387.929282 160.064087 
L 388.329761 121.184189 
L 388.730239 115.885699 
L 389.130718 102.882284 
L 389.531196 85.899741 
L 390.732632 86.84485 
L 391.13311 90.074425 
L 391.533589 84.90322 
L 391.934067 58.427365 
L 392.334545 56.19142 
L 393.535981 68.996699 
L 393.936459 65.015715 
L 394.336938 45.162503 
L 394.737416 70.789153 
L 395.137895 84.930003 
L 396.33933 88.314574 
L 396.739809 90.290714 
L 397.140287 106.027935 
L 397.540766 107.573859 
L 397.941244 99.220236 
L 399.543158 76.894749 
L 399.943636 78.013137 
L 400.344115 82.251113 
L 400.744593 85.09727 
L 401.946029 75.293925 
L 402.346507 94.534925 
L 403.147464 92.171565 
L 403.547943 95.082836 
L 404.749378 108.636012 
L 405.550335 101.246785 
L 405.950813 91.857721 
L 407.552727 125.408223 
L 407.953206 150.146485 
L 408.353684 159.88597 
L 408.754163 163.515042 
L 409.154641 195.262514 
L 410.356077 191.102771 
L 410.756555 183.603198 
L 411.157033 179.914962 
L 411.557512 168.319173 
L 411.95799 169.18284 
L 413.159426 175.381979 
L 413.559904 180.833611 
L 413.960383 198.335853 
L 414.360861 200.538056 
L 414.76134 215.46 
L 415.962775 208.793755 
L 416.363254 214.128687 
L 416.763732 214.731684 
L 417.164211 186.809581 
L 417.564689 182.156672 
L 418.766124 166.783802 
L 419.166603 147.806583 
L 419.567081 157.650291 
L 420.368038 129.888489 
L 421.569474 104.478826 
L 421.969952 85.353928 
L 422.370431 85.848986 
L 422.770909 88.182342 
L 423.171388 86.633086 
L 424.773301 59.923498 
L 425.17378 39.06 
L 425.574258 52.679305 
L 425.974737 60.467331 
L 427.176172 73.876344 
L 427.576651 84.021101 
L 427.977129 76.330332 
L 428.377608 77.043716 
L 429.979522 151.974429 
L 430.38 174.353236 
L 430.780478 162.557828 
L 431.180957 145.990184 
L 431.581435 147.770869 
L 432.782871 163.680781 
L 433.183349 185.41544 
L 433.583828 181.604971 
L 433.984306 181.768086 
L 434.384785 180.179273 
L 435.58622 191.579027 
L 435.986699 189.720058 
L 436.387177 180.564335 
L 437.188134 149.094412 
L 438.389569 155.132575 
L 438.790048 165.863104 
L 439.190526 165.536808 
L 439.591005 163.590088 
L 439.991483 131.66087 
L 441.192919 102.249222 
L 441.593397 98.597325 
L 441.993876 102.469814 
L 442.394354 98.710376 
L 442.794833 100.406506 
L 443.996268 109.876203 
L 444.396746 107.286207 
L 444.797225 111.597213 
L 445.197703 98.703255 
L 445.598182 106.984667 
L 446.799617 119.329375 
L 447.200096 126.820795 
L 447.600574 117.452798 
L 448.001053 120.001132 
L 448.401531 119.315166 
L 449.602967 124.590425 
L 450.003445 106.756289 
L 450.403923 125.565985 
L 450.804402 110.11441 
L 451.20488 100.793039 
L 452.406316 104.905964 
L 452.806794 107.970764 
L 453.207273 114.305048 
L 453.607751 81.14207 
L 454.00823 72.752482 
L 455.610144 101.324413 
L 456.811579 134.816089 
L 458.013014 120.320238 
L 458.413493 144.345677 
L 458.813971 139.318211 
L 459.21445 138.769614 
L 459.614928 157.336703 
L 460.816364 153.599081 
L 461.216842 135.068111 
L 461.617321 136.43969 
L 462.017799 172.096352 
L 462.418278 174.418564 
L 463.619713 168.063054 
L 464.020191 171.274932 
L 464.42067 151.911779 
L 464.821148 153.727844 
L 465.221627 160.901323 
L 466.423062 161.464562 
L 466.823541 138.526842 
L 467.224019 135.214793 
L 467.624498 126.429839 
L 469.226411 138.78238 
L 469.62689 156.262386 
L 470.027368 160.992974 
L 470.427847 156.341309 
L 470.828325 156.233181 
L 472.029761 128.829742 
L 472.430239 138.363723 
L 472.830718 168.037537 
L 473.231196 157.683187 
L 473.631675 166.623752 
L 474.83311 160.125656 
L 475.233589 156.876188 
L 475.634067 161.21149 
L 476.034545 173.975906 
L 476.435024 164.729709 
L 478.437416 181.539502 
L 479.238373 199.160068 
L 480.439809 207.385828 
L 480.840287 208.977797 
L 481.240766 207.009739 
L 481.641244 202.142638 
L 482.041722 182.504336 
L 483.243158 161.388127 
L 483.643636 168.644651 
L 484.044115 169.381471 
L 484.444593 180.733967 
L 484.845072 139.598999 
L 486.046507 133.986242 
L 486.847464 115.392588 
L 487.247943 99.749526 
L 487.648421 115.994161 
L 489.250335 98.017644 
L 489.650813 96.911547 
L 490.45177 126.053189 
L 492.053684 134.367015 
L 492.454163 143.221646 
L 492.854641 106.547543 
L 493.25512 143.601525 
L 494.456555 145.150979 
L 494.857033 163.288434 
L 495.257512 159.37803 
L 495.65799 163.604805 
L 496.058469 155.892281 
L 497.660383 186.120708 
L 498.060861 179.891909 
L 498.46134 150.483092 
L 498.861818 148.98361 
L 500.063254 151.465299 
L 500.463732 126.524603 
L 500.864211 128.274322 
L 501.264689 124.583277 
L 501.665167 116.267841 
L 502.866603 109.805044 
L 503.267081 105.659014 
L 504.068038 91.41405 
L 504.468517 60.079664 
L 505.669952 50.405995 
L 506.070431 52.599422 
L 506.470909 74.517954 
L 506.871388 83.063024 
L 507.271866 66.023417 
L 508.473301 66.970384 
L 509.274258 127.568322 
L 509.674737 144.207649 
L 510.075215 154.3794 
L 511.276651 175.57287 
L 511.677129 173.265333 
L 512.077608 155.63759 
L 512.478086 167.486362 
L 514.08 179.419334 
L 514.480478 161.189666 
L 514.880957 163.261295 
L 515.281435 167.433703 
L 515.681914 175.162043 
L 517.283828 188.053972 
L 517.684306 182.93597 
L 518.084785 161.331296 
L 518.485263 182.307658 
L 519.686699 178.511127 
L 520.087177 178.420229 
L 520.487656 186.300096 
L 521.288612 195.31982 
L 522.490048 213.298842 
L 522.890526 211.012669 
L 523.291005 209.775734 
L 523.691483 202.496788 
L 524.091962 190.064748 
L 525.293397 185.956204 
L 525.693876 172.881462 
L 526.094354 197.153626 
L 526.494833 174.548428 
L 526.895311 174.366138 
L 528.096746 174.031199 
L 528.497225 184.799285 
L 528.897703 159.391026 
L 529.298182 142.071063 
L 529.69866 114.796174 
L 531.300574 104.400285 
L 531.701053 90.367555 
L 532.101531 86.860409 
L 532.50201 108.038012 
L 533.703445 95.957873 
L 534.103923 111.135057 
L 534.504402 85.989933 
L 535.305359 127.19062 
L 536.506794 140.916792 
L 536.907273 136.452401 
L 537.307751 130.376453 
L 537.70823 148.621743 
L 538.108708 152.523154 
L 539.710622 159.832294 
L 540.1111 163.491016 
L 540.511579 164.548796 
L 540.912057 146.58406 
L 542.113493 159.861183 
L 542.513971 166.569147 
L 542.91445 159.395075 
L 543.314928 155.306259 
L 543.715407 132.553303 
L 545.717799 100.901607 
L 546.118278 107.795532 
L 546.518756 95.743452 
L 547.720191 115.84792 
L 548.12067 130.724442 
L 548.521148 128.117094 
L 548.921627 138.068276 
L 549.322105 141.846075 
L 550.523541 130.39726 
L 550.924019 91.877415 
L 551.324498 85.205781 
L 551.724976 68.023979 
L 552.125455 85.809982 
L 553.32689 102.144237 
L 553.727368 130.738287 
L 554.127847 118.597715 
L 554.528325 112.64804 
L 554.928804 77.139609 
L 556.130239 67.233789 
L 556.530718 73.293032 
L 556.931196 67.768312 
L 557.331675 67.642717 
L 557.732153 73.84124 
L 558.933589 83.645687 
L 559.334067 95.536313 
L 559.734545 90.873345 
L 560.135024 90.370823 
L 560.535502 82.367284 
L 561.736938 60.729805 
L 562.137416 65.487531 
L 562.537895 78.505638 
L 563.338852 122.5599 
L 564.540287 135.2339 
L 565.341244 166.708535 
L 565.741722 145.362551 
L 566.142201 159.803748 
L 567.343636 158.284872 
L 567.744115 182.831407 
L 568.144593 182.649591 
L 568.545072 192.989419 
L 568.94555 192.880967 
L 570.547464 204.965815 
L 570.947943 180.298622 
L 571.348421 179.545933 
L 571.7489 151.490312 
L 572.950335 119.029214 
L 573.350813 153.330216 
L 573.751292 147.890096 
L 574.15177 165.990159 
L 574.552249 156.919492 
L 575.753684 149.713439 
L 576.554641 157.863842 
L 577.355598 171.318155 
L 578.557033 163.47586 
L 578.957512 178.160932 
L 579.35799 165.372212 
L 580.158947 200.655216 
L 581.360383 170.85478 
L 581.760861 156.049748 
L 582.561818 143.974926 
L 582.962297 164.106584 
L 584.163732 160.358375 
L 584.964689 148.079267 
L 585.365167 137.285475 
L 585.765646 160.810278 
L 586.967081 134.13521 
L 587.36756 137.262092 
L 588.568995 121.375427 
L 589.770431 136.988868 
L 590.170909 133.588805 
L 590.571388 147.018128 
L 590.971866 144.065184 
L 591.372344 160.421896 
L 592.57378 159.399006 
L 592.974258 172.160886 
L 593.374737 178.485995 
L 593.775215 174.482048 
L 594.175694 193.677068 
L 595.377129 205.458105 
L 595.777608 204.693484 
L 596.178086 209.169698 
L 596.578565 184.469732 
L 596.979043 173.053957 
L 598.180478 178.331871 
L 598.580957 170.224187 
L 598.981435 165.602921 
L 599.381914 155.489275 
L 599.782392 154.925338 
L 600.983828 145.35322 
L 601.784785 115.16911 
L 602.585742 123.43034 
L 603.787177 119.840255 
L 604.187656 123.6909 
L 604.588134 95.821701 
L 605.389091 169.86402 
L 606.590526 172.842275 
L 606.991005 184.499829 
L 607.391483 177.722947 
L 607.791962 156.337687 
L 608.19244 158.595556 
L 609.794354 135.865599 
L 610.595311 154.688641 
L 610.995789 159.727957 
L 612.197225 164.291983 
L 612.597703 188.833782 
L 612.998182 174.789265 
L 613.39866 179.38605 
L 613.799139 160.404637 
L 615.401053 158.335734 
L 615.801531 164.069195 
L 616.20201 161.252484 
L 616.602488 157.2993 
L 618.204402 155.17933 
L 618.60488 169.838564 
L 619.005359 173.458561 
L 619.405837 143.936752 
L 620.607273 134.70902 
L 621.007751 108.359125 
L 621.40823 92.720174 
L 621.808708 96.563461 
L 622.209187 71.740233 
L 623.8111 87.676683 
L 624.211579 77.7715 
L 624.612057 81.332469 
L 625.012536 78.583543 
L 626.213971 76.913015 
L 626.61445 88.310122 
L 627.014928 82.185801 
L 627.415407 65.325353 
L 627.815885 65.222707 
L 629.017321 78.362707 
L 629.417799 78.212337 
L 629.818278 85.957634 
L 630.218756 70.09879 
L 630.619234 116.921184 
L 631.82067 114.001983 
L 632.221148 112.17207 
L 632.621627 113.16364 
L 633.022105 129.20696 
L 633.422584 132.04985 
L 634.624019 122.467535 
L 635.424976 126.176674 
L 635.825455 145.309641 
L 636.225933 143.185136 
L 638.228325 163.336426 
L 638.628804 205.350505 
L 639.029282 190.213892 
L 640.230718 184.138295 
L 640.631196 179.790685 
L 641.031675 179.790712 
L 641.432153 172.928291 
L 641.832632 148.339766 
L 643.034067 167.975462 
L 643.434545 170.110009 
L 643.835024 179.582385 
L 644.235502 174.037827 
L 644.635981 176.505104 
L 646.638373 129.964883 
L 647.038852 94.730573 
L 647.43933 103.691515 
L 648.640766 113.817988 
L 649.041244 89.125778 
L 649.842201 112.015 
L 650.242679 108.335558 
L 651.444115 107.602148 
L 651.844593 114.418269 
L 652.245072 91.742894 
L 652.64555 75.732101 
L 653.046029 76.787497 
L 654.247464 90.899216 
L 654.647943 90.136969 
L 655.048421 126.273491 
L 655.4489 114.441682 
L 657.050813 105.124279 
L 657.451292 136.691952 
L 657.85177 137.775174 
L 658.252249 113.864626 
L 658.652727 109.949559 
L 659.854163 108.464259 
L 660.254641 106.21717 
L 660.65512 110.427711 
L 661.055598 121.919569 
L 661.456077 113.03243 
L 662.657512 112.228245 
L 663.05799 138.98304 
L 663.458469 113.273664 
L 663.858947 99.677347 
L 664.259426 120.405087 
L 665.460861 124.860556 
L 665.86134 111.664482 
L 666.261818 127.138244 
L 666.662297 126.194918 
L 667.062775 120.896754 
L 668.264211 118.378657 
L 668.664689 122.75949 
L 669.065167 108.649957 
L 669.465646 112.194771 
L 669.866124 117.303281 
L 671.06756 97.222174 
L 671.468038 97.817744 
L 671.868517 106.503301 
L 672.268995 70.326649 
L 672.669474 58.241835 
L 673.870909 72.016337 
L 674.271388 72.228385 
L 674.671866 68.914252 
L 675.072344 86.056937 
L 675.472823 74.091099 
L 677.074737 72.615811 
L 677.475215 87.159227 
L 677.875694 86.638375 
L 678.276172 70.945687 
L 679.477608 70.723958 
L 679.878086 72.573371 
L 680.278565 109.396706 
L 680.679043 108.229028 
L 682.280957 87.918494 
L 682.681435 87.601416 
L 683.081914 93.270136 
L 683.482392 81.504172 
L 683.882871 106.419929 
L 685.484785 111.372197 
L 685.885263 110.584636 
L 686.285742 99.222389 
L 686.68622 108.932799 
L 687.887656 123.326741 
L 688.288134 121.166211 
L 688.688612 89.931855 
L 689.089091 110.56639 
L 689.489569 94.274026 
L 690.691005 108.898783 
L 691.491962 108.54321 
L 691.89244 121.052185 
L 692.292919 117.365487 
L 693.494354 123.581988 
L 693.894833 117.284659 
L 694.295311 103.735431 
L 694.695789 110.806291 
L 695.096268 104.015274 
L 696.297703 97.952519 
L 696.698182 111.034409 
L 697.09866 99.476424 
L 697.499139 123.364665 
L 697.899617 134.057609 
L 699.101053 138.850442 
L 699.501531 138.030922 
L 699.90201 133.330258 
L 700.302488 140.035245 
L 700.702967 108.150869 
L 701.904402 108.831013 
L 702.30488 128.057291 
L 702.705359 161.599916 
L 703.105837 159.692652 
L 703.506316 111.930441 
L 704.707751 102.181627 
L 705.10823 117.52126 
L 705.508708 104.173331 
L 705.909187 102.410091 
L 706.309665 97.62193 
L 707.5111 93.277608 
L 708.312057 111.77155 
L 708.712536 126.556869 
L 709.113014 133.862825 
L 710.31445 122.217871 
L 710.714928 109.86808 
L 711.115407 108.197171 
L 711.515885 168.684589 
L 711.916364 176.722609 
L 713.117799 169.512937 
L 713.518278 148.657453 
L 713.918756 152.245392 
L 714.319234 134.333775 
L 714.719713 145.811624 
L 716.321627 134.773722 
L 716.722105 130.492163 
L 717.122584 109.564249 
L 717.523062 102.268072 
L 718.724498 89.497496 
L 719.124976 98.967838 
L 719.525455 91.736741 
L 719.925933 67.503649 
L 720.326411 100.531735 
L 721.527847 102.167528 
L 721.928325 120.599517 
L 722.328804 131.454577 
L 722.729282 163.611776 
L 723.129761 164.662753 
L 724.331196 153.036914 
L 725.132153 172.219037 
L 725.532632 173.962469 
L 725.93311 193.436445 
L 727.134545 176.639111 
L 727.535024 205.406531 
L 727.935502 192.5343 
L 728.335981 186.688642 
L 728.736459 175.349092 
L 729.937895 168.172773 
L 730.338373 155.423384 
L 730.738852 120.963231 
L 731.13933 117.901711 
L 731.539809 138.883093 
L 732.741244 100.075176 
L 733.141722 106.575953 
L 733.542201 123.464066 
L 733.942679 126.880524 
L 734.343158 150.011071 
L 735.544593 123.702674 
L 735.945072 124.930413 
L 736.34555 149.603293 
L 736.746029 164.231356 
L 737.146507 133.896987 
L 738.347943 123.481251 
L 738.748421 128.707191 
L 739.549378 109.628502 
L 739.949856 114.802309 
L 741.151292 108.406764 
L 741.55177 89.752619 
L 741.952249 92.746128 
L 742.352727 85.605856 
L 742.753206 82.913395 
L 743.954641 90.446417 
L 744.35512 51.022915 
L 744.755598 55.37569 
L 745.156077 69.089971 
L 745.556555 74.497451 
L 746.75799 73.225042 
L 747.158469 98.816032 
L 747.558947 93.262086 
L 748.359904 94.777921 
L 749.56134 95.24474 
L 749.961818 110.236431 
L 750.362297 110.723096 
L 750.762775 102.69624 
L 751.163254 111.618093 
L 752.364689 119.707231 
L 752.765167 125.901213 
L 753.165646 124.37253 
L 753.566124 110.239035 
L 753.966603 118.953125 
L 755.168038 133.722164 
L 755.568517 110.88281 
L 756.369474 128.244249 
L 756.769952 119.891909 
L 757.971388 98.793531 
L 758.371866 96.093795 
L 758.772344 104.768864 
L 759.172823 102.147964 
L 759.573301 91.491389 
L 761.175215 98.369319 
L 761.575694 81.105313 
L 761.976172 89.517029 
L 762.376651 104.031083 
L 763.978565 107.68644 
L 764.379043 126.249547 
L 764.779522 155.402209 
L 765.18 144.544086 
L 766.381435 136.910145 
L 766.781914 147.854272 
L 767.582871 116.24754 
L 767.983349 127.99959 
L 769.585263 133.705223 
L 769.985742 140.75355 
L 770.786699 123.90935 
L 771.988134 119.709308 
L 772.789091 92.875482 
L 773.189569 61.621059 
L 773.590048 60.24144 
L 774.791483 63.802386 
L 775.191962 89.310242 
L 775.59244 124.593938 
L 775.992919 113.088821 
L 776.393397 78.294507 
L 777.594833 78.479708 
L 777.995311 77.127995 
L 778.395789 77.804761 
L 778.796268 84.355046 
L 779.196746 74.097184 
L 780.398182 85.082978 
L 780.79866 100.556431 
L 781.199139 97.809069 
L 782.000096 109.748835 
L 783.60201 110.304109 
L 784.002488 93.712782 
L 784.402967 90.238944 
L 784.803445 119.963625 
L 786.00488 114.381516 
L 786.405359 114.52238 
L 786.805837 121.268219 
L 787.206316 106.046288 
L 787.606794 116.331175 
L 788.80823 108.80444 
L 789.208708 107.492054 
L 789.609187 120.015961 
L 790.009665 101.010078 
L 790.410144 107.425504 
L 791.611579 112.24138 
L 792.012057 106.153067 
L 792.412536 123.226024 
L 792.813014 116.199436 
L 793.213493 133.484338 
L 794.414928 128.700068 
L 794.815407 122.107577 
L 795.616364 132.618752 
L 796.016842 127.045331 
L 797.218278 107.0437 
L 797.618756 111.329629 
L 798.019234 118.163668 
L 798.419713 107.720727 
L 800.021627 82.223669 
L 800.422105 97.501656 
L 800.822584 95.069165 
L 801.223062 124.465854 
L 801.623541 67.950094 
L 802.824976 67.792817 
L 803.225455 70.377591 
L 803.625933 76.779825 
L 804.026411 67.301268 
L 804.42689 93.4913 
L 805.628325 112.934113 
L 806.028804 106.1629 
L 806.429282 124.944882 
L 806.829761 137.86641 
L 807.230239 158.243943 
L 808.431675 145.386448 
L 808.832153 142.952751 
L 809.232632 144.733707 
L 809.63311 176.849482 
L 810.033589 150.460465 
L 811.235024 147.293709 
L 811.635502 162.361555 
L 812.035981 159.308957 
L 812.436459 135.881827 
L 812.836938 125.658329 
L 814.038373 119.124326 
L 814.438852 113.151147 
L 814.83933 109.1393 
L 815.239809 90.022547 
L 815.640287 102.738945 
L 816.841722 111.288788 
L 817.242201 98.80464 
L 817.642679 90.771527 
L 818.043158 117.195398 
L 818.443636 118.087182 
L 819.645072 93.591244 
L 820.04555 110.346048 
L 820.846507 168.184156 
L 821.246986 196.082954 
L 823.249378 178.00332 
L 823.649856 204.292999 
L 824.050335 206.419677 
L 825.25177 184.519287 
L 825.652249 180.021728 
L 826.052727 160.09684 
L 826.453206 124.785734 
L 826.853684 134.574174 
L 828.05512 114.032266 
L 828.455598 110.906075 
L 828.856077 112.873444 
L 829.256555 118.557809 
L 829.657033 117.831755 
L 830.858469 122.37918 
L 831.258947 128.415415 
L 832.059904 99.566423 
L 832.460383 71.505639 
L 833.661818 99.754157 
L 834.062297 100.501046 
L 834.462775 86.098045 
L 834.863254 84.958807 
L 835.263732 103.033034 
L 836.465167 100.234765 
L 836.865646 94.661915 
L 837.266124 102.373354 
L 838.067081 86.32376 
L 839.668995 89.061304 
L 840.069474 83.271934 
L 840.469952 107.389418 
L 840.870431 116.30619 
L 842.071866 110.148899 
L 842.472344 111.33837 
L 842.872823 151.322967 
L 843.273301 179.55957 
L 843.67378 170.719439 
L 844.875215 194.925202 
L 845.275694 188.176638 
L 845.676172 194.137645 
L 846.076651 210.244833 
L 846.477129 193.242972 
L 847.678565 189.697741 
L 848.079043 194.573974 
L 848.479522 159.675369 
L 848.88 165.33201 
L 849.280478 188.469903 
L 850.481914 196.348717 
L 851.282871 180.686665 
L 851.683349 170.417441 
L 852.083828 166.270811 
L 853.285263 178.225252 
L 853.685742 158.284791 
L 854.08622 156.647702 
L 854.486699 143.403742 
L 854.887177 146.224278 
L 856.088612 140.280123 
L 856.489091 152.652633 
L 856.889569 142.647675 
L 857.690526 60.966633 
L 858.891962 73.333635 
L 859.29244 89.830269 
L 859.692919 111.260146 
L 860.093397 110.645971 
L 860.493876 92.485509 
L 862.095789 111.079876 
L 862.896746 131.267417 
L 863.297225 149.28474 
L 864.49866 140.17638 
L 865.299617 121.903053 
L 865.700096 105.801808 
L 866.100574 109.068118 
L 867.30201 109.24578 
L 867.702488 98.21506 
L 868.102967 91.935113 
L 868.503445 88.56056 
L 868.903923 96.412826 
L 870.105359 84.027119 
L 870.505837 71.664882 
L 870.906316 85.49655 
L 871.306794 58.444034 
L 871.707273 84.05446 
L 872.908708 103.885232 
L 873.309187 129.359274 
L 873.709665 144.325951 
L 874.110144 154.23173 
L 874.510622 125.370267 
L 875.712057 155.241923 
L 876.112536 145.663097 
L 876.513014 149.765027 
L 876.913493 150.843083 
L 877.313971 151.322959 
L 878.515407 155.511334 
L 878.915885 150.545206 
L 879.316364 148.70847 
L 880.117321 121.09642 
L 881.318756 114.969574 
L 881.719234 110.779768 
L 882.520191 132.91355 
L 882.92067 94.49086 
L 884.122105 99.716055 
L 884.522584 99.757111 
L 884.923062 98.066788 
L 885.323541 143.642132 
L 885.724019 98.14237 
L 886.925455 107.164088 
L 887.726411 84.397966 
L 888.12689 82.334895 
L 888.527368 88.595193 
L 889.728804 93.655299 
L 890.129282 74.373485 
L 890.529761 70.516377 
L 890.930239 80.772864 
L 891.330718 105.583171 
L 892.532153 111.354777 
L 892.932632 109.791246 
L 893.33311 98.470296 
L 893.733589 131.272233 
L 894.134067 129.119158 
L 895.335502 127.716229 
L 895.735981 130.463006 
L 896.136459 142.977711 
L 896.937416 133.043095 
L 898.138852 123.122621 
L 898.53933 121.698748 
L 898.939809 122.708732 
L 899.340287 110.731502 
L 899.740766 71.119213 
L 900.942201 71.234726 
L 901.342679 78.972722 
L 902.143636 52.946632 
L 902.544115 54.041084 
L 903.74555 53.143658 
L 904.146029 67.075895 
L 904.546507 98.085403 
L 904.946986 97.09309 
L 905.347464 99.020043 
L 906.949378 104.931401 
L 907.750335 115.83476 
L 908.150813 141.289854 
L 909.352249 144.957176 
L 909.752727 146.933584 
L 910.553684 161.148994 
L 910.954163 145.183537 
L 912.155598 131.945158 
L 912.556077 160.150401 
L 912.956555 156.481442 
L 913.757512 137.457586 
L 914.958947 149.095709 
L 915.359426 157.907601 
L 915.759904 137.548087 
L 916.160383 158.851201 
L 916.560861 135.547086 
L 918.162775 112.892309 
L 918.563254 95.701036 
L 918.963732 87.941308 
L 919.364211 91.560514 
L 920.565646 98.197359 
L 920.966124 99.693944 
L 921.366603 79.683964 
L 921.767081 91.355765 
L 922.16756 70.68419 
L 923.368995 69.561824 
L 923.769474 60.145982 
L 924.169952 94.543775 
L 924.570431 78.732888 
L 924.970909 123.830417 
L 926.172344 125.777197 
L 926.973301 150.044724 
L 927.37378 144.309091 
L 927.774258 149.890112 
L 929.376172 162.778098 
L 929.776651 160.669609 
L 930.177129 163.279499 
L 930.577608 183.97135 
L 931.779043 188.454963 
L 932.179522 205.417757 
L 932.58 192.564024 
L 932.980478 209.852987 
L 933.380957 182.799924 
L 934.582392 209.804767 
L 934.982871 210.530859 
L 935.383349 186.9311 
L 935.783828 201.119215 
L 936.184306 200.897596 
L 937.385742 203.255256 
L 937.78622 196.171043 
L 938.186699 184.730787 
L 938.587177 183.157811 
L 938.987656 165.271197 
L 940.189091 168.886349 
L 940.589569 177.30582 
L 940.990048 161.447597 
L 941.390526 172.872597 
L 941.791005 155.836365 
L 942.99244 133.598781 
L 943.392919 138.834847 
L 943.793397 131.200735 
L 944.193876 126.624033 
L 944.594354 136.833688 
L 945.795789 147.853178 
L 946.196268 148.94898 
L 946.596746 126.953145 
L 946.997225 170.418809 
L 947.397703 176.615662 
L 948.599139 163.115491 
L 948.999617 174.722045 
L 949.400096 137.38943 
L 949.800574 150.245399 
L 950.201053 155.121336 
L 951.402488 161.470514 
L 951.802967 159.542968 
L 952.203445 164.674922 
L 952.603923 158.280134 
L 954.205837 161.012692 
L 955.006794 150.127657 
L 955.407273 121.683747 
L 955.807751 107.346477 
L 957.009187 114.405486 
L 957.409665 106.840957 
L 957.810144 145.610831 
L 958.210622 113.103659 
L 958.6111 120.636121 
L 959.812536 122.81823 
L 960.213014 119.848934 
L 960.613493 98.136155 
L 961.013971 87.573508 
L 961.41445 67.525377 
L 962.615885 58.836832 
L 963.016364 62.609838 
L 963.416842 72.911981 
L 963.817321 93.999852 
L 964.217799 89.168048 
L 965.419234 87.292813 
L 965.819713 84.291062 
L 966.220191 103.90832 
L 967.021148 94.43361 
L 968.623062 82.150446 
L 969.023541 92.067116 
L 969.824498 100.388366 
L 971.426411 156.30739 
L 971.82689 144.936691 
L 972.227368 118.696696 
L 972.627847 100.016484 
L 973.829282 92.532725 
L 974.229761 80.064806 
L 974.630239 87.898128 
L 975.030718 92.54227 
L 975.431196 87.229546 
L 976.632632 89.852151 
L 977.03311 89.736338 
L 977.433589 104.908732 
L 978.234545 114.834572 
L 979.435981 125.431792 
L 979.836459 108.258783 
L 980.236938 115.733484 
L 980.637416 104.065767 
L 981.037895 102.882311 
L 982.23933 125.132565 
L 982.639809 123.915372 
L 983.040287 110.275988 
L 983.440766 101.969948 
L 985.042679 97.399142 
L 985.443158 122.345036 
L 985.843636 109.832291 
L 986.244115 102.398912 
L 986.644593 85.131042 
L 987.846029 78.512064 
L 988.246507 85.181213 
L 989.447943 120.31161 
L 990.649378 89.047935 
L 991.049856 102.580693 
L 991.450335 97.17545 
L 991.850813 95.889815 
L 992.251292 100.250802 
L 993.452727 72.434149 
L 993.853206 92.365513 
L 994.253684 95.73182 
L 994.654163 92.260733 
L 995.054641 160.320034 
L 996.256077 167.986385 
L 996.656555 155.75662 
L 997.057033 135.65705 
L 997.457512 138.859987 
L 997.85799 147.507748 
L 999.059426 146.624213 
L 999.459904 148.341521 
L 999.860383 150.657905 
L 1000.260861 133.31416 
L 1000.66134 136.186389 
L 1001.862775 131.252216 
L 1002.263254 136.986517 
L 1002.663732 154.212099 
L 1003.064211 109.629116 
L 1003.464689 83.274656 
L 1004.666124 90.581282 
L 1005.066603 108.759991 
L 1005.467081 109.973801 
L 1005.86756 101.158009 
L 1006.268038 106.356393 
L 1007.869952 120.498741 
L 1008.270431 127.652598 
L 1008.670909 118.274098 
L 1008.670909 118.274098 
" clip-path="url(#pafcdb40982)" style="fill: none; stroke: #1f77b4; stroke-width: 1.5; stroke-linecap: square"/>
   </g>
   <g id="patch_3">
    <path d="M 145.8 224.28 
L 145.8 30.24 
" style="fill: none; stroke: #000000; stroke-width: 0.8; stroke-linejoin: miter; stroke-linecap: square"/>
   </g>
   <g id="patch_4">
    <path d="M 145.8 224.28 
L 1049.76 224.28 
" style="fill: none; stroke: #000000; stroke-width: 0.8; stroke-linejoin: miter; stroke-linecap: square"/>
   </g>
  </g>
 </g>
 <defs>
  <clipPath id="pafcdb40982">
   <rect x="145.8" y="30.24" width="903.96" height="194.04"/>
  </clipPath>
 </defs>
</svg>
