<?xml version="1.0" encoding="utf-8" standalone="no"?>
<!DOCTYPE svg PUBLIC "-//W3C//DTD SVG 1.1//EN"
  "http://www.w3.org/Graphics/SVG/1.1/DTD/svg11.dtd">
<svg xmlns:xlink="http://www.w3.org/1999/xlink" width="1166.4pt" height="252pt" viewBox="0 0 1166.4 252" xmlns="http://www.w3.org/2000/svg" version="1.1">
 <metadata>
  <rdf:RDF xmlns:dc="http://purl.org/dc/elements/1.1/" xmlns:cc="http://creativecommons.org/ns#" xmlns:rdf="http://www.w3.org/1999/02/22-rdf-syntax-ns#">
   <cc:Work>
    <dc:type rdf:resource="http://purl.org/dc/dcmitype/StillImage"/>
    <dc:date>2025-09-06T23:30:07.055550</dc:date>
    <dc:format>image/svg+xml</dc:format>
    <dc:creator>
     <cc:Agent>
      <dc:title>Matplotlib v3.10.5, https://matplotlib.org/</dc:title>
     </cc:Agent>
    </dc:creator>
   </cc:Work>
  </rdf:RDF>
 </metadata>
 <defs>
  <style type="text/css">*{stroke-linejoin: round; stroke-linecap: butt}</style>
 </defs>
 <g id="figure_1">
  <g id="patch_1">
   <path d="M 0 252 
L 1166.4 252 
L 1166.4 0 
L 0 0 
z
" style="fill: #ffffff"/>
  </g>
  <g id="axes_1">
   <g id="patch_2">
    <path d="M 145.8 224.28 
L 1049.76 224.28 
L 1049.76 30.24 
L 145.8 30.24 
z
" style="fill: #ffffff"/>
   </g>
   <g id="matplotlib.axis_1">
    <g id="xtick_1">
     <g id="line2d_1">
      <defs>
       <path id="m422ba930f9" d="M 0 0 
L 0 3.5 
" style="stroke: #000000; stroke-width: 0.8"/>
      </defs>
      <g>
       <use xlink:href="#m422ba930f9" x="178.474943" y="224.28" style="stroke: #000000; stroke-width: 0.8"/>
      </g>
     </g>
     <g id="text_1">
      <!-- 2020 -->
      <g transform="translate(165.749943 238.878438) scale(0.1 -0.1)">
       <defs>
        <path id="DejaVuSans-32" d="M 1228 531 
L 3431 531 
L 3431 0 
L 469 0 
L 469 531 
Q 828 903 1448 1529 
Q 2069 2156 2228 2338 
Q 2531 2678 2651 2914 
Q 2772 3150 2772 3378 
Q 2772 3750 2511 3984 
Q 2250 4219 1831 4219 
Q 1534 4219 1204 4116 
Q 875 4013 500 3803 
L 500 4441 
Q 881 4594 1212 4672 
Q 1544 4750 1819 4750 
Q 2544 4750 2975 4387 
Q 3406 4025 3406 3419 
Q 3406 3131 3298 2873 
Q 3191 2616 2906 2266 
Q 2828 2175 2409 1742 
Q 1991 1309 1228 531 
z
" transform="scale(0.015625)"/>
        <path id="DejaVuSans-30" d="M 2034 4250 
Q 1547 4250 1301 3770 
Q 1056 3291 1056 2328 
Q 1056 1369 1301 889 
Q 1547 409 2034 409 
Q 2525 409 2770 889 
Q 3016 1369 3016 2328 
Q 3016 3291 2770 3770 
Q 2525 4250 2034 4250 
z
M 2034 4750 
Q 2819 4750 3233 4129 
Q 3647 3509 3647 2328 
Q 3647 1150 3233 529 
Q 2819 -91 2034 -91 
Q 1250 -91 836 529 
Q 422 1150 422 2328 
Q 422 3509 836 4129 
Q 1250 4750 2034 4750 
z
" transform="scale(0.015625)"/>
       </defs>
       <use xlink:href="#DejaVuSans-32"/>
       <use xlink:href="#DejaVuSans-30" transform="translate(63.623047 0)"/>
       <use xlink:href="#DejaVuSans-32" transform="translate(127.246094 0)"/>
       <use xlink:href="#DejaVuSans-30" transform="translate(190.869141 0)"/>
      </g>
     </g>
    </g>
    <g id="xtick_2">
     <g id="line2d_2">
      <g>
       <use xlink:href="#m422ba930f9" x="325.121527" y="224.28" style="stroke: #000000; stroke-width: 0.8"/>
      </g>
     </g>
     <g id="text_2">
      <!-- 2021 -->
      <g transform="translate(312.396527 238.878438) scale(0.1 -0.1)">
       <defs>
        <path id="DejaVuSans-31" d="M 794 531 
L 1825 531 
L 1825 4091 
L 703 3866 
L 703 4441 
L 1819 4666 
L 2450 4666 
L 2450 531 
L 3481 531 
L 3481 0 
L 794 0 
L 794 531 
z
" transform="scale(0.015625)"/>
       </defs>
       <use xlink:href="#DejaVuSans-32"/>
       <use xlink:href="#DejaVuSans-30" transform="translate(63.623047 0)"/>
       <use xlink:href="#DejaVuSans-32" transform="translate(127.246094 0)"/>
       <use xlink:href="#DejaVuSans-31" transform="translate(190.869141 0)"/>
      </g>
     </g>
    </g>
    <g id="xtick_3">
     <g id="line2d_3">
      <g>
       <use xlink:href="#m422ba930f9" x="471.367439" y="224.28" style="stroke: #000000; stroke-width: 0.8"/>
      </g>
     </g>
     <g id="text_3">
      <!-- 2022 -->
      <g transform="translate(458.642439 238.878438) scale(0.1 -0.1)">
       <use xlink:href="#DejaVuSans-32"/>
       <use xlink:href="#DejaVuSans-30" transform="translate(63.623047 0)"/>
       <use xlink:href="#DejaVuSans-32" transform="translate(127.246094 0)"/>
       <use xlink:href="#DejaVuSans-32" transform="translate(190.869141 0)"/>
      </g>
     </g>
    </g>
    <g id="xtick_4">
     <g id="line2d_4">
      <g>
       <use xlink:href="#m422ba930f9" x="617.61335" y="224.28" style="stroke: #000000; stroke-width: 0.8"/>
      </g>
     </g>
     <g id="text_4">
      <!-- 2023 -->
      <g transform="translate(604.88835 238.878438) scale(0.1 -0.1)">
       <defs>
        <path id="DejaVuSans-33" d="M 2597 2516 
Q 3050 2419 3304 2112 
Q 3559 1806 3559 1356 
Q 3559 666 3084 287 
Q 2609 -91 1734 -91 
Q 1441 -91 1130 -33 
Q 819 25 488 141 
L 488 750 
Q 750 597 1062 519 
Q 1375 441 1716 441 
Q 2309 441 2620 675 
Q 2931 909 2931 1356 
Q 2931 1769 2642 2001 
Q 2353 2234 1838 2234 
L 1294 2234 
L 1294 2753 
L 1863 2753 
Q 2328 2753 2575 2939 
Q 2822 3125 2822 3475 
Q 2822 3834 2567 4026 
Q 2313 4219 1838 4219 
Q 1578 4219 1281 4162 
Q 984 4106 628 3988 
L 628 4550 
Q 988 4650 1302 4700 
Q 1616 4750 1894 4750 
Q 2613 4750 3031 4423 
Q 3450 4097 3450 3541 
Q 3450 3153 3228 2886 
Q 3006 2619 2597 2516 
z
" transform="scale(0.015625)"/>
       </defs>
       <use xlink:href="#DejaVuSans-32"/>
       <use xlink:href="#DejaVuSans-30" transform="translate(63.623047 0)"/>
       <use xlink:href="#DejaVuSans-32" transform="translate(127.246094 0)"/>
       <use xlink:href="#DejaVuSans-33" transform="translate(190.869141 0)"/>
      </g>
     </g>
    </g>
    <g id="xtick_5">
     <g id="line2d_5">
      <g>
       <use xlink:href="#m422ba930f9" x="763.859261" y="224.28" style="stroke: #000000; stroke-width: 0.8"/>
      </g>
     </g>
     <g id="text_5">
      <!-- 2024 -->
      <g transform="translate(751.134261 238.878438) scale(0.1 -0.1)">
       <defs>
        <path id="DejaVuSans-34" d="M 2419 4116 
L 825 1625 
L 2419 1625 
L 2419 4116 
z
M 2253 4666 
L 3047 4666 
L 3047 1625 
L 3713 1625 
L 3713 1100 
L 3047 1100 
L 3047 0 
L 2419 0 
L 2419 1100 
L 313 1100 
L 313 1709 
L 2253 4666 
z
" transform="scale(0.015625)"/>
       </defs>
       <use xlink:href="#DejaVuSans-32"/>
       <use xlink:href="#DejaVuSans-30" transform="translate(63.623047 0)"/>
       <use xlink:href="#DejaVuSans-32" transform="translate(127.246094 0)"/>
       <use xlink:href="#DejaVuSans-34" transform="translate(190.869141 0)"/>
      </g>
     </g>
    </g>
    <g id="xtick_6">
     <g id="line2d_6">
      <g>
       <use xlink:href="#m422ba930f9" x="910.505845" y="224.28" style="stroke: #000000; stroke-width: 0.8"/>
      </g>
     </g>
     <g id="text_6">
      <!-- 2025 -->
      <g transform="translate(897.780845 238.878438) scale(0.1 -0.1)">
       <defs>
        <path id="DejaVuSans-35" d="M 691 4666 
L 3169 4666 
L 3169 4134 
L 1269 4134 
L 1269 2991 
Q 1406 3038 1543 3061 
Q 1681 3084 1819 3084 
Q 2600 3084 3056 2656 
Q 3513 2228 3513 1497 
Q 3513 744 3044 326 
Q 2575 -91 1722 -91 
Q 1428 -91 1123 -41 
Q 819 9 494 109 
L 494 744 
Q 775 591 1075 516 
Q 1375 441 1709 441 
Q 2250 441 2565 725 
Q 2881 1009 2881 1497 
Q 2881 1984 2565 2268 
Q 2250 2553 1709 2553 
Q 1456 2553 1204 2497 
Q 953 2441 691 2322 
L 691 4666 
z
" transform="scale(0.015625)"/>
       </defs>
       <use xlink:href="#DejaVuSans-32"/>
       <use xlink:href="#DejaVuSans-30" transform="translate(63.623047 0)"/>
       <use xlink:href="#DejaVuSans-32" transform="translate(127.246094 0)"/>
       <use xlink:href="#DejaVuSans-35" transform="translate(190.869141 0)"/>
      </g>
     </g>
    </g>
   </g>
   <g id="matplotlib.axis_2">
    <g id="ytick_1">
     <g id="line2d_7">
      <defs>
       <path id="mab2d4192ac" d="M 0 0 
L -3.5 0 
" style="stroke: #000000; stroke-width: 0.8"/>
      </defs>
      <g>
       <use xlink:href="#mab2d4192ac" x="145.8" y="223.492138" style="stroke: #000000; stroke-width: 0.8"/>
      </g>
     </g>
     <g id="text_7">
      <!-- 10 -->
      <g transform="translate(126.075 227.291356) scale(0.1 -0.1)">
       <use xlink:href="#DejaVuSans-31"/>
       <use xlink:href="#DejaVuSans-30" transform="translate(63.623047 0)"/>
      </g>
     </g>
    </g>
    <g id="ytick_2">
     <g id="line2d_8">
      <g>
       <use xlink:href="#mab2d4192ac" x="145.8" y="200.701871" style="stroke: #000000; stroke-width: 0.8"/>
      </g>
     </g>
     <g id="text_8">
      <!-- 20 -->
      <g transform="translate(126.075 204.501089) scale(0.1 -0.1)">
       <use xlink:href="#DejaVuSans-32"/>
       <use xlink:href="#DejaVuSans-30" transform="translate(63.623047 0)"/>
      </g>
     </g>
    </g>
    <g id="ytick_3">
     <g id="line2d_9">
      <g>
       <use xlink:href="#mab2d4192ac" x="145.8" y="177.911604" style="stroke: #000000; stroke-width: 0.8"/>
      </g>
     </g>
     <g id="text_9">
      <!-- 30 -->
      <g transform="translate(126.075 181.710822) scale(0.1 -0.1)">
       <use xlink:href="#DejaVuSans-33"/>
       <use xlink:href="#DejaVuSans-30" transform="translate(63.623047 0)"/>
      </g>
     </g>
    </g>
    <g id="ytick_4">
     <g id="line2d_10">
      <g>
       <use xlink:href="#mab2d4192ac" x="145.8" y="155.121336" style="stroke: #000000; stroke-width: 0.8"/>
      </g>
     </g>
     <g id="text_10">
      <!-- 40 -->
      <g transform="translate(126.075 158.920555) scale(0.1 -0.1)">
       <use xlink:href="#DejaVuSans-34"/>
       <use xlink:href="#DejaVuSans-30" transform="translate(63.623047 0)"/>
      </g>
     </g>
    </g>
    <g id="ytick_5">
     <g id="line2d_11">
      <g>
       <use xlink:href="#mab2d4192ac" x="145.8" y="132.331069" style="stroke: #000000; stroke-width: 0.8"/>
      </g>
     </g>
     <g id="text_11">
      <!-- 50 -->
      <g transform="translate(126.075 136.130288) scale(0.1 -0.1)">
       <use xlink:href="#DejaVuSans-35"/>
       <use xlink:href="#DejaVuSans-30" transform="translate(63.623047 0)"/>
      </g>
     </g>
    </g>
    <g id="ytick_6">
     <g id="line2d_12">
      <g>
       <use xlink:href="#mab2d4192ac" x="145.8" y="109.540802" style="stroke: #000000; stroke-width: 0.8"/>
      </g>
     </g>
     <g id="text_12">
      <!-- 60 -->
      <g transform="translate(126.075 113.340021) scale(0.1 -0.1)">
       <defs>
        <path id="DejaVuSans-36" d="M 2113 2584 
Q 1688 2584 1439 2293 
Q 1191 2003 1191 1497 
Q 1191 994 1439 701 
Q 1688 409 2113 409 
Q 2538 409 2786 701 
Q 3034 994 3034 1497 
Q 3034 2003 2786 2293 
Q 2538 2584 2113 2584 
z
M 3366 4563 
L 3366 3988 
Q 3128 4100 2886 4159 
Q 2644 4219 2406 4219 
Q 1781 4219 1451 3797 
Q 1122 3375 1075 2522 
Q 1259 2794 1537 2939 
Q 1816 3084 2150 3084 
Q 2853 3084 3261 2657 
Q 3669 2231 3669 1497 
Q 3669 778 3244 343 
Q 2819 -91 2113 -91 
Q 1303 -91 875 529 
Q 447 1150 447 2328 
Q 447 3434 972 4092 
Q 1497 4750 2381 4750 
Q 2619 4750 2861 4703 
Q 3103 4656 3366 4563 
z
" transform="scale(0.015625)"/>
       </defs>
       <use xlink:href="#DejaVuSans-36"/>
       <use xlink:href="#DejaVuSans-30" transform="translate(63.623047 0)"/>
      </g>
     </g>
    </g>
    <g id="ytick_7">
     <g id="line2d_13">
      <g>
       <use xlink:href="#mab2d4192ac" x="145.8" y="86.750535" style="stroke: #000000; stroke-width: 0.8"/>
      </g>
     </g>
     <g id="text_13">
      <!-- 70 -->
      <g transform="translate(126.075 90.549754) scale(0.1 -0.1)">
       <defs>
        <path id="DejaVuSans-37" d="M 525 4666 
L 3525 4666 
L 3525 4397 
L 1831 0 
L 1172 0 
L 2766 4134 
L 525 4134 
L 525 4666 
z
" transform="scale(0.015625)"/>
       </defs>
       <use xlink:href="#DejaVuSans-37"/>
       <use xlink:href="#DejaVuSans-30" transform="translate(63.623047 0)"/>
      </g>
     </g>
    </g>
    <g id="ytick_8">
     <g id="line2d_14">
      <g>
       <use xlink:href="#mab2d4192ac" x="145.8" y="63.960268" style="stroke: #000000; stroke-width: 0.8"/>
      </g>
     </g>
     <g id="text_14">
      <!-- 80 -->
      <g transform="translate(126.075 67.759487) scale(0.1 -0.1)">
       <defs>
        <path id="DejaVuSans-38" d="M 2034 2216 
Q 1584 2216 1326 1975 
Q 1069 1734 1069 1313 
Q 1069 891 1326 650 
Q 1584 409 2034 409 
Q 2484 409 2743 651 
Q 3003 894 3003 1313 
Q 3003 1734 2745 1975 
Q 2488 2216 2034 2216 
z
M 1403 2484 
Q 997 2584 770 2862 
Q 544 3141 544 3541 
Q 544 4100 942 4425 
Q 1341 4750 2034 4750 
Q 2731 4750 3128 4425 
Q 3525 4100 3525 3541 
Q 3525 3141 3298 2862 
Q 3072 2584 2669 2484 
Q 3125 2378 3379 2068 
Q 3634 1759 3634 1313 
Q 3634 634 3220 271 
Q 2806 -91 2034 -91 
Q 1263 -91 848 271 
Q 434 634 434 1313 
Q 434 1759 690 2068 
Q 947 2378 1403 2484 
z
M 1172 3481 
Q 1172 3119 1398 2916 
Q 1625 2713 2034 2713 
Q 2441 2713 2670 2916 
Q 2900 3119 2900 3481 
Q 2900 3844 2670 4047 
Q 2441 4250 2034 4250 
Q 1625 4250 1398 4047 
Q 1172 3844 1172 3481 
z
" transform="scale(0.015625)"/>
       </defs>
       <use xlink:href="#DejaVuSans-38"/>
       <use xlink:href="#DejaVuSans-30" transform="translate(63.623047 0)"/>
      </g>
     </g>
    </g>
    <g id="ytick_9">
     <g id="line2d_15">
      <g>
       <use xlink:href="#mab2d4192ac" x="145.8" y="41.170001" style="stroke: #000000; stroke-width: 0.8"/>
      </g>
     </g>
     <g id="text_15">
      <!-- 90 -->
      <g transform="translate(126.075 44.96922) scale(0.1 -0.1)">
       <defs>
        <path id="DejaVuSans-39" d="M 703 97 
L 703 672 
Q 941 559 1184 500 
Q 1428 441 1663 441 
Q 2288 441 2617 861 
Q 2947 1281 2994 2138 
Q 2813 1869 2534 1725 
Q 2256 1581 1919 1581 
Q 1219 1581 811 2004 
Q 403 2428 403 3163 
Q 403 3881 828 4315 
Q 1253 4750 1959 4750 
Q 2769 4750 3195 4129 
Q 3622 3509 3622 2328 
Q 3622 1225 3098 567 
Q 2575 -91 1691 -91 
Q 1453 -91 1209 -44 
Q 966 3 703 97 
z
M 1959 2075 
Q 2384 2075 2632 2365 
Q 2881 2656 2881 3163 
Q 2881 3666 2632 3958 
Q 2384 4250 1959 4250 
Q 1534 4250 1286 3958 
Q 1038 3666 1038 3163 
Q 1038 2656 1286 2365 
Q 1534 2075 1959 2075 
z
" transform="scale(0.015625)"/>
       </defs>
       <use xlink:href="#DejaVuSans-39"/>
       <use xlink:href="#DejaVuSans-30" transform="translate(63.623047 0)"/>
      </g>
     </g>
    </g>
   </g>
   <g id="line2d_16">
    <path d="M 186.889091 138.490707 
L 187.289765 140.05824 
L 187.690438 140.004525 
L 188.89246 174.103047 
L 189.293133 159.570268 
L 189.693807 150.408527 
L 190.094481 148.22553 
L 190.495154 89.985506 
L 191.697176 93.842784 
L 192.097849 74.943074 
L 192.899197 76.979426 
L 193.299871 66.344321 
L 194.501892 63.047165 
L 194.902565 59.180192 
L 195.303239 56.985357 
L 195.703913 50.979169 
L 196.104587 41.706268 
L 197.707282 41.957687 
L 198.107955 41.366914 
L 198.508629 50.972638 
L 198.909303 100.733224 
L 200.111324 130.869374 
L 200.511998 154.930951 
L 200.912671 150.175372 
L 201.313345 172.571863 
L 201.714019 182.812283 
L 202.91604 177.209357 
L 203.316714 189.14344 
L 203.717388 171.005033 
L 204.118061 176.373329 
L 204.518735 177.310556 
L 205.720756 192.544134 
L 206.12143 174.708913 
L 206.522104 179.511165 
L 206.922777 186.050482 
L 207.323451 160.377802 
L 208.525472 165.626418 
L 209.32682 138.461726 
L 209.727493 132.634318 
L 210.128167 144.330289 
L 211.330188 133.008562 
L 211.730862 136.376213 
L 212.131536 136.644181 
L 212.53221 126.459068 
L 212.932883 121.112867 
L 214.134904 123.971577 
L 214.535578 116.48243 
L 214.936252 100.383997 
L 215.336926 111.354607 
L 215.737599 93.820691 
L 217.340294 98.270956 
L 217.740968 100.924354 
L 218.141642 91.836668 
L 219.744337 83.654755 
L 220.14501 76.457496 
L 220.545684 60.594516 
L 220.946358 58.735944 
L 221.347032 52.601734 
L 222.549053 55.045632 
L 222.949727 69.361281 
L 223.3504 55.738951 
L 223.751074 54.4193 
L 224.151748 50.51814 
L 225.353769 65.445694 
L 225.754443 82.564965 
L 226.155116 80.136949 
L 226.55579 72.468024 
L 226.956464 117.205614 
L 228.559159 130.844399 
L 228.959832 141.485697 
L 229.360506 133.548345 
L 229.76118 134.659381 
L 230.963201 118.131919 
L 231.363875 133.450441 
L 231.764549 137.938211 
L 232.165222 136.072105 
L 232.565896 126.294326 
L 233.767917 110.745333 
L 234.168591 116.645957 
L 234.569265 126.91792 
L 234.969938 82.46185 
L 235.370612 92.644547 
L 236.973307 99.422021 
L 237.373981 112.415778 
L 237.774654 120.811068 
L 238.175328 112.495296 
L 239.377349 112.683598 
L 239.778023 89.771682 
L 240.178697 90.940582 
L 240.579371 105.170957 
L 240.980044 104.749186 
L 242.182066 98.25856 
L 242.582739 86.988138 
L 242.983413 87.354031 
L 243.384087 101.944369 
L 243.78476 103.002493 
L 244.986782 92.62187 
L 245.387455 82.006966 
L 245.788129 75.424197 
L 246.188803 78.991423 
L 246.589477 80.033382 
L 247.791498 75.243074 
L 248.192171 70.425862 
L 248.592845 74.411944 
L 248.993519 74.643819 
L 249.394193 97.802711 
L 250.596214 113.943488 
L 250.996888 108.142094 
L 251.397561 66.482282 
L 251.798235 61.272576 
L 253.40093 52.661567 
L 253.801604 70.312264 
L 254.202277 66.546691 
L 254.602951 61.535901 
L 255.003625 61.722328 
L 257.006993 98.297107 
L 257.407667 101.536033 
L 257.808341 97.642169 
L 259.010362 79.137464 
L 260.212383 122.420963 
L 260.613057 138.030138 
L 261.815078 125.7351 
L 262.215752 142.275745 
L 262.616426 152.149273 
L 263.017099 151.996545 
L 263.417773 124.429438 
L 264.619794 128.830453 
L 265.020468 115.104752 
L 265.821816 98.989244 
L 266.222489 136.970461 
L 267.42451 130.682845 
L 267.825184 135.412584 
L 268.225858 102.876313 
L 268.626532 106.010934 
L 269.027205 115.416514 
L 270.229227 98.022809 
L 270.6299 87.025985 
L 271.431248 109.400455 
L 271.831921 100.527773 
L 273.033943 101.088715 
L 273.434616 104.911282 
L 273.83529 95.075752 
L 274.235964 91.412217 
L 274.636638 86.459774 
L 275.838659 63.356729 
L 276.239332 65.955023 
L 276.640006 63.070247 
L 277.04068 99.343832 
L 277.441354 116.325746 
L 279.044049 155.111796 
L 279.444722 131.278748 
L 279.845396 147.200122 
L 280.24607 151.859937 
L 281.448091 156.262146 
L 281.848765 154.289849 
L 282.249438 175.04038 
L 282.650112 177.004841 
L 283.050786 180.82754 
L 284.252807 187.864902 
L 284.653481 169.761355 
L 285.054155 181.836553 
L 285.855502 153.339489 
L 287.057523 129.616271 
L 287.458197 147.547274 
L 287.858871 135.92277 
L 288.259544 118.258973 
L 288.660218 129.642147 
L 289.862239 127.189925 
L 290.262913 129.778416 
L 290.663587 111.073478 
L 291.464934 96.730963 
L 292.666955 97.660406 
L 293.067629 76.355055 
L 293.468303 91.651251 
L 293.868977 101.940751 
L 294.26965 119.841147 
L 295.471671 124.746484 
L 295.872345 124.074919 
L 296.273019 136.91977 
L 296.673693 125.13754 
L 297.074366 131.55956 
L 298.276388 114.157759 
L 298.677061 116.561808 
L 299.077735 136.422674 
L 299.478409 144.211217 
L 299.879082 194.625345 
L 301.081104 196.895284 
L 301.481777 180.94406 
L 301.882451 144.582377 
L 302.283125 126.23704 
L 302.683799 118.637992 
L 304.286494 147.843528 
L 304.687167 136.050596 
L 305.087841 141.311898 
L 305.488515 139.697682 
L 306.690536 147.946377 
L 307.09121 135.378407 
L 307.491883 144.405867 
L 307.892557 121.265557 
L 308.293231 119.120206 
L 309.495252 124.990102 
L 309.895926 155.603783 
L 310.296599 158.826421 
L 311.097947 154.796055 
L 312.299968 126.153282 
L 312.700642 78.472499 
L 313.101316 107.678743 
L 313.501989 102.841365 
L 313.902663 119.547923 
L 315.104684 122.211607 
L 315.505358 117.415883 
L 315.906032 132.728786 
L 316.306705 137.357258 
L 316.707379 126.780292 
L 317.9094 115.168375 
L 318.310074 118.122672 
L 318.710748 115.842403 
L 319.111421 120.141886 
L 319.512095 122.459878 
L 320.714116 136.983039 
L 321.11479 131.28032 
L 321.515464 132.837166 
L 321.916138 128.698513 
L 323.518832 98.466148 
L 323.919506 95.073348 
L 324.32018 81.303823 
L 324.720854 91.316416 
L 326.323549 115.910662 
L 326.724222 117.67756 
L 327.124896 137.865697 
L 327.52557 150.344564 
L 327.926244 144.161965 
L 329.128265 150.50678 
L 329.528938 150.004926 
L 329.929612 140.112222 
L 330.330286 143.089976 
L 330.73096 144.852915 
L 332.333655 167.548385 
L 332.734328 142.889717 
L 333.135002 128.567679 
L 333.535676 125.904768 
L 334.737697 110.381431 
L 335.138371 110.340196 
L 335.939718 116.763212 
L 336.340392 127.576514 
L 337.542413 91.062741 
L 337.943087 87.713613 
L 338.34376 107.912948 
L 339.145108 89.678925 
L 340.347129 98.199691 
L 340.747803 123.713108 
L 341.148477 136.759995 
L 341.54915 138.744274 
L 341.949824 135.714524 
L 343.552519 144.735892 
L 343.953193 113.945078 
L 344.353866 111.083749 
L 344.75454 122.9859 
L 345.956561 172.035498 
L 346.357235 180.156672 
L 346.757909 174.908341 
L 347.158583 195.577346 
L 347.559256 190.477662 
L 348.761277 170.200587 
L 349.161951 174.729159 
L 349.562625 182.719587 
L 349.963299 183.015697 
L 350.363972 181.155748 
L 351.565994 184.924955 
L 351.966667 169.279616 
L 352.367341 173.794221 
L 352.768015 153.866254 
L 353.168688 147.70803 
L 354.37071 151.511683 
L 354.771383 144.27753 
L 355.172057 117.07791 
L 355.572731 143.561204 
L 355.973405 144.75802 
L 357.175426 129.408042 
L 357.576099 106.031541 
L 357.976773 111.433911 
L 358.377447 123.845175 
L 358.778121 112.403322 
L 359.980142 129.305408 
L 360.781489 136.932568 
L 361.182163 116.83843 
L 362.784858 104.023249 
L 363.185532 106.253231 
L 363.586205 104.505659 
L 363.986879 70.559388 
L 364.387553 67.989146 
L 365.589574 70.851887 
L 365.990248 71.494331 
L 366.390922 77.192823 
L 366.791595 58.476829 
L 367.192269 57.369828 
L 368.39429 68.850626 
L 368.794964 74.308827 
L 369.195638 75.501814 
L 369.596311 100.09588 
L 369.996985 105.754169 
L 371.199006 94.285679 
L 371.59968 101.336307 
L 372.000354 98.015918 
L 372.401027 108.228554 
L 372.801701 110.771262 
L 374.003722 135.260149 
L 374.404396 136.846668 
L 374.80507 155.738043 
L 375.205744 151.828883 
L 375.606417 149.576215 
L 376.808438 159.944674 
L 377.209112 158.51059 
L 377.609786 161.19833 
L 378.01046 166.528121 
L 378.411133 168.204673 
L 379.613155 158.918532 
L 380.013828 173.428707 
L 380.414502 176.715626 
L 381.215849 167.720256 
L 382.417871 145.992363 
L 382.818544 134.798675 
L 383.219218 141.70664 
L 383.619892 145.778071 
L 384.020566 123.638239 
L 385.62326 133.83676 
L 386.023934 104.948745 
L 386.424608 124.650146 
L 386.825282 137.976512 
L 388.027303 160.064087 
L 388.427977 121.184189 
L 388.82865 115.885699 
L 389.229324 102.882284 
L 389.629998 85.899741 
L 390.832019 86.84485 
L 391.232693 90.074425 
L 391.633366 84.90322 
L 392.03404 58.427365 
L 392.434714 56.19142 
L 393.636735 68.996699 
L 394.037409 65.015715 
L 394.438083 45.162503 
L 394.838756 70.789153 
L 395.23943 84.930003 
L 396.441451 88.314574 
L 396.842125 90.290714 
L 397.242799 106.027935 
L 397.643472 107.573859 
L 398.044146 99.220236 
L 399.646841 76.894749 
L 400.047515 78.013137 
L 400.448188 82.251113 
L 400.848862 85.09727 
L 402.050883 75.293925 
L 402.451557 94.534925 
L 403.252905 92.171565 
L 403.653578 95.082836 
L 404.855599 108.636012 
L 405.656947 101.246785 
L 406.057621 91.857721 
L 407.660316 125.408223 
L 408.060989 150.146485 
L 408.461663 159.88597 
L 408.862337 163.515042 
L 409.263011 195.262514 
L 410.465032 191.102771 
L 410.865705 183.603198 
L 411.266379 179.914962 
L 411.667053 168.319173 
L 412.067727 169.18284 
L 413.269748 175.381979 
L 413.670422 180.833611 
L 414.071095 198.335853 
L 414.471769 200.538056 
L 414.872443 215.46 
L 416.074464 208.793755 
L 416.475138 214.128687 
L 416.875811 214.731684 
L 417.276485 186.809581 
L 417.677159 182.156672 
L 418.87918 166.783802 
L 419.279854 147.806583 
L 419.680527 157.650291 
L 420.481875 129.888489 
L 421.683896 104.478826 
L 422.08457 85.353928 
L 422.485244 85.848986 
L 422.885917 88.182342 
L 423.286591 86.633086 
L 424.889286 59.923498 
L 425.28996 39.06 
L 425.690633 52.679305 
L 426.091307 60.467331 
L 427.293328 73.876344 
L 427.694002 84.021101 
L 428.094676 76.330332 
L 428.495349 77.043716 
L 430.098044 151.974429 
L 430.498718 174.353236 
L 430.899392 162.557828 
L 431.300066 145.990184 
L 431.700739 147.770869 
L 432.902761 163.680781 
L 433.303434 185.41544 
L 433.704108 181.604971 
L 434.104782 181.768086 
L 434.505455 180.179273 
L 435.707477 191.579027 
L 436.10815 189.720058 
L 436.508824 180.564335 
L 437.310172 149.094412 
L 438.512193 155.132575 
L 438.912866 165.863104 
L 439.31354 165.536808 
L 439.714214 163.590088 
L 440.114888 131.66087 
L 441.316909 102.249222 
L 441.717583 98.597325 
L 442.118256 102.469814 
L 442.51893 98.710376 
L 442.919604 100.406506 
L 444.121625 109.876203 
L 444.522299 107.286207 
L 444.922972 111.597213 
L 445.323646 98.703255 
L 445.72432 106.984667 
L 446.926341 119.329375 
L 447.327015 126.820795 
L 447.727688 117.452798 
L 448.128362 120.001132 
L 448.529036 119.315166 
L 449.731057 124.590425 
L 450.131731 106.756289 
L 450.532405 125.565985 
L 450.933078 110.11441 
L 451.333752 100.793039 
L 452.535773 104.905964 
L 452.936447 107.970764 
L 453.337121 114.305048 
L 453.737794 81.14207 
L 454.138468 72.752482 
L 455.741163 101.324413 
L 456.943184 134.816089 
L 458.145205 120.320238 
L 458.545879 144.345677 
L 458.946553 139.318211 
L 459.347227 138.769614 
L 459.7479 157.336703 
L 460.949922 153.599081 
L 461.350595 135.068111 
L 461.751269 136.43969 
L 462.151943 172.096352 
L 462.552616 174.418564 
L 463.754638 168.063054 
L 464.155311 171.274932 
L 464.555985 151.911779 
L 464.956659 153.727844 
L 465.357333 160.901323 
L 466.559354 161.464562 
L 466.960027 138.526842 
L 467.360701 135.214793 
L 467.761375 126.429839 
L 469.36407 138.78238 
L 469.764744 156.262386 
L 470.165417 160.992974 
L 470.566091 156.341309 
L 470.966765 156.233181 
L 472.168786 128.829742 
L 472.56946 138.363723 
L 472.970133 168.037537 
L 473.370807 157.683187 
L 473.771481 166.623752 
L 474.973502 160.125656 
L 475.374176 156.876188 
L 475.77485 161.21149 
L 476.175523 173.975906 
L 476.576197 164.729709 
L 478.579566 181.539502 
L 479.380913 199.160068 
L 480.582934 207.385828 
L 480.983608 208.977797 
L 481.384282 207.009739 
L 481.784955 202.142638 
L 482.185629 182.504336 
L 483.38765 161.388127 
L 483.788324 168.644651 
L 484.188998 169.381471 
L 484.589672 180.733967 
L 484.990345 139.598999 
L 486.192366 133.986242 
L 486.993714 115.392588 
L 487.394388 99.749526 
L 487.795061 115.994161 
L 489.397756 98.017644 
L 489.79843 96.911547 
L 490.599777 126.053189 
L 492.202472 134.367015 
L 492.603146 143.221646 
L 493.00382 106.547543 
L 493.404494 143.601525 
L 494.606515 145.150979 
L 495.007189 163.288434 
L 495.407862 159.37803 
L 495.808536 163.604805 
L 496.20921 155.892281 
L 497.811905 186.120708 
L 498.212578 179.891909 
L 498.613252 150.483092 
L 499.013926 148.98361 
L 500.215947 151.465299 
L 500.616621 126.524603 
L 501.017294 128.274322 
L 501.417968 124.583277 
L 501.818642 116.267841 
L 503.020663 109.805044 
L 503.421337 105.659014 
L 504.222684 91.41405 
L 504.623358 60.079664 
L 505.825379 50.405995 
L 506.226053 52.599422 
L 506.626727 74.517954 
L 507.0274 83.063024 
L 507.428074 66.023417 
L 508.630095 66.970384 
L 509.431443 127.568322 
L 509.832116 144.207649 
L 510.23279 154.3794 
L 511.434811 175.57287 
L 511.835485 173.265333 
L 512.236159 155.63759 
L 512.636833 167.486362 
L 514.239528 179.419334 
L 514.640201 161.189666 
L 515.040875 163.261295 
L 515.441549 167.433703 
L 515.842222 175.162043 
L 517.444917 188.053972 
L 517.845591 182.93597 
L 518.246265 161.331296 
L 518.646939 182.307658 
L 519.84896 178.511127 
L 520.249633 178.420229 
L 520.650307 186.300096 
L 521.451655 195.31982 
L 522.653676 213.298842 
L 523.05435 211.012669 
L 523.455023 209.775734 
L 523.855697 202.496788 
L 524.256371 190.064748 
L 525.458392 185.956204 
L 525.859066 172.881462 
L 526.259739 197.153626 
L 526.660413 174.548428 
L 527.061087 174.366138 
L 528.263108 174.031199 
L 528.663782 184.799285 
L 529.064455 159.391026 
L 529.465129 142.071063 
L 529.865803 114.796174 
L 531.468498 104.400285 
L 531.869172 90.367555 
L 532.269845 86.860409 
L 532.670519 108.038012 
L 533.87254 95.957873 
L 534.273214 111.135057 
L 534.673888 85.989933 
L 535.475235 127.19062 
L 536.677256 140.916792 
L 537.07793 136.452401 
L 537.478604 130.376453 
L 537.879278 148.621743 
L 538.279951 152.523154 
L 539.882646 159.832294 
L 540.28332 163.491016 
L 540.683994 164.548796 
L 541.084667 146.58406 
L 542.286689 159.861183 
L 542.687362 166.569147 
L 543.088036 159.395075 
L 543.48871 155.306259 
L 543.889383 132.553303 
L 545.892752 100.901607 
L 546.293426 107.795532 
L 546.6941 95.743452 
L 547.896121 115.84792 
L 548.296794 130.724442 
L 548.697468 128.117094 
L 549.098142 138.068276 
L 549.498816 141.846075 
L 550.700837 130.39726 
L 551.101511 91.877415 
L 551.502184 85.205781 
L 551.902858 68.023979 
L 552.303532 85.809982 
L 553.505553 102.144237 
L 553.906227 130.738287 
L 554.3069 118.597715 
L 554.707574 112.64804 
L 555.108248 77.139609 
L 556.310269 67.233789 
L 556.710943 73.293032 
L 557.111617 67.768312 
L 557.51229 67.642717 
L 557.912964 73.84124 
L 559.114985 83.645687 
L 559.515659 95.536313 
L 559.916333 90.873345 
L 560.317006 90.370823 
L 560.71768 82.367284 
L 561.919701 60.729805 
L 562.320375 65.487531 
L 562.721049 78.505638 
L 563.522396 122.5599 
L 564.724417 135.2339 
L 565.525765 166.708535 
L 565.926439 145.362551 
L 566.327112 159.803748 
L 567.529133 158.284872 
L 567.929807 182.831407 
L 568.330481 182.649591 
L 568.731155 192.989419 
L 569.131828 192.880967 
L 570.734523 204.965815 
L 571.135197 180.298622 
L 571.535871 179.545933 
L 571.936544 151.490312 
L 573.138566 119.029214 
L 573.539239 153.330216 
L 573.939913 147.890096 
L 574.340587 165.990159 
L 574.741261 156.919492 
L 575.943282 149.713439 
L 576.744629 157.863842 
L 577.545977 171.318155 
L 578.747998 163.47586 
L 579.148672 178.160932 
L 579.549345 165.372212 
L 580.350693 200.655216 
L 581.552714 170.85478 
L 581.953388 156.049748 
L 582.754735 143.974926 
L 583.155409 164.106584 
L 584.35743 160.358375 
L 585.158778 148.079267 
L 585.559451 137.285475 
L 585.960125 160.810278 
L 587.162146 134.13521 
L 587.56282 137.262092 
L 588.764841 121.375427 
L 589.966862 136.988868 
L 590.367536 133.588805 
L 590.76821 147.018128 
L 591.168883 144.065184 
L 591.569557 160.421896 
L 592.771578 159.399006 
L 593.172252 172.160886 
L 593.572926 178.485995 
L 593.9736 174.482048 
L 594.374273 193.677068 
L 595.576294 205.458105 
L 595.976968 204.693484 
L 596.377642 209.169698 
L 596.778316 184.469732 
L 597.178989 173.053957 
L 598.381011 178.331871 
L 598.781684 170.224187 
L 599.182358 165.602921 
L 599.583032 155.489275 
L 599.983706 154.925338 
L 601.185727 145.35322 
L 601.987074 115.16911 
L 602.788422 123.43034 
L 603.990443 119.840255 
L 604.391117 123.6909 
L 604.79179 95.821701 
L 605.593138 169.86402 
L 606.795159 172.842275 
L 607.195833 184.499829 
L 607.596506 177.722947 
L 607.99718 156.337687 
L 608.397854 158.595556 
L 610.000549 135.865599 
L 610.801896 154.688641 
L 611.20257 159.727957 
L 612.404591 164.291983 
L 612.805265 188.833782 
L 613.205939 174.789265 
L 613.606612 179.38605 
L 614.007286 160.404637 
L 615.609981 158.335734 
L 616.010655 164.069195 
L 616.411328 161.252484 
L 616.812002 157.2993 
L 618.414697 155.17933 
L 618.815371 169.838564 
L 619.216045 173.458561 
L 619.616718 143.936752 
L 620.818739 134.70902 
L 621.219413 108.359125 
L 621.620087 92.720174 
L 622.020761 96.563461 
L 622.421434 71.740233 
L 624.024129 87.676683 
L 624.424803 77.7715 
L 624.825477 81.332469 
L 625.22615 78.583543 
L 626.428172 76.913015 
L 626.828845 88.310122 
L 627.229519 82.185801 
L 627.630193 65.325353 
L 628.030867 65.222707 
L 629.232888 78.362707 
L 629.633561 78.212337 
L 630.034235 85.957634 
L 630.434909 70.09879 
L 630.835583 116.921184 
L 632.037604 114.001983 
L 632.438278 112.17207 
L 632.838951 113.16364 
L 633.239625 129.20696 
L 633.640299 132.04985 
L 634.84232 122.467535 
L 635.643667 126.176674 
L 636.044341 145.309641 
L 636.445015 143.185136 
L 638.448383 163.336426 
L 638.849057 205.350505 
L 639.249731 190.213892 
L 640.451752 184.138295 
L 640.852426 179.790685 
L 641.2531 179.790712 
L 641.653773 172.928291 
L 642.054447 148.339766 
L 643.256468 167.975462 
L 643.657142 170.110009 
L 644.057816 179.582385 
L 644.458489 174.037827 
L 644.859163 176.505104 
L 646.862532 129.964883 
L 647.263206 94.730573 
L 647.663879 103.691515 
L 648.8659 113.817988 
L 649.266574 89.125778 
L 650.067922 112.015 
L 650.468595 108.335558 
L 651.670617 107.602148 
L 652.07129 114.418269 
L 652.471964 91.742894 
L 652.872638 75.732101 
L 653.273311 76.787497 
L 654.475333 90.899216 
L 654.876006 90.136969 
L 655.27668 126.273491 
L 655.677354 114.441682 
L 657.280049 105.124279 
L 657.680722 136.691952 
L 658.081396 137.775174 
L 658.48207 113.864626 
L 658.882744 109.949559 
L 660.084765 108.464259 
L 660.485439 106.21717 
L 660.886112 110.427711 
L 661.286786 121.919569 
L 661.68746 113.03243 
L 662.889481 112.228245 
L 663.290155 138.98304 
L 663.690828 113.273664 
L 664.091502 99.677347 
L 664.492176 120.405087 
L 665.694197 124.860556 
L 666.094871 111.664482 
L 666.495545 127.138244 
L 666.896218 126.194918 
L 667.296892 120.896754 
L 668.498913 118.378657 
L 668.899587 122.75949 
L 669.300261 108.649957 
L 669.700934 112.194771 
L 670.101608 117.303281 
L 671.303629 97.222174 
L 671.704303 97.817744 
L 672.104977 106.503301 
L 672.50565 70.326649 
L 672.906324 58.241835 
L 674.108345 72.016337 
L 674.509019 72.228385 
L 674.909693 68.914252 
L 675.310367 86.056937 
L 675.71104 74.091099 
L 677.313735 72.615811 
L 677.714409 87.159227 
L 678.115083 86.638375 
L 678.515756 70.945687 
L 679.717778 70.723958 
L 680.118451 72.573371 
L 680.519125 109.396706 
L 680.919799 108.229028 
L 682.522494 87.918494 
L 682.923167 87.601416 
L 683.323841 93.270136 
L 683.724515 81.504172 
L 684.125189 106.419929 
L 685.727884 111.372197 
L 686.128557 110.584636 
L 686.529231 99.222389 
L 686.929905 108.932799 
L 688.131926 123.326741 
L 688.5326 121.166211 
L 688.933273 89.931855 
L 689.333947 110.56639 
L 689.734621 94.274026 
L 690.936642 108.898783 
L 691.737989 108.54321 
L 692.138663 121.052185 
L 692.539337 117.365487 
L 693.741358 123.581988 
L 694.142032 117.284659 
L 694.542706 103.735431 
L 694.943379 110.806291 
L 695.344053 104.015274 
L 696.546074 97.952519 
L 696.946748 111.034409 
L 697.347422 99.476424 
L 697.748095 123.364665 
L 698.148769 134.057609 
L 699.35079 138.850442 
L 699.751464 138.030922 
L 700.152138 133.330258 
L 700.552811 140.035245 
L 700.953485 108.150869 
L 702.155506 108.831013 
L 702.55618 128.057291 
L 702.956854 161.599916 
L 703.357528 159.692652 
L 703.758201 111.930441 
L 704.960223 102.181627 
L 705.360896 117.52126 
L 705.76157 104.173331 
L 706.162244 102.410091 
L 706.562917 97.62193 
L 707.764939 93.277608 
L 708.566286 111.77155 
L 708.96696 126.556869 
L 709.367634 133.862825 
L 710.569655 122.217871 
L 710.970328 109.86808 
L 711.371002 108.197171 
L 711.771676 168.684589 
L 712.17235 176.722609 
L 713.374371 169.512937 
L 713.775045 148.657453 
L 714.175718 152.245392 
L 714.576392 134.333775 
L 714.977066 145.811624 
L 716.579761 134.773722 
L 716.980434 130.492163 
L 717.381108 109.564249 
L 717.781782 102.268072 
L 718.983803 89.497496 
L 719.384477 98.967838 
L 719.78515 91.736741 
L 720.185824 67.503649 
L 720.586498 100.531735 
L 721.788519 102.167528 
L 722.189193 120.599517 
L 722.589867 131.454577 
L 722.99054 163.611776 
L 723.391214 164.662753 
L 724.593235 153.036914 
L 725.394583 172.219037 
L 725.795256 173.962469 
L 726.19593 193.436445 
L 727.397951 176.639111 
L 727.798625 205.406531 
L 728.199299 192.5343 
L 728.599973 186.688642 
L 729.000646 175.349092 
L 730.202667 168.172773 
L 730.603341 155.423384 
L 731.004015 120.963231 
L 731.404689 117.901711 
L 731.805362 138.883093 
L 733.007384 100.075176 
L 733.408057 106.575953 
L 733.808731 123.464066 
L 734.209405 126.880524 
L 734.610078 150.011071 
L 735.8121 123.702674 
L 736.212773 124.930413 
L 736.613447 149.603293 
L 737.014121 164.231356 
L 737.414795 133.896987 
L 738.616816 123.481251 
L 739.017489 128.707191 
L 739.818837 109.628502 
L 740.219511 114.802309 
L 741.421532 108.406764 
L 741.822206 89.752619 
L 742.222879 92.746128 
L 742.623553 85.605856 
L 743.024227 82.913395 
L 744.226248 90.446417 
L 744.626922 51.022915 
L 745.027595 55.37569 
L 745.428269 69.089971 
L 745.828943 74.497451 
L 747.030964 73.225042 
L 747.431638 98.816032 
L 747.832312 93.262086 
L 748.633659 94.777921 
L 749.83568 95.24474 
L 750.236354 110.236431 
L 750.637028 110.723096 
L 751.037701 102.69624 
L 751.438375 111.618093 
L 752.640396 119.707231 
L 753.04107 125.901213 
L 753.441744 124.37253 
L 753.842417 110.239035 
L 754.243091 118.953125 
L 755.445112 133.722164 
L 755.845786 110.88281 
L 756.647134 128.244249 
L 757.047807 119.891909 
L 758.249828 98.793531 
L 758.650502 96.093795 
L 759.051176 104.768864 
L 759.45185 102.147964 
L 759.852523 91.491389 
L 761.455218 98.369319 
L 761.855892 81.105313 
L 762.256566 89.517029 
L 762.657239 104.031083 
L 764.259934 107.68644 
L 764.660608 126.249547 
L 765.061282 155.402209 
L 765.461956 144.544086 
L 766.663977 136.910145 
L 767.064651 147.854272 
L 767.865998 116.24754 
L 768.266672 127.99959 
L 769.869367 133.705223 
L 770.27004 140.75355 
L 771.071388 123.90935 
L 772.273409 119.709308 
L 773.074756 92.875482 
L 773.47543 61.621059 
L 773.876104 60.24144 
L 775.078125 63.802386 
L 775.478799 89.310242 
L 775.879473 124.593938 
L 776.280146 113.088821 
L 776.68082 78.294507 
L 777.882841 78.479708 
L 778.283515 77.127995 
L 778.684189 77.804761 
L 779.084862 84.355046 
L 779.485536 74.097184 
L 780.687557 85.082978 
L 781.088231 100.556431 
L 781.488905 97.809069 
L 782.290252 109.748835 
L 783.892947 110.304109 
L 784.293621 93.712782 
L 784.694295 90.238944 
L 785.094968 119.963625 
L 786.296989 114.381516 
L 786.697663 114.52238 
L 787.098337 121.268219 
L 787.499011 106.046288 
L 787.899684 116.331175 
L 789.101706 108.80444 
L 789.502379 107.492054 
L 789.903053 120.015961 
L 790.303727 101.010078 
L 790.704401 107.425504 
L 791.906422 112.24138 
L 792.307095 106.153067 
L 792.707769 123.226024 
L 793.108443 116.199436 
L 793.509117 133.484338 
L 794.711138 128.700068 
L 795.111812 122.107577 
L 795.913159 132.618752 
L 796.313833 127.045331 
L 797.515854 107.0437 
L 797.916528 111.329629 
L 798.317201 118.163668 
L 798.717875 107.720727 
L 800.32057 82.223669 
L 800.721244 97.501656 
L 801.121917 95.069165 
L 801.522591 124.465854 
L 801.923265 67.950094 
L 803.125286 67.792817 
L 803.52596 70.377591 
L 803.926634 76.779825 
L 804.327307 67.301268 
L 804.727981 93.4913 
L 805.930002 112.934113 
L 806.330676 106.1629 
L 806.73135 124.944882 
L 807.132023 137.86641 
L 807.532697 158.243943 
L 808.734718 145.386448 
L 809.135392 142.952751 
L 809.536066 144.733707 
L 809.93674 176.849482 
L 810.337413 150.460465 
L 811.539434 147.293709 
L 811.940108 162.361555 
L 812.340782 159.308957 
L 812.741456 135.881827 
L 813.142129 125.658329 
L 814.344151 119.124326 
L 814.744824 113.151147 
L 815.145498 109.1393 
L 815.546172 90.022547 
L 815.946845 102.738945 
L 817.148867 111.288788 
L 817.54954 98.80464 
L 817.950214 90.771527 
L 818.350888 117.195398 
L 818.751562 118.087182 
L 819.953583 93.591244 
L 820.354256 110.346048 
L 821.155604 168.184156 
L 821.556278 196.082954 
L 823.559646 178.00332 
L 823.96032 204.292999 
L 824.360994 206.419677 
L 825.563015 184.519287 
L 825.963689 180.021728 
L 826.364362 160.09684 
L 826.765036 124.785734 
L 827.16571 134.574174 
L 828.367731 114.032266 
L 828.768405 110.906075 
L 829.169078 112.873444 
L 829.569752 118.557809 
L 829.970426 117.831755 
L 831.172447 122.37918 
L 831.573121 128.415415 
L 832.374468 99.566423 
L 832.775142 71.505639 
L 833.977163 99.754157 
L 834.377837 100.501046 
L 834.778511 86.098045 
L 835.179184 84.958807 
L 835.579858 103.033034 
L 836.781879 100.234765 
L 837.182553 94.661915 
L 837.583227 102.373354 
L 838.384574 86.32376 
L 839.987269 89.061304 
L 840.387943 83.271934 
L 840.788617 107.389418 
L 841.18929 116.30619 
L 842.391312 110.148899 
L 842.791985 111.33837 
L 843.192659 151.322967 
L 843.593333 179.55957 
L 843.994006 170.719439 
L 845.196028 194.925202 
L 845.596701 188.176638 
L 845.997375 194.137645 
L 846.398049 210.244833 
L 846.798723 193.242972 
L 848.000744 189.697741 
L 848.401417 194.573974 
L 848.802091 159.675369 
L 849.202765 165.33201 
L 849.603439 188.469903 
L 850.80546 196.348717 
L 851.606807 180.686665 
L 852.007481 170.417441 
L 852.408155 166.270811 
L 853.610176 178.225252 
L 854.01085 158.284791 
L 854.411523 156.647702 
L 854.812197 143.403742 
L 855.212871 146.224278 
L 856.414892 140.280123 
L 856.815566 152.652633 
L 857.21624 142.647675 
L 858.017587 60.966633 
L 859.219608 73.333635 
L 859.620282 89.830269 
L 860.020956 111.260146 
L 860.421629 110.645971 
L 860.822303 92.485509 
L 862.424998 111.079876 
L 863.226345 131.267417 
L 863.627019 149.28474 
L 864.82904 140.17638 
L 865.630388 121.903053 
L 866.031062 105.801808 
L 866.431735 109.068118 
L 867.633756 109.24578 
L 868.03443 98.21506 
L 868.435104 91.935113 
L 868.835778 88.56056 
L 869.236451 96.412826 
L 870.438473 84.027119 
L 870.839146 71.664882 
L 871.23982 85.49655 
L 871.640494 58.444034 
L 872.041168 84.05446 
L 873.243189 103.885232 
L 873.643862 129.359274 
L 874.044536 144.325951 
L 874.44521 154.23173 
L 874.845884 125.370267 
L 876.047905 155.241923 
L 876.448579 145.663097 
L 876.849252 149.765027 
L 877.249926 150.843083 
L 877.6506 151.322959 
L 878.852621 155.511334 
L 879.253295 150.545206 
L 879.653968 148.70847 
L 880.455316 121.09642 
L 881.657337 114.969574 
L 882.058011 110.779768 
L 882.859358 132.91355 
L 883.260032 94.49086 
L 884.462053 99.716055 
L 884.862727 99.757111 
L 885.263401 98.066788 
L 885.664074 143.642132 
L 886.064748 98.14237 
L 887.266769 107.164088 
L 888.068117 84.397966 
L 888.46879 82.334895 
L 888.869464 88.595193 
L 890.071485 93.655299 
L 890.472159 74.373485 
L 890.872833 70.516377 
L 891.273506 80.772864 
L 891.67418 105.583171 
L 892.876201 111.354777 
L 893.276875 109.791246 
L 893.677549 98.470296 
L 894.078223 131.272233 
L 894.478896 129.119158 
L 895.680918 127.716229 
L 896.081591 130.463006 
L 896.482265 142.977711 
L 897.283612 133.043095 
L 898.485634 123.122621 
L 898.886307 121.698748 
L 899.286981 122.708732 
L 899.687655 110.731502 
L 900.088329 71.119213 
L 901.29035 71.234726 
L 901.691023 78.972722 
L 902.492371 52.946632 
L 902.893045 54.041084 
L 904.095066 53.143658 
L 904.49574 67.075895 
L 904.896413 98.085403 
L 905.297087 97.09309 
L 905.697761 99.020043 
L 907.300456 104.931401 
L 908.101803 115.83476 
L 908.502477 141.289854 
L 909.704498 144.957176 
L 910.105172 146.933584 
L 910.906519 161.148994 
L 911.307193 145.183537 
L 912.509214 131.945158 
L 912.909888 160.150401 
L 913.310562 156.481442 
L 914.111909 137.457586 
L 915.31393 149.095709 
L 915.714604 157.907601 
L 916.115278 137.548087 
L 916.515951 158.851201 
L 916.916625 135.547086 
L 918.51932 112.892309 
L 918.919994 95.701036 
L 919.320668 87.941308 
L 919.721341 91.560514 
L 920.923362 98.197359 
L 921.324036 99.693944 
L 921.72471 79.683964 
L 922.125384 91.355765 
L 922.526057 70.68419 
L 923.728079 69.561824 
L 924.128752 60.145982 
L 924.529426 94.543775 
L 924.9301 78.732888 
L 925.330773 123.830417 
L 926.532795 125.777197 
L 927.334142 150.044724 
L 927.734816 144.309091 
L 928.13549 149.890112 
L 929.738184 162.778098 
L 930.138858 160.669609 
L 930.539532 163.279499 
L 930.940206 183.97135 
L 932.142227 188.454963 
L 932.542901 205.417757 
L 932.943574 192.564024 
L 933.344248 209.852987 
L 933.744922 182.799924 
L 934.946943 209.804767 
L 935.347617 210.530859 
L 935.74829 186.9311 
L 936.148964 201.119215 
L 936.549638 200.897596 
L 937.751659 203.255256 
L 938.152333 196.171043 
L 938.553007 184.730787 
L 938.95368 183.157811 
L 939.354354 165.271197 
L 940.556375 168.886349 
L 940.957049 177.30582 
L 941.357723 161.447597 
L 941.758396 172.872597 
L 942.15907 155.836365 
L 943.361091 133.598781 
L 943.761765 138.834847 
L 944.162439 131.200735 
L 944.563112 126.624033 
L 944.963786 136.833688 
L 946.165807 147.853178 
L 946.566481 148.94898 
L 946.967155 126.953145 
L 947.367829 170.418809 
L 947.768502 176.615662 
L 948.970523 163.115491 
L 949.371197 174.722045 
L 949.771871 137.38943 
L 950.172545 150.245399 
L 950.573218 155.121336 
L 951.77524 161.470514 
L 952.175913 159.542968 
L 952.576587 164.674922 
L 952.977261 158.280134 
L 954.579956 161.012692 
L 955.381303 150.127657 
L 955.781977 121.683747 
L 956.182651 107.346477 
L 957.384672 114.405486 
L 957.785346 106.840957 
L 958.186019 145.610831 
L 958.586693 113.103659 
L 958.987367 120.636121 
L 960.189388 122.81823 
L 960.590062 119.848934 
L 960.990735 98.136155 
L 961.391409 87.573508 
L 961.792083 67.525377 
L 962.994104 58.836832 
L 963.394778 62.609838 
L 963.795451 72.911981 
L 964.196125 93.999852 
L 964.596799 89.168048 
L 965.79882 87.292813 
L 966.199494 84.291062 
L 966.600168 103.90832 
L 967.401515 94.43361 
L 969.00421 82.150446 
L 969.404884 92.067116 
L 970.206231 100.388366 
L 971.808926 156.30739 
L 972.2096 144.936691 
L 972.610273 118.696696 
L 973.010947 100.016484 
L 974.212968 92.532725 
L 974.613642 80.064806 
L 975.014316 87.898128 
L 975.41499 92.54227 
L 975.815663 87.229546 
L 977.017684 89.852151 
L 977.418358 89.736338 
L 977.819032 104.908732 
L 978.620379 114.834572 
L 979.822401 125.431792 
L 980.223074 108.258783 
L 980.623748 115.733484 
L 981.024422 104.065767 
L 981.425096 102.882311 
L 982.627117 125.132565 
L 983.02779 123.915372 
L 983.428464 110.275988 
L 983.829138 101.969948 
L 985.431833 97.399142 
L 985.832507 122.345036 
L 986.23318 109.832291 
L 986.633854 102.398912 
L 987.034528 85.131042 
L 988.236549 78.512064 
L 988.637223 85.181213 
L 989.839244 120.31161 
L 991.041265 89.047935 
L 991.441939 102.580693 
L 991.842612 97.17545 
L 992.243286 95.889815 
L 992.64396 100.250802 
L 993.845981 72.434149 
L 994.246655 92.365513 
L 994.647329 95.73182 
L 995.048002 92.260733 
L 995.448676 160.320034 
L 996.650697 167.986385 
L 997.051371 155.75662 
L 997.452045 135.65705 
L 997.852718 138.859987 
L 998.253392 147.507748 
L 999.455413 146.624213 
L 999.856087 148.341521 
L 1000.256761 150.657905 
L 1000.657435 133.31416 
L 1001.058108 136.186389 
L 1002.260129 131.252216 
L 1002.660803 136.986517 
L 1003.061477 154.212099 
L 1003.462151 109.629116 
L 1003.862824 83.274656 
L 1005.064846 90.581282 
L 1005.465519 108.759991 
L 1005.866193 109.973801 
L 1006.266867 101.158009 
L 1006.66754 106.356393 
L 1008.270235 120.498741 
L 1008.670909 127.652598 
L 1008.670909 127.652598 
" clip-path="url(#p342d068f27)" style="fill: none; stroke: #1f77b4; stroke-width: 1.5; stroke-linecap: square"/>
   </g>
   <g id="patch_3">
    <path d="M 145.8 224.28 
L 145.8 30.24 
" style="fill: none; stroke: #000000; stroke-width: 0.8; stroke-linejoin: miter; stroke-linecap: square"/>
   </g>
   <g id="patch_4">
    <path d="M 145.8 224.28 
L 1049.76 224.28 
" style="fill: none; stroke: #000000; stroke-width: 0.8; stroke-linejoin: miter; stroke-linecap: square"/>
   </g>
  </g>
 </g>
 <defs>
  <clipPath id="p342d068f27">
   <rect x="145.8" y="30.24" width="903.96" height="194.04"/>
  </clipPath>
 </defs>
</svg>
