<?xml version="1.0" encoding="utf-8" standalone="no"?>
<!DOCTYPE svg PUBLIC "-//W3C//DTD SVG 1.1//EN"
  "http://www.w3.org/Graphics/SVG/1.1/DTD/svg11.dtd">
<svg xmlns:xlink="http://www.w3.org/1999/xlink" width="756pt" height="252pt" viewBox="0 0 756 252" xmlns="http://www.w3.org/2000/svg" version="1.1">
 <metadata>
  <rdf:RDF xmlns:dc="http://purl.org/dc/elements/1.1/" xmlns:cc="http://creativecommons.org/ns#" xmlns:rdf="http://www.w3.org/1999/02/22-rdf-syntax-ns#">
   <cc:Work>
    <dc:type rdf:resource="http://purl.org/dc/dcmitype/StillImage"/>
    <dc:date>2025-09-08T17:06:58.829381</dc:date>
    <dc:format>image/svg+xml</dc:format>
    <dc:creator>
     <cc:Agent>
      <dc:title>Matplotlib v3.10.5, https://matplotlib.org/</dc:title>
     </cc:Agent>
    </dc:creator>
   </cc:Work>
  </rdf:RDF>
 </metadata>
 <defs>
  <style type="text/css">*{stroke-linejoin: round; stroke-linecap: butt}</style>
 </defs>
 <g id="figure_1">
  <g id="patch_1">
   <path d="M 0 252 
L 756 252 
L 756 0 
L 0 0 
z
" style="fill: #ffffff"/>
  </g>
  <g id="axes_1">
   <g id="patch_2">
    <path d="M 94.5 224.28 
L 680.4 224.28 
L 680.4 30.24 
L 94.5 30.24 
z
" style="fill: #ffffff"/>
   </g>
   <g id="matplotlib.axis_1">
    <g id="xtick_1">
     <g id="line2d_1">
      <defs>
       <path id="m3200d43f53" d="M 0 0 
L 0 3.5 
" style="stroke: #000000; stroke-width: 0.8"/>
      </defs>
      <g>
       <use xlink:href="#m3200d43f53" x="115.683516" y="224.28" style="stroke: #000000; stroke-width: 0.8"/>
      </g>
     </g>
     <g id="text_1">
      <!-- 2020 -->
      <g transform="translate(102.958516 238.878438) scale(0.1 -0.1)">
       <defs>
        <path id="DejaVuSans-32" d="M 1228 531 
L 3431 531 
L 3431 0 
L 469 0 
L 469 531 
Q 828 903 1448 1529 
Q 2069 2156 2228 2338 
Q 2531 2678 2651 2914 
Q 2772 3150 2772 3378 
Q 2772 3750 2511 3984 
Q 2250 4219 1831 4219 
Q 1534 4219 1204 4116 
Q 875 4013 500 3803 
L 500 4441 
Q 881 4594 1212 4672 
Q 1544 4750 1819 4750 
Q 2544 4750 2975 4387 
Q 3406 4025 3406 3419 
Q 3406 3131 3298 2873 
Q 3191 2616 2906 2266 
Q 2828 2175 2409 1742 
Q 1991 1309 1228 531 
z
" transform="scale(0.015625)"/>
        <path id="DejaVuSans-30" d="M 2034 4250 
Q 1547 4250 1301 3770 
Q 1056 3291 1056 2328 
Q 1056 1369 1301 889 
Q 1547 409 2034 409 
Q 2525 409 2770 889 
Q 3016 1369 3016 2328 
Q 3016 3291 2770 3770 
Q 2525 4250 2034 4250 
z
M 2034 4750 
Q 2819 4750 3233 4129 
Q 3647 3509 3647 2328 
Q 3647 1150 3233 529 
Q 2819 -91 2034 -91 
Q 1250 -91 836 529 
Q 422 1150 422 2328 
Q 422 3509 836 4129 
Q 1250 4750 2034 4750 
z
" transform="scale(0.015625)"/>
       </defs>
       <use xlink:href="#DejaVuSans-32"/>
       <use xlink:href="#DejaVuSans-30" transform="translate(63.623047 0)"/>
       <use xlink:href="#DejaVuSans-32" transform="translate(127.246094 0)"/>
       <use xlink:href="#DejaVuSans-30" transform="translate(190.869141 0)"/>
      </g>
     </g>
    </g>
    <g id="xtick_2">
     <g id="line2d_2">
      <g>
       <use xlink:href="#m3200d43f53" x="210.639634" y="224.28" style="stroke: #000000; stroke-width: 0.8"/>
      </g>
     </g>
     <g id="text_2">
      <!-- 2021 -->
      <g transform="translate(197.914634 238.878438) scale(0.1 -0.1)">
       <defs>
        <path id="DejaVuSans-31" d="M 794 531 
L 1825 531 
L 1825 4091 
L 703 3866 
L 703 4441 
L 1819 4666 
L 2450 4666 
L 2450 531 
L 3481 531 
L 3481 0 
L 794 0 
L 794 531 
z
" transform="scale(0.015625)"/>
       </defs>
       <use xlink:href="#DejaVuSans-32"/>
       <use xlink:href="#DejaVuSans-30" transform="translate(63.623047 0)"/>
       <use xlink:href="#DejaVuSans-32" transform="translate(127.246094 0)"/>
       <use xlink:href="#DejaVuSans-31" transform="translate(190.869141 0)"/>
      </g>
     </g>
    </g>
    <g id="xtick_3">
     <g id="line2d_3">
      <g>
       <use xlink:href="#m3200d43f53" x="305.336308" y="224.28" style="stroke: #000000; stroke-width: 0.8"/>
      </g>
     </g>
     <g id="text_3">
      <!-- 2022 -->
      <g transform="translate(292.611308 238.878438) scale(0.1 -0.1)">
       <use xlink:href="#DejaVuSans-32"/>
       <use xlink:href="#DejaVuSans-30" transform="translate(63.623047 0)"/>
       <use xlink:href="#DejaVuSans-32" transform="translate(127.246094 0)"/>
       <use xlink:href="#DejaVuSans-32" transform="translate(190.869141 0)"/>
      </g>
     </g>
    </g>
    <g id="xtick_4">
     <g id="line2d_4">
      <g>
       <use xlink:href="#m3200d43f53" x="400.032983" y="224.28" style="stroke: #000000; stroke-width: 0.8"/>
      </g>
     </g>
     <g id="text_4">
      <!-- 2023 -->
      <g transform="translate(387.307983 238.878438) scale(0.1 -0.1)">
       <defs>
        <path id="DejaVuSans-33" d="M 2597 2516 
Q 3050 2419 3304 2112 
Q 3559 1806 3559 1356 
Q 3559 666 3084 287 
Q 2609 -91 1734 -91 
Q 1441 -91 1130 -33 
Q 819 25 488 141 
L 488 750 
Q 750 597 1062 519 
Q 1375 441 1716 441 
Q 2309 441 2620 675 
Q 2931 909 2931 1356 
Q 2931 1769 2642 2001 
Q 2353 2234 1838 2234 
L 1294 2234 
L 1294 2753 
L 1863 2753 
Q 2328 2753 2575 2939 
Q 2822 3125 2822 3475 
Q 2822 3834 2567 4026 
Q 2313 4219 1838 4219 
Q 1578 4219 1281 4162 
Q 984 4106 628 3988 
L 628 4550 
Q 988 4650 1302 4700 
Q 1616 4750 1894 4750 
Q 2613 4750 3031 4423 
Q 3450 4097 3450 3541 
Q 3450 3153 3228 2886 
Q 3006 2619 2597 2516 
z
" transform="scale(0.015625)"/>
       </defs>
       <use xlink:href="#DejaVuSans-32"/>
       <use xlink:href="#DejaVuSans-30" transform="translate(63.623047 0)"/>
       <use xlink:href="#DejaVuSans-32" transform="translate(127.246094 0)"/>
       <use xlink:href="#DejaVuSans-33" transform="translate(190.869141 0)"/>
      </g>
     </g>
    </g>
    <g id="xtick_5">
     <g id="line2d_5">
      <g>
       <use xlink:href="#m3200d43f53" x="494.729657" y="224.28" style="stroke: #000000; stroke-width: 0.8"/>
      </g>
     </g>
     <g id="text_5">
      <!-- 2024 -->
      <g transform="translate(482.004657 238.878438) scale(0.1 -0.1)">
       <defs>
        <path id="DejaVuSans-34" d="M 2419 4116 
L 825 1625 
L 2419 1625 
L 2419 4116 
z
M 2253 4666 
L 3047 4666 
L 3047 1625 
L 3713 1625 
L 3713 1100 
L 3047 1100 
L 3047 0 
L 2419 0 
L 2419 1100 
L 313 1100 
L 313 1709 
L 2253 4666 
z
" transform="scale(0.015625)"/>
       </defs>
       <use xlink:href="#DejaVuSans-32"/>
       <use xlink:href="#DejaVuSans-30" transform="translate(63.623047 0)"/>
       <use xlink:href="#DejaVuSans-32" transform="translate(127.246094 0)"/>
       <use xlink:href="#DejaVuSans-34" transform="translate(190.869141 0)"/>
      </g>
     </g>
    </g>
    <g id="xtick_6">
     <g id="line2d_6">
      <g>
       <use xlink:href="#m3200d43f53" x="589.685775" y="224.28" style="stroke: #000000; stroke-width: 0.8"/>
      </g>
     </g>
     <g id="text_6">
      <!-- 2025 -->
      <g transform="translate(576.960775 238.878438) scale(0.1 -0.1)">
       <defs>
        <path id="DejaVuSans-35" d="M 691 4666 
L 3169 4666 
L 3169 4134 
L 1269 4134 
L 1269 2991 
Q 1406 3038 1543 3061 
Q 1681 3084 1819 3084 
Q 2600 3084 3056 2656 
Q 3513 2228 3513 1497 
Q 3513 744 3044 326 
Q 2575 -91 1722 -91 
Q 1428 -91 1123 -41 
Q 819 9 494 109 
L 494 744 
Q 775 591 1075 516 
Q 1375 441 1709 441 
Q 2250 441 2565 725 
Q 2881 1009 2881 1497 
Q 2881 1984 2565 2268 
Q 2250 2553 1709 2553 
Q 1456 2553 1204 2497 
Q 953 2441 691 2322 
L 691 4666 
z
" transform="scale(0.015625)"/>
       </defs>
       <use xlink:href="#DejaVuSans-32"/>
       <use xlink:href="#DejaVuSans-30" transform="translate(63.623047 0)"/>
       <use xlink:href="#DejaVuSans-32" transform="translate(127.246094 0)"/>
       <use xlink:href="#DejaVuSans-35" transform="translate(190.869141 0)"/>
      </g>
     </g>
    </g>
   </g>
   <g id="matplotlib.axis_2">
    <g id="ytick_1">
     <g id="line2d_7">
      <defs>
       <path id="m2425f57fbf" d="M 0 0 
L -3.5 0 
" style="stroke: #000000; stroke-width: 0.8"/>
      </defs>
      <g>
       <use xlink:href="#m2425f57fbf" x="94.5" y="217.463544" style="stroke: #000000; stroke-width: 0.8"/>
      </g>
     </g>
     <g id="text_7">
      <!-- 80 -->
      <g transform="translate(74.775 221.262763) scale(0.1 -0.1)">
       <defs>
        <path id="DejaVuSans-38" d="M 2034 2216 
Q 1584 2216 1326 1975 
Q 1069 1734 1069 1313 
Q 1069 891 1326 650 
Q 1584 409 2034 409 
Q 2484 409 2743 651 
Q 3003 894 3003 1313 
Q 3003 1734 2745 1975 
Q 2488 2216 2034 2216 
z
M 1403 2484 
Q 997 2584 770 2862 
Q 544 3141 544 3541 
Q 544 4100 942 4425 
Q 1341 4750 2034 4750 
Q 2731 4750 3128 4425 
Q 3525 4100 3525 3541 
Q 3525 3141 3298 2862 
Q 3072 2584 2669 2484 
Q 3125 2378 3379 2068 
Q 3634 1759 3634 1313 
Q 3634 634 3220 271 
Q 2806 -91 2034 -91 
Q 1263 -91 848 271 
Q 434 634 434 1313 
Q 434 1759 690 2068 
Q 947 2378 1403 2484 
z
M 1172 3481 
Q 1172 3119 1398 2916 
Q 1625 2713 2034 2713 
Q 2441 2713 2670 2916 
Q 2900 3119 2900 3481 
Q 2900 3844 2670 4047 
Q 2441 4250 2034 4250 
Q 1625 4250 1398 4047 
Q 1172 3844 1172 3481 
z
" transform="scale(0.015625)"/>
       </defs>
       <use xlink:href="#DejaVuSans-38"/>
       <use xlink:href="#DejaVuSans-30" transform="translate(63.623047 0)"/>
      </g>
     </g>
    </g>
    <g id="ytick_2">
     <g id="line2d_8">
      <g>
       <use xlink:href="#m2425f57fbf" x="94.5" y="195.44657" style="stroke: #000000; stroke-width: 0.8"/>
      </g>
     </g>
     <g id="text_8">
      <!-- 100 -->
      <g transform="translate(68.4125 199.245788) scale(0.1 -0.1)">
       <use xlink:href="#DejaVuSans-31"/>
       <use xlink:href="#DejaVuSans-30" transform="translate(63.623047 0)"/>
       <use xlink:href="#DejaVuSans-30" transform="translate(127.246094 0)"/>
      </g>
     </g>
    </g>
    <g id="ytick_3">
     <g id="line2d_9">
      <g>
       <use xlink:href="#m2425f57fbf" x="94.5" y="173.429595" style="stroke: #000000; stroke-width: 0.8"/>
      </g>
     </g>
     <g id="text_9">
      <!-- 120 -->
      <g transform="translate(68.4125 177.228813) scale(0.1 -0.1)">
       <use xlink:href="#DejaVuSans-31"/>
       <use xlink:href="#DejaVuSans-32" transform="translate(63.623047 0)"/>
       <use xlink:href="#DejaVuSans-30" transform="translate(127.246094 0)"/>
      </g>
     </g>
    </g>
    <g id="ytick_4">
     <g id="line2d_10">
      <g>
       <use xlink:href="#m2425f57fbf" x="94.5" y="151.41262" style="stroke: #000000; stroke-width: 0.8"/>
      </g>
     </g>
     <g id="text_10">
      <!-- 140 -->
      <g transform="translate(68.4125 155.211839) scale(0.1 -0.1)">
       <use xlink:href="#DejaVuSans-31"/>
       <use xlink:href="#DejaVuSans-34" transform="translate(63.623047 0)"/>
       <use xlink:href="#DejaVuSans-30" transform="translate(127.246094 0)"/>
      </g>
     </g>
    </g>
    <g id="ytick_5">
     <g id="line2d_11">
      <g>
       <use xlink:href="#m2425f57fbf" x="94.5" y="129.395645" style="stroke: #000000; stroke-width: 0.8"/>
      </g>
     </g>
     <g id="text_11">
      <!-- 160 -->
      <g transform="translate(68.4125 133.194864) scale(0.1 -0.1)">
       <defs>
        <path id="DejaVuSans-36" d="M 2113 2584 
Q 1688 2584 1439 2293 
Q 1191 2003 1191 1497 
Q 1191 994 1439 701 
Q 1688 409 2113 409 
Q 2538 409 2786 701 
Q 3034 994 3034 1497 
Q 3034 2003 2786 2293 
Q 2538 2584 2113 2584 
z
M 3366 4563 
L 3366 3988 
Q 3128 4100 2886 4159 
Q 2644 4219 2406 4219 
Q 1781 4219 1451 3797 
Q 1122 3375 1075 2522 
Q 1259 2794 1537 2939 
Q 1816 3084 2150 3084 
Q 2853 3084 3261 2657 
Q 3669 2231 3669 1497 
Q 3669 778 3244 343 
Q 2819 -91 2113 -91 
Q 1303 -91 875 529 
Q 447 1150 447 2328 
Q 447 3434 972 4092 
Q 1497 4750 2381 4750 
Q 2619 4750 2861 4703 
Q 3103 4656 3366 4563 
z
" transform="scale(0.015625)"/>
       </defs>
       <use xlink:href="#DejaVuSans-31"/>
       <use xlink:href="#DejaVuSans-36" transform="translate(63.623047 0)"/>
       <use xlink:href="#DejaVuSans-30" transform="translate(127.246094 0)"/>
      </g>
     </g>
    </g>
    <g id="ytick_6">
     <g id="line2d_12">
      <g>
       <use xlink:href="#m2425f57fbf" x="94.5" y="107.37867" style="stroke: #000000; stroke-width: 0.8"/>
      </g>
     </g>
     <g id="text_12">
      <!-- 180 -->
      <g transform="translate(68.4125 111.177889) scale(0.1 -0.1)">
       <use xlink:href="#DejaVuSans-31"/>
       <use xlink:href="#DejaVuSans-38" transform="translate(63.623047 0)"/>
       <use xlink:href="#DejaVuSans-30" transform="translate(127.246094 0)"/>
      </g>
     </g>
    </g>
    <g id="ytick_7">
     <g id="line2d_13">
      <g>
       <use xlink:href="#m2425f57fbf" x="94.5" y="85.361695" style="stroke: #000000; stroke-width: 0.8"/>
      </g>
     </g>
     <g id="text_13">
      <!-- 200 -->
      <g transform="translate(68.4125 89.160914) scale(0.1 -0.1)">
       <use xlink:href="#DejaVuSans-32"/>
       <use xlink:href="#DejaVuSans-30" transform="translate(63.623047 0)"/>
       <use xlink:href="#DejaVuSans-30" transform="translate(127.246094 0)"/>
      </g>
     </g>
    </g>
    <g id="ytick_8">
     <g id="line2d_14">
      <g>
       <use xlink:href="#m2425f57fbf" x="94.5" y="63.344721" style="stroke: #000000; stroke-width: 0.8"/>
      </g>
     </g>
     <g id="text_14">
      <!-- 220 -->
      <g transform="translate(68.4125 67.143939) scale(0.1 -0.1)">
       <use xlink:href="#DejaVuSans-32"/>
       <use xlink:href="#DejaVuSans-32" transform="translate(63.623047 0)"/>
       <use xlink:href="#DejaVuSans-30" transform="translate(127.246094 0)"/>
      </g>
     </g>
    </g>
    <g id="ytick_9">
     <g id="line2d_15">
      <g>
       <use xlink:href="#m2425f57fbf" x="94.5" y="41.327746" style="stroke: #000000; stroke-width: 0.8"/>
      </g>
     </g>
     <g id="text_15">
      <!-- 240 -->
      <g transform="translate(68.4125 45.126964) scale(0.1 -0.1)">
       <use xlink:href="#DejaVuSans-32"/>
       <use xlink:href="#DejaVuSans-34" transform="translate(63.623047 0)"/>
       <use xlink:href="#DejaVuSans-30" transform="translate(127.246094 0)"/>
      </g>
     </g>
    </g>
   </g>
   <g id="line2d_16">
    <path d="M 121.131818 201.641044 
L 121.391261 201.799572 
L 121.650704 203.06224 
L 122.429033 204.895154 
L 122.688476 203.524049 
L 122.947919 203.262594 
L 123.207362 202.564661 
L 123.466805 194.966603 
L 124.245134 195.215392 
L 124.504576 192.712614 
L 124.764019 193.252028 
L 125.023462 192.681791 
L 125.282905 191.082809 
L 126.320677 187.146169 
L 126.58012 186.63978 
L 126.839563 187.19736 
L 127.099006 188.022996 
L 128.136778 186.878113 
L 128.396221 186.077244 
L 128.655664 187.019574 
L 128.915106 190.164147 
L 129.952878 196.947025 
L 130.212321 196.569986 
L 130.471764 201.814984 
L 130.731207 201.845253 
L 131.509536 197.981271 
L 131.768979 200.455981 
L 132.028422 196.776949 
L 132.287865 199.628144 
L 132.547308 200.890821 
L 133.325637 206.421479 
L 133.585079 201.401057 
L 133.844522 205.306873 
L 134.103965 213.246746 
L 134.363408 207.280694 
L 135.141737 212.556515 
L 135.40118 206.023526 
L 135.660623 204.803784 
L 135.920066 202.000471 
L 136.179509 203.918155 
L 136.957838 200.795041 
L 137.217281 198.743615 
L 137.476724 201.730214 
L 137.736167 197.896511 
L 137.99561 200.945312 
L 138.773938 197.430847 
L 139.033381 198.214103 
L 139.292824 200.526984 
L 139.552267 199.914367 
L 139.81171 200.588085 
L 140.590039 195.57922 
L 140.849482 194.808075 
L 141.108925 193.079743 
L 141.368368 193.092954 
L 142.40614 186.151557 
L 142.665583 179.851946 
L 142.925025 178.51111 
L 143.184468 172.978797 
L 143.443911 174.805656 
L 144.22224 173.78132 
L 144.481683 177.386047 
L 145.000569 173.459864 
L 145.260012 172.867059 
L 146.038341 174.75061 
L 146.297784 178.158838 
L 146.557227 174.931705 
L 146.81667 169.356458 
L 147.076113 179.702229 
L 147.854441 178.05371 
L 148.113884 177.954084 
L 148.373327 176.112359 
L 148.892213 174.551911 
L 149.670542 172.934216 
L 149.929985 175.799168 
L 150.189428 175.195352 
L 150.708314 172.891281 
L 151.486643 171.984176 
L 151.746086 170.714352 
L 152.005528 168.038735 
L 152.264971 170.856913 
L 152.524414 171.399628 
L 153.562186 172.226364 
L 154.081072 173.369048 
L 154.340515 171.097447 
L 155.118844 169.519378 
L 155.378287 169.443973 
L 155.63773 169.11427 
L 155.897173 170.094024 
L 156.156616 168.861071 
L 156.934944 166.601027 
L 157.45383 159.809346 
L 157.713273 164.735088 
L 157.972716 165.447341 
L 158.751045 163.924864 
L 159.269931 160.165473 
L 159.529374 159.449911 
L 159.788817 158.29237 
L 160.567146 156.156183 
L 160.826589 153.371575 
L 161.086032 155.023402 
L 161.345474 153.912643 
L 161.604917 157.309323 
L 162.383246 157.996799 
L 162.642689 153.679274 
L 162.902132 147.080783 
L 163.161575 146.442288 
L 164.199347 137.264506 
L 164.45879 140.397531 
L 164.977676 130.351732 
L 165.237119 129.395645 
L 166.27489 135.780571 
L 166.534333 139.91591 
L 166.793776 140.409642 
L 167.053219 142.497401 
L 167.831548 129.569584 
L 168.350434 134.904844 
L 168.609877 141.144454 
L 168.86932 139.913709 
L 169.647649 137.365242 
L 169.907092 140.385974 
L 170.166535 138.558561 
L 170.425978 137.548537 
L 170.68542 131.339751 
L 171.463749 134.245437 
L 171.723192 132.762593 
L 171.982635 129.118787 
L 172.242078 128.019584 
L 172.501521 131.186725 
L 173.27985 132.24904 
L 173.539293 135.963867 
L 173.798736 131.474048 
L 174.058179 131.541205 
L 174.317622 132.25675 
L 175.09595 130.363843 
L 175.355393 123.203925 
L 175.614836 126.066676 
L 175.874279 124.036163 
L 176.133722 124.732458 
L 176.912051 123.480784 
L 177.171494 121.332486 
L 177.430937 116.083633 
L 177.69038 118.387158 
L 177.949823 118.288085 
L 178.728152 115.58219 
L 179.247038 111.151835 
L 179.506481 120.148522 
L 179.765923 124.187527 
L 180.803695 132.156569 
L 181.063138 125.619188 
L 181.582024 134.007095 
L 182.360353 134.736414 
L 182.619796 131.810353 
L 183.398125 142.885997 
L 184.176454 142.579962 
L 184.435896 133.304216 
L 184.695339 140.411843 
L 184.954782 139.31484 
L 185.214225 135.167945 
L 185.992554 130.823997 
L 186.251997 132.429581 
L 186.51144 132.217679 
L 186.770883 128.225439 
L 187.030326 133.523828 
L 187.808655 129.439672 
L 188.068098 134.902089 
L 188.327541 129.632878 
L 188.586984 129.9158 
L 188.846427 124.626213 
L 189.624755 116.024186 
L 189.884198 115.985652 
L 190.143641 120.384646 
L 190.403084 121.764017 
L 190.662527 125.393512 
L 191.440856 128.998785 
L 191.700299 128.459379 
L 191.959742 130.224591 
L 192.219185 130.694638 
L 192.478628 129.153457 
L 193.256957 129.008141 
L 193.5164 124.643834 
L 193.775842 131.444316 
L 194.035285 128.789621 
L 194.294728 138.414354 
L 195.073057 140.157543 
L 195.3325 137.739526 
L 195.591943 127.1301 
L 195.851386 122.680461 
L 196.110829 123.265572 
L 196.889158 132.492336 
L 197.148601 138.476539 
L 197.408044 132.841845 
L 197.667487 134.334044 
L 197.92693 133.31411 
L 198.705258 133.190278 
L 198.964701 132.93707 
L 199.224144 134.599363 
L 199.483587 133.963069 
L 199.74303 134.932913 
L 200.521359 134.988513 
L 200.780802 133.905822 
L 201.040245 130.217435 
L 201.559131 129.652145 
L 202.33746 131.154809 
L 202.596903 128.290395 
L 203.115788 130.126056 
L 203.375231 131.455335 
L 204.15356 131.707434 
L 204.413003 130.645657 
L 204.672446 134.668703 
L 204.931889 134.817883 
L 205.969661 131.764126 
L 206.229104 131.315529 
L 206.488547 127.141102 
L 206.74799 127.409713 
L 207.007433 129.30482 
L 208.045204 129.036764 
L 208.56409 130.898847 
L 209.861305 122.680461 
L 210.380191 126.262083 
L 211.417963 130.131566 
L 211.677406 128.376802 
L 211.936849 132.787353 
L 212.455734 130.347885 
L 213.234063 134.117741 
L 213.493506 133.75335 
L 213.752949 131.273148 
L 214.271835 134.665965 
L 215.309607 133.757214 
L 215.56905 125.907048 
L 215.828493 123.506652 
L 216.087936 124.319086 
L 216.866264 124.221659 
L 217.125707 122.453139 
L 217.38515 127.602365 
L 217.644593 127.324952 
L 217.904036 129.054385 
L 218.941808 119.488006 
L 219.201251 123.201725 
L 219.720137 121.02094 
L 220.498466 122.628724 
L 221.276794 125.975851 
L 221.536237 125.118299 
L 222.574009 125.600475 
L 222.833452 123.415827 
L 223.092895 122.337554 
L 223.352338 126.649033 
L 224.130667 130.45576 
L 224.39011 129.698372 
L 224.649553 131.623211 
L 224.908996 137.257905 
L 225.168439 135.289039 
L 225.946767 132.360223 
L 226.20621 135.200969 
L 226.465653 140.12892 
L 226.725096 141.638741 
L 226.984539 140.378818 
L 227.762868 143.048918 
L 228.022311 136.944713 
L 228.281754 137.231482 
L 228.541197 134.151857 
L 228.80064 135.478382 
L 229.578969 135.908267 
L 229.838412 135.347932 
L 230.097855 132.933224 
L 230.357298 138.863488 
L 230.61674 136.27815 
L 231.395069 134.301574 
L 231.654512 132.835797 
L 232.173398 137.857865 
L 232.432841 137.540273 
L 233.21117 136.23577 
L 233.470613 137.360841 
L 233.730056 135.225746 
L 233.989499 131.542297 
L 235.027271 127.924358 
L 235.286713 128.084541 
L 235.546156 125.025829 
L 235.805599 123.929935 
L 236.065042 119.917337 
L 236.843371 119.521585 
L 237.102814 118.387158 
L 237.362257 122.075008 
L 237.6217 119.538097 
L 237.881143 118.417981 
L 238.659472 119.927802 
L 238.918915 121.981982 
L 239.178358 120.477672 
L 239.437801 123.393822 
L 239.697244 121.64126 
L 240.475572 117.891779 
L 240.735015 117.427762 
L 240.994458 115.167172 
L 241.253901 114.462075 
L 241.513344 114.676194 
L 242.291673 119.130788 
L 242.551116 123.238041 
L 242.810559 125.512959 
L 243.070002 123.540785 
L 243.329445 124.353201 
L 244.107774 129.919092 
L 244.367216 128.079585 
L 244.626659 132.040984 
L 244.886102 131.516428 
L 245.145545 128.135169 
L 245.923874 125.521207 
L 246.183317 127.618877 
L 246.44276 127.6453 
L 246.702203 126.771219 
L 246.961646 129.226107 
L 247.999418 126.14539 
L 248.258861 125.809085 
L 248.518304 127.738325 
L 248.777747 128.125812 
L 249.815518 128.369109 
L 250.074961 127.52476 
L 250.334404 130.110652 
L 250.593847 129.053276 
L 251.372176 129.505182 
L 251.631619 125.866868 
L 251.891062 124.928957 
L 252.150505 121.158546 
L 252.409948 121.313756 
L 253.188277 119.274996 
L 253.44772 119.31573 
L 253.707162 117.547764 
L 253.966605 113.475164 
L 254.226048 113.603969 
L 255.004377 115.41707 
L 255.26382 112.58348 
L 255.523263 112.672658 
L 256.042149 118.306798 
L 256.820478 115.971341 
L 257.079921 115.737417 
L 257.598807 116.57241 
L 257.85825 112.278552 
L 258.896021 103.209753 
L 259.155464 102.062677 
L 259.414907 100.145548 
L 259.67435 100.809911 
L 260.452679 100.853383 
L 260.712122 103.120591 
L 260.971565 102.882804 
L 261.490451 108.830136 
L 262.26878 110.153351 
L 262.528223 108.854358 
L 262.787666 108.193304 
L 263.047108 105.285401 
L 263.306551 104.261066 
L 264.08488 101.884337 
L 264.344323 105.926096 
L 264.603766 105.709776 
L 264.863209 107.383071 
L 265.122652 122.372779 
L 265.900981 122.15866 
L 266.160424 120.245394 
L 266.419867 120.879488 
L 266.67931 119.708727 
L 266.938753 121.417801 
L 267.717081 121.586768 
L 268.235967 124.325687 
L 268.49541 123.698749 
L 268.754853 124.223305 
L 269.533182 123.947001 
L 270.052068 129.328488 
L 270.311511 130.069918 
L 270.570954 129.3984 
L 271.349283 125.769997 
L 271.608726 123.573254 
L 271.868169 123.936537 
L 272.127611 123.010719 
L 272.387054 121.159638 
L 273.165383 117.199885 
L 273.424826 114.490698 
L 273.684269 114.038808 
L 273.943712 114.912873 
L 274.203155 114.091099 
L 275.240927 112.371578 
L 275.50037 111.479338 
L 275.759813 113.754794 
L 276.019256 114.580968 
L 276.797584 115.240376 
L 277.057027 115.635036 
L 277.31647 114.215486 
L 277.575913 113.53021 
L 277.835356 114.945897 
L 278.613685 120.823887 
L 278.873128 121.489896 
L 279.392014 117.506475 
L 279.651457 116.982474 
L 280.429786 118.067919 
L 280.689229 123.012919 
L 281.208115 124.714837 
L 281.467557 124.812818 
L 282.245886 129.958181 
L 282.764772 125.98247 
L 283.024215 123.757642 
L 284.061987 126.847178 
L 284.32143 126.790486 
L 284.580873 124.756663 
L 284.840316 123.899111 
L 285.099759 117.89067 
L 285.878087 115.814468 
L 286.13753 115.957029 
L 286.396973 117.558212 
L 286.656416 116.460118 
L 286.915859 121.934647 
L 287.694188 122.770194 
L 287.953631 119.704326 
L 288.213074 118.80053 
L 288.472517 115.823824 
L 288.73196 119.904671 
L 289.510289 122.89458 
L 289.769732 123.189614 
L 290.54806 111.837665 
L 291.326389 113.489476 
L 291.585832 108.687037 
L 291.845275 113.870933 
L 292.104718 114.396581 
L 292.364161 111.498589 
L 293.14249 110.368579 
L 293.401933 110.642683 
L 293.661376 110.185838 
L 293.920819 102.091301 
L 294.180262 103.164064 
L 294.958591 108.888491 
L 295.218033 108.477318 
L 295.477476 108.45696 
L 295.996362 112.631924 
L 296.774691 109.493944 
L 297.293577 115.980697 
L 297.55302 116.330776 
L 297.812463 118.949139 
L 298.590792 116.880646 
L 298.850235 111.60097 
L 299.109678 111.608126 
L 299.628564 115.952074 
L 300.406892 118.863269 
L 300.666335 119.387271 
L 300.925778 114.737841 
L 301.185221 119.630013 
L 301.444664 118.367891 
L 302.222993 121.602743 
L 302.482436 117.928096 
L 302.741879 117.245575 
L 303.001322 117.210904 
L 304.039094 118.750994 
L 304.298537 117.659502 
L 304.557979 119.266731 
L 304.817422 119.879357 
L 305.076865 122.001249 
L 305.855194 117.94187 
L 306.37408 124.599253 
L 306.892966 126.584076 
L 307.671295 127.759792 
L 307.930738 123.492895 
L 308.190181 123.663525 
L 308.449624 128.05921 
L 308.709067 127.04203 
L 309.746838 130.587319 
L 310.006281 133.469891 
L 310.265724 138.568472 
L 310.525167 148.503071 
L 311.303496 146.410356 
L 311.562939 151.42804 
L 311.822382 152.65383 
L 312.081825 151.811681 
L 312.341268 147.033447 
L 313.37904 139.090273 
L 313.638482 139.729859 
L 313.897925 152.683545 
L 314.157368 131.994203 
L 314.935697 131.668346 
L 315.19514 127.839598 
L 315.454583 128.086187 
L 315.714026 130.492647 
L 315.973469 136.778484 
L 316.751798 134.716039 
L 317.270684 131.486713 
L 317.78957 137.540273 
L 318.827341 140.186721 
L 319.086784 146.098828 
L 319.346227 138.909178 
L 319.60567 136.233569 
L 320.383999 136.481804 
L 320.643442 139.146965 
L 320.902885 138.144634 
L 321.162328 142.717568 
L 321.421771 145.202725 
L 322.2001 154.216478 
L 322.459543 155.800057 
L 322.718986 152.206324 
L 322.978428 143.907578 
L 324.0162 149.372751 
L 324.794529 132.43509 
L 325.053972 128.01903 
L 325.832301 127.753728 
L 326.091744 124.013587 
L 326.351187 125.643947 
L 326.61063 125.378091 
L 326.870073 124.140745 
L 327.648401 119.498471 
L 327.907844 119.141236 
L 328.42673 126.095854 
L 328.686173 125.476626 
L 329.464502 120.207415 
L 329.983388 130.765105 
L 330.242831 131.834575 
L 330.502274 135.493802 
L 331.280603 139.168987 
L 331.540046 139.537207 
L 331.799489 134.304329 
L 332.058931 138.525537 
L 333.096703 137.338265 
L 333.356146 131.470201 
L 334.134475 146.623921 
L 334.912804 144.726059 
L 335.172247 152.08303 
L 335.43169 153.430467 
L 335.691133 146.352572 
L 335.950576 168.716309 
L 336.728904 168.475775 
L 336.988347 168.747133 
L 337.24779 166.903216 
L 337.507233 177.384947 
L 337.766676 179.184283 
L 338.545005 185.771208 
L 338.804448 185.694149 
L 339.063891 189.532808 
L 339.323334 187.817142 
L 339.582777 181.074989 
L 340.361106 183.545843 
L 340.620549 178.528176 
L 340.879992 187.61678 
L 341.398877 187.090023 
L 342.177206 187.127456 
L 342.436649 190.933091 
L 342.696092 187.988318 
L 343.214978 178.772564 
L 344.512193 171.575768 
L 344.771636 167.362816 
L 345.031079 170.842602 
L 345.809408 168.156528 
L 346.328293 172.130593 
L 346.847179 184.823378 
L 347.884951 192.903612 
L 348.144394 187.003062 
L 348.403837 191.417459 
L 348.66328 188.599289 
L 349.701052 185.891202 
L 349.960495 185.593977 
L 350.479381 177.3266 
L 351.257709 180.893348 
L 351.517152 187.300287 
L 351.776595 185.627001 
L 352.036038 188.6103 
L 352.295481 184.922458 
L 353.592696 179.671405 
L 353.852139 177.469708 
L 354.111582 178.339379 
L 354.889911 182.511597 
L 355.149353 185.296743 
L 355.408796 183.997741 
L 355.668239 183.74455 
L 355.927682 180.530066 
L 356.706011 180.298889 
L 357.224897 170.380247 
L 357.48434 168.332668 
L 357.743783 170.765543 
L 358.522112 172.174628 
L 358.781555 179.143002 
L 359.040998 172.36177 
L 359.300441 170.919661 
L 359.559884 156.971909 
L 360.338212 156.487533 
L 360.597655 157.841572 
L 360.857098 151.941023 
L 361.116541 148.583431 
L 361.375984 150.531938 
L 362.154313 152.062117 
L 362.413756 153.80146 
L 362.673199 148.451334 
L 362.932642 150.708077 
L 363.192085 147.504603 
L 363.970414 147.911929 
L 364.229857 146.150564 
L 364.489299 149.100831 
L 364.748742 148.880664 
L 365.008185 153.361127 
L 365.786514 158.876373 
L 366.045957 158.43604 
L 366.3054 158.237879 
L 366.564843 154.40693 
L 366.824286 161.595471 
L 367.602615 162.652293 
L 367.862058 163.81919 
L 368.121501 165.976852 
L 368.380944 164.820958 
L 369.678158 166.703408 
L 369.937601 162.993553 
L 370.197044 162.619252 
L 370.456487 158.821327 
L 371.234816 155.320636 
L 371.494259 165.921807 
L 371.753702 164.017335 
L 372.272588 169.5436 
L 373.050917 168.299636 
L 373.31036 171.018733 
L 373.569803 175.036833 
L 373.829245 176.390881 
L 374.088688 180.276875 
L 374.867017 178.768709 
L 375.12646 179.583335 
L 375.385903 175.620281 
L 375.645346 179.154005 
L 375.904789 181.135536 
L 376.683118 177.965095 
L 376.942561 172.229674 
L 377.202004 172.383792 
L 377.461447 173.099337 
L 377.72089 179.418215 
L 378.499218 180.397969 
L 378.758661 182.005207 
L 379.018104 181.245619 
L 379.277547 181.652936 
L 379.53699 187.850712 
L 380.574762 177.436683 
L 380.834205 178.856779 
L 381.093648 178.658626 
L 381.353091 174.178172 
L 382.13142 173.627748 
L 382.390863 172.769087 
L 382.909748 183.381268 
L 383.169191 191.692671 
L 383.94752 192.760496 
L 384.466406 204.121255 
L 384.725849 207.225648 
L 384.985292 205.376221 
L 385.763621 205.871608 
L 386.023064 206.47707 
L 386.282507 210.704334 
L 386.54195 199.156433 
L 386.801393 194.576898 
L 387.579721 197.108853 
L 387.839164 196.613467 
L 388.617493 201.897544 
L 389.395822 203.74697 
L 389.914708 201.908555 
L 390.433594 202.701159 
L 391.211923 202.106708 
L 391.471366 203.791005 
L 391.730809 199.255505 
L 393.028023 205.343197 
L 393.287466 208.381542 
L 393.546909 208.150365 
L 393.806352 206.069762 
L 394.065795 207.456833 
L 394.844124 205.849587 
L 395.103567 203.713946 
L 395.36301 204.715714 
L 395.622453 208.161376 
L 395.881896 208.810873 
L 396.660225 212.047371 
L 396.919667 211.750137 
L 397.17911 210.010802 
L 397.438553 213.291327 
L 397.697996 211.684088 
L 398.735768 214.116963 
L 398.995211 215.46 
L 399.254654 212.861996 
L 399.514097 213.060149 
L 400.551869 211.056605 
L 400.811312 211.805183 
L 401.070755 214.028893 
L 401.330197 210.770382 
L 402.108526 209.361297 
L 402.367969 206.598164 
L 402.627412 200.851741 
L 402.886855 200.653588 
L 403.146298 197.516162 
L 404.443513 200.444424 
L 404.702956 202.403933 
L 404.962399 198.473904 
L 405.740728 198.176678 
L 406.00017 199.497693 
L 406.259613 198.550963 
L 406.519056 196.30523 
L 406.778499 192.980671 
L 407.556828 194.841099 
L 408.075714 189.777197 
L 408.335157 181.234608 
L 408.5946 191.714693 
L 409.372929 193.046719 
L 409.632372 193.123778 
L 410.151258 197.384066 
L 410.410701 198.077597 
L 411.189029 195.952959 
L 411.448472 195.776828 
L 411.707915 194.169581 
L 411.967358 197.483138 
L 412.226801 198.528949 
L 413.264573 201.413168 
L 413.524016 200.081142 
L 413.783459 200.048118 
L 414.042902 202.602086 
L 414.821231 202.315863 
L 415.080674 201.798463 
L 415.340116 204.066217 
L 415.599559 204.110252 
L 415.859002 201.060896 
L 416.896774 202.547041 
L 417.156217 202.139732 
L 417.675103 205.651434 
L 418.453432 203.779994 
L 418.712875 201.082918 
L 418.972318 199.629798 
L 419.231761 195.402535 
L 419.491204 196.602464 
L 420.269532 197.967514 
L 420.528975 194.775051 
L 420.788418 196.877676 
L 421.047861 196.866665 
L 421.307304 197.50516 
L 422.085633 197.604232 
L 422.345076 198.484914 
L 422.863962 193.244872 
L 423.123405 191.824776 
L 423.901734 192.79352 
L 424.161177 191.09822 
L 424.420619 194.235638 
L 424.680062 193.178824 
L 425.717834 193.05773 
L 426.23672 197.835409 
L 426.496163 192.804531 
L 427.533935 192.430246 
L 427.793378 192.914614 
L 428.052821 190.712917 
L 428.312264 191.252339 
L 428.571707 187.784663 
L 429.350035 188.6103 
L 429.609478 192.617389 
L 429.868921 189.964339 
L 430.128364 184.636235 
L 430.387807 189.446947 
L 431.166136 193.189826 
L 431.425579 191.450492 
L 431.685022 191.42847 
L 431.944465 191.043175 
L 432.203908 189.215762 
L 432.982237 189.028619 
L 433.24168 188.158948 
L 433.501123 184.228918 
L 433.760565 182.038232 
L 434.020008 184.151859 
L 434.798337 183.117067 
L 435.576666 175.466163 
L 435.836109 177.557777 
L 436.614438 178.922828 
L 436.873881 178.944849 
L 437.133324 177.007353 
L 437.392767 178.933838 
L 437.65221 173.308501 
L 438.689981 171.602182 
L 438.949424 172.7911 
L 439.46831 168.750988 
L 440.246639 167.595093 
L 440.506082 166.152984 
L 440.765525 172.075547 
L 441.024968 168.750988 
L 441.284411 169.653683 
L 442.06274 166.197019 
L 442.322183 166.097938 
L 442.581626 166.362148 
L 442.841069 165.602559 
L 443.100511 167.385937 
L 444.138283 167.06669 
L 444.397726 168.112493 
L 444.657169 162.255987 
L 444.916612 163.158674 
L 445.694941 165.360371 
L 445.954384 163.323811 
L 446.213827 163.477929 
L 446.47327 164.732888 
L 446.732713 162.024801 
L 447.511041 162.178919 
L 448.029927 162.002779 
L 448.28937 164.226499 
L 448.548813 162.663295 
L 449.327142 165.580546 
L 449.846028 161.540425 
L 450.105471 157.687454 
L 450.364914 157.269143 
L 451.143243 158.502088 
L 451.402686 159.305703 
L 451.662129 156.520557 
L 451.921572 162.465134 
L 452.181014 162.421107 
L 452.959343 163.742122 
L 453.218786 163.37884 
L 453.478229 164.457684 
L 453.737672 164.347593 
L 453.997115 159.988224 
L 454.775444 158.369992 
L 455.034887 160.56067 
L 455.29433 164.391619 
L 455.553773 163.621028 
L 455.813216 151.885977 
L 456.591545 148.968734 
L 457.11043 153.779438 
L 457.369873 152.997845 
L 457.629316 153.162965 
L 458.407645 150.785128 
L 458.926531 156.839796 
L 459.445417 158.876373 
L 460.223746 157.269143 
L 460.483189 157.7425 
L 460.742632 156.344418 
L 461.002075 160.39555 
L 461.261518 158.832346 
L 462.039846 158.964443 
L 462.299289 157.015936 
L 462.558732 156.839796 
L 462.818175 153.603315 
L 463.077618 153.482221 
L 464.11539 154.417932 
L 464.374833 156.520557 
L 464.634276 153.779438 
L 464.893719 153.361127 
L 465.672048 147.999982 
L 465.931491 150.058581 
L 466.190933 146.073497 
L 466.450376 146.216612 
L 466.709819 150.98329 
L 467.488148 151.434642 
L 468.007034 156.597625 
L 468.266477 163.158674 
L 468.52592 163.38986 
L 469.304249 161.023025 
L 469.563692 166.846516 
L 470.082578 166.846516 
L 470.342021 165.591549 
L 471.120349 163.015558 
L 471.379792 168.233587 
L 471.639235 165.723654 
L 471.898678 166.868537 
L 472.158121 164.66684 
L 472.93645 164.33659 
L 473.195893 162.993553 
L 473.455336 160.406552 
L 473.714779 159.856128 
L 473.974222 162.652293 
L 474.752551 159.61394 
L 475.011994 160.802858 
L 475.271436 164.479689 
L 475.530879 164.182472 
L 475.790322 167.738209 
L 476.568651 166.20803 
L 476.828094 164.006332 
L 477.087537 171.899416 
L 477.34698 173.90296 
L 477.606423 164.909028 
L 478.384752 159.4378 
L 478.644195 159.019489 
L 478.903638 154.715166 
L 479.163081 153.53725 
L 479.422524 152.953801 
L 480.200852 151.698835 
L 480.460295 148.429312 
L 480.719738 149.122852 
L 480.979181 150.752104 
L 481.238624 147.493601 
L 482.016953 148.561426 
L 482.276396 145.027694 
L 482.535839 147.889907 
L 482.795282 148.297216 
L 483.054725 145.710231 
L 483.833054 144.664412 
L 484.092497 147.119317 
L 484.35194 144.025917 
L 484.870825 143.992893 
L 485.649154 142.903064 
L 486.16804 144.455248 
L 486.427483 144.708455 
L 486.686926 143.673655 
L 487.465255 146.084516 
L 487.724698 143.838775 
L 487.984141 146.436779 
L 488.243584 143.838775 
L 488.503027 143.244324 
L 489.281355 144.928621 
L 489.800241 141.681121 
L 490.059684 143.244324 
L 490.319127 140.437157 
L 491.097456 135.92367 
L 491.356899 136.231923 
L 491.616342 138.070339 
L 491.875785 136.176877 
L 492.135228 136.639232 
L 493.691885 136.683258 
L 493.951328 138.268483 
L 494.9891 140.4812 
L 495.248543 142.08843 
L 495.507986 146.381733 
L 495.767429 145.644166 
L 496.545758 141.39489 
L 497.324087 134.701744 
L 497.58353 135.318217 
L 498.621301 136.925446 
L 498.880744 138.521674 
L 499.39963 134.525604 
L 500.177959 135.142077 
L 500.696845 132.841307 
L 500.956288 131.872555 
L 501.215731 130.364397 
L 501.99406 128.008582 
L 502.253503 130.496494 
L 502.512946 134.679722 
L 502.772389 130.188257 
L 503.031831 116.394624 
L 503.81016 118.045897 
L 504.069603 119.322886 
L 504.329046 117.803709 
L 504.588489 118.563297 
L 504.847932 113.488384 
L 505.626261 115.811176 
L 505.885704 119.884313 
L 506.145147 117.308331 
L 506.40459 118.607324 
L 506.664033 118.92658 
L 507.701804 121.601634 
L 507.961247 119.939358 
L 508.22069 113.345268 
L 508.480133 112.893916 
L 509.258462 113.180148 
L 509.517905 114.49016 
L 509.777348 114.908472 
L 510.036791 110.945426 
L 510.296234 109.33818 
L 511.074563 110.042722 
L 511.334006 113.851666 
L 511.593449 114.523185 
L 511.852892 110.879361 
L 512.112334 112.49761 
L 512.890663 116.229487 
L 513.150106 112.453584 
L 513.409549 111.165593 
L 513.668992 108.754731 
L 513.928435 113.521408 
L 514.706764 113.45536 
L 514.966207 111.892157 
L 515.22565 109.415247 
L 515.485093 109.415247 
L 515.744536 108.622635 
L 516.522865 107.697909 
L 516.782307 109.25011 
L 517.04175 107.565812 
L 517.301193 106.960342 
L 518.338965 106.310846 
L 518.598408 106.619082 
L 518.857851 104.725621 
L 519.117294 107.37867 
L 519.376737 101.797359 
L 520.155066 101.665263 
L 520.673952 100.828624 
L 520.933395 97.415986 
L 521.192838 100.630462 
L 521.971166 103.393603 
L 522.230609 103.723844 
L 522.749495 108.237331 
L 523.008938 113.290223 
L 523.787267 110.428026 
L 524.04671 107.885068 
L 524.565596 114.347045 
L 524.825039 107.796998 
L 525.603368 106.321848 
L 525.862811 112.882914 
L 526.122253 108.479519 
L 526.381696 102.182663 
L 526.641139 100.542392 
L 527.419468 97.80129 
L 527.678911 97.735241 
L 527.938354 98.57188 
L 528.197797 96.920607 
L 528.45724 99.144326 
L 529.235569 100.146086 
L 529.495012 99.595662 
L 529.754455 100.78458 
L 530.013898 103.382584 
L 530.273341 102.204684 
L 531.311112 103.911003 
L 531.570555 103.933008 
L 531.829998 106.222776 
L 532.089441 106.553034 
L 533.127213 105.011852 
L 533.386656 105.154951 
L 533.905542 111.297689 
L 534.683871 109.206083 
L 534.943314 108.105234 
L 535.202756 105.969585 
L 535.462199 101.874427 
L 535.721642 102.645017 
L 536.499971 99.606681 
L 536.759414 99.419539 
L 537.018857 99.793823 
L 537.2783 103.162418 
L 537.537743 103.34956 
L 538.316072 102.909227 
L 538.575515 104.285288 
L 539.094401 100.663486 
L 539.353844 97.382962 
L 540.132172 101.246935 
L 540.391615 100.399293 
L 540.910501 87.728513 
L 541.169944 92.792424 
L 541.948273 88.444075 
L 542.207716 85.361695 
L 542.467159 88.014745 
L 542.986045 85.361695 
L 543.764374 86.143305 
L 544.023817 86.08826 
L 544.28326 85.592881 
L 544.542702 90.810893 
L 545.580474 93.375873 
L 545.839917 93.045615 
L 546.358803 103.250487 
L 546.618246 103.933008 
L 547.396575 104.571503 
L 547.656018 100.322226 
L 547.915461 106.464964 
L 548.174904 107.543791 
L 548.434347 104.626548 
L 549.212675 103.855958 
L 549.472118 105.496211 
L 549.731561 99.694751 
L 549.991004 102.898208 
L 550.250447 120.698947 
L 551.028776 128.272775 
L 551.547662 126.346289 
L 551.807105 123.010719 
L 552.066548 121.755752 
L 552.844877 121.90987 
L 553.10432 118.133967 
L 553.363763 118.277066 
L 553.623206 110.03172 
L 553.882648 110.615168 
L 554.660977 109.33818 
L 554.92042 108.611615 
L 555.179863 107.257576 
L 555.439306 111.638949 
L 555.698749 110.63719 
L 556.477078 112.33249 
L 556.995964 117.506475 
L 557.255407 116.053364 
L 557.51485 109.029943 
L 558.552621 111.506853 
L 558.812064 114.721329 
L 559.071507 109.701462 
L 559.33095 116.856979 
L 560.109279 112.442581 
L 560.887608 99.672729 
L 561.92538 101.995521 
L 562.184823 99.804825 
L 562.444266 100.300221 
L 562.703709 96.513299 
L 562.963151 94.608818 
L 563.74148 92.098884 
L 564.000923 92.010814 
L 564.519809 95.093194 
L 564.779252 98.604904 
L 565.557581 100.410296 
L 565.817024 101.731311 
L 566.076467 102.138636 
L 566.33591 105.220999 
L 566.595353 100.212151 
L 567.373682 106.497988 
L 568.411453 97.669176 
L 569.189782 99.078278 
L 569.449225 98.913141 
L 569.708668 99.793823 
L 569.968111 99.089281 
L 570.227554 97.482034 
L 571.005883 97.393964 
L 571.265326 96.700441 
L 571.524769 102.193665 
L 572.043655 98.759023 
L 572.821983 98.14255 
L 573.340869 93.36487 
L 573.600312 100.333245 
L 573.859755 87.64046 
L 574.638084 90.007278 
L 574.897527 85.91212 
L 575.15697 77.556682 
L 575.416413 74.298162 
L 575.675856 76.356761 
L 576.454185 77.831894 
L 576.713628 75.553129 
L 576.97307 69.839721 
L 577.232513 72.723957 
L 577.491956 82.488479 
L 578.270285 83.490256 
L 578.529728 80.286782 
L 578.789171 82.191246 
L 579.048614 87.145065 
L 579.308057 88.532145 
L 580.086386 83.765468 
L 580.345829 76.709024 
L 580.605272 79.042818 
L 581.902486 73.571598 
L 582.161929 70.566286 
L 582.421372 65.370278 
L 582.680815 62.73925 
L 582.940258 55.605755 
L 583.718587 56.640556 
L 583.97803 57.79645 
L 584.237473 52.050019 
L 584.756359 55.132382 
L 585.534688 49.110754 
L 585.794131 51.070264 
L 586.053573 62.772275 
L 586.572459 57.928547 
L 587.350788 57.774429 
L 587.610231 53.382036 
L 588.129117 55.583734 
L 588.38856 59.216538 
L 589.166889 61.913614 
L 589.426332 64.016239 
L 589.945218 63.102532 
L 590.204661 58.732162 
L 590.982989 54.967261 
L 591.242432 61.021929 
L 591.501875 60.999907 
L 592.020761 64.511618 
L 592.79909 65.04002 
L 593.058533 65.810628 
L 593.317976 59.656871 
L 593.577419 62.618156 
L 593.836862 56.805676 
L 594.874634 51.554623 
L 595.134077 46.820987 
L 595.393519 46.369635 
L 595.652962 46.99711 
L 596.431291 46.369635 
L 596.690734 43.364323 
L 596.950177 44.553224 
L 597.20962 47.228296 
L 597.469063 43.881723 
L 598.247392 44.167937 
L 598.506835 39.06 
L 598.766278 45.543998 
L 599.025721 42.615737 
L 599.285164 53.271961 
L 600.063492 48.879569 
L 600.322935 49.297897 
L 600.582378 53.514149 
L 600.841821 51.928924 
L 601.101264 53.789362 
L 602.139036 56.024083 
L 602.398479 56.046088 
L 602.657922 60.174271 
L 602.917365 67.109621 
L 603.695694 71.3699 
L 603.955137 71.270828 
L 604.21458 69.564509 
L 604.474022 75.740271 
L 604.733465 71.843274 
L 605.511794 79.83543 
L 605.771237 81.178467 
L 606.03068 76.158599 
L 606.290123 84.591105 
L 607.327895 91.372337 
L 607.846781 86.583638 
L 608.106224 92.087882 
L 608.365667 87.618439 
L 609.143995 90.051305 
L 609.403438 93.265781 
L 609.662881 90.271488 
L 609.922324 90.920985 
L 610.181767 89.533905 
L 611.219539 79.075842 
L 611.478982 84.117731 
L 611.738425 83.86454 
L 611.997868 93.375873 
L 612.776197 96.083968 
L 613.03564 93.981343 
L 613.295083 89.754088 
L 613.554526 109.129016 
L 613.813968 117.286309 
L 614.592297 112.596699 
L 614.85174 117.660593 
L 615.111183 95.159242 
L 615.370626 106.035633 
L 615.630069 102.017542 
L 616.408398 105.044876 
L 616.667841 107.830022 
L 616.927284 113.620481 
L 617.186727 115.513942 
L 618.224499 121.337424 
L 619.26227 97.482034 
L 620.300042 99.243399 
L 620.559485 102.512921 
L 620.818928 96.150016 
L 621.078371 96.392204 
L 622.116143 101.863424 
L 622.635029 94.080415 
L 622.894472 93.001588 
L 623.6728 75.850363 
L 623.932243 72.845051 
L 624.191686 74.077996 
L 624.451129 79.670309 
L 624.710572 79.207955 
L 625.488901 78.580463 
L 626.007787 84.12875 
L 626.26723 81.949058 
L 626.526673 84.271849 
L 627.564444 78.734581 
L 627.823887 80.165688 
L 628.08333 79.086861 
L 628.342773 79.846449 
L 629.121102 78.041058 
L 629.380545 79.075842 
L 629.639988 77.402564 
L 629.899431 76.653978 
L 630.158874 70.42317 
L 630.937203 66.669288 
L 631.196646 65.975748 
L 631.456089 70.830495 
L 631.715532 70.786452 
L 631.974975 72.041419 
L 632.753303 67.638024 
L 633.012746 69.047109 
L 633.272189 71.579064 
L 633.791075 74.694468 
L 634.569404 76.037505 
L 634.828847 71.303852 
L 635.08829 72.162513 
L 635.607176 59.711916 
L 636.385505 64.016239 
L 636.644948 62.838323 
L 636.90439 63.43279 
L 637.163833 59.590822 
L 638.201605 59.524774 
L 638.461048 64.049263 
L 638.720491 60.548572 
L 638.979934 60.856808 
L 639.239377 57.818455 
L 640.017706 57.080889 
L 640.277149 56.354324 
L 640.536592 59.83301 
L 640.796035 59.073422 
L 641.055478 56.596512 
L 641.833806 53.106824 
L 642.093249 55.121379 
L 642.352692 54.218692 
L 642.612135 49.881345 
L 642.871578 50.751008 
L 643.649907 49.264873 
L 643.90935 51.224382 
L 644.168793 52.127069 
L 644.428236 47.811744 
L 644.687679 69.124176 
L 645.466008 72.536814 
L 645.725451 70.225025 
L 645.984894 60.801763 
L 646.244336 59.899059 
L 647.282108 61.913614 
L 647.541551 61.726472 
L 647.800994 58.324853 
L 648.060437 51.257406 
L 648.31988 51.20236 
L 649.098209 50.695962 
L 649.876538 61.198069 
L 650.135981 53.613222 
L 650.914309 54.603979 
L 651.173752 53.756321 
L 651.433195 53.304985 
L 651.692638 50.574868 
L 651.952081 53.437082 
L 652.989853 57.466192 
L 653.249296 56.750631 
L 653.508739 46.08342 
L 653.768182 49.771254 
L 653.768182 49.771254 
" clip-path="url(#p6f883edcb3)" style="fill: none; stroke: #1f77b4; stroke-width: 1.5; stroke-linecap: square"/>
   </g>
   <g id="patch_3">
    <path d="M 94.5 224.28 
L 94.5 30.24 
" style="fill: none; stroke: #000000; stroke-width: 0.8; stroke-linejoin: miter; stroke-linecap: square"/>
   </g>
   <g id="patch_4">
    <path d="M 94.5 224.28 
L 680.4 224.28 
" style="fill: none; stroke: #000000; stroke-width: 0.8; stroke-linejoin: miter; stroke-linecap: square"/>
   </g>
  </g>
 </g>
 <defs>
  <clipPath id="p6f883edcb3">
   <rect x="94.5" y="30.24" width="585.9" height="194.04"/>
  </clipPath>
 </defs>
</svg>
