<?xml version="1.0" encoding="utf-8" standalone="no"?>
<!DOCTYPE svg PUBLIC "-//W3C//DTD SVG 1.1//EN"
  "http://www.w3.org/Graphics/SVG/1.1/DTD/svg11.dtd">
<svg xmlns:xlink="http://www.w3.org/1999/xlink" width="756pt" height="252pt" viewBox="0 0 756 252" xmlns="http://www.w3.org/2000/svg" version="1.1">
 <metadata>
  <rdf:RDF xmlns:dc="http://purl.org/dc/elements/1.1/" xmlns:cc="http://creativecommons.org/ns#" xmlns:rdf="http://www.w3.org/1999/02/22-rdf-syntax-ns#">
   <cc:Work>
    <dc:type rdf:resource="http://purl.org/dc/dcmitype/StillImage"/>
    <dc:date>2025-08-31T00:52:50.317895</dc:date>
    <dc:format>image/svg+xml</dc:format>
    <dc:creator>
     <cc:Agent>
      <dc:title>Matplotlib v3.10.5, https://matplotlib.org/</dc:title>
     </cc:Agent>
    </dc:creator>
   </cc:Work>
  </rdf:RDF>
 </metadata>
 <defs>
  <style type="text/css">*{stroke-linejoin: round; stroke-linecap: butt}</style>
 </defs>
 <g id="figure_1">
  <g id="patch_1">
   <path d="M 0 252 
L 756 252 
L 756 0 
L 0 0 
z
" style="fill: #ffffff"/>
  </g>
  <g id="axes_1">
   <g id="patch_2">
    <path d="M 94.5 224.28 
L 680.4 224.28 
L 680.4 30.24 
L 94.5 30.24 
z
" style="fill: #ffffff"/>
   </g>
   <g id="matplotlib.axis_1">
    <g id="xtick_1">
     <g id="line2d_1">
      <defs>
       <path id="madd7d0a287" d="M 0 0 
L 0 3.5 
" style="stroke: #000000; stroke-width: 0.8"/>
      </defs>
      <g>
       <use xlink:href="#madd7d0a287" x="127.886265" y="224.28" style="stroke: #000000; stroke-width: 0.8"/>
      </g>
     </g>
     <g id="text_1">
      <!-- 2024-03 -->
      <g transform="translate(106.994859 238.878438) scale(0.1 -0.1)">
       <defs>
        <path id="DejaVuSans-32" d="M 1228 531 
L 3431 531 
L 3431 0 
L 469 0 
L 469 531 
Q 828 903 1448 1529 
Q 2069 2156 2228 2338 
Q 2531 2678 2651 2914 
Q 2772 3150 2772 3378 
Q 2772 3750 2511 3984 
Q 2250 4219 1831 4219 
Q 1534 4219 1204 4116 
Q 875 4013 500 3803 
L 500 4441 
Q 881 4594 1212 4672 
Q 1544 4750 1819 4750 
Q 2544 4750 2975 4387 
Q 3406 4025 3406 3419 
Q 3406 3131 3298 2873 
Q 3191 2616 2906 2266 
Q 2828 2175 2409 1742 
Q 1991 1309 1228 531 
z
" transform="scale(0.015625)"/>
        <path id="DejaVuSans-30" d="M 2034 4250 
Q 1547 4250 1301 3770 
Q 1056 3291 1056 2328 
Q 1056 1369 1301 889 
Q 1547 409 2034 409 
Q 2525 409 2770 889 
Q 3016 1369 3016 2328 
Q 3016 3291 2770 3770 
Q 2525 4250 2034 4250 
z
M 2034 4750 
Q 2819 4750 3233 4129 
Q 3647 3509 3647 2328 
Q 3647 1150 3233 529 
Q 2819 -91 2034 -91 
Q 1250 -91 836 529 
Q 422 1150 422 2328 
Q 422 3509 836 4129 
Q 1250 4750 2034 4750 
z
" transform="scale(0.015625)"/>
        <path id="DejaVuSans-34" d="M 2419 4116 
L 825 1625 
L 2419 1625 
L 2419 4116 
z
M 2253 4666 
L 3047 4666 
L 3047 1625 
L 3713 1625 
L 3713 1100 
L 3047 1100 
L 3047 0 
L 2419 0 
L 2419 1100 
L 313 1100 
L 313 1709 
L 2253 4666 
z
" transform="scale(0.015625)"/>
        <path id="DejaVuSans-2d" d="M 313 2009 
L 1997 2009 
L 1997 1497 
L 313 1497 
L 313 2009 
z
" transform="scale(0.015625)"/>
        <path id="DejaVuSans-33" d="M 2597 2516 
Q 3050 2419 3304 2112 
Q 3559 1806 3559 1356 
Q 3559 666 3084 287 
Q 2609 -91 1734 -91 
Q 1441 -91 1130 -33 
Q 819 25 488 141 
L 488 750 
Q 750 597 1062 519 
Q 1375 441 1716 441 
Q 2309 441 2620 675 
Q 2931 909 2931 1356 
Q 2931 1769 2642 2001 
Q 2353 2234 1838 2234 
L 1294 2234 
L 1294 2753 
L 1863 2753 
Q 2328 2753 2575 2939 
Q 2822 3125 2822 3475 
Q 2822 3834 2567 4026 
Q 2313 4219 1838 4219 
Q 1578 4219 1281 4162 
Q 984 4106 628 3988 
L 628 4550 
Q 988 4650 1302 4700 
Q 1616 4750 1894 4750 
Q 2613 4750 3031 4423 
Q 3450 4097 3450 3541 
Q 3450 3153 3228 2886 
Q 3006 2619 2597 2516 
z
" transform="scale(0.015625)"/>
       </defs>
       <use xlink:href="#DejaVuSans-32"/>
       <use xlink:href="#DejaVuSans-30" transform="translate(63.623047 0)"/>
       <use xlink:href="#DejaVuSans-32" transform="translate(127.246094 0)"/>
       <use xlink:href="#DejaVuSans-34" transform="translate(190.869141 0)"/>
       <use xlink:href="#DejaVuSans-2d" transform="translate(254.492188 0)"/>
       <use xlink:href="#DejaVuSans-30" transform="translate(290.576172 0)"/>
       <use xlink:href="#DejaVuSans-33" transform="translate(354.199219 0)"/>
      </g>
     </g>
    </g>
    <g id="xtick_2">
     <g id="line2d_2">
      <g>
       <use xlink:href="#madd7d0a287" x="186.746443" y="224.28" style="stroke: #000000; stroke-width: 0.8"/>
      </g>
     </g>
     <g id="text_2">
      <!-- 2024-05 -->
      <g transform="translate(165.855036 238.878438) scale(0.1 -0.1)">
       <defs>
        <path id="DejaVuSans-35" d="M 691 4666 
L 3169 4666 
L 3169 4134 
L 1269 4134 
L 1269 2991 
Q 1406 3038 1543 3061 
Q 1681 3084 1819 3084 
Q 2600 3084 3056 2656 
Q 3513 2228 3513 1497 
Q 3513 744 3044 326 
Q 2575 -91 1722 -91 
Q 1428 -91 1123 -41 
Q 819 9 494 109 
L 494 744 
Q 775 591 1075 516 
Q 1375 441 1709 441 
Q 2250 441 2565 725 
Q 2881 1009 2881 1497 
Q 2881 1984 2565 2268 
Q 2250 2553 1709 2553 
Q 1456 2553 1204 2497 
Q 953 2441 691 2322 
L 691 4666 
z
" transform="scale(0.015625)"/>
       </defs>
       <use xlink:href="#DejaVuSans-32"/>
       <use xlink:href="#DejaVuSans-30" transform="translate(63.623047 0)"/>
       <use xlink:href="#DejaVuSans-32" transform="translate(127.246094 0)"/>
       <use xlink:href="#DejaVuSans-34" transform="translate(190.869141 0)"/>
       <use xlink:href="#DejaVuSans-2d" transform="translate(254.492188 0)"/>
       <use xlink:href="#DejaVuSans-30" transform="translate(290.576172 0)"/>
       <use xlink:href="#DejaVuSans-35" transform="translate(354.199219 0)"/>
      </g>
     </g>
    </g>
    <g id="xtick_3">
     <g id="line2d_3">
      <g>
       <use xlink:href="#madd7d0a287" x="245.606621" y="224.28" style="stroke: #000000; stroke-width: 0.8"/>
      </g>
     </g>
     <g id="text_3">
      <!-- 2024-07 -->
      <g transform="translate(224.715214 238.878438) scale(0.1 -0.1)">
       <defs>
        <path id="DejaVuSans-37" d="M 525 4666 
L 3525 4666 
L 3525 4397 
L 1831 0 
L 1172 0 
L 2766 4134 
L 525 4134 
L 525 4666 
z
" transform="scale(0.015625)"/>
       </defs>
       <use xlink:href="#DejaVuSans-32"/>
       <use xlink:href="#DejaVuSans-30" transform="translate(63.623047 0)"/>
       <use xlink:href="#DejaVuSans-32" transform="translate(127.246094 0)"/>
       <use xlink:href="#DejaVuSans-34" transform="translate(190.869141 0)"/>
       <use xlink:href="#DejaVuSans-2d" transform="translate(254.492188 0)"/>
       <use xlink:href="#DejaVuSans-30" transform="translate(290.576172 0)"/>
       <use xlink:href="#DejaVuSans-37" transform="translate(354.199219 0)"/>
      </g>
     </g>
    </g>
    <g id="xtick_4">
     <g id="line2d_4">
      <g>
       <use xlink:href="#madd7d0a287" x="305.431719" y="224.28" style="stroke: #000000; stroke-width: 0.8"/>
      </g>
     </g>
     <g id="text_4">
      <!-- 2024-09 -->
      <g transform="translate(284.540313 238.878438) scale(0.1 -0.1)">
       <defs>
        <path id="DejaVuSans-39" d="M 703 97 
L 703 672 
Q 941 559 1184 500 
Q 1428 441 1663 441 
Q 2288 441 2617 861 
Q 2947 1281 2994 2138 
Q 2813 1869 2534 1725 
Q 2256 1581 1919 1581 
Q 1219 1581 811 2004 
Q 403 2428 403 3163 
Q 403 3881 828 4315 
Q 1253 4750 1959 4750 
Q 2769 4750 3195 4129 
Q 3622 3509 3622 2328 
Q 3622 1225 3098 567 
Q 2575 -91 1691 -91 
Q 1453 -91 1209 -44 
Q 966 3 703 97 
z
M 1959 2075 
Q 2384 2075 2632 2365 
Q 2881 2656 2881 3163 
Q 2881 3666 2632 3958 
Q 2384 4250 1959 4250 
Q 1534 4250 1286 3958 
Q 1038 3666 1038 3163 
Q 1038 2656 1286 2365 
Q 1534 2075 1959 2075 
z
" transform="scale(0.015625)"/>
       </defs>
       <use xlink:href="#DejaVuSans-32"/>
       <use xlink:href="#DejaVuSans-30" transform="translate(63.623047 0)"/>
       <use xlink:href="#DejaVuSans-32" transform="translate(127.246094 0)"/>
       <use xlink:href="#DejaVuSans-34" transform="translate(190.869141 0)"/>
       <use xlink:href="#DejaVuSans-2d" transform="translate(254.492188 0)"/>
       <use xlink:href="#DejaVuSans-30" transform="translate(290.576172 0)"/>
       <use xlink:href="#DejaVuSans-39" transform="translate(354.199219 0)"/>
      </g>
     </g>
    </g>
    <g id="xtick_5">
     <g id="line2d_5">
      <g>
       <use xlink:href="#madd7d0a287" x="364.291897" y="224.28" style="stroke: #000000; stroke-width: 0.8"/>
      </g>
     </g>
     <g id="text_5">
      <!-- 2024-11 -->
      <g transform="translate(343.400491 238.878438) scale(0.1 -0.1)">
       <defs>
        <path id="DejaVuSans-31" d="M 794 531 
L 1825 531 
L 1825 4091 
L 703 3866 
L 703 4441 
L 1819 4666 
L 2450 4666 
L 2450 531 
L 3481 531 
L 3481 0 
L 794 0 
L 794 531 
z
" transform="scale(0.015625)"/>
       </defs>
       <use xlink:href="#DejaVuSans-32"/>
       <use xlink:href="#DejaVuSans-30" transform="translate(63.623047 0)"/>
       <use xlink:href="#DejaVuSans-32" transform="translate(127.246094 0)"/>
       <use xlink:href="#DejaVuSans-34" transform="translate(190.869141 0)"/>
       <use xlink:href="#DejaVuSans-2d" transform="translate(254.492188 0)"/>
       <use xlink:href="#DejaVuSans-31" transform="translate(290.576172 0)"/>
       <use xlink:href="#DejaVuSans-31" transform="translate(354.199219 0)"/>
      </g>
     </g>
    </g>
    <g id="xtick_6">
     <g id="line2d_6">
      <g>
       <use xlink:href="#madd7d0a287" x="423.152075" y="224.28" style="stroke: #000000; stroke-width: 0.8"/>
      </g>
     </g>
     <g id="text_6">
      <!-- 2025-01 -->
      <g transform="translate(402.260669 238.878438) scale(0.1 -0.1)">
       <use xlink:href="#DejaVuSans-32"/>
       <use xlink:href="#DejaVuSans-30" transform="translate(63.623047 0)"/>
       <use xlink:href="#DejaVuSans-32" transform="translate(127.246094 0)"/>
       <use xlink:href="#DejaVuSans-35" transform="translate(190.869141 0)"/>
       <use xlink:href="#DejaVuSans-2d" transform="translate(254.492188 0)"/>
       <use xlink:href="#DejaVuSans-30" transform="translate(290.576172 0)"/>
       <use xlink:href="#DejaVuSans-31" transform="translate(354.199219 0)"/>
      </g>
     </g>
    </g>
    <g id="xtick_7">
     <g id="line2d_7">
      <g>
       <use xlink:href="#madd7d0a287" x="480.082411" y="224.28" style="stroke: #000000; stroke-width: 0.8"/>
      </g>
     </g>
     <g id="text_7">
      <!-- 2025-03 -->
      <g transform="translate(459.191005 238.878438) scale(0.1 -0.1)">
       <use xlink:href="#DejaVuSans-32"/>
       <use xlink:href="#DejaVuSans-30" transform="translate(63.623047 0)"/>
       <use xlink:href="#DejaVuSans-32" transform="translate(127.246094 0)"/>
       <use xlink:href="#DejaVuSans-35" transform="translate(190.869141 0)"/>
       <use xlink:href="#DejaVuSans-2d" transform="translate(254.492188 0)"/>
       <use xlink:href="#DejaVuSans-30" transform="translate(290.576172 0)"/>
       <use xlink:href="#DejaVuSans-33" transform="translate(354.199219 0)"/>
      </g>
     </g>
    </g>
    <g id="xtick_8">
     <g id="line2d_8">
      <g>
       <use xlink:href="#madd7d0a287" x="538.942589" y="224.28" style="stroke: #000000; stroke-width: 0.8"/>
      </g>
     </g>
     <g id="text_8">
      <!-- 2025-05 -->
      <g transform="translate(518.051183 238.878438) scale(0.1 -0.1)">
       <use xlink:href="#DejaVuSans-32"/>
       <use xlink:href="#DejaVuSans-30" transform="translate(63.623047 0)"/>
       <use xlink:href="#DejaVuSans-32" transform="translate(127.246094 0)"/>
       <use xlink:href="#DejaVuSans-35" transform="translate(190.869141 0)"/>
       <use xlink:href="#DejaVuSans-2d" transform="translate(254.492188 0)"/>
       <use xlink:href="#DejaVuSans-30" transform="translate(290.576172 0)"/>
       <use xlink:href="#DejaVuSans-35" transform="translate(354.199219 0)"/>
      </g>
     </g>
    </g>
    <g id="xtick_9">
     <g id="line2d_9">
      <g>
       <use xlink:href="#madd7d0a287" x="597.802767" y="224.28" style="stroke: #000000; stroke-width: 0.8"/>
      </g>
     </g>
     <g id="text_9">
      <!-- 2025-07 -->
      <g transform="translate(576.911361 238.878438) scale(0.1 -0.1)">
       <use xlink:href="#DejaVuSans-32"/>
       <use xlink:href="#DejaVuSans-30" transform="translate(63.623047 0)"/>
       <use xlink:href="#DejaVuSans-32" transform="translate(127.246094 0)"/>
       <use xlink:href="#DejaVuSans-35" transform="translate(190.869141 0)"/>
       <use xlink:href="#DejaVuSans-2d" transform="translate(254.492188 0)"/>
       <use xlink:href="#DejaVuSans-30" transform="translate(290.576172 0)"/>
       <use xlink:href="#DejaVuSans-37" transform="translate(354.199219 0)"/>
      </g>
     </g>
    </g>
    <g id="xtick_10">
     <g id="line2d_10">
      <g>
       <use xlink:href="#madd7d0a287" x="657.627866" y="224.28" style="stroke: #000000; stroke-width: 0.8"/>
      </g>
     </g>
     <g id="text_10">
      <!-- 2025-09 -->
      <g transform="translate(636.736459 238.878438) scale(0.1 -0.1)">
       <use xlink:href="#DejaVuSans-32"/>
       <use xlink:href="#DejaVuSans-30" transform="translate(63.623047 0)"/>
       <use xlink:href="#DejaVuSans-32" transform="translate(127.246094 0)"/>
       <use xlink:href="#DejaVuSans-35" transform="translate(190.869141 0)"/>
       <use xlink:href="#DejaVuSans-2d" transform="translate(254.492188 0)"/>
       <use xlink:href="#DejaVuSans-30" transform="translate(290.576172 0)"/>
       <use xlink:href="#DejaVuSans-39" transform="translate(354.199219 0)"/>
      </g>
     </g>
    </g>
   </g>
   <g id="matplotlib.axis_2">
    <g id="ytick_1">
     <g id="line2d_11">
      <defs>
       <path id="m9562417800" d="M 0 0 
L -3.5 0 
" style="stroke: #000000; stroke-width: 0.8"/>
      </defs>
      <g>
       <use xlink:href="#m9562417800" x="94.5" y="217.680246" style="stroke: #000000; stroke-width: 0.8"/>
      </g>
     </g>
     <g id="text_11">
      <!-- 160 -->
      <g transform="translate(68.4125 221.479465) scale(0.1 -0.1)">
       <defs>
        <path id="DejaVuSans-36" d="M 2113 2584 
Q 1688 2584 1439 2293 
Q 1191 2003 1191 1497 
Q 1191 994 1439 701 
Q 1688 409 2113 409 
Q 2538 409 2786 701 
Q 3034 994 3034 1497 
Q 3034 2003 2786 2293 
Q 2538 2584 2113 2584 
z
M 3366 4563 
L 3366 3988 
Q 3128 4100 2886 4159 
Q 2644 4219 2406 4219 
Q 1781 4219 1451 3797 
Q 1122 3375 1075 2522 
Q 1259 2794 1537 2939 
Q 1816 3084 2150 3084 
Q 2853 3084 3261 2657 
Q 3669 2231 3669 1497 
Q 3669 778 3244 343 
Q 2819 -91 2113 -91 
Q 1303 -91 875 529 
Q 447 1150 447 2328 
Q 447 3434 972 4092 
Q 1497 4750 2381 4750 
Q 2619 4750 2861 4703 
Q 3103 4656 3366 4563 
z
" transform="scale(0.015625)"/>
       </defs>
       <use xlink:href="#DejaVuSans-31"/>
       <use xlink:href="#DejaVuSans-36" transform="translate(63.623047 0)"/>
       <use xlink:href="#DejaVuSans-30" transform="translate(127.246094 0)"/>
      </g>
     </g>
    </g>
    <g id="ytick_2">
     <g id="line2d_12">
      <g>
       <use xlink:href="#m9562417800" x="94.5" y="195.913216" style="stroke: #000000; stroke-width: 0.8"/>
      </g>
     </g>
     <g id="text_12">
      <!-- 170 -->
      <g transform="translate(68.4125 199.712435) scale(0.1 -0.1)">
       <use xlink:href="#DejaVuSans-31"/>
       <use xlink:href="#DejaVuSans-37" transform="translate(63.623047 0)"/>
       <use xlink:href="#DejaVuSans-30" transform="translate(127.246094 0)"/>
      </g>
     </g>
    </g>
    <g id="ytick_3">
     <g id="line2d_13">
      <g>
       <use xlink:href="#m9562417800" x="94.5" y="174.146186" style="stroke: #000000; stroke-width: 0.8"/>
      </g>
     </g>
     <g id="text_13">
      <!-- 180 -->
      <g transform="translate(68.4125 177.945404) scale(0.1 -0.1)">
       <defs>
        <path id="DejaVuSans-38" d="M 2034 2216 
Q 1584 2216 1326 1975 
Q 1069 1734 1069 1313 
Q 1069 891 1326 650 
Q 1584 409 2034 409 
Q 2484 409 2743 651 
Q 3003 894 3003 1313 
Q 3003 1734 2745 1975 
Q 2488 2216 2034 2216 
z
M 1403 2484 
Q 997 2584 770 2862 
Q 544 3141 544 3541 
Q 544 4100 942 4425 
Q 1341 4750 2034 4750 
Q 2731 4750 3128 4425 
Q 3525 4100 3525 3541 
Q 3525 3141 3298 2862 
Q 3072 2584 2669 2484 
Q 3125 2378 3379 2068 
Q 3634 1759 3634 1313 
Q 3634 634 3220 271 
Q 2806 -91 2034 -91 
Q 1263 -91 848 271 
Q 434 634 434 1313 
Q 434 1759 690 2068 
Q 947 2378 1403 2484 
z
M 1172 3481 
Q 1172 3119 1398 2916 
Q 1625 2713 2034 2713 
Q 2441 2713 2670 2916 
Q 2900 3119 2900 3481 
Q 2900 3844 2670 4047 
Q 2441 4250 2034 4250 
Q 1625 4250 1398 4047 
Q 1172 3844 1172 3481 
z
" transform="scale(0.015625)"/>
       </defs>
       <use xlink:href="#DejaVuSans-31"/>
       <use xlink:href="#DejaVuSans-38" transform="translate(63.623047 0)"/>
       <use xlink:href="#DejaVuSans-30" transform="translate(127.246094 0)"/>
      </g>
     </g>
    </g>
    <g id="ytick_4">
     <g id="line2d_14">
      <g>
       <use xlink:href="#m9562417800" x="94.5" y="152.379155" style="stroke: #000000; stroke-width: 0.8"/>
      </g>
     </g>
     <g id="text_14">
      <!-- 190 -->
      <g transform="translate(68.4125 156.178374) scale(0.1 -0.1)">
       <use xlink:href="#DejaVuSans-31"/>
       <use xlink:href="#DejaVuSans-39" transform="translate(63.623047 0)"/>
       <use xlink:href="#DejaVuSans-30" transform="translate(127.246094 0)"/>
      </g>
     </g>
    </g>
    <g id="ytick_5">
     <g id="line2d_15">
      <g>
       <use xlink:href="#m9562417800" x="94.5" y="130.612125" style="stroke: #000000; stroke-width: 0.8"/>
      </g>
     </g>
     <g id="text_15">
      <!-- 200 -->
      <g transform="translate(68.4125 134.411343) scale(0.1 -0.1)">
       <use xlink:href="#DejaVuSans-32"/>
       <use xlink:href="#DejaVuSans-30" transform="translate(63.623047 0)"/>
       <use xlink:href="#DejaVuSans-30" transform="translate(127.246094 0)"/>
      </g>
     </g>
    </g>
    <g id="ytick_6">
     <g id="line2d_16">
      <g>
       <use xlink:href="#m9562417800" x="94.5" y="108.845094" style="stroke: #000000; stroke-width: 0.8"/>
      </g>
     </g>
     <g id="text_16">
      <!-- 210 -->
      <g transform="translate(68.4125 112.644313) scale(0.1 -0.1)">
       <use xlink:href="#DejaVuSans-32"/>
       <use xlink:href="#DejaVuSans-31" transform="translate(63.623047 0)"/>
       <use xlink:href="#DejaVuSans-30" transform="translate(127.246094 0)"/>
      </g>
     </g>
    </g>
    <g id="ytick_7">
     <g id="line2d_17">
      <g>
       <use xlink:href="#m9562417800" x="94.5" y="87.078064" style="stroke: #000000; stroke-width: 0.8"/>
      </g>
     </g>
     <g id="text_17">
      <!-- 220 -->
      <g transform="translate(68.4125 90.877283) scale(0.1 -0.1)">
       <use xlink:href="#DejaVuSans-32"/>
       <use xlink:href="#DejaVuSans-32" transform="translate(63.623047 0)"/>
       <use xlink:href="#DejaVuSans-30" transform="translate(127.246094 0)"/>
      </g>
     </g>
    </g>
    <g id="ytick_8">
     <g id="line2d_18">
      <g>
       <use xlink:href="#m9562417800" x="94.5" y="65.311033" style="stroke: #000000; stroke-width: 0.8"/>
      </g>
     </g>
     <g id="text_18">
      <!-- 230 -->
      <g transform="translate(68.4125 69.110252) scale(0.1 -0.1)">
       <use xlink:href="#DejaVuSans-32"/>
       <use xlink:href="#DejaVuSans-33" transform="translate(63.623047 0)"/>
       <use xlink:href="#DejaVuSans-30" transform="translate(127.246094 0)"/>
      </g>
     </g>
    </g>
    <g id="ytick_9">
     <g id="line2d_19">
      <g>
       <use xlink:href="#m9562417800" x="94.5" y="43.544003" style="stroke: #000000; stroke-width: 0.8"/>
      </g>
     </g>
     <g id="text_19">
      <!-- 240 -->
      <g transform="translate(68.4125 47.343222) scale(0.1 -0.1)">
       <use xlink:href="#DejaVuSans-32"/>
       <use xlink:href="#DejaVuSans-34" transform="translate(63.623047 0)"/>
       <use xlink:href="#DejaVuSans-30" transform="translate(127.246094 0)"/>
      </g>
     </g>
    </g>
   </g>
   <g id="line2d_20">
    <path d="M 121.131818 185.051456 
L 124.026581 185.61742 
L 124.991502 188.207702 
L 125.956423 189.034826 
L 126.921344 181.198715 
L 127.886265 178.020714 
L 130.781028 179.413803 
L 131.745949 186.94521 
L 132.71087 188.273 
L 133.675791 181.068085 
L 134.640711 184.267841 
L 137.535474 191.646863 
L 138.500395 184.180788 
L 139.465316 181.634049 
L 140.430237 176.867064 
L 141.395158 186.292193 
L 144.289921 186.161596 
L 145.254842 183.070681 
L 146.219763 178.173099 
L 147.184684 178.173099 
L 148.149605 176.605871 
L 151.044368 174.777415 
L 152.009289 177.846574 
L 152.974209 174.516221 
L 153.93913 173.319028 
L 157.798814 172.034781 
L 158.763735 172.644255 
L 159.728656 168.900323 
L 160.693577 174.146186 
L 161.658498 163.110285 
L 164.553261 162.849091 
L 165.518182 161.804283 
L 166.483103 161.194809 
L 167.448024 154.447016 
L 168.412945 160.802985 
L 171.307708 166.266531 
L 172.272628 166.919515 
L 174.20247 175.844011 
L 175.167391 185.83507 
L 178.062154 180.175662 
L 179.027075 175.147484 
L 180.956917 187.92472 
L 181.921838 174.973343 
L 184.816601 172.056536 
L 185.781522 185.029701 
L 186.746443 176.322889 
L 187.711364 163.872145 
L 188.676285 160.628845 
L 191.571047 155.208876 
L 192.535968 155.078279 
L 193.500889 156.732561 
L 194.46581 153.467507 
L 195.430731 157.864456 
L 198.325494 159.845231 
L 199.290415 158.756879 
L 200.255336 161.107722 
L 201.220257 166.244743 
L 202.185178 163.915688 
L 206.044862 167.289584 
L 207.009783 167.333094 
L 207.974704 171.860641 
L 208.939625 172.513658 
L 212.799308 169.466287 
L 213.764229 169.749236 
L 215.694071 181.895243 
L 218.588834 177.759521 
L 219.553755 175.582818 
L 220.518676 171.360008 
L 221.483597 163.26267 
L 222.448518 164.786356 
L 225.343281 158.778667 
L 226.308202 158.408632 
L 227.273123 159.148703 
L 228.238043 165.809409 
L 229.202964 166.179444 
L 232.097727 165.308777 
L 233.062648 168.029655 
L 234.99249 160.868284 
L 235.957411 154.381718 
L 238.852174 162.021934 
L 239.817095 160.345896 
L 240.782016 144.521256 
L 241.746937 135.292023 
L 242.711858 145.30487 
L 245.606621 136.7069 
L 246.571542 130.612125 
L 247.536462 135.857987 
L 249.466304 130.612125 
L 252.361067 132.157598 
L 253.325988 132.048757 
L 254.290909 131.069247 
L 255.25583 141.386798 
L 256.220751 142.605746 
L 259.115514 146.45852 
L 260.080435 145.805503 
L 261.045356 156.884946 
L 262.010277 165.983549 
L 262.975198 167.333094 
L 265.86996 168.595586 
L 266.834881 160.193511 
L 267.799802 172.339518 
L 268.764723 174.472678 
L 269.729644 168.704428 
L 272.624407 167.180742 
L 273.589328 170.424009 
L 274.554249 158.952808 
L 275.51917 165.286988 
L 276.484091 200.484306 
L 279.378854 215.46 
L 281.308696 211.65077 
L 282.273617 205.055362 
L 283.238538 202.573922 
L 286.1333 202.878659 
L 287.098221 195.412584 
L 288.063142 195.695532 
L 289.028063 179.392048 
L 289.992984 180.545698 
L 292.887747 178.020714 
L 293.852668 176.584082 
L 294.817589 173.906747 
L 295.78251 182.570016 
L 296.747431 180.589241 
L 299.642194 183.941349 
L 301.572036 194.171847 
L 302.536957 191.298616 
L 303.501877 177.41124 
L 307.361561 182.308822 
L 308.326482 188.664791 
L 309.291403 178.73903 
L 310.256324 192.8876 
L 313.151087 184.159033 
L 314.116008 175.125695 
L 315.080929 164.307478 
L 316.04585 158.909264 
L 319.905534 163.502109 
L 320.870455 159.170458 
L 321.835375 160.150001 
L 322.800296 152.662137 
L 323.765217 148.896417 
L 326.65998 143.933537 
L 327.624901 143.759396 
L 329.554743 149.854172 
L 330.519664 156.79786 
L 333.414427 160.367651 
L 334.379348 162.979688 
L 335.344269 163.785091 
L 336.30919 169.879833 
L 337.274111 159.975861 
L 340.168874 172.404816 
L 341.133794 168.225551 
L 342.098715 162.892635 
L 343.063636 159.671124 
L 344.028557 154.947649 
L 346.92332 157.733859 
L 347.888241 157.407334 
L 348.853162 159.148703 
L 349.818083 157.755614 
L 350.783004 154.577613 
L 353.677767 154.403473 
L 354.642688 153.032173 
L 355.607609 163.8939 
L 356.57253 160.258809 
L 357.537451 157.102597 
L 360.432213 155.883648 
L 361.397134 150.572488 
L 362.362055 146.436765 
L 363.326976 160.215299 
L 364.291897 135.117916 
L 367.18666 139.797814 
L 368.151581 131.700476 
L 369.116502 115.179308 
L 370.081423 108.736252 
L 371.046344 112.80671 
L 373.941107 115.723484 
L 374.906028 111.217693 
L 375.870949 99.920598 
L 376.83587 105.623583 
L 377.800791 124.930928 
L 380.695553 126.911736 
L 381.660474 120.577522 
L 382.625395 124.343209 
L 383.590316 134.138373 
L 384.555237 136.88104 
L 387.45 127.455912 
L 388.414921 113.503237 
L 389.379842 118.117837 
L 391.309684 113.437939 
L 394.204447 107.29962 
L 395.169368 101.35723 
L 396.134289 91.083189 
L 397.099209 85.880871 
L 398.06413 71.775844 
L 400.958893 73.82195 
L 401.923814 76.107495 
L 402.888735 64.745103 
L 403.853656 67.553035 
L 404.818577 70.839845 
L 407.71334 58.933309 
L 408.678261 62.807838 
L 409.643182 85.946169 
L 410.608103 79.916725 
L 411.573024 76.368689 
L 414.467787 76.063952 
L 415.432708 67.378895 
L 417.362549 71.732301 
L 418.32747 78.915427 
L 421.222233 84.248343 
L 422.187154 88.405854 
L 424.116996 86.599186 
L 425.081917 77.957673 
L 427.97668 70.513352 
L 428.941601 82.485219 
L 429.906522 82.441676 
L 431.836364 89.385364 
L 434.731126 90.430172 
L 435.696047 91.953891 
L 436.660968 79.786095 
L 437.625889 85.641432 
L 438.59081 74.148442 
L 442.450494 63.76556 
L 443.415415 54.405763 
L 444.380336 53.513307 
L 445.345257 54.75401 
L 448.24002 53.513307 
L 449.204941 47.570917 
L 450.169862 49.921727 
L 451.134783 55.211133 
L 452.099704 48.59397 
L 454.994466 49.159901 
L 455.959387 39.06 
L 456.924308 51.88078 
L 457.889229 46.090742 
L 458.85415 67.161244 
L 461.748913 58.476187 
L 462.713834 59.303345 
L 463.678755 67.640122 
L 464.643676 64.505664 
L 465.608597 68.184297 
L 469.468281 72.603002 
L 470.433202 72.646512 
L 471.398123 80.809148 
L 472.363043 94.522384 
L 475.257806 102.946214 
L 476.222727 102.750319 
L 477.187648 99.376423 
L 478.152569 111.587728 
L 479.11749 103.882214 
L 482.012253 119.685066 
L 482.977174 122.340646 
L 483.942095 112.414886 
L 484.907016 129.088439 
L 485.871937 132.244652 
L 488.7667 142.496938 
L 489.731621 138.03469 
L 490.696542 133.028266 
L 491.661462 143.911782 
L 492.626383 135.074373 
L 495.521146 139.884868 
L 496.486067 146.240837 
L 497.450988 140.320235 
L 498.415909 141.604482 
L 499.38083 138.861815 
L 503.240514 118.183136 
L 504.205435 128.15244 
L 505.170356 127.651807 
L 506.135277 146.45852 
L 509.03004 151.813224 
L 509.99496 147.655713 
L 510.959881 139.297182 
L 511.924802 177.607135 
L 512.889723 193.736513 
L 515.784486 184.46377 
L 516.749407 194.476584 
L 517.714328 149.984768 
L 518.679249 171.490605 
L 519.64417 163.545652 
L 522.538933 169.531586 
L 523.503854 175.038642 
L 524.468775 186.488088 
L 525.433696 190.23202 
L 529.293379 201.746764 
L 530.2583 188.991316 
L 531.223221 172.84015 
L 532.188142 159.910562 
L 533.153063 154.577613 
L 536.047826 157.385579 
L 537.012747 158.060351 
L 537.977668 164.525162 
L 538.942589 151.943821 
L 539.90751 152.422698 
L 543.767194 163.240915 
L 545.697036 147.851609 
L 546.661957 145.718449 
L 549.556719 111.805412 
L 550.52164 105.863022 
L 551.486561 108.300918 
L 552.451482 119.358574 
L 553.416403 118.444363 
L 556.311166 117.203626 
L 557.276087 121.752927 
L 558.241008 128.174228 
L 559.205929 123.864332 
L 560.17085 128.457177 
L 564.030534 117.508363 
L 564.995455 120.338084 
L 565.960375 118.204924 
L 566.925296 119.706854 
L 569.820059 116.137063 
L 570.78498 118.183136 
L 571.749901 114.874571 
L 572.714822 113.394396 
L 573.679743 101.074248 
L 576.574506 93.651716 
L 577.539427 92.280383 
L 578.504348 101.879651 
L 579.469269 101.792564 
L 580.43419 104.274005 
L 583.328953 95.567192 
L 584.293874 98.35337 
L 585.258794 103.359793 
L 587.188636 109.519867 
L 590.083399 112.175447 
L 591.04832 102.815618 
L 592.013241 104.513443 
L 592.978162 93.346979 
L 593.943083 79.894937 
L 596.837846 88.405854 
L 597.802767 86.076766 
L 598.767688 87.252204 
L 599.732609 79.655498 
L 603.592292 79.524902 
L 604.557213 88.471152 
L 605.522134 81.549253 
L 606.487055 82.158727 
L 607.451976 76.151005 
L 610.346739 74.692618 
L 611.31166 73.255986 
L 612.276581 80.134376 
L 613.241502 78.632445 
L 614.206423 73.734864 
L 617.101186 66.834719 
L 618.066107 70.818089 
L 619.031028 69.03321 
L 619.995949 60.456995 
L 620.96087 62.176576 
L 623.855632 59.238047 
L 624.820553 63.112575 
L 625.785474 64.897454 
L 626.750395 56.364783 
L 627.715316 98.505755 
L 630.610079 105.253548 
L 631.575 100.682458 
L 632.539921 82.049885 
L 633.504842 80.264973 
L 637.364526 84.248343 
L 638.329447 83.878308 
L 639.294368 77.152303 
L 640.259289 63.177874 
L 641.224209 63.069032 
L 644.118972 62.067734 
L 645.083893 69.642684 
L 646.048814 78.784831 
L 647.013735 82.8335 
L 647.978656 67.836017 
L 650.873419 69.795036 
L 651.83834 68.118966 
L 652.803261 67.226543 
L 653.768182 61.828295 
L 653.768182 61.828295 
" clip-path="url(#p627ef2bc08)" style="fill: none; stroke: #1f77b4; stroke-width: 1.5; stroke-linecap: square"/>
   </g>
   <g id="patch_3">
    <path d="M 94.5 224.28 
L 94.5 30.24 
" style="fill: none; stroke: #000000; stroke-width: 0.8; stroke-linejoin: miter; stroke-linecap: square"/>
   </g>
   <g id="patch_4">
    <path d="M 94.5 224.28 
L 680.4 224.28 
" style="fill: none; stroke: #000000; stroke-width: 0.8; stroke-linejoin: miter; stroke-linecap: square"/>
   </g>
  </g>
 </g>
 <defs>
  <clipPath id="p627ef2bc08">
   <rect x="94.5" y="30.24" width="585.9" height="194.04"/>
  </clipPath>
 </defs>
</svg>
