<?xml version="1.0" encoding="utf-8" standalone="no"?>
<!DOCTYPE svg PUBLIC "-//W3C//DTD SVG 1.1//EN"
  "http://www.w3.org/Graphics/SVG/1.1/DTD/svg11.dtd">
<svg xmlns:xlink="http://www.w3.org/1999/xlink" width="1166.4pt" height="252pt" viewBox="0 0 1166.4 252" xmlns="http://www.w3.org/2000/svg" version="1.1">
 <metadata>
  <rdf:RDF xmlns:dc="http://purl.org/dc/elements/1.1/" xmlns:cc="http://creativecommons.org/ns#" xmlns:rdf="http://www.w3.org/1999/02/22-rdf-syntax-ns#">
   <cc:Work>
    <dc:type rdf:resource="http://purl.org/dc/dcmitype/StillImage"/>
    <dc:date>2025-09-07T00:54:23.757776</dc:date>
    <dc:format>image/svg+xml</dc:format>
    <dc:creator>
     <cc:Agent>
      <dc:title>Matplotlib v3.10.5, https://matplotlib.org/</dc:title>
     </cc:Agent>
    </dc:creator>
   </cc:Work>
  </rdf:RDF>
 </metadata>
 <defs>
  <style type="text/css">*{stroke-linejoin: round; stroke-linecap: butt}</style>
 </defs>
 <g id="figure_1">
  <g id="patch_1">
   <path d="M 0 252 
L 1166.4 252 
L 1166.4 0 
L 0 0 
z
" style="fill: #ffffff"/>
  </g>
  <g id="axes_1">
   <g id="patch_2">
    <path d="M 145.8 224.28 
L 1049.76 224.28 
L 1049.76 30.24 
L 145.8 30.24 
z
" style="fill: #ffffff"/>
   </g>
   <g id="matplotlib.axis_1">
    <g id="xtick_1">
     <g id="line2d_1">
      <defs>
       <path id="m30eb0c3434" d="M 0 0 
L 0 3.5 
" style="stroke: #000000; stroke-width: 0.8"/>
      </defs>
      <g>
       <use xlink:href="#m30eb0c3434" x="188.375134" y="224.28" style="stroke: #000000; stroke-width: 0.8"/>
      </g>
     </g>
     <g id="text_1">
      <!-- 2024-03 -->
      <g transform="translate(167.483728 238.878438) scale(0.1 -0.1)">
       <defs>
        <path id="DejaVuSans-32" d="M 1228 531 
L 3431 531 
L 3431 0 
L 469 0 
L 469 531 
Q 828 903 1448 1529 
Q 2069 2156 2228 2338 
Q 2531 2678 2651 2914 
Q 2772 3150 2772 3378 
Q 2772 3750 2511 3984 
Q 2250 4219 1831 4219 
Q 1534 4219 1204 4116 
Q 875 4013 500 3803 
L 500 4441 
Q 881 4594 1212 4672 
Q 1544 4750 1819 4750 
Q 2544 4750 2975 4387 
Q 3406 4025 3406 3419 
Q 3406 3131 3298 2873 
Q 3191 2616 2906 2266 
Q 2828 2175 2409 1742 
Q 1991 1309 1228 531 
z
" transform="scale(0.015625)"/>
        <path id="DejaVuSans-30" d="M 2034 4250 
Q 1547 4250 1301 3770 
Q 1056 3291 1056 2328 
Q 1056 1369 1301 889 
Q 1547 409 2034 409 
Q 2525 409 2770 889 
Q 3016 1369 3016 2328 
Q 3016 3291 2770 3770 
Q 2525 4250 2034 4250 
z
M 2034 4750 
Q 2819 4750 3233 4129 
Q 3647 3509 3647 2328 
Q 3647 1150 3233 529 
Q 2819 -91 2034 -91 
Q 1250 -91 836 529 
Q 422 1150 422 2328 
Q 422 3509 836 4129 
Q 1250 4750 2034 4750 
z
" transform="scale(0.015625)"/>
        <path id="DejaVuSans-34" d="M 2419 4116 
L 825 1625 
L 2419 1625 
L 2419 4116 
z
M 2253 4666 
L 3047 4666 
L 3047 1625 
L 3713 1625 
L 3713 1100 
L 3047 1100 
L 3047 0 
L 2419 0 
L 2419 1100 
L 313 1100 
L 313 1709 
L 2253 4666 
z
" transform="scale(0.015625)"/>
        <path id="DejaVuSans-2d" d="M 313 2009 
L 1997 2009 
L 1997 1497 
L 313 1497 
L 313 2009 
z
" transform="scale(0.015625)"/>
        <path id="DejaVuSans-33" d="M 2597 2516 
Q 3050 2419 3304 2112 
Q 3559 1806 3559 1356 
Q 3559 666 3084 287 
Q 2609 -91 1734 -91 
Q 1441 -91 1130 -33 
Q 819 25 488 141 
L 488 750 
Q 750 597 1062 519 
Q 1375 441 1716 441 
Q 2309 441 2620 675 
Q 2931 909 2931 1356 
Q 2931 1769 2642 2001 
Q 2353 2234 1838 2234 
L 1294 2234 
L 1294 2753 
L 1863 2753 
Q 2328 2753 2575 2939 
Q 2822 3125 2822 3475 
Q 2822 3834 2567 4026 
Q 2313 4219 1838 4219 
Q 1578 4219 1281 4162 
Q 984 4106 628 3988 
L 628 4550 
Q 988 4650 1302 4700 
Q 1616 4750 1894 4750 
Q 2613 4750 3031 4423 
Q 3450 4097 3450 3541 
Q 3450 3153 3228 2886 
Q 3006 2619 2597 2516 
z
" transform="scale(0.015625)"/>
       </defs>
       <use xlink:href="#DejaVuSans-32"/>
       <use xlink:href="#DejaVuSans-30" transform="translate(63.623047 0)"/>
       <use xlink:href="#DejaVuSans-32" transform="translate(127.246094 0)"/>
       <use xlink:href="#DejaVuSans-34" transform="translate(190.869141 0)"/>
       <use xlink:href="#DejaVuSans-2d" transform="translate(254.492188 0)"/>
       <use xlink:href="#DejaVuSans-30" transform="translate(290.576172 0)"/>
       <use xlink:href="#DejaVuSans-33" transform="translate(354.199219 0)"/>
      </g>
     </g>
    </g>
    <g id="xtick_2">
     <g id="line2d_2">
      <g>
       <use xlink:href="#m30eb0c3434" x="279.023761" y="224.28" style="stroke: #000000; stroke-width: 0.8"/>
      </g>
     </g>
     <g id="text_2">
      <!-- 2024-05 -->
      <g transform="translate(258.132355 238.878438) scale(0.1 -0.1)">
       <defs>
        <path id="DejaVuSans-35" d="M 691 4666 
L 3169 4666 
L 3169 4134 
L 1269 4134 
L 1269 2991 
Q 1406 3038 1543 3061 
Q 1681 3084 1819 3084 
Q 2600 3084 3056 2656 
Q 3513 2228 3513 1497 
Q 3513 744 3044 326 
Q 2575 -91 1722 -91 
Q 1428 -91 1123 -41 
Q 819 9 494 109 
L 494 744 
Q 775 591 1075 516 
Q 1375 441 1709 441 
Q 2250 441 2565 725 
Q 2881 1009 2881 1497 
Q 2881 1984 2565 2268 
Q 2250 2553 1709 2553 
Q 1456 2553 1204 2497 
Q 953 2441 691 2322 
L 691 4666 
z
" transform="scale(0.015625)"/>
       </defs>
       <use xlink:href="#DejaVuSans-32"/>
       <use xlink:href="#DejaVuSans-30" transform="translate(63.623047 0)"/>
       <use xlink:href="#DejaVuSans-32" transform="translate(127.246094 0)"/>
       <use xlink:href="#DejaVuSans-34" transform="translate(190.869141 0)"/>
       <use xlink:href="#DejaVuSans-2d" transform="translate(254.492188 0)"/>
       <use xlink:href="#DejaVuSans-30" transform="translate(290.576172 0)"/>
       <use xlink:href="#DejaVuSans-35" transform="translate(354.199219 0)"/>
      </g>
     </g>
    </g>
    <g id="xtick_3">
     <g id="line2d_3">
      <g>
       <use xlink:href="#m30eb0c3434" x="369.672389" y="224.28" style="stroke: #000000; stroke-width: 0.8"/>
      </g>
     </g>
     <g id="text_3">
      <!-- 2024-07 -->
      <g transform="translate(348.780982 238.878438) scale(0.1 -0.1)">
       <defs>
        <path id="DejaVuSans-37" d="M 525 4666 
L 3525 4666 
L 3525 4397 
L 1831 0 
L 1172 0 
L 2766 4134 
L 525 4134 
L 525 4666 
z
" transform="scale(0.015625)"/>
       </defs>
       <use xlink:href="#DejaVuSans-32"/>
       <use xlink:href="#DejaVuSans-30" transform="translate(63.623047 0)"/>
       <use xlink:href="#DejaVuSans-32" transform="translate(127.246094 0)"/>
       <use xlink:href="#DejaVuSans-34" transform="translate(190.869141 0)"/>
       <use xlink:href="#DejaVuSans-2d" transform="translate(254.492188 0)"/>
       <use xlink:href="#DejaVuSans-30" transform="translate(290.576172 0)"/>
       <use xlink:href="#DejaVuSans-37" transform="translate(354.199219 0)"/>
      </g>
     </g>
    </g>
    <g id="xtick_4">
     <g id="line2d_4">
      <g>
       <use xlink:href="#m30eb0c3434" x="461.807059" y="224.28" style="stroke: #000000; stroke-width: 0.8"/>
      </g>
     </g>
     <g id="text_4">
      <!-- 2024-09 -->
      <g transform="translate(440.915653 238.878438) scale(0.1 -0.1)">
       <defs>
        <path id="DejaVuSans-39" d="M 703 97 
L 703 672 
Q 941 559 1184 500 
Q 1428 441 1663 441 
Q 2288 441 2617 861 
Q 2947 1281 2994 2138 
Q 2813 1869 2534 1725 
Q 2256 1581 1919 1581 
Q 1219 1581 811 2004 
Q 403 2428 403 3163 
Q 403 3881 828 4315 
Q 1253 4750 1959 4750 
Q 2769 4750 3195 4129 
Q 3622 3509 3622 2328 
Q 3622 1225 3098 567 
Q 2575 -91 1691 -91 
Q 1453 -91 1209 -44 
Q 966 3 703 97 
z
M 1959 2075 
Q 2384 2075 2632 2365 
Q 2881 2656 2881 3163 
Q 2881 3666 2632 3958 
Q 2384 4250 1959 4250 
Q 1534 4250 1286 3958 
Q 1038 3666 1038 3163 
Q 1038 2656 1286 2365 
Q 1534 2075 1959 2075 
z
" transform="scale(0.015625)"/>
       </defs>
       <use xlink:href="#DejaVuSans-32"/>
       <use xlink:href="#DejaVuSans-30" transform="translate(63.623047 0)"/>
       <use xlink:href="#DejaVuSans-32" transform="translate(127.246094 0)"/>
       <use xlink:href="#DejaVuSans-34" transform="translate(190.869141 0)"/>
       <use xlink:href="#DejaVuSans-2d" transform="translate(254.492188 0)"/>
       <use xlink:href="#DejaVuSans-30" transform="translate(290.576172 0)"/>
       <use xlink:href="#DejaVuSans-39" transform="translate(354.199219 0)"/>
      </g>
     </g>
    </g>
    <g id="xtick_5">
     <g id="line2d_5">
      <g>
       <use xlink:href="#m30eb0c3434" x="552.455686" y="224.28" style="stroke: #000000; stroke-width: 0.8"/>
      </g>
     </g>
     <g id="text_5">
      <!-- 2024-11 -->
      <g transform="translate(531.56428 238.878438) scale(0.1 -0.1)">
       <defs>
        <path id="DejaVuSans-31" d="M 794 531 
L 1825 531 
L 1825 4091 
L 703 3866 
L 703 4441 
L 1819 4666 
L 2450 4666 
L 2450 531 
L 3481 531 
L 3481 0 
L 794 0 
L 794 531 
z
" transform="scale(0.015625)"/>
       </defs>
       <use xlink:href="#DejaVuSans-32"/>
       <use xlink:href="#DejaVuSans-30" transform="translate(63.623047 0)"/>
       <use xlink:href="#DejaVuSans-32" transform="translate(127.246094 0)"/>
       <use xlink:href="#DejaVuSans-34" transform="translate(190.869141 0)"/>
       <use xlink:href="#DejaVuSans-2d" transform="translate(254.492188 0)"/>
       <use xlink:href="#DejaVuSans-31" transform="translate(290.576172 0)"/>
       <use xlink:href="#DejaVuSans-31" transform="translate(354.199219 0)"/>
      </g>
     </g>
    </g>
    <g id="xtick_6">
     <g id="line2d_6">
      <g>
       <use xlink:href="#m30eb0c3434" x="643.104314" y="224.28" style="stroke: #000000; stroke-width: 0.8"/>
      </g>
     </g>
     <g id="text_6">
      <!-- 2025-01 -->
      <g transform="translate(622.212907 238.878438) scale(0.1 -0.1)">
       <use xlink:href="#DejaVuSans-32"/>
       <use xlink:href="#DejaVuSans-30" transform="translate(63.623047 0)"/>
       <use xlink:href="#DejaVuSans-32" transform="translate(127.246094 0)"/>
       <use xlink:href="#DejaVuSans-35" transform="translate(190.869141 0)"/>
       <use xlink:href="#DejaVuSans-2d" transform="translate(254.492188 0)"/>
       <use xlink:href="#DejaVuSans-30" transform="translate(290.576172 0)"/>
       <use xlink:href="#DejaVuSans-31" transform="translate(354.199219 0)"/>
      </g>
     </g>
    </g>
    <g id="xtick_7">
     <g id="line2d_7">
      <g>
       <use xlink:href="#m30eb0c3434" x="730.780855" y="224.28" style="stroke: #000000; stroke-width: 0.8"/>
      </g>
     </g>
     <g id="text_7">
      <!-- 2025-03 -->
      <g transform="translate(709.889449 238.878438) scale(0.1 -0.1)">
       <use xlink:href="#DejaVuSans-32"/>
       <use xlink:href="#DejaVuSans-30" transform="translate(63.623047 0)"/>
       <use xlink:href="#DejaVuSans-32" transform="translate(127.246094 0)"/>
       <use xlink:href="#DejaVuSans-35" transform="translate(190.869141 0)"/>
       <use xlink:href="#DejaVuSans-2d" transform="translate(254.492188 0)"/>
       <use xlink:href="#DejaVuSans-30" transform="translate(290.576172 0)"/>
       <use xlink:href="#DejaVuSans-33" transform="translate(354.199219 0)"/>
      </g>
     </g>
    </g>
    <g id="xtick_8">
     <g id="line2d_8">
      <g>
       <use xlink:href="#m30eb0c3434" x="821.429482" y="224.28" style="stroke: #000000; stroke-width: 0.8"/>
      </g>
     </g>
     <g id="text_8">
      <!-- 2025-05 -->
      <g transform="translate(800.538076 238.878438) scale(0.1 -0.1)">
       <use xlink:href="#DejaVuSans-32"/>
       <use xlink:href="#DejaVuSans-30" transform="translate(63.623047 0)"/>
       <use xlink:href="#DejaVuSans-32" transform="translate(127.246094 0)"/>
       <use xlink:href="#DejaVuSans-35" transform="translate(190.869141 0)"/>
       <use xlink:href="#DejaVuSans-2d" transform="translate(254.492188 0)"/>
       <use xlink:href="#DejaVuSans-30" transform="translate(290.576172 0)"/>
       <use xlink:href="#DejaVuSans-35" transform="translate(354.199219 0)"/>
      </g>
     </g>
    </g>
    <g id="xtick_9">
     <g id="line2d_9">
      <g>
       <use xlink:href="#m30eb0c3434" x="912.078109" y="224.28" style="stroke: #000000; stroke-width: 0.8"/>
      </g>
     </g>
     <g id="text_9">
      <!-- 2025-07 -->
      <g transform="translate(891.186703 238.878438) scale(0.1 -0.1)">
       <use xlink:href="#DejaVuSans-32"/>
       <use xlink:href="#DejaVuSans-30" transform="translate(63.623047 0)"/>
       <use xlink:href="#DejaVuSans-32" transform="translate(127.246094 0)"/>
       <use xlink:href="#DejaVuSans-35" transform="translate(190.869141 0)"/>
       <use xlink:href="#DejaVuSans-2d" transform="translate(254.492188 0)"/>
       <use xlink:href="#DejaVuSans-30" transform="translate(290.576172 0)"/>
       <use xlink:href="#DejaVuSans-37" transform="translate(354.199219 0)"/>
      </g>
     </g>
    </g>
    <g id="xtick_10">
     <g id="line2d_10">
      <g>
       <use xlink:href="#m30eb0c3434" x="1004.21278" y="224.28" style="stroke: #000000; stroke-width: 0.8"/>
      </g>
     </g>
     <g id="text_10">
      <!-- 2025-09 -->
      <g transform="translate(983.321374 238.878438) scale(0.1 -0.1)">
       <use xlink:href="#DejaVuSans-32"/>
       <use xlink:href="#DejaVuSans-30" transform="translate(63.623047 0)"/>
       <use xlink:href="#DejaVuSans-32" transform="translate(127.246094 0)"/>
       <use xlink:href="#DejaVuSans-35" transform="translate(190.869141 0)"/>
       <use xlink:href="#DejaVuSans-2d" transform="translate(254.492188 0)"/>
       <use xlink:href="#DejaVuSans-30" transform="translate(290.576172 0)"/>
       <use xlink:href="#DejaVuSans-39" transform="translate(354.199219 0)"/>
      </g>
     </g>
    </g>
   </g>
   <g id="matplotlib.axis_2">
    <g id="ytick_1">
     <g id="line2d_11">
      <defs>
       <path id="m1d4fdbbed7" d="M 0 0 
L -3.5 0 
" style="stroke: #000000; stroke-width: 0.8"/>
      </defs>
      <g>
       <use xlink:href="#m1d4fdbbed7" x="145.8" y="204.457417" style="stroke: #000000; stroke-width: 0.8"/>
      </g>
     </g>
     <g id="text_11">
      <!-- 20 -->
      <g transform="translate(126.075 208.256635) scale(0.1 -0.1)">
       <use xlink:href="#DejaVuSans-32"/>
       <use xlink:href="#DejaVuSans-30" transform="translate(63.623047 0)"/>
      </g>
     </g>
    </g>
    <g id="ytick_2">
     <g id="line2d_12">
      <g>
       <use xlink:href="#m1d4fdbbed7" x="145.8" y="178.94596" style="stroke: #000000; stroke-width: 0.8"/>
      </g>
     </g>
     <g id="text_12">
      <!-- 30 -->
      <g transform="translate(126.075 182.745179) scale(0.1 -0.1)">
       <use xlink:href="#DejaVuSans-33"/>
       <use xlink:href="#DejaVuSans-30" transform="translate(63.623047 0)"/>
      </g>
     </g>
    </g>
    <g id="ytick_3">
     <g id="line2d_13">
      <g>
       <use xlink:href="#m1d4fdbbed7" x="145.8" y="153.434504" style="stroke: #000000; stroke-width: 0.8"/>
      </g>
     </g>
     <g id="text_13">
      <!-- 40 -->
      <g transform="translate(126.075 157.233723) scale(0.1 -0.1)">
       <use xlink:href="#DejaVuSans-34"/>
       <use xlink:href="#DejaVuSans-30" transform="translate(63.623047 0)"/>
      </g>
     </g>
    </g>
    <g id="ytick_4">
     <g id="line2d_14">
      <g>
       <use xlink:href="#m1d4fdbbed7" x="145.8" y="127.923048" style="stroke: #000000; stroke-width: 0.8"/>
      </g>
     </g>
     <g id="text_14">
      <!-- 50 -->
      <g transform="translate(126.075 131.722267) scale(0.1 -0.1)">
       <use xlink:href="#DejaVuSans-35"/>
       <use xlink:href="#DejaVuSans-30" transform="translate(63.623047 0)"/>
      </g>
     </g>
    </g>
    <g id="ytick_5">
     <g id="line2d_15">
      <g>
       <use xlink:href="#m1d4fdbbed7" x="145.8" y="102.411592" style="stroke: #000000; stroke-width: 0.8"/>
      </g>
     </g>
     <g id="text_15">
      <!-- 60 -->
      <g transform="translate(126.075 106.210811) scale(0.1 -0.1)">
       <defs>
        <path id="DejaVuSans-36" d="M 2113 2584 
Q 1688 2584 1439 2293 
Q 1191 2003 1191 1497 
Q 1191 994 1439 701 
Q 1688 409 2113 409 
Q 2538 409 2786 701 
Q 3034 994 3034 1497 
Q 3034 2003 2786 2293 
Q 2538 2584 2113 2584 
z
M 3366 4563 
L 3366 3988 
Q 3128 4100 2886 4159 
Q 2644 4219 2406 4219 
Q 1781 4219 1451 3797 
Q 1122 3375 1075 2522 
Q 1259 2794 1537 2939 
Q 1816 3084 2150 3084 
Q 2853 3084 3261 2657 
Q 3669 2231 3669 1497 
Q 3669 778 3244 343 
Q 2819 -91 2113 -91 
Q 1303 -91 875 529 
Q 447 1150 447 2328 
Q 447 3434 972 4092 
Q 1497 4750 2381 4750 
Q 2619 4750 2861 4703 
Q 3103 4656 3366 4563 
z
" transform="scale(0.015625)"/>
       </defs>
       <use xlink:href="#DejaVuSans-36"/>
       <use xlink:href="#DejaVuSans-30" transform="translate(63.623047 0)"/>
      </g>
     </g>
    </g>
    <g id="ytick_6">
     <g id="line2d_16">
      <g>
       <use xlink:href="#m1d4fdbbed7" x="145.8" y="76.900136" style="stroke: #000000; stroke-width: 0.8"/>
      </g>
     </g>
     <g id="text_16">
      <!-- 70 -->
      <g transform="translate(126.075 80.699354) scale(0.1 -0.1)">
       <use xlink:href="#DejaVuSans-37"/>
       <use xlink:href="#DejaVuSans-30" transform="translate(63.623047 0)"/>
      </g>
     </g>
    </g>
    <g id="ytick_7">
     <g id="line2d_17">
      <g>
       <use xlink:href="#m1d4fdbbed7" x="145.8" y="51.388679" style="stroke: #000000; stroke-width: 0.8"/>
      </g>
     </g>
     <g id="text_17">
      <!-- 80 -->
      <g transform="translate(126.075 55.187898) scale(0.1 -0.1)">
       <defs>
        <path id="DejaVuSans-38" d="M 2034 2216 
Q 1584 2216 1326 1975 
Q 1069 1734 1069 1313 
Q 1069 891 1326 650 
Q 1584 409 2034 409 
Q 2484 409 2743 651 
Q 3003 894 3003 1313 
Q 3003 1734 2745 1975 
Q 2488 2216 2034 2216 
z
M 1403 2484 
Q 997 2584 770 2862 
Q 544 3141 544 3541 
Q 544 4100 942 4425 
Q 1341 4750 2034 4750 
Q 2731 4750 3128 4425 
Q 3525 4100 3525 3541 
Q 3525 3141 3298 2862 
Q 3072 2584 2669 2484 
Q 3125 2378 3379 2068 
Q 3634 1759 3634 1313 
Q 3634 634 3220 271 
Q 2806 -91 2034 -91 
Q 1263 -91 848 271 
Q 434 634 434 1313 
Q 434 1759 690 2068 
Q 947 2378 1403 2484 
z
M 1172 3481 
Q 1172 3119 1398 2916 
Q 1625 2713 2034 2713 
Q 2441 2713 2670 2916 
Q 2900 3119 2900 3481 
Q 2900 3844 2670 4047 
Q 2441 4250 2034 4250 
Q 1625 4250 1398 4047 
Q 1172 3844 1172 3481 
z
" transform="scale(0.015625)"/>
       </defs>
       <use xlink:href="#DejaVuSans-38"/>
       <use xlink:href="#DejaVuSans-30" transform="translate(63.623047 0)"/>
      </g>
     </g>
    </g>
   </g>
   <g id="line2d_18">
    <path d="M 186.889091 98.499828 
L 188.375134 110.012744 
L 192.833263 101.587306 
L 194.319306 100.11822 
L 195.805349 114.137498 
L 197.291392 92.862287 
L 198.777435 100.043724 
L 203.235565 105.434622 
L 204.721608 98.619356 
L 206.207651 117.730847 
L 207.693694 109.865275 
L 209.179737 129.214019 
L 213.637866 123.8585 
L 215.123909 116.478857 
L 216.609952 121.848898 
L 218.095995 128.24508 
L 219.582038 122.006185 
L 224.040168 99.616332 
L 225.526211 104.414007 
L 227.012254 112.064039 
L 228.498297 100.374197 
L 234.442469 71.832755 
L 235.928512 88.934955 
L 237.414555 86.212022 
L 238.900598 119.118715 
L 240.386641 55.854896 
L 244.844771 55.67884 
L 246.330814 58.572239 
L 247.816857 65.738908 
L 249.3029 55.128599 
L 250.788943 84.445756 
L 255.247072 106.210069 
L 256.733115 98.630364 
L 258.219158 119.65494 
L 259.705201 134.119316 
L 261.191244 156.929955 
L 265.649374 142.537256 
L 267.135417 139.812973 
L 268.62146 141.806578 
L 270.107503 177.75702 
L 271.593546 148.217119 
L 276.051675 144.672247 
L 277.537718 161.539215 
L 279.023761 158.122133 
L 280.509804 131.897771 
L 281.995847 120.453573 
L 286.453977 113.139401 
L 287.94002 106.453017 
L 289.426063 101.962149 
L 290.912106 80.56283 
L 292.398149 94.797583 
L 296.856278 104.368289 
L 298.342321 90.393517 
L 299.828364 81.401239 
L 301.314407 110.980156 
L 302.80045 111.97842 
L 307.25858 84.557634 
L 308.744623 103.312985 
L 310.230666 140.751387 
L 311.716709 168.057042 
L 313.202752 199.286996 
L 319.146924 182.145247 
L 320.632967 179.048628 
L 322.11901 208.477331 
L 323.605053 210.857937 
L 328.063183 186.34261 
L 329.549226 181.308037 
L 331.035269 159.00409 
L 332.521312 119.476789 
L 334.007355 130.433983 
L 338.465484 107.439342 
L 339.951527 103.93988 
L 341.43757 106.142156 
L 342.923613 112.505241 
L 344.409656 111.692496 
L 348.867786 116.782889 
L 350.353829 123.539859 
L 353.325915 91.246258 
L 354.811958 59.834978 
L 359.270087 91.456407 
L 360.75613 92.292476 
L 362.242173 76.169737 
L 363.728216 74.894473 
L 365.214259 95.126787 
L 369.672389 91.994401 
L 371.158432 85.756145 
L 372.644475 94.38834 
L 375.616561 76.422403 
L 381.560733 79.486813 
L 383.046776 73.006184 
L 384.532819 100.003329 
L 386.018862 109.984776 
L 390.476992 103.092296 
L 391.963035 104.423791 
L 393.449078 149.182604 
L 394.935121 180.790697 
L 396.421164 170.895042 
L 400.879293 197.991006 
L 402.365336 190.436654 
L 403.851379 197.109414 
L 405.337422 215.139822 
L 406.823465 196.107915 
L 411.281595 192.139379 
L 412.767638 197.59784 
L 414.253681 158.532295 
L 415.739724 164.864347 
L 417.225767 190.764935 
L 421.683896 199.584491 
L 424.655982 182.052368 
L 426.142025 170.556984 
L 427.628068 165.915241 
L 432.086198 179.297059 
L 433.572241 156.97568 
L 435.058284 155.14312 
L 436.544327 140.317813 
L 438.03037 143.475124 
L 442.488499 136.82123 
L 443.974542 150.671034 
L 445.460585 139.47147 
L 448.432671 48.0376 
L 452.890801 61.881239 
L 454.376844 80.347593 
L 455.862887 104.336227 
L 457.34893 103.648719 
L 458.834973 83.319873 
L 464.779145 104.134433 
L 466.265188 116.174832 
L 467.751231 126.732394 
L 469.237274 146.90101 
L 473.695404 136.705099 
L 475.181447 126.000366 
L 476.66749 116.249912 
L 478.153533 98.226157 
L 479.639576 101.882468 
L 484.097705 102.081343 
L 485.583748 89.733541 
L 487.069791 82.703759 
L 488.555834 78.92628 
L 490.041877 87.716117 
L 494.500007 73.85154 
L 495.98605 60.013235 
L 497.472093 75.496423 
L 498.958136 45.213799 
L 500.444179 73.882145 
L 504.902308 96.080739 
L 506.388351 124.596416 
L 507.874394 141.350135 
L 509.360437 152.438678 
L 510.84648 120.131117 
L 515.30461 153.569489 
L 516.790653 142.846938 
L 518.276696 147.438644 
L 519.762739 148.645421 
L 521.248782 149.182595 
L 525.706911 153.871068 
L 527.192954 148.311978 
L 528.678997 146.255933 
L 530.16504 129.989525 
L 531.651083 115.346966 
L 536.109213 108.488567 
L 537.595256 103.798492 
L 539.081299 115.532283 
L 540.567342 128.575078 
L 542.053385 85.564665 
L 546.511514 91.413756 
L 547.997557 91.459714 
L 549.4836 89.567565 
L 550.969643 140.584667 
L 552.455686 89.652171 
L 556.913816 99.751094 
L 559.885902 74.266666 
L 561.371945 71.957262 
L 562.857988 78.965047 
L 567.316117 84.629337 
L 568.80216 63.045249 
L 570.288203 58.727597 
L 571.774246 70.208723 
L 573.260289 97.981414 
L 577.718419 104.442157 
L 579.204462 102.691939 
L 580.690505 90.019251 
L 582.176548 126.737785 
L 583.662591 124.32763 
L 588.12072 122.757189 
L 589.606763 125.831936 
L 591.092806 139.840914 
L 594.064892 128.72009 
L 598.523022 117.615099 
L 600.009065 116.021213 
L 601.495108 117.15179 
L 602.981151 103.744462 
L 604.467194 59.402412 
L 608.925323 59.531717 
L 610.411366 68.193641 
L 613.383452 39.06 
L 614.869495 40.285131 
L 619.327625 39.280551 
L 620.813668 54.876316 
L 622.299711 89.588402 
L 623.785754 88.477605 
L 625.271797 90.634639 
L 631.215969 97.251821 
L 634.188055 109.457057 
L 635.674098 137.951524 
L 640.132228 142.056729 
L 641.618271 144.269122 
L 644.590357 160.181872 
L 646.0764 142.310118 
L 650.534529 127.491058 
L 652.020572 159.064046 
L 653.506615 154.957008 
L 656.478701 133.661678 
L 660.936831 146.689409 
L 662.422874 156.553452 
L 663.908917 133.762985 
L 665.39496 157.60972 
L 666.881003 131.523062 
L 672.825175 106.163273 
L 674.311218 86.919338 
L 675.797261 78.233088 
L 677.283304 82.284433 
L 681.741434 89.713725 
L 683.227477 91.389005 
L 684.71352 68.989805 
L 686.199563 82.055236 
L 687.685606 58.915447 
L 692.143735 57.659069 
L 693.629778 47.118962 
L 695.115821 85.623899 
L 696.601864 67.92517 
L 698.087907 118.407406 
L 702.546036 120.586634 
L 704.03208 135.41076 
L 705.518123 147.751737 
L 707.004166 141.331262 
L 708.490209 147.578665 
L 714.434381 162.005493 
L 715.920424 159.645249 
L 717.406467 162.566762 
L 718.89251 185.729249 
L 723.350639 190.748212 
L 724.836683 209.736386 
L 726.322726 195.347901 
L 727.808769 214.701189 
L 729.294812 184.417953 
L 733.752941 214.647211 
L 735.238984 215.46 
L 736.725027 189.042397 
L 738.21107 204.924593 
L 739.697113 204.676512 
L 744.155242 207.31568 
L 745.641286 199.385602 
L 747.127329 186.579364 
L 748.613372 184.818572 
L 750.099415 164.796272 
L 754.557544 168.843078 
L 756.043587 178.267846 
L 757.52963 160.516129 
L 759.015673 173.30529 
L 760.501716 154.234908 
L 764.959845 129.342126 
L 766.445889 135.203385 
L 767.931932 126.65775 
L 769.417975 121.534584 
L 770.904018 132.963285 
L 775.362147 145.298517 
L 776.84819 146.52516 
L 778.334233 121.902992 
L 779.820276 170.558516 
L 781.306319 177.495282 
L 785.764448 162.383171 
L 787.250492 175.375565 
L 788.736535 133.585384 
L 790.222578 147.976373 
L 791.708621 153.434504 
L 796.16675 160.541782 
L 797.652793 158.384084 
L 799.138836 164.128801 
L 800.624879 156.970466 
L 806.569051 160.029295 
L 808.055095 153.396965 
L 809.541138 147.844573 
L 811.027181 116.00442 
L 812.513224 99.955261 
L 816.971353 107.857125 
L 818.457396 99.389381 
L 819.943439 142.788431 
L 821.429482 106.399859 
L 822.915525 114.831707 
L 827.373654 117.274363 
L 828.859698 113.950528 
L 830.345741 89.645214 
L 831.831784 77.821373 
L 833.317827 55.379467 
L 837.775956 45.653497 
L 839.261999 49.877006 
L 840.748042 61.409239 
L 842.234085 85.015031 
L 843.720128 79.606303 
L 848.178257 77.507162 
L 849.664301 74.146998 
L 851.150344 96.106583 
L 852.636387 91.173993 
L 854.12243 85.50058 
L 860.066602 71.750789 
L 861.552645 82.851523 
L 864.524731 92.166341 
L 868.98286 136.770714 
L 870.468904 154.762174 
L 871.954947 142.033799 
L 873.44099 112.660711 
L 874.927033 91.750057 
L 879.385162 83.372726 
L 880.871205 69.416121 
L 882.357248 78.184752 
L 883.843291 83.383411 
L 885.329334 77.436341 
L 889.787463 80.372088 
L 891.273506 80.242447 
L 892.75955 97.226446 
L 895.731636 108.337445 
L 900.189765 120.199987 
L 901.675808 100.976497 
L 903.161851 109.343688 
L 904.647894 96.282829 
L 906.133937 94.958068 
L 910.592066 119.865032 
L 912.078109 118.502504 
L 913.564153 103.23456 
L 915.050196 93.936767 
L 920.994368 88.820201 
L 922.480411 116.744668 
L 923.966454 102.737885 
L 925.452497 94.41695 
L 926.93854 75.087273 
L 931.396669 67.677979 
L 932.882712 75.143434 
L 935.854799 99.8903 
L 937.340842 114.468449 
L 941.798971 79.471847 
L 943.285014 94.620436 
L 944.771057 88.5698 
L 946.2571 87.130657 
L 947.743143 92.012353 
L 952.201272 60.874353 
L 953.687315 83.185549 
L 955.173359 86.953798 
L 956.659402 83.068258 
L 958.145445 159.253934 
L 962.603574 167.835657 
L 964.089617 154.145641 
L 965.57566 131.646155 
L 967.061703 135.231527 
L 968.547746 144.911843 
L 973.005875 143.922812 
L 974.491918 145.845169 
L 975.977962 148.438132 
L 977.464005 129.023521 
L 978.950048 132.238698 
L 983.408177 126.715378 
L 984.89422 133.134362 
L 986.380263 152.416703 
L 987.866306 102.51045 
L 989.352349 73.009231 
L 993.810478 81.188279 
L 995.296521 101.53755 
L 996.782565 102.896291 
L 998.268608 93.027881 
L 999.754651 98.84696 
L 1005.698823 114.677923 
L 1007.184866 122.685961 
L 1008.670909 112.187654 
L 1008.670909 112.187654 
" clip-path="url(#p7370881321)" style="fill: none; stroke: #1f77b4; stroke-width: 1.5; stroke-linecap: square"/>
   </g>
   <g id="patch_3">
    <path d="M 145.8 224.28 
L 145.8 30.24 
" style="fill: none; stroke: #000000; stroke-width: 0.8; stroke-linejoin: miter; stroke-linecap: square"/>
   </g>
   <g id="patch_4">
    <path d="M 145.8 224.28 
L 1049.76 224.28 
" style="fill: none; stroke: #000000; stroke-width: 0.8; stroke-linejoin: miter; stroke-linecap: square"/>
   </g>
  </g>
 </g>
 <defs>
  <clipPath id="p7370881321">
   <rect x="145.8" y="30.24" width="903.96" height="194.04"/>
  </clipPath>
 </defs>
</svg>
