<?xml version="1.0" encoding="utf-8" standalone="no"?>
<!DOCTYPE svg PUBLIC "-//W3C//DTD SVG 1.1//EN"
  "http://www.w3.org/Graphics/SVG/1.1/DTD/svg11.dtd">
<svg xmlns:xlink="http://www.w3.org/1999/xlink" width="756pt" height="252pt" viewBox="0 0 756 252" xmlns="http://www.w3.org/2000/svg" version="1.1">
 <metadata>
  <rdf:RDF xmlns:dc="http://purl.org/dc/elements/1.1/" xmlns:cc="http://creativecommons.org/ns#" xmlns:rdf="http://www.w3.org/1999/02/22-rdf-syntax-ns#">
   <cc:Work>
    <dc:type rdf:resource="http://purl.org/dc/dcmitype/StillImage"/>
    <dc:date>2025-09-05T15:16:56.413186</dc:date>
    <dc:format>image/svg+xml</dc:format>
    <dc:creator>
     <cc:Agent>
      <dc:title>Matplotlib v3.10.5, https://matplotlib.org/</dc:title>
     </cc:Agent>
    </dc:creator>
   </cc:Work>
  </rdf:RDF>
 </metadata>
 <defs>
  <style type="text/css">*{stroke-linejoin: round; stroke-linecap: butt}</style>
 </defs>
 <g id="figure_1">
  <g id="patch_1">
   <path d="M 0 252 
L 756 252 
L 756 0 
L 0 0 
z
" style="fill: #ffffff"/>
  </g>
  <g id="axes_1">
   <g id="patch_2">
    <path d="M 94.5 224.28 
L 680.4 224.28 
L 680.4 30.24 
L 94.5 30.24 
z
" style="fill: #ffffff"/>
   </g>
   <g id="matplotlib.axis_1">
    <g id="xtick_1">
     <g id="line2d_1">
      <defs>
       <path id="m0ba346e321" d="M 0 0 
L 0 3.5 
" style="stroke: #000000; stroke-width: 0.8"/>
      </defs>
      <g>
       <use xlink:href="#m0ba346e321" x="115.675543" y="224.28" style="stroke: #000000; stroke-width: 0.8"/>
      </g>
     </g>
     <g id="text_1">
      <!-- 2020 -->
      <g transform="translate(102.950543 238.878438) scale(0.1 -0.1)">
       <defs>
        <path id="DejaVuSans-32" d="M 1228 531 
L 3431 531 
L 3431 0 
L 469 0 
L 469 531 
Q 828 903 1448 1529 
Q 2069 2156 2228 2338 
Q 2531 2678 2651 2914 
Q 2772 3150 2772 3378 
Q 2772 3750 2511 3984 
Q 2250 4219 1831 4219 
Q 1534 4219 1204 4116 
Q 875 4013 500 3803 
L 500 4441 
Q 881 4594 1212 4672 
Q 1544 4750 1819 4750 
Q 2544 4750 2975 4387 
Q 3406 4025 3406 3419 
Q 3406 3131 3298 2873 
Q 3191 2616 2906 2266 
Q 2828 2175 2409 1742 
Q 1991 1309 1228 531 
z
" transform="scale(0.015625)"/>
        <path id="DejaVuSans-30" d="M 2034 4250 
Q 1547 4250 1301 3770 
Q 1056 3291 1056 2328 
Q 1056 1369 1301 889 
Q 1547 409 2034 409 
Q 2525 409 2770 889 
Q 3016 1369 3016 2328 
Q 3016 3291 2770 3770 
Q 2525 4250 2034 4250 
z
M 2034 4750 
Q 2819 4750 3233 4129 
Q 3647 3509 3647 2328 
Q 3647 1150 3233 529 
Q 2819 -91 2034 -91 
Q 1250 -91 836 529 
Q 422 1150 422 2328 
Q 422 3509 836 4129 
Q 1250 4750 2034 4750 
z
" transform="scale(0.015625)"/>
       </defs>
       <use xlink:href="#DejaVuSans-32"/>
       <use xlink:href="#DejaVuSans-30" transform="translate(63.623047 0)"/>
       <use xlink:href="#DejaVuSans-32" transform="translate(127.246094 0)"/>
       <use xlink:href="#DejaVuSans-30" transform="translate(190.869141 0)"/>
      </g>
     </g>
    </g>
    <g id="xtick_2">
     <g id="line2d_2">
      <g>
       <use xlink:href="#m0ba346e321" x="210.770621" y="224.28" style="stroke: #000000; stroke-width: 0.8"/>
      </g>
     </g>
     <g id="text_2">
      <!-- 2021 -->
      <g transform="translate(198.045621 238.878438) scale(0.1 -0.1)">
       <defs>
        <path id="DejaVuSans-31" d="M 794 531 
L 1825 531 
L 1825 4091 
L 703 3866 
L 703 4441 
L 1819 4666 
L 2450 4666 
L 2450 531 
L 3481 531 
L 3481 0 
L 794 0 
L 794 531 
z
" transform="scale(0.015625)"/>
       </defs>
       <use xlink:href="#DejaVuSans-32"/>
       <use xlink:href="#DejaVuSans-30" transform="translate(63.623047 0)"/>
       <use xlink:href="#DejaVuSans-32" transform="translate(127.246094 0)"/>
       <use xlink:href="#DejaVuSans-31" transform="translate(190.869141 0)"/>
      </g>
     </g>
    </g>
    <g id="xtick_3">
     <g id="line2d_3">
      <g>
       <use xlink:href="#m0ba346e321" x="305.605876" y="224.28" style="stroke: #000000; stroke-width: 0.8"/>
      </g>
     </g>
     <g id="text_3">
      <!-- 2022 -->
      <g transform="translate(292.880876 238.878438) scale(0.1 -0.1)">
       <use xlink:href="#DejaVuSans-32"/>
       <use xlink:href="#DejaVuSans-30" transform="translate(63.623047 0)"/>
       <use xlink:href="#DejaVuSans-32" transform="translate(127.246094 0)"/>
       <use xlink:href="#DejaVuSans-32" transform="translate(190.869141 0)"/>
      </g>
     </g>
    </g>
    <g id="xtick_4">
     <g id="line2d_4">
      <g>
       <use xlink:href="#m0ba346e321" x="400.441131" y="224.28" style="stroke: #000000; stroke-width: 0.8"/>
      </g>
     </g>
     <g id="text_4">
      <!-- 2023 -->
      <g transform="translate(387.716131 238.878438) scale(0.1 -0.1)">
       <defs>
        <path id="DejaVuSans-33" d="M 2597 2516 
Q 3050 2419 3304 2112 
Q 3559 1806 3559 1356 
Q 3559 666 3084 287 
Q 2609 -91 1734 -91 
Q 1441 -91 1130 -33 
Q 819 25 488 141 
L 488 750 
Q 750 597 1062 519 
Q 1375 441 1716 441 
Q 2309 441 2620 675 
Q 2931 909 2931 1356 
Q 2931 1769 2642 2001 
Q 2353 2234 1838 2234 
L 1294 2234 
L 1294 2753 
L 1863 2753 
Q 2328 2753 2575 2939 
Q 2822 3125 2822 3475 
Q 2822 3834 2567 4026 
Q 2313 4219 1838 4219 
Q 1578 4219 1281 4162 
Q 984 4106 628 3988 
L 628 4550 
Q 988 4650 1302 4700 
Q 1616 4750 1894 4750 
Q 2613 4750 3031 4423 
Q 3450 4097 3450 3541 
Q 3450 3153 3228 2886 
Q 3006 2619 2597 2516 
z
" transform="scale(0.015625)"/>
       </defs>
       <use xlink:href="#DejaVuSans-32"/>
       <use xlink:href="#DejaVuSans-30" transform="translate(63.623047 0)"/>
       <use xlink:href="#DejaVuSans-32" transform="translate(127.246094 0)"/>
       <use xlink:href="#DejaVuSans-33" transform="translate(190.869141 0)"/>
      </g>
     </g>
    </g>
    <g id="xtick_5">
     <g id="line2d_5">
      <g>
       <use xlink:href="#m0ba346e321" x="495.276386" y="224.28" style="stroke: #000000; stroke-width: 0.8"/>
      </g>
     </g>
     <g id="text_5">
      <!-- 2024 -->
      <g transform="translate(482.551386 238.878438) scale(0.1 -0.1)">
       <defs>
        <path id="DejaVuSans-34" d="M 2419 4116 
L 825 1625 
L 2419 1625 
L 2419 4116 
z
M 2253 4666 
L 3047 4666 
L 3047 1625 
L 3713 1625 
L 3713 1100 
L 3047 1100 
L 3047 0 
L 2419 0 
L 2419 1100 
L 313 1100 
L 313 1709 
L 2253 4666 
z
" transform="scale(0.015625)"/>
       </defs>
       <use xlink:href="#DejaVuSans-32"/>
       <use xlink:href="#DejaVuSans-30" transform="translate(63.623047 0)"/>
       <use xlink:href="#DejaVuSans-32" transform="translate(127.246094 0)"/>
       <use xlink:href="#DejaVuSans-34" transform="translate(190.869141 0)"/>
      </g>
     </g>
    </g>
    <g id="xtick_6">
     <g id="line2d_6">
      <g>
       <use xlink:href="#m0ba346e321" x="590.371463" y="224.28" style="stroke: #000000; stroke-width: 0.8"/>
      </g>
     </g>
     <g id="text_6">
      <!-- 2025 -->
      <g transform="translate(577.646463 238.878438) scale(0.1 -0.1)">
       <defs>
        <path id="DejaVuSans-35" d="M 691 4666 
L 3169 4666 
L 3169 4134 
L 1269 4134 
L 1269 2991 
Q 1406 3038 1543 3061 
Q 1681 3084 1819 3084 
Q 2600 3084 3056 2656 
Q 3513 2228 3513 1497 
Q 3513 744 3044 326 
Q 2575 -91 1722 -91 
Q 1428 -91 1123 -41 
Q 819 9 494 109 
L 494 744 
Q 775 591 1075 516 
Q 1375 441 1709 441 
Q 2250 441 2565 725 
Q 2881 1009 2881 1497 
Q 2881 1984 2565 2268 
Q 2250 2553 1709 2553 
Q 1456 2553 1204 2497 
Q 953 2441 691 2322 
L 691 4666 
z
" transform="scale(0.015625)"/>
       </defs>
       <use xlink:href="#DejaVuSans-32"/>
       <use xlink:href="#DejaVuSans-30" transform="translate(63.623047 0)"/>
       <use xlink:href="#DejaVuSans-32" transform="translate(127.246094 0)"/>
       <use xlink:href="#DejaVuSans-35" transform="translate(190.869141 0)"/>
      </g>
     </g>
    </g>
   </g>
   <g id="matplotlib.axis_2">
    <g id="ytick_1">
     <g id="line2d_7">
      <defs>
       <path id="mbe56dffe29" d="M 0 0 
L -3.5 0 
" style="stroke: #000000; stroke-width: 0.8"/>
      </defs>
      <g>
       <use xlink:href="#mbe56dffe29" x="94.5" y="206.401099" style="stroke: #000000; stroke-width: 0.8"/>
      </g>
     </g>
     <g id="text_7">
      <!-- 150 -->
      <g transform="translate(68.4125 210.200318) scale(0.1 -0.1)">
       <use xlink:href="#DejaVuSans-31"/>
       <use xlink:href="#DejaVuSans-35" transform="translate(63.623047 0)"/>
       <use xlink:href="#DejaVuSans-30" transform="translate(127.246094 0)"/>
      </g>
     </g>
    </g>
    <g id="ytick_2">
     <g id="line2d_8">
      <g>
       <use xlink:href="#mbe56dffe29" x="94.5" y="184.654985" style="stroke: #000000; stroke-width: 0.8"/>
      </g>
     </g>
     <g id="text_8">
      <!-- 200 -->
      <g transform="translate(68.4125 188.454204) scale(0.1 -0.1)">
       <use xlink:href="#DejaVuSans-32"/>
       <use xlink:href="#DejaVuSans-30" transform="translate(63.623047 0)"/>
       <use xlink:href="#DejaVuSans-30" transform="translate(127.246094 0)"/>
      </g>
     </g>
    </g>
    <g id="ytick_3">
     <g id="line2d_9">
      <g>
       <use xlink:href="#mbe56dffe29" x="94.5" y="162.908871" style="stroke: #000000; stroke-width: 0.8"/>
      </g>
     </g>
     <g id="text_9">
      <!-- 250 -->
      <g transform="translate(68.4125 166.70809) scale(0.1 -0.1)">
       <use xlink:href="#DejaVuSans-32"/>
       <use xlink:href="#DejaVuSans-35" transform="translate(63.623047 0)"/>
       <use xlink:href="#DejaVuSans-30" transform="translate(127.246094 0)"/>
      </g>
     </g>
    </g>
    <g id="ytick_4">
     <g id="line2d_10">
      <g>
       <use xlink:href="#mbe56dffe29" x="94.5" y="141.162757" style="stroke: #000000; stroke-width: 0.8"/>
      </g>
     </g>
     <g id="text_10">
      <!-- 300 -->
      <g transform="translate(68.4125 144.961976) scale(0.1 -0.1)">
       <use xlink:href="#DejaVuSans-33"/>
       <use xlink:href="#DejaVuSans-30" transform="translate(63.623047 0)"/>
       <use xlink:href="#DejaVuSans-30" transform="translate(127.246094 0)"/>
      </g>
     </g>
    </g>
    <g id="ytick_5">
     <g id="line2d_11">
      <g>
       <use xlink:href="#mbe56dffe29" x="94.5" y="119.416643" style="stroke: #000000; stroke-width: 0.8"/>
      </g>
     </g>
     <g id="text_11">
      <!-- 350 -->
      <g transform="translate(68.4125 123.215862) scale(0.1 -0.1)">
       <use xlink:href="#DejaVuSans-33"/>
       <use xlink:href="#DejaVuSans-35" transform="translate(63.623047 0)"/>
       <use xlink:href="#DejaVuSans-30" transform="translate(127.246094 0)"/>
      </g>
     </g>
    </g>
    <g id="ytick_6">
     <g id="line2d_12">
      <g>
       <use xlink:href="#mbe56dffe29" x="94.5" y="97.670529" style="stroke: #000000; stroke-width: 0.8"/>
      </g>
     </g>
     <g id="text_12">
      <!-- 400 -->
      <g transform="translate(68.4125 101.469748) scale(0.1 -0.1)">
       <use xlink:href="#DejaVuSans-34"/>
       <use xlink:href="#DejaVuSans-30" transform="translate(63.623047 0)"/>
       <use xlink:href="#DejaVuSans-30" transform="translate(127.246094 0)"/>
      </g>
     </g>
    </g>
    <g id="ytick_7">
     <g id="line2d_13">
      <g>
       <use xlink:href="#mbe56dffe29" x="94.5" y="75.924415" style="stroke: #000000; stroke-width: 0.8"/>
      </g>
     </g>
     <g id="text_13">
      <!-- 450 -->
      <g transform="translate(68.4125 79.723634) scale(0.1 -0.1)">
       <use xlink:href="#DejaVuSans-34"/>
       <use xlink:href="#DejaVuSans-35" transform="translate(63.623047 0)"/>
       <use xlink:href="#DejaVuSans-30" transform="translate(127.246094 0)"/>
      </g>
     </g>
    </g>
    <g id="ytick_8">
     <g id="line2d_14">
      <g>
       <use xlink:href="#mbe56dffe29" x="94.5" y="54.178301" style="stroke: #000000; stroke-width: 0.8"/>
      </g>
     </g>
     <g id="text_14">
      <!-- 500 -->
      <g transform="translate(68.4125 57.97752) scale(0.1 -0.1)">
       <use xlink:href="#DejaVuSans-35"/>
       <use xlink:href="#DejaVuSans-30" transform="translate(63.623047 0)"/>
       <use xlink:href="#DejaVuSans-30" transform="translate(127.246094 0)"/>
      </g>
     </g>
    </g>
    <g id="ytick_9">
     <g id="line2d_15">
      <g>
       <use xlink:href="#mbe56dffe29" x="94.5" y="32.432187" style="stroke: #000000; stroke-width: 0.8"/>
      </g>
     </g>
     <g id="text_15">
      <!-- 550 -->
      <g transform="translate(68.4125 36.231406) scale(0.1 -0.1)">
       <use xlink:href="#DejaVuSans-35"/>
       <use xlink:href="#DejaVuSans-35" transform="translate(63.623047 0)"/>
       <use xlink:href="#DejaVuSans-30" transform="translate(127.246094 0)"/>
      </g>
     </g>
    </g>
   </g>
   <g id="line2d_16">
    <path d="M 121.131818 203.085454 
L 121.391641 202.663446 
L 121.651463 203.358508 
L 122.430931 204.500391 
L 123.210399 200.156305 
L 123.470222 201.211305 
L 124.24969 199.494345 
L 124.509512 197.11958 
L 124.769335 197.210592 
L 125.029157 195.667393 
L 125.28898 195.559857 
L 126.068448 193.569817 
L 126.328271 195.332282 
L 126.588093 195.220578 
L 126.847916 195.634284 
L 127.107738 194.955786 
L 128.406851 193.945682 
L 128.666674 195.132155 
L 128.926497 197.550753 
L 129.965787 201.915014 
L 130.22561 201.043829 
L 130.485432 206.017921 
L 131.524723 199.956895 
L 131.784545 203.391889 
L 132.044368 200.886175 
L 133.343481 209.154204 
L 133.603304 204.88122 
L 133.863126 207.905495 
L 134.122949 213.94991 
L 134.382772 205.748271 
L 135.162239 215.46 
L 135.422062 210.834358 
L 135.681885 213.394026 
L 135.941707 212.435699 
L 136.20153 214.659307 
L 136.980998 215.227667 
L 137.24082 210.100069 
L 137.500643 210.689161 
L 137.760466 206.876669 
L 138.020288 209.535856 
L 138.799756 205.167454 
L 139.059579 206.212891 
L 139.319401 208.536071 
L 139.579224 207.22928 
L 139.839047 207.82254 
L 140.618514 203.076607 
L 140.878337 203.815032 
L 141.13816 203.134682 
L 141.397982 203.130541 
L 142.437273 202.977042 
L 142.697095 199.579384 
L 142.956918 200.334406 
L 143.216741 198.193773 
L 143.476563 197.546605 
L 144.256031 199.015191 
L 144.515854 202.018721 
L 144.775676 199.65405 
L 145.035499 200.525248 
L 145.295322 199.226759 
L 146.074789 199.434186 
L 146.334612 201.193168 
L 146.594435 198.031984 
L 146.854257 197.29354 
L 147.11408 199.218471 
L 148.15337 196.650507 
L 148.673016 195.472336 
L 148.932838 195.0243 
L 149.712306 194.169693 
L 150.231951 197.069529 
L 150.491774 196.745945 
L 150.751596 195.654863 
L 151.531064 194.928876 
L 151.790887 195.459873 
L 152.05071 194.403221 
L 152.310532 195.330928 
L 152.570355 195.297653 
L 153.609645 196.104704 
L 153.869468 196.004866 
L 154.12929 196.175435 
L 154.389113 195.405793 
L 155.168581 195.580536 
L 155.428404 194.715224 
L 155.688226 194.528031 
L 155.948049 195.543087 
L 156.207871 193.762551 
L 156.987339 193.280019 
L 157.247162 192.680946 
L 157.506984 189.752255 
L 157.766807 194.149452 
L 158.02663 193.537935 
L 158.806098 193.038726 
L 159.06592 191.112588 
L 159.325743 190.833866 
L 159.585565 189.968568 
L 159.845388 190.455287 
L 160.884678 187.643078 
L 161.144501 189.33624 
L 161.404324 188.296211 
L 161.664146 189.964413 
L 162.443614 189.086652 
L 162.703437 186.977475 
L 164.262373 183.986356 
L 164.522195 185.005599 
L 164.782018 183.100259 
L 165.04184 182.48042 
L 165.301663 182.750833 
L 166.081131 185.496479 
L 166.340953 184.963975 
L 166.600776 185.09294 
L 166.860599 186.806887 
L 167.120421 187.239553 
L 167.899889 183.611957 
L 168.159712 184.797581 
L 168.419534 183.549555 
L 168.679357 187.381007 
L 168.93918 187.896854 
L 169.718647 186.836027 
L 169.97847 187.59732 
L 170.238293 186.748679 
L 170.498115 186.815242 
L 170.757938 186.353456 
L 171.537406 181.556874 
L 171.797228 182.908898 
L 172.057051 183.054507 
L 172.316874 181.6359 
L 172.576696 183.245861 
L 173.356164 185.005599 
L 173.615987 187.031548 
L 173.875809 184.61453 
L 174.135632 184.818373 
L 174.395455 184.735186 
L 175.174922 184.161072 
L 175.434745 183.657709 
L 175.694568 184.1915 
L 175.95439 182.156452 
L 176.214213 182.80701 
L 176.993681 182.527591 
L 177.253503 181.368301 
L 178.032971 176.180644 
L 178.812439 177.590159 
L 179.072262 176.86455 
L 179.332084 175.038037 
L 179.591907 181.022187 
L 180.89102 187.127278 
L 181.150843 183.528452 
L 181.410665 185.997168 
L 181.670488 186.555978 
L 182.449956 185.980477 
L 182.709778 184.575143 
L 183.229424 187.023034 
L 183.489246 188.073906 
L 184.268714 187.177317 
L 184.528537 185.142295 
L 184.788359 187.990513 
L 185.048182 186.906253 
L 185.308004 184.975476 
L 186.087472 184.299932 
L 186.347295 185.209011 
L 186.86694 183.040538 
L 187.126763 185.655201 
L 187.906231 183.90792 
L 188.166053 185.771982 
L 188.425876 184.137294 
L 188.685698 183.824521 
L 188.945521 181.643532 
L 189.984812 178.703586 
L 190.504457 180.03803 
L 190.764279 180.03803 
L 191.543747 182.306587 
L 192.063392 182.064723 
L 192.323215 182.027188 
L 192.583038 181.468378 
L 193.362506 184.033029 
L 193.622328 182.711108 
L 193.882151 187.11895 
L 194.141973 186.268224 
L 194.401796 187.20651 
L 195.181264 187.26489 
L 195.441086 185.555138 
L 195.960732 178.524277 
L 196.220554 178.344955 
L 197.000022 180.567634 
L 197.259845 183.645206 
L 197.519667 181.334946 
L 197.77949 181.797828 
L 198.039313 181.35165 
L 198.81878 181.051374 
L 199.338426 183.385564 
L 199.598248 182.8253 
L 199.858071 183.674067 
L 200.637539 183.79112 
L 200.897361 182.22322 
L 201.157184 182.219046 
L 201.676829 181.650414 
L 202.456297 182.135427 
L 202.71612 181.240677 
L 203.235765 182.064352 
L 203.495588 182.014167 
L 204.275055 182.04344 
L 204.534878 181.324308 
L 204.794701 183.08453 
L 205.054523 183.619702 
L 205.314346 182.474082 
L 206.093814 182.081062 
L 206.353636 182.110335 
L 206.613459 179.957086 
L 206.873282 179.898553 
L 207.133104 180.245577 
L 208.172395 178.008703 
L 208.432217 179.229592 
L 208.69204 178.506273 
L 209.73133 177.582235 
L 209.991153 177.920923 
L 210.250976 178.953651 
L 210.510798 178.64425 
L 211.550089 180.62188 
L 211.809911 180.534087 
L 212.069734 182.896389 
L 212.329557 180.371031 
L 212.589379 179.814928 
L 213.368847 180.705505 
L 213.62867 181.775848 
L 213.888492 181.186338 
L 214.148315 182.574431 
L 214.408137 182.729139 
L 215.447428 181.144509 
L 215.707251 177.841472 
L 216.226896 177.168324 
L 217.006364 175.671493 
L 217.266186 174.500795 
L 217.526009 174.262489 
L 217.785831 171.741305 
L 218.045654 174.655496 
L 218.825122 171.440272 
L 219.084945 171.498798 
L 219.344767 170.039616 
L 219.60459 170.453534 
L 219.864412 170.374097 
L 220.64388 170.261185 
L 220.903703 169.717672 
L 221.163525 170.114859 
L 221.423348 169.416625 
L 221.683171 169.207566 
L 222.722461 169.746938 
L 222.982284 169.302718 
L 223.242106 169.474541 
L 223.501929 170.656309 
L 224.54122 173.883146 
L 224.801042 173.34674 
L 225.060865 175.676756 
L 225.320687 174.256111 
L 226.100155 172.345177 
L 226.359978 173.631707 
L 226.6198 176.276028 
L 226.879623 176.623875 
L 227.139446 174.583 
L 227.918914 176.347277 
L 228.178736 173.669428 
L 228.438559 174.239348 
L 228.698381 172.265547 
L 228.958204 172.843855 
L 229.737672 173.237777 
L 229.997494 172.022482 
L 230.257317 172.303268 
L 230.51714 174.95177 
L 230.776962 175.106823 
L 231.816253 172.076954 
L 232.076075 172.965374 
L 232.335898 174.272895 
L 232.595721 172.537957 
L 233.375188 173.057593 
L 233.635011 174.478211 
L 233.894834 172.835473 
L 234.154656 170.077994 
L 235.193947 167.261863 
L 235.453769 167.768923 
L 235.713592 166.91403 
L 236.233237 164.420567 
L 237.012705 164.395422 
L 237.272528 163.314248 
L 237.53235 164.52953 
L 237.792173 162.890966 
L 238.051996 162.371324 
L 239.091286 163.410608 
L 239.351109 162.438358 
L 239.610931 163.867404 
L 239.870754 162.199527 
L 240.650222 162.031886 
L 240.910044 161.855882 
L 241.169867 164.961167 
L 241.42969 165.820267 
L 241.689512 165.958556 
L 242.46898 166.092651 
L 242.728803 167.798263 
L 242.988625 168.351432 
L 243.508271 165.841199 
L 244.287738 168.053896 
L 244.547561 168.452026 
L 244.807384 171.481889 
L 245.327029 167.647391 
L 246.106497 168.892039 
L 246.366319 169.772083 
L 246.626142 169.52006 
L 246.885965 168.108759 
L 247.145787 168.658982 
L 247.925255 166.302573 
L 248.185078 165.907742 
L 248.4449 166.004347 
L 248.704723 166.920036 
L 248.964545 166.764605 
L 250.003836 167.722309 
L 250.263659 167.764298 
L 250.523481 168.432177 
L 250.783304 166.298386 
L 251.562772 165.029867 
L 251.822594 165.550704 
L 252.082417 165.122265 
L 252.342239 163.589134 
L 253.38153 162.476046 
L 253.901175 163.530335 
L 254.160998 162.051801 
L 254.42082 162.669264 
L 255.200288 161.325137 
L 255.460111 160.11543 
L 255.719933 160.216236 
L 255.979756 159.619785 
L 256.239579 160.321264 
L 257.019047 158.767141 
L 257.278869 157.641438 
L 257.538692 157.851439 
L 257.798514 157.557394 
L 258.058337 155.016189 
L 259.097627 155.011982 
L 259.35745 154.058505 
L 259.617273 155.112815 
L 259.877095 154.894385 
L 260.656563 155.154797 
L 260.916386 153.617477 
L 261.176208 152.974796 
L 261.436031 153.59648 
L 261.695854 153.714063 
L 262.475322 155.285002 
L 262.994967 153.441042 
L 263.514612 149.967332 
L 264.29408 150.227783 
L 264.553902 151.282066 
L 264.813725 151.41648 
L 265.073548 151.298843 
L 265.33337 151.966703 
L 266.112838 152.004543 
L 266.372661 151.038431 
L 266.632483 151.294649 
L 266.892306 150.030351 
L 267.152129 150.055529 
L 267.931596 150.530137 
L 268.191419 151.324075 
L 268.451242 151.109839 
L 268.970887 148.631586 
L 269.750355 147.89654 
L 270.27 149.28831 
L 270.789645 143.552241 
L 271.569113 143.430238 
L 271.828936 144.2845 
L 272.088758 144.541209 
L 272.348581 145.770095 
L 272.608404 145.504958 
L 273.387871 143.876323 
L 273.647694 144.595946 
L 273.907517 144.616983 
L 274.167339 144.903144 
L 274.427162 144.907365 
L 275.726275 145.298739 
L 275.986098 146.544456 
L 276.24592 147.192552 
L 277.025388 146.653837 
L 277.285211 145.47548 
L 277.545033 143.358671 
L 277.804856 143.190319 
L 278.064678 145.44186 
L 278.844146 147.785925 
L 279.103969 147.575498 
L 279.363792 145.984716 
L 279.623614 145.572305 
L 279.883437 145.660675 
L 280.662905 147.840608 
L 280.922727 152.322586 
L 281.18255 152.1206 
L 281.442373 152.995887 
L 281.702195 149.9743 
L 282.481663 152.495158 
L 283.001308 148.28672 
L 283.261131 147.554447 
L 283.520953 147.554447 
L 284.300421 147.815377 
L 284.560244 148.383465 
L 284.820067 146.939998 
L 285.079889 144.22983 
L 285.339712 143.615393 
L 286.379002 141.923619 
L 286.638825 142.268684 
L 286.898647 140.858864 
L 287.15847 141.532231 
L 287.937938 141.96568 
L 288.197761 141.132442 
L 288.457583 135.636226 
L 288.717406 135.139638 
L 288.977228 132.080131 
L 289.756696 133.027024 
L 290.016519 131.44463 
L 290.276341 131.078514 
L 290.536164 130.051666 
L 290.795987 130.211603 
L 291.575455 129.820215 
L 291.835277 130.257885 
L 292.0951 132.425223 
L 292.354922 131.739259 
L 292.614745 129.93383 
L 293.394213 130.207369 
L 293.654035 128.759694 
L 293.913858 128.662737 
L 294.433503 126.980492 
L 295.212971 128.363422 
L 295.472794 129.26986 
L 295.732616 129.172876 
L 296.252262 132.642724 
L 297.031729 129.712547 
L 297.291552 132.259061 
L 297.811197 132.722838 
L 298.07102 135.454867 
L 298.850488 134.114117 
L 299.11031 130.433471 
L 299.370133 130.412393 
L 299.629956 131.200823 
L 299.889778 127.220822 
L 300.669246 128.544675 
L 300.929069 133.207693 
L 301.188891 130.547338 
L 301.448714 134.658062 
L 301.708537 135.121813 
L 302.488004 136.761863 
L 303.00765 131.158655 
L 303.267472 130.530428 
L 304.306763 127.258769 
L 304.566585 127.764701 
L 304.826408 127.469554 
L 305.346053 129.84323 
L 306.125521 130.505157 
L 306.385344 132.925195 
L 306.645166 138.250166 
L 306.904989 139.304197 
L 307.944279 139.139747 
L 308.204102 138.840406 
L 308.463925 137.453348 
L 308.723747 143.13241 
L 308.98357 140.855691 
L 310.02286 144.038874 
L 310.282683 143.752182 
L 310.542506 144.481561 
L 310.802328 146.82994 
L 311.581796 146.686581 
L 311.841619 150.008889 
L 312.101441 146.543261 
L 312.361264 145.223615 
L 312.621086 141.673639 
L 313.400554 140.526845 
L 313.660377 141.462828 
L 313.9202 139.481269 
L 314.180022 144.629128 
L 314.439845 142.65175 
L 315.219313 144.755591 
L 315.479135 143.233589 
L 315.738958 140.429901 
L 316.258603 147.247329 
L 317.038071 147.264172 
L 317.297894 144.957987 
L 317.557716 145.105833 
L 317.817539 148.811034 
L 318.077361 149.993997 
L 319.116652 150.082699 
L 319.376475 153.230191 
L 319.636297 147.180235 
L 319.89612 146.031091 
L 320.675588 145.405798 
L 320.93541 147.028155 
L 321.195233 144.814336 
L 322.754169 155.097564 
L 323.013991 149.753162 
L 323.273814 150.982606 
L 323.533636 153.314686 
L 324.313104 154.848315 
L 324.832749 147.264716 
L 325.092572 146.914089 
L 325.352395 144.712932 
L 326.131863 145.249497 
L 326.391685 143.179343 
L 326.651508 145.110107 
L 326.91133 143.162433 
L 327.171153 143.339864 
L 327.950621 140.374036 
L 328.210443 138.384155 
L 328.470266 139.038994 
L 328.730089 141.383788 
L 328.989911 140.914835 
L 329.769379 138.570066 
L 330.029202 140.298009 
L 330.289024 145.105833 
L 330.548847 144.315797 
L 331.588137 151.12201 
L 331.84796 152.473935 
L 332.107783 150.124933 
L 332.367605 153.416116 
L 333.406896 153.124593 
L 333.666718 151.105127 
L 333.926541 150.65729 
L 334.446186 155.866509 
L 335.225654 153.040098 
L 335.485477 157.476152 
L 335.745299 151.983864 
L 336.005122 149.275754 
L 336.264945 154.39201 
L 337.044412 151.455754 
L 337.304235 152.592235 
L 337.564058 149.127895 
L 337.82388 154.463829 
L 338.083703 155.570752 
L 338.863171 159.85892 
L 339.122993 157.780337 
L 339.642639 163.758468 
L 339.902461 161.32075 
L 340.681929 161.160209 
L 340.941752 158.912585 
L 341.201574 164.04502 
L 341.72122 164.68867 
L 342.500687 161.262835 
L 342.76051 161.698998 
L 343.280155 159.039618 
L 343.539978 155.931387 
L 344.579268 156.51154 
L 344.839091 156.278616 
L 345.098914 155.363949 
L 345.358736 157.294939 
L 346.138204 157.832778 
L 346.398027 156.244744 
L 346.657849 157.129772 
L 346.917672 159.509634 
L 347.177494 164.506575 
L 347.956962 169.050383 
L 348.216785 168.106065 
L 348.476608 165.027451 
L 348.73643 167.902799 
L 348.996253 166.767904 
L 350.035543 164.18897 
L 350.295366 164.447298 
L 350.555188 162.020829 
L 350.815011 158.277363 
L 351.594479 159.46732 
L 351.854302 163.028678 
L 352.114124 161.427948 
L 352.373947 162.880474 
L 352.633769 161.715954 
L 353.67306 160.331212 
L 354.192705 157.980968 
L 354.452528 158.294325 
L 355.231996 159.628239 
L 355.491818 164.218622 
L 355.751641 164.62092 
L 356.011463 164.04502 
L 356.271286 162.927048 
L 357.050754 163.973009 
L 357.310576 161.737111 
L 357.830222 159.48849 
L 358.090044 161.385634 
L 358.869512 162.033545 
L 359.129335 164.968169 
L 359.389157 157.836959 
L 359.64898 154.589005 
L 359.908803 152.755384 
L 360.688271 153.911443 
L 360.948093 155.262279 
L 361.207916 152.02278 
L 361.467738 151.5231 
L 362.507029 152.933213 
L 362.766851 152.094785 
L 363.026674 149.189786 
L 363.286497 150.096025 
L 363.546319 148.025246 
L 364.325787 147.36466 
L 365.105255 148.501248 
L 365.365078 150.207211 
L 366.144545 153.77188 
L 366.404368 154.327797 
L 366.664191 154.603631 
L 366.924013 153.305076 
L 367.183836 157.871256 
L 367.963304 159.084958 
L 368.482949 160.680578 
L 368.742772 161.134626 
L 369.002594 162.976376 
L 370.041885 164.168849 
L 370.301707 162.11492 
L 370.56153 161.932433 
L 370.821353 159.411707 
L 371.60082 158.482348 
L 371.860643 164.703543 
L 372.120466 164.605948 
L 372.380288 167.508604 
L 372.640111 167.780192 
L 373.419579 167.873566 
L 373.679401 168.751998 
L 373.939224 170.237274 
L 374.199047 169.375811 
L 374.458869 170.67438 
L 375.238337 170.873817 
L 375.49816 171.31515 
L 375.757982 169.337612 
L 376.277627 172.804693 
L 377.057095 169.477653 
L 377.316918 166.023328 
L 377.576741 165.88754 
L 377.836563 166.910248 
L 378.096386 172.236028 
L 378.875854 174.35362 
L 379.135676 175.983191 
L 379.395499 175.83889 
L 379.655322 172.236028 
L 379.915144 174.646444 
L 380.694612 170.839871 
L 380.954435 170.42823 
L 381.214257 171.285458 
L 381.47408 171.425506 
L 381.733902 168.892045 
L 382.51337 166.715038 
L 382.773193 165.267947 
L 383.033016 173.475181 
L 383.292838 175.414526 
L 383.552661 171.544324 
L 384.332129 173.131436 
L 384.591951 174.811928 
L 385.111596 180.71911 
L 385.371419 177.689128 
L 386.150887 174.939254 
L 386.41071 174.514877 
L 386.670532 176.365115 
L 386.930355 168.527077 
L 387.190177 166.774454 
L 387.969645 169.133915 
L 388.48929 168.768443 
L 388.749113 168.789719 
L 389.008936 168.985479 
L 389.788404 168.632271 
L 390.308049 166.278915 
L 390.827694 166.3172 
L 391.866984 169.364238 
L 392.126807 163.061661 
L 392.38663 163.25316 
L 392.646452 163.112734 
L 393.42592 165.163942 
L 393.685743 167.325798 
L 393.945565 167.644969 
L 394.205388 166.355525 
L 394.465211 167.198127 
L 395.244678 164.180894 
L 395.504501 162.304163 
L 395.764324 162.176479 
L 396.024146 165.670365 
L 396.283969 167.508783 
L 397.063437 169.313171 
L 397.323259 168.738659 
L 397.583082 167.619445 
L 397.842905 170.274936 
L 398.102727 170.045138 
L 399.142018 170.798374 
L 399.40184 171.832496 
L 399.661663 169.074858 
L 399.921486 169.581274 
L 400.960776 169.683395 
L 401.480421 177.032849 
L 401.740244 175.917876 
L 402.519712 174.985901 
L 402.779534 174.249667 
L 403.039357 171.30479 
L 403.29918 170.138744 
L 403.559002 169.832342 
L 404.598293 169.355716 
L 405.117938 172.938948 
L 405.377761 169.411037 
L 406.157228 168.406713 
L 406.417051 168.636518 
L 406.676874 169.245068 
L 406.936696 166.100184 
L 407.196519 166.032074 
L 407.975987 168.351392 
L 408.495632 164.078753 
L 408.755455 159.035836 
L 409.015277 161.695607 
L 409.794745 162.368005 
L 410.054568 157.776183 
L 410.31439 158.129398 
L 410.574213 159.452893 
L 410.834035 159.674203 
L 411.613503 156.176057 
L 411.873326 155.814334 
L 412.133149 156.740123 
L 412.392971 159.79906 
L 412.652794 161.543945 
L 413.951907 164.338369 
L 414.211729 162.947561 
L 414.471552 165.315351 
L 415.25102 164.914308 
L 415.510843 165.23002 
L 415.770665 166.573896 
L 416.29031 162.72572 
L 417.069778 162.051642 
L 417.329601 163.212081 
L 417.589424 163.404058 
L 417.849246 163.992799 
L 418.109069 165.584131 
L 418.888537 163.310207 
L 419.927827 152.426936 
L 420.707295 155.498628 
L 420.967118 154.837378 
L 421.22694 155.473038 
L 421.486763 153.182038 
L 421.746585 151.940569 
L 422.785876 154.218747 
L 423.305521 150.455916 
L 423.565344 148.642749 
L 424.344812 149.099226 
L 424.604634 149.120582 
L 424.864457 150.3322 
L 425.124279 147.234879 
L 426.16357 148.17771 
L 426.423392 150.976408 
L 426.683215 150.694812 
L 426.943038 147.98572 
L 427.20286 149.564251 
L 427.982328 148.429429 
L 428.242151 148.612885 
L 428.501973 148.578747 
L 428.761796 149.577072 
L 429.021619 149.726391 
L 429.801086 151.428638 
L 430.060909 154.137717 
L 430.320732 145.626484 
L 430.580554 141.590592 
L 430.840377 140.553895 
L 431.619845 141.279172 
L 431.879667 141.343147 
L 432.13949 141.774048 
L 432.399313 141.343147 
L 432.659135 139.107627 
L 433.438603 139.960881 
L 433.698426 140.664789 
L 433.958248 138.399418 
L 434.218071 139.337989 
L 434.477894 139.824357 
L 435.257361 139.615311 
L 435.777007 137.385577 
L 436.036829 135.453008 
L 436.296652 135.529951 
L 437.07612 134.315691 
L 437.335942 136.846849 
L 437.595765 137.449698 
L 438.11541 129.308975 
L 439.154701 130.027297 
L 439.414523 131.232983 
L 439.934169 128.235778 
L 440.713636 128.004911 
L 440.973459 128.971183 
L 441.233282 133.375049 
L 441.752927 131.917075 
L 442.792217 128.710386 
L 443.05204 127.406336 
L 443.311863 122.805753 
L 443.571685 125.272817 
L 444.610976 127.102747 
L 444.870798 129.022482 
L 445.130621 126.392999 
L 445.390443 128.398263 
L 446.169911 131.143206 
L 446.429734 128.590652 
L 446.689557 128.043376 
L 446.949379 128.385428 
L 447.209202 126.038125 
L 447.98867 127.128404 
L 448.508315 127.059996 
L 448.768137 125.726002 
L 449.02796 127.457648 
L 449.807428 129.762187 
L 450.067251 129.488529 
L 450.846718 124.028587 
L 451.626186 123.819076 
L 451.886009 117.935853 
L 452.145831 119.821409 
L 452.405654 123.331673 
L 452.665477 124.657106 
L 453.444945 124.0842 
L 453.704767 121.574385 
L 453.96459 127.222468 
L 454.224412 130.236755 
L 454.484235 126.965932 
L 455.263703 128.013446 
L 455.523525 127.833865 
L 455.783348 131.613513 
L 456.043171 131.972661 
L 456.302993 131.493793 
L 457.082461 130.497591 
L 457.602106 133.866766 
L 457.861929 133.567465 
L 458.121752 134.388386 
L 458.90122 133.092883 
L 459.161042 134.024951 
L 459.420865 134.359146 
L 459.680687 135.867358 
L 459.94051 136.038723 
L 460.719978 133.725026 
L 460.9798 133.476506 
L 461.239623 131.531275 
L 461.499446 134.543385 
L 461.759268 133.253696 
L 462.538736 132.945211 
L 462.798559 130.927138 
L 463.058381 130.764308 
L 463.318204 131.205641 
L 463.578027 130.820027 
L 464.617317 128.72484 
L 464.87714 129.01189 
L 465.136962 130.284457 
L 465.396785 128.416341 
L 466.176253 126.843862 
L 466.436075 129.487493 
L 466.955721 126.518228 
L 467.215543 130.15165 
L 468.254834 130.824327 
L 468.514656 134.200603 
L 468.774479 134.731912 
L 469.034302 135.811639 
L 469.813769 135.584542 
L 470.073592 137.898252 
L 470.593237 137.255584 
L 471.632528 133.759323 
L 471.89235 137.362682 
L 472.152173 134.976144 
L 472.411996 134.804766 
L 472.671818 131.419863 
L 473.451286 130.323001 
L 473.711109 130.935712 
L 473.970931 129.208991 
L 474.230754 129.748861 
L 474.490576 131.218489 
L 475.270044 129.114701 
L 475.529867 129.363234 
L 475.78969 130.198755 
L 476.049512 129.680307 
L 476.309335 131.672657 
L 477.348625 130.018789 
L 477.608448 125.674159 
L 477.868271 131.149935 
L 478.128093 130.327302 
L 478.907561 127.113804 
L 479.167384 126.771034 
L 479.427206 123.360462 
L 479.687029 122.396394 
L 479.946851 120.476885 
L 480.726319 118.878697 
L 481.245965 116.02083 
L 481.505787 117.096283 
L 481.76561 113.248652 
L 482.545078 114.52978 
L 482.8049 112.991585 
L 483.064723 112.927185 
L 483.324545 110.136505 
L 483.584368 112.849898 
L 484.363836 109.591272 
L 484.623659 111.467432 
L 484.883481 109.415222 
L 485.403126 109.595533 
L 486.182594 109.088938 
L 486.442417 107.332923 
L 486.702239 108.985875 
L 486.962062 108.960139 
L 487.221885 110.8492 
L 488.001353 113.15472 
L 488.261175 111.703595 
L 488.520998 113.300708 
L 488.78082 112.377639 
L 489.040643 110.969411 
L 489.820111 112.227352 
L 490.079933 110.905025 
L 490.339756 110.909312 
L 490.599579 114.532886 
L 490.859401 112.472088 
L 491.898692 111.385871 
L 492.158514 112.5193 
L 492.418337 111.265659 
L 492.67816 110.81915 
L 493.71745 110.784787 
L 493.977273 111.038098 
L 494.496918 110.192317 
L 495.536208 112.411989 
L 495.796031 112.527887 
L 496.055854 113.669916 
L 496.315676 113.751504 
L 497.095144 110.771912 
L 497.354967 110.299654 
L 497.614789 107.3029 
L 497.874612 106.504317 
L 498.134435 104.855692 
L 499.173725 104.082898 
L 499.433548 104.426345 
L 499.953193 100.47646 
L 500.732661 101.403842 
L 500.992483 100.37775 
L 501.512129 97.814592 
L 501.771951 98.21819 
L 502.551419 95.732319 
L 502.811242 96.217465 
L 503.071064 100.944445 
L 503.59071 95.088337 
L 504.370177 97.479706 
L 504.63 97.548393 
L 504.889823 93.873294 
L 505.149645 93.847545 
L 505.409468 91.08264 
L 506.188936 93.353798 
L 506.448758 97.192059 
L 506.708581 95.505952 
L 507.228226 97.841562 
L 508.267517 98.38779 
L 508.527339 98.650192 
L 508.787162 94.576871 
L 509.046984 95.14034 
L 509.826452 96.344698 
L 510.086275 96.3705 
L 510.346098 96.267265 
L 510.60592 93.720896 
L 510.865743 92.92088 
L 511.645211 93.170342 
L 511.905033 98.448035 
L 512.164856 98.688896 
L 512.424678 95.656492 
L 512.684501 96.912481 
L 513.463969 97.643705 
L 513.723792 93.015515 
L 513.983614 93.092921 
L 514.243437 88.740009 
L 514.503259 92.525152 
L 515.282727 92.138038 
L 516.062195 86.954993 
L 516.322018 87.22597 
L 517.361308 90.275603 
L 517.621131 90.370211 
L 517.880953 90.675604 
L 518.920244 89.019587 
L 519.180067 90.365897 
L 519.439889 90.791728 
L 519.699712 91.897151 
L 519.959534 88.610984 
L 520.739002 89.011012 
L 520.998825 88.284089 
L 521.258647 89.583056 
L 521.51847 87.574381 
L 521.778293 90.168053 
L 522.557761 93.720896 
L 522.817583 93.316594 
L 523.077406 94.49515 
L 523.597051 99.966414 
L 524.376519 99.174945 
L 524.636341 96.331797 
L 524.896164 95.690908 
L 525.155987 100.00079 
L 525.415809 96.869464 
L 526.195277 98.62009 
L 526.4551 104.177361 
L 526.714922 101.764317 
L 526.974745 100.516955 
L 527.234568 96.723224 
L 528.014035 93.763927 
L 528.273858 95.570471 
L 528.533681 95.054319 
L 529.053326 93.247775 
L 529.832794 93.686493 
L 530.092616 92.464947 
L 530.352439 89.33224 
L 530.612262 90.232851 
L 530.872084 90.568957 
L 531.651552 88.358403 
L 531.911375 86.764064 
L 532.171197 86.126321 
L 532.43102 87.643107 
L 532.690843 86.281453 
L 533.730133 86.212488 
L 533.989956 86.708053 
L 534.249778 92.956159 
L 534.509601 92.757956 
L 535.289069 93.451711 
L 535.548891 92.352898 
L 535.808714 88.931508 
L 536.068537 88.711764 
L 536.328359 89.000461 
L 537.107827 87.268231 
L 537.36765 85.195581 
L 537.627472 81.584603 
L 537.887295 81.360505 
L 538.147118 80.933918 
L 538.926585 78.434668 
L 539.186408 79.30941 
L 539.706053 79.585205 
L 539.965876 77.827107 
L 540.745344 78.736292 
L 541.005166 77.322941 
L 541.524812 76.50421 
L 541.784634 79.046556 
L 542.823925 73.733505 
L 543.083747 73.091461 
L 543.603392 70.16561 
L 544.38286 70.734415 
L 544.642683 73.621469 
L 544.902506 70.730101 
L 545.162328 75.707047 
L 545.422151 76.202599 
L 546.201619 76.025925 
L 547.240909 83.286677 
L 548.2802 79.951454 
L 548.799845 91.348892 
L 549.059667 88.388586 
L 549.839135 87.759456 
L 550.35878 91.370434 
L 550.618603 91.904769 
L 550.878426 95.619142 
L 551.657894 101.367421 
L 551.917716 99.44559 
L 552.177539 99.954057 
L 552.697184 96.683512 
L 553.476652 96.343079 
L 553.736475 93.240581 
L 553.996297 92.012491 
L 554.25612 89.888608 
L 554.515942 90.993713 
L 555.29541 89.67278 
L 555.555233 88.26118 
L 555.815055 88.54608 
L 556.074878 92.254228 
L 556.334701 91.71895 
L 557.114169 93.143504 
L 557.373991 92.992407 
L 557.633814 94.391052 
L 557.893636 93.303202 
L 558.153459 91.567853 
L 559.192749 94.891794 
L 559.712395 95.345059 
L 559.972217 98.233016 
L 560.751685 96.497667 
L 561.27133 89.020927 
L 561.790976 85.761757 
L 562.570443 85.437968 
L 562.830266 83.793259 
L 563.090089 85.666764 
L 563.349911 82.265111 
L 563.609734 83.741482 
L 564.389202 84.501216 
L 564.649024 86.374721 
L 564.908847 85.105591 
L 565.16867 85.450936 
L 565.428492 86.871176 
L 566.20796 85.886933 
L 566.467783 90.035379 
L 566.727605 91.572167 
L 567.247251 92.034073 
L 568.026718 94.848631 
L 568.286541 92.61684 
L 568.546364 91.429723 
L 568.806186 92.129039 
L 569.066009 91.921838 
L 569.845477 90.704486 
L 570.105299 90.877178 
L 570.365122 92.008177 
L 570.624945 91.749159 
L 570.884767 91.127529 
L 571.664235 90.859897 
L 571.924058 87.091305 
L 572.18388 88.347506 
L 572.443703 88.291376 
L 572.703525 86.815045 
L 573.482993 87.488466 
L 573.742816 85.17465 
L 574.002639 84.924285 
L 574.262461 96.225694 
L 574.522284 94.490332 
L 575.301752 95.31485 
L 575.561574 94.019812 
L 576.08122 87.989221 
L 576.341042 89.236782 
L 577.12051 91.192287 
L 577.380333 89.025254 
L 577.899978 87.35895 
L 578.1598 92.491652 
L 578.939268 92.163562 
L 579.199091 91.287267 
L 579.718736 93.054391 
L 579.978559 91.267968 
L 580.758027 90.493714 
L 581.017849 86.514297 
L 581.277672 88.67703 
L 581.797317 88.47373 
L 582.576785 85.220985 
L 582.836608 85.125832 
L 583.356253 80.186157 
L 584.395543 78.715507 
L 584.655366 79.879051 
L 584.915188 77.430835 
L 585.175011 77.18428 
L 585.434834 78.174827 
L 586.214302 76.30622 
L 586.474124 75.06483 
L 586.733947 82.448369 
L 587.253592 82.790063 
L 588.03306 83.374012 
L 588.292882 81.609237 
L 588.812528 82.136936 
L 589.07235 85.415643 
L 589.851818 87.881141 
L 590.111641 89.321516 
L 590.631286 90.584553 
L 590.891109 88.5213 
L 591.670576 86.574848 
L 591.930399 88.945206 
L 592.190222 87.997941 
L 592.709867 90.424497 
L 593.489335 91.185783 
L 593.749157 91.84325 
L 594.00898 87.240982 
L 594.268803 87.989287 
L 594.528625 86.064456 
L 595.567916 86.29369 
L 595.827738 78.637636 
L 596.087561 78.417055 
L 596.347384 79.563292 
L 597.126851 83.672463 
L 597.386674 78.205089 
L 597.646497 80.311598 
L 597.906319 92.137388 
L 598.166142 92.107113 
L 598.94561 93.897836 
L 599.725078 91.778386 
L 599.9849 94.403927 
L 600.764368 93.335535 
L 601.024191 93.672915 
L 601.284013 94.711032 
L 601.543836 94.062219 
L 601.803659 94.974895 
L 602.842949 94.451496 
L 603.102772 92.232554 
L 603.362594 91.283364 
L 603.622417 94.716009 
L 604.401885 96.540671 
L 604.661707 99.184488 
L 604.92153 98.391334 
L 605.181353 101.511922 
L 605.441175 99.578902 
L 606.220643 103.262906 
L 606.480466 103.210904 
L 606.740288 97.832244 
L 608.039401 106.873234 
L 608.299224 106.747527 
L 608.559047 105.525317 
L 608.818869 107.475685 
L 609.078692 103.232565 
L 609.85816 103.171882 
L 610.117982 105.416958 
L 610.377805 103.553288 
L 610.637627 103.97803 
L 610.89745 102.062344 
L 611.676918 101.273543 
L 611.936741 100.37203 
L 612.196563 102.621446 
L 612.456386 102.357079 
L 612.716208 107.462678 
L 613.495676 108.940601 
L 613.755499 105.993408 
L 614.015322 106.015069 
L 614.275144 109.928799 
L 614.534967 115.680184 
L 615.314435 116.538336 
L 615.574257 117.968597 
L 615.83408 102.396075 
L 616.093902 106.357467 
L 616.353725 103.280241 
L 617.133193 103.557628 
L 617.393016 104.459115 
L 617.652838 110.578913 
L 617.912661 112.238886 
L 618.951951 115.992241 
L 619.471596 109.37401 
L 619.731419 103.778673 
L 619.991242 101.806631 
L 620.77071 102.10568 
L 621.030532 100.857455 
L 621.290355 100.328694 
L 621.550177 87.265643 
L 621.81 82.983514 
L 622.589468 82.59778 
L 622.84929 83.837338 
L 623.109113 83.820004 
L 623.368936 81.730949 
L 623.628758 81.488243 
L 624.408226 76.924399 
L 624.668049 76.976402 
L 624.927871 75.32945 
L 625.447517 74.391555 
L 626.226984 72.394202 
L 626.486807 72.698135 
L 626.74663 75.129708 
L 627.006452 74.135378 
L 627.266275 76.167466 
L 628.305565 71.603941 
L 628.565388 73.04985 
L 629.085033 71.747234 
L 629.864501 71.048143 
L 630.384146 70.223161 
L 630.903792 67.396458 
L 631.683259 66.36738 
L 631.943082 67.161981 
L 632.202905 66.423829 
L 632.462727 63.710025 
L 632.72255 65.407785 
L 633.502018 63.592786 
L 633.76184 64.07042 
L 634.021663 63.115165 
L 634.541308 64.348312 
L 635.840421 57.891638 
L 636.100244 55.642434 
L 636.360067 56.298082 
L 637.139534 55.659795 
L 637.399357 57.987162 
L 637.65918 58.403994 
L 637.919002 55.038881 
L 638.958293 55.525196 
L 639.218115 56.00283 
L 639.477938 53.01112 
L 639.737761 53.892565 
L 639.997583 53.093623 
L 640.777051 53.223895 
L 641.036874 52.008109 
L 641.296696 52.094953 
L 641.556519 49.454958 
L 641.816341 50.171409 
L 642.595809 50.167069 
L 642.855632 52.246926 
L 643.115455 51.986395 
L 643.375277 49.811014 
L 643.6351 48.582181 
L 644.414568 49.107597 
L 644.67439 49.077202 
L 644.934213 48.786289 
L 645.194035 39.989227 
L 645.453858 44.066438 
L 646.233326 39.06 
L 646.493149 42.485916 
L 646.752971 43.706029 
L 647.012794 45.486279 
L 647.272616 44.965243 
L 648.052084 45.082468 
L 648.311907 41.838947 
L 648.571729 45.599178 
L 648.831552 44.774195 
L 649.091375 45.777219 
L 649.870843 47.110256 
L 650.130665 50.292988 
L 650.390488 52.051525 
L 650.65031 52.334235 
L 650.910133 51.033808 
L 651.689601 52.325528 
L 651.949424 53.291056 
L 652.469069 49.985644 
L 652.728891 51.26867 
L 653.768182 51.951501 
L 653.768182 51.951501 
" clip-path="url(#p6ad3bf8f78)" style="fill: none; stroke: #1f77b4; stroke-width: 1.5; stroke-linecap: square"/>
   </g>
   <g id="patch_3">
    <path d="M 94.5 224.28 
L 94.5 30.24 
" style="fill: none; stroke: #000000; stroke-width: 0.8; stroke-linejoin: miter; stroke-linecap: square"/>
   </g>
   <g id="patch_4">
    <path d="M 94.5 224.28 
L 680.4 224.28 
" style="fill: none; stroke: #000000; stroke-width: 0.8; stroke-linejoin: miter; stroke-linecap: square"/>
   </g>
  </g>
 </g>
 <defs>
  <clipPath id="p6ad3bf8f78">
   <rect x="94.5" y="30.24" width="585.9" height="194.04"/>
  </clipPath>
 </defs>
</svg>
