<?xml version="1.0" encoding="utf-8" standalone="no"?>
<!DOCTYPE svg PUBLIC "-//W3C//DTD SVG 1.1//EN"
  "http://www.w3.org/Graphics/SVG/1.1/DTD/svg11.dtd">
<svg xmlns:xlink="http://www.w3.org/1999/xlink" width="756pt" height="252pt" viewBox="0 0 756 252" xmlns="http://www.w3.org/2000/svg" version="1.1">
 <metadata>
  <rdf:RDF xmlns:dc="http://purl.org/dc/elements/1.1/" xmlns:cc="http://creativecommons.org/ns#" xmlns:rdf="http://www.w3.org/1999/02/22-rdf-syntax-ns#">
   <cc:Work>
    <dc:type rdf:resource="http://purl.org/dc/dcmitype/StillImage"/>
    <dc:date>2025-09-06T17:34:26.326883</dc:date>
    <dc:format>image/svg+xml</dc:format>
    <dc:creator>
     <cc:Agent>
      <dc:title>Matplotlib v3.10.5, https://matplotlib.org/</dc:title>
     </cc:Agent>
    </dc:creator>
   </cc:Work>
  </rdf:RDF>
 </metadata>
 <defs>
  <style type="text/css">*{stroke-linejoin: round; stroke-linecap: butt}</style>
 </defs>
 <g id="figure_1">
  <g id="patch_1">
   <path d="M 0 252 
L 756 252 
L 756 0 
L 0 0 
z
" style="fill: #ffffff"/>
  </g>
  <g id="axes_1">
   <g id="patch_2">
    <path d="M 94.5 224.28 
L 680.4 224.28 
L 680.4 30.24 
L 94.5 30.24 
z
" style="fill: #ffffff"/>
   </g>
   <g id="matplotlib.axis_1">
    <g id="xtick_1">
     <g id="line2d_1">
      <defs>
       <path id="madc837332b" d="M 0 0 
L 0 3.5 
" style="stroke: #000000; stroke-width: 0.8"/>
      </defs>
      <g>
       <use xlink:href="#madc837332b" x="123.05817" y="224.28" style="stroke: #000000; stroke-width: 0.8"/>
      </g>
     </g>
     <g id="text_1">
      <!-- 2024-03 -->
      <g transform="translate(102.166764 238.878438) scale(0.1 -0.1)">
       <defs>
        <path id="DejaVuSans-32" d="M 1228 531 
L 3431 531 
L 3431 0 
L 469 0 
L 469 531 
Q 828 903 1448 1529 
Q 2069 2156 2228 2338 
Q 2531 2678 2651 2914 
Q 2772 3150 2772 3378 
Q 2772 3750 2511 3984 
Q 2250 4219 1831 4219 
Q 1534 4219 1204 4116 
Q 875 4013 500 3803 
L 500 4441 
Q 881 4594 1212 4672 
Q 1544 4750 1819 4750 
Q 2544 4750 2975 4387 
Q 3406 4025 3406 3419 
Q 3406 3131 3298 2873 
Q 3191 2616 2906 2266 
Q 2828 2175 2409 1742 
Q 1991 1309 1228 531 
z
" transform="scale(0.015625)"/>
        <path id="DejaVuSans-30" d="M 2034 4250 
Q 1547 4250 1301 3770 
Q 1056 3291 1056 2328 
Q 1056 1369 1301 889 
Q 1547 409 2034 409 
Q 2525 409 2770 889 
Q 3016 1369 3016 2328 
Q 3016 3291 2770 3770 
Q 2525 4250 2034 4250 
z
M 2034 4750 
Q 2819 4750 3233 4129 
Q 3647 3509 3647 2328 
Q 3647 1150 3233 529 
Q 2819 -91 2034 -91 
Q 1250 -91 836 529 
Q 422 1150 422 2328 
Q 422 3509 836 4129 
Q 1250 4750 2034 4750 
z
" transform="scale(0.015625)"/>
        <path id="DejaVuSans-34" d="M 2419 4116 
L 825 1625 
L 2419 1625 
L 2419 4116 
z
M 2253 4666 
L 3047 4666 
L 3047 1625 
L 3713 1625 
L 3713 1100 
L 3047 1100 
L 3047 0 
L 2419 0 
L 2419 1100 
L 313 1100 
L 313 1709 
L 2253 4666 
z
" transform="scale(0.015625)"/>
        <path id="DejaVuSans-2d" d="M 313 2009 
L 1997 2009 
L 1997 1497 
L 313 1497 
L 313 2009 
z
" transform="scale(0.015625)"/>
        <path id="DejaVuSans-33" d="M 2597 2516 
Q 3050 2419 3304 2112 
Q 3559 1806 3559 1356 
Q 3559 666 3084 287 
Q 2609 -91 1734 -91 
Q 1441 -91 1130 -33 
Q 819 25 488 141 
L 488 750 
Q 750 597 1062 519 
Q 1375 441 1716 441 
Q 2309 441 2620 675 
Q 2931 909 2931 1356 
Q 2931 1769 2642 2001 
Q 2353 2234 1838 2234 
L 1294 2234 
L 1294 2753 
L 1863 2753 
Q 2328 2753 2575 2939 
Q 2822 3125 2822 3475 
Q 2822 3834 2567 4026 
Q 2313 4219 1838 4219 
Q 1578 4219 1281 4162 
Q 984 4106 628 3988 
L 628 4550 
Q 988 4650 1302 4700 
Q 1616 4750 1894 4750 
Q 2613 4750 3031 4423 
Q 3450 4097 3450 3541 
Q 3450 3153 3228 2886 
Q 3006 2619 2597 2516 
z
" transform="scale(0.015625)"/>
       </defs>
       <use xlink:href="#DejaVuSans-32"/>
       <use xlink:href="#DejaVuSans-30" transform="translate(63.623047 0)"/>
       <use xlink:href="#DejaVuSans-32" transform="translate(127.246094 0)"/>
       <use xlink:href="#DejaVuSans-34" transform="translate(190.869141 0)"/>
       <use xlink:href="#DejaVuSans-2d" transform="translate(254.492188 0)"/>
       <use xlink:href="#DejaVuSans-30" transform="translate(290.576172 0)"/>
       <use xlink:href="#DejaVuSans-33" transform="translate(354.199219 0)"/>
      </g>
     </g>
    </g>
    <g id="xtick_2">
     <g id="line2d_2">
      <g>
       <use xlink:href="#madc837332b" x="181.81191" y="224.28" style="stroke: #000000; stroke-width: 0.8"/>
      </g>
     </g>
     <g id="text_2">
      <!-- 2024-05 -->
      <g transform="translate(160.920504 238.878438) scale(0.1 -0.1)">
       <defs>
        <path id="DejaVuSans-35" d="M 691 4666 
L 3169 4666 
L 3169 4134 
L 1269 4134 
L 1269 2991 
Q 1406 3038 1543 3061 
Q 1681 3084 1819 3084 
Q 2600 3084 3056 2656 
Q 3513 2228 3513 1497 
Q 3513 744 3044 326 
Q 2575 -91 1722 -91 
Q 1428 -91 1123 -41 
Q 819 9 494 109 
L 494 744 
Q 775 591 1075 516 
Q 1375 441 1709 441 
Q 2250 441 2565 725 
Q 2881 1009 2881 1497 
Q 2881 1984 2565 2268 
Q 2250 2553 1709 2553 
Q 1456 2553 1204 2497 
Q 953 2441 691 2322 
L 691 4666 
z
" transform="scale(0.015625)"/>
       </defs>
       <use xlink:href="#DejaVuSans-32"/>
       <use xlink:href="#DejaVuSans-30" transform="translate(63.623047 0)"/>
       <use xlink:href="#DejaVuSans-32" transform="translate(127.246094 0)"/>
       <use xlink:href="#DejaVuSans-34" transform="translate(190.869141 0)"/>
       <use xlink:href="#DejaVuSans-2d" transform="translate(254.492188 0)"/>
       <use xlink:href="#DejaVuSans-30" transform="translate(290.576172 0)"/>
       <use xlink:href="#DejaVuSans-35" transform="translate(354.199219 0)"/>
      </g>
     </g>
    </g>
    <g id="xtick_3">
     <g id="line2d_3">
      <g>
       <use xlink:href="#madc837332b" x="240.56565" y="224.28" style="stroke: #000000; stroke-width: 0.8"/>
      </g>
     </g>
     <g id="text_3">
      <!-- 2024-07 -->
      <g transform="translate(219.674244 238.878438) scale(0.1 -0.1)">
       <defs>
        <path id="DejaVuSans-37" d="M 525 4666 
L 3525 4666 
L 3525 4397 
L 1831 0 
L 1172 0 
L 2766 4134 
L 525 4134 
L 525 4666 
z
" transform="scale(0.015625)"/>
       </defs>
       <use xlink:href="#DejaVuSans-32"/>
       <use xlink:href="#DejaVuSans-30" transform="translate(63.623047 0)"/>
       <use xlink:href="#DejaVuSans-32" transform="translate(127.246094 0)"/>
       <use xlink:href="#DejaVuSans-34" transform="translate(190.869141 0)"/>
       <use xlink:href="#DejaVuSans-2d" transform="translate(254.492188 0)"/>
       <use xlink:href="#DejaVuSans-30" transform="translate(290.576172 0)"/>
       <use xlink:href="#DejaVuSans-37" transform="translate(354.199219 0)"/>
      </g>
     </g>
    </g>
    <g id="xtick_4">
     <g id="line2d_4">
      <g>
       <use xlink:href="#madc837332b" x="300.282566" y="224.28" style="stroke: #000000; stroke-width: 0.8"/>
      </g>
     </g>
     <g id="text_4">
      <!-- 2024-09 -->
      <g transform="translate(279.39116 238.878438) scale(0.1 -0.1)">
       <defs>
        <path id="DejaVuSans-39" d="M 703 97 
L 703 672 
Q 941 559 1184 500 
Q 1428 441 1663 441 
Q 2288 441 2617 861 
Q 2947 1281 2994 2138 
Q 2813 1869 2534 1725 
Q 2256 1581 1919 1581 
Q 1219 1581 811 2004 
Q 403 2428 403 3163 
Q 403 3881 828 4315 
Q 1253 4750 1959 4750 
Q 2769 4750 3195 4129 
Q 3622 3509 3622 2328 
Q 3622 1225 3098 567 
Q 2575 -91 1691 -91 
Q 1453 -91 1209 -44 
Q 966 3 703 97 
z
M 1959 2075 
Q 2384 2075 2632 2365 
Q 2881 2656 2881 3163 
Q 2881 3666 2632 3958 
Q 2384 4250 1959 4250 
Q 1534 4250 1286 3958 
Q 1038 3666 1038 3163 
Q 1038 2656 1286 2365 
Q 1534 2075 1959 2075 
z
" transform="scale(0.015625)"/>
       </defs>
       <use xlink:href="#DejaVuSans-32"/>
       <use xlink:href="#DejaVuSans-30" transform="translate(63.623047 0)"/>
       <use xlink:href="#DejaVuSans-32" transform="translate(127.246094 0)"/>
       <use xlink:href="#DejaVuSans-34" transform="translate(190.869141 0)"/>
       <use xlink:href="#DejaVuSans-2d" transform="translate(254.492188 0)"/>
       <use xlink:href="#DejaVuSans-30" transform="translate(290.576172 0)"/>
       <use xlink:href="#DejaVuSans-39" transform="translate(354.199219 0)"/>
      </g>
     </g>
    </g>
    <g id="xtick_5">
     <g id="line2d_5">
      <g>
       <use xlink:href="#madc837332b" x="359.036306" y="224.28" style="stroke: #000000; stroke-width: 0.8"/>
      </g>
     </g>
     <g id="text_5">
      <!-- 2024-11 -->
      <g transform="translate(338.1449 238.878438) scale(0.1 -0.1)">
       <defs>
        <path id="DejaVuSans-31" d="M 794 531 
L 1825 531 
L 1825 4091 
L 703 3866 
L 703 4441 
L 1819 4666 
L 2450 4666 
L 2450 531 
L 3481 531 
L 3481 0 
L 794 0 
L 794 531 
z
" transform="scale(0.015625)"/>
       </defs>
       <use xlink:href="#DejaVuSans-32"/>
       <use xlink:href="#DejaVuSans-30" transform="translate(63.623047 0)"/>
       <use xlink:href="#DejaVuSans-32" transform="translate(127.246094 0)"/>
       <use xlink:href="#DejaVuSans-34" transform="translate(190.869141 0)"/>
       <use xlink:href="#DejaVuSans-2d" transform="translate(254.492188 0)"/>
       <use xlink:href="#DejaVuSans-31" transform="translate(290.576172 0)"/>
       <use xlink:href="#DejaVuSans-31" transform="translate(354.199219 0)"/>
      </g>
     </g>
    </g>
    <g id="xtick_6">
     <g id="line2d_6">
      <g>
       <use xlink:href="#madc837332b" x="417.790046" y="224.28" style="stroke: #000000; stroke-width: 0.8"/>
      </g>
     </g>
     <g id="text_6">
      <!-- 2025-01 -->
      <g transform="translate(396.89864 238.878438) scale(0.1 -0.1)">
       <use xlink:href="#DejaVuSans-32"/>
       <use xlink:href="#DejaVuSans-30" transform="translate(63.623047 0)"/>
       <use xlink:href="#DejaVuSans-32" transform="translate(127.246094 0)"/>
       <use xlink:href="#DejaVuSans-35" transform="translate(190.869141 0)"/>
       <use xlink:href="#DejaVuSans-2d" transform="translate(254.492188 0)"/>
       <use xlink:href="#DejaVuSans-30" transform="translate(290.576172 0)"/>
       <use xlink:href="#DejaVuSans-31" transform="translate(354.199219 0)"/>
      </g>
     </g>
    </g>
    <g id="xtick_7">
     <g id="line2d_7">
      <g>
       <use xlink:href="#madc837332b" x="474.617434" y="224.28" style="stroke: #000000; stroke-width: 0.8"/>
      </g>
     </g>
     <g id="text_7">
      <!-- 2025-03 -->
      <g transform="translate(453.726028 238.878438) scale(0.1 -0.1)">
       <use xlink:href="#DejaVuSans-32"/>
       <use xlink:href="#DejaVuSans-30" transform="translate(63.623047 0)"/>
       <use xlink:href="#DejaVuSans-32" transform="translate(127.246094 0)"/>
       <use xlink:href="#DejaVuSans-35" transform="translate(190.869141 0)"/>
       <use xlink:href="#DejaVuSans-2d" transform="translate(254.492188 0)"/>
       <use xlink:href="#DejaVuSans-30" transform="translate(290.576172 0)"/>
       <use xlink:href="#DejaVuSans-33" transform="translate(354.199219 0)"/>
      </g>
     </g>
    </g>
    <g id="xtick_8">
     <g id="line2d_8">
      <g>
       <use xlink:href="#madc837332b" x="533.371174" y="224.28" style="stroke: #000000; stroke-width: 0.8"/>
      </g>
     </g>
     <g id="text_8">
      <!-- 2025-05 -->
      <g transform="translate(512.479768 238.878438) scale(0.1 -0.1)">
       <use xlink:href="#DejaVuSans-32"/>
       <use xlink:href="#DejaVuSans-30" transform="translate(63.623047 0)"/>
       <use xlink:href="#DejaVuSans-32" transform="translate(127.246094 0)"/>
       <use xlink:href="#DejaVuSans-35" transform="translate(190.869141 0)"/>
       <use xlink:href="#DejaVuSans-2d" transform="translate(254.492188 0)"/>
       <use xlink:href="#DejaVuSans-30" transform="translate(290.576172 0)"/>
       <use xlink:href="#DejaVuSans-35" transform="translate(354.199219 0)"/>
      </g>
     </g>
    </g>
    <g id="xtick_9">
     <g id="line2d_9">
      <g>
       <use xlink:href="#madc837332b" x="592.124914" y="224.28" style="stroke: #000000; stroke-width: 0.8"/>
      </g>
     </g>
     <g id="text_9">
      <!-- 2025-07 -->
      <g transform="translate(571.233507 238.878438) scale(0.1 -0.1)">
       <use xlink:href="#DejaVuSans-32"/>
       <use xlink:href="#DejaVuSans-30" transform="translate(63.623047 0)"/>
       <use xlink:href="#DejaVuSans-32" transform="translate(127.246094 0)"/>
       <use xlink:href="#DejaVuSans-35" transform="translate(190.869141 0)"/>
       <use xlink:href="#DejaVuSans-2d" transform="translate(254.492188 0)"/>
       <use xlink:href="#DejaVuSans-30" transform="translate(290.576172 0)"/>
       <use xlink:href="#DejaVuSans-37" transform="translate(354.199219 0)"/>
      </g>
     </g>
    </g>
    <g id="xtick_10">
     <g id="line2d_10">
      <g>
       <use xlink:href="#madc837332b" x="651.84183" y="224.28" style="stroke: #000000; stroke-width: 0.8"/>
      </g>
     </g>
     <g id="text_10">
      <!-- 2025-09 -->
      <g transform="translate(630.950423 238.878438) scale(0.1 -0.1)">
       <use xlink:href="#DejaVuSans-32"/>
       <use xlink:href="#DejaVuSans-30" transform="translate(63.623047 0)"/>
       <use xlink:href="#DejaVuSans-32" transform="translate(127.246094 0)"/>
       <use xlink:href="#DejaVuSans-35" transform="translate(190.869141 0)"/>
       <use xlink:href="#DejaVuSans-2d" transform="translate(254.492188 0)"/>
       <use xlink:href="#DejaVuSans-30" transform="translate(290.576172 0)"/>
       <use xlink:href="#DejaVuSans-39" transform="translate(354.199219 0)"/>
      </g>
     </g>
    </g>
   </g>
   <g id="matplotlib.axis_2">
    <g id="ytick_1">
     <g id="line2d_11">
      <defs>
       <path id="ma32429e6f6" d="M 0 0 
L -3.5 0 
" style="stroke: #000000; stroke-width: 0.8"/>
      </defs>
      <g>
       <use xlink:href="#ma32429e6f6" x="94.5" y="218.697105" style="stroke: #000000; stroke-width: 0.8"/>
      </g>
     </g>
     <g id="text_11">
      <!-- 350 -->
      <g transform="translate(68.4125 222.496324) scale(0.1 -0.1)">
       <use xlink:href="#DejaVuSans-33"/>
       <use xlink:href="#DejaVuSans-35" transform="translate(63.623047 0)"/>
       <use xlink:href="#DejaVuSans-30" transform="translate(127.246094 0)"/>
      </g>
     </g>
    </g>
    <g id="ytick_2">
     <g id="line2d_12">
      <g>
       <use xlink:href="#ma32429e6f6" x="94.5" y="194.390409" style="stroke: #000000; stroke-width: 0.8"/>
      </g>
     </g>
     <g id="text_12">
      <!-- 375 -->
      <g transform="translate(68.4125 198.189628) scale(0.1 -0.1)">
       <use xlink:href="#DejaVuSans-33"/>
       <use xlink:href="#DejaVuSans-37" transform="translate(63.623047 0)"/>
       <use xlink:href="#DejaVuSans-35" transform="translate(127.246094 0)"/>
      </g>
     </g>
    </g>
    <g id="ytick_3">
     <g id="line2d_13">
      <g>
       <use xlink:href="#ma32429e6f6" x="94.5" y="170.083713" style="stroke: #000000; stroke-width: 0.8"/>
      </g>
     </g>
     <g id="text_13">
      <!-- 400 -->
      <g transform="translate(68.4125 173.882932) scale(0.1 -0.1)">
       <use xlink:href="#DejaVuSans-34"/>
       <use xlink:href="#DejaVuSans-30" transform="translate(63.623047 0)"/>
       <use xlink:href="#DejaVuSans-30" transform="translate(127.246094 0)"/>
      </g>
     </g>
    </g>
    <g id="ytick_4">
     <g id="line2d_14">
      <g>
       <use xlink:href="#ma32429e6f6" x="94.5" y="145.777017" style="stroke: #000000; stroke-width: 0.8"/>
      </g>
     </g>
     <g id="text_14">
      <!-- 425 -->
      <g transform="translate(68.4125 149.576236) scale(0.1 -0.1)">
       <use xlink:href="#DejaVuSans-34"/>
       <use xlink:href="#DejaVuSans-32" transform="translate(63.623047 0)"/>
       <use xlink:href="#DejaVuSans-35" transform="translate(127.246094 0)"/>
      </g>
     </g>
    </g>
    <g id="ytick_5">
     <g id="line2d_15">
      <g>
       <use xlink:href="#ma32429e6f6" x="94.5" y="121.470321" style="stroke: #000000; stroke-width: 0.8"/>
      </g>
     </g>
     <g id="text_15">
      <!-- 450 -->
      <g transform="translate(68.4125 125.26954) scale(0.1 -0.1)">
       <use xlink:href="#DejaVuSans-34"/>
       <use xlink:href="#DejaVuSans-35" transform="translate(63.623047 0)"/>
       <use xlink:href="#DejaVuSans-30" transform="translate(127.246094 0)"/>
      </g>
     </g>
    </g>
    <g id="ytick_6">
     <g id="line2d_16">
      <g>
       <use xlink:href="#ma32429e6f6" x="94.5" y="97.163625" style="stroke: #000000; stroke-width: 0.8"/>
      </g>
     </g>
     <g id="text_16">
      <!-- 475 -->
      <g transform="translate(68.4125 100.962844) scale(0.1 -0.1)">
       <use xlink:href="#DejaVuSans-34"/>
       <use xlink:href="#DejaVuSans-37" transform="translate(63.623047 0)"/>
       <use xlink:href="#DejaVuSans-35" transform="translate(127.246094 0)"/>
      </g>
     </g>
    </g>
    <g id="ytick_7">
     <g id="line2d_17">
      <g>
       <use xlink:href="#ma32429e6f6" x="94.5" y="72.85693" style="stroke: #000000; stroke-width: 0.8"/>
      </g>
     </g>
     <g id="text_17">
      <!-- 500 -->
      <g transform="translate(68.4125 76.656148) scale(0.1 -0.1)">
       <use xlink:href="#DejaVuSans-35"/>
       <use xlink:href="#DejaVuSans-30" transform="translate(63.623047 0)"/>
       <use xlink:href="#DejaVuSans-30" transform="translate(127.246094 0)"/>
      </g>
     </g>
    </g>
    <g id="ytick_8">
     <g id="line2d_18">
      <g>
       <use xlink:href="#ma32429e6f6" x="94.5" y="48.550234" style="stroke: #000000; stroke-width: 0.8"/>
      </g>
     </g>
     <g id="text_18">
      <!-- 525 -->
      <g transform="translate(68.4125 52.349452) scale(0.1 -0.1)">
       <use xlink:href="#DejaVuSans-35"/>
       <use xlink:href="#DejaVuSans-32" transform="translate(63.623047 0)"/>
       <use xlink:href="#DejaVuSans-35" transform="translate(127.246094 0)"/>
      </g>
     </g>
    </g>
   </g>
   <g id="line2d_19">
    <path d="M 121.131818 166.946719 
L 122.094994 161.254377 
L 123.05817 159.465853 
L 125.947699 160.023524 
L 126.910875 171.821796 
L 127.874051 172.3603 
L 128.837227 165.581307 
L 129.800403 168.389098 
L 132.689931 170.023718 
L 133.653107 159.677439 
L 134.616283 159.850481 
L 135.579459 150.119554 
L 136.542635 158.581204 
L 139.432163 157.715842 
L 142.321692 146.129215 
L 143.284868 146.734894 
L 146.174396 152.388842 
L 147.137572 153.552341 
L 148.100748 153.763897 
L 149.063924 154.446573 
L 152.916628 150.744579 
L 153.879804 153.754224 
L 154.84298 154.706197 
L 155.806157 157.177338 
L 156.769333 149.83115 
L 159.658861 150.725382 
L 160.622037 149.100347 
L 161.585213 152.004184 
L 162.548389 147.513795 
L 163.511565 153.311915 
L 166.401093 161.254377 
L 167.364269 160.350501 
L 168.327445 162.985161 
L 169.290621 170.264114 
L 170.253797 175.216099 
L 173.143326 173.446832 
L 174.106502 167.090951 
L 175.069678 165.658274 
L 176.032854 175.293007 
L 176.99603 168.292934 
L 179.885558 172.206454 
L 180.848734 184.629722 
L 181.81191 179.235398 
L 182.775086 176.446893 
L 183.738262 167.966016 
L 186.627791 161.350512 
L 187.590967 165.389067 
L 188.554143 164.235152 
L 189.517319 162.523595 
L 190.480495 160.196686 
L 193.370023 161.17741 
L 194.333199 158.446615 
L 195.296375 151.443545 
L 196.259551 153.45677 
L 197.222727 154.208195 
L 200.112255 149.266476 
L 201.075432 145.702335 
L 202.038608 144.27669 
L 203.001784 147.667462 
L 203.96496 144.623458 
L 207.817664 144.469345 
L 208.78084 145.577122 
L 209.744016 159.544749 
L 210.707192 159.101668 
L 213.59672 160.652555 
L 214.559896 158.19616 
L 215.523072 150.547651 
L 216.486249 150.056414 
L 217.449425 150.701793 
L 220.338953 146.829397 
L 221.302129 142.195993 
L 222.265305 134.12363 
L 223.228481 133.62272 
L 224.191657 132.669056 
L 227.081185 127.082017 
L 228.044361 129.037472 
L 229.970713 129.653951 
L 230.93389 125.723756 
L 233.823418 127.756267 
L 234.786594 124.596723 
L 235.74977 123.431176 
L 236.712946 122.76651 
L 237.676122 128.449862 
L 240.56565 119.02894 
L 241.528826 116.572575 
L 242.492002 115.137258 
L 244.418354 108.596555 
L 247.307883 109.868087 
L 248.271059 116.322091 
L 249.234235 109.858444 
L 250.197411 120.984395 
L 251.160587 122.092201 
L 254.050115 121.697217 
L 255.013291 125.974211 
L 255.976467 131.753964 
L 257.902819 137.928643 
L 261.755524 130.472789 
L 262.7187 145.83719 
L 263.681876 155.951707 
L 264.645052 149.333948 
L 267.53458 147.927531 
L 268.497756 151.597628 
L 269.460932 155.999834 
L 270.424108 157.19434 
L 271.387284 165.497901 
L 274.276812 178.348138 
L 275.239988 174.051858 
L 276.203165 175.188535 
L 277.166341 171.08497 
L 278.129517 167.87721 
L 281.019045 167.116201 
L 281.982221 160.180544 
L 282.945397 157.435181 
L 283.908573 152.687246 
L 284.871749 155.157734 
L 287.761277 152.204761 
L 288.724453 149.049134 
L 289.687629 149.685998 
L 290.650806 157.975584 
L 291.613982 156.778942 
L 294.50351 159.963558 
L 295.466686 159.625781 
L 296.429862 162.75242 
L 297.393038 160.320593 
L 298.356214 156.441194 
L 302.208918 163.871857 
L 304.13527 164.88516 
L 305.098446 171.341151 
L 307.987975 167.461753 
L 309.914327 150.747547 
L 311.840679 143.46165 
L 314.730207 142.737879 
L 315.693383 139.061135 
L 316.656559 143.249323 
L 317.619735 135.644935 
L 318.582911 138.945299 
L 321.47244 140.643741 
L 322.435616 144.831958 
L 323.398792 141.994792 
L 324.361968 142.766838 
L 325.325144 145.941782 
L 328.214672 143.741539 
L 329.177848 153.01538 
L 330.141024 156.450808 
L 332.067376 157.483427 
L 334.956904 163.775366 
L 335.920081 158.786173 
L 336.883257 156.132405 
L 337.846433 157.695695 
L 338.809609 157.232527 
L 341.699137 154.511138 
L 342.662313 154.897161 
L 343.625489 157.425538 
L 344.588665 156.846504 
L 345.551841 155.45685 
L 348.441369 154.858559 
L 349.404545 146.43388 
L 350.367722 149.242116 
L 351.330898 149.116666 
L 352.294074 145.816302 
L 355.183602 147.321703 
L 356.146778 142.149201 
L 357.109954 141.589483 
L 358.07313 166.853759 
L 359.036306 162.97439 
L 361.925834 164.817599 
L 362.88901 161.922544 
L 363.852186 153.507537 
L 364.815362 148.44117 
L 365.778539 151.23009 
L 368.668067 155.601616 
L 369.631243 150.757219 
L 370.594419 148.663111 
L 371.557595 147.0322 
L 372.520771 158.506344 
L 375.410299 157.7729 
L 376.373475 155.813944 
L 377.336651 158.033502 
L 378.299827 159.764346 
L 379.263003 155.770831 
L 382.152532 154.039959 
L 383.115708 145.143981 
L 384.078884 149.978764 
L 386.005236 149.52426 
L 388.894764 142.252784 
L 389.85794 142.040041 
L 390.821116 136.025587 
L 391.784292 130.997436 
L 392.747468 130.078844 
L 395.636997 127.709801 
L 396.600173 130.310932 
L 397.563349 124.83792 
L 398.526525 124.286777 
L 399.489701 126.501113 
L 402.379229 122.323874 
L 403.342405 119.548692 
L 404.305581 136.054576 
L 406.231933 136.818463 
L 409.121461 138.123879 
L 410.084638 134.1787 
L 412.01099 135.358399 
L 412.974166 142.687913 
L 415.863694 148.199586 
L 416.82687 151.419512 
L 418.753222 154.243029 
L 419.716398 149.630631 
L 422.605926 145.279341 
L 423.569102 150.578272 
L 424.532278 148.460634 
L 426.458631 153.885253 
L 429.348159 155.587077 
L 430.311335 157.056843 
L 431.274511 146.768482 
L 432.237687 148.441318 
L 433.200863 144.138363 
L 437.053567 144.650815 
L 438.016743 127.53572 
L 438.979919 127.042614 
L 439.943096 129.605023 
L 442.832624 138.791097 
L 443.7958 126.568764 
L 444.758976 131.277859 
L 445.722152 157.714388 
L 446.685328 157.646708 
L 449.574856 161.649865 
L 450.538032 160.247809 
L 451.501208 159.358205 
L 452.464384 156.91181 
L 453.42756 162.78123 
L 456.317089 160.392872 
L 457.280265 161.147086 
L 458.243441 163.467794 
L 459.206617 162.017344 
L 460.169793 164.057629 
L 464.022497 162.887602 
L 464.985673 157.927161 
L 465.948849 155.80522 
L 466.912025 163.478891 
L 469.801554 167.557917 
L 470.76473 173.468195 
L 471.727906 171.6951 
L 472.691082 178.67111 
L 473.654258 174.349876 
L 476.543786 182.585461 
L 477.506962 182.469209 
L 478.470138 170.445228 
L 479.433314 174.446723 
L 480.39649 177.915383 
L 483.286018 190.656311 
L 484.249194 190.375353 
L 485.212371 187.643075 
L 486.175547 192.003119 
L 487.138723 182.517632 
L 490.028251 182.381975 
L 490.991427 187.400869 
L 491.954603 183.234579 
L 492.917779 184.184148 
L 493.880955 179.901606 
L 496.770483 178.138243 
L 497.733659 176.122912 
L 498.696835 181.151479 
L 499.660012 180.560486 
L 500.623188 191.974041 
L 503.512716 195.277936 
L 504.475892 188.689462 
L 505.439068 188.737915 
L 506.402244 197.48705 
L 507.36542 210.34423 
L 510.254948 212.262655 
L 511.218124 215.46 
L 512.1813 180.64769 
L 513.144476 189.503345 
L 514.107652 182.624182 
L 516.997181 183.244311 
L 517.960357 185.259583 
L 518.923533 198.940378 
L 519.886709 202.651244 
L 523.739413 211.04186 
L 525.665765 196.246851 
L 526.628941 183.738456 
L 527.592117 179.32996 
L 530.481646 179.998513 
L 531.444822 177.208079 
L 532.407998 176.026036 
L 533.371174 146.823611 
L 534.33435 137.250921 
L 537.223878 136.388615 
L 538.187054 139.159644 
L 539.15023 139.120893 
L 540.113406 134.450815 
L 541.076582 133.908217 
L 543.96611 123.705813 
L 544.929287 123.822036 
L 545.892463 120.140277 
L 547.818815 118.043617 
L 550.708343 113.578538 
L 551.671519 114.25798 
L 552.634695 119.693755 
L 553.597871 117.470932 
L 554.561047 122.013661 
L 558.413751 111.811911 
L 559.376928 115.044239 
L 560.340104 113.762945 
L 561.30328 112.132242 
L 564.192808 110.569427 
L 566.11916 108.72518 
L 567.082336 105.026925 
L 568.045512 102.406092 
L 570.93504 100.10559 
L 571.898216 101.881919 
L 572.861392 100.231782 
L 573.824568 94.165078 
L 574.787745 97.960417 
L 577.677273 93.902991 
L 578.640449 94.970741 
L 579.603625 92.835271 
L 581.529977 95.591968 
L 584.419505 87.244197 
L 585.382681 83.254748 
L 586.345857 81.158088 
L 587.309033 76.129996 
L 588.272209 77.595697 
L 591.161738 76.168806 
L 592.124914 81.371632 
L 593.08809 82.303457 
L 594.051266 74.780755 
L 597.90397 75.86791 
L 598.867146 76.93566 
L 599.830322 70.247698 
L 600.793498 72.218167 
L 601.756674 70.432135 
L 604.646203 70.723358 
L 605.609379 68.005471 
L 606.572555 68.19961 
L 607.535731 62.297907 
L 608.498907 63.899532 
L 611.388435 63.88983 
L 612.351611 68.539346 
L 613.314787 67.956929 
L 614.277963 63.093869 
L 615.241139 60.346814 
L 618.130667 61.521381 
L 619.093843 61.453434 
L 620.05702 60.803099 
L 621.020196 41.137285 
L 621.983372 50.25188 
L 624.8729 39.06 
L 625.836076 46.718627 
L 626.799252 49.446187 
L 627.762428 53.425934 
L 628.725604 52.261159 
L 631.615132 52.523215 
L 632.578308 45.272331 
L 633.541484 53.678317 
L 634.504661 51.834071 
L 635.467837 54.076328 
L 638.357365 57.056331 
L 639.320541 64.171321 
L 640.283717 68.102526 
L 641.246893 68.734523 
L 642.210069 65.827422 
L 645.099597 68.715059 
L 646.062773 70.873495 
L 647.025949 66.303854 
L 647.989125 63.484253 
L 648.952301 66.352455 
L 652.805006 67.878923 
L 653.768182 67.655291 
L 653.768182 67.655291 
" clip-path="url(#p1a4727f4ef)" style="fill: none; stroke: #1f77b4; stroke-width: 1.5; stroke-linecap: square"/>
   </g>
   <g id="patch_3">
    <path d="M 94.5 224.28 
L 94.5 30.24 
" style="fill: none; stroke: #000000; stroke-width: 0.8; stroke-linejoin: miter; stroke-linecap: square"/>
   </g>
   <g id="patch_4">
    <path d="M 94.5 224.28 
L 680.4 224.28 
" style="fill: none; stroke: #000000; stroke-width: 0.8; stroke-linejoin: miter; stroke-linecap: square"/>
   </g>
  </g>
 </g>
 <defs>
  <clipPath id="p1a4727f4ef">
   <rect x="94.5" y="30.24" width="585.9" height="194.04"/>
  </clipPath>
 </defs>
</svg>
