<?xml version="1.0" encoding="utf-8" standalone="no"?>
<!DOCTYPE svg PUBLIC "-//W3C//DTD SVG 1.1//EN"
  "http://www.w3.org/Graphics/SVG/1.1/DTD/svg11.dtd">
<svg xmlns:xlink="http://www.w3.org/1999/xlink" width="1166.4pt" height="252pt" viewBox="0 0 1166.4 252" xmlns="http://www.w3.org/2000/svg" version="1.1">
 <metadata>
  <rdf:RDF xmlns:dc="http://purl.org/dc/elements/1.1/" xmlns:cc="http://creativecommons.org/ns#" xmlns:rdf="http://www.w3.org/1999/02/22-rdf-syntax-ns#">
   <cc:Work>
    <dc:type rdf:resource="http://purl.org/dc/dcmitype/StillImage"/>
    <dc:date>2025-09-06T14:01:18.197485</dc:date>
    <dc:format>image/svg+xml</dc:format>
    <dc:creator>
     <cc:Agent>
      <dc:title>Matplotlib v3.10.5, https://matplotlib.org/</dc:title>
     </cc:Agent>
    </dc:creator>
   </cc:Work>
  </rdf:RDF>
 </metadata>
 <defs>
  <style type="text/css">*{stroke-linejoin: round; stroke-linecap: butt}</style>
 </defs>
 <g id="figure_1">
  <g id="patch_1">
   <path d="M 0 252 
L 1166.4 252 
L 1166.4 0 
L 0 0 
z
" style="fill: #ffffff"/>
  </g>
  <g id="axes_1">
   <g id="patch_2">
    <path d="M 145.8 224.28 
L 1049.76 224.28 
L 1049.76 30.24 
L 145.8 30.24 
z
" style="fill: #ffffff"/>
   </g>
   <g id="matplotlib.axis_1">
    <g id="xtick_1">
     <g id="line2d_1">
      <defs>
       <path id="m0e78eef258" d="M 0 0 
L 0 3.5 
" style="stroke: #000000; stroke-width: 0.8"/>
      </defs>
      <g>
       <use xlink:href="#m0e78eef258" x="178.474943" y="224.28" style="stroke: #000000; stroke-width: 0.8"/>
      </g>
     </g>
     <g id="text_1">
      <!-- 2020 -->
      <g transform="translate(165.749943 238.878438) scale(0.1 -0.1)">
       <defs>
        <path id="DejaVuSans-32" d="M 1228 531 
L 3431 531 
L 3431 0 
L 469 0 
L 469 531 
Q 828 903 1448 1529 
Q 2069 2156 2228 2338 
Q 2531 2678 2651 2914 
Q 2772 3150 2772 3378 
Q 2772 3750 2511 3984 
Q 2250 4219 1831 4219 
Q 1534 4219 1204 4116 
Q 875 4013 500 3803 
L 500 4441 
Q 881 4594 1212 4672 
Q 1544 4750 1819 4750 
Q 2544 4750 2975 4387 
Q 3406 4025 3406 3419 
Q 3406 3131 3298 2873 
Q 3191 2616 2906 2266 
Q 2828 2175 2409 1742 
Q 1991 1309 1228 531 
z
" transform="scale(0.015625)"/>
        <path id="DejaVuSans-30" d="M 2034 4250 
Q 1547 4250 1301 3770 
Q 1056 3291 1056 2328 
Q 1056 1369 1301 889 
Q 1547 409 2034 409 
Q 2525 409 2770 889 
Q 3016 1369 3016 2328 
Q 3016 3291 2770 3770 
Q 2525 4250 2034 4250 
z
M 2034 4750 
Q 2819 4750 3233 4129 
Q 3647 3509 3647 2328 
Q 3647 1150 3233 529 
Q 2819 -91 2034 -91 
Q 1250 -91 836 529 
Q 422 1150 422 2328 
Q 422 3509 836 4129 
Q 1250 4750 2034 4750 
z
" transform="scale(0.015625)"/>
       </defs>
       <use xlink:href="#DejaVuSans-32"/>
       <use xlink:href="#DejaVuSans-30" transform="translate(63.623047 0)"/>
       <use xlink:href="#DejaVuSans-32" transform="translate(127.246094 0)"/>
       <use xlink:href="#DejaVuSans-30" transform="translate(190.869141 0)"/>
      </g>
     </g>
    </g>
    <g id="xtick_2">
     <g id="line2d_2">
      <g>
       <use xlink:href="#m0e78eef258" x="325.121527" y="224.28" style="stroke: #000000; stroke-width: 0.8"/>
      </g>
     </g>
     <g id="text_2">
      <!-- 2021 -->
      <g transform="translate(312.396527 238.878438) scale(0.1 -0.1)">
       <defs>
        <path id="DejaVuSans-31" d="M 794 531 
L 1825 531 
L 1825 4091 
L 703 3866 
L 703 4441 
L 1819 4666 
L 2450 4666 
L 2450 531 
L 3481 531 
L 3481 0 
L 794 0 
L 794 531 
z
" transform="scale(0.015625)"/>
       </defs>
       <use xlink:href="#DejaVuSans-32"/>
       <use xlink:href="#DejaVuSans-30" transform="translate(63.623047 0)"/>
       <use xlink:href="#DejaVuSans-32" transform="translate(127.246094 0)"/>
       <use xlink:href="#DejaVuSans-31" transform="translate(190.869141 0)"/>
      </g>
     </g>
    </g>
    <g id="xtick_3">
     <g id="line2d_3">
      <g>
       <use xlink:href="#m0e78eef258" x="471.367439" y="224.28" style="stroke: #000000; stroke-width: 0.8"/>
      </g>
     </g>
     <g id="text_3">
      <!-- 2022 -->
      <g transform="translate(458.642439 238.878438) scale(0.1 -0.1)">
       <use xlink:href="#DejaVuSans-32"/>
       <use xlink:href="#DejaVuSans-30" transform="translate(63.623047 0)"/>
       <use xlink:href="#DejaVuSans-32" transform="translate(127.246094 0)"/>
       <use xlink:href="#DejaVuSans-32" transform="translate(190.869141 0)"/>
      </g>
     </g>
    </g>
    <g id="xtick_4">
     <g id="line2d_4">
      <g>
       <use xlink:href="#m0e78eef258" x="617.61335" y="224.28" style="stroke: #000000; stroke-width: 0.8"/>
      </g>
     </g>
     <g id="text_4">
      <!-- 2023 -->
      <g transform="translate(604.88835 238.878438) scale(0.1 -0.1)">
       <defs>
        <path id="DejaVuSans-33" d="M 2597 2516 
Q 3050 2419 3304 2112 
Q 3559 1806 3559 1356 
Q 3559 666 3084 287 
Q 2609 -91 1734 -91 
Q 1441 -91 1130 -33 
Q 819 25 488 141 
L 488 750 
Q 750 597 1062 519 
Q 1375 441 1716 441 
Q 2309 441 2620 675 
Q 2931 909 2931 1356 
Q 2931 1769 2642 2001 
Q 2353 2234 1838 2234 
L 1294 2234 
L 1294 2753 
L 1863 2753 
Q 2328 2753 2575 2939 
Q 2822 3125 2822 3475 
Q 2822 3834 2567 4026 
Q 2313 4219 1838 4219 
Q 1578 4219 1281 4162 
Q 984 4106 628 3988 
L 628 4550 
Q 988 4650 1302 4700 
Q 1616 4750 1894 4750 
Q 2613 4750 3031 4423 
Q 3450 4097 3450 3541 
Q 3450 3153 3228 2886 
Q 3006 2619 2597 2516 
z
" transform="scale(0.015625)"/>
       </defs>
       <use xlink:href="#DejaVuSans-32"/>
       <use xlink:href="#DejaVuSans-30" transform="translate(63.623047 0)"/>
       <use xlink:href="#DejaVuSans-32" transform="translate(127.246094 0)"/>
       <use xlink:href="#DejaVuSans-33" transform="translate(190.869141 0)"/>
      </g>
     </g>
    </g>
    <g id="xtick_5">
     <g id="line2d_5">
      <g>
       <use xlink:href="#m0e78eef258" x="763.859261" y="224.28" style="stroke: #000000; stroke-width: 0.8"/>
      </g>
     </g>
     <g id="text_5">
      <!-- 2024 -->
      <g transform="translate(751.134261 238.878438) scale(0.1 -0.1)">
       <defs>
        <path id="DejaVuSans-34" d="M 2419 4116 
L 825 1625 
L 2419 1625 
L 2419 4116 
z
M 2253 4666 
L 3047 4666 
L 3047 1625 
L 3713 1625 
L 3713 1100 
L 3047 1100 
L 3047 0 
L 2419 0 
L 2419 1100 
L 313 1100 
L 313 1709 
L 2253 4666 
z
" transform="scale(0.015625)"/>
       </defs>
       <use xlink:href="#DejaVuSans-32"/>
       <use xlink:href="#DejaVuSans-30" transform="translate(63.623047 0)"/>
       <use xlink:href="#DejaVuSans-32" transform="translate(127.246094 0)"/>
       <use xlink:href="#DejaVuSans-34" transform="translate(190.869141 0)"/>
      </g>
     </g>
    </g>
    <g id="xtick_6">
     <g id="line2d_6">
      <g>
       <use xlink:href="#m0e78eef258" x="910.505845" y="224.28" style="stroke: #000000; stroke-width: 0.8"/>
      </g>
     </g>
     <g id="text_6">
      <!-- 2025 -->
      <g transform="translate(897.780845 238.878438) scale(0.1 -0.1)">
       <defs>
        <path id="DejaVuSans-35" d="M 691 4666 
L 3169 4666 
L 3169 4134 
L 1269 4134 
L 1269 2991 
Q 1406 3038 1543 3061 
Q 1681 3084 1819 3084 
Q 2600 3084 3056 2656 
Q 3513 2228 3513 1497 
Q 3513 744 3044 326 
Q 2575 -91 1722 -91 
Q 1428 -91 1123 -41 
Q 819 9 494 109 
L 494 744 
Q 775 591 1075 516 
Q 1375 441 1709 441 
Q 2250 441 2565 725 
Q 2881 1009 2881 1497 
Q 2881 1984 2565 2268 
Q 2250 2553 1709 2553 
Q 1456 2553 1204 2497 
Q 953 2441 691 2322 
L 691 4666 
z
" transform="scale(0.015625)"/>
       </defs>
       <use xlink:href="#DejaVuSans-32"/>
       <use xlink:href="#DejaVuSans-30" transform="translate(63.623047 0)"/>
       <use xlink:href="#DejaVuSans-32" transform="translate(127.246094 0)"/>
       <use xlink:href="#DejaVuSans-35" transform="translate(190.869141 0)"/>
      </g>
     </g>
    </g>
   </g>
   <g id="matplotlib.axis_2">
    <g id="ytick_1">
     <g id="line2d_7">
      <defs>
       <path id="m46e2cda5de" d="M 0 0 
L -3.5 0 
" style="stroke: #000000; stroke-width: 0.8"/>
      </defs>
      <g>
       <use xlink:href="#m46e2cda5de" x="145.8" y="189.376446" style="stroke: #000000; stroke-width: 0.8"/>
      </g>
     </g>
     <g id="text_7">
      <!-- 20 -->
      <g transform="translate(126.075 193.175665) scale(0.1 -0.1)">
       <use xlink:href="#DejaVuSans-32"/>
       <use xlink:href="#DejaVuSans-30" transform="translate(63.623047 0)"/>
      </g>
     </g>
    </g>
    <g id="ytick_2">
     <g id="line2d_8">
      <g>
       <use xlink:href="#m46e2cda5de" x="145.8" y="149.83784" style="stroke: #000000; stroke-width: 0.8"/>
      </g>
     </g>
     <g id="text_8">
      <!-- 40 -->
      <g transform="translate(126.075 153.637059) scale(0.1 -0.1)">
       <use xlink:href="#DejaVuSans-34"/>
       <use xlink:href="#DejaVuSans-30" transform="translate(63.623047 0)"/>
      </g>
     </g>
    </g>
    <g id="ytick_3">
     <g id="line2d_9">
      <g>
       <use xlink:href="#m46e2cda5de" x="145.8" y="110.299235" style="stroke: #000000; stroke-width: 0.8"/>
      </g>
     </g>
     <g id="text_9">
      <!-- 60 -->
      <g transform="translate(126.075 114.098454) scale(0.1 -0.1)">
       <defs>
        <path id="DejaVuSans-36" d="M 2113 2584 
Q 1688 2584 1439 2293 
Q 1191 2003 1191 1497 
Q 1191 994 1439 701 
Q 1688 409 2113 409 
Q 2538 409 2786 701 
Q 3034 994 3034 1497 
Q 3034 2003 2786 2293 
Q 2538 2584 2113 2584 
z
M 3366 4563 
L 3366 3988 
Q 3128 4100 2886 4159 
Q 2644 4219 2406 4219 
Q 1781 4219 1451 3797 
Q 1122 3375 1075 2522 
Q 1259 2794 1537 2939 
Q 1816 3084 2150 3084 
Q 2853 3084 3261 2657 
Q 3669 2231 3669 1497 
Q 3669 778 3244 343 
Q 2819 -91 2113 -91 
Q 1303 -91 875 529 
Q 447 1150 447 2328 
Q 447 3434 972 4092 
Q 1497 4750 2381 4750 
Q 2619 4750 2861 4703 
Q 3103 4656 3366 4563 
z
" transform="scale(0.015625)"/>
       </defs>
       <use xlink:href="#DejaVuSans-36"/>
       <use xlink:href="#DejaVuSans-30" transform="translate(63.623047 0)"/>
      </g>
     </g>
    </g>
    <g id="ytick_4">
     <g id="line2d_10">
      <g>
       <use xlink:href="#m46e2cda5de" x="145.8" y="70.760629" style="stroke: #000000; stroke-width: 0.8"/>
      </g>
     </g>
     <g id="text_10">
      <!-- 80 -->
      <g transform="translate(126.075 74.559848) scale(0.1 -0.1)">
       <defs>
        <path id="DejaVuSans-38" d="M 2034 2216 
Q 1584 2216 1326 1975 
Q 1069 1734 1069 1313 
Q 1069 891 1326 650 
Q 1584 409 2034 409 
Q 2484 409 2743 651 
Q 3003 894 3003 1313 
Q 3003 1734 2745 1975 
Q 2488 2216 2034 2216 
z
M 1403 2484 
Q 997 2584 770 2862 
Q 544 3141 544 3541 
Q 544 4100 942 4425 
Q 1341 4750 2034 4750 
Q 2731 4750 3128 4425 
Q 3525 4100 3525 3541 
Q 3525 3141 3298 2862 
Q 3072 2584 2669 2484 
Q 3125 2378 3379 2068 
Q 3634 1759 3634 1313 
Q 3634 634 3220 271 
Q 2806 -91 2034 -91 
Q 1263 -91 848 271 
Q 434 634 434 1313 
Q 434 1759 690 2068 
Q 947 2378 1403 2484 
z
M 1172 3481 
Q 1172 3119 1398 2916 
Q 1625 2713 2034 2713 
Q 2441 2713 2670 2916 
Q 2900 3119 2900 3481 
Q 2900 3844 2670 4047 
Q 2441 4250 2034 4250 
Q 1625 4250 1398 4047 
Q 1172 3844 1172 3481 
z
" transform="scale(0.015625)"/>
       </defs>
       <use xlink:href="#DejaVuSans-38"/>
       <use xlink:href="#DejaVuSans-30" transform="translate(63.623047 0)"/>
      </g>
     </g>
    </g>
    <g id="ytick_5">
     <g id="line2d_11">
      <g>
       <use xlink:href="#m46e2cda5de" x="145.8" y="31.222024" style="stroke: #000000; stroke-width: 0.8"/>
      </g>
     </g>
     <g id="text_11">
      <!-- 100 -->
      <g transform="translate(119.7125 35.021242) scale(0.1 -0.1)">
       <use xlink:href="#DejaVuSans-31"/>
       <use xlink:href="#DejaVuSans-30" transform="translate(63.623047 0)"/>
       <use xlink:href="#DejaVuSans-30" transform="translate(127.246094 0)"/>
      </g>
     </g>
    </g>
   </g>
   <g id="line2d_12">
    <path d="M 186.889091 103.0425 
L 187.289765 99.304866 
L 187.690438 97.153801 
L 188.89246 115.216432 
L 189.293133 96.724666 
L 189.693807 96.529054 
L 190.094481 89.691358 
L 190.495154 98.65107 
L 191.697176 93.713317 
L 192.097849 78.925447 
L 192.498523 81.373429 
L 192.899197 80.303251 
L 193.299871 81.270228 
L 194.501892 72.653646 
L 194.902565 85.625551 
L 195.303239 86.622455 
L 195.703913 84.218525 
L 196.104587 71.791255 
L 197.707282 73.185381 
L 198.107955 75.550611 
L 198.508629 94.700703 
L 198.909303 106.580859 
L 200.111324 137.391906 
L 200.511998 160.303396 
L 200.912671 153.091184 
L 201.313345 181.510386 
L 201.714019 171.092746 
L 202.91604 156.53762 
L 203.316714 161.28012 
L 203.717388 150.127662 
L 204.118061 153.792112 
L 204.518735 161.308609 
L 205.720756 173.206528 
L 206.12143 158.24935 
L 206.522104 161.480305 
L 206.922777 167.059968 
L 207.323451 140.196719 
L 208.525472 153.406023 
L 208.926146 145.901116 
L 209.32682 142.487217 
L 209.727493 143.695211 
L 210.128167 156.098518 
L 211.330188 152.157431 
L 211.730862 146.453201 
L 212.131536 144.654667 
L 212.53221 134.048056 
L 212.932883 130.76229 
L 214.134904 130.587935 
L 214.535578 126.881441 
L 214.936252 119.09682 
L 215.336926 133.564148 
L 215.737599 107.024828 
L 216.939621 106.747531 
L 217.340294 99.584157 
L 217.740968 100.201457 
L 218.141642 90.171007 
L 219.744337 87.04812 
L 220.14501 90.703849 
L 220.545684 91.566461 
L 220.946358 95.616275 
L 221.347032 78.317153 
L 222.549053 99.662007 
L 222.949727 111.188127 
L 223.3504 90.160779 
L 223.751074 99.338191 
L 224.151748 91.914629 
L 225.754443 116.247554 
L 226.155116 106.312861 
L 226.55579 103.802767 
L 226.956464 114.417487 
L 228.158485 120.536162 
L 228.559159 113.631143 
L 228.959832 119.199789 
L 229.360506 120.088181 
L 229.76118 109.86228 
L 230.963201 85.412931 
L 231.363875 108.078137 
L 231.764549 110.01987 
L 232.165222 114.802393 
L 232.565896 108.024669 
L 233.767917 91.158549 
L 234.168591 110.928932 
L 234.569265 109.063945 
L 234.969938 99.582114 
L 235.370612 110.516535 
L 236.973307 125.108209 
L 237.774654 137.039574 
L 238.175328 133.733443 
L 239.377349 144.578831 
L 239.778023 116.362585 
L 240.178697 97.710152 
L 240.579371 116.00635 
L 240.980044 109.613933 
L 242.182066 111.757579 
L 242.983413 87.662491 
L 243.384087 121.907799 
L 243.78476 118.38594 
L 244.986782 109.283963 
L 245.387455 100.594802 
L 245.788129 98.098911 
L 246.188803 97.713582 
L 246.589477 100.132665 
L 248.192171 93.642131 
L 248.592845 98.379915 
L 248.993519 101.050597 
L 249.394193 113.521547 
L 250.596214 112.379409 
L 250.996888 115.831779 
L 251.397561 80.739174 
L 251.798235 80.618702 
L 253.40093 76.643495 
L 253.801604 91.962886 
L 254.202277 86.306823 
L 254.602951 87.091874 
L 255.003625 85.287791 
L 256.205646 114.792653 
L 256.60632 114.911939 
L 257.006993 103.702622 
L 257.407667 121.190805 
L 257.808341 112.517716 
L 259.010362 100.164607 
L 259.411036 117.521151 
L 259.81171 113.896168 
L 260.212383 137.315561 
L 260.613057 149.613234 
L 261.815078 139.197946 
L 262.215752 153.871835 
L 262.616426 152.387397 
L 263.017099 151.553063 
L 263.417773 135.228837 
L 264.619794 113.783017 
L 265.020468 120.212021 
L 265.821816 104.088827 
L 266.222489 128.193851 
L 267.42451 131.102832 
L 267.825184 146.732131 
L 268.225858 115.855913 
L 268.626532 113.992363 
L 269.027205 118.500222 
L 270.229227 110.947465 
L 270.6299 112.527778 
L 271.030574 115.568233 
L 271.431248 108.748713 
L 271.831921 138.138507 
L 273.033943 127.421776 
L 273.434616 119.141851 
L 273.83529 116.173142 
L 274.636638 74.34118 
L 275.838659 68.00407 
L 276.239332 72.665936 
L 276.640006 65.480678 
L 277.04068 112.481817 
L 277.441354 121.511577 
L 279.044049 143.311726 
L 279.444722 127.80555 
L 279.845396 142.983551 
L 280.24607 142.714426 
L 281.448091 141.59928 
L 281.848765 140.689272 
L 282.650112 164.818261 
L 283.050786 171.820642 
L 284.252807 164.349423 
L 284.653481 158.328627 
L 285.054155 172.781041 
L 285.454828 153.263597 
L 285.855502 140.367942 
L 287.057523 117.115676 
L 287.458197 138.86406 
L 287.858871 118.516108 
L 288.259544 110.793278 
L 288.660218 128.466173 
L 289.862239 126.836922 
L 290.262913 128.357443 
L 290.663587 116.776399 
L 291.06426 109.798014 
L 291.464934 105.211775 
L 292.666955 104.229593 
L 293.067629 84.312734 
L 293.868977 103.518335 
L 295.471671 115.021002 
L 296.273019 124.440672 
L 296.673693 105.441902 
L 297.074366 112.037735 
L 298.677061 119.824301 
L 299.077735 148.305129 
L 299.478409 157.72969 
L 299.879082 181.629863 
L 301.081104 188.098935 
L 301.481777 168.545889 
L 301.882451 137.121243 
L 302.683799 110.390387 
L 303.88582 123.042953 
L 304.286494 136.32808 
L 304.687167 127.555737 
L 305.087841 131.26859 
L 305.488515 119.47386 
L 306.690536 123.231447 
L 307.09121 106.658612 
L 307.491883 116.545439 
L 307.892557 109.140074 
L 308.293231 113.546622 
L 309.495252 121.302203 
L 309.895926 134.761384 
L 310.296599 155.375145 
L 311.097947 152.114207 
L 312.299968 141.913537 
L 312.700642 108.263728 
L 313.101316 132.909262 
L 313.501989 133.011763 
L 313.902663 137.723987 
L 315.104684 141.906388 
L 315.505358 118.956717 
L 315.906032 126.538238 
L 316.306705 139.412299 
L 316.707379 116.435901 
L 317.9094 111.238382 
L 318.310074 128.568291 
L 318.710748 106.746945 
L 319.111421 110.991074 
L 319.512095 109.17133 
L 320.714116 102.932453 
L 321.11479 94.400604 
L 321.515464 103.828286 
L 321.916138 99.522625 
L 323.518832 94.060038 
L 323.919506 101.717398 
L 324.720854 85.000931 
L 326.323549 114.47999 
L 326.724222 116.701189 
L 327.124896 135.710074 
L 327.926244 129.504044 
L 329.128265 133.062127 
L 329.528938 151.776359 
L 329.929612 151.569128 
L 330.330286 152.444545 
L 330.73096 159.449055 
L 332.333655 153.75171 
L 332.734328 129.628241 
L 333.135002 122.099786 
L 333.535676 121.56845 
L 334.737697 100.736723 
L 335.138371 96.499387 
L 335.539044 75.506123 
L 335.939718 75.518019 
L 336.340392 101.72817 
L 337.542413 84.997804 
L 337.943087 77.455906 
L 338.34376 75.463218 
L 338.744434 67.678739 
L 339.145108 66.223336 
L 340.347129 69.140803 
L 340.747803 76.164747 
L 341.148477 80.988768 
L 341.54915 80.05151 
L 341.949824 84.532954 
L 343.552519 95.001791 
L 343.953193 94.036709 
L 344.353866 110.164038 
L 344.75454 88.564136 
L 345.956561 151.152904 
L 346.357235 154.936454 
L 347.158583 179.377115 
L 347.559256 162.554507 
L 348.761277 145.203756 
L 349.562625 166.75546 
L 349.963299 173.90977 
L 350.363972 159.454198 
L 351.565994 163.861256 
L 351.966667 150.107016 
L 352.367341 151.537128 
L 352.768015 137.066465 
L 353.168688 127.575348 
L 354.37071 126.953065 
L 354.771383 123.880839 
L 355.172057 112.614876 
L 355.572731 133.450321 
L 355.973405 144.762765 
L 357.175426 125.600466 
L 357.576099 106.587298 
L 357.976773 110.217407 
L 358.377447 128.315229 
L 358.778121 108.495518 
L 360.380816 131.530724 
L 360.781489 133.630531 
L 361.182163 114.87543 
L 362.784858 101.136692 
L 363.185532 108.735467 
L 363.586205 103.804675 
L 363.986879 81.047659 
L 364.387553 77.181586 
L 365.589574 83.276096 
L 365.990248 82.079581 
L 366.390922 84.691442 
L 366.791595 69.927956 
L 367.192269 72.617133 
L 368.39429 75.412176 
L 368.794964 64.129333 
L 369.195638 65.515276 
L 369.596311 87.997544 
L 369.996985 92.84686 
L 371.199006 86.7934 
L 371.59968 89.829557 
L 372.000354 126.227255 
L 372.401027 140.024852 
L 372.801701 141.097371 
L 374.404396 153.909114 
L 374.80507 173.361709 
L 375.205744 164.324374 
L 375.606417 149.168798 
L 376.808438 159.431166 
L 377.209112 169.546699 
L 377.609786 175.252111 
L 378.01046 175.071246 
L 378.411133 159.820202 
L 379.613155 165.327503 
L 380.013828 157.241912 
L 380.414502 151.717084 
L 380.815176 141.768268 
L 381.215849 143.719838 
L 382.417871 122.381597 
L 382.818544 117.40529 
L 383.219218 124.622921 
L 383.619892 136.135467 
L 384.020566 121.856847 
L 385.62326 125.582541 
L 386.023934 101.998798 
L 386.424608 118.924195 
L 386.825282 119.010302 
L 388.027303 98.472014 
L 388.427977 94.475148 
L 388.82865 93.537475 
L 389.229324 92.905976 
L 389.629998 85.09953 
L 390.832019 93.087166 
L 391.232693 103.751994 
L 391.633366 107.405816 
L 392.03404 87.68483 
L 392.434714 95.807768 
L 394.438083 66.635452 
L 394.838756 71.468123 
L 395.23943 86.563651 
L 396.441451 72.912733 
L 396.842125 70.573898 
L 397.242799 79.000655 
L 397.643472 78.910435 
L 398.044146 72.586429 
L 399.646841 64.329546 
L 400.047515 56.528833 
L 400.448188 74.336245 
L 400.848862 65.530354 
L 402.050883 73.721328 
L 402.451557 72.472815 
L 402.852231 68.857168 
L 403.252905 79.263335 
L 403.653578 71.416221 
L 404.855599 99.204377 
L 405.256273 100.165075 
L 406.057621 84.872282 
L 406.458294 89.489671 
L 407.660316 92.40178 
L 408.060989 108.38319 
L 408.461663 98.936016 
L 408.862337 99.522461 
L 409.263011 103.900346 
L 410.465032 114.946259 
L 410.865705 112.454272 
L 411.266379 108.40169 
L 411.667053 98.807223 
L 412.067727 78.899355 
L 413.269748 91.127487 
L 414.071095 125.729291 
L 414.471769 129.290498 
L 414.872443 111.473826 
L 416.074464 89.086541 
L 416.475138 97.216045 
L 416.875811 108.710993 
L 417.276485 83.911216 
L 417.677159 71.788853 
L 418.87918 74.326784 
L 419.680527 88.593183 
L 420.081201 100.41597 
L 420.481875 94.779546 
L 421.683896 80.696181 
L 422.08457 88.302343 
L 422.485244 93.327255 
L 422.885917 102.243728 
L 423.286591 106.458061 
L 424.889286 104.119827 
L 425.28996 95.894058 
L 425.690633 128.119376 
L 426.091307 176.81751 
L 427.293328 169.340827 
L 428.094676 118.7176 
L 428.495349 102.463448 
L 428.896023 129.51225 
L 430.098044 162.436733 
L 430.498718 155.83576 
L 430.899392 140.468287 
L 431.300066 135.107276 
L 431.700739 135.705114 
L 432.902761 146.75108 
L 433.303434 165.753889 
L 433.704108 160.004374 
L 434.104782 160.844609 
L 434.505455 145.607302 
L 435.707477 160.955646 
L 436.10815 159.465999 
L 436.508824 150.724915 
L 437.310172 128.953612 
L 438.512193 131.220898 
L 438.912866 142.195524 
L 439.31354 136.63677 
L 441.316909 76.48649 
L 441.717583 76.016655 
L 442.118256 71.541701 
L 442.51893 75.478961 
L 442.919604 56.140073 
L 444.522299 69.710236 
L 444.922972 58.584553 
L 445.323646 57.784175 
L 445.72432 51.416561 
L 446.926341 54.752246 
L 447.327015 54.591235 
L 447.727688 57.643166 
L 448.128362 57.04965 
L 448.529036 60.588878 
L 449.731057 60.596121 
L 450.131731 61.495762 
L 450.532405 83.937018 
L 451.333752 68.938767 
L 452.535773 72.918013 
L 452.936447 84.287613 
L 453.337121 85.755389 
L 453.737794 95.30533 
L 454.138468 80.769298 
L 455.340489 104.525594 
L 455.741163 115.72479 
L 456.141837 122.537739 
L 456.943184 146.257187 
L 458.145205 129.456066 
L 458.545879 140.216802 
L 458.946553 130.344101 
L 459.347227 135.753458 
L 459.7479 160.338379 
L 460.949922 150.29109 
L 461.350595 137.825656 
L 461.751269 138.20613 
L 462.151943 146.178245 
L 462.552616 131.044396 
L 463.754638 130.806533 
L 464.155311 143.951861 
L 464.555985 134.508226 
L 464.956659 136.444934 
L 465.357333 148.650246 
L 466.559354 146.039484 
L 466.960027 133.8478 
L 467.360701 125.384398 
L 467.761375 114.317944 
L 469.36407 109.431101 
L 469.764744 121.174527 
L 470.165417 120.351037 
L 470.566091 121.500839 
L 470.966765 139.48103 
L 472.168786 137.278479 
L 472.56946 128.934974 
L 472.970133 157.959229 
L 473.370807 149.012672 
L 473.771481 147.125269 
L 474.973502 140.607181 
L 475.374176 156.389012 
L 475.77485 163.90869 
L 476.175523 183.216834 
L 476.576197 189.955659 
L 478.178892 194.107827 
L 478.579566 194.162756 
L 478.980239 193.629537 
L 479.380913 195.110549 
L 480.582934 193.297311 
L 480.983608 194.523923 
L 481.384282 163.747973 
L 481.784955 153.848611 
L 482.185629 138.644591 
L 483.38765 134.774108 
L 483.788324 138.774754 
L 484.589672 135.026884 
L 484.990345 136.07871 
L 486.192366 132.557925 
L 486.59304 128.342271 
L 486.993714 117.461834 
L 487.394388 122.083974 
L 487.795061 131.604223 
L 488.997083 121.794346 
L 489.397756 125.11432 
L 489.79843 129.686374 
L 490.199104 153.114674 
L 490.599777 160.601107 
L 492.202472 158.65893 
L 492.603146 173.954162 
L 493.00382 137.980878 
L 493.404494 140.829508 
L 494.606515 132.242616 
L 495.007189 142.713022 
L 495.407862 144.975323 
L 495.808536 139.043832 
L 496.20921 137.239834 
L 497.411231 150.770679 
L 497.811905 163.238527 
L 498.212578 143.040645 
L 498.613252 136.585666 
L 499.013926 139.698357 
L 500.215947 143.326469 
L 500.616621 122.283894 
L 501.017294 130.314903 
L 501.417968 132.703894 
L 501.818642 128.094471 
L 503.020663 124.837367 
L 503.822011 125.630273 
L 504.222684 112.03642 
L 504.623358 93.811396 
L 505.825379 81.882765 
L 506.226053 88.212212 
L 506.626727 85.13539 
L 507.0274 85.204793 
L 507.428074 75.462842 
L 508.630095 79.648502 
L 509.030769 98.350572 
L 509.431443 123.238401 
L 510.23279 133.575412 
L 511.434811 157.181391 
L 512.236159 153.982201 
L 512.636833 161.297795 
L 514.239528 173.203003 
L 514.640201 173.059711 
L 515.040875 169.613007 
L 515.441549 169.61298 
L 515.842222 177.080813 
L 517.044244 174.879899 
L 517.444917 179.10599 
L 517.845591 149.322268 
L 518.246265 143.237606 
L 518.646939 150.130705 
L 519.84896 130.92609 
L 520.249633 130.374138 
L 520.650307 127.565503 
L 521.050981 132.568936 
L 521.451655 135.793511 
L 522.653676 149.511371 
L 523.05435 145.33 
L 523.455023 147.85394 
L 523.855697 146.700307 
L 524.256371 147.665238 
L 525.458392 138.689655 
L 525.859066 147.631677 
L 526.259739 165.314932 
L 526.660413 157.138791 
L 527.061087 168.527706 
L 528.263108 153.678883 
L 528.663782 167.415748 
L 529.064455 150.428803 
L 529.465129 141.696445 
L 529.865803 116.354335 
L 531.468498 125.390498 
L 532.269845 92.316232 
L 532.670519 111.536128 
L 533.87254 115.015418 
L 534.273214 117.623807 
L 534.673888 89.724077 
L 535.074561 104.300395 
L 535.475235 129.308317 
L 536.677256 161.115433 
L 537.07793 155.098701 
L 537.478604 146.655897 
L 537.879278 160.704719 
L 538.279951 170.302214 
L 539.882646 156.58279 
L 540.28332 158.25415 
L 540.683994 151.886397 
L 541.084667 133.105882 
L 542.286689 135.021124 
L 542.687362 149.450666 
L 543.088036 142.099859 
L 543.48871 139.758446 
L 543.889383 121.040148 
L 545.492078 98.607026 
L 545.892752 97.450179 
L 546.293426 102.989261 
L 546.6941 89.058705 
L 547.896121 99.855488 
L 548.296794 130.184014 
L 548.697468 130.741185 
L 549.098142 138.523788 
L 549.498816 151.915117 
L 550.700837 151.384472 
L 551.101511 123.544296 
L 551.502184 125.670127 
L 551.902858 112.199866 
L 552.303532 128.394016 
L 553.505553 139.038384 
L 553.906227 159.617279 
L 554.3069 129.530867 
L 555.108248 107.354674 
L 556.310269 91.585857 
L 556.710943 96.33602 
L 557.111617 90.571628 
L 557.51229 91.816703 
L 557.912964 88.321617 
L 559.114985 98.535137 
L 559.515659 99.329421 
L 560.317006 90.357026 
L 560.71768 83.168784 
L 561.919701 66.213717 
L 562.721049 92.967555 
L 563.121722 104.069472 
L 563.522396 108.174871 
L 564.724417 122.289281 
L 565.125091 144.085875 
L 565.525765 149.064158 
L 565.926439 138.600185 
L 566.327112 153.89638 
L 567.529133 163.191843 
L 567.929807 186.793509 
L 568.330481 186.184196 
L 568.731155 206.168997 
L 569.131828 214.816668 
L 570.734523 215.46 
L 571.135197 197.061789 
L 571.535871 194.82722 
L 571.936544 172.751991 
L 573.138566 154.993337 
L 573.539239 172.195012 
L 573.939913 170.978259 
L 574.340587 184.545533 
L 574.741261 175.673439 
L 575.943282 172.74326 
L 576.343955 172.519938 
L 576.744629 174.785717 
L 577.145303 167.90052 
L 577.545977 166.321574 
L 578.747998 163.213181 
L 579.148672 179.537237 
L 579.549345 166.343375 
L 579.950019 189.052206 
L 580.350693 200.168715 
L 581.552714 157.344068 
L 582.354061 121.112369 
L 582.754735 125.455881 
L 583.155409 148.130088 
L 584.35743 152.116073 
L 584.758104 152.554809 
L 585.158778 156.100569 
L 585.559451 135.818681 
L 585.960125 142.902523 
L 587.162146 128.619453 
L 587.56282 133.562392 
L 587.963494 131.48539 
L 588.364167 125.265907 
L 588.764841 127.97063 
L 589.966862 132.666881 
L 590.367536 127.85166 
L 590.76821 148.709919 
L 591.168883 140.066659 
L 591.569557 121.698537 
L 592.771578 121.561211 
L 593.172252 127.140644 
L 593.572926 147.264499 
L 593.9736 147.434954 
L 594.374273 150.105918 
L 595.576294 142.411239 
L 595.976968 139.01184 
L 596.377642 143.122413 
L 596.778316 129.223848 
L 597.178989 130.207417 
L 598.381011 138.91512 
L 598.781684 117.365336 
L 599.182358 110.408472 
L 599.583032 120.859314 
L 599.983706 115.523104 
L 601.185727 107.316298 
L 601.987074 68.791533 
L 602.788422 74.700767 
L 603.990443 99.492924 
L 604.391117 104.832863 
L 604.79179 76.672115 
L 605.192464 99.368255 
L 605.593138 106.516974 
L 606.795159 104.011708 
L 607.195833 120.615867 
L 607.596506 123.602835 
L 607.99718 117.022865 
L 608.397854 120.81414 
L 609.599875 109.842974 
L 610.000549 107.703445 
L 610.401222 111.124645 
L 610.801896 127.49672 
L 611.20257 124.98836 
L 612.404591 129.870251 
L 612.805265 158.511445 
L 613.205939 150.961953 
L 613.606612 160.621142 
L 614.007286 152.667101 
L 615.609981 147.281234 
L 616.010655 150.10669 
L 616.411328 142.217527 
L 616.812002 140.879816 
L 618.414697 158.886628 
L 618.815371 184.608492 
L 619.216045 190.7034 
L 619.616718 176.448481 
L 620.818739 165.375083 
L 621.620087 141.476075 
L 622.020761 141.24441 
L 622.421434 127.873781 
L 624.024129 126.691649 
L 624.424803 132.333416 
L 624.825477 135.045298 
L 625.22615 131.529498 
L 626.428172 125.073781 
L 626.828845 125.641022 
L 627.229519 105.265487 
L 627.630193 75.423251 
L 628.030867 77.893974 
L 629.232888 97.468165 
L 629.633561 93.05966 
L 630.034235 95.575858 
L 630.434909 85.427607 
L 630.835583 100.211603 
L 632.037604 104.612806 
L 632.438278 85.240978 
L 632.838951 78.696603 
L 633.239625 92.629086 
L 633.640299 96.229201 
L 635.242994 83.535198 
L 636.044341 109.041702 
L 636.445015 106.644873 
L 638.04771 122.061254 
L 638.448383 131.010237 
L 638.849057 146.454747 
L 639.249731 145.421612 
L 640.451752 140.995967 
L 640.852426 169.348718 
L 641.2531 172.336933 
L 641.653773 154.460926 
L 642.054447 143.747206 
L 643.657142 166.583176 
L 644.057816 164.212368 
L 644.458489 154.71127 
L 644.859163 154.027539 
L 646.061184 126.901215 
L 646.461858 109.556592 
L 646.862532 107.195164 
L 647.263206 78.102872 
L 647.663879 76.100276 
L 648.8659 92.53425 
L 649.266574 83.561512 
L 649.667248 92.08656 
L 650.468595 89.42564 
L 651.670617 92.894593 
L 652.07129 94.486421 
L 652.471964 86.33159 
L 652.872638 74.887589 
L 653.273311 75.642855 
L 654.475333 83.926258 
L 654.876006 88.775059 
L 655.27668 111.83165 
L 655.677354 105.084915 
L 657.280049 90.768025 
L 657.680722 111.497629 
L 658.081396 106.682746 
L 658.48207 105.15225 
L 658.882744 118.857422 
L 660.084765 104.266169 
L 660.485439 102.351025 
L 660.886112 111.229329 
L 661.68746 136.935714 
L 662.889481 143.738757 
L 663.290155 155.460184 
L 663.690828 112.732237 
L 664.091502 109.977266 
L 664.492176 103.022226 
L 665.694197 92.90103 
L 666.094871 93.920508 
L 666.495545 103.709493 
L 666.896218 93.37492 
L 667.296892 90.432072 
L 668.498913 94.310555 
L 668.899587 98.251843 
L 669.300261 87.333126 
L 669.700934 91.527389 
L 670.101608 84.957526 
L 671.303629 67.457385 
L 671.704303 85.208323 
L 672.104977 97.10555 
L 672.50565 92.735432 
L 672.906324 85.868441 
L 674.108345 80.477813 
L 674.509019 99.832087 
L 674.909693 106.428465 
L 675.71104 80.70949 
L 677.313735 80.809292 
L 677.714409 95.149295 
L 678.115083 83.79252 
L 678.515756 77.663774 
L 679.717778 77.617431 
L 680.118451 86.364232 
L 680.519125 114.224634 
L 680.919799 118.146065 
L 681.320472 115.4738 
L 682.522494 112.32766 
L 682.923167 96.460385 
L 683.323841 89.764515 
L 683.724515 91.126782 
L 684.125189 113.133666 
L 685.727884 118.350828 
L 686.128557 121.460906 
L 686.529231 118.576937 
L 686.929905 130.662818 
L 688.131926 140.571456 
L 688.5326 128.859979 
L 688.933273 110.739517 
L 689.333947 114.632086 
L 689.734621 109.676308 
L 690.936642 120.606119 
L 691.737989 123.900623 
L 692.138663 123.79591 
L 692.539337 149.544371 
L 693.741358 148.994303 
L 694.142032 140.841257 
L 694.542706 123.073924 
L 694.943379 124.322794 
L 695.344053 109.299525 
L 696.546074 90.423314 
L 696.946748 81.291125 
L 698.148769 124.624872 
L 699.35079 117.816073 
L 699.751464 109.986156 
L 700.152138 134.792189 
L 700.552811 138.495827 
L 700.953485 121.83337 
L 702.155506 125.822281 
L 702.55618 131.187124 
L 702.956854 148.946208 
L 703.357528 153.723347 
L 703.758201 152.737444 
L 704.960223 173.517119 
L 705.360896 173.225473 
L 706.162244 164.573621 
L 706.562917 169.58728 
L 707.764939 176.428615 
L 708.566286 153.810484 
L 708.96696 187.202035 
L 709.367634 184.685721 
L 710.569655 165.025169 
L 711.371002 127.103225 
L 711.771676 147.546907 
L 712.17235 145.600595 
L 713.374371 134.434779 
L 713.775045 112.455459 
L 714.175718 113.133046 
L 714.576392 110.383003 
L 714.977066 115.162219 
L 716.579761 97.797993 
L 716.980434 97.416122 
L 717.381108 95.473463 
L 717.781782 87.376679 
L 718.983803 89.838518 
L 719.384477 109.641129 
L 719.78515 110.078606 
L 720.185824 84.253281 
L 720.586498 114.470354 
L 721.788519 118.630476 
L 722.189193 129.50401 
L 722.589867 146.077327 
L 722.99054 146.426974 
L 723.391214 152.494133 
L 724.593235 163.746508 
L 724.993909 169.706522 
L 725.394583 164.324745 
L 725.795256 174.50491 
L 726.19593 179.547606 
L 727.397951 152.359763 
L 727.798625 176.434363 
L 728.199299 168.133967 
L 728.599973 154.92903 
L 729.000646 133.632555 
L 730.202667 127.847441 
L 730.603341 113.557762 
L 731.004015 103.748966 
L 731.404689 100.404089 
L 731.805362 109.943734 
L 733.007384 89.18152 
L 733.408057 91.580569 
L 733.808731 97.888301 
L 734.209405 99.095681 
L 734.610078 120.099895 
L 735.8121 93.044644 
L 736.212773 100.106472 
L 736.613447 86.102326 
L 737.014121 128.888915 
L 737.414795 130.087561 
L 738.616816 114.924114 
L 739.017489 119.840494 
L 739.418163 106.178079 
L 739.818837 96.433618 
L 740.219511 96.900377 
L 741.421532 91.814809 
L 741.822206 84.006702 
L 742.222879 82.851986 
L 743.024227 73.837635 
L 744.226248 80.923877 
L 744.626922 85.844585 
L 745.027595 51.53409 
L 745.428269 49.928905 
L 745.828943 72.29322 
L 747.030964 67.90963 
L 747.431638 84.47732 
L 747.832312 82.320889 
L 748.633659 87.275064 
L 749.83568 89.819911 
L 750.236354 89.717414 
L 750.637028 101.793877 
L 751.037701 95.909933 
L 751.438375 119.080729 
L 752.640396 124.057205 
L 753.04107 124.41587 
L 753.842417 140.052668 
L 754.243091 121.167602 
L 755.445112 143.868462 
L 755.845786 127.03535 
L 756.24646 139.1398 
L 756.647134 154.812344 
L 757.047807 145.784946 
L 758.249828 151.030939 
L 758.650502 142.58376 
L 759.051176 147.604075 
L 759.852523 116.927656 
L 761.455218 124.445669 
L 761.855892 114.964703 
L 762.256566 117.311378 
L 762.657239 124.302651 
L 764.259934 131.346068 
L 764.660608 142.335102 
L 765.061282 149.264774 
L 765.461956 122.83189 
L 766.663977 115.570979 
L 767.064651 118.212783 
L 767.865998 86.478823 
L 768.266672 84.923676 
L 769.869367 83.70353 
L 770.27004 87.226171 
L 770.670714 78.537344 
L 771.071388 74.451036 
L 772.273409 82.980235 
L 772.674083 61.129293 
L 773.074756 57.578252 
L 773.47543 45.627107 
L 773.876104 48.752971 
L 775.078125 49.223681 
L 775.478799 54.42309 
L 775.879473 98.848388 
L 776.280146 93.119378 
L 776.68082 89.055344 
L 777.882841 104.125619 
L 778.283515 102.747627 
L 778.684189 97.957799 
L 779.084862 103.470676 
L 779.485536 91.530339 
L 780.687557 105.020148 
L 781.088231 124.746948 
L 781.488905 122.630227 
L 781.889578 125.517522 
L 782.290252 136.98934 
L 783.892947 137.17547 
L 784.293621 121.251887 
L 784.694295 116.56872 
L 785.094968 130.278485 
L 786.296989 125.256619 
L 786.697663 125.065607 
L 787.098337 142.080129 
L 787.499011 129.505284 
L 787.899684 139.038745 
L 789.101706 129.073983 
L 789.502379 136.378815 
L 789.903053 147.328172 
L 790.303727 124.584182 
L 790.704401 125.517964 
L 791.906422 126.457019 
L 792.307095 107.548703 
L 792.707769 122.994781 
L 793.108443 104.273338 
L 793.509117 116.140226 
L 794.711138 114.837555 
L 795.111812 110.083168 
L 795.512485 112.607292 
L 795.913159 109.874088 
L 796.313833 109.961677 
L 797.515854 97.612057 
L 797.916528 98.984299 
L 798.317201 108.128402 
L 798.717875 103.106913 
L 800.32057 94.236284 
L 800.721244 117.297889 
L 801.121917 119.162571 
L 801.522591 147.790482 
L 801.923265 107.456725 
L 803.125286 112.017297 
L 803.52596 117.20069 
L 803.926634 135.387329 
L 804.327307 133.901159 
L 804.727981 145.962184 
L 805.930002 150.357351 
L 806.330676 145.720235 
L 806.73135 150.164832 
L 807.132023 160.163609 
L 807.532697 175.535039 
L 808.734718 167.529438 
L 809.135392 151.4086 
L 809.536066 144.951309 
L 809.93674 173.00597 
L 810.337413 156.898616 
L 811.539434 164.152157 
L 811.940108 172.207881 
L 812.340782 170.562009 
L 812.741456 160.795141 
L 813.142129 138.918565 
L 814.344151 131.293804 
L 814.744824 132.963553 
L 815.546172 112.814246 
L 815.946845 112.193237 
L 817.148867 121.459305 
L 817.54954 119.766316 
L 817.950214 94.651302 
L 818.350888 106.252129 
L 818.751562 99.611621 
L 819.953583 61.436026 
L 820.75493 63.45694 
L 821.155604 83.021967 
L 821.556278 87.756398 
L 823.158973 71.309805 
L 823.559646 77.593418 
L 823.96032 123.856813 
L 824.360994 127.690618 
L 825.563015 128.942744 
L 825.963689 129.528228 
L 826.364362 128.162316 
L 826.765036 122.588805 
L 827.16571 122.33751 
L 828.367731 124.563847 
L 828.768405 122.33757 
L 829.569752 101.496339 
L 829.970426 104.655519 
L 831.172447 96.97301 
L 831.573121 99.092212 
L 832.374468 55.13062 
L 832.775142 53.187885 
L 833.977163 55.138046 
L 834.377837 54.756712 
L 834.778511 58.812798 
L 835.179184 58.686154 
L 835.579858 78.710918 
L 836.781879 73.264134 
L 837.182553 75.245281 
L 837.583227 82.630778 
L 838.384574 75.821916 
L 839.586595 80.987178 
L 839.987269 107.335959 
L 840.387943 93.110046 
L 840.788617 116.202859 
L 841.18929 123.982489 
L 842.391312 119.62438 
L 843.192659 143.11122 
L 843.593333 148.225869 
L 843.994006 144.963715 
L 845.196028 152.286827 
L 845.596701 153.563095 
L 846.398049 191.672075 
L 846.798723 178.034204 
L 848.000744 171.022582 
L 848.401417 186.209741 
L 848.802091 181.909063 
L 849.202765 181.970003 
L 849.603439 187.980468 
L 850.80546 192.19178 
L 851.206134 181.149398 
L 851.606807 180.015662 
L 852.007481 170.571913 
L 852.408155 174.846642 
L 853.610176 176.847871 
L 854.01085 150.616135 
L 854.411523 132.447793 
L 854.812197 135.615015 
L 855.212871 141.81821 
L 856.414892 131.066955 
L 856.815566 118.396084 
L 857.21624 117.339093 
L 857.616913 117.312456 
L 858.017587 84.352195 
L 859.219608 99.478966 
L 859.620282 95.673941 
L 860.020956 111.242 
L 860.421629 112.686813 
L 860.822303 107.175062 
L 862.825672 145.571737 
L 863.226345 160.131592 
L 863.627019 166.349081 
L 864.82904 163.568145 
L 865.229714 150.272307 
L 866.031062 109.642754 
L 866.431735 106.452201 
L 867.633756 98.110308 
L 868.03443 94.165655 
L 868.435104 96.645692 
L 868.835778 91.261459 
L 869.236451 102.29716 
L 870.438473 89.460292 
L 870.839146 97.95412 
L 871.23982 93.896979 
L 871.640494 80.402062 
L 872.041168 92.194373 
L 873.243189 99.464176 
L 873.643862 134.470466 
L 874.044536 148.697786 
L 874.44521 158.198843 
L 874.845884 160.829766 
L 876.047905 178.929063 
L 876.448579 160.300836 
L 876.849252 174.238403 
L 877.249926 172.08534 
L 877.6506 168.312414 
L 878.852621 153.173412 
L 879.253295 162.805076 
L 879.653968 165.656965 
L 880.054642 158.346045 
L 880.455316 161.108067 
L 881.657337 136.431778 
L 882.058011 100.619127 
L 882.458684 108.628824 
L 882.859358 106.786882 
L 883.260032 75.49925 
L 884.462053 91.0553 
L 884.862727 86.281141 
L 885.263401 77.976644 
L 885.664074 147.246471 
L 886.064748 144.869362 
L 887.266769 146.981697 
L 887.667443 137.687157 
L 888.068117 125.081503 
L 888.46879 120.141596 
L 888.869464 125.090442 
L 890.071485 143.395806 
L 890.472159 132.207041 
L 890.872833 129.445868 
L 891.273506 131.777425 
L 891.67418 143.836526 
L 892.876201 150.426288 
L 893.276875 148.2674 
L 893.677549 113.987093 
L 894.078223 123.974361 
L 894.478896 113.574698 
L 895.680918 115.381888 
L 896.081591 114.625754 
L 896.482265 132.919953 
L 897.283612 126.760303 
L 898.485634 105.573552 
L 898.886307 112.567814 
L 899.687655 102.042284 
L 900.088329 68.979639 
L 901.29035 67.683149 
L 901.691023 77.849995 
L 902.091697 66.390582 
L 902.492371 60.418568 
L 902.893045 70.500975 
L 904.095066 68.617456 
L 904.49574 73.715702 
L 904.896413 105.737035 
L 905.297087 107.096387 
L 905.697761 119.239672 
L 906.899782 122.43307 
L 907.300456 126.31437 
L 908.101803 139.694898 
L 908.502477 154.415993 
L 909.704498 167.344828 
L 910.105172 168.038146 
L 910.906519 185.641159 
L 911.307193 174.514608 
L 912.509214 161.797372 
L 912.909888 176.910734 
L 913.310562 178.535374 
L 914.111909 166.876485 
L 915.31393 168.582122 
L 915.714604 169.846586 
L 916.115278 144.48437 
L 916.515951 154.801184 
L 916.916625 144.502886 
L 918.51932 133.708242 
L 918.919994 98.601882 
L 919.320668 91.319971 
L 919.721341 90.739789 
L 920.923362 113.955865 
L 921.324036 105.199435 
L 921.72471 104.21037 
L 922.125384 139.392952 
L 922.526057 134.077645 
L 923.728079 136.374028 
L 924.128752 133.389608 
L 924.529426 144.61069 
L 924.9301 139.764992 
L 925.330773 151.029397 
L 926.532795 147.398137 
L 926.933468 175.313624 
L 927.334142 177.910633 
L 927.734816 173.278443 
L 928.13549 167.344626 
L 929.738184 194.235119 
L 930.138858 176.940819 
L 930.539532 124.149889 
L 930.940206 144.666672 
L 932.142227 144.82822 
L 932.542901 159.717874 
L 932.943574 157.192757 
L 933.344248 173.530271 
L 933.744922 153.921826 
L 934.946943 170.852772 
L 935.347617 169.723424 
L 935.74829 141.041809 
L 936.148964 148.85353 
L 936.549638 150.564662 
L 937.751659 165.078094 
L 938.152333 173.574444 
L 938.553007 172.405615 
L 938.95368 169.769011 
L 939.354354 149.416799 
L 940.556375 142.539527 
L 940.957049 151.076845 
L 941.357723 136.413978 
L 941.758396 144.423822 
L 942.15907 125.907982 
L 943.361091 123.523668 
L 943.761765 140.198577 
L 944.162439 141.813328 
L 944.563112 134.950982 
L 944.963786 132.562683 
L 946.165807 138.840197 
L 946.967155 124.177906 
L 947.367829 157.442185 
L 947.768502 171.460078 
L 948.970523 168.662509 
L 949.371197 180.866366 
L 949.771871 126.448696 
L 950.172545 139.452295 
L 950.573218 134.241563 
L 951.77524 136.781331 
L 952.175913 134.055498 
L 952.576587 145.874972 
L 952.977261 139.910321 
L 954.579956 143.94101 
L 954.980629 143.072645 
L 955.381303 136.229065 
L 956.182651 103.593135 
L 957.384672 102.22564 
L 957.785346 96.940697 
L 958.186019 124.393958 
L 958.586693 88.237591 
L 958.987367 86.754449 
L 960.189388 85.443661 
L 960.590062 86.48083 
L 960.990735 65.020764 
L 961.391409 56.681709 
L 961.792083 39.315805 
L 962.994104 39.06 
L 963.795451 41.163471 
L 964.196125 41.668495 
L 964.596799 39.649522 
L 965.79882 39.446175 
L 966.199494 41.455632 
L 966.600168 70.653359 
L 967.000841 78.323484 
L 967.401515 95.801031 
L 969.00421 74.783357 
L 969.404884 84.380123 
L 969.805557 88.079058 
L 970.206231 86.836486 
L 971.408252 98.513116 
L 971.808926 96.597272 
L 972.2096 101.28109 
L 972.610273 96.753319 
L 973.010947 94.467813 
L 974.212968 97.78633 
L 974.613642 101.182602 
L 975.014316 80.184942 
L 975.41499 75.746984 
L 975.815663 72.999198 
L 977.017684 80.22653 
L 977.418358 70.576595 
L 977.819032 69.593866 
L 978.620379 83.795331 
L 980.223074 72.376237 
L 981.024422 70.173153 
L 981.425096 77.366868 
L 982.627117 78.249747 
L 983.02779 88.76689 
L 983.428464 93.430052 
L 983.829138 91.612179 
L 985.431833 83.720205 
L 985.832507 92.060709 
L 986.23318 80.94419 
L 986.633854 88.966304 
L 987.034528 78.908363 
L 988.236549 89.801298 
L 988.637223 91.697458 
L 989.037896 95.80214 
L 989.43857 94.327327 
L 989.839244 94.803848 
L 991.041265 97.240962 
L 991.441939 95.240491 
L 991.842612 90.753504 
L 992.243286 95.492487 
L 992.64396 86.322242 
L 993.845981 86.755227 
L 994.246655 99.628645 
L 994.647329 88.642131 
L 995.048002 65.886645 
L 995.448676 92.554251 
L 996.650697 84.227178 
L 997.452045 111.024186 
L 997.852718 115.082486 
L 998.253392 113.703389 
L 999.455413 106.027107 
L 999.856087 99.148414 
L 1000.256761 117.832513 
L 1000.657435 118.872875 
L 1001.058108 120.414211 
L 1002.260129 124.576435 
L 1002.660803 133.957833 
L 1003.061477 168.217461 
L 1003.462151 159.83002 
L 1003.862824 179.895182 
L 1005.064846 175.056134 
L 1005.465519 174.414351 
L 1005.866193 156.395435 
L 1006.266867 152.253132 
L 1006.66754 156.050581 
L 1008.270235 177.726654 
L 1008.670909 165.763156 
L 1008.670909 165.763156 
" clip-path="url(#p65f8a445dd)" style="fill: none; stroke: #1f77b4; stroke-width: 1.5; stroke-linecap: square"/>
   </g>
   <g id="patch_3">
    <path d="M 145.8 224.28 
L 145.8 30.24 
" style="fill: none; stroke: #000000; stroke-width: 0.8; stroke-linejoin: miter; stroke-linecap: square"/>
   </g>
   <g id="patch_4">
    <path d="M 145.8 224.28 
L 1049.76 224.28 
" style="fill: none; stroke: #000000; stroke-width: 0.8; stroke-linejoin: miter; stroke-linecap: square"/>
   </g>
  </g>
 </g>
 <defs>
  <clipPath id="p65f8a445dd">
   <rect x="145.8" y="30.24" width="903.96" height="194.04"/>
  </clipPath>
 </defs>
</svg>
