<?xml version="1.0" encoding="utf-8" standalone="no"?>
<!DOCTYPE svg PUBLIC "-//W3C//DTD SVG 1.1//EN"
  "http://www.w3.org/Graphics/SVG/1.1/DTD/svg11.dtd">
<svg xmlns:xlink="http://www.w3.org/1999/xlink" width="1166.4pt" height="252pt" viewBox="0 0 1166.4 252" xmlns="http://www.w3.org/2000/svg" version="1.1">
 <metadata>
  <rdf:RDF xmlns:dc="http://purl.org/dc/elements/1.1/" xmlns:cc="http://creativecommons.org/ns#" xmlns:rdf="http://www.w3.org/1999/02/22-rdf-syntax-ns#">
   <cc:Work>
    <dc:type rdf:resource="http://purl.org/dc/dcmitype/StillImage"/>
    <dc:date>2025-09-07T00:54:27.587880</dc:date>
    <dc:format>image/svg+xml</dc:format>
    <dc:creator>
     <cc:Agent>
      <dc:title>Matplotlib v3.10.5, https://matplotlib.org/</dc:title>
     </cc:Agent>
    </dc:creator>
   </cc:Work>
  </rdf:RDF>
 </metadata>
 <defs>
  <style type="text/css">*{stroke-linejoin: round; stroke-linecap: butt}</style>
 </defs>
 <g id="figure_1">
  <g id="patch_1">
   <path d="M 0 252 
L 1166.4 252 
L 1166.4 0 
L 0 0 
z
" style="fill: #ffffff"/>
  </g>
  <g id="axes_1">
   <g id="patch_2">
    <path d="M 145.8 224.28 
L 1049.76 224.28 
L 1049.76 30.24 
L 145.8 30.24 
z
" style="fill: #ffffff"/>
   </g>
   <g id="matplotlib.axis_1">
    <g id="xtick_1">
     <g id="line2d_1">
      <defs>
       <path id="m44b09931ca" d="M 0 0 
L 0 3.5 
" style="stroke: #000000; stroke-width: 0.8"/>
      </defs>
      <g>
       <use xlink:href="#m44b09931ca" x="188.375134" y="224.28" style="stroke: #000000; stroke-width: 0.8"/>
      </g>
     </g>
     <g id="text_1">
      <!-- 2024-03 -->
      <g transform="translate(167.483728 238.878438) scale(0.1 -0.1)">
       <defs>
        <path id="DejaVuSans-32" d="M 1228 531 
L 3431 531 
L 3431 0 
L 469 0 
L 469 531 
Q 828 903 1448 1529 
Q 2069 2156 2228 2338 
Q 2531 2678 2651 2914 
Q 2772 3150 2772 3378 
Q 2772 3750 2511 3984 
Q 2250 4219 1831 4219 
Q 1534 4219 1204 4116 
Q 875 4013 500 3803 
L 500 4441 
Q 881 4594 1212 4672 
Q 1544 4750 1819 4750 
Q 2544 4750 2975 4387 
Q 3406 4025 3406 3419 
Q 3406 3131 3298 2873 
Q 3191 2616 2906 2266 
Q 2828 2175 2409 1742 
Q 1991 1309 1228 531 
z
" transform="scale(0.015625)"/>
        <path id="DejaVuSans-30" d="M 2034 4250 
Q 1547 4250 1301 3770 
Q 1056 3291 1056 2328 
Q 1056 1369 1301 889 
Q 1547 409 2034 409 
Q 2525 409 2770 889 
Q 3016 1369 3016 2328 
Q 3016 3291 2770 3770 
Q 2525 4250 2034 4250 
z
M 2034 4750 
Q 2819 4750 3233 4129 
Q 3647 3509 3647 2328 
Q 3647 1150 3233 529 
Q 2819 -91 2034 -91 
Q 1250 -91 836 529 
Q 422 1150 422 2328 
Q 422 3509 836 4129 
Q 1250 4750 2034 4750 
z
" transform="scale(0.015625)"/>
        <path id="DejaVuSans-34" d="M 2419 4116 
L 825 1625 
L 2419 1625 
L 2419 4116 
z
M 2253 4666 
L 3047 4666 
L 3047 1625 
L 3713 1625 
L 3713 1100 
L 3047 1100 
L 3047 0 
L 2419 0 
L 2419 1100 
L 313 1100 
L 313 1709 
L 2253 4666 
z
" transform="scale(0.015625)"/>
        <path id="DejaVuSans-2d" d="M 313 2009 
L 1997 2009 
L 1997 1497 
L 313 1497 
L 313 2009 
z
" transform="scale(0.015625)"/>
        <path id="DejaVuSans-33" d="M 2597 2516 
Q 3050 2419 3304 2112 
Q 3559 1806 3559 1356 
Q 3559 666 3084 287 
Q 2609 -91 1734 -91 
Q 1441 -91 1130 -33 
Q 819 25 488 141 
L 488 750 
Q 750 597 1062 519 
Q 1375 441 1716 441 
Q 2309 441 2620 675 
Q 2931 909 2931 1356 
Q 2931 1769 2642 2001 
Q 2353 2234 1838 2234 
L 1294 2234 
L 1294 2753 
L 1863 2753 
Q 2328 2753 2575 2939 
Q 2822 3125 2822 3475 
Q 2822 3834 2567 4026 
Q 2313 4219 1838 4219 
Q 1578 4219 1281 4162 
Q 984 4106 628 3988 
L 628 4550 
Q 988 4650 1302 4700 
Q 1616 4750 1894 4750 
Q 2613 4750 3031 4423 
Q 3450 4097 3450 3541 
Q 3450 3153 3228 2886 
Q 3006 2619 2597 2516 
z
" transform="scale(0.015625)"/>
       </defs>
       <use xlink:href="#DejaVuSans-32"/>
       <use xlink:href="#DejaVuSans-30" transform="translate(63.623047 0)"/>
       <use xlink:href="#DejaVuSans-32" transform="translate(127.246094 0)"/>
       <use xlink:href="#DejaVuSans-34" transform="translate(190.869141 0)"/>
       <use xlink:href="#DejaVuSans-2d" transform="translate(254.492188 0)"/>
       <use xlink:href="#DejaVuSans-30" transform="translate(290.576172 0)"/>
       <use xlink:href="#DejaVuSans-33" transform="translate(354.199219 0)"/>
      </g>
     </g>
    </g>
    <g id="xtick_2">
     <g id="line2d_2">
      <g>
       <use xlink:href="#m44b09931ca" x="279.023761" y="224.28" style="stroke: #000000; stroke-width: 0.8"/>
      </g>
     </g>
     <g id="text_2">
      <!-- 2024-05 -->
      <g transform="translate(258.132355 238.878438) scale(0.1 -0.1)">
       <defs>
        <path id="DejaVuSans-35" d="M 691 4666 
L 3169 4666 
L 3169 4134 
L 1269 4134 
L 1269 2991 
Q 1406 3038 1543 3061 
Q 1681 3084 1819 3084 
Q 2600 3084 3056 2656 
Q 3513 2228 3513 1497 
Q 3513 744 3044 326 
Q 2575 -91 1722 -91 
Q 1428 -91 1123 -41 
Q 819 9 494 109 
L 494 744 
Q 775 591 1075 516 
Q 1375 441 1709 441 
Q 2250 441 2565 725 
Q 2881 1009 2881 1497 
Q 2881 1984 2565 2268 
Q 2250 2553 1709 2553 
Q 1456 2553 1204 2497 
Q 953 2441 691 2322 
L 691 4666 
z
" transform="scale(0.015625)"/>
       </defs>
       <use xlink:href="#DejaVuSans-32"/>
       <use xlink:href="#DejaVuSans-30" transform="translate(63.623047 0)"/>
       <use xlink:href="#DejaVuSans-32" transform="translate(127.246094 0)"/>
       <use xlink:href="#DejaVuSans-34" transform="translate(190.869141 0)"/>
       <use xlink:href="#DejaVuSans-2d" transform="translate(254.492188 0)"/>
       <use xlink:href="#DejaVuSans-30" transform="translate(290.576172 0)"/>
       <use xlink:href="#DejaVuSans-35" transform="translate(354.199219 0)"/>
      </g>
     </g>
    </g>
    <g id="xtick_3">
     <g id="line2d_3">
      <g>
       <use xlink:href="#m44b09931ca" x="369.672389" y="224.28" style="stroke: #000000; stroke-width: 0.8"/>
      </g>
     </g>
     <g id="text_3">
      <!-- 2024-07 -->
      <g transform="translate(348.780982 238.878438) scale(0.1 -0.1)">
       <defs>
        <path id="DejaVuSans-37" d="M 525 4666 
L 3525 4666 
L 3525 4397 
L 1831 0 
L 1172 0 
L 2766 4134 
L 525 4134 
L 525 4666 
z
" transform="scale(0.015625)"/>
       </defs>
       <use xlink:href="#DejaVuSans-32"/>
       <use xlink:href="#DejaVuSans-30" transform="translate(63.623047 0)"/>
       <use xlink:href="#DejaVuSans-32" transform="translate(127.246094 0)"/>
       <use xlink:href="#DejaVuSans-34" transform="translate(190.869141 0)"/>
       <use xlink:href="#DejaVuSans-2d" transform="translate(254.492188 0)"/>
       <use xlink:href="#DejaVuSans-30" transform="translate(290.576172 0)"/>
       <use xlink:href="#DejaVuSans-37" transform="translate(354.199219 0)"/>
      </g>
     </g>
    </g>
    <g id="xtick_4">
     <g id="line2d_4">
      <g>
       <use xlink:href="#m44b09931ca" x="461.807059" y="224.28" style="stroke: #000000; stroke-width: 0.8"/>
      </g>
     </g>
     <g id="text_4">
      <!-- 2024-09 -->
      <g transform="translate(440.915653 238.878438) scale(0.1 -0.1)">
       <defs>
        <path id="DejaVuSans-39" d="M 703 97 
L 703 672 
Q 941 559 1184 500 
Q 1428 441 1663 441 
Q 2288 441 2617 861 
Q 2947 1281 2994 2138 
Q 2813 1869 2534 1725 
Q 2256 1581 1919 1581 
Q 1219 1581 811 2004 
Q 403 2428 403 3163 
Q 403 3881 828 4315 
Q 1253 4750 1959 4750 
Q 2769 4750 3195 4129 
Q 3622 3509 3622 2328 
Q 3622 1225 3098 567 
Q 2575 -91 1691 -91 
Q 1453 -91 1209 -44 
Q 966 3 703 97 
z
M 1959 2075 
Q 2384 2075 2632 2365 
Q 2881 2656 2881 3163 
Q 2881 3666 2632 3958 
Q 2384 4250 1959 4250 
Q 1534 4250 1286 3958 
Q 1038 3666 1038 3163 
Q 1038 2656 1286 2365 
Q 1534 2075 1959 2075 
z
" transform="scale(0.015625)"/>
       </defs>
       <use xlink:href="#DejaVuSans-32"/>
       <use xlink:href="#DejaVuSans-30" transform="translate(63.623047 0)"/>
       <use xlink:href="#DejaVuSans-32" transform="translate(127.246094 0)"/>
       <use xlink:href="#DejaVuSans-34" transform="translate(190.869141 0)"/>
       <use xlink:href="#DejaVuSans-2d" transform="translate(254.492188 0)"/>
       <use xlink:href="#DejaVuSans-30" transform="translate(290.576172 0)"/>
       <use xlink:href="#DejaVuSans-39" transform="translate(354.199219 0)"/>
      </g>
     </g>
    </g>
    <g id="xtick_5">
     <g id="line2d_5">
      <g>
       <use xlink:href="#m44b09931ca" x="552.455686" y="224.28" style="stroke: #000000; stroke-width: 0.8"/>
      </g>
     </g>
     <g id="text_5">
      <!-- 2024-11 -->
      <g transform="translate(531.56428 238.878438) scale(0.1 -0.1)">
       <defs>
        <path id="DejaVuSans-31" d="M 794 531 
L 1825 531 
L 1825 4091 
L 703 3866 
L 703 4441 
L 1819 4666 
L 2450 4666 
L 2450 531 
L 3481 531 
L 3481 0 
L 794 0 
L 794 531 
z
" transform="scale(0.015625)"/>
       </defs>
       <use xlink:href="#DejaVuSans-32"/>
       <use xlink:href="#DejaVuSans-30" transform="translate(63.623047 0)"/>
       <use xlink:href="#DejaVuSans-32" transform="translate(127.246094 0)"/>
       <use xlink:href="#DejaVuSans-34" transform="translate(190.869141 0)"/>
       <use xlink:href="#DejaVuSans-2d" transform="translate(254.492188 0)"/>
       <use xlink:href="#DejaVuSans-31" transform="translate(290.576172 0)"/>
       <use xlink:href="#DejaVuSans-31" transform="translate(354.199219 0)"/>
      </g>
     </g>
    </g>
    <g id="xtick_6">
     <g id="line2d_6">
      <g>
       <use xlink:href="#m44b09931ca" x="643.104314" y="224.28" style="stroke: #000000; stroke-width: 0.8"/>
      </g>
     </g>
     <g id="text_6">
      <!-- 2025-01 -->
      <g transform="translate(622.212907 238.878438) scale(0.1 -0.1)">
       <use xlink:href="#DejaVuSans-32"/>
       <use xlink:href="#DejaVuSans-30" transform="translate(63.623047 0)"/>
       <use xlink:href="#DejaVuSans-32" transform="translate(127.246094 0)"/>
       <use xlink:href="#DejaVuSans-35" transform="translate(190.869141 0)"/>
       <use xlink:href="#DejaVuSans-2d" transform="translate(254.492188 0)"/>
       <use xlink:href="#DejaVuSans-30" transform="translate(290.576172 0)"/>
       <use xlink:href="#DejaVuSans-31" transform="translate(354.199219 0)"/>
      </g>
     </g>
    </g>
    <g id="xtick_7">
     <g id="line2d_7">
      <g>
       <use xlink:href="#m44b09931ca" x="730.780855" y="224.28" style="stroke: #000000; stroke-width: 0.8"/>
      </g>
     </g>
     <g id="text_7">
      <!-- 2025-03 -->
      <g transform="translate(709.889449 238.878438) scale(0.1 -0.1)">
       <use xlink:href="#DejaVuSans-32"/>
       <use xlink:href="#DejaVuSans-30" transform="translate(63.623047 0)"/>
       <use xlink:href="#DejaVuSans-32" transform="translate(127.246094 0)"/>
       <use xlink:href="#DejaVuSans-35" transform="translate(190.869141 0)"/>
       <use xlink:href="#DejaVuSans-2d" transform="translate(254.492188 0)"/>
       <use xlink:href="#DejaVuSans-30" transform="translate(290.576172 0)"/>
       <use xlink:href="#DejaVuSans-33" transform="translate(354.199219 0)"/>
      </g>
     </g>
    </g>
    <g id="xtick_8">
     <g id="line2d_8">
      <g>
       <use xlink:href="#m44b09931ca" x="821.429482" y="224.28" style="stroke: #000000; stroke-width: 0.8"/>
      </g>
     </g>
     <g id="text_8">
      <!-- 2025-05 -->
      <g transform="translate(800.538076 238.878438) scale(0.1 -0.1)">
       <use xlink:href="#DejaVuSans-32"/>
       <use xlink:href="#DejaVuSans-30" transform="translate(63.623047 0)"/>
       <use xlink:href="#DejaVuSans-32" transform="translate(127.246094 0)"/>
       <use xlink:href="#DejaVuSans-35" transform="translate(190.869141 0)"/>
       <use xlink:href="#DejaVuSans-2d" transform="translate(254.492188 0)"/>
       <use xlink:href="#DejaVuSans-30" transform="translate(290.576172 0)"/>
       <use xlink:href="#DejaVuSans-35" transform="translate(354.199219 0)"/>
      </g>
     </g>
    </g>
    <g id="xtick_9">
     <g id="line2d_9">
      <g>
       <use xlink:href="#m44b09931ca" x="912.078109" y="224.28" style="stroke: #000000; stroke-width: 0.8"/>
      </g>
     </g>
     <g id="text_9">
      <!-- 2025-07 -->
      <g transform="translate(891.186703 238.878438) scale(0.1 -0.1)">
       <use xlink:href="#DejaVuSans-32"/>
       <use xlink:href="#DejaVuSans-30" transform="translate(63.623047 0)"/>
       <use xlink:href="#DejaVuSans-32" transform="translate(127.246094 0)"/>
       <use xlink:href="#DejaVuSans-35" transform="translate(190.869141 0)"/>
       <use xlink:href="#DejaVuSans-2d" transform="translate(254.492188 0)"/>
       <use xlink:href="#DejaVuSans-30" transform="translate(290.576172 0)"/>
       <use xlink:href="#DejaVuSans-37" transform="translate(354.199219 0)"/>
      </g>
     </g>
    </g>
    <g id="xtick_10">
     <g id="line2d_10">
      <g>
       <use xlink:href="#m44b09931ca" x="1004.21278" y="224.28" style="stroke: #000000; stroke-width: 0.8"/>
      </g>
     </g>
     <g id="text_10">
      <!-- 2025-09 -->
      <g transform="translate(983.321374 238.878438) scale(0.1 -0.1)">
       <use xlink:href="#DejaVuSans-32"/>
       <use xlink:href="#DejaVuSans-30" transform="translate(63.623047 0)"/>
       <use xlink:href="#DejaVuSans-32" transform="translate(127.246094 0)"/>
       <use xlink:href="#DejaVuSans-35" transform="translate(190.869141 0)"/>
       <use xlink:href="#DejaVuSans-2d" transform="translate(254.492188 0)"/>
       <use xlink:href="#DejaVuSans-30" transform="translate(290.576172 0)"/>
       <use xlink:href="#DejaVuSans-39" transform="translate(354.199219 0)"/>
      </g>
     </g>
    </g>
   </g>
   <g id="matplotlib.axis_2">
    <g id="ytick_1">
     <g id="line2d_11">
      <defs>
       <path id="m4dd5aff770" d="M 0 0 
L -3.5 0 
" style="stroke: #000000; stroke-width: 0.8"/>
      </defs>
      <g>
       <use xlink:href="#m4dd5aff770" x="145.8" y="209.936681" style="stroke: #000000; stroke-width: 0.8"/>
      </g>
     </g>
     <g id="text_11">
      <!-- 20 -->
      <g transform="translate(126.075 213.7359) scale(0.1 -0.1)">
       <use xlink:href="#DejaVuSans-32"/>
       <use xlink:href="#DejaVuSans-30" transform="translate(63.623047 0)"/>
      </g>
     </g>
    </g>
    <g id="ytick_2">
     <g id="line2d_12">
      <g>
       <use xlink:href="#m4dd5aff770" x="145.8" y="187.46334" style="stroke: #000000; stroke-width: 0.8"/>
      </g>
     </g>
     <g id="text_12">
      <!-- 30 -->
      <g transform="translate(126.075 191.262558) scale(0.1 -0.1)">
       <use xlink:href="#DejaVuSans-33"/>
       <use xlink:href="#DejaVuSans-30" transform="translate(63.623047 0)"/>
      </g>
     </g>
    </g>
    <g id="ytick_3">
     <g id="line2d_13">
      <g>
       <use xlink:href="#m4dd5aff770" x="145.8" y="164.989998" style="stroke: #000000; stroke-width: 0.8"/>
      </g>
     </g>
     <g id="text_13">
      <!-- 40 -->
      <g transform="translate(126.075 168.789217) scale(0.1 -0.1)">
       <use xlink:href="#DejaVuSans-34"/>
       <use xlink:href="#DejaVuSans-30" transform="translate(63.623047 0)"/>
      </g>
     </g>
    </g>
    <g id="ytick_4">
     <g id="line2d_14">
      <g>
       <use xlink:href="#m4dd5aff770" x="145.8" y="142.516656" style="stroke: #000000; stroke-width: 0.8"/>
      </g>
     </g>
     <g id="text_14">
      <!-- 50 -->
      <g transform="translate(126.075 146.315875) scale(0.1 -0.1)">
       <use xlink:href="#DejaVuSans-35"/>
       <use xlink:href="#DejaVuSans-30" transform="translate(63.623047 0)"/>
      </g>
     </g>
    </g>
    <g id="ytick_5">
     <g id="line2d_15">
      <g>
       <use xlink:href="#m4dd5aff770" x="145.8" y="120.043315" style="stroke: #000000; stroke-width: 0.8"/>
      </g>
     </g>
     <g id="text_15">
      <!-- 60 -->
      <g transform="translate(126.075 123.842533) scale(0.1 -0.1)">
       <defs>
        <path id="DejaVuSans-36" d="M 2113 2584 
Q 1688 2584 1439 2293 
Q 1191 2003 1191 1497 
Q 1191 994 1439 701 
Q 1688 409 2113 409 
Q 2538 409 2786 701 
Q 3034 994 3034 1497 
Q 3034 2003 2786 2293 
Q 2538 2584 2113 2584 
z
M 3366 4563 
L 3366 3988 
Q 3128 4100 2886 4159 
Q 2644 4219 2406 4219 
Q 1781 4219 1451 3797 
Q 1122 3375 1075 2522 
Q 1259 2794 1537 2939 
Q 1816 3084 2150 3084 
Q 2853 3084 3261 2657 
Q 3669 2231 3669 1497 
Q 3669 778 3244 343 
Q 2819 -91 2113 -91 
Q 1303 -91 875 529 
Q 447 1150 447 2328 
Q 447 3434 972 4092 
Q 1497 4750 2381 4750 
Q 2619 4750 2861 4703 
Q 3103 4656 3366 4563 
z
" transform="scale(0.015625)"/>
       </defs>
       <use xlink:href="#DejaVuSans-36"/>
       <use xlink:href="#DejaVuSans-30" transform="translate(63.623047 0)"/>
      </g>
     </g>
    </g>
    <g id="ytick_6">
     <g id="line2d_16">
      <g>
       <use xlink:href="#m4dd5aff770" x="145.8" y="97.569973" style="stroke: #000000; stroke-width: 0.8"/>
      </g>
     </g>
     <g id="text_16">
      <!-- 70 -->
      <g transform="translate(126.075 101.369192) scale(0.1 -0.1)">
       <use xlink:href="#DejaVuSans-37"/>
       <use xlink:href="#DejaVuSans-30" transform="translate(63.623047 0)"/>
      </g>
     </g>
    </g>
    <g id="ytick_7">
     <g id="line2d_17">
      <g>
       <use xlink:href="#m4dd5aff770" x="145.8" y="75.096631" style="stroke: #000000; stroke-width: 0.8"/>
      </g>
     </g>
     <g id="text_17">
      <!-- 80 -->
      <g transform="translate(126.075 78.89585) scale(0.1 -0.1)">
       <defs>
        <path id="DejaVuSans-38" d="M 2034 2216 
Q 1584 2216 1326 1975 
Q 1069 1734 1069 1313 
Q 1069 891 1326 650 
Q 1584 409 2034 409 
Q 2484 409 2743 651 
Q 3003 894 3003 1313 
Q 3003 1734 2745 1975 
Q 2488 2216 2034 2216 
z
M 1403 2484 
Q 997 2584 770 2862 
Q 544 3141 544 3541 
Q 544 4100 942 4425 
Q 1341 4750 2034 4750 
Q 2731 4750 3128 4425 
Q 3525 4100 3525 3541 
Q 3525 3141 3298 2862 
Q 3072 2584 2669 2484 
Q 3125 2378 3379 2068 
Q 3634 1759 3634 1313 
Q 3634 634 3220 271 
Q 2806 -91 2034 -91 
Q 1263 -91 848 271 
Q 434 634 434 1313 
Q 434 1759 690 2068 
Q 947 2378 1403 2484 
z
M 1172 3481 
Q 1172 3119 1398 2916 
Q 1625 2713 2034 2713 
Q 2441 2713 2670 2916 
Q 2900 3119 2900 3481 
Q 2900 3844 2670 4047 
Q 2441 4250 2034 4250 
Q 1625 4250 1398 4047 
Q 1172 3844 1172 3481 
z
" transform="scale(0.015625)"/>
       </defs>
       <use xlink:href="#DejaVuSans-38"/>
       <use xlink:href="#DejaVuSans-30" transform="translate(63.623047 0)"/>
      </g>
     </g>
    </g>
    <g id="ytick_8">
     <g id="line2d_18">
      <g>
       <use xlink:href="#m4dd5aff770" x="145.8" y="52.62329" style="stroke: #000000; stroke-width: 0.8"/>
      </g>
     </g>
     <g id="text_18">
      <!-- 90 -->
      <g transform="translate(126.075 56.422508) scale(0.1 -0.1)">
       <use xlink:href="#DejaVuSans-39"/>
       <use xlink:href="#DejaVuSans-30" transform="translate(63.623047 0)"/>
      </g>
     </g>
    </g>
   </g>
   <g id="line2d_19">
    <path d="M 186.889091 141.876297 
L 188.375134 152.713833 
L 192.833263 141.386155 
L 194.319306 149.690022 
L 195.805349 162.13704 
L 197.291392 136.282106 
L 198.777435 137.343684 
L 203.235565 138.411328 
L 204.721608 116.916583 
L 206.207651 134.475462 
L 207.693694 113.193352 
L 209.179737 126.683235 
L 213.637866 125.202356 
L 215.123909 119.797715 
L 216.609952 122.66713 
L 218.095995 119.559955 
L 219.582038 119.659586 
L 224.040168 105.6209 
L 225.526211 107.180757 
L 227.012254 117.575535 
L 228.498297 111.867384 
L 234.442469 101.78337 
L 235.928512 127.999407 
L 237.414555 130.119134 
L 238.900598 162.662442 
L 240.386641 116.811953 
L 244.844771 121.996643 
L 246.330814 127.889007 
L 247.816857 148.5631 
L 249.3029 146.873369 
L 250.788943 160.584073 
L 255.247072 165.580254 
L 256.733115 160.30918 
L 258.219158 165.361685 
L 259.705201 176.72796 
L 261.191244 194.201844 
L 265.649374 185.10135 
L 267.135417 166.775485 
L 268.62146 159.434985 
L 270.107503 191.326894 
L 271.593546 173.016535 
L 276.051675 181.26226 
L 277.537718 190.419892 
L 279.023761 188.549014 
L 280.509804 177.446261 
L 281.995847 152.577317 
L 286.453977 143.909518 
L 287.94002 145.80766 
L 289.426063 133.597299 
L 290.912106 122.902265 
L 292.398149 122.196274 
L 296.856278 132.729768 
L 298.342321 130.80525 
L 299.828364 102.254987 
L 301.314407 115.442487 
L 302.80045 107.893966 
L 307.25858 64.496521 
L 308.744623 65.776795 
L 310.230666 66.793829 
L 311.716709 89.035112 
L 313.202752 94.417075 
L 319.146924 75.720959 
L 320.632967 82.864308 
L 322.11901 135.455246 
L 323.605053 139.813493 
L 328.063183 141.236954 
L 329.549226 141.902373 
L 331.035269 140.349922 
L 332.521312 134.013951 
L 334.007355 133.728124 
L 338.465484 136.258972 
L 339.951527 133.728124 
L 341.43757 120.354609 
L 342.923613 110.036264 
L 344.409656 113.6276 
L 348.867786 104.894375 
L 350.353829 107.303359 
L 353.325915 57.328775 
L 354.811958 55.120293 
L 359.270087 57.337332 
L 360.75613 56.903818 
L 362.242173 61.514658 
L 363.728216 61.37074 
L 365.214259 84.134676 
L 369.672389 77.94286 
L 371.158432 80.194964 
L 372.644475 88.590618 
L 375.616561 80.850473 
L 380.07469 86.722289 
L 381.560733 116.674964 
L 383.046776 100.50314 
L 384.532819 126.75448 
L 386.018862 135.598181 
L 390.476992 130.643871 
L 391.963035 145.164258 
L 393.449078 157.343317 
L 394.935121 163.157486 
L 396.421164 159.449053 
L 400.879293 167.773931 
L 402.365336 169.224765 
L 405.337422 212.546285 
L 406.823465 197.042911 
L 411.281595 189.072247 
L 412.767638 206.336753 
L 414.253681 201.447783 
L 415.739724 201.517107 
L 417.225767 208.349729 
L 421.683896 213.137016 
L 423.169939 200.584363 
L 424.655982 199.295575 
L 426.142025 188.560187 
L 427.628068 193.419434 
L 432.086198 195.694452 
L 433.572241 165.874728 
L 435.058284 145.221184 
L 436.544327 148.821792 
L 438.03037 155.873471 
L 442.488499 143.651584 
L 443.974542 129.247685 
L 445.460585 128.046053 
L 446.946628 128.015772 
L 448.432671 90.547362 
L 452.890801 107.742912 
L 454.376844 103.417474 
L 455.862887 121.114911 
L 457.34893 122.757347 
L 458.834973 116.491751 
L 466.265188 160.140512 
L 467.751231 176.691827 
L 469.237274 183.759752 
L 473.695404 180.598529 
L 475.181447 165.483945 
L 476.66749 144.575331 
L 478.153533 119.296989 
L 479.639576 115.669982 
L 484.097705 106.187191 
L 485.583748 101.70299 
L 487.069791 104.522244 
L 488.555834 98.40159 
L 490.041877 110.946788 
L 494.500007 96.354111 
L 495.98605 106.009639 
L 497.472093 101.397598 
L 498.958136 86.056757 
L 500.444179 99.461994 
L 504.902308 107.726199 
L 506.388351 147.520685 
L 507.874394 163.694085 
L 509.360437 174.494656 
L 510.84648 177.485531 
L 515.30461 198.060341 
L 516.790653 176.884199 
L 518.276696 192.728192 
L 519.762739 190.280633 
L 521.248782 185.991531 
L 525.706911 168.781846 
L 527.192954 179.730831 
L 528.678997 182.972858 
L 530.16504 174.661952 
L 531.651083 177.801763 
L 536.109213 149.750259 
L 537.595256 109.039036 
L 539.081299 118.144426 
L 540.567342 116.050472 
L 542.053385 80.483512 
L 546.511514 98.167542 
L 547.997557 92.740256 
L 549.4836 83.299828 
L 550.969643 162.04419 
L 552.455686 159.34188 
L 556.913816 161.743133 
L 558.399859 151.177322 
L 559.885902 136.84756 
L 561.371945 131.23194 
L 562.857988 136.857673 
L 567.316117 157.666785 
L 568.80216 144.947657 
L 570.288203 141.80882 
L 571.774246 144.459328 
L 573.260289 158.167768 
L 577.718419 165.658968 
L 579.204462 163.204686 
L 580.690505 124.235565 
L 582.176548 135.588929 
L 583.662591 123.766815 
L 588.12072 125.82119 
L 589.606763 124.961581 
L 591.092806 145.758023 
L 594.064892 138.755986 
L 598.523022 114.671208 
L 600.009065 122.62219 
L 601.495108 115.802277 
L 602.981151 110.65698 
L 604.467194 73.072009 
L 608.925323 71.598214 
L 610.411366 83.155605 
L 611.897409 70.128684 
L 613.383452 63.3398 
L 614.869495 74.801296 
L 619.327625 72.660153 
L 620.813668 78.455761 
L 622.299711 114.857085 
L 623.785754 116.402282 
L 625.271797 130.206653 
L 629.729926 133.836792 
L 631.215969 138.249051 
L 634.188055 153.459751 
L 635.674098 170.194527 
L 640.132228 184.891687 
L 641.618271 185.679913 
L 644.590357 205.690627 
L 646.0764 193.042238 
L 650.534529 178.585424 
L 652.020572 195.766019 
L 653.506615 197.612882 
L 656.478701 184.359287 
L 660.936831 186.298222 
L 662.422874 187.73564 
L 663.908917 158.904314 
L 665.39496 170.632212 
L 666.881003 158.925346 
L 672.825175 146.654203 
L 674.311218 106.746037 
L 675.797261 98.468032 
L 677.283304 97.808416 
L 681.741434 124.200039 
L 683.227477 114.245944 
L 684.71352 113.121651 
L 686.199563 153.11643 
L 687.685606 147.074129 
L 692.143735 149.684576 
L 693.629778 146.291985 
L 695.115821 159.047891 
L 696.601864 153.539439 
L 698.087907 166.344567 
L 702.546036 162.216575 
L 704.03208 193.950368 
L 705.518123 196.902621 
L 707.004166 191.636863 
L 708.490209 184.891393 
L 714.434381 215.46 
L 715.920424 195.800051 
L 717.406467 135.788444 
L 718.89251 159.111544 
L 723.350639 159.29526 
L 724.836683 176.221419 
L 726.322726 173.350918 
L 727.808769 191.922975 
L 729.294812 169.632556 
L 733.752941 188.879382 
L 735.238984 187.595563 
L 736.725027 154.990848 
L 738.21107 163.871054 
L 739.697113 165.816234 
L 744.155242 182.314809 
L 745.641286 191.973352 
L 747.127329 190.644586 
L 748.613372 187.647347 
L 750.099415 164.511367 
L 754.557544 156.693424 
L 756.043587 166.398473 
L 757.52963 149.730025 
L 759.015673 158.835452 
L 760.501716 137.787021 
L 764.959845 135.076582 
L 766.445889 154.03228 
L 767.931932 155.867896 
L 769.417975 148.06692 
L 770.904018 145.35195 
L 775.362147 152.488101 
L 776.84819 144.50606 
L 778.334233 135.820306 
L 779.820276 173.634463 
L 781.306319 189.569719 
L 785.764448 186.389499 
L 787.250492 200.262596 
L 788.736535 138.401694 
L 790.222578 153.183921 
L 791.708621 147.260467 
L 796.16675 150.147623 
L 797.652793 147.048952 
L 799.138836 160.48509 
L 800.624879 153.704596 
L 806.569051 158.286601 
L 808.055095 157.299461 
L 809.541138 149.519819 
L 811.027181 130.082096 
L 812.513224 112.419956 
L 816.971353 110.865416 
L 818.457396 104.8576 
L 819.943439 136.065909 
L 821.429482 94.964086 
L 822.915525 93.278081 
L 827.373654 91.788004 
L 828.859698 92.967037 
L 830.345741 68.571669 
L 831.831784 59.092001 
L 833.317827 39.350794 
L 837.775956 39.06 
L 840.748042 41.451183 
L 842.234085 42.025285 
L 843.720128 39.730157 
L 848.178257 39.498996 
L 849.664301 41.783306 
L 851.150344 74.974688 
L 852.636387 83.693931 
L 854.12243 103.562051 
L 860.066602 79.669586 
L 861.552645 90.578995 
L 863.038688 94.783869 
L 864.524731 93.371338 
L 868.98286 106.645094 
L 870.468904 104.467202 
L 871.954947 109.791671 
L 873.44099 104.644592 
L 874.927033 102.046476 
L 879.385162 105.818899 
L 880.871205 109.679711 
L 882.357248 85.809998 
L 883.843291 80.765018 
L 885.329334 77.641391 
L 889.787463 85.857275 
L 891.273506 74.887425 
L 892.75955 73.770278 
L 895.731636 89.914215 
L 901.675808 76.933221 
L 904.647894 74.4288 
L 906.133937 82.606469 
L 910.592066 83.610108 
L 912.078109 95.565783 
L 913.564153 100.866771 
L 915.050196 98.80025 
L 920.994368 89.828814 
L 922.480411 99.31013 
L 923.966454 86.673096 
L 925.452497 95.792473 
L 926.93854 84.358809 
L 931.396669 96.741677 
L 932.882712 98.897192 
L 934.368756 103.563312 
L 935.854799 101.886775 
L 937.340842 102.428473 
L 941.798971 105.198935 
L 943.285014 102.92484 
L 944.771057 97.824125 
L 946.2571 103.211305 
L 947.743143 92.786756 
L 952.201272 93.278965 
L 953.687315 107.913205 
L 955.173359 95.423959 
L 956.659402 69.555985 
L 958.145445 99.871177 
L 962.603574 90.40513 
L 964.089617 107.974765 
L 965.57566 120.867425 
L 967.061703 125.480818 
L 968.547746 123.913088 
L 973.005875 115.186847 
L 974.491918 107.367288 
L 975.977962 128.606992 
L 977.464005 129.789655 
L 978.950048 131.541814 
L 983.408177 136.273345 
L 984.89422 146.937928 
L 986.380263 185.883577 
L 987.866306 176.348905 
L 989.352349 199.158573 
L 993.810478 193.657642 
L 995.296521 192.928076 
L 996.782565 172.444538 
L 998.268608 167.735653 
L 999.754651 172.052516 
L 1005.698823 196.693434 
L 1007.184866 183.093574 
L 1008.670909 180.364895 
L 1008.670909 180.364895 
" clip-path="url(#p6b00713902)" style="fill: none; stroke: #1f77b4; stroke-width: 1.5; stroke-linecap: square"/>
   </g>
   <g id="patch_3">
    <path d="M 145.8 224.28 
L 145.8 30.24 
" style="fill: none; stroke: #000000; stroke-width: 0.8; stroke-linejoin: miter; stroke-linecap: square"/>
   </g>
   <g id="patch_4">
    <path d="M 145.8 224.28 
L 1049.76 224.28 
" style="fill: none; stroke: #000000; stroke-width: 0.8; stroke-linejoin: miter; stroke-linecap: square"/>
   </g>
  </g>
 </g>
 <defs>
  <clipPath id="p6b00713902">
   <rect x="145.8" y="30.24" width="903.96" height="194.04"/>
  </clipPath>
 </defs>
</svg>
