<?xml version="1.0" encoding="utf-8" standalone="no"?>
<!DOCTYPE svg PUBLIC "-//W3C//DTD SVG 1.1//EN"
  "http://www.w3.org/Graphics/SVG/1.1/DTD/svg11.dtd">
<svg xmlns:xlink="http://www.w3.org/1999/xlink" width="756pt" height="252pt" viewBox="0 0 756 252" xmlns="http://www.w3.org/2000/svg" version="1.1">
 <metadata>
  <rdf:RDF xmlns:dc="http://purl.org/dc/elements/1.1/" xmlns:cc="http://creativecommons.org/ns#" xmlns:rdf="http://www.w3.org/1999/02/22-rdf-syntax-ns#">
   <cc:Work>
    <dc:type rdf:resource="http://purl.org/dc/dcmitype/StillImage"/>
    <dc:date>2025-08-31T00:52:55.139908</dc:date>
    <dc:format>image/svg+xml</dc:format>
    <dc:creator>
     <cc:Agent>
      <dc:title>Matplotlib v3.10.5, https://matplotlib.org/</dc:title>
     </cc:Agent>
    </dc:creator>
   </cc:Work>
  </rdf:RDF>
 </metadata>
 <defs>
  <style type="text/css">*{stroke-linejoin: round; stroke-linecap: butt}</style>
 </defs>
 <g id="figure_1">
  <g id="patch_1">
   <path d="M 0 252 
L 756 252 
L 756 0 
L 0 0 
z
" style="fill: #ffffff"/>
  </g>
  <g id="axes_1">
   <g id="patch_2">
    <path d="M 94.5 224.28 
L 680.4 224.28 
L 680.4 30.24 
L 94.5 30.24 
z
" style="fill: #ffffff"/>
   </g>
   <g id="matplotlib.axis_1">
    <g id="xtick_1">
     <g id="line2d_1">
      <defs>
       <path id="ma9d2b46e28" d="M 0 0 
L 0 3.5 
" style="stroke: #000000; stroke-width: 0.8"/>
      </defs>
      <g>
       <use xlink:href="#ma9d2b46e28" x="115.662203" y="224.28" style="stroke: #000000; stroke-width: 0.8"/>
      </g>
     </g>
     <g id="text_1">
      <!-- 2020 -->
      <g transform="translate(102.937203 238.878438) scale(0.1 -0.1)">
       <defs>
        <path id="DejaVuSans-32" d="M 1228 531 
L 3431 531 
L 3431 0 
L 469 0 
L 469 531 
Q 828 903 1448 1529 
Q 2069 2156 2228 2338 
Q 2531 2678 2651 2914 
Q 2772 3150 2772 3378 
Q 2772 3750 2511 3984 
Q 2250 4219 1831 4219 
Q 1534 4219 1204 4116 
Q 875 4013 500 3803 
L 500 4441 
Q 881 4594 1212 4672 
Q 1544 4750 1819 4750 
Q 2544 4750 2975 4387 
Q 3406 4025 3406 3419 
Q 3406 3131 3298 2873 
Q 3191 2616 2906 2266 
Q 2828 2175 2409 1742 
Q 1991 1309 1228 531 
z
" transform="scale(0.015625)"/>
        <path id="DejaVuSans-30" d="M 2034 4250 
Q 1547 4250 1301 3770 
Q 1056 3291 1056 2328 
Q 1056 1369 1301 889 
Q 1547 409 2034 409 
Q 2525 409 2770 889 
Q 3016 1369 3016 2328 
Q 3016 3291 2770 3770 
Q 2525 4250 2034 4250 
z
M 2034 4750 
Q 2819 4750 3233 4129 
Q 3647 3509 3647 2328 
Q 3647 1150 3233 529 
Q 2819 -91 2034 -91 
Q 1250 -91 836 529 
Q 422 1150 422 2328 
Q 422 3509 836 4129 
Q 1250 4750 2034 4750 
z
" transform="scale(0.015625)"/>
       </defs>
       <use xlink:href="#DejaVuSans-32"/>
       <use xlink:href="#DejaVuSans-30" transform="translate(63.623047 0)"/>
       <use xlink:href="#DejaVuSans-32" transform="translate(127.246094 0)"/>
       <use xlink:href="#DejaVuSans-30" transform="translate(190.869141 0)"/>
      </g>
     </g>
    </g>
    <g id="xtick_2">
     <g id="line2d_2">
      <g>
       <use xlink:href="#ma9d2b46e28" x="210.989787" y="224.28" style="stroke: #000000; stroke-width: 0.8"/>
      </g>
     </g>
     <g id="text_2">
      <!-- 2021 -->
      <g transform="translate(198.264787 238.878438) scale(0.1 -0.1)">
       <defs>
        <path id="DejaVuSans-31" d="M 794 531 
L 1825 531 
L 1825 4091 
L 703 3866 
L 703 4441 
L 1819 4666 
L 2450 4666 
L 2450 531 
L 3481 531 
L 3481 0 
L 794 0 
L 794 531 
z
" transform="scale(0.015625)"/>
       </defs>
       <use xlink:href="#DejaVuSans-32"/>
       <use xlink:href="#DejaVuSans-30" transform="translate(63.623047 0)"/>
       <use xlink:href="#DejaVuSans-32" transform="translate(127.246094 0)"/>
       <use xlink:href="#DejaVuSans-31" transform="translate(190.869141 0)"/>
      </g>
     </g>
    </g>
    <g id="xtick_3">
     <g id="line2d_3">
      <g>
       <use xlink:href="#ma9d2b46e28" x="306.056913" y="224.28" style="stroke: #000000; stroke-width: 0.8"/>
      </g>
     </g>
     <g id="text_3">
      <!-- 2022 -->
      <g transform="translate(293.331913 238.878438) scale(0.1 -0.1)">
       <use xlink:href="#DejaVuSans-32"/>
       <use xlink:href="#DejaVuSans-30" transform="translate(63.623047 0)"/>
       <use xlink:href="#DejaVuSans-32" transform="translate(127.246094 0)"/>
       <use xlink:href="#DejaVuSans-32" transform="translate(190.869141 0)"/>
      </g>
     </g>
    </g>
    <g id="xtick_4">
     <g id="line2d_4">
      <g>
       <use xlink:href="#ma9d2b46e28" x="401.124039" y="224.28" style="stroke: #000000; stroke-width: 0.8"/>
      </g>
     </g>
     <g id="text_4">
      <!-- 2023 -->
      <g transform="translate(388.399039 238.878438) scale(0.1 -0.1)">
       <defs>
        <path id="DejaVuSans-33" d="M 2597 2516 
Q 3050 2419 3304 2112 
Q 3559 1806 3559 1356 
Q 3559 666 3084 287 
Q 2609 -91 1734 -91 
Q 1441 -91 1130 -33 
Q 819 25 488 141 
L 488 750 
Q 750 597 1062 519 
Q 1375 441 1716 441 
Q 2309 441 2620 675 
Q 2931 909 2931 1356 
Q 2931 1769 2642 2001 
Q 2353 2234 1838 2234 
L 1294 2234 
L 1294 2753 
L 1863 2753 
Q 2328 2753 2575 2939 
Q 2822 3125 2822 3475 
Q 2822 3834 2567 4026 
Q 2313 4219 1838 4219 
Q 1578 4219 1281 4162 
Q 984 4106 628 3988 
L 628 4550 
Q 988 4650 1302 4700 
Q 1616 4750 1894 4750 
Q 2613 4750 3031 4423 
Q 3450 4097 3450 3541 
Q 3450 3153 3228 2886 
Q 3006 2619 2597 2516 
z
" transform="scale(0.015625)"/>
       </defs>
       <use xlink:href="#DejaVuSans-32"/>
       <use xlink:href="#DejaVuSans-30" transform="translate(63.623047 0)"/>
       <use xlink:href="#DejaVuSans-32" transform="translate(127.246094 0)"/>
       <use xlink:href="#DejaVuSans-33" transform="translate(190.869141 0)"/>
      </g>
     </g>
    </g>
    <g id="xtick_5">
     <g id="line2d_5">
      <g>
       <use xlink:href="#ma9d2b46e28" x="496.191165" y="224.28" style="stroke: #000000; stroke-width: 0.8"/>
      </g>
     </g>
     <g id="text_5">
      <!-- 2024 -->
      <g transform="translate(483.466165 238.878438) scale(0.1 -0.1)">
       <defs>
        <path id="DejaVuSans-34" d="M 2419 4116 
L 825 1625 
L 2419 1625 
L 2419 4116 
z
M 2253 4666 
L 3047 4666 
L 3047 1625 
L 3713 1625 
L 3713 1100 
L 3047 1100 
L 3047 0 
L 2419 0 
L 2419 1100 
L 313 1100 
L 313 1709 
L 2253 4666 
z
" transform="scale(0.015625)"/>
       </defs>
       <use xlink:href="#DejaVuSans-32"/>
       <use xlink:href="#DejaVuSans-30" transform="translate(63.623047 0)"/>
       <use xlink:href="#DejaVuSans-32" transform="translate(127.246094 0)"/>
       <use xlink:href="#DejaVuSans-34" transform="translate(190.869141 0)"/>
      </g>
     </g>
    </g>
    <g id="xtick_6">
     <g id="line2d_6">
      <g>
       <use xlink:href="#ma9d2b46e28" x="591.518749" y="224.28" style="stroke: #000000; stroke-width: 0.8"/>
      </g>
     </g>
     <g id="text_6">
      <!-- 2025 -->
      <g transform="translate(578.793749 238.878438) scale(0.1 -0.1)">
       <defs>
        <path id="DejaVuSans-35" d="M 691 4666 
L 3169 4666 
L 3169 4134 
L 1269 4134 
L 1269 2991 
Q 1406 3038 1543 3061 
Q 1681 3084 1819 3084 
Q 2600 3084 3056 2656 
Q 3513 2228 3513 1497 
Q 3513 744 3044 326 
Q 2575 -91 1722 -91 
Q 1428 -91 1123 -41 
Q 819 9 494 109 
L 494 744 
Q 775 591 1075 516 
Q 1375 441 1709 441 
Q 2250 441 2565 725 
Q 2881 1009 2881 1497 
Q 2881 1984 2565 2268 
Q 2250 2553 1709 2553 
Q 1456 2553 1204 2497 
Q 953 2441 691 2322 
L 691 4666 
z
" transform="scale(0.015625)"/>
       </defs>
       <use xlink:href="#DejaVuSans-32"/>
       <use xlink:href="#DejaVuSans-30" transform="translate(63.623047 0)"/>
       <use xlink:href="#DejaVuSans-32" transform="translate(127.246094 0)"/>
       <use xlink:href="#DejaVuSans-35" transform="translate(190.869141 0)"/>
      </g>
     </g>
    </g>
   </g>
   <g id="matplotlib.axis_2">
    <g id="ytick_1">
     <g id="line2d_7">
      <defs>
       <path id="m7bbc626cae" d="M 0 0 
L -3.5 0 
" style="stroke: #000000; stroke-width: 0.8"/>
      </defs>
      <g>
       <use xlink:href="#m7bbc626cae" x="94.5" y="206.401124" style="stroke: #000000; stroke-width: 0.8"/>
      </g>
     </g>
     <g id="text_7">
      <!-- 150 -->
      <g transform="translate(68.4125 210.200343) scale(0.1 -0.1)">
       <use xlink:href="#DejaVuSans-31"/>
       <use xlink:href="#DejaVuSans-35" transform="translate(63.623047 0)"/>
       <use xlink:href="#DejaVuSans-30" transform="translate(127.246094 0)"/>
      </g>
     </g>
    </g>
    <g id="ytick_2">
     <g id="line2d_8">
      <g>
       <use xlink:href="#m7bbc626cae" x="94.5" y="184.655007" style="stroke: #000000; stroke-width: 0.8"/>
      </g>
     </g>
     <g id="text_8">
      <!-- 200 -->
      <g transform="translate(68.4125 188.454226) scale(0.1 -0.1)">
       <use xlink:href="#DejaVuSans-32"/>
       <use xlink:href="#DejaVuSans-30" transform="translate(63.623047 0)"/>
       <use xlink:href="#DejaVuSans-30" transform="translate(127.246094 0)"/>
      </g>
     </g>
    </g>
    <g id="ytick_3">
     <g id="line2d_9">
      <g>
       <use xlink:href="#m7bbc626cae" x="94.5" y="162.90889" style="stroke: #000000; stroke-width: 0.8"/>
      </g>
     </g>
     <g id="text_9">
      <!-- 250 -->
      <g transform="translate(68.4125 166.708108) scale(0.1 -0.1)">
       <use xlink:href="#DejaVuSans-32"/>
       <use xlink:href="#DejaVuSans-35" transform="translate(63.623047 0)"/>
       <use xlink:href="#DejaVuSans-30" transform="translate(127.246094 0)"/>
      </g>
     </g>
    </g>
    <g id="ytick_4">
     <g id="line2d_10">
      <g>
       <use xlink:href="#m7bbc626cae" x="94.5" y="141.162772" style="stroke: #000000; stroke-width: 0.8"/>
      </g>
     </g>
     <g id="text_10">
      <!-- 300 -->
      <g transform="translate(68.4125 144.961991) scale(0.1 -0.1)">
       <use xlink:href="#DejaVuSans-33"/>
       <use xlink:href="#DejaVuSans-30" transform="translate(63.623047 0)"/>
       <use xlink:href="#DejaVuSans-30" transform="translate(127.246094 0)"/>
      </g>
     </g>
    </g>
    <g id="ytick_5">
     <g id="line2d_11">
      <g>
       <use xlink:href="#m7bbc626cae" x="94.5" y="119.416655" style="stroke: #000000; stroke-width: 0.8"/>
      </g>
     </g>
     <g id="text_11">
      <!-- 350 -->
      <g transform="translate(68.4125 123.215874) scale(0.1 -0.1)">
       <use xlink:href="#DejaVuSans-33"/>
       <use xlink:href="#DejaVuSans-35" transform="translate(63.623047 0)"/>
       <use xlink:href="#DejaVuSans-30" transform="translate(127.246094 0)"/>
      </g>
     </g>
    </g>
    <g id="ytick_6">
     <g id="line2d_12">
      <g>
       <use xlink:href="#m7bbc626cae" x="94.5" y="97.670538" style="stroke: #000000; stroke-width: 0.8"/>
      </g>
     </g>
     <g id="text_12">
      <!-- 400 -->
      <g transform="translate(68.4125 101.469756) scale(0.1 -0.1)">
       <use xlink:href="#DejaVuSans-34"/>
       <use xlink:href="#DejaVuSans-30" transform="translate(63.623047 0)"/>
       <use xlink:href="#DejaVuSans-30" transform="translate(127.246094 0)"/>
      </g>
     </g>
    </g>
    <g id="ytick_7">
     <g id="line2d_13">
      <g>
       <use xlink:href="#m7bbc626cae" x="94.5" y="75.92442" style="stroke: #000000; stroke-width: 0.8"/>
      </g>
     </g>
     <g id="text_13">
      <!-- 450 -->
      <g transform="translate(68.4125 79.723639) scale(0.1 -0.1)">
       <use xlink:href="#DejaVuSans-34"/>
       <use xlink:href="#DejaVuSans-35" transform="translate(63.623047 0)"/>
       <use xlink:href="#DejaVuSans-30" transform="translate(127.246094 0)"/>
      </g>
     </g>
    </g>
    <g id="ytick_8">
     <g id="line2d_14">
      <g>
       <use xlink:href="#m7bbc626cae" x="94.5" y="54.178303" style="stroke: #000000; stroke-width: 0.8"/>
      </g>
     </g>
     <g id="text_14">
      <!-- 500 -->
      <g transform="translate(68.4125 57.977522) scale(0.1 -0.1)">
       <use xlink:href="#DejaVuSans-35"/>
       <use xlink:href="#DejaVuSans-30" transform="translate(63.623047 0)"/>
       <use xlink:href="#DejaVuSans-30" transform="translate(127.246094 0)"/>
      </g>
     </g>
    </g>
    <g id="ytick_9">
     <g id="line2d_15">
      <g>
       <use xlink:href="#m7bbc626cae" x="94.5" y="32.432186" style="stroke: #000000; stroke-width: 0.8"/>
      </g>
     </g>
     <g id="text_15">
      <!-- 550 -->
      <g transform="translate(68.4125 36.231405) scale(0.1 -0.1)">
       <use xlink:href="#DejaVuSans-35"/>
       <use xlink:href="#DejaVuSans-35" transform="translate(63.623047 0)"/>
       <use xlink:href="#DejaVuSans-30" transform="translate(127.246094 0)"/>
      </g>
     </g>
    </g>
   </g>
   <g id="line2d_16">
    <path d="M 121.131818 203.085498 
L 121.392276 202.663497 
L 121.652734 203.358559 
L 122.434108 204.500423 
L 123.215481 200.156309 
L 123.475939 201.211323 
L 124.257313 199.494356 
L 124.517771 197.119604 
L 124.778228 197.210602 
L 125.038686 195.667423 
L 125.299144 195.559854 
L 126.080518 193.569853 
L 126.340976 195.332305 
L 126.601434 195.220595 
L 126.861892 195.634321 
L 127.122349 194.955816 
L 128.424639 193.945692 
L 128.685097 195.132172 
L 128.945555 197.550784 
L 129.987386 201.915052 
L 130.247844 201.04384 
L 130.508302 206.017946 
L 131.550133 199.956939 
L 131.810591 203.391934 
L 132.071049 200.886186 
L 133.373339 209.154237 
L 133.633796 204.881239 
L 133.894254 207.90552 
L 134.154712 213.94995 
L 134.41517 205.748276 
L 135.196544 215.46 
L 135.457002 210.834384 
L 135.717459 213.394046 
L 135.977917 212.435731 
L 136.238375 214.659346 
L 137.019749 215.227713 
L 137.280207 210.100094 
L 137.540665 210.68918 
L 137.801122 206.876688 
L 138.06158 209.535902 
L 138.842954 205.167493 
L 139.103412 206.212923 
L 139.36387 208.53609 
L 139.624328 207.229319 
L 139.884786 207.822552 
L 140.666159 203.076625 
L 140.926617 203.815063 
L 141.187075 203.134707 
L 141.447533 203.130539 
L 142.489364 202.977073 
L 142.749822 199.579415 
L 143.01028 200.33445 
L 143.270738 198.193797 
L 143.531196 197.546643 
L 144.312569 199.015209 
L 144.573027 202.018745 
L 144.833485 199.654087 
L 145.093943 200.525279 
L 145.354401 199.226784 
L 146.135775 199.434217 
L 146.396232 201.193192 
L 146.65669 198.031995 
L 146.917148 197.293564 
L 147.177606 199.218468 
L 148.219438 196.650538 
L 148.740353 195.472366 
L 149.000811 195.024317 
L 149.782185 194.16971 
L 150.303101 197.069546 
L 150.563559 196.745956 
L 150.824016 195.654894 
L 151.60539 194.928893 
L 151.865848 195.459916 
L 152.126306 194.403251 
L 152.386764 195.330945 
L 152.647222 195.297663 
L 153.689053 196.104708 
L 153.949511 196.004883 
L 154.209969 196.175445 
L 154.470427 195.40583 
L 155.2518 195.580559 
L 155.512258 194.715254 
L 155.772716 194.528048 
L 156.033174 195.543117 
L 156.293632 193.762587 
L 157.075006 193.280029 
L 157.335463 192.680975 
L 157.595921 189.752277 
L 157.856379 194.149482 
L 158.116837 193.537952 
L 158.898211 193.03875 
L 159.158669 191.112611 
L 159.419126 190.833889 
L 159.679584 189.968577 
L 159.940042 190.45533 
L 160.981874 187.64312 
L 161.242332 189.336256 
L 161.50279 188.296247 
L 161.763247 189.964429 
L 162.544621 189.086648 
L 162.805079 186.977497 
L 164.367826 183.986397 
L 164.628284 185.005601 
L 164.888742 183.100287 
L 165.1492 182.480448 
L 165.409658 182.750841 
L 166.191031 185.496494 
L 166.451489 184.964004 
L 166.711947 185.092962 
L 166.972405 186.806929 
L 167.232863 187.239562 
L 168.014236 183.611972 
L 168.274694 184.797596 
L 168.535152 183.54959 
L 168.79561 187.381036 
L 169.056068 187.896876 
L 169.837442 186.836029 
L 170.0979 187.597356 
L 170.358357 186.748688 
L 170.618815 186.815244 
L 170.879273 186.353471 
L 171.660647 181.556895 
L 171.921105 182.90892 
L 172.181563 183.054516 
L 172.44202 181.635921 
L 172.702478 183.245883 
L 173.483852 185.005601 
L 173.74431 187.031584 
L 174.004768 184.614565 
L 174.265226 184.818415 
L 174.525683 184.735201 
L 175.307057 184.161094 
L 175.567515 183.657737 
L 175.827973 184.191515 
L 176.088431 182.156493 
L 176.348889 182.807032 
L 177.130262 182.527626 
L 177.39072 181.368329 
L 178.172094 176.180664 
L 178.953467 177.590173 
L 179.213925 176.864571 
L 179.474383 175.038024 
L 179.734841 181.022195 
L 181.03713 187.127287 
L 181.297588 183.52846 
L 181.558046 185.997177 
L 181.818504 186.555994 
L 182.599878 185.980499 
L 182.860336 184.575171 
L 183.381251 187.023043 
L 183.641709 188.073922 
L 184.423083 187.177352 
L 184.683541 185.142304 
L 184.943999 187.990509 
L 185.204457 186.906282 
L 185.464914 184.975491 
L 186.246288 184.29994 
L 186.506746 185.209026 
L 187.027662 183.040553 
L 187.28812 185.65525 
L 188.069493 183.907949 
L 188.329951 185.772004 
L 188.590409 184.137309 
L 188.850867 183.824536 
L 189.111325 181.64356 
L 190.153156 178.7036 
L 190.674072 180.038052 
L 190.93453 180.038052 
L 191.715904 182.306595 
L 192.236819 182.064732 
L 192.497277 182.027229 
L 192.757735 181.468419 
L 193.539109 184.033051 
L 193.799567 182.711122 
L 194.060024 187.118945 
L 194.320482 186.26826 
L 194.58094 187.206512 
L 195.362314 187.264906 
L 195.622772 185.555167 
L 196.143687 178.524285 
L 196.404145 178.34497 
L 197.185519 180.567649 
L 197.445977 183.645234 
L 197.706435 181.334955 
L 197.966893 181.797856 
L 198.227351 181.351632 
L 199.008724 181.051402 
L 199.52964 183.385585 
L 199.790098 182.825308 
L 200.050556 183.674082 
L 200.831929 183.791168 
L 201.092387 182.223235 
L 201.352845 182.219074 
L 201.873761 181.650442 
L 202.655134 182.135449 
L 202.915592 181.240705 
L 203.436508 182.064367 
L 203.696966 182.014215 
L 204.47834 182.043469 
L 204.738798 181.324316 
L 204.999255 183.084545 
L 205.259713 183.619717 
L 205.520171 182.474111 
L 206.301545 182.08109 
L 206.562003 182.11037 
L 206.822461 179.957101 
L 207.082918 179.898581 
L 207.343376 180.245611 
L 208.385208 178.008744 
L 208.645666 179.2296 
L 208.906124 178.506287 
L 209.947955 177.582269 
L 210.208413 177.920951 
L 210.468871 178.953646 
L 210.729329 178.644264 
L 211.77116 180.621908 
L 212.031618 180.534102 
L 212.292076 182.896404 
L 212.552534 180.371046 
L 212.812992 179.814956 
L 213.594365 180.705506 
L 213.854823 181.775883 
L 214.115281 181.186359 
L 214.375739 182.574466 
L 214.636197 182.729167 
L 215.678028 181.14453 
L 215.938486 177.8415 
L 216.459402 177.168358 
L 217.240776 175.67152 
L 217.501234 174.500822 
L 217.761691 174.262509 
L 218.022149 171.741319 
L 218.282607 174.655516 
L 219.063981 171.440279 
L 219.324439 171.498818 
L 219.584897 170.039623 
L 219.845355 170.453554 
L 220.105812 170.374096 
L 220.887186 170.261231 
L 221.147644 169.717678 
L 221.408102 170.114886 
L 221.66856 169.416651 
L 221.929018 169.207592 
L 222.970849 169.746958 
L 223.231307 169.302751 
L 223.491765 169.474561 
L 223.752223 170.656335 
L 224.794054 173.88316 
L 225.054512 173.346767 
L 225.31497 175.67679 
L 225.575428 174.256145 
L 226.356802 172.345197 
L 226.617259 173.631734 
L 226.877717 176.276062 
L 227.138175 176.623875 
L 227.398633 174.58302 
L 228.180007 176.347297 
L 228.440465 173.669448 
L 228.700922 174.239401 
L 228.96138 172.265567 
L 229.221838 172.843868 
L 230.003212 173.237811 
L 230.26367 172.022496 
L 230.524128 172.303281 
L 230.784585 174.951791 
L 231.045043 175.10685 
L 232.086875 172.076994 
L 232.347333 172.965407 
L 232.607791 174.272888 
L 232.868248 172.537971 
L 233.649622 173.05762 
L 233.91008 174.478258 
L 234.170538 172.835493 
L 234.430996 170.078021 
L 235.472827 167.261863 
L 235.733285 167.768942 
L 235.993743 166.914056 
L 236.514659 164.420586 
L 237.296032 164.395441 
L 237.55649 163.31426 
L 237.816948 164.529549 
L 238.077406 162.890998 
L 238.337864 162.371355 
L 239.379695 163.41062 
L 239.640153 162.43841 
L 239.900611 163.86741 
L 240.161069 162.199533 
L 240.942443 162.031898 
L 241.202901 161.855867 
L 241.463359 164.961179 
L 241.723816 165.82028 
L 241.984274 165.958582 
L 242.765648 166.09267 
L 243.026106 167.798275 
L 243.286564 168.351445 
L 243.807479 165.841224 
L 244.588853 168.053909 
L 244.849311 168.452033 
L 245.109769 171.481909 
L 245.630685 167.647417 
L 246.412058 168.892058 
L 246.672516 169.772083 
L 246.932974 169.52008 
L 247.193432 168.108752 
L 247.45389 168.659002 
L 248.235263 166.302599 
L 248.495721 165.907754 
L 248.756179 166.004373 
L 249.016637 166.920049 
L 249.277095 166.764631 
L 250.318926 167.722342 
L 250.579384 167.764324 
L 250.839842 168.43217 
L 251.1003 166.298405 
L 251.881674 165.029879 
L 252.142132 165.55071 
L 252.402589 165.122291 
L 252.663047 163.589173 
L 253.704879 162.476038 
L 254.225795 163.530348 
L 254.486253 162.05182 
L 254.74671 162.66927 
L 255.528084 161.325155 
L 255.788542 160.115435 
L 256.049 160.216268 
L 256.309458 159.619842 
L 256.569916 160.321289 
L 257.351289 158.76712 
L 257.611747 157.641442 
L 257.872205 157.851471 
L 258.132663 157.557439 
L 258.393121 155.016193 
L 259.434952 155.012026 
L 259.69541 154.058523 
L 259.955868 155.112792 
L 260.216326 154.894402 
L 260.997699 155.154801 
L 261.258157 153.617468 
L 261.518615 152.974827 
L 261.779073 153.596484 
L 262.039531 153.714081 
L 262.820905 155.28502 
L 263.34182 153.44106 
L 263.862736 149.967348 
L 264.64411 150.227787 
L 264.904568 151.28207 
L 265.165026 151.416483 
L 265.425483 151.298887 
L 265.685941 151.966759 
L 266.467315 152.00452 
L 266.727773 151.038461 
L 266.988231 151.294666 
L 267.248689 150.030354 
L 267.509146 150.055559 
L 268.29052 150.530194 
L 268.550978 151.324052 
L 268.811436 151.109856 
L 269.332352 148.631669 
L 270.113725 147.896583 
L 270.634641 149.28834 
L 271.155557 143.552284 
L 271.93693 143.430227 
L 272.197388 144.284543 
L 272.457846 144.541212 
L 272.718304 145.770072 
L 272.978762 145.504961 
L 273.760136 143.876312 
L 274.020593 144.595935 
L 274.281051 144.617012 
L 274.541509 144.903174 
L 274.801967 144.907328 
L 276.104257 145.298769 
L 276.364714 146.544445 
L 276.625172 147.192555 
L 277.406546 146.653879 
L 277.667004 145.475509 
L 277.927462 143.358674 
L 278.18792 143.190348 
L 278.448377 145.441889 
L 279.229751 147.785928 
L 279.490209 147.575488 
L 279.750667 145.984746 
L 280.011125 145.572307 
L 280.271583 145.660664 
L 281.052956 147.840651 
L 281.313414 152.322603 
L 281.573872 152.120591 
L 281.83433 152.995931 
L 282.094788 149.974303 
L 282.876161 152.495149 
L 283.397077 148.286749 
L 283.657535 147.55445 
L 283.917993 147.55445 
L 284.699367 147.81538 
L 284.959824 148.383534 
L 285.220282 146.940054 
L 285.48074 144.229832 
L 285.741198 143.615409 
L 286.78303 141.923594 
L 287.043487 142.268713 
L 287.303945 140.858866 
L 287.564403 141.53222 
L 288.345777 141.965709 
L 288.606235 141.132431 
L 288.866693 135.636254 
L 289.12715 135.139639 
L 289.387608 132.080145 
L 290.168982 133.027038 
L 290.42944 131.444684 
L 290.689898 131.078541 
L 290.950356 130.051693 
L 291.210814 130.211577 
L 291.992187 129.820229 
L 292.252645 130.257886 
L 292.513103 132.425211 
L 292.773561 131.739273 
L 293.034019 129.933831 
L 293.815392 130.207396 
L 294.07585 128.759694 
L 294.336308 128.66271 
L 294.857224 126.980518 
L 295.638597 128.363383 
L 295.899055 129.269847 
L 296.159513 129.172876 
L 296.680429 132.642751 
L 297.461803 129.71256 
L 297.722261 132.259102 
L 298.243176 132.722839 
L 298.503634 135.454894 
L 299.285008 134.114158 
L 299.545466 130.433484 
L 299.805924 130.412394 
L 300.066381 131.200823 
L 300.326839 127.220835 
L 301.108213 128.544675 
L 301.368671 133.207747 
L 301.629129 130.547352 
L 301.889587 134.65801 
L 302.150044 135.121814 
L 302.931418 136.761904 
L 303.452334 131.158656 
L 303.712792 130.530455 
L 304.754623 127.258756 
L 305.015081 127.764687 
L 305.275539 127.46958 
L 305.796455 129.843257 
L 306.577828 130.505184 
L 306.838286 132.925209 
L 307.098744 138.250181 
L 307.359202 139.304199 
L 308.401034 139.139762 
L 308.661491 138.840395 
L 308.921949 137.453337 
L 309.182407 143.132466 
L 309.442865 140.85572 
L 310.484697 144.038877 
L 310.745154 143.752198 
L 311.005612 144.48159 
L 311.26607 146.829969 
L 312.047444 146.686623 
L 312.307902 150.008905 
L 312.56836 146.543264 
L 312.828818 145.223618 
L 313.089275 141.673642 
L 313.870649 140.52686 
L 314.131107 141.462843 
L 314.391565 139.481284 
L 314.652023 144.629157 
L 314.912481 142.651792 
L 315.693854 144.75562 
L 315.954312 143.233617 
L 316.21477 140.429916 
L 316.735686 147.247345 
L 317.517059 147.264228 
L 317.777517 144.95799 
L 318.037975 145.105862 
L 318.298433 148.811037 
L 318.558891 149.993987 
L 319.600722 150.082715 
L 319.86118 153.230222 
L 320.121638 147.180264 
L 320.382096 146.031121 
L 321.16347 145.40584 
L 321.423928 147.028185 
L 321.684385 144.814352 
L 323.247133 155.097608 
L 323.507591 149.753192 
L 323.768048 150.982636 
L 324.028506 153.31469 
L 324.80988 154.848319 
L 325.330796 147.264746 
L 325.591254 146.914079 
L 325.851711 144.712961 
L 326.633085 145.249527 
L 326.893543 143.179345 
L 327.154001 145.110109 
L 327.414459 143.162449 
L 327.674917 143.339893 
L 328.45629 140.374064 
L 328.716748 138.38417 
L 328.977206 139.039022 
L 329.237664 141.383817 
L 329.498122 140.914824 
L 330.279495 138.570055 
L 330.539953 140.297985 
L 330.800411 145.105862 
L 331.060869 144.3158 
L 332.102701 151.122014 
L 332.363158 152.473992 
L 332.623616 150.124976 
L 332.884074 153.416107 
L 333.925906 153.124584 
L 334.186364 151.105131 
L 334.446822 150.657294 
L 334.967737 155.8665 
L 335.749111 153.040116 
L 336.009569 157.47617 
L 336.270027 151.983868 
L 336.530485 149.275757 
L 336.790942 154.392067 
L 337.572316 151.455771 
L 337.832774 152.592239 
L 338.093232 149.127898 
L 338.35369 154.46386 
L 338.614148 155.57077 
L 339.395521 159.858978 
L 339.655979 157.780382 
L 340.176895 163.75848 
L 340.437353 161.320782 
L 341.218726 161.160221 
L 341.479184 158.912589 
L 341.739642 164.045013 
L 342.260558 164.688689 
L 343.041932 161.26286 
L 343.302389 161.699036 
L 343.823305 159.03965 
L 344.083763 155.931404 
L 345.125595 156.511544 
L 345.386052 156.278633 
L 345.64651 155.363966 
L 345.906968 157.294956 
L 346.688342 157.832783 
L 346.9488 156.244761 
L 347.209258 157.129816 
L 347.469715 159.509705 
L 347.730173 164.506593 
L 348.511547 169.050409 
L 348.772005 168.106064 
L 349.032463 165.02747 
L 349.292921 167.902818 
L 349.553379 166.76791 
L 350.59521 164.189002 
L 350.855668 164.447331 
L 351.116126 162.020868 
L 351.376584 158.277394 
L 352.157957 159.467352 
L 352.418415 163.02871 
L 352.678873 161.427986 
L 352.939331 162.880493 
L 353.199789 161.715959 
L 354.24162 160.33121 
L 354.762536 157.980973 
L 355.022994 158.29433 
L 355.804368 159.628257 
L 356.064826 164.218647 
L 356.325283 164.620945 
L 356.585741 164.045013 
L 356.846199 162.92708 
L 357.627573 163.973028 
L 357.888031 161.737122 
L 358.408946 159.488522 
L 358.669404 161.385666 
L 359.450778 162.03355 
L 359.711236 164.968174 
L 359.971694 157.837003 
L 360.232152 154.589035 
L 360.492609 152.755415 
L 361.273983 153.91146 
L 361.534441 155.26231 
L 361.794899 152.022797 
L 362.055357 151.523104 
L 363.097188 152.93323 
L 363.357646 152.094789 
L 363.618104 149.189789 
L 363.878562 150.096054 
L 364.13902 148.025262 
L 364.920393 147.364663 
L 365.701767 148.501277 
L 365.962225 150.207241 
L 366.743599 153.771897 
L 367.004056 154.327814 
L 367.264514 154.603649 
L 367.524972 153.305107 
L 367.78543 157.871287 
L 368.566804 159.084963 
L 369.087719 160.680603 
L 369.348177 161.134631 
L 369.608635 162.976395 
L 370.650467 164.168868 
L 370.910925 162.114925 
L 371.171383 161.932458 
L 371.43184 159.411752 
L 372.213214 158.482352 
L 372.473672 164.703568 
L 372.73413 164.605967 
L 372.994588 167.50863 
L 373.255046 167.780211 
L 374.036419 167.873585 
L 374.296877 168.752017 
L 374.557335 170.237294 
L 374.817793 169.375838 
L 375.078251 170.674406 
L 375.859624 170.873856 
L 376.120082 171.315183 
L 376.38054 169.337639 
L 376.901456 172.8047 
L 377.68283 169.477686 
L 377.943287 166.02334 
L 378.203745 165.887546 
L 378.464203 166.910273 
L 378.724661 172.236061 
L 379.506035 174.35364 
L 379.766493 175.983205 
L 380.02695 175.838923 
L 380.287408 172.236061 
L 380.547866 174.646457 
L 381.32924 170.839898 
L 381.589698 170.428263 
L 381.850156 171.285472 
L 382.110613 171.425519 
L 382.371071 168.892058 
L 383.152445 166.715071 
L 383.412903 165.26796 
L 383.673361 173.475194 
L 383.933819 175.414553 
L 384.194277 171.544351 
L 384.97565 173.131463 
L 385.236108 174.811956 
L 385.757024 180.719118 
L 386.017482 177.689148 
L 386.798855 174.939268 
L 387.059313 174.514904 
L 387.319771 176.365129 
L 387.580229 168.52711 
L 387.840687 166.774466 
L 388.62206 169.133941 
L 389.142976 168.768469 
L 389.403434 168.789745 
L 389.663892 168.985499 
L 390.445266 168.632297 
L 390.966181 166.278927 
L 391.487097 166.317239 
L 392.528929 169.364251 
L 392.789387 163.061692 
L 393.049844 163.253192 
L 393.310302 163.112753 
L 394.091676 165.163961 
L 394.352134 167.325811 
L 394.612592 167.644988 
L 394.87305 166.355531 
L 395.133507 167.19814 
L 395.914881 164.180913 
L 396.175339 162.304182 
L 396.435797 162.176518 
L 396.696255 165.670377 
L 396.956713 167.508803 
L 397.738086 169.313184 
L 397.998544 168.738685 
L 398.259002 167.619451 
L 398.51946 170.274955 
L 398.779918 170.045164 
L 399.821749 170.798394 
L 400.082207 171.832509 
L 400.342665 169.074884 
L 400.603123 169.581287 
L 401.644954 169.683421 
L 402.16587 177.032876 
L 402.426328 175.917903 
L 403.207702 174.985915 
L 403.46816 174.249688 
L 403.728617 171.304817 
L 403.989075 170.138777 
L 404.249533 169.832368 
L 405.291365 169.355749 
L 405.812281 172.938981 
L 406.072738 169.41107 
L 406.854112 168.406746 
L 407.11457 168.636544 
L 407.375028 169.245088 
L 407.635486 166.100183 
L 407.895944 166.032107 
L 408.677317 168.351412 
L 409.198233 164.078772 
L 409.458691 159.03588 
L 409.719149 161.695625 
L 410.500522 162.368024 
L 410.76098 157.776201 
L 411.021438 158.129429 
L 411.281896 159.452951 
L 411.542354 159.674194 
L 412.323727 156.176101 
L 412.584185 155.814352 
L 412.844643 156.740168 
L 413.105101 159.799065 
L 413.365559 161.543984 
L 414.667848 164.338381 
L 414.928306 162.94758 
L 415.188764 165.315363 
L 415.970138 164.91434 
L 416.230596 165.230026 
L 416.491054 166.573908 
L 417.011969 162.725739 
L 417.793343 162.051667 
L 418.053801 163.2121 
L 418.314259 163.404084 
L 418.574717 163.992811 
L 418.835174 165.584144 
L 419.616548 163.310212 
L 420.65838 152.42694 
L 421.439753 155.498659 
L 421.700211 154.837369 
L 421.960669 155.473069 
L 422.221127 153.182081 
L 422.481585 151.940586 
L 423.523416 154.218778 
L 424.044332 150.455959 
L 424.30479 148.642778 
L 425.086164 149.099242 
L 425.346621 149.120585 
L 425.607079 150.332204 
L 425.867537 147.234855 
L 426.909369 148.17774 
L 427.169827 150.976424 
L 427.430285 150.694829 
L 427.690742 147.985763 
L 427.9512 149.564267 
L 428.732574 148.429458 
L 428.993032 148.612915 
L 429.25349 148.578777 
L 429.513948 149.577062 
L 429.774405 149.726394 
L 430.555779 151.428641 
L 430.816237 154.137708 
L 431.076695 145.626487 
L 431.337153 141.590607 
L 431.597611 140.553897 
L 432.378984 141.279148 
L 432.639442 141.343176 
L 432.8999 141.77405 
L 433.160358 141.343176 
L 433.420816 139.107616 
L 434.202189 139.960883 
L 434.462647 140.664831 
L 434.723105 138.399447 
L 434.983563 139.338018 
L 435.244021 139.824359 
L 436.025395 139.615299 
L 436.54631 137.385579 
L 436.806768 135.45301 
L 437.067226 135.529965 
L 437.8486 134.315692 
L 438.109058 136.84685 
L 438.369515 137.449713 
L 438.890431 129.308975 
L 439.932263 130.027271 
L 440.192721 131.23297 
L 440.713636 128.235805 
L 441.49501 128.004911 
L 441.755468 128.971209 
L 442.015926 133.375064 
L 442.536842 131.917089 
L 443.578673 128.710373 
L 443.839131 127.406336 
L 444.099589 122.805792 
L 444.360047 125.272816 
L 445.401878 127.102761 
L 445.662336 129.022509 
L 445.922794 126.392999 
L 446.183252 128.398263 
L 446.964625 131.143233 
L 447.225083 128.590666 
L 447.485541 128.043416 
L 447.745999 128.385442 
L 448.006457 126.038138 
L 448.787831 127.12843 
L 449.308746 127.059996 
L 449.569204 125.726015 
L 449.829662 127.457648 
L 450.611036 129.762187 
L 450.871494 129.488542 
L 451.652867 124.028613 
L 452.434241 123.819116 
L 452.694699 117.935878 
L 452.955157 119.821408 
L 453.215615 123.331673 
L 453.476072 124.657119 
L 454.257446 124.084199 
L 454.517904 121.574384 
L 454.778362 127.222494 
L 455.03882 130.236769 
L 455.299278 126.965958 
L 456.080651 128.013459 
L 456.341109 127.833892 
L 456.601567 131.613514 
L 456.862025 131.972675 
L 457.122483 131.493833 
L 457.903856 130.497579 
L 458.424772 133.866754 
L 458.68523 133.567452 
L 458.945688 134.388374 
L 459.727062 133.092871 
L 459.987519 134.024965 
L 460.247977 134.359174 
L 460.508435 135.867372 
L 460.768893 136.038751 
L 461.550267 133.72504 
L 461.810725 133.476534 
L 462.071182 131.531289 
L 462.33164 134.5434 
L 462.592098 133.253711 
L 463.373472 132.945198 
L 463.63393 130.927165 
L 463.894388 130.764348 
L 464.154846 131.205655 
L 464.415303 130.820054 
L 465.457135 128.724853 
L 465.717593 129.011917 
L 465.978051 130.284458 
L 466.238509 128.416354 
L 467.019882 126.843875 
L 467.28034 129.48752 
L 467.801256 126.518241 
L 468.061714 130.151637 
L 469.103545 130.824301 
L 469.364003 134.200644 
L 469.624461 134.731926 
L 469.884919 135.81164 
L 470.666293 135.584556 
L 470.92675 137.898267 
L 471.447666 137.255572 
L 472.489498 133.759324 
L 472.749956 137.362683 
L 473.010413 134.976159 
L 473.270871 134.804754 
L 473.531329 131.419891 
L 474.312703 130.323028 
L 474.573161 130.9357 
L 474.833619 129.209004 
L 475.094076 129.748861 
L 475.354534 131.218503 
L 476.135908 129.114754 
L 476.396366 129.363247 
L 476.656824 130.198742 
L 476.917282 129.680321 
L 477.177739 131.672657 
L 478.219571 130.018816 
L 478.480029 125.674159 
L 478.740487 131.149949 
L 479.000945 130.327315 
L 479.782318 127.113817 
L 480.042776 126.771034 
L 480.303234 123.360435 
L 480.563692 122.396407 
L 480.82415 120.476884 
L 481.605523 118.878709 
L 482.126439 116.020855 
L 482.386897 117.096282 
L 482.647355 113.248676 
L 483.428729 114.529765 
L 483.689186 112.991609 
L 483.949644 112.927196 
L 484.210102 110.136502 
L 484.47056 112.849896 
L 485.251934 109.591243 
L 485.512392 111.467443 
L 485.77285 109.415233 
L 486.293765 109.59557 
L 487.075139 109.088935 
L 487.335597 107.33296 
L 487.596055 108.985912 
L 487.856513 108.960123 
L 488.11697 110.849224 
L 488.898344 113.154745 
L 489.158802 111.703592 
L 489.41926 113.300719 
L 489.679718 112.377637 
L 489.940176 110.969422 
L 490.721549 112.227389 
L 490.982007 110.905036 
L 491.242465 110.90931 
L 491.502923 114.532924 
L 491.763381 112.472086 
L 492.805212 111.385882 
L 493.06567 112.519324 
L 493.326128 111.26567 
L 493.586586 110.819161 
L 494.628417 110.784811 
L 494.888875 111.038095 
L 495.409791 110.192327 
L 496.451623 112.412 
L 496.71208 112.527898 
L 496.972538 113.669954 
L 497.232996 113.751515 
L 498.01437 110.771923 
L 498.274828 110.299638 
L 498.535286 107.302924 
L 498.795743 106.50434 
L 499.056201 104.855689 
L 500.098033 104.082895 
L 500.358491 104.426368 
L 500.879407 100.476469 
L 501.66078 101.403838 
L 501.921238 100.377733 
L 502.442154 97.814587 
L 502.702612 98.218173 
L 503.483985 95.732327 
L 503.744443 96.217474 
L 504.004901 100.944454 
L 504.525817 95.088319 
L 505.30719 97.479728 
L 505.567648 97.548388 
L 505.828106 93.873316 
L 506.088564 93.847567 
L 506.349022 91.082648 
L 507.130396 93.353806 
L 507.390854 97.192067 
L 507.651311 95.505974 
L 508.172227 97.841557 
L 509.214059 98.387812 
L 509.474517 98.650201 
L 509.734974 94.576879 
L 509.995432 95.140362 
L 510.776806 96.344707 
L 511.037264 96.370509 
L 511.297722 96.267287 
L 511.55818 93.720918 
L 511.818637 92.920875 
L 512.600011 93.170363 
L 512.860469 98.448057 
L 513.120927 98.688905 
L 513.381385 95.6565 
L 513.641843 96.912463 
L 514.423216 97.6437 
L 514.683674 93.01551 
L 514.944132 93.092916 
L 515.20459 88.74003 
L 515.465048 92.52516 
L 516.246421 92.138046 
L 517.027795 86.955 
L 517.288253 87.225951 
L 518.330084 90.275597 
L 518.590542 90.370232 
L 518.851 90.675599 
L 519.892832 89.019621 
L 520.15329 90.365918 
L 520.413747 90.791735 
L 520.674205 91.897185 
L 520.934663 88.610992 
L 521.716037 89.011007 
L 521.976495 88.28411 
L 522.236953 89.583077 
L 522.497411 87.574388 
L 522.757868 90.168061 
L 523.539242 93.720918 
L 523.7997 93.316616 
L 524.060158 94.495159 
L 524.581074 99.966396 
L 525.362447 99.174967 
L 525.622905 96.331792 
L 525.883363 95.690943 
L 526.143821 100.000799 
L 526.404279 96.869473 
L 527.185652 98.620085 
L 527.44611 104.177384 
L 527.706568 101.76434 
L 527.967026 100.516978 
L 528.227484 96.723233 
L 529.008858 93.763922 
L 529.269315 95.570492 
L 529.529773 95.054327 
L 530.050689 93.247796 
L 530.832063 93.686528 
L 531.092521 92.464941 
L 531.352978 89.332261 
L 531.613436 90.232859 
L 531.873894 90.568978 
L 532.655268 88.358411 
L 532.915726 86.764085 
L 533.176184 86.126328 
L 533.436641 87.643114 
L 533.697099 86.281473 
L 534.738931 86.212495 
L 534.999389 86.708047 
L 535.259847 92.956167 
L 535.520305 92.757951 
L 536.301678 93.451733 
L 536.562136 92.352906 
L 536.822594 88.931516 
L 537.083052 88.711772 
L 537.34351 89.000468 
L 538.124883 87.268225 
L 538.385341 85.195574 
L 538.645799 81.584596 
L 538.906257 81.360525 
L 539.166715 80.933925 
L 539.948088 78.434674 
L 540.208546 79.309417 
L 540.729462 79.585198 
L 540.98992 77.827113 
L 541.771294 78.736298 
L 542.031752 77.322946 
L 542.552667 76.504228 
L 542.813125 79.046576 
L 543.854957 73.73351 
L 544.115415 73.091479 
L 544.63633 70.165628 
L 545.417704 70.734406 
L 545.678162 73.621474 
L 545.93862 70.730119 
L 546.199078 75.707039 
L 546.459535 76.202605 
L 547.240909 76.025931 
L 548.282741 83.28667 
L 549.324572 79.951461 
L 549.845488 91.3489 
L 550.105946 88.388593 
L 550.887319 87.759463 
L 551.408235 91.370442 
L 551.668693 91.90479 
L 551.929151 95.619177 
L 552.710525 101.367431 
L 552.970982 99.445599 
L 553.23144 99.954079 
L 553.752356 96.683508 
L 554.53373 96.343101 
L 554.794188 93.240576 
L 555.054645 92.012486 
L 555.315103 89.888629 
L 555.575561 90.993734 
L 556.356935 89.672787 
L 556.617393 88.261188 
L 556.877851 88.546088 
L 557.138309 92.254236 
L 557.398766 91.718958 
L 558.18014 93.143512 
L 558.440598 92.992428 
L 558.701056 94.39106 
L 558.961514 93.303237 
L 559.221972 91.567861 
L 560.263803 94.891816 
L 560.784719 95.345081 
L 561.045177 98.233011 
L 561.82655 96.497662 
L 562.347466 89.020935 
L 562.868382 85.761751 
L 563.649756 85.437988 
L 563.910213 83.793266 
L 564.170671 85.666771 
L 564.431129 82.265118 
L 564.691587 83.741489 
L 565.472961 84.501236 
L 565.733419 86.374728 
L 565.993876 85.105612 
L 566.254334 85.450943 
L 566.514792 86.87117 
L 567.296166 85.88694 
L 567.556624 90.035386 
L 567.817082 91.572175 
L 568.337997 92.034081 
L 569.119371 94.848639 
L 569.379829 92.616848 
L 569.640287 91.429731 
L 569.900745 92.129061 
L 570.161202 91.921846 
L 570.942576 90.704507 
L 571.203034 90.877172 
L 571.463492 92.008185 
L 571.72395 91.749167 
L 571.984408 91.127537 
L 572.765781 90.859891 
L 573.026239 87.091312 
L 573.286697 88.347514 
L 573.547155 88.291383 
L 573.807613 86.815039 
L 574.588986 87.488473 
L 574.849444 85.174643 
L 575.109902 84.924279 
L 575.37036 96.225703 
L 575.630818 94.490354 
L 576.412192 95.314872 
L 576.672649 94.019821 
L 577.193565 87.989228 
L 577.454023 89.236777 
L 578.235397 91.192295 
L 578.495855 89.025262 
L 579.01677 87.358957 
L 579.277228 92.49166 
L 580.058602 92.163583 
L 580.31906 91.287261 
L 580.839976 93.054399 
L 581.100433 91.267989 
L 581.881807 90.493722 
L 582.142265 86.514304 
L 582.402723 88.677037 
L 582.923639 88.473725 
L 583.705012 85.220992 
L 583.96547 85.125826 
L 584.486386 80.186163 
L 585.528217 78.715513 
L 585.788675 79.879071 
L 586.049133 77.430841 
L 586.309591 77.184299 
L 586.570049 78.174833 
L 587.351423 76.306238 
L 587.61188 75.064822 
L 587.872338 82.448362 
L 588.393254 82.790069 
L 589.174628 83.374019 
L 589.435086 81.60923 
L 589.956001 82.136943 
L 590.216459 85.415637 
L 590.997833 87.881162 
L 591.258291 89.321523 
L 591.779206 90.584561 
L 592.039664 88.521308 
L 592.821038 86.574855 
L 593.081496 88.945213 
L 593.341954 87.997935 
L 593.86287 90.424518 
L 594.644243 91.185791 
L 594.904701 91.843258 
L 595.165159 87.240989 
L 595.425617 87.989295 
L 595.686075 86.064463 
L 596.727906 86.293698 
L 596.988364 78.637641 
L 597.248822 78.417061 
L 597.50928 79.563298 
L 598.290653 83.672483 
L 598.551111 78.205095 
L 598.811569 80.311604 
L 599.072027 92.137396 
L 599.332485 92.107121 
L 600.113859 93.897844 
L 600.895232 91.778381 
L 601.15569 94.403935 
L 601.937064 93.335556 
L 602.197522 93.672937 
L 602.45798 94.711054 
L 602.718437 94.062227 
L 602.978895 94.974903 
L 604.020727 94.451518 
L 604.281185 92.232575 
L 604.541643 91.283372 
L 604.8021 94.716018 
L 605.583474 96.540679 
L 605.843932 99.18451 
L 606.10439 98.391356 
L 606.364848 101.511918 
L 606.625306 99.578911 
L 607.406679 103.262916 
L 607.667137 103.210913 
L 607.927595 97.832253 
L 609.229884 106.873231 
L 609.490342 106.747551 
L 609.7508 105.525327 
L 610.011258 107.475695 
L 610.271716 103.232574 
L 611.05309 103.171891 
L 611.313547 105.416981 
L 611.574005 103.553285 
L 611.834463 103.978053 
L 612.094921 102.062354 
L 612.876295 101.273552 
L 613.136753 100.372039 
L 613.39721 102.621456 
L 613.657668 102.357089 
L 613.918126 107.462688 
L 614.6995 108.940612 
L 614.959958 105.993405 
L 615.220416 106.015079 
L 615.480874 109.92881 
L 615.741331 115.680183 
L 616.522705 116.538347 
L 616.783163 117.968608 
L 617.043621 102.396098 
L 617.304079 106.357477 
L 617.564537 103.280237 
L 618.34591 103.557638 
L 618.606368 104.459125 
L 618.866826 110.578924 
L 619.127284 112.238897 
L 620.169115 115.992252 
L 620.690031 109.374034 
L 620.950489 103.778683 
L 621.210947 101.80664 
L 621.992321 102.105702 
L 622.252778 100.857464 
L 622.513236 100.328703 
L 622.773694 87.26565 
L 623.034152 82.98352 
L 623.815526 82.597787 
L 624.075984 83.837345 
L 624.336441 83.82001 
L 624.596899 81.730955 
L 624.857357 81.488236 
L 625.638731 76.924418 
L 625.899189 76.976407 
L 626.159647 75.329455 
L 626.680562 74.391561 
L 627.461936 72.394207 
L 627.722394 72.69814 
L 627.982852 75.129713 
L 628.24331 74.135383 
L 628.503768 76.167472 
L 629.545599 71.603946 
L 629.806057 73.049856 
L 630.326973 71.747239 
L 631.108346 71.048148 
L 631.629262 70.223166 
L 632.150178 67.396462 
L 632.931551 66.367384 
L 633.192009 67.161985 
L 633.452467 66.423833 
L 633.712925 63.710028 
L 633.973383 65.407789 
L 634.754757 63.59279 
L 635.015214 64.070424 
L 635.275672 63.115169 
L 635.796588 64.348316 
L 637.098878 57.891641 
L 637.359335 55.642436 
L 637.619793 56.298085 
L 638.401167 55.659797 
L 638.661625 57.987165 
L 638.922083 58.403997 
L 639.182541 55.038883 
L 640.224372 55.525198 
L 640.48483 56.002832 
L 640.745288 53.011122 
L 641.005746 53.892567 
L 641.266204 53.093625 
L 642.047577 53.223898 
L 642.308035 52.008111 
L 642.568493 52.094955 
L 642.828951 49.45496 
L 643.089409 50.171411 
L 643.870782 50.167071 
L 644.13124 52.246928 
L 644.391698 51.986397 
L 644.652156 49.811015 
L 644.912614 48.582182 
L 645.693988 49.107598 
L 645.954445 49.077203 
L 646.214903 48.786291 
L 646.475361 39.989227 
L 646.735819 44.066438 
L 647.517193 39.06 
L 647.777651 42.485916 
L 648.038108 43.706029 
L 648.298566 45.48628 
L 648.559024 44.965244 
L 649.340398 45.082469 
L 649.600856 41.838948 
L 649.861314 45.599179 
L 650.121772 44.774196 
L 650.382229 45.77722 
L 651.163603 47.110258 
L 651.424061 50.29299 
L 651.684519 52.051527 
L 651.944977 52.334237 
L 652.205435 51.03381 
L 652.986808 52.32553 
L 653.247266 53.291058 
L 653.768182 49.985645 
L 653.768182 49.985645 
" clip-path="url(#p91d527e112)" style="fill: none; stroke: #1f77b4; stroke-width: 1.5; stroke-linecap: square"/>
   </g>
   <g id="patch_3">
    <path d="M 94.5 224.28 
L 94.5 30.24 
" style="fill: none; stroke: #000000; stroke-width: 0.8; stroke-linejoin: miter; stroke-linecap: square"/>
   </g>
   <g id="patch_4">
    <path d="M 94.5 224.28 
L 680.4 224.28 
" style="fill: none; stroke: #000000; stroke-width: 0.8; stroke-linejoin: miter; stroke-linecap: square"/>
   </g>
  </g>
 </g>
 <defs>
  <clipPath id="p91d527e112">
   <rect x="94.5" y="30.24" width="585.9" height="194.04"/>
  </clipPath>
 </defs>
</svg>
