<?xml version="1.0" encoding="utf-8" standalone="no"?>
<!DOCTYPE svg PUBLIC "-//W3C//DTD SVG 1.1//EN"
  "http://www.w3.org/Graphics/SVG/1.1/DTD/svg11.dtd">
<svg xmlns:xlink="http://www.w3.org/1999/xlink" width="756pt" height="252pt" viewBox="0 0 756 252" xmlns="http://www.w3.org/2000/svg" version="1.1">
 <metadata>
  <rdf:RDF xmlns:dc="http://purl.org/dc/elements/1.1/" xmlns:cc="http://creativecommons.org/ns#" xmlns:rdf="http://www.w3.org/1999/02/22-rdf-syntax-ns#">
   <cc:Work>
    <dc:type rdf:resource="http://purl.org/dc/dcmitype/StillImage"/>
    <dc:date>2025-09-07T00:54:26.782172</dc:date>
    <dc:format>image/svg+xml</dc:format>
    <dc:creator>
     <cc:Agent>
      <dc:title>Matplotlib v3.10.5, https://matplotlib.org/</dc:title>
     </cc:Agent>
    </dc:creator>
   </cc:Work>
  </rdf:RDF>
 </metadata>
 <defs>
  <style type="text/css">*{stroke-linejoin: round; stroke-linecap: butt}</style>
 </defs>
 <g id="figure_1">
  <g id="patch_1">
   <path d="M 0 252 
L 756 252 
L 756 0 
L 0 0 
z
" style="fill: #ffffff"/>
  </g>
  <g id="axes_1">
   <g id="patch_2">
    <path d="M 94.5 224.28 
L 680.4 224.28 
L 680.4 30.24 
L 94.5 30.24 
z
" style="fill: #ffffff"/>
   </g>
   <g id="matplotlib.axis_1">
    <g id="xtick_1">
     <g id="line2d_1">
      <defs>
       <path id="mcf7c7ca335" d="M 0 0 
L 0 3.5 
" style="stroke: #000000; stroke-width: 0.8"/>
      </defs>
      <g>
       <use xlink:href="#mcf7c7ca335" x="122.094994" y="224.28" style="stroke: #000000; stroke-width: 0.8"/>
      </g>
     </g>
     <g id="text_1">
      <!-- 2024-03 -->
      <g transform="translate(101.203588 238.878438) scale(0.1 -0.1)">
       <defs>
        <path id="DejaVuSans-32" d="M 1228 531 
L 3431 531 
L 3431 0 
L 469 0 
L 469 531 
Q 828 903 1448 1529 
Q 2069 2156 2228 2338 
Q 2531 2678 2651 2914 
Q 2772 3150 2772 3378 
Q 2772 3750 2511 3984 
Q 2250 4219 1831 4219 
Q 1534 4219 1204 4116 
Q 875 4013 500 3803 
L 500 4441 
Q 881 4594 1212 4672 
Q 1544 4750 1819 4750 
Q 2544 4750 2975 4387 
Q 3406 4025 3406 3419 
Q 3406 3131 3298 2873 
Q 3191 2616 2906 2266 
Q 2828 2175 2409 1742 
Q 1991 1309 1228 531 
z
" transform="scale(0.015625)"/>
        <path id="DejaVuSans-30" d="M 2034 4250 
Q 1547 4250 1301 3770 
Q 1056 3291 1056 2328 
Q 1056 1369 1301 889 
Q 1547 409 2034 409 
Q 2525 409 2770 889 
Q 3016 1369 3016 2328 
Q 3016 3291 2770 3770 
Q 2525 4250 2034 4250 
z
M 2034 4750 
Q 2819 4750 3233 4129 
Q 3647 3509 3647 2328 
Q 3647 1150 3233 529 
Q 2819 -91 2034 -91 
Q 1250 -91 836 529 
Q 422 1150 422 2328 
Q 422 3509 836 4129 
Q 1250 4750 2034 4750 
z
" transform="scale(0.015625)"/>
        <path id="DejaVuSans-34" d="M 2419 4116 
L 825 1625 
L 2419 1625 
L 2419 4116 
z
M 2253 4666 
L 3047 4666 
L 3047 1625 
L 3713 1625 
L 3713 1100 
L 3047 1100 
L 3047 0 
L 2419 0 
L 2419 1100 
L 313 1100 
L 313 1709 
L 2253 4666 
z
" transform="scale(0.015625)"/>
        <path id="DejaVuSans-2d" d="M 313 2009 
L 1997 2009 
L 1997 1497 
L 313 1497 
L 313 2009 
z
" transform="scale(0.015625)"/>
        <path id="DejaVuSans-33" d="M 2597 2516 
Q 3050 2419 3304 2112 
Q 3559 1806 3559 1356 
Q 3559 666 3084 287 
Q 2609 -91 1734 -91 
Q 1441 -91 1130 -33 
Q 819 25 488 141 
L 488 750 
Q 750 597 1062 519 
Q 1375 441 1716 441 
Q 2309 441 2620 675 
Q 2931 909 2931 1356 
Q 2931 1769 2642 2001 
Q 2353 2234 1838 2234 
L 1294 2234 
L 1294 2753 
L 1863 2753 
Q 2328 2753 2575 2939 
Q 2822 3125 2822 3475 
Q 2822 3834 2567 4026 
Q 2313 4219 1838 4219 
Q 1578 4219 1281 4162 
Q 984 4106 628 3988 
L 628 4550 
Q 988 4650 1302 4700 
Q 1616 4750 1894 4750 
Q 2613 4750 3031 4423 
Q 3450 4097 3450 3541 
Q 3450 3153 3228 2886 
Q 3006 2619 2597 2516 
z
" transform="scale(0.015625)"/>
       </defs>
       <use xlink:href="#DejaVuSans-32"/>
       <use xlink:href="#DejaVuSans-30" transform="translate(63.623047 0)"/>
       <use xlink:href="#DejaVuSans-32" transform="translate(127.246094 0)"/>
       <use xlink:href="#DejaVuSans-34" transform="translate(190.869141 0)"/>
       <use xlink:href="#DejaVuSans-2d" transform="translate(254.492188 0)"/>
       <use xlink:href="#DejaVuSans-30" transform="translate(290.576172 0)"/>
       <use xlink:href="#DejaVuSans-33" transform="translate(354.199219 0)"/>
      </g>
     </g>
    </g>
    <g id="xtick_2">
     <g id="line2d_2">
      <g>
       <use xlink:href="#mcf7c7ca335" x="180.848734" y="224.28" style="stroke: #000000; stroke-width: 0.8"/>
      </g>
     </g>
     <g id="text_2">
      <!-- 2024-05 -->
      <g transform="translate(159.957328 238.878438) scale(0.1 -0.1)">
       <defs>
        <path id="DejaVuSans-35" d="M 691 4666 
L 3169 4666 
L 3169 4134 
L 1269 4134 
L 1269 2991 
Q 1406 3038 1543 3061 
Q 1681 3084 1819 3084 
Q 2600 3084 3056 2656 
Q 3513 2228 3513 1497 
Q 3513 744 3044 326 
Q 2575 -91 1722 -91 
Q 1428 -91 1123 -41 
Q 819 9 494 109 
L 494 744 
Q 775 591 1075 516 
Q 1375 441 1709 441 
Q 2250 441 2565 725 
Q 2881 1009 2881 1497 
Q 2881 1984 2565 2268 
Q 2250 2553 1709 2553 
Q 1456 2553 1204 2497 
Q 953 2441 691 2322 
L 691 4666 
z
" transform="scale(0.015625)"/>
       </defs>
       <use xlink:href="#DejaVuSans-32"/>
       <use xlink:href="#DejaVuSans-30" transform="translate(63.623047 0)"/>
       <use xlink:href="#DejaVuSans-32" transform="translate(127.246094 0)"/>
       <use xlink:href="#DejaVuSans-34" transform="translate(190.869141 0)"/>
       <use xlink:href="#DejaVuSans-2d" transform="translate(254.492188 0)"/>
       <use xlink:href="#DejaVuSans-30" transform="translate(290.576172 0)"/>
       <use xlink:href="#DejaVuSans-35" transform="translate(354.199219 0)"/>
      </g>
     </g>
    </g>
    <g id="xtick_3">
     <g id="line2d_3">
      <g>
       <use xlink:href="#mcf7c7ca335" x="239.602474" y="224.28" style="stroke: #000000; stroke-width: 0.8"/>
      </g>
     </g>
     <g id="text_3">
      <!-- 2024-07 -->
      <g transform="translate(218.711068 238.878438) scale(0.1 -0.1)">
       <defs>
        <path id="DejaVuSans-37" d="M 525 4666 
L 3525 4666 
L 3525 4397 
L 1831 0 
L 1172 0 
L 2766 4134 
L 525 4134 
L 525 4666 
z
" transform="scale(0.015625)"/>
       </defs>
       <use xlink:href="#DejaVuSans-32"/>
       <use xlink:href="#DejaVuSans-30" transform="translate(63.623047 0)"/>
       <use xlink:href="#DejaVuSans-32" transform="translate(127.246094 0)"/>
       <use xlink:href="#DejaVuSans-34" transform="translate(190.869141 0)"/>
       <use xlink:href="#DejaVuSans-2d" transform="translate(254.492188 0)"/>
       <use xlink:href="#DejaVuSans-30" transform="translate(290.576172 0)"/>
       <use xlink:href="#DejaVuSans-37" transform="translate(354.199219 0)"/>
      </g>
     </g>
    </g>
    <g id="xtick_4">
     <g id="line2d_4">
      <g>
       <use xlink:href="#mcf7c7ca335" x="299.31939" y="224.28" style="stroke: #000000; stroke-width: 0.8"/>
      </g>
     </g>
     <g id="text_4">
      <!-- 2024-09 -->
      <g transform="translate(278.427984 238.878438) scale(0.1 -0.1)">
       <defs>
        <path id="DejaVuSans-39" d="M 703 97 
L 703 672 
Q 941 559 1184 500 
Q 1428 441 1663 441 
Q 2288 441 2617 861 
Q 2947 1281 2994 2138 
Q 2813 1869 2534 1725 
Q 2256 1581 1919 1581 
Q 1219 1581 811 2004 
Q 403 2428 403 3163 
Q 403 3881 828 4315 
Q 1253 4750 1959 4750 
Q 2769 4750 3195 4129 
Q 3622 3509 3622 2328 
Q 3622 1225 3098 567 
Q 2575 -91 1691 -91 
Q 1453 -91 1209 -44 
Q 966 3 703 97 
z
M 1959 2075 
Q 2384 2075 2632 2365 
Q 2881 2656 2881 3163 
Q 2881 3666 2632 3958 
Q 2384 4250 1959 4250 
Q 1534 4250 1286 3958 
Q 1038 3666 1038 3163 
Q 1038 2656 1286 2365 
Q 1534 2075 1959 2075 
z
" transform="scale(0.015625)"/>
       </defs>
       <use xlink:href="#DejaVuSans-32"/>
       <use xlink:href="#DejaVuSans-30" transform="translate(63.623047 0)"/>
       <use xlink:href="#DejaVuSans-32" transform="translate(127.246094 0)"/>
       <use xlink:href="#DejaVuSans-34" transform="translate(190.869141 0)"/>
       <use xlink:href="#DejaVuSans-2d" transform="translate(254.492188 0)"/>
       <use xlink:href="#DejaVuSans-30" transform="translate(290.576172 0)"/>
       <use xlink:href="#DejaVuSans-39" transform="translate(354.199219 0)"/>
      </g>
     </g>
    </g>
    <g id="xtick_5">
     <g id="line2d_5">
      <g>
       <use xlink:href="#mcf7c7ca335" x="358.07313" y="224.28" style="stroke: #000000; stroke-width: 0.8"/>
      </g>
     </g>
     <g id="text_5">
      <!-- 2024-11 -->
      <g transform="translate(337.181724 238.878438) scale(0.1 -0.1)">
       <defs>
        <path id="DejaVuSans-31" d="M 794 531 
L 1825 531 
L 1825 4091 
L 703 3866 
L 703 4441 
L 1819 4666 
L 2450 4666 
L 2450 531 
L 3481 531 
L 3481 0 
L 794 0 
L 794 531 
z
" transform="scale(0.015625)"/>
       </defs>
       <use xlink:href="#DejaVuSans-32"/>
       <use xlink:href="#DejaVuSans-30" transform="translate(63.623047 0)"/>
       <use xlink:href="#DejaVuSans-32" transform="translate(127.246094 0)"/>
       <use xlink:href="#DejaVuSans-34" transform="translate(190.869141 0)"/>
       <use xlink:href="#DejaVuSans-2d" transform="translate(254.492188 0)"/>
       <use xlink:href="#DejaVuSans-31" transform="translate(290.576172 0)"/>
       <use xlink:href="#DejaVuSans-31" transform="translate(354.199219 0)"/>
      </g>
     </g>
    </g>
    <g id="xtick_6">
     <g id="line2d_6">
      <g>
       <use xlink:href="#mcf7c7ca335" x="416.82687" y="224.28" style="stroke: #000000; stroke-width: 0.8"/>
      </g>
     </g>
     <g id="text_6">
      <!-- 2025-01 -->
      <g transform="translate(395.935464 238.878438) scale(0.1 -0.1)">
       <use xlink:href="#DejaVuSans-32"/>
       <use xlink:href="#DejaVuSans-30" transform="translate(63.623047 0)"/>
       <use xlink:href="#DejaVuSans-32" transform="translate(127.246094 0)"/>
       <use xlink:href="#DejaVuSans-35" transform="translate(190.869141 0)"/>
       <use xlink:href="#DejaVuSans-2d" transform="translate(254.492188 0)"/>
       <use xlink:href="#DejaVuSans-30" transform="translate(290.576172 0)"/>
       <use xlink:href="#DejaVuSans-31" transform="translate(354.199219 0)"/>
      </g>
     </g>
    </g>
    <g id="xtick_7">
     <g id="line2d_7">
      <g>
       <use xlink:href="#mcf7c7ca335" x="473.654258" y="224.28" style="stroke: #000000; stroke-width: 0.8"/>
      </g>
     </g>
     <g id="text_7">
      <!-- 2025-03 -->
      <g transform="translate(452.762852 238.878438) scale(0.1 -0.1)">
       <use xlink:href="#DejaVuSans-32"/>
       <use xlink:href="#DejaVuSans-30" transform="translate(63.623047 0)"/>
       <use xlink:href="#DejaVuSans-32" transform="translate(127.246094 0)"/>
       <use xlink:href="#DejaVuSans-35" transform="translate(190.869141 0)"/>
       <use xlink:href="#DejaVuSans-2d" transform="translate(254.492188 0)"/>
       <use xlink:href="#DejaVuSans-30" transform="translate(290.576172 0)"/>
       <use xlink:href="#DejaVuSans-33" transform="translate(354.199219 0)"/>
      </g>
     </g>
    </g>
    <g id="xtick_8">
     <g id="line2d_8">
      <g>
       <use xlink:href="#mcf7c7ca335" x="532.407998" y="224.28" style="stroke: #000000; stroke-width: 0.8"/>
      </g>
     </g>
     <g id="text_8">
      <!-- 2025-05 -->
      <g transform="translate(511.516591 238.878438) scale(0.1 -0.1)">
       <use xlink:href="#DejaVuSans-32"/>
       <use xlink:href="#DejaVuSans-30" transform="translate(63.623047 0)"/>
       <use xlink:href="#DejaVuSans-32" transform="translate(127.246094 0)"/>
       <use xlink:href="#DejaVuSans-35" transform="translate(190.869141 0)"/>
       <use xlink:href="#DejaVuSans-2d" transform="translate(254.492188 0)"/>
       <use xlink:href="#DejaVuSans-30" transform="translate(290.576172 0)"/>
       <use xlink:href="#DejaVuSans-35" transform="translate(354.199219 0)"/>
      </g>
     </g>
    </g>
    <g id="xtick_9">
     <g id="line2d_9">
      <g>
       <use xlink:href="#mcf7c7ca335" x="591.161738" y="224.28" style="stroke: #000000; stroke-width: 0.8"/>
      </g>
     </g>
     <g id="text_9">
      <!-- 2025-07 -->
      <g transform="translate(570.270331 238.878438) scale(0.1 -0.1)">
       <use xlink:href="#DejaVuSans-32"/>
       <use xlink:href="#DejaVuSans-30" transform="translate(63.623047 0)"/>
       <use xlink:href="#DejaVuSans-32" transform="translate(127.246094 0)"/>
       <use xlink:href="#DejaVuSans-35" transform="translate(190.869141 0)"/>
       <use xlink:href="#DejaVuSans-2d" transform="translate(254.492188 0)"/>
       <use xlink:href="#DejaVuSans-30" transform="translate(290.576172 0)"/>
       <use xlink:href="#DejaVuSans-37" transform="translate(354.199219 0)"/>
      </g>
     </g>
    </g>
    <g id="xtick_10">
     <g id="line2d_10">
      <g>
       <use xlink:href="#mcf7c7ca335" x="650.878654" y="224.28" style="stroke: #000000; stroke-width: 0.8"/>
      </g>
     </g>
     <g id="text_10">
      <!-- 2025-09 -->
      <g transform="translate(629.987247 238.878438) scale(0.1 -0.1)">
       <use xlink:href="#DejaVuSans-32"/>
       <use xlink:href="#DejaVuSans-30" transform="translate(63.623047 0)"/>
       <use xlink:href="#DejaVuSans-32" transform="translate(127.246094 0)"/>
       <use xlink:href="#DejaVuSans-35" transform="translate(190.869141 0)"/>
       <use xlink:href="#DejaVuSans-2d" transform="translate(254.492188 0)"/>
       <use xlink:href="#DejaVuSans-30" transform="translate(290.576172 0)"/>
       <use xlink:href="#DejaVuSans-39" transform="translate(354.199219 0)"/>
      </g>
     </g>
    </g>
   </g>
   <g id="matplotlib.axis_2">
    <g id="ytick_1">
     <g id="line2d_11">
      <defs>
       <path id="mcc4752bf26" d="M 0 0 
L -3.5 0 
" style="stroke: #000000; stroke-width: 0.8"/>
      </defs>
      <g>
       <use xlink:href="#mcc4752bf26" x="94.5" y="218.697105" style="stroke: #000000; stroke-width: 0.8"/>
      </g>
     </g>
     <g id="text_11">
      <!-- 350 -->
      <g transform="translate(68.4125 222.496324) scale(0.1 -0.1)">
       <use xlink:href="#DejaVuSans-33"/>
       <use xlink:href="#DejaVuSans-35" transform="translate(63.623047 0)"/>
       <use xlink:href="#DejaVuSans-30" transform="translate(127.246094 0)"/>
      </g>
     </g>
    </g>
    <g id="ytick_2">
     <g id="line2d_12">
      <g>
       <use xlink:href="#mcc4752bf26" x="94.5" y="194.390409" style="stroke: #000000; stroke-width: 0.8"/>
      </g>
     </g>
     <g id="text_12">
      <!-- 375 -->
      <g transform="translate(68.4125 198.189628) scale(0.1 -0.1)">
       <use xlink:href="#DejaVuSans-33"/>
       <use xlink:href="#DejaVuSans-37" transform="translate(63.623047 0)"/>
       <use xlink:href="#DejaVuSans-35" transform="translate(127.246094 0)"/>
      </g>
     </g>
    </g>
    <g id="ytick_3">
     <g id="line2d_13">
      <g>
       <use xlink:href="#mcc4752bf26" x="94.5" y="170.083713" style="stroke: #000000; stroke-width: 0.8"/>
      </g>
     </g>
     <g id="text_13">
      <!-- 400 -->
      <g transform="translate(68.4125 173.882932) scale(0.1 -0.1)">
       <use xlink:href="#DejaVuSans-34"/>
       <use xlink:href="#DejaVuSans-30" transform="translate(63.623047 0)"/>
       <use xlink:href="#DejaVuSans-30" transform="translate(127.246094 0)"/>
      </g>
     </g>
    </g>
    <g id="ytick_4">
     <g id="line2d_14">
      <g>
       <use xlink:href="#mcc4752bf26" x="94.5" y="145.777017" style="stroke: #000000; stroke-width: 0.8"/>
      </g>
     </g>
     <g id="text_14">
      <!-- 425 -->
      <g transform="translate(68.4125 149.576236) scale(0.1 -0.1)">
       <use xlink:href="#DejaVuSans-34"/>
       <use xlink:href="#DejaVuSans-32" transform="translate(63.623047 0)"/>
       <use xlink:href="#DejaVuSans-35" transform="translate(127.246094 0)"/>
      </g>
     </g>
    </g>
    <g id="ytick_5">
     <g id="line2d_15">
      <g>
       <use xlink:href="#mcc4752bf26" x="94.5" y="121.470321" style="stroke: #000000; stroke-width: 0.8"/>
      </g>
     </g>
     <g id="text_15">
      <!-- 450 -->
      <g transform="translate(68.4125 125.26954) scale(0.1 -0.1)">
       <use xlink:href="#DejaVuSans-34"/>
       <use xlink:href="#DejaVuSans-35" transform="translate(63.623047 0)"/>
       <use xlink:href="#DejaVuSans-30" transform="translate(127.246094 0)"/>
      </g>
     </g>
    </g>
    <g id="ytick_6">
     <g id="line2d_16">
      <g>
       <use xlink:href="#mcc4752bf26" x="94.5" y="97.163625" style="stroke: #000000; stroke-width: 0.8"/>
      </g>
     </g>
     <g id="text_16">
      <!-- 475 -->
      <g transform="translate(68.4125 100.962844) scale(0.1 -0.1)">
       <use xlink:href="#DejaVuSans-34"/>
       <use xlink:href="#DejaVuSans-37" transform="translate(63.623047 0)"/>
       <use xlink:href="#DejaVuSans-35" transform="translate(127.246094 0)"/>
      </g>
     </g>
    </g>
    <g id="ytick_7">
     <g id="line2d_17">
      <g>
       <use xlink:href="#mcc4752bf26" x="94.5" y="72.85693" style="stroke: #000000; stroke-width: 0.8"/>
      </g>
     </g>
     <g id="text_17">
      <!-- 500 -->
      <g transform="translate(68.4125 76.656148) scale(0.1 -0.1)">
       <use xlink:href="#DejaVuSans-35"/>
       <use xlink:href="#DejaVuSans-30" transform="translate(63.623047 0)"/>
       <use xlink:href="#DejaVuSans-30" transform="translate(127.246094 0)"/>
      </g>
     </g>
    </g>
    <g id="ytick_8">
     <g id="line2d_18">
      <g>
       <use xlink:href="#mcc4752bf26" x="94.5" y="48.550234" style="stroke: #000000; stroke-width: 0.8"/>
      </g>
     </g>
     <g id="text_18">
      <!-- 525 -->
      <g transform="translate(68.4125 52.349452) scale(0.1 -0.1)">
       <use xlink:href="#DejaVuSans-35"/>
       <use xlink:href="#DejaVuSans-32" transform="translate(63.623047 0)"/>
       <use xlink:href="#DejaVuSans-35" transform="translate(127.246094 0)"/>
      </g>
     </g>
    </g>
   </g>
   <g id="line2d_19">
    <path d="M 121.131818 161.254318 
L 122.094994 159.465882 
L 124.984522 160.023583 
L 125.947699 171.821826 
L 126.910875 172.3603 
L 127.874051 165.581366 
L 128.837227 168.389069 
L 131.726755 170.023747 
L 132.689931 159.677409 
L 133.653107 159.850452 
L 134.616283 150.119614 
L 135.579459 158.581264 
L 138.468987 157.715842 
L 141.358516 146.129126 
L 142.321692 146.734924 
L 145.21122 152.388842 
L 146.174396 153.552341 
L 147.137572 153.763867 
L 148.100748 154.446573 
L 151.953452 150.744579 
L 152.916628 153.754224 
L 153.879804 154.706197 
L 154.84298 157.177398 
L 155.806157 149.83115 
L 158.695685 150.725382 
L 159.658861 149.100347 
L 160.622037 152.004213 
L 161.585213 147.513765 
L 162.548389 153.311945 
L 165.437917 161.254318 
L 166.401093 160.350531 
L 167.364269 162.985161 
L 168.327445 170.264114 
L 169.290621 175.216099 
L 172.18015 173.446832 
L 173.143326 167.090951 
L 174.106502 165.658274 
L 175.069678 175.292977 
L 176.032854 168.292934 
L 178.922382 172.206425 
L 179.885558 184.629722 
L 180.848734 179.235368 
L 181.81191 176.446893 
L 182.775086 167.966016 
L 185.664614 161.350542 
L 186.627791 165.389067 
L 187.590967 164.235181 
L 188.554143 162.523624 
L 189.517319 160.196656 
L 192.406847 161.177439 
L 193.370023 158.446615 
L 194.333199 151.443545 
L 195.296375 153.4568 
L 196.259551 154.208165 
L 199.149079 149.266476 
L 200.112255 145.702364 
L 201.075432 144.27666 
L 202.038608 147.667462 
L 203.001784 144.623488 
L 206.854488 144.469286 
L 207.817664 145.577092 
L 208.78084 159.544749 
L 209.744016 159.101638 
L 212.633544 160.652555 
L 213.59672 158.19616 
L 214.559896 150.547681 
L 215.523072 150.056414 
L 216.486249 150.701764 
L 219.375777 146.829368 
L 220.338953 142.195963 
L 221.302129 134.12366 
L 222.265305 133.62269 
L 223.228481 132.669056 
L 226.118009 127.081987 
L 227.081185 129.037472 
L 229.007537 129.653981 
L 229.970713 125.723756 
L 232.860242 127.756296 
L 233.823418 124.596723 
L 234.786594 123.431146 
L 235.74977 122.766481 
L 236.712946 128.449892 
L 239.602474 119.02894 
L 240.56565 116.572546 
L 241.528826 115.137288 
L 243.455178 108.596585 
L 246.344707 109.868087 
L 247.307883 116.32212 
L 248.271059 109.858444 
L 249.234235 120.984395 
L 250.197411 122.092201 
L 253.086939 121.697217 
L 254.050115 125.974211 
L 255.013291 131.753964 
L 256.939643 137.928613 
L 260.792348 130.472759 
L 261.755524 145.837161 
L 262.7187 155.951767 
L 263.681876 149.333948 
L 266.571404 147.927531 
L 267.53458 151.597658 
L 268.497756 155.999864 
L 269.460932 157.194399 
L 270.424108 165.497871 
L 273.313636 178.348108 
L 274.276812 174.051858 
L 275.239988 175.188535 
L 276.203165 171.08494 
L 277.166341 167.87721 
L 280.055869 167.116231 
L 281.019045 160.180515 
L 281.982221 157.435152 
L 282.945397 152.687275 
L 283.908573 155.157705 
L 286.798101 152.204761 
L 287.761277 149.049134 
L 288.724453 149.686028 
L 289.687629 157.975584 
L 290.650806 156.778972 
L 293.540334 159.963529 
L 294.50351 159.625781 
L 295.466686 162.75242 
L 296.429862 160.320593 
L 297.393038 156.441194 
L 301.245742 163.871857 
L 303.172094 164.88516 
L 304.13527 171.341151 
L 307.024799 167.461753 
L 308.951151 150.747547 
L 310.877503 143.46165 
L 313.767031 142.737849 
L 314.730207 139.061135 
L 315.693383 143.249352 
L 316.656559 135.644964 
L 317.619735 138.945358 
L 320.509264 140.643771 
L 321.47244 144.831958 
L 322.435616 141.994851 
L 323.398792 142.766838 
L 324.361968 145.941752 
L 327.251496 143.741509 
L 328.214672 153.015351 
L 329.177848 156.450837 
L 331.1042 157.483427 
L 333.993728 163.775366 
L 334.956904 158.786203 
L 335.920081 156.132376 
L 336.883257 157.695754 
L 337.846433 157.232527 
L 340.735961 154.511138 
L 341.699137 154.897161 
L 342.662313 157.425538 
L 343.625489 156.846504 
L 344.588665 155.45685 
L 347.478193 154.858559 
L 348.441369 146.433909 
L 349.404545 149.242116 
L 350.367722 149.116636 
L 351.330898 145.816272 
L 354.220426 147.321733 
L 355.183602 142.149172 
L 356.146778 141.589483 
L 357.109954 166.853818 
L 358.07313 162.97439 
L 360.962658 164.817599 
L 361.925834 161.922514 
L 362.88901 153.507537 
L 363.852186 148.44117 
L 364.815362 151.230061 
L 367.704891 155.601587 
L 368.668067 150.757219 
L 369.631243 148.663081 
L 370.594419 147.0322 
L 371.557595 158.506344 
L 374.447123 157.7729 
L 375.410299 155.813914 
L 376.373475 158.033502 
L 377.336651 159.764346 
L 378.299827 155.770831 
L 381.189356 154.039959 
L 382.152532 145.143981 
L 383.115708 149.978735 
L 385.04206 149.52429 
L 387.931588 142.252754 
L 388.894764 142.040041 
L 389.85794 136.025587 
L 390.821116 130.997436 
L 391.784292 130.078814 
L 394.67382 127.709801 
L 395.636997 130.310903 
L 396.600173 124.83792 
L 397.563349 124.286777 
L 398.526525 126.501113 
L 401.416053 122.323874 
L 402.379229 119.548722 
L 403.342405 136.054576 
L 405.268757 136.818463 
L 408.158285 138.123879 
L 409.121461 134.178729 
L 411.047814 135.358399 
L 412.01099 142.687913 
L 414.900518 148.199557 
L 415.863694 151.419512 
L 417.790046 154.243029 
L 418.753222 149.630661 
L 421.64275 145.279341 
L 422.605926 150.578272 
L 423.569102 148.460664 
L 425.495455 153.885253 
L 428.384983 155.587077 
L 429.348159 157.056843 
L 430.311335 146.768482 
L 431.274511 148.441318 
L 432.237687 144.138363 
L 436.090391 144.650815 
L 437.053567 127.53572 
L 438.016743 127.042614 
L 438.979919 129.604994 
L 441.869448 138.791097 
L 442.832624 126.568764 
L 443.7958 131.277889 
L 444.758976 157.714388 
L 445.722152 157.646708 
L 448.61168 161.649836 
L 449.574856 160.247809 
L 450.538032 159.358205 
L 451.501208 156.91184 
L 452.464384 162.78123 
L 455.353913 160.392842 
L 456.317089 161.147056 
L 457.280265 163.467794 
L 458.243441 162.017344 
L 459.206617 164.057629 
L 463.059321 162.887602 
L 464.022497 157.927131 
L 464.985673 155.80522 
L 465.948849 163.478891 
L 468.838377 167.557917 
L 469.801554 173.468195 
L 470.76473 171.6951 
L 471.727906 178.67111 
L 472.691082 174.349876 
L 475.58061 182.585461 
L 476.543786 182.469209 
L 477.506962 170.445228 
L 478.470138 174.446723 
L 479.433314 177.915383 
L 482.322842 190.656311 
L 483.286018 190.375353 
L 484.249194 187.643075 
L 485.212371 192.003119 
L 486.175547 182.517632 
L 489.065075 182.381975 
L 490.028251 187.400869 
L 490.991427 183.234579 
L 491.954603 184.184148 
L 492.917779 179.901606 
L 495.807307 178.138243 
L 496.770483 176.122912 
L 497.733659 181.151479 
L 498.696835 180.560486 
L 499.660012 191.974041 
L 502.54954 195.277936 
L 503.512716 188.689462 
L 504.475892 188.737915 
L 505.439068 197.48705 
L 506.402244 210.34423 
L 509.291772 212.262655 
L 510.254948 215.46 
L 511.218124 180.64769 
L 512.1813 189.503345 
L 513.144476 182.624182 
L 516.034005 183.244311 
L 516.997181 185.259583 
L 517.960357 198.940378 
L 518.923533 202.651244 
L 522.776237 211.04186 
L 524.702589 196.246851 
L 525.665765 183.738456 
L 526.628941 179.32996 
L 529.51847 179.998513 
L 530.481646 177.208079 
L 531.444822 176.026036 
L 532.407998 146.823611 
L 533.371174 137.250921 
L 536.260702 136.388615 
L 537.223878 139.159644 
L 538.187054 139.120893 
L 539.15023 134.450815 
L 540.113406 133.908217 
L 543.002934 123.705813 
L 543.96611 123.822036 
L 544.929287 120.140277 
L 546.855639 118.043617 
L 549.745167 113.578538 
L 550.708343 114.25798 
L 551.671519 119.693755 
L 552.634695 117.470932 
L 553.597871 122.013661 
L 557.450575 111.811911 
L 558.413751 115.044239 
L 559.376928 113.762945 
L 560.340104 112.132242 
L 563.229632 110.569427 
L 565.155984 108.72518 
L 566.11916 105.026925 
L 567.082336 102.406092 
L 569.971864 100.10559 
L 570.93504 101.881919 
L 571.898216 100.231782 
L 572.861392 94.165078 
L 573.824568 97.960417 
L 576.714097 93.902991 
L 577.677273 94.970741 
L 578.640449 92.835271 
L 580.566801 95.591968 
L 583.456329 87.244197 
L 584.419505 83.254748 
L 585.382681 81.158088 
L 586.345857 76.129996 
L 587.309033 77.595697 
L 590.198562 76.168806 
L 591.161738 81.371632 
L 592.124914 82.303457 
L 593.08809 74.780755 
L 596.940794 75.86791 
L 597.90397 76.93566 
L 598.867146 70.247698 
L 599.830322 72.218167 
L 600.793498 70.432135 
L 603.683026 70.723358 
L 604.646203 68.005471 
L 605.609379 68.19961 
L 606.572555 62.297907 
L 607.535731 63.899532 
L 610.425259 63.88983 
L 611.388435 68.539346 
L 612.351611 67.956929 
L 613.314787 63.093869 
L 614.277963 60.346814 
L 617.167491 61.521381 
L 618.130667 61.453434 
L 619.093843 60.803099 
L 620.05702 41.137285 
L 621.020196 50.25188 
L 623.909724 39.06 
L 624.8729 46.718627 
L 625.836076 49.446187 
L 626.799252 53.425934 
L 627.762428 52.261159 
L 630.651956 52.523215 
L 631.615132 45.272331 
L 632.578308 53.678317 
L 633.541484 51.834071 
L 634.504661 54.076328 
L 637.394189 57.056331 
L 638.357365 64.171321 
L 639.320541 68.102526 
L 640.283717 68.734523 
L 641.246893 65.827422 
L 644.136421 68.715059 
L 645.099597 70.873495 
L 646.062773 66.303854 
L 647.025949 63.484253 
L 647.989125 66.352455 
L 651.84183 67.878923 
L 652.805006 67.655291 
L 653.768182 65.107954 
L 653.768182 65.107954 
" clip-path="url(#p452434c8a6)" style="fill: none; stroke: #1f77b4; stroke-width: 1.5; stroke-linecap: square"/>
   </g>
   <g id="patch_3">
    <path d="M 94.5 224.28 
L 94.5 30.24 
" style="fill: none; stroke: #000000; stroke-width: 0.8; stroke-linejoin: miter; stroke-linecap: square"/>
   </g>
   <g id="patch_4">
    <path d="M 94.5 224.28 
L 680.4 224.28 
" style="fill: none; stroke: #000000; stroke-width: 0.8; stroke-linejoin: miter; stroke-linecap: square"/>
   </g>
  </g>
 </g>
 <defs>
  <clipPath id="p452434c8a6">
   <rect x="94.5" y="30.24" width="585.9" height="194.04"/>
  </clipPath>
 </defs>
</svg>
