<?xml version="1.0" encoding="utf-8" standalone="no"?>
<!DOCTYPE svg PUBLIC "-//W3C//DTD SVG 1.1//EN"
  "http://www.w3.org/Graphics/SVG/1.1/DTD/svg11.dtd">
<svg xmlns:xlink="http://www.w3.org/1999/xlink" width="756pt" height="252pt" viewBox="0 0 756 252" xmlns="http://www.w3.org/2000/svg" version="1.1">
 <metadata>
  <rdf:RDF xmlns:dc="http://purl.org/dc/elements/1.1/" xmlns:cc="http://creativecommons.org/ns#" xmlns:rdf="http://www.w3.org/1999/02/22-rdf-syntax-ns#">
   <cc:Work>
    <dc:type rdf:resource="http://purl.org/dc/dcmitype/StillImage"/>
    <dc:date>2025-09-08T17:07:02.871022</dc:date>
    <dc:format>image/svg+xml</dc:format>
    <dc:creator>
     <cc:Agent>
      <dc:title>Matplotlib v3.10.5, https://matplotlib.org/</dc:title>
     </cc:Agent>
    </dc:creator>
   </cc:Work>
  </rdf:RDF>
 </metadata>
 <defs>
  <style type="text/css">*{stroke-linejoin: round; stroke-linecap: butt}</style>
 </defs>
 <g id="figure_1">
  <g id="patch_1">
   <path d="M 0 252 
L 756 252 
L 756 0 
L 0 0 
z
" style="fill: #ffffff"/>
  </g>
  <g id="axes_1">
   <g id="patch_2">
    <path d="M 94.5 224.28 
L 680.4 224.28 
L 680.4 30.24 
L 94.5 30.24 
z
" style="fill: #ffffff"/>
   </g>
   <g id="matplotlib.axis_1">
    <g id="xtick_1">
     <g id="line2d_1">
      <defs>
       <path id="ma021edf08d" d="M 0 0 
L 0 3.5 
" style="stroke: #000000; stroke-width: 0.8"/>
      </defs>
      <g>
       <use xlink:href="#ma021edf08d" x="121.131818" y="224.28" style="stroke: #000000; stroke-width: 0.8"/>
      </g>
     </g>
     <g id="text_1">
      <!-- 2024-03 -->
      <g transform="translate(100.240412 238.878438) scale(0.1 -0.1)">
       <defs>
        <path id="DejaVuSans-32" d="M 1228 531 
L 3431 531 
L 3431 0 
L 469 0 
L 469 531 
Q 828 903 1448 1529 
Q 2069 2156 2228 2338 
Q 2531 2678 2651 2914 
Q 2772 3150 2772 3378 
Q 2772 3750 2511 3984 
Q 2250 4219 1831 4219 
Q 1534 4219 1204 4116 
Q 875 4013 500 3803 
L 500 4441 
Q 881 4594 1212 4672 
Q 1544 4750 1819 4750 
Q 2544 4750 2975 4387 
Q 3406 4025 3406 3419 
Q 3406 3131 3298 2873 
Q 3191 2616 2906 2266 
Q 2828 2175 2409 1742 
Q 1991 1309 1228 531 
z
" transform="scale(0.015625)"/>
        <path id="DejaVuSans-30" d="M 2034 4250 
Q 1547 4250 1301 3770 
Q 1056 3291 1056 2328 
Q 1056 1369 1301 889 
Q 1547 409 2034 409 
Q 2525 409 2770 889 
Q 3016 1369 3016 2328 
Q 3016 3291 2770 3770 
Q 2525 4250 2034 4250 
z
M 2034 4750 
Q 2819 4750 3233 4129 
Q 3647 3509 3647 2328 
Q 3647 1150 3233 529 
Q 2819 -91 2034 -91 
Q 1250 -91 836 529 
Q 422 1150 422 2328 
Q 422 3509 836 4129 
Q 1250 4750 2034 4750 
z
" transform="scale(0.015625)"/>
        <path id="DejaVuSans-34" d="M 2419 4116 
L 825 1625 
L 2419 1625 
L 2419 4116 
z
M 2253 4666 
L 3047 4666 
L 3047 1625 
L 3713 1625 
L 3713 1100 
L 3047 1100 
L 3047 0 
L 2419 0 
L 2419 1100 
L 313 1100 
L 313 1709 
L 2253 4666 
z
" transform="scale(0.015625)"/>
        <path id="DejaVuSans-2d" d="M 313 2009 
L 1997 2009 
L 1997 1497 
L 313 1497 
L 313 2009 
z
" transform="scale(0.015625)"/>
        <path id="DejaVuSans-33" d="M 2597 2516 
Q 3050 2419 3304 2112 
Q 3559 1806 3559 1356 
Q 3559 666 3084 287 
Q 2609 -91 1734 -91 
Q 1441 -91 1130 -33 
Q 819 25 488 141 
L 488 750 
Q 750 597 1062 519 
Q 1375 441 1716 441 
Q 2309 441 2620 675 
Q 2931 909 2931 1356 
Q 2931 1769 2642 2001 
Q 2353 2234 1838 2234 
L 1294 2234 
L 1294 2753 
L 1863 2753 
Q 2328 2753 2575 2939 
Q 2822 3125 2822 3475 
Q 2822 3834 2567 4026 
Q 2313 4219 1838 4219 
Q 1578 4219 1281 4162 
Q 984 4106 628 3988 
L 628 4550 
Q 988 4650 1302 4700 
Q 1616 4750 1894 4750 
Q 2613 4750 3031 4423 
Q 3450 4097 3450 3541 
Q 3450 3153 3228 2886 
Q 3006 2619 2597 2516 
z
" transform="scale(0.015625)"/>
       </defs>
       <use xlink:href="#DejaVuSans-32"/>
       <use xlink:href="#DejaVuSans-30" transform="translate(63.623047 0)"/>
       <use xlink:href="#DejaVuSans-32" transform="translate(127.246094 0)"/>
       <use xlink:href="#DejaVuSans-34" transform="translate(190.869141 0)"/>
       <use xlink:href="#DejaVuSans-2d" transform="translate(254.492188 0)"/>
       <use xlink:href="#DejaVuSans-30" transform="translate(290.576172 0)"/>
       <use xlink:href="#DejaVuSans-33" transform="translate(354.199219 0)"/>
      </g>
     </g>
    </g>
    <g id="xtick_2">
     <g id="line2d_2">
      <g>
       <use xlink:href="#ma021edf08d" x="179.885558" y="224.28" style="stroke: #000000; stroke-width: 0.8"/>
      </g>
     </g>
     <g id="text_2">
      <!-- 2024-05 -->
      <g transform="translate(158.994152 238.878438) scale(0.1 -0.1)">
       <defs>
        <path id="DejaVuSans-35" d="M 691 4666 
L 3169 4666 
L 3169 4134 
L 1269 4134 
L 1269 2991 
Q 1406 3038 1543 3061 
Q 1681 3084 1819 3084 
Q 2600 3084 3056 2656 
Q 3513 2228 3513 1497 
Q 3513 744 3044 326 
Q 2575 -91 1722 -91 
Q 1428 -91 1123 -41 
Q 819 9 494 109 
L 494 744 
Q 775 591 1075 516 
Q 1375 441 1709 441 
Q 2250 441 2565 725 
Q 2881 1009 2881 1497 
Q 2881 1984 2565 2268 
Q 2250 2553 1709 2553 
Q 1456 2553 1204 2497 
Q 953 2441 691 2322 
L 691 4666 
z
" transform="scale(0.015625)"/>
       </defs>
       <use xlink:href="#DejaVuSans-32"/>
       <use xlink:href="#DejaVuSans-30" transform="translate(63.623047 0)"/>
       <use xlink:href="#DejaVuSans-32" transform="translate(127.246094 0)"/>
       <use xlink:href="#DejaVuSans-34" transform="translate(190.869141 0)"/>
       <use xlink:href="#DejaVuSans-2d" transform="translate(254.492188 0)"/>
       <use xlink:href="#DejaVuSans-30" transform="translate(290.576172 0)"/>
       <use xlink:href="#DejaVuSans-35" transform="translate(354.199219 0)"/>
      </g>
     </g>
    </g>
    <g id="xtick_3">
     <g id="line2d_3">
      <g>
       <use xlink:href="#ma021edf08d" x="238.639298" y="224.28" style="stroke: #000000; stroke-width: 0.8"/>
      </g>
     </g>
     <g id="text_3">
      <!-- 2024-07 -->
      <g transform="translate(217.747892 238.878438) scale(0.1 -0.1)">
       <defs>
        <path id="DejaVuSans-37" d="M 525 4666 
L 3525 4666 
L 3525 4397 
L 1831 0 
L 1172 0 
L 2766 4134 
L 525 4134 
L 525 4666 
z
" transform="scale(0.015625)"/>
       </defs>
       <use xlink:href="#DejaVuSans-32"/>
       <use xlink:href="#DejaVuSans-30" transform="translate(63.623047 0)"/>
       <use xlink:href="#DejaVuSans-32" transform="translate(127.246094 0)"/>
       <use xlink:href="#DejaVuSans-34" transform="translate(190.869141 0)"/>
       <use xlink:href="#DejaVuSans-2d" transform="translate(254.492188 0)"/>
       <use xlink:href="#DejaVuSans-30" transform="translate(290.576172 0)"/>
       <use xlink:href="#DejaVuSans-37" transform="translate(354.199219 0)"/>
      </g>
     </g>
    </g>
    <g id="xtick_4">
     <g id="line2d_4">
      <g>
       <use xlink:href="#ma021edf08d" x="298.356214" y="224.28" style="stroke: #000000; stroke-width: 0.8"/>
      </g>
     </g>
     <g id="text_4">
      <!-- 2024-09 -->
      <g transform="translate(277.464808 238.878438) scale(0.1 -0.1)">
       <defs>
        <path id="DejaVuSans-39" d="M 703 97 
L 703 672 
Q 941 559 1184 500 
Q 1428 441 1663 441 
Q 2288 441 2617 861 
Q 2947 1281 2994 2138 
Q 2813 1869 2534 1725 
Q 2256 1581 1919 1581 
Q 1219 1581 811 2004 
Q 403 2428 403 3163 
Q 403 3881 828 4315 
Q 1253 4750 1959 4750 
Q 2769 4750 3195 4129 
Q 3622 3509 3622 2328 
Q 3622 1225 3098 567 
Q 2575 -91 1691 -91 
Q 1453 -91 1209 -44 
Q 966 3 703 97 
z
M 1959 2075 
Q 2384 2075 2632 2365 
Q 2881 2656 2881 3163 
Q 2881 3666 2632 3958 
Q 2384 4250 1959 4250 
Q 1534 4250 1286 3958 
Q 1038 3666 1038 3163 
Q 1038 2656 1286 2365 
Q 1534 2075 1959 2075 
z
" transform="scale(0.015625)"/>
       </defs>
       <use xlink:href="#DejaVuSans-32"/>
       <use xlink:href="#DejaVuSans-30" transform="translate(63.623047 0)"/>
       <use xlink:href="#DejaVuSans-32" transform="translate(127.246094 0)"/>
       <use xlink:href="#DejaVuSans-34" transform="translate(190.869141 0)"/>
       <use xlink:href="#DejaVuSans-2d" transform="translate(254.492188 0)"/>
       <use xlink:href="#DejaVuSans-30" transform="translate(290.576172 0)"/>
       <use xlink:href="#DejaVuSans-39" transform="translate(354.199219 0)"/>
      </g>
     </g>
    </g>
    <g id="xtick_5">
     <g id="line2d_5">
      <g>
       <use xlink:href="#ma021edf08d" x="357.109954" y="224.28" style="stroke: #000000; stroke-width: 0.8"/>
      </g>
     </g>
     <g id="text_5">
      <!-- 2024-11 -->
      <g transform="translate(336.218548 238.878438) scale(0.1 -0.1)">
       <defs>
        <path id="DejaVuSans-31" d="M 794 531 
L 1825 531 
L 1825 4091 
L 703 3866 
L 703 4441 
L 1819 4666 
L 2450 4666 
L 2450 531 
L 3481 531 
L 3481 0 
L 794 0 
L 794 531 
z
" transform="scale(0.015625)"/>
       </defs>
       <use xlink:href="#DejaVuSans-32"/>
       <use xlink:href="#DejaVuSans-30" transform="translate(63.623047 0)"/>
       <use xlink:href="#DejaVuSans-32" transform="translate(127.246094 0)"/>
       <use xlink:href="#DejaVuSans-34" transform="translate(190.869141 0)"/>
       <use xlink:href="#DejaVuSans-2d" transform="translate(254.492188 0)"/>
       <use xlink:href="#DejaVuSans-31" transform="translate(290.576172 0)"/>
       <use xlink:href="#DejaVuSans-31" transform="translate(354.199219 0)"/>
      </g>
     </g>
    </g>
    <g id="xtick_6">
     <g id="line2d_6">
      <g>
       <use xlink:href="#ma021edf08d" x="415.863694" y="224.28" style="stroke: #000000; stroke-width: 0.8"/>
      </g>
     </g>
     <g id="text_6">
      <!-- 2025-01 -->
      <g transform="translate(394.972288 238.878438) scale(0.1 -0.1)">
       <use xlink:href="#DejaVuSans-32"/>
       <use xlink:href="#DejaVuSans-30" transform="translate(63.623047 0)"/>
       <use xlink:href="#DejaVuSans-32" transform="translate(127.246094 0)"/>
       <use xlink:href="#DejaVuSans-35" transform="translate(190.869141 0)"/>
       <use xlink:href="#DejaVuSans-2d" transform="translate(254.492188 0)"/>
       <use xlink:href="#DejaVuSans-30" transform="translate(290.576172 0)"/>
       <use xlink:href="#DejaVuSans-31" transform="translate(354.199219 0)"/>
      </g>
     </g>
    </g>
    <g id="xtick_7">
     <g id="line2d_7">
      <g>
       <use xlink:href="#ma021edf08d" x="472.691082" y="224.28" style="stroke: #000000; stroke-width: 0.8"/>
      </g>
     </g>
     <g id="text_7">
      <!-- 2025-03 -->
      <g transform="translate(451.799675 238.878438) scale(0.1 -0.1)">
       <use xlink:href="#DejaVuSans-32"/>
       <use xlink:href="#DejaVuSans-30" transform="translate(63.623047 0)"/>
       <use xlink:href="#DejaVuSans-32" transform="translate(127.246094 0)"/>
       <use xlink:href="#DejaVuSans-35" transform="translate(190.869141 0)"/>
       <use xlink:href="#DejaVuSans-2d" transform="translate(254.492188 0)"/>
       <use xlink:href="#DejaVuSans-30" transform="translate(290.576172 0)"/>
       <use xlink:href="#DejaVuSans-33" transform="translate(354.199219 0)"/>
      </g>
     </g>
    </g>
    <g id="xtick_8">
     <g id="line2d_8">
      <g>
       <use xlink:href="#ma021edf08d" x="531.444822" y="224.28" style="stroke: #000000; stroke-width: 0.8"/>
      </g>
     </g>
     <g id="text_8">
      <!-- 2025-05 -->
      <g transform="translate(510.553415 238.878438) scale(0.1 -0.1)">
       <use xlink:href="#DejaVuSans-32"/>
       <use xlink:href="#DejaVuSans-30" transform="translate(63.623047 0)"/>
       <use xlink:href="#DejaVuSans-32" transform="translate(127.246094 0)"/>
       <use xlink:href="#DejaVuSans-35" transform="translate(190.869141 0)"/>
       <use xlink:href="#DejaVuSans-2d" transform="translate(254.492188 0)"/>
       <use xlink:href="#DejaVuSans-30" transform="translate(290.576172 0)"/>
       <use xlink:href="#DejaVuSans-35" transform="translate(354.199219 0)"/>
      </g>
     </g>
    </g>
    <g id="xtick_9">
     <g id="line2d_9">
      <g>
       <use xlink:href="#ma021edf08d" x="590.198562" y="224.28" style="stroke: #000000; stroke-width: 0.8"/>
      </g>
     </g>
     <g id="text_9">
      <!-- 2025-07 -->
      <g transform="translate(569.307155 238.878438) scale(0.1 -0.1)">
       <use xlink:href="#DejaVuSans-32"/>
       <use xlink:href="#DejaVuSans-30" transform="translate(63.623047 0)"/>
       <use xlink:href="#DejaVuSans-32" transform="translate(127.246094 0)"/>
       <use xlink:href="#DejaVuSans-35" transform="translate(190.869141 0)"/>
       <use xlink:href="#DejaVuSans-2d" transform="translate(254.492188 0)"/>
       <use xlink:href="#DejaVuSans-30" transform="translate(290.576172 0)"/>
       <use xlink:href="#DejaVuSans-37" transform="translate(354.199219 0)"/>
      </g>
     </g>
    </g>
    <g id="xtick_10">
     <g id="line2d_10">
      <g>
       <use xlink:href="#ma021edf08d" x="649.915478" y="224.28" style="stroke: #000000; stroke-width: 0.8"/>
      </g>
     </g>
     <g id="text_10">
      <!-- 2025-09 -->
      <g transform="translate(629.024071 238.878438) scale(0.1 -0.1)">
       <use xlink:href="#DejaVuSans-32"/>
       <use xlink:href="#DejaVuSans-30" transform="translate(63.623047 0)"/>
       <use xlink:href="#DejaVuSans-32" transform="translate(127.246094 0)"/>
       <use xlink:href="#DejaVuSans-35" transform="translate(190.869141 0)"/>
       <use xlink:href="#DejaVuSans-2d" transform="translate(254.492188 0)"/>
       <use xlink:href="#DejaVuSans-30" transform="translate(290.576172 0)"/>
       <use xlink:href="#DejaVuSans-39" transform="translate(354.199219 0)"/>
      </g>
     </g>
    </g>
   </g>
   <g id="matplotlib.axis_2">
    <g id="ytick_1">
     <g id="line2d_11">
      <defs>
       <path id="m9435fc925b" d="M 0 0 
L -3.5 0 
" style="stroke: #000000; stroke-width: 0.8"/>
      </defs>
      <g>
       <use xlink:href="#m9435fc925b" x="94.5" y="218.697105" style="stroke: #000000; stroke-width: 0.8"/>
      </g>
     </g>
     <g id="text_11">
      <!-- 350 -->
      <g transform="translate(68.4125 222.496324) scale(0.1 -0.1)">
       <use xlink:href="#DejaVuSans-33"/>
       <use xlink:href="#DejaVuSans-35" transform="translate(63.623047 0)"/>
       <use xlink:href="#DejaVuSans-30" transform="translate(127.246094 0)"/>
      </g>
     </g>
    </g>
    <g id="ytick_2">
     <g id="line2d_12">
      <g>
       <use xlink:href="#m9435fc925b" x="94.5" y="194.390409" style="stroke: #000000; stroke-width: 0.8"/>
      </g>
     </g>
     <g id="text_12">
      <!-- 375 -->
      <g transform="translate(68.4125 198.189628) scale(0.1 -0.1)">
       <use xlink:href="#DejaVuSans-33"/>
       <use xlink:href="#DejaVuSans-37" transform="translate(63.623047 0)"/>
       <use xlink:href="#DejaVuSans-35" transform="translate(127.246094 0)"/>
      </g>
     </g>
    </g>
    <g id="ytick_3">
     <g id="line2d_13">
      <g>
       <use xlink:href="#m9435fc925b" x="94.5" y="170.083713" style="stroke: #000000; stroke-width: 0.8"/>
      </g>
     </g>
     <g id="text_13">
      <!-- 400 -->
      <g transform="translate(68.4125 173.882932) scale(0.1 -0.1)">
       <use xlink:href="#DejaVuSans-34"/>
       <use xlink:href="#DejaVuSans-30" transform="translate(63.623047 0)"/>
       <use xlink:href="#DejaVuSans-30" transform="translate(127.246094 0)"/>
      </g>
     </g>
    </g>
    <g id="ytick_4">
     <g id="line2d_14">
      <g>
       <use xlink:href="#m9435fc925b" x="94.5" y="145.777017" style="stroke: #000000; stroke-width: 0.8"/>
      </g>
     </g>
     <g id="text_14">
      <!-- 425 -->
      <g transform="translate(68.4125 149.576236) scale(0.1 -0.1)">
       <use xlink:href="#DejaVuSans-34"/>
       <use xlink:href="#DejaVuSans-32" transform="translate(63.623047 0)"/>
       <use xlink:href="#DejaVuSans-35" transform="translate(127.246094 0)"/>
      </g>
     </g>
    </g>
    <g id="ytick_5">
     <g id="line2d_15">
      <g>
       <use xlink:href="#m9435fc925b" x="94.5" y="121.470321" style="stroke: #000000; stroke-width: 0.8"/>
      </g>
     </g>
     <g id="text_15">
      <!-- 450 -->
      <g transform="translate(68.4125 125.26954) scale(0.1 -0.1)">
       <use xlink:href="#DejaVuSans-34"/>
       <use xlink:href="#DejaVuSans-35" transform="translate(63.623047 0)"/>
       <use xlink:href="#DejaVuSans-30" transform="translate(127.246094 0)"/>
      </g>
     </g>
    </g>
    <g id="ytick_6">
     <g id="line2d_16">
      <g>
       <use xlink:href="#m9435fc925b" x="94.5" y="97.163625" style="stroke: #000000; stroke-width: 0.8"/>
      </g>
     </g>
     <g id="text_16">
      <!-- 475 -->
      <g transform="translate(68.4125 100.962844) scale(0.1 -0.1)">
       <use xlink:href="#DejaVuSans-34"/>
       <use xlink:href="#DejaVuSans-37" transform="translate(63.623047 0)"/>
       <use xlink:href="#DejaVuSans-35" transform="translate(127.246094 0)"/>
      </g>
     </g>
    </g>
    <g id="ytick_7">
     <g id="line2d_17">
      <g>
       <use xlink:href="#m9435fc925b" x="94.5" y="72.85693" style="stroke: #000000; stroke-width: 0.8"/>
      </g>
     </g>
     <g id="text_17">
      <!-- 500 -->
      <g transform="translate(68.4125 76.656148) scale(0.1 -0.1)">
       <use xlink:href="#DejaVuSans-35"/>
       <use xlink:href="#DejaVuSans-30" transform="translate(63.623047 0)"/>
       <use xlink:href="#DejaVuSans-30" transform="translate(127.246094 0)"/>
      </g>
     </g>
    </g>
    <g id="ytick_8">
     <g id="line2d_18">
      <g>
       <use xlink:href="#m9435fc925b" x="94.5" y="48.550234" style="stroke: #000000; stroke-width: 0.8"/>
      </g>
     </g>
     <g id="text_18">
      <!-- 525 -->
      <g transform="translate(68.4125 52.349452) scale(0.1 -0.1)">
       <use xlink:href="#DejaVuSans-35"/>
       <use xlink:href="#DejaVuSans-32" transform="translate(63.623047 0)"/>
       <use xlink:href="#DejaVuSans-35" transform="translate(127.246094 0)"/>
      </g>
     </g>
    </g>
   </g>
   <g id="line2d_19">
    <path d="M 121.131818 159.465882 
L 124.021346 160.023554 
L 124.984522 171.821855 
L 125.947699 172.36027 
L 126.910875 165.581337 
L 127.874051 168.389069 
L 130.763579 170.023747 
L 131.726755 159.677409 
L 132.689931 159.850511 
L 133.653107 150.119584 
L 134.616283 158.581234 
L 137.505811 157.715872 
L 140.395339 146.129185 
L 141.358516 146.734924 
L 144.248044 152.388872 
L 145.21122 153.552341 
L 146.174396 153.763897 
L 147.137572 154.446573 
L 150.990276 150.744579 
L 151.953452 153.754254 
L 152.916628 154.706197 
L 153.879804 157.177368 
L 154.84298 149.83112 
L 157.732509 150.725382 
L 158.695685 149.100376 
L 159.658861 152.004243 
L 160.622037 147.513795 
L 161.585213 153.311945 
L 164.474741 161.254347 
L 165.437917 160.350531 
L 166.401093 162.985191 
L 167.364269 170.264114 
L 168.327445 175.216069 
L 171.216974 173.446861 
L 172.18015 167.090981 
L 173.143326 165.658274 
L 174.106502 175.293037 
L 175.069678 168.292904 
L 177.959206 172.206484 
L 178.922382 184.629722 
L 179.885558 179.235398 
L 180.848734 176.446922 
L 181.81191 167.966016 
L 184.701438 161.350482 
L 185.664614 165.389037 
L 186.627791 164.235181 
L 187.590967 162.523565 
L 188.554143 160.196656 
L 191.443671 161.177469 
L 192.406847 158.446615 
L 193.370023 151.443516 
L 194.333199 153.456829 
L 195.296375 154.208165 
L 198.185903 149.266476 
L 199.149079 145.702305 
L 200.112255 144.27669 
L 201.075432 147.667432 
L 202.038608 144.623488 
L 205.891312 144.469316 
L 206.854488 145.577063 
L 207.817664 159.544749 
L 208.78084 159.101638 
L 211.670368 160.652555 
L 212.633544 158.19616 
L 213.59672 150.547681 
L 214.559896 150.056384 
L 215.523072 150.701793 
L 218.412601 146.829397 
L 219.375777 142.195933 
L 220.338953 134.12366 
L 221.302129 133.622749 
L 222.265305 132.669056 
L 225.154833 127.082017 
L 226.118009 129.037472 
L 228.044361 129.653951 
L 229.007537 125.723815 
L 231.897066 127.756267 
L 232.860242 124.596752 
L 233.823418 123.431117 
L 234.786594 122.766481 
L 235.74977 128.449892 
L 238.639298 119.028911 
L 239.602474 116.572575 
L 240.56565 115.137258 
L 242.492002 108.596526 
L 245.38153 109.868058 
L 246.344707 116.322091 
L 247.307883 109.858474 
L 248.271059 120.984365 
L 249.234235 122.092231 
L 252.123763 121.697247 
L 253.086939 125.97427 
L 254.050115 131.753964 
L 255.976467 137.928613 
L 259.829171 130.472789 
L 260.792348 145.83722 
L 261.755524 155.951678 
L 262.7187 149.333948 
L 265.608228 147.927531 
L 266.571404 151.597628 
L 267.53458 155.999864 
L 268.497756 157.194369 
L 269.460932 165.497871 
L 272.35046 178.348138 
L 273.313636 174.051858 
L 274.276812 175.188535 
L 275.239988 171.08494 
L 276.203165 167.87718 
L 279.092693 167.116201 
L 280.055869 160.180515 
L 281.019045 157.435181 
L 281.982221 152.687275 
L 282.945397 155.157734 
L 285.834925 152.204761 
L 286.798101 149.049104 
L 287.761277 149.685998 
L 288.724453 157.975614 
L 289.687629 156.778972 
L 292.577158 159.963529 
L 293.540334 159.625781 
L 294.50351 162.752479 
L 295.466686 160.320593 
L 296.429862 156.441165 
L 300.282566 163.871857 
L 302.208918 164.88513 
L 303.172094 171.341122 
L 306.061623 167.461753 
L 307.987975 150.747547 
L 309.914327 143.46165 
L 312.803855 142.737879 
L 313.767031 139.061165 
L 314.730207 143.249323 
L 315.693383 135.644935 
L 316.656559 138.945388 
L 319.546087 140.643771 
L 320.509264 144.831958 
L 321.47244 141.994822 
L 322.435616 142.766838 
L 323.398792 145.941782 
L 326.28832 143.741509 
L 327.251496 153.015351 
L 328.214672 156.450837 
L 330.141024 157.483397 
L 333.030552 163.775366 
L 333.993728 158.786203 
L 334.956904 156.132405 
L 335.920081 157.695754 
L 336.883257 157.232497 
L 339.772785 154.511168 
L 340.735961 154.897191 
L 341.699137 157.425538 
L 342.662313 156.846504 
L 343.625489 155.45688 
L 346.515017 154.858559 
L 347.478193 146.433909 
L 348.441369 149.242116 
L 349.404545 149.116666 
L 350.367722 145.816302 
L 353.25725 147.321733 
L 354.220426 142.149201 
L 355.183602 141.589483 
L 356.146778 166.853789 
L 357.109954 162.97439 
L 359.999482 164.817599 
L 360.962658 161.922544 
L 361.925834 153.507537 
L 362.88901 148.44117 
L 363.852186 151.23009 
L 366.741715 155.601616 
L 367.704891 150.757219 
L 368.668067 148.663111 
L 369.631243 147.0322 
L 370.594419 158.506344 
L 373.483947 157.772929 
L 374.447123 155.813914 
L 375.410299 158.033502 
L 376.373475 159.764346 
L 377.336651 155.770802 
L 380.22618 154.039959 
L 381.189356 145.143981 
L 382.152532 149.978764 
L 384.078884 149.52429 
L 386.968412 142.252784 
L 387.931588 142.04007 
L 388.894764 136.025587 
L 389.85794 130.997436 
L 390.821116 130.078814 
L 393.710644 127.709801 
L 394.67382 130.310903 
L 395.636997 124.83792 
L 396.600173 124.286747 
L 397.563349 126.501113 
L 400.452877 122.323845 
L 401.416053 119.548722 
L 402.379229 136.054606 
L 404.305581 136.818463 
L 407.195109 138.123879 
L 408.158285 134.178729 
L 410.084638 135.358399 
L 411.047814 142.687942 
L 413.937342 148.199557 
L 414.900518 151.419512 
L 416.82687 154.243029 
L 417.790046 149.630631 
L 420.679574 145.279341 
L 421.64275 150.578272 
L 422.605926 148.460664 
L 424.532278 153.885223 
L 427.421807 155.587077 
L 428.384983 157.056843 
L 429.348159 146.768482 
L 430.311335 148.441318 
L 431.274511 144.138363 
L 435.127215 144.650815 
L 436.090391 127.53572 
L 437.053567 127.042614 
L 438.016743 129.605023 
L 440.906272 138.791067 
L 441.869448 126.568764 
L 442.832624 131.277859 
L 443.7958 157.714388 
L 444.758976 157.646708 
L 447.648504 161.649865 
L 448.61168 160.247809 
L 449.574856 159.358176 
L 450.538032 156.91184 
L 451.501208 162.78123 
L 454.390736 160.392842 
L 455.353913 161.147056 
L 456.317089 163.467764 
L 457.280265 162.017344 
L 458.243441 164.057629 
L 462.096145 162.887572 
L 463.059321 157.927131 
L 464.022497 155.80522 
L 464.985673 163.478891 
L 467.875201 167.557917 
L 468.838377 173.468165 
L 469.801554 171.69507 
L 470.76473 178.671139 
L 471.727906 174.349876 
L 474.617434 182.585461 
L 475.58061 182.469209 
L 476.543786 170.445228 
L 477.506962 174.446723 
L 478.470138 177.915383 
L 481.359666 190.65634 
L 482.322842 190.375324 
L 483.286018 187.643075 
L 484.249194 192.003119 
L 485.212371 182.517632 
L 488.101899 182.381975 
L 489.065075 187.400839 
L 490.028251 183.234609 
L 490.991427 184.184119 
L 491.954603 179.901606 
L 494.844131 178.138243 
L 495.807307 176.122912 
L 496.770483 181.151479 
L 497.733659 180.560486 
L 498.696835 191.974041 
L 501.586364 195.277936 
L 502.54954 188.689492 
L 503.512716 188.737915 
L 504.475892 197.48705 
L 505.439068 210.344259 
L 508.328596 212.262655 
L 509.291772 215.46 
L 510.254948 180.647661 
L 511.218124 189.503345 
L 512.1813 182.624212 
L 515.070829 183.244311 
L 516.034005 185.259583 
L 516.997181 198.940378 
L 517.960357 202.651244 
L 521.813061 211.04186 
L 523.739413 196.246821 
L 524.702589 183.738456 
L 525.665765 179.32996 
L 528.555293 179.998483 
L 529.51847 177.208079 
L 530.481646 176.026036 
L 531.444822 146.823611 
L 532.407998 137.250921 
L 535.297526 136.388615 
L 536.260702 139.159644 
L 537.223878 139.120893 
L 538.187054 134.450815 
L 539.15023 133.908246 
L 542.039758 123.705784 
L 543.002934 123.822036 
L 543.96611 120.140277 
L 545.892463 118.043617 
L 548.781991 113.578538 
L 549.745167 114.25798 
L 550.708343 119.693755 
L 551.671519 117.470932 
L 552.634695 122.013661 
L 556.487399 111.811911 
L 557.450575 115.044239 
L 558.413751 113.762945 
L 559.376928 112.132242 
L 562.266456 110.569427 
L 564.192808 108.72518 
L 565.155984 105.026925 
L 566.11916 102.406092 
L 569.008688 100.10559 
L 569.971864 101.881919 
L 570.93504 100.231782 
L 571.898216 94.165078 
L 572.861392 97.960417 
L 575.750921 93.902991 
L 576.714097 94.970741 
L 577.677273 92.835271 
L 579.603625 95.591968 
L 582.493153 87.244197 
L 583.456329 83.254748 
L 584.419505 81.158088 
L 585.382681 76.129996 
L 586.345857 77.595697 
L 589.235386 76.168806 
L 590.198562 81.371632 
L 591.161738 82.303457 
L 592.124914 74.780755 
L 595.977618 75.86791 
L 596.940794 76.93566 
L 597.90397 70.247698 
L 598.867146 72.218167 
L 599.830322 70.432135 
L 602.71985 70.723358 
L 603.683026 68.005471 
L 604.646203 68.19961 
L 605.609379 62.297907 
L 606.572555 63.899532 
L 609.462083 63.88983 
L 610.425259 68.539346 
L 611.388435 67.956929 
L 612.351611 63.093869 
L 613.314787 60.346814 
L 616.204315 61.521381 
L 617.167491 61.453434 
L 618.130667 60.803099 
L 619.093843 41.137285 
L 620.05702 50.25188 
L 622.946548 39.06 
L 623.909724 46.718627 
L 624.8729 49.446187 
L 625.836076 53.425934 
L 626.799252 52.261159 
L 629.68878 52.523215 
L 630.651956 45.272331 
L 631.615132 53.678317 
L 632.578308 51.834071 
L 633.541484 54.076328 
L 636.431013 57.056331 
L 637.394189 64.171321 
L 638.357365 68.102526 
L 639.320541 68.734523 
L 640.283717 65.827422 
L 643.173245 68.715059 
L 644.136421 70.873495 
L 645.099597 66.303854 
L 646.062773 63.484253 
L 647.025949 66.352455 
L 650.878654 67.878923 
L 651.84183 67.655291 
L 652.805006 65.107954 
L 653.768182 77.718269 
L 653.768182 77.718269 
" clip-path="url(#p3c624315ef)" style="fill: none; stroke: #1f77b4; stroke-width: 1.5; stroke-linecap: square"/>
   </g>
   <g id="patch_3">
    <path d="M 94.5 224.28 
L 94.5 30.24 
" style="fill: none; stroke: #000000; stroke-width: 0.8; stroke-linejoin: miter; stroke-linecap: square"/>
   </g>
   <g id="patch_4">
    <path d="M 94.5 224.28 
L 680.4 224.28 
" style="fill: none; stroke: #000000; stroke-width: 0.8; stroke-linejoin: miter; stroke-linecap: square"/>
   </g>
  </g>
 </g>
 <defs>
  <clipPath id="p3c624315ef">
   <rect x="94.5" y="30.24" width="585.9" height="194.04"/>
  </clipPath>
 </defs>
</svg>
