<?xml version="1.0" encoding="utf-8" standalone="no"?>
<!DOCTYPE svg PUBLIC "-//W3C//DTD SVG 1.1//EN"
  "http://www.w3.org/Graphics/SVG/1.1/DTD/svg11.dtd">
<svg xmlns:xlink="http://www.w3.org/1999/xlink" width="756pt" height="252pt" viewBox="0 0 756 252" xmlns="http://www.w3.org/2000/svg" version="1.1">
 <metadata>
  <rdf:RDF xmlns:dc="http://purl.org/dc/elements/1.1/" xmlns:cc="http://creativecommons.org/ns#" xmlns:rdf="http://www.w3.org/1999/02/22-rdf-syntax-ns#">
   <cc:Work>
    <dc:type rdf:resource="http://purl.org/dc/dcmitype/StillImage"/>
    <dc:date>2025-09-06T17:34:27.495305</dc:date>
    <dc:format>image/svg+xml</dc:format>
    <dc:creator>
     <cc:Agent>
      <dc:title>Matplotlib v3.10.5, https://matplotlib.org/</dc:title>
     </cc:Agent>
    </dc:creator>
   </cc:Work>
  </rdf:RDF>
 </metadata>
 <defs>
  <style type="text/css">*{stroke-linejoin: round; stroke-linecap: butt}</style>
 </defs>
 <g id="figure_1">
  <g id="patch_1">
   <path d="M 0 252 
L 756 252 
L 756 0 
L 0 0 
z
" style="fill: #ffffff"/>
  </g>
  <g id="axes_1">
   <g id="patch_2">
    <path d="M 94.5 224.28 
L 680.4 224.28 
L 680.4 30.24 
L 94.5 30.24 
z
" style="fill: #ffffff"/>
   </g>
   <g id="matplotlib.axis_1">
    <g id="xtick_1">
     <g id="line2d_1">
      <defs>
       <path id="m84c9e39e27" d="M 0 0 
L 0 3.5 
" style="stroke: #000000; stroke-width: 0.8"/>
      </defs>
      <g>
       <use xlink:href="#m84c9e39e27" x="115.678204" y="224.28" style="stroke: #000000; stroke-width: 0.8"/>
      </g>
     </g>
     <g id="text_1">
      <!-- 2020 -->
      <g transform="translate(102.953204 238.878438) scale(0.1 -0.1)">
       <defs>
        <path id="DejaVuSans-32" d="M 1228 531 
L 3431 531 
L 3431 0 
L 469 0 
L 469 531 
Q 828 903 1448 1529 
Q 2069 2156 2228 2338 
Q 2531 2678 2651 2914 
Q 2772 3150 2772 3378 
Q 2772 3750 2511 3984 
Q 2250 4219 1831 4219 
Q 1534 4219 1204 4116 
Q 875 4013 500 3803 
L 500 4441 
Q 881 4594 1212 4672 
Q 1544 4750 1819 4750 
Q 2544 4750 2975 4387 
Q 3406 4025 3406 3419 
Q 3406 3131 3298 2873 
Q 3191 2616 2906 2266 
Q 2828 2175 2409 1742 
Q 1991 1309 1228 531 
z
" transform="scale(0.015625)"/>
        <path id="DejaVuSans-30" d="M 2034 4250 
Q 1547 4250 1301 3770 
Q 1056 3291 1056 2328 
Q 1056 1369 1301 889 
Q 1547 409 2034 409 
Q 2525 409 2770 889 
Q 3016 1369 3016 2328 
Q 3016 3291 2770 3770 
Q 2525 4250 2034 4250 
z
M 2034 4750 
Q 2819 4750 3233 4129 
Q 3647 3509 3647 2328 
Q 3647 1150 3233 529 
Q 2819 -91 2034 -91 
Q 1250 -91 836 529 
Q 422 1150 422 2328 
Q 422 3509 836 4129 
Q 1250 4750 2034 4750 
z
" transform="scale(0.015625)"/>
       </defs>
       <use xlink:href="#DejaVuSans-32"/>
       <use xlink:href="#DejaVuSans-30" transform="translate(63.623047 0)"/>
       <use xlink:href="#DejaVuSans-32" transform="translate(127.246094 0)"/>
       <use xlink:href="#DejaVuSans-30" transform="translate(190.869141 0)"/>
      </g>
     </g>
    </g>
    <g id="xtick_2">
     <g id="line2d_2">
      <g>
       <use xlink:href="#m84c9e39e27" x="210.726916" y="224.28" style="stroke: #000000; stroke-width: 0.8"/>
      </g>
     </g>
     <g id="text_2">
      <!-- 2021 -->
      <g transform="translate(198.001916 238.878438) scale(0.1 -0.1)">
       <defs>
        <path id="DejaVuSans-31" d="M 794 531 
L 1825 531 
L 1825 4091 
L 703 3866 
L 703 4441 
L 1819 4666 
L 2450 4666 
L 2450 531 
L 3481 531 
L 3481 0 
L 794 0 
L 794 531 
z
" transform="scale(0.015625)"/>
       </defs>
       <use xlink:href="#DejaVuSans-32"/>
       <use xlink:href="#DejaVuSans-30" transform="translate(63.623047 0)"/>
       <use xlink:href="#DejaVuSans-32" transform="translate(127.246094 0)"/>
       <use xlink:href="#DejaVuSans-31" transform="translate(190.869141 0)"/>
      </g>
     </g>
    </g>
    <g id="xtick_3">
     <g id="line2d_3">
      <g>
       <use xlink:href="#m84c9e39e27" x="305.515932" y="224.28" style="stroke: #000000; stroke-width: 0.8"/>
      </g>
     </g>
     <g id="text_3">
      <!-- 2022 -->
      <g transform="translate(292.790932 238.878438) scale(0.1 -0.1)">
       <use xlink:href="#DejaVuSans-32"/>
       <use xlink:href="#DejaVuSans-30" transform="translate(63.623047 0)"/>
       <use xlink:href="#DejaVuSans-32" transform="translate(127.246094 0)"/>
       <use xlink:href="#DejaVuSans-32" transform="translate(190.869141 0)"/>
      </g>
     </g>
    </g>
    <g id="xtick_4">
     <g id="line2d_4">
      <g>
       <use xlink:href="#m84c9e39e27" x="400.304949" y="224.28" style="stroke: #000000; stroke-width: 0.8"/>
      </g>
     </g>
     <g id="text_4">
      <!-- 2023 -->
      <g transform="translate(387.579949 238.878438) scale(0.1 -0.1)">
       <defs>
        <path id="DejaVuSans-33" d="M 2597 2516 
Q 3050 2419 3304 2112 
Q 3559 1806 3559 1356 
Q 3559 666 3084 287 
Q 2609 -91 1734 -91 
Q 1441 -91 1130 -33 
Q 819 25 488 141 
L 488 750 
Q 750 597 1062 519 
Q 1375 441 1716 441 
Q 2309 441 2620 675 
Q 2931 909 2931 1356 
Q 2931 1769 2642 2001 
Q 2353 2234 1838 2234 
L 1294 2234 
L 1294 2753 
L 1863 2753 
Q 2328 2753 2575 2939 
Q 2822 3125 2822 3475 
Q 2822 3834 2567 4026 
Q 2313 4219 1838 4219 
Q 1578 4219 1281 4162 
Q 984 4106 628 3988 
L 628 4550 
Q 988 4650 1302 4700 
Q 1616 4750 1894 4750 
Q 2613 4750 3031 4423 
Q 3450 4097 3450 3541 
Q 3450 3153 3228 2886 
Q 3006 2619 2597 2516 
z
" transform="scale(0.015625)"/>
       </defs>
       <use xlink:href="#DejaVuSans-32"/>
       <use xlink:href="#DejaVuSans-30" transform="translate(63.623047 0)"/>
       <use xlink:href="#DejaVuSans-32" transform="translate(127.246094 0)"/>
       <use xlink:href="#DejaVuSans-33" transform="translate(190.869141 0)"/>
      </g>
     </g>
    </g>
    <g id="xtick_5">
     <g id="line2d_5">
      <g>
       <use xlink:href="#m84c9e39e27" x="495.093965" y="224.28" style="stroke: #000000; stroke-width: 0.8"/>
      </g>
     </g>
     <g id="text_5">
      <!-- 2024 -->
      <g transform="translate(482.368965 238.878438) scale(0.1 -0.1)">
       <defs>
        <path id="DejaVuSans-34" d="M 2419 4116 
L 825 1625 
L 2419 1625 
L 2419 4116 
z
M 2253 4666 
L 3047 4666 
L 3047 1625 
L 3713 1625 
L 3713 1100 
L 3047 1100 
L 3047 0 
L 2419 0 
L 2419 1100 
L 313 1100 
L 313 1709 
L 2253 4666 
z
" transform="scale(0.015625)"/>
       </defs>
       <use xlink:href="#DejaVuSans-32"/>
       <use xlink:href="#DejaVuSans-30" transform="translate(63.623047 0)"/>
       <use xlink:href="#DejaVuSans-32" transform="translate(127.246094 0)"/>
       <use xlink:href="#DejaVuSans-34" transform="translate(190.869141 0)"/>
      </g>
     </g>
    </g>
    <g id="xtick_6">
     <g id="line2d_6">
      <g>
       <use xlink:href="#m84c9e39e27" x="590.142678" y="224.28" style="stroke: #000000; stroke-width: 0.8"/>
      </g>
     </g>
     <g id="text_6">
      <!-- 2025 -->
      <g transform="translate(577.417678 238.878438) scale(0.1 -0.1)">
       <defs>
        <path id="DejaVuSans-35" d="M 691 4666 
L 3169 4666 
L 3169 4134 
L 1269 4134 
L 1269 2991 
Q 1406 3038 1543 3061 
Q 1681 3084 1819 3084 
Q 2600 3084 3056 2656 
Q 3513 2228 3513 1497 
Q 3513 744 3044 326 
Q 2575 -91 1722 -91 
Q 1428 -91 1123 -41 
Q 819 9 494 109 
L 494 744 
Q 775 591 1075 516 
Q 1375 441 1709 441 
Q 2250 441 2565 725 
Q 2881 1009 2881 1497 
Q 2881 1984 2565 2268 
Q 2250 2553 1709 2553 
Q 1456 2553 1204 2497 
Q 953 2441 691 2322 
L 691 4666 
z
" transform="scale(0.015625)"/>
       </defs>
       <use xlink:href="#DejaVuSans-32"/>
       <use xlink:href="#DejaVuSans-30" transform="translate(63.623047 0)"/>
       <use xlink:href="#DejaVuSans-32" transform="translate(127.246094 0)"/>
       <use xlink:href="#DejaVuSans-35" transform="translate(190.869141 0)"/>
      </g>
     </g>
    </g>
   </g>
   <g id="matplotlib.axis_2">
    <g id="ytick_1">
     <g id="line2d_7">
      <defs>
       <path id="mb41969ad56" d="M 0 0 
L -3.5 0 
" style="stroke: #000000; stroke-width: 0.8"/>
      </defs>
      <g>
       <use xlink:href="#mb41969ad56" x="94.5" y="206.401137" style="stroke: #000000; stroke-width: 0.8"/>
      </g>
     </g>
     <g id="text_7">
      <!-- 150 -->
      <g transform="translate(68.4125 210.200356) scale(0.1 -0.1)">
       <use xlink:href="#DejaVuSans-31"/>
       <use xlink:href="#DejaVuSans-35" transform="translate(63.623047 0)"/>
       <use xlink:href="#DejaVuSans-30" transform="translate(127.246094 0)"/>
      </g>
     </g>
    </g>
    <g id="ytick_2">
     <g id="line2d_8">
      <g>
       <use xlink:href="#mb41969ad56" x="94.5" y="184.655018" style="stroke: #000000; stroke-width: 0.8"/>
      </g>
     </g>
     <g id="text_8">
      <!-- 200 -->
      <g transform="translate(68.4125 188.454237) scale(0.1 -0.1)">
       <use xlink:href="#DejaVuSans-32"/>
       <use xlink:href="#DejaVuSans-30" transform="translate(63.623047 0)"/>
       <use xlink:href="#DejaVuSans-30" transform="translate(127.246094 0)"/>
      </g>
     </g>
    </g>
    <g id="ytick_3">
     <g id="line2d_9">
      <g>
       <use xlink:href="#mb41969ad56" x="94.5" y="162.908899" style="stroke: #000000; stroke-width: 0.8"/>
      </g>
     </g>
     <g id="text_9">
      <!-- 250 -->
      <g transform="translate(68.4125 166.708118) scale(0.1 -0.1)">
       <use xlink:href="#DejaVuSans-32"/>
       <use xlink:href="#DejaVuSans-35" transform="translate(63.623047 0)"/>
       <use xlink:href="#DejaVuSans-30" transform="translate(127.246094 0)"/>
      </g>
     </g>
    </g>
    <g id="ytick_4">
     <g id="line2d_10">
      <g>
       <use xlink:href="#mb41969ad56" x="94.5" y="141.16278" style="stroke: #000000; stroke-width: 0.8"/>
      </g>
     </g>
     <g id="text_10">
      <!-- 300 -->
      <g transform="translate(68.4125 144.961999) scale(0.1 -0.1)">
       <use xlink:href="#DejaVuSans-33"/>
       <use xlink:href="#DejaVuSans-30" transform="translate(63.623047 0)"/>
       <use xlink:href="#DejaVuSans-30" transform="translate(127.246094 0)"/>
      </g>
     </g>
    </g>
    <g id="ytick_5">
     <g id="line2d_11">
      <g>
       <use xlink:href="#mb41969ad56" x="94.5" y="119.416661" style="stroke: #000000; stroke-width: 0.8"/>
      </g>
     </g>
     <g id="text_11">
      <!-- 350 -->
      <g transform="translate(68.4125 123.21588) scale(0.1 -0.1)">
       <use xlink:href="#DejaVuSans-33"/>
       <use xlink:href="#DejaVuSans-35" transform="translate(63.623047 0)"/>
       <use xlink:href="#DejaVuSans-30" transform="translate(127.246094 0)"/>
      </g>
     </g>
    </g>
    <g id="ytick_6">
     <g id="line2d_12">
      <g>
       <use xlink:href="#mb41969ad56" x="94.5" y="97.670542" style="stroke: #000000; stroke-width: 0.8"/>
      </g>
     </g>
     <g id="text_12">
      <!-- 400 -->
      <g transform="translate(68.4125 101.469761) scale(0.1 -0.1)">
       <use xlink:href="#DejaVuSans-34"/>
       <use xlink:href="#DejaVuSans-30" transform="translate(63.623047 0)"/>
       <use xlink:href="#DejaVuSans-30" transform="translate(127.246094 0)"/>
      </g>
     </g>
    </g>
    <g id="ytick_7">
     <g id="line2d_13">
      <g>
       <use xlink:href="#mb41969ad56" x="94.5" y="75.924423" style="stroke: #000000; stroke-width: 0.8"/>
      </g>
     </g>
     <g id="text_13">
      <!-- 450 -->
      <g transform="translate(68.4125 79.723642) scale(0.1 -0.1)">
       <use xlink:href="#DejaVuSans-34"/>
       <use xlink:href="#DejaVuSans-35" transform="translate(63.623047 0)"/>
       <use xlink:href="#DejaVuSans-30" transform="translate(127.246094 0)"/>
      </g>
     </g>
    </g>
    <g id="ytick_8">
     <g id="line2d_14">
      <g>
       <use xlink:href="#mb41969ad56" x="94.5" y="54.178304" style="stroke: #000000; stroke-width: 0.8"/>
      </g>
     </g>
     <g id="text_14">
      <!-- 500 -->
      <g transform="translate(68.4125 57.977523) scale(0.1 -0.1)">
       <use xlink:href="#DejaVuSans-35"/>
       <use xlink:href="#DejaVuSans-30" transform="translate(63.623047 0)"/>
       <use xlink:href="#DejaVuSans-30" transform="translate(127.246094 0)"/>
      </g>
     </g>
    </g>
    <g id="ytick_9">
     <g id="line2d_15">
      <g>
       <use xlink:href="#mb41969ad56" x="94.5" y="32.432185" style="stroke: #000000; stroke-width: 0.8"/>
      </g>
     </g>
     <g id="text_15">
      <!-- 550 -->
      <g transform="translate(68.4125 36.231404) scale(0.1 -0.1)">
       <use xlink:href="#DejaVuSans-35"/>
       <use xlink:href="#DejaVuSans-35" transform="translate(63.623047 0)"/>
       <use xlink:href="#DejaVuSans-30" transform="translate(127.246094 0)"/>
      </g>
     </g>
    </g>
   </g>
   <g id="line2d_16">
    <path d="M 121.131818 203.085497 
L 121.391514 202.663496 
L 121.65121 203.358565 
L 122.430298 204.500435 
L 123.209386 200.156341 
L 123.469082 201.211321 
L 124.248169 199.494362 
L 124.507865 197.119603 
L 124.767561 197.210621 
L 125.027257 195.667448 
L 125.286953 195.559852 
L 126.066041 193.569845 
L 126.325737 195.332317 
L 126.585433 195.220607 
L 126.845129 195.634326 
L 127.104825 194.955841 
L 128.403304 193.945697 
L 128.663 195.132197 
L 128.922696 197.550796 
L 129.96148 201.915044 
L 130.221176 201.043852 
L 130.480872 206.017952 
L 131.519656 199.956944 
L 131.779352 203.391926 
L 132.039047 200.886211 
L 133.337527 209.154236 
L 133.597223 204.881258 
L 133.856919 207.90552 
L 134.116615 213.949943 
L 134.376311 205.748302 
L 135.155399 215.46 
L 135.415095 210.834384 
L 135.674791 213.394052 
L 135.934487 212.435738 
L 136.194182 214.65936 
L 136.97327 215.227687 
L 137.232966 210.100114 
L 137.492662 210.689213 
L 137.752358 206.8767 
L 138.012054 209.535901 
L 138.791142 205.167498 
L 139.050838 206.212916 
L 139.310534 208.536103 
L 139.57023 207.229325 
L 139.829926 207.822552 
L 140.609013 203.076631 
L 140.868709 203.815075 
L 141.128405 203.134713 
L 141.388101 203.130565 
L 142.426885 202.977065 
L 142.686581 199.579433 
L 142.946277 200.334455 
L 143.205973 198.193815 
L 143.465669 197.546635 
L 144.244756 199.015221 
L 144.504452 202.018764 
L 144.764148 199.654113 
L 145.023844 200.525298 
L 145.28354 199.226796 
L 146.062628 199.434203 
L 146.322324 201.193224 
L 146.58202 198.032027 
L 146.841716 197.293582 
L 147.101412 199.218507 
L 148.140195 196.650556 
L 148.659587 195.472358 
L 148.919283 195.024336 
L 149.698371 194.169735 
L 150.217763 197.069564 
L 150.477459 196.745961 
L 150.737155 195.654892 
L 151.516243 194.928911 
L 151.775939 195.459935 
L 152.035635 194.403276 
L 152.29533 195.330963 
L 152.555026 195.297695 
L 153.59381 196.104746 
L 153.853506 196.004889 
L 154.113202 196.175464 
L 154.372898 195.405848 
L 155.151986 195.580571 
L 155.411682 194.715266 
L 155.671378 194.528053 
L 155.931074 195.543109 
L 156.190769 193.762625 
L 156.969857 193.28004 
L 157.229553 192.680987 
L 157.489249 189.752282 
L 157.748945 194.1495 
L 158.008641 193.537964 
L 158.787729 193.038748 
L 159.047425 191.112629 
L 159.307121 190.833914 
L 159.566817 189.968608 
L 159.826513 190.455335 
L 160.865296 187.643105 
L 161.124992 189.336267 
L 161.384688 188.296239 
L 161.644384 189.964441 
L 162.423472 189.086659 
L 162.683168 186.977522 
L 164.241343 183.986408 
L 164.501039 185.005618 
L 164.760735 183.100324 
L 165.020431 182.480452 
L 165.280127 182.750832 
L 166.059215 185.496492 
L 166.318911 184.964015 
L 166.578607 185.092966 
L 166.838303 186.806933 
L 167.097999 187.239579 
L 167.877087 183.611983 
L 168.136783 184.797621 
L 168.396478 183.549575 
L 168.656174 187.381047 
L 168.91587 187.896874 
L 169.694958 186.836054 
L 169.954654 187.59736 
L 170.21435 186.748692 
L 170.474046 186.815262 
L 170.733742 186.353489 
L 171.51283 181.556919 
L 171.772526 182.908938 
L 172.032222 183.054527 
L 172.291917 181.635959 
L 172.551613 183.245913 
L 173.330701 185.005618 
L 173.590397 187.031582 
L 173.850093 184.614582 
L 174.109789 184.818392 
L 174.369485 184.735205 
L 175.148573 184.161125 
L 175.408269 183.657748 
L 175.667965 184.191546 
L 175.927661 182.156504 
L 176.187357 182.807049 
L 176.966444 182.527637 
L 177.22614 181.368346 
L 178.005228 176.180675 
L 178.784316 177.590184 
L 179.044012 176.864554 
L 179.303708 175.038061 
L 179.563404 181.022206 
L 180.861883 187.127318 
L 181.121579 183.528471 
L 181.381275 185.997201 
L 181.640971 186.555998 
L 182.420059 185.980504 
L 182.679755 184.575162 
L 183.199147 187.023047 
L 183.458843 188.073926 
L 184.23793 187.17735 
L 184.497626 185.142315 
L 184.757322 187.99054 
L 185.017018 186.9063 
L 185.276714 184.975516 
L 186.055802 184.299964 
L 186.315498 185.209044 
L 186.83489 183.04057 
L 187.094586 185.655248 
L 187.873674 183.90796 
L 188.13337 185.772002 
L 188.393065 184.137307 
L 188.652761 183.824553 
L 188.912457 181.643551 
L 189.951241 178.703611 
L 190.470633 180.038069 
L 190.730329 180.038069 
L 191.509417 182.306625 
L 192.028809 182.064756 
L 192.288504 182.027234 
L 192.5482 181.468436 
L 193.327288 184.033062 
L 193.586984 182.711127 
L 193.84668 187.118963 
L 194.106376 186.268278 
L 194.366072 187.206543 
L 195.14516 187.264917 
L 195.404856 185.555164 
L 195.924248 178.524309 
L 196.183944 178.344973 
L 196.963031 180.567673 
L 197.222727 183.645232 
L 197.482423 181.334979 
L 197.742119 181.797847 
L 198.001815 181.351669 
L 198.780903 181.051412 
L 199.300295 183.385589 
L 199.559991 182.825339 
L 199.819687 183.674073 
L 200.598774 183.791159 
L 200.85847 182.223266 
L 201.118166 182.219085 
L 201.637558 181.650459 
L 202.416646 182.135453 
L 202.676342 181.240709 
L 203.195734 182.064377 
L 203.45543 182.014213 
L 204.234518 182.043493 
L 204.494213 181.32434 
L 204.753909 183.08457 
L 205.013605 183.619735 
L 205.273301 182.474128 
L 206.052389 182.081101 
L 206.312085 182.110368 
L 206.571781 179.957138 
L 206.831477 179.898599 
L 207.091173 180.245615 
L 208.129957 178.008754 
L 208.389652 179.229631 
L 208.649348 178.506291 
L 209.688132 177.582273 
L 209.947828 177.920948 
L 210.207524 178.953683 
L 210.46722 178.644281 
L 211.506004 180.621918 
L 211.7657 180.534112 
L 212.025396 182.896408 
L 212.285092 180.371043 
L 212.544787 179.814973 
L 213.323875 180.705517 
L 213.583571 181.775894 
L 213.843267 181.186357 
L 214.102963 182.574464 
L 214.362659 182.729178 
L 215.401443 181.144547 
L 215.661139 177.841504 
L 216.180531 177.168355 
L 216.959618 175.671531 
L 217.219314 174.500825 
L 217.47901 174.262519 
L 217.738706 171.741329 
L 217.998402 174.655526 
L 218.77749 171.440295 
L 219.037186 171.498848 
L 219.296882 170.039639 
L 219.556578 170.45357 
L 219.816274 170.374133 
L 220.595361 170.261228 
L 220.855057 169.717695 
L 221.114753 170.114896 
L 221.374449 169.416661 
L 221.634145 169.207602 
L 222.672929 169.746974 
L 222.932625 169.302761 
L 223.192321 169.474577 
L 223.452017 170.656352 
L 224.4908 173.883183 
L 224.750496 173.346777 
L 225.010192 175.676793 
L 225.269888 174.256155 
L 226.048976 172.345213 
L 226.308672 173.631737 
L 226.568368 176.276059 
L 226.828064 176.623899 
L 227.08776 174.583024 
L 227.866848 176.347321 
L 228.126544 173.669458 
L 228.38624 174.239391 
L 228.645935 172.265557 
L 228.905631 172.843898 
L 229.684719 173.237821 
L 229.944415 172.022519 
L 230.204111 172.303291 
L 230.463807 174.951808 
L 230.723503 175.106867 
L 231.762287 172.076997 
L 232.021983 172.965417 
L 232.281679 174.272918 
L 232.541374 172.537954 
L 233.320462 173.057603 
L 233.580158 174.478262 
L 233.839854 172.835503 
L 234.09955 170.078031 
L 235.138334 167.261886 
L 235.39803 167.768959 
L 235.657726 166.914066 
L 236.177118 164.420589 
L 236.956205 164.395443 
L 237.215901 163.314263 
L 237.475597 164.529545 
L 237.735293 162.890994 
L 237.994989 162.371358 
L 239.033773 163.41063 
L 239.293469 162.438412 
L 239.553165 163.867412 
L 239.812861 162.199522 
L 240.591948 162.03192 
L 240.851644 161.855877 
L 241.11134 164.961196 
L 241.371036 165.820289 
L 241.630732 165.958592 
L 242.40982 166.092673 
L 242.669516 167.798285 
L 242.929212 168.351474 
L 243.448604 165.841247 
L 244.227692 168.053939 
L 244.487388 168.452062 
L 244.747083 171.481919 
L 245.266475 167.64744 
L 246.045563 168.892075 
L 246.305259 169.772113 
L 246.564955 169.520089 
L 246.824651 168.108762 
L 247.084347 168.659011 
L 247.863435 166.302609 
L 248.123131 165.907764 
L 248.382827 166.004376 
L 248.642522 166.920058 
L 248.902218 166.764654 
L 249.941002 167.722325 
L 250.200698 167.764327 
L 250.460394 168.432193 
L 250.72009 166.298415 
L 251.499178 165.029895 
L 251.758874 165.550733 
L 252.01857 165.122314 
L 252.278266 163.589189 
L 253.317049 162.476074 
L 253.836441 163.530357 
L 254.096137 162.051836 
L 254.355833 162.669305 
L 255.134921 161.325125 
L 255.394617 160.115431 
L 255.654313 160.216237 
L 255.914009 159.619812 
L 256.173705 160.321305 
L 256.952792 158.767102 
L 257.212488 157.641438 
L 257.472184 157.85144 
L 257.73188 157.557448 
L 257.991576 155.016215 
L 259.03036 155.012021 
L 259.290056 154.058518 
L 259.549752 155.112801 
L 259.809448 154.894437 
L 260.588536 155.154796 
L 260.848231 153.61749 
L 261.107927 152.974822 
L 261.367623 153.596492 
L 261.627319 153.714103 
L 262.406407 155.285029 
L 262.925799 153.441082 
L 263.445191 149.96737 
L 264.224279 150.227782 
L 264.483975 151.282092 
L 264.74367 151.416492 
L 265.003366 151.298895 
L 265.263062 151.966755 
L 266.04215 152.004529 
L 266.301846 151.038457 
L 266.561542 151.294674 
L 266.821238 150.030376 
L 267.080934 150.055568 
L 267.860022 150.530215 
L 268.119718 151.324087 
L 268.379414 151.109824 
L 268.898805 148.631624 
L 269.677893 147.896591 
L 270.197285 149.288348 
L 270.716677 143.552291 
L 271.495765 143.430235 
L 271.755461 144.284537 
L 272.015157 144.541246 
L 272.274853 145.77012 
L 272.534549 145.504982 
L 273.313636 143.876346 
L 273.573332 144.595983 
L 273.833028 144.61702 
L 274.092724 144.903195 
L 274.35242 144.907349 
L 275.6509 145.298763 
L 275.910596 146.54444 
L 276.170292 147.192563 
L 276.949379 146.653901 
L 277.209075 145.47549 
L 277.468771 143.358695 
L 277.728467 143.190356 
L 277.988163 145.44187 
L 278.767251 147.785923 
L 279.026947 147.575509 
L 279.286643 145.984754 
L 279.546339 145.572329 
L 279.806035 145.660672 
L 280.585123 147.84066 
L 280.844818 152.322598 
L 281.104514 152.120599 
L 281.36421 152.995952 
L 281.623906 149.974298 
L 282.402994 152.495157 
L 282.922386 148.286771 
L 283.182082 147.554459 
L 283.441778 147.554459 
L 284.220866 147.815375 
L 284.480562 148.383543 
L 284.740258 146.940035 
L 284.999953 144.22984 
L 285.259649 143.61539 
L 286.298433 141.923655 
L 286.558129 142.268721 
L 286.817825 140.858886 
L 287.077521 141.532241 
L 287.856609 141.96573 
L 288.116305 141.132465 
L 288.376001 135.636248 
L 288.635697 135.139686 
L 288.895392 132.080139 
L 289.67448 133.027045 
L 289.934176 131.444691 
L 290.193872 131.078562 
L 290.453568 130.0517 
L 290.713264 130.211637 
L 291.492352 129.820262 
L 291.752048 130.257892 
L 292.011744 132.425244 
L 292.27144 131.739267 
L 292.531136 129.933838 
L 293.310223 130.207376 
L 293.569919 128.759701 
L 293.829615 128.66273 
L 294.349007 126.980512 
L 295.128095 128.363389 
L 295.387791 129.26988 
L 295.647487 129.172896 
L 296.166879 132.642772 
L 296.945966 129.712554 
L 297.205662 132.259082 
L 297.725054 132.722886 
L 297.98475 135.454888 
L 298.763838 134.114165 
L 299.023534 130.433518 
L 299.28323 130.412427 
L 299.542926 131.200857 
L 299.802622 127.220815 
L 300.58171 128.544682 
L 300.841406 133.207701 
L 301.101101 130.547345 
L 301.360797 134.65807 
L 301.620493 135.121835 
L 302.399581 136.761899 
L 302.918973 131.158703 
L 303.178669 130.530489 
L 304.217453 127.258762 
L 304.477149 127.764694 
L 304.736845 127.469574 
L 305.256236 129.843251 
L 306.035324 130.505191 
L 306.29502 132.925203 
L 306.554716 138.250188 
L 306.814412 139.304193 
L 307.853196 139.139783 
L 308.112892 138.840455 
L 308.372588 137.453317 
L 308.632284 143.132447 
L 308.89198 140.855741 
L 309.930763 144.038911 
L 310.190459 143.752206 
L 310.450155 144.481598 
L 310.709851 146.829951 
L 311.488939 146.686645 
L 311.748635 150.008914 
L 312.008331 146.543259 
L 312.268027 145.223626 
L 312.527723 141.673649 
L 313.30681 140.526868 
L 313.566506 141.462851 
L 313.826202 139.481292 
L 314.085898 144.629152 
L 314.345594 142.6518 
L 315.124682 144.755641 
L 315.384378 143.233625 
L 315.644074 140.429897 
L 316.163466 147.247353 
L 316.942554 147.26421 
L 317.202249 144.958025 
L 317.461945 145.10587 
L 317.721641 148.811046 
L 317.981337 149.993995 
L 319.020121 150.082737 
L 319.279817 153.230217 
L 319.539513 147.180286 
L 319.799209 146.031129 
L 320.578297 145.405848 
L 320.837993 147.02818 
L 321.097688 144.814373 
L 322.655864 155.097591 
L 322.91556 149.753214 
L 323.175256 150.982618 
L 323.434952 153.314738 
L 324.21404 154.848354 
L 324.733432 147.264767 
L 324.993128 146.914113 
L 325.252823 144.712983 
L 326.031911 145.249495 
L 326.291607 143.179353 
L 326.551303 145.110131 
L 326.810999 143.162443 
L 327.070695 143.339874 
L 327.849783 140.374058 
L 328.109479 138.384151 
L 328.369175 139.039043 
L 328.628871 141.383785 
L 328.888567 140.914831 
L 329.667654 138.570062 
L 329.92735 140.298045 
L 330.187046 145.10587 
L 330.446742 144.315821 
L 331.485526 151.122049 
L 331.745222 152.473987 
L 332.004918 150.124984 
L 332.264614 153.416115 
L 333.303397 153.124605 
L 333.563093 151.105112 
L 333.822789 150.657276 
L 334.342181 155.866509 
L 335.121269 153.040111 
L 335.380965 157.476165 
L 335.640661 151.983903 
L 335.900357 149.275752 
L 336.160053 154.39205 
L 336.939141 151.455793 
L 337.198836 152.592274 
L 337.458532 149.127907 
L 337.718228 154.463855 
L 337.977924 155.570778 
L 338.757012 159.858987 
L 339.016708 157.780364 
L 339.5361 163.758489 
L 339.795796 161.320785 
L 340.574884 161.16021 
L 340.83458 158.912598 
L 341.094276 164.045029 
L 341.613667 164.688692 
L 342.392755 161.262856 
L 342.652451 161.699019 
L 343.171843 159.039659 
L 343.431539 155.9314 
L 344.470323 156.511553 
L 344.730019 156.278655 
L 344.989715 155.363962 
L 345.24941 157.294992 
L 346.028498 157.832752 
L 346.288194 156.244757 
L 346.54789 157.129799 
L 346.807586 159.509701 
L 347.067282 164.50661 
L 347.84637 169.050406 
L 348.106066 168.106081 
L 348.365762 165.027486 
L 348.625458 167.902801 
L 348.885154 166.767919 
L 349.923937 164.189012 
L 350.183633 164.447327 
L 350.443329 162.020864 
L 350.703025 158.277416 
L 351.482113 159.467334 
L 351.741809 163.028712 
L 352.001505 161.428015 
L 352.261201 162.880495 
L 352.520897 161.715968 
L 353.55968 160.331226 
L 354.079072 157.980995 
L 354.338768 158.294366 
L 355.117856 159.628253 
L 355.377552 164.21865 
L 355.637248 164.620955 
L 355.896944 164.045029 
L 356.15664 162.927083 
L 356.935728 163.973044 
L 357.195424 161.737145 
L 357.714815 159.488544 
L 357.974511 161.385675 
L 358.753599 162.033566 
L 359.013295 164.968204 
L 359.272991 157.837025 
L 359.532687 154.589031 
L 359.792383 152.755423 
L 360.571471 153.911482 
L 360.831167 155.262319 
L 361.090863 152.022792 
L 361.350558 151.523139 
L 362.389342 152.933265 
L 362.649038 152.09481 
L 362.908734 149.189771 
L 363.16843 150.096023 
L 363.428126 148.025284 
L 364.207214 147.364658 
L 364.986302 148.501286 
L 365.245998 150.207236 
L 366.025085 153.771919 
L 366.284781 154.327823 
L 366.544477 154.603684 
L 366.804173 153.305102 
L 367.063869 157.871283 
L 367.842957 159.084959 
L 368.362349 160.680579 
L 368.622045 161.134647 
L 368.881741 162.976411 
L 369.920524 164.168877 
L 370.18022 162.114948 
L 370.439916 161.932467 
L 370.699612 159.411721 
L 371.4787 158.482361 
L 371.738396 164.703578 
L 371.998092 164.60597 
L 372.257788 167.508633 
L 372.517484 167.780221 
L 373.296572 167.873581 
L 373.556267 168.752027 
L 373.815963 170.237304 
L 374.075659 169.375841 
L 374.335355 170.674403 
L 375.114443 170.873846 
L 375.374139 171.315193 
L 375.633835 169.337648 
L 376.153227 172.804724 
L 376.932315 169.47769 
L 377.192011 166.02335 
L 377.451706 165.887556 
L 377.711402 166.910283 
L 377.971098 172.236065 
L 378.750186 174.353657 
L 379.009882 175.983202 
L 379.269578 175.838927 
L 379.529274 172.236065 
L 379.78897 174.646481 
L 380.568058 170.839908 
L 380.827754 170.428259 
L 381.08745 171.285495 
L 381.347146 171.425529 
L 381.606841 168.892068 
L 382.385929 166.715067 
L 382.645625 165.267976 
L 382.905321 173.475205 
L 383.165017 175.414563 
L 383.424713 171.544347 
L 384.203801 173.131479 
L 384.463497 174.811972 
L 384.982889 180.719135 
L 385.242585 177.689166 
L 386.021672 174.939278 
L 386.281368 174.514914 
L 386.541064 176.365153 
L 386.80076 168.527106 
L 387.060456 166.774483 
L 387.839544 169.133938 
L 388.358936 168.768472 
L 388.618632 168.789755 
L 388.878328 168.985515 
L 389.657415 168.632293 
L 390.176807 166.278937 
L 390.696199 166.317242 
L 391.734983 169.364254 
L 391.994679 163.061695 
L 392.254375 163.253208 
L 392.514071 163.112756 
L 393.293159 165.163984 
L 393.552854 167.325827 
L 393.81255 167.645004 
L 394.072246 166.355541 
L 394.331942 167.19815 
L 395.11103 164.180922 
L 395.370726 162.304198 
L 395.630422 162.176514 
L 395.890118 165.670393 
L 396.149814 167.508806 
L 396.928902 169.313193 
L 397.188598 168.738694 
L 397.448294 167.619461 
L 397.707989 170.274965 
L 397.967685 170.045174 
L 399.006469 170.798404 
L 399.266165 171.832513 
L 399.525861 169.074881 
L 399.785557 169.58129 
L 400.824341 169.683424 
L 401.343733 177.03288 
L 401.603428 175.917907 
L 402.382516 174.985939 
L 402.642212 174.249704 
L 402.901908 171.30482 
L 403.161604 170.13878 
L 403.4213 169.832378 
L 404.460084 169.355759 
L 404.979476 172.938978 
L 405.239172 169.411073 
L 406.018259 168.406749 
L 406.277955 168.636554 
L 406.537651 169.245097 
L 406.797347 166.100206 
L 407.057043 166.032103 
L 407.836131 168.351428 
L 408.355523 164.078775 
L 408.615219 159.035902 
L 408.874915 161.695641 
L 409.654002 162.368033 
L 409.913698 157.776223 
L 410.173394 158.129438 
L 410.43309 159.452946 
L 410.692786 159.674217 
L 411.471874 156.17611 
L 411.73157 155.814374 
L 411.991266 156.74015 
L 412.250962 159.7991 
L 412.510658 161.543993 
L 413.809137 164.338404 
L 414.068833 162.947596 
L 414.328529 165.315386 
L 415.107617 164.914336 
L 415.367313 165.230042 
L 415.627009 166.573924 
L 416.146401 162.725748 
L 416.925489 162.05167 
L 417.185185 163.212102 
L 417.444881 163.404093 
L 417.704576 163.99282 
L 417.964272 165.584153 
L 418.74336 163.310228 
L 419.782144 152.426988 
L 420.561232 155.498667 
L 420.820928 154.837418 
L 421.080624 155.473091 
L 421.34032 153.182063 
L 421.600016 151.940607 
L 422.638799 154.218773 
L 423.158191 150.455914 
L 423.417887 148.642773 
L 424.196975 149.099251 
L 424.456671 149.120607 
L 424.716367 150.332225 
L 424.976063 147.23489 
L 426.014846 148.177735 
L 426.274542 150.97642 
L 426.534238 150.694851 
L 426.793934 147.985771 
L 427.05363 149.564302 
L 427.832718 148.429453 
L 428.092414 148.612936 
L 428.35211 148.578759 
L 428.611806 149.577097 
L 428.871502 149.726389 
L 429.65059 151.42865 
L 429.910285 154.137717 
L 430.169981 145.626535 
L 430.429677 141.590601 
L 430.689373 140.553891 
L 431.468461 141.279169 
L 431.728157 141.343157 
L 431.987853 141.774058 
L 432.247549 141.343157 
L 432.507245 139.10765 
L 433.286333 139.960903 
L 433.546029 140.664825 
L 433.805724 138.399441 
L 434.06542 139.338025 
L 434.325116 139.82438 
L 435.104204 139.61532 
L 435.623596 137.3856 
L 435.883292 135.453017 
L 436.142988 135.529972 
L 436.922076 134.315712 
L 437.181772 136.846858 
L 437.441468 137.44972 
L 437.960859 129.308968 
L 438.999643 130.027278 
L 439.259339 131.233004 
L 439.778731 128.235811 
L 440.557819 128.004931 
L 440.817515 128.971203 
L 441.077211 133.375097 
L 441.596603 131.917109 
L 442.635386 128.710406 
L 442.895082 127.406342 
L 443.154778 122.805785 
L 443.414474 125.272836 
L 444.453258 127.102794 
L 444.712954 129.022515 
L 444.97265 126.393006 
L 445.232346 128.39827 
L 446.011433 131.143213 
L 446.271129 128.590686 
L 446.530825 128.043383 
L 446.790521 128.385462 
L 447.050217 126.038131 
L 447.829305 127.12845 
L 448.348697 127.060016 
L 448.608393 125.726048 
L 448.868089 127.457668 
L 449.647177 129.762194 
L 449.906872 129.488562 
L 450.68596 124.028633 
L 451.465048 123.819122 
L 451.724744 117.935884 
L 451.98444 119.821428 
L 452.244136 123.331706 
L 452.503832 124.657112 
L 453.28292 124.084206 
L 453.542616 121.574417 
L 453.802312 127.222475 
L 454.062007 130.236775 
L 454.321703 126.965952 
L 455.100791 128.013439 
L 455.360487 127.833912 
L 455.620183 131.613534 
L 455.879879 131.972669 
L 456.139575 131.493814 
L 456.918663 130.497625 
L 457.438055 133.866774 
L 457.697751 133.567499 
L 457.957446 134.388394 
L 458.736534 133.092878 
L 458.99623 134.024946 
L 459.255926 134.359167 
L 459.515622 135.86738 
L 459.775318 136.038745 
L 460.554406 133.725034 
L 460.814102 133.476541 
L 461.073798 131.531296 
L 461.333494 134.543407 
L 461.59319 133.253718 
L 462.372277 132.945245 
L 462.631973 130.927146 
L 462.891669 130.764329 
L 463.151365 131.205648 
L 463.411061 130.820048 
L 464.449845 128.724847 
L 464.709541 129.011937 
L 464.969237 130.284451 
L 465.228933 128.416361 
L 466.00802 126.843869 
L 466.267716 129.487514 
L 466.787108 126.518234 
L 467.046804 130.151644 
L 468.085588 130.824321 
L 468.345284 134.200637 
L 468.60498 134.731933 
L 468.864676 135.811661 
L 469.643764 135.584577 
L 469.90346 137.898301 
L 470.422851 137.255566 
L 471.461635 133.759304 
L 471.721331 137.362704 
L 471.981027 134.976153 
L 472.240723 134.804788 
L 472.500419 131.419898 
L 473.279507 130.322995 
L 473.539203 130.935707 
L 473.798899 129.209011 
L 474.058594 129.748881 
L 474.31829 131.21851 
L 475.097378 129.114748 
L 475.357074 129.363281 
L 475.61677 130.198789 
L 475.876466 129.680341 
L 476.136162 131.672691 
L 477.174946 130.01881 
L 477.434642 125.674165 
L 477.694338 131.149969 
L 477.954034 130.327322 
L 478.733121 127.113837 
L 478.992817 126.771054 
L 479.252513 123.360468 
L 479.512209 122.396426 
L 479.771905 120.476877 
L 480.550993 118.878715 
L 481.070385 116.020821 
L 481.330081 117.096314 
L 481.589777 113.248682 
L 482.368864 114.52981 
L 482.62856 112.991601 
L 482.888256 112.927189 
L 483.147952 110.136507 
L 483.407648 112.849928 
L 484.186736 109.591262 
L 484.446432 111.467462 
L 484.706128 109.415251 
L 485.22552 109.595549 
L 486.004608 109.08894 
L 486.264303 107.332965 
L 486.523999 108.985904 
L 486.783695 108.960154 
L 487.043391 110.849216 
L 487.822479 113.154764 
L 488.082175 111.703611 
L 488.341871 113.300751 
L 488.601567 112.377643 
L 488.861263 110.969441 
L 489.640351 112.227381 
L 489.900047 110.905028 
L 490.159742 110.909328 
L 490.419438 114.532903 
L 490.679134 112.472078 
L 491.717918 111.385887 
L 491.977614 112.519329 
L 492.23731 111.265676 
L 492.497006 110.819153 
L 493.53579 110.784816 
L 493.795486 111.038114 
L 494.314877 110.192333 
L 495.353661 112.411992 
L 495.613357 112.527917 
L 495.873053 113.66996 
L 496.132749 113.751521 
L 496.911837 110.771928 
L 497.171533 110.299683 
L 497.431229 107.302915 
L 497.690925 106.504346 
L 497.950621 104.855681 
L 498.989404 104.0829 
L 499.2491 104.426359 
L 499.768492 100.476474 
L 500.54758 101.403843 
L 500.807276 100.377738 
L 501.326668 97.814592 
L 501.586364 98.218177 
L 502.365451 95.732318 
L 502.625147 96.217452 
L 502.884843 100.944459 
L 503.404235 95.088337 
L 504.183323 97.479733 
L 504.443019 97.548419 
L 504.702715 93.873307 
L 504.962411 93.847557 
L 505.222107 91.082639 
L 506.001195 93.353837 
L 506.26089 97.192072 
L 506.520586 95.505978 
L 507.039978 97.841575 
L 508.078762 98.38783 
L 508.338458 98.650219 
L 508.598154 94.576897 
L 508.85785 95.140366 
L 509.636938 96.344711 
L 509.896634 96.3705 
L 510.15633 96.267278 
L 510.416025 93.720935 
L 510.675721 92.920879 
L 511.454809 93.170341 
L 511.714505 98.448035 
L 511.974201 98.688923 
L 512.233897 95.656491 
L 512.493593 96.912494 
L 513.272681 97.643705 
L 513.532377 93.015527 
L 513.792073 93.092934 
L 514.051769 88.74002 
L 514.311464 92.525151 
L 515.090552 92.13805 
L 515.86964 86.955031 
L 516.129336 87.225968 
L 517.16812 90.275601 
L 517.427816 90.370236 
L 517.687512 90.675616 
L 518.726295 89.019611 
L 518.985991 90.365909 
L 519.245687 90.791753 
L 519.505383 91.897163 
L 519.765079 88.611009 
L 520.544167 89.011024 
L 520.803863 88.2841 
L 521.063559 89.583067 
L 521.323255 87.574391 
L 521.582951 90.168051 
L 522.362038 93.720935 
L 522.621734 93.316607 
L 522.88143 94.495163 
L 523.400822 99.966401 
L 524.17991 99.174958 
L 524.439606 96.331797 
L 524.699302 95.690921 
L 524.958998 100.000804 
L 525.218694 96.869477 
L 525.997782 98.620103 
L 526.257478 104.177375 
L 526.517173 101.764345 
L 526.776869 100.516969 
L 527.036565 96.723237 
L 527.815653 93.763939 
L 528.075349 95.570497 
L 528.335045 95.054318 
L 528.854437 93.2478 
L 529.633525 93.686506 
L 529.893221 92.464945 
L 530.152917 89.332278 
L 530.412612 90.232849 
L 530.672308 90.568982 
L 531.451396 88.358414 
L 531.711092 86.764075 
L 531.970788 86.126345 
L 532.230484 87.643131 
L 532.49018 86.281464 
L 533.528964 86.212525 
L 533.78866 86.708064 
L 534.048356 92.956171 
L 534.308052 92.757969 
L 535.087139 93.451723 
L 535.346835 92.35291 
L 535.606531 88.93152 
L 535.866227 88.711776 
L 536.125923 89.000472 
L 536.905011 87.268242 
L 537.164707 85.195591 
L 537.424403 81.584599 
L 537.684099 81.360528 
L 537.943795 80.933928 
L 538.722882 78.43469 
L 538.982578 79.30942 
L 539.50197 79.585188 
L 539.761666 77.827102 
L 540.540754 78.736301 
L 540.80045 77.322949 
L 541.319842 76.504245 
L 541.579538 79.046565 
L 542.618321 73.733526 
L 542.878017 73.091468 
L 543.397409 70.16563 
L 544.176497 70.734422 
L 544.436193 73.621477 
L 544.695889 70.730108 
L 544.955585 75.707055 
L 545.215281 76.202607 
L 545.994369 76.02592 
L 547.033152 83.286687 
L 548.071936 79.951477 
L 548.591328 91.348904 
L 548.851024 88.388597 
L 549.630112 87.759467 
L 550.149504 91.370432 
L 550.4092 91.904768 
L 550.668895 95.619181 
L 551.447983 101.367449 
L 551.707679 99.445604 
L 551.967375 99.95407 
L 552.486767 96.683512 
L 553.265855 96.343092 
L 553.525551 93.24058 
L 553.785247 92.012503 
L 554.044943 89.88862 
L 554.304639 90.993738 
L 555.083726 89.672791 
L 555.343422 88.261191 
L 555.603118 88.546078 
L 555.862814 92.25424 
L 556.12251 91.718949 
L 556.901598 93.143516 
L 557.161294 92.992419 
L 557.42099 94.391051 
L 557.680686 93.303228 
L 557.940382 91.567865 
L 558.979165 94.891807 
L 559.498557 95.345085 
L 559.758253 98.233029 
L 560.537341 96.497667 
L 561.056733 89.020938 
L 561.576125 85.761755 
L 562.355213 85.437992 
L 562.614908 83.793282 
L 562.874604 85.666775 
L 563.1343 82.265121 
L 563.393996 83.741465 
L 564.173084 84.501226 
L 564.43278 86.374731 
L 564.692476 85.105588 
L 564.952172 85.450946 
L 565.211868 86.871186 
L 565.990956 85.886957 
L 566.250652 90.035403 
L 566.510348 91.572165 
L 567.029739 92.034085 
L 567.808827 94.848643 
L 568.068523 92.616839 
L 568.328219 91.429735 
L 568.587915 92.129038 
L 568.847611 91.92185 
L 569.626699 90.704497 
L 569.886395 90.877176 
L 570.146091 92.008189 
L 570.405787 91.749171 
L 570.665482 91.127541 
L 571.44457 90.859908 
L 571.704266 87.091315 
L 571.963962 88.347517 
L 572.223658 88.2914 
L 572.483354 86.815056 
L 573.262442 87.488464 
L 573.522138 85.17466 
L 573.781834 84.924282 
L 574.04153 96.225694 
L 574.301226 94.490345 
L 575.080313 95.314863 
L 575.340009 94.019825 
L 575.859401 87.989232 
L 576.119097 89.236794 
L 576.898185 91.192298 
L 577.157881 89.025265 
L 577.677273 87.358961 
L 577.936969 92.491664 
L 578.716056 92.163574 
L 578.975752 91.287278 
L 579.495144 93.054403 
L 579.75484 91.267993 
L 580.533928 90.493726 
L 580.793624 86.514308 
L 581.05332 88.677041 
L 581.572712 88.473728 
L 582.3518 85.220995 
L 582.611496 85.125829 
L 583.130887 80.186166 
L 584.169671 78.715516 
L 584.429367 79.879074 
L 584.689063 77.430844 
L 584.948759 77.184302 
L 585.208455 78.174836 
L 585.987543 76.306241 
L 586.247239 75.064825 
L 586.506935 82.448365 
L 587.026326 82.790073 
L 587.805414 83.374022 
L 588.06511 81.609234 
L 588.584502 82.136946 
L 588.844198 85.415641 
L 589.623286 87.881165 
L 589.882982 89.321527 
L 590.402374 90.584565 
L 590.66207 88.521311 
L 591.441157 86.574858 
L 591.700853 88.945217 
L 591.960549 87.997939 
L 592.479941 90.424521 
L 593.259029 91.185795 
L 593.518725 91.843262 
L 593.778421 87.240993 
L 594.038117 87.989298 
L 594.297813 86.064467 
L 595.336596 86.293701 
L 595.596292 78.637644 
L 595.855988 78.417064 
L 596.115684 79.563301 
L 596.894772 83.672487 
L 597.154468 78.205098 
L 597.414164 80.311607 
L 597.67386 92.1374 
L 597.933556 92.107125 
L 598.712643 93.897848 
L 599.491731 91.778385 
L 599.751427 94.403939 
L 600.530515 93.33556 
L 600.790211 93.672941 
L 601.049907 94.711058 
L 601.309603 94.062231 
L 601.569299 94.974907 
L 602.608083 94.451522 
L 602.867778 92.232579 
L 603.127474 91.283376 
L 603.38717 94.716022 
L 604.166258 96.540684 
L 604.425954 99.184515 
L 604.68565 98.39136 
L 604.945346 101.511923 
L 605.205042 99.578915 
L 605.98413 103.262921 
L 606.243826 103.210918 
L 606.503522 97.832258 
L 607.802001 106.873236 
L 608.061697 106.747556 
L 608.321393 105.525332 
L 608.581089 107.4757 
L 608.840785 103.232579 
L 609.619873 103.171896 
L 609.879569 105.416986 
L 610.139265 103.553289 
L 610.398961 103.978058 
L 610.658657 102.062358 
L 611.437744 101.273557 
L 611.69744 100.372044 
L 611.957136 102.621461 
L 612.216832 102.357094 
L 612.476528 107.462693 
L 613.255616 108.940617 
L 613.515312 105.99341 
L 613.775008 106.015084 
L 614.034704 109.928815 
L 614.2944 115.680188 
L 615.073487 116.538353 
L 615.333183 117.968614 
L 615.592879 102.396102 
L 615.852575 106.357482 
L 616.112271 103.280242 
L 616.891359 103.557643 
L 617.151055 104.45913 
L 617.410751 110.578929 
L 617.670447 112.238902 
L 618.709231 115.992258 
L 619.228622 109.37404 
L 619.488318 103.778688 
L 619.748014 101.806645 
L 620.527102 102.105707 
L 620.786798 100.857469 
L 621.046494 100.328708 
L 621.30619 87.265653 
L 621.565886 82.983523 
L 622.344974 82.59779 
L 622.60467 83.837348 
L 622.864365 83.820014 
L 623.124061 81.730958 
L 623.383757 81.488239 
L 624.162845 76.924421 
L 624.422541 76.97641 
L 624.682237 75.329458 
L 625.201629 74.391563 
L 625.980717 72.394209 
L 626.240413 72.698143 
L 626.500109 75.129716 
L 626.759805 74.135386 
L 627.0195 76.167474 
L 628.058284 71.603948 
L 628.31798 73.049858 
L 628.837372 71.747241 
L 629.61646 71.048151 
L 630.135852 70.223168 
L 630.655244 67.396464 
L 631.434331 66.367386 
L 631.694027 67.161988 
L 631.953723 66.423835 
L 632.213419 63.71003 
L 632.473115 65.407791 
L 633.252203 63.592792 
L 633.511899 64.070426 
L 633.771595 63.115171 
L 634.290987 64.348318 
L 635.589466 57.891643 
L 635.849162 55.642438 
L 636.108858 56.298086 
L 636.887946 55.659798 
L 637.147642 57.987167 
L 637.407338 58.403998 
L 637.667034 55.038885 
L 638.705818 55.525199 
L 638.965513 56.002833 
L 639.225209 53.011123 
L 639.484905 53.892568 
L 639.744601 53.093626 
L 640.523689 53.223899 
L 640.783385 52.008112 
L 641.043081 52.094956 
L 641.302777 49.454961 
L 641.562473 50.171412 
L 642.341561 50.167072 
L 642.601257 52.246929 
L 642.860953 51.986398 
L 643.120648 49.811016 
L 643.380344 48.582183 
L 644.159432 49.107599 
L 644.419128 49.077204 
L 644.678824 48.786291 
L 644.93852 39.989227 
L 645.198216 44.066439 
L 645.977304 39.06 
L 646.237 42.485916 
L 646.496696 43.70603 
L 646.756392 45.486281 
L 647.016087 44.965245 
L 647.795175 45.08247 
L 648.054871 41.838948 
L 648.314567 45.599179 
L 648.574263 44.774196 
L 648.833959 45.77722 
L 649.613047 47.110258 
L 649.872743 50.292991 
L 650.132439 52.051528 
L 650.392135 52.334238 
L 650.651831 51.033811 
L 651.430918 52.325531 
L 651.690614 53.291059 
L 652.210006 49.985646 
L 652.469702 51.268673 
L 653.508486 51.951504 
L 653.768182 51.851467 
L 653.768182 51.851467 
" clip-path="url(#pabaa055041)" style="fill: none; stroke: #1f77b4; stroke-width: 1.5; stroke-linecap: square"/>
   </g>
   <g id="patch_3">
    <path d="M 94.5 224.28 
L 94.5 30.24 
" style="fill: none; stroke: #000000; stroke-width: 0.8; stroke-linejoin: miter; stroke-linecap: square"/>
   </g>
   <g id="patch_4">
    <path d="M 94.5 224.28 
L 680.4 224.28 
" style="fill: none; stroke: #000000; stroke-width: 0.8; stroke-linejoin: miter; stroke-linecap: square"/>
   </g>
  </g>
 </g>
 <defs>
  <clipPath id="pabaa055041">
   <rect x="94.5" y="30.24" width="585.9" height="194.04"/>
  </clipPath>
 </defs>
</svg>
