<?xml version="1.0" encoding="utf-8" standalone="no"?>
<!DOCTYPE svg PUBLIC "-//W3C//DTD SVG 1.1//EN"
  "http://www.w3.org/Graphics/SVG/1.1/DTD/svg11.dtd">
<svg xmlns:xlink="http://www.w3.org/1999/xlink" width="756pt" height="252pt" viewBox="0 0 756 252" xmlns="http://www.w3.org/2000/svg" version="1.1">
 <metadata>
  <rdf:RDF xmlns:dc="http://purl.org/dc/elements/1.1/" xmlns:cc="http://creativecommons.org/ns#" xmlns:rdf="http://www.w3.org/1999/02/22-rdf-syntax-ns#">
   <cc:Work>
    <dc:type rdf:resource="http://purl.org/dc/dcmitype/StillImage"/>
    <dc:date>2025-09-08T17:07:03.707151</dc:date>
    <dc:format>image/svg+xml</dc:format>
    <dc:creator>
     <cc:Agent>
      <dc:title>Matplotlib v3.10.5, https://matplotlib.org/</dc:title>
     </cc:Agent>
    </dc:creator>
   </cc:Work>
  </rdf:RDF>
 </metadata>
 <defs>
  <style type="text/css">*{stroke-linejoin: round; stroke-linecap: butt}</style>
 </defs>
 <g id="figure_1">
  <g id="patch_1">
   <path d="M 0 252 
L 756 252 
L 756 0 
L 0 0 
z
" style="fill: #ffffff"/>
  </g>
  <g id="axes_1">
   <g id="patch_2">
    <path d="M 94.5 224.28 
L 680.4 224.28 
L 680.4 30.24 
L 94.5 30.24 
z
" style="fill: #ffffff"/>
   </g>
   <g id="matplotlib.axis_1">
    <g id="xtick_1">
     <g id="line2d_1">
      <defs>
       <path id="mcc8d3c878f" d="M 0 0 
L 0 3.5 
" style="stroke: #000000; stroke-width: 0.8"/>
      </defs>
      <g>
       <use xlink:href="#mcc8d3c878f" x="115.683516" y="224.28" style="stroke: #000000; stroke-width: 0.8"/>
      </g>
     </g>
     <g id="text_1">
      <!-- 2020 -->
      <g transform="translate(102.958516 238.878438) scale(0.1 -0.1)">
       <defs>
        <path id="DejaVuSans-32" d="M 1228 531 
L 3431 531 
L 3431 0 
L 469 0 
L 469 531 
Q 828 903 1448 1529 
Q 2069 2156 2228 2338 
Q 2531 2678 2651 2914 
Q 2772 3150 2772 3378 
Q 2772 3750 2511 3984 
Q 2250 4219 1831 4219 
Q 1534 4219 1204 4116 
Q 875 4013 500 3803 
L 500 4441 
Q 881 4594 1212 4672 
Q 1544 4750 1819 4750 
Q 2544 4750 2975 4387 
Q 3406 4025 3406 3419 
Q 3406 3131 3298 2873 
Q 3191 2616 2906 2266 
Q 2828 2175 2409 1742 
Q 1991 1309 1228 531 
z
" transform="scale(0.015625)"/>
        <path id="DejaVuSans-30" d="M 2034 4250 
Q 1547 4250 1301 3770 
Q 1056 3291 1056 2328 
Q 1056 1369 1301 889 
Q 1547 409 2034 409 
Q 2525 409 2770 889 
Q 3016 1369 3016 2328 
Q 3016 3291 2770 3770 
Q 2525 4250 2034 4250 
z
M 2034 4750 
Q 2819 4750 3233 4129 
Q 3647 3509 3647 2328 
Q 3647 1150 3233 529 
Q 2819 -91 2034 -91 
Q 1250 -91 836 529 
Q 422 1150 422 2328 
Q 422 3509 836 4129 
Q 1250 4750 2034 4750 
z
" transform="scale(0.015625)"/>
       </defs>
       <use xlink:href="#DejaVuSans-32"/>
       <use xlink:href="#DejaVuSans-30" transform="translate(63.623047 0)"/>
       <use xlink:href="#DejaVuSans-32" transform="translate(127.246094 0)"/>
       <use xlink:href="#DejaVuSans-30" transform="translate(190.869141 0)"/>
      </g>
     </g>
    </g>
    <g id="xtick_2">
     <g id="line2d_2">
      <g>
       <use xlink:href="#mcc8d3c878f" x="210.639634" y="224.28" style="stroke: #000000; stroke-width: 0.8"/>
      </g>
     </g>
     <g id="text_2">
      <!-- 2021 -->
      <g transform="translate(197.914634 238.878438) scale(0.1 -0.1)">
       <defs>
        <path id="DejaVuSans-31" d="M 794 531 
L 1825 531 
L 1825 4091 
L 703 3866 
L 703 4441 
L 1819 4666 
L 2450 4666 
L 2450 531 
L 3481 531 
L 3481 0 
L 794 0 
L 794 531 
z
" transform="scale(0.015625)"/>
       </defs>
       <use xlink:href="#DejaVuSans-32"/>
       <use xlink:href="#DejaVuSans-30" transform="translate(63.623047 0)"/>
       <use xlink:href="#DejaVuSans-32" transform="translate(127.246094 0)"/>
       <use xlink:href="#DejaVuSans-31" transform="translate(190.869141 0)"/>
      </g>
     </g>
    </g>
    <g id="xtick_3">
     <g id="line2d_3">
      <g>
       <use xlink:href="#mcc8d3c878f" x="305.336308" y="224.28" style="stroke: #000000; stroke-width: 0.8"/>
      </g>
     </g>
     <g id="text_3">
      <!-- 2022 -->
      <g transform="translate(292.611308 238.878438) scale(0.1 -0.1)">
       <use xlink:href="#DejaVuSans-32"/>
       <use xlink:href="#DejaVuSans-30" transform="translate(63.623047 0)"/>
       <use xlink:href="#DejaVuSans-32" transform="translate(127.246094 0)"/>
       <use xlink:href="#DejaVuSans-32" transform="translate(190.869141 0)"/>
      </g>
     </g>
    </g>
    <g id="xtick_4">
     <g id="line2d_4">
      <g>
       <use xlink:href="#mcc8d3c878f" x="400.032983" y="224.28" style="stroke: #000000; stroke-width: 0.8"/>
      </g>
     </g>
     <g id="text_4">
      <!-- 2023 -->
      <g transform="translate(387.307983 238.878438) scale(0.1 -0.1)">
       <defs>
        <path id="DejaVuSans-33" d="M 2597 2516 
Q 3050 2419 3304 2112 
Q 3559 1806 3559 1356 
Q 3559 666 3084 287 
Q 2609 -91 1734 -91 
Q 1441 -91 1130 -33 
Q 819 25 488 141 
L 488 750 
Q 750 597 1062 519 
Q 1375 441 1716 441 
Q 2309 441 2620 675 
Q 2931 909 2931 1356 
Q 2931 1769 2642 2001 
Q 2353 2234 1838 2234 
L 1294 2234 
L 1294 2753 
L 1863 2753 
Q 2328 2753 2575 2939 
Q 2822 3125 2822 3475 
Q 2822 3834 2567 4026 
Q 2313 4219 1838 4219 
Q 1578 4219 1281 4162 
Q 984 4106 628 3988 
L 628 4550 
Q 988 4650 1302 4700 
Q 1616 4750 1894 4750 
Q 2613 4750 3031 4423 
Q 3450 4097 3450 3541 
Q 3450 3153 3228 2886 
Q 3006 2619 2597 2516 
z
" transform="scale(0.015625)"/>
       </defs>
       <use xlink:href="#DejaVuSans-32"/>
       <use xlink:href="#DejaVuSans-30" transform="translate(63.623047 0)"/>
       <use xlink:href="#DejaVuSans-32" transform="translate(127.246094 0)"/>
       <use xlink:href="#DejaVuSans-33" transform="translate(190.869141 0)"/>
      </g>
     </g>
    </g>
    <g id="xtick_5">
     <g id="line2d_5">
      <g>
       <use xlink:href="#mcc8d3c878f" x="494.729657" y="224.28" style="stroke: #000000; stroke-width: 0.8"/>
      </g>
     </g>
     <g id="text_5">
      <!-- 2024 -->
      <g transform="translate(482.004657 238.878438) scale(0.1 -0.1)">
       <defs>
        <path id="DejaVuSans-34" d="M 2419 4116 
L 825 1625 
L 2419 1625 
L 2419 4116 
z
M 2253 4666 
L 3047 4666 
L 3047 1625 
L 3713 1625 
L 3713 1100 
L 3047 1100 
L 3047 0 
L 2419 0 
L 2419 1100 
L 313 1100 
L 313 1709 
L 2253 4666 
z
" transform="scale(0.015625)"/>
       </defs>
       <use xlink:href="#DejaVuSans-32"/>
       <use xlink:href="#DejaVuSans-30" transform="translate(63.623047 0)"/>
       <use xlink:href="#DejaVuSans-32" transform="translate(127.246094 0)"/>
       <use xlink:href="#DejaVuSans-34" transform="translate(190.869141 0)"/>
      </g>
     </g>
    </g>
    <g id="xtick_6">
     <g id="line2d_6">
      <g>
       <use xlink:href="#mcc8d3c878f" x="589.685775" y="224.28" style="stroke: #000000; stroke-width: 0.8"/>
      </g>
     </g>
     <g id="text_6">
      <!-- 2025 -->
      <g transform="translate(576.960775 238.878438) scale(0.1 -0.1)">
       <defs>
        <path id="DejaVuSans-35" d="M 691 4666 
L 3169 4666 
L 3169 4134 
L 1269 4134 
L 1269 2991 
Q 1406 3038 1543 3061 
Q 1681 3084 1819 3084 
Q 2600 3084 3056 2656 
Q 3513 2228 3513 1497 
Q 3513 744 3044 326 
Q 2575 -91 1722 -91 
Q 1428 -91 1123 -41 
Q 819 9 494 109 
L 494 744 
Q 775 591 1075 516 
Q 1375 441 1709 441 
Q 2250 441 2565 725 
Q 2881 1009 2881 1497 
Q 2881 1984 2565 2268 
Q 2250 2553 1709 2553 
Q 1456 2553 1204 2497 
Q 953 2441 691 2322 
L 691 4666 
z
" transform="scale(0.015625)"/>
       </defs>
       <use xlink:href="#DejaVuSans-32"/>
       <use xlink:href="#DejaVuSans-30" transform="translate(63.623047 0)"/>
       <use xlink:href="#DejaVuSans-32" transform="translate(127.246094 0)"/>
       <use xlink:href="#DejaVuSans-35" transform="translate(190.869141 0)"/>
      </g>
     </g>
    </g>
   </g>
   <g id="matplotlib.axis_2">
    <g id="ytick_1">
     <g id="line2d_7">
      <defs>
       <path id="m555d75af80" d="M 0 0 
L -3.5 0 
" style="stroke: #000000; stroke-width: 0.8"/>
      </defs>
      <g>
       <use xlink:href="#m555d75af80" x="94.5" y="206.401112" style="stroke: #000000; stroke-width: 0.8"/>
      </g>
     </g>
     <g id="text_7">
      <!-- 150 -->
      <g transform="translate(68.4125 210.20033) scale(0.1 -0.1)">
       <use xlink:href="#DejaVuSans-31"/>
       <use xlink:href="#DejaVuSans-35" transform="translate(63.623047 0)"/>
       <use xlink:href="#DejaVuSans-30" transform="translate(127.246094 0)"/>
      </g>
     </g>
    </g>
    <g id="ytick_2">
     <g id="line2d_8">
      <g>
       <use xlink:href="#m555d75af80" x="94.5" y="184.654996" style="stroke: #000000; stroke-width: 0.8"/>
      </g>
     </g>
     <g id="text_8">
      <!-- 200 -->
      <g transform="translate(68.4125 188.454215) scale(0.1 -0.1)">
       <use xlink:href="#DejaVuSans-32"/>
       <use xlink:href="#DejaVuSans-30" transform="translate(63.623047 0)"/>
       <use xlink:href="#DejaVuSans-30" transform="translate(127.246094 0)"/>
      </g>
     </g>
    </g>
    <g id="ytick_3">
     <g id="line2d_9">
      <g>
       <use xlink:href="#m555d75af80" x="94.5" y="162.90888" style="stroke: #000000; stroke-width: 0.8"/>
      </g>
     </g>
     <g id="text_9">
      <!-- 250 -->
      <g transform="translate(68.4125 166.708099) scale(0.1 -0.1)">
       <use xlink:href="#DejaVuSans-32"/>
       <use xlink:href="#DejaVuSans-35" transform="translate(63.623047 0)"/>
       <use xlink:href="#DejaVuSans-30" transform="translate(127.246094 0)"/>
      </g>
     </g>
    </g>
    <g id="ytick_4">
     <g id="line2d_10">
      <g>
       <use xlink:href="#m555d75af80" x="94.5" y="141.162765" style="stroke: #000000; stroke-width: 0.8"/>
      </g>
     </g>
     <g id="text_10">
      <!-- 300 -->
      <g transform="translate(68.4125 144.961983) scale(0.1 -0.1)">
       <use xlink:href="#DejaVuSans-33"/>
       <use xlink:href="#DejaVuSans-30" transform="translate(63.623047 0)"/>
       <use xlink:href="#DejaVuSans-30" transform="translate(127.246094 0)"/>
      </g>
     </g>
    </g>
    <g id="ytick_5">
     <g id="line2d_11">
      <g>
       <use xlink:href="#m555d75af80" x="94.5" y="119.416649" style="stroke: #000000; stroke-width: 0.8"/>
      </g>
     </g>
     <g id="text_11">
      <!-- 350 -->
      <g transform="translate(68.4125 123.215868) scale(0.1 -0.1)">
       <use xlink:href="#DejaVuSans-33"/>
       <use xlink:href="#DejaVuSans-35" transform="translate(63.623047 0)"/>
       <use xlink:href="#DejaVuSans-30" transform="translate(127.246094 0)"/>
      </g>
     </g>
    </g>
    <g id="ytick_6">
     <g id="line2d_12">
      <g>
       <use xlink:href="#m555d75af80" x="94.5" y="97.670533" style="stroke: #000000; stroke-width: 0.8"/>
      </g>
     </g>
     <g id="text_12">
      <!-- 400 -->
      <g transform="translate(68.4125 101.469752) scale(0.1 -0.1)">
       <use xlink:href="#DejaVuSans-34"/>
       <use xlink:href="#DejaVuSans-30" transform="translate(63.623047 0)"/>
       <use xlink:href="#DejaVuSans-30" transform="translate(127.246094 0)"/>
      </g>
     </g>
    </g>
    <g id="ytick_7">
     <g id="line2d_13">
      <g>
       <use xlink:href="#m555d75af80" x="94.5" y="75.924418" style="stroke: #000000; stroke-width: 0.8"/>
      </g>
     </g>
     <g id="text_13">
      <!-- 450 -->
      <g transform="translate(68.4125 79.723636) scale(0.1 -0.1)">
       <use xlink:href="#DejaVuSans-34"/>
       <use xlink:href="#DejaVuSans-35" transform="translate(63.623047 0)"/>
       <use xlink:href="#DejaVuSans-30" transform="translate(127.246094 0)"/>
      </g>
     </g>
    </g>
    <g id="ytick_8">
     <g id="line2d_14">
      <g>
       <use xlink:href="#m555d75af80" x="94.5" y="54.178302" style="stroke: #000000; stroke-width: 0.8"/>
      </g>
     </g>
     <g id="text_14">
      <!-- 500 -->
      <g transform="translate(68.4125 57.977521) scale(0.1 -0.1)">
       <use xlink:href="#DejaVuSans-35"/>
       <use xlink:href="#DejaVuSans-30" transform="translate(63.623047 0)"/>
       <use xlink:href="#DejaVuSans-30" transform="translate(127.246094 0)"/>
      </g>
     </g>
    </g>
    <g id="ytick_9">
     <g id="line2d_15">
      <g>
       <use xlink:href="#m555d75af80" x="94.5" y="32.432186" style="stroke: #000000; stroke-width: 0.8"/>
      </g>
     </g>
     <g id="text_15">
      <!-- 550 -->
      <g transform="translate(68.4125 36.231405) scale(0.1 -0.1)">
       <use xlink:href="#DejaVuSans-35"/>
       <use xlink:href="#DejaVuSans-35" transform="translate(63.623047 0)"/>
       <use xlink:href="#DejaVuSans-30" transform="translate(127.246094 0)"/>
      </g>
     </g>
    </g>
   </g>
   <g id="line2d_16">
    <path d="M 121.131818 203.085473 
L 121.391261 202.663478 
L 121.650704 203.35854 
L 122.429033 204.50041 
L 123.207362 200.156317 
L 123.466805 201.21131 
L 124.245134 199.494357 
L 124.504576 197.119586 
L 124.764019 197.210604 
L 125.023462 195.667405 
L 125.282905 195.559849 
L 126.061234 193.569835 
L 126.320677 195.332294 
L 126.58012 195.220577 
L 126.839563 195.634316 
L 127.099006 194.955825 
L 128.396221 193.945667 
L 128.655664 195.132173 
L 128.915106 197.550758 
L 129.952878 201.915006 
L 130.212321 201.043834 
L 130.471764 206.01794 
L 131.509536 199.956933 
L 131.768979 203.391915 
L 132.028422 200.886194 
L 133.325637 209.154224 
L 133.585079 204.88122 
L 133.844522 207.905514 
L 134.103965 213.949923 
L 134.363408 205.74827 
L 135.141737 215.46 
L 135.40118 210.834365 
L 135.660623 213.394033 
L 135.920066 212.435718 
L 136.179509 214.659333 
L 136.957838 215.227693 
L 137.217281 210.100075 
L 137.476724 210.68918 
L 137.736167 206.876662 
L 137.99561 209.535889 
L 138.773938 205.16748 
L 139.033381 206.212917 
L 139.292824 208.536084 
L 139.552267 207.229306 
L 139.81171 207.82254 
L 140.590039 203.076613 
L 140.849482 203.815051 
L 141.108925 203.134675 
L 141.368368 203.13056 
L 142.40614 202.977061 
L 142.665583 199.579403 
L 142.925025 200.334424 
L 143.184468 198.193785 
L 143.443911 197.546611 
L 144.22224 199.015203 
L 144.481683 202.01874 
L 144.741126 199.654069 
L 145.000569 200.52526 
L 145.260012 199.226778 
L 146.038341 199.434212 
L 146.297784 201.193186 
L 146.557227 198.031996 
L 146.81667 197.293565 
L 147.076113 199.218483 
L 148.113884 196.650532 
L 148.63277 195.472341 
L 148.892213 195.024305 
L 149.670542 194.169705 
L 150.189428 197.069541 
L 150.448871 196.74593 
L 150.708314 195.654869 
L 151.486643 194.928888 
L 151.746086 195.459905 
L 152.005528 194.403239 
L 152.264971 195.33094 
L 152.524414 195.297645 
L 153.562186 196.104709 
L 153.821629 196.004885 
L 154.081072 196.175427 
L 154.340515 195.405812 
L 155.118844 195.580541 
L 155.378287 194.715249 
L 155.63773 194.528043 
L 155.897173 195.543112 
L 156.156616 193.762589 
L 156.934944 193.280017 
L 157.194387 192.680957 
L 157.45383 189.752266 
L 157.713273 194.149497 
L 157.972716 193.53794 
L 158.751045 193.038731 
L 159.010488 191.112619 
L 159.269931 190.833878 
L 159.529374 189.968559 
L 159.788817 190.455312 
L 160.826589 187.643089 
L 161.086032 189.336244 
L 161.345474 188.296229 
L 161.604917 189.964445 
L 162.383246 189.08665 
L 162.642689 186.977486 
L 164.199347 183.986373 
L 164.45879 185.00559 
L 164.718233 183.100269 
L 164.977676 182.480418 
L 165.237119 182.750824 
L 166.015447 185.49649 
L 166.27489 184.96398 
L 166.534333 185.092971 
L 166.793776 186.806911 
L 167.053219 187.23957 
L 167.831548 183.611955 
L 168.090991 184.797599 
L 168.350434 183.549553 
L 168.609877 187.380998 
L 168.86932 187.896852 
L 169.647649 186.836032 
L 169.907092 187.597318 
L 170.166535 186.748677 
L 170.425978 186.81522 
L 170.68542 186.35346 
L 171.463749 181.556891 
L 171.723192 182.908896 
L 171.982635 183.054518 
L 172.242078 181.635917 
L 172.501521 183.245872 
L 173.27985 185.00559 
L 173.539293 187.031559 
L 173.798736 184.614554 
L 174.058179 184.818404 
L 174.317622 184.73519 
L 175.09595 184.161109 
L 175.355393 183.657733 
L 175.614836 184.191497 
L 175.874279 182.156469 
L 176.133722 182.807001 
L 176.912051 182.527629 
L 177.171494 181.368298 
L 177.949823 176.180661 
L 178.728152 177.59015 
L 178.987595 176.864554 
L 179.247038 175.038034 
L 179.506481 181.022197 
L 180.803695 187.127296 
L 181.063138 183.528436 
L 181.322581 185.997179 
L 181.582024 186.555976 
L 182.360353 185.980495 
L 182.619796 184.575167 
L 183.138682 187.023045 
L 183.398125 188.073904 
L 184.176454 187.177354 
L 184.435896 185.142299 
L 184.695339 187.990504 
L 184.954782 186.906264 
L 185.214225 184.975494 
L 185.992554 184.299929 
L 186.251997 185.209022 
L 186.770883 183.040542 
L 187.030326 185.655226 
L 187.808655 183.907931 
L 188.068098 185.772 
L 188.327541 184.137285 
L 188.586984 183.824518 
L 188.846427 181.643549 
L 189.884198 178.703596 
L 190.403084 180.038034 
L 190.662527 180.038034 
L 191.440856 182.306597 
L 191.959742 182.064734 
L 192.219185 182.027192 
L 192.478628 181.468402 
L 193.256957 184.03302 
L 193.5164 182.711105 
L 193.775842 187.118947 
L 194.035285 186.268255 
L 194.294728 187.206521 
L 195.073057 187.264908 
L 195.3325 185.555149 
L 195.851386 178.524281 
L 196.110829 178.344959 
L 196.889158 180.567658 
L 197.148601 183.645203 
L 197.408044 181.334944 
L 197.667487 181.797845 
L 197.92693 181.351641 
L 198.705258 181.051391 
L 199.224144 183.385574 
L 199.483587 182.825304 
L 199.74303 183.674078 
L 200.521359 183.791124 
L 200.780802 182.223231 
L 201.040245 182.219057 
L 201.559131 181.650431 
L 202.33746 182.135438 
L 202.596903 181.240694 
L 203.115788 182.064349 
L 203.375231 182.014191 
L 204.15356 182.043458 
L 204.413003 181.324292 
L 204.672446 183.084521 
L 204.931889 183.619719 
L 205.191332 182.4741 
L 205.969661 182.08108 
L 206.229104 182.110346 
L 206.488547 179.957097 
L 206.74799 179.898564 
L 207.007433 180.245607 
L 208.045204 178.00872 
L 208.304647 179.22959 
L 208.56409 178.506276 
L 209.601862 177.582252 
L 209.861305 177.920914 
L 210.120748 178.953649 
L 210.380191 178.644254 
L 211.417963 180.621884 
L 211.677406 180.534091 
L 211.936849 182.896393 
L 212.196291 180.371028 
L 212.455734 179.814946 
L 213.234063 180.705502 
L 213.493506 181.775859 
L 213.752949 181.186335 
L 214.012392 182.574442 
L 214.271835 182.729136 
L 215.309607 181.144526 
L 215.56905 177.841496 
L 216.087936 177.168321 
L 216.866264 175.671517 
L 217.125707 174.500812 
L 217.38515 174.262512 
L 217.644593 171.741315 
L 217.904036 174.655499 
L 218.682365 171.440269 
L 218.941808 171.498808 
L 219.201251 170.039613 
L 219.460694 170.453557 
L 219.720137 170.374113 
L 220.498466 170.261208 
L 220.757909 169.717688 
L 221.017352 170.114883 
L 221.276794 169.416635 
L 221.536237 169.207589 
L 222.574009 169.746948 
L 222.833452 169.302741 
L 223.092895 169.474551 
L 223.352338 170.656326 
L 224.39011 173.883163 
L 224.649553 173.346757 
L 224.908996 175.676773 
L 225.168439 174.256135 
L 225.946767 172.345167 
L 226.20621 173.63173 
L 226.465653 176.276052 
L 226.725096 176.623872 
L 226.984539 174.582997 
L 227.762868 176.347294 
L 228.022311 173.669431 
L 228.281754 174.239384 
L 228.541197 172.265557 
L 228.80064 172.843865 
L 229.578969 173.237807 
L 229.838412 172.022492 
L 230.097855 172.303278 
L 230.357298 174.951794 
L 230.61674 175.10684 
L 231.654512 172.076977 
L 231.913955 172.965397 
L 232.173398 174.272905 
L 232.432841 172.537954 
L 233.21117 173.05759 
L 233.470613 174.478241 
L 233.730056 172.835463 
L 233.989499 170.078031 
L 235.027271 167.26188 
L 235.286713 167.768939 
L 235.546156 166.914033 
L 236.065042 164.420596 
L 236.843371 164.395444 
L 237.102814 163.314251 
L 237.362257 164.529539 
L 237.6217 162.890989 
L 237.881143 162.37134 
L 238.918915 163.410611 
L 239.178358 162.438374 
L 239.437801 163.867407 
L 239.697244 162.199523 
L 240.475572 162.031868 
L 240.735015 161.855885 
L 240.994458 164.961183 
L 241.253901 165.820277 
L 241.513344 165.958573 
L 242.291673 166.092654 
L 242.551116 167.798279 
L 242.810559 168.351435 
L 243.329445 165.841208 
L 244.107774 168.053919 
L 244.367216 168.452036 
L 244.626659 171.481905 
L 245.145545 167.647407 
L 245.923874 168.892062 
L 246.183317 169.772087 
L 246.44276 169.52007 
L 246.702203 168.108749 
L 246.961646 168.659005 
L 247.739975 166.302583 
L 247.999418 165.907738 
L 248.258861 166.004357 
L 248.518304 166.920039 
L 248.777747 166.764622 
L 249.815518 167.722305 
L 250.074961 167.76432 
L 250.334404 168.43216 
L 250.593847 166.298395 
L 251.372176 165.02987 
L 251.631619 165.55072 
L 251.891062 165.122275 
L 252.150505 163.589163 
L 253.188277 162.476035 
L 253.707162 163.530332 
L 253.966605 162.051797 
L 254.226048 162.66928 
L 255.004377 161.325146 
L 255.26382 160.115439 
L 255.523263 160.216285 
L 255.782706 159.61982 
L 256.042149 160.321293 
L 256.820478 158.767137 
L 257.079921 157.641447 
L 257.339364 157.851435 
L 257.598807 157.55739 
L 257.85825 155.016184 
L 258.896021 155.012017 
L 259.155464 154.058514 
L 259.414907 155.11281 
L 259.67435 154.894393 
L 260.452679 155.154805 
L 260.712122 153.617499 
L 260.971565 152.974818 
L 261.231008 153.596489 
L 261.490451 153.714072 
L 262.26878 155.285038 
L 262.787666 153.441051 
L 263.306551 149.967353 
L 264.08488 150.227792 
L 264.344323 151.282048 
L 264.603766 151.416462 
L 264.863209 151.298891 
L 265.122652 151.966738 
L 265.900981 152.004512 
L 266.160424 151.038453 
L 266.419867 151.294644 
L 266.67931 150.030359 
L 266.938753 150.055538 
L 267.717081 150.530212 
L 267.976524 151.324043 
L 268.235967 151.109834 
L 268.754853 148.631608 
L 269.533182 147.896548 
L 270.052068 149.288345 
L 270.570954 143.552262 
L 271.349283 143.430233 
L 271.608726 144.284521 
L 271.868169 144.54123 
L 272.127611 145.770077 
L 272.387054 145.504927 
L 273.165383 143.876304 
L 273.424826 144.595927 
L 273.684269 144.617031 
L 273.943712 144.903166 
L 274.203155 144.907346 
L 275.50037 145.298761 
L 275.759813 146.54445 
L 276.019256 147.192547 
L 276.797584 146.653871 
L 277.057027 145.475488 
L 277.31647 143.358706 
L 277.575913 143.190367 
L 277.835356 145.441815 
L 278.613685 147.785946 
L 278.873128 147.575519 
L 279.132571 145.984738 
L 279.392014 145.572313 
L 279.651457 145.660683 
L 280.429786 147.84063 
L 280.689229 152.322634 
L 280.948672 152.120609 
L 281.208115 152.995935 
L 281.467557 149.974295 
L 282.245886 152.495114 
L 282.764772 148.286728 
L 283.024215 147.554456 
L 283.283658 147.554456 
L 284.061987 147.815398 
L 284.32143 148.383513 
L 284.580873 146.940046 
L 284.840316 144.229824 
L 285.099759 143.615374 
L 286.13753 141.923587 
L 286.396973 142.268705 
L 286.656416 140.858871 
L 286.915859 141.532226 
L 287.694188 141.965688 
L 287.953631 141.132436 
L 288.213074 135.636233 
L 288.472517 135.139659 
L 288.73196 132.080138 
L 289.510289 133.027018 
L 289.769732 131.444651 
L 290.029175 131.078521 
L 290.288618 130.051673 
L 290.54806 130.21161 
L 291.326389 129.820235 
L 291.585832 130.257879 
L 291.845275 132.42523 
L 292.104718 131.739253 
L 292.364161 129.933824 
L 293.14249 130.207376 
L 293.401933 128.759674 
L 293.661376 128.66273 
L 294.180262 126.980485 
L 294.958591 128.363389 
L 295.218033 129.269867 
L 295.477476 129.172856 
L 295.996362 132.642718 
L 296.774691 129.71254 
L 297.034134 132.259055 
L 297.55302 132.722859 
L 297.812463 135.454874 
L 298.590792 134.114164 
L 298.850235 130.433464 
L 299.109678 130.412387 
L 299.369121 131.200817 
L 299.628564 127.220829 
L 300.406892 128.544669 
L 300.666335 133.2077 
L 300.925778 130.547345 
L 301.185221 134.658016 
L 301.444664 135.12182 
L 302.222993 136.761871 
L 302.741879 131.158662 
L 303.001322 130.530448 
L 304.039094 127.258802 
L 304.298537 127.764721 
L 304.557979 127.469561 
L 305.076865 129.843237 
L 305.855194 130.505164 
L 306.114637 132.925216 
L 306.37408 138.25016 
L 306.633523 139.304191 
L 307.671295 139.139781 
L 307.930738 138.840401 
L 308.190181 137.453316 
L 308.449624 143.132431 
L 308.709067 140.855699 
L 309.746838 144.038895 
L 310.006281 143.752177 
L 310.265724 144.481556 
L 310.525167 146.829948 
L 311.303496 146.686602 
L 311.562939 150.00891 
L 311.822382 146.543269 
L 312.081825 145.22357 
L 312.341268 141.673647 
L 313.119597 140.526839 
L 313.37904 141.462849 
L 313.638482 139.48125 
L 313.897925 144.629136 
L 314.157368 142.651784 
L 314.935697 144.755625 
L 315.19514 143.23361 
L 315.454583 140.429895 
L 315.973469 147.24731 
L 316.751798 147.264207 
L 317.011241 144.957995 
L 317.270684 145.105841 
L 317.530127 148.811042 
L 317.78957 149.993978 
L 318.827341 150.082694 
L 319.086784 153.230226 
L 319.346227 147.180243 
L 319.60567 146.031099 
L 320.383999 145.405819 
L 320.643442 147.028137 
L 320.902885 144.814357 
L 322.459543 155.0976 
L 322.718986 149.753171 
L 322.978428 150.982614 
L 323.237871 153.314694 
L 324.0162 154.84831 
L 324.535086 147.264724 
L 324.794529 146.914097 
L 325.053972 144.71294 
L 325.832301 145.249505 
L 326.091744 143.179351 
L 326.351187 145.110088 
L 326.61063 143.162414 
L 326.870073 143.339871 
L 327.648401 140.37403 
L 327.907844 138.384149 
L 328.167287 139.039041 
L 328.42673 141.383796 
L 328.686173 140.914816 
L 329.464502 138.570074 
L 329.723945 140.298017 
L 329.983388 145.105841 
L 330.242831 144.315805 
L 331.280603 151.122005 
L 331.540046 152.473957 
L 331.799489 150.124981 
L 332.058931 153.416098 
L 333.096703 153.124588 
L 333.356146 151.105122 
L 333.615589 150.657259 
L 334.134475 155.866478 
L 334.912804 153.04008 
L 335.172247 157.476161 
L 335.43169 151.983899 
L 335.691133 149.275762 
L 335.950576 154.392045 
L 336.728904 151.455776 
L 336.988347 152.59227 
L 337.24779 149.127877 
L 337.507233 154.463838 
L 337.766676 155.570748 
L 338.545005 159.858942 
L 338.804448 157.780359 
L 339.323334 163.758471 
L 339.582777 161.320779 
L 340.361106 161.160212 
L 340.620549 158.912594 
L 340.879992 164.045003 
L 341.398877 164.688687 
L 342.177206 161.26283 
L 342.436649 161.699 
L 342.955535 159.039641 
L 343.214978 155.931395 
L 344.25275 156.511535 
L 344.512193 156.278611 
L 344.771636 155.363958 
L 345.031079 157.294947 
L 345.809408 157.832747 
L 346.06885 156.244766 
L 346.328293 157.129794 
L 346.587736 159.509656 
L 346.847179 164.506597 
L 347.625508 169.050379 
L 347.884951 168.106068 
L 348.144394 165.027461 
L 348.403837 167.902789 
L 348.66328 166.76792 
L 349.701052 164.188993 
L 349.960495 164.447301 
L 350.219938 162.020839 
L 350.479381 158.277385 
L 351.257709 159.467329 
L 351.517152 163.02868 
L 351.776595 161.42797 
L 352.036038 162.880483 
L 352.295481 161.715956 
L 353.333253 160.331201 
L 353.852139 157.980991 
L 354.111582 158.294348 
L 354.889911 159.628275 
L 355.149353 164.218638 
L 355.408796 164.620922 
L 355.668239 164.045003 
L 355.927682 162.927064 
L 356.706011 163.973018 
L 356.965454 161.737113 
L 357.48434 159.488526 
L 357.743783 161.385637 
L 358.522112 162.033554 
L 358.781555 164.968158 
L 359.040998 157.837008 
L 359.300441 154.588987 
L 359.559884 152.755393 
L 360.338212 153.911438 
L 360.597655 155.262302 
L 360.857098 152.022789 
L 361.116541 151.523108 
L 362.154313 152.933221 
L 362.413756 152.094793 
L 362.673199 149.189808 
L 362.932642 150.095993 
L 363.192085 148.025254 
L 363.970414 147.364655 
L 364.748742 148.501256 
L 365.008185 150.207232 
L 365.786514 153.771915 
L 366.045957 154.327805 
L 366.3054 154.603653 
L 366.564843 153.305111 
L 366.824286 157.871265 
L 367.602615 159.084941 
L 368.121501 160.68058 
L 368.380944 161.134662 
L 368.640387 162.976372 
L 369.678158 164.168845 
L 369.937601 162.114929 
L 370.197044 161.932449 
L 370.456487 159.41173 
L 371.234816 158.482357 
L 371.494259 164.703552 
L 371.753702 164.605957 
L 372.013145 167.508607 
L 372.272588 167.780208 
L 373.050917 167.873555 
L 373.31036 168.752014 
L 373.569803 170.237284 
L 373.829245 169.375821 
L 374.088688 170.67439 
L 374.867017 170.873833 
L 375.12646 171.315173 
L 375.385903 169.337629 
L 375.904789 172.804697 
L 376.683118 169.47767 
L 376.942561 166.02333 
L 377.202004 165.887543 
L 377.461447 166.910264 
L 377.72089 172.236045 
L 378.499218 174.353643 
L 378.758661 175.983195 
L 379.018104 175.838913 
L 379.277547 172.236045 
L 379.53699 174.64644 
L 380.315319 170.839888 
L 380.574762 170.42824 
L 380.834205 171.285462 
L 381.093648 171.425509 
L 381.353091 168.892042 
L 382.13142 166.715061 
L 382.390863 165.26797 
L 382.650306 173.475184 
L 382.909748 175.414549 
L 383.169191 171.544334 
L 383.94752 173.131459 
L 384.206963 174.811952 
L 384.725849 180.71912 
L 384.985292 177.689151 
L 385.763621 174.939258 
L 386.023064 174.514887 
L 386.282507 176.365119 
L 386.54195 168.5271 
L 386.801393 166.774463 
L 387.579721 169.133918 
L 388.098607 168.768466 
L 388.35805 168.789729 
L 388.617493 168.985482 
L 389.395822 168.632267 
L 389.914708 166.278911 
L 390.433594 166.31721 
L 391.471366 169.364247 
L 391.730809 163.06167 
L 391.990252 163.253189 
L 392.249694 163.112743 
L 393.028023 165.163951 
L 393.287466 167.325801 
L 393.546909 167.644965 
L 393.806352 166.355528 
L 394.065795 167.198124 
L 394.844124 164.180903 
L 395.103567 162.304179 
L 395.36301 162.176508 
L 395.622453 165.670374 
L 395.881896 167.508793 
L 396.660225 169.31318 
L 396.919667 168.738662 
L 397.17911 167.619441 
L 397.438553 170.274946 
L 397.697996 170.045134 
L 398.735768 170.798384 
L 398.995211 171.832506 
L 399.254654 169.074861 
L 399.514097 169.581277 
L 400.551869 169.683418 
L 401.070755 177.032866 
L 401.330197 175.917893 
L 402.108526 174.985912 
L 402.367969 174.249684 
L 402.627412 171.304807 
L 402.886855 170.13876 
L 403.146298 169.832352 
L 404.18407 169.355733 
L 404.702956 172.938958 
L 404.962399 169.411047 
L 405.740728 168.406729 
L 406.00017 168.636534 
L 406.259613 169.245091 
L 406.519056 166.10018 
L 406.778499 166.032097 
L 407.556828 168.351395 
L 408.075714 164.078769 
L 408.335157 159.035858 
L 408.5946 161.695629 
L 409.372929 162.368015 
L 409.632372 157.776192 
L 409.891815 158.129433 
L 410.151258 159.452902 
L 410.410701 159.674212 
L 411.189029 156.176092 
L 411.448472 155.814356 
L 411.707915 156.740132 
L 412.226801 161.543988 
L 413.524016 164.338385 
L 413.783459 162.947557 
L 414.042902 165.315361 
L 414.821231 164.914317 
L 415.080674 165.23003 
L 415.340116 166.573898 
L 415.859002 162.725729 
L 416.637331 162.051671 
L 416.896774 163.212084 
L 417.156217 163.404068 
L 417.41566 163.992802 
L 417.675103 165.584134 
L 418.453432 163.310196 
L 419.491204 152.426931 
L 420.269532 155.49865 
L 420.528975 154.837374 
L 420.788418 155.473047 
L 421.047861 153.182073 
L 421.307304 151.940564 
L 422.345076 154.218783 
L 422.863962 150.455911 
L 423.123405 148.642757 
L 423.901734 149.099261 
L 424.161177 149.120577 
L 424.420619 150.332195 
L 424.680062 147.234874 
L 425.717834 148.177732 
L 425.977277 150.976429 
L 426.23672 150.694834 
L 426.496163 147.985768 
L 426.755606 149.564259 
L 427.533935 148.42945 
L 427.793378 148.61288 
L 428.052821 148.578756 
L 428.312264 149.577054 
L 428.571707 149.726386 
L 429.350035 151.428633 
L 429.609478 154.137713 
L 429.868921 145.626479 
L 430.128364 141.590613 
L 430.387807 140.553863 
L 431.166136 141.279167 
L 431.425579 141.343168 
L 431.685022 141.774056 
L 431.944465 141.343168 
L 432.203908 139.107648 
L 432.982237 139.960915 
L 433.24168 140.66481 
L 433.501123 138.399439 
L 433.760565 139.338037 
L 434.020008 139.824351 
L 434.798337 139.615318 
L 435.317223 137.385585 
L 435.576666 135.452989 
L 435.836109 135.529984 
L 436.614438 134.315698 
L 436.873881 136.84683 
L 437.133324 137.449719 
L 437.65221 129.308968 
L 438.689981 130.027264 
L 438.949424 131.232976 
L 439.46831 128.235771 
L 440.246639 128.004905 
L 440.506082 128.971203 
L 440.765525 133.37507 
L 441.284411 131.917082 
L 442.322183 128.710406 
L 442.581626 127.406356 
L 442.841069 122.805773 
L 443.100511 125.272797 
L 444.138283 127.102767 
L 444.397726 129.022502 
L 444.657169 126.393019 
L 444.916612 128.398257 
L 445.694941 131.143199 
L 445.954384 128.590685 
L 446.213827 128.043396 
L 446.47327 128.385435 
L 446.732713 126.038118 
L 447.511041 127.128397 
L 448.029927 127.060002 
L 448.28937 125.726035 
L 448.548813 127.457655 
L 449.327142 129.762194 
L 449.586585 129.488536 
L 450.364914 124.028607 
L 451.143243 123.819096 
L 451.402686 117.935885 
L 451.662129 119.821416 
L 451.921572 123.331667 
L 452.181014 124.657099 
L 452.959343 124.08418 
L 453.218786 121.574417 
L 453.478229 127.222501 
L 453.737672 130.236775 
L 453.997115 126.965938 
L 454.775444 128.013452 
L 455.034887 127.833885 
L 455.29433 131.613507 
L 455.553773 131.972682 
L 455.813216 131.493813 
L 456.591545 130.497585 
L 457.11043 133.86676 
L 457.369873 133.567459 
L 457.629316 134.38838 
L 458.407645 133.092851 
L 458.667088 134.024971 
L 458.926531 134.359153 
L 459.185974 135.867352 
L 459.445417 136.03873 
L 460.223746 133.725033 
L 460.483189 133.476514 
L 460.742632 131.531282 
L 461.002075 134.543393 
L 461.261518 133.253703 
L 462.039846 132.945218 
L 462.299289 130.927158 
L 462.558732 130.764328 
L 462.818175 131.205648 
L 463.077618 130.820047 
L 464.11539 128.724833 
L 464.374833 129.01191 
L 464.634276 130.284451 
L 464.893719 128.416334 
L 465.672048 126.843869 
L 465.931491 129.487514 
L 466.450376 126.518261 
L 466.709819 130.151617 
L 467.747591 130.824308 
L 468.007034 134.200636 
L 468.266477 134.731946 
L 468.52592 135.811646 
L 469.304249 135.584562 
L 469.563692 137.898286 
L 470.082578 137.255578 
L 471.120349 133.759303 
L 471.379792 137.362676 
L 471.639235 134.976125 
L 471.898678 134.80476 
L 472.158121 131.41987 
L 472.93645 130.323008 
L 473.195893 130.935693 
L 473.455336 129.208984 
L 473.714779 129.748881 
L 473.974222 131.218509 
L 474.752551 129.114761 
L 475.011994 129.363254 
L 475.271436 130.198748 
L 475.530879 129.680301 
L 475.790322 131.672664 
L 476.828094 130.018809 
L 477.087537 125.674152 
L 477.34698 131.149929 
L 477.606423 130.327282 
L 478.384752 127.11381 
L 478.644195 126.771028 
L 478.903638 123.360455 
L 479.163081 122.3964 
L 479.422524 120.476892 
L 480.200852 118.87869 
L 480.719738 116.020836 
L 480.979181 117.096289 
L 481.238624 113.248657 
L 482.016953 114.529772 
L 482.276396 112.99159 
L 482.535839 112.927178 
L 482.795282 110.136497 
L 483.054725 112.849903 
L 483.833054 109.591251 
L 484.092497 111.467424 
L 484.35194 109.415228 
L 484.870825 109.595565 
L 485.649154 109.08893 
L 485.908597 107.332941 
L 486.16804 108.985906 
L 486.427483 108.960131 
L 486.686926 110.849218 
L 487.465255 113.154726 
L 487.724698 111.7036 
L 487.984141 113.300713 
L 488.243584 112.377645 
L 488.503027 110.969417 
L 489.281355 112.227397 
L 489.540798 110.90503 
L 489.800241 110.909304 
L 490.059684 114.532891 
L 490.319127 112.472094 
L 491.356899 111.38589 
L 491.616342 112.519318 
L 491.875785 111.265665 
L 492.135228 110.819169 
L 493.173 110.784792 
L 493.432443 111.038103 
L 493.951328 110.192335 
L 494.9891 112.411981 
L 495.248543 112.527906 
L 495.507986 113.669935 
L 495.767429 113.75151 
L 496.545758 110.771918 
L 496.805201 110.299632 
L 497.064644 107.302905 
L 497.324087 106.504349 
L 497.58353 104.855684 
L 498.621301 104.08289 
L 498.880744 104.426363 
L 499.39963 100.476464 
L 500.177959 101.403833 
L 500.437402 100.377715 
L 500.956288 97.814583 
L 501.215731 98.218168 
L 501.99406 95.732323 
L 502.253503 96.217483 
L 502.512946 100.944436 
L 503.031831 95.088302 
L 503.81016 97.479711 
L 504.069603 97.548411 
L 504.329046 93.873312 
L 504.588489 93.847549 
L 504.847932 91.082631 
L 505.626261 93.353789 
L 505.885704 97.19205 
L 506.145147 95.505943 
L 506.664033 97.841566 
L 507.701804 98.387821 
L 507.961247 98.65021 
L 508.22069 94.576888 
L 508.480133 95.140344 
L 509.258462 96.344703 
L 509.517905 96.370531 
L 509.777348 96.267282 
L 510.036791 93.720914 
L 510.296234 92.920884 
L 511.074563 93.170346 
L 511.334006 98.448053 
L 511.593449 98.6889 
L 511.852892 95.656496 
L 512.112334 96.912472 
L 512.890663 97.643709 
L 513.150106 93.015505 
L 513.409549 93.092939 
L 513.668992 88.740026 
L 513.928435 92.525156 
L 514.706764 92.138056 
L 515.485093 86.95501 
L 515.744536 87.225974 
L 516.782307 90.275593 
L 517.04175 90.370228 
L 517.301193 90.675608 
L 518.338965 89.019604 
L 518.598408 90.365914 
L 518.857851 90.791745 
L 519.117294 91.897168 
L 519.376737 88.610988 
L 520.155066 89.011016 
L 520.414509 88.284106 
L 520.673952 89.583086 
L 520.933395 87.574384 
L 521.192838 90.168057 
L 521.971166 93.720914 
L 522.230609 93.316612 
L 522.490052 94.495168 
L 523.008938 99.966378 
L 523.787267 99.174963 
L 524.04671 96.331801 
L 524.306153 95.690912 
L 524.565596 100.000808 
L 524.825039 96.869455 
L 525.603368 98.620108 
L 525.862811 104.177366 
L 526.122253 101.764335 
L 526.381696 100.516973 
L 526.641139 96.723229 
L 527.419468 93.763917 
L 527.678911 95.570475 
L 527.938354 95.054323 
L 528.45724 93.247779 
L 529.235569 93.686524 
L 529.495012 92.464937 
L 529.754455 89.332257 
L 530.013898 90.232868 
L 530.273341 90.568961 
L 531.051669 88.358407 
L 531.311112 86.764055 
L 531.570555 86.126338 
L 531.829998 87.643111 
L 532.089441 86.28147 
L 533.127213 86.212504 
L 533.386656 86.70803 
L 533.646099 92.956163 
L 533.905542 92.757947 
L 534.683871 93.451715 
L 534.943314 92.352902 
L 535.202756 88.931525 
L 535.462199 88.711755 
L 535.721642 89.000464 
L 536.499971 87.268234 
L 536.759414 85.195558 
L 537.018857 81.584606 
L 537.2783 81.360535 
L 537.537743 80.933922 
L 538.316072 78.434684 
L 538.575515 79.309413 
L 539.094401 79.585182 
L 539.353844 77.827123 
L 540.132172 78.736295 
L 540.391615 77.322957 
L 540.910501 76.504226 
L 541.169944 79.046573 
L 542.207716 73.73352 
L 542.467159 73.091463 
L 542.986045 70.165613 
L 543.764374 70.734404 
L 544.023817 73.621472 
L 544.28326 70.730117 
L 544.542702 75.707036 
L 544.802145 76.202615 
L 545.580474 76.025928 
L 546.618246 83.286667 
L 547.656018 79.951471 
L 548.174904 91.348883 
L 548.434347 88.388589 
L 549.212675 87.75946 
L 549.731561 91.370438 
L 549.991004 91.904773 
L 550.250447 95.619159 
L 551.028776 101.367439 
L 551.288219 99.445595 
L 551.547662 99.954061 
L 552.066548 96.68349 
L 552.844877 96.343083 
L 553.10432 93.240559 
L 553.363763 92.012495 
L 553.623206 89.888625 
L 553.882648 90.99373 
L 554.660977 89.672783 
L 554.92042 88.261171 
L 555.179863 88.546071 
L 555.439306 92.254245 
L 555.698749 91.718954 
L 556.477078 93.143495 
L 556.736521 92.992411 
L 556.995964 94.391069 
L 557.255407 93.303219 
L 557.51485 91.567844 
L 558.552621 94.891798 
L 559.071507 95.345063 
L 559.33095 98.233007 
L 560.109279 96.497658 
L 560.628165 89.020931 
L 561.147051 85.761748 
L 561.92538 85.437985 
L 562.184823 83.793289 
L 562.444266 85.666768 
L 562.703709 82.265115 
L 562.963151 83.741499 
L 563.74148 84.501232 
L 564.000923 86.374724 
L 564.260366 85.105595 
L 564.519809 85.450939 
L 564.779252 86.871179 
L 565.557581 85.886937 
L 565.817024 90.035382 
L 566.076467 91.572171 
L 566.595353 92.034063 
L 567.373682 94.848635 
L 567.633124 92.616844 
L 567.892567 91.429727 
L 568.15201 92.129057 
L 568.411453 91.921829 
L 569.189782 90.704503 
L 569.449225 90.877182 
L 569.708668 92.008181 
L 569.968111 91.749163 
L 570.227554 91.127546 
L 571.005883 90.859901 
L 571.265326 87.091321 
L 571.524769 88.34751 
L 571.784212 88.291393 
L 572.043655 86.815049 
L 572.821983 87.488469 
L 573.081426 85.174653 
L 573.340869 84.924275 
L 573.600312 96.225699 
L 573.859755 94.490336 
L 574.638084 95.314855 
L 574.897527 94.019817 
L 575.416413 87.989225 
L 575.675856 89.236786 
L 576.454185 91.192291 
L 576.713628 89.025258 
L 577.232513 87.358954 
L 577.491956 92.491656 
L 578.270285 92.163579 
L 578.529728 91.287257 
L 579.048614 93.054395 
L 579.308057 91.267972 
L 580.086386 90.493718 
L 580.345829 86.514301 
L 580.605272 88.677033 
L 581.124158 88.473734 
L 581.902486 85.220988 
L 582.161929 85.125836 
L 582.680815 80.18616 
L 583.718587 78.71551 
L 583.97803 79.879054 
L 584.237473 77.430838 
L 584.496916 77.184283 
L 584.756359 78.17483 
L 585.534688 76.306222 
L 585.794131 75.064833 
L 586.053573 82.448372 
L 586.572459 82.790066 
L 587.350788 83.374015 
L 587.610231 81.60924 
L 588.129117 82.136939 
L 588.38856 85.415647 
L 589.166889 87.881145 
L 589.426332 89.321519 
L 589.945218 90.584557 
L 590.204661 88.521304 
L 590.982989 86.574851 
L 591.242432 88.94521 
L 591.501875 87.997945 
L 592.020761 90.4245 
L 592.79909 91.185787 
L 593.058533 91.843254 
L 593.317976 87.240985 
L 593.577419 87.989291 
L 593.836862 86.06446 
L 594.874634 86.293694 
L 595.134077 78.637638 
L 595.393519 78.417058 
L 595.652962 79.563295 
L 596.431291 83.672467 
L 596.690734 78.205092 
L 596.950177 80.311601 
L 597.20962 92.137392 
L 597.469063 92.107117 
L 598.247392 93.89784 
L 599.025721 91.77839 
L 599.285164 94.403931 
L 600.063492 93.335539 
L 600.322935 93.672919 
L 600.582378 94.711036 
L 600.841821 94.062223 
L 601.101264 94.974899 
L 602.139036 94.4515 
L 602.398479 92.232558 
L 602.657922 91.283368 
L 602.917365 94.716013 
L 603.695694 96.540675 
L 603.955137 99.184492 
L 604.21458 98.391338 
L 604.474022 101.511927 
L 604.733465 99.578906 
L 605.511794 103.262911 
L 605.771237 103.210908 
L 606.03068 97.832249 
L 607.327895 106.873239 
L 607.587338 106.747532 
L 607.846781 105.525322 
L 608.106224 107.47569 
L 608.365667 103.23257 
L 609.143995 103.171886 
L 609.403438 105.416963 
L 609.662881 103.553293 
L 609.922324 103.978035 
L 610.181767 102.062349 
L 610.960096 101.273548 
L 611.219539 100.372034 
L 611.478982 102.621451 
L 611.738425 102.357084 
L 611.997868 107.462683 
L 612.776197 108.940606 
L 613.03564 105.993413 
L 613.295083 106.015074 
L 613.554526 109.928804 
L 613.813968 115.68019 
L 614.592297 116.538341 
L 614.85174 117.968602 
L 615.111183 102.396079 
L 615.370626 106.357472 
L 615.630069 103.280245 
L 616.408398 103.557633 
L 616.667841 104.45912 
L 616.927284 110.578918 
L 617.186727 112.238891 
L 618.224499 115.992246 
L 618.743384 109.374016 
L 619.002827 103.778678 
L 619.26227 101.806636 
L 620.040599 102.105684 
L 620.300042 100.85746 
L 620.559485 100.328699 
L 620.818928 87.265646 
L 621.078371 82.983517 
L 621.8567 82.597783 
L 622.116143 83.837341 
L 622.375586 83.820007 
L 622.635029 81.730952 
L 622.894472 81.488246 
L 623.6728 76.924402 
L 623.932243 76.976405 
L 624.191686 75.329452 
L 624.710572 74.391558 
L 625.488901 72.394204 
L 625.748344 72.698138 
L 626.007787 75.12971 
L 626.26723 74.13538 
L 626.526673 76.167469 
L 627.564444 71.603943 
L 627.823887 73.049853 
L 628.342773 71.747236 
L 629.121102 71.048146 
L 629.639988 70.223163 
L 630.158874 67.39646 
L 630.937203 66.367382 
L 631.196646 67.161983 
L 631.456089 66.423831 
L 631.715532 63.710026 
L 631.974975 65.407787 
L 632.753303 63.592788 
L 633.012746 64.070422 
L 633.272189 63.115167 
L 633.791075 64.348314 
L 635.08829 57.89164 
L 635.347733 55.642435 
L 635.607176 56.298084 
L 636.385505 55.659796 
L 636.644948 57.987164 
L 636.90439 58.403995 
L 637.163833 55.038882 
L 638.201605 55.525197 
L 638.461048 56.002831 
L 638.720491 53.011121 
L 638.979934 53.892566 
L 639.239377 53.093624 
L 640.017706 53.223897 
L 640.277149 52.00811 
L 640.536592 52.094954 
L 640.796035 49.454959 
L 641.055478 50.17141 
L 641.833806 50.16707 
L 642.093249 52.246927 
L 642.352692 51.986396 
L 642.612135 49.811015 
L 642.871578 48.582181 
L 643.649907 49.107597 
L 643.90935 49.077203 
L 644.168793 48.78629 
L 644.428236 39.989227 
L 644.687679 44.066438 
L 645.466008 39.06 
L 645.725451 42.485916 
L 645.984894 43.706029 
L 646.244336 45.48628 
L 646.503779 44.965244 
L 647.282108 45.082469 
L 647.541551 41.838948 
L 647.800994 45.599178 
L 648.060437 44.774195 
L 648.31988 45.777219 
L 649.098209 47.110257 
L 649.357652 50.292989 
L 649.617095 52.051526 
L 649.876538 52.334236 
L 650.135981 51.033809 
L 650.914309 52.325529 
L 651.173752 53.291057 
L 651.692638 49.985645 
L 651.952081 51.268671 
L 652.989853 51.951502 
L 653.249296 51.851465 
L 653.508739 50.711971 
L 653.768182 56.352914 
L 653.768182 56.352914 
" clip-path="url(#p1fa2e3012f)" style="fill: none; stroke: #1f77b4; stroke-width: 1.5; stroke-linecap: square"/>
   </g>
   <g id="patch_3">
    <path d="M 94.5 224.28 
L 94.5 30.24 
" style="fill: none; stroke: #000000; stroke-width: 0.8; stroke-linejoin: miter; stroke-linecap: square"/>
   </g>
   <g id="patch_4">
    <path d="M 94.5 224.28 
L 680.4 224.28 
" style="fill: none; stroke: #000000; stroke-width: 0.8; stroke-linejoin: miter; stroke-linecap: square"/>
   </g>
  </g>
 </g>
 <defs>
  <clipPath id="p1fa2e3012f">
   <rect x="94.5" y="30.24" width="585.9" height="194.04"/>
  </clipPath>
 </defs>
</svg>
