<?xml version="1.0" encoding="utf-8" standalone="no"?>
<!DOCTYPE svg PUBLIC "-//W3C//DTD SVG 1.1//EN"
  "http://www.w3.org/Graphics/SVG/1.1/DTD/svg11.dtd">
<svg xmlns:xlink="http://www.w3.org/1999/xlink" width="756pt" height="252pt" viewBox="0 0 756 252" xmlns="http://www.w3.org/2000/svg" version="1.1">
 <metadata>
  <rdf:RDF xmlns:dc="http://purl.org/dc/elements/1.1/" xmlns:cc="http://creativecommons.org/ns#" xmlns:rdf="http://www.w3.org/1999/02/22-rdf-syntax-ns#">
   <cc:Work>
    <dc:type rdf:resource="http://purl.org/dc/dcmitype/StillImage"/>
    <dc:date>2025-09-05T16:12:26.977450</dc:date>
    <dc:format>image/svg+xml</dc:format>
    <dc:creator>
     <cc:Agent>
      <dc:title>Matplotlib v3.10.5, https://matplotlib.org/</dc:title>
     </cc:Agent>
    </dc:creator>
   </cc:Work>
  </rdf:RDF>
 </metadata>
 <defs>
  <style type="text/css">*{stroke-linejoin: round; stroke-linecap: butt}</style>
 </defs>
 <g id="figure_1">
  <g id="patch_1">
   <path d="M 0 252 
L 756 252 
L 756 0 
L 0 0 
z
" style="fill: #ffffff"/>
  </g>
  <g id="axes_1">
   <g id="patch_2">
    <path d="M 94.5 224.28 
L 680.4 224.28 
L 680.4 30.24 
L 94.5 30.24 
z
" style="fill: #ffffff"/>
   </g>
   <g id="matplotlib.axis_1">
    <g id="xtick_1">
     <g id="line2d_1">
      <defs>
       <path id="maceb8db052" d="M 0 0 
L 0 3.5 
" style="stroke: #000000; stroke-width: 0.8"/>
      </defs>
      <g>
       <use xlink:href="#maceb8db052" x="124.021346" y="224.28" style="stroke: #000000; stroke-width: 0.8"/>
      </g>
     </g>
     <g id="text_1">
      <!-- 2024-03 -->
      <g transform="translate(103.12994 238.878438) scale(0.1 -0.1)">
       <defs>
        <path id="DejaVuSans-32" d="M 1228 531 
L 3431 531 
L 3431 0 
L 469 0 
L 469 531 
Q 828 903 1448 1529 
Q 2069 2156 2228 2338 
Q 2531 2678 2651 2914 
Q 2772 3150 2772 3378 
Q 2772 3750 2511 3984 
Q 2250 4219 1831 4219 
Q 1534 4219 1204 4116 
Q 875 4013 500 3803 
L 500 4441 
Q 881 4594 1212 4672 
Q 1544 4750 1819 4750 
Q 2544 4750 2975 4387 
Q 3406 4025 3406 3419 
Q 3406 3131 3298 2873 
Q 3191 2616 2906 2266 
Q 2828 2175 2409 1742 
Q 1991 1309 1228 531 
z
" transform="scale(0.015625)"/>
        <path id="DejaVuSans-30" d="M 2034 4250 
Q 1547 4250 1301 3770 
Q 1056 3291 1056 2328 
Q 1056 1369 1301 889 
Q 1547 409 2034 409 
Q 2525 409 2770 889 
Q 3016 1369 3016 2328 
Q 3016 3291 2770 3770 
Q 2525 4250 2034 4250 
z
M 2034 4750 
Q 2819 4750 3233 4129 
Q 3647 3509 3647 2328 
Q 3647 1150 3233 529 
Q 2819 -91 2034 -91 
Q 1250 -91 836 529 
Q 422 1150 422 2328 
Q 422 3509 836 4129 
Q 1250 4750 2034 4750 
z
" transform="scale(0.015625)"/>
        <path id="DejaVuSans-34" d="M 2419 4116 
L 825 1625 
L 2419 1625 
L 2419 4116 
z
M 2253 4666 
L 3047 4666 
L 3047 1625 
L 3713 1625 
L 3713 1100 
L 3047 1100 
L 3047 0 
L 2419 0 
L 2419 1100 
L 313 1100 
L 313 1709 
L 2253 4666 
z
" transform="scale(0.015625)"/>
        <path id="DejaVuSans-2d" d="M 313 2009 
L 1997 2009 
L 1997 1497 
L 313 1497 
L 313 2009 
z
" transform="scale(0.015625)"/>
        <path id="DejaVuSans-33" d="M 2597 2516 
Q 3050 2419 3304 2112 
Q 3559 1806 3559 1356 
Q 3559 666 3084 287 
Q 2609 -91 1734 -91 
Q 1441 -91 1130 -33 
Q 819 25 488 141 
L 488 750 
Q 750 597 1062 519 
Q 1375 441 1716 441 
Q 2309 441 2620 675 
Q 2931 909 2931 1356 
Q 2931 1769 2642 2001 
Q 2353 2234 1838 2234 
L 1294 2234 
L 1294 2753 
L 1863 2753 
Q 2328 2753 2575 2939 
Q 2822 3125 2822 3475 
Q 2822 3834 2567 4026 
Q 2313 4219 1838 4219 
Q 1578 4219 1281 4162 
Q 984 4106 628 3988 
L 628 4550 
Q 988 4650 1302 4700 
Q 1616 4750 1894 4750 
Q 2613 4750 3031 4423 
Q 3450 4097 3450 3541 
Q 3450 3153 3228 2886 
Q 3006 2619 2597 2516 
z
" transform="scale(0.015625)"/>
       </defs>
       <use xlink:href="#DejaVuSans-32"/>
       <use xlink:href="#DejaVuSans-30" transform="translate(63.623047 0)"/>
       <use xlink:href="#DejaVuSans-32" transform="translate(127.246094 0)"/>
       <use xlink:href="#DejaVuSans-34" transform="translate(190.869141 0)"/>
       <use xlink:href="#DejaVuSans-2d" transform="translate(254.492188 0)"/>
       <use xlink:href="#DejaVuSans-30" transform="translate(290.576172 0)"/>
       <use xlink:href="#DejaVuSans-33" transform="translate(354.199219 0)"/>
      </g>
     </g>
    </g>
    <g id="xtick_2">
     <g id="line2d_2">
      <g>
       <use xlink:href="#maceb8db052" x="182.775086" y="224.28" style="stroke: #000000; stroke-width: 0.8"/>
      </g>
     </g>
     <g id="text_2">
      <!-- 2024-05 -->
      <g transform="translate(161.88368 238.878438) scale(0.1 -0.1)">
       <defs>
        <path id="DejaVuSans-35" d="M 691 4666 
L 3169 4666 
L 3169 4134 
L 1269 4134 
L 1269 2991 
Q 1406 3038 1543 3061 
Q 1681 3084 1819 3084 
Q 2600 3084 3056 2656 
Q 3513 2228 3513 1497 
Q 3513 744 3044 326 
Q 2575 -91 1722 -91 
Q 1428 -91 1123 -41 
Q 819 9 494 109 
L 494 744 
Q 775 591 1075 516 
Q 1375 441 1709 441 
Q 2250 441 2565 725 
Q 2881 1009 2881 1497 
Q 2881 1984 2565 2268 
Q 2250 2553 1709 2553 
Q 1456 2553 1204 2497 
Q 953 2441 691 2322 
L 691 4666 
z
" transform="scale(0.015625)"/>
       </defs>
       <use xlink:href="#DejaVuSans-32"/>
       <use xlink:href="#DejaVuSans-30" transform="translate(63.623047 0)"/>
       <use xlink:href="#DejaVuSans-32" transform="translate(127.246094 0)"/>
       <use xlink:href="#DejaVuSans-34" transform="translate(190.869141 0)"/>
       <use xlink:href="#DejaVuSans-2d" transform="translate(254.492188 0)"/>
       <use xlink:href="#DejaVuSans-30" transform="translate(290.576172 0)"/>
       <use xlink:href="#DejaVuSans-35" transform="translate(354.199219 0)"/>
      </g>
     </g>
    </g>
    <g id="xtick_3">
     <g id="line2d_3">
      <g>
       <use xlink:href="#maceb8db052" x="241.528826" y="224.28" style="stroke: #000000; stroke-width: 0.8"/>
      </g>
     </g>
     <g id="text_3">
      <!-- 2024-07 -->
      <g transform="translate(220.63742 238.878438) scale(0.1 -0.1)">
       <defs>
        <path id="DejaVuSans-37" d="M 525 4666 
L 3525 4666 
L 3525 4397 
L 1831 0 
L 1172 0 
L 2766 4134 
L 525 4134 
L 525 4666 
z
" transform="scale(0.015625)"/>
       </defs>
       <use xlink:href="#DejaVuSans-32"/>
       <use xlink:href="#DejaVuSans-30" transform="translate(63.623047 0)"/>
       <use xlink:href="#DejaVuSans-32" transform="translate(127.246094 0)"/>
       <use xlink:href="#DejaVuSans-34" transform="translate(190.869141 0)"/>
       <use xlink:href="#DejaVuSans-2d" transform="translate(254.492188 0)"/>
       <use xlink:href="#DejaVuSans-30" transform="translate(290.576172 0)"/>
       <use xlink:href="#DejaVuSans-37" transform="translate(354.199219 0)"/>
      </g>
     </g>
    </g>
    <g id="xtick_4">
     <g id="line2d_4">
      <g>
       <use xlink:href="#maceb8db052" x="301.245742" y="224.28" style="stroke: #000000; stroke-width: 0.8"/>
      </g>
     </g>
     <g id="text_4">
      <!-- 2024-09 -->
      <g transform="translate(280.354336 238.878438) scale(0.1 -0.1)">
       <defs>
        <path id="DejaVuSans-39" d="M 703 97 
L 703 672 
Q 941 559 1184 500 
Q 1428 441 1663 441 
Q 2288 441 2617 861 
Q 2947 1281 2994 2138 
Q 2813 1869 2534 1725 
Q 2256 1581 1919 1581 
Q 1219 1581 811 2004 
Q 403 2428 403 3163 
Q 403 3881 828 4315 
Q 1253 4750 1959 4750 
Q 2769 4750 3195 4129 
Q 3622 3509 3622 2328 
Q 3622 1225 3098 567 
Q 2575 -91 1691 -91 
Q 1453 -91 1209 -44 
Q 966 3 703 97 
z
M 1959 2075 
Q 2384 2075 2632 2365 
Q 2881 2656 2881 3163 
Q 2881 3666 2632 3958 
Q 2384 4250 1959 4250 
Q 1534 4250 1286 3958 
Q 1038 3666 1038 3163 
Q 1038 2656 1286 2365 
Q 1534 2075 1959 2075 
z
" transform="scale(0.015625)"/>
       </defs>
       <use xlink:href="#DejaVuSans-32"/>
       <use xlink:href="#DejaVuSans-30" transform="translate(63.623047 0)"/>
       <use xlink:href="#DejaVuSans-32" transform="translate(127.246094 0)"/>
       <use xlink:href="#DejaVuSans-34" transform="translate(190.869141 0)"/>
       <use xlink:href="#DejaVuSans-2d" transform="translate(254.492188 0)"/>
       <use xlink:href="#DejaVuSans-30" transform="translate(290.576172 0)"/>
       <use xlink:href="#DejaVuSans-39" transform="translate(354.199219 0)"/>
      </g>
     </g>
    </g>
    <g id="xtick_5">
     <g id="line2d_5">
      <g>
       <use xlink:href="#maceb8db052" x="359.999482" y="224.28" style="stroke: #000000; stroke-width: 0.8"/>
      </g>
     </g>
     <g id="text_5">
      <!-- 2024-11 -->
      <g transform="translate(339.108076 238.878438) scale(0.1 -0.1)">
       <defs>
        <path id="DejaVuSans-31" d="M 794 531 
L 1825 531 
L 1825 4091 
L 703 3866 
L 703 4441 
L 1819 4666 
L 2450 4666 
L 2450 531 
L 3481 531 
L 3481 0 
L 794 0 
L 794 531 
z
" transform="scale(0.015625)"/>
       </defs>
       <use xlink:href="#DejaVuSans-32"/>
       <use xlink:href="#DejaVuSans-30" transform="translate(63.623047 0)"/>
       <use xlink:href="#DejaVuSans-32" transform="translate(127.246094 0)"/>
       <use xlink:href="#DejaVuSans-34" transform="translate(190.869141 0)"/>
       <use xlink:href="#DejaVuSans-2d" transform="translate(254.492188 0)"/>
       <use xlink:href="#DejaVuSans-31" transform="translate(290.576172 0)"/>
       <use xlink:href="#DejaVuSans-31" transform="translate(354.199219 0)"/>
      </g>
     </g>
    </g>
    <g id="xtick_6">
     <g id="line2d_6">
      <g>
       <use xlink:href="#maceb8db052" x="418.753222" y="224.28" style="stroke: #000000; stroke-width: 0.8"/>
      </g>
     </g>
     <g id="text_6">
      <!-- 2025-01 -->
      <g transform="translate(397.861816 238.878438) scale(0.1 -0.1)">
       <use xlink:href="#DejaVuSans-32"/>
       <use xlink:href="#DejaVuSans-30" transform="translate(63.623047 0)"/>
       <use xlink:href="#DejaVuSans-32" transform="translate(127.246094 0)"/>
       <use xlink:href="#DejaVuSans-35" transform="translate(190.869141 0)"/>
       <use xlink:href="#DejaVuSans-2d" transform="translate(254.492188 0)"/>
       <use xlink:href="#DejaVuSans-30" transform="translate(290.576172 0)"/>
       <use xlink:href="#DejaVuSans-31" transform="translate(354.199219 0)"/>
      </g>
     </g>
    </g>
    <g id="xtick_7">
     <g id="line2d_7">
      <g>
       <use xlink:href="#maceb8db052" x="475.58061" y="224.28" style="stroke: #000000; stroke-width: 0.8"/>
      </g>
     </g>
     <g id="text_7">
      <!-- 2025-03 -->
      <g transform="translate(454.689204 238.878438) scale(0.1 -0.1)">
       <use xlink:href="#DejaVuSans-32"/>
       <use xlink:href="#DejaVuSans-30" transform="translate(63.623047 0)"/>
       <use xlink:href="#DejaVuSans-32" transform="translate(127.246094 0)"/>
       <use xlink:href="#DejaVuSans-35" transform="translate(190.869141 0)"/>
       <use xlink:href="#DejaVuSans-2d" transform="translate(254.492188 0)"/>
       <use xlink:href="#DejaVuSans-30" transform="translate(290.576172 0)"/>
       <use xlink:href="#DejaVuSans-33" transform="translate(354.199219 0)"/>
      </g>
     </g>
    </g>
    <g id="xtick_8">
     <g id="line2d_8">
      <g>
       <use xlink:href="#maceb8db052" x="534.33435" y="224.28" style="stroke: #000000; stroke-width: 0.8"/>
      </g>
     </g>
     <g id="text_8">
      <!-- 2025-05 -->
      <g transform="translate(513.442944 238.878438) scale(0.1 -0.1)">
       <use xlink:href="#DejaVuSans-32"/>
       <use xlink:href="#DejaVuSans-30" transform="translate(63.623047 0)"/>
       <use xlink:href="#DejaVuSans-32" transform="translate(127.246094 0)"/>
       <use xlink:href="#DejaVuSans-35" transform="translate(190.869141 0)"/>
       <use xlink:href="#DejaVuSans-2d" transform="translate(254.492188 0)"/>
       <use xlink:href="#DejaVuSans-30" transform="translate(290.576172 0)"/>
       <use xlink:href="#DejaVuSans-35" transform="translate(354.199219 0)"/>
      </g>
     </g>
    </g>
    <g id="xtick_9">
     <g id="line2d_9">
      <g>
       <use xlink:href="#maceb8db052" x="593.08809" y="224.28" style="stroke: #000000; stroke-width: 0.8"/>
      </g>
     </g>
     <g id="text_9">
      <!-- 2025-07 -->
      <g transform="translate(572.196684 238.878438) scale(0.1 -0.1)">
       <use xlink:href="#DejaVuSans-32"/>
       <use xlink:href="#DejaVuSans-30" transform="translate(63.623047 0)"/>
       <use xlink:href="#DejaVuSans-32" transform="translate(127.246094 0)"/>
       <use xlink:href="#DejaVuSans-35" transform="translate(190.869141 0)"/>
       <use xlink:href="#DejaVuSans-2d" transform="translate(254.492188 0)"/>
       <use xlink:href="#DejaVuSans-30" transform="translate(290.576172 0)"/>
       <use xlink:href="#DejaVuSans-37" transform="translate(354.199219 0)"/>
      </g>
     </g>
    </g>
    <g id="xtick_10">
     <g id="line2d_10">
      <g>
       <use xlink:href="#maceb8db052" x="652.805006" y="224.28" style="stroke: #000000; stroke-width: 0.8"/>
      </g>
     </g>
     <g id="text_10">
      <!-- 2025-09 -->
      <g transform="translate(631.9136 238.878438) scale(0.1 -0.1)">
       <use xlink:href="#DejaVuSans-32"/>
       <use xlink:href="#DejaVuSans-30" transform="translate(63.623047 0)"/>
       <use xlink:href="#DejaVuSans-32" transform="translate(127.246094 0)"/>
       <use xlink:href="#DejaVuSans-35" transform="translate(190.869141 0)"/>
       <use xlink:href="#DejaVuSans-2d" transform="translate(254.492188 0)"/>
       <use xlink:href="#DejaVuSans-30" transform="translate(290.576172 0)"/>
       <use xlink:href="#DejaVuSans-39" transform="translate(354.199219 0)"/>
      </g>
     </g>
    </g>
   </g>
   <g id="matplotlib.axis_2">
    <g id="ytick_1">
     <g id="line2d_11">
      <defs>
       <path id="me5a01519dd" d="M 0 0 
L -3.5 0 
" style="stroke: #000000; stroke-width: 0.8"/>
      </defs>
      <g>
       <use xlink:href="#me5a01519dd" x="94.5" y="218.697105" style="stroke: #000000; stroke-width: 0.8"/>
      </g>
     </g>
     <g id="text_11">
      <!-- 350 -->
      <g transform="translate(68.4125 222.496324) scale(0.1 -0.1)">
       <use xlink:href="#DejaVuSans-33"/>
       <use xlink:href="#DejaVuSans-35" transform="translate(63.623047 0)"/>
       <use xlink:href="#DejaVuSans-30" transform="translate(127.246094 0)"/>
      </g>
     </g>
    </g>
    <g id="ytick_2">
     <g id="line2d_12">
      <g>
       <use xlink:href="#me5a01519dd" x="94.5" y="194.390409" style="stroke: #000000; stroke-width: 0.8"/>
      </g>
     </g>
     <g id="text_12">
      <!-- 375 -->
      <g transform="translate(68.4125 198.189628) scale(0.1 -0.1)">
       <use xlink:href="#DejaVuSans-33"/>
       <use xlink:href="#DejaVuSans-37" transform="translate(63.623047 0)"/>
       <use xlink:href="#DejaVuSans-35" transform="translate(127.246094 0)"/>
      </g>
     </g>
    </g>
    <g id="ytick_3">
     <g id="line2d_13">
      <g>
       <use xlink:href="#me5a01519dd" x="94.5" y="170.083713" style="stroke: #000000; stroke-width: 0.8"/>
      </g>
     </g>
     <g id="text_13">
      <!-- 400 -->
      <g transform="translate(68.4125 173.882932) scale(0.1 -0.1)">
       <use xlink:href="#DejaVuSans-34"/>
       <use xlink:href="#DejaVuSans-30" transform="translate(63.623047 0)"/>
       <use xlink:href="#DejaVuSans-30" transform="translate(127.246094 0)"/>
      </g>
     </g>
    </g>
    <g id="ytick_4">
     <g id="line2d_14">
      <g>
       <use xlink:href="#me5a01519dd" x="94.5" y="145.777017" style="stroke: #000000; stroke-width: 0.8"/>
      </g>
     </g>
     <g id="text_14">
      <!-- 425 -->
      <g transform="translate(68.4125 149.576236) scale(0.1 -0.1)">
       <use xlink:href="#DejaVuSans-34"/>
       <use xlink:href="#DejaVuSans-32" transform="translate(63.623047 0)"/>
       <use xlink:href="#DejaVuSans-35" transform="translate(127.246094 0)"/>
      </g>
     </g>
    </g>
    <g id="ytick_5">
     <g id="line2d_15">
      <g>
       <use xlink:href="#me5a01519dd" x="94.5" y="121.470321" style="stroke: #000000; stroke-width: 0.8"/>
      </g>
     </g>
     <g id="text_15">
      <!-- 450 -->
      <g transform="translate(68.4125 125.26954) scale(0.1 -0.1)">
       <use xlink:href="#DejaVuSans-34"/>
       <use xlink:href="#DejaVuSans-35" transform="translate(63.623047 0)"/>
       <use xlink:href="#DejaVuSans-30" transform="translate(127.246094 0)"/>
      </g>
     </g>
    </g>
    <g id="ytick_6">
     <g id="line2d_16">
      <g>
       <use xlink:href="#me5a01519dd" x="94.5" y="97.163625" style="stroke: #000000; stroke-width: 0.8"/>
      </g>
     </g>
     <g id="text_16">
      <!-- 475 -->
      <g transform="translate(68.4125 100.962844) scale(0.1 -0.1)">
       <use xlink:href="#DejaVuSans-34"/>
       <use xlink:href="#DejaVuSans-37" transform="translate(63.623047 0)"/>
       <use xlink:href="#DejaVuSans-35" transform="translate(127.246094 0)"/>
      </g>
     </g>
    </g>
    <g id="ytick_7">
     <g id="line2d_17">
      <g>
       <use xlink:href="#me5a01519dd" x="94.5" y="72.85693" style="stroke: #000000; stroke-width: 0.8"/>
      </g>
     </g>
     <g id="text_17">
      <!-- 500 -->
      <g transform="translate(68.4125 76.656148) scale(0.1 -0.1)">
       <use xlink:href="#DejaVuSans-35"/>
       <use xlink:href="#DejaVuSans-30" transform="translate(63.623047 0)"/>
       <use xlink:href="#DejaVuSans-30" transform="translate(127.246094 0)"/>
      </g>
     </g>
    </g>
    <g id="ytick_8">
     <g id="line2d_18">
      <g>
       <use xlink:href="#me5a01519dd" x="94.5" y="48.550234" style="stroke: #000000; stroke-width: 0.8"/>
      </g>
     </g>
     <g id="text_18">
      <!-- 525 -->
      <g transform="translate(68.4125 52.349452) scale(0.1 -0.1)">
       <use xlink:href="#DejaVuSans-35"/>
       <use xlink:href="#DejaVuSans-32" transform="translate(63.623047 0)"/>
       <use xlink:href="#DejaVuSans-35" transform="translate(127.246094 0)"/>
      </g>
     </g>
    </g>
   </g>
   <g id="line2d_19">
    <path d="M 121.131818 167.177502 
L 122.094994 166.946719 
L 123.05817 161.254347 
L 124.021346 159.465882 
L 126.910875 160.023524 
L 127.874051 171.821826 
L 128.837227 172.36027 
L 129.800403 165.581337 
L 130.763579 168.389098 
L 133.653107 170.023688 
L 134.616283 159.677409 
L 135.579459 159.850481 
L 136.542635 150.119554 
L 137.505811 158.581234 
L 140.395339 157.715842 
L 143.284868 146.129156 
L 144.248044 146.734954 
L 147.137572 152.388872 
L 148.100748 153.552341 
L 149.063924 153.763867 
L 150.0271 154.446573 
L 153.879804 150.744579 
L 154.84298 153.754224 
L 155.806157 154.706197 
L 156.769333 157.177368 
L 157.732509 149.83109 
L 160.622037 150.725382 
L 161.585213 149.100317 
L 162.548389 152.004184 
L 163.511565 147.513765 
L 164.474741 153.311885 
L 167.364269 161.254347 
L 168.327445 160.350501 
L 169.290621 162.985131 
L 170.253797 170.264114 
L 171.216974 175.216099 
L 174.106502 173.446832 
L 175.069678 167.090981 
L 176.032854 165.658304 
L 176.99603 175.293007 
L 177.959206 168.292934 
L 180.848734 172.206454 
L 181.81191 184.629692 
L 182.775086 179.235338 
L 183.738262 176.446863 
L 184.701438 167.966016 
L 187.590967 161.350542 
L 188.554143 165.389037 
L 189.517319 164.235181 
L 190.480495 162.523595 
L 191.443671 160.196656 
L 194.333199 161.177439 
L 195.296375 158.446615 
L 196.259551 151.443545 
L 197.222727 153.456829 
L 198.185903 154.208165 
L 201.075432 149.266506 
L 202.038608 145.702364 
L 203.001784 144.27666 
L 203.96496 147.667462 
L 204.928136 144.623458 
L 208.78084 144.469316 
L 209.744016 145.577092 
L 210.707192 159.544749 
L 211.670368 159.101668 
L 214.559896 160.652555 
L 215.523072 158.19616 
L 216.486249 150.547651 
L 217.449425 150.056444 
L 218.412601 150.701793 
L 221.302129 146.829397 
L 222.265305 142.195993 
L 223.228481 134.12366 
L 224.191657 133.62272 
L 225.154833 132.669085 
L 228.044361 127.082017 
L 229.007537 129.037472 
L 230.93389 129.654011 
L 231.897066 125.723756 
L 234.786594 127.756296 
L 235.74977 124.596723 
L 236.712946 123.431146 
L 237.676122 122.766481 
L 238.639298 128.449832 
L 241.528826 119.028911 
L 242.492002 116.572575 
L 243.455178 115.137288 
L 245.38153 108.596555 
L 248.271059 109.868087 
L 249.234235 116.322091 
L 250.197411 109.858415 
L 251.160587 120.984395 
L 252.123763 122.092201 
L 255.013291 121.697247 
L 255.976467 125.97424 
L 256.939643 131.753964 
L 258.865995 137.928613 
L 262.7187 130.472759 
L 263.681876 145.837161 
L 264.645052 155.951737 
L 265.608228 149.333978 
L 268.497756 147.927531 
L 269.460932 151.597628 
L 270.424108 155.999864 
L 271.387284 157.194399 
L 272.35046 165.497842 
L 275.239988 178.348138 
L 276.203165 174.051858 
L 277.166341 175.188594 
L 278.129517 171.08494 
L 279.092693 167.877239 
L 281.982221 167.116201 
L 282.945397 160.180544 
L 283.908573 157.435152 
L 284.871749 152.687246 
L 285.834925 155.157705 
L 288.724453 152.204761 
L 289.687629 149.049134 
L 290.650806 149.686028 
L 291.613982 157.975584 
L 292.577158 156.778972 
L 295.466686 159.963558 
L 296.429862 159.625781 
L 297.393038 162.752449 
L 298.356214 160.320563 
L 299.31939 156.441194 
L 303.172094 163.871857 
L 305.098446 164.88513 
L 306.061623 171.341151 
L 308.951151 167.461782 
L 310.877503 150.747547 
L 312.803855 143.46168 
L 315.693383 142.737849 
L 316.656559 139.061106 
L 317.619735 143.249323 
L 318.582911 135.644935 
L 319.546087 138.945358 
L 322.435616 140.643741 
L 323.398792 144.831958 
L 324.361968 141.994822 
L 325.325144 142.766838 
L 326.28832 145.941782 
L 329.177848 143.741509 
L 330.141024 153.015351 
L 331.1042 156.450837 
L 333.030552 157.483427 
L 335.920081 163.775366 
L 336.883257 158.786203 
L 337.846433 156.132405 
L 338.809609 157.695725 
L 339.772785 157.232527 
L 342.662313 154.511138 
L 343.625489 154.897191 
L 344.588665 157.425538 
L 345.551841 156.846504 
L 346.515017 155.45685 
L 349.404545 154.858559 
L 350.367722 146.43388 
L 351.330898 149.242116 
L 352.294074 149.116636 
L 353.25725 145.816302 
L 356.146778 147.321733 
L 357.109954 142.149201 
L 358.07313 141.589512 
L 359.036306 166.853789 
L 359.999482 162.97439 
L 362.88901 164.817599 
L 363.852186 161.922544 
L 364.815362 153.507567 
L 365.778539 148.44117 
L 366.741715 151.23009 
L 369.631243 155.601616 
L 370.594419 150.757219 
L 371.557595 148.663081 
L 372.520771 147.0322 
L 373.483947 158.506344 
L 376.373475 157.7729 
L 377.336651 155.813944 
L 378.299827 158.033502 
L 379.263003 159.764346 
L 380.22618 155.770802 
L 383.115708 154.039959 
L 384.078884 145.143981 
L 385.04206 149.978764 
L 386.968412 149.52429 
L 389.85794 142.252784 
L 390.821116 142.04007 
L 391.784292 136.025587 
L 392.747468 130.997436 
L 393.710644 130.078814 
L 396.600173 127.709801 
L 397.563349 130.310903 
L 398.526525 124.83792 
L 399.489701 124.286747 
L 400.452877 126.501113 
L 403.342405 122.323845 
L 404.305581 119.548722 
L 405.268757 136.054606 
L 407.195109 136.818463 
L 410.084638 138.123879 
L 411.047814 134.178729 
L 412.974166 135.358399 
L 413.937342 142.687942 
L 416.82687 148.199557 
L 417.790046 151.419512 
L 419.716398 154.243029 
L 420.679574 149.630631 
L 423.569102 145.279341 
L 424.532278 150.578272 
L 425.495455 148.460664 
L 427.421807 153.885223 
L 430.311335 155.587077 
L 431.274511 157.056843 
L 432.237687 146.768482 
L 433.200863 148.441318 
L 434.164039 144.138363 
L 438.016743 144.650815 
L 438.979919 127.53572 
L 439.943096 127.042614 
L 440.906272 129.605023 
L 443.7958 138.791067 
L 444.758976 126.568764 
L 445.722152 131.277859 
L 446.685328 157.714388 
L 447.648504 157.646708 
L 450.538032 161.649865 
L 451.501208 160.247809 
L 452.464384 159.358176 
L 453.42756 156.91184 
L 454.390736 162.78123 
L 457.280265 160.392842 
L 458.243441 161.147056 
L 459.206617 163.467764 
L 460.169793 162.017344 
L 461.132969 164.057629 
L 464.985673 162.887572 
L 465.948849 157.927131 
L 466.912025 155.80522 
L 467.875201 163.478891 
L 470.76473 167.557917 
L 471.727906 173.468165 
L 472.691082 171.69507 
L 473.654258 178.671139 
L 474.617434 174.349876 
L 477.506962 182.585461 
L 478.470138 182.469209 
L 479.433314 170.445228 
L 480.39649 174.446723 
L 481.359666 177.915383 
L 484.249194 190.65634 
L 485.212371 190.375324 
L 486.175547 187.643075 
L 487.138723 192.003119 
L 488.101899 182.517632 
L 490.991427 182.381975 
L 491.954603 187.400839 
L 492.917779 183.234609 
L 493.880955 184.184119 
L 494.844131 179.901606 
L 497.733659 178.138243 
L 498.696835 176.122912 
L 499.660012 181.151479 
L 500.623188 180.560486 
L 501.586364 191.974041 
L 504.475892 195.277936 
L 505.439068 188.689492 
L 506.402244 188.737915 
L 507.36542 197.48705 
L 508.328596 210.344259 
L 511.218124 212.262655 
L 512.1813 215.46 
L 513.144476 180.647661 
L 514.107652 189.503345 
L 515.070829 182.624212 
L 517.960357 183.244311 
L 518.923533 185.259583 
L 519.886709 198.940378 
L 520.849885 202.651244 
L 524.702589 211.04186 
L 526.628941 196.246821 
L 527.592117 183.738456 
L 528.555293 179.32996 
L 531.444822 179.998483 
L 532.407998 177.208079 
L 533.371174 176.026036 
L 534.33435 146.823611 
L 535.297526 137.250921 
L 538.187054 136.388615 
L 539.15023 139.159644 
L 540.113406 139.120893 
L 541.076582 134.450815 
L 542.039758 133.908246 
L 544.929287 123.705784 
L 545.892463 123.822036 
L 546.855639 120.140277 
L 548.781991 118.043617 
L 551.671519 113.578538 
L 552.634695 114.25798 
L 553.597871 119.693755 
L 554.561047 117.470932 
L 555.524223 122.013661 
L 559.376928 111.811911 
L 560.340104 115.044239 
L 561.30328 113.762945 
L 562.266456 112.132242 
L 565.155984 110.569427 
L 567.082336 108.72518 
L 568.045512 105.026925 
L 569.008688 102.406092 
L 571.898216 100.10559 
L 572.861392 101.881919 
L 573.824568 100.231782 
L 574.787745 94.165078 
L 575.750921 97.960417 
L 578.640449 93.902991 
L 579.603625 94.970741 
L 580.566801 92.835271 
L 582.493153 95.591968 
L 585.382681 87.244197 
L 586.345857 83.254748 
L 587.309033 81.158088 
L 588.272209 76.129996 
L 589.235386 77.595697 
L 592.124914 76.168806 
L 593.08809 81.371632 
L 594.051266 82.303457 
L 595.014442 74.780755 
L 598.867146 75.86791 
L 599.830322 76.93566 
L 600.793498 70.247698 
L 601.756674 72.218167 
L 602.71985 70.432135 
L 605.609379 70.723358 
L 606.572555 68.005471 
L 607.535731 68.19961 
L 608.498907 62.297907 
L 609.462083 63.899532 
L 612.351611 63.88983 
L 613.314787 68.539346 
L 614.277963 67.956929 
L 615.241139 63.093869 
L 616.204315 60.346814 
L 619.093843 61.521381 
L 620.05702 61.453434 
L 621.020196 60.803099 
L 621.983372 41.137285 
L 622.946548 50.25188 
L 625.836076 39.06 
L 626.799252 46.718627 
L 627.762428 49.446187 
L 628.725604 53.425934 
L 629.68878 52.261159 
L 632.578308 52.523215 
L 633.541484 45.272331 
L 634.504661 53.678317 
L 635.467837 51.834071 
L 636.431013 54.076328 
L 639.320541 57.056331 
L 640.283717 64.171321 
L 641.246893 68.102526 
L 642.210069 68.734523 
L 643.173245 65.827422 
L 646.062773 68.715059 
L 647.025949 70.873495 
L 647.989125 66.303854 
L 648.952301 63.484253 
L 649.915478 66.352455 
L 653.768182 67.878923 
L 653.768182 67.878923 
" clip-path="url(#p71875852ae)" style="fill: none; stroke: #1f77b4; stroke-width: 1.5; stroke-linecap: square"/>
   </g>
   <g id="patch_3">
    <path d="M 94.5 224.28 
L 94.5 30.24 
" style="fill: none; stroke: #000000; stroke-width: 0.8; stroke-linejoin: miter; stroke-linecap: square"/>
   </g>
   <g id="patch_4">
    <path d="M 94.5 224.28 
L 680.4 224.28 
" style="fill: none; stroke: #000000; stroke-width: 0.8; stroke-linejoin: miter; stroke-linecap: square"/>
   </g>
  </g>
 </g>
 <defs>
  <clipPath id="p71875852ae">
   <rect x="94.5" y="30.24" width="585.9" height="194.04"/>
  </clipPath>
 </defs>
</svg>
