<?xml version="1.0" encoding="utf-8" standalone="no"?>
<!DOCTYPE svg PUBLIC "-//W3C//DTD SVG 1.1//EN"
  "http://www.w3.org/Graphics/SVG/1.1/DTD/svg11.dtd">
<svg xmlns:xlink="http://www.w3.org/1999/xlink" width="1166.4pt" height="252pt" viewBox="0 0 1166.4 252" xmlns="http://www.w3.org/2000/svg" version="1.1">
 <metadata>
  <rdf:RDF xmlns:dc="http://purl.org/dc/elements/1.1/" xmlns:cc="http://creativecommons.org/ns#" xmlns:rdf="http://www.w3.org/1999/02/22-rdf-syntax-ns#">
   <cc:Work>
    <dc:type rdf:resource="http://purl.org/dc/dcmitype/StillImage"/>
    <dc:date>2025-09-06T14:01:17.116262</dc:date>
    <dc:format>image/svg+xml</dc:format>
    <dc:creator>
     <cc:Agent>
      <dc:title>Matplotlib v3.10.5, https://matplotlib.org/</dc:title>
     </cc:Agent>
    </dc:creator>
   </cc:Work>
  </rdf:RDF>
 </metadata>
 <defs>
  <style type="text/css">*{stroke-linejoin: round; stroke-linecap: butt}</style>
 </defs>
 <g id="figure_1">
  <g id="patch_1">
   <path d="M 0 252 
L 1166.4 252 
L 1166.4 0 
L 0 0 
z
" style="fill: #ffffff"/>
  </g>
  <g id="axes_1">
   <g id="patch_2">
    <path d="M 145.8 224.28 
L 1049.76 224.28 
L 1049.76 30.24 
L 145.8 30.24 
z
" style="fill: #ffffff"/>
   </g>
   <g id="matplotlib.axis_1">
    <g id="xtick_1">
     <g id="line2d_1">
      <defs>
       <path id="m8aba9606db" d="M 0 0 
L 0 3.5 
" style="stroke: #000000; stroke-width: 0.8"/>
      </defs>
      <g>
       <use xlink:href="#m8aba9606db" x="189.861177" y="224.28" style="stroke: #000000; stroke-width: 0.8"/>
      </g>
     </g>
     <g id="text_1">
      <!-- 2024-03 -->
      <g transform="translate(168.969771 238.878438) scale(0.1 -0.1)">
       <defs>
        <path id="DejaVuSans-32" d="M 1228 531 
L 3431 531 
L 3431 0 
L 469 0 
L 469 531 
Q 828 903 1448 1529 
Q 2069 2156 2228 2338 
Q 2531 2678 2651 2914 
Q 2772 3150 2772 3378 
Q 2772 3750 2511 3984 
Q 2250 4219 1831 4219 
Q 1534 4219 1204 4116 
Q 875 4013 500 3803 
L 500 4441 
Q 881 4594 1212 4672 
Q 1544 4750 1819 4750 
Q 2544 4750 2975 4387 
Q 3406 4025 3406 3419 
Q 3406 3131 3298 2873 
Q 3191 2616 2906 2266 
Q 2828 2175 2409 1742 
Q 1991 1309 1228 531 
z
" transform="scale(0.015625)"/>
        <path id="DejaVuSans-30" d="M 2034 4250 
Q 1547 4250 1301 3770 
Q 1056 3291 1056 2328 
Q 1056 1369 1301 889 
Q 1547 409 2034 409 
Q 2525 409 2770 889 
Q 3016 1369 3016 2328 
Q 3016 3291 2770 3770 
Q 2525 4250 2034 4250 
z
M 2034 4750 
Q 2819 4750 3233 4129 
Q 3647 3509 3647 2328 
Q 3647 1150 3233 529 
Q 2819 -91 2034 -91 
Q 1250 -91 836 529 
Q 422 1150 422 2328 
Q 422 3509 836 4129 
Q 1250 4750 2034 4750 
z
" transform="scale(0.015625)"/>
        <path id="DejaVuSans-34" d="M 2419 4116 
L 825 1625 
L 2419 1625 
L 2419 4116 
z
M 2253 4666 
L 3047 4666 
L 3047 1625 
L 3713 1625 
L 3713 1100 
L 3047 1100 
L 3047 0 
L 2419 0 
L 2419 1100 
L 313 1100 
L 313 1709 
L 2253 4666 
z
" transform="scale(0.015625)"/>
        <path id="DejaVuSans-2d" d="M 313 2009 
L 1997 2009 
L 1997 1497 
L 313 1497 
L 313 2009 
z
" transform="scale(0.015625)"/>
        <path id="DejaVuSans-33" d="M 2597 2516 
Q 3050 2419 3304 2112 
Q 3559 1806 3559 1356 
Q 3559 666 3084 287 
Q 2609 -91 1734 -91 
Q 1441 -91 1130 -33 
Q 819 25 488 141 
L 488 750 
Q 750 597 1062 519 
Q 1375 441 1716 441 
Q 2309 441 2620 675 
Q 2931 909 2931 1356 
Q 2931 1769 2642 2001 
Q 2353 2234 1838 2234 
L 1294 2234 
L 1294 2753 
L 1863 2753 
Q 2328 2753 2575 2939 
Q 2822 3125 2822 3475 
Q 2822 3834 2567 4026 
Q 2313 4219 1838 4219 
Q 1578 4219 1281 4162 
Q 984 4106 628 3988 
L 628 4550 
Q 988 4650 1302 4700 
Q 1616 4750 1894 4750 
Q 2613 4750 3031 4423 
Q 3450 4097 3450 3541 
Q 3450 3153 3228 2886 
Q 3006 2619 2597 2516 
z
" transform="scale(0.015625)"/>
       </defs>
       <use xlink:href="#DejaVuSans-32"/>
       <use xlink:href="#DejaVuSans-30" transform="translate(63.623047 0)"/>
       <use xlink:href="#DejaVuSans-32" transform="translate(127.246094 0)"/>
       <use xlink:href="#DejaVuSans-34" transform="translate(190.869141 0)"/>
       <use xlink:href="#DejaVuSans-2d" transform="translate(254.492188 0)"/>
       <use xlink:href="#DejaVuSans-30" transform="translate(290.576172 0)"/>
       <use xlink:href="#DejaVuSans-33" transform="translate(354.199219 0)"/>
      </g>
     </g>
    </g>
    <g id="xtick_2">
     <g id="line2d_2">
      <g>
       <use xlink:href="#m8aba9606db" x="280.509804" y="224.28" style="stroke: #000000; stroke-width: 0.8"/>
      </g>
     </g>
     <g id="text_2">
      <!-- 2024-05 -->
      <g transform="translate(259.618398 238.878438) scale(0.1 -0.1)">
       <defs>
        <path id="DejaVuSans-35" d="M 691 4666 
L 3169 4666 
L 3169 4134 
L 1269 4134 
L 1269 2991 
Q 1406 3038 1543 3061 
Q 1681 3084 1819 3084 
Q 2600 3084 3056 2656 
Q 3513 2228 3513 1497 
Q 3513 744 3044 326 
Q 2575 -91 1722 -91 
Q 1428 -91 1123 -41 
Q 819 9 494 109 
L 494 744 
Q 775 591 1075 516 
Q 1375 441 1709 441 
Q 2250 441 2565 725 
Q 2881 1009 2881 1497 
Q 2881 1984 2565 2268 
Q 2250 2553 1709 2553 
Q 1456 2553 1204 2497 
Q 953 2441 691 2322 
L 691 4666 
z
" transform="scale(0.015625)"/>
       </defs>
       <use xlink:href="#DejaVuSans-32"/>
       <use xlink:href="#DejaVuSans-30" transform="translate(63.623047 0)"/>
       <use xlink:href="#DejaVuSans-32" transform="translate(127.246094 0)"/>
       <use xlink:href="#DejaVuSans-34" transform="translate(190.869141 0)"/>
       <use xlink:href="#DejaVuSans-2d" transform="translate(254.492188 0)"/>
       <use xlink:href="#DejaVuSans-30" transform="translate(290.576172 0)"/>
       <use xlink:href="#DejaVuSans-35" transform="translate(354.199219 0)"/>
      </g>
     </g>
    </g>
    <g id="xtick_3">
     <g id="line2d_3">
      <g>
       <use xlink:href="#m8aba9606db" x="371.158432" y="224.28" style="stroke: #000000; stroke-width: 0.8"/>
      </g>
     </g>
     <g id="text_3">
      <!-- 2024-07 -->
      <g transform="translate(350.267025 238.878438) scale(0.1 -0.1)">
       <defs>
        <path id="DejaVuSans-37" d="M 525 4666 
L 3525 4666 
L 3525 4397 
L 1831 0 
L 1172 0 
L 2766 4134 
L 525 4134 
L 525 4666 
z
" transform="scale(0.015625)"/>
       </defs>
       <use xlink:href="#DejaVuSans-32"/>
       <use xlink:href="#DejaVuSans-30" transform="translate(63.623047 0)"/>
       <use xlink:href="#DejaVuSans-32" transform="translate(127.246094 0)"/>
       <use xlink:href="#DejaVuSans-34" transform="translate(190.869141 0)"/>
       <use xlink:href="#DejaVuSans-2d" transform="translate(254.492188 0)"/>
       <use xlink:href="#DejaVuSans-30" transform="translate(290.576172 0)"/>
       <use xlink:href="#DejaVuSans-37" transform="translate(354.199219 0)"/>
      </g>
     </g>
    </g>
    <g id="xtick_4">
     <g id="line2d_4">
      <g>
       <use xlink:href="#m8aba9606db" x="463.293102" y="224.28" style="stroke: #000000; stroke-width: 0.8"/>
      </g>
     </g>
     <g id="text_4">
      <!-- 2024-09 -->
      <g transform="translate(442.401696 238.878438) scale(0.1 -0.1)">
       <defs>
        <path id="DejaVuSans-39" d="M 703 97 
L 703 672 
Q 941 559 1184 500 
Q 1428 441 1663 441 
Q 2288 441 2617 861 
Q 2947 1281 2994 2138 
Q 2813 1869 2534 1725 
Q 2256 1581 1919 1581 
Q 1219 1581 811 2004 
Q 403 2428 403 3163 
Q 403 3881 828 4315 
Q 1253 4750 1959 4750 
Q 2769 4750 3195 4129 
Q 3622 3509 3622 2328 
Q 3622 1225 3098 567 
Q 2575 -91 1691 -91 
Q 1453 -91 1209 -44 
Q 966 3 703 97 
z
M 1959 2075 
Q 2384 2075 2632 2365 
Q 2881 2656 2881 3163 
Q 2881 3666 2632 3958 
Q 2384 4250 1959 4250 
Q 1534 4250 1286 3958 
Q 1038 3666 1038 3163 
Q 1038 2656 1286 2365 
Q 1534 2075 1959 2075 
z
" transform="scale(0.015625)"/>
       </defs>
       <use xlink:href="#DejaVuSans-32"/>
       <use xlink:href="#DejaVuSans-30" transform="translate(63.623047 0)"/>
       <use xlink:href="#DejaVuSans-32" transform="translate(127.246094 0)"/>
       <use xlink:href="#DejaVuSans-34" transform="translate(190.869141 0)"/>
       <use xlink:href="#DejaVuSans-2d" transform="translate(254.492188 0)"/>
       <use xlink:href="#DejaVuSans-30" transform="translate(290.576172 0)"/>
       <use xlink:href="#DejaVuSans-39" transform="translate(354.199219 0)"/>
      </g>
     </g>
    </g>
    <g id="xtick_5">
     <g id="line2d_5">
      <g>
       <use xlink:href="#m8aba9606db" x="553.941729" y="224.28" style="stroke: #000000; stroke-width: 0.8"/>
      </g>
     </g>
     <g id="text_5">
      <!-- 2024-11 -->
      <g transform="translate(533.050323 238.878438) scale(0.1 -0.1)">
       <defs>
        <path id="DejaVuSans-31" d="M 794 531 
L 1825 531 
L 1825 4091 
L 703 3866 
L 703 4441 
L 1819 4666 
L 2450 4666 
L 2450 531 
L 3481 531 
L 3481 0 
L 794 0 
L 794 531 
z
" transform="scale(0.015625)"/>
       </defs>
       <use xlink:href="#DejaVuSans-32"/>
       <use xlink:href="#DejaVuSans-30" transform="translate(63.623047 0)"/>
       <use xlink:href="#DejaVuSans-32" transform="translate(127.246094 0)"/>
       <use xlink:href="#DejaVuSans-34" transform="translate(190.869141 0)"/>
       <use xlink:href="#DejaVuSans-2d" transform="translate(254.492188 0)"/>
       <use xlink:href="#DejaVuSans-31" transform="translate(290.576172 0)"/>
       <use xlink:href="#DejaVuSans-31" transform="translate(354.199219 0)"/>
      </g>
     </g>
    </g>
    <g id="xtick_6">
     <g id="line2d_6">
      <g>
       <use xlink:href="#m8aba9606db" x="644.590357" y="224.28" style="stroke: #000000; stroke-width: 0.8"/>
      </g>
     </g>
     <g id="text_6">
      <!-- 2025-01 -->
      <g transform="translate(623.69895 238.878438) scale(0.1 -0.1)">
       <use xlink:href="#DejaVuSans-32"/>
       <use xlink:href="#DejaVuSans-30" transform="translate(63.623047 0)"/>
       <use xlink:href="#DejaVuSans-32" transform="translate(127.246094 0)"/>
       <use xlink:href="#DejaVuSans-35" transform="translate(190.869141 0)"/>
       <use xlink:href="#DejaVuSans-2d" transform="translate(254.492188 0)"/>
       <use xlink:href="#DejaVuSans-30" transform="translate(290.576172 0)"/>
       <use xlink:href="#DejaVuSans-31" transform="translate(354.199219 0)"/>
      </g>
     </g>
    </g>
    <g id="xtick_7">
     <g id="line2d_7">
      <g>
       <use xlink:href="#m8aba9606db" x="732.266898" y="224.28" style="stroke: #000000; stroke-width: 0.8"/>
      </g>
     </g>
     <g id="text_7">
      <!-- 2025-03 -->
      <g transform="translate(711.375492 238.878438) scale(0.1 -0.1)">
       <use xlink:href="#DejaVuSans-32"/>
       <use xlink:href="#DejaVuSans-30" transform="translate(63.623047 0)"/>
       <use xlink:href="#DejaVuSans-32" transform="translate(127.246094 0)"/>
       <use xlink:href="#DejaVuSans-35" transform="translate(190.869141 0)"/>
       <use xlink:href="#DejaVuSans-2d" transform="translate(254.492188 0)"/>
       <use xlink:href="#DejaVuSans-30" transform="translate(290.576172 0)"/>
       <use xlink:href="#DejaVuSans-33" transform="translate(354.199219 0)"/>
      </g>
     </g>
    </g>
    <g id="xtick_8">
     <g id="line2d_8">
      <g>
       <use xlink:href="#m8aba9606db" x="822.915525" y="224.28" style="stroke: #000000; stroke-width: 0.8"/>
      </g>
     </g>
     <g id="text_8">
      <!-- 2025-05 -->
      <g transform="translate(802.024119 238.878438) scale(0.1 -0.1)">
       <use xlink:href="#DejaVuSans-32"/>
       <use xlink:href="#DejaVuSans-30" transform="translate(63.623047 0)"/>
       <use xlink:href="#DejaVuSans-32" transform="translate(127.246094 0)"/>
       <use xlink:href="#DejaVuSans-35" transform="translate(190.869141 0)"/>
       <use xlink:href="#DejaVuSans-2d" transform="translate(254.492188 0)"/>
       <use xlink:href="#DejaVuSans-30" transform="translate(290.576172 0)"/>
       <use xlink:href="#DejaVuSans-35" transform="translate(354.199219 0)"/>
      </g>
     </g>
    </g>
    <g id="xtick_9">
     <g id="line2d_9">
      <g>
       <use xlink:href="#m8aba9606db" x="913.564153" y="224.28" style="stroke: #000000; stroke-width: 0.8"/>
      </g>
     </g>
     <g id="text_9">
      <!-- 2025-07 -->
      <g transform="translate(892.672746 238.878438) scale(0.1 -0.1)">
       <use xlink:href="#DejaVuSans-32"/>
       <use xlink:href="#DejaVuSans-30" transform="translate(63.623047 0)"/>
       <use xlink:href="#DejaVuSans-32" transform="translate(127.246094 0)"/>
       <use xlink:href="#DejaVuSans-35" transform="translate(190.869141 0)"/>
       <use xlink:href="#DejaVuSans-2d" transform="translate(254.492188 0)"/>
       <use xlink:href="#DejaVuSans-30" transform="translate(290.576172 0)"/>
       <use xlink:href="#DejaVuSans-37" transform="translate(354.199219 0)"/>
      </g>
     </g>
    </g>
    <g id="xtick_10">
     <g id="line2d_10">
      <g>
       <use xlink:href="#m8aba9606db" x="1005.698823" y="224.28" style="stroke: #000000; stroke-width: 0.8"/>
      </g>
     </g>
     <g id="text_10">
      <!-- 2025-09 -->
      <g transform="translate(984.807417 238.878438) scale(0.1 -0.1)">
       <use xlink:href="#DejaVuSans-32"/>
       <use xlink:href="#DejaVuSans-30" transform="translate(63.623047 0)"/>
       <use xlink:href="#DejaVuSans-32" transform="translate(127.246094 0)"/>
       <use xlink:href="#DejaVuSans-35" transform="translate(190.869141 0)"/>
       <use xlink:href="#DejaVuSans-2d" transform="translate(254.492188 0)"/>
       <use xlink:href="#DejaVuSans-30" transform="translate(290.576172 0)"/>
       <use xlink:href="#DejaVuSans-39" transform="translate(354.199219 0)"/>
      </g>
     </g>
    </g>
   </g>
   <g id="matplotlib.axis_2">
    <g id="ytick_1">
     <g id="line2d_11">
      <defs>
       <path id="m3d46bc2fd0" d="M 0 0 
L -3.5 0 
" style="stroke: #000000; stroke-width: 0.8"/>
      </defs>
      <g>
       <use xlink:href="#m3d46bc2fd0" x="145.8" y="209.936756" style="stroke: #000000; stroke-width: 0.8"/>
      </g>
     </g>
     <g id="text_11">
      <!-- 20 -->
      <g transform="translate(126.075 213.735975) scale(0.1 -0.1)">
       <use xlink:href="#DejaVuSans-32"/>
       <use xlink:href="#DejaVuSans-30" transform="translate(63.623047 0)"/>
      </g>
     </g>
    </g>
    <g id="ytick_2">
     <g id="line2d_12">
      <g>
       <use xlink:href="#m3d46bc2fd0" x="145.8" y="187.463405" style="stroke: #000000; stroke-width: 0.8"/>
      </g>
     </g>
     <g id="text_12">
      <!-- 30 -->
      <g transform="translate(126.075 191.262624) scale(0.1 -0.1)">
       <use xlink:href="#DejaVuSans-33"/>
       <use xlink:href="#DejaVuSans-30" transform="translate(63.623047 0)"/>
      </g>
     </g>
    </g>
    <g id="ytick_3">
     <g id="line2d_13">
      <g>
       <use xlink:href="#m3d46bc2fd0" x="145.8" y="164.990053" style="stroke: #000000; stroke-width: 0.8"/>
      </g>
     </g>
     <g id="text_13">
      <!-- 40 -->
      <g transform="translate(126.075 168.789272) scale(0.1 -0.1)">
       <use xlink:href="#DejaVuSans-34"/>
       <use xlink:href="#DejaVuSans-30" transform="translate(63.623047 0)"/>
      </g>
     </g>
    </g>
    <g id="ytick_4">
     <g id="line2d_14">
      <g>
       <use xlink:href="#m3d46bc2fd0" x="145.8" y="142.516702" style="stroke: #000000; stroke-width: 0.8"/>
      </g>
     </g>
     <g id="text_14">
      <!-- 50 -->
      <g transform="translate(126.075 146.31592) scale(0.1 -0.1)">
       <use xlink:href="#DejaVuSans-35"/>
       <use xlink:href="#DejaVuSans-30" transform="translate(63.623047 0)"/>
      </g>
     </g>
    </g>
    <g id="ytick_5">
     <g id="line2d_15">
      <g>
       <use xlink:href="#m3d46bc2fd0" x="145.8" y="120.04335" style="stroke: #000000; stroke-width: 0.8"/>
      </g>
     </g>
     <g id="text_15">
      <!-- 60 -->
      <g transform="translate(126.075 123.842569) scale(0.1 -0.1)">
       <defs>
        <path id="DejaVuSans-36" d="M 2113 2584 
Q 1688 2584 1439 2293 
Q 1191 2003 1191 1497 
Q 1191 994 1439 701 
Q 1688 409 2113 409 
Q 2538 409 2786 701 
Q 3034 994 3034 1497 
Q 3034 2003 2786 2293 
Q 2538 2584 2113 2584 
z
M 3366 4563 
L 3366 3988 
Q 3128 4100 2886 4159 
Q 2644 4219 2406 4219 
Q 1781 4219 1451 3797 
Q 1122 3375 1075 2522 
Q 1259 2794 1537 2939 
Q 1816 3084 2150 3084 
Q 2853 3084 3261 2657 
Q 3669 2231 3669 1497 
Q 3669 778 3244 343 
Q 2819 -91 2113 -91 
Q 1303 -91 875 529 
Q 447 1150 447 2328 
Q 447 3434 972 4092 
Q 1497 4750 2381 4750 
Q 2619 4750 2861 4703 
Q 3103 4656 3366 4563 
z
" transform="scale(0.015625)"/>
       </defs>
       <use xlink:href="#DejaVuSans-36"/>
       <use xlink:href="#DejaVuSans-30" transform="translate(63.623047 0)"/>
      </g>
     </g>
    </g>
    <g id="ytick_6">
     <g id="line2d_16">
      <g>
       <use xlink:href="#m3d46bc2fd0" x="145.8" y="97.569999" style="stroke: #000000; stroke-width: 0.8"/>
      </g>
     </g>
     <g id="text_16">
      <!-- 70 -->
      <g transform="translate(126.075 101.369217) scale(0.1 -0.1)">
       <use xlink:href="#DejaVuSans-37"/>
       <use xlink:href="#DejaVuSans-30" transform="translate(63.623047 0)"/>
      </g>
     </g>
    </g>
    <g id="ytick_7">
     <g id="line2d_17">
      <g>
       <use xlink:href="#m3d46bc2fd0" x="145.8" y="75.096647" style="stroke: #000000; stroke-width: 0.8"/>
      </g>
     </g>
     <g id="text_17">
      <!-- 80 -->
      <g transform="translate(126.075 78.895866) scale(0.1 -0.1)">
       <defs>
        <path id="DejaVuSans-38" d="M 2034 2216 
Q 1584 2216 1326 1975 
Q 1069 1734 1069 1313 
Q 1069 891 1326 650 
Q 1584 409 2034 409 
Q 2484 409 2743 651 
Q 3003 894 3003 1313 
Q 3003 1734 2745 1975 
Q 2488 2216 2034 2216 
z
M 1403 2484 
Q 997 2584 770 2862 
Q 544 3141 544 3541 
Q 544 4100 942 4425 
Q 1341 4750 2034 4750 
Q 2731 4750 3128 4425 
Q 3525 4100 3525 3541 
Q 3525 3141 3298 2862 
Q 3072 2584 2669 2484 
Q 3125 2378 3379 2068 
Q 3634 1759 3634 1313 
Q 3634 634 3220 271 
Q 2806 -91 2034 -91 
Q 1263 -91 848 271 
Q 434 634 434 1313 
Q 434 1759 690 2068 
Q 947 2378 1403 2484 
z
M 1172 3481 
Q 1172 3119 1398 2916 
Q 1625 2713 2034 2713 
Q 2441 2713 2670 2916 
Q 2900 3119 2900 3481 
Q 2900 3844 2670 4047 
Q 2441 4250 2034 4250 
Q 1625 4250 1398 4047 
Q 1172 3844 1172 3481 
z
" transform="scale(0.015625)"/>
       </defs>
       <use xlink:href="#DejaVuSans-38"/>
       <use xlink:href="#DejaVuSans-30" transform="translate(63.623047 0)"/>
      </g>
     </g>
    </g>
    <g id="ytick_8">
     <g id="line2d_18">
      <g>
       <use xlink:href="#m3d46bc2fd0" x="145.8" y="52.623295" style="stroke: #000000; stroke-width: 0.8"/>
      </g>
     </g>
     <g id="text_18">
      <!-- 90 -->
      <g transform="translate(126.075 56.422514) scale(0.1 -0.1)">
       <use xlink:href="#DejaVuSans-39"/>
       <use xlink:href="#DejaVuSans-30" transform="translate(63.623047 0)"/>
      </g>
     </g>
    </g>
   </g>
   <g id="line2d_19">
    <path d="M 186.889091 156.171241 
L 188.375134 141.876406 
L 189.861177 152.713856 
L 194.319306 141.386112 
L 195.805349 149.6901 
L 197.291392 162.137112 
L 198.777435 136.282195 
L 200.263479 137.3437 
L 204.721608 138.411199 
L 206.207651 116.9166 
L 207.693694 134.475396 
L 209.179737 113.193231 
L 210.66578 126.683273 
L 215.123909 125.202423 
L 216.609952 119.79773 
L 218.095995 122.667104 
L 219.582038 119.560051 
L 221.068082 119.659621 
L 225.526211 105.620818 
L 227.012254 107.180755 
L 228.498297 117.57559 
L 229.98434 111.867261 
L 235.928512 101.783306 
L 237.414555 127.999282 
L 238.900598 130.119015 
L 240.386641 162.662657 
L 241.872685 116.812042 
L 246.330814 121.996409 
L 247.816857 127.888788 
L 249.3029 148.562999 
L 250.788943 146.87355 
L 252.274986 160.584283 
L 256.733115 165.580623 
L 258.219158 160.309241 
L 259.705201 165.361771 
L 261.191244 176.728182 
L 262.677288 194.202119 
L 267.135417 185.101511 
L 268.62146 166.775661 
L 270.107503 159.435141 
L 271.593546 191.327124 
L 273.079589 173.016603 
L 277.537718 181.262285 
L 279.023761 190.419872 
L 280.509804 188.548878 
L 281.995847 177.446096 
L 283.481891 152.577238 
L 287.94002 143.90956 
L 289.426063 145.807697 
L 290.912106 133.597369 
L 292.398149 122.902365 
L 293.884192 122.196414 
L 298.342321 132.729897 
L 299.828364 130.80534 
L 301.314407 102.25509 
L 302.80045 115.442681 
L 304.286494 107.893882 
L 308.744623 64.496623 
L 310.230666 65.776856 
L 311.716709 66.793958 
L 313.202752 89.035093 
L 314.688795 94.4171 
L 320.632967 75.720939 
L 322.11901 82.864025 
L 323.605053 135.455336 
L 325.091096 139.81353 
L 329.549226 141.236922 
L 331.035269 141.902488 
L 332.521312 140.349747 
L 334.007355 134.01389 
L 335.493398 133.728223 
L 339.951527 136.259078 
L 341.43757 133.728291 
L 342.923613 120.354567 
L 344.409656 110.036392 
L 345.895699 113.627686 
L 350.353829 104.894362 
L 351.839872 107.303429 
L 354.811958 57.328763 
L 356.298001 55.1203 
L 360.75613 57.337204 
L 362.242173 56.903711 
L 363.728216 61.514589 
L 365.214259 61.370623 
L 366.700302 84.134378 
L 371.158432 77.942581 
L 372.644475 80.19471 
L 374.130518 88.590397 
L 377.102604 80.850217 
L 381.560733 86.721985 
L 383.046776 116.674757 
L 384.532819 100.503021 
L 386.018862 126.754473 
L 387.504905 135.598202 
L 391.963035 130.643991 
L 393.449078 145.164254 
L 394.935121 157.343364 
L 396.421164 163.157596 
L 397.907207 159.449244 
L 402.365336 167.774013 
L 403.851379 169.224849 
L 406.823465 212.546383 
L 408.309508 197.043121 
L 412.767638 189.072447 
L 414.253681 206.336909 
L 415.739724 201.447983 
L 417.225767 201.517259 
L 418.71181 208.349837 
L 423.169939 213.137172 
L 424.655982 200.584412 
L 426.142025 199.295603 
L 427.628068 188.560137 
L 429.114111 193.419564 
L 433.572241 195.694521 
L 435.058284 165.874803 
L 436.544327 145.221392 
L 438.03037 148.821827 
L 439.516413 155.873496 
L 443.974542 143.651682 
L 445.460585 129.247688 
L 446.946628 128.046121 
L 448.432671 128.015841 
L 449.918714 90.547269 
L 454.376844 107.743083 
L 455.862887 103.417606 
L 457.34893 121.115067 
L 458.834973 122.757502 
L 460.321016 116.491852 
L 467.751231 160.140431 
L 469.237274 176.691787 
L 470.723317 183.759705 
L 475.181447 180.598391 
L 476.66749 165.483946 
L 478.153533 144.575429 
L 479.639576 119.297076 
L 481.125619 115.670118 
L 485.583748 106.18722 
L 487.069791 101.703017 
L 488.555834 104.522273 
L 490.041877 98.401583 
L 491.52792 110.946751 
L 495.98605 96.354053 
L 497.472093 106.009669 
L 498.958136 101.397591 
L 500.444179 86.056836 
L 501.930222 99.462102 
L 506.388351 107.72627 
L 507.874394 147.520727 
L 509.360437 163.694062 
L 510.84648 174.494676 
L 512.332523 177.485456 
L 516.790653 198.060379 
L 518.276696 176.884179 
L 519.762739 192.728129 
L 521.248782 190.28057 
L 522.734825 185.991583 
L 527.192954 168.781865 
L 528.678997 179.73095 
L 530.16504 182.972921 
L 531.651083 174.662011 
L 533.137126 177.801824 
L 537.595256 149.750307 
L 539.081299 109.039195 
L 540.567342 118.144461 
L 542.053385 116.050577 
L 543.539428 80.483417 
L 547.997557 98.167226 
L 549.4836 92.740058 
L 550.969643 83.299669 
L 552.455686 162.044236 
L 553.941729 159.341986 
L 558.399859 161.743246 
L 559.885902 151.177398 
L 561.371945 136.84754 
L 562.857988 131.231951 
L 564.344031 136.857702 
L 568.80216 157.666876 
L 570.288203 144.94771 
L 571.774246 141.808864 
L 573.260289 144.459331 
L 574.746332 158.167879 
L 579.204462 165.658989 
L 580.690505 163.204807 
L 582.176548 124.235634 
L 583.662591 135.588963 
L 585.148634 123.766832 
L 589.606763 125.82121 
L 591.092806 124.961651 
L 592.578849 145.758134 
L 595.550935 138.755967 
L 600.009065 114.671288 
L 601.495108 122.622226 
L 602.981151 115.802262 
L 604.467194 110.657012 
L 605.953237 73.072052 
L 610.411366 71.598228 
L 611.897409 83.155697 
L 613.383452 70.128864 
L 614.869495 63.339997 
L 616.355538 74.801477 
L 620.813668 72.660331 
L 622.299711 78.455916 
L 623.785754 114.857132 
L 625.271797 116.402417 
L 626.75784 130.206662 
L 631.215969 133.836854 
L 632.702012 138.249039 
L 635.674098 153.459758 
L 637.160141 170.194407 
L 641.618271 184.89165 
L 643.104314 185.6798 
L 646.0764 205.690556 
L 647.562443 193.042113 
L 652.020572 178.585412 
L 653.506615 195.765982 
L 654.992658 197.612841 
L 657.964744 184.359247 
L 662.422874 186.298181 
L 663.908917 187.735598 
L 665.39496 158.904334 
L 666.881003 170.632284 
L 668.367046 158.925382 
L 674.311218 146.654245 
L 675.797261 106.746032 
L 677.283304 98.4681 
L 678.769347 97.808559 
L 683.227477 124.200135 
L 684.71352 114.245999 
L 686.199563 113.12165 
L 687.685606 153.116511 
L 689.171649 147.074176 
L 693.629778 149.684658 
L 695.115821 146.292029 
L 696.601864 159.047932 
L 698.087907 153.539439 
L 699.57395 166.344591 
L 704.03208 162.216646 
L 705.518123 193.950419 
L 707.004166 196.902648 
L 708.490209 191.636866 
L 709.976252 184.89142 
L 715.920424 215.46 
L 717.406467 195.800182 
L 718.89251 135.788499 
L 720.378553 159.111572 
L 724.836683 159.295216 
L 726.322726 176.221479 
L 727.808769 173.350976 
L 729.294812 191.923139 
L 730.780855 169.632647 
L 735.238984 188.879411 
L 736.725027 187.595591 
L 738.21107 154.990899 
L 739.697113 163.871109 
L 741.183156 165.816289 
L 745.641286 182.314871 
L 747.127329 191.973354 
L 748.613372 190.644652 
L 750.099415 187.647413 
L 751.585458 164.511422 
L 756.043587 156.693476 
L 757.52963 166.398529 
L 759.015673 149.730073 
L 760.501716 158.835504 
L 761.987759 137.787064 
L 766.445889 135.076624 
L 767.931932 154.03233 
L 769.417975 155.867947 
L 770.904018 148.066968 
L 772.390061 145.351996 
L 776.84819 152.488151 
L 778.334233 144.506106 
L 779.820276 135.820349 
L 781.306319 173.634522 
L 782.792362 189.569785 
L 787.250492 186.389564 
L 788.736535 200.262666 
L 790.222578 138.401737 
L 791.708621 153.183971 
L 793.194664 147.260515 
L 797.652793 150.147672 
L 799.138836 147.048999 
L 800.624879 160.485143 
L 802.110922 153.704646 
L 808.055095 158.286653 
L 809.541138 157.299513 
L 811.027181 149.519867 
L 812.513224 130.082136 
L 813.999267 112.419989 
L 818.457396 110.865448 
L 819.943439 104.857629 
L 821.429482 136.065952 
L 822.915525 94.964111 
L 824.401568 93.278104 
L 828.859698 91.788027 
L 830.345741 92.96706 
L 831.831784 68.571682 
L 833.317827 59.09201 
L 834.80387 39.350794 
L 839.261999 39.06 
L 842.234085 41.451184 
L 843.720128 42.025286 
L 845.206171 39.730157 
L 849.664301 39.498997 
L 851.150344 41.783307 
L 852.636387 74.974704 
L 854.12243 83.69395 
L 855.608473 103.56208 
L 861.552645 79.669604 
L 863.038688 90.579018 
L 864.524731 94.783894 
L 866.010774 93.371362 
L 870.468904 106.645124 
L 871.954947 104.46723 
L 873.44099 109.791702 
L 874.927033 104.644621 
L 876.413076 102.046504 
L 880.871205 105.818928 
L 882.357248 109.679742 
L 883.843291 85.810019 
L 885.329334 80.765037 
L 886.815377 77.641408 
L 891.273506 85.857295 
L 892.75955 74.88744 
L 894.245593 73.770293 
L 897.217679 89.914238 
L 903.161851 76.933238 
L 906.133937 74.428816 
L 907.61998 82.606488 
L 912.078109 83.610128 
L 913.564153 95.565808 
L 915.050196 100.866798 
L 916.536239 98.800276 
L 922.480411 89.828836 
L 923.966454 99.310156 
L 925.452497 86.673116 
L 926.93854 95.792498 
L 928.424583 84.358829 
L 932.882712 96.741702 
L 934.368756 98.897219 
L 935.854799 103.563341 
L 937.340842 101.886802 
L 938.826885 102.428501 
L 943.285014 105.198964 
L 944.771057 102.924868 
L 946.2571 97.824151 
L 947.743143 103.211333 
L 949.229186 92.78678 
L 953.687315 93.278989 
L 955.173359 107.913235 
L 956.659402 95.423983 
L 958.145445 69.555998 
L 959.631488 99.871204 
L 964.089617 90.405153 
L 965.57566 107.974796 
L 967.061703 120.86746 
L 968.547746 125.480856 
L 970.033789 123.913125 
L 974.491918 115.18688 
L 975.977962 107.367318 
L 977.464005 128.607032 
L 978.950048 129.789694 
L 980.436091 131.541855 
L 984.89422 136.273388 
L 986.380263 146.937976 
L 987.866306 185.883642 
L 989.352349 176.348966 
L 990.838392 199.158643 
L 995.296521 193.65771 
L 996.782565 192.928143 
L 998.268608 172.444597 
L 999.754651 167.735709 
L 1001.240694 172.052574 
L 1007.184866 196.693503 
L 1008.670909 183.093637 
L 1008.670909 183.093637 
" clip-path="url(#pa0c5fa14c5)" style="fill: none; stroke: #1f77b4; stroke-width: 1.5; stroke-linecap: square"/>
   </g>
   <g id="patch_3">
    <path d="M 145.8 224.28 
L 145.8 30.24 
" style="fill: none; stroke: #000000; stroke-width: 0.8; stroke-linejoin: miter; stroke-linecap: square"/>
   </g>
   <g id="patch_4">
    <path d="M 145.8 224.28 
L 1049.76 224.28 
" style="fill: none; stroke: #000000; stroke-width: 0.8; stroke-linejoin: miter; stroke-linecap: square"/>
   </g>
  </g>
 </g>
 <defs>
  <clipPath id="pa0c5fa14c5">
   <rect x="145.8" y="30.24" width="903.96" height="194.04"/>
  </clipPath>
 </defs>
</svg>
