<?xml version="1.0" encoding="utf-8" standalone="no"?>
<!DOCTYPE svg PUBLIC "-//W3C//DTD SVG 1.1//EN"
  "http://www.w3.org/Graphics/SVG/1.1/DTD/svg11.dtd">
<svg xmlns:xlink="http://www.w3.org/1999/xlink" width="1166.4pt" height="252pt" viewBox="0 0 1166.4 252" xmlns="http://www.w3.org/2000/svg" version="1.1">
 <metadata>
  <rdf:RDF xmlns:dc="http://purl.org/dc/elements/1.1/" xmlns:cc="http://creativecommons.org/ns#" xmlns:rdf="http://www.w3.org/1999/02/22-rdf-syntax-ns#">
   <cc:Work>
    <dc:type rdf:resource="http://purl.org/dc/dcmitype/StillImage"/>
    <dc:date>2025-09-08T17:07:03.906063</dc:date>
    <dc:format>image/svg+xml</dc:format>
    <dc:creator>
     <cc:Agent>
      <dc:title>Matplotlib v3.10.5, https://matplotlib.org/</dc:title>
     </cc:Agent>
    </dc:creator>
   </cc:Work>
  </rdf:RDF>
 </metadata>
 <defs>
  <style type="text/css">*{stroke-linejoin: round; stroke-linecap: butt}</style>
 </defs>
 <g id="figure_1">
  <g id="patch_1">
   <path d="M 0 252 
L 1166.4 252 
L 1166.4 0 
L 0 0 
z
" style="fill: #ffffff"/>
  </g>
  <g id="axes_1">
   <g id="patch_2">
    <path d="M 145.8 224.28 
L 1049.76 224.28 
L 1049.76 30.24 
L 145.8 30.24 
z
" style="fill: #ffffff"/>
   </g>
   <g id="matplotlib.axis_1">
    <g id="xtick_1">
     <g id="line2d_1">
      <defs>
       <path id="mbac954ee24" d="M 0 0 
L 0 3.5 
" style="stroke: #000000; stroke-width: 0.8"/>
      </defs>
      <g>
       <use xlink:href="#mbac954ee24" x="178.48314" y="224.28" style="stroke: #000000; stroke-width: 0.8"/>
      </g>
     </g>
     <g id="text_1">
      <!-- 2020 -->
      <g transform="translate(165.75814 238.878438) scale(0.1 -0.1)">
       <defs>
        <path id="DejaVuSans-32" d="M 1228 531 
L 3431 531 
L 3431 0 
L 469 0 
L 469 531 
Q 828 903 1448 1529 
Q 2069 2156 2228 2338 
Q 2531 2678 2651 2914 
Q 2772 3150 2772 3378 
Q 2772 3750 2511 3984 
Q 2250 4219 1831 4219 
Q 1534 4219 1204 4116 
Q 875 4013 500 3803 
L 500 4441 
Q 881 4594 1212 4672 
Q 1544 4750 1819 4750 
Q 2544 4750 2975 4387 
Q 3406 4025 3406 3419 
Q 3406 3131 3298 2873 
Q 3191 2616 2906 2266 
Q 2828 2175 2409 1742 
Q 1991 1309 1228 531 
z
" transform="scale(0.015625)"/>
        <path id="DejaVuSans-30" d="M 2034 4250 
Q 1547 4250 1301 3770 
Q 1056 3291 1056 2328 
Q 1056 1369 1301 889 
Q 1547 409 2034 409 
Q 2525 409 2770 889 
Q 3016 1369 3016 2328 
Q 3016 3291 2770 3770 
Q 2525 4250 2034 4250 
z
M 2034 4750 
Q 2819 4750 3233 4129 
Q 3647 3509 3647 2328 
Q 3647 1150 3233 529 
Q 2819 -91 2034 -91 
Q 1250 -91 836 529 
Q 422 1150 422 2328 
Q 422 3509 836 4129 
Q 1250 4750 2034 4750 
z
" transform="scale(0.015625)"/>
       </defs>
       <use xlink:href="#DejaVuSans-32"/>
       <use xlink:href="#DejaVuSans-30" transform="translate(63.623047 0)"/>
       <use xlink:href="#DejaVuSans-32" transform="translate(127.246094 0)"/>
       <use xlink:href="#DejaVuSans-30" transform="translate(190.869141 0)"/>
      </g>
     </g>
    </g>
    <g id="xtick_2">
     <g id="line2d_2">
      <g>
       <use xlink:href="#mbac954ee24" x="324.986864" y="224.28" style="stroke: #000000; stroke-width: 0.8"/>
      </g>
     </g>
     <g id="text_2">
      <!-- 2021 -->
      <g transform="translate(312.261864 238.878438) scale(0.1 -0.1)">
       <defs>
        <path id="DejaVuSans-31" d="M 794 531 
L 1825 531 
L 1825 4091 
L 703 3866 
L 703 4441 
L 1819 4666 
L 2450 4666 
L 2450 531 
L 3481 531 
L 3481 0 
L 794 0 
L 794 531 
z
" transform="scale(0.015625)"/>
       </defs>
       <use xlink:href="#DejaVuSans-32"/>
       <use xlink:href="#DejaVuSans-30" transform="translate(63.623047 0)"/>
       <use xlink:href="#DejaVuSans-32" transform="translate(127.246094 0)"/>
       <use xlink:href="#DejaVuSans-31" transform="translate(190.869141 0)"/>
      </g>
     </g>
    </g>
    <g id="xtick_3">
     <g id="line2d_3">
      <g>
       <use xlink:href="#mbac954ee24" x="471.090304" y="224.28" style="stroke: #000000; stroke-width: 0.8"/>
      </g>
     </g>
     <g id="text_3">
      <!-- 2022 -->
      <g transform="translate(458.365304 238.878438) scale(0.1 -0.1)">
       <use xlink:href="#DejaVuSans-32"/>
       <use xlink:href="#DejaVuSans-30" transform="translate(63.623047 0)"/>
       <use xlink:href="#DejaVuSans-32" transform="translate(127.246094 0)"/>
       <use xlink:href="#DejaVuSans-32" transform="translate(190.869141 0)"/>
      </g>
     </g>
    </g>
    <g id="xtick_4">
     <g id="line2d_4">
      <g>
       <use xlink:href="#mbac954ee24" x="617.193745" y="224.28" style="stroke: #000000; stroke-width: 0.8"/>
      </g>
     </g>
     <g id="text_4">
      <!-- 2023 -->
      <g transform="translate(604.468745 238.878438) scale(0.1 -0.1)">
       <defs>
        <path id="DejaVuSans-33" d="M 2597 2516 
Q 3050 2419 3304 2112 
Q 3559 1806 3559 1356 
Q 3559 666 3084 287 
Q 2609 -91 1734 -91 
Q 1441 -91 1130 -33 
Q 819 25 488 141 
L 488 750 
Q 750 597 1062 519 
Q 1375 441 1716 441 
Q 2309 441 2620 675 
Q 2931 909 2931 1356 
Q 2931 1769 2642 2001 
Q 2353 2234 1838 2234 
L 1294 2234 
L 1294 2753 
L 1863 2753 
Q 2328 2753 2575 2939 
Q 2822 3125 2822 3475 
Q 2822 3834 2567 4026 
Q 2313 4219 1838 4219 
Q 1578 4219 1281 4162 
Q 984 4106 628 3988 
L 628 4550 
Q 988 4650 1302 4700 
Q 1616 4750 1894 4750 
Q 2613 4750 3031 4423 
Q 3450 4097 3450 3541 
Q 3450 3153 3228 2886 
Q 3006 2619 2597 2516 
z
" transform="scale(0.015625)"/>
       </defs>
       <use xlink:href="#DejaVuSans-32"/>
       <use xlink:href="#DejaVuSans-30" transform="translate(63.623047 0)"/>
       <use xlink:href="#DejaVuSans-32" transform="translate(127.246094 0)"/>
       <use xlink:href="#DejaVuSans-33" transform="translate(190.869141 0)"/>
      </g>
     </g>
    </g>
    <g id="xtick_5">
     <g id="line2d_5">
      <g>
       <use xlink:href="#mbac954ee24" x="763.297185" y="224.28" style="stroke: #000000; stroke-width: 0.8"/>
      </g>
     </g>
     <g id="text_5">
      <!-- 2024 -->
      <g transform="translate(750.572185 238.878438) scale(0.1 -0.1)">
       <defs>
        <path id="DejaVuSans-34" d="M 2419 4116 
L 825 1625 
L 2419 1625 
L 2419 4116 
z
M 2253 4666 
L 3047 4666 
L 3047 1625 
L 3713 1625 
L 3713 1100 
L 3047 1100 
L 3047 0 
L 2419 0 
L 2419 1100 
L 313 1100 
L 313 1709 
L 2253 4666 
z
" transform="scale(0.015625)"/>
       </defs>
       <use xlink:href="#DejaVuSans-32"/>
       <use xlink:href="#DejaVuSans-30" transform="translate(63.623047 0)"/>
       <use xlink:href="#DejaVuSans-32" transform="translate(127.246094 0)"/>
       <use xlink:href="#DejaVuSans-34" transform="translate(190.869141 0)"/>
      </g>
     </g>
    </g>
    <g id="xtick_6">
     <g id="line2d_6">
      <g>
       <use xlink:href="#mbac954ee24" x="909.80091" y="224.28" style="stroke: #000000; stroke-width: 0.8"/>
      </g>
     </g>
     <g id="text_6">
      <!-- 2025 -->
      <g transform="translate(897.07591 238.878438) scale(0.1 -0.1)">
       <defs>
        <path id="DejaVuSans-35" d="M 691 4666 
L 3169 4666 
L 3169 4134 
L 1269 4134 
L 1269 2991 
Q 1406 3038 1543 3061 
Q 1681 3084 1819 3084 
Q 2600 3084 3056 2656 
Q 3513 2228 3513 1497 
Q 3513 744 3044 326 
Q 2575 -91 1722 -91 
Q 1428 -91 1123 -41 
Q 819 9 494 109 
L 494 744 
Q 775 591 1075 516 
Q 1375 441 1709 441 
Q 2250 441 2565 725 
Q 2881 1009 2881 1497 
Q 2881 1984 2565 2268 
Q 2250 2553 1709 2553 
Q 1456 2553 1204 2497 
Q 953 2441 691 2322 
L 691 4666 
z
" transform="scale(0.015625)"/>
       </defs>
       <use xlink:href="#DejaVuSans-32"/>
       <use xlink:href="#DejaVuSans-30" transform="translate(63.623047 0)"/>
       <use xlink:href="#DejaVuSans-32" transform="translate(127.246094 0)"/>
       <use xlink:href="#DejaVuSans-35" transform="translate(190.869141 0)"/>
      </g>
     </g>
    </g>
   </g>
   <g id="matplotlib.axis_2">
    <g id="ytick_1">
     <g id="line2d_7">
      <defs>
       <path id="m6c86d8c6ab" d="M 0 0 
L -3.5 0 
" style="stroke: #000000; stroke-width: 0.8"/>
      </defs>
      <g>
       <use xlink:href="#m6c86d8c6ab" x="145.8" y="189.376362" style="stroke: #000000; stroke-width: 0.8"/>
      </g>
     </g>
     <g id="text_7">
      <!-- 20 -->
      <g transform="translate(126.075 193.175581) scale(0.1 -0.1)">
       <use xlink:href="#DejaVuSans-32"/>
       <use xlink:href="#DejaVuSans-30" transform="translate(63.623047 0)"/>
      </g>
     </g>
    </g>
    <g id="ytick_2">
     <g id="line2d_8">
      <g>
       <use xlink:href="#m6c86d8c6ab" x="145.8" y="149.837796" style="stroke: #000000; stroke-width: 0.8"/>
      </g>
     </g>
     <g id="text_8">
      <!-- 40 -->
      <g transform="translate(126.075 153.637014) scale(0.1 -0.1)">
       <use xlink:href="#DejaVuSans-34"/>
       <use xlink:href="#DejaVuSans-30" transform="translate(63.623047 0)"/>
      </g>
     </g>
    </g>
    <g id="ytick_3">
     <g id="line2d_9">
      <g>
       <use xlink:href="#m6c86d8c6ab" x="145.8" y="110.299229" style="stroke: #000000; stroke-width: 0.8"/>
      </g>
     </g>
     <g id="text_9">
      <!-- 60 -->
      <g transform="translate(126.075 114.098448) scale(0.1 -0.1)">
       <defs>
        <path id="DejaVuSans-36" d="M 2113 2584 
Q 1688 2584 1439 2293 
Q 1191 2003 1191 1497 
Q 1191 994 1439 701 
Q 1688 409 2113 409 
Q 2538 409 2786 701 
Q 3034 994 3034 1497 
Q 3034 2003 2786 2293 
Q 2538 2584 2113 2584 
z
M 3366 4563 
L 3366 3988 
Q 3128 4100 2886 4159 
Q 2644 4219 2406 4219 
Q 1781 4219 1451 3797 
Q 1122 3375 1075 2522 
Q 1259 2794 1537 2939 
Q 1816 3084 2150 3084 
Q 2853 3084 3261 2657 
Q 3669 2231 3669 1497 
Q 3669 778 3244 343 
Q 2819 -91 2113 -91 
Q 1303 -91 875 529 
Q 447 1150 447 2328 
Q 447 3434 972 4092 
Q 1497 4750 2381 4750 
Q 2619 4750 2861 4703 
Q 3103 4656 3366 4563 
z
" transform="scale(0.015625)"/>
       </defs>
       <use xlink:href="#DejaVuSans-36"/>
       <use xlink:href="#DejaVuSans-30" transform="translate(63.623047 0)"/>
      </g>
     </g>
    </g>
    <g id="ytick_4">
     <g id="line2d_10">
      <g>
       <use xlink:href="#m6c86d8c6ab" x="145.8" y="70.760663" style="stroke: #000000; stroke-width: 0.8"/>
      </g>
     </g>
     <g id="text_10">
      <!-- 80 -->
      <g transform="translate(126.075 74.559882) scale(0.1 -0.1)">
       <defs>
        <path id="DejaVuSans-38" d="M 2034 2216 
Q 1584 2216 1326 1975 
Q 1069 1734 1069 1313 
Q 1069 891 1326 650 
Q 1584 409 2034 409 
Q 2484 409 2743 651 
Q 3003 894 3003 1313 
Q 3003 1734 2745 1975 
Q 2488 2216 2034 2216 
z
M 1403 2484 
Q 997 2584 770 2862 
Q 544 3141 544 3541 
Q 544 4100 942 4425 
Q 1341 4750 2034 4750 
Q 2731 4750 3128 4425 
Q 3525 4100 3525 3541 
Q 3525 3141 3298 2862 
Q 3072 2584 2669 2484 
Q 3125 2378 3379 2068 
Q 3634 1759 3634 1313 
Q 3634 634 3220 271 
Q 2806 -91 2034 -91 
Q 1263 -91 848 271 
Q 434 634 434 1313 
Q 434 1759 690 2068 
Q 947 2378 1403 2484 
z
M 1172 3481 
Q 1172 3119 1398 2916 
Q 1625 2713 2034 2713 
Q 2441 2713 2670 2916 
Q 2900 3119 2900 3481 
Q 2900 3844 2670 4047 
Q 2441 4250 2034 4250 
Q 1625 4250 1398 4047 
Q 1172 3844 1172 3481 
z
" transform="scale(0.015625)"/>
       </defs>
       <use xlink:href="#DejaVuSans-38"/>
       <use xlink:href="#DejaVuSans-30" transform="translate(63.623047 0)"/>
      </g>
     </g>
    </g>
    <g id="ytick_5">
     <g id="line2d_11">
      <g>
       <use xlink:href="#m6c86d8c6ab" x="145.8" y="31.222096" style="stroke: #000000; stroke-width: 0.8"/>
      </g>
     </g>
     <g id="text_11">
      <!-- 100 -->
      <g transform="translate(119.7125 35.021315) scale(0.1 -0.1)">
       <use xlink:href="#DejaVuSans-31"/>
       <use xlink:href="#DejaVuSans-30" transform="translate(63.623047 0)"/>
       <use xlink:href="#DejaVuSans-30" transform="translate(127.246094 0)"/>
      </g>
     </g>
    </g>
   </g>
   <g id="line2d_12">
    <path d="M 186.889091 103.042874 
L 187.289374 99.305296 
L 187.689658 97.154138 
L 188.890508 115.216466 
L 189.290791 96.724811 
L 189.691075 96.52911 
L 190.091358 89.6914 
L 190.491642 98.65122 
L 191.692492 93.713615 
L 192.092775 78.925451 
L 192.493058 81.37338 
L 192.893342 80.303344 
L 193.293625 81.270297 
L 194.494475 72.653695 
L 194.894759 85.625535 
L 195.295042 86.622374 
L 195.695326 84.218503 
L 196.095609 71.791418 
L 197.696743 73.185496 
L 198.097026 75.550629 
L 198.497309 94.700784 
L 198.897593 106.58078 
L 200.098443 137.391707 
L 200.498726 160.303206 
L 200.89901 153.091038 
L 201.299293 181.510323 
L 201.699577 171.092665 
L 202.900427 156.53744 
L 203.30071 161.28002 
L 203.700994 150.127673 
L 204.101277 153.792055 
L 204.50156 161.308388 
L 205.702411 173.206273 
L 206.102694 158.24929 
L 206.502977 161.480239 
L 206.903261 167.059903 
L 207.303544 140.196715 
L 208.504394 153.405999 
L 208.904678 145.901079 
L 209.304961 142.487158 
L 209.705245 143.695163 
L 210.105528 156.098461 
L 211.306378 152.157379 
L 211.706662 146.453101 
L 212.106945 144.654599 
L 212.507228 134.047989 
L 212.907512 130.762276 
L 214.108362 130.587945 
L 214.508645 126.881448 
L 214.908929 119.096815 
L 215.309212 133.564132 
L 215.709496 107.024845 
L 216.910346 106.747533 
L 217.310629 99.584173 
L 217.710913 100.201428 
L 218.111196 90.17111 
L 219.71233 87.048131 
L 220.112613 90.703868 
L 220.512896 91.566478 
L 220.91318 95.616285 
L 221.313463 78.317253 
L 222.514313 99.662072 
L 222.914597 111.188083 
L 223.31488 90.160831 
L 223.715164 99.338191 
L 224.115447 91.914669 
L 225.716581 116.247552 
L 226.116864 106.312991 
L 226.517147 103.802784 
L 226.917431 114.417518 
L 228.118281 120.536265 
L 228.518564 113.631168 
L 228.918848 119.199782 
L 229.319131 120.088058 
L 229.719415 109.862302 
L 230.920265 85.412943 
L 231.320548 108.078343 
L 231.720832 110.020112 
L 232.121115 114.802355 
L 232.521398 108.024555 
L 233.722249 91.158682 
L 234.122532 110.929018 
L 234.522815 109.064163 
L 234.923099 99.582171 
L 235.323382 110.516503 
L 236.924516 125.108289 
L 237.725083 137.039707 
L 238.125366 133.732994 
L 239.326216 144.578651 
L 239.7265 116.362442 
L 240.126783 97.710099 
L 240.527066 116.006605 
L 240.92735 109.614188 
L 242.1282 111.757894 
L 242.928767 87.662439 
L 243.32905 121.908095 
L 243.729334 118.38601 
L 244.930184 109.284036 
L 245.330467 100.595062 
L 245.730751 98.099177 
L 246.131034 97.713876 
L 246.531317 100.132888 
L 248.132451 93.642301 
L 248.532734 98.379961 
L 248.933018 101.050704 
L 249.333301 113.521616 
L 250.534151 112.379483 
L 250.934435 115.831808 
L 251.334718 80.739219 
L 251.735002 80.618853 
L 253.336135 76.643572 
L 253.736419 91.962899 
L 254.136702 86.306953 
L 254.536985 87.092045 
L 254.937269 85.287859 
L 256.138119 114.792753 
L 256.538402 114.912039 
L 256.938686 103.702824 
L 257.338969 121.190688 
L 257.739253 112.517819 
L 258.940103 100.164645 
L 259.340386 117.521206 
L 259.74067 113.89609 
L 260.140953 137.315363 
L 260.541236 149.613111 
L 261.742087 139.197869 
L 262.14237 153.871642 
L 262.542653 152.387214 
L 262.942937 151.55291 
L 263.34322 135.228702 
L 264.54407 113.78314 
L 264.944354 120.211886 
L 265.744921 104.088714 
L 266.145204 128.193861 
L 267.346054 131.102839 
L 267.746338 146.732148 
L 268.146621 115.856029 
L 268.546904 113.992436 
L 268.947188 118.50015 
L 270.148038 110.947489 
L 270.548321 112.527805 
L 270.948605 115.568179 
L 271.348888 108.748677 
L 271.749172 138.138199 
L 272.950022 127.421978 
L 273.350305 119.141608 
L 273.750588 116.173227 
L 274.551155 74.340945 
L 275.752005 68.003652 
L 276.152289 72.665428 
L 276.552572 65.480171 
L 276.952856 112.481761 
L 277.353139 121.51148 
L 278.954273 143.311749 
L 279.354556 127.805475 
L 279.754839 142.983498 
L 280.155123 142.71449 
L 281.355973 141.599145 
L 281.756256 140.689383 
L 282.556823 164.818234 
L 282.957107 171.820555 
L 284.157957 164.349555 
L 284.55824 158.328662 
L 284.958524 172.780924 
L 285.358807 153.263598 
L 285.75909 140.367979 
L 286.959941 117.115658 
L 287.360224 138.864177 
L 287.760507 118.516197 
L 288.160791 110.793071 
L 288.561074 128.466271 
L 289.761924 126.836854 
L 290.162208 128.357445 
L 290.562491 116.776216 
L 290.962775 109.797932 
L 291.363058 105.211692 
L 292.563908 104.229489 
L 292.964192 84.312842 
L 293.764758 103.51811 
L 295.365892 115.021031 
L 296.166459 124.440802 
L 296.566742 105.441822 
L 296.967026 112.037652 
L 298.568159 119.824457 
L 298.968443 148.305154 
L 299.368726 157.729749 
L 299.769009 181.630169 
L 300.96986 188.099079 
L 301.370143 168.546102 
L 301.770426 137.121258 
L 302.570993 110.390303 
L 303.771843 123.042969 
L 304.172127 136.327915 
L 304.57241 127.555702 
L 304.972694 131.268595 
L 305.372977 119.473783 
L 306.573827 123.231387 
L 306.974111 106.658485 
L 307.374394 116.545306 
L 307.774677 109.139939 
L 308.174961 113.546608 
L 309.375811 121.302062 
L 309.776094 134.761376 
L 310.176378 155.375291 
L 310.976945 152.114116 
L 312.177795 141.913492 
L 312.578078 108.263938 
L 312.978362 132.90923 
L 313.378645 133.011589 
L 313.778928 137.723966 
L 314.979779 141.906351 
L 315.380062 118.956704 
L 315.780345 126.538083 
L 316.180629 139.412362 
L 316.580912 116.435996 
L 317.781762 111.238574 
L 318.182046 128.568367 
L 318.582329 106.747157 
L 318.982613 110.991324 
L 319.382896 109.17133 
L 320.583746 102.932578 
L 320.98403 94.400625 
L 321.384313 103.82834 
L 321.784596 99.522778 
L 323.38573 94.060093 
L 323.786013 101.717409 
L 324.58658 85.000775 
L 326.187714 114.479692 
L 326.587997 116.70118 
L 326.988281 135.710065 
L 327.788847 129.504018 
L 328.989698 133.062068 
L 329.389981 151.776211 
L 329.790264 151.569253 
L 330.190548 152.444673 
L 330.590831 159.448953 
L 332.191965 153.751755 
L 332.592248 129.628289 
L 332.992532 122.099696 
L 333.392815 121.568324 
L 334.593665 100.736638 
L 334.993949 96.49927 
L 335.394232 75.50606 
L 335.794515 75.517863 
L 336.194799 101.728089 
L 337.395649 84.9977 
L 337.795932 77.455897 
L 338.196216 75.463197 
L 338.596499 67.678887 
L 338.996783 66.223531 
L 340.197633 69.140947 
L 340.597916 76.164939 
L 340.9982 80.989031 
L 341.398483 80.051814 
L 341.798766 84.533171 
L 343.3999 95.001974 
L 343.800183 94.036773 
L 344.200467 110.16401 
L 344.60075 88.564246 
L 345.8016 151.153082 
L 346.201884 154.936386 
L 347.002451 179.376854 
L 347.402734 162.554559 
L 348.603584 145.203815 
L 349.404151 166.755403 
L 349.804434 173.909728 
L 350.204718 159.454183 
L 351.405568 163.861245 
L 351.805851 150.106947 
L 352.206135 151.537178 
L 352.606418 137.06649 
L 353.006702 127.575194 
L 354.207552 126.953074 
L 354.607835 123.88082 
L 355.008118 112.614989 
L 355.408402 133.450317 
L 355.808685 144.762765 
L 357.009535 125.600321 
L 357.409819 106.587303 
L 357.810102 110.217445 
L 358.210386 128.315361 
L 358.610669 108.495626 
L 360.211803 131.530734 
L 360.612086 133.630362 
L 361.012369 114.875673 
L 362.613503 101.136861 
L 363.013786 108.735478 
L 363.41407 103.804663 
L 363.814353 81.047664 
L 364.214637 77.181725 
L 365.415487 83.276191 
L 365.81577 82.079657 
L 366.216054 84.691513 
L 366.616337 69.927905 
L 367.01662 72.617109 
L 368.217471 75.412214 
L 368.617754 64.128898 
L 369.018037 65.514884 
L 369.418321 87.997458 
L 369.818604 92.846829 
L 371.019454 86.793349 
L 371.419738 89.829771 
L 371.820021 126.227364 
L 372.220305 140.024652 
L 372.620588 141.097481 
L 374.221722 153.909089 
L 374.622005 173.361536 
L 375.022288 164.324283 
L 375.422572 149.168543 
L 376.623422 159.431067 
L 377.023705 169.54667 
L 377.423989 175.251969 
L 377.824272 175.070818 
L 378.224556 159.820197 
L 379.425406 165.327258 
L 379.825689 157.241709 
L 380.225973 151.716844 
L 380.626256 141.768044 
L 381.026539 143.719792 
L 382.22739 122.381617 
L 382.627673 117.405279 
L 383.027956 124.622864 
L 383.42824 136.135439 
L 383.828523 121.85688 
L 385.429657 125.582546 
L 385.82994 101.999064 
L 386.230224 118.924048 
L 386.630507 119.010397 
L 387.831357 98.471911 
L 388.231641 94.475427 
L 388.631924 93.537614 
L 389.032207 92.906288 
L 389.432491 85.099702 
L 390.633341 93.087362 
L 391.033624 103.752154 
L 391.433908 107.405739 
L 391.834191 87.684798 
L 392.234475 95.808112 
L 394.235892 66.636444 
L 394.636175 71.469103 
L 395.036458 86.564557 
L 396.237309 72.913258 
L 396.637592 70.574461 
L 397.037875 79.000725 
L 397.438159 78.910591 
L 397.838442 72.586592 
L 399.439576 64.330088 
L 399.839859 56.529443 
L 400.240143 74.337219 
L 400.640426 65.53093 
L 401.841276 73.721963 
L 402.24156 72.473494 
L 402.641843 68.857214 
L 403.042126 79.263481 
L 403.44241 71.41625 
L 404.64326 99.204529 
L 405.043543 100.165057 
L 405.84411 84.872821 
L 406.244394 89.490288 
L 407.445244 92.401837 
L 407.845527 108.383151 
L 408.245811 98.935574 
L 408.646094 99.522483 
L 409.046377 103.900253 
L 410.247228 114.945704 
L 410.647511 112.454105 
L 411.047794 108.400693 
L 411.448078 98.806671 
L 411.848361 78.897176 
L 413.049211 91.125886 
L 413.849778 125.728724 
L 414.250062 129.290084 
L 414.650345 111.472629 
L 415.851195 89.084863 
L 416.251479 97.214946 
L 416.651762 108.710905 
L 417.052045 83.910611 
L 417.452329 71.788777 
L 418.653179 74.326619 
L 419.453746 88.593419 
L 419.854029 100.416424 
L 420.254313 94.779842 
L 421.455163 80.69682 
L 421.855446 88.302934 
L 422.25573 93.32801 
L 422.656013 102.244375 
L 423.056296 106.45828 
L 424.65743 104.120355 
L 425.057713 95.893778 
L 425.457997 128.119363 
L 425.85828 176.817116 
L 427.05913 169.340732 
L 427.859697 118.717841 
L 428.259981 102.463916 
L 428.660264 129.512689 
L 429.861114 162.436967 
L 430.261398 155.835914 
L 430.661681 140.468204 
L 431.061964 135.107582 
L 431.462248 135.705421 
L 432.663098 146.751186 
L 433.063381 165.754293 
L 433.463665 160.00487 
L 433.863948 160.844957 
L 434.264232 145.607359 
L 435.465082 160.955733 
L 435.865365 159.466001 
L 436.265648 150.724679 
L 437.066215 128.953645 
L 438.267065 131.220942 
L 438.667349 142.19551 
L 439.067632 136.636721 
L 441.069049 76.485925 
L 441.469333 76.016063 
L 441.869616 71.541417 
L 442.269899 75.478727 
L 442.670183 56.139876 
L 444.271316 69.710084 
L 444.6716 58.584368 
L 445.071883 57.784016 
L 445.472167 51.416389 
L 446.673017 54.752196 
L 447.0733 54.59114 
L 447.473584 57.643086 
L 447.873867 57.049666 
L 448.27415 60.588989 
L 449.475001 60.596187 
L 449.875284 61.4957 
L 450.275567 83.937145 
L 451.076134 68.938886 
L 452.276984 72.918044 
L 452.677268 84.287538 
L 453.077551 85.755357 
L 453.477835 95.305408 
L 453.878118 80.769375 
L 455.078968 104.525847 
L 455.479252 115.725323 
L 455.879535 122.537405 
L 456.680102 146.256782 
L 457.880952 129.456125 
L 458.281235 140.216656 
L 458.681519 130.343849 
L 459.081802 135.753365 
L 459.482086 160.338063 
L 460.682936 150.290792 
L 461.083219 137.825337 
L 461.483503 138.205872 
L 461.883786 146.17793 
L 462.284069 131.044577 
L 463.48492 130.806502 
L 463.885203 143.951543 
L 464.285486 134.508416 
L 464.68577 136.444846 
L 465.086053 148.650235 
L 466.286903 146.039504 
L 466.687187 133.847914 
L 467.08747 125.384321 
L 467.487754 114.317782 
L 469.088887 109.431154 
L 469.489171 121.174592 
L 469.889454 120.350975 
L 470.289737 121.50074 
L 470.690021 139.480991 
L 471.890871 137.278511 
L 472.291154 128.935046 
L 472.691438 157.959209 
L 473.091721 149.012732 
L 473.492005 147.12547 
L 474.692855 140.607273 
L 475.093138 156.38897 
L 475.493422 163.908876 
L 475.893705 183.217058 
L 476.293988 189.955272 
L 477.895122 194.107622 
L 478.295405 194.162378 
L 478.695689 193.629158 
L 479.095972 195.110227 
L 480.296822 193.296995 
L 480.697106 194.523625 
L 481.097389 163.747765 
L 481.497673 153.848225 
L 481.897956 138.644442 
L 483.098806 134.77395 
L 483.49909 138.77465 
L 484.299656 135.02681 
L 484.69994 136.078908 
L 485.90079 132.557933 
L 486.301073 128.342299 
L 486.701357 117.461946 
L 487.10164 122.083805 
L 487.501924 131.60405 
L 488.702774 121.794219 
L 489.103057 125.1143 
L 489.503341 129.686435 
L 489.903624 153.114626 
L 490.303907 160.60116 
L 491.905041 158.658922 
L 492.305324 173.954338 
L 492.705608 137.980985 
L 493.105891 140.829387 
L 494.306741 132.242498 
L 494.707025 142.712985 
L 495.107308 144.975283 
L 495.507592 139.043886 
L 495.907875 137.239893 
L 497.108725 150.770567 
L 497.509009 163.238497 
L 497.909292 143.040516 
L 498.309575 136.585603 
L 498.709859 139.698312 
L 499.910709 143.326404 
L 500.310992 122.283795 
L 500.711276 130.314722 
L 501.111559 132.703941 
L 501.511843 128.094453 
L 502.712693 124.837359 
L 503.51326 125.630307 
L 503.913543 112.036453 
L 504.313826 93.811735 
L 505.514677 81.882759 
L 505.91496 88.212409 
L 506.315243 85.1356 
L 506.715527 85.20493 
L 507.11581 75.463044 
L 508.31666 79.648757 
L 508.716944 98.350898 
L 509.117227 123.238203 
L 509.917794 133.575276 
L 511.118644 157.181264 
L 511.919211 153.982244 
L 512.319494 161.297765 
L 513.920628 173.203297 
L 514.320911 173.059682 
L 514.721195 169.612771 
L 515.121478 169.61288 
L 515.521762 177.080803 
L 516.722612 174.87977 
L 517.122895 179.105841 
L 517.523178 149.322284 
L 517.923462 143.237589 
L 518.323745 150.130776 
L 519.524595 130.925993 
L 519.924879 130.37418 
L 520.325162 127.565429 
L 520.725446 132.568862 
L 521.125729 135.793382 
L 522.326579 149.51114 
L 522.726863 145.33003 
L 523.127146 147.853879 
L 523.527429 146.700226 
L 523.927713 147.665221 
L 525.128563 138.689642 
L 525.528846 147.631605 
L 525.92913 165.314882 
L 526.329413 157.138625 
L 526.729697 168.527849 
L 527.930547 153.678823 
L 528.33083 167.41582 
L 528.731114 150.428678 
L 529.131397 141.696456 
L 529.53168 116.354372 
L 531.132814 125.390429 
L 531.933381 92.316317 
L 532.333664 111.536115 
L 533.534514 115.015411 
L 533.934798 117.623841 
L 534.335081 89.724391 
L 534.735365 104.300504 
L 535.135648 129.308295 
L 536.336498 161.115344 
L 536.736782 155.098755 
L 537.137065 146.656093 
L 537.537348 160.704694 
L 537.937632 170.302253 
L 539.538765 156.582701 
L 539.939049 158.254179 
L 540.339332 151.886362 
L 540.739616 133.105903 
L 541.940466 135.02111 
L 542.340749 149.450605 
L 542.741033 142.099805 
L 543.141316 139.758472 
L 543.541599 121.040135 
L 545.142733 98.606972 
L 545.543016 97.450108 
L 545.9433 102.989137 
L 546.343583 89.058794 
L 547.544433 99.85553 
L 547.944717 130.184015 
L 548.345 130.74116 
L 548.745284 138.523855 
L 549.145567 151.915097 
L 550.346417 151.384453 
L 550.746701 123.544371 
L 551.146984 125.670073 
L 551.547267 112.199846 
L 551.947551 128.393791 
L 553.148401 139.038459 
L 553.548684 159.61716 
L 553.948968 129.530941 
L 554.749535 107.354553 
L 555.950385 91.585851 
L 556.350668 96.336044 
L 556.750952 90.571563 
L 557.151235 91.816716 
L 557.551518 88.321438 
L 558.752369 98.535126 
L 559.152652 99.329459 
L 559.953219 90.356871 
L 560.353502 83.168571 
L 561.554352 66.213523 
L 562.354919 92.967595 
L 562.755203 104.069217 
L 563.155486 108.174563 
L 564.356336 122.289272 
L 564.75662 144.08625 
L 565.156903 149.064139 
L 565.557186 138.600442 
L 565.95747 153.896517 
L 567.15832 163.191954 
L 567.558603 186.793797 
L 567.958887 186.184636 
L 568.35917 206.169143 
L 568.759454 214.816667 
L 570.360587 215.46 
L 570.760871 197.061669 
L 571.161154 194.827343 
L 571.561437 172.751924 
L 572.762288 154.993446 
L 573.162571 172.195083 
L 573.562854 170.978399 
L 573.963138 184.545583 
L 574.363421 175.67351 
L 575.564271 172.743387 
L 575.964555 172.52001 
L 576.364838 174.785754 
L 576.765122 167.900556 
L 577.165405 166.321667 
L 578.366255 163.213211 
L 578.766539 179.537377 
L 579.166822 166.343412 
L 579.567105 189.052518 
L 579.967389 200.168731 
L 581.168239 157.344058 
L 581.968806 121.112387 
L 582.369089 125.455857 
L 582.769373 148.130077 
L 583.970223 152.116058 
L 584.370506 152.554753 
L 584.77079 156.100547 
L 585.171073 135.818633 
L 585.571356 142.902517 
L 586.772207 128.619469 
L 587.17249 133.562299 
L 587.572773 131.485341 
L 587.973057 125.265843 
L 588.37334 127.970561 
L 589.57419 132.666853 
L 589.974474 127.851683 
L 590.374757 148.709874 
L 590.775041 140.066633 
L 591.175324 121.698529 
L 592.376174 121.561245 
L 592.776458 127.140638 
L 593.176741 147.264477 
L 593.577024 147.434916 
L 593.977308 150.105951 
L 595.178158 142.411282 
L 595.578441 139.011823 
L 595.978725 143.122414 
L 596.379008 129.223869 
L 596.779292 130.207377 
L 597.980142 138.91502 
L 598.380425 117.365342 
L 598.780708 110.40845 
L 599.180992 120.859213 
L 599.581275 115.523019 
L 600.782125 107.31625 
L 601.582692 68.791509 
L 602.383259 74.700631 
L 603.584109 99.492866 
L 603.984393 104.832854 
L 604.384676 76.672045 
L 604.784959 99.368287 
L 605.185243 106.517037 
L 606.386093 104.011828 
L 606.786376 120.615781 
L 607.18666 123.602745 
L 607.586943 117.022872 
L 607.987227 120.814062 
L 609.188077 109.842945 
L 609.58836 107.703488 
L 609.988644 111.124639 
L 610.388927 127.496751 
L 610.78921 124.98834 
L 611.990061 129.870226 
L 612.390344 158.511392 
L 612.790627 150.96187 
L 613.190911 160.621102 
L 613.591194 152.667044 
L 615.192328 147.28123 
L 615.592611 150.106683 
L 615.992895 142.217524 
L 616.393178 140.879867 
L 617.994312 158.886603 
L 618.394595 184.608393 
L 618.794878 190.703261 
L 619.195162 176.448422 
L 620.396012 165.375046 
L 621.196579 141.476079 
L 621.596862 141.244381 
L 621.997146 127.873757 
L 623.598279 126.691688 
L 623.998563 132.333393 
L 624.398846 135.045249 
L 624.799129 131.529446 
L 625.99998 125.07372 
L 626.400263 125.640932 
L 626.800546 105.265419 
L 627.20083 75.423258 
L 627.601113 77.893964 
L 628.801963 97.468151 
L 629.202247 93.059668 
L 629.60253 95.575824 
L 630.002814 85.427602 
L 630.403097 100.211625 
L 631.603947 104.612775 
L 632.004231 85.240973 
L 632.404514 78.696852 
L 632.804797 92.629101 
L 633.205081 96.229262 
L 634.806214 83.535226 
L 635.606781 109.04179 
L 636.007065 106.645 
L 637.608198 122.061207 
L 638.008482 131.010281 
L 638.408765 146.454586 
L 638.809048 145.421501 
L 640.009899 140.995811 
L 640.410182 169.348446 
L 640.810465 172.336516 
L 641.210749 154.460678 
L 641.611032 143.747135 
L 643.212166 166.583125 
L 643.612449 164.212283 
L 644.012733 154.711075 
L 644.413016 154.027343 
L 645.613866 126.901165 
L 646.01415 109.556547 
L 646.414433 107.195228 
L 646.814716 78.102792 
L 647.215 76.100268 
L 648.41585 92.534114 
L 648.816133 83.561451 
L 649.216417 92.086474 
L 650.016984 89.425423 
L 651.217834 92.894566 
L 651.618117 94.486534 
L 652.018401 86.331659 
L 652.418684 74.887651 
L 652.818967 75.64296 
L 654.019818 83.926409 
L 654.420101 88.774957 
L 654.820384 111.831726 
L 655.220668 105.084947 
L 656.821801 90.768295 
L 657.222085 111.497846 
L 657.622368 106.682978 
L 658.022652 105.152538 
L 658.422935 118.857534 
L 659.623785 104.266271 
L 660.024069 102.350886 
L 660.424352 111.229382 
L 661.224919 136.935839 
L 662.425769 143.738718 
L 662.826052 155.460283 
L 663.226336 112.732206 
L 663.626619 109.977317 
L 664.026903 103.022194 
L 665.227753 92.90087 
L 665.628036 93.920481 
L 666.02832 103.709393 
L 666.428603 93.374925 
L 666.828886 90.432075 
L 668.029737 94.31056 
L 668.43002 98.251745 
L 668.830303 87.333056 
L 669.230587 91.527257 
L 669.63087 84.957301 
L 670.83172 67.457132 
L 671.232004 85.208079 
L 671.632287 97.10528 
L 672.032571 92.73509 
L 672.432854 85.868333 
L 673.633704 80.477508 
L 674.033988 99.831992 
L 674.434271 106.428325 
L 675.234838 80.709483 
L 676.835971 80.809469 
L 677.236255 95.149484 
L 677.636538 83.79259 
L 678.036822 77.664055 
L 679.237672 77.617712 
L 679.637955 86.364496 
L 680.038238 114.224752 
L 680.438522 118.146166 
L 680.838805 115.473791 
L 682.039655 112.327666 
L 682.439939 96.460578 
L 682.840222 89.764755 
L 683.240506 91.126891 
L 683.640789 113.13365 
L 685.241923 118.350912 
L 685.642206 121.460916 
L 686.042489 118.577047 
L 686.442773 130.662888 
L 687.643623 140.571313 
L 688.043906 128.859957 
L 688.44419 110.739434 
L 688.844473 114.632133 
L 689.244757 109.676285 
L 690.445607 120.606112 
L 691.246174 123.900517 
L 691.646457 123.795805 
L 692.04674 149.544393 
L 693.247591 148.994371 
L 693.647874 140.84118 
L 694.048157 123.073833 
L 694.448441 124.322704 
L 694.848724 109.299418 
L 696.049574 90.423414 
L 696.449858 81.291148 
L 697.650708 124.62478 
L 698.851558 117.81596 
L 699.251842 109.986149 
L 699.652125 134.792219 
L 700.052408 138.495828 
L 700.452692 121.833357 
L 701.653542 125.822201 
L 702.053825 131.187104 
L 702.454109 148.946236 
L 702.854392 153.723491 
L 703.254676 152.737486 
L 704.455526 173.517187 
L 704.855809 173.225593 
L 705.656376 164.573736 
L 706.056659 169.587399 
L 707.25751 176.428359 
L 708.058076 153.810362 
L 708.45836 187.201622 
L 708.858643 184.685383 
L 710.059493 165.024993 
L 710.86006 127.103127 
L 711.260344 147.546749 
L 711.660627 145.600531 
L 712.861477 134.434827 
L 713.261761 112.455516 
L 713.662044 113.133104 
L 714.062327 110.382965 
L 714.462611 115.162256 
L 716.063744 97.797785 
L 716.464028 97.416237 
L 716.864311 95.473583 
L 717.264595 87.376676 
L 718.465445 89.83855 
L 718.865728 109.641071 
L 719.266012 110.078601 
L 719.666295 84.253453 
L 720.066578 114.470246 
L 721.267429 118.630315 
L 721.667712 129.50384 
L 722.067995 146.077234 
L 722.468279 146.427087 
L 722.868562 152.494132 
L 724.069412 163.74658 
L 724.469696 169.706506 
L 724.869979 164.324562 
L 725.270263 174.505288 
L 725.670546 179.547497 
L 726.871396 152.3598 
L 727.27168 176.434165 
L 727.671963 168.133703 
L 728.072246 154.928998 
L 728.47253 133.632644 
L 729.67338 127.847478 
L 730.073663 113.557753 
L 730.473947 103.748634 
L 730.87423 100.404171 
L 731.274514 109.943754 
L 732.475364 89.181644 
L 732.875647 91.580427 
L 733.275931 97.888068 
L 733.676214 99.095532 
L 734.076497 120.099841 
L 735.277348 93.044638 
L 735.677631 100.106435 
L 736.077914 86.102231 
L 736.478198 128.888831 
L 736.878481 130.087419 
L 738.079331 114.924132 
L 738.479615 119.840567 
L 738.879898 106.177981 
L 739.280182 96.433489 
L 739.680465 96.900215 
L 740.881315 91.81486 
L 741.281599 84.006741 
L 741.681882 82.852076 
L 742.482449 73.837647 
L 743.683299 80.923964 
L 744.083582 85.84462 
L 744.483866 51.534222 
L 744.884149 49.929054 
L 745.284433 72.293378 
L 746.485283 67.909787 
L 746.885566 84.477332 
L 747.28585 82.320958 
L 748.086416 87.275187 
L 749.287267 89.820059 
L 749.68755 89.717595 
L 750.087833 101.79404 
L 750.488117 95.910132 
L 750.8884 119.080823 
L 752.08925 124.057084 
L 752.489534 124.415912 
L 753.290101 140.052699 
L 753.690384 121.16746 
L 754.891234 143.868483 
L 755.291518 127.035476 
L 755.691801 139.139766 
L 756.092084 154.812194 
L 756.492368 145.785016 
L 757.693218 151.030947 
L 758.093501 142.583854 
L 758.493785 147.604125 
L 759.294352 116.927733 
L 760.895485 124.445478 
L 761.295768 114.964897 
L 761.696052 117.311254 
L 762.096335 124.30284 
L 763.697469 131.34586 
L 764.097752 142.335065 
L 764.498036 149.26473 
L 764.898319 122.832004 
L 766.099169 115.570905 
L 766.499453 118.212695 
L 767.300019 86.479011 
L 767.700303 84.923816 
L 769.301436 83.703674 
L 769.70172 87.226444 
L 770.102003 78.537248 
L 770.502287 74.450983 
L 771.703137 82.980114 
L 772.10342 61.129442 
L 772.503704 57.578196 
L 772.903987 45.627286 
L 773.30427 48.753014 
L 774.505121 49.223736 
L 774.905404 54.423408 
L 775.305687 98.848267 
L 775.705971 93.119301 
L 776.106254 89.055267 
L 777.307104 104.125565 
L 777.707388 102.747638 
L 778.107671 97.957774 
L 778.507955 103.470688 
L 778.908238 91.530344 
L 780.109088 105.02004 
L 780.509372 124.746836 
L 780.909655 122.630196 
L 781.309938 125.517538 
L 781.710222 136.989314 
L 783.311355 137.175364 
L 783.711639 121.252028 
L 784.111922 116.568693 
L 784.512206 130.27846 
L 785.713056 125.256609 
L 786.113339 125.065657 
L 786.513623 142.080044 
L 786.913906 129.505203 
L 787.314189 139.038747 
L 788.51504 129.074108 
L 788.915323 136.378891 
L 789.315606 147.328139 
L 789.71589 124.584115 
L 790.116173 125.517962 
L 791.317023 126.457078 
L 791.717307 107.548691 
L 792.11759 122.994867 
L 792.517874 104.273518 
L 792.918157 116.140324 
L 794.119007 114.837549 
L 794.519291 110.083145 
L 794.919574 112.607296 
L 795.319857 109.874138 
L 795.720141 109.961726 
L 796.920991 97.612162 
L 797.321274 98.984397 
L 797.721558 108.128515 
L 798.121841 103.10705 
L 799.722975 94.236374 
L 800.123258 117.298094 
L 800.523542 119.162557 
L 800.923825 147.790378 
L 801.324108 107.456569 
L 802.524959 112.017409 
L 802.925242 117.200933 
L 803.325525 135.387623 
L 803.725809 133.90094 
L 804.126092 145.962027 
L 805.326942 150.357059 
L 805.727226 145.720187 
L 806.127509 150.16476 
L 806.527793 160.163412 
L 806.928076 175.534757 
L 808.128926 167.529376 
L 808.52921 151.408532 
L 808.929493 144.951238 
L 809.329776 173.005887 
L 809.73006 156.898474 
L 810.93091 164.152069 
L 811.331193 172.20777 
L 811.731477 170.56206 
L 812.13176 160.795263 
L 812.532044 138.918588 
L 813.732894 131.293706 
L 814.133177 132.963455 
L 814.933744 112.814205 
L 815.334027 112.193164 
L 816.534878 121.459249 
L 816.935161 119.766301 
L 817.335444 94.651255 
L 817.735728 106.252174 
L 818.136011 99.611687 
L 819.336861 61.436229 
L 820.137428 63.457126 
L 820.537712 83.022054 
L 820.937995 87.756564 
L 822.539129 71.309937 
L 822.939412 77.593494 
L 823.339695 123.85686 
L 823.739979 127.690598 
L 824.940829 128.942722 
L 825.341112 129.52814 
L 825.741396 128.162543 
L 826.141679 122.588717 
L 826.541963 122.337493 
L 827.742813 124.563827 
L 828.143096 122.337493 
L 828.943663 101.49642 
L 829.343946 104.655505 
L 830.544797 96.973093 
L 830.94508 99.092291 
L 831.745647 55.130669 
L 832.14593 53.187967 
L 833.34678 55.137891 
L 833.747064 54.756574 
L 834.147347 58.812553 
L 834.547631 58.685997 
L 834.947914 78.710835 
L 836.148764 73.264025 
L 836.549048 75.245254 
L 836.949331 82.630619 
L 837.749898 75.821716 
L 838.950748 80.987202 
L 839.351031 107.335957 
L 839.751315 93.110094 
L 840.151598 116.202834 
L 840.551882 123.982429 
L 841.752732 119.624398 
L 842.553298 143.111238 
L 842.953582 148.22574 
L 843.353865 144.963554 
L 844.554715 152.286879 
L 844.954999 153.563023 
L 845.755566 191.6721 
L 846.155849 178.034237 
L 847.356699 171.022612 
L 847.756983 186.209734 
L 848.157266 181.909079 
L 848.557549 181.969998 
L 848.957833 187.980524 
L 850.158683 192.191787 
L 850.558966 181.149454 
L 850.95925 180.015754 
L 851.359533 170.57204 
L 851.759817 174.846512 
L 852.960667 176.847796 
L 853.36095 150.61604 
L 853.761234 132.447816 
L 854.161517 135.61499 
L 854.5618 141.818227 
L 855.762651 131.066929 
L 856.162934 118.396082 
L 856.563217 117.339093 
L 856.963501 117.312513 
L 857.363784 84.352457 
L 858.564634 99.478967 
L 858.964918 95.673995 
L 859.365201 111.242124 
L 859.765485 112.686878 
L 860.165768 107.175148 
L 862.167185 145.571613 
L 862.567468 160.131309 
L 862.967752 166.348741 
L 864.168602 163.568086 
L 864.568885 150.272355 
L 865.369452 109.642706 
L 865.769736 106.452159 
L 866.970586 98.110423 
L 867.370869 94.165774 
L 867.771153 96.64553 
L 868.171436 91.261399 
L 868.571719 102.297291 
L 869.77257 89.460295 
L 870.172853 97.954064 
L 870.573136 93.896985 
L 870.97342 80.40206 
L 871.373703 92.194386 
L 872.574553 99.464141 
L 872.974837 134.470437 
L 873.37512 148.697789 
L 873.775404 158.198791 
L 874.175687 160.829668 
L 875.376537 178.928873 
L 875.776821 160.300821 
L 876.177104 174.238462 
L 876.577387 172.085292 
L 876.977671 168.312215 
L 878.178521 153.173452 
L 878.578804 162.805119 
L 878.979088 165.656957 
L 879.379371 158.345981 
L 879.779655 161.108214 
L 880.980505 136.431773 
L 881.380788 100.618914 
L 881.781072 108.62875 
L 882.181355 106.786904 
L 882.581638 75.499219 
L 883.782489 91.055374 
L 884.182772 86.281108 
L 884.583055 77.976625 
L 884.983339 147.246491 
L 885.383622 144.869263 
L 886.584472 146.981596 
L 886.984756 137.687171 
L 887.385039 125.08153 
L 887.785323 120.141551 
L 888.185606 125.090469 
L 889.386456 143.395793 
L 889.78674 132.20701 
L 890.187023 129.445845 
L 890.587306 131.777395 
L 890.98759 143.836436 
L 892.18844 150.426274 
L 892.588723 148.267298 
L 892.989007 113.987119 
L 893.38929 123.974356 
L 893.789574 113.57468 
L 894.990424 115.381863 
L 895.390707 114.625732 
L 895.790991 132.919919 
L 896.591557 126.760286 
L 897.792408 105.573537 
L 898.192691 112.567877 
L 898.993258 102.042316 
L 899.393541 68.979728 
L 900.594391 67.683241 
L 900.994675 77.850021 
L 901.394958 66.390547 
L 901.795242 60.418513 
L 902.195525 70.501033 
L 903.396375 68.61747 
L 903.796659 73.715761 
L 904.196942 105.737073 
L 904.597225 107.096321 
L 904.997509 119.239645 
L 906.198359 122.43299 
L 906.598642 126.314402 
L 907.399209 139.694889 
L 907.799493 154.416115 
L 909.000343 167.344814 
L 909.400626 168.038199 
L 910.201193 185.641142 
L 910.601476 174.514661 
L 911.802327 161.79738 
L 912.20261 176.910828 
L 912.602893 178.535399 
L 913.40346 166.876438 
L 914.60431 168.582152 
L 915.004594 169.846615 
L 915.404877 144.484359 
L 915.805161 154.801122 
L 916.205444 144.502861 
L 917.806578 133.708164 
L 918.206861 98.601919 
L 918.607144 91.319948 
L 919.007428 90.739765 
L 920.208278 113.95579 
L 920.608561 105.199395 
L 921.008845 104.210329 
L 921.409128 139.392896 
L 921.809412 134.077649 
L 923.010262 136.374 
L 923.410545 133.389582 
L 923.810828 144.610621 
L 924.211112 139.765001 
L 924.611395 151.029379 
L 925.812245 147.398079 
L 926.212529 175.313569 
L 926.612812 177.910578 
L 927.013096 173.278444 
L 927.413379 167.344657 
L 929.014513 194.235012 
L 929.414796 176.94072 
L 929.815079 124.149858 
L 930.215363 144.666655 
L 931.416213 144.828202 
L 931.816496 159.717813 
L 932.21678 157.192776 
L 932.617063 173.530203 
L 933.017347 153.921748 
L 934.218197 170.852739 
L 934.61848 169.723393 
L 935.018764 141.041814 
L 935.419047 148.853469 
L 935.81933 150.564598 
L 937.020181 165.078083 
L 937.420464 173.574306 
L 937.820747 172.405481 
L 938.221031 169.76888 
L 938.621314 149.416725 
L 939.822164 142.539505 
L 940.222448 151.076765 
L 940.622731 136.413947 
L 941.023015 144.423758 
L 941.423298 125.907953 
L 942.624148 123.523638 
L 943.024432 140.198564 
L 943.424715 141.813316 
L 943.824998 134.950963 
L 944.225282 132.562606 
L 945.426132 138.84025 
L 946.226699 124.177861 
L 946.626982 157.442254 
L 947.027266 171.460185 
L 948.228116 168.662618 
L 948.628399 180.866364 
L 949.028683 126.448672 
L 949.428966 139.452261 
L 949.829249 134.241563 
L 951.0301 136.781303 
L 951.430383 134.055471 
L 951.830666 145.87494 
L 952.23095 139.910292 
L 953.832083 143.940978 
L 954.232367 143.072585 
L 954.63265 136.229008 
L 955.433217 103.593104 
L 956.634067 102.22561 
L 957.034351 96.940687 
L 957.434634 124.393969 
L 957.834917 88.237558 
L 958.235201 86.754401 
L 959.436051 85.443655 
L 959.836334 86.480824 
L 960.236618 65.020761 
L 960.636901 56.681709 
L 961.037185 39.315808 
L 962.238035 39.06 
L 963.038602 41.163534 
L 963.438885 41.668558 
L 963.839168 39.649669 
L 965.040019 39.446317 
L 965.440302 41.455771 
L 965.840585 70.653471 
L 966.240869 78.323591 
L 966.641152 95.801089 
L 968.242286 74.783453 
L 968.642569 84.380195 
L 969.042853 88.079126 
L 969.443136 86.836522 
L 970.643986 98.513216 
L 971.04427 96.59728 
L 971.444553 101.281093 
L 971.844836 96.753326 
L 972.24512 94.467823 
L 973.44597 97.786337 
L 973.846253 101.182605 
L 974.246537 80.184966 
L 974.64682 75.747013 
L 975.047104 72.999229 
L 976.247954 80.226554 
L 976.648237 70.576629 
L 977.048521 69.5939 
L 977.849087 83.795352 
L 979.450221 72.376269 
L 980.250788 70.173187 
L 980.651071 77.366895 
L 981.851921 78.249773 
L 982.252205 88.766906 
L 982.652488 93.430063 
L 983.052772 91.612192 
L 984.653905 83.720226 
L 985.054189 92.060722 
L 985.454472 80.944213 
L 985.854755 88.96632 
L 986.255039 78.908388 
L 987.455889 89.801313 
L 987.856172 91.697471 
L 988.256456 95.802149 
L 988.656739 94.327338 
L 989.057023 94.803858 
L 990.257873 97.240969 
L 990.658156 95.2405 
L 991.05844 90.753518 
L 991.458723 95.492497 
L 991.859006 86.32226 
L 993.059857 86.755245 
L 993.46014 99.62865 
L 993.860423 88.642146 
L 994.260707 65.886683 
L 994.66099 92.554263 
L 995.86184 84.227198 
L 996.662407 111.02418 
L 997.062691 115.082476 
L 997.462974 113.70338 
L 998.663824 106.027106 
L 999.064108 99.14842 
L 999.464391 117.8325 
L 999.864674 118.872861 
L 1000.264958 120.414196 
L 1001.465808 124.576415 
L 1001.866091 133.957804 
L 1002.266375 168.217398 
L 1002.666658 159.829966 
L 1003.066942 179.895107 
L 1004.267792 175.056065 
L 1004.668075 174.414282 
L 1005.068358 156.395384 
L 1005.468642 152.253085 
L 1005.868925 156.050531 
L 1007.470059 177.726581 
L 1007.870342 165.763096 
L 1008.270626 163.36274 
L 1008.670909 177.016733 
L 1008.670909 177.016733 
" clip-path="url(#pcde6bb889a)" style="fill: none; stroke: #1f77b4; stroke-width: 1.5; stroke-linecap: square"/>
   </g>
   <g id="patch_3">
    <path d="M 145.8 224.28 
L 145.8 30.24 
" style="fill: none; stroke: #000000; stroke-width: 0.8; stroke-linejoin: miter; stroke-linecap: square"/>
   </g>
   <g id="patch_4">
    <path d="M 145.8 224.28 
L 1049.76 224.28 
" style="fill: none; stroke: #000000; stroke-width: 0.8; stroke-linejoin: miter; stroke-linecap: square"/>
   </g>
  </g>
 </g>
 <defs>
  <clipPath id="pcde6bb889a">
   <rect x="145.8" y="30.24" width="903.96" height="194.04"/>
  </clipPath>
 </defs>
</svg>
