<?xml version="1.0" encoding="utf-8" standalone="no"?>
<!DOCTYPE svg PUBLIC "-//W3C//DTD SVG 1.1//EN"
  "http://www.w3.org/Graphics/SVG/1.1/DTD/svg11.dtd">
<svg xmlns:xlink="http://www.w3.org/1999/xlink" width="756pt" height="252pt" viewBox="0 0 756 252" xmlns="http://www.w3.org/2000/svg" version="1.1">
 <metadata>
  <rdf:RDF xmlns:dc="http://purl.org/dc/elements/1.1/" xmlns:cc="http://creativecommons.org/ns#" xmlns:rdf="http://www.w3.org/1999/02/22-rdf-syntax-ns#">
   <cc:Work>
    <dc:type rdf:resource="http://purl.org/dc/dcmitype/StillImage"/>
    <dc:date>2025-08-30T18:51:11.271440</dc:date>
    <dc:format>image/svg+xml</dc:format>
    <dc:creator>
     <cc:Agent>
      <dc:title>Matplotlib v3.10.5, https://matplotlib.org/</dc:title>
     </cc:Agent>
    </dc:creator>
   </cc:Work>
  </rdf:RDF>
 </metadata>
 <defs>
  <style type="text/css">*{stroke-linejoin: round; stroke-linecap: butt}</style>
 </defs>
 <g id="figure_1">
  <g id="patch_1">
   <path d="M 0 252 
L 756 252 
L 756 0 
L 0 0 
z
" style="fill: #ffffff"/>
  </g>
  <g id="axes_1">
   <g id="patch_2">
    <path d="M 94.5 224.28 
L 680.4 224.28 
L 680.4 30.24 
L 94.5 30.24 
z
" style="fill: #ffffff"/>
   </g>
   <g id="matplotlib.axis_1">
    <g id="xtick_1">
     <g id="line2d_1">
      <defs>
       <path id="m0eebfb175a" d="M 0 0 
L 0 3.5 
" style="stroke: #000000; stroke-width: 0.8"/>
      </defs>
      <g>
       <use xlink:href="#m0eebfb175a" x="115.659527" y="224.28" style="stroke: #000000; stroke-width: 0.8"/>
      </g>
     </g>
     <g id="text_1">
      <!-- 2020 -->
      <g transform="translate(102.934527 238.878438) scale(0.1 -0.1)">
       <defs>
        <path id="DejaVuSans-32" d="M 1228 531 
L 3431 531 
L 3431 0 
L 469 0 
L 469 531 
Q 828 903 1448 1529 
Q 2069 2156 2228 2338 
Q 2531 2678 2651 2914 
Q 2772 3150 2772 3378 
Q 2772 3750 2511 3984 
Q 2250 4219 1831 4219 
Q 1534 4219 1204 4116 
Q 875 4013 500 3803 
L 500 4441 
Q 881 4594 1212 4672 
Q 1544 4750 1819 4750 
Q 2544 4750 2975 4387 
Q 3406 4025 3406 3419 
Q 3406 3131 3298 2873 
Q 3191 2616 2906 2266 
Q 2828 2175 2409 1742 
Q 1991 1309 1228 531 
z
" transform="scale(0.015625)"/>
        <path id="DejaVuSans-30" d="M 2034 4250 
Q 1547 4250 1301 3770 
Q 1056 3291 1056 2328 
Q 1056 1369 1301 889 
Q 1547 409 2034 409 
Q 2525 409 2770 889 
Q 3016 1369 3016 2328 
Q 3016 3291 2770 3770 
Q 2525 4250 2034 4250 
z
M 2034 4750 
Q 2819 4750 3233 4129 
Q 3647 3509 3647 2328 
Q 3647 1150 3233 529 
Q 2819 -91 2034 -91 
Q 1250 -91 836 529 
Q 422 1150 422 2328 
Q 422 3509 836 4129 
Q 1250 4750 2034 4750 
z
" transform="scale(0.015625)"/>
       </defs>
       <use xlink:href="#DejaVuSans-32"/>
       <use xlink:href="#DejaVuSans-30" transform="translate(63.623047 0)"/>
       <use xlink:href="#DejaVuSans-32" transform="translate(127.246094 0)"/>
       <use xlink:href="#DejaVuSans-30" transform="translate(190.869141 0)"/>
      </g>
     </g>
    </g>
    <g id="xtick_2">
     <g id="line2d_2">
      <g>
       <use xlink:href="#m0eebfb175a" x="211.033748" y="224.28" style="stroke: #000000; stroke-width: 0.8"/>
      </g>
     </g>
     <g id="text_2">
      <!-- 2021 -->
      <g transform="translate(198.308748 238.878438) scale(0.1 -0.1)">
       <defs>
        <path id="DejaVuSans-31" d="M 794 531 
L 1825 531 
L 1825 4091 
L 703 3866 
L 703 4441 
L 1819 4666 
L 2450 4666 
L 2450 531 
L 3481 531 
L 3481 0 
L 794 0 
L 794 531 
z
" transform="scale(0.015625)"/>
       </defs>
       <use xlink:href="#DejaVuSans-32"/>
       <use xlink:href="#DejaVuSans-30" transform="translate(63.623047 0)"/>
       <use xlink:href="#DejaVuSans-32" transform="translate(127.246094 0)"/>
       <use xlink:href="#DejaVuSans-31" transform="translate(190.869141 0)"/>
      </g>
     </g>
    </g>
    <g id="xtick_3">
     <g id="line2d_3">
      <g>
       <use xlink:href="#m0eebfb175a" x="306.147385" y="224.28" style="stroke: #000000; stroke-width: 0.8"/>
      </g>
     </g>
     <g id="text_3">
      <!-- 2022 -->
      <g transform="translate(293.422385 238.878438) scale(0.1 -0.1)">
       <use xlink:href="#DejaVuSans-32"/>
       <use xlink:href="#DejaVuSans-30" transform="translate(63.623047 0)"/>
       <use xlink:href="#DejaVuSans-32" transform="translate(127.246094 0)"/>
       <use xlink:href="#DejaVuSans-32" transform="translate(190.869141 0)"/>
      </g>
     </g>
    </g>
    <g id="xtick_4">
     <g id="line2d_4">
      <g>
       <use xlink:href="#m0eebfb175a" x="401.261021" y="224.28" style="stroke: #000000; stroke-width: 0.8"/>
      </g>
     </g>
     <g id="text_4">
      <!-- 2023 -->
      <g transform="translate(388.536021 238.878438) scale(0.1 -0.1)">
       <defs>
        <path id="DejaVuSans-33" d="M 2597 2516 
Q 3050 2419 3304 2112 
Q 3559 1806 3559 1356 
Q 3559 666 3084 287 
Q 2609 -91 1734 -91 
Q 1441 -91 1130 -33 
Q 819 25 488 141 
L 488 750 
Q 750 597 1062 519 
Q 1375 441 1716 441 
Q 2309 441 2620 675 
Q 2931 909 2931 1356 
Q 2931 1769 2642 2001 
Q 2353 2234 1838 2234 
L 1294 2234 
L 1294 2753 
L 1863 2753 
Q 2328 2753 2575 2939 
Q 2822 3125 2822 3475 
Q 2822 3834 2567 4026 
Q 2313 4219 1838 4219 
Q 1578 4219 1281 4162 
Q 984 4106 628 3988 
L 628 4550 
Q 988 4650 1302 4700 
Q 1616 4750 1894 4750 
Q 2613 4750 3031 4423 
Q 3450 4097 3450 3541 
Q 3450 3153 3228 2886 
Q 3006 2619 2597 2516 
z
" transform="scale(0.015625)"/>
       </defs>
       <use xlink:href="#DejaVuSans-32"/>
       <use xlink:href="#DejaVuSans-30" transform="translate(63.623047 0)"/>
       <use xlink:href="#DejaVuSans-32" transform="translate(127.246094 0)"/>
       <use xlink:href="#DejaVuSans-33" transform="translate(190.869141 0)"/>
      </g>
     </g>
    </g>
    <g id="xtick_5">
     <g id="line2d_5">
      <g>
       <use xlink:href="#m0eebfb175a" x="496.374658" y="224.28" style="stroke: #000000; stroke-width: 0.8"/>
      </g>
     </g>
     <g id="text_5">
      <!-- 2024 -->
      <g transform="translate(483.649658 238.878438) scale(0.1 -0.1)">
       <defs>
        <path id="DejaVuSans-34" d="M 2419 4116 
L 825 1625 
L 2419 1625 
L 2419 4116 
z
M 2253 4666 
L 3047 4666 
L 3047 1625 
L 3713 1625 
L 3713 1100 
L 3047 1100 
L 3047 0 
L 2419 0 
L 2419 1100 
L 313 1100 
L 313 1709 
L 2253 4666 
z
" transform="scale(0.015625)"/>
       </defs>
       <use xlink:href="#DejaVuSans-32"/>
       <use xlink:href="#DejaVuSans-30" transform="translate(63.623047 0)"/>
       <use xlink:href="#DejaVuSans-32" transform="translate(127.246094 0)"/>
       <use xlink:href="#DejaVuSans-34" transform="translate(190.869141 0)"/>
      </g>
     </g>
    </g>
    <g id="xtick_6">
     <g id="line2d_6">
      <g>
       <use xlink:href="#m0eebfb175a" x="591.748879" y="224.28" style="stroke: #000000; stroke-width: 0.8"/>
      </g>
     </g>
     <g id="text_6">
      <!-- 2025 -->
      <g transform="translate(579.023879 238.878438) scale(0.1 -0.1)">
       <defs>
        <path id="DejaVuSans-35" d="M 691 4666 
L 3169 4666 
L 3169 4134 
L 1269 4134 
L 1269 2991 
Q 1406 3038 1543 3061 
Q 1681 3084 1819 3084 
Q 2600 3084 3056 2656 
Q 3513 2228 3513 1497 
Q 3513 744 3044 326 
Q 2575 -91 1722 -91 
Q 1428 -91 1123 -41 
Q 819 9 494 109 
L 494 744 
Q 775 591 1075 516 
Q 1375 441 1709 441 
Q 2250 441 2565 725 
Q 2881 1009 2881 1497 
Q 2881 1984 2565 2268 
Q 2250 2553 1709 2553 
Q 1456 2553 1204 2497 
Q 953 2441 691 2322 
L 691 4666 
z
" transform="scale(0.015625)"/>
       </defs>
       <use xlink:href="#DejaVuSans-32"/>
       <use xlink:href="#DejaVuSans-30" transform="translate(63.623047 0)"/>
       <use xlink:href="#DejaVuSans-32" transform="translate(127.246094 0)"/>
       <use xlink:href="#DejaVuSans-35" transform="translate(190.869141 0)"/>
      </g>
     </g>
    </g>
   </g>
   <g id="matplotlib.axis_2">
    <g id="ytick_1">
     <g id="line2d_7">
      <defs>
       <path id="m4fba38cd9f" d="M 0 0 
L -3.5 0 
" style="stroke: #000000; stroke-width: 0.8"/>
      </defs>
      <g>
       <use xlink:href="#m4fba38cd9f" x="94.5" y="206.401112" style="stroke: #000000; stroke-width: 0.8"/>
      </g>
     </g>
     <g id="text_7">
      <!-- 150 -->
      <g transform="translate(68.4125 210.20033) scale(0.1 -0.1)">
       <use xlink:href="#DejaVuSans-31"/>
       <use xlink:href="#DejaVuSans-35" transform="translate(63.623047 0)"/>
       <use xlink:href="#DejaVuSans-30" transform="translate(127.246094 0)"/>
      </g>
     </g>
    </g>
    <g id="ytick_2">
     <g id="line2d_8">
      <g>
       <use xlink:href="#m4fba38cd9f" x="94.5" y="184.654996" style="stroke: #000000; stroke-width: 0.8"/>
      </g>
     </g>
     <g id="text_8">
      <!-- 200 -->
      <g transform="translate(68.4125 188.454215) scale(0.1 -0.1)">
       <use xlink:href="#DejaVuSans-32"/>
       <use xlink:href="#DejaVuSans-30" transform="translate(63.623047 0)"/>
       <use xlink:href="#DejaVuSans-30" transform="translate(127.246094 0)"/>
      </g>
     </g>
    </g>
    <g id="ytick_3">
     <g id="line2d_9">
      <g>
       <use xlink:href="#m4fba38cd9f" x="94.5" y="162.90888" style="stroke: #000000; stroke-width: 0.8"/>
      </g>
     </g>
     <g id="text_9">
      <!-- 250 -->
      <g transform="translate(68.4125 166.708099) scale(0.1 -0.1)">
       <use xlink:href="#DejaVuSans-32"/>
       <use xlink:href="#DejaVuSans-35" transform="translate(63.623047 0)"/>
       <use xlink:href="#DejaVuSans-30" transform="translate(127.246094 0)"/>
      </g>
     </g>
    </g>
    <g id="ytick_4">
     <g id="line2d_10">
      <g>
       <use xlink:href="#m4fba38cd9f" x="94.5" y="141.162765" style="stroke: #000000; stroke-width: 0.8"/>
      </g>
     </g>
     <g id="text_10">
      <!-- 300 -->
      <g transform="translate(68.4125 144.961983) scale(0.1 -0.1)">
       <use xlink:href="#DejaVuSans-33"/>
       <use xlink:href="#DejaVuSans-30" transform="translate(63.623047 0)"/>
       <use xlink:href="#DejaVuSans-30" transform="translate(127.246094 0)"/>
      </g>
     </g>
    </g>
    <g id="ytick_5">
     <g id="line2d_11">
      <g>
       <use xlink:href="#m4fba38cd9f" x="94.5" y="119.416649" style="stroke: #000000; stroke-width: 0.8"/>
      </g>
     </g>
     <g id="text_11">
      <!-- 350 -->
      <g transform="translate(68.4125 123.215868) scale(0.1 -0.1)">
       <use xlink:href="#DejaVuSans-33"/>
       <use xlink:href="#DejaVuSans-35" transform="translate(63.623047 0)"/>
       <use xlink:href="#DejaVuSans-30" transform="translate(127.246094 0)"/>
      </g>
     </g>
    </g>
    <g id="ytick_6">
     <g id="line2d_12">
      <g>
       <use xlink:href="#m4fba38cd9f" x="94.5" y="97.670533" style="stroke: #000000; stroke-width: 0.8"/>
      </g>
     </g>
     <g id="text_12">
      <!-- 400 -->
      <g transform="translate(68.4125 101.469752) scale(0.1 -0.1)">
       <use xlink:href="#DejaVuSans-34"/>
       <use xlink:href="#DejaVuSans-30" transform="translate(63.623047 0)"/>
       <use xlink:href="#DejaVuSans-30" transform="translate(127.246094 0)"/>
      </g>
     </g>
    </g>
    <g id="ytick_7">
     <g id="line2d_13">
      <g>
       <use xlink:href="#m4fba38cd9f" x="94.5" y="75.924418" style="stroke: #000000; stroke-width: 0.8"/>
      </g>
     </g>
     <g id="text_13">
      <!-- 450 -->
      <g transform="translate(68.4125 79.723636) scale(0.1 -0.1)">
       <use xlink:href="#DejaVuSans-34"/>
       <use xlink:href="#DejaVuSans-35" transform="translate(63.623047 0)"/>
       <use xlink:href="#DejaVuSans-30" transform="translate(127.246094 0)"/>
      </g>
     </g>
    </g>
    <g id="ytick_8">
     <g id="line2d_14">
      <g>
       <use xlink:href="#m4fba38cd9f" x="94.5" y="54.178302" style="stroke: #000000; stroke-width: 0.8"/>
      </g>
     </g>
     <g id="text_14">
      <!-- 500 -->
      <g transform="translate(68.4125 57.977521) scale(0.1 -0.1)">
       <use xlink:href="#DejaVuSans-35"/>
       <use xlink:href="#DejaVuSans-30" transform="translate(63.623047 0)"/>
       <use xlink:href="#DejaVuSans-30" transform="translate(127.246094 0)"/>
      </g>
     </g>
    </g>
    <g id="ytick_9">
     <g id="line2d_15">
      <g>
       <use xlink:href="#m4fba38cd9f" x="94.5" y="32.432186" style="stroke: #000000; stroke-width: 0.8"/>
      </g>
     </g>
     <g id="text_15">
      <!-- 550 -->
      <g transform="translate(68.4125 36.231405) scale(0.1 -0.1)">
       <use xlink:href="#DejaVuSans-35"/>
       <use xlink:href="#DejaVuSans-35" transform="translate(63.623047 0)"/>
       <use xlink:href="#DejaVuSans-30" transform="translate(127.246094 0)"/>
      </g>
     </g>
    </g>
   </g>
   <g id="line2d_16">
    <path d="M 121.131818 203.085473 
L 121.392403 202.663471 
L 121.652989 203.35854 
L 122.434745 204.500417 
L 123.216501 200.156304 
L 123.477086 201.21129 
L 124.258842 199.494344 
L 124.519427 197.119586 
L 124.780012 197.210597 
L 125.040598 195.667405 
L 125.301183 195.559842 
L 126.082939 193.569822 
L 126.343524 195.3323 
L 126.60411 195.22059 
L 126.864695 195.634309 
L 127.12528 194.955818 
L 128.428207 193.945693 
L 128.688792 195.13216 
L 128.949377 197.550778 
L 129.991719 201.91502 
L 130.252304 201.043834 
L 130.512889 206.017927 
L 131.55523 199.95692 
L 131.815816 203.391915 
L 132.076401 200.886194 
L 133.379328 209.154217 
L 133.639913 204.881226 
L 133.900498 207.905508 
L 134.161083 213.94993 
L 134.421669 205.748264 
L 135.203425 215.46 
L 135.46401 210.834371 
L 135.724595 213.394006 
L 135.985181 212.435705 
L 136.245766 214.65932 
L 137.027522 215.227673 
L 137.288107 210.100088 
L 137.548692 210.68918 
L 137.809278 206.876682 
L 138.069863 209.535882 
L 138.851619 205.167467 
L 139.112204 206.21291 
L 139.37279 208.536097 
L 139.633375 207.2293 
L 139.89396 207.822533 
L 140.675716 203.076613 
L 140.936301 203.815064 
L 141.196887 203.134701 
L 141.457472 203.130534 
L 142.499813 202.977061 
L 142.760399 199.579389 
L 143.020984 200.334444 
L 143.281569 198.193791 
L 143.542154 197.546617 
L 144.32391 199.015184 
L 144.584496 202.018746 
L 144.845081 199.654069 
L 145.105666 200.525267 
L 145.366252 199.226772 
L 146.148007 199.434205 
L 146.408593 201.19318 
L 146.669178 198.032003 
L 146.929763 197.293545 
L 147.190349 199.218469 
L 148.23269 196.650532 
L 148.753861 195.472355 
L 149.014446 195.024325 
L 149.796202 194.169711 
L 150.317372 197.069541 
L 150.577958 196.74595 
L 150.838543 195.654855 
L 151.620299 194.928888 
L 151.880884 195.459891 
L 152.141469 194.403239 
L 152.402055 195.33094 
L 152.66264 195.297658 
L 153.704981 196.104723 
L 153.965567 196.004865 
L 154.226152 196.175453 
L 154.486737 195.405812 
L 155.268493 195.580541 
L 155.529078 194.715242 
L 155.789664 194.528043 
L 156.050249 195.543098 
L 156.310834 193.762602 
L 157.09259 193.280011 
L 157.353176 192.680964 
L 157.613761 189.752259 
L 157.874346 194.149484 
L 158.134932 193.537927 
L 158.916687 193.038718 
L 159.177273 191.112606 
L 159.437858 190.833884 
L 159.698443 189.968566 
L 159.959029 190.455318 
L 161.00137 187.643096 
L 161.261955 189.336257 
L 161.52254 188.296209 
L 161.783126 189.964431 
L 162.564882 189.086643 
L 162.825467 186.97748 
L 164.388979 183.986387 
L 164.649564 185.005596 
L 164.910149 183.100283 
L 165.170735 182.480424 
L 165.43132 182.75083 
L 166.213076 185.496477 
L 166.473661 184.96398 
L 166.734247 185.092964 
L 166.994832 186.806924 
L 167.255417 187.239584 
L 168.037173 183.611962 
L 168.297758 184.797585 
L 168.558344 183.549586 
L 168.818929 187.381018 
L 169.079514 187.896858 
L 169.86127 186.836038 
L 170.121856 187.597345 
L 170.382441 186.748683 
L 170.643026 186.81524 
L 170.903611 186.353467 
L 171.685367 181.556865 
L 171.945953 182.908922 
L 172.206538 183.054525 
L 172.467123 181.635924 
L 172.727709 183.245885 
L 173.509465 185.005596 
L 173.77005 187.031546 
L 174.030635 184.61456 
L 174.29122 184.818404 
L 174.551806 184.735197 
L 175.333562 184.161089 
L 175.594147 183.657746 
L 175.854732 184.191504 
L 176.115318 182.156476 
L 176.375903 182.807014 
L 177.157659 182.527622 
L 177.418244 181.368325 
L 178.2 176.180661 
L 178.981756 177.59017 
L 179.242341 176.86456 
L 179.502927 175.038034 
L 179.763512 181.022178 
L 181.066438 187.127289 
L 181.327024 183.528462 
L 181.587609 185.997172 
L 181.848194 186.555983 
L 182.62995 185.980488 
L 182.890535 184.575154 
L 183.411706 187.023045 
L 183.672291 188.073904 
L 184.454047 187.177341 
L 184.714633 185.142293 
L 184.975218 187.990524 
L 185.235803 186.906271 
L 185.496389 184.97548 
L 186.278144 184.299929 
L 186.53873 185.209008 
L 187.0599 183.040549 
L 187.320486 185.655232 
L 188.102242 183.907918 
L 188.362827 185.77198 
L 188.623412 184.137285 
L 188.883998 183.824512 
L 189.144583 181.643536 
L 190.186924 178.703583 
L 190.708095 180.038034 
L 190.96868 180.038034 
L 191.750436 182.306604 
L 192.271606 182.064728 
L 192.532192 182.027192 
L 192.792777 181.468402 
L 193.574533 184.033034 
L 193.835118 182.711105 
L 194.095704 187.118947 
L 194.356289 186.268235 
L 194.616874 187.206534 
L 195.39863 187.264901 
L 195.659215 185.555149 
L 196.180386 178.524281 
L 196.440971 178.344972 
L 197.222727 180.567631 
L 197.483313 183.645216 
L 197.743898 181.334937 
L 198.004483 181.797845 
L 198.265068 181.351648 
L 199.046824 181.051391 
L 199.567995 183.385561 
L 199.82858 182.825324 
L 200.089166 183.674078 
L 200.870922 183.791144 
L 201.131507 182.223238 
L 201.392092 182.219063 
L 201.913263 181.650424 
L 202.695019 182.135432 
L 202.955604 181.240681 
L 203.476775 182.064356 
L 203.73736 182.014185 
L 204.519116 182.043465 
L 204.779701 181.324326 
L 205.040286 183.084528 
L 205.300872 183.619713 
L 205.561457 182.4741 
L 206.343213 182.081086 
L 206.603798 182.110346 
L 206.864384 179.957097 
L 207.124969 179.898564 
L 207.385554 180.245587 
L 208.427895 178.008746 
L 208.688481 179.22959 
L 208.949066 178.506283 
L 209.991407 177.582252 
L 210.251993 177.920927 
L 210.512578 178.953662 
L 210.773163 178.64426 
L 211.815504 180.621891 
L 212.07609 180.534071 
L 212.336675 182.89638 
L 212.59726 180.371028 
L 212.857846 179.814959 
L 213.639601 180.705509 
L 213.900187 181.775885 
L 214.160772 181.186348 
L 214.421357 182.574449 
L 214.681943 182.729156 
L 215.724284 181.144519 
L 215.984869 177.841483 
L 216.50604 177.168328 
L 217.287796 175.671517 
L 217.548381 174.500812 
L 217.808966 174.262499 
L 218.069552 171.741315 
L 218.330137 174.655492 
L 219.111893 171.440275 
L 219.372478 171.498802 
L 219.633064 170.039633 
L 219.893649 170.453551 
L 220.154234 170.374107 
L 220.93599 170.261215 
L 221.196575 169.717675 
L 221.457161 170.114876 
L 221.717746 169.416642 
L 221.978331 169.207589 
L 223.020672 169.746961 
L 223.281258 169.302728 
L 223.541843 169.474564 
L 223.802428 170.656345 
L 224.84477 173.883156 
L 225.105355 173.34677 
L 225.36594 175.676779 
L 225.626526 174.256135 
L 226.408281 172.345173 
L 226.668867 173.631717 
L 226.929452 176.276072 
L 227.190037 176.623865 
L 227.450623 174.583003 
L 228.232379 176.3473 
L 228.492964 173.669438 
L 228.753549 174.239364 
L 229.014134 172.265543 
L 229.27472 172.843865 
L 230.056476 173.237788 
L 230.317061 172.022486 
L 230.577646 172.303285 
L 230.838232 174.951787 
L 231.098817 175.106833 
L 232.141158 172.076951 
L 232.401743 172.965397 
L 232.662329 174.272898 
L 232.922914 172.537947 
L 233.70467 173.057603 
L 233.965255 174.478235 
L 234.225841 172.835496 
L 234.486426 170.078011 
L 235.528767 167.26186 
L 235.789352 167.768933 
L 236.049938 166.91404 
L 236.571108 164.420563 
L 237.352864 164.395418 
L 237.61345 163.314244 
L 237.874035 164.529539 
L 238.13462 162.890969 
L 238.395205 162.371353 
L 239.437547 163.410611 
L 239.698132 162.438387 
L 239.958717 163.867414 
L 240.219303 162.199504 
L 241.001059 162.031868 
L 241.261644 161.855865 
L 241.522229 164.961183 
L 241.782814 165.820264 
L 242.0434 165.958579 
L 242.825156 166.092667 
L 243.085741 167.798266 
L 243.346326 168.351448 
L 243.867497 165.841215 
L 244.649253 168.053906 
L 244.909838 168.452029 
L 245.170423 171.481899 
L 245.691594 167.64742 
L 246.47335 168.892055 
L 246.733935 169.772093 
L 246.994521 169.520063 
L 247.255106 168.108749 
L 247.515691 168.659012 
L 248.297447 166.302596 
L 248.558032 165.907758 
L 248.818618 166.004357 
L 249.079203 166.920039 
L 249.339788 166.764615 
L 250.38213 167.722319 
L 250.642715 167.764327 
L 250.9033 168.43218 
L 251.163885 166.298395 
L 251.945641 165.02989 
L 252.206227 165.550727 
L 252.466812 165.122288 
L 252.727397 163.589163 
L 253.769738 162.476055 
L 254.290909 163.530345 
L 254.551494 162.051811 
L 254.81208 162.669247 
L 255.593836 161.325159 
L 255.854421 160.115439 
L 256.115006 160.216259 
L 256.375592 159.619767 
L 256.636177 160.32122 
L 257.417933 158.767124 
L 257.678518 157.64142 
L 257.939103 157.851422 
L 258.199689 157.557417 
L 258.460274 155.016184 
L 259.502615 155.01199 
L 259.7632 154.05854 
L 260.023786 155.112757 
L 260.284371 154.894367 
L 261.066127 155.154819 
L 261.326712 153.61746 
L 261.587298 152.974805 
L 261.847883 153.596449 
L 262.108468 153.714059 
L 262.890224 155.285011 
L 263.411395 153.441038 
L 263.932565 149.967367 
L 264.714321 150.227765 
L 264.974907 151.282075 
L 265.235492 151.416475 
L 265.496077 151.298852 
L 265.756663 151.966711 
L 266.538418 152.004525 
L 266.799004 151.03848 
L 267.059589 151.294657 
L 267.320174 150.030346 
L 267.58076 150.055577 
L 268.362516 150.530185 
L 268.623101 151.324083 
L 268.883686 151.109847 
L 269.404857 148.631634 
L 270.186613 147.896588 
L 270.707783 149.288318 
L 271.228954 143.552276 
L 272.01071 143.430233 
L 272.271295 144.284521 
L 272.53188 144.541217 
L 272.792466 145.77009 
L 273.053051 145.504953 
L 273.834807 143.876317 
L 274.095392 144.595954 
L 274.355978 144.616991 
L 274.616563 144.903166 
L 274.877148 144.907373 
L 276.180075 145.298747 
L 276.44066 146.544464 
L 276.701245 147.19256 
L 277.483001 146.653871 
L 277.743587 145.475488 
L 278.004172 143.358679 
L 278.264757 143.19034 
L 278.525342 145.441828 
L 279.307098 147.785946 
L 279.567684 147.575546 
L 279.828269 145.984738 
L 280.088854 145.572313 
L 280.34944 145.660669 
L 281.131196 147.840617 
L 281.391781 152.322621 
L 281.652366 152.120609 
L 281.912951 152.995949 
L 282.173537 149.974308 
L 282.955293 152.49514 
L 283.476463 148.286768 
L 283.737049 147.554456 
L 283.997634 147.554456 
L 284.77939 147.815385 
L 285.039975 148.383526 
L 285.30056 146.940032 
L 285.561146 144.229824 
L 285.821731 143.615374 
L 286.864072 141.923587 
L 287.124658 142.268719 
L 287.385243 140.858858 
L 287.645828 141.532252 
L 288.427584 141.965701 
L 288.688169 141.132423 
L 288.948755 135.636246 
L 289.20934 135.139672 
L 289.469925 132.080164 
L 290.251681 133.027018 
L 290.512267 131.444651 
L 290.772852 131.078521 
L 291.033437 130.051699 
L 291.294022 130.21161 
L 292.075778 129.820196 
L 292.336364 130.257879 
L 292.596949 132.425243 
L 292.857534 131.739266 
L 293.11812 129.933824 
L 293.899875 130.207402 
L 294.160461 128.759688 
L 294.421046 128.662717 
L 294.942217 126.980499 
L 295.723973 128.363376 
L 295.984558 129.26984 
L 296.245143 129.172882 
L 296.766314 132.642758 
L 297.54807 129.712527 
L 297.808655 132.259081 
L 298.329826 132.722832 
L 298.590411 135.454874 
L 299.372167 134.114177 
L 299.632752 130.433491 
L 299.893337 130.4124 
L 300.153923 131.200817 
L 300.414508 127.220829 
L 301.196264 128.544669 
L 301.456849 133.207727 
L 301.717435 130.547331 
L 301.97802 134.658029 
L 302.238605 135.121794 
L 303.020361 136.761897 
L 303.541532 131.158636 
L 303.802117 130.530488 
L 304.844458 127.258762 
L 305.105044 127.764707 
L 305.365629 127.469561 
L 305.8868 129.843224 
L 306.668555 130.505177 
L 306.929141 132.925202 
L 307.189726 138.250173 
L 307.450311 139.304191 
L 308.492653 139.139768 
L 308.753238 138.840414 
L 309.013823 137.453342 
L 309.274408 143.132405 
L 309.534994 140.855739 
L 310.577335 144.038895 
L 310.83792 143.752204 
L 311.098506 144.481596 
L 311.359091 146.829935 
L 312.140847 146.686615 
L 312.401432 150.00891 
L 312.662017 146.543229 
L 312.922603 145.22357 
L 313.183188 141.67366 
L 313.964944 140.526853 
L 314.225529 141.462822 
L 314.486115 139.481277 
L 314.7467 144.629149 
L 315.007285 142.651784 
L 315.789041 144.755612 
L 316.049626 143.233583 
L 316.310212 140.429922 
L 316.831382 147.247337 
L 317.613138 147.26422 
L 317.873724 144.957982 
L 318.134309 145.105841 
L 318.394894 148.811029 
L 318.655479 149.993978 
L 319.697821 150.08272 
L 319.958406 153.230186 
L 320.218991 147.180256 
L 320.479577 146.031113 
L 321.261333 145.405792 
L 321.521918 147.028163 
L 321.782503 144.814344 
L 323.346015 155.097586 
L 323.6066 149.753171 
L 323.867186 150.982614 
L 324.127771 153.314694 
L 324.909527 154.848324 
L 325.430697 147.264737 
L 325.691283 146.914071 
L 325.951868 144.71298 
L 326.733624 145.249466 
L 326.994209 143.179337 
L 327.254795 145.110101 
L 327.51538 143.162428 
L 327.775965 143.339885 
L 328.557721 140.374017 
L 328.818306 138.384189 
L 329.078892 139.039028 
L 329.339477 141.383796 
L 329.600062 140.914816 
L 330.381818 138.570061 
L 330.642403 140.298017 
L 330.902989 145.105841 
L 331.163574 144.315819 
L 332.205915 151.121992 
L 332.466501 152.473944 
L 332.727086 150.124954 
L 332.987671 153.416085 
L 334.030012 153.124602 
L 334.290598 151.105122 
L 334.551183 150.657285 
L 335.072354 155.866518 
L 335.85411 153.040094 
L 336.114695 157.476161 
L 336.37528 151.98386 
L 336.635866 149.275762 
L 336.896451 154.392059 
L 337.678207 151.455749 
L 337.938792 152.592257 
L 338.199377 149.127877 
L 338.459963 154.463838 
L 338.720548 155.570748 
L 339.502304 159.858969 
L 339.762889 157.780346 
L 340.28406 163.758491 
L 340.544645 161.320746 
L 341.326401 161.160192 
L 341.586986 158.912594 
L 341.847572 164.045003 
L 342.368742 164.688687 
L 343.150498 161.262864 
L 343.411083 161.69902 
L 343.932254 159.039641 
L 344.192839 155.931395 
L 345.235181 156.511548 
L 345.495766 156.278624 
L 345.756351 155.363958 
L 346.016936 157.294961 
L 346.798692 157.832774 
L 347.059278 156.244726 
L 347.319863 157.129808 
L 347.580448 159.509696 
L 347.841034 164.506577 
L 348.62279 169.050379 
L 348.883375 168.106055 
L 349.14396 165.027461 
L 349.404545 167.902782 
L 349.665131 166.767893 
L 350.707472 164.189 
L 350.968057 164.447314 
L 351.228643 162.020839 
L 351.489228 158.277398 
L 352.270984 159.467356 
L 352.531569 163.02868 
L 352.792154 161.42799 
L 353.05274 162.880483 
L 353.313325 161.715943 
L 354.355666 160.331221 
L 354.876837 157.980991 
L 355.137422 158.294321 
L 355.919178 159.628275 
L 356.179763 164.218638 
L 356.440349 164.620929 
L 356.700934 164.045003 
L 356.961519 162.927071 
L 357.743275 163.973012 
L 358.003861 161.73712 
L 358.525031 159.488513 
L 358.785616 161.38565 
L 359.567372 162.033561 
L 359.827958 164.968178 
L 360.088543 157.836981 
L 360.349128 154.589013 
L 360.609714 152.755379 
L 361.391469 153.911465 
L 361.652055 155.262302 
L 361.91264 152.022802 
L 362.173225 151.523108 
L 363.215567 152.933261 
L 363.476152 152.094793 
L 363.736737 149.189808 
L 363.997323 150.09602 
L 364.257908 148.025254 
L 365.039664 147.364642 
L 365.82142 148.501269 
L 366.082005 150.207232 
L 366.863761 153.771928 
L 367.124346 154.327832 
L 367.384932 154.603653 
L 367.645517 153.305085 
L 367.906102 157.871278 
L 368.687858 159.084954 
L 369.209029 160.680554 
L 369.469614 161.134649 
L 369.730199 162.976386 
L 370.77254 164.168858 
L 371.033126 162.114923 
L 371.293711 161.932449 
L 371.554296 159.41173 
L 372.336052 158.482357 
L 372.596638 164.703545 
L 372.857223 164.605951 
L 373.117808 167.508607 
L 373.378394 167.780195 
L 374.160149 167.873569 
L 374.420735 168.751994 
L 374.68132 170.237291 
L 374.941905 169.375821 
L 375.202491 170.674377 
L 375.984247 170.873833 
L 376.244832 171.315173 
L 376.505417 169.337635 
L 377.026588 172.804703 
L 377.808344 169.477677 
L 378.068929 166.023324 
L 378.329514 165.887537 
L 378.5901 166.910257 
L 378.850685 172.236038 
L 379.632441 174.353636 
L 379.893026 175.983195 
L 380.153611 175.838906 
L 380.414197 172.236038 
L 380.674782 174.646447 
L 381.456538 170.839888 
L 381.717123 170.428259 
L 381.977709 171.285455 
L 382.238294 171.425503 
L 382.498879 168.892042 
L 383.280635 166.715048 
L 383.54122 165.267957 
L 383.801806 173.475191 
L 384.062391 175.414549 
L 384.322976 171.544354 
L 385.104732 173.131453 
L 385.365318 174.811945 
L 385.886488 180.719107 
L 386.147073 177.689151 
L 386.928829 174.939258 
L 387.189415 174.514894 
L 387.45 176.365119 
L 387.710585 168.527087 
L 387.971171 166.774457 
L 388.752927 169.133945 
L 389.274097 168.768459 
L 389.534682 168.789735 
L 389.795268 168.985502 
L 390.577024 168.632274 
L 391.098194 166.278931 
L 391.619365 166.31721 
L 392.661706 169.364241 
L 392.922291 163.06167 
L 393.182877 163.253176 
L 393.443462 163.112743 
L 394.225218 165.163951 
L 394.485803 167.325808 
L 394.746389 167.644978 
L 395.006974 166.355528 
L 395.267559 167.198137 
L 396.049315 164.18091 
L 396.3099 162.304159 
L 396.570486 162.176502 
L 396.831071 165.670368 
L 397.091656 167.5088 
L 397.873412 169.313174 
L 398.133998 168.738675 
L 398.394583 167.619441 
L 398.655168 170.274946 
L 398.915753 170.045147 
L 399.958095 170.798384 
L 400.21868 171.832493 
L 400.479265 169.074854 
L 400.739851 169.58129 
L 401.782192 169.683418 
L 402.303362 177.032866 
L 402.563948 175.917893 
L 403.345704 174.985925 
L 403.606289 174.249684 
L 403.866874 171.304813 
L 404.12746 170.138767 
L 404.388045 169.832358 
L 405.430386 169.355733 
L 405.951557 172.938964 
L 406.212142 169.41106 
L 406.993898 168.406729 
L 407.254483 168.636534 
L 407.515068 169.245091 
L 407.775654 166.100186 
L 408.036239 166.032091 
L 408.817995 168.351402 
L 409.339166 164.078763 
L 409.599751 159.035845 
L 409.860336 161.695636 
L 410.642092 162.368008 
L 410.902677 157.776218 
L 411.163263 158.12942 
L 411.423848 159.452928 
L 411.684433 159.674185 
L 412.466189 156.176066 
L 412.726775 155.814356 
L 412.98736 156.740132 
L 413.247945 159.799042 
L 413.508531 161.543968 
L 414.811457 164.338378 
L 415.072042 162.947584 
L 415.332628 165.315367 
L 416.114384 164.914324 
L 416.374969 165.230037 
L 416.635554 166.573892 
L 417.156725 162.725736 
L 417.938481 162.051665 
L 418.199066 163.212084 
L 418.459651 163.404061 
L 418.720237 163.992808 
L 418.980822 165.584128 
L 419.762578 163.310203 
L 420.804919 152.426931 
L 421.586675 155.49865 
L 421.84726 154.837387 
L 422.107846 155.473047 
L 422.368431 153.182073 
L 422.629016 151.940577 
L 423.671357 154.218769 
L 424.192528 150.455937 
L 424.453113 148.642744 
L 425.234869 149.099247 
L 425.495455 149.12059 
L 425.75604 150.332209 
L 426.016625 147.234887 
L 427.058966 148.177719 
L 427.319552 150.976416 
L 427.580137 150.694834 
L 427.840722 147.985768 
L 428.101308 149.564272 
L 428.883064 148.429437 
L 429.143649 148.612906 
L 429.404234 148.578742 
L 429.664819 149.577081 
L 429.925405 149.726373 
L 430.707161 151.42862 
L 430.967746 154.137686 
L 431.228331 145.626505 
L 431.488917 141.590586 
L 431.749502 140.553916 
L 432.531258 141.279167 
L 432.791843 141.343128 
L 433.052428 141.774069 
L 433.313014 141.343128 
L 433.573599 139.107635 
L 434.355355 139.960888 
L 434.61594 140.664836 
L 434.876526 138.399413 
L 435.137111 139.337997 
L 435.397696 139.824364 
L 436.179452 139.615332 
L 436.700623 137.385585 
L 436.961208 135.453002 
L 437.221793 135.529971 
L 438.003549 134.315685 
L 438.264134 136.846856 
L 438.52472 137.449706 
L 439.04589 129.308942 
L 440.088232 130.027264 
L 440.348817 131.23299 
L 440.869988 128.235798 
L 441.651743 128.004891 
L 441.912329 128.971189 
L 442.172914 133.37507 
L 442.694085 131.917082 
L 443.736426 128.710366 
L 443.997011 127.406316 
L 444.257597 122.805773 
L 444.518182 125.27281 
L 445.560523 127.102767 
L 445.821108 129.022489 
L 446.081694 126.393019 
L 446.342279 128.398257 
L 447.124035 131.143186 
L 447.38462 128.590685 
L 447.645205 128.043396 
L 447.905791 128.385435 
L 448.166376 126.038131 
L 448.948132 127.128424 
L 449.469303 127.060002 
L 449.729888 125.726022 
L 449.990473 127.457628 
L 450.772229 129.762194 
L 451.032814 129.488549 
L 451.81457 124.028593 
L 452.596326 123.819083 
L 452.856912 117.935872 
L 453.117497 119.821389 
L 453.378082 123.331667 
L 453.638667 124.657112 
L 454.420423 124.084193 
L 454.681009 121.574391 
L 454.941594 127.222488 
L 455.202179 130.236775 
L 455.462765 126.965952 
L 456.244521 128.013452 
L 456.505106 127.833898 
L 456.765691 131.613533 
L 457.026276 131.972642 
L 457.286862 131.4938 
L 458.068618 130.497585 
L 458.589788 133.866746 
L 458.850374 133.567472 
L 459.110959 134.38838 
L 459.892715 133.092864 
L 460.1533 134.024971 
L 460.413885 134.359153 
L 460.674471 135.867365 
L 460.935056 136.03873 
L 461.716812 133.725033 
L 461.977397 133.476527 
L 462.237983 131.531269 
L 462.498568 134.543393 
L 462.759153 133.253703 
L 463.540909 132.945231 
L 463.801494 130.927145 
L 464.06208 130.764315 
L 464.322665 131.205648 
L 464.58325 130.820047 
L 465.625592 128.724847 
L 465.886177 129.011923 
L 466.146762 130.284451 
L 466.407347 128.416361 
L 467.189103 126.843882 
L 467.449689 129.487514 
L 467.970859 126.518221 
L 468.231445 130.151604 
L 469.273786 130.824308 
L 469.534371 134.200636 
L 469.794956 134.731932 
L 470.055542 135.811646 
L 470.837298 135.584575 
L 471.097883 137.898286 
L 471.619054 137.255578 
L 472.661395 133.759317 
L 472.92198 137.362703 
L 473.182565 134.976151 
L 473.443151 134.804773 
L 473.703736 131.419884 
L 474.485492 130.322995 
L 474.746077 130.935719 
L 475.006663 129.209011 
L 475.267248 129.748868 
L 475.527833 131.218509 
L 476.309589 129.114748 
L 476.570174 129.363241 
L 476.83076 130.198762 
L 477.091345 129.680314 
L 477.35193 131.672677 
L 478.394271 130.018823 
L 478.654857 125.674165 
L 478.915442 131.149915 
L 479.176027 130.327282 
L 479.957783 127.11381 
L 480.218369 126.771054 
L 480.478954 123.360455 
L 480.739539 122.396414 
L 481.000125 120.476878 
L 481.78188 118.878677 
L 482.303051 116.020849 
L 482.563636 117.096276 
L 482.824222 113.248671 
L 483.605978 114.529799 
L 483.866563 112.991604 
L 484.127148 112.927204 
L 484.387733 110.13651 
L 484.648319 112.849903 
L 485.430075 109.591251 
L 485.69066 111.467451 
L 485.951245 109.415214 
L 486.472416 109.595552 
L 487.254172 109.08893 
L 487.514757 107.332941 
L 487.775342 108.985893 
L 488.035928 108.960131 
L 488.296513 110.849192 
L 489.078269 113.154726 
L 489.338854 111.703587 
L 489.59944 113.300713 
L 489.860025 112.377645 
L 490.12061 110.969417 
L 490.902366 112.22737 
L 491.162951 110.905004 
L 491.423537 110.909317 
L 491.684122 114.532905 
L 491.944707 112.472107 
L 492.987049 111.38589 
L 493.247634 112.519318 
L 493.508219 111.265652 
L 493.768804 110.819155 
L 494.811146 110.784806 
L 495.071731 111.038116 
L 495.592902 110.192322 
L 496.635243 112.411995 
L 496.895828 112.527906 
L 497.156413 113.669935 
L 497.416999 113.75151 
L 498.198755 110.771931 
L 498.45934 110.299659 
L 498.719925 107.302918 
L 498.980511 106.504349 
L 499.241096 104.855684 
L 500.283437 104.082903 
L 500.544022 104.42635 
L 501.065193 100.476451 
L 501.846949 101.40382 
L 502.107534 100.377728 
L 502.628705 97.814583 
L 502.88929 98.218181 
L 503.671046 95.73231 
L 503.931631 96.21747 
L 504.192217 100.944449 
L 504.713387 95.088315 
L 505.495143 97.479697 
L 505.755729 97.548424 
L 506.016314 93.873312 
L 506.276899 93.847536 
L 506.537484 91.082631 
L 507.31924 93.353802 
L 507.579826 97.19205 
L 507.840411 95.505943 
L 508.361582 97.841553 
L 509.403923 98.387821 
L 509.664508 98.650197 
L 509.925093 94.576888 
L 510.185679 95.140344 
L 510.967435 96.344689 
L 511.22802 96.370505 
L 511.488605 96.267282 
L 511.749191 93.720914 
L 512.009776 92.920884 
L 512.791532 93.170346 
L 513.052117 98.448039 
L 513.312702 98.6889 
L 513.573288 95.656496 
L 513.833873 96.912485 
L 514.615629 97.643709 
L 514.876214 93.015519 
L 515.1368 93.092926 
L 515.397385 88.740039 
L 515.65797 92.525169 
L 516.439726 92.138056 
L 517.221482 86.954984 
L 517.482067 87.225974 
L 518.524408 90.275606 
L 518.784994 90.370228 
L 519.045579 90.675608 
L 520.08792 89.01959 
L 520.348506 90.365901 
L 520.609091 90.791732 
L 520.869676 91.897155 
L 521.130262 88.610988 
L 521.912017 89.011016 
L 522.172603 88.284079 
L 522.433188 89.583059 
L 522.693773 87.574371 
L 522.954359 90.168057 
L 523.736115 93.720914 
L 523.9967 93.316612 
L 524.257285 94.495141 
L 524.778456 99.966392 
L 525.560212 99.174963 
L 525.820797 96.331801 
L 526.081382 95.690912 
L 526.341968 100.000795 
L 526.602553 96.869455 
L 527.384309 98.620094 
L 527.644894 104.177352 
L 527.905479 101.764335 
L 528.166065 100.516946 
L 528.42665 96.723216 
L 529.208406 93.763917 
L 529.468991 95.570462 
L 529.729577 95.054323 
L 530.250747 93.247766 
L 531.032503 93.686511 
L 531.293088 92.464951 
L 531.553674 89.332257 
L 531.814259 90.232868 
L 532.074844 90.568961 
L 532.8566 88.358434 
L 533.117186 86.764055 
L 533.377771 86.126338 
L 533.638356 87.643111 
L 533.898941 86.281457 
L 534.941283 86.212504 
L 535.201868 86.708044 
L 535.462453 92.956176 
L 535.723039 92.757947 
L 536.504795 93.451702 
L 536.76538 92.352889 
L 537.025965 88.931525 
L 537.28655 88.711768 
L 537.547136 89.000451 
L 538.328892 87.268234 
L 538.589477 85.195584 
L 538.850062 81.584606 
L 539.110648 81.360522 
L 539.371233 80.933922 
L 540.152989 78.434671 
L 540.413574 79.309413 
L 540.934745 79.585195 
L 541.19533 77.82711 
L 541.977086 78.736322 
L 542.237671 77.322944 
L 542.758842 76.504226 
L 543.019427 79.046573 
L 544.061768 73.73352 
L 544.322354 73.091463 
L 544.843524 70.165626 
L 545.62528 70.734417 
L 545.885866 73.621472 
L 546.146451 70.73009 
L 546.407036 75.707049 
L 546.667621 76.202589 
L 547.449377 76.025928 
L 548.491719 83.286654 
L 549.53406 79.951471 
L 550.05523 91.348883 
L 550.315816 88.388589 
L 551.097572 87.75946 
L 551.618742 91.370438 
L 551.879328 91.904773 
L 552.139913 95.619173 
L 552.921669 101.367439 
L 553.182254 99.445595 
L 553.442839 99.954061 
L 553.96401 96.683503 
L 554.745766 96.34307 
L 555.006351 93.240572 
L 555.266936 92.012495 
L 555.527522 89.888612 
L 555.788107 90.993717 
L 556.569863 89.672783 
L 556.830448 88.261171 
L 557.091034 88.546084 
L 557.351619 92.254245 
L 557.612204 91.718941 
L 558.39396 93.143482 
L 558.654545 92.992398 
L 558.915131 94.391056 
L 559.175716 93.303219 
L 559.436301 91.567857 
L 560.478643 94.891798 
L 560.999813 95.34505 
L 561.260399 98.233007 
L 562.042154 96.497658 
L 562.563325 89.020931 
L 563.084496 85.761748 
L 563.866252 85.437985 
L 564.126837 83.793276 
L 564.387422 85.666768 
L 564.648007 82.265128 
L 564.908593 83.741472 
L 565.690349 84.501219 
L 565.950934 86.374724 
L 566.211519 85.105595 
L 566.472105 85.450939 
L 566.73269 86.871179 
L 567.514446 85.88695 
L 567.775031 90.035396 
L 568.035616 91.572157 
L 568.556787 92.034063 
L 569.338543 94.848622 
L 569.599128 92.616844 
L 569.859714 91.429727 
L 570.120299 92.129043 
L 570.380884 91.921829 
L 571.16264 90.70449 
L 571.423225 90.877168 
L 571.683811 92.008168 
L 571.944396 91.74915 
L 572.204981 91.127559 
L 572.986737 90.859901 
L 573.247323 87.091308 
L 573.507908 88.347497 
L 573.768493 88.291393 
L 574.029078 86.815049 
L 574.810834 87.488456 
L 575.07142 85.17464 
L 575.332005 84.924275 
L 575.59259 96.225699 
L 575.853176 94.49035 
L 576.634932 95.314868 
L 576.895517 94.019817 
L 577.416687 87.989211 
L 577.677273 89.236773 
L 578.459029 91.192291 
L 578.719614 89.025258 
L 579.240785 87.358954 
L 579.50137 92.491642 
L 580.283126 92.163579 
L 580.543711 91.287257 
L 581.064882 93.054381 
L 581.325467 91.267972 
L 582.107223 90.493718 
L 582.367808 86.514301 
L 582.628394 88.677033 
L 583.149564 88.473734 
L 583.93132 85.220975 
L 584.191905 85.125823 
L 584.713076 80.18616 
L 585.755417 78.715523 
L 586.016002 79.879054 
L 586.276588 77.430838 
L 586.537173 77.184296 
L 586.797758 78.17483 
L 587.579514 76.306236 
L 587.8401 75.064833 
L 588.100685 82.448359 
L 588.621856 82.790079 
L 589.403611 83.374015 
L 589.664197 81.60924 
L 590.185367 82.136939 
L 590.445953 85.415634 
L 591.227709 87.881145 
L 591.488294 89.321533 
L 592.009465 90.584557 
L 592.27005 88.521304 
L 593.051806 86.574851 
L 593.312391 88.94521 
L 593.572976 87.997932 
L 594.094147 90.424514 
L 594.875903 91.185787 
L 595.136488 91.843254 
L 595.397073 87.240972 
L 595.657659 87.989291 
L 595.918244 86.064447 
L 596.960585 86.293694 
L 597.221171 78.637625 
L 597.481756 78.417058 
L 597.742341 79.563282 
L 598.524097 83.67248 
L 598.784682 78.205092 
L 599.045268 80.311614 
L 599.305853 92.137392 
L 599.566438 92.107103 
L 600.348194 93.897853 
L 601.12995 91.778377 
L 601.390535 94.403931 
L 602.172291 93.335539 
L 602.432877 93.672933 
L 602.693462 94.711036 
L 602.954047 94.06221 
L 603.214633 94.974899 
L 604.256974 94.4515 
L 604.517559 92.232544 
L 604.778144 91.283368 
L 605.03873 94.716013 
L 605.820486 96.540675 
L 606.081071 99.184492 
L 606.341656 98.391338 
L 606.602242 101.511927 
L 606.862827 99.578906 
L 607.644583 103.262911 
L 607.905168 103.210908 
L 608.165753 97.832249 
L 609.46868 106.873239 
L 609.729265 106.747532 
L 609.989851 105.525322 
L 610.250436 107.47569 
L 610.511021 103.23257 
L 611.292777 103.171886 
L 611.553362 105.416963 
L 611.813948 103.553293 
L 612.074533 103.978035 
L 612.335118 102.062349 
L 613.116874 101.273548 
L 613.37746 100.372034 
L 613.638045 102.621451 
L 613.89863 102.357084 
L 614.159215 107.462683 
L 614.940971 108.940606 
L 615.201557 105.993413 
L 615.462142 106.015074 
L 615.722727 109.928804 
L 615.983313 115.68019 
L 616.765068 116.538341 
L 617.025654 117.968602 
L 617.286239 102.396079 
L 617.546824 106.357472 
L 617.80741 103.280245 
L 618.589166 103.557633 
L 618.849751 104.45912 
L 619.110336 110.578918 
L 619.370922 112.238891 
L 620.413263 115.992246 
L 620.934433 109.374016 
L 621.195019 103.778678 
L 621.455604 101.806636 
L 622.23736 102.105684 
L 622.497945 100.85746 
L 622.758531 100.328699 
L 623.019116 87.265646 
L 623.279701 82.983517 
L 624.061457 82.597783 
L 624.322042 83.837341 
L 624.582628 83.820007 
L 624.843213 81.730952 
L 625.103798 81.488246 
L 625.885554 76.924402 
L 626.146139 76.976405 
L 626.406725 75.329452 
L 626.927895 74.391558 
L 627.709651 72.394204 
L 627.970237 72.698138 
L 628.230822 75.12971 
L 628.491407 74.13538 
L 628.751993 76.167469 
L 629.794334 71.603943 
L 630.054919 73.049853 
L 630.57609 71.747236 
L 631.357846 71.048146 
L 631.879016 70.223163 
L 632.400187 67.39646 
L 633.181943 66.367382 
L 633.442528 67.161983 
L 633.703113 66.423831 
L 633.963699 63.710026 
L 634.224284 65.407787 
L 635.00604 63.592788 
L 635.266625 64.070422 
L 635.52721 63.115167 
L 636.048381 64.348314 
L 637.351308 57.89164 
L 637.611893 55.642435 
L 637.872478 56.298084 
L 638.654234 55.659796 
L 638.914819 57.987164 
L 639.175405 58.403995 
L 639.43599 55.038882 
L 640.478331 55.525197 
L 640.738917 56.002831 
L 640.999502 53.011121 
L 641.260087 53.892566 
L 641.520672 53.093624 
L 642.302428 53.223897 
L 642.563014 52.00811 
L 642.823599 52.094954 
L 643.084184 49.454959 
L 643.34477 50.17141 
L 644.126526 50.16707 
L 644.387111 52.246927 
L 644.647696 51.986396 
L 644.908281 49.811015 
L 645.168867 48.582181 
L 645.950623 49.107597 
L 646.211208 49.077203 
L 646.471793 48.78629 
L 646.732379 39.989227 
L 646.992964 44.066438 
L 647.77472 39.06 
L 648.035305 42.485916 
L 648.29589 43.706029 
L 648.556476 45.48628 
L 648.817061 44.965244 
L 649.598817 45.082469 
L 649.859402 41.838948 
L 650.119988 45.599178 
L 650.380573 44.774195 
L 650.641158 45.777219 
L 651.422914 47.110257 
L 651.683499 50.292989 
L 651.944085 52.051526 
L 652.20467 52.334236 
L 652.465255 51.033809 
L 653.247011 52.325529 
L 653.507597 53.291057 
L 653.768182 51.24693 
L 653.768182 51.24693 
" clip-path="url(#p7f25a9f283)" style="fill: none; stroke: #1f77b4; stroke-width: 1.5; stroke-linecap: square"/>
   </g>
   <g id="patch_3">
    <path d="M 94.5 224.28 
L 94.5 30.24 
" style="fill: none; stroke: #000000; stroke-width: 0.8; stroke-linejoin: miter; stroke-linecap: square"/>
   </g>
   <g id="patch_4">
    <path d="M 94.5 224.28 
L 680.4 224.28 
" style="fill: none; stroke: #000000; stroke-width: 0.8; stroke-linejoin: miter; stroke-linecap: square"/>
   </g>
  </g>
 </g>
 <defs>
  <clipPath id="p7f25a9f283">
   <rect x="94.5" y="30.24" width="585.9" height="194.04"/>
  </clipPath>
 </defs>
</svg>
