<?xml version="1.0" encoding="utf-8" standalone="no"?>
<!DOCTYPE svg PUBLIC "-//W3C//DTD SVG 1.1//EN"
  "http://www.w3.org/Graphics/SVG/1.1/DTD/svg11.dtd">
<svg xmlns:xlink="http://www.w3.org/1999/xlink" width="1166.4pt" height="252pt" viewBox="0 0 1166.4 252" xmlns="http://www.w3.org/2000/svg" version="1.1">
 <metadata>
  <rdf:RDF xmlns:dc="http://purl.org/dc/elements/1.1/" xmlns:cc="http://creativecommons.org/ns#" xmlns:rdf="http://www.w3.org/1999/02/22-rdf-syntax-ns#">
   <cc:Work>
    <dc:type rdf:resource="http://purl.org/dc/dcmitype/StillImage"/>
    <dc:date>2025-09-05T15:24:39.237993</dc:date>
    <dc:format>image/svg+xml</dc:format>
    <dc:creator>
     <cc:Agent>
      <dc:title>Matplotlib v3.10.5, https://matplotlib.org/</dc:title>
     </cc:Agent>
    </dc:creator>
   </cc:Work>
  </rdf:RDF>
 </metadata>
 <defs>
  <style type="text/css">*{stroke-linejoin: round; stroke-linecap: butt}</style>
 </defs>
 <g id="figure_1">
  <g id="patch_1">
   <path d="M 0 252 
L 1166.4 252 
L 1166.4 0 
L 0 0 
z
" style="fill: #ffffff"/>
  </g>
  <g id="axes_1">
   <g id="patch_2">
    <path d="M 145.8 224.28 
L 1049.76 224.28 
L 1049.76 30.24 
L 145.8 30.24 
z
" style="fill: #ffffff"/>
   </g>
   <g id="matplotlib.axis_1">
    <g id="xtick_1">
     <g id="line2d_1">
      <defs>
       <path id="m16c9c914a6" d="M 0 0 
L 0 3.5 
" style="stroke: #000000; stroke-width: 0.8"/>
      </defs>
      <g>
       <use xlink:href="#m16c9c914a6" x="178.470838" y="224.28" style="stroke: #000000; stroke-width: 0.8"/>
      </g>
     </g>
     <g id="text_1">
      <!-- 2020 -->
      <g transform="translate(165.745838 238.878438) scale(0.1 -0.1)">
       <defs>
        <path id="DejaVuSans-32" d="M 1228 531 
L 3431 531 
L 3431 0 
L 469 0 
L 469 531 
Q 828 903 1448 1529 
Q 2069 2156 2228 2338 
Q 2531 2678 2651 2914 
Q 2772 3150 2772 3378 
Q 2772 3750 2511 3984 
Q 2250 4219 1831 4219 
Q 1534 4219 1204 4116 
Q 875 4013 500 3803 
L 500 4441 
Q 881 4594 1212 4672 
Q 1544 4750 1819 4750 
Q 2544 4750 2975 4387 
Q 3406 4025 3406 3419 
Q 3406 3131 3298 2873 
Q 3191 2616 2906 2266 
Q 2828 2175 2409 1742 
Q 1991 1309 1228 531 
z
" transform="scale(0.015625)"/>
        <path id="DejaVuSans-30" d="M 2034 4250 
Q 1547 4250 1301 3770 
Q 1056 3291 1056 2328 
Q 1056 1369 1301 889 
Q 1547 409 2034 409 
Q 2525 409 2770 889 
Q 3016 1369 3016 2328 
Q 3016 3291 2770 3770 
Q 2525 4250 2034 4250 
z
M 2034 4750 
Q 2819 4750 3233 4129 
Q 3647 3509 3647 2328 
Q 3647 1150 3233 529 
Q 2819 -91 2034 -91 
Q 1250 -91 836 529 
Q 422 1150 422 2328 
Q 422 3509 836 4129 
Q 1250 4750 2034 4750 
z
" transform="scale(0.015625)"/>
       </defs>
       <use xlink:href="#DejaVuSans-32"/>
       <use xlink:href="#DejaVuSans-30" transform="translate(63.623047 0)"/>
       <use xlink:href="#DejaVuSans-32" transform="translate(127.246094 0)"/>
       <use xlink:href="#DejaVuSans-30" transform="translate(190.869141 0)"/>
      </g>
     </g>
    </g>
    <g id="xtick_2">
     <g id="line2d_2">
      <g>
       <use xlink:href="#m16c9c914a6" x="325.188958" y="224.28" style="stroke: #000000; stroke-width: 0.8"/>
      </g>
     </g>
     <g id="text_2">
      <!-- 2021 -->
      <g transform="translate(312.463958 238.878438) scale(0.1 -0.1)">
       <defs>
        <path id="DejaVuSans-31" d="M 794 531 
L 1825 531 
L 1825 4091 
L 703 3866 
L 703 4441 
L 1819 4666 
L 2450 4666 
L 2450 531 
L 3481 531 
L 3481 0 
L 794 0 
L 794 531 
z
" transform="scale(0.015625)"/>
       </defs>
       <use xlink:href="#DejaVuSans-32"/>
       <use xlink:href="#DejaVuSans-30" transform="translate(63.623047 0)"/>
       <use xlink:href="#DejaVuSans-32" transform="translate(127.246094 0)"/>
       <use xlink:href="#DejaVuSans-31" transform="translate(190.869141 0)"/>
      </g>
     </g>
    </g>
    <g id="xtick_3">
     <g id="line2d_3">
      <g>
       <use xlink:href="#m16c9c914a6" x="471.506208" y="224.28" style="stroke: #000000; stroke-width: 0.8"/>
      </g>
     </g>
     <g id="text_3">
      <!-- 2022 -->
      <g transform="translate(458.781208 238.878438) scale(0.1 -0.1)">
       <use xlink:href="#DejaVuSans-32"/>
       <use xlink:href="#DejaVuSans-30" transform="translate(63.623047 0)"/>
       <use xlink:href="#DejaVuSans-32" transform="translate(127.246094 0)"/>
       <use xlink:href="#DejaVuSans-32" transform="translate(190.869141 0)"/>
      </g>
     </g>
    </g>
    <g id="xtick_4">
     <g id="line2d_4">
      <g>
       <use xlink:href="#m16c9c914a6" x="617.823459" y="224.28" style="stroke: #000000; stroke-width: 0.8"/>
      </g>
     </g>
     <g id="text_4">
      <!-- 2023 -->
      <g transform="translate(605.098459 238.878438) scale(0.1 -0.1)">
       <defs>
        <path id="DejaVuSans-33" d="M 2597 2516 
Q 3050 2419 3304 2112 
Q 3559 1806 3559 1356 
Q 3559 666 3084 287 
Q 2609 -91 1734 -91 
Q 1441 -91 1130 -33 
Q 819 25 488 141 
L 488 750 
Q 750 597 1062 519 
Q 1375 441 1716 441 
Q 2309 441 2620 675 
Q 2931 909 2931 1356 
Q 2931 1769 2642 2001 
Q 2353 2234 1838 2234 
L 1294 2234 
L 1294 2753 
L 1863 2753 
Q 2328 2753 2575 2939 
Q 2822 3125 2822 3475 
Q 2822 3834 2567 4026 
Q 2313 4219 1838 4219 
Q 1578 4219 1281 4162 
Q 984 4106 628 3988 
L 628 4550 
Q 988 4650 1302 4700 
Q 1616 4750 1894 4750 
Q 2613 4750 3031 4423 
Q 3450 4097 3450 3541 
Q 3450 3153 3228 2886 
Q 3006 2619 2597 2516 
z
" transform="scale(0.015625)"/>
       </defs>
       <use xlink:href="#DejaVuSans-32"/>
       <use xlink:href="#DejaVuSans-30" transform="translate(63.623047 0)"/>
       <use xlink:href="#DejaVuSans-32" transform="translate(127.246094 0)"/>
       <use xlink:href="#DejaVuSans-33" transform="translate(190.869141 0)"/>
      </g>
     </g>
    </g>
    <g id="xtick_5">
     <g id="line2d_5">
      <g>
       <use xlink:href="#m16c9c914a6" x="764.14071" y="224.28" style="stroke: #000000; stroke-width: 0.8"/>
      </g>
     </g>
     <g id="text_5">
      <!-- 2024 -->
      <g transform="translate(751.41571 238.878438) scale(0.1 -0.1)">
       <defs>
        <path id="DejaVuSans-34" d="M 2419 4116 
L 825 1625 
L 2419 1625 
L 2419 4116 
z
M 2253 4666 
L 3047 4666 
L 3047 1625 
L 3713 1625 
L 3713 1100 
L 3047 1100 
L 3047 0 
L 2419 0 
L 2419 1100 
L 313 1100 
L 313 1709 
L 2253 4666 
z
" transform="scale(0.015625)"/>
       </defs>
       <use xlink:href="#DejaVuSans-32"/>
       <use xlink:href="#DejaVuSans-30" transform="translate(63.623047 0)"/>
       <use xlink:href="#DejaVuSans-32" transform="translate(127.246094 0)"/>
       <use xlink:href="#DejaVuSans-34" transform="translate(190.869141 0)"/>
      </g>
     </g>
    </g>
    <g id="xtick_6">
     <g id="line2d_6">
      <g>
       <use xlink:href="#m16c9c914a6" x="910.858829" y="224.28" style="stroke: #000000; stroke-width: 0.8"/>
      </g>
     </g>
     <g id="text_6">
      <!-- 2025 -->
      <g transform="translate(898.133829 238.878438) scale(0.1 -0.1)">
       <defs>
        <path id="DejaVuSans-35" d="M 691 4666 
L 3169 4666 
L 3169 4134 
L 1269 4134 
L 1269 2991 
Q 1406 3038 1543 3061 
Q 1681 3084 1819 3084 
Q 2600 3084 3056 2656 
Q 3513 2228 3513 1497 
Q 3513 744 3044 326 
Q 2575 -91 1722 -91 
Q 1428 -91 1123 -41 
Q 819 9 494 109 
L 494 744 
Q 775 591 1075 516 
Q 1375 441 1709 441 
Q 2250 441 2565 725 
Q 2881 1009 2881 1497 
Q 2881 1984 2565 2268 
Q 2250 2553 1709 2553 
Q 1456 2553 1204 2497 
Q 953 2441 691 2322 
L 691 4666 
z
" transform="scale(0.015625)"/>
       </defs>
       <use xlink:href="#DejaVuSans-32"/>
       <use xlink:href="#DejaVuSans-30" transform="translate(63.623047 0)"/>
       <use xlink:href="#DejaVuSans-32" transform="translate(127.246094 0)"/>
       <use xlink:href="#DejaVuSans-35" transform="translate(190.869141 0)"/>
      </g>
     </g>
    </g>
   </g>
   <g id="matplotlib.axis_2">
    <g id="ytick_1">
     <g id="line2d_7">
      <defs>
       <path id="mde7bef34fa" d="M 0 0 
L -3.5 0 
" style="stroke: #000000; stroke-width: 0.8"/>
      </defs>
      <g>
       <use xlink:href="#mde7bef34fa" x="145.8" y="189.376644" style="stroke: #000000; stroke-width: 0.8"/>
      </g>
     </g>
     <g id="text_7">
      <!-- 20 -->
      <g transform="translate(126.075 193.175863) scale(0.1 -0.1)">
       <use xlink:href="#DejaVuSans-32"/>
       <use xlink:href="#DejaVuSans-30" transform="translate(63.623047 0)"/>
      </g>
     </g>
    </g>
    <g id="ytick_2">
     <g id="line2d_8">
      <g>
       <use xlink:href="#mde7bef34fa" x="145.8" y="149.837987" style="stroke: #000000; stroke-width: 0.8"/>
      </g>
     </g>
     <g id="text_8">
      <!-- 40 -->
      <g transform="translate(126.075 153.637205) scale(0.1 -0.1)">
       <use xlink:href="#DejaVuSans-34"/>
       <use xlink:href="#DejaVuSans-30" transform="translate(63.623047 0)"/>
      </g>
     </g>
    </g>
    <g id="ytick_3">
     <g id="line2d_9">
      <g>
       <use xlink:href="#mde7bef34fa" x="145.8" y="110.299329" style="stroke: #000000; stroke-width: 0.8"/>
      </g>
     </g>
     <g id="text_9">
      <!-- 60 -->
      <g transform="translate(126.075 114.098548) scale(0.1 -0.1)">
       <defs>
        <path id="DejaVuSans-36" d="M 2113 2584 
Q 1688 2584 1439 2293 
Q 1191 2003 1191 1497 
Q 1191 994 1439 701 
Q 1688 409 2113 409 
Q 2538 409 2786 701 
Q 3034 994 3034 1497 
Q 3034 2003 2786 2293 
Q 2538 2584 2113 2584 
z
M 3366 4563 
L 3366 3988 
Q 3128 4100 2886 4159 
Q 2644 4219 2406 4219 
Q 1781 4219 1451 3797 
Q 1122 3375 1075 2522 
Q 1259 2794 1537 2939 
Q 1816 3084 2150 3084 
Q 2853 3084 3261 2657 
Q 3669 2231 3669 1497 
Q 3669 778 3244 343 
Q 2819 -91 2113 -91 
Q 1303 -91 875 529 
Q 447 1150 447 2328 
Q 447 3434 972 4092 
Q 1497 4750 2381 4750 
Q 2619 4750 2861 4703 
Q 3103 4656 3366 4563 
z
" transform="scale(0.015625)"/>
       </defs>
       <use xlink:href="#DejaVuSans-36"/>
       <use xlink:href="#DejaVuSans-30" transform="translate(63.623047 0)"/>
      </g>
     </g>
    </g>
    <g id="ytick_4">
     <g id="line2d_10">
      <g>
       <use xlink:href="#mde7bef34fa" x="145.8" y="70.760671" style="stroke: #000000; stroke-width: 0.8"/>
      </g>
     </g>
     <g id="text_10">
      <!-- 80 -->
      <g transform="translate(126.075 74.55989) scale(0.1 -0.1)">
       <defs>
        <path id="DejaVuSans-38" d="M 2034 2216 
Q 1584 2216 1326 1975 
Q 1069 1734 1069 1313 
Q 1069 891 1326 650 
Q 1584 409 2034 409 
Q 2484 409 2743 651 
Q 3003 894 3003 1313 
Q 3003 1734 2745 1975 
Q 2488 2216 2034 2216 
z
M 1403 2484 
Q 997 2584 770 2862 
Q 544 3141 544 3541 
Q 544 4100 942 4425 
Q 1341 4750 2034 4750 
Q 2731 4750 3128 4425 
Q 3525 4100 3525 3541 
Q 3525 3141 3298 2862 
Q 3072 2584 2669 2484 
Q 3125 2378 3379 2068 
Q 3634 1759 3634 1313 
Q 3634 634 3220 271 
Q 2806 -91 2034 -91 
Q 1263 -91 848 271 
Q 434 634 434 1313 
Q 434 1759 690 2068 
Q 947 2378 1403 2484 
z
M 1172 3481 
Q 1172 3119 1398 2916 
Q 1625 2713 2034 2713 
Q 2441 2713 2670 2916 
Q 2900 3119 2900 3481 
Q 2900 3844 2670 4047 
Q 2441 4250 2034 4250 
Q 1625 4250 1398 4047 
Q 1172 3844 1172 3481 
z
" transform="scale(0.015625)"/>
       </defs>
       <use xlink:href="#DejaVuSans-38"/>
       <use xlink:href="#DejaVuSans-30" transform="translate(63.623047 0)"/>
      </g>
     </g>
    </g>
    <g id="ytick_5">
     <g id="line2d_11">
      <g>
       <use xlink:href="#mde7bef34fa" x="145.8" y="31.222013" style="stroke: #000000; stroke-width: 0.8"/>
      </g>
     </g>
     <g id="text_11">
      <!-- 100 -->
      <g transform="translate(119.7125 35.021232) scale(0.1 -0.1)">
       <use xlink:href="#DejaVuSans-31"/>
       <use xlink:href="#DejaVuSans-30" transform="translate(63.623047 0)"/>
       <use xlink:href="#DejaVuSans-30" transform="translate(127.246094 0)"/>
      </g>
     </g>
    </g>
   </g>
   <g id="line2d_12">
    <path d="M 186.889091 103.042879 
L 187.28996 99.305108 
L 187.690829 97.154042 
L 188.893437 115.216426 
L 189.294306 96.724832 
L 189.695175 96.528907 
L 190.096044 89.691389 
L 190.496914 98.65111 
L 191.699521 93.713455 
L 192.10039 78.925475 
L 192.501259 81.373577 
L 192.902129 80.303443 
L 193.302998 81.270305 
L 194.505605 72.653787 
L 194.906475 85.62557 
L 195.307344 86.62254 
L 195.708213 84.218375 
L 196.109082 71.791267 
L 197.712559 73.185431 
L 198.113428 75.55067 
L 198.514297 94.700617 
L 198.915166 106.580928 
L 200.117774 137.391862 
L 200.518643 160.303611 
L 200.919512 153.091095 
L 201.320381 181.510439 
L 201.721251 171.092851 
L 202.923858 156.537586 
L 203.324727 161.280167 
L 203.725596 150.127761 
L 204.126466 153.79221 
L 204.527335 161.308674 
L 205.729942 173.20649 
L 206.130812 158.249434 
L 206.531681 161.480437 
L 206.93255 167.06009 
L 207.333419 140.196897 
L 208.536027 153.406142 
L 208.936896 145.901286 
L 209.337765 142.487338 
L 209.738634 143.695384 
L 210.139503 156.098709 
L 211.342111 152.157607 
L 211.74298 146.453337 
L 212.143849 144.65481 
L 212.544718 134.048219 
L 212.945588 130.762436 
L 214.148195 130.58808 
L 214.549064 126.881554 
L 214.949933 119.096914 
L 215.350803 133.564277 
L 215.751672 107.024905 
L 216.954279 106.747546 
L 217.355149 99.584292 
L 217.756018 100.201548 
L 218.156887 90.171149 
L 219.760364 87.048231 
L 220.161233 90.703931 
L 220.562102 91.566646 
L 220.962971 95.616391 
L 221.36384 78.317475 
L 222.566448 99.662288 
L 222.967317 111.188336 
L 223.368186 90.161028 
L 223.769055 99.33842 
L 224.169925 91.914804 
L 225.773401 116.247634 
L 226.174271 106.313056 
L 226.57514 103.802916 
L 226.976009 114.417718 
L 228.178616 120.536363 
L 228.579486 113.631266 
L 228.980355 119.199958 
L 229.381224 120.088234 
L 229.782093 109.862482 
L 230.984701 85.413108 
L 231.38557 108.07825 
L 231.786439 110.020165 
L 232.187308 114.80265 
L 232.588177 108.024911 
L 233.790785 91.158762 
L 234.191654 110.929395 
L 234.592523 109.064456 
L 234.993392 99.582414 
L 235.394262 110.516966 
L 236.997738 125.108601 
L 237.799477 137.039972 
L 238.200346 133.733129 
L 239.402953 144.578613 
L 239.803823 116.362916 
L 240.204692 97.71056 
L 240.605561 116.006606 
L 241.00643 109.61412 
L 242.209038 111.758106 
L 243.010776 87.662451 
L 243.411645 121.907832 
L 243.812514 118.3859 
L 245.015122 109.283932 
L 245.415991 100.594935 
L 245.81686 98.099016 
L 246.217729 97.713899 
L 246.618599 100.132737 
L 248.222075 93.642074 
L 248.622945 98.37975 
L 249.023814 101.050563 
L 249.424683 113.521385 
L 250.62729 112.379297 
L 251.02816 115.831743 
L 251.429029 80.738803 
L 251.829898 80.618437 
L 253.433375 76.643103 
L 253.834244 91.962707 
L 254.235113 86.30661 
L 254.635982 87.091597 
L 255.036851 85.287782 
L 256.239459 114.79277 
L 256.640328 114.91212 
L 257.041197 103.702584 
L 257.442067 121.190742 
L 257.842936 112.517973 
L 259.045543 100.16464 
L 259.446412 117.521231 
L 259.847282 113.896279 
L 260.248151 137.315553 
L 260.64902 149.613499 
L 261.851627 139.198078 
L 262.252497 153.87204 
L 262.653366 152.387388 
L 263.054235 151.553136 
L 263.455104 135.228935 
L 264.657712 113.783189 
L 265.058581 120.21217 
L 265.860319 104.088896 
L 266.261188 128.194045 
L 267.463796 131.103015 
L 267.864665 146.732156 
L 268.265534 115.856171 
L 268.666404 113.992542 
L 269.067273 118.500279 
L 270.26988 110.94744 
L 270.670749 112.527999 
L 271.071619 115.568291 
L 271.472488 108.7488 
L 271.873357 138.138363 
L 273.075965 127.42189 
L 273.476834 119.141852 
L 273.877703 116.173352 
L 274.679441 74.340925 
L 275.882049 68.004118 
L 276.282918 72.665799 
L 276.683787 65.480655 
L 277.084656 112.481958 
L 277.485525 121.511687 
L 279.089002 143.311862 
L 279.489871 127.80564 
L 279.890741 142.983667 
L 280.29161 142.714619 
L 281.494217 141.599371 
L 281.895086 140.689533 
L 282.696825 164.818416 
L 283.097694 171.820935 
L 284.300302 164.349656 
L 284.701171 158.329034 
L 285.10204 172.781288 
L 285.502909 153.263806 
L 285.903778 140.368174 
L 287.106386 117.11576 
L 287.507255 138.864228 
L 287.908124 118.516248 
L 288.308993 110.793202 
L 288.709863 128.466475 
L 289.91247 126.836894 
L 290.313339 128.357491 
L 290.714208 116.776452 
L 291.115078 109.798017 
L 291.515947 105.211779 
L 292.718554 104.229506 
L 293.119424 84.312755 
L 293.921162 103.518091 
L 295.524639 115.021121 
L 296.326377 124.440925 
L 296.727246 105.441832 
L 297.128115 112.03772 
L 298.731592 119.824684 
L 299.132461 148.305314 
L 299.53333 157.729761 
L 299.9342 181.630096 
L 301.136807 188.099042 
L 301.537676 168.546178 
L 301.938545 137.121459 
L 302.740284 110.390508 
L 303.942891 123.043036 
L 304.343761 136.328075 
L 304.74463 127.555945 
L 305.145499 131.268741 
L 305.546368 119.47391 
L 306.748976 123.231444 
L 307.149845 106.658557 
L 307.550714 116.545571 
L 307.951583 109.140034 
L 308.352452 113.546684 
L 309.55506 121.302217 
L 309.955929 134.761572 
L 310.356798 155.375552 
L 311.158537 152.114367 
L 312.361144 141.913633 
L 312.762013 108.26376 
L 313.162882 132.909026 
L 313.563752 133.011883 
L 313.964621 137.72394 
L 315.167228 141.906555 
L 315.568098 118.957158 
L 315.968967 126.538532 
L 316.369836 139.412558 
L 316.770705 116.436153 
L 317.973313 111.238564 
L 318.374182 128.568406 
L 318.775051 106.747054 
L 319.17592 110.991141 
L 319.576789 109.171303 
L 320.779397 102.932708 
L 321.180266 94.400497 
L 321.581135 103.828294 
L 321.982004 99.522669 
L 323.585481 94.059959 
L 323.98635 101.717457 
L 324.788089 85.000784 
L 326.391565 114.479948 
L 326.792435 116.701292 
L 327.193304 135.710292 
L 327.995042 129.504165 
L 329.19765 133.062372 
L 329.598519 151.776259 
L 329.999388 151.569249 
L 330.400257 152.444594 
L 330.801126 159.449049 
L 332.404603 153.751789 
L 332.805472 129.628253 
L 333.206341 122.099827 
L 333.607211 121.568668 
L 334.809818 100.736815 
L 335.210687 96.499563 
L 335.611557 75.506375 
L 336.012426 75.518215 
L 336.413295 101.728545 
L 337.615902 84.998053 
L 338.016772 77.455986 
L 338.417641 75.463359 
L 338.81851 67.67906 
L 339.219379 66.223593 
L 340.421987 69.141029 
L 340.822856 76.165076 
L 341.223725 80.989106 
L 341.624594 80.051845 
L 342.025463 84.533305 
L 343.62894 95.002174 
L 344.029809 94.036971 
L 344.430678 110.164366 
L 344.831548 88.564117 
L 346.034155 151.153042 
L 346.435024 154.936468 
L 347.236763 179.376957 
L 347.637632 162.554707 
L 348.840239 145.203937 
L 349.641978 166.75562 
L 350.042847 173.909751 
L 350.443716 159.454378 
L 351.646324 163.861377 
L 352.047193 150.107249 
L 352.448062 151.537319 
L 352.848931 137.066614 
L 353.2498 127.575425 
L 354.452408 126.953171 
L 354.853277 123.881019 
L 355.254146 112.614917 
L 355.655016 133.450488 
L 356.055885 144.762968 
L 357.258492 125.600527 
L 357.659361 106.587172 
L 358.060231 110.217486 
L 358.4611 128.315416 
L 358.861969 108.495515 
L 360.465446 131.530928 
L 360.866315 133.630828 
L 361.267184 114.875435 
L 362.870661 101.136887 
L 363.27153 108.735545 
L 363.672399 103.804866 
L 364.073268 81.047663 
L 364.474137 77.181687 
L 365.676745 83.27617 
L 366.077614 82.07958 
L 366.478483 84.691751 
L 366.879353 69.928239 
L 367.280222 72.617486 
L 368.482829 75.412118 
L 368.883698 64.129458 
L 369.284568 65.515347 
L 369.685437 87.997954 
L 370.086306 92.847219 
L 371.288914 86.793785 
L 371.689783 89.829999 
L 372.090652 126.227295 
L 372.491521 140.025056 
L 372.89239 141.097589 
L 374.495867 153.909205 
L 374.896736 173.361916 
L 375.297605 164.324439 
L 375.698475 149.169138 
L 376.901082 159.431325 
L 377.301951 169.546993 
L 377.70282 175.252384 
L 378.10369 175.071232 
L 378.504559 159.820337 
L 379.707166 165.327559 
L 380.108035 157.242081 
L 380.508905 151.71706 
L 380.909774 141.768234 
L 381.310643 143.719897 
L 382.513251 122.38176 
L 382.91412 117.40539 
L 383.314989 124.623007 
L 383.715858 136.135467 
L 384.116727 121.857069 
L 385.720204 125.582836 
L 386.121073 101.998902 
L 386.521942 118.924179 
L 386.922812 119.010383 
L 388.125419 98.472023 
L 388.526288 94.475293 
L 388.927157 93.537547 
L 389.328027 92.906082 
L 389.728896 85.09957 
L 390.931503 93.08723 
L 391.332373 103.751742 
L 391.733242 107.405898 
L 392.134111 87.684829 
L 392.53498 95.808178 
L 394.539326 66.636117 
L 394.940195 71.468787 
L 395.341064 86.5642 
L 396.543672 72.913142 
L 396.944541 70.574279 
L 397.34541 79.000866 
L 397.746279 78.910788 
L 398.147149 72.586668 
L 399.750625 64.330349 
L 400.151494 56.529316 
L 400.552364 74.337152 
L 400.953233 65.530744 
L 402.15584 73.721269 
L 402.55671 72.472908 
L 402.957579 68.857026 
L 403.358448 79.263218 
L 403.759317 71.416451 
L 404.961925 99.204066 
L 405.362794 100.164928 
L 406.164532 84.872306 
L 406.565401 89.489713 
L 407.768009 92.401706 
L 408.168878 108.38319 
L 408.569747 98.935807 
L 408.970616 99.522488 
L 409.371486 103.900281 
L 410.574093 114.946245 
L 410.974962 112.45424 
L 411.375831 108.401312 
L 411.776701 98.806803 
L 412.17757 78.898664 
L 413.380177 91.127374 
L 414.181916 125.72917 
L 414.582785 129.289906 
L 414.983654 111.47338 
L 416.186262 89.085886 
L 416.587131 97.215316 
L 416.988 108.711195 
L 417.388869 83.911839 
L 417.789738 71.789295 
L 418.992346 74.327159 
L 419.794084 88.593695 
L 420.194953 100.416676 
L 420.595823 94.779966 
L 421.79843 80.696896 
L 422.199299 88.303127 
L 422.600169 93.327738 
L 423.001038 102.244258 
L 423.401907 106.458631 
L 425.005384 104.12044 
L 425.406253 95.893997 
L 425.807122 128.119257 
L 426.207991 176.816365 
L 427.410599 169.341194 
L 428.212337 118.717622 
L 428.613206 102.463429 
L 429.014075 129.512368 
L 430.216683 162.437042 
L 430.617552 155.835745 
L 431.018421 140.468713 
L 431.41929 135.107823 
L 431.82016 135.705287 
L 433.022767 146.751413 
L 433.423636 165.754342 
L 433.824506 160.005078 
L 434.225375 160.845314 
L 434.626244 145.607305 
L 435.828851 160.955767 
L 436.229721 159.466342 
L 436.63059 150.724955 
L 437.432328 128.953919 
L 438.634936 131.22109 
L 439.035805 142.195667 
L 439.436674 136.636805 
L 441.44102 76.486353 
L 441.841889 76.016455 
L 442.242758 71.541483 
L 442.643627 75.478869 
L 443.044497 56.139225 
L 444.647973 69.70973 
L 445.048843 58.584096 
L 445.449712 57.783748 
L 445.850581 51.416472 
L 447.053188 54.752282 
L 447.454058 54.591194 
L 447.854927 57.643171 
L 448.255796 57.04973 
L 448.656665 60.588952 
L 449.859273 60.596081 
L 450.260142 61.495979 
L 450.661011 83.937494 
L 451.462749 68.939114 
L 452.665357 72.918517 
L 453.066226 84.288082 
L 453.467095 85.755757 
L 453.867965 95.305779 
L 454.268834 80.769947 
L 455.471441 104.526292 
L 455.87231 115.725194 
L 456.27318 122.537498 
L 457.074918 146.257318 
L 458.277525 129.456421 
L 458.678395 140.216945 
L 459.079264 130.344069 
L 459.480133 135.753605 
L 459.881002 160.338373 
L 461.08361 150.290792 
L 461.484479 137.82552 
L 461.885348 138.206323 
L 462.286217 146.178358 
L 462.687086 131.044458 
L 463.889694 130.806649 
L 464.290563 143.951841 
L 464.691432 134.50856 
L 465.092302 136.445029 
L 465.493171 148.650514 
L 466.695778 146.039623 
L 467.096647 133.847989 
L 467.497517 125.384372 
L 467.898386 114.317864 
L 469.501863 109.431124 
L 469.902732 121.174716 
L 470.303601 120.350943 
L 470.70447 121.500941 
L 471.105339 139.481267 
L 472.307947 137.278578 
L 472.708816 128.935144 
L 473.109685 157.959228 
L 473.510554 149.012601 
L 473.911424 147.12554 
L 475.114031 140.607342 
L 475.5149 156.388804 
L 475.915769 163.909092 
L 476.316639 183.216964 
L 476.717508 189.955694 
L 478.320984 194.107897 
L 478.721854 194.163084 
L 479.122723 193.629791 
L 479.523592 195.110822 
L 480.7262 193.297618 
L 481.127069 194.524263 
L 481.527938 163.748172 
L 481.928807 153.848752 
L 482.329676 138.644597 
L 483.532284 134.774174 
L 483.933153 138.77483 
L 484.734891 135.027006 
L 485.135761 136.079068 
L 486.338368 132.558013 
L 486.739237 128.342295 
L 487.140106 117.461942 
L 487.540976 122.083929 
L 487.941845 131.60435 
L 489.144452 121.794255 
L 489.545322 125.114282 
L 489.946191 129.686622 
L 490.34706 153.114892 
L 490.747929 160.601567 
L 492.351406 158.659417 
L 492.752275 173.954382 
L 493.153144 137.981168 
L 493.554013 140.829679 
L 494.756621 132.242697 
L 495.15749 142.71322 
L 495.558359 144.975424 
L 495.959228 139.043964 
L 496.360098 137.239781 
L 497.562705 150.77076 
L 497.963574 163.238806 
L 498.364443 143.04056 
L 498.765313 136.585741 
L 499.166182 139.698433 
L 500.368789 143.326481 
L 500.769659 122.284114 
L 501.170528 130.315023 
L 501.571397 132.704013 
L 501.972266 128.094666 
L 503.174874 124.837439 
L 503.976612 125.630387 
L 504.377481 112.036629 
L 504.77835 93.811778 
L 505.980958 81.882733 
L 506.381827 88.212389 
L 506.782696 85.135342 
L 507.183565 85.20489 
L 507.584435 75.463052 
L 508.787042 79.648672 
L 509.187911 98.350607 
L 509.58878 123.23854 
L 510.390519 133.575415 
L 511.593126 157.181431 
L 512.394865 153.982152 
L 512.795734 161.297744 
L 514.399211 173.203411 
L 514.80008 173.059667 
L 515.200949 169.612999 
L 515.601818 169.612917 
L 516.002687 177.081 
L 517.205295 174.879907 
L 517.606164 179.105986 
L 518.007033 149.322295 
L 518.407902 143.237673 
L 518.808772 150.130942 
L 520.011379 130.926106 
L 520.412248 130.37436 
L 520.813118 127.565667 
L 521.213987 132.569047 
L 521.614856 135.793485 
L 522.817463 149.511412 
L 523.218333 145.330088 
L 523.619202 147.853967 
L 524.020071 146.700381 
L 524.42094 147.66541 
L 525.623548 138.689813 
L 526.024417 147.631771 
L 526.425286 165.315091 
L 526.826155 157.138813 
L 527.227024 168.528005 
L 528.429632 153.678963 
L 528.830501 167.415888 
L 529.23137 150.428706 
L 529.632239 141.69656 
L 530.033109 116.354463 
L 531.636585 125.390626 
L 532.438324 92.316361 
L 532.839193 111.53618 
L 534.0418 115.015513 
L 534.44267 117.624004 
L 534.843539 89.724403 
L 535.244408 104.300666 
L 535.645277 129.30841 
L 536.847885 161.115681 
L 537.248754 155.098861 
L 537.649623 146.65626 
L 538.050492 160.704983 
L 538.451361 170.302552 
L 540.054838 156.582977 
L 540.455707 158.254386 
L 540.856576 151.886577 
L 541.257446 133.106058 
L 542.460053 135.021271 
L 542.860922 149.45078 
L 543.261792 142.099989 
L 543.662661 139.758584 
L 544.06353 121.040256 
L 545.667007 98.607044 
L 546.067876 97.450241 
L 546.468745 102.989178 
L 546.869614 89.058899 
L 548.072222 99.85551 
L 548.473091 130.184108 
L 548.87396 130.741382 
L 549.274829 138.524021 
L 549.675698 151.915172 
L 550.878306 151.384602 
L 551.279175 123.544461 
L 551.680044 125.670125 
L 552.080914 112.199952 
L 552.481783 128.39411 
L 553.68439 139.038536 
L 554.085259 159.617267 
L 554.486129 129.531138 
L 555.287867 107.354801 
L 556.490475 91.586238 
L 556.891344 96.33621 
L 557.292213 90.571796 
L 557.693082 91.816925 
L 558.093951 88.321752 
L 559.296559 98.535305 
L 559.697428 99.329638 
L 560.499166 90.357252 
L 560.900035 83.16898 
L 562.102643 66.213869 
L 562.904381 92.967589 
L 563.305251 104.06972 
L 563.70612 108.174736 
L 564.908727 122.289454 
L 565.309596 144.086128 
L 565.710466 149.064237 
L 566.111335 138.600219 
L 566.512204 153.896519 
L 567.714812 163.191922 
L 568.115681 186.793575 
L 568.51655 186.18423 
L 568.917419 206.168945 
L 569.318288 214.816648 
L 570.921765 215.46 
L 571.322634 197.061698 
L 571.723503 194.827291 
L 572.124373 172.75184 
L 573.32698 154.993489 
L 573.727849 172.195103 
L 574.128718 170.978427 
L 574.529588 184.545855 
L 574.930457 175.673671 
L 576.133064 172.74352 
L 576.533933 172.520105 
L 576.934803 174.785963 
L 577.335672 167.900859 
L 577.736541 166.321814 
L 578.939149 163.213323 
L 579.340018 179.537672 
L 579.740887 166.343532 
L 580.141756 189.052868 
L 580.542625 200.169001 
L 581.745233 157.344252 
L 582.546971 121.112491 
L 582.94784 125.456038 
L 583.34871 148.130144 
L 584.551317 152.11628 
L 584.952186 152.554875 
L 585.353055 156.100704 
L 585.753925 135.818728 
L 586.154794 142.902696 
L 587.357401 128.619574 
L 587.758271 133.562532 
L 588.15914 131.48551 
L 588.560009 125.265933 
L 588.960878 127.970748 
L 590.163486 132.666954 
L 590.564355 127.8518 
L 590.965224 148.71004 
L 591.366093 140.066835 
L 591.766962 121.698673 
L 592.96957 121.561368 
L 593.370439 127.140758 
L 593.771308 147.264729 
L 594.172177 147.43509 
L 594.573047 150.106205 
L 595.775654 142.411437 
L 596.176523 139.012002 
L 596.577392 143.122653 
L 596.978262 129.223966 
L 597.379131 130.207522 
L 598.581738 138.915241 
L 598.982608 117.365456 
L 599.383477 110.408597 
L 599.784346 120.859357 
L 600.185215 115.523272 
L 601.387823 107.316471 
L 602.189561 68.791859 
L 602.991299 74.701002 
L 604.193907 99.493082 
L 604.594776 104.832992 
L 604.995645 76.672186 
L 605.396514 99.368407 
L 605.797384 106.517254 
L 606.999991 104.011771 
L 607.40086 120.616009 
L 607.801729 123.602946 
L 608.202599 117.022916 
L 608.603468 120.814117 
L 609.806075 109.843007 
L 610.206945 107.703545 
L 610.607814 111.12463 
L 611.008683 127.496841 
L 611.409552 124.988481 
L 612.61216 129.870371 
L 613.013029 158.511631 
L 613.413898 150.962074 
L 613.814767 160.62123 
L 614.215636 152.667171 
L 615.819113 147.281304 
L 616.219982 150.106734 
L 616.620851 142.217716 
L 617.021721 140.880031 
L 618.625197 158.88677 
L 619.026067 184.608631 
L 619.426936 190.703613 
L 619.827805 176.448743 
L 621.030412 165.375362 
L 621.832151 141.476172 
L 622.23302 141.244605 
L 622.633889 127.873957 
L 624.237366 126.691819 
L 624.638235 132.333517 
L 625.039104 135.045443 
L 625.439973 131.529626 
L 626.642581 125.073791 
L 627.04345 125.641036 
L 627.444319 105.265406 
L 627.845188 75.423337 
L 628.246058 77.893988 
L 629.448665 97.468329 
L 629.849534 93.059758 
L 630.250404 95.575997 
L 630.651273 85.427701 
L 631.052142 100.211616 
L 632.254749 104.612929 
L 632.655619 85.241175 
L 633.056488 78.696808 
L 633.457357 92.629213 
L 633.858226 96.229208 
L 635.461703 83.535214 
L 636.263441 109.041847 
L 636.66431 106.644845 
L 638.267787 122.061325 
L 638.668656 131.010384 
L 639.069525 146.454926 
L 639.470395 145.421858 
L 640.673002 140.996 
L 641.073871 169.34882 
L 641.474741 172.337043 
L 641.87561 154.460982 
L 642.276479 143.747438 
L 643.879956 166.58324 
L 644.280825 164.212415 
L 644.681694 154.711218 
L 645.082563 154.027546 
L 646.285171 126.901341 
L 646.68604 109.556646 
L 647.086909 107.1953 
L 647.487778 78.102972 
L 647.888647 76.100453 
L 649.091255 92.534263 
L 649.492124 83.561525 
L 649.892993 92.086557 
L 650.694732 89.425644 
L 651.897339 92.894508 
L 652.298208 94.486311 
L 652.699078 86.331474 
L 653.099947 74.887442 
L 653.500816 75.642708 
L 654.703424 83.926093 
L 655.104293 88.774794 
L 655.505162 111.831701 
L 655.906031 105.084873 
L 657.509508 90.767668 
L 657.910377 111.497728 
L 658.311246 106.682904 
L 658.712115 105.152401 
L 659.112984 118.857458 
L 660.315592 104.266174 
L 660.716461 102.351193 
L 661.11733 111.229512 
L 661.919069 136.935988 
L 663.121676 143.738941 
L 663.522545 155.460353 
L 663.923415 112.732294 
L 664.324284 109.977359 
L 664.725153 103.022525 
L 665.927761 92.900853 
L 666.32863 93.920332 
L 666.729499 103.70956 
L 667.130368 93.374867 
L 667.531237 90.432117 
L 668.733845 94.310245 
L 669.134714 98.251748 
L 669.535583 87.33303 
L 669.936452 91.527176 
L 670.337322 84.957342 
L 671.539929 67.457226 
L 671.940798 85.208198 
L 672.341667 97.105418 
L 672.742537 92.735223 
L 673.143406 85.86832 
L 674.346013 80.477679 
L 674.746882 99.83228 
L 675.147752 106.4285 
L 675.94949 80.70973 
L 677.552967 80.809716 
L 677.953836 95.149499 
L 678.354705 83.792546 
L 678.755574 77.663917 
L 679.958182 77.617574 
L 680.359051 86.364208 
L 680.75992 114.224794 
L 681.160789 118.146086 
L 681.561659 115.473994 
L 682.764266 112.327855 
L 683.165135 96.460315 
L 683.566004 89.764669 
L 683.966874 91.126937 
L 684.367743 113.133737 
L 685.97122 118.350779 
L 686.372089 121.461032 
L 686.772958 118.577198 
L 687.173827 130.663035 
L 688.376435 140.571452 
L 688.777304 128.860099 
L 689.178173 110.739477 
L 689.579042 114.632397 
L 689.979911 109.676494 
L 691.182519 120.606245 
L 691.984257 123.900793 
L 692.385126 123.796035 
L 692.785996 149.54445 
L 693.988603 148.994517 
L 694.389472 140.841258 
L 694.790341 123.074035 
L 695.191211 124.322793 
L 695.59208 109.299518 
L 696.794687 90.423598 
L 697.195557 81.29136 
L 698.398164 124.624875 
L 699.600772 117.816117 
L 700.001641 109.98623 
L 700.40251 134.792363 
L 700.803379 138.496083 
L 701.204248 121.833509 
L 702.406856 125.822386 
L 702.807725 131.187167 
L 703.208594 148.946414 
L 703.609463 153.723566 
L 704.010333 152.737612 
L 705.21294 173.517337 
L 705.613809 173.225717 
L 706.415548 164.573959 
L 706.816417 169.587534 
L 708.019024 176.428975 
L 708.820763 153.81063 
L 709.221632 187.202454 
L 709.622501 184.686253 
L 710.825109 165.02566 
L 711.626847 127.10332 
L 712.027716 147.547185 
L 712.428585 145.600853 
L 713.631193 134.434941 
L 714.032062 112.45532 
L 714.432931 113.132846 
L 714.8338 110.383163 
L 715.23467 115.162045 
L 716.838146 97.798016 
L 717.239016 97.416252 
L 717.639885 95.473928 
L 718.040754 87.376893 
L 719.243361 89.838682 
L 719.644231 109.641171 
L 720.0451 110.078755 
L 720.445969 84.253633 
L 720.846838 114.470552 
L 722.049446 118.630597 
L 722.450315 129.504204 
L 722.851184 146.077448 
L 723.252053 146.427095 
L 723.652922 152.494402 
L 724.85553 163.746803 
L 725.256399 169.706778 
L 725.657268 164.324788 
L 726.058137 174.505656 
L 726.459007 179.547999 
L 727.661614 152.360229 
L 728.062483 176.434629 
L 728.463353 168.134276 
L 728.864222 154.929255 
L 729.265091 133.632811 
L 730.467698 127.84761 
L 730.868568 113.55795 
L 731.269437 103.748891 
L 731.670306 100.40417 
L 732.071175 109.943681 
L 733.273783 89.181607 
L 733.674652 91.580445 
L 734.075521 97.888298 
L 734.47639 99.095722 
L 734.877259 120.100015 
L 736.079867 93.044823 
L 736.480736 100.106538 
L 736.881605 86.102467 
L 737.282475 128.88898 
L 737.683344 130.087564 
L 738.885951 114.924173 
L 739.28682 119.840735 
L 739.68769 106.178154 
L 740.088559 96.43383 
L 740.489428 96.900556 
L 741.692035 91.815163 
L 742.092905 84.006893 
L 742.493774 82.8522 
L 743.295512 73.837632 
L 744.49812 80.924017 
L 744.898989 85.844637 
L 745.299858 51.534071 
L 745.700727 49.928919 
L 746.101596 72.293349 
L 747.304204 67.909728 
L 747.705073 84.477454 
L 748.105942 82.320968 
L 748.907681 87.275084 
L 750.110288 89.820022 
L 750.511157 89.717461 
L 750.912027 101.79399 
L 751.312896 95.910197 
L 751.713765 119.080943 
L 752.916373 124.057216 
L 753.317242 124.416099 
L 754.11898 140.052814 
L 754.519849 121.167573 
L 755.722457 143.868541 
L 756.123326 127.035462 
L 756.524195 139.139903 
L 756.925064 154.812646 
L 757.325933 145.785198 
L 758.528541 151.031141 
L 758.92941 142.583854 
L 759.330279 147.604295 
L 760.132018 116.927823 
L 761.735494 124.445705 
L 762.136364 114.965034 
L 762.537233 117.311473 
L 762.938102 124.302798 
L 764.541579 131.346182 
L 764.942448 142.335227 
L 765.343317 149.26485 
L 765.744186 122.832073 
L 766.946794 115.571117 
L 767.347663 118.213102 
L 768.149401 86.478948 
L 768.550271 84.923857 
L 770.153747 83.703761 
L 770.554616 87.226234 
L 770.955486 78.537197 
L 771.356355 74.451 
L 772.558962 82.98033 
L 772.959831 61.129239 
L 773.360701 57.577949 
L 773.76157 45.627116 
L 774.162439 48.752984 
L 775.365047 49.223668 
L 775.765916 54.423328 
L 776.166785 98.848598 
L 776.567654 93.119569 
L 776.968523 89.055489 
L 778.171131 104.125667 
L 778.572 102.747875 
L 778.972869 97.958039 
L 779.373738 103.470925 
L 779.774608 91.530516 
L 780.977215 105.020164 
L 781.378084 124.746979 
L 781.778953 122.630337 
L 782.179823 125.517636 
L 782.580692 136.989475 
L 784.184169 137.175525 
L 784.585038 121.251986 
L 784.985907 116.568725 
L 785.386776 130.278499 
L 786.589384 125.256738 
L 786.990253 125.065608 
L 787.391122 142.080356 
L 787.791991 129.505227 
L 788.19286 139.038819 
L 789.395468 129.074175 
L 789.796337 136.379005 
L 790.197206 147.328434 
L 790.598075 124.584302 
L 790.998945 125.51822 
L 792.201552 126.457206 
L 792.602421 107.548777 
L 793.00329 122.994969 
L 793.40416 104.27352 
L 793.805029 116.140341 
L 795.007636 114.837725 
L 795.408506 110.083262 
L 795.809375 112.607499 
L 796.210244 109.874218 
L 796.611113 109.961861 
L 797.813721 97.612199 
L 798.21459 98.984375 
L 798.615459 108.128383 
L 799.016328 103.106956 
L 800.619805 94.236467 
L 801.020674 117.298176 
L 801.421543 119.162649 
L 801.822412 147.790679 
L 802.223282 107.456745 
L 803.425889 112.017428 
L 803.826758 117.200843 
L 804.227627 135.387544 
L 804.628497 133.901199 
L 805.029366 145.962181 
L 806.231973 150.357362 
L 806.632843 145.720477 
L 807.033712 150.165083 
L 807.434581 160.163837 
L 807.83545 175.535159 
L 809.038058 167.529615 
L 809.438927 151.408748 
L 809.839796 144.951449 
L 810.240665 173.00609 
L 810.641534 156.898788 
L 811.844142 164.152384 
L 812.245011 172.208111 
L 812.64588 170.562392 
L 813.046749 160.795528 
L 813.447619 138.918768 
L 814.650226 131.293892 
L 815.051095 132.963648 
L 815.852834 112.814207 
L 816.253703 112.193195 
L 817.45631 121.459431 
L 817.85718 119.766396 
L 818.258049 94.651344 
L 818.658918 106.252241 
L 819.059787 99.611863 
L 820.262395 61.436313 
L 821.064133 63.457221 
L 821.465002 83.022192 
L 821.865871 87.75659 
L 823.469348 71.310278 
L 823.870217 77.594039 
L 824.271086 123.857014 
L 824.671956 127.69081 
L 825.874563 128.942867 
L 826.275432 129.528349 
L 826.676302 128.162627 
L 827.077171 122.588925 
L 827.47804 122.33756 
L 828.680647 124.56396 
L 829.081517 122.33762 
L 829.883255 101.496499 
L 830.284124 104.655638 
L 831.486732 96.973162 
L 831.887601 99.092218 
L 832.689339 55.130641 
L 833.090208 53.187904 
L 834.292816 55.137949 
L 834.693685 54.756615 
L 835.094554 58.812712 
L 835.495424 58.686089 
L 835.896293 78.710828 
L 837.0989 73.264065 
L 837.499769 75.245216 
L 837.900639 82.63077 
L 838.702377 75.821765 
L 839.904984 80.987266 
L 840.305854 107.336098 
L 840.706723 93.110118 
L 841.107592 116.202961 
L 841.508461 123.982607 
L 842.711069 119.624498 
L 843.512807 143.111333 
L 843.913676 148.225944 
L 844.314545 144.963826 
L 845.517153 152.286932 
L 845.918022 153.563199 
L 846.719761 191.672229 
L 847.12063 178.034369 
L 848.323237 171.022733 
L 848.724106 186.209981 
L 849.124976 181.909276 
L 849.525845 181.970238 
L 849.926714 187.980711 
L 851.129322 192.192 
L 851.530191 181.14968 
L 851.93106 180.015977 
L 852.331929 170.572249 
L 852.732798 174.846835 
L 853.935406 176.848069 
L 854.336275 150.616318 
L 854.737144 132.447967 
L 855.138013 135.615096 
L 855.538882 141.818388 
L 856.74149 131.067075 
L 857.142359 118.396312 
L 857.543228 117.339209 
L 857.944098 117.312572 
L 858.344967 84.352497 
L 859.547574 99.479166 
L 859.948443 95.674064 
L 860.349313 111.242038 
L 860.750182 112.686902 
L 861.151051 107.17526 
L 863.155397 145.571836 
L 863.556266 160.131759 
L 863.957135 166.349159 
L 865.159743 163.568397 
L 865.560612 150.272524 
L 866.36235 109.642847 
L 866.76322 106.45229 
L 867.965827 98.110386 
L 868.366696 94.165728 
L 868.767565 96.6457 
L 869.168435 91.261491 
L 869.569304 102.297184 
L 870.771911 89.460359 
L 871.17278 97.954198 
L 871.57365 93.897022 
L 871.974519 80.402168 
L 872.375388 92.194523 
L 873.577996 99.464328 
L 873.978865 134.470642 
L 874.379734 148.697908 
L 874.780603 158.198966 
L 875.181472 160.829888 
L 876.38408 178.92916 
L 876.784949 160.30096 
L 877.185818 174.238709 
L 877.586687 172.085573 
L 877.987557 168.312691 
L 879.190164 153.173629 
L 879.591033 162.805439 
L 879.991902 165.657288 
L 880.392772 158.346279 
L 880.793641 161.108323 
L 881.996248 136.43185 
L 882.397118 100.618991 
L 882.797987 108.628845 
L 883.198856 106.786894 
L 883.599725 75.499238 
L 884.802333 91.05535 
L 885.203202 86.28107 
L 885.604071 77.976842 
L 886.00494 147.246551 
L 886.405809 144.869502 
L 887.608417 146.981839 
L 888.009286 137.687342 
L 888.410155 125.081659 
L 888.811024 120.141703 
L 889.211894 125.090599 
L 890.414501 143.39603 
L 890.81537 132.207164 
L 891.216239 129.445988 
L 891.617109 131.777547 
L 892.017978 143.836665 
L 893.220585 150.426435 
L 893.621455 148.267544 
L 894.022324 113.987255 
L 894.423193 123.974481 
L 894.824062 113.574815 
L 896.02667 115.381958 
L 896.427539 114.625825 
L 896.828408 132.920074 
L 897.630146 126.760364 
L 898.832754 105.573599 
L 899.233623 112.567911 
L 900.035361 102.042367 
L 900.436231 68.979678 
L 901.638838 67.683187 
L 902.039707 77.850046 
L 902.440576 66.390618 
L 902.841446 60.418596 
L 903.242315 70.501016 
L 904.444922 68.617495 
L 904.845792 73.715748 
L 905.246661 105.737123 
L 905.64753 107.096477 
L 906.048399 119.239778 
L 907.251007 122.43318 
L 907.651876 126.314485 
L 908.453614 139.695031 
L 908.854483 154.416146 
L 910.057091 167.344997 
L 910.45796 168.038317 
L 911.259698 185.641353 
L 911.660568 174.514787 
L 912.863175 161.797535 
L 913.264044 176.910916 
L 913.664914 178.535558 
L 914.466652 166.876654 
L 915.669259 168.582293 
L 916.070129 169.846758 
L 916.470998 144.484509 
L 916.871867 154.801337 
L 917.272736 144.503025 
L 918.876213 133.708367 
L 919.277082 98.601961 
L 919.677951 91.32004 
L 920.07882 90.739857 
L 921.281428 113.955964 
L 921.682297 105.199523 
L 922.083166 104.210456 
L 922.484035 139.393084 
L 922.884905 134.077771 
L 924.087512 136.374156 
L 924.488381 133.389733 
L 924.889251 144.610829 
L 925.29012 139.765125 
L 925.690989 151.029545 
L 926.893596 147.39828 
L 927.294466 175.313804 
L 927.695335 177.910816 
L 928.096204 173.27862 
L 928.497073 167.344795 
L 930.10055 194.235324 
L 930.501419 176.941001 
L 930.902288 124.150001 
L 931.303157 144.666812 
L 932.505765 144.828359 
L 932.906634 159.718033 
L 933.307503 157.192913 
L 933.708373 173.530449 
L 934.109242 153.921978 
L 935.311849 170.852946 
L 935.712718 169.723596 
L 936.113588 141.041943 
L 936.514457 148.853675 
L 936.915326 150.564809 
L 938.117933 165.07826 
L 938.518803 173.574621 
L 938.919672 172.405791 
L 939.320541 169.769183 
L 939.72141 149.416945 
L 940.924018 142.539664 
L 941.324887 151.076993 
L 941.725756 136.414107 
L 942.126625 144.423961 
L 942.527494 125.908096 
L 943.730102 123.52378 
L 944.130971 140.198711 
L 944.53184 141.813464 
L 944.93271 134.951109 
L 945.333579 132.562806 
L 946.536186 138.840329 
L 947.337925 124.178019 
L 947.738794 157.442342 
L 948.139663 171.460253 
L 949.342271 168.662681 
L 949.74314 180.866553 
L 950.144009 126.448811 
L 950.544878 139.452428 
L 950.945747 134.241689 
L 952.148355 136.78146 
L 952.549224 134.055623 
L 952.950093 145.875113 
L 953.350962 139.910454 
L 954.954439 143.941148 
L 955.355308 143.072782 
L 955.756177 136.229194 
L 956.557916 103.59322 
L 957.760523 102.225724 
L 958.161392 96.940773 
L 958.562262 124.394071 
L 958.963131 88.237656 
L 959.364 86.754512 
L 960.566608 85.443723 
L 960.967477 86.480893 
L 961.368346 65.020798 
L 961.769215 56.681732 
L 962.170084 39.315805 
L 963.372692 39.06 
L 964.17443 41.163474 
L 964.575299 41.668499 
L 964.976169 39.649523 
L 966.178776 39.446176 
L 966.579645 41.455635 
L 966.980514 70.6534 
L 967.381384 78.323536 
L 967.782253 95.801106 
L 969.385729 74.783404 
L 969.786599 84.380183 
L 970.187468 88.079123 
L 970.588337 86.836549 
L 971.790945 98.513194 
L 972.191814 96.597348 
L 972.592683 101.281172 
L 972.993552 96.753395 
L 973.394421 94.467886 
L 974.597029 97.786407 
L 974.997898 101.182684 
L 975.398767 80.184996 
L 975.799636 75.747033 
L 976.200506 72.999243 
L 977.403113 80.226584 
L 977.803982 70.576637 
L 978.204851 69.593906 
L 979.00659 83.79539 
L 980.610067 72.376281 
L 981.411805 70.173194 
L 981.812674 77.366918 
L 983.015282 78.249799 
L 983.416151 88.766956 
L 983.81702 93.430124 
L 984.217889 91.612249 
L 985.821366 83.720264 
L 986.222235 92.060779 
L 986.623104 80.944245 
L 987.023973 88.96637 
L 987.424843 78.908415 
L 988.62745 89.801365 
L 989.028319 91.697527 
L 989.429188 95.802215 
L 989.830058 94.3274 
L 990.230927 94.803921 
L 991.433534 97.241039 
L 991.834404 95.240565 
L 992.235273 90.753572 
L 992.636142 95.492562 
L 993.037011 86.322304 
L 994.239619 86.75529 
L 994.640488 99.628725 
L 995.041357 88.642196 
L 995.442226 65.88668 
L 995.843095 92.554321 
L 997.045703 84.227238 
L 997.847441 111.024281 
L 998.24831 115.082587 
L 998.64918 113.703487 
L 999.851787 106.027195 
L 1000.252656 99.148494 
L 1000.653525 117.832617 
L 1001.054395 118.87298 
L 1001.455264 120.414319 
L 1002.657871 124.576547 
L 1003.058741 133.957958 
L 1003.45961 168.217632 
L 1003.860479 159.83018 
L 1004.261348 179.895368 
L 1005.463956 175.056314 
L 1005.864825 174.41453 
L 1006.265694 156.39559 
L 1006.666563 152.253282 
L 1007.067432 156.050736 
L 1008.670909 177.726837 
L 1008.670909 177.726837 
" clip-path="url(#p799cbda58e)" style="fill: none; stroke: #1f77b4; stroke-width: 1.5; stroke-linecap: square"/>
   </g>
   <g id="patch_3">
    <path d="M 145.8 224.28 
L 145.8 30.24 
" style="fill: none; stroke: #000000; stroke-width: 0.8; stroke-linejoin: miter; stroke-linecap: square"/>
   </g>
   <g id="patch_4">
    <path d="M 145.8 224.28 
L 1049.76 224.28 
" style="fill: none; stroke: #000000; stroke-width: 0.8; stroke-linejoin: miter; stroke-linecap: square"/>
   </g>
  </g>
 </g>
 <defs>
  <clipPath id="p799cbda58e">
   <rect x="145.8" y="30.24" width="903.96" height="194.04"/>
  </clipPath>
 </defs>
</svg>
