<?xml version="1.0" encoding="utf-8" standalone="no"?>
<!DOCTYPE svg PUBLIC "-//W3C//DTD SVG 1.1//EN"
  "http://www.w3.org/Graphics/SVG/1.1/DTD/svg11.dtd">
<svg xmlns:xlink="http://www.w3.org/1999/xlink" width="1166.4pt" height="252pt" viewBox="0 0 1166.4 252" xmlns="http://www.w3.org/2000/svg" version="1.1">
 <metadata>
  <rdf:RDF xmlns:dc="http://purl.org/dc/elements/1.1/" xmlns:cc="http://creativecommons.org/ns#" xmlns:rdf="http://www.w3.org/1999/02/22-rdf-syntax-ns#">
   <cc:Work>
    <dc:type rdf:resource="http://purl.org/dc/dcmitype/StillImage"/>
    <dc:date>2025-09-05T15:16:56.741956</dc:date>
    <dc:format>image/svg+xml</dc:format>
    <dc:creator>
     <cc:Agent>
      <dc:title>Matplotlib v3.10.5, https://matplotlib.org/</dc:title>
     </cc:Agent>
    </dc:creator>
   </cc:Work>
  </rdf:RDF>
 </metadata>
 <defs>
  <style type="text/css">*{stroke-linejoin: round; stroke-linecap: butt}</style>
 </defs>
 <g id="figure_1">
  <g id="patch_1">
   <path d="M 0 252 
L 1166.4 252 
L 1166.4 0 
L 0 0 
z
" style="fill: #ffffff"/>
  </g>
  <g id="axes_1">
   <g id="patch_2">
    <path d="M 145.8 224.28 
L 1049.76 224.28 
L 1049.76 30.24 
L 145.8 30.24 
z
" style="fill: #ffffff"/>
   </g>
   <g id="matplotlib.axis_1">
    <g id="xtick_1">
     <g id="line2d_1">
      <defs>
       <path id="m9eb6aa37d5" d="M 0 0 
L 0 3.5 
" style="stroke: #000000; stroke-width: 0.8"/>
      </defs>
      <g>
       <use xlink:href="#m9eb6aa37d5" x="178.470838" y="224.28" style="stroke: #000000; stroke-width: 0.8"/>
      </g>
     </g>
     <g id="text_1">
      <!-- 2020 -->
      <g transform="translate(165.745838 238.878438) scale(0.1 -0.1)">
       <defs>
        <path id="DejaVuSans-32" d="M 1228 531 
L 3431 531 
L 3431 0 
L 469 0 
L 469 531 
Q 828 903 1448 1529 
Q 2069 2156 2228 2338 
Q 2531 2678 2651 2914 
Q 2772 3150 2772 3378 
Q 2772 3750 2511 3984 
Q 2250 4219 1831 4219 
Q 1534 4219 1204 4116 
Q 875 4013 500 3803 
L 500 4441 
Q 881 4594 1212 4672 
Q 1544 4750 1819 4750 
Q 2544 4750 2975 4387 
Q 3406 4025 3406 3419 
Q 3406 3131 3298 2873 
Q 3191 2616 2906 2266 
Q 2828 2175 2409 1742 
Q 1991 1309 1228 531 
z
" transform="scale(0.015625)"/>
        <path id="DejaVuSans-30" d="M 2034 4250 
Q 1547 4250 1301 3770 
Q 1056 3291 1056 2328 
Q 1056 1369 1301 889 
Q 1547 409 2034 409 
Q 2525 409 2770 889 
Q 3016 1369 3016 2328 
Q 3016 3291 2770 3770 
Q 2525 4250 2034 4250 
z
M 2034 4750 
Q 2819 4750 3233 4129 
Q 3647 3509 3647 2328 
Q 3647 1150 3233 529 
Q 2819 -91 2034 -91 
Q 1250 -91 836 529 
Q 422 1150 422 2328 
Q 422 3509 836 4129 
Q 1250 4750 2034 4750 
z
" transform="scale(0.015625)"/>
       </defs>
       <use xlink:href="#DejaVuSans-32"/>
       <use xlink:href="#DejaVuSans-30" transform="translate(63.623047 0)"/>
       <use xlink:href="#DejaVuSans-32" transform="translate(127.246094 0)"/>
       <use xlink:href="#DejaVuSans-30" transform="translate(190.869141 0)"/>
      </g>
     </g>
    </g>
    <g id="xtick_2">
     <g id="line2d_2">
      <g>
       <use xlink:href="#m9eb6aa37d5" x="325.188958" y="224.28" style="stroke: #000000; stroke-width: 0.8"/>
      </g>
     </g>
     <g id="text_2">
      <!-- 2021 -->
      <g transform="translate(312.463958 238.878438) scale(0.1 -0.1)">
       <defs>
        <path id="DejaVuSans-31" d="M 794 531 
L 1825 531 
L 1825 4091 
L 703 3866 
L 703 4441 
L 1819 4666 
L 2450 4666 
L 2450 531 
L 3481 531 
L 3481 0 
L 794 0 
L 794 531 
z
" transform="scale(0.015625)"/>
       </defs>
       <use xlink:href="#DejaVuSans-32"/>
       <use xlink:href="#DejaVuSans-30" transform="translate(63.623047 0)"/>
       <use xlink:href="#DejaVuSans-32" transform="translate(127.246094 0)"/>
       <use xlink:href="#DejaVuSans-31" transform="translate(190.869141 0)"/>
      </g>
     </g>
    </g>
    <g id="xtick_3">
     <g id="line2d_3">
      <g>
       <use xlink:href="#m9eb6aa37d5" x="471.506208" y="224.28" style="stroke: #000000; stroke-width: 0.8"/>
      </g>
     </g>
     <g id="text_3">
      <!-- 2022 -->
      <g transform="translate(458.781208 238.878438) scale(0.1 -0.1)">
       <use xlink:href="#DejaVuSans-32"/>
       <use xlink:href="#DejaVuSans-30" transform="translate(63.623047 0)"/>
       <use xlink:href="#DejaVuSans-32" transform="translate(127.246094 0)"/>
       <use xlink:href="#DejaVuSans-32" transform="translate(190.869141 0)"/>
      </g>
     </g>
    </g>
    <g id="xtick_4">
     <g id="line2d_4">
      <g>
       <use xlink:href="#m9eb6aa37d5" x="617.823459" y="224.28" style="stroke: #000000; stroke-width: 0.8"/>
      </g>
     </g>
     <g id="text_4">
      <!-- 2023 -->
      <g transform="translate(605.098459 238.878438) scale(0.1 -0.1)">
       <defs>
        <path id="DejaVuSans-33" d="M 2597 2516 
Q 3050 2419 3304 2112 
Q 3559 1806 3559 1356 
Q 3559 666 3084 287 
Q 2609 -91 1734 -91 
Q 1441 -91 1130 -33 
Q 819 25 488 141 
L 488 750 
Q 750 597 1062 519 
Q 1375 441 1716 441 
Q 2309 441 2620 675 
Q 2931 909 2931 1356 
Q 2931 1769 2642 2001 
Q 2353 2234 1838 2234 
L 1294 2234 
L 1294 2753 
L 1863 2753 
Q 2328 2753 2575 2939 
Q 2822 3125 2822 3475 
Q 2822 3834 2567 4026 
Q 2313 4219 1838 4219 
Q 1578 4219 1281 4162 
Q 984 4106 628 3988 
L 628 4550 
Q 988 4650 1302 4700 
Q 1616 4750 1894 4750 
Q 2613 4750 3031 4423 
Q 3450 4097 3450 3541 
Q 3450 3153 3228 2886 
Q 3006 2619 2597 2516 
z
" transform="scale(0.015625)"/>
       </defs>
       <use xlink:href="#DejaVuSans-32"/>
       <use xlink:href="#DejaVuSans-30" transform="translate(63.623047 0)"/>
       <use xlink:href="#DejaVuSans-32" transform="translate(127.246094 0)"/>
       <use xlink:href="#DejaVuSans-33" transform="translate(190.869141 0)"/>
      </g>
     </g>
    </g>
    <g id="xtick_5">
     <g id="line2d_5">
      <g>
       <use xlink:href="#m9eb6aa37d5" x="764.14071" y="224.28" style="stroke: #000000; stroke-width: 0.8"/>
      </g>
     </g>
     <g id="text_5">
      <!-- 2024 -->
      <g transform="translate(751.41571 238.878438) scale(0.1 -0.1)">
       <defs>
        <path id="DejaVuSans-34" d="M 2419 4116 
L 825 1625 
L 2419 1625 
L 2419 4116 
z
M 2253 4666 
L 3047 4666 
L 3047 1625 
L 3713 1625 
L 3713 1100 
L 3047 1100 
L 3047 0 
L 2419 0 
L 2419 1100 
L 313 1100 
L 313 1709 
L 2253 4666 
z
" transform="scale(0.015625)"/>
       </defs>
       <use xlink:href="#DejaVuSans-32"/>
       <use xlink:href="#DejaVuSans-30" transform="translate(63.623047 0)"/>
       <use xlink:href="#DejaVuSans-32" transform="translate(127.246094 0)"/>
       <use xlink:href="#DejaVuSans-34" transform="translate(190.869141 0)"/>
      </g>
     </g>
    </g>
    <g id="xtick_6">
     <g id="line2d_6">
      <g>
       <use xlink:href="#m9eb6aa37d5" x="910.858829" y="224.28" style="stroke: #000000; stroke-width: 0.8"/>
      </g>
     </g>
     <g id="text_6">
      <!-- 2025 -->
      <g transform="translate(898.133829 238.878438) scale(0.1 -0.1)">
       <defs>
        <path id="DejaVuSans-35" d="M 691 4666 
L 3169 4666 
L 3169 4134 
L 1269 4134 
L 1269 2991 
Q 1406 3038 1543 3061 
Q 1681 3084 1819 3084 
Q 2600 3084 3056 2656 
Q 3513 2228 3513 1497 
Q 3513 744 3044 326 
Q 2575 -91 1722 -91 
Q 1428 -91 1123 -41 
Q 819 9 494 109 
L 494 744 
Q 775 591 1075 516 
Q 1375 441 1709 441 
Q 2250 441 2565 725 
Q 2881 1009 2881 1497 
Q 2881 1984 2565 2268 
Q 2250 2553 1709 2553 
Q 1456 2553 1204 2497 
Q 953 2441 691 2322 
L 691 4666 
z
" transform="scale(0.015625)"/>
       </defs>
       <use xlink:href="#DejaVuSans-32"/>
       <use xlink:href="#DejaVuSans-30" transform="translate(63.623047 0)"/>
       <use xlink:href="#DejaVuSans-32" transform="translate(127.246094 0)"/>
       <use xlink:href="#DejaVuSans-35" transform="translate(190.869141 0)"/>
      </g>
     </g>
    </g>
   </g>
   <g id="matplotlib.axis_2">
    <g id="ytick_1">
     <g id="line2d_7">
      <defs>
       <path id="m779150df52" d="M 0 0 
L -3.5 0 
" style="stroke: #000000; stroke-width: 0.8"/>
      </defs>
      <g>
       <use xlink:href="#m779150df52" x="145.8" y="189.376463" style="stroke: #000000; stroke-width: 0.8"/>
      </g>
     </g>
     <g id="text_7">
      <!-- 20 -->
      <g transform="translate(126.075 193.175682) scale(0.1 -0.1)">
       <use xlink:href="#DejaVuSans-32"/>
       <use xlink:href="#DejaVuSans-30" transform="translate(63.623047 0)"/>
      </g>
     </g>
    </g>
    <g id="ytick_2">
     <g id="line2d_8">
      <g>
       <use xlink:href="#m779150df52" x="145.8" y="149.83787" style="stroke: #000000; stroke-width: 0.8"/>
      </g>
     </g>
     <g id="text_8">
      <!-- 40 -->
      <g transform="translate(126.075 153.637089) scale(0.1 -0.1)">
       <use xlink:href="#DejaVuSans-34"/>
       <use xlink:href="#DejaVuSans-30" transform="translate(63.623047 0)"/>
      </g>
     </g>
    </g>
    <g id="ytick_3">
     <g id="line2d_9">
      <g>
       <use xlink:href="#m779150df52" x="145.8" y="110.299277" style="stroke: #000000; stroke-width: 0.8"/>
      </g>
     </g>
     <g id="text_9">
      <!-- 60 -->
      <g transform="translate(126.075 114.098496) scale(0.1 -0.1)">
       <defs>
        <path id="DejaVuSans-36" d="M 2113 2584 
Q 1688 2584 1439 2293 
Q 1191 2003 1191 1497 
Q 1191 994 1439 701 
Q 1688 409 2113 409 
Q 2538 409 2786 701 
Q 3034 994 3034 1497 
Q 3034 2003 2786 2293 
Q 2538 2584 2113 2584 
z
M 3366 4563 
L 3366 3988 
Q 3128 4100 2886 4159 
Q 2644 4219 2406 4219 
Q 1781 4219 1451 3797 
Q 1122 3375 1075 2522 
Q 1259 2794 1537 2939 
Q 1816 3084 2150 3084 
Q 2853 3084 3261 2657 
Q 3669 2231 3669 1497 
Q 3669 778 3244 343 
Q 2819 -91 2113 -91 
Q 1303 -91 875 529 
Q 447 1150 447 2328 
Q 447 3434 972 4092 
Q 1497 4750 2381 4750 
Q 2619 4750 2861 4703 
Q 3103 4656 3366 4563 
z
" transform="scale(0.015625)"/>
       </defs>
       <use xlink:href="#DejaVuSans-36"/>
       <use xlink:href="#DejaVuSans-30" transform="translate(63.623047 0)"/>
      </g>
     </g>
    </g>
    <g id="ytick_4">
     <g id="line2d_10">
      <g>
       <use xlink:href="#m779150df52" x="145.8" y="70.760684" style="stroke: #000000; stroke-width: 0.8"/>
      </g>
     </g>
     <g id="text_10">
      <!-- 80 -->
      <g transform="translate(126.075 74.559903) scale(0.1 -0.1)">
       <defs>
        <path id="DejaVuSans-38" d="M 2034 2216 
Q 1584 2216 1326 1975 
Q 1069 1734 1069 1313 
Q 1069 891 1326 650 
Q 1584 409 2034 409 
Q 2484 409 2743 651 
Q 3003 894 3003 1313 
Q 3003 1734 2745 1975 
Q 2488 2216 2034 2216 
z
M 1403 2484 
Q 997 2584 770 2862 
Q 544 3141 544 3541 
Q 544 4100 942 4425 
Q 1341 4750 2034 4750 
Q 2731 4750 3128 4425 
Q 3525 4100 3525 3541 
Q 3525 3141 3298 2862 
Q 3072 2584 2669 2484 
Q 3125 2378 3379 2068 
Q 3634 1759 3634 1313 
Q 3634 634 3220 271 
Q 2806 -91 2034 -91 
Q 1263 -91 848 271 
Q 434 634 434 1313 
Q 434 1759 690 2068 
Q 947 2378 1403 2484 
z
M 1172 3481 
Q 1172 3119 1398 2916 
Q 1625 2713 2034 2713 
Q 2441 2713 2670 2916 
Q 2900 3119 2900 3481 
Q 2900 3844 2670 4047 
Q 2441 4250 2034 4250 
Q 1625 4250 1398 4047 
Q 1172 3844 1172 3481 
z
" transform="scale(0.015625)"/>
       </defs>
       <use xlink:href="#DejaVuSans-38"/>
       <use xlink:href="#DejaVuSans-30" transform="translate(63.623047 0)"/>
      </g>
     </g>
    </g>
    <g id="ytick_5">
     <g id="line2d_11">
      <g>
       <use xlink:href="#m779150df52" x="145.8" y="31.222091" style="stroke: #000000; stroke-width: 0.8"/>
      </g>
     </g>
     <g id="text_11">
      <!-- 100 -->
      <g transform="translate(119.7125 35.02131) scale(0.1 -0.1)">
       <use xlink:href="#DejaVuSans-31"/>
       <use xlink:href="#DejaVuSans-30" transform="translate(63.623047 0)"/>
       <use xlink:href="#DejaVuSans-30" transform="translate(127.246094 0)"/>
      </g>
     </g>
    </g>
   </g>
   <g id="line2d_12">
    <path d="M 186.889091 103.042203 
L 187.28996 99.304499 
L 187.690829 97.15341 
L 188.893437 115.2163 
L 189.294306 96.724575 
L 189.695175 96.528873 
L 190.096044 89.691137 
L 190.496914 98.651268 
L 191.699521 93.713503 
L 192.10039 78.925544 
L 192.501259 81.373457 
L 192.902129 80.303281 
L 193.302998 81.270303 
L 194.505605 72.654011 
L 194.906475 85.62569 
L 195.307344 86.622617 
L 195.708213 84.21846 
L 196.109082 71.791199 
L 197.712559 73.18538 
L 198.113428 75.550558 
L 198.514297 94.70049 
L 198.915166 106.580663 
L 200.117774 137.391969 
L 200.518643 160.303551 
L 200.919512 153.091256 
L 201.320381 181.510609 
L 201.721251 171.092672 
L 202.923858 156.537518 
L 203.324727 161.280132 
L 203.725596 150.12772 
L 204.126466 153.792164 
L 204.527335 161.308568 
L 205.729942 173.206298 
L 206.130812 158.249336 
L 206.531681 161.480311 
L 206.93255 167.059968 
L 207.333419 140.196762 
L 208.536027 153.406073 
L 208.936896 145.901158 
L 209.337765 142.487253 
L 209.738634 143.695259 
L 210.139503 156.098576 
L 211.342111 152.157472 
L 211.74298 146.453212 
L 212.143849 144.654709 
L 212.544718 134.048106 
L 212.945588 130.762315 
L 214.148195 130.587959 
L 214.549064 126.881488 
L 214.949933 119.096848 
L 215.350803 133.564139 
L 215.751672 107.024862 
L 216.954279 106.74755 
L 217.355149 99.58412 
L 217.756018 100.201464 
L 218.156887 90.171083 
L 219.760364 87.048096 
L 220.161233 90.703793 
L 220.562102 91.566475 
L 220.962971 95.616235 
L 221.36384 78.317454 
L 222.566448 99.662219 
L 222.967317 111.188179 
L 223.368186 90.160847 
L 223.769055 99.338292 
L 224.169925 91.914583 
L 225.773401 116.247594 
L 226.174271 106.312952 
L 226.57514 103.80279 
L 226.976009 114.417601 
L 228.178616 120.536353 
L 228.579486 113.631204 
L 228.980355 119.199871 
L 229.381224 120.088119 
L 229.782093 109.862403 
L 230.984701 85.413097 
L 231.38557 108.078376 
L 231.786439 110.020191 
L 232.187308 114.802604 
L 232.588177 108.024743 
L 233.790785 91.158807 
L 234.191654 110.928928 
L 234.592523 109.064228 
L 234.993392 99.582148 
L 235.394262 110.516649 
L 236.997738 125.108495 
L 237.799477 137.039914 
L 238.200346 133.732926 
L 239.402953 144.57876 
L 239.803823 116.362577 
L 240.204692 97.71025 
L 240.605561 116.006257 
L 241.00643 109.613951 
L 242.209038 111.758063 
L 243.010776 87.662662 
L 243.411645 121.907917 
L 243.812514 118.385954 
L 245.015122 109.284064 
L 245.415991 100.595023 
L 245.81686 98.099008 
L 246.217729 97.713892 
L 246.618599 100.132567 
L 248.222075 93.642028 
L 248.622945 98.379874 
L 249.023814 101.050634 
L 249.424683 113.521406 
L 250.62729 112.379458 
L 251.02816 115.831751 
L 251.429029 80.739077 
L 251.829898 80.618647 
L 253.433375 76.643307 
L 253.834244 91.963024 
L 254.235113 86.306918 
L 254.635982 87.09199 
L 255.036851 85.288135 
L 256.239459 114.792784 
L 256.640328 114.912133 
L 257.041197 103.702658 
L 257.442067 121.190686 
L 257.842936 112.517939 
L 259.045543 100.164687 
L 259.446412 117.521197 
L 259.847282 113.896197 
L 260.248151 137.315472 
L 260.64902 149.613344 
L 261.851627 139.197907 
L 262.252497 153.871908 
L 262.653366 152.387384 
L 263.054235 151.553133 
L 263.455104 135.228813 
L 264.657712 113.783127 
L 265.058581 120.212111 
L 265.860319 104.08879 
L 266.261188 128.193859 
L 267.463796 131.103028 
L 267.864665 146.732082 
L 268.265534 115.855984 
L 268.666404 113.992398 
L 269.067273 118.500246 
L 270.26988 110.947416 
L 270.670749 112.527784 
L 271.071619 115.568191 
L 271.472488 108.748744 
L 271.873357 138.138388 
L 273.075965 127.421783 
L 273.476834 119.141814 
L 273.877703 116.173408 
L 274.679441 74.341085 
L 275.882049 68.004322 
L 276.282918 72.666141 
L 276.683787 65.480952 
L 277.084656 112.481896 
L 277.485525 121.5116 
L 279.089002 143.311787 
L 279.489871 127.805584 
L 279.890741 142.983587 
L 280.29161 142.71454 
L 281.494217 141.599293 
L 281.895086 140.689359 
L 282.696825 164.81827 
L 283.097694 171.820685 
L 284.300302 164.349433 
L 284.701171 158.328755 
L 285.10204 172.781026 
L 285.502909 153.263638 
L 285.903778 140.368071 
L 287.106386 117.115822 
L 287.507255 138.86408 
L 287.908124 118.516303 
L 288.308993 110.793147 
L 288.709863 128.4663 
L 289.91247 126.836977 
L 290.313339 128.357472 
L 290.714208 116.776331 
L 291.115078 109.797928 
L 291.515947 105.211743 
L 292.718554 104.229449 
L 293.119424 84.312638 
L 293.921162 103.518109 
L 295.524639 115.021041 
L 296.326377 124.440806 
L 296.727246 105.441946 
L 297.128115 112.037603 
L 298.731592 119.824518 
L 299.132461 148.305159 
L 299.53333 157.729616 
L 299.9342 181.629904 
L 301.136807 188.098739 
L 301.537676 168.545958 
L 301.938545 137.121331 
L 302.740284 110.390469 
L 303.942891 123.042987 
L 304.343761 136.328009 
L 304.74463 127.555795 
L 305.145499 131.268678 
L 305.546368 119.473837 
L 306.748976 123.231367 
L 307.149845 106.658497 
L 307.550714 116.545447 
L 307.951583 109.139985 
L 308.352452 113.546663 
L 309.55506 121.302141 
L 309.955929 134.761364 
L 310.356798 155.375336 
L 311.158537 152.114104 
L 312.361144 141.913638 
L 312.762013 108.263818 
L 313.162882 132.909143 
L 313.563752 133.011857 
L 313.964621 137.72356 
L 315.167228 141.906307 
L 315.568098 118.957148 
L 315.968967 126.53839 
L 316.369836 139.412259 
L 316.770705 116.436003 
L 317.973313 111.238504 
L 318.374182 128.56843 
L 318.775051 106.747235 
L 319.17592 110.991458 
L 319.576789 109.17111 
L 320.779397 102.932608 
L 321.180266 94.400429 
L 321.581135 103.828286 
L 321.982004 99.522831 
L 323.585481 94.059974 
L 323.98635 101.717411 
L 324.788089 85.001091 
L 326.391565 114.479907 
L 326.792435 116.701394 
L 327.193304 135.710164 
L 327.995042 129.504036 
L 329.19765 133.06233 
L 329.598519 151.776094 
L 329.999388 151.569356 
L 330.400257 152.4446 
L 330.801126 159.448984 
L 332.404603 153.751747 
L 332.805472 129.628167 
L 333.206341 122.099758 
L 333.607211 121.568421 
L 334.809818 100.73662 
L 335.210687 96.499285 
L 335.611557 75.506075 
L 336.012426 75.517896 
L 336.413295 101.728225 
L 337.615902 84.997701 
L 338.016772 77.455886 
L 338.417641 75.463185 
L 338.81851 67.678751 
L 339.219379 66.223292 
L 340.421987 69.140724 
L 340.822856 76.164744 
L 341.223725 80.988711 
L 341.624594 80.051539 
L 342.025463 84.532943 
L 343.62894 95.001905 
L 344.029809 94.03667 
L 344.430678 110.164011 
L 344.831548 88.563968 
L 346.034155 151.153017 
L 346.435024 154.936448 
L 347.236763 179.376917 
L 347.637632 162.554495 
L 348.840239 145.204135 
L 349.641978 166.755548 
L 350.042847 173.909864 
L 350.443716 159.454409 
L 351.646324 163.861353 
L 352.047193 150.107169 
L 352.448062 151.537238 
L 352.848931 137.066624 
L 353.2498 127.57527 
L 354.452408 126.953047 
L 354.853277 123.88086 
L 355.254146 112.614922 
L 355.655016 133.450412 
L 356.055885 144.76281 
L 357.258492 125.600482 
L 357.659361 106.587207 
L 358.060231 110.217204 
L 358.4611 128.315334 
L 358.861969 108.495646 
L 360.465446 131.530845 
L 360.866315 133.630575 
L 361.267184 114.875522 
L 362.870661 101.136873 
L 363.27153 108.735441 
L 363.672399 103.804661 
L 364.073268 81.047728 
L 364.474137 77.181615 
L 365.676745 83.276037 
L 366.077614 82.079637 
L 366.478483 84.691452 
L 366.879353 69.927643 
L 367.280222 72.616823 
L 368.482829 75.411945 
L 368.883698 64.129021 
L 369.284568 65.514898 
L 369.685437 87.997735 
L 370.086306 92.847067 
L 371.288914 86.793653 
L 371.689783 89.829934 
L 372.090652 126.227203 
L 372.491521 140.024857 
L 372.89239 141.097592 
L 374.495867 153.909059 
L 374.896736 173.361669 
L 375.297605 164.324031 
L 375.698475 149.1686 
L 376.901082 159.430985 
L 377.301951 169.546749 
L 377.70282 175.251982 
L 378.10369 175.070774 
L 378.504559 159.820071 
L 379.707166 165.327256 
L 380.108035 157.241822 
L 380.508905 151.716886 
L 380.909774 141.768249 
L 381.310643 143.719781 
L 382.513251 122.381694 
L 382.91412 117.405327 
L 383.314989 124.623036 
L 383.715858 136.135567 
L 384.116727 121.856953 
L 385.720204 125.582675 
L 386.121073 101.998928 
L 386.521942 118.924355 
L 386.922812 119.010511 
L 388.125419 98.472132 
L 388.526288 94.475272 
L 388.927157 93.537529 
L 389.328027 92.905997 
L 389.728896 85.099895 
L 390.931503 93.087615 
L 391.332373 103.752072 
L 391.733242 107.405962 
L 392.134111 87.684963 
L 392.53498 95.808112 
L 394.539326 66.63549 
L 394.940195 71.468202 
L 395.341064 86.563858 
L 396.543672 72.91277 
L 396.944541 70.57391 
L 397.34541 79.000467 
L 397.746279 78.910247 
L 398.147149 72.586176 
L 399.750625 64.329746 
L 400.151494 56.528969 
L 400.552364 74.337003 
L 400.953233 65.530895 
L 402.15584 73.721918 
L 402.55671 72.473399 
L 402.957579 68.857667 
L 403.358448 79.26402 
L 403.759317 71.416763 
L 404.961925 99.2044 
L 405.362794 100.165254 
L 406.164532 84.872798 
L 406.565401 89.490197 
L 407.768009 92.402082 
L 408.168878 108.383496 
L 408.569747 98.935832 
L 408.970616 99.522429 
L 409.371486 103.90031 
L 410.574093 114.946482 
L 410.974962 112.454499 
L 411.375831 108.40133 
L 411.776701 98.807352 
L 412.17757 78.898807 
L 413.380177 91.126071 
L 414.181916 125.729152 
L 414.582785 129.290706 
L 414.983654 111.473308 
L 416.186262 89.086174 
L 416.587131 97.216293 
L 416.988 108.711611 
L 417.388869 83.911643 
L 417.789738 71.788973 
L 418.992346 74.327057 
L 419.794084 88.59331 
L 420.194953 100.416705 
L 420.595823 94.780825 
L 421.79843 80.696717 
L 422.199299 88.302945 
L 422.600169 93.327346 
L 423.001038 102.244194 
L 423.401907 106.458435 
L 425.005384 104.120095 
L 425.406253 95.89389 
L 425.807122 128.119558 
L 426.207991 176.817389 
L 427.410599 169.339885 
L 428.212337 118.717899 
L 428.613206 102.463526 
L 429.014075 129.512877 
L 430.216683 162.436397 
L 430.617552 155.835379 
L 431.018421 140.468325 
L 431.41929 135.10769 
L 431.82016 135.705242 
L 433.022767 146.750965 
L 433.423636 165.754146 
L 433.824506 160.004902 
L 434.225375 160.844845 
L 434.626244 145.607725 
L 435.828851 160.956158 
L 436.229721 159.466266 
L 436.63059 150.724972 
L 437.432328 128.953765 
L 438.634936 131.22101 
L 439.035805 142.195528 
L 439.436674 136.636634 
L 441.44102 76.485817 
L 441.841889 76.015952 
L 442.242758 71.541155 
L 442.643627 75.478365 
L 443.044497 56.139017 
L 444.647973 69.709191 
L 445.048843 58.583575 
L 445.449712 57.783217 
L 445.850581 51.415778 
L 447.053188 54.751971 
L 447.454058 54.590884 
L 447.854927 57.642757 
L 448.255796 57.049324 
L 448.656665 60.588683 
L 449.859273 60.59579 
L 450.260142 61.496077 
L 450.661011 83.937311 
L 451.462749 68.939099 
L 452.665357 72.918118 
L 453.066226 84.287745 
L 453.467095 85.75557 
L 453.867965 95.305383 
L 454.268834 80.769403 
L 455.471441 104.526331 
L 455.87231 115.725344 
L 456.27318 122.537654 
L 457.074918 146.257015 
L 458.277525 129.456334 
L 458.678395 140.216779 
L 459.079264 130.343912 
L 459.480133 135.753312 
L 459.881002 160.338227 
L 461.08361 150.290703 
L 461.484479 137.825366 
L 461.885348 138.205969 
L 462.286217 146.178279 
L 462.687086 131.044588 
L 463.889694 130.806458 
L 464.290563 143.95164 
L 464.691432 134.508399 
L 465.092302 136.445029 
L 465.493171 148.650271 
L 466.695778 146.039537 
L 467.096647 133.847978 
L 467.497517 125.384421 
L 467.898386 114.317797 
L 469.501863 109.431233 
L 469.902732 121.174575 
L 470.303601 120.350998 
L 470.70447 121.500716 
L 471.105339 139.48105 
L 472.307947 137.278525 
L 472.708816 128.935054 
L 473.109685 157.959296 
L 473.510554 149.012654 
L 473.911424 147.12544 
L 475.114031 140.607186 
L 475.5149 156.389062 
L 475.915769 163.90915 
L 476.316639 183.217275 
L 476.717508 189.955703 
L 478.320984 194.107997 
L 478.721854 194.16284 
L 479.122723 193.629641 
L 479.523592 195.110667 
L 480.7262 193.297346 
L 481.127069 194.523991 
L 481.527938 163.747997 
L 481.928807 153.848655 
L 482.329676 138.644609 
L 483.532284 134.774181 
L 483.933153 138.774683 
L 484.734891 135.026947 
L 485.135761 136.078911 
L 486.338368 132.557961 
L 486.739237 128.342265 
L 487.140106 117.461946 
L 487.540976 122.083829 
L 487.941845 131.604226 
L 489.144452 121.794192 
L 489.545322 125.114328 
L 489.946191 129.686322 
L 490.34706 153.114843 
L 490.747929 160.60143 
L 492.351406 158.659218 
L 492.752275 173.954447 
L 493.153144 137.981084 
L 493.554013 140.829596 
L 494.756621 132.242616 
L 495.15749 142.713227 
L 495.558359 144.975278 
L 495.959228 139.043865 
L 496.360098 137.239822 
L 497.562705 150.770642 
L 497.963574 163.238465 
L 498.364443 143.040586 
L 498.765313 136.585668 
L 499.166182 139.69831 
L 500.368789 143.326474 
L 500.769659 122.283934 
L 501.170528 130.314783 
L 501.571397 132.703998 
L 501.972266 128.094554 
L 503.174874 124.837343 
L 503.976612 125.630525 
L 504.377481 112.036629 
L 504.77835 93.811864 
L 505.980958 81.882897 
L 506.381827 88.212511 
L 506.782696 85.135413 
L 507.183565 85.204961 
L 507.584435 75.463034 
L 508.787042 79.648726 
L 509.187911 98.350899 
L 509.58878 123.238253 
L 510.390519 133.57544 
L 511.593126 157.181402 
L 512.394865 153.982126 
L 512.795734 161.297878 
L 514.399211 173.20327 
L 514.80008 173.059655 
L 515.200949 169.612985 
L 515.601818 169.612958 
L 516.002687 177.080799 
L 517.205295 174.879832 
L 517.606164 179.10586 
L 518.007033 149.322241 
L 518.407902 143.237641 
L 518.808772 150.130721 
L 520.011379 130.925987 
L 520.412248 130.374207 
L 520.813118 127.565651 
L 521.213987 132.568871 
L 521.614856 135.793469 
L 522.817463 149.511237 
L 523.218333 145.330041 
L 523.619202 147.853935 
L 524.020071 146.700278 
L 524.42094 147.665243 
L 525.623548 138.68975 
L 526.024417 147.631811 
L 526.425286 165.315109 
L 526.826155 157.138858 
L 527.227024 168.528053 
L 528.429632 153.679069 
L 528.830501 167.4159 
L 529.23137 150.42879 
L 529.632239 141.696441 
L 530.033109 116.35447 
L 531.636585 125.390587 
L 532.438324 92.316334 
L 532.839193 111.536239 
L 534.0418 115.015645 
L 534.44267 117.623887 
L 534.843539 89.724351 
L 535.244408 104.300561 
L 535.645277 129.308332 
L 536.847885 161.115243 
L 537.248754 155.098676 
L 537.649623 146.65604 
L 538.050492 160.704713 
L 538.451361 170.302006 
L 540.054838 156.582504 
L 540.455707 158.254021 
L 540.856576 151.886284 
L 541.257446 133.105904 
L 542.460053 135.021024 
L 542.860922 149.450651 
L 543.261792 142.099815 
L 543.662661 139.758526 
L 544.06353 121.040308 
L 545.667007 98.607196 
L 546.067876 97.450334 
L 546.468745 102.989297 
L 546.869614 89.058933 
L 548.072222 99.855615 
L 548.473091 130.184101 
L 548.87396 130.741219 
L 549.274829 138.524004 
L 549.675698 151.915101 
L 550.878306 151.384434 
L 551.279175 123.544454 
L 551.680044 125.670215 
L 552.080914 112.199831 
L 552.481783 128.393861 
L 553.68439 139.038361 
L 554.085259 159.61707 
L 554.486129 129.530907 
L 555.287867 107.354798 
L 556.490475 91.586163 
L 556.891344 96.336133 
L 557.292213 90.57165 
L 557.693082 91.816869 
L 558.093951 88.321697 
L 559.296559 98.535226 
L 559.697428 99.329575 
L 560.499166 90.357126 
L 560.900035 83.168791 
L 562.102643 66.21372 
L 562.904381 92.967341 
L 563.305251 104.069346 
L 563.70612 108.174488 
L 564.908727 122.289276 
L 565.309596 144.086252 
L 565.710466 149.064053 
L 566.111335 138.600174 
L 566.512204 153.896471 
L 567.714812 163.191953 
L 568.115681 186.793657 
L 568.51655 186.18442 
L 568.917419 206.16922 
L 569.318288 214.816662 
L 570.921765 215.46 
L 571.322634 197.061665 
L 571.723503 194.827227 
L 572.124373 172.751854 
L 573.32698 154.993558 
L 573.727849 172.195081 
L 574.128718 170.97843 
L 574.529588 184.545682 
L 574.930457 175.673529 
L 576.133064 172.743403 
L 576.533933 172.520062 
L 576.934803 174.785772 
L 577.335672 167.900671 
L 577.736541 166.321667 
L 578.939149 163.213185 
L 579.340018 179.537436 
L 579.740887 166.343546 
L 580.141756 189.052769 
L 580.542625 200.168895 
L 581.745233 157.344089 
L 582.546971 121.112435 
L 582.94784 125.455912 
L 583.34871 148.130071 
L 584.551317 152.116125 
L 584.952186 152.554862 
L 585.353055 156.100558 
L 585.753925 135.818672 
L 586.154794 142.90264 
L 587.357401 128.619552 
L 587.758271 133.562378 
L 588.15914 131.485422 
L 588.560009 125.26591 
L 588.960878 127.970695 
L 590.163486 132.666835 
L 590.564355 127.851678 
L 590.965224 148.709929 
L 591.366093 140.066653 
L 591.766962 121.698644 
L 592.96957 121.561254 
L 593.370439 127.140699 
L 593.771308 147.264546 
L 594.172177 147.434938 
L 594.573047 150.105995 
L 595.775654 142.411367 
L 596.176523 139.01187 
L 596.577392 143.122479 
L 596.978262 129.223869 
L 597.379131 130.207469 
L 598.581738 138.915131 
L 598.982608 117.365374 
L 599.383477 110.408514 
L 599.784346 120.859284 
L 600.185215 115.523178 
L 601.387823 107.31645 
L 602.189561 68.791725 
L 602.991299 74.700792 
L 604.193907 99.492902 
L 604.594776 104.832948 
L 604.995645 76.672115 
L 605.396514 99.368277 
L 605.797384 106.517062 
L 606.999991 104.011793 
L 607.40086 120.615864 
L 607.801729 123.602945 
L 608.202599 117.022937 
L 608.603468 120.814136 
L 609.806075 109.84292 
L 610.206945 107.703462 
L 610.607814 111.12454 
L 611.008683 127.496815 
L 611.409552 124.988434 
L 612.61216 129.870288 
L 613.013029 158.511458 
L 613.413898 150.962058 
L 613.814767 160.621114 
L 614.215636 152.66714 
L 615.819113 147.281253 
L 616.219982 150.106682 
L 616.620851 142.217593 
L 617.021721 140.879909 
L 618.625197 158.886675 
L 619.026067 184.60862 
L 619.426936 190.70355 
L 619.827805 176.44864 
L 621.030412 165.375265 
L 621.832151 141.476123 
L 622.23302 141.244391 
L 622.633889 127.873811 
L 624.237366 126.691644 
L 624.638235 132.333427 
L 625.039104 135.045316 
L 625.439973 131.52948 
L 626.642581 125.073721 
L 627.04345 125.641023 
L 627.444319 105.265355 
L 627.845188 75.423327 
L 628.246058 77.893973 
L 629.448665 97.468277 
L 629.849534 93.059754 
L 630.250404 95.575928 
L 630.651273 85.427691 
L 631.052142 100.211676 
L 632.254749 104.6129 
L 632.655619 85.241116 
L 633.056488 78.696834 
L 633.457357 92.629213 
L 633.858226 96.229388 
L 635.461703 83.535364 
L 636.263441 109.041939 
L 636.66431 106.64493 
L 638.267787 122.061368 
L 638.668656 131.010342 
L 639.069525 146.45476 
L 639.470395 145.421629 
L 640.673002 140.995886 
L 641.073871 169.348561 
L 641.474741 172.336729 
L 641.87561 154.460796 
L 642.276479 143.747206 
L 643.879956 166.583248 
L 644.280825 164.212344 
L 644.681694 154.711162 
L 645.082563 154.027581 
L 646.285171 126.901262 
L 646.68604 109.556555 
L 647.086909 107.195218 
L 647.487778 78.102948 
L 647.888647 76.100476 
L 649.091255 92.534138 
L 649.492124 83.561495 
L 649.892993 92.086449 
L 650.694732 89.425492 
L 651.897339 92.894429 
L 652.298208 94.486302 
L 652.699078 86.331475 
L 653.099947 74.887362 
L 653.500816 75.642626 
L 654.703424 83.926034 
L 655.104293 88.774812 
L 655.505162 111.83176 
L 655.906031 105.08483 
L 657.509508 90.768047 
L 657.910377 111.497671 
L 658.311246 106.682851 
L 658.712115 105.152406 
L 659.112984 118.857518 
L 660.315592 104.266267 
L 660.716461 102.351217 
L 661.11733 111.229424 
L 661.919069 136.935936 
L 663.121676 143.738904 
L 663.522545 155.460224 
L 663.923415 112.732325 
L 664.324284 109.977367 
L 664.725153 103.022528 
L 665.927761 92.901123 
L 666.32863 93.920593 
L 666.729499 103.709651 
L 667.130368 93.374924 
L 667.531237 90.432109 
L 668.733845 94.310374 
L 669.134714 98.25168 
L 669.535583 87.332826 
L 669.936452 91.52698 
L 670.337322 84.957285 
L 671.539929 67.457058 
L 671.940798 85.208033 
L 672.341667 97.105319 
L 672.742537 92.734993 
L 673.143406 85.867922 
L 674.346013 80.477489 
L 674.746882 99.832146 
L 675.147752 106.428255 
L 675.94949 80.709481 
L 677.552967 80.809559 
L 677.953836 95.149468 
L 678.354705 83.792662 
L 678.755574 77.663763 
L 679.958182 77.617448 
L 680.359051 86.36409 
L 680.75992 114.224641 
L 681.160789 118.145982 
L 681.561659 115.473887 
L 682.764266 112.327702 
L 683.165135 96.460321 
L 683.566004 89.764702 
L 683.966874 91.126807 
L 684.367743 113.133765 
L 685.97122 118.350727 
L 686.372089 121.460859 
L 686.772958 118.577033 
L 687.173827 130.66295 
L 688.376435 140.571381 
L 688.777304 128.859978 
L 689.178173 110.73952 
L 689.579042 114.632271 
L 689.979911 109.676426 
L 691.182519 120.606195 
L 691.984257 123.900639 
L 692.385126 123.795834 
L 692.785996 149.544424 
L 693.988603 148.994269 
L 694.389472 140.84125 
L 694.790341 123.073988 
L 695.191211 124.322796 
L 695.59208 109.299445 
L 696.794687 90.423536 
L 697.195557 81.291356 
L 698.398164 124.624867 
L 699.600772 117.816126 
L 700.001641 109.986218 
L 700.40251 134.792264 
L 700.803379 138.495824 
L 701.204248 121.833439 
L 702.406856 125.822272 
L 702.807725 131.187122 
L 703.208594 148.946314 
L 703.609463 153.723492 
L 704.010333 152.737491 
L 705.21294 173.517314 
L 705.613809 173.225669 
L 706.415548 164.573785 
L 706.816417 169.587375 
L 708.019024 176.428793 
L 708.820763 153.810644 
L 709.221632 187.202053 
L 709.622501 184.68578 
L 710.825109 165.025352 
L 711.626847 127.103257 
L 712.027716 147.546992 
L 712.428585 145.600587 
L 713.631193 134.434828 
L 714.032062 112.45535 
L 714.432931 113.132939 
L 714.8338 110.382882 
L 715.23467 115.161959 
L 716.838146 97.798039 
L 717.239016 97.416168 
L 717.639885 95.473621 
L 718.040754 87.376815 
L 719.243361 89.838647 
L 719.644231 109.641064 
L 720.0451 110.078703 
L 720.445969 84.253402 
L 720.846838 114.470571 
L 722.049446 118.630325 
L 722.450315 129.504122 
L 722.851184 146.077234 
L 723.252053 146.427036 
L 723.652922 152.494254 
L 724.85553 163.746445 
L 725.256399 169.706416 
L 725.657268 164.324563 
L 726.058137 174.505379 
L 726.459007 179.547695 
L 727.661614 152.3601 
L 728.062483 176.434258 
L 728.463353 168.13412 
L 728.864222 154.929077 
L 729.265091 133.632776 
L 730.467698 127.847412 
L 730.868568 113.558072 
L 731.269437 103.748884 
L 731.670306 100.404089 
L 732.071175 109.943752 
L 733.273783 89.181554 
L 733.674652 91.580521 
L 734.075521 97.888266 
L 734.47639 99.095727 
L 734.877259 120.09982 
L 736.079867 93.0448 
L 736.480736 100.106503 
L 736.881605 86.10249 
L 737.282475 128.888954 
L 737.683344 130.087598 
L 738.885951 114.924127 
L 739.28682 119.840645 
L 739.68769 106.178198 
L 740.088559 96.433699 
L 740.489428 96.900526 
L 741.692035 91.814992 
L 742.092905 84.006753 
L 742.493774 82.852037 
L 743.295512 73.837689 
L 744.49812 80.924076 
L 744.898989 85.844667 
L 745.299858 51.534321 
L 745.700727 49.929137 
L 746.101596 72.2934 
L 747.304204 67.909824 
L 747.705073 84.477316 
L 748.105942 82.32094 
L 748.907681 87.275025 
L 750.110288 89.81996 
L 750.511157 89.717399 
L 750.912027 101.793884 
L 751.312896 95.910053 
L 751.713765 119.080742 
L 752.916373 124.057045 
L 753.317242 124.415929 
L 754.11898 140.052773 
L 754.519849 121.167459 
L 755.722457 143.868313 
L 756.123326 127.035435 
L 756.524195 139.14001 
L 756.925064 154.812605 
L 757.325933 145.785115 
L 758.528541 151.031238 
L 758.92941 142.584071 
L 759.330279 147.604137 
L 760.132018 116.927661 
L 761.735494 124.445507 
L 762.136364 114.964867 
L 762.537233 117.311157 
L 762.938102 124.30277 
L 764.541579 131.34629 
L 764.942448 142.335022 
L 765.343317 149.264619 
L 765.744186 122.832079 
L 766.946794 115.57099 
L 767.347663 118.212981 
L 768.149401 86.479074 
L 768.550271 84.923983 
L 770.153747 83.703887 
L 770.554616 87.226349 
L 770.955486 78.537152 
L 771.356355 74.450956 
L 772.558962 82.980218 
L 772.959831 61.129291 
L 773.360701 57.578246 
L 773.76157 45.627311 
L 774.162439 48.753045 
L 775.365047 49.223743 
L 775.765916 54.423259 
L 776.166785 98.848393 
L 776.567654 93.119456 
L 776.968523 89.055412 
L 778.171131 104.125516 
L 778.572 102.747652 
L 778.972869 97.957782 
L 779.373738 103.470703 
L 779.774608 91.530302 
L 780.977215 105.019966 
L 781.378084 124.746885 
L 781.778953 122.630239 
L 782.179823 125.517501 
L 782.580692 136.989405 
L 784.184169 137.175414 
L 784.585038 121.251936 
L 784.985907 116.568624 
L 785.386776 130.278361 
L 786.589384 125.256657 
L 786.990253 125.065645 
L 787.391122 142.080162 
L 787.791991 129.505203 
L 788.19286 139.038779 
L 789.395468 129.074093 
L 789.796337 136.378849 
L 790.197206 147.328203 
L 790.598075 124.584158 
L 790.998945 125.518076 
L 792.201552 126.457261 
L 792.602421 107.548795 
L 793.00329 122.994897 
L 793.40416 104.273411 
L 793.805029 116.140335 
L 795.007636 114.837625 
L 795.408506 110.083247 
L 795.809375 112.607405 
L 796.210244 109.874131 
L 796.611113 109.961774 
L 797.813721 97.612267 
L 798.21459 98.984502 
L 798.615459 108.128494 
L 799.016328 103.10702 
L 800.619805 94.236376 
L 801.020674 117.298035 
L 801.421543 119.162639 
L 801.822412 147.790398 
L 802.223282 107.45665 
L 803.425889 112.017548 
L 803.826758 117.200865 
L 804.227627 135.387425 
L 804.628497 133.90109 
L 805.029366 145.962123 
L 806.231973 150.357108 
L 806.632843 145.720166 
L 807.033712 150.164861 
L 807.434581 160.163528 
L 807.83545 175.535069 
L 809.038058 167.529377 
L 809.438927 151.408625 
L 809.839796 144.951338 
L 810.240665 173.005862 
L 810.641534 156.898587 
L 811.844142 164.152184 
L 812.245011 172.207936 
L 812.64588 170.562064 
L 813.046749 160.795269 
L 813.447619 138.918684 
L 814.650226 131.29384 
L 815.051095 132.963553 
L 815.852834 112.814146 
L 816.253703 112.193202 
L 817.45631 121.459188 
L 817.85718 119.766349 
L 818.258049 94.651166 
L 818.658918 106.252055 
L 819.059787 99.611732 
L 820.262395 61.436084 
L 821.064133 63.456977 
L 821.465002 83.022019 
L 821.865871 87.756447 
L 823.469348 71.309925 
L 823.870217 77.593864 
L 824.271086 123.856867 
L 824.671956 127.690724 
L 825.874563 128.942911 
L 826.275432 129.528139 
L 826.676302 128.162608 
L 827.077171 122.588914 
L 827.47804 122.337549 
L 828.680647 124.563885 
L 829.081517 122.337609 
L 829.883255 101.496341 
L 830.284124 104.655564 
L 831.486732 96.973094 
L 831.887601 99.09215 
L 832.689339 55.130829 
L 833.090208 53.188052 
L 834.292816 55.138209 
L 834.693685 54.756873 
L 835.094554 58.812948 
L 835.495424 58.686303 
L 835.896293 78.711113 
L 837.0989 73.264353 
L 837.499769 75.245475 
L 837.900639 82.630933 
L 838.702377 75.822081 
L 839.904984 80.987579 
L 840.305854 107.336166 
L 840.706723 93.110222 
L 841.107592 116.202885 
L 841.508461 123.982493 
L 842.711069 119.624452 
L 843.512807 143.111256 
L 843.913676 148.225867 
L 844.314545 144.963718 
L 845.517153 152.286751 
L 845.918022 153.563077 
L 846.719761 191.672121 
L 847.12063 178.034207 
L 848.323237 171.022605 
L 848.724106 186.209777 
L 849.124976 181.909062 
L 849.525845 181.970023 
L 849.926714 187.98047 
L 851.129322 192.191757 
L 851.530191 181.149475 
L 851.93106 180.015775 
L 852.331929 170.572047 
L 852.732798 174.846787 
L 853.935406 176.847909 
L 854.336275 150.616252 
L 854.737144 132.447833 
L 855.138013 135.615009 
L 855.538882 141.818254 
L 856.74149 131.066943 
L 857.142359 118.396168 
L 857.543228 117.339177 
L 857.944098 117.31254 
L 858.344967 84.352405 
L 859.547574 99.479012 
L 859.948443 95.673988 
L 860.349313 111.242067 
L 860.750182 112.68671 
L 861.151051 107.175184 
L 863.155397 145.571747 
L 863.556266 160.131619 
L 863.957135 166.349106 
L 865.159743 163.568345 
L 865.560612 150.272407 
L 866.36235 109.642797 
L 866.76322 106.452245 
L 867.965827 98.110353 
L 868.366696 94.165708 
L 868.767565 96.645671 
L 869.168435 91.261535 
L 869.569304 102.297292 
L 870.771911 89.460384 
L 871.17278 97.954198 
L 871.57365 93.897125 
L 871.974519 80.402165 
L 872.375388 92.194469 
L 873.577996 99.464254 
L 873.978865 134.470491 
L 874.379734 148.697819 
L 874.780603 158.198678 
L 875.181472 160.829796 
L 876.38408 178.929026 
L 876.784949 160.300902 
L 877.185818 174.238553 
L 877.586687 172.085382 
L 877.987557 168.312491 
L 879.190164 153.173474 
L 879.591033 162.805202 
L 879.991902 165.657042 
L 880.392772 158.346061 
L 880.793641 161.108193 
L 881.996248 136.431839 
L 882.397118 100.618894 
L 882.797987 108.628932 
L 883.198856 106.786824 
L 883.599725 75.499343 
L 884.802333 91.055489 
L 885.203202 86.281222 
L 885.604071 77.976944 
L 886.00494 147.246483 
L 886.405809 144.869378 
L 887.608417 146.981669 
L 888.009286 137.687238 
L 888.410155 125.08163 
L 888.811024 120.141644 
L 889.211894 125.090527 
L 890.414501 143.395913 
L 890.81537 132.207074 
L 891.216239 129.445905 
L 891.617109 131.777459 
L 892.017978 143.836517 
L 893.220585 150.426318 
L 893.621455 148.267385 
L 894.022324 113.987152 
L 894.423193 123.974407 
L 894.824062 113.574713 
L 896.02667 115.381898 
L 896.427539 114.62572 
L 896.828408 132.919985 
L 897.630146 126.760341 
L 898.832754 105.573555 
L 899.233623 112.567905 
L 900.035361 102.042329 
L 900.436231 68.97967 
L 901.638838 67.683205 
L 902.039707 77.849955 
L 902.440576 66.390565 
L 902.841446 60.418527 
L 903.242315 70.501054 
L 904.444922 68.61749 
L 904.845792 73.715784 
L 905.246661 105.737118 
L 905.64753 107.096367 
L 906.048399 119.239699 
L 907.251007 122.433047 
L 907.651876 126.314461 
L 908.453614 139.694957 
L 908.854483 154.416193 
L 910.057091 167.3449 
L 910.45796 168.038286 
L 911.259698 185.641241 
L 911.660568 174.514752 
L 912.863175 161.797463 
L 913.264044 176.910921 
L 913.664914 178.535493 
L 914.466652 166.876524 
L 915.669259 168.582239 
L 916.070129 169.846703 
L 916.470998 144.48443 
L 916.871867 154.8012 
L 917.272736 144.502932 
L 918.876213 133.708228 
L 919.277082 98.601959 
L 919.677951 91.319983 
L 920.07882 90.7398 
L 921.281428 113.95584 
L 921.682297 105.19944 
L 922.083166 104.210373 
L 922.484035 139.392963 
L 922.884905 134.077713 
L 924.087512 136.374066 
L 924.488381 133.389646 
L 924.889251 144.610692 
L 925.29012 139.765069 
L 925.690989 151.029455 
L 926.893596 147.398152 
L 927.294466 175.313661 
L 927.695335 177.910672 
L 928.096204 173.278535 
L 928.497073 167.344743 
L 930.10055 194.235117 
L 930.501419 176.940813 
L 930.902288 124.149916 
L 931.303157 144.666726 
L 932.505765 144.828273 
L 932.906634 159.717894 
L 933.307503 157.192856 
L 933.708373 173.530294 
L 934.109242 153.921825 
L 935.311849 170.852827 
L 935.712718 169.723481 
L 936.113588 141.041883 
L 936.514457 148.853543 
L 936.915326 150.564673 
L 938.117933 165.078167 
L 938.518803 173.574396 
L 938.919672 172.40557 
L 939.320541 169.768968 
L 939.72141 149.416799 
L 940.924018 142.539575 
L 941.324887 151.076841 
L 941.725756 136.414013 
L 942.126625 144.423829 
L 942.527494 125.908012 
L 943.730102 123.523695 
L 944.130971 140.198632 
L 944.53184 141.813386 
L 944.93271 134.951028 
L 945.333579 132.562669 
L 946.536186 138.840317 
L 947.337925 124.177919 
L 947.738794 157.442333 
L 948.139663 171.460274 
L 949.342271 168.662706 
L 949.74314 180.86646 
L 950.144009 126.448731 
L 950.544878 139.452328 
L 950.945747 134.241627 
L 952.148355 136.781369 
L 952.549224 134.055535 
L 952.950093 145.875012 
L 953.350962 139.91036 
L 954.954439 143.941049 
L 955.355308 143.072655 
L 955.756177 136.229074 
L 956.557916 103.593147 
L 957.760523 102.225653 
L 958.161392 96.940726 
L 958.562262 124.394026 
L 958.963131 88.237591 
L 959.364 86.754433 
L 960.566608 85.443686 
L 960.967477 86.480856 
L 961.368346 65.020778 
L 961.769215 56.681721 
L 962.170084 39.315808 
L 963.372692 39.06 
L 964.17443 41.163535 
L 964.575299 41.66856 
L 964.976169 39.64967 
L 966.178776 39.446318 
L 966.579645 41.455772 
L 966.980514 70.653492 
L 967.381384 78.323618 
L 967.782253 95.801127 
L 969.385729 74.783477 
L 969.786599 84.380226 
L 970.187468 88.079159 
L 970.588337 86.836554 
L 971.790945 98.513256 
L 972.191814 96.597319 
L 972.592683 101.281135 
L 972.993552 96.753365 
L 973.394421 94.46786 
L 974.597029 97.786376 
L 974.997898 101.182647 
L 975.398767 80.184994 
L 975.799636 75.747038 
L 976.200506 72.999252 
L 977.403113 80.226582 
L 977.803982 70.57665 
L 978.204851 69.593921 
L 979.00659 83.795382 
L 980.610067 72.376291 
L 981.411805 70.173208 
L 981.812674 77.366921 
L 983.015282 78.2498 
L 983.416151 88.76694 
L 983.81702 93.4301 
L 984.217889 91.612228 
L 985.821366 83.720256 
L 986.222235 92.060758 
L 986.623104 80.944241 
L 987.023973 88.966354 
L 987.424843 78.908415 
L 988.62745 89.801347 
L 989.028319 91.697506 
L 989.429188 95.802188 
L 989.830058 94.327375 
L 990.230927 94.803895 
L 991.433534 97.241008 
L 991.834404 95.240538 
L 992.235273 90.753553 
L 992.636142 95.492535 
L 993.037011 86.322292 
L 994.239619 86.755277 
L 994.640488 99.628691 
L 995.041357 88.64218 
L 995.442226 65.886701 
L 995.843095 92.554299 
L 997.045703 84.227229 
L 997.847441 111.024228 
L 998.24831 115.082527 
L 998.64918 113.70343 
L 999.851787 106.027151 
L 1000.252656 99.14846 
L 1000.653525 117.832553 
L 1001.054395 118.872915 
L 1001.455264 120.414251 
L 1002.657871 124.576473 
L 1003.058741 133.957868 
L 1003.45961 168.217485 
L 1003.860479 159.830047 
L 1004.261348 179.895202 
L 1005.463956 175.056156 
L 1005.864825 174.414373 
L 1006.265694 156.395463 
L 1006.666563 152.253162 
L 1007.067432 156.05061 
L 1008.670909 177.726675 
L 1008.670909 177.726675 
" clip-path="url(#p88a2a41156)" style="fill: none; stroke: #1f77b4; stroke-width: 1.5; stroke-linecap: square"/>
   </g>
   <g id="patch_3">
    <path d="M 145.8 224.28 
L 145.8 30.24 
" style="fill: none; stroke: #000000; stroke-width: 0.8; stroke-linejoin: miter; stroke-linecap: square"/>
   </g>
   <g id="patch_4">
    <path d="M 145.8 224.28 
L 1049.76 224.28 
" style="fill: none; stroke: #000000; stroke-width: 0.8; stroke-linejoin: miter; stroke-linecap: square"/>
   </g>
  </g>
 </g>
 <defs>
  <clipPath id="p88a2a41156">
   <rect x="145.8" y="30.24" width="903.96" height="194.04"/>
  </clipPath>
 </defs>
</svg>
