<?xml version="1.0" encoding="utf-8" standalone="no"?>
<!DOCTYPE svg PUBLIC "-//W3C//DTD SVG 1.1//EN"
  "http://www.w3.org/Graphics/SVG/1.1/DTD/svg11.dtd">
<svg xmlns:xlink="http://www.w3.org/1999/xlink" width="1166.4pt" height="252pt" viewBox="0 0 1166.4 252" xmlns="http://www.w3.org/2000/svg" version="1.1">
 <metadata>
  <rdf:RDF xmlns:dc="http://purl.org/dc/elements/1.1/" xmlns:cc="http://creativecommons.org/ns#" xmlns:rdf="http://www.w3.org/1999/02/22-rdf-syntax-ns#">
   <cc:Work>
    <dc:type rdf:resource="http://purl.org/dc/dcmitype/StillImage"/>
    <dc:date>2025-08-31T00:52:55.590765</dc:date>
    <dc:format>image/svg+xml</dc:format>
    <dc:creator>
     <cc:Agent>
      <dc:title>Matplotlib v3.10.5, https://matplotlib.org/</dc:title>
     </cc:Agent>
    </dc:creator>
   </cc:Work>
  </rdf:RDF>
 </metadata>
 <defs>
  <style type="text/css">*{stroke-linejoin: round; stroke-linecap: butt}</style>
 </defs>
 <g id="figure_1">
  <g id="patch_1">
   <path d="M 0 252 
L 1166.4 252 
L 1166.4 0 
L 0 0 
z
" style="fill: #ffffff"/>
  </g>
  <g id="axes_1">
   <g id="patch_2">
    <path d="M 145.8 224.28 
L 1049.76 224.28 
L 1049.76 30.24 
L 145.8 30.24 
z
" style="fill: #ffffff"/>
   </g>
   <g id="matplotlib.axis_1">
    <g id="xtick_1">
     <g id="line2d_1">
      <defs>
       <path id="m3cd0552136" d="M 0 0 
L 0 3.5 
" style="stroke: #000000; stroke-width: 0.8"/>
      </defs>
      <g>
       <use xlink:href="#m3cd0552136" x="178.450256" y="224.28" style="stroke: #000000; stroke-width: 0.8"/>
      </g>
     </g>
     <g id="text_1">
      <!-- 2020 -->
      <g transform="translate(165.725256 238.878438) scale(0.1 -0.1)">
       <defs>
        <path id="DejaVuSans-32" d="M 1228 531 
L 3431 531 
L 3431 0 
L 469 0 
L 469 531 
Q 828 903 1448 1529 
Q 2069 2156 2228 2338 
Q 2531 2678 2651 2914 
Q 2772 3150 2772 3378 
Q 2772 3750 2511 3984 
Q 2250 4219 1831 4219 
Q 1534 4219 1204 4116 
Q 875 4013 500 3803 
L 500 4441 
Q 881 4594 1212 4672 
Q 1544 4750 1819 4750 
Q 2544 4750 2975 4387 
Q 3406 4025 3406 3419 
Q 3406 3131 3298 2873 
Q 3191 2616 2906 2266 
Q 2828 2175 2409 1742 
Q 1991 1309 1228 531 
z
" transform="scale(0.015625)"/>
        <path id="DejaVuSans-30" d="M 2034 4250 
Q 1547 4250 1301 3770 
Q 1056 3291 1056 2328 
Q 1056 1369 1301 889 
Q 1547 409 2034 409 
Q 2525 409 2770 889 
Q 3016 1369 3016 2328 
Q 3016 3291 2770 3770 
Q 2525 4250 2034 4250 
z
M 2034 4750 
Q 2819 4750 3233 4129 
Q 3647 3509 3647 2328 
Q 3647 1150 3233 529 
Q 2819 -91 2034 -91 
Q 1250 -91 836 529 
Q 422 1150 422 2328 
Q 422 3509 836 4129 
Q 1250 4750 2034 4750 
z
" transform="scale(0.015625)"/>
       </defs>
       <use xlink:href="#DejaVuSans-32"/>
       <use xlink:href="#DejaVuSans-30" transform="translate(63.623047 0)"/>
       <use xlink:href="#DejaVuSans-32" transform="translate(127.246094 0)"/>
       <use xlink:href="#DejaVuSans-30" transform="translate(190.869141 0)"/>
      </g>
     </g>
    </g>
    <g id="xtick_2">
     <g id="line2d_2">
      <g>
       <use xlink:href="#m3cd0552136" x="325.527099" y="224.28" style="stroke: #000000; stroke-width: 0.8"/>
      </g>
     </g>
     <g id="text_2">
      <!-- 2021 -->
      <g transform="translate(312.802099 238.878438) scale(0.1 -0.1)">
       <defs>
        <path id="DejaVuSans-31" d="M 794 531 
L 1825 531 
L 1825 4091 
L 703 3866 
L 703 4441 
L 1819 4666 
L 2450 4666 
L 2450 531 
L 3481 531 
L 3481 0 
L 794 0 
L 794 531 
z
" transform="scale(0.015625)"/>
       </defs>
       <use xlink:href="#DejaVuSans-32"/>
       <use xlink:href="#DejaVuSans-30" transform="translate(63.623047 0)"/>
       <use xlink:href="#DejaVuSans-32" transform="translate(127.246094 0)"/>
       <use xlink:href="#DejaVuSans-31" transform="translate(190.869141 0)"/>
      </g>
     </g>
    </g>
    <g id="xtick_3">
     <g id="line2d_3">
      <g>
       <use xlink:href="#m3cd0552136" x="472.202094" y="224.28" style="stroke: #000000; stroke-width: 0.8"/>
      </g>
     </g>
     <g id="text_3">
      <!-- 2022 -->
      <g transform="translate(459.477094 238.878438) scale(0.1 -0.1)">
       <use xlink:href="#DejaVuSans-32"/>
       <use xlink:href="#DejaVuSans-30" transform="translate(63.623047 0)"/>
       <use xlink:href="#DejaVuSans-32" transform="translate(127.246094 0)"/>
       <use xlink:href="#DejaVuSans-32" transform="translate(190.869141 0)"/>
      </g>
     </g>
    </g>
    <g id="xtick_4">
     <g id="line2d_4">
      <g>
       <use xlink:href="#m3cd0552136" x="618.877088" y="224.28" style="stroke: #000000; stroke-width: 0.8"/>
      </g>
     </g>
     <g id="text_4">
      <!-- 2023 -->
      <g transform="translate(606.152088 238.878438) scale(0.1 -0.1)">
       <defs>
        <path id="DejaVuSans-33" d="M 2597 2516 
Q 3050 2419 3304 2112 
Q 3559 1806 3559 1356 
Q 3559 666 3084 287 
Q 2609 -91 1734 -91 
Q 1441 -91 1130 -33 
Q 819 25 488 141 
L 488 750 
Q 750 597 1062 519 
Q 1375 441 1716 441 
Q 2309 441 2620 675 
Q 2931 909 2931 1356 
Q 2931 1769 2642 2001 
Q 2353 2234 1838 2234 
L 1294 2234 
L 1294 2753 
L 1863 2753 
Q 2328 2753 2575 2939 
Q 2822 3125 2822 3475 
Q 2822 3834 2567 4026 
Q 2313 4219 1838 4219 
Q 1578 4219 1281 4162 
Q 984 4106 628 3988 
L 628 4550 
Q 988 4650 1302 4700 
Q 1616 4750 1894 4750 
Q 2613 4750 3031 4423 
Q 3450 4097 3450 3541 
Q 3450 3153 3228 2886 
Q 3006 2619 2597 2516 
z
" transform="scale(0.015625)"/>
       </defs>
       <use xlink:href="#DejaVuSans-32"/>
       <use xlink:href="#DejaVuSans-30" transform="translate(63.623047 0)"/>
       <use xlink:href="#DejaVuSans-32" transform="translate(127.246094 0)"/>
       <use xlink:href="#DejaVuSans-33" transform="translate(190.869141 0)"/>
      </g>
     </g>
    </g>
    <g id="xtick_5">
     <g id="line2d_5">
      <g>
       <use xlink:href="#m3cd0552136" x="765.552083" y="224.28" style="stroke: #000000; stroke-width: 0.8"/>
      </g>
     </g>
     <g id="text_5">
      <!-- 2024 -->
      <g transform="translate(752.827083 238.878438) scale(0.1 -0.1)">
       <defs>
        <path id="DejaVuSans-34" d="M 2419 4116 
L 825 1625 
L 2419 1625 
L 2419 4116 
z
M 2253 4666 
L 3047 4666 
L 3047 1625 
L 3713 1625 
L 3713 1100 
L 3047 1100 
L 3047 0 
L 2419 0 
L 2419 1100 
L 313 1100 
L 313 1709 
L 2253 4666 
z
" transform="scale(0.015625)"/>
       </defs>
       <use xlink:href="#DejaVuSans-32"/>
       <use xlink:href="#DejaVuSans-30" transform="translate(63.623047 0)"/>
       <use xlink:href="#DejaVuSans-32" transform="translate(127.246094 0)"/>
       <use xlink:href="#DejaVuSans-34" transform="translate(190.869141 0)"/>
      </g>
     </g>
    </g>
    <g id="xtick_6">
     <g id="line2d_6">
      <g>
       <use xlink:href="#m3cd0552136" x="912.628926" y="224.28" style="stroke: #000000; stroke-width: 0.8"/>
      </g>
     </g>
     <g id="text_6">
      <!-- 2025 -->
      <g transform="translate(899.903926 238.878438) scale(0.1 -0.1)">
       <defs>
        <path id="DejaVuSans-35" d="M 691 4666 
L 3169 4666 
L 3169 4134 
L 1269 4134 
L 1269 2991 
Q 1406 3038 1543 3061 
Q 1681 3084 1819 3084 
Q 2600 3084 3056 2656 
Q 3513 2228 3513 1497 
Q 3513 744 3044 326 
Q 2575 -91 1722 -91 
Q 1428 -91 1123 -41 
Q 819 9 494 109 
L 494 744 
Q 775 591 1075 516 
Q 1375 441 1709 441 
Q 2250 441 2565 725 
Q 2881 1009 2881 1497 
Q 2881 1984 2565 2268 
Q 2250 2553 1709 2553 
Q 1456 2553 1204 2497 
Q 953 2441 691 2322 
L 691 4666 
z
" transform="scale(0.015625)"/>
       </defs>
       <use xlink:href="#DejaVuSans-32"/>
       <use xlink:href="#DejaVuSans-30" transform="translate(63.623047 0)"/>
       <use xlink:href="#DejaVuSans-32" transform="translate(127.246094 0)"/>
       <use xlink:href="#DejaVuSans-35" transform="translate(190.869141 0)"/>
      </g>
     </g>
    </g>
   </g>
   <g id="matplotlib.axis_2">
    <g id="ytick_1">
     <g id="line2d_7">
      <defs>
       <path id="m470917c4d8" d="M 0 0 
L -3.5 0 
" style="stroke: #000000; stroke-width: 0.8"/>
      </defs>
      <g>
       <use xlink:href="#m470917c4d8" x="145.8" y="189.376345" style="stroke: #000000; stroke-width: 0.8"/>
      </g>
     </g>
     <g id="text_7">
      <!-- 20 -->
      <g transform="translate(126.075 193.175563) scale(0.1 -0.1)">
       <use xlink:href="#DejaVuSans-32"/>
       <use xlink:href="#DejaVuSans-30" transform="translate(63.623047 0)"/>
      </g>
     </g>
    </g>
    <g id="ytick_2">
     <g id="line2d_8">
      <g>
       <use xlink:href="#m470917c4d8" x="145.8" y="149.837766" style="stroke: #000000; stroke-width: 0.8"/>
      </g>
     </g>
     <g id="text_8">
      <!-- 40 -->
      <g transform="translate(126.075 153.636984) scale(0.1 -0.1)">
       <use xlink:href="#DejaVuSans-34"/>
       <use xlink:href="#DejaVuSans-30" transform="translate(63.623047 0)"/>
      </g>
     </g>
    </g>
    <g id="ytick_3">
     <g id="line2d_9">
      <g>
       <use xlink:href="#m470917c4d8" x="145.8" y="110.299187" style="stroke: #000000; stroke-width: 0.8"/>
      </g>
     </g>
     <g id="text_9">
      <!-- 60 -->
      <g transform="translate(126.075 114.098406) scale(0.1 -0.1)">
       <defs>
        <path id="DejaVuSans-36" d="M 2113 2584 
Q 1688 2584 1439 2293 
Q 1191 2003 1191 1497 
Q 1191 994 1439 701 
Q 1688 409 2113 409 
Q 2538 409 2786 701 
Q 3034 994 3034 1497 
Q 3034 2003 2786 2293 
Q 2538 2584 2113 2584 
z
M 3366 4563 
L 3366 3988 
Q 3128 4100 2886 4159 
Q 2644 4219 2406 4219 
Q 1781 4219 1451 3797 
Q 1122 3375 1075 2522 
Q 1259 2794 1537 2939 
Q 1816 3084 2150 3084 
Q 2853 3084 3261 2657 
Q 3669 2231 3669 1497 
Q 3669 778 3244 343 
Q 2819 -91 2113 -91 
Q 1303 -91 875 529 
Q 447 1150 447 2328 
Q 447 3434 972 4092 
Q 1497 4750 2381 4750 
Q 2619 4750 2861 4703 
Q 3103 4656 3366 4563 
z
" transform="scale(0.015625)"/>
       </defs>
       <use xlink:href="#DejaVuSans-36"/>
       <use xlink:href="#DejaVuSans-30" transform="translate(63.623047 0)"/>
      </g>
     </g>
    </g>
    <g id="ytick_4">
     <g id="line2d_10">
      <g>
       <use xlink:href="#m470917c4d8" x="145.8" y="70.760608" style="stroke: #000000; stroke-width: 0.8"/>
      </g>
     </g>
     <g id="text_10">
      <!-- 80 -->
      <g transform="translate(126.075 74.559827) scale(0.1 -0.1)">
       <defs>
        <path id="DejaVuSans-38" d="M 2034 2216 
Q 1584 2216 1326 1975 
Q 1069 1734 1069 1313 
Q 1069 891 1326 650 
Q 1584 409 2034 409 
Q 2484 409 2743 651 
Q 3003 894 3003 1313 
Q 3003 1734 2745 1975 
Q 2488 2216 2034 2216 
z
M 1403 2484 
Q 997 2584 770 2862 
Q 544 3141 544 3541 
Q 544 4100 942 4425 
Q 1341 4750 2034 4750 
Q 2731 4750 3128 4425 
Q 3525 4100 3525 3541 
Q 3525 3141 3298 2862 
Q 3072 2584 2669 2484 
Q 3125 2378 3379 2068 
Q 3634 1759 3634 1313 
Q 3634 634 3220 271 
Q 2806 -91 2034 -91 
Q 1263 -91 848 271 
Q 434 634 434 1313 
Q 434 1759 690 2068 
Q 947 2378 1403 2484 
z
M 1172 3481 
Q 1172 3119 1398 2916 
Q 1625 2713 2034 2713 
Q 2441 2713 2670 2916 
Q 2900 3119 2900 3481 
Q 2900 3844 2670 4047 
Q 2441 4250 2034 4250 
Q 1625 4250 1398 4047 
Q 1172 3844 1172 3481 
z
" transform="scale(0.015625)"/>
       </defs>
       <use xlink:href="#DejaVuSans-38"/>
       <use xlink:href="#DejaVuSans-30" transform="translate(63.623047 0)"/>
      </g>
     </g>
    </g>
    <g id="ytick_5">
     <g id="line2d_11">
      <g>
       <use xlink:href="#m470917c4d8" x="145.8" y="31.222029" style="stroke: #000000; stroke-width: 0.8"/>
      </g>
     </g>
     <g id="text_11">
      <!-- 100 -->
      <g transform="translate(119.7125 35.021248) scale(0.1 -0.1)">
       <use xlink:href="#DejaVuSans-31"/>
       <use xlink:href="#DejaVuSans-30" transform="translate(63.623047 0)"/>
       <use xlink:href="#DejaVuSans-30" transform="translate(127.246094 0)"/>
      </g>
     </g>
    </g>
   </g>
   <g id="line2d_12">
    <path d="M 186.889091 103.042768 
L 187.29094 99.305139 
L 187.69279 97.153981 
L 188.898337 115.216403 
L 189.300187 96.724719 
L 189.702036 96.529108 
L 190.103885 89.691351 
L 190.505735 98.651249 
L 191.711283 93.713507 
L 192.113132 78.925515 
L 192.514981 81.37333 
L 192.91683 80.303269 
L 193.31868 81.270129 
L 194.524228 72.653706 
L 194.926077 85.625375 
L 195.327926 86.622256 
L 195.729776 84.218264 
L 196.131625 71.79117 
L 197.739022 73.185368 
L 198.140871 75.550469 
L 198.542721 94.700532 
L 198.94457 106.58068 
L 200.150118 137.391874 
L 200.551967 160.303475 
L 200.953816 153.091058 
L 201.355666 181.510203 
L 201.757515 171.092511 
L 202.963063 156.537343 
L 203.364912 161.279979 
L 203.766762 150.127501 
L 204.168611 153.791985 
L 204.57046 161.308352 
L 205.776008 173.206062 
L 206.177857 158.249162 
L 206.579707 161.48013 
L 206.981556 167.059777 
L 207.383405 140.196613 
L 208.588953 153.405844 
L 208.990802 145.901056 
L 209.392652 142.487127 
L 209.794501 143.69517 
L 210.19635 156.098424 
L 211.401898 152.157333 
L 211.803747 146.453113 
L 212.205597 144.654541 
L 212.607446 134.04797 
L 213.009295 130.76224 
L 214.214843 130.587897 
L 214.616693 126.881407 
L 215.018542 119.096719 
L 215.420391 133.564121 
L 215.82224 107.024776 
L 217.027788 106.747417 
L 217.429638 99.584062 
L 217.831487 100.201362 
L 218.233336 90.1709 
L 219.840733 87.047947 
L 220.242583 90.703685 
L 220.644432 91.566471 
L 221.046281 95.616185 
L 221.448131 78.317271 
L 222.653679 99.661943 
L 223.055528 111.188018 
L 223.457377 90.160769 
L 223.859226 99.338128 
L 224.261076 91.914558 
L 225.868473 116.247462 
L 226.270322 106.312801 
L 226.672172 103.802773 
L 227.074021 114.417349 
L 228.279569 120.536123 
L 228.681418 113.630994 
L 229.083267 119.199785 
L 229.485117 120.087951 
L 229.886966 109.862258 
L 231.092514 85.412825 
L 231.494363 108.078108 
L 231.896212 110.019977 
L 232.298062 114.802392 
L 232.699911 108.024567 
L 233.905459 91.158568 
L 234.307308 110.929036 
L 234.709158 109.064176 
L 235.111007 99.582233 
L 235.512856 110.516655 
L 237.120253 125.108176 
L 237.923952 137.039603 
L 238.325801 133.733025 
L 239.531349 144.578776 
L 239.933198 116.362572 
L 240.335048 97.710053 
L 240.736897 116.006364 
L 241.138746 109.613918 
L 242.344294 111.757912 
L 243.147993 87.662337 
L 243.549842 121.907899 
L 243.951691 118.385889 
L 245.157239 109.284081 
L 245.559089 100.594964 
L 245.960938 98.099001 
L 246.362787 97.713726 
L 246.764637 100.132749 
L 248.372034 93.642239 
L 248.773883 98.379785 
L 249.175732 101.050589 
L 249.577582 113.521331 
L 250.78313 112.379221 
L 251.184979 115.831649 
L 251.586828 80.738848 
L 251.988677 80.618482 
L 253.596075 76.643198 
L 253.997924 91.962608 
L 254.399773 86.306591 
L 254.801623 87.091707 
L 255.203472 85.287389 
L 256.40902 114.792518 
L 256.810869 114.911804 
L 257.212718 103.702337 
L 257.614568 121.190564 
L 258.016417 112.517646 
L 259.221965 100.164434 
L 259.623814 117.520964 
L 260.025663 113.896095 
L 260.427513 137.315493 
L 260.829362 149.613291 
L 262.03491 139.197849 
L 262.436759 153.871879 
L 262.838609 152.387182 
L 263.240458 151.552985 
L 263.642307 135.228718 
L 264.847855 113.782998 
L 265.249704 120.212017 
L 266.053403 104.088747 
L 266.455252 128.193795 
L 267.6608 131.102866 
L 268.062649 146.731957 
L 268.464499 115.85595 
L 268.866348 113.992449 
L 269.268197 118.50026 
L 270.473745 110.947266 
L 270.875595 112.527786 
L 271.277444 115.56815 
L 271.679293 108.748746 
L 272.081142 138.138315 
L 273.28669 127.421766 
L 273.68854 119.141816 
L 274.090389 116.173363 
L 274.894088 74.341109 
L 276.099635 68.003925 
L 276.501485 72.665737 
L 276.903334 65.480412 
L 277.305183 112.481745 
L 277.707033 121.511599 
L 279.31443 143.311618 
L 279.716279 127.805464 
L 280.118128 142.983365 
L 280.519978 142.714396 
L 281.725526 141.599126 
L 282.127375 140.689243 
L 282.931074 164.818097 
L 283.332923 171.82052 
L 284.538471 164.349386 
L 284.94032 158.328563 
L 285.342169 172.780945 
L 285.744019 153.263666 
L 286.145868 140.3679 
L 287.351416 117.115705 
L 287.753265 138.86403 
L 288.155114 118.51629 
L 288.556964 110.793014 
L 288.958813 128.466334 
L 290.164361 126.836885 
L 290.56621 128.357409 
L 290.96806 116.776298 
L 291.369909 109.797876 
L 291.771758 105.211677 
L 292.977306 104.229451 
L 293.379155 84.312761 
L 294.182854 103.518163 
L 295.790251 115.020951 
L 296.59395 124.440687 
L 296.995799 105.441778 
L 297.397648 112.037557 
L 299.005046 119.824385 
L 299.406895 148.30502 
L 299.808744 157.729715 
L 300.210593 181.630132 
L 301.416141 188.099148 
L 301.817991 168.546191 
L 302.21984 137.121285 
L 303.023539 110.390287 
L 304.229086 123.04277 
L 304.630936 136.328017 
L 305.032785 127.555572 
L 305.434634 131.268534 
L 305.836484 119.473597 
L 307.042032 123.231319 
L 307.443881 106.658637 
L 307.84573 116.545309 
L 308.247579 109.14 
L 308.649429 113.546622 
L 309.854977 121.302195 
L 310.256826 134.76119 
L 310.658675 155.375168 
L 311.462374 152.113909 
L 312.667922 141.913484 
L 313.069771 108.263914 
L 313.47162 132.909098 
L 313.87347 133.011599 
L 314.275319 137.724262 
L 315.480867 141.906224 
L 315.882716 118.956627 
L 316.284565 126.538224 
L 316.686415 139.412229 
L 317.088264 116.436041 
L 318.293812 111.238097 
L 318.695661 128.568583 
L 319.097511 106.746912 
L 319.49936 110.991256 
L 319.901209 109.171074 
L 321.106757 102.932397 
L 321.508606 94.400513 
L 321.910456 103.827989 
L 322.312305 99.522366 
L 323.919702 94.059845 
L 324.321551 101.717347 
L 325.12525 85.000516 
L 326.732647 114.479692 
L 327.134497 116.701093 
L 327.536346 135.709957 
L 328.340044 129.503934 
L 329.545592 133.062043 
L 329.947442 151.776256 
L 330.349291 151.569243 
L 330.75114 152.444732 
L 331.15299 159.449051 
L 332.760387 153.751574 
L 333.162236 129.628069 
L 333.564085 122.09983 
L 333.965935 121.568457 
L 335.171483 100.736579 
L 335.573332 96.499298 
L 335.975181 75.506108 
L 336.37703 75.517911 
L 336.77888 101.728175 
L 337.984428 84.997843 
L 338.386277 77.455921 
L 338.788126 75.463222 
L 339.189976 67.678823 
L 339.591825 66.22339 
L 340.797373 69.140934 
L 341.199222 76.164846 
L 341.601071 80.989 
L 342.002921 80.051785 
L 342.40477 84.533207 
L 344.012167 95.002031 
L 344.414016 94.036892 
L 344.815866 110.164084 
L 345.217715 88.564214 
L 346.423263 151.152964 
L 346.825112 154.93622 
L 347.628811 179.37699 
L 348.03066 162.554755 
L 349.236208 145.20381 
L 350.039907 166.755521 
L 350.441756 173.909733 
L 350.843605 159.454383 
L 352.049153 163.86136 
L 352.451002 150.107053 
L 352.852852 151.537289 
L 353.254701 137.066489 
L 353.65655 127.575144 
L 354.862098 126.953054 
L 355.263948 123.880726 
L 355.665797 112.614794 
L 356.067646 133.450235 
L 356.469495 144.762685 
L 357.675043 125.600306 
L 358.076893 106.587217 
L 358.478742 110.217373 
L 358.880591 128.315093 
L 359.282441 108.495559 
L 360.889838 131.530704 
L 361.291687 133.63047 
L 361.693536 114.875525 
L 363.300934 101.136672 
L 363.702783 108.73542 
L 364.104632 103.804672 
L 364.506481 81.047682 
L 364.908331 77.181556 
L 366.113879 83.276031 
L 366.515728 82.079517 
L 366.917577 84.69143 
L 367.319427 69.928033 
L 367.721276 72.617185 
L 368.926824 75.412111 
L 369.328673 64.128934 
L 369.730522 65.514949 
L 370.132372 87.997345 
L 370.534221 92.846792 
L 371.739769 86.793148 
L 372.141618 89.829276 
L 372.543467 126.227134 
L 372.945317 140.024751 
L 373.347166 141.097573 
L 374.954563 153.909033 
L 375.356413 173.361606 
L 375.758262 164.32406 
L 376.160111 149.168589 
L 377.365659 159.431001 
L 377.767508 169.54642 
L 378.169358 175.251875 
L 378.571207 175.070782 
L 378.973056 159.81999 
L 380.178604 165.327324 
L 380.580453 157.241723 
L 380.982303 151.716913 
L 381.384152 141.768006 
L 381.786001 143.719698 
L 382.991549 122.381657 
L 383.393399 117.405225 
L 383.795248 124.622945 
L 384.197097 136.135392 
L 384.598946 121.856943 
L 386.206344 125.582746 
L 386.608193 101.998877 
L 387.010042 118.923911 
L 387.411892 119.010308 
L 388.617439 98.47187 
L 389.019289 94.475142 
L 389.421138 93.537397 
L 389.822987 92.906069 
L 390.224837 85.099509 
L 391.430385 93.087042 
L 391.832234 103.751963 
L 392.234083 107.40564 
L 392.635932 87.684765 
L 393.037782 95.807725 
L 395.047028 66.635788 
L 395.448878 71.468544 
L 395.850727 86.563791 
L 397.056275 72.912599 
L 397.458124 70.573771 
L 397.859973 79.000604 
L 398.261823 78.910526 
L 398.663672 72.58638 
L 400.271069 64.329744 
L 400.672918 56.528987 
L 401.074768 74.336485 
L 401.476617 65.530643 
L 402.682165 73.721443 
L 403.084014 72.47293 
L 403.485864 68.856966 
L 403.887713 79.262975 
L 404.289562 71.416243 
L 405.49511 99.204336 
L 405.896959 100.164867 
L 406.700658 84.872108 
L 407.102507 89.489739 
L 408.308055 92.401326 
L 408.709904 108.383052 
L 409.111754 98.935688 
L 409.513603 99.52229 
L 409.915452 103.900485 
L 411.121 114.946017 
L 411.52285 112.454107 
L 411.924699 108.40101 
L 412.326548 98.80669 
L 412.728397 78.898118 
L 413.933945 91.126078 
L 414.737644 125.729084 
L 415.139493 129.290235 
L 415.541343 111.473505 
L 416.74689 89.085308 
L 417.14874 97.215302 
L 417.550589 108.710862 
L 417.952438 83.910278 
L 418.354288 71.788652 
L 419.559836 74.326413 
L 420.363534 88.593059 
L 420.765383 100.41603 
L 421.167233 94.779968 
L 422.372781 80.696505 
L 422.77463 88.30262 
L 423.176479 93.327503 
L 423.578329 102.243878 
L 423.980178 106.457667 
L 425.587575 104.11985 
L 425.989424 95.893726 
L 426.391274 128.11919 
L 426.793123 176.817005 
L 427.998671 169.341063 
L 428.802369 118.717689 
L 429.204219 102.463689 
L 429.606068 129.513009 
L 430.811616 162.436722 
L 431.213465 155.835512 
L 431.615315 140.468372 
L 432.017164 135.107452 
L 432.419013 135.705387 
L 433.624561 146.751301 
L 434.02641 165.75409 
L 434.42826 160.004794 
L 434.830109 160.844882 
L 435.231958 145.607348 
L 436.437506 160.955746 
L 436.839355 159.466089 
L 437.241205 150.724822 
L 438.044903 128.953673 
L 439.250451 131.220971 
L 439.652301 142.195504 
L 440.05415 136.63673 
L 442.063396 76.486453 
L 442.465246 76.016458 
L 442.867095 71.541735 
L 443.268944 75.478989 
L 443.670794 56.140017 
L 445.278191 69.710489 
L 445.68004 58.584814 
L 446.081889 57.784389 
L 446.483739 51.416883 
L 447.689287 54.752434 
L 448.091136 54.591406 
L 448.492985 57.643368 
L 448.894834 57.049905 
L 449.296684 60.588688 
L 450.502232 60.595999 
L 450.904081 61.495642 
L 451.30593 83.93692 
L 452.109629 68.938471 
L 453.315177 72.917808 
L 453.717026 84.287242 
L 454.118875 85.755063 
L 454.520725 95.305067 
L 454.922574 80.768946 
L 456.128122 104.52516 
L 456.529971 115.724768 
L 456.93182 122.537227 
L 457.735519 146.257352 
L 458.941067 129.456236 
L 459.342916 140.216873 
L 459.744766 130.344113 
L 460.146615 135.753132 
L 460.548464 160.33822 
L 461.754012 150.290681 
L 462.155861 137.825332 
L 462.557711 138.206002 
L 462.95956 146.178031 
L 463.361409 131.044435 
L 464.566957 130.806521 
L 464.968806 143.951725 
L 465.370656 134.508321 
L 465.772505 136.444667 
L 466.174354 148.650062 
L 467.379902 146.039373 
L 467.781752 133.847733 
L 468.183601 125.384351 
L 468.58545 114.317773 
L 470.192847 109.4311 
L 470.594697 121.17444 
L 470.996546 120.351026 
L 471.398395 121.500739 
L 471.800244 139.480956 
L 473.005792 137.278487 
L 473.407642 128.9348 
L 473.809491 157.959161 
L 474.21134 149.012704 
L 474.61319 147.125511 
L 475.818737 140.60698 
L 476.220587 156.388942 
L 476.622436 163.909042 
L 477.024285 183.21715 
L 477.426135 189.955653 
L 479.033532 194.107895 
L 479.435381 194.162565 
L 479.83723 193.629384 
L 480.23908 195.110412 
L 481.444628 193.297178 
L 481.846477 194.523805 
L 482.248326 163.747779 
L 482.650176 153.848497 
L 483.052025 138.64434 
L 484.257573 134.774073 
L 484.659422 138.774663 
L 485.463121 135.026764 
L 485.86497 136.078869 
L 487.070518 132.557959 
L 487.472367 128.34221 
L 487.874216 117.461796 
L 488.276066 122.083727 
L 488.677915 131.604057 
L 489.883463 121.794227 
L 490.285312 125.114245 
L 490.687162 129.686312 
L 491.089011 153.114677 
L 491.49086 160.601157 
L 493.098257 158.659008 
L 493.500107 173.954207 
L 493.901956 137.980957 
L 494.303805 140.829411 
L 495.509353 132.242553 
L 495.911202 142.713079 
L 496.313052 144.97512 
L 496.714901 139.043773 
L 497.11675 137.239648 
L 498.322298 150.7704 
L 498.724148 163.238442 
L 499.125997 143.040474 
L 499.527846 136.585638 
L 499.929695 139.698237 
L 501.135243 143.32633 
L 501.537093 122.283833 
L 501.938942 130.314685 
L 502.340791 132.703779 
L 502.742641 128.094419 
L 503.948188 124.837247 
L 504.751887 125.630311 
L 505.153736 112.036585 
L 505.555586 93.811779 
L 506.761134 81.882752 
L 507.162983 88.212359 
L 507.564832 85.135331 
L 507.966681 85.205024 
L 508.368531 75.463048 
L 509.574079 79.648679 
L 509.975928 98.350687 
L 510.377777 123.238332 
L 511.181476 133.575074 
L 512.387024 157.18117 
L 513.190722 153.981935 
L 513.592572 161.297502 
L 515.199969 173.202807 
L 515.601818 173.059322 
L 516.003667 169.612639 
L 516.405517 169.612639 
L 516.807366 177.080605 
L 518.012914 174.879763 
L 518.414763 179.105802 
L 518.816613 149.322062 
L 519.218462 143.237548 
L 519.620311 150.13081 
L 520.825859 130.925921 
L 521.227708 130.373972 
L 521.629558 127.565453 
L 522.031407 132.568864 
L 522.433256 135.793424 
L 523.638804 149.511204 
L 524.040653 145.329983 
L 524.442503 147.853756 
L 524.844352 146.700181 
L 525.246201 147.665127 
L 526.451749 138.689608 
L 526.853599 147.631654 
L 527.255448 165.314877 
L 527.657297 157.138571 
L 528.059146 168.527897 
L 529.264694 153.678987 
L 529.666544 167.415821 
L 530.068393 150.428549 
L 530.470242 141.696363 
L 530.872092 116.354251 
L 532.479489 125.390344 
L 533.283187 92.316314 
L 533.685037 111.536121 
L 534.890585 115.015527 
L 535.292434 117.623848 
L 535.694283 89.724641 
L 536.096132 104.30083 
L 536.497982 129.308233 
L 537.70353 161.115151 
L 538.105379 155.098414 
L 538.507228 146.656017 
L 538.909078 160.704587 
L 539.310927 170.301885 
L 540.918324 156.582525 
L 541.320173 158.253985 
L 541.722023 151.886268 
L 542.123872 133.105849 
L 543.32942 135.021007 
L 543.731269 149.450584 
L 544.133118 142.099706 
L 544.534968 139.758294 
L 544.936817 121.040167 
L 546.544214 98.606999 
L 546.946064 97.45028 
L 547.347913 102.98913 
L 547.749762 89.058746 
L 548.95531 99.85555 
L 549.357159 130.183978 
L 549.759009 130.741095 
L 550.160858 138.523693 
L 550.562707 151.914996 
L 551.768255 151.38428 
L 552.170104 123.544256 
L 552.571954 125.670015 
L 552.973803 112.19981 
L 553.375652 128.393897 
L 554.5812 139.038317 
L 554.98305 159.616852 
L 555.384899 129.530956 
L 556.188597 107.354692 
L 557.394145 91.58591 
L 557.795995 96.335965 
L 558.197844 90.571514 
L 558.599693 91.816627 
L 559.001543 88.321576 
L 560.20709 98.535126 
L 560.60894 99.329425 
L 561.412638 90.35708 
L 561.814488 83.16886 
L 563.020036 66.213831 
L 563.823734 92.967538 
L 564.225583 104.069471 
L 564.627433 108.174667 
L 565.832981 122.289161 
L 566.23483 144.086057 
L 566.636679 149.06392 
L 567.038529 138.600118 
L 567.440378 153.896351 
L 568.645926 163.191801 
L 569.047775 186.793489 
L 569.449624 186.184207 
L 569.851474 206.169077 
L 570.253323 214.816668 
L 571.86072 215.46 
L 572.262569 197.061503 
L 572.664419 194.827221 
L 573.066268 172.751936 
L 574.271816 154.993399 
L 574.673665 172.194984 
L 575.075515 170.978295 
L 575.477364 184.545469 
L 575.879213 175.673298 
L 577.084761 172.743243 
L 577.48661 172.519866 
L 577.88846 174.785557 
L 578.290309 167.90057 
L 578.692158 166.321531 
L 579.897706 163.213097 
L 580.299555 179.537392 
L 580.701405 166.34334 
L 581.103254 189.052296 
L 581.505103 200.168726 
L 582.710651 157.344072 
L 583.51435 121.112221 
L 583.916199 125.455853 
L 584.318048 148.130012 
L 585.523596 152.11602 
L 585.925446 152.554736 
L 586.327295 156.100499 
L 586.729144 135.818601 
L 587.130994 142.902471 
L 588.336541 128.619432 
L 588.738391 133.562308 
L 589.14024 131.485328 
L 589.542089 125.265825 
L 589.943939 127.970523 
L 591.149487 132.666819 
L 591.551336 127.851599 
L 591.953185 148.709837 
L 592.355034 140.066558 
L 592.756884 121.698551 
L 593.962432 121.561182 
L 594.364281 127.14058 
L 594.76613 147.264431 
L 595.16798 147.434838 
L 595.569829 150.105898 
L 596.775377 142.411222 
L 597.177226 139.011812 
L 597.579075 143.122391 
L 597.980925 129.223816 
L 598.382774 130.207325 
L 599.588322 138.915067 
L 599.990171 117.365292 
L 600.39202 110.4084 
L 600.79387 120.859178 
L 601.195719 115.523039 
L 602.401267 107.316316 
L 603.204966 68.791626 
L 604.008664 74.700865 
L 605.214212 99.492881 
L 605.616061 104.832795 
L 606.017911 76.672102 
L 606.41976 99.368214 
L 606.821609 106.517026 
L 608.027157 104.01165 
L 608.429006 120.61572 
L 608.830856 123.602809 
L 609.232705 117.022742 
L 609.634554 120.814017 
L 610.840102 109.842818 
L 611.241952 107.703408 
L 611.643801 111.12456 
L 612.04565 127.496606 
L 612.447499 124.988302 
L 613.653047 129.87019 
L 614.054897 158.511365 
L 614.456746 150.961839 
L 614.858595 160.621023 
L 615.260445 152.667086 
L 616.867842 147.281199 
L 617.269691 150.106577 
L 617.67154 142.217613 
L 618.07339 140.879847 
L 619.680787 158.886693 
L 620.082636 184.608671 
L 620.484485 190.703476 
L 620.886335 176.448614 
L 622.091883 165.375135 
L 622.895581 141.476021 
L 623.297431 141.244421 
L 623.69928 127.873743 
L 625.306677 126.691574 
L 625.708526 132.333363 
L 626.110376 135.045311 
L 626.512225 131.529411 
L 627.717773 125.073711 
L 628.119622 125.640924 
L 628.521471 105.265249 
L 628.923321 75.423117 
L 629.32517 77.893837 
L 630.530718 97.468127 
L 630.932567 93.059578 
L 631.334417 95.575734 
L 631.736266 85.427542 
L 632.138115 100.211455 
L 633.343663 104.612676 
L 633.745512 85.240883 
L 634.147362 78.696611 
L 634.549211 92.629153 
L 634.95106 96.22899 
L 636.558457 83.535067 
L 637.362156 109.041664 
L 637.764005 106.644839 
L 639.371403 122.061219 
L 639.773252 131.010224 
L 640.175101 146.45461 
L 640.57695 145.421546 
L 641.782498 140.995886 
L 642.184348 169.34863 
L 642.586197 172.336786 
L 642.988046 154.460647 
L 643.389896 143.74728 
L 644.997293 166.583283 
L 645.399142 164.212309 
L 645.800991 154.711202 
L 646.202841 154.02747 
L 647.408389 126.901112 
L 647.810238 109.556516 
L 648.212087 107.195036 
L 648.613936 78.102726 
L 649.015786 76.100189 
L 650.221334 92.534175 
L 650.623183 83.561422 
L 651.025032 92.086589 
L 651.828731 89.425569 
L 653.034279 92.894593 
L 653.436128 94.486419 
L 653.837977 86.331636 
L 654.239827 74.887662 
L 654.641676 75.642917 
L 655.847224 83.926148 
L 656.249073 88.774892 
L 656.650922 111.831715 
L 657.052772 105.084775 
L 658.660169 90.768303 
L 659.062018 111.497804 
L 659.463868 106.682774 
L 659.865717 105.152382 
L 660.267566 118.857425 
L 661.473114 104.266145 
L 661.874963 102.351093 
L 662.276813 111.229425 
L 663.080511 136.935691 
L 664.286059 143.738756 
L 664.687908 155.460102 
L 665.089758 112.732199 
L 665.491607 109.977351 
L 665.893456 103.022217 
L 667.099004 92.900675 
L 667.500854 93.920428 
L 667.902703 103.709288 
L 668.304552 93.374745 
L 668.706401 90.431789 
L 669.911949 94.310139 
L 670.313799 98.251664 
L 670.715648 87.333006 
L 671.117497 91.527071 
L 671.519347 84.95725 
L 672.724894 67.457128 
L 673.126744 85.208059 
L 673.528593 97.105302 
L 673.930442 92.735055 
L 674.332292 85.868465 
L 675.53784 80.47741 
L 675.939689 99.832209 
L 676.341538 106.428258 
L 677.145237 80.709585 
L 678.752634 80.809203 
L 679.154483 95.149212 
L 679.556333 83.792522 
L 679.958182 77.663804 
L 681.16373 77.617461 
L 681.565579 86.364267 
L 681.967428 114.224627 
L 682.369278 118.14606 
L 682.771127 115.47381 
L 683.976675 112.327629 
L 684.378524 96.460237 
L 684.780373 89.764587 
L 685.182223 91.126757 
L 685.584072 113.133616 
L 687.191469 118.350775 
L 687.593319 121.460906 
L 687.995168 118.576851 
L 688.397017 130.662755 
L 689.602565 140.571359 
L 690.004414 128.859839 
L 690.406264 110.739525 
L 690.808113 114.632081 
L 691.209962 109.676317 
L 692.41551 120.606187 
L 693.219209 123.90059 
L 693.621058 123.795785 
L 694.022907 149.544142 
L 695.228455 148.994122 
L 695.630305 140.841136 
L 696.032154 123.073948 
L 696.434003 124.322871 
L 696.835852 109.299455 
L 698.0414 90.42338 
L 698.44325 81.291187 
L 699.648798 124.624765 
L 700.854345 117.815913 
L 701.256195 109.986089 
L 701.658044 134.792208 
L 702.059893 138.495767 
L 702.461743 121.833416 
L 703.667291 125.822173 
L 704.06914 131.186984 
L 704.470989 148.946115 
L 704.872838 153.723375 
L 705.274688 152.737421 
L 706.480236 173.517084 
L 706.882085 173.225541 
L 707.685784 164.573572 
L 708.087633 169.587233 
L 709.293181 176.428651 
L 710.096879 153.810596 
L 710.498729 187.2018 
L 710.900578 184.685604 
L 712.106126 165.025023 
L 712.909824 127.103176 
L 713.311674 147.546628 
L 713.713523 145.600586 
L 714.919071 134.434552 
L 715.32092 112.45554 
L 715.72277 113.133195 
L 716.124619 110.382955 
L 716.526468 115.162115 
L 718.133865 97.797901 
L 718.535715 97.416029 
L 718.937564 95.473367 
L 719.339413 87.376498 
L 720.544961 89.838374 
L 720.94681 109.640918 
L 721.34866 110.078557 
L 721.750509 84.253181 
L 722.152358 114.470282 
L 723.357906 118.630466 
L 723.759756 129.50373 
L 724.161605 146.077131 
L 724.563454 146.426932 
L 724.965303 152.49403 
L 726.170851 163.74638 
L 726.572701 169.706316 
L 726.97455 164.324453 
L 727.376399 174.505072 
L 727.778248 179.547476 
L 728.983796 152.359856 
L 729.385646 176.43411 
L 729.787495 168.134055 
L 730.189344 154.928935 
L 730.591194 133.632627 
L 731.796741 127.847551 
L 732.198591 113.557622 
L 732.60044 103.748661 
L 733.002289 100.403846 
L 733.404139 109.943587 
L 734.609687 89.181426 
L 735.011536 91.580185 
L 735.413385 97.887864 
L 735.815234 99.095374 
L 736.217084 120.099611 
L 737.422632 93.044275 
L 737.824481 100.106035 
L 738.22633 86.101932 
L 738.62818 128.888788 
L 739.030029 130.087442 
L 740.235577 114.924043 
L 740.637426 119.840443 
L 741.039275 106.177938 
L 741.441125 96.433441 
L 741.842974 96.900134 
L 743.048522 91.814833 
L 743.450371 84.006697 
L 743.85222 82.851981 
L 744.655919 73.837581 
L 745.861467 80.923765 
L 746.263316 85.844471 
L 746.665166 51.533797 
L 747.067015 49.928631 
L 747.468864 72.292987 
L 748.674412 67.909411 
L 749.076261 84.477223 
L 749.478111 82.320765 
L 750.281809 87.275031 
L 751.487357 89.819844 
L 751.889206 89.717412 
L 752.291056 101.793834 
L 752.692905 95.910008 
L 753.094754 119.080716 
L 754.300302 124.057169 
L 754.702152 124.415777 
L 755.50585 140.052565 
L 755.907699 121.167523 
L 757.113247 143.868393 
L 757.515097 127.035374 
L 757.916946 139.139718 
L 758.318795 154.812232 
L 758.720645 145.784855 
L 759.926192 151.030836 
L 760.328042 142.583673 
L 760.729891 147.604055 
L 761.53359 116.927623 
L 763.140987 124.44562 
L 763.542836 114.964781 
L 763.944685 117.311293 
L 764.346535 124.302709 
L 765.953932 131.346003 
L 766.355781 142.334895 
L 766.757631 149.264702 
L 767.15948 122.831738 
L 768.365028 115.570961 
L 768.766877 118.212552 
L 769.570576 86.478823 
L 769.972425 84.92368 
L 771.579822 83.703586 
L 771.981671 87.226267 
L 772.383521 78.537241 
L 772.78537 74.451012 
L 773.990918 82.980168 
L 774.392767 61.129278 
L 774.794617 57.578258 
L 775.196466 45.627092 
L 775.598315 48.752952 
L 776.803863 49.223674 
L 777.205712 54.423222 
L 777.607562 98.848262 
L 778.009411 93.119297 
L 778.41126 89.055297 
L 779.616808 104.125587 
L 780.018657 102.747459 
L 780.420507 97.95773 
L 780.822356 103.470625 
L 781.224205 91.530249 
L 782.429753 105.019948 
L 782.831603 124.74683 
L 783.233452 122.630224 
L 783.635301 125.517441 
L 784.03715 136.989264 
L 785.644548 137.175355 
L 786.046397 121.251841 
L 786.448246 116.568573 
L 786.850096 130.278424 
L 788.055643 125.256491 
L 788.457493 125.065597 
L 788.859342 142.080076 
L 789.261191 129.505105 
L 789.663041 139.038619 
L 790.868589 129.074068 
L 791.270438 136.378811 
L 791.672287 147.328015 
L 792.074136 124.584139 
L 792.475986 125.517918 
L 793.681534 126.457036 
L 794.083383 107.548664 
L 794.485232 122.994743 
L 794.887082 104.273295 
L 795.288931 116.140229 
L 796.494479 114.837519 
L 796.896328 110.083138 
L 797.298177 112.607221 
L 797.700027 109.874058 
L 798.101876 109.961485 
L 799.307424 97.61205 
L 799.709273 98.984289 
L 800.111122 108.128423 
L 800.512972 103.106943 
L 802.120369 94.236317 
L 802.522218 117.298004 
L 802.924068 119.162545 
L 803.325917 147.790435 
L 803.727766 107.456526 
L 804.933314 112.017339 
L 805.335163 117.20073 
L 805.737013 135.387519 
L 806.138862 133.901003 
L 806.540711 145.962186 
L 807.746259 150.357112 
L 808.148108 145.720221 
L 808.549958 150.164758 
L 808.951807 160.163527 
L 809.353656 175.534786 
L 810.559204 167.529352 
L 810.961054 151.40848 
L 811.362903 144.951282 
L 811.764752 173.005966 
L 812.166601 156.898635 
L 813.372149 164.152107 
L 813.773999 172.207922 
L 814.175848 170.562098 
L 814.577697 160.795285 
L 814.979547 138.918569 
L 816.185094 131.293672 
L 816.586944 132.963493 
L 817.390642 112.814168 
L 817.792492 112.193126 
L 818.99804 121.459227 
L 819.399889 119.766159 
L 819.801738 94.651236 
L 820.203587 106.252035 
L 820.605437 99.61187 
L 821.810985 61.436234 
L 822.614683 63.457132 
L 823.016533 83.022134 
L 823.418382 87.756643 
L 825.025779 71.309914 
L 825.427628 77.593746 
L 825.829478 123.856721 
L 826.231327 127.690505 
L 827.436875 128.942754 
L 827.838724 129.528106 
L 828.240573 128.162454 
L 828.642423 122.588849 
L 829.044272 122.337414 
L 830.24982 124.563741 
L 830.651669 122.337414 
L 831.455368 101.496366 
L 831.857217 104.655493 
L 833.062765 96.973084 
L 833.464614 99.092206 
L 834.268313 55.130853 
L 834.670162 53.188104 
L 835.87571 55.138019 
L 836.277559 54.756701 
L 836.679409 58.812763 
L 837.081258 58.686141 
L 837.483107 78.710996 
L 838.688655 73.264206 
L 839.090505 75.245355 
L 839.492354 82.630858 
L 840.296052 75.821933 
L 841.5016 80.987277 
L 841.90345 107.336019 
L 842.305299 93.110088 
L 842.707148 116.202753 
L 843.108998 123.982385 
L 844.314545 119.624337 
L 845.118244 143.111178 
L 845.520093 148.225779 
L 845.921943 144.96355 
L 847.127491 152.286834 
L 847.52934 153.563042 
L 848.333038 191.672083 
L 848.734888 178.03418 
L 849.940436 171.022556 
L 850.342285 186.20967 
L 850.744134 181.909013 
L 851.145984 181.969974 
L 851.547833 187.98043 
L 852.753381 192.191682 
L 853.15523 181.149396 
L 853.557079 180.015696 
L 853.958929 170.571957 
L 854.360778 174.846531 
L 855.566326 176.847814 
L 855.968175 150.616078 
L 856.370024 132.447683 
L 856.771874 135.614955 
L 857.173723 141.818195 
L 858.379271 131.066893 
L 858.78112 118.396086 
L 859.18297 117.33904 
L 859.584819 117.312346 
L 859.986668 84.352382 
L 861.192216 99.478965 
L 861.594065 95.673903 
L 861.995915 111.241951 
L 862.397764 112.686764 
L 862.799613 107.175016 
L 864.80886 145.571741 
L 865.210709 160.131511 
L 865.612558 166.348911 
L 866.818106 163.568237 
L 867.219956 150.27228 
L 868.023654 109.642661 
L 868.425503 106.452065 
L 869.631051 98.110233 
L 870.032901 94.165515 
L 870.43475 96.645551 
L 870.836599 91.261358 
L 871.238449 102.297178 
L 872.443996 89.460258 
L 872.845846 97.954081 
L 873.247695 93.896972 
L 873.649544 80.40206 
L 874.051394 92.194305 
L 875.256942 99.464135 
L 875.658791 134.470402 
L 876.06064 148.697759 
L 876.462489 158.198719 
L 876.864339 160.829684 
L 878.069887 178.929027 
L 878.471736 160.300865 
L 878.873585 174.238554 
L 879.275435 172.08542 
L 879.677284 168.312391 
L 880.882832 153.173489 
L 881.284681 162.805042 
L 881.68653 165.656983 
L 882.08838 158.346052 
L 882.490229 161.108084 
L 883.695777 136.43163 
L 884.097626 100.618807 
L 884.499475 108.628842 
L 884.901325 106.786734 
L 885.303174 75.499225 
L 886.508722 91.055485 
L 886.910571 86.281171 
L 887.312421 77.976775 
L 887.71427 147.246361 
L 888.116119 144.86926 
L 889.321667 146.981632 
L 889.723516 137.687122 
L 890.125366 125.081459 
L 890.527215 120.141567 
L 890.929064 125.090435 
L 892.134612 143.395787 
L 892.536461 132.206972 
L 892.938311 129.445809 
L 893.34016 131.7774 
L 893.742009 143.836404 
L 894.947557 150.42629 
L 895.349407 148.267267 
L 895.751256 113.987078 
L 896.153105 123.974265 
L 896.554954 113.574639 
L 897.760502 115.381822 
L 898.162352 114.625737 
L 898.564201 132.919883 
L 899.3679 126.760252 
L 900.573447 105.573493 
L 900.975297 112.567786 
L 901.778995 102.042271 
L 902.180845 68.979697 
L 903.386393 67.683185 
L 903.788242 77.850062 
L 904.190091 66.390564 
L 904.59194 60.418554 
L 904.99379 70.500954 
L 906.199338 68.617437 
L 906.601187 73.715679 
L 907.003036 105.73699 
L 907.404886 107.096341 
L 907.806735 119.239618 
L 909.012283 122.433014 
L 909.414132 126.314311 
L 910.217831 139.694831 
L 910.61968 154.415915 
L 911.825228 167.344742 
L 912.227077 168.03806 
L 913.030776 185.64106 
L 913.432625 174.514517 
L 914.638173 161.79729 
L 915.040022 176.910641 
L 915.441872 178.53528 
L 916.24557 166.876399 
L 917.451118 168.582035 
L 917.852967 169.846498 
L 918.254817 144.484299 
L 918.656666 154.801106 
L 919.058515 144.502815 
L 920.665912 133.708178 
L 921.067762 98.601842 
L 921.469611 91.319936 
L 921.87146 90.739754 
L 923.077008 113.955814 
L 923.478858 105.199391 
L 923.880707 104.210326 
L 924.282556 139.392884 
L 924.684405 134.077581 
L 925.889953 136.373962 
L 926.291803 133.389545 
L 926.693652 144.610618 
L 927.095501 139.764924 
L 927.497351 151.029321 
L 928.702898 147.398064 
L 929.104748 175.313532 
L 929.506597 177.910539 
L 929.908446 173.278353 
L 930.310296 167.344539 
L 931.917693 194.235015 
L 932.319542 176.940726 
L 932.721391 124.149831 
L 933.123241 144.666601 
L 934.328789 144.828148 
L 934.730638 159.717792 
L 935.132487 157.192677 
L 935.534337 173.530181 
L 935.936186 153.921749 
L 937.141734 170.852683 
L 937.543583 169.723336 
L 937.945432 141.04174 
L 938.347282 148.853456 
L 938.749131 150.564587 
L 939.954679 165.078009 
L 940.356528 173.574353 
L 940.758377 172.405525 
L 941.160227 169.768922 
L 941.562076 149.416725 
L 942.767624 142.539457 
L 943.169473 151.076769 
L 943.571323 136.413913 
L 943.973172 144.423751 
L 944.375021 125.907923 
L 945.580569 123.523611 
L 945.982418 140.198509 
L 946.384268 141.813259 
L 946.786117 134.950918 
L 947.187966 132.56262 
L 948.393514 138.84013 
L 949.197213 124.177849 
L 949.599062 157.442106 
L 950.000911 171.459989 
L 951.206459 168.662422 
L 951.608309 180.86627 
L 952.010158 126.448637 
L 952.412007 139.452227 
L 952.813856 134.241499 
L 954.019404 136.781265 
L 954.421254 134.055434 
L 954.823103 145.8749 
L 955.224952 139.910253 
L 956.832349 143.940939 
L 957.234199 143.072575 
L 957.636048 136.229 
L 958.439747 103.593091 
L 959.645295 102.225598 
L 960.047144 96.940658 
L 960.448993 124.3939 
L 960.850842 88.237558 
L 961.252692 86.754417 
L 962.45824 85.44363 
L 962.860089 86.480798 
L 963.261938 65.020746 
L 963.663788 56.681697 
L 964.065637 39.315805 
L 965.271185 39.06 
L 966.074883 41.16347 
L 966.476733 41.668494 
L 966.878582 39.649522 
L 968.08413 39.446175 
L 968.485979 41.45563 
L 968.887828 70.653337 
L 969.289678 78.323457 
L 969.691527 95.800993 
L 971.298924 74.783333 
L 971.700774 84.380093 
L 972.102623 88.079025 
L 972.504472 86.836454 
L 973.71002 98.513076 
L 974.111869 96.597233 
L 974.513719 101.281048 
L 974.915568 96.75328 
L 975.317417 94.467776 
L 976.522965 97.78629 
L 976.924814 101.18256 
L 977.326664 80.184914 
L 977.728513 75.74696 
L 978.130362 72.999175 
L 979.33591 80.226502 
L 979.73776 70.576574 
L 980.139609 69.593845 
L 980.943307 83.795301 
L 982.550705 72.376214 
L 983.354403 70.173132 
L 983.756253 77.366842 
L 984.9618 78.249721 
L 985.36365 88.766857 
L 985.765499 93.430016 
L 986.167348 91.612144 
L 987.774745 83.720175 
L 988.176595 92.060674 
L 988.578444 80.944161 
L 988.980293 88.966271 
L 989.382143 78.908336 
L 990.587691 89.801264 
L 990.98954 91.697422 
L 991.391389 95.802102 
L 991.793238 94.32729 
L 992.195088 94.80381 
L 993.400636 97.240923 
L 993.802485 95.240453 
L 994.204334 90.753469 
L 994.606184 95.492449 
L 995.008033 86.32221 
L 996.213581 86.755195 
L 996.61543 99.628604 
L 997.017279 88.642097 
L 997.419129 65.886627 
L 997.820978 92.554215 
L 999.026526 84.227148 
L 999.830224 111.024138 
L 1000.232074 115.082435 
L 1000.633923 113.703339 
L 1001.839471 106.027062 
L 1002.24132 99.148374 
L 1002.64317 117.83246 
L 1003.045019 118.872821 
L 1003.446868 120.414157 
L 1004.652416 124.576377 
L 1005.054265 133.957769 
L 1005.456115 168.217374 
L 1005.857964 159.829939 
L 1006.259813 179.895087 
L 1007.465361 175.056043 
L 1007.86721 174.41426 
L 1008.26906 156.395356 
L 1008.670909 152.253056 
L 1008.670909 152.253056 
" clip-path="url(#p76b234176e)" style="fill: none; stroke: #1f77b4; stroke-width: 1.5; stroke-linecap: square"/>
   </g>
   <g id="patch_3">
    <path d="M 145.8 224.28 
L 145.8 30.24 
" style="fill: none; stroke: #000000; stroke-width: 0.8; stroke-linejoin: miter; stroke-linecap: square"/>
   </g>
   <g id="patch_4">
    <path d="M 145.8 224.28 
L 1049.76 224.28 
" style="fill: none; stroke: #000000; stroke-width: 0.8; stroke-linejoin: miter; stroke-linecap: square"/>
   </g>
  </g>
 </g>
 <defs>
  <clipPath id="p76b234176e">
   <rect x="145.8" y="30.24" width="903.96" height="194.04"/>
  </clipPath>
 </defs>
</svg>
