<?xml version="1.0" encoding="utf-8" standalone="no"?>
<!DOCTYPE svg PUBLIC "-//W3C//DTD SVG 1.1//EN"
  "http://www.w3.org/Graphics/SVG/1.1/DTD/svg11.dtd">
<svg xmlns:xlink="http://www.w3.org/1999/xlink" width="756pt" height="252pt" viewBox="0 0 756 252" xmlns="http://www.w3.org/2000/svg" version="1.1">
 <metadata>
  <rdf:RDF xmlns:dc="http://purl.org/dc/elements/1.1/" xmlns:cc="http://creativecommons.org/ns#" xmlns:rdf="http://www.w3.org/1999/02/22-rdf-syntax-ns#">
   <cc:Work>
    <dc:type rdf:resource="http://purl.org/dc/dcmitype/StillImage"/>
    <dc:date>2025-08-31T00:52:54.152678</dc:date>
    <dc:format>image/svg+xml</dc:format>
    <dc:creator>
     <cc:Agent>
      <dc:title>Matplotlib v3.10.5, https://matplotlib.org/</dc:title>
     </cc:Agent>
    </dc:creator>
   </cc:Work>
  </rdf:RDF>
 </metadata>
 <defs>
  <style type="text/css">*{stroke-linejoin: round; stroke-linecap: butt}</style>
 </defs>
 <g id="figure_1">
  <g id="patch_1">
   <path d="M 0 252 
L 756 252 
L 756 0 
L 0 0 
z
" style="fill: #ffffff"/>
  </g>
  <g id="axes_1">
   <g id="patch_2">
    <path d="M 94.5 224.28 
L 680.4 224.28 
L 680.4 30.24 
L 94.5 30.24 
z
" style="fill: #ffffff"/>
   </g>
   <g id="matplotlib.axis_1">
    <g id="xtick_1">
     <g id="line2d_1">
      <defs>
       <path id="m48d6b50f4a" d="M 0 0 
L 0 3.5 
" style="stroke: #000000; stroke-width: 0.8"/>
      </defs>
      <g>
       <use xlink:href="#m48d6b50f4a" x="127.886265" y="224.28" style="stroke: #000000; stroke-width: 0.8"/>
      </g>
     </g>
     <g id="text_1">
      <!-- 2024-03 -->
      <g transform="translate(106.994859 238.878438) scale(0.1 -0.1)">
       <defs>
        <path id="DejaVuSans-32" d="M 1228 531 
L 3431 531 
L 3431 0 
L 469 0 
L 469 531 
Q 828 903 1448 1529 
Q 2069 2156 2228 2338 
Q 2531 2678 2651 2914 
Q 2772 3150 2772 3378 
Q 2772 3750 2511 3984 
Q 2250 4219 1831 4219 
Q 1534 4219 1204 4116 
Q 875 4013 500 3803 
L 500 4441 
Q 881 4594 1212 4672 
Q 1544 4750 1819 4750 
Q 2544 4750 2975 4387 
Q 3406 4025 3406 3419 
Q 3406 3131 3298 2873 
Q 3191 2616 2906 2266 
Q 2828 2175 2409 1742 
Q 1991 1309 1228 531 
z
" transform="scale(0.015625)"/>
        <path id="DejaVuSans-30" d="M 2034 4250 
Q 1547 4250 1301 3770 
Q 1056 3291 1056 2328 
Q 1056 1369 1301 889 
Q 1547 409 2034 409 
Q 2525 409 2770 889 
Q 3016 1369 3016 2328 
Q 3016 3291 2770 3770 
Q 2525 4250 2034 4250 
z
M 2034 4750 
Q 2819 4750 3233 4129 
Q 3647 3509 3647 2328 
Q 3647 1150 3233 529 
Q 2819 -91 2034 -91 
Q 1250 -91 836 529 
Q 422 1150 422 2328 
Q 422 3509 836 4129 
Q 1250 4750 2034 4750 
z
" transform="scale(0.015625)"/>
        <path id="DejaVuSans-34" d="M 2419 4116 
L 825 1625 
L 2419 1625 
L 2419 4116 
z
M 2253 4666 
L 3047 4666 
L 3047 1625 
L 3713 1625 
L 3713 1100 
L 3047 1100 
L 3047 0 
L 2419 0 
L 2419 1100 
L 313 1100 
L 313 1709 
L 2253 4666 
z
" transform="scale(0.015625)"/>
        <path id="DejaVuSans-2d" d="M 313 2009 
L 1997 2009 
L 1997 1497 
L 313 1497 
L 313 2009 
z
" transform="scale(0.015625)"/>
        <path id="DejaVuSans-33" d="M 2597 2516 
Q 3050 2419 3304 2112 
Q 3559 1806 3559 1356 
Q 3559 666 3084 287 
Q 2609 -91 1734 -91 
Q 1441 -91 1130 -33 
Q 819 25 488 141 
L 488 750 
Q 750 597 1062 519 
Q 1375 441 1716 441 
Q 2309 441 2620 675 
Q 2931 909 2931 1356 
Q 2931 1769 2642 2001 
Q 2353 2234 1838 2234 
L 1294 2234 
L 1294 2753 
L 1863 2753 
Q 2328 2753 2575 2939 
Q 2822 3125 2822 3475 
Q 2822 3834 2567 4026 
Q 2313 4219 1838 4219 
Q 1578 4219 1281 4162 
Q 984 4106 628 3988 
L 628 4550 
Q 988 4650 1302 4700 
Q 1616 4750 1894 4750 
Q 2613 4750 3031 4423 
Q 3450 4097 3450 3541 
Q 3450 3153 3228 2886 
Q 3006 2619 2597 2516 
z
" transform="scale(0.015625)"/>
       </defs>
       <use xlink:href="#DejaVuSans-32"/>
       <use xlink:href="#DejaVuSans-30" transform="translate(63.623047 0)"/>
       <use xlink:href="#DejaVuSans-32" transform="translate(127.246094 0)"/>
       <use xlink:href="#DejaVuSans-34" transform="translate(190.869141 0)"/>
       <use xlink:href="#DejaVuSans-2d" transform="translate(254.492188 0)"/>
       <use xlink:href="#DejaVuSans-30" transform="translate(290.576172 0)"/>
       <use xlink:href="#DejaVuSans-33" transform="translate(354.199219 0)"/>
      </g>
     </g>
    </g>
    <g id="xtick_2">
     <g id="line2d_2">
      <g>
       <use xlink:href="#m48d6b50f4a" x="186.746443" y="224.28" style="stroke: #000000; stroke-width: 0.8"/>
      </g>
     </g>
     <g id="text_2">
      <!-- 2024-05 -->
      <g transform="translate(165.855036 238.878438) scale(0.1 -0.1)">
       <defs>
        <path id="DejaVuSans-35" d="M 691 4666 
L 3169 4666 
L 3169 4134 
L 1269 4134 
L 1269 2991 
Q 1406 3038 1543 3061 
Q 1681 3084 1819 3084 
Q 2600 3084 3056 2656 
Q 3513 2228 3513 1497 
Q 3513 744 3044 326 
Q 2575 -91 1722 -91 
Q 1428 -91 1123 -41 
Q 819 9 494 109 
L 494 744 
Q 775 591 1075 516 
Q 1375 441 1709 441 
Q 2250 441 2565 725 
Q 2881 1009 2881 1497 
Q 2881 1984 2565 2268 
Q 2250 2553 1709 2553 
Q 1456 2553 1204 2497 
Q 953 2441 691 2322 
L 691 4666 
z
" transform="scale(0.015625)"/>
       </defs>
       <use xlink:href="#DejaVuSans-32"/>
       <use xlink:href="#DejaVuSans-30" transform="translate(63.623047 0)"/>
       <use xlink:href="#DejaVuSans-32" transform="translate(127.246094 0)"/>
       <use xlink:href="#DejaVuSans-34" transform="translate(190.869141 0)"/>
       <use xlink:href="#DejaVuSans-2d" transform="translate(254.492188 0)"/>
       <use xlink:href="#DejaVuSans-30" transform="translate(290.576172 0)"/>
       <use xlink:href="#DejaVuSans-35" transform="translate(354.199219 0)"/>
      </g>
     </g>
    </g>
    <g id="xtick_3">
     <g id="line2d_3">
      <g>
       <use xlink:href="#m48d6b50f4a" x="245.606621" y="224.28" style="stroke: #000000; stroke-width: 0.8"/>
      </g>
     </g>
     <g id="text_3">
      <!-- 2024-07 -->
      <g transform="translate(224.715214 238.878438) scale(0.1 -0.1)">
       <defs>
        <path id="DejaVuSans-37" d="M 525 4666 
L 3525 4666 
L 3525 4397 
L 1831 0 
L 1172 0 
L 2766 4134 
L 525 4134 
L 525 4666 
z
" transform="scale(0.015625)"/>
       </defs>
       <use xlink:href="#DejaVuSans-32"/>
       <use xlink:href="#DejaVuSans-30" transform="translate(63.623047 0)"/>
       <use xlink:href="#DejaVuSans-32" transform="translate(127.246094 0)"/>
       <use xlink:href="#DejaVuSans-34" transform="translate(190.869141 0)"/>
       <use xlink:href="#DejaVuSans-2d" transform="translate(254.492188 0)"/>
       <use xlink:href="#DejaVuSans-30" transform="translate(290.576172 0)"/>
       <use xlink:href="#DejaVuSans-37" transform="translate(354.199219 0)"/>
      </g>
     </g>
    </g>
    <g id="xtick_4">
     <g id="line2d_4">
      <g>
       <use xlink:href="#m48d6b50f4a" x="305.431719" y="224.28" style="stroke: #000000; stroke-width: 0.8"/>
      </g>
     </g>
     <g id="text_4">
      <!-- 2024-09 -->
      <g transform="translate(284.540313 238.878438) scale(0.1 -0.1)">
       <defs>
        <path id="DejaVuSans-39" d="M 703 97 
L 703 672 
Q 941 559 1184 500 
Q 1428 441 1663 441 
Q 2288 441 2617 861 
Q 2947 1281 2994 2138 
Q 2813 1869 2534 1725 
Q 2256 1581 1919 1581 
Q 1219 1581 811 2004 
Q 403 2428 403 3163 
Q 403 3881 828 4315 
Q 1253 4750 1959 4750 
Q 2769 4750 3195 4129 
Q 3622 3509 3622 2328 
Q 3622 1225 3098 567 
Q 2575 -91 1691 -91 
Q 1453 -91 1209 -44 
Q 966 3 703 97 
z
M 1959 2075 
Q 2384 2075 2632 2365 
Q 2881 2656 2881 3163 
Q 2881 3666 2632 3958 
Q 2384 4250 1959 4250 
Q 1534 4250 1286 3958 
Q 1038 3666 1038 3163 
Q 1038 2656 1286 2365 
Q 1534 2075 1959 2075 
z
" transform="scale(0.015625)"/>
       </defs>
       <use xlink:href="#DejaVuSans-32"/>
       <use xlink:href="#DejaVuSans-30" transform="translate(63.623047 0)"/>
       <use xlink:href="#DejaVuSans-32" transform="translate(127.246094 0)"/>
       <use xlink:href="#DejaVuSans-34" transform="translate(190.869141 0)"/>
       <use xlink:href="#DejaVuSans-2d" transform="translate(254.492188 0)"/>
       <use xlink:href="#DejaVuSans-30" transform="translate(290.576172 0)"/>
       <use xlink:href="#DejaVuSans-39" transform="translate(354.199219 0)"/>
      </g>
     </g>
    </g>
    <g id="xtick_5">
     <g id="line2d_5">
      <g>
       <use xlink:href="#m48d6b50f4a" x="364.291897" y="224.28" style="stroke: #000000; stroke-width: 0.8"/>
      </g>
     </g>
     <g id="text_5">
      <!-- 2024-11 -->
      <g transform="translate(343.400491 238.878438) scale(0.1 -0.1)">
       <defs>
        <path id="DejaVuSans-31" d="M 794 531 
L 1825 531 
L 1825 4091 
L 703 3866 
L 703 4441 
L 1819 4666 
L 2450 4666 
L 2450 531 
L 3481 531 
L 3481 0 
L 794 0 
L 794 531 
z
" transform="scale(0.015625)"/>
       </defs>
       <use xlink:href="#DejaVuSans-32"/>
       <use xlink:href="#DejaVuSans-30" transform="translate(63.623047 0)"/>
       <use xlink:href="#DejaVuSans-32" transform="translate(127.246094 0)"/>
       <use xlink:href="#DejaVuSans-34" transform="translate(190.869141 0)"/>
       <use xlink:href="#DejaVuSans-2d" transform="translate(254.492188 0)"/>
       <use xlink:href="#DejaVuSans-31" transform="translate(290.576172 0)"/>
       <use xlink:href="#DejaVuSans-31" transform="translate(354.199219 0)"/>
      </g>
     </g>
    </g>
    <g id="xtick_6">
     <g id="line2d_6">
      <g>
       <use xlink:href="#m48d6b50f4a" x="423.152075" y="224.28" style="stroke: #000000; stroke-width: 0.8"/>
      </g>
     </g>
     <g id="text_6">
      <!-- 2025-01 -->
      <g transform="translate(402.260669 238.878438) scale(0.1 -0.1)">
       <use xlink:href="#DejaVuSans-32"/>
       <use xlink:href="#DejaVuSans-30" transform="translate(63.623047 0)"/>
       <use xlink:href="#DejaVuSans-32" transform="translate(127.246094 0)"/>
       <use xlink:href="#DejaVuSans-35" transform="translate(190.869141 0)"/>
       <use xlink:href="#DejaVuSans-2d" transform="translate(254.492188 0)"/>
       <use xlink:href="#DejaVuSans-30" transform="translate(290.576172 0)"/>
       <use xlink:href="#DejaVuSans-31" transform="translate(354.199219 0)"/>
      </g>
     </g>
    </g>
    <g id="xtick_7">
     <g id="line2d_7">
      <g>
       <use xlink:href="#m48d6b50f4a" x="480.082411" y="224.28" style="stroke: #000000; stroke-width: 0.8"/>
      </g>
     </g>
     <g id="text_7">
      <!-- 2025-03 -->
      <g transform="translate(459.191005 238.878438) scale(0.1 -0.1)">
       <use xlink:href="#DejaVuSans-32"/>
       <use xlink:href="#DejaVuSans-30" transform="translate(63.623047 0)"/>
       <use xlink:href="#DejaVuSans-32" transform="translate(127.246094 0)"/>
       <use xlink:href="#DejaVuSans-35" transform="translate(190.869141 0)"/>
       <use xlink:href="#DejaVuSans-2d" transform="translate(254.492188 0)"/>
       <use xlink:href="#DejaVuSans-30" transform="translate(290.576172 0)"/>
       <use xlink:href="#DejaVuSans-33" transform="translate(354.199219 0)"/>
      </g>
     </g>
    </g>
    <g id="xtick_8">
     <g id="line2d_8">
      <g>
       <use xlink:href="#m48d6b50f4a" x="538.942589" y="224.28" style="stroke: #000000; stroke-width: 0.8"/>
      </g>
     </g>
     <g id="text_8">
      <!-- 2025-05 -->
      <g transform="translate(518.051183 238.878438) scale(0.1 -0.1)">
       <use xlink:href="#DejaVuSans-32"/>
       <use xlink:href="#DejaVuSans-30" transform="translate(63.623047 0)"/>
       <use xlink:href="#DejaVuSans-32" transform="translate(127.246094 0)"/>
       <use xlink:href="#DejaVuSans-35" transform="translate(190.869141 0)"/>
       <use xlink:href="#DejaVuSans-2d" transform="translate(254.492188 0)"/>
       <use xlink:href="#DejaVuSans-30" transform="translate(290.576172 0)"/>
       <use xlink:href="#DejaVuSans-35" transform="translate(354.199219 0)"/>
      </g>
     </g>
    </g>
    <g id="xtick_9">
     <g id="line2d_9">
      <g>
       <use xlink:href="#m48d6b50f4a" x="597.802767" y="224.28" style="stroke: #000000; stroke-width: 0.8"/>
      </g>
     </g>
     <g id="text_9">
      <!-- 2025-07 -->
      <g transform="translate(576.911361 238.878438) scale(0.1 -0.1)">
       <use xlink:href="#DejaVuSans-32"/>
       <use xlink:href="#DejaVuSans-30" transform="translate(63.623047 0)"/>
       <use xlink:href="#DejaVuSans-32" transform="translate(127.246094 0)"/>
       <use xlink:href="#DejaVuSans-35" transform="translate(190.869141 0)"/>
       <use xlink:href="#DejaVuSans-2d" transform="translate(254.492188 0)"/>
       <use xlink:href="#DejaVuSans-30" transform="translate(290.576172 0)"/>
       <use xlink:href="#DejaVuSans-37" transform="translate(354.199219 0)"/>
      </g>
     </g>
    </g>
    <g id="xtick_10">
     <g id="line2d_10">
      <g>
       <use xlink:href="#m48d6b50f4a" x="657.627866" y="224.28" style="stroke: #000000; stroke-width: 0.8"/>
      </g>
     </g>
     <g id="text_10">
      <!-- 2025-09 -->
      <g transform="translate(636.736459 238.878438) scale(0.1 -0.1)">
       <use xlink:href="#DejaVuSans-32"/>
       <use xlink:href="#DejaVuSans-30" transform="translate(63.623047 0)"/>
       <use xlink:href="#DejaVuSans-32" transform="translate(127.246094 0)"/>
       <use xlink:href="#DejaVuSans-35" transform="translate(190.869141 0)"/>
       <use xlink:href="#DejaVuSans-2d" transform="translate(254.492188 0)"/>
       <use xlink:href="#DejaVuSans-30" transform="translate(290.576172 0)"/>
       <use xlink:href="#DejaVuSans-39" transform="translate(354.199219 0)"/>
      </g>
     </g>
    </g>
   </g>
   <g id="matplotlib.axis_2">
    <g id="ytick_1">
     <g id="line2d_11">
      <defs>
       <path id="m67bfc4e1e4" d="M 0 0 
L -3.5 0 
" style="stroke: #000000; stroke-width: 0.8"/>
      </defs>
      <g>
       <use xlink:href="#m67bfc4e1e4" x="94.5" y="218.697105" style="stroke: #000000; stroke-width: 0.8"/>
      </g>
     </g>
     <g id="text_11">
      <!-- 350 -->
      <g transform="translate(68.4125 222.496324) scale(0.1 -0.1)">
       <use xlink:href="#DejaVuSans-33"/>
       <use xlink:href="#DejaVuSans-35" transform="translate(63.623047 0)"/>
       <use xlink:href="#DejaVuSans-30" transform="translate(127.246094 0)"/>
      </g>
     </g>
    </g>
    <g id="ytick_2">
     <g id="line2d_12">
      <g>
       <use xlink:href="#m67bfc4e1e4" x="94.5" y="194.390409" style="stroke: #000000; stroke-width: 0.8"/>
      </g>
     </g>
     <g id="text_12">
      <!-- 375 -->
      <g transform="translate(68.4125 198.189628) scale(0.1 -0.1)">
       <use xlink:href="#DejaVuSans-33"/>
       <use xlink:href="#DejaVuSans-37" transform="translate(63.623047 0)"/>
       <use xlink:href="#DejaVuSans-35" transform="translate(127.246094 0)"/>
      </g>
     </g>
    </g>
    <g id="ytick_3">
     <g id="line2d_13">
      <g>
       <use xlink:href="#m67bfc4e1e4" x="94.5" y="170.083713" style="stroke: #000000; stroke-width: 0.8"/>
      </g>
     </g>
     <g id="text_13">
      <!-- 400 -->
      <g transform="translate(68.4125 173.882932) scale(0.1 -0.1)">
       <use xlink:href="#DejaVuSans-34"/>
       <use xlink:href="#DejaVuSans-30" transform="translate(63.623047 0)"/>
       <use xlink:href="#DejaVuSans-30" transform="translate(127.246094 0)"/>
      </g>
     </g>
    </g>
    <g id="ytick_4">
     <g id="line2d_14">
      <g>
       <use xlink:href="#m67bfc4e1e4" x="94.5" y="145.777017" style="stroke: #000000; stroke-width: 0.8"/>
      </g>
     </g>
     <g id="text_14">
      <!-- 425 -->
      <g transform="translate(68.4125 149.576236) scale(0.1 -0.1)">
       <use xlink:href="#DejaVuSans-34"/>
       <use xlink:href="#DejaVuSans-32" transform="translate(63.623047 0)"/>
       <use xlink:href="#DejaVuSans-35" transform="translate(127.246094 0)"/>
      </g>
     </g>
    </g>
    <g id="ytick_5">
     <g id="line2d_15">
      <g>
       <use xlink:href="#m67bfc4e1e4" x="94.5" y="121.470321" style="stroke: #000000; stroke-width: 0.8"/>
      </g>
     </g>
     <g id="text_15">
      <!-- 450 -->
      <g transform="translate(68.4125 125.26954) scale(0.1 -0.1)">
       <use xlink:href="#DejaVuSans-34"/>
       <use xlink:href="#DejaVuSans-35" transform="translate(63.623047 0)"/>
       <use xlink:href="#DejaVuSans-30" transform="translate(127.246094 0)"/>
      </g>
     </g>
    </g>
    <g id="ytick_6">
     <g id="line2d_16">
      <g>
       <use xlink:href="#m67bfc4e1e4" x="94.5" y="97.163625" style="stroke: #000000; stroke-width: 0.8"/>
      </g>
     </g>
     <g id="text_16">
      <!-- 475 -->
      <g transform="translate(68.4125 100.962844) scale(0.1 -0.1)">
       <use xlink:href="#DejaVuSans-34"/>
       <use xlink:href="#DejaVuSans-37" transform="translate(63.623047 0)"/>
       <use xlink:href="#DejaVuSans-35" transform="translate(127.246094 0)"/>
      </g>
     </g>
    </g>
    <g id="ytick_7">
     <g id="line2d_17">
      <g>
       <use xlink:href="#m67bfc4e1e4" x="94.5" y="72.85693" style="stroke: #000000; stroke-width: 0.8"/>
      </g>
     </g>
     <g id="text_17">
      <!-- 500 -->
      <g transform="translate(68.4125 76.656148) scale(0.1 -0.1)">
       <use xlink:href="#DejaVuSans-35"/>
       <use xlink:href="#DejaVuSans-30" transform="translate(63.623047 0)"/>
       <use xlink:href="#DejaVuSans-30" transform="translate(127.246094 0)"/>
      </g>
     </g>
    </g>
    <g id="ytick_8">
     <g id="line2d_18">
      <g>
       <use xlink:href="#m67bfc4e1e4" x="94.5" y="48.550234" style="stroke: #000000; stroke-width: 0.8"/>
      </g>
     </g>
     <g id="text_18">
      <!-- 525 -->
      <g transform="translate(68.4125 52.349452) scale(0.1 -0.1)">
       <use xlink:href="#DejaVuSans-35"/>
       <use xlink:href="#DejaVuSans-32" transform="translate(63.623047 0)"/>
       <use xlink:href="#DejaVuSans-35" transform="translate(127.246094 0)"/>
      </g>
     </g>
    </g>
   </g>
   <g id="line2d_19">
    <path d="M 121.131818 164.42751 
L 124.026581 167.119821 
L 124.991502 167.177502 
L 125.956423 166.946749 
L 126.921344 161.254347 
L 127.886265 159.465853 
L 130.781028 160.023583 
L 131.745949 171.821855 
L 132.71087 172.36027 
L 133.675791 165.581337 
L 134.640711 168.389039 
L 137.535474 170.023718 
L 138.500395 159.677409 
L 139.465316 159.850452 
L 140.430237 150.119584 
L 141.395158 158.581234 
L 144.289921 157.715842 
L 147.184684 146.129156 
L 148.149605 146.734865 
L 151.044368 152.388872 
L 152.009289 153.552341 
L 152.974209 153.763897 
L 153.93913 154.446544 
L 157.798814 150.744609 
L 158.763735 153.754254 
L 159.728656 154.706167 
L 160.693577 157.177398 
L 161.658498 149.83112 
L 164.553261 150.725352 
L 165.518182 149.100376 
L 166.483103 152.004213 
L 167.448024 147.513795 
L 168.412945 153.311945 
L 171.307708 161.254347 
L 172.272628 160.350531 
L 173.237549 162.985161 
L 174.20247 170.264114 
L 175.167391 175.216099 
L 178.062154 173.446861 
L 179.027075 167.090951 
L 179.991996 165.658334 
L 180.956917 175.293007 
L 181.921838 168.292934 
L 184.816601 172.206425 
L 185.781522 184.629751 
L 186.746443 179.235398 
L 187.711364 176.446922 
L 188.676285 167.966016 
L 191.571047 161.350482 
L 192.535968 165.389067 
L 193.500889 164.235181 
L 194.46581 162.523624 
L 195.430731 160.196686 
L 198.325494 161.177469 
L 199.290415 158.446615 
L 200.255336 151.443516 
L 201.220257 153.4568 
L 202.185178 154.208195 
L 205.079941 149.266476 
L 206.044862 145.702364 
L 207.009783 144.27666 
L 207.974704 147.667432 
L 208.939625 144.623488 
L 212.799308 144.469286 
L 213.764229 145.577092 
L 214.72915 159.544749 
L 215.694071 159.101638 
L 218.588834 160.652584 
L 219.553755 158.19616 
L 220.518676 150.547651 
L 221.483597 150.056414 
L 222.448518 150.701793 
L 225.343281 146.829368 
L 226.308202 142.195963 
L 227.273123 134.12363 
L 228.238043 133.62272 
L 229.202964 132.669056 
L 232.097727 127.081987 
L 233.062648 129.037472 
L 234.99249 129.653981 
L 235.957411 125.723785 
L 238.852174 127.756267 
L 239.817095 124.596723 
L 240.782016 123.431146 
L 241.746937 122.766481 
L 242.711858 128.449892 
L 245.606621 119.028911 
L 246.571542 116.572546 
L 247.536462 115.137288 
L 249.466304 108.596555 
L 252.361067 109.868058 
L 253.325988 116.322091 
L 254.290909 109.858474 
L 255.25583 120.984365 
L 256.220751 122.092201 
L 259.115514 121.697247 
L 260.080435 125.97424 
L 261.045356 131.753964 
L 262.975198 137.928613 
L 266.834881 130.472759 
L 267.799802 145.83719 
L 268.764723 155.951707 
L 269.729644 149.333948 
L 272.624407 147.927531 
L 273.589328 151.597628 
L 274.554249 155.999864 
L 275.51917 157.194399 
L 276.484091 165.497901 
L 279.378854 178.348108 
L 280.343775 174.051858 
L 281.308696 175.188564 
L 282.273617 171.08494 
L 283.238538 167.87721 
L 286.1333 167.116231 
L 287.098221 160.180544 
L 288.063142 157.435152 
L 289.028063 152.687275 
L 289.992984 155.157734 
L 292.887747 152.204761 
L 293.852668 149.049134 
L 294.817589 149.686028 
L 295.78251 157.975584 
L 296.747431 156.778972 
L 299.642194 159.963558 
L 300.607115 159.625811 
L 301.572036 162.752449 
L 302.536957 160.320622 
L 303.501877 156.441194 
L 307.361561 163.871886 
L 309.291403 164.88516 
L 310.256324 171.341122 
L 313.151087 167.461753 
L 315.080929 150.747547 
L 317.010771 143.46165 
L 319.905534 142.737879 
L 320.870455 139.061106 
L 321.835375 143.249323 
L 322.800296 135.644935 
L 323.765217 138.945358 
L 326.65998 140.643771 
L 327.624901 144.831958 
L 328.589822 141.994851 
L 329.554743 142.766838 
L 330.519664 145.941752 
L 333.414427 143.741509 
L 334.379348 153.015351 
L 335.344269 156.450837 
L 337.274111 157.483427 
L 340.168874 163.775366 
L 341.133794 158.786203 
L 342.098715 156.132405 
L 343.063636 157.695754 
L 344.028557 157.232527 
L 346.92332 154.511168 
L 347.888241 154.897161 
L 348.853162 157.425538 
L 349.818083 156.846504 
L 350.783004 155.45685 
L 353.677767 154.858529 
L 354.642688 146.43388 
L 355.607609 149.242116 
L 356.57253 149.116636 
L 357.537451 145.816272 
L 360.432213 147.321733 
L 361.397134 142.149172 
L 362.362055 141.589483 
L 363.326976 166.853789 
L 364.291897 162.97442 
L 367.18666 164.817628 
L 368.151581 161.922544 
L 369.116502 153.507508 
L 370.081423 148.44117 
L 371.046344 151.230061 
L 373.941107 155.601616 
L 374.906028 150.757219 
L 375.870949 148.663081 
L 376.83587 147.0322 
L 377.800791 158.506344 
L 380.695553 157.772929 
L 381.660474 155.813914 
L 382.625395 158.033502 
L 383.590316 159.764346 
L 384.555237 155.770831 
L 387.45 154.039959 
L 388.414921 145.143981 
L 389.379842 149.978764 
L 391.309684 149.52426 
L 394.204447 142.252784 
L 395.169368 142.040041 
L 396.134289 136.025587 
L 397.099209 130.997436 
L 398.06413 130.078844 
L 400.958893 127.709801 
L 401.923814 130.310932 
L 402.888735 124.83792 
L 403.853656 124.286777 
L 404.818577 126.501113 
L 407.71334 122.323874 
L 408.678261 119.548692 
L 409.643182 136.054576 
L 411.573024 136.818463 
L 414.467787 138.123879 
L 415.432708 134.1787 
L 417.362549 135.358399 
L 418.32747 142.687913 
L 421.222233 148.199586 
L 422.187154 151.419512 
L 424.116996 154.243029 
L 425.081917 149.630631 
L 427.97668 145.279341 
L 428.941601 150.578272 
L 429.906522 148.460634 
L 431.836364 153.885253 
L 434.731126 155.587077 
L 435.696047 157.056843 
L 436.660968 146.768482 
L 437.625889 148.441318 
L 438.59081 144.138363 
L 442.450494 144.650815 
L 443.415415 127.53572 
L 444.380336 127.042614 
L 445.345257 129.605023 
L 448.24002 138.791097 
L 449.204941 126.568764 
L 450.169862 131.277859 
L 451.134783 157.714388 
L 452.099704 157.646708 
L 454.994466 161.649865 
L 455.959387 160.247809 
L 456.924308 159.358205 
L 457.889229 156.91181 
L 458.85415 162.78123 
L 461.748913 160.392872 
L 462.713834 161.147086 
L 463.678755 163.467794 
L 464.643676 162.017344 
L 465.608597 164.057629 
L 469.468281 162.887602 
L 470.433202 157.927161 
L 471.398123 155.80522 
L 472.363043 163.478891 
L 475.257806 167.557917 
L 476.222727 173.468195 
L 477.187648 171.6951 
L 478.152569 178.67111 
L 479.11749 174.349876 
L 482.012253 182.585461 
L 482.977174 182.469209 
L 483.942095 170.445228 
L 484.907016 174.446723 
L 485.871937 177.915383 
L 488.7667 190.656311 
L 489.731621 190.375353 
L 490.696542 187.643075 
L 491.661462 192.003119 
L 492.626383 182.517632 
L 495.521146 182.381975 
L 496.486067 187.400869 
L 497.450988 183.234579 
L 498.415909 184.184148 
L 499.38083 179.901606 
L 502.275593 178.138243 
L 503.240514 176.122912 
L 504.205435 181.151479 
L 505.170356 180.560486 
L 506.135277 191.974041 
L 509.03004 195.277936 
L 509.99496 188.689462 
L 510.959881 188.737915 
L 511.924802 197.48705 
L 512.889723 210.34423 
L 515.784486 212.262655 
L 516.749407 215.46 
L 517.714328 180.64769 
L 518.679249 189.503345 
L 519.64417 182.624182 
L 522.538933 183.244311 
L 523.503854 185.259583 
L 524.468775 198.940378 
L 525.433696 202.651244 
L 529.293379 211.04186 
L 531.223221 196.246851 
L 532.188142 183.738456 
L 533.153063 179.32996 
L 536.047826 179.998513 
L 537.012747 177.208079 
L 537.977668 176.026036 
L 538.942589 146.823611 
L 539.90751 137.250921 
L 542.802273 136.388615 
L 543.767194 139.159644 
L 544.732115 139.120893 
L 545.697036 134.450815 
L 546.661957 133.908217 
L 549.556719 123.705813 
L 550.52164 123.822036 
L 551.486561 120.140277 
L 553.416403 118.043617 
L 556.311166 113.578538 
L 557.276087 114.25798 
L 558.241008 119.693755 
L 559.205929 117.470932 
L 560.17085 122.013661 
L 564.030534 111.811911 
L 564.995455 115.044239 
L 565.960375 113.762945 
L 566.925296 112.132242 
L 569.820059 110.569427 
L 571.749901 108.72518 
L 572.714822 105.026925 
L 573.679743 102.406092 
L 576.574506 100.10559 
L 577.539427 101.881919 
L 578.504348 100.231782 
L 579.469269 94.165078 
L 580.43419 97.960417 
L 583.328953 93.902991 
L 584.293874 94.970741 
L 585.258794 92.835271 
L 587.188636 95.591968 
L 590.083399 87.244197 
L 591.04832 83.254748 
L 592.013241 81.158088 
L 592.978162 76.129996 
L 593.943083 77.595697 
L 596.837846 76.168806 
L 597.802767 81.371632 
L 598.767688 82.303457 
L 599.732609 74.780755 
L 603.592292 75.86791 
L 604.557213 76.93566 
L 605.522134 70.247698 
L 606.487055 72.218167 
L 607.451976 70.432135 
L 610.346739 70.723358 
L 611.31166 68.005471 
L 612.276581 68.19961 
L 613.241502 62.297907 
L 614.206423 63.899532 
L 617.101186 63.88983 
L 618.066107 68.539346 
L 619.031028 67.956929 
L 619.995949 63.093869 
L 620.96087 60.346814 
L 623.855632 61.521381 
L 624.820553 61.453434 
L 625.785474 60.803099 
L 626.750395 41.137285 
L 627.715316 50.25188 
L 630.610079 39.06 
L 631.575 46.718627 
L 632.539921 49.446187 
L 633.504842 53.425934 
L 634.469763 52.261159 
L 637.364526 52.523215 
L 638.329447 45.272331 
L 639.294368 53.678317 
L 640.259289 51.834071 
L 641.224209 54.076328 
L 644.118972 57.056331 
L 645.083893 64.171321 
L 646.048814 68.102526 
L 647.013735 68.734523 
L 647.978656 65.827422 
L 650.873419 68.715059 
L 651.83834 70.873495 
L 652.803261 66.303854 
L 653.768182 63.484253 
L 653.768182 63.484253 
" clip-path="url(#paf15ce2331)" style="fill: none; stroke: #1f77b4; stroke-width: 1.5; stroke-linecap: square"/>
   </g>
   <g id="patch_3">
    <path d="M 94.5 224.28 
L 94.5 30.24 
" style="fill: none; stroke: #000000; stroke-width: 0.8; stroke-linejoin: miter; stroke-linecap: square"/>
   </g>
   <g id="patch_4">
    <path d="M 94.5 224.28 
L 680.4 224.28 
" style="fill: none; stroke: #000000; stroke-width: 0.8; stroke-linejoin: miter; stroke-linecap: square"/>
   </g>
  </g>
 </g>
 <defs>
  <clipPath id="paf15ce2331">
   <rect x="94.5" y="30.24" width="585.9" height="194.04"/>
  </clipPath>
 </defs>
</svg>
