<?xml version="1.0" encoding="utf-8" standalone="no"?>
<!DOCTYPE svg PUBLIC "-//W3C//DTD SVG 1.1//EN"
  "http://www.w3.org/Graphics/SVG/1.1/DTD/svg11.dtd">
<svg xmlns:xlink="http://www.w3.org/1999/xlink" width="756pt" height="252pt" viewBox="0 0 756 252" xmlns="http://www.w3.org/2000/svg" version="1.1">
 <metadata>
  <rdf:RDF xmlns:dc="http://purl.org/dc/elements/1.1/" xmlns:cc="http://creativecommons.org/ns#" xmlns:rdf="http://www.w3.org/1999/02/22-rdf-syntax-ns#">
   <cc:Work>
    <dc:type rdf:resource="http://purl.org/dc/dcmitype/StillImage"/>
    <dc:date>2025-09-06T14:01:17.452737</dc:date>
    <dc:format>image/svg+xml</dc:format>
    <dc:creator>
     <cc:Agent>
      <dc:title>Matplotlib v3.10.5, https://matplotlib.org/</dc:title>
     </cc:Agent>
    </dc:creator>
   </cc:Work>
  </rdf:RDF>
 </metadata>
 <defs>
  <style type="text/css">*{stroke-linejoin: round; stroke-linecap: butt}</style>
 </defs>
 <g id="figure_1">
  <g id="patch_1">
   <path d="M 0 252 
L 756 252 
L 756 0 
L 0 0 
z
" style="fill: #ffffff"/>
  </g>
  <g id="axes_1">
   <g id="patch_2">
    <path d="M 94.5 224.28 
L 680.4 224.28 
L 680.4 30.24 
L 94.5 30.24 
z
" style="fill: #ffffff"/>
   </g>
   <g id="matplotlib.axis_1">
    <g id="xtick_1">
     <g id="line2d_1">
      <defs>
       <path id="m64702b3537" d="M 0 0 
L 0 3.5 
" style="stroke: #000000; stroke-width: 0.8"/>
      </defs>
      <g>
       <use xlink:href="#m64702b3537" x="115.678204" y="224.28" style="stroke: #000000; stroke-width: 0.8"/>
      </g>
     </g>
     <g id="text_1">
      <!-- 2020 -->
      <g transform="translate(102.953204 238.878438) scale(0.1 -0.1)">
       <defs>
        <path id="DejaVuSans-32" d="M 1228 531 
L 3431 531 
L 3431 0 
L 469 0 
L 469 531 
Q 828 903 1448 1529 
Q 2069 2156 2228 2338 
Q 2531 2678 2651 2914 
Q 2772 3150 2772 3378 
Q 2772 3750 2511 3984 
Q 2250 4219 1831 4219 
Q 1534 4219 1204 4116 
Q 875 4013 500 3803 
L 500 4441 
Q 881 4594 1212 4672 
Q 1544 4750 1819 4750 
Q 2544 4750 2975 4387 
Q 3406 4025 3406 3419 
Q 3406 3131 3298 2873 
Q 3191 2616 2906 2266 
Q 2828 2175 2409 1742 
Q 1991 1309 1228 531 
z
" transform="scale(0.015625)"/>
        <path id="DejaVuSans-30" d="M 2034 4250 
Q 1547 4250 1301 3770 
Q 1056 3291 1056 2328 
Q 1056 1369 1301 889 
Q 1547 409 2034 409 
Q 2525 409 2770 889 
Q 3016 1369 3016 2328 
Q 3016 3291 2770 3770 
Q 2525 4250 2034 4250 
z
M 2034 4750 
Q 2819 4750 3233 4129 
Q 3647 3509 3647 2328 
Q 3647 1150 3233 529 
Q 2819 -91 2034 -91 
Q 1250 -91 836 529 
Q 422 1150 422 2328 
Q 422 3509 836 4129 
Q 1250 4750 2034 4750 
z
" transform="scale(0.015625)"/>
       </defs>
       <use xlink:href="#DejaVuSans-32"/>
       <use xlink:href="#DejaVuSans-30" transform="translate(63.623047 0)"/>
       <use xlink:href="#DejaVuSans-32" transform="translate(127.246094 0)"/>
       <use xlink:href="#DejaVuSans-30" transform="translate(190.869141 0)"/>
      </g>
     </g>
    </g>
    <g id="xtick_2">
     <g id="line2d_2">
      <g>
       <use xlink:href="#m64702b3537" x="210.726916" y="224.28" style="stroke: #000000; stroke-width: 0.8"/>
      </g>
     </g>
     <g id="text_2">
      <!-- 2021 -->
      <g transform="translate(198.001916 238.878438) scale(0.1 -0.1)">
       <defs>
        <path id="DejaVuSans-31" d="M 794 531 
L 1825 531 
L 1825 4091 
L 703 3866 
L 703 4441 
L 1819 4666 
L 2450 4666 
L 2450 531 
L 3481 531 
L 3481 0 
L 794 0 
L 794 531 
z
" transform="scale(0.015625)"/>
       </defs>
       <use xlink:href="#DejaVuSans-32"/>
       <use xlink:href="#DejaVuSans-30" transform="translate(63.623047 0)"/>
       <use xlink:href="#DejaVuSans-32" transform="translate(127.246094 0)"/>
       <use xlink:href="#DejaVuSans-31" transform="translate(190.869141 0)"/>
      </g>
     </g>
    </g>
    <g id="xtick_3">
     <g id="line2d_3">
      <g>
       <use xlink:href="#m64702b3537" x="305.515932" y="224.28" style="stroke: #000000; stroke-width: 0.8"/>
      </g>
     </g>
     <g id="text_3">
      <!-- 2022 -->
      <g transform="translate(292.790932 238.878438) scale(0.1 -0.1)">
       <use xlink:href="#DejaVuSans-32"/>
       <use xlink:href="#DejaVuSans-30" transform="translate(63.623047 0)"/>
       <use xlink:href="#DejaVuSans-32" transform="translate(127.246094 0)"/>
       <use xlink:href="#DejaVuSans-32" transform="translate(190.869141 0)"/>
      </g>
     </g>
    </g>
    <g id="xtick_4">
     <g id="line2d_4">
      <g>
       <use xlink:href="#m64702b3537" x="400.304949" y="224.28" style="stroke: #000000; stroke-width: 0.8"/>
      </g>
     </g>
     <g id="text_4">
      <!-- 2023 -->
      <g transform="translate(387.579949 238.878438) scale(0.1 -0.1)">
       <defs>
        <path id="DejaVuSans-33" d="M 2597 2516 
Q 3050 2419 3304 2112 
Q 3559 1806 3559 1356 
Q 3559 666 3084 287 
Q 2609 -91 1734 -91 
Q 1441 -91 1130 -33 
Q 819 25 488 141 
L 488 750 
Q 750 597 1062 519 
Q 1375 441 1716 441 
Q 2309 441 2620 675 
Q 2931 909 2931 1356 
Q 2931 1769 2642 2001 
Q 2353 2234 1838 2234 
L 1294 2234 
L 1294 2753 
L 1863 2753 
Q 2328 2753 2575 2939 
Q 2822 3125 2822 3475 
Q 2822 3834 2567 4026 
Q 2313 4219 1838 4219 
Q 1578 4219 1281 4162 
Q 984 4106 628 3988 
L 628 4550 
Q 988 4650 1302 4700 
Q 1616 4750 1894 4750 
Q 2613 4750 3031 4423 
Q 3450 4097 3450 3541 
Q 3450 3153 3228 2886 
Q 3006 2619 2597 2516 
z
" transform="scale(0.015625)"/>
       </defs>
       <use xlink:href="#DejaVuSans-32"/>
       <use xlink:href="#DejaVuSans-30" transform="translate(63.623047 0)"/>
       <use xlink:href="#DejaVuSans-32" transform="translate(127.246094 0)"/>
       <use xlink:href="#DejaVuSans-33" transform="translate(190.869141 0)"/>
      </g>
     </g>
    </g>
    <g id="xtick_5">
     <g id="line2d_5">
      <g>
       <use xlink:href="#m64702b3537" x="495.093965" y="224.28" style="stroke: #000000; stroke-width: 0.8"/>
      </g>
     </g>
     <g id="text_5">
      <!-- 2024 -->
      <g transform="translate(482.368965 238.878438) scale(0.1 -0.1)">
       <defs>
        <path id="DejaVuSans-34" d="M 2419 4116 
L 825 1625 
L 2419 1625 
L 2419 4116 
z
M 2253 4666 
L 3047 4666 
L 3047 1625 
L 3713 1625 
L 3713 1100 
L 3047 1100 
L 3047 0 
L 2419 0 
L 2419 1100 
L 313 1100 
L 313 1709 
L 2253 4666 
z
" transform="scale(0.015625)"/>
       </defs>
       <use xlink:href="#DejaVuSans-32"/>
       <use xlink:href="#DejaVuSans-30" transform="translate(63.623047 0)"/>
       <use xlink:href="#DejaVuSans-32" transform="translate(127.246094 0)"/>
       <use xlink:href="#DejaVuSans-34" transform="translate(190.869141 0)"/>
      </g>
     </g>
    </g>
    <g id="xtick_6">
     <g id="line2d_6">
      <g>
       <use xlink:href="#m64702b3537" x="590.142678" y="224.28" style="stroke: #000000; stroke-width: 0.8"/>
      </g>
     </g>
     <g id="text_6">
      <!-- 2025 -->
      <g transform="translate(577.417678 238.878438) scale(0.1 -0.1)">
       <defs>
        <path id="DejaVuSans-35" d="M 691 4666 
L 3169 4666 
L 3169 4134 
L 1269 4134 
L 1269 2991 
Q 1406 3038 1543 3061 
Q 1681 3084 1819 3084 
Q 2600 3084 3056 2656 
Q 3513 2228 3513 1497 
Q 3513 744 3044 326 
Q 2575 -91 1722 -91 
Q 1428 -91 1123 -41 
Q 819 9 494 109 
L 494 744 
Q 775 591 1075 516 
Q 1375 441 1709 441 
Q 2250 441 2565 725 
Q 2881 1009 2881 1497 
Q 2881 1984 2565 2268 
Q 2250 2553 1709 2553 
Q 1456 2553 1204 2497 
Q 953 2441 691 2322 
L 691 4666 
z
" transform="scale(0.015625)"/>
       </defs>
       <use xlink:href="#DejaVuSans-32"/>
       <use xlink:href="#DejaVuSans-30" transform="translate(63.623047 0)"/>
       <use xlink:href="#DejaVuSans-32" transform="translate(127.246094 0)"/>
       <use xlink:href="#DejaVuSans-35" transform="translate(190.869141 0)"/>
      </g>
     </g>
    </g>
   </g>
   <g id="matplotlib.axis_2">
    <g id="ytick_1">
     <g id="line2d_7">
      <defs>
       <path id="ma77d6706d0" d="M 0 0 
L -3.5 0 
" style="stroke: #000000; stroke-width: 0.8"/>
      </defs>
      <g>
       <use xlink:href="#ma77d6706d0" x="94.5" y="206.401124" style="stroke: #000000; stroke-width: 0.8"/>
      </g>
     </g>
     <g id="text_7">
      <!-- 150 -->
      <g transform="translate(68.4125 210.200343) scale(0.1 -0.1)">
       <use xlink:href="#DejaVuSans-31"/>
       <use xlink:href="#DejaVuSans-35" transform="translate(63.623047 0)"/>
       <use xlink:href="#DejaVuSans-30" transform="translate(127.246094 0)"/>
      </g>
     </g>
    </g>
    <g id="ytick_2">
     <g id="line2d_8">
      <g>
       <use xlink:href="#ma77d6706d0" x="94.5" y="184.655007" style="stroke: #000000; stroke-width: 0.8"/>
      </g>
     </g>
     <g id="text_8">
      <!-- 200 -->
      <g transform="translate(68.4125 188.454226) scale(0.1 -0.1)">
       <use xlink:href="#DejaVuSans-32"/>
       <use xlink:href="#DejaVuSans-30" transform="translate(63.623047 0)"/>
       <use xlink:href="#DejaVuSans-30" transform="translate(127.246094 0)"/>
      </g>
     </g>
    </g>
    <g id="ytick_3">
     <g id="line2d_9">
      <g>
       <use xlink:href="#ma77d6706d0" x="94.5" y="162.90889" style="stroke: #000000; stroke-width: 0.8"/>
      </g>
     </g>
     <g id="text_9">
      <!-- 250 -->
      <g transform="translate(68.4125 166.708108) scale(0.1 -0.1)">
       <use xlink:href="#DejaVuSans-32"/>
       <use xlink:href="#DejaVuSans-35" transform="translate(63.623047 0)"/>
       <use xlink:href="#DejaVuSans-30" transform="translate(127.246094 0)"/>
      </g>
     </g>
    </g>
    <g id="ytick_4">
     <g id="line2d_10">
      <g>
       <use xlink:href="#ma77d6706d0" x="94.5" y="141.162772" style="stroke: #000000; stroke-width: 0.8"/>
      </g>
     </g>
     <g id="text_10">
      <!-- 300 -->
      <g transform="translate(68.4125 144.961991) scale(0.1 -0.1)">
       <use xlink:href="#DejaVuSans-33"/>
       <use xlink:href="#DejaVuSans-30" transform="translate(63.623047 0)"/>
       <use xlink:href="#DejaVuSans-30" transform="translate(127.246094 0)"/>
      </g>
     </g>
    </g>
    <g id="ytick_5">
     <g id="line2d_11">
      <g>
       <use xlink:href="#ma77d6706d0" x="94.5" y="119.416655" style="stroke: #000000; stroke-width: 0.8"/>
      </g>
     </g>
     <g id="text_11">
      <!-- 350 -->
      <g transform="translate(68.4125 123.215874) scale(0.1 -0.1)">
       <use xlink:href="#DejaVuSans-33"/>
       <use xlink:href="#DejaVuSans-35" transform="translate(63.623047 0)"/>
       <use xlink:href="#DejaVuSans-30" transform="translate(127.246094 0)"/>
      </g>
     </g>
    </g>
    <g id="ytick_6">
     <g id="line2d_12">
      <g>
       <use xlink:href="#ma77d6706d0" x="94.5" y="97.670538" style="stroke: #000000; stroke-width: 0.8"/>
      </g>
     </g>
     <g id="text_12">
      <!-- 400 -->
      <g transform="translate(68.4125 101.469756) scale(0.1 -0.1)">
       <use xlink:href="#DejaVuSans-34"/>
       <use xlink:href="#DejaVuSans-30" transform="translate(63.623047 0)"/>
       <use xlink:href="#DejaVuSans-30" transform="translate(127.246094 0)"/>
      </g>
     </g>
    </g>
    <g id="ytick_7">
     <g id="line2d_13">
      <g>
       <use xlink:href="#ma77d6706d0" x="94.5" y="75.92442" style="stroke: #000000; stroke-width: 0.8"/>
      </g>
     </g>
     <g id="text_13">
      <!-- 450 -->
      <g transform="translate(68.4125 79.723639) scale(0.1 -0.1)">
       <use xlink:href="#DejaVuSans-34"/>
       <use xlink:href="#DejaVuSans-35" transform="translate(63.623047 0)"/>
       <use xlink:href="#DejaVuSans-30" transform="translate(127.246094 0)"/>
      </g>
     </g>
    </g>
    <g id="ytick_8">
     <g id="line2d_14">
      <g>
       <use xlink:href="#ma77d6706d0" x="94.5" y="54.178303" style="stroke: #000000; stroke-width: 0.8"/>
      </g>
     </g>
     <g id="text_14">
      <!-- 500 -->
      <g transform="translate(68.4125 57.977522) scale(0.1 -0.1)">
       <use xlink:href="#DejaVuSans-35"/>
       <use xlink:href="#DejaVuSans-30" transform="translate(63.623047 0)"/>
       <use xlink:href="#DejaVuSans-30" transform="translate(127.246094 0)"/>
      </g>
     </g>
    </g>
    <g id="ytick_9">
     <g id="line2d_15">
      <g>
       <use xlink:href="#ma77d6706d0" x="94.5" y="32.432186" style="stroke: #000000; stroke-width: 0.8"/>
      </g>
     </g>
     <g id="text_15">
      <!-- 550 -->
      <g transform="translate(68.4125 36.231405) scale(0.1 -0.1)">
       <use xlink:href="#DejaVuSans-35"/>
       <use xlink:href="#DejaVuSans-35" transform="translate(63.623047 0)"/>
       <use xlink:href="#DejaVuSans-30" transform="translate(127.246094 0)"/>
      </g>
     </g>
    </g>
   </g>
   <g id="line2d_16">
    <path d="M 121.131818 203.085485 
L 121.391514 202.663484 
L 121.65121 203.358546 
L 122.430298 204.500423 
L 123.209386 200.156329 
L 123.469082 201.211316 
L 124.248169 199.494363 
L 124.507865 197.119598 
L 124.767561 197.210609 
L 125.027257 195.667416 
L 125.286953 195.55986 
L 126.066041 193.569833 
L 126.325737 195.332305 
L 126.585433 195.220602 
L 126.845129 195.634334 
L 127.104825 194.955803 
L 128.403304 193.945698 
L 128.663 195.132192 
L 128.922696 197.550784 
L 129.96148 201.915032 
L 130.221176 201.043853 
L 130.480872 206.017932 
L 131.519656 199.956946 
L 131.779352 203.391907 
L 132.039047 200.886186 
L 133.337527 209.15425 
L 133.597223 204.881245 
L 133.856919 207.905527 
L 134.116615 213.949936 
L 134.376311 205.748283 
L 135.155399 215.46 
L 135.415095 210.834371 
L 135.674791 213.394033 
L 135.934487 212.435718 
L 136.194182 214.659346 
L 136.97327 215.227687 
L 137.232966 210.100094 
L 137.492662 210.689193 
L 137.752358 206.876675 
L 138.012054 209.535908 
L 138.791142 205.167486 
L 139.050838 206.212916 
L 139.310534 208.536097 
L 139.57023 207.229312 
L 139.829926 207.822539 
L 140.609013 203.076625 
L 140.868709 203.815056 
L 141.128405 203.1347 
L 141.388101 203.130566 
L 142.426885 202.977066 
L 142.686581 199.579428 
L 142.946277 200.334443 
L 143.205973 198.193803 
L 143.465669 197.546623 
L 144.244756 199.015209 
L 144.504452 202.018752 
L 144.764148 199.654094 
L 145.023844 200.525286 
L 145.28354 199.226784 
L 146.062628 199.434204 
L 146.322324 201.193192 
L 146.58202 198.031988 
L 146.841716 197.29357 
L 147.101412 199.218481 
L 148.140195 196.650544 
L 148.659587 195.47238 
L 148.919283 195.024304 
L 149.698371 194.16973 
L 150.217763 197.069533 
L 150.477459 196.745956 
L 150.737155 195.6549 
L 151.516243 194.928913 
L 151.775939 195.45991 
L 152.035635 194.403238 
L 152.29533 195.330958 
L 152.555026 195.297663 
L 153.59381 196.104715 
L 153.853506 196.00489 
L 154.113202 196.175445 
L 154.372898 195.40585 
L 155.151986 195.580566 
L 155.411682 194.715267 
L 155.671378 194.528055 
L 155.931074 195.543117 
L 156.190769 193.7626 
L 156.969857 193.280016 
L 157.229553 192.680969 
L 157.489249 189.752277 
L 157.748945 194.149475 
L 158.008641 193.537959 
L 158.787729 193.038743 
L 159.047425 191.112598 
L 159.307121 190.833883 
L 159.566817 189.968577 
L 159.826513 190.455323 
L 160.865296 187.643107 
L 161.124992 189.336269 
L 161.384688 188.296241 
L 161.644384 189.964443 
L 162.423472 189.086661 
L 162.683168 186.977504 
L 164.241343 183.986397 
L 164.501039 185.005601 
L 164.760735 183.10028 
L 165.020431 182.480428 
L 165.280127 182.750841 
L 166.059215 185.496494 
L 166.318911 184.963984 
L 166.578607 185.092975 
L 166.838303 186.806942 
L 167.097999 187.239562 
L 167.877087 183.611986 
L 168.136783 184.797616 
L 168.396478 183.549584 
L 168.656174 187.38103 
L 168.91587 187.896869 
L 169.694958 186.836043 
L 169.954654 187.597336 
L 170.21435 186.748695 
L 170.474046 186.815238 
L 170.733742 186.353478 
L 171.51283 181.556875 
L 171.772526 182.908927 
L 172.032222 183.054522 
L 172.291917 181.635941 
L 172.551613 183.245896 
L 173.330701 185.005601 
L 173.590397 187.031584 
L 173.850093 184.614551 
L 174.109789 184.818395 
L 174.369485 184.735208 
L 175.148573 184.161114 
L 175.408269 183.657737 
L 175.667965 184.191515 
L 175.927661 182.15648 
L 176.187357 182.807032 
L 176.966444 182.527626 
L 177.22614 181.368336 
L 178.005228 176.180664 
L 178.784316 177.59018 
L 179.044012 176.864577 
L 179.303708 175.038037 
L 179.563404 181.022201 
L 180.861883 187.1273 
L 181.121579 183.528467 
L 181.381275 185.997203 
L 181.640971 186.55598 
L 182.420059 185.980519 
L 182.679755 184.575165 
L 183.199147 187.023043 
L 183.458843 188.073928 
L 184.23793 187.177345 
L 184.497626 185.142304 
L 184.757322 187.990535 
L 185.017018 186.906269 
L 185.276714 184.975491 
L 186.055802 184.299927 
L 186.315498 185.209033 
L 186.83489 183.040559 
L 187.094586 185.655223 
L 187.873674 183.907935 
L 188.13337 185.772011 
L 188.393065 184.137309 
L 188.652761 183.824549 
L 188.912457 181.643547 
L 189.951241 178.703593 
L 190.470633 180.038065 
L 190.730329 180.038065 
L 191.509417 182.306601 
L 192.028809 182.064725 
L 192.288504 182.027196 
L 192.5482 181.468412 
L 193.327288 184.033025 
L 193.586984 182.711103 
L 193.84668 187.118978 
L 194.106376 186.268253 
L 194.366072 187.206532 
L 195.14516 187.264919 
L 195.404856 185.555153 
L 195.924248 178.524311 
L 196.183944 178.344963 
L 196.963031 180.567655 
L 197.222727 183.645234 
L 197.482423 181.334948 
L 197.742119 181.797849 
L 198.001815 181.351645 
L 198.780903 181.051388 
L 199.300295 183.385585 
L 199.559991 182.825328 
L 199.819687 183.674082 
L 200.598774 183.791148 
L 200.85847 182.223255 
L 201.118166 182.219081 
L 201.637558 181.650455 
L 202.416646 182.135442 
L 202.676342 181.240698 
L 203.195734 182.064367 
L 203.45543 182.014196 
L 204.234518 182.043455 
L 204.494213 181.324323 
L 204.753909 183.084545 
L 205.013605 183.61973 
L 205.273301 182.474097 
L 206.052389 182.081097 
L 206.312085 182.110363 
L 206.571781 179.957114 
L 206.831477 179.898575 
L 207.091173 180.245618 
L 208.129957 178.008737 
L 208.389652 179.229613 
L 208.649348 178.506274 
L 209.688132 177.582256 
L 209.947828 177.920938 
L 210.207524 178.953659 
L 210.46722 178.644277 
L 211.506004 180.621914 
L 211.7657 180.534102 
L 212.025396 182.89641 
L 212.285092 180.371039 
L 212.544787 179.814956 
L 213.323875 180.70552 
L 213.583571 181.775883 
L 213.843267 181.186346 
L 214.102963 182.574459 
L 214.362659 182.72916 
L 215.401443 181.144537 
L 215.661139 177.841507 
L 216.180531 177.168358 
L 216.959618 175.67154 
L 217.219314 174.500822 
L 217.47901 174.262496 
L 217.738706 171.741325 
L 217.998402 174.655509 
L 218.77749 171.440299 
L 219.037186 171.498832 
L 219.296882 170.039629 
L 219.556578 170.453561 
L 219.816274 170.374123 
L 220.595361 170.261231 
L 220.855057 169.717691 
L 221.114753 170.114879 
L 221.374449 169.416638 
L 221.634145 169.207605 
L 222.672929 169.746958 
L 222.932625 169.302751 
L 223.192321 169.474574 
L 223.452017 170.656349 
L 224.4908 173.88318 
L 224.750496 173.34676 
L 225.010192 175.676803 
L 225.269888 174.256145 
L 226.048976 172.345183 
L 226.308672 173.631727 
L 226.568368 176.276056 
L 226.828064 176.623889 
L 227.08776 174.58302 
L 227.866848 176.347311 
L 228.126544 173.669455 
L 228.38624 174.239388 
L 228.645935 172.265567 
L 228.905631 172.843888 
L 229.684719 173.237818 
L 229.944415 172.022496 
L 230.204111 172.303288 
L 230.463807 174.951798 
L 230.723503 175.106843 
L 231.762287 172.076987 
L 232.021983 172.965414 
L 232.281679 174.272902 
L 232.541374 172.537964 
L 233.320462 173.057606 
L 233.580158 174.478238 
L 233.839854 172.835493 
L 234.09955 170.078014 
L 235.138334 167.261863 
L 235.39803 167.768942 
L 235.657726 166.914056 
L 236.177118 164.420566 
L 236.956205 164.395454 
L 237.215901 163.314253 
L 237.475597 164.529549 
L 237.735293 162.890985 
L 237.994989 162.371336 
L 239.033773 163.410634 
L 239.293469 162.438403 
L 239.553165 163.867396 
L 239.812861 162.1995 
L 240.591948 162.031898 
L 240.851644 161.855874 
L 241.11134 164.961186 
L 241.371036 165.820267 
L 241.630732 165.958562 
L 242.40982 166.092677 
L 242.669516 167.798289 
L 242.929212 168.351445 
L 243.448604 165.841231 
L 244.227692 168.053935 
L 244.487388 168.452039 
L 244.747083 171.481896 
L 245.266475 167.647424 
L 246.045563 168.892065 
L 246.305259 169.772096 
L 246.564955 169.52008 
L 246.824651 168.108765 
L 247.084347 168.659015 
L 247.863435 166.302593 
L 248.123131 165.907761 
L 248.382827 166.004373 
L 248.642522 166.920055 
L 248.902218 166.764638 
L 249.941002 167.722309 
L 250.200698 167.764304 
L 250.460394 168.43219 
L 250.72009 166.298398 
L 251.499178 165.029886 
L 251.758874 165.55071 
L 252.01857 165.122291 
L 252.278266 163.589153 
L 253.317049 162.476038 
L 253.836441 163.530354 
L 254.096137 162.051813 
L 254.355833 162.669263 
L 255.134921 161.325155 
L 255.394617 160.115448 
L 255.654313 160.216255 
L 255.914009 159.619789 
L 256.173705 160.321262 
L 256.952792 158.767133 
L 257.212488 157.641455 
L 257.472184 157.851471 
L 257.73188 157.557426 
L 257.991576 155.01622 
L 259.03036 155.011972 
L 259.290056 154.058523 
L 259.549752 155.112779 
L 259.809448 154.894389 
L 260.588536 155.154801 
L 260.848231 153.617481 
L 261.107927 152.974827 
L 261.367623 153.596484 
L 261.627319 153.714081 
L 262.406407 155.285033 
L 262.925799 153.441046 
L 263.445191 149.967335 
L 264.224279 150.227787 
L 264.483975 151.28207 
L 264.74367 151.416483 
L 265.003366 151.29886 
L 265.263062 151.96672 
L 266.04215 152.004534 
L 266.301846 151.038448 
L 266.561542 151.294692 
L 266.821238 150.030341 
L 267.080934 150.055573 
L 267.860022 150.530247 
L 268.119718 151.324078 
L 268.379414 151.109856 
L 268.898805 148.631642 
L 269.677893 147.896583 
L 270.197285 149.288287 
L 270.716677 143.552284 
L 271.495765 143.430254 
L 271.755461 144.284529 
L 272.015157 144.541238 
L 272.274853 145.770098 
L 272.534549 145.505001 
L 273.313636 143.876338 
L 273.573332 144.595949 
L 273.833028 144.617026 
L 274.092724 144.903174 
L 274.35242 144.907394 
L 275.6509 145.298782 
L 275.910596 146.544472 
L 276.170292 147.192568 
L 276.949379 146.653879 
L 277.209075 145.475496 
L 277.468771 143.358687 
L 277.728467 143.190348 
L 277.988163 145.441836 
L 278.767251 147.785954 
L 279.026947 147.575528 
L 279.286643 145.984746 
L 279.546339 145.572281 
L 279.806035 145.660691 
L 280.585123 147.840638 
L 280.844818 152.322603 
L 281.104514 152.120564 
L 281.36421 152.995931 
L 281.623906 149.974303 
L 282.402994 152.495135 
L 282.922386 148.286776 
L 283.182082 147.55445 
L 283.441778 147.55445 
L 284.220866 147.815393 
L 284.480562 148.383534 
L 284.740258 146.940027 
L 284.999953 144.229832 
L 285.259649 143.615422 
L 286.298433 141.923608 
L 286.558129 142.268726 
L 286.817825 140.858879 
L 287.077521 141.532233 
L 287.856609 141.965696 
L 288.116305 141.132457 
L 288.376001 135.636227 
L 288.635697 135.139639 
L 288.895392 132.080145 
L 289.67448 133.027038 
L 289.934176 131.444671 
L 290.193872 131.078541 
L 290.453568 130.051666 
L 290.713264 130.21159 
L 291.492352 129.820242 
L 291.752048 130.257899 
L 292.011744 132.425224 
L 292.27144 131.73926 
L 292.531136 129.933831 
L 293.310223 130.207396 
L 293.569919 128.759694 
L 293.829615 128.662723 
L 294.349007 126.980518 
L 295.128095 128.363396 
L 295.387791 129.269834 
L 295.647487 129.172902 
L 296.166879 132.642712 
L 296.945966 129.712534 
L 297.205662 132.259075 
L 297.725054 132.722866 
L 297.98475 135.454868 
L 298.763838 134.114185 
L 299.023534 130.433524 
L 299.28323 130.412407 
L 299.542926 131.200823 
L 299.802622 127.220809 
L 300.58171 128.544675 
L 300.841406 133.207734 
L 301.101101 130.547325 
L 301.360797 134.658037 
L 301.620493 135.121827 
L 302.399581 136.761891 
L 302.918973 131.158682 
L 303.178669 130.530469 
L 304.217453 127.258756 
L 304.477149 127.764727 
L 304.736845 127.469567 
L 305.256236 129.843244 
L 306.035324 130.505171 
L 306.29502 132.925223 
L 306.554716 138.250181 
L 306.814412 139.304212 
L 307.853196 139.139789 
L 308.112892 138.840421 
L 308.372588 137.453337 
L 308.632284 143.132452 
L 308.89198 140.855746 
L 309.930763 144.03889 
L 310.190459 143.752198 
L 310.450155 144.481577 
L 310.709851 146.829929 
L 311.488939 146.686583 
L 311.748635 150.008879 
L 312.008331 146.543264 
L 312.268027 145.223618 
L 312.527723 141.673642 
L 313.30681 140.526874 
L 313.566506 141.46287 
L 313.826202 139.481284 
L 314.085898 144.629157 
L 314.345594 142.651752 
L 315.124682 144.755607 
L 315.384378 143.233617 
L 315.644074 140.429889 
L 316.163466 147.247345 
L 316.942554 147.264215 
L 317.202249 144.95799 
L 317.461945 145.105862 
L 317.721641 148.811037 
L 317.981337 149.994 
L 319.020121 150.082729 
L 319.279817 153.230208 
L 319.539513 147.180225 
L 319.799209 146.031094 
L 320.578297 145.405827 
L 320.837993 147.028145 
L 321.097688 144.814352 
L 322.655864 155.097569 
L 322.91556 149.753205 
L 323.175256 150.98261 
L 323.434952 153.314703 
L 324.21404 154.848332 
L 324.733432 147.264759 
L 324.993128 146.914066 
L 325.252823 144.712948 
L 326.031911 145.249513 
L 326.291607 143.179358 
L 326.551303 145.110083 
L 326.810999 143.162436 
L 327.070695 143.339879 
L 327.849783 140.374091 
L 328.109479 138.384156 
L 328.369175 139.039009 
L 328.628871 141.383791 
L 328.888567 140.914837 
L 329.667654 138.570068 
L 329.92735 140.297998 
L 330.187046 145.105862 
L 330.446742 144.31584 
L 331.485526 151.122014 
L 331.745222 152.473979 
L 332.004918 150.124976 
L 332.264614 153.416107 
L 333.303397 153.124584 
L 333.563093 151.105131 
L 333.822789 150.657294 
L 334.342181 155.866487 
L 335.121269 153.040089 
L 335.380965 157.47617 
L 335.640661 151.983895 
L 335.900357 149.275784 
L 336.160053 154.392014 
L 336.939141 151.455811 
L 337.198836 152.592266 
L 337.458532 149.127898 
L 337.718228 154.46386 
L 337.977924 155.57077 
L 338.757012 159.858991 
L 339.016708 157.780342 
L 339.5361 163.758487 
L 339.795796 161.320769 
L 340.574884 161.160208 
L 340.83458 158.912589 
L 341.094276 164.045013 
L 341.613667 164.688683 
L 342.392755 161.262853 
L 342.652451 161.699023 
L 343.171843 159.039663 
L 343.431539 155.931417 
L 344.470323 156.511531 
L 344.730019 156.278633 
L 344.989715 155.36398 
L 345.24941 157.294956 
L 346.028498 157.832756 
L 346.288194 156.244761 
L 346.54789 157.12979 
L 346.807586 159.509678 
L 347.067282 164.506593 
L 347.84637 169.050402 
L 348.106066 168.106064 
L 348.365762 165.027464 
L 348.625458 167.902805 
L 348.885154 166.767923 
L 349.923937 164.189009 
L 350.183633 164.447317 
L 350.443329 162.020868 
L 350.703025 158.277381 
L 351.482113 159.467338 
L 351.741809 163.028703 
L 352.001505 161.427986 
L 352.261201 162.880493 
L 352.520897 161.715939 
L 353.55968 160.331217 
L 354.079072 157.981013 
L 354.338768 158.294343 
L 355.117856 159.628271 
L 355.377552 164.218647 
L 355.637248 164.620938 
L 355.896944 164.045013 
L 356.15664 162.92706 
L 356.935728 163.973028 
L 357.195424 161.737116 
L 357.714815 159.488535 
L 357.974511 161.385659 
L 358.753599 162.03355 
L 359.013295 164.968168 
L 359.272991 157.837003 
L 359.532687 154.588996 
L 359.792383 152.755415 
L 360.571471 153.911447 
L 360.831167 155.26231 
L 361.090863 152.022837 
L 361.350558 151.523104 
L 362.389342 152.93323 
L 362.649038 152.094802 
L 362.908734 149.189803 
L 363.16843 150.096041 
L 363.428126 148.025262 
L 364.207214 147.36465 
L 364.986302 148.501277 
L 365.245998 150.207254 
L 366.025085 153.77191 
L 366.284781 154.327814 
L 366.544477 154.603675 
L 366.804173 153.30512 
L 367.063869 157.871274 
L 367.842957 159.084976 
L 368.362349 160.680576 
L 368.622045 161.134664 
L 368.881741 162.976388 
L 369.920524 164.168854 
L 370.18022 162.114945 
L 370.439916 161.932445 
L 370.699612 159.411752 
L 371.4787 158.482339 
L 371.738396 164.703561 
L 371.998092 164.60596 
L 372.257788 167.508623 
L 372.517484 167.780218 
L 373.296572 167.873572 
L 373.556267 168.752024 
L 373.815963 170.237294 
L 374.075659 169.375831 
L 374.335355 170.674393 
L 375.114443 170.87385 
L 375.374139 171.315189 
L 375.633835 169.337632 
L 376.153227 172.8047 
L 376.932315 169.47768 
L 377.192011 166.02334 
L 377.451706 165.887553 
L 377.711402 166.910273 
L 377.971098 172.236055 
L 378.750186 174.353647 
L 379.009882 175.983212 
L 379.269578 175.838923 
L 379.529274 172.236055 
L 379.78897 174.646451 
L 380.568058 170.839891 
L 380.827754 170.428263 
L 381.08745 171.285478 
L 381.347146 171.425526 
L 381.606841 168.892065 
L 382.385929 166.715071 
L 382.645625 165.267966 
L 382.905321 173.475201 
L 383.165017 175.41456 
L 383.424713 171.544331 
L 384.203801 173.131456 
L 384.463497 174.811956 
L 384.982889 180.719138 
L 385.242585 177.689142 
L 386.021672 174.939261 
L 386.281368 174.514904 
L 386.541064 176.365129 
L 386.80076 168.527103 
L 387.060456 166.77448 
L 387.839544 169.133948 
L 388.358936 168.768469 
L 388.618632 168.789745 
L 388.878328 168.985492 
L 389.657415 168.63227 
L 390.176807 166.278921 
L 390.696199 166.317226 
L 391.734983 169.364257 
L 391.994679 163.061686 
L 392.254375 163.253185 
L 392.514071 163.112746 
L 393.293159 165.163961 
L 393.552854 167.325818 
L 393.81255 167.644981 
L 394.072246 166.355544 
L 394.331942 167.198147 
L 395.11103 164.180913 
L 395.370726 162.304189 
L 395.630422 162.176518 
L 395.890118 165.670377 
L 396.149814 167.508803 
L 396.928902 169.31319 
L 397.188598 168.738678 
L 397.448294 167.619451 
L 397.707989 170.274955 
L 397.967685 170.045151 
L 399.006469 170.798394 
L 399.266165 171.832516 
L 399.525861 169.074871 
L 399.785557 169.58128 
L 400.824341 169.683414 
L 401.343733 177.032889 
L 401.603428 175.917903 
L 402.382516 174.985922 
L 402.642212 174.249694 
L 402.901908 171.304817 
L 403.161604 170.13877 
L 403.4213 169.832361 
L 404.460084 169.355736 
L 404.979476 172.938974 
L 405.239172 169.411064 
L 406.018259 168.406739 
L 406.277955 168.636544 
L 406.537651 169.245094 
L 406.797347 166.100196 
L 407.057043 166.032107 
L 407.836131 168.351405 
L 408.355523 164.078785 
L 408.615219 159.035867 
L 408.874915 161.695632 
L 409.654002 162.368024 
L 409.913698 157.776214 
L 410.173394 158.129416 
L 410.43309 159.452924 
L 410.692786 159.674221 
L 411.471874 156.176088 
L 411.73157 155.814378 
L 411.991266 156.740154 
L 412.250962 159.799065 
L 412.510658 161.543977 
L 413.809137 164.338381 
L 414.068833 162.94758 
L 414.328529 165.315363 
L 415.107617 164.91434 
L 415.367313 165.230039 
L 415.627009 166.573915 
L 416.146401 162.725732 
L 416.925489 162.051661 
L 417.185185 163.21208 
L 417.444881 163.404077 
L 417.704576 163.992818 
L 417.964272 165.584144 
L 418.74336 163.310219 
L 419.782144 152.42694 
L 420.561232 155.498672 
L 420.820928 154.837369 
L 421.080624 155.473055 
L 421.34032 153.182095 
L 421.600016 151.940586 
L 422.638799 154.218765 
L 423.158191 150.455933 
L 423.417887 148.642765 
L 424.196975 149.099256 
L 424.456671 149.120612 
L 424.716367 150.332204 
L 424.976063 147.234882 
L 426.014846 148.177727 
L 426.274542 150.976398 
L 426.534238 150.694829 
L 426.793934 147.985763 
L 427.05363 149.564267 
L 427.832718 148.429445 
L 428.092414 148.612901 
L 428.35211 148.578764 
L 428.611806 149.577062 
L 428.871502 149.726368 
L 429.65059 151.428628 
L 429.910285 154.137708 
L 430.169981 145.6265 
L 430.429677 141.590607 
L 430.689373 140.55387 
L 431.468461 141.279175 
L 431.728157 141.343163 
L 431.987853 141.774063 
L 432.247549 141.343163 
L 432.507245 139.107629 
L 433.286333 139.960922 
L 433.546029 140.664831 
L 433.805724 138.399447 
L 434.06542 139.338031 
L 434.325116 139.824372 
L 435.104204 139.615313 
L 435.623596 137.385579 
L 435.883292 135.45301 
L 436.142988 135.529978 
L 436.922076 134.315705 
L 437.181772 136.846837 
L 437.441468 137.449726 
L 437.960859 129.308988 
L 438.999643 130.027271 
L 439.259339 131.23297 
L 439.778731 128.235791 
L 440.557819 128.004898 
L 440.817515 128.971196 
L 441.077211 133.37505 
L 441.596603 131.917089 
L 442.635386 128.710386 
L 442.895082 127.406322 
L 443.154778 122.805792 
L 443.414474 125.27283 
L 444.453258 127.102761 
L 444.712954 129.022495 
L 444.97265 126.393012 
L 445.232346 128.39825 
L 446.011433 131.14322 
L 446.271129 128.590679 
L 446.530825 128.043402 
L 446.790521 128.385429 
L 447.050217 126.038138 
L 447.829305 127.128417 
L 448.348697 127.060009 
L 448.608393 125.726029 
L 448.868089 127.457662 
L 449.647177 129.7622 
L 449.906872 129.488542 
L 450.68596 124.028613 
L 451.465048 123.819089 
L 451.724744 117.935878 
L 451.98444 119.821435 
L 452.244136 123.331673 
L 452.503832 124.657132 
L 453.28292 124.084213 
L 453.542616 121.574397 
L 453.802312 127.222481 
L 454.062007 130.236782 
L 454.321703 126.965932 
L 455.100791 128.013472 
L 455.360487 127.833892 
L 455.620183 131.613527 
L 455.879879 131.972662 
L 456.139575 131.493807 
L 456.918663 130.497592 
L 457.438055 133.866754 
L 457.697751 133.567466 
L 457.957446 134.388387 
L 458.736534 133.092871 
L 458.99623 134.024978 
L 459.255926 134.35916 
L 459.515622 135.867359 
L 459.775318 136.038737 
L 460.554406 133.725027 
L 460.814102 133.476521 
L 461.073798 131.531276 
L 461.333494 134.5434 
L 461.59319 133.253711 
L 462.372277 132.945211 
L 462.631973 130.927139 
L 462.891669 130.764322 
L 463.151365 131.205655 
L 463.411061 130.820054 
L 464.449845 128.724867 
L 464.709541 129.011904 
L 464.969237 130.284444 
L 465.228933 128.416367 
L 466.00802 126.843875 
L 466.267716 129.487534 
L 466.787108 126.518241 
L 467.046804 130.151637 
L 468.085588 130.824315 
L 468.345284 134.200644 
L 468.60498 134.731913 
L 468.864676 135.81164 
L 469.643764 135.584569 
L 469.90346 137.89828 
L 470.422851 137.255559 
L 471.461635 133.75931 
L 471.721331 137.362697 
L 471.981027 134.976145 
L 472.240723 134.804767 
L 472.500419 131.419864 
L 473.279507 130.323002 
L 473.539203 130.9357 
L 473.798899 129.209018 
L 474.058594 129.748875 
L 474.31829 131.218516 
L 475.097378 129.114715 
L 475.357074 129.363261 
L 475.61677 130.198755 
L 475.876466 129.680321 
L 476.136162 131.672671 
L 477.174946 130.018816 
L 477.434642 125.674159 
L 477.694338 131.149936 
L 477.954034 130.327302 
L 478.733121 127.113804 
L 478.992817 126.771034 
L 479.252513 123.360448 
L 479.512209 122.39642 
L 479.771905 120.476871 
L 480.550993 118.878696 
L 481.070385 116.020842 
L 481.330081 117.096295 
L 481.589777 113.248663 
L 482.368864 114.529765 
L 482.62856 112.991609 
L 482.888256 112.927196 
L 483.147952 110.136502 
L 483.407648 112.849896 
L 484.186736 109.591256 
L 484.446432 111.467443 
L 484.706128 109.415246 
L 485.22552 109.595557 
L 486.004608 109.088935 
L 486.264303 107.332947 
L 486.523999 108.985898 
L 486.783695 108.960123 
L 487.043391 110.84921 
L 487.822479 113.154745 
L 488.082175 111.703606 
L 488.341871 113.300732 
L 488.601567 112.377637 
L 488.861263 110.969435 
L 489.640351 112.227389 
L 489.900047 110.905022 
L 490.159742 110.909323 
L 490.419438 114.53291 
L 490.679134 112.472086 
L 491.717918 111.385869 
L 491.977614 112.519311 
L 492.23731 111.265657 
L 492.497006 110.819161 
L 493.53579 110.784824 
L 493.795486 111.038095 
L 494.314877 110.192327 
L 495.353661 112.412 
L 495.613357 112.527898 
L 495.873053 113.669954 
L 496.132749 113.751515 
L 496.911837 110.771923 
L 497.171533 110.299651 
L 497.431229 107.302924 
L 497.690925 106.50434 
L 497.950621 104.855689 
L 498.989404 104.082895 
L 499.2491 104.426368 
L 499.768492 100.476482 
L 500.54758 101.403851 
L 500.807276 100.377733 
L 501.326668 97.8146 
L 501.586364 98.218186 
L 502.365451 95.732327 
L 502.625147 96.217461 
L 502.884843 100.944467 
L 503.404235 95.088306 
L 504.183323 97.479715 
L 504.443019 97.548402 
L 504.702715 93.873316 
L 504.962411 93.847553 
L 505.222107 91.082635 
L 506.001195 93.353819 
L 506.26089 97.192067 
L 506.520586 95.50596 
L 507.039978 97.841571 
L 508.078762 98.387825 
L 508.338458 98.650201 
L 508.598154 94.576892 
L 508.85785 95.140348 
L 509.636938 96.344707 
L 509.896634 96.370509 
L 510.15633 96.267287 
L 510.416025 93.720931 
L 510.675721 92.920875 
L 511.454809 93.17035 
L 511.714505 98.448044 
L 511.974201 98.688905 
L 512.233897 95.656513 
L 512.493593 96.912476 
L 513.272681 97.6437 
L 513.532377 93.015523 
L 513.792073 93.09293 
L 514.051769 88.740016 
L 514.311464 92.525147 
L 515.090552 92.138046 
L 515.86964 86.955 
L 516.129336 87.225977 
L 517.16812 90.275597 
L 517.427816 90.370232 
L 517.687512 90.675599 
L 518.726295 89.019594 
L 518.985991 90.365892 
L 519.245687 90.791735 
L 519.505383 91.897172 
L 519.765079 88.611005 
L 520.544167 89.010993 
L 520.803863 88.284096 
L 521.063559 89.583063 
L 521.323255 87.574401 
L 521.582951 90.168061 
L 522.362038 93.720931 
L 522.621734 93.316602 
L 522.88143 94.495159 
L 523.400822 99.966396 
L 524.17991 99.174941 
L 524.439606 96.331792 
L 524.699302 95.690916 
L 524.958998 100.000813 
L 525.218694 96.869459 
L 525.997782 98.620112 
L 526.257478 104.177371 
L 526.517173 101.76434 
L 526.776869 100.516951 
L 527.036565 96.723233 
L 527.815653 93.763935 
L 528.075349 95.570492 
L 528.335045 95.054327 
L 528.854437 93.247783 
L 529.633525 93.686528 
L 529.893221 92.464941 
L 530.152917 89.332287 
L 530.412612 90.232872 
L 530.672308 90.568965 
L 531.451396 88.358411 
L 531.711092 86.764072 
L 531.970788 86.126328 
L 532.230484 87.643114 
L 532.49018 86.28146 
L 533.528964 86.212521 
L 533.78866 86.708047 
L 534.048356 92.95618 
L 534.308052 92.757951 
L 535.087139 93.451719 
L 535.346835 92.352919 
L 535.606531 88.931503 
L 535.866227 88.711772 
L 536.125923 89.000468 
L 536.905011 87.268238 
L 537.164707 85.195588 
L 537.424403 81.584596 
L 537.684099 81.360525 
L 537.943795 80.933925 
L 538.722882 78.434687 
L 538.982578 79.309417 
L 539.50197 79.585198 
L 539.761666 77.8271 
L 540.540754 78.736298 
L 540.80045 77.32296 
L 541.319842 76.504228 
L 541.579538 79.046562 
L 542.618321 73.73351 
L 542.878017 73.091466 
L 543.397409 70.165641 
L 544.176497 70.734406 
L 544.436193 73.621474 
L 544.695889 70.730106 
L 544.955585 75.707052 
L 545.215281 76.202605 
L 545.994369 76.025931 
L 547.033152 83.286684 
L 548.071936 79.951461 
L 548.591328 91.3489 
L 548.851024 88.388593 
L 549.630112 87.759463 
L 550.149504 91.370455 
L 550.4092 91.904777 
L 550.668895 95.619164 
L 551.447983 101.367457 
L 551.707679 99.445599 
L 551.967375 99.954066 
L 552.486767 96.683508 
L 553.265855 96.343101 
L 553.525551 93.240576 
L 553.785247 92.012499 
L 554.044943 89.888629 
L 554.304639 90.993721 
L 555.083726 89.672787 
L 555.343422 88.261188 
L 555.603118 88.546075 
L 555.862814 92.254236 
L 556.12251 91.718945 
L 556.901598 93.143512 
L 557.161294 92.992415 
L 557.42099 94.391047 
L 557.680686 93.303237 
L 557.940382 91.567861 
L 558.979165 94.891802 
L 559.498557 95.345081 
L 559.758253 98.233025 
L 560.537341 96.497649 
L 561.056733 89.020935 
L 561.576125 85.761751 
L 562.355213 85.437988 
L 562.614908 83.793279 
L 562.874604 85.666785 
L 563.1343 82.265131 
L 563.393996 83.741475 
L 564.173084 84.501222 
L 564.43278 86.374728 
L 564.692476 85.105598 
L 564.952172 85.450943 
L 565.211868 86.87117 
L 565.990956 85.88694 
L 566.250652 90.035386 
L 566.510348 91.572161 
L 567.029739 92.034081 
L 567.808827 94.848653 
L 568.068523 92.616848 
L 568.328219 91.429718 
L 568.587915 92.129047 
L 568.847611 91.921846 
L 569.626699 90.704493 
L 569.886395 90.877172 
L 570.146091 92.008185 
L 570.405787 91.749167 
L 570.665482 91.127537 
L 571.44457 90.859904 
L 571.704266 87.091325 
L 571.963962 88.347514 
L 572.223658 88.291396 
L 572.483354 86.815052 
L 573.262442 87.48846 
L 573.522138 85.174657 
L 573.781834 84.924279 
L 574.04153 96.225703 
L 574.301226 94.490341 
L 575.080313 95.314859 
L 575.340009 94.019807 
L 575.859401 87.989228 
L 576.119097 89.236777 
L 576.898185 91.192281 
L 577.157881 89.025262 
L 577.677273 87.358957 
L 577.936969 92.49166 
L 578.716056 92.16357 
L 578.975752 91.287275 
L 579.495144 93.054399 
L 579.75484 91.267989 
L 580.533928 90.493722 
L 580.793624 86.514304 
L 581.05332 88.677037 
L 581.572712 88.473725 
L 582.3518 85.220992 
L 582.611496 85.125826 
L 583.130887 80.186163 
L 584.169671 78.715513 
L 584.429367 79.879071 
L 584.689063 77.430841 
L 584.948759 77.184299 
L 585.208455 78.174833 
L 585.987543 76.306238 
L 586.247239 75.064822 
L 586.506935 82.448362 
L 587.026326 82.790069 
L 587.805414 83.374019 
L 588.06511 81.60923 
L 588.584502 82.136943 
L 588.844198 85.415637 
L 589.623286 87.881162 
L 589.882982 89.321523 
L 590.402374 90.584561 
L 590.66207 88.521308 
L 591.441157 86.574855 
L 591.700853 88.945213 
L 591.960549 87.997935 
L 592.479941 90.424518 
L 593.259029 91.185791 
L 593.518725 91.843258 
L 593.778421 87.240989 
L 594.038117 87.989295 
L 594.297813 86.064463 
L 595.336596 86.293698 
L 595.596292 78.637641 
L 595.855988 78.417061 
L 596.115684 79.563298 
L 596.894772 83.672483 
L 597.154468 78.205095 
L 597.414164 80.311604 
L 597.67386 92.137396 
L 597.933556 92.107121 
L 598.712643 93.897844 
L 599.491731 91.778381 
L 599.751427 94.403935 
L 600.530515 93.335556 
L 600.790211 93.672937 
L 601.049907 94.711054 
L 601.309603 94.062227 
L 601.569299 94.974903 
L 602.608083 94.451518 
L 602.867778 92.232575 
L 603.127474 91.283372 
L 603.38717 94.716018 
L 604.166258 96.540679 
L 604.425954 99.18451 
L 604.68565 98.391356 
L 604.945346 101.511918 
L 605.205042 99.578911 
L 605.98413 103.262916 
L 606.243826 103.210913 
L 606.503522 97.832253 
L 607.802001 106.873231 
L 608.061697 106.747551 
L 608.321393 105.525327 
L 608.581089 107.475695 
L 608.840785 103.232574 
L 609.619873 103.171891 
L 609.879569 105.416981 
L 610.139265 103.553285 
L 610.398961 103.978053 
L 610.658657 102.062354 
L 611.437744 101.273552 
L 611.69744 100.372039 
L 611.957136 102.621456 
L 612.216832 102.357089 
L 612.476528 107.462688 
L 613.255616 108.940612 
L 613.515312 105.993405 
L 613.775008 106.015079 
L 614.034704 109.92881 
L 614.2944 115.680183 
L 615.073487 116.538347 
L 615.333183 117.968608 
L 615.592879 102.396098 
L 615.852575 106.357477 
L 616.112271 103.280237 
L 616.891359 103.557638 
L 617.151055 104.459125 
L 617.410751 110.578924 
L 617.670447 112.238897 
L 618.709231 115.992252 
L 619.228622 109.374034 
L 619.488318 103.778683 
L 619.748014 101.80664 
L 620.527102 102.105702 
L 620.786798 100.857464 
L 621.046494 100.328703 
L 621.30619 87.26565 
L 621.565886 82.98352 
L 622.344974 82.597787 
L 622.60467 83.837345 
L 622.864365 83.82001 
L 623.124061 81.730955 
L 623.383757 81.488236 
L 624.162845 76.924418 
L 624.422541 76.976407 
L 624.682237 75.329455 
L 625.201629 74.391561 
L 625.980717 72.394207 
L 626.240413 72.69814 
L 626.500109 75.129713 
L 626.759805 74.135383 
L 627.0195 76.167472 
L 628.058284 71.603946 
L 628.31798 73.049856 
L 628.837372 71.747239 
L 629.61646 71.048148 
L 630.135852 70.223166 
L 630.655244 67.396462 
L 631.434331 66.367384 
L 631.694027 67.161985 
L 631.953723 66.423833 
L 632.213419 63.710028 
L 632.473115 65.407789 
L 633.252203 63.59279 
L 633.511899 64.070424 
L 633.771595 63.115169 
L 634.290987 64.348316 
L 635.589466 57.891641 
L 635.849162 55.642436 
L 636.108858 56.298085 
L 636.887946 55.659797 
L 637.147642 57.987165 
L 637.407338 58.403997 
L 637.667034 55.038883 
L 638.705818 55.525198 
L 638.965513 56.002832 
L 639.225209 53.011122 
L 639.484905 53.892567 
L 639.744601 53.093625 
L 640.523689 53.223898 
L 640.783385 52.008111 
L 641.043081 52.094955 
L 641.302777 49.45496 
L 641.562473 50.171411 
L 642.341561 50.167071 
L 642.601257 52.246928 
L 642.860953 51.986397 
L 643.120648 49.811015 
L 643.380344 48.582182 
L 644.159432 49.107598 
L 644.419128 49.077203 
L 644.678824 48.786291 
L 644.93852 39.989227 
L 645.198216 44.066438 
L 645.977304 39.06 
L 646.237 42.485916 
L 646.496696 43.706029 
L 646.756392 45.48628 
L 647.016087 44.965244 
L 647.795175 45.082469 
L 648.054871 41.838948 
L 648.314567 45.599179 
L 648.574263 44.774196 
L 648.833959 45.77722 
L 649.613047 47.110258 
L 649.872743 50.29299 
L 650.132439 52.051527 
L 650.392135 52.334237 
L 650.651831 51.03381 
L 651.430918 52.32553 
L 651.690614 53.291058 
L 652.210006 49.985645 
L 652.469702 51.268672 
L 653.508486 51.951503 
L 653.768182 51.851466 
L 653.768182 51.851466 
" clip-path="url(#p5fb7820173)" style="fill: none; stroke: #1f77b4; stroke-width: 1.5; stroke-linecap: square"/>
   </g>
   <g id="patch_3">
    <path d="M 94.5 224.28 
L 94.5 30.24 
" style="fill: none; stroke: #000000; stroke-width: 0.8; stroke-linejoin: miter; stroke-linecap: square"/>
   </g>
   <g id="patch_4">
    <path d="M 94.5 224.28 
L 680.4 224.28 
" style="fill: none; stroke: #000000; stroke-width: 0.8; stroke-linejoin: miter; stroke-linecap: square"/>
   </g>
  </g>
 </g>
 <defs>
  <clipPath id="p5fb7820173">
   <rect x="94.5" y="30.24" width="585.9" height="194.04"/>
  </clipPath>
 </defs>
</svg>
