<?xml version="1.0" encoding="utf-8" standalone="no"?>
<!DOCTYPE svg PUBLIC "-//W3C//DTD SVG 1.1//EN"
  "http://www.w3.org/Graphics/SVG/1.1/DTD/svg11.dtd">
<svg xmlns:xlink="http://www.w3.org/1999/xlink" width="1166.4pt" height="252pt" viewBox="0 0 1166.4 252" xmlns="http://www.w3.org/2000/svg" version="1.1">
 <metadata>
  <rdf:RDF xmlns:dc="http://purl.org/dc/elements/1.1/" xmlns:cc="http://creativecommons.org/ns#" xmlns:rdf="http://www.w3.org/1999/02/22-rdf-syntax-ns#">
   <cc:Work>
    <dc:type rdf:resource="http://purl.org/dc/dcmitype/StillImage"/>
    <dc:date>2025-08-31T00:52:54.403132</dc:date>
    <dc:format>image/svg+xml</dc:format>
    <dc:creator>
     <cc:Agent>
      <dc:title>Matplotlib v3.10.5, https://matplotlib.org/</dc:title>
     </cc:Agent>
    </dc:creator>
   </cc:Work>
  </rdf:RDF>
 </metadata>
 <defs>
  <style type="text/css">*{stroke-linejoin: round; stroke-linecap: butt}</style>
 </defs>
 <g id="figure_1">
  <g id="patch_1">
   <path d="M 0 252 
L 1166.4 252 
L 1166.4 0 
L 0 0 
z
" style="fill: #ffffff"/>
  </g>
  <g id="axes_1">
   <g id="patch_2">
    <path d="M 145.8 224.28 
L 1049.76 224.28 
L 1049.76 30.24 
L 145.8 30.24 
z
" style="fill: #ffffff"/>
   </g>
   <g id="matplotlib.axis_1">
    <g id="xtick_1">
     <g id="line2d_1">
      <defs>
       <path id="m471a4bd126" d="M 0 0 
L 0 3.5 
" style="stroke: #000000; stroke-width: 0.8"/>
      </defs>
      <g>
       <use xlink:href="#m471a4bd126" x="197.310237" y="224.28" style="stroke: #000000; stroke-width: 0.8"/>
      </g>
     </g>
     <g id="text_1">
      <!-- 2024-03 -->
      <g transform="translate(176.418831 238.878438) scale(0.1 -0.1)">
       <defs>
        <path id="DejaVuSans-32" d="M 1228 531 
L 3431 531 
L 3431 0 
L 469 0 
L 469 531 
Q 828 903 1448 1529 
Q 2069 2156 2228 2338 
Q 2531 2678 2651 2914 
Q 2772 3150 2772 3378 
Q 2772 3750 2511 3984 
Q 2250 4219 1831 4219 
Q 1534 4219 1204 4116 
Q 875 4013 500 3803 
L 500 4441 
Q 881 4594 1212 4672 
Q 1544 4750 1819 4750 
Q 2544 4750 2975 4387 
Q 3406 4025 3406 3419 
Q 3406 3131 3298 2873 
Q 3191 2616 2906 2266 
Q 2828 2175 2409 1742 
Q 1991 1309 1228 531 
z
" transform="scale(0.015625)"/>
        <path id="DejaVuSans-30" d="M 2034 4250 
Q 1547 4250 1301 3770 
Q 1056 3291 1056 2328 
Q 1056 1369 1301 889 
Q 1547 409 2034 409 
Q 2525 409 2770 889 
Q 3016 1369 3016 2328 
Q 3016 3291 2770 3770 
Q 2525 4250 2034 4250 
z
M 2034 4750 
Q 2819 4750 3233 4129 
Q 3647 3509 3647 2328 
Q 3647 1150 3233 529 
Q 2819 -91 2034 -91 
Q 1250 -91 836 529 
Q 422 1150 422 2328 
Q 422 3509 836 4129 
Q 1250 4750 2034 4750 
z
" transform="scale(0.015625)"/>
        <path id="DejaVuSans-34" d="M 2419 4116 
L 825 1625 
L 2419 1625 
L 2419 4116 
z
M 2253 4666 
L 3047 4666 
L 3047 1625 
L 3713 1625 
L 3713 1100 
L 3047 1100 
L 3047 0 
L 2419 0 
L 2419 1100 
L 313 1100 
L 313 1709 
L 2253 4666 
z
" transform="scale(0.015625)"/>
        <path id="DejaVuSans-2d" d="M 313 2009 
L 1997 2009 
L 1997 1497 
L 313 1497 
L 313 2009 
z
" transform="scale(0.015625)"/>
        <path id="DejaVuSans-33" d="M 2597 2516 
Q 3050 2419 3304 2112 
Q 3559 1806 3559 1356 
Q 3559 666 3084 287 
Q 2609 -91 1734 -91 
Q 1441 -91 1130 -33 
Q 819 25 488 141 
L 488 750 
Q 750 597 1062 519 
Q 1375 441 1716 441 
Q 2309 441 2620 675 
Q 2931 909 2931 1356 
Q 2931 1769 2642 2001 
Q 2353 2234 1838 2234 
L 1294 2234 
L 1294 2753 
L 1863 2753 
Q 2328 2753 2575 2939 
Q 2822 3125 2822 3475 
Q 2822 3834 2567 4026 
Q 2313 4219 1838 4219 
Q 1578 4219 1281 4162 
Q 984 4106 628 3988 
L 628 4550 
Q 988 4650 1302 4700 
Q 1616 4750 1894 4750 
Q 2613 4750 3031 4423 
Q 3450 4097 3450 3541 
Q 3450 3153 3228 2886 
Q 3006 2619 2597 2516 
z
" transform="scale(0.015625)"/>
       </defs>
       <use xlink:href="#DejaVuSans-32"/>
       <use xlink:href="#DejaVuSans-30" transform="translate(63.623047 0)"/>
       <use xlink:href="#DejaVuSans-32" transform="translate(127.246094 0)"/>
       <use xlink:href="#DejaVuSans-34" transform="translate(190.869141 0)"/>
       <use xlink:href="#DejaVuSans-2d" transform="translate(254.492188 0)"/>
       <use xlink:href="#DejaVuSans-30" transform="translate(290.576172 0)"/>
       <use xlink:href="#DejaVuSans-33" transform="translate(354.199219 0)"/>
      </g>
     </g>
    </g>
    <g id="xtick_2">
     <g id="line2d_2">
      <g>
       <use xlink:href="#m471a4bd126" x="288.123083" y="224.28" style="stroke: #000000; stroke-width: 0.8"/>
      </g>
     </g>
     <g id="text_2">
      <!-- 2024-05 -->
      <g transform="translate(267.231677 238.878438) scale(0.1 -0.1)">
       <defs>
        <path id="DejaVuSans-35" d="M 691 4666 
L 3169 4666 
L 3169 4134 
L 1269 4134 
L 1269 2991 
Q 1406 3038 1543 3061 
Q 1681 3084 1819 3084 
Q 2600 3084 3056 2656 
Q 3513 2228 3513 1497 
Q 3513 744 3044 326 
Q 2575 -91 1722 -91 
Q 1428 -91 1123 -41 
Q 819 9 494 109 
L 494 744 
Q 775 591 1075 516 
Q 1375 441 1709 441 
Q 2250 441 2565 725 
Q 2881 1009 2881 1497 
Q 2881 1984 2565 2268 
Q 2250 2553 1709 2553 
Q 1456 2553 1204 2497 
Q 953 2441 691 2322 
L 691 4666 
z
" transform="scale(0.015625)"/>
       </defs>
       <use xlink:href="#DejaVuSans-32"/>
       <use xlink:href="#DejaVuSans-30" transform="translate(63.623047 0)"/>
       <use xlink:href="#DejaVuSans-32" transform="translate(127.246094 0)"/>
       <use xlink:href="#DejaVuSans-34" transform="translate(190.869141 0)"/>
       <use xlink:href="#DejaVuSans-2d" transform="translate(254.492188 0)"/>
       <use xlink:href="#DejaVuSans-30" transform="translate(290.576172 0)"/>
       <use xlink:href="#DejaVuSans-35" transform="translate(354.199219 0)"/>
      </g>
     </g>
    </g>
    <g id="xtick_3">
     <g id="line2d_3">
      <g>
       <use xlink:href="#m471a4bd126" x="378.935929" y="224.28" style="stroke: #000000; stroke-width: 0.8"/>
      </g>
     </g>
     <g id="text_3">
      <!-- 2024-07 -->
      <g transform="translate(358.044523 238.878438) scale(0.1 -0.1)">
       <defs>
        <path id="DejaVuSans-37" d="M 525 4666 
L 3525 4666 
L 3525 4397 
L 1831 0 
L 1172 0 
L 2766 4134 
L 525 4134 
L 525 4666 
z
" transform="scale(0.015625)"/>
       </defs>
       <use xlink:href="#DejaVuSans-32"/>
       <use xlink:href="#DejaVuSans-30" transform="translate(63.623047 0)"/>
       <use xlink:href="#DejaVuSans-32" transform="translate(127.246094 0)"/>
       <use xlink:href="#DejaVuSans-34" transform="translate(190.869141 0)"/>
       <use xlink:href="#DejaVuSans-2d" transform="translate(254.492188 0)"/>
       <use xlink:href="#DejaVuSans-30" transform="translate(290.576172 0)"/>
       <use xlink:href="#DejaVuSans-37" transform="translate(354.199219 0)"/>
      </g>
     </g>
    </g>
    <g id="xtick_4">
     <g id="line2d_4">
      <g>
       <use xlink:href="#m471a4bd126" x="471.23751" y="224.28" style="stroke: #000000; stroke-width: 0.8"/>
      </g>
     </g>
     <g id="text_4">
      <!-- 2024-09 -->
      <g transform="translate(450.346104 238.878438) scale(0.1 -0.1)">
       <defs>
        <path id="DejaVuSans-39" d="M 703 97 
L 703 672 
Q 941 559 1184 500 
Q 1428 441 1663 441 
Q 2288 441 2617 861 
Q 2947 1281 2994 2138 
Q 2813 1869 2534 1725 
Q 2256 1581 1919 1581 
Q 1219 1581 811 2004 
Q 403 2428 403 3163 
Q 403 3881 828 4315 
Q 1253 4750 1959 4750 
Q 2769 4750 3195 4129 
Q 3622 3509 3622 2328 
Q 3622 1225 3098 567 
Q 2575 -91 1691 -91 
Q 1453 -91 1209 -44 
Q 966 3 703 97 
z
M 1959 2075 
Q 2384 2075 2632 2365 
Q 2881 2656 2881 3163 
Q 2881 3666 2632 3958 
Q 2384 4250 1959 4250 
Q 1534 4250 1286 3958 
Q 1038 3666 1038 3163 
Q 1038 2656 1286 2365 
Q 1534 2075 1959 2075 
z
" transform="scale(0.015625)"/>
       </defs>
       <use xlink:href="#DejaVuSans-32"/>
       <use xlink:href="#DejaVuSans-30" transform="translate(63.623047 0)"/>
       <use xlink:href="#DejaVuSans-32" transform="translate(127.246094 0)"/>
       <use xlink:href="#DejaVuSans-34" transform="translate(190.869141 0)"/>
       <use xlink:href="#DejaVuSans-2d" transform="translate(254.492188 0)"/>
       <use xlink:href="#DejaVuSans-30" transform="translate(290.576172 0)"/>
       <use xlink:href="#DejaVuSans-39" transform="translate(354.199219 0)"/>
      </g>
     </g>
    </g>
    <g id="xtick_5">
     <g id="line2d_5">
      <g>
       <use xlink:href="#m471a4bd126" x="562.050356" y="224.28" style="stroke: #000000; stroke-width: 0.8"/>
      </g>
     </g>
     <g id="text_5">
      <!-- 2024-11 -->
      <g transform="translate(541.158949 238.878438) scale(0.1 -0.1)">
       <defs>
        <path id="DejaVuSans-31" d="M 794 531 
L 1825 531 
L 1825 4091 
L 703 3866 
L 703 4441 
L 1819 4666 
L 2450 4666 
L 2450 531 
L 3481 531 
L 3481 0 
L 794 0 
L 794 531 
z
" transform="scale(0.015625)"/>
       </defs>
       <use xlink:href="#DejaVuSans-32"/>
       <use xlink:href="#DejaVuSans-30" transform="translate(63.623047 0)"/>
       <use xlink:href="#DejaVuSans-32" transform="translate(127.246094 0)"/>
       <use xlink:href="#DejaVuSans-34" transform="translate(190.869141 0)"/>
       <use xlink:href="#DejaVuSans-2d" transform="translate(254.492188 0)"/>
       <use xlink:href="#DejaVuSans-31" transform="translate(290.576172 0)"/>
       <use xlink:href="#DejaVuSans-31" transform="translate(354.199219 0)"/>
      </g>
     </g>
    </g>
    <g id="xtick_6">
     <g id="line2d_6">
      <g>
       <use xlink:href="#m471a4bd126" x="652.863202" y="224.28" style="stroke: #000000; stroke-width: 0.8"/>
      </g>
     </g>
     <g id="text_6">
      <!-- 2025-01 -->
      <g transform="translate(631.971795 238.878438) scale(0.1 -0.1)">
       <use xlink:href="#DejaVuSans-32"/>
       <use xlink:href="#DejaVuSans-30" transform="translate(63.623047 0)"/>
       <use xlink:href="#DejaVuSans-32" transform="translate(127.246094 0)"/>
       <use xlink:href="#DejaVuSans-35" transform="translate(190.869141 0)"/>
       <use xlink:href="#DejaVuSans-2d" transform="translate(254.492188 0)"/>
       <use xlink:href="#DejaVuSans-30" transform="translate(290.576172 0)"/>
       <use xlink:href="#DejaVuSans-31" transform="translate(354.199219 0)"/>
      </g>
     </g>
    </g>
    <g id="xtick_7">
     <g id="line2d_7">
      <g>
       <use xlink:href="#m471a4bd126" x="740.698577" y="224.28" style="stroke: #000000; stroke-width: 0.8"/>
      </g>
     </g>
     <g id="text_7">
      <!-- 2025-03 -->
      <g transform="translate(719.807171 238.878438) scale(0.1 -0.1)">
       <use xlink:href="#DejaVuSans-32"/>
       <use xlink:href="#DejaVuSans-30" transform="translate(63.623047 0)"/>
       <use xlink:href="#DejaVuSans-32" transform="translate(127.246094 0)"/>
       <use xlink:href="#DejaVuSans-35" transform="translate(190.869141 0)"/>
       <use xlink:href="#DejaVuSans-2d" transform="translate(254.492188 0)"/>
       <use xlink:href="#DejaVuSans-30" transform="translate(290.576172 0)"/>
       <use xlink:href="#DejaVuSans-33" transform="translate(354.199219 0)"/>
      </g>
     </g>
    </g>
    <g id="xtick_8">
     <g id="line2d_8">
      <g>
       <use xlink:href="#m471a4bd126" x="831.511423" y="224.28" style="stroke: #000000; stroke-width: 0.8"/>
      </g>
     </g>
     <g id="text_8">
      <!-- 2025-05 -->
      <g transform="translate(810.620017 238.878438) scale(0.1 -0.1)">
       <use xlink:href="#DejaVuSans-32"/>
       <use xlink:href="#DejaVuSans-30" transform="translate(63.623047 0)"/>
       <use xlink:href="#DejaVuSans-32" transform="translate(127.246094 0)"/>
       <use xlink:href="#DejaVuSans-35" transform="translate(190.869141 0)"/>
       <use xlink:href="#DejaVuSans-2d" transform="translate(254.492188 0)"/>
       <use xlink:href="#DejaVuSans-30" transform="translate(290.576172 0)"/>
       <use xlink:href="#DejaVuSans-35" transform="translate(354.199219 0)"/>
      </g>
     </g>
    </g>
    <g id="xtick_9">
     <g id="line2d_9">
      <g>
       <use xlink:href="#m471a4bd126" x="922.324269" y="224.28" style="stroke: #000000; stroke-width: 0.8"/>
      </g>
     </g>
     <g id="text_9">
      <!-- 2025-07 -->
      <g transform="translate(901.432863 238.878438) scale(0.1 -0.1)">
       <use xlink:href="#DejaVuSans-32"/>
       <use xlink:href="#DejaVuSans-30" transform="translate(63.623047 0)"/>
       <use xlink:href="#DejaVuSans-32" transform="translate(127.246094 0)"/>
       <use xlink:href="#DejaVuSans-35" transform="translate(190.869141 0)"/>
       <use xlink:href="#DejaVuSans-2d" transform="translate(254.492188 0)"/>
       <use xlink:href="#DejaVuSans-30" transform="translate(290.576172 0)"/>
       <use xlink:href="#DejaVuSans-37" transform="translate(354.199219 0)"/>
      </g>
     </g>
    </g>
    <g id="xtick_10">
     <g id="line2d_10">
      <g>
       <use xlink:href="#m471a4bd126" x="1014.62585" y="224.28" style="stroke: #000000; stroke-width: 0.8"/>
      </g>
     </g>
     <g id="text_10">
      <!-- 2025-09 -->
      <g transform="translate(993.734444 238.878438) scale(0.1 -0.1)">
       <use xlink:href="#DejaVuSans-32"/>
       <use xlink:href="#DejaVuSans-30" transform="translate(63.623047 0)"/>
       <use xlink:href="#DejaVuSans-32" transform="translate(127.246094 0)"/>
       <use xlink:href="#DejaVuSans-35" transform="translate(190.869141 0)"/>
       <use xlink:href="#DejaVuSans-2d" transform="translate(254.492188 0)"/>
       <use xlink:href="#DejaVuSans-30" transform="translate(290.576172 0)"/>
       <use xlink:href="#DejaVuSans-39" transform="translate(354.199219 0)"/>
      </g>
     </g>
    </g>
   </g>
   <g id="matplotlib.axis_2">
    <g id="ytick_1">
     <g id="line2d_11">
      <defs>
       <path id="md3b62843ba" d="M 0 0 
L -3.5 0 
" style="stroke: #000000; stroke-width: 0.8"/>
      </defs>
      <g>
       <use xlink:href="#md3b62843ba" x="145.8" y="209.936756" style="stroke: #000000; stroke-width: 0.8"/>
      </g>
     </g>
     <g id="text_11">
      <!-- 20 -->
      <g transform="translate(126.075 213.735975) scale(0.1 -0.1)">
       <use xlink:href="#DejaVuSans-32"/>
       <use xlink:href="#DejaVuSans-30" transform="translate(63.623047 0)"/>
      </g>
     </g>
    </g>
    <g id="ytick_2">
     <g id="line2d_12">
      <g>
       <use xlink:href="#md3b62843ba" x="145.8" y="187.463405" style="stroke: #000000; stroke-width: 0.8"/>
      </g>
     </g>
     <g id="text_12">
      <!-- 30 -->
      <g transform="translate(126.075 191.262624) scale(0.1 -0.1)">
       <use xlink:href="#DejaVuSans-33"/>
       <use xlink:href="#DejaVuSans-30" transform="translate(63.623047 0)"/>
      </g>
     </g>
    </g>
    <g id="ytick_3">
     <g id="line2d_13">
      <g>
       <use xlink:href="#md3b62843ba" x="145.8" y="164.990053" style="stroke: #000000; stroke-width: 0.8"/>
      </g>
     </g>
     <g id="text_13">
      <!-- 40 -->
      <g transform="translate(126.075 168.789272) scale(0.1 -0.1)">
       <use xlink:href="#DejaVuSans-34"/>
       <use xlink:href="#DejaVuSans-30" transform="translate(63.623047 0)"/>
      </g>
     </g>
    </g>
    <g id="ytick_4">
     <g id="line2d_14">
      <g>
       <use xlink:href="#md3b62843ba" x="145.8" y="142.516702" style="stroke: #000000; stroke-width: 0.8"/>
      </g>
     </g>
     <g id="text_14">
      <!-- 50 -->
      <g transform="translate(126.075 146.31592) scale(0.1 -0.1)">
       <use xlink:href="#DejaVuSans-35"/>
       <use xlink:href="#DejaVuSans-30" transform="translate(63.623047 0)"/>
      </g>
     </g>
    </g>
    <g id="ytick_5">
     <g id="line2d_15">
      <g>
       <use xlink:href="#md3b62843ba" x="145.8" y="120.04335" style="stroke: #000000; stroke-width: 0.8"/>
      </g>
     </g>
     <g id="text_15">
      <!-- 60 -->
      <g transform="translate(126.075 123.842569) scale(0.1 -0.1)">
       <defs>
        <path id="DejaVuSans-36" d="M 2113 2584 
Q 1688 2584 1439 2293 
Q 1191 2003 1191 1497 
Q 1191 994 1439 701 
Q 1688 409 2113 409 
Q 2538 409 2786 701 
Q 3034 994 3034 1497 
Q 3034 2003 2786 2293 
Q 2538 2584 2113 2584 
z
M 3366 4563 
L 3366 3988 
Q 3128 4100 2886 4159 
Q 2644 4219 2406 4219 
Q 1781 4219 1451 3797 
Q 1122 3375 1075 2522 
Q 1259 2794 1537 2939 
Q 1816 3084 2150 3084 
Q 2853 3084 3261 2657 
Q 3669 2231 3669 1497 
Q 3669 778 3244 343 
Q 2819 -91 2113 -91 
Q 1303 -91 875 529 
Q 447 1150 447 2328 
Q 447 3434 972 4092 
Q 1497 4750 2381 4750 
Q 2619 4750 2861 4703 
Q 3103 4656 3366 4563 
z
" transform="scale(0.015625)"/>
       </defs>
       <use xlink:href="#DejaVuSans-36"/>
       <use xlink:href="#DejaVuSans-30" transform="translate(63.623047 0)"/>
      </g>
     </g>
    </g>
    <g id="ytick_6">
     <g id="line2d_16">
      <g>
       <use xlink:href="#md3b62843ba" x="145.8" y="97.569999" style="stroke: #000000; stroke-width: 0.8"/>
      </g>
     </g>
     <g id="text_16">
      <!-- 70 -->
      <g transform="translate(126.075 101.369217) scale(0.1 -0.1)">
       <use xlink:href="#DejaVuSans-37"/>
       <use xlink:href="#DejaVuSans-30" transform="translate(63.623047 0)"/>
      </g>
     </g>
    </g>
    <g id="ytick_7">
     <g id="line2d_17">
      <g>
       <use xlink:href="#md3b62843ba" x="145.8" y="75.096647" style="stroke: #000000; stroke-width: 0.8"/>
      </g>
     </g>
     <g id="text_17">
      <!-- 80 -->
      <g transform="translate(126.075 78.895866) scale(0.1 -0.1)">
       <defs>
        <path id="DejaVuSans-38" d="M 2034 2216 
Q 1584 2216 1326 1975 
Q 1069 1734 1069 1313 
Q 1069 891 1326 650 
Q 1584 409 2034 409 
Q 2484 409 2743 651 
Q 3003 894 3003 1313 
Q 3003 1734 2745 1975 
Q 2488 2216 2034 2216 
z
M 1403 2484 
Q 997 2584 770 2862 
Q 544 3141 544 3541 
Q 544 4100 942 4425 
Q 1341 4750 2034 4750 
Q 2731 4750 3128 4425 
Q 3525 4100 3525 3541 
Q 3525 3141 3298 2862 
Q 3072 2584 2669 2484 
Q 3125 2378 3379 2068 
Q 3634 1759 3634 1313 
Q 3634 634 3220 271 
Q 2806 -91 2034 -91 
Q 1263 -91 848 271 
Q 434 634 434 1313 
Q 434 1759 690 2068 
Q 947 2378 1403 2484 
z
M 1172 3481 
Q 1172 3119 1398 2916 
Q 1625 2713 2034 2713 
Q 2441 2713 2670 2916 
Q 2900 3119 2900 3481 
Q 2900 3844 2670 4047 
Q 2441 4250 2034 4250 
Q 1625 4250 1398 4047 
Q 1172 3844 1172 3481 
z
" transform="scale(0.015625)"/>
       </defs>
       <use xlink:href="#DejaVuSans-38"/>
       <use xlink:href="#DejaVuSans-30" transform="translate(63.623047 0)"/>
      </g>
     </g>
    </g>
    <g id="ytick_8">
     <g id="line2d_18">
      <g>
       <use xlink:href="#md3b62843ba" x="145.8" y="52.623295" style="stroke: #000000; stroke-width: 0.8"/>
      </g>
     </g>
     <g id="text_18">
      <!-- 90 -->
      <g transform="translate(126.075 56.422514) scale(0.1 -0.1)">
       <use xlink:href="#DejaVuSans-39"/>
       <use xlink:href="#DejaVuSans-30" transform="translate(63.623047 0)"/>
      </g>
     </g>
    </g>
   </g>
   <g id="line2d_19">
    <path d="M 186.889091 142.755367 
L 191.355296 137.046528 
L 192.844032 136.829523 
L 194.332767 156.171259 
L 195.821502 141.876272 
L 197.310237 152.713789 
L 201.776443 141.386277 
L 203.265178 149.690171 
L 204.753913 162.137016 
L 206.242648 136.282211 
L 207.731383 137.343714 
L 212.197589 138.411285 
L 213.686324 116.916609 
L 215.175059 134.475416 
L 216.663794 113.193231 
L 218.15253 126.683336 
L 222.618735 125.202439 
L 224.10747 119.79775 
L 225.596206 122.66708 
L 227.084941 119.560072 
L 228.573676 119.659457 
L 233.039881 105.620855 
L 234.528617 107.18079 
L 236.017352 117.575667 
L 237.506087 111.867344 
L 243.461028 101.783386 
L 244.949763 127.999472 
L 246.438498 130.119047 
L 247.927233 162.662687 
L 249.415968 116.811867 
L 253.882174 121.996512 
L 255.370909 127.888893 
L 256.859644 148.563288 
L 258.348379 146.873445 
L 259.837115 160.584368 
L 264.30332 165.580437 
L 265.792055 160.309307 
L 267.280791 165.361771 
L 268.769526 176.728182 
L 270.258261 194.201936 
L 274.724466 185.101511 
L 276.213202 166.775611 
L 277.701937 159.435192 
L 279.190672 191.327222 
L 280.679407 173.016715 
L 285.145613 181.262324 
L 286.634348 190.420021 
L 288.123083 188.54908 
L 289.611818 177.446353 
L 291.100553 152.577318 
L 295.566759 143.90948 
L 297.055494 145.807702 
L 298.544229 133.597355 
L 300.032964 122.902333 
L 301.5217 122.196344 
L 305.987905 132.729871 
L 307.47664 130.805224 
L 308.965375 102.255058 
L 310.454111 115.442625 
L 311.942846 107.894212 
L 316.409051 64.496876 
L 317.897787 65.777156 
L 319.386522 66.794195 
L 320.875257 89.035316 
L 322.363992 94.417416 
L 328.318933 75.721088 
L 329.807668 82.864428 
L 331.296403 135.455297 
L 332.785138 139.813469 
L 337.251344 141.237002 
L 338.740079 141.90242 
L 340.228814 140.349972 
L 341.717549 134.014004 
L 343.206285 133.728177 
L 347.67249 136.259023 
L 349.161225 133.728177 
L 350.64996 120.354618 
L 352.138696 110.036472 
L 353.627431 113.627707 
L 358.093636 104.89449 
L 359.582372 107.303468 
L 362.559842 57.329039 
L 364.048577 55.120559 
L 368.514783 57.337186 
L 370.003518 56.903711 
L 371.492253 61.514565 
L 372.980988 61.370623 
L 374.469723 84.134497 
L 378.935929 77.94269 
L 380.424664 80.194822 
L 381.913399 88.590521 
L 384.89087 80.850265 
L 389.357075 86.722129 
L 390.84581 116.674878 
L 392.334545 100.503111 
L 393.823281 126.754411 
L 395.312016 135.598149 
L 399.778221 130.644003 
L 401.266957 145.164365 
L 402.755692 157.343396 
L 404.244427 163.157577 
L 405.733162 159.449138 
L 410.199368 167.774107 
L 411.688103 169.224877 
L 414.665573 212.546509 
L 416.154308 197.0432 
L 420.620514 189.07252 
L 422.109249 206.336941 
L 423.597984 201.448036 
L 425.086719 201.517335 
L 426.575455 208.349907 
L 431.04166 213.137178 
L 432.530395 200.584519 
L 434.01913 199.29575 
L 435.507866 188.560287 
L 436.996601 193.419541 
L 441.462806 195.694562 
L 442.951542 165.874823 
L 444.440277 145.221339 
L 445.929012 148.821833 
L 447.417747 155.873558 
L 451.883953 143.651682 
L 453.372688 129.247751 
L 454.861423 128.046121 
L 456.350158 128.015776 
L 457.838893 90.547517 
L 462.305099 107.743129 
L 463.793834 103.417606 
L 465.282569 121.115067 
L 466.771304 122.757502 
L 468.26004 116.491852 
L 475.703715 160.140518 
L 477.192451 176.691787 
L 478.681186 183.759609 
L 483.147391 180.598591 
L 484.636126 165.484 
L 486.124862 144.575377 
L 487.613597 119.297024 
L 489.102332 115.670016 
L 493.568538 106.18718 
L 495.057273 101.702899 
L 496.546008 104.522157 
L 498.034743 98.40151 
L 499.523478 110.946819 
L 503.989684 96.354053 
L 505.478419 106.009669 
L 506.967154 101.397625 
L 508.455889 86.056866 
L 509.944625 99.462066 
L 514.41083 107.72627 
L 515.899565 147.520727 
L 517.3883 163.694115 
L 518.877036 174.494626 
L 520.365771 177.485456 
L 524.831976 198.060445 
L 526.320711 176.884305 
L 527.809447 192.728405 
L 529.298182 190.280763 
L 530.786917 185.991655 
L 535.253123 168.78204 
L 536.741858 179.731006 
L 538.230593 182.973039 
L 539.719328 174.662111 
L 541.208063 177.801936 
L 545.674269 149.750213 
L 547.163004 109.038879 
L 548.651739 118.144534 
L 550.140474 116.050461 
L 551.629209 80.483417 
L 556.095415 98.167477 
L 557.58415 92.740127 
L 559.072885 83.299848 
L 560.561621 162.044194 
L 562.050356 159.34195 
L 566.516561 161.743254 
L 568.005296 151.177433 
L 569.494032 136.847555 
L 570.982767 131.23198 
L 572.471502 136.85776 
L 576.937708 157.666935 
L 578.426443 144.947703 
L 579.915178 141.808865 
L 581.403913 144.459374 
L 582.892648 158.16782 
L 587.358854 165.659077 
L 588.847589 163.204741 
L 590.336324 124.235674 
L 591.825059 135.588919 
L 593.313794 123.766822 
L 597.78 125.821194 
L 599.268735 124.96169 
L 600.75747 145.758127 
L 603.734941 138.755975 
L 608.201146 114.671272 
L 609.689881 122.62225 
L 611.178617 115.80234 
L 612.667352 110.657045 
L 614.156087 73.072142 
L 618.622292 71.598291 
L 620.111028 83.155803 
L 621.599763 70.128864 
L 623.088498 63.339997 
L 624.577233 74.801477 
L 629.043439 72.660331 
L 630.532174 78.455916 
L 632.020909 114.857132 
L 633.509644 116.402417 
L 634.998379 130.206662 
L 639.464585 133.836854 
L 640.95332 138.249039 
L 643.930791 153.459758 
L 645.419526 170.194407 
L 649.885731 184.89165 
L 651.374466 185.6798 
L 654.351937 205.690556 
L 655.840672 193.042113 
L 660.306877 178.585412 
L 661.795613 195.765982 
L 663.284348 197.612841 
L 666.261818 184.359247 
L 670.728024 186.298181 
L 672.216759 187.735598 
L 673.705494 158.904334 
L 675.194229 170.632284 
L 676.682964 158.925382 
L 682.637905 146.654245 
L 684.12664 106.746032 
L 685.615375 98.4681 
L 687.104111 97.808559 
L 691.570316 124.200135 
L 693.059051 114.245999 
L 694.547787 113.12165 
L 696.036522 153.116511 
L 697.525257 147.074176 
L 701.991462 149.684658 
L 703.480198 146.292029 
L 704.968933 159.047932 
L 706.457668 153.539439 
L 707.946403 166.344591 
L 712.412609 162.216646 
L 713.901344 193.950419 
L 715.390079 196.902648 
L 716.878814 191.636866 
L 718.367549 184.89142 
L 724.32249 215.46 
L 725.811225 195.800182 
L 727.29996 135.788499 
L 728.788696 159.111572 
L 733.254901 159.295216 
L 734.743636 176.221479 
L 736.232372 173.350976 
L 737.721107 191.923139 
L 739.209842 169.632647 
L 743.676047 188.879411 
L 745.164783 187.595591 
L 746.653518 154.990899 
L 748.142253 163.871109 
L 749.630988 165.816289 
L 754.097194 182.314871 
L 755.585929 191.973354 
L 757.074664 190.644652 
L 758.563399 187.647413 
L 760.052134 164.511422 
L 764.51834 156.693476 
L 766.007075 166.398529 
L 767.49581 149.730073 
L 768.984545 158.835504 
L 770.473281 137.787064 
L 774.939486 135.076624 
L 776.428221 154.03233 
L 777.916957 155.867947 
L 779.405692 148.066968 
L 780.894427 145.351996 
L 785.360632 152.488151 
L 786.849368 144.506106 
L 788.338103 135.820349 
L 789.826838 173.634522 
L 791.315573 189.569785 
L 795.781779 186.389564 
L 797.270514 200.262666 
L 798.759249 138.401737 
L 800.247984 153.183971 
L 801.736719 147.260515 
L 806.202925 150.147672 
L 807.69166 147.048999 
L 809.180395 160.485143 
L 810.66913 153.704646 
L 816.624071 158.286653 
L 818.112806 157.299513 
L 819.601542 149.519867 
L 821.090277 130.082136 
L 822.579012 112.419989 
L 827.045217 110.865448 
L 828.533953 104.857629 
L 830.022688 136.065952 
L 831.511423 94.964111 
L 833.000158 93.278104 
L 837.466364 91.788027 
L 838.955099 92.96706 
L 840.443834 68.571682 
L 841.932569 59.09201 
L 843.421304 39.350794 
L 847.88751 39.06 
L 850.86498 41.451184 
L 852.353715 42.025286 
L 853.842451 39.730157 
L 858.308656 39.498997 
L 859.797391 41.783307 
L 861.286126 74.974704 
L 862.774862 83.69395 
L 864.263597 103.56208 
L 870.218538 79.669604 
L 871.707273 90.579018 
L 873.196008 94.783894 
L 874.684743 93.371362 
L 879.150949 106.645124 
L 880.639684 104.46723 
L 882.128419 109.791702 
L 883.617154 104.644621 
L 885.105889 102.046504 
L 889.572095 105.818928 
L 891.06083 109.679742 
L 892.549565 85.810019 
L 894.0383 80.765037 
L 895.527036 77.641408 
L 899.993241 85.857295 
L 901.481976 74.88744 
L 902.970711 73.770293 
L 905.948182 89.914238 
L 911.903123 76.933238 
L 914.880593 74.428816 
L 916.369328 82.606488 
L 920.835534 83.610128 
L 922.324269 95.565808 
L 923.813004 100.866798 
L 925.301739 98.800276 
L 931.25668 89.828836 
L 932.745415 99.310156 
L 934.23415 86.673116 
L 935.722885 95.792498 
L 937.211621 84.358829 
L 941.677826 96.741702 
L 943.166561 98.897219 
L 944.655296 103.563341 
L 946.144032 101.886802 
L 947.632767 102.428501 
L 952.098972 105.198964 
L 953.587708 102.924868 
L 955.076443 97.824151 
L 956.565178 103.211333 
L 958.053913 92.78678 
L 962.520119 93.278989 
L 964.008854 107.913235 
L 965.497589 95.423983 
L 966.986324 69.555998 
L 968.475059 99.871204 
L 972.941265 90.405153 
L 974.43 107.974796 
L 975.918735 120.86746 
L 977.40747 125.480856 
L 978.896206 123.913125 
L 983.362411 115.18688 
L 984.851146 107.367318 
L 986.339881 128.607032 
L 987.828617 129.789694 
L 989.317352 131.541855 
L 993.783557 136.273388 
L 995.272292 146.937976 
L 996.761028 185.883642 
L 998.249763 176.348966 
L 999.738498 199.158643 
L 1004.204704 193.65771 
L 1005.693439 192.928143 
L 1007.182174 172.444597 
L 1008.670909 167.735709 
L 1008.670909 167.735709 
" clip-path="url(#pcb2086327f)" style="fill: none; stroke: #1f77b4; stroke-width: 1.5; stroke-linecap: square"/>
   </g>
   <g id="patch_3">
    <path d="M 145.8 224.28 
L 145.8 30.24 
" style="fill: none; stroke: #000000; stroke-width: 0.8; stroke-linejoin: miter; stroke-linecap: square"/>
   </g>
   <g id="patch_4">
    <path d="M 145.8 224.28 
L 1049.76 224.28 
" style="fill: none; stroke: #000000; stroke-width: 0.8; stroke-linejoin: miter; stroke-linecap: square"/>
   </g>
  </g>
 </g>
 <defs>
  <clipPath id="pcb2086327f">
   <rect x="145.8" y="30.24" width="903.96" height="194.04"/>
  </clipPath>
 </defs>
</svg>
