<?xml version="1.0" encoding="utf-8" standalone="no"?>
<!DOCTYPE svg PUBLIC "-//W3C//DTD SVG 1.1//EN"
  "http://www.w3.org/Graphics/SVG/1.1/DTD/svg11.dtd">
<svg xmlns:xlink="http://www.w3.org/1999/xlink" width="468pt" height="252pt" viewBox="0 0 468 252" xmlns="http://www.w3.org/2000/svg" version="1.1">
 <metadata>
  <rdf:RDF xmlns:dc="http://purl.org/dc/elements/1.1/" xmlns:cc="http://creativecommons.org/ns#" xmlns:rdf="http://www.w3.org/1999/02/22-rdf-syntax-ns#">
   <cc:Work>
    <dc:type rdf:resource="http://purl.org/dc/dcmitype/StillImage"/>
    <dc:date>2025-08-30T18:51:10.834080</dc:date>
    <dc:format>image/svg+xml</dc:format>
    <dc:creator>
     <cc:Agent>
      <dc:title>Matplotlib v3.10.5, https://matplotlib.org/</dc:title>
     </cc:Agent>
    </dc:creator>
   </cc:Work>
  </rdf:RDF>
 </metadata>
 <defs>
  <style type="text/css">*{stroke-linejoin: round; stroke-linecap: butt}</style>
 </defs>
 <g id="figure_1">
  <g id="patch_1">
   <path d="M 0 252 
L 468 252 
L 468 0 
L 0 0 
z
" style="fill: #ffffff"/>
  </g>
  <g id="axes_1">
   <g id="patch_2">
    <path d="M 58.5 224.28 
L 421.2 224.28 
L 421.2 30.24 
L 58.5 30.24 
z
" style="fill: #ffffff"/>
   </g>
   <g id="matplotlib.axis_1">
    <g id="xtick_1">
     <g id="line2d_1">
      <defs>
       <path id="m6c40429345" d="M 0 0 
L 0 3.5 
" style="stroke: #000000; stroke-width: 0.8"/>
      </defs>
      <g>
       <use xlink:href="#m6c40429345" x="79.76502" y="224.28" style="stroke: #000000; stroke-width: 0.8"/>
      </g>
     </g>
     <g id="text_1">
      <!-- 2024-03 -->
      <g transform="translate(58.873614 238.878438) scale(0.1 -0.1)">
       <defs>
        <path id="DejaVuSans-32" d="M 1228 531 
L 3431 531 
L 3431 0 
L 469 0 
L 469 531 
Q 828 903 1448 1529 
Q 2069 2156 2228 2338 
Q 2531 2678 2651 2914 
Q 2772 3150 2772 3378 
Q 2772 3750 2511 3984 
Q 2250 4219 1831 4219 
Q 1534 4219 1204 4116 
Q 875 4013 500 3803 
L 500 4441 
Q 881 4594 1212 4672 
Q 1544 4750 1819 4750 
Q 2544 4750 2975 4387 
Q 3406 4025 3406 3419 
Q 3406 3131 3298 2873 
Q 3191 2616 2906 2266 
Q 2828 2175 2409 1742 
Q 1991 1309 1228 531 
z
" transform="scale(0.015625)"/>
        <path id="DejaVuSans-30" d="M 2034 4250 
Q 1547 4250 1301 3770 
Q 1056 3291 1056 2328 
Q 1056 1369 1301 889 
Q 1547 409 2034 409 
Q 2525 409 2770 889 
Q 3016 1369 3016 2328 
Q 3016 3291 2770 3770 
Q 2525 4250 2034 4250 
z
M 2034 4750 
Q 2819 4750 3233 4129 
Q 3647 3509 3647 2328 
Q 3647 1150 3233 529 
Q 2819 -91 2034 -91 
Q 1250 -91 836 529 
Q 422 1150 422 2328 
Q 422 3509 836 4129 
Q 1250 4750 2034 4750 
z
" transform="scale(0.015625)"/>
        <path id="DejaVuSans-34" d="M 2419 4116 
L 825 1625 
L 2419 1625 
L 2419 4116 
z
M 2253 4666 
L 3047 4666 
L 3047 1625 
L 3713 1625 
L 3713 1100 
L 3047 1100 
L 3047 0 
L 2419 0 
L 2419 1100 
L 313 1100 
L 313 1709 
L 2253 4666 
z
" transform="scale(0.015625)"/>
        <path id="DejaVuSans-2d" d="M 313 2009 
L 1997 2009 
L 1997 1497 
L 313 1497 
L 313 2009 
z
" transform="scale(0.015625)"/>
        <path id="DejaVuSans-33" d="M 2597 2516 
Q 3050 2419 3304 2112 
Q 3559 1806 3559 1356 
Q 3559 666 3084 287 
Q 2609 -91 1734 -91 
Q 1441 -91 1130 -33 
Q 819 25 488 141 
L 488 750 
Q 750 597 1062 519 
Q 1375 441 1716 441 
Q 2309 441 2620 675 
Q 2931 909 2931 1356 
Q 2931 1769 2642 2001 
Q 2353 2234 1838 2234 
L 1294 2234 
L 1294 2753 
L 1863 2753 
Q 2328 2753 2575 2939 
Q 2822 3125 2822 3475 
Q 2822 3834 2567 4026 
Q 2313 4219 1838 4219 
Q 1578 4219 1281 4162 
Q 984 4106 628 3988 
L 628 4550 
Q 988 4650 1302 4700 
Q 1616 4750 1894 4750 
Q 2613 4750 3031 4423 
Q 3450 4097 3450 3541 
Q 3450 3153 3228 2886 
Q 3006 2619 2597 2516 
z
" transform="scale(0.015625)"/>
       </defs>
       <use xlink:href="#DejaVuSans-32"/>
       <use xlink:href="#DejaVuSans-30" transform="translate(63.623047 0)"/>
       <use xlink:href="#DejaVuSans-32" transform="translate(127.246094 0)"/>
       <use xlink:href="#DejaVuSans-34" transform="translate(190.869141 0)"/>
       <use xlink:href="#DejaVuSans-2d" transform="translate(254.492188 0)"/>
       <use xlink:href="#DejaVuSans-30" transform="translate(290.576172 0)"/>
       <use xlink:href="#DejaVuSans-33" transform="translate(354.199219 0)"/>
      </g>
     </g>
    </g>
    <g id="xtick_2">
     <g id="line2d_2">
      <g>
       <use xlink:href="#m6c40429345" x="116.202273" y="224.28" style="stroke: #000000; stroke-width: 0.8"/>
      </g>
     </g>
     <g id="text_2">
      <!-- 2024-05 -->
      <g transform="translate(95.310866 238.878438) scale(0.1 -0.1)">
       <defs>
        <path id="DejaVuSans-35" d="M 691 4666 
L 3169 4666 
L 3169 4134 
L 1269 4134 
L 1269 2991 
Q 1406 3038 1543 3061 
Q 1681 3084 1819 3084 
Q 2600 3084 3056 2656 
Q 3513 2228 3513 1497 
Q 3513 744 3044 326 
Q 2575 -91 1722 -91 
Q 1428 -91 1123 -41 
Q 819 9 494 109 
L 494 744 
Q 775 591 1075 516 
Q 1375 441 1709 441 
Q 2250 441 2565 725 
Q 2881 1009 2881 1497 
Q 2881 1984 2565 2268 
Q 2250 2553 1709 2553 
Q 1456 2553 1204 2497 
Q 953 2441 691 2322 
L 691 4666 
z
" transform="scale(0.015625)"/>
       </defs>
       <use xlink:href="#DejaVuSans-32"/>
       <use xlink:href="#DejaVuSans-30" transform="translate(63.623047 0)"/>
       <use xlink:href="#DejaVuSans-32" transform="translate(127.246094 0)"/>
       <use xlink:href="#DejaVuSans-34" transform="translate(190.869141 0)"/>
       <use xlink:href="#DejaVuSans-2d" transform="translate(254.492188 0)"/>
       <use xlink:href="#DejaVuSans-30" transform="translate(290.576172 0)"/>
       <use xlink:href="#DejaVuSans-35" transform="translate(354.199219 0)"/>
      </g>
     </g>
    </g>
    <g id="xtick_3">
     <g id="line2d_3">
      <g>
       <use xlink:href="#m6c40429345" x="152.639526" y="224.28" style="stroke: #000000; stroke-width: 0.8"/>
      </g>
     </g>
     <g id="text_3">
      <!-- 2024-07 -->
      <g transform="translate(131.748119 238.878438) scale(0.1 -0.1)">
       <defs>
        <path id="DejaVuSans-37" d="M 525 4666 
L 3525 4666 
L 3525 4397 
L 1831 0 
L 1172 0 
L 2766 4134 
L 525 4134 
L 525 4666 
z
" transform="scale(0.015625)"/>
       </defs>
       <use xlink:href="#DejaVuSans-32"/>
       <use xlink:href="#DejaVuSans-30" transform="translate(63.623047 0)"/>
       <use xlink:href="#DejaVuSans-32" transform="translate(127.246094 0)"/>
       <use xlink:href="#DejaVuSans-34" transform="translate(190.869141 0)"/>
       <use xlink:href="#DejaVuSans-2d" transform="translate(254.492188 0)"/>
       <use xlink:href="#DejaVuSans-30" transform="translate(290.576172 0)"/>
       <use xlink:href="#DejaVuSans-37" transform="translate(354.199219 0)"/>
      </g>
     </g>
    </g>
    <g id="xtick_4">
     <g id="line2d_4">
      <g>
       <use xlink:href="#m6c40429345" x="189.674111" y="224.28" style="stroke: #000000; stroke-width: 0.8"/>
      </g>
     </g>
     <g id="text_4">
      <!-- 2024-09 -->
      <g transform="translate(168.782704 238.878438) scale(0.1 -0.1)">
       <defs>
        <path id="DejaVuSans-39" d="M 703 97 
L 703 672 
Q 941 559 1184 500 
Q 1428 441 1663 441 
Q 2288 441 2617 861 
Q 2947 1281 2994 2138 
Q 2813 1869 2534 1725 
Q 2256 1581 1919 1581 
Q 1219 1581 811 2004 
Q 403 2428 403 3163 
Q 403 3881 828 4315 
Q 1253 4750 1959 4750 
Q 2769 4750 3195 4129 
Q 3622 3509 3622 2328 
Q 3622 1225 3098 567 
Q 2575 -91 1691 -91 
Q 1453 -91 1209 -44 
Q 966 3 703 97 
z
M 1959 2075 
Q 2384 2075 2632 2365 
Q 2881 2656 2881 3163 
Q 2881 3666 2632 3958 
Q 2384 4250 1959 4250 
Q 1534 4250 1286 3958 
Q 1038 3666 1038 3163 
Q 1038 2656 1286 2365 
Q 1534 2075 1959 2075 
z
" transform="scale(0.015625)"/>
       </defs>
       <use xlink:href="#DejaVuSans-32"/>
       <use xlink:href="#DejaVuSans-30" transform="translate(63.623047 0)"/>
       <use xlink:href="#DejaVuSans-32" transform="translate(127.246094 0)"/>
       <use xlink:href="#DejaVuSans-34" transform="translate(190.869141 0)"/>
       <use xlink:href="#DejaVuSans-2d" transform="translate(254.492188 0)"/>
       <use xlink:href="#DejaVuSans-30" transform="translate(290.576172 0)"/>
       <use xlink:href="#DejaVuSans-39" transform="translate(354.199219 0)"/>
      </g>
     </g>
    </g>
    <g id="xtick_5">
     <g id="line2d_5">
      <g>
       <use xlink:href="#m6c40429345" x="226.111364" y="224.28" style="stroke: #000000; stroke-width: 0.8"/>
      </g>
     </g>
     <g id="text_5">
      <!-- 2024-11 -->
      <g transform="translate(205.219957 238.878438) scale(0.1 -0.1)">
       <defs>
        <path id="DejaVuSans-31" d="M 794 531 
L 1825 531 
L 1825 4091 
L 703 3866 
L 703 4441 
L 1819 4666 
L 2450 4666 
L 2450 531 
L 3481 531 
L 3481 0 
L 794 0 
L 794 531 
z
" transform="scale(0.015625)"/>
       </defs>
       <use xlink:href="#DejaVuSans-32"/>
       <use xlink:href="#DejaVuSans-30" transform="translate(63.623047 0)"/>
       <use xlink:href="#DejaVuSans-32" transform="translate(127.246094 0)"/>
       <use xlink:href="#DejaVuSans-34" transform="translate(190.869141 0)"/>
       <use xlink:href="#DejaVuSans-2d" transform="translate(254.492188 0)"/>
       <use xlink:href="#DejaVuSans-31" transform="translate(290.576172 0)"/>
       <use xlink:href="#DejaVuSans-31" transform="translate(354.199219 0)"/>
      </g>
     </g>
    </g>
    <g id="xtick_6">
     <g id="line2d_6">
      <g>
       <use xlink:href="#m6c40429345" x="262.548617" y="224.28" style="stroke: #000000; stroke-width: 0.8"/>
      </g>
     </g>
     <g id="text_6">
      <!-- 2025-01 -->
      <g transform="translate(241.65721 238.878438) scale(0.1 -0.1)">
       <use xlink:href="#DejaVuSans-32"/>
       <use xlink:href="#DejaVuSans-30" transform="translate(63.623047 0)"/>
       <use xlink:href="#DejaVuSans-32" transform="translate(127.246094 0)"/>
       <use xlink:href="#DejaVuSans-35" transform="translate(190.869141 0)"/>
       <use xlink:href="#DejaVuSans-2d" transform="translate(254.492188 0)"/>
       <use xlink:href="#DejaVuSans-30" transform="translate(290.576172 0)"/>
       <use xlink:href="#DejaVuSans-31" transform="translate(354.199219 0)"/>
      </g>
     </g>
    </g>
    <g id="xtick_7">
     <g id="line2d_7">
      <g>
       <use xlink:href="#m6c40429345" x="297.791206" y="224.28" style="stroke: #000000; stroke-width: 0.8"/>
      </g>
     </g>
     <g id="text_7">
      <!-- 2025-03 -->
      <g transform="translate(276.899799 238.878438) scale(0.1 -0.1)">
       <use xlink:href="#DejaVuSans-32"/>
       <use xlink:href="#DejaVuSans-30" transform="translate(63.623047 0)"/>
       <use xlink:href="#DejaVuSans-32" transform="translate(127.246094 0)"/>
       <use xlink:href="#DejaVuSans-35" transform="translate(190.869141 0)"/>
       <use xlink:href="#DejaVuSans-2d" transform="translate(254.492188 0)"/>
       <use xlink:href="#DejaVuSans-30" transform="translate(290.576172 0)"/>
       <use xlink:href="#DejaVuSans-33" transform="translate(354.199219 0)"/>
      </g>
     </g>
    </g>
    <g id="xtick_8">
     <g id="line2d_8">
      <g>
       <use xlink:href="#m6c40429345" x="334.228458" y="224.28" style="stroke: #000000; stroke-width: 0.8"/>
      </g>
     </g>
     <g id="text_8">
      <!-- 2025-05 -->
      <g transform="translate(313.337052 238.878438) scale(0.1 -0.1)">
       <use xlink:href="#DejaVuSans-32"/>
       <use xlink:href="#DejaVuSans-30" transform="translate(63.623047 0)"/>
       <use xlink:href="#DejaVuSans-32" transform="translate(127.246094 0)"/>
       <use xlink:href="#DejaVuSans-35" transform="translate(190.869141 0)"/>
       <use xlink:href="#DejaVuSans-2d" transform="translate(254.492188 0)"/>
       <use xlink:href="#DejaVuSans-30" transform="translate(290.576172 0)"/>
       <use xlink:href="#DejaVuSans-35" transform="translate(354.199219 0)"/>
      </g>
     </g>
    </g>
    <g id="xtick_9">
     <g id="line2d_9">
      <g>
       <use xlink:href="#m6c40429345" x="370.665711" y="224.28" style="stroke: #000000; stroke-width: 0.8"/>
      </g>
     </g>
     <g id="text_9">
      <!-- 2025-07 -->
      <g transform="translate(349.774305 238.878438) scale(0.1 -0.1)">
       <use xlink:href="#DejaVuSans-32"/>
       <use xlink:href="#DejaVuSans-30" transform="translate(63.623047 0)"/>
       <use xlink:href="#DejaVuSans-32" transform="translate(127.246094 0)"/>
       <use xlink:href="#DejaVuSans-35" transform="translate(190.869141 0)"/>
       <use xlink:href="#DejaVuSans-2d" transform="translate(254.492188 0)"/>
       <use xlink:href="#DejaVuSans-30" transform="translate(290.576172 0)"/>
       <use xlink:href="#DejaVuSans-37" transform="translate(354.199219 0)"/>
      </g>
     </g>
    </g>
    <g id="xtick_10">
     <g id="line2d_10">
      <g>
       <use xlink:href="#m6c40429345" x="407.700296" y="224.28" style="stroke: #000000; stroke-width: 0.8"/>
      </g>
     </g>
     <g id="text_10">
      <!-- 2025-09 -->
      <g transform="translate(386.80889 238.878438) scale(0.1 -0.1)">
       <use xlink:href="#DejaVuSans-32"/>
       <use xlink:href="#DejaVuSans-30" transform="translate(63.623047 0)"/>
       <use xlink:href="#DejaVuSans-32" transform="translate(127.246094 0)"/>
       <use xlink:href="#DejaVuSans-35" transform="translate(190.869141 0)"/>
       <use xlink:href="#DejaVuSans-2d" transform="translate(254.492188 0)"/>
       <use xlink:href="#DejaVuSans-30" transform="translate(290.576172 0)"/>
       <use xlink:href="#DejaVuSans-39" transform="translate(354.199219 0)"/>
      </g>
     </g>
    </g>
   </g>
   <g id="matplotlib.axis_2">
    <g id="ytick_1">
     <g id="line2d_11">
      <defs>
       <path id="mdee073d0ce" d="M 0 0 
L -3.5 0 
" style="stroke: #000000; stroke-width: 0.8"/>
      </defs>
      <g>
       <use xlink:href="#mdee073d0ce" x="58.5" y="218.697105" style="stroke: #000000; stroke-width: 0.8"/>
      </g>
     </g>
     <g id="text_11">
      <!-- 350 -->
      <g transform="translate(32.4125 222.496324) scale(0.1 -0.1)">
       <use xlink:href="#DejaVuSans-33"/>
       <use xlink:href="#DejaVuSans-35" transform="translate(63.623047 0)"/>
       <use xlink:href="#DejaVuSans-30" transform="translate(127.246094 0)"/>
      </g>
     </g>
    </g>
    <g id="ytick_2">
     <g id="line2d_12">
      <g>
       <use xlink:href="#mdee073d0ce" x="58.5" y="194.390409" style="stroke: #000000; stroke-width: 0.8"/>
      </g>
     </g>
     <g id="text_12">
      <!-- 375 -->
      <g transform="translate(32.4125 198.189628) scale(0.1 -0.1)">
       <use xlink:href="#DejaVuSans-33"/>
       <use xlink:href="#DejaVuSans-37" transform="translate(63.623047 0)"/>
       <use xlink:href="#DejaVuSans-35" transform="translate(127.246094 0)"/>
      </g>
     </g>
    </g>
    <g id="ytick_3">
     <g id="line2d_13">
      <g>
       <use xlink:href="#mdee073d0ce" x="58.5" y="170.083713" style="stroke: #000000; stroke-width: 0.8"/>
      </g>
     </g>
     <g id="text_13">
      <!-- 400 -->
      <g transform="translate(32.4125 173.882932) scale(0.1 -0.1)">
       <use xlink:href="#DejaVuSans-34"/>
       <use xlink:href="#DejaVuSans-30" transform="translate(63.623047 0)"/>
       <use xlink:href="#DejaVuSans-30" transform="translate(127.246094 0)"/>
      </g>
     </g>
    </g>
    <g id="ytick_4">
     <g id="line2d_14">
      <g>
       <use xlink:href="#mdee073d0ce" x="58.5" y="145.777017" style="stroke: #000000; stroke-width: 0.8"/>
      </g>
     </g>
     <g id="text_14">
      <!-- 425 -->
      <g transform="translate(32.4125 149.576236) scale(0.1 -0.1)">
       <use xlink:href="#DejaVuSans-34"/>
       <use xlink:href="#DejaVuSans-32" transform="translate(63.623047 0)"/>
       <use xlink:href="#DejaVuSans-35" transform="translate(127.246094 0)"/>
      </g>
     </g>
    </g>
    <g id="ytick_5">
     <g id="line2d_15">
      <g>
       <use xlink:href="#mdee073d0ce" x="58.5" y="121.470321" style="stroke: #000000; stroke-width: 0.8"/>
      </g>
     </g>
     <g id="text_15">
      <!-- 450 -->
      <g transform="translate(32.4125 125.26954) scale(0.1 -0.1)">
       <use xlink:href="#DejaVuSans-34"/>
       <use xlink:href="#DejaVuSans-35" transform="translate(63.623047 0)"/>
       <use xlink:href="#DejaVuSans-30" transform="translate(127.246094 0)"/>
      </g>
     </g>
    </g>
    <g id="ytick_6">
     <g id="line2d_16">
      <g>
       <use xlink:href="#mdee073d0ce" x="58.5" y="97.163625" style="stroke: #000000; stroke-width: 0.8"/>
      </g>
     </g>
     <g id="text_16">
      <!-- 475 -->
      <g transform="translate(32.4125 100.962844) scale(0.1 -0.1)">
       <use xlink:href="#DejaVuSans-34"/>
       <use xlink:href="#DejaVuSans-37" transform="translate(63.623047 0)"/>
       <use xlink:href="#DejaVuSans-35" transform="translate(127.246094 0)"/>
      </g>
     </g>
    </g>
    <g id="ytick_7">
     <g id="line2d_17">
      <g>
       <use xlink:href="#mdee073d0ce" x="58.5" y="72.85693" style="stroke: #000000; stroke-width: 0.8"/>
      </g>
     </g>
     <g id="text_17">
      <!-- 500 -->
      <g transform="translate(32.4125 76.656148) scale(0.1 -0.1)">
       <use xlink:href="#DejaVuSans-35"/>
       <use xlink:href="#DejaVuSans-30" transform="translate(63.623047 0)"/>
       <use xlink:href="#DejaVuSans-30" transform="translate(127.246094 0)"/>
      </g>
     </g>
    </g>
    <g id="ytick_8">
     <g id="line2d_18">
      <g>
       <use xlink:href="#mdee073d0ce" x="58.5" y="48.550234" style="stroke: #000000; stroke-width: 0.8"/>
      </g>
     </g>
     <g id="text_18">
      <!-- 525 -->
      <g transform="translate(32.4125 52.349452) scale(0.1 -0.1)">
       <use xlink:href="#DejaVuSans-35"/>
       <use xlink:href="#DejaVuSans-32" transform="translate(63.623047 0)"/>
       <use xlink:href="#DejaVuSans-35" transform="translate(127.246094 0)"/>
      </g>
     </g>
    </g>
   </g>
   <g id="line2d_19">
    <path d="M 74.986364 163.167876 
L 75.583696 164.427481 
L 77.375692 167.119792 
L 77.973024 167.177502 
L 78.570356 166.946749 
L 79.167688 161.254347 
L 79.76502 159.465882 
L 81.557016 160.023554 
L 82.154348 171.821826 
L 82.75168 172.36027 
L 83.349012 165.581337 
L 83.946344 168.389098 
L 85.73834 170.023747 
L 86.335672 159.677439 
L 86.933004 159.850481 
L 87.530336 150.119614 
L 88.127668 158.581264 
L 89.919664 157.715872 
L 91.71166 146.129126 
L 92.308992 146.734924 
L 94.100988 152.388901 
L 94.69832 153.552371 
L 95.295652 153.763897 
L 95.892984 154.446573 
L 98.282312 150.74455 
L 98.879644 153.754224 
L 99.476976 154.706167 
L 100.074308 157.177338 
L 100.67164 149.83112 
L 102.463636 150.725382 
L 103.060968 149.100317 
L 103.6583 152.004184 
L 104.255632 147.513765 
L 104.852964 153.311945 
L 106.64496 161.254347 
L 107.242292 160.350531 
L 107.839625 162.985131 
L 108.436957 170.264144 
L 109.034289 175.216099 
L 110.826285 173.446861 
L 111.423617 167.090981 
L 112.020949 165.658274 
L 112.618281 175.293007 
L 113.215613 168.292904 
L 115.007609 172.206454 
L 115.604941 184.629692 
L 116.202273 179.235398 
L 116.799605 176.446863 
L 117.396937 167.965986 
L 119.188933 161.350482 
L 119.786265 165.389008 
L 120.383597 164.235181 
L 120.980929 162.523624 
L 121.578261 160.196626 
L 123.370257 161.177439 
L 123.967589 158.446645 
L 124.564921 151.443516 
L 125.162253 153.456829 
L 125.759585 154.208165 
L 127.551581 149.266535 
L 128.148913 145.702305 
L 128.746245 144.27669 
L 129.343577 147.667432 
L 129.940909 144.623458 
L 132.330237 144.469316 
L 132.927569 145.577092 
L 133.524901 159.544778 
L 134.122233 159.101638 
L 135.914229 160.652525 
L 136.511561 158.196131 
L 137.108893 150.547681 
L 137.706225 150.056414 
L 138.303557 150.701764 
L 140.095553 146.829397 
L 140.692885 142.195993 
L 141.290217 134.12366 
L 141.887549 133.62272 
L 142.484881 132.669056 
L 144.276877 127.081987 
L 144.874209 129.037472 
L 146.068874 129.653981 
L 146.666206 125.723785 
L 148.458202 127.756326 
L 149.055534 124.596723 
L 149.652866 123.431146 
L 150.250198 122.766481 
L 150.84753 128.449892 
L 152.639526 119.02894 
L 153.236858 116.572575 
L 153.83419 115.137258 
L 155.028854 108.596555 
L 156.82085 109.868087 
L 157.418182 116.322091 
L 158.015514 109.858415 
L 158.612846 120.984395 
L 159.210178 122.092172 
L 161.002174 121.697247 
L 161.599506 125.974211 
L 162.196838 131.753935 
L 163.391502 137.928583 
L 165.78083 130.472789 
L 166.378162 145.83719 
L 166.975494 155.951678 
L 167.572826 149.333948 
L 169.364822 147.927531 
L 169.962154 151.597658 
L 170.559486 155.999864 
L 171.156818 157.194369 
L 171.75415 165.497901 
L 173.546146 178.348138 
L 174.143478 174.051858 
L 174.74081 175.188535 
L 175.338142 171.08494 
L 175.935474 167.87721 
L 177.72747 167.116172 
L 178.324802 160.180544 
L 178.922134 157.435181 
L 179.519466 152.687246 
L 180.116798 155.157705 
L 181.908794 152.204761 
L 182.506126 149.049104 
L 183.103458 149.686028 
L 183.700791 157.975614 
L 184.298123 156.778942 
L 186.090119 159.963499 
L 186.687451 159.625751 
L 187.284783 162.752449 
L 187.882115 160.320593 
L 188.479447 156.441194 
L 190.868775 163.871857 
L 192.063439 164.885101 
L 192.660771 171.341122 
L 194.452767 167.461753 
L 195.647431 150.747547 
L 196.842095 143.46165 
L 198.634091 142.737879 
L 199.231423 139.061135 
L 199.828755 143.249323 
L 200.426087 135.644964 
L 201.023419 138.945328 
L 202.815415 140.643741 
L 203.412747 144.831958 
L 204.010079 141.994822 
L 204.607411 142.766838 
L 205.204743 145.941782 
L 206.996739 143.741539 
L 207.594071 153.01538 
L 208.191403 156.450808 
L 209.386067 157.483397 
L 211.178063 163.775336 
L 211.775395 158.786203 
L 212.372727 156.132405 
L 212.970059 157.695725 
L 213.567391 157.232497 
L 215.359387 154.511138 
L 215.956719 154.897161 
L 216.554051 157.425509 
L 217.151383 156.846474 
L 217.748715 155.45691 
L 219.540711 154.858559 
L 220.138043 146.43388 
L 220.735375 149.242086 
L 221.332708 149.116666 
L 221.93004 145.816302 
L 223.722036 147.321703 
L 224.319368 142.149172 
L 224.9167 141.589483 
L 225.514032 166.853789 
L 226.111364 162.97442 
L 227.90336 164.817628 
L 228.500692 161.922544 
L 229.098024 153.507537 
L 229.695356 148.44114 
L 230.292688 151.230061 
L 232.084684 155.601616 
L 232.682016 150.757219 
L 233.279348 148.663081 
L 233.87668 147.0322 
L 234.474012 158.506314 
L 236.266008 157.772929 
L 236.86334 155.813914 
L 237.460672 158.033473 
L 238.058004 159.764316 
L 238.655336 155.770802 
L 240.447332 154.039959 
L 241.044664 145.143981 
L 241.641996 149.978764 
L 242.83666 149.52429 
L 244.628656 142.252754 
L 245.225988 142.040041 
L 246.420652 130.997436 
L 247.017984 130.078814 
L 248.80998 127.709831 
L 249.407312 130.310903 
L 250.004644 124.83792 
L 250.601976 124.286777 
L 251.199308 126.501113 
L 252.991304 122.323874 
L 253.588636 119.548722 
L 254.185968 136.054576 
L 255.380632 136.818492 
L 257.172628 138.123879 
L 257.76996 134.178729 
L 258.964625 135.358399 
L 259.561957 142.687913 
L 261.353953 148.199557 
L 261.951285 151.419541 
L 263.145949 154.243029 
L 263.743281 149.630631 
L 265.535277 145.279341 
L 266.132609 150.578272 
L 266.729941 148.460634 
L 267.924605 153.885253 
L 269.716601 155.587077 
L 270.313933 157.056843 
L 270.911265 146.768453 
L 271.508597 148.441318 
L 272.105929 144.138333 
L 274.495257 144.650815 
L 275.092589 127.535691 
L 275.689921 127.042614 
L 276.287253 129.604994 
L 278.079249 138.791097 
L 278.676581 126.568764 
L 279.273913 131.277889 
L 279.871245 157.714388 
L 280.468577 157.646678 
L 282.260573 161.649895 
L 282.857905 160.247809 
L 283.455237 159.358176 
L 284.052569 156.91181 
L 284.649901 162.78123 
L 286.441897 160.392842 
L 287.039229 161.147086 
L 287.636561 163.467764 
L 288.233893 162.017314 
L 288.831225 164.057629 
L 291.220553 162.887572 
L 291.817885 157.927101 
L 292.415217 155.80522 
L 293.012549 163.478891 
L 294.804545 167.557917 
L 295.401877 173.468165 
L 295.999209 171.69507 
L 296.596542 178.671139 
L 297.193874 174.349876 
L 298.98587 182.585461 
L 299.583202 182.469209 
L 300.180534 170.445228 
L 303.167194 190.65634 
L 303.764526 190.375324 
L 304.361858 187.643075 
L 304.95919 192.003119 
L 305.556522 182.517632 
L 307.348518 182.381975 
L 307.94585 187.400839 
L 308.543182 183.234609 
L 309.140514 184.184119 
L 309.737846 179.901606 
L 311.529842 178.138243 
L 312.127174 176.122912 
L 312.724506 181.151479 
L 313.321838 180.560486 
L 313.91917 191.974041 
L 315.711166 195.277936 
L 316.308498 188.689492 
L 316.90583 188.737915 
L 317.503162 197.48705 
L 318.100494 210.344259 
L 319.89249 212.262655 
L 320.489822 215.46 
L 321.087154 180.647661 
L 321.684486 189.503345 
L 322.281818 182.624212 
L 324.073814 183.244311 
L 324.671146 185.259583 
L 325.268478 198.940378 
L 325.86581 202.651244 
L 328.255138 211.04186 
L 329.449802 196.246821 
L 330.047134 183.738456 
L 330.644466 179.32996 
L 332.436462 179.998483 
L 333.033794 177.208079 
L 333.631126 176.026036 
L 334.228458 146.823611 
L 334.825791 137.250921 
L 336.617787 136.388615 
L 337.215119 139.159644 
L 337.812451 139.120893 
L 338.409783 134.450815 
L 339.007115 133.908246 
L 340.799111 123.705784 
L 341.396443 123.822036 
L 341.993775 120.140277 
L 343.188439 118.043617 
L 344.980435 113.578538 
L 345.577767 114.25798 
L 346.175099 119.693755 
L 346.772431 117.470932 
L 347.369763 122.013661 
L 349.759091 111.811911 
L 350.356423 115.044239 
L 350.953755 113.762945 
L 351.551087 112.132242 
L 353.343083 110.569427 
L 354.537747 108.72518 
L 355.135079 105.026925 
L 355.732411 102.406092 
L 357.524407 100.10559 
L 358.121739 101.881919 
L 358.719071 100.231782 
L 359.316403 94.165078 
L 359.913735 97.960417 
L 361.705731 93.902991 
L 362.303063 94.970741 
L 362.900395 92.835271 
L 364.095059 95.591968 
L 365.887055 87.244197 
L 366.484387 83.254748 
L 367.081719 81.158088 
L 367.679051 76.129996 
L 368.276383 77.595697 
L 370.068379 76.168806 
L 370.665711 81.371632 
L 371.263043 82.303457 
L 371.860375 74.780755 
L 374.249704 75.86791 
L 374.847036 76.93566 
L 375.444368 70.247698 
L 376.0417 72.218167 
L 376.639032 70.432135 
L 378.431028 70.723358 
L 379.02836 68.005471 
L 379.625692 68.19961 
L 380.223024 62.297907 
L 380.820356 63.899532 
L 382.612352 63.88983 
L 383.209684 68.539346 
L 383.807016 67.956929 
L 384.404348 63.093869 
L 385.00168 60.346814 
L 386.793676 61.521381 
L 387.391008 61.453434 
L 387.98834 60.803099 
L 388.585672 41.137285 
L 389.183004 50.25188 
L 390.975 39.06 
L 391.572332 46.718627 
L 392.169664 49.446187 
L 392.766996 53.425934 
L 393.364328 52.261159 
L 395.156324 52.523215 
L 395.753656 45.272331 
L 396.350988 53.678317 
L 396.94832 51.834071 
L 397.545652 54.076328 
L 399.337648 57.056331 
L 399.93498 64.171321 
L 400.532312 68.102526 
L 401.129644 68.734523 
L 401.726976 65.827422 
L 403.518972 68.715059 
L 404.116304 70.873495 
L 404.713636 66.303854 
L 404.713636 66.303854 
" clip-path="url(#p7f72d8f280)" style="fill: none; stroke: #1f77b4; stroke-width: 1.5; stroke-linecap: square"/>
   </g>
   <g id="patch_3">
    <path d="M 58.5 224.28 
L 58.5 30.24 
" style="fill: none; stroke: #000000; stroke-width: 0.8; stroke-linejoin: miter; stroke-linecap: square"/>
   </g>
   <g id="patch_4">
    <path d="M 58.5 224.28 
L 421.2 224.28 
" style="fill: none; stroke: #000000; stroke-width: 0.8; stroke-linejoin: miter; stroke-linecap: square"/>
   </g>
  </g>
 </g>
 <defs>
  <clipPath id="p7f72d8f280">
   <rect x="58.5" y="30.24" width="362.7" height="194.04"/>
  </clipPath>
 </defs>
</svg>
