<?xml version="1.0" encoding="utf-8" standalone="no"?>
<!DOCTYPE svg PUBLIC "-//W3C//DTD SVG 1.1//EN"
  "http://www.w3.org/Graphics/SVG/1.1/DTD/svg11.dtd">
<svg xmlns:xlink="http://www.w3.org/1999/xlink" width="756pt" height="252pt" viewBox="0 0 756 252" xmlns="http://www.w3.org/2000/svg" version="1.1">
 <metadata>
  <rdf:RDF xmlns:dc="http://purl.org/dc/elements/1.1/" xmlns:cc="http://creativecommons.org/ns#" xmlns:rdf="http://www.w3.org/1999/02/22-rdf-syntax-ns#">
   <cc:Work>
    <dc:type rdf:resource="http://purl.org/dc/dcmitype/StillImage"/>
    <dc:date>2025-09-07T00:54:28.160178</dc:date>
    <dc:format>image/svg+xml</dc:format>
    <dc:creator>
     <cc:Agent>
      <dc:title>Matplotlib v3.10.5, https://matplotlib.org/</dc:title>
     </cc:Agent>
    </dc:creator>
   </cc:Work>
  </rdf:RDF>
 </metadata>
 <defs>
  <style type="text/css">*{stroke-linejoin: round; stroke-linecap: butt}</style>
 </defs>
 <g id="figure_1">
  <g id="patch_1">
   <path d="M 0 252 
L 756 252 
L 756 0 
L 0 0 
z
" style="fill: #ffffff"/>
  </g>
  <g id="axes_1">
   <g id="patch_2">
    <path d="M 94.5 224.28 
L 680.4 224.28 
L 680.4 30.24 
L 94.5 30.24 
z
" style="fill: #ffffff"/>
   </g>
   <g id="matplotlib.axis_1">
    <g id="xtick_1">
     <g id="line2d_1">
      <defs>
       <path id="mc2c131bd37" d="M 0 0 
L 0 3.5 
" style="stroke: #000000; stroke-width: 0.8"/>
      </defs>
      <g>
       <use xlink:href="#mc2c131bd37" x="115.680861" y="224.28" style="stroke: #000000; stroke-width: 0.8"/>
      </g>
     </g>
     <g id="text_1">
      <!-- 2020 -->
      <g transform="translate(102.955861 238.878438) scale(0.1 -0.1)">
       <defs>
        <path id="DejaVuSans-32" d="M 1228 531 
L 3431 531 
L 3431 0 
L 469 0 
L 469 531 
Q 828 903 1448 1529 
Q 2069 2156 2228 2338 
Q 2531 2678 2651 2914 
Q 2772 3150 2772 3378 
Q 2772 3750 2511 3984 
Q 2250 4219 1831 4219 
Q 1534 4219 1204 4116 
Q 875 4013 500 3803 
L 500 4441 
Q 881 4594 1212 4672 
Q 1544 4750 1819 4750 
Q 2544 4750 2975 4387 
Q 3406 4025 3406 3419 
Q 3406 3131 3298 2873 
Q 3191 2616 2906 2266 
Q 2828 2175 2409 1742 
Q 1991 1309 1228 531 
z
" transform="scale(0.015625)"/>
        <path id="DejaVuSans-30" d="M 2034 4250 
Q 1547 4250 1301 3770 
Q 1056 3291 1056 2328 
Q 1056 1369 1301 889 
Q 1547 409 2034 409 
Q 2525 409 2770 889 
Q 3016 1369 3016 2328 
Q 3016 3291 2770 3770 
Q 2525 4250 2034 4250 
z
M 2034 4750 
Q 2819 4750 3233 4129 
Q 3647 3509 3647 2328 
Q 3647 1150 3233 529 
Q 2819 -91 2034 -91 
Q 1250 -91 836 529 
Q 422 1150 422 2328 
Q 422 3509 836 4129 
Q 1250 4750 2034 4750 
z
" transform="scale(0.015625)"/>
       </defs>
       <use xlink:href="#DejaVuSans-32"/>
       <use xlink:href="#DejaVuSans-30" transform="translate(63.623047 0)"/>
       <use xlink:href="#DejaVuSans-32" transform="translate(127.246094 0)"/>
       <use xlink:href="#DejaVuSans-30" transform="translate(190.869141 0)"/>
      </g>
     </g>
    </g>
    <g id="xtick_2">
     <g id="line2d_2">
      <g>
       <use xlink:href="#mc2c131bd37" x="210.683254" y="224.28" style="stroke: #000000; stroke-width: 0.8"/>
      </g>
     </g>
     <g id="text_2">
      <!-- 2021 -->
      <g transform="translate(197.958254 238.878438) scale(0.1 -0.1)">
       <defs>
        <path id="DejaVuSans-31" d="M 794 531 
L 1825 531 
L 1825 4091 
L 703 3866 
L 703 4441 
L 1819 4666 
L 2450 4666 
L 2450 531 
L 3481 531 
L 3481 0 
L 794 0 
L 794 531 
z
" transform="scale(0.015625)"/>
       </defs>
       <use xlink:href="#DejaVuSans-32"/>
       <use xlink:href="#DejaVuSans-30" transform="translate(63.623047 0)"/>
       <use xlink:href="#DejaVuSans-32" transform="translate(127.246094 0)"/>
       <use xlink:href="#DejaVuSans-31" transform="translate(190.869141 0)"/>
      </g>
     </g>
    </g>
    <g id="xtick_3">
     <g id="line2d_3">
      <g>
       <use xlink:href="#mc2c131bd37" x="305.426077" y="224.28" style="stroke: #000000; stroke-width: 0.8"/>
      </g>
     </g>
     <g id="text_3">
      <!-- 2022 -->
      <g transform="translate(292.701077 238.878438) scale(0.1 -0.1)">
       <use xlink:href="#DejaVuSans-32"/>
       <use xlink:href="#DejaVuSans-30" transform="translate(63.623047 0)"/>
       <use xlink:href="#DejaVuSans-32" transform="translate(127.246094 0)"/>
       <use xlink:href="#DejaVuSans-32" transform="translate(190.869141 0)"/>
      </g>
     </g>
    </g>
    <g id="xtick_4">
     <g id="line2d_4">
      <g>
       <use xlink:href="#mc2c131bd37" x="400.1689" y="224.28" style="stroke: #000000; stroke-width: 0.8"/>
      </g>
     </g>
     <g id="text_4">
      <!-- 2023 -->
      <g transform="translate(387.4439 238.878438) scale(0.1 -0.1)">
       <defs>
        <path id="DejaVuSans-33" d="M 2597 2516 
Q 3050 2419 3304 2112 
Q 3559 1806 3559 1356 
Q 3559 666 3084 287 
Q 2609 -91 1734 -91 
Q 1441 -91 1130 -33 
Q 819 25 488 141 
L 488 750 
Q 750 597 1062 519 
Q 1375 441 1716 441 
Q 2309 441 2620 675 
Q 2931 909 2931 1356 
Q 2931 1769 2642 2001 
Q 2353 2234 1838 2234 
L 1294 2234 
L 1294 2753 
L 1863 2753 
Q 2328 2753 2575 2939 
Q 2822 3125 2822 3475 
Q 2822 3834 2567 4026 
Q 2313 4219 1838 4219 
Q 1578 4219 1281 4162 
Q 984 4106 628 3988 
L 628 4550 
Q 988 4650 1302 4700 
Q 1616 4750 1894 4750 
Q 2613 4750 3031 4423 
Q 3450 4097 3450 3541 
Q 3450 3153 3228 2886 
Q 3006 2619 2597 2516 
z
" transform="scale(0.015625)"/>
       </defs>
       <use xlink:href="#DejaVuSans-32"/>
       <use xlink:href="#DejaVuSans-30" transform="translate(63.623047 0)"/>
       <use xlink:href="#DejaVuSans-32" transform="translate(127.246094 0)"/>
       <use xlink:href="#DejaVuSans-33" transform="translate(190.869141 0)"/>
      </g>
     </g>
    </g>
    <g id="xtick_5">
     <g id="line2d_5">
      <g>
       <use xlink:href="#mc2c131bd37" x="494.911722" y="224.28" style="stroke: #000000; stroke-width: 0.8"/>
      </g>
     </g>
     <g id="text_5">
      <!-- 2024 -->
      <g transform="translate(482.186722 238.878438) scale(0.1 -0.1)">
       <defs>
        <path id="DejaVuSans-34" d="M 2419 4116 
L 825 1625 
L 2419 1625 
L 2419 4116 
z
M 2253 4666 
L 3047 4666 
L 3047 1625 
L 3713 1625 
L 3713 1100 
L 3047 1100 
L 3047 0 
L 2419 0 
L 2419 1100 
L 313 1100 
L 313 1709 
L 2253 4666 
z
" transform="scale(0.015625)"/>
       </defs>
       <use xlink:href="#DejaVuSans-32"/>
       <use xlink:href="#DejaVuSans-30" transform="translate(63.623047 0)"/>
       <use xlink:href="#DejaVuSans-32" transform="translate(127.246094 0)"/>
       <use xlink:href="#DejaVuSans-34" transform="translate(190.869141 0)"/>
      </g>
     </g>
    </g>
    <g id="xtick_6">
     <g id="line2d_6">
      <g>
       <use xlink:href="#mc2c131bd37" x="589.914115" y="224.28" style="stroke: #000000; stroke-width: 0.8"/>
      </g>
     </g>
     <g id="text_6">
      <!-- 2025 -->
      <g transform="translate(577.189115 238.878438) scale(0.1 -0.1)">
       <defs>
        <path id="DejaVuSans-35" d="M 691 4666 
L 3169 4666 
L 3169 4134 
L 1269 4134 
L 1269 2991 
Q 1406 3038 1543 3061 
Q 1681 3084 1819 3084 
Q 2600 3084 3056 2656 
Q 3513 2228 3513 1497 
Q 3513 744 3044 326 
Q 2575 -91 1722 -91 
Q 1428 -91 1123 -41 
Q 819 9 494 109 
L 494 744 
Q 775 591 1075 516 
Q 1375 441 1709 441 
Q 2250 441 2565 725 
Q 2881 1009 2881 1497 
Q 2881 1984 2565 2268 
Q 2250 2553 1709 2553 
Q 1456 2553 1204 2497 
Q 953 2441 691 2322 
L 691 4666 
z
" transform="scale(0.015625)"/>
       </defs>
       <use xlink:href="#DejaVuSans-32"/>
       <use xlink:href="#DejaVuSans-30" transform="translate(63.623047 0)"/>
       <use xlink:href="#DejaVuSans-32" transform="translate(127.246094 0)"/>
       <use xlink:href="#DejaVuSans-35" transform="translate(190.869141 0)"/>
      </g>
     </g>
    </g>
   </g>
   <g id="matplotlib.axis_2">
    <g id="ytick_1">
     <g id="line2d_7">
      <defs>
       <path id="m80aef39315" d="M 0 0 
L -3.5 0 
" style="stroke: #000000; stroke-width: 0.8"/>
      </defs>
      <g>
       <use xlink:href="#m80aef39315" x="94.5" y="206.40113" style="stroke: #000000; stroke-width: 0.8"/>
      </g>
     </g>
     <g id="text_7">
      <!-- 150 -->
      <g transform="translate(68.4125 210.200349) scale(0.1 -0.1)">
       <use xlink:href="#DejaVuSans-31"/>
       <use xlink:href="#DejaVuSans-35" transform="translate(63.623047 0)"/>
       <use xlink:href="#DejaVuSans-30" transform="translate(127.246094 0)"/>
      </g>
     </g>
    </g>
    <g id="ytick_2">
     <g id="line2d_8">
      <g>
       <use xlink:href="#m80aef39315" x="94.5" y="184.655012" style="stroke: #000000; stroke-width: 0.8"/>
      </g>
     </g>
     <g id="text_8">
      <!-- 200 -->
      <g transform="translate(68.4125 188.454231) scale(0.1 -0.1)">
       <use xlink:href="#DejaVuSans-32"/>
       <use xlink:href="#DejaVuSans-30" transform="translate(63.623047 0)"/>
       <use xlink:href="#DejaVuSans-30" transform="translate(127.246094 0)"/>
      </g>
     </g>
    </g>
    <g id="ytick_3">
     <g id="line2d_9">
      <g>
       <use xlink:href="#m80aef39315" x="94.5" y="162.908894" style="stroke: #000000; stroke-width: 0.8"/>
      </g>
     </g>
     <g id="text_9">
      <!-- 250 -->
      <g transform="translate(68.4125 166.708113) scale(0.1 -0.1)">
       <use xlink:href="#DejaVuSans-32"/>
       <use xlink:href="#DejaVuSans-35" transform="translate(63.623047 0)"/>
       <use xlink:href="#DejaVuSans-30" transform="translate(127.246094 0)"/>
      </g>
     </g>
    </g>
    <g id="ytick_4">
     <g id="line2d_10">
      <g>
       <use xlink:href="#m80aef39315" x="94.5" y="141.162776" style="stroke: #000000; stroke-width: 0.8"/>
      </g>
     </g>
     <g id="text_10">
      <!-- 300 -->
      <g transform="translate(68.4125 144.961995) scale(0.1 -0.1)">
       <use xlink:href="#DejaVuSans-33"/>
       <use xlink:href="#DejaVuSans-30" transform="translate(63.623047 0)"/>
       <use xlink:href="#DejaVuSans-30" transform="translate(127.246094 0)"/>
      </g>
     </g>
    </g>
    <g id="ytick_5">
     <g id="line2d_11">
      <g>
       <use xlink:href="#m80aef39315" x="94.5" y="119.416658" style="stroke: #000000; stroke-width: 0.8"/>
      </g>
     </g>
     <g id="text_11">
      <!-- 350 -->
      <g transform="translate(68.4125 123.215877) scale(0.1 -0.1)">
       <use xlink:href="#DejaVuSans-33"/>
       <use xlink:href="#DejaVuSans-35" transform="translate(63.623047 0)"/>
       <use xlink:href="#DejaVuSans-30" transform="translate(127.246094 0)"/>
      </g>
     </g>
    </g>
    <g id="ytick_6">
     <g id="line2d_12">
      <g>
       <use xlink:href="#m80aef39315" x="94.5" y="97.67054" style="stroke: #000000; stroke-width: 0.8"/>
      </g>
     </g>
     <g id="text_12">
      <!-- 400 -->
      <g transform="translate(68.4125 101.469759) scale(0.1 -0.1)">
       <use xlink:href="#DejaVuSans-34"/>
       <use xlink:href="#DejaVuSans-30" transform="translate(63.623047 0)"/>
       <use xlink:href="#DejaVuSans-30" transform="translate(127.246094 0)"/>
      </g>
     </g>
    </g>
    <g id="ytick_7">
     <g id="line2d_13">
      <g>
       <use xlink:href="#m80aef39315" x="94.5" y="75.924422" style="stroke: #000000; stroke-width: 0.8"/>
      </g>
     </g>
     <g id="text_13">
      <!-- 450 -->
      <g transform="translate(68.4125 79.723641) scale(0.1 -0.1)">
       <use xlink:href="#DejaVuSans-34"/>
       <use xlink:href="#DejaVuSans-35" transform="translate(63.623047 0)"/>
       <use xlink:href="#DejaVuSans-30" transform="translate(127.246094 0)"/>
      </g>
     </g>
    </g>
    <g id="ytick_8">
     <g id="line2d_14">
      <g>
       <use xlink:href="#m80aef39315" x="94.5" y="54.178304" style="stroke: #000000; stroke-width: 0.8"/>
      </g>
     </g>
     <g id="text_14">
      <!-- 500 -->
      <g transform="translate(68.4125 57.977522) scale(0.1 -0.1)">
       <use xlink:href="#DejaVuSans-35"/>
       <use xlink:href="#DejaVuSans-30" transform="translate(63.623047 0)"/>
       <use xlink:href="#DejaVuSans-30" transform="translate(127.246094 0)"/>
      </g>
     </g>
    </g>
    <g id="ytick_9">
     <g id="line2d_15">
      <g>
       <use xlink:href="#m80aef39315" x="94.5" y="32.432186" style="stroke: #000000; stroke-width: 0.8"/>
      </g>
     </g>
     <g id="text_15">
      <!-- 550 -->
      <g transform="translate(68.4125 36.231404) scale(0.1 -0.1)">
       <use xlink:href="#DejaVuSans-35"/>
       <use xlink:href="#DejaVuSans-35" transform="translate(63.623047 0)"/>
       <use xlink:href="#DejaVuSans-30" transform="translate(127.246094 0)"/>
      </g>
     </g>
    </g>
   </g>
   <g id="line2d_16">
    <path d="M 121.131818 203.085491 
L 121.391388 202.66347 
L 121.650957 203.358539 
L 122.429665 204.500416 
L 123.208373 200.156342 
L 123.467943 201.211329 
L 124.246651 199.494382 
L 124.50622 197.119597 
L 124.765789 197.210615 
L 125.025359 195.667422 
L 125.284928 195.55988 
L 126.063636 193.569866 
L 126.323206 195.332305 
L 126.582775 195.220601 
L 126.842344 195.634313 
L 127.101914 194.955822 
L 128.399761 193.945704 
L 128.65933 195.132184 
L 128.9189 197.550783 
L 129.957177 201.915038 
L 130.216746 201.043839 
L 130.476316 206.017939 
L 131.514593 199.956912 
L 131.774163 203.391933 
L 132.033732 200.886219 
L 133.331579 209.15423 
L 133.591148 204.881245 
L 133.850718 207.905533 
L 134.110287 213.94995 
L 134.369856 205.748276 
L 135.148565 215.46 
L 135.408134 210.834397 
L 135.667703 213.394039 
L 135.927273 212.435718 
L 136.186842 214.659353 
L 136.96555 215.227693 
L 137.22512 210.100107 
L 137.484689 210.6892 
L 137.744258 206.876681 
L 138.003828 209.535902 
L 138.782536 205.167492 
L 139.042105 206.212923 
L 139.301675 208.53611 
L 139.561244 207.229312 
L 139.820813 207.822552 
L 140.599522 203.076645 
L 140.859091 203.815076 
L 141.11866 203.134713 
L 141.37823 203.130552 
L 142.416507 202.977066 
L 142.676077 199.579421 
L 142.935646 200.334449 
L 143.195215 198.193809 
L 143.454785 197.546629 
L 144.233493 199.015208 
L 144.493062 202.018751 
L 144.752632 199.654087 
L 145.012201 200.525279 
L 145.27177 199.22679 
L 146.050478 199.43423 
L 146.310048 201.193198 
L 146.569617 198.032014 
L 146.829187 197.29357 
L 147.088756 199.218507 
L 148.127033 196.650537 
L 148.646172 195.472359 
L 148.905742 195.024323 
L 149.68445 194.169716 
L 150.203589 197.069559 
L 150.463158 196.745948 
L 150.722727 195.654899 
L 151.501435 194.928898 
L 151.761005 195.459909 
L 152.020574 194.403257 
L 152.280144 195.330957 
L 152.539713 195.297702 
L 153.57799 196.104734 
L 153.83756 196.004876 
L 154.097129 196.175464 
L 154.356699 195.405829 
L 155.135407 195.580545 
L 155.394976 194.71526 
L 155.654545 194.528054 
L 155.914115 195.543123 
L 156.173684 193.762613 
L 156.952392 193.280035 
L 157.211962 192.680974 
L 157.471531 189.752283 
L 157.7311 194.149488 
L 157.99067 193.537945 
L 158.769378 193.038722 
L 159.028947 191.112623 
L 159.288517 190.833895 
L 159.548086 189.96859 
L 159.807656 190.455335 
L 160.845933 187.643099 
L 161.105502 189.336268 
L 161.365072 188.296246 
L 161.624641 189.964435 
L 162.403349 189.08666 
L 162.662919 186.977503 
L 164.220335 183.986396 
L 164.479904 185.005626 
L 164.739474 183.100292 
L 164.999043 182.480447 
L 165.258612 182.75086 
L 166.037321 185.496493 
L 166.29689 184.964009 
L 166.556459 185.092981 
L 166.816029 186.806941 
L 167.075598 187.239587 
L 167.854306 183.611984 
L 168.113876 184.797608 
L 168.373445 183.549576 
L 168.633014 187.381028 
L 168.892584 187.896875 
L 169.671292 186.836055 
L 169.930861 187.597322 
L 170.190431 186.748713 
L 170.45 186.815256 
L 170.709569 186.353483 
L 171.488278 181.556907 
L 171.747847 182.908925 
L 172.007416 183.054541 
L 172.266986 181.63594 
L 172.526555 183.245895 
L 173.305263 185.005626 
L 173.564833 187.031556 
L 173.824402 184.614577 
L 174.083971 184.818427 
L 174.343541 184.735207 
L 175.122249 184.161112 
L 175.381818 183.657736 
L 175.641388 184.191527 
L 175.900957 182.156492 
L 176.160526 182.80703 
L 176.939234 182.527618 
L 177.198804 181.368314 
L 177.977512 176.180669 
L 178.75622 177.590179 
L 179.015789 176.864562 
L 179.275359 175.038049 
L 179.534928 181.02222 
L 180.832775 187.127306 
L 181.092344 183.528472 
L 181.351914 185.997195 
L 181.611483 186.555986 
L 182.390191 185.980512 
L 182.649761 184.57517 
L 183.1689 187.023062 
L 183.428469 188.073934 
L 184.207177 187.177364 
L 184.466746 185.142316 
L 184.726316 187.990521 
L 184.985885 186.906288 
L 185.245455 184.975523 
L 186.024163 184.299952 
L 186.283732 185.209038 
L 186.802871 183.040552 
L 187.06244 185.655249 
L 187.841148 183.907954 
L 188.100718 185.772016 
L 188.360287 184.137308 
L 188.619856 183.824535 
L 188.879426 181.643559 
L 189.917703 178.703605 
L 190.436842 180.03805 
L 190.696411 180.03805 
L 191.47512 182.306607 
L 191.994258 182.064737 
L 192.253828 182.027215 
L 192.513397 181.468424 
L 193.292105 184.03305 
L 193.551675 182.711121 
L 193.811244 187.118971 
L 194.070813 186.268265 
L 194.330383 187.206531 
L 195.109091 187.264912 
L 195.36866 185.555179 
L 195.887799 178.52431 
L 196.147368 178.344968 
L 196.926077 180.567667 
L 197.185646 183.645226 
L 197.445215 181.334973 
L 197.704785 181.797848 
L 197.964354 181.351657 
L 198.743062 181.051394 
L 199.262201 183.385591 
L 199.52177 182.825334 
L 199.78134 183.674075 
L 200.560048 183.79116 
L 200.819617 182.223241 
L 201.079187 182.21906 
L 201.598325 181.650454 
L 202.377033 182.135461 
L 202.636603 181.240703 
L 203.155742 182.064365 
L 203.415311 182.014194 
L 204.194019 182.043467 
L 204.453589 181.324328 
L 204.713158 183.084551 
L 204.972727 183.619729 
L 205.232297 182.474116 
L 206.011005 182.081096 
L 206.270574 182.110369 
L 206.530144 179.957113 
L 206.789713 179.898587 
L 207.049282 180.24561 
L 208.08756 178.008749 
L 208.347129 179.229619 
L 208.606699 178.506292 
L 209.644976 177.582268 
L 209.904545 177.920936 
L 210.164115 178.953651 
L 210.423684 178.644256 
L 211.461962 180.621893 
L 211.721531 180.534114 
L 211.9811 182.896409 
L 212.24067 180.371031 
L 212.500239 179.814955 
L 213.278947 180.705525 
L 213.538517 181.775882 
L 213.798086 181.186345 
L 214.057656 182.574458 
L 214.317225 182.729159 
L 215.355502 181.144529 
L 215.615072 177.841505 
L 216.134211 177.168356 
L 216.912919 175.671532 
L 217.172488 174.500833 
L 217.432057 174.262508 
L 217.691627 171.741343 
L 217.951196 174.655514 
L 218.729904 171.44029 
L 218.989474 171.49883 
L 219.249043 170.039641 
L 219.508612 170.453552 
L 219.768182 170.374121 
L 220.54689 170.26121 
L 220.806459 169.717703 
L 221.066029 170.114884 
L 221.325598 169.41667 
L 221.585167 169.207597 
L 222.623445 169.746949 
L 222.883014 169.302756 
L 223.142584 169.474572 
L 223.402153 170.656334 
L 224.440431 173.883178 
L 224.7 173.346759 
L 224.959569 175.676795 
L 225.219139 174.256137 
L 225.997847 172.345188 
L 226.257416 173.631739 
L 226.516986 176.276061 
L 226.776555 176.623894 
L 227.036124 174.583019 
L 227.814833 176.347316 
L 228.074402 173.66946 
L 228.333971 174.239393 
L 228.593541 172.265565 
L 228.85311 172.843893 
L 229.631818 173.237803 
L 229.891388 172.022507 
L 230.150957 172.30328 
L 230.410526 174.951809 
L 230.670096 175.106849 
L 231.708373 172.076992 
L 231.967943 172.965412 
L 232.227512 174.272907 
L 232.487081 172.537956 
L 233.265789 173.057605 
L 233.525359 174.478256 
L 233.784928 172.835492 
L 234.044498 170.078032 
L 235.082775 167.261874 
L 235.342344 167.768954 
L 235.601914 166.914061 
L 236.121053 164.420597 
L 236.899761 164.395459 
L 237.15933 163.314245 
L 237.4189 164.52956 
L 237.678469 162.890989 
L 237.938038 162.371334 
L 238.976316 163.410632 
L 239.235885 162.438394 
L 239.495455 163.867408 
L 239.755024 162.199537 
L 240.533732 162.031902 
L 240.793301 161.855912 
L 241.052871 164.961197 
L 241.31244 165.820285 
L 241.57201 165.958574 
L 242.350718 166.092675 
L 242.610287 167.798307 
L 242.869856 168.35147 
L 243.388995 165.841229 
L 244.167703 168.053927 
L 244.427273 168.452044 
L 244.686842 171.481914 
L 245.205981 167.647428 
L 245.984689 168.89207 
L 246.244258 169.772108 
L 246.503828 169.520078 
L 246.763397 168.108777 
L 247.022967 168.659 
L 247.801675 166.302611 
L 248.061244 165.907772 
L 248.320813 166.004371 
L 248.580383 166.92006 
L 248.839952 166.764643 
L 249.87823 167.722333 
L 250.137799 167.764335 
L 250.397368 168.432181 
L 250.656938 166.29839 
L 251.435646 165.029891 
L 251.695215 165.550714 
L 251.954785 165.122296 
L 252.214354 163.589171 
L 253.252632 162.476042 
L 253.77177 163.530352 
L 254.03134 162.051838 
L 254.290909 162.669294 
L 255.069617 161.325173 
L 255.329187 160.115453 
L 255.588756 160.216259 
L 255.848325 159.619794 
L 256.107895 160.3213 
L 256.886603 158.767124 
L 257.146172 157.64146 
L 257.405742 157.851462 
L 257.665311 157.557403 
L 257.92488 155.016198 
L 258.963158 155.012003 
L 259.222727 154.0585 
L 259.482297 155.112823 
L 259.741866 154.894407 
L 260.520574 155.154818 
L 260.780144 153.617472 
L 261.039713 152.974831 
L 261.299282 153.596475 
L 261.558852 153.714085 
L 262.33756 155.285038 
L 262.856699 153.441064 
L 263.375837 149.967392 
L 264.154545 150.227804 
L 264.414115 151.282034 
L 264.673684 151.416474 
L 264.933254 151.298917 
L 265.192823 151.96675 
L 265.971531 152.004525 
L 266.2311 151.038439 
L 266.49067 151.294657 
L 266.750239 150.030358 
L 267.009809 150.055577 
L 267.788517 150.530224 
L 268.048086 151.324083 
L 268.307656 151.10982 
L 268.826794 148.631647 
L 269.605502 147.89656 
L 270.124641 149.288331 
L 270.64378 143.552288 
L 271.422488 143.430244 
L 271.682057 144.284573 
L 271.941627 144.541242 
L 272.201196 145.770102 
L 272.460766 145.504965 
L 273.239474 143.876329 
L 273.499043 144.595953 
L 273.758612 144.617016 
L 274.018182 144.903191 
L 274.277751 144.907372 
L 275.575598 145.298759 
L 275.835167 146.544476 
L 276.094737 147.192572 
L 276.873445 146.653897 
L 277.133014 145.4755 
L 277.392584 143.358678 
L 277.652153 143.190352 
L 277.911722 145.441893 
L 278.690431 147.785945 
L 278.95 147.575505 
L 279.209569 145.98475 
L 279.469139 145.572325 
L 279.728708 145.660695 
L 280.507416 147.840629 
L 280.766986 152.322594 
L 281.026555 152.120608 
L 281.286124 152.995935 
L 281.545694 149.974294 
L 282.324402 152.495179 
L 282.843541 148.286753 
L 283.10311 147.554441 
L 283.362679 147.554441 
L 284.141388 147.815411 
L 284.400957 148.383539 
L 284.660526 146.940058 
L 284.920096 144.22981 
L 285.179665 143.615413 
L 286.217943 141.923625 
L 286.477512 142.268704 
L 286.737081 140.858869 
L 286.996651 141.532224 
L 287.775359 141.9657 
L 288.034928 141.132461 
L 288.294498 135.636244 
L 288.554067 135.13963 
L 288.813636 132.080162 
L 289.592344 133.027002 
L 289.851914 131.444661 
L 290.111483 131.078545 
L 290.371053 130.051683 
L 290.630622 130.211647 
L 291.40933 129.820219 
L 291.6689 130.257902 
L 291.928469 132.425241 
L 292.188038 131.73925 
L 292.447608 129.933847 
L 293.226316 130.207373 
L 293.485885 128.759698 
L 293.745455 128.66274 
L 294.264593 126.980522 
L 295.043301 128.363412 
L 295.302871 129.269877 
L 295.56244 129.172906 
L 296.081579 132.642715 
L 296.860287 129.71255 
L 297.119856 132.259092 
L 297.638995 132.722856 
L 297.898565 135.454885 
L 298.677273 134.114162 
L 298.936842 130.433488 
L 299.196411 130.412411 
L 299.455981 131.200827 
L 299.71555 127.220812 
L 300.494258 128.544705 
L 300.753828 133.207724 
L 301.013397 130.547328 
L 301.272967 134.65804 
L 301.532536 135.121831 
L 302.311244 136.761908 
L 302.830383 131.158659 
L 303.089952 130.530459 
L 304.12823 127.258772 
L 304.387799 127.764704 
L 304.647368 127.469571 
L 305.166507 129.843234 
L 305.945215 130.505174 
L 306.204785 132.9252 
L 306.464354 138.250171 
L 306.723923 139.304216 
L 307.762201 139.139779 
L 308.02177 138.840438 
L 308.28134 137.45334 
L 308.540909 143.132443 
L 308.800478 140.855724 
L 309.838756 144.038907 
L 310.098325 143.752215 
L 310.357895 144.481608 
L 310.617464 146.829933 
L 311.396172 146.686614 
L 311.655742 150.008896 
L 311.915311 146.543268 
L 312.17488 145.223622 
L 312.43445 141.673659 
L 313.213158 140.526877 
L 313.472727 141.462847 
L 313.732297 139.481275 
L 313.991866 144.629134 
L 314.251435 142.651796 
L 315.030144 144.755624 
L 315.289713 143.233621 
L 315.549282 140.42992 
L 316.068421 147.247376 
L 316.847129 147.264192 
L 317.106699 144.957994 
L 317.366268 145.105866 
L 317.625837 148.811055 
L 317.885407 149.993991 
L 318.923684 150.082733 
L 319.183254 153.230226 
L 319.442823 147.180255 
L 319.702392 146.031138 
L 320.4811 145.405804 
L 320.74067 147.028189 
L 321.000239 144.814343 
L 322.557656 155.09756 
L 322.817225 149.75321 
L 323.076794 150.982627 
L 323.336364 153.314707 
L 324.115072 154.84831 
L 324.634211 147.264736 
L 324.89378 146.914096 
L 325.153349 144.712965 
L 325.932057 145.249531 
L 326.191627 143.179336 
L 326.451196 145.110087 
L 326.710766 143.16244 
L 326.970335 143.339897 
L 327.749043 140.374055 
L 328.008612 138.384173 
L 328.268182 139.039026 
L 328.527751 141.383794 
L 328.787321 140.914841 
L 329.566029 138.570059 
L 329.825598 140.298015 
L 330.085167 145.105866 
L 330.344737 144.315791 
L 331.383014 151.122031 
L 331.642584 152.473983 
L 331.902153 150.124953 
L 332.161722 153.416098 
L 333.2 153.124614 
L 333.459569 151.105135 
L 333.719139 150.657298 
L 334.238278 155.866531 
L 335.016986 153.040107 
L 335.276555 157.476161 
L 335.536124 151.983872 
L 335.795694 149.275761 
L 336.055263 154.392058 
L 336.833971 151.455802 
L 337.093541 152.59227 
L 337.35311 149.127889 
L 337.612679 154.463864 
L 337.872249 155.570787 
L 338.650957 159.858969 
L 338.910526 157.78036 
L 339.429665 163.758478 
L 339.689234 161.320773 
L 340.467943 161.160226 
L 340.727512 158.912594 
L 340.987081 164.045031 
L 341.50622 164.688694 
L 342.284928 161.262851 
L 342.544498 161.699021 
L 343.063636 159.039614 
L 343.323206 155.931422 
L 344.361483 156.511562 
L 344.621053 156.278651 
L 344.880622 155.363971 
L 345.140191 157.294974 
L 345.9189 157.832787 
L 346.178469 156.244766 
L 346.438038 157.129821 
L 346.697608 159.509696 
L 346.957177 164.506605 
L 347.735885 169.050401 
L 347.995455 168.106069 
L 348.255024 165.027468 
L 348.514593 167.902797 
L 348.774163 166.767914 
L 349.81244 164.189001 
L 350.07201 164.447322 
L 350.331579 162.020866 
L 350.591148 158.277412 
L 351.369856 159.467343 
L 351.629426 163.028701 
L 351.888995 161.427991 
L 352.148565 162.880491 
L 352.408134 161.71595 
L 353.446411 160.331221 
L 353.96555 157.981004 
L 354.22512 158.294361 
L 355.003828 159.628275 
L 355.263397 164.218645 
L 355.522967 164.620943 
L 355.782536 164.045031 
L 356.042105 162.927071 
L 356.820813 163.973033 
L 357.080383 161.737127 
L 357.599522 159.488539 
L 357.859091 161.385671 
L 358.637799 162.033548 
L 358.897368 164.968199 
L 359.156938 157.837008 
L 359.416507 154.589013 
L 359.676077 152.755406 
L 360.454785 153.911464 
L 360.714354 155.262315 
L 360.973923 152.022801 
L 361.233493 151.523095 
L 362.27177 152.933274 
L 362.53134 152.094793 
L 362.790909 149.189793 
L 363.050478 150.096045 
L 363.310048 148.025253 
L 364.088756 147.364667 
L 364.867464 148.501268 
L 365.127033 150.207231 
L 365.905742 153.771914 
L 366.165311 154.327805 
L 366.42488 154.603666 
L 366.68445 153.305098 
L 366.944019 157.871265 
L 367.722727 159.084967 
L 368.241866 160.680581 
L 368.501435 161.134656 
L 368.761005 162.9764 
L 369.799282 164.168879 
L 370.058852 162.114943 
L 370.318421 161.932469 
L 370.57799 159.411743 
L 371.356699 158.482343 
L 371.616268 164.70356 
L 371.875837 164.605965 
L 372.135407 167.508628 
L 372.394976 167.780222 
L 373.173684 167.87357 
L 373.433254 168.752035 
L 373.692823 170.237306 
L 373.952392 169.375836 
L 374.211962 170.674398 
L 374.99067 170.873848 
L 375.250239 171.315188 
L 375.509809 169.337637 
L 376.028947 172.804719 
L 376.807656 169.477678 
L 377.067225 166.023351 
L 377.326794 165.887551 
L 377.586364 166.910285 
L 377.845933 172.236073 
L 378.624641 174.353645 
L 378.884211 175.983224 
L 379.14378 175.838922 
L 379.403349 172.236073 
L 379.662919 174.646449 
L 380.441627 170.83989 
L 380.701196 170.428268 
L 380.960766 171.28549 
L 381.220335 171.425531 
L 381.479904 168.892056 
L 382.258612 166.715062 
L 382.518182 165.267965 
L 382.777751 173.475206 
L 383.037321 175.414551 
L 383.29689 171.544356 
L 384.075598 173.131461 
L 384.335167 174.811961 
L 384.854306 180.719136 
L 385.113876 177.689167 
L 385.892584 174.93928 
L 386.152153 174.514903 
L 386.411722 176.365141 
L 386.671292 168.527102 
L 386.930861 166.774471 
L 387.709569 169.133953 
L 388.228708 168.768467 
L 388.488278 168.789757 
L 388.747847 168.985517 
L 389.526555 168.632288 
L 390.045694 166.278932 
L 390.564833 166.317231 
L 391.60311 169.364262 
L 391.862679 163.061704 
L 392.122249 163.25319 
L 392.381818 163.112744 
L 393.160526 165.163959 
L 393.420096 167.325816 
L 393.679665 167.644986 
L 393.939234 166.355543 
L 394.198804 167.198138 
L 394.977512 164.180924 
L 395.237081 162.304187 
L 395.496651 162.176516 
L 395.75622 165.670388 
L 396.015789 167.508807 
L 396.794498 169.313202 
L 397.054067 168.738676 
L 397.313636 167.619463 
L 397.573206 170.27496 
L 397.832775 170.045169 
L 398.871053 170.798392 
L 399.130622 171.832514 
L 399.390191 169.074876 
L 399.649761 169.581299 
L 400.688038 169.683433 
L 401.207177 177.032868 
L 401.466746 175.917908 
L 402.245455 174.985927 
L 402.505024 174.249699 
L 402.764593 171.304815 
L 403.024163 170.138775 
L 403.283732 169.832373 
L 404.32201 169.355734 
L 404.841148 172.938973 
L 405.100718 169.411062 
L 405.879426 168.406737 
L 406.138995 168.636556 
L 406.398565 169.245106 
L 406.658134 166.100207 
L 406.917703 166.032105 
L 407.696411 168.35141 
L 408.21555 164.078783 
L 408.47512 159.035871 
L 408.734689 161.695616 
L 409.513397 162.368022 
L 409.772967 157.776218 
L 410.032536 158.12942 
L 410.292105 159.452915 
L 410.551675 159.674199 
L 411.330383 156.176079 
L 411.589952 155.814343 
L 411.849522 156.740145 
L 412.36866 161.543995 
L 413.666507 164.338399 
L 413.926077 162.947584 
L 414.185646 165.315375 
L 414.964354 164.914338 
L 415.223923 165.230051 
L 415.483493 166.57392 
L 416.002632 162.725737 
L 416.78134 162.051665 
L 417.040909 163.212098 
L 417.300478 163.404082 
L 417.560048 163.992816 
L 417.819617 165.584149 
L 418.598325 163.310217 
L 419.636603 152.426957 
L 420.415311 155.49865 
L 420.67488 154.837387 
L 420.93445 155.47306 
L 421.194019 153.182072 
L 421.453589 151.940616 
L 422.491866 154.218769 
L 423.011005 150.455937 
L 423.270574 148.642782 
L 424.049282 149.09926 
L 424.308852 149.120589 
L 424.568421 150.332234 
L 424.82799 147.234886 
L 425.866268 148.177731 
L 426.125837 150.976429 
L 426.385407 150.69486 
L 426.644976 147.98574 
L 426.904545 149.564272 
L 427.683254 148.429476 
L 427.942823 148.612919 
L 428.202392 148.578768 
L 428.461962 149.577093 
L 428.721531 149.726399 
L 429.500239 151.428645 
L 429.759809 154.137712 
L 430.019378 145.626504 
L 430.278947 141.590598 
L 430.538517 140.553901 
L 431.317225 141.279165 
L 431.576794 141.343166 
L 431.836364 141.774054 
L 432.095933 141.343166 
L 432.355502 139.107659 
L 433.134211 139.960886 
L 433.39378 140.664835 
L 433.653349 138.39945 
L 433.912919 139.338021 
L 434.172488 139.824389 
L 434.951196 139.61533 
L 435.470335 137.385596 
L 435.729904 135.453013 
L 435.989474 135.529969 
L 436.768182 134.315696 
L 437.027751 136.846854 
L 437.287321 137.44973 
L 437.806459 129.308992 
L 438.844737 130.027288 
L 439.104306 131.233 
L 439.623445 128.235795 
L 440.402153 128.004928 
L 440.661722 128.971199 
L 440.921292 133.375094 
L 441.440431 131.917106 
L 442.478708 128.710403 
L 442.738278 127.406326 
L 442.997847 122.805769 
L 443.257416 125.27282 
L 444.295694 127.102764 
L 444.555263 129.022499 
L 444.814833 126.393016 
L 445.074402 128.398267 
L 445.85311 131.143197 
L 446.112679 128.590656 
L 446.372249 128.043419 
L 446.631818 128.385459 
L 446.891388 126.038141 
L 447.670096 127.12842 
L 448.189234 127.059999 
L 448.448804 125.726019 
L 448.708373 127.457652 
L 449.487081 129.762177 
L 449.746651 129.488572 
L 450.525359 124.028603 
L 451.304067 123.819092 
L 451.563636 117.935867 
L 451.823206 119.821398 
L 452.082775 123.331703 
L 452.342344 124.657122 
L 453.121053 124.084203 
L 453.380622 121.5744 
L 453.640191 127.222498 
L 453.899761 130.236799 
L 454.15933 126.965975 
L 454.938038 128.013489 
L 455.197608 127.833895 
L 455.457177 131.613531 
L 455.716746 131.972679 
L 455.976316 131.49381 
L 456.755024 130.497595 
L 457.274163 133.866757 
L 457.533732 133.567469 
L 457.793301 134.388391 
L 458.57201 133.092888 
L 458.831579 134.024982 
L 459.091148 134.35919 
L 459.350718 135.86735 
L 459.610287 136.038754 
L 460.388995 133.725057 
L 460.648565 133.476537 
L 460.908134 131.531293 
L 461.167703 134.54339 
L 461.427273 133.253714 
L 462.205981 132.945241 
L 462.46555 130.927156 
L 462.72512 130.764338 
L 462.984689 131.205645 
L 463.244258 130.820044 
L 464.282536 128.724843 
L 464.542105 129.011907 
L 464.801675 130.284461 
L 465.061244 128.416371 
L 465.839952 126.843892 
L 466.099522 129.487537 
L 466.61866 126.518218 
L 466.87823 130.15164 
L 467.916507 130.824331 
L 468.176077 134.200634 
L 468.435646 134.73193 
L 468.695215 135.81167 
L 469.473923 135.584573 
L 469.733493 137.898297 
L 470.252632 137.255589 
L 471.290909 133.759327 
L 471.550478 137.362687 
L 471.810048 134.976162 
L 472.069617 134.804784 
L 472.329187 131.419881 
L 473.107895 130.323032 
L 473.367464 130.935716 
L 473.627033 129.209008 
L 473.886603 129.748865 
L 474.146172 131.21852 
L 474.92488 129.114731 
L 475.18445 129.363264 
L 475.444019 130.198759 
L 475.703589 129.680337 
L 475.963158 131.672687 
L 477.001435 130.018833 
L 477.261005 125.674149 
L 477.520574 131.149939 
L 477.780144 130.327306 
L 478.558852 127.11382 
L 478.818421 126.771051 
L 479.07799 123.360451 
L 479.33756 122.39641 
L 479.597129 120.476888 
L 480.375837 118.878726 
L 480.894976 116.020831 
L 481.154545 117.096298 
L 481.414115 113.248679 
L 482.192823 114.529794 
L 482.452392 112.991612 
L 482.711962 112.927212 
L 482.971531 110.136505 
L 483.2311 112.849898 
L 484.009809 109.591259 
L 484.269378 111.467459 
L 484.528947 109.415236 
L 485.048086 109.59556 
L 485.826794 109.088951 
L 486.086364 107.332949 
L 486.345933 108.985888 
L 486.605502 108.960139 
L 486.865072 110.849226 
L 487.64378 113.154734 
L 487.903349 111.703622 
L 488.162919 113.300735 
L 488.422488 112.37764 
L 488.682057 110.969411 
L 489.460766 112.227379 
L 489.720335 110.905025 
L 489.979904 110.909326 
L 490.239474 114.532926 
L 490.499043 112.472076 
L 491.537321 111.385871 
L 491.79689 112.519313 
L 492.056459 111.265673 
L 492.316029 110.819164 
L 493.354306 110.784814 
L 493.613876 111.038125 
L 494.133014 110.19233 
L 495.171292 112.412016 
L 495.430861 112.527901 
L 495.690431 113.669944 
L 495.95 113.751518 
L 496.728708 110.771926 
L 496.988278 110.299667 
L 497.247847 107.302913 
L 497.507416 106.504343 
L 497.766986 104.855692 
L 498.805263 104.082884 
L 499.064833 104.426344 
L 499.583971 100.476485 
L 500.362679 101.40384 
L 500.622249 100.377748 
L 501.141388 97.814589 
L 501.400957 98.218188 
L 502.179665 95.73233 
L 502.439234 96.217489 
L 502.698804 100.944443 
L 503.217943 95.088334 
L 503.996651 97.479717 
L 504.25622 97.548404 
L 504.515789 93.873331 
L 504.775359 93.847542 
L 505.034928 91.082637 
L 505.813636 93.353821 
L 506.073206 97.19207 
L 506.332775 95.505962 
L 506.851914 97.841573 
L 507.890191 98.387814 
L 508.149761 98.650217 
L 508.40933 94.576868 
L 508.6689 95.14035 
L 509.447608 96.344736 
L 509.707177 96.370525 
L 509.966746 96.267262 
L 510.226316 93.720907 
L 510.485885 92.92089 
L 511.264593 93.170365 
L 511.524163 98.448046 
L 511.783732 98.68892 
L 512.043301 95.656515 
L 512.302871 96.912479 
L 513.081579 97.643716 
L 513.341148 93.015512 
L 513.600718 93.092918 
L 513.860287 88.740045 
L 514.119856 92.525175 
L 514.898565 92.138048 
L 515.677273 86.954989 
L 515.936842 87.225979 
L 516.97512 90.275599 
L 517.234689 90.370221 
L 517.494258 90.675614 
L 518.532536 89.019609 
L 518.792105 90.365907 
L 519.051675 90.791751 
L 519.311244 91.897187 
L 519.570813 88.611007 
L 520.349522 89.011022 
L 520.609091 88.284098 
L 520.86866 89.583078 
L 521.12823 87.574376 
L 521.387799 90.168063 
L 522.166507 93.720907 
L 522.426077 93.316618 
L 522.685646 94.495161 
L 523.204785 99.966399 
L 523.983493 99.174956 
L 524.243062 96.331795 
L 524.502632 95.690919 
L 524.762201 100.000788 
L 525.02177 96.869475 
L 525.800478 98.620088 
L 526.060048 104.177373 
L 526.319617 101.764329 
L 526.579187 100.516967 
L 526.838756 96.723235 
L 527.617464 93.76395 
L 527.877033 95.570495 
L 528.136603 95.05433 
L 528.655742 93.247785 
L 529.43445 93.686517 
L 529.694019 92.464943 
L 529.953589 89.332276 
L 530.213158 90.232861 
L 530.472727 90.568967 
L 531.251435 88.358413 
L 531.511005 86.764087 
L 531.770574 86.12633 
L 532.030144 87.643129 
L 532.289713 86.281475 
L 533.32799 86.212497 
L 533.58756 86.708049 
L 533.847129 92.956169 
L 534.106699 92.757953 
L 534.885407 93.451721 
L 535.144976 92.352908 
L 535.404545 88.931531 
L 535.664115 88.711774 
L 535.923684 89.000457 
L 536.702392 87.268226 
L 536.961962 85.195576 
L 537.221531 81.584611 
L 537.4811 81.360513 
L 537.74067 80.933926 
L 538.519378 78.434676 
L 538.778947 79.309418 
L 539.298086 79.5852 
L 539.557656 77.827101 
L 540.336364 78.736313 
L 540.595933 77.322948 
L 541.115072 76.50423 
L 541.374641 79.046577 
L 542.412919 73.733511 
L 542.672488 73.09148 
L 543.191627 70.165643 
L 543.970335 70.734421 
L 544.229904 73.621489 
L 544.489474 70.730107 
L 544.749043 75.707054 
L 545.008612 76.202606 
L 545.787321 76.025919 
L 546.825598 83.286672 
L 547.863876 79.951462 
L 548.383014 91.348929 
L 548.642584 88.388595 
L 549.421292 87.759465 
L 549.940431 91.370444 
L 550.2 91.904792 
L 550.459569 95.619166 
L 551.238278 101.367433 
L 551.497847 99.445601 
L 551.757416 99.954068 
L 552.276555 96.68351 
L 553.055263 96.343103 
L 553.314833 93.240565 
L 553.574402 92.012488 
L 553.833971 89.888631 
L 554.093541 90.993722 
L 554.872249 89.672789 
L 555.131818 88.261189 
L 555.391388 88.54609 
L 555.650957 92.254238 
L 555.910526 91.71896 
L 556.689234 93.143501 
L 556.948804 92.992417 
L 557.208373 94.391049 
L 557.467943 93.303226 
L 557.727512 91.567863 
L 558.765789 94.891804 
L 559.284928 95.345083 
L 559.544498 98.233027 
L 560.323206 96.497664 
L 560.842344 89.020937 
L 561.361483 85.761753 
L 562.140191 85.437977 
L 562.399761 83.793281 
L 562.65933 85.666786 
L 562.9189 82.265133 
L 563.178469 83.74149 
L 563.957177 84.501237 
L 564.216746 86.37473 
L 564.476316 85.105613 
L 564.735885 85.450944 
L 564.995455 86.871171 
L 565.774163 85.886942 
L 566.033732 90.035388 
L 566.293301 91.572177 
L 566.81244 92.034083 
L 567.591148 94.848641 
L 567.850718 92.61685 
L 568.110287 91.42972 
L 568.369856 92.129063 
L 568.629426 91.921848 
L 569.408134 90.704495 
L 569.667703 90.877174 
L 569.927273 92.008187 
L 570.186842 91.749169 
L 570.446411 91.127539 
L 571.22512 90.859906 
L 571.484689 87.091327 
L 571.744258 88.347516 
L 572.003828 88.291385 
L 572.263397 86.815041 
L 573.042105 87.488475 
L 573.301675 85.174645 
L 573.561244 84.924281 
L 573.820813 96.225719 
L 574.080383 94.490343 
L 574.859091 95.314861 
L 575.11866 94.01981 
L 575.637799 87.98923 
L 575.897368 89.236778 
L 576.676077 91.192283 
L 576.935646 89.025263 
L 577.454785 87.358959 
L 577.714354 92.491662 
L 578.493062 92.163572 
L 578.752632 91.287263 
L 579.27177 93.054401 
L 579.53134 91.267991 
L 580.310048 90.493724 
L 580.569617 86.514306 
L 580.829187 88.677026 
L 581.348325 88.47374 
L 582.127033 85.22098 
L 582.386603 85.125828 
L 582.905742 80.186165 
L 583.944019 78.715514 
L 584.203589 79.879059 
L 584.463158 77.430842 
L 584.722727 77.1843 
L 584.982297 78.174834 
L 585.761005 76.30624 
L 586.020574 75.064837 
L 586.280144 82.448363 
L 586.799282 82.790071 
L 587.57799 83.37402 
L 587.83756 81.609245 
L 588.356699 82.136944 
L 588.616268 85.415639 
L 589.394976 87.88115 
L 589.654545 89.321525 
L 590.173684 90.584563 
L 590.433254 88.521323 
L 591.211962 86.574857 
L 591.471531 88.945215 
L 591.7311 87.997951 
L 592.250239 90.424519 
L 593.028947 91.185793 
L 593.288517 91.84326 
L 593.548086 87.240991 
L 593.807656 87.989297 
L 594.067225 86.064465 
L 595.105502 86.293699 
L 595.365072 78.637643 
L 595.624641 78.417063 
L 595.884211 79.563286 
L 596.662919 83.672485 
L 596.922488 78.205096 
L 597.182057 80.311619 
L 597.441627 92.137398 
L 597.701196 92.107123 
L 598.479904 93.897833 
L 599.258612 91.778396 
L 599.518182 94.403937 
L 600.29689 93.335545 
L 600.556459 93.672925 
L 600.816029 94.711056 
L 601.075598 94.062229 
L 601.335167 94.974905 
L 602.373445 94.45152 
L 602.633014 92.232564 
L 602.892584 91.283374 
L 603.152153 94.71602 
L 603.930861 96.540682 
L 604.190431 99.184513 
L 604.45 98.391358 
L 604.709569 101.511921 
L 604.969139 99.578913 
L 605.747847 103.262918 
L 606.007416 103.210916 
L 606.266986 97.832255 
L 607.564833 106.873233 
L 607.824402 106.747553 
L 608.083971 105.52533 
L 608.343541 107.475698 
L 608.60311 103.232577 
L 609.381818 103.171894 
L 609.641388 105.416984 
L 609.900957 103.553287 
L 610.160526 103.978056 
L 610.420096 102.062356 
L 611.198804 101.273555 
L 611.458373 100.372041 
L 611.717943 102.621458 
L 611.977512 102.357091 
L 612.237081 107.462691 
L 613.015789 108.940614 
L 613.275359 105.993407 
L 613.534928 106.015082 
L 613.794498 109.928812 
L 614.054067 115.680185 
L 614.832775 116.53835 
L 615.092344 117.968611 
L 615.351914 102.3961 
L 615.611483 106.35748 
L 615.871053 103.280239 
L 616.649761 103.55764 
L 616.90933 104.459127 
L 617.1689 110.578926 
L 617.428469 112.238899 
L 618.466746 115.992255 
L 618.985885 109.374037 
L 619.245455 103.778685 
L 619.505024 101.806643 
L 620.283732 102.105705 
L 620.543301 100.857466 
L 620.802871 100.328706 
L 621.06244 87.265652 
L 621.32201 82.983522 
L 622.100718 82.597788 
L 622.360287 83.837346 
L 622.619856 83.820012 
L 622.879426 81.730957 
L 623.138995 81.488237 
L 623.917703 76.924419 
L 624.177273 76.976409 
L 624.436842 75.329456 
L 624.955981 74.391562 
L 625.734689 72.394208 
L 625.994258 72.698142 
L 626.253828 75.129714 
L 626.513397 74.135384 
L 626.772967 76.167473 
L 627.811244 71.603947 
L 628.070813 73.049857 
L 628.589952 71.74724 
L 629.36866 71.04815 
L 629.887799 70.223167 
L 630.406938 67.396463 
L 631.185646 66.367385 
L 631.445215 67.161987 
L 631.704785 66.423834 
L 631.964354 63.710029 
L 632.223923 65.40779 
L 633.002632 63.592791 
L 633.262201 64.070425 
L 633.52177 63.11517 
L 634.040909 64.348317 
L 635.338756 57.891642 
L 635.598325 55.642437 
L 635.857895 56.298086 
L 636.636603 55.659798 
L 636.896172 57.987166 
L 637.155742 58.403998 
L 637.415311 55.038884 
L 638.453589 55.525199 
L 638.713158 56.002833 
L 638.972727 53.011122 
L 639.232297 53.892567 
L 639.491866 53.093626 
L 640.270574 53.223898 
L 640.530144 52.008112 
L 640.789713 52.094956 
L 641.049282 49.45496 
L 641.308852 50.171412 
L 642.08756 50.167071 
L 642.347129 52.246929 
L 642.606699 51.986397 
L 642.866268 49.811016 
L 643.125837 48.582182 
L 643.904545 49.107598 
L 644.164115 49.077204 
L 644.423684 48.786291 
L 644.683254 39.989227 
L 644.942823 44.066438 
L 645.721531 39.06 
L 645.9811 42.485916 
L 646.24067 43.706029 
L 646.500239 45.486281 
L 646.759809 44.965244 
L 647.538517 45.08247 
L 647.798086 41.838948 
L 648.057656 45.599179 
L 648.317225 44.774196 
L 648.576794 45.77722 
L 649.355502 47.110258 
L 649.615072 50.29299 
L 649.874641 52.051527 
L 650.134211 52.334237 
L 650.39378 51.03381 
L 651.172488 52.32553 
L 651.432057 53.291058 
L 651.951196 49.985646 
L 652.210766 51.268672 
L 653.249043 51.951503 
L 653.508612 51.851466 
L 653.768182 50.711972 
L 653.768182 50.711972 
" clip-path="url(#p4c97f3938e)" style="fill: none; stroke: #1f77b4; stroke-width: 1.5; stroke-linecap: square"/>
   </g>
   <g id="patch_3">
    <path d="M 94.5 224.28 
L 94.5 30.24 
" style="fill: none; stroke: #000000; stroke-width: 0.8; stroke-linejoin: miter; stroke-linecap: square"/>
   </g>
   <g id="patch_4">
    <path d="M 94.5 224.28 
L 680.4 224.28 
" style="fill: none; stroke: #000000; stroke-width: 0.8; stroke-linejoin: miter; stroke-linecap: square"/>
   </g>
  </g>
 </g>
 <defs>
  <clipPath id="p4c97f3938e">
   <rect x="94.5" y="30.24" width="585.9" height="194.04"/>
  </clipPath>
 </defs>
</svg>
