<?xml version="1.0" encoding="utf-8" standalone="no"?>
<!DOCTYPE svg PUBLIC "-//W3C//DTD SVG 1.1//EN"
  "http://www.w3.org/Graphics/SVG/1.1/DTD/svg11.dtd">
<svg xmlns:xlink="http://www.w3.org/1999/xlink" width="1166.4pt" height="252pt" viewBox="0 0 1166.4 252" xmlns="http://www.w3.org/2000/svg" version="1.1">
 <metadata>
  <rdf:RDF xmlns:dc="http://purl.org/dc/elements/1.1/" xmlns:cc="http://creativecommons.org/ns#" xmlns:rdf="http://www.w3.org/1999/02/22-rdf-syntax-ns#">
   <cc:Work>
    <dc:type rdf:resource="http://purl.org/dc/dcmitype/StillImage"/>
    <dc:date>2025-09-06T14:01:21.963714</dc:date>
    <dc:format>image/svg+xml</dc:format>
    <dc:creator>
     <cc:Agent>
      <dc:title>Matplotlib v3.10.5, https://matplotlib.org/</dc:title>
     </cc:Agent>
    </dc:creator>
   </cc:Work>
  </rdf:RDF>
 </metadata>
 <defs>
  <style type="text/css">*{stroke-linejoin: round; stroke-linecap: butt}</style>
 </defs>
 <g id="figure_1">
  <g id="patch_1">
   <path d="M 0 252 
L 1166.4 252 
L 1166.4 0 
L 0 0 
z
" style="fill: #ffffff"/>
  </g>
  <g id="axes_1">
   <g id="patch_2">
    <path d="M 145.8 224.28 
L 1049.76 224.28 
L 1049.76 30.24 
L 145.8 30.24 
z
" style="fill: #ffffff"/>
   </g>
   <g id="matplotlib.axis_1">
    <g id="xtick_1">
     <g id="line2d_1">
      <defs>
       <path id="m689d881078" d="M 0 0 
L 0 3.5 
" style="stroke: #000000; stroke-width: 0.8"/>
      </defs>
      <g>
       <use xlink:href="#m689d881078" x="178.474943" y="224.28" style="stroke: #000000; stroke-width: 0.8"/>
      </g>
     </g>
     <g id="text_1">
      <!-- 2020 -->
      <g transform="translate(165.749943 238.878438) scale(0.1 -0.1)">
       <defs>
        <path id="DejaVuSans-32" d="M 1228 531 
L 3431 531 
L 3431 0 
L 469 0 
L 469 531 
Q 828 903 1448 1529 
Q 2069 2156 2228 2338 
Q 2531 2678 2651 2914 
Q 2772 3150 2772 3378 
Q 2772 3750 2511 3984 
Q 2250 4219 1831 4219 
Q 1534 4219 1204 4116 
Q 875 4013 500 3803 
L 500 4441 
Q 881 4594 1212 4672 
Q 1544 4750 1819 4750 
Q 2544 4750 2975 4387 
Q 3406 4025 3406 3419 
Q 3406 3131 3298 2873 
Q 3191 2616 2906 2266 
Q 2828 2175 2409 1742 
Q 1991 1309 1228 531 
z
" transform="scale(0.015625)"/>
        <path id="DejaVuSans-30" d="M 2034 4250 
Q 1547 4250 1301 3770 
Q 1056 3291 1056 2328 
Q 1056 1369 1301 889 
Q 1547 409 2034 409 
Q 2525 409 2770 889 
Q 3016 1369 3016 2328 
Q 3016 3291 2770 3770 
Q 2525 4250 2034 4250 
z
M 2034 4750 
Q 2819 4750 3233 4129 
Q 3647 3509 3647 2328 
Q 3647 1150 3233 529 
Q 2819 -91 2034 -91 
Q 1250 -91 836 529 
Q 422 1150 422 2328 
Q 422 3509 836 4129 
Q 1250 4750 2034 4750 
z
" transform="scale(0.015625)"/>
       </defs>
       <use xlink:href="#DejaVuSans-32"/>
       <use xlink:href="#DejaVuSans-30" transform="translate(63.623047 0)"/>
       <use xlink:href="#DejaVuSans-32" transform="translate(127.246094 0)"/>
       <use xlink:href="#DejaVuSans-30" transform="translate(190.869141 0)"/>
      </g>
     </g>
    </g>
    <g id="xtick_2">
     <g id="line2d_2">
      <g>
       <use xlink:href="#m689d881078" x="325.121527" y="224.28" style="stroke: #000000; stroke-width: 0.8"/>
      </g>
     </g>
     <g id="text_2">
      <!-- 2021 -->
      <g transform="translate(312.396527 238.878438) scale(0.1 -0.1)">
       <defs>
        <path id="DejaVuSans-31" d="M 794 531 
L 1825 531 
L 1825 4091 
L 703 3866 
L 703 4441 
L 1819 4666 
L 2450 4666 
L 2450 531 
L 3481 531 
L 3481 0 
L 794 0 
L 794 531 
z
" transform="scale(0.015625)"/>
       </defs>
       <use xlink:href="#DejaVuSans-32"/>
       <use xlink:href="#DejaVuSans-30" transform="translate(63.623047 0)"/>
       <use xlink:href="#DejaVuSans-32" transform="translate(127.246094 0)"/>
       <use xlink:href="#DejaVuSans-31" transform="translate(190.869141 0)"/>
      </g>
     </g>
    </g>
    <g id="xtick_3">
     <g id="line2d_3">
      <g>
       <use xlink:href="#m689d881078" x="471.367439" y="224.28" style="stroke: #000000; stroke-width: 0.8"/>
      </g>
     </g>
     <g id="text_3">
      <!-- 2022 -->
      <g transform="translate(458.642439 238.878438) scale(0.1 -0.1)">
       <use xlink:href="#DejaVuSans-32"/>
       <use xlink:href="#DejaVuSans-30" transform="translate(63.623047 0)"/>
       <use xlink:href="#DejaVuSans-32" transform="translate(127.246094 0)"/>
       <use xlink:href="#DejaVuSans-32" transform="translate(190.869141 0)"/>
      </g>
     </g>
    </g>
    <g id="xtick_4">
     <g id="line2d_4">
      <g>
       <use xlink:href="#m689d881078" x="617.61335" y="224.28" style="stroke: #000000; stroke-width: 0.8"/>
      </g>
     </g>
     <g id="text_4">
      <!-- 2023 -->
      <g transform="translate(604.88835 238.878438) scale(0.1 -0.1)">
       <defs>
        <path id="DejaVuSans-33" d="M 2597 2516 
Q 3050 2419 3304 2112 
Q 3559 1806 3559 1356 
Q 3559 666 3084 287 
Q 2609 -91 1734 -91 
Q 1441 -91 1130 -33 
Q 819 25 488 141 
L 488 750 
Q 750 597 1062 519 
Q 1375 441 1716 441 
Q 2309 441 2620 675 
Q 2931 909 2931 1356 
Q 2931 1769 2642 2001 
Q 2353 2234 1838 2234 
L 1294 2234 
L 1294 2753 
L 1863 2753 
Q 2328 2753 2575 2939 
Q 2822 3125 2822 3475 
Q 2822 3834 2567 4026 
Q 2313 4219 1838 4219 
Q 1578 4219 1281 4162 
Q 984 4106 628 3988 
L 628 4550 
Q 988 4650 1302 4700 
Q 1616 4750 1894 4750 
Q 2613 4750 3031 4423 
Q 3450 4097 3450 3541 
Q 3450 3153 3228 2886 
Q 3006 2619 2597 2516 
z
" transform="scale(0.015625)"/>
       </defs>
       <use xlink:href="#DejaVuSans-32"/>
       <use xlink:href="#DejaVuSans-30" transform="translate(63.623047 0)"/>
       <use xlink:href="#DejaVuSans-32" transform="translate(127.246094 0)"/>
       <use xlink:href="#DejaVuSans-33" transform="translate(190.869141 0)"/>
      </g>
     </g>
    </g>
    <g id="xtick_5">
     <g id="line2d_5">
      <g>
       <use xlink:href="#m689d881078" x="763.859261" y="224.28" style="stroke: #000000; stroke-width: 0.8"/>
      </g>
     </g>
     <g id="text_5">
      <!-- 2024 -->
      <g transform="translate(751.134261 238.878438) scale(0.1 -0.1)">
       <defs>
        <path id="DejaVuSans-34" d="M 2419 4116 
L 825 1625 
L 2419 1625 
L 2419 4116 
z
M 2253 4666 
L 3047 4666 
L 3047 1625 
L 3713 1625 
L 3713 1100 
L 3047 1100 
L 3047 0 
L 2419 0 
L 2419 1100 
L 313 1100 
L 313 1709 
L 2253 4666 
z
" transform="scale(0.015625)"/>
       </defs>
       <use xlink:href="#DejaVuSans-32"/>
       <use xlink:href="#DejaVuSans-30" transform="translate(63.623047 0)"/>
       <use xlink:href="#DejaVuSans-32" transform="translate(127.246094 0)"/>
       <use xlink:href="#DejaVuSans-34" transform="translate(190.869141 0)"/>
      </g>
     </g>
    </g>
    <g id="xtick_6">
     <g id="line2d_6">
      <g>
       <use xlink:href="#m689d881078" x="910.505845" y="224.28" style="stroke: #000000; stroke-width: 0.8"/>
      </g>
     </g>
     <g id="text_6">
      <!-- 2025 -->
      <g transform="translate(897.780845 238.878438) scale(0.1 -0.1)">
       <defs>
        <path id="DejaVuSans-35" d="M 691 4666 
L 3169 4666 
L 3169 4134 
L 1269 4134 
L 1269 2991 
Q 1406 3038 1543 3061 
Q 1681 3084 1819 3084 
Q 2600 3084 3056 2656 
Q 3513 2228 3513 1497 
Q 3513 744 3044 326 
Q 2575 -91 1722 -91 
Q 1428 -91 1123 -41 
Q 819 9 494 109 
L 494 744 
Q 775 591 1075 516 
Q 1375 441 1709 441 
Q 2250 441 2565 725 
Q 2881 1009 2881 1497 
Q 2881 1984 2565 2268 
Q 2250 2553 1709 2553 
Q 1456 2553 1204 2497 
Q 953 2441 691 2322 
L 691 4666 
z
" transform="scale(0.015625)"/>
       </defs>
       <use xlink:href="#DejaVuSans-32"/>
       <use xlink:href="#DejaVuSans-30" transform="translate(63.623047 0)"/>
       <use xlink:href="#DejaVuSans-32" transform="translate(127.246094 0)"/>
       <use xlink:href="#DejaVuSans-35" transform="translate(190.869141 0)"/>
      </g>
     </g>
    </g>
   </g>
   <g id="matplotlib.axis_2">
    <g id="ytick_1">
     <g id="line2d_7">
      <defs>
       <path id="m2af28a8a78" d="M 0 0 
L -3.5 0 
" style="stroke: #000000; stroke-width: 0.8"/>
      </defs>
      <g>
       <use xlink:href="#m2af28a8a78" x="145.8" y="191.997271" style="stroke: #000000; stroke-width: 0.8"/>
      </g>
     </g>
     <g id="text_7">
      <!-- 20 -->
      <g transform="translate(126.075 195.79649) scale(0.1 -0.1)">
       <use xlink:href="#DejaVuSans-32"/>
       <use xlink:href="#DejaVuSans-30" transform="translate(63.623047 0)"/>
      </g>
     </g>
    </g>
    <g id="ytick_2">
     <g id="line2d_8">
      <g>
       <use xlink:href="#m2af28a8a78" x="145.8" y="152.270657" style="stroke: #000000; stroke-width: 0.8"/>
      </g>
     </g>
     <g id="text_8">
      <!-- 40 -->
      <g transform="translate(126.075 156.069875) scale(0.1 -0.1)">
       <use xlink:href="#DejaVuSans-34"/>
       <use xlink:href="#DejaVuSans-30" transform="translate(63.623047 0)"/>
      </g>
     </g>
    </g>
    <g id="ytick_3">
     <g id="line2d_9">
      <g>
       <use xlink:href="#m2af28a8a78" x="145.8" y="112.544042" style="stroke: #000000; stroke-width: 0.8"/>
      </g>
     </g>
     <g id="text_9">
      <!-- 60 -->
      <g transform="translate(126.075 116.343261) scale(0.1 -0.1)">
       <defs>
        <path id="DejaVuSans-36" d="M 2113 2584 
Q 1688 2584 1439 2293 
Q 1191 2003 1191 1497 
Q 1191 994 1439 701 
Q 1688 409 2113 409 
Q 2538 409 2786 701 
Q 3034 994 3034 1497 
Q 3034 2003 2786 2293 
Q 2538 2584 2113 2584 
z
M 3366 4563 
L 3366 3988 
Q 3128 4100 2886 4159 
Q 2644 4219 2406 4219 
Q 1781 4219 1451 3797 
Q 1122 3375 1075 2522 
Q 1259 2794 1537 2939 
Q 1816 3084 2150 3084 
Q 2853 3084 3261 2657 
Q 3669 2231 3669 1497 
Q 3669 778 3244 343 
Q 2819 -91 2113 -91 
Q 1303 -91 875 529 
Q 447 1150 447 2328 
Q 447 3434 972 4092 
Q 1497 4750 2381 4750 
Q 2619 4750 2861 4703 
Q 3103 4656 3366 4563 
z
" transform="scale(0.015625)"/>
       </defs>
       <use xlink:href="#DejaVuSans-36"/>
       <use xlink:href="#DejaVuSans-30" transform="translate(63.623047 0)"/>
      </g>
     </g>
    </g>
    <g id="ytick_4">
     <g id="line2d_10">
      <g>
       <use xlink:href="#m2af28a8a78" x="145.8" y="72.817428" style="stroke: #000000; stroke-width: 0.8"/>
      </g>
     </g>
     <g id="text_10">
      <!-- 80 -->
      <g transform="translate(126.075 76.616647) scale(0.1 -0.1)">
       <defs>
        <path id="DejaVuSans-38" d="M 2034 2216 
Q 1584 2216 1326 1975 
Q 1069 1734 1069 1313 
Q 1069 891 1326 650 
Q 1584 409 2034 409 
Q 2484 409 2743 651 
Q 3003 894 3003 1313 
Q 3003 1734 2745 1975 
Q 2488 2216 2034 2216 
z
M 1403 2484 
Q 997 2584 770 2862 
Q 544 3141 544 3541 
Q 544 4100 942 4425 
Q 1341 4750 2034 4750 
Q 2731 4750 3128 4425 
Q 3525 4100 3525 3541 
Q 3525 3141 3298 2862 
Q 3072 2584 2669 2484 
Q 3125 2378 3379 2068 
Q 3634 1759 3634 1313 
Q 3634 634 3220 271 
Q 2806 -91 2034 -91 
Q 1263 -91 848 271 
Q 434 634 434 1313 
Q 434 1759 690 2068 
Q 947 2378 1403 2484 
z
M 1172 3481 
Q 1172 3119 1398 2916 
Q 1625 2713 2034 2713 
Q 2441 2713 2670 2916 
Q 2900 3119 2900 3481 
Q 2900 3844 2670 4047 
Q 2441 4250 2034 4250 
Q 1625 4250 1398 4047 
Q 1172 3844 1172 3481 
z
" transform="scale(0.015625)"/>
       </defs>
       <use xlink:href="#DejaVuSans-38"/>
       <use xlink:href="#DejaVuSans-30" transform="translate(63.623047 0)"/>
      </g>
     </g>
    </g>
    <g id="ytick_5">
     <g id="line2d_11">
      <g>
       <use xlink:href="#m2af28a8a78" x="145.8" y="33.090813" style="stroke: #000000; stroke-width: 0.8"/>
      </g>
     </g>
     <g id="text_11">
      <!-- 100 -->
      <g transform="translate(119.7125 36.890032) scale(0.1 -0.1)">
       <use xlink:href="#DejaVuSans-31"/>
       <use xlink:href="#DejaVuSans-30" transform="translate(63.623047 0)"/>
       <use xlink:href="#DejaVuSans-30" transform="translate(127.246094 0)"/>
      </g>
     </g>
    </g>
   </g>
   <g id="line2d_12">
    <path d="M 186.889091 102.058687 
L 187.690438 91.127859 
L 188.89246 125.313225 
L 189.293133 116.064501 
L 189.693807 122.32727 
L 190.094481 126.690586 
L 190.495154 146.264216 
L 191.697176 154.325184 
L 192.097849 132.678748 
L 192.498523 123.334141 
L 192.899197 123.128051 
L 193.299871 128.53521 
L 194.501892 110.864133 
L 194.902565 107.895318 
L 195.303239 105.973062 
L 195.703913 104.909801 
L 196.104587 72.381803 
L 197.707282 72.861685 
L 198.107955 61.420051 
L 198.909303 79.273928 
L 200.111324 106.1498 
L 200.511998 120.925926 
L 200.912671 119.605274 
L 201.313345 133.452469 
L 201.714019 120.634365 
L 202.91604 123.518831 
L 203.316714 133.565484 
L 203.717388 125.391263 
L 204.118061 130.942969 
L 204.518735 146.225077 
L 205.720756 160.017133 
L 206.12143 161.757527 
L 206.522104 164.939165 
L 206.922777 170.002381 
L 207.323451 147.766493 
L 208.525472 159.293874 
L 208.926146 151.799576 
L 209.32682 151.662615 
L 209.727493 155.14217 
L 210.128167 160.45246 
L 211.330188 153.824648 
L 211.730862 145.669842 
L 212.131536 143.104048 
L 212.932883 129.454436 
L 214.134904 130.559583 
L 214.936252 120.335636 
L 215.336926 125.422766 
L 215.737599 105.4674 
L 216.939621 104.001805 
L 217.340294 100.266238 
L 217.740968 101.139942 
L 218.141642 98.64064 
L 219.744337 98.656204 
L 220.14501 108.72418 
L 220.545684 108.343413 
L 220.946358 107.20137 
L 221.347032 105.378179 
L 222.549053 116.949462 
L 222.949727 128.581772 
L 223.3504 103.795873 
L 223.751074 112.056318 
L 224.151748 98.373017 
L 225.353769 107.915575 
L 225.754443 103.90402 
L 226.155116 104.423252 
L 226.55579 106.857313 
L 226.956464 121.394873 
L 228.158485 125.841163 
L 228.559159 120.798217 
L 228.959832 129.3552 
L 229.360506 120.564822 
L 229.76118 108.918794 
L 230.963201 79.760342 
L 231.363875 105.010133 
L 231.764549 103.317354 
L 232.165222 100.111759 
L 232.565896 93.347111 
L 233.767917 80.790859 
L 234.168591 82.951465 
L 234.569265 71.438977 
L 234.969938 68.868833 
L 235.370612 68.362877 
L 236.973307 86.168265 
L 237.373981 97.142207 
L 237.774654 102.818222 
L 238.175328 98.373198 
L 239.377349 107.197432 
L 239.778023 94.424147 
L 240.178697 96.110354 
L 240.579371 102.507202 
L 240.980044 112.402857 
L 242.182066 129.498967 
L 242.582739 121.327116 
L 242.983413 115.452769 
L 243.384087 131.495788 
L 243.78476 135.818959 
L 244.986782 114.437004 
L 245.387455 110.272813 
L 245.788129 103.473444 
L 246.188803 116.861111 
L 246.589477 111.571386 
L 247.791498 103.624609 
L 248.192171 104.721557 
L 248.592845 114.955328 
L 248.993519 111.970347 
L 249.394193 120.781741 
L 250.596214 126.933212 
L 250.996888 127.712095 
L 251.397561 99.768986 
L 251.798235 101.421532 
L 253.40093 101.871383 
L 253.801604 94.268977 
L 254.202277 89.50229 
L 254.602951 81.997583 
L 255.003625 84.594086 
L 256.205646 113.016332 
L 256.60632 101.086834 
L 257.006993 98.144368 
L 257.407667 108.802308 
L 257.808341 89.889435 
L 259.010362 84.34848 
L 259.411036 100.591205 
L 259.81171 98.620186 
L 260.212383 114.672248 
L 260.613057 119.510523 
L 261.815078 113.774278 
L 262.215752 132.425184 
L 262.616426 133.978778 
L 263.017099 127.740685 
L 263.417773 109.525831 
L 264.619794 107.373276 
L 265.020468 93.893448 
L 265.421142 87.478184 
L 265.821816 87.86531 
L 266.222489 103.364096 
L 267.42451 94.772824 
L 267.825184 115.475553 
L 268.225858 84.085871 
L 268.626532 85.287327 
L 269.027205 87.478109 
L 270.229227 64.274773 
L 271.030574 80.062335 
L 271.431248 80.033949 
L 271.831921 77.764926 
L 273.033943 80.587826 
L 274.235964 81.986091 
L 274.636638 72.721203 
L 275.838659 54.324362 
L 276.239332 55.289541 
L 276.640006 52.060028 
L 277.04068 102.323353 
L 277.441354 125.914451 
L 279.044049 139.165251 
L 279.444722 122.363612 
L 279.845396 129.585414 
L 280.24607 141.318305 
L 281.448091 129.994539 
L 281.848765 128.667995 
L 282.249438 136.043726 
L 282.650112 134.737109 
L 283.050786 146.734853 
L 284.252807 145.020991 
L 284.653481 150.803048 
L 285.054155 167.026256 
L 285.855502 127.788758 
L 287.057523 109.452716 
L 287.458197 120.452834 
L 287.858871 103.203725 
L 288.259544 97.124066 
L 288.660218 127.60086 
L 289.862239 117.659859 
L 290.262913 102.104091 
L 291.06426 91.781869 
L 291.464934 99.687095 
L 292.666955 94.151259 
L 293.067629 74.305056 
L 293.468303 83.666018 
L 293.868977 97.95015 
L 294.26965 107.979286 
L 296.273019 135.228398 
L 296.673693 121.700722 
L 297.074366 134.551408 
L 298.276388 153.709301 
L 298.677061 152.504328 
L 299.077735 167.313129 
L 299.478409 151.875389 
L 299.879082 176.681661 
L 301.081104 175.760669 
L 301.481777 158.429292 
L 301.882451 136.078044 
L 302.283125 125.432711 
L 302.683799 111.480246 
L 303.88582 132.658482 
L 304.286494 143.809231 
L 304.687167 131.60531 
L 305.087841 134.337891 
L 305.488515 130.056029 
L 306.690536 130.608291 
L 307.09121 118.940194 
L 307.491883 125.06417 
L 307.892557 114.390914 
L 308.293231 122.909402 
L 309.495252 129.972461 
L 309.895926 151.627319 
L 310.296599 154.112195 
L 311.097947 165.890554 
L 312.299968 139.830453 
L 312.700642 104.64522 
L 313.101316 125.121961 
L 313.501989 135.48895 
L 313.902663 118.033848 
L 315.104684 126.703267 
L 315.505358 136.120649 
L 315.906032 154.320084 
L 316.306705 152.717251 
L 316.707379 135.990644 
L 317.9094 124.617603 
L 318.310074 112.905368 
L 318.710748 131.801545 
L 319.111421 128.206328 
L 319.512095 138.925127 
L 320.714116 135.130766 
L 321.11479 146.401222 
L 321.515464 151.75057 
L 321.916138 162.893864 
L 323.518832 169.659203 
L 323.919506 156.586406 
L 324.32018 117.721798 
L 324.720854 126.940302 
L 326.323549 125.860196 
L 326.724222 126.120215 
L 327.124896 165.263227 
L 327.52557 128.890709 
L 327.926244 134.666897 
L 329.128265 121.247966 
L 329.528938 127.654965 
L 329.929612 124.490071 
L 330.330286 126.557202 
L 330.73096 136.144452 
L 332.333655 128.989656 
L 333.135002 115.486279 
L 333.535676 117.222895 
L 334.737697 119.944438 
L 335.138371 131.69093 
L 335.539044 124.79275 
L 335.939718 141.070531 
L 336.340392 140.908351 
L 337.542413 144.137483 
L 337.943087 130.327783 
L 338.34376 132.443668 
L 338.744434 118.095768 
L 339.145108 107.801064 
L 340.347129 93.782006 
L 340.747803 106.715828 
L 341.148477 106.73172 
L 341.54915 92.206348 
L 341.949824 100.176457 
L 343.953193 84.106317 
L 344.353866 88.611389 
L 344.75454 85.126132 
L 345.956561 107.107493 
L 346.357235 118.844896 
L 346.757909 111.571594 
L 347.158583 138.651595 
L 347.559256 130.365809 
L 349.161951 147.750207 
L 349.963299 183.529798 
L 350.363972 178.401797 
L 351.565994 195.34538 
L 351.966667 169.339342 
L 352.367341 169.095021 
L 352.768015 160.544986 
L 353.168688 155.707244 
L 354.37071 146.874884 
L 354.771383 151.561675 
L 355.172057 131.659987 
L 355.572731 150.882871 
L 355.973405 150.970816 
L 357.175426 136.514314 
L 357.576099 126.720337 
L 357.976773 126.573369 
L 358.377447 130.769411 
L 358.778121 102.625432 
L 359.980142 119.705246 
L 360.380816 120.519423 
L 360.781489 121.802282 
L 361.182163 106.388818 
L 362.784858 109.739926 
L 363.185532 116.293809 
L 363.586205 111.141797 
L 363.986879 84.441324 
L 364.387553 85.075039 
L 365.589574 78.545265 
L 365.990248 68.978372 
L 366.390922 67.966154 
L 366.791595 58.064555 
L 367.192269 67.915346 
L 368.39429 86.083956 
L 369.195638 92.447431 
L 369.596311 111.975486 
L 369.996985 108.405935 
L 371.199006 102.532883 
L 372.000354 113.789504 
L 372.401027 114.34495 
L 372.801701 136.723025 
L 374.003722 151.902795 
L 374.404396 153.416691 
L 374.80507 178.423227 
L 375.205744 172.257238 
L 375.606417 149.45384 
L 376.808438 157.686597 
L 377.209112 163.123642 
L 377.609786 163.870101 
L 378.01046 183.265389 
L 378.411133 167.557295 
L 379.613155 167.210642 
L 380.013828 168.03179 
L 380.414502 167.955146 
L 380.815176 142.924464 
L 381.215849 128.515552 
L 382.417871 101.794662 
L 382.818544 103.017078 
L 383.219218 103.230865 
L 383.619892 115.32691 
L 384.020566 84.929455 
L 385.62326 85.187392 
L 386.023934 58.985115 
L 386.424608 53.948873 
L 386.825282 53.796651 
L 388.027303 50.293431 
L 388.427977 50.823843 
L 388.82865 55.082346 
L 389.229324 57.894145 
L 389.629998 57.755552 
L 390.832019 60.898741 
L 391.232693 72.28357 
L 391.633366 72.623814 
L 392.03404 56.416889 
L 392.434714 62.543523 
L 393.636735 72.645584 
L 394.037409 73.24929 
L 394.438083 73.487951 
L 394.838756 79.551915 
L 395.23943 88.444186 
L 396.441451 69.398194 
L 396.842125 65.107683 
L 397.643472 68.423867 
L 398.044146 67.663315 
L 399.646841 55.695862 
L 400.047515 69.939809 
L 400.448188 98.925442 
L 400.848862 95.743315 
L 402.050883 81.575879 
L 402.852231 113.480506 
L 403.252905 137.314435 
L 403.653578 148.195012 
L 404.855599 155.705696 
L 405.256273 159.10093 
L 405.656947 142.153854 
L 406.057621 142.616656 
L 406.458294 148.389512 
L 407.660316 156.352136 
L 408.060989 153.10296 
L 408.461663 139.74495 
L 408.862337 139.518618 
L 409.263011 152.05541 
L 410.465032 142.122359 
L 410.865705 132.959214 
L 411.667053 69.507131 
L 412.067727 88.175865 
L 413.269748 84.167717 
L 413.670422 115.143582 
L 414.071095 129.020361 
L 414.471769 121.800159 
L 414.872443 105.238039 
L 416.074464 110.859582 
L 416.475138 133.643078 
L 416.875811 148.34517 
L 417.276485 125.765578 
L 417.677159 112.19518 
L 418.87918 98.704229 
L 419.279854 107.351501 
L 419.680527 106.654986 
L 420.081201 104.007285 
L 420.481875 96.355217 
L 421.683896 87.907188 
L 422.485244 90.739405 
L 422.885917 94.635622 
L 423.286591 84.653799 
L 424.889286 76.64983 
L 425.28996 74.029841 
L 426.091307 93.985135 
L 427.293328 126.775906 
L 427.694002 119.236505 
L 428.094676 128.172517 
L 428.495349 126.610667 
L 428.896023 158.169652 
L 430.098044 176.272173 
L 430.498718 165.766937 
L 430.899392 144.729459 
L 431.300066 130.520158 
L 431.700739 149.300081 
L 432.902761 153.491158 
L 433.303434 162.806814 
L 433.704108 163.063049 
L 434.104782 165.575673 
L 434.505455 160.549794 
L 435.707477 174.687761 
L 436.10815 161.214715 
L 436.508824 155.381713 
L 436.909498 144.638423 
L 437.310172 136.956921 
L 438.512193 141.292559 
L 438.912866 155.390718 
L 439.31354 161.792894 
L 439.714214 138.32641 
L 441.316909 100.326691 
L 441.717583 94.135691 
L 442.118256 102.389484 
L 442.51893 94.816679 
L 442.919604 61.202057 
L 444.121625 63.214625 
L 444.522299 55.670631 
L 444.922972 66.534473 
L 445.323646 55.909765 
L 445.72432 49.353536 
L 446.926341 47.934081 
L 447.327015 47.220812 
L 447.727688 48.71774 
L 448.128362 43.263779 
L 448.529036 44.774881 
L 449.731057 43.566936 
L 450.131731 42.772885 
L 450.532405 65.779399 
L 450.933078 63.109897 
L 451.333752 64.362596 
L 452.535773 76.073371 
L 452.936447 70.781761 
L 453.337121 88.275721 
L 453.737794 79.703102 
L 454.138468 75.806369 
L 455.340489 90.017614 
L 455.741163 93.162537 
L 456.141837 105.871755 
L 456.943184 117.762876 
L 458.145205 112.287478 
L 458.545879 117.272646 
L 458.946553 117.609862 
L 459.347227 119.163865 
L 459.7479 130.303517 
L 460.949922 132.301969 
L 461.350595 119.379582 
L 461.751269 117.07836 
L 462.151943 139.944236 
L 462.552616 151.408363 
L 463.754638 156.613762 
L 464.155311 154.196899 
L 464.555985 145.544981 
L 464.956659 149.953503 
L 465.357333 166.291017 
L 466.559354 163.717534 
L 466.960027 147.213823 
L 467.360701 149.91493 
L 467.761375 139.735534 
L 469.36407 126.363144 
L 469.764744 148.301933 
L 470.165417 146.487428 
L 470.566091 139.919189 
L 470.966765 139.011687 
L 472.168786 113.882392 
L 472.56946 123.928572 
L 472.970133 158.840533 
L 473.370807 134.656457 
L 473.771481 138.154308 
L 474.973502 135.692169 
L 475.374176 146.758428 
L 475.77485 148.656606 
L 476.576197 177.538883 
L 478.178892 179.982362 
L 479.380913 187.703249 
L 480.582934 198.54328 
L 480.983608 199.238821 
L 481.384282 185.062266 
L 481.784955 198.498216 
L 482.185629 179.304143 
L 483.38765 159.140055 
L 483.788324 162.302893 
L 484.188998 157.33821 
L 484.589672 156.447217 
L 484.990345 156.401711 
L 486.192366 143.818008 
L 486.59304 131.990621 
L 486.993714 108.126977 
L 487.394388 109.356477 
L 487.795061 127.796701 
L 488.997083 115.912591 
L 489.79843 96.599477 
L 490.599777 138.858242 
L 492.202472 141.873315 
L 492.603146 153.421824 
L 493.00382 133.872213 
L 493.404494 133.590586 
L 494.606515 134.946344 
L 495.407862 151.222908 
L 495.808536 148.850182 
L 496.20921 141.02956 
L 497.411231 154.839868 
L 497.811905 178.078804 
L 498.212578 160.594184 
L 498.613252 149.598124 
L 499.013926 147.163604 
L 500.215947 151.193769 
L 500.616621 127.317817 
L 501.017294 126.008054 
L 501.417968 127.127397 
L 501.818642 116.566682 
L 503.020663 106.214754 
L 503.421337 113.061249 
L 503.822011 116.792552 
L 504.222684 95.286488 
L 504.623358 83.306619 
L 505.825379 81.916925 
L 506.226053 86.197168 
L 506.626727 93.167313 
L 507.0274 91.471399 
L 507.428074 89.252058 
L 508.630095 94.157684 
L 509.030769 119.791673 
L 510.23279 162.651577 
L 511.434811 167.978474 
L 511.835485 165.523554 
L 512.236159 188.291103 
L 512.636833 190.204261 
L 514.239528 190.232664 
L 514.640201 190.546001 
L 515.040875 189.591223 
L 515.441549 192.820532 
L 515.842222 193.131192 
L 517.044244 196.760332 
L 517.444917 195.776549 
L 517.845591 191.657129 
L 518.246265 171.613178 
L 518.646939 172.385817 
L 519.84896 153.65763 
L 520.249633 149.901338 
L 520.650307 149.545478 
L 521.050981 153.482488 
L 521.451655 160.417918 
L 522.653676 174.679384 
L 523.05435 163.89804 
L 523.455023 161.998366 
L 523.855697 160.730266 
L 524.256371 149.372139 
L 525.458392 144.830073 
L 525.859066 134.265058 
L 526.259739 154.831624 
L 526.660413 144.646716 
L 527.061087 158.061087 
L 528.263108 156.544769 
L 528.663782 169.680099 
L 529.064455 150.138058 
L 529.465129 139.729904 
L 529.865803 114.654132 
L 531.468498 121.608302 
L 531.869172 114.343851 
L 532.269845 98.836769 
L 532.670519 121.750526 
L 533.87254 115.748781 
L 534.273214 123.445971 
L 534.673888 109.203697 
L 535.475235 129.052215 
L 536.677256 145.426932 
L 537.07793 135.894041 
L 537.478604 137.405306 
L 537.879278 157.526416 
L 538.279951 167.857108 
L 539.882646 156.273646 
L 540.28332 154.993587 
L 540.683994 177.14909 
L 541.084667 153.479961 
L 542.286689 157.130282 
L 542.687362 167.03618 
L 543.088036 168.285114 
L 543.48871 166.642524 
L 543.889383 163.053735 
L 545.492078 142.019537 
L 545.892752 142.375692 
L 546.293426 141.803925 
L 546.6941 128.589319 
L 547.896121 143.408924 
L 548.296794 157.153121 
L 548.697468 152.774824 
L 549.098142 146.754019 
L 549.498816 157.521941 
L 550.700837 146.336327 
L 551.101511 114.102653 
L 551.502184 93.986868 
L 551.902858 82.166914 
L 552.303532 84.612284 
L 553.505553 96.28571 
L 553.906227 109.141183 
L 554.3069 102.968912 
L 554.707574 100.558349 
L 555.108248 84.05775 
L 556.310269 80.224616 
L 556.710943 80.202552 
L 557.111617 79.059772 
L 557.51229 79.541617 
L 557.912964 87.408027 
L 559.114985 120.496448 
L 559.515659 143.304817 
L 560.71768 109.277136 
L 561.919701 97.28756 
L 562.721049 126.885489 
L 563.121722 123.189027 
L 563.522396 140.553013 
L 565.525765 158.986858 
L 565.926439 145.913938 
L 566.327112 150.599738 
L 567.529133 148.12231 
L 567.929807 167.487667 
L 568.330481 169.323701 
L 568.731155 191.266943 
L 569.131828 199.101284 
L 570.734523 199.218844 
L 571.135197 191.519349 
L 571.535871 194.896882 
L 571.936544 180.991916 
L 573.138566 171.762371 
L 573.539239 185.290518 
L 573.939913 186.134284 
L 574.340587 202.378715 
L 574.741261 185.833142 
L 575.943282 176.742984 
L 576.343955 175.42193 
L 577.145303 162.445411 
L 577.545977 158.491216 
L 578.747998 160.257551 
L 579.148672 162.255069 
L 579.549345 160.867814 
L 579.950019 180.286944 
L 580.350693 185.117726 
L 581.552714 150.190606 
L 581.953388 131.46474 
L 582.354061 125.370816 
L 582.754735 134.202552 
L 583.155409 160.409807 
L 584.35743 163.361542 
L 584.758104 166.842323 
L 585.158778 157.39541 
L 585.559451 144.328757 
L 585.960125 151.988989 
L 587.162146 141.797098 
L 587.56282 146.793193 
L 587.963494 135.848941 
L 588.364167 131.301368 
L 588.764841 133.351652 
L 589.966862 145.477754 
L 590.367536 131.360999 
L 590.76821 136.857744 
L 591.569557 86.679459 
L 592.771578 94.088423 
L 593.172252 91.108073 
L 593.572926 106.23203 
L 593.9736 81.088388 
L 594.374273 80.266196 
L 595.576294 79.556306 
L 595.976968 77.365765 
L 596.377642 102.683833 
L 596.778316 85.733744 
L 597.178989 82.588734 
L 598.381011 88.10779 
L 598.781684 77.409878 
L 599.182358 95.129599 
L 599.583032 105.721188 
L 599.983706 104.440767 
L 601.185727 106.633866 
L 601.5864 93.699622 
L 601.987074 91.448556 
L 602.788422 102.524755 
L 603.990443 111.714164 
L 604.391117 118.124853 
L 604.79179 91.619449 
L 605.593138 122.582823 
L 606.795159 126.966453 
L 607.195833 143.432535 
L 607.596506 128.510092 
L 607.99718 108.715832 
L 608.397854 106.72403 
L 609.599875 99.040092 
L 610.000549 100.925513 
L 610.401222 114.267396 
L 610.801896 122.41485 
L 611.20257 121.413876 
L 612.404591 123.480863 
L 612.805265 146.836478 
L 613.205939 142.951021 
L 613.606612 154.61091 
L 614.007286 153.089715 
L 615.609981 158.132588 
L 616.010655 161.330734 
L 616.411328 170.5923 
L 616.812002 168.784303 
L 618.414697 183.314722 
L 618.815371 185.818783 
L 619.216045 186.448929 
L 619.616718 166.278933 
L 620.818739 146.760701 
L 621.219413 137.687672 
L 621.620087 133.708483 
L 622.020761 132.254644 
L 622.421434 105.37771 
L 624.024129 93.685981 
L 624.424803 75.09169 
L 624.825477 88.47234 
L 625.22615 84.266454 
L 626.428172 75.695702 
L 626.828845 69.314826 
L 627.229519 71.151405 
L 627.630193 58.204705 
L 628.030867 58.310184 
L 629.232888 87.489891 
L 629.633561 86.843282 
L 630.034235 79.184328 
L 630.434909 77.939373 
L 630.835583 89.389614 
L 632.037604 94.640996 
L 632.838951 72.94425 
L 633.239625 77.55403 
L 633.640299 106.232876 
L 634.84232 102.264712 
L 635.242994 94.019258 
L 635.643667 100.313172 
L 636.044341 115.046901 
L 636.445015 107.216078 
L 638.04771 120.251087 
L 638.448383 134.805549 
L 638.849057 112.934521 
L 639.249731 110.117288 
L 640.451752 108.317336 
L 640.852426 121.0802 
L 641.2531 127.323486 
L 641.653773 122.814453 
L 642.054447 105.304203 
L 643.256468 113.811793 
L 643.657142 128.662165 
L 644.057816 117.061445 
L 644.458489 116.850688 
L 644.859163 115.034121 
L 646.061184 104.725631 
L 646.461858 97.039965 
L 646.862532 123.804458 
L 647.263206 102.464106 
L 647.663879 102.752018 
L 648.8659 96.094786 
L 649.266574 83.605608 
L 649.667248 86.187954 
L 650.067922 85.061369 
L 650.468595 86.653006 
L 651.670617 86.362528 
L 652.07129 96.833388 
L 652.471964 74.18274 
L 652.872638 59.032667 
L 653.273311 57.432918 
L 654.475333 61.482499 
L 654.876006 77.288418 
L 655.27668 106.158029 
L 655.677354 106.563755 
L 657.280049 101.578634 
L 658.081396 131.954755 
L 658.48207 146.221393 
L 658.882744 132.81501 
L 660.084765 123.258476 
L 660.485439 110.33903 
L 660.886112 114.817587 
L 661.286786 137.205451 
L 661.68746 144.518186 
L 662.889481 149.752473 
L 663.290155 154.002526 
L 663.690828 131.104419 
L 664.091502 129.188187 
L 664.492176 129.50236 
L 665.694197 106.061209 
L 666.094871 106.557116 
L 666.896218 120.851504 
L 667.296892 110.997645 
L 668.498913 112.988944 
L 668.899587 124.367561 
L 669.300261 108.481603 
L 669.700934 113.55216 
L 670.101608 115.976993 
L 671.303629 97.235477 
L 671.704303 101.287376 
L 672.50565 88.439562 
L 672.906324 103.643695 
L 674.108345 93.214525 
L 674.509019 94.673359 
L 674.909693 93.030104 
L 675.310367 65.621862 
L 675.71104 64.497749 
L 677.313735 55.538653 
L 677.714409 79.732538 
L 678.115083 72.330048 
L 678.515756 74.076762 
L 679.717778 76.80097 
L 680.118451 81.742931 
L 680.519125 93.667531 
L 680.919799 95.210437 
L 681.320472 91.195184 
L 682.522494 88.324779 
L 682.923167 80.483977 
L 683.323841 75.099753 
L 683.724515 100.373606 
L 684.125189 104.968257 
L 685.727884 105.228062 
L 686.128557 89.285009 
L 686.529231 100.343115 
L 688.131926 120.168736 
L 688.5326 107.011329 
L 688.933273 102.758903 
L 689.333947 112.370664 
L 689.734621 104.742826 
L 690.936642 108.307895 
L 691.737989 120.313735 
L 692.138663 142.412913 
L 692.539337 134.075673 
L 693.741358 137.926217 
L 694.142032 149.149122 
L 694.542706 123.009778 
L 694.943379 106.023008 
L 695.344053 102.439701 
L 696.546074 75.756498 
L 696.946748 76.655985 
L 697.347422 71.169554 
L 697.748095 89.710871 
L 698.148769 113.706954 
L 699.35079 112.280454 
L 699.751464 104.16328 
L 700.152138 104.303447 
L 700.552811 104.015728 
L 700.953485 95.833944 
L 702.155506 97.224387 
L 702.55618 108.739004 
L 702.956854 147.697835 
L 703.357528 141.15435 
L 703.758201 150.086723 
L 704.960223 153.65364 
L 705.360896 156.26495 
L 705.76157 160.202381 
L 706.162244 152.378675 
L 706.562917 167.011125 
L 707.764939 147.571797 
L 708.165612 144.349969 
L 708.566286 151.465431 
L 708.96696 160.900642 
L 709.367634 161.043491 
L 710.569655 129.429541 
L 711.371002 115.853504 
L 711.771676 116.484118 
L 712.17235 128.652122 
L 713.374371 118.89676 
L 713.775045 93.241555 
L 714.175718 90.022812 
L 714.576392 74.861991 
L 714.977066 94.972752 
L 716.579761 95.707208 
L 716.980434 106.076632 
L 717.781782 117.130254 
L 718.983803 147.788928 
L 719.384477 139.894633 
L 719.78515 149.062758 
L 720.185824 148.479937 
L 720.586498 152.817813 
L 721.788519 162.24527 
L 722.189193 197.432283 
L 722.589867 211.332235 
L 722.99054 215.46 
L 723.391214 202.909421 
L 724.593235 193.449358 
L 724.993909 188.527521 
L 725.795256 160.42079 
L 726.19593 151.315601 
L 727.397951 133.299663 
L 727.798625 151.121981 
L 728.199299 146.475387 
L 728.599973 124.452371 
L 729.000646 115.961428 
L 730.202667 116.418559 
L 731.004015 74.443545 
L 731.404689 76.427125 
L 731.805362 101.287454 
L 733.007384 93.426055 
L 733.408057 120.499066 
L 733.808731 139.035383 
L 734.209405 143.033748 
L 734.610078 159.388198 
L 735.8121 136.606184 
L 736.212773 135.29871 
L 737.014121 169.385796 
L 737.414795 165.591691 
L 738.616816 164.342066 
L 739.017489 175.794492 
L 739.418163 162.594298 
L 739.818837 145.441115 
L 741.421532 119.860476 
L 741.822206 103.27046 
L 742.222879 99.098317 
L 742.623553 89.904241 
L 743.024227 90.805551 
L 744.226248 92.682325 
L 744.626922 64.645012 
L 745.027595 54.106296 
L 745.428269 53.327398 
L 745.828943 57.572614 
L 747.030964 49.45818 
L 747.431638 59.989596 
L 747.832312 83.108554 
L 748.633659 104.712226 
L 749.83568 106.788821 
L 750.236354 113.638363 
L 750.637028 116.162272 
L 751.438375 149.378013 
L 752.640396 162.814404 
L 753.04107 162.507327 
L 753.441744 164.456889 
L 753.842417 158.460753 
L 754.243091 147.575202 
L 755.445112 165.106811 
L 756.647134 126.971293 
L 757.047807 126.317821 
L 758.249828 112.723006 
L 758.650502 119.790838 
L 759.051176 120.97065 
L 759.45185 114.773827 
L 759.852523 103.6004 
L 761.455218 107.571446 
L 761.855892 93.23728 
L 762.657239 107.460754 
L 764.259934 114.404031 
L 764.660608 133.490379 
L 765.061282 133.515312 
L 765.461956 124.076185 
L 766.663977 103.416811 
L 767.064651 105.296959 
L 767.465324 92.98976 
L 767.865998 71.466268 
L 768.266672 76.548115 
L 769.869367 68.202863 
L 770.27004 74.219361 
L 770.670714 71.200178 
L 771.071388 65.314755 
L 772.273409 64.962723 
L 772.674083 48.076616 
L 773.074756 39.06 
L 773.47543 39.131627 
L 773.876104 47.674504 
L 775.478799 50.544341 
L 775.879473 71.614614 
L 776.280146 68.509259 
L 776.68082 60.315559 
L 777.882841 57.951495 
L 778.283515 65.459138 
L 778.684189 64.049585 
L 779.084862 72.934568 
L 779.485536 68.121201 
L 780.687557 68.311225 
L 781.088231 72.35772 
L 781.488905 69.274975 
L 781.889578 74.609026 
L 782.290252 78.191886 
L 784.293621 105.781064 
L 784.694295 83.873918 
L 785.094968 88.891249 
L 786.296989 95.111074 
L 786.697663 91.229858 
L 787.098337 101.662046 
L 787.499011 95.411178 
L 787.899684 93.799502 
L 789.903053 84.229565 
L 790.303727 72.613814 
L 790.704401 93.762267 
L 791.906422 88.507039 
L 792.307095 73.32754 
L 792.707769 92.894847 
L 793.108443 105.511675 
L 793.509117 106.507873 
L 794.711138 103.715019 
L 795.111812 97.792776 
L 795.512485 98.718212 
L 795.913159 103.157499 
L 796.313833 103.39223 
L 797.515854 103.433105 
L 798.317201 140.684008 
L 798.717875 120.700632 
L 800.32057 111.919002 
L 800.721244 146.770565 
L 801.121917 144.002311 
L 801.522591 144.610273 
L 801.923265 131.493852 
L 803.125286 139.373409 
L 803.52596 152.811642 
L 803.926634 148.637915 
L 804.327307 135.957917 
L 804.727981 159.364417 
L 805.930002 169.722033 
L 806.330676 154.69614 
L 806.73135 158.127216 
L 807.132023 155.425607 
L 807.532697 175.041188 
L 808.734718 160.277684 
L 809.135392 149.58558 
L 809.536066 148.900042 
L 809.93674 146.327576 
L 810.337413 131.003317 
L 811.539434 126.561723 
L 811.940108 133.969543 
L 812.340782 151.084227 
L 813.142129 125.721306 
L 814.344151 121.582447 
L 814.744824 116.827672 
L 815.145498 118.521939 
L 815.546172 96.031592 
L 815.946845 100.323807 
L 817.148867 105.723097 
L 817.54954 90.828761 
L 817.950214 90.176017 
L 818.350888 104.27394 
L 818.751562 113.828345 
L 819.953583 100.634298 
L 820.354256 80.085281 
L 820.75493 89.40452 
L 821.155604 77.133274 
L 821.556278 78.274147 
L 823.158973 60.251064 
L 823.559646 58.748942 
L 823.96032 71.681835 
L 824.360994 76.847108 
L 825.563015 71.56703 
L 825.963689 71.112579 
L 826.364362 68.72 
L 826.765036 73.005567 
L 827.16571 66.43699 
L 828.367731 67.564653 
L 828.768405 71.497034 
L 829.169078 66.338921 
L 829.569752 69.933983 
L 829.970426 70.296338 
L 831.172447 82.659555 
L 831.573121 77.837856 
L 832.374468 79.749423 
L 833.977163 125.476911 
L 834.377837 113.681092 
L 834.778511 123.751787 
L 835.179184 125.998729 
L 835.579858 126.765795 
L 836.781879 127.050366 
L 837.182553 128.725876 
L 837.583227 126.139019 
L 838.384574 140.422201 
L 839.586595 140.193615 
L 839.987269 131.60023 
L 840.387943 133.789315 
L 840.788617 139.007625 
L 841.18929 126.938646 
L 842.391312 107.28026 
L 843.192659 151.836338 
L 843.593333 139.001164 
L 843.994006 144.417813 
L 845.196028 133.880423 
L 845.596701 132.564504 
L 845.997375 158.555033 
L 846.398049 157.889985 
L 846.798723 161.764054 
L 848.000744 172.105886 
L 848.401417 189.923856 
L 848.802091 149.698633 
L 849.202765 162.736848 
L 849.603439 163.915407 
L 850.80546 168.412556 
L 851.206134 152.805107 
L 851.606807 164.267938 
L 852.007481 150.274411 
L 852.408155 160.406738 
L 853.610176 151.668821 
L 854.01085 129.677044 
L 854.812197 119.023081 
L 855.212871 114.727168 
L 856.414892 95.415351 
L 856.815566 115.471052 
L 857.21624 96.55078 
L 857.616913 103.327436 
L 858.017587 80.241809 
L 859.219608 91.686994 
L 859.620282 74.801 
L 860.020956 89.069222 
L 860.421629 109.263534 
L 860.822303 112.868741 
L 863.627019 171.265644 
L 864.82904 175.836387 
L 865.229714 168.503595 
L 865.630388 151.512405 
L 866.031062 140.303466 
L 866.431735 151.95019 
L 867.633756 151.037492 
L 868.03443 157.187696 
L 868.435104 156.493315 
L 868.835778 131.793204 
L 869.236451 139.507402 
L 870.438473 109.523137 
L 870.839146 94.769882 
L 871.23982 92.262756 
L 871.640494 74.669098 
L 872.041168 90.611921 
L 873.243189 93.308838 
L 873.643862 132.071118 
L 874.044536 133.395427 
L 874.845884 107.804893 
L 876.047905 97.457812 
L 876.448579 80.599234 
L 876.849252 88.140195 
L 877.249926 76.558467 
L 877.6506 76.945599 
L 878.852621 78.790078 
L 879.253295 109.894847 
L 879.653968 102.875363 
L 880.054642 91.657404 
L 880.455316 90.105873 
L 881.657337 66.336523 
L 882.058011 68.453893 
L 882.458684 89.245361 
L 882.859358 91.085491 
L 883.260032 93.809114 
L 884.462053 108.281679 
L 884.862727 105.632337 
L 885.263401 118.192398 
L 885.664074 137.708407 
L 886.064748 139.461812 
L 887.266769 118.496137 
L 887.667443 119.200829 
L 888.068117 108.461012 
L 888.46879 104.120285 
L 888.869464 120.868529 
L 890.071485 127.798919 
L 890.472159 107.627905 
L 890.872833 116.312338 
L 891.273506 117.811852 
L 891.67418 128.715899 
L 892.876201 135.112894 
L 893.677549 99.700374 
L 894.078223 102.959858 
L 894.478896 118.482304 
L 895.680918 141.157997 
L 896.482265 168.114944 
L 897.283612 156.099817 
L 898.485634 150.046503 
L 898.886307 154.603527 
L 899.286981 135.300575 
L 899.687655 136.781673 
L 900.088329 131.118697 
L 901.29035 135.883594 
L 901.691023 166.368075 
L 902.091697 149.57475 
L 902.492371 156.021085 
L 902.893045 152.737153 
L 904.095066 144.161053 
L 904.49574 151.124554 
L 904.896413 150.891162 
L 905.297087 154.916186 
L 905.697761 142.930873 
L 906.899782 133.836189 
L 907.300456 145.949233 
L 908.101803 146.470135 
L 908.502477 147.170324 
L 909.704498 136.33476 
L 910.105172 134.766275 
L 910.906519 135.451979 
L 911.307193 113.169985 
L 912.509214 93.430549 
L 912.909888 114.725011 
L 913.310562 110.537021 
L 914.111909 117.571297 
L 915.31393 127.10572 
L 915.714604 138.864467 
L 916.115278 140.023123 
L 916.515951 146.504563 
L 916.916625 136.756106 
L 918.51932 124.953705 
L 919.320668 108.45355 
L 920.923362 168.226206 
L 921.324036 158.486829 
L 921.72471 154.519512 
L 922.125384 152.945513 
L 922.526057 153.343918 
L 923.728079 154.098051 
L 924.128752 149.451962 
L 924.529426 146.918837 
L 924.9301 138.534011 
L 925.330773 142.652761 
L 926.532795 141.783642 
L 926.933468 152.248414 
L 927.334142 154.30219 
L 927.734816 142.449971 
L 928.13549 93.274539 
L 929.738184 107.691023 
L 930.138858 90.391954 
L 930.539532 90.501408 
L 930.940206 94.617646 
L 932.142227 97.254285 
L 932.542901 112.662836 
L 932.943574 115.816008 
L 933.344248 150.868161 
L 933.744922 142.278781 
L 934.946943 166.623576 
L 935.74829 156.337365 
L 936.148964 173.312083 
L 936.549638 176.758982 
L 937.751659 182.92257 
L 938.152333 178.714496 
L 938.553007 166.262147 
L 938.95368 160.782245 
L 939.354354 144.988199 
L 940.556375 143.015154 
L 940.957049 156.306931 
L 941.357723 136.988548 
L 941.758396 144.356138 
L 942.15907 123.973545 
L 943.361091 120.359658 
L 943.761765 124.762114 
L 944.162439 125.245647 
L 944.563112 135.190741 
L 944.963786 125.80942 
L 946.165807 133.32259 
L 946.566481 148.301412 
L 946.967155 147.032736 
L 947.367829 184.933816 
L 947.768502 190.766218 
L 948.970523 174.325291 
L 949.371197 183.31305 
L 949.771871 139.547532 
L 950.172545 148.041797 
L 950.573218 148.670449 
L 951.77524 148.016489 
L 952.175913 135.075874 
L 952.576587 143.272062 
L 952.977261 144.9678 
L 954.579956 149.167109 
L 954.980629 148.809587 
L 955.381303 143.082533 
L 956.182651 106.459488 
L 957.384672 114.888325 
L 957.785346 111.972122 
L 958.186019 144.64937 
L 958.586693 122.331037 
L 958.987367 123.39692 
L 960.189388 124.648627 
L 960.590062 128.959559 
L 960.990735 96.126922 
L 961.391409 82.686419 
L 961.792083 62.037371 
L 962.994104 58.11256 
L 963.394778 55.910593 
L 963.795451 54.869131 
L 964.196125 60.631894 
L 964.596799 47.646645 
L 965.79882 47.702749 
L 966.199494 53.928229 
L 966.600168 69.95952 
L 967.000841 72.226477 
L 967.401515 76.635629 
L 969.00421 70.164534 
L 969.404884 77.676903 
L 969.805557 72.675104 
L 970.206231 86.083043 
L 971.408252 92.199824 
L 971.808926 97.831863 
L 972.2096 108.832224 
L 972.610273 114.820724 
L 973.010947 111.69181 
L 974.212968 109.817956 
L 975.014316 95.514897 
L 975.41499 93.208622 
L 975.815663 99.589235 
L 977.017684 102.799462 
L 977.418358 102.296431 
L 977.819032 109.835713 
L 978.620379 98.12491 
L 979.822401 103.497787 
L 980.223074 103.830073 
L 981.024422 78.560657 
L 981.425096 76.978346 
L 982.627117 78.025798 
L 983.02779 102.862059 
L 983.428464 90.605117 
L 983.829138 90.739735 
L 985.431833 82.302505 
L 985.832507 83.812367 
L 986.23318 76.955548 
L 986.633854 77.139081 
L 987.034528 68.315466 
L 988.236549 72.841306 
L 988.637223 69.646287 
L 989.037896 76.562202 
L 989.43857 75.282815 
L 989.839244 82.407949 
L 991.041265 87.945623 
L 991.441939 86.292456 
L 991.842612 86.654737 
L 992.243286 85.113692 
L 992.64396 80.822246 
L 993.845981 78.518388 
L 994.246655 89.493665 
L 994.647329 84.984263 
L 995.048002 92.65007 
L 995.448676 105.523666 
L 996.650697 106.241819 
L 997.051371 113.592664 
L 997.452045 114.64659 
L 997.852718 109.75909 
L 998.253392 102.474945 
L 999.455413 88.309098 
L 999.856087 92.999096 
L 1000.256761 106.253952 
L 1000.657435 104.201482 
L 1001.058108 119.431707 
L 1002.260129 109.86697 
L 1002.660803 143.943962 
L 1003.061477 140.55995 
L 1003.462151 127.660075 
L 1003.862824 141.052881 
L 1005.064846 125.763381 
L 1005.465519 122.670422 
L 1005.866193 128.790288 
L 1006.66754 160.721876 
L 1008.270235 173.474078 
L 1008.670909 170.595271 
L 1008.670909 170.595271 
" clip-path="url(#pe597b77aa6)" style="fill: none; stroke: #1f77b4; stroke-width: 1.5; stroke-linecap: square"/>
   </g>
   <g id="patch_3">
    <path d="M 145.8 224.28 
L 145.8 30.24 
" style="fill: none; stroke: #000000; stroke-width: 0.8; stroke-linejoin: miter; stroke-linecap: square"/>
   </g>
   <g id="patch_4">
    <path d="M 145.8 224.28 
L 1049.76 224.28 
" style="fill: none; stroke: #000000; stroke-width: 0.8; stroke-linejoin: miter; stroke-linecap: square"/>
   </g>
  </g>
 </g>
 <defs>
  <clipPath id="pe597b77aa6">
   <rect x="145.8" y="30.24" width="903.96" height="194.04"/>
  </clipPath>
 </defs>
</svg>
