<?xml version="1.0" encoding="utf-8" standalone="no"?>
<!DOCTYPE svg PUBLIC "-//W3C//DTD SVG 1.1//EN"
  "http://www.w3.org/Graphics/SVG/1.1/DTD/svg11.dtd">
<svg xmlns:xlink="http://www.w3.org/1999/xlink" width="1166.4pt" height="252pt" viewBox="0 0 1166.4 252" xmlns="http://www.w3.org/2000/svg" version="1.1">
 <metadata>
  <rdf:RDF xmlns:dc="http://purl.org/dc/elements/1.1/" xmlns:cc="http://creativecommons.org/ns#" xmlns:rdf="http://www.w3.org/1999/02/22-rdf-syntax-ns#">
   <cc:Work>
    <dc:type rdf:resource="http://purl.org/dc/dcmitype/StillImage"/>
    <dc:date>2025-09-05T15:24:41.820871</dc:date>
    <dc:format>image/svg+xml</dc:format>
    <dc:creator>
     <cc:Agent>
      <dc:title>Matplotlib v3.10.5, https://matplotlib.org/</dc:title>
     </cc:Agent>
    </dc:creator>
   </cc:Work>
  </rdf:RDF>
 </metadata>
 <defs>
  <style type="text/css">*{stroke-linejoin: round; stroke-linecap: butt}</style>
 </defs>
 <g id="figure_1">
  <g id="patch_1">
   <path d="M 0 252 
L 1166.4 252 
L 1166.4 0 
L 0 0 
z
" style="fill: #ffffff"/>
  </g>
  <g id="axes_1">
   <g id="patch_2">
    <path d="M 145.8 224.28 
L 1049.76 224.28 
L 1049.76 30.24 
L 145.8 30.24 
z
" style="fill: #ffffff"/>
   </g>
   <g id="matplotlib.axis_1">
    <g id="xtick_1">
     <g id="line2d_1">
      <defs>
       <path id="m9aee84c992" d="M 0 0 
L 0 3.5 
" style="stroke: #000000; stroke-width: 0.8"/>
      </defs>
      <g>
       <use xlink:href="#m9aee84c992" x="178.470838" y="224.28" style="stroke: #000000; stroke-width: 0.8"/>
      </g>
     </g>
     <g id="text_1">
      <!-- 2020 -->
      <g transform="translate(165.745838 238.878438) scale(0.1 -0.1)">
       <defs>
        <path id="DejaVuSans-32" d="M 1228 531 
L 3431 531 
L 3431 0 
L 469 0 
L 469 531 
Q 828 903 1448 1529 
Q 2069 2156 2228 2338 
Q 2531 2678 2651 2914 
Q 2772 3150 2772 3378 
Q 2772 3750 2511 3984 
Q 2250 4219 1831 4219 
Q 1534 4219 1204 4116 
Q 875 4013 500 3803 
L 500 4441 
Q 881 4594 1212 4672 
Q 1544 4750 1819 4750 
Q 2544 4750 2975 4387 
Q 3406 4025 3406 3419 
Q 3406 3131 3298 2873 
Q 3191 2616 2906 2266 
Q 2828 2175 2409 1742 
Q 1991 1309 1228 531 
z
" transform="scale(0.015625)"/>
        <path id="DejaVuSans-30" d="M 2034 4250 
Q 1547 4250 1301 3770 
Q 1056 3291 1056 2328 
Q 1056 1369 1301 889 
Q 1547 409 2034 409 
Q 2525 409 2770 889 
Q 3016 1369 3016 2328 
Q 3016 3291 2770 3770 
Q 2525 4250 2034 4250 
z
M 2034 4750 
Q 2819 4750 3233 4129 
Q 3647 3509 3647 2328 
Q 3647 1150 3233 529 
Q 2819 -91 2034 -91 
Q 1250 -91 836 529 
Q 422 1150 422 2328 
Q 422 3509 836 4129 
Q 1250 4750 2034 4750 
z
" transform="scale(0.015625)"/>
       </defs>
       <use xlink:href="#DejaVuSans-32"/>
       <use xlink:href="#DejaVuSans-30" transform="translate(63.623047 0)"/>
       <use xlink:href="#DejaVuSans-32" transform="translate(127.246094 0)"/>
       <use xlink:href="#DejaVuSans-30" transform="translate(190.869141 0)"/>
      </g>
     </g>
    </g>
    <g id="xtick_2">
     <g id="line2d_2">
      <g>
       <use xlink:href="#m9aee84c992" x="325.188958" y="224.28" style="stroke: #000000; stroke-width: 0.8"/>
      </g>
     </g>
     <g id="text_2">
      <!-- 2021 -->
      <g transform="translate(312.463958 238.878438) scale(0.1 -0.1)">
       <defs>
        <path id="DejaVuSans-31" d="M 794 531 
L 1825 531 
L 1825 4091 
L 703 3866 
L 703 4441 
L 1819 4666 
L 2450 4666 
L 2450 531 
L 3481 531 
L 3481 0 
L 794 0 
L 794 531 
z
" transform="scale(0.015625)"/>
       </defs>
       <use xlink:href="#DejaVuSans-32"/>
       <use xlink:href="#DejaVuSans-30" transform="translate(63.623047 0)"/>
       <use xlink:href="#DejaVuSans-32" transform="translate(127.246094 0)"/>
       <use xlink:href="#DejaVuSans-31" transform="translate(190.869141 0)"/>
      </g>
     </g>
    </g>
    <g id="xtick_3">
     <g id="line2d_3">
      <g>
       <use xlink:href="#m9aee84c992" x="471.506208" y="224.28" style="stroke: #000000; stroke-width: 0.8"/>
      </g>
     </g>
     <g id="text_3">
      <!-- 2022 -->
      <g transform="translate(458.781208 238.878438) scale(0.1 -0.1)">
       <use xlink:href="#DejaVuSans-32"/>
       <use xlink:href="#DejaVuSans-30" transform="translate(63.623047 0)"/>
       <use xlink:href="#DejaVuSans-32" transform="translate(127.246094 0)"/>
       <use xlink:href="#DejaVuSans-32" transform="translate(190.869141 0)"/>
      </g>
     </g>
    </g>
    <g id="xtick_4">
     <g id="line2d_4">
      <g>
       <use xlink:href="#m9aee84c992" x="617.823459" y="224.28" style="stroke: #000000; stroke-width: 0.8"/>
      </g>
     </g>
     <g id="text_4">
      <!-- 2023 -->
      <g transform="translate(605.098459 238.878438) scale(0.1 -0.1)">
       <defs>
        <path id="DejaVuSans-33" d="M 2597 2516 
Q 3050 2419 3304 2112 
Q 3559 1806 3559 1356 
Q 3559 666 3084 287 
Q 2609 -91 1734 -91 
Q 1441 -91 1130 -33 
Q 819 25 488 141 
L 488 750 
Q 750 597 1062 519 
Q 1375 441 1716 441 
Q 2309 441 2620 675 
Q 2931 909 2931 1356 
Q 2931 1769 2642 2001 
Q 2353 2234 1838 2234 
L 1294 2234 
L 1294 2753 
L 1863 2753 
Q 2328 2753 2575 2939 
Q 2822 3125 2822 3475 
Q 2822 3834 2567 4026 
Q 2313 4219 1838 4219 
Q 1578 4219 1281 4162 
Q 984 4106 628 3988 
L 628 4550 
Q 988 4650 1302 4700 
Q 1616 4750 1894 4750 
Q 2613 4750 3031 4423 
Q 3450 4097 3450 3541 
Q 3450 3153 3228 2886 
Q 3006 2619 2597 2516 
z
" transform="scale(0.015625)"/>
       </defs>
       <use xlink:href="#DejaVuSans-32"/>
       <use xlink:href="#DejaVuSans-30" transform="translate(63.623047 0)"/>
       <use xlink:href="#DejaVuSans-32" transform="translate(127.246094 0)"/>
       <use xlink:href="#DejaVuSans-33" transform="translate(190.869141 0)"/>
      </g>
     </g>
    </g>
    <g id="xtick_5">
     <g id="line2d_5">
      <g>
       <use xlink:href="#m9aee84c992" x="764.14071" y="224.28" style="stroke: #000000; stroke-width: 0.8"/>
      </g>
     </g>
     <g id="text_5">
      <!-- 2024 -->
      <g transform="translate(751.41571 238.878438) scale(0.1 -0.1)">
       <defs>
        <path id="DejaVuSans-34" d="M 2419 4116 
L 825 1625 
L 2419 1625 
L 2419 4116 
z
M 2253 4666 
L 3047 4666 
L 3047 1625 
L 3713 1625 
L 3713 1100 
L 3047 1100 
L 3047 0 
L 2419 0 
L 2419 1100 
L 313 1100 
L 313 1709 
L 2253 4666 
z
" transform="scale(0.015625)"/>
       </defs>
       <use xlink:href="#DejaVuSans-32"/>
       <use xlink:href="#DejaVuSans-30" transform="translate(63.623047 0)"/>
       <use xlink:href="#DejaVuSans-32" transform="translate(127.246094 0)"/>
       <use xlink:href="#DejaVuSans-34" transform="translate(190.869141 0)"/>
      </g>
     </g>
    </g>
    <g id="xtick_6">
     <g id="line2d_6">
      <g>
       <use xlink:href="#m9aee84c992" x="910.858829" y="224.28" style="stroke: #000000; stroke-width: 0.8"/>
      </g>
     </g>
     <g id="text_6">
      <!-- 2025 -->
      <g transform="translate(898.133829 238.878438) scale(0.1 -0.1)">
       <defs>
        <path id="DejaVuSans-35" d="M 691 4666 
L 3169 4666 
L 3169 4134 
L 1269 4134 
L 1269 2991 
Q 1406 3038 1543 3061 
Q 1681 3084 1819 3084 
Q 2600 3084 3056 2656 
Q 3513 2228 3513 1497 
Q 3513 744 3044 326 
Q 2575 -91 1722 -91 
Q 1428 -91 1123 -41 
Q 819 9 494 109 
L 494 744 
Q 775 591 1075 516 
Q 1375 441 1709 441 
Q 2250 441 2565 725 
Q 2881 1009 2881 1497 
Q 2881 1984 2565 2268 
Q 2250 2553 1709 2553 
Q 1456 2553 1204 2497 
Q 953 2441 691 2322 
L 691 4666 
z
" transform="scale(0.015625)"/>
       </defs>
       <use xlink:href="#DejaVuSans-32"/>
       <use xlink:href="#DejaVuSans-30" transform="translate(63.623047 0)"/>
       <use xlink:href="#DejaVuSans-32" transform="translate(127.246094 0)"/>
       <use xlink:href="#DejaVuSans-35" transform="translate(190.869141 0)"/>
      </g>
     </g>
    </g>
   </g>
   <g id="matplotlib.axis_2">
    <g id="ytick_1">
     <g id="line2d_7">
      <defs>
       <path id="m905253bd49" d="M 0 0 
L -3.5 0 
" style="stroke: #000000; stroke-width: 0.8"/>
      </defs>
      <g>
       <use xlink:href="#m905253bd49" x="145.8" y="191.997443" style="stroke: #000000; stroke-width: 0.8"/>
      </g>
     </g>
     <g id="text_7">
      <!-- 20 -->
      <g transform="translate(126.075 195.796661) scale(0.1 -0.1)">
       <use xlink:href="#DejaVuSans-32"/>
       <use xlink:href="#DejaVuSans-30" transform="translate(63.623047 0)"/>
      </g>
     </g>
    </g>
    <g id="ytick_2">
     <g id="line2d_8">
      <g>
       <use xlink:href="#m905253bd49" x="145.8" y="152.270796" style="stroke: #000000; stroke-width: 0.8"/>
      </g>
     </g>
     <g id="text_8">
      <!-- 40 -->
      <g transform="translate(126.075 156.070015) scale(0.1 -0.1)">
       <use xlink:href="#DejaVuSans-34"/>
       <use xlink:href="#DejaVuSans-30" transform="translate(63.623047 0)"/>
      </g>
     </g>
    </g>
    <g id="ytick_3">
     <g id="line2d_9">
      <g>
       <use xlink:href="#m905253bd49" x="145.8" y="112.544149" style="stroke: #000000; stroke-width: 0.8"/>
      </g>
     </g>
     <g id="text_9">
      <!-- 60 -->
      <g transform="translate(126.075 116.343368) scale(0.1 -0.1)">
       <defs>
        <path id="DejaVuSans-36" d="M 2113 2584 
Q 1688 2584 1439 2293 
Q 1191 2003 1191 1497 
Q 1191 994 1439 701 
Q 1688 409 2113 409 
Q 2538 409 2786 701 
Q 3034 994 3034 1497 
Q 3034 2003 2786 2293 
Q 2538 2584 2113 2584 
z
M 3366 4563 
L 3366 3988 
Q 3128 4100 2886 4159 
Q 2644 4219 2406 4219 
Q 1781 4219 1451 3797 
Q 1122 3375 1075 2522 
Q 1259 2794 1537 2939 
Q 1816 3084 2150 3084 
Q 2853 3084 3261 2657 
Q 3669 2231 3669 1497 
Q 3669 778 3244 343 
Q 2819 -91 2113 -91 
Q 1303 -91 875 529 
Q 447 1150 447 2328 
Q 447 3434 972 4092 
Q 1497 4750 2381 4750 
Q 2619 4750 2861 4703 
Q 3103 4656 3366 4563 
z
" transform="scale(0.015625)"/>
       </defs>
       <use xlink:href="#DejaVuSans-36"/>
       <use xlink:href="#DejaVuSans-30" transform="translate(63.623047 0)"/>
      </g>
     </g>
    </g>
    <g id="ytick_4">
     <g id="line2d_10">
      <g>
       <use xlink:href="#m905253bd49" x="145.8" y="72.817502" style="stroke: #000000; stroke-width: 0.8"/>
      </g>
     </g>
     <g id="text_10">
      <!-- 80 -->
      <g transform="translate(126.075 76.616721) scale(0.1 -0.1)">
       <defs>
        <path id="DejaVuSans-38" d="M 2034 2216 
Q 1584 2216 1326 1975 
Q 1069 1734 1069 1313 
Q 1069 891 1326 650 
Q 1584 409 2034 409 
Q 2484 409 2743 651 
Q 3003 894 3003 1313 
Q 3003 1734 2745 1975 
Q 2488 2216 2034 2216 
z
M 1403 2484 
Q 997 2584 770 2862 
Q 544 3141 544 3541 
Q 544 4100 942 4425 
Q 1341 4750 2034 4750 
Q 2731 4750 3128 4425 
Q 3525 4100 3525 3541 
Q 3525 3141 3298 2862 
Q 3072 2584 2669 2484 
Q 3125 2378 3379 2068 
Q 3634 1759 3634 1313 
Q 3634 634 3220 271 
Q 2806 -91 2034 -91 
Q 1263 -91 848 271 
Q 434 634 434 1313 
Q 434 1759 690 2068 
Q 947 2378 1403 2484 
z
M 1172 3481 
Q 1172 3119 1398 2916 
Q 1625 2713 2034 2713 
Q 2441 2713 2670 2916 
Q 2900 3119 2900 3481 
Q 2900 3844 2670 4047 
Q 2441 4250 2034 4250 
Q 1625 4250 1398 4047 
Q 1172 3844 1172 3481 
z
" transform="scale(0.015625)"/>
       </defs>
       <use xlink:href="#DejaVuSans-38"/>
       <use xlink:href="#DejaVuSans-30" transform="translate(63.623047 0)"/>
      </g>
     </g>
    </g>
    <g id="ytick_5">
     <g id="line2d_11">
      <g>
       <use xlink:href="#m905253bd49" x="145.8" y="33.090856" style="stroke: #000000; stroke-width: 0.8"/>
      </g>
     </g>
     <g id="text_11">
      <!-- 100 -->
      <g transform="translate(119.7125 36.890074) scale(0.1 -0.1)">
       <use xlink:href="#DejaVuSans-31"/>
       <use xlink:href="#DejaVuSans-30" transform="translate(63.623047 0)"/>
       <use xlink:href="#DejaVuSans-30" transform="translate(127.246094 0)"/>
      </g>
     </g>
    </g>
   </g>
   <g id="line2d_12">
    <path d="M 186.889091 102.059049 
L 187.690829 91.128072 
L 188.893437 125.31336 
L 189.294306 116.064715 
L 189.695175 122.327318 
L 190.096044 126.690594 
L 190.496914 146.264524 
L 191.699521 154.325274 
L 192.10039 132.679009 
L 192.501259 123.334184 
L 192.902129 123.128034 
L 193.302998 128.535373 
L 194.505605 110.864396 
L 194.906475 107.895459 
L 195.307344 105.973265 
L 195.708213 104.90994 
L 196.109082 72.381925 
L 197.712559 72.861797 
L 198.113428 61.420285 
L 198.915166 79.273929 
L 200.117774 106.149929 
L 200.518643 120.925997 
L 200.919512 119.605396 
L 201.320381 133.452607 
L 201.721251 120.634467 
L 202.923858 123.518881 
L 203.324727 133.565584 
L 203.725596 125.391365 
L 204.126466 130.943069 
L 204.527335 146.225263 
L 205.729942 160.017324 
L 206.130812 161.757666 
L 206.531681 164.939308 
L 206.93255 170.002569 
L 207.333419 147.766591 
L 208.536027 159.29401 
L 208.936896 151.799695 
L 209.337765 151.662728 
L 209.738634 155.142291 
L 210.139503 160.452604 
L 211.342111 153.824776 
L 211.74298 145.669944 
L 212.143849 143.104195 
L 212.945588 129.454562 
L 214.148195 130.559723 
L 214.949933 120.335719 
L 215.350803 125.422889 
L 215.751672 105.467497 
L 216.954279 104.001918 
L 217.355149 100.266363 
L 217.756018 101.140053 
L 218.156887 98.640721 
L 219.760364 98.656322 
L 220.161233 108.7243 
L 220.562102 108.343484 
L 220.962971 107.201478 
L 221.36384 105.378202 
L 222.566448 116.949523 
L 222.967317 128.58185 
L 223.368186 103.795954 
L 223.769055 112.056402 
L 224.169925 98.373072 
L 225.372532 107.915617 
L 225.773401 103.904115 
L 226.174271 104.423287 
L 226.57514 106.8575 
L 226.976009 121.394983 
L 228.178616 125.841255 
L 228.579486 120.798354 
L 228.980355 129.355378 
L 229.381224 120.565001 
L 229.782093 108.918896 
L 230.984701 79.760538 
L 231.38557 105.010242 
L 231.786439 103.317542 
L 232.187308 100.111959 
L 232.588177 93.347292 
L 233.790785 80.790976 
L 234.191654 82.951591 
L 234.592523 71.439036 
L 234.993392 68.869034 
L 235.394262 68.36302 
L 236.997738 86.168634 
L 237.398608 97.142382 
L 237.799477 102.818492 
L 238.200346 98.373471 
L 239.402953 107.197503 
L 239.803823 94.424397 
L 240.204692 96.110406 
L 240.605561 102.50727 
L 241.00643 112.403016 
L 242.209038 129.499182 
L 242.609907 121.327316 
L 243.010776 115.452791 
L 243.411645 131.495877 
L 243.812514 135.81919 
L 245.015122 114.436949 
L 245.415991 110.27284 
L 245.81686 103.473454 
L 246.217729 116.861217 
L 246.618599 111.571664 
L 247.821206 103.624764 
L 248.222075 104.721663 
L 248.622945 114.955353 
L 249.023814 111.970316 
L 249.424683 120.781834 
L 250.62729 126.933366 
L 251.02816 127.712315 
L 251.429029 99.768941 
L 251.829898 101.421578 
L 253.433375 101.871431 
L 253.834244 94.269056 
L 254.235113 89.502306 
L 254.635982 81.997534 
L 255.036851 84.594131 
L 256.239459 113.016397 
L 256.640328 101.087078 
L 257.041197 98.144665 
L 257.442067 108.802548 
L 257.842936 89.889546 
L 259.045543 84.348632 
L 259.446412 100.591204 
L 259.847282 98.620234 
L 260.248151 114.672368 
L 260.64902 119.510674 
L 261.851627 113.774425 
L 262.252497 132.425273 
L 262.653366 133.979078 
L 263.054235 127.740767 
L 263.455104 109.525852 
L 264.657712 107.373293 
L 265.058581 93.893454 
L 265.45945 87.478162 
L 265.860319 87.865329 
L 266.261188 103.364196 
L 267.463796 94.773095 
L 267.864665 115.47563 
L 268.265534 84.085832 
L 268.666404 85.287343 
L 269.067273 87.478127 
L 270.26988 64.274799 
L 271.071619 80.062496 
L 271.472488 80.034079 
L 271.873357 77.765081 
L 273.075965 80.587894 
L 274.278572 81.986122 
L 274.679441 72.721197 
L 275.882049 54.324514 
L 276.282918 55.289732 
L 276.683787 52.060181 
L 277.084656 102.3234 
L 277.485525 125.914566 
L 279.089002 139.165452 
L 279.489871 122.363708 
L 279.890741 129.585518 
L 280.29161 141.318372 
L 281.494217 129.994687 
L 281.895086 128.66814 
L 282.295956 136.043882 
L 282.696825 134.737263 
L 283.097694 146.735049 
L 284.300302 145.021152 
L 284.701171 150.803185 
L 285.10204 167.026399 
L 285.903778 127.788874 
L 287.106386 109.452815 
L 287.507255 120.452926 
L 287.908124 103.2038 
L 288.308993 97.124127 
L 288.709863 127.600977 
L 289.91247 117.659963 
L 290.313339 102.104097 
L 291.115078 91.781815 
L 291.515947 99.687242 
L 292.718554 94.151319 
L 293.119424 74.30514 
L 293.520293 83.666125 
L 293.921162 97.950308 
L 294.322031 107.979343 
L 296.326377 135.228516 
L 296.727246 121.700866 
L 297.128115 134.551526 
L 298.330723 153.709424 
L 298.731592 152.504372 
L 299.132461 167.313219 
L 299.53333 151.875448 
L 299.9342 176.681804 
L 301.136807 175.760919 
L 301.537676 158.429441 
L 301.938545 136.078105 
L 302.339415 125.432834 
L 302.740284 111.480368 
L 303.942891 132.658638 
L 304.343761 143.809389 
L 304.74463 131.605459 
L 305.145499 134.338016 
L 305.546368 130.056151 
L 306.748976 130.608342 
L 307.149845 118.940333 
L 307.550714 125.06427 
L 307.951583 114.391003 
L 308.352452 122.909463 
L 309.55506 129.972529 
L 309.955929 151.627441 
L 310.356798 154.112262 
L 311.158537 165.890638 
L 312.361144 139.830473 
L 312.762013 104.645221 
L 313.162882 125.121985 
L 313.563752 135.489122 
L 313.964621 118.033945 
L 315.167228 126.70356 
L 315.568098 136.120829 
L 315.968967 154.320328 
L 316.369836 152.71734 
L 316.770705 135.990817 
L 317.973313 124.617766 
L 318.374182 112.905732 
L 318.775051 131.801816 
L 319.17592 128.206447 
L 319.576789 138.925408 
L 320.779397 135.131087 
L 321.180266 146.401269 
L 321.581135 151.750709 
L 321.982004 162.894111 
L 323.585481 169.659394 
L 323.98635 156.586462 
L 324.38722 117.721647 
L 324.788089 126.940421 
L 326.391565 125.860431 
L 326.792435 126.120509 
L 327.193304 165.263264 
L 327.594173 128.890798 
L 327.995042 134.667122 
L 329.19765 121.248087 
L 329.598519 127.655153 
L 329.999388 124.490304 
L 330.400257 126.557273 
L 330.801126 136.144622 
L 332.404603 128.989812 
L 333.206341 115.486472 
L 333.607211 117.223033 
L 334.809818 119.94459 
L 335.210687 131.69101 
L 335.611557 124.792893 
L 336.012426 141.070657 
L 336.413295 140.908426 
L 337.615902 144.137483 
L 338.016772 130.327853 
L 338.417641 132.443763 
L 338.81851 118.095955 
L 339.219379 107.801143 
L 340.421987 93.782082 
L 340.822856 106.715896 
L 341.223725 106.731849 
L 341.624594 92.206419 
L 342.025463 100.17657 
L 344.029809 84.106445 
L 344.430678 88.611505 
L 344.831548 85.126225 
L 346.034155 107.107607 
L 346.435024 118.845013 
L 346.835894 111.571743 
L 347.236763 138.651664 
L 347.637632 130.365902 
L 349.241109 147.750362 
L 350.042847 183.529997 
L 350.443716 178.401929 
L 351.646324 195.345609 
L 352.047193 169.339519 
L 352.448062 169.095207 
L 352.848931 160.545173 
L 353.2498 155.707459 
L 354.452408 146.875065 
L 354.853277 151.561813 
L 355.254146 131.660109 
L 355.655016 150.883053 
L 356.055885 150.970892 
L 357.258492 136.514373 
L 357.659361 126.720436 
L 358.060231 126.573511 
L 358.4611 130.769518 
L 358.861969 102.62567 
L 360.064576 119.705424 
L 360.465446 120.519566 
L 360.866315 121.802471 
L 361.267184 106.389002 
L 362.870661 109.740084 
L 363.27153 116.293923 
L 363.672399 111.141975 
L 364.073268 84.441336 
L 364.474137 85.075126 
L 365.676745 78.545305 
L 366.077614 68.97838 
L 366.478483 67.965965 
L 366.879353 58.064425 
L 367.280222 67.915398 
L 368.482829 86.084017 
L 369.284568 92.447494 
L 369.685437 111.975555 
L 370.086306 108.406016 
L 371.288914 102.533053 
L 372.090652 113.789605 
L 372.491521 114.34499 
L 372.89239 136.72322 
L 374.094998 151.902872 
L 374.495867 153.416839 
L 374.896736 178.423492 
L 375.297605 172.257383 
L 375.698475 149.453997 
L 376.901082 157.686748 
L 377.301951 163.123914 
L 377.70282 163.870337 
L 378.10369 183.265678 
L 378.504559 167.55745 
L 379.707166 167.210832 
L 380.108035 168.032032 
L 380.508905 167.955279 
L 380.909774 142.924585 
L 381.310643 128.515722 
L 382.513251 101.794791 
L 382.91412 103.017158 
L 383.314989 103.231012 
L 383.715858 115.32702 
L 384.116727 84.929564 
L 385.720204 85.187489 
L 386.121073 58.985253 
L 386.521942 53.948968 
L 386.922812 53.796727 
L 388.125419 50.293509 
L 388.526288 50.82392 
L 388.927157 55.08267 
L 389.328027 57.89448 
L 389.728896 57.75591 
L 390.931503 60.899084 
L 391.332373 72.284064 
L 391.733242 72.624235 
L 392.134111 56.41736 
L 392.53498 62.544121 
L 393.737588 72.645997 
L 394.138457 73.249748 
L 394.539326 73.488453 
L 394.940195 79.552419 
L 395.341064 88.444621 
L 396.543672 69.398603 
L 396.944541 65.107867 
L 397.746279 68.423854 
L 398.147149 67.663302 
L 399.750625 55.695655 
L 400.151494 69.939688 
L 400.552364 98.925571 
L 400.953233 95.743304 
L 402.15584 81.575913 
L 402.957579 113.480484 
L 403.358448 137.314678 
L 403.759317 148.195218 
L 404.961925 155.705775 
L 405.362794 159.101062 
L 405.763663 142.154086 
L 406.164532 142.616714 
L 406.565401 148.389605 
L 407.768009 156.352191 
L 408.168878 153.103043 
L 408.569747 139.745031 
L 408.970616 139.518887 
L 409.371486 152.055638 
L 410.574093 142.122571 
L 410.974962 132.959337 
L 411.776701 69.507026 
L 412.17757 88.175952 
L 413.380177 84.167719 
L 413.781047 115.143249 
L 414.181916 129.02035 
L 414.582785 121.800314 
L 414.983654 105.238224 
L 416.186262 110.859707 
L 416.587131 133.6431 
L 416.988 148.345151 
L 417.388869 125.765701 
L 417.789738 112.195272 
L 418.992346 98.704364 
L 419.393215 107.35147 
L 419.794084 106.655118 
L 420.194953 104.007412 
L 420.595823 96.355268 
L 421.79843 87.907461 
L 422.600169 90.739546 
L 423.001038 94.635674 
L 423.401907 84.653851 
L 425.005384 76.650138 
L 425.406253 74.030103 
L 426.207991 93.985302 
L 427.410599 126.776106 
L 427.811468 119.236817 
L 428.212337 128.17285 
L 428.613206 126.610682 
L 429.014075 158.169691 
L 430.216683 176.272114 
L 430.617552 165.766825 
L 431.018421 144.729634 
L 431.41929 130.520284 
L 431.82016 149.30028 
L 433.022767 153.491247 
L 433.423636 162.806774 
L 433.824506 163.063156 
L 434.225375 165.575823 
L 434.626244 160.549847 
L 435.828851 174.687827 
L 436.229721 161.214786 
L 436.63059 155.38171 
L 437.031459 144.638479 
L 437.432328 136.957007 
L 438.634936 141.292583 
L 439.035805 155.390796 
L 439.436674 161.79305 
L 439.837543 138.326534 
L 441.44102 100.327082 
L 441.841889 94.135656 
L 442.242758 102.389683 
L 442.643627 94.816883 
L 443.044497 61.202513 
L 444.247104 63.215069 
L 444.647973 55.671046 
L 445.048843 66.534964 
L 445.449712 55.910201 
L 445.850581 49.354087 
L 447.053188 47.93445 
L 447.454058 47.221173 
L 447.854927 48.718133 
L 448.255796 43.264054 
L 448.656665 44.775203 
L 449.859273 43.567243 
L 450.260142 42.773041 
L 450.661011 65.779512 
L 451.06188 63.110023 
L 451.462749 64.362718 
L 452.665357 76.073535 
L 453.066226 70.781867 
L 453.467095 88.275745 
L 453.867965 79.703145 
L 454.268834 75.806421 
L 455.471441 90.017553 
L 455.87231 93.16251 
L 456.27318 105.871858 
L 457.074918 117.762922 
L 458.277525 112.287547 
L 458.678395 117.272744 
L 459.079264 117.60988 
L 459.480133 119.163929 
L 459.881002 130.30364 
L 461.08361 132.302078 
L 461.484479 119.379592 
L 461.885348 117.078434 
L 462.286217 139.944371 
L 462.687086 151.408488 
L 463.889694 156.614022 
L 464.290563 154.197118 
L 464.691432 145.545052 
L 465.092302 149.95363 
L 465.493171 166.291137 
L 466.695778 163.717641 
L 467.096647 147.214003 
L 467.497517 149.915025 
L 467.898386 139.73564 
L 469.501863 126.363269 
L 469.902732 148.302068 
L 470.303601 146.487576 
L 470.70447 139.919341 
L 471.105339 139.011839 
L 472.307947 113.882471 
L 472.708816 123.928672 
L 473.109685 158.840687 
L 473.510554 134.656583 
L 473.911424 138.154476 
L 475.114031 135.692313 
L 475.5149 146.758426 
L 475.915769 148.65665 
L 476.717508 177.538957 
L 478.320984 179.982425 
L 479.523592 187.703312 
L 480.7262 198.543295 
L 481.127069 199.238832 
L 481.527938 185.062375 
L 481.928807 198.498326 
L 482.329676 179.304165 
L 483.532284 159.140124 
L 483.933153 162.3031 
L 484.334022 157.33841 
L 484.734891 156.447376 
L 485.135761 156.401871 
L 486.338368 143.818161 
L 486.739237 131.990763 
L 487.140106 108.127144 
L 487.540976 109.356601 
L 487.941845 127.796832 
L 489.144452 115.912722 
L 489.946191 96.599549 
L 490.747929 138.858421 
L 492.351406 141.873441 
L 492.752275 153.422004 
L 493.153144 133.872296 
L 493.554013 133.590669 
L 494.756621 134.946485 
L 495.558359 151.223011 
L 495.959228 148.850294 
L 496.360098 141.02972 
L 497.562705 154.840009 
L 497.963574 178.078888 
L 498.364443 160.594291 
L 498.765313 149.59822 
L 499.166182 147.163728 
L 500.368789 151.193937 
L 500.769659 127.317861 
L 501.170528 126.008237 
L 501.571397 127.127551 
L 501.972266 116.566814 
L 503.174874 106.214892 
L 503.575743 113.061363 
L 503.976612 116.792685 
L 504.377481 95.286553 
L 504.77835 83.306761 
L 505.980958 81.917065 
L 506.381827 86.197306 
L 506.782696 93.167449 
L 507.183565 91.471557 
L 507.584435 89.252084 
L 508.787042 94.157781 
L 509.187911 119.791786 
L 510.390519 162.651734 
L 511.593126 167.978646 
L 511.993996 165.523725 
L 512.394865 188.291272 
L 512.795734 190.204431 
L 514.399211 190.232807 
L 514.80008 190.546199 
L 515.200949 189.59142 
L 515.601818 192.820711 
L 516.002687 193.131404 
L 517.205295 196.760519 
L 517.606164 195.776706 
L 518.007033 191.657277 
L 518.407902 171.613309 
L 518.808772 172.38595 
L 520.011379 153.657763 
L 520.412248 149.90149 
L 520.813118 149.545568 
L 521.213987 153.482568 
L 521.614856 160.418057 
L 522.817463 174.679484 
L 523.218333 163.898138 
L 523.619202 161.99844 
L 524.020071 160.730385 
L 524.42094 149.372279 
L 525.623548 144.830239 
L 526.024417 134.265195 
L 526.425286 154.831796 
L 526.826155 144.646862 
L 527.227024 158.061196 
L 528.429632 156.544815 
L 528.830501 169.680256 
L 529.23137 150.138178 
L 529.632239 139.729989 
L 530.033109 114.654318 
L 531.636585 121.608467 
L 532.037455 114.344071 
L 532.438324 98.836853 
L 532.839193 121.750627 
L 534.0418 115.74888 
L 534.44267 123.446133 
L 534.843539 109.203829 
L 535.645277 129.052273 
L 536.847885 145.427076 
L 537.248754 135.894143 
L 537.649623 137.405498 
L 538.050492 157.526576 
L 538.451361 167.857206 
L 540.054838 156.273794 
L 540.455707 154.99375 
L 540.856576 177.149371 
L 541.257446 153.48017 
L 542.460053 157.130524 
L 542.860922 167.036395 
L 543.261792 168.285332 
L 543.662661 166.642775 
L 544.06353 163.054022 
L 545.667007 142.019676 
L 546.067876 142.375833 
L 546.468745 141.80399 
L 546.869614 128.589484 
L 548.072222 143.409062 
L 548.473091 157.153233 
L 548.87396 152.774925 
L 549.274829 146.75414 
L 549.675698 157.521962 
L 550.878306 146.336447 
L 551.279175 114.102841 
L 551.680044 93.987 
L 552.080914 82.167063 
L 552.481783 84.612359 
L 553.68439 96.28587 
L 554.085259 109.14126 
L 554.486129 102.969015 
L 554.886998 100.558469 
L 555.287867 84.057812 
L 556.490475 80.224648 
L 556.891344 80.202521 
L 557.292213 79.059809 
L 557.693082 79.541676 
L 558.093951 87.408006 
L 559.296559 120.496534 
L 559.697428 143.304929 
L 560.900035 109.277114 
L 562.102643 97.287559 
L 562.904381 126.88548 
L 563.305251 123.189147 
L 563.70612 140.553141 
L 565.710466 158.987015 
L 566.111335 145.914111 
L 566.512204 150.599926 
L 567.714812 148.122539 
L 568.115681 167.487889 
L 568.51655 169.323925 
L 568.917419 191.26724 
L 569.318288 199.101597 
L 570.921765 199.219145 
L 571.322634 191.519622 
L 571.723503 194.897085 
L 572.124373 180.992118 
L 573.32698 171.762577 
L 573.727849 185.290652 
L 574.128718 186.134469 
L 574.529588 202.378861 
L 574.930457 185.833229 
L 576.133064 176.743131 
L 576.533933 175.422037 
L 577.335672 162.445527 
L 577.736541 158.491339 
L 578.939149 160.257693 
L 579.340018 162.255243 
L 579.740887 160.867957 
L 580.141756 180.287116 
L 580.542625 185.117947 
L 581.745233 150.190818 
L 582.146102 131.464769 
L 582.546971 125.370856 
L 582.94784 134.202654 
L 583.34871 160.409938 
L 584.551317 163.361649 
L 584.952186 166.842407 
L 585.353055 157.395604 
L 585.753925 144.328873 
L 586.154794 151.989062 
L 587.357401 141.797209 
L 587.758271 146.793338 
L 588.15914 135.849059 
L 588.560009 131.301454 
L 588.960878 133.351793 
L 590.163486 145.477884 
L 590.564355 131.361218 
L 590.965224 136.857923 
L 591.766962 86.679663 
L 592.96957 94.088515 
L 593.370439 91.108085 
L 593.771308 106.232161 
L 594.172177 81.088469 
L 594.573047 80.266277 
L 595.775654 79.556386 
L 596.176523 77.365862 
L 596.577392 102.683923 
L 596.978262 85.73379 
L 597.379131 82.588829 
L 598.581738 88.107699 
L 598.982608 77.409801 
L 599.383477 95.129617 
L 599.784346 105.721249 
L 600.185215 104.440808 
L 601.387823 106.633967 
L 601.788692 93.699654 
L 602.189561 91.448601 
L 602.991299 102.524813 
L 604.193907 111.714233 
L 604.594776 118.124949 
L 604.995645 91.619525 
L 605.797384 122.582827 
L 606.999991 126.96664 
L 607.40086 143.432694 
L 607.801729 128.510279 
L 608.202599 108.715945 
L 608.603468 106.724158 
L 609.806075 99.040188 
L 610.206945 100.925582 
L 610.607814 114.267488 
L 611.008683 122.415018 
L 611.409552 121.413949 
L 612.61216 123.480956 
L 613.013029 146.836604 
L 613.413898 142.951102 
L 613.814767 154.611064 
L 614.215636 153.089866 
L 615.819113 158.132785 
L 616.219982 161.330838 
L 616.620851 170.592406 
L 617.021721 168.784367 
L 618.625197 183.314772 
L 619.026067 185.818877 
L 619.426936 186.449031 
L 619.827805 166.27898 
L 621.030412 146.760794 
L 621.431282 137.687808 
L 621.832151 133.70859 
L 622.23302 132.254854 
L 622.633889 105.377865 
L 624.237366 93.686136 
L 624.638235 75.091805 
L 625.039104 88.472566 
L 625.439973 84.266641 
L 626.642581 75.695868 
L 627.04345 69.31493 
L 627.444319 71.151541 
L 627.845188 58.2048 
L 628.246058 58.310295 
L 629.448665 87.490068 
L 629.849534 86.843406 
L 630.250404 79.184475 
L 630.651273 77.939487 
L 631.052142 89.389758 
L 632.254749 94.641033 
L 633.056488 72.944267 
L 633.457357 77.554036 
L 633.858226 106.233014 
L 635.060834 102.264826 
L 635.461703 94.019362 
L 635.862572 100.313256 
L 636.263441 115.046979 
L 636.66431 107.21617 
L 638.267787 120.251208 
L 638.668656 134.805676 
L 639.069525 112.934613 
L 639.470395 110.117304 
L 640.673002 108.31745 
L 641.073871 121.080299 
L 641.474741 127.323562 
L 641.87561 122.814592 
L 642.276479 105.304221 
L 643.479086 113.81195 
L 643.879956 128.662191 
L 644.280825 117.061519 
L 644.681694 116.850786 
L 645.082563 115.034141 
L 646.285171 104.725648 
L 646.68604 97.039975 
L 647.086909 123.804554 
L 647.487778 102.464243 
L 647.888647 102.752084 
L 649.091255 96.094912 
L 649.492124 83.605691 
L 649.892993 86.18804 
L 650.293863 85.061468 
L 650.694732 86.652988 
L 651.897339 86.362589 
L 652.298208 96.833523 
L 652.699078 74.182829 
L 653.099947 59.032777 
L 653.500816 57.433032 
L 654.703424 61.482614 
L 655.104293 77.288554 
L 655.505162 106.158095 
L 655.906031 106.563904 
L 657.509508 101.578754 
L 658.311246 131.954878 
L 658.712115 146.221506 
L 659.112984 132.81506 
L 660.315592 123.258652 
L 660.716461 110.339064 
L 661.11733 114.8176 
L 661.5182 137.205588 
L 661.919069 144.518424 
L 663.121676 149.752686 
L 663.522545 154.002755 
L 663.923415 131.10457 
L 664.324284 129.188328 
L 664.725153 129.502439 
L 665.927761 106.061212 
L 666.32863 106.557086 
L 667.130368 120.851629 
L 667.531237 110.997749 
L 668.733845 112.989052 
L 669.134714 124.367692 
L 669.535583 108.48174 
L 669.936452 113.552102 
L 670.337322 115.977087 
L 671.539929 97.235519 
L 671.940798 101.287442 
L 672.742537 88.43958 
L 673.143406 103.643798 
L 674.346013 93.214647 
L 674.746882 94.673413 
L 675.147752 93.030155 
L 675.548621 65.621907 
L 675.94949 64.497781 
L 677.552967 55.538674 
L 677.953836 79.732549 
L 678.354705 72.330139 
L 678.755574 74.076854 
L 679.958182 76.801059 
L 680.359051 81.742987 
L 680.75992 93.66768 
L 681.160789 95.210562 
L 681.561659 91.195293 
L 682.764266 88.324891 
L 683.165135 80.484089 
L 683.566004 75.09987 
L 683.966874 100.373702 
L 684.367743 104.968389 
L 685.97122 105.228174 
L 686.372089 89.285315 
L 686.772958 100.343334 
L 688.376435 120.168908 
L 688.777304 107.011553 
L 689.178173 102.758937 
L 689.579042 112.37089 
L 689.979911 104.742998 
L 691.182519 108.308091 
L 691.984257 120.313857 
L 692.385126 142.412988 
L 692.785996 134.075709 
L 693.988603 137.926214 
L 694.389472 149.149259 
L 694.790341 123.009832 
L 695.191211 106.023092 
L 695.59208 102.439596 
L 696.794687 75.756432 
L 697.195557 76.655918 
L 697.596426 71.169531 
L 697.997295 89.71075 
L 698.398164 113.706937 
L 699.600772 112.28049 
L 700.001641 104.163348 
L 700.40251 104.303515 
L 700.803379 104.015865 
L 701.204248 95.83405 
L 702.406856 97.224457 
L 702.807725 108.739091 
L 703.208594 147.697963 
L 703.609463 141.15453 
L 704.010333 150.086888 
L 705.21294 153.653814 
L 705.613809 156.265158 
L 706.014678 160.202618 
L 706.415548 152.378878 
L 706.816417 167.011231 
L 708.019024 147.571916 
L 708.419894 144.350083 
L 708.820763 151.465485 
L 709.221632 160.900807 
L 709.622501 161.043656 
L 710.825109 129.429635 
L 711.626847 115.853634 
L 712.027716 116.484228 
L 712.428585 128.652242 
L 713.631193 118.896872 
L 714.032062 93.241613 
L 714.432931 90.02286 
L 714.8338 74.862098 
L 715.23467 94.97295 
L 716.838146 95.707368 
L 717.239016 106.076779 
L 718.040754 117.130418 
L 719.243361 147.789005 
L 719.644231 139.894679 
L 720.0451 149.062881 
L 720.445969 148.480016 
L 720.846838 152.817951 
L 722.049446 162.245294 
L 722.450315 197.432212 
L 722.851184 211.33238 
L 723.252053 215.46 
L 723.652922 202.909412 
L 724.85553 193.449546 
L 725.256399 188.527707 
L 726.058137 160.42096 
L 726.459007 151.315774 
L 727.661614 133.299863 
L 728.062483 151.122049 
L 728.463353 146.475462 
L 728.864222 124.452452 
L 729.265091 115.961538 
L 730.467698 116.418709 
L 731.269437 74.443742 
L 731.670306 76.42731 
L 732.071175 101.287694 
L 733.273783 93.426237 
L 733.674652 120.499189 
L 734.075521 139.035462 
L 734.47639 143.033823 
L 734.877259 159.38826 
L 736.079867 136.606267 
L 736.480736 135.298917 
L 737.282475 169.385907 
L 737.683344 165.59177 
L 738.885951 164.342216 
L 739.28682 175.794563 
L 739.68769 162.594415 
L 740.088559 145.441162 
L 741.692035 119.860559 
L 742.092905 103.270542 
L 742.493774 99.098413 
L 742.894643 89.904305 
L 743.295512 90.805632 
L 744.49812 92.682392 
L 744.898989 64.645069 
L 745.299858 54.106535 
L 745.700727 53.32761 
L 746.101596 57.57295 
L 747.304204 49.458515 
L 747.705073 59.989872 
L 748.105942 83.108907 
L 748.907681 104.712363 
L 750.110288 106.789013 
L 750.511157 113.638515 
L 750.912027 116.162487 
L 751.713765 149.378156 
L 752.916373 162.814457 
L 753.317242 162.50743 
L 753.718111 164.456967 
L 754.11898 158.460923 
L 754.519849 147.575347 
L 755.722457 165.10696 
L 756.925064 126.971445 
L 757.325933 126.317973 
L 758.528541 112.723113 
L 758.92941 119.790923 
L 759.330279 120.970699 
L 759.731149 114.773925 
L 760.132018 103.600481 
L 761.735494 107.571558 
L 762.136364 93.237234 
L 762.938102 107.460751 
L 764.541579 114.404107 
L 764.942448 133.490506 
L 765.343317 133.515391 
L 765.744186 124.076241 
L 766.946794 103.416829 
L 767.347663 105.297004 
L 767.748532 92.989775 
L 768.149401 71.466283 
L 768.550271 76.547992 
L 770.153747 68.202808 
L 770.554616 74.219373 
L 770.955486 71.200188 
L 771.356355 65.314762 
L 772.558962 64.962714 
L 772.959831 48.076581 
L 773.360701 39.06 
L 773.76157 39.131625 
L 774.162439 47.674562 
L 775.765916 50.544381 
L 776.166785 71.614754 
L 776.567654 68.509406 
L 776.968523 60.315782 
L 778.171131 57.951689 
L 778.572 65.459285 
L 778.972869 64.049748 
L 779.373738 72.934803 
L 779.774608 68.12142 
L 780.977215 68.311417 
L 781.378084 72.357922 
L 781.778953 69.275164 
L 782.179823 74.609175 
L 782.580692 78.192161 
L 784.585038 105.781215 
L 784.985907 83.874042 
L 785.386776 88.891354 
L 786.589384 95.111211 
L 786.990253 91.229997 
L 787.391122 101.662161 
L 787.791991 95.411293 
L 788.19286 93.799616 
L 790.197206 84.229686 
L 790.598075 72.613925 
L 790.998945 93.762304 
L 792.201552 88.507068 
L 792.602421 73.327593 
L 793.00329 92.894952 
L 793.40416 105.511809 
L 793.805029 106.507963 
L 795.007636 103.715106 
L 795.408506 97.792855 
L 795.809375 98.718262 
L 796.210244 103.157566 
L 796.611113 103.392332 
L 797.813721 103.43319 
L 798.615459 140.684142 
L 799.016328 120.700801 
L 800.619805 111.919135 
L 801.020674 146.7707 
L 801.421543 144.002444 
L 801.822412 144.610406 
L 802.223282 131.493975 
L 803.425889 139.373532 
L 803.826758 152.811766 
L 804.227627 148.638039 
L 804.628497 135.958041 
L 805.029366 159.364477 
L 806.231973 169.722143 
L 806.632843 154.69624 
L 807.033712 158.127367 
L 807.434581 155.425644 
L 807.83545 175.0413 
L 809.038058 160.277809 
L 809.438927 149.585696 
L 809.839796 148.900142 
L 810.240665 146.3277 
L 810.641534 131.003457 
L 811.844142 126.561863 
L 812.245011 133.969686 
L 812.64588 151.084359 
L 813.447619 125.721445 
L 814.650226 121.582569 
L 815.051095 116.827794 
L 815.451965 118.522072 
L 815.852834 96.031655 
L 816.253703 100.323856 
L 817.45631 105.723166 
L 817.85718 90.82885 
L 818.258049 90.176121 
L 818.658918 104.273999 
L 819.059787 113.828381 
L 820.262395 100.634319 
L 820.663264 80.085328 
L 821.064133 89.404628 
L 821.465002 77.133339 
L 821.865871 78.274239 
L 823.469348 60.251047 
L 823.870217 58.748971 
L 824.271086 71.681848 
L 824.671956 76.847205 
L 825.874563 71.567096 
L 826.275432 71.112652 
L 826.676302 68.720058 
L 827.077171 73.005682 
L 827.47804 66.437107 
L 828.680647 67.564777 
L 829.081517 71.497152 
L 829.482386 66.339001 
L 829.883255 69.934072 
L 830.284124 70.296434 
L 831.486732 82.659671 
L 831.887601 77.837956 
L 832.689339 79.749554 
L 834.292816 125.477044 
L 834.693685 113.681176 
L 835.094554 123.751933 
L 835.495424 125.99886 
L 835.896293 126.765927 
L 837.0989 127.050468 
L 837.499769 128.725996 
L 837.900639 126.139152 
L 838.702377 140.422366 
L 839.904984 140.193745 
L 840.305854 131.600353 
L 840.706723 133.789439 
L 841.107592 139.007754 
L 841.508461 126.938765 
L 842.711069 107.280363 
L 843.512807 151.836456 
L 843.913676 139.001274 
L 844.314545 144.417957 
L 845.517153 133.880561 
L 845.918022 132.564627 
L 846.318891 158.55517 
L 846.719761 157.890132 
L 847.12063 161.764165 
L 848.323237 172.105996 
L 848.724106 189.923977 
L 849.124976 149.698772 
L 849.525845 162.736982 
L 849.926714 163.915534 
L 851.129322 168.4127 
L 851.530191 152.805237 
L 851.93106 164.268073 
L 852.331929 150.274532 
L 852.732798 160.406877 
L 853.935406 151.668956 
L 854.336275 129.677165 
L 855.138013 119.023202 
L 855.538882 114.727285 
L 856.74149 95.415436 
L 857.142359 115.471132 
L 857.543228 96.550881 
L 857.944098 103.327546 
L 858.344967 80.241861 
L 859.547574 91.687061 
L 859.948443 74.801042 
L 860.349313 89.069282 
L 860.750182 109.263642 
L 861.151051 112.868842 
L 863.957135 171.265818 
L 865.159743 175.836546 
L 865.560612 168.503757 
L 865.961481 151.512509 
L 866.36235 140.303578 
L 866.76322 151.950318 
L 867.965827 151.037619 
L 868.366696 157.187825 
L 868.767565 156.493443 
L 869.168435 131.793311 
L 869.569304 139.507528 
L 870.771911 109.523251 
L 871.17278 94.76999 
L 871.57365 92.262862 
L 871.974519 74.669165 
L 872.375388 90.61201 
L 873.577996 93.308929 
L 873.978865 132.071241 
L 874.379734 133.395551 
L 875.181472 107.804996 
L 876.38408 97.457907 
L 876.784949 80.599315 
L 877.185818 88.140348 
L 877.586687 76.558615 
L 877.987557 76.945677 
L 879.190164 78.790157 
L 879.591033 109.894952 
L 879.991902 102.875462 
L 880.392772 91.657494 
L 880.793641 90.105961 
L 881.996248 66.336592 
L 882.397118 68.453964 
L 882.797987 89.245449 
L 883.198856 91.085581 
L 883.599725 93.809206 
L 884.802333 108.281783 
L 885.203202 105.632378 
L 885.604071 118.192455 
L 886.00494 137.708535 
L 886.405809 139.461941 
L 887.608417 118.496249 
L 888.009286 119.200942 
L 888.410155 108.461115 
L 888.811024 104.120357 
L 889.211894 120.868653 
L 890.414501 127.799087 
L 890.81537 107.628051 
L 891.216239 116.312476 
L 891.617109 117.811988 
L 892.017978 128.716025 
L 893.220585 135.113015 
L 894.022324 99.70052 
L 894.423193 102.960005 
L 894.824062 118.482436 
L 896.02667 141.158115 
L 896.828408 168.115093 
L 897.630146 156.099941 
L 898.832754 150.046593 
L 899.233623 154.603668 
L 899.634492 135.30066 
L 900.035361 136.781796 
L 900.436231 131.118863 
L 901.638838 135.883717 
L 902.039707 166.368196 
L 902.440576 149.574874 
L 902.841446 156.021209 
L 903.242315 152.737276 
L 904.444922 144.161175 
L 904.845792 151.124676 
L 905.246661 150.891284 
L 905.64753 154.916307 
L 906.048399 142.930996 
L 907.251007 133.836312 
L 907.651876 145.949404 
L 908.453614 146.47027 
L 908.854483 147.170388 
L 910.057091 136.33489 
L 910.45796 134.766402 
L 911.259698 135.452107 
L 911.660568 113.170077 
L 912.863175 93.430609 
L 913.264044 114.725108 
L 913.664914 110.537111 
L 914.466652 117.571399 
L 915.669259 127.105836 
L 916.070129 138.8646 
L 916.470998 140.023258 
L 916.871867 146.504707 
L 917.272736 136.756236 
L 918.876213 124.953849 
L 919.677951 108.453653 
L 921.281428 168.226365 
L 921.682297 158.486968 
L 922.083166 154.519648 
L 922.484035 152.945637 
L 922.884905 153.34405 
L 924.087512 154.098183 
L 924.488381 149.452092 
L 924.889251 146.918966 
L 925.29012 138.534136 
L 925.690989 142.652888 
L 926.893596 141.783769 
L 927.294466 152.248545 
L 927.695335 154.302321 
L 928.096204 142.450098 
L 928.497073 93.274633 
L 930.10055 107.691135 
L 930.501419 90.39206 
L 930.902288 90.501526 
L 931.303157 94.617738 
L 932.505765 97.25438 
L 932.906634 112.66292 
L 933.307503 115.816111 
L 933.708373 150.868292 
L 934.109242 142.278918 
L 935.311849 166.623745 
L 936.113588 156.33752 
L 936.514457 173.312261 
L 936.915326 176.759164 
L 938.117933 182.922759 
L 938.518803 178.714679 
L 938.919672 166.262312 
L 939.320541 160.782404 
L 939.72141 144.988338 
L 940.924018 143.015301 
L 941.324887 156.307079 
L 941.725756 136.988689 
L 942.126625 144.356271 
L 942.527494 123.973662 
L 943.730102 120.359772 
L 944.130971 124.762231 
L 944.53184 125.245765 
L 944.93271 135.190867 
L 945.333579 125.809538 
L 946.536186 133.322714 
L 946.937055 148.301548 
L 947.337925 147.032871 
L 947.738794 184.933982 
L 948.139663 190.766388 
L 949.342271 174.325449 
L 949.74314 183.313214 
L 950.144009 139.547661 
L 950.544878 148.041933 
L 950.945747 148.670585 
L 952.148355 148.016625 
L 952.549224 135.075999 
L 952.950093 143.272194 
L 953.350962 144.967933 
L 954.954439 149.167246 
L 955.355308 148.809724 
L 955.756177 143.082665 
L 956.557916 106.45959 
L 957.760523 114.888434 
L 958.161392 111.972229 
L 958.562262 144.649504 
L 958.963131 122.331152 
L 959.364 123.397036 
L 960.566608 124.648744 
L 960.967477 128.959679 
L 961.368346 96.127016 
L 961.769215 82.686502 
L 962.170084 62.037436 
L 963.372692 58.112622 
L 963.773561 55.910654 
L 964.17443 54.86919 
L 964.575299 60.631958 
L 964.976169 47.646699 
L 966.178776 47.702804 
L 966.579645 53.928288 
L 966.980514 69.959592 
L 967.381384 72.226551 
L 967.782253 76.635707 
L 969.385729 70.164606 
L 969.786599 77.676982 
L 970.187468 72.675179 
L 970.588337 86.083128 
L 971.790945 92.199914 
L 972.191814 97.831958 
L 972.592683 108.832328 
L 972.993552 114.820833 
L 973.394421 111.691916 
L 974.597029 109.818061 
L 975.398767 95.51499 
L 975.799636 93.208713 
L 976.200506 99.589331 
L 977.403113 102.799561 
L 977.803982 102.29653 
L 978.204851 109.835817 
L 979.00659 98.125005 
L 980.209197 103.497887 
L 980.610067 103.830172 
L 981.411805 78.560736 
L 981.812674 76.978423 
L 983.015282 78.025876 
L 983.416151 102.862158 
L 983.81702 90.605206 
L 984.217889 90.739824 
L 985.821366 82.302587 
L 986.222235 83.812451 
L 986.623104 76.955626 
L 987.023973 77.139159 
L 987.424843 68.315537 
L 988.62745 72.841381 
L 989.028319 69.646359 
L 989.429188 76.56228 
L 989.830058 75.282891 
L 990.230927 82.408031 
L 991.433534 87.94571 
L 991.834404 86.292542 
L 992.235273 86.654823 
L 992.636142 85.113776 
L 993.037011 80.822327 
L 994.239619 78.518467 
L 994.640488 89.493753 
L 995.041357 84.984347 
L 995.442226 92.650161 
L 995.843095 105.523767 
L 997.045703 106.241921 
L 997.446572 113.592772 
L 997.847441 114.646698 
L 998.24831 109.759195 
L 998.64918 102.475044 
L 999.851787 88.309185 
L 1000.252656 92.999187 
L 1000.653525 106.254054 
L 1001.054395 104.201582 
L 1001.455264 119.43182 
L 1002.657871 109.867075 
L 1003.058741 143.944095 
L 1003.45961 140.56008 
L 1003.860479 127.660195 
L 1004.261348 141.053011 
L 1005.463956 125.763499 
L 1005.864825 122.670537 
L 1006.265694 128.790409 
L 1007.067432 160.722022 
L 1008.670909 173.474234 
L 1008.670909 173.474234 
" clip-path="url(#p44fb7b9654)" style="fill: none; stroke: #1f77b4; stroke-width: 1.5; stroke-linecap: square"/>
   </g>
   <g id="patch_3">
    <path d="M 145.8 224.28 
L 145.8 30.24 
" style="fill: none; stroke: #000000; stroke-width: 0.8; stroke-linejoin: miter; stroke-linecap: square"/>
   </g>
   <g id="patch_4">
    <path d="M 145.8 224.28 
L 1049.76 224.28 
" style="fill: none; stroke: #000000; stroke-width: 0.8; stroke-linejoin: miter; stroke-linecap: square"/>
   </g>
  </g>
 </g>
 <defs>
  <clipPath id="p44fb7b9654">
   <rect x="145.8" y="30.24" width="903.96" height="194.04"/>
  </clipPath>
 </defs>
</svg>
