<?xml version="1.0" encoding="utf-8" standalone="no"?>
<!DOCTYPE svg PUBLIC "-//W3C//DTD SVG 1.1//EN"
  "http://www.w3.org/Graphics/SVG/1.1/DTD/svg11.dtd">
<svg xmlns:xlink="http://www.w3.org/1999/xlink" width="756pt" height="252pt" viewBox="0 0 756 252" xmlns="http://www.w3.org/2000/svg" version="1.1">
 <metadata>
  <rdf:RDF xmlns:dc="http://purl.org/dc/elements/1.1/" xmlns:cc="http://creativecommons.org/ns#" xmlns:rdf="http://www.w3.org/1999/02/22-rdf-syntax-ns#">
   <cc:Work>
    <dc:type rdf:resource="http://purl.org/dc/dcmitype/StillImage"/>
    <dc:date>2025-09-06T17:30:12.614367</dc:date>
    <dc:format>image/svg+xml</dc:format>
    <dc:creator>
     <cc:Agent>
      <dc:title>Matplotlib v3.10.5, https://matplotlib.org/</dc:title>
     </cc:Agent>
    </dc:creator>
   </cc:Work>
  </rdf:RDF>
 </metadata>
 <defs>
  <style type="text/css">*{stroke-linejoin: round; stroke-linecap: butt}</style>
 </defs>
 <g id="figure_1">
  <g id="patch_1">
   <path d="M 0 252 
L 756 252 
L 756 0 
L 0 0 
z
" style="fill: #ffffff"/>
  </g>
  <g id="axes_1">
   <g id="patch_2">
    <path d="M 94.5 224.28 
L 680.4 224.28 
L 680.4 30.24 
L 94.5 30.24 
z
" style="fill: #ffffff"/>
   </g>
   <g id="matplotlib.axis_1">
    <g id="xtick_1">
     <g id="line2d_1">
      <defs>
       <path id="m4f4feeb166" d="M 0 0 
L 0 3.5 
" style="stroke: #000000; stroke-width: 0.8"/>
      </defs>
      <g>
       <use xlink:href="#m4f4feeb166" x="123.05817" y="224.28" style="stroke: #000000; stroke-width: 0.8"/>
      </g>
     </g>
     <g id="text_1">
      <!-- 2024-03 -->
      <g transform="translate(102.166764 238.878438) scale(0.1 -0.1)">
       <defs>
        <path id="DejaVuSans-32" d="M 1228 531 
L 3431 531 
L 3431 0 
L 469 0 
L 469 531 
Q 828 903 1448 1529 
Q 2069 2156 2228 2338 
Q 2531 2678 2651 2914 
Q 2772 3150 2772 3378 
Q 2772 3750 2511 3984 
Q 2250 4219 1831 4219 
Q 1534 4219 1204 4116 
Q 875 4013 500 3803 
L 500 4441 
Q 881 4594 1212 4672 
Q 1544 4750 1819 4750 
Q 2544 4750 2975 4387 
Q 3406 4025 3406 3419 
Q 3406 3131 3298 2873 
Q 3191 2616 2906 2266 
Q 2828 2175 2409 1742 
Q 1991 1309 1228 531 
z
" transform="scale(0.015625)"/>
        <path id="DejaVuSans-30" d="M 2034 4250 
Q 1547 4250 1301 3770 
Q 1056 3291 1056 2328 
Q 1056 1369 1301 889 
Q 1547 409 2034 409 
Q 2525 409 2770 889 
Q 3016 1369 3016 2328 
Q 3016 3291 2770 3770 
Q 2525 4250 2034 4250 
z
M 2034 4750 
Q 2819 4750 3233 4129 
Q 3647 3509 3647 2328 
Q 3647 1150 3233 529 
Q 2819 -91 2034 -91 
Q 1250 -91 836 529 
Q 422 1150 422 2328 
Q 422 3509 836 4129 
Q 1250 4750 2034 4750 
z
" transform="scale(0.015625)"/>
        <path id="DejaVuSans-34" d="M 2419 4116 
L 825 1625 
L 2419 1625 
L 2419 4116 
z
M 2253 4666 
L 3047 4666 
L 3047 1625 
L 3713 1625 
L 3713 1100 
L 3047 1100 
L 3047 0 
L 2419 0 
L 2419 1100 
L 313 1100 
L 313 1709 
L 2253 4666 
z
" transform="scale(0.015625)"/>
        <path id="DejaVuSans-2d" d="M 313 2009 
L 1997 2009 
L 1997 1497 
L 313 1497 
L 313 2009 
z
" transform="scale(0.015625)"/>
        <path id="DejaVuSans-33" d="M 2597 2516 
Q 3050 2419 3304 2112 
Q 3559 1806 3559 1356 
Q 3559 666 3084 287 
Q 2609 -91 1734 -91 
Q 1441 -91 1130 -33 
Q 819 25 488 141 
L 488 750 
Q 750 597 1062 519 
Q 1375 441 1716 441 
Q 2309 441 2620 675 
Q 2931 909 2931 1356 
Q 2931 1769 2642 2001 
Q 2353 2234 1838 2234 
L 1294 2234 
L 1294 2753 
L 1863 2753 
Q 2328 2753 2575 2939 
Q 2822 3125 2822 3475 
Q 2822 3834 2567 4026 
Q 2313 4219 1838 4219 
Q 1578 4219 1281 4162 
Q 984 4106 628 3988 
L 628 4550 
Q 988 4650 1302 4700 
Q 1616 4750 1894 4750 
Q 2613 4750 3031 4423 
Q 3450 4097 3450 3541 
Q 3450 3153 3228 2886 
Q 3006 2619 2597 2516 
z
" transform="scale(0.015625)"/>
       </defs>
       <use xlink:href="#DejaVuSans-32"/>
       <use xlink:href="#DejaVuSans-30" transform="translate(63.623047 0)"/>
       <use xlink:href="#DejaVuSans-32" transform="translate(127.246094 0)"/>
       <use xlink:href="#DejaVuSans-34" transform="translate(190.869141 0)"/>
       <use xlink:href="#DejaVuSans-2d" transform="translate(254.492188 0)"/>
       <use xlink:href="#DejaVuSans-30" transform="translate(290.576172 0)"/>
       <use xlink:href="#DejaVuSans-33" transform="translate(354.199219 0)"/>
      </g>
     </g>
    </g>
    <g id="xtick_2">
     <g id="line2d_2">
      <g>
       <use xlink:href="#m4f4feeb166" x="181.81191" y="224.28" style="stroke: #000000; stroke-width: 0.8"/>
      </g>
     </g>
     <g id="text_2">
      <!-- 2024-05 -->
      <g transform="translate(160.920504 238.878438) scale(0.1 -0.1)">
       <defs>
        <path id="DejaVuSans-35" d="M 691 4666 
L 3169 4666 
L 3169 4134 
L 1269 4134 
L 1269 2991 
Q 1406 3038 1543 3061 
Q 1681 3084 1819 3084 
Q 2600 3084 3056 2656 
Q 3513 2228 3513 1497 
Q 3513 744 3044 326 
Q 2575 -91 1722 -91 
Q 1428 -91 1123 -41 
Q 819 9 494 109 
L 494 744 
Q 775 591 1075 516 
Q 1375 441 1709 441 
Q 2250 441 2565 725 
Q 2881 1009 2881 1497 
Q 2881 1984 2565 2268 
Q 2250 2553 1709 2553 
Q 1456 2553 1204 2497 
Q 953 2441 691 2322 
L 691 4666 
z
" transform="scale(0.015625)"/>
       </defs>
       <use xlink:href="#DejaVuSans-32"/>
       <use xlink:href="#DejaVuSans-30" transform="translate(63.623047 0)"/>
       <use xlink:href="#DejaVuSans-32" transform="translate(127.246094 0)"/>
       <use xlink:href="#DejaVuSans-34" transform="translate(190.869141 0)"/>
       <use xlink:href="#DejaVuSans-2d" transform="translate(254.492188 0)"/>
       <use xlink:href="#DejaVuSans-30" transform="translate(290.576172 0)"/>
       <use xlink:href="#DejaVuSans-35" transform="translate(354.199219 0)"/>
      </g>
     </g>
    </g>
    <g id="xtick_3">
     <g id="line2d_3">
      <g>
       <use xlink:href="#m4f4feeb166" x="240.56565" y="224.28" style="stroke: #000000; stroke-width: 0.8"/>
      </g>
     </g>
     <g id="text_3">
      <!-- 2024-07 -->
      <g transform="translate(219.674244 238.878438) scale(0.1 -0.1)">
       <defs>
        <path id="DejaVuSans-37" d="M 525 4666 
L 3525 4666 
L 3525 4397 
L 1831 0 
L 1172 0 
L 2766 4134 
L 525 4134 
L 525 4666 
z
" transform="scale(0.015625)"/>
       </defs>
       <use xlink:href="#DejaVuSans-32"/>
       <use xlink:href="#DejaVuSans-30" transform="translate(63.623047 0)"/>
       <use xlink:href="#DejaVuSans-32" transform="translate(127.246094 0)"/>
       <use xlink:href="#DejaVuSans-34" transform="translate(190.869141 0)"/>
       <use xlink:href="#DejaVuSans-2d" transform="translate(254.492188 0)"/>
       <use xlink:href="#DejaVuSans-30" transform="translate(290.576172 0)"/>
       <use xlink:href="#DejaVuSans-37" transform="translate(354.199219 0)"/>
      </g>
     </g>
    </g>
    <g id="xtick_4">
     <g id="line2d_4">
      <g>
       <use xlink:href="#m4f4feeb166" x="300.282566" y="224.28" style="stroke: #000000; stroke-width: 0.8"/>
      </g>
     </g>
     <g id="text_4">
      <!-- 2024-09 -->
      <g transform="translate(279.39116 238.878438) scale(0.1 -0.1)">
       <defs>
        <path id="DejaVuSans-39" d="M 703 97 
L 703 672 
Q 941 559 1184 500 
Q 1428 441 1663 441 
Q 2288 441 2617 861 
Q 2947 1281 2994 2138 
Q 2813 1869 2534 1725 
Q 2256 1581 1919 1581 
Q 1219 1581 811 2004 
Q 403 2428 403 3163 
Q 403 3881 828 4315 
Q 1253 4750 1959 4750 
Q 2769 4750 3195 4129 
Q 3622 3509 3622 2328 
Q 3622 1225 3098 567 
Q 2575 -91 1691 -91 
Q 1453 -91 1209 -44 
Q 966 3 703 97 
z
M 1959 2075 
Q 2384 2075 2632 2365 
Q 2881 2656 2881 3163 
Q 2881 3666 2632 3958 
Q 2384 4250 1959 4250 
Q 1534 4250 1286 3958 
Q 1038 3666 1038 3163 
Q 1038 2656 1286 2365 
Q 1534 2075 1959 2075 
z
" transform="scale(0.015625)"/>
       </defs>
       <use xlink:href="#DejaVuSans-32"/>
       <use xlink:href="#DejaVuSans-30" transform="translate(63.623047 0)"/>
       <use xlink:href="#DejaVuSans-32" transform="translate(127.246094 0)"/>
       <use xlink:href="#DejaVuSans-34" transform="translate(190.869141 0)"/>
       <use xlink:href="#DejaVuSans-2d" transform="translate(254.492188 0)"/>
       <use xlink:href="#DejaVuSans-30" transform="translate(290.576172 0)"/>
       <use xlink:href="#DejaVuSans-39" transform="translate(354.199219 0)"/>
      </g>
     </g>
    </g>
    <g id="xtick_5">
     <g id="line2d_5">
      <g>
       <use xlink:href="#m4f4feeb166" x="359.036306" y="224.28" style="stroke: #000000; stroke-width: 0.8"/>
      </g>
     </g>
     <g id="text_5">
      <!-- 2024-11 -->
      <g transform="translate(338.1449 238.878438) scale(0.1 -0.1)">
       <defs>
        <path id="DejaVuSans-31" d="M 794 531 
L 1825 531 
L 1825 4091 
L 703 3866 
L 703 4441 
L 1819 4666 
L 2450 4666 
L 2450 531 
L 3481 531 
L 3481 0 
L 794 0 
L 794 531 
z
" transform="scale(0.015625)"/>
       </defs>
       <use xlink:href="#DejaVuSans-32"/>
       <use xlink:href="#DejaVuSans-30" transform="translate(63.623047 0)"/>
       <use xlink:href="#DejaVuSans-32" transform="translate(127.246094 0)"/>
       <use xlink:href="#DejaVuSans-34" transform="translate(190.869141 0)"/>
       <use xlink:href="#DejaVuSans-2d" transform="translate(254.492188 0)"/>
       <use xlink:href="#DejaVuSans-31" transform="translate(290.576172 0)"/>
       <use xlink:href="#DejaVuSans-31" transform="translate(354.199219 0)"/>
      </g>
     </g>
    </g>
    <g id="xtick_6">
     <g id="line2d_6">
      <g>
       <use xlink:href="#m4f4feeb166" x="417.790046" y="224.28" style="stroke: #000000; stroke-width: 0.8"/>
      </g>
     </g>
     <g id="text_6">
      <!-- 2025-01 -->
      <g transform="translate(396.89864 238.878438) scale(0.1 -0.1)">
       <use xlink:href="#DejaVuSans-32"/>
       <use xlink:href="#DejaVuSans-30" transform="translate(63.623047 0)"/>
       <use xlink:href="#DejaVuSans-32" transform="translate(127.246094 0)"/>
       <use xlink:href="#DejaVuSans-35" transform="translate(190.869141 0)"/>
       <use xlink:href="#DejaVuSans-2d" transform="translate(254.492188 0)"/>
       <use xlink:href="#DejaVuSans-30" transform="translate(290.576172 0)"/>
       <use xlink:href="#DejaVuSans-31" transform="translate(354.199219 0)"/>
      </g>
     </g>
    </g>
    <g id="xtick_7">
     <g id="line2d_7">
      <g>
       <use xlink:href="#m4f4feeb166" x="474.617434" y="224.28" style="stroke: #000000; stroke-width: 0.8"/>
      </g>
     </g>
     <g id="text_7">
      <!-- 2025-03 -->
      <g transform="translate(453.726028 238.878438) scale(0.1 -0.1)">
       <use xlink:href="#DejaVuSans-32"/>
       <use xlink:href="#DejaVuSans-30" transform="translate(63.623047 0)"/>
       <use xlink:href="#DejaVuSans-32" transform="translate(127.246094 0)"/>
       <use xlink:href="#DejaVuSans-35" transform="translate(190.869141 0)"/>
       <use xlink:href="#DejaVuSans-2d" transform="translate(254.492188 0)"/>
       <use xlink:href="#DejaVuSans-30" transform="translate(290.576172 0)"/>
       <use xlink:href="#DejaVuSans-33" transform="translate(354.199219 0)"/>
      </g>
     </g>
    </g>
    <g id="xtick_8">
     <g id="line2d_8">
      <g>
       <use xlink:href="#m4f4feeb166" x="533.371174" y="224.28" style="stroke: #000000; stroke-width: 0.8"/>
      </g>
     </g>
     <g id="text_8">
      <!-- 2025-05 -->
      <g transform="translate(512.479768 238.878438) scale(0.1 -0.1)">
       <use xlink:href="#DejaVuSans-32"/>
       <use xlink:href="#DejaVuSans-30" transform="translate(63.623047 0)"/>
       <use xlink:href="#DejaVuSans-32" transform="translate(127.246094 0)"/>
       <use xlink:href="#DejaVuSans-35" transform="translate(190.869141 0)"/>
       <use xlink:href="#DejaVuSans-2d" transform="translate(254.492188 0)"/>
       <use xlink:href="#DejaVuSans-30" transform="translate(290.576172 0)"/>
       <use xlink:href="#DejaVuSans-35" transform="translate(354.199219 0)"/>
      </g>
     </g>
    </g>
    <g id="xtick_9">
     <g id="line2d_9">
      <g>
       <use xlink:href="#m4f4feeb166" x="592.124914" y="224.28" style="stroke: #000000; stroke-width: 0.8"/>
      </g>
     </g>
     <g id="text_9">
      <!-- 2025-07 -->
      <g transform="translate(571.233507 238.878438) scale(0.1 -0.1)">
       <use xlink:href="#DejaVuSans-32"/>
       <use xlink:href="#DejaVuSans-30" transform="translate(63.623047 0)"/>
       <use xlink:href="#DejaVuSans-32" transform="translate(127.246094 0)"/>
       <use xlink:href="#DejaVuSans-35" transform="translate(190.869141 0)"/>
       <use xlink:href="#DejaVuSans-2d" transform="translate(254.492188 0)"/>
       <use xlink:href="#DejaVuSans-30" transform="translate(290.576172 0)"/>
       <use xlink:href="#DejaVuSans-37" transform="translate(354.199219 0)"/>
      </g>
     </g>
    </g>
    <g id="xtick_10">
     <g id="line2d_10">
      <g>
       <use xlink:href="#m4f4feeb166" x="651.84183" y="224.28" style="stroke: #000000; stroke-width: 0.8"/>
      </g>
     </g>
     <g id="text_10">
      <!-- 2025-09 -->
      <g transform="translate(630.950423 238.878438) scale(0.1 -0.1)">
       <use xlink:href="#DejaVuSans-32"/>
       <use xlink:href="#DejaVuSans-30" transform="translate(63.623047 0)"/>
       <use xlink:href="#DejaVuSans-32" transform="translate(127.246094 0)"/>
       <use xlink:href="#DejaVuSans-35" transform="translate(190.869141 0)"/>
       <use xlink:href="#DejaVuSans-2d" transform="translate(254.492188 0)"/>
       <use xlink:href="#DejaVuSans-30" transform="translate(290.576172 0)"/>
       <use xlink:href="#DejaVuSans-39" transform="translate(354.199219 0)"/>
      </g>
     </g>
    </g>
   </g>
   <g id="matplotlib.axis_2">
    <g id="ytick_1">
     <g id="line2d_11">
      <defs>
       <path id="me7b3e0c347" d="M 0 0 
L -3.5 0 
" style="stroke: #000000; stroke-width: 0.8"/>
      </defs>
      <g>
       <use xlink:href="#me7b3e0c347" x="94.5" y="209.144779" style="stroke: #000000; stroke-width: 0.8"/>
      </g>
     </g>
     <g id="text_11">
      <!-- 80 -->
      <g transform="translate(74.775 212.943998) scale(0.1 -0.1)">
       <defs>
        <path id="DejaVuSans-38" d="M 2034 2216 
Q 1584 2216 1326 1975 
Q 1069 1734 1069 1313 
Q 1069 891 1326 650 
Q 1584 409 2034 409 
Q 2484 409 2743 651 
Q 3003 894 3003 1313 
Q 3003 1734 2745 1975 
Q 2488 2216 2034 2216 
z
M 1403 2484 
Q 997 2584 770 2862 
Q 544 3141 544 3541 
Q 544 4100 942 4425 
Q 1341 4750 2034 4750 
Q 2731 4750 3128 4425 
Q 3525 4100 3525 3541 
Q 3525 3141 3298 2862 
Q 3072 2584 2669 2484 
Q 3125 2378 3379 2068 
Q 3634 1759 3634 1313 
Q 3634 634 3220 271 
Q 2806 -91 2034 -91 
Q 1263 -91 848 271 
Q 434 634 434 1313 
Q 434 1759 690 2068 
Q 947 2378 1403 2484 
z
M 1172 3481 
Q 1172 3119 1398 2916 
Q 1625 2713 2034 2713 
Q 2441 2713 2670 2916 
Q 2900 3119 2900 3481 
Q 2900 3844 2670 4047 
Q 2441 4250 2034 4250 
Q 1625 4250 1398 4047 
Q 1172 3844 1172 3481 
z
" transform="scale(0.015625)"/>
       </defs>
       <use xlink:href="#DejaVuSans-38"/>
       <use xlink:href="#DejaVuSans-30" transform="translate(63.623047 0)"/>
      </g>
     </g>
    </g>
    <g id="ytick_2">
     <g id="line2d_12">
      <g>
       <use xlink:href="#me7b3e0c347" x="94.5" y="176.169833" style="stroke: #000000; stroke-width: 0.8"/>
      </g>
     </g>
     <g id="text_12">
      <!-- 100 -->
      <g transform="translate(68.4125 179.969051) scale(0.1 -0.1)">
       <use xlink:href="#DejaVuSans-31"/>
       <use xlink:href="#DejaVuSans-30" transform="translate(63.623047 0)"/>
       <use xlink:href="#DejaVuSans-30" transform="translate(127.246094 0)"/>
      </g>
     </g>
    </g>
    <g id="ytick_3">
     <g id="line2d_13">
      <g>
       <use xlink:href="#me7b3e0c347" x="94.5" y="143.194886" style="stroke: #000000; stroke-width: 0.8"/>
      </g>
     </g>
     <g id="text_13">
      <!-- 120 -->
      <g transform="translate(68.4125 146.994105) scale(0.1 -0.1)">
       <use xlink:href="#DejaVuSans-31"/>
       <use xlink:href="#DejaVuSans-32" transform="translate(63.623047 0)"/>
       <use xlink:href="#DejaVuSans-30" transform="translate(127.246094 0)"/>
      </g>
     </g>
    </g>
    <g id="ytick_4">
     <g id="line2d_14">
      <g>
       <use xlink:href="#me7b3e0c347" x="94.5" y="110.21994" style="stroke: #000000; stroke-width: 0.8"/>
      </g>
     </g>
     <g id="text_14">
      <!-- 140 -->
      <g transform="translate(68.4125 114.019159) scale(0.1 -0.1)">
       <use xlink:href="#DejaVuSans-31"/>
       <use xlink:href="#DejaVuSans-34" transform="translate(63.623047 0)"/>
       <use xlink:href="#DejaVuSans-30" transform="translate(127.246094 0)"/>
      </g>
     </g>
    </g>
    <g id="ytick_5">
     <g id="line2d_15">
      <g>
       <use xlink:href="#me7b3e0c347" x="94.5" y="77.244994" style="stroke: #000000; stroke-width: 0.8"/>
      </g>
     </g>
     <g id="text_15">
      <!-- 160 -->
      <g transform="translate(68.4125 81.044213) scale(0.1 -0.1)">
       <defs>
        <path id="DejaVuSans-36" d="M 2113 2584 
Q 1688 2584 1439 2293 
Q 1191 2003 1191 1497 
Q 1191 994 1439 701 
Q 1688 409 2113 409 
Q 2538 409 2786 701 
Q 3034 994 3034 1497 
Q 3034 2003 2786 2293 
Q 2538 2584 2113 2584 
z
M 3366 4563 
L 3366 3988 
Q 3128 4100 2886 4159 
Q 2644 4219 2406 4219 
Q 1781 4219 1451 3797 
Q 1122 3375 1075 2522 
Q 1259 2794 1537 2939 
Q 1816 3084 2150 3084 
Q 2853 3084 3261 2657 
Q 3669 2231 3669 1497 
Q 3669 778 3244 343 
Q 2819 -91 2113 -91 
Q 1303 -91 875 529 
Q 447 1150 447 2328 
Q 447 3434 972 4092 
Q 1497 4750 2381 4750 
Q 2619 4750 2861 4703 
Q 3103 4656 3366 4563 
z
" transform="scale(0.015625)"/>
       </defs>
       <use xlink:href="#DejaVuSans-31"/>
       <use xlink:href="#DejaVuSans-36" transform="translate(63.623047 0)"/>
       <use xlink:href="#DejaVuSans-30" transform="translate(127.246094 0)"/>
      </g>
     </g>
    </g>
    <g id="ytick_6">
     <g id="line2d_16">
      <g>
       <use xlink:href="#me7b3e0c347" x="94.5" y="44.270048" style="stroke: #000000; stroke-width: 0.8"/>
      </g>
     </g>
     <g id="text_16">
      <!-- 180 -->
      <g transform="translate(68.4125 48.069266) scale(0.1 -0.1)">
       <use xlink:href="#DejaVuSans-31"/>
       <use xlink:href="#DejaVuSans-38" transform="translate(63.623047 0)"/>
       <use xlink:href="#DejaVuSans-30" transform="translate(127.246094 0)"/>
      </g>
     </g>
    </g>
   </g>
   <g id="line2d_17">
    <path d="M 121.131818 213.054856 
L 122.094994 210.666882 
L 123.05817 205.447639 
L 125.947699 200.572795 
L 126.910875 199.368047 
L 127.874051 194.858873 
L 128.837227 188.317608 
L 129.800403 196.79042 
L 132.689931 199.681174 
L 133.653107 189.563552 
L 134.616283 191.252842 
L 135.579459 196.10483 
L 136.542635 196.281186 
L 139.432163 195.262657 
L 141.358516 192.103254 
L 142.321692 190.351346 
L 143.284868 185.647677 
L 146.174396 184.472602 
L 148.100748 192.304341 
L 149.063924 192.129632 
L 152.916628 192.118097 
L 153.879804 193.619507 
L 154.84298 194.423767 
L 155.806157 199.465294 
L 156.769333 195.999355 
L 159.658861 197.44143 
L 160.622037 200.373406 
L 161.585213 197.596353 
L 162.548389 191.70113 
L 163.511565 195.705976 
L 166.401093 199.307064 
L 167.364269 196.976664 
L 168.327445 202.547224 
L 169.290621 201.499033 
L 170.253797 215.46 
L 173.143326 209.991644 
L 174.106502 205.203934 
L 175.069678 209.729599 
L 176.032854 204.859485 
L 176.99603 196.449266 
L 179.885558 196.413014 
L 180.848734 198.646179 
L 181.81191 204.18543 
L 183.738262 194.71219 
L 186.627791 189.189429 
L 187.590967 191.803309 
L 188.554143 192.037327 
L 189.517319 194.781399 
L 190.480495 192.917426 
L 193.370023 192.058749 
L 194.333199 190.481539 
L 195.296375 185.0857 
L 196.259551 185.532328 
L 197.222727 188.630748 
L 200.112255 184.838461 
L 201.075432 183.83973 
L 202.038608 184.55829 
L 203.001784 169.974326 
L 203.96496 165.573922 
L 207.817664 153.325326 
L 208.78084 151.802494 
L 209.744016 158.930491 
L 210.707192 160.359371 
L 213.59672 151.514072 
L 214.559896 149.145758 
L 215.523072 139.252268 
L 216.486249 141.628821 
L 217.449425 141.810108 
L 220.338953 140.323529 
L 221.302129 141.757465 
L 223.228481 127.417897 
L 224.191657 123.676441 
L 227.081185 125.159826 
L 228.044361 117.577993 
L 229.970713 125.489495 
L 230.93389 132.428531 
L 233.823418 146.372529 
L 234.786594 133.219671 
L 235.74977 132.708714 
L 236.712946 136.680943 
L 237.676122 137.422648 
L 240.56565 136.169987 
L 241.528826 138.85661 
L 242.492002 129.610055 
L 244.418354 133.64821 
L 247.307883 129.741933 
L 249.234235 118.682299 
L 250.197411 131.060495 
L 251.160587 128.02775 
L 254.050115 129.346325 
L 255.013291 132.774653 
L 255.976467 146.57032 
L 256.939643 141.460804 
L 257.902819 146.669191 
L 260.792348 137.422648 
L 261.755524 138.988462 
L 262.7187 152.734682 
L 263.681876 155.981685 
L 264.645052 154.696066 
L 267.53458 157.11896 
L 268.497756 170.074014 
L 269.460932 148.169091 
L 270.424108 161.041728 
L 271.387284 164.239308 
L 274.276812 175.480205 
L 275.239988 169.21696 
L 276.203165 178.018459 
L 277.166341 168.030212 
L 278.129517 168.392825 
L 281.019045 161.354906 
L 281.982221 149.619532 
L 282.945397 146.421952 
L 283.908573 138.543445 
L 284.871749 135.708503 
L 287.761277 126.775088 
L 288.724453 131.307722 
L 289.687629 129.247429 
L 290.650806 137.093004 
L 291.613982 127.813505 
L 294.50351 132.609831 
L 295.466686 129.577073 
L 296.429862 134.010811 
L 297.393038 147.229595 
L 298.356214 144.295745 
L 302.208918 163.036095 
L 303.172094 165.98641 
L 304.13527 164.338191 
L 305.098446 171.557423 
L 307.987975 165.557884 
L 308.951151 162.871273 
L 309.914327 148.350392 
L 310.877503 144.658044 
L 311.840679 144.723995 
L 314.730207 148.548208 
L 315.693383 150.509756 
L 316.656559 154.169134 
L 317.619735 146.751482 
L 318.582911 149.833927 
L 321.47244 149.405337 
L 322.435616 141.806372 
L 323.398792 137.454674 
L 324.361968 136.581041 
L 325.325144 140.932727 
L 328.214672 140.866801 
L 329.177848 148.185557 
L 330.141024 145.136082 
L 331.1042 138.542602 
L 332.067376 135.130488 
L 334.956904 130.515047 
L 335.920081 121.993001 
L 336.883257 122.388609 
L 337.846433 118.828114 
L 338.809609 118.844592 
L 341.699137 113.454414 
L 342.662313 124.119371 
L 343.625489 117.328125 
L 345.551841 113.569839 
L 348.441369 104.157644 
L 349.404545 104.355435 
L 350.367722 110.998375 
L 351.330898 109.597257 
L 352.294074 107.734618 
L 355.183602 109.415944 
L 356.146778 108.212643 
L 357.109954 111.361026 
L 358.07313 122.207271 
L 359.036306 117.855585 
L 361.925834 116.784136 
L 362.88901 110.421455 
L 363.852186 101.025789 
L 364.815362 95.635561 
L 365.778539 97.696067 
L 368.668067 101.602684 
L 369.631243 96.608164 
L 370.594419 99.937861 
L 371.557595 99.130167 
L 372.520771 107.009341 
L 375.410299 110.025872 
L 376.373475 98.718056 
L 377.336651 100.564217 
L 378.299827 99.278473 
L 379.263003 107.058801 
L 382.152532 116.833597 
L 383.115708 115.350061 
L 384.078884 117.954506 
L 386.005236 113.157727 
L 388.894764 112.531371 
L 389.85794 109.844509 
L 390.821116 101.800476 
L 391.784292 101.915875 
L 392.747468 106.234906 
L 395.636997 112.21891 
L 396.600173 118.384203 
L 397.563349 111.394663 
L 398.526525 114.642168 
L 399.489701 119.735961 
L 402.379229 123.445064 
L 404.305581 128.538857 
L 405.268757 125.621071 
L 406.231933 118.994156 
L 409.121461 110.801213 
L 410.084638 109.894523 
L 412.01099 110.372598 
L 412.974166 115.186157 
L 415.863694 114.394892 
L 416.82687 119.670023 
L 418.753222 113.043133 
L 419.716398 102.888479 
L 422.605926 94.71204 
L 423.569102 110.026426 
L 424.532278 110.075861 
L 426.458631 116.999463 
L 429.348159 121.417414 
L 430.311335 123.840697 
L 431.274511 116.455474 
L 432.237687 120.856921 
L 433.200863 114.032215 
L 437.053567 108.888962 
L 438.016743 98.602405 
L 438.979919 98.355153 
L 439.943096 105.938193 
L 442.832624 145.831433 
L 443.7958 128.406954 
L 444.758976 137.127446 
L 445.722152 135.56138 
L 446.685328 143.111425 
L 449.574856 148.732741 
L 450.538032 145.452266 
L 451.501208 135.264655 
L 452.464384 128.918037 
L 453.42756 127.005786 
L 456.317089 120.856921 
L 457.280265 122.126237 
L 458.243441 124.862736 
L 459.206617 118.021552 
L 460.169793 112.152946 
L 464.022497 111.246281 
L 464.985673 111.52654 
L 465.948849 110.075861 
L 466.912025 119.439249 
L 469.801554 126.280434 
L 470.76473 132.297383 
L 471.727906 124.631938 
L 472.691082 142.979535 
L 473.654258 135.116299 
L 476.543786 153.018803 
L 477.506962 149.837235 
L 478.470138 147.67772 
L 479.433314 158.771996 
L 480.39649 155.277213 
L 483.286018 164.69005 
L 484.249194 161.755747 
L 485.212371 150.231799 
L 486.175547 150.49558 
L 487.138723 140.455406 
L 490.028251 143.983486 
L 490.991427 150.742882 
L 491.954603 147.297245 
L 492.917779 145.63212 
L 493.880955 147.000482 
L 496.770483 140.884046 
L 497.733659 142.071058 
L 498.696835 153.496085 
L 499.660012 157.337405 
L 500.623188 160.239003 
L 503.512716 162.365738 
L 504.475892 159.447662 
L 505.439068 159.002531 
L 506.402244 173.213743 
L 507.36542 185.562002 
L 510.254948 180.07206 
L 511.218124 182.281212 
L 512.1813 152.556375 
L 513.144476 163.701131 
L 514.107652 158.161729 
L 516.997181 158.52443 
L 517.960357 156.067964 
L 518.923533 168.778923 
L 519.886709 173.724826 
L 523.739413 181.275551 
L 524.702589 178.011264 
L 526.628941 165.580576 
L 527.592117 158.029826 
L 530.481646 161.788716 
L 531.444822 161.310616 
L 532.407998 161.475475 
L 534.33435 152.276104 
L 538.187054 153.858787 
L 539.15023 148.055604 
L 540.113406 147.544522 
L 541.076582 148.731546 
L 543.96611 138.26272 
L 544.929287 126.837706 
L 545.892463 117.918606 
L 546.855639 118.759408 
L 547.818815 117.819685 
L 550.708343 117.539401 
L 551.671519 119.501289 
L 552.634695 123.754758 
L 553.597871 122.056651 
L 554.561047 124.59556 
L 558.413751 117.654825 
L 559.376928 118.792365 
L 560.340104 111.571346 
L 561.30328 118.264804 
L 564.192808 114.555374 
L 565.155984 108.224643 
L 566.11916 107.0706 
L 567.082336 110.252444 
L 568.045512 107.40032 
L 570.93504 105.900054 
L 571.898216 103.707368 
L 572.861392 105.553982 
L 573.824568 101.976204 
L 574.787745 106.971906 
L 577.677273 102.487311 
L 578.640449 103.427109 
L 579.603625 101.184812 
L 581.529977 103.872253 
L 584.419505 103.344667 
L 585.382681 97.194846 
L 586.345857 86.62637 
L 587.309033 85.455748 
L 588.272209 80.954675 
L 591.161738 80.558967 
L 592.124914 88.291596 
L 593.08809 81.779049 
L 594.051266 78.333173 
L 597.90397 80.14678 
L 598.867146 77.244994 
L 599.830322 72.496594 
L 600.793498 70.48512 
L 601.756674 69.13316 
L 604.646203 70.53458 
L 605.609379 59.603403 
L 606.572555 58.498745 
L 607.535731 55.811279 
L 608.498907 56.784034 
L 611.388435 58.482241 
L 612.351611 65.654302 
L 613.314787 59.4715 
L 614.277963 54.591197 
L 615.241139 54.986905 
L 618.130667 49.628476 
L 619.093843 51.672932 
L 620.05702 45.473626 
L 621.020196 47.781887 
L 621.983372 54.624179 
L 624.8729 44.270048 
L 625.836076 47.138877 
L 626.799252 45.226324 
L 627.762428 43.000505 
L 628.725604 39.818435 
L 631.615132 40.873632 
L 632.578308 39.06 
L 633.541484 41.648545 
L 634.504661 40.939571 
L 635.467837 43.528116 
L 638.357365 40.956075 
L 639.320541 51.458587 
L 640.283717 51.854295 
L 641.246893 52.546766 
L 642.210069 47.584021 
L 645.099597 44.583314 
L 646.062773 41.351758 
L 647.025949 41.632042 
L 647.989125 43.989764 
L 648.952301 53.865769 
L 652.805006 59.4715 
L 653.768182 59.735305 
L 653.768182 59.735305 
" clip-path="url(#pb8ecdff955)" style="fill: none; stroke: #1f77b4; stroke-width: 1.5; stroke-linecap: square"/>
   </g>
   <g id="patch_3">
    <path d="M 94.5 224.28 
L 94.5 30.24 
" style="fill: none; stroke: #000000; stroke-width: 0.8; stroke-linejoin: miter; stroke-linecap: square"/>
   </g>
   <g id="patch_4">
    <path d="M 94.5 224.28 
L 680.4 224.28 
" style="fill: none; stroke: #000000; stroke-width: 0.8; stroke-linejoin: miter; stroke-linecap: square"/>
   </g>
  </g>
 </g>
 <defs>
  <clipPath id="pb8ecdff955">
   <rect x="94.5" y="30.24" width="585.9" height="194.04"/>
  </clipPath>
 </defs>
</svg>
