<?xml version="1.0" encoding="utf-8" standalone="no"?>
<!DOCTYPE svg PUBLIC "-//W3C//DTD SVG 1.1//EN"
  "http://www.w3.org/Graphics/SVG/1.1/DTD/svg11.dtd">
<svg xmlns:xlink="http://www.w3.org/1999/xlink" width="1166.4pt" height="252pt" viewBox="0 0 1166.4 252" xmlns="http://www.w3.org/2000/svg" version="1.1">
 <metadata>
  <rdf:RDF xmlns:dc="http://purl.org/dc/elements/1.1/" xmlns:cc="http://creativecommons.org/ns#" xmlns:rdf="http://www.w3.org/1999/02/22-rdf-syntax-ns#">
   <cc:Work>
    <dc:type rdf:resource="http://purl.org/dc/dcmitype/StillImage"/>
    <dc:date>2025-09-07T00:54:30.264627</dc:date>
    <dc:format>image/svg+xml</dc:format>
    <dc:creator>
     <cc:Agent>
      <dc:title>Matplotlib v3.10.5, https://matplotlib.org/</dc:title>
     </cc:Agent>
    </dc:creator>
   </cc:Work>
  </rdf:RDF>
 </metadata>
 <defs>
  <style type="text/css">*{stroke-linejoin: round; stroke-linecap: butt}</style>
 </defs>
 <g id="figure_1">
  <g id="patch_1">
   <path d="M 0 252 
L 1166.4 252 
L 1166.4 0 
L 0 0 
z
" style="fill: #ffffff"/>
  </g>
  <g id="axes_1">
   <g id="patch_2">
    <path d="M 145.8 224.28 
L 1049.76 224.28 
L 1049.76 30.24 
L 145.8 30.24 
z
" style="fill: #ffffff"/>
   </g>
   <g id="matplotlib.axis_1">
    <g id="xtick_1">
     <g id="line2d_1">
      <defs>
       <path id="mce5d74776b" d="M 0 0 
L 0 3.5 
" style="stroke: #000000; stroke-width: 0.8"/>
      </defs>
      <g>
       <use xlink:href="#mce5d74776b" x="188.375134" y="224.28" style="stroke: #000000; stroke-width: 0.8"/>
      </g>
     </g>
     <g id="text_1">
      <!-- 2024-03 -->
      <g transform="translate(167.483728 238.878438) scale(0.1 -0.1)">
       <defs>
        <path id="DejaVuSans-32" d="M 1228 531 
L 3431 531 
L 3431 0 
L 469 0 
L 469 531 
Q 828 903 1448 1529 
Q 2069 2156 2228 2338 
Q 2531 2678 2651 2914 
Q 2772 3150 2772 3378 
Q 2772 3750 2511 3984 
Q 2250 4219 1831 4219 
Q 1534 4219 1204 4116 
Q 875 4013 500 3803 
L 500 4441 
Q 881 4594 1212 4672 
Q 1544 4750 1819 4750 
Q 2544 4750 2975 4387 
Q 3406 4025 3406 3419 
Q 3406 3131 3298 2873 
Q 3191 2616 2906 2266 
Q 2828 2175 2409 1742 
Q 1991 1309 1228 531 
z
" transform="scale(0.015625)"/>
        <path id="DejaVuSans-30" d="M 2034 4250 
Q 1547 4250 1301 3770 
Q 1056 3291 1056 2328 
Q 1056 1369 1301 889 
Q 1547 409 2034 409 
Q 2525 409 2770 889 
Q 3016 1369 3016 2328 
Q 3016 3291 2770 3770 
Q 2525 4250 2034 4250 
z
M 2034 4750 
Q 2819 4750 3233 4129 
Q 3647 3509 3647 2328 
Q 3647 1150 3233 529 
Q 2819 -91 2034 -91 
Q 1250 -91 836 529 
Q 422 1150 422 2328 
Q 422 3509 836 4129 
Q 1250 4750 2034 4750 
z
" transform="scale(0.015625)"/>
        <path id="DejaVuSans-34" d="M 2419 4116 
L 825 1625 
L 2419 1625 
L 2419 4116 
z
M 2253 4666 
L 3047 4666 
L 3047 1625 
L 3713 1625 
L 3713 1100 
L 3047 1100 
L 3047 0 
L 2419 0 
L 2419 1100 
L 313 1100 
L 313 1709 
L 2253 4666 
z
" transform="scale(0.015625)"/>
        <path id="DejaVuSans-2d" d="M 313 2009 
L 1997 2009 
L 1997 1497 
L 313 1497 
L 313 2009 
z
" transform="scale(0.015625)"/>
        <path id="DejaVuSans-33" d="M 2597 2516 
Q 3050 2419 3304 2112 
Q 3559 1806 3559 1356 
Q 3559 666 3084 287 
Q 2609 -91 1734 -91 
Q 1441 -91 1130 -33 
Q 819 25 488 141 
L 488 750 
Q 750 597 1062 519 
Q 1375 441 1716 441 
Q 2309 441 2620 675 
Q 2931 909 2931 1356 
Q 2931 1769 2642 2001 
Q 2353 2234 1838 2234 
L 1294 2234 
L 1294 2753 
L 1863 2753 
Q 2328 2753 2575 2939 
Q 2822 3125 2822 3475 
Q 2822 3834 2567 4026 
Q 2313 4219 1838 4219 
Q 1578 4219 1281 4162 
Q 984 4106 628 3988 
L 628 4550 
Q 988 4650 1302 4700 
Q 1616 4750 1894 4750 
Q 2613 4750 3031 4423 
Q 3450 4097 3450 3541 
Q 3450 3153 3228 2886 
Q 3006 2619 2597 2516 
z
" transform="scale(0.015625)"/>
       </defs>
       <use xlink:href="#DejaVuSans-32"/>
       <use xlink:href="#DejaVuSans-30" transform="translate(63.623047 0)"/>
       <use xlink:href="#DejaVuSans-32" transform="translate(127.246094 0)"/>
       <use xlink:href="#DejaVuSans-34" transform="translate(190.869141 0)"/>
       <use xlink:href="#DejaVuSans-2d" transform="translate(254.492188 0)"/>
       <use xlink:href="#DejaVuSans-30" transform="translate(290.576172 0)"/>
       <use xlink:href="#DejaVuSans-33" transform="translate(354.199219 0)"/>
      </g>
     </g>
    </g>
    <g id="xtick_2">
     <g id="line2d_2">
      <g>
       <use xlink:href="#mce5d74776b" x="279.023761" y="224.28" style="stroke: #000000; stroke-width: 0.8"/>
      </g>
     </g>
     <g id="text_2">
      <!-- 2024-05 -->
      <g transform="translate(258.132355 238.878438) scale(0.1 -0.1)">
       <defs>
        <path id="DejaVuSans-35" d="M 691 4666 
L 3169 4666 
L 3169 4134 
L 1269 4134 
L 1269 2991 
Q 1406 3038 1543 3061 
Q 1681 3084 1819 3084 
Q 2600 3084 3056 2656 
Q 3513 2228 3513 1497 
Q 3513 744 3044 326 
Q 2575 -91 1722 -91 
Q 1428 -91 1123 -41 
Q 819 9 494 109 
L 494 744 
Q 775 591 1075 516 
Q 1375 441 1709 441 
Q 2250 441 2565 725 
Q 2881 1009 2881 1497 
Q 2881 1984 2565 2268 
Q 2250 2553 1709 2553 
Q 1456 2553 1204 2497 
Q 953 2441 691 2322 
L 691 4666 
z
" transform="scale(0.015625)"/>
       </defs>
       <use xlink:href="#DejaVuSans-32"/>
       <use xlink:href="#DejaVuSans-30" transform="translate(63.623047 0)"/>
       <use xlink:href="#DejaVuSans-32" transform="translate(127.246094 0)"/>
       <use xlink:href="#DejaVuSans-34" transform="translate(190.869141 0)"/>
       <use xlink:href="#DejaVuSans-2d" transform="translate(254.492188 0)"/>
       <use xlink:href="#DejaVuSans-30" transform="translate(290.576172 0)"/>
       <use xlink:href="#DejaVuSans-35" transform="translate(354.199219 0)"/>
      </g>
     </g>
    </g>
    <g id="xtick_3">
     <g id="line2d_3">
      <g>
       <use xlink:href="#mce5d74776b" x="369.672389" y="224.28" style="stroke: #000000; stroke-width: 0.8"/>
      </g>
     </g>
     <g id="text_3">
      <!-- 2024-07 -->
      <g transform="translate(348.780982 238.878438) scale(0.1 -0.1)">
       <defs>
        <path id="DejaVuSans-37" d="M 525 4666 
L 3525 4666 
L 3525 4397 
L 1831 0 
L 1172 0 
L 2766 4134 
L 525 4134 
L 525 4666 
z
" transform="scale(0.015625)"/>
       </defs>
       <use xlink:href="#DejaVuSans-32"/>
       <use xlink:href="#DejaVuSans-30" transform="translate(63.623047 0)"/>
       <use xlink:href="#DejaVuSans-32" transform="translate(127.246094 0)"/>
       <use xlink:href="#DejaVuSans-34" transform="translate(190.869141 0)"/>
       <use xlink:href="#DejaVuSans-2d" transform="translate(254.492188 0)"/>
       <use xlink:href="#DejaVuSans-30" transform="translate(290.576172 0)"/>
       <use xlink:href="#DejaVuSans-37" transform="translate(354.199219 0)"/>
      </g>
     </g>
    </g>
    <g id="xtick_4">
     <g id="line2d_4">
      <g>
       <use xlink:href="#mce5d74776b" x="461.807059" y="224.28" style="stroke: #000000; stroke-width: 0.8"/>
      </g>
     </g>
     <g id="text_4">
      <!-- 2024-09 -->
      <g transform="translate(440.915653 238.878438) scale(0.1 -0.1)">
       <defs>
        <path id="DejaVuSans-39" d="M 703 97 
L 703 672 
Q 941 559 1184 500 
Q 1428 441 1663 441 
Q 2288 441 2617 861 
Q 2947 1281 2994 2138 
Q 2813 1869 2534 1725 
Q 2256 1581 1919 1581 
Q 1219 1581 811 2004 
Q 403 2428 403 3163 
Q 403 3881 828 4315 
Q 1253 4750 1959 4750 
Q 2769 4750 3195 4129 
Q 3622 3509 3622 2328 
Q 3622 1225 3098 567 
Q 2575 -91 1691 -91 
Q 1453 -91 1209 -44 
Q 966 3 703 97 
z
M 1959 2075 
Q 2384 2075 2632 2365 
Q 2881 2656 2881 3163 
Q 2881 3666 2632 3958 
Q 2384 4250 1959 4250 
Q 1534 4250 1286 3958 
Q 1038 3666 1038 3163 
Q 1038 2656 1286 2365 
Q 1534 2075 1959 2075 
z
" transform="scale(0.015625)"/>
       </defs>
       <use xlink:href="#DejaVuSans-32"/>
       <use xlink:href="#DejaVuSans-30" transform="translate(63.623047 0)"/>
       <use xlink:href="#DejaVuSans-32" transform="translate(127.246094 0)"/>
       <use xlink:href="#DejaVuSans-34" transform="translate(190.869141 0)"/>
       <use xlink:href="#DejaVuSans-2d" transform="translate(254.492188 0)"/>
       <use xlink:href="#DejaVuSans-30" transform="translate(290.576172 0)"/>
       <use xlink:href="#DejaVuSans-39" transform="translate(354.199219 0)"/>
      </g>
     </g>
    </g>
    <g id="xtick_5">
     <g id="line2d_5">
      <g>
       <use xlink:href="#mce5d74776b" x="552.455686" y="224.28" style="stroke: #000000; stroke-width: 0.8"/>
      </g>
     </g>
     <g id="text_5">
      <!-- 2024-11 -->
      <g transform="translate(531.56428 238.878438) scale(0.1 -0.1)">
       <defs>
        <path id="DejaVuSans-31" d="M 794 531 
L 1825 531 
L 1825 4091 
L 703 3866 
L 703 4441 
L 1819 4666 
L 2450 4666 
L 2450 531 
L 3481 531 
L 3481 0 
L 794 0 
L 794 531 
z
" transform="scale(0.015625)"/>
       </defs>
       <use xlink:href="#DejaVuSans-32"/>
       <use xlink:href="#DejaVuSans-30" transform="translate(63.623047 0)"/>
       <use xlink:href="#DejaVuSans-32" transform="translate(127.246094 0)"/>
       <use xlink:href="#DejaVuSans-34" transform="translate(190.869141 0)"/>
       <use xlink:href="#DejaVuSans-2d" transform="translate(254.492188 0)"/>
       <use xlink:href="#DejaVuSans-31" transform="translate(290.576172 0)"/>
       <use xlink:href="#DejaVuSans-31" transform="translate(354.199219 0)"/>
      </g>
     </g>
    </g>
    <g id="xtick_6">
     <g id="line2d_6">
      <g>
       <use xlink:href="#mce5d74776b" x="643.104314" y="224.28" style="stroke: #000000; stroke-width: 0.8"/>
      </g>
     </g>
     <g id="text_6">
      <!-- 2025-01 -->
      <g transform="translate(622.212907 238.878438) scale(0.1 -0.1)">
       <use xlink:href="#DejaVuSans-32"/>
       <use xlink:href="#DejaVuSans-30" transform="translate(63.623047 0)"/>
       <use xlink:href="#DejaVuSans-32" transform="translate(127.246094 0)"/>
       <use xlink:href="#DejaVuSans-35" transform="translate(190.869141 0)"/>
       <use xlink:href="#DejaVuSans-2d" transform="translate(254.492188 0)"/>
       <use xlink:href="#DejaVuSans-30" transform="translate(290.576172 0)"/>
       <use xlink:href="#DejaVuSans-31" transform="translate(354.199219 0)"/>
      </g>
     </g>
    </g>
    <g id="xtick_7">
     <g id="line2d_7">
      <g>
       <use xlink:href="#mce5d74776b" x="730.780855" y="224.28" style="stroke: #000000; stroke-width: 0.8"/>
      </g>
     </g>
     <g id="text_7">
      <!-- 2025-03 -->
      <g transform="translate(709.889449 238.878438) scale(0.1 -0.1)">
       <use xlink:href="#DejaVuSans-32"/>
       <use xlink:href="#DejaVuSans-30" transform="translate(63.623047 0)"/>
       <use xlink:href="#DejaVuSans-32" transform="translate(127.246094 0)"/>
       <use xlink:href="#DejaVuSans-35" transform="translate(190.869141 0)"/>
       <use xlink:href="#DejaVuSans-2d" transform="translate(254.492188 0)"/>
       <use xlink:href="#DejaVuSans-30" transform="translate(290.576172 0)"/>
       <use xlink:href="#DejaVuSans-33" transform="translate(354.199219 0)"/>
      </g>
     </g>
    </g>
    <g id="xtick_8">
     <g id="line2d_8">
      <g>
       <use xlink:href="#mce5d74776b" x="821.429482" y="224.28" style="stroke: #000000; stroke-width: 0.8"/>
      </g>
     </g>
     <g id="text_8">
      <!-- 2025-05 -->
      <g transform="translate(800.538076 238.878438) scale(0.1 -0.1)">
       <use xlink:href="#DejaVuSans-32"/>
       <use xlink:href="#DejaVuSans-30" transform="translate(63.623047 0)"/>
       <use xlink:href="#DejaVuSans-32" transform="translate(127.246094 0)"/>
       <use xlink:href="#DejaVuSans-35" transform="translate(190.869141 0)"/>
       <use xlink:href="#DejaVuSans-2d" transform="translate(254.492188 0)"/>
       <use xlink:href="#DejaVuSans-30" transform="translate(290.576172 0)"/>
       <use xlink:href="#DejaVuSans-35" transform="translate(354.199219 0)"/>
      </g>
     </g>
    </g>
    <g id="xtick_9">
     <g id="line2d_9">
      <g>
       <use xlink:href="#mce5d74776b" x="912.078109" y="224.28" style="stroke: #000000; stroke-width: 0.8"/>
      </g>
     </g>
     <g id="text_9">
      <!-- 2025-07 -->
      <g transform="translate(891.186703 238.878438) scale(0.1 -0.1)">
       <use xlink:href="#DejaVuSans-32"/>
       <use xlink:href="#DejaVuSans-30" transform="translate(63.623047 0)"/>
       <use xlink:href="#DejaVuSans-32" transform="translate(127.246094 0)"/>
       <use xlink:href="#DejaVuSans-35" transform="translate(190.869141 0)"/>
       <use xlink:href="#DejaVuSans-2d" transform="translate(254.492188 0)"/>
       <use xlink:href="#DejaVuSans-30" transform="translate(290.576172 0)"/>
       <use xlink:href="#DejaVuSans-37" transform="translate(354.199219 0)"/>
      </g>
     </g>
    </g>
    <g id="xtick_10">
     <g id="line2d_10">
      <g>
       <use xlink:href="#mce5d74776b" x="1004.21278" y="224.28" style="stroke: #000000; stroke-width: 0.8"/>
      </g>
     </g>
     <g id="text_10">
      <!-- 2025-09 -->
      <g transform="translate(983.321374 238.878438) scale(0.1 -0.1)">
       <use xlink:href="#DejaVuSans-32"/>
       <use xlink:href="#DejaVuSans-30" transform="translate(63.623047 0)"/>
       <use xlink:href="#DejaVuSans-32" transform="translate(127.246094 0)"/>
       <use xlink:href="#DejaVuSans-35" transform="translate(190.869141 0)"/>
       <use xlink:href="#DejaVuSans-2d" transform="translate(254.492188 0)"/>
       <use xlink:href="#DejaVuSans-30" transform="translate(290.576172 0)"/>
       <use xlink:href="#DejaVuSans-39" transform="translate(354.199219 0)"/>
      </g>
     </g>
    </g>
   </g>
   <g id="matplotlib.axis_2">
    <g id="ytick_1">
     <g id="line2d_11">
      <defs>
       <path id="m031c6f1313" d="M 0 0 
L -3.5 0 
" style="stroke: #000000; stroke-width: 0.8"/>
      </defs>
      <g>
       <use xlink:href="#m031c6f1313" x="145.8" y="216.977317" style="stroke: #000000; stroke-width: 0.8"/>
      </g>
     </g>
     <g id="text_11">
      <!-- 20 -->
      <g transform="translate(126.075 220.776536) scale(0.1 -0.1)">
       <use xlink:href="#DejaVuSans-32"/>
       <use xlink:href="#DejaVuSans-30" transform="translate(63.623047 0)"/>
      </g>
     </g>
    </g>
    <g id="ytick_2">
     <g id="line2d_12">
      <g>
       <use xlink:href="#m031c6f1313" x="145.8" y="192.495079" style="stroke: #000000; stroke-width: 0.8"/>
      </g>
     </g>
     <g id="text_12">
      <!-- 30 -->
      <g transform="translate(126.075 196.294298) scale(0.1 -0.1)">
       <use xlink:href="#DejaVuSans-33"/>
       <use xlink:href="#DejaVuSans-30" transform="translate(63.623047 0)"/>
      </g>
     </g>
    </g>
    <g id="ytick_3">
     <g id="line2d_13">
      <g>
       <use xlink:href="#m031c6f1313" x="145.8" y="168.012842" style="stroke: #000000; stroke-width: 0.8"/>
      </g>
     </g>
     <g id="text_13">
      <!-- 40 -->
      <g transform="translate(126.075 171.812061) scale(0.1 -0.1)">
       <use xlink:href="#DejaVuSans-34"/>
       <use xlink:href="#DejaVuSans-30" transform="translate(63.623047 0)"/>
      </g>
     </g>
    </g>
    <g id="ytick_4">
     <g id="line2d_14">
      <g>
       <use xlink:href="#m031c6f1313" x="145.8" y="143.530604" style="stroke: #000000; stroke-width: 0.8"/>
      </g>
     </g>
     <g id="text_14">
      <!-- 50 -->
      <g transform="translate(126.075 147.329823) scale(0.1 -0.1)">
       <use xlink:href="#DejaVuSans-35"/>
       <use xlink:href="#DejaVuSans-30" transform="translate(63.623047 0)"/>
      </g>
     </g>
    </g>
    <g id="ytick_5">
     <g id="line2d_15">
      <g>
       <use xlink:href="#m031c6f1313" x="145.8" y="119.048367" style="stroke: #000000; stroke-width: 0.8"/>
      </g>
     </g>
     <g id="text_15">
      <!-- 60 -->
      <g transform="translate(126.075 122.847585) scale(0.1 -0.1)">
       <defs>
        <path id="DejaVuSans-36" d="M 2113 2584 
Q 1688 2584 1439 2293 
Q 1191 2003 1191 1497 
Q 1191 994 1439 701 
Q 1688 409 2113 409 
Q 2538 409 2786 701 
Q 3034 994 3034 1497 
Q 3034 2003 2786 2293 
Q 2538 2584 2113 2584 
z
M 3366 4563 
L 3366 3988 
Q 3128 4100 2886 4159 
Q 2644 4219 2406 4219 
Q 1781 4219 1451 3797 
Q 1122 3375 1075 2522 
Q 1259 2794 1537 2939 
Q 1816 3084 2150 3084 
Q 2853 3084 3261 2657 
Q 3669 2231 3669 1497 
Q 3669 778 3244 343 
Q 2819 -91 2113 -91 
Q 1303 -91 875 529 
Q 447 1150 447 2328 
Q 447 3434 972 4092 
Q 1497 4750 2381 4750 
Q 2619 4750 2861 4703 
Q 3103 4656 3366 4563 
z
" transform="scale(0.015625)"/>
       </defs>
       <use xlink:href="#DejaVuSans-36"/>
       <use xlink:href="#DejaVuSans-30" transform="translate(63.623047 0)"/>
      </g>
     </g>
    </g>
    <g id="ytick_6">
     <g id="line2d_16">
      <g>
       <use xlink:href="#m031c6f1313" x="145.8" y="94.566129" style="stroke: #000000; stroke-width: 0.8"/>
      </g>
     </g>
     <g id="text_16">
      <!-- 70 -->
      <g transform="translate(126.075 98.365348) scale(0.1 -0.1)">
       <use xlink:href="#DejaVuSans-37"/>
       <use xlink:href="#DejaVuSans-30" transform="translate(63.623047 0)"/>
      </g>
     </g>
    </g>
    <g id="ytick_7">
     <g id="line2d_17">
      <g>
       <use xlink:href="#m031c6f1313" x="145.8" y="70.083891" style="stroke: #000000; stroke-width: 0.8"/>
      </g>
     </g>
     <g id="text_17">
      <!-- 80 -->
      <g transform="translate(126.075 73.88311) scale(0.1 -0.1)">
       <defs>
        <path id="DejaVuSans-38" d="M 2034 2216 
Q 1584 2216 1326 1975 
Q 1069 1734 1069 1313 
Q 1069 891 1326 650 
Q 1584 409 2034 409 
Q 2484 409 2743 651 
Q 3003 894 3003 1313 
Q 3003 1734 2745 1975 
Q 2488 2216 2034 2216 
z
M 1403 2484 
Q 997 2584 770 2862 
Q 544 3141 544 3541 
Q 544 4100 942 4425 
Q 1341 4750 2034 4750 
Q 2731 4750 3128 4425 
Q 3525 4100 3525 3541 
Q 3525 3141 3298 2862 
Q 3072 2584 2669 2484 
Q 3125 2378 3379 2068 
Q 3634 1759 3634 1313 
Q 3634 634 3220 271 
Q 2806 -91 2034 -91 
Q 1263 -91 848 271 
Q 434 634 434 1313 
Q 434 1759 690 2068 
Q 947 2378 1403 2484 
z
M 1172 3481 
Q 1172 3119 1398 2916 
Q 1625 2713 2034 2713 
Q 2441 2713 2670 2916 
Q 2900 3119 2900 3481 
Q 2900 3844 2670 4047 
Q 2441 4250 2034 4250 
Q 1625 4250 1398 4047 
Q 1172 3844 1172 3481 
z
" transform="scale(0.015625)"/>
       </defs>
       <use xlink:href="#DejaVuSans-38"/>
       <use xlink:href="#DejaVuSans-30" transform="translate(63.623047 0)"/>
      </g>
     </g>
    </g>
    <g id="ytick_8">
     <g id="line2d_18">
      <g>
       <use xlink:href="#m031c6f1313" x="145.8" y="45.601654" style="stroke: #000000; stroke-width: 0.8"/>
      </g>
     </g>
     <g id="text_18">
      <!-- 90 -->
      <g transform="translate(126.075 49.400872) scale(0.1 -0.1)">
       <use xlink:href="#DejaVuSans-39"/>
       <use xlink:href="#DejaVuSans-30" transform="translate(63.623047 0)"/>
      </g>
     </g>
    </g>
   </g>
   <g id="line2d_19">
    <path d="M 186.889091 97.931497 
L 188.375134 95.945071 
L 194.319306 86.205971 
L 195.805349 84.14976 
L 197.291392 69.832942 
L 198.777435 95.89907 
L 203.235565 89.421841 
L 204.721608 70.712596 
L 206.207651 94.830023 
L 207.693694 110.380743 
L 209.179737 111.608593 
L 213.637866 108.166315 
L 215.123909 100.866885 
L 216.609952 102.007517 
L 218.095995 107.479094 
L 219.582038 107.76843 
L 224.040168 107.81881 
L 225.526211 128.128008 
L 227.012254 153.731877 
L 228.498297 129.101751 
L 234.442469 118.278017 
L 235.928512 161.23375 
L 237.414555 157.821783 
L 238.900598 158.571068 
L 240.386641 142.404637 
L 244.844771 152.116515 
L 246.330814 168.679663 
L 247.816857 163.535343 
L 249.3029 147.906761 
L 250.788943 176.756081 
L 255.247072 189.522181 
L 256.733115 171.002287 
L 258.219158 175.231241 
L 259.705201 171.901319 
L 261.191244 196.078289 
L 265.649374 177.88176 
L 267.135417 164.703372 
L 268.62146 163.858423 
L 270.107503 160.687797 
L 271.593546 141.800085 
L 276.051675 136.325665 
L 277.537718 145.456063 
L 279.023761 166.550536 
L 281.995847 135.289867 
L 286.453977 130.18852 
L 287.94002 124.328096 
L 289.426063 126.416378 
L 290.912106 98.696183 
L 292.398149 103.986527 
L 296.856278 110.641302 
L 298.342321 92.283533 
L 299.828364 91.478984 
L 301.314407 108.855192 
L 302.80045 120.631329 
L 307.25858 104.369179 
L 308.744623 79.041823 
L 310.230666 90.528114 
L 311.716709 75.403349 
L 313.202752 76.809564 
L 319.146924 54.595348 
L 320.632967 52.743936 
L 322.11901 68.6842 
L 323.605053 75.050605 
L 328.063183 68.542731 
L 329.549226 67.982595 
L 331.035269 65.033664 
L 332.521312 70.315847 
L 334.007355 62.219774 
L 338.465484 63.609666 
L 339.951527 68.456459 
L 341.43757 62.098906 
L 342.923613 66.529951 
L 344.409656 66.976558 
L 348.867786 82.214679 
L 350.353829 76.271748 
L 353.325915 78.627935 
L 354.811958 93.677392 
L 359.270087 134.988632 
L 360.75613 120.449843 
L 362.242173 132.862316 
L 363.728216 135.63171 
L 365.214259 136.57721 
L 369.672389 136.927935 
L 371.158432 138.99306 
L 372.644475 135.804649 
L 375.616561 153.409189 
L 380.07469 153.12745 
L 381.560733 142.535801 
L 383.046776 145.233925 
L 384.532819 151.665642 
L 386.018862 136.790272 
L 390.476992 112.560538 
L 391.963035 142.584379 
L 393.449078 167.477554 
L 394.935121 151.65774 
L 396.421164 158.333919 
L 400.879293 145.34624 
L 402.365336 143.724284 
L 403.851379 175.758588 
L 405.337422 174.938892 
L 406.823465 179.713827 
L 411.281595 192.460507 
L 412.767638 214.42182 
L 414.253681 164.842747 
L 415.739724 180.912786 
L 417.225767 182.365423 
L 421.683896 187.90832 
L 423.169939 168.671565 
L 424.655982 182.799921 
L 426.142025 165.552402 
L 427.628068 178.040843 
L 432.086198 167.271085 
L 433.572241 140.165405 
L 435.058284 133.199018 
L 436.544327 127.034014 
L 438.03037 121.739162 
L 442.488499 97.936624 
L 443.974542 122.656022 
L 445.460585 99.336123 
L 446.946628 107.688588 
L 448.432671 79.234743 
L 452.890801 93.341335 
L 454.376844 72.528758 
L 455.862887 90.114845 
L 457.34893 115.005038 
L 458.834973 119.448569 
L 464.779145 161.054805 
L 466.265188 169.152551 
L 467.751231 179.724349 
L 469.237274 191.424842 
L 473.695404 197.058468 
L 475.181447 188.020521 
L 476.66749 167.07827 
L 478.153533 153.262851 
L 479.639576 167.61787 
L 484.097705 166.492937 
L 485.583748 174.07327 
L 487.069791 173.21742 
L 488.555834 142.773668 
L 490.041877 152.281694 
L 494.500007 115.324993 
L 495.98605 97.141126 
L 497.472093 94.050974 
L 498.958136 72.36613 
L 500.444179 92.016241 
L 504.902308 95.340288 
L 506.388351 143.116219 
L 507.874394 144.748445 
L 509.360437 129.66642 
L 510.84648 113.207175 
L 515.30461 100.454067 
L 516.790653 79.675272 
L 518.276696 88.96976 
L 519.762739 74.694875 
L 521.248782 75.172042 
L 525.706911 77.445415 
L 527.192954 115.78315 
L 528.678997 107.131388 
L 530.16504 93.304858 
L 531.651083 91.392539 
L 536.109213 62.095936 
L 537.595256 64.705679 
L 539.081299 90.331907 
L 540.567342 92.599934 
L 542.053385 95.956896 
L 546.511514 113.794926 
L 547.997557 110.529474 
L 549.4836 126.010185 
L 550.969643 150.064343 
L 552.455686 152.225475 
L 556.913816 126.384553 
L 558.399859 127.253111 
L 559.885902 114.01595 
L 561.371945 108.665777 
L 562.857988 129.308621 
L 567.316117 137.850559 
L 568.80216 112.989104 
L 570.288203 123.69302 
L 571.774246 125.541177 
L 573.260289 138.98072 
L 577.718419 146.86528 
L 579.204462 122.818205 
L 580.690505 103.218147 
L 582.176548 107.235575 
L 583.662591 126.367512 
L 588.12072 154.316076 
L 591.092806 187.54149 
L 594.064892 172.732396 
L 598.523022 165.271475 
L 600.009065 170.888165 
L 601.495108 147.096509 
L 602.981151 148.922111 
L 604.467194 141.942348 
L 608.925323 147.815197 
L 610.411366 185.388378 
L 611.897409 164.690024 
L 613.383452 172.635357 
L 614.869495 168.587795 
L 619.327625 158.017452 
L 620.813668 166.60021 
L 622.299711 166.312545 
L 623.785754 171.273526 
L 625.271797 156.501213 
L 629.729926 145.291699 
L 631.215969 160.221506 
L 634.188055 160.863491 
L 635.674098 161.726412 
L 640.132228 148.371283 
L 641.618271 146.438067 
L 644.590357 147.283223 
L 646.0764 119.819844 
L 650.534529 95.490263 
L 652.020572 121.736474 
L 653.506615 116.574623 
L 656.478701 125.244627 
L 660.936831 136.996152 
L 662.422874 151.489239 
L 663.908917 152.917325 
L 665.39496 160.905936 
L 666.881003 148.890606 
L 672.825175 134.343754 
L 674.311218 122.833433 
L 675.797261 114.006688 
L 677.283304 133.794657 
L 681.741434 187.678636 
L 683.227477 175.67449 
L 684.71352 170.784631 
L 686.199563 168.844607 
L 687.685606 169.335665 
L 692.143735 170.265161 
L 693.629778 164.538691 
L 695.115821 161.416525 
L 696.601864 151.081931 
L 698.087907 156.158436 
L 702.546036 155.087216 
L 704.03208 167.985417 
L 705.518123 170.516768 
L 707.004166 155.90849 
L 708.490209 95.298017 
L 714.434381 113.066857 
L 715.920424 91.745145 
L 717.406467 91.880066 
L 718.89251 96.953441 
L 723.350639 100.203194 
L 724.836683 119.194756 
L 726.322726 123.081173 
L 727.808769 166.284206 
L 729.294812 155.697505 
L 733.752941 185.703352 
L 736.725027 173.025221 
L 738.21107 193.94718 
L 739.697113 198.195609 
L 744.155242 205.792453 
L 745.641286 200.605848 
L 747.127329 185.257873 
L 748.613372 178.503695 
L 750.099415 159.036959 
L 754.557544 156.605122 
L 756.043587 172.987702 
L 757.52963 149.177113 
L 759.015673 158.257914 
L 760.501716 133.135639 
L 764.959845 128.681393 
L 766.445889 134.107577 
L 767.931932 134.70355 
L 769.417975 146.961234 
L 770.904018 135.39842 
L 775.362147 144.658671 
L 776.84819 163.120606 
L 778.334233 161.556917 
L 779.820276 208.271356 
L 781.306319 215.46 
L 785.764448 195.195969 
L 787.250492 206.273703 
L 788.736535 152.331135 
L 790.222578 162.800621 
L 791.708621 163.575457 
L 796.16675 162.769428 
L 797.652793 146.819656 
L 799.138836 156.921752 
L 800.624879 159.01181 
L 806.569051 164.187608 
L 808.055095 163.74695 
L 809.541138 156.68815 
L 811.027181 135.049924 
L 812.513224 111.548936 
L 816.971353 121.937779 
L 818.457396 118.343455 
L 819.943439 158.619334 
L 821.429482 131.111188 
L 822.915525 132.424928 
L 827.373654 133.967702 
L 828.859698 139.281079 
L 830.345741 98.813678 
L 831.831784 82.247776 
L 833.317827 56.797085 
L 837.775956 51.959615 
L 839.261999 49.245612 
L 840.748042 47.961972 
L 842.234085 55.064784 
L 843.720128 39.06 
L 848.178257 39.129151 
L 849.664301 46.802277 
L 851.150344 66.561417 
L 852.636387 69.355523 
L 854.12243 74.789962 
L 860.066602 66.814104 
L 861.552645 76.073369 
L 863.038688 69.908473 
L 864.524731 86.434237 
L 868.98286 93.973389 
L 870.468904 100.915079 
L 871.954947 114.473418 
L 873.44099 121.854458 
L 874.927033 117.99796 
L 879.385162 115.688368 
L 880.871205 105.919929 
L 882.357248 98.059335 
L 883.843291 95.216768 
L 885.329334 103.081102 
L 889.787463 107.037823 
L 891.273506 106.417819 
L 892.75955 115.710253 
L 895.731636 101.27627 
L 900.189765 107.898534 
L 901.675808 108.308087 
L 903.161851 91.116819 
L 904.647894 77.162627 
L 906.133937 75.212371 
L 910.592066 76.503394 
L 912.078109 107.114976 
L 913.564153 92.007855 
L 915.050196 92.173777 
L 920.994368 81.774589 
L 922.480411 83.635548 
L 923.966454 75.184272 
L 925.452497 75.410484 
L 926.93854 64.535062 
L 931.396669 70.113322 
L 932.882712 66.175347 
L 934.368756 74.69946 
L 935.854799 73.122569 
L 937.340842 81.904552 
L 941.798971 88.729934 
L 943.285014 86.692347 
L 944.771057 87.13887 
L 946.2571 85.239477 
L 947.743143 79.950117 
L 952.201272 77.110529 
L 953.687315 90.637951 
L 955.173359 85.079951 
L 956.659402 94.528333 
L 958.145445 110.395502 
L 962.603574 111.280651 
L 964.089617 120.340831 
L 965.57566 121.639832 
L 967.061703 115.615813 
L 968.547746 106.637844 
L 973.005875 89.17793 
L 974.491918 94.95852 
L 975.977962 111.295606 
L 977.464005 108.765862 
L 978.950048 127.53766 
L 983.408177 115.748779 
L 984.89422 157.749893 
L 986.380263 153.578976 
L 987.866306 137.679419 
L 989.352349 154.186532 
L 993.810478 135.341675 
L 995.296521 131.529492 
L 996.782565 139.072447 
L 998.268608 157.42471 
L 999.754651 178.429272 
L 1005.698823 194.146818 
L 1008.670909 187.050806 
L 1008.670909 187.050806 
" clip-path="url(#p1b90160d54)" style="fill: none; stroke: #1f77b4; stroke-width: 1.5; stroke-linecap: square"/>
   </g>
   <g id="patch_3">
    <path d="M 145.8 224.28 
L 145.8 30.24 
" style="fill: none; stroke: #000000; stroke-width: 0.8; stroke-linejoin: miter; stroke-linecap: square"/>
   </g>
   <g id="patch_4">
    <path d="M 145.8 224.28 
L 1049.76 224.28 
" style="fill: none; stroke: #000000; stroke-width: 0.8; stroke-linejoin: miter; stroke-linecap: square"/>
   </g>
  </g>
 </g>
 <defs>
  <clipPath id="p1b90160d54">
   <rect x="145.8" y="30.24" width="903.96" height="194.04"/>
  </clipPath>
 </defs>
</svg>
