<?xml version="1.0" encoding="utf-8" standalone="no"?>
<!DOCTYPE svg PUBLIC "-//W3C//DTD SVG 1.1//EN"
  "http://www.w3.org/Graphics/SVG/1.1/DTD/svg11.dtd">
<svg xmlns:xlink="http://www.w3.org/1999/xlink" width="756pt" height="252pt" viewBox="0 0 756 252" xmlns="http://www.w3.org/2000/svg" version="1.1">
 <metadata>
  <rdf:RDF xmlns:dc="http://purl.org/dc/elements/1.1/" xmlns:cc="http://creativecommons.org/ns#" xmlns:rdf="http://www.w3.org/1999/02/22-rdf-syntax-ns#">
   <cc:Work>
    <dc:type rdf:resource="http://purl.org/dc/dcmitype/StillImage"/>
    <dc:date>2025-09-06T23:30:12.895968</dc:date>
    <dc:format>image/svg+xml</dc:format>
    <dc:creator>
     <cc:Agent>
      <dc:title>Matplotlib v3.10.5, https://matplotlib.org/</dc:title>
     </cc:Agent>
    </dc:creator>
   </cc:Work>
  </rdf:RDF>
 </metadata>
 <defs>
  <style type="text/css">*{stroke-linejoin: round; stroke-linecap: butt}</style>
 </defs>
 <g id="figure_1">
  <g id="patch_1">
   <path d="M 0 252 
L 756 252 
L 756 0 
L 0 0 
z
" style="fill: #ffffff"/>
  </g>
  <g id="axes_1">
   <g id="patch_2">
    <path d="M 94.5 224.28 
L 680.4 224.28 
L 680.4 30.24 
L 94.5 30.24 
z
" style="fill: #ffffff"/>
   </g>
   <g id="matplotlib.axis_1">
    <g id="xtick_1">
     <g id="line2d_1">
      <defs>
       <path id="mb2c60ca48e" d="M 0 0 
L 0 3.5 
" style="stroke: #000000; stroke-width: 0.8"/>
      </defs>
      <g>
       <use xlink:href="#mb2c60ca48e" x="115.678204" y="224.28" style="stroke: #000000; stroke-width: 0.8"/>
      </g>
     </g>
     <g id="text_1">
      <!-- 2020 -->
      <g transform="translate(102.953204 238.878438) scale(0.1 -0.1)">
       <defs>
        <path id="DejaVuSans-32" d="M 1228 531 
L 3431 531 
L 3431 0 
L 469 0 
L 469 531 
Q 828 903 1448 1529 
Q 2069 2156 2228 2338 
Q 2531 2678 2651 2914 
Q 2772 3150 2772 3378 
Q 2772 3750 2511 3984 
Q 2250 4219 1831 4219 
Q 1534 4219 1204 4116 
Q 875 4013 500 3803 
L 500 4441 
Q 881 4594 1212 4672 
Q 1544 4750 1819 4750 
Q 2544 4750 2975 4387 
Q 3406 4025 3406 3419 
Q 3406 3131 3298 2873 
Q 3191 2616 2906 2266 
Q 2828 2175 2409 1742 
Q 1991 1309 1228 531 
z
" transform="scale(0.015625)"/>
        <path id="DejaVuSans-30" d="M 2034 4250 
Q 1547 4250 1301 3770 
Q 1056 3291 1056 2328 
Q 1056 1369 1301 889 
Q 1547 409 2034 409 
Q 2525 409 2770 889 
Q 3016 1369 3016 2328 
Q 3016 3291 2770 3770 
Q 2525 4250 2034 4250 
z
M 2034 4750 
Q 2819 4750 3233 4129 
Q 3647 3509 3647 2328 
Q 3647 1150 3233 529 
Q 2819 -91 2034 -91 
Q 1250 -91 836 529 
Q 422 1150 422 2328 
Q 422 3509 836 4129 
Q 1250 4750 2034 4750 
z
" transform="scale(0.015625)"/>
       </defs>
       <use xlink:href="#DejaVuSans-32"/>
       <use xlink:href="#DejaVuSans-30" transform="translate(63.623047 0)"/>
       <use xlink:href="#DejaVuSans-32" transform="translate(127.246094 0)"/>
       <use xlink:href="#DejaVuSans-30" transform="translate(190.869141 0)"/>
      </g>
     </g>
    </g>
    <g id="xtick_2">
     <g id="line2d_2">
      <g>
       <use xlink:href="#mb2c60ca48e" x="210.726916" y="224.28" style="stroke: #000000; stroke-width: 0.8"/>
      </g>
     </g>
     <g id="text_2">
      <!-- 2021 -->
      <g transform="translate(198.001916 238.878438) scale(0.1 -0.1)">
       <defs>
        <path id="DejaVuSans-31" d="M 794 531 
L 1825 531 
L 1825 4091 
L 703 3866 
L 703 4441 
L 1819 4666 
L 2450 4666 
L 2450 531 
L 3481 531 
L 3481 0 
L 794 0 
L 794 531 
z
" transform="scale(0.015625)"/>
       </defs>
       <use xlink:href="#DejaVuSans-32"/>
       <use xlink:href="#DejaVuSans-30" transform="translate(63.623047 0)"/>
       <use xlink:href="#DejaVuSans-32" transform="translate(127.246094 0)"/>
       <use xlink:href="#DejaVuSans-31" transform="translate(190.869141 0)"/>
      </g>
     </g>
    </g>
    <g id="xtick_3">
     <g id="line2d_3">
      <g>
       <use xlink:href="#mb2c60ca48e" x="305.515932" y="224.28" style="stroke: #000000; stroke-width: 0.8"/>
      </g>
     </g>
     <g id="text_3">
      <!-- 2022 -->
      <g transform="translate(292.790932 238.878438) scale(0.1 -0.1)">
       <use xlink:href="#DejaVuSans-32"/>
       <use xlink:href="#DejaVuSans-30" transform="translate(63.623047 0)"/>
       <use xlink:href="#DejaVuSans-32" transform="translate(127.246094 0)"/>
       <use xlink:href="#DejaVuSans-32" transform="translate(190.869141 0)"/>
      </g>
     </g>
    </g>
    <g id="xtick_4">
     <g id="line2d_4">
      <g>
       <use xlink:href="#mb2c60ca48e" x="400.304949" y="224.28" style="stroke: #000000; stroke-width: 0.8"/>
      </g>
     </g>
     <g id="text_4">
      <!-- 2023 -->
      <g transform="translate(387.579949 238.878438) scale(0.1 -0.1)">
       <defs>
        <path id="DejaVuSans-33" d="M 2597 2516 
Q 3050 2419 3304 2112 
Q 3559 1806 3559 1356 
Q 3559 666 3084 287 
Q 2609 -91 1734 -91 
Q 1441 -91 1130 -33 
Q 819 25 488 141 
L 488 750 
Q 750 597 1062 519 
Q 1375 441 1716 441 
Q 2309 441 2620 675 
Q 2931 909 2931 1356 
Q 2931 1769 2642 2001 
Q 2353 2234 1838 2234 
L 1294 2234 
L 1294 2753 
L 1863 2753 
Q 2328 2753 2575 2939 
Q 2822 3125 2822 3475 
Q 2822 3834 2567 4026 
Q 2313 4219 1838 4219 
Q 1578 4219 1281 4162 
Q 984 4106 628 3988 
L 628 4550 
Q 988 4650 1302 4700 
Q 1616 4750 1894 4750 
Q 2613 4750 3031 4423 
Q 3450 4097 3450 3541 
Q 3450 3153 3228 2886 
Q 3006 2619 2597 2516 
z
" transform="scale(0.015625)"/>
       </defs>
       <use xlink:href="#DejaVuSans-32"/>
       <use xlink:href="#DejaVuSans-30" transform="translate(63.623047 0)"/>
       <use xlink:href="#DejaVuSans-32" transform="translate(127.246094 0)"/>
       <use xlink:href="#DejaVuSans-33" transform="translate(190.869141 0)"/>
      </g>
     </g>
    </g>
    <g id="xtick_5">
     <g id="line2d_5">
      <g>
       <use xlink:href="#mb2c60ca48e" x="495.093965" y="224.28" style="stroke: #000000; stroke-width: 0.8"/>
      </g>
     </g>
     <g id="text_5">
      <!-- 2024 -->
      <g transform="translate(482.368965 238.878438) scale(0.1 -0.1)">
       <defs>
        <path id="DejaVuSans-34" d="M 2419 4116 
L 825 1625 
L 2419 1625 
L 2419 4116 
z
M 2253 4666 
L 3047 4666 
L 3047 1625 
L 3713 1625 
L 3713 1100 
L 3047 1100 
L 3047 0 
L 2419 0 
L 2419 1100 
L 313 1100 
L 313 1709 
L 2253 4666 
z
" transform="scale(0.015625)"/>
       </defs>
       <use xlink:href="#DejaVuSans-32"/>
       <use xlink:href="#DejaVuSans-30" transform="translate(63.623047 0)"/>
       <use xlink:href="#DejaVuSans-32" transform="translate(127.246094 0)"/>
       <use xlink:href="#DejaVuSans-34" transform="translate(190.869141 0)"/>
      </g>
     </g>
    </g>
    <g id="xtick_6">
     <g id="line2d_6">
      <g>
       <use xlink:href="#mb2c60ca48e" x="590.142678" y="224.28" style="stroke: #000000; stroke-width: 0.8"/>
      </g>
     </g>
     <g id="text_6">
      <!-- 2025 -->
      <g transform="translate(577.417678 238.878438) scale(0.1 -0.1)">
       <defs>
        <path id="DejaVuSans-35" d="M 691 4666 
L 3169 4666 
L 3169 4134 
L 1269 4134 
L 1269 2991 
Q 1406 3038 1543 3061 
Q 1681 3084 1819 3084 
Q 2600 3084 3056 2656 
Q 3513 2228 3513 1497 
Q 3513 744 3044 326 
Q 2575 -91 1722 -91 
Q 1428 -91 1123 -41 
Q 819 9 494 109 
L 494 744 
Q 775 591 1075 516 
Q 1375 441 1709 441 
Q 2250 441 2565 725 
Q 2881 1009 2881 1497 
Q 2881 1984 2565 2268 
Q 2250 2553 1709 2553 
Q 1456 2553 1204 2497 
Q 953 2441 691 2322 
L 691 4666 
z
" transform="scale(0.015625)"/>
       </defs>
       <use xlink:href="#DejaVuSans-32"/>
       <use xlink:href="#DejaVuSans-30" transform="translate(63.623047 0)"/>
       <use xlink:href="#DejaVuSans-32" transform="translate(127.246094 0)"/>
       <use xlink:href="#DejaVuSans-35" transform="translate(190.869141 0)"/>
      </g>
     </g>
    </g>
   </g>
   <g id="matplotlib.axis_2">
    <g id="ytick_1">
     <g id="line2d_7">
      <defs>
       <path id="m305aaef8e2" d="M 0 0 
L -3.5 0 
" style="stroke: #000000; stroke-width: 0.8"/>
      </defs>
      <g>
       <use xlink:href="#m305aaef8e2" x="94.5" y="220.300369" style="stroke: #000000; stroke-width: 0.8"/>
      </g>
     </g>
     <g id="text_7">
      <!-- 0 -->
      <g transform="translate(81.1375 224.099588) scale(0.1 -0.1)">
       <use xlink:href="#DejaVuSans-30"/>
      </g>
     </g>
    </g>
    <g id="ytick_2">
     <g id="line2d_8">
      <g>
       <use xlink:href="#m305aaef8e2" x="94.5" y="195.562385" style="stroke: #000000; stroke-width: 0.8"/>
      </g>
     </g>
     <g id="text_8">
      <!-- 25 -->
      <g transform="translate(74.775 199.361604) scale(0.1 -0.1)">
       <use xlink:href="#DejaVuSans-32"/>
       <use xlink:href="#DejaVuSans-35" transform="translate(63.623047 0)"/>
      </g>
     </g>
    </g>
    <g id="ytick_3">
     <g id="line2d_9">
      <g>
       <use xlink:href="#m305aaef8e2" x="94.5" y="170.824401" style="stroke: #000000; stroke-width: 0.8"/>
      </g>
     </g>
     <g id="text_9">
      <!-- 50 -->
      <g transform="translate(74.775 174.62362) scale(0.1 -0.1)">
       <use xlink:href="#DejaVuSans-35"/>
       <use xlink:href="#DejaVuSans-30" transform="translate(63.623047 0)"/>
      </g>
     </g>
    </g>
    <g id="ytick_4">
     <g id="line2d_10">
      <g>
       <use xlink:href="#m305aaef8e2" x="94.5" y="146.086417" style="stroke: #000000; stroke-width: 0.8"/>
      </g>
     </g>
     <g id="text_10">
      <!-- 75 -->
      <g transform="translate(74.775 149.885636) scale(0.1 -0.1)">
       <defs>
        <path id="DejaVuSans-37" d="M 525 4666 
L 3525 4666 
L 3525 4397 
L 1831 0 
L 1172 0 
L 2766 4134 
L 525 4134 
L 525 4666 
z
" transform="scale(0.015625)"/>
       </defs>
       <use xlink:href="#DejaVuSans-37"/>
       <use xlink:href="#DejaVuSans-35" transform="translate(63.623047 0)"/>
      </g>
     </g>
    </g>
    <g id="ytick_5">
     <g id="line2d_11">
      <g>
       <use xlink:href="#m305aaef8e2" x="94.5" y="121.348433" style="stroke: #000000; stroke-width: 0.8"/>
      </g>
     </g>
     <g id="text_11">
      <!-- 100 -->
      <g transform="translate(68.4125 125.147652) scale(0.1 -0.1)">
       <use xlink:href="#DejaVuSans-31"/>
       <use xlink:href="#DejaVuSans-30" transform="translate(63.623047 0)"/>
       <use xlink:href="#DejaVuSans-30" transform="translate(127.246094 0)"/>
      </g>
     </g>
    </g>
    <g id="ytick_6">
     <g id="line2d_12">
      <g>
       <use xlink:href="#m305aaef8e2" x="94.5" y="96.610449" style="stroke: #000000; stroke-width: 0.8"/>
      </g>
     </g>
     <g id="text_12">
      <!-- 125 -->
      <g transform="translate(68.4125 100.409668) scale(0.1 -0.1)">
       <use xlink:href="#DejaVuSans-31"/>
       <use xlink:href="#DejaVuSans-32" transform="translate(63.623047 0)"/>
       <use xlink:href="#DejaVuSans-35" transform="translate(127.246094 0)"/>
      </g>
     </g>
    </g>
    <g id="ytick_7">
     <g id="line2d_13">
      <g>
       <use xlink:href="#m305aaef8e2" x="94.5" y="71.872465" style="stroke: #000000; stroke-width: 0.8"/>
      </g>
     </g>
     <g id="text_13">
      <!-- 150 -->
      <g transform="translate(68.4125 75.671684) scale(0.1 -0.1)">
       <use xlink:href="#DejaVuSans-31"/>
       <use xlink:href="#DejaVuSans-35" transform="translate(63.623047 0)"/>
       <use xlink:href="#DejaVuSans-30" transform="translate(127.246094 0)"/>
      </g>
     </g>
    </g>
    <g id="ytick_8">
     <g id="line2d_14">
      <g>
       <use xlink:href="#m305aaef8e2" x="94.5" y="47.134482" style="stroke: #000000; stroke-width: 0.8"/>
      </g>
     </g>
     <g id="text_14">
      <!-- 175 -->
      <g transform="translate(68.4125 50.9337) scale(0.1 -0.1)">
       <use xlink:href="#DejaVuSans-31"/>
       <use xlink:href="#DejaVuSans-37" transform="translate(63.623047 0)"/>
       <use xlink:href="#DejaVuSans-35" transform="translate(127.246094 0)"/>
      </g>
     </g>
    </g>
   </g>
   <g id="line2d_15">
    <path d="M 121.131818 214.139978 
L 121.391514 214.072242 
L 122.430298 214.384067 
L 122.689994 214.192686 
L 123.469082 214.476924 
L 124.248169 214.380864 
L 124.767561 214.123966 
L 125.027257 214.038005 
L 125.286953 214.103522 
L 126.845129 213.63086 
L 127.104825 213.16263 
L 128.143608 212.995633 
L 128.403304 212.549078 
L 128.663 212.696862 
L 128.922696 213.057209 
L 129.96148 213.845885 
L 130.221176 213.707955 
L 130.480872 214.074924 
L 130.740568 213.644368 
L 131.519656 213.487623 
L 131.779352 213.747386 
L 132.039047 213.288487 
L 132.558439 213.74369 
L 133.337527 214.251385 
L 133.597223 213.86593 
L 133.856919 214.226001 
L 134.116615 214.969309 
L 134.376311 214.364756 
L 135.155399 215.46 
L 135.415095 214.945649 
L 135.674791 215.301776 
L 135.934487 215.051625 
L 136.194182 215.229564 
L 136.97327 215.058526 
L 137.232966 214.159212 
L 137.492662 214.246949 
L 137.752358 213.96057 
L 138.012054 214.071721 
L 138.791142 213.75478 
L 139.050838 213.803824 
L 139.310534 214.309796 
L 139.57023 214.00419 
L 139.829926 214.289093 
L 140.609013 213.685526 
L 140.868709 213.916455 
L 141.128405 213.721262 
L 141.388101 213.819844 
L 142.426885 213.64979 
L 142.686581 213.302289 
L 142.946277 213.378936 
L 143.205973 213.03735 
L 144.244756 213.225888 
L 144.504452 213.65817 
L 144.764148 213.248068 
L 145.023844 213.300811 
L 145.28354 213.163288 
L 146.062628 212.978694 
L 146.322324 213.119666 
L 146.58202 212.944684 
L 147.101412 213.331124 
L 148.399891 212.961196 
L 148.919283 212.598661 
L 149.698371 212.34925 
L 149.958067 212.608519 
L 150.217763 212.6307 
L 150.477459 212.383754 
L 150.737155 211.930029 
L 152.035635 211.457577 
L 152.29533 211.649564 
L 152.555026 211.402123 
L 154.113202 211.933727 
L 154.372898 211.550735 
L 155.931074 211.654244 
L 156.190769 211.502854 
L 156.969857 211.616271 
L 157.489249 211.062239 
L 157.748945 211.624905 
L 158.008641 211.490524 
L 158.787729 211.252588 
L 159.047425 211.356393 
L 159.307121 211.191193 
L 159.826513 211.16629 
L 160.6056 210.904435 
L 160.865296 210.980133 
L 161.124992 211.191685 
L 161.384688 210.940682 
L 161.644384 211.271081 
L 162.423472 211.226698 
L 162.683168 210.933037 
L 163.20256 210.820109 
L 164.501039 210.564172 
L 165.020431 209.935672 
L 165.280127 209.965015 
L 166.059215 210.386153 
L 166.318911 210.065861 
L 166.838303 210.304784 
L 167.877087 209.933946 
L 168.136783 210.113695 
L 168.396478 210.004958 
L 168.656174 210.309718 
L 169.694958 210.021972 
L 169.954654 210.225143 
L 170.474046 209.832112 
L 170.733742 209.831374 
L 172.291917 209.120524 
L 172.551613 209.254654 
L 173.330701 209.288682 
L 173.590397 209.599355 
L 173.850093 209.017209 
L 174.109789 209.0145 
L 174.369485 208.895158 
L 175.148573 208.132774 
L 175.927661 208.326085 
L 176.187357 207.791031 
L 177.485836 207.70276 
L 177.745532 207.845522 
L 178.005228 207.333158 
L 178.784316 207.109518 
L 179.303708 206.146636 
L 179.563404 207.459752 
L 179.8231 207.847468 
L 180.861883 208.547436 
L 181.121579 207.756211 
L 181.381275 208.154046 
L 181.640971 208.299316 
L 182.679755 207.48392 
L 182.939451 207.954021 
L 183.199147 208.004335 
L 183.458843 208.2749 
L 184.497626 207.832426 
L 184.757322 208.339519 
L 185.017018 208.118283 
L 185.276714 207.599598 
L 186.055802 207.440513 
L 186.83489 206.868801 
L 187.094586 207.413628 
L 188.393065 206.523997 
L 188.912457 206.72254 
L 189.691545 206.265515 
L 189.951241 206.243562 
L 190.730329 206.674449 
L 191.509417 206.983981 
L 191.769113 206.838215 
L 192.288504 207.118892 
L 192.5482 206.892723 
L 193.327288 207.335691 
L 193.586984 207.083624 
L 193.84668 207.843033 
L 194.106376 207.451366 
L 194.366072 207.934781 
L 195.14516 207.888658 
L 195.404856 207.455807 
L 195.664552 206.691465 
L 196.183944 205.934028 
L 196.963031 206.852769 
L 197.222727 207.701948 
L 197.482423 207.062661 
L 197.742119 207.024431 
L 198.001815 207.182032 
L 198.780903 206.966714 
L 199.300295 207.052054 
L 199.559991 207.040709 
L 199.819687 207.388473 
L 200.598774 207.336923 
L 200.85847 207.516725 
L 201.118166 207.243447 
L 202.676342 207.090282 
L 202.936038 206.937856 
L 203.195734 207.08046 
L 203.45543 206.920343 
L 204.234518 206.87248 
L 204.494213 207.125854 
L 204.753909 207.539595 
L 205.273301 207.458178 
L 206.312085 207.115492 
L 206.571781 207.23194 
L 206.831477 207.134491 
L 207.091173 207.202828 
L 208.129957 207.196662 
L 208.389652 207.462125 
L 209.947828 207.527259 
L 210.207524 207.327419 
L 210.46722 207.416976 
L 211.506004 207.359244 
L 211.7657 207.071825 
L 212.025396 207.851687 
L 212.285092 207.131776 
L 212.544787 207.198141 
L 213.323875 206.857924 
L 213.583571 206.992877 
L 213.843267 206.946495 
L 214.362659 207.609906 
L 215.401443 207.446336 
L 215.920835 206.615158 
L 216.180531 206.768119 
L 216.959618 206.826594 
L 217.219314 207.041725 
L 217.47901 207.552422 
L 217.738706 207.420923 
L 217.998402 207.481369 
L 218.77749 207.237368 
L 219.037186 206.921821 
L 219.296882 206.947728 
L 219.556578 206.815738 
L 219.816274 206.888023 
L 220.595361 206.051416 
L 220.855057 206.224609 
L 221.374449 205.250091 
L 221.634145 205.535785 
L 222.672929 205.171636 
L 222.932625 205.590308 
L 223.192321 205.666295 
L 223.452017 205.570079 
L 224.4908 206.344264 
L 224.750496 205.991958 
L 225.010192 207.167795 
L 225.269888 206.766144 
L 226.048976 206.640566 
L 226.828064 208.092725 
L 227.08776 208.002676 
L 227.866848 208.859511 
L 228.126544 207.940432 
L 228.38624 207.991765 
L 228.645935 207.473242 
L 228.905631 207.608983 
L 230.204111 207.129946 
L 230.463807 207.740773 
L 231.502591 207.282961 
L 231.762287 207.396982 
L 232.021983 207.819255 
L 232.281679 207.925625 
L 232.541374 207.625519 
L 233.580158 207.593432 
L 234.09955 206.665471 
L 235.138334 206.491971 
L 235.39803 206.616357 
L 235.917422 206.166687 
L 236.177118 206.084752 
L 236.956205 205.286111 
L 237.215901 204.821636 
L 237.475597 205.218979 
L 237.735293 204.369745 
L 238.774077 205.135316 
L 239.033773 205.323378 
L 239.293469 205.136547 
L 239.553165 205.640266 
L 239.812861 205.230579 
L 240.591948 205.020554 
L 241.11134 205.219227 
L 241.371036 205.171843 
L 241.630732 205.483056 
L 242.40982 205.653595 
L 242.669516 206.132878 
L 243.188908 205.963328 
L 243.448604 205.677779 
L 244.227692 206.217283 
L 244.487388 206.1773 
L 244.747083 206.718039 
L 245.006779 206.810095 
L 245.266475 206.23974 
L 246.045563 206.316249 
L 246.305259 206.464081 
L 246.564955 206.414721 
L 247.084347 205.50058 
L 247.863435 204.88827 
L 248.382827 204.801396 
L 248.642522 205.010681 
L 248.902218 204.26387 
L 249.941002 204.244126 
L 250.200698 203.736955 
L 250.460394 203.547906 
L 250.72009 202.947196 
L 251.499178 202.906968 
L 252.01857 203.160452 
L 252.278266 203.094542 
L 252.537962 202.699325 
L 253.317049 202.50826 
L 253.576745 202.735613 
L 253.836441 202.714137 
L 254.096137 201.87779 
L 254.355833 201.89606 
L 255.134921 202.1049 
L 255.394617 201.651182 
L 255.914009 201.336441 
L 256.173705 201.508742 
L 256.952792 200.566742 
L 257.73188 200.342596 
L 257.991576 200.07106 
L 259.03036 199.862214 
L 259.549752 200.647961 
L 260.588536 200.045878 
L 261.107927 200.708436 
L 261.627319 202.367803 
L 262.406407 201.756829 
L 262.666103 201.922473 
L 262.925799 201.134512 
L 263.185495 200.952822 
L 263.445191 200.988372 
L 264.483975 201.33397 
L 265.003366 200.885679 
L 265.263062 201.046624 
L 266.301846 200.734604 
L 266.821238 199.922942 
L 267.080934 200.190535 
L 267.860022 200.260643 
L 268.379414 200.849144 
L 268.898805 200.366301 
L 269.677893 200.601302 
L 270.197285 201.499856 
L 270.716677 199.746192 
L 271.495765 198.61856 
L 271.755461 198.781482 
L 272.015157 198.366766 
L 272.274853 198.509944 
L 272.534549 197.949086 
L 273.313636 197.89774 
L 273.573332 198.193032 
L 274.092724 198.182169 
L 274.35242 197.740714 
L 275.391204 197.919469 
L 275.910596 198.398454 
L 276.170292 198.101186 
L 276.949379 198.423141 
L 277.468771 198.236491 
L 277.728467 198.334252 
L 277.988163 198.672019 
L 278.767251 199.44925 
L 279.026947 199.317907 
L 279.546339 198.097234 
L 279.806035 198.493264 
L 280.585123 198.909039 
L 280.844818 199.858116 
L 281.104514 200.037861 
L 281.36421 199.841334 
L 281.623906 199.815649 
L 282.402994 200.813124 
L 282.66269 200.103039 
L 283.182082 199.486784 
L 283.441778 199.727759 
L 284.480562 199.885774 
L 284.740258 199.621094 
L 284.999953 198.824106 
L 286.298433 198.286855 
L 286.558129 198.471533 
L 286.817825 197.889841 
L 287.077521 197.85626 
L 287.856609 197.42172 
L 288.116305 195.889955 
L 288.376001 196.152658 
L 288.895392 195.050501 
L 289.67448 194.793726 
L 289.934176 194.226849 
L 290.193872 194.032292 
L 290.453568 190.869019 
L 290.713264 190.917413 
L 291.492352 189.878454 
L 291.752048 190.023641 
L 292.011744 191.206779 
L 292.27144 190.287326 
L 292.531136 190.287326 
L 293.310223 190.647798 
L 293.569919 190.472008 
L 293.829615 191.402319 
L 294.089311 189.018268 
L 294.349007 187.724518 
L 295.387791 188.948149 
L 295.647487 188.031659 
L 296.166879 189.188132 
L 296.945966 187.33836 
L 297.205662 188.029681 
L 297.465358 189.251493 
L 297.725054 188.568971 
L 297.98475 189.984369 
L 298.763838 190.632314 
L 299.023534 188.271674 
L 299.28323 188.865292 
L 299.542926 190.184878 
L 299.802622 190.473293 
L 300.58171 192.485274 
L 300.841406 192.311437 
L 301.101101 190.215501 
L 301.360797 192.262046 
L 301.620493 192.840852 
L 302.399581 192.921846 
L 302.659277 191.582497 
L 304.217453 189.73547 
L 304.477149 190.350813 
L 305.256236 191.250628 
L 306.035324 190.54935 
L 306.29502 191.370137 
L 306.554716 193.035429 
L 306.814412 192.468484 
L 307.074108 193.388048 
L 307.853196 193.236925 
L 308.112892 192.825047 
L 308.372588 192.645284 
L 308.632284 194.051792 
L 308.89198 193.689299 
L 309.930763 194.715539 
L 310.709851 197.213473 
L 311.488939 197.215449 
L 311.748635 198.250574 
L 312.008331 197.808077 
L 312.268027 198.625907 
L 312.527723 197.740916 
L 313.30681 196.11513 
L 313.566506 195.965 
L 313.826202 195.368417 
L 314.085898 196.646521 
L 314.345594 196.280079 
L 315.124682 195.876107 
L 315.384378 195.500774 
L 315.644074 193.92339 
L 315.90377 194.793566 
L 316.163466 196.645534 
L 316.942554 196.331442 
L 317.202249 194.13081 
L 317.461945 194.115008 
L 317.721641 196.09439 
L 317.981337 196.948765 
L 319.020121 197.197668 
L 319.279817 198.18835 
L 319.539513 196.844066 
L 319.799209 196.44009 
L 320.578297 196.21489 
L 320.837993 197.111736 
L 321.097688 196.373791 
L 321.357384 196.873657 
L 321.61708 197.642233 
L 322.396168 199.207042 
L 322.655864 199.047007 
L 322.91556 197.565178 
L 323.175256 197.916865 
L 323.434952 198.468105 
L 324.21404 199.228777 
L 324.733432 196.10113 
L 324.993128 195.834402 
L 325.252823 194.167844 
L 326.031911 193.890248 
L 326.291607 194.097697 
L 326.551303 194.976919 
L 326.810999 192.4914 
L 327.070695 192.943853 
L 327.849783 192.423236 
L 328.109479 191.991531 
L 328.369175 192.945831 
L 328.888567 193.911981 
L 329.667654 193.271826 
L 330.187046 196.189054 
L 330.446742 196.385643 
L 330.706438 197.461449 
L 331.745222 199.056886 
L 332.004918 198.366354 
L 332.264614 199.299904 
L 333.303397 198.781267 
L 333.563093 198.371293 
L 333.822789 199.07862 
L 334.082485 200.361883 
L 334.342181 201.021788 
L 335.121269 200.639479 
L 335.380965 201.739983 
L 335.640661 202.108461 
L 335.900357 200.758022 
L 336.160053 201.978063 
L 336.939141 201.004007 
L 337.198836 200.935843 
L 337.458532 200.21271 
L 337.718228 201.68466 
L 337.977924 201.851616 
L 338.757012 203.555712 
L 339.016708 202.91853 
L 339.276404 203.871839 
L 339.5361 204.321325 
L 339.795796 202.808877 
L 340.574884 203.245521 
L 340.83458 202.343579 
L 341.094276 203.56757 
L 341.353971 203.383821 
L 341.613667 203.808612 
L 342.392755 203.607082 
L 342.652451 204.34207 
L 343.431539 201.717261 
L 344.470323 201.854577 
L 344.730019 202.202312 
L 344.989715 200.945724 
L 345.24941 201.807158 
L 346.028498 201.741959 
L 346.288194 201.603657 
L 346.54789 201.874393 
L 346.807586 202.467246 
L 347.067282 203.528459 
L 347.84637 204.839661 
L 348.106066 204.652911 
L 348.365762 203.970136 
L 348.625458 204.885113 
L 348.885154 204.609434 
L 349.923937 203.931602 
L 350.443329 204.268541 
L 350.703025 203.37827 
L 351.482113 203.63221 
L 351.741809 204.508649 
L 352.520897 205.95028 
L 353.819376 205.350506 
L 354.079072 204.631172 
L 354.338768 204.650935 
L 355.117856 205.328766 
L 355.377552 205.397934 
L 355.637248 205.316912 
L 355.896944 205.111386 
L 356.15664 204.726028 
L 356.935728 204.391068 
L 357.455119 202.70538 
L 357.714815 202.465268 
L 357.974511 203.18757 
L 358.753599 203.479057 
L 359.013295 203.964206 
L 359.272991 202.722175 
L 359.792383 202.353612 
L 360.831167 201.99494 
L 361.350558 201.314142 
L 361.610254 201.537448 
L 362.389342 202.71921 
L 362.649038 203.417793 
L 362.908734 202.418833 
L 363.16843 202.571987 
L 363.428126 201.814118 
L 364.207214 201.494962 
L 364.46691 201.646141 
L 364.726606 202.183665 
L 364.986302 201.750878 
L 365.245998 202.663873 
L 366.025085 203.469173 
L 366.544477 203.28341 
L 366.804173 202.600639 
L 367.063869 204.233961 
L 367.842957 204.687494 
L 368.362349 205.38608 
L 368.622045 206.529302 
L 368.881741 206.815849 
L 369.920524 206.995683 
L 370.439916 206.472827 
L 370.699612 206.080436 
L 371.4787 205.963807 
L 371.738396 207.321851 
L 371.998092 207.324813 
L 372.257788 207.521504 
L 372.517484 207.255629 
L 373.296572 207.073766 
L 373.556267 207.277372 
L 373.815963 207.19336 
L 374.075659 207.885232 
L 374.335355 207.929708 
L 375.114443 208.214365 
L 375.374139 208.031512 
L 375.633835 207.712262 
L 375.893531 208.222272 
L 376.153227 208.302332 
L 376.932315 207.933662 
L 377.192011 207.28627 
L 377.451706 207.244756 
L 377.711402 207.322838 
L 377.971098 208.364597 
L 379.269578 208.933911 
L 379.529274 208.479253 
L 379.78897 209.203741 
L 380.827754 208.472332 
L 381.347146 208.247969 
L 381.606841 207.979129 
L 382.385929 207.847671 
L 382.645625 207.19336 
L 382.905321 207.554121 
L 383.165017 207.277372 
L 383.424713 206.627013 
L 384.203801 206.9601 
L 384.463497 206.914633 
L 384.723193 207.234874 
L 384.982889 207.035219 
L 385.242585 206.308755 
L 386.021672 206.165435 
L 386.281368 205.867932 
L 386.541064 206.684341 
L 386.80076 204.733264 
L 387.060456 204.162964 
L 387.839544 204.194588 
L 388.09924 203.827896 
L 388.358936 204.57512 
L 388.878328 205.070303 
L 389.657415 205.161234 
L 390.176807 203.973194 
L 391.475287 204.657156 
L 391.734983 204.842975 
L 391.994679 203.569609 
L 392.254375 203.36001 
L 392.514071 203.616072 
L 393.293159 203.87905 
L 393.552854 204.494972 
L 393.81255 204.363483 
L 394.072246 203.3264 
L 394.331942 203.492489 
L 395.11103 202.964557 
L 395.370726 202.433653 
L 395.630422 202.827135 
L 395.890118 203.540936 
L 396.149814 203.917607 
L 397.188598 204.398085 
L 397.448294 203.986813 
L 397.707989 205.135611 
L 397.967685 205.267101 
L 399.006469 206.339773 
L 399.266165 206.42381 
L 399.525861 205.863252 
L 399.785557 205.852376 
L 400.824341 206.147981 
L 401.084037 205.71891 
L 401.343733 206.197411 
L 401.603428 205.610158 
L 403.161604 203.976927 
L 403.4213 203.593333 
L 404.460084 202.799453 
L 404.71978 203.120759 
L 404.979476 203.72581 
L 405.239172 202.664009 
L 406.018259 201.32539 
L 406.537651 201.196867 
L 407.057043 200.166705 
L 407.836131 201.356039 
L 408.095827 200.985296 
L 408.355523 199.595272 
L 408.615219 198.837973 
L 408.874915 199.440055 
L 409.654002 199.450925 
L 409.913698 198.379241 
L 410.43309 198.217106 
L 410.692786 199.276933 
L 411.471874 198.759868 
L 411.73157 197.590308 
L 411.991266 197.794956 
L 412.510658 199.155325 
L 413.549442 199.879999 
L 413.809137 199.782122 
L 414.068833 196.90518 
L 414.328529 197.278886 
L 415.107617 197.06633 
L 415.367313 197.348092 
L 415.627009 197.860206 
L 416.146401 196.681745 
L 416.925489 197.013928 
L 417.185185 197.272996 
L 417.444881 196.38999 
L 417.964272 197.592384 
L 418.74336 197.591395 
L 419.003056 196.506674 
L 419.262752 196.343517 
L 419.522448 195.045211 
L 419.782144 194.863272 
L 420.561232 194.690229 
L 421.080624 194.128587 
L 421.34032 193.413678 
L 421.600016 193.821067 
L 422.638799 194.185934 
L 423.158191 193.223827 
L 423.417887 192.834237 
L 424.196975 192.648339 
L 424.716367 193.720206 
L 426.014846 193.030024 
L 426.274542 193.435432 
L 426.534238 194.101889 
L 426.793934 194.133532 
L 427.05363 193.841833 
L 427.832718 193.600563 
L 428.092414 192.943007 
L 428.35211 192.681963 
L 428.611806 193.499702 
L 428.871502 193.484873 
L 429.65059 193.561013 
L 429.910285 194.353047 
L 430.169981 193.646052 
L 430.429677 193.379072 
L 430.689373 192.861922 
L 431.468461 191.713918 
L 431.987853 192.809516 
L 432.247549 193.046833 
L 432.507245 191.941341 
L 433.286333 191.475614 
L 433.546029 192.04912 
L 433.805724 191.738637 
L 434.325116 192.277538 
L 435.3639 191.414307 
L 435.623596 190.460106 
L 435.883292 188.976897 
L 436.142988 189.386261 
L 436.922076 189.473274 
L 437.181772 189.955813 
L 437.441468 190.104135 
L 437.701164 182.745432 
L 437.960859 181.790236 
L 438.999643 180.638276 
L 439.259339 182.889793 
L 439.519035 180.97546 
L 439.778731 181.413497 
L 440.557819 181.567747 
L 440.817515 182.078965 
L 441.077211 183.240939 
L 441.336907 182.21741 
L 442.37569 181.256193 
L 442.895082 177.78017 
L 443.154778 178.120355 
L 443.414474 178.081792 
L 444.453258 176.978167 
L 444.712954 177.732707 
L 444.97265 177.752482 
L 445.232346 178.55943 
L 446.011433 180.118943 
L 446.271129 178.888744 
L 446.530825 179.63932 
L 446.790521 179.931053 
L 447.050217 178.46747 
L 447.829305 178.357698 
L 448.348697 178.452632 
L 448.608393 178.664258 
L 448.868089 178.268694 
L 449.647177 178.588114 
L 449.906872 178.36561 
L 450.426264 174.833218 
L 450.68596 175.335588 
L 451.465048 174.354584 
L 451.724744 173.33304 
L 451.98444 173.745424 
L 452.503832 176.482724 
L 453.28292 176.183076 
L 453.542616 175.12791 
L 453.802312 175.3524 
L 454.062007 174.909358 
L 454.321703 174.068789 
L 455.100791 174.089558 
L 455.360487 174.309095 
L 455.620183 176.522276 
L 456.918663 175.387003 
L 457.178359 176.131657 
L 457.438055 178.218256 
L 457.697751 178.382418 
L 457.957446 179.89842 
L 458.736534 177.032561 
L 458.99623 176.847626 
L 459.255926 177.296595 
L 459.775318 177.481526 
L 460.554406 173.854196 
L 460.814102 175.138789 
L 461.073798 173.706843 
L 461.333494 173.660368 
L 461.59319 174.79267 
L 462.372277 173.98473 
L 462.631973 172.057348 
L 462.891669 171.582674 
L 463.151365 171.492681 
L 463.411061 172.329298 
L 464.449845 172.290724 
L 464.709541 173.757401 
L 465.228933 175.230016 
L 466.00802 175.619677 
L 466.267716 175.924289 
L 466.527412 175.316054 
L 466.787108 175.221108 
L 467.046804 176.883607 
L 467.825892 176.818342 
L 468.085588 177.259429 
L 468.60498 179.734877 
L 468.864676 179.148403 
L 469.643764 178.543138 
L 469.90346 178.850717 
L 470.682547 177.280197 
L 471.461635 176.011315 
L 471.721331 177.262399 
L 472.240723 176.104282 
L 472.500419 175.042104 
L 473.279507 175.525724 
L 473.539203 175.0065 
L 473.798899 174.009594 
L 474.058594 173.872134 
L 474.31829 175.339793 
L 475.097378 174.712771 
L 475.61677 178.568852 
L 475.876466 178.662804 
L 476.136162 179.368948 
L 477.174946 177.118001 
L 477.694338 180.418267 
L 477.954034 180.246181 
L 478.733121 179.592457 
L 478.992817 179.969264 
L 479.771905 175.790773 
L 480.810689 174.851227 
L 481.330081 173.867185 
L 481.589777 172.497435 
L 482.368864 172.215569 
L 482.62856 171.190968 
L 482.888256 171.950516 
L 483.147952 171.365027 
L 483.407648 171.545025 
L 484.186736 170.446254 
L 484.446432 170.906143 
L 484.706128 172.12062 
L 485.22552 173.050276 
L 486.004608 172.589406 
L 486.264303 173.005772 
L 486.523999 172.690278 
L 486.783695 174.045201 
L 487.043391 174.050146 
L 487.822479 175.291333 
L 488.082175 174.242902 
L 488.341871 175.2943 
L 488.861263 173.31317 
L 489.640351 174.18257 
L 489.900047 173.16382 
L 491.458222 170.770249 
L 491.717918 171.238087 
L 491.977614 172.714783 
L 492.23731 171.845375 
L 492.497006 172.00363 
L 494.314877 171.319187 
L 495.353661 172.658404 
L 495.613357 173.250865 
L 495.873053 172.826541 
L 497.431229 166.543914 
L 497.690925 166.077072 
L 497.950621 166.187852 
L 498.989404 164.534104 
L 499.2491 164.859511 
L 499.508796 163.817021 
L 499.768492 161.459057 
L 500.54758 161.297839 
L 500.807276 161.081227 
L 501.066972 159.608491 
L 501.326668 159.356275 
L 501.586364 159.935876 
L 502.625147 158.21191 
L 502.884843 159.445295 
L 503.144539 157.961672 
L 503.404235 154.862883 
L 504.183323 151.725527 
L 504.443019 152.822414 
L 504.702715 150.966915 
L 504.962411 151.419911 
L 505.222107 148.955104 
L 506.001195 148.841372 
L 506.26089 148.960056 
L 506.520586 147.20741 
L 506.780282 148.435861 
L 507.039978 148.480365 
L 508.078762 151.606842 
L 508.338458 153.565211 
L 508.598154 142.620065 
L 508.85785 142.34411 
L 509.636938 142.072112 
L 509.896634 142.458854 
L 510.15633 143.485509 
L 510.416025 142.05234 
L 510.675721 138.919929 
L 511.714505 135.271174 
L 511.974201 132.564929 
L 512.233897 128.639095 
L 512.493593 133.724174 
L 513.272681 135.459102 
L 513.532377 129.386859 
L 513.792073 130.400717 
L 514.051769 133.312708 
L 514.311464 133.418551 
L 515.090552 132.807266 
L 515.86964 129.859672 
L 516.129336 127.036697 
L 516.908424 126.33146 
L 517.427816 131.03179 
L 517.687512 130.926936 
L 518.726295 130.920013 
L 518.985991 131.821106 
L 519.245687 132.303801 
L 519.505383 135.329539 
L 519.765079 133.249406 
L 520.544167 134.114888 
L 520.803863 135.874555 
L 521.063559 134.207867 
L 521.323255 130.669764 
L 521.582951 133.073338 
L 522.362038 135.234582 
L 522.621734 133.835951 
L 522.88143 137.179203 
L 523.141126 136.550109 
L 523.400822 144.928991 
L 524.17991 141.647078 
L 524.439606 138.773666 
L 524.699302 141.489801 
L 524.958998 138.56694 
L 525.218694 133.519426 
L 525.997782 133.497676 
L 526.257478 134.837935 
L 526.517173 138.162396 
L 527.036565 132.476895 
L 527.815653 129.162339 
L 528.075349 130.731088 
L 528.335045 130.871545 
L 528.594741 132.518439 
L 528.854437 131.399742 
L 529.633525 130.884402 
L 529.893221 129.937801 
L 530.152917 126.699419 
L 530.412612 126.967469 
L 530.672308 128.82703 
L 531.711092 125.951632 
L 531.970788 126.382886 
L 532.230484 117.630111 
L 532.49018 114.989153 
L 533.528964 107.637967 
L 533.78866 106.724025 
L 534.048356 111.001987 
L 534.308052 111.859558 
L 535.346835 105.12954 
L 535.606531 99.191827 
L 535.866227 100.618149 
L 536.125923 100.726944 
L 536.905011 99.83476 
L 537.164707 100.695365 
L 537.684099 92.089275 
L 537.943795 89.843756 
L 538.722882 90.734046 
L 538.982578 86.1837 
L 539.50197 90.931886 
L 539.761666 95.096463 
L 540.540754 103.465146 
L 540.80045 95.571277 
L 541.060146 95.264619 
L 541.319842 97.648617 
L 541.579538 98.093747 
L 542.358626 97.341952 
L 542.618321 98.954367 
L 542.878017 93.404915 
L 543.397409 95.828471 
L 544.176497 93.484063 
L 544.695889 86.846465 
L 544.955585 94.27541 
L 545.215281 92.455256 
L 545.994369 93.246633 
L 546.254065 95.304194 
L 546.51376 103.583854 
L 546.773456 100.517319 
L 547.033152 103.6432 
L 547.81224 98.093747 
L 548.071936 99.033508 
L 548.331632 107.283491 
L 548.591328 109.232227 
L 548.851024 108.460652 
L 549.630112 109.914778 
L 549.889808 117.68994 
L 550.149504 104.543394 
L 550.4092 112.269084 
L 550.668895 114.188158 
L 551.447983 120.934543 
L 551.707679 117.175559 
L 551.967375 122.457913 
L 552.227071 116.463323 
L 552.486767 116.680951 
L 553.265855 112.457035 
L 553.525551 105.413889 
L 553.785247 103.494823 
L 554.044943 98.766409 
L 555.083726 91.703469 
L 555.343422 94.423801 
L 555.603118 93.18728 
L 555.862814 97.895914 
L 556.12251 92.326689 
L 556.901598 95.205273 
L 557.161294 93.38512 
L 557.42099 96.046091 
L 557.680686 103.979535 
L 557.940382 102.218742 
L 559.238861 115.236714 
L 559.498557 114.247504 
L 559.758253 118.580222 
L 560.797037 113.367112 
L 561.056733 104.652197 
L 561.316429 102.436181 
L 561.576125 102.475755 
L 562.355213 104.770911 
L 562.614908 105.94817 
L 562.874604 108.144398 
L 563.1343 103.692581 
L 563.393996 105.542554 
L 564.173084 105.285337 
L 564.692476 98.112975 
L 564.952172 97.588652 
L 565.211868 100.200379 
L 565.990956 100.160812 
L 566.250652 104.553261 
L 566.510348 102.723082 
L 566.770043 98.765911 
L 567.029739 96.718082 
L 567.808827 93.948059 
L 568.068523 88.833431 
L 568.328219 89.070875 
L 568.587915 86.933993 
L 568.847611 86.943868 
L 569.626699 83.708875 
L 569.886395 90.109602 
L 570.146091 86.033738 
L 570.665482 83.778149 
L 571.44457 78.129285 
L 571.704266 78.247992 
L 571.963962 82.234848 
L 572.483354 80.276057 
L 573.262442 81.285114 
L 573.522138 80.562951 
L 573.781834 82.452498 
L 574.04153 88.962028 
L 574.301226 86.350301 
L 575.080313 85.707255 
L 575.340009 81.888601 
L 575.859401 73.014634 
L 576.119097 74.251277 
L 576.898185 76.595904 
L 577.157881 73.598357 
L 577.417577 75.596707 
L 577.677273 75.111973 
L 577.936969 79.840772 
L 578.716056 81.651186 
L 578.975752 74.864638 
L 579.235448 75.972638 
L 579.495144 75.200981 
L 579.75484 79.870456 
L 580.533928 85.73694 
L 580.793624 84.846575 
L 581.05332 86.40967 
L 581.572712 83.530814 
L 582.3518 83.154898 
L 582.611496 81.542339 
L 582.871191 76.714597 
L 583.130887 76.783855 
L 583.390583 79.375983 
L 584.169671 82.96737 
L 584.429367 86.667558 
L 584.689063 82.472686 
L 584.948759 84.421723 
L 585.208455 87.478836 
L 585.987543 89.704907 
L 586.506935 92.76202 
L 586.76663 91.010868 
L 587.026326 87.033631 
L 587.805414 82.116518 
L 588.06511 81.572355 
L 588.584502 81.859279 
L 588.844198 84.748206 
L 589.623286 84.273316 
L 589.882982 87.439262 
L 590.402374 83.462039 
L 590.66207 77.367577 
L 591.441157 72.46037 
L 591.700853 81.651519 
L 591.960549 81.681188 
L 592.479941 85.836487 
L 593.259029 88.487984 
L 593.518725 89.942352 
L 593.778421 85.510004 
L 594.038117 88.151596 
L 594.297813 84.055651 
L 595.336596 80.968853 
L 595.596292 74.795229 
L 595.855988 74.646837 
L 596.115684 79.197907 
L 596.894772 103.140407 
L 597.154468 92.682857 
L 597.414164 97.916584 
L 597.67386 96.976687 
L 597.933556 101.507956 
L 598.712643 104.881669 
L 598.972339 102.912845 
L 599.491731 92.98959 
L 600.530515 88.151596 
L 600.790211 88.913394 
L 601.049907 90.555743 
L 601.569299 82.92778 
L 602.608083 82.383632 
L 602.867778 82.551834 
L 603.127474 81.681188 
L 603.38717 87.30076 
L 604.166258 91.406595 
L 604.425954 95.017753 
L 604.68565 90.417226 
L 604.945346 101.4288 
L 605.205042 96.709566 
L 605.98413 107.45401 
L 606.503522 104.248483 
L 606.763217 110.906872 
L 607.022913 108.809428 
L 607.802001 114.458677 
L 608.061697 112.697613 
L 608.321393 105.78135 
L 608.581089 105.939662 
L 608.840785 99.913908 
L 609.619873 102.031335 
L 609.879569 106.088084 
L 610.139265 104.020135 
L 610.398961 103.020787 
L 610.658657 103.842029 
L 611.437744 100.171162 
L 611.69744 100.883565 
L 611.957136 107.740458 
L 612.476528 111.787317 
L 613.255616 113.063708 
L 613.515312 111.312382 
L 613.775008 111.045231 
L 614.2944 126.985278 
L 615.073487 123.690411 
L 615.333183 125.016265 
L 615.592879 107.176478 
L 615.852575 113.865163 
L 616.112271 110.540611 
L 616.891359 110.758292 
L 617.151055 109.284008 
L 617.410751 116.912673 
L 617.670447 119.881027 
L 618.709231 124.412703 
L 618.968926 122.453595 
L 619.748014 110.461448 
L 620.527102 112.7174 
L 620.786798 112.430461 
L 621.046494 112.529404 
L 621.565886 107.008269 
L 622.60467 107.958139 
L 622.864365 104.475276 
L 623.124061 104.168542 
L 623.383757 104.880952 
L 624.162845 98.597936 
L 624.682237 86.388124 
L 624.941933 86.892743 
L 625.201629 86.328755 
L 625.980717 86.160539 
L 626.240413 87.337993 
L 626.500109 89.890774 
L 626.759805 88.871631 
L 627.0195 90.395393 
L 628.058284 86.229812 
L 628.31798 86.912523 
L 628.577676 82.578725 
L 628.837372 86.595899 
L 629.61646 84.369632 
L 629.876156 80.570153 
L 630.135852 79.877538 
L 630.395548 81.787167 
L 630.655244 80.075423 
L 631.434331 79.175017 
L 631.694027 77.859045 
L 631.953723 78.967317 
L 632.213419 76.820062 
L 632.473115 79.818305 
L 633.252203 77.126811 
L 633.511899 77.690844 
L 633.771595 76.345097 
L 634.290987 77.958003 
L 635.070074 77.641365 
L 635.32977 73.950462 
L 635.589466 67.607639 
L 635.849162 66.905074 
L 636.108858 64.20369 
L 636.887946 63.9662 
L 637.147642 68.607049 
L 637.407338 64.69845 
L 637.667034 62.630358 
L 638.705818 63.718821 
L 638.965513 61.977272 
L 639.225209 59.127451 
L 639.744601 57.108838 
L 640.523689 57.949921 
L 640.783385 51.389418 
L 641.043081 50.726442 
L 641.302777 49.11352 
L 641.562473 49.697333 
L 642.341561 50.716537 
L 642.601257 55.020952 
L 643.120648 48.381271 
L 643.380344 48.618761 
L 644.159432 45.402823 
L 644.419128 46.629832 
L 644.678824 42.90923 
L 644.93852 44.294566 
L 645.198216 48.401065 
L 645.977304 42.186885 
L 646.237 43.908654 
L 646.756392 41.424951 
L 647.016087 39.515186 
L 647.795175 40.148477 
L 648.054871 39.06 
L 648.314567 40.613553 
L 648.574263 40.188051 
L 648.833959 41.741604 
L 649.613047 40.197956 
L 649.872743 46.50119 
L 650.132439 46.73868 
L 650.392135 47.154276 
L 650.651831 44.175813 
L 651.430918 42.374896 
L 651.690614 40.435431 
L 651.95031 40.603648 
L 652.210006 42.018668 
L 652.469702 47.945895 
L 653.508486 51.310254 
L 653.768182 51.468581 
L 653.768182 51.468581 
" clip-path="url(#pcf6c27c070)" style="fill: none; stroke: #1f77b4; stroke-width: 1.5; stroke-linecap: square"/>
   </g>
   <g id="patch_3">
    <path d="M 94.5 224.28 
L 94.5 30.24 
" style="fill: none; stroke: #000000; stroke-width: 0.8; stroke-linejoin: miter; stroke-linecap: square"/>
   </g>
   <g id="patch_4">
    <path d="M 94.5 224.28 
L 680.4 224.28 
" style="fill: none; stroke: #000000; stroke-width: 0.8; stroke-linejoin: miter; stroke-linecap: square"/>
   </g>
  </g>
 </g>
 <defs>
  <clipPath id="pcf6c27c070">
   <rect x="94.5" y="30.24" width="585.9" height="194.04"/>
  </clipPath>
 </defs>
</svg>
