<?xml version="1.0" encoding="utf-8" standalone="no"?>
<!DOCTYPE svg PUBLIC "-//W3C//DTD SVG 1.1//EN"
  "http://www.w3.org/Graphics/SVG/1.1/DTD/svg11.dtd">
<svg xmlns:xlink="http://www.w3.org/1999/xlink" width="756pt" height="252pt" viewBox="0 0 756 252" xmlns="http://www.w3.org/2000/svg" version="1.1">
 <metadata>
  <rdf:RDF xmlns:dc="http://purl.org/dc/elements/1.1/" xmlns:cc="http://creativecommons.org/ns#" xmlns:rdf="http://www.w3.org/1999/02/22-rdf-syntax-ns#">
   <cc:Work>
    <dc:type rdf:resource="http://purl.org/dc/dcmitype/StillImage"/>
    <dc:date>2025-08-31T00:52:58.623953</dc:date>
    <dc:format>image/svg+xml</dc:format>
    <dc:creator>
     <cc:Agent>
      <dc:title>Matplotlib v3.10.5, https://matplotlib.org/</dc:title>
     </cc:Agent>
    </dc:creator>
   </cc:Work>
  </rdf:RDF>
 </metadata>
 <defs>
  <style type="text/css">*{stroke-linejoin: round; stroke-linecap: butt}</style>
 </defs>
 <g id="figure_1">
  <g id="patch_1">
   <path d="M 0 252 
L 756 252 
L 756 0 
L 0 0 
z
" style="fill: #ffffff"/>
  </g>
  <g id="axes_1">
   <g id="patch_2">
    <path d="M 94.5 224.28 
L 680.4 224.28 
L 680.4 30.24 
L 94.5 30.24 
z
" style="fill: #ffffff"/>
   </g>
   <g id="matplotlib.axis_1">
    <g id="xtick_1">
     <g id="line2d_1">
      <defs>
       <path id="m13cdfdbe02" d="M 0 0 
L 0 3.5 
" style="stroke: #000000; stroke-width: 0.8"/>
      </defs>
      <g>
       <use xlink:href="#m13cdfdbe02" x="115.662203" y="224.28" style="stroke: #000000; stroke-width: 0.8"/>
      </g>
     </g>
     <g id="text_1">
      <!-- 2020 -->
      <g transform="translate(102.937203 238.878438) scale(0.1 -0.1)">
       <defs>
        <path id="DejaVuSans-32" d="M 1228 531 
L 3431 531 
L 3431 0 
L 469 0 
L 469 531 
Q 828 903 1448 1529 
Q 2069 2156 2228 2338 
Q 2531 2678 2651 2914 
Q 2772 3150 2772 3378 
Q 2772 3750 2511 3984 
Q 2250 4219 1831 4219 
Q 1534 4219 1204 4116 
Q 875 4013 500 3803 
L 500 4441 
Q 881 4594 1212 4672 
Q 1544 4750 1819 4750 
Q 2544 4750 2975 4387 
Q 3406 4025 3406 3419 
Q 3406 3131 3298 2873 
Q 3191 2616 2906 2266 
Q 2828 2175 2409 1742 
Q 1991 1309 1228 531 
z
" transform="scale(0.015625)"/>
        <path id="DejaVuSans-30" d="M 2034 4250 
Q 1547 4250 1301 3770 
Q 1056 3291 1056 2328 
Q 1056 1369 1301 889 
Q 1547 409 2034 409 
Q 2525 409 2770 889 
Q 3016 1369 3016 2328 
Q 3016 3291 2770 3770 
Q 2525 4250 2034 4250 
z
M 2034 4750 
Q 2819 4750 3233 4129 
Q 3647 3509 3647 2328 
Q 3647 1150 3233 529 
Q 2819 -91 2034 -91 
Q 1250 -91 836 529 
Q 422 1150 422 2328 
Q 422 3509 836 4129 
Q 1250 4750 2034 4750 
z
" transform="scale(0.015625)"/>
       </defs>
       <use xlink:href="#DejaVuSans-32"/>
       <use xlink:href="#DejaVuSans-30" transform="translate(63.623047 0)"/>
       <use xlink:href="#DejaVuSans-32" transform="translate(127.246094 0)"/>
       <use xlink:href="#DejaVuSans-30" transform="translate(190.869141 0)"/>
      </g>
     </g>
    </g>
    <g id="xtick_2">
     <g id="line2d_2">
      <g>
       <use xlink:href="#m13cdfdbe02" x="210.989787" y="224.28" style="stroke: #000000; stroke-width: 0.8"/>
      </g>
     </g>
     <g id="text_2">
      <!-- 2021 -->
      <g transform="translate(198.264787 238.878438) scale(0.1 -0.1)">
       <defs>
        <path id="DejaVuSans-31" d="M 794 531 
L 1825 531 
L 1825 4091 
L 703 3866 
L 703 4441 
L 1819 4666 
L 2450 4666 
L 2450 531 
L 3481 531 
L 3481 0 
L 794 0 
L 794 531 
z
" transform="scale(0.015625)"/>
       </defs>
       <use xlink:href="#DejaVuSans-32"/>
       <use xlink:href="#DejaVuSans-30" transform="translate(63.623047 0)"/>
       <use xlink:href="#DejaVuSans-32" transform="translate(127.246094 0)"/>
       <use xlink:href="#DejaVuSans-31" transform="translate(190.869141 0)"/>
      </g>
     </g>
    </g>
    <g id="xtick_3">
     <g id="line2d_3">
      <g>
       <use xlink:href="#m13cdfdbe02" x="306.056913" y="224.28" style="stroke: #000000; stroke-width: 0.8"/>
      </g>
     </g>
     <g id="text_3">
      <!-- 2022 -->
      <g transform="translate(293.331913 238.878438) scale(0.1 -0.1)">
       <use xlink:href="#DejaVuSans-32"/>
       <use xlink:href="#DejaVuSans-30" transform="translate(63.623047 0)"/>
       <use xlink:href="#DejaVuSans-32" transform="translate(127.246094 0)"/>
       <use xlink:href="#DejaVuSans-32" transform="translate(190.869141 0)"/>
      </g>
     </g>
    </g>
    <g id="xtick_4">
     <g id="line2d_4">
      <g>
       <use xlink:href="#m13cdfdbe02" x="401.124039" y="224.28" style="stroke: #000000; stroke-width: 0.8"/>
      </g>
     </g>
     <g id="text_4">
      <!-- 2023 -->
      <g transform="translate(388.399039 238.878438) scale(0.1 -0.1)">
       <defs>
        <path id="DejaVuSans-33" d="M 2597 2516 
Q 3050 2419 3304 2112 
Q 3559 1806 3559 1356 
Q 3559 666 3084 287 
Q 2609 -91 1734 -91 
Q 1441 -91 1130 -33 
Q 819 25 488 141 
L 488 750 
Q 750 597 1062 519 
Q 1375 441 1716 441 
Q 2309 441 2620 675 
Q 2931 909 2931 1356 
Q 2931 1769 2642 2001 
Q 2353 2234 1838 2234 
L 1294 2234 
L 1294 2753 
L 1863 2753 
Q 2328 2753 2575 2939 
Q 2822 3125 2822 3475 
Q 2822 3834 2567 4026 
Q 2313 4219 1838 4219 
Q 1578 4219 1281 4162 
Q 984 4106 628 3988 
L 628 4550 
Q 988 4650 1302 4700 
Q 1616 4750 1894 4750 
Q 2613 4750 3031 4423 
Q 3450 4097 3450 3541 
Q 3450 3153 3228 2886 
Q 3006 2619 2597 2516 
z
" transform="scale(0.015625)"/>
       </defs>
       <use xlink:href="#DejaVuSans-32"/>
       <use xlink:href="#DejaVuSans-30" transform="translate(63.623047 0)"/>
       <use xlink:href="#DejaVuSans-32" transform="translate(127.246094 0)"/>
       <use xlink:href="#DejaVuSans-33" transform="translate(190.869141 0)"/>
      </g>
     </g>
    </g>
    <g id="xtick_5">
     <g id="line2d_5">
      <g>
       <use xlink:href="#m13cdfdbe02" x="496.191165" y="224.28" style="stroke: #000000; stroke-width: 0.8"/>
      </g>
     </g>
     <g id="text_5">
      <!-- 2024 -->
      <g transform="translate(483.466165 238.878438) scale(0.1 -0.1)">
       <defs>
        <path id="DejaVuSans-34" d="M 2419 4116 
L 825 1625 
L 2419 1625 
L 2419 4116 
z
M 2253 4666 
L 3047 4666 
L 3047 1625 
L 3713 1625 
L 3713 1100 
L 3047 1100 
L 3047 0 
L 2419 0 
L 2419 1100 
L 313 1100 
L 313 1709 
L 2253 4666 
z
" transform="scale(0.015625)"/>
       </defs>
       <use xlink:href="#DejaVuSans-32"/>
       <use xlink:href="#DejaVuSans-30" transform="translate(63.623047 0)"/>
       <use xlink:href="#DejaVuSans-32" transform="translate(127.246094 0)"/>
       <use xlink:href="#DejaVuSans-34" transform="translate(190.869141 0)"/>
      </g>
     </g>
    </g>
    <g id="xtick_6">
     <g id="line2d_6">
      <g>
       <use xlink:href="#m13cdfdbe02" x="591.518749" y="224.28" style="stroke: #000000; stroke-width: 0.8"/>
      </g>
     </g>
     <g id="text_6">
      <!-- 2025 -->
      <g transform="translate(578.793749 238.878438) scale(0.1 -0.1)">
       <defs>
        <path id="DejaVuSans-35" d="M 691 4666 
L 3169 4666 
L 3169 4134 
L 1269 4134 
L 1269 2991 
Q 1406 3038 1543 3061 
Q 1681 3084 1819 3084 
Q 2600 3084 3056 2656 
Q 3513 2228 3513 1497 
Q 3513 744 3044 326 
Q 2575 -91 1722 -91 
Q 1428 -91 1123 -41 
Q 819 9 494 109 
L 494 744 
Q 775 591 1075 516 
Q 1375 441 1709 441 
Q 2250 441 2565 725 
Q 2881 1009 2881 1497 
Q 2881 1984 2565 2268 
Q 2250 2553 1709 2553 
Q 1456 2553 1204 2497 
Q 953 2441 691 2322 
L 691 4666 
z
" transform="scale(0.015625)"/>
       </defs>
       <use xlink:href="#DejaVuSans-32"/>
       <use xlink:href="#DejaVuSans-30" transform="translate(63.623047 0)"/>
       <use xlink:href="#DejaVuSans-32" transform="translate(127.246094 0)"/>
       <use xlink:href="#DejaVuSans-35" transform="translate(190.869141 0)"/>
      </g>
     </g>
    </g>
   </g>
   <g id="matplotlib.axis_2">
    <g id="ytick_1">
     <g id="line2d_7">
      <defs>
       <path id="m9380fc0bb3" d="M 0 0 
L -3.5 0 
" style="stroke: #000000; stroke-width: 0.8"/>
      </defs>
      <g>
       <use xlink:href="#m9380fc0bb3" x="94.5" y="220.300368" style="stroke: #000000; stroke-width: 0.8"/>
      </g>
     </g>
     <g id="text_7">
      <!-- 0 -->
      <g transform="translate(81.1375 224.099587) scale(0.1 -0.1)">
       <use xlink:href="#DejaVuSans-30"/>
      </g>
     </g>
    </g>
    <g id="ytick_2">
     <g id="line2d_8">
      <g>
       <use xlink:href="#m9380fc0bb3" x="94.5" y="195.562385" style="stroke: #000000; stroke-width: 0.8"/>
      </g>
     </g>
     <g id="text_8">
      <!-- 25 -->
      <g transform="translate(74.775 199.361603) scale(0.1 -0.1)">
       <use xlink:href="#DejaVuSans-32"/>
       <use xlink:href="#DejaVuSans-35" transform="translate(63.623047 0)"/>
      </g>
     </g>
    </g>
    <g id="ytick_3">
     <g id="line2d_9">
      <g>
       <use xlink:href="#m9380fc0bb3" x="94.5" y="170.824401" style="stroke: #000000; stroke-width: 0.8"/>
      </g>
     </g>
     <g id="text_9">
      <!-- 50 -->
      <g transform="translate(74.775 174.623619) scale(0.1 -0.1)">
       <use xlink:href="#DejaVuSans-35"/>
       <use xlink:href="#DejaVuSans-30" transform="translate(63.623047 0)"/>
      </g>
     </g>
    </g>
    <g id="ytick_4">
     <g id="line2d_10">
      <g>
       <use xlink:href="#m9380fc0bb3" x="94.5" y="146.086417" style="stroke: #000000; stroke-width: 0.8"/>
      </g>
     </g>
     <g id="text_10">
      <!-- 75 -->
      <g transform="translate(74.775 149.885636) scale(0.1 -0.1)">
       <defs>
        <path id="DejaVuSans-37" d="M 525 4666 
L 3525 4666 
L 3525 4397 
L 1831 0 
L 1172 0 
L 2766 4134 
L 525 4134 
L 525 4666 
z
" transform="scale(0.015625)"/>
       </defs>
       <use xlink:href="#DejaVuSans-37"/>
       <use xlink:href="#DejaVuSans-35" transform="translate(63.623047 0)"/>
      </g>
     </g>
    </g>
    <g id="ytick_5">
     <g id="line2d_11">
      <g>
       <use xlink:href="#m9380fc0bb3" x="94.5" y="121.348433" style="stroke: #000000; stroke-width: 0.8"/>
      </g>
     </g>
     <g id="text_11">
      <!-- 100 -->
      <g transform="translate(68.4125 125.147652) scale(0.1 -0.1)">
       <use xlink:href="#DejaVuSans-31"/>
       <use xlink:href="#DejaVuSans-30" transform="translate(63.623047 0)"/>
       <use xlink:href="#DejaVuSans-30" transform="translate(127.246094 0)"/>
      </g>
     </g>
    </g>
    <g id="ytick_6">
     <g id="line2d_12">
      <g>
       <use xlink:href="#m9380fc0bb3" x="94.5" y="96.610449" style="stroke: #000000; stroke-width: 0.8"/>
      </g>
     </g>
     <g id="text_12">
      <!-- 125 -->
      <g transform="translate(68.4125 100.409668) scale(0.1 -0.1)">
       <use xlink:href="#DejaVuSans-31"/>
       <use xlink:href="#DejaVuSans-32" transform="translate(63.623047 0)"/>
       <use xlink:href="#DejaVuSans-35" transform="translate(127.246094 0)"/>
      </g>
     </g>
    </g>
    <g id="ytick_7">
     <g id="line2d_13">
      <g>
       <use xlink:href="#m9380fc0bb3" x="94.5" y="71.872465" style="stroke: #000000; stroke-width: 0.8"/>
      </g>
     </g>
     <g id="text_13">
      <!-- 150 -->
      <g transform="translate(68.4125 75.671684) scale(0.1 -0.1)">
       <use xlink:href="#DejaVuSans-31"/>
       <use xlink:href="#DejaVuSans-35" transform="translate(63.623047 0)"/>
       <use xlink:href="#DejaVuSans-30" transform="translate(127.246094 0)"/>
      </g>
     </g>
    </g>
    <g id="ytick_8">
     <g id="line2d_14">
      <g>
       <use xlink:href="#m9380fc0bb3" x="94.5" y="47.134482" style="stroke: #000000; stroke-width: 0.8"/>
      </g>
     </g>
     <g id="text_14">
      <!-- 175 -->
      <g transform="translate(68.4125 50.9337) scale(0.1 -0.1)">
       <use xlink:href="#DejaVuSans-31"/>
       <use xlink:href="#DejaVuSans-37" transform="translate(63.623047 0)"/>
       <use xlink:href="#DejaVuSans-35" transform="translate(127.246094 0)"/>
      </g>
     </g>
    </g>
   </g>
   <g id="line2d_15">
    <path d="M 121.131818 214.139977 
L 121.392276 214.072242 
L 122.434108 214.384066 
L 122.694565 214.192685 
L 123.475939 214.476926 
L 124.257313 214.380863 
L 124.778228 214.123966 
L 125.038686 214.038005 
L 125.299144 214.103522 
L 126.861892 213.630859 
L 127.122349 213.162629 
L 128.164181 212.995632 
L 128.424639 212.549078 
L 128.685097 212.696861 
L 128.945555 213.057209 
L 129.987386 213.845885 
L 130.247844 213.707953 
L 130.508302 214.074924 
L 130.76876 213.644367 
L 131.550133 213.487623 
L 131.810591 213.747386 
L 132.071049 213.288487 
L 132.591965 213.74369 
L 133.373339 214.251385 
L 133.633796 213.86593 
L 133.894254 214.226001 
L 134.154712 214.969309 
L 134.41517 214.364755 
L 135.196544 215.46 
L 135.457002 214.945648 
L 135.717459 215.301776 
L 135.977917 215.051624 
L 136.238375 215.229564 
L 137.019749 215.058524 
L 137.280207 214.15921 
L 137.540665 214.24695 
L 137.801122 213.960569 
L 138.06158 214.071721 
L 138.842954 213.75478 
L 139.103412 213.803823 
L 139.36387 214.309796 
L 139.624328 214.004191 
L 139.884786 214.289093 
L 140.666159 213.685526 
L 140.926617 213.916453 
L 141.187075 213.721262 
L 141.447533 213.819843 
L 142.489364 213.64979 
L 142.749822 213.302289 
L 143.01028 213.378936 
L 143.270738 213.03735 
L 144.312569 213.225888 
L 144.573027 213.658169 
L 144.833485 213.248069 
L 145.093943 213.300811 
L 145.354401 213.163287 
L 146.135775 212.978694 
L 146.396232 213.119666 
L 146.65669 212.944683 
L 147.177606 213.331123 
L 148.479896 212.961196 
L 149.000811 212.59866 
L 149.782185 212.349249 
L 150.042643 212.608519 
L 150.303101 212.630699 
L 150.563559 212.383752 
L 150.824016 211.93003 
L 152.126306 211.457575 
L 152.386764 211.649563 
L 152.647222 211.402123 
L 154.209969 211.933724 
L 154.470427 211.550736 
L 156.033174 211.654245 
L 156.293632 211.502856 
L 157.075006 211.616273 
L 157.595921 211.062237 
L 157.856379 211.624904 
L 158.116837 211.490524 
L 158.898211 211.252589 
L 159.158669 211.356391 
L 159.419126 211.191193 
L 159.940042 211.166291 
L 160.721416 210.904435 
L 160.981874 210.980132 
L 161.242332 211.191684 
L 161.50279 210.94068 
L 161.763247 211.271083 
L 162.544621 211.226699 
L 162.805079 210.93304 
L 163.325995 210.82011 
L 164.628284 210.564173 
L 165.1492 209.935672 
L 165.409658 209.965016 
L 166.191031 210.386151 
L 166.451489 210.065858 
L 166.972405 210.304783 
L 168.014236 209.933947 
L 168.274694 210.113694 
L 168.535152 210.004958 
L 168.79561 210.309714 
L 169.837442 210.021969 
L 170.0979 210.225144 
L 170.618815 209.832115 
L 170.879273 209.831375 
L 172.44202 209.120522 
L 172.702478 209.254654 
L 173.483852 209.288681 
L 173.74431 209.599355 
L 174.004768 209.01721 
L 174.265226 209.014497 
L 174.525683 208.895159 
L 175.307057 208.132775 
L 176.088431 208.326084 
L 176.348889 207.791033 
L 177.651178 207.702762 
L 177.911636 207.845524 
L 178.172094 207.333157 
L 178.953467 207.109521 
L 179.474383 206.146634 
L 179.734841 207.459752 
L 179.995299 207.84747 
L 181.03713 208.547438 
L 181.297588 207.756212 
L 181.558046 208.154047 
L 181.818504 208.299315 
L 182.860336 207.483921 
L 183.120794 207.954018 
L 183.381251 208.004334 
L 183.641709 208.274897 
L 184.683541 207.832426 
L 184.943999 208.339518 
L 185.204457 208.118282 
L 185.464914 207.599596 
L 186.246288 207.440513 
L 187.027662 206.868798 
L 187.28812 207.413628 
L 188.590409 206.523994 
L 189.111325 206.722543 
L 189.892698 206.265515 
L 190.153156 206.243564 
L 190.93453 206.674448 
L 191.715904 206.98398 
L 191.976361 206.838218 
L 192.497277 207.118893 
L 192.757735 206.892723 
L 193.539109 207.335688 
L 193.799567 207.083623 
L 194.060024 207.843031 
L 194.320482 207.451366 
L 194.58094 207.93478 
L 195.362314 207.888658 
L 195.622772 207.455803 
L 195.88323 206.691463 
L 196.404145 205.934029 
L 197.185519 206.852767 
L 197.445977 207.70195 
L 197.706435 207.062658 
L 197.966893 207.024429 
L 198.227351 207.182033 
L 199.008724 206.966716 
L 199.52964 207.052054 
L 199.790098 207.040708 
L 200.050556 207.38847 
L 200.831929 207.336924 
L 201.092387 207.516725 
L 201.352845 207.243446 
L 202.915592 207.090283 
L 203.17605 206.937857 
L 203.436508 207.080458 
L 203.696966 206.92034 
L 204.47834 206.872481 
L 204.738798 207.125852 
L 204.999255 207.539594 
L 205.520171 207.458178 
L 206.562003 207.11549 
L 206.822461 207.231939 
L 207.082918 207.134488 
L 207.343376 207.202828 
L 208.385208 207.196661 
L 208.645666 207.462124 
L 210.208413 207.527255 
L 210.468871 207.327421 
L 210.729329 207.416976 
L 211.77116 207.359245 
L 212.031618 207.071823 
L 212.292076 207.851686 
L 212.552534 207.131776 
L 212.812992 207.198142 
L 213.594365 206.857923 
L 213.854823 206.992875 
L 214.115281 206.946493 
L 214.636197 207.609906 
L 215.678028 207.446333 
L 216.198944 206.615156 
L 216.459402 206.768117 
L 217.240776 206.826591 
L 217.501234 207.041721 
L 217.761691 207.552421 
L 218.022149 207.420923 
L 218.282607 207.48137 
L 219.063981 207.237368 
L 219.324439 206.921819 
L 219.584897 206.947727 
L 219.845355 206.815734 
L 220.105812 206.888024 
L 220.887186 206.051416 
L 221.147644 206.224607 
L 221.66856 205.250088 
L 221.929018 205.535783 
L 222.970849 205.171632 
L 223.231307 205.590308 
L 223.491765 205.666295 
L 223.752223 205.570079 
L 224.794054 206.344266 
L 225.054512 205.991959 
L 225.31497 207.167796 
L 225.575428 206.766146 
L 226.356802 206.640568 
L 227.138175 208.092726 
L 227.398633 208.002674 
L 228.180007 208.859512 
L 228.440465 207.940434 
L 228.700922 207.991764 
L 228.96138 207.473243 
L 229.221838 207.60898 
L 230.524128 207.129945 
L 230.784585 207.740774 
L 231.826417 207.282958 
L 232.086875 207.39698 
L 232.347333 207.819254 
L 232.607791 207.925623 
L 232.868248 207.625514 
L 233.91008 207.593431 
L 234.430996 206.665469 
L 235.472827 206.491968 
L 235.733285 206.616357 
L 236.254201 206.166688 
L 236.514659 206.084751 
L 237.296032 205.286112 
L 237.55649 204.821636 
L 237.816948 205.21898 
L 238.077406 204.369744 
L 239.119238 205.135315 
L 239.379695 205.323377 
L 239.640153 205.13655 
L 239.900611 205.640267 
L 240.161069 205.230581 
L 240.942443 205.020556 
L 241.463359 205.219228 
L 241.723816 205.17184 
L 241.984274 205.483054 
L 242.765648 205.653591 
L 243.026106 206.132879 
L 243.547022 205.963326 
L 243.807479 205.677779 
L 244.588853 206.217282 
L 244.849311 206.177302 
L 245.109769 206.718038 
L 245.370227 206.810094 
L 245.630685 206.239739 
L 246.412058 206.31625 
L 246.672516 206.464083 
L 246.932974 206.414721 
L 247.45389 205.500579 
L 248.235263 204.88827 
L 248.756179 204.801398 
L 249.016637 205.010682 
L 249.277095 204.263869 
L 250.318926 204.244126 
L 250.579384 203.736949 
L 250.839842 203.547907 
L 251.1003 202.947201 
L 251.881674 202.906968 
L 252.402589 203.160452 
L 252.663047 203.094541 
L 252.923505 202.699323 
L 253.704879 202.50826 
L 253.965337 202.735615 
L 254.225795 202.714137 
L 254.486253 201.87779 
L 254.74671 201.896059 
L 255.528084 202.104897 
L 255.788542 201.651182 
L 256.309458 201.336437 
L 256.569916 201.508741 
L 257.351289 200.566744 
L 258.132663 200.342597 
L 258.393121 200.071053 
L 259.434952 199.862217 
L 259.955868 200.64796 
L 260.997699 200.045876 
L 261.518615 200.708437 
L 262.039531 202.367799 
L 262.820905 201.756831 
L 263.081363 201.922473 
L 263.34182 201.134508 
L 263.602278 200.952824 
L 263.862736 200.988368 
L 264.904568 201.33397 
L 265.425483 200.885681 
L 265.685941 201.046631 
L 266.727773 200.734602 
L 267.248689 199.922943 
L 267.509146 200.190535 
L 268.29052 200.260639 
L 268.811436 200.849145 
L 269.332352 200.366297 
L 270.113725 200.601297 
L 270.634641 201.499852 
L 271.155557 199.746196 
L 271.93693 198.618558 
L 272.197388 198.781484 
L 272.457846 198.366767 
L 272.718304 198.50994 
L 272.978762 197.949085 
L 273.760136 197.897741 
L 274.020593 198.19303 
L 274.541509 198.182168 
L 274.801967 197.740715 
L 275.843799 197.919463 
L 276.364714 198.398454 
L 276.625172 198.101184 
L 277.406546 198.423139 
L 277.927462 198.236486 
L 278.18792 198.334259 
L 278.448377 198.672015 
L 279.229751 199.449248 
L 279.490209 199.317903 
L 280.011125 198.097235 
L 280.271583 198.493262 
L 281.052956 198.909039 
L 281.313414 199.858118 
L 281.573872 200.037861 
L 281.83433 199.84133 
L 282.094788 199.815647 
L 282.876161 200.813123 
L 283.136619 200.10304 
L 283.657535 199.48678 
L 283.917993 199.727756 
L 284.959824 199.885777 
L 285.220282 199.621098 
L 285.48074 198.824106 
L 286.78303 198.286847 
L 287.043487 198.471534 
L 287.303945 197.889839 
L 287.564403 197.856261 
L 288.345777 197.421719 
L 288.606235 195.88996 
L 288.866693 196.152656 
L 289.387608 195.050499 
L 290.168982 194.793728 
L 290.42944 194.226846 
L 290.689898 194.032292 
L 290.950356 190.869021 
L 291.210814 190.917412 
L 291.992187 189.878456 
L 292.252645 190.023637 
L 292.513103 191.206777 
L 292.773561 190.287325 
L 293.034019 190.287325 
L 293.815392 190.6478 
L 294.07585 190.472011 
L 294.336308 191.402322 
L 294.596766 189.018264 
L 294.857224 187.724521 
L 295.899055 188.948147 
L 296.159513 188.031659 
L 296.680429 189.188132 
L 297.461803 187.338368 
L 297.722261 188.029681 
L 297.982718 189.251488 
L 298.243176 188.568971 
L 298.503634 189.984374 
L 299.285008 190.632312 
L 299.545466 188.27167 
L 299.805924 188.865291 
L 300.066381 190.184882 
L 300.326839 190.473293 
L 301.108213 192.485273 
L 301.368671 192.311434 
L 301.629129 190.215502 
L 301.889587 192.26205 
L 302.150044 192.840853 
L 302.931418 192.921844 
L 303.191876 191.582497 
L 304.754623 189.735469 
L 305.015081 190.350816 
L 305.796455 191.250622 
L 306.577828 190.549347 
L 306.838286 191.370143 
L 307.098744 193.035431 
L 307.359202 192.468478 
L 307.61966 193.388046 
L 308.401034 193.236921 
L 308.661491 192.825047 
L 308.921949 192.645282 
L 309.182407 194.051792 
L 309.442865 193.689304 
L 310.484697 194.715536 
L 311.26607 197.21347 
L 312.047444 197.215448 
L 312.307902 198.250579 
L 312.56836 197.808077 
L 312.828818 198.625911 
L 313.089275 197.740917 
L 313.870649 196.115128 
L 314.131107 195.964998 
L 314.391565 195.368415 
L 314.652023 196.646525 
L 314.912481 196.280077 
L 315.693854 195.876099 
L 315.954312 195.500777 
L 316.21477 193.923389 
L 316.475228 194.793569 
L 316.735686 196.645536 
L 317.517059 196.331438 
L 317.777517 194.130808 
L 318.037975 194.115003 
L 318.298433 196.094389 
L 318.558891 196.948764 
L 319.600722 197.197673 
L 319.86118 198.188355 
L 320.121638 196.844065 
L 320.382096 196.440087 
L 321.16347 196.214893 
L 321.423928 197.111738 
L 321.684385 196.373792 
L 321.944843 196.873655 
L 322.205301 197.642229 
L 322.986675 199.207042 
L 323.247133 199.047007 
L 323.507591 197.565179 
L 323.768048 197.916862 
L 324.028506 198.468105 
L 324.80988 199.228775 
L 325.330796 196.101133 
L 325.591254 195.8344 
L 325.851711 194.167844 
L 326.633085 193.890245 
L 326.893543 194.097702 
L 327.154001 194.976915 
L 327.414459 192.4914 
L 327.674917 192.94385 
L 328.45629 192.423236 
L 328.716748 191.991531 
L 328.977206 192.945824 
L 329.498122 193.911978 
L 330.279495 193.27183 
L 330.800411 196.189054 
L 331.060869 196.385643 
L 331.321327 197.46145 
L 332.363158 199.056887 
L 332.623616 198.366352 
L 332.884074 199.299903 
L 333.925906 198.781267 
L 334.186364 198.371293 
L 334.446822 199.07862 
L 334.707279 200.361877 
L 334.967737 201.021786 
L 335.749111 200.639477 
L 336.009569 201.739978 
L 336.270027 202.108461 
L 336.530485 200.758027 
L 336.790942 201.978063 
L 337.572316 201.004005 
L 337.832774 200.935845 
L 338.093232 200.212709 
L 338.35369 201.684658 
L 338.614148 201.851614 
L 339.395521 203.555712 
L 339.655979 202.918528 
L 339.916437 203.871837 
L 340.176895 204.321322 
L 340.437353 202.808873 
L 341.218726 203.245519 
L 341.479184 202.34358 
L 341.739642 203.567568 
L 342.0001 203.383822 
L 342.260558 203.808612 
L 343.041932 203.607084 
L 343.302389 204.342068 
L 344.083763 201.717257 
L 345.125595 201.854575 
L 345.386052 202.202311 
L 345.64651 200.945721 
L 345.906968 201.807157 
L 346.688342 201.741958 
L 346.9488 201.603655 
L 347.209258 201.874389 
L 347.469715 202.467246 
L 347.730173 203.528458 
L 348.511547 204.83966 
L 348.772005 204.652911 
L 349.032463 203.970134 
L 349.292921 204.885113 
L 349.553379 204.609435 
L 350.59521 203.931604 
L 351.116126 204.268542 
L 351.376584 203.37827 
L 352.157957 203.632212 
L 352.418415 204.508649 
L 353.199789 205.950279 
L 354.502078 205.350505 
L 354.762536 204.631173 
L 355.022994 204.650934 
L 355.804368 205.328766 
L 356.064826 205.397932 
L 356.325283 205.31691 
L 356.585741 205.111387 
L 356.846199 204.726029 
L 357.627573 204.391068 
L 358.148489 202.705379 
L 358.408946 202.46527 
L 358.669404 203.187565 
L 359.450778 203.479053 
L 359.711236 203.96421 
L 359.971694 202.722177 
L 360.492609 202.353617 
L 361.534441 201.99494 
L 362.055357 201.314139 
L 362.315815 201.537452 
L 363.097188 202.71921 
L 363.357646 203.417789 
L 363.618104 202.418831 
L 363.878562 202.571988 
L 364.13902 201.814116 
L 364.920393 201.494963 
L 365.180851 201.646143 
L 365.441309 202.183664 
L 365.701767 201.750876 
L 365.962225 202.663876 
L 366.743599 203.469174 
L 367.264514 203.283409 
L 367.524972 202.600637 
L 367.78543 204.233955 
L 368.566804 204.687493 
L 369.087719 205.386076 
L 369.348177 206.529302 
L 369.608635 206.81585 
L 370.650467 206.995682 
L 371.171383 206.472826 
L 371.43184 206.080433 
L 372.213214 205.963803 
L 372.473672 207.32185 
L 372.73413 207.324815 
L 372.994588 207.521504 
L 373.255046 207.255629 
L 374.036419 207.073764 
L 374.296877 207.277374 
L 374.557335 207.193358 
L 374.817793 207.885232 
L 375.078251 207.929709 
L 375.859624 208.214364 
L 376.120082 208.031511 
L 376.38054 207.712264 
L 376.640998 208.22227 
L 376.901456 208.302331 
L 377.68283 207.933661 
L 377.943287 207.286267 
L 378.203745 207.244755 
L 378.464203 207.322838 
L 378.724661 208.364599 
L 380.02695 208.933911 
L 380.287408 208.479252 
L 380.547866 209.203739 
L 381.589698 208.472333 
L 382.110613 208.247968 
L 382.371071 207.979129 
L 383.152445 207.847671 
L 383.412903 207.193358 
L 383.673361 207.554123 
L 383.933819 207.277374 
L 384.194277 206.627015 
L 384.97565 206.960099 
L 385.236108 206.914633 
L 385.496566 207.234871 
L 385.757024 207.03522 
L 386.017482 206.308752 
L 386.798855 206.165438 
L 387.059313 205.867932 
L 387.319771 206.684339 
L 387.580229 204.733263 
L 387.840687 204.162962 
L 388.62206 204.194588 
L 388.882518 203.827899 
L 389.142976 204.575121 
L 389.663892 205.070301 
L 390.445266 205.161236 
L 390.966181 203.973191 
L 392.268471 204.657158 
L 392.528929 204.842974 
L 392.789387 203.569604 
L 393.049844 203.360013 
L 393.310302 203.616071 
L 394.091676 203.879046 
L 394.352134 204.494972 
L 394.612592 204.363484 
L 394.87305 203.326399 
L 395.133507 203.492495 
L 395.914881 202.964557 
L 396.175339 202.433656 
L 396.435797 202.827135 
L 396.696255 203.540935 
L 396.956713 203.917607 
L 397.998544 204.398085 
L 398.259002 203.986814 
L 398.51946 205.135611 
L 398.779918 205.267101 
L 399.821749 206.339777 
L 400.082207 206.423809 
L 400.342665 205.863251 
L 400.603123 205.852375 
L 401.644954 206.147979 
L 401.905412 205.718909 
L 402.16587 206.19741 
L 402.426328 205.610158 
L 403.989075 203.976927 
L 404.249533 203.59333 
L 405.291365 202.799453 
L 405.551823 203.12076 
L 405.812281 203.725808 
L 406.072738 202.664008 
L 406.854112 201.325388 
L 407.375028 201.196868 
L 407.895944 200.166705 
L 408.677317 201.356039 
L 408.937775 200.985299 
L 409.198233 199.595267 
L 409.458691 198.837972 
L 409.719149 199.440055 
L 410.500522 199.450926 
L 410.76098 198.379242 
L 411.281896 198.217105 
L 411.542354 199.276929 
L 412.323727 198.75987 
L 412.584185 197.590308 
L 412.844643 197.794954 
L 413.365559 199.155324 
L 414.407391 199.88 
L 414.667848 199.782122 
L 414.928306 196.90518 
L 415.188764 197.278886 
L 415.970138 197.066326 
L 416.230596 197.34809 
L 416.491054 197.860202 
L 417.011969 196.681745 
L 417.793343 197.013929 
L 418.053801 197.272999 
L 418.314259 196.389991 
L 418.835174 197.592382 
L 419.616548 197.591397 
L 419.877006 196.506673 
L 420.137464 196.343519 
L 420.397922 195.045211 
L 420.65838 194.863269 
L 421.439753 194.690231 
L 421.960669 194.128587 
L 422.221127 193.413676 
L 422.481585 193.821066 
L 423.523416 194.185936 
L 424.044332 193.223829 
L 424.30479 192.834236 
L 425.086164 192.648341 
L 425.607079 193.720208 
L 426.909369 193.03002 
L 427.169827 193.43543 
L 427.430285 194.101884 
L 427.690742 194.133532 
L 427.9512 193.841835 
L 428.732574 193.600562 
L 428.993032 192.943005 
L 429.25349 192.681959 
L 429.513948 193.499702 
L 429.774405 193.484871 
L 430.555779 193.561009 
L 430.816237 194.353045 
L 431.076695 193.646048 
L 431.337153 193.379071 
L 431.597611 192.86192 
L 432.378984 191.713915 
L 432.8999 192.809514 
L 433.160358 193.046828 
L 433.420816 191.941342 
L 434.202189 191.475616 
L 434.462647 192.049124 
L 434.723105 191.738634 
L 435.244021 192.277534 
L 436.285852 191.414309 
L 436.54631 190.460107 
L 436.806768 188.976895 
L 437.067226 189.386263 
L 437.8486 189.473276 
L 438.109058 189.955815 
L 438.369515 190.104137 
L 438.629973 182.745424 
L 438.890431 181.79024 
L 439.932263 180.638268 
L 440.192721 182.889792 
L 440.453178 180.97546 
L 440.713636 181.413493 
L 441.49501 181.56775 
L 441.755468 182.078968 
L 442.015926 183.240943 
L 442.276384 182.217417 
L 443.318215 181.256197 
L 443.839131 177.780166 
L 444.099589 178.120354 
L 444.360047 178.081792 
L 445.401878 176.978167 
L 445.662336 177.732702 
L 445.922794 177.752482 
L 446.183252 178.55943 
L 446.964625 180.118939 
L 447.225083 178.88874 
L 447.485541 179.639323 
L 447.745999 179.931056 
L 448.006457 178.467466 
L 448.787831 178.357697 
L 449.308746 178.452631 
L 449.569204 178.664257 
L 449.829662 178.268697 
L 450.611036 178.58811 
L 450.871494 178.365609 
L 451.392409 174.833218 
L 451.652867 175.335584 
L 452.434241 174.354588 
L 452.694699 173.33304 
L 452.955157 173.745416 
L 453.476072 176.482724 
L 454.257446 176.183075 
L 454.517904 175.12791 
L 454.778362 175.3524 
L 455.03882 174.909361 
L 455.299278 174.068789 
L 456.080651 174.089553 
L 456.341109 174.309095 
L 456.601567 176.522275 
L 457.903856 175.38701 
L 458.164314 176.131652 
L 458.424772 178.218259 
L 458.68523 178.382414 
L 458.945688 179.89842 
L 459.727062 177.03256 
L 459.987519 176.847633 
L 460.247977 177.296594 
L 460.768893 177.481525 
L 461.550267 173.854196 
L 461.810725 175.138793 
L 462.071182 173.706846 
L 462.33164 173.660368 
L 462.592098 174.79267 
L 463.373472 173.984729 
L 463.63393 172.057344 
L 463.894388 171.58267 
L 464.154846 171.492677 
L 464.415303 172.329293 
L 465.457135 172.290723 
L 465.717593 173.757412 
L 466.238509 175.230016 
L 467.019882 175.619673 
L 467.28034 175.924292 
L 467.540798 175.316057 
L 467.801256 175.221112 
L 468.061714 176.88361 
L 468.843087 176.818334 
L 469.103545 177.259428 
L 469.624461 179.734876 
L 469.884919 179.148402 
L 470.666293 178.543134 
L 470.92675 178.850713 
L 471.708124 177.280197 
L 472.489498 176.011315 
L 472.749956 177.262395 
L 473.270871 176.104282 
L 473.531329 175.042107 
L 474.312703 175.52572 
L 474.573161 175.006508 
L 474.833619 174.009594 
L 475.094076 173.872126 
L 475.354534 175.339792 
L 476.135908 174.712767 
L 476.656824 178.568851 
L 476.917282 178.662804 
L 477.177739 179.368948 
L 478.219571 177.118005 
L 478.740487 180.418266 
L 479.000945 180.246181 
L 479.782318 179.59246 
L 480.042776 179.969264 
L 480.82415 175.790773 
L 481.865981 174.851227 
L 482.386897 173.867181 
L 482.647355 172.497427 
L 483.428729 172.215569 
L 483.689186 171.190967 
L 483.949644 171.95052 
L 484.210102 171.365031 
L 484.47056 171.545024 
L 485.251934 170.446257 
L 485.512392 170.906142 
L 485.77285 172.120627 
L 486.293765 173.050276 
L 487.075139 172.589402 
L 487.335597 173.005768 
L 487.596055 172.690281 
L 487.856513 174.045197 
L 488.11697 174.050145 
L 488.898344 175.291333 
L 489.158802 174.242905 
L 489.41926 175.294296 
L 489.940176 173.313173 
L 490.721549 174.182574 
L 490.982007 173.163815 
L 492.544754 170.770249 
L 492.805212 171.238087 
L 493.06567 172.714783 
L 493.326128 171.845379 
L 493.586586 172.00363 
L 495.409791 171.319187 
L 496.451623 172.658403 
L 496.71208 173.25086 
L 496.972538 172.826544 
L 498.535286 166.54391 
L 498.795743 166.077072 
L 499.056201 166.187852 
L 500.098033 164.534103 
L 500.358491 164.85951 
L 500.618949 163.81702 
L 500.879407 161.459057 
L 501.66078 161.297835 
L 501.921238 161.08123 
L 502.181696 159.60849 
L 502.442154 159.356279 
L 502.702612 159.935875 
L 503.744443 158.211909 
L 504.004901 159.445287 
L 504.265359 157.961676 
L 504.525817 154.86289 
L 505.30719 151.725527 
L 505.567648 152.822414 
L 505.828106 150.966907 
L 506.088564 151.419918 
L 506.349022 148.955111 
L 507.130396 148.841379 
L 507.390854 148.960048 
L 507.651311 147.20741 
L 507.911769 148.435853 
L 508.172227 148.480357 
L 509.214059 151.606827 
L 509.474517 153.56521 
L 509.734974 142.620064 
L 509.995432 142.344102 
L 510.776806 142.072111 
L 511.037264 142.458854 
L 511.297722 143.485509 
L 511.55818 142.052332 
L 511.818637 138.919928 
L 512.860469 135.271174 
L 513.120927 132.564928 
L 513.381385 128.639087 
L 513.641843 133.724182 
L 514.423216 135.459102 
L 514.683674 129.386859 
L 514.944132 130.400725 
L 515.20459 133.312707 
L 515.465048 133.418543 
L 516.246421 132.807265 
L 517.027795 129.859672 
L 517.288253 127.036705 
L 518.069627 126.331467 
L 518.590542 131.031782 
L 518.851 130.926928 
L 519.892832 130.920013 
L 520.15329 131.821105 
L 520.413747 132.303801 
L 520.674205 135.329546 
L 520.934663 133.249398 
L 521.716037 134.114888 
L 521.976495 135.874555 
L 522.236953 134.207866 
L 522.497411 130.669764 
L 522.757868 133.073337 
L 523.539242 135.234582 
L 523.7997 133.835959 
L 524.060158 137.179195 
L 524.320616 136.550116 
L 524.581074 144.928998 
L 525.362447 141.647086 
L 525.622905 138.773673 
L 525.883363 141.489801 
L 526.143821 138.566932 
L 526.404279 133.519426 
L 527.185652 133.497676 
L 527.44611 134.837935 
L 527.706568 138.162396 
L 528.227484 132.476894 
L 529.008858 129.162346 
L 529.269315 130.731096 
L 529.529773 130.871538 
L 529.790231 132.518439 
L 530.050689 131.399726 
L 530.832063 130.884402 
L 531.092521 129.937801 
L 531.352978 126.699411 
L 531.613436 126.967469 
L 531.873894 128.82703 
L 532.915726 125.951632 
L 533.176184 126.382894 
L 533.436641 117.630111 
L 533.697099 114.989145 
L 534.738931 107.637975 
L 534.999389 106.724025 
L 535.259847 111.001995 
L 535.520305 111.859565 
L 536.562136 105.129555 
L 536.822594 99.191819 
L 537.083052 100.618142 
L 537.34351 100.726944 
L 538.124883 99.834759 
L 538.385341 100.695365 
L 538.906257 92.08926 
L 539.166715 89.843756 
L 539.948088 90.734046 
L 540.208546 86.1837 
L 540.729462 90.931886 
L 540.98992 95.096463 
L 541.771294 103.465146 
L 542.031752 95.571277 
L 542.292209 95.264619 
L 542.552667 97.648617 
L 542.813125 98.093747 
L 543.594499 97.341944 
L 543.854957 98.954367 
L 544.115415 93.404914 
L 544.63633 95.828464 
L 545.417704 93.484063 
L 545.93862 86.846465 
L 546.199078 94.275409 
L 546.459535 92.455256 
L 547.240909 93.246633 
L 547.501367 95.304186 
L 547.761825 103.583853 
L 548.022283 100.517311 
L 548.282741 103.643207 
L 549.064114 98.093747 
L 549.324572 99.033508 
L 549.58503 107.283491 
L 549.845488 109.232234 
L 550.105946 108.460644 
L 550.887319 109.914786 
L 551.147777 117.68994 
L 551.408235 104.543394 
L 551.668693 112.269084 
L 551.929151 114.18815 
L 552.710525 120.934543 
L 552.970982 117.175559 
L 553.23144 122.457913 
L 553.491898 116.463323 
L 553.752356 116.68095 
L 554.53373 112.457035 
L 554.794188 105.413889 
L 555.054645 103.494823 
L 555.315103 98.766409 
L 556.356935 91.703499 
L 556.617393 94.423794 
L 556.877851 93.187294 
L 557.138309 97.895914 
L 557.398766 92.326689 
L 558.18014 95.205273 
L 558.440598 93.38512 
L 558.701056 96.046091 
L 558.961514 103.979542 
L 559.221972 102.218742 
L 560.524261 115.236714 
L 560.784719 114.247504 
L 561.045177 118.580229 
L 562.087008 113.367112 
L 562.347466 104.652189 
L 562.607924 102.436181 
L 562.868382 102.475755 
L 563.649756 104.770911 
L 563.910213 105.94817 
L 564.170671 108.144398 
L 564.431129 103.69258 
L 564.691587 105.542554 
L 565.472961 105.285337 
L 565.733419 100.724702 
L 565.993876 98.112975 
L 566.254334 97.588652 
L 566.514792 100.200379 
L 567.296166 100.160812 
L 567.556624 104.553261 
L 567.817082 102.723082 
L 568.077539 98.765911 
L 568.337997 96.718081 
L 569.119371 93.948058 
L 569.379829 88.83343 
L 569.640287 89.070875 
L 569.900745 86.933993 
L 570.161202 86.943868 
L 570.942576 83.708875 
L 571.203034 90.109602 
L 571.463492 86.033738 
L 571.984408 83.778149 
L 572.765781 78.129285 
L 573.026239 78.247992 
L 573.286697 82.234848 
L 573.807613 80.276057 
L 574.588986 81.285114 
L 574.849444 80.562951 
L 575.109902 82.452498 
L 575.37036 88.962028 
L 575.630818 86.350301 
L 576.412192 85.707255 
L 576.672649 81.888601 
L 577.193565 73.014634 
L 577.454023 74.251277 
L 578.235397 76.595904 
L 578.495855 73.598356 
L 578.756313 75.596707 
L 579.01677 75.111973 
L 579.277228 79.840772 
L 580.058602 81.651186 
L 580.31906 74.864638 
L 580.579518 75.972638 
L 580.839976 75.20098 
L 581.100433 79.870456 
L 581.881807 85.73694 
L 582.142265 84.846575 
L 582.402723 86.40967 
L 582.923639 83.530814 
L 583.705012 83.154898 
L 583.96547 81.542339 
L 584.225928 76.714597 
L 584.486386 76.783855 
L 584.746844 79.375983 
L 585.528217 82.96737 
L 585.788675 86.667558 
L 586.049133 82.472685 
L 586.309591 84.421723 
L 586.570049 87.478836 
L 587.351423 89.704907 
L 587.872338 92.76202 
L 588.132796 91.010868 
L 588.393254 87.03363 
L 589.174628 82.116518 
L 589.435086 81.572355 
L 589.956001 81.859279 
L 590.216459 84.748205 
L 590.997833 84.273316 
L 591.258291 87.439261 
L 591.779206 83.462039 
L 592.039664 77.367577 
L 592.821038 72.46037 
L 593.081496 81.651518 
L 593.341954 81.681188 
L 593.86287 85.836487 
L 594.644243 88.487983 
L 594.904701 89.942352 
L 595.165159 85.510004 
L 595.425617 88.151596 
L 595.686075 84.055651 
L 596.727906 80.968853 
L 596.988364 74.795229 
L 597.248822 74.646837 
L 597.50928 79.197907 
L 598.290653 103.140407 
L 598.551111 92.682856 
L 598.811569 97.916584 
L 599.072027 96.976687 
L 599.332485 101.507955 
L 600.113859 104.881669 
L 600.374317 102.912845 
L 600.895232 92.98959 
L 601.937064 88.151596 
L 602.197522 88.913394 
L 602.45798 90.555743 
L 602.978895 82.92778 
L 604.020727 82.383632 
L 604.281185 82.551834 
L 604.541643 81.681188 
L 604.8021 87.30076 
L 605.583474 91.406594 
L 605.843932 95.017753 
L 606.10439 90.417226 
L 606.364848 101.4288 
L 606.625306 96.709566 
L 607.406679 107.45401 
L 607.927595 104.248483 
L 608.188053 110.906872 
L 608.448511 108.809428 
L 609.229884 114.458677 
L 609.490342 112.697613 
L 609.7508 105.78135 
L 610.011258 105.939662 
L 610.271716 99.913908 
L 611.05309 102.031335 
L 611.313547 106.088084 
L 611.574005 104.020135 
L 611.834463 103.020786 
L 612.094921 103.842029 
L 612.876295 100.171162 
L 613.136753 100.883564 
L 613.39721 107.740458 
L 613.918126 111.787317 
L 614.6995 113.063707 
L 614.959958 111.312382 
L 615.220416 111.04523 
L 615.741331 126.985278 
L 616.522705 123.690411 
L 616.783163 125.016265 
L 617.043621 107.176478 
L 617.304079 113.865163 
L 617.564537 110.540611 
L 618.34591 110.758292 
L 618.606368 109.284008 
L 618.866826 116.912673 
L 619.127284 119.881027 
L 620.169115 124.412703 
L 620.429573 122.453595 
L 621.210947 110.461448 
L 621.992321 112.7174 
L 622.252778 112.430461 
L 622.513236 112.529404 
L 623.034152 107.008269 
L 624.075984 107.958139 
L 624.336441 104.475275 
L 624.596899 104.168542 
L 624.857357 104.880952 
L 625.638731 98.597936 
L 626.159647 86.388124 
L 626.420104 86.892743 
L 626.680562 86.328755 
L 627.461936 86.160538 
L 627.722394 87.337993 
L 627.982852 89.890774 
L 628.24331 88.871631 
L 628.503768 90.395393 
L 629.545599 86.229812 
L 629.806057 86.912522 
L 630.066515 82.578725 
L 630.326973 86.595899 
L 631.108346 84.369632 
L 631.368804 80.570153 
L 631.629262 79.877537 
L 631.88972 81.787167 
L 632.150178 80.075423 
L 632.931551 79.175017 
L 633.192009 77.859045 
L 633.452467 78.967317 
L 633.712925 76.820062 
L 633.973383 79.818305 
L 634.754757 77.126811 
L 635.015214 77.690844 
L 635.275672 76.345097 
L 635.796588 77.958003 
L 636.577962 77.641365 
L 636.83842 73.950462 
L 637.098878 67.607639 
L 637.359335 66.905074 
L 637.619793 64.20369 
L 638.401167 63.9662 
L 638.661625 68.607048 
L 638.922083 64.69845 
L 639.182541 62.630358 
L 640.224372 63.71882 
L 640.48483 61.977272 
L 640.745288 59.127451 
L 641.266204 57.108838 
L 642.047577 57.949921 
L 642.308035 51.389418 
L 642.568493 50.726442 
L 642.828951 49.11352 
L 643.089409 49.697333 
L 643.870782 50.716537 
L 644.13124 55.020952 
L 644.652156 48.38127 
L 644.912614 48.618761 
L 645.693988 45.402823 
L 645.954445 46.629832 
L 646.214903 42.90923 
L 646.475361 44.294566 
L 646.735819 48.401065 
L 647.517193 42.186885 
L 647.777651 43.908654 
L 648.298566 41.424951 
L 648.559024 39.515186 
L 649.340398 40.148477 
L 649.600856 39.06 
L 649.861314 40.613553 
L 650.121772 40.188051 
L 650.382229 41.741604 
L 651.163603 40.197956 
L 651.424061 46.50119 
L 651.684519 46.73868 
L 651.944977 47.154276 
L 652.205435 44.175813 
L 652.986808 42.374896 
L 653.247266 40.435431 
L 653.507724 40.603648 
L 653.768182 42.018668 
L 653.768182 42.018668 
" clip-path="url(#p2a2f4d96c8)" style="fill: none; stroke: #1f77b4; stroke-width: 1.5; stroke-linecap: square"/>
   </g>
   <g id="patch_3">
    <path d="M 94.5 224.28 
L 94.5 30.24 
" style="fill: none; stroke: #000000; stroke-width: 0.8; stroke-linejoin: miter; stroke-linecap: square"/>
   </g>
   <g id="patch_4">
    <path d="M 94.5 224.28 
L 680.4 224.28 
" style="fill: none; stroke: #000000; stroke-width: 0.8; stroke-linejoin: miter; stroke-linecap: square"/>
   </g>
  </g>
 </g>
 <defs>
  <clipPath id="p2a2f4d96c8">
   <rect x="94.5" y="30.24" width="585.9" height="194.04"/>
  </clipPath>
 </defs>
</svg>
