<?xml version="1.0" encoding="utf-8" standalone="no"?>
<!DOCTYPE svg PUBLIC "-//W3C//DTD SVG 1.1//EN"
  "http://www.w3.org/Graphics/SVG/1.1/DTD/svg11.dtd">
<svg xmlns:xlink="http://www.w3.org/1999/xlink" width="1166.4pt" height="252pt" viewBox="0 0 1166.4 252" xmlns="http://www.w3.org/2000/svg" version="1.1">
 <metadata>
  <rdf:RDF xmlns:dc="http://purl.org/dc/elements/1.1/" xmlns:cc="http://creativecommons.org/ns#" xmlns:rdf="http://www.w3.org/1999/02/22-rdf-syntax-ns#">
   <cc:Work>
    <dc:type rdf:resource="http://purl.org/dc/dcmitype/StillImage"/>
    <dc:date>2025-09-08T17:07:06.711342</dc:date>
    <dc:format>image/svg+xml</dc:format>
    <dc:creator>
     <cc:Agent>
      <dc:title>Matplotlib v3.10.5, https://matplotlib.org/</dc:title>
     </cc:Agent>
    </dc:creator>
   </cc:Work>
  </rdf:RDF>
 </metadata>
 <defs>
  <style type="text/css">*{stroke-linejoin: round; stroke-linecap: butt}</style>
 </defs>
 <g id="figure_1">
  <g id="patch_1">
   <path d="M 0 252 
L 1166.4 252 
L 1166.4 0 
L 0 0 
z
" style="fill: #ffffff"/>
  </g>
  <g id="axes_1">
   <g id="patch_2">
    <path d="M 145.8 224.28 
L 1049.76 224.28 
L 1049.76 30.24 
L 145.8 30.24 
z
" style="fill: #ffffff"/>
   </g>
   <g id="matplotlib.axis_1">
    <g id="xtick_1">
     <g id="line2d_1">
      <defs>
       <path id="m5c1451d857" d="M 0 0 
L 0 3.5 
" style="stroke: #000000; stroke-width: 0.8"/>
      </defs>
      <g>
       <use xlink:href="#m5c1451d857" x="186.889091" y="224.28" style="stroke: #000000; stroke-width: 0.8"/>
      </g>
     </g>
     <g id="text_1">
      <!-- 2024-03 -->
      <g transform="translate(165.997685 238.878438) scale(0.1 -0.1)">
       <defs>
        <path id="DejaVuSans-32" d="M 1228 531 
L 3431 531 
L 3431 0 
L 469 0 
L 469 531 
Q 828 903 1448 1529 
Q 2069 2156 2228 2338 
Q 2531 2678 2651 2914 
Q 2772 3150 2772 3378 
Q 2772 3750 2511 3984 
Q 2250 4219 1831 4219 
Q 1534 4219 1204 4116 
Q 875 4013 500 3803 
L 500 4441 
Q 881 4594 1212 4672 
Q 1544 4750 1819 4750 
Q 2544 4750 2975 4387 
Q 3406 4025 3406 3419 
Q 3406 3131 3298 2873 
Q 3191 2616 2906 2266 
Q 2828 2175 2409 1742 
Q 1991 1309 1228 531 
z
" transform="scale(0.015625)"/>
        <path id="DejaVuSans-30" d="M 2034 4250 
Q 1547 4250 1301 3770 
Q 1056 3291 1056 2328 
Q 1056 1369 1301 889 
Q 1547 409 2034 409 
Q 2525 409 2770 889 
Q 3016 1369 3016 2328 
Q 3016 3291 2770 3770 
Q 2525 4250 2034 4250 
z
M 2034 4750 
Q 2819 4750 3233 4129 
Q 3647 3509 3647 2328 
Q 3647 1150 3233 529 
Q 2819 -91 2034 -91 
Q 1250 -91 836 529 
Q 422 1150 422 2328 
Q 422 3509 836 4129 
Q 1250 4750 2034 4750 
z
" transform="scale(0.015625)"/>
        <path id="DejaVuSans-34" d="M 2419 4116 
L 825 1625 
L 2419 1625 
L 2419 4116 
z
M 2253 4666 
L 3047 4666 
L 3047 1625 
L 3713 1625 
L 3713 1100 
L 3047 1100 
L 3047 0 
L 2419 0 
L 2419 1100 
L 313 1100 
L 313 1709 
L 2253 4666 
z
" transform="scale(0.015625)"/>
        <path id="DejaVuSans-2d" d="M 313 2009 
L 1997 2009 
L 1997 1497 
L 313 1497 
L 313 2009 
z
" transform="scale(0.015625)"/>
        <path id="DejaVuSans-33" d="M 2597 2516 
Q 3050 2419 3304 2112 
Q 3559 1806 3559 1356 
Q 3559 666 3084 287 
Q 2609 -91 1734 -91 
Q 1441 -91 1130 -33 
Q 819 25 488 141 
L 488 750 
Q 750 597 1062 519 
Q 1375 441 1716 441 
Q 2309 441 2620 675 
Q 2931 909 2931 1356 
Q 2931 1769 2642 2001 
Q 2353 2234 1838 2234 
L 1294 2234 
L 1294 2753 
L 1863 2753 
Q 2328 2753 2575 2939 
Q 2822 3125 2822 3475 
Q 2822 3834 2567 4026 
Q 2313 4219 1838 4219 
Q 1578 4219 1281 4162 
Q 984 4106 628 3988 
L 628 4550 
Q 988 4650 1302 4700 
Q 1616 4750 1894 4750 
Q 2613 4750 3031 4423 
Q 3450 4097 3450 3541 
Q 3450 3153 3228 2886 
Q 3006 2619 2597 2516 
z
" transform="scale(0.015625)"/>
       </defs>
       <use xlink:href="#DejaVuSans-32"/>
       <use xlink:href="#DejaVuSans-30" transform="translate(63.623047 0)"/>
       <use xlink:href="#DejaVuSans-32" transform="translate(127.246094 0)"/>
       <use xlink:href="#DejaVuSans-34" transform="translate(190.869141 0)"/>
       <use xlink:href="#DejaVuSans-2d" transform="translate(254.492188 0)"/>
       <use xlink:href="#DejaVuSans-30" transform="translate(290.576172 0)"/>
       <use xlink:href="#DejaVuSans-33" transform="translate(354.199219 0)"/>
      </g>
     </g>
    </g>
    <g id="xtick_2">
     <g id="line2d_2">
      <g>
       <use xlink:href="#m5c1451d857" x="277.537718" y="224.28" style="stroke: #000000; stroke-width: 0.8"/>
      </g>
     </g>
     <g id="text_2">
      <!-- 2024-05 -->
      <g transform="translate(256.646312 238.878438) scale(0.1 -0.1)">
       <defs>
        <path id="DejaVuSans-35" d="M 691 4666 
L 3169 4666 
L 3169 4134 
L 1269 4134 
L 1269 2991 
Q 1406 3038 1543 3061 
Q 1681 3084 1819 3084 
Q 2600 3084 3056 2656 
Q 3513 2228 3513 1497 
Q 3513 744 3044 326 
Q 2575 -91 1722 -91 
Q 1428 -91 1123 -41 
Q 819 9 494 109 
L 494 744 
Q 775 591 1075 516 
Q 1375 441 1709 441 
Q 2250 441 2565 725 
Q 2881 1009 2881 1497 
Q 2881 1984 2565 2268 
Q 2250 2553 1709 2553 
Q 1456 2553 1204 2497 
Q 953 2441 691 2322 
L 691 4666 
z
" transform="scale(0.015625)"/>
       </defs>
       <use xlink:href="#DejaVuSans-32"/>
       <use xlink:href="#DejaVuSans-30" transform="translate(63.623047 0)"/>
       <use xlink:href="#DejaVuSans-32" transform="translate(127.246094 0)"/>
       <use xlink:href="#DejaVuSans-34" transform="translate(190.869141 0)"/>
       <use xlink:href="#DejaVuSans-2d" transform="translate(254.492188 0)"/>
       <use xlink:href="#DejaVuSans-30" transform="translate(290.576172 0)"/>
       <use xlink:href="#DejaVuSans-35" transform="translate(354.199219 0)"/>
      </g>
     </g>
    </g>
    <g id="xtick_3">
     <g id="line2d_3">
      <g>
       <use xlink:href="#m5c1451d857" x="368.186346" y="224.28" style="stroke: #000000; stroke-width: 0.8"/>
      </g>
     </g>
     <g id="text_3">
      <!-- 2024-07 -->
      <g transform="translate(347.294939 238.878438) scale(0.1 -0.1)">
       <defs>
        <path id="DejaVuSans-37" d="M 525 4666 
L 3525 4666 
L 3525 4397 
L 1831 0 
L 1172 0 
L 2766 4134 
L 525 4134 
L 525 4666 
z
" transform="scale(0.015625)"/>
       </defs>
       <use xlink:href="#DejaVuSans-32"/>
       <use xlink:href="#DejaVuSans-30" transform="translate(63.623047 0)"/>
       <use xlink:href="#DejaVuSans-32" transform="translate(127.246094 0)"/>
       <use xlink:href="#DejaVuSans-34" transform="translate(190.869141 0)"/>
       <use xlink:href="#DejaVuSans-2d" transform="translate(254.492188 0)"/>
       <use xlink:href="#DejaVuSans-30" transform="translate(290.576172 0)"/>
       <use xlink:href="#DejaVuSans-37" transform="translate(354.199219 0)"/>
      </g>
     </g>
    </g>
    <g id="xtick_4">
     <g id="line2d_4">
      <g>
       <use xlink:href="#m5c1451d857" x="460.321016" y="224.28" style="stroke: #000000; stroke-width: 0.8"/>
      </g>
     </g>
     <g id="text_4">
      <!-- 2024-09 -->
      <g transform="translate(439.42961 238.878438) scale(0.1 -0.1)">
       <defs>
        <path id="DejaVuSans-39" d="M 703 97 
L 703 672 
Q 941 559 1184 500 
Q 1428 441 1663 441 
Q 2288 441 2617 861 
Q 2947 1281 2994 2138 
Q 2813 1869 2534 1725 
Q 2256 1581 1919 1581 
Q 1219 1581 811 2004 
Q 403 2428 403 3163 
Q 403 3881 828 4315 
Q 1253 4750 1959 4750 
Q 2769 4750 3195 4129 
Q 3622 3509 3622 2328 
Q 3622 1225 3098 567 
Q 2575 -91 1691 -91 
Q 1453 -91 1209 -44 
Q 966 3 703 97 
z
M 1959 2075 
Q 2384 2075 2632 2365 
Q 2881 2656 2881 3163 
Q 2881 3666 2632 3958 
Q 2384 4250 1959 4250 
Q 1534 4250 1286 3958 
Q 1038 3666 1038 3163 
Q 1038 2656 1286 2365 
Q 1534 2075 1959 2075 
z
" transform="scale(0.015625)"/>
       </defs>
       <use xlink:href="#DejaVuSans-32"/>
       <use xlink:href="#DejaVuSans-30" transform="translate(63.623047 0)"/>
       <use xlink:href="#DejaVuSans-32" transform="translate(127.246094 0)"/>
       <use xlink:href="#DejaVuSans-34" transform="translate(190.869141 0)"/>
       <use xlink:href="#DejaVuSans-2d" transform="translate(254.492188 0)"/>
       <use xlink:href="#DejaVuSans-30" transform="translate(290.576172 0)"/>
       <use xlink:href="#DejaVuSans-39" transform="translate(354.199219 0)"/>
      </g>
     </g>
    </g>
    <g id="xtick_5">
     <g id="line2d_5">
      <g>
       <use xlink:href="#m5c1451d857" x="550.969643" y="224.28" style="stroke: #000000; stroke-width: 0.8"/>
      </g>
     </g>
     <g id="text_5">
      <!-- 2024-11 -->
      <g transform="translate(530.078237 238.878438) scale(0.1 -0.1)">
       <defs>
        <path id="DejaVuSans-31" d="M 794 531 
L 1825 531 
L 1825 4091 
L 703 3866 
L 703 4441 
L 1819 4666 
L 2450 4666 
L 2450 531 
L 3481 531 
L 3481 0 
L 794 0 
L 794 531 
z
" transform="scale(0.015625)"/>
       </defs>
       <use xlink:href="#DejaVuSans-32"/>
       <use xlink:href="#DejaVuSans-30" transform="translate(63.623047 0)"/>
       <use xlink:href="#DejaVuSans-32" transform="translate(127.246094 0)"/>
       <use xlink:href="#DejaVuSans-34" transform="translate(190.869141 0)"/>
       <use xlink:href="#DejaVuSans-2d" transform="translate(254.492188 0)"/>
       <use xlink:href="#DejaVuSans-31" transform="translate(290.576172 0)"/>
       <use xlink:href="#DejaVuSans-31" transform="translate(354.199219 0)"/>
      </g>
     </g>
    </g>
    <g id="xtick_6">
     <g id="line2d_6">
      <g>
       <use xlink:href="#m5c1451d857" x="641.618271" y="224.28" style="stroke: #000000; stroke-width: 0.8"/>
      </g>
     </g>
     <g id="text_6">
      <!-- 2025-01 -->
      <g transform="translate(620.726864 238.878438) scale(0.1 -0.1)">
       <use xlink:href="#DejaVuSans-32"/>
       <use xlink:href="#DejaVuSans-30" transform="translate(63.623047 0)"/>
       <use xlink:href="#DejaVuSans-32" transform="translate(127.246094 0)"/>
       <use xlink:href="#DejaVuSans-35" transform="translate(190.869141 0)"/>
       <use xlink:href="#DejaVuSans-2d" transform="translate(254.492188 0)"/>
       <use xlink:href="#DejaVuSans-30" transform="translate(290.576172 0)"/>
       <use xlink:href="#DejaVuSans-31" transform="translate(354.199219 0)"/>
      </g>
     </g>
    </g>
    <g id="xtick_7">
     <g id="line2d_7">
      <g>
       <use xlink:href="#m5c1451d857" x="729.294812" y="224.28" style="stroke: #000000; stroke-width: 0.8"/>
      </g>
     </g>
     <g id="text_7">
      <!-- 2025-03 -->
      <g transform="translate(708.403406 238.878438) scale(0.1 -0.1)">
       <use xlink:href="#DejaVuSans-32"/>
       <use xlink:href="#DejaVuSans-30" transform="translate(63.623047 0)"/>
       <use xlink:href="#DejaVuSans-32" transform="translate(127.246094 0)"/>
       <use xlink:href="#DejaVuSans-35" transform="translate(190.869141 0)"/>
       <use xlink:href="#DejaVuSans-2d" transform="translate(254.492188 0)"/>
       <use xlink:href="#DejaVuSans-30" transform="translate(290.576172 0)"/>
       <use xlink:href="#DejaVuSans-33" transform="translate(354.199219 0)"/>
      </g>
     </g>
    </g>
    <g id="xtick_8">
     <g id="line2d_8">
      <g>
       <use xlink:href="#m5c1451d857" x="819.943439" y="224.28" style="stroke: #000000; stroke-width: 0.8"/>
      </g>
     </g>
     <g id="text_8">
      <!-- 2025-05 -->
      <g transform="translate(799.052033 238.878438) scale(0.1 -0.1)">
       <use xlink:href="#DejaVuSans-32"/>
       <use xlink:href="#DejaVuSans-30" transform="translate(63.623047 0)"/>
       <use xlink:href="#DejaVuSans-32" transform="translate(127.246094 0)"/>
       <use xlink:href="#DejaVuSans-35" transform="translate(190.869141 0)"/>
       <use xlink:href="#DejaVuSans-2d" transform="translate(254.492188 0)"/>
       <use xlink:href="#DejaVuSans-30" transform="translate(290.576172 0)"/>
       <use xlink:href="#DejaVuSans-35" transform="translate(354.199219 0)"/>
      </g>
     </g>
    </g>
    <g id="xtick_9">
     <g id="line2d_9">
      <g>
       <use xlink:href="#m5c1451d857" x="910.592066" y="224.28" style="stroke: #000000; stroke-width: 0.8"/>
      </g>
     </g>
     <g id="text_9">
      <!-- 2025-07 -->
      <g transform="translate(889.70066 238.878438) scale(0.1 -0.1)">
       <use xlink:href="#DejaVuSans-32"/>
       <use xlink:href="#DejaVuSans-30" transform="translate(63.623047 0)"/>
       <use xlink:href="#DejaVuSans-32" transform="translate(127.246094 0)"/>
       <use xlink:href="#DejaVuSans-35" transform="translate(190.869141 0)"/>
       <use xlink:href="#DejaVuSans-2d" transform="translate(254.492188 0)"/>
       <use xlink:href="#DejaVuSans-30" transform="translate(290.576172 0)"/>
       <use xlink:href="#DejaVuSans-37" transform="translate(354.199219 0)"/>
      </g>
     </g>
    </g>
    <g id="xtick_10">
     <g id="line2d_10">
      <g>
       <use xlink:href="#m5c1451d857" x="1002.726737" y="224.28" style="stroke: #000000; stroke-width: 0.8"/>
      </g>
     </g>
     <g id="text_10">
      <!-- 2025-09 -->
      <g transform="translate(981.835331 238.878438) scale(0.1 -0.1)">
       <use xlink:href="#DejaVuSans-32"/>
       <use xlink:href="#DejaVuSans-30" transform="translate(63.623047 0)"/>
       <use xlink:href="#DejaVuSans-32" transform="translate(127.246094 0)"/>
       <use xlink:href="#DejaVuSans-35" transform="translate(190.869141 0)"/>
       <use xlink:href="#DejaVuSans-2d" transform="translate(254.492188 0)"/>
       <use xlink:href="#DejaVuSans-30" transform="translate(290.576172 0)"/>
       <use xlink:href="#DejaVuSans-39" transform="translate(354.199219 0)"/>
      </g>
     </g>
    </g>
   </g>
   <g id="matplotlib.axis_2">
    <g id="ytick_1">
     <g id="line2d_11">
      <defs>
       <path id="m8f6488df05" d="M 0 0 
L -3.5 0 
" style="stroke: #000000; stroke-width: 0.8"/>
      </defs>
      <g>
       <use xlink:href="#m8f6488df05" x="145.8" y="216.977317" style="stroke: #000000; stroke-width: 0.8"/>
      </g>
     </g>
     <g id="text_11">
      <!-- 20 -->
      <g transform="translate(126.075 220.776536) scale(0.1 -0.1)">
       <use xlink:href="#DejaVuSans-32"/>
       <use xlink:href="#DejaVuSans-30" transform="translate(63.623047 0)"/>
      </g>
     </g>
    </g>
    <g id="ytick_2">
     <g id="line2d_12">
      <g>
       <use xlink:href="#m8f6488df05" x="145.8" y="192.495079" style="stroke: #000000; stroke-width: 0.8"/>
      </g>
     </g>
     <g id="text_12">
      <!-- 30 -->
      <g transform="translate(126.075 196.294298) scale(0.1 -0.1)">
       <use xlink:href="#DejaVuSans-33"/>
       <use xlink:href="#DejaVuSans-30" transform="translate(63.623047 0)"/>
      </g>
     </g>
    </g>
    <g id="ytick_3">
     <g id="line2d_13">
      <g>
       <use xlink:href="#m8f6488df05" x="145.8" y="168.012842" style="stroke: #000000; stroke-width: 0.8"/>
      </g>
     </g>
     <g id="text_13">
      <!-- 40 -->
      <g transform="translate(126.075 171.812061) scale(0.1 -0.1)">
       <use xlink:href="#DejaVuSans-34"/>
       <use xlink:href="#DejaVuSans-30" transform="translate(63.623047 0)"/>
      </g>
     </g>
    </g>
    <g id="ytick_4">
     <g id="line2d_14">
      <g>
       <use xlink:href="#m8f6488df05" x="145.8" y="143.530604" style="stroke: #000000; stroke-width: 0.8"/>
      </g>
     </g>
     <g id="text_14">
      <!-- 50 -->
      <g transform="translate(126.075 147.329823) scale(0.1 -0.1)">
       <use xlink:href="#DejaVuSans-35"/>
       <use xlink:href="#DejaVuSans-30" transform="translate(63.623047 0)"/>
      </g>
     </g>
    </g>
    <g id="ytick_5">
     <g id="line2d_15">
      <g>
       <use xlink:href="#m8f6488df05" x="145.8" y="119.048367" style="stroke: #000000; stroke-width: 0.8"/>
      </g>
     </g>
     <g id="text_15">
      <!-- 60 -->
      <g transform="translate(126.075 122.847585) scale(0.1 -0.1)">
       <defs>
        <path id="DejaVuSans-36" d="M 2113 2584 
Q 1688 2584 1439 2293 
Q 1191 2003 1191 1497 
Q 1191 994 1439 701 
Q 1688 409 2113 409 
Q 2538 409 2786 701 
Q 3034 994 3034 1497 
Q 3034 2003 2786 2293 
Q 2538 2584 2113 2584 
z
M 3366 4563 
L 3366 3988 
Q 3128 4100 2886 4159 
Q 2644 4219 2406 4219 
Q 1781 4219 1451 3797 
Q 1122 3375 1075 2522 
Q 1259 2794 1537 2939 
Q 1816 3084 2150 3084 
Q 2853 3084 3261 2657 
Q 3669 2231 3669 1497 
Q 3669 778 3244 343 
Q 2819 -91 2113 -91 
Q 1303 -91 875 529 
Q 447 1150 447 2328 
Q 447 3434 972 4092 
Q 1497 4750 2381 4750 
Q 2619 4750 2861 4703 
Q 3103 4656 3366 4563 
z
" transform="scale(0.015625)"/>
       </defs>
       <use xlink:href="#DejaVuSans-36"/>
       <use xlink:href="#DejaVuSans-30" transform="translate(63.623047 0)"/>
      </g>
     </g>
    </g>
    <g id="ytick_6">
     <g id="line2d_16">
      <g>
       <use xlink:href="#m8f6488df05" x="145.8" y="94.566129" style="stroke: #000000; stroke-width: 0.8"/>
      </g>
     </g>
     <g id="text_16">
      <!-- 70 -->
      <g transform="translate(126.075 98.365348) scale(0.1 -0.1)">
       <use xlink:href="#DejaVuSans-37"/>
       <use xlink:href="#DejaVuSans-30" transform="translate(63.623047 0)"/>
      </g>
     </g>
    </g>
    <g id="ytick_7">
     <g id="line2d_17">
      <g>
       <use xlink:href="#m8f6488df05" x="145.8" y="70.083891" style="stroke: #000000; stroke-width: 0.8"/>
      </g>
     </g>
     <g id="text_17">
      <!-- 80 -->
      <g transform="translate(126.075 73.88311) scale(0.1 -0.1)">
       <defs>
        <path id="DejaVuSans-38" d="M 2034 2216 
Q 1584 2216 1326 1975 
Q 1069 1734 1069 1313 
Q 1069 891 1326 650 
Q 1584 409 2034 409 
Q 2484 409 2743 651 
Q 3003 894 3003 1313 
Q 3003 1734 2745 1975 
Q 2488 2216 2034 2216 
z
M 1403 2484 
Q 997 2584 770 2862 
Q 544 3141 544 3541 
Q 544 4100 942 4425 
Q 1341 4750 2034 4750 
Q 2731 4750 3128 4425 
Q 3525 4100 3525 3541 
Q 3525 3141 3298 2862 
Q 3072 2584 2669 2484 
Q 3125 2378 3379 2068 
Q 3634 1759 3634 1313 
Q 3634 634 3220 271 
Q 2806 -91 2034 -91 
Q 1263 -91 848 271 
Q 434 634 434 1313 
Q 434 1759 690 2068 
Q 947 2378 1403 2484 
z
M 1172 3481 
Q 1172 3119 1398 2916 
Q 1625 2713 2034 2713 
Q 2441 2713 2670 2916 
Q 2900 3119 2900 3481 
Q 2900 3844 2670 4047 
Q 2441 4250 2034 4250 
Q 1625 4250 1398 4047 
Q 1172 3844 1172 3481 
z
" transform="scale(0.015625)"/>
       </defs>
       <use xlink:href="#DejaVuSans-38"/>
       <use xlink:href="#DejaVuSans-30" transform="translate(63.623047 0)"/>
      </g>
     </g>
    </g>
    <g id="ytick_8">
     <g id="line2d_18">
      <g>
       <use xlink:href="#m8f6488df05" x="145.8" y="45.601654" style="stroke: #000000; stroke-width: 0.8"/>
      </g>
     </g>
     <g id="text_18">
      <!-- 90 -->
      <g transform="translate(126.075 49.400872) scale(0.1 -0.1)">
       <use xlink:href="#DejaVuSans-39"/>
       <use xlink:href="#DejaVuSans-30" transform="translate(63.623047 0)"/>
      </g>
     </g>
    </g>
   </g>
   <g id="line2d_19">
    <path d="M 186.889091 95.944994 
L 192.833263 86.205988 
L 194.319306 84.14976 
L 195.805349 69.832976 
L 197.291392 95.899156 
L 201.749522 89.4219 
L 203.235565 70.712605 
L 204.721608 94.830023 
L 206.207651 110.380748 
L 207.693694 111.608543 
L 212.151823 108.166247 
L 213.637866 100.866882 
L 215.123909 102.007497 
L 216.609952 107.479059 
L 218.095995 107.768438 
L 222.554125 107.818796 
L 224.040168 128.127985 
L 225.526211 153.731899 
L 227.012254 129.101628 
L 232.956426 118.277981 
L 234.442469 161.233751 
L 235.928512 157.821823 
L 237.414555 158.571109 
L 238.900598 142.404635 
L 243.358728 152.116522 
L 244.844771 168.679569 
L 246.330814 163.535304 
L 247.816857 147.906806 
L 249.3029 176.756073 
L 253.761029 189.522211 
L 255.247072 171.002336 
L 256.733115 175.231261 
L 258.219158 171.901431 
L 259.705201 196.07837 
L 264.163331 177.88176 
L 265.649374 164.70338 
L 267.135417 163.858431 
L 268.62146 160.687803 
L 270.107503 141.800105 
L 274.565632 136.325682 
L 276.051675 145.456042 
L 277.537718 166.550534 
L 280.509804 135.289837 
L 284.967934 130.188525 
L 286.453977 124.32812 
L 287.94002 126.416313 
L 289.426063 98.696105 
L 290.912106 103.986412 
L 295.370235 110.641251 
L 296.856278 92.283477 
L 298.342321 91.478946 
L 299.828364 108.855118 
L 301.314407 120.631271 
L 305.772537 104.369203 
L 307.25858 79.041781 
L 308.744623 90.528139 
L 310.230666 75.403349 
L 311.716709 76.809515 
L 317.660881 54.59539 
L 319.146924 52.74407 
L 320.632967 68.684264 
L 322.11901 75.050669 
L 326.57714 68.54276 
L 328.063183 67.982641 
L 329.549226 65.033676 
L 331.035269 70.315821 
L 332.521312 62.219824 
L 336.979441 63.609725 
L 338.465484 68.456478 
L 339.951527 62.098892 
L 341.43757 66.529934 
L 342.923613 66.976566 
L 347.381743 82.214665 
L 348.867786 76.271748 
L 351.839872 78.627823 
L 353.325915 93.677392 
L 357.784044 134.988591 
L 359.270087 120.449791 
L 360.75613 132.862369 
L 362.242173 135.631806 
L 363.728216 136.577201 
L 368.186346 136.927907 
L 369.672389 138.993076 
L 371.158432 135.804663 
L 374.130518 153.409221 
L 378.588647 153.127459 
L 380.07469 142.535801 
L 381.560733 145.233927 
L 383.046776 151.6657 
L 384.532819 136.790231 
L 388.990949 112.560624 
L 390.476992 142.584379 
L 391.963035 167.477502 
L 393.449078 151.657674 
L 394.935121 158.333944 
L 399.39325 145.346238 
L 400.879293 143.724303 
L 402.365336 175.758552 
L 403.851379 174.938869 
L 405.337422 179.713749 
L 409.795552 192.460428 
L 411.281595 214.421699 
L 412.767638 164.84272 
L 414.253681 180.912789 
L 415.739724 182.365377 
L 420.197853 187.90831 
L 421.683896 168.671565 
L 423.169939 182.799913 
L 424.655982 165.552382 
L 426.142025 178.040853 
L 430.600155 167.271058 
L 432.086198 140.165405 
L 433.572241 133.19903 
L 435.058284 127.034025 
L 436.544327 121.739132 
L 441.002456 97.936648 
L 442.488499 122.655964 
L 443.974542 99.33606 
L 445.460585 107.688582 
L 446.946628 79.234672 
L 451.404758 93.341279 
L 452.890801 72.528672 
L 454.376844 90.114776 
L 455.862887 115.005007 
L 457.34893 119.448555 
L 463.293102 161.054824 
L 464.779145 169.152572 
L 466.265188 179.724381 
L 467.751231 191.424894 
L 472.209361 197.058404 
L 473.695404 188.020532 
L 475.181447 167.078246 
L 476.66749 153.262834 
L 478.153533 167.617856 
L 482.611662 166.492922 
L 484.097705 174.07327 
L 485.583748 173.21742 
L 487.069791 142.773648 
L 488.555834 152.281673 
L 493.013964 115.324993 
L 494.500007 97.141078 
L 495.98605 94.050955 
L 497.472093 72.366141 
L 498.958136 92.016256 
L 503.416265 95.340288 
L 504.902308 143.116218 
L 506.388351 144.748446 
L 507.874394 129.666445 
L 509.360437 113.207196 
L 513.818566 100.454048 
L 515.30461 79.675246 
L 516.790653 88.969751 
L 518.276696 74.694856 
L 519.762739 75.172011 
L 524.220868 77.445396 
L 525.706911 115.783138 
L 527.192954 107.131373 
L 528.678997 93.304837 
L 530.16504 91.392519 
L 534.623169 62.095943 
L 536.109213 64.705679 
L 537.595256 90.331907 
L 539.081299 92.599934 
L 540.567342 95.956896 
L 545.025471 113.794852 
L 546.511514 110.529442 
L 547.997557 126.010168 
L 549.4836 150.064348 
L 550.969643 152.225482 
L 555.427772 126.384537 
L 556.913816 127.253095 
L 558.399859 114.015885 
L 559.885902 108.665784 
L 561.371945 129.308595 
L 565.830074 137.850549 
L 567.316117 112.989051 
L 568.80216 123.692927 
L 570.288203 125.541131 
L 571.774246 138.980759 
L 576.232375 146.865285 
L 577.718419 122.818177 
L 579.204462 103.218085 
L 580.690505 107.235517 
L 582.176548 126.367488 
L 586.634677 154.316091 
L 589.606763 187.541494 
L 592.578849 172.732419 
L 597.036978 165.271493 
L 598.523022 170.888188 
L 600.009065 147.096608 
L 601.495108 148.922115 
L 602.981151 141.942294 
L 607.43928 147.8152 
L 608.925323 185.388415 
L 610.411366 164.690041 
L 611.897409 172.635379 
L 613.383452 168.587815 
L 617.841581 158.017465 
L 619.327625 166.60023 
L 620.813668 166.312565 
L 622.299711 171.273552 
L 623.785754 156.501224 
L 628.243883 145.2917 
L 629.729926 160.221461 
L 632.702012 160.863491 
L 634.188055 161.726499 
L 638.646184 148.371278 
L 640.132228 146.438064 
L 643.104314 147.283219 
L 644.590357 119.819864 
L 649.048486 95.490301 
L 650.534529 121.736489 
L 652.020572 116.574641 
L 654.992658 125.244639 
L 659.450787 136.996157 
L 660.936831 151.489233 
L 662.422874 152.917318 
L 663.908917 160.905925 
L 665.39496 148.890603 
L 671.339132 134.34372 
L 672.825175 122.833433 
L 674.311218 114.006688 
L 675.797261 133.794657 
L 680.25539 187.678628 
L 681.741434 175.674497 
L 683.227477 170.784636 
L 684.71352 168.844627 
L 686.199563 169.335675 
L 690.657692 170.265171 
L 692.143735 164.5387 
L 693.629778 161.416532 
L 695.115821 151.081934 
L 696.601864 156.158441 
L 701.059993 155.087221 
L 702.546036 167.985428 
L 704.03208 170.516779 
L 705.518123 155.908495 
L 707.004166 95.298014 
L 712.948338 113.066846 
L 714.434381 91.745124 
L 715.920424 91.88003 
L 717.406467 96.953441 
L 721.864596 100.203194 
L 723.350639 119.194784 
L 724.836683 123.081181 
L 726.322726 166.284215 
L 727.808769 155.697497 
L 732.266898 185.703329 
L 735.238984 173.025206 
L 736.725027 193.947154 
L 738.21107 198.19558 
L 742.669199 205.792424 
L 744.155242 200.605821 
L 745.641286 185.257855 
L 747.127329 178.503679 
L 748.613372 159.036952 
L 753.071501 156.605104 
L 754.557544 172.987695 
L 756.043587 149.177096 
L 757.52963 158.257914 
L 759.015673 133.135639 
L 763.473802 128.681393 
L 764.959845 134.107577 
L 766.445889 134.70355 
L 767.931932 146.961234 
L 769.417975 135.39842 
L 773.876104 144.658671 
L 775.362147 163.120606 
L 776.84819 161.556917 
L 778.334233 208.271356 
L 779.820276 215.46 
L 784.278405 195.195969 
L 785.764448 206.273703 
L 787.250492 152.331135 
L 788.736535 162.800621 
L 790.222578 163.575457 
L 794.680707 162.769428 
L 796.16675 146.819656 
L 797.652793 156.921752 
L 799.138836 159.01181 
L 805.083008 164.187608 
L 806.569051 163.74695 
L 808.055095 156.68815 
L 809.541138 135.049924 
L 811.027181 111.548936 
L 815.48531 121.937779 
L 816.971353 118.343455 
L 818.457396 158.619334 
L 819.943439 131.111188 
L 821.429482 132.424928 
L 825.887611 133.967702 
L 827.373654 139.281079 
L 828.859698 98.813678 
L 830.345741 82.247776 
L 831.831784 56.797085 
L 836.289913 51.959615 
L 837.775956 49.245612 
L 839.261999 47.961972 
L 840.748042 55.064784 
L 842.234085 39.06 
L 846.692214 39.129151 
L 848.178257 46.802277 
L 849.664301 66.561417 
L 851.150344 69.355523 
L 852.636387 74.789962 
L 858.580559 66.814104 
L 860.066602 76.073369 
L 861.552645 69.908473 
L 863.038688 86.434237 
L 867.496817 93.973389 
L 868.98286 100.915079 
L 870.468904 114.473418 
L 871.954947 121.854458 
L 873.44099 117.99796 
L 877.899119 115.688368 
L 879.385162 105.919929 
L 880.871205 98.059335 
L 882.357248 95.216768 
L 883.843291 103.081102 
L 888.30142 107.037823 
L 889.787463 106.417819 
L 891.273506 115.710253 
L 894.245593 101.27627 
L 898.703722 107.898534 
L 900.189765 108.308087 
L 901.675808 91.116819 
L 903.161851 77.162627 
L 904.647894 75.212371 
L 909.106023 76.503394 
L 910.592066 107.114976 
L 912.078109 92.007855 
L 913.564153 92.173777 
L 919.508325 81.774589 
L 920.994368 83.635548 
L 922.480411 75.184272 
L 923.966454 75.410484 
L 925.452497 64.535062 
L 929.910626 70.113322 
L 931.396669 66.175347 
L 932.882712 74.69946 
L 934.368756 73.122569 
L 935.854799 81.904552 
L 940.312928 88.729934 
L 941.798971 86.692347 
L 943.285014 87.13887 
L 944.771057 85.239477 
L 946.2571 79.950117 
L 950.715229 77.110529 
L 952.201272 90.637951 
L 953.687315 85.079951 
L 955.173359 94.528333 
L 956.659402 110.395502 
L 961.117531 111.280651 
L 962.603574 120.340831 
L 964.089617 121.639832 
L 965.57566 115.615813 
L 967.061703 106.637844 
L 971.519832 89.17793 
L 973.005875 94.95852 
L 974.491918 111.295606 
L 975.977962 108.765862 
L 977.464005 127.53766 
L 981.922134 115.748779 
L 983.408177 157.749893 
L 984.89422 153.578976 
L 986.380263 137.679419 
L 987.866306 154.186532 
L 992.324435 135.341675 
L 993.810478 131.529492 
L 995.296521 139.072447 
L 996.782565 157.42471 
L 998.268608 178.429272 
L 1004.21278 194.146818 
L 1007.184866 187.050806 
L 1008.670909 194.57004 
L 1008.670909 194.57004 
" clip-path="url(#p3929867166)" style="fill: none; stroke: #1f77b4; stroke-width: 1.5; stroke-linecap: square"/>
   </g>
   <g id="patch_3">
    <path d="M 145.8 224.28 
L 145.8 30.24 
" style="fill: none; stroke: #000000; stroke-width: 0.8; stroke-linejoin: miter; stroke-linecap: square"/>
   </g>
   <g id="patch_4">
    <path d="M 145.8 224.28 
L 1049.76 224.28 
" style="fill: none; stroke: #000000; stroke-width: 0.8; stroke-linejoin: miter; stroke-linecap: square"/>
   </g>
  </g>
 </g>
 <defs>
  <clipPath id="p3929867166">
   <rect x="145.8" y="30.24" width="903.96" height="194.04"/>
  </clipPath>
 </defs>
</svg>
