<?xml version="1.0" encoding="utf-8" standalone="no"?>
<!DOCTYPE svg PUBLIC "-//W3C//DTD SVG 1.1//EN"
  "http://www.w3.org/Graphics/SVG/1.1/DTD/svg11.dtd">
<svg xmlns:xlink="http://www.w3.org/1999/xlink" width="1166.4pt" height="252pt" viewBox="0 0 1166.4 252" xmlns="http://www.w3.org/2000/svg" version="1.1">
 <metadata>
  <rdf:RDF xmlns:dc="http://purl.org/dc/elements/1.1/" xmlns:cc="http://creativecommons.org/ns#" xmlns:rdf="http://www.w3.org/1999/02/22-rdf-syntax-ns#">
   <cc:Work>
    <dc:type rdf:resource="http://purl.org/dc/dcmitype/StillImage"/>
    <dc:date>2025-09-06T14:16:13.881310</dc:date>
    <dc:format>image/svg+xml</dc:format>
    <dc:creator>
     <cc:Agent>
      <dc:title>Matplotlib v3.10.5, https://matplotlib.org/</dc:title>
     </cc:Agent>
    </dc:creator>
   </cc:Work>
  </rdf:RDF>
 </metadata>
 <defs>
  <style type="text/css">*{stroke-linejoin: round; stroke-linecap: butt}</style>
 </defs>
 <g id="figure_1">
  <g id="patch_1">
   <path d="M 0 252 
L 1166.4 252 
L 1166.4 0 
L 0 0 
z
" style="fill: #ffffff"/>
  </g>
  <g id="axes_1">
   <g id="patch_2">
    <path d="M 145.8 224.28 
L 1049.76 224.28 
L 1049.76 30.24 
L 145.8 30.24 
z
" style="fill: #ffffff"/>
   </g>
   <g id="matplotlib.axis_1">
    <g id="xtick_1">
     <g id="line2d_1">
      <defs>
       <path id="m4fca4be001" d="M 0 0 
L 0 3.5 
" style="stroke: #000000; stroke-width: 0.8"/>
      </defs>
      <g>
       <use xlink:href="#m4fca4be001" x="189.861177" y="224.28" style="stroke: #000000; stroke-width: 0.8"/>
      </g>
     </g>
     <g id="text_1">
      <!-- 2024-03 -->
      <g transform="translate(168.969771 238.878438) scale(0.1 -0.1)">
       <defs>
        <path id="DejaVuSans-32" d="M 1228 531 
L 3431 531 
L 3431 0 
L 469 0 
L 469 531 
Q 828 903 1448 1529 
Q 2069 2156 2228 2338 
Q 2531 2678 2651 2914 
Q 2772 3150 2772 3378 
Q 2772 3750 2511 3984 
Q 2250 4219 1831 4219 
Q 1534 4219 1204 4116 
Q 875 4013 500 3803 
L 500 4441 
Q 881 4594 1212 4672 
Q 1544 4750 1819 4750 
Q 2544 4750 2975 4387 
Q 3406 4025 3406 3419 
Q 3406 3131 3298 2873 
Q 3191 2616 2906 2266 
Q 2828 2175 2409 1742 
Q 1991 1309 1228 531 
z
" transform="scale(0.015625)"/>
        <path id="DejaVuSans-30" d="M 2034 4250 
Q 1547 4250 1301 3770 
Q 1056 3291 1056 2328 
Q 1056 1369 1301 889 
Q 1547 409 2034 409 
Q 2525 409 2770 889 
Q 3016 1369 3016 2328 
Q 3016 3291 2770 3770 
Q 2525 4250 2034 4250 
z
M 2034 4750 
Q 2819 4750 3233 4129 
Q 3647 3509 3647 2328 
Q 3647 1150 3233 529 
Q 2819 -91 2034 -91 
Q 1250 -91 836 529 
Q 422 1150 422 2328 
Q 422 3509 836 4129 
Q 1250 4750 2034 4750 
z
" transform="scale(0.015625)"/>
        <path id="DejaVuSans-34" d="M 2419 4116 
L 825 1625 
L 2419 1625 
L 2419 4116 
z
M 2253 4666 
L 3047 4666 
L 3047 1625 
L 3713 1625 
L 3713 1100 
L 3047 1100 
L 3047 0 
L 2419 0 
L 2419 1100 
L 313 1100 
L 313 1709 
L 2253 4666 
z
" transform="scale(0.015625)"/>
        <path id="DejaVuSans-2d" d="M 313 2009 
L 1997 2009 
L 1997 1497 
L 313 1497 
L 313 2009 
z
" transform="scale(0.015625)"/>
        <path id="DejaVuSans-33" d="M 2597 2516 
Q 3050 2419 3304 2112 
Q 3559 1806 3559 1356 
Q 3559 666 3084 287 
Q 2609 -91 1734 -91 
Q 1441 -91 1130 -33 
Q 819 25 488 141 
L 488 750 
Q 750 597 1062 519 
Q 1375 441 1716 441 
Q 2309 441 2620 675 
Q 2931 909 2931 1356 
Q 2931 1769 2642 2001 
Q 2353 2234 1838 2234 
L 1294 2234 
L 1294 2753 
L 1863 2753 
Q 2328 2753 2575 2939 
Q 2822 3125 2822 3475 
Q 2822 3834 2567 4026 
Q 2313 4219 1838 4219 
Q 1578 4219 1281 4162 
Q 984 4106 628 3988 
L 628 4550 
Q 988 4650 1302 4700 
Q 1616 4750 1894 4750 
Q 2613 4750 3031 4423 
Q 3450 4097 3450 3541 
Q 3450 3153 3228 2886 
Q 3006 2619 2597 2516 
z
" transform="scale(0.015625)"/>
       </defs>
       <use xlink:href="#DejaVuSans-32"/>
       <use xlink:href="#DejaVuSans-30" transform="translate(63.623047 0)"/>
       <use xlink:href="#DejaVuSans-32" transform="translate(127.246094 0)"/>
       <use xlink:href="#DejaVuSans-34" transform="translate(190.869141 0)"/>
       <use xlink:href="#DejaVuSans-2d" transform="translate(254.492188 0)"/>
       <use xlink:href="#DejaVuSans-30" transform="translate(290.576172 0)"/>
       <use xlink:href="#DejaVuSans-33" transform="translate(354.199219 0)"/>
      </g>
     </g>
    </g>
    <g id="xtick_2">
     <g id="line2d_2">
      <g>
       <use xlink:href="#m4fca4be001" x="280.509804" y="224.28" style="stroke: #000000; stroke-width: 0.8"/>
      </g>
     </g>
     <g id="text_2">
      <!-- 2024-05 -->
      <g transform="translate(259.618398 238.878438) scale(0.1 -0.1)">
       <defs>
        <path id="DejaVuSans-35" d="M 691 4666 
L 3169 4666 
L 3169 4134 
L 1269 4134 
L 1269 2991 
Q 1406 3038 1543 3061 
Q 1681 3084 1819 3084 
Q 2600 3084 3056 2656 
Q 3513 2228 3513 1497 
Q 3513 744 3044 326 
Q 2575 -91 1722 -91 
Q 1428 -91 1123 -41 
Q 819 9 494 109 
L 494 744 
Q 775 591 1075 516 
Q 1375 441 1709 441 
Q 2250 441 2565 725 
Q 2881 1009 2881 1497 
Q 2881 1984 2565 2268 
Q 2250 2553 1709 2553 
Q 1456 2553 1204 2497 
Q 953 2441 691 2322 
L 691 4666 
z
" transform="scale(0.015625)"/>
       </defs>
       <use xlink:href="#DejaVuSans-32"/>
       <use xlink:href="#DejaVuSans-30" transform="translate(63.623047 0)"/>
       <use xlink:href="#DejaVuSans-32" transform="translate(127.246094 0)"/>
       <use xlink:href="#DejaVuSans-34" transform="translate(190.869141 0)"/>
       <use xlink:href="#DejaVuSans-2d" transform="translate(254.492188 0)"/>
       <use xlink:href="#DejaVuSans-30" transform="translate(290.576172 0)"/>
       <use xlink:href="#DejaVuSans-35" transform="translate(354.199219 0)"/>
      </g>
     </g>
    </g>
    <g id="xtick_3">
     <g id="line2d_3">
      <g>
       <use xlink:href="#m4fca4be001" x="371.158432" y="224.28" style="stroke: #000000; stroke-width: 0.8"/>
      </g>
     </g>
     <g id="text_3">
      <!-- 2024-07 -->
      <g transform="translate(350.267025 238.878438) scale(0.1 -0.1)">
       <defs>
        <path id="DejaVuSans-37" d="M 525 4666 
L 3525 4666 
L 3525 4397 
L 1831 0 
L 1172 0 
L 2766 4134 
L 525 4134 
L 525 4666 
z
" transform="scale(0.015625)"/>
       </defs>
       <use xlink:href="#DejaVuSans-32"/>
       <use xlink:href="#DejaVuSans-30" transform="translate(63.623047 0)"/>
       <use xlink:href="#DejaVuSans-32" transform="translate(127.246094 0)"/>
       <use xlink:href="#DejaVuSans-34" transform="translate(190.869141 0)"/>
       <use xlink:href="#DejaVuSans-2d" transform="translate(254.492188 0)"/>
       <use xlink:href="#DejaVuSans-30" transform="translate(290.576172 0)"/>
       <use xlink:href="#DejaVuSans-37" transform="translate(354.199219 0)"/>
      </g>
     </g>
    </g>
    <g id="xtick_4">
     <g id="line2d_4">
      <g>
       <use xlink:href="#m4fca4be001" x="463.293102" y="224.28" style="stroke: #000000; stroke-width: 0.8"/>
      </g>
     </g>
     <g id="text_4">
      <!-- 2024-09 -->
      <g transform="translate(442.401696 238.878438) scale(0.1 -0.1)">
       <defs>
        <path id="DejaVuSans-39" d="M 703 97 
L 703 672 
Q 941 559 1184 500 
Q 1428 441 1663 441 
Q 2288 441 2617 861 
Q 2947 1281 2994 2138 
Q 2813 1869 2534 1725 
Q 2256 1581 1919 1581 
Q 1219 1581 811 2004 
Q 403 2428 403 3163 
Q 403 3881 828 4315 
Q 1253 4750 1959 4750 
Q 2769 4750 3195 4129 
Q 3622 3509 3622 2328 
Q 3622 1225 3098 567 
Q 2575 -91 1691 -91 
Q 1453 -91 1209 -44 
Q 966 3 703 97 
z
M 1959 2075 
Q 2384 2075 2632 2365 
Q 2881 2656 2881 3163 
Q 2881 3666 2632 3958 
Q 2384 4250 1959 4250 
Q 1534 4250 1286 3958 
Q 1038 3666 1038 3163 
Q 1038 2656 1286 2365 
Q 1534 2075 1959 2075 
z
" transform="scale(0.015625)"/>
       </defs>
       <use xlink:href="#DejaVuSans-32"/>
       <use xlink:href="#DejaVuSans-30" transform="translate(63.623047 0)"/>
       <use xlink:href="#DejaVuSans-32" transform="translate(127.246094 0)"/>
       <use xlink:href="#DejaVuSans-34" transform="translate(190.869141 0)"/>
       <use xlink:href="#DejaVuSans-2d" transform="translate(254.492188 0)"/>
       <use xlink:href="#DejaVuSans-30" transform="translate(290.576172 0)"/>
       <use xlink:href="#DejaVuSans-39" transform="translate(354.199219 0)"/>
      </g>
     </g>
    </g>
    <g id="xtick_5">
     <g id="line2d_5">
      <g>
       <use xlink:href="#m4fca4be001" x="553.941729" y="224.28" style="stroke: #000000; stroke-width: 0.8"/>
      </g>
     </g>
     <g id="text_5">
      <!-- 2024-11 -->
      <g transform="translate(533.050323 238.878438) scale(0.1 -0.1)">
       <defs>
        <path id="DejaVuSans-31" d="M 794 531 
L 1825 531 
L 1825 4091 
L 703 3866 
L 703 4441 
L 1819 4666 
L 2450 4666 
L 2450 531 
L 3481 531 
L 3481 0 
L 794 0 
L 794 531 
z
" transform="scale(0.015625)"/>
       </defs>
       <use xlink:href="#DejaVuSans-32"/>
       <use xlink:href="#DejaVuSans-30" transform="translate(63.623047 0)"/>
       <use xlink:href="#DejaVuSans-32" transform="translate(127.246094 0)"/>
       <use xlink:href="#DejaVuSans-34" transform="translate(190.869141 0)"/>
       <use xlink:href="#DejaVuSans-2d" transform="translate(254.492188 0)"/>
       <use xlink:href="#DejaVuSans-31" transform="translate(290.576172 0)"/>
       <use xlink:href="#DejaVuSans-31" transform="translate(354.199219 0)"/>
      </g>
     </g>
    </g>
    <g id="xtick_6">
     <g id="line2d_6">
      <g>
       <use xlink:href="#m4fca4be001" x="644.590357" y="224.28" style="stroke: #000000; stroke-width: 0.8"/>
      </g>
     </g>
     <g id="text_6">
      <!-- 2025-01 -->
      <g transform="translate(623.69895 238.878438) scale(0.1 -0.1)">
       <use xlink:href="#DejaVuSans-32"/>
       <use xlink:href="#DejaVuSans-30" transform="translate(63.623047 0)"/>
       <use xlink:href="#DejaVuSans-32" transform="translate(127.246094 0)"/>
       <use xlink:href="#DejaVuSans-35" transform="translate(190.869141 0)"/>
       <use xlink:href="#DejaVuSans-2d" transform="translate(254.492188 0)"/>
       <use xlink:href="#DejaVuSans-30" transform="translate(290.576172 0)"/>
       <use xlink:href="#DejaVuSans-31" transform="translate(354.199219 0)"/>
      </g>
     </g>
    </g>
    <g id="xtick_7">
     <g id="line2d_7">
      <g>
       <use xlink:href="#m4fca4be001" x="732.266898" y="224.28" style="stroke: #000000; stroke-width: 0.8"/>
      </g>
     </g>
     <g id="text_7">
      <!-- 2025-03 -->
      <g transform="translate(711.375492 238.878438) scale(0.1 -0.1)">
       <use xlink:href="#DejaVuSans-32"/>
       <use xlink:href="#DejaVuSans-30" transform="translate(63.623047 0)"/>
       <use xlink:href="#DejaVuSans-32" transform="translate(127.246094 0)"/>
       <use xlink:href="#DejaVuSans-35" transform="translate(190.869141 0)"/>
       <use xlink:href="#DejaVuSans-2d" transform="translate(254.492188 0)"/>
       <use xlink:href="#DejaVuSans-30" transform="translate(290.576172 0)"/>
       <use xlink:href="#DejaVuSans-33" transform="translate(354.199219 0)"/>
      </g>
     </g>
    </g>
    <g id="xtick_8">
     <g id="line2d_8">
      <g>
       <use xlink:href="#m4fca4be001" x="822.915525" y="224.28" style="stroke: #000000; stroke-width: 0.8"/>
      </g>
     </g>
     <g id="text_8">
      <!-- 2025-05 -->
      <g transform="translate(802.024119 238.878438) scale(0.1 -0.1)">
       <use xlink:href="#DejaVuSans-32"/>
       <use xlink:href="#DejaVuSans-30" transform="translate(63.623047 0)"/>
       <use xlink:href="#DejaVuSans-32" transform="translate(127.246094 0)"/>
       <use xlink:href="#DejaVuSans-35" transform="translate(190.869141 0)"/>
       <use xlink:href="#DejaVuSans-2d" transform="translate(254.492188 0)"/>
       <use xlink:href="#DejaVuSans-30" transform="translate(290.576172 0)"/>
       <use xlink:href="#DejaVuSans-35" transform="translate(354.199219 0)"/>
      </g>
     </g>
    </g>
    <g id="xtick_9">
     <g id="line2d_9">
      <g>
       <use xlink:href="#m4fca4be001" x="913.564153" y="224.28" style="stroke: #000000; stroke-width: 0.8"/>
      </g>
     </g>
     <g id="text_9">
      <!-- 2025-07 -->
      <g transform="translate(892.672746 238.878438) scale(0.1 -0.1)">
       <use xlink:href="#DejaVuSans-32"/>
       <use xlink:href="#DejaVuSans-30" transform="translate(63.623047 0)"/>
       <use xlink:href="#DejaVuSans-32" transform="translate(127.246094 0)"/>
       <use xlink:href="#DejaVuSans-35" transform="translate(190.869141 0)"/>
       <use xlink:href="#DejaVuSans-2d" transform="translate(254.492188 0)"/>
       <use xlink:href="#DejaVuSans-30" transform="translate(290.576172 0)"/>
       <use xlink:href="#DejaVuSans-37" transform="translate(354.199219 0)"/>
      </g>
     </g>
    </g>
    <g id="xtick_10">
     <g id="line2d_10">
      <g>
       <use xlink:href="#m4fca4be001" x="1005.698823" y="224.28" style="stroke: #000000; stroke-width: 0.8"/>
      </g>
     </g>
     <g id="text_10">
      <!-- 2025-09 -->
      <g transform="translate(984.807417 238.878438) scale(0.1 -0.1)">
       <use xlink:href="#DejaVuSans-32"/>
       <use xlink:href="#DejaVuSans-30" transform="translate(63.623047 0)"/>
       <use xlink:href="#DejaVuSans-32" transform="translate(127.246094 0)"/>
       <use xlink:href="#DejaVuSans-35" transform="translate(190.869141 0)"/>
       <use xlink:href="#DejaVuSans-2d" transform="translate(254.492188 0)"/>
       <use xlink:href="#DejaVuSans-30" transform="translate(290.576172 0)"/>
       <use xlink:href="#DejaVuSans-39" transform="translate(354.199219 0)"/>
      </g>
     </g>
    </g>
   </g>
   <g id="matplotlib.axis_2">
    <g id="ytick_1">
     <g id="line2d_11">
      <defs>
       <path id="m876bb61e8c" d="M 0 0 
L -3.5 0 
" style="stroke: #000000; stroke-width: 0.8"/>
      </defs>
      <g>
       <use xlink:href="#m876bb61e8c" x="145.8" y="216.977317" style="stroke: #000000; stroke-width: 0.8"/>
      </g>
     </g>
     <g id="text_11">
      <!-- 20 -->
      <g transform="translate(126.075 220.776536) scale(0.1 -0.1)">
       <use xlink:href="#DejaVuSans-32"/>
       <use xlink:href="#DejaVuSans-30" transform="translate(63.623047 0)"/>
      </g>
     </g>
    </g>
    <g id="ytick_2">
     <g id="line2d_12">
      <g>
       <use xlink:href="#m876bb61e8c" x="145.8" y="192.495079" style="stroke: #000000; stroke-width: 0.8"/>
      </g>
     </g>
     <g id="text_12">
      <!-- 30 -->
      <g transform="translate(126.075 196.294298) scale(0.1 -0.1)">
       <use xlink:href="#DejaVuSans-33"/>
       <use xlink:href="#DejaVuSans-30" transform="translate(63.623047 0)"/>
      </g>
     </g>
    </g>
    <g id="ytick_3">
     <g id="line2d_13">
      <g>
       <use xlink:href="#m876bb61e8c" x="145.8" y="168.012842" style="stroke: #000000; stroke-width: 0.8"/>
      </g>
     </g>
     <g id="text_13">
      <!-- 40 -->
      <g transform="translate(126.075 171.812061) scale(0.1 -0.1)">
       <use xlink:href="#DejaVuSans-34"/>
       <use xlink:href="#DejaVuSans-30" transform="translate(63.623047 0)"/>
      </g>
     </g>
    </g>
    <g id="ytick_4">
     <g id="line2d_14">
      <g>
       <use xlink:href="#m876bb61e8c" x="145.8" y="143.530604" style="stroke: #000000; stroke-width: 0.8"/>
      </g>
     </g>
     <g id="text_14">
      <!-- 50 -->
      <g transform="translate(126.075 147.329823) scale(0.1 -0.1)">
       <use xlink:href="#DejaVuSans-35"/>
       <use xlink:href="#DejaVuSans-30" transform="translate(63.623047 0)"/>
      </g>
     </g>
    </g>
    <g id="ytick_5">
     <g id="line2d_15">
      <g>
       <use xlink:href="#m876bb61e8c" x="145.8" y="119.048367" style="stroke: #000000; stroke-width: 0.8"/>
      </g>
     </g>
     <g id="text_15">
      <!-- 60 -->
      <g transform="translate(126.075 122.847585) scale(0.1 -0.1)">
       <defs>
        <path id="DejaVuSans-36" d="M 2113 2584 
Q 1688 2584 1439 2293 
Q 1191 2003 1191 1497 
Q 1191 994 1439 701 
Q 1688 409 2113 409 
Q 2538 409 2786 701 
Q 3034 994 3034 1497 
Q 3034 2003 2786 2293 
Q 2538 2584 2113 2584 
z
M 3366 4563 
L 3366 3988 
Q 3128 4100 2886 4159 
Q 2644 4219 2406 4219 
Q 1781 4219 1451 3797 
Q 1122 3375 1075 2522 
Q 1259 2794 1537 2939 
Q 1816 3084 2150 3084 
Q 2853 3084 3261 2657 
Q 3669 2231 3669 1497 
Q 3669 778 3244 343 
Q 2819 -91 2113 -91 
Q 1303 -91 875 529 
Q 447 1150 447 2328 
Q 447 3434 972 4092 
Q 1497 4750 2381 4750 
Q 2619 4750 2861 4703 
Q 3103 4656 3366 4563 
z
" transform="scale(0.015625)"/>
       </defs>
       <use xlink:href="#DejaVuSans-36"/>
       <use xlink:href="#DejaVuSans-30" transform="translate(63.623047 0)"/>
      </g>
     </g>
    </g>
    <g id="ytick_6">
     <g id="line2d_16">
      <g>
       <use xlink:href="#m876bb61e8c" x="145.8" y="94.566129" style="stroke: #000000; stroke-width: 0.8"/>
      </g>
     </g>
     <g id="text_16">
      <!-- 70 -->
      <g transform="translate(126.075 98.365348) scale(0.1 -0.1)">
       <use xlink:href="#DejaVuSans-37"/>
       <use xlink:href="#DejaVuSans-30" transform="translate(63.623047 0)"/>
      </g>
     </g>
    </g>
    <g id="ytick_7">
     <g id="line2d_17">
      <g>
       <use xlink:href="#m876bb61e8c" x="145.8" y="70.083891" style="stroke: #000000; stroke-width: 0.8"/>
      </g>
     </g>
     <g id="text_17">
      <!-- 80 -->
      <g transform="translate(126.075 73.88311) scale(0.1 -0.1)">
       <defs>
        <path id="DejaVuSans-38" d="M 2034 2216 
Q 1584 2216 1326 1975 
Q 1069 1734 1069 1313 
Q 1069 891 1326 650 
Q 1584 409 2034 409 
Q 2484 409 2743 651 
Q 3003 894 3003 1313 
Q 3003 1734 2745 1975 
Q 2488 2216 2034 2216 
z
M 1403 2484 
Q 997 2584 770 2862 
Q 544 3141 544 3541 
Q 544 4100 942 4425 
Q 1341 4750 2034 4750 
Q 2731 4750 3128 4425 
Q 3525 4100 3525 3541 
Q 3525 3141 3298 2862 
Q 3072 2584 2669 2484 
Q 3125 2378 3379 2068 
Q 3634 1759 3634 1313 
Q 3634 634 3220 271 
Q 2806 -91 2034 -91 
Q 1263 -91 848 271 
Q 434 634 434 1313 
Q 434 1759 690 2068 
Q 947 2378 1403 2484 
z
M 1172 3481 
Q 1172 3119 1398 2916 
Q 1625 2713 2034 2713 
Q 2441 2713 2670 2916 
Q 2900 3119 2900 3481 
Q 2900 3844 2670 4047 
Q 2441 4250 2034 4250 
Q 1625 4250 1398 4047 
Q 1172 3844 1172 3481 
z
" transform="scale(0.015625)"/>
       </defs>
       <use xlink:href="#DejaVuSans-38"/>
       <use xlink:href="#DejaVuSans-30" transform="translate(63.623047 0)"/>
      </g>
     </g>
    </g>
    <g id="ytick_8">
     <g id="line2d_18">
      <g>
       <use xlink:href="#m876bb61e8c" x="145.8" y="45.601654" style="stroke: #000000; stroke-width: 0.8"/>
      </g>
     </g>
     <g id="text_18">
      <!-- 90 -->
      <g transform="translate(126.075 49.400872) scale(0.1 -0.1)">
       <use xlink:href="#DejaVuSans-39"/>
       <use xlink:href="#DejaVuSans-30" transform="translate(63.623047 0)"/>
      </g>
     </g>
    </g>
   </g>
   <g id="line2d_19">
    <path d="M 186.889091 105.635793 
L 188.375134 97.931466 
L 189.861177 95.945016 
L 195.805349 86.205971 
L 197.291392 84.14976 
L 198.777435 69.832987 
L 200.263479 95.899104 
L 204.721608 89.421877 
L 206.207651 70.712605 
L 207.693694 94.829999 
L 209.179737 110.380748 
L 210.66578 111.608528 
L 215.123909 108.166231 
L 216.609952 100.866863 
L 218.095995 102.007478 
L 219.582038 107.479041 
L 221.068082 107.768399 
L 225.526211 107.8188 
L 227.012254 128.127943 
L 228.498297 153.73184 
L 229.98434 129.101653 
L 235.928512 118.277913 
L 237.414555 161.233783 
L 238.900598 157.8219 
L 240.386641 158.571137 
L 241.872685 142.404684 
L 246.330814 152.116582 
L 247.816857 168.679645 
L 249.3029 163.535266 
L 250.788943 147.906809 
L 252.274986 176.756148 
L 256.733115 189.52224 
L 258.219158 171.002386 
L 259.705201 175.231339 
L 261.191244 171.901366 
L 262.677288 196.078329 
L 267.135417 177.88176 
L 268.62146 164.703351 
L 270.107503 163.858443 
L 271.593546 160.68779 
L 273.079589 141.800085 
L 277.537718 136.325708 
L 279.023761 145.456065 
L 280.509804 166.550525 
L 283.481891 135.28984 
L 287.94002 130.18851 
L 289.426063 124.328082 
L 290.912106 126.416319 
L 292.398149 98.696163 
L 293.884192 103.986469 
L 298.342321 110.641285 
L 299.828364 92.283457 
L 301.314407 91.478965 
L 302.80045 108.855124 
L 304.286494 120.631184 
L 308.744623 104.36918 
L 310.230666 79.041739 
L 311.716709 90.528038 
L 313.202752 75.403272 
L 314.688795 76.809454 
L 320.632967 54.595322 
L 322.11901 52.743944 
L 323.605053 68.684126 
L 325.091096 75.050569 
L 329.549226 68.542692 
L 331.035269 67.982547 
L 332.521312 65.033593 
L 334.007355 70.31578 
L 335.493398 62.21981 
L 339.951527 63.609695 
L 341.43757 68.45645 
L 342.923613 62.098906 
L 344.409656 66.529934 
L 345.895699 66.976566 
L 350.353829 82.214652 
L 351.839872 76.271748 
L 354.811958 78.627935 
L 356.298001 93.677392 
L 360.75613 134.988594 
L 362.242173 120.449828 
L 363.728216 132.862354 
L 365.214259 135.631769 
L 366.700302 136.577205 
L 371.158432 136.927931 
L 372.644475 138.993077 
L 374.130518 135.804647 
L 377.102604 153.409217 
L 381.560733 153.127413 
L 383.046776 142.535801 
L 384.532819 145.233926 
L 386.018862 151.665681 
L 387.504905 136.790272 
L 391.963035 112.560596 
L 393.449078 142.584352 
L 394.935121 167.477511 
L 396.421164 151.65772 
L 397.907207 158.333919 
L 402.365336 145.34624 
L 403.851379 143.724303 
L 405.337422 175.758588 
L 406.823465 174.938892 
L 408.309508 179.71385 
L 412.767638 192.460503 
L 414.253681 214.421799 
L 415.739724 164.842716 
L 417.225767 180.912795 
L 418.71181 182.365404 
L 423.169939 187.908338 
L 424.655982 168.671565 
L 426.142025 182.799912 
L 427.628068 165.552397 
L 429.114111 178.040835 
L 433.572241 167.271069 
L 435.058284 140.165406 
L 436.544327 133.199035 
L 438.03037 127.034043 
L 439.516413 121.739141 
L 443.974542 97.936651 
L 445.460585 122.655998 
L 446.946628 99.336098 
L 448.432671 107.68859 
L 449.918714 79.234708 
L 454.376844 93.341293 
L 455.862887 72.528672 
L 457.34893 90.114776 
L 458.834973 115.005007 
L 460.321016 119.448541 
L 466.265188 161.054824 
L 467.751231 169.152579 
L 469.237274 179.724368 
L 470.723317 191.424918 
L 475.181447 197.058454 
L 476.66749 188.020558 
L 478.153533 167.078257 
L 479.639576 153.262854 
L 481.125619 167.617877 
L 485.583748 166.492958 
L 487.069791 174.07327 
L 488.555834 173.217406 
L 490.041877 142.773648 
L 491.52792 152.281694 
L 495.98605 115.324993 
L 497.472093 97.141126 
L 498.958136 94.050974 
L 500.444179 72.36613 
L 501.930222 92.016256 
L 506.388351 95.340288 
L 507.874394 143.11625 
L 509.360437 144.748445 
L 510.84648 129.66642 
L 512.332523 113.207175 
L 516.790653 100.454049 
L 518.276696 79.67531 
L 519.762739 88.969801 
L 521.248782 74.694875 
L 522.734825 75.172042 
L 527.192954 77.445415 
L 528.678997 115.78315 
L 530.16504 107.131388 
L 531.651083 93.304858 
L 533.137126 91.392539 
L 537.595256 62.095936 
L 539.081299 64.705679 
L 540.567342 90.331907 
L 542.053385 92.599934 
L 543.539428 95.956912 
L 547.997557 113.794852 
L 549.4836 110.529442 
L 550.969643 126.010168 
L 552.455686 150.064348 
L 553.941729 152.225482 
L 558.399859 126.384537 
L 559.885902 127.253095 
L 561.371945 114.015885 
L 562.857988 108.665784 
L 564.344031 129.308595 
L 568.80216 137.850549 
L 570.288203 112.989051 
L 571.774246 123.692867 
L 573.260289 125.54107 
L 574.746332 138.980759 
L 579.204462 146.865285 
L 580.690505 122.818177 
L 582.176548 103.218085 
L 583.662591 107.235517 
L 585.148634 126.367437 
L 589.606763 154.316091 
L 592.578849 187.541494 
L 595.550935 172.732419 
L 600.009065 165.271434 
L 601.495108 170.888188 
L 602.981151 147.096655 
L 604.467194 148.922162 
L 605.953237 141.942294 
L 610.411366 147.8152 
L 611.897409 185.388415 
L 613.383452 164.690041 
L 614.869495 172.635379 
L 616.355538 168.587855 
L 620.813668 158.017465 
L 622.299711 166.60023 
L 623.785754 166.312565 
L 625.271797 171.273552 
L 626.75784 156.50128 
L 631.215969 145.2917 
L 632.702012 160.221461 
L 635.674098 160.863491 
L 637.160141 161.726499 
L 641.618271 148.371278 
L 643.104314 146.438064 
L 646.0764 147.283219 
L 647.562443 119.819864 
L 652.020572 95.490301 
L 653.506615 121.736489 
L 654.992658 116.574641 
L 657.964744 125.244639 
L 662.422874 136.996157 
L 663.908917 151.489233 
L 665.39496 152.917318 
L 666.881003 160.905925 
L 668.367046 148.890603 
L 674.311218 134.34372 
L 675.797261 122.833433 
L 677.283304 114.006688 
L 678.769347 133.794657 
L 683.227477 187.678628 
L 684.71352 175.674497 
L 686.199563 170.784636 
L 687.685606 168.844627 
L 689.171649 169.335675 
L 693.629778 170.265171 
L 695.115821 164.5387 
L 696.601864 161.416532 
L 698.087907 151.081934 
L 699.57395 156.158441 
L 704.03208 155.087221 
L 705.518123 167.985428 
L 707.004166 170.516779 
L 708.490209 155.908495 
L 709.976252 95.298014 
L 715.920424 113.066846 
L 717.406467 91.745124 
L 718.89251 91.88003 
L 720.378553 96.953441 
L 724.836683 100.203194 
L 726.322726 119.194784 
L 727.808769 123.081181 
L 729.294812 166.284215 
L 730.780855 155.697497 
L 735.238984 185.703329 
L 738.21107 173.025206 
L 739.697113 193.947154 
L 741.183156 198.19558 
L 745.641286 205.792424 
L 747.127329 200.605821 
L 748.613372 185.257855 
L 750.099415 178.503679 
L 751.585458 159.036952 
L 756.043587 156.605104 
L 757.52963 172.987695 
L 759.015673 149.177096 
L 760.501716 158.257914 
L 761.987759 133.135639 
L 766.445889 128.681393 
L 767.931932 134.107577 
L 769.417975 134.70355 
L 770.904018 146.961234 
L 772.390061 135.39842 
L 776.84819 144.658671 
L 778.334233 163.120606 
L 779.820276 161.556917 
L 781.306319 208.271356 
L 782.792362 215.46 
L 787.250492 195.195969 
L 788.736535 206.273703 
L 790.222578 152.331135 
L 791.708621 162.800621 
L 793.194664 163.575457 
L 797.652793 162.769428 
L 799.138836 146.819656 
L 800.624879 156.921752 
L 802.110922 159.01181 
L 808.055095 164.187608 
L 809.541138 163.74695 
L 811.027181 156.68815 
L 812.513224 135.049924 
L 813.999267 111.548936 
L 818.457396 121.937779 
L 819.943439 118.343455 
L 821.429482 158.619334 
L 822.915525 131.111188 
L 824.401568 132.424928 
L 828.859698 133.967702 
L 830.345741 139.281079 
L 831.831784 98.813678 
L 833.317827 82.247776 
L 834.80387 56.797085 
L 839.261999 51.959615 
L 840.748042 49.245612 
L 842.234085 47.961972 
L 843.720128 55.064784 
L 845.206171 39.06 
L 849.664301 39.129151 
L 851.150344 46.802277 
L 852.636387 66.561417 
L 854.12243 69.355523 
L 855.608473 74.789962 
L 861.552645 66.814104 
L 863.038688 76.073369 
L 864.524731 69.908473 
L 866.010774 86.434237 
L 870.468904 93.973389 
L 871.954947 100.915079 
L 873.44099 114.473418 
L 874.927033 121.854458 
L 876.413076 117.99796 
L 880.871205 115.688368 
L 882.357248 105.919929 
L 883.843291 98.059335 
L 885.329334 95.216768 
L 886.815377 103.081102 
L 891.273506 107.037823 
L 892.75955 106.417819 
L 894.245593 115.710253 
L 897.217679 101.27627 
L 901.675808 107.898534 
L 903.161851 108.308087 
L 904.647894 91.116819 
L 906.133937 77.162627 
L 907.61998 75.212371 
L 912.078109 76.503394 
L 913.564153 107.114976 
L 915.050196 92.007855 
L 916.536239 92.173777 
L 922.480411 81.774589 
L 923.966454 83.635548 
L 925.452497 75.184272 
L 926.93854 75.410484 
L 928.424583 64.535062 
L 932.882712 70.113322 
L 934.368756 66.175347 
L 935.854799 74.69946 
L 937.340842 73.122569 
L 938.826885 81.904552 
L 943.285014 88.729934 
L 944.771057 86.692347 
L 946.2571 87.13887 
L 947.743143 85.239477 
L 949.229186 79.950117 
L 953.687315 77.110529 
L 955.173359 90.637951 
L 956.659402 85.079951 
L 958.145445 94.528333 
L 959.631488 110.395502 
L 964.089617 111.280651 
L 965.57566 120.340831 
L 967.061703 121.639832 
L 968.547746 115.615813 
L 970.033789 106.637844 
L 974.491918 89.17793 
L 975.977962 94.95852 
L 977.464005 111.295606 
L 978.950048 108.765862 
L 980.436091 127.53766 
L 984.89422 115.748779 
L 986.380263 157.749893 
L 987.866306 153.578976 
L 989.352349 137.679419 
L 990.838392 154.186532 
L 995.296521 135.341675 
L 996.782565 131.529492 
L 998.268608 139.072447 
L 999.754651 157.42471 
L 1001.240694 178.429272 
L 1007.184866 194.146818 
L 1008.670909 190.598585 
L 1008.670909 190.598585 
" clip-path="url(#pb70d9f85aa)" style="fill: none; stroke: #1f77b4; stroke-width: 1.5; stroke-linecap: square"/>
   </g>
   <g id="patch_3">
    <path d="M 145.8 224.28 
L 145.8 30.24 
" style="fill: none; stroke: #000000; stroke-width: 0.8; stroke-linejoin: miter; stroke-linecap: square"/>
   </g>
   <g id="patch_4">
    <path d="M 145.8 224.28 
L 1049.76 224.28 
" style="fill: none; stroke: #000000; stroke-width: 0.8; stroke-linejoin: miter; stroke-linecap: square"/>
   </g>
  </g>
 </g>
 <defs>
  <clipPath id="pb70d9f85aa">
   <rect x="145.8" y="30.24" width="903.96" height="194.04"/>
  </clipPath>
 </defs>
</svg>
