<?xml version="1.0" encoding="utf-8" standalone="no"?>
<!DOCTYPE svg PUBLIC "-//W3C//DTD SVG 1.1//EN"
  "http://www.w3.org/Graphics/SVG/1.1/DTD/svg11.dtd">
<svg xmlns:xlink="http://www.w3.org/1999/xlink" width="1166.4pt" height="252pt" viewBox="0 0 1166.4 252" xmlns="http://www.w3.org/2000/svg" version="1.1">
 <metadata>
  <rdf:RDF xmlns:dc="http://purl.org/dc/elements/1.1/" xmlns:cc="http://creativecommons.org/ns#" xmlns:rdf="http://www.w3.org/1999/02/22-rdf-syntax-ns#">
   <cc:Work>
    <dc:type rdf:resource="http://purl.org/dc/dcmitype/StillImage"/>
    <dc:date>2025-09-05T16:12:30.216096</dc:date>
    <dc:format>image/svg+xml</dc:format>
    <dc:creator>
     <cc:Agent>
      <dc:title>Matplotlib v3.10.5, https://matplotlib.org/</dc:title>
     </cc:Agent>
    </dc:creator>
   </cc:Work>
  </rdf:RDF>
 </metadata>
 <defs>
  <style type="text/css">*{stroke-linejoin: round; stroke-linecap: butt}</style>
 </defs>
 <g id="figure_1">
  <g id="patch_1">
   <path d="M 0 252 
L 1166.4 252 
L 1166.4 0 
L 0 0 
z
" style="fill: #ffffff"/>
  </g>
  <g id="axes_1">
   <g id="patch_2">
    <path d="M 145.8 224.28 
L 1049.76 224.28 
L 1049.76 30.24 
L 145.8 30.24 
z
" style="fill: #ffffff"/>
   </g>
   <g id="matplotlib.axis_1">
    <g id="xtick_1">
     <g id="line2d_1">
      <defs>
       <path id="medd85814b1" d="M 0 0 
L 0 3.5 
" style="stroke: #000000; stroke-width: 0.8"/>
      </defs>
      <g>
       <use xlink:href="#medd85814b1" x="178.470838" y="224.28" style="stroke: #000000; stroke-width: 0.8"/>
      </g>
     </g>
     <g id="text_1">
      <!-- 2020 -->
      <g transform="translate(165.745838 238.878438) scale(0.1 -0.1)">
       <defs>
        <path id="DejaVuSans-32" d="M 1228 531 
L 3431 531 
L 3431 0 
L 469 0 
L 469 531 
Q 828 903 1448 1529 
Q 2069 2156 2228 2338 
Q 2531 2678 2651 2914 
Q 2772 3150 2772 3378 
Q 2772 3750 2511 3984 
Q 2250 4219 1831 4219 
Q 1534 4219 1204 4116 
Q 875 4013 500 3803 
L 500 4441 
Q 881 4594 1212 4672 
Q 1544 4750 1819 4750 
Q 2544 4750 2975 4387 
Q 3406 4025 3406 3419 
Q 3406 3131 3298 2873 
Q 3191 2616 2906 2266 
Q 2828 2175 2409 1742 
Q 1991 1309 1228 531 
z
" transform="scale(0.015625)"/>
        <path id="DejaVuSans-30" d="M 2034 4250 
Q 1547 4250 1301 3770 
Q 1056 3291 1056 2328 
Q 1056 1369 1301 889 
Q 1547 409 2034 409 
Q 2525 409 2770 889 
Q 3016 1369 3016 2328 
Q 3016 3291 2770 3770 
Q 2525 4250 2034 4250 
z
M 2034 4750 
Q 2819 4750 3233 4129 
Q 3647 3509 3647 2328 
Q 3647 1150 3233 529 
Q 2819 -91 2034 -91 
Q 1250 -91 836 529 
Q 422 1150 422 2328 
Q 422 3509 836 4129 
Q 1250 4750 2034 4750 
z
" transform="scale(0.015625)"/>
       </defs>
       <use xlink:href="#DejaVuSans-32"/>
       <use xlink:href="#DejaVuSans-30" transform="translate(63.623047 0)"/>
       <use xlink:href="#DejaVuSans-32" transform="translate(127.246094 0)"/>
       <use xlink:href="#DejaVuSans-30" transform="translate(190.869141 0)"/>
      </g>
     </g>
    </g>
    <g id="xtick_2">
     <g id="line2d_2">
      <g>
       <use xlink:href="#medd85814b1" x="325.188958" y="224.28" style="stroke: #000000; stroke-width: 0.8"/>
      </g>
     </g>
     <g id="text_2">
      <!-- 2021 -->
      <g transform="translate(312.463958 238.878438) scale(0.1 -0.1)">
       <defs>
        <path id="DejaVuSans-31" d="M 794 531 
L 1825 531 
L 1825 4091 
L 703 3866 
L 703 4441 
L 1819 4666 
L 2450 4666 
L 2450 531 
L 3481 531 
L 3481 0 
L 794 0 
L 794 531 
z
" transform="scale(0.015625)"/>
       </defs>
       <use xlink:href="#DejaVuSans-32"/>
       <use xlink:href="#DejaVuSans-30" transform="translate(63.623047 0)"/>
       <use xlink:href="#DejaVuSans-32" transform="translate(127.246094 0)"/>
       <use xlink:href="#DejaVuSans-31" transform="translate(190.869141 0)"/>
      </g>
     </g>
    </g>
    <g id="xtick_3">
     <g id="line2d_3">
      <g>
       <use xlink:href="#medd85814b1" x="471.506208" y="224.28" style="stroke: #000000; stroke-width: 0.8"/>
      </g>
     </g>
     <g id="text_3">
      <!-- 2022 -->
      <g transform="translate(458.781208 238.878438) scale(0.1 -0.1)">
       <use xlink:href="#DejaVuSans-32"/>
       <use xlink:href="#DejaVuSans-30" transform="translate(63.623047 0)"/>
       <use xlink:href="#DejaVuSans-32" transform="translate(127.246094 0)"/>
       <use xlink:href="#DejaVuSans-32" transform="translate(190.869141 0)"/>
      </g>
     </g>
    </g>
    <g id="xtick_4">
     <g id="line2d_4">
      <g>
       <use xlink:href="#medd85814b1" x="617.823459" y="224.28" style="stroke: #000000; stroke-width: 0.8"/>
      </g>
     </g>
     <g id="text_4">
      <!-- 2023 -->
      <g transform="translate(605.098459 238.878438) scale(0.1 -0.1)">
       <defs>
        <path id="DejaVuSans-33" d="M 2597 2516 
Q 3050 2419 3304 2112 
Q 3559 1806 3559 1356 
Q 3559 666 3084 287 
Q 2609 -91 1734 -91 
Q 1441 -91 1130 -33 
Q 819 25 488 141 
L 488 750 
Q 750 597 1062 519 
Q 1375 441 1716 441 
Q 2309 441 2620 675 
Q 2931 909 2931 1356 
Q 2931 1769 2642 2001 
Q 2353 2234 1838 2234 
L 1294 2234 
L 1294 2753 
L 1863 2753 
Q 2328 2753 2575 2939 
Q 2822 3125 2822 3475 
Q 2822 3834 2567 4026 
Q 2313 4219 1838 4219 
Q 1578 4219 1281 4162 
Q 984 4106 628 3988 
L 628 4550 
Q 988 4650 1302 4700 
Q 1616 4750 1894 4750 
Q 2613 4750 3031 4423 
Q 3450 4097 3450 3541 
Q 3450 3153 3228 2886 
Q 3006 2619 2597 2516 
z
" transform="scale(0.015625)"/>
       </defs>
       <use xlink:href="#DejaVuSans-32"/>
       <use xlink:href="#DejaVuSans-30" transform="translate(63.623047 0)"/>
       <use xlink:href="#DejaVuSans-32" transform="translate(127.246094 0)"/>
       <use xlink:href="#DejaVuSans-33" transform="translate(190.869141 0)"/>
      </g>
     </g>
    </g>
    <g id="xtick_5">
     <g id="line2d_5">
      <g>
       <use xlink:href="#medd85814b1" x="764.14071" y="224.28" style="stroke: #000000; stroke-width: 0.8"/>
      </g>
     </g>
     <g id="text_5">
      <!-- 2024 -->
      <g transform="translate(751.41571 238.878438) scale(0.1 -0.1)">
       <defs>
        <path id="DejaVuSans-34" d="M 2419 4116 
L 825 1625 
L 2419 1625 
L 2419 4116 
z
M 2253 4666 
L 3047 4666 
L 3047 1625 
L 3713 1625 
L 3713 1100 
L 3047 1100 
L 3047 0 
L 2419 0 
L 2419 1100 
L 313 1100 
L 313 1709 
L 2253 4666 
z
" transform="scale(0.015625)"/>
       </defs>
       <use xlink:href="#DejaVuSans-32"/>
       <use xlink:href="#DejaVuSans-30" transform="translate(63.623047 0)"/>
       <use xlink:href="#DejaVuSans-32" transform="translate(127.246094 0)"/>
       <use xlink:href="#DejaVuSans-34" transform="translate(190.869141 0)"/>
      </g>
     </g>
    </g>
    <g id="xtick_6">
     <g id="line2d_6">
      <g>
       <use xlink:href="#medd85814b1" x="910.858829" y="224.28" style="stroke: #000000; stroke-width: 0.8"/>
      </g>
     </g>
     <g id="text_6">
      <!-- 2025 -->
      <g transform="translate(898.133829 238.878438) scale(0.1 -0.1)">
       <defs>
        <path id="DejaVuSans-35" d="M 691 4666 
L 3169 4666 
L 3169 4134 
L 1269 4134 
L 1269 2991 
Q 1406 3038 1543 3061 
Q 1681 3084 1819 3084 
Q 2600 3084 3056 2656 
Q 3513 2228 3513 1497 
Q 3513 744 3044 326 
Q 2575 -91 1722 -91 
Q 1428 -91 1123 -41 
Q 819 9 494 109 
L 494 744 
Q 775 591 1075 516 
Q 1375 441 1709 441 
Q 2250 441 2565 725 
Q 2881 1009 2881 1497 
Q 2881 1984 2565 2268 
Q 2250 2553 1709 2553 
Q 1456 2553 1204 2497 
Q 953 2441 691 2322 
L 691 4666 
z
" transform="scale(0.015625)"/>
       </defs>
       <use xlink:href="#DejaVuSans-32"/>
       <use xlink:href="#DejaVuSans-30" transform="translate(63.623047 0)"/>
       <use xlink:href="#DejaVuSans-32" transform="translate(127.246094 0)"/>
       <use xlink:href="#DejaVuSans-35" transform="translate(190.869141 0)"/>
      </g>
     </g>
    </g>
   </g>
   <g id="matplotlib.axis_2">
    <g id="ytick_1">
     <g id="line2d_7">
      <defs>
       <path id="m8247b8b736" d="M 0 0 
L -3.5 0 
" style="stroke: #000000; stroke-width: 0.8"/>
      </defs>
      <g>
       <use xlink:href="#m8247b8b736" x="145.8" y="191.997334" style="stroke: #000000; stroke-width: 0.8"/>
      </g>
     </g>
     <g id="text_7">
      <!-- 20 -->
      <g transform="translate(126.075 195.796552) scale(0.1 -0.1)">
       <use xlink:href="#DejaVuSans-32"/>
       <use xlink:href="#DejaVuSans-30" transform="translate(63.623047 0)"/>
      </g>
     </g>
    </g>
    <g id="ytick_2">
     <g id="line2d_8">
      <g>
       <use xlink:href="#m8247b8b736" x="145.8" y="152.270728" style="stroke: #000000; stroke-width: 0.8"/>
      </g>
     </g>
     <g id="text_8">
      <!-- 40 -->
      <g transform="translate(126.075 156.069947) scale(0.1 -0.1)">
       <use xlink:href="#DejaVuSans-34"/>
       <use xlink:href="#DejaVuSans-30" transform="translate(63.623047 0)"/>
      </g>
     </g>
    </g>
    <g id="ytick_3">
     <g id="line2d_9">
      <g>
       <use xlink:href="#m8247b8b736" x="145.8" y="112.544123" style="stroke: #000000; stroke-width: 0.8"/>
      </g>
     </g>
     <g id="text_9">
      <!-- 60 -->
      <g transform="translate(126.075 116.343341) scale(0.1 -0.1)">
       <defs>
        <path id="DejaVuSans-36" d="M 2113 2584 
Q 1688 2584 1439 2293 
Q 1191 2003 1191 1497 
Q 1191 994 1439 701 
Q 1688 409 2113 409 
Q 2538 409 2786 701 
Q 3034 994 3034 1497 
Q 3034 2003 2786 2293 
Q 2538 2584 2113 2584 
z
M 3366 4563 
L 3366 3988 
Q 3128 4100 2886 4159 
Q 2644 4219 2406 4219 
Q 1781 4219 1451 3797 
Q 1122 3375 1075 2522 
Q 1259 2794 1537 2939 
Q 1816 3084 2150 3084 
Q 2853 3084 3261 2657 
Q 3669 2231 3669 1497 
Q 3669 778 3244 343 
Q 2819 -91 2113 -91 
Q 1303 -91 875 529 
Q 447 1150 447 2328 
Q 447 3434 972 4092 
Q 1497 4750 2381 4750 
Q 2619 4750 2861 4703 
Q 3103 4656 3366 4563 
z
" transform="scale(0.015625)"/>
       </defs>
       <use xlink:href="#DejaVuSans-36"/>
       <use xlink:href="#DejaVuSans-30" transform="translate(63.623047 0)"/>
      </g>
     </g>
    </g>
    <g id="ytick_4">
     <g id="line2d_10">
      <g>
       <use xlink:href="#m8247b8b736" x="145.8" y="72.817517" style="stroke: #000000; stroke-width: 0.8"/>
      </g>
     </g>
     <g id="text_10">
      <!-- 80 -->
      <g transform="translate(126.075 76.616736) scale(0.1 -0.1)">
       <defs>
        <path id="DejaVuSans-38" d="M 2034 2216 
Q 1584 2216 1326 1975 
Q 1069 1734 1069 1313 
Q 1069 891 1326 650 
Q 1584 409 2034 409 
Q 2484 409 2743 651 
Q 3003 894 3003 1313 
Q 3003 1734 2745 1975 
Q 2488 2216 2034 2216 
z
M 1403 2484 
Q 997 2584 770 2862 
Q 544 3141 544 3541 
Q 544 4100 942 4425 
Q 1341 4750 2034 4750 
Q 2731 4750 3128 4425 
Q 3525 4100 3525 3541 
Q 3525 3141 3298 2862 
Q 3072 2584 2669 2484 
Q 3125 2378 3379 2068 
Q 3634 1759 3634 1313 
Q 3634 634 3220 271 
Q 2806 -91 2034 -91 
Q 1263 -91 848 271 
Q 434 634 434 1313 
Q 434 1759 690 2068 
Q 947 2378 1403 2484 
z
M 1172 3481 
Q 1172 3119 1398 2916 
Q 1625 2713 2034 2713 
Q 2441 2713 2670 2916 
Q 2900 3119 2900 3481 
Q 2900 3844 2670 4047 
Q 2441 4250 2034 4250 
Q 1625 4250 1398 4047 
Q 1172 3844 1172 3481 
z
" transform="scale(0.015625)"/>
       </defs>
       <use xlink:href="#DejaVuSans-38"/>
       <use xlink:href="#DejaVuSans-30" transform="translate(63.623047 0)"/>
      </g>
     </g>
    </g>
    <g id="ytick_5">
     <g id="line2d_11">
      <g>
       <use xlink:href="#m8247b8b736" x="145.8" y="33.090912" style="stroke: #000000; stroke-width: 0.8"/>
      </g>
     </g>
     <g id="text_11">
      <!-- 100 -->
      <g transform="translate(119.7125 36.890131) scale(0.1 -0.1)">
       <use xlink:href="#DejaVuSans-31"/>
       <use xlink:href="#DejaVuSans-30" transform="translate(63.623047 0)"/>
       <use xlink:href="#DejaVuSans-30" transform="translate(127.246094 0)"/>
      </g>
     </g>
    </g>
   </g>
   <g id="line2d_12">
    <path d="M 186.889091 102.058731 
L 187.690829 91.127776 
L 188.893437 125.313429 
L 189.294306 116.064562 
L 189.695175 122.32733 
L 190.096044 126.690673 
L 190.496914 146.264366 
L 191.699521 154.32506 
L 192.10039 132.678823 
L 192.501259 123.334116 
L 192.902129 123.128087 
L 193.302998 128.535297 
L 194.505605 110.86435 
L 194.906475 107.895497 
L 195.307344 105.973245 
L 195.708213 104.909922 
L 196.109082 72.381865 
L 197.712559 72.861755 
L 198.113428 61.420099 
L 198.915166 79.273962 
L 200.117774 106.149816 
L 200.518643 120.925981 
L 200.919512 119.605355 
L 201.320381 133.452532 
L 201.721251 120.634426 
L 202.923858 123.51885 
L 203.324727 133.565573 
L 203.725596 125.391293 
L 204.126466 130.943057 
L 204.527335 146.225163 
L 205.729942 160.017218 
L 206.130812 161.757597 
L 206.531681 164.939227 
L 206.93255 170.002459 
L 207.333419 147.766601 
L 208.536027 159.293957 
L 208.936896 151.799628 
L 209.337765 151.662679 
L 209.738634 155.142211 
L 210.139503 160.452534 
L 211.342111 153.82469 
L 211.74298 145.669904 
L 212.143849 143.104126 
L 212.945588 129.454532 
L 214.148195 130.559685 
L 214.949933 120.335737 
L 215.350803 125.422844 
L 215.751672 105.467543 
L 216.954279 104.001943 
L 217.355149 100.266385 
L 217.756018 101.140088 
L 218.156887 98.640733 
L 219.760364 98.656349 
L 220.161233 108.724312 
L 220.562102 108.343497 
L 220.962971 107.201436 
L 221.36384 105.378214 
L 222.566448 116.949579 
L 222.967317 128.581841 
L 223.368186 103.795961 
L 223.769055 112.056388 
L 224.169925 98.373063 
L 225.372532 107.915624 
L 225.773401 103.90409 
L 226.174271 104.42331 
L 226.57514 106.857517 
L 226.976009 121.394973 
L 228.178616 125.841238 
L 228.579486 120.798305 
L 228.980355 129.355394 
L 229.381224 120.564975 
L 229.782093 108.918821 
L 230.984701 79.760508 
L 231.38557 105.010171 
L 231.786439 103.317472 
L 232.187308 100.111946 
L 232.588177 93.34728 
L 233.790785 80.791006 
L 234.191654 82.951587 
L 234.592523 71.439009 
L 234.993392 68.869007 
L 235.394262 68.362994 
L 236.997738 86.168545 
L 237.398608 97.142327 
L 237.799477 102.818405 
L 238.200346 98.373356 
L 239.402953 107.197572 
L 239.803823 94.424397 
L 240.204692 96.11057 
L 240.605561 102.507344 
L 241.00643 112.403044 
L 242.209038 129.498962 
L 242.609907 121.32731 
L 243.010776 115.45277 
L 243.411645 131.495834 
L 243.812514 135.819017 
L 245.015122 114.437033 
L 245.415991 110.272997 
L 245.81686 103.473556 
L 246.217729 116.86142 
L 246.618599 111.571613 
L 247.821206 103.624928 
L 248.222075 104.721818 
L 248.622945 114.955441 
L 249.023814 111.970471 
L 249.424683 120.781864 
L 250.62729 126.933247 
L 251.02816 127.712289 
L 251.429029 99.769011 
L 251.829898 101.421732 
L 253.433375 101.871463 
L 253.834244 94.269062 
L 254.235113 89.502423 
L 254.635982 81.997482 
L 255.036851 84.594084 
L 256.239459 113.016414 
L 256.640328 101.086897 
L 257.041197 98.144562 
L 257.442067 108.802449 
L 257.842936 89.889688 
L 259.045543 84.348705 
L 259.446412 100.59131 
L 259.847282 98.620295 
L 260.248151 114.672375 
L 260.64902 119.510759 
L 261.851627 113.774381 
L 262.252497 132.42526 
L 262.653366 133.978884 
L 263.054235 127.740775 
L 263.455104 109.525966 
L 264.657712 107.373472 
L 265.058581 93.89359 
L 265.45945 87.478277 
L 265.860319 87.865381 
L 266.261188 103.364297 
L 267.463796 94.77325 
L 267.864665 115.475641 
L 268.265534 84.085938 
L 268.666404 85.28741 
L 269.067273 87.47827 
L 270.26988 64.274865 
L 271.071619 80.062457 
L 271.472488 80.034025 
L 271.873357 77.765034 
L 273.075965 80.587917 
L 274.278572 81.986008 
L 274.679441 72.721028 
L 275.882049 54.324415 
L 276.282918 55.2896 
L 276.683787 52.0601 
L 277.084656 102.323337 
L 277.485525 125.914537 
L 279.089002 139.165373 
L 279.489871 122.363647 
L 279.890741 129.585503 
L 280.29161 141.31837 
L 281.494217 129.994628 
L 281.895086 128.668111 
L 282.295956 136.043792 
L 282.696825 134.737214 
L 283.097694 146.734967 
L 284.300302 145.021056 
L 284.701171 150.803149 
L 285.10204 167.026275 
L 285.903778 127.788819 
L 287.106386 109.452773 
L 287.507255 120.452928 
L 287.908124 103.203829 
L 288.308993 97.124087 
L 288.709863 127.600963 
L 289.91247 117.659926 
L 290.313339 102.104203 
L 291.115078 91.781893 
L 291.515947 99.687379 
L 292.718554 94.151408 
L 293.119424 74.305348 
L 293.520293 83.666367 
L 293.921162 97.95036 
L 294.322031 107.979539 
L 296.326377 135.22849 
L 296.727246 121.700738 
L 297.128115 134.551436 
L 298.330723 153.709272 
L 298.731592 152.504508 
L 299.132461 167.313269 
L 299.53333 151.87534 
L 299.9342 176.681831 
L 301.136807 175.760908 
L 301.537676 158.429406 
L 301.938545 136.078103 
L 302.339415 125.432773 
L 302.740284 111.480273 
L 303.942891 132.65851 
L 304.343761 143.809334 
L 304.74463 131.605439 
L 305.145499 134.33794 
L 305.546368 130.056164 
L 306.748976 130.608298 
L 307.149845 118.94029 
L 307.550714 125.064266 
L 307.951583 114.391058 
L 308.352452 122.909491 
L 309.55506 129.972527 
L 309.955929 151.627304 
L 310.356798 154.112145 
L 311.158537 165.890589 
L 312.361144 139.830595 
L 312.762013 104.645344 
L 313.162882 125.122063 
L 313.563752 135.489283 
L 313.964621 118.033749 
L 315.167228 126.703271 
L 315.568098 136.120582 
L 315.968967 154.320244 
L 316.369836 152.717457 
L 316.770705 135.99073 
L 317.973313 124.617661 
L 318.374182 112.90554 
L 318.775051 131.801572 
L 319.17592 128.206363 
L 319.576789 138.925149 
L 320.779397 135.130988 
L 321.180266 146.401105 
L 321.581135 151.750546 
L 321.982004 162.893965 
L 323.585481 169.659447 
L 323.98635 156.586547 
L 324.38722 117.721875 
L 324.788089 126.940099 
L 326.391565 125.860341 
L 326.792435 126.120245 
L 327.193304 165.263546 
L 327.594173 128.890802 
L 327.995042 134.667048 
L 329.19765 121.248051 
L 329.598519 127.654977 
L 329.999388 124.490181 
L 330.400257 126.557249 
L 330.801126 136.144553 
L 332.404603 128.989734 
L 333.206341 115.486367 
L 333.607211 117.222982 
L 334.809818 119.944451 
L 335.210687 131.69094 
L 335.611557 124.792839 
L 336.012426 141.07059 
L 336.413295 140.908385 
L 337.615902 144.13751 
L 338.016772 130.327835 
L 338.417641 132.443799 
L 338.81851 118.095881 
L 339.219379 107.80117 
L 340.421987 93.782152 
L 340.822856 106.715952 
L 341.223725 106.731824 
L 341.624594 92.206585 
L 342.025463 100.176727 
L 344.029809 84.106494 
L 344.430678 88.61166 
L 344.831548 85.126318 
L 346.034155 107.107646 
L 346.435024 118.845025 
L 346.835894 111.571701 
L 347.236763 138.651652 
L 347.637632 130.365854 
L 349.241109 147.750291 
L 350.042847 183.529942 
L 350.443716 178.401907 
L 351.646324 195.345526 
L 352.047193 169.339474 
L 352.448062 169.095134 
L 352.848931 160.545049 
L 353.2498 155.707313 
L 354.452408 146.874978 
L 354.853277 151.561739 
L 355.254146 131.660081 
L 355.655016 150.882992 
L 356.055885 150.970831 
L 357.258492 136.514402 
L 357.659361 126.720443 
L 358.060231 126.573539 
L 358.4611 130.769489 
L 358.861969 102.625558 
L 360.064576 119.705315 
L 360.465446 120.519459 
L 360.866315 121.802443 
L 361.267184 106.388958 
L 362.870661 109.740007 
L 363.27153 116.293911 
L 363.672399 111.141898 
L 364.073268 84.441383 
L 364.474137 85.075098 
L 365.676745 78.545302 
L 366.077614 68.978425 
L 366.478483 67.96609 
L 366.879353 58.064633 
L 367.280222 67.915534 
L 368.482829 86.084094 
L 369.284568 92.447523 
L 369.685437 111.97556 
L 370.086306 108.406029 
L 371.288914 102.53301 
L 372.090652 113.789554 
L 372.491521 114.345045 
L 372.89239 136.723147 
L 374.094998 151.902946 
L 374.495867 153.41679 
L 374.896736 178.423595 
L 375.297605 172.257383 
L 375.698475 149.454008 
L 376.901082 157.686822 
L 377.301951 163.123816 
L 377.70282 163.870314 
L 378.10369 183.265639 
L 378.504559 167.557347 
L 379.707166 167.210747 
L 380.108035 168.031929 
L 380.508905 167.955139 
L 380.909774 142.924489 
L 381.310643 128.51561 
L 382.513251 101.794817 
L 382.91412 103.017181 
L 383.314989 103.231051 
L 383.715858 115.327089 
L 384.116727 84.929638 
L 385.720204 85.187647 
L 386.121073 58.985299 
L 386.521942 53.949115 
L 386.922812 53.796892 
L 388.125419 50.29354 
L 388.526288 50.824074 
L 388.927157 55.082644 
L 389.328027 57.894472 
L 389.728896 57.755865 
L 390.931503 60.899102 
L 391.332373 72.283886 
L 391.733242 72.624099 
L 392.134111 56.41709 
L 392.53498 62.543944 
L 393.737588 72.645653 
L 394.138457 73.249444 
L 394.539326 73.48806 
L 394.940195 79.552098 
L 395.341064 88.444423 
L 396.543672 69.398285 
L 396.944541 65.107709 
L 397.746279 68.423627 
L 398.147149 67.663044 
L 399.750625 55.695532 
L 400.151494 69.939723 
L 400.552364 98.92549 
L 400.953233 95.743185 
L 402.15584 81.575917 
L 402.957579 113.480551 
L 403.358448 137.31451 
L 403.759317 148.195085 
L 404.961925 155.705721 
L 405.362794 159.100935 
L 405.763663 142.154139 
L 406.164532 142.616697 
L 406.565401 148.389542 
L 407.768009 156.352209 
L 408.168878 153.102989 
L 408.569747 139.745047 
L 408.970616 139.518752 
L 409.371486 152.055497 
L 410.574093 142.122385 
L 410.974962 132.959369 
L 411.776701 69.507185 
L 412.17757 88.176134 
L 413.380177 84.167832 
L 413.781047 115.143359 
L 414.181916 129.020438 
L 414.582785 121.800355 
L 414.983654 105.238121 
L 416.186262 110.859798 
L 416.587131 133.643153 
L 416.988 148.345267 
L 417.388869 125.765633 
L 417.789738 112.195305 
L 418.992346 98.704334 
L 419.393215 107.35152 
L 419.794084 106.655146 
L 420.194953 104.007326 
L 420.595823 96.355302 
L 421.79843 87.907398 
L 422.600169 90.739435 
L 423.001038 94.635666 
L 423.401907 84.65376 
L 425.005384 76.649994 
L 425.406253 74.029956 
L 426.207991 93.985349 
L 427.410599 126.77611 
L 427.811468 119.236802 
L 428.212337 128.172679 
L 428.613206 126.610839 
L 429.014075 158.169583 
L 430.216683 176.271927 
L 430.617552 165.766817 
L 431.018421 144.729633 
L 431.41929 130.520284 
L 431.82016 149.300166 
L 433.022767 153.491161 
L 433.423636 162.806722 
L 433.824506 163.062982 
L 434.225375 165.575789 
L 434.626244 160.549842 
L 435.828851 174.687819 
L 436.229721 161.214713 
L 436.63059 155.381604 
L 437.031459 144.638469 
L 437.432328 136.957014 
L 438.634936 141.292493 
L 439.035805 155.390751 
L 439.436674 161.792856 
L 439.837543 138.326433 
L 441.44102 100.327067 
L 441.841889 94.135871 
L 442.242758 102.389559 
L 442.643627 94.816797 
L 443.044497 61.202175 
L 444.247104 63.214769 
L 444.647973 55.670797 
L 445.048843 66.534663 
L 445.449712 55.90985 
L 445.850581 49.35386 
L 447.053188 47.934171 
L 447.454058 47.220912 
L 447.854927 48.717845 
L 448.255796 43.26387 
L 448.656665 44.775051 
L 449.859273 43.567106 
L 450.260142 42.773055 
L 450.661011 65.779484 
L 451.06188 63.109999 
L 451.462749 64.362693 
L 452.665357 76.073414 
L 453.066226 70.781782 
L 453.467095 88.275727 
L 453.867965 79.703104 
L 454.268834 75.806396 
L 455.471441 90.017562 
L 455.87231 93.162544 
L 456.27318 105.871845 
L 457.074918 117.762922 
L 458.277525 112.287498 
L 458.678395 117.272665 
L 459.079264 117.609899 
L 459.480133 119.163969 
L 459.881002 130.303571 
L 461.08361 132.302044 
L 461.484479 119.379588 
L 461.885348 117.07841 
L 462.286217 139.944336 
L 462.687086 151.408453 
L 463.889694 156.61392 
L 464.290563 154.197054 
L 464.691432 145.54502 
L 465.092302 149.953576 
L 465.493171 166.29111 
L 466.695778 163.717624 
L 467.096647 147.213945 
L 467.497517 149.914955 
L 467.898386 139.735608 
L 469.501863 126.363234 
L 469.902732 148.302035 
L 470.303601 146.487493 
L 470.70447 139.91931 
L 471.105339 139.011779 
L 472.307947 113.882466 
L 472.708816 123.928671 
L 473.109685 158.840609 
L 473.510554 134.656558 
L 473.911424 138.154394 
L 475.114031 135.692289 
L 475.5149 146.758445 
L 475.915769 148.656649 
L 476.717508 177.53898 
L 478.320984 179.982436 
L 479.523592 187.703324 
L 480.7262 198.543354 
L 481.127069 199.238871 
L 481.527938 185.062406 
L 481.928807 198.498278 
L 482.329676 179.304219 
L 483.532284 159.140138 
L 483.933153 162.302952 
L 484.334022 157.33825 
L 484.734891 156.447257 
L 485.135761 156.401795 
L 486.338368 143.818068 
L 486.739237 131.990639 
L 487.140106 108.127126 
L 487.540976 109.356536 
L 487.941845 127.79681 
L 489.144452 115.912728 
L 489.946191 96.599553 
L 490.747929 138.858311 
L 492.351406 141.873415 
L 492.752275 153.42195 
L 493.153144 133.87226 
L 493.554013 133.590605 
L 494.756621 134.946432 
L 495.558359 151.222929 
L 495.959228 148.850255 
L 496.360098 141.029605 
L 497.562705 154.839905 
L 497.963574 178.078789 
L 498.364443 160.59421 
L 498.765313 149.598122 
L 499.166182 147.16365 
L 500.368789 151.193794 
L 500.769659 127.317849 
L 501.170528 126.008149 
L 501.571397 127.127476 
L 501.972266 116.566791 
L 503.174874 106.214825 
L 503.575743 113.061368 
L 503.976612 116.792649 
L 504.377481 95.286601 
L 504.77835 83.306743 
L 505.980958 81.917049 
L 506.381827 86.197292 
L 506.782696 93.16741 
L 507.183565 91.471497 
L 507.584435 89.252157 
L 508.787042 94.157772 
L 509.187911 119.791761 
L 510.390519 162.651627 
L 511.593126 167.978511 
L 511.993996 165.523582 
L 512.394865 188.291138 
L 512.795734 190.204297 
L 514.399211 190.232673 
L 514.80008 190.546064 
L 515.200949 189.591293 
L 515.601818 192.820588 
L 516.002687 193.131261 
L 517.205295 196.760373 
L 517.606164 195.776583 
L 518.007033 191.657169 
L 518.407902 171.613211 
L 518.808772 172.385901 
L 520.011379 153.657679 
L 520.412248 149.9014 
L 520.813118 149.54554 
L 521.213987 153.482518 
L 521.614856 160.417949 
L 522.817463 174.679389 
L 523.218333 163.898048 
L 523.619202 161.998386 
L 524.020071 160.730311 
L 524.42094 149.372221 
L 525.623548 144.830175 
L 526.024417 134.265161 
L 526.425286 154.831691 
L 526.826155 144.646707 
L 527.227024 158.061122 
L 528.429632 156.544806 
L 528.830501 169.680136 
L 529.23137 150.138127 
L 529.632239 139.729982 
L 530.033109 114.654273 
L 531.636585 121.608426 
L 532.037455 114.343976 
L 532.438324 98.836891 
L 532.839193 121.750604 
L 534.0418 115.748847 
L 534.44267 123.446083 
L 534.843539 109.203738 
L 535.645277 129.052222 
L 536.847885 145.427001 
L 537.248754 135.894067 
L 537.649623 137.405366 
L 538.050492 157.526498 
L 538.451361 167.857218 
L 540.054838 156.273753 
L 540.455707 154.993744 
L 540.856576 177.149227 
L 541.257446 153.480079 
L 542.460053 157.13042 
L 542.860922 167.036212 
L 543.261792 168.285204 
L 543.662661 166.642637 
L 544.06353 163.053852 
L 545.667007 142.019608 
L 546.067876 142.375778 
L 546.468745 141.803981 
L 546.869614 128.589399 
L 548.072222 143.408994 
L 548.473091 157.153164 
L 548.87396 152.774837 
L 549.274829 146.754059 
L 549.675698 157.521955 
L 550.878306 146.336335 
L 551.279175 114.102752 
L 551.680044 93.986985 
L 552.080914 82.16701 
L 552.481783 84.612331 
L 553.68439 96.285826 
L 554.085259 109.141249 
L 554.486129 102.968968 
L 554.886998 100.558463 
L 555.287867 84.05783 
L 556.490475 80.224665 
L 556.891344 80.20258 
L 557.292213 79.059842 
L 557.693082 79.541695 
L 558.093951 87.408059 
L 559.296559 120.496538 
L 559.697428 143.30482 
L 560.900035 109.277111 
L 562.102643 97.28753 
L 562.904381 126.885461 
L 563.305251 123.189073 
L 563.70612 140.55317 
L 565.710466 158.986959 
L 566.111335 145.914077 
L 566.512204 150.599849 
L 567.714812 148.122483 
L 568.115681 167.487722 
L 568.51655 169.323813 
L 568.917419 191.267061 
L 569.318288 199.101409 
L 570.921765 199.218968 
L 571.322634 191.51947 
L 571.723503 194.896966 
L 572.124373 180.991974 
L 573.32698 171.762462 
L 573.727849 185.290609 
L 574.128718 186.134408 
L 574.529588 202.378775 
L 574.930457 185.833211 
L 576.133064 176.743034 
L 576.533933 175.421981 
L 577.335672 162.445466 
L 577.736541 158.491253 
L 578.939149 160.257621 
L 579.340018 162.255081 
L 579.740887 160.867856 
L 580.141756 180.287031 
L 580.542625 185.117768 
L 581.745233 150.1907 
L 582.146102 131.464794 
L 582.546971 125.370846 
L 582.94784 134.202603 
L 583.34871 160.409847 
L 584.551317 163.361584 
L 584.952186 166.842377 
L 585.353055 157.39552 
L 585.753925 144.328828 
L 586.154794 151.989001 
L 587.357401 141.797203 
L 587.758271 146.793276 
L 588.15914 135.848976 
L 588.560009 131.301407 
L 588.960878 133.351747 
L 590.163486 145.477797 
L 590.564355 131.361095 
L 590.965224 136.857836 
L 591.766962 86.679634 
L 592.96957 94.088455 
L 593.370439 91.108099 
L 593.771308 106.232135 
L 594.172177 81.088485 
L 594.573047 80.26625 
L 595.775654 79.556381 
L 596.176523 77.365849 
L 596.577392 102.683919 
L 596.978262 85.73377 
L 597.379131 82.58884 
L 598.581738 88.107794 
L 598.982608 77.409855 
L 599.383477 95.129645 
L 599.784346 105.721248 
L 600.185215 104.440826 
L 601.387823 106.633924 
L 601.788692 93.69966 
L 602.189561 91.448618 
L 602.991299 102.524807 
L 604.193907 111.714223 
L 604.594776 118.124887 
L 604.995645 91.619468 
L 605.797384 122.582742 
L 606.999991 126.966525 
L 607.40086 143.432639 
L 607.801729 128.510161 
L 608.202599 108.715875 
L 608.603468 106.724106 
L 609.806075 99.040156 
L 610.206945 100.92554 
L 610.607814 114.267454 
L 611.008683 122.414978 
L 611.409552 121.413895 
L 612.61216 123.480946 
L 613.013029 146.836575 
L 613.413898 142.951076 
L 613.814767 154.611032 
L 614.215636 153.089804 
L 615.819113 158.132698 
L 616.219982 161.330801 
L 616.620851 170.592333 
L 617.021721 168.784354 
L 618.625197 183.314735 
L 619.026067 185.818913 
L 619.426936 186.449038 
L 619.827805 166.279013 
L 621.030412 146.760786 
L 621.431282 137.68777 
L 621.832151 133.70856 
L 622.23302 132.254749 
L 622.633889 105.377738 
L 624.237366 93.686031 
L 624.638235 75.091801 
L 625.039104 88.47243 
L 625.439973 84.266556 
L 626.642581 75.695772 
L 627.04345 69.314896 
L 627.444319 71.151499 
L 627.845188 58.204808 
L 628.246058 58.31029 
L 629.448665 87.490017 
L 629.849534 86.843362 
L 630.250404 79.184435 
L 630.651273 77.939462 
L 631.052142 89.389733 
L 632.254749 94.641035 
L 633.056488 72.94429 
L 633.457357 77.554035 
L 633.858226 106.232976 
L 635.060834 102.264826 
L 635.461703 94.019331 
L 635.862572 100.313228 
L 636.263441 115.046917 
L 636.66431 107.216171 
L 638.267787 120.25116 
L 638.668656 134.805601 
L 639.069525 112.934594 
L 639.470395 110.117337 
L 640.673002 108.317418 
L 641.073871 121.080302 
L 641.474741 127.323524 
L 641.87561 122.814562 
L 642.276479 105.304238 
L 643.479086 113.811866 
L 643.879956 128.662217 
L 644.280825 117.061518 
L 644.681694 116.850761 
L 645.082563 115.034119 
L 646.285171 104.725671 
L 646.68604 97.04002 
L 647.086909 123.804526 
L 647.487778 102.464174 
L 647.888647 102.752104 
L 649.091255 96.094849 
L 649.492124 83.605722 
L 649.892993 86.188026 
L 650.293863 85.061484 
L 650.694732 86.653003 
L 651.897339 86.362525 
L 652.298208 96.833428 
L 652.699078 74.182831 
L 653.099947 59.032712 
L 653.500816 57.432966 
L 654.703424 61.482542 
L 655.104293 77.288507 
L 655.505162 106.158091 
L 655.906031 106.563817 
L 657.509508 101.578647 
L 658.311246 131.954927 
L 658.712115 146.221393 
L 659.112984 132.815011 
L 660.315592 123.258527 
L 660.716461 110.339059 
L 661.11733 114.817609 
L 661.5182 137.205592 
L 661.919069 144.518291 
L 663.121676 149.752474 
L 663.522545 154.002556 
L 663.923415 131.104464 
L 664.324284 129.188265 
L 664.725153 129.502501 
L 665.927761 106.061296 
L 666.32863 106.557096 
L 667.130368 120.851655 
L 667.531237 110.997783 
L 668.733845 112.989064 
L 669.134714 124.367665 
L 669.535583 108.481704 
L 669.936452 113.552163 
L 670.337322 115.977057 
L 671.539929 97.235491 
L 671.940798 101.287447 
L 672.742537 88.439548 
L 673.143406 103.643674 
L 674.346013 93.214625 
L 674.746882 94.673459 
L 675.147752 93.030133 
L 675.548621 65.621921 
L 675.94949 64.497796 
L 677.552967 55.538685 
L 677.953836 79.732545 
L 678.354705 72.330118 
L 678.755574 74.076896 
L 679.958182 76.801093 
L 680.359051 81.743009 
L 680.75992 93.667689 
L 681.160789 95.21057 
L 681.561659 91.195361 
L 682.764266 88.324904 
L 683.165135 80.484107 
L 683.566004 75.099918 
L 683.966874 100.373689 
L 684.367743 104.968355 
L 685.97122 105.22814 
L 686.372089 89.285331 
L 686.772958 100.343272 
L 688.376435 120.16893 
L 688.777304 107.011532 
L 689.178173 102.75892 
L 689.579042 112.370863 
L 689.979911 104.742937 
L 691.182519 108.307998 
L 691.984257 120.313831 
L 692.385126 142.412858 
L 692.785996 134.07574 
L 693.988603 137.92623 
L 694.389472 149.14908 
L 694.790341 123.009781 
L 695.191211 106.023188 
L 695.59208 102.439665 
L 696.794687 75.756497 
L 697.195557 76.656031 
L 697.596426 71.169596 
L 697.997295 89.710778 
L 698.398164 113.706966 
L 699.600772 112.28052 
L 700.001641 104.163417 
L 700.40251 104.30342 
L 700.803379 104.01577 
L 701.204248 95.833977 
L 702.406856 97.224465 
L 702.807725 108.739035 
L 703.208594 147.697892 
L 703.609463 141.154493 
L 704.010333 150.086818 
L 705.21294 153.653795 
L 705.613809 156.26514 
L 706.014678 160.202602 
L 706.415548 152.378858 
L 706.816417 167.011316 
L 708.019024 147.571812 
L 708.419894 144.350031 
L 708.820763 151.465443 
L 709.221632 160.900703 
L 709.622501 161.043529 
L 710.825109 129.429587 
L 711.626847 115.853608 
L 712.027716 116.484223 
L 712.428585 128.65217 
L 713.631193 118.896847 
L 714.032062 93.241555 
L 714.432931 90.022811 
L 714.8338 74.861999 
L 715.23467 94.972814 
L 716.838146 95.707289 
L 717.239016 106.076685 
L 718.040754 117.130407 
L 719.243361 147.788972 
L 719.644231 139.894707 
L 720.0451 149.062739 
L 720.445969 148.479964 
L 720.846838 152.817898 
L 722.049446 162.245188 
L 722.450315 197.43222 
L 722.851184 211.332165 
L 723.252053 215.46 
L 723.652922 202.909492 
L 724.85553 193.449375 
L 725.256399 188.527501 
L 726.058137 160.420829 
L 726.459007 151.315707 
L 727.661614 133.299739 
L 728.062483 151.122023 
L 728.463353 146.47543 
L 728.864222 124.452401 
L 729.265091 115.961514 
L 730.467698 116.418645 
L 731.269437 74.44356 
L 731.670306 76.427123 
L 732.071175 101.287635 
L 733.273783 93.426196 
L 733.674652 120.49914 
L 734.075521 139.035446 
L 734.47639 143.033803 
L 734.877259 159.388218 
L 736.079867 136.606249 
L 736.480736 135.298838 
L 737.282475 169.385806 
L 737.683344 165.591706 
L 738.885951 164.342119 
L 739.28682 175.794486 
L 739.68769 162.594322 
L 740.088559 145.441073 
L 741.692035 119.860525 
L 742.092905 103.270546 
L 742.493774 99.098381 
L 742.894643 89.904302 
L 743.295512 90.805611 
L 744.49812 92.682386 
L 744.898989 64.645092 
L 745.299858 54.106508 
L 745.700727 53.327599 
L 746.101596 57.572813 
L 747.304204 49.458395 
L 747.705073 59.989626 
L 748.105942 83.108767 
L 748.907681 104.712308 
L 750.110288 106.788903 
L 750.511157 113.638427 
L 750.912027 116.162398 
L 751.713765 149.378168 
L 752.916373 162.81445 
L 753.317242 162.507471 
L 753.718111 164.456981 
L 754.11898 158.460798 
L 754.519849 147.575321 
L 755.722457 165.106835 
L 756.925064 126.97137 
L 757.325933 126.317966 
L 758.528541 112.723073 
L 758.92941 119.79088 
L 759.330279 120.970693 
L 759.731149 114.773886 
L 760.132018 103.600402 
L 761.735494 107.571449 
L 762.136364 93.237274 
L 762.938102 107.46073 
L 764.541579 114.404079 
L 764.942448 133.490457 
L 765.343317 133.515391 
L 765.744186 124.076241 
L 766.946794 103.416766 
L 767.347663 105.296961 
L 767.748532 92.98975 
L 768.149401 71.4663 
L 768.550271 76.548003 
L 770.153747 68.202827 
L 770.554616 74.219335 
L 770.955486 71.200156 
L 771.356355 65.31475 
L 772.558962 64.962702 
L 772.959831 48.076571 
L 773.360701 39.06 
L 773.76157 39.131626 
L 774.162439 47.674507 
L 775.765916 50.544323 
L 776.166785 71.614612 
L 776.567654 68.509262 
L 776.968523 60.315657 
L 778.171131 57.951588 
L 778.572 65.459229 
L 778.972869 64.049683 
L 779.373738 72.934666 
L 779.774608 68.121298 
L 780.977215 68.31133 
L 781.378084 72.357698 
L 781.778953 69.274965 
L 782.179823 74.608967 
L 782.580692 78.191948 
L 784.585038 105.781135 
L 784.985907 83.873958 
L 785.386776 88.891275 
L 786.589384 95.111096 
L 786.990253 91.229919 
L 787.391122 101.662048 
L 787.791991 95.411236 
L 788.19286 93.799559 
L 790.197206 84.229652 
L 790.598075 72.613941 
L 790.998945 93.762325 
L 792.201552 88.507096 
L 792.602421 73.327615 
L 793.00329 92.894927 
L 793.40416 105.511778 
L 793.805029 106.50792 
L 795.007636 103.715034 
L 795.408506 97.792842 
L 795.809375 98.718234 
L 796.210244 103.157521 
L 796.611113 103.392304 
L 797.813721 103.433162 
L 798.615459 140.6841 
L 799.016328 120.700708 
L 800.619805 111.919067 
L 801.020674 146.770626 
L 801.421543 144.002406 
L 801.822412 144.610329 
L 802.223282 131.493928 
L 803.425889 139.373526 
L 803.826758 152.811667 
L 804.227627 148.637944 
L 804.628497 135.957993 
L 805.029366 159.36442 
L 806.231973 169.722038 
L 806.632843 154.696236 
L 807.033712 158.12731 
L 807.434581 155.425625 
L 807.83545 175.041261 
L 809.038058 160.277717 
L 809.438927 149.585638 
L 809.839796 148.900101 
L 810.240665 146.327661 
L 810.641534 131.003411 
L 811.844142 126.56182 
L 812.245011 133.969601 
L 812.64588 151.084299 
L 813.447619 125.721403 
L 814.650226 121.58253 
L 815.051095 116.827757 
L 815.451965 118.521997 
L 815.852834 96.031616 
L 816.253703 100.323827 
L 817.45631 105.723133 
L 817.85718 90.828824 
L 818.258049 90.176095 
L 818.658918 104.273962 
L 819.059787 113.828378 
L 820.262395 100.634381 
L 820.663264 80.085335 
L 821.064133 89.404626 
L 821.465002 77.13335 
L 821.865871 78.274222 
L 823.469348 60.251116 
L 823.870217 58.749075 
L 824.271086 71.681925 
L 824.671956 76.847215 
L 825.874563 71.56712 
L 826.275432 71.112676 
L 826.676302 68.720071 
L 827.077171 73.00569 
L 827.47804 66.437122 
L 828.680647 67.564798 
L 829.081517 71.497139 
L 829.482386 66.339006 
L 829.883255 69.934067 
L 830.284124 70.296435 
L 831.486732 82.659642 
L 831.887601 77.837944 
L 832.689339 79.74951 
L 834.292816 125.476989 
L 834.693685 113.681148 
L 835.094554 123.75191 
L 835.495424 125.998852 
L 835.896293 126.765884 
L 837.0989 127.050425 
L 837.499769 128.725969 
L 837.900639 126.139097 
L 838.702377 140.422295 
L 839.904984 140.193692 
L 840.305854 131.600306 
L 840.706723 133.789391 
L 841.107592 139.007716 
L 841.508461 126.938723 
L 842.711069 107.280389 
L 843.512807 151.836388 
L 843.913676 139.001204 
L 844.314545 144.417897 
L 845.517153 133.880513 
L 845.918022 132.56458 
L 846.318891 158.555096 
L 846.719761 157.890058 
L 847.12063 161.764087 
L 848.323237 172.105917 
L 848.724106 189.923871 
L 849.124976 149.698696 
L 849.525845 162.73691 
L 849.926714 163.915446 
L 851.129322 168.412623 
L 851.530191 152.805173 
L 851.93106 164.268 
L 852.331929 150.27447 
L 852.732798 160.406808 
L 853.935406 151.668893 
L 854.336275 129.677121 
L 855.138013 119.023169 
L 855.538882 114.727236 
L 856.74149 95.415441 
L 857.142359 115.471094 
L 857.543228 96.550833 
L 857.944098 103.327529 
L 858.344967 80.241868 
L 859.547574 91.687056 
L 859.948443 74.801054 
L 860.349313 89.06928 
L 860.750182 109.263602 
L 861.151051 112.86881 
L 863.957135 171.265752 
L 865.159743 175.836417 
L 865.560612 168.503673 
L 865.961481 151.512457 
L 866.36235 140.303526 
L 866.76322 151.950262 
L 867.965827 151.037564 
L 868.366696 157.187767 
L 868.767565 156.493386 
L 869.168435 131.79328 
L 869.569304 139.507476 
L 870.771911 109.523218 
L 871.17278 94.769967 
L 871.57365 92.262841 
L 871.974519 74.669187 
L 872.375388 90.612018 
L 873.577996 93.308923 
L 873.978865 132.07122 
L 874.379734 133.395503 
L 875.181472 107.804975 
L 876.38408 97.457896 
L 876.784949 80.599322 
L 877.185818 88.140281 
L 877.586687 76.558556 
L 877.987557 76.945688 
L 879.190164 78.790166 
L 879.591033 109.894928 
L 879.991902 102.875446 
L 880.392772 91.65749 
L 880.793641 90.105958 
L 881.996248 66.336614 
L 882.397118 68.453984 
L 882.797987 89.245447 
L 883.198856 91.085576 
L 883.599725 93.809199 
L 884.802333 108.281761 
L 885.203202 105.632419 
L 885.604071 118.192477 
L 886.00494 137.708482 
L 886.405809 139.461886 
L 887.608417 118.496216 
L 888.009286 119.200908 
L 888.410155 108.461093 
L 888.811024 104.120367 
L 889.211894 120.868608 
L 890.414501 127.798996 
L 890.81537 107.627986 
L 891.216239 116.312418 
L 891.617109 117.811931 
L 892.017978 128.715976 
L 893.220585 135.112969 
L 894.022324 99.700457 
L 894.423193 102.959941 
L 894.824062 118.482384 
L 896.02667 141.158071 
L 896.828408 168.115012 
L 897.630146 156.099887 
L 898.832754 150.046575 
L 899.233623 154.603598 
L 899.634492 135.30065 
L 900.035361 136.781748 
L 900.436231 131.118774 
L 901.638838 135.88367 
L 902.039707 166.368143 
L 902.440576 149.574822 
L 902.841446 156.021156 
L 903.242315 152.737225 
L 904.444922 144.161127 
L 904.845792 151.124626 
L 905.246661 150.891234 
L 905.64753 154.916257 
L 906.048399 142.930947 
L 907.251007 133.836265 
L 907.651876 145.949306 
L 908.453614 146.470208 
L 908.854483 147.170397 
L 910.057091 136.334835 
L 910.45796 134.76635 
L 911.259698 135.452054 
L 911.660568 113.170066 
L 912.863175 93.430634 
L 913.264044 114.725091 
L 913.664914 110.537102 
L 914.466652 117.571377 
L 915.669259 127.105798 
L 916.070129 138.864542 
L 916.470998 140.023198 
L 916.871867 146.504636 
L 917.272736 136.756181 
L 918.876213 124.953783 
L 919.677951 108.453631 
L 921.281428 168.226274 
L 921.682297 158.486899 
L 922.083166 154.519583 
L 922.484035 152.945585 
L 922.884905 153.34399 
L 924.087512 154.098123 
L 924.488381 149.452034 
L 924.889251 146.91891 
L 925.29012 138.534085 
L 925.690989 142.652835 
L 926.893596 141.783716 
L 927.294466 152.248486 
L 927.695335 154.302261 
L 928.096204 142.450045 
L 928.497073 93.274624 
L 930.10055 107.691104 
L 930.501419 90.392039 
L 930.902288 90.501493 
L 931.303157 94.61773 
L 932.505765 97.254369 
L 932.906634 112.662916 
L 933.307503 115.816087 
L 933.708373 150.868233 
L 934.109242 142.278855 
L 935.311849 166.623644 
L 936.113588 156.337436 
L 936.514457 173.31215 
L 936.915326 176.759048 
L 938.117933 182.922635 
L 938.518803 178.714562 
L 938.919672 166.262215 
L 939.320541 160.782315 
L 939.72141 144.988272 
L 940.924018 143.015228 
L 941.324887 156.307002 
L 941.725756 136.988623 
L 942.126625 144.356211 
L 942.527494 123.973623 
L 943.730102 120.359737 
L 944.130971 124.762192 
L 944.53184 125.245725 
L 944.93271 135.190817 
L 945.333579 125.809498 
L 946.536186 133.322666 
L 946.937055 148.301485 
L 947.337925 147.032809 
L 947.738794 184.933881 
L 948.139663 190.766281 
L 949.342271 174.325358 
L 949.74314 183.313114 
L 950.144009 139.547606 
L 950.544878 148.041869 
L 950.945747 148.670521 
L 952.148355 148.016561 
L 952.549224 135.075949 
L 952.950093 143.272136 
L 953.350962 144.967873 
L 954.954439 149.167181 
L 955.355308 148.809659 
L 955.756177 143.082607 
L 956.557916 106.45957 
L 957.760523 114.888405 
L 958.161392 111.972203 
L 958.562262 144.649444 
L 958.963131 122.331115 
L 959.364 123.396999 
L 960.566608 124.648705 
L 960.967477 128.959635 
L 961.368346 96.127006 
L 961.769215 82.686506 
L 962.170084 62.037463 
L 963.372692 58.112653 
L 963.773561 55.910687 
L 964.17443 54.869224 
L 964.575299 60.631986 
L 964.976169 47.64674 
L 966.178776 47.702845 
L 966.579645 53.928323 
L 966.980514 69.95961 
L 967.381384 72.226567 
L 967.782253 76.635718 
L 969.385729 70.164624 
L 969.786599 77.676992 
L 970.187468 72.675194 
L 970.588337 86.083129 
L 971.790945 92.199909 
L 972.191814 97.831947 
L 972.592683 108.832306 
L 972.993552 114.820804 
L 973.394421 111.691891 
L 974.597029 109.818038 
L 975.398767 95.514982 
L 975.799636 93.208707 
L 976.200506 99.589318 
L 977.403113 102.799545 
L 977.803982 102.296514 
L 978.204851 109.835794 
L 979.00659 98.124994 
L 980.209197 103.49787 
L 980.610067 103.830155 
L 981.411805 78.560745 
L 981.812674 76.978434 
L 983.015282 78.025886 
L 983.416151 102.862142 
L 983.81702 90.605202 
L 984.217889 90.73982 
L 985.821366 82.302592 
L 986.222235 83.812454 
L 986.623104 76.955636 
L 987.023973 77.13917 
L 987.424843 68.315556 
L 988.62745 72.841395 
L 989.028319 69.646377 
L 989.429188 76.562291 
L 989.830058 75.282904 
L 990.230927 82.408036 
L 991.433534 87.945709 
L 991.834404 86.292543 
L 992.235273 86.654823 
L 992.636142 85.113778 
L 993.037011 80.822334 
L 994.239619 78.518476 
L 994.640488 89.49375 
L 995.041357 84.984349 
L 995.442226 92.650155 
L 995.843095 105.523748 
L 997.045703 106.241901 
L 997.446572 113.592744 
L 997.847441 114.64667 
L 998.24831 109.759171 
L 998.64918 102.475028 
L 999.851787 88.309184 
L 1000.252656 92.999181 
L 1000.653525 106.254034 
L 1001.054395 104.201564 
L 1001.455264 119.431786 
L 1002.657871 109.867051 
L 1003.058741 143.944036 
L 1003.45961 140.560024 
L 1003.860479 127.660153 
L 1004.261348 141.052955 
L 1005.463956 125.763459 
L 1005.864825 122.6705 
L 1006.265694 128.790365 
L 1007.067432 160.721945 
L 1008.670909 173.474145 
L 1008.670909 173.474145 
" clip-path="url(#p5f8748a8a1)" style="fill: none; stroke: #1f77b4; stroke-width: 1.5; stroke-linecap: square"/>
   </g>
   <g id="patch_3">
    <path d="M 145.8 224.28 
L 145.8 30.24 
" style="fill: none; stroke: #000000; stroke-width: 0.8; stroke-linejoin: miter; stroke-linecap: square"/>
   </g>
   <g id="patch_4">
    <path d="M 145.8 224.28 
L 1049.76 224.28 
" style="fill: none; stroke: #000000; stroke-width: 0.8; stroke-linejoin: miter; stroke-linecap: square"/>
   </g>
  </g>
 </g>
 <defs>
  <clipPath id="p5f8748a8a1">
   <rect x="145.8" y="30.24" width="903.96" height="194.04"/>
  </clipPath>
 </defs>
</svg>
