<?xml version="1.0" encoding="utf-8" standalone="no"?>
<!DOCTYPE svg PUBLIC "-//W3C//DTD SVG 1.1//EN"
  "http://www.w3.org/Graphics/SVG/1.1/DTD/svg11.dtd">
<svg xmlns:xlink="http://www.w3.org/1999/xlink" width="756pt" height="252pt" viewBox="0 0 756 252" xmlns="http://www.w3.org/2000/svg" version="1.1">
 <metadata>
  <rdf:RDF xmlns:dc="http://purl.org/dc/elements/1.1/" xmlns:cc="http://creativecommons.org/ns#" xmlns:rdf="http://www.w3.org/1999/02/22-rdf-syntax-ns#">
   <cc:Work>
    <dc:type rdf:resource="http://purl.org/dc/dcmitype/StillImage"/>
    <dc:date>2025-08-27T15:49:08.827332</dc:date>
    <dc:format>image/svg+xml</dc:format>
    <dc:creator>
     <cc:Agent>
      <dc:title>Matplotlib v3.10.5, https://matplotlib.org/</dc:title>
     </cc:Agent>
    </dc:creator>
   </cc:Work>
  </rdf:RDF>
 </metadata>
 <defs>
  <style type="text/css">*{stroke-linejoin: round; stroke-linecap: butt}</style>
 </defs>
 <g id="figure_1">
  <g id="patch_1">
   <path d="M 0 252 
L 756 252 
L 756 0 
L 0 0 
z
" style="fill: #ffffff"/>
  </g>
  <g id="axes_1">
   <g id="patch_2">
    <path d="M 94.5 224.28 
L 680.4 224.28 
L 680.4 30.24 
L 94.5 30.24 
z
" style="fill: #ffffff"/>
   </g>
   <g id="matplotlib.axis_1">
    <g id="xtick_1">
     <g id="line2d_1">
      <defs>
       <path id="m338d63d273" d="M 0 0 
L 0 3.5 
" style="stroke: #000000; stroke-width: 0.8"/>
      </defs>
      <g>
       <use xlink:href="#m338d63d273" x="134.616283" y="224.28" style="stroke: #000000; stroke-width: 0.8"/>
      </g>
     </g>
     <g id="text_1">
      <!-- 2024-03 -->
      <g transform="translate(113.724877 238.878438) scale(0.1 -0.1)">
       <defs>
        <path id="DejaVuSans-32" d="M 1228 531 
L 3431 531 
L 3431 0 
L 469 0 
L 469 531 
Q 828 903 1448 1529 
Q 2069 2156 2228 2338 
Q 2531 2678 2651 2914 
Q 2772 3150 2772 3378 
Q 2772 3750 2511 3984 
Q 2250 4219 1831 4219 
Q 1534 4219 1204 4116 
Q 875 4013 500 3803 
L 500 4441 
Q 881 4594 1212 4672 
Q 1544 4750 1819 4750 
Q 2544 4750 2975 4387 
Q 3406 4025 3406 3419 
Q 3406 3131 3298 2873 
Q 3191 2616 2906 2266 
Q 2828 2175 2409 1742 
Q 1991 1309 1228 531 
z
" transform="scale(0.015625)"/>
        <path id="DejaVuSans-30" d="M 2034 4250 
Q 1547 4250 1301 3770 
Q 1056 3291 1056 2328 
Q 1056 1369 1301 889 
Q 1547 409 2034 409 
Q 2525 409 2770 889 
Q 3016 1369 3016 2328 
Q 3016 3291 2770 3770 
Q 2525 4250 2034 4250 
z
M 2034 4750 
Q 2819 4750 3233 4129 
Q 3647 3509 3647 2328 
Q 3647 1150 3233 529 
Q 2819 -91 2034 -91 
Q 1250 -91 836 529 
Q 422 1150 422 2328 
Q 422 3509 836 4129 
Q 1250 4750 2034 4750 
z
" transform="scale(0.015625)"/>
        <path id="DejaVuSans-34" d="M 2419 4116 
L 825 1625 
L 2419 1625 
L 2419 4116 
z
M 2253 4666 
L 3047 4666 
L 3047 1625 
L 3713 1625 
L 3713 1100 
L 3047 1100 
L 3047 0 
L 2419 0 
L 2419 1100 
L 313 1100 
L 313 1709 
L 2253 4666 
z
" transform="scale(0.015625)"/>
        <path id="DejaVuSans-2d" d="M 313 2009 
L 1997 2009 
L 1997 1497 
L 313 1497 
L 313 2009 
z
" transform="scale(0.015625)"/>
        <path id="DejaVuSans-33" d="M 2597 2516 
Q 3050 2419 3304 2112 
Q 3559 1806 3559 1356 
Q 3559 666 3084 287 
Q 2609 -91 1734 -91 
Q 1441 -91 1130 -33 
Q 819 25 488 141 
L 488 750 
Q 750 597 1062 519 
Q 1375 441 1716 441 
Q 2309 441 2620 675 
Q 2931 909 2931 1356 
Q 2931 1769 2642 2001 
Q 2353 2234 1838 2234 
L 1294 2234 
L 1294 2753 
L 1863 2753 
Q 2328 2753 2575 2939 
Q 2822 3125 2822 3475 
Q 2822 3834 2567 4026 
Q 2313 4219 1838 4219 
Q 1578 4219 1281 4162 
Q 984 4106 628 3988 
L 628 4550 
Q 988 4650 1302 4700 
Q 1616 4750 1894 4750 
Q 2613 4750 3031 4423 
Q 3450 4097 3450 3541 
Q 3450 3153 3228 2886 
Q 3006 2619 2597 2516 
z
" transform="scale(0.015625)"/>
       </defs>
       <use xlink:href="#DejaVuSans-32"/>
       <use xlink:href="#DejaVuSans-30" transform="translate(63.623047 0)"/>
       <use xlink:href="#DejaVuSans-32" transform="translate(127.246094 0)"/>
       <use xlink:href="#DejaVuSans-34" transform="translate(190.869141 0)"/>
       <use xlink:href="#DejaVuSans-2d" transform="translate(254.492188 0)"/>
       <use xlink:href="#DejaVuSans-30" transform="translate(290.576172 0)"/>
       <use xlink:href="#DejaVuSans-33" transform="translate(354.199219 0)"/>
      </g>
     </g>
    </g>
    <g id="xtick_2">
     <g id="line2d_2">
      <g>
       <use xlink:href="#m338d63d273" x="193.370023" y="224.28" style="stroke: #000000; stroke-width: 0.8"/>
      </g>
     </g>
     <g id="text_2">
      <!-- 2024-05 -->
      <g transform="translate(172.478617 238.878438) scale(0.1 -0.1)">
       <defs>
        <path id="DejaVuSans-35" d="M 691 4666 
L 3169 4666 
L 3169 4134 
L 1269 4134 
L 1269 2991 
Q 1406 3038 1543 3061 
Q 1681 3084 1819 3084 
Q 2600 3084 3056 2656 
Q 3513 2228 3513 1497 
Q 3513 744 3044 326 
Q 2575 -91 1722 -91 
Q 1428 -91 1123 -41 
Q 819 9 494 109 
L 494 744 
Q 775 591 1075 516 
Q 1375 441 1709 441 
Q 2250 441 2565 725 
Q 2881 1009 2881 1497 
Q 2881 1984 2565 2268 
Q 2250 2553 1709 2553 
Q 1456 2553 1204 2497 
Q 953 2441 691 2322 
L 691 4666 
z
" transform="scale(0.015625)"/>
       </defs>
       <use xlink:href="#DejaVuSans-32"/>
       <use xlink:href="#DejaVuSans-30" transform="translate(63.623047 0)"/>
       <use xlink:href="#DejaVuSans-32" transform="translate(127.246094 0)"/>
       <use xlink:href="#DejaVuSans-34" transform="translate(190.869141 0)"/>
       <use xlink:href="#DejaVuSans-2d" transform="translate(254.492188 0)"/>
       <use xlink:href="#DejaVuSans-30" transform="translate(290.576172 0)"/>
       <use xlink:href="#DejaVuSans-35" transform="translate(354.199219 0)"/>
      </g>
     </g>
    </g>
    <g id="xtick_3">
     <g id="line2d_3">
      <g>
       <use xlink:href="#m338d63d273" x="252.123763" y="224.28" style="stroke: #000000; stroke-width: 0.8"/>
      </g>
     </g>
     <g id="text_3">
      <!-- 2024-07 -->
      <g transform="translate(231.232357 238.878438) scale(0.1 -0.1)">
       <defs>
        <path id="DejaVuSans-37" d="M 525 4666 
L 3525 4666 
L 3525 4397 
L 1831 0 
L 1172 0 
L 2766 4134 
L 525 4134 
L 525 4666 
z
" transform="scale(0.015625)"/>
       </defs>
       <use xlink:href="#DejaVuSans-32"/>
       <use xlink:href="#DejaVuSans-30" transform="translate(63.623047 0)"/>
       <use xlink:href="#DejaVuSans-32" transform="translate(127.246094 0)"/>
       <use xlink:href="#DejaVuSans-34" transform="translate(190.869141 0)"/>
       <use xlink:href="#DejaVuSans-2d" transform="translate(254.492188 0)"/>
       <use xlink:href="#DejaVuSans-30" transform="translate(290.576172 0)"/>
       <use xlink:href="#DejaVuSans-37" transform="translate(354.199219 0)"/>
      </g>
     </g>
    </g>
    <g id="xtick_4">
     <g id="line2d_4">
      <g>
       <use xlink:href="#m338d63d273" x="311.840679" y="224.28" style="stroke: #000000; stroke-width: 0.8"/>
      </g>
     </g>
     <g id="text_4">
      <!-- 2024-09 -->
      <g transform="translate(290.949273 238.878438) scale(0.1 -0.1)">
       <defs>
        <path id="DejaVuSans-39" d="M 703 97 
L 703 672 
Q 941 559 1184 500 
Q 1428 441 1663 441 
Q 2288 441 2617 861 
Q 2947 1281 2994 2138 
Q 2813 1869 2534 1725 
Q 2256 1581 1919 1581 
Q 1219 1581 811 2004 
Q 403 2428 403 3163 
Q 403 3881 828 4315 
Q 1253 4750 1959 4750 
Q 2769 4750 3195 4129 
Q 3622 3509 3622 2328 
Q 3622 1225 3098 567 
Q 2575 -91 1691 -91 
Q 1453 -91 1209 -44 
Q 966 3 703 97 
z
M 1959 2075 
Q 2384 2075 2632 2365 
Q 2881 2656 2881 3163 
Q 2881 3666 2632 3958 
Q 2384 4250 1959 4250 
Q 1534 4250 1286 3958 
Q 1038 3666 1038 3163 
Q 1038 2656 1286 2365 
Q 1534 2075 1959 2075 
z
" transform="scale(0.015625)"/>
       </defs>
       <use xlink:href="#DejaVuSans-32"/>
       <use xlink:href="#DejaVuSans-30" transform="translate(63.623047 0)"/>
       <use xlink:href="#DejaVuSans-32" transform="translate(127.246094 0)"/>
       <use xlink:href="#DejaVuSans-34" transform="translate(190.869141 0)"/>
       <use xlink:href="#DejaVuSans-2d" transform="translate(254.492188 0)"/>
       <use xlink:href="#DejaVuSans-30" transform="translate(290.576172 0)"/>
       <use xlink:href="#DejaVuSans-39" transform="translate(354.199219 0)"/>
      </g>
     </g>
    </g>
    <g id="xtick_5">
     <g id="line2d_5">
      <g>
       <use xlink:href="#m338d63d273" x="370.594419" y="224.28" style="stroke: #000000; stroke-width: 0.8"/>
      </g>
     </g>
     <g id="text_5">
      <!-- 2024-11 -->
      <g transform="translate(349.703013 238.878438) scale(0.1 -0.1)">
       <defs>
        <path id="DejaVuSans-31" d="M 794 531 
L 1825 531 
L 1825 4091 
L 703 3866 
L 703 4441 
L 1819 4666 
L 2450 4666 
L 2450 531 
L 3481 531 
L 3481 0 
L 794 0 
L 794 531 
z
" transform="scale(0.015625)"/>
       </defs>
       <use xlink:href="#DejaVuSans-32"/>
       <use xlink:href="#DejaVuSans-30" transform="translate(63.623047 0)"/>
       <use xlink:href="#DejaVuSans-32" transform="translate(127.246094 0)"/>
       <use xlink:href="#DejaVuSans-34" transform="translate(190.869141 0)"/>
       <use xlink:href="#DejaVuSans-2d" transform="translate(254.492188 0)"/>
       <use xlink:href="#DejaVuSans-31" transform="translate(290.576172 0)"/>
       <use xlink:href="#DejaVuSans-31" transform="translate(354.199219 0)"/>
      </g>
     </g>
    </g>
    <g id="xtick_6">
     <g id="line2d_6">
      <g>
       <use xlink:href="#m338d63d273" x="429.348159" y="224.28" style="stroke: #000000; stroke-width: 0.8"/>
      </g>
     </g>
     <g id="text_6">
      <!-- 2025-01 -->
      <g transform="translate(408.456753 238.878438) scale(0.1 -0.1)">
       <use xlink:href="#DejaVuSans-32"/>
       <use xlink:href="#DejaVuSans-30" transform="translate(63.623047 0)"/>
       <use xlink:href="#DejaVuSans-32" transform="translate(127.246094 0)"/>
       <use xlink:href="#DejaVuSans-35" transform="translate(190.869141 0)"/>
       <use xlink:href="#DejaVuSans-2d" transform="translate(254.492188 0)"/>
       <use xlink:href="#DejaVuSans-30" transform="translate(290.576172 0)"/>
       <use xlink:href="#DejaVuSans-31" transform="translate(354.199219 0)"/>
      </g>
     </g>
    </g>
    <g id="xtick_7">
     <g id="line2d_7">
      <g>
       <use xlink:href="#m338d63d273" x="486.175547" y="224.28" style="stroke: #000000; stroke-width: 0.8"/>
      </g>
     </g>
     <g id="text_7">
      <!-- 2025-03 -->
      <g transform="translate(465.28414 238.878438) scale(0.1 -0.1)">
       <use xlink:href="#DejaVuSans-32"/>
       <use xlink:href="#DejaVuSans-30" transform="translate(63.623047 0)"/>
       <use xlink:href="#DejaVuSans-32" transform="translate(127.246094 0)"/>
       <use xlink:href="#DejaVuSans-35" transform="translate(190.869141 0)"/>
       <use xlink:href="#DejaVuSans-2d" transform="translate(254.492188 0)"/>
       <use xlink:href="#DejaVuSans-30" transform="translate(290.576172 0)"/>
       <use xlink:href="#DejaVuSans-33" transform="translate(354.199219 0)"/>
      </g>
     </g>
    </g>
    <g id="xtick_8">
     <g id="line2d_8">
      <g>
       <use xlink:href="#m338d63d273" x="544.929287" y="224.28" style="stroke: #000000; stroke-width: 0.8"/>
      </g>
     </g>
     <g id="text_8">
      <!-- 2025-05 -->
      <g transform="translate(524.03788 238.878438) scale(0.1 -0.1)">
       <use xlink:href="#DejaVuSans-32"/>
       <use xlink:href="#DejaVuSans-30" transform="translate(63.623047 0)"/>
       <use xlink:href="#DejaVuSans-32" transform="translate(127.246094 0)"/>
       <use xlink:href="#DejaVuSans-35" transform="translate(190.869141 0)"/>
       <use xlink:href="#DejaVuSans-2d" transform="translate(254.492188 0)"/>
       <use xlink:href="#DejaVuSans-30" transform="translate(290.576172 0)"/>
       <use xlink:href="#DejaVuSans-35" transform="translate(354.199219 0)"/>
      </g>
     </g>
    </g>
    <g id="xtick_9">
     <g id="line2d_9">
      <g>
       <use xlink:href="#m338d63d273" x="603.683026" y="224.28" style="stroke: #000000; stroke-width: 0.8"/>
      </g>
     </g>
     <g id="text_9">
      <!-- 2025-07 -->
      <g transform="translate(582.79162 238.878438) scale(0.1 -0.1)">
       <use xlink:href="#DejaVuSans-32"/>
       <use xlink:href="#DejaVuSans-30" transform="translate(63.623047 0)"/>
       <use xlink:href="#DejaVuSans-32" transform="translate(127.246094 0)"/>
       <use xlink:href="#DejaVuSans-35" transform="translate(190.869141 0)"/>
       <use xlink:href="#DejaVuSans-2d" transform="translate(254.492188 0)"/>
       <use xlink:href="#DejaVuSans-30" transform="translate(290.576172 0)"/>
       <use xlink:href="#DejaVuSans-37" transform="translate(354.199219 0)"/>
      </g>
     </g>
    </g>
    <g id="xtick_10">
     <g id="line2d_10">
      <g>
       <use xlink:href="#m338d63d273" x="663.399942" y="224.28" style="stroke: #000000; stroke-width: 0.8"/>
      </g>
     </g>
     <g id="text_10">
      <!-- 2025-09 -->
      <g transform="translate(642.508536 238.878438) scale(0.1 -0.1)">
       <use xlink:href="#DejaVuSans-32"/>
       <use xlink:href="#DejaVuSans-30" transform="translate(63.623047 0)"/>
       <use xlink:href="#DejaVuSans-32" transform="translate(127.246094 0)"/>
       <use xlink:href="#DejaVuSans-35" transform="translate(190.869141 0)"/>
       <use xlink:href="#DejaVuSans-2d" transform="translate(254.492188 0)"/>
       <use xlink:href="#DejaVuSans-30" transform="translate(290.576172 0)"/>
       <use xlink:href="#DejaVuSans-39" transform="translate(354.199219 0)"/>
      </g>
     </g>
    </g>
   </g>
   <g id="matplotlib.axis_2">
    <g id="ytick_1">
     <g id="line2d_11">
      <defs>
       <path id="mc40dbc86a8" d="M 0 0 
L -3.5 0 
" style="stroke: #000000; stroke-width: 0.8"/>
      </defs>
      <g>
       <use xlink:href="#mc40dbc86a8" x="94.5" y="196.316633" style="stroke: #000000; stroke-width: 0.8"/>
      </g>
     </g>
     <g id="text_11">
      <!-- 80 -->
      <g transform="translate(74.775 200.115852) scale(0.1 -0.1)">
       <defs>
        <path id="DejaVuSans-38" d="M 2034 2216 
Q 1584 2216 1326 1975 
Q 1069 1734 1069 1313 
Q 1069 891 1326 650 
Q 1584 409 2034 409 
Q 2484 409 2743 651 
Q 3003 894 3003 1313 
Q 3003 1734 2745 1975 
Q 2488 2216 2034 2216 
z
M 1403 2484 
Q 997 2584 770 2862 
Q 544 3141 544 3541 
Q 544 4100 942 4425 
Q 1341 4750 2034 4750 
Q 2731 4750 3128 4425 
Q 3525 4100 3525 3541 
Q 3525 3141 3298 2862 
Q 3072 2584 2669 2484 
Q 3125 2378 3379 2068 
Q 3634 1759 3634 1313 
Q 3634 634 3220 271 
Q 2806 -91 2034 -91 
Q 1263 -91 848 271 
Q 434 634 434 1313 
Q 434 1759 690 2068 
Q 947 2378 1403 2484 
z
M 1172 3481 
Q 1172 3119 1398 2916 
Q 1625 2713 2034 2713 
Q 2441 2713 2670 2916 
Q 2900 3119 2900 3481 
Q 2900 3844 2670 4047 
Q 2441 4250 2034 4250 
Q 1625 4250 1398 4047 
Q 1172 3844 1172 3481 
z
" transform="scale(0.015625)"/>
       </defs>
       <use xlink:href="#DejaVuSans-38"/>
       <use xlink:href="#DejaVuSans-30" transform="translate(63.623047 0)"/>
      </g>
     </g>
    </g>
    <g id="ytick_2">
     <g id="line2d_12">
      <g>
       <use xlink:href="#mc40dbc86a8" x="94.5" y="165.828726" style="stroke: #000000; stroke-width: 0.8"/>
      </g>
     </g>
     <g id="text_12">
      <!-- 100 -->
      <g transform="translate(68.4125 169.627944) scale(0.1 -0.1)">
       <use xlink:href="#DejaVuSans-31"/>
       <use xlink:href="#DejaVuSans-30" transform="translate(63.623047 0)"/>
       <use xlink:href="#DejaVuSans-30" transform="translate(127.246094 0)"/>
      </g>
     </g>
    </g>
    <g id="ytick_3">
     <g id="line2d_13">
      <g>
       <use xlink:href="#mc40dbc86a8" x="94.5" y="135.340818" style="stroke: #000000; stroke-width: 0.8"/>
      </g>
     </g>
     <g id="text_13">
      <!-- 120 -->
      <g transform="translate(68.4125 139.140037) scale(0.1 -0.1)">
       <use xlink:href="#DejaVuSans-31"/>
       <use xlink:href="#DejaVuSans-32" transform="translate(63.623047 0)"/>
       <use xlink:href="#DejaVuSans-30" transform="translate(127.246094 0)"/>
      </g>
     </g>
    </g>
    <g id="ytick_4">
     <g id="line2d_14">
      <g>
       <use xlink:href="#mc40dbc86a8" x="94.5" y="104.85291" style="stroke: #000000; stroke-width: 0.8"/>
      </g>
     </g>
     <g id="text_14">
      <!-- 140 -->
      <g transform="translate(68.4125 108.652129) scale(0.1 -0.1)">
       <use xlink:href="#DejaVuSans-31"/>
       <use xlink:href="#DejaVuSans-34" transform="translate(63.623047 0)"/>
       <use xlink:href="#DejaVuSans-30" transform="translate(127.246094 0)"/>
      </g>
     </g>
    </g>
    <g id="ytick_5">
     <g id="line2d_15">
      <g>
       <use xlink:href="#mc40dbc86a8" x="94.5" y="74.365003" style="stroke: #000000; stroke-width: 0.8"/>
      </g>
     </g>
     <g id="text_15">
      <!-- 160 -->
      <g transform="translate(68.4125 78.164221) scale(0.1 -0.1)">
       <defs>
        <path id="DejaVuSans-36" d="M 2113 2584 
Q 1688 2584 1439 2293 
Q 1191 2003 1191 1497 
Q 1191 994 1439 701 
Q 1688 409 2113 409 
Q 2538 409 2786 701 
Q 3034 994 3034 1497 
Q 3034 2003 2786 2293 
Q 2538 2584 2113 2584 
z
M 3366 4563 
L 3366 3988 
Q 3128 4100 2886 4159 
Q 2644 4219 2406 4219 
Q 1781 4219 1451 3797 
Q 1122 3375 1075 2522 
Q 1259 2794 1537 2939 
Q 1816 3084 2150 3084 
Q 2853 3084 3261 2657 
Q 3669 2231 3669 1497 
Q 3669 778 3244 343 
Q 2819 -91 2113 -91 
Q 1303 -91 875 529 
Q 447 1150 447 2328 
Q 447 3434 972 4092 
Q 1497 4750 2381 4750 
Q 2619 4750 2861 4703 
Q 3103 4656 3366 4563 
z
" transform="scale(0.015625)"/>
       </defs>
       <use xlink:href="#DejaVuSans-31"/>
       <use xlink:href="#DejaVuSans-36" transform="translate(63.623047 0)"/>
       <use xlink:href="#DejaVuSans-30" transform="translate(127.246094 0)"/>
      </g>
     </g>
    </g>
    <g id="ytick_6">
     <g id="line2d_16">
      <g>
       <use xlink:href="#mc40dbc86a8" x="94.5" y="43.877095" style="stroke: #000000; stroke-width: 0.8"/>
      </g>
     </g>
     <g id="text_16">
      <!-- 180 -->
      <g transform="translate(68.4125 47.676314) scale(0.1 -0.1)">
       <use xlink:href="#DejaVuSans-31"/>
       <use xlink:href="#DejaVuSans-38" transform="translate(63.623047 0)"/>
       <use xlink:href="#DejaVuSans-30" transform="translate(127.246094 0)"/>
      </g>
     </g>
    </g>
   </g>
   <g id="line2d_17">
    <path d="M 121.131818 207.626574 
L 124.984522 212.44303 
L 125.947699 215.46 
L 126.910875 198.598551 
L 127.874051 198.17342 
L 130.763579 197.754407 
L 131.726755 198.350199 
L 132.689931 199.931804 
L 133.653107 197.723936 
L 134.616283 192.898339 
L 137.505811 188.391154 
L 138.468987 187.277282 
L 139.432163 183.108199 
L 140.395339 177.060279 
L 141.358516 184.894065 
L 144.248044 187.566793 
L 145.21122 178.212252 
L 146.174396 179.774154 
L 147.137572 184.260184 
L 148.100748 184.423228 
L 150.990276 183.481529 
L 152.916628 180.560415 
L 153.879804 178.94064 
L 154.84298 174.591754 
L 157.732509 173.505283 
L 159.658861 180.746324 
L 160.622037 180.584792 
L 164.474741 180.574139 
L 165.437917 181.962309 
L 166.401093 182.70591 
L 167.364269 187.367195 
L 168.327445 184.162653 
L 171.216974 185.495975 
L 172.18015 188.206815 
L 173.143326 185.639213 
L 174.106502 180.188609 
L 175.069678 183.891413 
L 177.959206 187.22091 
L 178.922382 185.066262 
L 179.885558 190.216667 
L 180.848734 189.247545 
L 181.81191 202.155559 
L 184.701438 197.099626 
L 185.664614 192.673027 
L 186.627791 196.857345 
L 187.590967 192.354533 
L 188.554143 184.578642 
L 191.443671 184.545136 
L 192.406847 186.609847 
L 193.370023 191.731328 
L 195.296375 182.972579 
L 198.185903 177.866369 
L 199.149079 180.283104 
L 200.112255 180.499473 
L 201.075432 183.036569 
L 202.038608 181.313169 
L 204.928136 180.519279 
L 205.891312 179.061001 
L 206.854488 174.07214 
L 207.817664 174.485082 
L 208.78084 177.349801 
L 211.670368 173.843548 
L 212.633544 172.920144 
L 213.59672 173.584531 
L 214.559896 160.100485 
L 215.523072 156.031992 
L 219.375777 144.707199 
L 220.338953 143.299222 
L 221.302129 149.889599 
L 222.265305 151.210733 
L 225.154833 143.032553 
L 226.118009 140.842874 
L 227.081185 131.69556 
L 228.044361 133.892856 
L 229.007537 134.060483 
L 231.897066 132.686024 
L 232.860242 134.01181 
L 234.786594 120.753762 
L 235.74977 117.294494 
L 238.639298 118.665999 
L 239.602474 111.656004 
L 241.528826 118.970804 
L 242.492002 125.386483 
L 245.38153 138.278796 
L 246.344707 126.117954 
L 247.307883 125.645546 
L 248.271059 129.318181 
L 249.234235 130.003934 
L 252.123763 128.845751 
L 253.086939 131.329743 
L 254.050115 122.780582 
L 255.976467 126.51416 
L 258.865995 122.902514 
L 260.792348 112.67702 
L 261.755524 124.121628 
L 262.7187 121.317618 
L 265.608228 122.536743 
L 266.571404 125.706488 
L 267.53458 138.461669 
L 268.497756 133.737535 
L 269.460932 138.553095 
L 272.35046 130.003934 
L 273.313636 131.451651 
L 274.276812 144.161102 
L 275.239988 147.163209 
L 276.203165 145.974555 
L 279.092693 148.214709 
L 280.055869 160.192666 
L 281.019045 139.93987 
L 281.982221 151.841614 
L 282.945397 154.798014 
L 285.834925 165.191111 
L 286.798101 159.400253 
L 287.761277 167.537925 
L 288.724453 158.303012 
L 289.687629 158.638276 
L 292.577158 152.131171 
L 293.540334 141.280903 
L 294.50351 138.324491 
L 295.466686 131.040197 
L 296.429862 128.419061 
L 299.31939 120.159458 
L 300.282566 124.350208 
L 301.245742 122.445307 
L 302.208918 129.699164 
L 303.172094 121.119532 
L 306.061623 125.554109 
L 307.024799 122.750088 
L 307.987975 126.849424 
L 308.951151 139.071221 
L 309.914327 136.358648 
L 313.767031 153.685561 
L 314.730207 156.413358 
L 315.693383 154.889451 
L 316.656559 161.564194 
L 319.546087 156.01714 
L 320.509264 153.533171 
L 321.47244 140.107473 
L 322.435616 136.693621 
L 323.398792 136.754598 
L 326.28832 140.290381 
L 327.251496 142.103985 
L 328.214672 145.487365 
L 329.177848 138.629168 
L 330.141024 141.479128 
L 333.030552 141.082864 
L 333.993728 134.057028 
L 334.956904 130.033544 
L 335.920081 129.225803 
L 336.883257 133.249275 
L 339.772785 133.188321 
L 340.735961 139.955082 
L 341.699137 137.135604 
L 342.662313 131.039418 
L 343.625489 127.884653 
L 346.515017 123.617318 
L 347.478193 115.738023 
L 348.441369 116.103793 
L 349.404545 112.811838 
L 350.367722 112.827073 
L 353.25725 107.843434 
L 354.220426 117.704017 
L 355.183602 111.424981 
L 357.109954 107.950153 
L 359.999482 99.247845 
L 360.962658 99.430719 
L 361.925834 105.572634 
L 362.88901 104.277191 
L 363.852186 102.555036 
L 366.741715 104.109554 
L 367.704891 102.997007 
L 368.668067 105.907933 
L 369.631243 115.936132 
L 370.594419 111.912659 
L 373.483947 110.922021 
L 374.447123 105.039226 
L 375.410299 96.352201 
L 376.373475 91.368515 
L 377.336651 93.273614 
L 380.22618 96.885586 
L 381.189356 92.267763 
L 382.152532 95.346327 
L 383.115708 94.599551 
L 384.078884 101.884461 
L 386.968412 104.673479 
L 387.931588 94.218522 
L 388.894764 95.925442 
L 389.85794 94.736671 
L 390.821116 101.930191 
L 393.710644 110.967751 
L 394.67382 109.596107 
L 395.636997 112.004119 
L 397.563349 107.569123 
L 400.452877 106.990009 
L 401.416053 104.505795 
L 402.379229 97.068459 
L 403.342405 97.175155 
L 404.305581 101.168435 
L 407.195109 106.701114 
L 408.158285 112.401407 
L 409.121461 105.939033 
L 410.084638 108.941605 
L 411.047814 113.651214 
L 413.937342 117.080568 
L 415.863694 121.790177 
L 416.82687 119.092456 
L 417.790046 112.965357 
L 420.679574 105.390342 
L 421.64275 104.552037 
L 423.569102 104.994055 
L 424.532278 109.444565 
L 427.421807 108.712978 
L 428.384983 113.590248 
L 430.311335 107.463172 
L 431.274511 98.074403 
L 434.164039 90.514648 
L 435.127215 104.673991 
L 436.090391 104.719698 
L 438.016743 111.121107 
L 440.906272 115.205847 
L 441.869448 117.446362 
L 442.832624 110.618147 
L 443.7958 114.687628 
L 444.758976 108.377656 
L 448.61168 103.622317 
L 449.574856 94.111594 
L 450.538032 93.88299 
L 451.501208 100.894102 
L 454.390736 137.778511 
L 455.353913 121.668222 
L 456.317089 129.730996 
L 457.280265 128.283046 
L 458.243441 135.263651 
L 461.132969 140.460996 
L 462.096145 137.427941 
L 463.059321 128.008701 
L 464.022497 122.140758 
L 464.985673 120.372733 
L 467.875201 114.687628 
L 468.838377 115.86121 
L 469.801554 118.391317 
L 470.76473 112.066108 
L 471.727906 106.640125 
L 475.58061 105.801843 
L 476.543786 106.060964 
L 477.506962 104.719698 
L 478.470138 113.37688 
L 481.359666 119.702088 
L 482.322842 125.265226 
L 483.286018 118.177925 
L 484.249194 135.141709 
L 485.212371 127.871534 
L 488.101899 144.423794 
L 489.065075 141.482187 
L 490.028251 139.485547 
L 490.991427 149.74307 
L 491.954603 146.511871 
L 494.844131 155.214771 
L 495.807307 152.50178 
L 496.770483 141.846992 
L 497.733659 142.090878 
L 498.696835 132.807955 
L 501.586364 136.069939 
L 502.54954 142.319528 
L 503.512716 139.133768 
L 504.475892 137.59423 
L 505.439068 138.859388 
L 508.328596 133.204266 
L 509.291772 134.301751 
L 510.254948 144.865079 
L 511.218124 148.416679 
L 512.1813 151.099432 
L 515.070829 153.065764 
L 516.034005 150.367775 
L 516.997181 149.956217 
L 517.960357 163.09559 
L 518.923533 174.512518 
L 521.813061 169.436639 
L 522.776237 171.479172 
L 523.739413 143.996244 
L 524.702589 154.300439 
L 525.665765 149.17883 
L 528.555293 149.514176 
L 529.51847 147.242981 
L 530.481646 158.995254 
L 531.444822 163.568126 
L 535.297526 170.54936 
L 536.260702 167.531273 
L 538.187054 156.038132 
L 539.15023 149.056876 
L 542.039758 152.532263 
L 543.002934 152.090222 
L 543.96611 152.242647 
L 545.892463 143.737111 
L 549.745167 145.200425 
L 550.708343 139.83493 
L 551.671519 139.362395 
L 552.634695 140.459891 
L 555.524223 130.780646 
L 556.487399 120.21733 
L 557.450575 111.970927 
L 558.413751 112.748314 
L 559.376928 111.879467 
L 562.266456 111.620322 
L 563.229632 113.43424 
L 564.192808 117.366904 
L 565.155984 115.796872 
L 566.11916 118.144291 
L 569.971864 111.727041 
L 570.93504 112.778785 
L 571.898216 106.102391 
L 572.861392 112.291014 
L 575.750921 108.861357 
L 576.714097 103.008103 
L 577.677273 101.9411 
L 578.640449 104.882963 
L 579.603625 102.245951 
L 582.493153 100.858839 
L 583.456329 98.83153 
L 584.419505 100.538869 
L 585.382681 97.230933 
L 586.345857 101.84985 
L 589.235386 97.703492 
L 590.198562 98.572409 
L 591.161738 96.49923 
L 593.08809 98.983979 
L 595.977618 98.496184 
L 596.940794 92.810196 
L 597.90397 83.038816 
L 598.867146 81.956485 
L 599.830322 77.794892 
L 602.71985 77.429029 
L 603.683026 84.578447 
L 604.646203 78.55709 
L 605.609379 75.371109 
L 609.462083 77.04793 
L 610.425259 74.365003 
L 611.388435 69.974736 
L 612.351611 68.114972 
L 613.314787 66.86498 
L 616.204315 68.160702 
L 617.167491 58.053977 
L 618.130667 57.032635 
L 619.093843 54.547863 
L 620.05702 55.44725 
L 622.946548 57.017376 
L 623.909724 63.648505 
L 624.8729 57.932022 
L 625.836076 53.419802 
L 626.799252 53.785665 
L 629.68878 48.83138 
L 630.651956 50.721639 
L 631.615132 44.989897 
L 632.578308 47.124065 
L 633.541484 53.450296 
L 636.431013 43.877095 
L 637.394189 46.529551 
L 638.357365 44.761247 
L 639.320541 42.703304 
L 640.283717 39.761232 
L 643.173245 40.736844 
L 644.136421 39.06 
L 645.099597 41.453312 
L 646.062773 40.79781 
L 647.025949 43.191122 
L 649.915478 40.813069 
L 650.878654 50.52346 
L 651.84183 50.889323 
L 652.805006 51.529566 
L 653.768182 46.941121 
L 653.768182 46.941121 
" clip-path="url(#pabe5db1749)" style="fill: none; stroke: #1f77b4; stroke-width: 1.5; stroke-linecap: square"/>
   </g>
   <g id="patch_3">
    <path d="M 94.5 224.28 
L 94.5 30.24 
" style="fill: none; stroke: #000000; stroke-width: 0.8; stroke-linejoin: miter; stroke-linecap: square"/>
   </g>
   <g id="patch_4">
    <path d="M 94.5 224.28 
L 680.4 224.28 
" style="fill: none; stroke: #000000; stroke-width: 0.8; stroke-linejoin: miter; stroke-linecap: square"/>
   </g>
  </g>
 </g>
 <defs>
  <clipPath id="pabe5db1749">
   <rect x="94.5" y="30.24" width="585.9" height="194.04"/>
  </clipPath>
 </defs>
</svg>
