<?xml version="1.0" encoding="utf-8" standalone="no"?>
<!DOCTYPE svg PUBLIC "-//W3C//DTD SVG 1.1//EN"
  "http://www.w3.org/Graphics/SVG/1.1/DTD/svg11.dtd">
<svg xmlns:xlink="http://www.w3.org/1999/xlink" width="1166.4pt" height="252pt" viewBox="0 0 1166.4 252" xmlns="http://www.w3.org/2000/svg" version="1.1">
 <metadata>
  <rdf:RDF xmlns:dc="http://purl.org/dc/elements/1.1/" xmlns:cc="http://creativecommons.org/ns#" xmlns:rdf="http://www.w3.org/1999/02/22-rdf-syntax-ns#">
   <cc:Work>
    <dc:type rdf:resource="http://purl.org/dc/dcmitype/StillImage"/>
    <dc:date>2025-08-31T00:52:58.049036</dc:date>
    <dc:format>image/svg+xml</dc:format>
    <dc:creator>
     <cc:Agent>
      <dc:title>Matplotlib v3.10.5, https://matplotlib.org/</dc:title>
     </cc:Agent>
    </dc:creator>
   </cc:Work>
  </rdf:RDF>
 </metadata>
 <defs>
  <style type="text/css">*{stroke-linejoin: round; stroke-linecap: butt}</style>
 </defs>
 <g id="figure_1">
  <g id="patch_1">
   <path d="M 0 252 
L 1166.4 252 
L 1166.4 0 
L 0 0 
z
" style="fill: #ffffff"/>
  </g>
  <g id="axes_1">
   <g id="patch_2">
    <path d="M 145.8 224.28 
L 1049.76 224.28 
L 1049.76 30.24 
L 145.8 30.24 
z
" style="fill: #ffffff"/>
   </g>
   <g id="matplotlib.axis_1">
    <g id="xtick_1">
     <g id="line2d_1">
      <defs>
       <path id="mf1606e7108" d="M 0 0 
L 0 3.5 
" style="stroke: #000000; stroke-width: 0.8"/>
      </defs>
      <g>
       <use xlink:href="#mf1606e7108" x="197.310237" y="224.28" style="stroke: #000000; stroke-width: 0.8"/>
      </g>
     </g>
     <g id="text_1">
      <!-- 2024-03 -->
      <g transform="translate(176.418831 238.878438) scale(0.1 -0.1)">
       <defs>
        <path id="DejaVuSans-32" d="M 1228 531 
L 3431 531 
L 3431 0 
L 469 0 
L 469 531 
Q 828 903 1448 1529 
Q 2069 2156 2228 2338 
Q 2531 2678 2651 2914 
Q 2772 3150 2772 3378 
Q 2772 3750 2511 3984 
Q 2250 4219 1831 4219 
Q 1534 4219 1204 4116 
Q 875 4013 500 3803 
L 500 4441 
Q 881 4594 1212 4672 
Q 1544 4750 1819 4750 
Q 2544 4750 2975 4387 
Q 3406 4025 3406 3419 
Q 3406 3131 3298 2873 
Q 3191 2616 2906 2266 
Q 2828 2175 2409 1742 
Q 1991 1309 1228 531 
z
" transform="scale(0.015625)"/>
        <path id="DejaVuSans-30" d="M 2034 4250 
Q 1547 4250 1301 3770 
Q 1056 3291 1056 2328 
Q 1056 1369 1301 889 
Q 1547 409 2034 409 
Q 2525 409 2770 889 
Q 3016 1369 3016 2328 
Q 3016 3291 2770 3770 
Q 2525 4250 2034 4250 
z
M 2034 4750 
Q 2819 4750 3233 4129 
Q 3647 3509 3647 2328 
Q 3647 1150 3233 529 
Q 2819 -91 2034 -91 
Q 1250 -91 836 529 
Q 422 1150 422 2328 
Q 422 3509 836 4129 
Q 1250 4750 2034 4750 
z
" transform="scale(0.015625)"/>
        <path id="DejaVuSans-34" d="M 2419 4116 
L 825 1625 
L 2419 1625 
L 2419 4116 
z
M 2253 4666 
L 3047 4666 
L 3047 1625 
L 3713 1625 
L 3713 1100 
L 3047 1100 
L 3047 0 
L 2419 0 
L 2419 1100 
L 313 1100 
L 313 1709 
L 2253 4666 
z
" transform="scale(0.015625)"/>
        <path id="DejaVuSans-2d" d="M 313 2009 
L 1997 2009 
L 1997 1497 
L 313 1497 
L 313 2009 
z
" transform="scale(0.015625)"/>
        <path id="DejaVuSans-33" d="M 2597 2516 
Q 3050 2419 3304 2112 
Q 3559 1806 3559 1356 
Q 3559 666 3084 287 
Q 2609 -91 1734 -91 
Q 1441 -91 1130 -33 
Q 819 25 488 141 
L 488 750 
Q 750 597 1062 519 
Q 1375 441 1716 441 
Q 2309 441 2620 675 
Q 2931 909 2931 1356 
Q 2931 1769 2642 2001 
Q 2353 2234 1838 2234 
L 1294 2234 
L 1294 2753 
L 1863 2753 
Q 2328 2753 2575 2939 
Q 2822 3125 2822 3475 
Q 2822 3834 2567 4026 
Q 2313 4219 1838 4219 
Q 1578 4219 1281 4162 
Q 984 4106 628 3988 
L 628 4550 
Q 988 4650 1302 4700 
Q 1616 4750 1894 4750 
Q 2613 4750 3031 4423 
Q 3450 4097 3450 3541 
Q 3450 3153 3228 2886 
Q 3006 2619 2597 2516 
z
" transform="scale(0.015625)"/>
       </defs>
       <use xlink:href="#DejaVuSans-32"/>
       <use xlink:href="#DejaVuSans-30" transform="translate(63.623047 0)"/>
       <use xlink:href="#DejaVuSans-32" transform="translate(127.246094 0)"/>
       <use xlink:href="#DejaVuSans-34" transform="translate(190.869141 0)"/>
       <use xlink:href="#DejaVuSans-2d" transform="translate(254.492188 0)"/>
       <use xlink:href="#DejaVuSans-30" transform="translate(290.576172 0)"/>
       <use xlink:href="#DejaVuSans-33" transform="translate(354.199219 0)"/>
      </g>
     </g>
    </g>
    <g id="xtick_2">
     <g id="line2d_2">
      <g>
       <use xlink:href="#mf1606e7108" x="288.123083" y="224.28" style="stroke: #000000; stroke-width: 0.8"/>
      </g>
     </g>
     <g id="text_2">
      <!-- 2024-05 -->
      <g transform="translate(267.231677 238.878438) scale(0.1 -0.1)">
       <defs>
        <path id="DejaVuSans-35" d="M 691 4666 
L 3169 4666 
L 3169 4134 
L 1269 4134 
L 1269 2991 
Q 1406 3038 1543 3061 
Q 1681 3084 1819 3084 
Q 2600 3084 3056 2656 
Q 3513 2228 3513 1497 
Q 3513 744 3044 326 
Q 2575 -91 1722 -91 
Q 1428 -91 1123 -41 
Q 819 9 494 109 
L 494 744 
Q 775 591 1075 516 
Q 1375 441 1709 441 
Q 2250 441 2565 725 
Q 2881 1009 2881 1497 
Q 2881 1984 2565 2268 
Q 2250 2553 1709 2553 
Q 1456 2553 1204 2497 
Q 953 2441 691 2322 
L 691 4666 
z
" transform="scale(0.015625)"/>
       </defs>
       <use xlink:href="#DejaVuSans-32"/>
       <use xlink:href="#DejaVuSans-30" transform="translate(63.623047 0)"/>
       <use xlink:href="#DejaVuSans-32" transform="translate(127.246094 0)"/>
       <use xlink:href="#DejaVuSans-34" transform="translate(190.869141 0)"/>
       <use xlink:href="#DejaVuSans-2d" transform="translate(254.492188 0)"/>
       <use xlink:href="#DejaVuSans-30" transform="translate(290.576172 0)"/>
       <use xlink:href="#DejaVuSans-35" transform="translate(354.199219 0)"/>
      </g>
     </g>
    </g>
    <g id="xtick_3">
     <g id="line2d_3">
      <g>
       <use xlink:href="#mf1606e7108" x="378.935929" y="224.28" style="stroke: #000000; stroke-width: 0.8"/>
      </g>
     </g>
     <g id="text_3">
      <!-- 2024-07 -->
      <g transform="translate(358.044523 238.878438) scale(0.1 -0.1)">
       <defs>
        <path id="DejaVuSans-37" d="M 525 4666 
L 3525 4666 
L 3525 4397 
L 1831 0 
L 1172 0 
L 2766 4134 
L 525 4134 
L 525 4666 
z
" transform="scale(0.015625)"/>
       </defs>
       <use xlink:href="#DejaVuSans-32"/>
       <use xlink:href="#DejaVuSans-30" transform="translate(63.623047 0)"/>
       <use xlink:href="#DejaVuSans-32" transform="translate(127.246094 0)"/>
       <use xlink:href="#DejaVuSans-34" transform="translate(190.869141 0)"/>
       <use xlink:href="#DejaVuSans-2d" transform="translate(254.492188 0)"/>
       <use xlink:href="#DejaVuSans-30" transform="translate(290.576172 0)"/>
       <use xlink:href="#DejaVuSans-37" transform="translate(354.199219 0)"/>
      </g>
     </g>
    </g>
    <g id="xtick_4">
     <g id="line2d_4">
      <g>
       <use xlink:href="#mf1606e7108" x="471.23751" y="224.28" style="stroke: #000000; stroke-width: 0.8"/>
      </g>
     </g>
     <g id="text_4">
      <!-- 2024-09 -->
      <g transform="translate(450.346104 238.878438) scale(0.1 -0.1)">
       <defs>
        <path id="DejaVuSans-39" d="M 703 97 
L 703 672 
Q 941 559 1184 500 
Q 1428 441 1663 441 
Q 2288 441 2617 861 
Q 2947 1281 2994 2138 
Q 2813 1869 2534 1725 
Q 2256 1581 1919 1581 
Q 1219 1581 811 2004 
Q 403 2428 403 3163 
Q 403 3881 828 4315 
Q 1253 4750 1959 4750 
Q 2769 4750 3195 4129 
Q 3622 3509 3622 2328 
Q 3622 1225 3098 567 
Q 2575 -91 1691 -91 
Q 1453 -91 1209 -44 
Q 966 3 703 97 
z
M 1959 2075 
Q 2384 2075 2632 2365 
Q 2881 2656 2881 3163 
Q 2881 3666 2632 3958 
Q 2384 4250 1959 4250 
Q 1534 4250 1286 3958 
Q 1038 3666 1038 3163 
Q 1038 2656 1286 2365 
Q 1534 2075 1959 2075 
z
" transform="scale(0.015625)"/>
       </defs>
       <use xlink:href="#DejaVuSans-32"/>
       <use xlink:href="#DejaVuSans-30" transform="translate(63.623047 0)"/>
       <use xlink:href="#DejaVuSans-32" transform="translate(127.246094 0)"/>
       <use xlink:href="#DejaVuSans-34" transform="translate(190.869141 0)"/>
       <use xlink:href="#DejaVuSans-2d" transform="translate(254.492188 0)"/>
       <use xlink:href="#DejaVuSans-30" transform="translate(290.576172 0)"/>
       <use xlink:href="#DejaVuSans-39" transform="translate(354.199219 0)"/>
      </g>
     </g>
    </g>
    <g id="xtick_5">
     <g id="line2d_5">
      <g>
       <use xlink:href="#mf1606e7108" x="562.050356" y="224.28" style="stroke: #000000; stroke-width: 0.8"/>
      </g>
     </g>
     <g id="text_5">
      <!-- 2024-11 -->
      <g transform="translate(541.158949 238.878438) scale(0.1 -0.1)">
       <defs>
        <path id="DejaVuSans-31" d="M 794 531 
L 1825 531 
L 1825 4091 
L 703 3866 
L 703 4441 
L 1819 4666 
L 2450 4666 
L 2450 531 
L 3481 531 
L 3481 0 
L 794 0 
L 794 531 
z
" transform="scale(0.015625)"/>
       </defs>
       <use xlink:href="#DejaVuSans-32"/>
       <use xlink:href="#DejaVuSans-30" transform="translate(63.623047 0)"/>
       <use xlink:href="#DejaVuSans-32" transform="translate(127.246094 0)"/>
       <use xlink:href="#DejaVuSans-34" transform="translate(190.869141 0)"/>
       <use xlink:href="#DejaVuSans-2d" transform="translate(254.492188 0)"/>
       <use xlink:href="#DejaVuSans-31" transform="translate(290.576172 0)"/>
       <use xlink:href="#DejaVuSans-31" transform="translate(354.199219 0)"/>
      </g>
     </g>
    </g>
    <g id="xtick_6">
     <g id="line2d_6">
      <g>
       <use xlink:href="#mf1606e7108" x="652.863202" y="224.28" style="stroke: #000000; stroke-width: 0.8"/>
      </g>
     </g>
     <g id="text_6">
      <!-- 2025-01 -->
      <g transform="translate(631.971795 238.878438) scale(0.1 -0.1)">
       <use xlink:href="#DejaVuSans-32"/>
       <use xlink:href="#DejaVuSans-30" transform="translate(63.623047 0)"/>
       <use xlink:href="#DejaVuSans-32" transform="translate(127.246094 0)"/>
       <use xlink:href="#DejaVuSans-35" transform="translate(190.869141 0)"/>
       <use xlink:href="#DejaVuSans-2d" transform="translate(254.492188 0)"/>
       <use xlink:href="#DejaVuSans-30" transform="translate(290.576172 0)"/>
       <use xlink:href="#DejaVuSans-31" transform="translate(354.199219 0)"/>
      </g>
     </g>
    </g>
    <g id="xtick_7">
     <g id="line2d_7">
      <g>
       <use xlink:href="#mf1606e7108" x="740.698577" y="224.28" style="stroke: #000000; stroke-width: 0.8"/>
      </g>
     </g>
     <g id="text_7">
      <!-- 2025-03 -->
      <g transform="translate(719.807171 238.878438) scale(0.1 -0.1)">
       <use xlink:href="#DejaVuSans-32"/>
       <use xlink:href="#DejaVuSans-30" transform="translate(63.623047 0)"/>
       <use xlink:href="#DejaVuSans-32" transform="translate(127.246094 0)"/>
       <use xlink:href="#DejaVuSans-35" transform="translate(190.869141 0)"/>
       <use xlink:href="#DejaVuSans-2d" transform="translate(254.492188 0)"/>
       <use xlink:href="#DejaVuSans-30" transform="translate(290.576172 0)"/>
       <use xlink:href="#DejaVuSans-33" transform="translate(354.199219 0)"/>
      </g>
     </g>
    </g>
    <g id="xtick_8">
     <g id="line2d_8">
      <g>
       <use xlink:href="#mf1606e7108" x="831.511423" y="224.28" style="stroke: #000000; stroke-width: 0.8"/>
      </g>
     </g>
     <g id="text_8">
      <!-- 2025-05 -->
      <g transform="translate(810.620017 238.878438) scale(0.1 -0.1)">
       <use xlink:href="#DejaVuSans-32"/>
       <use xlink:href="#DejaVuSans-30" transform="translate(63.623047 0)"/>
       <use xlink:href="#DejaVuSans-32" transform="translate(127.246094 0)"/>
       <use xlink:href="#DejaVuSans-35" transform="translate(190.869141 0)"/>
       <use xlink:href="#DejaVuSans-2d" transform="translate(254.492188 0)"/>
       <use xlink:href="#DejaVuSans-30" transform="translate(290.576172 0)"/>
       <use xlink:href="#DejaVuSans-35" transform="translate(354.199219 0)"/>
      </g>
     </g>
    </g>
    <g id="xtick_9">
     <g id="line2d_9">
      <g>
       <use xlink:href="#mf1606e7108" x="922.324269" y="224.28" style="stroke: #000000; stroke-width: 0.8"/>
      </g>
     </g>
     <g id="text_9">
      <!-- 2025-07 -->
      <g transform="translate(901.432863 238.878438) scale(0.1 -0.1)">
       <use xlink:href="#DejaVuSans-32"/>
       <use xlink:href="#DejaVuSans-30" transform="translate(63.623047 0)"/>
       <use xlink:href="#DejaVuSans-32" transform="translate(127.246094 0)"/>
       <use xlink:href="#DejaVuSans-35" transform="translate(190.869141 0)"/>
       <use xlink:href="#DejaVuSans-2d" transform="translate(254.492188 0)"/>
       <use xlink:href="#DejaVuSans-30" transform="translate(290.576172 0)"/>
       <use xlink:href="#DejaVuSans-37" transform="translate(354.199219 0)"/>
      </g>
     </g>
    </g>
    <g id="xtick_10">
     <g id="line2d_10">
      <g>
       <use xlink:href="#mf1606e7108" x="1014.62585" y="224.28" style="stroke: #000000; stroke-width: 0.8"/>
      </g>
     </g>
     <g id="text_10">
      <!-- 2025-09 -->
      <g transform="translate(993.734444 238.878438) scale(0.1 -0.1)">
       <use xlink:href="#DejaVuSans-32"/>
       <use xlink:href="#DejaVuSans-30" transform="translate(63.623047 0)"/>
       <use xlink:href="#DejaVuSans-32" transform="translate(127.246094 0)"/>
       <use xlink:href="#DejaVuSans-35" transform="translate(190.869141 0)"/>
       <use xlink:href="#DejaVuSans-2d" transform="translate(254.492188 0)"/>
       <use xlink:href="#DejaVuSans-30" transform="translate(290.576172 0)"/>
       <use xlink:href="#DejaVuSans-39" transform="translate(354.199219 0)"/>
      </g>
     </g>
    </g>
   </g>
   <g id="matplotlib.axis_2">
    <g id="ytick_1">
     <g id="line2d_11">
      <defs>
       <path id="m03b09076ba" d="M 0 0 
L -3.5 0 
" style="stroke: #000000; stroke-width: 0.8"/>
      </defs>
      <g>
       <use xlink:href="#m03b09076ba" x="145.8" y="216.977317" style="stroke: #000000; stroke-width: 0.8"/>
      </g>
     </g>
     <g id="text_11">
      <!-- 20 -->
      <g transform="translate(126.075 220.776536) scale(0.1 -0.1)">
       <use xlink:href="#DejaVuSans-32"/>
       <use xlink:href="#DejaVuSans-30" transform="translate(63.623047 0)"/>
      </g>
     </g>
    </g>
    <g id="ytick_2">
     <g id="line2d_12">
      <g>
       <use xlink:href="#m03b09076ba" x="145.8" y="192.495079" style="stroke: #000000; stroke-width: 0.8"/>
      </g>
     </g>
     <g id="text_12">
      <!-- 30 -->
      <g transform="translate(126.075 196.294298) scale(0.1 -0.1)">
       <use xlink:href="#DejaVuSans-33"/>
       <use xlink:href="#DejaVuSans-30" transform="translate(63.623047 0)"/>
      </g>
     </g>
    </g>
    <g id="ytick_3">
     <g id="line2d_13">
      <g>
       <use xlink:href="#m03b09076ba" x="145.8" y="168.012842" style="stroke: #000000; stroke-width: 0.8"/>
      </g>
     </g>
     <g id="text_13">
      <!-- 40 -->
      <g transform="translate(126.075 171.812061) scale(0.1 -0.1)">
       <use xlink:href="#DejaVuSans-34"/>
       <use xlink:href="#DejaVuSans-30" transform="translate(63.623047 0)"/>
      </g>
     </g>
    </g>
    <g id="ytick_4">
     <g id="line2d_14">
      <g>
       <use xlink:href="#m03b09076ba" x="145.8" y="143.530604" style="stroke: #000000; stroke-width: 0.8"/>
      </g>
     </g>
     <g id="text_14">
      <!-- 50 -->
      <g transform="translate(126.075 147.329823) scale(0.1 -0.1)">
       <use xlink:href="#DejaVuSans-35"/>
       <use xlink:href="#DejaVuSans-30" transform="translate(63.623047 0)"/>
      </g>
     </g>
    </g>
    <g id="ytick_5">
     <g id="line2d_15">
      <g>
       <use xlink:href="#m03b09076ba" x="145.8" y="119.048367" style="stroke: #000000; stroke-width: 0.8"/>
      </g>
     </g>
     <g id="text_15">
      <!-- 60 -->
      <g transform="translate(126.075 122.847585) scale(0.1 -0.1)">
       <defs>
        <path id="DejaVuSans-36" d="M 2113 2584 
Q 1688 2584 1439 2293 
Q 1191 2003 1191 1497 
Q 1191 994 1439 701 
Q 1688 409 2113 409 
Q 2538 409 2786 701 
Q 3034 994 3034 1497 
Q 3034 2003 2786 2293 
Q 2538 2584 2113 2584 
z
M 3366 4563 
L 3366 3988 
Q 3128 4100 2886 4159 
Q 2644 4219 2406 4219 
Q 1781 4219 1451 3797 
Q 1122 3375 1075 2522 
Q 1259 2794 1537 2939 
Q 1816 3084 2150 3084 
Q 2853 3084 3261 2657 
Q 3669 2231 3669 1497 
Q 3669 778 3244 343 
Q 2819 -91 2113 -91 
Q 1303 -91 875 529 
Q 447 1150 447 2328 
Q 447 3434 972 4092 
Q 1497 4750 2381 4750 
Q 2619 4750 2861 4703 
Q 3103 4656 3366 4563 
z
" transform="scale(0.015625)"/>
       </defs>
       <use xlink:href="#DejaVuSans-36"/>
       <use xlink:href="#DejaVuSans-30" transform="translate(63.623047 0)"/>
      </g>
     </g>
    </g>
    <g id="ytick_6">
     <g id="line2d_16">
      <g>
       <use xlink:href="#m03b09076ba" x="145.8" y="94.566129" style="stroke: #000000; stroke-width: 0.8"/>
      </g>
     </g>
     <g id="text_16">
      <!-- 70 -->
      <g transform="translate(126.075 98.365348) scale(0.1 -0.1)">
       <use xlink:href="#DejaVuSans-37"/>
       <use xlink:href="#DejaVuSans-30" transform="translate(63.623047 0)"/>
      </g>
     </g>
    </g>
    <g id="ytick_7">
     <g id="line2d_17">
      <g>
       <use xlink:href="#m03b09076ba" x="145.8" y="70.083891" style="stroke: #000000; stroke-width: 0.8"/>
      </g>
     </g>
     <g id="text_17">
      <!-- 80 -->
      <g transform="translate(126.075 73.88311) scale(0.1 -0.1)">
       <defs>
        <path id="DejaVuSans-38" d="M 2034 2216 
Q 1584 2216 1326 1975 
Q 1069 1734 1069 1313 
Q 1069 891 1326 650 
Q 1584 409 2034 409 
Q 2484 409 2743 651 
Q 3003 894 3003 1313 
Q 3003 1734 2745 1975 
Q 2488 2216 2034 2216 
z
M 1403 2484 
Q 997 2584 770 2862 
Q 544 3141 544 3541 
Q 544 4100 942 4425 
Q 1341 4750 2034 4750 
Q 2731 4750 3128 4425 
Q 3525 4100 3525 3541 
Q 3525 3141 3298 2862 
Q 3072 2584 2669 2484 
Q 3125 2378 3379 2068 
Q 3634 1759 3634 1313 
Q 3634 634 3220 271 
Q 2806 -91 2034 -91 
Q 1263 -91 848 271 
Q 434 634 434 1313 
Q 434 1759 690 2068 
Q 947 2378 1403 2484 
z
M 1172 3481 
Q 1172 3119 1398 2916 
Q 1625 2713 2034 2713 
Q 2441 2713 2670 2916 
Q 2900 3119 2900 3481 
Q 2900 3844 2670 4047 
Q 2441 4250 2034 4250 
Q 1625 4250 1398 4047 
Q 1172 3844 1172 3481 
z
" transform="scale(0.015625)"/>
       </defs>
       <use xlink:href="#DejaVuSans-38"/>
       <use xlink:href="#DejaVuSans-30" transform="translate(63.623047 0)"/>
      </g>
     </g>
    </g>
    <g id="ytick_8">
     <g id="line2d_18">
      <g>
       <use xlink:href="#m03b09076ba" x="145.8" y="45.601654" style="stroke: #000000; stroke-width: 0.8"/>
      </g>
     </g>
     <g id="text_18">
      <!-- 90 -->
      <g transform="translate(126.075 49.400872) scale(0.1 -0.1)">
       <use xlink:href="#DejaVuSans-39"/>
       <use xlink:href="#DejaVuSans-30" transform="translate(63.623047 0)"/>
      </g>
     </g>
    </g>
   </g>
   <g id="line2d_19">
    <path d="M 186.889091 89.895398 
L 191.355296 97.561609 
L 192.844032 92.777871 
L 194.332767 105.635917 
L 195.821502 97.931419 
L 197.310237 95.944994 
L 203.265178 86.205988 
L 204.753913 84.14976 
L 206.242648 69.832976 
L 207.731383 95.899156 
L 212.197589 89.4219 
L 213.686324 70.712596 
L 215.175059 94.830047 
L 216.663794 110.380783 
L 218.15253 111.608557 
L 222.618735 108.166263 
L 224.10747 100.866901 
L 225.596206 102.007498 
L 227.084941 107.479077 
L 228.573676 107.768434 
L 233.039881 107.818814 
L 234.528617 128.127993 
L 236.017352 153.731893 
L 237.506087 129.101637 
L 243.461028 118.277998 
L 244.949763 161.233798 
L 246.438498 157.821823 
L 247.927233 158.571159 
L 249.415968 142.404636 
L 253.882174 152.116515 
L 255.370909 168.679549 
L 256.859644 163.535343 
L 258.348379 147.906803 
L 259.837115 176.756051 
L 264.30332 189.522181 
L 265.792055 171.002318 
L 267.280791 175.231241 
L 268.769526 171.901413 
L 270.258261 196.078329 
L 274.724466 177.881794 
L 276.213202 164.70338 
L 277.701937 163.85841 
L 279.190672 160.68781 
L 280.679407 141.800083 
L 285.145613 136.325679 
L 286.634348 145.456066 
L 288.123083 166.550543 
L 291.100553 135.289834 
L 295.566759 130.18852 
L 297.055494 124.328113 
L 298.544229 126.416307 
L 300.032964 98.696123 
L 301.5217 103.986392 
L 305.987905 110.641251 
L 307.47664 92.283477 
L 308.965375 91.478946 
L 310.454111 108.855147 
L 311.942846 120.631271 
L 316.409051 104.36918 
L 317.897787 79.041781 
L 319.386522 90.528139 
L 320.875257 75.403349 
L 322.363992 76.809515 
L 328.318933 54.59539 
L 329.807668 52.74407 
L 331.296403 68.684264 
L 332.785138 75.050711 
L 337.251344 68.542788 
L 338.740079 67.98267 
L 340.228814 65.033704 
L 341.717549 70.31588 
L 343.206285 62.219853 
L 347.67249 63.609746 
L 349.161225 68.456541 
L 350.64996 62.09894 
L 352.138696 66.529992 
L 353.627431 66.976624 
L 358.093636 82.21472 
L 359.582372 76.271803 
L 362.559842 78.627875 
L 364.048577 93.677397 
L 368.514783 134.988594 
L 370.003518 120.449798 
L 371.492253 132.862373 
L 372.980988 135.631766 
L 374.469723 136.577203 
L 378.935929 136.92791 
L 380.424664 138.993057 
L 381.913399 135.804681 
L 384.89087 153.409221 
L 389.357075 153.127459 
L 390.84581 142.535801 
L 392.334545 145.233927 
L 393.823281 151.665683 
L 395.312016 136.790229 
L 399.778221 112.560555 
L 401.266957 142.584378 
L 402.755692 167.477511 
L 404.244427 151.657697 
L 405.733162 158.333949 
L 410.199368 145.346238 
L 411.688103 143.724303 
L 413.176838 175.758561 
L 414.665573 174.938892 
L 416.154308 179.713749 
L 420.620514 192.460428 
L 422.109249 214.421699 
L 423.597984 164.842733 
L 425.086719 180.91278 
L 426.575455 182.365387 
L 431.04166 187.9083 
L 432.530395 168.671559 
L 434.01913 182.799904 
L 435.507866 165.552377 
L 436.996601 178.040845 
L 441.462806 167.271053 
L 442.951542 140.165406 
L 444.440277 133.199018 
L 445.929012 127.034025 
L 447.417747 121.739132 
L 451.883953 97.936648 
L 453.372688 122.655964 
L 454.861423 99.336082 
L 456.350158 107.688563 
L 457.838893 79.234636 
L 462.305099 93.341251 
L 463.793834 72.52863 
L 465.282569 90.114741 
L 466.771304 115.005012 
L 468.26004 119.448548 
L 474.21498 161.054828 
L 475.703715 169.152579 
L 477.192451 179.724391 
L 478.681186 191.424918 
L 483.147391 197.058404 
L 484.636126 188.020532 
L 486.124862 167.078209 
L 487.613597 153.262829 
L 489.102332 167.617842 
L 493.568538 166.492908 
L 495.057273 174.073251 
L 496.546008 173.217402 
L 498.034743 142.773628 
L 499.523478 152.28167 
L 503.989684 115.325005 
L 505.478419 97.141096 
L 506.967154 94.050974 
L 508.455889 72.36613 
L 509.944625 92.016256 
L 514.41083 95.340288 
L 515.899565 143.116218 
L 517.3883 144.748446 
L 518.877036 129.666445 
L 520.365771 113.207196 
L 524.831976 100.454048 
L 526.320711 79.675246 
L 527.809447 88.969832 
L 529.298182 74.694943 
L 530.786917 75.172011 
L 535.253123 77.445396 
L 536.741858 115.783138 
L 538.230593 107.131373 
L 539.719328 93.304837 
L 541.208063 91.392519 
L 545.674269 62.095943 
L 547.163004 64.705679 
L 548.651739 90.331907 
L 550.140474 92.599934 
L 551.629209 95.956896 
L 556.095415 113.794852 
L 557.58415 110.529368 
L 559.072885 126.0101 
L 560.561621 150.064348 
L 562.050356 152.225482 
L 566.516561 126.384537 
L 568.005296 127.253095 
L 569.494032 114.015885 
L 570.982767 108.665749 
L 572.471502 129.308608 
L 576.937708 137.850608 
L 578.426443 112.989104 
L 579.915178 123.69296 
L 581.403913 125.541162 
L 582.892648 138.980766 
L 587.358854 146.86528 
L 588.847589 122.818205 
L 590.336324 103.218147 
L 591.825059 107.235575 
L 593.313794 126.367512 
L 597.78 154.316076 
L 600.75747 187.54149 
L 603.734941 172.732396 
L 608.201146 165.271434 
L 609.689881 170.888188 
L 611.178617 147.096558 
L 612.667352 148.922111 
L 614.156087 141.942348 
L 618.622292 147.815197 
L 620.111028 185.388378 
L 621.599763 164.690024 
L 623.088498 172.635357 
L 624.577233 168.587795 
L 629.043439 158.017452 
L 630.532174 166.60021 
L 632.020909 166.312545 
L 633.509644 171.273526 
L 634.998379 156.501213 
L 639.464585 145.291699 
L 640.95332 160.221506 
L 643.930791 160.863491 
L 645.419526 161.726412 
L 649.885731 148.371283 
L 651.374466 146.438067 
L 654.351937 147.283223 
L 655.840672 119.819844 
L 660.306877 95.490263 
L 661.795613 121.736474 
L 663.284348 116.574623 
L 666.261818 125.244627 
L 670.728024 136.996152 
L 672.216759 151.489239 
L 673.705494 152.917325 
L 675.194229 160.905936 
L 676.682964 148.890606 
L 682.637905 134.343754 
L 684.12664 122.833433 
L 685.615375 114.006688 
L 687.104111 133.794657 
L 691.570316 187.678636 
L 693.059051 175.67449 
L 694.547787 170.784631 
L 696.036522 168.844607 
L 697.525257 169.335665 
L 701.991462 170.265161 
L 703.480198 164.538691 
L 704.968933 161.416525 
L 706.457668 151.081931 
L 707.946403 156.158436 
L 712.412609 155.087216 
L 713.901344 167.985417 
L 715.390079 170.516768 
L 716.878814 155.90849 
L 718.367549 95.298017 
L 724.32249 113.066857 
L 725.811225 91.745145 
L 727.29996 91.880066 
L 728.788696 96.953441 
L 733.254901 100.203194 
L 734.743636 119.194756 
L 736.232372 123.081173 
L 737.721107 166.284206 
L 739.209842 155.697505 
L 743.676047 185.703352 
L 746.653518 173.025221 
L 748.142253 193.94718 
L 749.630988 198.195609 
L 754.097194 205.792453 
L 755.585929 200.605848 
L 757.074664 185.257873 
L 758.563399 178.503695 
L 760.052134 159.036959 
L 764.51834 156.605122 
L 766.007075 172.987702 
L 767.49581 149.177113 
L 768.984545 158.257914 
L 770.473281 133.135639 
L 774.939486 128.681393 
L 776.428221 134.107577 
L 777.916957 134.70355 
L 779.405692 146.961234 
L 780.894427 135.39842 
L 785.360632 144.658671 
L 786.849368 163.120606 
L 788.338103 161.556917 
L 789.826838 208.271356 
L 791.315573 215.46 
L 795.781779 195.195969 
L 797.270514 206.273703 
L 798.759249 152.331135 
L 800.247984 162.800621 
L 801.736719 163.575457 
L 806.202925 162.769428 
L 807.69166 146.819656 
L 809.180395 156.921752 
L 810.66913 159.01181 
L 816.624071 164.187608 
L 818.112806 163.74695 
L 819.601542 156.68815 
L 821.090277 135.049924 
L 822.579012 111.548936 
L 827.045217 121.937779 
L 828.533953 118.343455 
L 830.022688 158.619334 
L 831.511423 131.111188 
L 833.000158 132.424928 
L 837.466364 133.967702 
L 838.955099 139.281079 
L 840.443834 98.813678 
L 841.932569 82.247776 
L 843.421304 56.797085 
L 847.88751 51.959615 
L 849.376245 49.245612 
L 850.86498 47.961972 
L 852.353715 55.064784 
L 853.842451 39.06 
L 858.308656 39.129151 
L 859.797391 46.802277 
L 861.286126 66.561417 
L 862.774862 69.355523 
L 864.263597 74.789962 
L 870.218538 66.814104 
L 871.707273 76.073369 
L 873.196008 69.908473 
L 874.684743 86.434237 
L 879.150949 93.973389 
L 880.639684 100.915079 
L 882.128419 114.473418 
L 883.617154 121.854458 
L 885.105889 117.99796 
L 889.572095 115.688368 
L 891.06083 105.919929 
L 892.549565 98.059335 
L 894.0383 95.216768 
L 895.527036 103.081102 
L 899.993241 107.037823 
L 901.481976 106.417819 
L 902.970711 115.710253 
L 905.948182 101.27627 
L 910.414387 107.898534 
L 911.903123 108.308087 
L 913.391858 91.116819 
L 914.880593 77.162627 
L 916.369328 75.212371 
L 920.835534 76.503394 
L 922.324269 107.114976 
L 923.813004 92.007855 
L 925.301739 92.173777 
L 931.25668 81.774589 
L 932.745415 83.635548 
L 934.23415 75.184272 
L 935.722885 75.410484 
L 937.211621 64.535062 
L 941.677826 70.113322 
L 943.166561 66.175347 
L 944.655296 74.69946 
L 946.144032 73.122569 
L 947.632767 81.904552 
L 952.098972 88.729934 
L 953.587708 86.692347 
L 955.076443 87.13887 
L 956.565178 85.239477 
L 958.053913 79.950117 
L 962.520119 77.110529 
L 964.008854 90.637951 
L 965.497589 85.079951 
L 966.986324 94.528333 
L 968.475059 110.395502 
L 972.941265 111.280651 
L 974.43 120.340831 
L 975.918735 121.639832 
L 977.40747 115.615813 
L 978.896206 106.637844 
L 983.362411 89.17793 
L 984.851146 94.95852 
L 986.339881 111.295606 
L 987.828617 108.765862 
L 989.317352 127.53766 
L 993.783557 115.748779 
L 995.272292 157.749893 
L 996.761028 153.578976 
L 998.249763 137.679419 
L 999.738498 154.186532 
L 1004.204704 135.341675 
L 1005.693439 131.529492 
L 1007.182174 139.072447 
L 1008.670909 157.42471 
L 1008.670909 157.42471 
" clip-path="url(#p30fc176ac6)" style="fill: none; stroke: #1f77b4; stroke-width: 1.5; stroke-linecap: square"/>
   </g>
   <g id="patch_3">
    <path d="M 145.8 224.28 
L 145.8 30.24 
" style="fill: none; stroke: #000000; stroke-width: 0.8; stroke-linejoin: miter; stroke-linecap: square"/>
   </g>
   <g id="patch_4">
    <path d="M 145.8 224.28 
L 1049.76 224.28 
" style="fill: none; stroke: #000000; stroke-width: 0.8; stroke-linejoin: miter; stroke-linecap: square"/>
   </g>
  </g>
 </g>
 <defs>
  <clipPath id="p30fc176ac6">
   <rect x="145.8" y="30.24" width="903.96" height="194.04"/>
  </clipPath>
 </defs>
</svg>
