<?xml version="1.0" encoding="utf-8" standalone="no"?>
<!DOCTYPE svg PUBLIC "-//W3C//DTD SVG 1.1//EN"
  "http://www.w3.org/Graphics/SVG/1.1/DTD/svg11.dtd">
<svg xmlns:xlink="http://www.w3.org/1999/xlink" width="1166.4pt" height="252pt" viewBox="0 0 1166.4 252" xmlns="http://www.w3.org/2000/svg" version="1.1">
 <metadata>
  <rdf:RDF xmlns:dc="http://purl.org/dc/elements/1.1/" xmlns:cc="http://creativecommons.org/ns#" xmlns:rdf="http://www.w3.org/1999/02/22-rdf-syntax-ns#">
   <cc:Work>
    <dc:type rdf:resource="http://purl.org/dc/dcmitype/StillImage"/>
    <dc:date>2025-09-05T15:16:59.570467</dc:date>
    <dc:format>image/svg+xml</dc:format>
    <dc:creator>
     <cc:Agent>
      <dc:title>Matplotlib v3.10.5, https://matplotlib.org/</dc:title>
     </cc:Agent>
    </dc:creator>
   </cc:Work>
  </rdf:RDF>
 </metadata>
 <defs>
  <style type="text/css">*{stroke-linejoin: round; stroke-linecap: butt}</style>
 </defs>
 <g id="figure_1">
  <g id="patch_1">
   <path d="M 0 252 
L 1166.4 252 
L 1166.4 0 
L 0 0 
z
" style="fill: #ffffff"/>
  </g>
  <g id="axes_1">
   <g id="patch_2">
    <path d="M 145.8 224.28 
L 1049.76 224.28 
L 1049.76 30.24 
L 145.8 30.24 
z
" style="fill: #ffffff"/>
   </g>
   <g id="matplotlib.axis_1">
    <g id="xtick_1">
     <g id="line2d_1">
      <defs>
       <path id="ma21144620f" d="M 0 0 
L 0 3.5 
" style="stroke: #000000; stroke-width: 0.8"/>
      </defs>
      <g>
       <use xlink:href="#ma21144620f" x="178.470838" y="224.28" style="stroke: #000000; stroke-width: 0.8"/>
      </g>
     </g>
     <g id="text_1">
      <!-- 2020 -->
      <g transform="translate(165.745838 238.878438) scale(0.1 -0.1)">
       <defs>
        <path id="DejaVuSans-32" d="M 1228 531 
L 3431 531 
L 3431 0 
L 469 0 
L 469 531 
Q 828 903 1448 1529 
Q 2069 2156 2228 2338 
Q 2531 2678 2651 2914 
Q 2772 3150 2772 3378 
Q 2772 3750 2511 3984 
Q 2250 4219 1831 4219 
Q 1534 4219 1204 4116 
Q 875 4013 500 3803 
L 500 4441 
Q 881 4594 1212 4672 
Q 1544 4750 1819 4750 
Q 2544 4750 2975 4387 
Q 3406 4025 3406 3419 
Q 3406 3131 3298 2873 
Q 3191 2616 2906 2266 
Q 2828 2175 2409 1742 
Q 1991 1309 1228 531 
z
" transform="scale(0.015625)"/>
        <path id="DejaVuSans-30" d="M 2034 4250 
Q 1547 4250 1301 3770 
Q 1056 3291 1056 2328 
Q 1056 1369 1301 889 
Q 1547 409 2034 409 
Q 2525 409 2770 889 
Q 3016 1369 3016 2328 
Q 3016 3291 2770 3770 
Q 2525 4250 2034 4250 
z
M 2034 4750 
Q 2819 4750 3233 4129 
Q 3647 3509 3647 2328 
Q 3647 1150 3233 529 
Q 2819 -91 2034 -91 
Q 1250 -91 836 529 
Q 422 1150 422 2328 
Q 422 3509 836 4129 
Q 1250 4750 2034 4750 
z
" transform="scale(0.015625)"/>
       </defs>
       <use xlink:href="#DejaVuSans-32"/>
       <use xlink:href="#DejaVuSans-30" transform="translate(63.623047 0)"/>
       <use xlink:href="#DejaVuSans-32" transform="translate(127.246094 0)"/>
       <use xlink:href="#DejaVuSans-30" transform="translate(190.869141 0)"/>
      </g>
     </g>
    </g>
    <g id="xtick_2">
     <g id="line2d_2">
      <g>
       <use xlink:href="#ma21144620f" x="325.188958" y="224.28" style="stroke: #000000; stroke-width: 0.8"/>
      </g>
     </g>
     <g id="text_2">
      <!-- 2021 -->
      <g transform="translate(312.463958 238.878438) scale(0.1 -0.1)">
       <defs>
        <path id="DejaVuSans-31" d="M 794 531 
L 1825 531 
L 1825 4091 
L 703 3866 
L 703 4441 
L 1819 4666 
L 2450 4666 
L 2450 531 
L 3481 531 
L 3481 0 
L 794 0 
L 794 531 
z
" transform="scale(0.015625)"/>
       </defs>
       <use xlink:href="#DejaVuSans-32"/>
       <use xlink:href="#DejaVuSans-30" transform="translate(63.623047 0)"/>
       <use xlink:href="#DejaVuSans-32" transform="translate(127.246094 0)"/>
       <use xlink:href="#DejaVuSans-31" transform="translate(190.869141 0)"/>
      </g>
     </g>
    </g>
    <g id="xtick_3">
     <g id="line2d_3">
      <g>
       <use xlink:href="#ma21144620f" x="471.506208" y="224.28" style="stroke: #000000; stroke-width: 0.8"/>
      </g>
     </g>
     <g id="text_3">
      <!-- 2022 -->
      <g transform="translate(458.781208 238.878438) scale(0.1 -0.1)">
       <use xlink:href="#DejaVuSans-32"/>
       <use xlink:href="#DejaVuSans-30" transform="translate(63.623047 0)"/>
       <use xlink:href="#DejaVuSans-32" transform="translate(127.246094 0)"/>
       <use xlink:href="#DejaVuSans-32" transform="translate(190.869141 0)"/>
      </g>
     </g>
    </g>
    <g id="xtick_4">
     <g id="line2d_4">
      <g>
       <use xlink:href="#ma21144620f" x="617.823459" y="224.28" style="stroke: #000000; stroke-width: 0.8"/>
      </g>
     </g>
     <g id="text_4">
      <!-- 2023 -->
      <g transform="translate(605.098459 238.878438) scale(0.1 -0.1)">
       <defs>
        <path id="DejaVuSans-33" d="M 2597 2516 
Q 3050 2419 3304 2112 
Q 3559 1806 3559 1356 
Q 3559 666 3084 287 
Q 2609 -91 1734 -91 
Q 1441 -91 1130 -33 
Q 819 25 488 141 
L 488 750 
Q 750 597 1062 519 
Q 1375 441 1716 441 
Q 2309 441 2620 675 
Q 2931 909 2931 1356 
Q 2931 1769 2642 2001 
Q 2353 2234 1838 2234 
L 1294 2234 
L 1294 2753 
L 1863 2753 
Q 2328 2753 2575 2939 
Q 2822 3125 2822 3475 
Q 2822 3834 2567 4026 
Q 2313 4219 1838 4219 
Q 1578 4219 1281 4162 
Q 984 4106 628 3988 
L 628 4550 
Q 988 4650 1302 4700 
Q 1616 4750 1894 4750 
Q 2613 4750 3031 4423 
Q 3450 4097 3450 3541 
Q 3450 3153 3228 2886 
Q 3006 2619 2597 2516 
z
" transform="scale(0.015625)"/>
       </defs>
       <use xlink:href="#DejaVuSans-32"/>
       <use xlink:href="#DejaVuSans-30" transform="translate(63.623047 0)"/>
       <use xlink:href="#DejaVuSans-32" transform="translate(127.246094 0)"/>
       <use xlink:href="#DejaVuSans-33" transform="translate(190.869141 0)"/>
      </g>
     </g>
    </g>
    <g id="xtick_5">
     <g id="line2d_5">
      <g>
       <use xlink:href="#ma21144620f" x="764.14071" y="224.28" style="stroke: #000000; stroke-width: 0.8"/>
      </g>
     </g>
     <g id="text_5">
      <!-- 2024 -->
      <g transform="translate(751.41571 238.878438) scale(0.1 -0.1)">
       <defs>
        <path id="DejaVuSans-34" d="M 2419 4116 
L 825 1625 
L 2419 1625 
L 2419 4116 
z
M 2253 4666 
L 3047 4666 
L 3047 1625 
L 3713 1625 
L 3713 1100 
L 3047 1100 
L 3047 0 
L 2419 0 
L 2419 1100 
L 313 1100 
L 313 1709 
L 2253 4666 
z
" transform="scale(0.015625)"/>
       </defs>
       <use xlink:href="#DejaVuSans-32"/>
       <use xlink:href="#DejaVuSans-30" transform="translate(63.623047 0)"/>
       <use xlink:href="#DejaVuSans-32" transform="translate(127.246094 0)"/>
       <use xlink:href="#DejaVuSans-34" transform="translate(190.869141 0)"/>
      </g>
     </g>
    </g>
    <g id="xtick_6">
     <g id="line2d_6">
      <g>
       <use xlink:href="#ma21144620f" x="910.858829" y="224.28" style="stroke: #000000; stroke-width: 0.8"/>
      </g>
     </g>
     <g id="text_6">
      <!-- 2025 -->
      <g transform="translate(898.133829 238.878438) scale(0.1 -0.1)">
       <defs>
        <path id="DejaVuSans-35" d="M 691 4666 
L 3169 4666 
L 3169 4134 
L 1269 4134 
L 1269 2991 
Q 1406 3038 1543 3061 
Q 1681 3084 1819 3084 
Q 2600 3084 3056 2656 
Q 3513 2228 3513 1497 
Q 3513 744 3044 326 
Q 2575 -91 1722 -91 
Q 1428 -91 1123 -41 
Q 819 9 494 109 
L 494 744 
Q 775 591 1075 516 
Q 1375 441 1709 441 
Q 2250 441 2565 725 
Q 2881 1009 2881 1497 
Q 2881 1984 2565 2268 
Q 2250 2553 1709 2553 
Q 1456 2553 1204 2497 
Q 953 2441 691 2322 
L 691 4666 
z
" transform="scale(0.015625)"/>
       </defs>
       <use xlink:href="#DejaVuSans-32"/>
       <use xlink:href="#DejaVuSans-30" transform="translate(63.623047 0)"/>
       <use xlink:href="#DejaVuSans-32" transform="translate(127.246094 0)"/>
       <use xlink:href="#DejaVuSans-35" transform="translate(190.869141 0)"/>
      </g>
     </g>
    </g>
   </g>
   <g id="matplotlib.axis_2">
    <g id="ytick_1">
     <g id="line2d_7">
      <defs>
       <path id="mce5ecbc87d" d="M 0 0 
L -3.5 0 
" style="stroke: #000000; stroke-width: 0.8"/>
      </defs>
      <g>
       <use xlink:href="#mce5ecbc87d" x="145.8" y="191.997381" style="stroke: #000000; stroke-width: 0.8"/>
      </g>
     </g>
     <g id="text_7">
      <!-- 20 -->
      <g transform="translate(126.075 195.7966) scale(0.1 -0.1)">
       <use xlink:href="#DejaVuSans-32"/>
       <use xlink:href="#DejaVuSans-30" transform="translate(63.623047 0)"/>
      </g>
     </g>
    </g>
    <g id="ytick_2">
     <g id="line2d_8">
      <g>
       <use xlink:href="#mce5ecbc87d" x="145.8" y="152.270738" style="stroke: #000000; stroke-width: 0.8"/>
      </g>
     </g>
     <g id="text_8">
      <!-- 40 -->
      <g transform="translate(126.075 156.069956) scale(0.1 -0.1)">
       <use xlink:href="#DejaVuSans-34"/>
       <use xlink:href="#DejaVuSans-30" transform="translate(63.623047 0)"/>
      </g>
     </g>
    </g>
    <g id="ytick_3">
     <g id="line2d_9">
      <g>
       <use xlink:href="#mce5ecbc87d" x="145.8" y="112.544094" style="stroke: #000000; stroke-width: 0.8"/>
      </g>
     </g>
     <g id="text_9">
      <!-- 60 -->
      <g transform="translate(126.075 116.343313) scale(0.1 -0.1)">
       <defs>
        <path id="DejaVuSans-36" d="M 2113 2584 
Q 1688 2584 1439 2293 
Q 1191 2003 1191 1497 
Q 1191 994 1439 701 
Q 1688 409 2113 409 
Q 2538 409 2786 701 
Q 3034 994 3034 1497 
Q 3034 2003 2786 2293 
Q 2538 2584 2113 2584 
z
M 3366 4563 
L 3366 3988 
Q 3128 4100 2886 4159 
Q 2644 4219 2406 4219 
Q 1781 4219 1451 3797 
Q 1122 3375 1075 2522 
Q 1259 2794 1537 2939 
Q 1816 3084 2150 3084 
Q 2853 3084 3261 2657 
Q 3669 2231 3669 1497 
Q 3669 778 3244 343 
Q 2819 -91 2113 -91 
Q 1303 -91 875 529 
Q 447 1150 447 2328 
Q 447 3434 972 4092 
Q 1497 4750 2381 4750 
Q 2619 4750 2861 4703 
Q 3103 4656 3366 4563 
z
" transform="scale(0.015625)"/>
       </defs>
       <use xlink:href="#DejaVuSans-36"/>
       <use xlink:href="#DejaVuSans-30" transform="translate(63.623047 0)"/>
      </g>
     </g>
    </g>
    <g id="ytick_4">
     <g id="line2d_10">
      <g>
       <use xlink:href="#mce5ecbc87d" x="145.8" y="72.817451" style="stroke: #000000; stroke-width: 0.8"/>
      </g>
     </g>
     <g id="text_10">
      <!-- 80 -->
      <g transform="translate(126.075 76.61667) scale(0.1 -0.1)">
       <defs>
        <path id="DejaVuSans-38" d="M 2034 2216 
Q 1584 2216 1326 1975 
Q 1069 1734 1069 1313 
Q 1069 891 1326 650 
Q 1584 409 2034 409 
Q 2484 409 2743 651 
Q 3003 894 3003 1313 
Q 3003 1734 2745 1975 
Q 2488 2216 2034 2216 
z
M 1403 2484 
Q 997 2584 770 2862 
Q 544 3141 544 3541 
Q 544 4100 942 4425 
Q 1341 4750 2034 4750 
Q 2731 4750 3128 4425 
Q 3525 4100 3525 3541 
Q 3525 3141 3298 2862 
Q 3072 2584 2669 2484 
Q 3125 2378 3379 2068 
Q 3634 1759 3634 1313 
Q 3634 634 3220 271 
Q 2806 -91 2034 -91 
Q 1263 -91 848 271 
Q 434 634 434 1313 
Q 434 1759 690 2068 
Q 947 2378 1403 2484 
z
M 1172 3481 
Q 1172 3119 1398 2916 
Q 1625 2713 2034 2713 
Q 2441 2713 2670 2916 
Q 2900 3119 2900 3481 
Q 2900 3844 2670 4047 
Q 2441 4250 2034 4250 
Q 1625 4250 1398 4047 
Q 1172 3844 1172 3481 
z
" transform="scale(0.015625)"/>
       </defs>
       <use xlink:href="#DejaVuSans-38"/>
       <use xlink:href="#DejaVuSans-30" transform="translate(63.623047 0)"/>
      </g>
     </g>
    </g>
    <g id="ytick_5">
     <g id="line2d_11">
      <g>
       <use xlink:href="#mce5ecbc87d" x="145.8" y="33.090807" style="stroke: #000000; stroke-width: 0.8"/>
      </g>
     </g>
     <g id="text_11">
      <!-- 100 -->
      <g transform="translate(119.7125 36.890026) scale(0.1 -0.1)">
       <use xlink:href="#DejaVuSans-31"/>
       <use xlink:href="#DejaVuSans-30" transform="translate(63.623047 0)"/>
       <use xlink:href="#DejaVuSans-30" transform="translate(127.246094 0)"/>
      </g>
     </g>
    </g>
   </g>
   <g id="line2d_12">
    <path d="M 186.889091 102.05909 
L 187.690829 91.127982 
L 188.893437 125.313369 
L 189.294306 116.064711 
L 189.695175 122.327311 
L 190.096044 126.690584 
L 190.496914 146.264264 
L 191.699521 154.325175 
L 192.10039 132.678815 
L 192.501259 123.334177 
L 192.902129 123.128147 
L 193.302998 128.535302 
L 194.505605 110.864213 
L 194.906475 107.895268 
L 195.307344 105.973069 
L 195.708213 104.909837 
L 196.109082 72.381631 
L 197.712559 72.86153 
L 198.113428 61.420083 
L 198.915166 79.273915 
L 200.117774 106.149796 
L 200.518643 120.925895 
L 200.919512 119.605293 
L 201.320381 133.452538 
L 201.721251 120.634443 
L 202.923858 123.518848 
L 203.324727 133.5656 
L 203.725596 125.391352 
L 204.126466 130.943033 
L 204.527335 146.22523 
L 205.729942 160.017247 
L 206.130812 161.757658 
L 206.531681 164.939302 
L 206.93255 170.002541 
L 207.333419 147.766587 
L 208.536027 159.294002 
L 208.936896 151.79966 
L 209.337765 151.662693 
L 209.738634 155.14225 
L 210.139503 160.45254 
L 211.342111 153.824719 
L 211.74298 145.669912 
L 212.143849 143.104121 
L 212.945588 129.454524 
L 214.148195 130.559634 
L 214.949933 120.335682 
L 215.350803 125.42283 
L 215.751672 105.467444 
L 216.954279 104.001842 
L 217.355149 100.266331 
L 217.756018 101.140005 
L 218.156887 98.640766 
L 219.760364 98.656323 
L 220.161233 108.724285 
L 220.562102 108.343519 
L 220.962971 107.201534 
L 221.36384 105.378181 
L 222.566448 116.949569 
L 222.967317 128.581799 
L 223.368186 103.795957 
L 223.769055 112.056341 
L 224.169925 98.372971 
L 225.372532 107.915572 
L 225.773401 103.904 
L 226.174271 104.423209 
L 226.57514 106.857343 
L 226.976009 121.394924 
L 228.178616 125.841115 
L 228.579486 120.798225 
L 228.980355 129.355204 
L 229.381224 120.564948 
L 229.782093 108.918769 
L 230.984701 79.760415 
L 231.38557 105.009996 
L 231.786439 103.317423 
L 232.187308 100.111972 
L 232.588177 93.347219 
L 233.790785 80.790821 
L 234.191654 82.951451 
L 234.592523 71.438864 
L 234.993392 68.869035 
L 235.394262 68.363014 
L 236.997738 86.168573 
L 237.398608 97.142308 
L 237.799477 102.818508 
L 238.200346 98.37347 
L 239.402953 107.197458 
L 239.803823 94.424431 
L 240.204692 96.110625 
L 240.605561 102.507295 
L 241.00643 112.403033 
L 242.209038 129.499102 
L 242.609907 121.327338 
L 243.010776 115.452981 
L 243.411645 131.495718 
L 243.812514 135.819131 
L 245.015122 114.436921 
L 245.415991 110.272962 
L 245.81686 103.473364 
L 246.217729 116.86108 
L 246.618599 111.571698 
L 247.821206 103.624805 
L 248.222075 104.721553 
L 248.622945 114.955327 
L 249.023814 111.970371 
L 249.424683 120.781642 
L 250.62729 126.933252 
L 251.02816 127.712106 
L 251.429029 99.768889 
L 251.829898 101.421502 
L 253.433375 101.871326 
L 253.834244 94.268765 
L 254.235113 89.502012 
L 254.635982 81.997291 
L 255.036851 84.593731 
L 256.239459 113.016287 
L 256.640328 101.086815 
L 257.041197 98.14452 
L 257.442067 108.802347 
L 257.842936 89.889704 
L 259.045543 84.348664 
L 259.446412 100.591439 
L 259.847282 98.620326 
L 260.248151 114.672214 
L 260.64902 119.510676 
L 261.851627 113.774406 
L 262.252497 132.425217 
L 262.653366 133.978987 
L 263.054235 127.740811 
L 263.455104 109.525767 
L 264.657712 107.373324 
L 265.058581 93.893292 
L 265.45945 87.477988 
L 265.860319 87.865196 
L 266.261188 103.364 
L 267.463796 94.772608 
L 267.864665 115.475638 
L 268.265534 84.085872 
L 268.666404 85.287256 
L 269.067273 87.478082 
L 270.26988 64.274881 
L 271.071619 80.062328 
L 271.472488 80.033989 
L 271.873357 77.764932 
L 273.075965 80.587836 
L 274.278572 81.986053 
L 274.679441 72.72118 
L 275.882049 54.324194 
L 276.282918 55.289414 
L 276.683787 52.059918 
L 277.084656 102.323259 
L 277.485525 125.914479 
L 279.089002 139.165298 
L 279.489871 122.36361 
L 279.890741 129.585462 
L 280.29161 141.318381 
L 281.494217 129.994589 
L 281.895086 128.668044 
L 282.295956 136.043836 
L 282.696825 134.737232 
L 283.097694 146.734967 
L 284.300302 145.021088 
L 284.701171 150.803147 
L 285.10204 167.026269 
L 285.903778 127.788785 
L 287.106386 109.452871 
L 287.507255 120.452991 
L 287.908124 103.203733 
L 288.308993 97.12404 
L 288.709863 127.600912 
L 289.91247 117.659882 
L 290.313339 102.103971 
L 291.115078 91.781671 
L 291.515947 99.687123 
L 292.718554 94.151135 
L 293.119424 74.305132 
L 293.520293 83.666167 
L 293.921162 97.950213 
L 294.322031 107.979228 
L 296.326377 135.228341 
L 296.727246 121.700742 
L 297.128115 134.551551 
L 298.330723 153.709288 
L 298.731592 152.504559 
L 299.132461 167.313353 
L 299.53333 151.875449 
L 299.9342 176.681944 
L 301.136807 175.761019 
L 301.537676 158.429416 
L 301.938545 136.078121 
L 302.339415 125.432775 
L 302.740284 111.480287 
L 303.942891 132.65855 
L 304.343761 143.809384 
L 304.74463 131.6054 
L 305.145499 134.337908 
L 305.546368 130.056163 
L 306.748976 130.608285 
L 307.149845 118.94025 
L 307.550714 125.064223 
L 307.951583 114.390927 
L 308.352452 122.90942 
L 309.55506 129.972472 
L 309.955929 151.627383 
L 310.356798 154.112201 
L 311.158537 165.890331 
L 312.361144 139.830412 
L 312.762013 104.64528 
L 313.162882 125.122232 
L 313.563752 135.489216 
L 313.964621 118.033875 
L 315.167228 126.703229 
L 315.568098 136.120756 
L 315.968967 154.320261 
L 316.369836 152.717179 
L 316.770705 135.990746 
L 317.973313 124.617777 
L 318.374182 112.905493 
L 318.775051 131.801662 
L 319.17592 128.206445 
L 319.576789 138.925331 
L 320.779397 135.131117 
L 321.180266 146.401008 
L 321.581135 151.75054 
L 321.982004 162.893695 
L 323.585481 169.659272 
L 323.98635 156.586238 
L 324.38722 117.721614 
L 324.788089 126.940446 
L 326.391565 125.860283 
L 326.792435 126.120594 
L 327.193304 165.263345 
L 327.594173 128.890616 
L 327.995042 134.667059 
L 329.19765 121.248079 
L 329.598519 127.655102 
L 329.999388 124.49028 
L 330.400257 126.557123 
L 330.801126 136.14459 
L 332.404603 128.989779 
L 333.206341 115.486409 
L 333.607211 117.222946 
L 334.809818 119.944573 
L 335.210687 131.690886 
L 335.611557 124.792763 
L 336.012426 141.070671 
L 336.413295 140.908414 
L 337.615902 144.137414 
L 338.016772 130.327794 
L 338.417641 132.443679 
L 338.81851 118.095925 
L 339.219379 107.801217 
L 340.421987 93.78205 
L 340.822856 106.716107 
L 341.223725 106.731958 
L 341.624594 92.206684 
L 342.025463 100.17673 
L 344.029809 84.106709 
L 344.430678 88.611756 
L 344.831548 85.126451 
L 346.034155 107.107755 
L 346.435024 118.844999 
L 346.835894 111.571783 
L 347.236763 138.651643 
L 347.637632 130.365848 
L 349.241109 147.750196 
L 350.042847 183.529937 
L 350.443716 178.401908 
L 351.646324 195.345609 
L 352.047193 169.339532 
L 352.448062 169.095191 
L 352.848931 160.545128 
L 353.2498 155.707342 
L 354.452408 146.874999 
L 354.853277 151.561808 
L 355.254146 131.660033 
L 355.655016 150.883015 
L 356.055885 150.970939 
L 357.258492 136.5144 
L 357.659361 126.720465 
L 358.060231 126.573476 
L 358.4611 130.769457 
L 358.861969 102.625522 
L 360.064576 119.705286 
L 360.465446 120.519526 
L 360.866315 121.80241 
L 361.267184 106.388973 
L 362.870661 109.740122 
L 363.27153 116.293836 
L 363.672399 111.14189 
L 364.073268 84.441185 
L 364.474137 85.07496 
L 365.676745 78.545135 
L 366.077614 68.978236 
L 366.478483 67.965975 
L 366.879353 58.064424 
L 367.280222 67.915503 
L 368.482829 86.08405 
L 369.284568 92.447472 
L 369.685437 111.975493 
L 370.086306 108.405926 
L 371.288914 102.532951 
L 372.090652 113.789491 
L 372.491521 114.344922 
L 372.89239 136.723165 
L 374.094998 151.902929 
L 374.495867 153.416792 
L 374.896736 178.423605 
L 375.297605 172.257422 
L 375.698475 149.453976 
L 376.901082 157.68679 
L 377.301951 163.123832 
L 377.70282 163.87035 
L 378.10369 183.265588 
L 378.504559 167.557502 
L 379.707166 167.210849 
L 380.108035 168.03205 
L 380.508905 167.955443 
L 380.909774 142.924611 
L 381.310643 128.515536 
L 382.513251 101.794696 
L 382.91412 103.017081 
L 383.314989 103.230852 
L 383.715858 115.326985 
L 384.116727 84.929545 
L 385.720204 85.187555 
L 386.121073 58.985181 
L 386.521942 53.948945 
L 386.922812 53.796708 
L 388.125419 50.293543 
L 388.526288 50.824036 
L 388.927157 55.082675 
L 389.328027 57.894493 
L 389.728896 57.755935 
L 390.931503 60.899147 
L 391.332373 72.28341 
L 391.733242 72.623696 
L 392.134111 56.416674 
L 392.53498 62.54327 
L 393.737588 72.645143 
L 394.138457 73.248973 
L 394.539326 73.487721 
L 394.940195 79.551671 
L 395.341064 88.443991 
L 396.543672 69.397853 
L 396.944541 65.107163 
L 397.746279 68.423142 
L 398.147149 67.662563 
L 399.750625 55.695518 
L 400.151494 69.939723 
L 400.552364 98.925173 
L 400.953233 95.743098 
L 402.15584 81.575738 
L 402.957579 113.480378 
L 403.358448 137.314562 
L 403.759317 148.195204 
L 404.961925 155.705786 
L 405.362794 159.101009 
L 405.763663 142.154025 
L 406.164532 142.616689 
L 406.565401 148.389673 
L 407.768009 156.352195 
L 408.168878 153.103014 
L 408.569747 139.745157 
L 408.970616 139.518749 
L 409.371486 152.055521 
L 410.574093 142.122444 
L 410.974962 132.959359 
L 411.776701 69.507239 
L 412.17757 88.176023 
L 413.380177 84.167801 
L 413.781047 115.143459 
L 414.181916 129.020366 
L 414.582785 121.800193 
L 414.983654 105.238276 
L 416.186262 110.859676 
L 416.587131 133.64299 
L 416.988 148.345248 
L 417.388869 125.765594 
L 417.789738 112.195159 
L 418.992346 98.70421 
L 419.393215 107.351462 
L 419.794084 106.654971 
L 420.194953 104.007431 
L 420.595823 96.355341 
L 421.79843 87.907463 
L 422.600169 90.73952 
L 423.001038 94.635621 
L 423.401907 84.653782 
L 425.005384 76.650124 
L 425.406253 74.029984 
L 426.207991 93.985344 
L 427.410599 126.776057 
L 427.811468 119.236698 
L 428.212337 128.172788 
L 428.613206 126.610619 
L 429.014075 158.169717 
L 430.216683 176.271917 
L 430.617552 165.766728 
L 431.018421 144.729511 
L 431.41929 130.520231 
L 431.82016 149.300138 
L 433.022767 153.491204 
L 433.423636 162.806791 
L 433.824506 163.063075 
L 434.225375 165.575691 
L 434.626244 160.549892 
L 435.828851 174.687785 
L 436.229721 161.214748 
L 436.63059 155.381735 
L 437.031459 144.638467 
L 437.432328 136.957017 
L 438.634936 141.292542 
L 439.035805 155.390727 
L 439.436674 161.792987 
L 439.837543 138.326509 
L 441.44102 100.326869 
L 441.841889 94.135482 
L 442.242758 102.38945 
L 442.643627 94.816594 
L 443.044497 61.202124 
L 444.247104 63.214694 
L 444.647973 55.670689 
L 445.048843 66.534566 
L 445.449712 55.909877 
L 445.850581 49.35388 
L 447.053188 47.934183 
L 447.454058 47.220915 
L 447.854927 48.717872 
L 448.255796 43.263844 
L 448.656665 44.775237 
L 449.859273 43.567267 
L 450.260142 42.773143 
L 450.661011 65.779606 
L 451.06188 63.110093 
L 451.462749 64.362791 
L 452.665357 76.073544 
L 453.066226 70.781925 
L 453.467095 88.275768 
L 453.867965 79.703188 
L 454.268834 75.806449 
L 455.471441 90.017616 
L 455.87231 93.162549 
L 456.27318 105.871866 
L 457.074918 117.762872 
L 458.277525 112.287487 
L 458.678395 117.272588 
L 459.079264 117.609872 
L 459.480133 119.163917 
L 459.881002 130.303589 
L 461.08361 132.302022 
L 461.484479 119.379636 
L 461.885348 117.078406 
L 462.286217 139.944304 
L 462.687086 151.408462 
L 463.889694 156.613933 
L 464.290563 154.197074 
L 464.691432 145.545046 
L 465.092302 149.953605 
L 465.493171 166.291148 
L 466.695778 163.717718 
L 467.096647 147.213942 
L 467.497517 149.914983 
L 467.898386 139.73564 
L 469.501863 126.363218 
L 469.902732 148.30194 
L 470.303601 146.487484 
L 470.70447 139.919294 
L 471.105339 139.011733 
L 472.307947 113.882429 
L 472.708816 123.928594 
L 473.109685 158.840613 
L 473.510554 134.656463 
L 473.911424 138.154391 
L 475.114031 135.692153 
L 475.5149 146.758386 
L 475.915769 148.656663 
L 476.717508 177.538908 
L 478.320984 179.982365 
L 479.523592 187.703266 
L 480.7262 198.543245 
L 481.127069 199.238782 
L 481.527938 185.062324 
L 481.928807 198.498298 
L 482.329676 179.304175 
L 483.532284 159.140122 
L 483.933153 162.30303 
L 484.334022 157.338277 
L 484.734891 156.447231 
L 485.135761 156.401812 
L 486.338368 143.818087 
L 486.739237 131.990668 
L 487.140106 108.127075 
L 487.540976 109.356488 
L 487.941845 127.796761 
L 489.144452 115.912635 
L 489.946191 96.599477 
L 490.747929 138.858348 
L 492.351406 141.873378 
L 492.752275 153.421934 
L 493.153144 133.87231 
L 493.554013 133.590612 
L 494.756621 134.946384 
L 495.558359 151.222959 
L 495.959228 148.850268 
L 496.360098 141.029674 
L 497.562705 154.839933 
L 497.963574 178.078904 
L 498.364443 160.594252 
L 498.765313 149.598168 
L 499.166182 147.16366 
L 500.368789 151.193857 
L 500.769659 127.317852 
L 501.170528 126.008105 
L 501.571397 127.127479 
L 501.972266 116.566783 
L 503.174874 106.214832 
L 503.575743 113.061314 
L 503.976612 116.79262 
L 504.377481 95.28648 
L 504.77835 83.306746 
L 505.980958 81.917013 
L 506.381827 86.197259 
L 506.782696 93.167419 
L 507.183565 91.471486 
L 507.584435 89.252146 
L 508.787042 94.157826 
L 509.187911 119.791792 
L 510.390519 162.651624 
L 511.593126 167.978536 
L 511.993996 165.523635 
L 512.394865 188.291122 
L 512.795734 190.204268 
L 514.399211 190.23278 
L 514.80008 190.546117 
L 515.200949 189.591339 
L 515.601818 192.820655 
L 516.002687 193.131303 
L 517.205295 196.760337 
L 517.606164 195.776557 
L 518.007033 191.657156 
L 518.407902 171.613173 
L 518.808772 172.385843 
L 520.011379 153.657723 
L 520.412248 149.901386 
L 520.813118 149.545527 
L 521.213987 153.482496 
L 521.614856 160.417922 
L 522.817463 174.679407 
L 523.218333 163.89808 
L 523.619202 161.998394 
L 524.020071 160.73034 
L 524.42094 149.372223 
L 525.623548 144.830133 
L 526.024417 134.265078 
L 526.425286 154.831685 
L 526.826155 144.646775 
L 527.227024 158.061106 
L 528.429632 156.544833 
L 528.830501 169.680177 
L 529.23137 150.138148 
L 529.632239 139.729932 
L 530.033109 114.654265 
L 531.636585 121.608339 
L 532.037455 114.343953 
L 532.438324 98.836736 
L 532.839193 121.750519 
L 534.0418 115.748856 
L 534.44267 123.446086 
L 534.843539 109.203845 
L 535.645277 129.052203 
L 536.847885 145.42698 
L 537.248754 135.894115 
L 537.649623 137.405407 
L 538.050492 157.526603 
L 538.451361 167.857165 
L 540.054838 156.273762 
L 540.455707 154.993685 
L 540.856576 177.149269 
L 541.257446 153.480193 
L 542.460053 157.130342 
L 542.860922 167.036328 
L 543.261792 168.285215 
L 543.662661 166.642708 
L 544.06353 163.053915 
L 545.667007 142.019619 
L 546.067876 142.375791 
L 546.468745 141.804006 
L 546.869614 128.58939 
L 548.072222 143.409034 
L 548.473091 157.153254 
L 548.87396 152.774939 
L 549.274829 146.754169 
L 549.675698 157.52193 
L 550.878306 146.336394 
L 551.279175 114.102719 
L 551.680044 93.986909 
L 552.080914 82.166919 
L 552.481783 84.61234 
L 553.68439 96.28592 
L 554.085259 109.141279 
L 554.486129 102.969035 
L 554.886998 100.558507 
L 555.287867 84.057858 
L 556.490475 80.22469 
L 556.891344 80.202604 
L 557.292213 79.059837 
L 557.693082 79.54169 
L 558.093951 87.408018 
L 559.296559 120.496633 
L 559.697428 143.304866 
L 560.900035 109.277032 
L 562.102643 97.28749 
L 562.904381 126.885491 
L 563.305251 123.189029 
L 563.70612 140.553066 
L 565.710466 158.986985 
L 566.111335 145.914075 
L 566.512204 150.599806 
L 567.714812 148.122449 
L 568.115681 167.487708 
L 568.51655 169.323776 
L 568.917419 191.267067 
L 569.318288 199.101411 
L 570.921765 199.218963 
L 571.322634 191.519444 
L 571.723503 194.897001 
L 572.124373 180.992051 
L 573.32698 171.762538 
L 573.727849 185.290669 
L 574.128718 186.13441 
L 574.529588 202.378855 
L 574.930457 185.833206 
L 576.133064 176.743083 
L 576.533933 175.422018 
L 577.335672 162.445481 
L 577.736541 158.491292 
L 578.939149 160.257647 
L 579.340018 162.255168 
L 579.740887 160.867911 
L 580.141756 180.287055 
L 580.542625 185.117811 
L 581.745233 150.190708 
L 582.146102 131.464736 
L 582.546971 125.370807 
L 582.94784 134.202595 
L 583.34871 160.409868 
L 584.551317 163.361605 
L 584.952186 166.842373 
L 585.353055 157.395528 
L 585.753925 144.328756 
L 586.154794 151.988981 
L 587.357401 141.797133 
L 587.758271 146.79328 
L 588.15914 135.848983 
L 588.560009 131.301455 
L 588.960878 133.351737 
L 590.163486 145.477851 
L 590.564355 131.361124 
L 590.965224 136.857828 
L 591.766962 86.679581 
L 592.96957 94.088435 
L 593.370439 91.108054 
L 593.771308 106.232075 
L 594.172177 81.088336 
L 594.573047 80.266132 
L 595.775654 79.556232 
L 596.176523 77.36571 
L 596.577392 102.683822 
L 596.978262 85.733712 
L 597.379131 82.588739 
L 598.581738 88.107717 
L 598.982608 77.409805 
L 599.383477 95.129608 
L 599.784346 105.72123 
L 600.185215 104.440807 
L 601.387823 106.633893 
L 601.788692 93.699648 
L 602.189561 91.448579 
L 602.991299 102.524828 
L 604.193907 111.714205 
L 604.594776 118.124901 
L 604.995645 91.61948 
L 605.797384 122.582791 
L 606.999991 126.966561 
L 607.40086 143.432623 
L 607.801729 128.510162 
L 608.202599 108.715873 
L 608.603468 106.72409 
L 609.806075 99.040192 
L 610.206945 100.925574 
L 610.607814 114.267517 
L 611.008683 122.414957 
L 611.409552 121.413953 
L 612.61216 123.480968 
L 613.013029 146.836489 
L 613.413898 142.95111 
L 613.814767 154.610957 
L 614.215636 153.089751 
L 615.819113 158.132656 
L 616.219982 161.330791 
L 616.620851 170.592331 
L 617.021721 168.784334 
L 618.625197 183.314696 
L 619.026067 185.81887 
L 619.426936 186.448982 
L 619.827805 166.278952 
L 621.030412 146.76074 
L 621.431282 137.687729 
L 621.832151 133.708535 
L 622.23302 132.254798 
L 622.633889 105.377835 
L 624.237366 93.686007 
L 624.638235 75.091722 
L 625.039104 88.472406 
L 625.439973 84.266521 
L 626.642581 75.695736 
L 627.04345 69.314866 
L 627.444319 71.151433 
L 627.845188 58.204759 
L 628.246058 58.310245 
L 629.448665 87.490008 
L 629.849534 86.843366 
L 630.250404 79.184404 
L 630.651273 77.939435 
L 631.052142 89.389655 
L 632.254749 94.641022 
L 633.056488 72.94424 
L 633.457357 77.553999 
L 633.858226 106.232924 
L 635.060834 102.264772 
L 635.461703 94.019334 
L 635.862572 100.313189 
L 636.263441 115.0469 
L 636.66431 107.216088 
L 638.267787 120.251111 
L 638.668656 134.805621 
L 639.069525 112.934535 
L 639.470395 110.117297 
L 640.673002 108.317381 
L 641.073871 121.080249 
L 641.474741 127.323524 
L 641.87561 122.814519 
L 642.276479 105.304221 
L 643.479086 113.811847 
L 643.879956 128.662156 
L 644.280825 117.061499 
L 644.681694 116.850742 
L 645.082563 115.034145 
L 646.285171 104.725655 
L 646.68604 97.039962 
L 647.086909 123.804503 
L 647.487778 102.46412 
L 647.888647 102.752015 
L 649.091255 96.094804 
L 649.492124 83.605626 
L 649.892993 86.187976 
L 650.293863 85.061389 
L 650.694732 86.653029 
L 651.897339 86.362472 
L 652.298208 96.83347 
L 652.699078 74.182851 
L 653.099947 59.032726 
L 653.500816 57.432968 
L 654.703424 61.482574 
L 655.104293 77.288495 
L 655.505162 106.158009 
L 655.906031 106.563819 
L 657.509508 101.57861 
L 658.311246 131.954821 
L 658.712115 146.221386 
L 659.112984 132.814967 
L 660.315592 123.25863 
L 660.716461 110.338954 
L 661.11733 114.81749 
L 661.5182 137.205496 
L 661.919069 144.518287 
L 663.121676 149.752548 
L 663.522545 154.002558 
L 663.923415 131.104549 
L 664.324284 129.188278 
L 664.725153 129.502389 
L 665.927761 106.061189 
L 666.32863 106.557098 
L 667.130368 120.851593 
L 667.531237 110.997668 
L 668.733845 112.988986 
L 669.134714 124.367674 
L 669.535583 108.481671 
L 669.936452 113.552174 
L 670.337322 115.977011 
L 671.539929 97.23555 
L 671.940798 101.287438 
L 672.742537 88.439584 
L 673.143406 103.643798 
L 674.346013 93.214673 
L 674.746882 94.673436 
L 675.147752 93.030076 
L 675.548621 65.621857 
L 675.94949 64.497752 
L 677.552967 55.53863 
L 677.953836 79.732478 
L 678.354705 72.330034 
L 678.755574 74.076751 
L 679.958182 76.800926 
L 680.359051 81.742831 
L 680.75992 93.66755 
L 681.160789 95.210472 
L 681.561659 91.195166 
L 682.764266 88.324756 
L 683.165135 80.483922 
L 683.566004 75.099737 
L 683.966874 100.37365 
L 684.367743 104.968288 
L 685.97122 105.228073 
L 686.372089 89.285135 
L 686.772958 100.343157 
L 688.376435 120.168809 
L 688.777304 107.011483 
L 689.178173 102.758945 
L 689.579042 112.370742 
L 689.979911 104.742884 
L 691.182519 108.307974 
L 691.984257 120.313833 
L 692.385126 142.413025 
L 692.785996 134.07574 
L 693.988603 137.926249 
L 694.389472 149.149216 
L 694.790341 123.009784 
L 695.191211 106.023038 
L 695.59208 102.439679 
L 696.794687 75.756423 
L 697.195557 76.655942 
L 697.596426 71.169431 
L 697.997295 89.710767 
L 698.398164 113.706954 
L 699.600772 112.28045 
L 700.001641 104.163271 
L 700.40251 104.303438 
L 700.803379 104.015719 
L 701.204248 95.833958 
L 702.406856 97.224384 
L 702.807725 108.73902 
L 703.208594 147.697905 
L 703.609463 141.154473 
L 704.010333 150.086874 
L 705.21294 153.65366 
L 705.613809 156.265034 
L 706.014678 160.202468 
L 706.415548 152.378756 
L 706.816417 167.011147 
L 708.019024 147.571884 
L 708.419894 144.350052 
L 708.820763 151.465523 
L 709.221632 160.900725 
L 709.622501 161.043597 
L 710.825109 129.429628 
L 711.626847 115.853559 
L 712.027716 116.484173 
L 712.428585 128.652208 
L 713.631193 118.89679 
L 714.032062 93.241575 
L 714.432931 90.022801 
L 714.8338 74.862016 
L 715.23467 94.972856 
L 716.838146 95.707254 
L 717.239016 106.076704 
L 718.040754 117.130371 
L 719.243361 147.788927 
L 719.644231 139.894645 
L 720.0451 149.062784 
L 720.445969 148.48001 
L 720.846838 152.817849 
L 722.049446 162.245338 
L 722.450315 197.432211 
L 722.851184 211.332308 
L 723.252053 215.46 
L 723.652922 202.909472 
L 724.85553 193.449589 
L 725.256399 188.52774 
L 726.058137 160.420895 
L 726.459007 151.315714 
L 727.661614 133.299731 
L 728.062483 151.122089 
L 728.463353 146.475444 
L 728.864222 124.452461 
L 729.265091 115.961471 
L 730.467698 116.418602 
L 731.269437 74.443585 
L 731.670306 76.427151 
L 732.071175 101.287497 
L 733.273783 93.426072 
L 733.674652 120.499131 
L 734.075521 139.03545 
L 734.47639 143.033816 
L 734.877259 159.388268 
L 736.079867 136.606251 
L 736.480736 135.298807 
L 737.282475 169.385889 
L 737.683344 165.591781 
L 738.885951 164.34219 
L 739.28682 175.79459 
L 739.68769 162.594386 
L 740.088559 145.441162 
L 741.692035 119.860526 
L 742.092905 103.270488 
L 742.493774 99.09834 
L 742.894643 89.904252 
L 743.295512 90.805562 
L 744.49812 92.68232 
L 744.898989 64.645018 
L 745.299858 54.106423 
L 745.700727 53.327507 
L 746.101596 57.572785 
L 747.304204 49.45835 
L 747.705073 59.989768 
L 748.105942 83.108764 
L 748.907681 104.712287 
L 750.110288 106.788909 
L 750.511157 113.638445 
L 750.912027 116.162353 
L 751.713765 149.378098 
L 752.916373 162.814473 
L 753.317242 162.507397 
L 753.718111 164.456932 
L 754.11898 158.460846 
L 754.519849 147.575307 
L 755.722457 165.106901 
L 756.925064 126.971427 
L 757.325933 126.317921 
L 758.528541 112.723071 
L 758.92941 119.790904 
L 759.330279 120.970716 
L 759.731149 114.773881 
L 760.132018 103.600403 
L 761.735494 107.571477 
L 762.136364 93.237234 
L 762.938102 107.46072 
L 764.541579 114.404068 
L 764.942448 133.490494 
L 765.343317 133.51538 
L 765.744186 124.076199 
L 766.946794 103.416814 
L 767.347663 105.296963 
L 767.748532 92.989772 
L 768.149401 71.466261 
L 768.550271 76.548041 
L 770.153747 68.20284 
L 770.554616 74.219399 
L 770.955486 71.2002 
L 771.356355 65.314789 
L 772.558962 64.96274 
L 772.959831 48.076621 
L 773.360701 39.06 
L 773.76157 39.131626 
L 774.162439 47.674509 
L 775.765916 50.544337 
L 776.166785 71.614703 
L 776.567654 68.509344 
L 776.968523 60.315677 
L 778.171131 57.951606 
L 778.572 65.459205 
L 778.972869 64.049657 
L 779.373738 72.934698 
L 779.774608 68.121336 
L 780.977215 68.311347 
L 781.378084 72.357837 
L 781.778953 69.275081 
L 782.179823 74.609183 
L 782.580692 78.192037 
L 784.585038 105.781161 
L 784.985907 83.873995 
L 785.386776 88.89133 
L 786.589384 95.111157 
L 786.990253 91.229944 
L 787.391122 101.662169 
L 787.791991 95.411262 
L 788.19286 93.799586 
L 790.197206 84.229658 
L 790.598075 72.613865 
L 790.998945 93.762321 
L 792.201552 88.507092 
L 792.602421 73.327586 
L 793.00329 92.894938 
L 793.40416 105.511763 
L 793.805029 106.507933 
L 795.007636 103.715078 
L 795.408506 97.792817 
L 795.809375 98.718239 
L 796.210244 103.157527 
L 796.611113 103.392293 
L 797.813721 103.433168 
L 798.615459 140.684085 
L 799.016328 120.700682 
L 800.619805 111.919039 
L 801.020674 146.770655 
L 801.421543 144.002397 
L 801.822412 144.61032 
L 802.223282 131.493917 
L 803.425889 139.373486 
L 803.826758 152.811693 
L 804.227627 148.638005 
L 804.628497 135.957989 
L 805.029366 159.364455 
L 806.231973 169.722088 
L 806.632843 154.696197 
L 807.033712 158.127302 
L 807.434581 155.42569 
L 807.83545 175.041286 
L 809.038058 160.277771 
L 809.438927 149.585643 
L 809.839796 148.900121 
L 810.240665 146.327653 
L 810.641534 131.0034 
L 811.844142 126.561803 
L 812.245011 133.969612 
L 812.64588 151.084315 
L 813.447619 125.721384 
L 814.650226 121.582506 
L 815.051095 116.827748 
L 815.451965 118.521996 
L 815.852834 96.031632 
L 816.253703 100.323834 
L 817.45631 105.723145 
L 817.85718 90.828797 
L 818.258049 90.176053 
L 818.658918 104.273963 
L 819.059787 113.828373 
L 820.262395 100.63434 
L 820.663264 80.085344 
L 821.064133 89.404586 
L 821.465002 77.133331 
L 821.865871 78.274218 
L 823.469348 60.251031 
L 823.870217 58.748955 
L 824.271086 71.681857 
L 824.671956 76.847143 
L 825.874563 71.567045 
L 826.275432 71.112601 
L 826.676302 68.720013 
L 827.077171 73.005611 
L 827.47804 66.437003 
L 828.680647 67.564678 
L 829.081517 71.497056 
L 829.482386 66.338939 
L 829.883255 69.934004 
L 830.284124 70.296359 
L 831.486732 82.659596 
L 831.887601 77.837882 
L 832.689339 79.749451 
L 834.292816 125.476988 
L 834.693685 113.681133 
L 835.094554 123.751877 
L 835.495424 125.998804 
L 835.896293 126.765871 
L 837.0989 127.050427 
L 837.499769 128.725939 
L 837.900639 126.139079 
L 838.702377 140.422276 
L 839.904984 140.19369 
L 840.305854 131.600296 
L 840.706723 133.789383 
L 841.107592 139.007699 
L 841.508461 126.938707 
L 842.711069 107.280299 
L 843.512807 151.836404 
L 843.913676 139.001238 
L 844.314545 144.417893 
L 845.517153 133.880491 
L 845.918022 132.564571 
L 846.318891 158.555126 
L 846.719761 157.890077 
L 847.12063 161.764151 
L 848.323237 172.105985 
L 848.724106 189.923981 
L 849.124976 149.698732 
L 849.525845 162.736951 
L 849.926714 163.915511 
L 851.129322 168.412664 
L 851.530191 152.805197 
L 851.93106 164.268028 
L 852.331929 150.274494 
L 852.732798 160.406831 
L 853.935406 151.668906 
L 854.336275 129.677108 
L 855.138013 119.023135 
L 855.538882 114.72723 
L 856.74149 95.415369 
L 857.142359 115.4711 
L 857.543228 96.550841 
L 857.944098 103.327514 
L 858.344967 80.241881 
L 859.547574 91.687065 
L 859.948443 74.801077 
L 860.349313 89.069299 
L 860.750182 109.263603 
L 861.151051 112.86881 
L 863.957135 171.265707 
L 865.159743 175.836489 
L 865.560612 168.503678 
L 865.961481 151.512481 
L 866.36235 140.303524 
L 866.76322 151.950271 
L 867.965827 151.037572 
L 868.366696 157.187781 
L 868.767565 156.493399 
L 869.168435 131.79327 
L 869.569304 139.507473 
L 870.771911 109.523187 
L 871.17278 94.769922 
L 871.57365 92.262794 
L 871.974519 74.669122 
L 872.375388 90.611957 
L 873.577996 93.308876 
L 873.978865 132.071184 
L 874.379734 133.395495 
L 875.181472 107.804942 
L 876.38408 97.457853 
L 876.784949 80.599263 
L 877.185818 88.140295 
L 877.586687 76.558563 
L 877.987557 76.945625 
L 879.190164 78.790105 
L 879.591033 109.894897 
L 879.991902 102.875408 
L 880.392772 91.657441 
L 880.793641 90.105908 
L 881.996248 66.336541 
L 882.397118 68.453913 
L 882.797987 89.245396 
L 883.198856 91.085528 
L 883.599725 93.809152 
L 884.802333 108.281728 
L 885.203202 105.632324 
L 885.604071 118.1924 
L 886.00494 137.708478 
L 886.405809 139.461884 
L 887.608417 118.496194 
L 888.009286 119.200886 
L 888.410155 108.461061 
L 888.811024 104.120303 
L 889.211894 120.868598 
L 890.414501 127.79903 
L 890.81537 107.627996 
L 891.216239 116.312421 
L 891.617109 117.811933 
L 892.017978 128.715968 
L 893.220585 135.112958 
L 894.022324 99.700466 
L 894.423193 102.959951 
L 894.824062 118.482381 
L 896.02667 141.158058 
L 896.828408 168.115034 
L 897.630146 156.099882 
L 898.832754 150.046535 
L 899.233623 154.60361 
L 899.634492 135.300603 
L 900.035361 136.78174 
L 900.436231 131.118807 
L 901.638838 135.883661 
L 902.039707 166.368137 
L 902.440576 149.574816 
L 902.841446 156.02115 
L 903.242315 152.737218 
L 904.444922 144.161118 
L 904.845792 151.124618 
L 905.246661 150.891225 
L 905.64753 154.916248 
L 906.048399 142.930939 
L 907.251007 133.836256 
L 907.651876 145.949346 
L 908.453614 146.470212 
L 908.854483 147.170331 
L 910.057091 136.334833 
L 910.45796 134.766345 
L 911.259698 135.452051 
L 911.660568 113.170022 
L 912.863175 93.430556 
L 913.264044 114.725053 
L 913.664914 110.537057 
L 914.466652 117.571343 
L 915.669259 127.10578 
L 916.070129 138.864543 
L 916.470998 140.023201 
L 916.871867 146.504649 
L 917.272736 136.756179 
L 918.876213 124.953793 
L 919.677951 108.453599 
L 921.281428 168.226305 
L 921.682297 158.486909 
L 922.083166 154.51959 
L 922.484035 152.945578 
L 922.884905 153.343992 
L 924.087512 154.098125 
L 924.488381 149.452034 
L 924.889251 146.918908 
L 925.29012 138.534079 
L 925.690989 142.652831 
L 926.893596 141.783712 
L 927.294466 152.248487 
L 927.695335 154.302263 
L 928.096204 142.450041 
L 928.497073 93.27458 
L 930.10055 107.69108 
L 930.501419 90.392007 
L 930.902288 90.501473 
L 931.303157 94.617685 
L 932.505765 97.254326 
L 932.906634 112.662865 
L 933.307503 115.816055 
L 933.708373 150.868233 
L 934.109242 142.278861 
L 935.311849 166.623686 
L 936.113588 156.337462 
L 936.514457 173.312201 
L 936.915326 176.759104 
L 938.117933 182.922698 
L 938.518803 178.714618 
L 938.919672 166.262253 
L 939.320541 160.782345 
L 939.72141 144.98828 
L 940.924018 143.015244 
L 941.324887 156.307021 
L 941.725756 136.988632 
L 942.126625 144.356213 
L 942.527494 123.973606 
L 943.730102 120.359716 
L 944.130971 124.762175 
L 944.53184 125.245709 
L 944.93271 135.19081 
L 945.333579 125.809482 
L 946.536186 133.322657 
L 946.937055 148.301491 
L 947.337925 147.032813 
L 947.738794 184.933921 
L 948.139663 190.766327 
L 949.342271 174.325389 
L 949.74314 183.313153 
L 950.144009 139.547604 
L 950.544878 148.041875 
L 950.945747 148.670527 
L 952.148355 148.016567 
L 952.549224 135.075942 
L 952.950093 143.272137 
L 953.350962 144.967876 
L 954.954439 149.167188 
L 955.355308 148.809666 
L 955.756177 143.082607 
L 956.557916 106.459536 
L 957.760523 114.888379 
L 958.161392 111.972174 
L 958.562262 144.649446 
L 958.963131 122.331096 
L 959.364 123.39698 
L 960.566608 124.648688 
L 960.967477 128.959623 
L 961.368346 96.126962 
L 961.769215 82.686449 
L 962.170084 62.037386 
L 963.372692 58.112572 
L 963.773561 55.910604 
L 964.17443 54.869141 
L 964.575299 60.631908 
L 964.976169 47.64665 
L 966.178776 47.702754 
L 966.579645 53.928238 
L 966.980514 69.959541 
L 967.381384 72.2265 
L 967.782253 76.635655 
L 969.385729 70.164555 
L 969.786599 77.67693 
L 970.187468 72.675127 
L 970.588337 86.083076 
L 971.790945 92.199861 
L 972.191814 97.831905 
L 972.592683 108.832274 
L 972.993552 114.820778 
L 973.394421 111.691861 
L 974.597029 109.818006 
L 975.398767 95.514937 
L 975.799636 93.20866 
L 976.200506 99.589277 
L 977.403113 102.799507 
L 977.803982 102.296476 
L 978.204851 109.835763 
L 979.00659 98.124952 
L 980.209197 103.497833 
L 980.610067 103.830118 
L 981.411805 78.560684 
L 981.812674 76.978372 
L 983.015282 78.025824 
L 983.416151 102.862104 
L 983.81702 90.605153 
L 984.217889 90.739771 
L 985.821366 82.302535 
L 986.222235 83.812398 
L 986.623104 76.955574 
L 987.023973 77.139108 
L 987.424843 68.315486 
L 988.62745 72.841329 
L 989.028319 69.646308 
L 989.429188 76.562228 
L 989.830058 75.28284 
L 990.230927 82.407979 
L 991.433534 87.945657 
L 991.834404 86.292489 
L 992.235273 86.65477 
L 992.636142 85.113724 
L 993.037011 80.822275 
L 994.239619 78.518415 
L 994.640488 89.4937 
L 995.041357 84.984295 
L 995.442226 92.650108 
L 995.843095 105.523713 
L 997.045703 106.241867 
L 997.446572 113.592717 
L 997.847441 114.646643 
L 998.24831 109.75914 
L 998.64918 102.47499 
L 999.851787 88.309133 
L 1000.252656 92.999133 
L 1000.653525 106.254 
L 1001.054395 104.201528 
L 1001.455264 119.431764 
L 1002.657871 109.86702 
L 1003.058741 143.944037 
L 1003.45961 140.560022 
L 1003.860479 127.660139 
L 1004.261348 141.052954 
L 1005.463956 125.763443 
L 1005.864825 122.670481 
L 1006.265694 128.790352 
L 1007.067432 160.721963 
L 1008.670909 173.474174 
L 1008.670909 173.474174 
" clip-path="url(#pafc7559d77)" style="fill: none; stroke: #1f77b4; stroke-width: 1.5; stroke-linecap: square"/>
   </g>
   <g id="patch_3">
    <path d="M 145.8 224.28 
L 145.8 30.24 
" style="fill: none; stroke: #000000; stroke-width: 0.8; stroke-linejoin: miter; stroke-linecap: square"/>
   </g>
   <g id="patch_4">
    <path d="M 145.8 224.28 
L 1049.76 224.28 
" style="fill: none; stroke: #000000; stroke-width: 0.8; stroke-linejoin: miter; stroke-linecap: square"/>
   </g>
  </g>
 </g>
 <defs>
  <clipPath id="pafc7559d77">
   <rect x="145.8" y="30.24" width="903.96" height="194.04"/>
  </clipPath>
 </defs>
</svg>
