<?xml version="1.0" encoding="utf-8" standalone="no"?>
<!DOCTYPE svg PUBLIC "-//W3C//DTD SVG 1.1//EN"
  "http://www.w3.org/Graphics/SVG/1.1/DTD/svg11.dtd">
<svg xmlns:xlink="http://www.w3.org/1999/xlink" width="756pt" height="252pt" viewBox="0 0 756 252" xmlns="http://www.w3.org/2000/svg" version="1.1">
 <metadata>
  <rdf:RDF xmlns:dc="http://purl.org/dc/elements/1.1/" xmlns:cc="http://creativecommons.org/ns#" xmlns:rdf="http://www.w3.org/1999/02/22-rdf-syntax-ns#">
   <cc:Work>
    <dc:type rdf:resource="http://purl.org/dc/dcmitype/StillImage"/>
    <dc:date>2025-09-08T17:07:07.266881</dc:date>
    <dc:format>image/svg+xml</dc:format>
    <dc:creator>
     <cc:Agent>
      <dc:title>Matplotlib v3.10.5, https://matplotlib.org/</dc:title>
     </cc:Agent>
    </dc:creator>
   </cc:Work>
  </rdf:RDF>
 </metadata>
 <defs>
  <style type="text/css">*{stroke-linejoin: round; stroke-linecap: butt}</style>
 </defs>
 <g id="figure_1">
  <g id="patch_1">
   <path d="M 0 252 
L 756 252 
L 756 0 
L 0 0 
z
" style="fill: #ffffff"/>
  </g>
  <g id="axes_1">
   <g id="patch_2">
    <path d="M 94.5 224.28 
L 680.4 224.28 
L 680.4 30.24 
L 94.5 30.24 
z
" style="fill: #ffffff"/>
   </g>
   <g id="matplotlib.axis_1">
    <g id="xtick_1">
     <g id="line2d_1">
      <defs>
       <path id="m4e9ec0d173" d="M 0 0 
L 0 3.5 
" style="stroke: #000000; stroke-width: 0.8"/>
      </defs>
      <g>
       <use xlink:href="#m4e9ec0d173" x="115.683516" y="224.28" style="stroke: #000000; stroke-width: 0.8"/>
      </g>
     </g>
     <g id="text_1">
      <!-- 2020 -->
      <g transform="translate(102.958516 238.878438) scale(0.1 -0.1)">
       <defs>
        <path id="DejaVuSans-32" d="M 1228 531 
L 3431 531 
L 3431 0 
L 469 0 
L 469 531 
Q 828 903 1448 1529 
Q 2069 2156 2228 2338 
Q 2531 2678 2651 2914 
Q 2772 3150 2772 3378 
Q 2772 3750 2511 3984 
Q 2250 4219 1831 4219 
Q 1534 4219 1204 4116 
Q 875 4013 500 3803 
L 500 4441 
Q 881 4594 1212 4672 
Q 1544 4750 1819 4750 
Q 2544 4750 2975 4387 
Q 3406 4025 3406 3419 
Q 3406 3131 3298 2873 
Q 3191 2616 2906 2266 
Q 2828 2175 2409 1742 
Q 1991 1309 1228 531 
z
" transform="scale(0.015625)"/>
        <path id="DejaVuSans-30" d="M 2034 4250 
Q 1547 4250 1301 3770 
Q 1056 3291 1056 2328 
Q 1056 1369 1301 889 
Q 1547 409 2034 409 
Q 2525 409 2770 889 
Q 3016 1369 3016 2328 
Q 3016 3291 2770 3770 
Q 2525 4250 2034 4250 
z
M 2034 4750 
Q 2819 4750 3233 4129 
Q 3647 3509 3647 2328 
Q 3647 1150 3233 529 
Q 2819 -91 2034 -91 
Q 1250 -91 836 529 
Q 422 1150 422 2328 
Q 422 3509 836 4129 
Q 1250 4750 2034 4750 
z
" transform="scale(0.015625)"/>
       </defs>
       <use xlink:href="#DejaVuSans-32"/>
       <use xlink:href="#DejaVuSans-30" transform="translate(63.623047 0)"/>
       <use xlink:href="#DejaVuSans-32" transform="translate(127.246094 0)"/>
       <use xlink:href="#DejaVuSans-30" transform="translate(190.869141 0)"/>
      </g>
     </g>
    </g>
    <g id="xtick_2">
     <g id="line2d_2">
      <g>
       <use xlink:href="#m4e9ec0d173" x="210.639634" y="224.28" style="stroke: #000000; stroke-width: 0.8"/>
      </g>
     </g>
     <g id="text_2">
      <!-- 2021 -->
      <g transform="translate(197.914634 238.878438) scale(0.1 -0.1)">
       <defs>
        <path id="DejaVuSans-31" d="M 794 531 
L 1825 531 
L 1825 4091 
L 703 3866 
L 703 4441 
L 1819 4666 
L 2450 4666 
L 2450 531 
L 3481 531 
L 3481 0 
L 794 0 
L 794 531 
z
" transform="scale(0.015625)"/>
       </defs>
       <use xlink:href="#DejaVuSans-32"/>
       <use xlink:href="#DejaVuSans-30" transform="translate(63.623047 0)"/>
       <use xlink:href="#DejaVuSans-32" transform="translate(127.246094 0)"/>
       <use xlink:href="#DejaVuSans-31" transform="translate(190.869141 0)"/>
      </g>
     </g>
    </g>
    <g id="xtick_3">
     <g id="line2d_3">
      <g>
       <use xlink:href="#m4e9ec0d173" x="305.336308" y="224.28" style="stroke: #000000; stroke-width: 0.8"/>
      </g>
     </g>
     <g id="text_3">
      <!-- 2022 -->
      <g transform="translate(292.611308 238.878438) scale(0.1 -0.1)">
       <use xlink:href="#DejaVuSans-32"/>
       <use xlink:href="#DejaVuSans-30" transform="translate(63.623047 0)"/>
       <use xlink:href="#DejaVuSans-32" transform="translate(127.246094 0)"/>
       <use xlink:href="#DejaVuSans-32" transform="translate(190.869141 0)"/>
      </g>
     </g>
    </g>
    <g id="xtick_4">
     <g id="line2d_4">
      <g>
       <use xlink:href="#m4e9ec0d173" x="400.032983" y="224.28" style="stroke: #000000; stroke-width: 0.8"/>
      </g>
     </g>
     <g id="text_4">
      <!-- 2023 -->
      <g transform="translate(387.307983 238.878438) scale(0.1 -0.1)">
       <defs>
        <path id="DejaVuSans-33" d="M 2597 2516 
Q 3050 2419 3304 2112 
Q 3559 1806 3559 1356 
Q 3559 666 3084 287 
Q 2609 -91 1734 -91 
Q 1441 -91 1130 -33 
Q 819 25 488 141 
L 488 750 
Q 750 597 1062 519 
Q 1375 441 1716 441 
Q 2309 441 2620 675 
Q 2931 909 2931 1356 
Q 2931 1769 2642 2001 
Q 2353 2234 1838 2234 
L 1294 2234 
L 1294 2753 
L 1863 2753 
Q 2328 2753 2575 2939 
Q 2822 3125 2822 3475 
Q 2822 3834 2567 4026 
Q 2313 4219 1838 4219 
Q 1578 4219 1281 4162 
Q 984 4106 628 3988 
L 628 4550 
Q 988 4650 1302 4700 
Q 1616 4750 1894 4750 
Q 2613 4750 3031 4423 
Q 3450 4097 3450 3541 
Q 3450 3153 3228 2886 
Q 3006 2619 2597 2516 
z
" transform="scale(0.015625)"/>
       </defs>
       <use xlink:href="#DejaVuSans-32"/>
       <use xlink:href="#DejaVuSans-30" transform="translate(63.623047 0)"/>
       <use xlink:href="#DejaVuSans-32" transform="translate(127.246094 0)"/>
       <use xlink:href="#DejaVuSans-33" transform="translate(190.869141 0)"/>
      </g>
     </g>
    </g>
    <g id="xtick_5">
     <g id="line2d_5">
      <g>
       <use xlink:href="#m4e9ec0d173" x="494.729657" y="224.28" style="stroke: #000000; stroke-width: 0.8"/>
      </g>
     </g>
     <g id="text_5">
      <!-- 2024 -->
      <g transform="translate(482.004657 238.878438) scale(0.1 -0.1)">
       <defs>
        <path id="DejaVuSans-34" d="M 2419 4116 
L 825 1625 
L 2419 1625 
L 2419 4116 
z
M 2253 4666 
L 3047 4666 
L 3047 1625 
L 3713 1625 
L 3713 1100 
L 3047 1100 
L 3047 0 
L 2419 0 
L 2419 1100 
L 313 1100 
L 313 1709 
L 2253 4666 
z
" transform="scale(0.015625)"/>
       </defs>
       <use xlink:href="#DejaVuSans-32"/>
       <use xlink:href="#DejaVuSans-30" transform="translate(63.623047 0)"/>
       <use xlink:href="#DejaVuSans-32" transform="translate(127.246094 0)"/>
       <use xlink:href="#DejaVuSans-34" transform="translate(190.869141 0)"/>
      </g>
     </g>
    </g>
    <g id="xtick_6">
     <g id="line2d_6">
      <g>
       <use xlink:href="#m4e9ec0d173" x="589.685775" y="224.28" style="stroke: #000000; stroke-width: 0.8"/>
      </g>
     </g>
     <g id="text_6">
      <!-- 2025 -->
      <g transform="translate(576.960775 238.878438) scale(0.1 -0.1)">
       <defs>
        <path id="DejaVuSans-35" d="M 691 4666 
L 3169 4666 
L 3169 4134 
L 1269 4134 
L 1269 2991 
Q 1406 3038 1543 3061 
Q 1681 3084 1819 3084 
Q 2600 3084 3056 2656 
Q 3513 2228 3513 1497 
Q 3513 744 3044 326 
Q 2575 -91 1722 -91 
Q 1428 -91 1123 -41 
Q 819 9 494 109 
L 494 744 
Q 775 591 1075 516 
Q 1375 441 1709 441 
Q 2250 441 2565 725 
Q 2881 1009 2881 1497 
Q 2881 1984 2565 2268 
Q 2250 2553 1709 2553 
Q 1456 2553 1204 2497 
Q 953 2441 691 2322 
L 691 4666 
z
" transform="scale(0.015625)"/>
       </defs>
       <use xlink:href="#DejaVuSans-32"/>
       <use xlink:href="#DejaVuSans-30" transform="translate(63.623047 0)"/>
       <use xlink:href="#DejaVuSans-32" transform="translate(127.246094 0)"/>
       <use xlink:href="#DejaVuSans-35" transform="translate(190.869141 0)"/>
      </g>
     </g>
    </g>
   </g>
   <g id="matplotlib.axis_2">
    <g id="ytick_1">
     <g id="line2d_7">
      <defs>
       <path id="m6d1b7fbb62" d="M 0 0 
L -3.5 0 
" style="stroke: #000000; stroke-width: 0.8"/>
      </defs>
      <g>
       <use xlink:href="#m6d1b7fbb62" x="94.5" y="220.300369" style="stroke: #000000; stroke-width: 0.8"/>
      </g>
     </g>
     <g id="text_7">
      <!-- 0 -->
      <g transform="translate(81.1375 224.099588) scale(0.1 -0.1)">
       <use xlink:href="#DejaVuSans-30"/>
      </g>
     </g>
    </g>
    <g id="ytick_2">
     <g id="line2d_8">
      <g>
       <use xlink:href="#m6d1b7fbb62" x="94.5" y="195.562385" style="stroke: #000000; stroke-width: 0.8"/>
      </g>
     </g>
     <g id="text_8">
      <!-- 25 -->
      <g transform="translate(74.775 199.361604) scale(0.1 -0.1)">
       <use xlink:href="#DejaVuSans-32"/>
       <use xlink:href="#DejaVuSans-35" transform="translate(63.623047 0)"/>
      </g>
     </g>
    </g>
    <g id="ytick_3">
     <g id="line2d_9">
      <g>
       <use xlink:href="#m6d1b7fbb62" x="94.5" y="170.824401" style="stroke: #000000; stroke-width: 0.8"/>
      </g>
     </g>
     <g id="text_9">
      <!-- 50 -->
      <g transform="translate(74.775 174.62362) scale(0.1 -0.1)">
       <use xlink:href="#DejaVuSans-35"/>
       <use xlink:href="#DejaVuSans-30" transform="translate(63.623047 0)"/>
      </g>
     </g>
    </g>
    <g id="ytick_4">
     <g id="line2d_10">
      <g>
       <use xlink:href="#m6d1b7fbb62" x="94.5" y="146.086417" style="stroke: #000000; stroke-width: 0.8"/>
      </g>
     </g>
     <g id="text_10">
      <!-- 75 -->
      <g transform="translate(74.775 149.885636) scale(0.1 -0.1)">
       <defs>
        <path id="DejaVuSans-37" d="M 525 4666 
L 3525 4666 
L 3525 4397 
L 1831 0 
L 1172 0 
L 2766 4134 
L 525 4134 
L 525 4666 
z
" transform="scale(0.015625)"/>
       </defs>
       <use xlink:href="#DejaVuSans-37"/>
       <use xlink:href="#DejaVuSans-35" transform="translate(63.623047 0)"/>
      </g>
     </g>
    </g>
    <g id="ytick_5">
     <g id="line2d_11">
      <g>
       <use xlink:href="#m6d1b7fbb62" x="94.5" y="121.348433" style="stroke: #000000; stroke-width: 0.8"/>
      </g>
     </g>
     <g id="text_11">
      <!-- 100 -->
      <g transform="translate(68.4125 125.147652) scale(0.1 -0.1)">
       <use xlink:href="#DejaVuSans-31"/>
       <use xlink:href="#DejaVuSans-30" transform="translate(63.623047 0)"/>
       <use xlink:href="#DejaVuSans-30" transform="translate(127.246094 0)"/>
      </g>
     </g>
    </g>
    <g id="ytick_6">
     <g id="line2d_12">
      <g>
       <use xlink:href="#m6d1b7fbb62" x="94.5" y="96.610449" style="stroke: #000000; stroke-width: 0.8"/>
      </g>
     </g>
     <g id="text_12">
      <!-- 125 -->
      <g transform="translate(68.4125 100.409668) scale(0.1 -0.1)">
       <use xlink:href="#DejaVuSans-31"/>
       <use xlink:href="#DejaVuSans-32" transform="translate(63.623047 0)"/>
       <use xlink:href="#DejaVuSans-35" transform="translate(127.246094 0)"/>
      </g>
     </g>
    </g>
    <g id="ytick_7">
     <g id="line2d_13">
      <g>
       <use xlink:href="#m6d1b7fbb62" x="94.5" y="71.872465" style="stroke: #000000; stroke-width: 0.8"/>
      </g>
     </g>
     <g id="text_13">
      <!-- 150 -->
      <g transform="translate(68.4125 75.671684) scale(0.1 -0.1)">
       <use xlink:href="#DejaVuSans-31"/>
       <use xlink:href="#DejaVuSans-35" transform="translate(63.623047 0)"/>
       <use xlink:href="#DejaVuSans-30" transform="translate(127.246094 0)"/>
      </g>
     </g>
    </g>
    <g id="ytick_8">
     <g id="line2d_14">
      <g>
       <use xlink:href="#m6d1b7fbb62" x="94.5" y="47.134482" style="stroke: #000000; stroke-width: 0.8"/>
      </g>
     </g>
     <g id="text_14">
      <!-- 175 -->
      <g transform="translate(68.4125 50.9337) scale(0.1 -0.1)">
       <use xlink:href="#DejaVuSans-31"/>
       <use xlink:href="#DejaVuSans-37" transform="translate(63.623047 0)"/>
       <use xlink:href="#DejaVuSans-35" transform="translate(127.246094 0)"/>
      </g>
     </g>
    </g>
   </g>
   <g id="line2d_15">
    <path d="M 121.131818 214.139977 
L 121.391261 214.07224 
L 122.429033 214.384067 
L 122.688476 214.192687 
L 123.466805 214.476926 
L 124.245134 214.380865 
L 124.764019 214.123965 
L 125.023462 214.038006 
L 125.282905 214.103523 
L 126.839563 213.630859 
L 127.099006 213.162629 
L 128.136778 212.995634 
L 128.396221 212.549077 
L 128.655664 212.696861 
L 128.915106 213.05721 
L 129.952878 213.845886 
L 130.212321 213.707953 
L 130.471764 214.074924 
L 130.731207 213.644368 
L 131.509536 213.487623 
L 131.768979 213.747386 
L 132.028422 213.288488 
L 132.547308 213.74369 
L 133.325637 214.251385 
L 133.585079 213.86593 
L 133.844522 214.226003 
L 134.103965 214.969308 
L 134.363408 214.364754 
L 135.141737 215.46 
L 135.40118 214.945648 
L 135.660623 215.301776 
L 135.920066 215.051625 
L 136.179509 215.229565 
L 136.957838 215.058525 
L 137.217281 214.159212 
L 137.476724 214.246949 
L 137.736167 213.96057 
L 137.99561 214.071721 
L 138.773938 213.754781 
L 139.033381 213.803824 
L 139.292824 214.309796 
L 139.552267 214.004192 
L 139.81171 214.289094 
L 140.590039 213.685526 
L 140.849482 213.916455 
L 141.108925 213.721263 
L 141.368368 213.819844 
L 142.40614 213.64979 
L 142.665583 213.302289 
L 142.925025 213.378937 
L 143.184468 213.037351 
L 144.22224 213.225889 
L 144.481683 213.65817 
L 144.741126 213.24807 
L 145.000569 213.30081 
L 145.260012 213.163288 
L 146.038341 212.978694 
L 146.297784 213.119666 
L 146.557227 212.944683 
L 147.076113 213.331125 
L 148.373327 212.961195 
L 148.892213 212.598661 
L 149.670542 212.34925 
L 149.929985 212.608519 
L 150.189428 212.6307 
L 150.448871 212.383754 
L 150.708314 211.93003 
L 152.005528 211.457575 
L 152.264971 211.649564 
L 152.524414 211.402124 
L 154.081072 211.933726 
L 154.340515 211.550737 
L 155.897173 211.654245 
L 156.156616 211.502853 
L 156.934944 211.616275 
L 157.45383 211.062238 
L 157.713273 211.624904 
L 157.972716 211.490524 
L 158.751045 211.252585 
L 159.010488 211.356394 
L 159.269931 211.191192 
L 159.788817 211.166291 
L 160.567146 210.904436 
L 160.826589 210.980131 
L 161.086032 211.191686 
L 161.345474 210.940683 
L 161.604917 211.271082 
L 162.383246 211.226699 
L 162.642689 210.933035 
L 163.161575 210.820109 
L 164.45879 210.564177 
L 164.977676 209.935674 
L 165.237119 209.965015 
L 166.015447 210.386152 
L 166.27489 210.065858 
L 166.793776 210.304784 
L 167.831548 209.933945 
L 168.090991 210.113695 
L 168.350434 210.004957 
L 168.609877 210.309716 
L 169.647649 210.021975 
L 169.907092 210.225142 
L 170.425978 209.832115 
L 170.68542 209.831374 
L 172.242078 209.120522 
L 172.501521 209.254655 
L 173.27985 209.288682 
L 173.539293 209.599356 
L 173.798736 209.01721 
L 174.058179 209.014497 
L 174.317622 208.895161 
L 175.09595 208.132773 
L 175.874279 208.326083 
L 176.133722 207.791031 
L 177.430937 207.702761 
L 177.69038 207.845523 
L 177.949823 207.333159 
L 178.728152 207.10952 
L 179.247038 206.146632 
L 179.506481 207.459752 
L 179.765923 207.847469 
L 180.803695 208.547437 
L 181.063138 207.756213 
L 181.322581 208.154045 
L 181.582024 208.299317 
L 182.619796 207.483922 
L 182.879239 207.954021 
L 183.138682 208.004335 
L 183.398125 208.274899 
L 184.435896 207.832424 
L 184.695339 208.339519 
L 184.954782 208.118281 
L 185.214225 207.599598 
L 185.992554 207.440515 
L 186.770883 206.868801 
L 187.030326 207.413628 
L 188.327541 206.523996 
L 188.846427 206.722542 
L 189.624755 206.265517 
L 189.884198 206.243566 
L 190.662527 206.674447 
L 191.440856 206.983982 
L 191.700299 206.838215 
L 192.219185 207.118892 
L 192.478628 206.892721 
L 193.256957 207.335692 
L 193.5164 207.083623 
L 193.775842 207.843031 
L 194.035285 207.451367 
L 194.294728 207.934782 
L 195.073057 207.888659 
L 195.3325 207.455806 
L 195.591943 206.691466 
L 196.110829 205.93403 
L 196.889158 206.852768 
L 197.148601 207.701952 
L 197.408044 207.06266 
L 197.667487 207.02443 
L 197.92693 207.182032 
L 198.705258 206.966715 
L 199.224144 207.052054 
L 199.483587 207.040707 
L 199.74303 207.388473 
L 200.521359 207.336925 
L 200.780802 207.516724 
L 201.040245 207.243446 
L 202.596903 207.090284 
L 202.856345 206.937859 
L 203.115788 207.080459 
L 203.375231 206.920342 
L 204.15356 206.87248 
L 204.413003 207.125855 
L 204.672446 207.539594 
L 205.191332 207.458177 
L 206.229104 207.115494 
L 206.488547 207.231942 
L 206.74799 207.134487 
L 207.007433 207.202828 
L 208.045204 207.196662 
L 208.304647 207.462125 
L 209.861305 207.527259 
L 210.120748 207.327418 
L 210.380191 207.416975 
L 211.417963 207.359247 
L 211.677406 207.071825 
L 211.936849 207.851685 
L 212.196291 207.131777 
L 212.455734 207.198143 
L 213.234063 206.857923 
L 213.493506 206.992877 
L 213.752949 206.946494 
L 214.271835 207.609908 
L 215.309607 207.446336 
L 215.828493 206.615157 
L 216.087936 206.76812 
L 216.866264 206.826591 
L 217.125707 207.041722 
L 217.38515 207.552423 
L 217.644593 207.420922 
L 217.904036 207.481369 
L 218.682365 207.237371 
L 218.941808 206.921822 
L 219.201251 206.947727 
L 219.460694 206.815735 
L 219.720137 206.888023 
L 220.498466 206.051414 
L 220.757909 206.224609 
L 221.276794 205.25009 
L 221.536237 205.535783 
L 222.574009 205.171635 
L 222.833452 205.590308 
L 223.092895 205.666297 
L 223.352338 205.570077 
L 224.39011 206.344265 
L 224.649553 205.99196 
L 224.908996 207.167797 
L 225.168439 206.766145 
L 225.946767 206.640569 
L 226.725096 208.092726 
L 226.984539 208.002676 
L 227.762868 208.859512 
L 228.022311 207.940432 
L 228.281754 207.991766 
L 228.541197 207.473241 
L 228.80064 207.60898 
L 230.097855 207.129942 
L 230.357298 207.740774 
L 231.395069 207.28296 
L 231.654512 207.396982 
L 231.913955 207.819254 
L 232.173398 207.925626 
L 232.432841 207.625518 
L 233.470613 207.593432 
L 233.989499 206.66547 
L 235.027271 206.49197 
L 235.286713 206.616356 
L 235.805599 206.166686 
L 236.065042 206.084752 
L 236.843371 205.28611 
L 237.102814 204.821636 
L 237.362257 205.218981 
L 237.6217 204.369743 
L 238.659472 205.135316 
L 238.918915 205.323377 
L 239.178358 205.13655 
L 239.437801 205.640265 
L 239.697244 205.230579 
L 240.475572 205.020554 
L 240.994458 205.219229 
L 241.253901 205.171841 
L 241.513344 205.483057 
L 242.291673 205.653591 
L 242.551116 206.132877 
L 243.070002 205.963325 
L 243.329445 205.677781 
L 244.107774 206.217286 
L 244.367216 206.177301 
L 244.626659 206.718037 
L 244.886102 206.810094 
L 245.145545 206.239742 
L 245.923874 206.316249 
L 246.183317 206.464081 
L 246.44276 206.414723 
L 246.961646 205.500577 
L 247.739975 204.888268 
L 248.258861 204.801397 
L 248.518304 205.010684 
L 248.777747 204.26387 
L 249.815518 204.24412 
L 250.074961 203.736953 
L 250.334404 203.547908 
L 250.593847 202.947194 
L 251.372176 202.90697 
L 251.891062 203.160458 
L 252.150505 203.094544 
L 252.409948 202.699325 
L 253.188277 202.50826 
L 253.44772 202.735615 
L 253.707162 202.714141 
L 253.966605 201.87779 
L 254.226048 201.89606 
L 255.004377 202.1049 
L 255.26382 201.651179 
L 255.782706 201.336437 
L 256.042149 201.508744 
L 256.820478 200.566742 
L 257.598807 200.342596 
L 257.85825 200.07106 
L 258.896021 199.862218 
L 259.414907 200.647955 
L 260.452679 200.04588 
L 260.971565 200.708437 
L 261.490451 202.367797 
L 262.26878 201.756833 
L 262.528223 201.922471 
L 262.787666 201.134511 
L 263.047108 200.952828 
L 263.306551 200.988376 
L 264.344323 201.333967 
L 264.863209 200.885679 
L 265.122652 201.046628 
L 266.160424 200.734604 
L 266.67931 199.922943 
L 266.938753 200.190533 
L 267.717081 200.260643 
L 268.235967 200.849146 
L 268.754853 200.366297 
L 269.533182 200.601305 
L 270.052068 201.499858 
L 270.570954 199.746194 
L 271.349283 198.618558 
L 271.608726 198.781482 
L 271.868169 198.366767 
L 272.127611 198.509941 
L 272.387054 197.949095 
L 273.165383 197.897742 
L 273.424826 198.193032 
L 273.943712 198.182167 
L 274.203155 197.740714 
L 275.240927 197.919469 
L 275.759813 198.398454 
L 276.019256 198.101182 
L 276.797584 198.423137 
L 277.31647 198.236485 
L 277.575913 198.334254 
L 277.835356 198.672017 
L 278.613685 199.449256 
L 278.873128 199.317905 
L 279.392014 198.097234 
L 279.651457 198.493264 
L 280.429786 198.909038 
L 280.689229 199.858122 
L 280.948672 200.037859 
L 281.208115 199.841328 
L 281.467557 199.815649 
L 282.245886 200.813122 
L 282.505329 200.103041 
L 283.024215 199.486781 
L 283.283658 199.727757 
L 284.32143 199.88577 
L 284.580873 199.621094 
L 284.840316 198.824103 
L 286.13753 198.286855 
L 286.396973 198.471535 
L 286.656416 197.889843 
L 286.915859 197.856263 
L 287.694188 197.421722 
L 287.953631 195.889959 
L 288.213074 196.152658 
L 288.73196 195.050501 
L 289.510289 194.793728 
L 289.769732 194.226852 
L 290.029175 194.03229 
L 290.288618 190.869019 
L 290.54806 190.917411 
L 291.326389 189.878462 
L 291.585832 190.023641 
L 291.845275 191.206781 
L 292.104718 190.287322 
L 292.364161 190.287322 
L 293.14249 190.6478 
L 293.401933 190.472004 
L 293.661376 191.402326 
L 293.920819 189.018266 
L 294.180262 187.72451 
L 295.218033 188.948145 
L 295.477476 188.031659 
L 295.996362 189.188134 
L 296.774691 187.338364 
L 297.034134 188.029681 
L 297.293577 189.251487 
L 297.55302 188.568979 
L 297.812463 189.984375 
L 298.590792 190.632314 
L 298.850235 188.271667 
L 299.109678 188.865288 
L 299.369121 190.184884 
L 299.628564 190.473295 
L 300.406892 192.48527 
L 300.666335 192.311433 
L 300.925778 190.215499 
L 301.185221 192.26205 
L 301.444664 192.84085 
L 302.222993 192.921842 
L 302.482436 191.582501 
L 304.039094 189.735464 
L 304.298537 190.350817 
L 305.076865 191.250626 
L 305.855194 190.549348 
L 306.114637 191.370139 
L 306.37408 193.035433 
L 306.633523 192.468482 
L 306.892966 193.388046 
L 307.671295 193.236925 
L 307.930738 192.825049 
L 308.190181 192.645282 
L 308.449624 194.05179 
L 308.709067 193.689303 
L 309.746838 194.715537 
L 310.525167 197.213471 
L 311.303496 197.21545 
L 311.562939 198.25058 
L 311.822382 197.808079 
L 312.081825 198.625911 
L 312.341268 197.740912 
L 313.119597 196.11513 
L 313.37904 195.965 
L 313.638482 195.368417 
L 313.897925 196.646521 
L 314.157368 196.280079 
L 314.935697 195.876104 
L 315.19514 195.500772 
L 315.454583 193.923388 
L 315.714026 194.793568 
L 315.973469 196.645534 
L 316.751798 196.331444 
L 317.011241 194.130805 
L 317.270684 194.115004 
L 317.530127 196.094388 
L 317.78957 196.948765 
L 318.827341 197.19767 
L 319.086784 198.18835 
L 319.346227 196.844067 
L 319.60567 196.44009 
L 320.383999 196.21489 
L 320.643442 197.11174 
L 320.902885 196.373791 
L 321.162328 196.873656 
L 321.421771 197.642235 
L 322.2001 199.207046 
L 322.459543 199.047005 
L 322.718986 197.565178 
L 322.978428 197.916863 
L 323.237871 198.468103 
L 324.0162 199.228779 
L 324.535086 196.101135 
L 324.794529 195.834404 
L 325.053972 194.16784 
L 325.832301 193.890246 
L 326.091744 194.097702 
L 326.351187 194.976917 
L 326.61063 192.4914 
L 326.870073 192.943849 
L 327.648401 192.423234 
L 327.907844 191.991527 
L 328.167287 192.945827 
L 328.686173 193.911981 
L 329.464502 193.271832 
L 329.983388 196.189056 
L 330.242831 196.385641 
L 330.502274 197.461451 
L 331.540046 199.056888 
L 331.799489 198.366352 
L 332.058931 199.299908 
L 333.096703 198.781263 
L 333.356146 198.371295 
L 333.615589 199.078619 
L 333.875032 200.361879 
L 334.134475 201.021786 
L 334.912804 200.639472 
L 335.172247 201.739981 
L 335.43169 202.108461 
L 335.691133 200.758026 
L 335.950576 201.978062 
L 336.728904 201.004003 
L 336.988347 200.935843 
L 337.24779 200.212711 
L 337.507233 201.684657 
L 337.766676 201.851612 
L 338.545005 203.55571 
L 338.804448 202.918529 
L 339.063891 203.871839 
L 339.323334 204.32133 
L 339.582777 202.808875 
L 340.361106 203.245519 
L 340.620549 202.343579 
L 340.879992 203.56757 
L 341.139435 203.383821 
L 341.398877 203.808614 
L 342.177206 203.607088 
L 342.436649 204.342074 
L 343.214978 201.717259 
L 344.25275 201.854576 
L 344.512193 202.20231 
L 344.771636 200.945724 
L 345.031079 201.807156 
L 345.809408 201.741961 
L 346.06885 201.603649 
L 346.328293 201.874391 
L 346.587736 202.467246 
L 346.847179 203.528462 
L 347.625508 204.839659 
L 347.884951 204.652912 
L 348.144394 203.970138 
L 348.403837 204.885113 
L 348.66328 204.609435 
L 349.701052 203.931602 
L 350.219938 204.268543 
L 350.479381 203.37827 
L 351.257709 203.63221 
L 351.517152 204.508651 
L 352.295481 205.950277 
L 353.592696 205.350506 
L 353.852139 204.631175 
L 354.111582 204.650935 
L 354.889911 205.328767 
L 355.149353 205.397936 
L 355.408796 205.316912 
L 355.668239 205.111389 
L 355.927682 204.726031 
L 356.706011 204.391064 
L 357.224897 202.705378 
L 357.48434 202.46527 
L 357.743783 203.187564 
L 358.522112 203.479055 
L 358.781555 203.96421 
L 359.040998 202.722175 
L 359.559884 202.353614 
L 360.597655 201.99494 
L 361.116541 201.31414 
L 361.375984 201.537448 
L 362.154313 202.719214 
L 362.413756 203.417797 
L 362.673199 202.418831 
L 362.932642 202.571987 
L 363.192085 201.814116 
L 363.970414 201.494964 
L 364.229857 201.646138 
L 364.489299 202.183665 
L 364.748742 201.75088 
L 365.008185 202.663877 
L 365.786514 203.469175 
L 366.3054 203.283415 
L 366.564843 202.600643 
L 366.824286 204.233963 
L 367.602615 204.687493 
L 368.121501 205.386077 
L 368.380944 206.529303 
L 368.640387 206.815849 
L 369.678158 206.995683 
L 370.197044 206.472826 
L 370.456487 206.080435 
L 371.234816 205.963805 
L 371.494259 207.321851 
L 371.753702 207.324817 
L 372.013145 207.521505 
L 372.272588 207.255629 
L 373.050917 207.073764 
L 373.31036 207.277372 
L 373.569803 207.193358 
L 373.829245 207.885233 
L 374.088688 207.92971 
L 374.867017 208.214364 
L 375.12646 208.031513 
L 375.385903 207.712263 
L 375.645346 208.22227 
L 375.904789 208.302332 
L 376.683118 207.933662 
L 376.942561 207.286268 
L 377.202004 207.244756 
L 377.461447 207.322839 
L 377.72089 208.364598 
L 379.018104 208.933912 
L 379.277547 208.479252 
L 379.53699 209.203739 
L 380.574762 208.472334 
L 381.093648 208.247969 
L 381.353091 207.979129 
L 382.13142 207.847673 
L 382.390863 207.193358 
L 382.650306 207.554122 
L 382.909748 207.277372 
L 383.169191 206.627014 
L 383.94752 206.960101 
L 384.206963 206.914635 
L 384.466406 207.234871 
L 384.725849 207.035219 
L 384.985292 206.308755 
L 385.763621 206.165436 
L 386.023064 205.867932 
L 386.282507 206.68434 
L 386.54195 204.733262 
L 386.801393 204.162964 
L 387.579721 204.19459 
L 387.839164 203.827899 
L 388.098607 204.575121 
L 388.617493 205.070304 
L 389.395822 205.161236 
L 389.914708 203.973192 
L 391.211923 204.657156 
L 391.471366 204.842974 
L 391.730809 203.569603 
L 391.990252 203.360012 
L 392.249694 203.616068 
L 393.028023 203.87905 
L 393.287466 204.494972 
L 393.546909 204.363481 
L 393.806352 203.326398 
L 394.065795 203.492493 
L 394.844124 202.964557 
L 395.103567 202.433653 
L 395.36301 202.827137 
L 395.622453 203.540936 
L 395.881896 203.917609 
L 396.919667 204.398089 
L 397.17911 203.986815 
L 397.438553 205.135611 
L 397.697996 205.267102 
L 398.735768 206.339775 
L 398.995211 206.423809 
L 399.254654 205.86325 
L 399.514097 205.852375 
L 400.551869 206.14798 
L 400.811312 205.71891 
L 401.070755 206.197412 
L 401.330197 205.61016 
L 402.886855 203.976925 
L 403.146298 203.593333 
L 404.18407 202.799449 
L 404.443513 203.120761 
L 404.702956 203.725806 
L 404.962399 202.664013 
L 405.740728 201.32539 
L 406.259613 201.196867 
L 406.778499 200.166703 
L 407.556828 201.356041 
L 407.816271 200.9853 
L 408.075714 199.59527 
L 408.335157 198.837971 
L 408.5946 199.440053 
L 409.372929 199.45093 
L 409.632372 198.379241 
L 410.151258 198.217106 
L 410.410701 199.276927 
L 411.189029 198.75987 
L 411.448472 197.590306 
L 411.707915 197.794956 
L 412.226801 199.155325 
L 413.264573 199.879999 
L 413.524016 199.78212 
L 413.783459 196.90518 
L 414.042902 197.278886 
L 414.821231 197.066325 
L 415.080674 197.34809 
L 415.340116 197.860202 
L 415.859002 196.681749 
L 416.637331 197.013928 
L 416.896774 197.273 
L 417.156217 196.389994 
L 417.675103 197.592382 
L 418.453432 197.591393 
L 418.712875 196.506672 
L 418.972318 196.343517 
L 419.231761 195.045211 
L 419.491204 194.86327 
L 420.269532 194.690231 
L 420.788418 194.128585 
L 421.047861 193.41368 
L 421.307304 193.821068 
L 422.345076 194.18594 
L 422.863962 193.223827 
L 423.123405 192.834239 
L 423.901734 192.648343 
L 424.420619 193.72021 
L 425.717834 193.030018 
L 425.977277 193.435432 
L 426.23672 194.101887 
L 426.496163 194.13353 
L 426.755606 193.841833 
L 427.533935 193.600563 
L 427.793378 192.943005 
L 428.052821 192.681959 
L 428.312264 193.499708 
L 428.571707 193.484871 
L 429.350035 193.561011 
L 429.609478 194.353043 
L 429.868921 193.646046 
L 430.128364 193.37907 
L 430.387807 192.861921 
L 431.166136 191.713916 
L 431.685022 192.809518 
L 431.944465 193.046829 
L 432.203908 191.941341 
L 432.982237 191.475614 
L 433.24168 192.049126 
L 433.501123 191.738635 
L 434.020008 192.277536 
L 435.05778 191.414307 
L 435.317223 190.46011 
L 435.576666 188.976893 
L 435.836109 189.386261 
L 436.614438 189.473276 
L 436.873881 189.955815 
L 437.133324 190.104137 
L 437.392767 182.745421 
L 437.65221 181.790236 
L 438.689981 180.638272 
L 438.949424 182.889789 
L 439.208867 180.97546 
L 439.46831 181.413501 
L 440.246639 181.567751 
L 440.506082 182.078968 
L 440.765525 183.240939 
L 441.024968 182.217417 
L 442.06274 181.256201 
L 442.581626 177.780166 
L 442.841069 178.120355 
L 443.100511 178.081789 
L 444.138283 176.978167 
L 444.397726 177.732703 
L 444.657169 177.752479 
L 444.916612 178.559426 
L 445.694941 180.11895 
L 445.954384 178.88874 
L 446.213827 179.639324 
L 446.47327 179.931053 
L 446.732713 178.467463 
L 447.511041 178.357701 
L 448.029927 178.452632 
L 448.28937 178.664258 
L 448.548813 178.268701 
L 449.327142 178.588118 
L 449.586585 178.365613 
L 450.105471 174.833218 
L 450.364914 175.335584 
L 451.143243 174.354584 
L 451.402686 173.33304 
L 451.662129 173.745417 
L 452.181014 176.482724 
L 452.959343 176.18308 
L 453.218786 175.12791 
L 453.478229 175.352397 
L 453.737672 174.909358 
L 453.997115 174.068789 
L 454.775444 174.089558 
L 455.034887 174.309091 
L 455.29433 176.522276 
L 456.591545 175.387011 
L 456.850987 176.131653 
L 457.11043 178.21826 
L 457.369873 178.382411 
L 457.629316 179.89842 
L 458.407645 177.032561 
L 458.667088 176.84763 
L 458.926531 177.296595 
L 459.445417 177.481522 
L 460.223746 173.8542 
L 460.483189 175.138797 
L 460.742632 173.706847 
L 461.002075 173.660365 
L 461.261518 174.792674 
L 462.039846 173.984734 
L 462.299289 172.057348 
L 462.558732 171.582666 
L 462.818175 171.492677 
L 463.077618 172.329294 
L 464.11539 172.290724 
L 464.374833 173.757405 
L 464.893719 175.23002 
L 465.672048 175.619677 
L 465.931491 175.924293 
L 466.190933 175.316054 
L 466.450376 175.221116 
L 466.709819 176.883607 
L 467.488148 176.818338 
L 467.747591 177.259429 
L 468.266477 179.734877 
L 468.52592 179.148403 
L 469.304249 178.543138 
L 469.563692 178.850713 
L 470.342021 177.280193 
L 471.120349 176.011322 
L 471.379792 177.262396 
L 471.898678 176.104282 
L 472.158121 175.042104 
L 472.93645 175.52572 
L 473.195893 175.006504 
L 473.455336 174.009594 
L 473.714779 173.872126 
L 473.974222 175.339793 
L 474.752551 174.712767 
L 475.271436 178.568852 
L 475.530879 178.662804 
L 475.790322 179.368944 
L 476.828094 177.118005 
L 477.34698 180.418267 
L 477.606423 180.246181 
L 478.384752 179.592457 
L 478.644195 179.96926 
L 479.422524 175.790773 
L 480.460295 174.851227 
L 480.979181 173.867185 
L 481.238624 172.497427 
L 482.016953 172.215569 
L 482.276396 171.190975 
L 482.535839 171.950516 
L 482.795282 171.365031 
L 483.054725 171.545025 
L 483.833054 170.446257 
L 484.092497 170.906143 
L 484.35194 172.120624 
L 484.870825 173.050276 
L 485.649154 172.589398 
L 485.908597 173.005768 
L 486.16804 172.690278 
L 486.427483 174.045193 
L 486.686926 174.050142 
L 487.465255 175.291333 
L 487.724698 174.242909 
L 487.984141 175.2943 
L 488.503027 173.313174 
L 489.281355 174.182574 
L 489.540798 173.163816 
L 491.097456 170.770253 
L 491.356899 171.238087 
L 491.616342 172.714787 
L 491.875785 171.845379 
L 492.135228 172.00363 
L 493.951328 171.319187 
L 494.9891 172.658404 
L 495.248543 173.250861 
L 495.507986 172.826545 
L 497.064644 166.54391 
L 497.324087 166.077072 
L 497.58353 166.187849 
L 498.621301 164.534104 
L 498.880744 164.859511 
L 499.140187 163.817021 
L 499.39963 161.459061 
L 500.177959 161.297839 
L 500.437402 161.081227 
L 500.696845 159.608495 
L 500.956288 159.356275 
L 501.215731 159.935876 
L 502.253503 158.21191 
L 502.512946 159.445291 
L 502.772389 157.961672 
L 503.031831 154.862883 
L 503.81016 151.725527 
L 504.069603 152.822414 
L 504.329046 150.966907 
L 504.588489 151.419911 
L 504.847932 148.955111 
L 505.626261 148.841379 
L 505.885704 148.960049 
L 506.145147 147.20741 
L 506.40459 148.435854 
L 506.664033 148.480358 
L 507.701804 151.606827 
L 507.961247 153.565211 
L 508.22069 142.620065 
L 508.480133 142.34411 
L 509.258462 142.072112 
L 509.517905 142.458854 
L 509.777348 143.485509 
L 510.036791 142.052332 
L 510.296234 138.919929 
L 511.334006 135.271174 
L 511.593449 132.564929 
L 511.852892 128.639087 
L 512.112334 133.724182 
L 512.890663 135.459102 
L 513.150106 129.386866 
L 513.409549 130.400725 
L 513.668992 133.312708 
L 513.928435 133.418543 
L 514.706764 132.807266 
L 515.485093 129.859672 
L 515.744536 127.036705 
L 516.522865 126.331467 
L 517.04175 131.031782 
L 517.301193 130.926928 
L 518.338965 130.920013 
L 518.598408 131.821106 
L 518.857851 132.303801 
L 519.117294 135.329539 
L 519.376737 133.249398 
L 520.155066 134.114888 
L 520.414509 135.874555 
L 520.673952 134.207867 
L 520.933395 130.669764 
L 521.192838 133.073338 
L 521.971166 135.234582 
L 522.230609 133.835959 
L 522.490052 137.179195 
L 522.749495 136.550116 
L 523.008938 144.929006 
L 523.787267 141.647078 
L 524.04671 138.773673 
L 524.306153 141.489801 
L 524.565596 138.566932 
L 524.825039 133.519434 
L 525.603368 133.497676 
L 525.862811 134.837927 
L 526.122253 138.162396 
L 526.641139 132.476895 
L 527.419468 129.162346 
L 527.678911 130.731096 
L 527.938354 130.871538 
L 528.197797 132.518439 
L 528.45724 131.399726 
L 529.235569 130.884402 
L 529.495012 129.937801 
L 529.754455 126.699411 
L 530.013898 126.967469 
L 530.273341 128.82703 
L 531.311112 125.951632 
L 531.570555 126.382894 
L 531.829998 117.630111 
L 532.089441 114.989145 
L 533.127213 107.637975 
L 533.386656 106.724025 
L 533.646099 111.001995 
L 533.905542 111.859558 
L 534.943314 105.129555 
L 535.202756 99.19182 
L 535.462199 100.618134 
L 535.721642 100.726944 
L 536.499971 99.83476 
L 536.759414 100.695357 
L 537.2783 92.08926 
L 537.537743 89.843756 
L 538.316072 90.734046 
L 538.575515 86.1837 
L 539.094401 90.931886 
L 539.353844 95.096463 
L 540.132172 103.465146 
L 540.391615 95.571277 
L 540.651058 95.264619 
L 540.910501 97.648625 
L 541.169944 98.093747 
L 541.948273 97.341944 
L 542.207716 98.954367 
L 542.467159 93.404915 
L 542.986045 95.828464 
L 543.764374 93.484063 
L 544.28326 86.846465 
L 544.542702 94.275417 
L 544.802145 92.455256 
L 545.580474 93.246648 
L 545.839917 95.304186 
L 546.09936 103.583854 
L 546.358803 100.517311 
L 546.618246 103.643207 
L 547.396575 98.093747 
L 547.656018 99.033508 
L 547.915461 107.283491 
L 548.174904 109.232227 
L 548.434347 108.460644 
L 549.212675 109.914786 
L 549.472118 117.68994 
L 549.731561 104.543394 
L 549.991004 112.269084 
L 550.250447 114.18815 
L 551.028776 120.934543 
L 551.288219 117.175559 
L 551.547662 122.457913 
L 551.807105 116.463323 
L 552.066548 116.680951 
L 552.844877 112.457035 
L 553.10432 105.413889 
L 553.363763 103.494823 
L 553.623206 98.766409 
L 554.660977 91.703499 
L 554.92042 94.423794 
L 555.179863 93.18728 
L 555.439306 97.895914 
L 555.698749 92.326689 
L 556.477078 95.205273 
L 556.736521 93.38512 
L 556.995964 96.046091 
L 557.255407 103.979535 
L 557.51485 102.218742 
L 558.812064 115.236714 
L 559.071507 114.247504 
L 559.33095 118.580222 
L 560.368722 113.367112 
L 560.628165 104.652189 
L 560.887608 102.436181 
L 561.147051 102.475755 
L 561.92538 104.770911 
L 562.184823 105.94817 
L 562.444266 108.144398 
L 562.703709 103.692581 
L 562.963151 105.542554 
L 563.74148 105.285337 
L 564.260366 98.112975 
L 564.519809 97.588652 
L 564.779252 100.200379 
L 565.557581 100.160812 
L 565.817024 104.553261 
L 566.076467 102.723082 
L 566.33591 98.765911 
L 566.595353 96.718082 
L 567.373682 93.948059 
L 567.633124 88.833431 
L 567.892567 89.07086 
L 568.15201 86.933978 
L 568.411453 86.943868 
L 569.189782 83.708875 
L 569.449225 90.109602 
L 569.708668 86.033738 
L 570.227554 83.778149 
L 571.005883 78.129285 
L 571.265326 78.247992 
L 571.524769 82.234848 
L 572.043655 80.276057 
L 572.821983 81.285114 
L 573.081426 80.562951 
L 573.340869 82.452498 
L 573.600312 88.962028 
L 573.859755 86.350301 
L 574.638084 85.707255 
L 574.897527 81.888601 
L 575.416413 73.014649 
L 575.675856 74.251277 
L 576.454185 76.595889 
L 576.713628 73.598357 
L 576.97307 75.596707 
L 577.232513 75.111973 
L 577.491956 79.840772 
L 578.270285 81.651186 
L 578.529728 74.864638 
L 578.789171 75.972638 
L 579.048614 75.200981 
L 579.308057 79.870456 
L 580.086386 85.73694 
L 580.345829 84.846575 
L 580.605272 86.40967 
L 581.124158 83.530814 
L 581.902486 83.154898 
L 582.161929 81.542339 
L 582.421372 76.714612 
L 582.680815 76.783855 
L 582.940258 79.375968 
L 583.718587 82.96737 
L 583.97803 86.667558 
L 584.237473 82.472686 
L 584.496916 84.421723 
L 584.756359 87.478836 
L 585.534688 89.704907 
L 586.053573 92.76202 
L 586.313016 91.010868 
L 586.572459 87.033631 
L 587.350788 82.116518 
L 587.610231 81.572355 
L 588.129117 81.859279 
L 588.38856 84.748221 
L 589.166889 84.273316 
L 589.426332 87.439262 
L 589.945218 83.462039 
L 590.204661 77.367577 
L 590.982989 72.46037 
L 591.242432 81.651519 
L 591.501875 81.681188 
L 592.020761 85.836487 
L 592.79909 88.487984 
L 593.058533 89.942352 
L 593.317976 85.510004 
L 593.577419 88.151596 
L 593.836862 84.055651 
L 594.874634 80.968853 
L 595.134077 74.795229 
L 595.393519 74.646837 
L 595.652962 79.197907 
L 596.431291 103.1404 
L 596.690734 92.682857 
L 596.950177 97.916584 
L 597.20962 96.976695 
L 597.469063 101.507956 
L 598.247392 104.881669 
L 598.506835 102.912845 
L 599.025721 92.98959 
L 600.063492 88.151596 
L 600.322935 88.913394 
L 600.582378 90.555743 
L 601.101264 82.92778 
L 602.139036 82.383632 
L 602.398479 82.551834 
L 602.657922 81.681188 
L 602.917365 87.30076 
L 603.695694 91.406595 
L 603.955137 95.01776 
L 604.21458 90.417226 
L 604.474022 101.428807 
L 604.733465 96.709566 
L 605.511794 107.45401 
L 606.03068 104.248483 
L 606.290123 110.906872 
L 606.549566 108.809428 
L 607.327895 114.458677 
L 607.587338 112.697613 
L 607.846781 105.78135 
L 608.106224 105.939662 
L 608.365667 99.913908 
L 609.143995 102.031335 
L 609.403438 106.088084 
L 609.662881 104.020135 
L 609.922324 103.020787 
L 610.181767 103.842029 
L 610.960096 100.171162 
L 611.219539 100.883565 
L 611.478982 107.740458 
L 611.997868 111.787317 
L 612.776197 113.063708 
L 613.03564 111.312382 
L 613.295083 111.045231 
L 613.813968 126.985278 
L 614.592297 123.690411 
L 614.85174 125.016265 
L 615.111183 107.176478 
L 615.370626 113.865163 
L 615.630069 110.540611 
L 616.408398 110.758292 
L 616.667841 109.284008 
L 616.927284 116.912673 
L 617.186727 119.881027 
L 618.224499 124.412703 
L 618.483941 122.453595 
L 619.26227 110.461448 
L 620.040599 112.7174 
L 620.300042 112.430461 
L 620.559485 112.529404 
L 621.078371 107.008269 
L 622.116143 107.958139 
L 622.375586 104.475276 
L 622.635029 104.168542 
L 622.894472 104.880952 
L 623.6728 98.597936 
L 624.191686 86.388124 
L 624.451129 86.892743 
L 624.710572 86.328755 
L 625.488901 86.160539 
L 625.748344 87.337993 
L 626.007787 89.890774 
L 626.26723 88.871631 
L 626.526673 90.395393 
L 627.564444 86.229812 
L 627.823887 86.912523 
L 628.08333 82.578725 
L 628.342773 86.595899 
L 629.121102 84.369632 
L 629.380545 80.570153 
L 629.639988 79.877538 
L 629.899431 81.787167 
L 630.158874 80.075423 
L 630.937203 79.175017 
L 631.196646 77.859045 
L 631.456089 78.967317 
L 631.715532 76.820062 
L 631.974975 79.818305 
L 632.753303 77.126811 
L 633.012746 77.690844 
L 633.272189 76.345097 
L 633.791075 77.958003 
L 634.569404 77.641365 
L 634.828847 73.950462 
L 635.08829 67.607639 
L 635.347733 66.905074 
L 635.607176 64.20369 
L 636.385505 63.9662 
L 636.644948 68.607049 
L 636.90439 64.69845 
L 637.163833 62.630358 
L 638.201605 63.718821 
L 638.461048 61.977272 
L 638.720491 59.127451 
L 639.239377 57.108838 
L 640.017706 57.949921 
L 640.277149 51.389418 
L 640.536592 50.726442 
L 640.796035 49.11352 
L 641.055478 49.697333 
L 641.833806 50.716537 
L 642.093249 55.020952 
L 642.612135 48.381271 
L 642.871578 48.618761 
L 643.649907 45.402823 
L 643.90935 46.629832 
L 644.168793 42.90923 
L 644.428236 44.294566 
L 644.687679 48.401065 
L 645.466008 42.186885 
L 645.725451 43.908654 
L 646.244336 41.424951 
L 646.503779 39.515186 
L 647.282108 40.148477 
L 647.541551 39.06 
L 647.800994 40.613553 
L 648.060437 40.188051 
L 648.31988 41.741604 
L 649.098209 40.197956 
L 649.357652 46.50119 
L 649.617095 46.73868 
L 649.876538 47.154276 
L 650.135981 44.175813 
L 650.914309 42.374896 
L 651.173752 40.435431 
L 651.433195 40.603648 
L 651.692638 42.018668 
L 651.952081 47.945895 
L 652.989853 51.310254 
L 653.249296 51.468581 
L 653.508739 50.439473 
L 653.768182 55.030842 
L 653.768182 55.030842 
" clip-path="url(#p77dc2fdab6)" style="fill: none; stroke: #1f77b4; stroke-width: 1.5; stroke-linecap: square"/>
   </g>
   <g id="patch_3">
    <path d="M 94.5 224.28 
L 94.5 30.24 
" style="fill: none; stroke: #000000; stroke-width: 0.8; stroke-linejoin: miter; stroke-linecap: square"/>
   </g>
   <g id="patch_4">
    <path d="M 94.5 224.28 
L 680.4 224.28 
" style="fill: none; stroke: #000000; stroke-width: 0.8; stroke-linejoin: miter; stroke-linecap: square"/>
   </g>
  </g>
 </g>
 <defs>
  <clipPath id="p77dc2fdab6">
   <rect x="94.5" y="30.24" width="585.9" height="194.04"/>
  </clipPath>
 </defs>
</svg>
