<?xml version="1.0" encoding="utf-8" standalone="no"?>
<!DOCTYPE svg PUBLIC "-//W3C//DTD SVG 1.1//EN"
  "http://www.w3.org/Graphics/SVG/1.1/DTD/svg11.dtd">
<svg xmlns:xlink="http://www.w3.org/1999/xlink" width="468pt" height="252pt" viewBox="0 0 468 252" xmlns="http://www.w3.org/2000/svg" version="1.1">
 <metadata>
  <rdf:RDF xmlns:dc="http://purl.org/dc/elements/1.1/" xmlns:cc="http://creativecommons.org/ns#" xmlns:rdf="http://www.w3.org/1999/02/22-rdf-syntax-ns#">
   <cc:Work>
    <dc:type rdf:resource="http://purl.org/dc/dcmitype/StillImage"/>
    <dc:date>2025-08-30T18:51:14.772006</dc:date>
    <dc:format>image/svg+xml</dc:format>
    <dc:creator>
     <cc:Agent>
      <dc:title>Matplotlib v3.10.5, https://matplotlib.org/</dc:title>
     </cc:Agent>
    </dc:creator>
   </cc:Work>
  </rdf:RDF>
 </metadata>
 <defs>
  <style type="text/css">*{stroke-linejoin: round; stroke-linecap: butt}</style>
 </defs>
 <g id="figure_1">
  <g id="patch_1">
   <path d="M 0 252 
L 468 252 
L 468 0 
L 0 0 
z
" style="fill: #ffffff"/>
  </g>
  <g id="axes_1">
   <g id="patch_2">
    <path d="M 58.5 224.28 
L 421.2 224.28 
L 421.2 30.24 
L 58.5 30.24 
z
" style="fill: #ffffff"/>
   </g>
   <g id="matplotlib.axis_1">
    <g id="xtick_1">
     <g id="line2d_1">
      <defs>
       <path id="mdfcdf5c7bc" d="M 0 0 
L 0 3.5 
" style="stroke: #000000; stroke-width: 0.8"/>
      </defs>
      <g>
       <use xlink:href="#mdfcdf5c7bc" x="71.598755" y="224.28" style="stroke: #000000; stroke-width: 0.8"/>
      </g>
     </g>
     <g id="text_1">
      <!-- 2020 -->
      <g transform="translate(58.873755 238.878438) scale(0.1 -0.1)">
       <defs>
        <path id="DejaVuSans-32" d="M 1228 531 
L 3431 531 
L 3431 0 
L 469 0 
L 469 531 
Q 828 903 1448 1529 
Q 2069 2156 2228 2338 
Q 2531 2678 2651 2914 
Q 2772 3150 2772 3378 
Q 2772 3750 2511 3984 
Q 2250 4219 1831 4219 
Q 1534 4219 1204 4116 
Q 875 4013 500 3803 
L 500 4441 
Q 881 4594 1212 4672 
Q 1544 4750 1819 4750 
Q 2544 4750 2975 4387 
Q 3406 4025 3406 3419 
Q 3406 3131 3298 2873 
Q 3191 2616 2906 2266 
Q 2828 2175 2409 1742 
Q 1991 1309 1228 531 
z
" transform="scale(0.015625)"/>
        <path id="DejaVuSans-30" d="M 2034 4250 
Q 1547 4250 1301 3770 
Q 1056 3291 1056 2328 
Q 1056 1369 1301 889 
Q 1547 409 2034 409 
Q 2525 409 2770 889 
Q 3016 1369 3016 2328 
Q 3016 3291 2770 3770 
Q 2525 4250 2034 4250 
z
M 2034 4750 
Q 2819 4750 3233 4129 
Q 3647 3509 3647 2328 
Q 3647 1150 3233 529 
Q 2819 -91 2034 -91 
Q 1250 -91 836 529 
Q 422 1150 422 2328 
Q 422 3509 836 4129 
Q 1250 4750 2034 4750 
z
" transform="scale(0.015625)"/>
       </defs>
       <use xlink:href="#DejaVuSans-32"/>
       <use xlink:href="#DejaVuSans-30" transform="translate(63.623047 0)"/>
       <use xlink:href="#DejaVuSans-32" transform="translate(127.246094 0)"/>
       <use xlink:href="#DejaVuSans-30" transform="translate(190.869141 0)"/>
      </g>
     </g>
    </g>
    <g id="xtick_2">
     <g id="line2d_2">
      <g>
       <use xlink:href="#mdfcdf5c7bc" x="130.63994" y="224.28" style="stroke: #000000; stroke-width: 0.8"/>
      </g>
     </g>
     <g id="text_2">
      <!-- 2021 -->
      <g transform="translate(117.91494 238.878438) scale(0.1 -0.1)">
       <defs>
        <path id="DejaVuSans-31" d="M 794 531 
L 1825 531 
L 1825 4091 
L 703 3866 
L 703 4441 
L 1819 4666 
L 2450 4666 
L 2450 531 
L 3481 531 
L 3481 0 
L 794 0 
L 794 531 
z
" transform="scale(0.015625)"/>
       </defs>
       <use xlink:href="#DejaVuSans-32"/>
       <use xlink:href="#DejaVuSans-30" transform="translate(63.623047 0)"/>
       <use xlink:href="#DejaVuSans-32" transform="translate(127.246094 0)"/>
       <use xlink:href="#DejaVuSans-31" transform="translate(190.869141 0)"/>
      </g>
     </g>
    </g>
    <g id="xtick_3">
     <g id="line2d_3">
      <g>
       <use xlink:href="#mdfcdf5c7bc" x="189.51981" y="224.28" style="stroke: #000000; stroke-width: 0.8"/>
      </g>
     </g>
     <g id="text_3">
      <!-- 2022 -->
      <g transform="translate(176.79481 238.878438) scale(0.1 -0.1)">
       <use xlink:href="#DejaVuSans-32"/>
       <use xlink:href="#DejaVuSans-30" transform="translate(63.623047 0)"/>
       <use xlink:href="#DejaVuSans-32" transform="translate(127.246094 0)"/>
       <use xlink:href="#DejaVuSans-32" transform="translate(190.869141 0)"/>
      </g>
     </g>
    </g>
    <g id="xtick_4">
     <g id="line2d_4">
      <g>
       <use xlink:href="#mdfcdf5c7bc" x="248.39968" y="224.28" style="stroke: #000000; stroke-width: 0.8"/>
      </g>
     </g>
     <g id="text_4">
      <!-- 2023 -->
      <g transform="translate(235.67468 238.878438) scale(0.1 -0.1)">
       <defs>
        <path id="DejaVuSans-33" d="M 2597 2516 
Q 3050 2419 3304 2112 
Q 3559 1806 3559 1356 
Q 3559 666 3084 287 
Q 2609 -91 1734 -91 
Q 1441 -91 1130 -33 
Q 819 25 488 141 
L 488 750 
Q 750 597 1062 519 
Q 1375 441 1716 441 
Q 2309 441 2620 675 
Q 2931 909 2931 1356 
Q 2931 1769 2642 2001 
Q 2353 2234 1838 2234 
L 1294 2234 
L 1294 2753 
L 1863 2753 
Q 2328 2753 2575 2939 
Q 2822 3125 2822 3475 
Q 2822 3834 2567 4026 
Q 2313 4219 1838 4219 
Q 1578 4219 1281 4162 
Q 984 4106 628 3988 
L 628 4550 
Q 988 4650 1302 4700 
Q 1616 4750 1894 4750 
Q 2613 4750 3031 4423 
Q 3450 4097 3450 3541 
Q 3450 3153 3228 2886 
Q 3006 2619 2597 2516 
z
" transform="scale(0.015625)"/>
       </defs>
       <use xlink:href="#DejaVuSans-32"/>
       <use xlink:href="#DejaVuSans-30" transform="translate(63.623047 0)"/>
       <use xlink:href="#DejaVuSans-32" transform="translate(127.246094 0)"/>
       <use xlink:href="#DejaVuSans-33" transform="translate(190.869141 0)"/>
      </g>
     </g>
    </g>
    <g id="xtick_5">
     <g id="line2d_5">
      <g>
       <use xlink:href="#mdfcdf5c7bc" x="307.27955" y="224.28" style="stroke: #000000; stroke-width: 0.8"/>
      </g>
     </g>
     <g id="text_5">
      <!-- 2024 -->
      <g transform="translate(294.55455 238.878438) scale(0.1 -0.1)">
       <defs>
        <path id="DejaVuSans-34" d="M 2419 4116 
L 825 1625 
L 2419 1625 
L 2419 4116 
z
M 2253 4666 
L 3047 4666 
L 3047 1625 
L 3713 1625 
L 3713 1100 
L 3047 1100 
L 3047 0 
L 2419 0 
L 2419 1100 
L 313 1100 
L 313 1709 
L 2253 4666 
z
" transform="scale(0.015625)"/>
       </defs>
       <use xlink:href="#DejaVuSans-32"/>
       <use xlink:href="#DejaVuSans-30" transform="translate(63.623047 0)"/>
       <use xlink:href="#DejaVuSans-32" transform="translate(127.246094 0)"/>
       <use xlink:href="#DejaVuSans-34" transform="translate(190.869141 0)"/>
      </g>
     </g>
    </g>
    <g id="xtick_6">
     <g id="line2d_6">
      <g>
       <use xlink:href="#mdfcdf5c7bc" x="366.320735" y="224.28" style="stroke: #000000; stroke-width: 0.8"/>
      </g>
     </g>
     <g id="text_6">
      <!-- 2025 -->
      <g transform="translate(353.595735 238.878438) scale(0.1 -0.1)">
       <defs>
        <path id="DejaVuSans-35" d="M 691 4666 
L 3169 4666 
L 3169 4134 
L 1269 4134 
L 1269 2991 
Q 1406 3038 1543 3061 
Q 1681 3084 1819 3084 
Q 2600 3084 3056 2656 
Q 3513 2228 3513 1497 
Q 3513 744 3044 326 
Q 2575 -91 1722 -91 
Q 1428 -91 1123 -41 
Q 819 9 494 109 
L 494 744 
Q 775 591 1075 516 
Q 1375 441 1709 441 
Q 2250 441 2565 725 
Q 2881 1009 2881 1497 
Q 2881 1984 2565 2268 
Q 2250 2553 1709 2553 
Q 1456 2553 1204 2497 
Q 953 2441 691 2322 
L 691 4666 
z
" transform="scale(0.015625)"/>
       </defs>
       <use xlink:href="#DejaVuSans-32"/>
       <use xlink:href="#DejaVuSans-30" transform="translate(63.623047 0)"/>
       <use xlink:href="#DejaVuSans-32" transform="translate(127.246094 0)"/>
       <use xlink:href="#DejaVuSans-35" transform="translate(190.869141 0)"/>
      </g>
     </g>
    </g>
   </g>
   <g id="matplotlib.axis_2">
    <g id="ytick_1">
     <g id="line2d_7">
      <defs>
       <path id="m9450eca624" d="M 0 0 
L -3.5 0 
" style="stroke: #000000; stroke-width: 0.8"/>
      </defs>
      <g>
       <use xlink:href="#m9450eca624" x="58.5" y="220.300369" style="stroke: #000000; stroke-width: 0.8"/>
      </g>
     </g>
     <g id="text_7">
      <!-- 0 -->
      <g transform="translate(45.1375 224.099588) scale(0.1 -0.1)">
       <use xlink:href="#DejaVuSans-30"/>
      </g>
     </g>
    </g>
    <g id="ytick_2">
     <g id="line2d_8">
      <g>
       <use xlink:href="#m9450eca624" x="58.5" y="195.562385" style="stroke: #000000; stroke-width: 0.8"/>
      </g>
     </g>
     <g id="text_8">
      <!-- 25 -->
      <g transform="translate(38.775 199.361604) scale(0.1 -0.1)">
       <use xlink:href="#DejaVuSans-32"/>
       <use xlink:href="#DejaVuSans-35" transform="translate(63.623047 0)"/>
      </g>
     </g>
    </g>
    <g id="ytick_3">
     <g id="line2d_9">
      <g>
       <use xlink:href="#m9450eca624" x="58.5" y="170.824401" style="stroke: #000000; stroke-width: 0.8"/>
      </g>
     </g>
     <g id="text_9">
      <!-- 50 -->
      <g transform="translate(38.775 174.62362) scale(0.1 -0.1)">
       <use xlink:href="#DejaVuSans-35"/>
       <use xlink:href="#DejaVuSans-30" transform="translate(63.623047 0)"/>
      </g>
     </g>
    </g>
    <g id="ytick_4">
     <g id="line2d_10">
      <g>
       <use xlink:href="#m9450eca624" x="58.5" y="146.086417" style="stroke: #000000; stroke-width: 0.8"/>
      </g>
     </g>
     <g id="text_10">
      <!-- 75 -->
      <g transform="translate(38.775 149.885636) scale(0.1 -0.1)">
       <defs>
        <path id="DejaVuSans-37" d="M 525 4666 
L 3525 4666 
L 3525 4397 
L 1831 0 
L 1172 0 
L 2766 4134 
L 525 4134 
L 525 4666 
z
" transform="scale(0.015625)"/>
       </defs>
       <use xlink:href="#DejaVuSans-37"/>
       <use xlink:href="#DejaVuSans-35" transform="translate(63.623047 0)"/>
      </g>
     </g>
    </g>
    <g id="ytick_5">
     <g id="line2d_11">
      <g>
       <use xlink:href="#m9450eca624" x="58.5" y="121.348433" style="stroke: #000000; stroke-width: 0.8"/>
      </g>
     </g>
     <g id="text_11">
      <!-- 100 -->
      <g transform="translate(32.4125 125.147652) scale(0.1 -0.1)">
       <use xlink:href="#DejaVuSans-31"/>
       <use xlink:href="#DejaVuSans-30" transform="translate(63.623047 0)"/>
       <use xlink:href="#DejaVuSans-30" transform="translate(127.246094 0)"/>
      </g>
     </g>
    </g>
    <g id="ytick_6">
     <g id="line2d_12">
      <g>
       <use xlink:href="#m9450eca624" x="58.5" y="96.61045" style="stroke: #000000; stroke-width: 0.8"/>
      </g>
     </g>
     <g id="text_12">
      <!-- 125 -->
      <g transform="translate(32.4125 100.409668) scale(0.1 -0.1)">
       <use xlink:href="#DejaVuSans-31"/>
       <use xlink:href="#DejaVuSans-32" transform="translate(63.623047 0)"/>
       <use xlink:href="#DejaVuSans-35" transform="translate(127.246094 0)"/>
      </g>
     </g>
    </g>
    <g id="ytick_7">
     <g id="line2d_13">
      <g>
       <use xlink:href="#m9450eca624" x="58.5" y="71.872466" style="stroke: #000000; stroke-width: 0.8"/>
      </g>
     </g>
     <g id="text_13">
      <!-- 150 -->
      <g transform="translate(32.4125 75.671684) scale(0.1 -0.1)">
       <use xlink:href="#DejaVuSans-31"/>
       <use xlink:href="#DejaVuSans-35" transform="translate(63.623047 0)"/>
       <use xlink:href="#DejaVuSans-30" transform="translate(127.246094 0)"/>
      </g>
     </g>
    </g>
    <g id="ytick_8">
     <g id="line2d_14">
      <g>
       <use xlink:href="#m9450eca624" x="58.5" y="47.134482" style="stroke: #000000; stroke-width: 0.8"/>
      </g>
     </g>
     <g id="text_14">
      <!-- 175 -->
      <g transform="translate(32.4125 50.9337) scale(0.1 -0.1)">
       <use xlink:href="#DejaVuSans-31"/>
       <use xlink:href="#DejaVuSans-37" transform="translate(63.623047 0)"/>
       <use xlink:href="#DejaVuSans-35" transform="translate(127.246094 0)"/>
      </g>
     </g>
    </g>
   </g>
   <g id="line2d_15">
    <path d="M 74.986364 214.139976 
L 75.147678 214.072241 
L 75.792937 214.384068 
L 75.954252 214.192687 
L 76.438196 214.476925 
L 76.92214 214.380865 
L 77.406084 214.038006 
L 77.567399 214.103524 
L 78.535287 213.63086 
L 78.696602 213.16263 
L 79.341861 212.995632 
L 79.503176 212.549078 
L 79.66449 212.696862 
L 79.825805 213.05721 
L 80.471064 213.845886 
L 80.632379 213.707954 
L 80.793693 214.074925 
L 80.955008 213.644369 
L 81.438952 213.487624 
L 81.600267 213.747386 
L 81.761582 213.288488 
L 82.084211 213.74369 
L 82.568155 214.251388 
L 82.72947 213.865932 
L 82.890785 214.226002 
L 83.052099 214.969307 
L 83.213414 214.364756 
L 83.697358 215.46 
L 83.858673 214.945649 
L 84.019988 215.301776 
L 84.181302 215.051625 
L 84.342617 215.229565 
L 84.826561 215.058525 
L 84.987876 214.159213 
L 85.149191 214.246949 
L 85.310505 213.960569 
L 85.47182 214.071722 
L 85.955764 213.754781 
L 86.117079 213.803825 
L 86.278394 214.309796 
L 86.439708 214.004193 
L 86.601023 214.289094 
L 87.084967 213.685527 
L 87.246282 213.916454 
L 87.407597 213.721262 
L 87.568911 213.819845 
L 88.21417 213.649791 
L 88.375485 213.302289 
L 88.5368 213.378938 
L 88.698114 213.03735 
L 89.343373 213.225889 
L 89.504688 213.65817 
L 89.666002 213.24807 
L 89.827317 213.300811 
L 89.988632 213.16329 
L 90.472576 212.978695 
L 90.633891 213.119667 
L 90.795205 212.944685 
L 91.117835 213.331125 
L 91.924408 212.961196 
L 92.247038 212.598663 
L 92.730982 212.349249 
L 92.892297 212.60852 
L 93.053611 212.630701 
L 93.214926 212.383753 
L 93.376241 211.930032 
L 94.182814 211.457576 
L 94.344129 211.649565 
L 94.505444 211.402124 
L 95.473332 211.933725 
L 95.634647 211.550737 
L 96.602535 211.654247 
L 96.76385 211.502852 
L 97.247794 211.616276 
L 97.570423 211.062238 
L 97.731738 211.624905 
L 97.893053 211.490525 
L 98.376997 211.25259 
L 98.538312 211.356395 
L 98.699626 211.191193 
L 99.022256 211.166292 
L 99.5062 210.904438 
L 99.667515 210.980132 
L 99.828829 211.191685 
L 99.990144 210.940682 
L 100.151459 211.271079 
L 100.635403 211.226699 
L 100.796718 210.933037 
L 101.119347 210.820111 
L 101.925921 210.564174 
L 102.24855 209.935675 
L 102.409865 209.965016 
L 102.893809 210.386152 
L 103.055124 210.065861 
L 103.377753 210.304785 
L 104.023012 209.933948 
L 104.184327 210.113695 
L 104.345641 210.004958 
L 104.506956 210.309717 
L 105.152215 210.021973 
L 105.31353 210.225147 
L 105.636159 209.832116 
L 105.797474 209.831376 
L 106.765362 209.120523 
L 106.926677 209.254654 
L 107.410621 209.288682 
L 107.571936 209.599359 
L 107.73325 209.017211 
L 107.894565 209.0145 
L 108.05588 208.895161 
L 108.539824 208.132777 
L 109.023768 208.326084 
L 109.185083 207.791032 
L 109.991656 207.702761 
L 110.152971 207.845525 
L 110.314286 207.33316 
L 110.79823 207.109522 
L 111.120859 206.146632 
L 111.282174 207.45975 
L 111.443489 207.84747 
L 112.088748 208.547438 
L 112.250062 207.756213 
L 112.572692 208.299316 
L 113.217951 207.483922 
L 113.379265 207.954021 
L 113.54058 208.004334 
L 113.701895 208.274898 
L 114.347154 207.832427 
L 114.508468 208.339518 
L 114.669783 208.118282 
L 114.831098 207.599598 
L 115.315042 207.440513 
L 115.798986 206.8688 
L 115.960301 207.41363 
L 116.766874 206.523996 
L 117.089504 206.722542 
L 117.734762 206.243566 
L 118.218707 206.674448 
L 118.702651 206.983982 
L 118.863965 206.838218 
L 119.186595 207.118892 
L 119.34791 206.892724 
L 119.831854 207.335688 
L 119.993168 207.083626 
L 120.154483 207.843031 
L 120.315798 207.451366 
L 120.477113 207.93478 
L 120.961057 207.888661 
L 121.122371 207.455803 
L 121.445001 206.33063 
L 121.606316 205.93403 
L 122.09026 206.852768 
L 122.251574 207.701953 
L 122.412889 207.062659 
L 122.574204 207.02443 
L 122.735519 207.182036 
L 123.219463 206.966716 
L 123.542092 207.052054 
L 123.703407 207.040707 
L 123.864722 207.388471 
L 124.348666 207.336924 
L 124.50998 207.516726 
L 124.671295 207.243448 
L 125.639183 207.090283 
L 125.800498 206.937858 
L 125.961813 207.080459 
L 126.123128 206.920341 
L 126.607072 206.87248 
L 127.091016 207.498641 
L 127.252331 207.458177 
L 127.897589 207.115491 
L 128.058904 207.231941 
L 128.220219 207.134489 
L 128.381534 207.20283 
L 129.026792 207.196662 
L 129.188107 207.462127 
L 130.155995 207.527259 
L 130.31731 207.327419 
L 130.478625 207.416976 
L 131.123884 207.359247 
L 131.285198 207.071823 
L 131.446513 207.851686 
L 131.607828 207.131775 
L 131.769143 207.198141 
L 132.253087 206.857923 
L 132.414401 206.992877 
L 132.575716 206.946497 
L 132.898345 207.609907 
L 133.543604 207.446337 
L 133.866234 206.615159 
L 134.027548 206.768119 
L 134.511493 206.826591 
L 134.672807 207.041725 
L 134.834122 207.552423 
L 134.995437 207.420926 
L 135.156751 207.481368 
L 135.640696 207.237368 
L 135.80201 206.921822 
L 135.963325 206.947727 
L 136.12464 206.815736 
L 136.285954 206.888024 
L 136.769899 206.051416 
L 136.931213 206.224609 
L 137.253843 205.250092 
L 137.415157 205.535786 
L 138.060416 205.171636 
L 138.221731 205.590308 
L 138.383046 205.666294 
L 138.54436 205.570079 
L 139.189619 206.344264 
L 139.350934 205.991957 
L 139.512249 207.167798 
L 139.673563 206.766147 
L 140.157508 206.640568 
L 140.641452 208.092725 
L 140.802766 208.002677 
L 141.286711 208.859512 
L 141.448025 207.940434 
L 141.60934 207.991767 
L 141.770655 207.47324 
L 141.931969 207.608984 
L 142.738543 207.129946 
L 142.899858 207.740774 
L 143.545117 207.28296 
L 143.706431 207.39698 
L 143.867746 207.819253 
L 144.029061 207.925625 
L 144.190375 207.625518 
L 144.835634 207.593435 
L 145.158264 206.66547 
L 145.803523 206.491969 
L 145.964837 206.616357 
L 146.287467 206.166689 
L 146.448781 206.08475 
L 147.09404 204.821634 
L 147.255355 205.218981 
L 147.41667 204.369745 
L 148.223243 205.323376 
L 148.384558 205.136551 
L 148.545873 205.640266 
L 148.707187 205.230581 
L 149.191131 205.020555 
L 149.513761 205.219227 
L 149.675076 205.171842 
L 149.83639 205.483056 
L 150.320334 205.653596 
L 150.481649 206.13288 
L 150.804279 205.963328 
L 150.965593 205.677781 
L 151.449537 206.217281 
L 151.610852 206.177302 
L 151.772167 206.718036 
L 151.933482 206.810093 
L 152.094796 206.239742 
L 152.57874 206.316251 
L 152.740055 206.464081 
L 152.90137 206.414724 
L 153.223999 205.500578 
L 153.869258 204.852978 
L 154.030573 204.801397 
L 154.191888 205.010684 
L 154.353202 204.263872 
L 154.998461 204.244123 
L 155.482405 202.947196 
L 155.966349 202.906973 
L 156.288979 203.160452 
L 156.450294 203.094544 
L 156.611608 202.699324 
L 157.095552 202.508263 
L 157.256867 202.735614 
L 157.418182 202.714139 
L 157.579497 201.877794 
L 157.740811 201.89606 
L 158.224755 202.104898 
L 158.547385 201.482825 
L 158.7087 201.336438 
L 158.870014 201.50874 
L 159.353958 200.566744 
L 159.837903 200.342596 
L 159.999217 200.07106 
L 160.644476 199.86222 
L 160.967105 200.647956 
L 161.612364 200.045877 
L 161.934994 200.70844 
L 162.257623 202.367802 
L 162.741567 201.75683 
L 162.902882 201.922474 
L 163.064197 201.134511 
L 163.225511 200.952824 
L 163.386826 200.988371 
L 164.032085 201.333967 
L 164.354714 200.885682 
L 164.516029 201.04663 
L 165.161288 200.734606 
L 165.483917 199.922944 
L 165.645232 200.190535 
L 166.129176 200.260639 
L 166.451806 200.849148 
L 166.774435 200.366296 
L 167.258379 200.6013 
L 167.581009 201.499853 
L 167.903638 199.746195 
L 168.387582 198.618558 
L 168.548897 198.781483 
L 168.710212 198.366768 
L 168.871526 198.509945 
L 169.032841 197.949086 
L 169.516785 197.897744 
L 169.6781 198.193033 
L 170.000729 198.182169 
L 170.162044 197.740712 
L 170.807303 197.919468 
L 171.129932 198.398451 
L 171.291247 198.10119 
L 171.775191 198.423145 
L 172.097821 198.236485 
L 172.259135 198.334258 
L 172.904394 199.449255 
L 173.065709 199.317902 
L 173.388338 198.097236 
L 173.549653 198.493264 
L 174.033597 198.909038 
L 174.194912 199.858123 
L 174.356227 200.037865 
L 174.678856 199.815653 
L 175.1628 200.813124 
L 175.48543 199.857132 
L 175.646744 199.486779 
L 175.808059 199.727757 
L 176.453318 199.885774 
L 176.614633 199.621095 
L 176.775947 198.824105 
L 177.582521 198.286853 
L 177.743836 198.471535 
L 177.90515 197.88984 
L 178.066465 197.856262 
L 178.550409 197.42172 
L 178.711724 195.889961 
L 178.873039 196.152661 
L 179.195668 195.050504 
L 179.679612 194.793728 
L 180.002242 194.032291 
L 180.163556 190.86902 
L 180.324871 190.917411 
L 180.808815 189.878464 
L 180.97013 190.02364 
L 181.131445 191.206777 
L 181.292759 190.287328 
L 181.454074 190.287328 
L 181.938018 190.647798 
L 182.099333 190.472006 
L 182.260648 191.402321 
L 182.583277 187.724514 
L 183.228536 188.948145 
L 183.389851 188.031659 
L 183.71248 189.188132 
L 184.196424 187.338368 
L 184.357739 188.029689 
L 184.519054 189.251485 
L 184.680368 188.568975 
L 184.841683 189.984371 
L 185.325627 190.632315 
L 185.486942 188.271675 
L 185.648257 188.865292 
L 185.809571 190.18488 
L 185.970886 190.473295 
L 186.45483 192.485272 
L 186.616145 192.311437 
L 186.77746 190.215501 
L 186.938774 192.262045 
L 187.100089 192.84085 
L 187.584033 192.921846 
L 187.745348 191.582498 
L 188.713236 189.735472 
L 189.035866 190.667874 
L 189.358495 191.250628 
L 189.842439 190.549344 
L 190.003754 191.37014 
L 190.165068 193.035431 
L 190.326383 192.468482 
L 190.487698 193.388047 
L 190.971642 193.236926 
L 191.294271 192.645284 
L 191.455586 194.051789 
L 191.616901 193.689301 
L 192.26216 194.715539 
L 192.746104 197.213473 
L 193.230048 197.215449 
L 193.391363 198.250578 
L 193.552677 197.808083 
L 193.713992 198.625912 
L 193.875307 197.740916 
L 194.359251 196.115128 
L 194.520566 195.965 
L 194.68188 195.368418 
L 194.843195 196.646526 
L 195.00451 196.280078 
L 195.488454 195.876104 
L 195.649769 195.500769 
L 195.811083 193.923388 
L 195.972398 194.793568 
L 196.133713 196.645538 
L 196.617657 196.331444 
L 196.778972 194.130807 
L 196.940286 194.115006 
L 197.262916 196.948769 
L 197.908175 197.197674 
L 198.069489 198.188352 
L 198.230804 196.844068 
L 198.392119 196.440094 
L 198.876063 196.214896 
L 199.037378 197.111739 
L 199.198692 196.373793 
L 200.005266 199.207046 
L 200.166581 199.047004 
L 200.327895 197.56518 
L 201.134469 199.228777 
L 201.457098 196.101132 
L 201.618413 195.834403 
L 201.779728 194.167839 
L 202.263672 193.890244 
L 202.424987 194.097703 
L 202.586301 194.976921 
L 202.747616 192.491398 
L 202.908931 192.943853 
L 203.392875 192.423235 
L 203.55419 191.991528 
L 203.876819 193.344934 
L 204.038134 193.911975 
L 204.522078 193.271827 
L 204.844707 196.189056 
L 205.006022 196.38564 
L 205.167337 197.461449 
L 205.812596 199.056888 
L 205.97391 198.366356 
L 206.135225 199.299904 
L 206.780484 198.781266 
L 206.941799 198.371294 
L 207.103113 199.078617 
L 207.425743 201.021788 
L 207.909687 200.639476 
L 208.232316 202.108462 
L 208.393631 200.758026 
L 208.554946 201.978062 
L 209.03889 201.004008 
L 209.200205 200.935844 
L 209.361519 200.212712 
L 209.522834 201.684661 
L 209.684149 201.851615 
L 210.168093 203.555712 
L 210.329408 202.918531 
L 210.652037 204.321327 
L 210.813352 202.808873 
L 211.297296 203.245525 
L 211.458611 202.343583 
L 211.619925 203.567573 
L 211.78124 203.383825 
L 211.942555 203.808611 
L 212.426499 203.607084 
L 212.587814 204.342073 
L 213.071758 201.717261 
L 213.717017 201.854574 
L 213.878331 202.202312 
L 214.039646 200.945724 
L 214.200961 201.807158 
L 214.684905 201.741959 
L 214.84622 201.60365 
L 215.007534 201.874389 
L 215.168849 202.467248 
L 215.330164 203.528457 
L 215.814108 204.839661 
L 215.975423 204.652912 
L 216.136737 203.970137 
L 216.298052 204.885112 
L 216.459367 204.609434 
L 217.104626 203.931604 
L 217.427255 204.268543 
L 217.58857 203.378272 
L 218.072514 203.632217 
L 218.395143 204.943411 
L 218.717773 205.950279 
L 219.524346 205.350506 
L 219.685661 204.631173 
L 219.846976 204.650935 
L 220.492234 205.397935 
L 220.653549 205.316909 
L 221.460123 204.39107 
L 221.782752 202.70538 
L 221.944067 202.465272 
L 222.105382 203.187568 
L 222.589326 203.479054 
L 222.75064 203.964209 
L 222.911955 202.722178 
L 223.234585 202.353618 
L 223.879843 201.994941 
L 224.202473 201.314142 
L 224.363788 201.537451 
L 224.847732 202.719213 
L 225.009046 203.417794 
L 225.170361 202.41883 
L 225.331676 202.571985 
L 225.492991 201.814117 
L 225.976935 201.494962 
L 226.138249 201.646142 
L 226.299564 202.183663 
L 226.460879 201.750879 
L 226.622194 202.663879 
L 227.106138 203.469177 
L 227.428767 203.283414 
L 227.590082 202.600641 
L 227.751397 204.233955 
L 228.235341 204.687493 
L 228.55797 205.386076 
L 228.719285 206.529302 
L 228.8806 206.815849 
L 229.525858 206.995681 
L 230.009803 206.080437 
L 230.493747 205.963805 
L 230.655061 207.321851 
L 230.816376 207.324815 
L 230.977691 207.521505 
L 231.139006 207.255629 
L 231.62295 207.073766 
L 231.784264 207.277375 
L 231.945579 207.19336 
L 232.106894 207.885231 
L 232.268209 207.92971 
L 232.752153 208.214363 
L 233.074782 207.712263 
L 233.236097 208.222272 
L 233.397411 208.302333 
L 233.881356 207.933662 
L 234.04267 207.286269 
L 234.203985 207.244758 
L 234.3653 207.322838 
L 234.526614 208.364599 
L 235.333188 208.933912 
L 235.494503 208.479253 
L 235.655817 209.20374 
L 236.301076 208.472334 
L 236.623706 208.247969 
L 236.78502 207.979129 
L 237.268965 207.847672 
L 237.430279 207.19336 
L 237.591594 207.554123 
L 237.752909 207.277375 
L 237.914223 206.627013 
L 238.398168 206.9601 
L 238.559482 206.914632 
L 238.720797 207.234872 
L 238.882112 207.03522 
L 239.043426 206.308752 
L 239.527371 206.165437 
L 239.688685 205.86793 
L 239.85 206.68434 
L 240.011315 204.733263 
L 240.172629 204.162966 
L 240.656574 204.194593 
L 240.817888 203.827898 
L 241.140518 204.805416 
L 241.301832 205.070303 
L 241.785777 205.161234 
L 242.108406 203.973194 
L 243.076294 204.842974 
L 243.237609 203.569602 
L 243.398924 203.360014 
L 243.560238 203.61607 
L 244.044183 203.879051 
L 244.205497 204.494972 
L 244.366812 204.363483 
L 244.528127 203.326398 
L 244.689441 203.492494 
L 245.173386 202.964558 
L 245.3347 202.433659 
L 245.496015 202.827137 
L 245.818644 203.91761 
L 246.463903 204.398086 
L 246.625218 203.98681 
L 246.786533 205.135612 
L 246.947847 205.267102 
L 247.754421 206.423811 
L 247.915736 205.863253 
L 248.07705 205.852378 
L 248.722309 206.14798 
L 248.883624 205.718909 
L 249.044939 206.197412 
L 249.206253 205.610159 
L 250.174142 203.976927 
L 250.335456 203.593331 
L 250.980715 202.799454 
L 251.14203 203.120763 
L 251.303345 203.725811 
L 251.464659 202.664009 
L 251.948603 201.325387 
L 252.271233 201.196867 
L 252.593862 200.166708 
L 253.077806 201.35604 
L 253.239121 200.985296 
L 253.561751 198.837971 
L 253.723065 199.440056 
L 254.207009 199.450929 
L 254.368324 198.379243 
L 254.690954 198.217106 
L 254.852268 199.276929 
L 255.336212 198.759867 
L 255.497527 197.590309 
L 255.658842 197.794955 
L 255.981471 199.155323 
L 256.62673 199.880003 
L 256.788045 199.782122 
L 256.94936 196.905179 
L 257.110674 197.278885 
L 257.594618 197.066327 
L 257.755933 197.348091 
L 257.917248 197.860205 
L 258.239877 196.681749 
L 258.723821 197.013932 
L 258.885136 197.272998 
L 259.046451 196.389994 
L 259.36908 197.592379 
L 259.853024 197.591396 
L 260.014339 196.506674 
L 260.175654 196.34352 
L 260.336969 195.045213 
L 260.498283 194.863272 
L 260.982227 194.690233 
L 261.304857 194.128586 
L 261.466171 193.413679 
L 261.627486 193.821069 
L 262.272745 194.185939 
L 262.756689 192.834235 
L 263.240633 192.64834 
L 263.563263 193.720207 
L 264.369836 193.03002 
L 264.85378 194.133532 
L 265.015095 193.841834 
L 265.499039 193.600563 
L 265.821669 192.681961 
L 265.982983 193.499705 
L 266.144298 193.484872 
L 266.628242 193.56101 
L 266.789557 194.353045 
L 267.112186 193.37907 
L 267.273501 192.861921 
L 267.757445 191.713916 
L 268.080075 192.809515 
L 268.241389 193.046829 
L 268.402704 191.941341 
L 268.886648 191.475615 
L 269.047963 192.049124 
L 269.209278 191.738635 
L 269.531907 192.277534 
L 270.177166 191.414304 
L 270.499795 188.976896 
L 270.66111 189.386262 
L 271.145054 189.473276 
L 271.467684 190.104135 
L 271.628998 182.745421 
L 271.790313 181.790241 
L 272.435572 180.638269 
L 272.596887 182.889789 
L 272.758201 180.975457 
L 272.919516 181.413497 
L 273.40346 181.567755 
L 273.564775 182.078965 
L 273.72609 183.240944 
L 273.887404 182.217414 
L 274.532663 181.256197 
L 274.855293 177.78017 
L 275.016607 178.120355 
L 275.177922 178.081793 
L 275.823181 176.978171 
L 275.984496 177.732703 
L 276.14581 177.752483 
L 276.307125 178.55943 
L 276.791069 180.118943 
L 276.952384 178.888737 
L 277.275013 179.931057 
L 277.436328 178.467467 
L 277.920272 178.357698 
L 278.242902 178.452625 
L 278.404216 178.664258 
L 278.565531 178.268698 
L 279.049475 178.588114 
L 279.21079 178.365606 
L 279.533419 174.833211 
L 279.694734 175.335581 
L 280.178678 174.354585 
L 280.339993 173.33304 
L 280.501308 173.745417 
L 280.823937 176.482721 
L 281.307881 176.183084 
L 281.469196 175.127915 
L 281.630511 175.352397 
L 281.791825 174.909362 
L 281.95314 174.068789 
L 282.437084 174.089558 
L 282.598399 174.309095 
L 282.759714 176.52228 
L 283.566287 175.387004 
L 283.727602 176.131657 
L 283.888917 178.218264 
L 284.050231 178.382419 
L 284.211546 179.89842 
L 284.69549 177.032557 
L 284.856805 176.847634 
L 285.179434 177.437022 
L 285.340749 177.481522 
L 285.824693 173.854201 
L 285.986008 175.138793 
L 286.147323 173.706847 
L 286.308637 173.660373 
L 286.469952 174.792667 
L 286.953896 173.984734 
L 287.115211 172.057345 
L 287.276526 171.582663 
L 287.43784 171.492674 
L 287.599155 172.329298 
L 288.244414 172.290728 
L 288.567043 174.568377 
L 288.728358 175.230009 
L 289.212302 175.619677 
L 289.373617 175.924293 
L 289.534932 175.31605 
L 289.696246 175.221112 
L 289.857561 176.883611 
L 290.341505 176.818335 
L 290.50282 177.259425 
L 290.825449 179.734873 
L 290.986764 179.148403 
L 291.470708 178.543139 
L 291.632023 178.850714 
L 292.115967 177.280198 
L 292.599911 176.011319 
L 292.761226 177.262396 
L 293.083855 176.104287 
L 293.24517 175.042108 
L 293.729114 175.525724 
L 293.890429 175.006497 
L 294.051743 174.009598 
L 294.213058 173.872127 
L 294.374373 175.339793 
L 294.858317 174.712767 
L 295.180946 178.568852 
L 295.342261 178.662805 
L 295.503576 179.368948 
L 296.148835 177.118006 
L 296.471464 180.418267 
L 297.116723 179.592457 
L 297.278038 179.969264 
L 297.761982 175.790774 
L 298.407241 174.851228 
L 298.72987 173.867182 
L 298.891185 172.497428 
L 299.375129 172.215566 
L 299.536444 171.190975 
L 299.697758 171.950516 
L 299.859073 171.365031 
L 300.020388 171.545025 
L 300.504332 170.446258 
L 300.665647 170.906139 
L 300.826961 172.120628 
L 301.149591 173.050273 
L 301.633535 172.589402 
L 301.79485 173.005773 
L 301.956164 172.690278 
L 302.117479 174.045201 
L 302.278794 174.05015 
L 302.762738 175.291337 
L 302.924053 174.242906 
L 303.085367 175.2943 
L 303.407997 173.313174 
L 303.891941 174.182574 
L 304.21457 172.737526 
L 304.375885 172.478396 
L 304.5372 171.944288 
L 305.021144 170.770246 
L 305.182459 171.238088 
L 305.343773 172.714783 
L 305.505088 171.845379 
L 305.666403 172.003627 
L 306.795606 171.319188 
L 307.440865 172.658404 
L 307.602179 173.250861 
L 307.763494 172.826545 
L 308.731382 166.543914 
L 308.892697 166.077072 
L 309.054012 166.187849 
L 309.699271 164.534104 
L 309.860585 164.859507 
L 310.0219 163.817021 
L 310.183215 161.459061 
L 310.667159 161.297839 
L 310.828474 161.081227 
L 310.989788 159.608491 
L 311.151103 159.356272 
L 311.312418 159.935876 
L 311.957677 158.21191 
L 312.118991 159.445291 
L 312.280306 157.961673 
L 312.441621 154.862876 
L 312.925565 151.725527 
L 313.08688 152.822415 
L 313.248194 150.966907 
L 313.409509 151.419904 
L 313.570824 148.955104 
L 314.054768 148.841372 
L 314.216083 148.960049 
L 314.377397 147.207403 
L 314.538712 148.435854 
L 314.700027 148.480365 
L 315.345286 151.606828 
L 315.5066 153.565211 
L 315.667915 142.620065 
L 315.82923 142.34411 
L 316.313174 142.072104 
L 316.474489 142.458854 
L 316.635803 143.485509 
L 316.797118 142.052332 
L 316.958433 138.919929 
L 317.603692 135.271167 
L 317.926321 128.639088 
L 318.087636 133.724182 
L 318.57158 135.45911 
L 318.732895 129.386859 
L 318.894209 130.400725 
L 319.055524 133.312708 
L 319.216839 133.418536 
L 319.700783 132.807258 
L 320.184727 129.859672 
L 320.346042 127.036713 
L 320.829986 126.331467 
L 321.152615 131.031775 
L 321.31393 130.926936 
L 321.959189 130.920013 
L 322.281818 132.303802 
L 322.443133 135.329539 
L 322.604448 133.249398 
L 323.088392 134.114888 
L 323.249706 135.874555 
L 323.411021 134.207859 
L 323.572336 130.669764 
L 323.733651 133.073338 
L 324.217595 135.23459 
L 324.378909 133.835952 
L 324.540224 137.179196 
L 324.701539 136.550124 
L 324.862854 144.928999 
L 325.346798 141.647079 
L 325.508112 138.773674 
L 325.669427 141.489809 
L 325.830742 138.566932 
L 325.992057 133.519426 
L 326.476001 133.497684 
L 326.637315 134.837928 
L 326.79863 138.162396 
L 327.12126 132.476895 
L 327.605204 129.162339 
L 327.766518 130.731096 
L 327.927833 130.871546 
L 328.089148 132.51844 
L 328.250463 131.399734 
L 328.734407 130.884402 
L 328.895721 129.937802 
L 329.057036 126.699427 
L 329.218351 126.967469 
L 329.379666 128.827023 
L 330.024924 125.951633 
L 330.186239 126.382902 
L 330.347554 117.630111 
L 330.508869 114.989153 
L 331.315442 106.724026 
L 331.476757 111.001988 
L 331.638072 111.859566 
L 332.28333 105.129563 
L 332.444645 99.191827 
L 332.60596 100.618142 
L 332.767275 100.726952 
L 333.251219 99.83476 
L 333.412533 100.695357 
L 333.896477 89.843771 
L 334.380422 90.734046 
L 334.541736 86.1837 
L 334.864366 90.931901 
L 335.02568 95.096463 
L 335.509625 103.465154 
L 335.670939 95.571278 
L 335.832254 95.264627 
L 335.993569 97.648617 
L 336.154883 98.093755 
L 336.638828 97.341952 
L 336.800142 98.954367 
L 336.961457 93.404915 
L 337.284086 95.828464 
L 337.768031 93.484048 
L 338.09066 86.846465 
L 338.251975 94.275417 
L 338.413289 92.455271 
L 338.897234 93.246633 
L 339.058548 95.304186 
L 339.219863 103.583854 
L 339.381178 100.517319 
L 339.542492 103.643207 
L 340.026437 98.093755 
L 340.187751 99.033508 
L 340.349066 107.283491 
L 340.510381 109.232219 
L 340.671695 108.460644 
L 341.15564 109.914779 
L 341.316954 117.68994 
L 341.478269 104.543394 
L 341.639584 112.269085 
L 342.284843 120.934543 
L 342.446157 117.17556 
L 342.607472 122.457913 
L 342.768787 116.463323 
L 342.930101 116.680951 
L 343.414046 112.457043 
L 343.57536 105.413889 
L 343.736675 103.494816 
L 344.059304 97.064978 
L 344.543249 91.703499 
L 344.704563 94.423794 
L 344.865878 93.18728 
L 345.027193 97.895922 
L 345.188507 92.32669 
L 345.672452 95.205266 
L 345.833766 93.38512 
L 345.995081 96.046092 
L 346.156396 103.979535 
L 346.31771 102.218743 
L 347.124284 115.236706 
L 347.285599 114.247504 
L 347.446913 118.58023 
L 348.092172 113.367112 
L 348.253487 104.652189 
L 348.414802 102.436181 
L 348.576116 102.475763 
L 349.221375 105.94817 
L 349.38269 108.144399 
L 349.544005 103.692588 
L 349.705319 105.542562 
L 350.189263 105.285338 
L 350.511893 98.112976 
L 350.673208 97.588652 
L 350.834522 100.200379 
L 351.318466 100.160812 
L 351.479781 104.553269 
L 351.641096 102.723082 
L 351.963725 96.718082 
L 352.447669 93.948059 
L 352.608984 88.833431 
L 352.770299 89.07086 
L 352.931614 86.933978 
L 353.092928 86.943868 
L 353.576872 83.708875 
L 353.738187 90.109602 
L 353.899502 86.033738 
L 354.222131 83.778149 
L 354.706075 78.129285 
L 354.86739 78.247992 
L 355.028705 82.234848 
L 355.351334 80.276057 
L 355.835278 81.28513 
L 355.996593 80.562951 
L 356.157908 82.452498 
L 356.319223 88.962028 
L 356.480537 86.350301 
L 356.964481 85.707256 
L 357.448426 73.014634 
L 357.60974 74.251277 
L 358.093684 76.595889 
L 358.254999 73.598357 
L 358.416314 75.596722 
L 358.577629 75.111973 
L 358.738943 79.840772 
L 359.222887 81.651186 
L 359.384202 74.864638 
L 359.545517 75.972638 
L 359.706832 75.200981 
L 359.868146 79.870456 
L 360.35209 85.73694 
L 360.513405 84.846575 
L 360.67472 86.40967 
L 360.997349 83.530814 
L 361.481293 83.154898 
L 361.642608 81.542339 
L 361.803923 76.714597 
L 361.965238 76.783855 
L 362.126552 79.375983 
L 362.610496 82.96737 
L 362.771811 86.667559 
L 362.933126 82.472686 
L 363.255755 87.478836 
L 363.739699 89.704907 
L 364.062329 92.76202 
L 364.223643 91.010869 
L 364.384958 87.033631 
L 365.030217 81.572355 
L 365.352846 81.859279 
L 365.514161 84.748206 
L 365.998105 84.273316 
L 366.15942 87.439262 
L 366.482049 83.462039 
L 366.643364 77.367577 
L 367.127308 72.46037 
L 367.288623 81.651519 
L 367.449938 81.681188 
L 367.772567 85.836487 
L 368.417826 89.942352 
L 368.579141 85.510004 
L 368.740455 88.151596 
L 368.90177 84.055651 
L 369.547029 80.968854 
L 369.708344 74.795229 
L 369.869658 74.646837 
L 370.030973 79.197907 
L 370.514917 103.140408 
L 370.676232 92.682857 
L 370.837547 97.916585 
L 370.998861 96.976688 
L 371.160176 101.507956 
L 371.64412 104.881669 
L 371.805435 102.912845 
L 372.128064 92.98959 
L 372.773323 88.151596 
L 372.934638 88.913394 
L 373.095953 90.555743 
L 373.418582 82.927781 
L 374.063841 82.383633 
L 374.225156 82.551834 
L 374.38647 81.681188 
L 374.547785 87.30076 
L 375.031729 91.406595 
L 375.193044 95.017753 
L 375.354359 90.417226 
L 375.515673 101.4288 
L 375.676988 96.709566 
L 376.160932 107.454011 
L 376.483562 104.248483 
L 376.644876 110.906872 
L 376.806191 108.809428 
L 377.290135 114.458677 
L 377.45145 112.697613 
L 377.612765 105.78135 
L 377.774079 105.939662 
L 377.935394 99.913908 
L 378.419338 102.031335 
L 378.580653 106.088084 
L 378.903282 103.020787 
L 379.064597 103.842029 
L 379.548541 100.171163 
L 379.709856 100.883565 
L 380.032485 110.045882 
L 380.1938 111.787317 
L 380.677744 113.063708 
L 380.839059 111.312383 
L 381.000374 111.045231 
L 381.323003 126.985278 
L 381.806947 123.690411 
L 381.968262 125.016265 
L 382.129577 107.176478 
L 382.290891 113.865163 
L 382.452206 110.540612 
L 382.93615 110.758292 
L 383.097465 109.284008 
L 383.420094 119.881027 
L 384.065353 124.412703 
L 384.226668 122.453595 
L 384.710612 110.461448 
L 385.194556 112.7174 
L 385.355871 112.430461 
L 385.517186 112.529404 
L 385.839815 107.008269 
L 386.485074 107.958139 
L 386.646389 104.475276 
L 386.807703 104.168542 
L 386.969018 104.880952 
L 387.452962 98.597936 
L 387.775592 86.388124 
L 387.936906 86.892743 
L 388.098221 86.328755 
L 388.582165 86.160539 
L 388.74348 87.337994 
L 388.904795 89.890774 
L 389.066109 88.871631 
L 389.227424 90.395393 
L 389.872683 86.229812 
L 390.033998 86.912523 
L 390.195312 82.578725 
L 390.356627 86.595899 
L 390.840571 84.369632 
L 391.001886 80.570153 
L 391.1632 79.877538 
L 391.324515 81.787167 
L 391.48583 80.075423 
L 391.969774 79.175018 
L 392.131089 77.859046 
L 392.292403 78.967318 
L 392.453718 76.820062 
L 392.615033 79.818305 
L 393.098977 77.126811 
L 393.260292 77.690844 
L 393.421606 76.345097 
L 393.744236 77.958004 
L 394.22818 77.641365 
L 394.389495 73.950462 
L 394.550809 67.60764 
L 394.712124 66.905074 
L 394.873439 64.203691 
L 395.357383 63.9662 
L 395.518698 68.607049 
L 395.841327 62.630358 
L 396.486586 63.718821 
L 397.131845 57.108839 
L 397.615789 57.949921 
L 397.777104 51.389418 
L 397.938418 50.726442 
L 398.099733 49.11352 
L 398.261048 49.697333 
L 398.744992 50.716537 
L 398.906307 55.020952 
L 399.228936 48.381271 
L 399.390251 48.618761 
L 399.874195 45.402823 
L 400.03551 46.629832 
L 400.196824 42.90923 
L 400.358139 44.294566 
L 400.519454 48.401065 
L 401.003398 42.186885 
L 401.164713 43.908654 
L 401.487342 41.424951 
L 401.648657 39.515186 
L 402.132601 40.148477 
L 402.293916 39.06 
L 402.45523 40.613553 
L 402.616545 40.188051 
L 402.77786 41.741604 
L 403.261804 40.197956 
L 403.423119 46.50119 
L 403.745748 47.154276 
L 403.907063 44.175813 
L 404.391007 42.374896 
L 404.552322 40.435431 
L 404.713636 40.603648 
L 404.713636 40.603648 
" clip-path="url(#pe644b2f5e6)" style="fill: none; stroke: #1f77b4; stroke-width: 1.5; stroke-linecap: square"/>
   </g>
   <g id="patch_3">
    <path d="M 58.5 224.28 
L 58.5 30.24 
" style="fill: none; stroke: #000000; stroke-width: 0.8; stroke-linejoin: miter; stroke-linecap: square"/>
   </g>
   <g id="patch_4">
    <path d="M 58.5 224.28 
L 421.2 224.28 
" style="fill: none; stroke: #000000; stroke-width: 0.8; stroke-linejoin: miter; stroke-linecap: square"/>
   </g>
  </g>
 </g>
 <defs>
  <clipPath id="pe644b2f5e6">
   <rect x="58.5" y="30.24" width="362.7" height="194.04"/>
  </clipPath>
 </defs>
</svg>
