<?xml version="1.0" encoding="utf-8" standalone="no"?>
<!DOCTYPE svg PUBLIC "-//W3C//DTD SVG 1.1//EN"
  "http://www.w3.org/Graphics/SVG/1.1/DTD/svg11.dtd">
<svg xmlns:xlink="http://www.w3.org/1999/xlink" width="1166.4pt" height="252pt" viewBox="0 0 1166.4 252" xmlns="http://www.w3.org/2000/svg" version="1.1">
 <metadata>
  <rdf:RDF xmlns:dc="http://purl.org/dc/elements/1.1/" xmlns:cc="http://creativecommons.org/ns#" xmlns:rdf="http://www.w3.org/1999/02/22-rdf-syntax-ns#">
   <cc:Work>
    <dc:type rdf:resource="http://purl.org/dc/dcmitype/StillImage"/>
    <dc:date>2025-08-31T00:52:58.836807</dc:date>
    <dc:format>image/svg+xml</dc:format>
    <dc:creator>
     <cc:Agent>
      <dc:title>Matplotlib v3.10.5, https://matplotlib.org/</dc:title>
     </cc:Agent>
    </dc:creator>
   </cc:Work>
  </rdf:RDF>
 </metadata>
 <defs>
  <style type="text/css">*{stroke-linejoin: round; stroke-linecap: butt}</style>
 </defs>
 <g id="figure_1">
  <g id="patch_1">
   <path d="M 0 252 
L 1166.4 252 
L 1166.4 0 
L 0 0 
z
" style="fill: #ffffff"/>
  </g>
  <g id="axes_1">
   <g id="patch_2">
    <path d="M 145.8 224.28 
L 1049.76 224.28 
L 1049.76 30.24 
L 145.8 30.24 
z
" style="fill: #ffffff"/>
   </g>
   <g id="matplotlib.axis_1">
    <g id="xtick_1">
     <g id="line2d_1">
      <defs>
       <path id="m2fef2ec96a" d="M 0 0 
L 0 3.5 
" style="stroke: #000000; stroke-width: 0.8"/>
      </defs>
      <g>
       <use xlink:href="#m2fef2ec96a" x="178.450256" y="224.28" style="stroke: #000000; stroke-width: 0.8"/>
      </g>
     </g>
     <g id="text_1">
      <!-- 2020 -->
      <g transform="translate(165.725256 238.878438) scale(0.1 -0.1)">
       <defs>
        <path id="DejaVuSans-32" d="M 1228 531 
L 3431 531 
L 3431 0 
L 469 0 
L 469 531 
Q 828 903 1448 1529 
Q 2069 2156 2228 2338 
Q 2531 2678 2651 2914 
Q 2772 3150 2772 3378 
Q 2772 3750 2511 3984 
Q 2250 4219 1831 4219 
Q 1534 4219 1204 4116 
Q 875 4013 500 3803 
L 500 4441 
Q 881 4594 1212 4672 
Q 1544 4750 1819 4750 
Q 2544 4750 2975 4387 
Q 3406 4025 3406 3419 
Q 3406 3131 3298 2873 
Q 3191 2616 2906 2266 
Q 2828 2175 2409 1742 
Q 1991 1309 1228 531 
z
" transform="scale(0.015625)"/>
        <path id="DejaVuSans-30" d="M 2034 4250 
Q 1547 4250 1301 3770 
Q 1056 3291 1056 2328 
Q 1056 1369 1301 889 
Q 1547 409 2034 409 
Q 2525 409 2770 889 
Q 3016 1369 3016 2328 
Q 3016 3291 2770 3770 
Q 2525 4250 2034 4250 
z
M 2034 4750 
Q 2819 4750 3233 4129 
Q 3647 3509 3647 2328 
Q 3647 1150 3233 529 
Q 2819 -91 2034 -91 
Q 1250 -91 836 529 
Q 422 1150 422 2328 
Q 422 3509 836 4129 
Q 1250 4750 2034 4750 
z
" transform="scale(0.015625)"/>
       </defs>
       <use xlink:href="#DejaVuSans-32"/>
       <use xlink:href="#DejaVuSans-30" transform="translate(63.623047 0)"/>
       <use xlink:href="#DejaVuSans-32" transform="translate(127.246094 0)"/>
       <use xlink:href="#DejaVuSans-30" transform="translate(190.869141 0)"/>
      </g>
     </g>
    </g>
    <g id="xtick_2">
     <g id="line2d_2">
      <g>
       <use xlink:href="#m2fef2ec96a" x="325.527099" y="224.28" style="stroke: #000000; stroke-width: 0.8"/>
      </g>
     </g>
     <g id="text_2">
      <!-- 2021 -->
      <g transform="translate(312.802099 238.878438) scale(0.1 -0.1)">
       <defs>
        <path id="DejaVuSans-31" d="M 794 531 
L 1825 531 
L 1825 4091 
L 703 3866 
L 703 4441 
L 1819 4666 
L 2450 4666 
L 2450 531 
L 3481 531 
L 3481 0 
L 794 0 
L 794 531 
z
" transform="scale(0.015625)"/>
       </defs>
       <use xlink:href="#DejaVuSans-32"/>
       <use xlink:href="#DejaVuSans-30" transform="translate(63.623047 0)"/>
       <use xlink:href="#DejaVuSans-32" transform="translate(127.246094 0)"/>
       <use xlink:href="#DejaVuSans-31" transform="translate(190.869141 0)"/>
      </g>
     </g>
    </g>
    <g id="xtick_3">
     <g id="line2d_3">
      <g>
       <use xlink:href="#m2fef2ec96a" x="472.202094" y="224.28" style="stroke: #000000; stroke-width: 0.8"/>
      </g>
     </g>
     <g id="text_3">
      <!-- 2022 -->
      <g transform="translate(459.477094 238.878438) scale(0.1 -0.1)">
       <use xlink:href="#DejaVuSans-32"/>
       <use xlink:href="#DejaVuSans-30" transform="translate(63.623047 0)"/>
       <use xlink:href="#DejaVuSans-32" transform="translate(127.246094 0)"/>
       <use xlink:href="#DejaVuSans-32" transform="translate(190.869141 0)"/>
      </g>
     </g>
    </g>
    <g id="xtick_4">
     <g id="line2d_4">
      <g>
       <use xlink:href="#m2fef2ec96a" x="618.877088" y="224.28" style="stroke: #000000; stroke-width: 0.8"/>
      </g>
     </g>
     <g id="text_4">
      <!-- 2023 -->
      <g transform="translate(606.152088 238.878438) scale(0.1 -0.1)">
       <defs>
        <path id="DejaVuSans-33" d="M 2597 2516 
Q 3050 2419 3304 2112 
Q 3559 1806 3559 1356 
Q 3559 666 3084 287 
Q 2609 -91 1734 -91 
Q 1441 -91 1130 -33 
Q 819 25 488 141 
L 488 750 
Q 750 597 1062 519 
Q 1375 441 1716 441 
Q 2309 441 2620 675 
Q 2931 909 2931 1356 
Q 2931 1769 2642 2001 
Q 2353 2234 1838 2234 
L 1294 2234 
L 1294 2753 
L 1863 2753 
Q 2328 2753 2575 2939 
Q 2822 3125 2822 3475 
Q 2822 3834 2567 4026 
Q 2313 4219 1838 4219 
Q 1578 4219 1281 4162 
Q 984 4106 628 3988 
L 628 4550 
Q 988 4650 1302 4700 
Q 1616 4750 1894 4750 
Q 2613 4750 3031 4423 
Q 3450 4097 3450 3541 
Q 3450 3153 3228 2886 
Q 3006 2619 2597 2516 
z
" transform="scale(0.015625)"/>
       </defs>
       <use xlink:href="#DejaVuSans-32"/>
       <use xlink:href="#DejaVuSans-30" transform="translate(63.623047 0)"/>
       <use xlink:href="#DejaVuSans-32" transform="translate(127.246094 0)"/>
       <use xlink:href="#DejaVuSans-33" transform="translate(190.869141 0)"/>
      </g>
     </g>
    </g>
    <g id="xtick_5">
     <g id="line2d_5">
      <g>
       <use xlink:href="#m2fef2ec96a" x="765.552083" y="224.28" style="stroke: #000000; stroke-width: 0.8"/>
      </g>
     </g>
     <g id="text_5">
      <!-- 2024 -->
      <g transform="translate(752.827083 238.878438) scale(0.1 -0.1)">
       <defs>
        <path id="DejaVuSans-34" d="M 2419 4116 
L 825 1625 
L 2419 1625 
L 2419 4116 
z
M 2253 4666 
L 3047 4666 
L 3047 1625 
L 3713 1625 
L 3713 1100 
L 3047 1100 
L 3047 0 
L 2419 0 
L 2419 1100 
L 313 1100 
L 313 1709 
L 2253 4666 
z
" transform="scale(0.015625)"/>
       </defs>
       <use xlink:href="#DejaVuSans-32"/>
       <use xlink:href="#DejaVuSans-30" transform="translate(63.623047 0)"/>
       <use xlink:href="#DejaVuSans-32" transform="translate(127.246094 0)"/>
       <use xlink:href="#DejaVuSans-34" transform="translate(190.869141 0)"/>
      </g>
     </g>
    </g>
    <g id="xtick_6">
     <g id="line2d_6">
      <g>
       <use xlink:href="#m2fef2ec96a" x="912.628926" y="224.28" style="stroke: #000000; stroke-width: 0.8"/>
      </g>
     </g>
     <g id="text_6">
      <!-- 2025 -->
      <g transform="translate(899.903926 238.878438) scale(0.1 -0.1)">
       <defs>
        <path id="DejaVuSans-35" d="M 691 4666 
L 3169 4666 
L 3169 4134 
L 1269 4134 
L 1269 2991 
Q 1406 3038 1543 3061 
Q 1681 3084 1819 3084 
Q 2600 3084 3056 2656 
Q 3513 2228 3513 1497 
Q 3513 744 3044 326 
Q 2575 -91 1722 -91 
Q 1428 -91 1123 -41 
Q 819 9 494 109 
L 494 744 
Q 775 591 1075 516 
Q 1375 441 1709 441 
Q 2250 441 2565 725 
Q 2881 1009 2881 1497 
Q 2881 1984 2565 2268 
Q 2250 2553 1709 2553 
Q 1456 2553 1204 2497 
Q 953 2441 691 2322 
L 691 4666 
z
" transform="scale(0.015625)"/>
       </defs>
       <use xlink:href="#DejaVuSans-32"/>
       <use xlink:href="#DejaVuSans-30" transform="translate(63.623047 0)"/>
       <use xlink:href="#DejaVuSans-32" transform="translate(127.246094 0)"/>
       <use xlink:href="#DejaVuSans-35" transform="translate(190.869141 0)"/>
      </g>
     </g>
    </g>
   </g>
   <g id="matplotlib.axis_2">
    <g id="ytick_1">
     <g id="line2d_7">
      <defs>
       <path id="m27632d8928" d="M 0 0 
L -3.5 0 
" style="stroke: #000000; stroke-width: 0.8"/>
      </defs>
      <g>
       <use xlink:href="#m27632d8928" x="145.8" y="191.997381" style="stroke: #000000; stroke-width: 0.8"/>
      </g>
     </g>
     <g id="text_7">
      <!-- 20 -->
      <g transform="translate(126.075 195.7966) scale(0.1 -0.1)">
       <use xlink:href="#DejaVuSans-32"/>
       <use xlink:href="#DejaVuSans-30" transform="translate(63.623047 0)"/>
      </g>
     </g>
    </g>
    <g id="ytick_2">
     <g id="line2d_8">
      <g>
       <use xlink:href="#m27632d8928" x="145.8" y="152.270738" style="stroke: #000000; stroke-width: 0.8"/>
      </g>
     </g>
     <g id="text_8">
      <!-- 40 -->
      <g transform="translate(126.075 156.069956) scale(0.1 -0.1)">
       <use xlink:href="#DejaVuSans-34"/>
       <use xlink:href="#DejaVuSans-30" transform="translate(63.623047 0)"/>
      </g>
     </g>
    </g>
    <g id="ytick_3">
     <g id="line2d_9">
      <g>
       <use xlink:href="#m27632d8928" x="145.8" y="112.544094" style="stroke: #000000; stroke-width: 0.8"/>
      </g>
     </g>
     <g id="text_9">
      <!-- 60 -->
      <g transform="translate(126.075 116.343313) scale(0.1 -0.1)">
       <defs>
        <path id="DejaVuSans-36" d="M 2113 2584 
Q 1688 2584 1439 2293 
Q 1191 2003 1191 1497 
Q 1191 994 1439 701 
Q 1688 409 2113 409 
Q 2538 409 2786 701 
Q 3034 994 3034 1497 
Q 3034 2003 2786 2293 
Q 2538 2584 2113 2584 
z
M 3366 4563 
L 3366 3988 
Q 3128 4100 2886 4159 
Q 2644 4219 2406 4219 
Q 1781 4219 1451 3797 
Q 1122 3375 1075 2522 
Q 1259 2794 1537 2939 
Q 1816 3084 2150 3084 
Q 2853 3084 3261 2657 
Q 3669 2231 3669 1497 
Q 3669 778 3244 343 
Q 2819 -91 2113 -91 
Q 1303 -91 875 529 
Q 447 1150 447 2328 
Q 447 3434 972 4092 
Q 1497 4750 2381 4750 
Q 2619 4750 2861 4703 
Q 3103 4656 3366 4563 
z
" transform="scale(0.015625)"/>
       </defs>
       <use xlink:href="#DejaVuSans-36"/>
       <use xlink:href="#DejaVuSans-30" transform="translate(63.623047 0)"/>
      </g>
     </g>
    </g>
    <g id="ytick_4">
     <g id="line2d_10">
      <g>
       <use xlink:href="#m27632d8928" x="145.8" y="72.817451" style="stroke: #000000; stroke-width: 0.8"/>
      </g>
     </g>
     <g id="text_10">
      <!-- 80 -->
      <g transform="translate(126.075 76.61667) scale(0.1 -0.1)">
       <defs>
        <path id="DejaVuSans-38" d="M 2034 2216 
Q 1584 2216 1326 1975 
Q 1069 1734 1069 1313 
Q 1069 891 1326 650 
Q 1584 409 2034 409 
Q 2484 409 2743 651 
Q 3003 894 3003 1313 
Q 3003 1734 2745 1975 
Q 2488 2216 2034 2216 
z
M 1403 2484 
Q 997 2584 770 2862 
Q 544 3141 544 3541 
Q 544 4100 942 4425 
Q 1341 4750 2034 4750 
Q 2731 4750 3128 4425 
Q 3525 4100 3525 3541 
Q 3525 3141 3298 2862 
Q 3072 2584 2669 2484 
Q 3125 2378 3379 2068 
Q 3634 1759 3634 1313 
Q 3634 634 3220 271 
Q 2806 -91 2034 -91 
Q 1263 -91 848 271 
Q 434 634 434 1313 
Q 434 1759 690 2068 
Q 947 2378 1403 2484 
z
M 1172 3481 
Q 1172 3119 1398 2916 
Q 1625 2713 2034 2713 
Q 2441 2713 2670 2916 
Q 2900 3119 2900 3481 
Q 2900 3844 2670 4047 
Q 2441 4250 2034 4250 
Q 1625 4250 1398 4047 
Q 1172 3844 1172 3481 
z
" transform="scale(0.015625)"/>
       </defs>
       <use xlink:href="#DejaVuSans-38"/>
       <use xlink:href="#DejaVuSans-30" transform="translate(63.623047 0)"/>
      </g>
     </g>
    </g>
    <g id="ytick_5">
     <g id="line2d_11">
      <g>
       <use xlink:href="#m27632d8928" x="145.8" y="33.090807" style="stroke: #000000; stroke-width: 0.8"/>
      </g>
     </g>
     <g id="text_11">
      <!-- 100 -->
      <g transform="translate(119.7125 36.890026) scale(0.1 -0.1)">
       <use xlink:href="#DejaVuSans-31"/>
       <use xlink:href="#DejaVuSans-30" transform="translate(63.623047 0)"/>
       <use xlink:href="#DejaVuSans-30" transform="translate(127.246094 0)"/>
      </g>
     </g>
    </g>
   </g>
   <g id="line2d_12">
    <path d="M 186.889091 102.058885 
L 187.69279 91.12785 
L 188.898337 125.31328 
L 189.300187 116.064478 
L 189.702036 122.327172 
L 190.103885 126.690635 
L 190.505735 146.264407 
L 191.711283 154.324959 
L 192.113132 132.678884 
L 192.514981 123.334086 
L 192.91683 123.128087 
L 193.31868 128.535271 
L 194.524228 110.864237 
L 194.926077 107.895274 
L 195.327926 105.973115 
L 195.729776 104.909785 
L 196.131625 72.381724 
L 197.739022 72.861605 
L 198.140871 61.420055 
L 198.94457 79.273772 
L 200.150118 106.149832 
L 200.551967 120.925872 
L 200.953816 119.605319 
L 201.355666 133.452538 
L 201.757515 120.634403 
L 202.963063 123.518853 
L 203.364912 133.56559 
L 203.766762 125.391293 
L 204.168611 130.943055 
L 204.57046 146.225211 
L 205.776008 160.017247 
L 206.177857 161.757617 
L 206.579707 164.939282 
L 206.981556 170.002549 
L 207.383405 147.766565 
L 208.588953 159.293986 
L 208.990802 151.799616 
L 209.392652 151.662661 
L 209.794501 155.14225 
L 210.19635 160.452517 
L 211.401898 153.82467 
L 211.803747 145.669881 
L 212.205597 143.1041 
L 213.009295 129.454555 
L 214.214843 130.559669 
L 215.018542 120.335681 
L 215.420391 125.422835 
L 215.82224 105.467482 
L 217.027788 104.001927 
L 217.429638 100.266323 
L 217.831487 101.140012 
L 218.233336 98.640729 
L 219.840733 98.65633 
L 220.242583 108.724318 
L 220.644432 108.343488 
L 221.046281 107.201454 
L 221.448131 105.378181 
L 222.653679 116.949501 
L 223.055528 128.581836 
L 223.457377 103.795921 
L 223.859226 112.056364 
L 224.261076 98.37301 
L 225.466624 107.915575 
L 225.868473 103.904034 
L 226.270322 104.423267 
L 226.672172 106.857416 
L 227.074021 121.394931 
L 228.279569 125.841192 
L 228.681418 120.798275 
L 229.083267 129.355338 
L 229.485117 120.564844 
L 229.886966 108.918808 
L 231.092514 79.760386 
L 231.494363 105.010095 
L 231.896212 103.317389 
L 232.298062 100.111869 
L 232.699911 93.347174 
L 233.905459 80.790893 
L 234.307308 82.951451 
L 234.709158 71.438891 
L 235.111007 68.868914 
L 235.512856 68.362889 
L 237.120253 86.168442 
L 237.522103 97.142253 
L 237.923952 102.818358 
L 238.325801 98.373334 
L 239.531349 107.197408 
L 239.933198 94.424303 
L 240.335048 96.110338 
L 240.736897 102.507166 
L 241.138746 112.402909 
L 242.344294 129.498934 
L 242.746144 121.327116 
L 243.147993 115.452695 
L 243.549842 131.495784 
L 243.951691 135.819106 
L 245.157239 114.436959 
L 245.559089 110.272699 
L 245.960938 103.47334 
L 246.362787 116.861122 
L 246.764637 111.571502 
L 247.970184 103.624564 
L 248.372034 104.721665 
L 248.773883 114.95526 
L 249.175732 111.970219 
L 249.577582 120.781827 
L 250.78313 126.933371 
L 251.184979 127.712321 
L 251.586828 99.768887 
L 251.988677 101.421554 
L 253.596075 101.871377 
L 253.997924 94.269072 
L 254.399773 89.502325 
L 254.801623 81.997501 
L 255.203472 84.594262 
L 256.40902 113.016468 
L 256.810869 101.086915 
L 257.212718 98.144813 
L 257.614568 108.80256 
L 258.016417 89.889649 
L 259.221965 84.348716 
L 259.623814 100.591242 
L 260.025663 98.620325 
L 260.427513 114.672294 
L 260.829362 119.510676 
L 262.03491 113.774406 
L 262.436759 132.425251 
L 262.838609 133.978947 
L 263.240458 127.740713 
L 263.642307 109.525833 
L 264.847855 107.373334 
L 265.249704 93.893298 
L 265.651554 87.47813 
L 266.053403 87.865256 
L 266.455252 103.364142 
L 267.6608 94.772923 
L 268.062649 115.475561 
L 268.464499 84.08585 
L 268.866348 85.287268 
L 269.268197 87.478129 
L 270.473745 64.274767 
L 271.277444 80.062194 
L 271.679293 80.033854 
L 272.081142 77.764829 
L 273.28669 80.587717 
L 274.492238 81.985882 
L 274.894088 72.72103 
L 276.099635 54.324232 
L 276.501485 55.289441 
L 276.903334 52.059918 
L 277.305183 102.32335 
L 277.707033 125.914481 
L 279.31443 139.165313 
L 279.716279 122.363653 
L 280.118128 129.585513 
L 280.519978 141.318342 
L 281.725526 129.994575 
L 282.127375 128.668059 
L 282.529224 136.043809 
L 282.931074 134.737231 
L 283.332923 146.734946 
L 284.538471 145.021099 
L 284.94032 150.803128 
L 285.342169 167.02631 
L 286.145868 127.78878 
L 287.351416 109.452766 
L 287.753265 120.452924 
L 288.155114 103.203573 
L 288.556964 97.124007 
L 288.958813 127.600935 
L 290.164361 117.659882 
L 290.56621 102.104016 
L 291.369909 91.781743 
L 291.771758 99.687239 
L 292.977306 94.151273 
L 293.379155 74.305316 
L 293.781005 83.666231 
L 294.182854 97.950338 
L 294.584703 107.979475 
L 296.59395 135.22843 
L 296.995799 121.70081 
L 297.397648 134.551509 
L 298.603196 153.709327 
L 299.005046 152.504599 
L 299.406895 167.313388 
L 299.808744 151.875419 
L 300.210593 176.681953 
L 301.416141 175.760991 
L 301.817991 158.429445 
L 302.21984 136.078083 
L 302.621689 125.432672 
L 303.023539 111.480249 
L 304.229086 132.658468 
L 304.630936 143.809339 
L 305.032785 131.605387 
L 305.434634 134.337935 
L 305.836484 130.056149 
L 307.042032 130.608299 
L 307.443881 118.940246 
L 307.84573 125.064236 
L 308.247579 114.390981 
L 308.649429 122.909429 
L 309.854977 129.972526 
L 310.256826 151.627452 
L 310.658675 154.11225 
L 311.462374 165.890612 
L 312.667922 139.830478 
L 313.069771 104.645363 
L 313.47162 125.122004 
L 313.87347 135.489113 
L 314.275319 118.033875 
L 315.480867 126.703229 
L 315.882716 136.120556 
L 316.284565 154.320176 
L 316.686415 152.717247 
L 317.088264 135.990789 
L 318.293812 124.617791 
L 318.695661 112.905546 
L 319.097511 131.801665 
L 319.49936 128.206374 
L 319.901209 138.925258 
L 321.106757 135.13102 
L 321.508606 146.401226 
L 321.910456 151.750652 
L 322.312305 162.893889 
L 323.919702 169.659328 
L 324.321551 156.586391 
L 324.723401 117.721665 
L 325.12525 126.940204 
L 326.732647 125.860267 
L 327.134497 126.120171 
L 327.536346 165.263569 
L 327.938195 128.890794 
L 328.340044 134.66704 
L 329.545592 121.248078 
L 329.947442 127.654989 
L 330.349291 124.490187 
L 330.75114 126.557134 
L 331.15299 136.144526 
L 332.760387 128.989718 
L 333.564085 115.486307 
L 333.965935 117.222925 
L 335.171483 119.944512 
L 335.573332 131.690906 
L 335.975181 124.792763 
L 336.37703 141.070609 
L 336.77888 140.908454 
L 337.984428 144.13746 
L 338.386277 130.327713 
L 338.788126 132.443734 
L 339.189976 118.095993 
L 339.591825 107.801297 
L 340.797373 93.782187 
L 341.199222 106.715948 
L 341.601071 106.731922 
L 342.002921 92.206573 
L 342.40477 100.176669 
L 344.414016 84.106733 
L 344.815866 88.611735 
L 345.217715 85.126453 
L 346.423263 107.107679 
L 346.825112 118.845127 
L 347.226962 111.571739 
L 347.628811 138.651634 
L 348.03066 130.365847 
L 349.638057 147.750288 
L 350.441756 183.529945 
L 350.843605 178.401895 
L 352.049153 195.345586 
L 352.451002 169.33948 
L 352.852852 169.095139 
L 353.254701 160.545084 
L 353.65655 155.707321 
L 354.862098 146.874999 
L 355.263948 151.561826 
L 355.665797 131.660051 
L 356.067646 150.883049 
L 356.469495 150.970931 
L 357.675043 136.51429 
L 358.076893 126.720451 
L 358.478742 126.573441 
L 358.880591 130.769418 
L 359.282441 102.625429 
L 360.487988 119.705304 
L 360.889838 120.51945 
L 361.291687 121.802284 
L 361.693536 106.38897 
L 363.300934 109.73998 
L 363.702783 116.293805 
L 364.104632 111.141859 
L 364.506481 84.44117 
L 364.908331 85.074945 
L 366.113879 78.545205 
L 366.515728 68.97821 
L 366.917577 67.965793 
L 367.319427 58.064296 
L 367.721276 67.915316 
L 368.926824 86.083894 
L 369.730522 92.447464 
L 370.132372 111.975523 
L 370.534221 108.40597 
L 371.739769 102.532963 
L 372.543467 113.789506 
L 372.945317 114.344922 
L 373.347166 136.7231 
L 374.552714 151.902796 
L 374.954563 153.416815 
L 375.356413 178.423421 
L 375.758262 172.257263 
L 376.160111 149.453884 
L 377.365659 157.686668 
L 377.767508 163.123786 
L 378.169358 163.870227 
L 378.571207 183.265539 
L 378.973056 167.557239 
L 380.178604 167.210657 
L 380.580453 168.031874 
L 380.982303 167.955194 
L 381.384152 142.924524 
L 381.786001 128.5157 
L 382.991549 101.794778 
L 383.393399 103.017177 
L 383.795248 103.230997 
L 384.197097 115.327026 
L 384.598946 84.929575 
L 386.206344 85.187573 
L 386.608193 58.985235 
L 387.010042 53.949021 
L 387.411892 53.796831 
L 388.617439 50.293414 
L 389.019289 50.823826 
L 389.421138 55.082491 
L 389.822987 57.894316 
L 390.224837 57.755709 
L 391.430385 60.898911 
L 391.832234 72.283636 
L 392.234083 72.62388 
L 392.635932 56.416949 
L 393.037782 62.543773 
L 394.24333 72.645481 
L 394.645179 73.249379 
L 395.047028 73.487975 
L 395.448878 79.551856 
L 395.850727 88.444425 
L 397.056275 69.39837 
L 397.458124 65.107701 
L 398.261823 68.423707 
L 398.663672 67.663103 
L 400.271069 55.695717 
L 400.672918 69.93994 
L 401.074768 98.925655 
L 401.476617 95.743256 
L 402.682165 81.576027 
L 403.485864 113.480519 
L 403.887713 137.314568 
L 404.289562 148.194999 
L 405.49511 155.705716 
L 405.896959 159.101004 
L 406.298809 142.154029 
L 406.700658 142.616587 
L 407.102507 148.389581 
L 408.308055 156.35211 
L 408.709904 153.102915 
L 409.111754 139.744878 
L 409.513603 139.518809 
L 409.915452 152.055581 
L 411.121 142.122363 
L 411.52285 132.959358 
L 412.326548 69.507459 
L 412.728397 88.176213 
L 413.933945 84.167852 
L 414.335795 115.143524 
L 414.737644 129.020561 
L 415.139493 121.800243 
L 415.541343 105.238266 
L 416.74689 110.859589 
L 417.14874 133.643147 
L 417.550589 148.345093 
L 417.952438 125.765476 
L 418.354288 112.195246 
L 419.559836 98.70421 
L 419.961685 107.351392 
L 420.363534 106.655017 
L 420.765383 104.007312 
L 421.167233 96.355258 
L 422.372781 87.907318 
L 423.176479 90.739414 
L 423.578329 94.635526 
L 423.980178 84.65377 
L 425.587575 76.649782 
L 425.989424 74.029893 
L 426.793123 93.985221 
L 427.998671 126.776044 
L 428.40052 119.236813 
L 428.802369 128.172719 
L 429.204219 126.610876 
L 429.606068 158.169703 
L 430.811616 176.271964 
L 431.213465 165.766953 
L 431.615315 144.729641 
L 432.017164 130.520268 
L 432.419013 149.300117 
L 433.624561 153.491284 
L 434.02641 162.806739 
L 434.42826 163.062999 
L 434.830109 165.575859 
L 435.231958 160.549804 
L 436.437506 174.687712 
L 436.839355 161.214694 
L 437.241205 155.381573 
L 437.643054 144.638503 
L 438.044903 136.9571 
L 439.250451 141.292514 
L 439.652301 155.390716 
L 440.05415 161.792857 
L 440.455999 138.326453 
L 442.063396 100.327185 
L 442.465246 94.135794 
L 442.867095 102.389779 
L 443.268944 94.817043 
L 443.670794 61.202502 
L 444.876341 63.215116 
L 445.278191 55.671061 
L 445.68004 66.534826 
L 446.081889 55.910025 
L 446.483739 49.354027 
L 447.689287 47.934285 
L 448.091136 47.221021 
L 448.492985 48.717978 
L 448.894834 43.263928 
L 449.296684 44.775154 
L 450.502232 43.567192 
L 450.904081 42.773067 
L 451.30593 65.779518 
L 451.70778 63.11002 
L 452.109629 64.362717 
L 453.315177 76.073529 
L 453.717026 70.781941 
L 454.118875 88.275801 
L 454.520725 79.703188 
L 454.922574 75.806468 
L 456.128122 90.017558 
L 456.529971 93.162532 
L 456.93182 105.871864 
L 457.735519 117.762904 
L 458.941067 112.287546 
L 459.342916 117.272636 
L 459.744766 117.60987 
L 460.146615 119.163868 
L 460.548464 130.303614 
L 461.754012 132.301983 
L 462.155861 119.379558 
L 462.557711 117.078389 
L 462.95956 139.944336 
L 463.361409 151.408415 
L 464.566957 156.613937 
L 464.968806 154.197039 
L 465.370656 145.54503 
L 465.772505 149.95358 
L 466.174354 166.291125 
L 467.379902 163.717654 
L 467.781752 147.213908 
L 468.183601 149.915003 
L 468.58545 139.735587 
L 470.192847 126.363243 
L 470.594697 148.302019 
L 470.996546 146.487501 
L 471.398395 139.919288 
L 471.800244 139.011712 
L 473.005792 113.882397 
L 473.407642 123.928639 
L 473.809491 158.840617 
L 474.21134 134.656489 
L 474.61319 138.154351 
L 475.818737 135.692183 
L 476.220587 146.758505 
L 476.622436 148.656713 
L 477.426135 177.539096 
L 479.033532 179.982531 
L 480.23908 187.703449 
L 481.444628 198.543351 
L 481.846477 199.238894 
L 482.248326 185.062358 
L 482.650176 198.498325 
L 483.052025 179.304265 
L 484.257573 159.140122 
L 484.659422 162.302983 
L 485.061271 157.338256 
L 485.463121 156.447262 
L 485.86497 156.401713 
L 487.070518 143.81802 
L 487.472367 131.990707 
L 487.874216 108.127156 
L 488.276066 109.356588 
L 488.677915 127.796783 
L 489.883463 115.912624 
L 490.687162 96.599487 
L 491.49086 138.85836 
L 493.098257 141.873391 
L 493.500107 153.421979 
L 493.901956 133.872239 
L 494.303805 133.590626 
L 495.509353 134.946456 
L 496.313052 151.22297 
L 496.714901 148.850241 
L 497.11675 141.02965 
L 498.322298 154.839964 
L 498.724148 178.078936 
L 499.125997 160.594289 
L 499.527846 149.598186 
L 499.929695 147.163677 
L 501.135243 151.193863 
L 501.537093 127.317825 
L 501.938942 126.008151 
L 502.340791 127.127467 
L 502.742641 116.566738 
L 503.948188 106.214789 
L 504.350038 113.061289 
L 504.751887 116.792597 
L 505.153736 95.286486 
L 505.555586 83.306658 
L 506.761134 81.916947 
L 507.162983 86.197195 
L 507.564832 93.167328 
L 507.966681 91.471411 
L 508.368531 89.252044 
L 509.574079 94.157695 
L 509.975928 119.791699 
L 511.181476 162.651705 
L 512.387024 167.97859 
L 512.788873 165.523716 
L 513.190722 188.291202 
L 513.592572 190.204355 
L 515.199969 190.232813 
L 515.601818 190.54615 
L 516.003667 189.591387 
L 516.405517 192.820675 
L 516.807366 193.131349 
L 518.012914 196.76044 
L 518.414763 195.77665 
L 518.816613 191.657231 
L 519.218462 171.613276 
L 519.620311 172.385947 
L 520.825859 153.657718 
L 521.227708 149.901438 
L 521.629558 149.545536 
L 522.031407 153.482537 
L 522.433256 160.417963 
L 523.638804 174.679424 
L 524.040653 163.898079 
L 524.442503 161.998414 
L 524.844352 160.730326 
L 525.246201 149.372221 
L 526.451749 144.830182 
L 526.853599 134.265139 
L 527.255448 154.831691 
L 527.657297 144.646743 
L 528.059146 158.061159 
L 529.264694 156.544756 
L 529.666544 169.680165 
L 530.068393 150.138126 
L 530.470242 139.729953 
L 530.872092 114.654221 
L 532.479489 121.608411 
L 532.881338 114.344016 
L 533.283187 98.836862 
L 533.685037 121.750585 
L 534.890585 115.748846 
L 535.292434 123.446069 
L 535.694283 109.203782 
L 536.497982 129.052189 
L 537.70353 145.427016 
L 538.105379 135.894131 
L 538.507228 137.405421 
L 538.909078 157.526515 
L 539.310927 167.857185 
L 540.918324 156.27374 
L 541.320173 154.99368 
L 541.722023 177.149272 
L 542.123872 153.480095 
L 543.32942 157.130422 
L 543.731269 167.036281 
L 544.133118 168.285224 
L 544.534968 166.642669 
L 544.936817 163.053903 
L 546.544214 142.019603 
L 546.946064 142.375774 
L 547.347913 141.803991 
L 547.749762 128.589397 
L 548.95531 143.408992 
L 549.357159 157.15315 
L 549.759009 152.77486 
L 550.160858 146.754091 
L 550.562707 157.521965 
L 551.768255 146.336418 
L 552.170104 114.10272 
L 552.571954 93.986894 
L 552.973803 82.166902 
L 553.375652 84.6123 
L 554.5812 96.28585 
L 554.98305 109.141225 
L 555.384899 102.969 
L 555.786748 100.558471 
L 556.188597 84.057844 
L 557.394145 80.224672 
L 557.795995 80.202566 
L 558.197844 79.059806 
L 558.599693 79.541659 
L 559.001543 87.408045 
L 560.20709 120.496537 
L 560.60894 143.304789 
L 561.814488 109.277044 
L 563.020036 97.287544 
L 563.823734 126.885399 
L 564.225583 123.188992 
L 564.627433 140.55307 
L 566.636679 158.986934 
L 567.038529 145.914013 
L 567.440378 150.599787 
L 568.645926 148.122479 
L 569.047775 167.487723 
L 569.449624 169.323734 
L 569.851474 191.267132 
L 570.253323 199.101404 
L 571.86072 199.218948 
L 572.262569 191.519464 
L 572.664419 194.897019 
L 573.066268 180.991965 
L 574.271816 171.762452 
L 574.673665 185.290526 
L 575.075515 186.134419 
L 575.477364 202.378806 
L 575.879213 185.833224 
L 577.084761 176.74302 
L 577.48661 175.421956 
L 578.290309 162.44542 
L 578.692158 158.491222 
L 579.897706 160.257574 
L 580.299555 162.255061 
L 580.701405 160.867808 
L 581.103254 180.287047 
L 581.505103 185.117806 
L 582.710651 150.190678 
L 583.112501 131.464738 
L 583.51435 125.37084 
L 583.916199 134.202592 
L 584.318048 160.409871 
L 585.523596 163.361593 
L 585.925446 166.842374 
L 586.327295 157.39554 
L 586.729144 144.328825 
L 587.130994 151.989018 
L 588.336541 141.797177 
L 588.738391 146.79325 
L 589.14024 135.849025 
L 589.542089 131.301397 
L 589.943939 133.351757 
L 591.149487 145.477813 
L 591.551336 131.361104 
L 591.953185 136.857864 
L 592.756884 86.679559 
L 593.962432 94.088465 
L 594.364281 91.108021 
L 594.76613 106.232077 
L 595.16798 81.088472 
L 595.569829 80.266248 
L 596.775377 79.556377 
L 597.177226 77.365824 
L 597.579075 102.683856 
L 597.980925 85.733737 
L 598.382774 82.588764 
L 599.588322 88.107687 
L 599.990171 77.40974 
L 600.39202 95.129562 
L 600.79387 105.72119 
L 601.195719 104.440748 
L 602.401267 106.633951 
L 602.803116 93.699603 
L 603.204966 91.448536 
L 604.008664 102.524803 
L 605.214212 111.714205 
L 605.616061 118.124886 
L 606.017911 91.619493 
L 606.821609 122.582815 
L 608.027157 126.966553 
L 608.429006 143.432623 
L 608.830856 128.510195 
L 609.232705 108.715892 
L 609.634554 106.724187 
L 610.840102 99.040173 
L 611.241952 100.925605 
L 611.643801 114.267465 
L 612.04565 122.414948 
L 612.447499 121.413913 
L 613.653047 123.480915 
L 614.054897 146.836546 
L 614.456746 142.951123 
L 614.858595 154.610993 
L 615.260445 153.08983 
L 616.867842 158.132703 
L 617.269691 161.330788 
L 617.67154 170.592375 
L 618.07339 168.784338 
L 619.680787 183.314735 
L 620.082636 185.818889 
L 620.484485 186.449028 
L 620.886335 166.278973 
L 622.091883 146.760749 
L 622.493732 137.687759 
L 622.895581 133.708521 
L 623.297431 132.254739 
L 623.69928 105.37776 
L 625.306677 93.68601 
L 625.708526 75.091708 
L 626.110376 88.472389 
L 626.512225 84.266506 
L 627.717773 75.695741 
L 628.119622 69.314822 
L 628.521471 71.151431 
L 628.923321 58.204727 
L 629.32517 58.310213 
L 630.530718 87.489965 
L 630.932567 86.843335 
L 631.334417 79.184365 
L 631.736266 77.939391 
L 632.138115 89.389683 
L 633.343663 94.64096 
L 634.147362 72.944215 
L 634.549211 77.553969 
L 634.95106 106.232916 
L 636.156608 102.26476 
L 636.558457 94.019278 
L 636.960307 100.313107 
L 637.362156 115.046862 
L 637.764005 107.216094 
L 639.371403 120.251083 
L 639.773252 134.805648 
L 640.175101 112.934536 
L 640.57695 110.117247 
L 641.782498 108.317362 
L 642.184348 121.080221 
L 642.586197 127.323444 
L 642.988046 122.814508 
L 643.389896 105.304145 
L 644.595443 113.811864 
L 644.997293 128.662156 
L 645.399142 117.061512 
L 645.800991 116.850755 
L 646.202841 115.03411 
L 647.408389 104.725685 
L 647.810238 97.039964 
L 648.212087 123.804508 
L 648.613936 102.464169 
L 649.015786 102.752063 
L 650.221334 96.094858 
L 650.623183 83.605731 
L 651.025032 86.188039 
L 651.426882 85.061468 
L 651.828731 86.652945 
L 653.034279 86.362547 
L 653.436128 96.83345 
L 653.837977 74.182801 
L 654.239827 59.032726 
L 654.641676 57.43296 
L 655.847224 61.482564 
L 656.249073 77.288517 
L 656.650922 106.158048 
L 657.052772 106.56383 
L 658.660169 101.578654 
L 659.463868 131.954757 
L 659.865717 146.22148 
L 660.267566 132.815077 
L 661.473114 123.258562 
L 661.874963 110.339024 
L 662.276813 114.817586 
L 662.678662 137.205493 
L 663.080511 144.518279 
L 664.286059 149.752548 
L 664.687908 154.002585 
L 665.089758 131.104516 
L 665.491607 129.18831 
L 665.893456 129.502389 
L 667.099004 106.061225 
L 667.500854 106.55717 
L 668.304552 120.851556 
L 668.706401 110.997685 
L 669.911949 112.989007 
L 670.313799 124.36764 
L 670.715648 108.481678 
L 671.117497 113.552135 
L 671.519347 115.976975 
L 672.724894 97.23548 
L 673.126744 101.287372 
L 673.930442 88.43952 
L 674.332292 103.64373 
L 675.53784 93.214539 
L 675.939689 94.673375 
L 676.341538 93.030081 
L 676.743387 65.621824 
L 677.145237 64.49772 
L 678.752634 55.538605 
L 679.154483 79.732525 
L 679.556333 72.330079 
L 679.958182 74.076746 
L 681.16373 76.801003 
L 681.565579 81.742935 
L 681.967428 93.667627 
L 682.369278 95.210535 
L 682.771127 91.195265 
L 683.976675 88.324849 
L 684.378524 80.484037 
L 684.780373 75.099811 
L 685.182223 100.3737 
L 685.584072 104.96833 
L 687.191469 105.228155 
L 687.593319 89.285172 
L 687.995168 100.343231 
L 689.602565 120.168781 
L 690.004414 107.011445 
L 690.406264 102.758904 
L 690.808113 112.370769 
L 691.209962 104.742863 
L 692.41551 108.307974 
L 693.219209 120.313842 
L 693.621058 142.413016 
L 694.022907 134.075739 
L 695.228455 137.926166 
L 695.630305 149.149178 
L 696.032154 123.009814 
L 696.434003 106.023045 
L 696.835852 102.439591 
L 698.0414 75.756413 
L 698.44325 76.6559 
L 698.845099 71.169319 
L 699.246948 89.710638 
L 699.648798 113.706927 
L 700.854345 112.280421 
L 701.256195 104.163216 
L 701.658044 104.303425 
L 702.059893 104.015706 
L 702.461743 95.833997 
L 703.667291 97.22432 
L 704.06914 108.738993 
L 704.470989 147.697866 
L 704.872838 141.154467 
L 705.274688 150.086816 
L 706.480236 153.653739 
L 706.882085 156.265081 
L 707.283934 160.202539 
L 707.685784 152.378772 
L 708.087633 167.011241 
L 709.293181 147.571884 
L 709.69503 144.350059 
L 710.096879 151.46551 
L 710.498729 160.900762 
L 710.900578 161.043679 
L 712.106126 129.429601 
L 712.909824 115.853571 
L 713.311674 116.484165 
L 713.713523 128.652161 
L 714.919071 118.896796 
L 715.32092 93.241546 
L 715.72277 90.022848 
L 716.124619 74.862005 
L 716.526468 94.972773 
L 718.133865 95.707209 
L 718.535715 106.076781 
L 719.339413 117.130355 
L 720.544961 147.788957 
L 720.94681 139.894661 
L 721.34866 149.062823 
L 721.750509 148.480003 
L 722.152358 152.817908 
L 723.357906 162.24531 
L 723.759756 197.432289 
L 724.161605 211.332154 
L 724.563454 215.46 
L 724.965303 202.909495 
L 726.170851 193.449379 
L 726.572701 188.52748 
L 727.376399 160.420822 
L 727.778248 151.315751 
L 728.983796 133.29969 
L 729.385646 151.121961 
L 729.787495 146.475414 
L 730.189344 124.452396 
L 730.591194 115.961541 
L 731.796741 116.418591 
L 732.60044 74.44354 
L 733.002289 76.427088 
L 733.404139 101.287571 
L 734.609687 93.426121 
L 735.011536 120.499146 
L 735.413385 139.035447 
L 735.815234 143.033777 
L 736.217084 159.38829 
L 737.422632 136.606249 
L 737.824481 135.298835 
L 738.62818 169.385834 
L 739.030029 165.591746 
L 740.235577 164.342122 
L 740.637426 175.794566 
L 741.039275 162.594404 
L 741.441125 145.441169 
L 743.048522 119.860467 
L 743.450371 103.270471 
L 743.85222 99.098321 
L 744.25407 89.90421 
L 744.655919 90.805537 
L 745.861467 92.682314 
L 746.263316 64.644963 
L 746.665166 54.106486 
L 747.067015 53.327567 
L 747.468864 57.572776 
L 748.674412 49.458411 
L 749.076261 59.989768 
L 749.478111 83.1088 
L 750.281809 104.712336 
L 751.487357 106.78893 
L 751.889206 113.638474 
L 752.291056 116.162412 
L 753.094754 149.378132 
L 754.300302 162.814375 
L 754.702152 162.507445 
L 755.104001 164.456907 
L 755.50585 158.460857 
L 755.907699 147.575326 
L 757.113247 165.106901 
L 758.318795 126.971351 
L 758.720645 126.317946 
L 759.926192 112.723031 
L 760.328042 119.79085 
L 760.729891 120.970701 
L 761.13174 114.773849 
L 761.53359 103.600388 
L 763.140987 107.571442 
L 763.542836 93.237227 
L 764.346535 107.460696 
L 765.953932 114.404052 
L 766.355781 133.490497 
L 766.757631 133.515382 
L 767.15948 124.076224 
L 768.365028 103.416729 
L 768.766877 105.296926 
L 769.168726 92.989703 
L 769.570576 71.466232 
L 769.972425 76.547999 
L 771.579822 68.202798 
L 771.981671 74.21936 
L 772.383521 71.200163 
L 772.78537 65.314746 
L 773.990918 64.962697 
L 774.392767 48.076579 
L 774.794617 39.06 
L 775.196466 39.131627 
L 775.598315 47.674463 
L 777.205712 50.544289 
L 777.607562 71.614584 
L 778.009411 68.50924 
L 778.41126 60.315586 
L 779.616808 57.951507 
L 780.018657 65.459121 
L 780.420507 64.049574 
L 780.822356 72.934698 
L 781.224205 68.121318 
L 782.429753 68.311329 
L 782.831603 72.3577 
L 783.233452 69.274963 
L 783.635301 74.60899 
L 784.03715 78.191913 
L 786.046397 105.781137 
L 786.448246 83.873943 
L 786.850096 88.89124 
L 788.055643 95.111113 
L 788.457493 91.229895 
L 788.859342 101.66209 
L 789.261191 95.411154 
L 789.663041 93.799495 
L 791.672287 84.229597 
L 792.074136 72.613874 
L 792.475986 93.762306 
L 793.681534 88.507074 
L 794.083383 73.327542 
L 794.485232 92.894899 
L 794.887082 105.511772 
L 795.288931 106.507909 
L 796.494479 103.715052 
L 796.896328 97.792816 
L 797.298177 98.718223 
L 797.700027 103.157512 
L 798.101876 103.392278 
L 799.307424 103.433153 
L 800.111122 140.684089 
L 800.512972 120.700675 
L 802.120369 111.919067 
L 802.522218 146.770655 
L 802.924068 144.002397 
L 803.325917 144.61036 
L 803.727766 131.493878 
L 804.933314 139.373475 
L 805.335163 152.811661 
L 805.737013 148.637981 
L 806.138862 135.957984 
L 806.540711 159.364418 
L 807.746259 169.72204 
L 808.148108 154.696208 
L 808.549958 158.127285 
L 808.951807 155.425676 
L 809.353656 175.041279 
L 810.559204 160.277774 
L 810.961054 149.585652 
L 811.362903 148.900097 
L 811.764752 146.327676 
L 812.166601 131.003382 
L 813.372149 126.5618 
L 813.773999 133.969612 
L 814.175848 151.084322 
L 814.979547 125.721382 
L 816.185094 121.582502 
L 816.586944 116.827742 
L 816.988793 118.52197 
L 817.390642 96.031585 
L 817.792492 100.323771 
L 818.99804 105.723098 
L 819.399889 90.828775 
L 819.801738 90.17603 
L 820.203587 104.273968 
L 820.605437 113.828362 
L 821.810985 100.634341 
L 822.212834 80.08531 
L 822.614683 89.404606 
L 823.016533 77.133319 
L 823.418382 78.274192 
L 825.025779 60.251072 
L 825.427628 58.749029 
L 825.829478 71.681883 
L 826.231327 76.84721 
L 827.436875 71.567098 
L 827.838724 71.112654 
L 828.240573 68.720052 
L 828.642423 73.005672 
L 829.044272 66.437073 
L 830.24982 67.564744 
L 830.651669 71.497123 
L 831.053519 66.338972 
L 831.455368 69.934044 
L 831.857217 70.296413 
L 833.062765 82.65963 
L 833.464614 77.837926 
L 834.268313 79.749493 
L 835.87571 125.476975 
L 836.277559 113.681126 
L 836.679409 123.751895 
L 837.081258 125.998804 
L 837.483107 126.765871 
L 838.688655 127.050412 
L 839.090505 128.72594 
L 839.492354 126.139096 
L 840.296052 140.422294 
L 841.5016 140.19369 
L 841.90345 131.600296 
L 842.305299 133.789383 
L 842.707148 139.007699 
L 843.108998 126.938707 
L 844.314545 107.280299 
L 845.118244 151.836404 
L 845.520093 139.001219 
L 845.921943 144.417903 
L 847.127491 133.880505 
L 847.52934 132.564571 
L 847.931189 158.555119 
L 848.333038 157.890091 
L 848.734888 161.764106 
L 849.940436 172.105945 
L 850.342285 189.923916 
L 850.744134 149.698714 
L 851.145984 162.736922 
L 851.547833 163.915475 
L 852.753381 168.41264 
L 853.15523 152.805179 
L 853.557079 164.268014 
L 853.958929 150.274474 
L 854.360778 160.406818 
L 855.566326 151.668898 
L 855.968175 129.677109 
L 856.771874 119.023147 
L 857.173723 114.727209 
L 858.379271 95.415396 
L 858.78112 115.471068 
L 859.18297 96.550808 
L 859.584819 103.327476 
L 859.986668 80.24178 
L 861.192216 91.686985 
L 861.594065 74.800955 
L 861.995915 89.069201 
L 862.397764 109.263575 
L 862.799613 112.868776 
L 865.612558 171.265798 
L 866.818106 175.836449 
L 867.219956 168.503698 
L 867.621805 151.512436 
L 868.023654 140.30352 
L 868.425503 151.95026 
L 869.631051 151.037561 
L 870.032901 157.187766 
L 870.43475 156.493385 
L 870.836599 131.793254 
L 871.238449 139.507471 
L 872.443996 109.523197 
L 872.845846 94.769936 
L 873.247695 92.262809 
L 873.649544 74.669113 
L 874.051394 90.611969 
L 875.256942 93.308876 
L 875.658791 132.07121 
L 876.06064 133.395495 
L 876.864339 107.804942 
L 878.069887 97.457853 
L 878.471736 80.599263 
L 878.873585 88.140295 
L 879.275435 76.558563 
L 879.677284 76.945625 
L 880.882832 78.790105 
L 881.284681 109.894897 
L 881.68653 102.875408 
L 882.08838 91.657441 
L 882.490229 90.105908 
L 883.695777 66.336541 
L 884.097626 68.453913 
L 884.499475 89.245396 
L 884.901325 91.085528 
L 885.303174 93.809152 
L 886.508722 108.281728 
L 886.910571 105.632324 
L 887.312421 118.1924 
L 887.71427 137.708478 
L 888.116119 139.461884 
L 889.321667 118.496194 
L 889.723516 119.200886 
L 890.125366 108.461061 
L 890.527215 104.120303 
L 890.929064 120.868598 
L 892.134612 127.79903 
L 892.536461 107.627996 
L 892.938311 116.312421 
L 893.34016 117.811933 
L 893.742009 128.715968 
L 894.947557 135.112958 
L 895.751256 99.700466 
L 896.153105 102.959951 
L 896.554954 118.482381 
L 897.760502 141.158058 
L 898.564201 168.115034 
L 899.3679 156.099882 
L 900.573447 150.046535 
L 900.975297 154.60361 
L 901.377146 135.300603 
L 901.778995 136.78174 
L 902.180845 131.118807 
L 903.386393 135.883661 
L 903.788242 166.368137 
L 904.190091 149.574816 
L 904.59194 156.02115 
L 904.99379 152.737218 
L 906.199338 144.161118 
L 906.601187 151.124618 
L 907.003036 150.891225 
L 907.404886 154.916248 
L 907.806735 142.930939 
L 909.012283 133.836256 
L 909.414132 145.949346 
L 910.217831 146.470212 
L 910.61968 147.170331 
L 911.825228 136.334833 
L 912.227077 134.766345 
L 913.030776 135.452051 
L 913.432625 113.170022 
L 914.638173 93.430556 
L 915.040022 114.725053 
L 915.441872 110.537057 
L 916.24557 117.571343 
L 917.451118 127.10578 
L 917.852967 138.864543 
L 918.254817 140.023201 
L 918.656666 146.504649 
L 919.058515 136.756179 
L 920.665912 124.953793 
L 921.469611 108.453599 
L 921.87146 124.508292 
L 923.077008 168.226305 
L 923.478858 158.486909 
L 923.880707 154.51959 
L 924.282556 152.945578 
L 924.684405 153.343992 
L 925.889953 154.098125 
L 926.291803 149.452034 
L 926.693652 146.918908 
L 927.095501 138.534079 
L 927.497351 142.652831 
L 928.702898 141.783712 
L 929.104748 152.248487 
L 929.506597 154.302263 
L 929.908446 142.450041 
L 930.310296 93.27458 
L 931.917693 107.69108 
L 932.319542 90.392007 
L 932.721391 90.501473 
L 933.123241 94.617685 
L 934.328789 97.254326 
L 934.730638 112.662865 
L 935.132487 115.816055 
L 935.534337 150.868233 
L 935.936186 142.278861 
L 937.141734 166.623686 
L 937.945432 156.337462 
L 938.347282 173.312201 
L 938.749131 176.759104 
L 939.954679 182.922698 
L 940.356528 178.714618 
L 940.758377 166.262253 
L 941.160227 160.782345 
L 941.562076 144.98828 
L 942.767624 143.015244 
L 943.169473 156.307021 
L 943.571323 136.988632 
L 943.973172 144.356213 
L 944.375021 123.973606 
L 945.580569 120.359716 
L 945.982418 124.762175 
L 946.384268 125.245709 
L 946.786117 135.19081 
L 947.187966 125.809482 
L 948.393514 133.322657 
L 948.795363 148.301491 
L 949.197213 147.032813 
L 949.599062 184.933921 
L 950.000911 190.766327 
L 951.206459 174.325389 
L 951.608309 183.313153 
L 952.010158 139.547604 
L 952.412007 148.041875 
L 952.813856 148.670527 
L 954.019404 148.016567 
L 954.421254 135.075942 
L 954.823103 143.272137 
L 955.224952 144.967876 
L 956.832349 149.167188 
L 957.234199 148.809666 
L 957.636048 143.082607 
L 958.439747 106.459536 
L 959.645295 114.888379 
L 960.047144 111.972174 
L 960.448993 144.649446 
L 960.850842 122.331096 
L 961.252692 123.39698 
L 962.45824 124.648688 
L 962.860089 128.959623 
L 963.261938 96.126962 
L 963.663788 82.686449 
L 964.065637 62.037386 
L 965.271185 58.112572 
L 965.673034 55.910604 
L 966.074883 54.869141 
L 966.476733 60.631908 
L 966.878582 47.64665 
L 968.08413 47.702754 
L 968.485979 53.928238 
L 968.887828 69.959541 
L 969.289678 72.2265 
L 969.691527 76.635655 
L 971.298924 70.164555 
L 971.700774 77.67693 
L 972.102623 72.675127 
L 972.504472 86.083076 
L 973.71002 92.199861 
L 974.111869 97.831905 
L 974.513719 108.832274 
L 974.915568 114.820778 
L 975.317417 111.691861 
L 976.522965 109.818006 
L 977.326664 95.514937 
L 977.728513 93.20866 
L 978.130362 99.589277 
L 979.33591 102.799507 
L 979.73776 102.296476 
L 980.139609 109.835763 
L 980.943307 98.124952 
L 982.148855 103.497833 
L 982.550705 103.830118 
L 983.354403 78.560684 
L 983.756253 76.978372 
L 984.9618 78.025824 
L 985.36365 102.862104 
L 985.765499 90.605153 
L 986.167348 90.739771 
L 987.774745 82.302535 
L 988.176595 83.812398 
L 988.578444 76.955574 
L 988.980293 77.139108 
L 989.382143 68.315486 
L 990.587691 72.841329 
L 990.98954 69.646308 
L 991.391389 76.562228 
L 991.793238 75.28284 
L 992.195088 82.407979 
L 993.400636 87.945657 
L 993.802485 86.292489 
L 994.204334 86.65477 
L 994.606184 85.113724 
L 995.008033 80.822275 
L 996.213581 78.518415 
L 996.61543 89.4937 
L 997.017279 84.984295 
L 997.419129 92.650108 
L 997.820978 105.523713 
L 999.026526 106.241867 
L 999.428375 113.592717 
L 999.830224 114.646643 
L 1000.232074 109.75914 
L 1000.633923 102.47499 
L 1001.839471 88.309133 
L 1002.24132 92.999133 
L 1002.64317 106.254 
L 1003.045019 104.201528 
L 1003.446868 119.431764 
L 1004.652416 109.86702 
L 1005.054265 143.944037 
L 1005.456115 140.560022 
L 1005.857964 127.660139 
L 1006.259813 141.052954 
L 1007.465361 125.763443 
L 1007.86721 122.670481 
L 1008.26906 128.790352 
L 1008.670909 143.680205 
L 1008.670909 143.680205 
" clip-path="url(#pe65161324d)" style="fill: none; stroke: #1f77b4; stroke-width: 1.5; stroke-linecap: square"/>
   </g>
   <g id="patch_3">
    <path d="M 145.8 224.28 
L 145.8 30.24 
" style="fill: none; stroke: #000000; stroke-width: 0.8; stroke-linejoin: miter; stroke-linecap: square"/>
   </g>
   <g id="patch_4">
    <path d="M 145.8 224.28 
L 1049.76 224.28 
" style="fill: none; stroke: #000000; stroke-width: 0.8; stroke-linejoin: miter; stroke-linecap: square"/>
   </g>
  </g>
 </g>
 <defs>
  <clipPath id="pe65161324d">
   <rect x="145.8" y="30.24" width="903.96" height="194.04"/>
  </clipPath>
 </defs>
</svg>
