<?xml version="1.0" encoding="utf-8" standalone="no"?>
<!DOCTYPE svg PUBLIC "-//W3C//DTD SVG 1.1//EN"
  "http://www.w3.org/Graphics/SVG/1.1/DTD/svg11.dtd">
<svg xmlns:xlink="http://www.w3.org/1999/xlink" width="1166.4pt" height="252pt" viewBox="0 0 1166.4 252" xmlns="http://www.w3.org/2000/svg" version="1.1">
 <metadata>
  <rdf:RDF xmlns:dc="http://purl.org/dc/elements/1.1/" xmlns:cc="http://creativecommons.org/ns#" xmlns:rdf="http://www.w3.org/1999/02/22-rdf-syntax-ns#">
   <cc:Work>
    <dc:type rdf:resource="http://purl.org/dc/dcmitype/StillImage"/>
    <dc:date>2025-09-08T17:07:07.442414</dc:date>
    <dc:format>image/svg+xml</dc:format>
    <dc:creator>
     <cc:Agent>
      <dc:title>Matplotlib v3.10.5, https://matplotlib.org/</dc:title>
     </cc:Agent>
    </dc:creator>
   </cc:Work>
  </rdf:RDF>
 </metadata>
 <defs>
  <style type="text/css">*{stroke-linejoin: round; stroke-linecap: butt}</style>
 </defs>
 <g id="figure_1">
  <g id="patch_1">
   <path d="M 0 252 
L 1166.4 252 
L 1166.4 0 
L 0 0 
z
" style="fill: #ffffff"/>
  </g>
  <g id="axes_1">
   <g id="patch_2">
    <path d="M 145.8 224.28 
L 1049.76 224.28 
L 1049.76 30.24 
L 145.8 30.24 
z
" style="fill: #ffffff"/>
   </g>
   <g id="matplotlib.axis_1">
    <g id="xtick_1">
     <g id="line2d_1">
      <defs>
       <path id="m39535095cc" d="M 0 0 
L 0 3.5 
" style="stroke: #000000; stroke-width: 0.8"/>
      </defs>
      <g>
       <use xlink:href="#m39535095cc" x="178.48314" y="224.28" style="stroke: #000000; stroke-width: 0.8"/>
      </g>
     </g>
     <g id="text_1">
      <!-- 2020 -->
      <g transform="translate(165.75814 238.878438) scale(0.1 -0.1)">
       <defs>
        <path id="DejaVuSans-32" d="M 1228 531 
L 3431 531 
L 3431 0 
L 469 0 
L 469 531 
Q 828 903 1448 1529 
Q 2069 2156 2228 2338 
Q 2531 2678 2651 2914 
Q 2772 3150 2772 3378 
Q 2772 3750 2511 3984 
Q 2250 4219 1831 4219 
Q 1534 4219 1204 4116 
Q 875 4013 500 3803 
L 500 4441 
Q 881 4594 1212 4672 
Q 1544 4750 1819 4750 
Q 2544 4750 2975 4387 
Q 3406 4025 3406 3419 
Q 3406 3131 3298 2873 
Q 3191 2616 2906 2266 
Q 2828 2175 2409 1742 
Q 1991 1309 1228 531 
z
" transform="scale(0.015625)"/>
        <path id="DejaVuSans-30" d="M 2034 4250 
Q 1547 4250 1301 3770 
Q 1056 3291 1056 2328 
Q 1056 1369 1301 889 
Q 1547 409 2034 409 
Q 2525 409 2770 889 
Q 3016 1369 3016 2328 
Q 3016 3291 2770 3770 
Q 2525 4250 2034 4250 
z
M 2034 4750 
Q 2819 4750 3233 4129 
Q 3647 3509 3647 2328 
Q 3647 1150 3233 529 
Q 2819 -91 2034 -91 
Q 1250 -91 836 529 
Q 422 1150 422 2328 
Q 422 3509 836 4129 
Q 1250 4750 2034 4750 
z
" transform="scale(0.015625)"/>
       </defs>
       <use xlink:href="#DejaVuSans-32"/>
       <use xlink:href="#DejaVuSans-30" transform="translate(63.623047 0)"/>
       <use xlink:href="#DejaVuSans-32" transform="translate(127.246094 0)"/>
       <use xlink:href="#DejaVuSans-30" transform="translate(190.869141 0)"/>
      </g>
     </g>
    </g>
    <g id="xtick_2">
     <g id="line2d_2">
      <g>
       <use xlink:href="#m39535095cc" x="324.986864" y="224.28" style="stroke: #000000; stroke-width: 0.8"/>
      </g>
     </g>
     <g id="text_2">
      <!-- 2021 -->
      <g transform="translate(312.261864 238.878438) scale(0.1 -0.1)">
       <defs>
        <path id="DejaVuSans-31" d="M 794 531 
L 1825 531 
L 1825 4091 
L 703 3866 
L 703 4441 
L 1819 4666 
L 2450 4666 
L 2450 531 
L 3481 531 
L 3481 0 
L 794 0 
L 794 531 
z
" transform="scale(0.015625)"/>
       </defs>
       <use xlink:href="#DejaVuSans-32"/>
       <use xlink:href="#DejaVuSans-30" transform="translate(63.623047 0)"/>
       <use xlink:href="#DejaVuSans-32" transform="translate(127.246094 0)"/>
       <use xlink:href="#DejaVuSans-31" transform="translate(190.869141 0)"/>
      </g>
     </g>
    </g>
    <g id="xtick_3">
     <g id="line2d_3">
      <g>
       <use xlink:href="#m39535095cc" x="471.090304" y="224.28" style="stroke: #000000; stroke-width: 0.8"/>
      </g>
     </g>
     <g id="text_3">
      <!-- 2022 -->
      <g transform="translate(458.365304 238.878438) scale(0.1 -0.1)">
       <use xlink:href="#DejaVuSans-32"/>
       <use xlink:href="#DejaVuSans-30" transform="translate(63.623047 0)"/>
       <use xlink:href="#DejaVuSans-32" transform="translate(127.246094 0)"/>
       <use xlink:href="#DejaVuSans-32" transform="translate(190.869141 0)"/>
      </g>
     </g>
    </g>
    <g id="xtick_4">
     <g id="line2d_4">
      <g>
       <use xlink:href="#m39535095cc" x="617.193745" y="224.28" style="stroke: #000000; stroke-width: 0.8"/>
      </g>
     </g>
     <g id="text_4">
      <!-- 2023 -->
      <g transform="translate(604.468745 238.878438) scale(0.1 -0.1)">
       <defs>
        <path id="DejaVuSans-33" d="M 2597 2516 
Q 3050 2419 3304 2112 
Q 3559 1806 3559 1356 
Q 3559 666 3084 287 
Q 2609 -91 1734 -91 
Q 1441 -91 1130 -33 
Q 819 25 488 141 
L 488 750 
Q 750 597 1062 519 
Q 1375 441 1716 441 
Q 2309 441 2620 675 
Q 2931 909 2931 1356 
Q 2931 1769 2642 2001 
Q 2353 2234 1838 2234 
L 1294 2234 
L 1294 2753 
L 1863 2753 
Q 2328 2753 2575 2939 
Q 2822 3125 2822 3475 
Q 2822 3834 2567 4026 
Q 2313 4219 1838 4219 
Q 1578 4219 1281 4162 
Q 984 4106 628 3988 
L 628 4550 
Q 988 4650 1302 4700 
Q 1616 4750 1894 4750 
Q 2613 4750 3031 4423 
Q 3450 4097 3450 3541 
Q 3450 3153 3228 2886 
Q 3006 2619 2597 2516 
z
" transform="scale(0.015625)"/>
       </defs>
       <use xlink:href="#DejaVuSans-32"/>
       <use xlink:href="#DejaVuSans-30" transform="translate(63.623047 0)"/>
       <use xlink:href="#DejaVuSans-32" transform="translate(127.246094 0)"/>
       <use xlink:href="#DejaVuSans-33" transform="translate(190.869141 0)"/>
      </g>
     </g>
    </g>
    <g id="xtick_5">
     <g id="line2d_5">
      <g>
       <use xlink:href="#m39535095cc" x="763.297185" y="224.28" style="stroke: #000000; stroke-width: 0.8"/>
      </g>
     </g>
     <g id="text_5">
      <!-- 2024 -->
      <g transform="translate(750.572185 238.878438) scale(0.1 -0.1)">
       <defs>
        <path id="DejaVuSans-34" d="M 2419 4116 
L 825 1625 
L 2419 1625 
L 2419 4116 
z
M 2253 4666 
L 3047 4666 
L 3047 1625 
L 3713 1625 
L 3713 1100 
L 3047 1100 
L 3047 0 
L 2419 0 
L 2419 1100 
L 313 1100 
L 313 1709 
L 2253 4666 
z
" transform="scale(0.015625)"/>
       </defs>
       <use xlink:href="#DejaVuSans-32"/>
       <use xlink:href="#DejaVuSans-30" transform="translate(63.623047 0)"/>
       <use xlink:href="#DejaVuSans-32" transform="translate(127.246094 0)"/>
       <use xlink:href="#DejaVuSans-34" transform="translate(190.869141 0)"/>
      </g>
     </g>
    </g>
    <g id="xtick_6">
     <g id="line2d_6">
      <g>
       <use xlink:href="#m39535095cc" x="909.80091" y="224.28" style="stroke: #000000; stroke-width: 0.8"/>
      </g>
     </g>
     <g id="text_6">
      <!-- 2025 -->
      <g transform="translate(897.07591 238.878438) scale(0.1 -0.1)">
       <defs>
        <path id="DejaVuSans-35" d="M 691 4666 
L 3169 4666 
L 3169 4134 
L 1269 4134 
L 1269 2991 
Q 1406 3038 1543 3061 
Q 1681 3084 1819 3084 
Q 2600 3084 3056 2656 
Q 3513 2228 3513 1497 
Q 3513 744 3044 326 
Q 2575 -91 1722 -91 
Q 1428 -91 1123 -41 
Q 819 9 494 109 
L 494 744 
Q 775 591 1075 516 
Q 1375 441 1709 441 
Q 2250 441 2565 725 
Q 2881 1009 2881 1497 
Q 2881 1984 2565 2268 
Q 2250 2553 1709 2553 
Q 1456 2553 1204 2497 
Q 953 2441 691 2322 
L 691 4666 
z
" transform="scale(0.015625)"/>
       </defs>
       <use xlink:href="#DejaVuSans-32"/>
       <use xlink:href="#DejaVuSans-30" transform="translate(63.623047 0)"/>
       <use xlink:href="#DejaVuSans-32" transform="translate(127.246094 0)"/>
       <use xlink:href="#DejaVuSans-35" transform="translate(190.869141 0)"/>
      </g>
     </g>
    </g>
   </g>
   <g id="matplotlib.axis_2">
    <g id="ytick_1">
     <g id="line2d_7">
      <defs>
       <path id="m1ef655049e" d="M 0 0 
L -3.5 0 
" style="stroke: #000000; stroke-width: 0.8"/>
      </defs>
      <g>
       <use xlink:href="#m1ef655049e" x="145.8" y="191.997222" style="stroke: #000000; stroke-width: 0.8"/>
      </g>
     </g>
     <g id="text_7">
      <!-- 20 -->
      <g transform="translate(126.075 195.796441) scale(0.1 -0.1)">
       <use xlink:href="#DejaVuSans-32"/>
       <use xlink:href="#DejaVuSans-30" transform="translate(63.623047 0)"/>
      </g>
     </g>
    </g>
    <g id="ytick_2">
     <g id="line2d_8">
      <g>
       <use xlink:href="#m1ef655049e" x="145.8" y="152.270632" style="stroke: #000000; stroke-width: 0.8"/>
      </g>
     </g>
     <g id="text_8">
      <!-- 40 -->
      <g transform="translate(126.075 156.069851) scale(0.1 -0.1)">
       <use xlink:href="#DejaVuSans-34"/>
       <use xlink:href="#DejaVuSans-30" transform="translate(63.623047 0)"/>
      </g>
     </g>
    </g>
    <g id="ytick_3">
     <g id="line2d_9">
      <g>
       <use xlink:href="#m1ef655049e" x="145.8" y="112.544042" style="stroke: #000000; stroke-width: 0.8"/>
      </g>
     </g>
     <g id="text_9">
      <!-- 60 -->
      <g transform="translate(126.075 116.343261) scale(0.1 -0.1)">
       <defs>
        <path id="DejaVuSans-36" d="M 2113 2584 
Q 1688 2584 1439 2293 
Q 1191 2003 1191 1497 
Q 1191 994 1439 701 
Q 1688 409 2113 409 
Q 2538 409 2786 701 
Q 3034 994 3034 1497 
Q 3034 2003 2786 2293 
Q 2538 2584 2113 2584 
z
M 3366 4563 
L 3366 3988 
Q 3128 4100 2886 4159 
Q 2644 4219 2406 4219 
Q 1781 4219 1451 3797 
Q 1122 3375 1075 2522 
Q 1259 2794 1537 2939 
Q 1816 3084 2150 3084 
Q 2853 3084 3261 2657 
Q 3669 2231 3669 1497 
Q 3669 778 3244 343 
Q 2819 -91 2113 -91 
Q 1303 -91 875 529 
Q 447 1150 447 2328 
Q 447 3434 972 4092 
Q 1497 4750 2381 4750 
Q 2619 4750 2861 4703 
Q 3103 4656 3366 4563 
z
" transform="scale(0.015625)"/>
       </defs>
       <use xlink:href="#DejaVuSans-36"/>
       <use xlink:href="#DejaVuSans-30" transform="translate(63.623047 0)"/>
      </g>
     </g>
    </g>
    <g id="ytick_4">
     <g id="line2d_10">
      <g>
       <use xlink:href="#m1ef655049e" x="145.8" y="72.817452" style="stroke: #000000; stroke-width: 0.8"/>
      </g>
     </g>
     <g id="text_10">
      <!-- 80 -->
      <g transform="translate(126.075 76.616671) scale(0.1 -0.1)">
       <defs>
        <path id="DejaVuSans-38" d="M 2034 2216 
Q 1584 2216 1326 1975 
Q 1069 1734 1069 1313 
Q 1069 891 1326 650 
Q 1584 409 2034 409 
Q 2484 409 2743 651 
Q 3003 894 3003 1313 
Q 3003 1734 2745 1975 
Q 2488 2216 2034 2216 
z
M 1403 2484 
Q 997 2584 770 2862 
Q 544 3141 544 3541 
Q 544 4100 942 4425 
Q 1341 4750 2034 4750 
Q 2731 4750 3128 4425 
Q 3525 4100 3525 3541 
Q 3525 3141 3298 2862 
Q 3072 2584 2669 2484 
Q 3125 2378 3379 2068 
Q 3634 1759 3634 1313 
Q 3634 634 3220 271 
Q 2806 -91 2034 -91 
Q 1263 -91 848 271 
Q 434 634 434 1313 
Q 434 1759 690 2068 
Q 947 2378 1403 2484 
z
M 1172 3481 
Q 1172 3119 1398 2916 
Q 1625 2713 2034 2713 
Q 2441 2713 2670 2916 
Q 2900 3119 2900 3481 
Q 2900 3844 2670 4047 
Q 2441 4250 2034 4250 
Q 1625 4250 1398 4047 
Q 1172 3844 1172 3481 
z
" transform="scale(0.015625)"/>
       </defs>
       <use xlink:href="#DejaVuSans-38"/>
       <use xlink:href="#DejaVuSans-30" transform="translate(63.623047 0)"/>
      </g>
     </g>
    </g>
    <g id="ytick_5">
     <g id="line2d_11">
      <g>
       <use xlink:href="#m1ef655049e" x="145.8" y="33.090863" style="stroke: #000000; stroke-width: 0.8"/>
      </g>
     </g>
     <g id="text_11">
      <!-- 100 -->
      <g transform="translate(119.7125 36.890081) scale(0.1 -0.1)">
       <use xlink:href="#DejaVuSans-31"/>
       <use xlink:href="#DejaVuSans-30" transform="translate(63.623047 0)"/>
       <use xlink:href="#DejaVuSans-30" transform="translate(127.246094 0)"/>
      </g>
     </g>
    </g>
   </g>
   <g id="line2d_12">
    <path d="M 186.889091 102.058912 
L 187.689658 91.128379 
L 188.890508 125.313192 
L 189.290791 116.064745 
L 189.691075 122.327336 
L 190.091358 126.690637 
L 190.491642 146.264273 
L 191.692492 154.324987 
L 192.092775 132.678769 
L 192.493058 123.333946 
L 192.893342 123.128039 
L 193.293625 128.5353 
L 194.494475 110.864277 
L 194.894759 107.89534 
L 195.295042 105.973202 
L 195.695326 104.909677 
L 196.095609 72.38166 
L 197.696743 72.861531 
L 198.097026 61.420049 
L 198.897593 79.273838 
L 200.098443 106.149783 
L 200.498726 120.925845 
L 200.89901 119.605294 
L 201.299293 133.452444 
L 201.699577 120.634332 
L 202.900427 123.518777 
L 203.30071 133.565484 
L 203.700994 125.391237 
L 204.101277 130.942968 
L 204.50156 146.225098 
L 205.702411 160.017093 
L 206.102694 161.757527 
L 206.502977 164.939199 
L 206.903261 170.002392 
L 207.303544 147.766451 
L 208.504394 159.293873 
L 208.904678 151.799517 
L 209.304961 151.662568 
L 209.705245 155.142155 
L 210.105528 160.452438 
L 211.306378 153.824581 
L 211.706662 145.669806 
L 212.106945 143.104008 
L 212.907512 129.454468 
L 214.108362 130.55959 
L 214.908929 120.335645 
L 215.309212 125.422784 
L 215.709496 105.46742 
L 216.910346 104.001858 
L 217.310629 100.266282 
L 217.710913 101.139962 
L 218.111196 98.640619 
L 219.71233 98.656228 
L 220.112613 108.724182 
L 220.512896 108.343464 
L 220.91318 107.201402 
L 221.313463 105.378098 
L 222.514313 116.949463 
L 222.914597 128.581776 
L 223.31488 103.795904 
L 223.715164 112.056268 
L 224.115447 98.372948 
L 225.316297 107.91548 
L 225.716581 103.903941 
L 226.116864 104.423148 
L 226.517147 106.85738 
L 226.917431 121.394925 
L 228.118281 125.841115 
L 228.518564 120.798209 
L 228.918848 129.355193 
L 229.319131 120.564923 
L 229.719415 108.91875 
L 230.920265 79.760429 
L 231.320548 105.010046 
L 231.720832 103.317504 
L 232.121115 100.111948 
L 232.521398 93.347259 
L 233.722249 80.790957 
L 234.122532 82.951509 
L 234.522815 71.438967 
L 234.923099 68.869029 
L 235.323382 68.363034 
L 236.924516 86.168479 
L 237.324799 97.142243 
L 237.725083 102.818387 
L 238.125366 98.373374 
L 239.326216 107.197502 
L 239.7265 94.424427 
L 240.126783 96.110499 
L 240.527066 102.507263 
L 240.92735 112.402875 
L 242.1282 129.499079 
L 242.528483 121.327371 
L 242.928767 115.452885 
L 243.32905 131.495678 
L 243.729334 135.81896 
L 244.930184 114.4369 
L 245.330467 110.273068 
L 245.730751 103.473565 
L 246.131034 116.861292 
L 246.531317 111.571656 
L 247.732168 103.624918 
L 248.132451 104.721756 
L 248.532734 114.955397 
L 248.933018 111.970542 
L 249.333301 120.781702 
L 250.534151 126.933214 
L 250.934435 127.712062 
L 251.334718 99.768993 
L 251.735002 101.421596 
L 253.336135 101.871538 
L 253.736419 94.268996 
L 254.136702 89.502172 
L 254.536985 81.997376 
L 254.937269 84.593975 
L 256.138119 113.016304 
L 256.538402 101.086862 
L 256.938686 98.1444 
L 257.338969 108.802333 
L 257.739253 89.889605 
L 258.940103 84.348616 
L 259.340386 100.591379 
L 259.74067 98.620269 
L 260.140953 114.672367 
L 260.541236 119.510681 
L 261.742087 113.774427 
L 262.14237 132.425172 
L 262.542653 133.978834 
L 262.942937 127.740641 
L 263.34322 109.525707 
L 264.54407 107.373241 
L 264.944354 93.893453 
L 265.344637 87.478078 
L 265.744921 87.865183 
L 266.145204 103.364136 
L 267.346054 94.772797 
L 267.746338 115.47553 
L 268.146621 84.085594 
L 268.546904 85.287066 
L 268.947188 87.477845 
L 270.148038 64.274823 
L 270.948605 80.062405 
L 271.348888 80.034019 
L 271.749172 77.764981 
L 272.950022 80.587929 
L 274.150872 81.985975 
L 274.551155 72.721147 
L 275.752005 54.324385 
L 276.152289 55.28959 
L 276.552572 52.060065 
L 276.952856 102.323344 
L 277.353139 125.91442 
L 278.954273 139.165252 
L 279.354556 122.363573 
L 279.754839 129.585419 
L 280.155123 141.31832 
L 281.355973 129.994486 
L 281.756256 128.668043 
L 282.15654 136.043766 
L 282.556823 134.737177 
L 282.957107 146.734824 
L 284.157957 145.02098 
L 284.55824 150.803013 
L 284.958524 167.026182 
L 285.75909 127.788784 
L 286.959941 109.452793 
L 287.360224 120.452889 
L 287.760507 103.20372 
L 288.160791 97.124042 
L 288.561074 127.600867 
L 289.761924 117.659818 
L 290.162208 102.103959 
L 290.962775 91.781771 
L 291.363058 99.687171 
L 292.563908 94.151281 
L 292.964192 74.305143 
L 293.364475 83.665982 
L 293.764758 97.950099 
L 294.165042 107.979251 
L 296.166459 135.228263 
L 296.566742 121.700655 
L 296.967026 134.551354 
L 298.167876 153.709329 
L 298.568159 152.504357 
L 298.968443 167.313131 
L 299.368726 151.875355 
L 299.769009 176.681666 
L 300.96986 175.760709 
L 301.370143 158.429351 
L 301.770426 136.078051 
L 302.17071 125.43266 
L 302.570993 111.480231 
L 303.771843 132.658438 
L 304.172127 143.809273 
L 304.57241 131.605351 
L 304.972694 134.337892 
L 305.372977 130.056017 
L 306.573827 130.608208 
L 306.974111 118.940208 
L 307.374394 125.06414 
L 307.774677 114.390893 
L 308.174961 122.9094 
L 309.375811 129.972419 
L 309.776094 151.627208 
L 310.176378 154.112076 
L 310.976945 165.890322 
L 312.177795 139.83037 
L 312.578078 104.645362 
L 312.978362 125.12201 
L 313.378645 135.488973 
L 313.778928 118.033949 
L 314.979779 126.703231 
L 315.380062 136.120615 
L 315.780345 154.320082 
L 316.180629 152.717207 
L 316.580912 135.990562 
L 317.781762 124.61759 
L 318.182046 112.905641 
L 318.582329 131.801685 
L 318.982613 128.206342 
L 319.382896 138.925164 
L 320.583746 135.130838 
L 320.98403 146.401041 
L 321.384313 151.750491 
L 321.784596 162.893571 
L 323.38573 169.659155 
L 323.786013 156.586308 
L 324.186297 117.721422 
L 324.58658 126.940041 
L 326.187714 125.860347 
L 326.587997 126.120367 
L 326.988281 165.263193 
L 327.388564 128.89066 
L 327.788847 134.667057 
L 328.989698 121.247994 
L 329.389981 127.654982 
L 329.790264 124.490096 
L 330.190548 126.55707 
L 330.590831 136.144514 
L 332.191965 128.989727 
L 332.992532 115.486356 
L 333.392815 117.222969 
L 334.593665 119.944417 
L 334.993949 131.690807 
L 335.394232 124.792761 
L 335.794515 141.070427 
L 336.194799 140.908274 
L 337.395649 144.137422 
L 337.795932 130.327696 
L 338.196216 132.443655 
L 338.596499 118.095942 
L 338.996783 107.801107 
L 340.197633 93.782019 
L 340.597916 106.715945 
L 340.9982 106.731837 
L 341.398483 92.206508 
L 341.798766 100.176634 
L 343.800183 84.106538 
L 344.200467 88.611651 
L 344.60075 85.126293 
L 345.8016 107.107558 
L 346.201884 118.84496 
L 346.602167 111.571671 
L 347.002451 138.651566 
L 347.402734 130.365787 
L 349.003868 147.750141 
L 349.804434 183.529798 
L 350.204718 178.401796 
L 351.405568 195.345378 
L 351.805851 169.33932 
L 352.206135 169.094989 
L 352.606418 160.544952 
L 353.006702 155.707197 
L 354.207552 146.874854 
L 354.607835 151.561686 
L 355.008118 131.6599 
L 355.408402 150.882919 
L 355.808685 150.970715 
L 357.009535 136.514289 
L 357.409819 126.720387 
L 357.810102 126.573355 
L 358.210386 130.769385 
L 358.610669 102.625579 
L 359.811519 119.705374 
L 360.211803 120.519421 
L 360.612086 121.802352 
L 361.012369 106.388986 
L 362.613503 109.740053 
L 363.013786 116.293756 
L 363.41407 111.141899 
L 363.814353 84.441113 
L 364.214637 85.074963 
L 365.415487 78.545124 
L 365.81577 68.9782 
L 366.216054 67.9659 
L 366.616337 58.064263 
L 367.01662 67.915256 
L 368.217471 86.083885 
L 369.018037 92.447432 
L 369.418321 111.975419 
L 369.818604 108.405874 
L 371.019454 102.532923 
L 371.820021 113.789504 
L 372.220305 114.344887 
L 372.620588 136.723114 
L 373.821438 151.9027 
L 374.221722 153.416665 
L 374.622005 178.423343 
L 375.022288 172.257152 
L 375.422572 149.453882 
L 376.623422 157.686683 
L 377.023705 163.123628 
L 377.423989 163.870105 
L 377.824272 183.265406 
L 378.224556 167.557278 
L 379.425406 167.210591 
L 379.825689 168.03179 
L 380.225973 167.955219 
L 380.626256 142.92439 
L 381.026539 128.515571 
L 382.22739 101.794698 
L 382.627673 103.017129 
L 383.027956 103.230916 
L 383.42824 115.326979 
L 383.828523 84.929524 
L 385.429657 85.187509 
L 385.82994 58.985292 
L 386.230224 53.949017 
L 386.630507 53.796771 
L 387.831357 50.293571 
L 388.231641 50.824022 
L 388.631924 55.082815 
L 389.032207 57.894654 
L 389.432491 57.756058 
L 390.633341 60.899271 
L 391.033624 72.283887 
L 391.433908 72.624207 
L 391.834191 56.417102 
L 392.234475 62.543945 
L 393.435325 72.645757 
L 393.835608 73.249484 
L 394.235892 73.488233 
L 394.636175 79.552162 
L 395.036458 88.444615 
L 396.237309 69.398583 
L 396.637592 65.107812 
L 397.438159 68.42381 
L 397.838442 67.663295 
L 399.439576 55.695897 
L 399.839859 69.939801 
L 400.240143 98.925484 
L 400.640426 95.743189 
L 401.841276 81.575944 
L 402.641843 113.480283 
L 403.042126 137.314498 
L 403.44241 148.194885 
L 404.64326 155.705801 
L 405.043543 159.100952 
L 405.443827 142.153986 
L 405.84411 142.61665 
L 406.244394 148.389583 
L 407.445244 156.352156 
L 407.845527 153.102977 
L 408.245811 139.745024 
L 408.646094 139.518729 
L 409.046377 152.055444 
L 410.247228 142.122369 
L 410.647511 132.959322 
L 411.448078 69.507052 
L 411.848361 88.175755 
L 413.049211 84.167763 
L 413.449495 115.143234 
L 413.849778 129.020347 
L 414.250062 121.800091 
L 414.650345 105.238128 
L 415.851195 110.859873 
L 416.251479 133.64291 
L 416.651762 148.345189 
L 417.052045 125.765542 
L 417.452329 112.195181 
L 418.653179 98.704218 
L 419.053462 107.351378 
L 419.453746 106.655005 
L 419.854029 104.007349 
L 420.254313 96.355284 
L 421.455163 87.9074 
L 422.25573 90.739398 
L 422.656013 94.635527 
L 423.056296 84.653613 
L 424.65743 76.650097 
L 425.057713 74.029851 
L 425.85828 93.985194 
L 427.05913 126.775922 
L 427.459414 119.236671 
L 427.859697 128.172593 
L 428.259981 126.610621 
L 428.660264 158.169145 
L 429.861114 176.271851 
L 430.261398 165.766641 
L 430.661681 144.729699 
L 431.061964 130.520201 
L 431.462248 149.299999 
L 432.663098 153.490948 
L 433.063381 162.806538 
L 433.463665 163.062724 
L 433.863948 165.575616 
L 434.264232 160.549677 
L 435.465082 174.687586 
L 435.865365 161.214563 
L 436.265648 155.381608 
L 436.665932 144.638369 
L 437.066215 136.956891 
L 438.267065 141.292401 
L 438.667349 155.390361 
L 439.067632 161.792821 
L 439.467916 138.326291 
L 441.069049 100.326916 
L 441.469333 94.135703 
L 441.869616 102.389519 
L 442.269899 94.816759 
L 442.670183 61.202023 
L 443.871033 63.214602 
L 444.271316 55.670601 
L 444.6716 66.534551 
L 445.071883 55.90972 
L 445.472167 49.353739 
L 446.673017 47.934232 
L 447.0733 47.220976 
L 447.473584 48.717906 
L 447.873867 43.263892 
L 448.27415 44.775107 
L 449.475001 43.567159 
L 449.875284 42.773149 
L 450.275567 65.779554 
L 450.675851 63.110043 
L 451.076134 64.362738 
L 452.276984 76.073604 
L 452.677268 70.781931 
L 453.077551 88.275925 
L 453.477835 79.703303 
L 453.878118 75.806547 
L 455.078968 90.017652 
L 455.479252 93.162644 
L 455.879535 105.871947 
L 456.680102 117.762933 
L 457.880952 112.287514 
L 458.281235 117.272623 
L 458.681519 117.609839 
L 459.081802 119.163941 
L 459.482086 130.30357 
L 460.682936 132.301918 
L 461.083219 119.379545 
L 461.483503 117.078306 
L 461.883786 139.944234 
L 462.284069 151.408384 
L 463.48492 156.613816 
L 463.885203 154.196936 
L 464.285486 145.54491 
L 464.68577 149.953465 
L 465.086053 166.291016 
L 466.286903 163.71754 
L 466.687187 147.213857 
L 467.08747 149.914852 
L 467.487754 139.735508 
L 469.088887 126.363126 
L 469.489171 148.301934 
L 469.889454 146.48742 
L 470.289737 139.919195 
L 470.690021 139.011635 
L 471.890871 113.882413 
L 472.291154 123.928567 
L 472.691438 158.840504 
L 473.091721 134.656445 
L 473.492005 138.154295 
L 474.692855 135.692155 
L 475.093138 146.758357 
L 475.493422 148.656584 
L 476.293988 177.53896 
L 477.895122 179.982369 
L 479.095972 187.703261 
L 480.296822 198.543215 
L 480.697106 199.238761 
L 481.097389 185.062253 
L 481.497673 198.49817 
L 481.897956 179.304052 
L 483.098806 159.139994 
L 483.49909 162.302875 
L 483.899373 157.338174 
L 484.299656 156.447155 
L 484.69994 156.401671 
L 485.90079 143.817984 
L 486.301073 131.990609 
L 486.701357 108.127016 
L 487.10164 109.356493 
L 487.501924 127.796674 
L 488.702774 115.912586 
L 489.503341 96.599424 
L 490.303907 138.858262 
L 491.905041 141.873266 
L 492.305324 153.421839 
L 492.705608 133.872202 
L 493.105891 133.590546 
L 494.306741 134.946318 
L 495.107308 151.222866 
L 495.507592 148.850152 
L 495.907875 141.029619 
L 497.108725 154.839817 
L 497.509009 178.078773 
L 497.909292 160.594126 
L 498.309575 149.598074 
L 498.709859 147.163541 
L 499.910709 151.193789 
L 500.310992 127.317784 
L 500.711276 126.0081 
L 501.111559 127.127426 
L 501.511843 116.566723 
L 502.712693 106.214782 
L 503.112976 113.061287 
L 503.51326 116.792582 
L 503.913543 95.286463 
L 504.313826 83.306667 
L 505.514677 81.91698 
L 505.91496 86.197214 
L 506.315243 93.16737 
L 506.715527 91.471459 
L 507.11581 89.252055 
L 508.31666 94.157737 
L 508.716944 119.79165 
L 509.917794 162.651565 
L 511.118644 167.978442 
L 511.518928 165.523562 
L 511.919211 188.291028 
L 512.319494 190.2042 
L 513.920628 190.232549 
L 514.320911 190.545994 
L 514.721195 189.591195 
L 515.121478 192.820502 
L 515.521762 193.131162 
L 516.722612 196.760166 
L 517.122895 195.776399 
L 517.523178 191.656974 
L 517.923462 171.613078 
L 518.323745 172.385737 
L 519.524595 153.657561 
L 519.924879 149.90129 
L 520.325162 149.545431 
L 520.725446 153.482369 
L 521.125729 160.417869 
L 522.326579 174.679244 
L 522.726863 163.897958 
L 523.127146 161.998286 
L 523.527429 160.730246 
L 523.927713 149.372163 
L 525.128563 144.830068 
L 525.528846 134.265042 
L 525.92913 154.831599 
L 526.329413 144.646635 
L 526.729697 158.061044 
L 527.930547 156.544667 
L 528.33083 169.680006 
L 528.731114 150.138014 
L 529.131397 139.729881 
L 529.53168 114.654248 
L 531.132814 121.608376 
L 531.533097 114.343965 
L 531.933381 98.836816 
L 532.333664 121.750484 
L 533.534514 115.748814 
L 533.934798 123.445965 
L 534.335081 109.203771 
L 535.135648 129.05214 
L 536.336498 145.426866 
L 536.736782 135.893984 
L 537.137065 137.405361 
L 537.537348 157.526405 
L 537.937632 167.857077 
L 539.538765 156.273634 
L 539.939049 154.993625 
L 540.339332 177.149119 
L 540.739616 153.480008 
L 541.940466 157.130248 
L 542.340749 167.036238 
L 542.741033 168.285108 
L 543.141316 166.64256 
L 543.541599 163.053762 
L 545.142733 142.019539 
L 545.543016 142.375696 
L 545.9433 141.803883 
L 546.343583 128.589336 
L 547.544433 143.408933 
L 547.944717 157.153141 
L 548.345 152.774748 
L 548.745284 146.75403 
L 549.145567 157.521874 
L 550.346417 146.336271 
L 550.746701 114.102589 
L 551.146984 93.98687 
L 551.547267 82.166941 
L 551.947551 84.612285 
L 553.148401 96.28589 
L 553.548684 109.141192 
L 553.948968 102.968937 
L 554.349251 100.558452 
L 554.749535 84.057836 
L 555.950385 80.224622 
L 556.350668 80.202551 
L 556.750952 79.059799 
L 557.151235 79.541645 
L 557.551518 87.407972 
L 558.752369 120.496588 
L 559.152652 143.30483 
L 560.353502 109.277 
L 561.554352 97.287569 
L 562.354919 126.885366 
L 562.755203 123.189046 
L 563.155486 140.553005 
L 565.156903 158.986903 
L 565.557186 145.914033 
L 565.95747 150.599737 
L 567.15832 148.122305 
L 567.558603 167.487688 
L 567.958887 169.323732 
L 568.35917 191.267114 
L 568.759454 199.10139 
L 570.360587 199.218964 
L 570.760871 191.519436 
L 571.161154 194.896916 
L 571.561437 180.991926 
L 572.762288 171.7624 
L 573.162571 185.290494 
L 573.562854 186.134239 
L 573.963138 202.378613 
L 574.363421 185.832994 
L 575.564271 176.742876 
L 575.964555 175.421803 
L 576.765122 162.445315 
L 577.165405 158.491141 
L 578.366255 160.257427 
L 578.766539 162.254997 
L 579.166822 160.867688 
L 579.567105 180.286851 
L 579.967389 185.117646 
L 581.168239 150.190575 
L 581.568522 131.46466 
L 581.968806 125.370745 
L 582.369089 134.202512 
L 582.769373 160.409751 
L 583.970223 163.361498 
L 584.370506 166.842262 
L 584.77079 157.39541 
L 585.171073 144.328689 
L 585.571356 151.988906 
L 586.772207 141.797064 
L 587.17249 146.793187 
L 587.572773 135.84894 
L 587.973057 131.301339 
L 588.37334 133.351677 
L 589.57419 145.477717 
L 589.974474 131.361008 
L 590.374757 136.85776 
L 591.175324 86.679561 
L 592.376174 94.088479 
L 592.776458 91.108052 
L 593.176741 106.232023 
L 593.577024 81.088429 
L 593.977308 80.266237 
L 595.178158 79.556316 
L 595.578441 77.365796 
L 595.978725 102.683805 
L 596.379008 85.733714 
L 596.779292 82.588759 
L 597.980142 88.107691 
L 598.380425 77.409742 
L 598.780708 95.129532 
L 599.180992 105.721157 
L 599.581275 104.440735 
L 600.782125 106.633855 
L 601.182409 93.699585 
L 601.582692 91.448527 
L 602.383259 102.524675 
L 603.584109 111.714143 
L 603.984393 118.124838 
L 604.384676 91.619444 
L 605.185243 122.582648 
L 606.386093 126.966522 
L 606.786376 143.432526 
L 607.18666 128.510074 
L 607.586943 108.715829 
L 607.987227 106.72407 
L 609.188077 99.040168 
L 609.58836 100.925547 
L 609.988644 114.267479 
L 610.388927 122.414961 
L 610.78921 121.413929 
L 611.990061 123.480893 
L 612.390344 146.836512 
L 612.790627 142.951032 
L 613.190911 154.610877 
L 613.591194 153.089632 
L 615.192328 158.132515 
L 615.592611 161.330667 
L 615.992895 170.592188 
L 616.393178 168.784175 
L 617.994312 183.314479 
L 618.394595 185.818717 
L 618.794878 186.44882 
L 619.195162 166.278848 
L 620.396012 146.760642 
L 620.796295 137.687639 
L 621.196579 133.708396 
L 621.596862 132.254632 
L 621.997146 105.377742 
L 623.598279 93.685947 
L 623.998563 75.091837 
L 624.398846 88.472401 
L 624.799129 84.26657 
L 625.99998 75.695789 
L 626.400263 69.314875 
L 626.800546 71.151472 
L 627.20083 58.204771 
L 627.601113 58.310259 
L 628.801963 87.490012 
L 629.202247 86.843384 
L 629.60253 79.184429 
L 630.002814 77.939452 
L 630.403097 89.38969 
L 631.603947 94.641082 
L 632.404514 72.944333 
L 632.804797 77.554071 
L 633.205081 106.232888 
L 634.405931 102.264778 
L 634.806214 94.019313 
L 635.206498 100.313194 
L 635.606781 115.046835 
L 636.007065 107.216065 
L 637.608198 120.251012 
L 638.008482 134.805514 
L 638.408765 112.934513 
L 638.809048 110.117231 
L 640.009899 108.317264 
L 640.410182 121.080176 
L 640.810465 127.323409 
L 641.210749 122.814459 
L 641.611032 105.304157 
L 642.811882 113.811779 
L 643.212166 128.662102 
L 643.612449 117.061434 
L 644.012733 116.850701 
L 644.413016 115.034033 
L 645.613866 104.725601 
L 646.01415 97.039904 
L 646.414433 123.804404 
L 646.814716 102.4641 
L 647.215 102.752012 
L 648.41585 96.094772 
L 648.816133 83.60564 
L 649.216417 86.187915 
L 649.6167 85.061374 
L 650.016984 86.652933 
L 651.217834 86.362455 
L 651.618117 96.833417 
L 652.018401 74.182813 
L 652.418684 59.032738 
L 652.818967 57.433004 
L 654.019818 61.4826 
L 654.420101 77.288491 
L 654.820384 106.158033 
L 655.220668 106.563758 
L 656.821801 101.578592 
L 657.622368 131.954743 
L 658.022652 146.221258 
L 658.422935 132.814923 
L 659.623785 123.258509 
L 660.024069 110.338923 
L 660.424352 114.817502 
L 660.824635 137.205536 
L 661.224919 144.518119 
L 662.425769 149.752396 
L 662.826052 154.002391 
L 663.226336 131.104375 
L 663.626619 129.188239 
L 664.026903 129.502349 
L 665.227753 106.061161 
L 665.628036 106.557105 
L 666.428603 120.85153 
L 666.828886 110.997637 
L 668.029737 112.988953 
L 668.43002 124.36761 
L 668.830303 108.481586 
L 669.230587 113.552091 
L 669.63087 115.976927 
L 670.83172 97.235501 
L 671.232004 101.287385 
L 672.032571 88.439546 
L 672.432854 103.643714 
L 673.633704 93.214592 
L 674.033988 94.673354 
L 674.434271 93.030136 
L 674.834554 65.621905 
L 675.234838 64.497801 
L 676.835971 55.538672 
L 677.236255 79.732482 
L 677.636538 72.330057 
L 678.036822 74.076771 
L 679.237672 76.800969 
L 679.637955 81.742898 
L 680.038238 93.667542 
L 680.438522 95.210474 
L 680.838805 91.195192 
L 682.039655 88.324787 
L 682.439939 80.483977 
L 682.840222 75.099749 
L 683.240506 100.373631 
L 683.640789 104.968242 
L 685.241923 105.228047 
L 685.642206 89.285142 
L 686.042489 100.343121 
L 687.643623 120.168818 
L 688.043906 107.011432 
L 688.44419 102.758943 
L 688.844473 112.370717 
L 689.244757 104.742854 
L 690.445607 108.307958 
L 691.246174 120.313757 
L 691.646457 142.412915 
L 692.04674 134.0757 
L 693.247591 137.926201 
L 693.647874 149.149099 
L 694.048157 123.009726 
L 694.448441 106.023081 
L 694.848724 102.43964 
L 696.049574 75.756304 
L 696.449858 76.655853 
L 696.850141 71.169275 
L 697.250425 89.710636 
L 697.650708 113.706902 
L 698.851558 112.28037 
L 699.251842 104.163194 
L 699.652125 104.303361 
L 700.052408 104.01562 
L 700.452692 95.833906 
L 701.653542 97.224288 
L 702.053825 108.738913 
L 702.454109 147.697777 
L 702.854392 141.154344 
L 703.254676 150.086771 
L 704.455526 153.653648 
L 704.855809 156.264988 
L 705.256093 160.202443 
L 705.656376 152.37865 
L 706.056659 167.011093 
L 707.25751 147.571794 
L 707.657793 144.349964 
L 708.058076 151.46543 
L 708.45836 160.900626 
L 708.858643 161.043498 
L 710.059493 129.429576 
L 710.86006 115.853535 
L 711.260344 116.484087 
L 711.660627 128.652113 
L 712.861477 118.896769 
L 713.261761 93.241572 
L 713.662044 90.022886 
L 714.062327 74.862064 
L 714.462611 94.97279 
L 716.063744 95.707244 
L 716.464028 106.076681 
L 717.264595 117.130364 
L 718.465445 147.788827 
L 718.865728 139.894523 
L 719.266012 149.06265 
L 719.666295 148.479967 
L 720.066578 152.817743 
L 721.267429 162.245239 
L 721.667712 197.43223 
L 722.067995 211.332251 
L 722.468279 215.46 
L 722.868562 202.909487 
L 724.069412 193.449413 
L 724.469696 188.527549 
L 725.270263 160.420771 
L 725.670546 151.315626 
L 726.871396 133.299691 
L 727.27168 151.121982 
L 727.671963 146.475376 
L 728.072246 124.452339 
L 728.47253 115.96138 
L 729.67338 116.418511 
L 730.473947 74.44345 
L 730.87423 76.426994 
L 731.274514 101.287463 
L 732.475364 93.426067 
L 732.875647 120.499069 
L 733.275931 139.035363 
L 733.676214 143.033723 
L 734.076497 159.388092 
L 735.277348 136.606164 
L 735.677631 135.298722 
L 736.478198 169.385741 
L 736.878481 165.59164 
L 738.079331 164.342017 
L 738.479615 175.794413 
L 738.879898 162.594299 
L 739.280182 145.441079 
L 740.881315 119.860451 
L 741.281599 103.270414 
L 741.681882 99.098287 
L 742.082165 89.904222 
L 742.482449 90.805514 
L 743.683299 92.682289 
L 744.083582 64.645052 
L 744.483866 54.10634 
L 744.884149 53.327434 
L 745.284433 57.572648 
L 746.485283 49.458284 
L 746.885566 59.989628 
L 747.28585 83.108626 
L 748.086416 104.712231 
L 749.287267 106.788766 
L 749.68755 113.638392 
L 750.087833 116.162262 
L 750.8884 149.378011 
L 752.08925 162.814278 
L 752.489534 162.5073 
L 752.889817 164.456834 
L 753.290101 158.460707 
L 753.690384 147.575207 
L 754.891234 165.106735 
L 756.092084 126.971322 
L 756.492368 126.317918 
L 757.693218 112.723019 
L 758.093501 119.790817 
L 758.493785 120.970703 
L 758.894068 114.773829 
L 759.294352 103.600348 
L 760.895485 107.571371 
L 761.295768 93.237201 
L 762.096335 107.460651 
L 763.697469 114.403997 
L 764.097752 133.490416 
L 764.498036 133.515302 
L 764.898319 124.076117 
L 766.099169 103.416712 
L 766.499453 105.296859 
L 766.899736 92.989702 
L 767.300019 71.466222 
L 767.700303 76.547937 
L 769.301436 68.202764 
L 769.70172 74.219321 
L 770.102003 71.200117 
L 770.502287 65.314731 
L 771.703137 64.962683 
L 772.10342 48.076563 
L 772.503704 39.06 
L 772.903987 39.131624 
L 773.30427 47.674498 
L 774.905404 50.54432 
L 775.305687 71.614639 
L 775.705971 68.509275 
L 776.106254 60.315667 
L 777.307104 57.951595 
L 777.707388 65.459189 
L 778.107671 64.049643 
L 778.507955 72.934672 
L 778.908238 68.121319 
L 780.109088 68.311343 
L 780.509372 72.357693 
L 780.909655 69.274977 
L 781.309938 74.608967 
L 781.710222 78.191885 
L 783.711639 105.781063 
L 784.111922 83.873912 
L 784.512206 88.891226 
L 785.713056 95.111063 
L 786.113339 91.229846 
L 786.513623 101.662034 
L 786.913906 95.411144 
L 787.314189 93.799468 
L 789.315606 84.229583 
L 789.71589 72.613876 
L 790.116173 93.762279 
L 791.317023 88.507054 
L 791.717307 73.32755 
L 792.11759 92.894854 
L 792.517874 105.5117 
L 792.918157 106.507853 
L 794.119007 103.714998 
L 794.519291 97.792769 
L 794.919574 98.718189 
L 795.319857 103.157459 
L 795.720141 103.392242 
L 796.920991 103.433099 
L 797.721558 140.684004 
L 798.121841 120.700604 
L 799.722975 111.919001 
L 800.123258 146.770519 
L 800.523542 144.002302 
L 800.923825 144.610224 
L 801.324108 131.493799 
L 802.524959 139.373392 
L 802.925242 152.811571 
L 803.325525 148.637849 
L 803.725809 135.957903 
L 804.126092 159.364321 
L 805.326942 169.721935 
L 805.727226 154.696113 
L 806.127509 158.127188 
L 806.527793 155.42558 
L 806.928076 175.041175 
L 808.128926 160.27763 
L 808.52921 149.58555 
L 808.929493 148.900013 
L 809.329776 146.327572 
L 809.73006 131.003323 
L 810.93091 126.561732 
L 811.331193 133.969512 
L 811.731477 151.084211 
L 812.532044 125.721315 
L 813.732894 121.582442 
L 814.133177 116.82769 
L 814.533461 118.521915 
L 814.933744 96.031541 
L 815.334027 100.323752 
L 816.534878 105.723056 
L 816.935161 90.828752 
L 817.335444 90.176008 
L 817.735728 104.273904 
L 818.136011 113.828308 
L 819.336861 100.634324 
L 819.737145 80.085302 
L 820.137428 89.404585 
L 820.537712 77.133315 
L 820.937995 78.274186 
L 822.539129 60.25109 
L 822.939412 58.749049 
L 823.339695 71.681886 
L 823.739979 76.847173 
L 824.940829 71.567078 
L 825.341112 71.112635 
L 825.741396 68.720037 
L 826.141679 73.005625 
L 826.541963 66.43706 
L 827.742813 67.564735 
L 828.143096 71.497075 
L 828.54338 66.338944 
L 828.943663 69.934003 
L 829.343946 70.296371 
L 830.544797 82.659573 
L 830.94508 77.837877 
L 831.745647 79.749443 
L 833.34678 125.476903 
L 833.747064 113.681067 
L 834.147347 123.751825 
L 834.547631 125.998766 
L 834.947914 126.765798 
L 836.148764 127.050339 
L 836.549048 128.725882 
L 836.949331 126.139011 
L 837.749898 140.422204 
L 838.950748 140.193601 
L 839.351031 131.600218 
L 839.751315 133.789302 
L 840.151598 139.007625 
L 840.551882 126.938637 
L 841.752732 107.28031 
L 842.553298 151.836292 
L 842.953582 139.001113 
L 843.353865 144.417804 
L 844.554715 133.880424 
L 844.954999 132.564491 
L 845.355282 158.554997 
L 845.755566 157.88996 
L 846.155849 161.763987 
L 847.356699 172.105813 
L 847.756983 189.92376 
L 848.157266 149.698601 
L 848.557549 162.73681 
L 848.957833 163.915345 
L 850.158683 168.41252 
L 850.558966 152.805077 
L 850.95925 164.267899 
L 851.359533 150.274375 
L 851.759817 160.406708 
L 852.960667 151.668797 
L 853.36095 129.677033 
L 854.161517 119.023086 
L 854.5618 114.727154 
L 855.762651 95.415367 
L 856.162934 115.471012 
L 856.563217 96.550759 
L 856.963501 103.327452 
L 857.363784 80.241801 
L 858.564634 91.686984 
L 858.964918 74.800989 
L 859.365201 89.069209 
L 859.765485 109.263523 
L 860.165768 112.868729 
L 862.967752 171.265648 
L 864.168602 175.836312 
L 864.568885 168.50357 
L 864.969169 151.512361 
L 865.369452 140.303435 
L 865.769736 151.950166 
L 866.970586 151.037468 
L 867.370869 157.187669 
L 867.771153 156.493288 
L 868.171436 131.793192 
L 868.571719 139.507385 
L 869.77257 109.523139 
L 870.172853 94.769893 
L 870.573136 92.262769 
L 870.97342 74.669121 
L 871.373703 90.611946 
L 872.574553 93.30885 
L 872.974837 132.071132 
L 873.37512 133.395414 
L 874.175687 107.804896 
L 875.376537 97.457822 
L 875.776821 80.599254 
L 876.177104 88.14021 
L 876.577387 76.558489 
L 876.977671 76.945621 
L 878.178521 78.790099 
L 878.578804 109.894849 
L 878.979088 102.875369 
L 879.379371 91.657417 
L 879.779655 90.105887 
L 880.980505 66.336551 
L 881.380788 68.45392 
L 881.781072 89.245375 
L 882.181355 91.085504 
L 882.581638 93.809126 
L 883.782489 108.281682 
L 884.182772 105.632341 
L 884.583055 118.192395 
L 884.983339 137.708392 
L 885.383622 139.461795 
L 886.584472 118.496133 
L 886.984756 119.200825 
L 887.385039 108.461014 
L 887.785323 104.12029 
L 888.185606 120.868524 
L 889.386456 127.79891 
L 889.78674 107.627908 
L 890.187023 116.312336 
L 890.587306 117.811849 
L 890.98759 128.715889 
L 892.18844 135.11288 
L 892.989007 99.700382 
L 893.38929 102.959864 
L 893.789574 118.482301 
L 894.990424 141.157979 
L 895.790991 168.11491 
L 896.591557 156.09979 
L 897.792408 150.04648 
L 898.192691 154.603501 
L 898.592974 135.300561 
L 898.993258 136.781658 
L 899.393541 131.118686 
L 900.594391 135.88358 
L 900.994675 166.368042 
L 901.394958 149.574727 
L 901.795242 156.021058 
L 902.195525 152.737128 
L 903.396375 144.161034 
L 903.796659 151.124531 
L 904.196942 150.891138 
L 904.597225 154.91616 
L 904.997509 142.930854 
L 906.198359 133.836176 
L 906.598642 145.949213 
L 907.399209 146.470114 
L 907.799493 147.170302 
L 909.000343 136.334745 
L 909.400626 134.766261 
L 910.201193 135.451965 
L 910.601476 113.169985 
L 911.802327 93.430561 
L 912.20261 114.72501 
L 912.602893 110.537022 
L 913.40346 117.571294 
L 914.60431 127.105711 
L 915.004594 138.864451 
L 915.404877 140.023106 
L 915.805161 146.504542 
L 916.205444 136.756091 
L 917.806578 124.953697 
L 918.607144 108.453552 
L 920.208278 168.226171 
L 920.608561 158.4868 
L 921.008845 154.519486 
L 921.409128 152.945488 
L 921.809412 153.343893 
L 923.010262 154.098026 
L 923.410545 149.451939 
L 923.810828 146.918815 
L 924.211112 138.533995 
L 924.611395 142.652742 
L 925.812245 141.783624 
L 926.212529 152.24839 
L 926.612812 154.302164 
L 927.013096 142.449953 
L 927.413379 93.274551 
L 929.014513 107.691026 
L 929.414796 90.391967 
L 929.815079 90.501421 
L 930.215363 94.617657 
L 931.416213 97.254295 
L 931.816496 112.662836 
L 932.21678 115.816006 
L 932.617063 150.868137 
L 933.017347 142.278763 
L 934.218197 166.623543 
L 935.018764 156.337338 
L 935.419047 173.312046 
L 935.81933 176.758942 
L 937.020181 182.922527 
L 937.420464 178.714455 
L 937.820747 166.262114 
L 938.221031 160.782215 
L 938.621314 144.988179 
L 939.822164 143.015135 
L 940.222448 156.306904 
L 940.622731 136.988533 
L 941.023015 144.356118 
L 941.423298 123.973538 
L 942.624148 120.359654 
L 943.024432 124.762106 
L 943.424715 125.24564 
L 943.824998 135.190727 
L 944.225282 125.809412 
L 945.426132 133.322577 
L 945.826415 148.30139 
L 946.226699 147.032715 
L 946.626982 184.933772 
L 947.027266 190.766169 
L 948.228116 174.325253 
L 948.628399 183.313006 
L 949.028683 139.547515 
L 949.428966 148.041775 
L 949.829249 148.670426 
L 951.0301 148.016467 
L 951.430383 135.07586 
L 951.830666 143.272043 
L 952.23095 144.96778 
L 953.832083 149.167086 
L 954.232367 148.809565 
L 954.63265 143.082514 
L 955.433217 106.459492 
L 956.634067 114.888324 
L 957.034351 111.972123 
L 957.434634 144.649351 
L 957.834917 122.331031 
L 958.235201 123.396914 
L 959.436051 124.64862 
L 959.836334 128.959548 
L 960.236618 96.126932 
L 960.636901 82.686437 
L 961.037185 62.037402 
L 962.238035 58.112594 
L 962.638318 55.910628 
L 963.038602 54.869166 
L 963.438885 60.631926 
L 963.839168 47.646685 
L 965.040019 47.70279 
L 965.440302 53.928265 
L 965.840585 69.959546 
L 966.240869 72.226502 
L 966.641152 76.635652 
L 968.242286 70.16456 
L 968.642569 77.676925 
L 969.042853 72.675129 
L 969.443136 86.083059 
L 970.643986 92.199836 
L 971.04427 97.831872 
L 971.444553 108.832227 
L 971.844836 114.820722 
L 972.24512 111.69181 
L 973.44597 109.817958 
L 974.246537 95.514908 
L 974.64682 93.208634 
L 975.047104 99.589243 
L 976.247954 102.799468 
L 976.648237 102.296438 
L 977.048521 109.835714 
L 977.849087 98.124919 
L 979.049938 103.497793 
L 979.450221 103.830078 
L 980.250788 78.560678 
L 980.651071 76.978368 
L 981.851921 78.025819 
L 982.252205 102.862065 
L 982.652488 90.60513 
L 983.052772 90.739748 
L 984.653905 82.302524 
L 985.054189 83.812385 
L 985.454472 76.95557 
L 985.854755 77.139103 
L 986.255039 68.315493 
L 987.455889 72.841331 
L 987.856172 69.646314 
L 988.256456 76.562224 
L 988.656739 75.282838 
L 989.057023 82.407967 
L 990.257873 87.945638 
L 990.658156 86.292473 
L 991.05844 86.654753 
L 991.458723 85.113709 
L 991.859006 80.822266 
L 993.059857 78.518409 
L 993.46014 89.493679 
L 993.860423 84.98428 
L 994.260707 92.650082 
L 994.66099 105.52367 
L 995.86184 106.241823 
L 996.262124 113.592663 
L 996.662407 114.646588 
L 997.062691 109.759092 
L 997.462974 102.474951 
L 998.663824 88.309113 
L 999.064108 92.999108 
L 999.464391 106.253956 
L 999.864674 104.201487 
L 1000.264958 119.431703 
L 1001.465808 109.866972 
L 1001.866091 143.943943 
L 1002.266375 140.559932 
L 1002.666658 127.660066 
L 1003.066942 141.052863 
L 1004.267792 125.763373 
L 1004.668075 122.670415 
L 1005.068358 128.790278 
L 1005.868925 160.721846 
L 1007.470059 173.47404 
L 1008.270626 167.716798 
L 1008.670909 173.817415 
L 1008.670909 173.817415 
" clip-path="url(#pdd5fe1d3a4)" style="fill: none; stroke: #1f77b4; stroke-width: 1.5; stroke-linecap: square"/>
   </g>
   <g id="patch_3">
    <path d="M 145.8 224.28 
L 145.8 30.24 
" style="fill: none; stroke: #000000; stroke-width: 0.8; stroke-linejoin: miter; stroke-linecap: square"/>
   </g>
   <g id="patch_4">
    <path d="M 145.8 224.28 
L 1049.76 224.28 
" style="fill: none; stroke: #000000; stroke-width: 0.8; stroke-linejoin: miter; stroke-linecap: square"/>
   </g>
  </g>
 </g>
 <defs>
  <clipPath id="pdd5fe1d3a4">
   <rect x="145.8" y="30.24" width="903.96" height="194.04"/>
  </clipPath>
 </defs>
</svg>
