<?xml version="1.0" encoding="utf-8" standalone="no"?>
<!DOCTYPE svg PUBLIC "-//W3C//DTD SVG 1.1//EN"
  "http://www.w3.org/Graphics/SVG/1.1/DTD/svg11.dtd">
<svg xmlns:xlink="http://www.w3.org/1999/xlink" width="756pt" height="252pt" viewBox="0 0 756 252" xmlns="http://www.w3.org/2000/svg" version="1.1">
 <metadata>
  <rdf:RDF xmlns:dc="http://purl.org/dc/elements/1.1/" xmlns:cc="http://creativecommons.org/ns#" xmlns:rdf="http://www.w3.org/1999/02/22-rdf-syntax-ns#">
   <cc:Work>
    <dc:type rdf:resource="http://purl.org/dc/dcmitype/StillImage"/>
    <dc:date>2025-08-31T00:52:57.585436</dc:date>
    <dc:format>image/svg+xml</dc:format>
    <dc:creator>
     <cc:Agent>
      <dc:title>Matplotlib v3.10.5, https://matplotlib.org/</dc:title>
     </cc:Agent>
    </dc:creator>
   </cc:Work>
  </rdf:RDF>
 </metadata>
 <defs>
  <style type="text/css">*{stroke-linejoin: round; stroke-linecap: butt}</style>
 </defs>
 <g id="figure_1">
  <g id="patch_1">
   <path d="M 0 252 
L 756 252 
L 756 0 
L 0 0 
z
" style="fill: #ffffff"/>
  </g>
  <g id="axes_1">
   <g id="patch_2">
    <path d="M 94.5 224.28 
L 680.4 224.28 
L 680.4 30.24 
L 94.5 30.24 
z
" style="fill: #ffffff"/>
   </g>
   <g id="matplotlib.axis_1">
    <g id="xtick_1">
     <g id="line2d_1">
      <defs>
       <path id="ma0a1a70ca5" d="M 0 0 
L 0 3.5 
" style="stroke: #000000; stroke-width: 0.8"/>
      </defs>
      <g>
       <use xlink:href="#ma0a1a70ca5" x="127.886265" y="224.28" style="stroke: #000000; stroke-width: 0.8"/>
      </g>
     </g>
     <g id="text_1">
      <!-- 2024-03 -->
      <g transform="translate(106.994859 238.878438) scale(0.1 -0.1)">
       <defs>
        <path id="DejaVuSans-32" d="M 1228 531 
L 3431 531 
L 3431 0 
L 469 0 
L 469 531 
Q 828 903 1448 1529 
Q 2069 2156 2228 2338 
Q 2531 2678 2651 2914 
Q 2772 3150 2772 3378 
Q 2772 3750 2511 3984 
Q 2250 4219 1831 4219 
Q 1534 4219 1204 4116 
Q 875 4013 500 3803 
L 500 4441 
Q 881 4594 1212 4672 
Q 1544 4750 1819 4750 
Q 2544 4750 2975 4387 
Q 3406 4025 3406 3419 
Q 3406 3131 3298 2873 
Q 3191 2616 2906 2266 
Q 2828 2175 2409 1742 
Q 1991 1309 1228 531 
z
" transform="scale(0.015625)"/>
        <path id="DejaVuSans-30" d="M 2034 4250 
Q 1547 4250 1301 3770 
Q 1056 3291 1056 2328 
Q 1056 1369 1301 889 
Q 1547 409 2034 409 
Q 2525 409 2770 889 
Q 3016 1369 3016 2328 
Q 3016 3291 2770 3770 
Q 2525 4250 2034 4250 
z
M 2034 4750 
Q 2819 4750 3233 4129 
Q 3647 3509 3647 2328 
Q 3647 1150 3233 529 
Q 2819 -91 2034 -91 
Q 1250 -91 836 529 
Q 422 1150 422 2328 
Q 422 3509 836 4129 
Q 1250 4750 2034 4750 
z
" transform="scale(0.015625)"/>
        <path id="DejaVuSans-34" d="M 2419 4116 
L 825 1625 
L 2419 1625 
L 2419 4116 
z
M 2253 4666 
L 3047 4666 
L 3047 1625 
L 3713 1625 
L 3713 1100 
L 3047 1100 
L 3047 0 
L 2419 0 
L 2419 1100 
L 313 1100 
L 313 1709 
L 2253 4666 
z
" transform="scale(0.015625)"/>
        <path id="DejaVuSans-2d" d="M 313 2009 
L 1997 2009 
L 1997 1497 
L 313 1497 
L 313 2009 
z
" transform="scale(0.015625)"/>
        <path id="DejaVuSans-33" d="M 2597 2516 
Q 3050 2419 3304 2112 
Q 3559 1806 3559 1356 
Q 3559 666 3084 287 
Q 2609 -91 1734 -91 
Q 1441 -91 1130 -33 
Q 819 25 488 141 
L 488 750 
Q 750 597 1062 519 
Q 1375 441 1716 441 
Q 2309 441 2620 675 
Q 2931 909 2931 1356 
Q 2931 1769 2642 2001 
Q 2353 2234 1838 2234 
L 1294 2234 
L 1294 2753 
L 1863 2753 
Q 2328 2753 2575 2939 
Q 2822 3125 2822 3475 
Q 2822 3834 2567 4026 
Q 2313 4219 1838 4219 
Q 1578 4219 1281 4162 
Q 984 4106 628 3988 
L 628 4550 
Q 988 4650 1302 4700 
Q 1616 4750 1894 4750 
Q 2613 4750 3031 4423 
Q 3450 4097 3450 3541 
Q 3450 3153 3228 2886 
Q 3006 2619 2597 2516 
z
" transform="scale(0.015625)"/>
       </defs>
       <use xlink:href="#DejaVuSans-32"/>
       <use xlink:href="#DejaVuSans-30" transform="translate(63.623047 0)"/>
       <use xlink:href="#DejaVuSans-32" transform="translate(127.246094 0)"/>
       <use xlink:href="#DejaVuSans-34" transform="translate(190.869141 0)"/>
       <use xlink:href="#DejaVuSans-2d" transform="translate(254.492188 0)"/>
       <use xlink:href="#DejaVuSans-30" transform="translate(290.576172 0)"/>
       <use xlink:href="#DejaVuSans-33" transform="translate(354.199219 0)"/>
      </g>
     </g>
    </g>
    <g id="xtick_2">
     <g id="line2d_2">
      <g>
       <use xlink:href="#ma0a1a70ca5" x="186.746443" y="224.28" style="stroke: #000000; stroke-width: 0.8"/>
      </g>
     </g>
     <g id="text_2">
      <!-- 2024-05 -->
      <g transform="translate(165.855036 238.878438) scale(0.1 -0.1)">
       <defs>
        <path id="DejaVuSans-35" d="M 691 4666 
L 3169 4666 
L 3169 4134 
L 1269 4134 
L 1269 2991 
Q 1406 3038 1543 3061 
Q 1681 3084 1819 3084 
Q 2600 3084 3056 2656 
Q 3513 2228 3513 1497 
Q 3513 744 3044 326 
Q 2575 -91 1722 -91 
Q 1428 -91 1123 -41 
Q 819 9 494 109 
L 494 744 
Q 775 591 1075 516 
Q 1375 441 1709 441 
Q 2250 441 2565 725 
Q 2881 1009 2881 1497 
Q 2881 1984 2565 2268 
Q 2250 2553 1709 2553 
Q 1456 2553 1204 2497 
Q 953 2441 691 2322 
L 691 4666 
z
" transform="scale(0.015625)"/>
       </defs>
       <use xlink:href="#DejaVuSans-32"/>
       <use xlink:href="#DejaVuSans-30" transform="translate(63.623047 0)"/>
       <use xlink:href="#DejaVuSans-32" transform="translate(127.246094 0)"/>
       <use xlink:href="#DejaVuSans-34" transform="translate(190.869141 0)"/>
       <use xlink:href="#DejaVuSans-2d" transform="translate(254.492188 0)"/>
       <use xlink:href="#DejaVuSans-30" transform="translate(290.576172 0)"/>
       <use xlink:href="#DejaVuSans-35" transform="translate(354.199219 0)"/>
      </g>
     </g>
    </g>
    <g id="xtick_3">
     <g id="line2d_3">
      <g>
       <use xlink:href="#ma0a1a70ca5" x="245.606621" y="224.28" style="stroke: #000000; stroke-width: 0.8"/>
      </g>
     </g>
     <g id="text_3">
      <!-- 2024-07 -->
      <g transform="translate(224.715214 238.878438) scale(0.1 -0.1)">
       <defs>
        <path id="DejaVuSans-37" d="M 525 4666 
L 3525 4666 
L 3525 4397 
L 1831 0 
L 1172 0 
L 2766 4134 
L 525 4134 
L 525 4666 
z
" transform="scale(0.015625)"/>
       </defs>
       <use xlink:href="#DejaVuSans-32"/>
       <use xlink:href="#DejaVuSans-30" transform="translate(63.623047 0)"/>
       <use xlink:href="#DejaVuSans-32" transform="translate(127.246094 0)"/>
       <use xlink:href="#DejaVuSans-34" transform="translate(190.869141 0)"/>
       <use xlink:href="#DejaVuSans-2d" transform="translate(254.492188 0)"/>
       <use xlink:href="#DejaVuSans-30" transform="translate(290.576172 0)"/>
       <use xlink:href="#DejaVuSans-37" transform="translate(354.199219 0)"/>
      </g>
     </g>
    </g>
    <g id="xtick_4">
     <g id="line2d_4">
      <g>
       <use xlink:href="#ma0a1a70ca5" x="305.431719" y="224.28" style="stroke: #000000; stroke-width: 0.8"/>
      </g>
     </g>
     <g id="text_4">
      <!-- 2024-09 -->
      <g transform="translate(284.540313 238.878438) scale(0.1 -0.1)">
       <defs>
        <path id="DejaVuSans-39" d="M 703 97 
L 703 672 
Q 941 559 1184 500 
Q 1428 441 1663 441 
Q 2288 441 2617 861 
Q 2947 1281 2994 2138 
Q 2813 1869 2534 1725 
Q 2256 1581 1919 1581 
Q 1219 1581 811 2004 
Q 403 2428 403 3163 
Q 403 3881 828 4315 
Q 1253 4750 1959 4750 
Q 2769 4750 3195 4129 
Q 3622 3509 3622 2328 
Q 3622 1225 3098 567 
Q 2575 -91 1691 -91 
Q 1453 -91 1209 -44 
Q 966 3 703 97 
z
M 1959 2075 
Q 2384 2075 2632 2365 
Q 2881 2656 2881 3163 
Q 2881 3666 2632 3958 
Q 2384 4250 1959 4250 
Q 1534 4250 1286 3958 
Q 1038 3666 1038 3163 
Q 1038 2656 1286 2365 
Q 1534 2075 1959 2075 
z
" transform="scale(0.015625)"/>
       </defs>
       <use xlink:href="#DejaVuSans-32"/>
       <use xlink:href="#DejaVuSans-30" transform="translate(63.623047 0)"/>
       <use xlink:href="#DejaVuSans-32" transform="translate(127.246094 0)"/>
       <use xlink:href="#DejaVuSans-34" transform="translate(190.869141 0)"/>
       <use xlink:href="#DejaVuSans-2d" transform="translate(254.492188 0)"/>
       <use xlink:href="#DejaVuSans-30" transform="translate(290.576172 0)"/>
       <use xlink:href="#DejaVuSans-39" transform="translate(354.199219 0)"/>
      </g>
     </g>
    </g>
    <g id="xtick_5">
     <g id="line2d_5">
      <g>
       <use xlink:href="#ma0a1a70ca5" x="364.291897" y="224.28" style="stroke: #000000; stroke-width: 0.8"/>
      </g>
     </g>
     <g id="text_5">
      <!-- 2024-11 -->
      <g transform="translate(343.400491 238.878438) scale(0.1 -0.1)">
       <defs>
        <path id="DejaVuSans-31" d="M 794 531 
L 1825 531 
L 1825 4091 
L 703 3866 
L 703 4441 
L 1819 4666 
L 2450 4666 
L 2450 531 
L 3481 531 
L 3481 0 
L 794 0 
L 794 531 
z
" transform="scale(0.015625)"/>
       </defs>
       <use xlink:href="#DejaVuSans-32"/>
       <use xlink:href="#DejaVuSans-30" transform="translate(63.623047 0)"/>
       <use xlink:href="#DejaVuSans-32" transform="translate(127.246094 0)"/>
       <use xlink:href="#DejaVuSans-34" transform="translate(190.869141 0)"/>
       <use xlink:href="#DejaVuSans-2d" transform="translate(254.492188 0)"/>
       <use xlink:href="#DejaVuSans-31" transform="translate(290.576172 0)"/>
       <use xlink:href="#DejaVuSans-31" transform="translate(354.199219 0)"/>
      </g>
     </g>
    </g>
    <g id="xtick_6">
     <g id="line2d_6">
      <g>
       <use xlink:href="#ma0a1a70ca5" x="423.152075" y="224.28" style="stroke: #000000; stroke-width: 0.8"/>
      </g>
     </g>
     <g id="text_6">
      <!-- 2025-01 -->
      <g transform="translate(402.260669 238.878438) scale(0.1 -0.1)">
       <use xlink:href="#DejaVuSans-32"/>
       <use xlink:href="#DejaVuSans-30" transform="translate(63.623047 0)"/>
       <use xlink:href="#DejaVuSans-32" transform="translate(127.246094 0)"/>
       <use xlink:href="#DejaVuSans-35" transform="translate(190.869141 0)"/>
       <use xlink:href="#DejaVuSans-2d" transform="translate(254.492188 0)"/>
       <use xlink:href="#DejaVuSans-30" transform="translate(290.576172 0)"/>
       <use xlink:href="#DejaVuSans-31" transform="translate(354.199219 0)"/>
      </g>
     </g>
    </g>
    <g id="xtick_7">
     <g id="line2d_7">
      <g>
       <use xlink:href="#ma0a1a70ca5" x="480.082411" y="224.28" style="stroke: #000000; stroke-width: 0.8"/>
      </g>
     </g>
     <g id="text_7">
      <!-- 2025-03 -->
      <g transform="translate(459.191005 238.878438) scale(0.1 -0.1)">
       <use xlink:href="#DejaVuSans-32"/>
       <use xlink:href="#DejaVuSans-30" transform="translate(63.623047 0)"/>
       <use xlink:href="#DejaVuSans-32" transform="translate(127.246094 0)"/>
       <use xlink:href="#DejaVuSans-35" transform="translate(190.869141 0)"/>
       <use xlink:href="#DejaVuSans-2d" transform="translate(254.492188 0)"/>
       <use xlink:href="#DejaVuSans-30" transform="translate(290.576172 0)"/>
       <use xlink:href="#DejaVuSans-33" transform="translate(354.199219 0)"/>
      </g>
     </g>
    </g>
    <g id="xtick_8">
     <g id="line2d_8">
      <g>
       <use xlink:href="#ma0a1a70ca5" x="538.942589" y="224.28" style="stroke: #000000; stroke-width: 0.8"/>
      </g>
     </g>
     <g id="text_8">
      <!-- 2025-05 -->
      <g transform="translate(518.051183 238.878438) scale(0.1 -0.1)">
       <use xlink:href="#DejaVuSans-32"/>
       <use xlink:href="#DejaVuSans-30" transform="translate(63.623047 0)"/>
       <use xlink:href="#DejaVuSans-32" transform="translate(127.246094 0)"/>
       <use xlink:href="#DejaVuSans-35" transform="translate(190.869141 0)"/>
       <use xlink:href="#DejaVuSans-2d" transform="translate(254.492188 0)"/>
       <use xlink:href="#DejaVuSans-30" transform="translate(290.576172 0)"/>
       <use xlink:href="#DejaVuSans-35" transform="translate(354.199219 0)"/>
      </g>
     </g>
    </g>
    <g id="xtick_9">
     <g id="line2d_9">
      <g>
       <use xlink:href="#ma0a1a70ca5" x="597.802767" y="224.28" style="stroke: #000000; stroke-width: 0.8"/>
      </g>
     </g>
     <g id="text_9">
      <!-- 2025-07 -->
      <g transform="translate(576.911361 238.878438) scale(0.1 -0.1)">
       <use xlink:href="#DejaVuSans-32"/>
       <use xlink:href="#DejaVuSans-30" transform="translate(63.623047 0)"/>
       <use xlink:href="#DejaVuSans-32" transform="translate(127.246094 0)"/>
       <use xlink:href="#DejaVuSans-35" transform="translate(190.869141 0)"/>
       <use xlink:href="#DejaVuSans-2d" transform="translate(254.492188 0)"/>
       <use xlink:href="#DejaVuSans-30" transform="translate(290.576172 0)"/>
       <use xlink:href="#DejaVuSans-37" transform="translate(354.199219 0)"/>
      </g>
     </g>
    </g>
    <g id="xtick_10">
     <g id="line2d_10">
      <g>
       <use xlink:href="#ma0a1a70ca5" x="657.627866" y="224.28" style="stroke: #000000; stroke-width: 0.8"/>
      </g>
     </g>
     <g id="text_10">
      <!-- 2025-09 -->
      <g transform="translate(636.736459 238.878438) scale(0.1 -0.1)">
       <use xlink:href="#DejaVuSans-32"/>
       <use xlink:href="#DejaVuSans-30" transform="translate(63.623047 0)"/>
       <use xlink:href="#DejaVuSans-32" transform="translate(127.246094 0)"/>
       <use xlink:href="#DejaVuSans-35" transform="translate(190.869141 0)"/>
       <use xlink:href="#DejaVuSans-2d" transform="translate(254.492188 0)"/>
       <use xlink:href="#DejaVuSans-30" transform="translate(290.576172 0)"/>
       <use xlink:href="#DejaVuSans-39" transform="translate(354.199219 0)"/>
      </g>
     </g>
    </g>
   </g>
   <g id="matplotlib.axis_2">
    <g id="ytick_1">
     <g id="line2d_11">
      <defs>
       <path id="me27c96f6bf" d="M 0 0 
L -3.5 0 
" style="stroke: #000000; stroke-width: 0.8"/>
      </defs>
      <g>
       <use xlink:href="#me27c96f6bf" x="94.5" y="209.144767" style="stroke: #000000; stroke-width: 0.8"/>
      </g>
     </g>
     <g id="text_11">
      <!-- 80 -->
      <g transform="translate(74.775 212.943986) scale(0.1 -0.1)">
       <defs>
        <path id="DejaVuSans-38" d="M 2034 2216 
Q 1584 2216 1326 1975 
Q 1069 1734 1069 1313 
Q 1069 891 1326 650 
Q 1584 409 2034 409 
Q 2484 409 2743 651 
Q 3003 894 3003 1313 
Q 3003 1734 2745 1975 
Q 2488 2216 2034 2216 
z
M 1403 2484 
Q 997 2584 770 2862 
Q 544 3141 544 3541 
Q 544 4100 942 4425 
Q 1341 4750 2034 4750 
Q 2731 4750 3128 4425 
Q 3525 4100 3525 3541 
Q 3525 3141 3298 2862 
Q 3072 2584 2669 2484 
Q 3125 2378 3379 2068 
Q 3634 1759 3634 1313 
Q 3634 634 3220 271 
Q 2806 -91 2034 -91 
Q 1263 -91 848 271 
Q 434 634 434 1313 
Q 434 1759 690 2068 
Q 947 2378 1403 2484 
z
M 1172 3481 
Q 1172 3119 1398 2916 
Q 1625 2713 2034 2713 
Q 2441 2713 2670 2916 
Q 2900 3119 2900 3481 
Q 2900 3844 2670 4047 
Q 2441 4250 2034 4250 
Q 1625 4250 1398 4047 
Q 1172 3844 1172 3481 
z
" transform="scale(0.015625)"/>
       </defs>
       <use xlink:href="#DejaVuSans-38"/>
       <use xlink:href="#DejaVuSans-30" transform="translate(63.623047 0)"/>
      </g>
     </g>
    </g>
    <g id="ytick_2">
     <g id="line2d_12">
      <g>
       <use xlink:href="#me27c96f6bf" x="94.5" y="176.169823" style="stroke: #000000; stroke-width: 0.8"/>
      </g>
     </g>
     <g id="text_12">
      <!-- 100 -->
      <g transform="translate(68.4125 179.969042) scale(0.1 -0.1)">
       <use xlink:href="#DejaVuSans-31"/>
       <use xlink:href="#DejaVuSans-30" transform="translate(63.623047 0)"/>
       <use xlink:href="#DejaVuSans-30" transform="translate(127.246094 0)"/>
      </g>
     </g>
    </g>
    <g id="ytick_3">
     <g id="line2d_13">
      <g>
       <use xlink:href="#me27c96f6bf" x="94.5" y="143.194879" style="stroke: #000000; stroke-width: 0.8"/>
      </g>
     </g>
     <g id="text_13">
      <!-- 120 -->
      <g transform="translate(68.4125 146.994098) scale(0.1 -0.1)">
       <use xlink:href="#DejaVuSans-31"/>
       <use xlink:href="#DejaVuSans-32" transform="translate(63.623047 0)"/>
       <use xlink:href="#DejaVuSans-30" transform="translate(127.246094 0)"/>
      </g>
     </g>
    </g>
    <g id="ytick_4">
     <g id="line2d_14">
      <g>
       <use xlink:href="#me27c96f6bf" x="94.5" y="110.219935" style="stroke: #000000; stroke-width: 0.8"/>
      </g>
     </g>
     <g id="text_14">
      <!-- 140 -->
      <g transform="translate(68.4125 114.019154) scale(0.1 -0.1)">
       <use xlink:href="#DejaVuSans-31"/>
       <use xlink:href="#DejaVuSans-34" transform="translate(63.623047 0)"/>
       <use xlink:href="#DejaVuSans-30" transform="translate(127.246094 0)"/>
      </g>
     </g>
    </g>
    <g id="ytick_5">
     <g id="line2d_15">
      <g>
       <use xlink:href="#me27c96f6bf" x="94.5" y="77.244991" style="stroke: #000000; stroke-width: 0.8"/>
      </g>
     </g>
     <g id="text_15">
      <!-- 160 -->
      <g transform="translate(68.4125 81.04421) scale(0.1 -0.1)">
       <defs>
        <path id="DejaVuSans-36" d="M 2113 2584 
Q 1688 2584 1439 2293 
Q 1191 2003 1191 1497 
Q 1191 994 1439 701 
Q 1688 409 2113 409 
Q 2538 409 2786 701 
Q 3034 994 3034 1497 
Q 3034 2003 2786 2293 
Q 2538 2584 2113 2584 
z
M 3366 4563 
L 3366 3988 
Q 3128 4100 2886 4159 
Q 2644 4219 2406 4219 
Q 1781 4219 1451 3797 
Q 1122 3375 1075 2522 
Q 1259 2794 1537 2939 
Q 1816 3084 2150 3084 
Q 2853 3084 3261 2657 
Q 3669 2231 3669 1497 
Q 3669 778 3244 343 
Q 2819 -91 2113 -91 
Q 1303 -91 875 529 
Q 447 1150 447 2328 
Q 447 3434 972 4092 
Q 1497 4750 2381 4750 
Q 2619 4750 2861 4703 
Q 3103 4656 3366 4563 
z
" transform="scale(0.015625)"/>
       </defs>
       <use xlink:href="#DejaVuSans-31"/>
       <use xlink:href="#DejaVuSans-36" transform="translate(63.623047 0)"/>
       <use xlink:href="#DejaVuSans-30" transform="translate(127.246094 0)"/>
      </g>
     </g>
    </g>
    <g id="ytick_6">
     <g id="line2d_16">
      <g>
       <use xlink:href="#me27c96f6bf" x="94.5" y="44.270047" style="stroke: #000000; stroke-width: 0.8"/>
      </g>
     </g>
     <g id="text_16">
      <!-- 180 -->
      <g transform="translate(68.4125 48.069266) scale(0.1 -0.1)">
       <use xlink:href="#DejaVuSans-31"/>
       <use xlink:href="#DejaVuSans-38" transform="translate(63.623047 0)"/>
       <use xlink:href="#DejaVuSans-30" transform="translate(127.246094 0)"/>
      </g>
     </g>
    </g>
   </g>
   <g id="line2d_17">
    <path d="M 121.131818 211.15302 
L 124.026581 210.699826 
L 124.991502 211.34422 
L 125.956423 213.054843 
L 126.921344 210.666869 
L 127.886265 205.447627 
L 130.781028 200.572796 
L 131.745949 199.368035 
L 132.71087 194.858862 
L 133.675791 188.317585 
L 134.640711 196.790421 
L 137.535474 199.681163 
L 138.500395 189.563529 
L 139.465316 191.252843 
L 140.430237 196.104818 
L 141.395158 196.281163 
L 144.289921 195.262646 
L 146.219763 192.103243 
L 147.184684 190.351336 
L 148.149605 185.647679 
L 151.044368 184.472605 
L 152.974209 192.304317 
L 153.93913 192.129608 
L 157.798814 192.118086 
L 158.763735 193.619496 
L 159.728656 194.423768 
L 160.693577 199.465296 
L 161.658498 195.999331 
L 164.553261 197.441419 
L 165.518182 200.373395 
L 166.483103 197.596341 
L 167.448024 191.701119 
L 168.412945 195.705978 
L 171.307708 199.307065 
L 172.272628 196.976665 
L 173.237549 202.547199 
L 174.20247 201.499021 
L 175.167391 215.46 
L 178.062154 209.991644 
L 179.027075 205.203935 
L 179.991996 209.729575 
L 180.956917 204.859461 
L 181.921838 196.449255 
L 184.816601 196.413015 
L 185.781522 198.646167 
L 186.746443 204.185418 
L 188.676285 194.712178 
L 191.571047 189.189444 
L 192.535968 191.80331 
L 193.500889 192.037317 
L 194.46581 194.7814 
L 195.430731 192.91739 
L 198.325494 192.058751 
L 199.290415 190.481515 
L 200.255336 185.085677 
L 201.220257 185.532318 
L 202.185178 188.630738 
L 205.079941 184.838476 
L 206.044862 183.83972 
L 207.009783 184.558292 
L 207.974704 169.974316 
L 208.939625 165.573913 
L 212.799308 153.325318 
L 213.764229 151.802486 
L 214.72915 158.930482 
L 215.694071 160.359375 
L 218.588834 151.514063 
L 219.553755 149.145763 
L 220.518676 139.252248 
L 221.483597 141.628801 
L 222.448518 141.810088 
L 225.343281 140.323521 
L 226.308202 141.757471 
L 228.238043 127.417891 
L 229.202964 123.67641 
L 232.097727 125.15982 
L 233.062648 117.577988 
L 234.99249 125.489463 
L 235.957411 132.428524 
L 238.852174 146.372509 
L 239.817095 133.219664 
L 240.782016 132.708707 
L 241.746937 136.680949 
L 242.711858 137.422629 
L 245.606621 136.169967 
L 246.571542 138.856603 
L 247.536462 129.610048 
L 249.466304 133.648191 
L 252.361067 129.741926 
L 254.290909 118.682293 
L 255.25583 131.060476 
L 256.220751 128.027718 
L 259.115514 129.346318 
L 260.080435 132.774634 
L 261.045356 146.5703 
L 262.010277 141.460796 
L 262.975198 146.669196 
L 265.86996 137.422629 
L 266.834881 138.988468 
L 267.799802 152.734674 
L 268.764723 155.981689 
L 269.729644 154.696058 
L 272.624407 157.118964 
L 273.589328 170.074004 
L 274.554249 148.169096 
L 275.51917 161.04172 
L 276.484091 164.239287 
L 279.378854 175.480195 
L 280.343775 169.216938 
L 281.308696 178.01845 
L 282.273617 168.030203 
L 283.238538 168.392816 
L 286.1333 161.354885 
L 287.098221 149.619524 
L 288.063142 146.421956 
L 289.028063 138.543425 
L 289.992984 135.708483 
L 292.887747 126.775132 
L 293.852668 131.307715 
L 294.817589 129.247448 
L 295.78251 137.092997 
L 296.747431 127.813499 
L 299.642194 132.609824 
L 300.607115 129.577066 
L 301.572036 134.010804 
L 302.536957 147.2296 
L 303.501877 144.295738 
L 307.361561 163.036086 
L 308.326482 165.986414 
L 309.291403 164.338183 
L 310.256324 171.557414 
L 313.151087 165.557849 
L 314.116008 162.871264 
L 315.080929 148.350371 
L 316.04585 144.658036 
L 317.010771 144.723975 
L 319.905534 148.548188 
L 320.870455 150.509748 
L 321.835375 154.169126 
L 322.800296 146.751462 
L 323.765217 149.833907 
L 326.65998 149.40533 
L 327.624901 141.806352 
L 328.589822 137.454667 
L 329.554743 136.581034 
L 330.519664 140.93272 
L 333.414427 140.866793 
L 334.379348 148.185537 
L 335.344269 145.136074 
L 336.30919 138.542595 
L 337.274111 135.130481 
L 340.168874 130.51504 
L 341.133794 121.992995 
L 342.098715 122.388628 
L 343.063636 118.828133 
L 344.028557 118.844587 
L 346.92332 113.454409 
L 347.888241 124.119365 
L 348.853162 117.32812 
L 350.783004 113.569833 
L 353.677767 104.157639 
L 354.642688 104.355431 
L 355.607609 110.99837 
L 356.57253 109.597252 
L 357.537451 107.734613 
L 360.432213 109.415914 
L 361.397134 108.212638 
L 362.362055 111.361021 
L 363.326976 122.207265 
L 364.291897 117.85558 
L 367.18666 116.784131 
L 368.151581 110.42145 
L 369.116502 101.025759 
L 370.081423 95.635557 
L 371.046344 97.696063 
L 373.941107 101.602705 
L 374.906028 96.60816 
L 375.870949 99.937832 
L 376.83587 99.130163 
L 377.800791 107.009336 
L 380.695553 110.025867 
L 381.660474 98.718052 
L 382.625395 100.564213 
L 383.590316 99.278469 
L 384.555237 107.058796 
L 387.45 116.833591 
L 388.414921 115.350056 
L 389.379842 117.954501 
L 391.309684 113.157722 
L 394.204447 112.531366 
L 395.169368 109.844504 
L 396.134289 101.800471 
L 397.099209 101.91587 
L 398.06413 106.234901 
L 400.958893 112.218905 
L 401.923814 118.384197 
L 402.888735 111.394657 
L 403.853656 114.642163 
L 404.818577 119.735956 
L 407.71334 123.445058 
L 409.643182 128.538851 
L 410.608103 125.621064 
L 411.573024 118.99415 
L 414.467787 110.801208 
L 415.432708 109.894518 
L 417.362549 110.372593 
L 418.32747 115.186152 
L 421.222233 114.394886 
L 422.187154 119.670017 
L 424.116996 113.043128 
L 425.081917 102.888474 
L 427.97668 94.712036 
L 428.941601 110.026421 
L 429.906522 110.075856 
L 431.836364 116.999457 
L 434.731126 121.417408 
L 435.696047 123.840691 
L 436.660968 116.455468 
L 437.625889 120.856916 
L 438.59081 114.03221 
L 442.450494 108.888957 
L 443.415415 98.602401 
L 444.380336 98.355149 
L 445.345257 105.938189 
L 448.24002 145.831425 
L 449.204941 128.406948 
L 450.169862 137.127439 
L 451.134783 135.561373 
L 452.099704 143.111418 
L 454.994466 148.732733 
L 455.959387 145.452258 
L 456.924308 135.264648 
L 457.889229 128.91803 
L 458.85415 127.00578 
L 461.748913 120.856916 
L 462.713834 122.126232 
L 463.678755 124.86273 
L 464.643676 118.021546 
L 465.608597 112.152941 
L 469.468281 111.246276 
L 470.433202 111.526535 
L 471.398123 110.075856 
L 472.363043 119.439244 
L 475.257806 126.280427 
L 476.222727 132.297376 
L 477.187648 124.631932 
L 478.152569 142.979528 
L 479.11749 135.116292 
L 482.012253 153.018794 
L 482.977174 149.837228 
L 483.942095 147.677712 
L 484.907016 158.771988 
L 485.871937 155.277205 
L 488.7667 164.690041 
L 489.731621 161.755738 
L 490.696542 150.231791 
L 491.661462 150.495572 
L 492.626383 140.455399 
L 495.521146 143.983478 
L 496.486067 150.742874 
L 497.450988 147.297237 
L 498.415909 145.632112 
L 499.38083 147.000475 
L 502.275593 140.884039 
L 503.240514 142.071051 
L 504.205435 153.496077 
L 505.170356 157.337397 
L 506.135277 160.238994 
L 509.03004 162.365729 
L 509.99496 159.447653 
L 510.959881 159.002522 
L 511.924802 173.213734 
L 512.889723 185.561991 
L 515.784486 180.07205 
L 516.749407 182.281202 
L 517.714328 152.556367 
L 518.679249 163.701122 
L 519.64417 158.16172 
L 522.538933 158.524422 
L 523.503854 156.067955 
L 524.468775 168.778914 
L 525.433696 173.724816 
L 529.293379 181.27554 
L 530.2583 178.011254 
L 532.188142 165.580567 
L 533.153063 158.029818 
L 536.047826 161.788708 
L 537.012747 161.310607 
L 537.977668 161.475467 
L 539.90751 152.276096 
L 543.767194 153.858778 
L 544.732115 148.055596 
L 545.697036 147.544514 
L 546.661957 148.731538 
L 549.556719 138.262713 
L 550.52164 126.8377 
L 551.486561 117.9186 
L 552.451482 118.759402 
L 553.416403 117.819679 
L 556.311166 117.539395 
L 557.276087 119.501283 
L 558.241008 123.754752 
L 559.205929 122.056645 
L 560.17085 124.595553 
L 564.030534 117.65482 
L 564.995455 118.792359 
L 565.960375 111.571341 
L 566.925296 118.264798 
L 569.820059 114.555368 
L 570.78498 108.224638 
L 571.749901 107.070595 
L 572.714822 110.252439 
L 573.679743 107.400315 
L 576.574506 105.900049 
L 577.539427 103.707364 
L 578.504348 105.553977 
L 579.469269 101.976199 
L 580.43419 106.971901 
L 583.328953 102.487307 
L 584.293874 103.427105 
L 585.258794 101.184807 
L 587.188636 103.872248 
L 590.083399 103.344662 
L 591.04832 97.194842 
L 592.013241 86.626367 
L 592.978162 85.455745 
L 593.943083 80.954672 
L 596.837846 80.558964 
L 597.802767 88.291592 
L 598.767688 81.779046 
L 599.732609 78.33317 
L 603.592292 80.146777 
L 604.557213 77.244991 
L 605.522134 72.496591 
L 606.487055 70.485118 
L 607.451976 69.133158 
L 610.346739 70.534578 
L 611.31166 59.603401 
L 612.276581 58.498744 
L 613.241502 55.811278 
L 614.206423 56.784032 
L 617.101186 58.48224 
L 618.066107 65.6543 
L 619.031028 59.471498 
L 619.995949 54.591196 
L 620.96087 54.986904 
L 623.855632 49.628476 
L 624.820553 51.672931 
L 625.785474 45.473626 
L 626.750395 47.781887 
L 627.715316 54.624178 
L 630.610079 44.270047 
L 631.575 47.138876 
L 632.539921 45.226324 
L 633.504842 43.000505 
L 634.469763 39.818435 
L 637.364526 40.873632 
L 638.329447 39.06 
L 639.294368 41.648545 
L 640.259289 40.939571 
L 641.224209 43.528116 
L 644.118972 40.956074 
L 645.083893 51.458586 
L 646.048814 51.854294 
L 647.013735 52.546765 
L 647.978656 47.58402 
L 650.873419 44.583313 
L 651.83834 41.351758 
L 652.803261 41.632042 
L 653.768182 43.989763 
L 653.768182 43.989763 
" clip-path="url(#p62b9f2cb49)" style="fill: none; stroke: #1f77b4; stroke-width: 1.5; stroke-linecap: square"/>
   </g>
   <g id="patch_3">
    <path d="M 94.5 224.28 
L 94.5 30.24 
" style="fill: none; stroke: #000000; stroke-width: 0.8; stroke-linejoin: miter; stroke-linecap: square"/>
   </g>
   <g id="patch_4">
    <path d="M 94.5 224.28 
L 680.4 224.28 
" style="fill: none; stroke: #000000; stroke-width: 0.8; stroke-linejoin: miter; stroke-linecap: square"/>
   </g>
  </g>
 </g>
 <defs>
  <clipPath id="p62b9f2cb49">
   <rect x="94.5" y="30.24" width="585.9" height="194.04"/>
  </clipPath>
 </defs>
</svg>
