<?xml version="1.0" encoding="utf-8" standalone="no"?>
<!DOCTYPE svg PUBLIC "-//W3C//DTD SVG 1.1//EN"
  "http://www.w3.org/Graphics/SVG/1.1/DTD/svg11.dtd">
<svg xmlns:xlink="http://www.w3.org/1999/xlink" width="756pt" height="252pt" viewBox="0 0 756 252" xmlns="http://www.w3.org/2000/svg" version="1.1">
 <metadata>
  <rdf:RDF xmlns:dc="http://purl.org/dc/elements/1.1/" xmlns:cc="http://creativecommons.org/ns#" xmlns:rdf="http://www.w3.org/1999/02/22-rdf-syntax-ns#">
   <cc:Work>
    <dc:type rdf:resource="http://purl.org/dc/dcmitype/StillImage"/>
    <dc:date>2025-09-06T14:16:13.739688</dc:date>
    <dc:format>image/svg+xml</dc:format>
    <dc:creator>
     <cc:Agent>
      <dc:title>Matplotlib v3.10.5, https://matplotlib.org/</dc:title>
     </cc:Agent>
    </dc:creator>
   </cc:Work>
  </rdf:RDF>
 </metadata>
 <defs>
  <style type="text/css">*{stroke-linejoin: round; stroke-linecap: butt}</style>
 </defs>
 <g id="figure_1">
  <g id="patch_1">
   <path d="M 0 252 
L 756 252 
L 756 0 
L 0 0 
z
" style="fill: #ffffff"/>
  </g>
  <g id="axes_1">
   <g id="patch_2">
    <path d="M 94.5 224.28 
L 680.4 224.28 
L 680.4 30.24 
L 94.5 30.24 
z
" style="fill: #ffffff"/>
   </g>
   <g id="matplotlib.axis_1">
    <g id="xtick_1">
     <g id="line2d_1">
      <defs>
       <path id="mc6c8a22da7" d="M 0 0 
L 0 3.5 
" style="stroke: #000000; stroke-width: 0.8"/>
      </defs>
      <g>
       <use xlink:href="#mc6c8a22da7" x="123.05817" y="224.28" style="stroke: #000000; stroke-width: 0.8"/>
      </g>
     </g>
     <g id="text_1">
      <!-- 2024-03 -->
      <g transform="translate(102.166764 238.878438) scale(0.1 -0.1)">
       <defs>
        <path id="DejaVuSans-32" d="M 1228 531 
L 3431 531 
L 3431 0 
L 469 0 
L 469 531 
Q 828 903 1448 1529 
Q 2069 2156 2228 2338 
Q 2531 2678 2651 2914 
Q 2772 3150 2772 3378 
Q 2772 3750 2511 3984 
Q 2250 4219 1831 4219 
Q 1534 4219 1204 4116 
Q 875 4013 500 3803 
L 500 4441 
Q 881 4594 1212 4672 
Q 1544 4750 1819 4750 
Q 2544 4750 2975 4387 
Q 3406 4025 3406 3419 
Q 3406 3131 3298 2873 
Q 3191 2616 2906 2266 
Q 2828 2175 2409 1742 
Q 1991 1309 1228 531 
z
" transform="scale(0.015625)"/>
        <path id="DejaVuSans-30" d="M 2034 4250 
Q 1547 4250 1301 3770 
Q 1056 3291 1056 2328 
Q 1056 1369 1301 889 
Q 1547 409 2034 409 
Q 2525 409 2770 889 
Q 3016 1369 3016 2328 
Q 3016 3291 2770 3770 
Q 2525 4250 2034 4250 
z
M 2034 4750 
Q 2819 4750 3233 4129 
Q 3647 3509 3647 2328 
Q 3647 1150 3233 529 
Q 2819 -91 2034 -91 
Q 1250 -91 836 529 
Q 422 1150 422 2328 
Q 422 3509 836 4129 
Q 1250 4750 2034 4750 
z
" transform="scale(0.015625)"/>
        <path id="DejaVuSans-34" d="M 2419 4116 
L 825 1625 
L 2419 1625 
L 2419 4116 
z
M 2253 4666 
L 3047 4666 
L 3047 1625 
L 3713 1625 
L 3713 1100 
L 3047 1100 
L 3047 0 
L 2419 0 
L 2419 1100 
L 313 1100 
L 313 1709 
L 2253 4666 
z
" transform="scale(0.015625)"/>
        <path id="DejaVuSans-2d" d="M 313 2009 
L 1997 2009 
L 1997 1497 
L 313 1497 
L 313 2009 
z
" transform="scale(0.015625)"/>
        <path id="DejaVuSans-33" d="M 2597 2516 
Q 3050 2419 3304 2112 
Q 3559 1806 3559 1356 
Q 3559 666 3084 287 
Q 2609 -91 1734 -91 
Q 1441 -91 1130 -33 
Q 819 25 488 141 
L 488 750 
Q 750 597 1062 519 
Q 1375 441 1716 441 
Q 2309 441 2620 675 
Q 2931 909 2931 1356 
Q 2931 1769 2642 2001 
Q 2353 2234 1838 2234 
L 1294 2234 
L 1294 2753 
L 1863 2753 
Q 2328 2753 2575 2939 
Q 2822 3125 2822 3475 
Q 2822 3834 2567 4026 
Q 2313 4219 1838 4219 
Q 1578 4219 1281 4162 
Q 984 4106 628 3988 
L 628 4550 
Q 988 4650 1302 4700 
Q 1616 4750 1894 4750 
Q 2613 4750 3031 4423 
Q 3450 4097 3450 3541 
Q 3450 3153 3228 2886 
Q 3006 2619 2597 2516 
z
" transform="scale(0.015625)"/>
       </defs>
       <use xlink:href="#DejaVuSans-32"/>
       <use xlink:href="#DejaVuSans-30" transform="translate(63.623047 0)"/>
       <use xlink:href="#DejaVuSans-32" transform="translate(127.246094 0)"/>
       <use xlink:href="#DejaVuSans-34" transform="translate(190.869141 0)"/>
       <use xlink:href="#DejaVuSans-2d" transform="translate(254.492188 0)"/>
       <use xlink:href="#DejaVuSans-30" transform="translate(290.576172 0)"/>
       <use xlink:href="#DejaVuSans-33" transform="translate(354.199219 0)"/>
      </g>
     </g>
    </g>
    <g id="xtick_2">
     <g id="line2d_2">
      <g>
       <use xlink:href="#mc6c8a22da7" x="181.81191" y="224.28" style="stroke: #000000; stroke-width: 0.8"/>
      </g>
     </g>
     <g id="text_2">
      <!-- 2024-05 -->
      <g transform="translate(160.920504 238.878438) scale(0.1 -0.1)">
       <defs>
        <path id="DejaVuSans-35" d="M 691 4666 
L 3169 4666 
L 3169 4134 
L 1269 4134 
L 1269 2991 
Q 1406 3038 1543 3061 
Q 1681 3084 1819 3084 
Q 2600 3084 3056 2656 
Q 3513 2228 3513 1497 
Q 3513 744 3044 326 
Q 2575 -91 1722 -91 
Q 1428 -91 1123 -41 
Q 819 9 494 109 
L 494 744 
Q 775 591 1075 516 
Q 1375 441 1709 441 
Q 2250 441 2565 725 
Q 2881 1009 2881 1497 
Q 2881 1984 2565 2268 
Q 2250 2553 1709 2553 
Q 1456 2553 1204 2497 
Q 953 2441 691 2322 
L 691 4666 
z
" transform="scale(0.015625)"/>
       </defs>
       <use xlink:href="#DejaVuSans-32"/>
       <use xlink:href="#DejaVuSans-30" transform="translate(63.623047 0)"/>
       <use xlink:href="#DejaVuSans-32" transform="translate(127.246094 0)"/>
       <use xlink:href="#DejaVuSans-34" transform="translate(190.869141 0)"/>
       <use xlink:href="#DejaVuSans-2d" transform="translate(254.492188 0)"/>
       <use xlink:href="#DejaVuSans-30" transform="translate(290.576172 0)"/>
       <use xlink:href="#DejaVuSans-35" transform="translate(354.199219 0)"/>
      </g>
     </g>
    </g>
    <g id="xtick_3">
     <g id="line2d_3">
      <g>
       <use xlink:href="#mc6c8a22da7" x="240.56565" y="224.28" style="stroke: #000000; stroke-width: 0.8"/>
      </g>
     </g>
     <g id="text_3">
      <!-- 2024-07 -->
      <g transform="translate(219.674244 238.878438) scale(0.1 -0.1)">
       <defs>
        <path id="DejaVuSans-37" d="M 525 4666 
L 3525 4666 
L 3525 4397 
L 1831 0 
L 1172 0 
L 2766 4134 
L 525 4134 
L 525 4666 
z
" transform="scale(0.015625)"/>
       </defs>
       <use xlink:href="#DejaVuSans-32"/>
       <use xlink:href="#DejaVuSans-30" transform="translate(63.623047 0)"/>
       <use xlink:href="#DejaVuSans-32" transform="translate(127.246094 0)"/>
       <use xlink:href="#DejaVuSans-34" transform="translate(190.869141 0)"/>
       <use xlink:href="#DejaVuSans-2d" transform="translate(254.492188 0)"/>
       <use xlink:href="#DejaVuSans-30" transform="translate(290.576172 0)"/>
       <use xlink:href="#DejaVuSans-37" transform="translate(354.199219 0)"/>
      </g>
     </g>
    </g>
    <g id="xtick_4">
     <g id="line2d_4">
      <g>
       <use xlink:href="#mc6c8a22da7" x="300.282566" y="224.28" style="stroke: #000000; stroke-width: 0.8"/>
      </g>
     </g>
     <g id="text_4">
      <!-- 2024-09 -->
      <g transform="translate(279.39116 238.878438) scale(0.1 -0.1)">
       <defs>
        <path id="DejaVuSans-39" d="M 703 97 
L 703 672 
Q 941 559 1184 500 
Q 1428 441 1663 441 
Q 2288 441 2617 861 
Q 2947 1281 2994 2138 
Q 2813 1869 2534 1725 
Q 2256 1581 1919 1581 
Q 1219 1581 811 2004 
Q 403 2428 403 3163 
Q 403 3881 828 4315 
Q 1253 4750 1959 4750 
Q 2769 4750 3195 4129 
Q 3622 3509 3622 2328 
Q 3622 1225 3098 567 
Q 2575 -91 1691 -91 
Q 1453 -91 1209 -44 
Q 966 3 703 97 
z
M 1959 2075 
Q 2384 2075 2632 2365 
Q 2881 2656 2881 3163 
Q 2881 3666 2632 3958 
Q 2384 4250 1959 4250 
Q 1534 4250 1286 3958 
Q 1038 3666 1038 3163 
Q 1038 2656 1286 2365 
Q 1534 2075 1959 2075 
z
" transform="scale(0.015625)"/>
       </defs>
       <use xlink:href="#DejaVuSans-32"/>
       <use xlink:href="#DejaVuSans-30" transform="translate(63.623047 0)"/>
       <use xlink:href="#DejaVuSans-32" transform="translate(127.246094 0)"/>
       <use xlink:href="#DejaVuSans-34" transform="translate(190.869141 0)"/>
       <use xlink:href="#DejaVuSans-2d" transform="translate(254.492188 0)"/>
       <use xlink:href="#DejaVuSans-30" transform="translate(290.576172 0)"/>
       <use xlink:href="#DejaVuSans-39" transform="translate(354.199219 0)"/>
      </g>
     </g>
    </g>
    <g id="xtick_5">
     <g id="line2d_5">
      <g>
       <use xlink:href="#mc6c8a22da7" x="359.036306" y="224.28" style="stroke: #000000; stroke-width: 0.8"/>
      </g>
     </g>
     <g id="text_5">
      <!-- 2024-11 -->
      <g transform="translate(338.1449 238.878438) scale(0.1 -0.1)">
       <defs>
        <path id="DejaVuSans-31" d="M 794 531 
L 1825 531 
L 1825 4091 
L 703 3866 
L 703 4441 
L 1819 4666 
L 2450 4666 
L 2450 531 
L 3481 531 
L 3481 0 
L 794 0 
L 794 531 
z
" transform="scale(0.015625)"/>
       </defs>
       <use xlink:href="#DejaVuSans-32"/>
       <use xlink:href="#DejaVuSans-30" transform="translate(63.623047 0)"/>
       <use xlink:href="#DejaVuSans-32" transform="translate(127.246094 0)"/>
       <use xlink:href="#DejaVuSans-34" transform="translate(190.869141 0)"/>
       <use xlink:href="#DejaVuSans-2d" transform="translate(254.492188 0)"/>
       <use xlink:href="#DejaVuSans-31" transform="translate(290.576172 0)"/>
       <use xlink:href="#DejaVuSans-31" transform="translate(354.199219 0)"/>
      </g>
     </g>
    </g>
    <g id="xtick_6">
     <g id="line2d_6">
      <g>
       <use xlink:href="#mc6c8a22da7" x="417.790046" y="224.28" style="stroke: #000000; stroke-width: 0.8"/>
      </g>
     </g>
     <g id="text_6">
      <!-- 2025-01 -->
      <g transform="translate(396.89864 238.878438) scale(0.1 -0.1)">
       <use xlink:href="#DejaVuSans-32"/>
       <use xlink:href="#DejaVuSans-30" transform="translate(63.623047 0)"/>
       <use xlink:href="#DejaVuSans-32" transform="translate(127.246094 0)"/>
       <use xlink:href="#DejaVuSans-35" transform="translate(190.869141 0)"/>
       <use xlink:href="#DejaVuSans-2d" transform="translate(254.492188 0)"/>
       <use xlink:href="#DejaVuSans-30" transform="translate(290.576172 0)"/>
       <use xlink:href="#DejaVuSans-31" transform="translate(354.199219 0)"/>
      </g>
     </g>
    </g>
    <g id="xtick_7">
     <g id="line2d_7">
      <g>
       <use xlink:href="#mc6c8a22da7" x="474.617434" y="224.28" style="stroke: #000000; stroke-width: 0.8"/>
      </g>
     </g>
     <g id="text_7">
      <!-- 2025-03 -->
      <g transform="translate(453.726028 238.878438) scale(0.1 -0.1)">
       <use xlink:href="#DejaVuSans-32"/>
       <use xlink:href="#DejaVuSans-30" transform="translate(63.623047 0)"/>
       <use xlink:href="#DejaVuSans-32" transform="translate(127.246094 0)"/>
       <use xlink:href="#DejaVuSans-35" transform="translate(190.869141 0)"/>
       <use xlink:href="#DejaVuSans-2d" transform="translate(254.492188 0)"/>
       <use xlink:href="#DejaVuSans-30" transform="translate(290.576172 0)"/>
       <use xlink:href="#DejaVuSans-33" transform="translate(354.199219 0)"/>
      </g>
     </g>
    </g>
    <g id="xtick_8">
     <g id="line2d_8">
      <g>
       <use xlink:href="#mc6c8a22da7" x="533.371174" y="224.28" style="stroke: #000000; stroke-width: 0.8"/>
      </g>
     </g>
     <g id="text_8">
      <!-- 2025-05 -->
      <g transform="translate(512.479768 238.878438) scale(0.1 -0.1)">
       <use xlink:href="#DejaVuSans-32"/>
       <use xlink:href="#DejaVuSans-30" transform="translate(63.623047 0)"/>
       <use xlink:href="#DejaVuSans-32" transform="translate(127.246094 0)"/>
       <use xlink:href="#DejaVuSans-35" transform="translate(190.869141 0)"/>
       <use xlink:href="#DejaVuSans-2d" transform="translate(254.492188 0)"/>
       <use xlink:href="#DejaVuSans-30" transform="translate(290.576172 0)"/>
       <use xlink:href="#DejaVuSans-35" transform="translate(354.199219 0)"/>
      </g>
     </g>
    </g>
    <g id="xtick_9">
     <g id="line2d_9">
      <g>
       <use xlink:href="#mc6c8a22da7" x="592.124914" y="224.28" style="stroke: #000000; stroke-width: 0.8"/>
      </g>
     </g>
     <g id="text_9">
      <!-- 2025-07 -->
      <g transform="translate(571.233507 238.878438) scale(0.1 -0.1)">
       <use xlink:href="#DejaVuSans-32"/>
       <use xlink:href="#DejaVuSans-30" transform="translate(63.623047 0)"/>
       <use xlink:href="#DejaVuSans-32" transform="translate(127.246094 0)"/>
       <use xlink:href="#DejaVuSans-35" transform="translate(190.869141 0)"/>
       <use xlink:href="#DejaVuSans-2d" transform="translate(254.492188 0)"/>
       <use xlink:href="#DejaVuSans-30" transform="translate(290.576172 0)"/>
       <use xlink:href="#DejaVuSans-37" transform="translate(354.199219 0)"/>
      </g>
     </g>
    </g>
    <g id="xtick_10">
     <g id="line2d_10">
      <g>
       <use xlink:href="#mc6c8a22da7" x="651.84183" y="224.28" style="stroke: #000000; stroke-width: 0.8"/>
      </g>
     </g>
     <g id="text_10">
      <!-- 2025-09 -->
      <g transform="translate(630.950423 238.878438) scale(0.1 -0.1)">
       <use xlink:href="#DejaVuSans-32"/>
       <use xlink:href="#DejaVuSans-30" transform="translate(63.623047 0)"/>
       <use xlink:href="#DejaVuSans-32" transform="translate(127.246094 0)"/>
       <use xlink:href="#DejaVuSans-35" transform="translate(190.869141 0)"/>
       <use xlink:href="#DejaVuSans-2d" transform="translate(254.492188 0)"/>
       <use xlink:href="#DejaVuSans-30" transform="translate(290.576172 0)"/>
       <use xlink:href="#DejaVuSans-39" transform="translate(354.199219 0)"/>
      </g>
     </g>
    </g>
   </g>
   <g id="matplotlib.axis_2">
    <g id="ytick_1">
     <g id="line2d_11">
      <defs>
       <path id="m61c59ac3ff" d="M 0 0 
L -3.5 0 
" style="stroke: #000000; stroke-width: 0.8"/>
      </defs>
      <g>
       <use xlink:href="#m61c59ac3ff" x="94.5" y="209.144767" style="stroke: #000000; stroke-width: 0.8"/>
      </g>
     </g>
     <g id="text_11">
      <!-- 80 -->
      <g transform="translate(74.775 212.943986) scale(0.1 -0.1)">
       <defs>
        <path id="DejaVuSans-38" d="M 2034 2216 
Q 1584 2216 1326 1975 
Q 1069 1734 1069 1313 
Q 1069 891 1326 650 
Q 1584 409 2034 409 
Q 2484 409 2743 651 
Q 3003 894 3003 1313 
Q 3003 1734 2745 1975 
Q 2488 2216 2034 2216 
z
M 1403 2484 
Q 997 2584 770 2862 
Q 544 3141 544 3541 
Q 544 4100 942 4425 
Q 1341 4750 2034 4750 
Q 2731 4750 3128 4425 
Q 3525 4100 3525 3541 
Q 3525 3141 3298 2862 
Q 3072 2584 2669 2484 
Q 3125 2378 3379 2068 
Q 3634 1759 3634 1313 
Q 3634 634 3220 271 
Q 2806 -91 2034 -91 
Q 1263 -91 848 271 
Q 434 634 434 1313 
Q 434 1759 690 2068 
Q 947 2378 1403 2484 
z
M 1172 3481 
Q 1172 3119 1398 2916 
Q 1625 2713 2034 2713 
Q 2441 2713 2670 2916 
Q 2900 3119 2900 3481 
Q 2900 3844 2670 4047 
Q 2441 4250 2034 4250 
Q 1625 4250 1398 4047 
Q 1172 3844 1172 3481 
z
" transform="scale(0.015625)"/>
       </defs>
       <use xlink:href="#DejaVuSans-38"/>
       <use xlink:href="#DejaVuSans-30" transform="translate(63.623047 0)"/>
      </g>
     </g>
    </g>
    <g id="ytick_2">
     <g id="line2d_12">
      <g>
       <use xlink:href="#m61c59ac3ff" x="94.5" y="176.169823" style="stroke: #000000; stroke-width: 0.8"/>
      </g>
     </g>
     <g id="text_12">
      <!-- 100 -->
      <g transform="translate(68.4125 179.969042) scale(0.1 -0.1)">
       <use xlink:href="#DejaVuSans-31"/>
       <use xlink:href="#DejaVuSans-30" transform="translate(63.623047 0)"/>
       <use xlink:href="#DejaVuSans-30" transform="translate(127.246094 0)"/>
      </g>
     </g>
    </g>
    <g id="ytick_3">
     <g id="line2d_13">
      <g>
       <use xlink:href="#m61c59ac3ff" x="94.5" y="143.194879" style="stroke: #000000; stroke-width: 0.8"/>
      </g>
     </g>
     <g id="text_13">
      <!-- 120 -->
      <g transform="translate(68.4125 146.994098) scale(0.1 -0.1)">
       <use xlink:href="#DejaVuSans-31"/>
       <use xlink:href="#DejaVuSans-32" transform="translate(63.623047 0)"/>
       <use xlink:href="#DejaVuSans-30" transform="translate(127.246094 0)"/>
      </g>
     </g>
    </g>
    <g id="ytick_4">
     <g id="line2d_14">
      <g>
       <use xlink:href="#m61c59ac3ff" x="94.5" y="110.219935" style="stroke: #000000; stroke-width: 0.8"/>
      </g>
     </g>
     <g id="text_14">
      <!-- 140 -->
      <g transform="translate(68.4125 114.019154) scale(0.1 -0.1)">
       <use xlink:href="#DejaVuSans-31"/>
       <use xlink:href="#DejaVuSans-34" transform="translate(63.623047 0)"/>
       <use xlink:href="#DejaVuSans-30" transform="translate(127.246094 0)"/>
      </g>
     </g>
    </g>
    <g id="ytick_5">
     <g id="line2d_15">
      <g>
       <use xlink:href="#m61c59ac3ff" x="94.5" y="77.244991" style="stroke: #000000; stroke-width: 0.8"/>
      </g>
     </g>
     <g id="text_15">
      <!-- 160 -->
      <g transform="translate(68.4125 81.04421) scale(0.1 -0.1)">
       <defs>
        <path id="DejaVuSans-36" d="M 2113 2584 
Q 1688 2584 1439 2293 
Q 1191 2003 1191 1497 
Q 1191 994 1439 701 
Q 1688 409 2113 409 
Q 2538 409 2786 701 
Q 3034 994 3034 1497 
Q 3034 2003 2786 2293 
Q 2538 2584 2113 2584 
z
M 3366 4563 
L 3366 3988 
Q 3128 4100 2886 4159 
Q 2644 4219 2406 4219 
Q 1781 4219 1451 3797 
Q 1122 3375 1075 2522 
Q 1259 2794 1537 2939 
Q 1816 3084 2150 3084 
Q 2853 3084 3261 2657 
Q 3669 2231 3669 1497 
Q 3669 778 3244 343 
Q 2819 -91 2113 -91 
Q 1303 -91 875 529 
Q 447 1150 447 2328 
Q 447 3434 972 4092 
Q 1497 4750 2381 4750 
Q 2619 4750 2861 4703 
Q 3103 4656 3366 4563 
z
" transform="scale(0.015625)"/>
       </defs>
       <use xlink:href="#DejaVuSans-31"/>
       <use xlink:href="#DejaVuSans-36" transform="translate(63.623047 0)"/>
       <use xlink:href="#DejaVuSans-30" transform="translate(127.246094 0)"/>
      </g>
     </g>
    </g>
    <g id="ytick_6">
     <g id="line2d_16">
      <g>
       <use xlink:href="#m61c59ac3ff" x="94.5" y="44.270047" style="stroke: #000000; stroke-width: 0.8"/>
      </g>
     </g>
     <g id="text_16">
      <!-- 180 -->
      <g transform="translate(68.4125 48.069266) scale(0.1 -0.1)">
       <use xlink:href="#DejaVuSans-31"/>
       <use xlink:href="#DejaVuSans-38" transform="translate(63.623047 0)"/>
       <use xlink:href="#DejaVuSans-30" transform="translate(127.246094 0)"/>
      </g>
     </g>
    </g>
   </g>
   <g id="line2d_17">
    <path d="M 121.131818 213.054831 
L 122.094994 210.666869 
L 123.05817 205.447627 
L 125.947699 200.572783 
L 126.910875 199.368023 
L 127.874051 194.858862 
L 128.837227 188.317597 
L 129.800403 196.790421 
L 132.689931 199.681175 
L 133.653107 189.563542 
L 134.616283 191.252831 
L 135.579459 196.104818 
L 136.542635 196.28115 
L 139.432163 195.262633 
L 141.358516 192.103255 
L 142.321692 190.351336 
L 143.284868 185.647666 
L 146.174396 184.472605 
L 148.100748 192.304305 
L 149.063924 192.129621 
L 152.916628 192.118086 
L 153.879804 193.619496 
L 154.84298 194.423768 
L 155.806157 199.465283 
L 156.769333 195.999331 
L 159.658861 197.441419 
L 160.622037 200.373395 
L 161.585213 197.596329 
L 162.548389 191.701119 
L 163.511565 195.705978 
L 166.401093 199.307065 
L 167.364269 196.976665 
L 168.327445 202.547212 
L 169.290621 201.499021 
L 170.253797 215.46 
L 173.143326 209.991632 
L 174.106502 205.203922 
L 175.069678 209.729587 
L 176.032854 204.859461 
L 176.99603 196.449255 
L 179.885558 196.413028 
L 180.848734 198.646155 
L 181.81191 204.185418 
L 183.738262 194.712178 
L 186.627791 189.189431 
L 187.590967 191.803298 
L 188.554143 192.037317 
L 189.517319 194.7814 
L 190.480495 192.917402 
L 193.370023 192.058739 
L 194.333199 190.481515 
L 195.296375 185.08569 
L 196.259551 185.532318 
L 197.222727 188.630725 
L 200.112255 184.838463 
L 201.075432 183.83972 
L 202.038608 184.55828 
L 203.001784 169.974316 
L 203.96496 165.573913 
L 207.817664 153.325331 
L 208.78084 151.802486 
L 209.744016 158.93047 
L 210.707192 160.359362 
L 213.59672 151.514076 
L 214.559896 149.14575 
L 215.523072 139.252261 
L 216.486249 141.628801 
L 217.449425 141.810101 
L 220.338953 140.323521 
L 221.302129 141.757458 
L 223.228481 127.417891 
L 224.191657 123.67641 
L 227.081185 125.15982 
L 228.044361 117.577988 
L 229.970713 125.489489 
L 230.93389 132.428524 
L 233.823418 146.372521 
L 234.786594 133.219677 
L 235.74977 132.708707 
L 236.712946 136.680949 
L 237.676122 137.422641 
L 240.56565 136.16998 
L 241.528826 138.856603 
L 242.492002 129.610048 
L 244.418354 133.648191 
L 247.307883 129.741901 
L 249.234235 118.682293 
L 250.197411 131.060501 
L 251.160587 128.027743 
L 254.050115 129.346343 
L 255.013291 132.774634 
L 255.976467 146.5703 
L 256.939643 141.460809 
L 257.902819 146.669183 
L 260.792348 137.422641 
L 261.755524 138.988468 
L 262.7187 152.734674 
L 263.681876 155.981664 
L 264.645052 154.696058 
L 267.53458 157.118964 
L 268.497756 170.074004 
L 269.460932 148.169084 
L 270.424108 161.04172 
L 271.387284 164.239287 
L 274.276812 175.480195 
L 275.239988 169.216926 
L 276.203165 178.01845 
L 277.166341 168.030203 
L 278.129517 168.392816 
L 281.019045 161.354898 
L 281.982221 149.619524 
L 282.945397 146.421944 
L 283.908573 138.543438 
L 284.871749 135.708483 
L 287.761277 126.775107 
L 288.724453 131.307715 
L 289.687629 129.247423 
L 290.650806 137.092985 
L 291.613982 127.813499 
L 294.50351 132.609812 
L 295.466686 129.577066 
L 296.429862 134.010804 
L 297.393038 147.229588 
L 298.356214 144.295738 
L 302.208918 163.036086 
L 303.172094 165.986401 
L 304.13527 164.338183 
L 305.098446 171.557414 
L 307.987975 165.557849 
L 308.951151 162.871264 
L 309.914327 148.350371 
L 310.877503 144.658036 
L 311.840679 144.723988 
L 314.730207 148.5482 
L 315.693383 150.509748 
L 316.656559 154.169114 
L 317.619735 146.751462 
L 318.582911 149.833919 
L 321.47244 149.40533 
L 322.435616 141.806365 
L 323.398792 137.454667 
L 324.361968 136.581034 
L 325.325144 140.93272 
L 328.214672 140.866793 
L 329.177848 148.185549 
L 330.141024 145.136074 
L 331.1042 138.542595 
L 332.067376 135.130481 
L 334.956904 130.515028 
L 335.920081 121.992995 
L 336.883257 122.388603 
L 337.846433 118.828108 
L 338.809609 118.844587 
L 341.699137 113.454409 
L 342.662313 124.119365 
L 343.625489 117.32812 
L 345.551841 113.569833 
L 348.441369 104.157639 
L 349.404545 104.355431 
L 350.367722 110.99837 
L 351.330898 109.597252 
L 352.294074 107.734613 
L 355.183602 109.415914 
L 356.146778 108.212638 
L 357.109954 111.361021 
L 358.07313 122.207265 
L 359.036306 117.85558 
L 361.925834 116.784131 
L 362.88901 110.42145 
L 363.852186 101.025759 
L 364.815362 95.635582 
L 365.778539 97.696063 
L 368.668067 101.60268 
L 369.631243 96.60816 
L 370.594419 99.937807 
L 371.557595 99.130138 
L 372.520771 107.009336 
L 375.410299 110.025867 
L 376.373475 98.718052 
L 377.336651 100.564213 
L 378.299827 99.278469 
L 379.263003 107.058771 
L 382.152532 116.833591 
L 383.115708 115.350056 
L 384.078884 117.954501 
L 386.005236 113.157722 
L 388.894764 112.531341 
L 389.85794 109.844504 
L 390.821116 101.800496 
L 391.784292 101.91587 
L 392.747468 106.234876 
L 395.636997 112.218905 
L 396.600173 118.384197 
L 397.563349 111.394657 
L 398.526525 114.642163 
L 399.489701 119.735956 
L 402.379229 123.445058 
L 404.305581 128.538851 
L 405.268757 125.621064 
L 406.231933 118.99415 
L 409.121461 110.801208 
L 410.084638 109.894518 
L 412.01099 110.372593 
L 412.974166 115.186177 
L 415.863694 114.394886 
L 416.82687 119.670017 
L 418.753222 113.043128 
L 419.716398 102.888474 
L 422.605926 94.712036 
L 423.569102 110.026421 
L 424.532278 110.075856 
L 426.458631 116.999457 
L 429.348159 121.417408 
L 430.311335 123.840691 
L 431.274511 116.455468 
L 432.237687 120.856916 
L 433.200863 114.03221 
L 437.053567 108.888957 
L 438.016743 98.602401 
L 438.979919 98.355149 
L 439.943096 105.938189 
L 442.832624 145.831413 
L 443.7958 128.406948 
L 444.758976 137.127439 
L 445.722152 135.561385 
L 446.685328 143.111418 
L 449.574856 148.732733 
L 450.538032 145.452258 
L 451.501208 135.264648 
L 452.464384 128.91803 
L 453.42756 127.00578 
L 456.317089 120.856916 
L 457.280265 122.126232 
L 458.243441 124.86273 
L 459.206617 118.021546 
L 460.169793 112.152941 
L 464.022497 111.246276 
L 464.985673 111.526535 
L 465.948849 110.075856 
L 466.912025 119.439244 
L 469.801554 126.280427 
L 470.76473 132.297389 
L 471.727906 124.631932 
L 472.691082 142.97954 
L 473.654258 135.116292 
L 476.543786 153.018794 
L 477.506962 149.837228 
L 478.470138 147.677712 
L 479.433314 158.771988 
L 480.39649 155.277205 
L 483.286018 164.690041 
L 484.249194 161.755738 
L 485.212371 150.231791 
L 486.175547 150.495572 
L 487.138723 140.455399 
L 490.028251 143.983478 
L 490.991427 150.742874 
L 491.954603 147.297237 
L 492.917779 145.632112 
L 493.880955 147.000475 
L 496.770483 140.884039 
L 497.733659 142.071051 
L 498.696835 153.496077 
L 499.660012 157.337397 
L 500.623188 160.238994 
L 503.512716 162.365729 
L 504.475892 159.447653 
L 505.439068 159.002522 
L 506.402244 173.213734 
L 507.36542 185.561991 
L 510.254948 180.07205 
L 511.218124 182.281202 
L 512.1813 152.556367 
L 513.144476 163.701122 
L 514.107652 158.16172 
L 516.997181 158.524422 
L 517.960357 156.067955 
L 518.923533 168.778914 
L 519.886709 173.724816 
L 523.739413 181.27554 
L 524.702589 178.011254 
L 526.628941 165.580567 
L 527.592117 158.029818 
L 530.481646 161.788708 
L 531.444822 161.310607 
L 532.407998 161.475467 
L 534.33435 152.276096 
L 538.187054 153.858778 
L 539.15023 148.055596 
L 540.113406 147.544514 
L 541.076582 148.731538 
L 543.96611 138.262713 
L 544.929287 126.8377 
L 545.892463 117.9186 
L 546.855639 118.759402 
L 547.818815 117.819679 
L 550.708343 117.539395 
L 551.671519 119.501283 
L 552.634695 123.754752 
L 553.597871 122.056645 
L 554.561047 124.595553 
L 558.413751 117.65482 
L 559.376928 118.792359 
L 560.340104 111.571341 
L 561.30328 118.264798 
L 564.192808 114.555368 
L 565.155984 108.224638 
L 566.11916 107.070595 
L 567.082336 110.252439 
L 568.045512 107.400315 
L 570.93504 105.900049 
L 571.898216 103.707364 
L 572.861392 105.553977 
L 573.824568 101.976199 
L 574.787745 106.971901 
L 577.677273 102.487307 
L 578.640449 103.427105 
L 579.603625 101.184807 
L 581.529977 103.872248 
L 584.419505 103.344662 
L 585.382681 97.194842 
L 586.345857 86.626367 
L 587.309033 85.455745 
L 588.272209 80.954672 
L 591.161738 80.558964 
L 592.124914 88.291592 
L 593.08809 81.779046 
L 594.051266 78.33317 
L 597.90397 80.146777 
L 598.867146 77.244991 
L 599.830322 72.496591 
L 600.793498 70.485118 
L 601.756674 69.133158 
L 604.646203 70.534578 
L 605.609379 59.603401 
L 606.572555 58.498744 
L 607.535731 55.811278 
L 608.498907 56.784032 
L 611.388435 58.48224 
L 612.351611 65.6543 
L 613.314787 59.471498 
L 614.277963 54.591196 
L 615.241139 54.986904 
L 618.130667 49.628476 
L 619.093843 51.672931 
L 620.05702 45.473626 
L 621.020196 47.781887 
L 621.983372 54.624178 
L 624.8729 44.270047 
L 625.836076 47.138876 
L 626.799252 45.226324 
L 627.762428 43.000505 
L 628.725604 39.818435 
L 631.615132 40.873632 
L 632.578308 39.06 
L 633.541484 41.648545 
L 634.504661 40.939571 
L 635.467837 43.528116 
L 638.357365 40.956074 
L 639.320541 51.458586 
L 640.283717 51.854294 
L 641.246893 52.546765 
L 642.210069 47.58402 
L 645.099597 44.583313 
L 646.062773 41.351758 
L 647.025949 41.632042 
L 647.989125 43.989763 
L 648.952301 53.865768 
L 652.805006 59.471498 
L 653.768182 59.735304 
L 653.768182 59.735304 
" clip-path="url(#p84e45ceee9)" style="fill: none; stroke: #1f77b4; stroke-width: 1.5; stroke-linecap: square"/>
   </g>
   <g id="patch_3">
    <path d="M 94.5 224.28 
L 94.5 30.24 
" style="fill: none; stroke: #000000; stroke-width: 0.8; stroke-linejoin: miter; stroke-linecap: square"/>
   </g>
   <g id="patch_4">
    <path d="M 94.5 224.28 
L 680.4 224.28 
" style="fill: none; stroke: #000000; stroke-width: 0.8; stroke-linejoin: miter; stroke-linecap: square"/>
   </g>
  </g>
 </g>
 <defs>
  <clipPath id="p84e45ceee9">
   <rect x="94.5" y="30.24" width="585.9" height="194.04"/>
  </clipPath>
 </defs>
</svg>
