<?xml version="1.0" encoding="utf-8" standalone="no"?>
<!DOCTYPE svg PUBLIC "-//W3C//DTD SVG 1.1//EN"
  "http://www.w3.org/Graphics/SVG/1.1/DTD/svg11.dtd">
<svg xmlns:xlink="http://www.w3.org/1999/xlink" width="756pt" height="252pt" viewBox="0 0 756 252" xmlns="http://www.w3.org/2000/svg" version="1.1">
 <metadata>
  <rdf:RDF xmlns:dc="http://purl.org/dc/elements/1.1/" xmlns:cc="http://creativecommons.org/ns#" xmlns:rdf="http://www.w3.org/1999/02/22-rdf-syntax-ns#">
   <cc:Work>
    <dc:type rdf:resource="http://purl.org/dc/dcmitype/StillImage"/>
    <dc:date>2025-09-05T16:12:30.053833</dc:date>
    <dc:format>image/svg+xml</dc:format>
    <dc:creator>
     <cc:Agent>
      <dc:title>Matplotlib v3.10.5, https://matplotlib.org/</dc:title>
     </cc:Agent>
    </dc:creator>
   </cc:Work>
  </rdf:RDF>
 </metadata>
 <defs>
  <style type="text/css">*{stroke-linejoin: round; stroke-linecap: butt}</style>
 </defs>
 <g id="figure_1">
  <g id="patch_1">
   <path d="M 0 252 
L 756 252 
L 756 0 
L 0 0 
z
" style="fill: #ffffff"/>
  </g>
  <g id="axes_1">
   <g id="patch_2">
    <path d="M 94.5 224.28 
L 680.4 224.28 
L 680.4 30.24 
L 94.5 30.24 
z
" style="fill: #ffffff"/>
   </g>
   <g id="matplotlib.axis_1">
    <g id="xtick_1">
     <g id="line2d_1">
      <defs>
       <path id="m85fa8362b5" d="M 0 0 
L 0 3.5 
" style="stroke: #000000; stroke-width: 0.8"/>
      </defs>
      <g>
       <use xlink:href="#m85fa8362b5" x="115.675543" y="224.28" style="stroke: #000000; stroke-width: 0.8"/>
      </g>
     </g>
     <g id="text_1">
      <!-- 2020 -->
      <g transform="translate(102.950543 238.878438) scale(0.1 -0.1)">
       <defs>
        <path id="DejaVuSans-32" d="M 1228 531 
L 3431 531 
L 3431 0 
L 469 0 
L 469 531 
Q 828 903 1448 1529 
Q 2069 2156 2228 2338 
Q 2531 2678 2651 2914 
Q 2772 3150 2772 3378 
Q 2772 3750 2511 3984 
Q 2250 4219 1831 4219 
Q 1534 4219 1204 4116 
Q 875 4013 500 3803 
L 500 4441 
Q 881 4594 1212 4672 
Q 1544 4750 1819 4750 
Q 2544 4750 2975 4387 
Q 3406 4025 3406 3419 
Q 3406 3131 3298 2873 
Q 3191 2616 2906 2266 
Q 2828 2175 2409 1742 
Q 1991 1309 1228 531 
z
" transform="scale(0.015625)"/>
        <path id="DejaVuSans-30" d="M 2034 4250 
Q 1547 4250 1301 3770 
Q 1056 3291 1056 2328 
Q 1056 1369 1301 889 
Q 1547 409 2034 409 
Q 2525 409 2770 889 
Q 3016 1369 3016 2328 
Q 3016 3291 2770 3770 
Q 2525 4250 2034 4250 
z
M 2034 4750 
Q 2819 4750 3233 4129 
Q 3647 3509 3647 2328 
Q 3647 1150 3233 529 
Q 2819 -91 2034 -91 
Q 1250 -91 836 529 
Q 422 1150 422 2328 
Q 422 3509 836 4129 
Q 1250 4750 2034 4750 
z
" transform="scale(0.015625)"/>
       </defs>
       <use xlink:href="#DejaVuSans-32"/>
       <use xlink:href="#DejaVuSans-30" transform="translate(63.623047 0)"/>
       <use xlink:href="#DejaVuSans-32" transform="translate(127.246094 0)"/>
       <use xlink:href="#DejaVuSans-30" transform="translate(190.869141 0)"/>
      </g>
     </g>
    </g>
    <g id="xtick_2">
     <g id="line2d_2">
      <g>
       <use xlink:href="#m85fa8362b5" x="210.770621" y="224.28" style="stroke: #000000; stroke-width: 0.8"/>
      </g>
     </g>
     <g id="text_2">
      <!-- 2021 -->
      <g transform="translate(198.045621 238.878438) scale(0.1 -0.1)">
       <defs>
        <path id="DejaVuSans-31" d="M 794 531 
L 1825 531 
L 1825 4091 
L 703 3866 
L 703 4441 
L 1819 4666 
L 2450 4666 
L 2450 531 
L 3481 531 
L 3481 0 
L 794 0 
L 794 531 
z
" transform="scale(0.015625)"/>
       </defs>
       <use xlink:href="#DejaVuSans-32"/>
       <use xlink:href="#DejaVuSans-30" transform="translate(63.623047 0)"/>
       <use xlink:href="#DejaVuSans-32" transform="translate(127.246094 0)"/>
       <use xlink:href="#DejaVuSans-31" transform="translate(190.869141 0)"/>
      </g>
     </g>
    </g>
    <g id="xtick_3">
     <g id="line2d_3">
      <g>
       <use xlink:href="#m85fa8362b5" x="305.605876" y="224.28" style="stroke: #000000; stroke-width: 0.8"/>
      </g>
     </g>
     <g id="text_3">
      <!-- 2022 -->
      <g transform="translate(292.880876 238.878438) scale(0.1 -0.1)">
       <use xlink:href="#DejaVuSans-32"/>
       <use xlink:href="#DejaVuSans-30" transform="translate(63.623047 0)"/>
       <use xlink:href="#DejaVuSans-32" transform="translate(127.246094 0)"/>
       <use xlink:href="#DejaVuSans-32" transform="translate(190.869141 0)"/>
      </g>
     </g>
    </g>
    <g id="xtick_4">
     <g id="line2d_4">
      <g>
       <use xlink:href="#m85fa8362b5" x="400.441131" y="224.28" style="stroke: #000000; stroke-width: 0.8"/>
      </g>
     </g>
     <g id="text_4">
      <!-- 2023 -->
      <g transform="translate(387.716131 238.878438) scale(0.1 -0.1)">
       <defs>
        <path id="DejaVuSans-33" d="M 2597 2516 
Q 3050 2419 3304 2112 
Q 3559 1806 3559 1356 
Q 3559 666 3084 287 
Q 2609 -91 1734 -91 
Q 1441 -91 1130 -33 
Q 819 25 488 141 
L 488 750 
Q 750 597 1062 519 
Q 1375 441 1716 441 
Q 2309 441 2620 675 
Q 2931 909 2931 1356 
Q 2931 1769 2642 2001 
Q 2353 2234 1838 2234 
L 1294 2234 
L 1294 2753 
L 1863 2753 
Q 2328 2753 2575 2939 
Q 2822 3125 2822 3475 
Q 2822 3834 2567 4026 
Q 2313 4219 1838 4219 
Q 1578 4219 1281 4162 
Q 984 4106 628 3988 
L 628 4550 
Q 988 4650 1302 4700 
Q 1616 4750 1894 4750 
Q 2613 4750 3031 4423 
Q 3450 4097 3450 3541 
Q 3450 3153 3228 2886 
Q 3006 2619 2597 2516 
z
" transform="scale(0.015625)"/>
       </defs>
       <use xlink:href="#DejaVuSans-32"/>
       <use xlink:href="#DejaVuSans-30" transform="translate(63.623047 0)"/>
       <use xlink:href="#DejaVuSans-32" transform="translate(127.246094 0)"/>
       <use xlink:href="#DejaVuSans-33" transform="translate(190.869141 0)"/>
      </g>
     </g>
    </g>
    <g id="xtick_5">
     <g id="line2d_5">
      <g>
       <use xlink:href="#m85fa8362b5" x="495.276386" y="224.28" style="stroke: #000000; stroke-width: 0.8"/>
      </g>
     </g>
     <g id="text_5">
      <!-- 2024 -->
      <g transform="translate(482.551386 238.878438) scale(0.1 -0.1)">
       <defs>
        <path id="DejaVuSans-34" d="M 2419 4116 
L 825 1625 
L 2419 1625 
L 2419 4116 
z
M 2253 4666 
L 3047 4666 
L 3047 1625 
L 3713 1625 
L 3713 1100 
L 3047 1100 
L 3047 0 
L 2419 0 
L 2419 1100 
L 313 1100 
L 313 1709 
L 2253 4666 
z
" transform="scale(0.015625)"/>
       </defs>
       <use xlink:href="#DejaVuSans-32"/>
       <use xlink:href="#DejaVuSans-30" transform="translate(63.623047 0)"/>
       <use xlink:href="#DejaVuSans-32" transform="translate(127.246094 0)"/>
       <use xlink:href="#DejaVuSans-34" transform="translate(190.869141 0)"/>
      </g>
     </g>
    </g>
    <g id="xtick_6">
     <g id="line2d_6">
      <g>
       <use xlink:href="#m85fa8362b5" x="590.371463" y="224.28" style="stroke: #000000; stroke-width: 0.8"/>
      </g>
     </g>
     <g id="text_6">
      <!-- 2025 -->
      <g transform="translate(577.646463 238.878438) scale(0.1 -0.1)">
       <defs>
        <path id="DejaVuSans-35" d="M 691 4666 
L 3169 4666 
L 3169 4134 
L 1269 4134 
L 1269 2991 
Q 1406 3038 1543 3061 
Q 1681 3084 1819 3084 
Q 2600 3084 3056 2656 
Q 3513 2228 3513 1497 
Q 3513 744 3044 326 
Q 2575 -91 1722 -91 
Q 1428 -91 1123 -41 
Q 819 9 494 109 
L 494 744 
Q 775 591 1075 516 
Q 1375 441 1709 441 
Q 2250 441 2565 725 
Q 2881 1009 2881 1497 
Q 2881 1984 2565 2268 
Q 2250 2553 1709 2553 
Q 1456 2553 1204 2497 
Q 953 2441 691 2322 
L 691 4666 
z
" transform="scale(0.015625)"/>
       </defs>
       <use xlink:href="#DejaVuSans-32"/>
       <use xlink:href="#DejaVuSans-30" transform="translate(63.623047 0)"/>
       <use xlink:href="#DejaVuSans-32" transform="translate(127.246094 0)"/>
       <use xlink:href="#DejaVuSans-35" transform="translate(190.869141 0)"/>
      </g>
     </g>
    </g>
   </g>
   <g id="matplotlib.axis_2">
    <g id="ytick_1">
     <g id="line2d_7">
      <defs>
       <path id="mbb97548ef3" d="M 0 0 
L -3.5 0 
" style="stroke: #000000; stroke-width: 0.8"/>
      </defs>
      <g>
       <use xlink:href="#mbb97548ef3" x="94.5" y="220.300369" style="stroke: #000000; stroke-width: 0.8"/>
      </g>
     </g>
     <g id="text_7">
      <!-- 0 -->
      <g transform="translate(81.1375 224.099588) scale(0.1 -0.1)">
       <use xlink:href="#DejaVuSans-30"/>
      </g>
     </g>
    </g>
    <g id="ytick_2">
     <g id="line2d_8">
      <g>
       <use xlink:href="#mbb97548ef3" x="94.5" y="195.562385" style="stroke: #000000; stroke-width: 0.8"/>
      </g>
     </g>
     <g id="text_8">
      <!-- 25 -->
      <g transform="translate(74.775 199.361604) scale(0.1 -0.1)">
       <use xlink:href="#DejaVuSans-32"/>
       <use xlink:href="#DejaVuSans-35" transform="translate(63.623047 0)"/>
      </g>
     </g>
    </g>
    <g id="ytick_3">
     <g id="line2d_9">
      <g>
       <use xlink:href="#mbb97548ef3" x="94.5" y="170.824401" style="stroke: #000000; stroke-width: 0.8"/>
      </g>
     </g>
     <g id="text_9">
      <!-- 50 -->
      <g transform="translate(74.775 174.62362) scale(0.1 -0.1)">
       <use xlink:href="#DejaVuSans-35"/>
       <use xlink:href="#DejaVuSans-30" transform="translate(63.623047 0)"/>
      </g>
     </g>
    </g>
    <g id="ytick_4">
     <g id="line2d_10">
      <g>
       <use xlink:href="#mbb97548ef3" x="94.5" y="146.086417" style="stroke: #000000; stroke-width: 0.8"/>
      </g>
     </g>
     <g id="text_10">
      <!-- 75 -->
      <g transform="translate(74.775 149.885636) scale(0.1 -0.1)">
       <defs>
        <path id="DejaVuSans-37" d="M 525 4666 
L 3525 4666 
L 3525 4397 
L 1831 0 
L 1172 0 
L 2766 4134 
L 525 4134 
L 525 4666 
z
" transform="scale(0.015625)"/>
       </defs>
       <use xlink:href="#DejaVuSans-37"/>
       <use xlink:href="#DejaVuSans-35" transform="translate(63.623047 0)"/>
      </g>
     </g>
    </g>
    <g id="ytick_5">
     <g id="line2d_11">
      <g>
       <use xlink:href="#mbb97548ef3" x="94.5" y="121.348433" style="stroke: #000000; stroke-width: 0.8"/>
      </g>
     </g>
     <g id="text_11">
      <!-- 100 -->
      <g transform="translate(68.4125 125.147652) scale(0.1 -0.1)">
       <use xlink:href="#DejaVuSans-31"/>
       <use xlink:href="#DejaVuSans-30" transform="translate(63.623047 0)"/>
       <use xlink:href="#DejaVuSans-30" transform="translate(127.246094 0)"/>
      </g>
     </g>
    </g>
    <g id="ytick_6">
     <g id="line2d_12">
      <g>
       <use xlink:href="#mbb97548ef3" x="94.5" y="96.610449" style="stroke: #000000; stroke-width: 0.8"/>
      </g>
     </g>
     <g id="text_12">
      <!-- 125 -->
      <g transform="translate(68.4125 100.409668) scale(0.1 -0.1)">
       <use xlink:href="#DejaVuSans-31"/>
       <use xlink:href="#DejaVuSans-32" transform="translate(63.623047 0)"/>
       <use xlink:href="#DejaVuSans-35" transform="translate(127.246094 0)"/>
      </g>
     </g>
    </g>
    <g id="ytick_7">
     <g id="line2d_13">
      <g>
       <use xlink:href="#mbb97548ef3" x="94.5" y="71.872465" style="stroke: #000000; stroke-width: 0.8"/>
      </g>
     </g>
     <g id="text_13">
      <!-- 150 -->
      <g transform="translate(68.4125 75.671684) scale(0.1 -0.1)">
       <use xlink:href="#DejaVuSans-31"/>
       <use xlink:href="#DejaVuSans-35" transform="translate(63.623047 0)"/>
       <use xlink:href="#DejaVuSans-30" transform="translate(127.246094 0)"/>
      </g>
     </g>
    </g>
    <g id="ytick_8">
     <g id="line2d_14">
      <g>
       <use xlink:href="#mbb97548ef3" x="94.5" y="47.134482" style="stroke: #000000; stroke-width: 0.8"/>
      </g>
     </g>
     <g id="text_14">
      <!-- 175 -->
      <g transform="translate(68.4125 50.9337) scale(0.1 -0.1)">
       <use xlink:href="#DejaVuSans-31"/>
       <use xlink:href="#DejaVuSans-37" transform="translate(63.623047 0)"/>
       <use xlink:href="#DejaVuSans-35" transform="translate(127.246094 0)"/>
      </g>
     </g>
    </g>
   </g>
   <g id="line2d_15">
    <path d="M 121.131818 214.139975 
L 121.391641 214.072242 
L 122.430931 214.384067 
L 122.690754 214.192685 
L 123.470222 214.476926 
L 124.24969 214.380865 
L 124.769335 214.123967 
L 125.029157 214.038005 
L 125.28898 214.103523 
L 126.847916 213.630858 
L 127.107738 213.16263 
L 128.147029 212.995632 
L 128.406851 212.549076 
L 128.666674 212.696862 
L 128.926497 213.05721 
L 129.965787 213.845886 
L 130.22561 213.707953 
L 130.485432 214.074923 
L 130.745255 213.644368 
L 131.524723 213.487622 
L 131.784545 213.747386 
L 132.044368 213.288486 
L 132.564013 213.74369 
L 133.343481 214.251386 
L 133.603304 213.86593 
L 133.863126 214.226002 
L 134.122949 214.969308 
L 134.382772 214.364756 
L 135.162239 215.46 
L 135.422062 214.945649 
L 135.681885 215.301776 
L 135.941707 215.051623 
L 136.20153 215.229565 
L 136.980998 215.058525 
L 137.24082 214.159211 
L 137.500643 214.24695 
L 137.760466 213.96057 
L 138.020288 214.07172 
L 138.799756 213.754781 
L 139.059579 213.803824 
L 139.319401 214.309797 
L 139.579224 214.004193 
L 139.839047 214.289095 
L 140.618514 213.685526 
L 140.878337 213.916454 
L 141.13816 213.721262 
L 141.397982 213.819843 
L 142.437273 213.649791 
L 142.697095 213.302289 
L 142.956918 213.378936 
L 143.216741 213.037349 
L 144.256031 213.22589 
L 144.515854 213.65817 
L 144.775676 213.248069 
L 145.035499 213.300811 
L 145.295322 213.163289 
L 146.074789 212.978694 
L 146.334612 213.119666 
L 146.594435 212.944683 
L 147.11408 213.331125 
L 148.413193 212.961196 
L 148.932838 212.598661 
L 149.712306 212.349249 
L 149.972129 212.608519 
L 150.231951 212.630699 
L 150.491774 212.383753 
L 150.751596 211.93003 
L 152.05071 211.457577 
L 152.310532 211.649564 
L 152.570355 211.402124 
L 154.12929 211.933725 
L 154.389113 211.550736 
L 155.948049 211.654245 
L 156.207871 211.502855 
L 156.987339 211.616272 
L 157.506984 211.062237 
L 157.766807 211.624906 
L 158.02663 211.490523 
L 158.806098 211.252589 
L 159.06592 211.356395 
L 159.325743 211.191191 
L 159.845388 211.166289 
L 160.624856 210.904435 
L 160.884678 210.980132 
L 161.144501 211.191686 
L 161.404324 210.940682 
L 161.664146 211.271081 
L 162.443614 211.226698 
L 162.703437 210.933038 
L 163.223082 210.82011 
L 164.522195 210.564174 
L 165.04184 209.935675 
L 165.301663 209.965015 
L 166.081131 210.386152 
L 166.340953 210.065859 
L 166.860599 210.304785 
L 167.899889 209.933947 
L 168.159712 210.113695 
L 168.419534 210.004958 
L 168.679357 210.309716 
L 169.718647 210.021969 
L 169.97847 210.225144 
L 170.498115 209.832116 
L 170.757938 209.831377 
L 172.316874 209.120521 
L 172.576696 209.254655 
L 173.356164 209.288684 
L 173.615987 209.599355 
L 173.875809 209.01721 
L 174.135632 209.014497 
L 174.395455 208.895159 
L 175.174922 208.132773 
L 175.95439 208.326082 
L 176.214213 207.791033 
L 177.513326 207.702764 
L 177.773149 207.845525 
L 178.032971 207.333157 
L 178.812439 207.109522 
L 179.332084 206.146636 
L 179.591907 207.459751 
L 179.851729 207.847471 
L 180.89102 208.547439 
L 181.150843 207.756213 
L 181.410665 208.154044 
L 181.670488 208.299316 
L 182.709778 207.483923 
L 182.969601 207.954019 
L 183.229424 208.004333 
L 183.489246 208.274899 
L 184.528537 207.832425 
L 184.788359 208.339521 
L 185.048182 208.118282 
L 185.308004 207.599597 
L 186.087472 207.440511 
L 186.86694 206.868798 
L 187.126763 207.413629 
L 188.425876 206.523995 
L 188.945521 206.722543 
L 189.724989 206.265513 
L 189.984812 206.243564 
L 190.764279 206.674447 
L 191.543747 206.983982 
L 191.80357 206.838215 
L 192.323215 207.118892 
L 192.583038 206.892722 
L 193.362506 207.335691 
L 193.622328 207.083624 
L 193.882151 207.843031 
L 194.141973 207.451364 
L 194.401796 207.934779 
L 195.181264 207.888659 
L 195.441086 207.455805 
L 195.700909 206.691465 
L 196.220554 205.934029 
L 197.000022 206.852767 
L 197.259845 207.701952 
L 197.519667 207.06266 
L 197.77949 207.024429 
L 198.039313 207.182035 
L 198.81878 206.966716 
L 199.338426 207.052053 
L 199.598248 207.040708 
L 199.858071 207.388473 
L 200.637539 207.336925 
L 200.897361 207.516722 
L 201.157184 207.243447 
L 202.71612 207.090283 
L 202.975942 206.937859 
L 203.235765 207.08046 
L 203.495588 206.920341 
L 204.275055 206.872481 
L 204.534878 207.125851 
L 204.794701 207.539592 
L 205.314346 207.458178 
L 206.353636 207.11549 
L 206.613459 207.231939 
L 206.873282 207.13449 
L 207.133104 207.202828 
L 208.172395 207.19666 
L 208.432217 207.462124 
L 209.991153 207.527257 
L 210.250976 207.327421 
L 210.510798 207.416976 
L 211.550089 207.359247 
L 211.809911 207.071823 
L 212.069734 207.851684 
L 212.329557 207.131776 
L 212.589379 207.198143 
L 213.368847 206.857922 
L 213.62867 206.992874 
L 213.888492 206.946492 
L 214.408137 207.609907 
L 215.447428 207.446334 
L 215.967073 206.615158 
L 216.226896 206.768118 
L 217.006364 206.826589 
L 217.266186 207.041722 
L 217.526009 207.552422 
L 217.785831 207.420923 
L 218.045654 207.481369 
L 218.825122 207.237369 
L 219.084945 206.921821 
L 219.344767 206.947727 
L 219.60459 206.815733 
L 219.864412 206.888022 
L 220.64388 206.051417 
L 220.903703 206.224608 
L 221.423348 205.250091 
L 221.683171 205.535784 
L 222.722461 205.171636 
L 222.982284 205.590307 
L 223.242106 205.666298 
L 223.501929 205.570077 
L 224.54122 206.344264 
L 224.801042 205.991959 
L 225.060865 207.167794 
L 225.320687 206.766144 
L 226.100155 206.64057 
L 226.879623 208.092725 
L 227.139446 208.002674 
L 227.918914 208.859512 
L 228.178736 207.940433 
L 228.438559 207.991768 
L 228.698381 207.47324 
L 228.958204 207.608981 
L 230.257317 207.129944 
L 230.51714 207.74077 
L 231.55643 207.282962 
L 231.816253 207.396982 
L 232.076075 207.819257 
L 232.335898 207.925625 
L 232.595721 207.625517 
L 233.635011 207.593433 
L 234.154656 206.665469 
L 235.193947 206.491968 
L 235.453769 206.616357 
L 235.973415 206.166688 
L 236.233237 206.084751 
L 237.012705 205.286112 
L 237.272528 204.821634 
L 237.53235 205.218982 
L 237.792173 204.369745 
L 238.831463 205.135315 
L 239.091286 205.323375 
L 239.351109 205.136549 
L 239.610931 205.640266 
L 239.870754 205.23058 
L 240.650222 205.020555 
L 241.169867 205.219229 
L 241.42969 205.171844 
L 241.689512 205.483056 
L 242.46898 205.653595 
L 242.728803 206.132877 
L 243.248448 205.963325 
L 243.508271 205.67778 
L 244.287738 206.217284 
L 244.547561 206.177301 
L 244.807384 206.71804 
L 245.067206 206.810094 
L 245.327029 206.23974 
L 246.106497 206.31625 
L 246.366319 206.464082 
L 246.626142 206.414721 
L 247.145787 205.500579 
L 247.925255 204.888268 
L 248.4449 204.801399 
L 248.704723 205.010684 
L 248.964545 204.263868 
L 250.003836 204.244122 
L 250.263659 203.736953 
L 250.523481 203.54791 
L 250.783304 202.947197 
L 251.562772 202.906968 
L 252.082417 203.160452 
L 252.342239 203.094542 
L 252.602062 202.699323 
L 253.38153 202.508262 
L 253.641353 202.735619 
L 253.901175 202.714139 
L 254.160998 201.87779 
L 254.42082 201.89606 
L 255.200288 202.104898 
L 255.460111 201.651181 
L 255.979756 201.336441 
L 256.239579 201.508742 
L 257.019047 200.566742 
L 257.798514 200.342596 
L 258.058337 200.071056 
L 259.097627 199.862216 
L 259.617273 200.647957 
L 260.656563 200.045878 
L 261.176208 200.708439 
L 261.695854 202.367803 
L 262.475322 201.756829 
L 262.735144 201.922469 
L 262.994967 201.134512 
L 263.254789 200.952828 
L 263.514612 200.988367 
L 264.553902 201.333968 
L 265.073548 200.885679 
L 265.33337 201.046628 
L 266.372661 200.734604 
L 266.892306 199.922943 
L 267.152129 200.190537 
L 267.931596 200.260641 
L 268.451242 200.849146 
L 268.970887 200.366295 
L 269.750355 200.601302 
L 270.27 201.499858 
L 270.789645 199.746194 
L 271.569113 198.61856 
L 271.828936 198.781484 
L 272.088758 198.366771 
L 272.348581 198.509941 
L 272.608404 197.949087 
L 273.387871 197.897742 
L 273.647694 198.19303 
L 274.167339 198.182169 
L 274.427162 197.740712 
L 275.466452 197.919467 
L 275.986098 198.398452 
L 276.24592 198.101188 
L 277.025388 198.423143 
L 277.545033 198.236489 
L 277.804856 198.334258 
L 278.064678 198.672017 
L 278.844146 199.449254 
L 279.103969 199.317905 
L 279.623614 198.097236 
L 279.883437 198.493262 
L 280.662905 198.909038 
L 280.922727 199.85812 
L 281.18255 200.037861 
L 281.442373 199.841334 
L 281.702195 199.815655 
L 282.481663 200.813127 
L 282.741486 200.103045 
L 283.261131 199.486781 
L 283.520953 199.727757 
L 284.560244 199.885776 
L 284.820067 199.621096 
L 285.079889 198.824105 
L 286.379002 198.286857 
L 286.638825 198.471535 
L 286.898647 197.889841 
L 287.15847 197.856263 
L 287.937938 197.421722 
L 288.197761 195.889961 
L 288.457583 196.152658 
L 288.977228 195.050505 
L 289.756696 194.79373 
L 290.016519 194.226847 
L 290.276341 194.03229 
L 290.536164 190.869021 
L 290.795987 190.917411 
L 291.575455 189.878464 
L 291.835277 190.023639 
L 292.0951 191.206777 
L 292.354922 190.287328 
L 292.614745 190.287328 
L 293.394213 190.647796 
L 293.654035 190.472008 
L 293.913858 191.402322 
L 294.173681 189.01826 
L 294.433503 187.724514 
L 295.472794 188.948145 
L 295.732616 188.031655 
L 296.252262 189.18813 
L 297.031729 187.338364 
L 297.291552 188.029681 
L 297.551375 189.251487 
L 297.811197 188.568982 
L 298.07102 189.984369 
L 298.850488 190.632316 
L 299.11031 188.271667 
L 299.370133 188.86529 
L 299.629956 190.184878 
L 299.889778 190.473293 
L 300.669246 192.48527 
L 300.929069 192.311435 
L 301.188891 190.215497 
L 301.448714 192.262048 
L 301.708537 192.840848 
L 302.488004 192.921838 
L 302.747827 191.582499 
L 304.306763 189.73547 
L 304.566585 190.350815 
L 305.346053 191.25063 
L 306.125521 190.549346 
L 306.385344 191.370143 
L 306.645166 193.035429 
L 306.904989 192.468482 
L 307.164812 193.388044 
L 307.944279 193.236925 
L 308.204102 192.825045 
L 308.463925 192.645282 
L 308.723747 194.051792 
L 308.98357 193.689301 
L 310.02286 194.715535 
L 310.802328 197.213473 
L 311.581796 197.215449 
L 311.841619 198.250574 
L 312.101441 197.808075 
L 312.361264 198.625909 
L 312.621086 197.740914 
L 313.400554 196.115134 
L 313.660377 195.964994 
L 313.9202 195.368415 
L 314.180022 196.646525 
L 314.439845 196.280081 
L 315.219313 195.876102 
L 315.479135 195.50077 
L 315.738958 193.923388 
L 315.99878 194.793566 
L 316.258603 196.645538 
L 317.038071 196.331442 
L 317.297894 194.13081 
L 317.557716 194.115002 
L 317.817539 196.094394 
L 318.077361 196.948765 
L 319.116652 197.197673 
L 319.376475 198.188355 
L 319.636297 196.844067 
L 319.89612 196.440088 
L 320.675588 196.214892 
L 320.93541 197.111742 
L 321.195233 196.373791 
L 321.455055 196.873659 
L 321.714878 197.642227 
L 322.494346 199.207046 
L 322.754169 199.047009 
L 323.013991 197.565178 
L 323.273814 197.916865 
L 323.533636 198.468107 
L 324.313104 199.228773 
L 324.832749 196.101131 
L 325.092572 195.834399 
L 325.352395 194.167842 
L 326.131863 193.890246 
L 326.391685 194.097704 
L 326.651508 194.976921 
L 326.91133 192.4914 
L 327.171153 192.943851 
L 327.950621 192.423238 
L 328.210443 191.991529 
L 328.470266 192.945827 
L 328.989911 193.911979 
L 329.769379 193.271826 
L 330.289024 196.189052 
L 330.548847 196.385643 
L 330.80867 197.461451 
L 331.84796 199.056884 
L 332.107783 198.366352 
L 332.367605 199.299906 
L 333.406896 198.781265 
L 333.666718 198.371291 
L 333.926541 199.07862 
L 334.186364 200.361879 
L 334.446186 201.021786 
L 335.225654 200.639475 
L 335.485477 201.739981 
L 335.745299 202.108461 
L 336.005122 200.758026 
L 336.264945 201.978065 
L 337.044412 201.004007 
L 337.304235 200.935842 
L 337.564058 200.212713 
L 337.82388 201.684662 
L 338.083703 201.851614 
L 338.863171 203.555712 
L 339.122993 202.918529 
L 339.382816 203.871839 
L 339.642639 204.321325 
L 339.902461 202.808873 
L 340.681929 203.245521 
L 340.941752 202.343583 
L 341.201574 203.567568 
L 341.461397 203.383821 
L 341.72122 203.808612 
L 342.500687 203.607086 
L 342.76051 204.342074 
L 343.539978 201.717257 
L 344.579268 201.854574 
L 344.839091 202.202306 
L 345.098914 200.945722 
L 345.358736 201.807158 
L 346.138204 201.741959 
L 346.398027 201.603657 
L 346.657849 201.874385 
L 346.917672 202.467244 
L 347.177494 203.52846 
L 347.956962 204.83966 
L 348.216785 204.652911 
L 348.476608 203.970134 
L 348.73643 204.885114 
L 348.996253 204.609436 
L 350.035543 203.931602 
L 350.555188 204.268543 
L 350.815011 203.37827 
L 351.594479 203.632214 
L 351.854302 204.508649 
L 352.633769 205.95028 
L 353.932882 205.350506 
L 354.192705 204.631173 
L 354.452528 204.650935 
L 355.231996 205.328767 
L 355.491818 205.397933 
L 355.751641 205.316911 
L 356.011463 205.111386 
L 356.271286 204.726031 
L 357.050754 204.391066 
L 357.570399 202.705382 
L 357.830222 202.465272 
L 358.090044 203.187566 
L 358.869512 203.479051 
L 359.129335 203.96421 
L 359.389157 202.722172 
L 359.908803 202.353614 
L 360.948093 201.994938 
L 361.467738 201.314142 
L 361.727561 201.537452 
L 362.507029 202.719208 
L 362.766851 203.417793 
L 363.026674 202.418835 
L 363.286497 202.571985 
L 363.546319 201.81412 
L 364.325787 201.494964 
L 364.58561 201.646139 
L 364.845432 202.183665 
L 365.105255 201.750878 
L 365.365078 202.663879 
L 366.144545 203.469177 
L 366.664191 203.283411 
L 366.924013 202.600641 
L 367.183836 204.233957 
L 367.963304 204.687496 
L 368.482949 205.386077 
L 368.742772 206.529302 
L 369.002594 206.815849 
L 370.041885 206.995681 
L 370.56153 206.472824 
L 370.821353 206.080434 
L 371.60082 205.963805 
L 371.860643 207.321852 
L 372.120466 207.324814 
L 372.380288 207.521505 
L 372.640111 207.25563 
L 373.419579 207.073766 
L 373.679401 207.277373 
L 373.939224 207.193358 
L 374.199047 207.885232 
L 374.458869 207.929708 
L 375.238337 208.214365 
L 375.49816 208.031511 
L 375.757982 207.712263 
L 376.017805 208.222272 
L 376.277627 208.302331 
L 377.057095 207.933663 
L 377.316918 207.286267 
L 377.576741 207.244757 
L 377.836563 207.32284 
L 378.096386 208.364599 
L 379.395499 208.933911 
L 379.655322 208.479252 
L 379.915144 209.203739 
L 380.954435 208.472333 
L 381.47408 208.247967 
L 381.733902 207.979129 
L 382.51337 207.847671 
L 382.773193 207.193358 
L 383.033016 207.554122 
L 383.292838 207.277373 
L 383.552661 206.627015 
L 384.332129 206.9601 
L 384.591951 206.914636 
L 384.851774 207.234874 
L 385.111596 207.03522 
L 385.371419 206.308752 
L 386.150887 206.165437 
L 386.41071 205.867932 
L 386.670532 206.684341 
L 386.930355 204.73326 
L 387.190177 204.162964 
L 387.969645 204.194592 
L 388.229468 203.827899 
L 388.48929 204.575121 
L 389.008936 205.070302 
L 389.788404 205.161234 
L 390.308049 203.973194 
L 391.607162 204.657157 
L 391.866984 204.842973 
L 392.126807 203.569603 
L 392.38663 203.360016 
L 392.646452 203.61607 
L 393.42592 203.879049 
L 393.685743 204.494971 
L 393.945565 204.363483 
L 394.205388 203.326402 
L 394.465211 203.492495 
L 395.244678 202.964557 
L 395.504501 202.433657 
L 395.764324 202.827137 
L 396.024146 203.540936 
L 396.283969 203.917605 
L 397.323259 204.398083 
L 397.583082 203.986813 
L 397.842905 205.135612 
L 398.102727 205.267101 
L 399.142018 206.339775 
L 399.40184 206.423808 
L 399.661663 205.86325 
L 399.921486 205.852376 
L 400.960776 206.147979 
L 401.220599 205.71891 
L 401.480421 206.197411 
L 401.740244 205.610159 
L 403.29918 203.976925 
L 403.559002 203.593331 
L 404.598293 202.799453 
L 404.858115 203.120763 
L 405.117938 203.725808 
L 405.377761 202.664011 
L 406.157228 201.325389 
L 406.676874 201.196869 
L 407.196519 200.166705 
L 407.975987 201.356039 
L 408.235809 200.985296 
L 408.495632 199.59527 
L 408.755455 198.837973 
L 409.015277 199.440055 
L 409.794745 199.450928 
L 410.054568 198.379241 
L 410.574213 198.217104 
L 410.834035 199.276929 
L 411.613503 198.75987 
L 411.873326 197.590304 
L 412.133149 197.794956 
L 412.652794 199.155325 
L 413.692084 199.88 
L 413.951907 199.78212 
L 414.211729 196.90518 
L 414.471552 197.278888 
L 415.25102 197.066327 
L 415.510843 197.348092 
L 415.770665 197.860204 
L 416.29031 196.681747 
L 417.069778 197.013926 
L 417.329601 197.273 
L 417.589424 196.389992 
L 418.109069 197.59238 
L 418.888537 197.591391 
L 419.148359 196.506674 
L 419.408182 196.343519 
L 419.668004 195.045211 
L 419.927827 194.863272 
L 420.707295 194.690231 
L 421.22694 194.128585 
L 421.486763 193.41368 
L 421.746585 193.821067 
L 422.785876 194.185936 
L 423.305521 193.223827 
L 423.565344 192.834235 
L 424.344812 192.648341 
L 424.864457 193.72021 
L 426.16357 193.030018 
L 426.423392 193.435432 
L 426.683215 194.101892 
L 426.943038 194.133532 
L 427.20286 193.841831 
L 427.982328 193.600559 
L 428.242151 192.943003 
L 428.501973 192.681961 
L 428.761796 193.499706 
L 429.021619 193.484871 
L 429.801086 193.561007 
L 430.060909 194.353047 
L 430.320732 193.646046 
L 430.580554 193.379068 
L 430.840377 192.861924 
L 431.619845 191.71392 
L 432.13949 192.809514 
L 432.399313 193.046831 
L 432.659135 191.941344 
L 433.438603 191.475616 
L 433.698426 192.049126 
L 433.958248 191.738637 
L 434.477894 192.277536 
L 435.517184 191.414311 
L 435.777007 190.460108 
L 436.036829 188.976895 
L 436.296652 189.386259 
L 437.07612 189.473278 
L 437.335942 189.955815 
L 437.595765 190.104137 
L 437.855588 182.745429 
L 438.11541 181.790233 
L 439.154701 180.638268 
L 439.414523 182.889789 
L 439.674346 180.975452 
L 439.934169 181.413501 
L 440.713636 181.567751 
L 440.973459 182.078968 
L 441.233282 183.240943 
L 441.493104 182.21741 
L 442.532395 181.256197 
L 443.05204 177.780177 
L 443.311863 178.120355 
L 443.571685 178.081789 
L 444.610976 176.978163 
L 444.870798 177.73271 
L 445.130621 177.752479 
L 445.390443 178.559437 
L 446.169911 180.118954 
L 446.429734 178.888744 
L 446.689557 179.63932 
L 446.949379 179.931056 
L 447.209202 178.46747 
L 447.98867 178.357694 
L 448.508315 178.452624 
L 448.768137 178.664258 
L 449.02796 178.268697 
L 449.807428 178.588114 
L 450.067251 178.365606 
L 450.586896 174.833214 
L 450.846718 175.335584 
L 451.626186 174.354588 
L 451.886009 173.33304 
L 452.145831 173.745417 
L 452.665477 176.482724 
L 453.444945 176.183076 
L 453.704767 175.127918 
L 453.96459 175.352397 
L 454.224412 174.909369 
L 454.484235 174.068789 
L 455.263703 174.089565 
L 455.523525 174.309099 
L 455.783348 176.522272 
L 457.082461 175.387011 
L 457.342284 176.131653 
L 457.602106 178.21826 
L 457.861929 178.382418 
L 458.121752 179.89842 
L 458.90122 177.032557 
L 459.161042 176.847626 
L 459.420865 177.296598 
L 459.94051 177.481518 
L 460.719978 173.854196 
L 460.9798 175.138789 
L 461.239623 173.70685 
L 461.499446 173.660372 
L 461.759268 174.79267 
L 462.538736 173.984737 
L 462.798559 172.057344 
L 463.058381 171.582666 
L 463.318204 171.492673 
L 463.578027 172.329294 
L 464.617317 172.290728 
L 464.87714 173.757409 
L 465.396785 175.230016 
L 466.176253 175.619673 
L 466.436075 175.924293 
L 466.695898 175.316054 
L 466.955721 175.221112 
L 467.215543 176.88361 
L 467.995011 176.818334 
L 468.254834 177.259425 
L 468.774479 179.734877 
L 469.034302 179.148403 
L 469.813769 178.543138 
L 470.073592 178.850713 
L 470.85306 177.280193 
L 471.632528 176.011319 
L 471.89235 177.262396 
L 472.411996 176.104282 
L 472.671818 175.042104 
L 473.451286 175.52572 
L 473.711109 175.0065 
L 473.970931 174.009594 
L 474.230754 173.87213 
L 474.490576 175.3398 
L 475.270044 174.712767 
L 475.78969 178.568852 
L 476.049512 178.662804 
L 476.309335 179.368948 
L 477.348625 177.118005 
L 477.868271 180.418267 
L 478.128093 180.246181 
L 478.907561 179.592457 
L 479.167384 179.969264 
L 479.946851 175.790773 
L 480.986142 174.851231 
L 481.505787 173.867185 
L 481.76561 172.497427 
L 482.545078 172.215569 
L 482.8049 171.190971 
L 483.064723 171.950516 
L 483.324545 171.365031 
L 483.584368 171.545025 
L 484.363836 170.446261 
L 484.623659 170.906139 
L 484.883481 172.120627 
L 485.403126 173.050276 
L 486.182594 172.589402 
L 486.442417 173.005768 
L 486.702239 172.690281 
L 486.962062 174.045201 
L 487.221885 174.050146 
L 488.001353 175.291337 
L 488.261175 174.242909 
L 488.520998 175.2943 
L 489.040643 173.313174 
L 489.820111 174.182574 
L 490.079933 173.16382 
L 491.638869 170.770249 
L 491.898692 171.238087 
L 492.158514 172.714783 
L 492.418337 171.845379 
L 492.67816 172.00363 
L 494.496918 171.319187 
L 495.536208 172.658404 
L 495.796031 173.250861 
L 496.055854 172.826545 
L 497.614789 166.54391 
L 497.874612 166.077072 
L 498.134435 166.187849 
L 499.173725 164.534104 
L 499.433548 164.859507 
L 499.69337 163.817024 
L 499.953193 161.459057 
L 500.732661 161.297835 
L 500.992483 161.081227 
L 501.252306 159.608487 
L 501.512129 159.356275 
L 501.771951 159.935876 
L 502.811242 158.21191 
L 503.071064 159.445287 
L 503.330887 157.961672 
L 503.59071 154.862883 
L 504.370177 151.725527 
L 504.63 152.822414 
L 504.889823 150.966915 
L 505.149645 151.419911 
L 505.409468 148.955104 
L 506.188936 148.841379 
L 506.448758 148.960049 
L 506.708581 147.20741 
L 506.968404 148.435854 
L 507.228226 148.480365 
L 508.267517 151.606835 
L 508.527339 153.565211 
L 508.787162 142.620065 
L 509.046984 142.34411 
L 509.826452 142.072104 
L 510.086275 142.458854 
L 510.346098 143.485501 
L 510.60592 142.05234 
L 510.865743 138.919929 
L 511.905033 135.271174 
L 512.164856 132.564929 
L 512.424678 128.639087 
L 512.684501 133.724182 
L 513.463969 135.459102 
L 513.723792 129.386866 
L 513.983614 130.400725 
L 514.243437 133.312708 
L 514.503259 133.418536 
L 515.282727 132.807258 
L 516.062195 129.859672 
L 516.322018 127.036705 
L 517.101486 126.331467 
L 517.621131 131.031782 
L 517.880953 130.926936 
L 518.920244 130.920013 
L 519.180067 131.821106 
L 519.439889 132.303801 
L 519.699712 135.329539 
L 519.959534 133.249398 
L 520.739002 134.114888 
L 520.998825 135.874555 
L 521.258647 134.207867 
L 521.51847 130.669764 
L 521.778293 133.073338 
L 522.557761 135.234582 
L 522.817583 133.835959 
L 523.077406 137.179203 
L 523.337228 136.550116 
L 523.597051 144.929006 
L 524.376519 141.647078 
L 524.636341 138.773673 
L 524.896164 141.489801 
L 525.155987 138.566932 
L 525.415809 133.519434 
L 526.195277 133.497676 
L 526.4551 134.837927 
L 526.714922 138.162396 
L 527.234568 132.476895 
L 528.014035 129.162346 
L 528.273858 130.731096 
L 528.533681 130.871538 
L 528.793503 132.518439 
L 529.053326 131.399726 
L 529.832794 130.884402 
L 530.092616 129.937801 
L 530.352439 126.699419 
L 530.612262 126.967469 
L 530.872084 128.82703 
L 531.911375 125.951632 
L 532.171197 126.382894 
L 532.43102 117.630111 
L 532.690843 114.989145 
L 533.730133 107.637975 
L 533.989956 106.724025 
L 534.249778 111.001995 
L 534.509601 111.859558 
L 535.548891 105.129555 
L 535.808714 99.19182 
L 536.068537 100.618134 
L 536.328359 100.726944 
L 537.107827 99.83476 
L 537.36765 100.695357 
L 537.887295 92.08926 
L 538.147118 89.843756 
L 538.926585 90.734046 
L 539.186408 86.1837 
L 539.706053 90.931886 
L 539.965876 95.096463 
L 540.745344 103.465146 
L 541.005166 95.571277 
L 541.264989 95.264619 
L 541.524812 97.648625 
L 541.784634 98.093747 
L 542.564102 97.341944 
L 542.823925 98.954367 
L 543.083747 93.404915 
L 543.603392 95.828464 
L 544.38286 93.484063 
L 544.902506 86.846465 
L 545.162328 94.275417 
L 545.422151 92.455256 
L 546.201619 93.246648 
L 546.461441 95.304186 
L 546.721264 103.583854 
L 546.981086 100.517311 
L 547.240909 103.643207 
L 548.020377 98.093747 
L 548.2802 99.033508 
L 548.540022 107.283491 
L 548.799845 109.232227 
L 549.059667 108.460644 
L 549.839135 109.914786 
L 550.098958 117.68994 
L 550.35878 104.543394 
L 550.618603 112.269084 
L 550.878426 114.18815 
L 551.657894 120.934543 
L 551.917716 117.175559 
L 552.177539 122.457913 
L 552.437361 116.463323 
L 552.697184 116.680951 
L 553.476652 112.457035 
L 553.736475 105.413889 
L 553.996297 103.494823 
L 554.25612 98.766409 
L 555.29541 91.703499 
L 555.555233 94.423794 
L 555.815055 93.18728 
L 556.074878 97.895914 
L 556.334701 92.326689 
L 557.114169 95.205273 
L 557.373991 93.38512 
L 557.633814 96.046091 
L 557.893636 103.979535 
L 558.153459 102.218742 
L 559.452572 115.236714 
L 559.712395 114.247504 
L 559.972217 118.580222 
L 561.011508 113.367112 
L 561.27133 104.652189 
L 561.531153 102.436181 
L 561.790976 102.475755 
L 562.570443 104.770911 
L 562.830266 105.94817 
L 563.090089 108.144398 
L 563.349911 103.692581 
L 563.609734 105.542554 
L 564.389202 105.285337 
L 564.908847 98.112975 
L 565.16867 97.588652 
L 565.428492 100.200379 
L 566.20796 100.160812 
L 566.467783 104.553261 
L 566.727605 102.723082 
L 566.987428 98.765911 
L 567.247251 96.718082 
L 568.026718 93.948059 
L 568.286541 88.833431 
L 568.546364 89.07086 
L 568.806186 86.933978 
L 569.066009 86.943868 
L 569.845477 83.708875 
L 570.105299 90.109602 
L 570.365122 86.033738 
L 570.884767 83.778149 
L 571.664235 78.129285 
L 571.924058 78.247992 
L 572.18388 82.234848 
L 572.703525 80.276057 
L 573.482993 81.285114 
L 573.742816 80.562951 
L 574.002639 82.452498 
L 574.262461 88.962028 
L 574.522284 86.350301 
L 575.301752 85.707255 
L 575.561574 81.888601 
L 576.08122 73.014649 
L 576.341042 74.251277 
L 577.12051 76.595889 
L 577.380333 73.598357 
L 577.640155 75.596707 
L 577.899978 75.111973 
L 578.1598 79.840772 
L 578.939268 81.651186 
L 579.199091 74.864638 
L 579.458914 75.972638 
L 579.718736 75.200981 
L 579.978559 79.870456 
L 580.758027 85.73694 
L 581.017849 84.846575 
L 581.277672 86.40967 
L 581.797317 83.530814 
L 582.576785 83.154898 
L 582.836608 81.542339 
L 583.09643 76.714612 
L 583.356253 76.783855 
L 583.616075 79.375968 
L 584.395543 82.96737 
L 584.655366 86.667558 
L 584.915188 82.472686 
L 585.175011 84.421723 
L 585.434834 87.478836 
L 586.214302 89.704907 
L 586.733947 92.76202 
L 586.993769 91.010868 
L 587.253592 87.033631 
L 588.03306 82.116518 
L 588.292882 81.572355 
L 588.812528 81.859279 
L 589.07235 84.748221 
L 589.851818 84.273316 
L 590.111641 87.439262 
L 590.631286 83.462039 
L 590.891109 77.367577 
L 591.670576 72.46037 
L 591.930399 81.651519 
L 592.190222 81.681188 
L 592.709867 85.836487 
L 593.489335 88.487984 
L 593.749157 89.942352 
L 594.00898 85.510004 
L 594.268803 88.151596 
L 594.528625 84.055651 
L 595.567916 80.968853 
L 595.827738 74.795229 
L 596.087561 74.646837 
L 596.347384 79.197907 
L 597.126851 103.1404 
L 597.386674 92.682857 
L 597.646497 97.916584 
L 597.906319 96.976695 
L 598.166142 101.507956 
L 598.94561 104.881669 
L 599.205432 102.912845 
L 599.725078 92.98959 
L 600.764368 88.151596 
L 601.024191 88.913394 
L 601.284013 90.555743 
L 601.803659 82.92778 
L 602.842949 82.383632 
L 603.102772 82.551834 
L 603.362594 81.681188 
L 603.622417 87.30076 
L 604.401885 91.406595 
L 604.661707 95.01776 
L 604.92153 90.417226 
L 605.181353 101.428807 
L 605.441175 96.709566 
L 606.220643 107.45401 
L 606.740288 104.248483 
L 607.000111 110.906872 
L 607.259933 108.809428 
L 608.039401 114.458677 
L 608.299224 112.697613 
L 608.559047 105.78135 
L 608.818869 105.939662 
L 609.078692 99.913908 
L 609.85816 102.031335 
L 610.117982 106.088084 
L 610.377805 104.020135 
L 610.637627 103.020787 
L 610.89745 103.842029 
L 611.676918 100.171162 
L 611.936741 100.883565 
L 612.196563 107.740458 
L 612.716208 111.787317 
L 613.495676 113.063708 
L 613.755499 111.312382 
L 614.015322 111.045231 
L 614.534967 126.985278 
L 615.314435 123.690411 
L 615.574257 125.016265 
L 615.83408 107.176478 
L 616.093902 113.865163 
L 616.353725 110.540611 
L 617.133193 110.758292 
L 617.393016 109.284008 
L 617.652838 116.912673 
L 617.912661 119.881027 
L 618.951951 124.412703 
L 619.211774 122.453595 
L 619.991242 110.461448 
L 620.77071 112.7174 
L 621.030532 112.430461 
L 621.290355 112.529404 
L 621.81 107.008269 
L 622.84929 107.958139 
L 623.109113 104.475276 
L 623.368936 104.168542 
L 623.628758 104.880952 
L 624.408226 98.597936 
L 624.927871 86.388124 
L 625.187694 86.892743 
L 625.447517 86.328755 
L 626.226984 86.160539 
L 626.486807 87.337993 
L 626.74663 89.890774 
L 627.006452 88.871631 
L 627.266275 90.395393 
L 628.305565 86.229812 
L 628.565388 86.912523 
L 628.825211 82.578725 
L 629.085033 86.595899 
L 629.864501 84.369632 
L 630.124324 80.570153 
L 630.384146 79.877538 
L 630.643969 81.787167 
L 630.903792 80.075423 
L 631.683259 79.175017 
L 631.943082 77.859045 
L 632.202905 78.967317 
L 632.462727 76.820062 
L 632.72255 79.818305 
L 633.502018 77.126811 
L 633.76184 77.690844 
L 634.021663 76.345097 
L 634.541308 77.958003 
L 635.320776 77.641365 
L 635.580599 73.950462 
L 635.840421 67.607639 
L 636.100244 66.905074 
L 636.360067 64.20369 
L 637.139534 63.9662 
L 637.399357 68.607049 
L 637.65918 64.69845 
L 637.919002 62.630358 
L 638.958293 63.718821 
L 639.218115 61.977272 
L 639.477938 59.127451 
L 639.997583 57.108838 
L 640.777051 57.949921 
L 641.036874 51.389418 
L 641.296696 50.726442 
L 641.556519 49.11352 
L 641.816341 49.697333 
L 642.595809 50.716537 
L 642.855632 55.020952 
L 643.375277 48.381271 
L 643.6351 48.618761 
L 644.414568 45.402823 
L 644.67439 46.629832 
L 644.934213 42.90923 
L 645.194035 44.294566 
L 645.453858 48.401065 
L 646.233326 42.186885 
L 646.493149 43.908654 
L 647.012794 41.424951 
L 647.272616 39.515186 
L 648.052084 40.148477 
L 648.311907 39.06 
L 648.571729 40.613553 
L 648.831552 40.188051 
L 649.091375 41.741604 
L 649.870843 40.197956 
L 650.130665 46.50119 
L 650.390488 46.73868 
L 650.65031 47.154276 
L 650.910133 44.175813 
L 651.689601 42.374896 
L 651.949424 40.435431 
L 652.209246 40.603648 
L 652.469069 42.018668 
L 652.728891 47.945895 
L 653.768182 51.310254 
L 653.768182 51.310254 
" clip-path="url(#ped480318c8)" style="fill: none; stroke: #1f77b4; stroke-width: 1.5; stroke-linecap: square"/>
   </g>
   <g id="patch_3">
    <path d="M 94.5 224.28 
L 94.5 30.24 
" style="fill: none; stroke: #000000; stroke-width: 0.8; stroke-linejoin: miter; stroke-linecap: square"/>
   </g>
   <g id="patch_4">
    <path d="M 94.5 224.28 
L 680.4 224.28 
" style="fill: none; stroke: #000000; stroke-width: 0.8; stroke-linejoin: miter; stroke-linecap: square"/>
   </g>
  </g>
 </g>
 <defs>
  <clipPath id="ped480318c8">
   <rect x="94.5" y="30.24" width="585.9" height="194.04"/>
  </clipPath>
 </defs>
</svg>
