<?xml version="1.0" encoding="utf-8" standalone="no"?>
<!DOCTYPE svg PUBLIC "-//W3C//DTD SVG 1.1//EN"
  "http://www.w3.org/Graphics/SVG/1.1/DTD/svg11.dtd">
<svg xmlns:xlink="http://www.w3.org/1999/xlink" width="756pt" height="252pt" viewBox="0 0 756 252" xmlns="http://www.w3.org/2000/svg" version="1.1">
 <metadata>
  <rdf:RDF xmlns:dc="http://purl.org/dc/elements/1.1/" xmlns:cc="http://creativecommons.org/ns#" xmlns:rdf="http://www.w3.org/1999/02/22-rdf-syntax-ns#">
   <cc:Work>
    <dc:type rdf:resource="http://purl.org/dc/dcmitype/StillImage"/>
    <dc:date>2025-09-07T00:54:30.052021</dc:date>
    <dc:format>image/svg+xml</dc:format>
    <dc:creator>
     <cc:Agent>
      <dc:title>Matplotlib v3.10.5, https://matplotlib.org/</dc:title>
     </cc:Agent>
    </dc:creator>
   </cc:Work>
  </rdf:RDF>
 </metadata>
 <defs>
  <style type="text/css">*{stroke-linejoin: round; stroke-linecap: butt}</style>
 </defs>
 <g id="figure_1">
  <g id="patch_1">
   <path d="M 0 252 
L 756 252 
L 756 0 
L 0 0 
z
" style="fill: #ffffff"/>
  </g>
  <g id="axes_1">
   <g id="patch_2">
    <path d="M 94.5 224.28 
L 680.4 224.28 
L 680.4 30.24 
L 94.5 30.24 
z
" style="fill: #ffffff"/>
   </g>
   <g id="matplotlib.axis_1">
    <g id="xtick_1">
     <g id="line2d_1">
      <defs>
       <path id="m6823f43b73" d="M 0 0 
L 0 3.5 
" style="stroke: #000000; stroke-width: 0.8"/>
      </defs>
      <g>
       <use xlink:href="#m6823f43b73" x="122.094994" y="224.28" style="stroke: #000000; stroke-width: 0.8"/>
      </g>
     </g>
     <g id="text_1">
      <!-- 2024-03 -->
      <g transform="translate(101.203588 238.878438) scale(0.1 -0.1)">
       <defs>
        <path id="DejaVuSans-32" d="M 1228 531 
L 3431 531 
L 3431 0 
L 469 0 
L 469 531 
Q 828 903 1448 1529 
Q 2069 2156 2228 2338 
Q 2531 2678 2651 2914 
Q 2772 3150 2772 3378 
Q 2772 3750 2511 3984 
Q 2250 4219 1831 4219 
Q 1534 4219 1204 4116 
Q 875 4013 500 3803 
L 500 4441 
Q 881 4594 1212 4672 
Q 1544 4750 1819 4750 
Q 2544 4750 2975 4387 
Q 3406 4025 3406 3419 
Q 3406 3131 3298 2873 
Q 3191 2616 2906 2266 
Q 2828 2175 2409 1742 
Q 1991 1309 1228 531 
z
" transform="scale(0.015625)"/>
        <path id="DejaVuSans-30" d="M 2034 4250 
Q 1547 4250 1301 3770 
Q 1056 3291 1056 2328 
Q 1056 1369 1301 889 
Q 1547 409 2034 409 
Q 2525 409 2770 889 
Q 3016 1369 3016 2328 
Q 3016 3291 2770 3770 
Q 2525 4250 2034 4250 
z
M 2034 4750 
Q 2819 4750 3233 4129 
Q 3647 3509 3647 2328 
Q 3647 1150 3233 529 
Q 2819 -91 2034 -91 
Q 1250 -91 836 529 
Q 422 1150 422 2328 
Q 422 3509 836 4129 
Q 1250 4750 2034 4750 
z
" transform="scale(0.015625)"/>
        <path id="DejaVuSans-34" d="M 2419 4116 
L 825 1625 
L 2419 1625 
L 2419 4116 
z
M 2253 4666 
L 3047 4666 
L 3047 1625 
L 3713 1625 
L 3713 1100 
L 3047 1100 
L 3047 0 
L 2419 0 
L 2419 1100 
L 313 1100 
L 313 1709 
L 2253 4666 
z
" transform="scale(0.015625)"/>
        <path id="DejaVuSans-2d" d="M 313 2009 
L 1997 2009 
L 1997 1497 
L 313 1497 
L 313 2009 
z
" transform="scale(0.015625)"/>
        <path id="DejaVuSans-33" d="M 2597 2516 
Q 3050 2419 3304 2112 
Q 3559 1806 3559 1356 
Q 3559 666 3084 287 
Q 2609 -91 1734 -91 
Q 1441 -91 1130 -33 
Q 819 25 488 141 
L 488 750 
Q 750 597 1062 519 
Q 1375 441 1716 441 
Q 2309 441 2620 675 
Q 2931 909 2931 1356 
Q 2931 1769 2642 2001 
Q 2353 2234 1838 2234 
L 1294 2234 
L 1294 2753 
L 1863 2753 
Q 2328 2753 2575 2939 
Q 2822 3125 2822 3475 
Q 2822 3834 2567 4026 
Q 2313 4219 1838 4219 
Q 1578 4219 1281 4162 
Q 984 4106 628 3988 
L 628 4550 
Q 988 4650 1302 4700 
Q 1616 4750 1894 4750 
Q 2613 4750 3031 4423 
Q 3450 4097 3450 3541 
Q 3450 3153 3228 2886 
Q 3006 2619 2597 2516 
z
" transform="scale(0.015625)"/>
       </defs>
       <use xlink:href="#DejaVuSans-32"/>
       <use xlink:href="#DejaVuSans-30" transform="translate(63.623047 0)"/>
       <use xlink:href="#DejaVuSans-32" transform="translate(127.246094 0)"/>
       <use xlink:href="#DejaVuSans-34" transform="translate(190.869141 0)"/>
       <use xlink:href="#DejaVuSans-2d" transform="translate(254.492188 0)"/>
       <use xlink:href="#DejaVuSans-30" transform="translate(290.576172 0)"/>
       <use xlink:href="#DejaVuSans-33" transform="translate(354.199219 0)"/>
      </g>
     </g>
    </g>
    <g id="xtick_2">
     <g id="line2d_2">
      <g>
       <use xlink:href="#m6823f43b73" x="180.848734" y="224.28" style="stroke: #000000; stroke-width: 0.8"/>
      </g>
     </g>
     <g id="text_2">
      <!-- 2024-05 -->
      <g transform="translate(159.957328 238.878438) scale(0.1 -0.1)">
       <defs>
        <path id="DejaVuSans-35" d="M 691 4666 
L 3169 4666 
L 3169 4134 
L 1269 4134 
L 1269 2991 
Q 1406 3038 1543 3061 
Q 1681 3084 1819 3084 
Q 2600 3084 3056 2656 
Q 3513 2228 3513 1497 
Q 3513 744 3044 326 
Q 2575 -91 1722 -91 
Q 1428 -91 1123 -41 
Q 819 9 494 109 
L 494 744 
Q 775 591 1075 516 
Q 1375 441 1709 441 
Q 2250 441 2565 725 
Q 2881 1009 2881 1497 
Q 2881 1984 2565 2268 
Q 2250 2553 1709 2553 
Q 1456 2553 1204 2497 
Q 953 2441 691 2322 
L 691 4666 
z
" transform="scale(0.015625)"/>
       </defs>
       <use xlink:href="#DejaVuSans-32"/>
       <use xlink:href="#DejaVuSans-30" transform="translate(63.623047 0)"/>
       <use xlink:href="#DejaVuSans-32" transform="translate(127.246094 0)"/>
       <use xlink:href="#DejaVuSans-34" transform="translate(190.869141 0)"/>
       <use xlink:href="#DejaVuSans-2d" transform="translate(254.492188 0)"/>
       <use xlink:href="#DejaVuSans-30" transform="translate(290.576172 0)"/>
       <use xlink:href="#DejaVuSans-35" transform="translate(354.199219 0)"/>
      </g>
     </g>
    </g>
    <g id="xtick_3">
     <g id="line2d_3">
      <g>
       <use xlink:href="#m6823f43b73" x="239.602474" y="224.28" style="stroke: #000000; stroke-width: 0.8"/>
      </g>
     </g>
     <g id="text_3">
      <!-- 2024-07 -->
      <g transform="translate(218.711068 238.878438) scale(0.1 -0.1)">
       <defs>
        <path id="DejaVuSans-37" d="M 525 4666 
L 3525 4666 
L 3525 4397 
L 1831 0 
L 1172 0 
L 2766 4134 
L 525 4134 
L 525 4666 
z
" transform="scale(0.015625)"/>
       </defs>
       <use xlink:href="#DejaVuSans-32"/>
       <use xlink:href="#DejaVuSans-30" transform="translate(63.623047 0)"/>
       <use xlink:href="#DejaVuSans-32" transform="translate(127.246094 0)"/>
       <use xlink:href="#DejaVuSans-34" transform="translate(190.869141 0)"/>
       <use xlink:href="#DejaVuSans-2d" transform="translate(254.492188 0)"/>
       <use xlink:href="#DejaVuSans-30" transform="translate(290.576172 0)"/>
       <use xlink:href="#DejaVuSans-37" transform="translate(354.199219 0)"/>
      </g>
     </g>
    </g>
    <g id="xtick_4">
     <g id="line2d_4">
      <g>
       <use xlink:href="#m6823f43b73" x="299.31939" y="224.28" style="stroke: #000000; stroke-width: 0.8"/>
      </g>
     </g>
     <g id="text_4">
      <!-- 2024-09 -->
      <g transform="translate(278.427984 238.878438) scale(0.1 -0.1)">
       <defs>
        <path id="DejaVuSans-39" d="M 703 97 
L 703 672 
Q 941 559 1184 500 
Q 1428 441 1663 441 
Q 2288 441 2617 861 
Q 2947 1281 2994 2138 
Q 2813 1869 2534 1725 
Q 2256 1581 1919 1581 
Q 1219 1581 811 2004 
Q 403 2428 403 3163 
Q 403 3881 828 4315 
Q 1253 4750 1959 4750 
Q 2769 4750 3195 4129 
Q 3622 3509 3622 2328 
Q 3622 1225 3098 567 
Q 2575 -91 1691 -91 
Q 1453 -91 1209 -44 
Q 966 3 703 97 
z
M 1959 2075 
Q 2384 2075 2632 2365 
Q 2881 2656 2881 3163 
Q 2881 3666 2632 3958 
Q 2384 4250 1959 4250 
Q 1534 4250 1286 3958 
Q 1038 3666 1038 3163 
Q 1038 2656 1286 2365 
Q 1534 2075 1959 2075 
z
" transform="scale(0.015625)"/>
       </defs>
       <use xlink:href="#DejaVuSans-32"/>
       <use xlink:href="#DejaVuSans-30" transform="translate(63.623047 0)"/>
       <use xlink:href="#DejaVuSans-32" transform="translate(127.246094 0)"/>
       <use xlink:href="#DejaVuSans-34" transform="translate(190.869141 0)"/>
       <use xlink:href="#DejaVuSans-2d" transform="translate(254.492188 0)"/>
       <use xlink:href="#DejaVuSans-30" transform="translate(290.576172 0)"/>
       <use xlink:href="#DejaVuSans-39" transform="translate(354.199219 0)"/>
      </g>
     </g>
    </g>
    <g id="xtick_5">
     <g id="line2d_5">
      <g>
       <use xlink:href="#m6823f43b73" x="358.07313" y="224.28" style="stroke: #000000; stroke-width: 0.8"/>
      </g>
     </g>
     <g id="text_5">
      <!-- 2024-11 -->
      <g transform="translate(337.181724 238.878438) scale(0.1 -0.1)">
       <defs>
        <path id="DejaVuSans-31" d="M 794 531 
L 1825 531 
L 1825 4091 
L 703 3866 
L 703 4441 
L 1819 4666 
L 2450 4666 
L 2450 531 
L 3481 531 
L 3481 0 
L 794 0 
L 794 531 
z
" transform="scale(0.015625)"/>
       </defs>
       <use xlink:href="#DejaVuSans-32"/>
       <use xlink:href="#DejaVuSans-30" transform="translate(63.623047 0)"/>
       <use xlink:href="#DejaVuSans-32" transform="translate(127.246094 0)"/>
       <use xlink:href="#DejaVuSans-34" transform="translate(190.869141 0)"/>
       <use xlink:href="#DejaVuSans-2d" transform="translate(254.492188 0)"/>
       <use xlink:href="#DejaVuSans-31" transform="translate(290.576172 0)"/>
       <use xlink:href="#DejaVuSans-31" transform="translate(354.199219 0)"/>
      </g>
     </g>
    </g>
    <g id="xtick_6">
     <g id="line2d_6">
      <g>
       <use xlink:href="#m6823f43b73" x="416.82687" y="224.28" style="stroke: #000000; stroke-width: 0.8"/>
      </g>
     </g>
     <g id="text_6">
      <!-- 2025-01 -->
      <g transform="translate(395.935464 238.878438) scale(0.1 -0.1)">
       <use xlink:href="#DejaVuSans-32"/>
       <use xlink:href="#DejaVuSans-30" transform="translate(63.623047 0)"/>
       <use xlink:href="#DejaVuSans-32" transform="translate(127.246094 0)"/>
       <use xlink:href="#DejaVuSans-35" transform="translate(190.869141 0)"/>
       <use xlink:href="#DejaVuSans-2d" transform="translate(254.492188 0)"/>
       <use xlink:href="#DejaVuSans-30" transform="translate(290.576172 0)"/>
       <use xlink:href="#DejaVuSans-31" transform="translate(354.199219 0)"/>
      </g>
     </g>
    </g>
    <g id="xtick_7">
     <g id="line2d_7">
      <g>
       <use xlink:href="#m6823f43b73" x="473.654258" y="224.28" style="stroke: #000000; stroke-width: 0.8"/>
      </g>
     </g>
     <g id="text_7">
      <!-- 2025-03 -->
      <g transform="translate(452.762852 238.878438) scale(0.1 -0.1)">
       <use xlink:href="#DejaVuSans-32"/>
       <use xlink:href="#DejaVuSans-30" transform="translate(63.623047 0)"/>
       <use xlink:href="#DejaVuSans-32" transform="translate(127.246094 0)"/>
       <use xlink:href="#DejaVuSans-35" transform="translate(190.869141 0)"/>
       <use xlink:href="#DejaVuSans-2d" transform="translate(254.492188 0)"/>
       <use xlink:href="#DejaVuSans-30" transform="translate(290.576172 0)"/>
       <use xlink:href="#DejaVuSans-33" transform="translate(354.199219 0)"/>
      </g>
     </g>
    </g>
    <g id="xtick_8">
     <g id="line2d_8">
      <g>
       <use xlink:href="#m6823f43b73" x="532.407998" y="224.28" style="stroke: #000000; stroke-width: 0.8"/>
      </g>
     </g>
     <g id="text_8">
      <!-- 2025-05 -->
      <g transform="translate(511.516591 238.878438) scale(0.1 -0.1)">
       <use xlink:href="#DejaVuSans-32"/>
       <use xlink:href="#DejaVuSans-30" transform="translate(63.623047 0)"/>
       <use xlink:href="#DejaVuSans-32" transform="translate(127.246094 0)"/>
       <use xlink:href="#DejaVuSans-35" transform="translate(190.869141 0)"/>
       <use xlink:href="#DejaVuSans-2d" transform="translate(254.492188 0)"/>
       <use xlink:href="#DejaVuSans-30" transform="translate(290.576172 0)"/>
       <use xlink:href="#DejaVuSans-35" transform="translate(354.199219 0)"/>
      </g>
     </g>
    </g>
    <g id="xtick_9">
     <g id="line2d_9">
      <g>
       <use xlink:href="#m6823f43b73" x="591.161738" y="224.28" style="stroke: #000000; stroke-width: 0.8"/>
      </g>
     </g>
     <g id="text_9">
      <!-- 2025-07 -->
      <g transform="translate(570.270331 238.878438) scale(0.1 -0.1)">
       <use xlink:href="#DejaVuSans-32"/>
       <use xlink:href="#DejaVuSans-30" transform="translate(63.623047 0)"/>
       <use xlink:href="#DejaVuSans-32" transform="translate(127.246094 0)"/>
       <use xlink:href="#DejaVuSans-35" transform="translate(190.869141 0)"/>
       <use xlink:href="#DejaVuSans-2d" transform="translate(254.492188 0)"/>
       <use xlink:href="#DejaVuSans-30" transform="translate(290.576172 0)"/>
       <use xlink:href="#DejaVuSans-37" transform="translate(354.199219 0)"/>
      </g>
     </g>
    </g>
    <g id="xtick_10">
     <g id="line2d_10">
      <g>
       <use xlink:href="#m6823f43b73" x="650.878654" y="224.28" style="stroke: #000000; stroke-width: 0.8"/>
      </g>
     </g>
     <g id="text_10">
      <!-- 2025-09 -->
      <g transform="translate(629.987247 238.878438) scale(0.1 -0.1)">
       <use xlink:href="#DejaVuSans-32"/>
       <use xlink:href="#DejaVuSans-30" transform="translate(63.623047 0)"/>
       <use xlink:href="#DejaVuSans-32" transform="translate(127.246094 0)"/>
       <use xlink:href="#DejaVuSans-35" transform="translate(190.869141 0)"/>
       <use xlink:href="#DejaVuSans-2d" transform="translate(254.492188 0)"/>
       <use xlink:href="#DejaVuSans-30" transform="translate(290.576172 0)"/>
       <use xlink:href="#DejaVuSans-39" transform="translate(354.199219 0)"/>
      </g>
     </g>
    </g>
   </g>
   <g id="matplotlib.axis_2">
    <g id="ytick_1">
     <g id="line2d_11">
      <defs>
       <path id="m8b87cb3b94" d="M 0 0 
L -3.5 0 
" style="stroke: #000000; stroke-width: 0.8"/>
      </defs>
      <g>
       <use xlink:href="#m8b87cb3b94" x="94.5" y="209.144779" style="stroke: #000000; stroke-width: 0.8"/>
      </g>
     </g>
     <g id="text_11">
      <!-- 80 -->
      <g transform="translate(74.775 212.943998) scale(0.1 -0.1)">
       <defs>
        <path id="DejaVuSans-38" d="M 2034 2216 
Q 1584 2216 1326 1975 
Q 1069 1734 1069 1313 
Q 1069 891 1326 650 
Q 1584 409 2034 409 
Q 2484 409 2743 651 
Q 3003 894 3003 1313 
Q 3003 1734 2745 1975 
Q 2488 2216 2034 2216 
z
M 1403 2484 
Q 997 2584 770 2862 
Q 544 3141 544 3541 
Q 544 4100 942 4425 
Q 1341 4750 2034 4750 
Q 2731 4750 3128 4425 
Q 3525 4100 3525 3541 
Q 3525 3141 3298 2862 
Q 3072 2584 2669 2484 
Q 3125 2378 3379 2068 
Q 3634 1759 3634 1313 
Q 3634 634 3220 271 
Q 2806 -91 2034 -91 
Q 1263 -91 848 271 
Q 434 634 434 1313 
Q 434 1759 690 2068 
Q 947 2378 1403 2484 
z
M 1172 3481 
Q 1172 3119 1398 2916 
Q 1625 2713 2034 2713 
Q 2441 2713 2670 2916 
Q 2900 3119 2900 3481 
Q 2900 3844 2670 4047 
Q 2441 4250 2034 4250 
Q 1625 4250 1398 4047 
Q 1172 3844 1172 3481 
z
" transform="scale(0.015625)"/>
       </defs>
       <use xlink:href="#DejaVuSans-38"/>
       <use xlink:href="#DejaVuSans-30" transform="translate(63.623047 0)"/>
      </g>
     </g>
    </g>
    <g id="ytick_2">
     <g id="line2d_12">
      <g>
       <use xlink:href="#m8b87cb3b94" x="94.5" y="176.169833" style="stroke: #000000; stroke-width: 0.8"/>
      </g>
     </g>
     <g id="text_12">
      <!-- 100 -->
      <g transform="translate(68.4125 179.969051) scale(0.1 -0.1)">
       <use xlink:href="#DejaVuSans-31"/>
       <use xlink:href="#DejaVuSans-30" transform="translate(63.623047 0)"/>
       <use xlink:href="#DejaVuSans-30" transform="translate(127.246094 0)"/>
      </g>
     </g>
    </g>
    <g id="ytick_3">
     <g id="line2d_13">
      <g>
       <use xlink:href="#m8b87cb3b94" x="94.5" y="143.194886" style="stroke: #000000; stroke-width: 0.8"/>
      </g>
     </g>
     <g id="text_13">
      <!-- 120 -->
      <g transform="translate(68.4125 146.994105) scale(0.1 -0.1)">
       <use xlink:href="#DejaVuSans-31"/>
       <use xlink:href="#DejaVuSans-32" transform="translate(63.623047 0)"/>
       <use xlink:href="#DejaVuSans-30" transform="translate(127.246094 0)"/>
      </g>
     </g>
    </g>
    <g id="ytick_4">
     <g id="line2d_14">
      <g>
       <use xlink:href="#m8b87cb3b94" x="94.5" y="110.21994" style="stroke: #000000; stroke-width: 0.8"/>
      </g>
     </g>
     <g id="text_14">
      <!-- 140 -->
      <g transform="translate(68.4125 114.019159) scale(0.1 -0.1)">
       <use xlink:href="#DejaVuSans-31"/>
       <use xlink:href="#DejaVuSans-34" transform="translate(63.623047 0)"/>
       <use xlink:href="#DejaVuSans-30" transform="translate(127.246094 0)"/>
      </g>
     </g>
    </g>
    <g id="ytick_5">
     <g id="line2d_15">
      <g>
       <use xlink:href="#m8b87cb3b94" x="94.5" y="77.244994" style="stroke: #000000; stroke-width: 0.8"/>
      </g>
     </g>
     <g id="text_15">
      <!-- 160 -->
      <g transform="translate(68.4125 81.044213) scale(0.1 -0.1)">
       <defs>
        <path id="DejaVuSans-36" d="M 2113 2584 
Q 1688 2584 1439 2293 
Q 1191 2003 1191 1497 
Q 1191 994 1439 701 
Q 1688 409 2113 409 
Q 2538 409 2786 701 
Q 3034 994 3034 1497 
Q 3034 2003 2786 2293 
Q 2538 2584 2113 2584 
z
M 3366 4563 
L 3366 3988 
Q 3128 4100 2886 4159 
Q 2644 4219 2406 4219 
Q 1781 4219 1451 3797 
Q 1122 3375 1075 2522 
Q 1259 2794 1537 2939 
Q 1816 3084 2150 3084 
Q 2853 3084 3261 2657 
Q 3669 2231 3669 1497 
Q 3669 778 3244 343 
Q 2819 -91 2113 -91 
Q 1303 -91 875 529 
Q 447 1150 447 2328 
Q 447 3434 972 4092 
Q 1497 4750 2381 4750 
Q 2619 4750 2861 4703 
Q 3103 4656 3366 4563 
z
" transform="scale(0.015625)"/>
       </defs>
       <use xlink:href="#DejaVuSans-31"/>
       <use xlink:href="#DejaVuSans-36" transform="translate(63.623047 0)"/>
       <use xlink:href="#DejaVuSans-30" transform="translate(127.246094 0)"/>
      </g>
     </g>
    </g>
    <g id="ytick_6">
     <g id="line2d_16">
      <g>
       <use xlink:href="#m8b87cb3b94" x="94.5" y="44.270048" style="stroke: #000000; stroke-width: 0.8"/>
      </g>
     </g>
     <g id="text_16">
      <!-- 180 -->
      <g transform="translate(68.4125 48.069266) scale(0.1 -0.1)">
       <use xlink:href="#DejaVuSans-31"/>
       <use xlink:href="#DejaVuSans-38" transform="translate(63.623047 0)"/>
       <use xlink:href="#DejaVuSans-30" transform="translate(127.246094 0)"/>
      </g>
     </g>
    </g>
   </g>
   <g id="line2d_17">
    <path d="M 121.131818 210.666882 
L 122.094994 205.447639 
L 124.984522 200.572807 
L 125.947699 199.368047 
L 126.910875 194.858873 
L 127.874051 188.317608 
L 128.837227 196.79042 
L 131.726755 199.681187 
L 132.689931 189.56354 
L 133.653107 191.252842 
L 134.616283 196.10483 
L 135.579459 196.281186 
L 138.468987 195.262657 
L 140.395339 192.103254 
L 141.358516 190.351346 
L 142.321692 185.647677 
L 145.21122 184.472602 
L 147.137572 192.304341 
L 148.100748 192.129632 
L 151.953452 192.118097 
L 152.916628 193.619507 
L 153.879804 194.423767 
L 154.84298 199.465294 
L 155.806157 195.999355 
L 158.695685 197.44143 
L 159.658861 200.373406 
L 160.622037 197.596353 
L 161.585213 191.701117 
L 162.548389 195.705989 
L 165.437917 199.307064 
L 166.401093 196.976664 
L 167.364269 202.547224 
L 168.327445 201.49902 
L 169.290621 215.46 
L 172.18015 209.991644 
L 173.143326 205.203934 
L 174.106502 209.729587 
L 175.069678 204.859485 
L 176.032854 196.449266 
L 178.922382 196.413014 
L 179.885558 198.646179 
L 180.848734 204.18543 
L 182.775086 194.71219 
L 185.664614 189.189429 
L 186.627791 191.803309 
L 187.590967 192.03734 
L 188.554143 194.781399 
L 189.517319 192.917438 
L 192.406847 192.058749 
L 193.370023 190.481526 
L 194.333199 185.085687 
L 195.296375 185.532328 
L 196.259551 188.630748 
L 199.149079 184.838473 
L 200.112255 183.83973 
L 201.075432 184.55829 
L 202.038608 169.974326 
L 203.001784 165.573934 
L 206.854488 153.325314 
L 207.817664 151.802494 
L 208.78084 158.930478 
L 209.744016 160.359371 
L 212.633544 151.514059 
L 213.59672 149.145746 
L 214.559896 139.252281 
L 215.523072 141.628833 
L 216.486249 141.810108 
L 219.375777 140.323529 
L 220.338953 141.757478 
L 222.265305 127.417922 
L 223.228481 123.676416 
L 226.118009 125.159826 
L 227.081185 117.577993 
L 229.007537 125.489495 
L 229.970713 132.428531 
L 232.860242 146.372529 
L 233.823418 133.219683 
L 234.786594 132.708702 
L 235.74977 136.680943 
L 236.712946 137.422648 
L 239.602474 136.169987 
L 240.56565 138.85661 
L 241.528826 129.610055 
L 243.455178 133.64821 
L 246.344707 129.741933 
L 248.271059 118.682299 
L 249.234235 131.060483 
L 250.197411 128.02775 
L 253.086939 129.346325 
L 254.050115 132.774653 
L 255.013291 146.57032 
L 255.976467 141.460816 
L 256.939643 146.669191 
L 259.829171 137.422648 
L 260.792348 138.988462 
L 261.755524 152.734682 
L 262.7187 155.981685 
L 263.681876 154.696079 
L 266.571404 157.11896 
L 267.53458 170.074014 
L 268.497756 148.169091 
L 269.460932 161.041728 
L 270.424108 164.239308 
L 273.313636 175.480205 
L 274.276812 169.216947 
L 275.239988 178.018459 
L 276.203165 168.030212 
L 277.166341 168.392825 
L 280.055869 161.354906 
L 281.019045 149.619532 
L 281.982221 146.421952 
L 282.945397 138.543432 
L 283.908573 135.708503 
L 286.798101 126.775088 
L 287.761277 131.307734 
L 288.724453 129.247429 
L 289.687629 137.092992 
L 290.650806 127.813505 
L 293.540334 132.609831 
L 294.50351 129.577073 
L 295.466686 134.010811 
L 296.429862 147.229595 
L 297.393038 144.295745 
L 301.245742 163.036095 
L 302.208918 165.98641 
L 303.172094 164.338191 
L 304.13527 171.557423 
L 307.024799 165.557871 
L 307.987975 162.871273 
L 308.951151 148.350392 
L 309.914327 144.658044 
L 310.877503 144.723995 
L 313.767031 148.548208 
L 314.730207 150.509756 
L 315.693383 154.169134 
L 316.656559 146.751482 
L 317.619735 149.833927 
L 320.509264 149.405337 
L 321.47244 141.806372 
L 322.435616 137.454674 
L 323.398792 136.581041 
L 324.361968 140.932727 
L 327.251496 140.866801 
L 328.214672 148.185557 
L 329.177848 145.136082 
L 330.141024 138.542602 
L 331.1042 135.130488 
L 333.993728 130.515047 
L 334.956904 121.993001 
L 335.920081 122.388609 
L 336.883257 118.828114 
L 337.846433 118.844592 
L 340.735961 113.454414 
L 341.699137 124.119371 
L 342.662313 117.328125 
L 344.588665 113.569839 
L 347.478193 104.157644 
L 348.441369 104.355435 
L 349.404545 110.998375 
L 350.367722 109.597257 
L 351.330898 107.734618 
L 354.220426 109.415944 
L 355.183602 108.212643 
L 356.146778 111.361026 
L 357.109954 122.207271 
L 358.07313 117.855585 
L 360.962658 116.784136 
L 361.925834 110.421455 
L 362.88901 101.025789 
L 363.852186 95.635561 
L 364.815362 97.696067 
L 367.704891 101.602684 
L 368.668067 96.608164 
L 369.631243 99.937861 
L 370.594419 99.130167 
L 371.557595 107.009341 
L 374.447123 110.025872 
L 375.410299 98.718056 
L 376.373475 100.564217 
L 377.336651 99.278473 
L 378.299827 107.058801 
L 381.189356 116.833597 
L 382.152532 115.350061 
L 383.115708 117.954506 
L 385.04206 113.157727 
L 387.931588 112.531371 
L 388.894764 109.844509 
L 389.85794 101.800476 
L 390.821116 101.915875 
L 391.784292 106.234906 
L 394.67382 112.21891 
L 395.636997 118.384203 
L 396.600173 111.394663 
L 397.563349 114.642168 
L 398.526525 119.735961 
L 401.416053 123.445064 
L 403.342405 128.538857 
L 404.305581 125.621071 
L 405.268757 118.994156 
L 408.158285 110.801213 
L 409.121461 109.894523 
L 411.047814 110.372598 
L 412.01099 115.186157 
L 414.900518 114.394892 
L 415.863694 119.670023 
L 417.790046 113.043133 
L 418.753222 102.888479 
L 421.64275 94.71204 
L 422.605926 110.026426 
L 423.569102 110.075861 
L 425.495455 116.999463 
L 428.384983 121.417414 
L 429.348159 123.840697 
L 430.311335 116.455474 
L 431.274511 120.856921 
L 432.237687 114.032215 
L 436.090391 108.888962 
L 437.053567 98.602405 
L 438.016743 98.355153 
L 438.979919 105.938193 
L 441.869448 145.831433 
L 442.832624 128.406954 
L 443.7958 137.127446 
L 444.758976 135.56138 
L 445.722152 143.111425 
L 448.61168 148.732741 
L 449.574856 145.452266 
L 450.538032 135.264655 
L 451.501208 128.918037 
L 452.464384 127.005786 
L 455.353913 120.856921 
L 456.317089 122.126237 
L 457.280265 124.862736 
L 458.243441 118.021552 
L 459.206617 112.152946 
L 463.059321 111.246281 
L 464.022497 111.52654 
L 464.985673 110.075861 
L 465.948849 119.439249 
L 468.838377 126.280434 
L 469.801554 132.297383 
L 470.76473 124.631938 
L 471.727906 142.979535 
L 472.691082 135.116299 
L 475.58061 153.018803 
L 476.543786 149.837235 
L 477.506962 147.67772 
L 478.470138 158.771996 
L 479.433314 155.277213 
L 482.322842 164.69005 
L 483.286018 161.755747 
L 484.249194 150.231799 
L 485.212371 150.49558 
L 486.175547 140.455406 
L 489.065075 143.983486 
L 490.028251 150.742882 
L 490.991427 147.297245 
L 491.954603 145.63212 
L 492.917779 147.000482 
L 495.807307 140.884046 
L 496.770483 142.071058 
L 497.733659 153.496085 
L 498.696835 157.337405 
L 499.660012 160.239003 
L 502.54954 162.365738 
L 503.512716 159.447662 
L 504.475892 159.002531 
L 505.439068 173.213743 
L 506.402244 185.562002 
L 509.291772 180.07206 
L 510.254948 182.281212 
L 511.218124 152.556375 
L 512.1813 163.701131 
L 513.144476 158.161729 
L 516.034005 158.52443 
L 516.997181 156.067964 
L 517.960357 168.778923 
L 518.923533 173.724826 
L 522.776237 181.275551 
L 523.739413 178.011264 
L 525.665765 165.580576 
L 526.628941 158.029826 
L 529.51847 161.788716 
L 530.481646 161.310616 
L 531.444822 161.475475 
L 533.371174 152.276104 
L 537.223878 153.858787 
L 538.187054 148.055604 
L 539.15023 147.544522 
L 540.113406 148.731546 
L 543.002934 138.26272 
L 543.96611 126.837706 
L 544.929287 117.918606 
L 545.892463 118.759408 
L 546.855639 117.819685 
L 549.745167 117.539401 
L 550.708343 119.501289 
L 551.671519 123.754758 
L 552.634695 122.056651 
L 553.597871 124.59556 
L 557.450575 117.654825 
L 558.413751 118.792365 
L 559.376928 111.571346 
L 560.340104 118.264804 
L 563.229632 114.555374 
L 564.192808 108.224643 
L 565.155984 107.0706 
L 566.11916 110.252444 
L 567.082336 107.40032 
L 569.971864 105.900054 
L 570.93504 103.707368 
L 571.898216 105.553982 
L 572.861392 101.976204 
L 573.824568 106.971906 
L 576.714097 102.487311 
L 577.677273 103.427109 
L 578.640449 101.184812 
L 580.566801 103.872253 
L 583.456329 103.344667 
L 584.419505 97.194846 
L 585.382681 86.62637 
L 586.345857 85.455748 
L 587.309033 80.954675 
L 590.198562 80.558967 
L 591.161738 88.291596 
L 592.124914 81.779049 
L 593.08809 78.333173 
L 596.940794 80.14678 
L 597.90397 77.244994 
L 598.867146 72.496594 
L 599.830322 70.48512 
L 600.793498 69.13316 
L 603.683026 70.53458 
L 604.646203 59.603403 
L 605.609379 58.498745 
L 606.572555 55.811279 
L 607.535731 56.784034 
L 610.425259 58.482241 
L 611.388435 65.654302 
L 612.351611 59.4715 
L 613.314787 54.591197 
L 614.277963 54.986905 
L 617.167491 49.628476 
L 618.130667 51.672932 
L 619.093843 45.473626 
L 620.05702 47.781887 
L 621.020196 54.624179 
L 623.909724 44.270048 
L 624.8729 47.138877 
L 625.836076 45.226324 
L 626.799252 43.000505 
L 627.762428 39.818435 
L 630.651956 40.873632 
L 631.615132 39.06 
L 632.578308 41.648545 
L 633.541484 40.939571 
L 634.504661 43.528116 
L 637.394189 40.956075 
L 638.357365 51.458587 
L 639.320541 51.854295 
L 640.283717 52.546766 
L 641.246893 47.584021 
L 644.136421 44.583314 
L 645.099597 41.351758 
L 646.062773 41.632042 
L 647.025949 43.989764 
L 647.989125 53.865769 
L 651.84183 59.4715 
L 652.805006 59.735305 
L 653.768182 58.020594 
L 653.768182 58.020594 
" clip-path="url(#p54510aba54)" style="fill: none; stroke: #1f77b4; stroke-width: 1.5; stroke-linecap: square"/>
   </g>
   <g id="patch_3">
    <path d="M 94.5 224.28 
L 94.5 30.24 
" style="fill: none; stroke: #000000; stroke-width: 0.8; stroke-linejoin: miter; stroke-linecap: square"/>
   </g>
   <g id="patch_4">
    <path d="M 94.5 224.28 
L 680.4 224.28 
" style="fill: none; stroke: #000000; stroke-width: 0.8; stroke-linejoin: miter; stroke-linecap: square"/>
   </g>
  </g>
 </g>
 <defs>
  <clipPath id="p54510aba54">
   <rect x="94.5" y="30.24" width="585.9" height="194.04"/>
  </clipPath>
 </defs>
</svg>
