<?xml version="1.0" encoding="utf-8" standalone="no"?>
<!DOCTYPE svg PUBLIC "-//W3C//DTD SVG 1.1//EN"
  "http://www.w3.org/Graphics/SVG/1.1/DTD/svg11.dtd">
<svg xmlns:xlink="http://www.w3.org/1999/xlink" width="1166.4pt" height="252pt" viewBox="0 0 1166.4 252" xmlns="http://www.w3.org/2000/svg" version="1.1">
 <metadata>
  <rdf:RDF xmlns:dc="http://purl.org/dc/elements/1.1/" xmlns:cc="http://creativecommons.org/ns#" xmlns:rdf="http://www.w3.org/1999/02/22-rdf-syntax-ns#">
   <cc:Work>
    <dc:type rdf:resource="http://purl.org/dc/dcmitype/StillImage"/>
    <dc:date>2025-09-06T14:16:14.506480</dc:date>
    <dc:format>image/svg+xml</dc:format>
    <dc:creator>
     <cc:Agent>
      <dc:title>Matplotlib v3.10.5, https://matplotlib.org/</dc:title>
     </cc:Agent>
    </dc:creator>
   </cc:Work>
  </rdf:RDF>
 </metadata>
 <defs>
  <style type="text/css">*{stroke-linejoin: round; stroke-linecap: butt}</style>
 </defs>
 <g id="figure_1">
  <g id="patch_1">
   <path d="M 0 252 
L 1166.4 252 
L 1166.4 0 
L 0 0 
z
" style="fill: #ffffff"/>
  </g>
  <g id="axes_1">
   <g id="patch_2">
    <path d="M 145.8 224.28 
L 1049.76 224.28 
L 1049.76 30.24 
L 145.8 30.24 
z
" style="fill: #ffffff"/>
   </g>
   <g id="matplotlib.axis_1">
    <g id="xtick_1">
     <g id="line2d_1">
      <defs>
       <path id="m811470f49a" d="M 0 0 
L 0 3.5 
" style="stroke: #000000; stroke-width: 0.8"/>
      </defs>
      <g>
       <use xlink:href="#m811470f49a" x="178.474943" y="224.28" style="stroke: #000000; stroke-width: 0.8"/>
      </g>
     </g>
     <g id="text_1">
      <!-- 2020 -->
      <g transform="translate(165.749943 238.878438) scale(0.1 -0.1)">
       <defs>
        <path id="DejaVuSans-32" d="M 1228 531 
L 3431 531 
L 3431 0 
L 469 0 
L 469 531 
Q 828 903 1448 1529 
Q 2069 2156 2228 2338 
Q 2531 2678 2651 2914 
Q 2772 3150 2772 3378 
Q 2772 3750 2511 3984 
Q 2250 4219 1831 4219 
Q 1534 4219 1204 4116 
Q 875 4013 500 3803 
L 500 4441 
Q 881 4594 1212 4672 
Q 1544 4750 1819 4750 
Q 2544 4750 2975 4387 
Q 3406 4025 3406 3419 
Q 3406 3131 3298 2873 
Q 3191 2616 2906 2266 
Q 2828 2175 2409 1742 
Q 1991 1309 1228 531 
z
" transform="scale(0.015625)"/>
        <path id="DejaVuSans-30" d="M 2034 4250 
Q 1547 4250 1301 3770 
Q 1056 3291 1056 2328 
Q 1056 1369 1301 889 
Q 1547 409 2034 409 
Q 2525 409 2770 889 
Q 3016 1369 3016 2328 
Q 3016 3291 2770 3770 
Q 2525 4250 2034 4250 
z
M 2034 4750 
Q 2819 4750 3233 4129 
Q 3647 3509 3647 2328 
Q 3647 1150 3233 529 
Q 2819 -91 2034 -91 
Q 1250 -91 836 529 
Q 422 1150 422 2328 
Q 422 3509 836 4129 
Q 1250 4750 2034 4750 
z
" transform="scale(0.015625)"/>
       </defs>
       <use xlink:href="#DejaVuSans-32"/>
       <use xlink:href="#DejaVuSans-30" transform="translate(63.623047 0)"/>
       <use xlink:href="#DejaVuSans-32" transform="translate(127.246094 0)"/>
       <use xlink:href="#DejaVuSans-30" transform="translate(190.869141 0)"/>
      </g>
     </g>
    </g>
    <g id="xtick_2">
     <g id="line2d_2">
      <g>
       <use xlink:href="#m811470f49a" x="325.121527" y="224.28" style="stroke: #000000; stroke-width: 0.8"/>
      </g>
     </g>
     <g id="text_2">
      <!-- 2021 -->
      <g transform="translate(312.396527 238.878438) scale(0.1 -0.1)">
       <defs>
        <path id="DejaVuSans-31" d="M 794 531 
L 1825 531 
L 1825 4091 
L 703 3866 
L 703 4441 
L 1819 4666 
L 2450 4666 
L 2450 531 
L 3481 531 
L 3481 0 
L 794 0 
L 794 531 
z
" transform="scale(0.015625)"/>
       </defs>
       <use xlink:href="#DejaVuSans-32"/>
       <use xlink:href="#DejaVuSans-30" transform="translate(63.623047 0)"/>
       <use xlink:href="#DejaVuSans-32" transform="translate(127.246094 0)"/>
       <use xlink:href="#DejaVuSans-31" transform="translate(190.869141 0)"/>
      </g>
     </g>
    </g>
    <g id="xtick_3">
     <g id="line2d_3">
      <g>
       <use xlink:href="#m811470f49a" x="471.367439" y="224.28" style="stroke: #000000; stroke-width: 0.8"/>
      </g>
     </g>
     <g id="text_3">
      <!-- 2022 -->
      <g transform="translate(458.642439 238.878438) scale(0.1 -0.1)">
       <use xlink:href="#DejaVuSans-32"/>
       <use xlink:href="#DejaVuSans-30" transform="translate(63.623047 0)"/>
       <use xlink:href="#DejaVuSans-32" transform="translate(127.246094 0)"/>
       <use xlink:href="#DejaVuSans-32" transform="translate(190.869141 0)"/>
      </g>
     </g>
    </g>
    <g id="xtick_4">
     <g id="line2d_4">
      <g>
       <use xlink:href="#m811470f49a" x="617.61335" y="224.28" style="stroke: #000000; stroke-width: 0.8"/>
      </g>
     </g>
     <g id="text_4">
      <!-- 2023 -->
      <g transform="translate(604.88835 238.878438) scale(0.1 -0.1)">
       <defs>
        <path id="DejaVuSans-33" d="M 2597 2516 
Q 3050 2419 3304 2112 
Q 3559 1806 3559 1356 
Q 3559 666 3084 287 
Q 2609 -91 1734 -91 
Q 1441 -91 1130 -33 
Q 819 25 488 141 
L 488 750 
Q 750 597 1062 519 
Q 1375 441 1716 441 
Q 2309 441 2620 675 
Q 2931 909 2931 1356 
Q 2931 1769 2642 2001 
Q 2353 2234 1838 2234 
L 1294 2234 
L 1294 2753 
L 1863 2753 
Q 2328 2753 2575 2939 
Q 2822 3125 2822 3475 
Q 2822 3834 2567 4026 
Q 2313 4219 1838 4219 
Q 1578 4219 1281 4162 
Q 984 4106 628 3988 
L 628 4550 
Q 988 4650 1302 4700 
Q 1616 4750 1894 4750 
Q 2613 4750 3031 4423 
Q 3450 4097 3450 3541 
Q 3450 3153 3228 2886 
Q 3006 2619 2597 2516 
z
" transform="scale(0.015625)"/>
       </defs>
       <use xlink:href="#DejaVuSans-32"/>
       <use xlink:href="#DejaVuSans-30" transform="translate(63.623047 0)"/>
       <use xlink:href="#DejaVuSans-32" transform="translate(127.246094 0)"/>
       <use xlink:href="#DejaVuSans-33" transform="translate(190.869141 0)"/>
      </g>
     </g>
    </g>
    <g id="xtick_5">
     <g id="line2d_5">
      <g>
       <use xlink:href="#m811470f49a" x="763.859261" y="224.28" style="stroke: #000000; stroke-width: 0.8"/>
      </g>
     </g>
     <g id="text_5">
      <!-- 2024 -->
      <g transform="translate(751.134261 238.878438) scale(0.1 -0.1)">
       <defs>
        <path id="DejaVuSans-34" d="M 2419 4116 
L 825 1625 
L 2419 1625 
L 2419 4116 
z
M 2253 4666 
L 3047 4666 
L 3047 1625 
L 3713 1625 
L 3713 1100 
L 3047 1100 
L 3047 0 
L 2419 0 
L 2419 1100 
L 313 1100 
L 313 1709 
L 2253 4666 
z
" transform="scale(0.015625)"/>
       </defs>
       <use xlink:href="#DejaVuSans-32"/>
       <use xlink:href="#DejaVuSans-30" transform="translate(63.623047 0)"/>
       <use xlink:href="#DejaVuSans-32" transform="translate(127.246094 0)"/>
       <use xlink:href="#DejaVuSans-34" transform="translate(190.869141 0)"/>
      </g>
     </g>
    </g>
    <g id="xtick_6">
     <g id="line2d_6">
      <g>
       <use xlink:href="#m811470f49a" x="910.505845" y="224.28" style="stroke: #000000; stroke-width: 0.8"/>
      </g>
     </g>
     <g id="text_6">
      <!-- 2025 -->
      <g transform="translate(897.780845 238.878438) scale(0.1 -0.1)">
       <defs>
        <path id="DejaVuSans-35" d="M 691 4666 
L 3169 4666 
L 3169 4134 
L 1269 4134 
L 1269 2991 
Q 1406 3038 1543 3061 
Q 1681 3084 1819 3084 
Q 2600 3084 3056 2656 
Q 3513 2228 3513 1497 
Q 3513 744 3044 326 
Q 2575 -91 1722 -91 
Q 1428 -91 1123 -41 
Q 819 9 494 109 
L 494 744 
Q 775 591 1075 516 
Q 1375 441 1709 441 
Q 2250 441 2565 725 
Q 2881 1009 2881 1497 
Q 2881 1984 2565 2268 
Q 2250 2553 1709 2553 
Q 1456 2553 1204 2497 
Q 953 2441 691 2322 
L 691 4666 
z
" transform="scale(0.015625)"/>
       </defs>
       <use xlink:href="#DejaVuSans-32"/>
       <use xlink:href="#DejaVuSans-30" transform="translate(63.623047 0)"/>
       <use xlink:href="#DejaVuSans-32" transform="translate(127.246094 0)"/>
       <use xlink:href="#DejaVuSans-35" transform="translate(190.869141 0)"/>
      </g>
     </g>
    </g>
   </g>
   <g id="matplotlib.axis_2">
    <g id="ytick_1">
     <g id="line2d_7">
      <defs>
       <path id="m321c6ab8fe" d="M 0 0 
L -3.5 0 
" style="stroke: #000000; stroke-width: 0.8"/>
      </defs>
      <g>
       <use xlink:href="#m321c6ab8fe" x="145.8" y="191.997211" style="stroke: #000000; stroke-width: 0.8"/>
      </g>
     </g>
     <g id="text_7">
      <!-- 20 -->
      <g transform="translate(126.075 195.79643) scale(0.1 -0.1)">
       <use xlink:href="#DejaVuSans-32"/>
       <use xlink:href="#DejaVuSans-30" transform="translate(63.623047 0)"/>
      </g>
     </g>
    </g>
    <g id="ytick_2">
     <g id="line2d_8">
      <g>
       <use xlink:href="#m321c6ab8fe" x="145.8" y="152.270625" style="stroke: #000000; stroke-width: 0.8"/>
      </g>
     </g>
     <g id="text_8">
      <!-- 40 -->
      <g transform="translate(126.075 156.069844) scale(0.1 -0.1)">
       <use xlink:href="#DejaVuSans-34"/>
       <use xlink:href="#DejaVuSans-30" transform="translate(63.623047 0)"/>
      </g>
     </g>
    </g>
    <g id="ytick_3">
     <g id="line2d_9">
      <g>
       <use xlink:href="#m321c6ab8fe" x="145.8" y="112.544039" style="stroke: #000000; stroke-width: 0.8"/>
      </g>
     </g>
     <g id="text_9">
      <!-- 60 -->
      <g transform="translate(126.075 116.343258) scale(0.1 -0.1)">
       <defs>
        <path id="DejaVuSans-36" d="M 2113 2584 
Q 1688 2584 1439 2293 
Q 1191 2003 1191 1497 
Q 1191 994 1439 701 
Q 1688 409 2113 409 
Q 2538 409 2786 701 
Q 3034 994 3034 1497 
Q 3034 2003 2786 2293 
Q 2538 2584 2113 2584 
z
M 3366 4563 
L 3366 3988 
Q 3128 4100 2886 4159 
Q 2644 4219 2406 4219 
Q 1781 4219 1451 3797 
Q 1122 3375 1075 2522 
Q 1259 2794 1537 2939 
Q 1816 3084 2150 3084 
Q 2853 3084 3261 2657 
Q 3669 2231 3669 1497 
Q 3669 778 3244 343 
Q 2819 -91 2113 -91 
Q 1303 -91 875 529 
Q 447 1150 447 2328 
Q 447 3434 972 4092 
Q 1497 4750 2381 4750 
Q 2619 4750 2861 4703 
Q 3103 4656 3366 4563 
z
" transform="scale(0.015625)"/>
       </defs>
       <use xlink:href="#DejaVuSans-36"/>
       <use xlink:href="#DejaVuSans-30" transform="translate(63.623047 0)"/>
      </g>
     </g>
    </g>
    <g id="ytick_4">
     <g id="line2d_10">
      <g>
       <use xlink:href="#m321c6ab8fe" x="145.8" y="72.817452" style="stroke: #000000; stroke-width: 0.8"/>
      </g>
     </g>
     <g id="text_10">
      <!-- 80 -->
      <g transform="translate(126.075 76.616671) scale(0.1 -0.1)">
       <defs>
        <path id="DejaVuSans-38" d="M 2034 2216 
Q 1584 2216 1326 1975 
Q 1069 1734 1069 1313 
Q 1069 891 1326 650 
Q 1584 409 2034 409 
Q 2484 409 2743 651 
Q 3003 894 3003 1313 
Q 3003 1734 2745 1975 
Q 2488 2216 2034 2216 
z
M 1403 2484 
Q 997 2584 770 2862 
Q 544 3141 544 3541 
Q 544 4100 942 4425 
Q 1341 4750 2034 4750 
Q 2731 4750 3128 4425 
Q 3525 4100 3525 3541 
Q 3525 3141 3298 2862 
Q 3072 2584 2669 2484 
Q 3125 2378 3379 2068 
Q 3634 1759 3634 1313 
Q 3634 634 3220 271 
Q 2806 -91 2034 -91 
Q 1263 -91 848 271 
Q 434 634 434 1313 
Q 434 1759 690 2068 
Q 947 2378 1403 2484 
z
M 1172 3481 
Q 1172 3119 1398 2916 
Q 1625 2713 2034 2713 
Q 2441 2713 2670 2916 
Q 2900 3119 2900 3481 
Q 2900 3844 2670 4047 
Q 2441 4250 2034 4250 
Q 1625 4250 1398 4047 
Q 1172 3844 1172 3481 
z
" transform="scale(0.015625)"/>
       </defs>
       <use xlink:href="#DejaVuSans-38"/>
       <use xlink:href="#DejaVuSans-30" transform="translate(63.623047 0)"/>
      </g>
     </g>
    </g>
    <g id="ytick_5">
     <g id="line2d_11">
      <g>
       <use xlink:href="#m321c6ab8fe" x="145.8" y="33.090866" style="stroke: #000000; stroke-width: 0.8"/>
      </g>
     </g>
     <g id="text_11">
      <!-- 100 -->
      <g transform="translate(119.7125 36.890085) scale(0.1 -0.1)">
       <use xlink:href="#DejaVuSans-31"/>
       <use xlink:href="#DejaVuSans-30" transform="translate(63.623047 0)"/>
       <use xlink:href="#DejaVuSans-30" transform="translate(127.246094 0)"/>
      </g>
     </g>
    </g>
   </g>
   <g id="line2d_12">
    <path d="M 186.889091 102.059049 
L 187.690438 91.128112 
L 188.89246 125.313215 
L 189.293133 116.064748 
L 189.693807 122.327118 
L 190.094481 126.690568 
L 190.495154 146.264275 
L 191.697176 154.325255 
L 192.097849 132.678801 
L 192.498523 123.334002 
L 192.899197 123.128033 
L 193.299871 128.53517 
L 194.501892 110.864088 
L 194.902565 107.89518 
L 195.303239 105.972997 
L 195.703913 104.909696 
L 196.104587 72.381483 
L 197.707282 72.861334 
L 198.107955 61.420005 
L 198.909303 79.273937 
L 200.111324 106.149851 
L 200.511998 120.925831 
L 200.912671 119.605243 
L 201.313345 133.452438 
L 201.714019 120.634366 
L 202.91604 123.518786 
L 203.316714 133.565501 
L 203.717388 125.391246 
L 204.118061 130.942923 
L 204.518735 146.225098 
L 205.720756 160.017119 
L 206.12143 161.757552 
L 206.522104 164.939131 
L 206.922777 170.002375 
L 207.323451 147.766442 
L 208.525472 159.293872 
L 208.926146 151.799554 
L 209.32682 151.662552 
L 209.727493 155.14214 
L 210.128167 160.452441 
L 211.330188 153.824598 
L 211.730862 145.669811 
L 212.131536 143.10403 
L 212.932883 129.454412 
L 214.134904 130.559535 
L 214.936252 120.3356 
L 215.336926 125.422734 
L 215.737599 105.467401 
L 216.939621 104.001808 
L 217.340294 100.266316 
L 217.740968 101.139989 
L 218.141642 98.640678 
L 219.744337 98.656234 
L 220.14501 108.724204 
L 220.545684 108.343454 
L 220.946358 107.201412 
L 221.347032 105.378193 
L 222.549053 116.949456 
L 222.949727 128.58171 
L 223.3504 103.795907 
L 223.751074 112.056348 
L 224.151748 98.372995 
L 225.353769 107.915493 
L 225.754443 103.904006 
L 226.155116 104.423261 
L 226.55579 106.857403 
L 226.956464 121.394921 
L 228.158485 125.841127 
L 228.559159 120.798231 
L 228.959832 129.355242 
L 229.360506 120.564822 
L 229.76118 108.918823 
L 230.963201 79.760357 
L 231.363875 105.010184 
L 231.764549 103.317571 
L 232.165222 100.111996 
L 232.565896 93.347332 
L 233.767917 80.791069 
L 234.168591 82.951604 
L 234.569265 71.439189 
L 234.969938 68.869056 
L 235.370612 68.363093 
L 236.973307 86.168508 
L 237.373981 97.142348 
L 237.774654 102.818334 
L 238.175328 98.37325 
L 239.377349 107.197597 
L 239.778023 94.42429 
L 240.178697 96.110369 
L 240.579371 102.507226 
L 240.980044 112.402783 
L 242.182066 129.49887 
L 242.582739 121.32726 
L 242.983413 115.452718 
L 243.384087 131.495775 
L 243.78476 135.818922 
L 244.986782 114.436962 
L 245.387455 110.27279 
L 245.788129 103.473529 
L 246.188803 116.861492 
L 246.589477 111.571529 
L 247.791498 103.624848 
L 248.192171 104.721738 
L 248.592845 114.955285 
L 248.993519 111.970455 
L 249.394193 120.781747 
L 250.596214 126.933206 
L 250.996888 127.712185 
L 251.397561 99.768963 
L 251.798235 101.421596 
L 253.40093 101.871327 
L 253.801604 94.26905 
L 254.202277 89.50241 
L 254.602951 81.997358 
L 255.003625 84.594013 
L 256.205646 113.016315 
L 256.60632 101.086839 
L 257.006993 98.144508 
L 257.407667 108.802367 
L 257.808341 89.889492 
L 259.010362 84.348601 
L 259.411036 100.591112 
L 259.81171 98.620145 
L 260.212383 114.672216 
L 260.613057 119.510665 
L 261.815078 113.774327 
L 262.215752 132.425065 
L 262.616426 133.978938 
L 263.017099 127.740693 
L 263.417773 109.52571 
L 264.619794 107.373153 
L 265.020468 93.893382 
L 265.421142 87.478064 
L 265.821816 87.865251 
L 266.222489 103.363924 
L 267.42451 94.772676 
L 267.825184 115.475461 
L 268.225858 84.085698 
L 268.626532 85.287152 
L 269.027205 87.477973 
L 270.229227 64.274697 
L 271.030574 80.0622 
L 271.431248 80.033799 
L 271.831921 77.764809 
L 273.033943 80.587628 
L 274.235964 81.986058 
L 274.636638 72.721263 
L 275.838659 54.32444 
L 276.239332 55.28964 
L 276.640006 52.06012 
L 277.04068 102.32328 
L 277.441354 125.914435 
L 279.044049 139.165161 
L 279.444722 122.363562 
L 279.845396 129.585413 
L 280.24607 141.318284 
L 281.448091 129.994538 
L 281.848765 128.667994 
L 282.249438 136.04375 
L 282.650112 134.737093 
L 283.050786 146.734871 
L 284.252807 145.020992 
L 284.653481 150.803052 
L 285.054155 167.026206 
L 285.855502 127.788706 
L 287.057523 109.45279 
L 287.458197 120.452885 
L 287.858871 103.203669 
L 288.259544 97.124025 
L 288.660218 127.60087 
L 289.862239 117.659833 
L 290.262913 102.104046 
L 291.06426 91.781841 
L 291.464934 99.687202 
L 292.666955 94.151258 
L 293.067629 74.305149 
L 293.468303 83.666152 
L 293.868977 97.950281 
L 294.26965 107.97933 
L 296.273019 135.228347 
L 296.673693 121.700682 
L 297.074366 134.551469 
L 298.276388 153.709408 
L 298.677061 152.504391 
L 299.077735 167.313145 
L 299.478409 151.875357 
L 299.879082 176.681783 
L 301.081104 175.760894 
L 301.481777 158.429266 
L 301.882451 136.077995 
L 302.283125 125.432675 
L 302.683799 111.480203 
L 303.88582 132.6584 
L 304.286494 143.809261 
L 304.687167 131.605319 
L 305.087841 134.337832 
L 305.488515 130.056012 
L 306.690536 130.608204 
L 307.09121 118.940204 
L 307.491883 125.064152 
L 307.892557 114.390937 
L 308.293231 122.909349 
L 309.495252 129.972448 
L 309.895926 151.62728 
L 310.296599 154.112123 
L 311.097947 165.890413 
L 312.299968 139.830369 
L 312.700642 104.645116 
L 313.101316 125.121863 
L 313.501989 135.489031 
L 313.902663 118.033929 
L 315.104684 126.703039 
L 315.505358 136.120563 
L 315.906032 154.320108 
L 316.306705 152.717133 
L 316.707379 135.99074 
L 317.9094 124.617778 
L 318.310074 112.905582 
L 318.710748 131.801683 
L 319.111421 128.20622 
L 319.512095 138.925073 
L 320.714116 135.131008 
L 321.11479 146.401022 
L 321.515464 151.750392 
L 321.916138 162.89331 
L 323.518832 169.659052 
L 323.919506 156.58615 
L 324.32018 117.721626 
L 324.720854 126.940124 
L 326.323549 125.860317 
L 326.724222 126.120218 
L 327.124896 165.263074 
L 327.52557 128.890564 
L 327.926244 134.66705 
L 329.128265 121.248078 
L 329.528938 127.654943 
L 329.929612 124.490055 
L 330.330286 126.557031 
L 330.73096 136.144409 
L 332.333655 128.989662 
L 333.135002 115.486221 
L 333.535676 117.222914 
L 334.737697 119.944358 
L 335.138371 131.690846 
L 335.539044 124.792768 
L 335.939718 141.070528 
L 336.340392 140.908271 
L 337.542413 144.137366 
L 337.943087 130.327713 
L 338.34376 132.44365 
L 338.744434 118.095887 
L 339.145108 107.801129 
L 340.347129 93.782005 
L 340.747803 106.715837 
L 341.148477 106.73183 
L 341.54915 92.206345 
L 341.949824 100.17654 
L 343.953193 84.106298 
L 344.353866 88.611465 
L 344.75454 85.126284 
L 345.956561 107.107457 
L 346.357235 118.844938 
L 346.757909 111.571667 
L 347.158583 138.651518 
L 347.559256 130.365779 
L 349.161951 147.750205 
L 349.963299 183.529866 
L 350.363972 178.401887 
L 351.565994 195.34551 
L 351.966667 169.339429 
L 352.367341 169.095098 
L 352.768015 160.545017 
L 353.168688 155.707303 
L 354.37071 146.87489 
L 354.771383 151.561732 
L 355.172057 131.659968 
L 355.572731 150.882939 
L 355.973405 150.970756 
L 357.175426 136.514232 
L 357.576099 126.72038 
L 357.976773 126.57337 
L 358.377447 130.769339 
L 358.778121 102.62562 
L 359.980142 119.705335 
L 360.380816 120.519443 
L 360.781489 121.802244 
L 361.182163 106.388981 
L 362.784858 109.740078 
L 363.185532 116.293765 
L 363.586205 111.14188 
L 363.986879 84.441266 
L 364.387553 85.075025 
L 365.589574 78.545285 
L 365.990248 68.978273 
L 366.390922 67.965975 
L 366.791595 58.064422 
L 367.192269 67.915341 
L 368.39429 86.083955 
L 369.195638 92.447495 
L 369.596311 111.975492 
L 369.996985 108.405947 
L 371.199006 102.532963 
L 372.000354 113.789491 
L 372.401027 114.344965 
L 372.801701 136.723085 
L 374.003722 151.902782 
L 374.404396 153.416692 
L 374.80507 178.423209 
L 375.205744 172.257094 
L 375.606417 149.4538 
L 376.808438 157.686488 
L 377.209112 163.1236 
L 377.609786 163.870098 
L 378.01046 183.265321 
L 378.411133 167.557308 
L 379.613155 167.210638 
L 380.013828 168.03182 
L 380.414502 167.955067 
L 380.815176 142.924384 
L 381.215849 128.51549 
L 382.417871 101.794699 
L 382.818544 103.017065 
L 383.219218 103.230869 
L 383.619892 115.326922 
L 384.020566 84.929515 
L 385.62326 85.187549 
L 386.023934 58.985109 
L 386.424608 53.948892 
L 386.825282 53.796675 
L 388.027303 50.293444 
L 388.427977 50.824102 
L 388.82865 55.082822 
L 389.229324 57.89463 
L 389.629998 57.756066 
L 390.832019 60.899225 
L 391.232693 72.283973 
L 391.633366 72.624251 
L 392.03404 56.417276 
L 392.434714 62.543946 
L 393.636735 72.645779 
L 394.037409 73.24957 
L 394.438083 73.488296 
L 394.838756 79.55217 
L 395.23943 88.444785 
L 396.441451 69.398584 
L 396.842125 65.107863 
L 397.643472 68.424027 
L 398.044146 67.663474 
L 399.646841 55.696055 
L 400.047515 69.940239 
L 400.448188 98.925621 
L 400.848862 95.74347 
L 402.050883 81.576113 
L 402.852231 113.480587 
L 403.252905 137.314507 
L 403.653578 148.19487 
L 404.855599 155.70561 
L 405.256273 159.100941 
L 405.656947 142.153953 
L 406.057621 142.616475 
L 406.458294 148.389426 
L 407.660316 156.351926 
L 408.060989 153.102734 
L 408.461663 139.744816 
L 408.862337 139.51856 
L 409.263011 152.055395 
L 410.465032 142.122358 
L 410.865705 132.959273 
L 411.667053 69.507509 
L 412.067727 88.176317 
L 413.269748 84.167809 
L 413.670422 115.143266 
L 414.071095 129.020354 
L 414.471769 121.800266 
L 414.872443 105.238295 
L 416.074464 110.859739 
L 416.475138 133.642904 
L 416.875811 148.345125 
L 417.276485 125.765565 
L 417.677159 112.195205 
L 418.87918 98.704156 
L 419.279854 107.351454 
L 419.680527 106.654986 
L 420.081201 104.007246 
L 420.481875 96.355244 
L 421.683896 87.907371 
L 422.485244 90.739433 
L 422.885917 94.635636 
L 423.286591 84.653736 
L 424.889286 76.650134 
L 425.28996 74.030051 
L 426.091307 93.9852 
L 427.293328 126.776089 
L 427.694002 119.236696 
L 428.094676 128.172657 
L 428.495349 126.61069 
L 428.896023 158.169307 
L 430.098044 176.271765 
L 430.498718 165.766334 
L 430.899392 144.729375 
L 431.300066 130.520069 
L 431.700739 149.299972 
L 432.902761 153.491053 
L 433.303434 162.806528 
L 433.704108 163.062811 
L 434.104782 165.575512 
L 434.505455 160.549621 
L 435.707477 174.687586 
L 436.10815 161.214664 
L 436.508824 155.381627 
L 436.909498 144.638362 
L 437.310172 136.956856 
L 438.512193 141.292496 
L 438.912866 155.39062 
L 439.31354 161.792864 
L 439.714214 138.326385 
L 441.316909 100.326858 
L 441.717583 94.13565 
L 442.118256 102.389542 
L 442.51893 94.816716 
L 442.919604 61.202207 
L 444.121625 63.214762 
L 444.522299 55.67078 
L 444.922972 66.53449 
L 445.323646 55.909738 
L 445.72432 49.353697 
L 446.926341 47.93406 
L 447.327015 47.220804 
L 447.727688 48.717742 
L 448.128362 43.263779 
L 448.529036 44.77496 
L 449.731057 43.567021 
L 450.131731 42.772933 
L 450.532405 65.779372 
L 450.933078 63.109891 
L 451.333752 64.362577 
L 452.535773 76.073348 
L 452.936447 70.781818 
L 453.337121 88.275711 
L 453.737794 79.703102 
L 454.138468 75.806384 
L 455.340489 90.017481 
L 455.741163 93.162495 
L 456.141837 105.871844 
L 456.943184 117.762868 
L 458.145205 112.287432 
L 458.545879 117.272612 
L 458.946553 117.60978 
L 459.347227 119.163786 
L 459.7479 130.303522 
L 460.949922 132.301925 
L 461.350595 119.379539 
L 461.751269 117.078285 
L 462.151943 139.9442 
L 462.552616 151.40834 
L 463.754638 156.613842 
L 464.155311 154.19692 
L 464.555985 145.544881 
L 464.956659 149.953445 
L 465.357333 166.291 
L 466.559354 163.7175 
L 466.960027 147.213871 
L 467.360701 149.914952 
L 467.761375 139.735494 
L 469.36407 126.363151 
L 469.764744 148.301881 
L 470.165417 146.487426 
L 470.566091 139.919225 
L 470.966765 139.01168 
L 472.168786 113.882374 
L 472.56946 123.928536 
L 472.970133 158.840512 
L 473.370807 134.656463 
L 473.771481 138.154298 
L 474.973502 135.692215 
L 475.374176 146.758345 
L 475.77485 148.656496 
L 476.576197 177.538783 
L 478.178892 179.982293 
L 479.380913 187.703145 
L 480.582934 198.543104 
L 480.983608 199.238657 
L 481.384282 185.062132 
L 481.784955 198.497991 
L 482.185629 179.304007 
L 483.38765 159.139917 
L 483.788324 162.302813 
L 484.188998 157.338166 
L 484.589672 156.447148 
L 484.990345 156.401708 
L 486.192366 143.817916 
L 486.59304 131.990585 
L 486.993714 108.127053 
L 487.394388 109.356507 
L 487.795061 127.79672 
L 488.997083 115.912556 
L 489.79843 96.599496 
L 490.599777 138.85822 
L 492.202472 141.873278 
L 492.603146 153.421808 
L 493.00382 133.872196 
L 493.404494 133.590498 
L 494.606515 134.946355 
L 495.407862 151.222847 
L 495.808536 148.850146 
L 496.20921 141.029554 
L 497.411231 154.83989 
L 497.811905 178.078854 
L 498.212578 160.594114 
L 498.613252 149.598051 
L 499.013926 147.163576 
L 500.215947 151.193781 
L 500.616621 127.317822 
L 501.017294 126.008046 
L 501.417968 127.127434 
L 501.818642 116.566673 
L 503.020663 106.214788 
L 503.421337 113.061309 
L 503.822011 116.792565 
L 504.222684 95.286471 
L 504.623358 83.306725 
L 505.825379 81.917023 
L 506.226053 86.197281 
L 506.626727 93.167327 
L 507.0274 91.471457 
L 507.428074 89.252054 
L 508.630095 94.157674 
L 509.030769 119.791673 
L 510.23279 162.651549 
L 511.434811 167.978412 
L 511.835485 165.523524 
L 512.236159 188.291026 
L 512.636833 190.20419 
L 514.239528 190.232512 
L 514.640201 190.545875 
L 515.040875 189.591104 
L 515.441549 192.820412 
L 515.842222 193.131092 
L 517.044244 196.760168 
L 517.444917 195.776367 
L 517.845591 191.656934 
L 518.246265 171.612975 
L 518.646939 172.385664 
L 519.84896 153.657532 
L 520.249633 149.901252 
L 520.650307 149.545353 
L 521.050981 153.482339 
L 521.451655 160.417815 
L 522.653676 174.679219 
L 523.05435 163.897922 
L 523.455023 161.99822 
L 523.855697 160.730134 
L 524.256371 149.37207 
L 525.458392 144.830016 
L 525.859066 134.26502 
L 526.259739 154.831608 
L 526.660413 144.646643 
L 527.061087 158.061002 
L 528.263108 156.544668 
L 528.663782 169.679999 
L 529.064455 150.137946 
L 529.465129 139.729869 
L 529.865803 114.654145 
L 531.468498 121.608317 
L 531.869172 114.343964 
L 532.269845 98.836839 
L 532.670519 121.75056 
L 533.87254 115.748824 
L 534.273214 123.44601 
L 534.673888 109.203736 
L 535.475235 129.05216 
L 536.677256 145.426889 
L 537.07793 135.894027 
L 537.478604 137.405369 
L 537.879278 157.526352 
L 538.279951 167.857041 
L 539.882646 156.273606 
L 540.28332 154.993566 
L 540.683994 177.149052 
L 541.084667 153.479904 
L 542.286689 157.130284 
L 542.687362 167.036169 
L 543.088036 168.285102 
L 543.48871 166.642505 
L 543.889383 163.053751 
L 545.492078 142.01953 
L 545.892752 142.375686 
L 546.293426 141.803859 
L 546.6941 128.589307 
L 547.896121 143.408883 
L 548.296794 157.153075 
L 548.697468 152.774668 
L 549.098142 146.753963 
L 549.498816 157.521888 
L 550.700837 146.33625 
L 551.101511 114.102681 
L 551.502184 93.986841 
L 551.902858 82.166982 
L 552.303532 84.6123 
L 553.505553 96.285865 
L 553.906227 109.141143 
L 554.3069 102.968909 
L 554.707574 100.558423 
L 555.108248 84.057806 
L 556.310269 80.224566 
L 556.710943 80.202488 
L 557.111617 79.05971 
L 557.51229 79.541602 
L 557.912964 87.407863 
L 559.114985 120.496475 
L 559.515659 143.30483 
L 560.71768 109.27692 
L 561.919701 97.287417 
L 562.721049 126.885408 
L 563.121722 123.189026 
L 563.522396 140.553036 
L 565.525765 158.986807 
L 565.926439 145.914006 
L 566.327112 150.599712 
L 567.529133 148.122357 
L 567.929807 167.48761 
L 568.330481 169.323691 
L 568.731155 191.266921 
L 569.131828 199.101295 
L 570.734523 199.218847 
L 571.135197 191.519333 
L 571.535871 194.896869 
L 571.936544 180.99189 
L 573.138566 171.762421 
L 573.539239 185.290524 
L 573.939913 186.134308 
L 574.340587 202.378667 
L 574.741261 185.833043 
L 575.943282 176.742945 
L 576.343955 175.421872 
L 577.145303 162.445396 
L 577.545977 158.491182 
L 578.747998 160.257535 
L 579.148672 162.255026 
L 579.549345 160.867742 
L 579.950019 180.286945 
L 580.350693 185.117661 
L 581.552714 150.190633 
L 581.953388 131.4647 
L 582.354061 125.370756 
L 582.754735 134.202486 
L 583.155409 160.409711 
L 584.35743 163.361516 
L 584.758104 166.84224 
L 585.158778 157.395375 
L 585.559451 144.328742 
L 585.960125 151.988906 
L 587.162146 141.797117 
L 587.56282 146.793145 
L 587.963494 135.848879 
L 588.364167 131.301333 
L 588.764841 133.351653 
L 589.966862 145.477697 
L 590.367536 131.361021 
L 590.76821 136.85776 
L 591.569557 86.679415 
L 592.771578 94.08838 
L 593.172252 91.108034 
L 593.572926 106.232106 
L 593.9736 81.088465 
L 594.374273 80.266285 
L 595.576294 79.556415 
L 595.976968 77.365865 
L 596.377642 102.683846 
L 596.778316 85.733778 
L 597.178989 82.588816 
L 598.381011 88.107724 
L 598.781684 77.409877 
L 599.182358 95.129608 
L 599.583032 105.721217 
L 599.983706 104.440779 
L 601.185727 106.633863 
L 601.5864 93.699522 
L 601.987074 91.44852 
L 602.788422 102.524727 
L 603.990443 111.714129 
L 604.391117 118.124853 
L 604.79179 91.619408 
L 605.593138 122.582637 
L 606.795159 126.966479 
L 607.195833 143.432541 
L 607.596506 128.510101 
L 607.99718 108.715815 
L 608.397854 106.724075 
L 609.599875 99.040233 
L 610.000549 100.925642 
L 610.401222 114.267511 
L 610.801896 122.414926 
L 611.20257 121.413894 
L 612.404591 123.480844 
L 612.805265 146.836492 
L 613.205939 142.951007 
L 613.606612 154.610889 
L 614.007286 153.089665 
L 615.609981 158.132518 
L 616.010655 161.330666 
L 616.411328 170.592251 
L 616.812002 168.78422 
L 618.414697 183.314554 
L 618.815371 185.818678 
L 619.216045 186.44879 
L 619.616718 166.27883 
L 620.818739 146.760648 
L 621.219413 137.687648 
L 621.620087 133.708434 
L 622.020761 132.254685 
L 622.421434 105.3777 
L 624.024129 93.685975 
L 624.424803 75.091923 
L 624.825477 88.472453 
L 625.22615 84.266582 
L 626.428172 75.695816 
L 626.828845 69.314886 
L 627.229519 71.151498 
L 627.630193 58.204813 
L 628.030867 58.310299 
L 629.232888 87.489969 
L 629.633561 86.843341 
L 630.034235 79.184392 
L 630.434909 77.939429 
L 630.835583 89.389677 
L 632.037604 94.641005 
L 632.838951 72.944208 
L 633.239625 77.553979 
L 633.640299 106.232865 
L 634.84232 102.264718 
L 635.242994 94.019252 
L 635.643667 100.313151 
L 636.044341 115.046834 
L 636.445015 107.216084 
L 638.04771 120.251016 
L 638.448383 134.805635 
L 638.849057 112.93448 
L 639.249731 110.117195 
L 640.451752 108.317295 
L 640.852426 121.080134 
L 641.2531 127.323458 
L 641.653773 122.814434 
L 642.054447 105.30409 
L 643.256468 113.811839 
L 643.657142 128.662051 
L 644.057816 117.061418 
L 644.458489 116.850637 
L 644.859163 115.034015 
L 646.061184 104.725619 
L 646.461858 97.039848 
L 646.862532 123.804421 
L 647.263206 102.464097 
L 647.663879 102.751974 
L 648.8659 96.094843 
L 649.266574 83.605626 
L 649.667248 86.187944 
L 650.067922 85.061402 
L 650.468595 86.652803 
L 651.670617 86.362483 
L 652.07129 96.833374 
L 652.471964 74.182839 
L 652.872638 59.032693 
L 653.273311 57.432946 
L 654.475333 61.482542 
L 654.876006 77.288374 
L 655.27668 106.158057 
L 655.677354 106.563783 
L 657.280049 101.57859 
L 658.081396 131.954738 
L 658.48207 146.221252 
L 658.882744 132.814881 
L 660.084765 123.258505 
L 660.485439 110.338935 
L 660.886112 114.817511 
L 661.286786 137.205468 
L 661.68746 144.518169 
L 662.889481 149.752427 
L 663.290155 154.002535 
L 663.690828 131.104402 
L 664.091502 129.188169 
L 664.492176 129.502342 
L 665.694197 106.061143 
L 666.094871 106.557051 
L 666.896218 120.851513 
L 667.296892 110.997632 
L 668.498913 112.988951 
L 668.899587 124.367524 
L 669.300261 108.481609 
L 669.700934 113.552078 
L 670.101608 115.976971 
L 671.303629 97.235432 
L 671.704303 101.287349 
L 672.50565 88.439519 
L 672.906324 103.643671 
L 674.108345 93.214531 
L 674.509019 94.673296 
L 674.909693 93.030144 
L 675.310367 65.621883 
L 675.71104 64.497792 
L 677.313735 55.538699 
L 677.714409 79.732528 
L 678.115083 72.330086 
L 678.515756 74.076782 
L 679.717778 76.801015 
L 680.118451 81.742904 
L 680.519125 93.667606 
L 680.919799 95.210486 
L 681.320472 91.195251 
L 682.522494 88.324837 
L 682.923167 80.484043 
L 683.323841 75.099828 
L 683.724515 100.373629 
L 684.125189 104.968219 
L 685.727884 105.228064 
L 686.128557 89.285113 
L 686.529231 100.343146 
L 688.131926 120.168791 
L 688.5326 107.011398 
L 688.933273 102.758823 
L 689.333947 112.370766 
L 689.734621 104.742862 
L 690.936642 108.307877 
L 691.737989 120.313744 
L 692.138663 142.41276 
L 692.539337 134.075602 
L 693.741358 137.926129 
L 694.142032 149.148856 
L 694.542706 123.009761 
L 694.943379 106.023118 
L 695.344053 102.439695 
L 696.546074 75.756616 
L 696.946748 76.656184 
L 697.347422 71.16958 
L 697.748095 89.710784 
L 698.148769 113.706894 
L 699.35079 112.280507 
L 699.751464 104.163337 
L 700.152138 104.303299 
L 700.552811 104.015672 
L 700.953485 95.833856 
L 702.155506 97.22426 
L 702.55618 108.73892 
L 702.956854 147.697841 
L 703.357528 141.154401 
L 703.758201 150.086729 
L 704.960223 153.65366 
L 705.360896 156.265035 
L 705.76157 160.202496 
L 706.162244 152.378786 
L 706.562917 167.011181 
L 707.764939 147.571667 
L 708.165612 144.350018 
L 708.566286 151.465376 
L 708.96696 160.900619 
L 709.367634 161.04349 
L 710.569655 129.429496 
L 711.371002 115.853523 
L 711.771676 116.484158 
L 712.17235 128.652077 
L 713.374371 118.896753 
L 713.775045 93.241428 
L 714.175718 90.022684 
L 714.576392 74.861851 
L 714.977066 94.972735 
L 716.579761 95.707171 
L 716.980434 106.076604 
L 717.781782 117.130262 
L 718.983803 147.788882 
L 719.384477 139.894583 
L 719.78515 149.062618 
L 720.185824 148.479843 
L 720.586498 152.81781 
L 721.788519 162.245104 
L 722.189193 197.432157 
L 722.589867 211.332102 
L 722.99054 215.46 
L 723.391214 202.909476 
L 724.593235 193.449343 
L 724.993909 188.527474 
L 725.795256 160.420801 
L 726.19593 151.315638 
L 727.397951 133.299684 
L 727.798625 151.121978 
L 728.199299 146.4753 
L 728.599973 124.452305 
L 729.000646 115.961446 
L 730.202667 116.418618 
L 731.004015 74.443511 
L 731.404689 76.427057 
L 731.805362 101.287531 
L 733.007384 93.426149 
L 733.408057 120.499129 
L 733.808731 139.035346 
L 734.209405 143.033698 
L 734.610078 159.388073 
L 735.8121 136.606154 
L 736.212773 135.298774 
L 737.014121 169.385659 
L 737.414795 165.591543 
L 738.616816 164.342027 
L 739.017489 175.794356 
L 739.418163 162.594229 
L 739.818837 145.441037 
L 741.421532 119.860348 
L 741.822206 103.270449 
L 742.222879 99.098285 
L 742.623553 89.904246 
L 743.024227 90.805538 
L 744.226248 92.682312 
L 744.626922 64.644976 
L 745.027595 54.106452 
L 745.428269 53.32755 
L 745.828943 57.572703 
L 747.030964 49.458287 
L 747.431638 59.989514 
L 747.832312 83.108625 
L 748.633659 104.712158 
L 749.83568 106.78881 
L 750.236354 113.638359 
L 750.637028 116.162266 
L 751.438375 149.378101 
L 752.640396 162.814342 
L 753.04107 162.507315 
L 753.441744 164.456849 
L 753.842417 158.460674 
L 754.243091 147.575201 
L 755.445112 165.106683 
L 756.647134 126.971291 
L 757.047807 126.317855 
L 758.249828 112.722989 
L 758.650502 119.790838 
L 759.051176 120.970612 
L 759.45185 114.773776 
L 759.852523 103.600299 
L 761.455218 107.571394 
L 761.855892 93.237193 
L 762.657239 107.460624 
L 764.259934 114.403978 
L 764.660608 133.490317 
L 765.061282 133.51525 
L 765.461956 124.076145 
L 766.663977 103.41669 
L 767.064651 105.296887 
L 767.465324 92.989669 
L 767.865998 71.46618 
L 768.266672 76.547937 
L 769.869367 68.202818 
L 770.27004 74.219308 
L 770.670714 71.200106 
L 771.071388 65.314715 
L 772.273409 64.962676 
L 772.674083 48.076565 
L 773.074756 39.06 
L 773.47543 39.131627 
L 773.876104 47.674504 
L 775.478799 50.544323 
L 775.879473 71.614587 
L 776.280146 68.509248 
L 776.68082 60.315585 
L 777.882841 57.95153 
L 778.283515 65.459168 
L 778.684189 64.049628 
L 779.084862 72.934539 
L 779.485536 68.121185 
L 780.687557 68.311216 
L 781.088231 72.357582 
L 781.488905 69.274852 
L 781.889578 74.608857 
L 782.290252 78.191836 
L 784.293621 105.781023 
L 784.694295 83.873852 
L 785.094968 88.891194 
L 786.296989 95.110999 
L 786.697663 91.229778 
L 787.098337 101.66195 
L 787.499011 95.411161 
L 787.899684 93.799485 
L 789.903053 84.229582 
L 790.303727 72.613885 
L 790.704401 93.762235 
L 791.906422 88.507035 
L 792.307095 73.32755 
L 792.707769 92.894833 
L 793.108443 105.511698 
L 793.509117 106.507839 
L 794.711138 103.714983 
L 795.111812 97.792751 
L 795.512485 98.718172 
L 795.913159 103.157442 
L 796.313833 103.392208 
L 797.515854 103.4331 
L 798.317201 140.68395 
L 798.717875 120.700621 
L 800.32057 111.918943 
L 800.721244 146.770538 
L 801.121917 144.002358 
L 801.522591 144.610241 
L 801.923265 131.493834 
L 803.125286 139.373435 
L 803.52596 152.811626 
L 803.926634 148.637812 
L 804.327307 135.9579 
L 804.727981 159.364375 
L 805.930002 169.72195 
L 806.330676 154.696147 
L 806.73135 158.127244 
L 807.132023 155.425521 
L 807.532697 175.041134 
L 808.734718 160.277623 
L 809.135392 149.58552 
L 809.536066 148.900017 
L 809.93674 146.327555 
L 810.337413 131.003301 
L 811.539434 126.561749 
L 811.940108 133.969525 
L 812.340782 151.084197 
L 813.142129 125.721313 
L 814.344151 121.582426 
L 814.744824 116.827656 
L 815.145498 118.521916 
L 815.546172 96.031586 
L 815.946845 100.323796 
L 817.148867 105.72308 
L 817.54954 90.828735 
L 817.950214 90.176022 
L 818.350888 104.273906 
L 818.751562 113.828233 
L 819.953583 100.634303 
L 820.354256 80.085267 
L 820.75493 89.404501 
L 821.155604 77.133252 
L 821.556278 78.274136 
L 823.158973 60.251036 
L 823.559646 58.748948 
L 823.96032 71.681774 
L 824.360994 76.847091 
L 825.563015 71.567024 
L 825.963689 71.112559 
L 826.364362 68.71997 
L 826.765036 73.005592 
L 827.16571 66.437049 
L 828.367731 67.564711 
L 828.768405 71.497053 
L 829.169078 66.338956 
L 829.569752 69.934003 
L 829.970426 70.296371 
L 831.172447 82.659562 
L 831.573121 77.837877 
L 832.374468 79.749533 
L 833.977163 125.476901 
L 834.377837 113.681093 
L 834.778511 123.751809 
L 835.179184 125.998731 
L 835.579858 126.765797 
L 836.781879 127.050353 
L 837.182553 128.725878 
L 837.583227 126.138994 
L 838.384574 140.422195 
L 839.586595 140.193558 
L 839.987269 131.600213 
L 840.387943 133.789297 
L 840.788617 139.007603 
L 841.18929 126.938665 
L 842.391312 107.280284 
L 843.192659 151.836292 
L 843.593333 139.001144 
L 843.994006 144.417777 
L 845.196028 133.88042 
L 845.596701 132.564487 
L 845.997375 158.555019 
L 846.398049 157.889972 
L 846.798723 161.764061 
L 848.000744 172.105866 
L 848.401417 189.923831 
L 848.802091 149.698591 
L 849.202765 162.736807 
L 849.603439 163.915359 
L 850.80546 168.412535 
L 851.206134 152.80507 
L 851.606807 164.267891 
L 852.007481 150.274381 
L 852.408155 160.406686 
L 853.610176 151.668799 
L 854.01085 129.677029 
L 854.812197 119.023097 
L 855.212871 114.727158 
L 856.414892 95.415368 
L 856.815566 115.471036 
L 857.21624 96.550788 
L 857.616913 103.327456 
L 858.017587 80.241829 
L 859.219608 91.686994 
L 859.620282 74.800989 
L 860.020956 89.069207 
L 860.421629 109.26352 
L 860.822303 112.868714 
L 863.627019 171.265659 
L 864.82904 175.836343 
L 865.229714 168.503583 
L 865.630388 151.512364 
L 866.031062 140.303445 
L 866.431735 151.950177 
L 867.633756 151.03749 
L 868.03443 157.187661 
L 868.435104 156.493269 
L 868.835778 131.793187 
L 869.236451 139.507397 
L 870.438473 109.523136 
L 870.839146 94.769931 
L 871.23982 92.262782 
L 871.640494 74.669112 
L 872.041168 90.611945 
L 873.243189 93.308848 
L 873.643862 132.071152 
L 874.044536 133.395409 
L 874.845884 107.804876 
L 876.047905 97.457821 
L 876.448579 80.599305 
L 876.849252 88.14025 
L 877.249926 76.558504 
L 877.6506 76.945647 
L 878.852621 78.790113 
L 879.253295 109.894855 
L 879.653968 102.875378 
L 880.054642 91.657432 
L 880.455316 90.105902 
L 881.657337 66.336546 
L 882.058011 68.453921 
L 882.458684 89.245374 
L 882.859358 91.085503 
L 883.260032 93.809137 
L 884.462053 108.281679 
L 884.862727 105.632339 
L 885.263401 118.192391 
L 885.664074 137.708386 
L 886.064748 139.46179 
L 887.266769 118.49613 
L 887.667443 119.200821 
L 888.068117 108.461011 
L 888.46879 104.120288 
L 888.869464 120.86852 
L 890.071485 127.798905 
L 890.472159 107.627905 
L 890.872833 116.312284 
L 891.273506 117.811796 
L 891.67418 128.715884 
L 892.876201 135.112874 
L 893.677549 99.700379 
L 894.078223 102.959862 
L 894.478896 118.482256 
L 895.680918 141.157974 
L 896.482265 168.114902 
L 897.283612 156.099782 
L 898.485634 150.046426 
L 898.886307 154.603494 
L 899.286981 135.300593 
L 899.687655 136.78169 
L 900.088329 131.118681 
L 901.29035 135.883574 
L 901.691023 166.368034 
L 902.091697 149.574721 
L 902.492371 156.021051 
L 902.893045 152.737153 
L 904.095066 144.161027 
L 904.49574 151.124524 
L 904.896413 150.891131 
L 905.297087 154.916153 
L 905.697761 142.930894 
L 906.899782 133.836171 
L 907.300456 145.949206 
L 908.101803 146.470108 
L 908.502477 147.170296 
L 909.704498 136.33474 
L 910.105172 134.766256 
L 910.906519 135.451959 
L 911.307193 113.169981 
L 912.509214 93.430559 
L 912.909888 114.725006 
L 913.310562 110.537019 
L 914.111909 117.57129 
L 915.31393 127.105707 
L 915.714604 138.864445 
L 916.115278 140.023101 
L 916.515951 146.504536 
L 916.916625 136.756086 
L 918.51932 124.953693 
L 919.320668 108.453549 
L 920.923362 168.226163 
L 921.324036 158.486793 
L 921.72471 154.519479 
L 922.125384 152.945481 
L 922.526057 153.343886 
L 923.728079 154.098019 
L 924.128752 149.451932 
L 924.529426 146.918809 
L 924.9301 138.533989 
L 925.330773 142.652736 
L 926.532795 141.783618 
L 926.933468 152.248383 
L 927.334142 154.302157 
L 927.734816 142.449947 
L 928.13549 93.274549 
L 929.738184 107.691023 
L 930.138858 90.391966 
L 930.539532 90.50142 
L 930.940206 94.617655 
L 932.142227 97.254293 
L 932.542901 112.662832 
L 932.943574 115.816002 
L 933.344248 150.86813 
L 933.744922 142.278757 
L 934.946943 166.623534 
L 935.74829 156.337331 
L 936.148964 173.312037 
L 936.549638 176.758933 
L 937.751659 182.922517 
L 938.152333 178.714446 
L 938.553007 166.262105 
L 938.95368 160.782207 
L 939.354354 144.988173 
L 940.556375 143.015129 
L 940.957049 156.306897 
L 941.357723 136.988527 
L 941.758396 144.356112 
L 942.15907 123.973534 
L 943.361091 120.35965 
L 943.761765 124.762102 
L 944.162439 125.245635 
L 944.563112 135.190722 
L 944.963786 125.809408 
L 946.165807 133.322572 
L 946.566481 148.301384 
L 946.967155 147.032708 
L 947.367829 184.933762 
L 947.768502 190.766159 
L 948.970523 174.325244 
L 949.371197 183.312996 
L 949.771871 139.547509 
L 950.172545 148.041768 
L 950.573218 148.67042 
L 951.77524 148.01646 
L 952.175913 135.075854 
L 952.576587 143.272037 
L 952.977261 144.967774 
L 954.579956 149.16708 
L 954.980629 148.809558 
L 955.381303 143.082508 
L 956.182651 106.459489 
L 957.384672 114.88832 
L 957.785346 111.972119 
L 958.186019 144.649344 
L 958.586693 122.331026 
L 958.987367 123.396909 
L 960.189388 124.648616 
L 960.590062 128.959544 
L 960.990735 96.12693 
L 961.391409 82.686437 
L 961.792083 62.037403 
L 962.994104 58.112595 
L 963.394778 55.91063 
L 963.795451 54.869168 
L 964.196125 60.631927 
L 964.596799 47.646688 
L 965.79882 47.702792 
L 966.199494 53.928267 
L 966.600168 69.959546 
L 967.000841 72.226502 
L 967.401515 76.635651 
L 969.00421 70.16456 
L 969.404884 77.676925 
L 969.805557 72.675129 
L 970.206231 86.083058 
L 971.408252 92.199835 
L 971.808926 97.83187 
L 972.2096 108.832224 
L 972.610273 114.820719 
L 973.010947 111.691807 
L 974.212968 109.817955 
L 975.014316 95.514906 
L 975.41499 93.208632 
L 975.815663 99.589241 
L 977.017684 102.799466 
L 977.418358 102.296435 
L 977.819032 109.835711 
L 978.620379 98.124917 
L 979.822401 103.49779 
L 980.223074 103.830075 
L 981.024422 78.560678 
L 981.425096 76.978367 
L 982.627117 78.025819 
L 983.02779 102.862063 
L 983.428464 90.605129 
L 983.829138 90.739747 
L 985.431833 82.302523 
L 985.832507 83.812384 
L 986.23318 76.955569 
L 986.633854 77.139103 
L 987.034528 68.315494 
L 988.236549 72.841331 
L 988.637223 69.646314 
L 989.037896 76.562224 
L 989.43857 75.282838 
L 989.839244 82.407967 
L 991.041265 87.945637 
L 991.441939 86.292471 
L 991.842612 86.654752 
L 992.243286 85.113708 
L 992.64396 80.822265 
L 993.845981 78.518409 
L 994.246655 89.493678 
L 994.647329 84.984279 
L 995.048002 92.650081 
L 995.448676 105.523668 
L 996.650697 106.24182 
L 997.051371 113.59266 
L 997.452045 114.646585 
L 997.852718 109.759089 
L 998.253392 102.474949 
L 999.455413 88.309112 
L 999.856087 92.999106 
L 1000.256761 106.253953 
L 1000.657435 104.201485 
L 1001.058108 119.431699 
L 1002.260129 109.866968 
L 1002.660803 143.943937 
L 1003.061477 140.559927 
L 1003.462151 127.660061 
L 1003.862824 141.052858 
L 1005.064846 125.763368 
L 1005.465519 122.670411 
L 1005.866193 128.790274 
L 1006.66754 160.721838 
L 1008.270235 173.474031 
L 1008.670909 170.595227 
L 1008.670909 170.595227 
" clip-path="url(#p258452f60a)" style="fill: none; stroke: #1f77b4; stroke-width: 1.5; stroke-linecap: square"/>
   </g>
   <g id="patch_3">
    <path d="M 145.8 224.28 
L 145.8 30.24 
" style="fill: none; stroke: #000000; stroke-width: 0.8; stroke-linejoin: miter; stroke-linecap: square"/>
   </g>
   <g id="patch_4">
    <path d="M 145.8 224.28 
L 1049.76 224.28 
" style="fill: none; stroke: #000000; stroke-width: 0.8; stroke-linejoin: miter; stroke-linecap: square"/>
   </g>
  </g>
 </g>
 <defs>
  <clipPath id="p258452f60a">
   <rect x="145.8" y="30.24" width="903.96" height="194.04"/>
  </clipPath>
 </defs>
</svg>
