<?xml version="1.0" encoding="utf-8" standalone="no"?>
<!DOCTYPE svg PUBLIC "-//W3C//DTD SVG 1.1//EN"
  "http://www.w3.org/Graphics/SVG/1.1/DTD/svg11.dtd">
<svg xmlns:xlink="http://www.w3.org/1999/xlink" width="1166.4pt" height="252pt" viewBox="0 0 1166.4 252" xmlns="http://www.w3.org/2000/svg" version="1.1">
 <metadata>
  <rdf:RDF xmlns:dc="http://purl.org/dc/elements/1.1/" xmlns:cc="http://creativecommons.org/ns#" xmlns:rdf="http://www.w3.org/1999/02/22-rdf-syntax-ns#">
   <cc:Work>
    <dc:type rdf:resource="http://purl.org/dc/dcmitype/StillImage"/>
    <dc:date>2025-09-07T00:54:30.961173</dc:date>
    <dc:format>image/svg+xml</dc:format>
    <dc:creator>
     <cc:Agent>
      <dc:title>Matplotlib v3.10.5, https://matplotlib.org/</dc:title>
     </cc:Agent>
    </dc:creator>
   </cc:Work>
  </rdf:RDF>
 </metadata>
 <defs>
  <style type="text/css">*{stroke-linejoin: round; stroke-linecap: butt}</style>
 </defs>
 <g id="figure_1">
  <g id="patch_1">
   <path d="M 0 252 
L 1166.4 252 
L 1166.4 0 
L 0 0 
z
" style="fill: #ffffff"/>
  </g>
  <g id="axes_1">
   <g id="patch_2">
    <path d="M 145.8 224.28 
L 1049.76 224.28 
L 1049.76 30.24 
L 145.8 30.24 
z
" style="fill: #ffffff"/>
   </g>
   <g id="matplotlib.axis_1">
    <g id="xtick_1">
     <g id="line2d_1">
      <defs>
       <path id="md30a77064a" d="M 0 0 
L 0 3.5 
" style="stroke: #000000; stroke-width: 0.8"/>
      </defs>
      <g>
       <use xlink:href="#md30a77064a" x="178.479043" y="224.28" style="stroke: #000000; stroke-width: 0.8"/>
      </g>
     </g>
     <g id="text_1">
      <!-- 2020 -->
      <g transform="translate(165.754043 238.878438) scale(0.1 -0.1)">
       <defs>
        <path id="DejaVuSans-32" d="M 1228 531 
L 3431 531 
L 3431 0 
L 469 0 
L 469 531 
Q 828 903 1448 1529 
Q 2069 2156 2228 2338 
Q 2531 2678 2651 2914 
Q 2772 3150 2772 3378 
Q 2772 3750 2511 3984 
Q 2250 4219 1831 4219 
Q 1534 4219 1204 4116 
Q 875 4013 500 3803 
L 500 4441 
Q 881 4594 1212 4672 
Q 1544 4750 1819 4750 
Q 2544 4750 2975 4387 
Q 3406 4025 3406 3419 
Q 3406 3131 3298 2873 
Q 3191 2616 2906 2266 
Q 2828 2175 2409 1742 
Q 1991 1309 1228 531 
z
" transform="scale(0.015625)"/>
        <path id="DejaVuSans-30" d="M 2034 4250 
Q 1547 4250 1301 3770 
Q 1056 3291 1056 2328 
Q 1056 1369 1301 889 
Q 1547 409 2034 409 
Q 2525 409 2770 889 
Q 3016 1369 3016 2328 
Q 3016 3291 2770 3770 
Q 2525 4250 2034 4250 
z
M 2034 4750 
Q 2819 4750 3233 4129 
Q 3647 3509 3647 2328 
Q 3647 1150 3233 529 
Q 2819 -91 2034 -91 
Q 1250 -91 836 529 
Q 422 1150 422 2328 
Q 422 3509 836 4129 
Q 1250 4750 2034 4750 
z
" transform="scale(0.015625)"/>
       </defs>
       <use xlink:href="#DejaVuSans-32"/>
       <use xlink:href="#DejaVuSans-30" transform="translate(63.623047 0)"/>
       <use xlink:href="#DejaVuSans-32" transform="translate(127.246094 0)"/>
       <use xlink:href="#DejaVuSans-30" transform="translate(190.869141 0)"/>
      </g>
     </g>
    </g>
    <g id="xtick_2">
     <g id="line2d_2">
      <g>
       <use xlink:href="#md30a77064a" x="325.054163" y="224.28" style="stroke: #000000; stroke-width: 0.8"/>
      </g>
     </g>
     <g id="text_2">
      <!-- 2021 -->
      <g transform="translate(312.329163 238.878438) scale(0.1 -0.1)">
       <defs>
        <path id="DejaVuSans-31" d="M 794 531 
L 1825 531 
L 1825 4091 
L 703 3866 
L 703 4441 
L 1819 4666 
L 2450 4666 
L 2450 531 
L 3481 531 
L 3481 0 
L 794 0 
L 794 531 
z
" transform="scale(0.015625)"/>
       </defs>
       <use xlink:href="#DejaVuSans-32"/>
       <use xlink:href="#DejaVuSans-30" transform="translate(63.623047 0)"/>
       <use xlink:href="#DejaVuSans-32" transform="translate(127.246094 0)"/>
       <use xlink:href="#DejaVuSans-31" transform="translate(190.869141 0)"/>
      </g>
     </g>
    </g>
    <g id="xtick_3">
     <g id="line2d_3">
      <g>
       <use xlink:href="#md30a77064a" x="471.228804" y="224.28" style="stroke: #000000; stroke-width: 0.8"/>
      </g>
     </g>
     <g id="text_3">
      <!-- 2022 -->
      <g transform="translate(458.503804 238.878438) scale(0.1 -0.1)">
       <use xlink:href="#DejaVuSans-32"/>
       <use xlink:href="#DejaVuSans-30" transform="translate(63.623047 0)"/>
       <use xlink:href="#DejaVuSans-32" transform="translate(127.246094 0)"/>
       <use xlink:href="#DejaVuSans-32" transform="translate(190.869141 0)"/>
      </g>
     </g>
    </g>
    <g id="xtick_4">
     <g id="line2d_4">
      <g>
       <use xlink:href="#md30a77064a" x="617.403445" y="224.28" style="stroke: #000000; stroke-width: 0.8"/>
      </g>
     </g>
     <g id="text_4">
      <!-- 2023 -->
      <g transform="translate(604.678445 238.878438) scale(0.1 -0.1)">
       <defs>
        <path id="DejaVuSans-33" d="M 2597 2516 
Q 3050 2419 3304 2112 
Q 3559 1806 3559 1356 
Q 3559 666 3084 287 
Q 2609 -91 1734 -91 
Q 1441 -91 1130 -33 
Q 819 25 488 141 
L 488 750 
Q 750 597 1062 519 
Q 1375 441 1716 441 
Q 2309 441 2620 675 
Q 2931 909 2931 1356 
Q 2931 1769 2642 2001 
Q 2353 2234 1838 2234 
L 1294 2234 
L 1294 2753 
L 1863 2753 
Q 2328 2753 2575 2939 
Q 2822 3125 2822 3475 
Q 2822 3834 2567 4026 
Q 2313 4219 1838 4219 
Q 1578 4219 1281 4162 
Q 984 4106 628 3988 
L 628 4550 
Q 988 4650 1302 4700 
Q 1616 4750 1894 4750 
Q 2613 4750 3031 4423 
Q 3450 4097 3450 3541 
Q 3450 3153 3228 2886 
Q 3006 2619 2597 2516 
z
" transform="scale(0.015625)"/>
       </defs>
       <use xlink:href="#DejaVuSans-32"/>
       <use xlink:href="#DejaVuSans-30" transform="translate(63.623047 0)"/>
       <use xlink:href="#DejaVuSans-32" transform="translate(127.246094 0)"/>
       <use xlink:href="#DejaVuSans-33" transform="translate(190.869141 0)"/>
      </g>
     </g>
    </g>
    <g id="xtick_5">
     <g id="line2d_5">
      <g>
       <use xlink:href="#md30a77064a" x="763.578086" y="224.28" style="stroke: #000000; stroke-width: 0.8"/>
      </g>
     </g>
     <g id="text_5">
      <!-- 2024 -->
      <g transform="translate(750.853086 238.878438) scale(0.1 -0.1)">
       <defs>
        <path id="DejaVuSans-34" d="M 2419 4116 
L 825 1625 
L 2419 1625 
L 2419 4116 
z
M 2253 4666 
L 3047 4666 
L 3047 1625 
L 3713 1625 
L 3713 1100 
L 3047 1100 
L 3047 0 
L 2419 0 
L 2419 1100 
L 313 1100 
L 313 1709 
L 2253 4666 
z
" transform="scale(0.015625)"/>
       </defs>
       <use xlink:href="#DejaVuSans-32"/>
       <use xlink:href="#DejaVuSans-30" transform="translate(63.623047 0)"/>
       <use xlink:href="#DejaVuSans-32" transform="translate(127.246094 0)"/>
       <use xlink:href="#DejaVuSans-34" transform="translate(190.869141 0)"/>
      </g>
     </g>
    </g>
    <g id="xtick_6">
     <g id="line2d_6">
      <g>
       <use xlink:href="#md30a77064a" x="910.153206" y="224.28" style="stroke: #000000; stroke-width: 0.8"/>
      </g>
     </g>
     <g id="text_6">
      <!-- 2025 -->
      <g transform="translate(897.428206 238.878438) scale(0.1 -0.1)">
       <defs>
        <path id="DejaVuSans-35" d="M 691 4666 
L 3169 4666 
L 3169 4134 
L 1269 4134 
L 1269 2991 
Q 1406 3038 1543 3061 
Q 1681 3084 1819 3084 
Q 2600 3084 3056 2656 
Q 3513 2228 3513 1497 
Q 3513 744 3044 326 
Q 2575 -91 1722 -91 
Q 1428 -91 1123 -41 
Q 819 9 494 109 
L 494 744 
Q 775 591 1075 516 
Q 1375 441 1709 441 
Q 2250 441 2565 725 
Q 2881 1009 2881 1497 
Q 2881 1984 2565 2268 
Q 2250 2553 1709 2553 
Q 1456 2553 1204 2497 
Q 953 2441 691 2322 
L 691 4666 
z
" transform="scale(0.015625)"/>
       </defs>
       <use xlink:href="#DejaVuSans-32"/>
       <use xlink:href="#DejaVuSans-30" transform="translate(63.623047 0)"/>
       <use xlink:href="#DejaVuSans-32" transform="translate(127.246094 0)"/>
       <use xlink:href="#DejaVuSans-35" transform="translate(190.869141 0)"/>
      </g>
     </g>
    </g>
   </g>
   <g id="matplotlib.axis_2">
    <g id="ytick_1">
     <g id="line2d_7">
      <defs>
       <path id="m70d213458f" d="M 0 0 
L -3.5 0 
" style="stroke: #000000; stroke-width: 0.8"/>
      </defs>
      <g>
       <use xlink:href="#m70d213458f" x="145.8" y="191.997204" style="stroke: #000000; stroke-width: 0.8"/>
      </g>
     </g>
     <g id="text_7">
      <!-- 20 -->
      <g transform="translate(126.075 195.796423) scale(0.1 -0.1)">
       <use xlink:href="#DejaVuSans-32"/>
       <use xlink:href="#DejaVuSans-30" transform="translate(63.623047 0)"/>
      </g>
     </g>
    </g>
    <g id="ytick_2">
     <g id="line2d_8">
      <g>
       <use xlink:href="#m70d213458f" x="145.8" y="152.270594" style="stroke: #000000; stroke-width: 0.8"/>
      </g>
     </g>
     <g id="text_8">
      <!-- 40 -->
      <g transform="translate(126.075 156.069813) scale(0.1 -0.1)">
       <use xlink:href="#DejaVuSans-34"/>
       <use xlink:href="#DejaVuSans-30" transform="translate(63.623047 0)"/>
      </g>
     </g>
    </g>
    <g id="ytick_3">
     <g id="line2d_9">
      <g>
       <use xlink:href="#m70d213458f" x="145.8" y="112.543985" style="stroke: #000000; stroke-width: 0.8"/>
      </g>
     </g>
     <g id="text_9">
      <!-- 60 -->
      <g transform="translate(126.075 116.343203) scale(0.1 -0.1)">
       <defs>
        <path id="DejaVuSans-36" d="M 2113 2584 
Q 1688 2584 1439 2293 
Q 1191 2003 1191 1497 
Q 1191 994 1439 701 
Q 1688 409 2113 409 
Q 2538 409 2786 701 
Q 3034 994 3034 1497 
Q 3034 2003 2786 2293 
Q 2538 2584 2113 2584 
z
M 3366 4563 
L 3366 3988 
Q 3128 4100 2886 4159 
Q 2644 4219 2406 4219 
Q 1781 4219 1451 3797 
Q 1122 3375 1075 2522 
Q 1259 2794 1537 2939 
Q 1816 3084 2150 3084 
Q 2853 3084 3261 2657 
Q 3669 2231 3669 1497 
Q 3669 778 3244 343 
Q 2819 -91 2113 -91 
Q 1303 -91 875 529 
Q 447 1150 447 2328 
Q 447 3434 972 4092 
Q 1497 4750 2381 4750 
Q 2619 4750 2861 4703 
Q 3103 4656 3366 4563 
z
" transform="scale(0.015625)"/>
       </defs>
       <use xlink:href="#DejaVuSans-36"/>
       <use xlink:href="#DejaVuSans-30" transform="translate(63.623047 0)"/>
      </g>
     </g>
    </g>
    <g id="ytick_4">
     <g id="line2d_10">
      <g>
       <use xlink:href="#m70d213458f" x="145.8" y="72.817375" style="stroke: #000000; stroke-width: 0.8"/>
      </g>
     </g>
     <g id="text_10">
      <!-- 80 -->
      <g transform="translate(126.075 76.616594) scale(0.1 -0.1)">
       <defs>
        <path id="DejaVuSans-38" d="M 2034 2216 
Q 1584 2216 1326 1975 
Q 1069 1734 1069 1313 
Q 1069 891 1326 650 
Q 1584 409 2034 409 
Q 2484 409 2743 651 
Q 3003 894 3003 1313 
Q 3003 1734 2745 1975 
Q 2488 2216 2034 2216 
z
M 1403 2484 
Q 997 2584 770 2862 
Q 544 3141 544 3541 
Q 544 4100 942 4425 
Q 1341 4750 2034 4750 
Q 2731 4750 3128 4425 
Q 3525 4100 3525 3541 
Q 3525 3141 3298 2862 
Q 3072 2584 2669 2484 
Q 3125 2378 3379 2068 
Q 3634 1759 3634 1313 
Q 3634 634 3220 271 
Q 2806 -91 2034 -91 
Q 1263 -91 848 271 
Q 434 634 434 1313 
Q 434 1759 690 2068 
Q 947 2378 1403 2484 
z
M 1172 3481 
Q 1172 3119 1398 2916 
Q 1625 2713 2034 2713 
Q 2441 2713 2670 2916 
Q 2900 3119 2900 3481 
Q 2900 3844 2670 4047 
Q 2441 4250 2034 4250 
Q 1625 4250 1398 4047 
Q 1172 3844 1172 3481 
z
" transform="scale(0.015625)"/>
       </defs>
       <use xlink:href="#DejaVuSans-38"/>
       <use xlink:href="#DejaVuSans-30" transform="translate(63.623047 0)"/>
      </g>
     </g>
    </g>
    <g id="ytick_5">
     <g id="line2d_11">
      <g>
       <use xlink:href="#m70d213458f" x="145.8" y="33.090766" style="stroke: #000000; stroke-width: 0.8"/>
      </g>
     </g>
     <g id="text_11">
      <!-- 100 -->
      <g transform="translate(119.7125 36.889984) scale(0.1 -0.1)">
       <use xlink:href="#DejaVuSans-31"/>
       <use xlink:href="#DejaVuSans-30" transform="translate(63.623047 0)"/>
       <use xlink:href="#DejaVuSans-30" transform="translate(127.246094 0)"/>
      </g>
     </g>
    </g>
   </g>
   <g id="line2d_12">
    <path d="M 186.889091 102.05881 
L 187.690048 91.128032 
L 188.891483 125.31319 
L 189.291962 116.064592 
L 189.69244 122.327111 
L 190.092919 126.690527 
L 190.493397 146.264289 
L 191.694833 154.325134 
L 192.095311 132.678758 
L 192.495789 123.334089 
L 192.896268 123.127968 
L 193.296746 128.535184 
L 194.498182 110.864183 
L 194.89866 107.895241 
L 195.299139 105.973025 
L 195.699617 104.909697 
L 196.100096 72.381686 
L 197.70201 72.861576 
L 198.102488 61.420101 
L 198.903445 79.27382 
L 200.10488 106.149793 
L 200.505359 120.925739 
L 200.905837 119.605202 
L 201.306316 133.452424 
L 201.706794 120.634307 
L 202.90823 123.5187 
L 203.308708 133.565449 
L 203.709187 125.391206 
L 204.109665 130.942876 
L 204.510144 146.225066 
L 205.711579 160.017103 
L 206.112057 161.7575 
L 206.512536 164.939154 
L 206.913014 170.002389 
L 207.313493 147.766398 
L 208.514928 159.293866 
L 208.915407 151.79947 
L 209.315885 151.662527 
L 209.716364 155.142086 
L 210.116842 160.452371 
L 211.318278 153.824535 
L 211.718756 145.669757 
L 212.119234 143.103984 
L 212.920191 129.45442 
L 214.121627 130.559519 
L 214.922584 120.335575 
L 215.323062 125.422737 
L 215.723541 105.467376 
L 216.924976 104.001822 
L 217.325455 100.266232 
L 217.725933 101.139875 
L 218.126411 98.640669 
L 219.728325 98.65624 
L 220.128804 108.724201 
L 220.529282 108.343452 
L 220.929761 107.201401 
L 221.330239 105.378118 
L 222.531675 116.949434 
L 222.932153 128.581745 
L 223.332632 103.795908 
L 223.73311 112.056289 
L 224.133589 98.372991 
L 225.335024 107.915517 
L 225.735502 103.903974 
L 226.135981 104.423241 
L 226.536459 106.85738 
L 226.936938 121.394836 
L 228.138373 125.841037 
L 228.538852 120.798164 
L 228.93933 129.355183 
L 229.339809 120.564785 
L 229.740287 108.918743 
L 230.941722 79.760317 
L 231.342201 105.009988 
L 231.742679 103.317338 
L 232.143158 100.111821 
L 232.543636 93.347112 
L 233.745072 80.79083 
L 234.14555 82.951428 
L 234.546029 71.438754 
L 234.946507 68.868836 
L 235.346986 68.362829 
L 236.9489 86.168582 
L 237.349378 97.142284 
L 237.749856 102.818392 
L 238.150335 98.37332 
L 239.35177 107.19745 
L 239.752249 94.424353 
L 240.152727 96.110496 
L 240.553206 102.507248 
L 240.953684 112.402889 
L 242.15512 129.498791 
L 242.555598 121.327212 
L 242.956077 115.452788 
L 243.356555 131.495734 
L 243.757033 135.819027 
L 244.958469 114.436763 
L 245.358947 110.272812 
L 245.759426 103.473426 
L 246.159904 116.861116 
L 246.560383 111.571365 
L 247.761818 103.624708 
L 248.162297 104.721506 
L 248.562775 114.955203 
L 248.963254 111.97022 
L 249.363732 120.781703 
L 250.565167 126.933085 
L 250.965646 127.71213 
L 251.366124 99.768732 
L 251.766603 101.421367 
L 253.368517 101.871189 
L 253.768995 94.26872 
L 254.169474 89.50203 
L 254.569952 81.997304 
L 254.970431 84.594107 
L 256.171866 113.016218 
L 256.572344 101.086861 
L 256.972823 98.144447 
L 257.373301 108.802457 
L 257.77378 89.889592 
L 258.975215 84.348596 
L 259.375694 100.591143 
L 259.776172 98.620321 
L 260.176651 114.672163 
L 260.577129 119.510615 
L 261.778565 113.7743 
L 262.179043 132.42509 
L 262.579522 133.978861 
L 262.98 127.740541 
L 263.380478 109.525666 
L 264.581914 107.37302 
L 264.982392 93.893272 
L 265.382871 87.477771 
L 265.783349 87.864978 
L 266.183828 103.364031 
L 267.385263 94.7726 
L 267.785742 115.475284 
L 268.18622 84.085749 
L 268.586699 85.287185 
L 268.987177 87.477966 
L 270.188612 64.274712 
L 270.989569 80.062266 
L 271.390048 80.03388 
L 271.790526 77.7649 
L 272.991962 80.587741 
L 274.193397 81.985868 
L 274.593876 72.721139 
L 275.795311 54.324311 
L 276.195789 55.289511 
L 276.596268 52.059983 
L 276.996746 102.323221 
L 277.397225 125.914403 
L 278.999139 139.1652 
L 279.399617 122.363528 
L 279.800096 129.585385 
L 280.200574 141.318247 
L 281.40201 129.994494 
L 281.802488 128.667893 
L 282.202967 136.04372 
L 282.603445 134.737104 
L 283.003923 146.73482 
L 284.205359 145.020942 
L 284.605837 150.802998 
L 285.006316 167.026114 
L 285.807273 127.788677 
L 287.008708 109.452692 
L 287.409187 120.45278 
L 287.809665 103.203542 
L 288.210144 97.123958 
L 288.610622 127.60081 
L 289.812057 117.65978 
L 290.212536 102.103824 
L 291.013493 91.781574 
L 291.413971 99.686924 
L 292.615407 94.151019 
L 293.015885 74.305005 
L 293.416364 83.665989 
L 293.816842 97.950114 
L 294.217321 107.979176 
L 296.219713 135.228224 
L 296.620191 121.700573 
L 297.02067 134.551435 
L 298.222105 153.709341 
L 298.622584 152.504565 
L 299.023062 167.313387 
L 299.423541 151.875396 
L 299.824019 176.681847 
L 301.025455 175.760885 
L 301.425933 158.429275 
L 301.826411 136.077935 
L 302.22689 125.432608 
L 302.627368 111.48017 
L 303.828804 132.658358 
L 304.229282 143.809206 
L 304.629761 131.605262 
L 305.030239 134.337779 
L 305.430718 130.056026 
L 306.632153 130.608133 
L 307.032632 118.940134 
L 307.43311 125.064142 
L 307.833589 114.390852 
L 308.234067 122.909285 
L 309.435502 129.972366 
L 309.835981 151.62724 
L 310.236459 154.112141 
L 311.037416 165.890391 
L 312.238852 139.830336 
L 312.63933 104.645198 
L 313.039809 125.122037 
L 313.440287 135.489044 
L 313.840766 118.0337 
L 315.042201 126.703081 
L 315.442679 136.120492 
L 315.843158 154.320073 
L 316.243636 152.717088 
L 316.644115 135.990627 
L 317.84555 124.617757 
L 318.246029 112.905494 
L 318.646507 131.801437 
L 319.046986 128.206272 
L 319.447464 138.925166 
L 320.6489 135.130849 
L 321.049378 146.401103 
L 321.449856 151.75051 
L 321.850335 162.89357 
L 323.452249 169.659164 
L 323.852727 156.586457 
L 324.253206 117.721534 
L 324.653684 126.940289 
L 326.255598 125.860237 
L 326.656077 126.120023 
L 327.056555 165.263163 
L 327.457033 128.890616 
L 327.857512 134.666837 
L 329.058947 121.247907 
L 329.459426 127.655031 
L 329.859904 124.489994 
L 330.260383 126.557123 
L 330.660861 136.144437 
L 332.262775 128.98963 
L 333.063732 115.486241 
L 333.464211 117.222878 
L 334.665646 119.944424 
L 335.066124 131.690827 
L 335.466603 124.792691 
L 335.867081 141.070563 
L 336.26756 140.90828 
L 337.468995 144.137278 
L 337.869474 130.327586 
L 338.269952 132.443608 
L 338.670431 118.095684 
L 339.070909 107.800983 
L 340.272344 93.781951 
L 340.672823 106.715785 
L 341.073301 106.731759 
L 341.47378 92.206293 
L 341.874258 100.176433 
L 343.876651 84.106332 
L 344.277129 88.611316 
L 344.677608 85.126167 
L 345.879043 107.107491 
L 346.279522 118.844856 
L 346.68 111.571545 
L 347.080478 138.651503 
L 347.480957 130.365764 
L 349.082871 147.750112 
L 349.883828 183.529802 
L 350.284306 178.401794 
L 351.485742 195.34542 
L 351.88622 169.33923 
L 352.286699 169.094955 
L 352.687177 160.544907 
L 353.087656 155.707167 
L 354.289091 146.874851 
L 354.689569 151.561607 
L 355.090048 131.659984 
L 355.490526 150.882826 
L 355.891005 150.970707 
L 357.09244 136.514259 
L 357.492919 126.720318 
L 357.893397 126.573307 
L 358.293876 130.769317 
L 358.694354 102.625367 
L 359.895789 119.705242 
L 360.296268 120.51929 
L 360.696746 121.802173 
L 361.097225 106.388885 
L 362.699139 109.739894 
L 363.099617 116.293737 
L 363.500096 111.141771 
L 363.900574 84.441155 
L 364.301053 85.074929 
L 365.502488 78.545121 
L 365.902967 68.978269 
L 366.303445 67.965972 
L 366.703923 58.064356 
L 367.104402 67.915406 
L 368.305837 86.08399 
L 369.106794 92.447479 
L 369.507273 111.975416 
L 369.907751 108.405917 
L 371.109187 102.532926 
L 371.910144 113.789415 
L 372.310622 114.344921 
L 372.7111 136.723069 
L 373.912536 151.90276 
L 374.313014 153.416671 
L 374.713493 178.423409 
L 375.113971 172.257262 
L 375.51445 149.453854 
L 376.715885 157.686562 
L 377.116364 163.123772 
L 377.516842 163.870194 
L 377.917321 183.265587 
L 378.317799 167.557292 
L 379.519234 167.210585 
L 379.919713 168.031857 
L 380.320191 167.955103 
L 380.72067 142.924335 
L 381.121148 128.515486 
L 382.322584 101.794561 
L 382.723062 103.016944 
L 383.123541 103.230764 
L 383.524019 115.326824 
L 383.924498 84.929401 
L 385.526411 85.187399 
L 385.92689 58.985127 
L 386.327368 53.948799 
L 386.727847 53.796582 
L 387.929282 50.293407 
L 388.329761 50.8239 
L 388.730239 55.082629 
L 389.130718 57.894449 
L 389.531196 57.755829 
L 390.732632 60.89905 
L 391.13311 72.283895 
L 391.533589 72.624151 
L 391.934067 56.4172 
L 392.334545 62.54388 
L 393.535981 72.645553 
L 393.936459 73.249387 
L 394.336938 73.488136 
L 394.737416 79.552022 
L 395.137895 88.444526 
L 396.33933 69.398366 
L 396.739809 65.10765 
L 397.540766 68.423815 
L 397.941244 67.66328 
L 399.543158 55.695722 
L 399.943636 69.939739 
L 400.344115 98.925352 
L 400.744593 95.743228 
L 401.946029 81.575968 
L 402.746986 113.480424 
L 403.147464 137.314397 
L 403.547943 148.19479 
L 404.749378 155.705679 
L 405.149856 159.100946 
L 405.550335 142.153837 
L 405.950813 142.616499 
L 406.351292 148.389497 
L 407.552727 156.35197 
L 407.953206 153.102853 
L 408.353684 139.744858 
L 408.754163 139.518639 
L 409.154641 152.055422 
L 410.356077 142.122357 
L 410.756555 132.959273 
L 411.557512 69.507342 
L 411.95799 88.176308 
L 413.159426 84.16755 
L 413.559904 115.143347 
L 413.960383 129.020493 
L 414.360861 121.800011 
L 414.76134 105.238204 
L 415.962775 110.859727 
L 416.363254 133.642864 
L 416.763732 148.344953 
L 417.164211 125.765445 
L 417.564689 112.195079 
L 418.766124 98.704114 
L 419.166603 107.351287 
L 419.567081 106.654913 
L 419.96756 104.007169 
L 420.368038 96.355264 
L 421.569474 87.907347 
L 422.370431 90.739313 
L 422.770909 94.635387 
L 423.171388 84.653419 
L 424.773301 76.650037 
L 425.17378 74.029842 
L 425.974737 93.985128 
L 427.176172 126.77582 
L 427.576651 119.236631 
L 427.977129 128.172548 
L 428.377608 126.610446 
L 428.778086 158.169385 
L 429.979522 176.271736 
L 430.38 165.766536 
L 430.780478 144.729469 
L 431.180957 130.520192 
L 431.581435 149.300088 
L 432.782871 153.490979 
L 433.183349 162.806593 
L 433.583828 163.062779 
L 433.984306 165.575825 
L 434.384785 160.549828 
L 435.58622 174.687724 
L 435.986699 161.214593 
L 436.387177 155.38165 
L 436.787656 144.638451 
L 437.188134 136.956895 
L 438.389569 141.292509 
L 438.790048 155.390559 
L 439.190526 161.792921 
L 439.591005 138.326223 
L 441.192919 100.326747 
L 441.593397 94.135598 
L 441.993876 102.389266 
L 442.394354 94.816609 
L 442.794833 61.201875 
L 443.996268 63.214452 
L 444.396746 55.670442 
L 444.797225 66.534508 
L 445.197703 55.909807 
L 445.598182 49.353634 
L 446.799617 47.934191 
L 447.200096 47.220929 
L 447.600574 48.717878 
L 448.001053 43.263832 
L 448.401531 44.775133 
L 449.602967 43.567175 
L 450.003445 42.773089 
L 450.403923 65.779562 
L 450.804402 63.110073 
L 451.20488 64.362778 
L 452.406316 76.073537 
L 452.806794 70.78181 
L 453.207273 88.275718 
L 453.607751 79.703108 
L 454.00823 75.806368 
L 455.209665 90.017509 
L 455.610144 93.162508 
L 456.010622 105.871869 
L 456.811579 117.762836 
L 458.013014 112.287402 
L 458.413493 117.272611 
L 458.813971 117.609795 
L 459.21445 119.163851 
L 459.614928 130.303438 
L 460.816364 132.30187 
L 461.216842 119.379486 
L 461.617321 117.078283 
L 462.017799 139.944179 
L 462.418278 151.408361 
L 463.619713 156.613808 
L 464.020191 154.196925 
L 464.42067 145.544888 
L 464.821148 149.953455 
L 465.221627 166.291001 
L 466.423062 163.717507 
L 466.823541 147.21378 
L 467.224019 149.91482 
L 467.624498 139.735507 
L 469.226411 126.36312 
L 469.62689 148.301848 
L 470.027368 146.487354 
L 470.427847 139.919202 
L 470.828325 139.011627 
L 472.029761 113.882298 
L 472.430239 123.928519 
L 472.830718 158.840408 
L 473.231196 134.65638 
L 473.631675 138.154255 
L 474.83311 135.692112 
L 475.233589 146.758354 
L 475.634067 148.656533 
L 476.435024 177.538837 
L 478.036938 179.982348 
L 479.238373 187.703194 
L 480.439809 198.543262 
L 480.840287 199.238796 
L 481.240766 185.062283 
L 481.641244 198.498095 
L 482.041722 179.304039 
L 483.243158 159.139951 
L 483.643636 162.302831 
L 484.044115 157.33813 
L 484.444593 156.447137 
L 484.845072 156.401675 
L 486.046507 143.817942 
L 486.446986 131.990581 
L 486.847464 108.126979 
L 487.247943 109.356412 
L 487.648421 127.79664 
L 488.849856 115.91249 
L 489.650813 96.599408 
L 490.45177 138.858208 
L 492.053684 141.873242 
L 492.454163 153.421814 
L 492.854641 133.872142 
L 493.25512 133.590486 
L 494.456555 134.946274 
L 495.257512 151.222826 
L 495.65799 148.85012 
L 496.058469 141.029558 
L 497.259904 154.83985 
L 497.660383 178.078829 
L 498.060861 160.594136 
L 498.46134 149.598066 
L 498.861818 147.163559 
L 500.063254 151.193755 
L 500.463732 127.317723 
L 500.864211 126.008006 
L 501.264689 127.127334 
L 501.665167 116.566627 
L 502.866603 106.21472 
L 503.267081 113.061185 
L 503.66756 116.792543 
L 504.068038 95.286385 
L 504.468517 83.306595 
L 505.669952 81.916907 
L 506.070431 86.197103 
L 506.470909 93.167347 
L 506.871388 91.471415 
L 507.271866 89.252034 
L 508.473301 94.157709 
L 508.87378 119.791619 
L 510.075215 162.651526 
L 511.276651 167.978408 
L 511.677129 165.52348 
L 512.077608 188.291016 
L 512.478086 190.204145 
L 514.08 190.232576 
L 514.480478 190.546022 
L 514.880957 189.591215 
L 515.281435 192.820544 
L 515.681914 193.13121 
L 516.883349 196.760274 
L 517.283828 195.776497 
L 517.684306 191.657077 
L 518.084785 171.613059 
L 518.485263 172.385719 
L 519.686699 153.65756 
L 520.087177 149.901311 
L 520.487656 149.545369 
L 520.888134 153.482392 
L 521.288612 160.417816 
L 522.490048 174.679253 
L 522.890526 163.897948 
L 523.291005 161.998233 
L 523.691483 160.730168 
L 524.091962 149.372065 
L 525.293397 144.830019 
L 525.693876 134.264964 
L 526.094354 154.831567 
L 526.494833 144.646604 
L 526.895311 158.06097 
L 528.096746 156.544509 
L 528.497225 169.679902 
L 528.897703 150.13792 
L 529.298182 139.729847 
L 529.69866 114.654168 
L 531.300574 121.60831 
L 531.701053 114.3439 
L 532.101531 98.836803 
L 532.50201 121.750511 
L 533.703445 115.748758 
L 534.103923 123.446016 
L 534.504402 109.20366 
L 535.305359 129.052045 
L 536.506794 145.426901 
L 536.907273 135.893973 
L 537.307751 137.405319 
L 537.70823 157.526341 
L 538.108708 167.857064 
L 539.710622 156.273608 
L 540.1111 154.993616 
L 540.511579 177.149144 
L 540.912057 153.47987 
L 542.113493 157.130256 
L 542.513971 167.036102 
L 542.91445 168.285058 
L 543.314928 166.642475 
L 543.715407 163.053735 
L 545.317321 142.019473 
L 545.717799 142.375658 
L 546.118278 141.803817 
L 546.518756 128.589329 
L 547.720191 143.408885 
L 548.12067 157.153015 
L 548.521148 152.77467 
L 548.921627 146.75392 
L 549.322105 157.521843 
L 550.523541 146.336325 
L 550.924019 114.102592 
L 551.324498 93.98688 
L 551.724976 82.166894 
L 552.125455 84.612309 
L 553.32689 96.285893 
L 553.727368 109.14105 
L 554.127847 102.96887 
L 554.528325 100.558286 
L 554.928804 84.057691 
L 556.130239 80.224535 
L 556.530718 80.202394 
L 556.931196 79.059622 
L 557.331675 79.541529 
L 557.732153 87.407789 
L 558.933589 120.496482 
L 559.334067 143.304666 
L 560.535502 109.276803 
L 561.736938 97.287427 
L 562.537895 126.885328 
L 562.938373 123.188889 
L 563.338852 140.552897 
L 565.341244 158.986853 
L 565.741722 145.913997 
L 566.142201 150.599695 
L 567.343636 148.122373 
L 567.744115 167.487693 
L 568.144593 169.323736 
L 568.545072 191.267128 
L 568.94555 199.101419 
L 570.547464 199.218951 
L 570.947943 191.519467 
L 571.348421 194.896931 
L 571.7489 180.991929 
L 572.950335 171.762414 
L 573.350813 185.290517 
L 573.751292 186.134278 
L 574.15177 202.37865 
L 574.552249 185.833063 
L 575.753684 176.742847 
L 576.154163 175.421772 
L 576.95512 162.445333 
L 577.355598 158.49112 
L 578.557033 160.257488 
L 578.957512 162.254977 
L 579.35799 160.867667 
L 579.758469 180.286869 
L 580.158947 185.117647 
L 581.360383 150.190492 
L 581.760861 131.464704 
L 582.16134 125.370709 
L 582.561818 134.202443 
L 582.962297 160.409764 
L 584.163732 163.361528 
L 584.564211 166.842232 
L 584.964689 157.395353 
L 585.365167 144.328685 
L 585.765646 151.988942 
L 586.967081 141.797043 
L 587.36756 146.793111 
L 587.768038 135.848858 
L 588.168517 131.301309 
L 588.568995 133.351631 
L 589.770431 145.477632 
L 590.170909 131.360978 
L 590.571388 136.857701 
L 591.372344 86.679405 
L 592.57378 94.088315 
L 592.974258 91.108006 
L 593.374737 106.231998 
L 593.775215 81.088256 
L 594.175694 80.266117 
L 595.377129 79.556216 
L 595.777608 77.365676 
L 596.178086 102.683755 
L 596.578565 85.733658 
L 596.979043 82.588668 
L 598.180478 88.107688 
L 598.580957 77.409827 
L 598.981435 95.129582 
L 599.381914 105.721171 
L 599.782392 104.440752 
L 600.983828 106.633876 
L 601.384306 93.699591 
L 601.784785 91.44855 
L 602.585742 102.524748 
L 603.787177 111.71416 
L 604.187656 118.124798 
L 604.588134 91.619412 
L 605.389091 122.582703 
L 606.590526 126.966435 
L 606.991005 143.432508 
L 607.391483 128.510037 
L 607.791962 108.715755 
L 608.19244 106.723955 
L 609.393876 99.040065 
L 609.794354 100.925486 
L 610.194833 114.267379 
L 610.595311 122.414825 
L 610.995789 121.413727 
L 612.197225 123.480806 
L 612.597703 146.836421 
L 612.998182 142.950963 
L 613.39866 154.610886 
L 613.799139 153.089636 
L 615.401053 158.132532 
L 615.801531 161.330696 
L 616.20201 170.592286 
L 616.602488 168.78425 
L 618.204402 183.31455 
L 618.60488 185.8187 
L 619.005359 186.448826 
L 619.405837 166.278828 
L 620.607273 146.760672 
L 621.007751 137.687596 
L 621.40823 133.708437 
L 621.808708 132.254642 
L 622.209187 105.37762 
L 623.8111 93.685967 
L 624.211579 75.091611 
L 624.612057 88.472352 
L 625.012536 84.266456 
L 626.213971 75.6957 
L 626.61445 69.314789 
L 627.014928 71.151398 
L 627.415407 58.204696 
L 627.815885 58.310185 
L 629.017321 87.489856 
L 629.417799 86.843222 
L 629.818278 79.184289 
L 630.218756 77.93932 
L 630.619234 89.389559 
L 631.82067 94.640807 
L 632.621627 72.944039 
L 633.022105 77.553812 
L 633.422584 106.232774 
L 634.624019 102.264586 
L 635.024498 94.019125 
L 635.424976 100.312982 
L 635.825455 115.046729 
L 636.225933 107.21601 
L 637.827847 120.250964 
L 638.228325 134.805499 
L 638.628804 112.934365 
L 639.029282 110.117122 
L 640.230718 108.317267 
L 640.631196 121.080131 
L 641.031675 127.323396 
L 641.432153 122.814356 
L 641.832632 105.304028 
L 643.034067 113.81177 
L 643.434545 128.661987 
L 643.835024 117.061368 
L 644.235502 116.850611 
L 644.635981 115.033967 
L 645.837416 104.725595 
L 646.237895 97.039869 
L 646.638373 123.804394 
L 647.038852 102.464101 
L 647.43933 102.751995 
L 648.640766 96.094749 
L 649.041244 83.605593 
L 649.441722 86.187956 
L 649.842201 85.06137 
L 650.242679 86.652808 
L 651.444115 86.362489 
L 651.844593 96.833374 
L 652.245072 74.18275 
L 652.64555 59.032607 
L 653.046029 57.432867 
L 654.247464 61.482458 
L 654.647943 77.288365 
L 655.048421 106.157877 
L 655.4489 106.563603 
L 657.050813 101.578534 
L 657.85177 131.954663 
L 658.252249 146.22132 
L 658.652727 132.814914 
L 659.854163 123.258437 
L 660.254641 110.338876 
L 660.65512 114.817492 
L 661.055598 137.205407 
L 661.456077 144.518247 
L 662.657512 149.752469 
L 663.05799 154.002594 
L 663.458469 131.104454 
L 663.858947 129.18815 
L 664.259426 129.502292 
L 665.460861 106.061127 
L 665.86134 106.556964 
L 666.662297 120.851481 
L 667.062775 110.997548 
L 668.264211 112.988907 
L 668.664689 124.367421 
L 669.065167 108.48156 
L 669.465646 113.552005 
L 669.866124 115.976899 
L 671.06756 97.235335 
L 671.468038 101.287236 
L 672.268995 88.439431 
L 672.669474 103.643585 
L 673.870909 93.214426 
L 674.271388 94.673193 
L 674.671866 93.029898 
L 675.072344 65.621713 
L 675.472823 64.49758 
L 677.074737 55.538536 
L 677.475215 79.732373 
L 677.875694 72.329901 
L 678.276172 74.076698 
L 679.477608 76.800928 
L 679.878086 81.742826 
L 680.278565 93.667533 
L 680.679043 95.210408 
L 681.079522 91.195173 
L 682.280957 88.324747 
L 682.681435 80.483955 
L 683.081914 75.099765 
L 683.482392 100.373583 
L 683.882871 104.968267 
L 685.484785 105.228052 
L 685.885263 89.285127 
L 686.285742 100.343282 
L 687.887656 120.168721 
L 688.288134 107.011378 
L 688.688612 102.758803 
L 689.089091 112.370712 
L 689.489569 104.742803 
L 690.691005 108.307916 
L 691.491962 120.313717 
L 691.89244 142.412834 
L 692.292919 134.075523 
L 693.494354 137.926022 
L 693.894833 149.148885 
L 694.295311 123.009727 
L 694.695789 106.022945 
L 695.096268 102.43955 
L 696.297703 75.756429 
L 696.698182 76.655948 
L 697.09866 71.169327 
L 697.499139 89.710687 
L 697.899617 113.706814 
L 699.101053 112.280368 
L 699.501531 104.163214 
L 699.90201 104.303259 
L 700.302488 104.015631 
L 700.702967 95.833834 
L 701.904402 97.224219 
L 702.30488 108.73888 
L 702.705359 147.697797 
L 703.105837 141.154358 
L 703.506316 150.086729 
L 704.707751 153.653566 
L 705.10823 156.264999 
L 705.508708 160.202378 
L 705.909187 152.378692 
L 706.309665 167.011063 
L 707.5111 147.57165 
L 707.911579 144.349908 
L 708.312057 151.465321 
L 708.712536 160.900561 
L 709.113014 161.043409 
L 710.31445 129.429433 
L 711.115407 115.853471 
L 711.515885 116.484104 
L 711.916364 128.652089 
L 713.117799 118.896708 
L 713.518278 93.241519 
L 713.918756 90.022778 
L 714.319234 74.861947 
L 714.719713 94.972802 
L 716.321627 95.707258 
L 716.722105 106.076591 
L 717.523062 117.130234 
L 718.724498 147.788884 
L 719.124976 139.894467 
L 719.525455 149.062722 
L 719.925933 148.47981 
L 720.326411 152.81778 
L 721.527847 162.245182 
L 721.928325 197.432153 
L 722.328804 211.332097 
L 722.729282 215.46 
L 723.129761 202.909463 
L 724.331196 193.449322 
L 724.731675 188.527501 
L 725.532632 160.420751 
L 725.93311 151.315453 
L 727.134545 133.29968 
L 727.535024 151.121905 
L 727.935502 146.475236 
L 728.335981 124.45227 
L 728.736459 115.961388 
L 729.937895 116.418519 
L 730.738852 74.443524 
L 731.13933 76.427072 
L 731.539809 101.287494 
L 732.741244 93.426056 
L 733.141722 120.499023 
L 733.542201 139.035315 
L 733.942679 143.033738 
L 734.343158 159.38808 
L 735.544593 136.606121 
L 735.945072 135.298708 
L 736.746029 169.385657 
L 737.146507 165.591556 
L 738.347943 164.342038 
L 738.748421 175.794363 
L 739.1489 162.594219 
L 739.549378 145.44106 
L 741.151292 119.860364 
L 741.55177 103.270386 
L 741.952249 99.098223 
L 742.352727 89.904203 
L 742.753206 90.805496 
L 743.954641 92.682307 
L 744.35512 64.644894 
L 744.755598 54.106363 
L 745.156077 53.327441 
L 745.556555 57.572767 
L 746.75799 49.45841 
L 747.158469 59.989756 
L 747.558947 83.108661 
L 748.359904 104.712157 
L 749.56134 106.788892 
L 749.961818 113.638366 
L 750.362297 116.162273 
L 751.163254 149.377992 
L 752.364689 162.814246 
L 752.765167 162.507316 
L 753.165646 164.456825 
L 753.566124 158.460777 
L 753.966603 147.57516 
L 755.168038 165.106725 
L 756.369474 126.971268 
L 756.769952 126.317762 
L 757.971388 112.722921 
L 758.371866 119.79078 
L 758.772344 120.97052 
L 759.172823 114.773688 
L 759.573301 103.600325 
L 761.175215 107.571372 
L 761.575694 93.237141 
L 762.376651 107.46065 
L 763.978565 114.403941 
L 764.379043 133.49032 
L 764.779522 133.515205 
L 765.18 124.076119 
L 766.381435 103.416688 
L 766.781914 105.296884 
L 767.182392 92.989679 
L 767.582871 71.466229 
L 767.983349 76.548062 
L 769.585263 68.202811 
L 769.985742 74.21936 
L 770.38622 71.200152 
L 770.786699 65.314746 
L 771.988134 64.962697 
L 772.388612 48.07666 
L 772.789091 39.06 
L 773.189569 39.131631 
L 773.590048 47.674458 
L 775.191962 50.544286 
L 775.59244 71.614601 
L 775.992919 68.509245 
L 776.393397 60.315542 
L 777.594833 57.951477 
L 777.995311 65.459079 
L 778.395789 64.049552 
L 778.796268 72.934524 
L 779.196746 68.121156 
L 780.398182 68.31118 
L 780.79866 72.357667 
L 781.199139 69.274916 
L 781.599617 74.608995 
L 782.000096 78.191909 
L 784.002488 105.781008 
L 784.402967 83.873851 
L 784.803445 88.891195 
L 786.00488 95.111019 
L 786.405359 91.229761 
L 786.805837 101.661969 
L 787.206316 95.411122 
L 787.606794 93.799465 
L 789.609187 84.229511 
L 790.009665 72.613771 
L 790.410144 93.762142 
L 791.611579 88.506937 
L 792.012057 73.327466 
L 792.412536 92.894787 
L 792.813014 105.511635 
L 793.213493 106.507833 
L 794.414928 103.714991 
L 794.815407 97.792706 
L 795.215885 98.718141 
L 795.616364 103.157425 
L 796.016842 103.392174 
L 797.218278 103.433049 
L 798.019234 140.683943 
L 798.419713 120.700651 
L 800.021627 111.918973 
L 800.422105 146.770478 
L 800.822584 144.002228 
L 801.223062 144.610149 
L 801.623541 131.493753 
L 802.824976 139.373342 
L 803.225455 152.81161 
L 803.625933 148.637841 
L 804.026411 135.95782 
L 804.42689 159.364293 
L 805.628325 169.721882 
L 806.028804 154.696037 
L 806.429282 158.127137 
L 806.829761 155.425454 
L 807.230239 175.041083 
L 808.431675 160.277596 
L 808.832153 149.585504 
L 809.232632 148.899967 
L 809.63311 146.327526 
L 810.033589 131.003258 
L 811.235024 126.561668 
L 811.635502 133.969482 
L 812.035981 151.084174 
L 812.836938 125.721288 
L 814.038373 121.582385 
L 814.438852 116.827616 
L 814.83933 118.521913 
L 815.239809 96.031538 
L 815.640287 100.323782 
L 816.841722 105.723036 
L 817.242201 90.828729 
L 817.642679 90.17597 
L 818.043158 104.273902 
L 818.443636 113.828298 
L 819.645072 100.634241 
L 820.04555 80.085262 
L 820.446029 89.404496 
L 820.846507 77.13324 
L 821.246986 78.274151 
L 822.8489 60.250973 
L 823.249378 58.748857 
L 823.649856 71.681756 
L 824.050335 76.847045 
L 825.25177 71.566977 
L 825.652249 71.112519 
L 826.052727 68.719947 
L 826.453206 73.005569 
L 826.853684 66.436938 
L 828.05512 67.564607 
L 828.455598 71.496982 
L 828.856077 66.338875 
L 829.256555 69.933938 
L 829.657033 70.296286 
L 830.858469 82.659512 
L 831.258947 77.837802 
L 832.059904 79.74946 
L 833.661818 125.476886 
L 834.062297 113.681052 
L 834.462775 123.751731 
L 834.863254 125.998637 
L 835.263732 126.765755 
L 836.465167 127.050311 
L 836.865646 128.725819 
L 837.266124 126.138949 
L 838.067081 140.422135 
L 839.268517 140.19355 
L 839.668995 131.600171 
L 840.069474 133.789254 
L 840.469952 139.007533 
L 840.870431 126.93862 
L 842.071866 107.28018 
L 842.872823 151.836297 
L 843.273301 139.001122 
L 843.67378 144.417742 
L 844.875215 133.880379 
L 845.275694 132.564429 
L 845.676172 158.554992 
L 846.076651 157.889944 
L 846.477129 161.764017 
L 847.678565 172.105849 
L 848.079043 189.923838 
L 848.479522 149.698584 
L 848.88 162.736775 
L 849.280478 163.915351 
L 850.481914 168.412499 
L 850.882392 152.80504 
L 851.282871 164.267874 
L 851.683349 150.274352 
L 852.083828 160.406666 
L 853.285263 151.668781 
L 853.685742 129.676984 
L 854.486699 119.023023 
L 854.887177 114.727122 
L 856.088612 95.415282 
L 856.489091 115.471003 
L 856.889569 96.550745 
L 857.290048 103.327395 
L 857.690526 80.241785 
L 858.891962 91.686962 
L 859.29244 74.800982 
L 859.692919 89.069196 
L 860.093397 109.26349 
L 860.493876 112.868683 
L 863.297225 171.265577 
L 864.49866 175.836338 
L 864.899139 168.503531 
L 865.299617 151.512343 
L 865.700096 140.303406 
L 866.100574 151.95014 
L 867.30201 151.037442 
L 867.702488 157.187634 
L 868.102967 156.493252 
L 868.503445 131.79316 
L 868.903923 139.507358 
L 870.105359 109.52308 
L 870.505837 94.769866 
L 870.906316 92.262716 
L 871.306794 74.669036 
L 871.707273 90.611866 
L 872.908708 93.308783 
L 873.309187 132.071084 
L 873.709665 133.395367 
L 874.510622 107.804819 
L 875.712057 97.457772 
L 876.112536 80.599201 
L 876.513014 88.140148 
L 876.913493 76.558429 
L 877.313971 76.945572 
L 878.515407 78.790039 
L 878.915885 109.894799 
L 879.316364 102.875318 
L 879.716842 91.657366 
L 880.117321 90.105835 
L 881.318756 66.336464 
L 881.719234 68.453841 
L 882.119713 89.245306 
L 882.520191 91.085436 
L 882.92067 93.809059 
L 884.122105 108.281682 
L 884.522584 105.632306 
L 884.923062 118.192354 
L 885.323541 137.708343 
L 885.724019 139.461746 
L 886.925455 118.496092 
L 887.325933 119.200784 
L 887.726411 108.461007 
L 888.12689 104.120223 
L 888.527368 120.868492 
L 889.728804 127.798868 
L 890.129282 107.627891 
L 890.529761 116.312356 
L 890.930239 117.811831 
L 891.330718 128.715808 
L 892.532153 135.11283 
L 893.33311 99.700368 
L 893.733589 102.959849 
L 894.134067 118.482267 
L 895.335502 141.157924 
L 896.136459 168.114877 
L 896.937416 156.099736 
L 898.138852 150.046427 
L 898.53933 154.603445 
L 898.939809 135.300434 
L 899.340287 136.781609 
L 899.740766 131.118681 
L 900.942201 135.883531 
L 901.342679 166.367981 
L 901.743158 149.574675 
L 902.143636 156.021004 
L 902.544115 152.737074 
L 903.74555 144.160981 
L 904.146029 151.124476 
L 904.546507 150.891083 
L 904.946986 154.916103 
L 905.347464 142.930803 
L 906.5489 133.836128 
L 906.949378 145.949208 
L 907.750335 146.470074 
L 908.150813 147.170192 
L 909.352249 136.334703 
L 909.752727 134.766217 
L 910.553684 135.451922 
L 910.954163 113.169912 
L 912.155598 93.430463 
L 912.556077 114.724941 
L 912.956555 110.536949 
L 913.757512 117.57123 
L 914.958947 127.105658 
L 915.359426 138.864411 
L 915.759904 140.023068 
L 916.160383 146.504511 
L 916.560861 136.756049 
L 918.162775 124.953673 
L 918.963732 108.453493 
L 920.565646 168.226148 
L 920.966124 158.486761 
L 921.366603 154.519445 
L 921.767081 152.945434 
L 922.16756 153.343848 
L 923.368995 154.09798 
L 923.769474 149.451893 
L 924.169952 146.918769 
L 924.570431 138.533948 
L 924.970909 142.652696 
L 926.172344 141.783577 
L 926.572823 152.248344 
L 926.973301 154.302118 
L 927.37378 142.449906 
L 927.774258 93.274487 
L 929.376172 107.690975 
L 929.776651 90.391916 
L 930.177129 90.501382 
L 930.577608 94.617591 
L 931.779043 97.25423 
L 932.179522 112.662756 
L 932.58 115.815943 
L 932.980478 150.868091 
L 933.380957 142.278726 
L 934.582392 166.62353 
L 935.383349 156.337315 
L 935.783828 173.312039 
L 936.184306 176.75894 
L 937.385742 182.922529 
L 937.78622 178.714452 
L 938.186699 166.262097 
L 938.587177 160.782195 
L 938.987656 144.988143 
L 940.189091 143.015108 
L 940.589569 156.306874 
L 940.990048 136.988502 
L 941.390526 144.356077 
L 941.791005 123.973487 
L 942.99244 120.3596 
L 943.392919 124.762055 
L 943.793397 125.245588 
L 944.193876 135.190681 
L 944.594354 125.809361 
L 945.795789 133.32253 
L 946.196268 148.301351 
L 946.596746 147.032674 
L 946.997225 184.93375 
L 947.397703 190.766151 
L 948.599139 174.325227 
L 948.999617 183.312984 
L 949.400096 139.547471 
L 949.800574 148.041735 
L 950.201053 148.670387 
L 951.402488 148.016427 
L 951.802967 135.075814 
L 952.203445 143.272001 
L 952.603923 144.967739 
L 954.205837 149.167047 
L 954.606316 148.809525 
L 955.006794 143.082472 
L 955.807751 106.459431 
L 957.009187 114.888267 
L 957.409665 111.972065 
L 957.810144 144.649309 
L 958.210622 122.330978 
L 958.6111 123.396862 
L 959.812536 124.648569 
L 960.213014 128.959499 
L 960.613493 96.126867 
L 961.013971 82.686365 
L 961.41445 62.037319 
L 962.615885 58.112509 
L 963.016364 55.910543 
L 963.416842 54.86908 
L 963.817321 60.631843 
L 964.217799 47.646596 
L 965.419234 47.7027 
L 965.819713 53.928179 
L 966.220191 69.959467 
L 966.62067 72.226424 
L 967.021148 76.635576 
L 968.623062 70.164481 
L 969.023541 77.67685 
L 969.424019 72.675052 
L 969.824498 86.082989 
L 971.025933 92.199769 
L 971.426411 97.831808 
L 971.82689 108.832167 
L 972.227368 114.820666 
L 972.627847 111.691753 
L 973.829282 109.817899 
L 974.630239 95.514842 
L 975.030718 93.208567 
L 975.431196 99.589179 
L 976.632632 102.799406 
L 977.03311 102.296375 
L 977.433589 109.835655 
L 978.234545 98.124854 
L 979.435981 103.497731 
L 979.836459 103.830016 
L 980.637416 78.560604 
L 981.037895 76.978292 
L 982.23933 78.025744 
L 982.639809 102.862003 
L 983.040287 90.605062 
L 983.440766 90.73968 
L 985.042679 82.302451 
L 985.443158 83.812313 
L 985.843636 76.955494 
L 986.244115 77.139028 
L 986.644593 68.315414 
L 987.846029 72.841253 
L 988.246507 69.646235 
L 988.646986 76.562149 
L 989.047464 75.282762 
L 989.447943 82.407895 
L 990.649378 87.945569 
L 991.049856 86.292402 
L 991.450335 86.654683 
L 991.850813 85.113637 
L 992.251292 80.822193 
L 993.452727 78.518335 
L 993.853206 89.49361 
L 994.253684 84.984209 
L 994.654163 92.650015 
L 995.054641 105.523609 
L 996.256077 106.241763 
L 996.656555 113.592607 
L 997.057033 114.646532 
L 997.457512 109.759033 
L 997.85799 102.474889 
L 999.059426 88.309044 
L 999.459904 92.999041 
L 999.860383 106.253896 
L 1000.260861 104.201426 
L 1000.66134 119.431649 
L 1001.862775 109.866913 
L 1002.263254 143.943901 
L 1002.663732 140.559889 
L 1003.064211 127.660016 
L 1003.464689 141.05282 
L 1004.666124 125.763322 
L 1005.066603 122.670363 
L 1005.467081 128.790229 
L 1006.268038 160.721813 
L 1007.869952 173.474013 
L 1008.670909 167.716768 
L 1008.670909 167.716768 
" clip-path="url(#paba481639a)" style="fill: none; stroke: #1f77b4; stroke-width: 1.5; stroke-linecap: square"/>
   </g>
   <g id="patch_3">
    <path d="M 145.8 224.28 
L 145.8 30.24 
" style="fill: none; stroke: #000000; stroke-width: 0.8; stroke-linejoin: miter; stroke-linecap: square"/>
   </g>
   <g id="patch_4">
    <path d="M 145.8 224.28 
L 1049.76 224.28 
" style="fill: none; stroke: #000000; stroke-width: 0.8; stroke-linejoin: miter; stroke-linecap: square"/>
   </g>
  </g>
 </g>
 <defs>
  <clipPath id="paba481639a">
   <rect x="145.8" y="30.24" width="903.96" height="194.04"/>
  </clipPath>
 </defs>
</svg>
