<?xml version="1.0" encoding="utf-8" standalone="no"?>
<!DOCTYPE svg PUBLIC "-//W3C//DTD SVG 1.1//EN"
  "http://www.w3.org/Graphics/SVG/1.1/DTD/svg11.dtd">
<svg xmlns:xlink="http://www.w3.org/1999/xlink" width="756pt" height="252pt" viewBox="0 0 756 252" xmlns="http://www.w3.org/2000/svg" version="1.1">
 <metadata>
  <rdf:RDF xmlns:dc="http://purl.org/dc/elements/1.1/" xmlns:cc="http://creativecommons.org/ns#" xmlns:rdf="http://www.w3.org/1999/02/22-rdf-syntax-ns#">
   <cc:Work>
    <dc:type rdf:resource="http://purl.org/dc/dcmitype/StillImage"/>
    <dc:date>2025-09-05T15:16:58.618528</dc:date>
    <dc:format>image/svg+xml</dc:format>
    <dc:creator>
     <cc:Agent>
      <dc:title>Matplotlib v3.10.5, https://matplotlib.org/</dc:title>
     </cc:Agent>
    </dc:creator>
   </cc:Work>
  </rdf:RDF>
 </metadata>
 <defs>
  <style type="text/css">*{stroke-linejoin: round; stroke-linecap: butt}</style>
 </defs>
 <g id="figure_1">
  <g id="patch_1">
   <path d="M 0 252 
L 756 252 
L 756 0 
L 0 0 
z
" style="fill: #ffffff"/>
  </g>
  <g id="axes_1">
   <g id="patch_2">
    <path d="M 94.5 224.28 
L 680.4 224.28 
L 680.4 30.24 
L 94.5 30.24 
z
" style="fill: #ffffff"/>
   </g>
   <g id="matplotlib.axis_1">
    <g id="xtick_1">
     <g id="line2d_1">
      <defs>
       <path id="m2bf6c76597" d="M 0 0 
L 0 3.5 
" style="stroke: #000000; stroke-width: 0.8"/>
      </defs>
      <g>
       <use xlink:href="#m2bf6c76597" x="124.021346" y="224.28" style="stroke: #000000; stroke-width: 0.8"/>
      </g>
     </g>
     <g id="text_1">
      <!-- 2024-03 -->
      <g transform="translate(103.12994 238.878438) scale(0.1 -0.1)">
       <defs>
        <path id="DejaVuSans-32" d="M 1228 531 
L 3431 531 
L 3431 0 
L 469 0 
L 469 531 
Q 828 903 1448 1529 
Q 2069 2156 2228 2338 
Q 2531 2678 2651 2914 
Q 2772 3150 2772 3378 
Q 2772 3750 2511 3984 
Q 2250 4219 1831 4219 
Q 1534 4219 1204 4116 
Q 875 4013 500 3803 
L 500 4441 
Q 881 4594 1212 4672 
Q 1544 4750 1819 4750 
Q 2544 4750 2975 4387 
Q 3406 4025 3406 3419 
Q 3406 3131 3298 2873 
Q 3191 2616 2906 2266 
Q 2828 2175 2409 1742 
Q 1991 1309 1228 531 
z
" transform="scale(0.015625)"/>
        <path id="DejaVuSans-30" d="M 2034 4250 
Q 1547 4250 1301 3770 
Q 1056 3291 1056 2328 
Q 1056 1369 1301 889 
Q 1547 409 2034 409 
Q 2525 409 2770 889 
Q 3016 1369 3016 2328 
Q 3016 3291 2770 3770 
Q 2525 4250 2034 4250 
z
M 2034 4750 
Q 2819 4750 3233 4129 
Q 3647 3509 3647 2328 
Q 3647 1150 3233 529 
Q 2819 -91 2034 -91 
Q 1250 -91 836 529 
Q 422 1150 422 2328 
Q 422 3509 836 4129 
Q 1250 4750 2034 4750 
z
" transform="scale(0.015625)"/>
        <path id="DejaVuSans-34" d="M 2419 4116 
L 825 1625 
L 2419 1625 
L 2419 4116 
z
M 2253 4666 
L 3047 4666 
L 3047 1625 
L 3713 1625 
L 3713 1100 
L 3047 1100 
L 3047 0 
L 2419 0 
L 2419 1100 
L 313 1100 
L 313 1709 
L 2253 4666 
z
" transform="scale(0.015625)"/>
        <path id="DejaVuSans-2d" d="M 313 2009 
L 1997 2009 
L 1997 1497 
L 313 1497 
L 313 2009 
z
" transform="scale(0.015625)"/>
        <path id="DejaVuSans-33" d="M 2597 2516 
Q 3050 2419 3304 2112 
Q 3559 1806 3559 1356 
Q 3559 666 3084 287 
Q 2609 -91 1734 -91 
Q 1441 -91 1130 -33 
Q 819 25 488 141 
L 488 750 
Q 750 597 1062 519 
Q 1375 441 1716 441 
Q 2309 441 2620 675 
Q 2931 909 2931 1356 
Q 2931 1769 2642 2001 
Q 2353 2234 1838 2234 
L 1294 2234 
L 1294 2753 
L 1863 2753 
Q 2328 2753 2575 2939 
Q 2822 3125 2822 3475 
Q 2822 3834 2567 4026 
Q 2313 4219 1838 4219 
Q 1578 4219 1281 4162 
Q 984 4106 628 3988 
L 628 4550 
Q 988 4650 1302 4700 
Q 1616 4750 1894 4750 
Q 2613 4750 3031 4423 
Q 3450 4097 3450 3541 
Q 3450 3153 3228 2886 
Q 3006 2619 2597 2516 
z
" transform="scale(0.015625)"/>
       </defs>
       <use xlink:href="#DejaVuSans-32"/>
       <use xlink:href="#DejaVuSans-30" transform="translate(63.623047 0)"/>
       <use xlink:href="#DejaVuSans-32" transform="translate(127.246094 0)"/>
       <use xlink:href="#DejaVuSans-34" transform="translate(190.869141 0)"/>
       <use xlink:href="#DejaVuSans-2d" transform="translate(254.492188 0)"/>
       <use xlink:href="#DejaVuSans-30" transform="translate(290.576172 0)"/>
       <use xlink:href="#DejaVuSans-33" transform="translate(354.199219 0)"/>
      </g>
     </g>
    </g>
    <g id="xtick_2">
     <g id="line2d_2">
      <g>
       <use xlink:href="#m2bf6c76597" x="182.775086" y="224.28" style="stroke: #000000; stroke-width: 0.8"/>
      </g>
     </g>
     <g id="text_2">
      <!-- 2024-05 -->
      <g transform="translate(161.88368 238.878438) scale(0.1 -0.1)">
       <defs>
        <path id="DejaVuSans-35" d="M 691 4666 
L 3169 4666 
L 3169 4134 
L 1269 4134 
L 1269 2991 
Q 1406 3038 1543 3061 
Q 1681 3084 1819 3084 
Q 2600 3084 3056 2656 
Q 3513 2228 3513 1497 
Q 3513 744 3044 326 
Q 2575 -91 1722 -91 
Q 1428 -91 1123 -41 
Q 819 9 494 109 
L 494 744 
Q 775 591 1075 516 
Q 1375 441 1709 441 
Q 2250 441 2565 725 
Q 2881 1009 2881 1497 
Q 2881 1984 2565 2268 
Q 2250 2553 1709 2553 
Q 1456 2553 1204 2497 
Q 953 2441 691 2322 
L 691 4666 
z
" transform="scale(0.015625)"/>
       </defs>
       <use xlink:href="#DejaVuSans-32"/>
       <use xlink:href="#DejaVuSans-30" transform="translate(63.623047 0)"/>
       <use xlink:href="#DejaVuSans-32" transform="translate(127.246094 0)"/>
       <use xlink:href="#DejaVuSans-34" transform="translate(190.869141 0)"/>
       <use xlink:href="#DejaVuSans-2d" transform="translate(254.492188 0)"/>
       <use xlink:href="#DejaVuSans-30" transform="translate(290.576172 0)"/>
       <use xlink:href="#DejaVuSans-35" transform="translate(354.199219 0)"/>
      </g>
     </g>
    </g>
    <g id="xtick_3">
     <g id="line2d_3">
      <g>
       <use xlink:href="#m2bf6c76597" x="241.528826" y="224.28" style="stroke: #000000; stroke-width: 0.8"/>
      </g>
     </g>
     <g id="text_3">
      <!-- 2024-07 -->
      <g transform="translate(220.63742 238.878438) scale(0.1 -0.1)">
       <defs>
        <path id="DejaVuSans-37" d="M 525 4666 
L 3525 4666 
L 3525 4397 
L 1831 0 
L 1172 0 
L 2766 4134 
L 525 4134 
L 525 4666 
z
" transform="scale(0.015625)"/>
       </defs>
       <use xlink:href="#DejaVuSans-32"/>
       <use xlink:href="#DejaVuSans-30" transform="translate(63.623047 0)"/>
       <use xlink:href="#DejaVuSans-32" transform="translate(127.246094 0)"/>
       <use xlink:href="#DejaVuSans-34" transform="translate(190.869141 0)"/>
       <use xlink:href="#DejaVuSans-2d" transform="translate(254.492188 0)"/>
       <use xlink:href="#DejaVuSans-30" transform="translate(290.576172 0)"/>
       <use xlink:href="#DejaVuSans-37" transform="translate(354.199219 0)"/>
      </g>
     </g>
    </g>
    <g id="xtick_4">
     <g id="line2d_4">
      <g>
       <use xlink:href="#m2bf6c76597" x="301.245742" y="224.28" style="stroke: #000000; stroke-width: 0.8"/>
      </g>
     </g>
     <g id="text_4">
      <!-- 2024-09 -->
      <g transform="translate(280.354336 238.878438) scale(0.1 -0.1)">
       <defs>
        <path id="DejaVuSans-39" d="M 703 97 
L 703 672 
Q 941 559 1184 500 
Q 1428 441 1663 441 
Q 2288 441 2617 861 
Q 2947 1281 2994 2138 
Q 2813 1869 2534 1725 
Q 2256 1581 1919 1581 
Q 1219 1581 811 2004 
Q 403 2428 403 3163 
Q 403 3881 828 4315 
Q 1253 4750 1959 4750 
Q 2769 4750 3195 4129 
Q 3622 3509 3622 2328 
Q 3622 1225 3098 567 
Q 2575 -91 1691 -91 
Q 1453 -91 1209 -44 
Q 966 3 703 97 
z
M 1959 2075 
Q 2384 2075 2632 2365 
Q 2881 2656 2881 3163 
Q 2881 3666 2632 3958 
Q 2384 4250 1959 4250 
Q 1534 4250 1286 3958 
Q 1038 3666 1038 3163 
Q 1038 2656 1286 2365 
Q 1534 2075 1959 2075 
z
" transform="scale(0.015625)"/>
       </defs>
       <use xlink:href="#DejaVuSans-32"/>
       <use xlink:href="#DejaVuSans-30" transform="translate(63.623047 0)"/>
       <use xlink:href="#DejaVuSans-32" transform="translate(127.246094 0)"/>
       <use xlink:href="#DejaVuSans-34" transform="translate(190.869141 0)"/>
       <use xlink:href="#DejaVuSans-2d" transform="translate(254.492188 0)"/>
       <use xlink:href="#DejaVuSans-30" transform="translate(290.576172 0)"/>
       <use xlink:href="#DejaVuSans-39" transform="translate(354.199219 0)"/>
      </g>
     </g>
    </g>
    <g id="xtick_5">
     <g id="line2d_5">
      <g>
       <use xlink:href="#m2bf6c76597" x="359.999482" y="224.28" style="stroke: #000000; stroke-width: 0.8"/>
      </g>
     </g>
     <g id="text_5">
      <!-- 2024-11 -->
      <g transform="translate(339.108076 238.878438) scale(0.1 -0.1)">
       <defs>
        <path id="DejaVuSans-31" d="M 794 531 
L 1825 531 
L 1825 4091 
L 703 3866 
L 703 4441 
L 1819 4666 
L 2450 4666 
L 2450 531 
L 3481 531 
L 3481 0 
L 794 0 
L 794 531 
z
" transform="scale(0.015625)"/>
       </defs>
       <use xlink:href="#DejaVuSans-32"/>
       <use xlink:href="#DejaVuSans-30" transform="translate(63.623047 0)"/>
       <use xlink:href="#DejaVuSans-32" transform="translate(127.246094 0)"/>
       <use xlink:href="#DejaVuSans-34" transform="translate(190.869141 0)"/>
       <use xlink:href="#DejaVuSans-2d" transform="translate(254.492188 0)"/>
       <use xlink:href="#DejaVuSans-31" transform="translate(290.576172 0)"/>
       <use xlink:href="#DejaVuSans-31" transform="translate(354.199219 0)"/>
      </g>
     </g>
    </g>
    <g id="xtick_6">
     <g id="line2d_6">
      <g>
       <use xlink:href="#m2bf6c76597" x="418.753222" y="224.28" style="stroke: #000000; stroke-width: 0.8"/>
      </g>
     </g>
     <g id="text_6">
      <!-- 2025-01 -->
      <g transform="translate(397.861816 238.878438) scale(0.1 -0.1)">
       <use xlink:href="#DejaVuSans-32"/>
       <use xlink:href="#DejaVuSans-30" transform="translate(63.623047 0)"/>
       <use xlink:href="#DejaVuSans-32" transform="translate(127.246094 0)"/>
       <use xlink:href="#DejaVuSans-35" transform="translate(190.869141 0)"/>
       <use xlink:href="#DejaVuSans-2d" transform="translate(254.492188 0)"/>
       <use xlink:href="#DejaVuSans-30" transform="translate(290.576172 0)"/>
       <use xlink:href="#DejaVuSans-31" transform="translate(354.199219 0)"/>
      </g>
     </g>
    </g>
    <g id="xtick_7">
     <g id="line2d_7">
      <g>
       <use xlink:href="#m2bf6c76597" x="475.58061" y="224.28" style="stroke: #000000; stroke-width: 0.8"/>
      </g>
     </g>
     <g id="text_7">
      <!-- 2025-03 -->
      <g transform="translate(454.689204 238.878438) scale(0.1 -0.1)">
       <use xlink:href="#DejaVuSans-32"/>
       <use xlink:href="#DejaVuSans-30" transform="translate(63.623047 0)"/>
       <use xlink:href="#DejaVuSans-32" transform="translate(127.246094 0)"/>
       <use xlink:href="#DejaVuSans-35" transform="translate(190.869141 0)"/>
       <use xlink:href="#DejaVuSans-2d" transform="translate(254.492188 0)"/>
       <use xlink:href="#DejaVuSans-30" transform="translate(290.576172 0)"/>
       <use xlink:href="#DejaVuSans-33" transform="translate(354.199219 0)"/>
      </g>
     </g>
    </g>
    <g id="xtick_8">
     <g id="line2d_8">
      <g>
       <use xlink:href="#m2bf6c76597" x="534.33435" y="224.28" style="stroke: #000000; stroke-width: 0.8"/>
      </g>
     </g>
     <g id="text_8">
      <!-- 2025-05 -->
      <g transform="translate(513.442944 238.878438) scale(0.1 -0.1)">
       <use xlink:href="#DejaVuSans-32"/>
       <use xlink:href="#DejaVuSans-30" transform="translate(63.623047 0)"/>
       <use xlink:href="#DejaVuSans-32" transform="translate(127.246094 0)"/>
       <use xlink:href="#DejaVuSans-35" transform="translate(190.869141 0)"/>
       <use xlink:href="#DejaVuSans-2d" transform="translate(254.492188 0)"/>
       <use xlink:href="#DejaVuSans-30" transform="translate(290.576172 0)"/>
       <use xlink:href="#DejaVuSans-35" transform="translate(354.199219 0)"/>
      </g>
     </g>
    </g>
    <g id="xtick_9">
     <g id="line2d_9">
      <g>
       <use xlink:href="#m2bf6c76597" x="593.08809" y="224.28" style="stroke: #000000; stroke-width: 0.8"/>
      </g>
     </g>
     <g id="text_9">
      <!-- 2025-07 -->
      <g transform="translate(572.196684 238.878438) scale(0.1 -0.1)">
       <use xlink:href="#DejaVuSans-32"/>
       <use xlink:href="#DejaVuSans-30" transform="translate(63.623047 0)"/>
       <use xlink:href="#DejaVuSans-32" transform="translate(127.246094 0)"/>
       <use xlink:href="#DejaVuSans-35" transform="translate(190.869141 0)"/>
       <use xlink:href="#DejaVuSans-2d" transform="translate(254.492188 0)"/>
       <use xlink:href="#DejaVuSans-30" transform="translate(290.576172 0)"/>
       <use xlink:href="#DejaVuSans-37" transform="translate(354.199219 0)"/>
      </g>
     </g>
    </g>
    <g id="xtick_10">
     <g id="line2d_10">
      <g>
       <use xlink:href="#m2bf6c76597" x="652.805006" y="224.28" style="stroke: #000000; stroke-width: 0.8"/>
      </g>
     </g>
     <g id="text_10">
      <!-- 2025-09 -->
      <g transform="translate(631.9136 238.878438) scale(0.1 -0.1)">
       <use xlink:href="#DejaVuSans-32"/>
       <use xlink:href="#DejaVuSans-30" transform="translate(63.623047 0)"/>
       <use xlink:href="#DejaVuSans-32" transform="translate(127.246094 0)"/>
       <use xlink:href="#DejaVuSans-35" transform="translate(190.869141 0)"/>
       <use xlink:href="#DejaVuSans-2d" transform="translate(254.492188 0)"/>
       <use xlink:href="#DejaVuSans-30" transform="translate(290.576172 0)"/>
       <use xlink:href="#DejaVuSans-39" transform="translate(354.199219 0)"/>
      </g>
     </g>
    </g>
   </g>
   <g id="matplotlib.axis_2">
    <g id="ytick_1">
     <g id="line2d_11">
      <defs>
       <path id="m6279cf3f69" d="M 0 0 
L -3.5 0 
" style="stroke: #000000; stroke-width: 0.8"/>
      </defs>
      <g>
       <use xlink:href="#m6279cf3f69" x="94.5" y="209.144779" style="stroke: #000000; stroke-width: 0.8"/>
      </g>
     </g>
     <g id="text_11">
      <!-- 80 -->
      <g transform="translate(74.775 212.943998) scale(0.1 -0.1)">
       <defs>
        <path id="DejaVuSans-38" d="M 2034 2216 
Q 1584 2216 1326 1975 
Q 1069 1734 1069 1313 
Q 1069 891 1326 650 
Q 1584 409 2034 409 
Q 2484 409 2743 651 
Q 3003 894 3003 1313 
Q 3003 1734 2745 1975 
Q 2488 2216 2034 2216 
z
M 1403 2484 
Q 997 2584 770 2862 
Q 544 3141 544 3541 
Q 544 4100 942 4425 
Q 1341 4750 2034 4750 
Q 2731 4750 3128 4425 
Q 3525 4100 3525 3541 
Q 3525 3141 3298 2862 
Q 3072 2584 2669 2484 
Q 3125 2378 3379 2068 
Q 3634 1759 3634 1313 
Q 3634 634 3220 271 
Q 2806 -91 2034 -91 
Q 1263 -91 848 271 
Q 434 634 434 1313 
Q 434 1759 690 2068 
Q 947 2378 1403 2484 
z
M 1172 3481 
Q 1172 3119 1398 2916 
Q 1625 2713 2034 2713 
Q 2441 2713 2670 2916 
Q 2900 3119 2900 3481 
Q 2900 3844 2670 4047 
Q 2441 4250 2034 4250 
Q 1625 4250 1398 4047 
Q 1172 3844 1172 3481 
z
" transform="scale(0.015625)"/>
       </defs>
       <use xlink:href="#DejaVuSans-38"/>
       <use xlink:href="#DejaVuSans-30" transform="translate(63.623047 0)"/>
      </g>
     </g>
    </g>
    <g id="ytick_2">
     <g id="line2d_12">
      <g>
       <use xlink:href="#m6279cf3f69" x="94.5" y="176.169833" style="stroke: #000000; stroke-width: 0.8"/>
      </g>
     </g>
     <g id="text_12">
      <!-- 100 -->
      <g transform="translate(68.4125 179.969051) scale(0.1 -0.1)">
       <use xlink:href="#DejaVuSans-31"/>
       <use xlink:href="#DejaVuSans-30" transform="translate(63.623047 0)"/>
       <use xlink:href="#DejaVuSans-30" transform="translate(127.246094 0)"/>
      </g>
     </g>
    </g>
    <g id="ytick_3">
     <g id="line2d_13">
      <g>
       <use xlink:href="#m6279cf3f69" x="94.5" y="143.194886" style="stroke: #000000; stroke-width: 0.8"/>
      </g>
     </g>
     <g id="text_13">
      <!-- 120 -->
      <g transform="translate(68.4125 146.994105) scale(0.1 -0.1)">
       <use xlink:href="#DejaVuSans-31"/>
       <use xlink:href="#DejaVuSans-32" transform="translate(63.623047 0)"/>
       <use xlink:href="#DejaVuSans-30" transform="translate(127.246094 0)"/>
      </g>
     </g>
    </g>
    <g id="ytick_4">
     <g id="line2d_14">
      <g>
       <use xlink:href="#m6279cf3f69" x="94.5" y="110.21994" style="stroke: #000000; stroke-width: 0.8"/>
      </g>
     </g>
     <g id="text_14">
      <!-- 140 -->
      <g transform="translate(68.4125 114.019159) scale(0.1 -0.1)">
       <use xlink:href="#DejaVuSans-31"/>
       <use xlink:href="#DejaVuSans-34" transform="translate(63.623047 0)"/>
       <use xlink:href="#DejaVuSans-30" transform="translate(127.246094 0)"/>
      </g>
     </g>
    </g>
    <g id="ytick_5">
     <g id="line2d_15">
      <g>
       <use xlink:href="#m6279cf3f69" x="94.5" y="77.244994" style="stroke: #000000; stroke-width: 0.8"/>
      </g>
     </g>
     <g id="text_15">
      <!-- 160 -->
      <g transform="translate(68.4125 81.044213) scale(0.1 -0.1)">
       <defs>
        <path id="DejaVuSans-36" d="M 2113 2584 
Q 1688 2584 1439 2293 
Q 1191 2003 1191 1497 
Q 1191 994 1439 701 
Q 1688 409 2113 409 
Q 2538 409 2786 701 
Q 3034 994 3034 1497 
Q 3034 2003 2786 2293 
Q 2538 2584 2113 2584 
z
M 3366 4563 
L 3366 3988 
Q 3128 4100 2886 4159 
Q 2644 4219 2406 4219 
Q 1781 4219 1451 3797 
Q 1122 3375 1075 2522 
Q 1259 2794 1537 2939 
Q 1816 3084 2150 3084 
Q 2853 3084 3261 2657 
Q 3669 2231 3669 1497 
Q 3669 778 3244 343 
Q 2819 -91 2113 -91 
Q 1303 -91 875 529 
Q 447 1150 447 2328 
Q 447 3434 972 4092 
Q 1497 4750 2381 4750 
Q 2619 4750 2861 4703 
Q 3103 4656 3366 4563 
z
" transform="scale(0.015625)"/>
       </defs>
       <use xlink:href="#DejaVuSans-31"/>
       <use xlink:href="#DejaVuSans-36" transform="translate(63.623047 0)"/>
       <use xlink:href="#DejaVuSans-30" transform="translate(127.246094 0)"/>
      </g>
     </g>
    </g>
    <g id="ytick_6">
     <g id="line2d_16">
      <g>
       <use xlink:href="#m6279cf3f69" x="94.5" y="44.270048" style="stroke: #000000; stroke-width: 0.8"/>
      </g>
     </g>
     <g id="text_16">
      <!-- 180 -->
      <g transform="translate(68.4125 48.069266) scale(0.1 -0.1)">
       <use xlink:href="#DejaVuSans-31"/>
       <use xlink:href="#DejaVuSans-38" transform="translate(63.623047 0)"/>
       <use xlink:href="#DejaVuSans-30" transform="translate(127.246094 0)"/>
      </g>
     </g>
    </g>
   </g>
   <g id="line2d_17">
    <path d="M 121.131818 211.344233 
L 122.094994 213.054868 
L 123.05817 210.666882 
L 124.021346 205.447639 
L 126.910875 200.572807 
L 127.874051 199.368047 
L 128.837227 194.858873 
L 129.800403 188.317595 
L 130.763579 196.790432 
L 133.653107 199.681187 
L 134.616283 189.56354 
L 135.579459 191.252854 
L 136.542635 196.10483 
L 137.505811 196.281174 
L 140.395339 195.262657 
L 142.321692 192.103254 
L 143.284868 190.351346 
L 144.248044 185.647689 
L 147.137572 184.472615 
L 149.063924 192.304328 
L 150.0271 192.129619 
L 153.879804 192.118097 
L 154.84298 193.619507 
L 155.806157 194.42378 
L 156.769333 199.465294 
L 157.732509 195.999355 
L 160.622037 197.44143 
L 161.585213 200.373406 
L 162.548389 197.596353 
L 163.511565 191.70113 
L 164.474741 195.705989 
L 167.364269 199.307076 
L 168.327445 196.976664 
L 169.290621 202.547211 
L 170.253797 201.499033 
L 171.216974 215.46 
L 174.106502 209.991644 
L 175.069678 205.203934 
L 176.032854 209.729587 
L 176.99603 204.859473 
L 177.959206 196.449279 
L 180.848734 196.413026 
L 181.81191 198.646179 
L 182.775086 204.18543 
L 184.701438 194.71219 
L 187.590967 189.189442 
L 188.554143 191.803321 
L 189.517319 192.03734 
L 190.480495 194.781411 
L 191.443671 192.917413 
L 194.333199 192.058762 
L 195.296375 190.481526 
L 196.259551 185.085687 
L 197.222727 185.532328 
L 198.185903 188.630748 
L 201.075432 184.838473 
L 202.038608 183.83973 
L 203.001784 184.55829 
L 203.96496 169.974338 
L 204.928136 165.573934 
L 208.78084 153.325314 
L 209.744016 151.802494 
L 210.707192 158.930491 
L 211.670368 160.359371 
L 214.559896 151.514059 
L 215.523072 149.145758 
L 216.486249 139.252268 
L 217.449425 141.628808 
L 218.412601 141.810096 
L 221.302129 140.323529 
L 222.265305 141.757478 
L 224.191657 127.417922 
L 225.154833 123.676416 
L 228.044361 125.159826 
L 229.007537 117.577993 
L 230.93389 125.48947 
L 231.897066 132.428531 
L 234.786594 146.372516 
L 235.74977 133.219671 
L 236.712946 132.708714 
L 237.676122 136.680956 
L 238.639298 137.422636 
L 241.528826 136.169987 
L 242.492002 138.85661 
L 243.455178 129.610055 
L 245.38153 133.64821 
L 248.271059 129.741933 
L 250.197411 118.682299 
L 251.160587 131.060483 
L 252.123763 128.027724 
L 255.013291 129.346325 
L 255.976467 132.774653 
L 256.939643 146.570308 
L 257.902819 141.460816 
L 258.865995 146.669191 
L 261.755524 137.422636 
L 262.7187 138.988475 
L 263.681876 152.734682 
L 264.645052 155.981685 
L 265.608228 154.696079 
L 268.497756 157.11896 
L 269.460932 170.074014 
L 270.424108 148.169104 
L 271.387284 161.041728 
L 272.35046 164.239308 
L 275.239988 175.480205 
L 276.203165 169.216947 
L 277.166341 178.018459 
L 278.129517 168.030212 
L 279.092693 168.392825 
L 281.982221 161.354894 
L 282.945397 149.619532 
L 283.908573 146.421964 
L 284.871749 138.543432 
L 285.834925 135.708503 
L 288.724453 126.775088 
L 289.687629 131.307734 
L 290.650806 129.247429 
L 291.613982 137.093004 
L 292.577158 127.813505 
L 295.466686 132.609831 
L 296.429862 129.577073 
L 297.393038 134.010811 
L 298.356214 147.229595 
L 299.31939 144.295745 
L 303.172094 163.036095 
L 304.13527 165.986423 
L 305.098446 164.338191 
L 306.061623 171.557411 
L 308.951151 165.557871 
L 309.914327 162.871273 
L 310.877503 148.350392 
L 311.840679 144.658044 
L 312.803855 144.723983 
L 315.693383 148.548196 
L 316.656559 150.509756 
L 317.619735 154.169134 
L 318.582911 146.75147 
L 319.546087 149.833915 
L 322.435616 149.405337 
L 323.398792 141.80636 
L 324.361968 137.454674 
L 325.325144 136.581041 
L 326.28832 140.932727 
L 329.177848 140.866801 
L 330.141024 148.185545 
L 331.1042 145.136082 
L 332.067376 138.542602 
L 333.030552 135.130488 
L 335.920081 130.515047 
L 336.883257 121.993001 
L 337.846433 122.388634 
L 338.809609 118.828139 
L 339.772785 118.844592 
L 342.662313 113.454414 
L 343.625489 124.119371 
L 344.588665 117.328125 
L 346.515017 113.569839 
L 349.404545 104.157644 
L 350.367722 104.355435 
L 351.330898 110.998375 
L 352.294074 109.597257 
L 353.25725 107.734618 
L 356.146778 109.415919 
L 357.109954 108.212643 
L 358.07313 111.361026 
L 359.036306 122.207271 
L 359.999482 117.855585 
L 362.88901 116.784136 
L 363.852186 110.421455 
L 364.815362 101.025764 
L 365.778539 95.635561 
L 366.741715 97.696067 
L 369.631243 101.60271 
L 370.594419 96.608164 
L 371.557595 99.937836 
L 372.520771 99.130167 
L 373.483947 107.009341 
L 376.373475 110.025872 
L 377.336651 98.718056 
L 378.299827 100.564217 
L 379.263003 99.278473 
L 380.22618 107.058801 
L 383.115708 116.833597 
L 384.078884 115.350061 
L 385.04206 117.954506 
L 386.968412 113.157727 
L 389.85794 112.531371 
L 390.821116 109.844509 
L 391.784292 101.800476 
L 392.747468 101.915875 
L 393.710644 106.234906 
L 396.600173 112.21891 
L 397.563349 118.384203 
L 398.526525 111.394663 
L 399.489701 114.642168 
L 400.452877 119.735961 
L 403.342405 123.445064 
L 405.268757 128.538857 
L 406.231933 125.621071 
L 407.195109 118.994156 
L 410.084638 110.801213 
L 411.047814 109.894523 
L 412.974166 110.372598 
L 413.937342 115.186157 
L 416.82687 114.394892 
L 417.790046 119.670023 
L 419.716398 113.043133 
L 420.679574 102.888479 
L 423.569102 94.71204 
L 424.532278 110.026426 
L 425.495455 110.075861 
L 427.421807 116.999463 
L 430.311335 121.417414 
L 431.274511 123.840697 
L 432.237687 116.455474 
L 433.200863 120.856921 
L 434.164039 114.032215 
L 438.016743 108.888962 
L 438.979919 98.602405 
L 439.943096 98.355153 
L 440.906272 105.938193 
L 443.7958 145.831433 
L 444.758976 128.406954 
L 445.722152 137.127446 
L 446.685328 135.56138 
L 447.648504 143.111425 
L 450.538032 148.732741 
L 451.501208 145.452266 
L 452.464384 135.264655 
L 453.42756 128.918037 
L 454.390736 127.005786 
L 457.280265 120.856921 
L 458.243441 122.126237 
L 459.206617 124.862736 
L 460.169793 118.021552 
L 461.132969 112.152946 
L 464.985673 111.246281 
L 465.948849 111.52654 
L 466.912025 110.075861 
L 467.875201 119.439249 
L 470.76473 126.280434 
L 471.727906 132.297383 
L 472.691082 124.631938 
L 473.654258 142.979535 
L 474.617434 135.116299 
L 477.506962 153.018803 
L 478.470138 149.837235 
L 479.433314 147.67772 
L 480.39649 158.771996 
L 481.359666 155.277213 
L 484.249194 164.69005 
L 485.212371 161.755747 
L 486.175547 150.231799 
L 487.138723 150.49558 
L 488.101899 140.455406 
L 490.991427 143.983486 
L 491.954603 150.742882 
L 492.917779 147.297245 
L 493.880955 145.63212 
L 494.844131 147.000482 
L 497.733659 140.884046 
L 498.696835 142.071058 
L 499.660012 153.496085 
L 500.623188 157.337405 
L 501.586364 160.239003 
L 504.475892 162.365738 
L 505.439068 159.447662 
L 506.402244 159.002531 
L 507.36542 173.213743 
L 508.328596 185.562002 
L 511.218124 180.07206 
L 512.1813 182.281212 
L 513.144476 152.556375 
L 514.107652 163.701131 
L 515.070829 158.161729 
L 517.960357 158.52443 
L 518.923533 156.067964 
L 519.886709 168.778923 
L 520.849885 173.724826 
L 524.702589 181.275551 
L 525.665765 178.011264 
L 527.592117 165.580576 
L 528.555293 158.029826 
L 531.444822 161.788716 
L 532.407998 161.310616 
L 533.371174 161.475475 
L 535.297526 152.276104 
L 539.15023 153.858787 
L 540.113406 148.055604 
L 541.076582 147.544522 
L 542.039758 148.731546 
L 544.929287 138.26272 
L 545.892463 126.837706 
L 546.855639 117.918606 
L 547.818815 118.759408 
L 548.781991 117.819685 
L 551.671519 117.539401 
L 552.634695 119.501289 
L 553.597871 123.754758 
L 554.561047 122.056651 
L 555.524223 124.59556 
L 559.376928 117.654825 
L 560.340104 118.792365 
L 561.30328 111.571346 
L 562.266456 118.264804 
L 565.155984 114.555374 
L 566.11916 108.224643 
L 567.082336 107.0706 
L 568.045512 110.252444 
L 569.008688 107.40032 
L 571.898216 105.900054 
L 572.861392 103.707368 
L 573.824568 105.553982 
L 574.787745 101.976204 
L 575.750921 106.971906 
L 578.640449 102.487311 
L 579.603625 103.427109 
L 580.566801 101.184812 
L 582.493153 103.872253 
L 585.382681 103.344667 
L 586.345857 97.194846 
L 587.309033 86.62637 
L 588.272209 85.455748 
L 589.235386 80.954675 
L 592.124914 80.558967 
L 593.08809 88.291596 
L 594.051266 81.779049 
L 595.014442 78.333173 
L 598.867146 80.14678 
L 599.830322 77.244994 
L 600.793498 72.496594 
L 601.756674 70.48512 
L 602.71985 69.13316 
L 605.609379 70.53458 
L 606.572555 59.603403 
L 607.535731 58.498745 
L 608.498907 55.811279 
L 609.462083 56.784034 
L 612.351611 58.482241 
L 613.314787 65.654302 
L 614.277963 59.4715 
L 615.241139 54.591197 
L 616.204315 54.986905 
L 619.093843 49.628476 
L 620.05702 51.672932 
L 621.020196 45.473626 
L 621.983372 47.781887 
L 622.946548 54.624179 
L 625.836076 44.270048 
L 626.799252 47.138877 
L 627.762428 45.226324 
L 628.725604 43.000505 
L 629.68878 39.818435 
L 632.578308 40.873632 
L 633.541484 39.06 
L 634.504661 41.648545 
L 635.467837 40.939571 
L 636.431013 43.528116 
L 639.320541 40.956075 
L 640.283717 51.458587 
L 641.246893 51.854295 
L 642.210069 52.546766 
L 643.173245 47.584021 
L 646.062773 44.583314 
L 647.025949 41.351758 
L 647.989125 41.632042 
L 648.952301 43.989764 
L 649.915478 53.865769 
L 653.768182 59.4715 
L 653.768182 59.4715 
" clip-path="url(#p08e3fcbd92)" style="fill: none; stroke: #1f77b4; stroke-width: 1.5; stroke-linecap: square"/>
   </g>
   <g id="patch_3">
    <path d="M 94.5 224.28 
L 94.5 30.24 
" style="fill: none; stroke: #000000; stroke-width: 0.8; stroke-linejoin: miter; stroke-linecap: square"/>
   </g>
   <g id="patch_4">
    <path d="M 94.5 224.28 
L 680.4 224.28 
" style="fill: none; stroke: #000000; stroke-width: 0.8; stroke-linejoin: miter; stroke-linecap: square"/>
   </g>
  </g>
 </g>
 <defs>
  <clipPath id="p08e3fcbd92">
   <rect x="94.5" y="30.24" width="585.9" height="194.04"/>
  </clipPath>
 </defs>
</svg>
